<?xml version="1.0" encoding="UTF-8" standalone="no"?>
<!DOCTYPE svg PUBLIC "-//W3C//DTD SVG 1.1//EN"
 "http://www.w3.org/Graphics/SVG/1.1/DTD/svg11.dtd">
<!-- Generated by graphviz version 12.2.1 (0)
 -->
<!-- Title: w2c__f217 Pages: 1 -->
<svg width="873pt" height="209pt"
 viewBox="0.00 0.00 873.25 208.58" xmlns="http://www.w3.org/2000/svg" xmlns:xlink="http://www.w3.org/1999/xlink">
<g id="graph0" class="graph" transform="scale(1 1) rotate(0) translate(4 204.58)">
<title>w2c__f217</title>
<!-- Node1 -->
<g id="Node000001" class="node">
<title>Node1</title>
<g id="a_Node000001"><a xlink:title=" ">
<polygon fill="#999999" stroke="#666666" points="865.25,-144.75 797.5,-144.75 797.5,-124 865.25,-124 865.25,-144.75"/>
<text text-anchor="middle" x="831.38" y="-131.25" font-family="Helvetica,sans-Serif" font-size="10.00">w2c__f217</text>
</a>
</g>
</g>
<!-- Node2 -->
<g id="Node000002" class="node">
<title>Node2</title>
<g id="a_Node000002"><a xlink:href="app_8c.html#a5677ffd129da8cd63b876545b8187d77" target="_top" xlink:title=" ">
<polygon fill="white" stroke="#666666" points="302.62,-153.75 234.88,-153.75 234.88,-133 302.62,-133 302.62,-153.75"/>
<text text-anchor="middle" x="268.75" y="-140.25" font-family="Helvetica,sans-Serif" font-size="10.00">w2c__f367</text>
</a>
</g>
</g>
<!-- Node1&#45;&gt;Node2 -->
<g id="edge1_Node000001_Node000002" class="edge">
<title>Node1&#45;&gt;Node2</title>
<g id="a_edge1_Node000001_Node000002"><a xlink:title=" ">
<path fill="none" stroke="#63b8ff" d="M800.79,-150.31C761.69,-169.84 690.12,-200.38 624.88,-200.38 624.88,-200.38 624.88,-200.38 519.12,-200.38 444.92,-200.38 424.75,-201.21 353.25,-181.38 330.23,-174.99 305.52,-163.04 289,-154.24"/>
<polygon fill="#63b8ff" stroke="#63b8ff" points="802.26,-153.48 809.57,-145.82 799.08,-147.25 802.26,-153.48"/>
</a>
</g>
</g>
<!-- Node6 -->
<g id="Node000006" class="node">
<title>Node6</title>
<g id="a_Node000006"><a xlink:href="app_8c.html#af343129bd663e00399561d73f0098887" target="_top" xlink:title=" ">
<polygon fill="white" stroke="#666666" points="657.75,-106.75 590,-106.75 590,-86 657.75,-86 657.75,-106.75"/>
<text text-anchor="middle" x="623.88" y="-93.25" font-family="Helvetica,sans-Serif" font-size="10.00">w2c__f372</text>
</a>
</g>
</g>
<!-- Node1&#45;&gt;Node6 -->
<g id="edge5_Node000001_Node000006" class="edge">
<title>Node1&#45;&gt;Node6</title>
<g id="a_edge5_Node000001_Node000006"><a xlink:title=" ">
<path fill="none" stroke="#63b8ff" d="M810.86,-116.32C797.92,-105.63 779.98,-93.08 761.5,-87.38 727.43,-76.86 686.38,-81.76 658.23,-87.61"/>
<polygon fill="#63b8ff" stroke="#63b8ff" points="808.34,-118.77 818.19,-122.67 812.92,-113.48 808.34,-118.77"/>
</a>
</g>
</g>
<!-- Node10 -->
<g id="Node000010" class="node">
<title>Node10</title>
<g id="a_Node000010"><a xlink:href="app_8c.html#a4e0e8b8ddb7852b111d530fef11aca0b" target="_top" xlink:title=" ">
<polygon fill="white" stroke="#666666" points="435.62,-172.75 367.88,-172.75 367.88,-152 435.62,-152 435.62,-172.75"/>
<text text-anchor="middle" x="401.75" y="-159.25" font-family="Helvetica,sans-Serif" font-size="10.00">w2c__f434</text>
</a>
</g>
</g>
<!-- Node1&#45;&gt;Node10 -->
<g id="edge14_Node000001_Node000010" class="edge">
<title>Node1&#45;&gt;Node10</title>
<g id="a_edge14_Node000001_Node000010"><a xlink:title=" ">
<path fill="none" stroke="#63b8ff" d="M785.94,-140.69C777.82,-141.7 769.42,-142.65 761.5,-143.38 641.94,-154.34 499.34,-159.56 435.95,-161.47"/>
<polygon fill="#63b8ff" stroke="#63b8ff" points="786.18,-144.19 795.65,-139.44 785.28,-137.25 786.18,-144.19"/>
</a>
</g>
</g>
<!-- Node12 -->
<g id="Node000012" class="node">
<title>Node12</title>
<g id="a_Node000012"><a xlink:href="app_8c.html#a50ce3678e8b5d9f8d087d7a79773e5ab" target="_top" xlink:title=" ">
<polygon fill="white" stroke="#666666" points="761.5,-116.75 693.75,-116.75 693.75,-96 761.5,-96 761.5,-116.75"/>
<text text-anchor="middle" x="727.62" y="-103.25" font-family="Helvetica,sans-Serif" font-size="10.00">w2c__f444</text>
</a>
</g>
</g>
<!-- Node1&#45;&gt;Node12 -->
<g id="edge15_Node000001_Node000012" class="edge">
<title>Node1&#45;&gt;Node12</title>
<g id="a_edge15_Node000001_Node000012"><a xlink:title=" ">
<path fill="none" stroke="#63b8ff" d="M786.1,-122.19C777.9,-119.93 769.46,-117.61 761.67,-115.47"/>
<polygon fill="#63b8ff" stroke="#63b8ff" points="785.03,-125.53 795.6,-124.81 786.89,-118.78 785.03,-125.53"/>
</a>
</g>
</g>
<!-- Node3 -->
<g id="Node000003" class="node">
<title>Node3</title>
<g id="a_Node000003"><a xlink:href="app_8c.html#ac863989691d4c389f80374209c220171" target="_top" xlink:title=" ">
<polygon fill="white" stroke="#666666" points="167,-172.75 104.5,-172.75 104.5,-152 167,-152 167,-172.75"/>
<text text-anchor="middle" x="135.75" y="-159.25" font-family="Helvetica,sans-Serif" font-size="10.00">w2c__c_0</text>
</a>
</g>
</g>
<!-- Node2&#45;&gt;Node3 -->
<g id="edge2_Node000002_Node000003" class="edge">
<title>Node2&#45;&gt;Node3</title>
<g id="a_edge2_Node000002_Node000003"><a xlink:title=" ">
<path fill="none" stroke="#63b8ff" d="M223.53,-149.79C204.97,-152.48 183.86,-155.54 167.1,-157.97"/>
<polygon fill="#63b8ff" stroke="#63b8ff" points="223.8,-153.29 233.2,-148.39 222.8,-146.36 223.8,-153.29"/>
</a>
</g>
</g>
<!-- Node5 -->
<g id="Node000005" class="node">
<title>Node5</title>
<g id="a_Node000005"><a xlink:href="app_8c.html#a8f64ccad6c506a1ca514ba4f43e5211c" target="_top" xlink:title=" ">
<polygon fill="white" stroke="#666666" points="184.25,-133.75 87.25,-133.75 87.25,-113 184.25,-113 184.25,-133.75"/>
<text text-anchor="middle" x="135.75" y="-120.25" font-family="Helvetica,sans-Serif" font-size="10.00">wrap_w2c__f367</text>
</a>
</g>
</g>
<!-- Node2&#45;&gt;Node5 -->
<g id="edge4_Node000002_Node000005" class="edge">
<title>Node2&#45;&gt;Node5</title>
<g id="a_edge4_Node000002_Node000005"><a xlink:title=" ">
<path fill="none" stroke="#63b8ff" d="M223.58,-136.63C211.06,-134.72 197.38,-132.63 184.65,-130.69"/>
<polygon fill="#63b8ff" stroke="#63b8ff" points="222.78,-140.05 233.2,-138.1 223.84,-133.13 222.78,-140.05"/>
</a>
</g>
</g>
<!-- Node4 -->
<g id="Node000004" class="node">
<title>Node4</title>
<g id="a_Node000004"><a xlink:href="app_8c.html#ab1e039392ea68017ab8a6063263b147d" target="_top" xlink:title=" ">
<polygon fill="white" stroke="#666666" points="51.25,-172.75 0,-172.75 0,-152 51.25,-152 51.25,-172.75"/>
<text text-anchor="middle" x="25.62" y="-159.25" font-family="Helvetica,sans-Serif" font-size="10.00">w2c__c</text>
</a>
</g>
</g>
<!-- Node3&#45;&gt;Node4 -->
<g id="edge3_Node000003_Node000004" class="edge">
<title>Node3&#45;&gt;Node4</title>
<g id="a_edge3_Node000003_Node000004"><a xlink:title=" ">
<path fill="none" stroke="#63b8ff" d="M92.72,-162.38C78.81,-162.38 63.78,-162.38 51.57,-162.38"/>
<polygon fill="#63b8ff" stroke="#63b8ff" points="92.54,-165.88 102.54,-162.38 92.54,-158.88 92.54,-165.88"/>
</a>
</g>
</g>
<!-- Node6&#45;&gt;Node2 -->
<g id="edge13_Node000006_Node000002" class="edge">
<title>Node6&#45;&gt;Node2</title>
<g id="a_edge13_Node000006_Node000002"><a xlink:title=" ">
<path fill="none" stroke="#63b8ff" d="M578.31,-102.31C506.46,-111.87 366.65,-130.48 302.88,-138.97"/>
<polygon fill="#63b8ff" stroke="#63b8ff" points="578.7,-105.79 588.15,-101 577.78,-98.85 578.7,-105.79"/>
</a>
</g>
</g>
<!-- Node7 -->
<g id="Node000007" class="node">
<title>Node7</title>
<g id="a_Node000007"><a xlink:href="app_8c.html#a16207b5f7a97b0ecfddd231452c5aa7e" target="_top" xlink:title=" ">
<polygon fill="white" stroke="#666666" points="554,-96.75 486.25,-96.75 486.25,-76 554,-76 554,-96.75"/>
<text text-anchor="middle" x="520.12" y="-83.25" font-family="Helvetica,sans-Serif" font-size="10.00">w2c__f263</text>
</a>
</g>
</g>
<!-- Node6&#45;&gt;Node7 -->
<g id="edge6_Node000006_Node000007" class="edge">
<title>Node6&#45;&gt;Node7</title>
<g id="a_edge6_Node000006_Node000007"><a xlink:title=" ">
<path fill="none" stroke="#63b8ff" d="M578.32,-92C570.21,-91.2 561.88,-90.38 554.17,-89.62"/>
<polygon fill="#63b8ff" stroke="#63b8ff" points="577.76,-95.46 588.05,-92.95 578.44,-88.49 577.76,-95.46"/>
</a>
</g>
</g>
<!-- Node7&#45;&gt;Node2 -->
<g id="edge9_Node000007_Node000002" class="edge">
<title>Node7&#45;&gt;Node2</title>
<g id="a_edge9_Node000007_Node000002"><a xlink:title=" ">
<path fill="none" stroke="#63b8ff" d="M481.14,-72.12C446.65,-61.45 394.96,-51.23 353.25,-67.38 319.06,-80.6 290.27,-115.06 277.23,-132.67"/>
<polygon fill="#63b8ff" stroke="#63b8ff" points="479.67,-75.32 490.26,-75.1 481.84,-68.67 479.67,-75.32"/>
</a>
</g>
</g>
<!-- Node8 -->
<g id="Node000008" class="node">
<title>Node8</title>
<g id="a_Node000008"><a xlink:href="app_8c.html#aabc3b06c7f7daa21796552c728f0379b" target="_top" xlink:title=" ">
<polygon fill="white" stroke="#666666" points="435.62,-20.75 367.88,-20.75 367.88,0 435.62,0 435.62,-20.75"/>
<text text-anchor="middle" x="401.75" y="-7.25" font-family="Helvetica,sans-Serif" font-size="10.00">w2c__f270</text>
</a>
</g>
</g>
<!-- Node7&#45;&gt;Node8 -->
<g id="edge7_Node000007_Node000008" class="edge">
<title>Node7&#45;&gt;Node8</title>
<g id="a_edge7_Node000007_Node000008"><a xlink:title=" ">
<path fill="none" stroke="#63b8ff" d="M497.62,-68.56C484.38,-58 466.83,-44.7 450.25,-34.38 442.57,-29.59 433.8,-24.95 425.91,-21.04"/>
<polygon fill="#63b8ff" stroke="#63b8ff" points="495.27,-71.16 505.24,-74.73 499.67,-65.72 495.27,-71.16"/>
</a>
</g>
</g>
<!-- Node7&#45;&gt;Node10 -->
<g id="edge10_Node000007_Node000010" class="edge">
<title>Node7&#45;&gt;Node10</title>
<g id="a_edge10_Node000007_Node000010"><a xlink:title=" ">
<path fill="none" stroke="#63b8ff" d="M493.6,-103.04C470.95,-117.83 438.54,-139 419.17,-151.65"/>
<polygon fill="#63b8ff" stroke="#63b8ff" points="495.22,-106.17 501.68,-97.77 491.39,-100.31 495.22,-106.17"/>
</a>
</g>
</g>
<!-- Node11 -->
<g id="Node000011" class="node">
<title>Node11</title>
<g id="a_Node000011"><a xlink:href="app_8c.html#a424e6fc7189fa7a8a66b06480239043b" target="_top" xlink:title=" ">
<polygon fill="white" stroke="#666666" points="450.25,-96.75 353.25,-96.75 353.25,-76 450.25,-76 450.25,-96.75"/>
<text text-anchor="middle" x="401.75" y="-83.25" font-family="Helvetica,sans-Serif" font-size="10.00">wrap_w2c__f263</text>
</a>
</g>
</g>
<!-- Node7&#45;&gt;Node11 -->
<g id="edge12_Node000007_Node000011" class="edge">
<title>Node7&#45;&gt;Node11</title>
<g id="a_edge12_Node000007_Node000011"><a xlink:title=" ">
<path fill="none" stroke="#63b8ff" d="M474.53,-86.38C466.64,-86.38 458.39,-86.38 450.41,-86.38"/>
<polygon fill="#63b8ff" stroke="#63b8ff" points="474.26,-89.88 484.26,-86.38 474.26,-82.88 474.26,-89.88"/>
</a>
</g>
</g>
<!-- Node9 -->
<g id="Node000009" class="node">
<title>Node9</title>
<g id="a_Node000009"><a xlink:href="app_8c.html#a54f194530158831aa826ddabfd869e3f" target="_top" xlink:title=" ">
<polygon fill="white" stroke="#666666" points="317.25,-20.75 220.25,-20.75 220.25,0 317.25,0 317.25,-20.75"/>
<text text-anchor="middle" x="268.75" y="-7.25" font-family="Helvetica,sans-Serif" font-size="10.00">wrap_w2c__f270</text>
</a>
</g>
</g>
<!-- Node8&#45;&gt;Node9 -->
<g id="edge8_Node000008_Node000009" class="edge">
<title>Node8&#45;&gt;Node9</title>
<g id="a_edge8_Node000008_Node000009"><a xlink:title=" ">
<path fill="none" stroke="#63b8ff" d="M356.2,-10.38C343.78,-10.38 330.25,-10.38 317.65,-10.38"/>
<polygon fill="#63b8ff" stroke="#63b8ff" points="356.18,-13.88 366.18,-10.38 356.18,-6.88 356.18,-13.88"/>
</a>
</g>
</g>
<!-- Node10&#45;&gt;Node2 -->
<g id="edge11_Node000010_Node000002" class="edge">
<title>Node10&#45;&gt;Node2</title>
<g id="a_edge11_Node000010_Node000002"><a xlink:title=" ">
<path fill="none" stroke="#63b8ff" d="M356.53,-155.96C338.96,-153.41 319.08,-150.53 302.8,-148.17"/>
<polygon fill="#63b8ff" stroke="#63b8ff" points="355.8,-159.39 366.2,-157.36 356.8,-152.46 355.8,-159.39"/>
</a>
</g>
</g>
<!-- Node12&#45;&gt;Node6 -->
<g id="edge16_Node000012_Node000006" class="edge">
<title>Node12&#45;&gt;Node6</title>
<g id="a_edge16_Node000012_Node000006"><a xlink:title=" ">
<path fill="none" stroke="#63b8ff" d="M682.07,-102C673.96,-101.2 665.63,-100.38 657.92,-99.62"/>
<polygon fill="#63b8ff" stroke="#63b8ff" points="681.51,-105.46 691.8,-102.95 682.19,-98.49 681.51,-105.46"/>
</a>
</g>
</g>
<!-- Node12&#45;&gt;Node12 -->
<g id="edge17_Node000012_Node000012" class="edge">
<title>Node12&#45;&gt;Node12</title>
<g id="a_edge17_Node000012_Node000012"><a xlink:title=" ">
<path fill="none" stroke="#63b8ff" d="M745.66,-128.56C743.11,-132.23 737.1,-134.75 727.62,-134.75 709.79,-134.75 704.22,-125.81 710.91,-117.15"/>
<polygon fill="#63b8ff" stroke="#63b8ff" points="749.14,-128.18 744.52,-118.65 742.19,-128.99 749.14,-128.18"/>
</a>
</g>
</g>
</g>
</svg>
