<?xml version="1.0" encoding="UTF-8" standalone="no"?>
<!DOCTYPE svg PUBLIC "-//W3C//DTD SVG 1.1//EN"
 "http://www.w3.org/Graphics/SVG/1.1/DTD/svg11.dtd">
<!-- Generated by graphviz version 12.2.1 (0)
 -->
<!-- Title: w2c__f256 Pages: 1 -->
<svg width="712pt" height="487pt"
 viewBox="0.00 0.00 711.50 486.75" xmlns="http://www.w3.org/2000/svg" xmlns:xlink="http://www.w3.org/1999/xlink">
<g id="graph0" class="graph" transform="scale(1 1) rotate(0) translate(4 482.75)">
<title>w2c__f256</title>
<!-- Node1 -->
<g id="Node000001" class="node">
<title>Node1</title>
<g id="a_Node000001"><a xlink:title=" ">
<polygon fill="#999999" stroke="#666666" points="703.5,-212.75 635.75,-212.75 635.75,-192 703.5,-192 703.5,-212.75"/>
<text text-anchor="middle" x="669.62" y="-199.25" font-family="Helvetica,sans-Serif" font-size="10.00">w2c__f256</text>
</a>
</g>
</g>
<!-- Node2 -->
<g id="Node000002" class="node">
<title>Node2</title>
<g id="a_Node000002"><a xlink:href="app_8c.html#aeb12ecc9385837eed1de8b75424f1317" target="_top" xlink:title=" ">
<polygon fill="white" stroke="#666666" points="585.12,-440.75 517.38,-440.75 517.38,-420 585.12,-420 585.12,-440.75"/>
<text text-anchor="middle" x="551.25" y="-427.25" font-family="Helvetica,sans-Serif" font-size="10.00">w2c__f205</text>
</a>
</g>
</g>
<!-- Node1&#45;&gt;Node2 -->
<g id="edge1_Node000001_Node000002" class="edge">
<title>Node1&#45;&gt;Node2</title>
<g id="a_edge1_Node000001_Node000002"><a xlink:title=" ">
<path fill="none" stroke="#63b8ff" d="M666.66,-224.27C661.95,-264.77 646.69,-352.23 599.75,-406.38 595.03,-411.82 588.78,-416.18 582.36,-419.6"/>
<polygon fill="#63b8ff" stroke="#63b8ff" points="670.11,-224.89 667.66,-214.58 663.15,-224.17 670.11,-224.89"/>
</a>
</g>
</g>
<!-- Node3 -->
<g id="Node000003" class="node">
<title>Node3</title>
<g id="a_Node000003"><a xlink:href="app_8c.html#a6c30f2996216fe44cdda84ff266f8b19" target="_top" xlink:title=" ">
<polygon fill="white" stroke="#666666" points="319.12,-345.75 251.38,-345.75 251.38,-325 319.12,-325 319.12,-345.75"/>
<text text-anchor="middle" x="285.25" y="-332.25" font-family="Helvetica,sans-Serif" font-size="10.00">w2c__f362</text>
</a>
</g>
</g>
<!-- Node1&#45;&gt;Node3 -->
<g id="edge19_Node000001_Node000003" class="edge">
<title>Node1&#45;&gt;Node3</title>
<g id="a_edge19_Node000001_Node000003"><a xlink:title=" ">
<path fill="none" stroke="#63b8ff" d="M662.91,-223.76C654.12,-252.59 634.53,-303.59 599.75,-332.38 519.76,-398.57 471.23,-395.38 369.75,-373.38 345.78,-368.18 320.43,-355.48 304.04,-346.19"/>
<polygon fill="#63b8ff" stroke="#63b8ff" points="666.22,-224.93 665.61,-214.35 659.49,-223 666.22,-224.93"/>
</a>
</g>
</g>
<!-- Node4 -->
<g id="Node000004" class="node">
<title>Node4</title>
<g id="a_Node000004"><a xlink:href="app_8c.html#a86ae468e235684021eadfdacd5cb9dba" target="_top" xlink:title=" ">
<polygon fill="white" stroke="#666666" points="200.75,-269.75 133,-269.75 133,-249 200.75,-249 200.75,-269.75"/>
<text text-anchor="middle" x="166.88" y="-256.25" font-family="Helvetica,sans-Serif" font-size="10.00">w2c__f452</text>
</a>
</g>
</g>
<!-- Node1&#45;&gt;Node4 -->
<g id="edge22_Node000001_Node000004" class="edge">
<title>Node1&#45;&gt;Node4</title>
<g id="a_edge22_Node000001_Node000004"><a xlink:title=" ">
<path fill="none" stroke="#63b8ff" d="M624.17,-209.07C616.05,-210.22 607.65,-211.37 599.75,-212.38 451.42,-231.21 273.82,-249.06 201.25,-256.15"/>
<polygon fill="#63b8ff" stroke="#63b8ff" points="624.48,-212.56 633.88,-207.66 623.48,-205.63 624.48,-212.56"/>
</a>
</g>
</g>
<!-- Node7 -->
<g id="Node000007" class="node">
<title>Node7</title>
<g id="a_Node000007"><a xlink:href="app_8c.html#a7dc7d70793bae217b64eab580fce99cb" target="_top" xlink:title=" ">
<polygon fill="white" stroke="#666666" points="200.75,-193.75 133,-193.75 133,-173 200.75,-173 200.75,-193.75"/>
<text text-anchor="middle" x="166.88" y="-180.25" font-family="Helvetica,sans-Serif" font-size="10.00">w2c__f215</text>
</a>
</g>
</g>
<!-- Node1&#45;&gt;Node7 -->
<g id="edge6_Node000001_Node000007" class="edge">
<title>Node1&#45;&gt;Node7</title>
<g id="a_edge6_Node000001_Node000007"><a xlink:title=" ">
<path fill="none" stroke="#63b8ff" d="M624,-200.68C524.94,-196.92 288.52,-187.95 201.11,-184.64"/>
<polygon fill="#63b8ff" stroke="#63b8ff" points="623.74,-204.17 633.87,-201.06 624.01,-197.18 623.74,-204.17"/>
</a>
</g>
</g>
<!-- Node9 -->
<g id="Node000009" class="node">
<title>Node9</title>
<g id="a_Node000009"><a xlink:href="app_8c.html#ad554c83ea8f2f1b6e67921e2fd7b7ffc" target="_top" xlink:title=" ">
<polygon fill="white" stroke="#666666" points="452.12,-174.75 384.38,-174.75 384.38,-154 452.12,-154 452.12,-174.75"/>
<text text-anchor="middle" x="418.25" y="-161.25" font-family="Helvetica,sans-Serif" font-size="10.00">w2c__f285</text>
</a>
</g>
</g>
<!-- Node1&#45;&gt;Node9 -->
<g id="edge8_Node000001_Node000009" class="edge">
<title>Node1&#45;&gt;Node9</title>
<g id="a_edge8_Node000001_Node000009"><a xlink:title=" ">
<path fill="none" stroke="#63b8ff" d="M624.22,-192.89C616.1,-191.28 607.68,-189.71 599.75,-188.38 548.62,-179.79 488.92,-172.35 452.62,-168.12"/>
<polygon fill="#63b8ff" stroke="#63b8ff" points="623.45,-196.3 633.95,-194.85 624.84,-189.44 623.45,-196.3"/>
</a>
</g>
</g>
<!-- Node10 -->
<g id="Node000010" class="node">
<title>Node10</title>
<g id="a_Node000010"><a xlink:href="app_8c.html#a512669319fec7c2cbf61fd668bc650c9" target="_top" xlink:title=" ">
<polygon fill="white" stroke="#666666" points="319.12,-117.75 251.38,-117.75 251.38,-97 319.12,-97 319.12,-117.75"/>
<text text-anchor="middle" x="285.25" y="-104.25" font-family="Helvetica,sans-Serif" font-size="10.00">w2c__f343</text>
</a>
</g>
</g>
<!-- Node1&#45;&gt;Node10 -->
<g id="edge18_Node000001_Node000010" class="edge">
<title>Node1&#45;&gt;Node10</title>
<g id="a_edge18_Node000001_Node000010"><a xlink:title=" ">
<path fill="none" stroke="#63b8ff" d="M638.44,-186.46C626.62,-180.74 612.8,-174.65 599.75,-170.38 500.31,-137.79 377.34,-119.04 319.4,-111.41"/>
<polygon fill="#63b8ff" stroke="#63b8ff" points="636.78,-189.55 647.29,-190.88 639.9,-183.28 636.78,-189.55"/>
</a>
</g>
</g>
<!-- Node11 -->
<g id="Node000011" class="node">
<title>Node11</title>
<g id="a_Node000011"><a xlink:href="app_8c.html#a172dc6e51e60b69c5871fbabfa215af9" target="_top" xlink:title=" ">
<polygon fill="white" stroke="#666666" points="452.12,-364.75 384.38,-364.75 384.38,-344 452.12,-344 452.12,-364.75"/>
<text text-anchor="middle" x="418.25" y="-351.25" font-family="Helvetica,sans-Serif" font-size="10.00">w2c__f288</text>
</a>
</g>
</g>
<!-- Node1&#45;&gt;Node11 -->
<g id="edge11_Node000001_Node000011" class="edge">
<title>Node1&#45;&gt;Node11</title>
<g id="a_edge11_Node000001_Node000011"><a xlink:title=" ">
<path fill="none" stroke="#63b8ff" d="M658.55,-223.33C647.15,-244.89 626.63,-278 599.75,-297.38 554.83,-329.76 490.85,-344.21 452.35,-350.3"/>
<polygon fill="#63b8ff" stroke="#63b8ff" points="661.58,-225.09 662.98,-214.59 655.34,-221.93 661.58,-225.09"/>
</a>
</g>
</g>
<!-- Node12 -->
<g id="Node000012" class="node">
<title>Node12</title>
<g id="a_Node000012"><a xlink:href="app_8c.html#ab437815594eb4e8c7676d529f946de25" target="_top" xlink:title=" ">
<polygon fill="white" stroke="#666666" points="585.12,-288.75 517.38,-288.75 517.38,-268 585.12,-268 585.12,-288.75"/>
<text text-anchor="middle" x="551.25" y="-275.25" font-family="Helvetica,sans-Serif" font-size="10.00">w2c__f328</text>
</a>
</g>
</g>
<!-- Node1&#45;&gt;Node12 -->
<g id="edge13_Node000001_Node000012" class="edge">
<title>Node1&#45;&gt;Node12</title>
<g id="a_edge13_Node000001_Node000012"><a xlink:title=" ">
<path fill="none" stroke="#63b8ff" d="M647.12,-220.19C633.88,-230.75 616.33,-244.05 599.75,-254.38 592.07,-259.16 583.3,-263.8 575.41,-267.71"/>
<polygon fill="#63b8ff" stroke="#63b8ff" points="649.17,-223.03 654.74,-214.02 644.77,-217.59 649.17,-223.03"/>
</a>
</g>
</g>
<!-- Node15 -->
<g id="Node000015" class="node">
<title>Node15</title>
<g id="a_Node000015"><a xlink:href="app_8c.html#a05fd87b7f41136119e8d7698caac1f5c" target="_top" xlink:title=" ">
<polygon fill="white" stroke="#666666" points="585.12,-98.75 517.38,-98.75 517.38,-78 585.12,-78 585.12,-98.75"/>
<text text-anchor="middle" x="551.25" y="-85.25" font-family="Helvetica,sans-Serif" font-size="10.00">w2c__f423</text>
</a>
</g>
</g>
<!-- Node1&#45;&gt;Node15 -->
<g id="edge20_Node000001_Node000015" class="edge">
<title>Node1&#45;&gt;Node15</title>
<g id="a_edge20_Node000001_Node000015"><a xlink:title=" ">
<path fill="none" stroke="#63b8ff" d="M656.74,-181.87C644.46,-162.09 623.77,-132.31 599.75,-112.38 593.49,-107.18 585.93,-102.72 578.69,-99.11"/>
<polygon fill="#63b8ff" stroke="#63b8ff" points="653.72,-183.64 661.87,-190.4 659.71,-180.03 653.72,-183.64"/>
</a>
</g>
</g>
<!-- Node16 -->
<g id="Node000016" class="node">
<title>Node16</title>
<g id="a_Node000016"><a xlink:href="app_8c.html#ac550aaba82d57d6f9e0af73ab1dd2c1e" target="_top" xlink:title=" ">
<polygon fill="white" stroke="#666666" points="585.12,-59.75 517.38,-59.75 517.38,-39 585.12,-39 585.12,-59.75"/>
<text text-anchor="middle" x="551.25" y="-46.25" font-family="Helvetica,sans-Serif" font-size="10.00">w2c__f575</text>
</a>
</g>
</g>
<!-- Node1&#45;&gt;Node16 -->
<g id="edge23_Node000001_Node000016" class="edge">
<title>Node1&#45;&gt;Node16</title>
<g id="a_edge23_Node000001_Node000016"><a xlink:title=" ">
<path fill="none" stroke="#63b8ff" d="M662.48,-180.56C653.29,-151.57 633.34,-100.41 599.75,-69.38 595.54,-65.49 590.47,-62.3 585.23,-59.69"/>
<polygon fill="#63b8ff" stroke="#63b8ff" points="659.1,-181.49 665.33,-190.06 665.81,-179.47 659.1,-181.49"/>
</a>
</g>
</g>
<!-- Node18 -->
<g id="Node000018" class="node">
<title>Node18</title>
<g id="a_Node000018"><a xlink:href="app_8c.html#a616b28808639236198360c34ca17e115" target="_top" xlink:title=" ">
<polygon fill="white" stroke="#666666" points="599.75,-20.75 502.75,-20.75 502.75,0 599.75,0 599.75,-20.75"/>
<text text-anchor="middle" x="551.25" y="-7.25" font-family="Helvetica,sans-Serif" font-size="10.00">wrap_w2c__f256</text>
</a>
</g>
</g>
<!-- Node1&#45;&gt;Node18 -->
<g id="edge27_Node000001_Node000018" class="edge">
<title>Node1&#45;&gt;Node18</title>
<g id="a_edge27_Node000001_Node000018"><a xlink:title=" ">
<path fill="none" stroke="#63b8ff" d="M665.4,-180.44C659.05,-144.56 641.69,-73.07 599.75,-30.38 596.11,-26.67 591.69,-23.62 587.01,-21.12"/>
<polygon fill="#63b8ff" stroke="#63b8ff" points="661.91,-180.74 666.97,-190.04 668.82,-179.61 661.91,-180.74"/>
</a>
</g>
</g>
<!-- Node2&#45;&gt;Node3 -->
<g id="edge2_Node000002_Node000003" class="edge">
<title>Node2&#45;&gt;Node3</title>
<g id="a_edge2_Node000002_Node000003"><a xlink:title=" ">
<path fill="none" stroke="#63b8ff" d="M505.99,-431.36C468.25,-430.63 413.34,-425.76 369.75,-406.38 338.11,-392.3 309.25,-362.35 295.22,-346.22"/>
<polygon fill="#63b8ff" stroke="#63b8ff" points="505.58,-434.86 515.61,-431.45 505.65,-427.86 505.58,-434.86"/>
</a>
</g>
</g>
<!-- Node6 -->
<g id="Node000006" class="node">
<title>Node6</title>
<g id="a_Node000006"><a xlink:href="app_8c.html#a9832170d75416f4f84ba0d11565ef970" target="_top" xlink:title=" ">
<polygon fill="white" stroke="#666666" points="466.75,-478.75 369.75,-478.75 369.75,-458 466.75,-458 466.75,-478.75"/>
<text text-anchor="middle" x="418.25" y="-465.25" font-family="Helvetica,sans-Serif" font-size="10.00">wrap_w2c__f205</text>
</a>
</g>
</g>
<!-- Node2&#45;&gt;Node6 -->
<g id="edge5_Node000002_Node000006" class="edge">
<title>Node2&#45;&gt;Node6</title>
<g id="a_edge5_Node000002_Node000006"><a xlink:title=" ">
<path fill="none" stroke="#63b8ff" d="M506.36,-443.11C490.17,-447.8 472,-453.07 456.46,-457.58"/>
<polygon fill="#63b8ff" stroke="#63b8ff" points="507.11,-446.53 515.74,-440.39 505.16,-439.81 507.11,-446.53"/>
</a>
</g>
</g>
<!-- Node3&#45;&gt;Node4 -->
<g id="edge3_Node000003_Node000004" class="edge">
<title>Node3&#45;&gt;Node4</title>
<g id="a_edge3_Node000003_Node000004"><a xlink:title=" ">
<path fill="none" stroke="#63b8ff" d="M258.73,-318.71C236.08,-303.92 203.66,-282.75 184.29,-270.1"/>
<polygon fill="#63b8ff" stroke="#63b8ff" points="256.51,-321.44 266.8,-323.98 260.34,-315.58 256.51,-321.44"/>
</a>
</g>
</g>
<!-- Node5 -->
<g id="Node000005" class="node">
<title>Node5</title>
<g id="a_Node000005"><a xlink:href="app_8c.html#a57ca4f801147f9325a0ea7cc2d7192c5" target="_top" xlink:title=" ">
<polygon fill="white" stroke="#666666" points="97,-269.75 0,-269.75 0,-249 97,-249 97,-269.75"/>
<text text-anchor="middle" x="48.5" y="-256.25" font-family="Helvetica,sans-Serif" font-size="10.00">wrap_w2c__f452</text>
</a>
</g>
</g>
<!-- Node4&#45;&gt;Node5 -->
<g id="edge4_Node000004_Node000005" class="edge">
<title>Node4&#45;&gt;Node5</title>
<g id="a_edge4_Node000004_Node000005"><a xlink:title=" ">
<path fill="none" stroke="#63b8ff" d="M121.28,-259.38C113.39,-259.38 105.14,-259.38 97.16,-259.38"/>
<polygon fill="#63b8ff" stroke="#63b8ff" points="121.01,-262.88 131.01,-259.38 121.01,-255.88 121.01,-262.88"/>
</a>
</g>
</g>
<!-- Node8 -->
<g id="Node000008" class="node">
<title>Node8</title>
<g id="a_Node000008"><a xlink:href="app_8c.html#a7f65ba02075f2865f478747946b07c94" target="_top" xlink:title=" ">
<polygon fill="white" stroke="#666666" points="97,-193.75 0,-193.75 0,-173 97,-173 97,-193.75"/>
<text text-anchor="middle" x="48.5" y="-180.25" font-family="Helvetica,sans-Serif" font-size="10.00">wrap_w2c__f215</text>
</a>
</g>
</g>
<!-- Node7&#45;&gt;Node8 -->
<g id="edge7_Node000007_Node000008" class="edge">
<title>Node7&#45;&gt;Node8</title>
<g id="a_edge7_Node000007_Node000008"><a xlink:title=" ">
<path fill="none" stroke="#63b8ff" d="M121.28,-183.38C113.39,-183.38 105.14,-183.38 97.16,-183.38"/>
<polygon fill="#63b8ff" stroke="#63b8ff" points="121.01,-186.88 131.01,-183.38 121.01,-179.88 121.01,-186.88"/>
</a>
</g>
</g>
<!-- Node9&#45;&gt;Node10 -->
<g id="edge9_Node000009_Node000010" class="edge">
<title>Node9&#45;&gt;Node10</title>
<g id="a_edge9_Node000009_Node000010"><a xlink:title=" ">
<path fill="none" stroke="#63b8ff" d="M381.86,-148.98C359.48,-139.24 331.11,-126.89 311.11,-118.19"/>
<polygon fill="#63b8ff" stroke="#63b8ff" points="380.35,-152.14 390.91,-152.92 383.14,-145.72 380.35,-152.14"/>
</a>
</g>
</g>
<!-- Node10&#45;&gt;Node7 -->
<g id="edge10_Node000010_Node000007" class="edge">
<title>Node10&#45;&gt;Node7</title>
<g id="a_edge10_Node000010_Node000007"><a xlink:title=" ">
<path fill="none" stroke="#63b8ff" d="M258.73,-124.04C236.08,-138.83 203.66,-160 184.29,-172.65"/>
<polygon fill="#63b8ff" stroke="#63b8ff" points="260.34,-127.17 266.8,-118.77 256.51,-121.31 260.34,-127.17"/>
</a>
</g>
</g>
<!-- Node11&#45;&gt;Node3 -->
<g id="edge12_Node000011_Node000003" class="edge">
<title>Node11&#45;&gt;Node3</title>
<g id="a_edge12_Node000011_Node000003"><a xlink:title=" ">
<path fill="none" stroke="#63b8ff" d="M373.03,-347.96C355.46,-345.41 335.58,-342.53 319.3,-340.17"/>
<polygon fill="#63b8ff" stroke="#63b8ff" points="372.3,-351.39 382.7,-349.36 373.3,-344.46 372.3,-351.39"/>
</a>
</g>
</g>
<!-- Node12&#45;&gt;Node3 -->
<g id="edge14_Node000012_Node000003" class="edge">
<title>Node12&#45;&gt;Node3</title>
<g id="a_edge14_Node000012_Node000003"><a xlink:title=" ">
<path fill="none" stroke="#63b8ff" d="M505.77,-288.64C493.16,-291.51 479.43,-294.6 466.75,-297.38 415.45,-308.61 355.8,-321.05 319.55,-328.53"/>
<polygon fill="#63b8ff" stroke="#63b8ff" points="506.51,-292.06 515.48,-286.42 504.96,-285.23 506.51,-292.06"/>
</a>
</g>
</g>
<!-- Node13 -->
<g id="Node000013" class="node">
<title>Node13</title>
<g id="a_Node000013"><a xlink:href="app_8c.html#ab126aac8a4817b5c574e8992e8137aac" target="_top" xlink:title=" ">
<polygon fill="white" stroke="#666666" points="452.12,-288.75 384.38,-288.75 384.38,-268 452.12,-268 452.12,-288.75"/>
<text text-anchor="middle" x="418.25" y="-275.25" font-family="Helvetica,sans-Serif" font-size="10.00">w2c__f365</text>
</a>
</g>
</g>
<!-- Node12&#45;&gt;Node13 -->
<g id="edge15_Node000012_Node000013" class="edge">
<title>Node12&#45;&gt;Node13</title>
<g id="a_edge15_Node000012_Node000013"><a xlink:title=" ">
<path fill="none" stroke="#63b8ff" d="M505.78,-278.38C488.27,-278.38 468.51,-278.38 452.3,-278.38"/>
<polygon fill="#63b8ff" stroke="#63b8ff" points="505.68,-281.88 515.68,-278.38 505.68,-274.88 505.68,-281.88"/>
</a>
</g>
</g>
<!-- Node13&#45;&gt;Node3 -->
<g id="edge16_Node000013_Node000003" class="edge">
<title>Node13&#45;&gt;Node3</title>
<g id="a_edge16_Node000013_Node000003"><a xlink:title=" ">
<path fill="none" stroke="#63b8ff" d="M381.86,-293.77C359.48,-303.51 331.11,-315.86 311.11,-324.56"/>
<polygon fill="#63b8ff" stroke="#63b8ff" points="383.14,-297.03 390.91,-289.83 380.35,-290.61 383.14,-297.03"/>
</a>
</g>
</g>
<!-- Node14 -->
<g id="Node000014" class="node">
<title>Node14</title>
<g id="a_Node000014"><a xlink:href="app_8c.html#accc2bca59262d1758a00d538b9f76807" target="_top" xlink:title=" ">
<polygon fill="white" stroke="#666666" points="333.75,-288.75 236.75,-288.75 236.75,-268 333.75,-268 333.75,-288.75"/>
<text text-anchor="middle" x="285.25" y="-275.25" font-family="Helvetica,sans-Serif" font-size="10.00">wrap_w2c__f365</text>
</a>
</g>
</g>
<!-- Node13&#45;&gt;Node14 -->
<g id="edge17_Node000013_Node000014" class="edge">
<title>Node13&#45;&gt;Node14</title>
<g id="a_edge17_Node000013_Node000014"><a xlink:title=" ">
<path fill="none" stroke="#63b8ff" d="M372.7,-278.38C360.28,-278.38 346.75,-278.38 334.15,-278.38"/>
<polygon fill="#63b8ff" stroke="#63b8ff" points="372.68,-281.88 382.68,-278.38 372.68,-274.88 372.68,-281.88"/>
</a>
</g>
</g>
<!-- Node15&#45;&gt;Node10 -->
<g id="edge21_Node000015_Node000010" class="edge">
<title>Node15&#45;&gt;Node10</title>
<g id="a_edge21_Node000015_Node000010"><a xlink:title=" ">
<path fill="none" stroke="#63b8ff" d="M505.75,-91.58C453.1,-95.37 366.65,-101.59 319.49,-104.98"/>
<polygon fill="#63b8ff" stroke="#63b8ff" points="505.85,-95.08 515.57,-90.87 505.35,-88.1 505.85,-95.08"/>
</a>
</g>
</g>
<!-- Node16&#45;&gt;Node10 -->
<g id="edge24_Node000016_Node000010" class="edge">
<title>Node16&#45;&gt;Node10</title>
<g id="a_edge24_Node000016_Node000010"><a xlink:title=" ">
<path fill="none" stroke="#63b8ff" d="M510.02,-35.14C472.48,-24.19 415.53,-13.66 369.75,-31.38 335.56,-44.6 306.77,-79.06 293.73,-96.67"/>
<polygon fill="#63b8ff" stroke="#63b8ff" points="508.99,-38.48 519.57,-38.07 511.04,-31.79 508.99,-38.48"/>
</a>
</g>
</g>
<!-- Node17 -->
<g id="Node000017" class="node">
<title>Node17</title>
<g id="a_Node000017"><a xlink:href="app_8c.html#a764c0bb0028716e0a66688159e30b882" target="_top" xlink:title=" ">
<polygon fill="white" stroke="#666666" points="452.12,-60.75 384.38,-60.75 384.38,-40 452.12,-40 452.12,-60.75"/>
<text text-anchor="middle" x="418.25" y="-47.25" font-family="Helvetica,sans-Serif" font-size="10.00">w2c__f351</text>
</a>
</g>
</g>
<!-- Node16&#45;&gt;Node17 -->
<g id="edge25_Node000016_Node000017" class="edge">
<title>Node16&#45;&gt;Node17</title>
<g id="a_edge25_Node000016_Node000017"><a xlink:title=" ">
<path fill="none" stroke="#63b8ff" d="M505.78,-49.71C488.27,-49.85 468.51,-50 452.3,-50.12"/>
<polygon fill="#63b8ff" stroke="#63b8ff" points="505.71,-53.22 515.68,-49.64 505.65,-46.22 505.71,-53.22"/>
</a>
</g>
</g>
<!-- Node17&#45;&gt;Node10 -->
<g id="edge26_Node000017_Node000010" class="edge">
<title>Node17&#45;&gt;Node10</title>
<g id="a_edge26_Node000017_Node000010"><a xlink:title=" ">
<path fill="none" stroke="#63b8ff" d="M381.86,-65.77C359.48,-75.51 331.11,-87.86 311.11,-96.56"/>
<polygon fill="#63b8ff" stroke="#63b8ff" points="383.14,-69.03 390.91,-61.83 380.35,-62.61 383.14,-69.03"/>
</a>
</g>
</g>
</g>
</svg>
