<?xml version="1.0" encoding="UTF-8" standalone="no"?>
<!DOCTYPE svg PUBLIC "-//W3C//DTD SVG 1.1//EN"
 "http://www.w3.org/Graphics/SVG/1.1/DTD/svg11.dtd">
<!-- Generated by graphviz version 12.2.1 (0)
 -->
<!-- Title: w2c__f238 Pages: 1 -->
<svg width="392pt" height="263pt"
 viewBox="0.00 0.00 391.50 262.75" xmlns="http://www.w3.org/2000/svg" xmlns:xlink="http://www.w3.org/1999/xlink">
<g id="graph0" class="graph" transform="scale(1 1) rotate(0) translate(4 258.75)">
<title>w2c__f238</title>
<!-- Node1 -->
<g id="Node000001" class="node">
<title>Node1</title>
<g id="a_Node000001"><a xlink:title=" ">
<polygon fill="#999999" stroke="#666666" points="67.75,-137.75 0,-137.75 0,-117 67.75,-117 67.75,-137.75"/>
<text text-anchor="middle" x="33.88" y="-124.25" font-family="Helvetica,sans-Serif" font-size="10.00">w2c__f238</text>
</a>
</g>
</g>
<!-- Node2 -->
<g id="Node000002" class="node">
<title>Node2</title>
<g id="a_Node000002"><a xlink:href="app_8c.html#a0378208e0d5c0d1d6e7370f1c578fab3" target="_top" xlink:title=" ">
<polygon fill="white" stroke="#666666" points="173.75,-254.75 106,-254.75 106,-234 173.75,-234 173.75,-254.75"/>
<text text-anchor="middle" x="139.88" y="-241.25" font-family="Helvetica,sans-Serif" font-size="10.00">w2c__f216</text>
</a>
</g>
</g>
<!-- Node1&#45;&gt;Node2 -->
<g id="edge1_Node000001_Node000002" class="edge">
<title>Node1&#45;&gt;Node2</title>
<g id="a_edge1_Node000001_Node000002"><a xlink:title=" ">
<path fill="none" stroke="#63b8ff" d="M40.45,-138.14C50.81,-157.37 74.65,-198.05 103.75,-224.38 104.95,-225.46 106.23,-226.52 107.55,-227.54"/>
<polygon fill="#63b8ff" stroke="#63b8ff" points="105.19,-230.17 115.44,-232.86 109.1,-224.37 105.19,-230.17"/>
</a>
</g>
</g>
<!-- Node4 -->
<g id="Node000004" class="node">
<title>Node4</title>
<g id="a_Node000004"><a xlink:href="app_8c.html#a31fade832aba27a39b4f9e7dae41c3ef" target="_top" xlink:title=" ">
<polygon fill="white" stroke="#666666" points="173.75,-215.75 106,-215.75 106,-195 173.75,-195 173.75,-215.75"/>
<text text-anchor="middle" x="139.88" y="-202.25" font-family="Helvetica,sans-Serif" font-size="10.00">w2c__f416</text>
</a>
</g>
</g>
<!-- Node1&#45;&gt;Node4 -->
<g id="edge3_Node000001_Node000004" class="edge">
<title>Node1&#45;&gt;Node4</title>
<g id="a_edge3_Node000001_Node000004"><a xlink:title=" ">
<path fill="none" stroke="#63b8ff" d="M46.06,-137.9C59.28,-150.07 82.21,-170.36 103.75,-185.38 105.33,-186.48 106.98,-187.58 108.66,-188.66"/>
<polygon fill="#63b8ff" stroke="#63b8ff" points="106.76,-191.6 117.13,-193.78 110.39,-185.61 106.76,-191.6"/>
</a>
</g>
</g>
<!-- Node6 -->
<g id="Node000006" class="node">
<title>Node6</title>
<g id="a_Node000006"><a xlink:href="app_8c.html#a62b40d05237f4fef5a4b6f3a1238cc9c" target="_top" xlink:title=" ">
<polygon fill="white" stroke="#666666" points="173.75,-176.75 106,-176.75 106,-156 173.75,-156 173.75,-176.75"/>
<text text-anchor="middle" x="139.88" y="-163.25" font-family="Helvetica,sans-Serif" font-size="10.00">w2c__f430</text>
</a>
</g>
</g>
<!-- Node1&#45;&gt;Node6 -->
<g id="edge5_Node000001_Node000006" class="edge">
<title>Node1&#45;&gt;Node6</title>
<g id="a_edge5_Node000001_Node000006"><a xlink:title=" ">
<path fill="none" stroke="#63b8ff" d="M63.84,-138.24C74.89,-142.38 87.67,-147.17 99.52,-151.62"/>
<polygon fill="#63b8ff" stroke="#63b8ff" points="98.05,-154.8 108.64,-155.04 100.51,-148.25 98.05,-154.8"/>
</a>
</g>
</g>
<!-- Node9 -->
<g id="Node000009" class="node">
<title>Node9</title>
<g id="a_Node000009"><a xlink:href="app_8c.html#a674f6e81761467d0a8dc6d2a425eda9f" target="_top" xlink:title=" ">
<polygon fill="white" stroke="#666666" points="173.75,-137.75 106,-137.75 106,-117 173.75,-117 173.75,-137.75"/>
<text text-anchor="middle" x="139.88" y="-124.25" font-family="Helvetica,sans-Serif" font-size="10.00">w2c__f498</text>
</a>
</g>
</g>
<!-- Node1&#45;&gt;Node9 -->
<g id="edge9_Node000001_Node000009" class="edge">
<title>Node1&#45;&gt;Node9</title>
<g id="a_edge9_Node000001_Node000009"><a xlink:title=" ">
<path fill="none" stroke="#63b8ff" d="M68.07,-127.38C76.42,-127.38 85.51,-127.38 94.32,-127.38"/>
<polygon fill="#63b8ff" stroke="#63b8ff" points="94.13,-130.88 104.13,-127.38 94.13,-123.88 94.13,-130.88"/>
</a>
</g>
</g>
<!-- Node10 -->
<g id="Node000010" class="node">
<title>Node10</title>
<g id="a_Node000010"><a xlink:href="app_8c.html#a58d893dd6cf117aafb69550b2a0a0e6a" target="_top" xlink:title=" ">
<polygon fill="white" stroke="#666666" points="173.75,-98.75 106,-98.75 106,-78 173.75,-78 173.75,-98.75"/>
<text text-anchor="middle" x="139.88" y="-85.25" font-family="Helvetica,sans-Serif" font-size="10.00">wasm_ceil</text>
</a>
</g>
</g>
<!-- Node1&#45;&gt;Node10 -->
<g id="edge10_Node000001_Node000010" class="edge">
<title>Node1&#45;&gt;Node10</title>
<g id="a_edge10_Node000001_Node000010"><a xlink:title=" ">
<path fill="none" stroke="#63b8ff" d="M63.84,-116.51C74.89,-112.37 87.67,-107.58 99.52,-103.13"/>
<polygon fill="#63b8ff" stroke="#63b8ff" points="100.51,-106.5 108.64,-99.71 98.05,-99.95 100.51,-106.5"/>
</a>
</g>
</g>
<!-- Node12 -->
<g id="Node000012" class="node">
<title>Node12</title>
<g id="a_Node000012"><a xlink:href="app_8c.html#ad63b6498cfe22ce747f349eeb23b508f" target="_top" xlink:title=" ">
<polygon fill="white" stroke="#666666" points="175.62,-59.75 104.12,-59.75 104.12,-39 175.62,-39 175.62,-59.75"/>
<text text-anchor="middle" x="139.88" y="-46.25" font-family="Helvetica,sans-Serif" font-size="10.00">wasm_fabs</text>
</a>
</g>
</g>
<!-- Node1&#45;&gt;Node12 -->
<g id="edge12_Node000001_Node000012" class="edge">
<title>Node1&#45;&gt;Node12</title>
<g id="a_edge12_Node000001_Node000012"><a xlink:title=" ">
<path fill="none" stroke="#63b8ff" d="M46.06,-116.85C59.28,-104.68 82.21,-84.39 103.75,-69.38 105.33,-68.27 106.98,-67.17 108.66,-66.09"/>
<polygon fill="#63b8ff" stroke="#63b8ff" points="110.39,-69.14 117.13,-60.97 106.76,-63.15 110.39,-69.14"/>
</a>
</g>
</g>
<!-- Node13 -->
<g id="Node000013" class="node">
<title>Node13</title>
<g id="a_Node000013"><a xlink:href="app_8c.html#aca677a5348fb06a52413801823fa5291" target="_top" xlink:title=" ">
<polygon fill="white" stroke="#666666" points="176,-20.75 103.75,-20.75 103.75,0 176,0 176,-20.75"/>
<text text-anchor="middle" x="139.88" y="-7.25" font-family="Helvetica,sans-Serif" font-size="10.00">wasm_floor</text>
</a>
</g>
</g>
<!-- Node1&#45;&gt;Node13 -->
<g id="edge13_Node000001_Node000013" class="edge">
<title>Node1&#45;&gt;Node13</title>
<g id="a_edge13_Node000001_Node000013"><a xlink:title=" ">
<path fill="none" stroke="#63b8ff" d="M40.45,-116.61C50.81,-97.38 74.65,-56.7 103.75,-30.38 104.95,-29.29 106.23,-28.23 107.55,-27.21"/>
<polygon fill="#63b8ff" stroke="#63b8ff" points="109.1,-30.38 115.44,-21.89 105.19,-24.58 109.1,-30.38"/>
</a>
</g>
</g>
<!-- Node3 -->
<g id="Node000003" class="node">
<title>Node3</title>
<g id="a_Node000003"><a xlink:href="app_8c.html#a8d9f347f9a643f0ebfb53c4f54578ac4" target="_top" xlink:title=" ">
<polygon fill="white" stroke="#666666" points="279.75,-254.75 212,-254.75 212,-234 279.75,-234 279.75,-254.75"/>
<text text-anchor="middle" x="245.88" y="-241.25" font-family="Helvetica,sans-Serif" font-size="10.00">w2c__f304</text>
</a>
</g>
</g>
<!-- Node2&#45;&gt;Node3 -->
<g id="edge2_Node000002_Node000003" class="edge">
<title>Node2&#45;&gt;Node3</title>
<g id="a_edge2_Node000002_Node000003"><a xlink:title=" ">
<path fill="none" stroke="#63b8ff" d="M174.07,-244.38C182.42,-244.38 191.51,-244.38 200.32,-244.38"/>
<polygon fill="#63b8ff" stroke="#63b8ff" points="200.13,-247.88 210.13,-244.38 200.13,-240.88 200.13,-247.88"/>
</a>
</g>
</g>
<!-- Node5 -->
<g id="Node000005" class="node">
<title>Node5</title>
<g id="a_Node000005"><a xlink:href="app_8c.html#a75d2a28c1bac8b1e29f069bf851fdba9" target="_top" xlink:title=" ">
<polygon fill="white" stroke="#666666" points="279.75,-215.75 212,-215.75 212,-195 279.75,-195 279.75,-215.75"/>
<text text-anchor="middle" x="245.88" y="-202.25" font-family="Helvetica,sans-Serif" font-size="10.00">w2c__f549</text>
</a>
</g>
</g>
<!-- Node4&#45;&gt;Node5 -->
<g id="edge4_Node000004_Node000005" class="edge">
<title>Node4&#45;&gt;Node5</title>
<g id="a_edge4_Node000004_Node000005"><a xlink:title=" ">
<path fill="none" stroke="#63b8ff" d="M174.07,-205.38C182.42,-205.38 191.51,-205.38 200.32,-205.38"/>
<polygon fill="#63b8ff" stroke="#63b8ff" points="200.13,-208.88 210.13,-205.38 200.13,-201.88 200.13,-208.88"/>
</a>
</g>
</g>
<!-- Node7 -->
<g id="Node000007" class="node">
<title>Node7</title>
<g id="a_Node000007"><a xlink:href="app_8c.html#a052a0909d3d77ae49c9b6f170c344c38" target="_top" xlink:title=" ">
<polygon fill="white" stroke="#666666" points="279.75,-176.75 212,-176.75 212,-156 279.75,-156 279.75,-176.75"/>
<text text-anchor="middle" x="245.88" y="-163.25" font-family="Helvetica,sans-Serif" font-size="10.00">w2c__f251</text>
</a>
</g>
</g>
<!-- Node6&#45;&gt;Node7 -->
<g id="edge6_Node000006_Node000007" class="edge">
<title>Node6&#45;&gt;Node7</title>
<g id="a_edge6_Node000006_Node000007"><a xlink:title=" ">
<path fill="none" stroke="#63b8ff" d="M174.07,-166.38C182.42,-166.38 191.51,-166.38 200.32,-166.38"/>
<polygon fill="#63b8ff" stroke="#63b8ff" points="200.13,-169.88 210.13,-166.38 200.13,-162.88 200.13,-169.88"/>
</a>
</g>
</g>
<!-- Node8 -->
<g id="Node000008" class="node">
<title>Node8</title>
<g id="a_Node000008"><a xlink:href="app_8c.html#ab78a9ba6819f5a9d3b53302097151d33" target="_top" xlink:title=" ">
<polygon fill="white" stroke="#666666" points="383.5,-157.75 315.75,-157.75 315.75,-137 383.5,-137 383.5,-157.75"/>
<text text-anchor="middle" x="349.62" y="-144.25" font-family="Helvetica,sans-Serif" font-size="10.00">w2c__f481</text>
</a>
</g>
</g>
<!-- Node6&#45;&gt;Node8 -->
<g id="edge8_Node000006_Node000008" class="edge">
<title>Node6&#45;&gt;Node8</title>
<g id="a_edge8_Node000006_Node000008"><a xlink:title=" ">
<path fill="none" stroke="#63b8ff" d="M174.16,-155.56C185.98,-152.24 199.45,-149.02 212,-147.38 242.52,-143.37 277.22,-143.42 304,-144.45"/>
<polygon fill="#63b8ff" stroke="#63b8ff" points="303.68,-147.94 313.83,-144.9 303.99,-140.95 303.68,-147.94"/>
</a>
</g>
</g>
<!-- Node7&#45;&gt;Node8 -->
<g id="edge7_Node000007_Node000008" class="edge">
<title>Node7&#45;&gt;Node8</title>
<g id="a_edge7_Node000007_Node000008"><a xlink:title=" ">
<path fill="none" stroke="#63b8ff" d="M280.19,-160.15C287.91,-158.71 296.25,-157.16 304.36,-155.64"/>
<polygon fill="#63b8ff" stroke="#63b8ff" points="304.91,-159.1 314.09,-153.82 303.62,-152.22 304.91,-159.1"/>
</a>
</g>
</g>
<!-- Node11 -->
<g id="Node000011" class="node">
<title>Node11</title>
<g id="a_Node000011"><a xlink:href="app_8c.html#ae10979e670e507d4373e8cadcb3169aa" target="_top" xlink:title=" ">
<polygon fill="white" stroke="#666666" points="277.88,-59.75 213.88,-59.75 213.88,-39 277.88,-39 277.88,-59.75"/>
<text text-anchor="middle" x="245.88" y="-46.25" font-family="Helvetica,sans-Serif" font-size="10.00">quiet_nan</text>
</a>
</g>
</g>
<!-- Node10&#45;&gt;Node11 -->
<g id="edge11_Node000010_Node000011" class="edge">
<title>Node10&#45;&gt;Node11</title>
<g id="a_edge11_Node000010_Node000011"><a xlink:title=" ">
<path fill="none" stroke="#63b8ff" d="M169.84,-77.51C180.89,-73.37 193.67,-68.58 205.52,-64.13"/>
<polygon fill="#63b8ff" stroke="#63b8ff" points="206.51,-67.5 214.64,-60.71 204.05,-60.95 206.51,-67.5"/>
</a>
</g>
</g>
<!-- Node13&#45;&gt;Node11 -->
<g id="edge14_Node000013_Node000011" class="edge">
<title>Node13&#45;&gt;Node11</title>
<g id="a_edge14_Node000013_Node000011"><a xlink:title=" ">
<path fill="none" stroke="#63b8ff" d="M169.84,-21.24C180.89,-25.38 193.67,-30.17 205.52,-34.62"/>
<polygon fill="#63b8ff" stroke="#63b8ff" points="204.05,-37.8 214.64,-38.04 206.51,-31.25 204.05,-37.8"/>
</a>
</g>
</g>
</g>
</svg>
