<?xml version="1.0" encoding="UTF-8" standalone="no"?>
<!DOCTYPE svg PUBLIC "-//W3C//DTD SVG 1.1//EN"
 "http://www.w3.org/Graphics/SVG/1.1/DTD/svg11.dtd">
<!-- Generated by graphviz version 12.2.1 (0)
 -->
<!-- Title: w2c__f510 Pages: 1 -->
<svg width="1139pt" height="526pt"
 viewBox="0.00 0.00 1139.25 525.60" xmlns="http://www.w3.org/2000/svg" xmlns:xlink="http://www.w3.org/1999/xlink">
<g id="graph0" class="graph" transform="scale(1 1) rotate(0) translate(4 521.6)">
<title>w2c__f510</title>
<!-- Node1 -->
<g id="Node000001" class="node">
<title>Node1</title>
<g id="a_Node000001"><a xlink:title=" ">
<polygon fill="#999999" stroke="#666666" points="1131.25,-250.75 1063.5,-250.75 1063.5,-230 1131.25,-230 1131.25,-250.75"/>
<text text-anchor="middle" x="1097.38" y="-237.25" font-family="Helvetica,sans-Serif" font-size="10.00">w2c__f510</text>
</a>
</g>
</g>
<!-- Node2 -->
<g id="Node000002" class="node">
<title>Node2</title>
<g id="a_Node000002"><a xlink:href="app_8c.html#af245d5659b958eabe30540d214352ad8" target="_top" xlink:title=" ">
<polygon fill="white" stroke="#666666" points="909.12,-289.75 841.38,-289.75 841.38,-269 909.12,-269 909.12,-289.75"/>
<text text-anchor="middle" x="875.25" y="-276.25" font-family="Helvetica,sans-Serif" font-size="10.00">w2c__f197</text>
</a>
</g>
</g>
<!-- Node1&#45;&gt;Node2 -->
<g id="edge1_Node000001_Node000002" class="edge">
<title>Node1&#45;&gt;Node2</title>
<g id="a_edge1_Node000001_Node000002"><a xlink:title=" ">
<path fill="none" stroke="#63b8ff" d="M1051.94,-249.66C1043.82,-251.28 1035.41,-252.92 1027.5,-254.38 986.93,-261.85 940.04,-269.44 909.36,-274.26"/>
<polygon fill="#63b8ff" stroke="#63b8ff" points="1052.55,-253.1 1061.66,-247.69 1051.16,-246.24 1052.55,-253.1"/>
</a>
</g>
</g>
<!-- Node4 -->
<g id="Node000004" class="node">
<title>Node4</title>
<g id="a_Node000004"><a xlink:href="app_8c.html#a8170b16890e86fb1c7b7f6b873a1dc48" target="_top" xlink:title=" ">
<polygon fill="white" stroke="#666666" points="909.12,-250.75 841.38,-250.75 841.38,-230 909.12,-230 909.12,-250.75"/>
<text text-anchor="middle" x="875.25" y="-237.25" font-family="Helvetica,sans-Serif" font-size="10.00">w2c__f217</text>
</a>
</g>
</g>
<!-- Node1&#45;&gt;Node4 -->
<g id="edge3_Node000001_Node000004" class="edge">
<title>Node1&#45;&gt;Node4</title>
<g id="a_edge3_Node000001_Node000004"><a xlink:title=" ">
<path fill="none" stroke="#63b8ff" d="M1052.11,-240.38C1009.95,-240.38 947.46,-240.38 909.43,-240.38"/>
<polygon fill="#63b8ff" stroke="#63b8ff" points="1051.91,-243.88 1061.91,-240.38 1051.91,-236.88 1051.91,-243.88"/>
</a>
</g>
</g>
<!-- Node5 -->
<g id="Node000005" class="node">
<title>Node5</title>
<g id="a_Node000005"><a xlink:href="app_8c.html#a5677ffd129da8cd63b876545b8187d77" target="_top" xlink:title=" ">
<polygon fill="white" stroke="#666666" points="302.62,-324.75 234.88,-324.75 234.88,-304 302.62,-304 302.62,-324.75"/>
<text text-anchor="middle" x="268.75" y="-311.25" font-family="Helvetica,sans-Serif" font-size="10.00">w2c__f367</text>
</a>
</g>
</g>
<!-- Node1&#45;&gt;Node5 -->
<g id="edge29_Node000001_Node000005" class="edge">
<title>Node1&#45;&gt;Node5</title>
<g id="a_edge29_Node000001_Node000005"><a xlink:title=" ">
<path fill="none" stroke="#63b8ff" d="M1086.61,-261.42C1060.57,-314.08 984.02,-447.38 876.25,-447.38 876.25,-447.38 876.25,-447.38 519.12,-447.38 415.1,-447.38 312.35,-356.16 280.1,-324.81"/>
<polygon fill="#63b8ff" stroke="#63b8ff" points="1089.69,-263.11 1090.87,-252.58 1083.38,-260.07 1089.69,-263.11"/>
</a>
</g>
</g>
<!-- Node9 -->
<g id="Node000009" class="node">
<title>Node9</title>
<g id="a_Node000009"><a xlink:href="app_8c.html#af343129bd663e00399561d73f0098887" target="_top" xlink:title=" ">
<polygon fill="white" stroke="#666666" points="657.75,-287.75 590,-287.75 590,-267 657.75,-267 657.75,-287.75"/>
<text text-anchor="middle" x="623.88" y="-274.25" font-family="Helvetica,sans-Serif" font-size="10.00">w2c__f372</text>
</a>
</g>
</g>
<!-- Node1&#45;&gt;Node9 -->
<g id="edge30_Node000001_Node000009" class="edge">
<title>Node1&#45;&gt;Node9</title>
<g id="a_edge30_Node000001_Node000009"><a xlink:title=" ">
<path fill="none" stroke="#63b8ff" d="M1071.76,-257.4C1021.66,-290.89 903.06,-364.34 790.75,-390.38 748.75,-400.11 731.34,-411.49 693.75,-390.38 653.69,-367.87 634.18,-311.56 627.57,-288"/>
<polygon fill="#63b8ff" stroke="#63b8ff" points="1073.54,-260.42 1079.86,-251.92 1069.61,-254.63 1073.54,-260.42"/>
</a>
</g>
</g>
<!-- Node13 -->
<g id="Node000013" class="node">
<title>Node13</title>
<g id="a_Node000013"><a xlink:href="app_8c.html#a4e0e8b8ddb7852b111d530fef11aca0b" target="_top" xlink:title=" ">
<polygon fill="white" stroke="#666666" points="435.62,-191.75 367.88,-191.75 367.88,-171 435.62,-171 435.62,-191.75"/>
<text text-anchor="middle" x="401.75" y="-178.25" font-family="Helvetica,sans-Serif" font-size="10.00">w2c__f434</text>
</a>
</g>
</g>
<!-- Node1&#45;&gt;Node13 -->
<g id="edge38_Node000001_Node000013" class="edge">
<title>Node1&#45;&gt;Node13</title>
<g id="a_edge38_Node000001_Node000013"><a xlink:title=" ">
<path fill="none" stroke="#63b8ff" d="M1051.94,-235.27C959.43,-224.82 739.31,-200.93 554,-188.38 513.48,-185.63 466.78,-183.65 436.12,-182.51"/>
<polygon fill="#63b8ff" stroke="#63b8ff" points="1051.27,-238.71 1061.6,-236.36 1052.05,-231.76 1051.27,-238.71"/>
</a>
</g>
</g>
<!-- Node16 -->
<g id="Node000016" class="node">
<title>Node16</title>
<g id="a_Node000016"><a xlink:href="app_8c.html#adab65a9ea9c4b9f4b2597a3df979ce4b" target="_top" xlink:title=" ">
<polygon fill="white" stroke="#666666" points="657.75,-495.75 590,-495.75 590,-475 657.75,-475 657.75,-495.75"/>
<text text-anchor="middle" x="623.88" y="-482.25" font-family="Helvetica,sans-Serif" font-size="10.00">w2c__f315</text>
</a>
</g>
</g>
<!-- Node1&#45;&gt;Node16 -->
<g id="edge21_Node000001_Node000016" class="edge">
<title>Node1&#45;&gt;Node16</title>
<g id="a_edge21_Node000001_Node000016"><a xlink:title=" ">
<path fill="none" stroke="#63b8ff" d="M1097.02,-262.71C1096.99,-308.48 1089.7,-412.69 1027.5,-461.38 917.08,-547.8 733.05,-513.7 658.13,-494.75"/>
<polygon fill="#63b8ff" stroke="#63b8ff" points="1100.52,-262.68 1096.89,-252.72 1093.52,-262.77 1100.52,-262.68"/>
</a>
</g>
</g>
<!-- Node17 -->
<g id="Node000017" class="node">
<title>Node17</title>
<g id="a_Node000017"><a xlink:href="app_8c.html#a512669319fec7c2cbf61fd668bc650c9" target="_top" xlink:title=" ">
<polygon fill="white" stroke="#666666" points="1027.5,-116.75 959.75,-116.75 959.75,-96 1027.5,-96 1027.5,-116.75"/>
<text text-anchor="middle" x="993.62" y="-103.25" font-family="Helvetica,sans-Serif" font-size="10.00">w2c__f343</text>
</a>
</g>
</g>
<!-- Node1&#45;&gt;Node17 -->
<g id="edge23_Node000001_Node000017" class="edge">
<title>Node1&#45;&gt;Node17</title>
<g id="a_edge23_Node000001_Node000017"><a xlink:title=" ">
<path fill="none" stroke="#63b8ff" d="M1082.45,-220.29C1068.83,-200.84 1047.29,-170.67 1027.5,-145.38 1019.86,-135.61 1010.75,-124.86 1004.05,-117.13"/>
<polygon fill="#63b8ff" stroke="#63b8ff" points="1079.52,-222.2 1088.11,-228.4 1085.26,-218.2 1079.52,-222.2"/>
</a>
</g>
</g>
<!-- Node20 -->
<g id="Node000020" class="node">
<title>Node20</title>
<g id="a_Node000020"><a xlink:href="app_8c.html#a6c30f2996216fe44cdda84ff266f8b19" target="_top" xlink:title=" ">
<polygon fill="white" stroke="#666666" points="1027.5,-39.75 959.75,-39.75 959.75,-19 1027.5,-19 1027.5,-39.75"/>
<text text-anchor="middle" x="993.62" y="-26.25" font-family="Helvetica,sans-Serif" font-size="10.00">w2c__f362</text>
</a>
</g>
</g>
<!-- Node1&#45;&gt;Node20 -->
<g id="edge26_Node000001_Node000020" class="edge">
<title>Node1&#45;&gt;Node20</title>
<g id="a_edge26_Node000001_Node000020"><a xlink:title=" ">
<path fill="none" stroke="#63b8ff" d="M1087.69,-219.46C1075.18,-189.73 1050.99,-133.7 1027.5,-87.38 1018.91,-70.45 1007.84,-51.4 1000.98,-39.9"/>
<polygon fill="#63b8ff" stroke="#63b8ff" points="1084.35,-220.56 1091.44,-228.43 1090.81,-217.86 1084.35,-220.56"/>
</a>
</g>
</g>
<!-- Node23 -->
<g id="Node000023" class="node">
<title>Node23</title>
<g id="a_Node000023"><a xlink:href="app_8c.html#a2ce79fade48644997d23741bbc114e47" target="_top" xlink:title=" ">
<polygon fill="white" stroke="#666666" points="1027.5,-174.75 959.75,-174.75 959.75,-154 1027.5,-154 1027.5,-174.75"/>
<text text-anchor="middle" x="993.62" y="-161.25" font-family="Helvetica,sans-Serif" font-size="10.00">w2c__f373</text>
</a>
</g>
</g>
<!-- Node1&#45;&gt;Node23 -->
<g id="edge31_Node000001_Node000023" class="edge">
<title>Node1&#45;&gt;Node23</title>
<g id="a_edge31_Node000001_Node000023"><a xlink:title=" ">
<path fill="none" stroke="#63b8ff" d="M1073.22,-222.74C1059.89,-212.63 1042.79,-199.73 1027.5,-188.38 1021.6,-183.99 1015.07,-179.21 1009.39,-175.08"/>
<polygon fill="#63b8ff" stroke="#63b8ff" points="1070.89,-225.38 1080.97,-228.64 1075.13,-219.8 1070.89,-225.38"/>
</a>
</g>
</g>
<!-- Node3 -->
<g id="Node000003" class="node">
<title>Node3</title>
<g id="a_Node000003"><a xlink:href="app_8c.html#ac9dfe974277b0ee3fa24e73b7712fe31" target="_top" xlink:title=" ">
<polygon fill="white" stroke="#666666" points="790.75,-381.75 693.75,-381.75 693.75,-361 790.75,-361 790.75,-381.75"/>
<text text-anchor="middle" x="742.25" y="-368.25" font-family="Helvetica,sans-Serif" font-size="10.00">wrap_w2c__f197</text>
</a>
</g>
</g>
<!-- Node2&#45;&gt;Node3 -->
<g id="edge2_Node000002_Node000003" class="edge">
<title>Node2&#45;&gt;Node3</title>
<g id="a_edge2_Node000002_Node000003"><a xlink:title=" ">
<path fill="none" stroke="#63b8ff" d="M854.48,-297.53C838.13,-312.03 813.91,-332.35 790.75,-347.38 783.31,-352.2 774.77,-356.79 767,-360.63"/>
<polygon fill="#63b8ff" stroke="#63b8ff" points="856.48,-300.44 861.58,-291.15 851.8,-295.23 856.48,-300.44"/>
</a>
</g>
</g>
<!-- Node4&#45;&gt;Node5 -->
<g id="edge4_Node000004_Node000005" class="edge">
<title>Node4&#45;&gt;Node5</title>
<g id="a_edge4_Node000004_Node000005"><a xlink:title=" ">
<path fill="none" stroke="#63b8ff" d="M832,-256.51C830.17,-257.72 828.41,-259.01 826.75,-260.38 804.52,-278.75 815.36,-299.34 790.75,-314.38 727.43,-353.06 699.08,-333.38 624.88,-333.38 624.88,-333.38 624.88,-333.38 519.12,-333.38 441.4,-333.38 350.45,-324.09 302.77,-318.5"/>
<polygon fill="#63b8ff" stroke="#63b8ff" points="833.31,-259.79 840.3,-251.84 829.87,-253.69 833.31,-259.79"/>
</a>
</g>
</g>
<!-- Node4&#45;&gt;Node9 -->
<g id="edge8_Node000004_Node000009" class="edge">
<title>Node4&#45;&gt;Node9</title>
<g id="a_edge8_Node000004_Node000009"><a xlink:title=" ">
<path fill="none" stroke="#63b8ff" d="M829.77,-242.7C793.05,-245.13 739.7,-249.81 693.75,-258.38 682.04,-260.56 669.43,-263.77 658.24,-266.94"/>
<polygon fill="#63b8ff" stroke="#63b8ff" points="829.8,-246.21 839.56,-242.09 829.36,-239.22 829.8,-246.21"/>
</a>
</g>
</g>
<!-- Node4&#45;&gt;Node13 -->
<g id="edge17_Node000004_Node000013" class="edge">
<title>Node4&#45;&gt;Node13</title>
<g id="a_edge17_Node000004_Node000013"><a xlink:title=" ">
<path fill="none" stroke="#63b8ff" d="M829.73,-234.8C735.73,-223.04 518.85,-195.9 435.87,-185.52"/>
<polygon fill="#63b8ff" stroke="#63b8ff" points="829.24,-238.27 839.59,-236.04 830.11,-231.32 829.24,-238.27"/>
</a>
</g>
</g>
<!-- Node15 -->
<g id="Node000015" class="node">
<title>Node15</title>
<g id="a_Node000015"><a xlink:href="app_8c.html#a50ce3678e8b5d9f8d087d7a79773e5ab" target="_top" xlink:title=" ">
<polygon fill="white" stroke="#666666" points="776.12,-287.75 708.38,-287.75 708.38,-267 776.12,-267 776.12,-287.75"/>
<text text-anchor="middle" x="742.25" y="-274.25" font-family="Helvetica,sans-Serif" font-size="10.00">w2c__f444</text>
</a>
</g>
</g>
<!-- Node4&#45;&gt;Node15 -->
<g id="edge18_Node000004_Node000015" class="edge">
<title>Node4&#45;&gt;Node15</title>
<g id="a_edge18_Node000004_Node000015"><a xlink:title=" ">
<path fill="none" stroke="#63b8ff" d="M830.29,-252.79C812.65,-257.77 792.66,-263.42 776.3,-268.04"/>
<polygon fill="#63b8ff" stroke="#63b8ff" points="831.06,-256.21 839.74,-250.12 829.16,-249.47 831.06,-256.21"/>
</a>
</g>
</g>
<!-- Node6 -->
<g id="Node000006" class="node">
<title>Node6</title>
<g id="a_Node000006"><a xlink:href="app_8c.html#ac863989691d4c389f80374209c220171" target="_top" xlink:title=" ">
<polygon fill="white" stroke="#666666" points="167,-343.75 104.5,-343.75 104.5,-323 167,-323 167,-343.75"/>
<text text-anchor="middle" x="135.75" y="-330.25" font-family="Helvetica,sans-Serif" font-size="10.00">w2c__c_0</text>
</a>
</g>
</g>
<!-- Node5&#45;&gt;Node6 -->
<g id="edge5_Node000005_Node000006" class="edge">
<title>Node5&#45;&gt;Node6</title>
<g id="a_edge5_Node000005_Node000006"><a xlink:title=" ">
<path fill="none" stroke="#63b8ff" d="M223.53,-320.79C204.97,-323.48 183.86,-326.54 167.1,-328.97"/>
<polygon fill="#63b8ff" stroke="#63b8ff" points="223.8,-324.29 233.2,-319.39 222.8,-317.36 223.8,-324.29"/>
</a>
</g>
</g>
<!-- Node8 -->
<g id="Node000008" class="node">
<title>Node8</title>
<g id="a_Node000008"><a xlink:href="app_8c.html#a8f64ccad6c506a1ca514ba4f43e5211c" target="_top" xlink:title=" ">
<polygon fill="white" stroke="#666666" points="184.25,-304.75 87.25,-304.75 87.25,-284 184.25,-284 184.25,-304.75"/>
<text text-anchor="middle" x="135.75" y="-291.25" font-family="Helvetica,sans-Serif" font-size="10.00">wrap_w2c__f367</text>
</a>
</g>
</g>
<!-- Node5&#45;&gt;Node8 -->
<g id="edge7_Node000005_Node000008" class="edge">
<title>Node5&#45;&gt;Node8</title>
<g id="a_edge7_Node000005_Node000008"><a xlink:title=" ">
<path fill="none" stroke="#63b8ff" d="M223.58,-307.63C211.06,-305.72 197.38,-303.63 184.65,-301.69"/>
<polygon fill="#63b8ff" stroke="#63b8ff" points="222.78,-311.05 233.2,-309.1 223.84,-304.13 222.78,-311.05"/>
</a>
</g>
</g>
<!-- Node7 -->
<g id="Node000007" class="node">
<title>Node7</title>
<g id="a_Node000007"><a xlink:href="app_8c.html#ab1e039392ea68017ab8a6063263b147d" target="_top" xlink:title=" ">
<polygon fill="white" stroke="#666666" points="51.25,-343.75 0,-343.75 0,-323 51.25,-323 51.25,-343.75"/>
<text text-anchor="middle" x="25.62" y="-330.25" font-family="Helvetica,sans-Serif" font-size="10.00">w2c__c</text>
</a>
</g>
</g>
<!-- Node6&#45;&gt;Node7 -->
<g id="edge6_Node000006_Node000007" class="edge">
<title>Node6&#45;&gt;Node7</title>
<g id="a_edge6_Node000006_Node000007"><a xlink:title=" ">
<path fill="none" stroke="#63b8ff" d="M92.72,-333.38C78.81,-333.38 63.78,-333.38 51.57,-333.38"/>
<polygon fill="#63b8ff" stroke="#63b8ff" points="92.54,-336.88 102.54,-333.38 92.54,-329.88 92.54,-336.88"/>
</a>
</g>
</g>
<!-- Node9&#45;&gt;Node5 -->
<g id="edge16_Node000009_Node000005" class="edge">
<title>Node9&#45;&gt;Node5</title>
<g id="a_edge16_Node000009_Node000005"><a xlink:title=" ">
<path fill="none" stroke="#63b8ff" d="M578.31,-282.04C506.46,-289.57 366.65,-304.22 302.88,-310.9"/>
<polygon fill="#63b8ff" stroke="#63b8ff" points="578.57,-285.54 588.15,-281.01 577.84,-278.57 578.57,-285.54"/>
</a>
</g>
</g>
<!-- Node10 -->
<g id="Node000010" class="node">
<title>Node10</title>
<g id="a_Node000010"><a xlink:href="app_8c.html#a16207b5f7a97b0ecfddd231452c5aa7e" target="_top" xlink:title=" ">
<polygon fill="white" stroke="#666666" points="554,-249.75 486.25,-249.75 486.25,-229 554,-229 554,-249.75"/>
<text text-anchor="middle" x="520.12" y="-236.25" font-family="Helvetica,sans-Serif" font-size="10.00">w2c__f263</text>
</a>
</g>
</g>
<!-- Node9&#45;&gt;Node10 -->
<g id="edge9_Node000009_Node000010" class="edge">
<title>Node9&#45;&gt;Node10</title>
<g id="a_edge9_Node000009_Node000010"><a xlink:title=" ">
<path fill="none" stroke="#63b8ff" d="M583.26,-262.58C572.21,-258.45 560.4,-254.04 550.08,-250.19"/>
<polygon fill="#63b8ff" stroke="#63b8ff" points="581.98,-265.84 592.57,-266.06 584.43,-259.28 581.98,-265.84"/>
</a>
</g>
</g>
<!-- Node10&#45;&gt;Node5 -->
<g id="edge12_Node000010_Node000005" class="edge">
<title>Node10&#45;&gt;Node5</title>
<g id="a_edge12_Node000010_Node000005"><a xlink:title=" ">
<path fill="none" stroke="#63b8ff" d="M474.97,-230.53C440.6,-225.65 392.34,-223.25 353.25,-238.38 319.06,-251.6 290.27,-286.06 277.23,-303.67"/>
<polygon fill="#63b8ff" stroke="#63b8ff" points="474.14,-233.94 484.56,-232.03 475.22,-227.03 474.14,-233.94"/>
</a>
</g>
</g>
<!-- Node11 -->
<g id="Node000011" class="node">
<title>Node11</title>
<g id="a_Node000011"><a xlink:href="app_8c.html#aabc3b06c7f7daa21796552c728f0379b" target="_top" xlink:title=" ">
<polygon fill="white" stroke="#666666" points="435.62,-125.75 367.88,-125.75 367.88,-105 435.62,-105 435.62,-125.75"/>
<text text-anchor="middle" x="401.75" y="-112.25" font-family="Helvetica,sans-Serif" font-size="10.00">w2c__f270</text>
</a>
</g>
</g>
<!-- Node10&#45;&gt;Node11 -->
<g id="edge10_Node000010_Node000011" class="edge">
<title>Node10&#45;&gt;Node11</title>
<g id="a_edge10_Node000010_Node000011"><a xlink:title=" ">
<path fill="none" stroke="#63b8ff" d="M502.68,-220.35C488.92,-204.59 468.64,-181.72 450.25,-162.38 438.1,-149.6 423.63,-135.42 413.88,-126.02"/>
<polygon fill="#63b8ff" stroke="#63b8ff" points="499.77,-222.34 508.97,-227.59 505.05,-217.74 499.77,-222.34"/>
</a>
</g>
</g>
<!-- Node10&#45;&gt;Node13 -->
<g id="edge13_Node000010_Node000013" class="edge">
<title>Node10&#45;&gt;Node13</title>
<g id="a_edge13_Node000010_Node000013"><a xlink:title=" ">
<path fill="none" stroke="#63b8ff" d="M487.29,-223.51C467.26,-213.52 441.94,-200.9 424.25,-192.09"/>
<polygon fill="#63b8ff" stroke="#63b8ff" points="485.64,-226.6 496.15,-227.93 488.77,-220.33 485.64,-226.6"/>
</a>
</g>
</g>
<!-- Node14 -->
<g id="Node000014" class="node">
<title>Node14</title>
<g id="a_Node000014"><a xlink:href="app_8c.html#a424e6fc7189fa7a8a66b06480239043b" target="_top" xlink:title=" ">
<polygon fill="white" stroke="#666666" points="450.25,-267.75 353.25,-267.75 353.25,-247 450.25,-247 450.25,-267.75"/>
<text text-anchor="middle" x="401.75" y="-254.25" font-family="Helvetica,sans-Serif" font-size="10.00">wrap_w2c__f263</text>
</a>
</g>
</g>
<!-- Node10&#45;&gt;Node14 -->
<g id="edge15_Node000010_Node000014" class="edge">
<title>Node10&#45;&gt;Node14</title>
<g id="a_edge15_Node000010_Node000014"><a xlink:title=" ">
<path fill="none" stroke="#63b8ff" d="M474.53,-246.27C466.64,-247.49 458.39,-248.77 450.41,-250"/>
<polygon fill="#63b8ff" stroke="#63b8ff" points="474.93,-249.75 484.28,-244.76 473.86,-242.83 474.93,-249.75"/>
</a>
</g>
</g>
<!-- Node12 -->
<g id="Node000012" class="node">
<title>Node12</title>
<g id="a_Node000012"><a xlink:href="app_8c.html#a54f194530158831aa826ddabfd869e3f" target="_top" xlink:title=" ">
<polygon fill="white" stroke="#666666" points="317.25,-125.75 220.25,-125.75 220.25,-105 317.25,-105 317.25,-125.75"/>
<text text-anchor="middle" x="268.75" y="-112.25" font-family="Helvetica,sans-Serif" font-size="10.00">wrap_w2c__f270</text>
</a>
</g>
</g>
<!-- Node11&#45;&gt;Node12 -->
<g id="edge11_Node000011_Node000012" class="edge">
<title>Node11&#45;&gt;Node12</title>
<g id="a_edge11_Node000011_Node000012"><a xlink:title=" ">
<path fill="none" stroke="#63b8ff" d="M356.2,-115.38C343.78,-115.38 330.25,-115.38 317.65,-115.38"/>
<polygon fill="#63b8ff" stroke="#63b8ff" points="356.18,-118.88 366.18,-115.38 356.18,-111.88 356.18,-118.88"/>
</a>
</g>
</g>
<!-- Node13&#45;&gt;Node5 -->
<g id="edge14_Node000013_Node000005" class="edge">
<title>Node13&#45;&gt;Node5</title>
<g id="a_edge14_Node000013_Node000005"><a xlink:title=" ">
<path fill="none" stroke="#63b8ff" d="M364.42,-197.53C360.49,-199.92 356.67,-202.54 353.25,-205.38 317.47,-235.05 287.75,-282.76 275.62,-303.81"/>
<polygon fill="#63b8ff" stroke="#63b8ff" points="365.9,-200.72 372.99,-192.84 362.54,-194.58 365.9,-200.72"/>
</a>
</g>
</g>
<!-- Node15&#45;&gt;Node9 -->
<g id="edge19_Node000015_Node000009" class="edge">
<title>Node15&#45;&gt;Node9</title>
<g id="a_edge19_Node000015_Node000009"><a xlink:title=" ">
<path fill="none" stroke="#63b8ff" d="M696.54,-277.38C683.8,-277.38 670.16,-277.38 658.23,-277.38"/>
<polygon fill="#63b8ff" stroke="#63b8ff" points="696.39,-280.88 706.39,-277.38 696.39,-273.88 696.39,-280.88"/>
</a>
</g>
</g>
<!-- Node15&#45;&gt;Node15 -->
<g id="edge20_Node000015_Node000015" class="edge">
<title>Node15&#45;&gt;Node15</title>
<g id="a_edge20_Node000015_Node000015"><a xlink:title=" ">
<path fill="none" stroke="#63b8ff" d="M763.08,-299.24C760.32,-303.08 753.38,-305.75 742.25,-305.75 721.9,-305.75 715.55,-296.81 723.18,-288.15"/>
<polygon fill="#63b8ff" stroke="#63b8ff" points="766.58,-298.97 761.56,-289.64 759.67,-300.07 766.58,-298.97"/>
</a>
</g>
</g>
<!-- Node16&#45;&gt;Node5 -->
<g id="edge22_Node000016_Node000005" class="edge">
<title>Node16&#45;&gt;Node5</title>
<g id="a_edge22_Node000016_Node000005"><a xlink:title=" ">
<path fill="none" stroke="#63b8ff" d="M578.79,-493.18C521.88,-500.8 422.03,-505.61 353.25,-461.38 302.15,-428.51 279.09,-352.68 272.14,-324.86"/>
<polygon fill="#63b8ff" stroke="#63b8ff" points="579.01,-496.68 588.41,-491.79 578.02,-489.75 579.01,-496.68"/>
</a>
</g>
</g>
<!-- Node18 -->
<g id="Node000018" class="node">
<title>Node18</title>
<g id="a_Node000018"><a xlink:href="app_8c.html#a7dc7d70793bae217b64eab580fce99cb" target="_top" xlink:title=" ">
<polygon fill="white" stroke="#666666" points="909.12,-59.75 841.38,-59.75 841.38,-39 909.12,-39 909.12,-59.75"/>
<text text-anchor="middle" x="875.25" y="-46.25" font-family="Helvetica,sans-Serif" font-size="10.00">w2c__f215</text>
</a>
</g>
</g>
<!-- Node17&#45;&gt;Node18 -->
<g id="edge24_Node000017_Node000018" class="edge">
<title>Node17&#45;&gt;Node18</title>
<g id="a_edge24_Node000017_Node000018"><a xlink:title=" ">
<path fill="none" stroke="#63b8ff" d="M960.37,-90.58C940.62,-80.9 915.86,-68.78 898.33,-60.19"/>
<polygon fill="#63b8ff" stroke="#63b8ff" points="958.58,-93.6 969.1,-94.85 961.66,-87.31 958.58,-93.6"/>
</a>
</g>
</g>
<!-- Node19 -->
<g id="Node000019" class="node">
<title>Node19</title>
<g id="a_Node000019"><a xlink:href="app_8c.html#a7f65ba02075f2865f478747946b07c94" target="_top" xlink:title=" ">
<polygon fill="white" stroke="#666666" points="790.75,-59.75 693.75,-59.75 693.75,-39 790.75,-39 790.75,-59.75"/>
<text text-anchor="middle" x="742.25" y="-46.25" font-family="Helvetica,sans-Serif" font-size="10.00">wrap_w2c__f215</text>
</a>
</g>
</g>
<!-- Node18&#45;&gt;Node19 -->
<g id="edge25_Node000018_Node000019" class="edge">
<title>Node18&#45;&gt;Node19</title>
<g id="a_edge25_Node000018_Node000019"><a xlink:title=" ">
<path fill="none" stroke="#63b8ff" d="M829.7,-49.38C817.28,-49.38 803.75,-49.38 791.15,-49.38"/>
<polygon fill="#63b8ff" stroke="#63b8ff" points="829.68,-52.88 839.68,-49.38 829.68,-45.88 829.68,-52.88"/>
</a>
</g>
</g>
<!-- Node21 -->
<g id="Node000021" class="node">
<title>Node21</title>
<g id="a_Node000021"><a xlink:href="app_8c.html#a86ae468e235684021eadfdacd5cb9dba" target="_top" xlink:title=" ">
<polygon fill="white" stroke="#666666" points="909.12,-20.75 841.38,-20.75 841.38,0 909.12,0 909.12,-20.75"/>
<text text-anchor="middle" x="875.25" y="-7.25" font-family="Helvetica,sans-Serif" font-size="10.00">w2c__f452</text>
</a>
</g>
</g>
<!-- Node20&#45;&gt;Node21 -->
<g id="edge27_Node000020_Node000021" class="edge">
<title>Node20&#45;&gt;Node21</title>
<g id="a_edge27_Node000020_Node000021"><a xlink:title=" ">
<path fill="none" stroke="#63b8ff" d="M948.3,-22.14C935.46,-20.04 921.66,-17.79 909.6,-15.82"/>
<polygon fill="#63b8ff" stroke="#63b8ff" points="947.35,-25.53 957.78,-23.69 948.48,-18.62 947.35,-25.53"/>
</a>
</g>
</g>
<!-- Node22 -->
<g id="Node000022" class="node">
<title>Node22</title>
<g id="a_Node000022"><a xlink:href="app_8c.html#a57ca4f801147f9325a0ea7cc2d7192c5" target="_top" xlink:title=" ">
<polygon fill="white" stroke="#666666" points="790.75,-20.75 693.75,-20.75 693.75,0 790.75,0 790.75,-20.75"/>
<text text-anchor="middle" x="742.25" y="-7.25" font-family="Helvetica,sans-Serif" font-size="10.00">wrap_w2c__f452</text>
</a>
</g>
</g>
<!-- Node21&#45;&gt;Node22 -->
<g id="edge28_Node000021_Node000022" class="edge">
<title>Node21&#45;&gt;Node22</title>
<g id="a_edge28_Node000021_Node000022"><a xlink:title=" ">
<path fill="none" stroke="#63b8ff" d="M829.7,-10.38C817.28,-10.38 803.75,-10.38 791.15,-10.38"/>
<polygon fill="#63b8ff" stroke="#63b8ff" points="829.68,-13.88 839.68,-10.38 829.68,-6.88 829.68,-13.88"/>
</a>
</g>
</g>
<!-- Node23&#45;&gt;Node2 -->
<g id="edge32_Node000023_Node000002" class="edge">
<title>Node23&#45;&gt;Node2</title>
<g id="a_edge32_Node000023_Node000002"><a xlink:title=" ">
<path fill="none" stroke="#63b8ff" d="M982.18,-184.84C970.48,-206 949.7,-238.77 923.75,-259.38 919.26,-262.94 914.05,-265.97 908.76,-268.51"/>
<polygon fill="#63b8ff" stroke="#63b8ff" points="985.12,-186.77 986.74,-176.29 978.95,-183.47 985.12,-186.77"/>
</a>
</g>
</g>
<!-- Node23&#45;&gt;Node4 -->
<g id="edge33_Node000023_Node000004" class="edge">
<title>Node23&#45;&gt;Node4</title>
<g id="a_edge33_Node000023_Node000004"><a xlink:title=" ">
<path fill="none" stroke="#63b8ff" d="M967.1,-181.04C944.45,-195.83 912.04,-217 892.67,-229.65"/>
<polygon fill="#63b8ff" stroke="#63b8ff" points="968.72,-184.17 975.18,-175.77 964.89,-178.31 968.72,-184.17"/>
</a>
</g>
</g>
<!-- Node23&#45;&gt;Node11 -->
<g id="edge34_Node000023_Node000011" class="edge">
<title>Node23&#45;&gt;Node11</title>
<g id="a_edge34_Node000023_Node000011"><a xlink:title=" ">
<path fill="none" stroke="#63b8ff" d="M976.16,-145.49C963.33,-132.14 944.28,-115.11 923.75,-106.38 849.53,-74.79 823.92,-87.38 743.25,-87.38 743.25,-87.38 743.25,-87.38 622.88,-87.38 556.04,-87.38 478.69,-100.24 435.77,-108.53"/>
<polygon fill="#63b8ff" stroke="#63b8ff" points="973.28,-147.52 982.63,-152.5 978.42,-142.78 973.28,-147.52"/>
</a>
</g>
</g>
<!-- Node24 -->
<g id="Node000024" class="node">
<title>Node24</title>
<g id="a_Node000024"><a xlink:href="app_8c.html#ae568c9f27985286fa066734c4b4f3cbc" target="_top" xlink:title=" ">
<polygon fill="white" stroke="#666666" points="909.12,-174.75 841.38,-174.75 841.38,-154 909.12,-154 909.12,-174.75"/>
<text text-anchor="middle" x="875.25" y="-161.25" font-family="Helvetica,sans-Serif" font-size="10.00">w2c__f529</text>
</a>
</g>
</g>
<!-- Node23&#45;&gt;Node24 -->
<g id="edge35_Node000023_Node000024" class="edge">
<title>Node23&#45;&gt;Node24</title>
<g id="a_edge35_Node000023_Node000024"><a xlink:title=" ">
<path fill="none" stroke="#63b8ff" d="M947.91,-164.38C935.18,-164.38 921.53,-164.38 909.6,-164.38"/>
<polygon fill="#63b8ff" stroke="#63b8ff" points="947.76,-167.88 957.76,-164.38 947.76,-160.88 947.76,-167.88"/>
</a>
</g>
</g>
<!-- Node26 -->
<g id="Node000026" class="node">
<title>Node26</title>
<g id="a_Node000026"><a xlink:href="app_8c.html#a0d187c5ffe102efc17dd083f6ae07744" target="_top" xlink:title=" ">
<polygon fill="white" stroke="#666666" points="923.75,-135.75 826.75,-135.75 826.75,-115 923.75,-115 923.75,-135.75"/>
<text text-anchor="middle" x="875.25" y="-122.25" font-family="Helvetica,sans-Serif" font-size="10.00">wrap_w2c__f373</text>
</a>
</g>
</g>
<!-- Node23&#45;&gt;Node26 -->
<g id="edge37_Node000023_Node000026" class="edge">
<title>Node23&#45;&gt;Node26</title>
<g id="a_edge37_Node000023_Node000026"><a xlink:title=" ">
<path fill="none" stroke="#63b8ff" d="M949.61,-149.96C936.01,-145.4 921.21,-140.44 908.49,-136.18"/>
<polygon fill="#63b8ff" stroke="#63b8ff" points="948.18,-153.17 958.77,-153.03 950.4,-146.53 948.18,-153.17"/>
</a>
</g>
</g>
<!-- Node25 -->
<g id="Node000025" class="node">
<title>Node25</title>
<g id="a_Node000025"><a xlink:href="app_8c.html#ab55fb2d33046a579df8de61dc960246c" target="_top" xlink:title=" ">
<polygon fill="white" stroke="#666666" points="790.75,-135.75 693.75,-135.75 693.75,-115 790.75,-115 790.75,-135.75"/>
<text text-anchor="middle" x="742.25" y="-122.25" font-family="Helvetica,sans-Serif" font-size="10.00">wrap_w2c__f529</text>
</a>
</g>
</g>
<!-- Node24&#45;&gt;Node25 -->
<g id="edge36_Node000024_Node000025" class="edge">
<title>Node24&#45;&gt;Node25</title>
<g id="a_edge36_Node000024_Node000025"><a xlink:title=" ">
<path fill="none" stroke="#63b8ff" d="M830.18,-151.25C813.71,-146.35 795.21,-140.84 779.52,-136.17"/>
<polygon fill="#63b8ff" stroke="#63b8ff" points="829.16,-154.6 839.74,-154.1 831.16,-147.89 829.16,-154.6"/>
</a>
</g>
</g>
</g>
</svg>
