<?xml version="1.0" encoding="UTF-8" standalone="no"?>
<!DOCTYPE svg PUBLIC "-//W3C//DTD SVG 1.1//EN"
 "http://www.w3.org/Graphics/SVG/1.1/DTD/svg11.dtd">
<!-- Generated by graphviz version 12.2.1 (0)
 -->
<!-- Title: w2c__f197 Pages: 1 -->
<svg width="703pt" height="487pt"
 viewBox="0.00 0.00 702.75 486.75" xmlns="http://www.w3.org/2000/svg" xmlns:xlink="http://www.w3.org/1999/xlink">
<g id="graph0" class="graph" transform="scale(1 1) rotate(0) translate(4 482.75)">
<title>w2c__f197</title>
<!-- Node1 -->
<g id="Node000001" class="node">
<title>Node1</title>
<g id="a_Node000001"><a xlink:title=" ">
<polygon fill="#999999" stroke="#666666" points="67.75,-268.75 0,-268.75 0,-248 67.75,-248 67.75,-268.75"/>
<text text-anchor="middle" x="33.88" y="-255.25" font-family="Helvetica,sans-Serif" font-size="10.00">w2c__f197</text>
</a>
</g>
</g>
<!-- Node2 -->
<g id="Node000002" class="node">
<title>Node2</title>
<g id="a_Node000002"><a xlink:href="app_8c.html#aa2345a90e45d53b402005abb193daab8" target="_top" xlink:title=" ">
<polygon fill="white" stroke="#666666" points="173.75,-478.75 103.75,-478.75 103.75,-458 173.75,-458 173.75,-478.75"/>
<text text-anchor="middle" x="138.75" y="-465.25" font-family="Helvetica,sans-Serif" font-size="10.00">w2c_0_174</text>
</a>
</g>
</g>
<!-- Node1&#45;&gt;Node2 -->
<g id="edge1_Node000001_Node000002" class="edge">
<title>Node1&#45;&gt;Node2</title>
<g id="a_edge1_Node000001_Node000002"><a xlink:title=" ">
<path fill="none" stroke="#63b8ff" d="M36.55,-269.11C41.74,-299.45 59.89,-387.32 103.75,-444.38 105.48,-446.63 107.49,-448.76 109.64,-450.75"/>
<polygon fill="#63b8ff" stroke="#63b8ff" points="107.2,-453.28 117.22,-456.75 111.55,-447.8 107.2,-453.28"/>
</a>
</g>
</g>
<!-- Node3 -->
<g id="Node000003" class="node">
<title>Node3</title>
<g id="a_Node000003"><a xlink:href="app_8c.html#a03fa34d93d32a3ee40dfc2d840730111" target="_top" xlink:title=" ">
<polygon fill="white" stroke="#666666" points="591,-364.75 523.25,-364.75 523.25,-344 591,-344 591,-364.75"/>
<text text-anchor="middle" x="557.12" y="-351.25" font-family="Helvetica,sans-Serif" font-size="10.00">w2c__f262</text>
</a>
</g>
</g>
<!-- Node1&#45;&gt;Node3 -->
<g id="edge2_Node000001_Node000003" class="edge">
<title>Node1&#45;&gt;Node3</title>
<g id="a_edge2_Node000001_Node000003"><a xlink:title=" ">
<path fill="none" stroke="#63b8ff" d="M38.63,-269.12C46.94,-291.49 68.99,-343.48 103.75,-373.38 154.33,-416.88 175.91,-430.38 242.62,-430.38 242.62,-430.38 242.62,-430.38 349.5,-430.38 417.8,-430.38 491.43,-393.34 529.67,-370.98"/>
<polygon fill="#63b8ff" stroke="#63b8ff" points="531.4,-374.02 538.18,-365.88 527.8,-368.02 531.4,-374.02"/>
</a>
</g>
</g>
<!-- Node6 -->
<g id="Node000006" class="node">
<title>Node6</title>
<g id="a_Node000006"><a xlink:href="app_8c.html#add194bffb67f2f62eef302d08ce41b47" target="_top" xlink:title=" ">
<polygon fill="white" stroke="#666666" points="277.5,-364.75 209.75,-364.75 209.75,-344 277.5,-344 277.5,-364.75"/>
<text text-anchor="middle" x="243.62" y="-351.25" font-family="Helvetica,sans-Serif" font-size="10.00">w2c__f266</text>
</a>
</g>
</g>
<!-- Node1&#45;&gt;Node6 -->
<g id="edge5_Node000001_Node000006" class="edge">
<title>Node1&#45;&gt;Node6</title>
<g id="a_edge5_Node000001_Node000006"><a xlink:title=" ">
<path fill="none" stroke="#63b8ff" d="M50.24,-269.18C63.88,-278.47 84.56,-291.84 103.75,-301.38 134.55,-316.69 170.93,-330.43 198.73,-340.07"/>
<polygon fill="#63b8ff" stroke="#63b8ff" points="197.29,-343.28 207.88,-343.21 199.55,-336.66 197.29,-343.28"/>
</a>
</g>
</g>
<!-- Node10 -->
<g id="Node000010" class="node">
<title>Node10</title>
<g id="a_Node000010"><a xlink:href="app_8c.html#a800df00ef236c6d6affc3c661b37e3ad" target="_top" xlink:title=" ">
<polygon fill="white" stroke="#666666" points="591,-286.75 523.25,-286.75 523.25,-266 591,-266 591,-286.75"/>
<text text-anchor="middle" x="557.12" y="-273.25" font-family="Helvetica,sans-Serif" font-size="10.00">w2c__f487</text>
</a>
</g>
</g>
<!-- Node1&#45;&gt;Node10 -->
<g id="edge33_Node000001_Node000010" class="edge">
<title>Node1&#45;&gt;Node10</title>
<g id="a_edge33_Node000001_Node000010"><a xlink:title=" ">
<path fill="none" stroke="#63b8ff" d="M51.86,-247.57C82.12,-229.1 148.02,-192.37 209.75,-181.38 330.54,-159.86 470.26,-227.53 528.46,-260.01"/>
<polygon fill="#63b8ff" stroke="#63b8ff" points="526.62,-262.99 537.04,-264.89 530.08,-256.9 526.62,-262.99"/>
</a>
</g>
</g>
<!-- Node11 -->
<g id="Node000011" class="node">
<title>Node11</title>
<g id="a_Node000011"><a xlink:href="app_8c.html#a0e0dad0ebc52e45eeff2e1b5d8389ea4" target="_top" xlink:title=" ">
<polygon fill="white" stroke="#666666" points="591,-134.75 523.25,-134.75 523.25,-114 591,-114 591,-134.75"/>
<text text-anchor="middle" x="557.12" y="-121.25" font-family="Helvetica,sans-Serif" font-size="10.00">w2c__f534</text>
</a>
</g>
</g>
<!-- Node1&#45;&gt;Node11 -->
<g id="edge34_Node000001_Node000011" class="edge">
<title>Node1&#45;&gt;Node11</title>
<g id="a_edge34_Node000001_Node000011"><a xlink:title=" ">
<path fill="none" stroke="#63b8ff" d="M36.91,-247.61C42.6,-220.33 61.13,-147.74 103.75,-106.38 151.75,-59.79 175.74,-48.38 242.62,-48.38 242.62,-48.38 242.62,-48.38 349.5,-48.38 417.8,-48.38 491.43,-85.41 529.67,-107.77"/>
<polygon fill="#63b8ff" stroke="#63b8ff" points="527.8,-110.73 538.18,-112.87 531.4,-104.73 527.8,-110.73"/>
</a>
</g>
</g>
<!-- Node12 -->
<g id="Node000012" class="node">
<title>Node12</title>
<g id="a_Node000012"><a xlink:href="app_8c.html#a6ee5e8bb6474c76cb6fbf0253e90181b" target="_top" xlink:title=" ">
<polygon fill="white" stroke="#666666" points="172.62,-249.75 104.88,-249.75 104.88,-229 172.62,-229 172.62,-249.75"/>
<text text-anchor="middle" x="138.75" y="-236.25" font-family="Helvetica,sans-Serif" font-size="10.00">w2c__f277</text>
</a>
</g>
</g>
<!-- Node1&#45;&gt;Node12 -->
<g id="edge15_Node000001_Node000012" class="edge">
<title>Node1&#45;&gt;Node12</title>
<g id="a_edge15_Node000001_Node000012"><a xlink:title=" ">
<path fill="none" stroke="#63b8ff" d="M67.99,-252.26C76.16,-250.75 85.04,-249.11 93.64,-247.52"/>
<polygon fill="#63b8ff" stroke="#63b8ff" points="94.01,-251.01 103.21,-245.75 92.74,-244.13 94.01,-251.01"/>
</a>
</g>
</g>
<!-- Node17 -->
<g id="Node000017" class="node">
<title>Node17</title>
<g id="a_Node000017"><a xlink:href="app_8c.html#af732b1ecf09ff688adde158c29714bcd" target="_top" xlink:title=" ">
<polygon fill="white" stroke="#666666" points="382.38,-96.75 314.62,-96.75 314.62,-76 382.38,-76 382.38,-96.75"/>
<text text-anchor="middle" x="348.5" y="-83.25" font-family="Helvetica,sans-Serif" font-size="10.00">w2c__f436</text>
</a>
</g>
</g>
<!-- Node1&#45;&gt;Node17 -->
<g id="edge32_Node000001_Node000017" class="edge">
<title>Node1&#45;&gt;Node17</title>
<g id="a_edge32_Node000001_Node000017"><a xlink:title=" ">
<path fill="none" stroke="#63b8ff" d="M38.88,-247.76C47.52,-226.17 69.93,-176.77 103.75,-148.38 160.65,-100.61 249.58,-88.95 302.83,-86.5"/>
<polygon fill="#63b8ff" stroke="#63b8ff" points="302.89,-90 312.76,-86.14 302.64,-83 302.89,-90"/>
</a>
</g>
</g>
<!-- Node18 -->
<g id="Node000018" class="node">
<title>Node18</title>
<g id="a_Node000018"><a xlink:href="app_8c.html#abe1f70c7c6938f6dce1f562507454958" target="_top" xlink:title=" ">
<polygon fill="white" stroke="#666666" points="277.5,-325.75 209.75,-325.75 209.75,-305 277.5,-305 277.5,-325.75"/>
<text text-anchor="middle" x="243.62" y="-312.25" font-family="Helvetica,sans-Serif" font-size="10.00">w2c__f371</text>
</a>
</g>
</g>
<!-- Node1&#45;&gt;Node18 -->
<g id="edge31_Node000001_Node000018" class="edge">
<title>Node1&#45;&gt;Node18</title>
<g id="a_edge31_Node000001_Node000018"><a xlink:title=" ">
<path fill="none" stroke="#63b8ff" d="M67.79,-267.41C103.1,-277.09 159.34,-292.52 198.47,-303.26"/>
<polygon fill="#63b8ff" stroke="#63b8ff" points="197.49,-306.62 208.06,-305.89 199.34,-299.87 197.49,-306.62"/>
</a>
</g>
</g>
<!-- Node22 -->
<g id="Node000022" class="node">
<title>Node22</title>
<g id="a_Node000022"><a xlink:href="app_8c.html#a34d18545510c7604d64db5651af2a253" target="_top" xlink:title=" ">
<polygon fill="white" stroke="#666666" points="172.62,-20.75 104.88,-20.75 104.88,0 172.62,0 172.62,-20.75"/>
<text text-anchor="middle" x="138.75" y="-7.25" font-family="Helvetica,sans-Serif" font-size="10.00">w2c__f332</text>
</a>
</g>
</g>
<!-- Node1&#45;&gt;Node22 -->
<g id="edge30_Node000001_Node000022" class="edge">
<title>Node1&#45;&gt;Node22</title>
<g id="a_edge30_Node000001_Node000022"><a xlink:title=" ">
<path fill="none" stroke="#63b8ff" d="M35.7,-247.96C38.85,-214.04 52.65,-104.87 103.75,-34.38 105.38,-32.12 107.29,-30.01 109.36,-28.03"/>
<polygon fill="#63b8ff" stroke="#63b8ff" points="111.1,-31.12 116.68,-22.12 106.71,-25.68 111.1,-31.12"/>
</a>
</g>
</g>
<!-- Node23 -->
<g id="Node000023" class="node">
<title>Node23</title>
<g id="a_Node000023"><a xlink:href="app_8c.html#abcdc5a03717efe70e368a02cdd0d9f93" target="_top" xlink:title=" ">
<polygon fill="white" stroke="#666666" points="172.62,-364.75 104.88,-364.75 104.88,-344 172.62,-344 172.62,-364.75"/>
<text text-anchor="middle" x="138.75" y="-351.25" font-family="Helvetica,sans-Serif" font-size="10.00">w2c__f537</text>
</a>
</g>
</g>
<!-- Node1&#45;&gt;Node23 -->
<g id="edge35_Node000001_Node000023" class="edge">
<title>Node1&#45;&gt;Node23</title>
<g id="a_edge35_Node000001_Node000023"><a xlink:title=" ">
<path fill="none" stroke="#63b8ff" d="M43.66,-268.76C56.24,-283.32 80.42,-310.28 103.75,-330.38 106.26,-332.54 108.97,-334.7 111.72,-336.79"/>
<polygon fill="#63b8ff" stroke="#63b8ff" points="109.63,-339.6 119.79,-342.63 113.74,-333.93 109.63,-339.6"/>
</a>
</g>
</g>
<!-- Node4 -->
<g id="Node000004" class="node">
<title>Node4</title>
<g id="a_Node000004"><a xlink:href="app_8c.html#a16207b5f7a97b0ecfddd231452c5aa7e" target="_top" xlink:title=" ">
<polygon fill="white" stroke="#666666" points="694.75,-364.75 627,-364.75 627,-344 694.75,-344 694.75,-364.75"/>
<text text-anchor="middle" x="660.88" y="-351.25" font-family="Helvetica,sans-Serif" font-size="10.00">w2c__f263</text>
</a>
</g>
</g>
<!-- Node3&#45;&gt;Node4 -->
<g id="edge3_Node000003_Node000004" class="edge">
<title>Node3&#45;&gt;Node4</title>
<g id="a_edge3_Node000003_Node000004"><a xlink:title=" ">
<path fill="none" stroke="#63b8ff" d="M591.44,-354.38C599.07,-354.38 607.31,-354.38 615.33,-354.38"/>
<polygon fill="#63b8ff" stroke="#63b8ff" points="615.32,-357.88 625.32,-354.38 615.32,-350.88 615.32,-357.88"/>
</a>
</g>
</g>
<!-- Node5 -->
<g id="Node000005" class="node">
<title>Node5</title>
<g id="a_Node000005"><a xlink:href="app_8c.html#a71bcbce7faf780cd081af3fa82d6da97" target="_top" xlink:title=" ">
<polygon fill="white" stroke="#666666" points="694.75,-325.75 627,-325.75 627,-305 694.75,-305 694.75,-325.75"/>
<text text-anchor="middle" x="660.88" y="-312.25" font-family="Helvetica,sans-Serif" font-size="10.00">w2c__f437</text>
</a>
</g>
</g>
<!-- Node3&#45;&gt;Node5 -->
<g id="edge4_Node000003_Node000005" class="edge">
<title>Node3&#45;&gt;Node5</title>
<g id="a_edge4_Node000003_Node000005"><a xlink:title=" ">
<path fill="none" stroke="#63b8ff" d="M586.47,-343.51C597.16,-339.41 609.52,-334.67 621.01,-330.27"/>
<polygon fill="#63b8ff" stroke="#63b8ff" points="622.19,-333.57 630.27,-326.72 619.68,-327.03 622.19,-333.57"/>
</a>
</g>
</g>
<!-- Node7 -->
<g id="Node000007" class="node">
<title>Node7</title>
<g id="a_Node000007"><a xlink:href="app_8c.html#a1ed0745af60bea321780e5f860a89d43" target="_top" xlink:title=" ">
<polygon fill="white" stroke="#666666" points="382.38,-364.75 314.62,-364.75 314.62,-344 382.38,-344 382.38,-364.75"/>
<text text-anchor="middle" x="348.5" y="-351.25" font-family="Helvetica,sans-Serif" font-size="10.00">w2c__f522</text>
</a>
</g>
</g>
<!-- Node6&#45;&gt;Node7 -->
<g id="edge6_Node000006_Node000007" class="edge">
<title>Node6&#45;&gt;Node7</title>
<g id="a_edge6_Node000006_Node000007"><a xlink:title=" ">
<path fill="none" stroke="#63b8ff" d="M277.74,-354.38C285.82,-354.38 294.59,-354.38 303.1,-354.38"/>
<polygon fill="#63b8ff" stroke="#63b8ff" points="302.93,-357.88 312.93,-354.38 302.93,-350.88 302.93,-357.88"/>
</a>
</g>
</g>
<!-- Node7&#45;&gt;Node3 -->
<g id="edge7_Node000007_Node000003" class="edge">
<title>Node7&#45;&gt;Node3</title>
<g id="a_edge7_Node000007_Node000003"><a xlink:title=" ">
<path fill="none" stroke="#63b8ff" d="M382.7,-354.38C417.64,-354.38 472.85,-354.38 511.56,-354.38"/>
<polygon fill="#63b8ff" stroke="#63b8ff" points="511.5,-357.88 521.5,-354.38 511.5,-350.88 511.5,-357.88"/>
</a>
</g>
</g>
<!-- Node8 -->
<g id="Node000008" class="node">
<title>Node8</title>
<g id="a_Node000008"><a xlink:href="app_8c.html#a8c90e9acf2d5915eb0476bc13964c4db" target="_top" xlink:title=" ">
<polygon fill="white" stroke="#666666" points="487.25,-287.75 419.5,-287.75 419.5,-267 487.25,-267 487.25,-287.75"/>
<text text-anchor="middle" x="453.38" y="-274.25" font-family="Helvetica,sans-Serif" font-size="10.00">w2c__f345</text>
</a>
</g>
</g>
<!-- Node7&#45;&gt;Node8 -->
<g id="edge8_Node000007_Node000008" class="edge">
<title>Node7&#45;&gt;Node8</title>
<g id="a_edge8_Node000007_Node000008"><a xlink:title=" ">
<path fill="none" stroke="#63b8ff" d="M361.49,-343.76C375.13,-331.9 398.25,-312.38 419.5,-297.38 421.04,-296.29 422.64,-295.2 424.26,-294.12"/>
<polygon fill="#63b8ff" stroke="#63b8ff" points="425.82,-297.28 432.38,-288.96 422.06,-291.37 425.82,-297.28"/>
</a>
</g>
</g>
<!-- Node8&#45;&gt;Node3 -->
<g id="edge9_Node000008_Node000003" class="edge">
<title>Node8&#45;&gt;Node3</title>
<g id="a_edge9_Node000008_Node000003"><a xlink:title=" ">
<path fill="none" stroke="#63b8ff" d="M474.04,-288.23C478.53,-291 483.17,-294.13 487.25,-297.38 505.19,-311.67 505.31,-320.08 523.25,-334.38 524.52,-335.39 525.85,-336.39 527.22,-337.38"/>
<polygon fill="#63b8ff" stroke="#63b8ff" points="524.93,-340.06 535.2,-342.69 528.81,-334.23 524.93,-340.06"/>
</a>
</g>
</g>
<!-- Node9 -->
<g id="Node000009" class="node">
<title>Node9</title>
<g id="a_Node000009"><a xlink:href="app_8c.html#a31b08a294227a9fc0a529e66ccd915dc" target="_top" xlink:title=" ">
<polygon fill="white" stroke="#666666" points="591,-325.75 523.25,-325.75 523.25,-305 591,-305 591,-325.75"/>
<text text-anchor="middle" x="557.12" y="-312.25" font-family="Helvetica,sans-Serif" font-size="10.00">w2c__f325</text>
</a>
</g>
</g>
<!-- Node8&#45;&gt;Node9 -->
<g id="edge10_Node000008_Node000009" class="edge">
<title>Node8&#45;&gt;Node9</title>
<g id="a_edge10_Node000008_Node000009"><a xlink:title=" ">
<path fill="none" stroke="#63b8ff" d="M483.26,-288.16C493.57,-292.01 505.38,-296.42 516.44,-300.55"/>
<polygon fill="#63b8ff" stroke="#63b8ff" points="515.16,-303.81 525.75,-304.03 517.61,-297.25 515.16,-303.81"/>
</a>
</g>
</g>
<!-- Node8&#45;&gt;Node10 -->
<g id="edge12_Node000008_Node000010" class="edge">
<title>Node8&#45;&gt;Node10</title>
<g id="a_edge12_Node000008_Node000010"><a xlink:title=" ">
<path fill="none" stroke="#63b8ff" d="M487.69,-277.05C495.32,-276.97 503.56,-276.89 511.58,-276.81"/>
<polygon fill="#63b8ff" stroke="#63b8ff" points="511.6,-280.31 521.57,-276.71 511.53,-273.31 511.6,-280.31"/>
</a>
</g>
</g>
<!-- Node8&#45;&gt;Node11 -->
<g id="edge14_Node000008_Node000011" class="edge">
<title>Node8&#45;&gt;Node11</title>
<g id="a_edge14_Node000008_Node000011"><a xlink:title=" ">
<path fill="none" stroke="#63b8ff" d="M461.37,-266.86C478.14,-241.64 520.88,-177.37 542.77,-144.46"/>
<polygon fill="#63b8ff" stroke="#63b8ff" points="545.62,-146.49 548.24,-136.23 539.79,-142.61 545.62,-146.49"/>
</a>
</g>
</g>
<!-- Node9&#45;&gt;Node5 -->
<g id="edge11_Node000009_Node000005" class="edge">
<title>Node9&#45;&gt;Node5</title>
<g id="a_edge11_Node000009_Node000005"><a xlink:title=" ">
<path fill="none" stroke="#63b8ff" d="M591.44,-315.38C599.07,-315.38 607.31,-315.38 615.33,-315.38"/>
<polygon fill="#63b8ff" stroke="#63b8ff" points="615.32,-318.88 625.32,-315.38 615.32,-311.88 615.32,-318.88"/>
</a>
</g>
</g>
<!-- Node10&#45;&gt;Node5 -->
<g id="edge13_Node000010_Node000005" class="edge">
<title>Node10&#45;&gt;Node5</title>
<g id="a_edge13_Node000010_Node000005"><a xlink:title=" ">
<path fill="none" stroke="#63b8ff" d="M586.47,-287.24C597.16,-291.34 609.52,-296.08 621.01,-300.48"/>
<polygon fill="#63b8ff" stroke="#63b8ff" points="619.68,-303.72 630.27,-304.03 622.19,-297.18 619.68,-303.72"/>
</a>
</g>
</g>
<!-- Node13 -->
<g id="Node000013" class="node">
<title>Node13</title>
<g id="a_Node000013"><a xlink:href="app_8c.html#a43dad7cd35d8d3e89a048d92b5a662e9" target="_top" xlink:title=" ">
<polygon fill="white" stroke="#666666" points="277.5,-210.75 209.75,-210.75 209.75,-190 277.5,-190 277.5,-210.75"/>
<text text-anchor="middle" x="243.62" y="-197.25" font-family="Helvetica,sans-Serif" font-size="10.00">w2c__f307</text>
</a>
</g>
</g>
<!-- Node12&#45;&gt;Node13 -->
<g id="edge16_Node000012_Node000013" class="edge">
<title>Node12&#45;&gt;Node13</title>
<g id="a_edge16_Node000012_Node000013"><a xlink:title=" ">
<path fill="none" stroke="#63b8ff" d="M168.41,-228.51C179.33,-224.37 191.97,-219.58 203.69,-215.13"/>
<polygon fill="#63b8ff" stroke="#63b8ff" points="204.6,-218.53 212.71,-211.72 202.12,-211.99 204.6,-218.53"/>
</a>
</g>
</g>
<!-- Node15 -->
<g id="Node000015" class="node">
<title>Node15</title>
<g id="a_Node000015"><a xlink:href="app_8c.html#ab66cff17beb6fbf6b347e33dc43c5297" target="_top" xlink:title=" ">
<polygon fill="white" stroke="#666666" points="277.5,-134.75 209.75,-134.75 209.75,-114 277.5,-114 277.5,-134.75"/>
<text text-anchor="middle" x="243.62" y="-121.25" font-family="Helvetica,sans-Serif" font-size="10.00">w2c__f320</text>
</a>
</g>
</g>
<!-- Node12&#45;&gt;Node15 -->
<g id="edge18_Node000012_Node000015" class="edge">
<title>Node12&#45;&gt;Node15</title>
<g id="a_edge18_Node000012_Node000015"><a xlink:title=" ">
<path fill="none" stroke="#63b8ff" d="M149.24,-228.76C166.62,-209.34 203.76,-167.82 225.61,-143.4"/>
<polygon fill="#63b8ff" stroke="#63b8ff" points="228.09,-145.88 232.14,-136.09 222.87,-141.21 228.09,-145.88"/>
</a>
</g>
</g>
<!-- Node12&#45;&gt;Node18 -->
<g id="edge22_Node000012_Node000018" class="edge">
<title>Node12&#45;&gt;Node18</title>
<g id="a_edge22_Node000012_Node000018"><a xlink:title=" ">
<path fill="none" stroke="#63b8ff" d="M154.33,-250.05C160.35,-254.47 167.4,-259.66 173.75,-264.38 189.81,-276.3 193.67,-279.48 209.75,-291.38 212.61,-293.49 215.62,-295.71 218.61,-297.9"/>
<polygon fill="#63b8ff" stroke="#63b8ff" points="216.51,-300.7 226.64,-303.77 220.64,-295.04 216.51,-300.7"/>
</a>
</g>
</g>
<!-- Node19 -->
<g id="Node000019" class="node">
<title>Node19</title>
<g id="a_Node000019"><a xlink:href="app_8c.html#a14e021d2f1b59e04757852f66bff1044" target="_top" xlink:title=" ">
<polygon fill="white" stroke="#666666" points="382.38,-306.75 314.62,-306.75 314.62,-286 382.38,-286 382.38,-306.75"/>
<text text-anchor="middle" x="348.5" y="-293.25" font-family="Helvetica,sans-Serif" font-size="10.00">w2c__f511</text>
</a>
</g>
</g>
<!-- Node12&#45;&gt;Node19 -->
<g id="edge29_Node000012_Node000019" class="edge">
<title>Node12&#45;&gt;Node19</title>
<g id="a_edge29_Node000012_Node000019"><a xlink:title=" ">
<path fill="none" stroke="#63b8ff" d="M172.67,-248.41C207.97,-258.09 264.22,-273.52 303.34,-284.26"/>
<polygon fill="#63b8ff" stroke="#63b8ff" points="302.36,-287.62 312.93,-286.89 304.21,-280.87 302.36,-287.62"/>
</a>
</g>
</g>
<!-- Node21 -->
<g id="Node000021" class="node">
<title>Node21</title>
<g id="a_Node000021"><a xlink:href="app_8c.html#af202ab1efb62d0e517c715292ed21e82" target="_top" xlink:title=" ">
<polygon fill="white" stroke="#666666" points="277.5,-249.75 209.75,-249.75 209.75,-229 277.5,-229 277.5,-249.75"/>
<text text-anchor="middle" x="243.62" y="-236.25" font-family="Helvetica,sans-Serif" font-size="10.00">w2c__f395</text>
</a>
</g>
</g>
<!-- Node12&#45;&gt;Node21 -->
<g id="edge28_Node000012_Node000021" class="edge">
<title>Node12&#45;&gt;Node21</title>
<g id="a_edge28_Node000012_Node000021"><a xlink:title=" ">
<path fill="none" stroke="#63b8ff" d="M172.87,-239.38C180.94,-239.38 189.71,-239.38 198.22,-239.38"/>
<polygon fill="#63b8ff" stroke="#63b8ff" points="198.06,-242.88 208.06,-239.38 198.06,-235.88 198.06,-242.88"/>
</a>
</g>
</g>
<!-- Node14 -->
<g id="Node000014" class="node">
<title>Node14</title>
<g id="a_Node000014"><a xlink:href="app_8c.html#af5ee95c32c878a5a9cde99a4730321a4" target="_top" xlink:title=" ">
<polygon fill="white" stroke="#666666" points="383.5,-248.75 313.5,-248.75 313.5,-228 383.5,-228 383.5,-248.75"/>
<text text-anchor="middle" x="348.5" y="-235.25" font-family="Helvetica,sans-Serif" font-size="10.00">w2c_0_180</text>
</a>
</g>
</g>
<!-- Node13&#45;&gt;Node14 -->
<g id="edge17_Node000013_Node000014" class="edge">
<title>Node13&#45;&gt;Node14</title>
<g id="a_edge17_Node000013_Node000014"><a xlink:title=" ">
<path fill="none" stroke="#63b8ff" d="M273.83,-211.16C284.36,-215.05 296.44,-219.51 307.72,-223.68"/>
<polygon fill="#63b8ff" stroke="#63b8ff" points="306.21,-226.85 316.8,-227.04 308.63,-220.29 306.21,-226.85"/>
</a>
</g>
</g>
<!-- Node15&#45;&gt;Node11 -->
<g id="edge21_Node000015_Node000011" class="edge">
<title>Node15&#45;&gt;Node11</title>
<g id="a_edge21_Node000015_Node000011"><a xlink:title=" ">
<path fill="none" stroke="#63b8ff" d="M277.96,-124.38C334.4,-124.38 448.79,-124.38 511.87,-124.38"/>
<polygon fill="#63b8ff" stroke="#63b8ff" points="511.52,-127.88 521.52,-124.38 511.52,-120.88 511.52,-127.88"/>
</a>
</g>
</g>
<!-- Node16 -->
<g id="Node000016" class="node">
<title>Node16</title>
<g id="a_Node000016"><a xlink:href="app_8c.html#af5f3f66642494d64ec680194a0409378" target="_top" xlink:title=" ">
<polygon fill="white" stroke="#666666" points="382.38,-172.75 314.62,-172.75 314.62,-152 382.38,-152 382.38,-172.75"/>
<text text-anchor="middle" x="348.5" y="-159.25" font-family="Helvetica,sans-Serif" font-size="10.00">w2c__f391</text>
</a>
</g>
</g>
<!-- Node15&#45;&gt;Node16 -->
<g id="edge19_Node000015_Node000016" class="edge">
<title>Node15&#45;&gt;Node16</title>
<g id="a_edge19_Node000015_Node000016"><a xlink:title=" ">
<path fill="none" stroke="#63b8ff" d="M273.83,-135.16C284.36,-139.05 296.44,-143.51 307.72,-147.68"/>
<polygon fill="#63b8ff" stroke="#63b8ff" points="306.21,-150.85 316.8,-151.04 308.63,-144.29 306.21,-150.85"/>
</a>
</g>
</g>
<!-- Node15&#45;&gt;Node17 -->
<g id="edge20_Node000015_Node000017" class="edge">
<title>Node15&#45;&gt;Node17</title>
<g id="a_edge20_Node000015_Node000017"><a xlink:title=" ">
<path fill="none" stroke="#63b8ff" d="M273.83,-113.59C284.36,-109.7 296.44,-105.24 307.72,-101.07"/>
<polygon fill="#63b8ff" stroke="#63b8ff" points="308.63,-104.46 316.8,-97.71 306.21,-97.9 308.63,-104.46"/>
</a>
</g>
</g>
<!-- Node18&#45;&gt;Node19 -->
<g id="edge23_Node000018_Node000019" class="edge">
<title>Node18&#45;&gt;Node19</title>
<g id="a_edge23_Node000018_Node000019"><a xlink:title=" ">
<path fill="none" stroke="#63b8ff" d="M277.74,-309.26C285.91,-307.75 294.79,-306.11 303.39,-304.52"/>
<polygon fill="#63b8ff" stroke="#63b8ff" points="303.76,-308.01 312.96,-302.75 302.49,-301.13 303.76,-308.01"/>
</a>
</g>
</g>
<!-- Node19&#45;&gt;Node8 -->
<g id="edge27_Node000019_Node000008" class="edge">
<title>Node19&#45;&gt;Node8</title>
<g id="a_edge27_Node000019_Node000008"><a xlink:title=" ">
<path fill="none" stroke="#63b8ff" d="M382.62,-290.26C390.78,-288.75 399.66,-287.11 408.26,-285.52"/>
<polygon fill="#63b8ff" stroke="#63b8ff" points="408.63,-289.01 417.83,-283.75 407.36,-282.13 408.63,-289.01"/>
</a>
</g>
</g>
<!-- Node20 -->
<g id="Node000020" class="node">
<title>Node20</title>
<g id="a_Node000020"><a xlink:href="app_8c.html#aa58fd7f1d3aab8404d7f71d334a8a108" target="_top" xlink:title=" ">
<polygon fill="white" stroke="#666666" points="487.25,-326.75 419.5,-326.75 419.5,-306 487.25,-306 487.25,-326.75"/>
<text text-anchor="middle" x="453.38" y="-313.25" font-family="Helvetica,sans-Serif" font-size="10.00">w2c__f211</text>
</a>
</g>
</g>
<!-- Node19&#45;&gt;Node20 -->
<g id="edge24_Node000019_Node000020" class="edge">
<title>Node19&#45;&gt;Node20</title>
<g id="a_edge24_Node000019_Node000020"><a xlink:title=" ">
<path fill="none" stroke="#63b8ff" d="M382.62,-302.81C390.78,-304.4 399.66,-306.13 408.26,-307.8"/>
<polygon fill="#63b8ff" stroke="#63b8ff" points="407.35,-311.19 417.83,-309.66 408.69,-304.32 407.35,-311.19"/>
</a>
</g>
</g>
<!-- Node20&#45;&gt;Node3 -->
<g id="edge25_Node000020_Node000003" class="edge">
<title>Node20&#45;&gt;Node3</title>
<g id="a_edge25_Node000020_Node000003"><a xlink:title=" ">
<path fill="none" stroke="#63b8ff" d="M483.26,-327.16C493.57,-331.01 505.38,-335.42 516.44,-339.55"/>
<polygon fill="#63b8ff" stroke="#63b8ff" points="515.16,-342.81 525.75,-343.03 517.61,-336.25 515.16,-342.81"/>
</a>
</g>
</g>
<!-- Node20&#45;&gt;Node9 -->
<g id="edge26_Node000020_Node000009" class="edge">
<title>Node20&#45;&gt;Node9</title>
<g id="a_edge26_Node000020_Node000009"><a xlink:title=" ">
<path fill="none" stroke="#63b8ff" d="M487.69,-316.05C495.32,-315.97 503.56,-315.89 511.58,-315.81"/>
<polygon fill="#63b8ff" stroke="#63b8ff" points="511.6,-319.31 521.57,-315.71 511.53,-312.31 511.6,-319.31"/>
</a>
</g>
</g>
<!-- Node23&#45;&gt;Node3 -->
<g id="edge36_Node000023_Node000003" class="edge">
<title>Node23&#45;&gt;Node3</title>
<g id="a_edge36_Node000023_Node000003"><a xlink:title=" ">
<path fill="none" stroke="#63b8ff" d="M172.5,-365.19C184.12,-368.51 197.39,-371.73 209.75,-373.38 332.02,-389.67 364.85,-383.67 487.25,-368.38 495.23,-367.38 503.67,-365.96 511.8,-364.42"/>
<polygon fill="#63b8ff" stroke="#63b8ff" points="512.41,-367.87 521.53,-362.47 511.04,-361 512.41,-367.87"/>
</a>
</g>
</g>
<!-- Node23&#45;&gt;Node6 -->
<g id="edge37_Node000023_Node000006" class="edge">
<title>Node23&#45;&gt;Node6</title>
<g id="a_edge37_Node000023_Node000006"><a xlink:title=" ">
<path fill="none" stroke="#63b8ff" d="M172.87,-354.38C180.94,-354.38 189.71,-354.38 198.22,-354.38"/>
<polygon fill="#63b8ff" stroke="#63b8ff" points="198.06,-357.88 208.06,-354.38 198.06,-350.88 198.06,-357.88"/>
</a>
</g>
</g>
</g>
</svg>
