<?xml version="1.0" encoding="UTF-8" standalone="no"?>
<!DOCTYPE svg PUBLIC "-//W3C//DTD SVG 1.1//EN"
 "http://www.w3.org/Graphics/SVG/1.1/DTD/svg11.dtd">
<!-- Generated by graphviz version 12.2.1 (0)
 -->
<!-- Title: w2c__f221 Pages: 1 -->
<svg width="682pt" height="263pt"
 viewBox="0.00 0.00 682.25 262.75" xmlns="http://www.w3.org/2000/svg" xmlns:xlink="http://www.w3.org/1999/xlink">
<g id="graph0" class="graph" transform="scale(1 1) rotate(0) translate(4 258.75)">
<title>w2c__f221</title>
<!-- Node1 -->
<g id="Node000001" class="node">
<title>Node1</title>
<g id="a_Node000001"><a xlink:title=" ">
<polygon fill="#999999" stroke="#666666" points="674.25,-156.75 606.5,-156.75 606.5,-136 674.25,-136 674.25,-156.75"/>
<text text-anchor="middle" x="640.38" y="-143.25" font-family="Helvetica,sans-Serif" font-size="10.00">w2c__f221</text>
</a>
</g>
</g>
<!-- Node2 -->
<g id="Node000002" class="node">
<title>Node2</title>
<g id="a_Node000002"><a xlink:href="app_8c.html#a55f0e3687ea8fa5d5cc06af63f503791" target="_top" xlink:title=" ">
<polygon fill="white" stroke="#666666" points="570.5,-156.75 502.75,-156.75 502.75,-136 570.5,-136 570.5,-156.75"/>
<text text-anchor="middle" x="536.62" y="-143.25" font-family="Helvetica,sans-Serif" font-size="10.00">w2c__f473</text>
</a>
</g>
</g>
<!-- Node1&#45;&gt;Node2 -->
<g id="edge1_Node000001_Node000002" class="edge">
<title>Node1&#45;&gt;Node2</title>
<g id="a_edge1_Node000001_Node000002"><a xlink:title=" ">
<path fill="none" stroke="#63b8ff" d="M594.82,-146.38C586.71,-146.38 578.38,-146.38 570.67,-146.38"/>
<polygon fill="#63b8ff" stroke="#63b8ff" points="594.54,-149.88 604.54,-146.38 594.54,-142.88 594.54,-149.88"/>
</a>
</g>
</g>
<!-- Node3 -->
<g id="Node000003" class="node">
<title>Node3</title>
<g id="a_Node000003"><a xlink:href="app_8c.html#a2fb6e70e8b24282ed5d326d14eaef7cb" target="_top" xlink:title=" ">
<polygon fill="white" stroke="#666666" points="466.75,-215.75 399,-215.75 399,-195 466.75,-195 466.75,-215.75"/>
<text text-anchor="middle" x="432.88" y="-202.25" font-family="Helvetica,sans-Serif" font-size="10.00">w2c__f265</text>
</a>
</g>
</g>
<!-- Node2&#45;&gt;Node3 -->
<g id="edge2_Node000002_Node000003" class="edge">
<title>Node2&#45;&gt;Node3</title>
<g id="a_edge2_Node000002_Node000003"><a xlink:title=" ">
<path fill="none" stroke="#63b8ff" d="M507.24,-162.83C489.72,-172.99 467.73,-185.74 452.42,-194.62"/>
<polygon fill="#63b8ff" stroke="#63b8ff" points="508.76,-166 515.65,-157.96 505.25,-159.94 508.76,-166"/>
</a>
</g>
</g>
<!-- Node10 -->
<g id="Node000010" class="node">
<title>Node10</title>
<g id="a_Node000010"><a xlink:href="app_8c.html#a0dcc94e50e7bcb39cabb7a720c8f8454" target="_top" xlink:title=" ">
<polygon fill="white" stroke="#666666" points="466.75,-176.75 399,-176.75 399,-156 466.75,-156 466.75,-176.75"/>
<text text-anchor="middle" x="432.88" y="-163.25" font-family="Helvetica,sans-Serif" font-size="10.00">w2c__f316</text>
</a>
</g>
</g>
<!-- Node2&#45;&gt;Node10 -->
<g id="edge9_Node000002_Node000010" class="edge">
<title>Node2&#45;&gt;Node10</title>
<g id="a_edge9_Node000002_Node000010"><a xlink:title=" ">
<path fill="none" stroke="#63b8ff" d="M491.07,-155.13C482.96,-156.73 474.63,-158.37 466.92,-159.88"/>
<polygon fill="#63b8ff" stroke="#63b8ff" points="491.69,-158.58 500.82,-153.22 490.34,-151.71 491.69,-158.58"/>
</a>
</g>
</g>
<!-- Node16 -->
<g id="Node000016" class="node">
<title>Node16</title>
<g id="a_Node000016"><a xlink:href="app_8c.html#a7d2c54d8027e63228e6904d7088eb41a" target="_top" xlink:title=" ">
<polygon fill="white" stroke="#666666" points="466.75,-137.75 399,-137.75 399,-117 466.75,-117 466.75,-137.75"/>
<text text-anchor="middle" x="432.88" y="-124.25" font-family="Helvetica,sans-Serif" font-size="10.00">w2c__f396</text>
</a>
</g>
</g>
<!-- Node2&#45;&gt;Node16 -->
<g id="edge17_Node000002_Node000016" class="edge">
<title>Node2&#45;&gt;Node16</title>
<g id="a_edge17_Node000002_Node000016"><a xlink:title=" ">
<path fill="none" stroke="#63b8ff" d="M491.07,-138.06C482.96,-136.54 474.63,-134.98 466.92,-133.55"/>
<polygon fill="#63b8ff" stroke="#63b8ff" points="490.35,-141.48 500.82,-139.88 491.63,-134.6 490.35,-141.48"/>
</a>
</g>
</g>
<!-- Node18 -->
<g id="Node000018" class="node">
<title>Node18</title>
<g id="a_Node000018"><a xlink:href="app_8c.html#a6522462bcc9d4b2634b83f7cc893c3f1" target="_top" xlink:title=" ">
<polygon fill="white" stroke="#666666" points="466.75,-59.75 399,-59.75 399,-39 466.75,-39 466.75,-59.75"/>
<text text-anchor="middle" x="432.88" y="-46.25" font-family="Helvetica,sans-Serif" font-size="10.00">w2c__f411</text>
</a>
</g>
</g>
<!-- Node2&#45;&gt;Node18 -->
<g id="edge22_Node000002_Node000018" class="edge">
<title>Node2&#45;&gt;Node18</title>
<g id="a_edge22_Node000002_Node000018"><a xlink:title=" ">
<path fill="none" stroke="#63b8ff" d="M516.13,-127.79C495.11,-107.75 462.35,-76.52 445.2,-60.17"/>
<polygon fill="#63b8ff" stroke="#63b8ff" points="513.6,-130.21 523.25,-134.58 518.43,-125.15 513.6,-130.21"/>
</a>
</g>
</g>
<!-- Node4 -->
<g id="Node000004" class="node">
<title>Node4</title>
<g id="a_Node000004"><a xlink:href="app_8c.html#ab486dc3bc0fed7c8b42c60b55aef74af" target="_top" xlink:title=" ">
<polygon fill="white" stroke="#666666" points="348.38,-215.75 280.62,-215.75 280.62,-195 348.38,-195 348.38,-215.75"/>
<text text-anchor="middle" x="314.5" y="-202.25" font-family="Helvetica,sans-Serif" font-size="10.00">w2c__f232</text>
</a>
</g>
</g>
<!-- Node3&#45;&gt;Node4 -->
<g id="edge3_Node000003_Node000004" class="edge">
<title>Node3&#45;&gt;Node4</title>
<g id="a_edge3_Node000003_Node000004"><a xlink:title=" ">
<path fill="none" stroke="#63b8ff" d="M387.16,-205.38C374.43,-205.38 360.78,-205.38 348.85,-205.38"/>
<polygon fill="#63b8ff" stroke="#63b8ff" points="387.01,-208.88 397.01,-205.38 387.01,-201.88 387.01,-208.88"/>
</a>
</g>
</g>
<!-- Node8 -->
<g id="Node000008" class="node">
<title>Node8</title>
<g id="a_Node000008"><a xlink:href="app_8c.html#a37ab9048dfdb458efab80b1be9dde1de" target="_top" xlink:title=" ">
<polygon fill="white" stroke="#666666" points="348.38,-254.75 280.62,-254.75 280.62,-234 348.38,-234 348.38,-254.75"/>
<text text-anchor="middle" x="314.5" y="-241.25" font-family="Helvetica,sans-Serif" font-size="10.00">w2c__f478</text>
</a>
</g>
</g>
<!-- Node3&#45;&gt;Node8 -->
<g id="edge7_Node000003_Node000008" class="edge">
<title>Node3&#45;&gt;Node8</title>
<g id="a_edge7_Node000003_Node000008"><a xlink:title=" ">
<path fill="none" stroke="#63b8ff" d="M388.86,-219.79C375.26,-224.35 360.46,-229.31 347.74,-233.57"/>
<polygon fill="#63b8ff" stroke="#63b8ff" points="389.65,-223.22 398.02,-216.72 387.43,-216.58 389.65,-223.22"/>
</a>
</g>
</g>
<!-- Node5 -->
<g id="Node000005" class="node">
<title>Node5</title>
<g id="a_Node000005"><a xlink:href="app_8c.html#ac5fdc26246fea811c3c879073c8714e3" target="_top" xlink:title=" ">
<polygon fill="white" stroke="#666666" points="215.38,-215.75 147.62,-215.75 147.62,-195 215.38,-195 215.38,-215.75"/>
<text text-anchor="middle" x="181.5" y="-202.25" font-family="Helvetica,sans-Serif" font-size="10.00">w2c__f544</text>
</a>
</g>
</g>
<!-- Node4&#45;&gt;Node5 -->
<g id="edge4_Node000004_Node000005" class="edge">
<title>Node4&#45;&gt;Node5</title>
<g id="a_edge4_Node000004_Node000005"><a xlink:title=" ">
<path fill="none" stroke="#63b8ff" d="M269.03,-205.38C251.52,-205.38 231.76,-205.38 215.55,-205.38"/>
<polygon fill="#63b8ff" stroke="#63b8ff" points="268.93,-208.88 278.93,-205.38 268.93,-201.88 268.93,-208.88"/>
</a>
</g>
</g>
<!-- Node7 -->
<g id="Node000007" class="node">
<title>Node7</title>
<g id="a_Node000007"><a xlink:href="app_8c.html#ac1f7c6f6f701ce469ec96d6b819ee85c" target="_top" xlink:title=" ">
<polygon fill="white" stroke="#666666" points="230,-176.75 133,-176.75 133,-156 230,-156 230,-176.75"/>
<text text-anchor="middle" x="181.5" y="-163.25" font-family="Helvetica,sans-Serif" font-size="10.00">wrap_w2c__f232</text>
</a>
</g>
</g>
<!-- Node4&#45;&gt;Node7 -->
<g id="edge6_Node000004_Node000007" class="edge">
<title>Node4&#45;&gt;Node7</title>
<g id="a_edge6_Node000004_Node000007"><a xlink:title=" ">
<path fill="none" stroke="#63b8ff" d="M269.43,-192.25C252.96,-187.35 234.46,-181.84 218.77,-177.17"/>
<polygon fill="#63b8ff" stroke="#63b8ff" points="268.41,-195.6 278.99,-195.1 270.41,-188.89 268.41,-195.6"/>
</a>
</g>
</g>
<!-- Node6 -->
<g id="Node000006" class="node">
<title>Node6</title>
<g id="a_Node000006"><a xlink:href="app_8c.html#a7b0e37367d7d9eef6182a4cf16ae6d56" target="_top" xlink:title=" ">
<polygon fill="white" stroke="#666666" points="97,-215.75 0,-215.75 0,-195 97,-195 97,-215.75"/>
<text text-anchor="middle" x="48.5" y="-202.25" font-family="Helvetica,sans-Serif" font-size="10.00">wrap_w2c__f544</text>
</a>
</g>
</g>
<!-- Node5&#45;&gt;Node6 -->
<g id="edge5_Node000005_Node000006" class="edge">
<title>Node5&#45;&gt;Node6</title>
<g id="a_edge5_Node000005_Node000006"><a xlink:title=" ">
<path fill="none" stroke="#63b8ff" d="M135.95,-205.38C123.53,-205.38 110,-205.38 97.4,-205.38"/>
<polygon fill="#63b8ff" stroke="#63b8ff" points="135.93,-208.88 145.93,-205.38 135.93,-201.88 135.93,-208.88"/>
</a>
</g>
</g>
<!-- Node9 -->
<g id="Node000009" class="node">
<title>Node9</title>
<g id="a_Node000009"><a xlink:href="app_8c.html#a9c38f547aff5d4cb0dfd41c5db62b733" target="_top" xlink:title=" ">
<polygon fill="white" stroke="#666666" points="230,-254.75 133,-254.75 133,-234 230,-234 230,-254.75"/>
<text text-anchor="middle" x="181.5" y="-241.25" font-family="Helvetica,sans-Serif" font-size="10.00">wrap_w2c__f478</text>
</a>
</g>
</g>
<!-- Node8&#45;&gt;Node9 -->
<g id="edge8_Node000008_Node000009" class="edge">
<title>Node8&#45;&gt;Node9</title>
<g id="a_edge8_Node000008_Node000009"><a xlink:title=" ">
<path fill="none" stroke="#63b8ff" d="M268.95,-244.38C256.53,-244.38 243,-244.38 230.4,-244.38"/>
<polygon fill="#63b8ff" stroke="#63b8ff" points="268.93,-247.88 278.93,-244.38 268.93,-240.88 268.93,-247.88"/>
</a>
</g>
</g>
<!-- Node10&#45;&gt;Node4 -->
<g id="edge10_Node000010_Node000004" class="edge">
<title>Node10&#45;&gt;Node4</title>
<g id="a_edge10_Node000010_Node000004"><a xlink:title=" ">
<path fill="none" stroke="#63b8ff" d="M388.86,-180.79C375.26,-185.35 360.46,-190.31 347.74,-194.57"/>
<polygon fill="#63b8ff" stroke="#63b8ff" points="389.65,-184.22 398.02,-177.72 387.43,-177.58 389.65,-184.22"/>
</a>
</g>
</g>
<!-- Node10&#45;&gt;Node8 -->
<g id="edge13_Node000010_Node000008" class="edge">
<title>Node10&#45;&gt;Node8</title>
<g id="a_edge13_Node000010_Node000008"><a xlink:title=" ">
<path fill="none" stroke="#63b8ff" d="M402.95,-183.35C401.59,-184.34 400.27,-185.35 399,-186.38 380.9,-200.99 382.13,-211.13 363,-224.38 357.92,-227.89 352.13,-230.96 346.38,-233.58"/>
<polygon fill="#63b8ff" stroke="#63b8ff" points="404.55,-186.49 410.92,-178.03 400.66,-180.67 404.55,-186.49"/>
</a>
</g>
</g>
<!-- Node11 -->
<g id="Node000011" class="node">
<title>Node11</title>
<g id="a_Node000011"><a xlink:href="app_8c.html#ab622a538a55f64edefbe88945d17582f" target="_top" xlink:title=" ">
<polygon fill="white" stroke="#666666" points="348.38,-98.75 280.62,-98.75 280.62,-78 348.38,-78 348.38,-98.75"/>
<text text-anchor="middle" x="314.5" y="-85.25" font-family="Helvetica,sans-Serif" font-size="10.00">w2c__f374</text>
</a>
</g>
</g>
<!-- Node10&#45;&gt;Node11 -->
<g id="edge11_Node000010_Node000011" class="edge">
<title>Node10&#45;&gt;Node11</title>
<g id="a_edge11_Node000010_Node000011"><a xlink:title=" ">
<path fill="none" stroke="#63b8ff" d="M402.95,-149.4C401.59,-148.41 400.27,-147.4 399,-146.38 380.9,-131.76 382.13,-121.62 363,-108.38 357.92,-104.86 352.13,-101.79 346.38,-99.17"/>
<polygon fill="#63b8ff" stroke="#63b8ff" points="400.66,-152.08 410.92,-154.72 404.55,-146.26 400.66,-152.08"/>
</a>
</g>
</g>
<!-- Node13 -->
<g id="Node000013" class="node">
<title>Node13</title>
<g id="a_Node000013"><a xlink:href="app_8c.html#a456fb6c1ea8ba9b8a7c8d53809821d6d" target="_top" xlink:title=" ">
<polygon fill="white" stroke="#666666" points="348.38,-137.75 280.62,-137.75 280.62,-117 348.38,-117 348.38,-137.75"/>
<text text-anchor="middle" x="314.5" y="-124.25" font-family="Helvetica,sans-Serif" font-size="10.00">w2c__f555</text>
</a>
</g>
</g>
<!-- Node10&#45;&gt;Node13 -->
<g id="edge14_Node000010_Node000013" class="edge">
<title>Node10&#45;&gt;Node13</title>
<g id="a_edge14_Node000010_Node000013"><a xlink:title=" ">
<path fill="none" stroke="#63b8ff" d="M388.86,-151.96C375.26,-147.4 360.46,-142.44 347.74,-138.18"/>
<polygon fill="#63b8ff" stroke="#63b8ff" points="387.43,-155.17 398.02,-155.03 389.65,-148.53 387.43,-155.17"/>
</a>
</g>
</g>
<!-- Node15 -->
<g id="Node000015" class="node">
<title>Node15</title>
<g id="a_Node000015"><a xlink:href="app_8c.html#aac486906ad8992eafd9e1548ff7a0999" target="_top" xlink:title=" ">
<polygon fill="white" stroke="#666666" points="363,-176.75 266,-176.75 266,-156 363,-156 363,-176.75"/>
<text text-anchor="middle" x="314.5" y="-163.25" font-family="Helvetica,sans-Serif" font-size="10.00">wrap_w2c__f316</text>
</a>
</g>
</g>
<!-- Node10&#45;&gt;Node15 -->
<g id="edge16_Node000010_Node000015" class="edge">
<title>Node10&#45;&gt;Node15</title>
<g id="a_edge16_Node000010_Node000015"><a xlink:title=" ">
<path fill="none" stroke="#63b8ff" d="M387.28,-166.38C379.39,-166.38 371.14,-166.38 363.16,-166.38"/>
<polygon fill="#63b8ff" stroke="#63b8ff" points="387.01,-169.88 397.01,-166.38 387.01,-162.88 387.01,-169.88"/>
</a>
</g>
</g>
<!-- Node12 -->
<g id="Node000012" class="node">
<title>Node12</title>
<g id="a_Node000012"><a xlink:href="app_8c.html#a595e077fbe9095b733dad2156f19394b" target="_top" xlink:title=" ">
<polygon fill="white" stroke="#666666" points="230,-98.75 133,-98.75 133,-78 230,-78 230,-98.75"/>
<text text-anchor="middle" x="181.5" y="-85.25" font-family="Helvetica,sans-Serif" font-size="10.00">wrap_w2c__f374</text>
</a>
</g>
</g>
<!-- Node11&#45;&gt;Node12 -->
<g id="edge12_Node000011_Node000012" class="edge">
<title>Node11&#45;&gt;Node12</title>
<g id="a_edge12_Node000011_Node000012"><a xlink:title=" ">
<path fill="none" stroke="#63b8ff" d="M268.95,-88.38C256.53,-88.38 243,-88.38 230.4,-88.38"/>
<polygon fill="#63b8ff" stroke="#63b8ff" points="268.93,-91.88 278.93,-88.38 268.93,-84.88 268.93,-91.88"/>
</a>
</g>
</g>
<!-- Node14 -->
<g id="Node000014" class="node">
<title>Node14</title>
<g id="a_Node000014"><a xlink:href="app_8c.html#a514e3a5250e5400b04748af3234560d4" target="_top" xlink:title=" ">
<polygon fill="white" stroke="#666666" points="230,-137.75 133,-137.75 133,-117 230,-117 230,-137.75"/>
<text text-anchor="middle" x="181.5" y="-124.25" font-family="Helvetica,sans-Serif" font-size="10.00">wrap_w2c__f555</text>
</a>
</g>
</g>
<!-- Node13&#45;&gt;Node14 -->
<g id="edge15_Node000013_Node000014" class="edge">
<title>Node13&#45;&gt;Node14</title>
<g id="a_edge15_Node000013_Node000014"><a xlink:title=" ">
<path fill="none" stroke="#63b8ff" d="M268.95,-127.38C256.53,-127.38 243,-127.38 230.4,-127.38"/>
<polygon fill="#63b8ff" stroke="#63b8ff" points="268.93,-130.88 278.93,-127.38 268.93,-123.88 268.93,-130.88"/>
</a>
</g>
</g>
<!-- Node16&#45;&gt;Node4 -->
<g id="edge18_Node000016_Node000004" class="edge">
<title>Node16&#45;&gt;Node4</title>
<g id="a_edge18_Node000016_Node000004"><a xlink:title=" ">
<path fill="none" stroke="#63b8ff" d="M402.95,-144.35C401.59,-145.34 400.27,-146.35 399,-147.38 380.9,-161.99 382.13,-172.13 363,-185.38 357.92,-188.89 352.13,-191.96 346.38,-194.58"/>
<polygon fill="#63b8ff" stroke="#63b8ff" points="404.55,-147.49 410.92,-139.03 400.66,-141.67 404.55,-147.49"/>
</a>
</g>
</g>
<!-- Node16&#45;&gt;Node11 -->
<g id="edge19_Node000016_Node000011" class="edge">
<title>Node16&#45;&gt;Node11</title>
<g id="a_edge19_Node000016_Node000011"><a xlink:title=" ">
<path fill="none" stroke="#63b8ff" d="M388.86,-112.96C375.26,-108.4 360.46,-103.44 347.74,-99.18"/>
<polygon fill="#63b8ff" stroke="#63b8ff" points="387.43,-116.17 398.02,-116.03 389.65,-109.53 387.43,-116.17"/>
</a>
</g>
</g>
<!-- Node16&#45;&gt;Node13 -->
<g id="edge20_Node000016_Node000013" class="edge">
<title>Node16&#45;&gt;Node13</title>
<g id="a_edge20_Node000016_Node000013"><a xlink:title=" ">
<path fill="none" stroke="#63b8ff" d="M387.16,-127.38C374.43,-127.38 360.78,-127.38 348.85,-127.38"/>
<polygon fill="#63b8ff" stroke="#63b8ff" points="387.01,-130.88 397.01,-127.38 387.01,-123.88 387.01,-130.88"/>
</a>
</g>
</g>
<!-- Node17 -->
<g id="Node000017" class="node">
<title>Node17</title>
<g id="a_Node000017"><a xlink:href="app_8c.html#ae0b901e93b19c69ecaaba4d7fce19dc8" target="_top" xlink:title=" ">
<polygon fill="white" stroke="#666666" points="363,-59.75 266,-59.75 266,-39 363,-39 363,-59.75"/>
<text text-anchor="middle" x="314.5" y="-46.25" font-family="Helvetica,sans-Serif" font-size="10.00">wrap_w2c__f396</text>
</a>
</g>
</g>
<!-- Node16&#45;&gt;Node17 -->
<g id="edge21_Node000016_Node000017" class="edge">
<title>Node16&#45;&gt;Node17</title>
<g id="a_edge21_Node000016_Node000017"><a xlink:title=" ">
<path fill="none" stroke="#63b8ff" d="M413.23,-108.98C400.01,-96.64 381.42,-80.65 363,-69.38 357.43,-65.97 351.17,-62.87 345.07,-60.2"/>
<polygon fill="#63b8ff" stroke="#63b8ff" points="410.71,-111.41 420.36,-115.79 415.54,-106.35 410.71,-111.41"/>
</a>
</g>
</g>
<!-- Node19 -->
<g id="Node000019" class="node">
<title>Node19</title>
<g id="a_Node000019"><a xlink:href="app_8c.html#a7cb0031167a74e29cec3603def58c07f" target="_top" xlink:title=" ">
<polygon fill="white" stroke="#666666" points="363,-20.75 266,-20.75 266,0 363,0 363,-20.75"/>
<text text-anchor="middle" x="314.5" y="-7.25" font-family="Helvetica,sans-Serif" font-size="10.00">wrap_w2c__f411</text>
</a>
</g>
</g>
<!-- Node18&#45;&gt;Node19 -->
<g id="edge23_Node000018_Node000019" class="edge">
<title>Node18&#45;&gt;Node19</title>
<g id="a_edge23_Node000018_Node000019"><a xlink:title=" ">
<path fill="none" stroke="#63b8ff" d="M388.86,-34.96C375.26,-30.4 360.46,-25.44 347.74,-21.18"/>
<polygon fill="#63b8ff" stroke="#63b8ff" points="387.43,-38.17 398.02,-38.03 389.65,-31.53 387.43,-38.17"/>
</a>
</g>
</g>
</g>
</svg>
