<?xml version="1.0" encoding="UTF-8" standalone="no"?>
<!DOCTYPE svg PUBLIC "-//W3C//DTD SVG 1.1//EN"
 "http://www.w3.org/Graphics/SVG/1.1/DTD/svg11.dtd">
<!-- Generated by graphviz version 12.2.1 (0)
 -->
<!-- Title: w2c__f390 Pages: 1 -->
<svg width="799pt" height="396pt"
 viewBox="0.00 0.00 798.75 395.75" xmlns="http://www.w3.org/2000/svg" xmlns:xlink="http://www.w3.org/1999/xlink">
<g id="graph0" class="graph" transform="scale(1 1) rotate(0) translate(4 391.75)">
<title>w2c__f390</title>
<!-- Node1 -->
<g id="Node000001" class="node">
<title>Node1</title>
<g id="a_Node000001"><a xlink:title=" ">
<polygon fill="#999999" stroke="#666666" points="790.75,-294.75 723,-294.75 723,-274 790.75,-274 790.75,-294.75"/>
<text text-anchor="middle" x="756.88" y="-281.25" font-family="Helvetica,sans-Serif" font-size="10.00">w2c__f390</text>
</a>
</g>
</g>
<!-- Node2 -->
<g id="Node000002" class="node">
<title>Node2</title>
<g id="a_Node000002"><a xlink:href="app_8c.html#a3870ba5ed04a10b74d6f65a20ec05100" target="_top" xlink:title=" ">
<polygon fill="white" stroke="#666666" points="687,-382.75 619.25,-382.75 619.25,-362 687,-362 687,-382.75"/>
<text text-anchor="middle" x="653.12" y="-369.25" font-family="Helvetica,sans-Serif" font-size="10.00">w2c__f203</text>
</a>
</g>
</g>
<!-- Node1&#45;&gt;Node2 -->
<g id="edge1_Node000001_Node000002" class="edge">
<title>Node1&#45;&gt;Node2</title>
<g id="a_edge1_Node000001_Node000002"><a xlink:title=" ">
<path fill="none" stroke="#63b8ff" d="M734.7,-302.69C714.03,-320.57 683.3,-347.15 666.39,-361.77"/>
<polygon fill="#63b8ff" stroke="#63b8ff" points="736.98,-305.34 742.25,-296.16 732.4,-300.05 736.98,-305.34"/>
</a>
</g>
</g>
<!-- Node4 -->
<g id="Node000004" class="node">
<title>Node4</title>
<g id="a_Node000004"><a xlink:href="app_8c.html#a38c73645a7bf14c7536079681f7da792" target="_top" xlink:title=" ">
<polygon fill="white" stroke="#666666" points="687,-333.75 619.25,-333.75 619.25,-313 687,-313 687,-333.75"/>
<text text-anchor="middle" x="653.12" y="-320.25" font-family="Helvetica,sans-Serif" font-size="10.00">w2c__f338</text>
</a>
</g>
</g>
<!-- Node1&#45;&gt;Node4 -->
<g id="edge3_Node000001_Node000004" class="edge">
<title>Node1&#45;&gt;Node4</title>
<g id="a_edge3_Node000001_Node000004"><a xlink:title=" ">
<path fill="none" stroke="#63b8ff" d="M716.85,-299.33C705.35,-303.74 692.99,-308.48 682.32,-312.57"/>
<polygon fill="#63b8ff" stroke="#63b8ff" points="718.03,-302.63 726.12,-295.78 715.53,-296.09 718.03,-302.63"/>
</a>
</g>
</g>
<!-- Node6 -->
<g id="Node000006" class="node">
<title>Node6</title>
<g id="a_Node000006"><a xlink:href="app_8c.html#a7d4828f80c09fbe34c6c6440dc146ce6" target="_top" xlink:title=" ">
<polygon fill="white" stroke="#666666" points="687,-275.75 619.25,-275.75 619.25,-255 687,-255 687,-275.75"/>
<text text-anchor="middle" x="653.12" y="-262.25" font-family="Helvetica,sans-Serif" font-size="10.00">w2c__f428</text>
</a>
</g>
</g>
<!-- Node1&#45;&gt;Node6 -->
<g id="edge5_Node000001_Node000006" class="edge">
<title>Node1&#45;&gt;Node6</title>
<g id="a_edge5_Node000001_Node000006"><a xlink:title=" ">
<path fill="none" stroke="#63b8ff" d="M711.32,-276.06C703.21,-274.54 694.88,-272.98 687.17,-271.55"/>
<polygon fill="#63b8ff" stroke="#63b8ff" points="710.6,-279.48 721.07,-277.88 711.88,-272.6 710.6,-279.48"/>
</a>
</g>
</g>
<!-- Node21 -->
<g id="Node000021" class="node">
<title>Node21</title>
<g id="a_Node000021"><a xlink:href="app_8c.html#a638f8f3762772ce177faef400f358c59" target="_top" xlink:title=" ">
<polygon fill="white" stroke="#666666" points="568.62,-137.75 500.88,-137.75 500.88,-117 568.62,-117 568.62,-137.75"/>
<text text-anchor="middle" x="534.75" y="-124.25" font-family="Helvetica,sans-Serif" font-size="10.00">w2c__f429</text>
</a>
</g>
</g>
<!-- Node1&#45;&gt;Node21 -->
<g id="edge20_Node000001_Node000021" class="edge">
<title>Node1&#45;&gt;Node21</title>
<g id="a_edge20_Node000001_Node000021"><a xlink:title=" ">
<path fill="none" stroke="#63b8ff" d="M731.57,-267.04C685.92,-234.48 588.56,-165.04 550.99,-138.24"/>
<polygon fill="#63b8ff" stroke="#63b8ff" points="729.34,-269.75 739.51,-272.7 733.4,-264.05 729.34,-269.75"/>
</a>
</g>
</g>
<!-- Node3 -->
<g id="Node000003" class="node">
<title>Node3</title>
<g id="a_Node000003"><a xlink:href="app_8c.html#a26e0074bd030583e3f23daecad1d02d4" target="_top" xlink:title=" ">
<polygon fill="white" stroke="#666666" points="583.25,-387.75 486.25,-387.75 486.25,-367 583.25,-367 583.25,-387.75"/>
<text text-anchor="middle" x="534.75" y="-374.25" font-family="Helvetica,sans-Serif" font-size="10.00">wrap_w2c__f203</text>
</a>
</g>
</g>
<!-- Node2&#45;&gt;Node3 -->
<g id="edge2_Node000002_Node000003" class="edge">
<title>Node2&#45;&gt;Node3</title>
<g id="a_edge2_Node000002_Node000003"><a xlink:title=" ">
<path fill="none" stroke="#63b8ff" d="M607.53,-374.29C599.64,-374.63 591.39,-374.98 583.41,-375.33"/>
<polygon fill="#63b8ff" stroke="#63b8ff" points="607.42,-377.8 617.26,-373.87 607.12,-370.81 607.42,-377.8"/>
</a>
</g>
</g>
<!-- Node5 -->
<g id="Node000005" class="node">
<title>Node5</title>
<g id="a_Node000005"><a xlink:href="app_8c.html#a937ad8559d3bd50d17167f563f4b36ec" target="_top" xlink:title=" ">
<polygon fill="white" stroke="#666666" points="583.25,-348.75 486.25,-348.75 486.25,-328 583.25,-328 583.25,-348.75"/>
<text text-anchor="middle" x="534.75" y="-335.25" font-family="Helvetica,sans-Serif" font-size="10.00">wrap_w2c__f338</text>
</a>
</g>
</g>
<!-- Node4&#45;&gt;Node5 -->
<g id="edge4_Node000004_Node000005" class="edge">
<title>Node4&#45;&gt;Node5</title>
<g id="a_edge4_Node000004_Node000005"><a xlink:title=" ">
<path fill="none" stroke="#63b8ff" d="M607.53,-329.12C599.64,-330.14 591.39,-331.2 583.41,-332.23"/>
<polygon fill="#63b8ff" stroke="#63b8ff" points="607.8,-332.62 617.28,-327.87 606.91,-325.67 607.8,-332.62"/>
</a>
</g>
</g>
<!-- Node7 -->
<g id="Node000007" class="node">
<title>Node7</title>
<g id="a_Node000007"><a xlink:href="app_8c.html#a05c797a6118657c43344590b357a796b" target="_top" xlink:title=" ">
<polygon fill="white" stroke="#666666" points="568.62,-309.75 500.88,-309.75 500.88,-289 568.62,-289 568.62,-309.75"/>
<text text-anchor="middle" x="534.75" y="-296.25" font-family="Helvetica,sans-Serif" font-size="10.00">w2c__f297</text>
</a>
</g>
</g>
<!-- Node6&#45;&gt;Node7 -->
<g id="edge6_Node000006_Node000007" class="edge">
<title>Node6&#45;&gt;Node7</title>
<g id="a_edge6_Node000006_Node000007"><a xlink:title=" ">
<path fill="none" stroke="#63b8ff" d="M607.8,-278.32C594.96,-282.08 581.16,-286.11 569.1,-289.63"/>
<polygon fill="#63b8ff" stroke="#63b8ff" points="608.71,-281.71 617.32,-275.54 606.74,-274.99 608.71,-281.71"/>
</a>
</g>
</g>
<!-- Node14 -->
<g id="Node000014" class="node">
<title>Node14</title>
<g id="a_Node000014"><a xlink:href="app_8c.html#a856b5cc253a6617dab0fccb7d825799e" target="_top" xlink:title=" ">
<polygon fill="white" stroke="#666666" points="568.62,-270.75 500.88,-270.75 500.88,-250 568.62,-250 568.62,-270.75"/>
<text text-anchor="middle" x="534.75" y="-257.25" font-family="Helvetica,sans-Serif" font-size="10.00">w2c__f368</text>
</a>
</g>
</g>
<!-- Node6&#45;&gt;Node14 -->
<g id="edge13_Node000006_Node000014" class="edge">
<title>Node6&#45;&gt;Node14</title>
<g id="a_edge13_Node000006_Node000014"><a xlink:title=" ">
<path fill="none" stroke="#63b8ff" d="M607.41,-263.45C594.68,-262.91 581.03,-262.32 569.1,-261.81"/>
<polygon fill="#63b8ff" stroke="#63b8ff" points="607.12,-266.94 617.26,-263.88 607.42,-259.95 607.12,-266.94"/>
</a>
</g>
</g>
<!-- Node20 -->
<g id="Node000020" class="node">
<title>Node20</title>
<g id="a_Node000020"><a xlink:href="app_8c.html#ac2ae189c7caaf383377bf53227a48d4d" target="_top" xlink:title=" ">
<polygon fill="white" stroke="#666666" points="583.25,-231.75 486.25,-231.75 486.25,-211 583.25,-211 583.25,-231.75"/>
<text text-anchor="middle" x="534.75" y="-218.25" font-family="Helvetica,sans-Serif" font-size="10.00">wrap_w2c__f428</text>
</a>
</g>
</g>
<!-- Node6&#45;&gt;Node20 -->
<g id="edge19_Node000006_Node000020" class="edge">
<title>Node6&#45;&gt;Node20</title>
<g id="a_edge19_Node000006_Node000020"><a xlink:title=" ">
<path fill="none" stroke="#63b8ff" d="M613.03,-250.59C597.09,-244.57 579,-237.73 564.33,-232.18"/>
<polygon fill="#63b8ff" stroke="#63b8ff" points="611.65,-253.81 622.24,-254.08 614.12,-247.27 611.65,-253.81"/>
</a>
</g>
</g>
<!-- Node8 -->
<g id="Node000008" class="node">
<title>Node8</title>
<g id="a_Node000008"><a xlink:href="app_8c.html#a46f73f75a1a989305b62e9f96f421e9b" target="_top" xlink:title=" ">
<polygon fill="white" stroke="#666666" points="435.62,-309.75 367.88,-309.75 367.88,-289 435.62,-289 435.62,-309.75"/>
<text text-anchor="middle" x="401.75" y="-296.25" font-family="Helvetica,sans-Serif" font-size="10.00">w2c__f516</text>
</a>
</g>
</g>
<!-- Node7&#45;&gt;Node8 -->
<g id="edge7_Node000007_Node000008" class="edge">
<title>Node7&#45;&gt;Node8</title>
<g id="a_edge7_Node000007_Node000008"><a xlink:title=" ">
<path fill="none" stroke="#63b8ff" d="M489.28,-299.38C471.77,-299.38 452.01,-299.38 435.8,-299.38"/>
<polygon fill="#63b8ff" stroke="#63b8ff" points="489.18,-302.88 499.18,-299.38 489.18,-295.88 489.18,-302.88"/>
</a>
</g>
</g>
<!-- Node13 -->
<g id="Node000013" class="node">
<title>Node13</title>
<g id="a_Node000013"><a xlink:href="app_8c.html#a020600b73b6fda689ab50b26c933a2d6" target="_top" xlink:title=" ">
<polygon fill="white" stroke="#666666" points="450.25,-348.75 353.25,-348.75 353.25,-328 450.25,-328 450.25,-348.75"/>
<text text-anchor="middle" x="401.75" y="-335.25" font-family="Helvetica,sans-Serif" font-size="10.00">wrap_w2c__f297</text>
</a>
</g>
</g>
<!-- Node7&#45;&gt;Node13 -->
<g id="edge12_Node000007_Node000013" class="edge">
<title>Node7&#45;&gt;Node13</title>
<g id="a_edge12_Node000007_Node000013"><a xlink:title=" ">
<path fill="none" stroke="#63b8ff" d="M489.68,-312.5C473.21,-317.4 454.71,-322.91 439.02,-327.58"/>
<polygon fill="#63b8ff" stroke="#63b8ff" points="490.66,-315.86 499.24,-309.65 488.66,-309.15 490.66,-315.86"/>
</a>
</g>
</g>
<!-- Node9 -->
<g id="Node000009" class="node">
<title>Node9</title>
<g id="a_Node000009"><a xlink:href="app_8c.html#a5677ffd129da8cd63b876545b8187d77" target="_top" xlink:title=" ">
<polygon fill="white" stroke="#666666" points="302.62,-263.75 234.88,-263.75 234.88,-243 302.62,-243 302.62,-263.75"/>
<text text-anchor="middle" x="268.75" y="-250.25" font-family="Helvetica,sans-Serif" font-size="10.00">w2c__f367</text>
</a>
</g>
</g>
<!-- Node8&#45;&gt;Node9 -->
<g id="edge8_Node000008_Node000009" class="edge">
<title>Node8&#45;&gt;Node9</title>
<g id="a_edge8_Node000008_Node000009"><a xlink:title=" ">
<path fill="none" stroke="#63b8ff" d="M359.2,-284.79C340.09,-278.07 317.81,-270.25 300.27,-264.09"/>
<polygon fill="#63b8ff" stroke="#63b8ff" points="358.01,-288.08 368.61,-288.09 360.33,-281.47 358.01,-288.08"/>
</a>
</g>
</g>
<!-- Node10 -->
<g id="Node000010" class="node">
<title>Node10</title>
<g id="a_Node000010"><a xlink:href="app_8c.html#ac863989691d4c389f80374209c220171" target="_top" xlink:title=" ">
<polygon fill="white" stroke="#666666" points="167,-233.75 104.5,-233.75 104.5,-213 167,-213 167,-233.75"/>
<text text-anchor="middle" x="135.75" y="-220.25" font-family="Helvetica,sans-Serif" font-size="10.00">w2c__c_0</text>
</a>
</g>
</g>
<!-- Node9&#45;&gt;Node10 -->
<g id="edge9_Node000009_Node000010" class="edge">
<title>Node9&#45;&gt;Node10</title>
<g id="a_edge9_Node000009_Node000010"><a xlink:title=" ">
<path fill="none" stroke="#63b8ff" d="M223.53,-243.25C204.97,-239 183.86,-234.16 167.1,-230.33"/>
<polygon fill="#63b8ff" stroke="#63b8ff" points="222.69,-246.65 233.22,-245.47 224.25,-239.82 222.69,-246.65"/>
</a>
</g>
</g>
<!-- Node12 -->
<g id="Node000012" class="node">
<title>Node12</title>
<g id="a_Node000012"><a xlink:href="app_8c.html#a8f64ccad6c506a1ca514ba4f43e5211c" target="_top" xlink:title=" ">
<polygon fill="white" stroke="#666666" points="184.25,-272.75 87.25,-272.75 87.25,-252 184.25,-252 184.25,-272.75"/>
<text text-anchor="middle" x="135.75" y="-259.25" font-family="Helvetica,sans-Serif" font-size="10.00">wrap_w2c__f367</text>
</a>
</g>
</g>
<!-- Node9&#45;&gt;Node12 -->
<g id="edge11_Node000009_Node000012" class="edge">
<title>Node9&#45;&gt;Node12</title>
<g id="a_edge11_Node000009_Node000012"><a xlink:title=" ">
<path fill="none" stroke="#63b8ff" d="M223.58,-256.41C211.06,-257.27 197.38,-258.21 184.65,-259.08"/>
<polygon fill="#63b8ff" stroke="#63b8ff" points="223.45,-259.93 233.18,-255.75 222.97,-252.94 223.45,-259.93"/>
</a>
</g>
</g>
<!-- Node11 -->
<g id="Node000011" class="node">
<title>Node11</title>
<g id="a_Node000011"><a xlink:href="app_8c.html#ab1e039392ea68017ab8a6063263b147d" target="_top" xlink:title=" ">
<polygon fill="white" stroke="#666666" points="51.25,-233.75 0,-233.75 0,-213 51.25,-213 51.25,-233.75"/>
<text text-anchor="middle" x="25.62" y="-220.25" font-family="Helvetica,sans-Serif" font-size="10.00">w2c__c</text>
</a>
</g>
</g>
<!-- Node10&#45;&gt;Node11 -->
<g id="edge10_Node000010_Node000011" class="edge">
<title>Node10&#45;&gt;Node11</title>
<g id="a_edge10_Node000010_Node000011"><a xlink:title=" ">
<path fill="none" stroke="#63b8ff" d="M92.72,-223.38C78.81,-223.38 63.78,-223.38 51.57,-223.38"/>
<polygon fill="#63b8ff" stroke="#63b8ff" points="92.54,-226.88 102.54,-223.38 92.54,-219.88 92.54,-226.88"/>
</a>
</g>
</g>
<!-- Node15 -->
<g id="Node000015" class="node">
<title>Node15</title>
<g id="a_Node000015"><a xlink:href="app_8c.html#a6c89af74d99f30a7ef134089421e6f69" target="_top" xlink:title=" ">
<polygon fill="white" stroke="#666666" points="435.62,-194.75 367.88,-194.75 367.88,-174 435.62,-174 435.62,-194.75"/>
<text text-anchor="middle" x="401.75" y="-181.25" font-family="Helvetica,sans-Serif" font-size="10.00">w2c__f312</text>
</a>
</g>
</g>
<!-- Node14&#45;&gt;Node15 -->
<g id="edge14_Node000014_Node000015" class="edge">
<title>Node14&#45;&gt;Node15</title>
<g id="a_edge14_Node000014_Node000015"><a xlink:title=" ">
<path fill="none" stroke="#63b8ff" d="M495.11,-244.85C492.08,-243.41 489.09,-241.91 486.25,-240.38 460.75,-226.62 433.21,-207.16 417,-195.17"/>
<polygon fill="#63b8ff" stroke="#63b8ff" points="493.52,-247.97 504.07,-248.89 496.39,-241.59 493.52,-247.97"/>
</a>
</g>
</g>
<!-- Node19 -->
<g id="Node000019" class="node">
<title>Node19</title>
<g id="a_Node000019"><a xlink:href="app_8c.html#a96fb844d2cdd3b044fcd9fab6bf0fdd4" target="_top" xlink:title=" ">
<polygon fill="white" stroke="#666666" points="450.25,-270.75 353.25,-270.75 353.25,-250 450.25,-250 450.25,-270.75"/>
<text text-anchor="middle" x="401.75" y="-257.25" font-family="Helvetica,sans-Serif" font-size="10.00">wrap_w2c__f368</text>
</a>
</g>
</g>
<!-- Node14&#45;&gt;Node19 -->
<g id="edge18_Node000014_Node000019" class="edge">
<title>Node14&#45;&gt;Node19</title>
<g id="a_edge18_Node000014_Node000019"><a xlink:title=" ">
<path fill="none" stroke="#63b8ff" d="M489.2,-260.38C476.78,-260.38 463.25,-260.38 450.65,-260.38"/>
<polygon fill="#63b8ff" stroke="#63b8ff" points="489.18,-263.88 499.18,-260.38 489.18,-256.88 489.18,-263.88"/>
</a>
</g>
</g>
<!-- Node16 -->
<g id="Node000016" class="node">
<title>Node16</title>
<g id="a_Node000016"><a xlink:href="app_8c.html#af245d5659b958eabe30540d214352ad8" target="_top" xlink:title=" ">
<polygon fill="white" stroke="#666666" points="302.62,-176.75 234.88,-176.75 234.88,-156 302.62,-156 302.62,-176.75"/>
<text text-anchor="middle" x="268.75" y="-163.25" font-family="Helvetica,sans-Serif" font-size="10.00">w2c__f197</text>
</a>
</g>
</g>
<!-- Node15&#45;&gt;Node16 -->
<g id="edge15_Node000015_Node000016" class="edge">
<title>Node15&#45;&gt;Node16</title>
<g id="a_edge15_Node000015_Node000016"><a xlink:title=" ">
<path fill="none" stroke="#63b8ff" d="M356.53,-178.3C338.96,-175.88 319.08,-173.15 302.8,-170.92"/>
<polygon fill="#63b8ff" stroke="#63b8ff" points="355.81,-181.73 366.19,-179.63 356.76,-174.8 355.81,-181.73"/>
</a>
</g>
</g>
<!-- Node18 -->
<g id="Node000018" class="node">
<title>Node18</title>
<g id="a_Node000018"><a xlink:href="app_8c.html#a07d438f3519d306b5f50b93149af1f10" target="_top" xlink:title=" ">
<polygon fill="white" stroke="#666666" points="317.25,-215.75 220.25,-215.75 220.25,-195 317.25,-195 317.25,-215.75"/>
<text text-anchor="middle" x="268.75" y="-202.25" font-family="Helvetica,sans-Serif" font-size="10.00">wrap_w2c__f312</text>
</a>
</g>
</g>
<!-- Node15&#45;&gt;Node18 -->
<g id="edge17_Node000015_Node000018" class="edge">
<title>Node15&#45;&gt;Node18</title>
<g id="a_edge17_Node000015_Node000018"><a xlink:title=" ">
<path fill="none" stroke="#63b8ff" d="M356.58,-191.46C344.06,-193.46 330.38,-195.66 317.65,-197.7"/>
<polygon fill="#63b8ff" stroke="#63b8ff" points="356.88,-194.95 366.2,-189.91 355.77,-188.04 356.88,-194.95"/>
</a>
</g>
</g>
<!-- Node17 -->
<g id="Node000017" class="node">
<title>Node17</title>
<g id="a_Node000017"><a xlink:href="app_8c.html#ac9dfe974277b0ee3fa24e73b7712fe31" target="_top" xlink:title=" ">
<polygon fill="white" stroke="#666666" points="184.25,-176.75 87.25,-176.75 87.25,-156 184.25,-156 184.25,-176.75"/>
<text text-anchor="middle" x="135.75" y="-163.25" font-family="Helvetica,sans-Serif" font-size="10.00">wrap_w2c__f197</text>
</a>
</g>
</g>
<!-- Node16&#45;&gt;Node17 -->
<g id="edge16_Node000016_Node000017" class="edge">
<title>Node16&#45;&gt;Node17</title>
<g id="a_edge16_Node000016_Node000017"><a xlink:title=" ">
<path fill="none" stroke="#63b8ff" d="M223.2,-166.38C210.78,-166.38 197.25,-166.38 184.65,-166.38"/>
<polygon fill="#63b8ff" stroke="#63b8ff" points="223.18,-169.88 233.18,-166.38 223.18,-162.88 223.18,-169.88"/>
</a>
</g>
</g>
<!-- Node21&#45;&gt;Node9 -->
<g id="edge24_Node000021_Node000009" class="edge">
<title>Node21&#45;&gt;Node9</title>
<g id="a_edge24_Node000021_Node000009"><a xlink:title=" ">
<path fill="none" stroke="#63b8ff" d="M517.69,-146.4C502.12,-163.66 476.99,-188.61 450.25,-203.38 402.71,-229.62 340.38,-242.9 302.79,-248.96"/>
<polygon fill="#63b8ff" stroke="#63b8ff" points="519.95,-149.12 523.92,-139.3 514.69,-144.51 519.95,-149.12"/>
</a>
</g>
</g>
<!-- Node21&#45;&gt;Node16 -->
<g id="edge21_Node000021_Node000016" class="edge">
<title>Node21&#45;&gt;Node16</title>
<g id="a_edge21_Node000021_Node000016"><a xlink:title=" ">
<path fill="none" stroke="#63b8ff" d="M489.25,-133.95C436.6,-141.73 350.15,-154.5 302.99,-161.46"/>
<polygon fill="#63b8ff" stroke="#63b8ff" points="489.7,-137.42 499.08,-132.5 488.68,-130.5 489.7,-137.42"/>
</a>
</g>
</g>
<!-- Node22 -->
<g id="Node000022" class="node">
<title>Node22</title>
<g id="a_Node000022"><a xlink:href="app_8c.html#a92887d2aedd3202ee2ee7790ac44d9c3" target="_top" xlink:title=" ">
<polygon fill="white" stroke="#666666" points="435.62,-79.75 367.88,-79.75 367.88,-59 435.62,-59 435.62,-79.75"/>
<text text-anchor="middle" x="401.75" y="-66.25" font-family="Helvetica,sans-Serif" font-size="10.00">w2c__f352</text>
</a>
</g>
</g>
<!-- Node21&#45;&gt;Node22 -->
<g id="edge22_Node000021_Node000022" class="edge">
<title>Node21&#45;&gt;Node22</title>
<g id="a_edge22_Node000021_Node000022"><a xlink:title=" ">
<path fill="none" stroke="#63b8ff" d="M499.99,-111.75C484.83,-104.8 466.69,-96.57 450.25,-89.38 443.37,-86.36 435.88,-83.17 428.94,-80.24"/>
<polygon fill="#63b8ff" stroke="#63b8ff" points="498.51,-114.92 509.06,-115.92 501.44,-108.56 498.51,-114.92"/>
</a>
</g>
</g>
<!-- Node24 -->
<g id="Node000024" class="node">
<title>Node24</title>
<g id="a_Node000024"><a xlink:href="app_8c.html#affed7b4e730191b8eb2ae859a9d3e4b2" target="_top" xlink:title=" ">
<polygon fill="white" stroke="#666666" points="435.62,-118.75 367.88,-118.75 367.88,-98 435.62,-98 435.62,-118.75"/>
<text text-anchor="middle" x="401.75" y="-105.25" font-family="Helvetica,sans-Serif" font-size="10.00">w2c__f426</text>
</a>
</g>
</g>
<!-- Node21&#45;&gt;Node24 -->
<g id="edge25_Node000021_Node000024" class="edge">
<title>Node21&#45;&gt;Node24</title>
<g id="a_edge25_Node000021_Node000024"><a xlink:title=" ">
<path fill="none" stroke="#63b8ff" d="M489.53,-120.96C471.96,-118.41 452.08,-115.53 435.8,-113.17"/>
<polygon fill="#63b8ff" stroke="#63b8ff" points="488.8,-124.39 499.2,-122.36 489.8,-117.46 488.8,-124.39"/>
</a>
</g>
</g>
<!-- Node30 -->
<g id="Node000030" class="node">
<title>Node30</title>
<g id="a_Node000030"><a xlink:href="app_8c.html#ac929d55242521910f121ad2d134becc2" target="_top" xlink:title=" ">
<polygon fill="white" stroke="#666666" points="450.25,-40.75 353.25,-40.75 353.25,-20 450.25,-20 450.25,-40.75"/>
<text text-anchor="middle" x="401.75" y="-27.25" font-family="Helvetica,sans-Serif" font-size="10.00">wrap_w2c__f429</text>
</a>
</g>
</g>
<!-- Node21&#45;&gt;Node30 -->
<g id="edge32_Node000021_Node000030" class="edge">
<title>Node21&#45;&gt;Node30</title>
<g id="a_edge32_Node000021_Node000030"><a xlink:title=" ">
<path fill="none" stroke="#63b8ff" d="M517.01,-108.59C501.14,-91.65 475.95,-66.91 450.25,-50.38 444.91,-46.94 438.87,-43.87 432.95,-41.23"/>
<polygon fill="#63b8ff" stroke="#63b8ff" points="514.05,-110.55 523.39,-115.55 519.21,-105.81 514.05,-110.55"/>
</a>
</g>
</g>
<!-- Node23 -->
<g id="Node000023" class="node">
<title>Node23</title>
<g id="a_Node000023"><a xlink:href="app_8c.html#a59ffb9c4f4293b99a29f46019ffebf23" target="_top" xlink:title=" ">
<polygon fill="white" stroke="#666666" points="317.25,-20.75 220.25,-20.75 220.25,0 317.25,0 317.25,-20.75"/>
<text text-anchor="middle" x="268.75" y="-7.25" font-family="Helvetica,sans-Serif" font-size="10.00">wrap_w2c__f352</text>
</a>
</g>
</g>
<!-- Node22&#45;&gt;Node23 -->
<g id="edge23_Node000022_Node000023" class="edge">
<title>Node22&#45;&gt;Node23</title>
<g id="a_edge23_Node000022_Node000023"><a xlink:title=" ">
<path fill="none" stroke="#63b8ff" d="M363.53,-54.07C360.04,-52.52 356.57,-50.94 353.25,-49.38 336.9,-41.64 333.6,-38.11 317.25,-30.38 310.62,-27.24 303.36,-24.06 296.56,-21.18"/>
<polygon fill="#63b8ff" stroke="#63b8ff" points="361.98,-57.21 372.55,-57.97 364.76,-50.79 361.98,-57.21"/>
</a>
</g>
</g>
<!-- Node24&#45;&gt;Node16 -->
<g id="edge26_Node000024_Node000016" class="edge">
<title>Node24&#45;&gt;Node16</title>
<g id="a_edge26_Node000024_Node000016"><a xlink:title=" ">
<path fill="none" stroke="#63b8ff" d="M366.99,-124C351.83,-130.95 333.69,-139.18 317.25,-146.38 310.37,-149.39 302.88,-152.58 295.94,-155.51"/>
<polygon fill="#63b8ff" stroke="#63b8ff" points="368.44,-127.19 376.06,-119.83 365.51,-120.83 368.44,-127.19"/>
</a>
</g>
</g>
<!-- Node25 -->
<g id="Node000025" class="node">
<title>Node25</title>
<g id="a_Node000025"><a xlink:href="app_8c.html#aabc3b06c7f7daa21796552c728f0379b" target="_top" xlink:title=" ">
<polygon fill="white" stroke="#666666" points="302.62,-137.75 234.88,-137.75 234.88,-117 302.62,-117 302.62,-137.75"/>
<text text-anchor="middle" x="268.75" y="-124.25" font-family="Helvetica,sans-Serif" font-size="10.00">w2c__f270</text>
</a>
</g>
</g>
<!-- Node24&#45;&gt;Node25 -->
<g id="edge27_Node000024_Node000025" class="edge">
<title>Node24&#45;&gt;Node25</title>
<g id="a_edge27_Node000024_Node000025"><a xlink:title=" ">
<path fill="none" stroke="#63b8ff" d="M356.53,-114.79C338.96,-117.34 319.08,-120.22 302.8,-122.58"/>
<polygon fill="#63b8ff" stroke="#63b8ff" points="356.8,-118.29 366.2,-113.39 355.8,-111.36 356.8,-118.29"/>
</a>
</g>
</g>
<!-- Node27 -->
<g id="Node000027" class="node">
<title>Node27</title>
<g id="a_Node000027"><a xlink:href="app_8c.html#a3b35d36403dcff081d46c10210051cdc" target="_top" xlink:title=" ">
<polygon fill="white" stroke="#666666" points="302.62,-98.75 234.88,-98.75 234.88,-78 302.62,-78 302.62,-98.75"/>
<text text-anchor="middle" x="268.75" y="-85.25" font-family="Helvetica,sans-Serif" font-size="10.00">w2c__f349</text>
</a>
</g>
</g>
<!-- Node24&#45;&gt;Node27 -->
<g id="edge29_Node000024_Node000027" class="edge">
<title>Node24&#45;&gt;Node27</title>
<g id="a_edge29_Node000024_Node000027"><a xlink:title=" ">
<path fill="none" stroke="#63b8ff" d="M356.53,-101.62C338.96,-98.94 319.08,-95.91 302.8,-93.42"/>
<polygon fill="#63b8ff" stroke="#63b8ff" points="355.78,-105.05 366.2,-103.1 356.84,-98.13 355.78,-105.05"/>
</a>
</g>
</g>
<!-- Node29 -->
<g id="Node000029" class="node">
<title>Node29</title>
<g id="a_Node000029"><a xlink:href="app_8c.html#ae1beb332ba7551f1acff2f46930c4e85" target="_top" xlink:title=" ">
<polygon fill="white" stroke="#666666" points="317.25,-59.75 220.25,-59.75 220.25,-39 317.25,-39 317.25,-59.75"/>
<text text-anchor="middle" x="268.75" y="-46.25" font-family="Helvetica,sans-Serif" font-size="10.00">wrap_w2c__f426</text>
</a>
</g>
</g>
<!-- Node24&#45;&gt;Node29 -->
<g id="edge31_Node000024_Node000029" class="edge">
<title>Node24&#45;&gt;Node29</title>
<g id="a_edge31_Node000024_Node000029"><a xlink:title=" ">
<path fill="none" stroke="#63b8ff" d="M363.53,-93.07C360.04,-91.52 356.57,-89.94 353.25,-88.38 336.9,-80.64 333.6,-77.11 317.25,-69.38 310.62,-66.24 303.36,-63.06 296.56,-60.18"/>
<polygon fill="#63b8ff" stroke="#63b8ff" points="361.98,-96.21 372.55,-96.97 364.76,-89.79 361.98,-96.21"/>
</a>
</g>
</g>
<!-- Node26 -->
<g id="Node000026" class="node">
<title>Node26</title>
<g id="a_Node000026"><a xlink:href="app_8c.html#a54f194530158831aa826ddabfd869e3f" target="_top" xlink:title=" ">
<polygon fill="white" stroke="#666666" points="184.25,-137.75 87.25,-137.75 87.25,-117 184.25,-117 184.25,-137.75"/>
<text text-anchor="middle" x="135.75" y="-124.25" font-family="Helvetica,sans-Serif" font-size="10.00">wrap_w2c__f270</text>
</a>
</g>
</g>
<!-- Node25&#45;&gt;Node26 -->
<g id="edge28_Node000025_Node000026" class="edge">
<title>Node25&#45;&gt;Node26</title>
<g id="a_edge28_Node000025_Node000026"><a xlink:title=" ">
<path fill="none" stroke="#63b8ff" d="M223.2,-127.38C210.78,-127.38 197.25,-127.38 184.65,-127.38"/>
<polygon fill="#63b8ff" stroke="#63b8ff" points="223.18,-130.88 233.18,-127.38 223.18,-123.88 223.18,-130.88"/>
</a>
</g>
</g>
<!-- Node28 -->
<g id="Node000028" class="node">
<title>Node28</title>
<g id="a_Node000028"><a xlink:href="app_8c.html#a053e462a04712de112461bc2539f46e8" target="_top" xlink:title=" ">
<polygon fill="white" stroke="#666666" points="184.25,-98.75 87.25,-98.75 87.25,-78 184.25,-78 184.25,-98.75"/>
<text text-anchor="middle" x="135.75" y="-85.25" font-family="Helvetica,sans-Serif" font-size="10.00">wrap_w2c__f349</text>
</a>
</g>
</g>
<!-- Node27&#45;&gt;Node28 -->
<g id="edge30_Node000027_Node000028" class="edge">
<title>Node27&#45;&gt;Node28</title>
<g id="a_edge30_Node000027_Node000028"><a xlink:title=" ">
<path fill="none" stroke="#63b8ff" d="M223.2,-88.38C210.78,-88.38 197.25,-88.38 184.65,-88.38"/>
<polygon fill="#63b8ff" stroke="#63b8ff" points="223.18,-91.88 233.18,-88.38 223.18,-84.88 223.18,-91.88"/>
</a>
</g>
</g>
</g>
</svg>
