<?xml version="1.0" encoding="UTF-8" standalone="no"?>
<!DOCTYPE svg PUBLIC "-//W3C//DTD SVG 1.1//EN"
 "http://www.w3.org/Graphics/SVG/1.1/DTD/svg11.dtd">
<!-- Generated by graphviz version 12.2.1 (0)
 -->
<!-- Title: wrap_w2c__f543 Pages: 1 -->
<svg width="728pt" height="373pt"
 viewBox="0.00 0.00 727.50 372.75" xmlns="http://www.w3.org/2000/svg" xmlns:xlink="http://www.w3.org/1999/xlink">
<g id="graph0" class="graph" transform="scale(1 1) rotate(0) translate(4 368.75)">
<title>wrap_w2c__f543</title>
<!-- Node1 -->
<g id="Node000001" class="node">
<title>Node1</title>
<g id="a_Node000001"><a xlink:title=" ">
<polygon fill="#999999" stroke="#666666" points="97,-193.75 0,-193.75 0,-173 97,-173 97,-193.75"/>
<text text-anchor="middle" x="48.5" y="-180.25" font-family="Helvetica,sans-Serif" font-size="10.00">wrap_w2c__f543</text>
</a>
</g>
</g>
<!-- Node2 -->
<g id="Node000002" class="node">
<title>Node2</title>
<g id="a_Node000002"><a xlink:href="app_8c.html#a85d3b9af05c91f610c185ddb2549e444" target="_top" xlink:title=" ">
<polygon fill="white" stroke="#666666" points="200.75,-193.75 133,-193.75 133,-173 200.75,-173 200.75,-193.75"/>
<text text-anchor="middle" x="166.88" y="-180.25" font-family="Helvetica,sans-Serif" font-size="10.00">w2c__f543</text>
</a>
</g>
</g>
<!-- Node1&#45;&gt;Node2 -->
<g id="edge1_Node000001_Node000002" class="edge">
<title>Node1&#45;&gt;Node2</title>
<g id="a_edge1_Node000001_Node000002"><a xlink:title=" ">
<path fill="none" stroke="#63b8ff" d="M97.17,-183.38C105.18,-183.38 113.47,-183.38 121.4,-183.38"/>
<polygon fill="#63b8ff" stroke="#63b8ff" points="121.17,-186.88 131.17,-183.38 121.17,-179.88 121.17,-186.88"/>
</a>
</g>
</g>
<!-- Node3 -->
<g id="Node000003" class="node">
<title>Node3</title>
<g id="a_Node000003"><a xlink:href="app_8c.html#a4af865c90c18ca5ca94588ef4bff1307" target="_top" xlink:title=" ">
<polygon fill="white" stroke="#666666" points="408.25,-364.75 340.5,-364.75 340.5,-344 408.25,-344 408.25,-364.75"/>
<text text-anchor="middle" x="374.38" y="-351.25" font-family="Helvetica,sans-Serif" font-size="10.00">w2c__f208</text>
</a>
</g>
</g>
<!-- Node2&#45;&gt;Node3 -->
<g id="edge2_Node000002_Node000003" class="edge">
<title>Node2&#45;&gt;Node3</title>
<g id="a_edge2_Node000002_Node000003"><a xlink:title=" ">
<path fill="none" stroke="#63b8ff" d="M169.45,-193.97C174.14,-221.41 190.65,-295.09 236.75,-330.38 262.8,-350.32 299.82,-355.83 328.75,-356.62"/>
<polygon fill="#63b8ff" stroke="#63b8ff" points="328.66,-360.12 338.68,-356.7 328.71,-353.12 328.66,-360.12"/>
</a>
</g>
</g>
<!-- Node4 -->
<g id="Node000004" class="node">
<title>Node4</title>
<g id="a_Node000004"><a xlink:href="app_8c.html#aaca5d5bcf49f2ca74019cf097750b9f3" target="_top" xlink:title=" ">
<polygon fill="white" stroke="#666666" points="615.75,-308.75 548,-308.75 548,-288 615.75,-288 615.75,-308.75"/>
<text text-anchor="middle" x="581.88" y="-295.25" font-family="Helvetica,sans-Serif" font-size="10.00">w2c__f258</text>
</a>
</g>
</g>
<!-- Node2&#45;&gt;Node4 -->
<g id="edge8_Node000002_Node000004" class="edge">
<title>Node2&#45;&gt;Node4</title>
<g id="a_edge8_Node000002_Node000004"><a xlink:title=" ">
<path fill="none" stroke="#63b8ff" d="M172.22,-194.16C181.05,-214.54 203.11,-258.5 236.75,-279.38 330.3,-337.43 467.15,-321.85 536.73,-308.49"/>
<polygon fill="#63b8ff" stroke="#63b8ff" points="537.1,-311.98 546.22,-306.59 535.73,-305.12 537.1,-311.98"/>
</a>
</g>
</g>
<!-- Node7 -->
<g id="Node000007" class="node">
<title>Node7</title>
<g id="a_Node000007"><a xlink:href="app_8c.html#a0378208e0d5c0d1d6e7370f1c578fab3" target="_top" xlink:title=" ">
<polygon fill="white" stroke="#666666" points="615.75,-154.75 548,-154.75 548,-134 615.75,-134 615.75,-154.75"/>
<text text-anchor="middle" x="581.88" y="-141.25" font-family="Helvetica,sans-Serif" font-size="10.00">w2c__f216</text>
</a>
</g>
</g>
<!-- Node2&#45;&gt;Node7 -->
<g id="edge6_Node000002_Node000007" class="edge">
<title>Node2&#45;&gt;Node7</title>
<g id="a_edge6_Node000002_Node000007"><a xlink:title=" ">
<path fill="none" stroke="#63b8ff" d="M200.97,-180.25C274.76,-173.28 452.76,-156.47 536.25,-148.59"/>
<polygon fill="#63b8ff" stroke="#63b8ff" points="536.48,-152.08 546.11,-147.66 535.83,-145.11 536.48,-152.08"/>
</a>
</g>
</g>
<!-- Node8 -->
<g id="Node000008" class="node">
<title>Node8</title>
<g id="a_Node000008"><a xlink:href="app_8c.html#aa476913c06cddc14d3dc0f912d9b632b" target="_top" xlink:title=" ">
<polygon fill="white" stroke="#666666" points="304.5,-98.75 236.75,-98.75 236.75,-78 304.5,-78 304.5,-98.75"/>
<text text-anchor="middle" x="270.62" y="-85.25" font-family="Helvetica,sans-Serif" font-size="10.00">w2c__f382</text>
</a>
</g>
</g>
<!-- Node2&#45;&gt;Node8 -->
<g id="edge9_Node000002_Node000008" class="edge">
<title>Node2&#45;&gt;Node8</title>
<g id="a_edge9_Node000002_Node000008"><a xlink:title=" ">
<path fill="none" stroke="#63b8ff" d="M177.17,-172.72C189.94,-158.33 213.94,-132.2 236.75,-112.38 239.25,-110.2 241.94,-108.02 244.66,-105.91"/>
<polygon fill="#63b8ff" stroke="#63b8ff" points="246.67,-108.77 252.61,-99.99 242.5,-103.15 246.67,-108.77"/>
</a>
</g>
</g>
<!-- Node9 -->
<g id="Node000009" class="node">
<title>Node9</title>
<g id="a_Node000009"><a xlink:href="app_8c.html#aa4287623b0d7d8547006f5cf9a176414" target="_top" xlink:title=" ">
<polygon fill="white" stroke="#666666" points="512,-288.75 444.25,-288.75 444.25,-268 512,-268 512,-288.75"/>
<text text-anchor="middle" x="478.12" y="-275.25" font-family="Helvetica,sans-Serif" font-size="10.00">w2c__f385</text>
</a>
</g>
</g>
<!-- Node2&#45;&gt;Node9 -->
<g id="edge10_Node000002_Node000009" class="edge">
<title>Node2&#45;&gt;Node9</title>
<g id="a_edge10_Node000002_Node000009"><a xlink:title=" ">
<path fill="none" stroke="#63b8ff" d="M174.58,-194.07C185.42,-210.3 208.45,-240.7 236.75,-254.38 299.68,-284.78 382.53,-285.77 432.71,-282.76"/>
<polygon fill="#63b8ff" stroke="#63b8ff" points="432.88,-286.25 442.61,-282.07 432.39,-279.27 432.88,-286.25"/>
</a>
</g>
</g>
<!-- Node10 -->
<g id="Node000010" class="node">
<title>Node10</title>
<g id="a_Node000010"><a xlink:href="app_8c.html#a674f6e81761467d0a8dc6d2a425eda9f" target="_top" xlink:title=" ">
<polygon fill="white" stroke="#666666" points="615.75,-269.75 548,-269.75 548,-249 615.75,-249 615.75,-269.75"/>
<text text-anchor="middle" x="581.88" y="-256.25" font-family="Helvetica,sans-Serif" font-size="10.00">w2c__f498</text>
</a>
</g>
</g>
<!-- Node2&#45;&gt;Node10 -->
<g id="edge17_Node000002_Node000010" class="edge">
<title>Node2&#45;&gt;Node10</title>
<g id="a_edge17_Node000002_Node000010"><a xlink:title=" ">
<path fill="none" stroke="#63b8ff" d="M183.21,-194.16C196.66,-203.04 217.09,-215.14 236.75,-221.38 291.56,-238.76 456.68,-251.38 536.59,-256.65"/>
<polygon fill="#63b8ff" stroke="#63b8ff" points="536.03,-260.12 546.23,-257.28 536.48,-253.14 536.03,-260.12"/>
</a>
</g>
</g>
<!-- Node11 -->
<g id="Node000011" class="node">
<title>Node11</title>
<g id="a_Node000011"><a xlink:href="app_8c.html#a1498426bba145c97675057441616261d" target="_top" xlink:title=" ">
<polygon fill="white" stroke="#666666" points="304.5,-59.75 236.75,-59.75 236.75,-39 304.5,-39 304.5,-59.75"/>
<text text-anchor="middle" x="270.62" y="-46.25" font-family="Helvetica,sans-Serif" font-size="10.00">w2c__f408</text>
</a>
</g>
</g>
<!-- Node2&#45;&gt;Node11 -->
<g id="edge13_Node000002_Node000011" class="edge">
<title>Node2&#45;&gt;Node11</title>
<g id="a_edge13_Node000002_Node000011"><a xlink:title=" ">
<path fill="none" stroke="#63b8ff" d="M172.18,-172.81C181.38,-151.24 204.75,-101.47 236.75,-69.38 237.6,-68.52 238.49,-67.69 239.42,-66.88"/>
<polygon fill="#63b8ff" stroke="#63b8ff" points="241.2,-69.92 247.14,-61.14 237.02,-64.3 241.2,-69.92"/>
</a>
</g>
</g>
<!-- Node12 -->
<g id="Node000012" class="node">
<title>Node12</title>
<g id="a_Node000012"><a xlink:href="app_8c.html#a13af816d6a1fb2ff4fec669fc33dc3b4" target="_top" xlink:title=" ">
<polygon fill="white" stroke="#666666" points="408.25,-136.75 340.5,-136.75 340.5,-116 408.25,-116 408.25,-136.75"/>
<text text-anchor="middle" x="374.38" y="-123.25" font-family="Helvetica,sans-Serif" font-size="10.00">w2c__f457</text>
</a>
</g>
</g>
<!-- Node2&#45;&gt;Node12 -->
<g id="edge14_Node000002_Node000012" class="edge">
<title>Node2&#45;&gt;Node12</title>
<g id="a_edge14_Node000002_Node000012"><a xlink:title=" ">
<path fill="none" stroke="#63b8ff" d="M186.89,-172.52C200.4,-165.25 219.2,-156 236.75,-150.38 266.85,-140.72 302,-134.66 329.11,-131.04"/>
<polygon fill="#63b8ff" stroke="#63b8ff" points="329.21,-134.56 338.69,-129.83 328.33,-127.61 329.21,-134.56"/>
</a>
</g>
</g>
<!-- Node13 -->
<g id="Node000013" class="node">
<title>Node13</title>
<g id="a_Node000013"><a xlink:href="app_8c.html#ab78a9ba6819f5a9d3b53302097151d33" target="_top" xlink:title=" ">
<polygon fill="white" stroke="#666666" points="304.5,-20.75 236.75,-20.75 236.75,0 304.5,0 304.5,-20.75"/>
<text text-anchor="middle" x="270.62" y="-7.25" font-family="Helvetica,sans-Serif" font-size="10.00">w2c__f481</text>
</a>
</g>
</g>
<!-- Node2&#45;&gt;Node13 -->
<g id="edge16_Node000002_Node000013" class="edge">
<title>Node2&#45;&gt;Node13</title>
<g id="a_edge16_Node000002_Node000013"><a xlink:title=" ">
<path fill="none" stroke="#63b8ff" d="M170.38,-172.51C177.03,-145.62 197.4,-74.91 236.75,-30.38 237.43,-29.61 238.14,-28.86 238.88,-28.14"/>
<polygon fill="#63b8ff" stroke="#63b8ff" points="240.84,-31.05 246.5,-22.1 236.49,-25.57 240.84,-31.05"/>
</a>
</g>
</g>
<!-- Node14 -->
<g id="Node000014" class="node">
<title>Node14</title>
<g id="a_Node000014"><a xlink:href="app_8c.html#a4fd0a4cb4b78f7e4a76d64b8921bc5dc" target="_top" xlink:title=" ">
<polygon fill="white" stroke="#666666" points="304.5,-212.75 236.75,-212.75 236.75,-192 304.5,-192 304.5,-212.75"/>
<text text-anchor="middle" x="270.62" y="-199.25" font-family="Helvetica,sans-Serif" font-size="10.00">w2c__f574</text>
</a>
</g>
</g>
<!-- Node2&#45;&gt;Node14 -->
<g id="edge18_Node000002_Node000014" class="edge">
<title>Node2&#45;&gt;Node14</title>
<g id="a_edge18_Node000002_Node000014"><a xlink:title=" ">
<path fill="none" stroke="#63b8ff" d="M201.19,-189.6C208.91,-191.04 217.25,-192.59 225.36,-194.11"/>
<polygon fill="#63b8ff" stroke="#63b8ff" points="224.62,-197.53 235.09,-195.93 225.91,-190.65 224.62,-197.53"/>
</a>
</g>
</g>
<!-- Node3&#45;&gt;Node4 -->
<g id="edge3_Node000003_Node000004" class="edge">
<title>Node3&#45;&gt;Node4</title>
<g id="a_edge3_Node000003_Node000004"><a xlink:title=" ">
<path fill="none" stroke="#63b8ff" d="M408.52,-351.01C436.55,-347.58 477.54,-341.2 512,-330.38 525.19,-326.23 539.14,-320.11 551,-314.33"/>
<polygon fill="#63b8ff" stroke="#63b8ff" points="552.52,-317.48 559.88,-309.86 549.38,-311.23 552.52,-317.48"/>
</a>
</g>
</g>
<!-- Node5 -->
<g id="Node000005" class="node">
<title>Node5</title>
<g id="a_Node000005"><a xlink:href="app_8c.html#a8d9f347f9a643f0ebfb53c4f54578ac4" target="_top" xlink:title=" ">
<polygon fill="white" stroke="#666666" points="719.5,-212.75 651.75,-212.75 651.75,-192 719.5,-192 719.5,-212.75"/>
<text text-anchor="middle" x="685.62" y="-199.25" font-family="Helvetica,sans-Serif" font-size="10.00">w2c__f304</text>
</a>
</g>
</g>
<!-- Node4&#45;&gt;Node5 -->
<g id="edge4_Node000004_Node000005" class="edge">
<title>Node4&#45;&gt;Node5</title>
<g id="a_edge4_Node000004_Node000005"><a xlink:title=" ">
<path fill="none" stroke="#63b8ff" d="M602.63,-287.63C607.11,-284.85 611.73,-281.69 615.75,-278.38 636.4,-261.31 656.57,-238.05 669.69,-221.77"/>
<polygon fill="#63b8ff" stroke="#63b8ff" points="672.16,-224.3 675.61,-214.28 666.67,-219.96 672.16,-224.3"/>
</a>
</g>
</g>
<!-- Node6 -->
<g id="Node000006" class="node">
<title>Node6</title>
<g id="a_Node000006"><a xlink:href="app_8c.html#a881f0b113e93dce3ff52d04b435850f6" target="_top" xlink:title=" ">
<polygon fill="white" stroke="#666666" points="719.5,-308.75 651.75,-308.75 651.75,-288 719.5,-288 719.5,-308.75"/>
<text text-anchor="middle" x="685.62" y="-295.25" font-family="Helvetica,sans-Serif" font-size="10.00">w2c__f491</text>
</a>
</g>
</g>
<!-- Node4&#45;&gt;Node6 -->
<g id="edge5_Node000004_Node000006" class="edge">
<title>Node4&#45;&gt;Node6</title>
<g id="a_edge5_Node000004_Node000006"><a xlink:title=" ">
<path fill="none" stroke="#63b8ff" d="M616.19,-298.38C623.82,-298.38 632.06,-298.38 640.08,-298.38"/>
<polygon fill="#63b8ff" stroke="#63b8ff" points="640.07,-301.88 650.07,-298.38 640.07,-294.88 640.07,-301.88"/>
</a>
</g>
</g>
<!-- Node7&#45;&gt;Node5 -->
<g id="edge7_Node000007_Node000005" class="edge">
<title>Node7&#45;&gt;Node5</title>
<g id="a_edge7_Node000007_Node000005"><a xlink:title=" ">
<path fill="none" stroke="#63b8ff" d="M601.54,-155.01C616.79,-163.71 638.6,-176.14 656.05,-186.09"/>
<polygon fill="#63b8ff" stroke="#63b8ff" points="654,-188.95 664.42,-190.86 657.47,-182.87 654,-188.95"/>
</a>
</g>
</g>
<!-- Node9&#45;&gt;Node4 -->
<g id="edge11_Node000009_Node000004" class="edge">
<title>Node9&#45;&gt;Node4</title>
<g id="a_edge11_Node000009_Node000004"><a xlink:title=" ">
<path fill="none" stroke="#63b8ff" d="M512.44,-284.92C520.16,-286.44 528.5,-288.08 536.61,-289.67"/>
<polygon fill="#63b8ff" stroke="#63b8ff" points="535.86,-293.09 546.35,-291.59 537.21,-286.22 535.86,-293.09"/>
</a>
</g>
</g>
<!-- Node9&#45;&gt;Node10 -->
<g id="edge12_Node000009_Node000010" class="edge">
<title>Node9&#45;&gt;Node10</title>
<g id="a_edge12_Node000009_Node000010"><a xlink:title=" ">
<path fill="none" stroke="#63b8ff" d="M512.44,-272.15C520.16,-270.71 528.5,-269.16 536.61,-267.64"/>
<polygon fill="#63b8ff" stroke="#63b8ff" points="537.16,-271.1 546.34,-265.82 535.87,-264.22 537.16,-271.1"/>
</a>
</g>
</g>
<!-- Node12&#45;&gt;Node7 -->
<g id="edge15_Node000012_Node000007" class="edge">
<title>Node12&#45;&gt;Node7</title>
<g id="a_edge15_Node000012_Node000007"><a xlink:title=" ">
<path fill="none" stroke="#63b8ff" d="M408.39,-129.27C443.04,-132.3 497.73,-137.09 536.21,-140.46"/>
<polygon fill="#63b8ff" stroke="#63b8ff" points="535.82,-143.94 546.09,-141.33 536.43,-136.97 535.82,-143.94"/>
</a>
</g>
</g>
<!-- Node15 -->
<g id="Node000015" class="node">
<title>Node15</title>
<g id="a_Node000015"><a xlink:href="app_8c.html#ae7fb023a7298e99149ca1f090e524235" target="_top" xlink:title=" ">
<polygon fill="white" stroke="#666666" points="408.25,-212.75 340.5,-212.75 340.5,-192 408.25,-192 408.25,-212.75"/>
<text text-anchor="middle" x="374.38" y="-199.25" font-family="Helvetica,sans-Serif" font-size="10.00">w2c__f281</text>
</a>
</g>
</g>
<!-- Node14&#45;&gt;Node15 -->
<g id="edge19_Node000014_Node000015" class="edge">
<title>Node14&#45;&gt;Node15</title>
<g id="a_edge19_Node000014_Node000015"><a xlink:title=" ">
<path fill="none" stroke="#63b8ff" d="M304.94,-202.38C312.57,-202.38 320.81,-202.38 328.83,-202.38"/>
<polygon fill="#63b8ff" stroke="#63b8ff" points="328.82,-205.88 338.82,-202.38 328.82,-198.88 328.82,-205.88"/>
</a>
</g>
</g>
<!-- Node16 -->
<g id="Node000016" class="node">
<title>Node16</title>
<g id="a_Node000016"><a xlink:href="app_8c.html#ac9cc84763a9c1933e50eedd7a06c17e2" target="_top" xlink:title=" ">
<polygon fill="white" stroke="#666666" points="512,-212.75 444.25,-212.75 444.25,-192 512,-192 512,-212.75"/>
<text text-anchor="middle" x="478.12" y="-199.25" font-family="Helvetica,sans-Serif" font-size="10.00">w2c__f480</text>
</a>
</g>
</g>
<!-- Node15&#45;&gt;Node16 -->
<g id="edge20_Node000015_Node000016" class="edge">
<title>Node15&#45;&gt;Node16</title>
<g id="a_edge20_Node000015_Node000016"><a xlink:title=" ">
<path fill="none" stroke="#63b8ff" d="M408.69,-202.38C416.32,-202.38 424.56,-202.38 432.58,-202.38"/>
<polygon fill="#63b8ff" stroke="#63b8ff" points="432.57,-205.88 442.57,-202.38 432.57,-198.88 432.57,-205.88"/>
</a>
</g>
</g>
<!-- Node16&#45;&gt;Node4 -->
<g id="edge22_Node000016_Node000004" class="edge">
<title>Node16&#45;&gt;Node4</title>
<g id="a_edge22_Node000016_Node000004"><a xlink:title=" ">
<path fill="none" stroke="#63b8ff" d="M487.2,-213.09C499.28,-228.68 523.29,-257.96 548,-278.38 549.26,-279.41 550.57,-280.43 551.92,-281.43"/>
<polygon fill="#63b8ff" stroke="#63b8ff" points="549.62,-284.1 559.87,-286.78 553.53,-278.29 549.62,-284.1"/>
</a>
</g>
</g>
<!-- Node16&#45;&gt;Node5 -->
<g id="edge25_Node000016_Node000005" class="edge">
<title>Node16&#45;&gt;Node5</title>
<g id="a_edge25_Node000016_Node000005"><a xlink:title=" ">
<path fill="none" stroke="#63b8ff" d="M512.14,-202.38C546.79,-202.38 601.48,-202.38 639.96,-202.38"/>
<polygon fill="#63b8ff" stroke="#63b8ff" points="639.84,-205.88 649.84,-202.38 639.84,-198.88 639.84,-205.88"/>
</a>
</g>
</g>
<!-- Node16&#45;&gt;Node7 -->
<g id="edge21_Node000016_Node000007" class="edge">
<title>Node16&#45;&gt;Node7</title>
<g id="a_edge21_Node000016_Node000007"><a xlink:title=" ">
<path fill="none" stroke="#63b8ff" d="M497.79,-191.74C513.04,-183.04 534.85,-170.61 552.3,-160.66"/>
<polygon fill="#63b8ff" stroke="#63b8ff" points="553.72,-163.88 560.67,-155.89 550.25,-157.8 553.72,-163.88"/>
</a>
</g>
</g>
<!-- Node16&#45;&gt;Node10 -->
<g id="edge26_Node000016_Node000010" class="edge">
<title>Node16&#45;&gt;Node10</title>
<g id="a_edge26_Node000016_Node000010"><a xlink:title=" ">
<path fill="none" stroke="#63b8ff" d="M498.26,-213.1C513.37,-221.56 534.7,-233.51 551.9,-243.15"/>
<polygon fill="#63b8ff" stroke="#63b8ff" points="549.72,-245.93 560.16,-247.77 553.14,-239.83 549.72,-245.93"/>
</a>
</g>
</g>
<!-- Node17 -->
<g id="Node000017" class="node">
<title>Node17</title>
<g id="a_Node000017"><a xlink:href="app_8c.html#a4634342addbde677893ffcb45cf639dd" target="_top" xlink:title=" ">
<polygon fill="white" stroke="#666666" points="615.75,-193.75 548,-193.75 548,-173 615.75,-173 615.75,-193.75"/>
<text text-anchor="middle" x="581.88" y="-180.25" font-family="Helvetica,sans-Serif" font-size="10.00">w2c__f302</text>
</a>
</g>
</g>
<!-- Node16&#45;&gt;Node17 -->
<g id="edge23_Node000016_Node000017" class="edge">
<title>Node16&#45;&gt;Node17</title>
<g id="a_edge23_Node000016_Node000017"><a xlink:title=" ">
<path fill="none" stroke="#63b8ff" d="M512.44,-196.15C520.16,-194.71 528.5,-193.16 536.61,-191.64"/>
<polygon fill="#63b8ff" stroke="#63b8ff" points="537.16,-195.1 546.34,-189.82 535.87,-188.22 537.16,-195.1"/>
</a>
</g>
</g>
<!-- Node17&#45;&gt;Node5 -->
<g id="edge24_Node000017_Node000005" class="edge">
<title>Node17&#45;&gt;Node5</title>
<g id="a_edge24_Node000017_Node000005"><a xlink:title=" ">
<path fill="none" stroke="#63b8ff" d="M616.19,-189.6C623.91,-191.04 632.25,-192.59 640.36,-194.11"/>
<polygon fill="#63b8ff" stroke="#63b8ff" points="639.62,-197.53 650.09,-195.93 640.91,-190.65 639.62,-197.53"/>
</a>
</g>
</g>
</g>
</svg>
