<?xml version="1.0" encoding="UTF-8" standalone="no"?>
<!DOCTYPE svg PUBLIC "-//W3C//DTD SVG 1.1//EN"
 "http://www.w3.org/Graphics/SVG/1.1/DTD/svg11.dtd">
<!-- Generated by graphviz version 12.2.1 (0)
 -->
<!-- Title: wrap_w2c__f544 Pages: 1 -->
<svg width="835pt" height="326pt"
 viewBox="0.00 0.00 835.00 325.52" xmlns="http://www.w3.org/2000/svg" xmlns:xlink="http://www.w3.org/1999/xlink">
<g id="graph0" class="graph" transform="scale(1 1) rotate(0) translate(4 321.52)">
<title>wrap_w2c__f544</title>
<!-- Node1 -->
<g id="Node000001" class="node">
<title>Node1</title>
<g id="a_Node000001"><a xlink:title=" ">
<polygon fill="#999999" stroke="#666666" points="97,-192.75 0,-192.75 0,-172 97,-172 97,-192.75"/>
<text text-anchor="middle" x="48.5" y="-179.25" font-family="Helvetica,sans-Serif" font-size="10.00">wrap_w2c__f544</text>
</a>
</g>
</g>
<!-- Node2 -->
<g id="Node000002" class="node">
<title>Node2</title>
<g id="a_Node000002"><a xlink:href="app_8c.html#ac5fdc26246fea811c3c879073c8714e3" target="_top" xlink:title=" ">
<polygon fill="white" stroke="#666666" points="200.75,-192.75 133,-192.75 133,-172 200.75,-172 200.75,-192.75"/>
<text text-anchor="middle" x="166.88" y="-179.25" font-family="Helvetica,sans-Serif" font-size="10.00">w2c__f544</text>
</a>
</g>
</g>
<!-- Node1&#45;&gt;Node2 -->
<g id="edge1_Node000001_Node000002" class="edge">
<title>Node1&#45;&gt;Node2</title>
<g id="a_edge1_Node000001_Node000002"><a xlink:title=" ">
<path fill="none" stroke="#63b8ff" d="M97.17,-182.38C105.18,-182.38 113.47,-182.38 121.4,-182.38"/>
<polygon fill="#63b8ff" stroke="#63b8ff" points="121.17,-185.88 131.17,-182.38 121.17,-178.88 121.17,-185.88"/>
</a>
</g>
</g>
<!-- Node3 -->
<g id="Node000003" class="node">
<title>Node3</title>
<g id="a_Node000003"><a xlink:href="app_8c.html#ab486dc3bc0fed7c8b42c60b55aef74af" target="_top" xlink:title=" ">
<polygon fill="white" stroke="#666666" points="304.5,-192.75 236.75,-192.75 236.75,-172 304.5,-172 304.5,-192.75"/>
<text text-anchor="middle" x="270.62" y="-179.25" font-family="Helvetica,sans-Serif" font-size="10.00">w2c__f232</text>
</a>
</g>
</g>
<!-- Node2&#45;&gt;Node3 -->
<g id="edge2_Node000002_Node000003" class="edge">
<title>Node2&#45;&gt;Node3</title>
<g id="a_edge2_Node000002_Node000003"><a xlink:title=" ">
<path fill="none" stroke="#63b8ff" d="M201.19,-182.38C208.82,-182.38 217.06,-182.38 225.08,-182.38"/>
<polygon fill="#63b8ff" stroke="#63b8ff" points="225.07,-185.88 235.07,-182.38 225.07,-178.88 225.07,-185.88"/>
</a>
</g>
</g>
<!-- Node4 -->
<g id="Node000004" class="node">
<title>Node4</title>
<g id="a_Node000004"><a xlink:href="app_8c.html#a2fb6e70e8b24282ed5d326d14eaef7cb" target="_top" xlink:title=" ">
<polygon fill="white" stroke="#666666" points="408.25,-250.75 340.5,-250.75 340.5,-230 408.25,-230 408.25,-250.75"/>
<text text-anchor="middle" x="374.38" y="-237.25" font-family="Helvetica,sans-Serif" font-size="10.00">w2c__f265</text>
</a>
</g>
</g>
<!-- Node3&#45;&gt;Node4 -->
<g id="edge3_Node000003_Node000004" class="edge">
<title>Node3&#45;&gt;Node4</title>
<g id="a_edge3_Node000003_Node000004"><a xlink:title=" ">
<path fill="none" stroke="#63b8ff" d="M290.29,-193.01C305.54,-201.71 327.35,-214.14 344.8,-224.09"/>
<polygon fill="#63b8ff" stroke="#63b8ff" points="342.75,-226.95 353.17,-228.86 346.22,-220.87 342.75,-226.95"/>
</a>
</g>
</g>
<!-- Node14 -->
<g id="Node000014" class="node">
<title>Node14</title>
<g id="a_Node000014"><a xlink:href="app_8c.html#ad63b6498cfe22ce747f349eeb23b508f" target="_top" xlink:title=" ">
<polygon fill="white" stroke="#666666" points="515.75,-173.75 444.25,-173.75 444.25,-153 515.75,-153 515.75,-173.75"/>
<text text-anchor="middle" x="480" y="-160.25" font-family="Helvetica,sans-Serif" font-size="10.00">wasm_fabs</text>
</a>
</g>
</g>
<!-- Node3&#45;&gt;Node14 -->
<g id="edge35_Node000003_Node000014" class="edge">
<title>Node3&#45;&gt;Node14</title>
<g id="a_edge35_Node000003_Node000014"><a xlink:title=" ">
<path fill="none" stroke="#63b8ff" d="M304.94,-179.32C339.64,-176.14 394.25,-171.14 433.04,-167.59"/>
<polygon fill="#63b8ff" stroke="#63b8ff" points="432.89,-171.11 442.53,-166.72 432.25,-164.14 432.89,-171.11"/>
</a>
</g>
</g>
<!-- Node15 -->
<g id="Node000015" class="node">
<title>Node15</title>
<g id="a_Node000015"><a xlink:href="app_8c.html#a0dcc94e50e7bcb39cabb7a720c8f8454" target="_top" xlink:title=" ">
<polygon fill="white" stroke="#666666" points="408.25,-211.75 340.5,-211.75 340.5,-191 408.25,-191 408.25,-211.75"/>
<text text-anchor="middle" x="374.38" y="-198.25" font-family="Helvetica,sans-Serif" font-size="10.00">w2c__f316</text>
</a>
</g>
</g>
<!-- Node3&#45;&gt;Node15 -->
<g id="edge17_Node000003_Node000015" class="edge">
<title>Node3&#45;&gt;Node15</title>
<g id="a_edge17_Node000003_Node000015"><a xlink:title=" ">
<path fill="none" stroke="#63b8ff" d="M304.94,-188.6C312.66,-190.04 321,-191.59 329.11,-193.11"/>
<polygon fill="#63b8ff" stroke="#63b8ff" points="328.37,-196.53 338.84,-194.93 329.66,-189.65 328.37,-196.53"/>
</a>
</g>
</g>
<!-- Node17 -->
<g id="Node000017" class="node">
<title>Node17</title>
<g id="a_Node000017"><a xlink:href="app_8c.html#a7d2c54d8027e63228e6904d7088eb41a" target="_top" xlink:title=" ">
<polygon fill="white" stroke="#666666" points="408.25,-135.75 340.5,-135.75 340.5,-115 408.25,-115 408.25,-135.75"/>
<text text-anchor="middle" x="374.38" y="-122.25" font-family="Helvetica,sans-Serif" font-size="10.00">w2c__f396</text>
</a>
</g>
</g>
<!-- Node3&#45;&gt;Node17 -->
<g id="edge23_Node000003_Node000017" class="edge">
<title>Node3&#45;&gt;Node17</title>
<g id="a_edge23_Node000003_Node000017"><a xlink:title=" ">
<path fill="none" stroke="#63b8ff" d="M290.76,-171.65C305.87,-163.19 327.2,-151.24 344.4,-141.6"/>
<polygon fill="#63b8ff" stroke="#63b8ff" points="345.64,-144.92 352.66,-136.98 342.22,-138.82 345.64,-144.92"/>
</a>
</g>
</g>
<!-- Node5 -->
<g id="Node000005" class="node">
<title>Node5</title>
<g id="a_Node000005"><a xlink:href="app_8c.html#a94ba0efd8da5ce4859ae69909ed227f4" target="_top" xlink:title=" ">
<polygon fill="white" stroke="#666666" points="513.88,-251.75 446.12,-251.75 446.12,-231 513.88,-231 513.88,-251.75"/>
<text text-anchor="middle" x="480" y="-238.25" font-family="Helvetica,sans-Serif" font-size="10.00">w2c__f213</text>
</a>
</g>
</g>
<!-- Node4&#45;&gt;Node5 -->
<g id="edge4_Node000004_Node000005" class="edge">
<title>Node4&#45;&gt;Node5</title>
<g id="a_edge4_Node000004_Node000005"><a xlink:title=" ">
<path fill="none" stroke="#63b8ff" d="M408.73,-240.7C416.87,-240.78 425.7,-240.86 434.27,-240.94"/>
<polygon fill="#63b8ff" stroke="#63b8ff" points="434.16,-244.44 444.19,-241.04 434.23,-237.44 434.16,-244.44"/>
</a>
</g>
</g>
<!-- Node11 -->
<g id="Node000011" class="node">
<title>Node11</title>
<g id="a_Node000011"><a xlink:href="app_8c.html#a06cdee2573cd7febfe4cfde241e5574b" target="_top" xlink:title=" ">
<polygon fill="white" stroke="#666666" points="513.88,-290.75 446.12,-290.75 446.12,-270 513.88,-270 513.88,-290.75"/>
<text text-anchor="middle" x="480" y="-277.25" font-family="Helvetica,sans-Serif" font-size="10.00">w2c__f404</text>
</a>
</g>
</g>
<!-- Node4&#45;&gt;Node11 -->
<g id="edge13_Node000004_Node000011" class="edge">
<title>Node4&#45;&gt;Node11</title>
<g id="a_edge13_Node000004_Node000011"><a xlink:title=" ">
<path fill="none" stroke="#63b8ff" d="M403.42,-251.2C414.82,-255.6 428.19,-260.76 440.48,-265.51"/>
<polygon fill="#63b8ff" stroke="#63b8ff" points="438.93,-268.66 449.52,-269 441.45,-262.13 438.93,-268.66"/>
</a>
</g>
</g>
<!-- Node12 -->
<g id="Node000012" class="node">
<title>Node12</title>
<g id="a_Node000012"><a xlink:href="app_8c.html#a55f0e3687ea8fa5d5cc06af63f503791" target="_top" xlink:title=" ">
<polygon fill="white" stroke="#666666" points="513.88,-212.75 446.12,-212.75 446.12,-192 513.88,-192 513.88,-212.75"/>
<text text-anchor="middle" x="480" y="-199.25" font-family="Helvetica,sans-Serif" font-size="10.00">w2c__f473</text>
</a>
</g>
</g>
<!-- Node4&#45;&gt;Node12 -->
<g id="edge14_Node000004_Node000012" class="edge">
<title>Node4&#45;&gt;Node12</title>
<g id="a_edge14_Node000004_Node000012"><a xlink:title=" ">
<path fill="none" stroke="#63b8ff" d="M404.79,-229.59C415.4,-225.7 427.57,-221.24 438.93,-217.07"/>
<polygon fill="#63b8ff" stroke="#63b8ff" points="439.9,-220.44 448.09,-213.71 437.49,-213.87 439.9,-220.44"/>
</a>
</g>
</g>
<!-- Node4&#45;&gt;Node14 -->
<g id="edge16_Node000004_Node000014" class="edge">
<title>Node4&#45;&gt;Node14</title>
<g id="a_edge16_Node000004_Node000014"><a xlink:title=" ">
<path fill="none" stroke="#63b8ff" d="M395.04,-229.52C399.53,-226.75 404.17,-223.62 408.25,-220.38 426.19,-206.08 426.13,-197.45 444.25,-183.38 445.72,-182.23 447.27,-181.1 448.86,-180.01"/>
<polygon fill="#63b8ff" stroke="#63b8ff" points="450.33,-183.22 456.9,-174.91 446.58,-177.31 450.33,-183.22"/>
</a>
</g>
</g>
<!-- Node6 -->
<g id="Node000006" class="node">
<title>Node6</title>
<g id="a_Node000006"><a xlink:href="app_8c.html#ac7c3d97ad3659d9d7492f82b3a7a740d" target="_top" xlink:title=" ">
<polygon fill="white" stroke="#666666" points="619.5,-172.75 551.75,-172.75 551.75,-152 619.5,-152 619.5,-172.75"/>
<text text-anchor="middle" x="585.62" y="-159.25" font-family="Helvetica,sans-Serif" font-size="10.00">w2c__f218</text>
</a>
</g>
</g>
<!-- Node5&#45;&gt;Node6 -->
<g id="edge5_Node000005_Node000006" class="edge">
<title>Node5&#45;&gt;Node6</title>
<g id="a_edge5_Node000005_Node000006"><a xlink:title=" ">
<path fill="none" stroke="#63b8ff" d="M502.25,-230.51C506.87,-227.78 511.62,-224.68 515.75,-221.38 534.18,-206.66 533.5,-197.32 551.75,-182.38 553.01,-181.34 554.33,-180.33 555.68,-179.33"/>
<polygon fill="#63b8ff" stroke="#63b8ff" points="557.29,-182.47 563.64,-173.99 553.38,-176.66 557.29,-182.47"/>
</a>
</g>
</g>
<!-- Node8 -->
<g id="Node000008" class="node">
<title>Node8</title>
<g id="a_Node000008"><a xlink:href="app_8c.html#a674f6e81761467d0a8dc6d2a425eda9f" target="_top" xlink:title=" ">
<polygon fill="white" stroke="#666666" points="827,-134.75 759.25,-134.75 759.25,-114 827,-114 827,-134.75"/>
<text text-anchor="middle" x="793.12" y="-121.25" font-family="Helvetica,sans-Serif" font-size="10.00">w2c__f498</text>
</a>
</g>
</g>
<!-- Node5&#45;&gt;Node8 -->
<g id="edge11_Node000005_Node000008" class="edge">
<title>Node5&#45;&gt;Node8</title>
<g id="a_edge11_Node000005_Node000008"><a xlink:title=" ">
<path fill="none" stroke="#63b8ff" d="M501.21,-252.22C506.07,-255.04 511.18,-258.19 515.75,-261.38 532.84,-273.28 532.17,-284.28 551.75,-291.38 623.42,-317.32 659.91,-333.77 723.25,-291.38 772.42,-258.46 786.53,-183.35 790.54,-146.12"/>
<polygon fill="#63b8ff" stroke="#63b8ff" points="793.99,-146.85 791.42,-136.57 787.02,-146.21 793.99,-146.85"/>
</a>
</g>
</g>
<!-- Node9 -->
<g id="Node000009" class="node">
<title>Node9</title>
<g id="a_Node000009"><a xlink:href="app_8c.html#a672569c91ebb1d5055d737b56ec296a7" target="_top" xlink:title=" ">
<polygon fill="white" stroke="#666666" points="827,-77.75 759.25,-77.75 759.25,-57 827,-57 827,-77.75"/>
<text text-anchor="middle" x="793.12" y="-64.25" font-family="Helvetica,sans-Serif" font-size="10.00">w2c__f585</text>
</a>
</g>
</g>
<!-- Node5&#45;&gt;Node9 -->
<g id="edge12_Node000005_Node000009" class="edge">
<title>Node5&#45;&gt;Node9</title>
<g id="a_edge12_Node000005_Node000009"><a xlink:title=" ">
<path fill="none" stroke="#63b8ff" d="M514.12,-246.98C542.6,-250.6 584.5,-253.04 619.5,-243.38 671.28,-229.08 687.14,-221.14 723.25,-181.38 748.38,-153.71 738.84,-136.68 759.25,-105.38 763.5,-98.85 768.79,-92.26 773.86,-86.44"/>
<polygon fill="#63b8ff" stroke="#63b8ff" points="776.34,-88.92 780.48,-79.16 771.16,-84.21 776.34,-88.92"/>
</a>
</g>
</g>
<!-- Node10 -->
<g id="Node000010" class="node">
<title>Node10</title>
<g id="a_Node000010"><a xlink:href="app_8c.html#ab07e4056f5c12e00d750c88d85ec77bb" target="_top" xlink:title=" ">
<polygon fill="white" stroke="#666666" points="723.25,-172.75 655.5,-172.75 655.5,-152 723.25,-152 723.25,-172.75"/>
<text text-anchor="middle" x="689.38" y="-159.25" font-family="Helvetica,sans-Serif" font-size="10.00">w2c__f415</text>
</a>
</g>
</g>
<!-- Node5&#45;&gt;Node10 -->
<g id="edge10_Node000005_Node000010" class="edge">
<title>Node5&#45;&gt;Node10</title>
<g id="a_edge10_Node000005_Node000010"><a xlink:title=" ">
<path fill="none" stroke="#63b8ff" d="M514.33,-241.34C543.31,-240.17 585.83,-235.62 619.5,-220.38 639.83,-211.17 658.9,-194.2 671.79,-180.98"/>
<polygon fill="#63b8ff" stroke="#63b8ff" points="674,-183.75 678.29,-174.06 668.9,-178.96 674,-183.75"/>
</a>
</g>
</g>
<!-- Node7 -->
<g id="Node000007" class="node">
<title>Node7</title>
<g id="a_Node000007"><a xlink:href="app_8c.html#a268eeda7b1a075e4b680bac34cdfebdb" target="_top" xlink:title=" ">
<polygon fill="white" stroke="#666666" points="723.25,-96.75 655.5,-96.75 655.5,-76 723.25,-76 723.25,-96.75"/>
<text text-anchor="middle" x="689.38" y="-83.25" font-family="Helvetica,sans-Serif" font-size="10.00">w2c__f259</text>
</a>
</g>
</g>
<!-- Node6&#45;&gt;Node7 -->
<g id="edge6_Node000006_Node000007" class="edge">
<title>Node6&#45;&gt;Node7</title>
<g id="a_edge6_Node000006_Node000007"><a xlink:title=" ">
<path fill="none" stroke="#63b8ff" d="M600.77,-151.81C617.38,-139.4 645.18,-118.64 665.01,-103.83"/>
<polygon fill="#63b8ff" stroke="#63b8ff" points="666.89,-106.79 672.81,-98 662.7,-101.18 666.89,-106.79"/>
</a>
</g>
</g>
<!-- Node6&#45;&gt;Node10 -->
<g id="edge9_Node000006_Node000010" class="edge">
<title>Node6&#45;&gt;Node10</title>
<g id="a_edge9_Node000006_Node000010"><a xlink:title=" ">
<path fill="none" stroke="#63b8ff" d="M619.94,-162.38C627.57,-162.38 635.81,-162.38 643.83,-162.38"/>
<polygon fill="#63b8ff" stroke="#63b8ff" points="643.82,-165.88 653.82,-162.38 643.82,-158.88 643.82,-165.88"/>
</a>
</g>
</g>
<!-- Node7&#45;&gt;Node8 -->
<g id="edge7_Node000007_Node000008" class="edge">
<title>Node7&#45;&gt;Node8</title>
<g id="a_edge7_Node000007_Node000008"><a xlink:title=" ">
<path fill="none" stroke="#63b8ff" d="M719.26,-97.16C729.57,-101.01 741.38,-105.42 752.44,-109.55"/>
<polygon fill="#63b8ff" stroke="#63b8ff" points="751.16,-112.81 761.75,-113.03 753.61,-106.25 751.16,-112.81"/>
</a>
</g>
</g>
<!-- Node7&#45;&gt;Node9 -->
<g id="edge8_Node000007_Node000009" class="edge">
<title>Node7&#45;&gt;Node9</title>
<g id="a_edge8_Node000007_Node000009"><a xlink:title=" ">
<path fill="none" stroke="#63b8ff" d="M723.69,-80.15C731.41,-78.71 739.75,-77.16 747.86,-75.64"/>
<polygon fill="#63b8ff" stroke="#63b8ff" points="748.41,-79.1 757.59,-73.82 747.12,-72.22 748.41,-79.1"/>
</a>
</g>
</g>
<!-- Node13 -->
<g id="Node000013" class="node">
<title>Node13</title>
<g id="a_Node000013"><a xlink:href="app_8c.html#ab5fcbcf768e56d91e9aa71bba4a24166" target="_top" xlink:title=" ">
<polygon fill="white" stroke="#666666" points="619.5,-211.75 551.75,-211.75 551.75,-191 619.5,-191 619.5,-211.75"/>
<text text-anchor="middle" x="585.62" y="-198.25" font-family="Helvetica,sans-Serif" font-size="10.00">w2c__f221</text>
</a>
</g>
</g>
<!-- Node12&#45;&gt;Node13 -->
<g id="edge15_Node000012_Node000013" class="edge">
<title>Node12&#45;&gt;Node13</title>
<g id="a_edge15_Node000012_Node000013"><a xlink:title=" ">
<path fill="none" stroke="#63b8ff" d="M514.36,-202.05C522.49,-201.97 531.33,-201.89 539.9,-201.81"/>
<polygon fill="#63b8ff" stroke="#63b8ff" points="539.85,-205.31 549.82,-201.71 539.78,-198.31 539.85,-205.31"/>
</a>
</g>
</g>
<!-- Node15&#45;&gt;Node5 -->
<g id="edge18_Node000015_Node000005" class="edge">
<title>Node15&#45;&gt;Node5</title>
<g id="a_edge18_Node000015_Node000005"><a xlink:title=" ">
<path fill="none" stroke="#63b8ff" d="M403.42,-212.2C414.82,-216.6 428.19,-221.76 440.48,-226.51"/>
<polygon fill="#63b8ff" stroke="#63b8ff" points="438.93,-229.66 449.52,-230 441.45,-223.13 438.93,-229.66"/>
</a>
</g>
</g>
<!-- Node15&#45;&gt;Node11 -->
<g id="edge20_Node000015_Node000011" class="edge">
<title>Node15&#45;&gt;Node11</title>
<g id="a_edge20_Node000015_Node000011"><a xlink:title=" ">
<path fill="none" stroke="#63b8ff" d="M395.11,-212.15C399.59,-214.93 404.22,-218.07 408.25,-221.38 426.5,-236.32 425.82,-245.66 444.25,-260.38 445.54,-261.41 446.89,-262.42 448.28,-263.41"/>
<polygon fill="#63b8ff" stroke="#63b8ff" points="446.18,-266.21 456.48,-268.69 449.97,-260.33 446.18,-266.21"/>
</a>
</g>
</g>
<!-- Node15&#45;&gt;Node12 -->
<g id="edge21_Node000015_Node000012" class="edge">
<title>Node15&#45;&gt;Node12</title>
<g id="a_edge21_Node000015_Node000012"><a xlink:title=" ">
<path fill="none" stroke="#63b8ff" d="M408.73,-201.7C416.87,-201.78 425.7,-201.86 434.27,-201.94"/>
<polygon fill="#63b8ff" stroke="#63b8ff" points="434.16,-205.44 444.19,-202.04 434.23,-198.44 434.16,-205.44"/>
</a>
</g>
</g>
<!-- Node15&#45;&gt;Node14 -->
<g id="edge22_Node000015_Node000014" class="edge">
<title>Node15&#45;&gt;Node14</title>
<g id="a_edge22_Node000015_Node000014"><a xlink:title=" ">
<path fill="none" stroke="#63b8ff" d="M404.79,-190.59C415.4,-186.7 427.57,-182.24 438.93,-178.07"/>
<polygon fill="#63b8ff" stroke="#63b8ff" points="439.9,-181.44 448.09,-174.71 437.49,-174.87 439.9,-181.44"/>
</a>
</g>
</g>
<!-- Node16 -->
<g id="Node000016" class="node">
<title>Node16</title>
<g id="a_Node000016"><a xlink:href="app_8c.html#a819bb0d5a870d8c4bbb6b9a791102333" target="_top" xlink:title=" ">
<polygon fill="white" stroke="#666666" points="513.88,-134.75 446.12,-134.75 446.12,-114 513.88,-114 513.88,-134.75"/>
<text text-anchor="middle" x="480" y="-121.25" font-family="Helvetica,sans-Serif" font-size="10.00">w2c__f322</text>
</a>
</g>
</g>
<!-- Node15&#45;&gt;Node16 -->
<g id="edge19_Node000015_Node000016" class="edge">
<title>Node15&#45;&gt;Node16</title>
<g id="a_edge19_Node000015_Node000016"><a xlink:title=" ">
<path fill="none" stroke="#63b8ff" d="M387.08,-190.64C400.41,-178.67 423.08,-159.07 444.25,-144.38 445.82,-143.28 447.46,-142.2 449.13,-141.12"/>
<polygon fill="#63b8ff" stroke="#63b8ff" points="450.78,-144.21 457.5,-136.02 447.14,-138.23 450.78,-144.21"/>
</a>
</g>
</g>
<!-- Node17&#45;&gt;Node12 -->
<g id="edge33_Node000017_Node000012" class="edge">
<title>Node17&#45;&gt;Node12</title>
<g id="a_edge33_Node000017_Node000012"><a xlink:title=" ">
<path fill="none" stroke="#63b8ff" d="M387.08,-136.11C400.41,-148.08 423.08,-167.68 444.25,-182.38 445.82,-183.47 447.46,-184.55 449.13,-185.63"/>
<polygon fill="#63b8ff" stroke="#63b8ff" points="447.14,-188.52 457.5,-190.73 450.78,-182.54 447.14,-188.52"/>
</a>
</g>
</g>
<!-- Node17&#45;&gt;Node14 -->
<g id="edge34_Node000017_Node000014" class="edge">
<title>Node17&#45;&gt;Node14</title>
<g id="a_edge34_Node000017_Node000014"><a xlink:title=" ">
<path fill="none" stroke="#63b8ff" d="M404.79,-136.16C415.4,-140.05 427.57,-144.51 438.93,-148.68"/>
<polygon fill="#63b8ff" stroke="#63b8ff" points="437.49,-151.88 448.09,-152.04 439.9,-145.31 437.49,-151.88"/>
</a>
</g>
</g>
<!-- Node17&#45;&gt;Node16 -->
<g id="edge32_Node000017_Node000016" class="edge">
<title>Node17&#45;&gt;Node16</title>
<g id="a_edge32_Node000017_Node000016"><a xlink:title=" ">
<path fill="none" stroke="#63b8ff" d="M408.73,-125.05C416.87,-124.97 425.7,-124.89 434.27,-124.81"/>
<polygon fill="#63b8ff" stroke="#63b8ff" points="434.23,-128.31 444.19,-124.71 434.16,-121.31 434.23,-128.31"/>
</a>
</g>
</g>
<!-- Node18 -->
<g id="Node000018" class="node">
<title>Node18</title>
<g id="a_Node000018"><a xlink:href="app_8c.html#a433dfe09b8150b58f5cef673948d9ed7" target="_top" xlink:title=" ">
<polygon fill="white" stroke="#666666" points="513.88,-95.75 446.12,-95.75 446.12,-75 513.88,-75 513.88,-95.75"/>
<text text-anchor="middle" x="480" y="-82.25" font-family="Helvetica,sans-Serif" font-size="10.00">w2c__f277</text>
</a>
</g>
</g>
<!-- Node17&#45;&gt;Node18 -->
<g id="edge24_Node000017_Node000018" class="edge">
<title>Node17&#45;&gt;Node18</title>
<g id="a_edge24_Node000017_Node000018"><a xlink:title=" ">
<path fill="none" stroke="#63b8ff" d="M403.42,-114.55C414.82,-110.15 428.19,-104.99 440.48,-100.24"/>
<polygon fill="#63b8ff" stroke="#63b8ff" points="441.45,-103.62 449.52,-96.75 438.93,-97.09 441.45,-103.62"/>
</a>
</g>
</g>
<!-- Node19 -->
<g id="Node000019" class="node">
<title>Node19</title>
<g id="a_Node000019"><a xlink:href="app_8c.html#a8833c017b322ec1b941ea00b73fc4ab5" target="_top" xlink:title=" ">
<polygon fill="white" stroke="#666666" points="513.88,-39.75 446.12,-39.75 446.12,-19 513.88,-19 513.88,-39.75"/>
<text text-anchor="middle" x="480" y="-26.25" font-family="Helvetica,sans-Serif" font-size="10.00">w2c__f308</text>
</a>
</g>
</g>
<!-- Node17&#45;&gt;Node19 -->
<g id="edge29_Node000017_Node000019" class="edge">
<title>Node17&#45;&gt;Node19</title>
<g id="a_edge29_Node000017_Node000019"><a xlink:title=" ">
<path fill="none" stroke="#63b8ff" d="M386.86,-114.73C404.29,-98.59 437.65,-67.68 459.09,-47.82"/>
<polygon fill="#63b8ff" stroke="#63b8ff" points="461.4,-50.46 466.35,-41.09 456.64,-45.32 461.4,-50.46"/>
</a>
</g>
</g>
<!-- Node18&#45;&gt;Node6 -->
<g id="edge25_Node000018_Node000006" class="edge">
<title>Node18&#45;&gt;Node6</title>
<g id="a_edge25_Node000018_Node000006"><a xlink:title=" ">
<path fill="none" stroke="#63b8ff" d="M501.32,-96.07C506.18,-98.9 511.26,-102.08 515.75,-105.38 533.26,-118.2 534.96,-124.62 551.75,-138.38 554.45,-140.59 557.33,-142.84 560.23,-145.03"/>
<polygon fill="#63b8ff" stroke="#63b8ff" points="557.96,-147.71 568.08,-150.83 562.11,-142.08 557.96,-147.71"/>
</a>
</g>
</g>
<!-- Node18&#45;&gt;Node8 -->
<g id="edge27_Node000018_Node000008" class="edge">
<title>Node18&#45;&gt;Node8</title>
<g id="a_edge27_Node000018_Node000008"><a xlink:title=" ">
<path fill="none" stroke="#63b8ff" d="M514.3,-89.55C570.67,-96.62 684.91,-110.94 747.92,-118.83"/>
<polygon fill="#63b8ff" stroke="#63b8ff" points="747.21,-122.27 757.57,-120.04 748.08,-115.33 747.21,-122.27"/>
</a>
</g>
</g>
<!-- Node18&#45;&gt;Node9 -->
<g id="edge28_Node000018_Node000009" class="edge">
<title>Node18&#45;&gt;Node9</title>
<g id="a_edge28_Node000018_Node000009"><a xlink:title=" ">
<path fill="none" stroke="#63b8ff" d="M514.33,-78.3C526.1,-76.06 539.47,-73.79 551.75,-72.38 619.74,-64.53 699.26,-64.68 747.63,-65.81"/>
<polygon fill="#63b8ff" stroke="#63b8ff" points="747.34,-69.3 757.43,-66.06 747.52,-62.3 747.34,-69.3"/>
</a>
</g>
</g>
<!-- Node18&#45;&gt;Node10 -->
<g id="edge26_Node000018_Node000010" class="edge">
<title>Node18&#45;&gt;Node10</title>
<g id="a_edge26_Node000018_Node000010"><a xlink:title=" ">
<path fill="none" stroke="#63b8ff" d="M510.27,-96.24C546.48,-109.69 608.26,-132.63 648.7,-147.64"/>
<polygon fill="#63b8ff" stroke="#63b8ff" points="647.24,-150.83 657.83,-151.03 649.68,-144.27 647.24,-150.83"/>
</a>
</g>
</g>
<!-- Node20 -->
<g id="Node000020" class="node">
<title>Node20</title>
<g id="a_Node000020"><a xlink:href="app_8c.html#a69141c0140f000f9e7b4001ac46fbf92" target="_top" xlink:title=" ">
<polygon fill="white" stroke="#666666" points="723.25,-20.75 655.5,-20.75 655.5,0 723.25,0 723.25,-20.75"/>
<text text-anchor="middle" x="689.38" y="-7.25" font-family="Helvetica,sans-Serif" font-size="10.00">w2c__f446</text>
</a>
</g>
</g>
<!-- Node19&#45;&gt;Node20 -->
<g id="edge30_Node000019_Node000020" class="edge">
<title>Node19&#45;&gt;Node20</title>
<g id="a_edge30_Node000019_Node000020"><a xlink:title=" ">
<path fill="none" stroke="#63b8ff" d="M514.32,-26.32C549.54,-23.1 605.27,-17.99 644.15,-14.43"/>
<polygon fill="#63b8ff" stroke="#63b8ff" points="643.99,-17.96 653.63,-13.56 643.35,-10.99 643.99,-17.96"/>
</a>
</g>
</g>
<!-- Node20&#45;&gt;Node9 -->
<g id="edge31_Node000020_Node000009" class="edge">
<title>Node20&#45;&gt;Node9</title>
<g id="a_edge31_Node000020_Node000009"><a xlink:title=" ">
<path fill="none" stroke="#63b8ff" d="M709.51,-21.1C724.62,-29.56 745.95,-41.51 763.15,-51.15"/>
<polygon fill="#63b8ff" stroke="#63b8ff" points="760.97,-53.93 771.41,-55.77 764.39,-47.83 760.97,-53.93"/>
</a>
</g>
</g>
</g>
</svg>
