<?xml version="1.0" encoding="UTF-8" standalone="no"?>
<!DOCTYPE svg PUBLIC "-//W3C//DTD SVG 1.1//EN"
 "http://www.w3.org/Graphics/SVG/1.1/DTD/svg11.dtd">
<!-- Generated by graphviz version 12.2.1 (0)
 -->
<!-- Title: w2c_0_30 Pages: 1 -->
<svg width="334pt" height="107pt"
 viewBox="0.00 0.00 334.25 106.75" xmlns="http://www.w3.org/2000/svg" xmlns:xlink="http://www.w3.org/1999/xlink">
<g id="graph0" class="graph" transform="scale(1 1) rotate(0) translate(4 102.75)">
<title>w2c_0_30</title>
<!-- Node1 -->
<g id="Node000001" class="node">
<title>Node1</title>
<g id="a_Node000001"><a xlink:title=" ">
<polygon fill="#999999" stroke="#666666" points="326.25,-59.75 262.25,-59.75 262.25,-39 326.25,-39 326.25,-59.75"/>
<text text-anchor="middle" x="294.25" y="-46.25" font-family="Helvetica,sans-Serif" font-size="10.00">w2c_0_30</text>
</a>
</g>
</g>
<!-- Node2 -->
<g id="Node000002" class="node">
<title>Node2</title>
<g id="a_Node000002"><a xlink:href="app_8c.html#a83755b8cd21c3725397c6ca0d8dc1f28" target="_top" xlink:title=" ">
<polygon fill="white" stroke="#666666" points="213.5,-98.75 145.75,-98.75 145.75,-78 213.5,-78 213.5,-98.75"/>
<text text-anchor="middle" x="179.62" y="-85.25" font-family="Helvetica,sans-Serif" font-size="10.00">w2c__f471</text>
</a>
</g>
</g>
<!-- Node1&#45;&gt;Node2 -->
<g id="edge1_Node000001_Node000002" class="edge">
<title>Node1&#45;&gt;Node2</title>
<g id="a_edge1_Node000001_Node000002"><a xlink:title=" ">
<path fill="none" stroke="#63b8ff" d="M251.23,-63.92C238.17,-68.45 224.01,-73.35 211.83,-77.57"/>
<polygon fill="#63b8ff" stroke="#63b8ff" points="252.14,-67.31 260.45,-60.73 249.85,-60.7 252.14,-67.31"/>
</a>
</g>
</g>
<!-- Node4 -->
<g id="Node000004" class="node">
<title>Node4</title>
<g id="a_Node000004"><a xlink:href="app_8c.html#afb0325b318072421121ececc2415a642" target="_top" xlink:title=" ">
<polygon fill="white" stroke="#666666" points="213.5,-59.75 145.75,-59.75 145.75,-39 213.5,-39 213.5,-59.75"/>
<text text-anchor="middle" x="179.62" y="-46.25" font-family="Helvetica,sans-Serif" font-size="10.00">w2c__f511</text>
</a>
</g>
</g>
<!-- Node1&#45;&gt;Node4 -->
<g id="edge3_Node000001_Node000004" class="edge">
<title>Node1&#45;&gt;Node4</title>
<g id="a_edge3_Node000001_Node000004"><a xlink:title=" ">
<path fill="none" stroke="#63b8ff" d="M250.56,-49.38C238.39,-49.38 225.31,-49.38 213.8,-49.38"/>
<polygon fill="#63b8ff" stroke="#63b8ff" points="250.36,-52.88 260.36,-49.38 250.36,-45.88 250.36,-52.88"/>
</a>
</g>
</g>
<!-- Node6 -->
<g id="Node000006" class="node">
<title>Node6</title>
<g id="a_Node000006"><a xlink:href="app_8c.html#af2f2f84a07a1341debc332664c97617c" target="_top" xlink:title=" ">
<polygon fill="white" stroke="#666666" points="226.25,-20.75 133,-20.75 133,0 226.25,0 226.25,-20.75"/>
<text text-anchor="middle" x="179.62" y="-7.25" font-family="Helvetica,sans-Serif" font-size="10.00">wrap_w2c_0_30</text>
</a>
</g>
</g>
<!-- Node1&#45;&gt;Node6 -->
<g id="edge5_Node000001_Node000006" class="edge">
<title>Node1&#45;&gt;Node6</title>
<g id="a_edge5_Node000001_Node000006"><a xlink:title=" ">
<path fill="none" stroke="#63b8ff" d="M251.23,-34.83C238.17,-30.3 224.01,-25.4 211.83,-21.18"/>
<polygon fill="#63b8ff" stroke="#63b8ff" points="249.85,-38.05 260.45,-38.02 252.14,-31.44 249.85,-38.05"/>
</a>
</g>
</g>
<!-- Node3 -->
<g id="Node000003" class="node">
<title>Node3</title>
<g id="a_Node000003"><a xlink:href="app_8c.html#a6b5632f950c10613ca99f4746ff29f36" target="_top" xlink:title=" ">
<polygon fill="white" stroke="#666666" points="97,-98.75 0,-98.75 0,-78 97,-78 97,-98.75"/>
<text text-anchor="middle" x="48.5" y="-85.25" font-family="Helvetica,sans-Serif" font-size="10.00">wrap_w2c__f471</text>
</a>
</g>
</g>
<!-- Node2&#45;&gt;Node3 -->
<g id="edge2_Node000002_Node000003" class="edge">
<title>Node2&#45;&gt;Node3</title>
<g id="a_edge2_Node000002_Node000003"><a xlink:title=" ">
<path fill="none" stroke="#63b8ff" d="M133.92,-88.38C122.08,-88.38 109.24,-88.38 97.24,-88.38"/>
<polygon fill="#63b8ff" stroke="#63b8ff" points="133.86,-91.88 143.86,-88.38 133.86,-84.88 133.86,-91.88"/>
</a>
</g>
</g>
<!-- Node5 -->
<g id="Node000005" class="node">
<title>Node5</title>
<g id="a_Node000005"><a xlink:href="app_8c.html#a073bcf2b718e95dac403ae631eced4c1" target="_top" xlink:title=" ">
<polygon fill="white" stroke="#666666" points="97,-59.75 0,-59.75 0,-39 97,-39 97,-59.75"/>
<text text-anchor="middle" x="48.5" y="-46.25" font-family="Helvetica,sans-Serif" font-size="10.00">wrap_w2c__f511</text>
</a>
</g>
</g>
<!-- Node4&#45;&gt;Node5 -->
<g id="edge4_Node000004_Node000005" class="edge">
<title>Node4&#45;&gt;Node5</title>
<g id="a_edge4_Node000004_Node000005"><a xlink:title=" ">
<path fill="none" stroke="#63b8ff" d="M133.92,-49.38C122.08,-49.38 109.24,-49.38 97.24,-49.38"/>
<polygon fill="#63b8ff" stroke="#63b8ff" points="133.86,-52.88 143.86,-49.38 133.86,-45.88 133.86,-52.88"/>
</a>
</g>
</g>
</g>
</svg>
