<?xml version="1.0" encoding="UTF-8" standalone="no"?>
<!DOCTYPE svg PUBLIC "-//W3C//DTD SVG 1.1//EN"
 "http://www.w3.org/Graphics/SVG/1.1/DTD/svg11.dtd">
<!-- Generated by graphviz version 12.2.1 (0)
 -->
<!-- Title: w2c__f267 Pages: 1 -->
<svg width="493pt" height="105pt"
 viewBox="0.00 0.00 493.00 104.75" xmlns="http://www.w3.org/2000/svg" xmlns:xlink="http://www.w3.org/1999/xlink">
<g id="graph0" class="graph" transform="scale(1 1) rotate(0) translate(4 100.75)">
<title>w2c__f267</title>
<!-- Node1 -->
<g id="Node000001" class="node">
<title>Node1</title>
<g id="a_Node000001"><a xlink:title=" ">
<polygon fill="#999999" stroke="#666666" points="67.75,-58.75 0,-58.75 0,-38 67.75,-38 67.75,-58.75"/>
<text text-anchor="middle" x="33.88" y="-45.25" font-family="Helvetica,sans-Serif" font-size="10.00">w2c__f267</text>
</a>
</g>
</g>
<!-- Node2 -->
<g id="Node000002" class="node">
<title>Node2</title>
<g id="a_Node000002"><a xlink:href="app_8c.html#a7836d11fc7a27305570f2647bd815b60" target="_top" xlink:title=" ">
<polygon fill="white" stroke="#666666" points="171.5,-77.75 103.75,-77.75 103.75,-57 171.5,-57 171.5,-77.75"/>
<text text-anchor="middle" x="137.62" y="-64.25" font-family="Helvetica,sans-Serif" font-size="10.00">w2c__f317</text>
</a>
</g>
</g>
<!-- Node1&#45;&gt;Node2 -->
<g id="edge1_Node000001_Node000002" class="edge">
<title>Node1&#45;&gt;Node2</title>
<g id="a_edge1_Node000001_Node000002"><a xlink:title=" ">
<path fill="none" stroke="#63b8ff" d="M68.19,-54.6C75.91,-56.04 84.25,-57.59 92.36,-59.11"/>
<polygon fill="#63b8ff" stroke="#63b8ff" points="91.62,-62.53 102.09,-60.93 92.91,-55.65 91.62,-62.53"/>
</a>
</g>
</g>
<!-- Node3 -->
<g id="Node000003" class="node">
<title>Node3</title>
<g id="a_Node000003"><a xlink:href="app_8c.html#abd001155947e0836c9fc8b48d31f8cac" target="_top" xlink:title=" ">
<polygon fill="white" stroke="#666666" points="275.25,-58.75 207.5,-58.75 207.5,-38 275.25,-38 275.25,-58.75"/>
<text text-anchor="middle" x="241.38" y="-45.25" font-family="Helvetica,sans-Serif" font-size="10.00">w2c__f482</text>
</a>
</g>
</g>
<!-- Node1&#45;&gt;Node3 -->
<g id="edge8_Node000001_Node000003" class="edge">
<title>Node1&#45;&gt;Node3</title>
<g id="a_edge8_Node000001_Node000003"><a xlink:title=" ">
<path fill="none" stroke="#63b8ff" d="M67.89,-48.38C102.54,-48.38 157.23,-48.38 195.71,-48.38"/>
<polygon fill="#63b8ff" stroke="#63b8ff" points="195.59,-51.88 205.59,-48.38 195.59,-44.88 195.59,-51.88"/>
</a>
</g>
</g>
<!-- Node2&#45;&gt;Node3 -->
<g id="edge2_Node000002_Node000003" class="edge">
<title>Node2&#45;&gt;Node3</title>
<g id="a_edge2_Node000002_Node000003"><a xlink:title=" ">
<path fill="none" stroke="#63b8ff" d="M171.94,-61.15C179.66,-59.71 188,-58.16 196.11,-56.64"/>
<polygon fill="#63b8ff" stroke="#63b8ff" points="196.66,-60.1 205.84,-54.82 195.37,-53.22 196.66,-60.1"/>
</a>
</g>
</g>
<!-- Node4 -->
<g id="Node000004" class="node">
<title>Node4</title>
<g id="a_Node000004"><a xlink:href="app_8c.html#ae910d950b82aa1f4bb1baa5f02e52b37" target="_top" xlink:title=" ">
<polygon fill="white" stroke="#666666" points="379,-96.75 311.25,-96.75 311.25,-76 379,-76 379,-96.75"/>
<text text-anchor="middle" x="345.12" y="-83.25" font-family="Helvetica,sans-Serif" font-size="10.00">w2c__f469</text>
</a>
</g>
</g>
<!-- Node3&#45;&gt;Node4 -->
<g id="edge3_Node000003_Node000004" class="edge">
<title>Node3&#45;&gt;Node4</title>
<g id="a_edge3_Node000003_Node000004"><a xlink:title=" ">
<path fill="none" stroke="#63b8ff" d="M271.26,-59.16C281.57,-63.01 293.38,-67.42 304.44,-71.55"/>
<polygon fill="#63b8ff" stroke="#63b8ff" points="303.16,-74.81 313.75,-75.03 305.61,-68.25 303.16,-74.81"/>
</a>
</g>
</g>
<!-- Node6 -->
<g id="Node000006" class="node">
<title>Node6</title>
<g id="a_Node000006"><a xlink:href="app_8c.html#ab78a9ba6819f5a9d3b53302097151d33" target="_top" xlink:title=" ">
<polygon fill="white" stroke="#666666" points="483.88,-39.75 416.12,-39.75 416.12,-19 483.88,-19 483.88,-39.75"/>
<text text-anchor="middle" x="450" y="-26.25" font-family="Helvetica,sans-Serif" font-size="10.00">w2c__f481</text>
</a>
</g>
</g>
<!-- Node3&#45;&gt;Node6 -->
<g id="edge5_Node000003_Node000006" class="edge">
<title>Node3&#45;&gt;Node6</title>
<g id="a_edge5_Node000003_Node000006"><a xlink:title=" ">
<path fill="none" stroke="#63b8ff" d="M275.57,-45.32C310.52,-42.11 365.72,-37.03 404.44,-33.47"/>
<polygon fill="#63b8ff" stroke="#63b8ff" points="404.74,-36.96 414.38,-32.56 404.1,-29.99 404.74,-36.96"/>
</a>
</g>
</g>
<!-- Node7 -->
<g id="Node000007" class="node">
<title>Node7</title>
<g id="a_Node000007"><a xlink:href="app_8c.html#a710a90b53ca9da85f7059545f9c0c53f" target="_top" xlink:title=" ">
<polygon fill="white" stroke="#666666" points="379,-20.75 311.25,-20.75 311.25,0 379,0 379,-20.75"/>
<text text-anchor="middle" x="345.12" y="-7.25" font-family="Helvetica,sans-Serif" font-size="10.00">w2c__f527</text>
</a>
</g>
</g>
<!-- Node3&#45;&gt;Node7 -->
<g id="edge6_Node000003_Node000007" class="edge">
<title>Node3&#45;&gt;Node7</title>
<g id="a_edge6_Node000003_Node000007"><a xlink:title=" ">
<path fill="none" stroke="#63b8ff" d="M271.26,-37.59C281.57,-33.74 293.38,-29.33 304.44,-25.2"/>
<polygon fill="#63b8ff" stroke="#63b8ff" points="305.61,-28.5 313.75,-21.72 303.16,-21.94 305.61,-28.5"/>
</a>
</g>
</g>
<!-- Node5 -->
<g id="Node000005" class="node">
<title>Node5</title>
<g id="a_Node000005"><a xlink:href="app_8c.html#a0459db85ff19e57f5b71f92f3ebd87db" target="_top" xlink:title=" ">
<polygon fill="white" stroke="#666666" points="485,-96.75 415,-96.75 415,-76 485,-76 485,-96.75"/>
<text text-anchor="middle" x="450" y="-83.25" font-family="Helvetica,sans-Serif" font-size="10.00">w2c_0_115</text>
</a>
</g>
</g>
<!-- Node4&#45;&gt;Node5 -->
<g id="edge4_Node000004_Node000005" class="edge">
<title>Node4&#45;&gt;Node5</title>
<g id="a_edge4_Node000004_Node000005"><a xlink:title=" ">
<path fill="none" stroke="#63b8ff" d="M379.24,-86.38C386.91,-86.38 395.2,-86.38 403.29,-86.38"/>
<polygon fill="#63b8ff" stroke="#63b8ff" points="403.02,-89.88 413.02,-86.38 403.02,-82.88 403.02,-89.88"/>
</a>
</g>
</g>
<!-- Node7&#45;&gt;Node6 -->
<g id="edge7_Node000007_Node000006" class="edge">
<title>Node7&#45;&gt;Node6</title>
<g id="a_edge7_Node000007_Node000006"><a xlink:title=" ">
<path fill="none" stroke="#63b8ff" d="M379.24,-16.49C387.41,-18 396.29,-19.64 404.89,-21.23"/>
<polygon fill="#63b8ff" stroke="#63b8ff" points="403.99,-24.62 414.46,-23 405.26,-17.74 403.99,-24.62"/>
</a>
</g>
</g>
</g>
</svg>
