<?xml version="1.0" encoding="UTF-8" standalone="no"?>
<!DOCTYPE svg PUBLIC "-//W3C//DTD SVG 1.1//EN"
 "http://www.w3.org/Graphics/SVG/1.1/DTD/svg11.dtd">
<!-- Generated by graphviz version 12.2.1 (0)
 -->
<!-- Title: w2c__f372 Pages: 1 -->
<svg width="819pt" height="1017pt"
 viewBox="0.00 0.00 819.25 1016.75" xmlns="http://www.w3.org/2000/svg" xmlns:xlink="http://www.w3.org/1999/xlink">
<g id="graph0" class="graph" transform="scale(1 1) rotate(0) translate(4 1012.75)">
<title>w2c__f372</title>
<!-- Node1 -->
<g id="Node000001" class="node">
<title>Node1</title>
<g id="a_Node000001"><a xlink:title=" ">
<polygon fill="#999999" stroke="#666666" points="67.75,-250.75 0,-250.75 0,-230 67.75,-230 67.75,-250.75"/>
<text text-anchor="middle" x="33.88" y="-237.25" font-family="Helvetica,sans-Serif" font-size="10.00">w2c__f372</text>
</a>
</g>
</g>
<!-- Node2 -->
<g id="Node000002" class="node">
<title>Node2</title>
<g id="a_Node000002"><a xlink:href="app_8c.html#a8170b16890e86fb1c7b7f6b873a1dc48" target="_top" xlink:title=" ">
<polygon fill="white" stroke="#666666" points="275.25,-823.75 207.5,-823.75 207.5,-803 275.25,-803 275.25,-823.75"/>
<text text-anchor="middle" x="241.38" y="-810.25" font-family="Helvetica,sans-Serif" font-size="10.00">w2c__f217</text>
</a>
</g>
</g>
<!-- Node1&#45;&gt;Node2 -->
<g id="edge1_Node000001_Node000002" class="edge">
<title>Node1&#45;&gt;Node2</title>
<g id="a_edge1_Node000001_Node000002"><a xlink:title=" ">
<path fill="none" stroke="#63b8ff" d="M35.46,-250.94C39.54,-323.68 65,-748.68 103.75,-789.38 127.02,-813.81 165.74,-818.69 196.03,-818.1"/>
<polygon fill="#63b8ff" stroke="#63b8ff" points="195.82,-821.61 205.66,-817.7 195.52,-814.62 195.82,-821.61"/>
</a>
</g>
</g>
<!-- Node9 -->
<g id="Node000009" class="node">
<title>Node9</title>
<g id="a_Node000009"><a xlink:href="app_8c.html#af3f13764edac1b452cbff75a1fcff666" target="_top" xlink:title=" ">
<polygon fill="white" stroke="#666666" points="490.25,-899.75 422.5,-899.75 422.5,-879 490.25,-879 490.25,-899.75"/>
<text text-anchor="middle" x="456.38" y="-886.25" font-family="Helvetica,sans-Serif" font-size="10.00">w2c__f510</text>
</a>
</g>
</g>
<!-- Node1&#45;&gt;Node9 -->
<g id="edge65_Node000001_Node000009" class="edge">
<title>Node1&#45;&gt;Node9</title>
<g id="a_edge65_Node000001_Node000009"><a xlink:title=" ">
<path fill="none" stroke="#63b8ff" d="M34.75,-251.22C34.11,-322.43 33.74,-722.97 103.75,-817.38 163.74,-898.26 212.69,-887.71 311.25,-908.38 344.5,-915.35 382.64,-909.73 411.33,-902.84"/>
<polygon fill="#63b8ff" stroke="#63b8ff" points="411.93,-906.3 420.76,-900.43 410.2,-899.52 411.93,-906.3"/>
</a>
</g>
</g>
<!-- Node11 -->
<g id="Node000011" class="node">
<title>Node11</title>
<g id="a_Node000011"><a xlink:href="app_8c.html#a674f6e81761467d0a8dc6d2a425eda9f" target="_top" xlink:title=" ">
<polygon fill="white" stroke="#666666" points="705.25,-709.75 637.5,-709.75 637.5,-689 705.25,-689 705.25,-709.75"/>
<text text-anchor="middle" x="671.38" y="-696.25" font-family="Helvetica,sans-Serif" font-size="10.00">w2c__f498</text>
</a>
</g>
</g>
<!-- Node1&#45;&gt;Node11 -->
<g id="edge63_Node000001_Node000011" class="edge">
<title>Node1&#45;&gt;Node11</title>
<g id="a_edge63_Node000001_Node000011"><a xlink:title=" ">
<path fill="none" stroke="#63b8ff" d="M35.72,-251.18C39.3,-293.09 55.29,-448.42 103.75,-565.38 146.37,-668.24 129.03,-775.38 240.38,-775.38 240.38,-775.38 240.38,-775.38 457.38,-775.38 527.69,-775.38 603.86,-738.18 643.29,-715.84"/>
<polygon fill="#63b8ff" stroke="#63b8ff" points="644.97,-718.91 651.86,-710.86 641.45,-712.85 644.97,-718.91"/>
</a>
</g>
</g>
<!-- Node12 -->
<g id="Node000012" class="node">
<title>Node12</title>
<g id="a_Node000012"><a xlink:href="app_8c.html#aaca5d5bcf49f2ca74019cf097750b9f3" target="_top" xlink:title=" ">
<polygon fill="white" stroke="#666666" points="705.25,-307.75 637.5,-307.75 637.5,-287 705.25,-287 705.25,-307.75"/>
<text text-anchor="middle" x="671.38" y="-294.25" font-family="Helvetica,sans-Serif" font-size="10.00">w2c__f258</text>
</a>
</g>
</g>
<!-- Node1&#45;&gt;Node12 -->
<g id="edge14_Node000001_Node000012" class="edge">
<title>Node1&#45;&gt;Node12</title>
<g id="a_edge14_Node000001_Node000012"><a xlink:title=" ">
<path fill="none" stroke="#63b8ff" d="M67.99,-230.39C108.31,-219.13 178.7,-202.38 240.38,-202.38 240.38,-202.38 240.38,-202.38 457.38,-202.38 532.83,-202.38 611.3,-252.71 648.41,-280.1"/>
<polygon fill="#63b8ff" stroke="#63b8ff" points="646.04,-282.7 656.13,-285.93 650.26,-277.11 646.04,-282.7"/>
</a>
</g>
</g>
<!-- Node15 -->
<g id="Node000015" class="node">
<title>Node15</title>
<g id="a_Node000015"><a xlink:href="app_8c.html#a39e5374effeff0dc142bbb7c393a906a" target="_top" xlink:title=" ">
<polygon fill="white" stroke="#666666" points="171.5,-174.75 103.75,-174.75 103.75,-154 171.5,-154 171.5,-174.75"/>
<text text-anchor="middle" x="137.62" y="-161.25" font-family="Helvetica,sans-Serif" font-size="10.00">w2c__f311</text>
</a>
</g>
</g>
<!-- Node1&#45;&gt;Node15 -->
<g id="edge17_Node000001_Node000015" class="edge">
<title>Node1&#45;&gt;Node15</title>
<g id="a_edge17_Node000001_Node000015"><a xlink:title=" ">
<path fill="none" stroke="#63b8ff" d="M49.07,-229.55C62.96,-218.99 84.74,-202.49 103.75,-188.38 106.61,-186.25 109.61,-184.04 112.6,-181.85"/>
<polygon fill="#63b8ff" stroke="#63b8ff" points="114.63,-184.7 120.64,-175.97 110.5,-179.05 114.63,-184.7"/>
</a>
</g>
</g>
<!-- Node17 -->
<g id="Node000017" class="node">
<title>Node17</title>
<g id="a_Node000017"><a xlink:href="app_8c.html#a2b333bcebefd953fb0562ae6749ef48c" target="_top" xlink:title=" ">
<polygon fill="white" stroke="#666666" points="171.5,-135.75 103.75,-135.75 103.75,-115 171.5,-115 171.5,-135.75"/>
<text text-anchor="middle" x="137.62" y="-122.25" font-family="Helvetica,sans-Serif" font-size="10.00">w2c__f425</text>
</a>
</g>
</g>
<!-- Node1&#45;&gt;Node17 -->
<g id="edge20_Node000001_Node000017" class="edge">
<title>Node1&#45;&gt;Node17</title>
<g id="a_edge20_Node000001_Node000017"><a xlink:title=" ">
<path fill="none" stroke="#63b8ff" d="M40.74,-229.62C51.39,-210.82 75.45,-171.48 103.75,-145.38 104.66,-144.54 105.61,-143.72 106.59,-142.91"/>
<polygon fill="#63b8ff" stroke="#63b8ff" points="108.58,-145.79 114.68,-137.13 104.51,-140.09 108.58,-145.79"/>
</a>
</g>
</g>
<!-- Node19 -->
<g id="Node000019" class="node">
<title>Node19</title>
<g id="a_Node000019"><a xlink:href="app_8c.html#a50ce3678e8b5d9f8d087d7a79773e5ab" target="_top" xlink:title=" ">
<polygon fill="white" stroke="#666666" points="171.5,-538.75 103.75,-538.75 103.75,-518 171.5,-518 171.5,-538.75"/>
<text text-anchor="middle" x="137.62" y="-525.25" font-family="Helvetica,sans-Serif" font-size="10.00">w2c__f444</text>
</a>
</g>
</g>
<!-- Node1&#45;&gt;Node19 -->
<g id="edge22_Node000001_Node000019" class="edge">
<title>Node1&#45;&gt;Node19</title>
<g id="a_edge22_Node000001_Node000019"><a xlink:title=" ">
<path fill="none" stroke="#63b8ff" d="M38.62,-250.97C53.51,-293.13 108.76,-449.52 129.07,-507"/>
<polygon fill="#63b8ff" stroke="#63b8ff" points="125.71,-508 132.34,-516.26 132.31,-505.67 125.71,-508"/>
</a>
</g>
</g>
<!-- Node29 -->
<g id="Node000029" class="node">
<title>Node29</title>
<g id="a_Node000029"><a xlink:href="app_8c.html#a282da58cdb8a8d86b26b785358ce183a" target="_top" xlink:title=" ">
<polygon fill="white" stroke="#666666" points="380.88,-326.75 313.12,-326.75 313.12,-306 380.88,-306 380.88,-326.75"/>
<text text-anchor="middle" x="347" y="-313.25" font-family="Helvetica,sans-Serif" font-size="10.00">w2c__f504</text>
</a>
</g>
</g>
<!-- Node1&#45;&gt;Node29 -->
<g id="edge64_Node000001_Node000029" class="edge">
<title>Node1&#45;&gt;Node29</title>
<g id="a_edge64_Node000001_Node000029"><a xlink:title=" ">
<path fill="none" stroke="#63b8ff" d="M68.17,-248.51C124.54,-262.28 238.79,-290.19 301.8,-305.58"/>
<polygon fill="#63b8ff" stroke="#63b8ff" points="300.93,-308.97 311.47,-307.94 302.59,-302.17 300.93,-308.97"/>
</a>
</g>
</g>
<!-- Node32 -->
<g id="Node000032" class="node">
<title>Node32</title>
<g id="a_Node000032"><a xlink:href="app_8c.html#a13af816d6a1fb2ff4fec669fc33dc3b4" target="_top" xlink:title=" ">
<polygon fill="white" stroke="#666666" points="598.5,-442.75 530.75,-442.75 530.75,-422 598.5,-422 598.5,-442.75"/>
<text text-anchor="middle" x="564.62" y="-429.25" font-family="Helvetica,sans-Serif" font-size="10.00">w2c__f457</text>
</a>
</g>
</g>
<!-- Node1&#45;&gt;Node32 -->
<g id="edge60_Node000001_Node000032" class="edge">
<title>Node1&#45;&gt;Node32</title>
<g id="a_edge60_Node000001_Node000032"><a xlink:title=" ">
<path fill="none" stroke="#63b8ff" d="M68.11,-236.94C151.22,-230.29 370.22,-224.97 494,-336.38 521.78,-361.38 504.85,-384.73 530,-412.38 530.7,-413.14 531.44,-413.89 532.2,-414.62"/>
<polygon fill="#63b8ff" stroke="#63b8ff" points="529.99,-417.33 540.04,-420.69 534.27,-411.8 529.99,-417.33"/>
</a>
</g>
</g>
<!-- Node33 -->
<g id="Node000033" class="node">
<title>Node33</title>
<g id="a_Node000033"><a xlink:href="app_8c.html#ab78a9ba6819f5a9d3b53302097151d33" target="_top" xlink:title=" ">
<polygon fill="white" stroke="#666666" points="275.25,-59.75 207.5,-59.75 207.5,-39 275.25,-39 275.25,-59.75"/>
<text text-anchor="middle" x="241.38" y="-46.25" font-family="Helvetica,sans-Serif" font-size="10.00">w2c__f481</text>
</a>
</g>
</g>
<!-- Node1&#45;&gt;Node33 -->
<g id="edge62_Node000001_Node000033" class="edge">
<title>Node1&#45;&gt;Node33</title>
<g id="a_edge62_Node000001_Node000033"><a xlink:title=" ">
<path fill="none" stroke="#63b8ff" d="M35.56,-229.66C38.15,-198.78 50.18,-109.08 103.75,-67.38 129.47,-47.35 166.51,-43.54 195.53,-44.36"/>
<polygon fill="#63b8ff" stroke="#63b8ff" points="195.35,-47.86 205.51,-44.86 195.7,-40.87 195.35,-47.86"/>
</a>
</g>
</g>
<!-- Node34 -->
<g id="Node000034" class="node">
<title>Node34</title>
<g id="a_Node000034"><a xlink:href="app_8c.html#a8a4084e68b42056da4d5418f72ea03f9" target="_top" xlink:title=" ">
<polygon fill="white" stroke="#666666" points="171.5,-20.75 103.75,-20.75 103.75,0 171.5,0 171.5,-20.75"/>
<text text-anchor="middle" x="137.62" y="-7.25" font-family="Helvetica,sans-Serif" font-size="10.00">w2c__f517</text>
</a>
</g>
</g>
<!-- Node1&#45;&gt;Node34 -->
<g id="edge66_Node000001_Node000034" class="edge">
<title>Node1&#45;&gt;Node34</title>
<g id="a_edge66_Node000001_Node000034"><a xlink:title=" ">
<path fill="none" stroke="#63b8ff" d="M36.1,-229.93C40.29,-197.83 56.56,-98.91 103.75,-34.38 105.39,-32.13 107.31,-30.01 109.37,-28.02"/>
<polygon fill="#63b8ff" stroke="#63b8ff" points="111.14,-31.1 116.65,-22.05 106.7,-25.69 111.14,-31.1"/>
</a>
</g>
</g>
<!-- Node35 -->
<g id="Node000035" class="node">
<title>Node35</title>
<g id="a_Node000035"><a xlink:href="app_8c.html#a810758002d7a995dc5d8a77dfce2a246" target="_top" xlink:title=" ">
<polygon fill="white" stroke="#666666" points="171.5,-96.75 103.75,-96.75 103.75,-76 171.5,-76 171.5,-96.75"/>
<text text-anchor="middle" x="137.62" y="-83.25" font-family="Helvetica,sans-Serif" font-size="10.00">w2c__f540</text>
</a>
</g>
</g>
<!-- Node1&#45;&gt;Node35 -->
<g id="edge67_Node000001_Node000035" class="edge">
<title>Node1&#45;&gt;Node35</title>
<g id="a_edge67_Node000001_Node000035"><a xlink:title=" ">
<path fill="none" stroke="#63b8ff" d="M38.09,-229.81C45.9,-205.52 67.93,-144.86 103.75,-106.38 104.57,-105.49 105.44,-104.64 106.34,-103.81"/>
<polygon fill="#63b8ff" stroke="#63b8ff" points="108.15,-106.83 113.96,-97.98 103.89,-101.27 108.15,-106.83"/>
</a>
</g>
</g>
<!-- Node36 -->
<g id="Node000036" class="node">
<title>Node36</title>
<g id="a_Node000036"><a xlink:href="app_8c.html#a22805979cc49b429d0fb4b7435774648" target="_top" xlink:title=" ">
<polygon fill="white" stroke="#666666" points="599.25,-1008.75 530,-1008.75 530,-988 599.25,-988 599.25,-1008.75"/>
<text text-anchor="middle" x="564.62" y="-995.25" font-family="Helvetica,sans-Serif" font-size="10.00">wasm_sqrt</text>
</a>
</g>
</g>
<!-- Node1&#45;&gt;Node36 -->
<g id="edge69_Node000001_Node000036" class="edge">
<title>Node1&#45;&gt;Node36</title>
<g id="a_edge69_Node000001_Node000036"><a xlink:title=" ">
<path fill="none" stroke="#63b8ff" d="M35.12,-250.8C36.95,-322.77 49.89,-746.46 103.75,-861.38 140.92,-940.68 152.8,-1003.38 240.38,-1003.38 240.38,-1003.38 240.38,-1003.38 348,-1003.38 406.82,-1003.38 474.65,-1001.49 518.28,-1000.04"/>
<polygon fill="#63b8ff" stroke="#63b8ff" points="518.26,-1003.54 528.13,-999.7 518.02,-996.54 518.26,-1003.54"/>
</a>
</g>
</g>
<!-- Node3 -->
<g id="Node000003" class="node">
<title>Node3</title>
<g id="a_Node000003"><a xlink:href="app_8c.html#ab9e08dfe15e606a6bf6c18d3fd4ac400" target="_top" xlink:title=" ">
<polygon fill="white" stroke="#666666" points="490.25,-671.75 422.5,-671.75 422.5,-651 490.25,-651 490.25,-671.75"/>
<text text-anchor="middle" x="456.38" y="-658.25" font-family="Helvetica,sans-Serif" font-size="10.00">w2c__f261</text>
</a>
</g>
</g>
<!-- Node2&#45;&gt;Node3 -->
<g id="edge2_Node000002_Node000003" class="edge">
<title>Node2&#45;&gt;Node3</title>
<g id="a_edge2_Node000002_Node000003"><a xlink:title=" ">
<path fill="none" stroke="#63b8ff" d="M257.35,-802.69C293.71,-776.74 386.9,-710.24 431.24,-678.6"/>
<polygon fill="#63b8ff" stroke="#63b8ff" points="433.07,-681.59 439.18,-672.93 429.01,-675.89 433.07,-681.59"/>
</a>
</g>
</g>
<!-- Node8 -->
<g id="Node000008" class="node">
<title>Node8</title>
<g id="a_Node000008"><a xlink:href="app_8c.html#a2ce79fade48644997d23741bbc114e47" target="_top" xlink:title=" ">
<polygon fill="white" stroke="#666666" points="380.88,-899.75 313.12,-899.75 313.12,-879 380.88,-879 380.88,-899.75"/>
<text text-anchor="middle" x="347" y="-886.25" font-family="Helvetica,sans-Serif" font-size="10.00">w2c__f373</text>
</a>
</g>
</g>
<!-- Node2&#45;&gt;Node8 -->
<g id="edge7_Node000002_Node000008" class="edge">
<title>Node2&#45;&gt;Node8</title>
<g id="a_edge7_Node000002_Node000008"><a xlink:title=" ">
<path fill="none" stroke="#63b8ff" d="M256.23,-824.11C270.05,-834.74 291.94,-851.43 311.25,-865.38 314.28,-867.56 317.48,-869.83 320.67,-872.07"/>
<polygon fill="#63b8ff" stroke="#63b8ff" points="318.53,-874.84 328.74,-877.66 322.52,-869.09 318.53,-874.84"/>
</a>
</g>
</g>
<!-- Node2&#45;&gt;Node9 -->
<g id="edge12_Node000002_Node000009" class="edge">
<title>Node2&#45;&gt;Node9</title>
<g id="a_edge12_Node000002_Node000009"><a xlink:title=" ">
<path fill="none" stroke="#63b8ff" d="M272.44,-824.1C309.52,-837.33 372.73,-859.89 414.27,-874.71"/>
<polygon fill="#63b8ff" stroke="#63b8ff" points="413.1,-878.01 423.69,-878.07 415.45,-871.41 413.1,-878.01"/>
</a>
</g>
</g>
<!-- Node10 -->
<g id="Node000010" class="node">
<title>Node10</title>
<g id="a_Node000010"><a xlink:href="app_8c.html#a43517182877370811f9852884f2e3844" target="_top" xlink:title=" ">
<polygon fill="white" stroke="#666666" points="494,-956.75 418.75,-956.75 418.75,-936 494,-936 494,-956.75"/>
<text text-anchor="middle" x="456.38" y="-943.25" font-family="Helvetica,sans-Serif" font-size="10.00">wasm_trunc</text>
</a>
</g>
</g>
<!-- Node2&#45;&gt;Node10 -->
<g id="edge13_Node000002_Node000010" class="edge">
<title>Node2&#45;&gt;Node10</title>
<g id="a_edge13_Node000002_Node000010"><a xlink:title=" ">
<path fill="none" stroke="#63b8ff" d="M247.09,-824.07C256.37,-843.88 278.98,-886.27 311.25,-908.38 339.61,-927.81 377.36,-937.3 407.1,-941.94"/>
<polygon fill="#63b8ff" stroke="#63b8ff" points="406.6,-945.41 416.99,-943.34 407.57,-938.48 406.6,-945.41"/>
</a>
</g>
</g>
<!-- Node2&#45;&gt;Node11 -->
<g id="edge11_Node000002_Node000011" class="edge">
<title>Node2&#45;&gt;Node11</title>
<g id="a_edge11_Node000002_Node000011"><a xlink:title=" ">
<path fill="none" stroke="#63b8ff" d="M275.51,-819.59C341.51,-830.22 492.24,-845.71 599.25,-789.38 628.06,-774.21 649.08,-741.7 660.51,-720.19"/>
<polygon fill="#63b8ff" stroke="#63b8ff" points="663.54,-721.95 664.92,-711.45 657.3,-718.8 663.54,-721.95"/>
</a>
</g>
</g>
<!-- Node4 -->
<g id="Node000004" class="node">
<title>Node4</title>
<g id="a_Node000004"><a xlink:href="app_8c.html#ab54a3ba3ae88da3c90f2367e2cd95454" target="_top" xlink:title=" ">
<polygon fill="white" stroke="#666666" points="598.5,-613.75 530.75,-613.75 530.75,-593 598.5,-593 598.5,-613.75"/>
<text text-anchor="middle" x="564.62" y="-600.25" font-family="Helvetica,sans-Serif" font-size="10.00">w2c__f433</text>
</a>
</g>
</g>
<!-- Node3&#45;&gt;Node4 -->
<g id="edge3_Node000003_Node000004" class="edge">
<title>Node3&#45;&gt;Node4</title>
<g id="a_edge3_Node000003_Node000004"><a xlink:title=" ">
<path fill="none" stroke="#63b8ff" d="M476.86,-650.74C492.86,-642 515.78,-629.49 534.04,-619.52"/>
<polygon fill="#63b8ff" stroke="#63b8ff" points="535.47,-622.73 542.57,-614.87 532.12,-616.59 535.47,-622.73"/>
</a>
</g>
</g>
<!-- Node5 -->
<g id="Node000005" class="node">
<title>Node5</title>
<g id="a_Node000005"><a xlink:href="app_8c.html#a672569c91ebb1d5055d737b56ec296a7" target="_top" xlink:title=" ">
<polygon fill="white" stroke="#666666" points="705.25,-652.75 637.5,-652.75 637.5,-632 705.25,-632 705.25,-652.75"/>
<text text-anchor="middle" x="671.38" y="-639.25" font-family="Helvetica,sans-Serif" font-size="10.00">w2c__f585</text>
</a>
</g>
</g>
<!-- Node4&#45;&gt;Node5 -->
<g id="edge4_Node000004_Node000005" class="edge">
<title>Node4&#45;&gt;Node5</title>
<g id="a_edge4_Node000004_Node000005"><a xlink:title=" ">
<path fill="none" stroke="#63b8ff" d="M594.8,-614.24C605.93,-618.38 618.8,-623.17 630.73,-627.62"/>
<polygon fill="#63b8ff" stroke="#63b8ff" points="629.34,-630.83 639.93,-631.04 631.78,-624.27 629.34,-630.83"/>
</a>
</g>
</g>
<!-- Node6 -->
<g id="Node000006" class="node">
<title>Node6</title>
<g id="a_Node000006"><a xlink:href="app_8c.html#aca677a5348fb06a52413801823fa5291" target="_top" xlink:title=" ">
<polygon fill="white" stroke="#666666" points="707.5,-613.75 635.25,-613.75 635.25,-593 707.5,-593 707.5,-613.75"/>
<text text-anchor="middle" x="671.38" y="-600.25" font-family="Helvetica,sans-Serif" font-size="10.00">wasm_floor</text>
</a>
</g>
</g>
<!-- Node4&#45;&gt;Node6 -->
<g id="edge5_Node000004_Node000006" class="edge">
<title>Node4&#45;&gt;Node6</title>
<g id="a_edge5_Node000004_Node000006"><a xlink:title=" ">
<path fill="none" stroke="#63b8ff" d="M598.77,-603.38C606.68,-603.38 615.27,-603.38 623.67,-603.38"/>
<polygon fill="#63b8ff" stroke="#63b8ff" points="623.4,-606.88 633.4,-603.38 623.4,-599.88 623.4,-606.88"/>
</a>
</g>
</g>
<!-- Node7 -->
<g id="Node000007" class="node">
<title>Node7</title>
<g id="a_Node000007"><a xlink:href="app_8c.html#ae10979e670e507d4373e8cadcb3169aa" target="_top" xlink:title=" ">
<polygon fill="white" stroke="#666666" points="809.38,-956.75 745.38,-956.75 745.38,-936 809.38,-936 809.38,-956.75"/>
<text text-anchor="middle" x="777.38" y="-943.25" font-family="Helvetica,sans-Serif" font-size="10.00">quiet_nan</text>
</a>
</g>
</g>
<!-- Node6&#45;&gt;Node7 -->
<g id="edge6_Node000006_Node000007" class="edge">
<title>Node6&#45;&gt;Node7</title>
<g id="a_edge6_Node000006_Node000007"><a xlink:title=" ">
<path fill="none" stroke="#63b8ff" d="M697.54,-614.13C701.33,-616.69 704.85,-619.75 707.5,-623.38 743.21,-672.18 766.83,-859.85 774.04,-924.41"/>
<polygon fill="#63b8ff" stroke="#63b8ff" points="770.54,-924.54 775.1,-934.1 777.49,-923.78 770.54,-924.54"/>
</a>
</g>
</g>
<!-- Node8&#45;&gt;Node9 -->
<g id="edge8_Node000008_Node000009" class="edge">
<title>Node8&#45;&gt;Node9</title>
<g id="a_edge8_Node000008_Node000009"><a xlink:title=" ">
<path fill="none" stroke="#63b8ff" d="M381.09,-889.38C390.48,-889.38 400.86,-889.38 410.81,-889.38"/>
<polygon fill="#63b8ff" stroke="#63b8ff" points="410.69,-892.88 420.69,-889.38 410.69,-885.88 410.69,-892.88"/>
</a>
</g>
</g>
<!-- Node8&#45;&gt;Node10 -->
<g id="edge9_Node000008_Node000010" class="edge">
<title>Node8&#45;&gt;Node10</title>
<g id="a_edge9_Node000008_Node000010"><a xlink:title=" ">
<path fill="none" stroke="#63b8ff" d="M368.45,-900.23C384.42,-908.71 406.86,-920.62 424.94,-930.22"/>
<polygon fill="#63b8ff" stroke="#63b8ff" points="423.19,-933.25 433.67,-934.85 426.47,-927.07 423.19,-933.25"/>
</a>
</g>
</g>
<!-- Node10&#45;&gt;Node7 -->
<g id="edge10_Node000010_Node000007" class="edge">
<title>Node10&#45;&gt;Node7</title>
<g id="a_edge10_Node000010_Node000007"><a xlink:title=" ">
<path fill="none" stroke="#63b8ff" d="M494.28,-946.38C553.75,-946.38 670.49,-946.38 733.54,-946.38"/>
<polygon fill="#63b8ff" stroke="#63b8ff" points="733.52,-949.88 743.52,-946.38 733.52,-942.88 733.52,-949.88"/>
</a>
</g>
</g>
<!-- Node13 -->
<g id="Node000013" class="node">
<title>Node13</title>
<g id="a_Node000013"><a xlink:href="app_8c.html#a8d9f347f9a643f0ebfb53c4f54578ac4" target="_top" xlink:title=" ">
<polygon fill="white" stroke="#666666" points="811.25,-384.75 743.5,-384.75 743.5,-364 811.25,-364 811.25,-384.75"/>
<text text-anchor="middle" x="777.38" y="-371.25" font-family="Helvetica,sans-Serif" font-size="10.00">w2c__f304</text>
</a>
</g>
</g>
<!-- Node12&#45;&gt;Node13 -->
<g id="edge15_Node000012_Node000013" class="edge">
<title>Node12&#45;&gt;Node13</title>
<g id="a_edge15_Node000012_Node000013"><a xlink:title=" ">
<path fill="none" stroke="#63b8ff" d="M686.84,-308.08C703.82,-320.65 732.23,-341.69 752.49,-356.69"/>
<polygon fill="#63b8ff" stroke="#63b8ff" points="750.37,-359.47 760.49,-362.61 754.53,-353.85 750.37,-359.47"/>
</a>
</g>
</g>
<!-- Node14 -->
<g id="Node000014" class="node">
<title>Node14</title>
<g id="a_Node000014"><a xlink:href="app_8c.html#a881f0b113e93dce3ff52d04b435850f6" target="_top" xlink:title=" ">
<polygon fill="white" stroke="#666666" points="811.25,-307.75 743.5,-307.75 743.5,-287 811.25,-287 811.25,-307.75"/>
<text text-anchor="middle" x="777.38" y="-294.25" font-family="Helvetica,sans-Serif" font-size="10.00">w2c__f491</text>
</a>
</g>
</g>
<!-- Node12&#45;&gt;Node14 -->
<g id="edge16_Node000012_Node000014" class="edge">
<title>Node12&#45;&gt;Node14</title>
<g id="a_edge16_Node000012_Node000014"><a xlink:title=" ">
<path fill="none" stroke="#63b8ff" d="M705.57,-297.38C713.92,-297.38 723.01,-297.38 731.82,-297.38"/>
<polygon fill="#63b8ff" stroke="#63b8ff" points="731.63,-300.88 741.63,-297.38 731.63,-293.88 731.63,-300.88"/>
</a>
</g>
</g>
<!-- Node15&#45;&gt;Node12 -->
<g id="edge18_Node000015_Node000012" class="edge">
<title>Node15&#45;&gt;Node12</title>
<g id="a_edge18_Node000015_Node000012"><a xlink:title=" ">
<path fill="none" stroke="#63b8ff" d="M171.69,-154.49C212.33,-143.23 283.59,-126.38 346,-126.38 346,-126.38 346,-126.38 457.38,-126.38 526.19,-126.38 546.72,-143.92 599.25,-188.38 628.29,-212.95 649.89,-252.34 661.28,-276.43"/>
<polygon fill="#63b8ff" stroke="#63b8ff" points="657.96,-277.58 665.29,-285.23 664.33,-274.68 657.96,-277.58"/>
</a>
</g>
</g>
<!-- Node16 -->
<g id="Node000016" class="node">
<title>Node16</title>
<g id="a_Node000016"><a xlink:href="app_8c.html#aeda0fdcf4b3bed63365b3a77c2197b09" target="_top" xlink:title=" ">
<polygon fill="white" stroke="#666666" points="275.25,-174.75 207.5,-174.75 207.5,-154 275.25,-154 275.25,-174.75"/>
<text text-anchor="middle" x="241.38" y="-161.25" font-family="Helvetica,sans-Serif" font-size="10.00">w2c__f538</text>
</a>
</g>
</g>
<!-- Node15&#45;&gt;Node16 -->
<g id="edge19_Node000015_Node000016" class="edge">
<title>Node15&#45;&gt;Node16</title>
<g id="a_edge19_Node000015_Node000016"><a xlink:title=" ">
<path fill="none" stroke="#63b8ff" d="M171.94,-164.38C179.57,-164.38 187.81,-164.38 195.83,-164.38"/>
<polygon fill="#63b8ff" stroke="#63b8ff" points="195.82,-167.88 205.82,-164.38 195.82,-160.88 195.82,-167.88"/>
</a>
</g>
</g>
<!-- Node18 -->
<g id="Node000018" class="node">
<title>Node18</title>
<g id="a_Node000018"><a xlink:href="app_8c.html#a7cfca5114c1730c316a459368630df66" target="_top" xlink:title=" ">
<polygon fill="white" stroke="#666666" points="275.25,-98.75 207.5,-98.75 207.5,-78 275.25,-78 275.25,-98.75"/>
<text text-anchor="middle" x="241.38" y="-85.25" font-family="Helvetica,sans-Serif" font-size="10.00">w2c__f250</text>
</a>
</g>
</g>
<!-- Node17&#45;&gt;Node18 -->
<g id="edge21_Node000017_Node000018" class="edge">
<title>Node17&#45;&gt;Node18</title>
<g id="a_edge21_Node000017_Node000018"><a xlink:title=" ">
<path fill="none" stroke="#63b8ff" d="M168.33,-114.57C178.25,-110.96 189.49,-106.88 200.08,-103.03"/>
<polygon fill="#63b8ff" stroke="#63b8ff" points="201.19,-106.35 209.39,-99.64 198.79,-99.77 201.19,-106.35"/>
</a>
</g>
</g>
<!-- Node19&#45;&gt;Node2 -->
<g id="edge25_Node000019_Node000002" class="edge">
<title>Node19&#45;&gt;Node2</title>
<g id="a_edge25_Node000019_Node000002"><a xlink:title=" ">
<path fill="none" stroke="#63b8ff" d="M142.49,-539.2C157.54,-581.35 212.38,-734.96 232.72,-791.93"/>
<polygon fill="#63b8ff" stroke="#63b8ff" points="229.34,-792.87 236,-801.11 235.93,-790.52 229.34,-792.87"/>
</a>
</g>
</g>
<!-- Node19&#45;&gt;Node3 -->
<g id="edge27_Node000019_Node000003" class="edge">
<title>Node19&#45;&gt;Node3</title>
<g id="a_edge27_Node000019_Node000003"><a xlink:title=" ">
<path fill="none" stroke="#63b8ff" d="M141.52,-539.22C148.43,-562.75 168.32,-618.25 207.5,-642.38 269.86,-680.77 358.44,-676.62 411.09,-669.45"/>
<polygon fill="#63b8ff" stroke="#63b8ff" points="411.51,-672.93 420.9,-668.01 410.5,-666 411.51,-672.93"/>
</a>
</g>
</g>
<!-- Node19&#45;&gt;Node11 -->
<g id="edge55_Node000019_Node000011" class="edge">
<title>Node19&#45;&gt;Node11</title>
<g id="a_edge55_Node000019_Node000011"><a xlink:title=" ">
<path fill="none" stroke="#63b8ff" d="M140.58,-539.22C145.99,-565.91 163.76,-635.09 207.5,-669.38 257.07,-708.23 283.02,-699.38 346,-699.38 346,-699.38 346,-699.38 457.38,-699.38 515.51,-699.38 582.58,-699.38 625.68,-699.38"/>
<polygon fill="#63b8ff" stroke="#63b8ff" points="625.66,-702.88 635.66,-699.38 625.66,-695.88 625.66,-702.88"/>
</a>
</g>
</g>
<!-- Node19&#45;&gt;Node12 -->
<g id="edge26_Node000019_Node000012" class="edge">
<title>Node19&#45;&gt;Node12</title>
<g id="a_edge26_Node000019_Node000012"><a xlink:title=" ">
<path fill="none" stroke="#63b8ff" d="M139.68,-517.6C143.29,-486.41 157.78,-394.88 207.5,-342.38 317.14,-226.58 533.13,-262.68 626.1,-285.22"/>
<polygon fill="#63b8ff" stroke="#63b8ff" points="625.06,-288.56 635.61,-287.59 626.75,-281.77 625.06,-288.56"/>
</a>
</g>
</g>
<!-- Node19&#45;&gt;Node19 -->
<g id="edge54_Node000019_Node000019" class="edge">
<title>Node19&#45;&gt;Node19</title>
<g id="a_edge54_Node000019_Node000019"><a xlink:title=" ">
<path fill="none" stroke="#63b8ff" d="M120.91,-539.15C114.22,-547.81 119.79,-556.75 137.62,-556.75 147.1,-556.75 153.11,-554.23 155.66,-550.56"/>
<polygon fill="#63b8ff" stroke="#63b8ff" points="159.14,-550.18 154.52,-540.65 152.19,-550.99 159.14,-550.18"/>
</a>
</g>
</g>
<!-- Node20 -->
<g id="Node000020" class="node">
<title>Node20</title>
<g id="a_Node000020"><a xlink:href="app_8c.html#a0378208e0d5c0d1d6e7370f1c578fab3" target="_top" xlink:title=" ">
<polygon fill="white" stroke="#666666" points="705.25,-461.75 637.5,-461.75 637.5,-441 705.25,-441 705.25,-461.75"/>
<text text-anchor="middle" x="671.38" y="-448.25" font-family="Helvetica,sans-Serif" font-size="10.00">w2c__f216</text>
</a>
</g>
</g>
<!-- Node19&#45;&gt;Node20 -->
<g id="edge23_Node000019_Node000020" class="edge">
<title>Node19&#45;&gt;Node20</title>
<g id="a_edge23_Node000019_Node000020"><a xlink:title=" ">
<path fill="none" stroke="#63b8ff" d="M171.7,-537.65C206.21,-546.8 262.03,-560.16 311.25,-565.38 441.27,-579.15 482.08,-563.4 599.25,-505.38 618.21,-495.98 637.18,-481.25 650.75,-469.55"/>
<polygon fill="#63b8ff" stroke="#63b8ff" points="652.93,-472.29 658.08,-463.04 648.28,-467.06 652.93,-472.29"/>
</a>
</g>
</g>
<!-- Node21 -->
<g id="Node000021" class="node">
<title>Node21</title>
<g id="a_Node000021"><a xlink:href="app_8c.html#ae71f0c203d672594503da106c578e2c1" target="_top" xlink:title=" ">
<polygon fill="white" stroke="#666666" points="275.25,-474.75 207.5,-474.75 207.5,-454 275.25,-454 275.25,-474.75"/>
<text text-anchor="middle" x="241.38" y="-461.25" font-family="Helvetica,sans-Serif" font-size="10.00">w2c__f313</text>
</a>
</g>
</g>
<!-- Node19&#45;&gt;Node21 -->
<g id="edge28_Node000019_Node000021" class="edge">
<title>Node19&#45;&gt;Node21</title>
<g id="a_edge28_Node000019_Node000021"><a xlink:title=" ">
<path fill="none" stroke="#63b8ff" d="M155.89,-517.52C171.77,-507.53 195.56,-492.56 213.86,-481.05"/>
<polygon fill="#63b8ff" stroke="#63b8ff" points="215.49,-484.16 222.09,-475.88 211.76,-478.24 215.49,-484.16"/>
</a>
</g>
</g>
<!-- Node23 -->
<g id="Node000023" class="node">
<title>Node23</title>
<g id="a_Node000023"><a xlink:href="app_8c.html#a761558dedd027f6a978b278ebb1aaec6" target="_top" xlink:title=" ">
<polygon fill="white" stroke="#666666" points="490.25,-632.75 422.5,-632.75 422.5,-612 490.25,-612 490.25,-632.75"/>
<text text-anchor="middle" x="456.38" y="-619.25" font-family="Helvetica,sans-Serif" font-size="10.00">w2c__f530</text>
</a>
</g>
</g>
<!-- Node19&#45;&gt;Node23 -->
<g id="edge58_Node000019_Node000023" class="edge">
<title>Node19&#45;&gt;Node23</title>
<g id="a_edge58_Node000019_Node000023"><a xlink:title=" ">
<path fill="none" stroke="#63b8ff" d="M159.77,-539.21C173.27,-545.95 191.22,-554.59 207.5,-561.38 252.69,-580.2 263.86,-586.08 311.25,-598.38 344.16,-606.91 382.12,-613.09 410.81,-617.04"/>
<polygon fill="#63b8ff" stroke="#63b8ff" points="410.24,-620.49 420.61,-618.34 411.16,-613.55 410.24,-620.49"/>
</a>
</g>
</g>
<!-- Node24 -->
<g id="Node000024" class="node">
<title>Node24</title>
<g id="a_Node000024"><a xlink:href="app_8c.html#a21ef0a2981d5eabea48cff0e94f50365" target="_top" xlink:title=" ">
<polygon fill="white" stroke="#666666" points="380.88,-365.75 313.12,-365.75 313.12,-345 380.88,-345 380.88,-365.75"/>
<text text-anchor="middle" x="347" y="-352.25" font-family="Helvetica,sans-Serif" font-size="10.00">w2c__f381</text>
</a>
</g>
</g>
<!-- Node19&#45;&gt;Node24 -->
<g id="edge53_Node000019_Node000024" class="edge">
<title>Node19&#45;&gt;Node24</title>
<g id="a_edge53_Node000019_Node000024"><a xlink:title=" ">
<path fill="none" stroke="#63b8ff" d="M145.99,-517.53C157.71,-500.78 181.9,-468.15 207.5,-445.38 241.27,-415.32 285.97,-388.16 315.33,-371.71"/>
<polygon fill="#63b8ff" stroke="#63b8ff" points="317.01,-374.78 324.08,-366.89 313.63,-368.65 317.01,-374.78"/>
</a>
</g>
</g>
<!-- Node19&#45;&gt;Node29 -->
<g id="edge56_Node000019_Node000029" class="edge">
<title>Node19&#45;&gt;Node29</title>
<g id="a_edge56_Node000019_Node000029"><a xlink:title=" ">
<path fill="none" stroke="#63b8ff" d="M141.71,-517.63C149.26,-492.95 170.78,-431.43 207.5,-393.38 234.89,-364.99 275.05,-344.24 305.08,-331.49"/>
<polygon fill="#63b8ff" stroke="#63b8ff" points="306.32,-334.76 314.24,-327.72 303.66,-328.28 306.32,-334.76"/>
</a>
</g>
</g>
<!-- Node30 -->
<g id="Node000030" class="node">
<title>Node30</title>
<g id="a_Node000030"><a xlink:href="app_8c.html#ad63b6498cfe22ce747f349eeb23b508f" target="_top" xlink:title=" ">
<polygon fill="white" stroke="#666666" points="382.75,-556.75 311.25,-556.75 311.25,-536 382.75,-536 382.75,-556.75"/>
<text text-anchor="middle" x="347" y="-543.25" font-family="Helvetica,sans-Serif" font-size="10.00">wasm_fabs</text>
</a>
</g>
</g>
<!-- Node19&#45;&gt;Node30 -->
<g id="edge59_Node000019_Node000030" class="edge">
<title>Node19&#45;&gt;Node30</title>
<g id="a_edge59_Node000019_Node000030"><a xlink:title=" ">
<path fill="none" stroke="#63b8ff" d="M171.85,-528.25C199.58,-528.46 240.09,-529.52 275.25,-533.38 283.18,-534.24 291.56,-535.49 299.67,-536.87"/>
<polygon fill="#63b8ff" stroke="#63b8ff" points="298.93,-540.29 309.39,-538.61 300.17,-533.4 298.93,-540.29"/>
</a>
</g>
</g>
<!-- Node31 -->
<g id="Node000031" class="node">
<title>Node31</title>
<g id="a_Node000031"><a xlink:href="app_8c.html#ab2f4346935c63f38e7e455b62dca3074" target="_top" xlink:title=" ">
<polygon fill="white" stroke="#666666" points="275.25,-633.75 207.5,-633.75 207.5,-613 275.25,-613 275.25,-633.75"/>
<text text-anchor="middle" x="241.38" y="-620.25" font-family="Helvetica,sans-Serif" font-size="10.00">w2c__f507</text>
</a>
</g>
</g>
<!-- Node19&#45;&gt;Node31 -->
<g id="edge57_Node000019_Node000031" class="edge">
<title>Node19&#45;&gt;Node31</title>
<g id="a_edge57_Node000019_Node000031"><a xlink:title=" ">
<path fill="none" stroke="#63b8ff" d="M147.92,-539.03C160.69,-553.42 184.69,-579.55 207.5,-599.38 210,-601.55 212.69,-603.73 215.41,-605.84"/>
<polygon fill="#63b8ff" stroke="#63b8ff" points="213.25,-608.6 223.36,-611.76 217.42,-602.98 213.25,-608.6"/>
</a>
</g>
</g>
<!-- Node20&#45;&gt;Node13 -->
<g id="edge24_Node000020_Node000013" class="edge">
<title>Node20&#45;&gt;Node13</title>
<g id="a_edge24_Node000020_Node000013"><a xlink:title=" ">
<path fill="none" stroke="#63b8ff" d="M686.84,-440.67C703.82,-428.1 732.23,-407.06 752.49,-392.06"/>
<polygon fill="#63b8ff" stroke="#63b8ff" points="754.53,-394.9 760.49,-386.14 750.37,-389.28 754.53,-394.9"/>
</a>
</g>
</g>
<!-- Node21&#45;&gt;Node11 -->
<g id="edge49_Node000021_Node000011" class="edge">
<title>Node21&#45;&gt;Node11</title>
<g id="a_edge49_Node000021_Node000011"><a xlink:title=" ">
<path fill="none" stroke="#63b8ff" d="M275.75,-464.85C305.25,-466.46 348.75,-471.79 382.75,-488.38 462.28,-527.17 457.98,-570.96 530,-622.38 564.35,-646.9 607.34,-669.42 636.64,-683.69"/>
<polygon fill="#63b8ff" stroke="#63b8ff" points="634.87,-686.73 645.4,-687.9 637.91,-680.42 634.87,-686.73"/>
</a>
</g>
</g>
<!-- Node21&#45;&gt;Node12 -->
<g id="edge30_Node000021_Node000012" class="edge">
<title>Node21&#45;&gt;Node12</title>
<g id="a_edge30_Node000021_Node000012"><a xlink:title=" ">
<path fill="none" stroke="#63b8ff" d="M262.47,-453.55C290.69,-437.91 343.05,-407.23 382.75,-374.38 400.67,-359.54 398.87,-348.46 418.75,-336.38 462.71,-309.65 479.25,-312.82 530,-304.38 561.8,-299.08 598.17,-297.39 625.92,-296.99"/>
<polygon fill="#63b8ff" stroke="#63b8ff" points="625.76,-300.49 635.73,-296.9 625.7,-293.49 625.76,-300.49"/>
</a>
</g>
</g>
<!-- Node21&#45;&gt;Node20 -->
<g id="edge29_Node000021_Node000020" class="edge">
<title>Node21&#45;&gt;Node20</title>
<g id="a_edge29_Node000021_Node000020"><a xlink:title=" ">
<path fill="none" stroke="#63b8ff" d="M275.58,-459.23C286.87,-457.69 299.58,-456.2 311.25,-455.38 341.76,-453.22 536.43,-452.02 625.72,-451.58"/>
<polygon fill="#63b8ff" stroke="#63b8ff" points="625.59,-455.08 635.58,-451.53 625.56,-448.08 625.59,-455.08"/>
</a>
</g>
</g>
<!-- Node22 -->
<g id="Node000022" class="node">
<title>Node22</title>
<g id="a_Node000022"><a xlink:href="app_8c.html#af9ed1dc0404f752fd735c5388877dbd0" target="_top" xlink:title=" ">
<polygon fill="white" stroke="#666666" points="380.88,-517.75 313.12,-517.75 313.12,-497 380.88,-497 380.88,-517.75"/>
<text text-anchor="middle" x="347" y="-504.25" font-family="Helvetica,sans-Serif" font-size="10.00">w2c__f378</text>
</a>
</g>
</g>
<!-- Node21&#45;&gt;Node22 -->
<g id="edge31_Node000021_Node000022" class="edge">
<title>Node21&#45;&gt;Node22</title>
<g id="a_edge31_Node000021_Node000022"><a xlink:title=" ">
<path fill="none" stroke="#63b8ff" d="M268.52,-475.23C280.92,-480.37 295.94,-486.6 309.44,-492.2"/>
<polygon fill="#63b8ff" stroke="#63b8ff" points="307.88,-495.35 318.46,-495.95 310.57,-488.88 307.88,-495.35"/>
</a>
</g>
</g>
<!-- Node21&#45;&gt;Node24 -->
<g id="edge37_Node000021_Node000024" class="edge">
<title>Node21&#45;&gt;Node24</title>
<g id="a_edge37_Node000021_Node000024"><a xlink:title=" ">
<path fill="none" stroke="#63b8ff" d="M253.48,-453.75C260.07,-447.24 268.44,-438.6 275.25,-430.38 292.95,-409.01 291.53,-398.89 311.25,-379.38 313.55,-377.1 316.08,-374.9 318.71,-372.81"/>
<polygon fill="#63b8ff" stroke="#63b8ff" points="320.51,-375.83 326.53,-367.11 316.38,-370.17 320.51,-375.83"/>
</a>
</g>
</g>
<!-- Node21&#45;&gt;Node29 -->
<g id="edge50_Node000021_Node000029" class="edge">
<title>Node21&#45;&gt;Node29</title>
<g id="a_edge50_Node000021_Node000029"><a xlink:title=" ">
<path fill="none" stroke="#63b8ff" d="M245.89,-453.52C254.05,-429.76 276.25,-372.39 311.25,-336.38 312.1,-335.5 312.99,-334.65 313.93,-333.83"/>
<polygon fill="#63b8ff" stroke="#63b8ff" points="315.79,-336.81 321.78,-328.07 311.65,-331.16 315.79,-336.81"/>
</a>
</g>
</g>
<!-- Node21&#45;&gt;Node30 -->
<g id="edge52_Node000021_Node000030" class="edge">
<title>Node21&#45;&gt;Node30</title>
<g id="a_edge52_Node000021_Node000030"><a xlink:title=" ">
<path fill="none" stroke="#63b8ff" d="M253.61,-475.02C269.91,-490.37 299.46,-517.83 311.25,-526.38 312.8,-527.5 314.42,-528.61 316.07,-529.7"/>
<polygon fill="#63b8ff" stroke="#63b8ff" points="314.07,-532.58 324.41,-534.86 317.74,-526.62 314.07,-532.58"/>
</a>
</g>
</g>
<!-- Node22&#45;&gt;Node3 -->
<g id="edge34_Node000022_Node000003" class="edge">
<title>Node22&#45;&gt;Node3</title>
<g id="a_edge34_Node000022_Node000003"><a xlink:title=" ">
<path fill="none" stroke="#63b8ff" d="M372.25,-518.16C376.17,-520.73 379.87,-523.79 382.75,-527.38 416.04,-568.78 384.99,-600.34 418.75,-641.38 419.3,-642.05 419.88,-642.7 420.49,-643.33"/>
<polygon fill="#63b8ff" stroke="#63b8ff" points="418.28,-646.05 428.26,-649.59 422.67,-640.6 418.28,-646.05"/>
</a>
</g>
</g>
<!-- Node22&#45;&gt;Node12 -->
<g id="edge33_Node000022_Node000012" class="edge">
<title>Node22&#45;&gt;Node12</title>
<g id="a_edge33_Node000022_Node000012"><a xlink:title=" ">
<path fill="none" stroke="#63b8ff" d="M360.44,-496.69C386.07,-474.54 446.32,-421.74 494,-374.38 510.73,-357.75 509.83,-347.6 530,-335.38 559.35,-317.58 597.12,-307.97 626.09,-302.87"/>
<polygon fill="#63b8ff" stroke="#63b8ff" points="626.32,-306.38 635.62,-301.31 625.19,-299.47 626.32,-306.38"/>
</a>
</g>
</g>
<!-- Node22&#45;&gt;Node20 -->
<g id="edge32_Node000022_Node000020" class="edge">
<title>Node22&#45;&gt;Node20</title>
<g id="a_edge32_Node000022_Node000020"><a xlink:title=" ">
<path fill="none" stroke="#63b8ff" d="M381.15,-507.91C429.83,-507.91 523.11,-504.86 599.25,-484.38 613.83,-480.45 629.13,-473.73 641.79,-467.37"/>
<polygon fill="#63b8ff" stroke="#63b8ff" points="643.14,-470.62 650.39,-462.89 639.9,-464.41 643.14,-470.62"/>
</a>
</g>
</g>
<!-- Node22&#45;&gt;Node23 -->
<g id="edge35_Node000022_Node000023" class="edge">
<title>Node22&#45;&gt;Node23</title>
<g id="a_edge35_Node000022_Node000023"><a xlink:title=" ">
<path fill="none" stroke="#63b8ff" d="M371.07,-518.11C375.28,-520.74 379.4,-523.84 382.75,-527.38 407.1,-553.05 395.16,-572.01 418.75,-598.38 420.82,-600.69 423.16,-602.87 425.63,-604.91"/>
<polygon fill="#63b8ff" stroke="#63b8ff" points="423.52,-607.71 433.68,-610.73 427.63,-602.03 423.52,-607.71"/>
</a>
</g>
</g>
<!-- Node23&#45;&gt;Node4 -->
<g id="edge36_Node000023_Node000004" class="edge">
<title>Node23&#45;&gt;Node4</title>
<g id="a_edge36_Node000023_Node000004"><a xlink:title=" ">
<path fill="none" stroke="#63b8ff" d="M490.7,-616.42C499.7,-614.81 509.59,-613.04 519.09,-611.34"/>
<polygon fill="#63b8ff" stroke="#63b8ff" points="519.7,-614.79 528.93,-609.58 518.47,-607.89 519.7,-614.79"/>
</a>
</g>
</g>
<!-- Node25 -->
<g id="Node000025" class="node">
<title>Node25</title>
<g id="a_Node000025"><a xlink:href="app_8c.html#a1a8a1d528c65d63a630e19c3a4bdd098" target="_top" xlink:title=" ">
<polygon fill="white" stroke="#666666" points="490.25,-365.75 422.5,-365.75 422.5,-345 490.25,-345 490.25,-365.75"/>
<text text-anchor="middle" x="456.38" y="-352.25" font-family="Helvetica,sans-Serif" font-size="10.00">w2c__f557</text>
</a>
</g>
</g>
<!-- Node24&#45;&gt;Node25 -->
<g id="edge38_Node000024_Node000025" class="edge">
<title>Node24&#45;&gt;Node25</title>
<g id="a_edge38_Node000024_Node000025"><a xlink:title=" ">
<path fill="none" stroke="#63b8ff" d="M381.09,-355.38C390.48,-355.38 400.86,-355.38 410.81,-355.38"/>
<polygon fill="#63b8ff" stroke="#63b8ff" points="410.69,-358.88 420.69,-355.38 410.69,-351.88 410.69,-358.88"/>
</a>
</g>
</g>
<!-- Node26 -->
<g id="Node000026" class="node">
<title>Node26</title>
<g id="a_Node000026"><a xlink:href="app_8c.html#a0f7003812eaf983535ff7979fc047a21" target="_top" xlink:title=" ">
<polygon fill="white" stroke="#666666" points="598.5,-364.75 530.75,-364.75 530.75,-344 598.5,-344 598.5,-364.75"/>
<text text-anchor="middle" x="564.62" y="-351.25" font-family="Helvetica,sans-Serif" font-size="10.00">w2c__f353</text>
</a>
</g>
</g>
<!-- Node25&#45;&gt;Node26 -->
<g id="edge39_Node000025_Node000026" class="edge">
<title>Node25&#45;&gt;Node26</title>
<g id="a_edge39_Node000025_Node000026"><a xlink:title=" ">
<path fill="none" stroke="#63b8ff" d="M490.7,-355.06C499.7,-354.98 509.59,-354.88 519.09,-354.79"/>
<polygon fill="#63b8ff" stroke="#63b8ff" points="518.94,-358.3 528.9,-354.7 518.87,-351.3 518.94,-358.3"/>
</a>
</g>
</g>
<!-- Node28 -->
<g id="Node000028" class="node">
<title>Node28</title>
<g id="a_Node000028"><a xlink:href="app_8c.html#ac9cc84763a9c1933e50eedd7a06c17e2" target="_top" xlink:title=" ">
<polygon fill="white" stroke="#666666" points="598.5,-403.75 530.75,-403.75 530.75,-383 598.5,-383 598.5,-403.75"/>
<text text-anchor="middle" x="564.62" y="-390.25" font-family="Helvetica,sans-Serif" font-size="10.00">w2c__f480</text>
</a>
</g>
</g>
<!-- Node25&#45;&gt;Node28 -->
<g id="edge43_Node000025_Node000028" class="edge">
<title>Node25&#45;&gt;Node28</title>
<g id="a_edge43_Node000025_Node000028"><a xlink:title=" ">
<path fill="none" stroke="#63b8ff" d="M487.54,-366.16C498.53,-370.09 511.14,-374.61 522.9,-378.81"/>
<polygon fill="#63b8ff" stroke="#63b8ff" points="521.37,-381.98 531.96,-382.05 523.72,-375.39 521.37,-381.98"/>
</a>
</g>
</g>
<!-- Node26&#45;&gt;Node12 -->
<g id="edge40_Node000026_Node000012" class="edge">
<title>Node26&#45;&gt;Node12</title>
<g id="a_edge40_Node000026_Node000012"><a xlink:title=" ">
<path fill="none" stroke="#63b8ff" d="M585.33,-343.65C600.88,-335.19 622.84,-323.24 640.55,-313.6"/>
<polygon fill="#63b8ff" stroke="#63b8ff" points="641.96,-316.82 649.08,-308.97 638.62,-310.67 641.96,-316.82"/>
</a>
</g>
</g>
<!-- Node27 -->
<g id="Node000027" class="node">
<title>Node27</title>
<g id="a_Node000027"><a xlink:href="app_8c.html#a4634342addbde677893ffcb45cf639dd" target="_top" xlink:title=" ">
<polygon fill="white" stroke="#666666" points="705.25,-365.75 637.5,-365.75 637.5,-345 705.25,-345 705.25,-365.75"/>
<text text-anchor="middle" x="671.38" y="-352.25" font-family="Helvetica,sans-Serif" font-size="10.00">w2c__f302</text>
</a>
</g>
</g>
<!-- Node26&#45;&gt;Node27 -->
<g id="edge41_Node000026_Node000027" class="edge">
<title>Node26&#45;&gt;Node27</title>
<g id="a_edge41_Node000026_Node000027"><a xlink:title=" ">
<path fill="none" stroke="#63b8ff" d="M598.77,-354.69C607.37,-354.77 616.77,-354.86 625.84,-354.95"/>
<polygon fill="#63b8ff" stroke="#63b8ff" points="625.54,-358.45 635.57,-355.04 625.61,-351.45 625.54,-358.45"/>
</a>
</g>
</g>
<!-- Node27&#45;&gt;Node13 -->
<g id="edge42_Node000027_Node000013" class="edge">
<title>Node27&#45;&gt;Node13</title>
<g id="a_edge42_Node000027_Node000013"><a xlink:title=" ">
<path fill="none" stroke="#63b8ff" d="M705.57,-361.44C713.92,-362.96 723.01,-364.63 731.82,-366.24"/>
<polygon fill="#63b8ff" stroke="#63b8ff" points="731.19,-369.68 741.65,-368.03 732.44,-362.79 731.19,-369.68"/>
</a>
</g>
</g>
<!-- Node28&#45;&gt;Node11 -->
<g id="edge48_Node000028_Node000011" class="edge">
<title>Node28&#45;&gt;Node11</title>
<g id="a_edge48_Node000028_Node000011"><a xlink:title=" ">
<path fill="none" stroke="#63b8ff" d="M589.92,-404.15C593.53,-406.7 596.83,-409.76 599.25,-413.38 661.14,-505.97 587.29,-560.85 635.25,-661.38 638.68,-668.57 643.95,-675.34 649.37,-681.11"/>
<polygon fill="#63b8ff" stroke="#63b8ff" points="646.55,-683.25 656.15,-687.74 651.45,-678.25 646.55,-683.25"/>
</a>
</g>
</g>
<!-- Node28&#45;&gt;Node12 -->
<g id="edge45_Node000028_Node000012" class="edge">
<title>Node28&#45;&gt;Node12</title>
<g id="a_edge45_Node000028_Node000012"><a xlink:title=" ">
<path fill="none" stroke="#63b8ff" d="M585.8,-382.63C590.39,-379.85 595.12,-376.7 599.25,-373.38 605.14,-368.64 633.69,-337.65 652.78,-316.74"/>
<polygon fill="#63b8ff" stroke="#63b8ff" points="655.36,-319.1 659.51,-309.35 650.19,-314.38 655.36,-319.1"/>
</a>
</g>
</g>
<!-- Node28&#45;&gt;Node13 -->
<g id="edge47_Node000028_Node000013" class="edge">
<title>Node28&#45;&gt;Node13</title>
<g id="a_edge47_Node000028_Node000013"><a xlink:title=" ">
<path fill="none" stroke="#63b8ff" d="M598.55,-390.41C634.48,-387.17 692.2,-381.96 732.08,-378.37"/>
<polygon fill="#63b8ff" stroke="#63b8ff" points="732.18,-381.87 741.82,-377.49 731.55,-374.9 732.18,-381.87"/>
</a>
</g>
</g>
<!-- Node28&#45;&gt;Node20 -->
<g id="edge44_Node000028_Node000020" class="edge">
<title>Node28&#45;&gt;Node20</title>
<g id="a_edge44_Node000028_Node000020"><a xlink:title=" ">
<path fill="none" stroke="#63b8ff" d="M584.84,-404.01C600.54,-412.71 622.99,-425.14 640.96,-435.09"/>
<polygon fill="#63b8ff" stroke="#63b8ff" points="639.16,-438.09 649.61,-439.87 642.55,-431.97 639.16,-438.09"/>
</a>
</g>
</g>
<!-- Node28&#45;&gt;Node27 -->
<g id="edge46_Node000028_Node000027" class="edge">
<title>Node28&#45;&gt;Node27</title>
<g id="a_edge46_Node000028_Node000027"><a xlink:title=" ">
<path fill="none" stroke="#63b8ff" d="M595.36,-382.59C606.09,-378.7 618.38,-374.24 629.87,-370.07"/>
<polygon fill="#63b8ff" stroke="#63b8ff" points="630.93,-373.41 639.14,-366.71 628.55,-366.83 630.93,-373.41"/>
</a>
</g>
</g>
<!-- Node29&#45;&gt;Node25 -->
<g id="edge51_Node000029_Node000025" class="edge">
<title>Node29&#45;&gt;Node25</title>
<g id="a_edge51_Node000029_Node000025"><a xlink:title=" ">
<path fill="none" stroke="#63b8ff" d="M377.91,-327.24C389.43,-331.42 402.78,-336.27 415.11,-340.75"/>
<polygon fill="#63b8ff" stroke="#63b8ff" points="413.61,-343.93 424.2,-344.05 416,-337.35 413.61,-343.93"/>
</a>
</g>
</g>
<!-- Node32&#45;&gt;Node20 -->
<g id="edge61_Node000032_Node000020" class="edge">
<title>Node32&#45;&gt;Node20</title>
<g id="a_edge61_Node000032_Node000020"><a xlink:title=" ">
<path fill="none" stroke="#63b8ff" d="M598.77,-438.39C607.37,-439.95 616.77,-441.65 625.84,-443.3"/>
<polygon fill="#63b8ff" stroke="#63b8ff" points="625.13,-446.73 635.6,-445.07 626.38,-439.84 625.13,-446.73"/>
</a>
</g>
</g>
<!-- Node35&#45;&gt;Node33 -->
<g id="edge68_Node000035_Node000033" class="edge">
<title>Node35&#45;&gt;Node33</title>
<g id="a_edge68_Node000035_Node000033"><a xlink:title=" ">
<path fill="none" stroke="#63b8ff" d="M168.33,-75.57C178.25,-71.96 189.49,-67.88 200.08,-64.03"/>
<polygon fill="#63b8ff" stroke="#63b8ff" points="201.19,-67.35 209.39,-60.64 198.79,-60.77 201.19,-67.35"/>
</a>
</g>
</g>
<!-- Node36&#45;&gt;Node7 -->
<g id="edge70_Node000036_Node000007" class="edge">
<title>Node36&#45;&gt;Node7</title>
<g id="a_edge70_Node000036_Node000007"><a xlink:title=" ">
<path fill="none" stroke="#63b8ff" d="M599.49,-990.02C636.02,-981.01 694.28,-966.63 733.87,-956.86"/>
<polygon fill="#63b8ff" stroke="#63b8ff" points="734.67,-960.27 743.54,-954.48 732.99,-953.47 734.67,-960.27"/>
</a>
</g>
</g>
</g>
</svg>
