<?xml version="1.0" encoding="UTF-8" standalone="no"?>
<!DOCTYPE svg PUBLIC "-//W3C//DTD SVG 1.1//EN"
 "http://www.w3.org/Graphics/SVG/1.1/DTD/svg11.dtd">
<!-- Generated by graphviz version 12.2.1 (0)
 -->
<!-- Title: wrap_w2c__f388 Pages: 1 -->
<svg width="313pt" height="86pt"
 viewBox="0.00 0.00 312.50 85.75" xmlns="http://www.w3.org/2000/svg" xmlns:xlink="http://www.w3.org/1999/xlink">
<g id="graph0" class="graph" transform="scale(1 1) rotate(0) translate(4 81.75)">
<title>wrap_w2c__f388</title>
<!-- Node1 -->
<g id="Node000001" class="node">
<title>Node1</title>
<g id="a_Node000001"><a xlink:title=" ">
<polygon fill="#999999" stroke="#666666" points="97,-39.75 0,-39.75 0,-19 97,-19 97,-39.75"/>
<text text-anchor="middle" x="48.5" y="-26.25" font-family="Helvetica,sans-Serif" font-size="10.00">wrap_w2c__f388</text>
</a>
</g>
</g>
<!-- Node2 -->
<g id="Node000002" class="node">
<title>Node2</title>
<g id="a_Node000002"><a xlink:href="app_8c.html#ac8bac3c26e4329146790fdb436e425ad" target="_top" xlink:title=" ">
<polygon fill="white" stroke="#666666" points="200.75,-39.75 133,-39.75 133,-19 200.75,-19 200.75,-39.75"/>
<text text-anchor="middle" x="166.88" y="-26.25" font-family="Helvetica,sans-Serif" font-size="10.00">w2c__f388</text>
</a>
</g>
</g>
<!-- Node1&#45;&gt;Node2 -->
<g id="edge1_Node000001_Node000002" class="edge">
<title>Node1&#45;&gt;Node2</title>
<g id="a_edge1_Node000001_Node000002"><a xlink:title=" ">
<path fill="none" stroke="#63b8ff" d="M97.17,-29.38C105.18,-29.38 113.47,-29.38 121.4,-29.38"/>
<polygon fill="#63b8ff" stroke="#63b8ff" points="121.17,-32.88 131.17,-29.38 121.17,-25.88 121.17,-32.88"/>
</a>
</g>
</g>
<!-- Node2&#45;&gt;Node2 -->
<g id="edge4_Node000002_Node000002" class="edge">
<title>Node2&#45;&gt;Node2</title>
<g id="a_edge4_Node000002_Node000002"><a xlink:title=" ">
<path fill="none" stroke="#63b8ff" d="M150.16,-40.15C143.47,-48.81 149.04,-57.75 166.88,-57.75 176.35,-57.75 182.36,-55.23 184.91,-51.56"/>
<polygon fill="#63b8ff" stroke="#63b8ff" points="188.39,-51.18 183.77,-41.65 181.44,-51.99 188.39,-51.18"/>
</a>
</g>
</g>
<!-- Node3 -->
<g id="Node000003" class="node">
<title>Node3</title>
<g id="a_Node000003"><a xlink:href="app_8c.html#aa3135307c634580c45f5d736847ca92b" target="_top" xlink:title=" ">
<polygon fill="white" stroke="#666666" points="304.5,-59.75 236.75,-59.75 236.75,-39 304.5,-39 304.5,-59.75"/>
<text text-anchor="middle" x="270.62" y="-46.25" font-family="Helvetica,sans-Serif" font-size="10.00">w2c__f305</text>
</a>
</g>
</g>
<!-- Node2&#45;&gt;Node3 -->
<g id="edge2_Node000002_Node000003" class="edge">
<title>Node2&#45;&gt;Node3</title>
<g id="a_edge2_Node000002_Node000003"><a xlink:title=" ">
<path fill="none" stroke="#63b8ff" d="M201.19,-35.92C208.91,-37.44 217.25,-39.08 225.36,-40.67"/>
<polygon fill="#63b8ff" stroke="#63b8ff" points="224.61,-44.09 235.1,-42.59 225.96,-37.22 224.61,-44.09"/>
</a>
</g>
</g>
<!-- Node4 -->
<g id="Node000004" class="node">
<title>Node4</title>
<g id="a_Node000004"><a xlink:href="app_8c.html#a674f6e81761467d0a8dc6d2a425eda9f" target="_top" xlink:title=" ">
<polygon fill="white" stroke="#666666" points="304.5,-20.75 236.75,-20.75 236.75,0 304.5,0 304.5,-20.75"/>
<text text-anchor="middle" x="270.62" y="-7.25" font-family="Helvetica,sans-Serif" font-size="10.00">w2c__f498</text>
</a>
</g>
</g>
<!-- Node2&#45;&gt;Node4 -->
<g id="edge5_Node000002_Node000004" class="edge">
<title>Node2&#45;&gt;Node4</title>
<g id="a_edge5_Node000002_Node000004"><a xlink:title=" ">
<path fill="none" stroke="#63b8ff" d="M201.19,-23.15C208.91,-21.71 217.25,-20.16 225.36,-18.64"/>
<polygon fill="#63b8ff" stroke="#63b8ff" points="225.91,-22.1 235.09,-16.82 224.62,-15.22 225.91,-22.1"/>
</a>
</g>
</g>
<!-- Node3&#45;&gt;Node3 -->
<g id="edge3_Node000003_Node000003" class="edge">
<title>Node3&#45;&gt;Node3</title>
<g id="a_edge3_Node000003_Node000003"><a xlink:title=" ">
<path fill="none" stroke="#63b8ff" d="M253.91,-60.15C247.22,-68.81 252.79,-77.75 270.62,-77.75 280.1,-77.75 286.11,-75.23 288.66,-71.56"/>
<polygon fill="#63b8ff" stroke="#63b8ff" points="292.14,-71.18 287.52,-61.65 285.19,-71.99 292.14,-71.18"/>
</a>
</g>
</g>
</g>
</svg>
