<?xml version="1.0" encoding="UTF-8" standalone="no"?>
<!DOCTYPE svg PUBLIC "-//W3C//DTD SVG 1.1//EN"
 "http://www.w3.org/Graphics/SVG/1.1/DTD/svg11.dtd">
<!-- Generated by graphviz version 12.2.1 (0)
 -->
<!-- Title: w2c__f474 Pages: 1 -->
<svg width="886pt" height="381pt"
 viewBox="0.00 0.00 885.50 380.92" xmlns="http://www.w3.org/2000/svg" xmlns:xlink="http://www.w3.org/1999/xlink">
<g id="graph0" class="graph" transform="scale(1 1) rotate(0) translate(4 376.92)">
<title>w2c__f474</title>
<!-- Node1 -->
<g id="Node000001" class="node">
<title>Node1</title>
<g id="a_Node000001"><a xlink:title=" ">
<polygon fill="#999999" stroke="#666666" points="877.5,-176.29 809.75,-176.29 809.75,-155.54 877.5,-155.54 877.5,-176.29"/>
<text text-anchor="middle" x="843.62" y="-162.79" font-family="Helvetica,sans-Serif" font-size="10.00">w2c__f474</text>
</a>
</g>
</g>
<!-- Node2 -->
<g id="Node000002" class="node">
<title>Node2</title>
<g id="a_Node000002"><a xlink:href="app_8c.html#a177b896bb3ca11b154be35fca033e047" target="_top" xlink:title=" ">
<polygon fill="white" stroke="#666666" points="773.75,-176.29 706,-176.29 706,-155.54 773.75,-155.54 773.75,-176.29"/>
<text text-anchor="middle" x="739.88" y="-162.79" font-family="Helvetica,sans-Serif" font-size="10.00">w2c__f235</text>
</a>
</g>
</g>
<!-- Node1&#45;&gt;Node2 -->
<g id="edge1_Node000001_Node000002" class="edge">
<title>Node1&#45;&gt;Node2</title>
<g id="a_edge1_Node000001_Node000002"><a xlink:title=" ">
<path fill="none" stroke="#63b8ff" d="M798.07,-165.92C789.96,-165.92 781.63,-165.92 773.92,-165.92"/>
<polygon fill="#63b8ff" stroke="#63b8ff" points="797.79,-169.42 807.79,-165.92 797.79,-162.42 797.79,-169.42"/>
</a>
</g>
</g>
<!-- Node4 -->
<g id="Node000004" class="node">
<title>Node4</title>
<g id="a_Node000004"><a xlink:href="app_8c.html#a850a9c260115672f978d3685bca1703b" target="_top" xlink:title=" ">
<polygon fill="white" stroke="#666666" points="566.25,-251.29 498.5,-251.29 498.5,-230.54 566.25,-230.54 566.25,-251.29"/>
<text text-anchor="middle" x="532.38" y="-237.79" font-family="Helvetica,sans-Serif" font-size="10.00">w2c__f540</text>
</a>
</g>
</g>
<!-- Node1&#45;&gt;Node4 -->
<g id="edge28_Node000001_Node000004" class="edge">
<title>Node1&#45;&gt;Node4</title>
<g id="a_edge28_Node000001_Node000004"><a xlink:title=" ">
<path fill="none" stroke="#63b8ff" d="M816.18,-182.68C783.4,-202.3 725.1,-233.43 670,-243.92 635.16,-250.55 594.42,-248.41 566.55,-245.49"/>
<polygon fill="#63b8ff" stroke="#63b8ff" points="817.88,-185.74 824.6,-177.55 814.24,-179.77 817.88,-185.74"/>
</a>
</g>
</g>
<!-- Node5 -->
<g id="Node000005" class="node">
<title>Node5</title>
<g id="a_Node000005"><a xlink:href="app_8c.html#aac449994afd8488e2efd16fb19f0ecb1" target="_top" xlink:title=" ">
<polygon fill="white" stroke="#666666" points="358.75,-270.29 291,-270.29 291,-249.54 358.75,-249.54 358.75,-270.29"/>
<text text-anchor="middle" x="324.88" y="-256.79" font-family="Helvetica,sans-Serif" font-size="10.00">w2c__f336</text>
</a>
</g>
</g>
<!-- Node1&#45;&gt;Node5 -->
<g id="edge26_Node000001_Node000005" class="edge">
<title>Node1&#45;&gt;Node5</title>
<g id="a_edge26_Node000001_Node000005"><a xlink:title=" ">
<path fill="none" stroke="#63b8ff" d="M838.38,-187.35C830.87,-219.97 812.24,-282.18 773.75,-318.92 726.52,-364 702.42,-372.92 637.12,-372.92 637.12,-372.92 637.12,-372.92 531.38,-372.92 447.09,-372.92 364.75,-299.03 336.32,-270.75"/>
<polygon fill="#63b8ff" stroke="#63b8ff" points="841.74,-188.4 840.42,-177.88 834.89,-186.92 841.74,-188.4"/>
</a>
</g>
</g>
<!-- Node13 -->
<g id="Node000013" class="node">
<title>Node13</title>
<g id="a_Node000013"><a xlink:href="app_8c.html#ae0b9430c5b9817fd400b62f21b77aa3d" target="_top" xlink:title=" ">
<polygon fill="white" stroke="#666666" points="566.25,-90.29 498.5,-90.29 498.5,-69.54 566.25,-69.54 566.25,-90.29"/>
<text text-anchor="middle" x="532.38" y="-76.79" font-family="Helvetica,sans-Serif" font-size="10.00">w2c__f480</text>
</a>
</g>
</g>
<!-- Node1&#45;&gt;Node13 -->
<g id="edge27_Node000001_Node000013" class="edge">
<title>Node1&#45;&gt;Node13</title>
<g id="a_edge27_Node000001_Node000013"><a xlink:title=" ">
<path fill="none" stroke="#63b8ff" d="M807.81,-150.71C773.4,-136.23 718.95,-114.8 670,-101.92 635.27,-92.78 594.51,-86.81 566.6,-83.43"/>
<polygon fill="#63b8ff" stroke="#63b8ff" points="806.28,-153.86 816.85,-154.55 809.02,-147.42 806.28,-153.86"/>
</a>
</g>
</g>
<!-- Node14 -->
<g id="Node000014" class="node">
<title>Node14</title>
<g id="a_Node000014"><a xlink:href="app_8c.html#a37fce8ca7d5ce886ab2e3a8da2d33566" target="_top" xlink:title=" ">
<polygon fill="white" stroke="#666666" points="670,-43.29 602.25,-43.29 602.25,-22.54 670,-22.54 670,-43.29"/>
<text text-anchor="middle" x="636.12" y="-29.79" font-family="Helvetica,sans-Serif" font-size="10.00">w2c__f548</text>
</a>
</g>
</g>
<!-- Node1&#45;&gt;Node14 -->
<g id="edge29_Node000001_Node000014" class="edge">
<title>Node1&#45;&gt;Node14</title>
<g id="a_edge29_Node000001_Node000014"><a xlink:title=" ">
<path fill="none" stroke="#63b8ff" d="M835.24,-144.48C825.38,-119.25 805.37,-78.12 773.75,-56.92 742.94,-36.27 699.76,-31.78 670.24,-31.48"/>
<polygon fill="#63b8ff" stroke="#63b8ff" points="831.9,-145.54 838.65,-153.71 838.47,-143.12 831.9,-145.54"/>
</a>
</g>
</g>
<!-- Node15 -->
<g id="Node000015" class="node">
<title>Node15</title>
<g id="a_Node000015"><a xlink:href="app_8c.html#ad6ca5e0c47ccb4e49eb279d54c79b6ae" target="_top" xlink:title=" ">
<polygon fill="white" stroke="#666666" points="566.25,-33.29 498.5,-33.29 498.5,-12.54 566.25,-12.54 566.25,-33.29"/>
<text text-anchor="middle" x="532.38" y="-19.79" font-family="Helvetica,sans-Serif" font-size="10.00">w2c__f261</text>
</a>
</g>
</g>
<!-- Node1&#45;&gt;Node15 -->
<g id="edge25_Node000001_Node000015" class="edge">
<title>Node1&#45;&gt;Node15</title>
<g id="a_edge25_Node000001_Node000015"><a xlink:title=" ">
<path fill="none" stroke="#63b8ff" d="M838.13,-144.11C830.55,-113.32 812.16,-57.78 773.75,-29.92 712.24,14.7 616.7,-0.59 566.6,-13.15"/>
<polygon fill="#63b8ff" stroke="#63b8ff" points="834.7,-144.83 840.33,-153.81 841.53,-143.28 834.7,-144.83"/>
</a>
</g>
</g>
<!-- Node16 -->
<g id="Node000016" class="node">
<title>Node16</title>
<g id="a_Node000016"><a xlink:href="app_8c.html#a27ec3034e861eede96fabd221dec28d1" target="_top" xlink:title=" ">
<polygon fill="white" stroke="#666666" points="670,-327.29 602.25,-327.29 602.25,-306.54 670,-306.54 670,-327.29"/>
<text text-anchor="middle" x="636.12" y="-313.79" font-family="Helvetica,sans-Serif" font-size="10.00">w2c__f554</text>
</a>
</g>
</g>
<!-- Node1&#45;&gt;Node16 -->
<g id="edge30_Node000001_Node000016" class="edge">
<title>Node1&#45;&gt;Node16</title>
<g id="a_edge30_Node000001_Node000016"><a xlink:title=" ">
<path fill="none" stroke="#63b8ff" d="M837.25,-187.45C828.86,-216.34 809.73,-267.02 773.75,-292.92 743.55,-314.65 700.04,-318.89 670.28,-318.84"/>
<polygon fill="#63b8ff" stroke="#63b8ff" points="840.58,-188.56 839.82,-178 833.82,-186.73 840.58,-188.56"/>
</a>
</g>
</g>
<!-- Node2&#45;&gt;Node2 -->
<g id="edge14_Node000002_Node000002" class="edge">
<title>Node2&#45;&gt;Node2</title>
<g id="a_edge14_Node000002_Node000002"><a xlink:title=" ">
<path fill="none" stroke="#63b8ff" d="M757.91,-188.1C755.36,-191.77 749.35,-194.29 739.88,-194.29 722.04,-194.29 716.47,-185.35 723.16,-176.69"/>
<polygon fill="#63b8ff" stroke="#63b8ff" points="761.39,-187.72 756.77,-178.19 754.44,-188.53 761.39,-187.72"/>
</a>
</g>
</g>
<!-- Node3 -->
<g id="Node000003" class="node">
<title>Node3</title>
<g id="a_Node000003"><a xlink:href="app_8c.html#af44863a9f6b78ac4e379c138c19a8c91" target="_top" xlink:title=" ">
<polygon fill="white" stroke="#666666" points="670,-195.29 602.25,-195.29 602.25,-174.54 670,-174.54 670,-195.29"/>
<text text-anchor="middle" x="636.12" y="-181.79" font-family="Helvetica,sans-Serif" font-size="10.00">w2c__f226</text>
</a>
</g>
</g>
<!-- Node2&#45;&gt;Node3 -->
<g id="edge2_Node000002_Node000003" class="edge">
<title>Node2&#45;&gt;Node3</title>
<g id="a_edge2_Node000002_Node000003"><a xlink:title=" ">
<path fill="none" stroke="#63b8ff" d="M694.32,-174.24C686.21,-175.75 677.88,-177.31 670.17,-178.75"/>
<polygon fill="#63b8ff" stroke="#63b8ff" points="694.88,-177.69 704.07,-172.42 693.6,-170.81 694.88,-177.69"/>
</a>
</g>
</g>
<!-- Node2&#45;&gt;Node4 -->
<g id="edge18_Node000002_Node000004" class="edge">
<title>Node2&#45;&gt;Node4</title>
<g id="a_edge18_Node000002_Node000004"><a xlink:title=" ">
<path fill="none" stroke="#63b8ff" d="M721.38,-184.76C708.46,-197.42 689.75,-213.32 670,-221.92 636.84,-236.35 595.27,-240.36 566.74,-241.23"/>
<polygon fill="#63b8ff" stroke="#63b8ff" points="723.79,-187.3 728.29,-177.71 718.79,-182.4 723.79,-187.3"/>
</a>
</g>
</g>
<!-- Node2&#45;&gt;Node5 -->
<g id="edge15_Node000002_Node000005" class="edge">
<title>Node2&#45;&gt;Node5</title>
<g id="a_edge15_Node000002_Node000005"><a xlink:title=" ">
<path fill="none" stroke="#63b8ff" d="M694.71,-157.37C626.38,-146.43 492.72,-134.21 394.75,-182.92 364.88,-197.77 342.06,-231.69 331.81,-249.13"/>
<polygon fill="#63b8ff" stroke="#63b8ff" points="693.95,-160.8 704.4,-159 695.11,-153.89 693.95,-160.8"/>
</a>
</g>
</g>
<!-- Node2&#45;&gt;Node13 -->
<g id="edge16_Node000002_Node000013" class="edge">
<title>Node2&#45;&gt;Node13</title>
<g id="a_edge16_Node000002_Node000013"><a xlink:title=" ">
<path fill="none" stroke="#63b8ff" d="M707.24,-150.13C695.62,-144.5 682.3,-138.24 670,-132.92 633.69,-117.2 591.08,-101.02 563.22,-90.74"/>
<polygon fill="#63b8ff" stroke="#63b8ff" points="705.48,-153.17 716,-154.42 708.55,-146.88 705.48,-153.17"/>
</a>
</g>
</g>
<!-- Node2&#45;&gt;Node14 -->
<g id="edge19_Node000002_Node000014" class="edge">
<title>Node2&#45;&gt;Node14</title>
<g id="a_edge19_Node000002_Node000014"><a xlink:title=" ">
<path fill="none" stroke="#63b8ff" d="M724.02,-146.5C702.27,-118.07 662.5,-66.09 645.35,-43.67"/>
<polygon fill="#63b8ff" stroke="#63b8ff" points="721.12,-148.46 729.97,-154.28 726.67,-144.21 721.12,-148.46"/>
</a>
</g>
</g>
<!-- Node2&#45;&gt;Node16 -->
<g id="edge22_Node000002_Node000016" class="edge">
<title>Node2&#45;&gt;Node16</title>
<g id="a_edge22_Node000002_Node000016"><a xlink:title=" ">
<path fill="none" stroke="#63b8ff" d="M725.23,-186.17C703.37,-218.61 661.25,-281.11 644.38,-306.16"/>
<polygon fill="#63b8ff" stroke="#63b8ff" points="728.03,-188.28 730.71,-178.03 722.22,-184.37 728.03,-188.28"/>
</a>
</g>
</g>
<!-- Node3&#45;&gt;Node3 -->
<g id="edge3_Node000003_Node000003" class="edge">
<title>Node3&#45;&gt;Node3</title>
<g id="a_edge3_Node000003_Node000003"><a xlink:title=" ">
<path fill="none" stroke="#63b8ff" d="M654.16,-207.1C651.61,-210.77 645.6,-213.29 636.12,-213.29 618.29,-213.29 612.72,-204.35 619.41,-195.69"/>
<polygon fill="#63b8ff" stroke="#63b8ff" points="657.64,-206.72 653.02,-197.19 650.69,-207.53 657.64,-206.72"/>
</a>
</g>
</g>
<!-- Node3&#45;&gt;Node4 -->
<g id="edge4_Node000003_Node000004" class="edge">
<title>Node3&#45;&gt;Node4</title>
<g id="a_edge4_Node000003_Node000004"><a xlink:title=" ">
<path fill="none" stroke="#63b8ff" d="M605.55,-201.2C588.61,-210.52 567.84,-221.95 552.93,-230.15"/>
<polygon fill="#63b8ff" stroke="#63b8ff" points="607.11,-204.33 614.18,-196.44 603.73,-198.2 607.11,-204.33"/>
</a>
</g>
</g>
<!-- Node4&#45;&gt;Node5 -->
<g id="edge5_Node000004_Node000005" class="edge">
<title>Node4&#45;&gt;Node5</title>
<g id="a_edge5_Node000004_Node000005"><a xlink:title=" ">
<path fill="none" stroke="#63b8ff" d="M488.33,-254.7C479.85,-256.87 470.96,-258.77 462.5,-259.92 427.48,-264.66 386.94,-263.88 359.17,-262.4"/>
<polygon fill="#63b8ff" stroke="#63b8ff" points="488.98,-258.15 497.71,-252.13 487.14,-251.4 488.98,-258.15"/>
</a>
</g>
</g>
<!-- Node11 -->
<g id="Node000011" class="node">
<title>Node11</title>
<g id="a_Node000011"><a xlink:href="app_8c.html#aa3f7fb2ace6a87e61320ef7401dfd66f" target="_top" xlink:title=" ">
<polygon fill="white" stroke="#666666" points="462.5,-251.29 394.75,-251.29 394.75,-230.54 462.5,-230.54 462.5,-251.29"/>
<text text-anchor="middle" x="428.62" y="-237.79" font-family="Helvetica,sans-Serif" font-size="10.00">w2c__f489</text>
</a>
</g>
</g>
<!-- Node4&#45;&gt;Node11 -->
<g id="edge11_Node000004_Node000011" class="edge">
<title>Node4&#45;&gt;Node11</title>
<g id="a_edge11_Node000004_Node000011"><a xlink:title=" ">
<path fill="none" stroke="#63b8ff" d="M486.82,-240.92C478.71,-240.92 470.38,-240.92 462.67,-240.92"/>
<polygon fill="#63b8ff" stroke="#63b8ff" points="486.54,-244.42 496.54,-240.92 486.54,-237.42 486.54,-244.42"/>
</a>
</g>
</g>
<!-- Node12 -->
<g id="Node000012" class="node">
<title>Node12</title>
<g id="a_Node000012"><a xlink:href="app_8c.html#a268eebcea573fce720709e588959d401" target="_top" xlink:title=" ">
<polygon fill="white" stroke="#666666" points="462.5,-212.29 394.75,-212.29 394.75,-191.54 462.5,-191.54 462.5,-212.29"/>
<text text-anchor="middle" x="428.62" y="-198.79" font-family="Helvetica,sans-Serif" font-size="10.00">w2c__f568</text>
</a>
</g>
</g>
<!-- Node4&#45;&gt;Node12 -->
<g id="edge13_Node000004_Node000012" class="edge">
<title>Node4&#45;&gt;Node12</title>
<g id="a_edge13_Node000004_Node000012"><a xlink:title=" ">
<path fill="none" stroke="#63b8ff" d="M492.35,-225.96C480.85,-221.55 468.49,-216.82 457.82,-212.72"/>
<polygon fill="#63b8ff" stroke="#63b8ff" points="491.03,-229.2 501.62,-229.51 493.53,-222.66 491.03,-229.2"/>
</a>
</g>
</g>
<!-- Node6 -->
<g id="Node000006" class="node">
<title>Node6</title>
<g id="a_Node000006"><a xlink:href="app_8c.html#ac863989691d4c389f80374209c220171" target="_top" xlink:title=" ">
<polygon fill="white" stroke="#666666" points="252.38,-270.29 189.88,-270.29 189.88,-249.54 252.38,-249.54 252.38,-270.29"/>
<text text-anchor="middle" x="221.12" y="-256.79" font-family="Helvetica,sans-Serif" font-size="10.00">w2c__c_0</text>
</a>
</g>
</g>
<!-- Node5&#45;&gt;Node6 -->
<g id="edge6_Node000005_Node000006" class="edge">
<title>Node5&#45;&gt;Node6</title>
<g id="a_edge6_Node000005_Node000006"><a xlink:title=" ">
<path fill="none" stroke="#63b8ff" d="M279.1,-259.92C270.2,-259.92 261.05,-259.92 252.76,-259.92"/>
<polygon fill="#63b8ff" stroke="#63b8ff" points="279.04,-263.42 289.04,-259.92 279.04,-256.42 279.04,-263.42"/>
</a>
</g>
</g>
<!-- Node8 -->
<g id="Node000008" class="node">
<title>Node8</title>
<g id="a_Node000008"><a xlink:href="app_8c.html#a8f312e54d76623b1ae169d5d19736ee0" target="_top" xlink:title=" ">
<polygon fill="white" stroke="#666666" points="255,-185.29 187.25,-185.29 187.25,-164.54 255,-164.54 255,-185.29"/>
<text text-anchor="middle" x="221.12" y="-171.79" font-family="Helvetica,sans-Serif" font-size="10.00">w2c__f363</text>
</a>
</g>
</g>
<!-- Node5&#45;&gt;Node8 -->
<g id="edge8_Node000005_Node000008" class="edge">
<title>Node5&#45;&gt;Node8</title>
<g id="a_edge8_Node000005_Node000008"><a xlink:title=" ">
<path fill="none" stroke="#63b8ff" d="M302.35,-241.94C281.9,-224.85 251.83,-199.73 234.91,-185.59"/>
<polygon fill="#63b8ff" stroke="#63b8ff" points="299.91,-244.46 309.83,-248.18 304.4,-239.08 299.91,-244.46"/>
</a>
</g>
</g>
<!-- Node7 -->
<g id="Node000007" class="node">
<title>Node7</title>
<g id="a_Node000007"><a xlink:href="app_8c.html#ab1e039392ea68017ab8a6063263b147d" target="_top" xlink:title=" ">
<polygon fill="white" stroke="#666666" points="145.25,-270.29 94,-270.29 94,-249.54 145.25,-249.54 145.25,-270.29"/>
<text text-anchor="middle" x="119.62" y="-256.79" font-family="Helvetica,sans-Serif" font-size="10.00">w2c__c</text>
</a>
</g>
</g>
<!-- Node6&#45;&gt;Node7 -->
<g id="edge7_Node000006_Node000007" class="edge">
<title>Node6&#45;&gt;Node7</title>
<g id="a_edge7_Node000006_Node000007"><a xlink:title=" ">
<path fill="none" stroke="#63b8ff" d="M178.21,-259.92C167.15,-259.92 155.55,-259.92 145.68,-259.92"/>
<polygon fill="#63b8ff" stroke="#63b8ff" points="177.95,-263.42 187.95,-259.92 177.95,-256.42 177.95,-263.42"/>
</a>
</g>
</g>
<!-- Node9 -->
<g id="Node000009" class="node">
<title>Node9</title>
<g id="a_Node000009"><a xlink:href="app_8c.html#a26657f10c51f10eeb57a4d27606a6885" target="_top" xlink:title=" ">
<polygon fill="white" stroke="#666666" points="151.25,-185.29 88,-185.29 88,-164.54 151.25,-164.54 151.25,-185.29"/>
<text text-anchor="middle" x="119.62" y="-171.79" font-family="Helvetica,sans-Serif" font-size="10.00">w2c__b_0</text>
</a>
</g>
</g>
<!-- Node8&#45;&gt;Node9 -->
<g id="edge9_Node000008_Node000009" class="edge">
<title>Node8&#45;&gt;Node9</title>
<g id="a_edge9_Node000008_Node000009"><a xlink:title=" ">
<path fill="none" stroke="#63b8ff" d="M175.71,-174.92C167.57,-174.92 159.23,-174.92 151.59,-174.92"/>
<polygon fill="#63b8ff" stroke="#63b8ff" points="175.48,-178.42 185.48,-174.92 175.48,-171.42 175.48,-178.42"/>
</a>
</g>
</g>
<!-- Node10 -->
<g id="Node000010" class="node">
<title>Node10</title>
<g id="a_Node000010"><a xlink:href="app_8c.html#a683a2045346c3209e9dac20d55933c7d" target="_top" xlink:title=" ">
<polygon fill="white" stroke="#666666" points="52,-185.29 0,-185.29 0,-164.54 52,-164.54 52,-185.29"/>
<text text-anchor="middle" x="26" y="-171.79" font-family="Helvetica,sans-Serif" font-size="10.00">w2c__b</text>
</a>
</g>
</g>
<!-- Node9&#45;&gt;Node10 -->
<g id="edge10_Node000009_Node000010" class="edge">
<title>Node9&#45;&gt;Node10</title>
<g id="a_edge10_Node000009_Node000010"><a xlink:title=" ">
<path fill="none" stroke="#63b8ff" d="M76.21,-174.92C68,-174.92 59.65,-174.92 52.21,-174.92"/>
<polygon fill="#63b8ff" stroke="#63b8ff" points="76.09,-178.42 86.09,-174.92 76.09,-171.42 76.09,-178.42"/>
</a>
</g>
</g>
<!-- Node11&#45;&gt;Node5 -->
<g id="edge12_Node000011_Node000005" class="edge">
<title>Node11&#45;&gt;Node5</title>
<g id="a_edge12_Node000011_Node000005"><a xlink:title=" ">
<path fill="none" stroke="#63b8ff" d="M383.07,-249.24C374.96,-250.75 366.63,-252.31 358.92,-253.75"/>
<polygon fill="#63b8ff" stroke="#63b8ff" points="383.63,-252.69 392.82,-247.42 382.35,-245.81 383.63,-252.69"/>
</a>
</g>
</g>
<!-- Node13&#45;&gt;Node8 -->
<g id="edge17_Node000013_Node000008" class="edge">
<title>Node13&#45;&gt;Node8</title>
<g id="a_edge17_Node000013_Node000008"><a xlink:title=" ">
<path fill="none" stroke="#63b8ff" d="M487.59,-93.37C425.08,-112.57 311.61,-147.43 255.45,-164.68"/>
<polygon fill="#63b8ff" stroke="#63b8ff" points="488.3,-96.81 496.83,-90.53 486.25,-90.12 488.3,-96.81"/>
</a>
</g>
</g>
<!-- Node14&#45;&gt;Node13 -->
<g id="edge21_Node000014_Node000013" class="edge">
<title>Node14&#45;&gt;Node13</title>
<g id="a_edge21_Node000014_Node000013"><a xlink:title=" ">
<path fill="none" stroke="#63b8ff" d="M601.53,-48.43C586.81,-55.23 569.9,-63.04 556.61,-69.18"/>
<polygon fill="#63b8ff" stroke="#63b8ff" points="602.8,-51.71 610.41,-44.33 599.86,-45.35 602.8,-51.71"/>
</a>
</g>
</g>
<!-- Node14&#45;&gt;Node15 -->
<g id="edge20_Node000014_Node000015" class="edge">
<title>Node14&#45;&gt;Node15</title>
<g id="a_edge20_Node000014_Node000015"><a xlink:title=" ">
<path fill="none" stroke="#63b8ff" d="M590.57,-28.54C582.46,-27.74 574.13,-26.92 566.42,-26.16"/>
<polygon fill="#63b8ff" stroke="#63b8ff" points="590.01,-32 600.3,-29.49 590.69,-25.03 590.01,-32"/>
</a>
</g>
</g>
<!-- Node16&#45;&gt;Node5 -->
<g id="edge23_Node000016_Node000005" class="edge">
<title>Node16&#45;&gt;Node5</title>
<g id="a_edge23_Node000016_Node000005"><a xlink:title=" ">
<path fill="none" stroke="#63b8ff" d="M590.66,-310.14C542.3,-302.59 462.81,-289.61 394.75,-275.92 383.08,-273.57 370.36,-270.7 359.07,-268.05"/>
<polygon fill="#63b8ff" stroke="#63b8ff" points="590.05,-313.59 600.46,-311.67 591.12,-306.67 590.05,-313.59"/>
</a>
</g>
</g>
<!-- Node16&#45;&gt;Node16 -->
<g id="edge24_Node000016_Node000016" class="edge">
<title>Node16&#45;&gt;Node16</title>
<g id="a_edge24_Node000016_Node000016"><a xlink:title=" ">
<path fill="none" stroke="#63b8ff" d="M654.16,-339.1C651.61,-342.77 645.6,-345.29 636.12,-345.29 618.29,-345.29 612.72,-336.35 619.41,-327.69"/>
<polygon fill="#63b8ff" stroke="#63b8ff" points="657.64,-338.72 653.02,-329.19 650.69,-339.53 657.64,-338.72"/>
</a>
</g>
</g>
</g>
</svg>
