<?xml version="1.0" encoding="UTF-8" standalone="no"?>
<!DOCTYPE svg PUBLIC "-//W3C//DTD SVG 1.1//EN"
 "http://www.w3.org/Graphics/SVG/1.1/DTD/svg11.dtd">
<!-- Generated by graphviz version 12.2.1 (0)
 -->
<!-- Title: w2c__f583 Pages: 1 -->
<svg width="608pt" height="243pt"
 viewBox="0.00 0.00 607.75 242.75" xmlns="http://www.w3.org/2000/svg" xmlns:xlink="http://www.w3.org/1999/xlink">
<g id="graph0" class="graph" transform="scale(1 1) rotate(0) translate(4 238.75)">
<title>w2c__f583</title>
<!-- Node1 -->
<g id="Node000001" class="node">
<title>Node1</title>
<g id="a_Node000001"><a xlink:title=" ">
<polygon fill="#999999" stroke="#666666" points="599.75,-137.75 532,-137.75 532,-117 599.75,-117 599.75,-137.75"/>
<text text-anchor="middle" x="565.88" y="-124.25" font-family="Helvetica,sans-Serif" font-size="10.00">w2c__f583</text>
</a>
</g>
</g>
<!-- Node2 -->
<g id="Node000002" class="node">
<title>Node2</title>
<g id="a_Node000002"><a xlink:href="app_8c.html#af245d5659b958eabe30540d214352ad8" target="_top" xlink:title=" ">
<polygon fill="white" stroke="#666666" points="215.38,-234.75 147.62,-234.75 147.62,-214 215.38,-214 215.38,-234.75"/>
<text text-anchor="middle" x="181.5" y="-221.25" font-family="Helvetica,sans-Serif" font-size="10.00">w2c__f197</text>
</a>
</g>
</g>
<!-- Node1&#45;&gt;Node2 -->
<g id="edge1_Node000001_Node000002" class="edge">
<title>Node1&#45;&gt;Node2</title>
<g id="a_edge1_Node000001_Node000002"><a xlink:title=" ">
<path fill="none" stroke="#63b8ff" d="M547.07,-146C534.01,-158.71 515.25,-175.04 496,-185.38 403.94,-234.78 275.29,-232.25 215.49,-227.73"/>
<polygon fill="#63b8ff" stroke="#63b8ff" points="549.5,-148.53 554.08,-138.98 544.54,-143.59 549.5,-148.53"/>
</a>
</g>
</g>
<!-- Node4 -->
<g id="Node000004" class="node">
<title>Node4</title>
<g id="a_Node000004"><a xlink:href="app_8c.html#a5677ffd129da8cd63b876545b8187d77" target="_top" xlink:title=" ">
<polygon fill="white" stroke="#666666" points="348.38,-137.75 280.62,-137.75 280.62,-117 348.38,-117 348.38,-137.75"/>
<text text-anchor="middle" x="314.5" y="-124.25" font-family="Helvetica,sans-Serif" font-size="10.00">w2c__f367</text>
</a>
</g>
</g>
<!-- Node1&#45;&gt;Node4 -->
<g id="edge3_Node000001_Node000004" class="edge">
<title>Node1&#45;&gt;Node4</title>
<g id="a_edge3_Node000001_Node000004"><a xlink:title=" ">
<path fill="none" stroke="#63b8ff" d="M520.24,-127.38C470.97,-127.38 392.81,-127.38 348.68,-127.38"/>
<polygon fill="#63b8ff" stroke="#63b8ff" points="519.99,-130.88 529.99,-127.38 519.99,-123.88 519.99,-130.88"/>
</a>
</g>
</g>
<!-- Node8 -->
<g id="Node000008" class="node">
<title>Node8</title>
<g id="a_Node000008"><a xlink:href="app_8c.html#a856b5cc253a6617dab0fccb7d825799e" target="_top" xlink:title=" ">
<polygon fill="white" stroke="#666666" points="481.38,-176.75 413.62,-176.75 413.62,-156 481.38,-156 481.38,-176.75"/>
<text text-anchor="middle" x="447.5" y="-163.25" font-family="Helvetica,sans-Serif" font-size="10.00">w2c__f368</text>
</a>
</g>
</g>
<!-- Node1&#45;&gt;Node8 -->
<g id="edge7_Node000001_Node000008" class="edge">
<title>Node1&#45;&gt;Node8</title>
<g id="a_edge7_Node000001_Node000008"><a xlink:title=" ">
<path fill="none" stroke="#63b8ff" d="M521.86,-141.79C508.26,-146.35 493.46,-151.31 480.74,-155.57"/>
<polygon fill="#63b8ff" stroke="#63b8ff" points="522.65,-145.22 531.02,-138.72 520.43,-138.58 522.65,-145.22"/>
</a>
</g>
</g>
<!-- Node12 -->
<g id="Node000012" class="node">
<title>Node12</title>
<g id="a_Node000012"><a xlink:href="app_8c.html#a826775b0c376ee8f5e3dd6cdcd1c0046" target="_top" xlink:title=" ">
<polygon fill="white" stroke="#666666" points="481.38,-99.75 413.62,-99.75 413.62,-79 481.38,-79 481.38,-99.75"/>
<text text-anchor="middle" x="447.5" y="-86.25" font-family="Helvetica,sans-Serif" font-size="10.00">w2c__f493</text>
</a>
</g>
</g>
<!-- Node1&#45;&gt;Node12 -->
<g id="edge12_Node000001_Node000012" class="edge">
<title>Node1&#45;&gt;Node12</title>
<g id="a_edge12_Node000001_Node000012"><a xlink:title=" ">
<path fill="none" stroke="#63b8ff" d="M521.15,-113.1C508.05,-108.82 493.91,-104.2 481.62,-100.19"/>
<polygon fill="#63b8ff" stroke="#63b8ff" points="519.81,-116.34 530.4,-116.12 521.98,-109.69 519.81,-116.34"/>
</a>
</g>
</g>
<!-- Node18 -->
<g id="Node000018" class="node">
<title>Node18</title>
<g id="a_Node000018"><a xlink:href="app_8c.html#a73d4b691a1b7a777bc450c9ec6350570" target="_top" xlink:title=" ">
<polygon fill="white" stroke="#666666" points="496,-60.75 399,-60.75 399,-40 496,-40 496,-60.75"/>
<text text-anchor="middle" x="447.5" y="-47.25" font-family="Helvetica,sans-Serif" font-size="10.00">wrap_w2c__f583</text>
</a>
</g>
</g>
<!-- Node1&#45;&gt;Node18 -->
<g id="edge19_Node000001_Node000018" class="edge">
<title>Node1&#45;&gt;Node18</title>
<g id="a_edge19_Node000001_Node000018"><a xlink:title=" ">
<path fill="none" stroke="#63b8ff" d="M545.71,-108.89C532.5,-96.83 514.12,-81.36 496,-70.38 490.41,-66.99 484.15,-63.91 478.05,-61.23"/>
<polygon fill="#63b8ff" stroke="#63b8ff" points="543.15,-111.29 552.85,-115.56 547.93,-106.18 543.15,-111.29"/>
</a>
</g>
</g>
<!-- Node3 -->
<g id="Node000003" class="node">
<title>Node3</title>
<g id="a_Node000003"><a xlink:href="app_8c.html#ac9dfe974277b0ee3fa24e73b7712fe31" target="_top" xlink:title=" ">
<polygon fill="white" stroke="#666666" points="97,-234.75 0,-234.75 0,-214 97,-214 97,-234.75"/>
<text text-anchor="middle" x="48.5" y="-221.25" font-family="Helvetica,sans-Serif" font-size="10.00">wrap_w2c__f197</text>
</a>
</g>
</g>
<!-- Node2&#45;&gt;Node3 -->
<g id="edge2_Node000002_Node000003" class="edge">
<title>Node2&#45;&gt;Node3</title>
<g id="a_edge2_Node000002_Node000003"><a xlink:title=" ">
<path fill="none" stroke="#63b8ff" d="M135.95,-224.38C123.53,-224.38 110,-224.38 97.4,-224.38"/>
<polygon fill="#63b8ff" stroke="#63b8ff" points="135.93,-227.88 145.93,-224.38 135.93,-220.88 135.93,-227.88"/>
</a>
</g>
</g>
<!-- Node5 -->
<g id="Node000005" class="node">
<title>Node5</title>
<g id="a_Node000005"><a xlink:href="app_8c.html#ac863989691d4c389f80374209c220171" target="_top" xlink:title=" ">
<polygon fill="white" stroke="#666666" points="212.75,-137.75 150.25,-137.75 150.25,-117 212.75,-117 212.75,-137.75"/>
<text text-anchor="middle" x="181.5" y="-124.25" font-family="Helvetica,sans-Serif" font-size="10.00">w2c__c_0</text>
</a>
</g>
</g>
<!-- Node4&#45;&gt;Node5 -->
<g id="edge4_Node000004_Node000005" class="edge">
<title>Node4&#45;&gt;Node5</title>
<g id="a_edge4_Node000004_Node000005"><a xlink:title=" ">
<path fill="none" stroke="#63b8ff" d="M269.02,-127.38C250.52,-127.38 229.53,-127.38 212.85,-127.38"/>
<polygon fill="#63b8ff" stroke="#63b8ff" points="268.93,-130.88 278.93,-127.38 268.93,-123.88 268.93,-130.88"/>
</a>
</g>
</g>
<!-- Node7 -->
<g id="Node000007" class="node">
<title>Node7</title>
<g id="a_Node000007"><a xlink:href="app_8c.html#a8f64ccad6c506a1ca514ba4f43e5211c" target="_top" xlink:title=" ">
<polygon fill="white" stroke="#666666" points="230,-98.75 133,-98.75 133,-78 230,-78 230,-98.75"/>
<text text-anchor="middle" x="181.5" y="-85.25" font-family="Helvetica,sans-Serif" font-size="10.00">wrap_w2c__f367</text>
</a>
</g>
</g>
<!-- Node4&#45;&gt;Node7 -->
<g id="edge6_Node000004_Node000007" class="edge">
<title>Node4&#45;&gt;Node7</title>
<g id="a_edge6_Node000004_Node000007"><a xlink:title=" ">
<path fill="none" stroke="#63b8ff" d="M269.43,-114.25C252.96,-109.35 234.46,-103.84 218.77,-99.17"/>
<polygon fill="#63b8ff" stroke="#63b8ff" points="268.41,-117.6 278.99,-117.1 270.41,-110.89 268.41,-117.6"/>
</a>
</g>
</g>
<!-- Node6 -->
<g id="Node000006" class="node">
<title>Node6</title>
<g id="a_Node000006"><a xlink:href="app_8c.html#ab1e039392ea68017ab8a6063263b147d" target="_top" xlink:title=" ">
<polygon fill="white" stroke="#666666" points="74.12,-137.75 22.88,-137.75 22.88,-117 74.12,-117 74.12,-137.75"/>
<text text-anchor="middle" x="48.5" y="-124.25" font-family="Helvetica,sans-Serif" font-size="10.00">w2c__c</text>
</a>
</g>
</g>
<!-- Node5&#45;&gt;Node6 -->
<g id="edge5_Node000005_Node000006" class="edge">
<title>Node5&#45;&gt;Node6</title>
<g id="a_edge5_Node000005_Node000006"><a xlink:title=" ">
<path fill="none" stroke="#63b8ff" d="M138.49,-127.38C117.33,-127.38 92.4,-127.38 74.32,-127.38"/>
<polygon fill="#63b8ff" stroke="#63b8ff" points="138.27,-130.88 148.27,-127.38 138.27,-123.88 138.27,-130.88"/>
</a>
</g>
</g>
<!-- Node9 -->
<g id="Node000009" class="node">
<title>Node9</title>
<g id="a_Node000009"><a xlink:href="app_8c.html#a6c89af74d99f30a7ef134089421e6f69" target="_top" xlink:title=" ">
<polygon fill="white" stroke="#666666" points="348.38,-176.75 280.62,-176.75 280.62,-156 348.38,-156 348.38,-176.75"/>
<text text-anchor="middle" x="314.5" y="-163.25" font-family="Helvetica,sans-Serif" font-size="10.00">w2c__f312</text>
</a>
</g>
</g>
<!-- Node8&#45;&gt;Node9 -->
<g id="edge8_Node000008_Node000009" class="edge">
<title>Node8&#45;&gt;Node9</title>
<g id="a_edge8_Node000008_Node000009"><a xlink:title=" ">
<path fill="none" stroke="#63b8ff" d="M402.03,-166.38C384.52,-166.38 364.76,-166.38 348.55,-166.38"/>
<polygon fill="#63b8ff" stroke="#63b8ff" points="401.93,-169.88 411.93,-166.38 401.93,-162.88 401.93,-169.88"/>
</a>
</g>
</g>
<!-- Node11 -->
<g id="Node000011" class="node">
<title>Node11</title>
<g id="a_Node000011"><a xlink:href="app_8c.html#a96fb844d2cdd3b044fcd9fab6bf0fdd4" target="_top" xlink:title=" ">
<polygon fill="white" stroke="#666666" points="363,-215.75 266,-215.75 266,-195 363,-195 363,-215.75"/>
<text text-anchor="middle" x="314.5" y="-202.25" font-family="Helvetica,sans-Serif" font-size="10.00">wrap_w2c__f368</text>
</a>
</g>
</g>
<!-- Node8&#45;&gt;Node11 -->
<g id="edge11_Node000008_Node000011" class="edge">
<title>Node8&#45;&gt;Node11</title>
<g id="a_edge11_Node000008_Node000011"><a xlink:title=" ">
<path fill="none" stroke="#63b8ff" d="M402.43,-179.5C385.96,-184.4 367.46,-189.91 351.77,-194.58"/>
<polygon fill="#63b8ff" stroke="#63b8ff" points="403.41,-182.86 411.99,-176.65 401.41,-176.15 403.41,-182.86"/>
</a>
</g>
</g>
<!-- Node9&#45;&gt;Node2 -->
<g id="edge9_Node000009_Node000002" class="edge">
<title>Node9&#45;&gt;Node2</title>
<g id="a_edge9_Node000009_Node000002"><a xlink:title=" ">
<path fill="none" stroke="#63b8ff" d="M276.97,-181.63C273.26,-183.22 269.55,-184.82 266,-186.38 245.58,-195.32 222.52,-205.85 205.82,-213.55"/>
<polygon fill="#63b8ff" stroke="#63b8ff" points="278.08,-184.96 285.92,-177.84 275.34,-178.52 278.08,-184.96"/>
</a>
</g>
</g>
<!-- Node10 -->
<g id="Node000010" class="node">
<title>Node10</title>
<g id="a_Node000010"><a xlink:href="app_8c.html#a07d438f3519d306b5f50b93149af1f10" target="_top" xlink:title=" ">
<polygon fill="white" stroke="#666666" points="230,-176.75 133,-176.75 133,-156 230,-156 230,-176.75"/>
<text text-anchor="middle" x="181.5" y="-163.25" font-family="Helvetica,sans-Serif" font-size="10.00">wrap_w2c__f312</text>
</a>
</g>
</g>
<!-- Node9&#45;&gt;Node10 -->
<g id="edge10_Node000009_Node000010" class="edge">
<title>Node9&#45;&gt;Node10</title>
<g id="a_edge10_Node000009_Node000010"><a xlink:title=" ">
<path fill="none" stroke="#63b8ff" d="M268.95,-166.38C256.53,-166.38 243,-166.38 230.4,-166.38"/>
<polygon fill="#63b8ff" stroke="#63b8ff" points="268.93,-169.88 278.93,-166.38 268.93,-162.88 268.93,-169.88"/>
</a>
</g>
</g>
<!-- Node12&#45;&gt;Node4 -->
<g id="edge15_Node000012_Node000004" class="edge">
<title>Node12&#45;&gt;Node4</title>
<g id="a_edge15_Node000012_Node000004"><a xlink:title=" ">
<path fill="none" stroke="#63b8ff" d="M402.54,-102.13C384.9,-107.24 364.91,-113.04 348.55,-117.79"/>
<polygon fill="#63b8ff" stroke="#63b8ff" points="403.36,-105.53 411.99,-99.39 401.41,-98.81 403.36,-105.53"/>
</a>
</g>
</g>
<!-- Node13 -->
<g id="Node000013" class="node">
<title>Node13</title>
<g id="a_Node000013"><a xlink:href="app_8c.html#aabc3b06c7f7daa21796552c728f0379b" target="_top" xlink:title=" ">
<polygon fill="white" stroke="#666666" points="348.38,-59.75 280.62,-59.75 280.62,-39 348.38,-39 348.38,-59.75"/>
<text text-anchor="middle" x="314.5" y="-46.25" font-family="Helvetica,sans-Serif" font-size="10.00">w2c__f270</text>
</a>
</g>
</g>
<!-- Node12&#45;&gt;Node13 -->
<g id="edge13_Node000012_Node000013" class="edge">
<title>Node12&#45;&gt;Node13</title>
<g id="a_edge13_Node000012_Node000013"><a xlink:title=" ">
<path fill="none" stroke="#63b8ff" d="M402.54,-75.95C384.9,-70.56 364.91,-64.46 348.55,-59.47"/>
<polygon fill="#63b8ff" stroke="#63b8ff" points="401.41,-79.27 412,-78.84 403.45,-72.57 401.41,-79.27"/>
</a>
</g>
</g>
<!-- Node15 -->
<g id="Node000015" class="node">
<title>Node15</title>
<g id="a_Node000015"><a xlink:href="app_8c.html#ae568c9f27985286fa066734c4b4f3cbc" target="_top" xlink:title=" ">
<polygon fill="white" stroke="#666666" points="348.38,-20.75 280.62,-20.75 280.62,0 348.38,0 348.38,-20.75"/>
<text text-anchor="middle" x="314.5" y="-7.25" font-family="Helvetica,sans-Serif" font-size="10.00">w2c__f529</text>
</a>
</g>
</g>
<!-- Node12&#45;&gt;Node15 -->
<g id="edge16_Node000012_Node000015" class="edge">
<title>Node12&#45;&gt;Node15</title>
<g id="a_edge16_Node000012_Node000015"><a xlink:title=" ">
<path fill="none" stroke="#63b8ff" d="M405.12,-73.27C403,-72.04 400.95,-70.74 399,-69.38 379.69,-55.82 382.31,-43.93 363,-30.38 358.02,-26.88 352.33,-23.83 346.67,-21.24"/>
<polygon fill="#63b8ff" stroke="#63b8ff" points="403.49,-76.37 413.99,-77.82 406.69,-70.14 403.49,-76.37"/>
</a>
</g>
</g>
<!-- Node17 -->
<g id="Node000017" class="node">
<title>Node17</title>
<g id="a_Node000017"><a xlink:href="app_8c.html#aa66c6d174d609ac79679924a9dffce43" target="_top" xlink:title=" ">
<polygon fill="white" stroke="#666666" points="363,-98.75 266,-98.75 266,-78 363,-78 363,-98.75"/>
<text text-anchor="middle" x="314.5" y="-85.25" font-family="Helvetica,sans-Serif" font-size="10.00">wrap_w2c__f493</text>
</a>
</g>
</g>
<!-- Node12&#45;&gt;Node17 -->
<g id="edge18_Node000012_Node000017" class="edge">
<title>Node12&#45;&gt;Node17</title>
<g id="a_edge18_Node000012_Node000017"><a xlink:title=" ">
<path fill="none" stroke="#63b8ff" d="M401.95,-89.03C389.53,-88.94 376,-88.84 363.4,-88.74"/>
<polygon fill="#63b8ff" stroke="#63b8ff" points="401.9,-92.53 411.93,-89.11 401.96,-85.53 401.9,-92.53"/>
</a>
</g>
</g>
<!-- Node14 -->
<g id="Node000014" class="node">
<title>Node14</title>
<g id="a_Node000014"><a xlink:href="app_8c.html#a54f194530158831aa826ddabfd869e3f" target="_top" xlink:title=" ">
<polygon fill="white" stroke="#666666" points="230,-59.75 133,-59.75 133,-39 230,-39 230,-59.75"/>
<text text-anchor="middle" x="181.5" y="-46.25" font-family="Helvetica,sans-Serif" font-size="10.00">wrap_w2c__f270</text>
</a>
</g>
</g>
<!-- Node13&#45;&gt;Node14 -->
<g id="edge14_Node000013_Node000014" class="edge">
<title>Node13&#45;&gt;Node14</title>
<g id="a_edge14_Node000013_Node000014"><a xlink:title=" ">
<path fill="none" stroke="#63b8ff" d="M268.95,-49.38C256.53,-49.38 243,-49.38 230.4,-49.38"/>
<polygon fill="#63b8ff" stroke="#63b8ff" points="268.93,-52.88 278.93,-49.38 268.93,-45.88 268.93,-52.88"/>
</a>
</g>
</g>
<!-- Node16 -->
<g id="Node000016" class="node">
<title>Node16</title>
<g id="a_Node000016"><a xlink:href="app_8c.html#ab55fb2d33046a579df8de61dc960246c" target="_top" xlink:title=" ">
<polygon fill="white" stroke="#666666" points="230,-20.75 133,-20.75 133,0 230,0 230,-20.75"/>
<text text-anchor="middle" x="181.5" y="-7.25" font-family="Helvetica,sans-Serif" font-size="10.00">wrap_w2c__f529</text>
</a>
</g>
</g>
<!-- Node15&#45;&gt;Node16 -->
<g id="edge17_Node000015_Node000016" class="edge">
<title>Node15&#45;&gt;Node16</title>
<g id="a_edge17_Node000015_Node000016"><a xlink:title=" ">
<path fill="none" stroke="#63b8ff" d="M268.95,-10.38C256.53,-10.38 243,-10.38 230.4,-10.38"/>
<polygon fill="#63b8ff" stroke="#63b8ff" points="268.93,-13.88 278.93,-10.38 268.93,-6.88 268.93,-13.88"/>
</a>
</g>
</g>
</g>
</svg>
