<?xml version="1.0" encoding="UTF-8" standalone="no"?>
<!DOCTYPE svg PUBLIC "-//W3C//DTD SVG 1.1//EN"
 "http://www.w3.org/Graphics/SVG/1.1/DTD/svg11.dtd">
<!-- Generated by graphviz version 12.2.1 (0)
 -->
<!-- Title: wrap_w2c__f275 Pages: 1 -->
<svg width="624pt" height="183pt"
 viewBox="0.00 0.00 623.75 182.75" xmlns="http://www.w3.org/2000/svg" xmlns:xlink="http://www.w3.org/1999/xlink">
<g id="graph0" class="graph" transform="scale(1 1) rotate(0) translate(4 178.75)">
<title>wrap_w2c__f275</title>
<!-- Node1 -->
<g id="Node000001" class="node">
<title>Node1</title>
<g id="a_Node000001"><a xlink:title=" ">
<polygon fill="#999999" stroke="#666666" points="97,-98.75 0,-98.75 0,-78 97,-78 97,-98.75"/>
<text text-anchor="middle" x="48.5" y="-85.25" font-family="Helvetica,sans-Serif" font-size="10.00">wrap_w2c__f275</text>
</a>
</g>
</g>
<!-- Node2 -->
<g id="Node000002" class="node">
<title>Node2</title>
<g id="a_Node000002"><a xlink:href="app_8c.html#a5a0d1cd445d6077fbe4477c0f417eeaf" target="_top" xlink:title=" ">
<polygon fill="white" stroke="#666666" points="200.75,-98.75 133,-98.75 133,-78 200.75,-78 200.75,-98.75"/>
<text text-anchor="middle" x="166.88" y="-85.25" font-family="Helvetica,sans-Serif" font-size="10.00">w2c__f275</text>
</a>
</g>
</g>
<!-- Node1&#45;&gt;Node2 -->
<g id="edge1_Node000001_Node000002" class="edge">
<title>Node1&#45;&gt;Node2</title>
<g id="a_edge1_Node000001_Node000002"><a xlink:title=" ">
<path fill="none" stroke="#63b8ff" d="M97.17,-88.38C105.18,-88.38 113.47,-88.38 121.4,-88.38"/>
<polygon fill="#63b8ff" stroke="#63b8ff" points="121.17,-91.88 131.17,-88.38 121.17,-84.88 121.17,-91.88"/>
</a>
</g>
</g>
<!-- Node3 -->
<g id="Node000003" class="node">
<title>Node3</title>
<g id="a_Node000003"><a xlink:href="app_8c.html#ae7fb023a7298e99149ca1f090e524235" target="_top" xlink:title=" ">
<polygon fill="white" stroke="#666666" points="304.5,-98.75 236.75,-98.75 236.75,-78 304.5,-78 304.5,-98.75"/>
<text text-anchor="middle" x="270.62" y="-85.25" font-family="Helvetica,sans-Serif" font-size="10.00">w2c__f281</text>
</a>
</g>
</g>
<!-- Node2&#45;&gt;Node3 -->
<g id="edge2_Node000002_Node000003" class="edge">
<title>Node2&#45;&gt;Node3</title>
<g id="a_edge2_Node000002_Node000003"><a xlink:title=" ">
<path fill="none" stroke="#63b8ff" d="M201.19,-88.38C208.82,-88.38 217.06,-88.38 225.08,-88.38"/>
<polygon fill="#63b8ff" stroke="#63b8ff" points="225.07,-91.88 235.07,-88.38 225.07,-84.88 225.07,-91.88"/>
</a>
</g>
</g>
<!-- Node4 -->
<g id="Node000004" class="node">
<title>Node4</title>
<g id="a_Node000004"><a xlink:href="app_8c.html#ac9cc84763a9c1933e50eedd7a06c17e2" target="_top" xlink:title=" ">
<polygon fill="white" stroke="#666666" points="408.25,-98.75 340.5,-98.75 340.5,-78 408.25,-78 408.25,-98.75"/>
<text text-anchor="middle" x="374.38" y="-85.25" font-family="Helvetica,sans-Serif" font-size="10.00">w2c__f480</text>
</a>
</g>
</g>
<!-- Node3&#45;&gt;Node4 -->
<g id="edge3_Node000003_Node000004" class="edge">
<title>Node3&#45;&gt;Node4</title>
<g id="a_edge3_Node000003_Node000004"><a xlink:title=" ">
<path fill="none" stroke="#63b8ff" d="M304.94,-88.38C312.57,-88.38 320.81,-88.38 328.83,-88.38"/>
<polygon fill="#63b8ff" stroke="#63b8ff" points="328.82,-91.88 338.82,-88.38 328.82,-84.88 328.82,-91.88"/>
</a>
</g>
</g>
<!-- Node5 -->
<g id="Node000005" class="node">
<title>Node5</title>
<g id="a_Node000005"><a xlink:href="app_8c.html#a0378208e0d5c0d1d6e7370f1c578fab3" target="_top" xlink:title=" ">
<polygon fill="white" stroke="#666666" points="512,-174.75 444.25,-174.75 444.25,-154 512,-154 512,-174.75"/>
<text text-anchor="middle" x="478.12" y="-161.25" font-family="Helvetica,sans-Serif" font-size="10.00">w2c__f216</text>
</a>
</g>
</g>
<!-- Node4&#45;&gt;Node5 -->
<g id="edge4_Node000004_Node000005" class="edge">
<title>Node4&#45;&gt;Node5</title>
<g id="a_edge4_Node000004_Node000005"><a xlink:title=" ">
<path fill="none" stroke="#63b8ff" d="M389.57,-99.2C403.46,-109.76 425.24,-126.26 444.25,-140.38 447.11,-142.5 450.11,-144.71 453.1,-146.9"/>
<polygon fill="#63b8ff" stroke="#63b8ff" points="451,-149.7 461.14,-152.78 455.13,-144.05 451,-149.7"/>
</a>
</g>
</g>
<!-- Node6 -->
<g id="Node000006" class="node">
<title>Node6</title>
<g id="a_Node000006"><a xlink:href="app_8c.html#a8d9f347f9a643f0ebfb53c4f54578ac4" target="_top" xlink:title=" ">
<polygon fill="white" stroke="#666666" points="615.75,-117.75 548,-117.75 548,-97 615.75,-97 615.75,-117.75"/>
<text text-anchor="middle" x="581.88" y="-104.25" font-family="Helvetica,sans-Serif" font-size="10.00">w2c__f304</text>
</a>
</g>
</g>
<!-- Node4&#45;&gt;Node6 -->
<g id="edge11_Node000004_Node000006" class="edge">
<title>Node4&#45;&gt;Node6</title>
<g id="a_edge11_Node000004_Node000006"><a xlink:title=" ">
<path fill="none" stroke="#63b8ff" d="M407.58,-99.19C419.02,-102.51 432.08,-105.73 444.25,-107.38 474.76,-111.51 509.45,-111.45 536.24,-110.39"/>
<polygon fill="#63b8ff" stroke="#63b8ff" points="536.24,-113.89 546.07,-109.93 535.91,-106.9 536.24,-113.89"/>
</a>
</g>
</g>
<!-- Node7 -->
<g id="Node000007" class="node">
<title>Node7</title>
<g id="a_Node000007"><a xlink:href="app_8c.html#aaca5d5bcf49f2ca74019cf097750b9f3" target="_top" xlink:title=" ">
<polygon fill="white" stroke="#666666" points="512,-59.75 444.25,-59.75 444.25,-39 512,-39 512,-59.75"/>
<text text-anchor="middle" x="478.12" y="-46.25" font-family="Helvetica,sans-Serif" font-size="10.00">w2c__f258</text>
</a>
</g>
</g>
<!-- Node4&#45;&gt;Node7 -->
<g id="edge6_Node000004_Node000007" class="edge">
<title>Node4&#45;&gt;Node7</title>
<g id="a_edge6_Node000004_Node000007"><a xlink:title=" ">
<path fill="none" stroke="#63b8ff" d="M403.72,-77.51C414.41,-73.41 426.77,-68.67 438.26,-64.27"/>
<polygon fill="#63b8ff" stroke="#63b8ff" points="439.44,-67.57 447.52,-60.72 436.93,-61.03 439.44,-67.57"/>
</a>
</g>
</g>
<!-- Node9 -->
<g id="Node000009" class="node">
<title>Node9</title>
<g id="a_Node000009"><a xlink:href="app_8c.html#a4634342addbde677893ffcb45cf639dd" target="_top" xlink:title=" ">
<polygon fill="white" stroke="#666666" points="512,-98.75 444.25,-98.75 444.25,-78 512,-78 512,-98.75"/>
<text text-anchor="middle" x="478.12" y="-85.25" font-family="Helvetica,sans-Serif" font-size="10.00">w2c__f302</text>
</a>
</g>
</g>
<!-- Node4&#45;&gt;Node9 -->
<g id="edge9_Node000004_Node000009" class="edge">
<title>Node4&#45;&gt;Node9</title>
<g id="a_edge9_Node000004_Node000009"><a xlink:title=" ">
<path fill="none" stroke="#63b8ff" d="M408.69,-88.38C416.32,-88.38 424.56,-88.38 432.58,-88.38"/>
<polygon fill="#63b8ff" stroke="#63b8ff" points="432.57,-91.88 442.57,-88.38 432.57,-84.88 432.57,-91.88"/>
</a>
</g>
</g>
<!-- Node10 -->
<g id="Node000010" class="node">
<title>Node10</title>
<g id="a_Node000010"><a xlink:href="app_8c.html#a674f6e81761467d0a8dc6d2a425eda9f" target="_top" xlink:title=" ">
<polygon fill="white" stroke="#666666" points="512,-20.75 444.25,-20.75 444.25,0 512,0 512,-20.75"/>
<text text-anchor="middle" x="478.12" y="-7.25" font-family="Helvetica,sans-Serif" font-size="10.00">w2c__f498</text>
</a>
</g>
</g>
<!-- Node4&#45;&gt;Node10 -->
<g id="edge12_Node000004_Node000010" class="edge">
<title>Node4&#45;&gt;Node10</title>
<g id="a_edge12_Node000004_Node000010"><a xlink:title=" ">
<path fill="none" stroke="#63b8ff" d="M387.11,-77.53C400.47,-65.41 423.18,-45.52 444.25,-30.38 445.78,-29.28 447.37,-28.18 448.99,-27.09"/>
<polygon fill="#63b8ff" stroke="#63b8ff" points="450.55,-30.25 457.1,-21.92 446.78,-24.35 450.55,-30.25"/>
</a>
</g>
</g>
<!-- Node5&#45;&gt;Node6 -->
<g id="edge5_Node000005_Node000006" class="edge">
<title>Node5&#45;&gt;Node6</title>
<g id="a_edge5_Node000005_Node000006"><a xlink:title=" ">
<path fill="none" stroke="#63b8ff" d="M498.26,-153.65C513.37,-145.19 534.7,-133.24 551.9,-123.6"/>
<polygon fill="#63b8ff" stroke="#63b8ff" points="553.14,-126.92 560.16,-118.98 549.72,-120.82 553.14,-126.92"/>
</a>
</g>
</g>
<!-- Node7&#45;&gt;Node6 -->
<g id="edge7_Node000007_Node000006" class="edge">
<title>Node7&#45;&gt;Node6</title>
<g id="a_edge7_Node000007_Node000006"><a xlink:title=" ">
<path fill="none" stroke="#63b8ff" d="M497.79,-60.01C513.04,-68.71 534.85,-81.14 552.3,-91.09"/>
<polygon fill="#63b8ff" stroke="#63b8ff" points="550.25,-93.95 560.67,-95.86 553.72,-87.87 550.25,-93.95"/>
</a>
</g>
</g>
<!-- Node8 -->
<g id="Node000008" class="node">
<title>Node8</title>
<g id="a_Node000008"><a xlink:href="app_8c.html#a881f0b113e93dce3ff52d04b435850f6" target="_top" xlink:title=" ">
<polygon fill="white" stroke="#666666" points="615.75,-59.75 548,-59.75 548,-39 615.75,-39 615.75,-59.75"/>
<text text-anchor="middle" x="581.88" y="-46.25" font-family="Helvetica,sans-Serif" font-size="10.00">w2c__f491</text>
</a>
</g>
</g>
<!-- Node7&#45;&gt;Node8 -->
<g id="edge8_Node000007_Node000008" class="edge">
<title>Node7&#45;&gt;Node8</title>
<g id="a_edge8_Node000007_Node000008"><a xlink:title=" ">
<path fill="none" stroke="#63b8ff" d="M512.44,-49.38C520.07,-49.38 528.31,-49.38 536.33,-49.38"/>
<polygon fill="#63b8ff" stroke="#63b8ff" points="536.32,-52.88 546.32,-49.38 536.32,-45.88 536.32,-52.88"/>
</a>
</g>
</g>
<!-- Node9&#45;&gt;Node6 -->
<g id="edge10_Node000009_Node000006" class="edge">
<title>Node9&#45;&gt;Node6</title>
<g id="a_edge10_Node000009_Node000006"><a xlink:title=" ">
<path fill="none" stroke="#63b8ff" d="M512.44,-94.6C520.16,-96.04 528.5,-97.59 536.61,-99.11"/>
<polygon fill="#63b8ff" stroke="#63b8ff" points="535.87,-102.53 546.34,-100.93 537.16,-95.65 535.87,-102.53"/>
</a>
</g>
</g>
</g>
</svg>
