<?xml version="1.0" encoding="UTF-8" standalone="no"?>
<!DOCTYPE svg PUBLIC "-//W3C//DTD SVG 1.1//EN"
 "http://www.w3.org/Graphics/SVG/1.1/DTD/svg11.dtd">
<!-- Generated by graphviz version 12.2.1 (0)
 -->
<!-- Title: w2c__f347 Pages: 1 -->
<svg width="815pt" height="199pt"
 viewBox="0.00 0.00 815.25 198.75" xmlns="http://www.w3.org/2000/svg" xmlns:xlink="http://www.w3.org/1999/xlink">
<g id="graph0" class="graph" transform="scale(1 1) rotate(0) translate(4 194.75)">
<title>w2c__f347</title>
<!-- Node1 -->
<g id="Node000001" class="node">
<title>Node1</title>
<g id="a_Node000001"><a xlink:title=" ">
<polygon fill="#999999" stroke="#666666" points="807.25,-114.75 739.5,-114.75 739.5,-94 807.25,-94 807.25,-114.75"/>
<text text-anchor="middle" x="773.38" y="-101.25" font-family="Helvetica,sans-Serif" font-size="10.00">w2c__f347</text>
</a>
</g>
</g>
<!-- Node2 -->
<g id="Node000002" class="node">
<title>Node2</title>
<g id="a_Node000002"><a xlink:href="app_8c.html#ad1c5cf7c8fbc4fcb5006841674996abd" target="_top" xlink:title=" ">
<polygon fill="white" stroke="#666666" points="703.5,-190.75 635.75,-190.75 635.75,-170 703.5,-170 703.5,-190.75"/>
<text text-anchor="middle" x="669.62" y="-177.25" font-family="Helvetica,sans-Serif" font-size="10.00">w2c__f253</text>
</a>
</g>
</g>
<!-- Node1&#45;&gt;Node2 -->
<g id="edge1_Node000001_Node000002" class="edge">
<title>Node1&#45;&gt;Node2</title>
<g id="a_edge1_Node000001_Node000002"><a xlink:title=" ">
<path fill="none" stroke="#63b8ff" d="M749.22,-122.01C735.89,-132.12 718.79,-145.02 703.5,-156.38 697.6,-160.76 691.07,-165.54 685.39,-169.67"/>
<polygon fill="#63b8ff" stroke="#63b8ff" points="751.13,-124.95 756.97,-116.11 746.89,-119.37 751.13,-124.95"/>
</a>
</g>
</g>
<!-- Node5 -->
<g id="Node000005" class="node">
<title>Node5</title>
<g id="a_Node000005"><a xlink:href="app_8c.html#a9513bce17bc72aed77de02f0c1e16bf1" target="_top" xlink:title=" ">
<polygon fill="white" stroke="#666666" points="585.12,-133.75 517.38,-133.75 517.38,-113 585.12,-113 585.12,-133.75"/>
<text text-anchor="middle" x="551.25" y="-120.25" font-family="Helvetica,sans-Serif" font-size="10.00">w2c__f397</text>
</a>
</g>
</g>
<!-- Node1&#45;&gt;Node5 -->
<g id="edge17_Node000001_Node000005" class="edge">
<title>Node1&#45;&gt;Node5</title>
<g id="a_edge17_Node000001_Node000005"><a xlink:title=" ">
<path fill="none" stroke="#63b8ff" d="M729.33,-118.16C720.85,-120.33 711.96,-122.23 703.5,-123.38 663.17,-128.84 616.23,-127.68 585.47,-125.93"/>
<polygon fill="#63b8ff" stroke="#63b8ff" points="729.98,-121.6 738.71,-115.59 728.14,-114.85 729.98,-121.6"/>
</a>
</g>
</g>
<!-- Node6 -->
<g id="Node000006" class="node">
<title>Node6</title>
<g id="a_Node000006"><a xlink:href="app_8c.html#af0024c44b9d13299f5e7a88bddccadf1" target="_top" xlink:title=" ">
<polygon fill="white" stroke="#666666" points="452.12,-94.75 384.38,-94.75 384.38,-74 452.12,-74 452.12,-94.75"/>
<text text-anchor="middle" x="418.25" y="-81.25" font-family="Helvetica,sans-Serif" font-size="10.00">w2c__f556</text>
</a>
</g>
</g>
<!-- Node1&#45;&gt;Node6 -->
<g id="edge20_Node000001_Node000006" class="edge">
<title>Node1&#45;&gt;Node6</title>
<g id="a_edge20_Node000001_Node000006"><a xlink:title=" ">
<path fill="none" stroke="#63b8ff" d="M729.33,-90.62C720.85,-88.45 711.96,-86.54 703.5,-85.38 613.3,-73 505.47,-77.94 452.27,-81.67"/>
<polygon fill="#63b8ff" stroke="#63b8ff" points="728.13,-93.92 738.7,-93.19 729.98,-87.17 728.13,-93.92"/>
</a>
</g>
</g>
<!-- Node14 -->
<g id="Node000014" class="node">
<title>Node14</title>
<g id="a_Node000014"><a xlink:href="app_8c.html#a6c4eef6d66873a430c1a961238932a90" target="_top" xlink:title=" ">
<polygon fill="white" stroke="#666666" points="703.5,-20.75 635.75,-20.75 635.75,0 703.5,0 703.5,-20.75"/>
<text text-anchor="middle" x="669.62" y="-7.25" font-family="Helvetica,sans-Serif" font-size="10.00">w2c__f366</text>
</a>
</g>
</g>
<!-- Node1&#45;&gt;Node14 -->
<g id="edge14_Node000001_Node000014" class="edge">
<title>Node1&#45;&gt;Node14</title>
<g id="a_edge14_Node000001_Node000014"><a xlink:title=" ">
<path fill="none" stroke="#63b8ff" d="M752.49,-86.01C731.54,-66.65 699.25,-36.82 682.16,-21.03"/>
<polygon fill="#63b8ff" stroke="#63b8ff" points="749.87,-88.35 759.59,-92.56 754.62,-83.21 749.87,-88.35"/>
</a>
</g>
</g>
<!-- Node16 -->
<g id="Node000016" class="node">
<title>Node16</title>
<g id="a_Node000016"><a xlink:href="app_8c.html#aa3f7fb2ace6a87e61320ef7401dfd66f" target="_top" xlink:title=" ">
<polygon fill="white" stroke="#666666" points="703.5,-114.75 635.75,-114.75 635.75,-94 703.5,-94 703.5,-114.75"/>
<text text-anchor="middle" x="669.62" y="-101.25" font-family="Helvetica,sans-Serif" font-size="10.00">w2c__f489</text>
</a>
</g>
</g>
<!-- Node1&#45;&gt;Node16 -->
<g id="edge18_Node000001_Node000016" class="edge">
<title>Node1&#45;&gt;Node16</title>
<g id="a_edge18_Node000001_Node000016"><a xlink:title=" ">
<path fill="none" stroke="#63b8ff" d="M727.82,-104.38C719.71,-104.38 711.38,-104.38 703.67,-104.38"/>
<polygon fill="#63b8ff" stroke="#63b8ff" points="727.54,-107.88 737.54,-104.38 727.54,-100.88 727.54,-107.88"/>
</a>
</g>
</g>
<!-- Node3 -->
<g id="Node000003" class="node">
<title>Node3</title>
<g id="a_Node000003"><a xlink:href="app_8c.html#a7dc7d70793bae217b64eab580fce99cb" target="_top" xlink:title=" ">
<polygon fill="white" stroke="#666666" points="585.12,-172.75 517.38,-172.75 517.38,-152 585.12,-152 585.12,-172.75"/>
<text text-anchor="middle" x="551.25" y="-159.25" font-family="Helvetica,sans-Serif" font-size="10.00">w2c__f215</text>
</a>
</g>
</g>
<!-- Node2&#45;&gt;Node3 -->
<g id="edge2_Node000002_Node000003" class="edge">
<title>Node2&#45;&gt;Node3</title>
<g id="a_edge2_Node000002_Node000003"><a xlink:title=" ">
<path fill="none" stroke="#63b8ff" d="M623.91,-173.46C611.18,-171.49 597.53,-169.38 585.6,-167.53"/>
<polygon fill="#63b8ff" stroke="#63b8ff" points="623.36,-176.92 633.78,-174.99 624.43,-170 623.36,-176.92"/>
</a>
</g>
</g>
<!-- Node2&#45;&gt;Node5 -->
<g id="edge4_Node000002_Node000005" class="edge">
<title>Node2&#45;&gt;Node5</title>
<g id="a_edge4_Node000002_Node000005"><a xlink:title=" ">
<path fill="none" stroke="#63b8ff" d="M639.54,-163.96C627.38,-157.31 613.01,-149.71 599.75,-143.38 593.13,-140.21 585.88,-137.02 579.08,-134.15"/>
<polygon fill="#63b8ff" stroke="#63b8ff" points="637.81,-167.01 648.25,-168.78 641.2,-160.88 637.81,-167.01"/>
</a>
</g>
</g>
<!-- Node7 -->
<g id="Node000007" class="node">
<title>Node7</title>
<g id="a_Node000007"><a xlink:href="app_8c.html#afb3fbfc35abe0f21d554f326b79a0b76" target="_top" xlink:title=" ">
<polygon fill="white" stroke="#666666" points="319.12,-171.75 251.38,-171.75 251.38,-151 319.12,-151 319.12,-171.75"/>
<text text-anchor="middle" x="285.25" y="-158.25" font-family="Helvetica,sans-Serif" font-size="10.00">w2c__f494</text>
</a>
</g>
</g>
<!-- Node2&#45;&gt;Node7 -->
<g id="edge13_Node000002_Node000007" class="edge">
<title>Node2&#45;&gt;Node7</title>
<g id="a_edge13_Node000002_Node000007"><a xlink:title=" ">
<path fill="none" stroke="#63b8ff" d="M623.89,-183.88C565.28,-187.7 459.42,-191.96 369.75,-181.38 352.87,-179.38 334.47,-175.2 319.24,-171.17"/>
<polygon fill="#63b8ff" stroke="#63b8ff" points="624.06,-187.37 633.8,-183.2 623.58,-180.39 624.06,-187.37"/>
</a>
</g>
</g>
<!-- Node4 -->
<g id="Node000004" class="node">
<title>Node4</title>
<g id="a_Node000004"><a xlink:href="app_8c.html#a7f65ba02075f2865f478747946b07c94" target="_top" xlink:title=" ">
<polygon fill="white" stroke="#666666" points="466.75,-172.75 369.75,-172.75 369.75,-152 466.75,-152 466.75,-172.75"/>
<text text-anchor="middle" x="418.25" y="-159.25" font-family="Helvetica,sans-Serif" font-size="10.00">wrap_w2c__f215</text>
</a>
</g>
</g>
<!-- Node3&#45;&gt;Node4 -->
<g id="edge3_Node000003_Node000004" class="edge">
<title>Node3&#45;&gt;Node4</title>
<g id="a_edge3_Node000003_Node000004"><a xlink:title=" ">
<path fill="none" stroke="#63b8ff" d="M505.7,-162.38C493.28,-162.38 479.75,-162.38 467.15,-162.38"/>
<polygon fill="#63b8ff" stroke="#63b8ff" points="505.68,-165.88 515.68,-162.38 505.68,-158.88 505.68,-165.88"/>
</a>
</g>
</g>
<!-- Node5&#45;&gt;Node6 -->
<g id="edge5_Node000005_Node000006" class="edge">
<title>Node5&#45;&gt;Node6</title>
<g id="a_edge5_Node000005_Node000006"><a xlink:title=" ">
<path fill="none" stroke="#63b8ff" d="M506.29,-110.29C488.65,-105.03 468.66,-99.09 452.3,-94.21"/>
<polygon fill="#63b8ff" stroke="#63b8ff" points="505.16,-113.6 515.74,-113.1 507.16,-106.89 505.16,-113.6"/>
</a>
</g>
</g>
<!-- Node13 -->
<g id="Node000013" class="node">
<title>Node13</title>
<g id="a_Node000013"><a xlink:href="app_8c.html#ab0862d78ee117419eeae57c60fce3e44" target="_top" xlink:title=" ">
<polygon fill="white" stroke="#666666" points="466.75,-133.75 369.75,-133.75 369.75,-113 466.75,-113 466.75,-133.75"/>
<text text-anchor="middle" x="418.25" y="-120.25" font-family="Helvetica,sans-Serif" font-size="10.00">wrap_w2c__f397</text>
</a>
</g>
</g>
<!-- Node5&#45;&gt;Node13 -->
<g id="edge12_Node000005_Node000013" class="edge">
<title>Node5&#45;&gt;Node13</title>
<g id="a_edge12_Node000005_Node000013"><a xlink:title=" ">
<path fill="none" stroke="#63b8ff" d="M505.7,-123.38C493.28,-123.38 479.75,-123.38 467.15,-123.38"/>
<polygon fill="#63b8ff" stroke="#63b8ff" points="505.68,-126.88 515.68,-123.38 505.68,-119.88 505.68,-126.88"/>
</a>
</g>
</g>
<!-- Node6&#45;&gt;Node7 -->
<g id="edge6_Node000006_Node000007" class="edge">
<title>Node6&#45;&gt;Node7</title>
<g id="a_edge6_Node000006_Node000007"><a xlink:title=" ">
<path fill="none" stroke="#63b8ff" d="M378.59,-99.87C375.57,-101.32 372.59,-102.83 369.75,-104.38 344.01,-118.4 316.32,-138.38 300.18,-150.58"/>
<polygon fill="#63b8ff" stroke="#63b8ff" points="379.88,-103.13 387.55,-95.83 377,-96.76 379.88,-103.13"/>
</a>
</g>
</g>
<!-- Node12 -->
<g id="Node000012" class="node">
<title>Node12</title>
<g id="a_Node000012"><a xlink:href="app_8c.html#a9da6ace7cab30f03c452001dd99af05d" target="_top" xlink:title=" ">
<polygon fill="white" stroke="#666666" points="333.75,-94.75 236.75,-94.75 236.75,-74 333.75,-74 333.75,-94.75"/>
<text text-anchor="middle" x="285.25" y="-81.25" font-family="Helvetica,sans-Serif" font-size="10.00">wrap_w2c__f556</text>
</a>
</g>
</g>
<!-- Node6&#45;&gt;Node12 -->
<g id="edge11_Node000006_Node000012" class="edge">
<title>Node6&#45;&gt;Node12</title>
<g id="a_edge11_Node000006_Node000012"><a xlink:title=" ">
<path fill="none" stroke="#63b8ff" d="M372.7,-84.38C360.28,-84.38 346.75,-84.38 334.15,-84.38"/>
<polygon fill="#63b8ff" stroke="#63b8ff" points="372.68,-87.88 382.68,-84.38 372.68,-80.88 372.68,-87.88"/>
</a>
</g>
</g>
<!-- Node8 -->
<g id="Node000008" class="node">
<title>Node8</title>
<g id="a_Node000008"><a xlink:href="app_8c.html#a86ae468e235684021eadfdacd5cb9dba" target="_top" xlink:title=" ">
<polygon fill="white" stroke="#666666" points="200.75,-190.75 133,-190.75 133,-170 200.75,-170 200.75,-190.75"/>
<text text-anchor="middle" x="166.88" y="-177.25" font-family="Helvetica,sans-Serif" font-size="10.00">w2c__f452</text>
</a>
</g>
</g>
<!-- Node7&#45;&gt;Node8 -->
<g id="edge7_Node000007_Node000008" class="edge">
<title>Node7&#45;&gt;Node8</title>
<g id="a_edge7_Node000007_Node000008"><a xlink:title=" ">
<path fill="none" stroke="#63b8ff" d="M239.93,-168.61C227.08,-170.71 213.28,-172.96 201.23,-174.93"/>
<polygon fill="#63b8ff" stroke="#63b8ff" points="240.1,-172.13 249.41,-167.06 238.97,-165.22 240.1,-172.13"/>
</a>
</g>
</g>
<!-- Node10 -->
<g id="Node000010" class="node">
<title>Node10</title>
<g id="a_Node000010"><a xlink:href="app_8c.html#ad1dbc2afe7918517df3fc54838f07298" target="_top" xlink:title=" ">
<polygon fill="white" stroke="#666666" points="200.75,-151.75 133,-151.75 133,-131 200.75,-131 200.75,-151.75"/>
<text text-anchor="middle" x="166.88" y="-138.25" font-family="Helvetica,sans-Serif" font-size="10.00">w2c__f520</text>
</a>
</g>
</g>
<!-- Node7&#45;&gt;Node10 -->
<g id="edge9_Node000007_Node000010" class="edge">
<title>Node7&#45;&gt;Node10</title>
<g id="a_edge9_Node000007_Node000010"><a xlink:title=" ">
<path fill="none" stroke="#63b8ff" d="M239.93,-153.76C227.08,-151.55 213.28,-149.18 201.23,-147.11"/>
<polygon fill="#63b8ff" stroke="#63b8ff" points="238.96,-157.14 249.41,-155.39 240.15,-150.24 238.96,-157.14"/>
</a>
</g>
</g>
<!-- Node9 -->
<g id="Node000009" class="node">
<title>Node9</title>
<g id="a_Node000009"><a xlink:href="app_8c.html#a57ca4f801147f9325a0ea7cc2d7192c5" target="_top" xlink:title=" ">
<polygon fill="white" stroke="#666666" points="97,-190.75 0,-190.75 0,-170 97,-170 97,-190.75"/>
<text text-anchor="middle" x="48.5" y="-177.25" font-family="Helvetica,sans-Serif" font-size="10.00">wrap_w2c__f452</text>
</a>
</g>
</g>
<!-- Node8&#45;&gt;Node9 -->
<g id="edge8_Node000008_Node000009" class="edge">
<title>Node8&#45;&gt;Node9</title>
<g id="a_edge8_Node000008_Node000009"><a xlink:title=" ">
<path fill="none" stroke="#63b8ff" d="M121.28,-180.38C113.39,-180.38 105.14,-180.38 97.16,-180.38"/>
<polygon fill="#63b8ff" stroke="#63b8ff" points="121.01,-183.88 131.01,-180.38 121.01,-176.88 121.01,-183.88"/>
</a>
</g>
</g>
<!-- Node11 -->
<g id="Node000011" class="node">
<title>Node11</title>
<g id="a_Node000011"><a xlink:href="app_8c.html#a130f07b726020d1add9a7ed5178e023a" target="_top" xlink:title=" ">
<polygon fill="white" stroke="#666666" points="97,-151.75 0,-151.75 0,-131 97,-131 97,-151.75"/>
<text text-anchor="middle" x="48.5" y="-138.25" font-family="Helvetica,sans-Serif" font-size="10.00">wrap_w2c__f520</text>
</a>
</g>
</g>
<!-- Node10&#45;&gt;Node11 -->
<g id="edge10_Node000010_Node000011" class="edge">
<title>Node10&#45;&gt;Node11</title>
<g id="a_edge10_Node000010_Node000011"><a xlink:title=" ">
<path fill="none" stroke="#63b8ff" d="M121.28,-141.38C113.39,-141.38 105.14,-141.38 97.16,-141.38"/>
<polygon fill="#63b8ff" stroke="#63b8ff" points="121.01,-144.88 131.01,-141.38 121.01,-137.88 121.01,-144.88"/>
</a>
</g>
</g>
<!-- Node14&#45;&gt;Node14 -->
<g id="edge15_Node000014_Node000014" class="edge">
<title>Node14&#45;&gt;Node14</title>
<g id="a_edge15_Node000014_Node000014"><a xlink:title=" ">
<path fill="none" stroke="#63b8ff" d="M687.66,-32.56C685.11,-36.23 679.1,-38.75 669.62,-38.75 651.79,-38.75 646.22,-29.81 652.91,-21.15"/>
<polygon fill="#63b8ff" stroke="#63b8ff" points="691.14,-32.18 686.52,-22.65 684.19,-32.99 691.14,-32.18"/>
</a>
</g>
</g>
<!-- Node15 -->
<g id="Node000015" class="node">
<title>Node15</title>
<g id="a_Node000015"><a xlink:href="app_8c.html#a1513f142fab9919c8476ad5b234aec5b" target="_top" xlink:title=" ">
<polygon fill="white" stroke="#666666" points="599.75,-20.75 502.75,-20.75 502.75,0 599.75,0 599.75,-20.75"/>
<text text-anchor="middle" x="551.25" y="-7.25" font-family="Helvetica,sans-Serif" font-size="10.00">wrap_w2c__f366</text>
</a>
</g>
</g>
<!-- Node14&#45;&gt;Node15 -->
<g id="edge16_Node000014_Node000015" class="edge">
<title>Node14&#45;&gt;Node15</title>
<g id="a_edge16_Node000014_Node000015"><a xlink:title=" ">
<path fill="none" stroke="#63b8ff" d="M624.03,-10.38C616.14,-10.38 607.89,-10.38 599.91,-10.38"/>
<polygon fill="#63b8ff" stroke="#63b8ff" points="623.76,-13.88 633.76,-10.38 623.76,-6.88 623.76,-13.88"/>
</a>
</g>
</g>
<!-- Node16&#45;&gt;Node5 -->
<g id="edge19_Node000016_Node000005" class="edge">
<title>Node16&#45;&gt;Node5</title>
<g id="a_edge19_Node000016_Node000005"><a xlink:title=" ">
<path fill="none" stroke="#63b8ff" d="M624.3,-111.61C611.46,-113.71 597.66,-115.96 585.6,-117.93"/>
<polygon fill="#63b8ff" stroke="#63b8ff" points="624.48,-115.13 633.78,-110.06 623.35,-108.22 624.48,-115.13"/>
</a>
</g>
</g>
</g>
</svg>
