<?xml version="1.0" encoding="UTF-8" standalone="no"?>
<!DOCTYPE svg PUBLIC "-//W3C//DTD SVG 1.1//EN"
 "http://www.w3.org/Graphics/SVG/1.1/DTD/svg11.dtd">
<!-- Generated by graphviz version 12.2.1 (0)
 -->
<!-- Title: wrap_w2c__f443 Pages: 1 -->
<svg width="522pt" height="321pt"
 viewBox="0.00 0.00 522.25 320.75" xmlns="http://www.w3.org/2000/svg" xmlns:xlink="http://www.w3.org/1999/xlink">
<g id="graph0" class="graph" transform="scale(1 1) rotate(0) translate(4 316.75)">
<title>wrap_w2c__f443</title>
<!-- Node1 -->
<g id="Node000001" class="node">
<title>Node1</title>
<g id="a_Node000001"><a xlink:title=" ">
<polygon fill="#999999" stroke="#666666" points="97,-175.75 0,-175.75 0,-155 97,-155 97,-175.75"/>
<text text-anchor="middle" x="48.5" y="-162.25" font-family="Helvetica,sans-Serif" font-size="10.00">wrap_w2c__f443</text>
</a>
</g>
</g>
<!-- Node2 -->
<g id="Node000002" class="node">
<title>Node2</title>
<g id="a_Node000002"><a xlink:href="app_8c.html#aba406831eaa125e2b9f7078a844d2498" target="_top" xlink:title=" ">
<polygon fill="white" stroke="#666666" points="200.75,-175.75 133,-175.75 133,-155 200.75,-155 200.75,-175.75"/>
<text text-anchor="middle" x="166.88" y="-162.25" font-family="Helvetica,sans-Serif" font-size="10.00">w2c__f443</text>
</a>
</g>
</g>
<!-- Node1&#45;&gt;Node2 -->
<g id="edge1_Node000001_Node000002" class="edge">
<title>Node1&#45;&gt;Node2</title>
<g id="a_edge1_Node000001_Node000002"><a xlink:title=" ">
<path fill="none" stroke="#63b8ff" d="M97.17,-165.38C105.18,-165.38 113.47,-165.38 121.4,-165.38"/>
<polygon fill="#63b8ff" stroke="#63b8ff" points="121.17,-168.88 131.17,-165.38 121.17,-161.88 121.17,-168.88"/>
</a>
</g>
</g>
<!-- Node3 -->
<g id="Node000003" class="node">
<title>Node3</title>
<g id="a_Node000003"><a xlink:href="app_8c.html#aa5381be9490280e77162083460f33a76" target="_top" xlink:title=" ">
<polygon fill="white" stroke="#666666" points="304.5,-244.75 236.75,-244.75 236.75,-224 304.5,-224 304.5,-244.75"/>
<text text-anchor="middle" x="270.62" y="-231.25" font-family="Helvetica,sans-Serif" font-size="10.00">w2c__f300</text>
</a>
</g>
</g>
<!-- Node2&#45;&gt;Node3 -->
<g id="edge2_Node000002_Node000003" class="edge">
<title>Node2&#45;&gt;Node3</title>
<g id="a_edge2_Node000002_Node000003"><a xlink:title=" ">
<path fill="none" stroke="#63b8ff" d="M183.77,-176.16C199.98,-187.14 225.35,-204.35 244.32,-217.22"/>
<polygon fill="#63b8ff" stroke="#63b8ff" points="242.34,-220.1 252.59,-222.82 246.27,-214.31 242.34,-220.1"/>
</a>
</g>
</g>
<!-- Node7 -->
<g id="Node000007" class="node">
<title>Node7</title>
<g id="a_Node000007"><a xlink:href="app_8c.html#a76580148a28a8d1d2ffd080f9d3e70c6" target="_top" xlink:title=" ">
<polygon fill="white" stroke="#666666" points="304.5,-156.75 236.75,-156.75 236.75,-136 304.5,-136 304.5,-156.75"/>
<text text-anchor="middle" x="270.62" y="-143.25" font-family="Helvetica,sans-Serif" font-size="10.00">w2c__f400</text>
</a>
</g>
</g>
<!-- Node2&#45;&gt;Node7 -->
<g id="edge6_Node000002_Node000007" class="edge">
<title>Node2&#45;&gt;Node7</title>
<g id="a_edge6_Node000002_Node000007"><a xlink:title=" ">
<path fill="none" stroke="#63b8ff" d="M201.19,-159.15C208.91,-157.71 217.25,-156.16 225.36,-154.64"/>
<polygon fill="#63b8ff" stroke="#63b8ff" points="225.91,-158.1 235.09,-152.82 224.62,-151.22 225.91,-158.1"/>
</a>
</g>
</g>
<!-- Node4 -->
<g id="Node000004" class="node">
<title>Node4</title>
<g id="a_Node000004"><a xlink:href="app_8c.html#aaca5d5bcf49f2ca74019cf097750b9f3" target="_top" xlink:title=" ">
<polygon fill="white" stroke="#666666" points="409.38,-293.75 341.62,-293.75 341.62,-273 409.38,-273 409.38,-293.75"/>
<text text-anchor="middle" x="375.5" y="-280.25" font-family="Helvetica,sans-Serif" font-size="10.00">w2c__f258</text>
</a>
</g>
</g>
<!-- Node3&#45;&gt;Node4 -->
<g id="edge3_Node000003_Node000004" class="edge">
<title>Node3&#45;&gt;Node4</title>
<g id="a_edge3_Node000003_Node000004"><a xlink:title=" ">
<path fill="none" stroke="#63b8ff" d="M294.46,-245.25C308.31,-251.85 326.22,-260.38 341.58,-267.7"/>
<polygon fill="#63b8ff" stroke="#63b8ff" points="339.83,-270.74 350.37,-271.88 342.84,-264.42 339.83,-270.74"/>
</a>
</g>
</g>
<!-- Node5 -->
<g id="Node000005" class="node">
<title>Node5</title>
<g id="a_Node000005"><a xlink:href="app_8c.html#a8d9f347f9a643f0ebfb53c4f54578ac4" target="_top" xlink:title=" ">
<polygon fill="white" stroke="#666666" points="514.25,-312.75 446.5,-312.75 446.5,-292 514.25,-292 514.25,-312.75"/>
<text text-anchor="middle" x="480.38" y="-299.25" font-family="Helvetica,sans-Serif" font-size="10.00">w2c__f304</text>
</a>
</g>
</g>
<!-- Node4&#45;&gt;Node5 -->
<g id="edge4_Node000004_Node000005" class="edge">
<title>Node4&#45;&gt;Node5</title>
<g id="a_edge4_Node000004_Node000005"><a xlink:title=" ">
<path fill="none" stroke="#63b8ff" d="M409.62,-289.49C417.78,-291 426.66,-292.64 435.26,-294.23"/>
<polygon fill="#63b8ff" stroke="#63b8ff" points="434.36,-297.62 444.83,-296 435.63,-290.74 434.36,-297.62"/>
</a>
</g>
</g>
<!-- Node6 -->
<g id="Node000006" class="node">
<title>Node6</title>
<g id="a_Node000006"><a xlink:href="app_8c.html#a881f0b113e93dce3ff52d04b435850f6" target="_top" xlink:title=" ">
<polygon fill="white" stroke="#666666" points="514.25,-273.75 446.5,-273.75 446.5,-253 514.25,-253 514.25,-273.75"/>
<text text-anchor="middle" x="480.38" y="-260.25" font-family="Helvetica,sans-Serif" font-size="10.00">w2c__f491</text>
</a>
</g>
</g>
<!-- Node4&#45;&gt;Node6 -->
<g id="edge5_Node000004_Node000006" class="edge">
<title>Node4&#45;&gt;Node6</title>
<g id="a_edge5_Node000004_Node000006"><a xlink:title=" ">
<path fill="none" stroke="#63b8ff" d="M409.62,-276.94C417.78,-275.35 426.66,-273.62 435.26,-271.95"/>
<polygon fill="#63b8ff" stroke="#63b8ff" points="435.69,-275.43 444.83,-270.09 434.35,-268.56 435.69,-275.43"/>
</a>
</g>
</g>
<!-- Node8 -->
<g id="Node000008" class="node">
<title>Node8</title>
<g id="a_Node000008"><a xlink:href="app_8c.html#a073f670c8a950594dc8c2335dd28302c" target="_top" xlink:title=" ">
<polygon fill="white" stroke="#666666" points="410.5,-254.75 340.5,-254.75 340.5,-234 410.5,-234 410.5,-254.75"/>
<text text-anchor="middle" x="375.5" y="-241.25" font-family="Helvetica,sans-Serif" font-size="10.00">w2c_0_135</text>
</a>
</g>
</g>
<!-- Node7&#45;&gt;Node8 -->
<g id="edge7_Node000007_Node000008" class="edge">
<title>Node7&#45;&gt;Node8</title>
<g id="a_edge7_Node000007_Node000008"><a xlink:title=" ">
<path fill="none" stroke="#63b8ff" d="M279.4,-157.18C291.29,-173.19 315.27,-203.57 340.5,-224.38 341.75,-225.41 343.07,-226.42 344.42,-227.41"/>
<polygon fill="#63b8ff" stroke="#63b8ff" points="342.13,-230.1 352.4,-232.69 345.99,-224.26 342.13,-230.1"/>
</a>
</g>
</g>
<!-- Node9 -->
<g id="Node000009" class="node">
<title>Node9</title>
<g id="a_Node000009"><a xlink:href="app_8c.html#a93c0ec7301f5a783255282e3b8abb1b0" target="_top" xlink:title=" ">
<polygon fill="white" stroke="#666666" points="410.5,-215.75 340.5,-215.75 340.5,-195 410.5,-195 410.5,-215.75"/>
<text text-anchor="middle" x="375.5" y="-202.25" font-family="Helvetica,sans-Serif" font-size="10.00">w2c_0_162</text>
</a>
</g>
</g>
<!-- Node7&#45;&gt;Node9 -->
<g id="edge8_Node000007_Node000009" class="edge">
<title>Node7&#45;&gt;Node9</title>
<g id="a_edge8_Node000007_Node000009"><a xlink:title=" ">
<path fill="none" stroke="#63b8ff" d="M290.49,-157.2C306.01,-166.1 328.24,-178.85 345.94,-189"/>
<polygon fill="#63b8ff" stroke="#63b8ff" points="344.02,-191.93 354.44,-193.87 347.5,-185.86 344.02,-191.93"/>
</a>
</g>
</g>
<!-- Node10 -->
<g id="Node000010" class="node">
<title>Node10</title>
<g id="a_Node000010"><a xlink:href="app_8c.html#a3e4910ad59aba030ab7ae7a91004e951" target="_top" xlink:title=" ">
<polygon fill="white" stroke="#666666" points="404.5,-176.75 346.5,-176.75 346.5,-156 404.5,-156 404.5,-176.75"/>
<text text-anchor="middle" x="375.5" y="-163.25" font-family="Helvetica,sans-Serif" font-size="10.00">w2c_0_2</text>
</a>
</g>
</g>
<!-- Node7&#45;&gt;Node10 -->
<g id="edge9_Node000007_Node000010" class="edge">
<title>Node7&#45;&gt;Node10</title>
<g id="a_edge9_Node000007_Node000010"><a xlink:title=" ">
<path fill="none" stroke="#63b8ff" d="M304.74,-152.81C314.47,-154.7 325.21,-156.79 335.28,-158.75"/>
<polygon fill="#63b8ff" stroke="#63b8ff" points="334.31,-162.13 344.8,-160.6 335.65,-155.26 334.31,-162.13"/>
</a>
</g>
</g>
<!-- Node11 -->
<g id="Node000011" class="node">
<title>Node11</title>
<g id="a_Node000011"><a xlink:href="app_8c.html#a6c7819012b1ac398a370f2a55dfa0dcd" target="_top" xlink:title=" ">
<polygon fill="white" stroke="#666666" points="407.5,-137.75 343.5,-137.75 343.5,-117 407.5,-117 407.5,-137.75"/>
<text text-anchor="middle" x="375.5" y="-124.25" font-family="Helvetica,sans-Serif" font-size="10.00">w2c_0_33</text>
</a>
</g>
</g>
<!-- Node7&#45;&gt;Node11 -->
<g id="edge10_Node000007_Node000011" class="edge">
<title>Node7&#45;&gt;Node11</title>
<g id="a_edge10_Node000007_Node000011"><a xlink:title=" ">
<path fill="none" stroke="#63b8ff" d="M304.74,-140.26C313.41,-138.66 322.89,-136.91 331.98,-135.23"/>
<polygon fill="#63b8ff" stroke="#63b8ff" points="332.51,-138.69 341.71,-133.43 331.24,-131.81 332.51,-138.69"/>
</a>
</g>
</g>
<!-- Node12 -->
<g id="Node000012" class="node">
<title>Node12</title>
<g id="a_Node000012"><a xlink:href="app_8c.html#a89669d859b497acd4d687ede771c8589" target="_top" xlink:title=" ">
<polygon fill="white" stroke="#666666" points="407.5,-98.75 343.5,-98.75 343.5,-78 407.5,-78 407.5,-98.75"/>
<text text-anchor="middle" x="375.5" y="-85.25" font-family="Helvetica,sans-Serif" font-size="10.00">w2c_0_96</text>
</a>
</g>
</g>
<!-- Node7&#45;&gt;Node12 -->
<g id="edge11_Node000007_Node000012" class="edge">
<title>Node7&#45;&gt;Node12</title>
<g id="a_edge11_Node000007_Node000012"><a xlink:title=" ">
<path fill="none" stroke="#63b8ff" d="M290.49,-135.74C305.91,-127.04 327.97,-114.61 345.61,-104.66"/>
<polygon fill="#63b8ff" stroke="#63b8ff" points="347.09,-107.85 354.08,-99.89 343.65,-101.75 347.09,-107.85"/>
</a>
</g>
</g>
<!-- Node13 -->
<g id="Node000013" class="node">
<title>Node13</title>
<g id="a_Node000013"><a xlink:href="app_8c.html#a8d8a9f240d971fdd48e2227d3e26416d" target="_top" xlink:title=" ">
<polygon fill="white" stroke="#666666" points="409.38,-59.75 341.62,-59.75 341.62,-39 409.38,-39 409.38,-59.75"/>
<text text-anchor="middle" x="375.5" y="-46.25" font-family="Helvetica,sans-Serif" font-size="10.00">w2c__f283</text>
</a>
</g>
</g>
<!-- Node7&#45;&gt;Node13 -->
<g id="edge12_Node000007_Node000013" class="edge">
<title>Node7&#45;&gt;Node13</title>
<g id="a_edge12_Node000007_Node000013"><a xlink:title=" ">
<path fill="none" stroke="#63b8ff" d="M279.43,-135.72C291.36,-119.92 315.39,-89.95 340.5,-69.38 341.76,-68.34 343.08,-67.33 344.43,-66.35"/>
<polygon fill="#63b8ff" stroke="#63b8ff" points="346,-69.5 352.42,-61.07 342.14,-63.66 346,-69.5"/>
</a>
</g>
</g>
<!-- Node14 -->
<g id="Node000014" class="node">
<title>Node14</title>
<g id="a_Node000014"><a xlink:href="app_8c.html#a58d893dd6cf117aafb69550b2a0a0e6a" target="_top" xlink:title=" ">
<polygon fill="white" stroke="#666666" points="409.38,-20.75 341.62,-20.75 341.62,0 409.38,0 409.38,-20.75"/>
<text text-anchor="middle" x="375.5" y="-7.25" font-family="Helvetica,sans-Serif" font-size="10.00">wasm_ceil</text>
</a>
</g>
</g>
<!-- Node7&#45;&gt;Node14 -->
<g id="edge13_Node000007_Node000014" class="edge">
<title>Node7&#45;&gt;Node14</title>
<g id="a_edge13_Node000007_Node000014"><a xlink:title=" ">
<path fill="none" stroke="#63b8ff" d="M275.84,-135.58C284.88,-113.56 307.97,-62.77 340.5,-30.38 341.37,-29.51 342.29,-28.66 343.25,-27.84"/>
<polygon fill="#63b8ff" stroke="#63b8ff" points="345.22,-30.73 351.25,-22.02 341.1,-25.07 345.22,-30.73"/>
</a>
</g>
</g>
<!-- Node15 -->
<g id="Node000015" class="node">
<title>Node15</title>
<g id="a_Node000015"><a xlink:href="app_8c.html#ae10979e670e507d4373e8cadcb3169aa" target="_top" xlink:title=" ">
<polygon fill="white" stroke="#666666" points="512.38,-20.75 448.38,-20.75 448.38,0 512.38,0 512.38,-20.75"/>
<text text-anchor="middle" x="480.38" y="-7.25" font-family="Helvetica,sans-Serif" font-size="10.00">quiet_nan</text>
</a>
</g>
</g>
<!-- Node14&#45;&gt;Node15 -->
<g id="edge14_Node000014_Node000015" class="edge">
<title>Node14&#45;&gt;Node15</title>
<g id="a_edge14_Node000014_Node000015"><a xlink:title=" ">
<path fill="none" stroke="#63b8ff" d="M409.62,-10.38C418.29,-10.38 427.76,-10.38 436.85,-10.38"/>
<polygon fill="#63b8ff" stroke="#63b8ff" points="436.56,-13.88 446.56,-10.38 436.56,-6.88 436.56,-13.88"/>
</a>
</g>
</g>
</g>
</svg>
