<?xml version="1.0" encoding="UTF-8" standalone="no"?>
<!DOCTYPE svg PUBLIC "-//W3C//DTD SVG 1.1//EN"
 "http://www.w3.org/Graphics/SVG/1.1/DTD/svg11.dtd">
<!-- Generated by graphviz version 12.2.1 (0)
 -->
<!-- Title: w2c_0_75 Pages: 1 -->
<svg width="600pt" height="205pt"
 viewBox="0.00 0.00 600.25 205.25" xmlns="http://www.w3.org/2000/svg" xmlns:xlink="http://www.w3.org/1999/xlink">
<g id="graph0" class="graph" transform="scale(1 1) rotate(0) translate(4 201.25)">
<title>w2c_0_75</title>
<!-- Node1 -->
<g id="Node000001" class="node">
<title>Node1</title>
<g id="a_Node000001"><a xlink:title=" ">
<polygon fill="#999999" stroke="#666666" points="592.25,-116.75 528.25,-116.75 528.25,-96 592.25,-96 592.25,-116.75"/>
<text text-anchor="middle" x="560.25" y="-103.25" font-family="Helvetica,sans-Serif" font-size="10.00">w2c_0_75</text>
</a>
</g>
</g>
<!-- Node2 -->
<g id="Node000002" class="node">
<title>Node2</title>
<g id="a_Node000002"><a xlink:href="app_8c.html#a7dc7d70793bae217b64eab580fce99cb" target="_top" xlink:title=" ">
<polygon fill="white" stroke="#666666" points="348.38,-193.75 280.62,-193.75 280.62,-173 348.38,-173 348.38,-193.75"/>
<text text-anchor="middle" x="314.5" y="-180.25" font-family="Helvetica,sans-Serif" font-size="10.00">w2c__f215</text>
</a>
</g>
</g>
<!-- Node1&#45;&gt;Node2 -->
<g id="edge1_Node000001_Node000002" class="edge">
<title>Node1&#45;&gt;Node2</title>
<g id="a_edge1_Node000001_Node000002"><a xlink:title=" ">
<path fill="none" stroke="#63b8ff" d="M548.07,-126.79C536.72,-145.17 517.28,-170.99 492.25,-182.38 446.02,-203.41 385.69,-197.66 348.82,-190.97"/>
<polygon fill="#63b8ff" stroke="#63b8ff" points="551.01,-128.7 553.03,-118.3 544.96,-125.17 551.01,-128.7"/>
</a>
</g>
</g>
<!-- Node4 -->
<g id="Node000004" class="node">
<title>Node4</title>
<g id="a_Node000004"><a xlink:href="app_8c.html#afdae10204d5cc9dd87771389db6460ec" target="_top" xlink:title=" ">
<polygon fill="white" stroke="#666666" points="479.5,-173.75 411.75,-173.75 411.75,-153 479.5,-153 479.5,-173.75"/>
<text text-anchor="middle" x="445.62" y="-160.25" font-family="Helvetica,sans-Serif" font-size="10.00">w2c__f314</text>
</a>
</g>
</g>
<!-- Node1&#45;&gt;Node4 -->
<g id="edge3_Node000001_Node000004" class="edge">
<title>Node1&#45;&gt;Node4</title>
<g id="a_edge3_Node000001_Node000004"><a xlink:title=" ">
<path fill="none" stroke="#63b8ff" d="M527.77,-122.31C508.7,-131.96 484.88,-144.01 467.99,-152.56"/>
<polygon fill="#63b8ff" stroke="#63b8ff" points="529.11,-125.55 536.45,-117.91 525.95,-119.31 529.11,-125.55"/>
</a>
</g>
</g>
<!-- Node5 -->
<g id="Node000005" class="node">
<title>Node5</title>
<g id="a_Node000005"><a xlink:href="app_8c.html#afb3fbfc35abe0f21d554f326b79a0b76" target="_top" xlink:title=" ">
<polygon fill="white" stroke="#666666" points="348.38,-136.75 280.62,-136.75 280.62,-116 348.38,-116 348.38,-136.75"/>
<text text-anchor="middle" x="314.5" y="-123.25" font-family="Helvetica,sans-Serif" font-size="10.00">w2c__f494</text>
</a>
</g>
</g>
<!-- Node1&#45;&gt;Node5 -->
<g id="edge12_Node000001_Node000005" class="edge">
<title>Node1&#45;&gt;Node5</title>
<g id="a_edge12_Node000001_Node000005"><a xlink:title=" ">
<path fill="none" stroke="#63b8ff" d="M516.68,-109.87C468.87,-113.79 392.28,-120.07 348.7,-123.65"/>
<polygon fill="#63b8ff" stroke="#63b8ff" points="516.69,-113.38 526.37,-109.07 516.12,-106.4 516.69,-113.38"/>
</a>
</g>
</g>
<!-- Node10 -->
<g id="Node000010" class="node">
<title>Node10</title>
<g id="a_Node000010"><a xlink:href="app_8c.html#aceab5cda31b6aa6659b94aae079d60c2" target="_top" xlink:title=" ">
<polygon fill="white" stroke="#666666" points="348.38,-97.75 280.62,-97.75 280.62,-77 348.38,-77 348.38,-97.75"/>
<text text-anchor="middle" x="314.5" y="-84.25" font-family="Helvetica,sans-Serif" font-size="10.00">w2c__f456</text>
</a>
</g>
</g>
<!-- Node1&#45;&gt;Node10 -->
<g id="edge10_Node000001_Node000010" class="edge">
<title>Node1&#45;&gt;Node10</title>
<g id="a_edge10_Node000001_Node000010"><a xlink:title=" ">
<path fill="none" stroke="#63b8ff" d="M516.68,-103.06C468.87,-99.33 392.28,-93.36 348.7,-89.96"/>
<polygon fill="#63b8ff" stroke="#63b8ff" points="516.13,-106.52 526.37,-103.81 516.68,-99.55 516.13,-106.52"/>
</a>
</g>
</g>
<!-- Node11 -->
<g id="Node000011" class="node">
<title>Node11</title>
<g id="a_Node000011"><a xlink:href="app_8c.html#a16670c165bc2e48eba2f100b6b1e21c3" target="_top" xlink:title=" ">
<polygon fill="white" stroke="#666666" points="479.5,-59.75 411.75,-59.75 411.75,-39 479.5,-39 479.5,-59.75"/>
<text text-anchor="middle" x="445.62" y="-46.25" font-family="Helvetica,sans-Serif" font-size="10.00">w2c__f495</text>
</a>
</g>
</g>
<!-- Node1&#45;&gt;Node11 -->
<g id="edge13_Node000001_Node000011" class="edge">
<title>Node1&#45;&gt;Node11</title>
<g id="a_edge13_Node000001_Node000011"><a xlink:title=" ">
<path fill="none" stroke="#63b8ff" d="M527.77,-90.44C508.7,-80.79 484.88,-68.74 467.99,-60.19"/>
<polygon fill="#63b8ff" stroke="#63b8ff" points="525.95,-93.44 536.45,-94.84 529.11,-87.2 525.95,-93.44"/>
</a>
</g>
</g>
<!-- Node13 -->
<g id="Node000013" class="node">
<title>Node13</title>
<g id="a_Node000013"><a xlink:href="app_8c.html#aebbb0666edd2aafc81c65f547bf3a547" target="_top" xlink:title=" ">
<polygon fill="white" stroke="#666666" points="492.25,-20.75 399,-20.75 399,0 492.25,0 492.25,-20.75"/>
<text text-anchor="middle" x="445.62" y="-7.25" font-family="Helvetica,sans-Serif" font-size="10.00">wrap_w2c_0_75</text>
</a>
</g>
</g>
<!-- Node1&#45;&gt;Node13 -->
<g id="edge16_Node000001_Node000013" class="edge">
<title>Node1&#45;&gt;Node13</title>
<g id="a_edge16_Node000001_Node000013"><a xlink:title=" ">
<path fill="none" stroke="#63b8ff" d="M545.79,-86.79C533.45,-70.02 513.86,-46.16 492.25,-30.38 487.36,-26.8 481.73,-23.69 476.14,-21.05"/>
<polygon fill="#63b8ff" stroke="#63b8ff" points="542.63,-88.39 551.29,-94.5 548.33,-84.32 542.63,-88.39"/>
</a>
</g>
</g>
<!-- Node3 -->
<g id="Node000003" class="node">
<title>Node3</title>
<g id="a_Node000003"><a xlink:href="app_8c.html#a7f65ba02075f2865f478747946b07c94" target="_top" xlink:title=" ">
<polygon fill="white" stroke="#666666" points="230,-193.75 133,-193.75 133,-173 230,-173 230,-193.75"/>
<text text-anchor="middle" x="181.5" y="-180.25" font-family="Helvetica,sans-Serif" font-size="10.00">wrap_w2c__f215</text>
</a>
</g>
</g>
<!-- Node2&#45;&gt;Node3 -->
<g id="edge2_Node000002_Node000003" class="edge">
<title>Node2&#45;&gt;Node3</title>
<g id="a_edge2_Node000002_Node000003"><a xlink:title=" ">
<path fill="none" stroke="#63b8ff" d="M268.95,-183.38C256.53,-183.38 243,-183.38 230.4,-183.38"/>
<polygon fill="#63b8ff" stroke="#63b8ff" points="268.93,-186.88 278.93,-183.38 268.93,-179.88 268.93,-186.88"/>
</a>
</g>
</g>
<!-- Node4&#45;&gt;Node2 -->
<g id="edge4_Node000004_Node000002" class="edge">
<title>Node4&#45;&gt;Node2</title>
<g id="a_edge4_Node000004_Node000002"><a xlink:title=" ">
<path fill="none" stroke="#63b8ff" d="M400.07,-170.28C383.19,-172.89 364.29,-175.82 348.64,-178.24"/>
<polygon fill="#63b8ff" stroke="#63b8ff" points="400.53,-173.75 409.88,-168.76 399.46,-166.83 400.53,-173.75"/>
</a>
</g>
</g>
<!-- Node4&#45;&gt;Node5 -->
<g id="edge5_Node000004_Node000005" class="edge">
<title>Node4&#45;&gt;Node5</title>
<g id="a_edge5_Node000004_Node000005"><a xlink:title=" ">
<path fill="none" stroke="#63b8ff" d="M400.56,-150.75C383.56,-145.88 364.44,-140.4 348.64,-135.87"/>
<polygon fill="#63b8ff" stroke="#63b8ff" points="399.34,-154.04 409.92,-153.43 401.27,-147.31 399.34,-154.04"/>
</a>
</g>
</g>
<!-- Node6 -->
<g id="Node000006" class="node">
<title>Node6</title>
<g id="a_Node000006"><a xlink:href="app_8c.html#a86ae468e235684021eadfdacd5cb9dba" target="_top" xlink:title=" ">
<polygon fill="white" stroke="#666666" points="215.38,-136.75 147.62,-136.75 147.62,-116 215.38,-116 215.38,-136.75"/>
<text text-anchor="middle" x="181.5" y="-123.25" font-family="Helvetica,sans-Serif" font-size="10.00">w2c__f452</text>
</a>
</g>
</g>
<!-- Node5&#45;&gt;Node6 -->
<g id="edge6_Node000005_Node000006" class="edge">
<title>Node5&#45;&gt;Node6</title>
<g id="a_edge6_Node000005_Node000006"><a xlink:title=" ">
<path fill="none" stroke="#63b8ff" d="M269.03,-126.38C251.52,-126.38 231.76,-126.38 215.55,-126.38"/>
<polygon fill="#63b8ff" stroke="#63b8ff" points="268.93,-129.88 278.93,-126.38 268.93,-122.88 268.93,-129.88"/>
</a>
</g>
</g>
<!-- Node8 -->
<g id="Node000008" class="node">
<title>Node8</title>
<g id="a_Node000008"><a xlink:href="app_8c.html#ad1dbc2afe7918517df3fc54838f07298" target="_top" xlink:title=" ">
<polygon fill="white" stroke="#666666" points="215.38,-97.75 147.62,-97.75 147.62,-77 215.38,-77 215.38,-97.75"/>
<text text-anchor="middle" x="181.5" y="-84.25" font-family="Helvetica,sans-Serif" font-size="10.00">w2c__f520</text>
</a>
</g>
</g>
<!-- Node5&#45;&gt;Node8 -->
<g id="edge8_Node000005_Node000008" class="edge">
<title>Node5&#45;&gt;Node8</title>
<g id="a_edge8_Node000005_Node000008"><a xlink:title=" ">
<path fill="none" stroke="#63b8ff" d="M269.54,-113.29C251.9,-108.03 231.91,-102.09 215.55,-97.21"/>
<polygon fill="#63b8ff" stroke="#63b8ff" points="268.41,-116.6 278.99,-116.1 270.41,-109.89 268.41,-116.6"/>
</a>
</g>
</g>
<!-- Node7 -->
<g id="Node000007" class="node">
<title>Node7</title>
<g id="a_Node000007"><a xlink:href="app_8c.html#a57ca4f801147f9325a0ea7cc2d7192c5" target="_top" xlink:title=" ">
<polygon fill="white" stroke="#666666" points="97,-136.75 0,-136.75 0,-116 97,-116 97,-136.75"/>
<text text-anchor="middle" x="48.5" y="-123.25" font-family="Helvetica,sans-Serif" font-size="10.00">wrap_w2c__f452</text>
</a>
</g>
</g>
<!-- Node6&#45;&gt;Node7 -->
<g id="edge7_Node000006_Node000007" class="edge">
<title>Node6&#45;&gt;Node7</title>
<g id="a_edge7_Node000006_Node000007"><a xlink:title=" ">
<path fill="none" stroke="#63b8ff" d="M135.95,-126.38C123.53,-126.38 110,-126.38 97.4,-126.38"/>
<polygon fill="#63b8ff" stroke="#63b8ff" points="135.93,-129.88 145.93,-126.38 135.93,-122.88 135.93,-129.88"/>
</a>
</g>
</g>
<!-- Node9 -->
<g id="Node000009" class="node">
<title>Node9</title>
<g id="a_Node000009"><a xlink:href="app_8c.html#a130f07b726020d1add9a7ed5178e023a" target="_top" xlink:title=" ">
<polygon fill="white" stroke="#666666" points="97,-97.75 0,-97.75 0,-77 97,-77 97,-97.75"/>
<text text-anchor="middle" x="48.5" y="-84.25" font-family="Helvetica,sans-Serif" font-size="10.00">wrap_w2c__f520</text>
</a>
</g>
</g>
<!-- Node8&#45;&gt;Node9 -->
<g id="edge9_Node000008_Node000009" class="edge">
<title>Node8&#45;&gt;Node9</title>
<g id="a_edge9_Node000008_Node000009"><a xlink:title=" ">
<path fill="none" stroke="#63b8ff" d="M135.95,-87.38C123.53,-87.38 110,-87.38 97.4,-87.38"/>
<polygon fill="#63b8ff" stroke="#63b8ff" points="135.93,-90.88 145.93,-87.38 135.93,-83.88 135.93,-90.88"/>
</a>
</g>
</g>
<!-- Node10&#45;&gt;Node8 -->
<g id="edge11_Node000010_Node000008" class="edge">
<title>Node10&#45;&gt;Node8</title>
<g id="a_edge11_Node000010_Node000008"><a xlink:title=" ">
<path fill="none" stroke="#63b8ff" d="M269.03,-87.38C251.52,-87.38 231.76,-87.38 215.55,-87.38"/>
<polygon fill="#63b8ff" stroke="#63b8ff" points="268.93,-90.88 278.93,-87.38 268.93,-83.88 268.93,-90.88"/>
</a>
</g>
</g>
<!-- Node11&#45;&gt;Node8 -->
<g id="edge14_Node000011_Node000008" class="edge">
<title>Node11&#45;&gt;Node8</title>
<g id="a_edge14_Node000011_Node000008"><a xlink:title=" ">
<path fill="none" stroke="#63b8ff" d="M400.37,-52.62C364.11,-55.63 311.53,-60.8 266,-68.38 249.28,-71.16 230.89,-75.23 215.64,-78.89"/>
<polygon fill="#63b8ff" stroke="#63b8ff" points="400.35,-56.14 410.04,-51.84 399.79,-49.16 400.35,-56.14"/>
</a>
</g>
</g>
<!-- Node12 -->
<g id="Node000012" class="node">
<title>Node12</title>
<g id="a_Node000012"><a xlink:href="app_8c.html#adc0b425fa65493482058a086393089b5" target="_top" xlink:title=" ">
<polygon fill="white" stroke="#666666" points="363,-21.75 266,-21.75 266,-1 363,-1 363,-21.75"/>
<text text-anchor="middle" x="314.5" y="-8.25" font-family="Helvetica,sans-Serif" font-size="10.00">wrap_w2c__f495</text>
</a>
</g>
</g>
<!-- Node11&#45;&gt;Node12 -->
<g id="edge15_Node000011_Node000012" class="edge">
<title>Node11&#45;&gt;Node12</title>
<g id="a_edge15_Node000011_Node000012"><a xlink:title=" ">
<path fill="none" stroke="#63b8ff" d="M400.34,-36.34C384.68,-31.73 367.25,-26.6 352.28,-22.2"/>
<polygon fill="#63b8ff" stroke="#63b8ff" points="399.34,-39.7 409.92,-39.16 401.32,-32.98 399.34,-39.7"/>
</a>
</g>
</g>
</g>
</svg>
