<?xml version="1.0" encoding="UTF-8" standalone="no"?>
<!DOCTYPE svg PUBLIC "-//W3C//DTD SVG 1.1//EN"
 "http://www.w3.org/Graphics/SVG/1.1/DTD/svg11.dtd">
<!-- Generated by graphviz version 12.2.1 (0)
 -->
<!-- Title: w2c__f398 Pages: 1 -->
<svg width="710pt" height="646pt"
 viewBox="0.00 0.00 710.25 646.05" xmlns="http://www.w3.org/2000/svg" xmlns:xlink="http://www.w3.org/1999/xlink">
<g id="graph0" class="graph" transform="scale(1 1) rotate(0) translate(4 642.05)">
<title>w2c__f398</title>
<!-- Node1 -->
<g id="Node000001" class="node">
<title>Node1</title>
<g id="a_Node000001"><a xlink:title=" ">
<polygon fill="#999999" stroke="#666666" points="67.75,-305.43 0,-305.43 0,-284.68 67.75,-284.68 67.75,-305.43"/>
<text text-anchor="middle" x="33.88" y="-291.93" font-family="Helvetica,sans-Serif" font-size="10.00">w2c__f398</text>
</a>
</g>
</g>
<!-- Node1&#45;&gt;Node1 -->
<g id="edge34_Node000001_Node000001" class="edge">
<title>Node1&#45;&gt;Node1</title>
<g id="a_edge34_Node000001_Node000001"><a xlink:title=" ">
<path fill="none" stroke="#63b8ff" d="M17.16,-305.82C10.47,-314.48 16.04,-323.43 33.88,-323.43 43.35,-323.43 49.36,-320.9 51.91,-317.24"/>
<polygon fill="#63b8ff" stroke="#63b8ff" points="55.39,-316.86 50.77,-307.33 48.44,-317.66 55.39,-316.86"/>
</a>
</g>
</g>
<!-- Node2 -->
<g id="Node000002" class="node">
<title>Node2</title>
<g id="a_Node000002"><a xlink:href="app_8c.html#a03fa34d93d32a3ee40dfc2d840730111" target="_top" xlink:title=" ">
<polygon fill="white" stroke="#666666" points="596.25,-500.43 528.5,-500.43 528.5,-479.68 596.25,-479.68 596.25,-500.43"/>
<text text-anchor="middle" x="562.38" y="-486.93" font-family="Helvetica,sans-Serif" font-size="10.00">w2c__f262</text>
</a>
</g>
</g>
<!-- Node1&#45;&gt;Node2 -->
<g id="edge1_Node000001_Node000002" class="edge">
<title>Node1&#45;&gt;Node2</title>
<g id="a_edge1_Node000001_Node000002"><a xlink:title=" ">
<path fill="none" stroke="#63b8ff" d="M36.54,-305.74C41.45,-333.46 58.42,-408.22 103.75,-447.05 151.62,-488.05 177.35,-485.05 240.38,-485.05 240.38,-485.05 240.38,-485.05 346.12,-485.05 405.19,-485.05 473.35,-486.96 516.87,-488.41"/>
<polygon fill="#63b8ff" stroke="#63b8ff" points="516.57,-491.91 526.68,-488.75 516.81,-484.91 516.57,-491.91"/>
</a>
</g>
</g>
<!-- Node5 -->
<g id="Node000005" class="node">
<title>Node5</title>
<g id="a_Node000005"><a xlink:href="app_8c.html#a689596d504b22560679f02fa17647ac0" target="_top" xlink:title=" ">
<polygon fill="white" stroke="#666666" points="275.25,-115.43 207.5,-115.43 207.5,-94.68 275.25,-94.68 275.25,-115.43"/>
<text text-anchor="middle" x="241.38" y="-101.93" font-family="Helvetica,sans-Serif" font-size="10.00">w2c__f276</text>
</a>
</g>
</g>
<!-- Node1&#45;&gt;Node5 -->
<g id="edge4_Node000001_Node000005" class="edge">
<title>Node1&#45;&gt;Node5</title>
<g id="a_edge4_Node000001_Node000005"><a xlink:title=" ">
<path fill="none" stroke="#63b8ff" d="M38.03,-284.3C45.58,-260.25 66.88,-201.51 103.75,-167.05 129.91,-142.61 167.36,-126.54 196.44,-116.9"/>
<polygon fill="#63b8ff" stroke="#63b8ff" points="197.21,-120.33 205.69,-113.97 195.1,-113.65 197.21,-120.33"/>
</a>
</g>
</g>
<!-- Node6 -->
<g id="Node000006" class="node">
<title>Node6</title>
<g id="a_Node000006"><a xlink:href="app_8c.html#a78a17ac0e7e7f4db4d33e1a2e032ed58" target="_top" xlink:title=" ">
<polygon fill="white" stroke="#666666" points="379,-191.43 311.25,-191.43 311.25,-170.68 379,-170.68 379,-191.43"/>
<text text-anchor="middle" x="345.12" y="-177.93" font-family="Helvetica,sans-Serif" font-size="10.00">w2c__f387</text>
</a>
</g>
</g>
<!-- Node1&#45;&gt;Node6 -->
<g id="edge33_Node000001_Node000006" class="edge">
<title>Node1&#45;&gt;Node6</title>
<g id="a_edge33_Node000001_Node000006"><a xlink:title=" ">
<path fill="none" stroke="#63b8ff" d="M39.45,-284.44C48.51,-264.87 70.75,-223.44 103.75,-205.05 165.09,-170.86 249.04,-171.13 299.76,-175.41"/>
<polygon fill="#63b8ff" stroke="#63b8ff" points="299.2,-178.87 309.48,-176.32 299.85,-171.9 299.2,-178.87"/>
</a>
</g>
</g>
<!-- Node9 -->
<g id="Node000009" class="node">
<title>Node9</title>
<g id="a_Node000009"><a xlink:href="app_8c.html#ad63b6498cfe22ce747f349eeb23b508f" target="_top" xlink:title=" ">
<polygon fill="white" stroke="#666666" points="598.12,-211.43 526.62,-211.43 526.62,-190.68 598.12,-190.68 598.12,-211.43"/>
<text text-anchor="middle" x="562.38" y="-197.93" font-family="Helvetica,sans-Serif" font-size="10.00">wasm_fabs</text>
</a>
</g>
</g>
<!-- Node1&#45;&gt;Node9 -->
<g id="edge51_Node000001_Node000009" class="edge">
<title>Node1&#45;&gt;Node9</title>
<g id="a_edge51_Node000001_Node000009"><a xlink:title=" ">
<path fill="none" stroke="#63b8ff" d="M55.73,-284.19C69.12,-277.67 87.05,-269.76 103.75,-265.05 250.35,-223.71 431.22,-208.49 514.88,-203.38"/>
<polygon fill="#63b8ff" stroke="#63b8ff" points="514.98,-206.88 524.76,-202.8 514.57,-199.89 514.98,-206.88"/>
</a>
</g>
</g>
<!-- Node16 -->
<g id="Node000016" class="node">
<title>Node16</title>
<g id="a_Node000016"><a xlink:href="app_8c.html#a0e0dad0ebc52e45eeff2e1b5d8389ea4" target="_top" xlink:title=" ">
<polygon fill="white" stroke="#666666" points="596.25,-381.43 528.5,-381.43 528.5,-360.68 596.25,-360.68 596.25,-381.43"/>
<text text-anchor="middle" x="562.38" y="-367.93" font-family="Helvetica,sans-Serif" font-size="10.00">w2c__f534</text>
</a>
</g>
</g>
<!-- Node1&#45;&gt;Node16 -->
<g id="edge48_Node000001_Node000016" class="edge">
<title>Node1&#45;&gt;Node16</title>
<g id="a_edge48_Node000001_Node000016"><a xlink:title=" ">
<path fill="none" stroke="#63b8ff" d="M68.21,-286.85C130.35,-272.95 267.7,-248.8 379,-276.05 440.28,-291.05 503.86,-330.61 537.37,-353.68"/>
<polygon fill="#63b8ff" stroke="#63b8ff" points="535.32,-356.52 545.52,-359.39 539.34,-350.79 535.32,-356.52"/>
</a>
</g>
</g>
<!-- Node17 -->
<g id="Node000017" class="node">
<title>Node17</title>
<g id="a_Node000017"><a xlink:href="app_8c.html#a986f1214d53a515b2b887b8f988fa6a1" target="_top" xlink:title=" ">
<polygon fill="white" stroke="#666666" points="275.25,-571.43 207.5,-571.43 207.5,-550.68 275.25,-550.68 275.25,-571.43"/>
<text text-anchor="middle" x="241.38" y="-557.93" font-family="Helvetica,sans-Serif" font-size="10.00">w2c__f365</text>
</a>
</g>
</g>
<!-- Node1&#45;&gt;Node17 -->
<g id="edge19_Node000001_Node000017" class="edge">
<title>Node1&#45;&gt;Node17</title>
<g id="a_edge19_Node000001_Node000017"><a xlink:title=" ">
<path fill="none" stroke="#63b8ff" d="M35.57,-305.85C38.24,-338.94 50.6,-440.27 103.75,-499.05 128.07,-525.95 166.35,-541.93 196.2,-550.91"/>
<polygon fill="#63b8ff" stroke="#63b8ff" points="195.16,-554.25 205.73,-553.6 197.06,-547.51 195.16,-554.25"/>
</a>
</g>
</g>
<!-- Node22 -->
<g id="Node000022" class="node">
<title>Node22</title>
<g id="a_Node000022"><a xlink:href="app_8c.html#a800df00ef236c6d6affc3c661b37e3ad" target="_top" xlink:title=" ">
<polygon fill="white" stroke="#666666" points="596.25,-605.43 528.5,-605.43 528.5,-584.68 596.25,-584.68 596.25,-605.43"/>
<text text-anchor="middle" x="562.38" y="-591.93" font-family="Helvetica,sans-Serif" font-size="10.00">w2c__f487</text>
</a>
</g>
</g>
<!-- Node1&#45;&gt;Node22 -->
<g id="edge35_Node000001_Node000022" class="edge">
<title>Node1&#45;&gt;Node22</title>
<g id="a_edge35_Node000001_Node000022"><a xlink:title=" ">
<path fill="none" stroke="#63b8ff" d="M34.48,-305.73C33.57,-345.64 35.48,-488.01 103.75,-572.05 146.27,-624.39 172.94,-638.05 240.38,-638.05 240.38,-638.05 240.38,-638.05 346.12,-638.05 410.68,-638.05 427.41,-634.84 490.25,-620.05 501.5,-617.4 513.46,-613.61 524.29,-609.77"/>
<polygon fill="#63b8ff" stroke="#63b8ff" points="525.49,-613.06 533.67,-606.32 523.08,-606.48 525.49,-613.06"/>
</a>
</g>
</g>
<!-- Node23 -->
<g id="Node000023" class="node">
<title>Node23</title>
<g id="a_Node000023"><a xlink:href="app_8c.html#abe1f70c7c6938f6dce1f562507454958" target="_top" xlink:title=" ">
<polygon fill="white" stroke="#666666" points="275.25,-610.43 207.5,-610.43 207.5,-589.68 275.25,-589.68 275.25,-610.43"/>
<text text-anchor="middle" x="241.38" y="-596.93" font-family="Helvetica,sans-Serif" font-size="10.00">w2c__f371</text>
</a>
</g>
</g>
<!-- Node1&#45;&gt;Node23 -->
<g id="edge31_Node000001_Node000023" class="edge">
<title>Node1&#45;&gt;Node23</title>
<g id="a_edge31_Node000001_Node000023"><a xlink:title=" ">
<path fill="none" stroke="#63b8ff" d="M34.97,-305.82C35.83,-342.43 43.35,-463.79 103.75,-535.05 127.57,-563.16 166.31,-579.98 196.46,-589.44"/>
<polygon fill="#63b8ff" stroke="#63b8ff" points="195.11,-592.69 205.69,-592.17 197.09,-585.98 195.11,-592.69"/>
</a>
</g>
</g>
<!-- Node24 -->
<g id="Node000024" class="node">
<title>Node24</title>
<g id="a_Node000024"><a xlink:href="app_8c.html#aaa5b5afb90b318cc579a08368392f858" target="_top" xlink:title=" ">
<polygon fill="white" stroke="#666666" points="171.5,-438.43 103.75,-438.43 103.75,-417.68 171.5,-417.68 171.5,-438.43"/>
<text text-anchor="middle" x="137.62" y="-424.93" font-family="Helvetica,sans-Serif" font-size="10.00">w2c__f530</text>
</a>
</g>
</g>
<!-- Node1&#45;&gt;Node24 -->
<g id="edge36_Node000001_Node000024" class="edge">
<title>Node1&#45;&gt;Node24</title>
<g id="a_edge36_Node000001_Node000024"><a xlink:title=" ">
<path fill="none" stroke="#63b8ff" d="M42.86,-305.49C59.79,-327.62 99.54,-379.57 121.45,-408.22"/>
<polygon fill="#63b8ff" stroke="#63b8ff" points="118.62,-410.28 127.48,-416.09 124.18,-406.02 118.62,-410.28"/>
</a>
</g>
</g>
<!-- Node26 -->
<g id="Node000026" class="node">
<title>Node26</title>
<g id="a_Node000026"><a xlink:href="app_8c.html#a7c6f80e3a58bc541f1aa2c8ec1ce581e" target="_top" xlink:title=" ">
<polygon fill="white" stroke="#666666" points="379,-305.43 311.25,-305.43 311.25,-284.68 379,-284.68 379,-305.43"/>
<text text-anchor="middle" x="345.12" y="-291.93" font-family="Helvetica,sans-Serif" font-size="10.00">w2c__f563</text>
</a>
</g>
</g>
<!-- Node1&#45;&gt;Node26 -->
<g id="edge50_Node000001_Node000026" class="edge">
<title>Node1&#45;&gt;Node26</title>
<g id="a_edge50_Node000001_Node000026"><a xlink:title=" ">
<path fill="none" stroke="#63b8ff" d="M67.97,-295.05C123.74,-295.05 236.5,-295.05 299.31,-295.05"/>
<polygon fill="#63b8ff" stroke="#63b8ff" points="299.29,-298.55 309.29,-295.05 299.29,-291.55 299.29,-298.55"/>
</a>
</g>
</g>
<!-- Node27 -->
<g id="Node000027" class="node">
<title>Node27</title>
<g id="a_Node000027"><a xlink:href="app_8c.html#a4df6c4188b55679e160bd428e777400e" target="_top" xlink:title=" ">
<polygon fill="white" stroke="#666666" points="171.5,-115.43 103.75,-115.43 103.75,-94.68 171.5,-94.68 171.5,-115.43"/>
<text text-anchor="middle" x="137.62" y="-101.93" font-family="Helvetica,sans-Serif" font-size="10.00">w2c__f546</text>
</a>
</g>
</g>
<!-- Node1&#45;&gt;Node27 -->
<g id="edge49_Node000001_Node000027" class="edge">
<title>Node1&#45;&gt;Node27</title>
<g id="a_edge49_Node000001_Node000027"><a xlink:title=" ">
<path fill="none" stroke="#63b8ff" d="M37.18,-284.31C43.62,-256.27 64,-179.56 103.75,-129.05 105.51,-126.82 107.53,-124.69 109.68,-122.69"/>
<polygon fill="#63b8ff" stroke="#63b8ff" points="111.61,-125.63 117.21,-116.64 107.22,-120.18 111.61,-125.63"/>
</a>
</g>
</g>
<!-- Node3 -->
<g id="Node000003" class="node">
<title>Node3</title>
<g id="a_Node000003"><a xlink:href="app_8c.html#a16207b5f7a97b0ecfddd231452c5aa7e" target="_top" xlink:title=" ">
<polygon fill="white" stroke="#666666" points="702.25,-500.43 634.5,-500.43 634.5,-479.68 702.25,-479.68 702.25,-500.43"/>
<text text-anchor="middle" x="668.38" y="-486.93" font-family="Helvetica,sans-Serif" font-size="10.00">w2c__f263</text>
</a>
</g>
</g>
<!-- Node2&#45;&gt;Node3 -->
<g id="edge2_Node000002_Node000003" class="edge">
<title>Node2&#45;&gt;Node3</title>
<g id="a_edge2_Node000002_Node000003"><a xlink:title=" ">
<path fill="none" stroke="#63b8ff" d="M596.57,-490.05C604.92,-490.05 614.01,-490.05 622.82,-490.05"/>
<polygon fill="#63b8ff" stroke="#63b8ff" points="622.63,-493.55 632.63,-490.05 622.63,-486.55 622.63,-493.55"/>
</a>
</g>
</g>
<!-- Node4 -->
<g id="Node000004" class="node">
<title>Node4</title>
<g id="a_Node000004"><a xlink:href="app_8c.html#a71bcbce7faf780cd081af3fa82d6da97" target="_top" xlink:title=" ">
<polygon fill="white" stroke="#666666" points="702.25,-557.43 634.5,-557.43 634.5,-536.68 702.25,-536.68 702.25,-557.43"/>
<text text-anchor="middle" x="668.38" y="-543.93" font-family="Helvetica,sans-Serif" font-size="10.00">w2c__f437</text>
</a>
</g>
</g>
<!-- Node2&#45;&gt;Node4 -->
<g id="edge3_Node000002_Node000004" class="edge">
<title>Node2&#45;&gt;Node4</title>
<g id="a_edge3_Node000002_Node000004"><a xlink:title=" ">
<path fill="none" stroke="#63b8ff" d="M582.94,-500.77C598.38,-509.24 620.18,-521.19 637.76,-530.82"/>
<polygon fill="#63b8ff" stroke="#63b8ff" points="635.77,-533.72 646.22,-535.46 639.13,-527.58 635.77,-533.72"/>
</a>
</g>
</g>
<!-- Node5&#45;&gt;Node6 -->
<g id="edge5_Node000005_Node000006" class="edge">
<title>Node5&#45;&gt;Node6</title>
<g id="a_edge5_Node000005_Node000006"><a xlink:title=" ">
<path fill="none" stroke="#63b8ff" d="M256.57,-115.87C270.46,-126.44 292.24,-142.94 311.25,-157.05 314.11,-159.17 317.11,-161.39 320.1,-163.58"/>
<polygon fill="#63b8ff" stroke="#63b8ff" points="318,-166.38 328.14,-169.46 322.13,-160.73 318,-166.38"/>
</a>
</g>
</g>
<!-- Node12 -->
<g id="Node000012" class="node">
<title>Node12</title>
<g id="a_Node000012"><a xlink:href="app_8c.html#a0161d4a3780a29cba9293ace8f3136c1" target="_top" xlink:title=" ">
<polygon fill="white" stroke="#666666" points="379,-38.43 311.25,-38.43 311.25,-17.68 379,-17.68 379,-38.43"/>
<text text-anchor="middle" x="345.12" y="-24.93" font-family="Helvetica,sans-Serif" font-size="10.00">w2c__f389</text>
</a>
</g>
</g>
<!-- Node5&#45;&gt;Node12 -->
<g id="edge11_Node000005_Node000012" class="edge">
<title>Node5&#45;&gt;Node12</title>
<g id="a_edge11_Node000005_Node000012"><a xlink:title=" ">
<path fill="none" stroke="#63b8ff" d="M254.15,-94.41C267.53,-82.53 290.26,-63 311.25,-48.05 312.78,-46.96 314.38,-45.86 316,-44.78"/>
<polygon fill="#63b8ff" stroke="#63b8ff" points="317.56,-47.94 324.12,-39.62 313.8,-42.03 317.56,-47.94"/>
</a>
</g>
</g>
<!-- Node13 -->
<g id="Node000013" class="node">
<title>Node13</title>
<g id="a_Node000013"><a xlink:href="app_8c.html#a6a3265109241f98b3d5a4bfbfde2615a" target="_top" xlink:title=" ">
<polygon fill="white" stroke="#666666" points="379,-77.43 311.25,-77.43 311.25,-56.68 379,-56.68 379,-77.43"/>
<text text-anchor="middle" x="345.12" y="-63.93" font-family="Helvetica,sans-Serif" font-size="10.00">w2c__f475</text>
</a>
</g>
</g>
<!-- Node5&#45;&gt;Node13 -->
<g id="edge12_Node000005_Node000013" class="edge">
<title>Node5&#45;&gt;Node13</title>
<g id="a_edge12_Node000005_Node000013"><a xlink:title=" ">
<path fill="none" stroke="#63b8ff" d="M271.26,-94.26C281.57,-90.41 293.38,-86 304.44,-81.87"/>
<polygon fill="#63b8ff" stroke="#63b8ff" points="305.61,-85.17 313.75,-78.4 303.16,-78.61 305.61,-85.17"/>
</a>
</g>
</g>
<!-- Node14 -->
<g id="Node000014" class="node">
<title>Node14</title>
<g id="a_Node000014"><a xlink:href="app_8c.html#ae1c9fcb1e344576194464e3868b69f0e" target="_top" xlink:title=" ">
<polygon fill="white" stroke="#666666" points="486.5,-114.43 418.75,-114.43 418.75,-93.68 486.5,-93.68 486.5,-114.43"/>
<text text-anchor="middle" x="452.62" y="-100.93" font-family="Helvetica,sans-Serif" font-size="10.00">w2c__f518</text>
</a>
</g>
</g>
<!-- Node5&#45;&gt;Node14 -->
<g id="edge16_Node000005_Node000014" class="edge">
<title>Node5&#45;&gt;Node14</title>
<g id="a_edge16_Node000005_Node000014"><a xlink:title=" ">
<path fill="none" stroke="#63b8ff" d="M275.53,-104.89C311.01,-104.72 367.5,-104.45 406.89,-104.26"/>
<polygon fill="#63b8ff" stroke="#63b8ff" points="406.78,-107.77 416.76,-104.22 406.75,-100.77 406.78,-107.77"/>
</a>
</g>
</g>
<!-- Node15 -->
<g id="Node000015" class="node">
<title>Node15</title>
<g id="a_Node000015"><a xlink:href="app_8c.html#a43517182877370811f9852884f2e3844" target="_top" xlink:title=" ">
<polygon fill="white" stroke="#666666" points="490.25,-75.43 415,-75.43 415,-54.68 490.25,-54.68 490.25,-75.43"/>
<text text-anchor="middle" x="452.62" y="-61.93" font-family="Helvetica,sans-Serif" font-size="10.00">wasm_trunc</text>
</a>
</g>
</g>
<!-- Node5&#45;&gt;Node15 -->
<g id="edge18_Node000005_Node000015" class="edge">
<title>Node5&#45;&gt;Node15</title>
<g id="a_edge18_Node000005_Node000015"><a xlink:title=" ">
<path fill="none" stroke="#63b8ff" d="M246.18,-94.41C254.33,-73.46 275.66,-27.32 311.25,-9.05 338.04,4.7 350.5,0.66 379,-9.05 400.51,-16.38 420.61,-32.95 434.19,-46.17"/>
<polygon fill="#63b8ff" stroke="#63b8ff" points="431.55,-48.48 441.06,-53.17 436.55,-43.58 431.55,-48.48"/>
</a>
</g>
</g>
<!-- Node5&#45;&gt;Node16 -->
<g id="edge17_Node000005_Node000016" class="edge">
<title>Node5&#45;&gt;Node16</title>
<g id="a_edge17_Node000005_Node000016"><a xlink:title=" ">
<path fill="none" stroke="#63b8ff" d="M275.72,-114.23C304.8,-123.3 347.2,-139.14 379,-162.05 455.4,-217.09 521.48,-309.98 548.44,-350.79"/>
<polygon fill="#63b8ff" stroke="#63b8ff" points="545.5,-352.68 553.89,-359.15 551.36,-348.86 545.5,-352.68"/>
</a>
</g>
</g>
<!-- Node7 -->
<g id="Node000007" class="node">
<title>Node7</title>
<g id="a_Node000007"><a xlink:href="app_8c.html#a515b1589d484e4dc494f93ca155f6966" target="_top" xlink:title=" ">
<polygon fill="white" stroke="#666666" points="486.5,-153.43 418.75,-153.43 418.75,-132.68 486.5,-132.68 486.5,-153.43"/>
<text text-anchor="middle" x="452.62" y="-139.93" font-family="Helvetica,sans-Serif" font-size="10.00">w2c__f260</text>
</a>
</g>
</g>
<!-- Node6&#45;&gt;Node7 -->
<g id="edge6_Node000006_Node000007" class="edge">
<title>Node6&#45;&gt;Node7</title>
<g id="a_edge6_Node000006_Node000007"><a xlink:title=" ">
<path fill="none" stroke="#63b8ff" d="M376.07,-170.26C386.88,-166.37 399.26,-161.91 410.83,-157.74"/>
<polygon fill="#63b8ff" stroke="#63b8ff" points="411.95,-161.06 420.18,-154.38 409.58,-154.47 411.95,-161.06"/>
</a>
</g>
</g>
<!-- Node8 -->
<g id="Node000008" class="node">
<title>Node8</title>
<g id="a_Node000008"><a xlink:href="app_8c.html#af732b1ecf09ff688adde158c29714bcd" target="_top" xlink:title=" ">
<polygon fill="white" stroke="#666666" points="596.25,-114.43 528.5,-114.43 528.5,-93.68 596.25,-93.68 596.25,-114.43"/>
<text text-anchor="middle" x="562.38" y="-100.93" font-family="Helvetica,sans-Serif" font-size="10.00">w2c__f436</text>
</a>
</g>
</g>
<!-- Node7&#45;&gt;Node8 -->
<g id="edge7_Node000007_Node000008" class="edge">
<title>Node7&#45;&gt;Node8</title>
<g id="a_edge7_Node000007_Node000008"><a xlink:title=" ">
<path fill="none" stroke="#63b8ff" d="M483.64,-132.19C495.2,-128 508.59,-123.16 520.97,-118.67"/>
<polygon fill="#63b8ff" stroke="#63b8ff" points="521.89,-122.07 530.1,-115.37 519.5,-115.48 521.89,-122.07"/>
</a>
</g>
</g>
<!-- Node7&#45;&gt;Node9 -->
<g id="edge8_Node000007_Node000009" class="edge">
<title>Node7&#45;&gt;Node9</title>
<g id="a_edge8_Node000007_Node000009"><a xlink:title=" ">
<path fill="none" stroke="#63b8ff" d="M473.64,-153.82C489.89,-162.57 513.06,-175.05 531.51,-184.98"/>
<polygon fill="#63b8ff" stroke="#63b8ff" points="529.67,-187.96 540.14,-189.62 532.99,-181.8 529.67,-187.96"/>
</a>
</g>
</g>
<!-- Node10 -->
<g id="Node000010" class="node">
<title>Node10</title>
<g id="a_Node000010"><a xlink:href="app_8c.html#aca677a5348fb06a52413801823fa5291" target="_top" xlink:title=" ">
<polygon fill="white" stroke="#666666" points="598.5,-153.43 526.25,-153.43 526.25,-132.68 598.5,-132.68 598.5,-153.43"/>
<text text-anchor="middle" x="562.38" y="-139.93" font-family="Helvetica,sans-Serif" font-size="10.00">wasm_floor</text>
</a>
</g>
</g>
<!-- Node7&#45;&gt;Node10 -->
<g id="edge9_Node000007_Node000010" class="edge">
<title>Node7&#45;&gt;Node10</title>
<g id="a_edge9_Node000007_Node000010"><a xlink:title=" ">
<path fill="none" stroke="#63b8ff" d="M486.83,-143.05C495.53,-143.05 505.07,-143.05 514.34,-143.05"/>
<polygon fill="#63b8ff" stroke="#63b8ff" points="514.33,-146.55 524.33,-143.05 514.33,-139.55 514.33,-146.55"/>
</a>
</g>
</g>
<!-- Node11 -->
<g id="Node000011" class="node">
<title>Node11</title>
<g id="a_Node000011"><a xlink:href="app_8c.html#ae10979e670e507d4373e8cadcb3169aa" target="_top" xlink:title=" ">
<polygon fill="white" stroke="#666666" points="700.38,-115.43 636.38,-115.43 636.38,-94.68 700.38,-94.68 700.38,-115.43"/>
<text text-anchor="middle" x="668.38" y="-101.93" font-family="Helvetica,sans-Serif" font-size="10.00">quiet_nan</text>
</a>
</g>
</g>
<!-- Node10&#45;&gt;Node11 -->
<g id="edge10_Node000010_Node000011" class="edge">
<title>Node10&#45;&gt;Node11</title>
<g id="a_edge10_Node000010_Node000011"><a xlink:title=" ">
<path fill="none" stroke="#63b8ff" d="M592.9,-132.26C603.55,-128.37 615.75,-123.91 627.16,-119.74"/>
<polygon fill="#63b8ff" stroke="#63b8ff" points="628.16,-123.1 636.36,-116.38 625.76,-116.53 628.16,-123.1"/>
</a>
</g>
</g>
<!-- Node13&#45;&gt;Node14 -->
<g id="edge13_Node000013_Node000014" class="edge">
<title>Node13&#45;&gt;Node14</title>
<g id="a_edge13_Node000013_Node000014"><a xlink:title=" ">
<path fill="none" stroke="#63b8ff" d="M376.92,-77.85C387.32,-81.5 399.11,-85.63 410.2,-89.52"/>
<polygon fill="#63b8ff" stroke="#63b8ff" points="408.95,-92.79 419.54,-92.8 411.26,-86.19 408.95,-92.79"/>
</a>
</g>
</g>
<!-- Node13&#45;&gt;Node15 -->
<g id="edge14_Node000013_Node000015" class="edge">
<title>Node13&#45;&gt;Node15</title>
<g id="a_edge14_Node000013_Node000015"><a xlink:title=" ">
<path fill="none" stroke="#63b8ff" d="M379.22,-66.42C386.86,-66.28 395.14,-66.12 403.28,-65.97"/>
<polygon fill="#63b8ff" stroke="#63b8ff" points="403.17,-69.47 413.1,-65.78 403.03,-62.47 403.17,-69.47"/>
</a>
</g>
</g>
<!-- Node15&#45;&gt;Node11 -->
<g id="edge15_Node000015_Node000011" class="edge">
<title>Node15&#45;&gt;Node11</title>
<g id="a_edge15_Node000015_Node000011"><a xlink:title=" ">
<path fill="none" stroke="#63b8ff" d="M490.5,-68.64C519.93,-71.87 562.12,-77.3 598.5,-85.05 607.23,-86.91 616.48,-89.3 625.27,-91.77"/>
<polygon fill="#63b8ff" stroke="#63b8ff" points="624.04,-95.06 634.62,-94.5 626,-88.34 624.04,-95.06"/>
</a>
</g>
</g>
<!-- Node18 -->
<g id="Node000018" class="node">
<title>Node18</title>
<g id="a_Node000018"><a xlink:href="app_8c.html#a14e021d2f1b59e04757852f66bff1044" target="_top" xlink:title=" ">
<polygon fill="white" stroke="#666666" points="379,-572.43 311.25,-572.43 311.25,-551.68 379,-551.68 379,-572.43"/>
<text text-anchor="middle" x="345.12" y="-558.93" font-family="Helvetica,sans-Serif" font-size="10.00">w2c__f511</text>
</a>
</g>
</g>
<!-- Node17&#45;&gt;Node18 -->
<g id="edge20_Node000017_Node000018" class="edge">
<title>Node17&#45;&gt;Node18</title>
<g id="a_edge20_Node000017_Node000018"><a xlink:title=" ">
<path fill="none" stroke="#63b8ff" d="M275.69,-561.38C283.32,-561.45 291.56,-561.53 299.58,-561.61"/>
<polygon fill="#63b8ff" stroke="#63b8ff" points="299.53,-565.11 309.57,-561.71 299.6,-558.11 299.53,-565.11"/>
</a>
</g>
</g>
<!-- Node19 -->
<g id="Node000019" class="node">
<title>Node19</title>
<g id="a_Node000019"><a xlink:href="app_8c.html#aa58fd7f1d3aab8404d7f71d334a8a108" target="_top" xlink:title=" ">
<polygon fill="white" stroke="#666666" points="486.5,-533.43 418.75,-533.43 418.75,-512.68 486.5,-512.68 486.5,-533.43"/>
<text text-anchor="middle" x="452.62" y="-519.93" font-family="Helvetica,sans-Serif" font-size="10.00">w2c__f211</text>
</a>
</g>
</g>
<!-- Node18&#45;&gt;Node19 -->
<g id="edge21_Node000018_Node000019" class="edge">
<title>Node18&#45;&gt;Node19</title>
<g id="a_edge21_Node000018_Node000019"><a xlink:title=" ">
<path fill="none" stroke="#63b8ff" d="M375.51,-551.19C386.72,-547.05 399.68,-542.25 411.7,-537.81"/>
<polygon fill="#63b8ff" stroke="#63b8ff" points="412.81,-541.13 420.98,-534.38 410.38,-534.57 412.81,-541.13"/>
</a>
</g>
</g>
<!-- Node21 -->
<g id="Node000021" class="node">
<title>Node21</title>
<g id="a_Node000021"><a xlink:href="app_8c.html#a8c90e9acf2d5915eb0476bc13964c4db" target="_top" xlink:title=" ">
<polygon fill="white" stroke="#666666" points="486.5,-572.43 418.75,-572.43 418.75,-551.68 486.5,-551.68 486.5,-572.43"/>
<text text-anchor="middle" x="452.62" y="-558.93" font-family="Helvetica,sans-Serif" font-size="10.00">w2c__f345</text>
</a>
</g>
</g>
<!-- Node18&#45;&gt;Node21 -->
<g id="edge25_Node000018_Node000021" class="edge">
<title>Node18&#45;&gt;Node21</title>
<g id="a_edge25_Node000018_Node000021"><a xlink:title=" ">
<path fill="none" stroke="#63b8ff" d="M379.22,-562.05C387.97,-562.05 397.56,-562.05 406.83,-562.05"/>
<polygon fill="#63b8ff" stroke="#63b8ff" points="406.77,-565.55 416.77,-562.05 406.77,-558.55 406.77,-565.55"/>
</a>
</g>
</g>
<!-- Node19&#45;&gt;Node2 -->
<g id="edge22_Node000019_Node000002" class="edge">
<title>Node19&#45;&gt;Node2</title>
<g id="a_edge22_Node000019_Node000002"><a xlink:title=" ">
<path fill="none" stroke="#63b8ff" d="M486.83,-512.88C496.46,-509.93 507.12,-506.67 517.31,-503.55"/>
<polygon fill="#63b8ff" stroke="#63b8ff" points="518.11,-506.96 526.64,-500.69 516.06,-500.27 518.11,-506.96"/>
</a>
</g>
</g>
<!-- Node20 -->
<g id="Node000020" class="node">
<title>Node20</title>
<g id="a_Node000020"><a xlink:href="app_8c.html#a31b08a294227a9fc0a529e66ccd915dc" target="_top" xlink:title=" ">
<polygon fill="white" stroke="#666666" points="596.25,-557.43 528.5,-557.43 528.5,-536.68 596.25,-536.68 596.25,-557.43"/>
<text text-anchor="middle" x="562.38" y="-543.93" font-family="Helvetica,sans-Serif" font-size="10.00">w2c__f325</text>
</a>
</g>
</g>
<!-- Node19&#45;&gt;Node20 -->
<g id="edge23_Node000019_Node000020" class="edge">
<title>Node19&#45;&gt;Node20</title>
<g id="a_edge23_Node000019_Node000020"><a xlink:title=" ">
<path fill="none" stroke="#63b8ff" d="M486.83,-530.45C496.36,-532.57 506.9,-534.92 516.98,-537.16"/>
<polygon fill="#63b8ff" stroke="#63b8ff" points="516.09,-540.55 526.61,-539.31 517.61,-533.72 516.09,-540.55"/>
</a>
</g>
</g>
<!-- Node20&#45;&gt;Node4 -->
<g id="edge24_Node000020_Node000004" class="edge">
<title>Node20&#45;&gt;Node4</title>
<g id="a_edge24_Node000020_Node000004"><a xlink:title=" ">
<path fill="none" stroke="#63b8ff" d="M596.57,-547.05C604.92,-547.05 614.01,-547.05 622.82,-547.05"/>
<polygon fill="#63b8ff" stroke="#63b8ff" points="622.63,-550.55 632.63,-547.05 622.63,-543.55 622.63,-550.55"/>
</a>
</g>
</g>
<!-- Node21&#45;&gt;Node2 -->
<g id="edge26_Node000021_Node000002" class="edge">
<title>Node21&#45;&gt;Node2</title>
<g id="a_edge26_Node000021_Node000002"><a xlink:title=" ">
<path fill="none" stroke="#63b8ff" d="M474.43,-551.3C479.67,-548.43 485.23,-545.23 490.25,-542.05 507.14,-531.33 525.34,-517.99 539.1,-507.5"/>
<polygon fill="#63b8ff" stroke="#63b8ff" points="540.86,-510.56 546.65,-501.69 536.59,-505.02 540.86,-510.56"/>
</a>
</g>
</g>
<!-- Node21&#45;&gt;Node16 -->
<g id="edge30_Node000021_Node000016" class="edge">
<title>Node21&#45;&gt;Node16</title>
<g id="a_edge30_Node000021_Node000016"><a xlink:title=" ">
<path fill="none" stroke="#63b8ff" d="M478.92,-551.23C483.07,-548.66 487.05,-545.61 490.25,-542.05 511.05,-518.93 541.03,-433.11 554.44,-392.55"/>
<polygon fill="#63b8ff" stroke="#63b8ff" points="557.72,-393.78 557.5,-383.19 551.06,-391.6 557.72,-393.78"/>
</a>
</g>
</g>
<!-- Node21&#45;&gt;Node20 -->
<g id="edge27_Node000021_Node000020" class="edge">
<title>Node21&#45;&gt;Node20</title>
<g id="a_edge27_Node000021_Node000020"><a xlink:title=" ">
<path fill="none" stroke="#63b8ff" d="M486.83,-557.43C496.36,-556.1 506.9,-554.63 516.98,-553.23"/>
<polygon fill="#63b8ff" stroke="#63b8ff" points="517.17,-556.74 526.59,-551.89 516.21,-549.81 517.17,-556.74"/>
</a>
</g>
</g>
<!-- Node21&#45;&gt;Node22 -->
<g id="edge28_Node000021_Node000022" class="edge">
<title>Node21&#45;&gt;Node22</title>
<g id="a_edge28_Node000021_Node000022"><a xlink:title=" ">
<path fill="none" stroke="#63b8ff" d="M486.83,-572.22C496.46,-575.17 507.12,-578.44 517.31,-581.55"/>
<polygon fill="#63b8ff" stroke="#63b8ff" points="516.06,-584.83 526.64,-584.41 518.11,-578.14 516.06,-584.83"/>
</a>
</g>
</g>
<!-- Node22&#45;&gt;Node4 -->
<g id="edge29_Node000022_Node000004" class="edge">
<title>Node22&#45;&gt;Node4</title>
<g id="a_edge29_Node000022_Node000004"><a xlink:title=" ">
<path fill="none" stroke="#63b8ff" d="M586.71,-584.28C600.63,-577.86 618.53,-569.59 633.93,-562.49"/>
<polygon fill="#63b8ff" stroke="#63b8ff" points="635.13,-565.79 642.74,-558.42 632.19,-559.43 635.13,-565.79"/>
</a>
</g>
</g>
<!-- Node23&#45;&gt;Node18 -->
<g id="edge32_Node000023_Node000018" class="edge">
<title>Node23&#45;&gt;Node18</title>
<g id="a_edge32_Node000023_Node000018"><a xlink:title=" ">
<path fill="none" stroke="#63b8ff" d="M271.26,-589.26C281.57,-585.41 293.38,-581 304.44,-576.87"/>
<polygon fill="#63b8ff" stroke="#63b8ff" points="305.61,-580.17 313.75,-573.4 303.16,-573.61 305.61,-580.17"/>
</a>
</g>
</g>
<!-- Node24&#45;&gt;Node2 -->
<g id="edge37_Node000024_Node000002" class="edge">
<title>Node24&#45;&gt;Node2</title>
<g id="a_edge37_Node000024_Node000002"><a xlink:title=" ">
<path fill="none" stroke="#63b8ff" d="M171.83,-430.56C234.5,-435.63 374.32,-448.59 490.25,-471.05 499.07,-472.76 508.41,-474.96 517.32,-477.26"/>
<polygon fill="#63b8ff" stroke="#63b8ff" points="516.28,-480.61 526.85,-479.8 518.09,-473.84 516.28,-480.61"/>
</a>
</g>
</g>
<!-- Node24&#45;&gt;Node9 -->
<g id="edge47_Node000024_Node000009" class="edge">
<title>Node24&#45;&gt;Node9</title>
<g id="a_edge47_Node000024_Node000009"><a xlink:title=" ">
<path fill="none" stroke="#63b8ff" d="M168.79,-417.18C231.49,-393.91 379.26,-335.43 490.25,-263.05 509.61,-250.43 529.23,-232.88 542.95,-219.68"/>
<polygon fill="#63b8ff" stroke="#63b8ff" points="545.29,-222.29 549.97,-212.79 540.38,-217.3 545.29,-222.29"/>
</a>
</g>
</g>
<!-- Node24&#45;&gt;Node16 -->
<g id="edge46_Node000024_Node000016" class="edge">
<title>Node24&#45;&gt;Node16</title>
<g id="a_edge46_Node000024_Node000016"><a xlink:title=" ">
<path fill="none" stroke="#63b8ff" d="M171.8,-423.58C247.18,-413.41 431.42,-388.57 516.71,-377.07"/>
<polygon fill="#63b8ff" stroke="#63b8ff" points="517.12,-380.55 526.56,-375.74 516.19,-373.61 517.12,-380.55"/>
</a>
</g>
</g>
<!-- Node24&#45;&gt;Node17 -->
<g id="edge38_Node000024_Node000017" class="edge">
<title>Node24&#45;&gt;Node17</title>
<g id="a_edge38_Node000024_Node000017"><a xlink:title=" ">
<path fill="none" stroke="#63b8ff" d="M143.72,-438.87C153.83,-459.57 177.99,-505.49 207.5,-537.05 209.48,-539.17 211.68,-541.23 213.97,-543.2"/>
<polygon fill="#63b8ff" stroke="#63b8ff" points="211.75,-545.91 221.8,-549.28 216.05,-540.38 211.75,-545.91"/>
</a>
</g>
</g>
<!-- Node24&#45;&gt;Node22 -->
<g id="edge45_Node000024_Node000022" class="edge">
<title>Node24&#45;&gt;Node22</title>
<g id="a_edge45_Node000024_Node000022"><a xlink:title=" ">
<path fill="none" stroke="#63b8ff" d="M152.71,-438.81C178.06,-458.4 232.72,-501.6 275.25,-542.05 292.34,-558.31 289.91,-570.99 311.25,-581.05 377.63,-612.35 465.17,-608.47 517.14,-602.19"/>
<polygon fill="#63b8ff" stroke="#63b8ff" points="517.33,-605.7 526.79,-600.93 516.43,-598.75 517.33,-605.7"/>
</a>
</g>
</g>
<!-- Node24&#45;&gt;Node23 -->
<g id="edge39_Node000024_Node000023" class="edge">
<title>Node24&#45;&gt;Node23</title>
<g id="a_edge39_Node000024_Node000023"><a xlink:title=" ">
<path fill="none" stroke="#63b8ff" d="M141.15,-438.84C147.84,-465.56 168.31,-535.81 207.5,-580.05 208.18,-580.82 208.89,-581.56 209.64,-582.29"/>
<polygon fill="#63b8ff" stroke="#63b8ff" points="207.24,-584.86 217.25,-588.32 211.59,-579.37 207.24,-584.86"/>
</a>
</g>
</g>
<!-- Node25 -->
<g id="Node000025" class="node">
<title>Node25</title>
<g id="a_Node000025"><a xlink:href="app_8c.html#a8ce57e1cc8f9eb811e47ebb0255bf93c" target="_top" xlink:title=" ">
<polygon fill="white" stroke="#666666" points="275.25,-343.43 207.5,-343.43 207.5,-322.68 275.25,-322.68 275.25,-343.43"/>
<text text-anchor="middle" x="241.38" y="-329.93" font-family="Helvetica,sans-Serif" font-size="10.00">w2c__f439</text>
</a>
</g>
</g>
<!-- Node24&#45;&gt;Node25 -->
<g id="edge40_Node000024_Node000025" class="edge">
<title>Node24&#45;&gt;Node25</title>
<g id="a_edge40_Node000024_Node000025"><a xlink:title=" ">
<path fill="none" stroke="#63b8ff" d="M147.92,-417.39C160.69,-403 184.69,-376.88 207.5,-357.05 210,-354.88 212.69,-352.7 215.41,-350.58"/>
<polygon fill="#63b8ff" stroke="#63b8ff" points="217.42,-353.44 223.36,-344.66 213.25,-347.83 217.42,-353.44"/>
</a>
</g>
</g>
<!-- Node25&#45;&gt;Node2 -->
<g id="edge41_Node000025_Node000002" class="edge">
<title>Node25&#45;&gt;Node2</title>
<g id="a_edge41_Node000025_Node000002"><a xlink:title=" ">
<path fill="none" stroke="#63b8ff" d="M275.48,-342.97C324.38,-358.38 417.96,-390.74 490.25,-433.05 508.89,-443.96 527.88,-459.44 541.54,-471.52"/>
<polygon fill="#63b8ff" stroke="#63b8ff" points="539.19,-474.11 548.95,-478.22 543.88,-468.92 539.19,-474.11"/>
</a>
</g>
</g>
<!-- Node25&#45;&gt;Node6 -->
<g id="edge42_Node000025_Node000006" class="edge">
<title>Node25&#45;&gt;Node6</title>
<g id="a_edge42_Node000025_Node000006"><a xlink:title=" ">
<path fill="none" stroke="#63b8ff" d="M249.37,-322.6C266.14,-297.55 308.88,-233.7 330.77,-201"/>
<polygon fill="#63b8ff" stroke="#63b8ff" points="333.59,-203.09 336.24,-192.83 327.77,-199.19 333.59,-203.09"/>
</a>
</g>
</g>
<!-- Node25&#45;&gt;Node26 -->
<g id="edge43_Node000025_Node000026" class="edge">
<title>Node25&#45;&gt;Node26</title>
<g id="a_edge43_Node000025_Node000026"><a xlink:title=" ">
<path fill="none" stroke="#63b8ff" d="M271.26,-322.26C281.57,-318.41 293.38,-314 304.44,-309.87"/>
<polygon fill="#63b8ff" stroke="#63b8ff" points="305.61,-313.17 313.75,-306.4 303.16,-306.61 305.61,-313.17"/>
</a>
</g>
</g>
<!-- Node26&#45;&gt;Node9 -->
<g id="edge44_Node000026_Node000009" class="edge">
<title>Node26&#45;&gt;Node9</title>
<g id="a_edge44_Node000026_Node000009"><a xlink:title=" ">
<path fill="none" stroke="#63b8ff" d="M370.82,-284.27C408.99,-267.6 482.49,-235.5 526.21,-216.41"/>
<polygon fill="#63b8ff" stroke="#63b8ff" points="527.49,-219.67 535.25,-212.46 524.69,-213.25 527.49,-219.67"/>
</a>
</g>
</g>
</g>
</svg>
