<?xml version="1.0" encoding="UTF-8" standalone="no"?>
<!DOCTYPE svg PUBLIC "-//W3C//DTD SVG 1.1//EN"
 "http://www.w3.org/Graphics/SVG/1.1/DTD/svg11.dtd">
<!-- Generated by graphviz version 12.2.1 (0)
 -->
<!-- Title: w2c__f223 Pages: 1 -->
<svg width="712pt" height="489pt"
 viewBox="0.00 0.00 711.50 488.75" xmlns="http://www.w3.org/2000/svg" xmlns:xlink="http://www.w3.org/1999/xlink">
<g id="graph0" class="graph" transform="scale(1 1) rotate(0) translate(4 484.75)">
<title>w2c__f223</title>
<!-- Node1 -->
<g id="Node000001" class="node">
<title>Node1</title>
<g id="a_Node000001"><a xlink:title=" ">
<polygon fill="#999999" stroke="#666666" points="703.5,-213.75 635.75,-213.75 635.75,-193 703.5,-193 703.5,-213.75"/>
<text text-anchor="middle" x="669.62" y="-200.25" font-family="Helvetica,sans-Serif" font-size="10.00">w2c__f223</text>
</a>
</g>
</g>
<!-- Node2 -->
<g id="Node000002" class="node">
<title>Node2</title>
<g id="a_Node000002"><a xlink:href="app_8c.html#aeb12ecc9385837eed1de8b75424f1317" target="_top" xlink:title=" ">
<polygon fill="white" stroke="#666666" points="585.12,-403.75 517.38,-403.75 517.38,-383 585.12,-383 585.12,-403.75"/>
<text text-anchor="middle" x="551.25" y="-390.25" font-family="Helvetica,sans-Serif" font-size="10.00">w2c__f205</text>
</a>
</g>
</g>
<!-- Node1&#45;&gt;Node2 -->
<g id="edge1_Node000001_Node000002" class="edge">
<title>Node1&#45;&gt;Node2</title>
<g id="a_edge1_Node000001_Node000002"><a xlink:title=" ">
<path fill="none" stroke="#63b8ff" d="M664.66,-225.19C657.37,-259.69 638.88,-327.21 599.75,-369.38 594.72,-374.79 588.2,-379.17 581.6,-382.62"/>
<polygon fill="#63b8ff" stroke="#63b8ff" points="668.05,-226.06 666.56,-215.57 661.18,-224.71 668.05,-226.06"/>
</a>
</g>
</g>
<!-- Node3 -->
<g id="Node000003" class="node">
<title>Node3</title>
<g id="a_Node000003"><a xlink:href="app_8c.html#a6c30f2996216fe44cdda84ff266f8b19" target="_top" xlink:title=" ">
<polygon fill="white" stroke="#666666" points="319.12,-346.75 251.38,-346.75 251.38,-326 319.12,-326 319.12,-346.75"/>
<text text-anchor="middle" x="285.25" y="-333.25" font-family="Helvetica,sans-Serif" font-size="10.00">w2c__f362</text>
</a>
</g>
</g>
<!-- Node1&#45;&gt;Node3 -->
<g id="edge20_Node000001_Node000003" class="edge">
<title>Node1&#45;&gt;Node3</title>
<g id="a_edge20_Node000001_Node000003"><a xlink:title=" ">
<path fill="none" stroke="#63b8ff" d="M650.26,-222.02C637.17,-234.4 618.61,-250.19 599.75,-260.38 506.12,-310.94 378.79,-328.31 319.35,-333.91"/>
<polygon fill="#63b8ff" stroke="#63b8ff" points="652.58,-224.65 657.3,-215.16 647.7,-219.63 652.58,-224.65"/>
</a>
</g>
</g>
<!-- Node7 -->
<g id="Node000007" class="node">
<title>Node7</title>
<g id="a_Node000007"><a xlink:href="app_8c.html#abd18007c72da8f8fc079e9cdba2cef93" target="_top" xlink:title=" ">
<polygon fill="white" stroke="#666666" points="452.12,-175.75 384.38,-175.75 384.38,-155 452.12,-155 452.12,-175.75"/>
<text text-anchor="middle" x="418.25" y="-162.25" font-family="Helvetica,sans-Serif" font-size="10.00">w2c__f252</text>
</a>
</g>
</g>
<!-- Node1&#45;&gt;Node7 -->
<g id="edge6_Node000001_Node000007" class="edge">
<title>Node1&#45;&gt;Node7</title>
<g id="a_edge6_Node000001_Node000007"><a xlink:title=" ">
<path fill="none" stroke="#63b8ff" d="M624.22,-193.89C616.1,-192.28 607.68,-190.71 599.75,-189.38 548.62,-180.79 488.92,-173.35 452.62,-169.12"/>
<polygon fill="#63b8ff" stroke="#63b8ff" points="623.45,-197.3 633.95,-195.85 624.84,-190.44 623.45,-197.3"/>
</a>
</g>
</g>
<!-- Node8 -->
<g id="Node000008" class="node">
<title>Node8</title>
<g id="a_Node000008"><a xlink:href="app_8c.html#a512669319fec7c2cbf61fd668bc650c9" target="_top" xlink:title=" ">
<polygon fill="white" stroke="#666666" points="319.12,-118.75 251.38,-118.75 251.38,-98 319.12,-98 319.12,-118.75"/>
<text text-anchor="middle" x="285.25" y="-105.25" font-family="Helvetica,sans-Serif" font-size="10.00">w2c__f343</text>
</a>
</g>
</g>
<!-- Node1&#45;&gt;Node8 -->
<g id="edge19_Node000001_Node000008" class="edge">
<title>Node1&#45;&gt;Node8</title>
<g id="a_edge19_Node000001_Node000008"><a xlink:title=" ">
<path fill="none" stroke="#63b8ff" d="M624.25,-209.4C563.98,-215.66 454.12,-220.14 369.75,-184.38 336.18,-170.14 307.31,-136.47 294.04,-119.12"/>
<polygon fill="#63b8ff" stroke="#63b8ff" points="624.56,-212.89 634.11,-208.31 623.78,-205.93 624.56,-212.89"/>
</a>
</g>
</g>
<!-- Node11 -->
<g id="Node000011" class="node">
<title>Node11</title>
<g id="a_Node000011"><a xlink:href="app_8c.html#ad554c83ea8f2f1b6e67921e2fd7b7ffc" target="_top" xlink:title=" ">
<polygon fill="white" stroke="#666666" points="585.12,-98.75 517.38,-98.75 517.38,-78 585.12,-78 585.12,-98.75"/>
<text text-anchor="middle" x="551.25" y="-85.25" font-family="Helvetica,sans-Serif" font-size="10.00">w2c__f285</text>
</a>
</g>
</g>
<!-- Node1&#45;&gt;Node11 -->
<g id="edge10_Node000001_Node000011" class="edge">
<title>Node1&#45;&gt;Node11</title>
<g id="a_edge10_Node000001_Node000011"><a xlink:title=" ">
<path fill="none" stroke="#63b8ff" d="M658.18,-182.91C646.48,-161.75 625.7,-128.98 599.75,-108.38 595.26,-104.81 590.05,-101.78 584.76,-99.24"/>
<polygon fill="#63b8ff" stroke="#63b8ff" points="654.95,-184.28 662.74,-191.46 661.12,-180.98 654.95,-184.28"/>
</a>
</g>
</g>
<!-- Node12 -->
<g id="Node000012" class="node">
<title>Node12</title>
<g id="a_Node000012"><a xlink:href="app_8c.html#a172dc6e51e60b69c5871fbabfa215af9" target="_top" xlink:title=" ">
<polygon fill="white" stroke="#666666" points="452.12,-480.75 384.38,-480.75 384.38,-460 452.12,-460 452.12,-480.75"/>
<text text-anchor="middle" x="418.25" y="-467.25" font-family="Helvetica,sans-Serif" font-size="10.00">w2c__f288</text>
</a>
</g>
</g>
<!-- Node1&#45;&gt;Node12 -->
<g id="edge12_Node000001_Node000012" class="edge">
<title>Node1&#45;&gt;Node12</title>
<g id="a_edge12_Node000001_Node000012"><a xlink:title=" ">
<path fill="none" stroke="#63b8ff" d="M667.67,-225.66C664.66,-267.99 652.09,-360.42 599.75,-412.38 559.8,-452.03 492.69,-464.58 452.52,-468.55"/>
<polygon fill="#63b8ff" stroke="#63b8ff" points="671.16,-225.93 668.25,-215.74 664.18,-225.52 671.16,-225.93"/>
</a>
</g>
</g>
<!-- Node13 -->
<g id="Node000013" class="node">
<title>Node13</title>
<g id="a_Node000013"><a xlink:href="app_8c.html#ab437815594eb4e8c7676d529f946de25" target="_top" xlink:title=" ">
<polygon fill="white" stroke="#666666" points="585.12,-251.75 517.38,-251.75 517.38,-231 585.12,-231 585.12,-251.75"/>
<text text-anchor="middle" x="551.25" y="-238.25" font-family="Helvetica,sans-Serif" font-size="10.00">w2c__f328</text>
</a>
</g>
</g>
<!-- Node1&#45;&gt;Node13 -->
<g id="edge14_Node000001_Node000013" class="edge">
<title>Node1&#45;&gt;Node13</title>
<g id="a_edge14_Node000001_Node000013"><a xlink:title=" ">
<path fill="none" stroke="#63b8ff" d="M624.9,-217.65C611.8,-221.93 597.66,-226.55 585.37,-230.56"/>
<polygon fill="#63b8ff" stroke="#63b8ff" points="625.73,-221.06 634.15,-214.63 623.56,-214.41 625.73,-221.06"/>
</a>
</g>
</g>
<!-- Node16 -->
<g id="Node000016" class="node">
<title>Node16</title>
<g id="a_Node000016"><a xlink:href="app_8c.html#a05fd87b7f41136119e8d7698caac1f5c" target="_top" xlink:title=" ">
<polygon fill="white" stroke="#666666" points="585.12,-59.75 517.38,-59.75 517.38,-39 585.12,-39 585.12,-59.75"/>
<text text-anchor="middle" x="551.25" y="-46.25" font-family="Helvetica,sans-Serif" font-size="10.00">w2c__f423</text>
</a>
</g>
</g>
<!-- Node1&#45;&gt;Node16 -->
<g id="edge21_Node000001_Node000016" class="edge">
<title>Node1&#45;&gt;Node16</title>
<g id="a_edge21_Node000001_Node000016"><a xlink:title=" ">
<path fill="none" stroke="#63b8ff" d="M662.66,-181.83C653.58,-152.71 633.66,-100.8 599.75,-69.38 595.55,-65.48 590.48,-62.29 585.24,-59.68"/>
<polygon fill="#63b8ff" stroke="#63b8ff" points="659.28,-182.75 665.47,-191.35 665.99,-180.76 659.28,-182.75"/>
</a>
</g>
</g>
<!-- Node17 -->
<g id="Node000017" class="node">
<title>Node17</title>
<g id="a_Node000017"><a xlink:href="app_8c.html#a1e1380e4c537909f6add6fd427bdd8dc" target="_top" xlink:title=" ">
<polygon fill="white" stroke="#666666" points="452.12,-365.75 384.38,-365.75 384.38,-345 452.12,-345 452.12,-365.75"/>
<text text-anchor="middle" x="418.25" y="-352.25" font-family="Helvetica,sans-Serif" font-size="10.00">w2c__f492</text>
</a>
</g>
</g>
<!-- Node1&#45;&gt;Node17 -->
<g id="edge23_Node000001_Node000017" class="edge">
<title>Node1&#45;&gt;Node17</title>
<g id="a_edge23_Node000001_Node000017"><a xlink:title=" ">
<path fill="none" stroke="#63b8ff" d="M663.46,-225.29C655.3,-254.66 636.44,-306.02 599.75,-331.38 555.8,-361.75 491.21,-362.48 452.39,-359.47"/>
<polygon fill="#63b8ff" stroke="#63b8ff" points="666.84,-226.21 665.94,-215.66 660.06,-224.46 666.84,-226.21"/>
</a>
</g>
</g>
<!-- Node18 -->
<g id="Node000018" class="node">
<title>Node18</title>
<g id="a_Node000018"><a xlink:href="app_8c.html#ac550aaba82d57d6f9e0af73ab1dd2c1e" target="_top" xlink:title=" ">
<polygon fill="white" stroke="#666666" points="585.12,-137.75 517.38,-137.75 517.38,-117 585.12,-117 585.12,-137.75"/>
<text text-anchor="middle" x="551.25" y="-124.25" font-family="Helvetica,sans-Serif" font-size="10.00">w2c__f575</text>
</a>
</g>
</g>
<!-- Node1&#45;&gt;Node18 -->
<g id="edge25_Node000001_Node000018" class="edge">
<title>Node1&#45;&gt;Node18</title>
<g id="a_edge25_Node000001_Node000018"><a xlink:title=" ">
<path fill="none" stroke="#63b8ff" d="M647.12,-185.56C633.88,-175 616.33,-161.7 599.75,-151.38 592.07,-146.59 583.3,-141.95 575.41,-138.04"/>
<polygon fill="#63b8ff" stroke="#63b8ff" points="644.77,-188.16 654.74,-191.73 649.17,-182.72 644.77,-188.16"/>
</a>
</g>
</g>
<!-- Node20 -->
<g id="Node000020" class="node">
<title>Node20</title>
<g id="a_Node000020"><a xlink:href="app_8c.html#a3de86bd230a69b566ed9d4ef91fe2ba1" target="_top" xlink:title=" ">
<polygon fill="white" stroke="#666666" points="599.75,-20.75 502.75,-20.75 502.75,0 599.75,0 599.75,-20.75"/>
<text text-anchor="middle" x="551.25" y="-7.25" font-family="Helvetica,sans-Serif" font-size="10.00">wrap_w2c__f223</text>
</a>
</g>
</g>
<!-- Node1&#45;&gt;Node20 -->
<g id="edge29_Node000001_Node000020" class="edge">
<title>Node1&#45;&gt;Node20</title>
<g id="a_edge29_Node000001_Node000020"><a xlink:title=" ">
<path fill="none" stroke="#63b8ff" d="M665.53,-181.83C659.31,-145.92 642.06,-73.53 599.75,-30.38 596.12,-26.67 591.69,-23.62 587.02,-21.11"/>
<polygon fill="#63b8ff" stroke="#63b8ff" points="662.03,-182.08 667.06,-191.41 668.94,-180.98 662.03,-182.08"/>
</a>
</g>
</g>
<!-- Node2&#45;&gt;Node3 -->
<g id="edge2_Node000002_Node000003" class="edge">
<title>Node2&#45;&gt;Node3</title>
<g id="a_edge2_Node000002_Node000003"><a xlink:title=" ">
<path fill="none" stroke="#63b8ff" d="M505.67,-392.66C468.68,-391.12 415.01,-386.71 369.75,-374.38 346.55,-368.05 321.66,-355.97 305.16,-347.12"/>
<polygon fill="#63b8ff" stroke="#63b8ff" points="505.43,-396.15 515.54,-393.01 505.68,-389.15 505.43,-396.15"/>
</a>
</g>
</g>
<!-- Node6 -->
<g id="Node000006" class="node">
<title>Node6</title>
<g id="a_Node000006"><a xlink:href="app_8c.html#a9832170d75416f4f84ba0d11565ef970" target="_top" xlink:title=" ">
<polygon fill="white" stroke="#666666" points="466.75,-441.75 369.75,-441.75 369.75,-421 466.75,-421 466.75,-441.75"/>
<text text-anchor="middle" x="418.25" y="-428.25" font-family="Helvetica,sans-Serif" font-size="10.00">wrap_w2c__f205</text>
</a>
</g>
</g>
<!-- Node2&#45;&gt;Node6 -->
<g id="edge5_Node000002_Node000006" class="edge">
<title>Node2&#45;&gt;Node6</title>
<g id="a_edge5_Node000002_Node000006"><a xlink:title=" ">
<path fill="none" stroke="#63b8ff" d="M506.36,-406.11C490.17,-410.8 472,-416.07 456.46,-420.58"/>
<polygon fill="#63b8ff" stroke="#63b8ff" points="507.11,-409.53 515.74,-403.39 505.16,-402.81 507.11,-409.53"/>
</a>
</g>
</g>
<!-- Node4 -->
<g id="Node000004" class="node">
<title>Node4</title>
<g id="a_Node000004"><a xlink:href="app_8c.html#a86ae468e235684021eadfdacd5cb9dba" target="_top" xlink:title=" ">
<polygon fill="white" stroke="#666666" points="200.75,-346.75 133,-346.75 133,-326 200.75,-326 200.75,-346.75"/>
<text text-anchor="middle" x="166.88" y="-333.25" font-family="Helvetica,sans-Serif" font-size="10.00">w2c__f452</text>
</a>
</g>
</g>
<!-- Node3&#45;&gt;Node4 -->
<g id="edge3_Node000003_Node000004" class="edge">
<title>Node3&#45;&gt;Node4</title>
<g id="a_edge3_Node000003_Node000004"><a xlink:title=" ">
<path fill="none" stroke="#63b8ff" d="M239.54,-336.38C226.8,-336.38 213.16,-336.38 201.23,-336.38"/>
<polygon fill="#63b8ff" stroke="#63b8ff" points="239.39,-339.88 249.39,-336.38 239.39,-332.88 239.39,-339.88"/>
</a>
</g>
</g>
<!-- Node5 -->
<g id="Node000005" class="node">
<title>Node5</title>
<g id="a_Node000005"><a xlink:href="app_8c.html#a57ca4f801147f9325a0ea7cc2d7192c5" target="_top" xlink:title=" ">
<polygon fill="white" stroke="#666666" points="97,-346.75 0,-346.75 0,-326 97,-326 97,-346.75"/>
<text text-anchor="middle" x="48.5" y="-333.25" font-family="Helvetica,sans-Serif" font-size="10.00">wrap_w2c__f452</text>
</a>
</g>
</g>
<!-- Node4&#45;&gt;Node5 -->
<g id="edge4_Node000004_Node000005" class="edge">
<title>Node4&#45;&gt;Node5</title>
<g id="a_edge4_Node000004_Node000005"><a xlink:title=" ">
<path fill="none" stroke="#63b8ff" d="M121.28,-336.38C113.39,-336.38 105.14,-336.38 97.16,-336.38"/>
<polygon fill="#63b8ff" stroke="#63b8ff" points="121.01,-339.88 131.01,-336.38 121.01,-332.88 121.01,-339.88"/>
</a>
</g>
</g>
<!-- Node7&#45;&gt;Node8 -->
<g id="edge7_Node000007_Node000008" class="edge">
<title>Node7&#45;&gt;Node8</title>
<g id="a_edge7_Node000007_Node000008"><a xlink:title=" ">
<path fill="none" stroke="#63b8ff" d="M381.86,-149.98C359.48,-140.24 331.11,-127.89 311.11,-119.19"/>
<polygon fill="#63b8ff" stroke="#63b8ff" points="380.35,-153.14 390.91,-153.92 383.14,-146.72 380.35,-153.14"/>
</a>
</g>
</g>
<!-- Node9 -->
<g id="Node000009" class="node">
<title>Node9</title>
<g id="a_Node000009"><a xlink:href="app_8c.html#a7dc7d70793bae217b64eab580fce99cb" target="_top" xlink:title=" ">
<polygon fill="white" stroke="#666666" points="200.75,-118.75 133,-118.75 133,-98 200.75,-98 200.75,-118.75"/>
<text text-anchor="middle" x="166.88" y="-105.25" font-family="Helvetica,sans-Serif" font-size="10.00">w2c__f215</text>
</a>
</g>
</g>
<!-- Node8&#45;&gt;Node9 -->
<g id="edge8_Node000008_Node000009" class="edge">
<title>Node8&#45;&gt;Node9</title>
<g id="a_edge8_Node000008_Node000009"><a xlink:title=" ">
<path fill="none" stroke="#63b8ff" d="M239.54,-108.38C226.8,-108.38 213.16,-108.38 201.23,-108.38"/>
<polygon fill="#63b8ff" stroke="#63b8ff" points="239.39,-111.88 249.39,-108.38 239.39,-104.88 239.39,-111.88"/>
</a>
</g>
</g>
<!-- Node10 -->
<g id="Node000010" class="node">
<title>Node10</title>
<g id="a_Node000010"><a xlink:href="app_8c.html#a7f65ba02075f2865f478747946b07c94" target="_top" xlink:title=" ">
<polygon fill="white" stroke="#666666" points="97,-118.75 0,-118.75 0,-98 97,-98 97,-118.75"/>
<text text-anchor="middle" x="48.5" y="-105.25" font-family="Helvetica,sans-Serif" font-size="10.00">wrap_w2c__f215</text>
</a>
</g>
</g>
<!-- Node9&#45;&gt;Node10 -->
<g id="edge9_Node000009_Node000010" class="edge">
<title>Node9&#45;&gt;Node10</title>
<g id="a_edge9_Node000009_Node000010"><a xlink:title=" ">
<path fill="none" stroke="#63b8ff" d="M121.28,-108.38C113.39,-108.38 105.14,-108.38 97.16,-108.38"/>
<polygon fill="#63b8ff" stroke="#63b8ff" points="121.01,-111.88 131.01,-108.38 121.01,-104.88 121.01,-111.88"/>
</a>
</g>
</g>
<!-- Node11&#45;&gt;Node8 -->
<g id="edge11_Node000011_Node000008" class="edge">
<title>Node11&#45;&gt;Node8</title>
<g id="a_edge11_Node000011_Node000008"><a xlink:title=" ">
<path fill="none" stroke="#63b8ff" d="M506.1,-76.37C469.29,-68.17 415.63,-60.43 369.75,-70.38 345.78,-75.57 320.43,-88.27 304.04,-97.56"/>
<polygon fill="#63b8ff" stroke="#63b8ff" points="504.95,-79.7 515.49,-78.57 506.55,-72.88 504.95,-79.7"/>
</a>
</g>
</g>
<!-- Node12&#45;&gt;Node3 -->
<g id="edge13_Node000012_Node000003" class="edge">
<title>Node12&#45;&gt;Node3</title>
<g id="a_edge13_Node000012_Node000003"><a xlink:title=" ">
<path fill="none" stroke="#63b8ff" d="M375.25,-454.26C373.33,-453.04 371.49,-451.75 369.75,-450.38 331.83,-420.42 302.82,-369.06 291.47,-346.98"/>
<polygon fill="#63b8ff" stroke="#63b8ff" points="373.47,-457.28 383.92,-459 376.83,-451.13 373.47,-457.28"/>
</a>
</g>
</g>
<!-- Node13&#45;&gt;Node3 -->
<g id="edge15_Node000013_Node000003" class="edge">
<title>Node13&#45;&gt;Node3</title>
<g id="a_edge15_Node000013_Node000003"><a xlink:title=" ">
<path fill="none" stroke="#63b8ff" d="M506.34,-255.84C469.67,-268.06 416.09,-286.27 369.75,-303.38 350.59,-310.45 329.18,-318.92 312.83,-325.51"/>
<polygon fill="#63b8ff" stroke="#63b8ff" points="507.33,-259.19 515.72,-252.72 505.12,-252.55 507.33,-259.19"/>
</a>
</g>
</g>
<!-- Node14 -->
<g id="Node000014" class="node">
<title>Node14</title>
<g id="a_Node000014"><a xlink:href="app_8c.html#ab126aac8a4817b5c574e8992e8137aac" target="_top" xlink:title=" ">
<polygon fill="white" stroke="#666666" points="452.12,-251.75 384.38,-251.75 384.38,-231 452.12,-231 452.12,-251.75"/>
<text text-anchor="middle" x="418.25" y="-238.25" font-family="Helvetica,sans-Serif" font-size="10.00">w2c__f365</text>
</a>
</g>
</g>
<!-- Node13&#45;&gt;Node14 -->
<g id="edge16_Node000013_Node000014" class="edge">
<title>Node13&#45;&gt;Node14</title>
<g id="a_edge16_Node000013_Node000014"><a xlink:title=" ">
<path fill="none" stroke="#63b8ff" d="M505.78,-241.38C488.27,-241.38 468.51,-241.38 452.3,-241.38"/>
<polygon fill="#63b8ff" stroke="#63b8ff" points="505.68,-244.88 515.68,-241.38 505.68,-237.88 505.68,-244.88"/>
</a>
</g>
</g>
<!-- Node14&#45;&gt;Node3 -->
<g id="edge17_Node000014_Node000003" class="edge">
<title>Node14&#45;&gt;Node3</title>
<g id="a_edge17_Node000014_Node000003"><a xlink:title=" ">
<path fill="none" stroke="#63b8ff" d="M383.34,-257.26C378.67,-259.8 374.02,-262.54 369.75,-265.38 341.69,-284.01 312.52,-310.82 297.18,-325.59"/>
<polygon fill="#63b8ff" stroke="#63b8ff" points="384.82,-260.43 392.09,-252.73 381.6,-254.22 384.82,-260.43"/>
</a>
</g>
</g>
<!-- Node15 -->
<g id="Node000015" class="node">
<title>Node15</title>
<g id="a_Node000015"><a xlink:href="app_8c.html#accc2bca59262d1758a00d538b9f76807" target="_top" xlink:title=" ">
<polygon fill="white" stroke="#666666" points="333.75,-251.75 236.75,-251.75 236.75,-231 333.75,-231 333.75,-251.75"/>
<text text-anchor="middle" x="285.25" y="-238.25" font-family="Helvetica,sans-Serif" font-size="10.00">wrap_w2c__f365</text>
</a>
</g>
</g>
<!-- Node14&#45;&gt;Node15 -->
<g id="edge18_Node000014_Node000015" class="edge">
<title>Node14&#45;&gt;Node15</title>
<g id="a_edge18_Node000014_Node000015"><a xlink:title=" ">
<path fill="none" stroke="#63b8ff" d="M372.7,-241.38C360.28,-241.38 346.75,-241.38 334.15,-241.38"/>
<polygon fill="#63b8ff" stroke="#63b8ff" points="372.68,-244.88 382.68,-241.38 372.68,-237.88 372.68,-244.88"/>
</a>
</g>
</g>
<!-- Node16&#45;&gt;Node8 -->
<g id="edge22_Node000016_Node000008" class="edge">
<title>Node16&#45;&gt;Node8</title>
<g id="a_edge22_Node000016_Node000008"><a xlink:title=" ">
<path fill="none" stroke="#63b8ff" d="M505.77,-46.92C468.63,-46.13 414.7,-47.98 369.75,-61.38 343.6,-69.16 316.69,-86.26 300.72,-97.55"/>
<polygon fill="#63b8ff" stroke="#63b8ff" points="505.59,-50.41 515.69,-47.21 505.8,-43.41 505.59,-50.41"/>
</a>
</g>
</g>
<!-- Node17&#45;&gt;Node3 -->
<g id="edge24_Node000017_Node000003" class="edge">
<title>Node17&#45;&gt;Node3</title>
<g id="a_edge24_Node000017_Node000003"><a xlink:title=" ">
<path fill="none" stroke="#63b8ff" d="M373.03,-348.96C355.46,-346.41 335.58,-343.53 319.3,-341.17"/>
<polygon fill="#63b8ff" stroke="#63b8ff" points="372.3,-352.39 382.7,-350.36 373.3,-345.46 372.3,-352.39"/>
</a>
</g>
</g>
<!-- Node18&#45;&gt;Node8 -->
<g id="edge26_Node000018_Node000008" class="edge">
<title>Node18&#45;&gt;Node8</title>
<g id="a_edge26_Node000018_Node000008"><a xlink:title=" ">
<path fill="none" stroke="#63b8ff" d="M505.75,-124.17C453.1,-120.38 366.65,-114.16 319.49,-110.77"/>
<polygon fill="#63b8ff" stroke="#63b8ff" points="505.35,-127.65 515.57,-124.88 505.85,-120.67 505.35,-127.65"/>
</a>
</g>
</g>
<!-- Node19 -->
<g id="Node000019" class="node">
<title>Node19</title>
<g id="a_Node000019"><a xlink:href="app_8c.html#a764c0bb0028716e0a66688159e30b882" target="_top" xlink:title=" ">
<polygon fill="white" stroke="#666666" points="452.12,-99.75 384.38,-99.75 384.38,-79 452.12,-79 452.12,-99.75"/>
<text text-anchor="middle" x="418.25" y="-86.25" font-family="Helvetica,sans-Serif" font-size="10.00">w2c__f351</text>
</a>
</g>
</g>
<!-- Node18&#45;&gt;Node19 -->
<g id="edge27_Node000018_Node000019" class="edge">
<title>Node18&#45;&gt;Node19</title>
<g id="a_edge27_Node000018_Node000019"><a xlink:title=" ">
<path fill="none" stroke="#63b8ff" d="M506.29,-114.62C488.65,-109.51 468.66,-103.71 452.3,-98.96"/>
<polygon fill="#63b8ff" stroke="#63b8ff" points="505.16,-117.94 515.74,-117.36 507.11,-111.22 505.16,-117.94"/>
</a>
</g>
</g>
<!-- Node19&#45;&gt;Node8 -->
<g id="edge28_Node000019_Node000008" class="edge">
<title>Node19&#45;&gt;Node8</title>
<g id="a_edge28_Node000019_Node000008"><a xlink:title=" ">
<path fill="none" stroke="#63b8ff" d="M373.03,-95.79C355.46,-98.34 335.58,-101.22 319.3,-103.58"/>
<polygon fill="#63b8ff" stroke="#63b8ff" points="373.3,-99.29 382.7,-94.39 372.3,-92.36 373.3,-99.29"/>
</a>
</g>
</g>
</g>
</svg>
