<?xml version="1.0" encoding="UTF-8" standalone="no"?>
<!DOCTYPE svg PUBLIC "-//W3C//DTD SVG 1.1//EN"
 "http://www.w3.org/Graphics/SVG/1.1/DTD/svg11.dtd">
<!-- Generated by graphviz version 12.2.1 (0)
 -->
<!-- Title: wasm_sqrt Pages: 1 -->
<svg width="800pt" height="605pt"
 viewBox="0.00 0.00 800.25 604.75" xmlns="http://www.w3.org/2000/svg" xmlns:xlink="http://www.w3.org/1999/xlink">
<g id="graph0" class="graph" transform="scale(1 1) rotate(0) translate(4 600.75)">
<title>wasm_sqrt</title>
<!-- Node1 -->
<g id="Node000001" class="node">
<title>Node1</title>
<g id="a_Node000001"><a xlink:title=" ">
<polygon fill="#999999" stroke="#666666" points="792.25,-200.75 723,-200.75 723,-180 792.25,-180 792.25,-200.75"/>
<text text-anchor="middle" x="757.62" y="-187.25" font-family="Helvetica,sans-Serif" font-size="10.00">wasm_sqrt</text>
</a>
</g>
</g>
<!-- Node2 -->
<g id="Node000002" class="node">
<title>Node2</title>
<g id="a_Node000002"><a xlink:href="app_8c.html#a172dc6e51e60b69c5871fbabfa215af9" target="_top" xlink:title=" ">
<polygon fill="white" stroke="#666666" points="687,-556.75 619.25,-556.75 619.25,-536 687,-536 687,-556.75"/>
<text text-anchor="middle" x="653.12" y="-543.25" font-family="Helvetica,sans-Serif" font-size="10.00">w2c__f288</text>
</a>
</g>
</g>
<!-- Node1&#45;&gt;Node2 -->
<g id="edge1_Node000001_Node000002" class="edge">
<title>Node1&#45;&gt;Node2</title>
<g id="a_edge1_Node000001_Node000002"><a xlink:title=" ">
<path fill="none" stroke="#63b8ff" d="M754.37,-212.31C747.22,-278.5 723.37,-474.81 687,-526.38 684.46,-529.98 681.04,-533.05 677.37,-535.63"/>
<polygon fill="#63b8ff" stroke="#63b8ff" points="757.82,-213.03 755.39,-202.71 750.85,-212.29 757.82,-213.03"/>
</a>
</g>
</g>
<!-- Node3 -->
<g id="Node000003" class="node">
<title>Node3</title>
<g id="a_Node000003"><a xlink:href="app_8c.html#a6c30f2996216fe44cdda84ff266f8b19" target="_top" xlink:title=" ">
<polygon fill="white" stroke="#666666" points="568.62,-594.75 500.88,-594.75 500.88,-574 568.62,-574 568.62,-594.75"/>
<text text-anchor="middle" x="534.75" y="-581.25" font-family="Helvetica,sans-Serif" font-size="10.00">w2c__f362</text>
</a>
</g>
</g>
<!-- Node1&#45;&gt;Node3 -->
<g id="edge27_Node000001_Node000003" class="edge">
<title>Node1&#45;&gt;Node3</title>
<g id="a_edge27_Node000001_Node000003"><a xlink:title=" ">
<path fill="none" stroke="#63b8ff" d="M755.83,-212.3C752.71,-285.05 738.81,-516.52 687,-565.38 655.71,-594.88 603.2,-594.58 569.02,-590.43"/>
<polygon fill="#63b8ff" stroke="#63b8ff" points="759.32,-212.64 756.22,-202.51 752.32,-212.36 759.32,-212.64"/>
</a>
</g>
</g>
<!-- Node6 -->
<g id="Node000006" class="node">
<title>Node6</title>
<g id="a_Node000006"><a xlink:href="app_8c.html#a4540f33311f3aa59883a912236af15d6" target="_top" xlink:title=" ">
<polygon fill="white" stroke="#666666" points="687,-420.75 619.25,-420.75 619.25,-400 687,-400 687,-420.75"/>
<text text-anchor="middle" x="653.12" y="-407.25" font-family="Helvetica,sans-Serif" font-size="10.00">w2c__f320</text>
</a>
</g>
</g>
<!-- Node1&#45;&gt;Node6 -->
<g id="edge5_Node000001_Node000006" class="edge">
<title>Node1&#45;&gt;Node6</title>
<g id="a_edge5_Node000001_Node000006"><a xlink:title=" ">
<path fill="none" stroke="#63b8ff" d="M746.92,-211.2C725.58,-257.01 675.2,-365.13 659.14,-399.61"/>
<polygon fill="#63b8ff" stroke="#63b8ff" points="749.99,-212.9 751.04,-202.36 743.65,-209.94 749.99,-212.9"/>
</a>
</g>
</g>
<!-- Node9 -->
<g id="Node000009" class="node">
<title>Node9</title>
<g id="a_Node000009"><a xlink:href="app_8c.html#a5677ffd129da8cd63b876545b8187d77" target="_top" xlink:title=" ">
<polygon fill="white" stroke="#666666" points="302.62,-229.75 234.88,-229.75 234.88,-209 302.62,-209 302.62,-229.75"/>
<text text-anchor="middle" x="268.75" y="-216.25" font-family="Helvetica,sans-Serif" font-size="10.00">w2c__f367</text>
</a>
</g>
</g>
<!-- Node1&#45;&gt;Node9 -->
<g id="edge31_Node000001_Node000009" class="edge">
<title>Node1&#45;&gt;Node9</title>
<g id="a_edge31_Node000001_Node000009"><a xlink:title=" ">
<path fill="none" stroke="#63b8ff" d="M736.87,-172.32C723.77,-161.62 705.63,-149.07 687,-143.38 658.21,-134.57 649.25,-140.8 619.25,-143.38 499.71,-153.63 469.25,-158.75 353.25,-189.38 333.74,-194.53 312.33,-202.26 296.08,-208.59"/>
<polygon fill="#63b8ff" stroke="#63b8ff" points="734.42,-174.83 744.29,-178.67 738.97,-169.51 734.42,-174.83"/>
</a>
</g>
</g>
<!-- Node22 -->
<g id="Node000022" class="node">
<title>Node22</title>
<g id="a_Node000022"><a xlink:href="app_8c.html#a512669319fec7c2cbf61fd668bc650c9" target="_top" xlink:title=" ">
<polygon fill="white" stroke="#666666" points="568.62,-58.75 500.88,-58.75 500.88,-38 568.62,-38 568.62,-58.75"/>
<text text-anchor="middle" x="534.75" y="-45.25" font-family="Helvetica,sans-Serif" font-size="10.00">w2c__f343</text>
</a>
</g>
</g>
<!-- Node1&#45;&gt;Node22 -->
<g id="edge22_Node000001_Node000022" class="edge">
<title>Node1&#45;&gt;Node22</title>
<g id="a_edge22_Node000001_Node000022"><a xlink:title=" ">
<path fill="none" stroke="#63b8ff" d="M750.97,-168.83C742.3,-140.47 722.85,-91.4 687,-67.38 651.93,-43.88 601.85,-42.29 569.07,-44.42"/>
<polygon fill="#63b8ff" stroke="#63b8ff" points="747.51,-169.47 753.62,-178.13 754.24,-167.55 747.51,-169.47"/>
</a>
</g>
</g>
<!-- Node25 -->
<g id="Node000025" class="node">
<title>Node25</title>
<g id="a_Node000025"><a xlink:href="app_8c.html#a764c0bb0028716e0a66688159e30b882" target="_top" xlink:title=" ">
<polygon fill="white" stroke="#666666" points="687,-20.75 619.25,-20.75 619.25,0 687,0 687,-20.75"/>
<text text-anchor="middle" x="653.12" y="-7.25" font-family="Helvetica,sans-Serif" font-size="10.00">w2c__f351</text>
</a>
</g>
</g>
<!-- Node1&#45;&gt;Node25 -->
<g id="edge25_Node000001_Node000025" class="edge">
<title>Node1&#45;&gt;Node25</title>
<g id="a_edge25_Node000001_Node000025"><a xlink:title=" ">
<path fill="none" stroke="#63b8ff" d="M750.87,-168.74C741.56,-136.74 720.73,-76.09 687,-34.38 682.91,-29.32 677.52,-24.8 672.28,-21.08"/>
<polygon fill="#63b8ff" stroke="#63b8ff" points="747.41,-169.36 753.48,-178.05 754.15,-167.47 747.41,-169.36"/>
</a>
</g>
</g>
<!-- Node26 -->
<g id="Node000026" class="node">
<title>Node26</title>
<g id="a_Node000026"><a xlink:href="app_8c.html#ab126aac8a4817b5c574e8992e8137aac" target="_top" xlink:title=" ">
<polygon fill="white" stroke="#666666" points="687,-517.75 619.25,-517.75 619.25,-497 687,-497 687,-517.75"/>
<text text-anchor="middle" x="653.12" y="-504.25" font-family="Helvetica,sans-Serif" font-size="10.00">w2c__f365</text>
</a>
</g>
</g>
<!-- Node1&#45;&gt;Node26 -->
<g id="edge28_Node000001_Node000026" class="edge">
<title>Node1&#45;&gt;Node26</title>
<g id="a_edge28_Node000001_Node000026"><a xlink:title=" ">
<path fill="none" stroke="#63b8ff" d="M751.2,-212.1C740.43,-254.4 714.97,-350.59 687,-429.38 678.25,-454.02 665.77,-482.11 658.98,-496.93"/>
<polygon fill="#63b8ff" stroke="#63b8ff" points="754.57,-213.02 753.63,-202.46 747.79,-211.3 754.57,-213.02"/>
</a>
</g>
</g>
<!-- Node28 -->
<g id="Node000028" class="node">
<title>Node28</title>
<g id="a_Node000028"><a xlink:href="app_8c.html#af343129bd663e00399561d73f0098887" target="_top" xlink:title=" ">
<polygon fill="white" stroke="#666666" points="687,-229.75 619.25,-229.75 619.25,-209 687,-209 687,-229.75"/>
<text text-anchor="middle" x="653.12" y="-216.25" font-family="Helvetica,sans-Serif" font-size="10.00">w2c__f372</text>
</a>
</g>
</g>
<!-- Node1&#45;&gt;Node28 -->
<g id="edge32_Node000001_Node000028" class="edge">
<title>Node1&#45;&gt;Node28</title>
<g id="a_edge32_Node000001_Node000028"><a xlink:title=" ">
<path fill="none" stroke="#63b8ff" d="M711.76,-203.07C703.52,-205.4 695.06,-207.79 687.24,-210.01"/>
<polygon fill="#63b8ff" stroke="#63b8ff" points="712.65,-206.45 721.32,-200.36 710.75,-199.72 712.65,-206.45"/>
</a>
</g>
</g>
<!-- Node32 -->
<g id="Node000032" class="node">
<title>Node32</title>
<g id="a_Node000032"><a xlink:href="app_8c.html#a05fd87b7f41136119e8d7698caac1f5c" target="_top" xlink:title=" ">
<polygon fill="white" stroke="#666666" points="687,-96.75 619.25,-96.75 619.25,-76 687,-76 687,-96.75"/>
<text text-anchor="middle" x="653.12" y="-83.25" font-family="Helvetica,sans-Serif" font-size="10.00">w2c__f423</text>
</a>
</g>
</g>
<!-- Node1&#45;&gt;Node32 -->
<g id="edge40_Node000001_Node000032" class="edge">
<title>Node1&#45;&gt;Node32</title>
<g id="a_edge40_Node000001_Node000032"><a xlink:title=" ">
<path fill="none" stroke="#63b8ff" d="M741.51,-170.63C728.11,-153.73 707.52,-129.21 687,-110.38 681.9,-105.69 675.88,-101.08 670.41,-97.17"/>
<polygon fill="#63b8ff" stroke="#63b8ff" points="738.67,-172.68 747.59,-178.41 744.19,-168.37 738.67,-172.68"/>
</a>
</g>
</g>
<!-- Node33 -->
<g id="Node000033" class="node">
<title>Node33</title>
<g id="a_Node000033"><a xlink:href="app_8c.html#a6c91036352b0812c461089977fa98847" target="_top" xlink:title=" ">
<polygon fill="white" stroke="#666666" points="687,-172.75 619.25,-172.75 619.25,-152 687,-152 687,-172.75"/>
<text text-anchor="middle" x="653.12" y="-159.25" font-family="Helvetica,sans-Serif" font-size="10.00">w2c__f534</text>
</a>
</g>
</g>
<!-- Node1&#45;&gt;Node33 -->
<g id="edge42_Node000001_Node000033" class="edge">
<title>Node1&#45;&gt;Node33</title>
<g id="a_edge42_Node000001_Node000033"><a xlink:title=" ">
<path fill="none" stroke="#63b8ff" d="M711.76,-178.12C703.52,-175.87 695.06,-173.56 687.24,-171.42"/>
<polygon fill="#63b8ff" stroke="#63b8ff" points="710.75,-181.47 721.32,-180.73 712.59,-174.72 710.75,-181.47"/>
</a>
</g>
</g>
<!-- Node2&#45;&gt;Node3 -->
<g id="edge2_Node000002_Node000003" class="edge">
<title>Node2&#45;&gt;Node3</title>
<g id="a_edge2_Node000002_Node000003"><a xlink:title=" ">
<path fill="none" stroke="#63b8ff" d="M608.4,-560.65C595.3,-564.93 581.16,-569.55 568.87,-573.56"/>
<polygon fill="#63b8ff" stroke="#63b8ff" points="609.23,-564.06 617.65,-557.63 607.06,-557.41 609.23,-564.06"/>
</a>
</g>
</g>
<!-- Node4 -->
<g id="Node000004" class="node">
<title>Node4</title>
<g id="a_Node000004"><a xlink:href="app_8c.html#a86ae468e235684021eadfdacd5cb9dba" target="_top" xlink:title=" ">
<polygon fill="white" stroke="#666666" points="435.62,-596.75 367.88,-596.75 367.88,-576 435.62,-576 435.62,-596.75"/>
<text text-anchor="middle" x="401.75" y="-583.25" font-family="Helvetica,sans-Serif" font-size="10.00">w2c__f452</text>
</a>
</g>
</g>
<!-- Node3&#45;&gt;Node4 -->
<g id="edge3_Node000003_Node000004" class="edge">
<title>Node3&#45;&gt;Node4</title>
<g id="a_edge3_Node000003_Node000004"><a xlink:title=" ">
<path fill="none" stroke="#63b8ff" d="M489.28,-585.05C471.77,-585.32 452.01,-585.62 435.8,-585.87"/>
<polygon fill="#63b8ff" stroke="#63b8ff" points="489.23,-588.56 499.18,-584.9 489.13,-581.56 489.23,-588.56"/>
</a>
</g>
</g>
<!-- Node5 -->
<g id="Node000005" class="node">
<title>Node5</title>
<g id="a_Node000005"><a xlink:href="app_8c.html#a57ca4f801147f9325a0ea7cc2d7192c5" target="_top" xlink:title=" ">
<polygon fill="white" stroke="#666666" points="317.25,-596.75 220.25,-596.75 220.25,-576 317.25,-576 317.25,-596.75"/>
<text text-anchor="middle" x="268.75" y="-583.25" font-family="Helvetica,sans-Serif" font-size="10.00">wrap_w2c__f452</text>
</a>
</g>
</g>
<!-- Node4&#45;&gt;Node5 -->
<g id="edge4_Node000004_Node000005" class="edge">
<title>Node4&#45;&gt;Node5</title>
<g id="a_edge4_Node000004_Node000005"><a xlink:title=" ">
<path fill="none" stroke="#63b8ff" d="M356.2,-586.38C343.78,-586.38 330.25,-586.38 317.65,-586.38"/>
<polygon fill="#63b8ff" stroke="#63b8ff" points="356.18,-589.88 366.18,-586.38 356.18,-582.88 356.18,-589.88"/>
</a>
</g>
</g>
<!-- Node7 -->
<g id="Node000007" class="node">
<title>Node7</title>
<g id="a_Node000007"><a xlink:href="app_8c.html#af245d5659b958eabe30540d214352ad8" target="_top" xlink:title=" ">
<polygon fill="white" stroke="#666666" points="435.62,-518.75 367.88,-518.75 367.88,-498 435.62,-498 435.62,-518.75"/>
<text text-anchor="middle" x="401.75" y="-505.25" font-family="Helvetica,sans-Serif" font-size="10.00">w2c__f197</text>
</a>
</g>
</g>
<!-- Node6&#45;&gt;Node7 -->
<g id="edge6_Node000006_Node000007" class="edge">
<title>Node6&#45;&gt;Node7</title>
<g id="a_edge6_Node000006_Node000007"><a xlink:title=" ">
<path fill="none" stroke="#63b8ff" d="M625.57,-427.06C613.03,-434.5 597.69,-443 583.25,-449.38 533.48,-471.34 472.88,-489.5 436.09,-499.63"/>
<polygon fill="#63b8ff" stroke="#63b8ff" points="627.32,-430.09 634.06,-421.91 623.69,-424.1 627.32,-430.09"/>
</a>
</g>
</g>
<!-- Node6&#45;&gt;Node9 -->
<g id="edge8_Node000006_Node000009" class="edge">
<title>Node6&#45;&gt;Node9</title>
<g id="a_edge8_Node000006_Node000009"><a xlink:title=" ">
<path fill="none" stroke="#63b8ff" d="M625.72,-393.68C613.21,-386.33 597.85,-378.1 583.25,-372.38 485.2,-333.94 443.09,-370.33 353.25,-315.38 317.07,-293.25 288.19,-250.31 276.01,-230.23"/>
<polygon fill="#63b8ff" stroke="#63b8ff" points="623.8,-396.61 634.17,-398.78 627.41,-390.61 623.8,-396.61"/>
</a>
</g>
</g>
<!-- Node13 -->
<g id="Node000013" class="node">
<title>Node13</title>
<g id="a_Node000013"><a xlink:href="app_8c.html#aa5aa96620823a66d02f16f4abcd5e0fe" target="_top" xlink:title=" ">
<polygon fill="white" stroke="#666666" points="568.62,-516.75 500.88,-516.75 500.88,-496 568.62,-496 568.62,-516.75"/>
<text text-anchor="middle" x="534.75" y="-503.25" font-family="Helvetica,sans-Serif" font-size="10.00">w2c__f371</text>
</a>
</g>
</g>
<!-- Node6&#45;&gt;Node13 -->
<g id="edge12_Node000006_Node000013" class="edge">
<title>Node6&#45;&gt;Node13</title>
<g id="a_edge12_Node000006_Node000013"><a xlink:title=" ">
<path fill="none" stroke="#63b8ff" d="M636.52,-430.06C623.47,-445.62 603.74,-467.19 583.25,-482.38 576.42,-487.44 568.36,-491.96 560.85,-495.68"/>
<polygon fill="#63b8ff" stroke="#63b8ff" points="639.14,-432.37 642.77,-422.42 633.73,-427.94 639.14,-432.37"/>
</a>
</g>
</g>
<!-- Node15 -->
<g id="Node000015" class="node">
<title>Node15</title>
<g id="a_Node000015"><a xlink:href="app_8c.html#affed7b4e730191b8eb2ae859a9d3e4b2" target="_top" xlink:title=" ">
<polygon fill="white" stroke="#666666" points="568.62,-440.75 500.88,-440.75 500.88,-420 568.62,-420 568.62,-440.75"/>
<text text-anchor="middle" x="534.75" y="-427.25" font-family="Helvetica,sans-Serif" font-size="10.00">w2c__f426</text>
</a>
</g>
</g>
<!-- Node6&#45;&gt;Node15 -->
<g id="edge14_Node000006_Node000015" class="edge">
<title>Node6&#45;&gt;Node15</title>
<g id="a_edge14_Node000006_Node000015"><a xlink:title=" ">
<path fill="none" stroke="#63b8ff" d="M607.8,-417.99C594.96,-420.2 581.16,-422.57 569.1,-424.64"/>
<polygon fill="#63b8ff" stroke="#63b8ff" points="608.02,-421.51 617.28,-416.36 606.84,-414.61 608.02,-421.51"/>
</a>
</g>
</g>
<!-- Node21 -->
<g id="Node000021" class="node">
<title>Node21</title>
<g id="a_Node000021"><a xlink:href="app_8c.html#ae283653922833b307a65fbada5c25166" target="_top" xlink:title=" ">
<polygon fill="white" stroke="#666666" points="583.25,-401.75 486.25,-401.75 486.25,-381 583.25,-381 583.25,-401.75"/>
<text text-anchor="middle" x="534.75" y="-388.25" font-family="Helvetica,sans-Serif" font-size="10.00">wrap_w2c__f320</text>
</a>
</g>
</g>
<!-- Node6&#45;&gt;Node21 -->
<g id="edge21_Node000006_Node000021" class="edge">
<title>Node6&#45;&gt;Node21</title>
<g id="a_edge21_Node000006_Node000021"><a xlink:title=" ">
<path fill="none" stroke="#63b8ff" d="M607.53,-403.09C599.64,-401.81 591.39,-400.46 583.41,-399.16"/>
<polygon fill="#63b8ff" stroke="#63b8ff" points="606.85,-406.53 617.28,-404.69 607.98,-399.62 606.85,-406.53"/>
</a>
</g>
</g>
<!-- Node8 -->
<g id="Node000008" class="node">
<title>Node8</title>
<g id="a_Node000008"><a xlink:href="app_8c.html#ac9dfe974277b0ee3fa24e73b7712fe31" target="_top" xlink:title=" ">
<polygon fill="white" stroke="#666666" points="317.25,-518.75 220.25,-518.75 220.25,-498 317.25,-498 317.25,-518.75"/>
<text text-anchor="middle" x="268.75" y="-505.25" font-family="Helvetica,sans-Serif" font-size="10.00">wrap_w2c__f197</text>
</a>
</g>
</g>
<!-- Node7&#45;&gt;Node8 -->
<g id="edge7_Node000007_Node000008" class="edge">
<title>Node7&#45;&gt;Node8</title>
<g id="a_edge7_Node000007_Node000008"><a xlink:title=" ">
<path fill="none" stroke="#63b8ff" d="M356.2,-508.38C343.78,-508.38 330.25,-508.38 317.65,-508.38"/>
<polygon fill="#63b8ff" stroke="#63b8ff" points="356.18,-511.88 366.18,-508.38 356.18,-504.88 356.18,-511.88"/>
</a>
</g>
</g>
<!-- Node10 -->
<g id="Node000010" class="node">
<title>Node10</title>
<g id="a_Node000010"><a xlink:href="app_8c.html#ac863989691d4c389f80374209c220171" target="_top" xlink:title=" ">
<polygon fill="white" stroke="#666666" points="167,-248.75 104.5,-248.75 104.5,-228 167,-228 167,-248.75"/>
<text text-anchor="middle" x="135.75" y="-235.25" font-family="Helvetica,sans-Serif" font-size="10.00">w2c__c_0</text>
</a>
</g>
</g>
<!-- Node9&#45;&gt;Node10 -->
<g id="edge9_Node000009_Node000010" class="edge">
<title>Node9&#45;&gt;Node10</title>
<g id="a_edge9_Node000009_Node000010"><a xlink:title=" ">
<path fill="none" stroke="#63b8ff" d="M223.53,-225.79C204.97,-228.48 183.86,-231.54 167.1,-233.97"/>
<polygon fill="#63b8ff" stroke="#63b8ff" points="223.8,-229.29 233.2,-224.39 222.8,-222.36 223.8,-229.29"/>
</a>
</g>
</g>
<!-- Node12 -->
<g id="Node000012" class="node">
<title>Node12</title>
<g id="a_Node000012"><a xlink:href="app_8c.html#a8f64ccad6c506a1ca514ba4f43e5211c" target="_top" xlink:title=" ">
<polygon fill="white" stroke="#666666" points="184.25,-209.75 87.25,-209.75 87.25,-189 184.25,-189 184.25,-209.75"/>
<text text-anchor="middle" x="135.75" y="-196.25" font-family="Helvetica,sans-Serif" font-size="10.00">wrap_w2c__f367</text>
</a>
</g>
</g>
<!-- Node9&#45;&gt;Node12 -->
<g id="edge11_Node000009_Node000012" class="edge">
<title>Node9&#45;&gt;Node12</title>
<g id="a_edge11_Node000009_Node000012"><a xlink:title=" ">
<path fill="none" stroke="#63b8ff" d="M223.58,-212.63C211.06,-210.72 197.38,-208.63 184.65,-206.69"/>
<polygon fill="#63b8ff" stroke="#63b8ff" points="222.78,-216.05 233.2,-214.1 223.84,-209.13 222.78,-216.05"/>
</a>
</g>
</g>
<!-- Node11 -->
<g id="Node000011" class="node">
<title>Node11</title>
<g id="a_Node000011"><a xlink:href="app_8c.html#ab1e039392ea68017ab8a6063263b147d" target="_top" xlink:title=" ">
<polygon fill="white" stroke="#666666" points="51.25,-248.75 0,-248.75 0,-228 51.25,-228 51.25,-248.75"/>
<text text-anchor="middle" x="25.62" y="-235.25" font-family="Helvetica,sans-Serif" font-size="10.00">w2c__c</text>
</a>
</g>
</g>
<!-- Node10&#45;&gt;Node11 -->
<g id="edge10_Node000010_Node000011" class="edge">
<title>Node10&#45;&gt;Node11</title>
<g id="a_edge10_Node000010_Node000011"><a xlink:title=" ">
<path fill="none" stroke="#63b8ff" d="M92.72,-238.38C78.81,-238.38 63.78,-238.38 51.57,-238.38"/>
<polygon fill="#63b8ff" stroke="#63b8ff" points="92.54,-241.88 102.54,-238.38 92.54,-234.88 92.54,-241.88"/>
</a>
</g>
</g>
<!-- Node14 -->
<g id="Node000014" class="node">
<title>Node14</title>
<g id="a_Node000014"><a xlink:href="app_8c.html#a70f34b1bc2ae815ea8aa822e2de375d8" target="_top" xlink:title=" ">
<polygon fill="white" stroke="#666666" points="450.25,-557.75 353.25,-557.75 353.25,-537 450.25,-537 450.25,-557.75"/>
<text text-anchor="middle" x="401.75" y="-544.25" font-family="Helvetica,sans-Serif" font-size="10.00">wrap_w2c__f371</text>
</a>
</g>
</g>
<!-- Node13&#45;&gt;Node14 -->
<g id="edge13_Node000013_Node000014" class="edge">
<title>Node13&#45;&gt;Node14</title>
<g id="a_edge13_Node000013_Node000014"><a xlink:title=" ">
<path fill="none" stroke="#63b8ff" d="M489.8,-520.13C472.65,-525.5 453.28,-531.56 437.17,-536.6"/>
<polygon fill="#63b8ff" stroke="#63b8ff" points="490.75,-523.5 499.25,-517.17 488.66,-516.82 490.75,-523.5"/>
</a>
</g>
</g>
<!-- Node15&#45;&gt;Node7 -->
<g id="edge15_Node000015_Node000007" class="edge">
<title>Node15&#45;&gt;Node7</title>
<g id="a_edge15_Node000015_Node000007"><a xlink:title=" ">
<path fill="none" stroke="#63b8ff" d="M499.41,-446.22C494.86,-448.75 490.36,-451.49 486.25,-454.38 468.24,-467.02 468.69,-476.36 450.25,-488.38 444.93,-491.84 438.9,-494.93 432.98,-497.57"/>
<polygon fill="#63b8ff" stroke="#63b8ff" points="500.72,-449.48 507.96,-441.75 497.47,-443.28 500.72,-449.48"/>
</a>
</g>
</g>
<!-- Node16 -->
<g id="Node000016" class="node">
<title>Node16</title>
<g id="a_Node000016"><a xlink:href="app_8c.html#aabc3b06c7f7daa21796552c728f0379b" target="_top" xlink:title=" ">
<polygon fill="white" stroke="#666666" points="435.62,-401.75 367.88,-401.75 367.88,-381 435.62,-381 435.62,-401.75"/>
<text text-anchor="middle" x="401.75" y="-388.25" font-family="Helvetica,sans-Serif" font-size="10.00">w2c__f270</text>
</a>
</g>
</g>
<!-- Node15&#45;&gt;Node16 -->
<g id="edge16_Node000015_Node000016" class="edge">
<title>Node15&#45;&gt;Node16</title>
<g id="a_edge16_Node000015_Node000016"><a xlink:title=" ">
<path fill="none" stroke="#63b8ff" d="M489.79,-417.29C472.15,-412.03 452.16,-406.09 435.8,-401.21"/>
<polygon fill="#63b8ff" stroke="#63b8ff" points="488.66,-420.6 499.24,-420.1 490.66,-413.89 488.66,-420.6"/>
</a>
</g>
</g>
<!-- Node18 -->
<g id="Node000018" class="node">
<title>Node18</title>
<g id="a_Node000018"><a xlink:href="app_8c.html#a3b35d36403dcff081d46c10210051cdc" target="_top" xlink:title=" ">
<polygon fill="white" stroke="#666666" points="435.62,-479.75 367.88,-479.75 367.88,-459 435.62,-459 435.62,-479.75"/>
<text text-anchor="middle" x="401.75" y="-466.25" font-family="Helvetica,sans-Serif" font-size="10.00">w2c__f349</text>
</a>
</g>
</g>
<!-- Node15&#45;&gt;Node18 -->
<g id="edge18_Node000015_Node000018" class="edge">
<title>Node15&#45;&gt;Node18</title>
<g id="a_edge18_Node000015_Node000018"><a xlink:title=" ">
<path fill="none" stroke="#63b8ff" d="M489.79,-443.46C472.15,-448.72 452.16,-454.66 435.8,-459.54"/>
<polygon fill="#63b8ff" stroke="#63b8ff" points="490.66,-446.86 499.24,-440.65 488.66,-440.15 490.66,-446.86"/>
</a>
</g>
</g>
<!-- Node20 -->
<g id="Node000020" class="node">
<title>Node20</title>
<g id="a_Node000020"><a xlink:href="app_8c.html#ae1beb332ba7551f1acff2f46930c4e85" target="_top" xlink:title=" ">
<polygon fill="white" stroke="#666666" points="450.25,-440.75 353.25,-440.75 353.25,-420 450.25,-420 450.25,-440.75"/>
<text text-anchor="middle" x="401.75" y="-427.25" font-family="Helvetica,sans-Serif" font-size="10.00">wrap_w2c__f426</text>
</a>
</g>
</g>
<!-- Node15&#45;&gt;Node20 -->
<g id="edge20_Node000015_Node000020" class="edge">
<title>Node15&#45;&gt;Node20</title>
<g id="a_edge20_Node000015_Node000020"><a xlink:title=" ">
<path fill="none" stroke="#63b8ff" d="M489.2,-430.38C476.78,-430.38 463.25,-430.38 450.65,-430.38"/>
<polygon fill="#63b8ff" stroke="#63b8ff" points="489.18,-433.88 499.18,-430.38 489.18,-426.88 489.18,-433.88"/>
</a>
</g>
</g>
<!-- Node17 -->
<g id="Node000017" class="node">
<title>Node17</title>
<g id="a_Node000017"><a xlink:href="app_8c.html#a54f194530158831aa826ddabfd869e3f" target="_top" xlink:title=" ">
<polygon fill="white" stroke="#666666" points="317.25,-401.75 220.25,-401.75 220.25,-381 317.25,-381 317.25,-401.75"/>
<text text-anchor="middle" x="268.75" y="-388.25" font-family="Helvetica,sans-Serif" font-size="10.00">wrap_w2c__f270</text>
</a>
</g>
</g>
<!-- Node16&#45;&gt;Node17 -->
<g id="edge17_Node000016_Node000017" class="edge">
<title>Node16&#45;&gt;Node17</title>
<g id="a_edge17_Node000016_Node000017"><a xlink:title=" ">
<path fill="none" stroke="#63b8ff" d="M356.2,-391.38C343.78,-391.38 330.25,-391.38 317.65,-391.38"/>
<polygon fill="#63b8ff" stroke="#63b8ff" points="356.18,-394.88 366.18,-391.38 356.18,-387.88 356.18,-394.88"/>
</a>
</g>
</g>
<!-- Node19 -->
<g id="Node000019" class="node">
<title>Node19</title>
<g id="a_Node000019"><a xlink:href="app_8c.html#a053e462a04712de112461bc2539f46e8" target="_top" xlink:title=" ">
<polygon fill="white" stroke="#666666" points="317.25,-479.75 220.25,-479.75 220.25,-459 317.25,-459 317.25,-479.75"/>
<text text-anchor="middle" x="268.75" y="-466.25" font-family="Helvetica,sans-Serif" font-size="10.00">wrap_w2c__f349</text>
</a>
</g>
</g>
<!-- Node18&#45;&gt;Node19 -->
<g id="edge19_Node000018_Node000019" class="edge">
<title>Node18&#45;&gt;Node19</title>
<g id="a_edge19_Node000018_Node000019"><a xlink:title=" ">
<path fill="none" stroke="#63b8ff" d="M356.2,-469.38C343.78,-469.38 330.25,-469.38 317.65,-469.38"/>
<polygon fill="#63b8ff" stroke="#63b8ff" points="356.18,-472.88 366.18,-469.38 356.18,-465.88 356.18,-472.88"/>
</a>
</g>
</g>
<!-- Node23 -->
<g id="Node000023" class="node">
<title>Node23</title>
<g id="a_Node000023"><a xlink:href="app_8c.html#a7dc7d70793bae217b64eab580fce99cb" target="_top" xlink:title=" ">
<polygon fill="white" stroke="#666666" points="435.62,-58.75 367.88,-58.75 367.88,-38 435.62,-38 435.62,-58.75"/>
<text text-anchor="middle" x="401.75" y="-45.25" font-family="Helvetica,sans-Serif" font-size="10.00">w2c__f215</text>
</a>
</g>
</g>
<!-- Node22&#45;&gt;Node23 -->
<g id="edge23_Node000022_Node000023" class="edge">
<title>Node22&#45;&gt;Node23</title>
<g id="a_edge23_Node000022_Node000023"><a xlink:title=" ">
<path fill="none" stroke="#63b8ff" d="M489.28,-48.38C471.77,-48.38 452.01,-48.38 435.8,-48.38"/>
<polygon fill="#63b8ff" stroke="#63b8ff" points="489.18,-51.88 499.18,-48.38 489.18,-44.88 489.18,-51.88"/>
</a>
</g>
</g>
<!-- Node24 -->
<g id="Node000024" class="node">
<title>Node24</title>
<g id="a_Node000024"><a xlink:href="app_8c.html#a7f65ba02075f2865f478747946b07c94" target="_top" xlink:title=" ">
<polygon fill="white" stroke="#666666" points="317.25,-58.75 220.25,-58.75 220.25,-38 317.25,-38 317.25,-58.75"/>
<text text-anchor="middle" x="268.75" y="-45.25" font-family="Helvetica,sans-Serif" font-size="10.00">wrap_w2c__f215</text>
</a>
</g>
</g>
<!-- Node23&#45;&gt;Node24 -->
<g id="edge24_Node000023_Node000024" class="edge">
<title>Node23&#45;&gt;Node24</title>
<g id="a_edge24_Node000023_Node000024"><a xlink:title=" ">
<path fill="none" stroke="#63b8ff" d="M356.2,-48.38C343.78,-48.38 330.25,-48.38 317.65,-48.38"/>
<polygon fill="#63b8ff" stroke="#63b8ff" points="356.18,-51.88 366.18,-48.38 356.18,-44.88 356.18,-51.88"/>
</a>
</g>
</g>
<!-- Node25&#45;&gt;Node22 -->
<g id="edge26_Node000025_Node000022" class="edge">
<title>Node25&#45;&gt;Node22</title>
<g id="a_edge26_Node000025_Node000022"><a xlink:title=" ">
<path fill="none" stroke="#63b8ff" d="M608.4,-24.65C595.3,-28.93 581.16,-33.55 568.87,-37.56"/>
<polygon fill="#63b8ff" stroke="#63b8ff" points="609.23,-28.06 617.65,-21.63 607.06,-21.41 609.23,-28.06"/>
</a>
</g>
</g>
<!-- Node26&#45;&gt;Node3 -->
<g id="edge29_Node000026_Node000003" class="edge">
<title>Node26&#45;&gt;Node3</title>
<g id="a_edge29_Node000026_Node000003"><a xlink:title=" ">
<path fill="none" stroke="#63b8ff" d="M623.22,-524.37C621.85,-525.36 620.52,-526.36 619.25,-527.38 601.31,-541.67 602.2,-551.44 583.25,-564.38 578.15,-567.85 572.35,-570.91 566.59,-573.52"/>
<polygon fill="#63b8ff" stroke="#63b8ff" points="624.81,-527.52 631.2,-519.06 620.93,-521.69 624.81,-527.52"/>
</a>
</g>
</g>
<!-- Node27 -->
<g id="Node000027" class="node">
<title>Node27</title>
<g id="a_Node000027"><a xlink:href="app_8c.html#accc2bca59262d1758a00d538b9f76807" target="_top" xlink:title=" ">
<polygon fill="white" stroke="#666666" points="583.25,-555.75 486.25,-555.75 486.25,-535 583.25,-535 583.25,-555.75"/>
<text text-anchor="middle" x="534.75" y="-542.25" font-family="Helvetica,sans-Serif" font-size="10.00">wrap_w2c__f365</text>
</a>
</g>
</g>
<!-- Node26&#45;&gt;Node27 -->
<g id="edge30_Node000026_Node000027" class="edge">
<title>Node26&#45;&gt;Node27</title>
<g id="a_edge30_Node000026_Node000027"><a xlink:title=" ">
<path fill="none" stroke="#63b8ff" d="M608.4,-521.65C595.3,-525.93 581.16,-530.55 568.87,-534.56"/>
<polygon fill="#63b8ff" stroke="#63b8ff" points="609.23,-525.06 617.65,-518.63 607.06,-518.41 609.23,-525.06"/>
</a>
</g>
</g>
<!-- Node28&#45;&gt;Node9 -->
<g id="edge39_Node000028_Node000009" class="edge">
<title>Node28&#45;&gt;Node9</title>
<g id="a_edge39_Node000028_Node000009"><a xlink:title=" ">
<path fill="none" stroke="#63b8ff" d="M607.57,-219.38C529.97,-219.38 371.74,-219.38 302.94,-219.38"/>
<polygon fill="#63b8ff" stroke="#63b8ff" points="607.35,-222.88 617.35,-219.38 607.35,-215.88 607.35,-222.88"/>
</a>
</g>
</g>
<!-- Node29 -->
<g id="Node000029" class="node">
<title>Node29</title>
<g id="a_Node000029"><a xlink:href="app_8c.html#a16207b5f7a97b0ecfddd231452c5aa7e" target="_top" xlink:title=" ">
<polygon fill="white" stroke="#666666" points="568.62,-287.75 500.88,-287.75 500.88,-267 568.62,-267 568.62,-287.75"/>
<text text-anchor="middle" x="534.75" y="-274.25" font-family="Helvetica,sans-Serif" font-size="10.00">w2c__f263</text>
</a>
</g>
</g>
<!-- Node28&#45;&gt;Node29 -->
<g id="edge33_Node000028_Node000029" class="edge">
<title>Node28&#45;&gt;Node29</title>
<g id="a_edge33_Node000028_Node000029"><a xlink:title=" ">
<path fill="none" stroke="#63b8ff" d="M620.29,-235.24C600.26,-245.23 574.94,-257.85 557.25,-266.66"/>
<polygon fill="#63b8ff" stroke="#63b8ff" points="621.77,-238.42 629.15,-230.82 618.64,-232.15 621.77,-238.42"/>
</a>
</g>
</g>
<!-- Node29&#45;&gt;Node9 -->
<g id="edge35_Node000029_Node000009" class="edge">
<title>Node29&#45;&gt;Node9</title>
<g id="a_edge35_Node000029_Node000009"><a xlink:title=" ">
<path fill="none" stroke="#63b8ff" d="M494.97,-291.58C457.45,-303.02 399.6,-314.48 353.25,-296.38 318.9,-282.96 290.18,-248.06 277.19,-230.22"/>
<polygon fill="#63b8ff" stroke="#63b8ff" points="495.56,-295.07 504.02,-288.68 493.43,-288.4 495.56,-295.07"/>
</a>
</g>
</g>
<!-- Node29&#45;&gt;Node16 -->
<g id="edge34_Node000029_Node000016" class="edge">
<title>Node29&#45;&gt;Node16</title>
<g id="a_edge34_Node000029_Node000016"><a xlink:title=" ">
<path fill="none" stroke="#63b8ff" d="M513.18,-295.27C485.68,-319.21 437.77,-360.9 415.19,-380.55"/>
<polygon fill="#63b8ff" stroke="#63b8ff" points="515.27,-298.09 520.52,-288.89 510.68,-292.81 515.27,-298.09"/>
</a>
</g>
</g>
<!-- Node30 -->
<g id="Node000030" class="node">
<title>Node30</title>
<g id="a_Node000030"><a xlink:href="app_8c.html#a4e0e8b8ddb7852b111d530fef11aca0b" target="_top" xlink:title=" ">
<polygon fill="white" stroke="#666666" points="435.62,-248.75 367.88,-248.75 367.88,-228 435.62,-228 435.62,-248.75"/>
<text text-anchor="middle" x="401.75" y="-235.25" font-family="Helvetica,sans-Serif" font-size="10.00">w2c__f434</text>
</a>
</g>
</g>
<!-- Node29&#45;&gt;Node30 -->
<g id="edge36_Node000029_Node000030" class="edge">
<title>Node29&#45;&gt;Node30</title>
<g id="a_edge36_Node000029_Node000030"><a xlink:title=" ">
<path fill="none" stroke="#63b8ff" d="M489.79,-264.29C472.15,-259.03 452.16,-253.09 435.8,-248.21"/>
<polygon fill="#63b8ff" stroke="#63b8ff" points="488.66,-267.6 499.24,-267.1 490.66,-260.89 488.66,-267.6"/>
</a>
</g>
</g>
<!-- Node31 -->
<g id="Node000031" class="node">
<title>Node31</title>
<g id="a_Node000031"><a xlink:href="app_8c.html#a424e6fc7189fa7a8a66b06480239043b" target="_top" xlink:title=" ">
<polygon fill="white" stroke="#666666" points="450.25,-287.75 353.25,-287.75 353.25,-267 450.25,-267 450.25,-287.75"/>
<text text-anchor="middle" x="401.75" y="-274.25" font-family="Helvetica,sans-Serif" font-size="10.00">wrap_w2c__f263</text>
</a>
</g>
</g>
<!-- Node29&#45;&gt;Node31 -->
<g id="edge38_Node000029_Node000031" class="edge">
<title>Node29&#45;&gt;Node31</title>
<g id="a_edge38_Node000029_Node000031"><a xlink:title=" ">
<path fill="none" stroke="#63b8ff" d="M489.2,-277.38C476.78,-277.38 463.25,-277.38 450.65,-277.38"/>
<polygon fill="#63b8ff" stroke="#63b8ff" points="489.18,-280.88 499.18,-277.38 489.18,-273.88 489.18,-280.88"/>
</a>
</g>
</g>
<!-- Node30&#45;&gt;Node9 -->
<g id="edge37_Node000030_Node000009" class="edge">
<title>Node30&#45;&gt;Node9</title>
<g id="a_edge37_Node000030_Node000009"><a xlink:title=" ">
<path fill="none" stroke="#63b8ff" d="M356.53,-231.96C338.96,-229.41 319.08,-226.53 302.8,-224.17"/>
<polygon fill="#63b8ff" stroke="#63b8ff" points="355.8,-235.39 366.2,-233.36 356.8,-228.46 355.8,-235.39"/>
</a>
</g>
</g>
<!-- Node32&#45;&gt;Node22 -->
<g id="edge41_Node000032_Node000022" class="edge">
<title>Node32&#45;&gt;Node22</title>
<g id="a_edge41_Node000032_Node000022"><a xlink:title=" ">
<path fill="none" stroke="#63b8ff" d="M608.4,-72.1C595.3,-67.82 581.16,-63.2 568.87,-59.19"/>
<polygon fill="#63b8ff" stroke="#63b8ff" points="607.06,-75.34 617.65,-75.12 609.23,-68.69 607.06,-75.34"/>
</a>
</g>
</g>
<!-- Node33&#45;&gt;Node9 -->
<g id="edge43_Node000033_Node000009" class="edge">
<title>Node33&#45;&gt;Node9</title>
<g id="a_edge43_Node000033_Node000009"><a xlink:title=" ">
<path fill="none" stroke="#63b8ff" d="M607.57,-169.02C529.97,-180.58 371.74,-204.17 302.94,-214.43"/>
<polygon fill="#63b8ff" stroke="#63b8ff" points="607.99,-172.49 617.36,-167.56 606.96,-165.57 607.99,-172.49"/>
</a>
</g>
</g>
<!-- Node33&#45;&gt;Node33 -->
<g id="edge44_Node000033_Node000033" class="edge">
<title>Node33&#45;&gt;Node33</title>
<g id="a_edge44_Node000033_Node000033"><a xlink:title=" ">
<path fill="none" stroke="#63b8ff" d="M671.3,-184.56C668.72,-188.23 662.67,-190.75 653.12,-190.75 635.16,-190.75 629.55,-181.81 636.29,-173.15"/>
<polygon fill="#63b8ff" stroke="#63b8ff" points="674.77,-184.18 670.14,-174.65 667.82,-184.99 674.77,-184.18"/>
</a>
</g>
</g>
</g>
</svg>
