<?xml version="1.0" encoding="UTF-8" standalone="no"?>
<!DOCTYPE svg PUBLIC "-//W3C//DTD SVG 1.1//EN"
 "http://www.w3.org/Graphics/SVG/1.1/DTD/svg11.dtd">
<!-- Generated by graphviz version 12.2.1 (0)
 -->
<!-- Title: w2c__f321 Pages: 1 -->
<svg width="387pt" height="300pt"
 viewBox="0.00 0.00 387.00 299.73" xmlns="http://www.w3.org/2000/svg" xmlns:xlink="http://www.w3.org/1999/xlink">
<g id="graph0" class="graph" transform="scale(1 1) rotate(0) translate(4 295.73)">
<title>w2c__f321</title>
<!-- Node1 -->
<g id="Node000001" class="node">
<title>Node1</title>
<g id="a_Node000001"><a xlink:title=" ">
<polygon fill="#999999" stroke="#666666" points="67.75,-135.75 0,-135.75 0,-115 67.75,-115 67.75,-135.75"/>
<text text-anchor="middle" x="33.88" y="-122.25" font-family="Helvetica,sans-Serif" font-size="10.00">w2c__f321</text>
</a>
</g>
</g>
<!-- Node1&#45;&gt;Node1 -->
<g id="edge9_Node000001_Node000001" class="edge">
<title>Node1&#45;&gt;Node1</title>
<g id="a_edge9_Node000001_Node000001"><a xlink:title=" ">
<path fill="none" stroke="#63b8ff" d="M17.16,-136.15C10.47,-144.81 16.04,-153.75 33.88,-153.75 43.35,-153.75 49.36,-151.23 51.91,-147.56"/>
<polygon fill="#63b8ff" stroke="#63b8ff" points="55.39,-147.18 50.77,-137.65 48.44,-147.99 55.39,-147.18"/>
</a>
</g>
</g>
<!-- Node2 -->
<g id="Node000002" class="node">
<title>Node2</title>
<g id="a_Node000002"><a xlink:href="app_8c.html#adac013373adadecb7663728bdf2ad0d6" target="_top" xlink:title=" ">
<polygon fill="white" stroke="#666666" points="171.5,-250.75 103.75,-250.75 103.75,-230 171.5,-230 171.5,-250.75"/>
<text text-anchor="middle" x="137.62" y="-237.25" font-family="Helvetica,sans-Serif" font-size="10.00">w2c__f290</text>
</a>
</g>
</g>
<!-- Node1&#45;&gt;Node2 -->
<g id="edge1_Node000001_Node000002" class="edge">
<title>Node1&#45;&gt;Node2</title>
<g id="a_edge1_Node000001_Node000002"><a xlink:title=" ">
<path fill="none" stroke="#63b8ff" d="M40.74,-136.13C51.39,-154.93 75.45,-194.27 103.75,-220.38 104.66,-221.21 105.61,-222.03 106.59,-222.84"/>
<polygon fill="#63b8ff" stroke="#63b8ff" points="104.51,-225.66 114.68,-228.62 108.58,-219.96 104.51,-225.66"/>
</a>
</g>
</g>
<!-- Node3 -->
<g id="Node000003" class="node">
<title>Node3</title>
<g id="a_Node000003"><a xlink:href="app_8c.html#ab78a9ba6819f5a9d3b53302097151d33" target="_top" xlink:title=" ">
<polygon fill="white" stroke="#666666" points="379,-173.75 311.25,-173.75 311.25,-153 379,-153 379,-173.75"/>
<text text-anchor="middle" x="345.12" y="-160.25" font-family="Helvetica,sans-Serif" font-size="10.00">w2c__f481</text>
</a>
</g>
</g>
<!-- Node1&#45;&gt;Node3 -->
<g id="edge16_Node000001_Node000003" class="edge">
<title>Node1&#45;&gt;Node3</title>
<g id="a_edge16_Node000001_Node000003"><a xlink:title=" ">
<path fill="none" stroke="#63b8ff" d="M35.89,-135.96C39.29,-164.79 53.1,-244.72 103.75,-277.38 182.57,-328.2 287.58,-226.67 327.65,-182.51"/>
<polygon fill="#63b8ff" stroke="#63b8ff" points="330.15,-184.96 334.17,-175.16 324.92,-180.31 330.15,-184.96"/>
</a>
</g>
</g>
<!-- Node4 -->
<g id="Node000004" class="node">
<title>Node4</title>
<g id="a_Node000004"><a xlink:href="app_8c.html#a710a90b53ca9da85f7059545f9c0c53f" target="_top" xlink:title=" ">
<polygon fill="white" stroke="#666666" points="275.25,-173.75 207.5,-173.75 207.5,-153 275.25,-153 275.25,-173.75"/>
<text text-anchor="middle" x="241.38" y="-160.25" font-family="Helvetica,sans-Serif" font-size="10.00">w2c__f527</text>
</a>
</g>
</g>
<!-- Node1&#45;&gt;Node4 -->
<g id="edge18_Node000001_Node000004" class="edge">
<title>Node1&#45;&gt;Node4</title>
<g id="a_edge18_Node000001_Node000004"><a xlink:title=" ">
<path fill="none" stroke="#63b8ff" d="M67.94,-135.44C79.22,-138.62 91.97,-141.94 103.75,-144.38 134.19,-150.66 168.88,-155.46 195.69,-158.66"/>
<polygon fill="#63b8ff" stroke="#63b8ff" points="195.2,-162.12 205.53,-159.8 196,-155.17 195.2,-162.12"/>
</a>
</g>
</g>
<!-- Node5 -->
<g id="Node000005" class="node">
<title>Node5</title>
<g id="a_Node000005"><a xlink:href="app_8c.html#a954582e69602ef9daaec39d80aad1fe3" target="_top" xlink:title=" ">
<polygon fill="white" stroke="#666666" points="171.5,-211.75 103.75,-211.75 103.75,-191 171.5,-191 171.5,-211.75"/>
<text text-anchor="middle" x="137.62" y="-198.25" font-family="Helvetica,sans-Serif" font-size="10.00">w2c__f299</text>
</a>
</g>
</g>
<!-- Node1&#45;&gt;Node5 -->
<g id="edge6_Node000001_Node000005" class="edge">
<title>Node1&#45;&gt;Node5</title>
<g id="a_edge6_Node000001_Node000005"><a xlink:title=" ">
<path fill="none" stroke="#63b8ff" d="M49.07,-136.2C62.96,-146.76 84.74,-163.26 103.75,-177.38 106.61,-179.5 109.61,-181.71 112.6,-183.9"/>
<polygon fill="#63b8ff" stroke="#63b8ff" points="110.5,-186.7 120.64,-189.78 114.63,-181.05 110.5,-186.7"/>
</a>
</g>
</g>
<!-- Node6 -->
<g id="Node000006" class="node">
<title>Node6</title>
<g id="a_Node000006"><a xlink:href="app_8c.html#ad46ee8455023db930456c594f733bd66" target="_top" xlink:title=" ">
<polygon fill="white" stroke="#666666" points="171.5,-135.75 103.75,-135.75 103.75,-115 171.5,-115 171.5,-135.75"/>
<text text-anchor="middle" x="137.62" y="-122.25" font-family="Helvetica,sans-Serif" font-size="10.00">w2c__f406</text>
</a>
</g>
</g>
<!-- Node1&#45;&gt;Node6 -->
<g id="edge10_Node000001_Node000006" class="edge">
<title>Node1&#45;&gt;Node6</title>
<g id="a_edge10_Node000001_Node000006"><a xlink:title=" ">
<path fill="none" stroke="#63b8ff" d="M68.19,-125.38C75.82,-125.38 84.06,-125.38 92.08,-125.38"/>
<polygon fill="#63b8ff" stroke="#63b8ff" points="92.07,-128.88 102.07,-125.38 92.07,-121.88 92.07,-128.88"/>
</a>
</g>
</g>
<!-- Node7 -->
<g id="Node000007" class="node">
<title>Node7</title>
<g id="a_Node000007"><a xlink:href="app_8c.html#a10d137688bad44b259e5f3c4540da228" target="_top" xlink:title=" ">
<polygon fill="white" stroke="#666666" points="171.5,-96.75 103.75,-96.75 103.75,-76 171.5,-76 171.5,-96.75"/>
<text text-anchor="middle" x="137.62" y="-83.25" font-family="Helvetica,sans-Serif" font-size="10.00">w2c__f468</text>
</a>
</g>
</g>
<!-- Node1&#45;&gt;Node7 -->
<g id="edge13_Node000001_Node000007" class="edge">
<title>Node1&#45;&gt;Node7</title>
<g id="a_edge13_Node000001_Node000007"><a xlink:title=" ">
<path fill="none" stroke="#63b8ff" d="M63.22,-114.51C73.91,-110.41 86.27,-105.67 97.76,-101.27"/>
<polygon fill="#63b8ff" stroke="#63b8ff" points="98.94,-104.57 107.02,-97.72 96.43,-98.03 98.94,-104.57"/>
</a>
</g>
</g>
<!-- Node8 -->
<g id="Node000008" class="node">
<title>Node8</title>
<g id="a_Node000008"><a xlink:href="app_8c.html#a674f6e81761467d0a8dc6d2a425eda9f" target="_top" xlink:title=" ">
<polygon fill="white" stroke="#666666" points="275.25,-20.75 207.5,-20.75 207.5,0 275.25,0 275.25,-20.75"/>
<text text-anchor="middle" x="241.38" y="-7.25" font-family="Helvetica,sans-Serif" font-size="10.00">w2c__f498</text>
</a>
</g>
</g>
<!-- Node1&#45;&gt;Node8 -->
<g id="edge17_Node000001_Node000008" class="edge">
<title>Node1&#45;&gt;Node8</title>
<g id="a_edge17_Node000001_Node000008"><a xlink:title=" ">
<path fill="none" stroke="#63b8ff" d="M39,-114.7C47.57,-94.09 69.43,-49.05 103.75,-28.38 131.31,-11.77 167.61,-7.65 195.87,-7.47"/>
<polygon fill="#63b8ff" stroke="#63b8ff" points="195.5,-10.97 205.54,-7.58 195.58,-3.97 195.5,-10.97"/>
</a>
</g>
</g>
<!-- Node9 -->
<g id="Node000009" class="node">
<title>Node9</title>
<g id="a_Node000009"><a xlink:href="app_8c.html#a992e3e9fe99a47560a2b83121c1b916a" target="_top" xlink:title=" ">
<polygon fill="white" stroke="#666666" points="171.5,-57.75 103.75,-57.75 103.75,-37 171.5,-37 171.5,-57.75"/>
<text text-anchor="middle" x="137.62" y="-44.25" font-family="Helvetica,sans-Serif" font-size="10.00">w2c__f566</text>
</a>
</g>
</g>
<!-- Node1&#45;&gt;Node9 -->
<g id="edge19_Node000001_Node000009" class="edge">
<title>Node1&#45;&gt;Node9</title>
<g id="a_edge19_Node000001_Node000009"><a xlink:title=" ">
<path fill="none" stroke="#63b8ff" d="M40.7,-114.85C50.87,-102.02 72.84,-81.79 94.96,-64.9"/>
<polygon fill="#63b8ff" stroke="#63b8ff" points="96.91,-67.81 102.86,-59.04 92.74,-62.19 96.91,-67.81"/>
</a>
</g>
</g>
<!-- Node2&#45;&gt;Node2 -->
<g id="edge2_Node000002_Node000002" class="edge">
<title>Node2&#45;&gt;Node2</title>
<g id="a_edge2_Node000002_Node000002"><a xlink:title=" ">
<path fill="none" stroke="#63b8ff" d="M120.91,-251.15C114.22,-259.81 119.79,-268.75 137.62,-268.75 147.1,-268.75 153.11,-266.23 155.66,-262.56"/>
<polygon fill="#63b8ff" stroke="#63b8ff" points="159.14,-262.18 154.52,-252.65 152.19,-262.99 159.14,-262.18"/>
</a>
</g>
</g>
<!-- Node2&#45;&gt;Node3 -->
<g id="edge3_Node000002_Node000003" class="edge">
<title>Node2&#45;&gt;Node3</title>
<g id="a_edge3_Node000002_Node000003"><a xlink:title=" ">
<path fill="none" stroke="#63b8ff" d="M171.95,-233.5C200.1,-227.14 241.14,-216.53 275.25,-202.38 289.93,-196.29 305.39,-187.74 317.95,-180.2"/>
<polygon fill="#63b8ff" stroke="#63b8ff" points="319.76,-183.2 326.43,-174.97 316.08,-177.24 319.76,-183.2"/>
</a>
</g>
</g>
<!-- Node2&#45;&gt;Node4 -->
<g id="edge4_Node000002_Node000004" class="edge">
<title>Node2&#45;&gt;Node4</title>
<g id="a_edge4_Node000002_Node000004"><a xlink:title=" ">
<path fill="none" stroke="#63b8ff" d="M157.36,-229.62C162.06,-226.75 167.04,-223.55 171.5,-220.38 188.55,-208.23 206.75,-193.06 220.16,-181.42"/>
<polygon fill="#63b8ff" stroke="#63b8ff" points="222.26,-184.24 227.47,-175.01 217.64,-178.98 222.26,-184.24"/>
</a>
</g>
</g>
<!-- Node4&#45;&gt;Node3 -->
<g id="edge5_Node000004_Node000003" class="edge">
<title>Node4&#45;&gt;Node3</title>
<g id="a_edge5_Node000004_Node000003"><a xlink:title=" ">
<path fill="none" stroke="#63b8ff" d="M275.69,-163.38C283.32,-163.38 291.56,-163.38 299.58,-163.38"/>
<polygon fill="#63b8ff" stroke="#63b8ff" points="299.57,-166.88 309.57,-163.38 299.57,-159.88 299.57,-166.88"/>
</a>
</g>
</g>
<!-- Node5&#45;&gt;Node3 -->
<g id="edge7_Node000005_Node000003" class="edge">
<title>Node5&#45;&gt;Node3</title>
<g id="a_edge7_Node000005_Node000003"><a xlink:title=" ">
<path fill="none" stroke="#63b8ff" d="M171.96,-197.97C199.76,-194.84 240.31,-189.59 275.25,-182.38 283.35,-180.7 291.91,-178.61 300.13,-176.43"/>
<polygon fill="#63b8ff" stroke="#63b8ff" points="300.88,-179.86 309.6,-173.84 299.03,-173.11 300.88,-179.86"/>
</a>
</g>
</g>
<!-- Node5&#45;&gt;Node4 -->
<g id="edge8_Node000005_Node000004" class="edge">
<title>Node5&#45;&gt;Node4</title>
<g id="a_edge8_Node000005_Node000004"><a xlink:title=" ">
<path fill="none" stroke="#63b8ff" d="M167.51,-190.59C177.82,-186.74 189.63,-182.33 200.69,-178.2"/>
<polygon fill="#63b8ff" stroke="#63b8ff" points="201.86,-181.5 210,-174.72 199.41,-174.94 201.86,-181.5"/>
</a>
</g>
</g>
<!-- Node6&#45;&gt;Node3 -->
<g id="edge11_Node000006_Node000003" class="edge">
<title>Node6&#45;&gt;Node3</title>
<g id="a_edge11_Node000006_Node000003"><a xlink:title=" ">
<path fill="none" stroke="#63b8ff" d="M171.96,-128.78C199.76,-131.91 240.31,-137.16 275.25,-144.38 283.35,-146.05 291.91,-148.14 300.13,-150.32"/>
<polygon fill="#63b8ff" stroke="#63b8ff" points="299.03,-153.64 309.6,-152.91 300.88,-146.89 299.03,-153.64"/>
</a>
</g>
</g>
<!-- Node6&#45;&gt;Node4 -->
<g id="edge12_Node000006_Node000004" class="edge">
<title>Node6&#45;&gt;Node4</title>
<g id="a_edge12_Node000006_Node000004"><a xlink:title=" ">
<path fill="none" stroke="#63b8ff" d="M167.51,-136.16C177.82,-140.01 189.63,-144.42 200.69,-148.55"/>
<polygon fill="#63b8ff" stroke="#63b8ff" points="199.41,-151.81 210,-152.03 201.86,-145.25 199.41,-151.81"/>
</a>
</g>
</g>
<!-- Node7&#45;&gt;Node3 -->
<g id="edge14_Node000007_Node000003" class="edge">
<title>Node7&#45;&gt;Node3</title>
<g id="a_edge14_Node000007_Node000003"><a xlink:title=" ">
<path fill="none" stroke="#63b8ff" d="M171.98,-95.32C199.95,-103.19 240.75,-115.53 275.25,-129.38 288.36,-134.64 302.42,-141.37 314.39,-147.45"/>
<polygon fill="#63b8ff" stroke="#63b8ff" points="312.47,-150.4 322.96,-151.88 315.68,-144.18 312.47,-150.4"/>
</a>
</g>
</g>
<!-- Node7&#45;&gt;Node4 -->
<g id="edge15_Node000007_Node000004" class="edge">
<title>Node7&#45;&gt;Node4</title>
<g id="a_edge15_Node000007_Node000004"><a xlink:title=" ">
<path fill="none" stroke="#63b8ff" d="M157.36,-97.13C162.06,-100 167.04,-103.2 171.5,-106.38 188.55,-118.52 206.75,-133.69 220.16,-145.33"/>
<polygon fill="#63b8ff" stroke="#63b8ff" points="217.64,-147.77 227.47,-151.74 222.26,-142.51 217.64,-147.77"/>
</a>
</g>
</g>
<!-- Node9&#45;&gt;Node1 -->
<g id="edge20_Node000009_Node000001" class="edge">
<title>Node9&#45;&gt;Node1</title>
<g id="a_edge20_Node000009_Node000001"><a xlink:title=" ">
<path fill="none" stroke="#63b8ff" d="M129.63,-58.1C122.83,-64.04 112.32,-70.21 103.75,-76.38 90.09,-86.19 75.75,-98 63.71,-107.72"/>
<polygon fill="#63b8ff" stroke="#63b8ff" points="61.81,-104.76 56.19,-113.74 66.18,-110.23 61.81,-104.76"/>
</a>
</g>
</g>
<!-- Node9&#45;&gt;Node3 -->
<g id="edge21_Node000009_Node000003" class="edge">
<title>Node9&#45;&gt;Node3</title>
<g id="a_edge21_Node000009_Node000003"><a xlink:title=" ">
<path fill="none" stroke="#63b8ff" d="M171.87,-57.2C200.5,-66.48 242.3,-82 275.25,-102.38 294.42,-114.23 313.38,-131.54 326.54,-144.7"/>
<polygon fill="#63b8ff" stroke="#63b8ff" points="323.75,-146.85 333.24,-151.57 328.76,-141.96 323.75,-146.85"/>
</a>
</g>
</g>
<!-- Node9&#45;&gt;Node4 -->
<g id="edge23_Node000009_Node000004" class="edge">
<title>Node9&#45;&gt;Node4</title>
<g id="a_edge23_Node000009_Node000004"><a xlink:title=" ">
<path fill="none" stroke="#63b8ff" d="M159.35,-58.23C163.6,-60.93 167.87,-64.01 171.5,-67.38 195.71,-89.82 216.7,-121.99 228.95,-142.78"/>
<polygon fill="#63b8ff" stroke="#63b8ff" points="225.77,-144.26 233.78,-151.19 231.84,-140.78 225.77,-144.26"/>
</a>
</g>
</g>
<!-- Node9&#45;&gt;Node8 -->
<g id="edge22_Node000009_Node000008" class="edge">
<title>Node9&#45;&gt;Node8</title>
<g id="a_edge22_Node000009_Node000008"><a xlink:title=" ">
<path fill="none" stroke="#63b8ff" d="M168.33,-36.57C178.25,-32.96 189.49,-28.88 200.08,-25.03"/>
<polygon fill="#63b8ff" stroke="#63b8ff" points="201.19,-28.35 209.39,-21.64 198.79,-21.77 201.19,-28.35"/>
</a>
</g>
</g>
</g>
</svg>
