<?xml version="1.0" encoding="UTF-8" standalone="no"?>
<!DOCTYPE svg PUBLIC "-//W3C//DTD SVG 1.1//EN"
 "http://www.w3.org/Graphics/SVG/1.1/DTD/svg11.dtd">
<!-- Generated by graphviz version 12.2.1 (0)
 -->
<!-- Title: w2c__f361 Pages: 1 -->
<svg width="387pt" height="29pt"
 viewBox="0.00 0.00 387.00 28.75" xmlns="http://www.w3.org/2000/svg" xmlns:xlink="http://www.w3.org/1999/xlink">
<g id="graph0" class="graph" transform="scale(1 1) rotate(0) translate(4 24.75)">
<title>w2c__f361</title>
<!-- Node1 -->
<g id="Node000001" class="node">
<title>Node1</title>
<g id="a_Node000001"><a xlink:title=" ">
<polygon fill="#999999" stroke="#666666" points="67.75,-20.75 0,-20.75 0,0 67.75,0 67.75,-20.75"/>
<text text-anchor="middle" x="33.88" y="-7.25" font-family="Helvetica,sans-Serif" font-size="10.00">w2c__f361</text>
</a>
</g>
</g>
<!-- Node2 -->
<g id="Node000002" class="node">
<title>Node2</title>
<g id="a_Node000002"><a xlink:href="app_8c.html#afb683415b62b4f0be920afb5553ba664" target="_top" xlink:title=" ">
<polygon fill="white" stroke="#666666" points="171.5,-20.75 103.75,-20.75 103.75,0 171.5,0 171.5,-20.75"/>
<text text-anchor="middle" x="137.62" y="-7.25" font-family="Helvetica,sans-Serif" font-size="10.00">w2c__f393</text>
</a>
</g>
</g>
<!-- Node1&#45;&gt;Node2 -->
<g id="edge1_Node000001_Node000002" class="edge">
<title>Node1&#45;&gt;Node2</title>
<g id="a_edge1_Node000001_Node000002"><a xlink:title=" ">
<path fill="none" stroke="#63b8ff" d="M68.19,-10.38C75.82,-10.38 84.06,-10.38 92.08,-10.38"/>
<polygon fill="#63b8ff" stroke="#63b8ff" points="92.07,-13.88 102.07,-10.38 92.07,-6.88 92.07,-13.88"/>
</a>
</g>
</g>
<!-- Node3 -->
<g id="Node000003" class="node">
<title>Node3</title>
<g id="a_Node000003"><a xlink:href="app_8c.html#ae5047787e0de58e6bf7b8460a06e8ac7" target="_top" xlink:title=" ">
<polygon fill="white" stroke="#666666" points="275.25,-20.75 207.5,-20.75 207.5,0 275.25,0 275.25,-20.75"/>
<text text-anchor="middle" x="241.38" y="-7.25" font-family="Helvetica,sans-Serif" font-size="10.00">w2c__f218</text>
</a>
</g>
</g>
<!-- Node2&#45;&gt;Node3 -->
<g id="edge2_Node000002_Node000003" class="edge">
<title>Node2&#45;&gt;Node3</title>
<g id="a_edge2_Node000002_Node000003"><a xlink:title=" ">
<path fill="none" stroke="#63b8ff" d="M171.94,-10.38C179.57,-10.38 187.81,-10.38 195.83,-10.38"/>
<polygon fill="#63b8ff" stroke="#63b8ff" points="195.82,-13.88 205.82,-10.38 195.82,-6.88 195.82,-13.88"/>
</a>
</g>
</g>
<!-- Node4 -->
<g id="Node000004" class="node">
<title>Node4</title>
<g id="a_Node000004"><a xlink:href="app_8c.html#a909a1e942e7ddbab180d8c9cd5924337" target="_top" xlink:title=" ">
<polygon fill="white" stroke="#666666" points="379,-20.75 311.25,-20.75 311.25,0 379,0 379,-20.75"/>
<text text-anchor="middle" x="345.12" y="-7.25" font-family="Helvetica,sans-Serif" font-size="10.00">w2c__f538</text>
</a>
</g>
</g>
<!-- Node3&#45;&gt;Node4 -->
<g id="edge3_Node000003_Node000004" class="edge">
<title>Node3&#45;&gt;Node4</title>
<g id="a_edge3_Node000003_Node000004"><a xlink:title=" ">
<path fill="none" stroke="#63b8ff" d="M275.69,-10.38C283.32,-10.38 291.56,-10.38 299.58,-10.38"/>
<polygon fill="#63b8ff" stroke="#63b8ff" points="299.57,-13.88 309.57,-10.38 299.57,-6.88 299.57,-13.88"/>
</a>
</g>
</g>
</g>
</svg>
