<?xml version="1.0" encoding="UTF-8" standalone="no"?>
<!DOCTYPE svg PUBLIC "-//W3C//DTD SVG 1.1//EN"
 "http://www.w3.org/Graphics/SVG/1.1/DTD/svg11.dtd">
<!-- Generated by graphviz version 12.2.1 (0)
 -->
<!-- Title: w2c__f495 Pages: 1 -->
<svg width="394pt" height="926pt"
 viewBox="0.00 0.00 393.75 925.75" xmlns="http://www.w3.org/2000/svg" xmlns:xlink="http://www.w3.org/1999/xlink">
<g id="graph0" class="graph" transform="scale(1 1) rotate(0) translate(4 921.75)">
<title>w2c__f495</title>
<!-- Node1 -->
<g id="Node000001" class="node">
<title>Node1</title>
<g id="a_Node000001"><a xlink:title=" ">
<polygon fill="#999999" stroke="#666666" points="67.75,-468.75 0,-468.75 0,-448 67.75,-448 67.75,-468.75"/>
<text text-anchor="middle" x="33.88" y="-455.25" font-family="Helvetica,sans-Serif" font-size="10.00">w2c__f495</text>
</a>
</g>
</g>
<!-- Node2 -->
<g id="Node000002" class="node">
<title>Node2</title>
<g id="a_Node000002"><a xlink:href="app_8c.html#a8384cd91595683e7fe9b6383bc2eac1d" target="_top" xlink:title=" ">
<polygon fill="white" stroke="#666666" points="174.88,-917.75 104.88,-917.75 104.88,-897 174.88,-897 174.88,-917.75"/>
<text text-anchor="middle" x="139.88" y="-904.25" font-family="Helvetica,sans-Serif" font-size="10.00">w2c_0_106</text>
</a>
</g>
</g>
<!-- Node1&#45;&gt;Node2 -->
<g id="edge1_Node000001_Node000002" class="edge">
<title>Node1&#45;&gt;Node2</title>
<g id="a_edge1_Node000001_Node000002"><a xlink:title=" ">
<path fill="none" stroke="#63b8ff" d="M35.35,-468.93C38.19,-527.87 54.43,-816.24 103.75,-887.38 104.15,-887.95 104.57,-888.51 105.01,-889.06"/>
<polygon fill="#63b8ff" stroke="#63b8ff" points="102.65,-891.64 112.43,-895.72 107.33,-886.43 102.65,-891.64"/>
</a>
</g>
</g>
<!-- Node3 -->
<g id="Node000003" class="node">
<title>Node3</title>
<g id="a_Node000003"><a xlink:href="app_8c.html#a4b04d6b9dc59bbf820841bdf23c087b9" target="_top" xlink:title=" ">
<polygon fill="white" stroke="#666666" points="174.88,-878.75 104.88,-878.75 104.88,-858 174.88,-858 174.88,-878.75"/>
<text text-anchor="middle" x="139.88" y="-865.25" font-family="Helvetica,sans-Serif" font-size="10.00">w2c_0_117</text>
</a>
</g>
</g>
<!-- Node1&#45;&gt;Node3 -->
<g id="edge2_Node000001_Node000003" class="edge">
<title>Node1&#45;&gt;Node3</title>
<g id="a_edge2_Node000001_Node000003"><a xlink:title=" ">
<path fill="none" stroke="#63b8ff" d="M35.55,-469.05C39.24,-525.01 58.59,-784.31 103.75,-848.38 104.15,-848.95 104.58,-849.51 105.03,-850.05"/>
<polygon fill="#63b8ff" stroke="#63b8ff" points="102.68,-852.65 112.47,-856.69 107.34,-847.42 102.68,-852.65"/>
</a>
</g>
</g>
<!-- Node4 -->
<g id="Node000004" class="node">
<title>Node4</title>
<g id="a_Node000004"><a xlink:href="app_8c.html#a9790bbf4b83271cf9d4d5890544058f0" target="_top" xlink:title=" ">
<polygon fill="white" stroke="#666666" points="174.88,-839.75 104.88,-839.75 104.88,-819 174.88,-819 174.88,-839.75"/>
<text text-anchor="middle" x="139.88" y="-826.25" font-family="Helvetica,sans-Serif" font-size="10.00">w2c_0_151</text>
</a>
</g>
</g>
<!-- Node1&#45;&gt;Node4 -->
<g id="edge3_Node000001_Node000004" class="edge">
<title>Node1&#45;&gt;Node4</title>
<g id="a_edge3_Node000001_Node000004"><a xlink:title=" ">
<path fill="none" stroke="#63b8ff" d="M35.77,-469.01C40.37,-521.45 62.69,-752.28 103.75,-809.38 104.16,-809.94 104.59,-810.5 105.04,-811.04"/>
<polygon fill="#63b8ff" stroke="#63b8ff" points="102.72,-813.66 112.53,-817.65 107.35,-808.41 102.72,-813.66"/>
</a>
</g>
</g>
<!-- Node5 -->
<g id="Node000005" class="node">
<title>Node5</title>
<g id="a_Node000005"><a xlink:href="app_8c.html#a486d2e6f90eff27fc52524e6afe90a9d" target="_top" xlink:title=" ">
<polygon fill="white" stroke="#666666" points="174.88,-800.75 104.88,-800.75 104.88,-780 174.88,-780 174.88,-800.75"/>
<text text-anchor="middle" x="139.88" y="-787.25" font-family="Helvetica,sans-Serif" font-size="10.00">w2c_0_155</text>
</a>
</g>
</g>
<!-- Node1&#45;&gt;Node5 -->
<g id="edge4_Node000001_Node000005" class="edge">
<title>Node1&#45;&gt;Node5</title>
<g id="a_edge4_Node000001_Node000005"><a xlink:title=" ">
<path fill="none" stroke="#63b8ff" d="M36.07,-469.11C41.69,-518.1 66.8,-720.25 103.75,-770.38 104.25,-771.05 104.78,-771.71 105.34,-772.35"/>
<polygon fill="#63b8ff" stroke="#63b8ff" points="102.73,-774.73 112.59,-778.61 107.31,-769.43 102.73,-774.73"/>
</a>
</g>
</g>
<!-- Node6 -->
<g id="Node000006" class="node">
<title>Node6</title>
<g id="a_Node000006"><a xlink:href="app_8c.html#ae2d23de3dc3ede2638259154af5e2d35" target="_top" xlink:title=" ">
<polygon fill="white" stroke="#666666" points="174.88,-761.75 104.88,-761.75 104.88,-741 174.88,-741 174.88,-761.75"/>
<text text-anchor="middle" x="139.88" y="-748.25" font-family="Helvetica,sans-Serif" font-size="10.00">w2c_0_167</text>
</a>
</g>
</g>
<!-- Node1&#45;&gt;Node6 -->
<g id="edge5_Node000001_Node000006" class="edge">
<title>Node1&#45;&gt;Node6</title>
<g id="a_edge5_Node000001_Node000006"><a xlink:title=" ">
<path fill="none" stroke="#63b8ff" d="M34.71,-469.03C34.66,-508.23 39.25,-646.55 103.75,-731.38 104.26,-732.05 104.8,-732.7 105.36,-733.33"/>
<polygon fill="#63b8ff" stroke="#63b8ff" points="102.79,-735.73 112.67,-739.55 107.33,-730.4 102.79,-735.73"/>
</a>
</g>
</g>
<!-- Node7 -->
<g id="Node000007" class="node">
<title>Node7</title>
<g id="a_Node000007"><a xlink:href="app_8c.html#a3113932e62dba39693c0f154b4e86faa" target="_top" xlink:title=" ">
<polygon fill="white" stroke="#666666" points="174.88,-722.75 104.88,-722.75 104.88,-702 174.88,-702 174.88,-722.75"/>
<text text-anchor="middle" x="139.88" y="-709.25" font-family="Helvetica,sans-Serif" font-size="10.00">w2c_0_187</text>
</a>
</g>
</g>
<!-- Node1&#45;&gt;Node7 -->
<g id="edge6_Node000001_Node000007" class="edge">
<title>Node1&#45;&gt;Node7</title>
<g id="a_edge6_Node000001_Node000007"><a xlink:title=" ">
<path fill="none" stroke="#63b8ff" d="M35.27,-469.21C37.11,-505 47.36,-621.16 103.75,-692.38 104.29,-693.06 104.86,-693.72 105.45,-694.36"/>
<polygon fill="#63b8ff" stroke="#63b8ff" points="103.2,-697.04 113.13,-700.71 107.66,-691.64 103.2,-697.04"/>
</a>
</g>
</g>
<!-- Node8 -->
<g id="Node000008" class="node">
<title>Node8</title>
<g id="a_Node000008"><a xlink:href="app_8c.html#ad1ce32c4f4019397d993e9ccea3f840f" target="_top" xlink:title=" ">
<polygon fill="white" stroke="#666666" points="171.88,-683.75 107.88,-683.75 107.88,-663 171.88,-663 171.88,-683.75"/>
<text text-anchor="middle" x="139.88" y="-670.25" font-family="Helvetica,sans-Serif" font-size="10.00">w2c_0_25</text>
</a>
</g>
</g>
<!-- Node1&#45;&gt;Node8 -->
<g id="edge7_Node000001_Node000008" class="edge">
<title>Node1&#45;&gt;Node8</title>
<g id="a_edge7_Node000001_Node000008"><a xlink:title=" ">
<path fill="none" stroke="#63b8ff" d="M36.01,-468.95C39.88,-500.47 55.16,-595.26 103.75,-653.38 104.31,-654.04 104.89,-654.69 105.5,-655.32"/>
<polygon fill="#63b8ff" stroke="#63b8ff" points="103.3,-658.04 113.28,-661.6 107.7,-652.6 103.3,-658.04"/>
</a>
</g>
</g>
<!-- Node9 -->
<g id="Node000009" class="node">
<title>Node9</title>
<g id="a_Node000009"><a xlink:href="app_8c.html#a962762017f14f19ae27b082d2498c6a3" target="_top" xlink:title=" ">
<polygon fill="white" stroke="#666666" points="171.88,-644.75 107.88,-644.75 107.88,-624 171.88,-624 171.88,-644.75"/>
<text text-anchor="middle" x="139.88" y="-631.25" font-family="Helvetica,sans-Serif" font-size="10.00">w2c_0_37</text>
</a>
</g>
</g>
<!-- Node1&#45;&gt;Node9 -->
<g id="edge8_Node000001_Node000009" class="edge">
<title>Node1&#45;&gt;Node9</title>
<g id="a_edge8_Node000001_Node000009"><a xlink:title=" ">
<path fill="none" stroke="#63b8ff" d="M37.14,-469.12C43.38,-496.39 63.07,-569.33 103.75,-614.38 104.45,-615.15 105.19,-615.9 105.95,-616.63"/>
<polygon fill="#63b8ff" stroke="#63b8ff" points="103.77,-619.37 113.84,-622.67 108.03,-613.81 103.77,-619.37"/>
</a>
</g>
</g>
<!-- Node10 -->
<g id="Node000010" class="node">
<title>Node10</title>
<g id="a_Node000010"><a xlink:href="app_8c.html#a3b6e85d17a73963f7590a14041118020" target="_top" xlink:title=" ">
<polygon fill="white" stroke="#666666" points="171.88,-605.75 107.88,-605.75 107.88,-585 171.88,-585 171.88,-605.75"/>
<text text-anchor="middle" x="139.88" y="-592.25" font-family="Helvetica,sans-Serif" font-size="10.00">w2c_0_40</text>
</a>
</g>
</g>
<!-- Node1&#45;&gt;Node10 -->
<g id="edge9_Node000001_Node000010" class="edge">
<title>Node1&#45;&gt;Node10</title>
<g id="a_edge9_Node000001_Node000010"><a xlink:title=" ">
<path fill="none" stroke="#63b8ff" d="M38.89,-468.96C47.72,-491.07 70.68,-542.78 103.75,-575.38 104.62,-576.24 105.54,-577.07 106.5,-577.89"/>
<polygon fill="#63b8ff" stroke="#63b8ff" points="104.34,-580.64 114.5,-583.62 108.41,-574.95 104.34,-580.64"/>
</a>
</g>
</g>
<!-- Node11 -->
<g id="Node000011" class="node">
<title>Node11</title>
<g id="a_Node000011"><a xlink:href="app_8c.html#af0e38002a80581144d9edf8e0456cd8c" target="_top" xlink:title=" ">
<polygon fill="white" stroke="#666666" points="171.88,-566.75 107.88,-566.75 107.88,-546 171.88,-546 171.88,-566.75"/>
<text text-anchor="middle" x="139.88" y="-553.25" font-family="Helvetica,sans-Serif" font-size="10.00">w2c_0_52</text>
</a>
</g>
</g>
<!-- Node1&#45;&gt;Node11 -->
<g id="edge10_Node000001_Node000011" class="edge">
<title>Node1&#45;&gt;Node11</title>
<g id="a_edge10_Node000001_Node000011"><a xlink:title=" ">
<path fill="none" stroke="#63b8ff" d="M42.61,-469.23C54.45,-485.3 78.38,-515.75 103.75,-536.38 105.04,-537.43 106.4,-538.45 107.79,-539.46"/>
<polygon fill="#63b8ff" stroke="#63b8ff" points="105.76,-542.31 116.06,-544.79 109.56,-536.43 105.76,-542.31"/>
</a>
</g>
</g>
<!-- Node12 -->
<g id="Node000012" class="node">
<title>Node12</title>
<g id="a_Node000012"><a xlink:href="app_8c.html#a140addb22e2accea25d5f432577f1c98" target="_top" xlink:title=" ">
<polygon fill="white" stroke="#666666" points="171.88,-527.75 107.88,-527.75 107.88,-507 171.88,-507 171.88,-527.75"/>
<text text-anchor="middle" x="139.88" y="-514.25" font-family="Helvetica,sans-Serif" font-size="10.00">w2c_0_60</text>
</a>
</g>
</g>
<!-- Node1&#45;&gt;Node12 -->
<g id="edge11_Node000001_Node000012" class="edge">
<title>Node1&#45;&gt;Node12</title>
<g id="a_edge11_Node000001_Node000012"><a xlink:title=" ">
<path fill="none" stroke="#63b8ff" d="M53.95,-469.2C69.64,-478.1 92.11,-490.85 110,-501"/>
<polygon fill="#63b8ff" stroke="#63b8ff" points="108.18,-503.99 118.6,-505.88 111.63,-497.9 108.18,-503.99"/>
</a>
</g>
</g>
<!-- Node13 -->
<g id="Node000013" class="node">
<title>Node13</title>
<g id="a_Node000013"><a xlink:href="app_8c.html#a40b54786c297cc609ed7ccb330391ba2" target="_top" xlink:title=" ">
<polygon fill="white" stroke="#666666" points="171.88,-488.75 107.88,-488.75 107.88,-468 171.88,-468 171.88,-488.75"/>
<text text-anchor="middle" x="139.88" y="-475.25" font-family="Helvetica,sans-Serif" font-size="10.00">w2c_0_64</text>
</a>
</g>
</g>
<!-- Node1&#45;&gt;Node13 -->
<g id="edge12_Node000001_Node000013" class="edge">
<title>Node1&#45;&gt;Node13</title>
<g id="a_edge12_Node000001_Node000013"><a xlink:title=" ">
<path fill="none" stroke="#63b8ff" d="M68.07,-464.76C77.03,-466.48 86.85,-468.37 96.25,-470.18"/>
<polygon fill="#63b8ff" stroke="#63b8ff" points="95.45,-473.59 105.93,-472.04 96.77,-466.71 95.45,-473.59"/>
</a>
</g>
</g>
<!-- Node14 -->
<g id="Node000014" class="node">
<title>Node14</title>
<g id="a_Node000014"><a xlink:href="app_8c.html#a00f8fb47321881b73afc02e5637e59b3" target="_top" xlink:title=" ">
<polygon fill="white" stroke="#666666" points="168.88,-449.75 110.88,-449.75 110.88,-429 168.88,-429 168.88,-449.75"/>
<text text-anchor="middle" x="139.88" y="-436.25" font-family="Helvetica,sans-Serif" font-size="10.00">w2c_0_7</text>
</a>
</g>
</g>
<!-- Node1&#45;&gt;Node14 -->
<g id="edge13_Node000001_Node000014" class="edge">
<title>Node1&#45;&gt;Node14</title>
<g id="a_edge13_Node000001_Node000014"><a xlink:title=" ">
<path fill="none" stroke="#63b8ff" d="M68.07,-452.31C78,-450.5 88.99,-448.49 99.3,-446.61"/>
<polygon fill="#63b8ff" stroke="#63b8ff" points="99.84,-450.06 109.05,-444.82 98.58,-443.18 99.84,-450.06"/>
</a>
</g>
</g>
<!-- Node15 -->
<g id="Node000015" class="node">
<title>Node15</title>
<g id="a_Node000015"><a xlink:href="app_8c.html#a8ceab707ef5f7467756fd8415cdbe224" target="_top" xlink:title=" ">
<polygon fill="white" stroke="#666666" points="171.88,-410.75 107.88,-410.75 107.88,-390 171.88,-390 171.88,-410.75"/>
<text text-anchor="middle" x="139.88" y="-397.25" font-family="Helvetica,sans-Serif" font-size="10.00">w2c_0_75</text>
</a>
</g>
</g>
<!-- Node1&#45;&gt;Node15 -->
<g id="edge14_Node000001_Node000015" class="edge">
<title>Node1&#45;&gt;Node15</title>
<g id="a_edge14_Node000001_Node000015"><a xlink:title=" ">
<path fill="none" stroke="#63b8ff" d="M53.95,-447.74C69.54,-439.04 91.83,-426.61 109.67,-416.66"/>
<polygon fill="#63b8ff" stroke="#63b8ff" points="111.22,-419.81 118.25,-411.88 107.81,-413.69 111.22,-419.81"/>
</a>
</g>
</g>
<!-- Node16 -->
<g id="Node000016" class="node">
<title>Node16</title>
<g id="a_Node000016"><a xlink:href="app_8c.html#a219aff62d9abc33c8cf23fd20ba662f6" target="_top" xlink:title=" ">
<polygon fill="white" stroke="#666666" points="168.88,-371.75 110.88,-371.75 110.88,-351 168.88,-351 168.88,-371.75"/>
<text text-anchor="middle" x="139.88" y="-358.25" font-family="Helvetica,sans-Serif" font-size="10.00">w2c_0_9</text>
</a>
</g>
</g>
<!-- Node1&#45;&gt;Node16 -->
<g id="edge15_Node000001_Node000016" class="edge">
<title>Node1&#45;&gt;Node16</title>
<g id="a_edge15_Node000001_Node000016"><a xlink:title=" ">
<path fill="none" stroke="#63b8ff" d="M42.64,-447.67C54.52,-431.82 78.49,-401.77 103.75,-381.38 105.05,-380.33 106.4,-379.3 107.8,-378.31"/>
<polygon fill="#63b8ff" stroke="#63b8ff" points="109.56,-381.34 116.08,-372.98 105.78,-375.45 109.56,-381.34"/>
</a>
</g>
</g>
<!-- Node17 -->
<g id="Node000017" class="node">
<title>Node17</title>
<g id="a_Node000017"><a xlink:href="app_8c.html#a0378208e0d5c0d1d6e7370f1c578fab3" target="_top" xlink:title=" ">
<polygon fill="white" stroke="#666666" points="173.75,-293.75 106,-293.75 106,-273 173.75,-273 173.75,-293.75"/>
<text text-anchor="middle" x="139.88" y="-280.25" font-family="Helvetica,sans-Serif" font-size="10.00">w2c__f216</text>
</a>
</g>
</g>
<!-- Node1&#45;&gt;Node17 -->
<g id="edge16_Node000001_Node000017" class="edge">
<title>Node1&#45;&gt;Node17</title>
<g id="a_edge16_Node000001_Node000017"><a xlink:title=" ">
<path fill="none" stroke="#63b8ff" d="M37.16,-447.7C43.44,-420.6 63.24,-348.13 103.75,-303.38 104.45,-302.6 105.19,-301.85 105.96,-301.12"/>
<polygon fill="#63b8ff" stroke="#63b8ff" points="108.03,-303.94 113.85,-295.09 103.78,-298.38 108.03,-303.94"/>
</a>
</g>
</g>
<!-- Node19 -->
<g id="Node000019" class="node">
<title>Node19</title>
<g id="a_Node000019"><a xlink:href="app_8c.html#a8db030f7fb4f88f33f1bacee07a01842" target="_top" xlink:title=" ">
<polygon fill="white" stroke="#666666" points="173.75,-332.75 106,-332.75 106,-312 173.75,-312 173.75,-332.75"/>
<text text-anchor="middle" x="139.88" y="-319.25" font-family="Helvetica,sans-Serif" font-size="10.00">w2c__f247</text>
</a>
</g>
</g>
<!-- Node1&#45;&gt;Node19 -->
<g id="edge18_Node000001_Node000019" class="edge">
<title>Node1&#45;&gt;Node19</title>
<g id="a_edge18_Node000001_Node000019"><a xlink:title=" ">
<path fill="none" stroke="#63b8ff" d="M39.05,-447.55C48.02,-425.45 71,-374.54 103.75,-342.38 104.76,-341.38 105.84,-340.42 106.95,-339.49"/>
<polygon fill="#63b8ff" stroke="#63b8ff" points="108.72,-342.53 114.87,-333.9 104.68,-336.81 108.72,-342.53"/>
</a>
</g>
</g>
<!-- Node21 -->
<g id="Node000021" class="node">
<title>Node21</title>
<g id="a_Node000021"><a xlink:href="app_8c.html#aaca5d5bcf49f2ca74019cf097750b9f3" target="_top" xlink:title=" ">
<polygon fill="white" stroke="#666666" points="173.75,-254.75 106,-254.75 106,-234 173.75,-234 173.75,-254.75"/>
<text text-anchor="middle" x="139.88" y="-241.25" font-family="Helvetica,sans-Serif" font-size="10.00">w2c__f258</text>
</a>
</g>
</g>
<!-- Node1&#45;&gt;Node21 -->
<g id="edge20_Node000001_Node000021" class="edge">
<title>Node1&#45;&gt;Node21</title>
<g id="a_edge20_Node000001_Node000021"><a xlink:title=" ">
<path fill="none" stroke="#63b8ff" d="M36.02,-447.86C39.94,-416.49 55.33,-322.19 103.75,-264.38 104.31,-263.71 104.89,-263.06 105.5,-262.43"/>
<polygon fill="#63b8ff" stroke="#63b8ff" points="107.7,-265.16 113.29,-256.15 103.3,-259.71 107.7,-265.16"/>
</a>
</g>
</g>
<!-- Node23 -->
<g id="Node000023" class="node">
<title>Node23</title>
<g id="a_Node000023"><a xlink:href="app_8c.html#a31fade832aba27a39b4f9e7dae41c3ef" target="_top" xlink:title=" ">
<polygon fill="white" stroke="#666666" points="173.75,-215.75 106,-215.75 106,-195 173.75,-195 173.75,-215.75"/>
<text text-anchor="middle" x="139.88" y="-202.25" font-family="Helvetica,sans-Serif" font-size="10.00">w2c__f416</text>
</a>
</g>
</g>
<!-- Node1&#45;&gt;Node23 -->
<g id="edge23_Node000001_Node000023" class="edge">
<title>Node1&#45;&gt;Node23</title>
<g id="a_edge23_Node000001_Node000023"><a xlink:title=" ">
<path fill="none" stroke="#63b8ff" d="M35.27,-447.83C37.12,-412.48 47.41,-296.44 103.75,-225.38 104.29,-224.69 104.86,-224.03 105.45,-223.39"/>
<polygon fill="#63b8ff" stroke="#63b8ff" points="107.66,-226.11 113.14,-217.04 103.2,-220.71 107.66,-226.11"/>
</a>
</g>
</g>
<!-- Node25 -->
<g id="Node000025" class="node">
<title>Node25</title>
<g id="a_Node000025"><a xlink:href="app_8c.html#a62b40d05237f4fef5a4b6f3a1238cc9c" target="_top" xlink:title=" ">
<polygon fill="white" stroke="#666666" points="173.75,-176.75 106,-176.75 106,-156 173.75,-156 173.75,-176.75"/>
<text text-anchor="middle" x="139.88" y="-163.25" font-family="Helvetica,sans-Serif" font-size="10.00">w2c__f430</text>
</a>
</g>
</g>
<!-- Node1&#45;&gt;Node25 -->
<g id="edge25_Node000001_Node000025" class="edge">
<title>Node1&#45;&gt;Node25</title>
<g id="a_edge25_Node000001_Node000025"><a xlink:title=" ">
<path fill="none" stroke="#63b8ff" d="M34.73,-447.76C34.71,-408.7 39.43,-270.88 103.75,-186.38 104.26,-185.7 104.8,-185.05 105.36,-184.42"/>
<polygon fill="#63b8ff" stroke="#63b8ff" points="107.33,-187.35 112.68,-178.2 102.79,-182.01 107.33,-187.35"/>
</a>
</g>
</g>
<!-- Node28 -->
<g id="Node000028" class="node">
<title>Node28</title>
<g id="a_Node000028"><a xlink:href="app_8c.html#a674f6e81761467d0a8dc6d2a425eda9f" target="_top" xlink:title=" ">
<polygon fill="white" stroke="#666666" points="173.75,-137.75 106,-137.75 106,-117 173.75,-117 173.75,-137.75"/>
<text text-anchor="middle" x="139.88" y="-124.25" font-family="Helvetica,sans-Serif" font-size="10.00">w2c__f498</text>
</a>
</g>
</g>
<!-- Node1&#45;&gt;Node28 -->
<g id="edge29_Node000001_Node000028" class="edge">
<title>Node1&#45;&gt;Node28</title>
<g id="a_edge29_Node000001_Node000028"><a xlink:title=" ">
<path fill="none" stroke="#63b8ff" d="M36.07,-447.68C41.71,-398.84 66.9,-197.33 103.75,-147.38 104.25,-146.7 104.78,-146.04 105.34,-145.4"/>
<polygon fill="#63b8ff" stroke="#63b8ff" points="107.31,-148.32 112.59,-139.14 102.73,-143.02 107.31,-148.32"/>
</a>
</g>
</g>
<!-- Node29 -->
<g id="Node000029" class="node">
<title>Node29</title>
<g id="a_Node000029"><a xlink:href="app_8c.html#a58d893dd6cf117aafb69550b2a0a0e6a" target="_top" xlink:title=" ">
<polygon fill="white" stroke="#666666" points="173.75,-98.75 106,-98.75 106,-78 173.75,-78 173.75,-98.75"/>
<text text-anchor="middle" x="139.88" y="-85.25" font-family="Helvetica,sans-Serif" font-size="10.00">wasm_ceil</text>
</a>
</g>
</g>
<!-- Node1&#45;&gt;Node29 -->
<g id="edge30_Node000001_Node000029" class="edge">
<title>Node1&#45;&gt;Node29</title>
<g id="a_edge30_Node000001_Node000029"><a xlink:title=" ">
<path fill="none" stroke="#63b8ff" d="M35.78,-447.77C40.39,-395.48 62.79,-165.3 103.75,-108.38 104.16,-107.81 104.59,-107.25 105.04,-106.71"/>
<polygon fill="#63b8ff" stroke="#63b8ff" points="107.35,-109.34 112.53,-100.1 102.72,-104.09 107.35,-109.34"/>
</a>
</g>
</g>
<!-- Node31 -->
<g id="Node000031" class="node">
<title>Node31</title>
<g id="a_Node000031"><a xlink:href="app_8c.html#ad63b6498cfe22ce747f349eeb23b508f" target="_top" xlink:title=" ">
<polygon fill="white" stroke="#666666" points="175.62,-59.75 104.12,-59.75 104.12,-39 175.62,-39 175.62,-59.75"/>
<text text-anchor="middle" x="139.88" y="-46.25" font-family="Helvetica,sans-Serif" font-size="10.00">wasm_fabs</text>
</a>
</g>
</g>
<!-- Node1&#45;&gt;Node31 -->
<g id="edge32_Node000001_Node000031" class="edge">
<title>Node1&#45;&gt;Node31</title>
<g id="a_edge32_Node000001_Node000031"><a xlink:title=" ">
<path fill="none" stroke="#63b8ff" d="M35.55,-447.73C39.26,-391.91 58.69,-133.27 103.75,-69.38 104.15,-68.8 104.58,-68.24 105.03,-67.7"/>
<polygon fill="#63b8ff" stroke="#63b8ff" points="107.34,-70.33 112.48,-61.06 102.68,-65.1 107.34,-70.33"/>
</a>
</g>
</g>
<!-- Node32 -->
<g id="Node000032" class="node">
<title>Node32</title>
<g id="a_Node000032"><a xlink:href="app_8c.html#aca677a5348fb06a52413801823fa5291" target="_top" xlink:title=" ">
<polygon fill="white" stroke="#666666" points="176,-20.75 103.75,-20.75 103.75,0 176,0 176,-20.75"/>
<text text-anchor="middle" x="139.88" y="-7.25" font-family="Helvetica,sans-Serif" font-size="10.00">wasm_floor</text>
</a>
</g>
</g>
<!-- Node1&#45;&gt;Node32 -->
<g id="edge33_Node000001_Node000032" class="edge">
<title>Node1&#45;&gt;Node32</title>
<g id="a_edge33_Node000001_Node000032"><a xlink:title=" ">
<path fill="none" stroke="#63b8ff" d="M35.35,-447.85C38.21,-389.04 54.53,-101.34 103.75,-30.38 104.15,-29.8 104.57,-29.24 105.01,-28.69"/>
<polygon fill="#63b8ff" stroke="#63b8ff" points="107.33,-31.32 112.43,-22.03 102.65,-26.11 107.33,-31.32"/>
</a>
</g>
</g>
<!-- Node18 -->
<g id="Node000018" class="node">
<title>Node18</title>
<g id="a_Node000018"><a xlink:href="app_8c.html#a8d9f347f9a643f0ebfb53c4f54578ac4" target="_top" xlink:title=" ">
<polygon fill="white" stroke="#666666" points="280.88,-293.75 213.12,-293.75 213.12,-273 280.88,-273 280.88,-293.75"/>
<text text-anchor="middle" x="247" y="-280.25" font-family="Helvetica,sans-Serif" font-size="10.00">w2c__f304</text>
</a>
</g>
</g>
<!-- Node17&#45;&gt;Node18 -->
<g id="edge17_Node000017_Node000018" class="edge">
<title>Node17&#45;&gt;Node18</title>
<g id="a_edge17_Node000017_Node000018"><a xlink:title=" ">
<path fill="none" stroke="#63b8ff" d="M174.14,-283.38C182.85,-283.38 192.38,-283.38 201.58,-283.38"/>
<polygon fill="#63b8ff" stroke="#63b8ff" points="201.44,-286.88 211.44,-283.38 201.44,-279.88 201.44,-286.88"/>
</a>
</g>
</g>
<!-- Node20 -->
<g id="Node000020" class="node">
<title>Node20</title>
<g id="a_Node000020"><a xlink:href="app_8c.html#abce67cbb640aaf1b3d7b5d8ccec735b5" target="_top" xlink:title=" ">
<polygon fill="white" stroke="#666666" points="282,-332.75 212,-332.75 212,-312 282,-312 282,-332.75"/>
<text text-anchor="middle" x="247" y="-319.25" font-family="Helvetica,sans-Serif" font-size="10.00">w2c_0_142</text>
</a>
</g>
</g>
<!-- Node19&#45;&gt;Node20 -->
<g id="edge19_Node000019_Node000020" class="edge">
<title>Node19&#45;&gt;Node20</title>
<g id="a_edge19_Node000019_Node000020"><a xlink:title=" ">
<path fill="none" stroke="#63b8ff" d="M174.14,-322.38C182.42,-322.38 191.44,-322.38 200.21,-322.38"/>
<polygon fill="#63b8ff" stroke="#63b8ff" points="199.99,-325.88 209.99,-322.38 199.99,-318.88 199.99,-325.88"/>
</a>
</g>
</g>
<!-- Node21&#45;&gt;Node18 -->
<g id="edge21_Node000021_Node000018" class="edge">
<title>Node21&#45;&gt;Node18</title>
<g id="a_edge21_Node000021_Node000018"><a xlink:title=" ">
<path fill="none" stroke="#63b8ff" d="M170.16,-255.24C181.32,-259.38 194.24,-264.17 206.22,-268.62"/>
<polygon fill="#63b8ff" stroke="#63b8ff" points="204.86,-271.85 215.45,-272.04 207.3,-265.28 204.86,-271.85"/>
</a>
</g>
</g>
<!-- Node22 -->
<g id="Node000022" class="node">
<title>Node22</title>
<g id="a_Node000022"><a xlink:href="app_8c.html#a881f0b113e93dce3ff52d04b435850f6" target="_top" xlink:title=" ">
<polygon fill="white" stroke="#666666" points="280.88,-254.75 213.12,-254.75 213.12,-234 280.88,-234 280.88,-254.75"/>
<text text-anchor="middle" x="247" y="-241.25" font-family="Helvetica,sans-Serif" font-size="10.00">w2c__f491</text>
</a>
</g>
</g>
<!-- Node21&#45;&gt;Node22 -->
<g id="edge22_Node000021_Node000022" class="edge">
<title>Node21&#45;&gt;Node22</title>
<g id="a_edge22_Node000021_Node000022"><a xlink:title=" ">
<path fill="none" stroke="#63b8ff" d="M174.14,-244.38C182.85,-244.38 192.38,-244.38 201.58,-244.38"/>
<polygon fill="#63b8ff" stroke="#63b8ff" points="201.44,-247.88 211.44,-244.38 201.44,-240.88 201.44,-247.88"/>
</a>
</g>
</g>
<!-- Node24 -->
<g id="Node000024" class="node">
<title>Node24</title>
<g id="a_Node000024"><a xlink:href="app_8c.html#a75d2a28c1bac8b1e29f069bf851fdba9" target="_top" xlink:title=" ">
<polygon fill="white" stroke="#666666" points="280.88,-215.75 213.12,-215.75 213.12,-195 280.88,-195 280.88,-215.75"/>
<text text-anchor="middle" x="247" y="-202.25" font-family="Helvetica,sans-Serif" font-size="10.00">w2c__f549</text>
</a>
</g>
</g>
<!-- Node23&#45;&gt;Node24 -->
<g id="edge24_Node000023_Node000024" class="edge">
<title>Node23&#45;&gt;Node24</title>
<g id="a_edge24_Node000023_Node000024"><a xlink:title=" ">
<path fill="none" stroke="#63b8ff" d="M174.14,-205.38C182.85,-205.38 192.38,-205.38 201.58,-205.38"/>
<polygon fill="#63b8ff" stroke="#63b8ff" points="201.44,-208.88 211.44,-205.38 201.44,-201.88 201.44,-208.88"/>
</a>
</g>
</g>
<!-- Node26 -->
<g id="Node000026" class="node">
<title>Node26</title>
<g id="a_Node000026"><a xlink:href="app_8c.html#a052a0909d3d77ae49c9b6f170c344c38" target="_top" xlink:title=" ">
<polygon fill="white" stroke="#666666" points="280.88,-138.75 213.12,-138.75 213.12,-118 280.88,-118 280.88,-138.75"/>
<text text-anchor="middle" x="247" y="-125.25" font-family="Helvetica,sans-Serif" font-size="10.00">w2c__f251</text>
</a>
</g>
</g>
<!-- Node25&#45;&gt;Node26 -->
<g id="edge26_Node000025_Node000026" class="edge">
<title>Node25&#45;&gt;Node26</title>
<g id="a_edge26_Node000025_Node000026"><a xlink:title=" ">
<path fill="none" stroke="#63b8ff" d="M170.72,-155.59C181.48,-151.7 193.82,-147.24 205.35,-143.07"/>
<polygon fill="#63b8ff" stroke="#63b8ff" points="206.44,-146.4 214.66,-139.7 204.06,-139.81 206.44,-146.4"/>
</a>
</g>
</g>
<!-- Node27 -->
<g id="Node000027" class="node">
<title>Node27</title>
<g id="a_Node000027"><a xlink:href="app_8c.html#ab78a9ba6819f5a9d3b53302097151d33" target="_top" xlink:title=" ">
<polygon fill="white" stroke="#666666" points="385.75,-157.75 318,-157.75 318,-137 385.75,-137 385.75,-157.75"/>
<text text-anchor="middle" x="351.88" y="-144.25" font-family="Helvetica,sans-Serif" font-size="10.00">w2c__f481</text>
</a>
</g>
</g>
<!-- Node25&#45;&gt;Node27 -->
<g id="edge28_Node000025_Node000027" class="edge">
<title>Node25&#45;&gt;Node27</title>
<g id="a_edge28_Node000025_Node000027"><a xlink:title=" ">
<path fill="none" stroke="#63b8ff" d="M174.15,-163.36C209.86,-160.13 266.78,-154.98 306.33,-151.4"/>
<polygon fill="#63b8ff" stroke="#63b8ff" points="306.6,-154.89 316.25,-150.51 305.97,-147.92 306.6,-154.89"/>
</a>
</g>
</g>
<!-- Node26&#45;&gt;Node27 -->
<g id="edge27_Node000026_Node000027" class="edge">
<title>Node26&#45;&gt;Node27</title>
<g id="a_edge27_Node000026_Node000027"><a xlink:title=" ">
<path fill="none" stroke="#63b8ff" d="M281.12,-134.49C289.28,-136 298.16,-137.64 306.76,-139.23"/>
<polygon fill="#63b8ff" stroke="#63b8ff" points="305.86,-142.62 316.33,-141 307.13,-135.74 305.86,-142.62"/>
</a>
</g>
</g>
<!-- Node30 -->
<g id="Node000030" class="node">
<title>Node30</title>
<g id="a_Node000030"><a xlink:href="app_8c.html#ae10979e670e507d4373e8cadcb3169aa" target="_top" xlink:title=" ">
<polygon fill="white" stroke="#666666" points="279,-59.75 215,-59.75 215,-39 279,-39 279,-59.75"/>
<text text-anchor="middle" x="247" y="-46.25" font-family="Helvetica,sans-Serif" font-size="10.00">quiet_nan</text>
</a>
</g>
</g>
<!-- Node29&#45;&gt;Node30 -->
<g id="edge31_Node000029_Node000030" class="edge">
<title>Node29&#45;&gt;Node30</title>
<g id="a_edge31_Node000029_Node000030"><a xlink:title=" ">
<path fill="none" stroke="#63b8ff" d="M170.16,-77.51C181.32,-73.37 194.24,-68.58 206.22,-64.13"/>
<polygon fill="#63b8ff" stroke="#63b8ff" points="207.3,-67.47 215.45,-60.71 204.86,-60.9 207.3,-67.47"/>
</a>
</g>
</g>
<!-- Node32&#45;&gt;Node30 -->
<g id="edge34_Node000032_Node000030" class="edge">
<title>Node32&#45;&gt;Node30</title>
<g id="a_edge34_Node000032_Node000030"><a xlink:title=" ">
<path fill="none" stroke="#63b8ff" d="M170.16,-21.24C181.32,-25.38 194.24,-30.17 206.22,-34.62"/>
<polygon fill="#63b8ff" stroke="#63b8ff" points="204.86,-37.85 215.45,-38.04 207.3,-31.28 204.86,-37.85"/>
</a>
</g>
</g>
</g>
</svg>
