<?xml version="1.0" encoding="UTF-8" standalone="no"?>
<!DOCTYPE svg PUBLIC "-//W3C//DTD SVG 1.1//EN"
 "http://www.w3.org/Graphics/SVG/1.1/DTD/svg11.dtd">
<!-- Generated by graphviz version 12.2.1 (0)
 -->
<!-- Title: w2c__f251 Pages: 1 -->
<svg width="549pt" height="309pt"
 viewBox="0.00 0.00 549.25 308.51" xmlns="http://www.w3.org/2000/svg" xmlns:xlink="http://www.w3.org/1999/xlink">
<g id="graph0" class="graph" transform="scale(1 1) rotate(0) translate(4 304.51)">
<title>w2c__f251</title>
<!-- Node1 -->
<g id="Node000001" class="node">
<title>Node1</title>
<g id="a_Node000001"><a xlink:title=" ">
<polygon fill="#999999" stroke="#666666" points="541.25,-215.75 473.5,-215.75 473.5,-195 541.25,-195 541.25,-215.75"/>
<text text-anchor="middle" x="507.38" y="-202.25" font-family="Helvetica,sans-Serif" font-size="10.00">w2c__f251</text>
</a>
</g>
</g>
<!-- Node2 -->
<g id="Node000002" class="node">
<title>Node2</title>
<g id="a_Node000002"><a xlink:href="app_8c.html#a52eaa8c5c453e2e3ead3451e4a531b86" target="_top" xlink:title=" ">
<polygon fill="white" stroke="#666666" points="437.5,-215.75 369.75,-215.75 369.75,-195 437.5,-195 437.5,-215.75"/>
<text text-anchor="middle" x="403.62" y="-202.25" font-family="Helvetica,sans-Serif" font-size="10.00">w2c__f319</text>
</a>
</g>
</g>
<!-- Node1&#45;&gt;Node2 -->
<g id="edge1_Node000001_Node000002" class="edge">
<title>Node1&#45;&gt;Node2</title>
<g id="a_edge1_Node000001_Node000002"><a xlink:title=" ">
<path fill="none" stroke="#63b8ff" d="M461.82,-205.38C453.71,-205.38 445.38,-205.38 437.67,-205.38"/>
<polygon fill="#63b8ff" stroke="#63b8ff" points="461.54,-208.88 471.54,-205.38 461.54,-201.88 461.54,-208.88"/>
</a>
</g>
</g>
<!-- Node10 -->
<g id="Node000010" class="node">
<title>Node10</title>
<g id="a_Node000010"><a xlink:href="app_8c.html#a62b40d05237f4fef5a4b6f3a1238cc9c" target="_top" xlink:title=" ">
<polygon fill="white" stroke="#666666" points="437.5,-157.75 369.75,-157.75 369.75,-137 437.5,-137 437.5,-157.75"/>
<text text-anchor="middle" x="403.62" y="-144.25" font-family="Helvetica,sans-Serif" font-size="10.00">w2c__f430</text>
</a>
</g>
</g>
<!-- Node1&#45;&gt;Node10 -->
<g id="edge9_Node000001_Node000010" class="edge">
<title>Node1&#45;&gt;Node10</title>
<g id="a_edge9_Node000001_Node000010"><a xlink:title=" ">
<path fill="none" stroke="#63b8ff" d="M478.06,-189.23C460.65,-179.31 438.83,-166.87 423.51,-158.14"/>
<polygon fill="#63b8ff" stroke="#63b8ff" points="475.98,-192.08 486.4,-193.99 479.44,-185.99 475.98,-192.08"/>
</a>
</g>
</g>
<!-- Node18 -->
<g id="Node000018" class="node">
<title>Node18</title>
<g id="a_Node000018"><a xlink:href="app_8c.html#a7e5c7ff5fc8c855344e8031acb257778" target="_top" xlink:title=" ">
<polygon fill="white" stroke="#666666" points="437.5,-254.75 369.75,-254.75 369.75,-234 437.5,-234 437.5,-254.75"/>
<text text-anchor="middle" x="403.62" y="-241.25" font-family="Helvetica,sans-Serif" font-size="10.00">w2c__f462</text>
</a>
</g>
</g>
<!-- Node1&#45;&gt;Node18 -->
<g id="edge24_Node000001_Node000018" class="edge">
<title>Node1&#45;&gt;Node18</title>
<g id="a_edge24_Node000001_Node000018"><a xlink:title=" ">
<path fill="none" stroke="#63b8ff" d="M467.35,-220.33C455.85,-224.74 443.49,-229.48 432.82,-233.57"/>
<polygon fill="#63b8ff" stroke="#63b8ff" points="468.53,-223.63 476.62,-216.78 466.03,-217.09 468.53,-223.63"/>
</a>
</g>
</g>
<!-- Node3 -->
<g id="Node000003" class="node">
<title>Node3</title>
<g id="a_Node000003"><a xlink:href="app_8c.html#a7dc7d70793bae217b64eab580fce99cb" target="_top" xlink:title=" ">
<polygon fill="white" stroke="#666666" points="215.38,-272.75 147.62,-272.75 147.62,-252 215.38,-252 215.38,-272.75"/>
<text text-anchor="middle" x="181.5" y="-259.25" font-family="Helvetica,sans-Serif" font-size="10.00">w2c__f215</text>
</a>
</g>
</g>
<!-- Node2&#45;&gt;Node3 -->
<g id="edge2_Node000002_Node000003" class="edge">
<title>Node2&#45;&gt;Node3</title>
<g id="a_edge2_Node000002_Node000003"><a xlink:title=" ">
<path fill="none" stroke="#63b8ff" d="M373.91,-222.41C372.49,-223.39 371.09,-224.38 369.75,-225.38 352.54,-238.1 353.63,-249.44 333.75,-257.38 295.44,-272.67 247.23,-271.08 215.68,-267.57"/>
<polygon fill="#63b8ff" stroke="#63b8ff" points="375.7,-225.42 382.2,-217.05 371.9,-219.55 375.7,-225.42"/>
</a>
</g>
</g>
<!-- Node5 -->
<g id="Node000005" class="node">
<title>Node5</title>
<g id="a_Node000005"><a xlink:href="app_8c.html#afb3fbfc35abe0f21d554f326b79a0b76" target="_top" xlink:title=" ">
<polygon fill="white" stroke="#666666" points="333.75,-215.75 266,-215.75 266,-195 333.75,-195 333.75,-215.75"/>
<text text-anchor="middle" x="299.88" y="-202.25" font-family="Helvetica,sans-Serif" font-size="10.00">w2c__f494</text>
</a>
</g>
</g>
<!-- Node2&#45;&gt;Node5 -->
<g id="edge4_Node000002_Node000005" class="edge">
<title>Node2&#45;&gt;Node5</title>
<g id="a_edge4_Node000002_Node000005"><a xlink:title=" ">
<path fill="none" stroke="#63b8ff" d="M358.07,-205.38C349.96,-205.38 341.63,-205.38 333.92,-205.38"/>
<polygon fill="#63b8ff" stroke="#63b8ff" points="357.79,-208.88 367.79,-205.38 357.79,-201.88 357.79,-208.88"/>
</a>
</g>
</g>
<!-- Node4 -->
<g id="Node000004" class="node">
<title>Node4</title>
<g id="a_Node000004"><a xlink:href="app_8c.html#a7f65ba02075f2865f478747946b07c94" target="_top" xlink:title=" ">
<polygon fill="white" stroke="#666666" points="97,-272.75 0,-272.75 0,-252 97,-252 97,-272.75"/>
<text text-anchor="middle" x="48.5" y="-259.25" font-family="Helvetica,sans-Serif" font-size="10.00">wrap_w2c__f215</text>
</a>
</g>
</g>
<!-- Node3&#45;&gt;Node4 -->
<g id="edge3_Node000003_Node000004" class="edge">
<title>Node3&#45;&gt;Node4</title>
<g id="a_edge3_Node000003_Node000004"><a xlink:title=" ">
<path fill="none" stroke="#63b8ff" d="M135.95,-262.38C123.53,-262.38 110,-262.38 97.4,-262.38"/>
<polygon fill="#63b8ff" stroke="#63b8ff" points="135.93,-265.88 145.93,-262.38 135.93,-258.88 135.93,-265.88"/>
</a>
</g>
</g>
<!-- Node6 -->
<g id="Node000006" class="node">
<title>Node6</title>
<g id="a_Node000006"><a xlink:href="app_8c.html#a86ae468e235684021eadfdacd5cb9dba" target="_top" xlink:title=" ">
<polygon fill="white" stroke="#666666" points="215.38,-195.75 147.62,-195.75 147.62,-175 215.38,-175 215.38,-195.75"/>
<text text-anchor="middle" x="181.5" y="-182.25" font-family="Helvetica,sans-Serif" font-size="10.00">w2c__f452</text>
</a>
</g>
</g>
<!-- Node5&#45;&gt;Node6 -->
<g id="edge5_Node000005_Node000006" class="edge">
<title>Node5&#45;&gt;Node6</title>
<g id="a_edge5_Node000005_Node000006"><a xlink:title=" ">
<path fill="none" stroke="#63b8ff" d="M254.55,-197.76C241.71,-195.55 227.91,-193.18 215.85,-191.11"/>
<polygon fill="#63b8ff" stroke="#63b8ff" points="253.59,-201.14 264.03,-199.39 254.77,-194.24 253.59,-201.14"/>
</a>
</g>
</g>
<!-- Node8 -->
<g id="Node000008" class="node">
<title>Node8</title>
<g id="a_Node000008"><a xlink:href="app_8c.html#ad1dbc2afe7918517df3fc54838f07298" target="_top" xlink:title=" ">
<polygon fill="white" stroke="#666666" points="215.38,-59.75 147.62,-59.75 147.62,-39 215.38,-39 215.38,-59.75"/>
<text text-anchor="middle" x="181.5" y="-46.25" font-family="Helvetica,sans-Serif" font-size="10.00">w2c__f520</text>
</a>
</g>
</g>
<!-- Node5&#45;&gt;Node8 -->
<g id="edge7_Node000005_Node000008" class="edge">
<title>Node5&#45;&gt;Node8</title>
<g id="a_edge7_Node000005_Node000008"><a xlink:title=" ">
<path fill="none" stroke="#63b8ff" d="M267.66,-187.34C267.08,-186.7 266.52,-186.05 266,-185.38 232.79,-142.82 266.26,-109.36 230,-69.38 226.03,-65 220.95,-61.55 215.6,-58.84"/>
<polygon fill="#63b8ff" stroke="#63b8ff" points="265.21,-189.85 275.1,-193.67 269.75,-184.52 265.21,-189.85"/>
</a>
</g>
</g>
<!-- Node7 -->
<g id="Node000007" class="node">
<title>Node7</title>
<g id="a_Node000007"><a xlink:href="app_8c.html#a57ca4f801147f9325a0ea7cc2d7192c5" target="_top" xlink:title=" ">
<polygon fill="white" stroke="#666666" points="97,-195.75 0,-195.75 0,-175 97,-175 97,-195.75"/>
<text text-anchor="middle" x="48.5" y="-182.25" font-family="Helvetica,sans-Serif" font-size="10.00">wrap_w2c__f452</text>
</a>
</g>
</g>
<!-- Node6&#45;&gt;Node7 -->
<g id="edge6_Node000006_Node000007" class="edge">
<title>Node6&#45;&gt;Node7</title>
<g id="a_edge6_Node000006_Node000007"><a xlink:title=" ">
<path fill="none" stroke="#63b8ff" d="M135.95,-185.38C123.53,-185.38 110,-185.38 97.4,-185.38"/>
<polygon fill="#63b8ff" stroke="#63b8ff" points="135.93,-188.88 145.93,-185.38 135.93,-181.88 135.93,-188.88"/>
</a>
</g>
</g>
<!-- Node9 -->
<g id="Node000009" class="node">
<title>Node9</title>
<g id="a_Node000009"><a xlink:href="app_8c.html#a130f07b726020d1add9a7ed5178e023a" target="_top" xlink:title=" ">
<polygon fill="white" stroke="#666666" points="97,-59.75 0,-59.75 0,-39 97,-39 97,-59.75"/>
<text text-anchor="middle" x="48.5" y="-46.25" font-family="Helvetica,sans-Serif" font-size="10.00">wrap_w2c__f520</text>
</a>
</g>
</g>
<!-- Node8&#45;&gt;Node9 -->
<g id="edge8_Node000008_Node000009" class="edge">
<title>Node8&#45;&gt;Node9</title>
<g id="a_edge8_Node000008_Node000009"><a xlink:title=" ">
<path fill="none" stroke="#63b8ff" d="M135.95,-49.38C123.53,-49.38 110,-49.38 97.4,-49.38"/>
<polygon fill="#63b8ff" stroke="#63b8ff" points="135.93,-52.88 145.93,-49.38 135.93,-45.88 135.93,-52.88"/>
</a>
</g>
</g>
<!-- Node10&#45;&gt;Node3 -->
<g id="edge10_Node000010_Node000003" class="edge">
<title>Node10&#45;&gt;Node3</title>
<g id="a_edge10_Node000010_Node000003"><a xlink:title=" ">
<path fill="none" stroke="#63b8ff" d="M386.41,-166.65C368.17,-188.16 340.24,-220.46 333.75,-224.38 297.02,-246.57 247.79,-255.85 215.62,-259.7"/>
<polygon fill="#63b8ff" stroke="#63b8ff" points="389.01,-169 392.8,-159.1 383.67,-164.48 389.01,-169"/>
</a>
</g>
</g>
<!-- Node10&#45;&gt;Node5 -->
<g id="edge20_Node000010_Node000005" class="edge">
<title>Node10&#45;&gt;Node5</title>
<g id="a_edge20_Node000010_Node000005"><a xlink:title=" ">
<path fill="none" stroke="#63b8ff" d="M374.31,-163.52C356.9,-173.44 335.08,-185.88 319.76,-194.61"/>
<polygon fill="#63b8ff" stroke="#63b8ff" points="375.69,-166.76 382.65,-158.76 372.23,-160.67 375.69,-166.76"/>
</a>
</g>
</g>
<!-- Node11 -->
<g id="Node000011" class="node">
<title>Node11</title>
<g id="a_Node000011"><a xlink:href="app_8c.html#a8005d8a3ded5523813d49a79a3a0a58e" target="_top" xlink:title=" ">
<polygon fill="white" stroke="#666666" points="333.75,-98.75 266,-98.75 266,-78 333.75,-78 333.75,-98.75"/>
<text text-anchor="middle" x="299.88" y="-85.25" font-family="Helvetica,sans-Serif" font-size="10.00">w2c__f238</text>
</a>
</g>
</g>
<!-- Node10&#45;&gt;Node11 -->
<g id="edge11_Node000010_Node000011" class="edge">
<title>Node10&#45;&gt;Node11</title>
<g id="a_edge11_Node000010_Node000011"><a xlink:title=" ">
<path fill="none" stroke="#63b8ff" d="M374.24,-130.92C356.72,-120.76 334.73,-108.01 319.42,-99.13"/>
<polygon fill="#63b8ff" stroke="#63b8ff" points="372.25,-133.81 382.65,-135.79 375.76,-127.75 372.25,-133.81"/>
</a>
</g>
</g>
<!-- Node13 -->
<g id="Node000013" class="node">
<title>Node13</title>
<g id="a_Node000013"><a xlink:href="app_8c.html#a512669319fec7c2cbf61fd668bc650c9" target="_top" xlink:title=" ">
<polygon fill="white" stroke="#666666" points="333.75,-176.75 266,-176.75 266,-156 333.75,-156 333.75,-176.75"/>
<text text-anchor="middle" x="299.88" y="-163.25" font-family="Helvetica,sans-Serif" font-size="10.00">w2c__f343</text>
</a>
</g>
</g>
<!-- Node10&#45;&gt;Node13 -->
<g id="edge14_Node000010_Node000013" class="edge">
<title>Node10&#45;&gt;Node13</title>
<g id="a_edge14_Node000010_Node000013"><a xlink:title=" ">
<path fill="none" stroke="#63b8ff" d="M358.07,-155.69C349.96,-157.21 341.63,-158.77 333.92,-160.2"/>
<polygon fill="#63b8ff" stroke="#63b8ff" points="358.63,-159.15 367.82,-153.87 357.35,-152.27 358.63,-159.15"/>
</a>
</g>
</g>
<!-- Node14 -->
<g id="Node000014" class="node">
<title>Node14</title>
<g id="a_Node000014"><a xlink:href="app_8c.html#a6c30f2996216fe44cdda84ff266f8b19" target="_top" xlink:title=" ">
<polygon fill="white" stroke="#666666" points="333.75,-137.75 266,-137.75 266,-117 333.75,-117 333.75,-137.75"/>
<text text-anchor="middle" x="299.88" y="-124.25" font-family="Helvetica,sans-Serif" font-size="10.00">w2c__f362</text>
</a>
</g>
</g>
<!-- Node10&#45;&gt;Node14 -->
<g id="edge16_Node000010_Node000014" class="edge">
<title>Node10&#45;&gt;Node14</title>
<g id="a_edge16_Node000010_Node000014"><a xlink:title=" ">
<path fill="none" stroke="#63b8ff" d="M358.07,-138.62C349.96,-137.02 341.63,-135.38 333.92,-133.87"/>
<polygon fill="#63b8ff" stroke="#63b8ff" points="357.34,-142.04 367.82,-140.53 358.69,-135.17 357.34,-142.04"/>
</a>
</g>
</g>
<!-- Node15 -->
<g id="Node000015" class="node">
<title>Node15</title>
<g id="a_Node000015"><a xlink:href="app_8c.html#aceab5cda31b6aa6659b94aae079d60c2" target="_top" xlink:title=" ">
<polygon fill="white" stroke="#666666" points="333.75,-59.75 266,-59.75 266,-39 333.75,-39 333.75,-59.75"/>
<text text-anchor="middle" x="299.88" y="-46.25" font-family="Helvetica,sans-Serif" font-size="10.00">w2c__f456</text>
</a>
</g>
</g>
<!-- Node10&#45;&gt;Node15 -->
<g id="edge18_Node000010_Node000015" class="edge">
<title>Node10&#45;&gt;Node15</title>
<g id="a_edge18_Node000010_Node000015"><a xlink:title=" ">
<path fill="none" stroke="#63b8ff" d="M388,-127.71C374.95,-110.97 354.71,-86.92 333.75,-69.38 329.75,-66.03 325.14,-62.87 320.66,-60.08"/>
<polygon fill="#63b8ff" stroke="#63b8ff" points="385.04,-129.59 393.89,-135.42 390.6,-125.34 385.04,-129.59"/>
</a>
</g>
</g>
<!-- Node16 -->
<g id="Node000016" class="node">
<title>Node16</title>
<g id="a_Node000016"><a xlink:href="app_8c.html#a16670c165bc2e48eba2f100b6b1e21c3" target="_top" xlink:title=" ">
<polygon fill="white" stroke="#666666" points="333.75,-20.75 266,-20.75 266,0 333.75,0 333.75,-20.75"/>
<text text-anchor="middle" x="299.88" y="-7.25" font-family="Helvetica,sans-Serif" font-size="10.00">w2c__f495</text>
</a>
</g>
</g>
<!-- Node10&#45;&gt;Node16 -->
<g id="edge21_Node000010_Node000016" class="edge">
<title>Node10&#45;&gt;Node16</title>
<g id="a_edge21_Node000010_Node000016"><a xlink:title=" ">
<path fill="none" stroke="#63b8ff" d="M393.9,-125.94C382.82,-100.75 361.75,-58.78 333.75,-30.38 330.37,-26.95 326.3,-23.87 322.18,-21.21"/>
<polygon fill="#63b8ff" stroke="#63b8ff" points="390.67,-127.3 397.8,-135.14 397.11,-124.56 390.67,-127.3"/>
</a>
</g>
</g>
<!-- Node11&#45;&gt;Node8 -->
<g id="edge12_Node000011_Node000008" class="edge">
<title>Node11&#45;&gt;Node8</title>
<g id="a_edge12_Node000011_Node000008"><a xlink:title=" ">
<path fill="none" stroke="#63b8ff" d="M255.86,-73.96C242.26,-69.4 227.46,-64.44 214.74,-60.18"/>
<polygon fill="#63b8ff" stroke="#63b8ff" points="254.43,-77.17 265.02,-77.03 256.65,-70.53 254.43,-77.17"/>
</a>
</g>
</g>
<!-- Node12 -->
<g id="Node000012" class="node">
<title>Node12</title>
<g id="a_Node000012"><a xlink:href="app_8c.html#afd9f456edbe9096c8810d692f6da9b76" target="_top" xlink:title=" ">
<polygon fill="white" stroke="#666666" points="230,-98.75 133,-98.75 133,-78 230,-78 230,-98.75"/>
<text text-anchor="middle" x="181.5" y="-85.25" font-family="Helvetica,sans-Serif" font-size="10.00">wrap_w2c__f238</text>
</a>
</g>
</g>
<!-- Node11&#45;&gt;Node12 -->
<g id="edge13_Node000011_Node000012" class="edge">
<title>Node11&#45;&gt;Node12</title>
<g id="a_edge13_Node000011_Node000012"><a xlink:title=" ">
<path fill="none" stroke="#63b8ff" d="M254.28,-88.38C246.39,-88.38 238.14,-88.38 230.16,-88.38"/>
<polygon fill="#63b8ff" stroke="#63b8ff" points="254.01,-91.88 264.01,-88.38 254.01,-84.88 254.01,-91.88"/>
</a>
</g>
</g>
<!-- Node13&#45;&gt;Node3 -->
<g id="edge15_Node000013_Node000003" class="edge">
<title>Node13&#45;&gt;Node3</title>
<g id="a_edge15_Node000013_Node000003"><a xlink:title=" ">
<path fill="none" stroke="#63b8ff" d="M270.15,-183.4C268.73,-184.38 267.34,-185.37 266,-186.38 237.91,-207.4 208.28,-236.18 192.99,-251.59"/>
<polygon fill="#63b8ff" stroke="#63b8ff" points="271.94,-186.4 278.42,-178.02 268.13,-180.53 271.94,-186.4"/>
</a>
</g>
</g>
<!-- Node14&#45;&gt;Node6 -->
<g id="edge17_Node000014_Node000006" class="edge">
<title>Node14&#45;&gt;Node6</title>
<g id="a_edge17_Node000014_Node000006"><a xlink:title=" ">
<path fill="none" stroke="#63b8ff" d="M267.04,-143.24C247.01,-153.23 221.69,-165.85 204,-174.66"/>
<polygon fill="#63b8ff" stroke="#63b8ff" points="268.52,-146.42 275.9,-138.82 265.39,-140.15 268.52,-146.42"/>
</a>
</g>
</g>
<!-- Node15&#45;&gt;Node8 -->
<g id="edge19_Node000015_Node000008" class="edge">
<title>Node15&#45;&gt;Node8</title>
<g id="a_edge19_Node000015_Node000008"><a xlink:title=" ">
<path fill="none" stroke="#63b8ff" d="M254.16,-49.38C241.43,-49.38 227.78,-49.38 215.85,-49.38"/>
<polygon fill="#63b8ff" stroke="#63b8ff" points="254.01,-52.88 264.01,-49.38 254.01,-45.88 254.01,-52.88"/>
</a>
</g>
</g>
<!-- Node16&#45;&gt;Node8 -->
<g id="edge22_Node000016_Node000008" class="edge">
<title>Node16&#45;&gt;Node8</title>
<g id="a_edge22_Node000016_Node000008"><a xlink:title=" ">
<path fill="none" stroke="#63b8ff" d="M255.86,-24.79C242.26,-29.35 227.46,-34.31 214.74,-38.57"/>
<polygon fill="#63b8ff" stroke="#63b8ff" points="256.65,-28.22 265.02,-21.72 254.43,-21.58 256.65,-28.22"/>
</a>
</g>
</g>
<!-- Node17 -->
<g id="Node000017" class="node">
<title>Node17</title>
<g id="a_Node000017"><a xlink:href="app_8c.html#adc0b425fa65493482058a086393089b5" target="_top" xlink:title=" ">
<polygon fill="white" stroke="#666666" points="230,-20.75 133,-20.75 133,0 230,0 230,-20.75"/>
<text text-anchor="middle" x="181.5" y="-7.25" font-family="Helvetica,sans-Serif" font-size="10.00">wrap_w2c__f495</text>
</a>
</g>
</g>
<!-- Node16&#45;&gt;Node17 -->
<g id="edge23_Node000016_Node000017" class="edge">
<title>Node16&#45;&gt;Node17</title>
<g id="a_edge23_Node000016_Node000017"><a xlink:title=" ">
<path fill="none" stroke="#63b8ff" d="M254.28,-10.38C246.39,-10.38 238.14,-10.38 230.16,-10.38"/>
<polygon fill="#63b8ff" stroke="#63b8ff" points="254.01,-13.88 264.01,-10.38 254.01,-6.88 254.01,-13.88"/>
</a>
</g>
</g>
<!-- Node18&#45;&gt;Node3 -->
<g id="edge25_Node000018_Node000003" class="edge">
<title>Node18&#45;&gt;Node3</title>
<g id="a_edge25_Node000018_Node000003"><a xlink:title=" ">
<path fill="none" stroke="#63b8ff" d="M384.68,-262.76C371.77,-274.6 353.27,-288.94 333.75,-295.38 287.55,-310.62 231.07,-287.81 201.94,-273.14"/>
<polygon fill="#63b8ff" stroke="#63b8ff" points="386.78,-265.59 391.57,-256.14 381.93,-260.54 386.78,-265.59"/>
</a>
</g>
</g>
<!-- Node18&#45;&gt;Node5 -->
<g id="edge26_Node000018_Node000005" class="edge">
<title>Node18&#45;&gt;Node5</title>
<g id="a_edge26_Node000018_Node000005"><a xlink:title=" ">
<path fill="none" stroke="#63b8ff" d="M363.6,-229.42C352.1,-225.01 339.74,-220.27 329.07,-216.18"/>
<polygon fill="#63b8ff" stroke="#63b8ff" points="362.28,-232.66 372.87,-232.97 364.78,-226.12 362.28,-232.66"/>
</a>
</g>
</g>
</g>
</svg>
