<?xml version="1.0" encoding="UTF-8" standalone="no"?>
<!DOCTYPE svg PUBLIC "-//W3C//DTD SVG 1.1//EN"
 "http://www.w3.org/Graphics/SVG/1.1/DTD/svg11.dtd">
<!-- Generated by graphviz version 12.2.1 (0)
 -->
<!-- Title: w2c__f410 Pages: 1 -->
<svg width="283pt" height="101pt"
 viewBox="0.00 0.00 283.25 100.53" xmlns="http://www.w3.org/2000/svg" xmlns:xlink="http://www.w3.org/1999/xlink">
<g id="graph0" class="graph" transform="scale(1 1) rotate(0) translate(4 96.53)">
<title>w2c__f410</title>
<!-- Node1 -->
<g id="Node000001" class="node">
<title>Node1</title>
<g id="a_Node000001"><a xlink:title=" ">
<polygon fill="#999999" stroke="#666666" points="275.25,-58.75 207.5,-58.75 207.5,-38 275.25,-38 275.25,-58.75"/>
<text text-anchor="middle" x="241.38" y="-45.25" font-family="Helvetica,sans-Serif" font-size="10.00">w2c__f410</text>
</a>
</g>
</g>
<!-- Node2 -->
<g id="Node000002" class="node">
<title>Node2</title>
<g id="a_Node000002"><a xlink:href="app_8c.html#a1581df0bdfa942524e0a5dce91fd6b8e" target="_top" xlink:title=" ">
<polygon fill="white" stroke="#666666" points="67.75,-87.75 0,-87.75 0,-67 67.75,-67 67.75,-87.75"/>
<text text-anchor="middle" x="33.88" y="-74.25" font-family="Helvetica,sans-Serif" font-size="10.00">w2c__f253</text>
</a>
</g>
</g>
<!-- Node1&#45;&gt;Node2 -->
<g id="edge1_Node000001_Node000002" class="edge">
<title>Node1&#45;&gt;Node2</title>
<g id="a_edge1_Node000001_Node000002"><a xlink:title=" ">
<path fill="none" stroke="#63b8ff" d="M217.18,-65.51C204.41,-73.88 187.86,-83.07 171.5,-87.38 137,-96.46 96.03,-91.47 68.01,-85.77"/>
<polygon fill="#63b8ff" stroke="#63b8ff" points="219.04,-68.48 225.3,-59.94 215.07,-62.71 219.04,-68.48"/>
</a>
</g>
</g>
<!-- Node3 -->
<g id="Node000003" class="node">
<title>Node3</title>
<g id="a_Node000003"><a xlink:href="app_8c.html#a980a551daeb256397f01e6faa91d49db" target="_top" xlink:title=" ">
<polygon fill="white" stroke="#666666" points="171.5,-78.75 103.75,-78.75 103.75,-58 171.5,-58 171.5,-78.75"/>
<text text-anchor="middle" x="137.62" y="-65.25" font-family="Helvetica,sans-Serif" font-size="10.00">w2c__f403</text>
</a>
</g>
</g>
<!-- Node1&#45;&gt;Node3 -->
<g id="edge2_Node000001_Node000003" class="edge">
<title>Node1&#45;&gt;Node3</title>
<g id="a_edge2_Node000001_Node000003"><a xlink:title=" ">
<path fill="none" stroke="#63b8ff" d="M195.82,-57.13C187.71,-58.73 179.38,-60.37 171.67,-61.88"/>
<polygon fill="#63b8ff" stroke="#63b8ff" points="196.44,-60.58 205.57,-55.22 195.09,-53.71 196.44,-60.58"/>
</a>
</g>
</g>
<!-- Node4 -->
<g id="Node000004" class="node">
<title>Node4</title>
<g id="a_Node000004"><a xlink:href="app_8c.html#a05d83e696cfaa26355c9732ee9ea4cd0" target="_top" xlink:title=" ">
<polygon fill="white" stroke="#666666" points="67.75,-20.75 0,-20.75 0,0 67.75,0 67.75,-20.75"/>
<text text-anchor="middle" x="33.88" y="-7.25" font-family="Helvetica,sans-Serif" font-size="10.00">w2c__f454</text>
</a>
</g>
</g>
<!-- Node1&#45;&gt;Node4 -->
<g id="edge3_Node000001_Node000004" class="edge">
<title>Node1&#45;&gt;Node4</title>
<g id="a_edge3_Node000001_Node000004"><a xlink:title=" ">
<path fill="none" stroke="#63b8ff" d="M216.63,-31.36C203.9,-23.29 187.57,-14.51 171.5,-10.38 137.05,-1.5 96.06,-3.03 68.03,-5.81"/>
<polygon fill="#63b8ff" stroke="#63b8ff" points="214.46,-34.12 224.73,-36.74 218.34,-28.29 214.46,-34.12"/>
</a>
</g>
</g>
<!-- Node5 -->
<g id="Node000005" class="node">
<title>Node5</title>
<g id="a_Node000005"><a xlink:href="app_8c.html#a96302817f96aee4b42b2d1383eb34b00" target="_top" xlink:title=" ">
<polygon fill="white" stroke="#666666" points="171.5,-39.75 103.75,-39.75 103.75,-19 171.5,-19 171.5,-39.75"/>
<text text-anchor="middle" x="137.62" y="-26.25" font-family="Helvetica,sans-Serif" font-size="10.00">w2c__f462</text>
</a>
</g>
</g>
<!-- Node1&#45;&gt;Node5 -->
<g id="edge4_Node000001_Node000005" class="edge">
<title>Node1&#45;&gt;Node5</title>
<g id="a_edge4_Node000001_Node000005"><a xlink:title=" ">
<path fill="none" stroke="#63b8ff" d="M195.82,-40.06C187.71,-38.54 179.38,-36.98 171.67,-35.55"/>
<polygon fill="#63b8ff" stroke="#63b8ff" points="195.1,-43.48 205.57,-41.88 196.38,-36.6 195.1,-43.48"/>
</a>
</g>
</g>
<!-- Node5&#45;&gt;Node2 -->
<g id="edge5_Node000005_Node000002" class="edge">
<title>Node5&#45;&gt;Node2</title>
<g id="a_edge5_Node000005_Node000002"><a xlink:title=" ">
<path fill="none" stroke="#63b8ff" d="M103.38,-45.06C88.41,-52.12 71.1,-60.28 57.63,-66.64"/>
<polygon fill="#63b8ff" stroke="#63b8ff" points="104.87,-48.22 112.42,-40.79 101.88,-41.89 104.87,-48.22"/>
</a>
</g>
</g>
<!-- Node5&#45;&gt;Node4 -->
<g id="edge6_Node000005_Node000004" class="edge">
<title>Node5&#45;&gt;Node4</title>
<g id="a_edge6_Node000005_Node000004"><a xlink:title=" ">
<path fill="none" stroke="#63b8ff" d="M92.07,-21.06C83.96,-19.54 75.63,-17.98 67.92,-16.55"/>
<polygon fill="#63b8ff" stroke="#63b8ff" points="91.35,-24.48 101.82,-22.88 92.63,-17.6 91.35,-24.48"/>
</a>
</g>
</g>
</g>
</svg>
