<?xml version="1.0" encoding="UTF-8" standalone="no"?>
<!DOCTYPE svg PUBLIC "-//W3C//DTD SVG 1.1//EN"
 "http://www.w3.org/Graphics/SVG/1.1/DTD/svg11.dtd">
<!-- Generated by graphviz version 12.2.1 (0)
 -->
<!-- Title: w2c__f214 Pages: 1 -->
<svg width="574pt" height="146pt"
 viewBox="0.00 0.00 574.25 145.75" xmlns="http://www.w3.org/2000/svg" xmlns:xlink="http://www.w3.org/1999/xlink">
<g id="graph0" class="graph" transform="scale(1 1) rotate(0) translate(4 141.75)">
<title>w2c__f214</title>
<!-- Node1 -->
<g id="Node000001" class="node">
<title>Node1</title>
<g id="a_Node000001"><a xlink:title=" ">
<polygon fill="#999999" stroke="#666666" points="566.25,-78.75 498.5,-78.75 498.5,-58 566.25,-58 566.25,-78.75"/>
<text text-anchor="middle" x="532.38" y="-65.25" font-family="Helvetica,sans-Serif" font-size="10.00">w2c__f214</text>
</a>
</g>
</g>
<!-- Node2 -->
<g id="Node000002" class="node">
<title>Node2</title>
<g id="a_Node000002"><a xlink:href="app_8c.html#a5e6d37c539a2e51904358f57d24ae63c" target="_top" xlink:title=" ">
<polygon fill="white" stroke="#666666" points="462.5,-137.75 394.75,-137.75 394.75,-117 462.5,-117 462.5,-137.75"/>
<text text-anchor="middle" x="428.62" y="-124.25" font-family="Helvetica,sans-Serif" font-size="10.00">w2c__f207</text>
</a>
</g>
</g>
<!-- Node1&#45;&gt;Node2 -->
<g id="edge1_Node000001_Node000002" class="edge">
<title>Node1&#45;&gt;Node2</title>
<g id="a_edge1_Node000001_Node000002"><a xlink:title=" ">
<path fill="none" stroke="#63b8ff" d="M502.99,-84.83C485.47,-94.99 463.48,-107.74 448.17,-116.62"/>
<polygon fill="#63b8ff" stroke="#63b8ff" points="504.51,-88 511.4,-79.96 501,-81.94 504.51,-88"/>
</a>
</g>
</g>
<!-- Node3 -->
<g id="Node000003" class="node">
<title>Node3</title>
<g id="a_Node000003"><a xlink:href="app_8c.html#ae00de9e25147267f65732da33b72c30b" target="_top" xlink:title=" ">
<polygon fill="white" stroke="#666666" points="462.5,-98.75 394.75,-98.75 394.75,-78 462.5,-78 462.5,-98.75"/>
<text text-anchor="middle" x="428.62" y="-85.25" font-family="Helvetica,sans-Serif" font-size="10.00">w2c__f236</text>
</a>
</g>
</g>
<!-- Node1&#45;&gt;Node3 -->
<g id="edge2_Node000001_Node000003" class="edge">
<title>Node1&#45;&gt;Node3</title>
<g id="a_edge2_Node000001_Node000003"><a xlink:title=" ">
<path fill="none" stroke="#63b8ff" d="M486.82,-77.13C478.71,-78.73 470.38,-80.37 462.67,-81.88"/>
<polygon fill="#63b8ff" stroke="#63b8ff" points="487.44,-80.58 496.57,-75.22 486.09,-73.71 487.44,-80.58"/>
</a>
</g>
</g>
<!-- Node10 -->
<g id="Node000010" class="node">
<title>Node10</title>
<g id="a_Node000010"><a xlink:href="app_8c.html#adb357000a4d9b03118bb4a6a7435605d" target="_top" xlink:title=" ">
<polygon fill="white" stroke="#666666" points="462.5,-59.75 394.75,-59.75 394.75,-39 462.5,-39 462.5,-59.75"/>
<text text-anchor="middle" x="428.62" y="-46.25" font-family="Helvetica,sans-Serif" font-size="10.00">w2c__f404</text>
</a>
</g>
</g>
<!-- Node1&#45;&gt;Node10 -->
<g id="edge9_Node000001_Node000010" class="edge">
<title>Node1&#45;&gt;Node10</title>
<g id="a_edge9_Node000001_Node000010"><a xlink:title=" ">
<path fill="none" stroke="#63b8ff" d="M486.82,-60.06C478.71,-58.54 470.38,-56.98 462.67,-55.55"/>
<polygon fill="#63b8ff" stroke="#63b8ff" points="486.1,-63.48 496.57,-61.88 487.38,-56.6 486.1,-63.48"/>
</a>
</g>
</g>
<!-- Node12 -->
<g id="Node000012" class="node">
<title>Node12</title>
<g id="a_Node000012"><a xlink:href="app_8c.html#a9a6678ec111966f9ad398c4ddc0f4ce7" target="_top" xlink:title=" ">
<polygon fill="white" stroke="#666666" points="462.5,-20.75 394.75,-20.75 394.75,0 462.5,0 462.5,-20.75"/>
<text text-anchor="middle" x="428.62" y="-7.25" font-family="Helvetica,sans-Serif" font-size="10.00">w2c__f472</text>
</a>
</g>
</g>
<!-- Node1&#45;&gt;Node12 -->
<g id="edge11_Node000001_Node000012" class="edge">
<title>Node1&#45;&gt;Node12</title>
<g id="a_edge11_Node000001_Node000012"><a xlink:title=" ">
<path fill="none" stroke="#63b8ff" d="M503.06,-52.23C485.65,-42.31 463.83,-29.87 448.51,-21.14"/>
<polygon fill="#63b8ff" stroke="#63b8ff" points="500.98,-55.08 511.4,-56.99 504.44,-48.99 500.98,-55.08"/>
</a>
</g>
</g>
<!-- Node4 -->
<g id="Node000004" class="node">
<title>Node4</title>
<g id="a_Node000004"><a xlink:href="app_8c.html#aac449994afd8488e2efd16fb19f0ecb1" target="_top" xlink:title=" ">
<polygon fill="white" stroke="#666666" points="358.75,-98.75 291,-98.75 291,-78 358.75,-78 358.75,-98.75"/>
<text text-anchor="middle" x="324.88" y="-85.25" font-family="Helvetica,sans-Serif" font-size="10.00">w2c__f336</text>
</a>
</g>
</g>
<!-- Node3&#45;&gt;Node4 -->
<g id="edge3_Node000003_Node000004" class="edge">
<title>Node3&#45;&gt;Node4</title>
<g id="a_edge3_Node000003_Node000004"><a xlink:title=" ">
<path fill="none" stroke="#63b8ff" d="M383.07,-88.38C374.96,-88.38 366.63,-88.38 358.92,-88.38"/>
<polygon fill="#63b8ff" stroke="#63b8ff" points="382.79,-91.88 392.79,-88.38 382.79,-84.88 382.79,-91.88"/>
</a>
</g>
</g>
<!-- Node5 -->
<g id="Node000005" class="node">
<title>Node5</title>
<g id="a_Node000005"><a xlink:href="app_8c.html#ac863989691d4c389f80374209c220171" target="_top" xlink:title=" ">
<polygon fill="white" stroke="#666666" points="252.38,-117.75 189.88,-117.75 189.88,-97 252.38,-97 252.38,-117.75"/>
<text text-anchor="middle" x="221.12" y="-104.25" font-family="Helvetica,sans-Serif" font-size="10.00">w2c__c_0</text>
</a>
</g>
</g>
<!-- Node4&#45;&gt;Node5 -->
<g id="edge4_Node000004_Node000005" class="edge">
<title>Node4&#45;&gt;Node5</title>
<g id="a_edge4_Node000004_Node000005"><a xlink:title=" ">
<path fill="none" stroke="#63b8ff" d="M279.4,-96.68C270.41,-98.36 261.15,-100.09 252.76,-101.65"/>
<polygon fill="#63b8ff" stroke="#63b8ff" points="279.88,-100.15 289.07,-94.87 278.6,-93.27 279.88,-100.15"/>
</a>
</g>
</g>
<!-- Node7 -->
<g id="Node000007" class="node">
<title>Node7</title>
<g id="a_Node000007"><a xlink:href="app_8c.html#a8f312e54d76623b1ae169d5d19736ee0" target="_top" xlink:title=" ">
<polygon fill="white" stroke="#666666" points="255,-78.75 187.25,-78.75 187.25,-58 255,-58 255,-78.75"/>
<text text-anchor="middle" x="221.12" y="-65.25" font-family="Helvetica,sans-Serif" font-size="10.00">w2c__f363</text>
</a>
</g>
</g>
<!-- Node4&#45;&gt;Node7 -->
<g id="edge6_Node000004_Node000007" class="edge">
<title>Node4&#45;&gt;Node7</title>
<g id="a_edge6_Node000004_Node000007"><a xlink:title=" ">
<path fill="none" stroke="#63b8ff" d="M279.32,-79.62C271.21,-78.02 262.88,-76.38 255.17,-74.87"/>
<polygon fill="#63b8ff" stroke="#63b8ff" points="278.59,-83.04 289.07,-81.53 279.94,-76.17 278.59,-83.04"/>
</a>
</g>
</g>
<!-- Node6 -->
<g id="Node000006" class="node">
<title>Node6</title>
<g id="a_Node000006"><a xlink:href="app_8c.html#ab1e039392ea68017ab8a6063263b147d" target="_top" xlink:title=" ">
<polygon fill="white" stroke="#666666" points="145.25,-117.75 94,-117.75 94,-97 145.25,-97 145.25,-117.75"/>
<text text-anchor="middle" x="119.62" y="-104.25" font-family="Helvetica,sans-Serif" font-size="10.00">w2c__c</text>
</a>
</g>
</g>
<!-- Node5&#45;&gt;Node6 -->
<g id="edge5_Node000005_Node000006" class="edge">
<title>Node5&#45;&gt;Node6</title>
<g id="a_edge5_Node000005_Node000006"><a xlink:title=" ">
<path fill="none" stroke="#63b8ff" d="M178.21,-107.38C167.15,-107.38 155.55,-107.38 145.68,-107.38"/>
<polygon fill="#63b8ff" stroke="#63b8ff" points="177.95,-110.88 187.95,-107.38 177.95,-103.88 177.95,-110.88"/>
</a>
</g>
</g>
<!-- Node8 -->
<g id="Node000008" class="node">
<title>Node8</title>
<g id="a_Node000008"><a xlink:href="app_8c.html#a26657f10c51f10eeb57a4d27606a6885" target="_top" xlink:title=" ">
<polygon fill="white" stroke="#666666" points="151.25,-78.75 88,-78.75 88,-58 151.25,-58 151.25,-78.75"/>
<text text-anchor="middle" x="119.62" y="-65.25" font-family="Helvetica,sans-Serif" font-size="10.00">w2c__b_0</text>
</a>
</g>
</g>
<!-- Node7&#45;&gt;Node8 -->
<g id="edge7_Node000007_Node000008" class="edge">
<title>Node7&#45;&gt;Node8</title>
<g id="a_edge7_Node000007_Node000008"><a xlink:title=" ">
<path fill="none" stroke="#63b8ff" d="M175.71,-68.38C167.57,-68.38 159.23,-68.38 151.59,-68.38"/>
<polygon fill="#63b8ff" stroke="#63b8ff" points="175.48,-71.88 185.48,-68.38 175.48,-64.88 175.48,-71.88"/>
</a>
</g>
</g>
<!-- Node9 -->
<g id="Node000009" class="node">
<title>Node9</title>
<g id="a_Node000009"><a xlink:href="app_8c.html#a683a2045346c3209e9dac20d55933c7d" target="_top" xlink:title=" ">
<polygon fill="white" stroke="#666666" points="52,-78.75 0,-78.75 0,-58 52,-58 52,-78.75"/>
<text text-anchor="middle" x="26" y="-65.25" font-family="Helvetica,sans-Serif" font-size="10.00">w2c__b</text>
</a>
</g>
</g>
<!-- Node8&#45;&gt;Node9 -->
<g id="edge8_Node000008_Node000009" class="edge">
<title>Node8&#45;&gt;Node9</title>
<g id="a_edge8_Node000008_Node000009"><a xlink:title=" ">
<path fill="none" stroke="#63b8ff" d="M76.21,-68.38C68,-68.38 59.65,-68.38 52.21,-68.38"/>
<polygon fill="#63b8ff" stroke="#63b8ff" points="76.09,-71.88 86.09,-68.38 76.09,-64.88 76.09,-71.88"/>
</a>
</g>
</g>
<!-- Node11 -->
<g id="Node000011" class="node">
<title>Node11</title>
<g id="a_Node000011"><a xlink:href="app_8c.html#a05d83e696cfaa26355c9732ee9ea4cd0" target="_top" xlink:title=" ">
<polygon fill="white" stroke="#666666" points="358.75,-59.75 291,-59.75 291,-39 358.75,-39 358.75,-59.75"/>
<text text-anchor="middle" x="324.88" y="-46.25" font-family="Helvetica,sans-Serif" font-size="10.00">w2c__f454</text>
</a>
</g>
</g>
<!-- Node10&#45;&gt;Node11 -->
<g id="edge10_Node000010_Node000011" class="edge">
<title>Node10&#45;&gt;Node11</title>
<g id="a_edge10_Node000010_Node000011"><a xlink:title=" ">
<path fill="none" stroke="#63b8ff" d="M383.07,-49.38C374.96,-49.38 366.63,-49.38 358.92,-49.38"/>
<polygon fill="#63b8ff" stroke="#63b8ff" points="382.79,-52.88 392.79,-49.38 382.79,-45.88 382.79,-52.88"/>
</a>
</g>
</g>
<!-- Node13 -->
<g id="Node000013" class="node">
<title>Node13</title>
<g id="a_Node000013"><a xlink:href="app_8c.html#a980a551daeb256397f01e6faa91d49db" target="_top" xlink:title=" ">
<polygon fill="white" stroke="#666666" points="358.75,-20.75 291,-20.75 291,0 358.75,0 358.75,-20.75"/>
<text text-anchor="middle" x="324.88" y="-7.25" font-family="Helvetica,sans-Serif" font-size="10.00">w2c__f403</text>
</a>
</g>
</g>
<!-- Node12&#45;&gt;Node13 -->
<g id="edge12_Node000012_Node000013" class="edge">
<title>Node12&#45;&gt;Node13</title>
<g id="a_edge12_Node000012_Node000013"><a xlink:title=" ">
<path fill="none" stroke="#63b8ff" d="M383.07,-10.38C374.96,-10.38 366.63,-10.38 358.92,-10.38"/>
<polygon fill="#63b8ff" stroke="#63b8ff" points="382.79,-13.88 392.79,-10.38 382.79,-6.88 382.79,-13.88"/>
</a>
</g>
</g>
</g>
</svg>
