<?xml version="1.0" encoding="UTF-8" standalone="no"?>
<!DOCTYPE svg PUBLIC "-//W3C//DTD SVG 1.1//EN"
 "http://www.w3.org/Graphics/SVG/1.1/DTD/svg11.dtd">
<!-- Generated by graphviz version 12.2.1 (0)
 -->
<!-- Title: w2c__f356 Pages: 1 -->
<svg width="387pt" height="125pt"
 viewBox="0.00 0.00 387.00 124.75" xmlns="http://www.w3.org/2000/svg" xmlns:xlink="http://www.w3.org/1999/xlink">
<g id="graph0" class="graph" transform="scale(1 1) rotate(0) translate(4 120.75)">
<title>w2c__f356</title>
<!-- Node1 -->
<g id="Node000001" class="node">
<title>Node1</title>
<g id="a_Node000001"><a xlink:title=" ">
<polygon fill="#999999" stroke="#666666" points="67.75,-59.75 0,-59.75 0,-39 67.75,-39 67.75,-59.75"/>
<text text-anchor="middle" x="33.88" y="-46.25" font-family="Helvetica,sans-Serif" font-size="10.00">w2c__f356</text>
</a>
</g>
</g>
<!-- Node2 -->
<g id="Node000002" class="node">
<title>Node2</title>
<g id="a_Node000002"><a xlink:href="app_8c.html#a03fa34d93d32a3ee40dfc2d840730111" target="_top" xlink:title=" ">
<polygon fill="white" stroke="#666666" points="275.25,-97.75 207.5,-97.75 207.5,-77 275.25,-77 275.25,-97.75"/>
<text text-anchor="middle" x="241.38" y="-84.25" font-family="Helvetica,sans-Serif" font-size="10.00">w2c__f262</text>
</a>
</g>
</g>
<!-- Node1&#45;&gt;Node2 -->
<g id="edge1_Node000001_Node000002" class="edge">
<title>Node1&#45;&gt;Node2</title>
<g id="a_edge1_Node000001_Node000002"><a xlink:title=" ">
<path fill="none" stroke="#63b8ff" d="M67.94,-59.44C79.22,-62.62 91.97,-65.94 103.75,-68.38 134.19,-74.66 168.88,-79.46 195.69,-82.66"/>
<polygon fill="#63b8ff" stroke="#63b8ff" points="195.2,-86.12 205.53,-83.8 196,-79.17 195.2,-86.12"/>
</a>
</g>
</g>
<!-- Node5 -->
<g id="Node000005" class="node">
<title>Node5</title>
<g id="a_Node000005"><a xlink:href="app_8c.html#aa0030424238c18279b4e86b3772151fa" target="_top" xlink:title=" ">
<polygon fill="white" stroke="#666666" points="171.5,-59.75 103.75,-59.75 103.75,-39 171.5,-39 171.5,-59.75"/>
<text text-anchor="middle" x="137.62" y="-46.25" font-family="Helvetica,sans-Serif" font-size="10.00">w2c__f305</text>
</a>
</g>
</g>
<!-- Node1&#45;&gt;Node5 -->
<g id="edge4_Node000001_Node000005" class="edge">
<title>Node1&#45;&gt;Node5</title>
<g id="a_edge4_Node000001_Node000005"><a xlink:title=" ">
<path fill="none" stroke="#63b8ff" d="M68.19,-49.38C75.82,-49.38 84.06,-49.38 92.08,-49.38"/>
<polygon fill="#63b8ff" stroke="#63b8ff" points="92.07,-52.88 102.07,-49.38 92.07,-45.88 92.07,-52.88"/>
</a>
</g>
</g>
<!-- Node7 -->
<g id="Node000007" class="node">
<title>Node7</title>
<g id="a_Node000007"><a xlink:href="app_8c.html#a0e0dad0ebc52e45eeff2e1b5d8389ea4" target="_top" xlink:title=" ">
<polygon fill="white" stroke="#666666" points="171.5,-20.75 103.75,-20.75 103.75,0 171.5,0 171.5,-20.75"/>
<text text-anchor="middle" x="137.62" y="-7.25" font-family="Helvetica,sans-Serif" font-size="10.00">w2c__f534</text>
</a>
</g>
</g>
<!-- Node1&#45;&gt;Node7 -->
<g id="edge7_Node000001_Node000007" class="edge">
<title>Node1&#45;&gt;Node7</title>
<g id="a_edge7_Node000001_Node000007"><a xlink:title=" ">
<path fill="none" stroke="#63b8ff" d="M63.22,-38.51C73.91,-34.41 86.27,-29.67 97.76,-25.27"/>
<polygon fill="#63b8ff" stroke="#63b8ff" points="98.94,-28.57 107.02,-21.72 96.43,-22.03 98.94,-28.57"/>
</a>
</g>
</g>
<!-- Node3 -->
<g id="Node000003" class="node">
<title>Node3</title>
<g id="a_Node000003"><a xlink:href="app_8c.html#a16207b5f7a97b0ecfddd231452c5aa7e" target="_top" xlink:title=" ">
<polygon fill="white" stroke="#666666" points="379,-116.75 311.25,-116.75 311.25,-96 379,-96 379,-116.75"/>
<text text-anchor="middle" x="345.12" y="-103.25" font-family="Helvetica,sans-Serif" font-size="10.00">w2c__f263</text>
</a>
</g>
</g>
<!-- Node2&#45;&gt;Node3 -->
<g id="edge2_Node000002_Node000003" class="edge">
<title>Node2&#45;&gt;Node3</title>
<g id="a_edge2_Node000002_Node000003"><a xlink:title=" ">
<path fill="none" stroke="#63b8ff" d="M275.69,-93.6C283.41,-95.04 291.75,-96.59 299.86,-98.11"/>
<polygon fill="#63b8ff" stroke="#63b8ff" points="299.12,-101.53 309.59,-99.93 300.41,-94.65 299.12,-101.53"/>
</a>
</g>
</g>
<!-- Node4 -->
<g id="Node000004" class="node">
<title>Node4</title>
<g id="a_Node000004"><a xlink:href="app_8c.html#a71bcbce7faf780cd081af3fa82d6da97" target="_top" xlink:title=" ">
<polygon fill="white" stroke="#666666" points="379,-77.75 311.25,-77.75 311.25,-57 379,-57 379,-77.75"/>
<text text-anchor="middle" x="345.12" y="-64.25" font-family="Helvetica,sans-Serif" font-size="10.00">w2c__f437</text>
</a>
</g>
</g>
<!-- Node2&#45;&gt;Node4 -->
<g id="edge3_Node000002_Node000004" class="edge">
<title>Node2&#45;&gt;Node4</title>
<g id="a_edge3_Node000002_Node000004"><a xlink:title=" ">
<path fill="none" stroke="#63b8ff" d="M275.69,-80.83C283.41,-79.31 291.75,-77.67 299.86,-76.08"/>
<polygon fill="#63b8ff" stroke="#63b8ff" points="300.46,-79.53 309.6,-74.16 299.11,-72.66 300.46,-79.53"/>
</a>
</g>
</g>
<!-- Node5&#45;&gt;Node2 -->
<g id="edge5_Node000005_Node000002" class="edge">
<title>Node5&#45;&gt;Node2</title>
<g id="a_edge5_Node000005_Node000002"><a xlink:title=" ">
<path fill="none" stroke="#63b8ff" d="M167.51,-60.16C177.82,-64.01 189.63,-68.42 200.69,-72.55"/>
<polygon fill="#63b8ff" stroke="#63b8ff" points="199.41,-75.81 210,-76.03 201.86,-69.25 199.41,-75.81"/>
</a>
</g>
</g>
<!-- Node6 -->
<g id="Node000006" class="node">
<title>Node6</title>
<g id="a_Node000006"><a xlink:href="app_8c.html#abc21e85cf3aaa918b50fa3e8b54e25e0" target="_top" xlink:title=" ">
<polygon fill="white" stroke="#666666" points="275.25,-58.75 207.5,-58.75 207.5,-38 275.25,-38 275.25,-58.75"/>
<text text-anchor="middle" x="241.38" y="-45.25" font-family="Helvetica,sans-Serif" font-size="10.00">w2c__f565</text>
</a>
</g>
</g>
<!-- Node5&#45;&gt;Node6 -->
<g id="edge6_Node000005_Node000006" class="edge">
<title>Node5&#45;&gt;Node6</title>
<g id="a_edge6_Node000005_Node000006"><a xlink:title=" ">
<path fill="none" stroke="#63b8ff" d="M171.94,-49.05C179.57,-48.97 187.81,-48.89 195.83,-48.81"/>
<polygon fill="#63b8ff" stroke="#63b8ff" points="195.85,-52.31 205.82,-48.71 195.78,-45.31 195.85,-52.31"/>
</a>
</g>
</g>
</g>
</svg>
