<?xml version="1.0" encoding="UTF-8" standalone="no"?>
<!DOCTYPE svg PUBLIC "-//W3C//DTD SVG 1.1//EN"
 "http://www.w3.org/Graphics/SVG/1.1/DTD/svg11.dtd">
<!-- Generated by graphviz version 12.2.1 (0)
 -->
<!-- Title: w2c__f441 Pages: 1 -->
<svg width="493pt" height="508pt"
 viewBox="0.00 0.00 493.00 507.75" xmlns="http://www.w3.org/2000/svg" xmlns:xlink="http://www.w3.org/1999/xlink">
<g id="graph0" class="graph" transform="scale(1 1) rotate(0) translate(4 503.75)">
<title>w2c__f441</title>
<!-- Node1 -->
<g id="Node000001" class="node">
<title>Node1</title>
<g id="a_Node000001"><a xlink:title=" ">
<polygon fill="#999999" stroke="#666666" points="67.75,-287.75 0,-287.75 0,-267 67.75,-267 67.75,-287.75"/>
<text text-anchor="middle" x="33.88" y="-274.25" font-family="Helvetica,sans-Serif" font-size="10.00">w2c__f441</text>
</a>
</g>
</g>
<!-- Node2 -->
<g id="Node000002" class="node">
<title>Node2</title>
<g id="a_Node000002"><a xlink:href="app_8c.html#aad1630f101219837a2a90911e115f172" target="_top" xlink:title=" ">
<polygon fill="white" stroke="#666666" points="173.75,-499.75 103.75,-499.75 103.75,-479 173.75,-479 173.75,-499.75"/>
<text text-anchor="middle" x="138.75" y="-486.25" font-family="Helvetica,sans-Serif" font-size="10.00">w2c_0_113</text>
</a>
</g>
</g>
<!-- Node1&#45;&gt;Node2 -->
<g id="edge1_Node000001_Node000002" class="edge">
<title>Node1&#45;&gt;Node2</title>
<g id="a_edge1_Node000001_Node000002"><a xlink:title=" ">
<path fill="none" stroke="#63b8ff" d="M36.15,-288.2C40.36,-319.59 56.31,-412.1 103.75,-469.38 104.4,-470.16 105.09,-470.92 105.81,-471.66"/>
<polygon fill="#63b8ff" stroke="#63b8ff" points="103.32,-474.15 113.3,-477.71 107.72,-468.7 103.32,-474.15"/>
</a>
</g>
</g>
<!-- Node3 -->
<g id="Node000003" class="node">
<title>Node3</title>
<g id="a_Node000003"><a xlink:href="app_8c.html#a073f670c8a950594dc8c2335dd28302c" target="_top" xlink:title=" ">
<polygon fill="white" stroke="#666666" points="173.75,-460.75 103.75,-460.75 103.75,-440 173.75,-440 173.75,-460.75"/>
<text text-anchor="middle" x="138.75" y="-447.25" font-family="Helvetica,sans-Serif" font-size="10.00">w2c_0_135</text>
</a>
</g>
</g>
<!-- Node1&#45;&gt;Node3 -->
<g id="edge2_Node000001_Node000003" class="edge">
<title>Node1&#45;&gt;Node3</title>
<g id="a_edge2_Node000001_Node000003"><a xlink:title=" ">
<path fill="none" stroke="#63b8ff" d="M37.24,-287.88C43.7,-314.55 63.88,-385.92 103.75,-430.38 104.45,-431.16 105.19,-431.91 105.96,-432.65"/>
<polygon fill="#63b8ff" stroke="#63b8ff" points="103.81,-435.41 113.86,-438.77 108.09,-429.88 103.81,-435.41"/>
</a>
</g>
</g>
<!-- Node4 -->
<g id="Node000004" class="node">
<title>Node4</title>
<g id="a_Node000004"><a xlink:href="app_8c.html#ae0e699cf1cc73a374ef879067836e519" target="_top" xlink:title=" ">
<polygon fill="white" stroke="#666666" points="173.75,-421.75 103.75,-421.75 103.75,-401 173.75,-401 173.75,-421.75"/>
<text text-anchor="middle" x="138.75" y="-408.25" font-family="Helvetica,sans-Serif" font-size="10.00">w2c_0_170</text>
</a>
</g>
</g>
<!-- Node1&#45;&gt;Node4 -->
<g id="edge3_Node000001_Node000004" class="edge">
<title>Node1&#45;&gt;Node4</title>
<g id="a_edge3_Node000001_Node000004"><a xlink:title=" ">
<path fill="none" stroke="#63b8ff" d="M39.14,-287.98C48.27,-309.62 71.51,-359.52 103.75,-391.38 104.63,-392.24 105.55,-393.09 106.5,-393.9"/>
<polygon fill="#63b8ff" stroke="#63b8ff" points="104.37,-396.68 114.52,-399.71 108.47,-391.01 104.37,-396.68"/>
</a>
</g>
</g>
<!-- Node5 -->
<g id="Node000005" class="node">
<title>Node5</title>
<g id="a_Node000005"><a xlink:href="app_8c.html#a65435cbe9d51ae2a318165390ae2e6df" target="_top" xlink:title=" ">
<polygon fill="white" stroke="#666666" points="173.75,-382.75 103.75,-382.75 103.75,-362 173.75,-362 173.75,-382.75"/>
<text text-anchor="middle" x="138.75" y="-369.25" font-family="Helvetica,sans-Serif" font-size="10.00">w2c_0_184</text>
</a>
</g>
</g>
<!-- Node1&#45;&gt;Node5 -->
<g id="edge4_Node000001_Node000005" class="edge">
<title>Node1&#45;&gt;Node5</title>
<g id="a_edge4_Node000001_Node000005"><a xlink:title=" ">
<path fill="none" stroke="#63b8ff" d="M44.12,-288.09C56.84,-302.54 80.78,-328.73 103.75,-348.38 106.41,-350.65 109.28,-352.92 112.19,-355.11"/>
<polygon fill="#63b8ff" stroke="#63b8ff" points="109.99,-357.84 120.15,-360.85 114.08,-352.16 109.99,-357.84"/>
</a>
</g>
</g>
<!-- Node6 -->
<g id="Node000006" class="node">
<title>Node6</title>
<g id="a_Node000006"><a xlink:href="app_8c.html#aa709ee1fada6a506c56e35eaa8f8aef1" target="_top" xlink:title=" ">
<polygon fill="white" stroke="#666666" points="275.62,-307.75 211.62,-307.75 211.62,-287 275.62,-287 275.62,-307.75"/>
<text text-anchor="middle" x="243.62" y="-294.25" font-family="Helvetica,sans-Serif" font-size="10.00">w2c_0_39</text>
</a>
</g>
</g>
<!-- Node1&#45;&gt;Node6 -->
<g id="edge5_Node000001_Node000006" class="edge">
<title>Node1&#45;&gt;Node6</title>
<g id="a_edge5_Node000001_Node000006"><a xlink:title=" ">
<path fill="none" stroke="#63b8ff" d="M67.79,-280.54C103.54,-283.99 160.76,-289.49 199.93,-293.27"/>
<polygon fill="#63b8ff" stroke="#63b8ff" points="199.42,-296.73 209.71,-294.21 200.1,-289.76 199.42,-296.73"/>
</a>
</g>
</g>
<!-- Node7 -->
<g id="Node000007" class="node">
<title>Node7</title>
<g id="a_Node000007"><a xlink:href="app_8c.html#aaca5d5bcf49f2ca74019cf097750b9f3" target="_top" xlink:title=" ">
<polygon fill="white" stroke="#666666" points="381.25,-268.75 313.5,-268.75 313.5,-248 381.25,-248 381.25,-268.75"/>
<text text-anchor="middle" x="347.38" y="-255.25" font-family="Helvetica,sans-Serif" font-size="10.00">w2c__f258</text>
</a>
</g>
</g>
<!-- Node1&#45;&gt;Node7 -->
<g id="edge6_Node000001_Node000007" class="edge">
<title>Node1&#45;&gt;Node7</title>
<g id="a_edge6_Node000001_Node000007"><a xlink:title=" ">
<path fill="none" stroke="#63b8ff" d="M56.99,-288.12C100.51,-307.72 199.75,-344.75 277.5,-316.38 298.7,-308.64 317.9,-291.18 330.6,-277.43"/>
<polygon fill="#63b8ff" stroke="#63b8ff" points="332.99,-280.02 336.97,-270.2 327.73,-275.39 332.99,-280.02"/>
</a>
</g>
</g>
<!-- Node10 -->
<g id="Node000010" class="node">
<title>Node10</title>
<g id="a_Node000010"><a xlink:href="app_8c.html#a8d8a9f240d971fdd48e2227d3e26416d" target="_top" xlink:title=" ">
<polygon fill="white" stroke="#666666" points="172.62,-20.75 104.88,-20.75 104.88,0 172.62,0 172.62,-20.75"/>
<text text-anchor="middle" x="138.75" y="-7.25" font-family="Helvetica,sans-Serif" font-size="10.00">w2c__f283</text>
</a>
</g>
</g>
<!-- Node1&#45;&gt;Node10 -->
<g id="edge9_Node000001_Node000010" class="edge">
<title>Node1&#45;&gt;Node10</title>
<g id="a_edge9_Node000001_Node000010"><a xlink:title=" ">
<path fill="none" stroke="#63b8ff" d="M35.42,-266.59C37.72,-230.42 49.27,-111.31 103.75,-34.38 105.36,-32.1 107.25,-29.97 109.31,-27.99"/>
<polygon fill="#63b8ff" stroke="#63b8ff" points="111.05,-31.08 116.61,-22.07 106.64,-25.65 111.05,-31.08"/>
</a>
</g>
</g>
<!-- Node11 -->
<g id="Node000011" class="node">
<title>Node11</title>
<g id="a_Node000011"><a xlink:href="app_8c.html#ab62dc09553f3dfd2124e04cd3657a45e" target="_top" xlink:title=" ">
<polygon fill="white" stroke="#666666" points="172.62,-268.75 104.88,-268.75 104.88,-248 172.62,-248 172.62,-268.75"/>
<text text-anchor="middle" x="138.75" y="-255.25" font-family="Helvetica,sans-Serif" font-size="10.00">w2c__f420</text>
</a>
</g>
</g>
<!-- Node1&#45;&gt;Node11 -->
<g id="edge10_Node000001_Node000011" class="edge">
<title>Node1&#45;&gt;Node11</title>
<g id="a_edge10_Node000001_Node000011"><a xlink:title=" ">
<path fill="none" stroke="#63b8ff" d="M67.99,-271.26C76.16,-269.75 85.04,-268.11 93.64,-266.52"/>
<polygon fill="#63b8ff" stroke="#63b8ff" points="94.01,-270.01 103.21,-264.75 92.74,-263.13 94.01,-270.01"/>
</a>
</g>
</g>
<!-- Node14 -->
<g id="Node000014" class="node">
<title>Node14</title>
<g id="a_Node000014"><a xlink:href="app_8c.html#a80107b6b0c209f372c3ca2ed24d5d5bf" target="_top" xlink:title=" ">
<polygon fill="white" stroke="#666666" points="277.5,-114.75 209.75,-114.75 209.75,-94 277.5,-94 277.5,-114.75"/>
<text text-anchor="middle" x="243.62" y="-101.25" font-family="Helvetica,sans-Serif" font-size="10.00">w2c__f427</text>
</a>
</g>
</g>
<!-- Node1&#45;&gt;Node14 -->
<g id="edge16_Node000001_Node000014" class="edge">
<title>Node1&#45;&gt;Node14</title>
<g id="a_edge16_Node000001_Node000014"><a xlink:title=" ">
<path fill="none" stroke="#63b8ff" d="M37.22,-266.84C43.41,-241.54 62.63,-176.96 103.75,-143.38 130.46,-121.56 168.62,-111.93 198.19,-107.69"/>
<polygon fill="#63b8ff" stroke="#63b8ff" points="198.47,-111.18 207.96,-106.45 197.6,-104.23 198.47,-111.18"/>
</a>
</g>
</g>
<!-- Node16 -->
<g id="Node000016" class="node">
<title>Node16</title>
<g id="a_Node000016"><a xlink:href="app_8c.html#ac11bc1b673d6ec5f4cf370ec90107cac" target="_top" xlink:title=" ">
<polygon fill="white" stroke="#666666" points="172.62,-172.75 104.88,-172.75 104.88,-152 172.62,-152 172.62,-172.75"/>
<text text-anchor="middle" x="138.75" y="-159.25" font-family="Helvetica,sans-Serif" font-size="10.00">w2c__f438</text>
</a>
</g>
</g>
<!-- Node1&#45;&gt;Node16 -->
<g id="edge18_Node000001_Node000016" class="edge">
<title>Node1&#45;&gt;Node16</title>
<g id="a_edge18_Node000001_Node000016"><a xlink:title=" ">
<path fill="none" stroke="#63b8ff" d="M44.37,-266.76C61.75,-247.34 98.89,-205.82 120.73,-181.4"/>
<polygon fill="#63b8ff" stroke="#63b8ff" points="123.21,-183.88 127.27,-174.09 117.99,-179.21 123.21,-183.88"/>
</a>
</g>
</g>
<!-- Node17 -->
<g id="Node000017" class="node">
<title>Node17</title>
<g id="a_Node000017"><a xlink:href="app_8c.html#ab78a9ba6819f5a9d3b53302097151d33" target="_top" xlink:title=" ">
<polygon fill="white" stroke="#666666" points="277.5,-75.75 209.75,-75.75 209.75,-55 277.5,-55 277.5,-75.75"/>
<text text-anchor="middle" x="243.62" y="-62.25" font-family="Helvetica,sans-Serif" font-size="10.00">w2c__f481</text>
</a>
</g>
</g>
<!-- Node1&#45;&gt;Node17 -->
<g id="edge25_Node000001_Node000017" class="edge">
<title>Node1&#45;&gt;Node17</title>
<g id="a_edge25_Node000001_Node000017"><a xlink:title=" ">
<path fill="none" stroke="#63b8ff" d="M36.14,-266.56C40.2,-236.94 55.52,-153.79 103.75,-109.38 129.65,-85.52 168.45,-74.6 198.46,-69.6"/>
<polygon fill="#63b8ff" stroke="#63b8ff" points="198.61,-73.12 207.99,-68.18 197.58,-66.19 198.61,-73.12"/>
</a>
</g>
</g>
<!-- Node18 -->
<g id="Node000018" class="node">
<title>Node18</title>
<g id="a_Node000018"><a xlink:href="app_8c.html#a674f6e81761467d0a8dc6d2a425eda9f" target="_top" xlink:title=" ">
<polygon fill="white" stroke="#666666" points="277.5,-36.75 209.75,-36.75 209.75,-16 277.5,-16 277.5,-36.75"/>
<text text-anchor="middle" x="243.62" y="-23.25" font-family="Helvetica,sans-Serif" font-size="10.00">w2c__f498</text>
</a>
</g>
</g>
<!-- Node1&#45;&gt;Node18 -->
<g id="edge26_Node000001_Node000018" class="edge">
<title>Node1&#45;&gt;Node18</title>
<g id="a_edge26_Node000001_Node000018"><a xlink:title=" ">
<path fill="none" stroke="#63b8ff" d="M35.22,-266.68C36.9,-232.97 46.69,-127.91 103.75,-71.38 128.89,-46.46 167.94,-35.34 198.23,-30.37"/>
<polygon fill="#63b8ff" stroke="#63b8ff" points="198.47,-33.88 207.86,-28.97 197.46,-26.95 198.47,-33.88"/>
</a>
</g>
</g>
<!-- Node8 -->
<g id="Node000008" class="node">
<title>Node8</title>
<g id="a_Node000008"><a xlink:href="app_8c.html#a8d9f347f9a643f0ebfb53c4f54578ac4" target="_top" xlink:title=" ">
<polygon fill="white" stroke="#666666" points="485,-229.75 417.25,-229.75 417.25,-209 485,-209 485,-229.75"/>
<text text-anchor="middle" x="451.12" y="-216.25" font-family="Helvetica,sans-Serif" font-size="10.00">w2c__f304</text>
</a>
</g>
</g>
<!-- Node7&#45;&gt;Node8 -->
<g id="edge7_Node000007_Node000008" class="edge">
<title>Node7&#45;&gt;Node8</title>
<g id="a_edge7_Node000007_Node000008"><a xlink:title=" ">
<path fill="none" stroke="#63b8ff" d="M376.72,-247.51C387.41,-243.41 399.77,-238.67 411.26,-234.27"/>
<polygon fill="#63b8ff" stroke="#63b8ff" points="412.44,-237.57 420.52,-230.72 409.93,-231.03 412.44,-237.57"/>
</a>
</g>
</g>
<!-- Node9 -->
<g id="Node000009" class="node">
<title>Node9</title>
<g id="a_Node000009"><a xlink:href="app_8c.html#a881f0b113e93dce3ff52d04b435850f6" target="_top" xlink:title=" ">
<polygon fill="white" stroke="#666666" points="485,-268.75 417.25,-268.75 417.25,-248 485,-248 485,-268.75"/>
<text text-anchor="middle" x="451.12" y="-255.25" font-family="Helvetica,sans-Serif" font-size="10.00">w2c__f491</text>
</a>
</g>
</g>
<!-- Node7&#45;&gt;Node9 -->
<g id="edge8_Node000007_Node000009" class="edge">
<title>Node7&#45;&gt;Node9</title>
<g id="a_edge8_Node000007_Node000009"><a xlink:title=" ">
<path fill="none" stroke="#63b8ff" d="M381.69,-258.38C389.32,-258.38 397.56,-258.38 405.58,-258.38"/>
<polygon fill="#63b8ff" stroke="#63b8ff" points="405.57,-261.88 415.57,-258.38 405.57,-254.88 405.57,-261.88"/>
</a>
</g>
</g>
<!-- Node11&#45;&gt;Node6 -->
<g id="edge11_Node000011_Node000006" class="edge">
<title>Node11&#45;&gt;Node6</title>
<g id="a_edge11_Node000011_Node000006"><a xlink:title=" ">
<path fill="none" stroke="#63b8ff" d="M168.41,-269.24C179.33,-273.38 191.97,-278.17 203.69,-282.62"/>
<polygon fill="#63b8ff" stroke="#63b8ff" points="202.12,-285.76 212.71,-286.03 204.6,-279.22 202.12,-285.76"/>
</a>
</g>
</g>
<!-- Node12 -->
<g id="Node000012" class="node">
<title>Node12</title>
<g id="a_Node000012"><a xlink:href="app_8c.html#a0378208e0d5c0d1d6e7370f1c578fab3" target="_top" xlink:title=" ">
<polygon fill="white" stroke="#666666" points="277.5,-229.75 209.75,-229.75 209.75,-209 277.5,-209 277.5,-229.75"/>
<text text-anchor="middle" x="243.62" y="-216.25" font-family="Helvetica,sans-Serif" font-size="10.00">w2c__f216</text>
</a>
</g>
</g>
<!-- Node11&#45;&gt;Node12 -->
<g id="edge12_Node000011_Node000012" class="edge">
<title>Node11&#45;&gt;Node12</title>
<g id="a_edge12_Node000011_Node000012"><a xlink:title=" ">
<path fill="none" stroke="#63b8ff" d="M168.41,-247.51C179.33,-243.37 191.97,-238.58 203.69,-234.13"/>
<polygon fill="#63b8ff" stroke="#63b8ff" points="204.6,-237.53 212.71,-230.72 202.12,-230.99 204.6,-237.53"/>
</a>
</g>
</g>
<!-- Node13 -->
<g id="Node000013" class="node">
<title>Node13</title>
<g id="a_Node000013"><a xlink:href="app_8c.html#aa5381be9490280e77162083460f33a76" target="_top" xlink:title=" ">
<polygon fill="white" stroke="#666666" points="277.5,-268.75 209.75,-268.75 209.75,-248 277.5,-248 277.5,-268.75"/>
<text text-anchor="middle" x="243.62" y="-255.25" font-family="Helvetica,sans-Serif" font-size="10.00">w2c__f300</text>
</a>
</g>
</g>
<!-- Node11&#45;&gt;Node13 -->
<g id="edge14_Node000011_Node000013" class="edge">
<title>Node11&#45;&gt;Node13</title>
<g id="a_edge14_Node000011_Node000013"><a xlink:title=" ">
<path fill="none" stroke="#63b8ff" d="M172.87,-258.38C180.94,-258.38 189.71,-258.38 198.22,-258.38"/>
<polygon fill="#63b8ff" stroke="#63b8ff" points="198.06,-261.88 208.06,-258.38 198.06,-254.88 198.06,-261.88"/>
</a>
</g>
</g>
<!-- Node12&#45;&gt;Node8 -->
<g id="edge13_Node000012_Node000008" class="edge">
<title>Node12&#45;&gt;Node8</title>
<g id="a_edge13_Node000012_Node000008"><a xlink:title=" ">
<path fill="none" stroke="#63b8ff" d="M277.64,-219.38C312.29,-219.38 366.98,-219.38 405.46,-219.38"/>
<polygon fill="#63b8ff" stroke="#63b8ff" points="405.34,-222.88 415.34,-219.38 405.34,-215.88 405.34,-222.88"/>
</a>
</g>
</g>
<!-- Node13&#45;&gt;Node7 -->
<g id="edge15_Node000013_Node000007" class="edge">
<title>Node13&#45;&gt;Node7</title>
<g id="a_edge15_Node000013_Node000007"><a xlink:title=" ">
<path fill="none" stroke="#63b8ff" d="M277.94,-258.38C285.57,-258.38 293.81,-258.38 301.83,-258.38"/>
<polygon fill="#63b8ff" stroke="#63b8ff" points="301.82,-261.88 311.82,-258.38 301.82,-254.88 301.82,-261.88"/>
</a>
</g>
</g>
<!-- Node15 -->
<g id="Node000015" class="node">
<title>Node15</title>
<g id="a_Node000015"><a xlink:href="app_8c.html#a75d2a28c1bac8b1e29f069bf851fdba9" target="_top" xlink:title=" ">
<polygon fill="white" stroke="#666666" points="381.25,-114.75 313.5,-114.75 313.5,-94 381.25,-94 381.25,-114.75"/>
<text text-anchor="middle" x="347.38" y="-101.25" font-family="Helvetica,sans-Serif" font-size="10.00">w2c__f549</text>
</a>
</g>
</g>
<!-- Node14&#45;&gt;Node15 -->
<g id="edge17_Node000014_Node000015" class="edge">
<title>Node14&#45;&gt;Node15</title>
<g id="a_edge17_Node000014_Node000015"><a xlink:title=" ">
<path fill="none" stroke="#63b8ff" d="M277.94,-104.38C285.57,-104.38 293.81,-104.38 301.83,-104.38"/>
<polygon fill="#63b8ff" stroke="#63b8ff" points="301.82,-107.88 311.82,-104.38 301.82,-100.88 301.82,-107.88"/>
</a>
</g>
</g>
<!-- Node16&#45;&gt;Node7 -->
<g id="edge20_Node000016_Node000007" class="edge">
<title>Node16&#45;&gt;Node7</title>
<g id="a_edge20_Node000016_Node000007"><a xlink:title=" ">
<path fill="none" stroke="#63b8ff" d="M172.96,-167.4C201.83,-172.71 244.13,-182.81 277.5,-200.38 296.83,-210.55 315.58,-226.9 328.63,-239.65"/>
<polygon fill="#63b8ff" stroke="#63b8ff" points="326.09,-242.07 335.61,-246.71 331.06,-237.14 326.09,-242.07"/>
</a>
</g>
</g>
<!-- Node16&#45;&gt;Node12 -->
<g id="edge19_Node000016_Node000012" class="edge">
<title>Node16&#45;&gt;Node12</title>
<g id="a_edge19_Node000016_Node000012"><a xlink:title=" ">
<path fill="none" stroke="#63b8ff" d="M159.1,-173.1C174.38,-181.56 195.94,-193.51 213.33,-203.15"/>
<polygon fill="#63b8ff" stroke="#63b8ff" points="211.24,-205.99 221.69,-207.77 214.64,-199.87 211.24,-205.99"/>
</a>
</g>
</g>
<!-- Node16&#45;&gt;Node14 -->
<g id="edge21_Node000016_Node000014" class="edge">
<title>Node16&#45;&gt;Node14</title>
<g id="a_edge21_Node000016_Node000014"><a xlink:title=" ">
<path fill="none" stroke="#63b8ff" d="M158.62,-151.74C174.04,-143.04 196.09,-130.61 213.73,-120.66"/>
<polygon fill="#63b8ff" stroke="#63b8ff" points="215.22,-123.85 222.21,-115.89 211.78,-117.75 215.22,-123.85"/>
</a>
</g>
</g>
<!-- Node16&#45;&gt;Node17 -->
<g id="edge22_Node000016_Node000017" class="edge">
<title>Node16&#45;&gt;Node17</title>
<g id="a_edge22_Node000016_Node000017"><a xlink:title=" ">
<path fill="none" stroke="#63b8ff" d="M147.96,-151.52C160.25,-135.73 184.66,-106.07 209.75,-85.38 211.01,-84.34 212.32,-83.32 213.67,-82.32"/>
<polygon fill="#63b8ff" stroke="#63b8ff" points="215.28,-85.46 221.62,-76.97 211.37,-79.65 215.28,-85.46"/>
</a>
</g>
</g>
<!-- Node16&#45;&gt;Node18 -->
<g id="edge23_Node000016_Node000018" class="edge">
<title>Node16&#45;&gt;Node18</title>
<g id="a_edge23_Node000016_Node000018"><a xlink:title=" ">
<path fill="none" stroke="#63b8ff" d="M144.12,-151.63C153.46,-129.68 177.21,-79.03 209.75,-46.38 210.6,-45.52 211.49,-44.69 212.42,-43.88"/>
<polygon fill="#63b8ff" stroke="#63b8ff" points="214.2,-46.92 220.14,-38.14 210.02,-41.3 214.2,-46.92"/>
</a>
</g>
</g>
<!-- Node19 -->
<g id="Node000019" class="node">
<title>Node19</title>
<g id="a_Node000019"><a xlink:href="app_8c.html#a672569c91ebb1d5055d737b56ec296a7" target="_top" xlink:title=" ">
<polygon fill="white" stroke="#666666" points="277.5,-153.75 209.75,-153.75 209.75,-133 277.5,-133 277.5,-153.75"/>
<text text-anchor="middle" x="243.62" y="-140.25" font-family="Helvetica,sans-Serif" font-size="10.00">w2c__f585</text>
</a>
</g>
</g>
<!-- Node16&#45;&gt;Node19 -->
<g id="edge24_Node000016_Node000019" class="edge">
<title>Node16&#45;&gt;Node19</title>
<g id="a_edge24_Node000016_Node000019"><a xlink:title=" ">
<path fill="none" stroke="#63b8ff" d="M172.87,-156.26C181.03,-154.75 189.91,-153.11 198.51,-151.52"/>
<polygon fill="#63b8ff" stroke="#63b8ff" points="198.88,-155.01 208.08,-149.75 197.61,-148.13 198.88,-155.01"/>
</a>
</g>
</g>
</g>
</svg>
