<?xml version="1.0" encoding="UTF-8" standalone="no"?>
<!DOCTYPE svg PUBLIC "-//W3C//DTD SVG 1.1//EN"
 "http://www.w3.org/Graphics/SVG/1.1/DTD/svg11.dtd">
<!-- Generated by graphviz version 12.2.1 (0)
 -->
<!-- Title: w2c__f552 Pages: 1 -->
<svg width="932pt" height="463pt"
 viewBox="0.00 0.00 931.75 462.75" xmlns="http://www.w3.org/2000/svg" xmlns:xlink="http://www.w3.org/1999/xlink">
<g id="graph0" class="graph" transform="scale(1 1) rotate(0) translate(4 458.75)">
<title>w2c__f552</title>
<!-- Node1 -->
<g id="Node000001" class="node">
<title>Node1</title>
<g id="a_Node000001"><a xlink:title=" ">
<polygon fill="#999999" stroke="#666666" points="923.75,-211.75 856,-211.75 856,-191 923.75,-191 923.75,-211.75"/>
<text text-anchor="middle" x="889.88" y="-198.25" font-family="Helvetica,sans-Serif" font-size="10.00">w2c__f552</text>
</a>
</g>
</g>
<!-- Node2 -->
<g id="Node000002" class="node">
<title>Node2</title>
<g id="a_Node000002"><a xlink:href="app_8c.html#a16207b5f7a97b0ecfddd231452c5aa7e" target="_top" xlink:title=" ">
<polygon fill="white" stroke="#666666" points="554,-377.75 486.25,-377.75 486.25,-357 554,-357 554,-377.75"/>
<text text-anchor="middle" x="520.12" y="-364.25" font-family="Helvetica,sans-Serif" font-size="10.00">w2c__f263</text>
</a>
</g>
</g>
<!-- Node1&#45;&gt;Node2 -->
<g id="edge1_Node000001_Node000002" class="edge">
<title>Node1&#45;&gt;Node2</title>
<g id="a_edge1_Node000001_Node000002"><a xlink:title=" ">
<path fill="none" stroke="#63b8ff" d="M874.06,-220.92C861.01,-237.28 840.89,-260.59 820,-277.38 766.93,-320.02 752.01,-333.15 687,-353.38 642.57,-367.2 588.42,-369.17 554.35,-368.73"/>
<polygon fill="#63b8ff" stroke="#63b8ff" points="876.55,-223.41 879.94,-213.38 871.03,-219.11 876.55,-223.41"/>
</a>
</g>
</g>
<!-- Node3 -->
<g id="Node000003" class="node">
<title>Node3</title>
<g id="a_Node000003"><a xlink:href="app_8c.html#aabc3b06c7f7daa21796552c728f0379b" target="_top" xlink:title=" ">
<polygon fill="white" stroke="#666666" points="435.62,-454.75 367.88,-454.75 367.88,-434 435.62,-434 435.62,-454.75"/>
<text text-anchor="middle" x="401.75" y="-441.25" font-family="Helvetica,sans-Serif" font-size="10.00">w2c__f270</text>
</a>
</g>
</g>
<!-- Node1&#45;&gt;Node3 -->
<g id="edge13_Node000001_Node000003" class="edge">
<title>Node1&#45;&gt;Node3</title>
<g id="a_edge13_Node000001_Node000003"><a xlink:title=" ">
<path fill="none" stroke="#63b8ff" d="M885.33,-223.24C878.63,-257.69 860.93,-324.66 820,-363.38 711.57,-465.93 514.04,-457 435.87,-448.73"/>
<polygon fill="#63b8ff" stroke="#63b8ff" points="888.73,-224.08 887.06,-213.62 881.84,-222.84 888.73,-224.08"/>
</a>
</g>
</g>
<!-- Node5 -->
<g id="Node000005" class="node">
<title>Node5</title>
<g id="a_Node000005"><a xlink:href="app_8c.html#a5677ffd129da8cd63b876545b8187d77" target="_top" xlink:title=" ">
<polygon fill="white" stroke="#666666" points="302.62,-309.75 234.88,-309.75 234.88,-289 302.62,-289 302.62,-309.75"/>
<text text-anchor="middle" x="268.75" y="-296.25" font-family="Helvetica,sans-Serif" font-size="10.00">w2c__f367</text>
</a>
</g>
</g>
<!-- Node1&#45;&gt;Node5 -->
<g id="edge17_Node000001_Node000005" class="edge">
<title>Node1&#45;&gt;Node5</title>
<g id="a_edge17_Node000001_Node000005"><a xlink:title=" ">
<path fill="none" stroke="#63b8ff" d="M844.47,-201.38C794.6,-201.38 711.25,-201.38 639.5,-201.38 639.5,-201.38 639.5,-201.38 519.12,-201.38 424.69,-201.38 323.22,-263 285.25,-288.51"/>
<polygon fill="#63b8ff" stroke="#63b8ff" points="844.28,-204.88 854.28,-201.38 844.28,-197.88 844.28,-204.88"/>
</a>
</g>
</g>
<!-- Node9 -->
<g id="Node000009" class="node">
<title>Node9</title>
<g id="a_Node000009"><a xlink:href="app_8c.html#a4e0e8b8ddb7852b111d530fef11aca0b" target="_top" xlink:title=" ">
<polygon fill="white" stroke="#666666" points="435.62,-412.75 367.88,-412.75 367.88,-392 435.62,-392 435.62,-412.75"/>
<text text-anchor="middle" x="401.75" y="-399.25" font-family="Helvetica,sans-Serif" font-size="10.00">w2c__f434</text>
</a>
</g>
</g>
<!-- Node1&#45;&gt;Node9 -->
<g id="edge18_Node000001_Node000009" class="edge">
<title>Node1&#45;&gt;Node9</title>
<g id="a_edge18_Node000001_Node000009"><a xlink:title=" ">
<path fill="none" stroke="#63b8ff" d="M881.75,-222.86C871.86,-249.61 851.55,-295.09 820,-322.38 707.44,-419.71 513.15,-413.32 435.86,-406.23"/>
<polygon fill="#63b8ff" stroke="#63b8ff" points="885.04,-224.04 885.06,-213.45 878.44,-221.72 885.04,-224.04"/>
</a>
</g>
</g>
<!-- Node11 -->
<g id="Node000011" class="node">
<title>Node11</title>
<g id="a_Node000011"><a xlink:href="app_8c.html#a109a70c8f46df14c4b53d26d8f43acd8" target="_top" xlink:title=" ">
<polygon fill="white" stroke="#666666" points="805.38,-173.75 737.62,-173.75 737.62,-153 805.38,-153 805.38,-173.75"/>
<text text-anchor="middle" x="771.5" y="-160.25" font-family="Helvetica,sans-Serif" font-size="10.00">w2c__f268</text>
</a>
</g>
</g>
<!-- Node1&#45;&gt;Node11 -->
<g id="edge11_Node000001_Node000011" class="edge">
<title>Node1&#45;&gt;Node11</title>
<g id="a_edge11_Node000001_Node000011"><a xlink:title=" ">
<path fill="none" stroke="#63b8ff" d="M845.15,-187.1C832.05,-182.82 817.91,-178.2 805.62,-174.19"/>
<polygon fill="#63b8ff" stroke="#63b8ff" points="843.81,-190.34 854.4,-190.12 845.98,-183.69 843.81,-190.34"/>
</a>
</g>
</g>
<!-- Node13 -->
<g id="Node000013" class="node">
<title>Node13</title>
<g id="a_Node000013"><a xlink:href="app_8c.html#af32e82af470e1ed0f1fadf95a7c2bc55" target="_top" xlink:title=" ">
<polygon fill="white" stroke="#666666" points="805.38,-116.75 737.62,-116.75 737.62,-96 805.38,-96 805.38,-116.75"/>
<text text-anchor="middle" x="771.5" y="-103.25" font-family="Helvetica,sans-Serif" font-size="10.00">w2c__f341</text>
</a>
</g>
</g>
<!-- Node1&#45;&gt;Node13 -->
<g id="edge14_Node000001_Node000013" class="edge">
<title>Node1&#45;&gt;Node13</title>
<g id="a_edge14_Node000001_Node000013"><a xlink:title=" ">
<path fill="none" stroke="#63b8ff" d="M867.37,-183.42C853.82,-172.15 835.94,-157.35 820,-144.38 808.53,-135.04 795.4,-124.55 785.86,-116.96"/>
<polygon fill="#63b8ff" stroke="#63b8ff" points="864.89,-185.92 874.82,-189.63 869.37,-180.54 864.89,-185.92"/>
</a>
</g>
</g>
<!-- Node15 -->
<g id="Node000015" class="node">
<title>Node15</title>
<g id="a_Node000015"><a xlink:href="app_8c.html#a56a50bd48aa32f60704eb8db7748a855" target="_top" xlink:title=" ">
<polygon fill="white" stroke="#666666" points="805.38,-268.75 737.62,-268.75 737.62,-248 805.38,-248 805.38,-268.75"/>
<text text-anchor="middle" x="771.5" y="-255.25" font-family="Helvetica,sans-Serif" font-size="10.00">w2c__f459</text>
</a>
</g>
</g>
<!-- Node1&#45;&gt;Node15 -->
<g id="edge19_Node000001_Node000015" class="edge">
<title>Node1&#45;&gt;Node15</title>
<g id="a_edge19_Node000001_Node000015"><a xlink:title=" ">
<path fill="none" stroke="#63b8ff" d="M856.62,-217.17C836.87,-226.85 812.11,-238.97 794.58,-247.56"/>
<polygon fill="#63b8ff" stroke="#63b8ff" points="857.91,-220.44 865.35,-212.9 854.83,-214.15 857.91,-220.44"/>
</a>
</g>
</g>
<!-- Node19 -->
<g id="Node000019" class="node">
<title>Node19</title>
<g id="a_Node000019"><a xlink:href="app_8c.html#acc202c88ff97c62f319f7e4dee4b9329" target="_top" xlink:title=" ">
<polygon fill="white" stroke="#666666" points="805.38,-59.75 737.62,-59.75 737.62,-39 805.38,-39 805.38,-59.75"/>
<text text-anchor="middle" x="771.5" y="-46.25" font-family="Helvetica,sans-Serif" font-size="10.00">w2c__f564</text>
</a>
</g>
</g>
<!-- Node1&#45;&gt;Node19 -->
<g id="edge27_Node000001_Node000019" class="edge">
<title>Node1&#45;&gt;Node19</title>
<g id="a_edge27_Node000001_Node000019"><a xlink:title=" ">
<path fill="none" stroke="#63b8ff" d="M879.2,-180.72C867.36,-156.72 845.66,-116.65 820,-87.38 810.81,-76.89 798.47,-67.12 788.67,-60.11"/>
<polygon fill="#63b8ff" stroke="#63b8ff" points="875.92,-181.97 883.41,-189.45 882.22,-178.93 875.92,-181.97"/>
</a>
</g>
</g>
<!-- Node21 -->
<g id="Node000021" class="node">
<title>Node21</title>
<g id="a_Node000021"><a xlink:href="app_8c.html#a216a44ad71d088040af0456add00917a" target="_top" xlink:title=" ">
<polygon fill="white" stroke="#666666" points="820,-20.75 723,-20.75 723,0 820,0 820,-20.75"/>
<text text-anchor="middle" x="771.5" y="-7.25" font-family="Helvetica,sans-Serif" font-size="10.00">wrap_w2c__f552</text>
</a>
</g>
</g>
<!-- Node1&#45;&gt;Node21 -->
<g id="edge30_Node000001_Node000021" class="edge">
<title>Node1&#45;&gt;Node21</title>
<g id="a_edge30_Node000001_Node000021"><a xlink:title=" ">
<path fill="none" stroke="#63b8ff" d="M885.62,-179.56C879.21,-143.89 861.78,-72.81 820,-30.38 816.36,-26.68 811.93,-23.63 807.26,-21.12"/>
<polygon fill="#63b8ff" stroke="#63b8ff" points="882.11,-179.81 887.2,-189.1 889.02,-178.67 882.11,-179.81"/>
</a>
</g>
</g>
<!-- Node2&#45;&gt;Node3 -->
<g id="edge2_Node000002_Node000003" class="edge">
<title>Node2&#45;&gt;Node3</title>
<g id="a_edge2_Node000002_Node000003"><a xlink:title=" ">
<path fill="none" stroke="#63b8ff" d="M498.27,-385.64C485.04,-396.74 467.26,-410.76 450.25,-421.38 443.1,-425.84 434.95,-430.06 427.45,-433.65"/>
<polygon fill="#63b8ff" stroke="#63b8ff" points="500.54,-388.31 505.87,-379.16 495.99,-382.98 500.54,-388.31"/>
</a>
</g>
</g>
<!-- Node2&#45;&gt;Node5 -->
<g id="edge4_Node000002_Node000005" class="edge">
<title>Node2&#45;&gt;Node5</title>
<g id="a_edge4_Node000002_Node000005"><a xlink:title=" ">
<path fill="none" stroke="#63b8ff" d="M477.75,-352.98C468.72,-350 459.2,-346.98 450.25,-344.38 399.24,-329.52 339.26,-315.18 302.89,-306.82"/>
<polygon fill="#63b8ff" stroke="#63b8ff" points="476.4,-356.22 486.99,-356.07 478.62,-349.58 476.4,-356.22"/>
</a>
</g>
</g>
<!-- Node2&#45;&gt;Node9 -->
<g id="edge8_Node000002_Node000009" class="edge">
<title>Node2&#45;&gt;Node9</title>
<g id="a_edge8_Node000002_Node000009"><a xlink:title=" ">
<path fill="none" stroke="#63b8ff" d="M474.8,-380.7C461.96,-384.57 448.16,-388.72 436.1,-392.34"/>
<polygon fill="#63b8ff" stroke="#63b8ff" points="475.76,-384.07 484.33,-377.84 473.74,-377.37 475.76,-384.07"/>
</a>
</g>
</g>
<!-- Node10 -->
<g id="Node000010" class="node">
<title>Node10</title>
<g id="a_Node000010"><a xlink:href="app_8c.html#a424e6fc7189fa7a8a66b06480239043b" target="_top" xlink:title=" ">
<polygon fill="white" stroke="#666666" points="450.25,-373.75 353.25,-373.75 353.25,-353 450.25,-353 450.25,-373.75"/>
<text text-anchor="middle" x="401.75" y="-360.25" font-family="Helvetica,sans-Serif" font-size="10.00">wrap_w2c__f263</text>
</a>
</g>
</g>
<!-- Node2&#45;&gt;Node10 -->
<g id="edge10_Node000002_Node000010" class="edge">
<title>Node2&#45;&gt;Node10</title>
<g id="a_edge10_Node000002_Node000010"><a xlink:title=" ">
<path fill="none" stroke="#63b8ff" d="M474.53,-365.84C466.64,-365.57 458.39,-365.29 450.41,-365.01"/>
<polygon fill="#63b8ff" stroke="#63b8ff" points="474.15,-369.33 484.26,-366.18 474.39,-362.34 474.15,-369.33"/>
</a>
</g>
</g>
<!-- Node4 -->
<g id="Node000004" class="node">
<title>Node4</title>
<g id="a_Node000004"><a xlink:href="app_8c.html#a54f194530158831aa826ddabfd869e3f" target="_top" xlink:title=" ">
<polygon fill="white" stroke="#666666" points="317.25,-454.75 220.25,-454.75 220.25,-434 317.25,-434 317.25,-454.75"/>
<text text-anchor="middle" x="268.75" y="-441.25" font-family="Helvetica,sans-Serif" font-size="10.00">wrap_w2c__f270</text>
</a>
</g>
</g>
<!-- Node3&#45;&gt;Node4 -->
<g id="edge3_Node000003_Node000004" class="edge">
<title>Node3&#45;&gt;Node4</title>
<g id="a_edge3_Node000003_Node000004"><a xlink:title=" ">
<path fill="none" stroke="#63b8ff" d="M356.2,-444.38C343.78,-444.38 330.25,-444.38 317.65,-444.38"/>
<polygon fill="#63b8ff" stroke="#63b8ff" points="356.18,-447.88 366.18,-444.38 356.18,-440.88 356.18,-447.88"/>
</a>
</g>
</g>
<!-- Node6 -->
<g id="Node000006" class="node">
<title>Node6</title>
<g id="a_Node000006"><a xlink:href="app_8c.html#ac863989691d4c389f80374209c220171" target="_top" xlink:title=" ">
<polygon fill="white" stroke="#666666" points="167,-329.75 104.5,-329.75 104.5,-309 167,-309 167,-329.75"/>
<text text-anchor="middle" x="135.75" y="-316.25" font-family="Helvetica,sans-Serif" font-size="10.00">w2c__c_0</text>
</a>
</g>
</g>
<!-- Node5&#45;&gt;Node6 -->
<g id="edge5_Node000005_Node000006" class="edge">
<title>Node5&#45;&gt;Node6</title>
<g id="a_edge5_Node000005_Node000006"><a xlink:title=" ">
<path fill="none" stroke="#63b8ff" d="M223.53,-306.13C204.97,-308.96 183.86,-312.18 167.1,-314.74"/>
<polygon fill="#63b8ff" stroke="#63b8ff" points="223.84,-309.62 233.2,-304.65 222.78,-302.7 223.84,-309.62"/>
</a>
</g>
</g>
<!-- Node8 -->
<g id="Node000008" class="node">
<title>Node8</title>
<g id="a_Node000008"><a xlink:href="app_8c.html#a8f64ccad6c506a1ca514ba4f43e5211c" target="_top" xlink:title=" ">
<polygon fill="white" stroke="#666666" points="184.25,-290.75 87.25,-290.75 87.25,-270 184.25,-270 184.25,-290.75"/>
<text text-anchor="middle" x="135.75" y="-277.25" font-family="Helvetica,sans-Serif" font-size="10.00">wrap_w2c__f367</text>
</a>
</g>
</g>
<!-- Node5&#45;&gt;Node8 -->
<g id="edge7_Node000005_Node000008" class="edge">
<title>Node5&#45;&gt;Node8</title>
<g id="a_edge7_Node000005_Node000008"><a xlink:title=" ">
<path fill="none" stroke="#63b8ff" d="M223.58,-292.97C211.06,-291.15 197.38,-289.17 184.65,-287.32"/>
<polygon fill="#63b8ff" stroke="#63b8ff" points="222.8,-296.39 233.2,-294.36 223.8,-289.46 222.8,-296.39"/>
</a>
</g>
</g>
<!-- Node7 -->
<g id="Node000007" class="node">
<title>Node7</title>
<g id="a_Node000007"><a xlink:href="app_8c.html#ab1e039392ea68017ab8a6063263b147d" target="_top" xlink:title=" ">
<polygon fill="white" stroke="#666666" points="51.25,-329.75 0,-329.75 0,-309 51.25,-309 51.25,-329.75"/>
<text text-anchor="middle" x="25.62" y="-316.25" font-family="Helvetica,sans-Serif" font-size="10.00">w2c__c</text>
</a>
</g>
</g>
<!-- Node6&#45;&gt;Node7 -->
<g id="edge6_Node000006_Node000007" class="edge">
<title>Node6&#45;&gt;Node7</title>
<g id="a_edge6_Node000006_Node000007"><a xlink:title=" ">
<path fill="none" stroke="#63b8ff" d="M92.72,-319.38C78.81,-319.38 63.78,-319.38 51.57,-319.38"/>
<polygon fill="#63b8ff" stroke="#63b8ff" points="92.54,-322.88 102.54,-319.38 92.54,-315.88 92.54,-322.88"/>
</a>
</g>
</g>
<!-- Node9&#45;&gt;Node5 -->
<g id="edge9_Node000009_Node000005" class="edge">
<title>Node9&#45;&gt;Node5</title>
<g id="a_edge9_Node000009_Node000005"><a xlink:title=" ">
<path fill="none" stroke="#63b8ff" d="M360.15,-386.57C357.77,-385.24 355.44,-383.85 353.25,-382.38 321.84,-361.32 292.22,-327.35 278.21,-310.13"/>
<polygon fill="#63b8ff" stroke="#63b8ff" points="358.33,-389.57 368.85,-390.89 361.45,-383.3 358.33,-389.57"/>
</a>
</g>
</g>
<!-- Node12 -->
<g id="Node000012" class="node">
<title>Node12</title>
<g id="a_Node000012"><a xlink:href="app_8c.html#ad684be748206a2c362ba322e584de4e3" target="_top" xlink:title=" ">
<polygon fill="white" stroke="#666666" points="687,-173.75 590,-173.75 590,-153 687,-153 687,-173.75"/>
<text text-anchor="middle" x="638.5" y="-160.25" font-family="Helvetica,sans-Serif" font-size="10.00">wrap_w2c__f268</text>
</a>
</g>
</g>
<!-- Node11&#45;&gt;Node12 -->
<g id="edge12_Node000011_Node000012" class="edge">
<title>Node11&#45;&gt;Node12</title>
<g id="a_edge12_Node000011_Node000012"><a xlink:title=" ">
<path fill="none" stroke="#63b8ff" d="M725.95,-163.38C713.53,-163.38 700,-163.38 687.4,-163.38"/>
<polygon fill="#63b8ff" stroke="#63b8ff" points="725.93,-166.88 735.93,-163.38 725.93,-159.88 725.93,-166.88"/>
</a>
</g>
</g>
<!-- Node13&#45;&gt;Node13 -->
<g id="edge15_Node000013_Node000013" class="edge">
<title>Node13&#45;&gt;Node13</title>
<g id="a_edge15_Node000013_Node000013"><a xlink:title=" ">
<path fill="none" stroke="#63b8ff" d="M792.33,-128.24C789.57,-132.08 782.63,-134.75 771.5,-134.75 751.15,-134.75 744.8,-125.81 752.43,-117.15"/>
<polygon fill="#63b8ff" stroke="#63b8ff" points="795.83,-127.97 790.81,-118.64 788.92,-129.07 795.83,-127.97"/>
</a>
</g>
</g>
<!-- Node14 -->
<g id="Node000014" class="node">
<title>Node14</title>
<g id="a_Node000014"><a xlink:href="app_8c.html#a4b6f03906ebc7b3623352e4c2ea03d8c" target="_top" xlink:title=" ">
<polygon fill="white" stroke="#666666" points="687,-116.75 590,-116.75 590,-96 687,-96 687,-116.75"/>
<text text-anchor="middle" x="638.5" y="-103.25" font-family="Helvetica,sans-Serif" font-size="10.00">wrap_w2c__f341</text>
</a>
</g>
</g>
<!-- Node13&#45;&gt;Node14 -->
<g id="edge16_Node000013_Node000014" class="edge">
<title>Node13&#45;&gt;Node14</title>
<g id="a_edge16_Node000013_Node000014"><a xlink:title=" ">
<path fill="none" stroke="#63b8ff" d="M725.95,-106.38C713.53,-106.38 700,-106.38 687.4,-106.38"/>
<polygon fill="#63b8ff" stroke="#63b8ff" points="725.93,-109.88 735.93,-106.38 725.93,-102.88 725.93,-109.88"/>
</a>
</g>
</g>
<!-- Node16 -->
<g id="Node000016" class="node">
<title>Node16</title>
<g id="a_Node000016"><a xlink:href="app_8c.html#a6c91036352b0812c461089977fa98847" target="_top" xlink:title=" ">
<polygon fill="white" stroke="#666666" points="554,-262.75 486.25,-262.75 486.25,-242 554,-242 554,-262.75"/>
<text text-anchor="middle" x="520.12" y="-249.25" font-family="Helvetica,sans-Serif" font-size="10.00">w2c__f534</text>
</a>
</g>
</g>
<!-- Node15&#45;&gt;Node16 -->
<g id="edge20_Node000015_Node000016" class="edge">
<title>Node15&#45;&gt;Node16</title>
<g id="a_edge20_Node000015_Node000016"><a xlink:title=" ">
<path fill="none" stroke="#63b8ff" d="M725.87,-257.3C676.6,-256.12 598.43,-254.24 554.3,-253.17"/>
<polygon fill="#63b8ff" stroke="#63b8ff" points="725.53,-260.79 735.61,-257.54 725.7,-253.8 725.53,-260.79"/>
</a>
</g>
</g>
<!-- Node17 -->
<g id="Node000017" class="node">
<title>Node17</title>
<g id="a_Node000017"><a xlink:href="app_8c.html#a619caa51b30d8d3490915ea4ed60128d" target="_top" xlink:title=" ">
<polygon fill="white" stroke="#666666" points="672.38,-287.75 604.62,-287.75 604.62,-267 672.38,-267 672.38,-287.75"/>
<text text-anchor="middle" x="638.5" y="-274.25" font-family="Helvetica,sans-Serif" font-size="10.00">w2c__f565</text>
</a>
</g>
</g>
<!-- Node15&#45;&gt;Node17 -->
<g id="edge23_Node000015_Node000017" class="edge">
<title>Node15&#45;&gt;Node17</title>
<g id="a_edge23_Node000015_Node000017"><a xlink:title=" ">
<path fill="none" stroke="#63b8ff" d="M726.28,-264.79C708.71,-267.34 688.83,-270.22 672.55,-272.58"/>
<polygon fill="#63b8ff" stroke="#63b8ff" points="726.55,-268.29 735.95,-263.39 725.55,-261.36 726.55,-268.29"/>
</a>
</g>
</g>
<!-- Node18 -->
<g id="Node000018" class="node">
<title>Node18</title>
<g id="a_Node000018"><a xlink:href="app_8c.html#abbd2933eb83c4c227c8860883a85fdb0" target="_top" xlink:title=" ">
<polygon fill="white" stroke="#666666" points="687,-344.75 590,-344.75 590,-324 687,-324 687,-344.75"/>
<text text-anchor="middle" x="638.5" y="-331.25" font-family="Helvetica,sans-Serif" font-size="10.00">wrap_w2c__f459</text>
</a>
</g>
</g>
<!-- Node15&#45;&gt;Node18 -->
<g id="edge26_Node000015_Node000018" class="edge">
<title>Node15&#45;&gt;Node18</title>
<g id="a_edge26_Node000015_Node000018"><a xlink:title=" ">
<path fill="none" stroke="#63b8ff" d="M746.96,-275.95C730.63,-287.68 708.12,-302.98 687,-314.38 680.94,-317.65 674.22,-320.76 667.8,-323.51"/>
<polygon fill="#63b8ff" stroke="#63b8ff" points="749.01,-278.78 755.03,-270.06 744.89,-273.13 749.01,-278.78"/>
</a>
</g>
</g>
<!-- Node16&#45;&gt;Node5 -->
<g id="edge21_Node000016_Node000005" class="edge">
<title>Node16&#45;&gt;Node5</title>
<g id="a_edge21_Node000016_Node000005"><a xlink:title=" ">
<path fill="none" stroke="#63b8ff" d="M474.49,-260.79C425.22,-270.07 347.06,-284.8 302.93,-293.12"/>
<polygon fill="#63b8ff" stroke="#63b8ff" points="475.09,-264.24 484.26,-258.95 473.79,-257.36 475.09,-264.24"/>
</a>
</g>
</g>
<!-- Node16&#45;&gt;Node16 -->
<g id="edge22_Node000016_Node000016" class="edge">
<title>Node16&#45;&gt;Node16</title>
<g id="a_edge22_Node000016_Node000016"><a xlink:title=" ">
<path fill="none" stroke="#63b8ff" d="M540.95,-274.24C538.19,-278.08 531.25,-280.75 520.12,-280.75 499.78,-280.75 493.42,-271.81 501.05,-263.15"/>
<polygon fill="#63b8ff" stroke="#63b8ff" points="544.46,-273.97 539.44,-264.64 537.54,-275.07 544.46,-273.97"/>
</a>
</g>
</g>
<!-- Node17&#45;&gt;Node2 -->
<g id="edge24_Node000017_Node000002" class="edge">
<title>Node17&#45;&gt;Node2</title>
<g id="a_edge24_Node000017_Node000002"><a xlink:title=" ">
<path fill="none" stroke="#63b8ff" d="M614.68,-295.02C590.96,-313.37 554.59,-341.5 534.91,-356.71"/>
<polygon fill="#63b8ff" stroke="#63b8ff" points="616.73,-297.86 622.5,-288.98 612.44,-292.33 616.73,-297.86"/>
</a>
</g>
</g>
<!-- Node17&#45;&gt;Node17 -->
<g id="edge25_Node000017_Node000017" class="edge">
<title>Node17&#45;&gt;Node17</title>
<g id="a_edge25_Node000017_Node000017"><a xlink:title=" ">
<path fill="none" stroke="#63b8ff" d="M659.33,-299.24C656.57,-303.08 649.63,-305.75 638.5,-305.75 618.15,-305.75 611.8,-296.81 619.43,-288.15"/>
<polygon fill="#63b8ff" stroke="#63b8ff" points="662.83,-298.97 657.81,-289.64 655.92,-300.07 662.83,-298.97"/>
</a>
</g>
</g>
<!-- Node19&#45;&gt;Node19 -->
<g id="edge28_Node000019_Node000019" class="edge">
<title>Node19&#45;&gt;Node19</title>
<g id="a_edge28_Node000019_Node000019"><a xlink:title=" ">
<path fill="none" stroke="#63b8ff" d="M792.33,-71.24C789.57,-75.08 782.63,-77.75 771.5,-77.75 751.15,-77.75 744.8,-68.81 752.43,-60.15"/>
<polygon fill="#63b8ff" stroke="#63b8ff" points="795.83,-70.97 790.81,-61.64 788.92,-72.07 795.83,-70.97"/>
</a>
</g>
</g>
<!-- Node20 -->
<g id="Node000020" class="node">
<title>Node20</title>
<g id="a_Node000020"><a xlink:href="app_8c.html#a810668da6a4bac2a6bb6b48a06731447" target="_top" xlink:title=" ">
<polygon fill="white" stroke="#666666" points="687,-59.75 590,-59.75 590,-39 687,-39 687,-59.75"/>
<text text-anchor="middle" x="638.5" y="-46.25" font-family="Helvetica,sans-Serif" font-size="10.00">wrap_w2c__f564</text>
</a>
</g>
</g>
<!-- Node19&#45;&gt;Node20 -->
<g id="edge29_Node000019_Node000020" class="edge">
<title>Node19&#45;&gt;Node20</title>
<g id="a_edge29_Node000019_Node000020"><a xlink:title=" ">
<path fill="none" stroke="#63b8ff" d="M725.95,-49.38C713.53,-49.38 700,-49.38 687.4,-49.38"/>
<polygon fill="#63b8ff" stroke="#63b8ff" points="725.93,-52.88 735.93,-49.38 725.93,-45.88 725.93,-52.88"/>
</a>
</g>
</g>
</g>
</svg>
