<?xml version="1.0" encoding="UTF-8" standalone="no"?>
<!DOCTYPE svg PUBLIC "-//W3C//DTD SVG 1.1//EN"
 "http://www.w3.org/Graphics/SVG/1.1/DTD/svg11.dtd">
<!-- Generated by graphviz version 12.2.1 (0)
 -->
<!-- Title: w2c__f513 Pages: 1 -->
<svg width="816pt" height="1047pt"
 viewBox="0.00 0.00 815.50 1046.91" xmlns="http://www.w3.org/2000/svg" xmlns:xlink="http://www.w3.org/1999/xlink">
<g id="graph0" class="graph" transform="scale(1 1) rotate(0) translate(4 1042.91)">
<title>w2c__f513</title>
<!-- Node1 -->
<g id="Node000001" class="node">
<title>Node1</title>
<g id="a_Node000001"><a xlink:title=" ">
<polygon fill="#999999" stroke="#666666" points="67.75,-306.75 0,-306.75 0,-286 67.75,-286 67.75,-306.75"/>
<text text-anchor="middle" x="33.88" y="-293.25" font-family="Helvetica,sans-Serif" font-size="10.00">w2c__f513</text>
</a>
</g>
</g>
<!-- Node2 -->
<g id="Node000002" class="node">
<title>Node2</title>
<g id="a_Node000002"><a xlink:href="app_8c.html#a658337db78eec94477bfcb680a46b5fa" target="_top" xlink:title=" ">
<polygon fill="white" stroke="#666666" points="171.5,-1011.75 103.75,-1011.75 103.75,-991 171.5,-991 171.5,-1011.75"/>
<text text-anchor="middle" x="137.62" y="-998.25" font-family="Helvetica,sans-Serif" font-size="10.00">w2c__f243</text>
</a>
</g>
</g>
<!-- Node1&#45;&gt;Node2 -->
<g id="edge1_Node000001_Node000002" class="edge">
<title>Node1&#45;&gt;Node2</title>
<g id="a_edge1_Node000001_Node000002"><a xlink:title=" ">
<path fill="none" stroke="#63b8ff" d="M34.79,-306.93C34.32,-383.64 34.31,-856.24 103.75,-977.38 104.98,-979.52 106.48,-981.52 108.17,-983.39"/>
<polygon fill="#63b8ff" stroke="#63b8ff" points="105.44,-985.65 115.25,-989.65 110.08,-980.41 105.44,-985.65"/>
</a>
</g>
</g>
<!-- Node3 -->
<g id="Node000003" class="node">
<title>Node3</title>
<g id="a_Node000003"><a xlink:href="app_8c.html#a34d18545510c7604d64db5651af2a253" target="_top" xlink:title=" ">
<polygon fill="white" stroke="#666666" points="276,-1030.75 208.25,-1030.75 208.25,-1010 276,-1010 276,-1030.75"/>
<text text-anchor="middle" x="242.12" y="-1017.25" font-family="Helvetica,sans-Serif" font-size="10.00">w2c__f332</text>
</a>
</g>
</g>
<!-- Node1&#45;&gt;Node3 -->
<g id="edge12_Node000001_Node000003" class="edge">
<title>Node1&#45;&gt;Node3</title>
<g id="a_edge12_Node000001_Node000003"><a xlink:title=" ">
<path fill="none" stroke="#63b8ff" d="M35.05,-307.19C36.53,-393.6 48.46,-970.1 103.75,-1020.38 128.78,-1043.14 168.26,-1040.67 198.49,-1033.95"/>
<polygon fill="#63b8ff" stroke="#63b8ff" points="199.23,-1037.37 208.1,-1031.57 197.55,-1030.57 199.23,-1037.37"/>
</a>
</g>
</g>
<!-- Node4 -->
<g id="Node000004" class="node">
<title>Node4</title>
<g id="a_Node000004"><a xlink:href="app_8c.html#a03fa34d93d32a3ee40dfc2d840730111" target="_top" xlink:title=" ">
<polygon fill="white" stroke="#666666" points="701.5,-363.75 633.75,-363.75 633.75,-343 701.5,-343 701.5,-363.75"/>
<text text-anchor="middle" x="667.62" y="-350.25" font-family="Helvetica,sans-Serif" font-size="10.00">w2c__f262</text>
</a>
</g>
</g>
<!-- Node1&#45;&gt;Node4 -->
<g id="edge3_Node000001_Node000004" class="edge">
<title>Node1&#45;&gt;Node4</title>
<g id="a_edge3_Node000001_Node000004"><a xlink:title=" ">
<path fill="none" stroke="#63b8ff" d="M42.17,-285.68C53.62,-269.58 77.26,-239.04 103.75,-220.38 157.78,-182.29 175.02,-163.38 241.12,-163.38 241.12,-163.38 241.12,-163.38 451.38,-163.38 521.46,-163.38 543.62,-180.25 595.5,-227.38 612.56,-242.87 641.7,-300.87 656.84,-332.49"/>
<polygon fill="#63b8ff" stroke="#63b8ff" points="653.64,-333.92 661.09,-341.46 659.97,-330.92 653.64,-333.92"/>
</a>
</g>
</g>
<!-- Node7 -->
<g id="Node000007" class="node">
<title>Node7</title>
<g id="a_Node000007"><a xlink:href="app_8c.html#aa0030424238c18279b4e86b3772151fa" target="_top" xlink:title=" ">
<polygon fill="white" stroke="#666666" points="171.5,-249.75 103.75,-249.75 103.75,-229 171.5,-229 171.5,-249.75"/>
<text text-anchor="middle" x="137.62" y="-236.25" font-family="Helvetica,sans-Serif" font-size="10.00">w2c__f305</text>
</a>
</g>
</g>
<!-- Node1&#45;&gt;Node7 -->
<g id="edge6_Node000001_Node000007" class="edge">
<title>Node1&#45;&gt;Node7</title>
<g id="a_edge6_Node000001_Node000007"><a xlink:title=" ">
<path fill="none" stroke="#63b8ff" d="M54.01,-285.65C69.12,-277.19 90.45,-265.24 107.65,-255.6"/>
<polygon fill="#63b8ff" stroke="#63b8ff" points="108.89,-258.92 115.91,-250.98 105.47,-252.82 108.89,-258.92"/>
</a>
</g>
</g>
<!-- Node9 -->
<g id="Node000009" class="node">
<title>Node9</title>
<g id="a_Node000009"><a xlink:href="app_8c.html#a25127e7223ad1048bed344feb10b4333" target="_top" xlink:title=" ">
<polygon fill="white" stroke="#666666" points="380.5,-97.75 312.75,-97.75 312.75,-77 380.5,-77 380.5,-97.75"/>
<text text-anchor="middle" x="346.62" y="-84.25" font-family="Helvetica,sans-Serif" font-size="10.00">w2c__f327</text>
</a>
</g>
</g>
<!-- Node1&#45;&gt;Node9 -->
<g id="edge9_Node000001_Node000009" class="edge">
<title>Node1&#45;&gt;Node9</title>
<g id="a_edge9_Node000001_Node000009"><a xlink:title=" ">
<path fill="none" stroke="#63b8ff" d="M35.18,-285.79C36.73,-253.49 46.2,-155.73 103.75,-111.38 160.46,-67.67 248.24,-71.35 301,-78.81"/>
<polygon fill="#63b8ff" stroke="#63b8ff" points="300.43,-82.26 310.85,-80.32 301.49,-75.34 300.43,-82.26"/>
</a>
</g>
</g>
<!-- Node10 -->
<g id="Node000010" class="node">
<title>Node10</title>
<g id="a_Node000010"><a xlink:href="app_8c.html#a800df00ef236c6d6affc3c661b37e3ad" target="_top" xlink:title=" ">
<polygon fill="white" stroke="#666666" points="701.5,-268.75 633.75,-268.75 633.75,-248 701.5,-248 701.5,-268.75"/>
<text text-anchor="middle" x="667.62" y="-255.25" font-family="Helvetica,sans-Serif" font-size="10.00">w2c__f487</text>
</a>
</g>
</g>
<!-- Node1&#45;&gt;Node10 -->
<g id="edge66_Node000001_Node000010" class="edge">
<title>Node1&#45;&gt;Node10</title>
<g id="a_edge66_Node000001_Node000010"><a xlink:title=" ">
<path fill="none" stroke="#63b8ff" d="M36.45,-285.78C41.14,-258.34 57.63,-184.64 103.75,-149.38 152.99,-111.73 179.14,-125.38 241.12,-125.38 241.12,-125.38 241.12,-125.38 451.38,-125.38 516.31,-125.38 541.14,-113.85 595.5,-149.38 627.67,-170.4 648.49,-211.59 658.84,-236.88"/>
<polygon fill="#63b8ff" stroke="#63b8ff" points="655.55,-238.08 662.42,-246.14 662.08,-235.55 655.55,-238.08"/>
</a>
</g>
</g>
<!-- Node11 -->
<g id="Node000011" class="node">
<title>Node11</title>
<g id="a_Node000011"><a xlink:href="app_8c.html#a986f1214d53a515b2b887b8f988fa6a1" target="_top" xlink:title=" ">
<polygon fill="white" stroke="#666666" points="380.5,-325.75 312.75,-325.75 312.75,-305 380.5,-305 380.5,-325.75"/>
<text text-anchor="middle" x="346.62" y="-312.25" font-family="Helvetica,sans-Serif" font-size="10.00">w2c__f365</text>
</a>
</g>
</g>
<!-- Node1&#45;&gt;Node11 -->
<g id="edge13_Node000001_Node000011" class="edge">
<title>Node1&#45;&gt;Node11</title>
<g id="a_edge13_Node000001_Node000011"><a xlink:title=" ">
<path fill="none" stroke="#63b8ff" d="M68.13,-298.41C124.44,-301.85 238.54,-308.83 301.48,-312.68"/>
<polygon fill="#63b8ff" stroke="#63b8ff" points="300.9,-316.15 311.1,-313.26 301.33,-309.16 300.9,-316.15"/>
</a>
</g>
</g>
<!-- Node16 -->
<g id="Node000016" class="node">
<title>Node16</title>
<g id="a_Node000016"><a xlink:href="app_8c.html#a0e0dad0ebc52e45eeff2e1b5d8389ea4" target="_top" xlink:title=" ">
<polygon fill="white" stroke="#666666" points="701.5,-746.75 633.75,-746.75 633.75,-726 701.5,-726 701.5,-746.75"/>
<text text-anchor="middle" x="667.62" y="-733.25" font-family="Helvetica,sans-Serif" font-size="10.00">w2c__f534</text>
</a>
</g>
</g>
<!-- Node1&#45;&gt;Node16 -->
<g id="edge67_Node000001_Node000016" class="edge">
<title>Node1&#45;&gt;Node16</title>
<g id="a_edge67_Node000001_Node000016"><a xlink:title=" ">
<path fill="none" stroke="#63b8ff" d="M35.94,-307.03C44.53,-389.68 105.37,-925.38 241.12,-925.38 241.12,-925.38 241.12,-925.38 451.38,-925.38 517.62,-925.38 544.59,-929.76 595.5,-887.38 636.18,-853.51 655.02,-791.09 662.47,-758.11"/>
<polygon fill="#63b8ff" stroke="#63b8ff" points="665.86,-759.02 664.49,-748.52 659.01,-757.59 665.86,-759.02"/>
</a>
</g>
</g>
<!-- Node17 -->
<g id="Node000017" class="node">
<title>Node17</title>
<g id="a_Node000017"><a xlink:href="app_8c.html#ad4b5d3581d609cdf4a419347fe33bfef" target="_top" xlink:title=" ">
<polygon fill="white" stroke="#666666" points="171.5,-59.75 103.75,-59.75 103.75,-39 171.5,-39 171.5,-59.75"/>
<text text-anchor="middle" x="137.62" y="-46.25" font-family="Helvetica,sans-Serif" font-size="10.00">w2c__f368</text>
</a>
</g>
</g>
<!-- Node1&#45;&gt;Node17 -->
<g id="edge24_Node000001_Node000017" class="edge">
<title>Node1&#45;&gt;Node17</title>
<g id="a_edge24_Node000001_Node000017"><a xlink:title=" ">
<path fill="none" stroke="#63b8ff" d="M35.81,-285.56C39.23,-251.35 53.61,-143.62 103.75,-73.38 105.37,-71.11 107.26,-68.97 109.32,-66.98"/>
<polygon fill="#63b8ff" stroke="#63b8ff" points="111.09,-70.06 116.58,-60.99 106.63,-64.66 111.09,-70.06"/>
</a>
</g>
</g>
<!-- Node18 -->
<g id="Node000018" class="node">
<title>Node18</title>
<g id="a_Node000018"><a xlink:href="app_8c.html#a5ff0d4869649f9c31836e5bc32fbc9c9" target="_top" xlink:title=" ">
<polygon fill="white" stroke="#666666" points="171.5,-20.75 103.75,-20.75 103.75,0 171.5,0 171.5,-20.75"/>
<text text-anchor="middle" x="137.62" y="-7.25" font-family="Helvetica,sans-Serif" font-size="10.00">w2c__f390</text>
</a>
</g>
</g>
<!-- Node1&#45;&gt;Node18 -->
<g id="edge25_Node000001_Node000018" class="edge">
<title>Node1&#45;&gt;Node18</title>
<g id="a_edge25_Node000001_Node000018"><a xlink:title=" ">
<path fill="none" stroke="#63b8ff" d="M34.89,-285.52C35.46,-246.82 42.03,-113.48 103.75,-30.38 104.16,-29.82 104.59,-29.28 105.04,-28.75"/>
<polygon fill="#63b8ff" stroke="#63b8ff" points="107.24,-31.48 112.39,-22.23 102.59,-26.25 107.24,-31.48"/>
</a>
</g>
</g>
<!-- Node20 -->
<g id="Node000020" class="node">
<title>Node20</title>
<g id="a_Node000020"><a xlink:href="app_8c.html#a0c562e3dfa1b94ed5c252e9e3292cdd9" target="_top" xlink:title=" ">
<polygon fill="white" stroke="#666666" points="171.5,-496.75 103.75,-496.75 103.75,-476 171.5,-476 171.5,-496.75"/>
<text text-anchor="middle" x="137.62" y="-483.25" font-family="Helvetica,sans-Serif" font-size="10.00">w2c__f398</text>
</a>
</g>
</g>
<!-- Node1&#45;&gt;Node20 -->
<g id="edge27_Node000001_Node000020" class="edge">
<title>Node1&#45;&gt;Node20</title>
<g id="a_edge27_Node000001_Node000020"><a xlink:title=" ">
<path fill="none" stroke="#63b8ff" d="M40.64,-307.13C57.01,-337.7 104,-425.45 125.56,-465.72"/>
<polygon fill="#63b8ff" stroke="#63b8ff" points="122.41,-467.24 130.21,-474.4 128.58,-463.93 122.41,-467.24"/>
</a>
</g>
</g>
<!-- Node37 -->
<g id="Node000037" class="node">
<title>Node37</title>
<g id="a_Node000037"><a xlink:href="app_8c.html#a22805979cc49b429d0fb4b7435774648" target="_top" xlink:title=" ">
<polygon fill="white" stroke="#666666" points="276.75,-973.75 207.5,-973.75 207.5,-953 276.75,-953 276.75,-973.75"/>
<text text-anchor="middle" x="242.12" y="-960.25" font-family="Helvetica,sans-Serif" font-size="10.00">wasm_sqrt</text>
</a>
</g>
</g>
<!-- Node1&#45;&gt;Node37 -->
<g id="edge68_Node000001_Node000037" class="edge">
<title>Node1&#45;&gt;Node37</title>
<g id="a_edge68_Node000001_Node000037"><a xlink:title=" ">
<path fill="none" stroke="#63b8ff" d="M35.26,-307.16C38.23,-387.5 58.58,-891.11 103.75,-939.38 126.78,-963.98 165.39,-968.93 195.82,-968.31"/>
<polygon fill="#63b8ff" stroke="#63b8ff" points="195.68,-971.82 205.52,-967.9 195.38,-964.83 195.68,-971.82"/>
</a>
</g>
</g>
<!-- Node2&#45;&gt;Node3 -->
<g id="edge2_Node000002_Node000003" class="edge">
<title>Node2&#45;&gt;Node3</title>
<g id="a_edge2_Node000002_Node000003"><a xlink:title=" ">
<path fill="none" stroke="#63b8ff" d="M171.9,-1007.54C179.86,-1009.02 188.48,-1010.62 196.85,-1012.17"/>
<polygon fill="#63b8ff" stroke="#63b8ff" points="196.05,-1015.58 206.52,-1013.96 197.33,-1008.7 196.05,-1015.58"/>
</a>
</g>
</g>
<!-- Node5 -->
<g id="Node000005" class="node">
<title>Node5</title>
<g id="a_Node000005"><a xlink:href="app_8c.html#a16207b5f7a97b0ecfddd231452c5aa7e" target="_top" xlink:title=" ">
<polygon fill="white" stroke="#666666" points="807.5,-343.75 739.75,-343.75 739.75,-323 807.5,-323 807.5,-343.75"/>
<text text-anchor="middle" x="773.62" y="-330.25" font-family="Helvetica,sans-Serif" font-size="10.00">w2c__f263</text>
</a>
</g>
</g>
<!-- Node4&#45;&gt;Node5 -->
<g id="edge4_Node000004_Node000005" class="edge">
<title>Node4&#45;&gt;Node5</title>
<g id="a_edge4_Node000004_Node000005"><a xlink:title=" ">
<path fill="none" stroke="#63b8ff" d="M701.82,-346.99C710.26,-345.37 719.47,-343.6 728.37,-341.89"/>
<polygon fill="#63b8ff" stroke="#63b8ff" points="728.75,-345.38 737.91,-340.05 727.42,-338.5 728.75,-345.38"/>
</a>
</g>
</g>
<!-- Node6 -->
<g id="Node000006" class="node">
<title>Node6</title>
<g id="a_Node000006"><a xlink:href="app_8c.html#a71bcbce7faf780cd081af3fa82d6da97" target="_top" xlink:title=" ">
<polygon fill="white" stroke="#666666" points="807.5,-382.75 739.75,-382.75 739.75,-362 807.5,-362 807.5,-382.75"/>
<text text-anchor="middle" x="773.62" y="-369.25" font-family="Helvetica,sans-Serif" font-size="10.00">w2c__f437</text>
</a>
</g>
</g>
<!-- Node4&#45;&gt;Node6 -->
<g id="edge5_Node000004_Node000006" class="edge">
<title>Node4&#45;&gt;Node6</title>
<g id="a_edge5_Node000004_Node000006"><a xlink:title=" ">
<path fill="none" stroke="#63b8ff" d="M701.82,-359.44C710.17,-360.96 719.26,-362.63 728.07,-364.24"/>
<polygon fill="#63b8ff" stroke="#63b8ff" points="727.44,-367.68 737.9,-366.03 728.69,-360.79 727.44,-367.68"/>
</a>
</g>
</g>
<!-- Node7&#45;&gt;Node4 -->
<g id="edge7_Node000007_Node000004" class="edge">
<title>Node7&#45;&gt;Node4</title>
<g id="a_edge7_Node000007_Node000004"><a xlink:title=" ">
<path fill="none" stroke="#63b8ff" d="M170.83,-228.56C182.27,-225.24 195.33,-222.02 207.5,-220.38 238,-216.25 246.04,-218.31 276.75,-220.38 419.38,-229.95 471.31,-192.59 595.5,-263.38 623.64,-279.42 644.73,-311.4 656.38,-332.6"/>
<polygon fill="#63b8ff" stroke="#63b8ff" points="653.15,-333.98 660.89,-341.22 659.35,-330.73 653.15,-333.98"/>
</a>
</g>
</g>
<!-- Node8 -->
<g id="Node000008" class="node">
<title>Node8</title>
<g id="a_Node000008"><a xlink:href="app_8c.html#abc21e85cf3aaa918b50fa3e8b54e25e0" target="_top" xlink:title=" ">
<polygon fill="white" stroke="#666666" points="276,-249.75 208.25,-249.75 208.25,-229 276,-229 276,-249.75"/>
<text text-anchor="middle" x="242.12" y="-236.25" font-family="Helvetica,sans-Serif" font-size="10.00">w2c__f565</text>
</a>
</g>
</g>
<!-- Node7&#45;&gt;Node8 -->
<g id="edge8_Node000007_Node000008" class="edge">
<title>Node7&#45;&gt;Node8</title>
<g id="a_edge8_Node000007_Node000008"><a xlink:title=" ">
<path fill="none" stroke="#63b8ff" d="M171.9,-239.38C179.77,-239.38 188.28,-239.38 196.56,-239.38"/>
<polygon fill="#63b8ff" stroke="#63b8ff" points="196.5,-242.88 206.5,-239.38 196.5,-235.88 196.5,-242.88"/>
</a>
</g>
</g>
<!-- Node9&#45;&gt;Node10 -->
<g id="edge10_Node000009_Node000010" class="edge">
<title>Node9&#45;&gt;Node10</title>
<g id="a_edge10_Node000009_Node000010"><a xlink:title=" ">
<path fill="none" stroke="#63b8ff" d="M380.76,-81.09C431.81,-73.32 530.57,-66.16 595.5,-111.38 638,-140.97 656.06,-203.17 662.92,-236.38"/>
<polygon fill="#63b8ff" stroke="#63b8ff" points="659.46,-236.9 664.75,-246.08 666.33,-235.6 659.46,-236.9"/>
</a>
</g>
</g>
<!-- Node10&#45;&gt;Node6 -->
<g id="edge11_Node000010_Node000006" class="edge">
<title>Node10&#45;&gt;Node6</title>
<g id="a_edge11_Node000010_Node000006"><a xlink:title=" ">
<path fill="none" stroke="#63b8ff" d="M674.79,-268.99C685.96,-287.57 711.05,-326.44 739.75,-352.38 740.81,-353.33 741.92,-354.27 743.07,-355.18"/>
<polygon fill="#63b8ff" stroke="#63b8ff" points="740.87,-357.92 751.07,-360.8 744.89,-352.19 740.87,-357.92"/>
</a>
</g>
</g>
<!-- Node12 -->
<g id="Node000012" class="node">
<title>Node12</title>
<g id="a_Node000012"><a xlink:href="app_8c.html#a14e021d2f1b59e04757852f66bff1044" target="_top" xlink:title=" ">
<polygon fill="white" stroke="#666666" points="484.25,-392.75 416.5,-392.75 416.5,-372 484.25,-372 484.25,-392.75"/>
<text text-anchor="middle" x="450.38" y="-379.25" font-family="Helvetica,sans-Serif" font-size="10.00">w2c__f511</text>
</a>
</g>
</g>
<!-- Node11&#45;&gt;Node12 -->
<g id="edge14_Node000011_Node000012" class="edge">
<title>Node11&#45;&gt;Node12</title>
<g id="a_edge14_Node000011_Node000012"><a xlink:title=" ">
<path fill="none" stroke="#63b8ff" d="M365.82,-326.21C370.62,-329.14 375.78,-332.33 380.5,-335.38 395.33,-344.94 411.66,-356.05 424.69,-365.07"/>
<polygon fill="#63b8ff" stroke="#63b8ff" points="422.49,-367.8 432.7,-370.64 426.48,-362.05 422.49,-367.8"/>
</a>
</g>
</g>
<!-- Node13 -->
<g id="Node000013" class="node">
<title>Node13</title>
<g id="a_Node000013"><a xlink:href="app_8c.html#aa58fd7f1d3aab8404d7f71d334a8a108" target="_top" xlink:title=" ">
<polygon fill="white" stroke="#666666" points="591.75,-401.75 524,-401.75 524,-381 591.75,-381 591.75,-401.75"/>
<text text-anchor="middle" x="557.88" y="-388.25" font-family="Helvetica,sans-Serif" font-size="10.00">w2c__f211</text>
</a>
</g>
</g>
<!-- Node12&#45;&gt;Node13 -->
<g id="edge15_Node000012_Node000013" class="edge">
<title>Node12&#45;&gt;Node13</title>
<g id="a_edge15_Node000012_Node000013"><a xlink:title=" ">
<path fill="none" stroke="#63b8ff" d="M484.47,-385.2C493.22,-385.94 502.81,-386.76 512.08,-387.55"/>
<polygon fill="#63b8ff" stroke="#63b8ff" points="511.77,-391.04 522.03,-388.4 512.36,-384.07 511.77,-391.04"/>
</a>
</g>
</g>
<!-- Node15 -->
<g id="Node000015" class="node">
<title>Node15</title>
<g id="a_Node000015"><a xlink:href="app_8c.html#a8c90e9acf2d5915eb0476bc13964c4db" target="_top" xlink:title=" ">
<polygon fill="white" stroke="#666666" points="591.75,-440.75 524,-440.75 524,-420 591.75,-420 591.75,-440.75"/>
<text text-anchor="middle" x="557.88" y="-427.25" font-family="Helvetica,sans-Serif" font-size="10.00">w2c__f345</text>
</a>
</g>
</g>
<!-- Node12&#45;&gt;Node15 -->
<g id="edge19_Node000012_Node000015" class="edge">
<title>Node12&#45;&gt;Node15</title>
<g id="a_edge19_Node000012_Node000015"><a xlink:title=" ">
<path fill="none" stroke="#63b8ff" d="M475.05,-393.15C489.17,-399.57 507.33,-407.83 522.95,-414.94"/>
<polygon fill="#63b8ff" stroke="#63b8ff" points="521.35,-418.06 531.9,-419.01 524.25,-411.68 521.35,-418.06"/>
</a>
</g>
</g>
<!-- Node13&#45;&gt;Node4 -->
<g id="edge16_Node000013_Node000004" class="edge">
<title>Node13&#45;&gt;Node4</title>
<g id="a_edge16_Node000013_Node000004"><a xlink:title=" ">
<path fill="none" stroke="#63b8ff" d="M589.46,-380.59C600.61,-376.66 613.4,-372.14 625.33,-367.94"/>
<polygon fill="#63b8ff" stroke="#63b8ff" points="626.27,-371.32 634.53,-364.69 623.94,-364.72 626.27,-371.32"/>
</a>
</g>
</g>
<!-- Node14 -->
<g id="Node000014" class="node">
<title>Node14</title>
<g id="a_Node000014"><a xlink:href="app_8c.html#a31b08a294227a9fc0a529e66ccd915dc" target="_top" xlink:title=" ">
<polygon fill="white" stroke="#666666" points="701.5,-402.75 633.75,-402.75 633.75,-382 701.5,-382 701.5,-402.75"/>
<text text-anchor="middle" x="667.62" y="-389.25" font-family="Helvetica,sans-Serif" font-size="10.00">w2c__f325</text>
</a>
</g>
</g>
<!-- Node13&#45;&gt;Node14 -->
<g id="edge17_Node000013_Node000014" class="edge">
<title>Node13&#45;&gt;Node14</title>
<g id="a_edge17_Node000013_Node000014"><a xlink:title=" ">
<path fill="none" stroke="#63b8ff" d="M592.08,-391.68C601.5,-391.77 611.92,-391.87 621.91,-391.96"/>
<polygon fill="#63b8ff" stroke="#63b8ff" points="621.8,-395.46 631.83,-392.05 621.86,-388.46 621.8,-395.46"/>
</a>
</g>
</g>
<!-- Node14&#45;&gt;Node6 -->
<g id="edge18_Node000014_Node000006" class="edge">
<title>Node14&#45;&gt;Node6</title>
<g id="a_edge18_Node000014_Node000006"><a xlink:title=" ">
<path fill="none" stroke="#63b8ff" d="M701.82,-385.99C710.26,-384.37 719.47,-382.6 728.37,-380.89"/>
<polygon fill="#63b8ff" stroke="#63b8ff" points="728.75,-384.38 737.91,-379.05 727.42,-377.5 728.75,-384.38"/>
</a>
</g>
</g>
<!-- Node15&#45;&gt;Node4 -->
<g id="edge20_Node000015_Node000004" class="edge">
<title>Node15&#45;&gt;Node4</title>
<g id="a_edge20_Node000015_Node000004"><a xlink:title=" ">
<path fill="none" stroke="#63b8ff" d="M581.23,-419.56C586.11,-416.82 591.11,-413.7 595.5,-410.38 613.77,-396.5 613.35,-387.41 631.5,-373.38 632.99,-372.22 634.55,-371.09 636.15,-369.99"/>
<polygon fill="#63b8ff" stroke="#63b8ff" points="637.69,-373.17 644.29,-364.88 633.96,-367.24 637.69,-373.17"/>
</a>
</g>
</g>
<!-- Node15&#45;&gt;Node10 -->
<g id="edge22_Node000015_Node000010" class="edge">
<title>Node15&#45;&gt;Node10</title>
<g id="a_edge22_Node000015_Node000010"><a xlink:title=" ">
<path fill="none" stroke="#63b8ff" d="M583.66,-419.67C587.96,-417.06 592.13,-413.97 595.5,-410.38 596.72,-409.08 637.6,-321.02 656.82,-279.54"/>
<polygon fill="#63b8ff" stroke="#63b8ff" points="659.95,-281.11 660.98,-270.57 653.6,-278.17 659.95,-281.11"/>
</a>
</g>
</g>
<!-- Node15&#45;&gt;Node14 -->
<g id="edge21_Node000015_Node000014" class="edge">
<title>Node15&#45;&gt;Node14</title>
<g id="a_edge21_Node000015_Node000014"><a xlink:title=" ">
<path fill="none" stroke="#63b8ff" d="M589.46,-419.59C600.61,-415.66 613.4,-411.14 625.33,-406.94"/>
<polygon fill="#63b8ff" stroke="#63b8ff" points="626.27,-410.32 634.53,-403.69 623.94,-403.72 626.27,-410.32"/>
</a>
</g>
</g>
<!-- Node15&#45;&gt;Node16 -->
<g id="edge23_Node000015_Node000016" class="edge">
<title>Node15&#45;&gt;Node16</title>
<g id="a_edge23_Node000015_Node000016"><a xlink:title=" ">
<path fill="none" stroke="#63b8ff" d="M560.46,-441.14C567.47,-487.64 596.89,-670.93 631.5,-716.38 632.01,-717.04 632.55,-717.7 633.11,-718.33"/>
<polygon fill="#63b8ff" stroke="#63b8ff" points="630.54,-720.74 640.43,-724.55 635.08,-715.4 630.54,-720.74"/>
</a>
</g>
</g>
<!-- Node19 -->
<g id="Node000019" class="node">
<title>Node19</title>
<g id="a_Node000019"><a xlink:href="app_8c.html#a9872f12efce372de2036d454b447cf46" target="_top" xlink:title=" ">
<polygon fill="white" stroke="#666666" points="276,-20.75 208.25,-20.75 208.25,0 276,0 276,-20.75"/>
<text text-anchor="middle" x="242.12" y="-7.25" font-family="Helvetica,sans-Serif" font-size="10.00">w2c__f295</text>
</a>
</g>
</g>
<!-- Node18&#45;&gt;Node19 -->
<g id="edge26_Node000018_Node000019" class="edge">
<title>Node18&#45;&gt;Node19</title>
<g id="a_edge26_Node000018_Node000019"><a xlink:title=" ">
<path fill="none" stroke="#63b8ff" d="M171.9,-10.38C179.77,-10.38 188.28,-10.38 196.56,-10.38"/>
<polygon fill="#63b8ff" stroke="#63b8ff" points="196.5,-13.88 206.5,-10.38 196.5,-6.88 196.5,-13.88"/>
</a>
</g>
</g>
<!-- Node20&#45;&gt;Node4 -->
<g id="edge28_Node000020_Node000004" class="edge">
<title>Node20&#45;&gt;Node4</title>
<g id="a_edge28_Node000020_Node000004"><a xlink:title=" ">
<path fill="none" stroke="#63b8ff" d="M143.25,-475.58C152.87,-453.99 176.71,-404.71 207.5,-371.38 246.47,-329.18 258.04,-313.87 312.75,-296.38 427.33,-259.73 570.66,-310.93 633.97,-338.2"/>
<polygon fill="#63b8ff" stroke="#63b8ff" points="632.19,-341.24 642.75,-342.07 635.01,-334.84 632.19,-341.24"/>
</a>
</g>
</g>
<!-- Node20&#45;&gt;Node10 -->
<g id="edge49_Node000020_Node000010" class="edge">
<title>Node20&#45;&gt;Node10</title>
<g id="a_edge49_Node000020_Node000010"><a xlink:title=" ">
<path fill="none" stroke="#63b8ff" d="M139.4,-475.54C142.23,-444.22 154.85,-352.91 207.5,-306.38 325.15,-202.4 531.62,-229.45 622.06,-247.88"/>
<polygon fill="#63b8ff" stroke="#63b8ff" points="621.28,-251.29 631.79,-249.93 622.72,-244.45 621.28,-251.29"/>
</a>
</g>
</g>
<!-- Node20&#45;&gt;Node11 -->
<g id="edge44_Node000020_Node000011" class="edge">
<title>Node20&#45;&gt;Node11</title>
<g id="a_edge44_Node000020_Node000011"><a xlink:title=" ">
<path fill="none" stroke="#63b8ff" d="M171.99,-485.86C203.02,-483.59 248.59,-475.43 276.75,-448.38 314.76,-411.86 280.17,-376.81 312.75,-335.38 313.28,-334.71 313.83,-334.05 314.41,-333.42"/>
<polygon fill="#63b8ff" stroke="#63b8ff" points="316.51,-336.23 321.87,-327.09 311.98,-330.89 316.51,-336.23"/>
</a>
</g>
</g>
<!-- Node20&#45;&gt;Node16 -->
<g id="edge62_Node000020_Node000016" class="edge">
<title>Node20&#45;&gt;Node16</title>
<g id="a_edge62_Node000020_Node000016"><a xlink:title=" ">
<path fill="none" stroke="#63b8ff" d="M138.98,-497.1C141.73,-560.87 164.64,-887.38 345.62,-887.38 345.62,-887.38 345.62,-887.38 451.38,-887.38 516.71,-887.38 542.35,-896.38 595.5,-858.38 630.24,-833.53 650.64,-786 660.12,-758.17"/>
<polygon fill="#63b8ff" stroke="#63b8ff" points="663.44,-759.27 663.17,-748.68 656.78,-757.13 663.44,-759.27"/>
</a>
</g>
</g>
<!-- Node20&#45;&gt;Node20 -->
<g id="edge48_Node000020_Node000020" class="edge">
<title>Node20&#45;&gt;Node20</title>
<g id="a_edge48_Node000020_Node000020"><a xlink:title=" ">
<path fill="none" stroke="#63b8ff" d="M120.91,-497.15C114.22,-505.81 119.79,-514.75 137.62,-514.75 147.1,-514.75 153.11,-512.23 155.66,-508.56"/>
<polygon fill="#63b8ff" stroke="#63b8ff" points="159.14,-508.18 154.52,-498.65 152.19,-508.99 159.14,-508.18"/>
</a>
</g>
</g>
<!-- Node21 -->
<g id="Node000021" class="node">
<title>Node21</title>
<g id="a_Node000021"><a xlink:href="app_8c.html#a689596d504b22560679f02fa17647ac0" target="_top" xlink:title=" ">
<polygon fill="white" stroke="#666666" points="380.5,-745.75 312.75,-745.75 312.75,-725 380.5,-725 380.5,-745.75"/>
<text text-anchor="middle" x="346.62" y="-732.25" font-family="Helvetica,sans-Serif" font-size="10.00">w2c__f276</text>
</a>
</g>
</g>
<!-- Node20&#45;&gt;Node21 -->
<g id="edge29_Node000020_Node000021" class="edge">
<title>Node20&#45;&gt;Node21</title>
<g id="a_edge29_Node000020_Node000021"><a xlink:title=" ">
<path fill="none" stroke="#63b8ff" d="M139.73,-497.1C143.46,-528.18 158.27,-619.4 207.5,-672.38 232.59,-699.37 271.48,-715.67 301.61,-724.91"/>
<polygon fill="#63b8ff" stroke="#63b8ff" points="300.24,-728.15 310.82,-727.58 302.18,-721.43 300.24,-728.15"/>
</a>
</g>
</g>
<!-- Node22 -->
<g id="Node000022" class="node">
<title>Node22</title>
<g id="a_Node000022"><a xlink:href="app_8c.html#a78a17ac0e7e7f4db4d33e1a2e032ed58" target="_top" xlink:title=" ">
<polygon fill="white" stroke="#666666" points="484.25,-668.75 416.5,-668.75 416.5,-648 484.25,-648 484.25,-668.75"/>
<text text-anchor="middle" x="450.38" y="-655.25" font-family="Helvetica,sans-Serif" font-size="10.00">w2c__f387</text>
</a>
</g>
</g>
<!-- Node20&#45;&gt;Node22 -->
<g id="edge47_Node000020_Node000022" class="edge">
<title>Node20&#45;&gt;Node22</title>
<g id="a_edge47_Node000020_Node000022"><a xlink:title=" ">
<path fill="none" stroke="#63b8ff" d="M140.03,-497.24C144.3,-525.35 159.89,-600.59 207.5,-634.38 265.73,-675.69 352.65,-672.88 404.9,-666.22"/>
<polygon fill="#63b8ff" stroke="#63b8ff" points="405.21,-669.71 414.63,-664.87 404.24,-662.77 405.21,-669.71"/>
</a>
</g>
</g>
<!-- Node25 -->
<g id="Node000025" class="node">
<title>Node25</title>
<g id="a_Node000025"><a xlink:href="app_8c.html#ad63b6498cfe22ce747f349eeb23b508f" target="_top" xlink:title=" ">
<polygon fill="white" stroke="#666666" points="703.38,-610.75 631.88,-610.75 631.88,-590 703.38,-590 703.38,-610.75"/>
<text text-anchor="middle" x="667.62" y="-597.25" font-family="Helvetica,sans-Serif" font-size="10.00">wasm_fabs</text>
</a>
</g>
</g>
<!-- Node20&#45;&gt;Node25 -->
<g id="edge65_Node000020_Node000025" class="edge">
<title>Node20&#45;&gt;Node25</title>
<g id="a_edge65_Node000020_Node000025"><a xlink:title=" ">
<path fill="none" stroke="#63b8ff" d="M146.82,-496.89C172.47,-528.48 254.87,-620.38 345.62,-620.38 345.62,-620.38 345.62,-620.38 451.38,-620.38 509.82,-620.38 576.81,-612.97 620.32,-607.18"/>
<polygon fill="#63b8ff" stroke="#63b8ff" points="620.74,-610.65 630.17,-605.83 619.79,-603.72 620.74,-610.65"/>
</a>
</g>
</g>
<!-- Node32 -->
<g id="Node000032" class="node">
<title>Node32</title>
<g id="a_Node000032"><a xlink:href="app_8c.html#abe1f70c7c6938f6dce1f562507454958" target="_top" xlink:title=" ">
<polygon fill="white" stroke="#666666" points="380.5,-364.75 312.75,-364.75 312.75,-344 380.5,-344 380.5,-364.75"/>
<text text-anchor="middle" x="346.62" y="-351.25" font-family="Helvetica,sans-Serif" font-size="10.00">w2c__f371</text>
</a>
</g>
</g>
<!-- Node20&#45;&gt;Node32 -->
<g id="edge45_Node000020_Node000032" class="edge">
<title>Node20&#45;&gt;Node32</title>
<g id="a_edge45_Node000020_Node000032"><a xlink:title=" ">
<path fill="none" stroke="#63b8ff" d="M145.9,-475.65C157.33,-459.52 180.93,-428.94 207.5,-410.38 236.15,-390.36 273.02,-375.87 301.46,-366.66"/>
<polygon fill="#63b8ff" stroke="#63b8ff" points="302.36,-370.04 310.85,-363.72 300.27,-363.36 302.36,-370.04"/>
</a>
</g>
</g>
<!-- Node33 -->
<g id="Node000033" class="node">
<title>Node33</title>
<g id="a_Node000033"><a xlink:href="app_8c.html#aaa5b5afb90b318cc579a08368392f858" target="_top" xlink:title=" ">
<polygon fill="white" stroke="#666666" points="276,-515.75 208.25,-515.75 208.25,-495 276,-495 276,-515.75"/>
<text text-anchor="middle" x="242.12" y="-502.25" font-family="Helvetica,sans-Serif" font-size="10.00">w2c__f530</text>
</a>
</g>
</g>
<!-- Node20&#45;&gt;Node33 -->
<g id="edge50_Node000020_Node000033" class="edge">
<title>Node20&#45;&gt;Node33</title>
<g id="a_edge50_Node000020_Node000033"><a xlink:title=" ">
<path fill="none" stroke="#63b8ff" d="M171.9,-492.54C179.86,-494.02 188.48,-495.62 196.85,-497.17"/>
<polygon fill="#63b8ff" stroke="#63b8ff" points="196.05,-500.58 206.52,-498.96 197.33,-493.7 196.05,-500.58"/>
</a>
</g>
</g>
<!-- Node35 -->
<g id="Node000035" class="node">
<title>Node35</title>
<g id="a_Node000035"><a xlink:href="app_8c.html#a7c6f80e3a58bc541f1aa2c8ec1ce581e" target="_top" xlink:title=" ">
<polygon fill="white" stroke="#666666" points="484.25,-592.75 416.5,-592.75 416.5,-572 484.25,-572 484.25,-592.75"/>
<text text-anchor="middle" x="450.38" y="-579.25" font-family="Helvetica,sans-Serif" font-size="10.00">w2c__f563</text>
</a>
</g>
</g>
<!-- Node20&#45;&gt;Node35 -->
<g id="edge64_Node000020_Node000035" class="edge">
<title>Node20&#45;&gt;Node35</title>
<g id="a_edge64_Node000020_Node000035"><a xlink:title=" ">
<path fill="none" stroke="#63b8ff" d="M156.37,-497.13C170.06,-505.19 189.62,-516.19 207.5,-524.38 252.85,-545.15 264.37,-551.2 312.75,-563.38 342.99,-570.99 377.82,-575.77 404.75,-578.63"/>
<polygon fill="#63b8ff" stroke="#63b8ff" points="404.33,-582.11 414.63,-579.63 405.03,-575.15 404.33,-582.11"/>
</a>
</g>
</g>
<!-- Node36 -->
<g id="Node000036" class="node">
<title>Node36</title>
<g id="a_Node000036"><a xlink:href="app_8c.html#a4df6c4188b55679e160bd428e777400e" target="_top" xlink:title=" ">
<polygon fill="white" stroke="#666666" points="276,-439.75 208.25,-439.75 208.25,-419 276,-419 276,-439.75"/>
<text text-anchor="middle" x="242.12" y="-426.25" font-family="Helvetica,sans-Serif" font-size="10.00">w2c__f546</text>
</a>
</g>
</g>
<!-- Node20&#45;&gt;Node36 -->
<g id="edge63_Node000020_Node000036" class="edge">
<title>Node20&#45;&gt;Node36</title>
<g id="a_edge63_Node000020_Node000036"><a xlink:title=" ">
<path fill="none" stroke="#63b8ff" d="M157.9,-475.65C173.13,-467.19 194.61,-455.24 211.94,-445.6"/>
<polygon fill="#63b8ff" stroke="#63b8ff" points="213.22,-448.9 220.26,-440.98 209.82,-442.78 213.22,-448.9"/>
</a>
</g>
</g>
<!-- Node21&#45;&gt;Node16 -->
<g id="edge42_Node000021_Node000016" class="edge">
<title>Node21&#45;&gt;Node16</title>
<g id="a_edge42_Node000021_Node000016"><a xlink:title=" ">
<path fill="none" stroke="#63b8ff" d="M380.86,-735.48C438.55,-735.66 557.23,-736.03 622.02,-736.24"/>
<polygon fill="#63b8ff" stroke="#63b8ff" points="621.94,-739.73 631.95,-736.27 621.96,-732.73 621.94,-739.73"/>
</a>
</g>
</g>
<!-- Node21&#45;&gt;Node22 -->
<g id="edge30_Node000021_Node000022" class="edge">
<title>Node21&#45;&gt;Node22</title>
<g id="a_edge30_Node000021_Node000022"><a xlink:title=" ">
<path fill="none" stroke="#63b8ff" d="M359.4,-724.74C372.78,-712.85 395.51,-693.32 416.5,-678.38 418.03,-677.28 419.63,-676.19 421.25,-675.11"/>
<polygon fill="#63b8ff" stroke="#63b8ff" points="422.81,-678.26 429.37,-669.94 419.05,-672.36 422.81,-678.26"/>
</a>
</g>
</g>
<!-- Node28 -->
<g id="Node000028" class="node">
<title>Node28</title>
<g id="a_Node000028"><a xlink:href="app_8c.html#a0161d4a3780a29cba9293ace8f3136c1" target="_top" xlink:title=" ">
<polygon fill="white" stroke="#666666" points="484.25,-707.75 416.5,-707.75 416.5,-687 484.25,-687 484.25,-707.75"/>
<text text-anchor="middle" x="450.38" y="-694.25" font-family="Helvetica,sans-Serif" font-size="10.00">w2c__f389</text>
</a>
</g>
</g>
<!-- Node21&#45;&gt;Node28 -->
<g id="edge36_Node000021_Node000028" class="edge">
<title>Node21&#45;&gt;Node28</title>
<g id="a_edge36_Node000021_Node000028"><a xlink:title=" ">
<path fill="none" stroke="#63b8ff" d="M376.51,-724.59C386.82,-720.74 398.63,-716.33 409.69,-712.2"/>
<polygon fill="#63b8ff" stroke="#63b8ff" points="410.86,-715.5 419,-708.72 408.41,-708.94 410.86,-715.5"/>
</a>
</g>
</g>
<!-- Node29 -->
<g id="Node000029" class="node">
<title>Node29</title>
<g id="a_Node000029"><a xlink:href="app_8c.html#a6a3265109241f98b3d5a4bfbfde2615a" target="_top" xlink:title=" ">
<polygon fill="white" stroke="#666666" points="484.25,-821.75 416.5,-821.75 416.5,-801 484.25,-801 484.25,-821.75"/>
<text text-anchor="middle" x="450.38" y="-808.25" font-family="Helvetica,sans-Serif" font-size="10.00">w2c__f475</text>
</a>
</g>
</g>
<!-- Node21&#45;&gt;Node29 -->
<g id="edge37_Node000021_Node000029" class="edge">
<title>Node21&#45;&gt;Node29</title>
<g id="a_edge37_Node000021_Node000029"><a xlink:title=" ">
<path fill="none" stroke="#63b8ff" d="M361.82,-746.2C375.71,-756.76 397.49,-773.26 416.5,-787.38 419.36,-789.5 422.36,-791.71 425.35,-793.9"/>
<polygon fill="#63b8ff" stroke="#63b8ff" points="423.25,-796.7 433.39,-799.78 427.38,-791.05 423.25,-796.7"/>
</a>
</g>
</g>
<!-- Node30 -->
<g id="Node000030" class="node">
<title>Node30</title>
<g id="a_Node000030"><a xlink:href="app_8c.html#ae1c9fcb1e344576194464e3868b69f0e" target="_top" xlink:title=" ">
<polygon fill="white" stroke="#666666" points="591.75,-801.75 524,-801.75 524,-781 591.75,-781 591.75,-801.75"/>
<text text-anchor="middle" x="557.88" y="-788.25" font-family="Helvetica,sans-Serif" font-size="10.00">w2c__f518</text>
</a>
</g>
</g>
<!-- Node21&#45;&gt;Node30 -->
<g id="edge41_Node000021_Node000030" class="edge">
<title>Node21&#45;&gt;Node30</title>
<g id="a_edge41_Node000021_Node000030"><a xlink:title=" ">
<path fill="none" stroke="#63b8ff" d="M380.78,-744.25C416.41,-753.78 473.23,-768.99 512.65,-779.54"/>
<polygon fill="#63b8ff" stroke="#63b8ff" points="511.5,-782.86 522.07,-782.06 513.31,-776.09 511.5,-782.86"/>
</a>
</g>
</g>
<!-- Node31 -->
<g id="Node000031" class="node">
<title>Node31</title>
<g id="a_Node000031"><a xlink:href="app_8c.html#a43517182877370811f9852884f2e3844" target="_top" xlink:title=" ">
<polygon fill="white" stroke="#666666" points="595.5,-849.75 520.25,-849.75 520.25,-829 595.5,-829 595.5,-849.75"/>
<text text-anchor="middle" x="557.88" y="-836.25" font-family="Helvetica,sans-Serif" font-size="10.00">wasm_trunc</text>
</a>
</g>
</g>
<!-- Node21&#45;&gt;Node31 -->
<g id="edge43_Node000021_Node000031" class="edge">
<title>Node21&#45;&gt;Node31</title>
<g id="a_edge43_Node000021_Node000031"><a xlink:title=" ">
<path fill="none" stroke="#63b8ff" d="M351.7,-746.04C360.18,-766.58 381.89,-811.3 416.5,-830.38 444.32,-845.71 480.11,-847.78 508.59,-846.11"/>
<polygon fill="#63b8ff" stroke="#63b8ff" points="508.7,-849.62 518.4,-845.35 508.15,-842.64 508.7,-849.62"/>
</a>
</g>
</g>
<!-- Node23 -->
<g id="Node000023" class="node">
<title>Node23</title>
<g id="a_Node000023"><a xlink:href="app_8c.html#a515b1589d484e4dc494f93ca155f6966" target="_top" xlink:title=" ">
<polygon fill="white" stroke="#666666" points="591.75,-668.75 524,-668.75 524,-648 591.75,-648 591.75,-668.75"/>
<text text-anchor="middle" x="557.88" y="-655.25" font-family="Helvetica,sans-Serif" font-size="10.00">w2c__f260</text>
</a>
</g>
</g>
<!-- Node22&#45;&gt;Node23 -->
<g id="edge31_Node000022_Node000023" class="edge">
<title>Node22&#45;&gt;Node23</title>
<g id="a_edge31_Node000022_Node000023"><a xlink:title=" ">
<path fill="none" stroke="#63b8ff" d="M484.47,-658.38C493.22,-658.38 502.81,-658.38 512.08,-658.38"/>
<polygon fill="#63b8ff" stroke="#63b8ff" points="512.02,-661.88 522.02,-658.38 512.02,-654.88 512.02,-661.88"/>
</a>
</g>
</g>
<!-- Node24 -->
<g id="Node000024" class="node">
<title>Node24</title>
<g id="a_Node000024"><a xlink:href="app_8c.html#af732b1ecf09ff688adde158c29714bcd" target="_top" xlink:title=" ">
<polygon fill="white" stroke="#666666" points="701.5,-668.75 633.75,-668.75 633.75,-648 701.5,-648 701.5,-668.75"/>
<text text-anchor="middle" x="667.62" y="-655.25" font-family="Helvetica,sans-Serif" font-size="10.00">w2c__f436</text>
</a>
</g>
</g>
<!-- Node23&#45;&gt;Node24 -->
<g id="edge32_Node000023_Node000024" class="edge">
<title>Node23&#45;&gt;Node24</title>
<g id="a_edge32_Node000023_Node000024"><a xlink:title=" ">
<path fill="none" stroke="#63b8ff" d="M592.08,-658.38C601.5,-658.38 611.92,-658.38 621.91,-658.38"/>
<polygon fill="#63b8ff" stroke="#63b8ff" points="621.83,-661.88 631.83,-658.38 621.83,-654.88 621.83,-661.88"/>
</a>
</g>
</g>
<!-- Node23&#45;&gt;Node25 -->
<g id="edge33_Node000023_Node000025" class="edge">
<title>Node23&#45;&gt;Node25</title>
<g id="a_edge33_Node000023_Node000025"><a xlink:title=" ">
<path fill="none" stroke="#63b8ff" d="M578.89,-647.6C595.14,-638.85 618.31,-626.38 636.76,-616.45"/>
<polygon fill="#63b8ff" stroke="#63b8ff" points="638.24,-619.63 645.39,-611.81 634.92,-613.47 638.24,-619.63"/>
</a>
</g>
</g>
<!-- Node26 -->
<g id="Node000026" class="node">
<title>Node26</title>
<g id="a_Node000026"><a xlink:href="app_8c.html#aca677a5348fb06a52413801823fa5291" target="_top" xlink:title=" ">
<polygon fill="white" stroke="#666666" points="703.75,-707.75 631.5,-707.75 631.5,-687 703.75,-687 703.75,-707.75"/>
<text text-anchor="middle" x="667.62" y="-694.25" font-family="Helvetica,sans-Serif" font-size="10.00">wasm_floor</text>
</a>
</g>
</g>
<!-- Node23&#45;&gt;Node26 -->
<g id="edge34_Node000023_Node000026" class="edge">
<title>Node23&#45;&gt;Node26</title>
<g id="a_edge34_Node000023_Node000026"><a xlink:title=" ">
<path fill="none" stroke="#63b8ff" d="M588.89,-669.24C600.45,-673.42 613.84,-678.27 626.22,-682.75"/>
<polygon fill="#63b8ff" stroke="#63b8ff" points="624.75,-685.94 635.35,-686.05 627.14,-679.36 624.75,-685.94"/>
</a>
</g>
</g>
<!-- Node27 -->
<g id="Node000027" class="node">
<title>Node27</title>
<g id="a_Node000027"><a xlink:href="app_8c.html#ae10979e670e507d4373e8cadcb3169aa" target="_top" xlink:title=" ">
<polygon fill="white" stroke="#666666" points="805.62,-849.75 741.62,-849.75 741.62,-829 805.62,-829 805.62,-849.75"/>
<text text-anchor="middle" x="773.62" y="-836.25" font-family="Helvetica,sans-Serif" font-size="10.00">quiet_nan</text>
</a>
</g>
</g>
<!-- Node26&#45;&gt;Node27 -->
<g id="edge35_Node000026_Node000027" class="edge">
<title>Node26&#45;&gt;Node27</title>
<g id="a_edge35_Node000026_Node000027"><a xlink:title=" ">
<path fill="none" stroke="#63b8ff" d="M691.82,-708.2C696.09,-710.82 700.28,-713.9 703.75,-717.38 733.23,-746.96 754.15,-791.74 764.73,-818.03"/>
<polygon fill="#63b8ff" stroke="#63b8ff" points="761.43,-819.21 768.31,-827.27 767.96,-816.68 761.43,-819.21"/>
</a>
</g>
</g>
<!-- Node29&#45;&gt;Node30 -->
<g id="edge38_Node000029_Node000030" class="edge">
<title>Node29&#45;&gt;Node30</title>
<g id="a_edge38_Node000029_Node000030"><a xlink:title=" ">
<path fill="none" stroke="#63b8ff" d="M484.47,-805.1C493.32,-803.42 503.03,-801.58 512.38,-799.81"/>
<polygon fill="#63b8ff" stroke="#63b8ff" points="512.88,-803.28 522.05,-797.98 511.57,-796.4 512.88,-803.28"/>
</a>
</g>
</g>
<!-- Node29&#45;&gt;Node31 -->
<g id="edge39_Node000029_Node000031" class="edge">
<title>Node29&#45;&gt;Node31</title>
<g id="a_edge39_Node000029_Node000031"><a xlink:title=" ">
<path fill="none" stroke="#63b8ff" d="M484.47,-820.16C492.19,-822.21 500.58,-824.43 508.81,-826.62"/>
<polygon fill="#63b8ff" stroke="#63b8ff" points="507.84,-829.98 518.4,-829.16 509.63,-823.22 507.84,-829.98"/>
</a>
</g>
</g>
<!-- Node31&#45;&gt;Node27 -->
<g id="edge40_Node000031_Node000027" class="edge">
<title>Node31&#45;&gt;Node27</title>
<g id="a_edge40_Node000031_Node000027"><a xlink:title=" ">
<path fill="none" stroke="#63b8ff" d="M595.62,-839.38C632.91,-839.38 690.6,-839.38 729.91,-839.38"/>
<polygon fill="#63b8ff" stroke="#63b8ff" points="729.71,-842.88 739.71,-839.38 729.71,-835.88 729.71,-842.88"/>
</a>
</g>
</g>
<!-- Node32&#45;&gt;Node12 -->
<g id="edge46_Node000032_Node000012" class="edge">
<title>Node32&#45;&gt;Node12</title>
<g id="a_edge46_Node000032_Node000012"><a xlink:title=" ">
<path fill="none" stroke="#63b8ff" d="M380.94,-363.54C388.75,-365.69 397.19,-368.01 405.39,-370.27"/>
<polygon fill="#63b8ff" stroke="#63b8ff" points="404.3,-373.6 414.87,-372.88 406.16,-366.85 404.3,-373.6"/>
</a>
</g>
</g>
<!-- Node33&#45;&gt;Node4 -->
<g id="edge51_Node000033_Node000004" class="edge">
<title>Node33&#45;&gt;Node4</title>
<g id="a_edge51_Node000033_Node000004"><a xlink:title=" ">
<path fill="none" stroke="#63b8ff" d="M270.77,-494.55C325.59,-472.9 446.09,-424.39 484.25,-401.38 501.84,-390.76 501.36,-380.44 520.25,-372.38 552.5,-358.6 592.09,-354.13 621.97,-352.94"/>
<polygon fill="#63b8ff" stroke="#63b8ff" points="621.9,-356.44 631.8,-352.67 621.7,-349.45 621.9,-356.44"/>
</a>
</g>
</g>
<!-- Node33&#45;&gt;Node10 -->
<g id="edge59_Node000033_Node000010" class="edge">
<title>Node33&#45;&gt;Node10</title>
<g id="a_edge59_Node000033_Node000010"><a xlink:title=" ">
<path fill="none" stroke="#63b8ff" d="M256.63,-494.71C262.8,-489.78 270.19,-483.83 276.75,-478.38 292.98,-464.87 296.54,-460.91 312.75,-447.38 358.29,-409.35 365.58,-393.83 416.5,-363.38 484.66,-322.61 571.55,-289.99 622.92,-272.47"/>
<polygon fill="#63b8ff" stroke="#63b8ff" points="623.84,-275.86 632.2,-269.35 621.61,-269.22 623.84,-275.86"/>
</a>
</g>
</g>
<!-- Node33&#45;&gt;Node11 -->
<g id="edge52_Node000033_Node000011" class="edge">
<title>Node33&#45;&gt;Node11</title>
<g id="a_edge52_Node000033_Node000011"><a xlink:title=" ">
<path fill="none" stroke="#63b8ff" d="M262.98,-494.68C268.12,-491.07 273.21,-486.6 276.75,-481.38 314.28,-426.08 273.21,-389.26 312.75,-335.38 313.16,-334.82 313.59,-334.28 314.03,-333.75"/>
<polygon fill="#63b8ff" stroke="#63b8ff" points="316.23,-336.48 321.36,-327.21 311.57,-331.25 316.23,-336.48"/>
</a>
</g>
</g>
<!-- Node33&#45;&gt;Node16 -->
<g id="edge60_Node000033_Node000016" class="edge">
<title>Node33&#45;&gt;Node16</title>
<g id="a_edge60_Node000033_Node000016"><a xlink:title=" ">
<path fill="none" stroke="#63b8ff" d="M276.25,-508.26C304.31,-511.16 345.45,-516.51 380.5,-525.38 428.11,-537.42 450.32,-527.88 484.25,-563.38 520.96,-601.79 484.16,-638.38 520.25,-677.38 547.05,-706.33 590.03,-721.38 622.49,-729.01"/>
<polygon fill="#63b8ff" stroke="#63b8ff" points="621.5,-732.37 632.01,-731.08 622.99,-725.53 621.5,-732.37"/>
</a>
</g>
</g>
<!-- Node33&#45;&gt;Node25 -->
<g id="edge61_Node000033_Node000025" class="edge">
<title>Node33&#45;&gt;Node25</title>
<g id="a_edge61_Node000033_Node000025"><a xlink:title=" ">
<path fill="none" stroke="#63b8ff" d="M276.2,-497.09C323.32,-486.73 412.08,-472.61 484.25,-492.38 548.53,-509.98 613.14,-556.73 645.44,-582.58"/>
<polygon fill="#63b8ff" stroke="#63b8ff" points="642.89,-585.02 652.86,-588.62 647.31,-579.59 642.89,-585.02"/>
</a>
</g>
</g>
<!-- Node33&#45;&gt;Node32 -->
<g id="edge53_Node000033_Node000032" class="edge">
<title>Node33&#45;&gt;Node32</title>
<g id="a_edge53_Node000033_Node000032"><a xlink:title=" ">
<path fill="none" stroke="#63b8ff" d="M262.32,-494.7C267.57,-491.04 272.88,-486.54 276.75,-481.38 305.85,-442.58 283.86,-417.32 312.75,-378.38 314.41,-376.14 316.33,-374.03 318.4,-372.05"/>
<polygon fill="#63b8ff" stroke="#63b8ff" points="320.17,-375.12 325.69,-366.08 315.74,-369.71 320.17,-375.12"/>
</a>
</g>
</g>
<!-- Node34 -->
<g id="Node000034" class="node">
<title>Node34</title>
<g id="a_Node000034"><a xlink:href="app_8c.html#a8ce57e1cc8f9eb811e47ebb0255bf93c" target="_top" xlink:title=" ">
<polygon fill="white" stroke="#666666" points="380.5,-554.75 312.75,-554.75 312.75,-534 380.5,-534 380.5,-554.75"/>
<text text-anchor="middle" x="346.62" y="-541.25" font-family="Helvetica,sans-Serif" font-size="10.00">w2c__f439</text>
</a>
</g>
</g>
<!-- Node33&#45;&gt;Node34 -->
<g id="edge54_Node000033_Node000034" class="edge">
<title>Node33&#45;&gt;Node34</title>
<g id="a_edge54_Node000033_Node000034"><a xlink:title=" ">
<path fill="none" stroke="#63b8ff" d="M271.68,-516.24C282.45,-520.34 294.9,-525.08 306.48,-529.48"/>
<polygon fill="#63b8ff" stroke="#63b8ff" points="305.22,-532.75 315.81,-533.03 307.71,-526.2 305.22,-532.75"/>
</a>
</g>
</g>
<!-- Node34&#45;&gt;Node4 -->
<g id="edge55_Node000034_Node000004" class="edge">
<title>Node34&#45;&gt;Node4</title>
<g id="a_edge55_Node000034_Node000004"><a xlink:title=" ">
<path fill="none" stroke="#63b8ff" d="M380.66,-539.73C432.46,-530.87 533.29,-507 595.5,-449.38 622.92,-423.97 606.08,-400.78 631.5,-373.38 632.21,-372.61 632.96,-371.87 633.73,-371.14"/>
<polygon fill="#63b8ff" stroke="#63b8ff" points="635.8,-373.97 641.66,-365.14 631.57,-368.39 635.8,-373.97"/>
</a>
</g>
</g>
<!-- Node34&#45;&gt;Node22 -->
<g id="edge56_Node000034_Node000022" class="edge">
<title>Node34&#45;&gt;Node22</title>
<g id="a_edge56_Node000034_Node000022"><a xlink:title=" ">
<path fill="none" stroke="#63b8ff" d="M357.02,-554.9C374.12,-574.06 410.57,-614.89 432.21,-639.14"/>
<polygon fill="#63b8ff" stroke="#63b8ff" points="429.43,-641.29 438.7,-646.42 434.66,-636.63 429.43,-641.29"/>
</a>
</g>
</g>
<!-- Node34&#45;&gt;Node35 -->
<g id="edge57_Node000034_Node000035" class="edge">
<title>Node34&#45;&gt;Node35</title>
<g id="a_edge57_Node000034_Node000035"><a xlink:title=" ">
<path fill="none" stroke="#63b8ff" d="M376.51,-555.16C386.82,-559.01 398.63,-563.42 409.69,-567.55"/>
<polygon fill="#63b8ff" stroke="#63b8ff" points="408.41,-570.81 419,-571.03 410.86,-564.25 408.41,-570.81"/>
</a>
</g>
</g>
<!-- Node35&#45;&gt;Node25 -->
<g id="edge58_Node000035_Node000025" class="edge">
<title>Node35&#45;&gt;Node25</title>
<g id="a_edge58_Node000035_Node000025"><a xlink:title=" ">
<path fill="none" stroke="#63b8ff" d="M484.54,-585.15C520.89,-588.19 579.49,-593.09 620.35,-596.51"/>
<polygon fill="#63b8ff" stroke="#63b8ff" points="619.87,-599.98 630.13,-597.32 620.46,-593 619.87,-599.98"/>
</a>
</g>
</g>
<!-- Node37&#45;&gt;Node27 -->
<g id="edge69_Node000037_Node000027" class="edge">
<title>Node37&#45;&gt;Node27</title>
<g id="a_edge69_Node000037_Node000027"><a xlink:title=" ">
<path fill="none" stroke="#63b8ff" d="M277.07,-963.38C317.94,-963.38 388.68,-963.38 449.38,-963.38 449.38,-963.38 449.38,-963.38 558.88,-963.38 641.93,-963.38 721.61,-892.46 755.52,-857.89"/>
<polygon fill="#63b8ff" stroke="#63b8ff" points="757.69,-860.68 762.08,-851.04 752.63,-855.84 757.69,-860.68"/>
</a>
</g>
</g>
</g>
</svg>
