<?xml version="1.0" encoding="UTF-8" standalone="no"?>
<!DOCTYPE svg PUBLIC "-//W3C//DTD SVG 1.1//EN"
 "http://www.w3.org/Graphics/SVG/1.1/DTD/svg11.dtd">
<!-- Generated by graphviz version 12.2.1 (0)
 -->
<!-- Title: w2c__f555 Pages: 1 -->
<svg width="886pt" height="638pt"
 viewBox="0.00 0.00 885.50 637.86" xmlns="http://www.w3.org/2000/svg" xmlns:xlink="http://www.w3.org/1999/xlink">
<g id="graph0" class="graph" transform="scale(1 1) rotate(0) translate(4 633.86)">
<title>w2c__f555</title>
<!-- Node1 -->
<g id="Node000001" class="node">
<title>Node1</title>
<g id="a_Node000001"><a xlink:title=" ">
<polygon fill="#999999" stroke="#666666" points="877.5,-462.75 809.75,-462.75 809.75,-442 877.5,-442 877.5,-462.75"/>
<text text-anchor="middle" x="843.62" y="-449.25" font-family="Helvetica,sans-Serif" font-size="10.00">w2c__f555</text>
</a>
</g>
</g>
<!-- Node2 -->
<g id="Node000002" class="node">
<title>Node2</title>
<g id="a_Node000002"><a xlink:href="app_8c.html#a5ea1411fe00e35e730d5d9c8e6ab3a3e" target="_top" xlink:title=" ">
<polygon fill="white" stroke="#666666" points="670,-558.75 602.25,-558.75 602.25,-538 670,-538 670,-558.75"/>
<text text-anchor="middle" x="636.12" y="-545.25" font-family="Helvetica,sans-Serif" font-size="10.00">w2c__f392</text>
</a>
</g>
</g>
<!-- Node1&#45;&gt;Node2 -->
<g id="edge1_Node000001_Node000002" class="edge">
<title>Node1&#45;&gt;Node2</title>
<g id="a_edge1_Node000001_Node000002"><a xlink:title=" ">
<path fill="none" stroke="#63b8ff" d="M834.21,-473.62C823.84,-496.56 803.81,-531.9 773.75,-547.38 741.59,-563.93 699.26,-561.12 670.29,-556.14"/>
<polygon fill="#63b8ff" stroke="#63b8ff" points="837.36,-475.17 838.05,-464.6 830.92,-472.43 837.36,-475.17"/>
</a>
</g>
</g>
<!-- Node3 -->
<g id="Node000003" class="node">
<title>Node3</title>
<g id="a_Node000003"><a xlink:href="app_8c.html#a980a551daeb256397f01e6faa91d49db" target="_top" xlink:title=" ">
<polygon fill="white" stroke="#666666" points="566.25,-519.75 498.5,-519.75 498.5,-499 566.25,-499 566.25,-519.75"/>
<text text-anchor="middle" x="532.38" y="-506.25" font-family="Helvetica,sans-Serif" font-size="10.00">w2c__f403</text>
</a>
</g>
</g>
<!-- Node1&#45;&gt;Node3 -->
<g id="edge6_Node000001_Node000003" class="edge">
<title>Node1&#45;&gt;Node3</title>
<g id="a_edge6_Node000001_Node000003"><a xlink:title=" ">
<path fill="none" stroke="#63b8ff" d="M838.6,-474.02C831.49,-505.62 813.54,-563.74 773.75,-592.38 711.68,-637.05 670.2,-641.46 602.25,-606.38 566.46,-587.9 545.23,-541.29 537.15,-520.13"/>
<polygon fill="#63b8ff" stroke="#63b8ff" points="841.98,-474.95 840.57,-464.45 835.12,-473.54 841.98,-474.95"/>
</a>
</g>
</g>
<!-- Node4 -->
<g id="Node000004" class="node">
<title>Node4</title>
<g id="a_Node000004"><a xlink:href="app_8c.html#a96302817f96aee4b42b2d1383eb34b00" target="_top" xlink:title=" ">
<polygon fill="white" stroke="#666666" points="566.25,-441.75 498.5,-441.75 498.5,-421 566.25,-421 566.25,-441.75"/>
<text text-anchor="middle" x="532.38" y="-428.25" font-family="Helvetica,sans-Serif" font-size="10.00">w2c__f462</text>
</a>
</g>
</g>
<!-- Node1&#45;&gt;Node4 -->
<g id="edge24_Node000001_Node000004" class="edge">
<title>Node1&#45;&gt;Node4</title>
<g id="a_edge24_Node000001_Node000004"><a xlink:title=" ">
<path fill="none" stroke="#63b8ff" d="M838.86,-430.64C832.09,-399.04 814.56,-341.45 773.75,-316.38 758.23,-306.84 619.1,-309.63 602.25,-319.38 562.92,-342.11 543.12,-397.18 536.25,-420.57"/>
<polygon fill="#63b8ff" stroke="#63b8ff" points="835.38,-431.08 840.73,-440.23 842.25,-429.74 835.38,-431.08"/>
</a>
</g>
</g>
<!-- Node7 -->
<g id="Node000007" class="node">
<title>Node7</title>
<g id="a_Node000007"><a xlink:href="app_8c.html#a19b0396519a29069f6cce04bc3ffd460" target="_top" xlink:title=" ">
<polygon fill="white" stroke="#666666" points="670,-597.75 602.25,-597.75 602.25,-577 670,-577 670,-597.75"/>
<text text-anchor="middle" x="636.12" y="-584.25" font-family="Helvetica,sans-Serif" font-size="10.00">w2c__f425</text>
</a>
</g>
</g>
<!-- Node1&#45;&gt;Node7 -->
<g id="edge7_Node000001_Node000007" class="edge">
<title>Node1&#45;&gt;Node7</title>
<g id="a_edge7_Node000001_Node000007"><a xlink:title=" ">
<path fill="none" stroke="#63b8ff" d="M836.09,-473.96C826.82,-500.59 807.16,-545.09 773.75,-567.38 743.04,-587.86 699.83,-590.94 670.28,-590.14"/>
<polygon fill="#63b8ff" stroke="#63b8ff" points="839.38,-475.15 839.16,-464.56 832.73,-472.98 839.38,-475.15"/>
</a>
</g>
</g>
<!-- Node8 -->
<g id="Node000008" class="node">
<title>Node8</title>
<g id="a_Node000008"><a xlink:href="app_8c.html#afc2ac3fdfa040a793033e3b175c15c33" target="_top" xlink:title=" ">
<polygon fill="white" stroke="#666666" points="773.75,-462.75 706,-462.75 706,-442 773.75,-442 773.75,-462.75"/>
<text text-anchor="middle" x="739.88" y="-449.25" font-family="Helvetica,sans-Serif" font-size="10.00">w2c__f432</text>
</a>
</g>
</g>
<!-- Node1&#45;&gt;Node8 -->
<g id="edge10_Node000001_Node000008" class="edge">
<title>Node1&#45;&gt;Node8</title>
<g id="a_edge10_Node000001_Node000008"><a xlink:title=" ">
<path fill="none" stroke="#63b8ff" d="M798.07,-452.38C789.96,-452.38 781.63,-452.38 773.92,-452.38"/>
<polygon fill="#63b8ff" stroke="#63b8ff" points="797.79,-455.88 807.79,-452.38 797.79,-448.88 797.79,-455.88"/>
</a>
</g>
</g>
<!-- Node11 -->
<g id="Node000011" class="node">
<title>Node11</title>
<g id="a_Node000011"><a xlink:href="app_8c.html#ae586844727a9b77ce93a240c3a33534b" target="_top" xlink:title=" ">
<polygon fill="white" stroke="#666666" points="670,-519.75 602.25,-519.75 602.25,-499 670,-499 670,-519.75"/>
<text text-anchor="middle" x="636.12" y="-506.25" font-family="Helvetica,sans-Serif" font-size="10.00">w2c__f507</text>
</a>
</g>
</g>
<!-- Node1&#45;&gt;Node11 -->
<g id="edge54_Node000001_Node000011" class="edge">
<title>Node1&#45;&gt;Node11</title>
<g id="a_edge54_Node000001_Node000011"><a xlink:title=" ">
<path fill="none" stroke="#63b8ff" d="M798.75,-464.55C760.32,-475.21 705.3,-490.46 670.4,-500.15"/>
<polygon fill="#63b8ff" stroke="#63b8ff" points="799.45,-467.98 808.15,-461.94 797.58,-461.24 799.45,-467.98"/>
</a>
</g>
</g>
<!-- Node12 -->
<g id="Node000012" class="node">
<title>Node12</title>
<g id="a_Node000012"><a xlink:href="app_8c.html#acdead22e7486f332b7c9ebdbe069c9bb" target="_top" xlink:title=" ">
<polygon fill="white" stroke="#666666" points="773.75,-345.75 706,-345.75 706,-325 773.75,-325 773.75,-345.75"/>
<text text-anchor="middle" x="739.88" y="-332.25" font-family="Helvetica,sans-Serif" font-size="10.00">w2c__f433</text>
</a>
</g>
</g>
<!-- Node1&#45;&gt;Node12 -->
<g id="edge18_Node000001_Node000012" class="edge">
<title>Node1&#45;&gt;Node12</title>
<g id="a_edge18_Node000001_Node000012"><a xlink:title=" ">
<path fill="none" stroke="#63b8ff" d="M831.44,-431.89C819.26,-410.88 798.2,-378.15 773.75,-355.38 770.13,-352.01 765.86,-348.91 761.61,-346.22"/>
<polygon fill="#63b8ff" stroke="#63b8ff" points="828.27,-433.39 836.23,-440.37 834.36,-429.94 828.27,-433.39"/>
</a>
</g>
</g>
<!-- Node14 -->
<g id="Node000014" class="node">
<title>Node14</title>
<g id="a_Node000014"><a xlink:href="app_8c.html#a0667cccf376bf5b828befc87965e1fd7" target="_top" xlink:title=" ">
<polygon fill="white" stroke="#666666" points="773.75,-423.75 706,-423.75 706,-403 773.75,-403 773.75,-423.75"/>
<text text-anchor="middle" x="739.88" y="-410.25" font-family="Helvetica,sans-Serif" font-size="10.00">w2c__f478</text>
</a>
</g>
</g>
<!-- Node1&#45;&gt;Node14 -->
<g id="edge25_Node000001_Node000014" class="edge">
<title>Node1&#45;&gt;Node14</title>
<g id="a_edge25_Node000001_Node000014"><a xlink:title=" ">
<path fill="none" stroke="#63b8ff" d="M803.6,-437.42C792.1,-433.01 779.74,-428.27 769.07,-424.18"/>
<polygon fill="#63b8ff" stroke="#63b8ff" points="802.28,-440.66 812.87,-440.97 804.78,-434.12 802.28,-440.66"/>
</a>
</g>
</g>
<!-- Node15 -->
<g id="Node000015" class="node">
<title>Node15</title>
<g id="a_Node000015"><a xlink:href="app_8c.html#a6ed4d3a30c137f002c0294253d206acb" target="_top" xlink:title=" ">
<polygon fill="white" stroke="#666666" points="773.75,-175.75 706,-175.75 706,-155 773.75,-155 773.75,-175.75"/>
<text text-anchor="middle" x="739.88" y="-162.25" font-family="Helvetica,sans-Serif" font-size="10.00">w2c__f504</text>
</a>
</g>
</g>
<!-- Node1&#45;&gt;Node15 -->
<g id="edge28_Node000001_Node000015" class="edge">
<title>Node1&#45;&gt;Node15</title>
<g id="a_edge28_Node000001_Node000015"><a xlink:title=" ">
<path fill="none" stroke="#63b8ff" d="M835.12,-431.2C814.86,-374.07 759.61,-218.21 744.65,-176.03"/>
<polygon fill="#63b8ff" stroke="#63b8ff" points="831.74,-432.14 838.38,-440.39 838.33,-429.8 831.74,-432.14"/>
</a>
</g>
</g>
<!-- Node35 -->
<g id="Node000035" class="node">
<title>Node35</title>
<g id="a_Node000035"><a xlink:href="app_8c.html#a7a5deea6fbf3f8d1f367ccebf2a836e7" target="_top" xlink:title=" ">
<polygon fill="white" stroke="#666666" points="773.75,-384.75 706,-384.75 706,-364 773.75,-364 773.75,-384.75"/>
<text text-anchor="middle" x="739.88" y="-371.25" font-family="Helvetica,sans-Serif" font-size="10.00">w2c__f541</text>
</a>
</g>
</g>
<!-- Node1&#45;&gt;Node35 -->
<g id="edge55_Node000001_Node000035" class="edge">
<title>Node1&#45;&gt;Node35</title>
<g id="a_edge55_Node000001_Node000035"><a xlink:title=" ">
<path fill="none" stroke="#63b8ff" d="M822.46,-433.97C809.07,-422.12 790.87,-406.68 773.75,-394.38 769.3,-391.18 764.33,-387.98 759.63,-385.1"/>
<polygon fill="#63b8ff" stroke="#63b8ff" points="819.97,-436.45 829.76,-440.52 824.65,-431.24 819.97,-436.45"/>
</a>
</g>
</g>
<!-- Node36 -->
<g id="Node000036" class="node">
<title>Node36</title>
<g id="a_Node000036"><a xlink:href="app_8c.html#a6db9602adf546fc5382f14ba5f4100d7" target="_top" xlink:title=" ">
<polygon fill="white" stroke="#666666" points="773.75,-538.75 706,-538.75 706,-518 773.75,-518 773.75,-538.75"/>
<text text-anchor="middle" x="739.88" y="-525.25" font-family="Helvetica,sans-Serif" font-size="10.00">w2c__f558</text>
</a>
</g>
</g>
<!-- Node1&#45;&gt;Node36 -->
<g id="edge57_Node000001_Node000036" class="edge">
<title>Node1&#45;&gt;Node36</title>
<g id="a_edge57_Node000001_Node000036"><a xlink:title=" ">
<path fill="none" stroke="#63b8ff" d="M819.47,-470.01C806.14,-480.12 789.04,-493.02 773.75,-504.38 767.85,-508.76 761.32,-513.54 755.64,-517.67"/>
<polygon fill="#63b8ff" stroke="#63b8ff" points="821.38,-472.95 827.22,-464.11 817.14,-467.37 821.38,-472.95"/>
</a>
</g>
</g>
<!-- Node2&#45;&gt;Node3 -->
<g id="edge2_Node000002_Node000003" class="edge">
<title>Node2&#45;&gt;Node3</title>
<g id="a_edge2_Node000002_Node000003"><a xlink:title=" ">
<path fill="none" stroke="#63b8ff" d="M596.1,-533.42C584.6,-529.01 572.24,-524.27 561.57,-520.18"/>
<polygon fill="#63b8ff" stroke="#63b8ff" points="594.78,-536.66 605.37,-536.97 597.28,-530.12 594.78,-536.66"/>
</a>
</g>
</g>
<!-- Node2&#45;&gt;Node4 -->
<g id="edge3_Node000002_Node000004" class="edge">
<title>Node2&#45;&gt;Node4</title>
<g id="a_edge3_Node000002_Node000004"><a xlink:title=" ">
<path fill="none" stroke="#63b8ff" d="M605.08,-530.85C604.1,-530.04 603.15,-529.22 602.25,-528.38 573.54,-501.63 549.5,-461.15 539.02,-442.06"/>
<polygon fill="#63b8ff" stroke="#63b8ff" points="602.99,-533.66 613.16,-536.65 607.07,-527.98 602.99,-533.66"/>
</a>
</g>
</g>
<!-- Node5 -->
<g id="Node000005" class="node">
<title>Node5</title>
<g id="a_Node000005"><a xlink:href="app_8c.html#a1581df0bdfa942524e0a5dce91fd6b8e" target="_top" xlink:title=" ">
<polygon fill="white" stroke="#666666" points="462.5,-422.75 394.75,-422.75 394.75,-402 462.5,-402 462.5,-422.75"/>
<text text-anchor="middle" x="428.62" y="-409.25" font-family="Helvetica,sans-Serif" font-size="10.00">w2c__f253</text>
</a>
</g>
</g>
<!-- Node4&#45;&gt;Node5 -->
<g id="edge4_Node000004_Node000005" class="edge">
<title>Node4&#45;&gt;Node5</title>
<g id="a_edge4_Node000004_Node000005"><a xlink:title=" ">
<path fill="none" stroke="#63b8ff" d="M486.82,-423.06C478.71,-421.54 470.38,-419.98 462.67,-418.55"/>
<polygon fill="#63b8ff" stroke="#63b8ff" points="486.1,-426.48 496.57,-424.88 487.38,-419.6 486.1,-426.48"/>
</a>
</g>
</g>
<!-- Node6 -->
<g id="Node000006" class="node">
<title>Node6</title>
<g id="a_Node000006"><a xlink:href="app_8c.html#a05d83e696cfaa26355c9732ee9ea4cd0" target="_top" xlink:title=" ">
<polygon fill="white" stroke="#666666" points="462.5,-461.75 394.75,-461.75 394.75,-441 462.5,-441 462.5,-461.75"/>
<text text-anchor="middle" x="428.62" y="-448.25" font-family="Helvetica,sans-Serif" font-size="10.00">w2c__f454</text>
</a>
</g>
</g>
<!-- Node4&#45;&gt;Node6 -->
<g id="edge5_Node000004_Node000006" class="edge">
<title>Node4&#45;&gt;Node6</title>
<g id="a_edge5_Node000004_Node000006"><a xlink:title=" ">
<path fill="none" stroke="#63b8ff" d="M486.82,-440.13C478.71,-441.73 470.38,-443.37 462.67,-444.88"/>
<polygon fill="#63b8ff" stroke="#63b8ff" points="487.44,-443.58 496.57,-438.22 486.09,-436.71 487.44,-443.58"/>
</a>
</g>
</g>
<!-- Node7&#45;&gt;Node3 -->
<g id="edge8_Node000007_Node000003" class="edge">
<title>Node7&#45;&gt;Node3</title>
<g id="a_edge8_Node000007_Node000003"><a xlink:title=" ">
<path fill="none" stroke="#63b8ff" d="M606.99,-570.66C605.37,-569.57 603.78,-568.47 602.25,-567.38 581.18,-552.23 558.47,-532.34 545.11,-520.22"/>
<polygon fill="#63b8ff" stroke="#63b8ff" points="604.78,-573.4 615.1,-575.83 608.55,-567.5 604.78,-573.4"/>
</a>
</g>
</g>
<!-- Node7&#45;&gt;Node4 -->
<g id="edge9_Node000007_Node000004" class="edge">
<title>Node7&#45;&gt;Node4</title>
<g id="a_edge9_Node000007_Node000004"><a xlink:title=" ">
<path fill="none" stroke="#63b8ff" d="M604.4,-569.6C603.65,-568.88 602.93,-568.14 602.25,-567.38 577.03,-539.24 583.45,-524.01 566.25,-490.38 557.49,-473.25 546.46,-453.86 539.67,-442.12"/>
<polygon fill="#63b8ff" stroke="#63b8ff" points="602.01,-572.18 612.03,-575.62 606.35,-566.68 602.01,-572.18"/>
</a>
</g>
</g>
<!-- Node9 -->
<g id="Node000009" class="node">
<title>Node9</title>
<g id="a_Node000009"><a xlink:href="app_8c.html#ae5ac1079f0b147a4ff22a657101ae537" target="_top" xlink:title=" ">
<polygon fill="white" stroke="#666666" points="670,-480.75 602.25,-480.75 602.25,-460 670,-460 670,-480.75"/>
<text text-anchor="middle" x="636.12" y="-467.25" font-family="Helvetica,sans-Serif" font-size="10.00">w2c__f359</text>
</a>
</g>
</g>
<!-- Node8&#45;&gt;Node9 -->
<g id="edge11_Node000008_Node000009" class="edge">
<title>Node8&#45;&gt;Node9</title>
<g id="a_edge11_Node000008_Node000009"><a xlink:title=" ">
<path fill="none" stroke="#63b8ff" d="M694.32,-460.26C686.21,-461.69 677.88,-463.17 670.17,-464.53"/>
<polygon fill="#63b8ff" stroke="#63b8ff" points="694.83,-463.72 704.07,-458.53 693.61,-456.83 694.83,-463.72"/>
</a>
</g>
</g>
<!-- Node10 -->
<g id="Node000010" class="node">
<title>Node10</title>
<g id="a_Node000010"><a xlink:href="app_8c.html#af08e2b82286283df6af9efe537ed3761" target="_top" xlink:title=" ">
<polygon fill="white" stroke="#666666" points="670,-441.75 602.25,-441.75 602.25,-421 670,-421 670,-441.75"/>
<text text-anchor="middle" x="636.12" y="-428.25" font-family="Helvetica,sans-Serif" font-size="10.00">w2c__f449</text>
</a>
</g>
</g>
<!-- Node8&#45;&gt;Node10 -->
<g id="edge13_Node000008_Node000010" class="edge">
<title>Node8&#45;&gt;Node10</title>
<g id="a_edge13_Node000008_Node000010"><a xlink:title=" ">
<path fill="none" stroke="#63b8ff" d="M694.32,-443.18C686.21,-441.5 677.88,-439.79 670.17,-438.19"/>
<polygon fill="#63b8ff" stroke="#63b8ff" points="693.57,-446.6 704.08,-445.19 694.99,-439.74 693.57,-446.6"/>
</a>
</g>
</g>
<!-- Node8&#45;&gt;Node11 -->
<g id="edge15_Node000008_Node000011" class="edge">
<title>Node8&#45;&gt;Node11</title>
<g id="a_edge15_Node000008_Node000011"><a xlink:title=" ">
<path fill="none" stroke="#63b8ff" d="M709.72,-468.71C692.65,-478.27 671.56,-490.08 656.52,-498.51"/>
<polygon fill="#63b8ff" stroke="#63b8ff" points="711.4,-471.78 718.42,-463.84 707.98,-465.67 711.4,-471.78"/>
</a>
</g>
</g>
<!-- Node9&#45;&gt;Node3 -->
<g id="edge12_Node000009_Node000003" class="edge">
<title>Node9&#45;&gt;Node3</title>
<g id="a_edge12_Node000009_Node000003"><a xlink:title=" ">
<path fill="none" stroke="#63b8ff" d="M596.1,-485.33C584.6,-489.74 572.24,-494.48 561.57,-498.57"/>
<polygon fill="#63b8ff" stroke="#63b8ff" points="597.28,-488.63 605.37,-481.78 594.78,-482.09 597.28,-488.63"/>
</a>
</g>
</g>
<!-- Node10&#45;&gt;Node4 -->
<g id="edge14_Node000010_Node000004" class="edge">
<title>Node10&#45;&gt;Node4</title>
<g id="a_edge14_Node000010_Node000004"><a xlink:title=" ">
<path fill="none" stroke="#63b8ff" d="M590.57,-431.38C582.46,-431.38 574.13,-431.38 566.42,-431.38"/>
<polygon fill="#63b8ff" stroke="#63b8ff" points="590.29,-434.88 600.29,-431.38 590.29,-427.88 590.29,-434.88"/>
</a>
</g>
</g>
<!-- Node11&#45;&gt;Node3 -->
<g id="edge16_Node000011_Node000003" class="edge">
<title>Node11&#45;&gt;Node3</title>
<g id="a_edge16_Node000011_Node000003"><a xlink:title=" ">
<path fill="none" stroke="#63b8ff" d="M590.57,-509.38C582.46,-509.38 574.13,-509.38 566.42,-509.38"/>
<polygon fill="#63b8ff" stroke="#63b8ff" points="590.29,-512.88 600.29,-509.38 590.29,-505.88 590.29,-512.88"/>
</a>
</g>
</g>
<!-- Node11&#45;&gt;Node4 -->
<g id="edge17_Node000011_Node000004" class="edge">
<title>Node11&#45;&gt;Node4</title>
<g id="a_edge17_Node000011_Node000004"><a xlink:title=" ">
<path fill="none" stroke="#63b8ff" d="M606.99,-492.66C605.37,-491.57 603.78,-490.47 602.25,-489.38 581.18,-474.23 558.47,-454.34 545.11,-442.22"/>
<polygon fill="#63b8ff" stroke="#63b8ff" points="604.78,-495.4 615.1,-497.83 608.55,-489.5 604.78,-495.4"/>
</a>
</g>
</g>
<!-- Node12&#45;&gt;Node3 -->
<g id="edge19_Node000012_Node000003" class="edge">
<title>Node12&#45;&gt;Node3</title>
<g id="a_edge19_Node000012_Node000003"><a xlink:title=" ">
<path fill="none" stroke="#63b8ff" d="M710.12,-351.69C697.78,-358.69 683.19,-366.94 670,-374.38 639.92,-391.33 627.92,-389.29 602.25,-412.38 573.07,-438.61 549.26,-479.33 538.93,-498.59"/>
<polygon fill="#63b8ff" stroke="#63b8ff" points="711.59,-354.88 718.57,-346.9 708.14,-348.79 711.59,-354.88"/>
</a>
</g>
</g>
<!-- Node12&#45;&gt;Node4 -->
<g id="edge23_Node000012_Node000004" class="edge">
<title>Node12&#45;&gt;Node4</title>
<g id="a_edge23_Node000012_Node000004"><a xlink:title=" ">
<path fill="none" stroke="#63b8ff" d="M694.64,-325.93C666.64,-322.24 630.52,-321.82 602.25,-336.38 567.11,-354.46 545.68,-399.69 537.35,-420.54"/>
<polygon fill="#63b8ff" stroke="#63b8ff" points="693.8,-329.34 704.21,-327.39 694.85,-322.42 693.8,-329.34"/>
</a>
</g>
</g>
<!-- Node13 -->
<g id="Node000013" class="node">
<title>Node13</title>
<g id="a_Node000013"><a xlink:href="app_8c.html#aaf060205e2633da24de46e4de36d2ec3" target="_top" xlink:title=" ">
<polygon fill="white" stroke="#666666" points="670,-365.75 602.25,-365.75 602.25,-345 670,-345 670,-365.75"/>
<text text-anchor="middle" x="636.12" y="-352.25" font-family="Helvetica,sans-Serif" font-size="10.00">w2c__f417</text>
</a>
</g>
</g>
<!-- Node12&#45;&gt;Node13 -->
<g id="edge20_Node000012_Node000013" class="edge">
<title>Node12&#45;&gt;Node13</title>
<g id="a_edge20_Node000012_Node000013"><a xlink:title=" ">
<path fill="none" stroke="#63b8ff" d="M694.32,-344.13C686.21,-345.73 677.88,-347.37 670.17,-348.88"/>
<polygon fill="#63b8ff" stroke="#63b8ff" points="694.94,-347.58 704.07,-342.22 693.59,-340.71 694.94,-347.58"/>
</a>
</g>
</g>
<!-- Node13&#45;&gt;Node3 -->
<g id="edge21_Node000013_Node000003" class="edge">
<title>Node13&#45;&gt;Node3</title>
<g id="a_edge21_Node000013_Node000003"><a xlink:title=" ">
<path fill="none" stroke="#63b8ff" d="M608.36,-373.16C606.17,-375.13 604.09,-377.21 602.25,-379.38 579.33,-406.33 582.86,-419.14 566.25,-450.38 557.22,-467.35 546.27,-486.79 539.56,-498.57"/>
<polygon fill="#63b8ff" stroke="#63b8ff" points="610.28,-376.11 615.94,-367.15 605.93,-370.63 610.28,-376.11"/>
</a>
</g>
</g>
<!-- Node13&#45;&gt;Node4 -->
<g id="edge22_Node000013_Node000004" class="edge">
<title>Node13&#45;&gt;Node4</title>
<g id="a_edge22_Node000013_Node000004"><a xlink:title=" ">
<path fill="none" stroke="#63b8ff" d="M611.1,-372.85C608.11,-375.04 605.11,-377.25 602.25,-379.38 583.24,-393.49 561.46,-409.99 547.57,-420.55"/>
<polygon fill="#63b8ff" stroke="#63b8ff" points="613.13,-375.7 619.14,-366.97 609,-370.05 613.13,-375.7"/>
</a>
</g>
</g>
<!-- Node14&#45;&gt;Node9 -->
<g id="edge26_Node000014_Node000009" class="edge">
<title>Node14&#45;&gt;Node9</title>
<g id="a_edge26_Node000014_Node000009"><a xlink:title=" ">
<path fill="none" stroke="#63b8ff" d="M709.72,-429.71C692.65,-439.27 671.56,-451.08 656.52,-459.51"/>
<polygon fill="#63b8ff" stroke="#63b8ff" points="711.4,-432.78 718.42,-424.84 707.98,-426.67 711.4,-432.78"/>
</a>
</g>
</g>
<!-- Node14&#45;&gt;Node10 -->
<g id="edge27_Node000014_Node000010" class="edge">
<title>Node14&#45;&gt;Node10</title>
<g id="a_edge27_Node000014_Node000010"><a xlink:title=" ">
<path fill="none" stroke="#63b8ff" d="M694.32,-421.26C686.21,-422.69 677.88,-424.17 670.17,-425.53"/>
<polygon fill="#63b8ff" stroke="#63b8ff" points="694.83,-424.72 704.07,-419.53 693.61,-417.83 694.83,-424.72"/>
</a>
</g>
</g>
<!-- Node16 -->
<g id="Node000016" class="node">
<title>Node16</title>
<g id="a_Node000016"><a xlink:href="app_8c.html#a17286e0a4fa98521763a1de2e2c9ddac" target="_top" xlink:title=" ">
<polygon fill="white" stroke="#666666" points="462.5,-20.75 394.75,-20.75 394.75,0 462.5,0 462.5,-20.75"/>
<text text-anchor="middle" x="428.62" y="-7.25" font-family="Helvetica,sans-Serif" font-size="10.00">w2c__f223</text>
</a>
</g>
</g>
<!-- Node15&#45;&gt;Node16 -->
<g id="edge29_Node000015_Node000016" class="edge">
<title>Node15&#45;&gt;Node16</title>
<g id="a_edge29_Node000015_Node000016"><a xlink:title=" ">
<path fill="none" stroke="#63b8ff" d="M728.87,-144.61C717.43,-122.84 696.75,-88.98 670,-68.38 608.11,-20.69 512.73,-11.49 462.75,-10.16"/>
<polygon fill="#63b8ff" stroke="#63b8ff" points="725.69,-146.06 733.32,-153.41 731.93,-142.9 725.69,-146.06"/>
</a>
</g>
</g>
<!-- Node18 -->
<g id="Node000018" class="node">
<title>Node18</title>
<g id="a_Node000018"><a xlink:href="app_8c.html#aac449994afd8488e2efd16fb19f0ecb1" target="_top" xlink:title=" ">
<polygon fill="white" stroke="#666666" points="358.75,-155.75 291,-155.75 291,-135 358.75,-135 358.75,-155.75"/>
<text text-anchor="middle" x="324.88" y="-142.25" font-family="Helvetica,sans-Serif" font-size="10.00">w2c__f336</text>
</a>
</g>
</g>
<!-- Node15&#45;&gt;Node18 -->
<g id="edge44_Node000015_Node000018" class="edge">
<title>Node15&#45;&gt;Node18</title>
<g id="a_edge44_Node000015_Node000018"><a xlink:title=" ">
<path fill="none" stroke="#63b8ff" d="M695.83,-179.16C687.35,-181.33 678.46,-183.23 670,-184.38 548.59,-200.81 513.77,-198.43 394.75,-169.38 380.73,-165.95 365.53,-160.82 353,-156.18"/>
<polygon fill="#63b8ff" stroke="#63b8ff" points="696.48,-182.6 705.21,-176.59 694.64,-175.85 696.48,-182.6"/>
</a>
</g>
</g>
<!-- Node25 -->
<g id="Node000025" class="node">
<title>Node25</title>
<g id="a_Node000025"><a xlink:href="app_8c.html#a4c9d09242877b040eccebb807ffefe80" target="_top" xlink:title=" ">
<polygon fill="white" stroke="#666666" points="670,-136.75 602.25,-136.75 602.25,-116 670,-116 670,-136.75"/>
<text text-anchor="middle" x="636.12" y="-123.25" font-family="Helvetica,sans-Serif" font-size="10.00">w2c__f306</text>
</a>
</g>
</g>
<!-- Node15&#45;&gt;Node25 -->
<g id="edge38_Node000015_Node000025" class="edge">
<title>Node15&#45;&gt;Node25</title>
<g id="a_edge38_Node000015_Node000025"><a xlink:title=" ">
<path fill="none" stroke="#63b8ff" d="M699.85,-150.42C688.35,-146.01 675.99,-141.27 665.32,-137.18"/>
<polygon fill="#63b8ff" stroke="#63b8ff" points="698.53,-153.66 709.12,-153.97 701.03,-147.12 698.53,-153.66"/>
</a>
</g>
</g>
<!-- Node27 -->
<g id="Node000027" class="node">
<title>Node27</title>
<g id="a_Node000027"><a xlink:href="app_8c.html#ab2de7471494aa8c32f71c49afe5b00f2" target="_top" xlink:title=" ">
<polygon fill="white" stroke="#666666" points="670,-175.75 602.25,-175.75 602.25,-155 670,-155 670,-175.75"/>
<text text-anchor="middle" x="636.12" y="-162.25" font-family="Helvetica,sans-Serif" font-size="10.00">w2c__f313</text>
</a>
</g>
</g>
<!-- Node15&#45;&gt;Node27 -->
<g id="edge41_Node000015_Node000027" class="edge">
<title>Node15&#45;&gt;Node27</title>
<g id="a_edge41_Node000015_Node000027"><a xlink:title=" ">
<path fill="none" stroke="#63b8ff" d="M694.32,-165.38C686.21,-165.38 677.88,-165.38 670.17,-165.38"/>
<polygon fill="#63b8ff" stroke="#63b8ff" points="694.04,-168.88 704.04,-165.38 694.04,-161.88 694.04,-168.88"/>
</a>
</g>
</g>
<!-- Node29 -->
<g id="Node000029" class="node">
<title>Node29</title>
<g id="a_Node000029"><a xlink:href="app_8c.html#a2435e7f8955cc05ab9b71a12f118ba59" target="_top" xlink:title=" ">
<polygon fill="white" stroke="#666666" points="462.5,-251.75 394.75,-251.75 394.75,-231 462.5,-231 462.5,-251.75"/>
<text text-anchor="middle" x="428.62" y="-238.25" font-family="Helvetica,sans-Serif" font-size="10.00">w2c__f388</text>
</a>
</g>
</g>
<!-- Node15&#45;&gt;Node29 -->
<g id="edge45_Node000015_Node000029" class="edge">
<title>Node15&#45;&gt;Node29</title>
<g id="a_edge45_Node000015_Node000029"><a xlink:title=" ">
<path fill="none" stroke="#63b8ff" d="M720.77,-183.5C707.8,-195.29 689.27,-209.83 670,-217.38 600.09,-244.74 510.43,-245.57 462.81,-243.59"/>
<polygon fill="#63b8ff" stroke="#63b8ff" points="722.85,-186.35 727.71,-176.93 718.04,-181.27 722.85,-186.35"/>
</a>
</g>
</g>
<!-- Node30 -->
<g id="Node000030" class="node">
<title>Node30</title>
<g id="a_Node000030"><a xlink:href="app_8c.html#a5e8ebcb374cf6f9becc37f51cd9ebc0e" target="_top" xlink:title=" ">
<polygon fill="white" stroke="#666666" points="670,-97.75 602.25,-97.75 602.25,-77 670,-77 670,-97.75"/>
<text text-anchor="middle" x="636.12" y="-84.25" font-family="Helvetica,sans-Serif" font-size="10.00">w2c__f500</text>
</a>
</g>
</g>
<!-- Node15&#45;&gt;Node30 -->
<g id="edge47_Node000015_Node000030" class="edge">
<title>Node15&#45;&gt;Node30</title>
<g id="a_edge47_Node000015_Node000030"><a xlink:title=" ">
<path fill="none" stroke="#63b8ff" d="M718.71,-146.97C705.32,-135.12 687.12,-119.68 670,-107.38 665.55,-104.18 660.58,-100.98 655.88,-98.1"/>
<polygon fill="#63b8ff" stroke="#63b8ff" points="716.22,-149.45 726.01,-153.52 720.9,-144.24 716.22,-149.45"/>
</a>
</g>
</g>
<!-- Node17 -->
<g id="Node000017" class="node">
<title>Node17</title>
<g id="a_Node000017"><a xlink:href="app_8c.html#a9a9275782eb97e6525073f99d900b184" target="_top" xlink:title=" ">
<polygon fill="white" stroke="#666666" points="358.75,-59.75 291,-59.75 291,-39 358.75,-39 358.75,-59.75"/>
<text text-anchor="middle" x="324.88" y="-46.25" font-family="Helvetica,sans-Serif" font-size="10.00">w2c__f217</text>
</a>
</g>
</g>
<!-- Node16&#45;&gt;Node17 -->
<g id="edge30_Node000016_Node000017" class="edge">
<title>Node16&#45;&gt;Node17</title>
<g id="a_edge30_Node000016_Node000017"><a xlink:title=" ">
<path fill="none" stroke="#63b8ff" d="M388.6,-25.33C377.1,-29.74 364.74,-34.48 354.07,-38.57"/>
<polygon fill="#63b8ff" stroke="#63b8ff" points="389.78,-28.63 397.87,-21.78 387.28,-22.09 389.78,-28.63"/>
</a>
</g>
</g>
<!-- Node16&#45;&gt;Node18 -->
<g id="edge31_Node000016_Node000018" class="edge">
<title>Node16&#45;&gt;Node18</title>
<g id="a_edge31_Node000016_Node000018"><a xlink:title=" ">
<path fill="none" stroke="#63b8ff" d="M397.41,-27.88C396.49,-28.69 395.6,-29.52 394.75,-30.38 362.61,-62.74 339.31,-112.96 330.15,-134.72"/>
<polygon fill="#63b8ff" stroke="#63b8ff" points="399.2,-30.91 405.13,-22.13 395.02,-25.3 399.2,-30.91"/>
</a>
</g>
</g>
<!-- Node24 -->
<g id="Node000024" class="node">
<title>Node24</title>
<g id="a_Node000024"><a xlink:href="app_8c.html#aeab4e13658d5ad2b48b7d44acc8ceaf7" target="_top" xlink:title=" ">
<polygon fill="white" stroke="#666666" points="358.75,-20.75 291,-20.75 291,0 358.75,0 358.75,-20.75"/>
<text text-anchor="middle" x="324.88" y="-7.25" font-family="Helvetica,sans-Serif" font-size="10.00">w2c__f453</text>
</a>
</g>
</g>
<!-- Node16&#45;&gt;Node24 -->
<g id="edge37_Node000016_Node000024" class="edge">
<title>Node16&#45;&gt;Node24</title>
<g id="a_edge37_Node000016_Node000024"><a xlink:title=" ">
<path fill="none" stroke="#63b8ff" d="M383.07,-10.38C374.96,-10.38 366.63,-10.38 358.92,-10.38"/>
<polygon fill="#63b8ff" stroke="#63b8ff" points="382.79,-13.88 392.79,-10.38 382.79,-6.88 382.79,-13.88"/>
</a>
</g>
</g>
<!-- Node19 -->
<g id="Node000019" class="node">
<title>Node19</title>
<g id="a_Node000019"><a xlink:href="app_8c.html#ac863989691d4c389f80374209c220171" target="_top" xlink:title=" ">
<polygon fill="white" stroke="#666666" points="252.38,-174.75 189.88,-174.75 189.88,-154 252.38,-154 252.38,-174.75"/>
<text text-anchor="middle" x="221.12" y="-161.25" font-family="Helvetica,sans-Serif" font-size="10.00">w2c__c_0</text>
</a>
</g>
</g>
<!-- Node18&#45;&gt;Node19 -->
<g id="edge32_Node000018_Node000019" class="edge">
<title>Node18&#45;&gt;Node19</title>
<g id="a_edge32_Node000018_Node000019"><a xlink:title=" ">
<path fill="none" stroke="#63b8ff" d="M279.4,-153.68C270.41,-155.36 261.15,-157.09 252.76,-158.65"/>
<polygon fill="#63b8ff" stroke="#63b8ff" points="279.88,-157.15 289.07,-151.87 278.6,-150.27 279.88,-157.15"/>
</a>
</g>
</g>
<!-- Node21 -->
<g id="Node000021" class="node">
<title>Node21</title>
<g id="a_Node000021"><a xlink:href="app_8c.html#a8f312e54d76623b1ae169d5d19736ee0" target="_top" xlink:title=" ">
<polygon fill="white" stroke="#666666" points="255,-135.75 187.25,-135.75 187.25,-115 255,-115 255,-135.75"/>
<text text-anchor="middle" x="221.12" y="-122.25" font-family="Helvetica,sans-Serif" font-size="10.00">w2c__f363</text>
</a>
</g>
</g>
<!-- Node18&#45;&gt;Node21 -->
<g id="edge34_Node000018_Node000021" class="edge">
<title>Node18&#45;&gt;Node21</title>
<g id="a_edge34_Node000018_Node000021"><a xlink:title=" ">
<path fill="none" stroke="#63b8ff" d="M279.32,-136.62C271.21,-135.02 262.88,-133.38 255.17,-131.87"/>
<polygon fill="#63b8ff" stroke="#63b8ff" points="278.59,-140.04 289.07,-138.53 279.94,-133.17 278.59,-140.04"/>
</a>
</g>
</g>
<!-- Node20 -->
<g id="Node000020" class="node">
<title>Node20</title>
<g id="a_Node000020"><a xlink:href="app_8c.html#ab1e039392ea68017ab8a6063263b147d" target="_top" xlink:title=" ">
<polygon fill="white" stroke="#666666" points="145.25,-174.75 94,-174.75 94,-154 145.25,-154 145.25,-174.75"/>
<text text-anchor="middle" x="119.62" y="-161.25" font-family="Helvetica,sans-Serif" font-size="10.00">w2c__c</text>
</a>
</g>
</g>
<!-- Node19&#45;&gt;Node20 -->
<g id="edge33_Node000019_Node000020" class="edge">
<title>Node19&#45;&gt;Node20</title>
<g id="a_edge33_Node000019_Node000020"><a xlink:title=" ">
<path fill="none" stroke="#63b8ff" d="M178.21,-164.38C167.15,-164.38 155.55,-164.38 145.68,-164.38"/>
<polygon fill="#63b8ff" stroke="#63b8ff" points="177.95,-167.88 187.95,-164.38 177.95,-160.88 177.95,-167.88"/>
</a>
</g>
</g>
<!-- Node22 -->
<g id="Node000022" class="node">
<title>Node22</title>
<g id="a_Node000022"><a xlink:href="app_8c.html#a26657f10c51f10eeb57a4d27606a6885" target="_top" xlink:title=" ">
<polygon fill="white" stroke="#666666" points="151.25,-135.75 88,-135.75 88,-115 151.25,-115 151.25,-135.75"/>
<text text-anchor="middle" x="119.62" y="-122.25" font-family="Helvetica,sans-Serif" font-size="10.00">w2c__b_0</text>
</a>
</g>
</g>
<!-- Node21&#45;&gt;Node22 -->
<g id="edge35_Node000021_Node000022" class="edge">
<title>Node21&#45;&gt;Node22</title>
<g id="a_edge35_Node000021_Node000022"><a xlink:title=" ">
<path fill="none" stroke="#63b8ff" d="M175.71,-125.38C167.57,-125.38 159.23,-125.38 151.59,-125.38"/>
<polygon fill="#63b8ff" stroke="#63b8ff" points="175.48,-128.88 185.48,-125.38 175.48,-121.88 175.48,-128.88"/>
</a>
</g>
</g>
<!-- Node23 -->
<g id="Node000023" class="node">
<title>Node23</title>
<g id="a_Node000023"><a xlink:href="app_8c.html#a683a2045346c3209e9dac20d55933c7d" target="_top" xlink:title=" ">
<polygon fill="white" stroke="#666666" points="52,-135.75 0,-135.75 0,-115 52,-115 52,-135.75"/>
<text text-anchor="middle" x="26" y="-122.25" font-family="Helvetica,sans-Serif" font-size="10.00">w2c__b</text>
</a>
</g>
</g>
<!-- Node22&#45;&gt;Node23 -->
<g id="edge36_Node000022_Node000023" class="edge">
<title>Node22&#45;&gt;Node23</title>
<g id="a_edge36_Node000022_Node000023"><a xlink:title=" ">
<path fill="none" stroke="#63b8ff" d="M76.21,-125.38C68,-125.38 59.65,-125.38 52.21,-125.38"/>
<polygon fill="#63b8ff" stroke="#63b8ff" points="76.09,-128.88 86.09,-125.38 76.09,-121.88 76.09,-128.88"/>
</a>
</g>
</g>
<!-- Node26 -->
<g id="Node000026" class="node">
<title>Node26</title>
<g id="a_Node000026"><a xlink:href="app_8c.html#ab42cfc1c12aba4f539095880179cf3b0" target="_top" xlink:title=" ">
<polygon fill="white" stroke="#666666" points="566.25,-136.75 498.5,-136.75 498.5,-116 566.25,-116 566.25,-136.75"/>
<text text-anchor="middle" x="532.38" y="-123.25" font-family="Helvetica,sans-Serif" font-size="10.00">w2c__f291</text>
</a>
</g>
</g>
<!-- Node25&#45;&gt;Node26 -->
<g id="edge39_Node000025_Node000026" class="edge">
<title>Node25&#45;&gt;Node26</title>
<g id="a_edge39_Node000025_Node000026"><a xlink:title=" ">
<path fill="none" stroke="#63b8ff" d="M590.57,-126.38C582.46,-126.38 574.13,-126.38 566.42,-126.38"/>
<polygon fill="#63b8ff" stroke="#63b8ff" points="590.29,-129.88 600.29,-126.38 590.29,-122.88 590.29,-129.88"/>
</a>
</g>
</g>
<!-- Node26&#45;&gt;Node18 -->
<g id="edge40_Node000026_Node000018" class="edge">
<title>Node26&#45;&gt;Node18</title>
<g id="a_edge40_Node000026_Node000018"><a xlink:title=" ">
<path fill="none" stroke="#63b8ff" d="M487,-130.48C448.59,-134.03 393.9,-139.09 359.15,-142.3"/>
<polygon fill="#63b8ff" stroke="#63b8ff" points="487.22,-133.97 496.85,-129.57 486.57,-127 487.22,-133.97"/>
</a>
</g>
</g>
<!-- Node28 -->
<g id="Node000028" class="node">
<title>Node28</title>
<g id="a_Node000028"><a xlink:href="app_8c.html#a3d890b8bfb8115d18c27b76552004df5" target="_top" xlink:title=" ">
<polygon fill="white" stroke="#666666" points="566.25,-175.75 498.5,-175.75 498.5,-155 566.25,-155 566.25,-175.75"/>
<text text-anchor="middle" x="532.38" y="-162.25" font-family="Helvetica,sans-Serif" font-size="10.00">w2c__f384</text>
</a>
</g>
</g>
<!-- Node27&#45;&gt;Node28 -->
<g id="edge42_Node000027_Node000028" class="edge">
<title>Node27&#45;&gt;Node28</title>
<g id="a_edge42_Node000027_Node000028"><a xlink:title=" ">
<path fill="none" stroke="#63b8ff" d="M590.57,-165.38C582.46,-165.38 574.13,-165.38 566.42,-165.38"/>
<polygon fill="#63b8ff" stroke="#63b8ff" points="590.29,-168.88 600.29,-165.38 590.29,-161.88 590.29,-168.88"/>
</a>
</g>
</g>
<!-- Node28&#45;&gt;Node18 -->
<g id="edge43_Node000028_Node000018" class="edge">
<title>Node28&#45;&gt;Node18</title>
<g id="a_edge43_Node000028_Node000018"><a xlink:title=" ">
<path fill="none" stroke="#63b8ff" d="M487,-161.06C448.59,-157.32 393.9,-152 359.15,-148.61"/>
<polygon fill="#63b8ff" stroke="#63b8ff" points="486.56,-164.53 496.85,-162.02 487.24,-157.56 486.56,-164.53"/>
</a>
</g>
</g>
<!-- Node29&#45;&gt;Node18 -->
<g id="edge46_Node000029_Node000018" class="edge">
<title>Node29&#45;&gt;Node18</title>
<g id="a_edge46_Node000029_Node000018"><a xlink:title=" ">
<path fill="none" stroke="#63b8ff" d="M402.64,-223.86C399.92,-221.74 397.24,-219.56 394.75,-217.38 371.84,-197.32 347.88,-170.81 335.14,-156.2"/>
<polygon fill="#63b8ff" stroke="#63b8ff" points="400.48,-226.61 410.59,-229.78 404.66,-221 400.48,-226.61"/>
</a>
</g>
</g>
<!-- Node31 -->
<g id="Node000031" class="node">
<title>Node31</title>
<g id="a_Node000031"><a xlink:href="app_8c.html#af632bf697c0ee5183851d3c5dccc74c8" target="_top" xlink:title=" ">
<polygon fill="white" stroke="#666666" points="566.25,-97.75 498.5,-97.75 498.5,-77 566.25,-77 566.25,-97.75"/>
<text text-anchor="middle" x="532.38" y="-84.25" font-family="Helvetica,sans-Serif" font-size="10.00">w2c__f272</text>
</a>
</g>
</g>
<!-- Node30&#45;&gt;Node31 -->
<g id="edge48_Node000030_Node000031" class="edge">
<title>Node30&#45;&gt;Node31</title>
<g id="a_edge48_Node000030_Node000031"><a xlink:title=" ">
<path fill="none" stroke="#63b8ff" d="M590.57,-87.38C582.46,-87.38 574.13,-87.38 566.42,-87.38"/>
<polygon fill="#63b8ff" stroke="#63b8ff" points="590.29,-90.88 600.29,-87.38 590.29,-83.88 590.29,-90.88"/>
</a>
</g>
</g>
<!-- Node33 -->
<g id="Node000033" class="node">
<title>Node33</title>
<g id="a_Node000033"><a xlink:href="app_8c.html#a7bd86d6c56e8db012e9e5dfe6465d939" target="_top" xlink:title=" ">
<polygon fill="white" stroke="#666666" points="566.25,-58.75 498.5,-58.75 498.5,-38 566.25,-38 566.25,-58.75"/>
<text text-anchor="middle" x="532.38" y="-45.25" font-family="Helvetica,sans-Serif" font-size="10.00">w2c__f564</text>
</a>
</g>
</g>
<!-- Node30&#45;&gt;Node33 -->
<g id="edge51_Node000030_Node000033" class="edge">
<title>Node30&#45;&gt;Node33</title>
<g id="a_edge51_Node000030_Node000033"><a xlink:title=" ">
<path fill="none" stroke="#63b8ff" d="M596.1,-72.42C584.6,-68.01 572.24,-63.27 561.57,-59.18"/>
<polygon fill="#63b8ff" stroke="#63b8ff" points="594.78,-75.66 605.37,-75.97 597.28,-69.12 594.78,-75.66"/>
</a>
</g>
</g>
<!-- Node32 -->
<g id="Node000032" class="node">
<title>Node32</title>
<g id="a_Node000032"><a xlink:href="app_8c.html#a144a1dd48aaed5edff00fe4fe3f220e6" target="_top" xlink:title=" ">
<polygon fill="white" stroke="#666666" points="462.5,-98.75 394.75,-98.75 394.75,-78 462.5,-78 462.5,-98.75"/>
<text text-anchor="middle" x="428.62" y="-85.25" font-family="Helvetica,sans-Serif" font-size="10.00">w2c__f289</text>
</a>
</g>
</g>
<!-- Node31&#45;&gt;Node32 -->
<g id="edge49_Node000031_Node000032" class="edge">
<title>Node31&#45;&gt;Node32</title>
<g id="a_edge49_Node000031_Node000032"><a xlink:title=" ">
<path fill="none" stroke="#63b8ff" d="M486.82,-87.81C478.71,-87.89 470.38,-87.97 462.67,-88.05"/>
<polygon fill="#63b8ff" stroke="#63b8ff" points="486.58,-91.32 496.54,-87.72 486.51,-84.32 486.58,-91.32"/>
</a>
</g>
</g>
<!-- Node32&#45;&gt;Node18 -->
<g id="edge50_Node000032_Node000018" class="edge">
<title>Node32&#45;&gt;Node18</title>
<g id="a_edge50_Node000032_Node000018"><a xlink:title=" ">
<path fill="none" stroke="#63b8ff" d="M398.47,-104.71C381.4,-114.27 360.31,-126.08 345.27,-134.51"/>
<polygon fill="#63b8ff" stroke="#63b8ff" points="400.15,-107.78 407.17,-99.84 396.73,-101.67 400.15,-107.78"/>
</a>
</g>
</g>
<!-- Node34 -->
<g id="Node000034" class="node">
<title>Node34</title>
<g id="a_Node000034"><a xlink:href="app_8c.html#ac255ab03867c58c4a0b7fe707258a322" target="_top" xlink:title=" ">
<polygon fill="white" stroke="#666666" points="462.5,-59.75 394.75,-59.75 394.75,-39 462.5,-39 462.5,-59.75"/>
<text text-anchor="middle" x="428.62" y="-46.25" font-family="Helvetica,sans-Serif" font-size="10.00">w2c__f328</text>
</a>
</g>
</g>
<!-- Node33&#45;&gt;Node34 -->
<g id="edge52_Node000033_Node000034" class="edge">
<title>Node33&#45;&gt;Node34</title>
<g id="a_edge52_Node000033_Node000034"><a xlink:title=" ">
<path fill="none" stroke="#63b8ff" d="M486.82,-48.81C478.71,-48.89 470.38,-48.97 462.67,-49.05"/>
<polygon fill="#63b8ff" stroke="#63b8ff" points="486.58,-52.32 496.54,-48.72 486.51,-45.32 486.58,-52.32"/>
</a>
</g>
</g>
<!-- Node34&#45;&gt;Node17 -->
<g id="edge53_Node000034_Node000017" class="edge">
<title>Node34&#45;&gt;Node17</title>
<g id="a_edge53_Node000034_Node000017"><a xlink:title=" ">
<path fill="none" stroke="#63b8ff" d="M383.07,-49.38C374.96,-49.38 366.63,-49.38 358.92,-49.38"/>
<polygon fill="#63b8ff" stroke="#63b8ff" points="382.79,-52.88 392.79,-49.38 382.79,-45.88 382.79,-52.88"/>
</a>
</g>
</g>
<!-- Node35&#45;&gt;Node10 -->
<g id="edge56_Node000035_Node000010" class="edge">
<title>Node35&#45;&gt;Node10</title>
<g id="a_edge56_Node000035_Node000010"><a xlink:title=" ">
<path fill="none" stroke="#63b8ff" d="M709.72,-390.71C692.65,-400.27 671.56,-412.08 656.52,-420.51"/>
<polygon fill="#63b8ff" stroke="#63b8ff" points="711.4,-393.78 718.42,-385.84 707.98,-387.67 711.4,-393.78"/>
</a>
</g>
</g>
<!-- Node36&#45;&gt;Node11 -->
<g id="edge58_Node000036_Node000011" class="edge">
<title>Node36&#45;&gt;Node11</title>
<g id="a_edge58_Node000036_Node000011"><a xlink:title=" ">
<path fill="none" stroke="#63b8ff" d="M694.32,-520.06C686.21,-518.54 677.88,-516.98 670.17,-515.55"/>
<polygon fill="#63b8ff" stroke="#63b8ff" points="693.6,-523.48 704.07,-521.88 694.88,-516.6 693.6,-523.48"/>
</a>
</g>
</g>
</g>
</svg>
