<?xml version="1.0" encoding="UTF-8" standalone="no"?>
<!DOCTYPE svg PUBLIC "-//W3C//DTD SVG 1.1//EN"
 "http://www.w3.org/Graphics/SVG/1.1/DTD/svg11.dtd">
<!-- Generated by graphviz version 12.2.1 (0)
 -->
<!-- Title: w2c__f524 Pages: 1 -->
<svg width="491pt" height="146pt"
 viewBox="0.00 0.00 490.75 145.75" xmlns="http://www.w3.org/2000/svg" xmlns:xlink="http://www.w3.org/1999/xlink">
<g id="graph0" class="graph" transform="scale(1 1) rotate(0) translate(4 141.75)">
<title>w2c__f524</title>
<!-- Node1 -->
<g id="Node000001" class="node">
<title>Node1</title>
<g id="a_Node000001"><a xlink:title=" ">
<polygon fill="#999999" stroke="#666666" points="67.75,-97.75 0,-97.75 0,-77 67.75,-77 67.75,-97.75"/>
<text text-anchor="middle" x="33.88" y="-84.25" font-family="Helvetica,sans-Serif" font-size="10.00">w2c__f524</text>
</a>
</g>
</g>
<!-- Node2 -->
<g id="Node000002" class="node">
<title>Node2</title>
<g id="a_Node000002"><a xlink:href="app_8c.html#a14e021d2f1b59e04757852f66bff1044" target="_top" xlink:title=" ">
<polygon fill="white" stroke="#666666" points="171.5,-97.75 103.75,-97.75 103.75,-77 171.5,-77 171.5,-97.75"/>
<text text-anchor="middle" x="137.62" y="-84.25" font-family="Helvetica,sans-Serif" font-size="10.00">w2c__f511</text>
</a>
</g>
</g>
<!-- Node1&#45;&gt;Node2 -->
<g id="edge1_Node000001_Node000002" class="edge">
<title>Node1&#45;&gt;Node2</title>
<g id="a_edge1_Node000001_Node000002"><a xlink:title=" ">
<path fill="none" stroke="#63b8ff" d="M68.19,-87.38C75.82,-87.38 84.06,-87.38 92.08,-87.38"/>
<polygon fill="#63b8ff" stroke="#63b8ff" points="92.07,-90.88 102.07,-87.38 92.07,-83.88 92.07,-90.88"/>
</a>
</g>
</g>
<!-- Node3 -->
<g id="Node000003" class="node">
<title>Node3</title>
<g id="a_Node000003"><a xlink:href="app_8c.html#aa58fd7f1d3aab8404d7f71d334a8a108" target="_top" xlink:title=" ">
<polygon fill="white" stroke="#666666" points="275.25,-117.75 207.5,-117.75 207.5,-97 275.25,-97 275.25,-117.75"/>
<text text-anchor="middle" x="241.38" y="-104.25" font-family="Helvetica,sans-Serif" font-size="10.00">w2c__f211</text>
</a>
</g>
</g>
<!-- Node2&#45;&gt;Node3 -->
<g id="edge2_Node000002_Node000003" class="edge">
<title>Node2&#45;&gt;Node3</title>
<g id="a_edge2_Node000002_Node000003"><a xlink:title=" ">
<path fill="none" stroke="#63b8ff" d="M171.94,-93.92C179.66,-95.44 188,-97.08 196.11,-98.67"/>
<polygon fill="#63b8ff" stroke="#63b8ff" points="195.36,-102.09 205.85,-100.59 196.71,-95.22 195.36,-102.09"/>
</a>
</g>
</g>
<!-- Node8 -->
<g id="Node000008" class="node">
<title>Node8</title>
<g id="a_Node000008"><a xlink:href="app_8c.html#a8c90e9acf2d5915eb0476bc13964c4db" target="_top" xlink:title=" ">
<polygon fill="white" stroke="#666666" points="275.25,-78.75 207.5,-78.75 207.5,-58 275.25,-58 275.25,-78.75"/>
<text text-anchor="middle" x="241.38" y="-65.25" font-family="Helvetica,sans-Serif" font-size="10.00">w2c__f345</text>
</a>
</g>
</g>
<!-- Node2&#45;&gt;Node8 -->
<g id="edge8_Node000002_Node000008" class="edge">
<title>Node2&#45;&gt;Node8</title>
<g id="a_edge8_Node000002_Node000008"><a xlink:title=" ">
<path fill="none" stroke="#63b8ff" d="M171.94,-81.15C179.66,-79.71 188,-78.16 196.11,-76.64"/>
<polygon fill="#63b8ff" stroke="#63b8ff" points="196.66,-80.1 205.84,-74.82 195.37,-73.22 196.66,-80.1"/>
</a>
</g>
</g>
<!-- Node4 -->
<g id="Node000004" class="node">
<title>Node4</title>
<g id="a_Node000004"><a xlink:href="app_8c.html#a03fa34d93d32a3ee40dfc2d840730111" target="_top" xlink:title=" ">
<polygon fill="white" stroke="#666666" points="379,-137.75 311.25,-137.75 311.25,-117 379,-117 379,-137.75"/>
<text text-anchor="middle" x="345.12" y="-124.25" font-family="Helvetica,sans-Serif" font-size="10.00">w2c__f262</text>
</a>
</g>
</g>
<!-- Node3&#45;&gt;Node4 -->
<g id="edge3_Node000003_Node000004" class="edge">
<title>Node3&#45;&gt;Node4</title>
<g id="a_edge3_Node000003_Node000004"><a xlink:title=" ">
<path fill="none" stroke="#63b8ff" d="M275.69,-113.92C283.41,-115.44 291.75,-117.08 299.86,-118.67"/>
<polygon fill="#63b8ff" stroke="#63b8ff" points="299.11,-122.09 309.6,-120.59 300.46,-115.22 299.11,-122.09"/>
</a>
</g>
</g>
<!-- Node7 -->
<g id="Node000007" class="node">
<title>Node7</title>
<g id="a_Node000007"><a xlink:href="app_8c.html#a31b08a294227a9fc0a529e66ccd915dc" target="_top" xlink:title=" ">
<polygon fill="white" stroke="#666666" points="379,-98.75 311.25,-98.75 311.25,-78 379,-78 379,-98.75"/>
<text text-anchor="middle" x="345.12" y="-85.25" font-family="Helvetica,sans-Serif" font-size="10.00">w2c__f325</text>
</a>
</g>
</g>
<!-- Node3&#45;&gt;Node7 -->
<g id="edge6_Node000003_Node000007" class="edge">
<title>Node3&#45;&gt;Node7</title>
<g id="a_edge6_Node000003_Node000007"><a xlink:title=" ">
<path fill="none" stroke="#63b8ff" d="M275.69,-101.15C283.41,-99.71 291.75,-98.16 299.86,-96.64"/>
<polygon fill="#63b8ff" stroke="#63b8ff" points="300.41,-100.1 309.59,-94.82 299.12,-93.22 300.41,-100.1"/>
</a>
</g>
</g>
<!-- Node5 -->
<g id="Node000005" class="node">
<title>Node5</title>
<g id="a_Node000005"><a xlink:href="app_8c.html#a16207b5f7a97b0ecfddd231452c5aa7e" target="_top" xlink:title=" ">
<polygon fill="white" stroke="#666666" points="482.75,-137.75 415,-137.75 415,-117 482.75,-117 482.75,-137.75"/>
<text text-anchor="middle" x="448.88" y="-124.25" font-family="Helvetica,sans-Serif" font-size="10.00">w2c__f263</text>
</a>
</g>
</g>
<!-- Node4&#45;&gt;Node5 -->
<g id="edge4_Node000004_Node000005" class="edge">
<title>Node4&#45;&gt;Node5</title>
<g id="a_edge4_Node000004_Node000005"><a xlink:title=" ">
<path fill="none" stroke="#63b8ff" d="M379.44,-127.38C387.07,-127.38 395.31,-127.38 403.33,-127.38"/>
<polygon fill="#63b8ff" stroke="#63b8ff" points="403.32,-130.88 413.32,-127.38 403.32,-123.88 403.32,-130.88"/>
</a>
</g>
</g>
<!-- Node6 -->
<g id="Node000006" class="node">
<title>Node6</title>
<g id="a_Node000006"><a xlink:href="app_8c.html#a71bcbce7faf780cd081af3fa82d6da97" target="_top" xlink:title=" ">
<polygon fill="white" stroke="#666666" points="482.75,-98.75 415,-98.75 415,-78 482.75,-78 482.75,-98.75"/>
<text text-anchor="middle" x="448.88" y="-85.25" font-family="Helvetica,sans-Serif" font-size="10.00">w2c__f437</text>
</a>
</g>
</g>
<!-- Node4&#45;&gt;Node6 -->
<g id="edge5_Node000004_Node000006" class="edge">
<title>Node4&#45;&gt;Node6</title>
<g id="a_edge5_Node000004_Node000006"><a xlink:title=" ">
<path fill="none" stroke="#63b8ff" d="M374.47,-116.51C385.16,-112.41 397.52,-107.67 409.01,-103.27"/>
<polygon fill="#63b8ff" stroke="#63b8ff" points="410.19,-106.57 418.27,-99.72 407.68,-100.03 410.19,-106.57"/>
</a>
</g>
</g>
<!-- Node7&#45;&gt;Node6 -->
<g id="edge7_Node000007_Node000006" class="edge">
<title>Node7&#45;&gt;Node6</title>
<g id="a_edge7_Node000007_Node000006"><a xlink:title=" ">
<path fill="none" stroke="#63b8ff" d="M379.44,-88.38C387.07,-88.38 395.31,-88.38 403.33,-88.38"/>
<polygon fill="#63b8ff" stroke="#63b8ff" points="403.32,-91.88 413.32,-88.38 403.32,-84.88 403.32,-91.88"/>
</a>
</g>
</g>
<!-- Node8&#45;&gt;Node4 -->
<g id="edge9_Node000008_Node000004" class="edge">
<title>Node8&#45;&gt;Node4</title>
<g id="a_edge9_Node000008_Node000004"><a xlink:title=" ">
<path fill="none" stroke="#63b8ff" d="M261.04,-79.2C276.38,-88.1 298.38,-100.85 315.88,-111"/>
<polygon fill="#63b8ff" stroke="#63b8ff" points="313.86,-113.87 324.27,-115.86 317.38,-107.82 313.86,-113.87"/>
</a>
</g>
</g>
<!-- Node8&#45;&gt;Node7 -->
<g id="edge10_Node000008_Node000007" class="edge">
<title>Node8&#45;&gt;Node7</title>
<g id="a_edge10_Node000008_Node000007"><a xlink:title=" ">
<path fill="none" stroke="#63b8ff" d="M275.69,-74.92C283.41,-76.44 291.75,-78.08 299.86,-79.67"/>
<polygon fill="#63b8ff" stroke="#63b8ff" points="299.11,-83.09 309.6,-81.59 300.46,-76.22 299.11,-83.09"/>
</a>
</g>
</g>
<!-- Node9 -->
<g id="Node000009" class="node">
<title>Node9</title>
<g id="a_Node000009"><a xlink:href="app_8c.html#a800df00ef236c6d6affc3c661b37e3ad" target="_top" xlink:title=" ">
<polygon fill="white" stroke="#666666" points="379,-59.75 311.25,-59.75 311.25,-39 379,-39 379,-59.75"/>
<text text-anchor="middle" x="345.12" y="-46.25" font-family="Helvetica,sans-Serif" font-size="10.00">w2c__f487</text>
</a>
</g>
</g>
<!-- Node8&#45;&gt;Node9 -->
<g id="edge11_Node000008_Node000009" class="edge">
<title>Node8&#45;&gt;Node9</title>
<g id="a_edge11_Node000008_Node000009"><a xlink:title=" ">
<path fill="none" stroke="#63b8ff" d="M275.69,-62.15C283.41,-60.71 291.75,-59.16 299.86,-57.64"/>
<polygon fill="#63b8ff" stroke="#63b8ff" points="300.41,-61.1 309.59,-55.82 299.12,-54.22 300.41,-61.1"/>
</a>
</g>
</g>
<!-- Node10 -->
<g id="Node000010" class="node">
<title>Node10</title>
<g id="a_Node000010"><a xlink:href="app_8c.html#a0e0dad0ebc52e45eeff2e1b5d8389ea4" target="_top" xlink:title=" ">
<polygon fill="white" stroke="#666666" points="379,-20.75 311.25,-20.75 311.25,0 379,0 379,-20.75"/>
<text text-anchor="middle" x="345.12" y="-7.25" font-family="Helvetica,sans-Serif" font-size="10.00">w2c__f534</text>
</a>
</g>
</g>
<!-- Node8&#45;&gt;Node10 -->
<g id="edge13_Node000008_Node000010" class="edge">
<title>Node8&#45;&gt;Node10</title>
<g id="a_edge13_Node000008_Node000010"><a xlink:title=" ">
<path fill="none" stroke="#63b8ff" d="M261.04,-57.74C276.29,-49.04 298.1,-36.61 315.55,-26.66"/>
<polygon fill="#63b8ff" stroke="#63b8ff" points="316.97,-29.88 323.92,-21.89 313.5,-23.8 316.97,-29.88"/>
</a>
</g>
</g>
<!-- Node9&#45;&gt;Node6 -->
<g id="edge12_Node000009_Node000006" class="edge">
<title>Node9&#45;&gt;Node6</title>
<g id="a_edge12_Node000009_Node000006"><a xlink:title=" ">
<path fill="none" stroke="#63b8ff" d="M374.47,-60.24C385.16,-64.34 397.52,-69.08 409.01,-73.48"/>
<polygon fill="#63b8ff" stroke="#63b8ff" points="407.68,-76.72 418.27,-77.03 410.19,-70.18 407.68,-76.72"/>
</a>
</g>
</g>
</g>
</svg>
