<?xml version="1.0" encoding="UTF-8" standalone="no"?>
<!DOCTYPE svg PUBLIC "-//W3C//DTD SVG 1.1//EN"
 "http://www.w3.org/Graphics/SVG/1.1/DTD/svg11.dtd">
<!-- Generated by graphviz version 12.2.1 (0)
 -->
<!-- Title: wrap_w2c__f532 Pages: 1 -->
<svg width="520pt" height="298pt"
 viewBox="0.00 0.00 520.00 297.75" xmlns="http://www.w3.org/2000/svg" xmlns:xlink="http://www.w3.org/1999/xlink">
<g id="graph0" class="graph" transform="scale(1 1) rotate(0) translate(4 293.75)">
<title>wrap_w2c__f532</title>
<!-- Node1 -->
<g id="Node000001" class="node">
<title>Node1</title>
<g id="a_Node000001"><a xlink:title=" ">
<polygon fill="#999999" stroke="#666666" points="97,-115.75 0,-115.75 0,-95 97,-95 97,-115.75"/>
<text text-anchor="middle" x="48.5" y="-102.25" font-family="Helvetica,sans-Serif" font-size="10.00">wrap_w2c__f532</text>
</a>
</g>
</g>
<!-- Node2 -->
<g id="Node000002" class="node">
<title>Node2</title>
<g id="a_Node000002"><a xlink:href="app_8c.html#a26a3dfaa263b1d98a6eb6055906e8827" target="_top" xlink:title=" ">
<polygon fill="white" stroke="#666666" points="200.75,-115.75 133,-115.75 133,-95 200.75,-95 200.75,-115.75"/>
<text text-anchor="middle" x="166.88" y="-102.25" font-family="Helvetica,sans-Serif" font-size="10.00">w2c__f532</text>
</a>
</g>
</g>
<!-- Node1&#45;&gt;Node2 -->
<g id="edge1_Node000001_Node000002" class="edge">
<title>Node1&#45;&gt;Node2</title>
<g id="a_edge1_Node000001_Node000002"><a xlink:title=" ">
<path fill="none" stroke="#63b8ff" d="M97.17,-105.38C105.18,-105.38 113.47,-105.38 121.4,-105.38"/>
<polygon fill="#63b8ff" stroke="#63b8ff" points="121.17,-108.88 131.17,-105.38 121.17,-101.88 121.17,-108.88"/>
</a>
</g>
</g>
<!-- Node3 -->
<g id="Node000003" class="node">
<title>Node3</title>
<g id="a_Node000003"><a xlink:href="app_8c.html#a0378208e0d5c0d1d6e7370f1c578fab3" target="_top" xlink:title=" ">
<polygon fill="white" stroke="#666666" points="408.25,-289.75 340.5,-289.75 340.5,-269 408.25,-269 408.25,-289.75"/>
<text text-anchor="middle" x="374.38" y="-276.25" font-family="Helvetica,sans-Serif" font-size="10.00">w2c__f216</text>
</a>
</g>
</g>
<!-- Node2&#45;&gt;Node3 -->
<g id="edge2_Node000002_Node000003" class="edge">
<title>Node2&#45;&gt;Node3</title>
<g id="a_edge2_Node000002_Node000003"><a xlink:title=" ">
<path fill="none" stroke="#63b8ff" d="M176.43,-116.04C188.91,-131.29 213.2,-159.89 236.75,-181.38 279.37,-220.26 292.74,-227.01 340.5,-259.38 342.1,-260.46 343.75,-261.55 345.43,-262.64"/>
<polygon fill="#63b8ff" stroke="#63b8ff" points="343.47,-265.54 353.8,-267.88 347.19,-259.61 343.47,-265.54"/>
</a>
</g>
</g>
<!-- Node5 -->
<g id="Node000005" class="node">
<title>Node5</title>
<g id="a_Node000005"><a xlink:href="app_8c.html#ac31bcf9c978e89bff4ef5e2cafdb7448" target="_top" xlink:title=" ">
<polygon fill="white" stroke="#666666" points="304.5,-172.75 236.75,-172.75 236.75,-152 304.5,-152 304.5,-172.75"/>
<text text-anchor="middle" x="270.62" y="-159.25" font-family="Helvetica,sans-Serif" font-size="10.00">w2c__f287</text>
</a>
</g>
</g>
<!-- Node2&#45;&gt;Node5 -->
<g id="edge4_Node000002_Node000005" class="edge">
<title>Node2&#45;&gt;Node5</title>
<g id="a_edge4_Node000002_Node000005"><a xlink:title=" ">
<path fill="none" stroke="#63b8ff" d="M187.01,-116.1C202.12,-124.56 223.45,-136.51 240.65,-146.15"/>
<polygon fill="#63b8ff" stroke="#63b8ff" points="238.47,-148.93 248.91,-150.77 241.89,-142.83 238.47,-148.93"/>
</a>
</g>
</g>
<!-- Node11 -->
<g id="Node000011" class="node">
<title>Node11</title>
<g id="a_Node000011"><a xlink:href="app_8c.html#a674f6e81761467d0a8dc6d2a425eda9f" target="_top" xlink:title=" ">
<polygon fill="white" stroke="#666666" points="512,-134.75 444.25,-134.75 444.25,-114 512,-114 512,-134.75"/>
<text text-anchor="middle" x="478.12" y="-121.25" font-family="Helvetica,sans-Serif" font-size="10.00">w2c__f498</text>
</a>
</g>
</g>
<!-- Node2&#45;&gt;Node11 -->
<g id="edge16_Node000002_Node000011" class="edge">
<title>Node2&#45;&gt;Node11</title>
<g id="a_edge16_Node000002_Node000011"><a xlink:title=" ">
<path fill="none" stroke="#63b8ff" d="M190.44,-94.58C233.87,-75.37 331.53,-39.75 408.25,-67.38 429.33,-74.97 448.54,-92.13 461.29,-105.64"/>
<polygon fill="#63b8ff" stroke="#63b8ff" points="458.38,-107.65 467.67,-112.74 463.58,-102.97 458.38,-107.65"/>
</a>
</g>
</g>
<!-- Node13 -->
<g id="Node000013" class="node">
<title>Node13</title>
<g id="a_Node000013"><a xlink:href="app_8c.html#ab78a9ba6819f5a9d3b53302097151d33" target="_top" xlink:title=" ">
<polygon fill="white" stroke="#666666" points="304.5,-20.75 236.75,-20.75 236.75,0 304.5,0 304.5,-20.75"/>
<text text-anchor="middle" x="270.62" y="-7.25" font-family="Helvetica,sans-Serif" font-size="10.00">w2c__f481</text>
</a>
</g>
</g>
<!-- Node2&#45;&gt;Node13 -->
<g id="edge15_Node000002_Node000013" class="edge">
<title>Node2&#45;&gt;Node13</title>
<g id="a_edge15_Node000002_Node000013"><a xlink:title=" ">
<path fill="none" stroke="#63b8ff" d="M177.17,-94.72C189.94,-80.33 213.94,-54.2 236.75,-34.38 239.25,-32.2 241.94,-30.02 244.66,-27.91"/>
<polygon fill="#63b8ff" stroke="#63b8ff" points="246.67,-30.77 252.61,-21.99 242.5,-25.15 246.67,-30.77"/>
</a>
</g>
</g>
<!-- Node4 -->
<g id="Node000004" class="node">
<title>Node4</title>
<g id="a_Node000004"><a xlink:href="app_8c.html#a8d9f347f9a643f0ebfb53c4f54578ac4" target="_top" xlink:title=" ">
<polygon fill="white" stroke="#666666" points="512,-289.75 444.25,-289.75 444.25,-269 512,-269 512,-289.75"/>
<text text-anchor="middle" x="478.12" y="-276.25" font-family="Helvetica,sans-Serif" font-size="10.00">w2c__f304</text>
</a>
</g>
</g>
<!-- Node3&#45;&gt;Node4 -->
<g id="edge3_Node000003_Node000004" class="edge">
<title>Node3&#45;&gt;Node4</title>
<g id="a_edge3_Node000003_Node000004"><a xlink:title=" ">
<path fill="none" stroke="#63b8ff" d="M408.69,-279.38C416.32,-279.38 424.56,-279.38 432.58,-279.38"/>
<polygon fill="#63b8ff" stroke="#63b8ff" points="432.57,-282.88 442.57,-279.38 432.57,-275.88 432.57,-282.88"/>
</a>
</g>
</g>
<!-- Node5&#45;&gt;Node3 -->
<g id="edge5_Node000005_Node000003" class="edge">
<title>Node5&#45;&gt;Node3</title>
<g id="a_edge5_Node000005_Node000003"><a xlink:title=" ">
<path fill="none" stroke="#63b8ff" d="M277.27,-173.06C287.75,-192.15 311.79,-232.63 340.5,-259.38 341.4,-260.22 342.35,-261.04 343.33,-261.85"/>
<polygon fill="#63b8ff" stroke="#63b8ff" points="341.24,-264.66 351.41,-267.65 345.32,-258.98 341.24,-264.66"/>
</a>
</g>
</g>
<!-- Node6 -->
<g id="Node000006" class="node">
<title>Node6</title>
<g id="a_Node000006"><a xlink:href="app_8c.html#aaca5d5bcf49f2ca74019cf097750b9f3" target="_top" xlink:title=" ">
<polygon fill="white" stroke="#666666" points="408.25,-250.75 340.5,-250.75 340.5,-230 408.25,-230 408.25,-250.75"/>
<text text-anchor="middle" x="374.38" y="-237.25" font-family="Helvetica,sans-Serif" font-size="10.00">w2c__f258</text>
</a>
</g>
</g>
<!-- Node5&#45;&gt;Node6 -->
<g id="edge6_Node000005_Node000006" class="edge">
<title>Node5&#45;&gt;Node6</title>
<g id="a_edge6_Node000005_Node000006"><a xlink:title=" ">
<path fill="none" stroke="#63b8ff" d="M283.36,-173.22C296.72,-185.34 319.43,-205.23 340.5,-220.38 342.03,-221.47 343.62,-222.57 345.24,-223.66"/>
<polygon fill="#63b8ff" stroke="#63b8ff" points="343.03,-226.4 353.35,-228.83 346.8,-220.5 343.03,-226.4"/>
</a>
</g>
</g>
<!-- Node8 -->
<g id="Node000008" class="node">
<title>Node8</title>
<g id="a_Node000008"><a xlink:href="app_8c.html#a4cee3be2fcc198bdc8a4972930d94f4f" target="_top" xlink:title=" ">
<polygon fill="white" stroke="#666666" points="408.25,-211.75 340.5,-211.75 340.5,-191 408.25,-191 408.25,-211.75"/>
<text text-anchor="middle" x="374.38" y="-198.25" font-family="Helvetica,sans-Serif" font-size="10.00">w2c__f326</text>
</a>
</g>
</g>
<!-- Node5&#45;&gt;Node8 -->
<g id="edge9_Node000005_Node000008" class="edge">
<title>Node5&#45;&gt;Node8</title>
<g id="a_edge9_Node000005_Node000008"><a xlink:title=" ">
<path fill="none" stroke="#63b8ff" d="M299.97,-173.24C310.66,-177.34 323.02,-182.08 334.51,-186.48"/>
<polygon fill="#63b8ff" stroke="#63b8ff" points="333.18,-189.72 343.77,-190.03 335.69,-183.18 333.18,-189.72"/>
</a>
</g>
</g>
<!-- Node10 -->
<g id="Node000010" class="node">
<title>Node10</title>
<g id="a_Node000010"><a xlink:href="app_8c.html#a87ed9e71bb510c147810da63c198b7b2" target="_top" xlink:title=" ">
<polygon fill="white" stroke="#666666" points="408.25,-172.75 340.5,-172.75 340.5,-152 408.25,-152 408.25,-172.75"/>
<text text-anchor="middle" x="374.38" y="-159.25" font-family="Helvetica,sans-Serif" font-size="10.00">w2c__f398</text>
</a>
</g>
</g>
<!-- Node5&#45;&gt;Node10 -->
<g id="edge11_Node000005_Node000010" class="edge">
<title>Node5&#45;&gt;Node10</title>
<g id="a_edge11_Node000005_Node000010"><a xlink:title=" ">
<path fill="none" stroke="#63b8ff" d="M304.94,-162.38C312.57,-162.38 320.81,-162.38 328.83,-162.38"/>
<polygon fill="#63b8ff" stroke="#63b8ff" points="328.82,-165.88 338.82,-162.38 328.82,-158.88 328.82,-165.88"/>
</a>
</g>
</g>
<!-- Node5&#45;&gt;Node11 -->
<g id="edge13_Node000005_Node000011" class="edge">
<title>Node5&#45;&gt;Node11</title>
<g id="a_edge13_Node000005_Node000011"><a xlink:title=" ">
<path fill="none" stroke="#63b8ff" d="M304.69,-152.31C315.97,-149.13 328.72,-145.81 340.5,-143.38 370.94,-137.09 405.63,-132.29 432.44,-129.09"/>
<polygon fill="#63b8ff" stroke="#63b8ff" points="432.75,-132.58 442.28,-127.95 431.95,-125.63 432.75,-132.58"/>
</a>
</g>
</g>
<!-- Node12 -->
<g id="Node000012" class="node">
<title>Node12</title>
<g id="a_Node000012"><a xlink:href="app_8c.html#a672569c91ebb1d5055d737b56ec296a7" target="_top" xlink:title=" ">
<polygon fill="white" stroke="#666666" points="408.25,-96.75 340.5,-96.75 340.5,-76 408.25,-76 408.25,-96.75"/>
<text text-anchor="middle" x="374.38" y="-83.25" font-family="Helvetica,sans-Serif" font-size="10.00">w2c__f585</text>
</a>
</g>
</g>
<!-- Node5&#45;&gt;Node12 -->
<g id="edge14_Node000005_Node000012" class="edge">
<title>Node5&#45;&gt;Node12</title>
<g id="a_edge14_Node000005_Node000012"><a xlink:title=" ">
<path fill="none" stroke="#63b8ff" d="M285.82,-151.55C299.71,-140.99 321.49,-124.49 340.5,-110.38 343.36,-108.25 346.36,-106.04 349.35,-103.85"/>
<polygon fill="#63b8ff" stroke="#63b8ff" points="351.38,-106.7 357.39,-97.97 347.25,-101.05 351.38,-106.7"/>
</a>
</g>
</g>
<!-- Node6&#45;&gt;Node4 -->
<g id="edge7_Node000006_Node000004" class="edge">
<title>Node6&#45;&gt;Node4</title>
<g id="a_edge7_Node000006_Node000004"><a xlink:title=" ">
<path fill="none" stroke="#63b8ff" d="M403.72,-251.24C414.41,-255.34 426.77,-260.08 438.26,-264.48"/>
<polygon fill="#63b8ff" stroke="#63b8ff" points="436.93,-267.72 447.52,-268.03 439.44,-261.18 436.93,-267.72"/>
</a>
</g>
</g>
<!-- Node7 -->
<g id="Node000007" class="node">
<title>Node7</title>
<g id="a_Node000007"><a xlink:href="app_8c.html#a881f0b113e93dce3ff52d04b435850f6" target="_top" xlink:title=" ">
<polygon fill="white" stroke="#666666" points="512,-250.75 444.25,-250.75 444.25,-230 512,-230 512,-250.75"/>
<text text-anchor="middle" x="478.12" y="-237.25" font-family="Helvetica,sans-Serif" font-size="10.00">w2c__f491</text>
</a>
</g>
</g>
<!-- Node6&#45;&gt;Node7 -->
<g id="edge8_Node000006_Node000007" class="edge">
<title>Node6&#45;&gt;Node7</title>
<g id="a_edge8_Node000006_Node000007"><a xlink:title=" ">
<path fill="none" stroke="#63b8ff" d="M408.69,-240.38C416.32,-240.38 424.56,-240.38 432.58,-240.38"/>
<polygon fill="#63b8ff" stroke="#63b8ff" points="432.57,-243.88 442.57,-240.38 432.57,-236.88 432.57,-243.88"/>
</a>
</g>
</g>
<!-- Node9 -->
<g id="Node000009" class="node">
<title>Node9</title>
<g id="a_Node000009"><a xlink:href="app_8c.html#a75d2a28c1bac8b1e29f069bf851fdba9" target="_top" xlink:title=" ">
<polygon fill="white" stroke="#666666" points="512,-211.75 444.25,-211.75 444.25,-191 512,-191 512,-211.75"/>
<text text-anchor="middle" x="478.12" y="-198.25" font-family="Helvetica,sans-Serif" font-size="10.00">w2c__f549</text>
</a>
</g>
</g>
<!-- Node8&#45;&gt;Node9 -->
<g id="edge10_Node000008_Node000009" class="edge">
<title>Node8&#45;&gt;Node9</title>
<g id="a_edge10_Node000008_Node000009"><a xlink:title=" ">
<path fill="none" stroke="#63b8ff" d="M408.69,-201.38C416.32,-201.38 424.56,-201.38 432.58,-201.38"/>
<polygon fill="#63b8ff" stroke="#63b8ff" points="432.57,-204.88 442.57,-201.38 432.57,-197.88 432.57,-204.88"/>
</a>
</g>
</g>
<!-- Node10&#45;&gt;Node11 -->
<g id="edge12_Node000010_Node000011" class="edge">
<title>Node10&#45;&gt;Node11</title>
<g id="a_edge12_Node000010_Node000011"><a xlink:title=" ">
<path fill="none" stroke="#63b8ff" d="M404.26,-151.59C414.57,-147.74 426.38,-143.33 437.44,-139.2"/>
<polygon fill="#63b8ff" stroke="#63b8ff" points="438.61,-142.5 446.75,-135.72 436.16,-135.94 438.61,-142.5"/>
</a>
</g>
</g>
</g>
</svg>
