<?xml version="1.0" encoding="UTF-8" standalone="no"?>
<!DOCTYPE svg PUBLIC "-//W3C//DTD SVG 1.1//EN"
 "http://www.w3.org/Graphics/SVG/1.1/DTD/svg11.dtd">
<!-- Generated by graphviz version 12.2.1 (0)
 -->
<!-- Title: w2c__f416 Pages: 1 -->
<svg width="782pt" height="814pt"
 viewBox="0.00 0.00 781.75 814.49" xmlns="http://www.w3.org/2000/svg" xmlns:xlink="http://www.w3.org/1999/xlink">
<g id="graph0" class="graph" transform="scale(1 1) rotate(0) translate(4 810.49)">
<title>w2c__f416</title>
<!-- Node1 -->
<g id="Node000001" class="node">
<title>Node1</title>
<g id="a_Node000001"><a xlink:title=" ">
<polygon fill="#999999" stroke="#666666" points="773.75,-348.75 706,-348.75 706,-328 773.75,-328 773.75,-348.75"/>
<text text-anchor="middle" x="739.88" y="-335.25" font-family="Helvetica,sans-Serif" font-size="10.00">w2c__f416</text>
</a>
</g>
</g>
<!-- Node2 -->
<g id="Node000002" class="node">
<title>Node2</title>
<g id="a_Node000002"><a xlink:href="app_8c.html#a804534de2607e24f990723bc046d16ab" target="_top" xlink:title=" ">
<polygon fill="white" stroke="#666666" points="566.25,-788.75 498.5,-788.75 498.5,-768 566.25,-768 566.25,-788.75"/>
<text text-anchor="middle" x="532.38" y="-775.25" font-family="Helvetica,sans-Serif" font-size="10.00">w2c__f232</text>
</a>
</g>
</g>
<!-- Node1&#45;&gt;Node2 -->
<g id="edge1_Node000001_Node000002" class="edge">
<title>Node1&#45;&gt;Node2</title>
<g id="a_edge1_Node000001_Node000002"><a xlink:title=" ">
<path fill="none" stroke="#63b8ff" d="M736.67,-360.42C729.58,-427.85 705.76,-630.07 670,-684.38 643.08,-725.25 591.67,-753.29 560.16,-767.52"/>
<polygon fill="#63b8ff" stroke="#63b8ff" points="740.13,-360.95 737.67,-350.64 733.17,-360.23 740.13,-360.95"/>
</a>
</g>
</g>
<!-- Node6 -->
<g id="Node000006" class="node">
<title>Node6</title>
<g id="a_Node000006"><a xlink:href="app_8c.html#a8f312e54d76623b1ae169d5d19736ee0" target="_top" xlink:title=" ">
<polygon fill="white" stroke="#666666" points="255,-617.75 187.25,-617.75 187.25,-597 255,-597 255,-617.75"/>
<text text-anchor="middle" x="221.12" y="-604.25" font-family="Helvetica,sans-Serif" font-size="10.00">w2c__f363</text>
</a>
</g>
</g>
<!-- Node1&#45;&gt;Node6 -->
<g id="edge34_Node000001_Node000006" class="edge">
<title>Node1&#45;&gt;Node6</title>
<g id="a_edge34_Node000001_Node000006"><a xlink:title=" ">
<path fill="none" stroke="#63b8ff" d="M737.09,-360.17C732.74,-398.43 718.12,-477.58 670,-519.38 622.99,-560.2 595.64,-550.38 533.38,-550.38 533.38,-550.38 533.38,-550.38 427.62,-550.38 366.32,-550.38 349.17,-550.02 291,-569.38 271.56,-575.84 251.26,-587.78 237.77,-596.55"/>
<polygon fill="#63b8ff" stroke="#63b8ff" points="740.56,-360.68 738.05,-350.38 733.59,-359.99 740.56,-360.68"/>
</a>
</g>
</g>
<!-- Node9 -->
<g id="Node000009" class="node">
<title>Node9</title>
<g id="a_Node000009"><a xlink:href="app_8c.html#a3f760669e5f405cae42aa341ecb01687" target="_top" xlink:title=" ">
<polygon fill="white" stroke="#666666" points="670,-215.75 602.25,-215.75 602.25,-195 670,-195 670,-215.75"/>
<text text-anchor="middle" x="636.12" y="-202.25" font-family="Helvetica,sans-Serif" font-size="10.00">w2c__f246</text>
</a>
</g>
</g>
<!-- Node1&#45;&gt;Node9 -->
<g id="edge8_Node000001_Node000009" class="edge">
<title>Node1&#45;&gt;Node9</title>
<g id="a_edge8_Node000001_Node000009"><a xlink:title=" ">
<path fill="none" stroke="#63b8ff" d="M728.7,-317.44C716.77,-294.23 695.36,-256.49 670,-229.38 665.46,-224.52 659.83,-220 654.51,-216.22"/>
<polygon fill="#63b8ff" stroke="#63b8ff" points="725.49,-318.83 733.1,-326.2 731.74,-315.69 725.49,-318.83"/>
</a>
</g>
</g>
<!-- Node10 -->
<g id="Node000010" class="node">
<title>Node10</title>
<g id="a_Node000010"><a xlink:href="app_8c.html#a1581df0bdfa942524e0a5dce91fd6b8e" target="_top" xlink:title=" ">
<polygon fill="white" stroke="#666666" points="462.5,-522.75 394.75,-522.75 394.75,-502 462.5,-502 462.5,-522.75"/>
<text text-anchor="middle" x="428.62" y="-509.25" font-family="Helvetica,sans-Serif" font-size="10.00">w2c__f253</text>
</a>
</g>
</g>
<!-- Node1&#45;&gt;Node10 -->
<g id="edge9_Node000001_Node000010" class="edge">
<title>Node1&#45;&gt;Node10</title>
<g id="a_edge9_Node000001_Node000010"><a xlink:title=" ">
<path fill="none" stroke="#63b8ff" d="M736,-360.31C730.23,-394.62 713.79,-460.28 670,-491.38 607.84,-535.52 512.57,-527.51 462.69,-519.19"/>
<polygon fill="#63b8ff" stroke="#63b8ff" points="739.42,-361.12 737.45,-350.7 732.5,-360.07 739.42,-361.12"/>
</a>
</g>
</g>
<!-- Node11 -->
<g id="Node000011" class="node">
<title>Node11</title>
<g id="a_Node000011"><a xlink:href="app_8c.html#ac0548585a38e60685454f9d017aa15f5" target="_top" xlink:title=" ">
<polygon fill="white" stroke="#666666" points="670,-443.75 602.25,-443.75 602.25,-423 670,-423 670,-443.75"/>
<text text-anchor="middle" x="636.12" y="-430.25" font-family="Helvetica,sans-Serif" font-size="10.00">w2c__f257</text>
</a>
</g>
</g>
<!-- Node1&#45;&gt;Node11 -->
<g id="edge10_Node000001_Node000011" class="edge">
<title>Node1&#45;&gt;Node11</title>
<g id="a_edge10_Node000001_Node000011"><a xlink:title=" ">
<path fill="none" stroke="#63b8ff" d="M722.07,-357.4C708.6,-372.22 688.89,-392.95 670,-409.38 664.67,-414.01 658.48,-418.69 652.93,-422.67"/>
<polygon fill="#63b8ff" stroke="#63b8ff" points="724.49,-359.94 728.57,-350.16 719.29,-355.26 724.49,-359.94"/>
</a>
</g>
</g>
<!-- Node12 -->
<g id="Node000012" class="node">
<title>Node12</title>
<g id="a_Node000012"><a xlink:href="app_8c.html#a980a551daeb256397f01e6faa91d49db" target="_top" xlink:title=" ">
<polygon fill="white" stroke="#666666" points="566.25,-329.75 498.5,-329.75 498.5,-309 566.25,-309 566.25,-329.75"/>
<text text-anchor="middle" x="532.38" y="-316.25" font-family="Helvetica,sans-Serif" font-size="10.00">w2c__f403</text>
</a>
</g>
</g>
<!-- Node1&#45;&gt;Node12 -->
<g id="edge35_Node000001_Node000012" class="edge">
<title>Node1&#45;&gt;Node12</title>
<g id="a_edge35_Node000001_Node000012"><a xlink:title=" ">
<path fill="none" stroke="#63b8ff" d="M694.5,-334.27C656.09,-330.72 601.4,-325.66 566.65,-322.45"/>
<polygon fill="#63b8ff" stroke="#63b8ff" points="694.07,-337.75 704.35,-335.18 694.72,-330.78 694.07,-337.75"/>
</a>
</g>
</g>
<!-- Node20 -->
<g id="Node000020" class="node">
<title>Node20</title>
<g id="a_Node000020"><a xlink:href="app_8c.html#a268eebcea573fce720709e588959d401" target="_top" xlink:title=" ">
<polygon fill="white" stroke="#666666" points="255,-328.75 187.25,-328.75 187.25,-308 255,-308 255,-328.75"/>
<text text-anchor="middle" x="221.12" y="-315.25" font-family="Helvetica,sans-Serif" font-size="10.00">w2c__f568</text>
</a>
</g>
</g>
<!-- Node1&#45;&gt;Node20 -->
<g id="edge58_Node000001_Node000020" class="edge">
<title>Node1&#45;&gt;Node20</title>
<g id="a_edge58_Node000001_Node000020"><a xlink:title=" ">
<path fill="none" stroke="#63b8ff" d="M717.32,-320.75C681.48,-293.28 606.31,-243.38 533.38,-243.38 533.38,-243.38 533.38,-243.38 427.62,-243.38 353.57,-243.38 273.1,-286.89 238.95,-307.63"/>
<polygon fill="#63b8ff" stroke="#63b8ff" points="715.14,-323.49 725.17,-326.91 719.46,-317.98 715.14,-323.49"/>
</a>
</g>
</g>
<!-- Node21 -->
<g id="Node000021" class="node">
<title>Node21</title>
<g id="a_Node000021"><a xlink:href="app_8c.html#a96302817f96aee4b42b2d1383eb34b00" target="_top" xlink:title=" ">
<polygon fill="white" stroke="#666666" points="566.25,-368.75 498.5,-368.75 498.5,-348 566.25,-348 566.25,-368.75"/>
<text text-anchor="middle" x="532.38" y="-355.25" font-family="Helvetica,sans-Serif" font-size="10.00">w2c__f462</text>
</a>
</g>
</g>
<!-- Node1&#45;&gt;Node21 -->
<g id="edge42_Node000001_Node000021" class="edge">
<title>Node1&#45;&gt;Node21</title>
<g id="a_edge42_Node000001_Node000021"><a xlink:title=" ">
<path fill="none" stroke="#63b8ff" d="M715.13,-355.39C702.4,-363.46 686.07,-372.24 670,-376.38 634.55,-385.5 592.67,-377.29 564.71,-369.21"/>
<polygon fill="#63b8ff" stroke="#63b8ff" points="716.84,-358.46 723.23,-350.01 712.96,-352.63 716.84,-358.46"/>
</a>
</g>
</g>
<!-- Node22 -->
<g id="Node000022" class="node">
<title>Node22</title>
<g id="a_Node000022"><a xlink:href="app_8c.html#a05d83e696cfaa26355c9732ee9ea4cd0" target="_top" xlink:title=" ">
<polygon fill="white" stroke="#666666" points="462.5,-291.75 394.75,-291.75 394.75,-271 462.5,-271 462.5,-291.75"/>
<text text-anchor="middle" x="428.62" y="-278.25" font-family="Helvetica,sans-Serif" font-size="10.00">w2c__f454</text>
</a>
</g>
</g>
<!-- Node1&#45;&gt;Node22 -->
<g id="edge41_Node000001_Node000022" class="edge">
<title>Node1&#45;&gt;Node22</title>
<g id="a_edge41_Node000001_Node000022"><a xlink:title=" ">
<path fill="none" stroke="#63b8ff" d="M694.42,-327.91C686.3,-326.04 677.9,-324.13 670,-322.38 623.99,-312.15 612.68,-308.52 566.25,-300.38 531.1,-294.21 490.59,-288.79 462.86,-285.33"/>
<polygon fill="#63b8ff" stroke="#63b8ff" points="693.62,-331.32 704.15,-330.17 695.2,-324.5 693.62,-331.32"/>
</a>
</g>
</g>
<!-- Node23 -->
<g id="Node000023" class="node">
<title>Node23</title>
<g id="a_Node000023"><a xlink:href="app_8c.html#a56cf0f5815986424476e939e9eff4a5d" target="_top" xlink:title=" ">
<polygon fill="white" stroke="#666666" points="670,-675.75 602.25,-675.75 602.25,-655 670,-655 670,-675.75"/>
<text text-anchor="middle" x="636.12" y="-662.25" font-family="Helvetica,sans-Serif" font-size="10.00">w2c__f309</text>
</a>
</g>
</g>
<!-- Node1&#45;&gt;Node23 -->
<g id="edge27_Node000001_Node000023" class="edge">
<title>Node1&#45;&gt;Node23</title>
<g id="a_edge27_Node000001_Node000023"><a xlink:title=" ">
<path fill="none" stroke="#63b8ff" d="M735.29,-360.33C727.24,-407.02 705.58,-519.11 670,-607.38 662.99,-624.77 651.69,-643.37 644.33,-654.69"/>
<polygon fill="#63b8ff" stroke="#63b8ff" points="738.71,-361.14 736.91,-350.7 731.8,-359.98 738.71,-361.14"/>
</a>
</g>
</g>
<!-- Node27 -->
<g id="Node000027" class="node">
<title>Node27</title>
<g id="a_Node000027"><a xlink:href="app_8c.html#aaf060205e2633da24de46e4de36d2ec3" target="_top" xlink:title=" ">
<polygon fill="white" stroke="#666666" points="670,-367.75 602.25,-367.75 602.25,-347 670,-347 670,-367.75"/>
<text text-anchor="middle" x="636.12" y="-354.25" font-family="Helvetica,sans-Serif" font-size="10.00">w2c__f417</text>
</a>
</g>
</g>
<!-- Node1&#45;&gt;Node27 -->
<g id="edge36_Node000001_Node000027" class="edge">
<title>Node1&#45;&gt;Node27</title>
<g id="a_edge36_Node000001_Node000027"><a xlink:title=" ">
<path fill="none" stroke="#63b8ff" d="M694.32,-346.69C686.21,-348.21 677.88,-349.77 670.17,-351.2"/>
<polygon fill="#63b8ff" stroke="#63b8ff" points="694.88,-350.15 704.07,-344.87 693.6,-343.27 694.88,-350.15"/>
</a>
</g>
</g>
<!-- Node28 -->
<g id="Node000028" class="node">
<title>Node28</title>
<g id="a_Node000028"><a xlink:href="app_8c.html#affed7b4e730191b8eb2ae859a9d3e4b2" target="_top" xlink:title=" ">
<polygon fill="white" stroke="#666666" points="670,-176.75 602.25,-176.75 602.25,-156 670,-156 670,-176.75"/>
<text text-anchor="middle" x="636.12" y="-163.25" font-family="Helvetica,sans-Serif" font-size="10.00">w2c__f426</text>
</a>
</g>
</g>
<!-- Node1&#45;&gt;Node28 -->
<g id="edge39_Node000001_Node000028" class="edge">
<title>Node1&#45;&gt;Node28</title>
<g id="a_edge39_Node000001_Node000028"><a xlink:title=" ">
<path fill="none" stroke="#63b8ff" d="M733.42,-316.51C724.6,-284.76 704.59,-225.43 670,-186.38 666.9,-182.87 663.04,-179.79 659.06,-177.16"/>
<polygon fill="#63b8ff" stroke="#63b8ff" points="730.03,-317.35 735.97,-326.12 736.79,-315.56 730.03,-317.35"/>
</a>
</g>
</g>
<!-- Node29 -->
<g id="Node000029" class="node">
<title>Node29</title>
<g id="a_Node000029"><a xlink:href="app_8c.html#aeab4e13658d5ad2b48b7d44acc8ceaf7" target="_top" xlink:title=" ">
<polygon fill="white" stroke="#666666" points="670,-137.75 602.25,-137.75 602.25,-117 670,-117 670,-137.75"/>
<text text-anchor="middle" x="636.12" y="-124.25" font-family="Helvetica,sans-Serif" font-size="10.00">w2c__f453</text>
</a>
</g>
</g>
<!-- Node1&#45;&gt;Node29 -->
<g id="edge40_Node000001_Node000029" class="edge">
<title>Node1&#45;&gt;Node29</title>
<g id="a_edge40_Node000001_Node000029"><a xlink:title=" ">
<path fill="none" stroke="#63b8ff" d="M735.82,-316.38C729.55,-278.21 712.09,-198.87 670,-147.38 667.13,-143.86 663.46,-140.8 659.62,-138.2"/>
<polygon fill="#63b8ff" stroke="#63b8ff" points="732.34,-316.79 737.31,-326.15 739.26,-315.73 732.34,-316.79"/>
</a>
</g>
</g>
<!-- Node30 -->
<g id="Node000030" class="node">
<title>Node30</title>
<g id="a_Node000030"><a xlink:href="app_8c.html#a6a5f2eef787a92202f51353c5f79de51" target="_top" xlink:title=" ">
<polygon fill="white" stroke="#666666" points="670,-482.75 602.25,-482.75 602.25,-462 670,-462 670,-482.75"/>
<text text-anchor="middle" x="636.12" y="-469.25" font-family="Helvetica,sans-Serif" font-size="10.00">w2c__f467</text>
</a>
</g>
</g>
<!-- Node1&#45;&gt;Node30 -->
<g id="edge43_Node000001_Node000030" class="edge">
<title>Node1&#45;&gt;Node30</title>
<g id="a_edge43_Node000001_Node000030"><a xlink:title=" ">
<path fill="none" stroke="#63b8ff" d="M730.02,-359.25C718.82,-383.78 697.62,-424.67 670,-452.38 666.6,-455.78 662.52,-458.85 658.4,-461.51"/>
<polygon fill="#63b8ff" stroke="#63b8ff" points="733.12,-360.88 733.96,-350.32 726.72,-358.05 733.12,-360.88"/>
</a>
</g>
</g>
<!-- Node32 -->
<g id="Node000032" class="node">
<title>Node32</title>
<g id="a_Node000032"><a xlink:href="app_8c.html#aebbd549da829c7fa6e8d8ecdb0881218" target="_top" xlink:title=" ">
<polygon fill="white" stroke="#666666" points="670,-98.75 602.25,-98.75 602.25,-78 670,-78 670,-98.75"/>
<text text-anchor="middle" x="636.12" y="-85.25" font-family="Helvetica,sans-Serif" font-size="10.00">w2c__f482</text>
</a>
</g>
</g>
<!-- Node1&#45;&gt;Node32 -->
<g id="edge47_Node000001_Node000032" class="edge">
<title>Node1&#45;&gt;Node32</title>
<g id="a_edge47_Node000001_Node000032"><a xlink:title=" ">
<path fill="none" stroke="#63b8ff" d="M737.46,-316.23C733.61,-272.25 719.62,-172.63 670,-108.38 667.22,-104.78 663.6,-101.68 659.78,-99.07"/>
<polygon fill="#63b8ff" stroke="#63b8ff" points="733.95,-316.32 738.21,-326.03 740.93,-315.79 733.95,-316.32"/>
</a>
</g>
</g>
<!-- Node33 -->
<g id="Node000033" class="node">
<title>Node33</title>
<g id="a_Node000033"><a xlink:href="app_8c.html#a5e8ebcb374cf6f9becc37f51cd9ebc0e" target="_top" xlink:title=" ">
<polygon fill="white" stroke="#666666" points="670,-598.75 602.25,-598.75 602.25,-578 670,-578 670,-598.75"/>
<text text-anchor="middle" x="636.12" y="-585.25" font-family="Helvetica,sans-Serif" font-size="10.00">w2c__f500</text>
</a>
</g>
</g>
<!-- Node1&#45;&gt;Node33 -->
<g id="edge48_Node000001_Node000033" class="edge">
<title>Node1&#45;&gt;Node33</title>
<g id="a_edge48_Node000001_Node000033"><a xlink:title=" ">
<path fill="none" stroke="#63b8ff" d="M736.85,-360.07C731.94,-402.82 716.19,-499.4 670,-564.38 666.32,-569.56 661.16,-574.06 656.02,-577.73"/>
<polygon fill="#63b8ff" stroke="#63b8ff" points="740.31,-360.67 737.87,-350.36 733.35,-359.94 740.31,-360.67"/>
</a>
</g>
</g>
<!-- Node38 -->
<g id="Node000038" class="node">
<title>Node38</title>
<g id="a_Node000038"><a xlink:href="app_8c.html#a2c3365dd42361e00ddd0f3f0b4787e6c" target="_top" xlink:title=" ">
<polygon fill="white" stroke="#666666" points="670,-59.75 602.25,-59.75 602.25,-39 670,-39 670,-59.75"/>
<text text-anchor="middle" x="636.12" y="-46.25" font-family="Helvetica,sans-Serif" font-size="10.00">w2c__f514</text>
</a>
</g>
</g>
<!-- Node1&#45;&gt;Node38 -->
<g id="edge55_Node000001_Node000038" class="edge">
<title>Node1&#45;&gt;Node38</title>
<g id="a_edge55_Node000001_Node000038"><a xlink:title=" ">
<path fill="none" stroke="#63b8ff" d="M738.66,-316.26C737.11,-267.05 727.28,-146.72 670,-69.38 667.38,-65.83 663.92,-62.79 660.23,-60.22"/>
<polygon fill="#63b8ff" stroke="#63b8ff" points="735.16,-316.23 738.87,-326.16 742.16,-316.08 735.16,-316.23"/>
</a>
</g>
</g>
<!-- Node40 -->
<g id="Node000040" class="node">
<title>Node40</title>
<g id="a_Node000040"><a xlink:href="app_8c.html#a05835d66b1e582733f9da1f3d4f3b19f" target="_top" xlink:title=" ">
<polygon fill="white" stroke="#666666" points="670,-20.75 602.25,-20.75 602.25,0 670,0 670,-20.75"/>
<text text-anchor="middle" x="636.12" y="-7.25" font-family="Helvetica,sans-Serif" font-size="10.00">w2c__f517</text>
</a>
</g>
</g>
<!-- Node1&#45;&gt;Node40 -->
<g id="edge57_Node000001_Node000040" class="edge">
<title>Node1&#45;&gt;Node40</title>
<g id="a_edge57_Node000001_Node000040"><a xlink:title=" ">
<path fill="none" stroke="#63b8ff" d="M739.57,-316.4C740.18,-262.4 735.04,-121.06 670,-30.38 667.43,-26.79 664,-23.73 660.33,-21.15"/>
<polygon fill="#63b8ff" stroke="#63b8ff" points="736.08,-316.04 739.37,-326.11 743.08,-316.19 736.08,-316.04"/>
</a>
</g>
</g>
<!-- Node3 -->
<g id="Node000003" class="node">
<title>Node3</title>
<g id="a_Node000003"><a xlink:href="app_8c.html#aac449994afd8488e2efd16fb19f0ecb1" target="_top" xlink:title=" ">
<polygon fill="white" stroke="#666666" points="358.75,-712.75 291,-712.75 291,-692 358.75,-692 358.75,-712.75"/>
<text text-anchor="middle" x="324.88" y="-699.25" font-family="Helvetica,sans-Serif" font-size="10.00">w2c__f336</text>
</a>
</g>
</g>
<!-- Node2&#45;&gt;Node3 -->
<g id="edge2_Node000002_Node000003" class="edge">
<title>Node2&#45;&gt;Node3</title>
<g id="a_edge2_Node000002_Node000003"><a xlink:title=" ">
<path fill="none" stroke="#63b8ff" d="M498.4,-793.32C469.55,-804.05 427.28,-813.97 394.75,-797.38 359.55,-779.42 338.14,-734.12 329.84,-713.23"/>
<polygon fill="#63b8ff" stroke="#63b8ff" points="499.33,-796.71 507.34,-789.77 496.76,-790.2 499.33,-796.71"/>
</a>
</g>
</g>
<!-- Node4 -->
<g id="Node000004" class="node">
<title>Node4</title>
<g id="a_Node000004"><a xlink:href="app_8c.html#ac863989691d4c389f80374209c220171" target="_top" xlink:title=" ">
<polygon fill="white" stroke="#666666" points="252.38,-712.75 189.88,-712.75 189.88,-692 252.38,-692 252.38,-712.75"/>
<text text-anchor="middle" x="221.12" y="-699.25" font-family="Helvetica,sans-Serif" font-size="10.00">w2c__c_0</text>
</a>
</g>
</g>
<!-- Node3&#45;&gt;Node4 -->
<g id="edge3_Node000003_Node000004" class="edge">
<title>Node3&#45;&gt;Node4</title>
<g id="a_edge3_Node000003_Node000004"><a xlink:title=" ">
<path fill="none" stroke="#63b8ff" d="M279.1,-702.38C270.2,-702.38 261.05,-702.38 252.76,-702.38"/>
<polygon fill="#63b8ff" stroke="#63b8ff" points="279.04,-705.88 289.04,-702.38 279.04,-698.88 279.04,-705.88"/>
</a>
</g>
</g>
<!-- Node3&#45;&gt;Node6 -->
<g id="edge5_Node000003_Node000006" class="edge">
<title>Node3&#45;&gt;Node6</title>
<g id="a_edge5_Node000003_Node000006"><a xlink:title=" ">
<path fill="none" stroke="#63b8ff" d="M298.91,-684.84C296.19,-682.73 293.5,-680.55 291,-678.38 268.19,-658.55 244.19,-632.42 231.42,-618.03"/>
<polygon fill="#63b8ff" stroke="#63b8ff" points="296.75,-687.6 306.86,-690.76 300.92,-681.98 296.75,-687.6"/>
</a>
</g>
</g>
<!-- Node5 -->
<g id="Node000005" class="node">
<title>Node5</title>
<g id="a_Node000005"><a xlink:href="app_8c.html#ab1e039392ea68017ab8a6063263b147d" target="_top" xlink:title=" ">
<polygon fill="white" stroke="#666666" points="145.25,-712.75 94,-712.75 94,-692 145.25,-692 145.25,-712.75"/>
<text text-anchor="middle" x="119.62" y="-699.25" font-family="Helvetica,sans-Serif" font-size="10.00">w2c__c</text>
</a>
</g>
</g>
<!-- Node4&#45;&gt;Node5 -->
<g id="edge4_Node000004_Node000005" class="edge">
<title>Node4&#45;&gt;Node5</title>
<g id="a_edge4_Node000004_Node000005"><a xlink:title=" ">
<path fill="none" stroke="#63b8ff" d="M178.21,-702.38C167.15,-702.38 155.55,-702.38 145.68,-702.38"/>
<polygon fill="#63b8ff" stroke="#63b8ff" points="177.95,-705.88 187.95,-702.38 177.95,-698.88 177.95,-705.88"/>
</a>
</g>
</g>
<!-- Node7 -->
<g id="Node000007" class="node">
<title>Node7</title>
<g id="a_Node000007"><a xlink:href="app_8c.html#a26657f10c51f10eeb57a4d27606a6885" target="_top" xlink:title=" ">
<polygon fill="white" stroke="#666666" points="151.25,-617.75 88,-617.75 88,-597 151.25,-597 151.25,-617.75"/>
<text text-anchor="middle" x="119.62" y="-604.25" font-family="Helvetica,sans-Serif" font-size="10.00">w2c__b_0</text>
</a>
</g>
</g>
<!-- Node6&#45;&gt;Node7 -->
<g id="edge6_Node000006_Node000007" class="edge">
<title>Node6&#45;&gt;Node7</title>
<g id="a_edge6_Node000006_Node000007"><a xlink:title=" ">
<path fill="none" stroke="#63b8ff" d="M175.71,-607.38C167.57,-607.38 159.23,-607.38 151.59,-607.38"/>
<polygon fill="#63b8ff" stroke="#63b8ff" points="175.48,-610.88 185.48,-607.38 175.48,-603.88 175.48,-610.88"/>
</a>
</g>
</g>
<!-- Node8 -->
<g id="Node000008" class="node">
<title>Node8</title>
<g id="a_Node000008"><a xlink:href="app_8c.html#a683a2045346c3209e9dac20d55933c7d" target="_top" xlink:title=" ">
<polygon fill="white" stroke="#666666" points="52,-617.75 0,-617.75 0,-597 52,-597 52,-617.75"/>
<text text-anchor="middle" x="26" y="-604.25" font-family="Helvetica,sans-Serif" font-size="10.00">w2c__b</text>
</a>
</g>
</g>
<!-- Node7&#45;&gt;Node8 -->
<g id="edge7_Node000007_Node000008" class="edge">
<title>Node7&#45;&gt;Node8</title>
<g id="a_edge7_Node000007_Node000008"><a xlink:title=" ">
<path fill="none" stroke="#63b8ff" d="M76.21,-607.38C68,-607.38 59.65,-607.38 52.21,-607.38"/>
<polygon fill="#63b8ff" stroke="#63b8ff" points="76.09,-610.88 86.09,-607.38 76.09,-603.88 76.09,-610.88"/>
</a>
</g>
</g>
<!-- Node11&#45;&gt;Node12 -->
<g id="edge11_Node000011_Node000012" class="edge">
<title>Node11&#45;&gt;Node12</title>
<g id="a_edge11_Node000011_Node000012"><a xlink:title=" ">
<path fill="none" stroke="#63b8ff" d="M623.44,-412.95C611.1,-392.59 590.13,-361.29 566.25,-339.38 562.51,-335.94 558.09,-332.78 553.73,-330.04"/>
<polygon fill="#63b8ff" stroke="#63b8ff" points="620.36,-414.61 628.46,-421.44 626.39,-411.05 620.36,-414.61"/>
</a>
</g>
</g>
<!-- Node13 -->
<g id="Node000013" class="node">
<title>Node13</title>
<g id="a_Node000013"><a xlink:href="app_8c.html#a244f0f30c84eab69a2b40f0be3dd065c" target="_top" xlink:title=" ">
<polygon fill="white" stroke="#666666" points="566.25,-407.75 498.5,-407.75 498.5,-387 566.25,-387 566.25,-407.75"/>
<text text-anchor="middle" x="532.38" y="-394.25" font-family="Helvetica,sans-Serif" font-size="10.00">w2c__f445</text>
</a>
</g>
</g>
<!-- Node11&#45;&gt;Node13 -->
<g id="edge12_Node000011_Node000013" class="edge">
<title>Node11&#45;&gt;Node13</title>
<g id="a_edge12_Node000011_Node000013"><a xlink:title=" ">
<path fill="none" stroke="#63b8ff" d="M593.97,-418.81C583.92,-415.26 573.34,-411.51 563.88,-408.17"/>
<polygon fill="#63b8ff" stroke="#63b8ff" points="592.58,-422.03 603.17,-422.07 594.91,-415.43 592.58,-422.03"/>
</a>
</g>
</g>
<!-- Node11&#45;&gt;Node21 -->
<g id="edge24_Node000011_Node000021" class="edge">
<title>Node11&#45;&gt;Node21</title>
<g id="a_edge24_Node000011_Node000021"><a xlink:title=" ">
<path fill="none" stroke="#63b8ff" d="M610.79,-415.95C607.89,-413.77 604.98,-411.55 602.25,-409.38 585.71,-396.25 583.33,-390.79 566.25,-378.38 561.82,-375.15 556.85,-371.94 552.15,-369.07"/>
<polygon fill="#63b8ff" stroke="#63b8ff" points="608.53,-418.63 618.66,-421.74 612.68,-412.99 608.53,-418.63"/>
</a>
</g>
</g>
<!-- Node13&#45;&gt;Node3 -->
<g id="edge15_Node000013_Node000003" class="edge">
<title>Node13&#45;&gt;Node3</title>
<g id="a_edge15_Node000013_Node000003"><a xlink:title=" ">
<path fill="none" stroke="#63b8ff" d="M502.45,-414.35C501.09,-415.34 499.77,-416.35 498.5,-417.38 480.4,-431.99 480.85,-441.08 462.5,-455.38 435.26,-476.59 416.53,-466.59 394.75,-493.38 361.23,-534.6 375.44,-556.93 358.75,-607.38 348.61,-638.03 335.96,-673.99 329.72,-691.58"/>
<polygon fill="#63b8ff" stroke="#63b8ff" points="504.05,-417.49 510.42,-409.03 500.16,-411.67 504.05,-417.49"/>
</a>
</g>
</g>
<!-- Node14 -->
<g id="Node000014" class="node">
<title>Node14</title>
<g id="a_Node000014"><a xlink:href="app_8c.html#a9a9275782eb97e6525073f99d900b184" target="_top" xlink:title=" ">
<polygon fill="white" stroke="#666666" points="255,-522.75 187.25,-522.75 187.25,-502 255,-502 255,-522.75"/>
<text text-anchor="middle" x="221.12" y="-509.25" font-family="Helvetica,sans-Serif" font-size="10.00">w2c__f217</text>
</a>
</g>
</g>
<!-- Node13&#45;&gt;Node14 -->
<g id="edge13_Node000013_Node000014" class="edge">
<title>Node13&#45;&gt;Node14</title>
<g id="a_edge13_Node000013_Node000014"><a xlink:title=" ">
<path fill="none" stroke="#63b8ff" d="M493.85,-383.02C465.88,-374.49 427.11,-367.29 394.75,-378.38 321.17,-403.58 254.74,-474.35 231.19,-501.54"/>
<polygon fill="#63b8ff" stroke="#63b8ff" points="492.71,-386.33 503.31,-386.11 494.89,-379.68 492.71,-386.33"/>
</a>
</g>
</g>
<!-- Node15 -->
<g id="Node000015" class="node">
<title>Node15</title>
<g id="a_Node000015"><a xlink:href="app_8c.html#aafc3f1a435e4fcbbd851eadbe493c093" target="_top" xlink:title=" ">
<polygon fill="white" stroke="#666666" points="462.5,-446.75 394.75,-446.75 394.75,-426 462.5,-426 462.5,-446.75"/>
<text text-anchor="middle" x="428.62" y="-433.25" font-family="Helvetica,sans-Serif" font-size="10.00">w2c__f221</text>
</a>
</g>
</g>
<!-- Node13&#45;&gt;Node15 -->
<g id="edge14_Node000013_Node000015" class="edge">
<title>Node13&#45;&gt;Node15</title>
<g id="a_edge14_Node000013_Node000015"><a xlink:title=" ">
<path fill="none" stroke="#63b8ff" d="M492.35,-412.33C480.85,-416.74 468.49,-421.48 457.82,-425.57"/>
<polygon fill="#63b8ff" stroke="#63b8ff" points="493.53,-415.63 501.62,-408.78 491.03,-409.09 493.53,-415.63"/>
</a>
</g>
</g>
<!-- Node16 -->
<g id="Node000016" class="node">
<title>Node16</title>
<g id="a_Node000016"><a xlink:href="app_8c.html#afb3fbfc35abe0f21d554f326b79a0b76" target="_top" xlink:title=" ">
<polygon fill="white" stroke="#666666" points="462.5,-407.75 394.75,-407.75 394.75,-387 462.5,-387 462.5,-407.75"/>
<text text-anchor="middle" x="428.62" y="-394.25" font-family="Helvetica,sans-Serif" font-size="10.00">w2c__f494</text>
</a>
</g>
</g>
<!-- Node13&#45;&gt;Node16 -->
<g id="edge16_Node000013_Node000016" class="edge">
<title>Node13&#45;&gt;Node16</title>
<g id="a_edge16_Node000013_Node000016"><a xlink:title=" ">
<path fill="none" stroke="#63b8ff" d="M486.82,-397.38C478.71,-397.38 470.38,-397.38 462.67,-397.38"/>
<polygon fill="#63b8ff" stroke="#63b8ff" points="486.54,-400.88 496.54,-397.38 486.54,-393.88 486.54,-400.88"/>
</a>
</g>
</g>
<!-- Node13&#45;&gt;Node20 -->
<g id="edge23_Node000013_Node000020" class="edge">
<title>Node13&#45;&gt;Node20</title>
<g id="a_edge23_Node000013_Node000020"><a xlink:title=" ">
<path fill="none" stroke="#63b8ff" d="M502.66,-380.34C501.24,-379.36 499.84,-378.37 498.5,-377.38 481.29,-364.65 482.05,-354.09 462.5,-345.38 393.65,-314.69 303.17,-313.76 255.25,-315.95"/>
<polygon fill="#63b8ff" stroke="#63b8ff" points="500.65,-383.2 510.95,-385.7 504.45,-377.33 500.65,-383.2"/>
</a>
</g>
</g>
<!-- Node16&#45;&gt;Node3 -->
<g id="edge17_Node000016_Node000003" class="edge">
<title>Node16&#45;&gt;Node3</title>
<g id="a_edge17_Node000016_Node000003"><a xlink:title=" ">
<path fill="none" stroke="#63b8ff" d="M395.99,-415.72C395.56,-416.26 395.14,-416.81 394.75,-417.38 345.81,-488.03 380.86,-524.32 358.75,-607.38 350.44,-638.58 336.97,-674.29 330.14,-691.71"/>
<polygon fill="#63b8ff" stroke="#63b8ff" points="398.2,-418.44 403.21,-409.1 393.47,-413.28 398.2,-418.44"/>
</a>
</g>
</g>
<!-- Node17 -->
<g id="Node000017" class="node">
<title>Node17</title>
<g id="a_Node000017"><a xlink:href="app_8c.html#a25b43587c2e4a3802eb8256f469ef5ab" target="_top" xlink:title=" ">
<polygon fill="white" stroke="#666666" points="358.75,-367.75 291,-367.75 291,-347 358.75,-347 358.75,-367.75"/>
<text text-anchor="middle" x="324.88" y="-354.25" font-family="Helvetica,sans-Serif" font-size="10.00">w2c__f531</text>
</a>
</g>
</g>
<!-- Node16&#45;&gt;Node17 -->
<g id="edge18_Node000016_Node000017" class="edge">
<title>Node16&#45;&gt;Node17</title>
<g id="a_edge18_Node000016_Node000017"><a xlink:title=" ">
<path fill="none" stroke="#63b8ff" d="M389.46,-382.37C377.49,-377.67 364.52,-372.57 353.43,-368.21"/>
<polygon fill="#63b8ff" stroke="#63b8ff" points="388.09,-385.6 398.68,-386 390.66,-379.08 388.09,-385.6"/>
</a>
</g>
</g>
<!-- Node17&#45;&gt;Node14 -->
<g id="edge19_Node000017_Node000014" class="edge">
<title>Node17&#45;&gt;Node14</title>
<g id="a_edge19_Node000017_Node000014"><a xlink:title=" ">
<path fill="none" stroke="#63b8ff" d="M297.14,-375.19C294.95,-377.15 292.86,-379.22 291,-381.38 257.59,-420.08 234.5,-477.77 225.88,-501.54"/>
<polygon fill="#63b8ff" stroke="#63b8ff" points="299.06,-378.14 304.73,-369.18 294.72,-372.65 299.06,-378.14"/>
</a>
</g>
</g>
<!-- Node18 -->
<g id="Node000018" class="node">
<title>Node18</title>
<g id="a_Node000018"><a xlink:href="app_8c.html#a0b804502e637fa2897681579fae890af" target="_top" xlink:title=" ">
<polygon fill="white" stroke="#666666" points="255,-367.75 187.25,-367.75 187.25,-347 255,-347 255,-367.75"/>
<text text-anchor="middle" x="221.12" y="-354.25" font-family="Helvetica,sans-Serif" font-size="10.00">w2c__f233</text>
</a>
</g>
</g>
<!-- Node17&#45;&gt;Node18 -->
<g id="edge20_Node000017_Node000018" class="edge">
<title>Node17&#45;&gt;Node18</title>
<g id="a_edge20_Node000017_Node000018"><a xlink:title=" ">
<path fill="none" stroke="#63b8ff" d="M279.32,-357.38C271.21,-357.38 262.88,-357.38 255.17,-357.38"/>
<polygon fill="#63b8ff" stroke="#63b8ff" points="279.04,-360.88 289.04,-357.38 279.04,-353.88 279.04,-360.88"/>
</a>
</g>
</g>
<!-- Node19 -->
<g id="Node000019" class="node">
<title>Node19</title>
<g id="a_Node000019"><a xlink:href="app_8c.html#a13a282f739b6944dad1977039f3fadde" target="_top" xlink:title=" ">
<polygon fill="white" stroke="#666666" points="255,-406.75 187.25,-406.75 187.25,-386 255,-386 255,-406.75"/>
<text text-anchor="middle" x="221.12" y="-393.25" font-family="Helvetica,sans-Serif" font-size="10.00">w2c__f420</text>
</a>
</g>
</g>
<!-- Node17&#45;&gt;Node19 -->
<g id="edge21_Node000017_Node000019" class="edge">
<title>Node17&#45;&gt;Node19</title>
<g id="a_edge21_Node000017_Node000019"><a xlink:title=" ">
<path fill="none" stroke="#63b8ff" d="M284.85,-372.33C273.35,-376.74 260.99,-381.48 250.32,-385.57"/>
<polygon fill="#63b8ff" stroke="#63b8ff" points="286.03,-375.63 294.12,-368.78 283.53,-369.09 286.03,-375.63"/>
</a>
</g>
</g>
<!-- Node17&#45;&gt;Node20 -->
<g id="edge22_Node000017_Node000020" class="edge">
<title>Node17&#45;&gt;Node20</title>
<g id="a_edge22_Node000017_Node000020"><a xlink:title=" ">
<path fill="none" stroke="#63b8ff" d="M284.85,-342.42C273.35,-338.01 260.99,-333.27 250.32,-329.18"/>
<polygon fill="#63b8ff" stroke="#63b8ff" points="283.53,-345.66 294.12,-345.97 286.03,-339.12 283.53,-345.66"/>
</a>
</g>
</g>
<!-- Node21&#45;&gt;Node10 -->
<g id="edge25_Node000021_Node000010" class="edge">
<title>Node21&#45;&gt;Node10</title>
<g id="a_edge25_Node000021_Node000010"><a xlink:title=" ">
<path fill="none" stroke="#63b8ff" d="M500.65,-376.15C499.9,-376.87 499.18,-377.61 498.5,-378.38 473.28,-406.51 479.95,-421.87 462.5,-455.38 453.95,-471.79 443.06,-490.25 436.21,-501.6"/>
<polygon fill="#63b8ff" stroke="#63b8ff" points="502.6,-379.07 508.28,-370.13 498.26,-373.57 502.6,-379.07"/>
</a>
</g>
</g>
<!-- Node21&#45;&gt;Node22 -->
<g id="edge26_Node000021_Node000022" class="edge">
<title>Node21&#45;&gt;Node22</title>
<g id="a_edge26_Node000021_Node000022"><a xlink:title=" ">
<path fill="none" stroke="#63b8ff" d="M502.64,-341.36C501.22,-340.38 499.84,-339.38 498.5,-338.38 481.15,-325.34 479.29,-319.13 462.5,-305.38 456.92,-300.81 450.57,-296.07 444.95,-292.02"/>
<polygon fill="#63b8ff" stroke="#63b8ff" points="500.62,-344.22 510.92,-346.74 504.44,-338.35 500.62,-344.22"/>
</a>
</g>
</g>
<!-- Node24 -->
<g id="Node000024" class="node">
<title>Node24</title>
<g id="a_Node000024"><a xlink:href="app_8c.html#a1c7038018ee178d8e5d0373088d76cda" target="_top" xlink:title=" ">
<polygon fill="white" stroke="#666666" points="566.25,-712.75 498.5,-712.75 498.5,-692 566.25,-692 566.25,-712.75"/>
<text text-anchor="middle" x="532.38" y="-699.25" font-family="Helvetica,sans-Serif" font-size="10.00">w2c__f521</text>
</a>
</g>
</g>
<!-- Node23&#45;&gt;Node24 -->
<g id="edge28_Node000023_Node000024" class="edge">
<title>Node23&#45;&gt;Node24</title>
<g id="a_edge28_Node000023_Node000024"><a xlink:title=" ">
<path fill="none" stroke="#63b8ff" d="M594.69,-680.08C584.09,-683.93 572.85,-688.02 562.94,-691.62"/>
<polygon fill="#63b8ff" stroke="#63b8ff" points="595.8,-683.4 604,-676.69 593.4,-676.82 595.8,-683.4"/>
</a>
</g>
</g>
<!-- Node24&#45;&gt;Node3 -->
<g id="edge30_Node000024_Node000003" class="edge">
<title>Node24&#45;&gt;Node3</title>
<g id="a_edge30_Node000024_Node000003"><a xlink:title=" ">
<path fill="none" stroke="#63b8ff" d="M488.33,-716.16C479.85,-718.33 470.96,-720.23 462.5,-721.38 432.66,-725.42 424.59,-725.42 394.75,-721.38 382.58,-719.73 369.52,-716.51 358.08,-713.19"/>
<polygon fill="#63b8ff" stroke="#63b8ff" points="488.98,-719.6 497.71,-713.59 487.14,-712.85 488.98,-719.6"/>
</a>
</g>
</g>
<!-- Node24&#45;&gt;Node14 -->
<g id="edge29_Node000024_Node000014" class="edge">
<title>Node24&#45;&gt;Node14</title>
<g id="a_edge29_Node000024_Node000014"><a xlink:title=" ">
<path fill="none" stroke="#63b8ff" d="M487.69,-688.4C427.45,-668.58 322.71,-631.98 291,-607.38 260.26,-583.52 237.05,-542.38 227.25,-523.02"/>
<polygon fill="#63b8ff" stroke="#63b8ff" points="486.37,-691.65 496.96,-691.43 488.54,-684.99 486.37,-691.65"/>
</a>
</g>
</g>
<!-- Node25 -->
<g id="Node000025" class="node">
<title>Node25</title>
<g id="a_Node000025"><a xlink:href="app_8c.html#aa3f7fb2ace6a87e61320ef7401dfd66f" target="_top" xlink:title=" ">
<polygon fill="white" stroke="#666666" points="462.5,-712.75 394.75,-712.75 394.75,-692 462.5,-692 462.5,-712.75"/>
<text text-anchor="middle" x="428.62" y="-699.25" font-family="Helvetica,sans-Serif" font-size="10.00">w2c__f489</text>
</a>
</g>
</g>
<!-- Node24&#45;&gt;Node25 -->
<g id="edge31_Node000024_Node000025" class="edge">
<title>Node24&#45;&gt;Node25</title>
<g id="a_edge31_Node000024_Node000025"><a xlink:title=" ">
<path fill="none" stroke="#63b8ff" d="M486.82,-702.38C478.71,-702.38 470.38,-702.38 462.67,-702.38"/>
<polygon fill="#63b8ff" stroke="#63b8ff" points="486.54,-705.88 496.54,-702.38 486.54,-698.88 486.54,-705.88"/>
</a>
</g>
</g>
<!-- Node26 -->
<g id="Node000026" class="node">
<title>Node26</title>
<g id="a_Node000026"><a xlink:href="app_8c.html#aef5ae1a89492224c17bb0ebb875c84b6" target="_top" xlink:title=" ">
<polygon fill="white" stroke="#666666" points="462.5,-788.75 394.75,-788.75 394.75,-768 462.5,-768 462.5,-788.75"/>
<text text-anchor="middle" x="428.62" y="-775.25" font-family="Helvetica,sans-Serif" font-size="10.00">w2c__f532</text>
</a>
</g>
</g>
<!-- Node24&#45;&gt;Node26 -->
<g id="edge33_Node000024_Node000026" class="edge">
<title>Node24&#45;&gt;Node26</title>
<g id="a_edge33_Node000024_Node000026"><a xlink:title=" ">
<path fill="none" stroke="#63b8ff" d="M508.22,-720.01C494.89,-730.12 477.79,-743.02 462.5,-754.38 456.6,-758.76 450.07,-763.54 444.39,-767.67"/>
<polygon fill="#63b8ff" stroke="#63b8ff" points="510.13,-722.95 515.97,-714.11 505.89,-717.37 510.13,-722.95"/>
</a>
</g>
</g>
<!-- Node25&#45;&gt;Node3 -->
<g id="edge32_Node000025_Node000003" class="edge">
<title>Node25&#45;&gt;Node3</title>
<g id="a_edge32_Node000025_Node000003"><a xlink:title=" ">
<path fill="none" stroke="#63b8ff" d="M383.07,-702.38C374.96,-702.38 366.63,-702.38 358.92,-702.38"/>
<polygon fill="#63b8ff" stroke="#63b8ff" points="382.79,-705.88 392.79,-702.38 382.79,-698.88 382.79,-705.88"/>
</a>
</g>
</g>
<!-- Node27&#45;&gt;Node12 -->
<g id="edge37_Node000027_Node000012" class="edge">
<title>Node27&#45;&gt;Node12</title>
<g id="a_edge37_Node000027_Node000012"><a xlink:title=" ">
<path fill="none" stroke="#63b8ff" d="M595.51,-342.58C584.46,-338.45 572.65,-334.04 562.33,-330.19"/>
<polygon fill="#63b8ff" stroke="#63b8ff" points="594.23,-345.84 604.82,-346.06 596.68,-339.28 594.23,-345.84"/>
</a>
</g>
</g>
<!-- Node27&#45;&gt;Node21 -->
<g id="edge38_Node000027_Node000021" class="edge">
<title>Node27&#45;&gt;Node21</title>
<g id="a_edge38_Node000027_Node000021"><a xlink:title=" ">
<path fill="none" stroke="#63b8ff" d="M590.57,-357.81C582.46,-357.89 574.13,-357.97 566.42,-358.05"/>
<polygon fill="#63b8ff" stroke="#63b8ff" points="590.33,-361.32 600.29,-357.72 590.26,-354.32 590.33,-361.32"/>
</a>
</g>
</g>
<!-- Node30&#45;&gt;Node10 -->
<g id="edge44_Node000030_Node000010" class="edge">
<title>Node30&#45;&gt;Node10</title>
<g id="a_edge44_Node000030_Node000010"><a xlink:title=" ">
<path fill="none" stroke="#63b8ff" d="M590.67,-480.69C563.94,-485.73 529.25,-492.32 498.5,-498.38 486.89,-500.66 474.19,-503.22 462.89,-505.53"/>
<polygon fill="#63b8ff" stroke="#63b8ff" points="591.3,-484.13 600.49,-478.84 590.01,-477.25 591.3,-484.13"/>
</a>
</g>
</g>
<!-- Node30&#45;&gt;Node13 -->
<g id="edge46_Node000030_Node000013" class="edge">
<title>Node30&#45;&gt;Node13</title>
<g id="a_edge46_Node000030_Node000013"><a xlink:title=" ">
<path fill="none" stroke="#63b8ff" d="M606.35,-455.41C604.95,-454.41 603.57,-453.4 602.25,-452.38 584.61,-438.71 583.89,-431.04 566.25,-417.38 562.02,-414.1 557.23,-410.92 552.63,-408.1"/>
<polygon fill="#63b8ff" stroke="#63b8ff" points="604.32,-458.26 614.6,-460.82 608.16,-452.41 604.32,-458.26"/>
</a>
</g>
</g>
<!-- Node31 -->
<g id="Node000031" class="node">
<title>Node31</title>
<g id="a_Node000031"><a xlink:href="app_8c.html#a1ecb6667278e1863f1b86d73e8aea927" target="_top" xlink:title=" ">
<polygon fill="white" stroke="#666666" points="566.25,-446.75 498.5,-446.75 498.5,-426 566.25,-426 566.25,-446.75"/>
<text text-anchor="middle" x="532.38" y="-433.25" font-family="Helvetica,sans-Serif" font-size="10.00">w2c__f352</text>
</a>
</g>
</g>
<!-- Node30&#45;&gt;Node31 -->
<g id="edge45_Node000030_Node000031" class="edge">
<title>Node30&#45;&gt;Node31</title>
<g id="a_edge45_Node000030_Node000031"><a xlink:title=" ">
<path fill="none" stroke="#63b8ff" d="M593.97,-457.81C583.92,-454.26 573.34,-450.51 563.88,-447.17"/>
<polygon fill="#63b8ff" stroke="#63b8ff" points="592.58,-461.03 603.17,-461.07 594.91,-454.43 592.58,-461.03"/>
</a>
</g>
</g>
<!-- Node34 -->
<g id="Node000034" class="node">
<title>Node34</title>
<g id="a_Node000034"><a xlink:href="app_8c.html#af632bf697c0ee5183851d3c5dccc74c8" target="_top" xlink:title=" ">
<polygon fill="white" stroke="#666666" points="566.25,-637.75 498.5,-637.75 498.5,-617 566.25,-617 566.25,-637.75"/>
<text text-anchor="middle" x="532.38" y="-624.25" font-family="Helvetica,sans-Serif" font-size="10.00">w2c__f272</text>
</a>
</g>
</g>
<!-- Node33&#45;&gt;Node34 -->
<g id="edge49_Node000033_Node000034" class="edge">
<title>Node33&#45;&gt;Node34</title>
<g id="a_edge49_Node000033_Node000034"><a xlink:title=" ">
<path fill="none" stroke="#63b8ff" d="M596.1,-603.33C584.6,-607.74 572.24,-612.48 561.57,-616.57"/>
<polygon fill="#63b8ff" stroke="#63b8ff" points="597.28,-606.63 605.37,-599.78 594.78,-600.09 597.28,-606.63"/>
</a>
</g>
</g>
<!-- Node36 -->
<g id="Node000036" class="node">
<title>Node36</title>
<g id="a_Node000036"><a xlink:href="app_8c.html#a7bd86d6c56e8db012e9e5dfe6465d939" target="_top" xlink:title=" ">
<polygon fill="white" stroke="#666666" points="566.25,-598.75 498.5,-598.75 498.5,-578 566.25,-578 566.25,-598.75"/>
<text text-anchor="middle" x="532.38" y="-585.25" font-family="Helvetica,sans-Serif" font-size="10.00">w2c__f564</text>
</a>
</g>
</g>
<!-- Node33&#45;&gt;Node36 -->
<g id="edge52_Node000033_Node000036" class="edge">
<title>Node33&#45;&gt;Node36</title>
<g id="a_edge52_Node000033_Node000036"><a xlink:title=" ">
<path fill="none" stroke="#63b8ff" d="M590.57,-588.38C582.46,-588.38 574.13,-588.38 566.42,-588.38"/>
<polygon fill="#63b8ff" stroke="#63b8ff" points="590.29,-591.88 600.29,-588.38 590.29,-584.88 590.29,-591.88"/>
</a>
</g>
</g>
<!-- Node35 -->
<g id="Node000035" class="node">
<title>Node35</title>
<g id="a_Node000035"><a xlink:href="app_8c.html#a144a1dd48aaed5edff00fe4fe3f220e6" target="_top" xlink:title=" ">
<polygon fill="white" stroke="#666666" points="462.5,-636.75 394.75,-636.75 394.75,-616 462.5,-616 462.5,-636.75"/>
<text text-anchor="middle" x="428.62" y="-623.25" font-family="Helvetica,sans-Serif" font-size="10.00">w2c__f289</text>
</a>
</g>
</g>
<!-- Node34&#45;&gt;Node35 -->
<g id="edge50_Node000034_Node000035" class="edge">
<title>Node34&#45;&gt;Node35</title>
<g id="a_edge50_Node000034_Node000035"><a xlink:title=" ">
<path fill="none" stroke="#63b8ff" d="M486.82,-626.94C478.71,-626.86 470.38,-626.78 462.67,-626.7"/>
<polygon fill="#63b8ff" stroke="#63b8ff" points="486.51,-630.43 496.54,-627.03 486.58,-623.43 486.51,-630.43"/>
</a>
</g>
</g>
<!-- Node35&#45;&gt;Node3 -->
<g id="edge51_Node000035_Node000003" class="edge">
<title>Node35&#45;&gt;Node3</title>
<g id="a_edge51_Node000035_Node000003"><a xlink:title=" ">
<path fill="none" stroke="#63b8ff" d="M404.51,-643.64C384.75,-658.4 356.94,-679.17 340.23,-691.65"/>
<polygon fill="#63b8ff" stroke="#63b8ff" points="406.35,-646.64 412.26,-637.85 402.16,-641.03 406.35,-646.64"/>
</a>
</g>
</g>
<!-- Node37 -->
<g id="Node000037" class="node">
<title>Node37</title>
<g id="a_Node000037"><a xlink:href="app_8c.html#ac255ab03867c58c4a0b7fe707258a322" target="_top" xlink:title=" ">
<polygon fill="white" stroke="#666666" points="358.75,-598.75 291,-598.75 291,-578 358.75,-578 358.75,-598.75"/>
<text text-anchor="middle" x="324.88" y="-585.25" font-family="Helvetica,sans-Serif" font-size="10.00">w2c__f328</text>
</a>
</g>
</g>
<!-- Node36&#45;&gt;Node37 -->
<g id="edge53_Node000036_Node000037" class="edge">
<title>Node36&#45;&gt;Node37</title>
<g id="a_edge53_Node000036_Node000037"><a xlink:title=" ">
<path fill="none" stroke="#63b8ff" d="M487,-588.38C448.59,-588.38 393.9,-588.38 359.15,-588.38"/>
<polygon fill="#63b8ff" stroke="#63b8ff" points="486.84,-591.88 496.84,-588.38 486.84,-584.88 486.84,-591.88"/>
</a>
</g>
</g>
<!-- Node37&#45;&gt;Node14 -->
<g id="edge54_Node000037_Node000014" class="edge">
<title>Node37&#45;&gt;Node14</title>
<g id="a_edge54_Node000037_Node000014"><a xlink:title=" ">
<path fill="none" stroke="#63b8ff" d="M300.76,-571.11C281,-556.35 253.19,-535.58 236.48,-523.1"/>
<polygon fill="#63b8ff" stroke="#63b8ff" points="298.41,-573.72 308.51,-576.9 302.6,-568.11 298.41,-573.72"/>
</a>
</g>
</g>
<!-- Node39 -->
<g id="Node000039" class="node">
<title>Node39</title>
<g id="a_Node000039"><a xlink:href="app_8c.html#a54e1f71ca172ed4d04bf3165e2c50b94" target="_top" xlink:title=" ">
<polygon fill="white" stroke="#666666" points="566.25,-59.75 498.5,-59.75 498.5,-39 566.25,-39 566.25,-59.75"/>
<text text-anchor="middle" x="532.38" y="-46.25" font-family="Helvetica,sans-Serif" font-size="10.00">w2c__f326</text>
</a>
</g>
</g>
<!-- Node38&#45;&gt;Node39 -->
<g id="edge56_Node000038_Node000039" class="edge">
<title>Node38&#45;&gt;Node39</title>
<g id="a_edge56_Node000038_Node000039"><a xlink:title=" ">
<path fill="none" stroke="#63b8ff" d="M590.57,-49.38C582.46,-49.38 574.13,-49.38 566.42,-49.38"/>
<polygon fill="#63b8ff" stroke="#63b8ff" points="590.29,-52.88 600.29,-49.38 590.29,-45.88 590.29,-52.88"/>
</a>
</g>
</g>
</g>
</svg>
