<?xml version="1.0" encoding="UTF-8" standalone="no"?>
<!DOCTYPE svg PUBLIC "-//W3C//DTD SVG 1.1//EN"
 "http://www.w3.org/Graphics/SVG/1.1/DTD/svg11.dtd">
<!-- Generated by graphviz version 12.2.1 (0)
 -->
<!-- Title: w2c__f398 Pages: 1 -->
<svg width="828pt" height="646pt"
 viewBox="0.00 0.00 828.00 645.75" xmlns="http://www.w3.org/2000/svg" xmlns:xlink="http://www.w3.org/1999/xlink">
<g id="graph0" class="graph" transform="scale(1 1) rotate(0) translate(4 641.75)">
<title>w2c__f398</title>
<!-- Node1 -->
<g id="Node000001" class="node">
<title>Node1</title>
<g id="a_Node000001"><a xlink:title=" ">
<polygon fill="#999999" stroke="#666666" points="820,-424.75 752.25,-424.75 752.25,-404 820,-404 820,-424.75"/>
<text text-anchor="middle" x="786.12" y="-411.25" font-family="Helvetica,sans-Serif" font-size="10.00">w2c__f398</text>
</a>
</g>
</g>
<!-- Node2 -->
<g id="Node000002" class="node">
<title>Node2</title>
<g id="a_Node000002"><a xlink:href="app_8c.html#ac31bcf9c978e89bff4ef5e2cafdb7448" target="_top" xlink:title=" ">
<polygon fill="white" stroke="#666666" points="701.62,-598.75 633.88,-598.75 633.88,-578 701.62,-578 701.62,-598.75"/>
<text text-anchor="middle" x="667.75" y="-585.25" font-family="Helvetica,sans-Serif" font-size="10.00">w2c__f287</text>
</a>
</g>
</g>
<!-- Node1&#45;&gt;Node2 -->
<g id="edge1_Node000001_Node000002" class="edge">
<title>Node1&#45;&gt;Node2</title>
<g id="a_edge1_Node000001_Node000002"><a xlink:title=" ">
<path fill="none" stroke="#63b8ff" d="M773.91,-435.01C760.91,-458.45 738.42,-497.57 716.25,-529.38 703.92,-547.07 687.89,-566.31 677.97,-577.85"/>
<polygon fill="#63b8ff" stroke="#63b8ff" points="776.85,-436.92 778.6,-426.47 770.72,-433.55 776.85,-436.92"/>
</a>
</g>
</g>
<!-- Node4 -->
<g id="Node000004" class="node">
<title>Node4</title>
<g id="a_Node000004"><a xlink:href="app_8c.html#a5677ffd129da8cd63b876545b8187d77" target="_top" xlink:title=" ">
<polygon fill="white" stroke="#666666" points="302.62,-444.75 234.88,-444.75 234.88,-424 302.62,-424 302.62,-444.75"/>
<text text-anchor="middle" x="268.75" y="-431.25" font-family="Helvetica,sans-Serif" font-size="10.00">w2c__f367</text>
</a>
</g>
</g>
<!-- Node1&#45;&gt;Node4 -->
<g id="edge16_Node000001_Node000004" class="edge">
<title>Node1&#45;&gt;Node4</title>
<g id="a_edge16_Node000001_Node000004"><a xlink:title=" ">
<path fill="none" stroke="#63b8ff" d="M761.93,-431.51C749.16,-439.88 732.61,-449.07 716.25,-453.38 566.2,-492.91 378.08,-459.07 302.96,-442.38"/>
<polygon fill="#63b8ff" stroke="#63b8ff" points="763.79,-434.48 770.05,-425.94 759.82,-428.71 763.79,-434.48"/>
</a>
</g>
</g>
<!-- Node10 -->
<g id="Node000010" class="node">
<title>Node10</title>
<g id="a_Node000010"><a xlink:href="app_8c.html#ad5fbd7f0fed2d1446a23e08afe41ca32" target="_top" xlink:title=" ">
<polygon fill="white" stroke="#666666" points="701.62,-444.75 633.88,-444.75 633.88,-424 701.62,-424 701.62,-444.75"/>
<text text-anchor="middle" x="667.75" y="-431.25" font-family="Helvetica,sans-Serif" font-size="10.00">w2c__f329</text>
</a>
</g>
</g>
<!-- Node1&#45;&gt;Node10 -->
<g id="edge9_Node000001_Node000010" class="edge">
<title>Node1&#45;&gt;Node10</title>
<g id="a_edge9_Node000001_Node000010"><a xlink:title=" ">
<path fill="none" stroke="#63b8ff" d="M740.8,-421.99C727.96,-424.2 714.16,-426.57 702.1,-428.64"/>
<polygon fill="#63b8ff" stroke="#63b8ff" points="741.02,-425.51 750.28,-420.36 739.84,-418.61 741.02,-425.51"/>
</a>
</g>
</g>
<!-- Node11 -->
<g id="Node000011" class="node">
<title>Node11</title>
<g id="a_Node000011"><a xlink:href="app_8c.html#a382a18f7c476aeaf0817235093cde2a5" target="_top" xlink:title=" ">
<polygon fill="white" stroke="#666666" points="701.62,-520.75 633.88,-520.75 633.88,-500 701.62,-500 701.62,-520.75"/>
<text text-anchor="middle" x="667.75" y="-507.25" font-family="Helvetica,sans-Serif" font-size="10.00">w2c__f363</text>
</a>
</g>
</g>
<!-- Node1&#45;&gt;Node11 -->
<g id="edge11_Node000001_Node000011" class="edge">
<title>Node1&#45;&gt;Node11</title>
<g id="a_edge11_Node000001_Node000011"><a xlink:title=" ">
<path fill="none" stroke="#63b8ff" d="M769.52,-434.06C756.47,-449.62 736.74,-471.19 716.25,-486.38 709.42,-491.44 701.36,-495.96 693.85,-499.68"/>
<polygon fill="#63b8ff" stroke="#63b8ff" points="772.14,-436.37 775.77,-426.42 766.73,-431.94 772.14,-436.37"/>
</a>
</g>
</g>
<!-- Node15 -->
<g id="Node000015" class="node">
<title>Node15</title>
<g id="a_Node000015"><a xlink:href="app_8c.html#a7d4828f80c09fbe34c6c6440dc146ce6" target="_top" xlink:title=" ">
<polygon fill="white" stroke="#666666" points="701.62,-330.75 633.88,-330.75 633.88,-310 701.62,-310 701.62,-330.75"/>
<text text-anchor="middle" x="667.75" y="-317.25" font-family="Helvetica,sans-Serif" font-size="10.00">w2c__f428</text>
</a>
</g>
</g>
<!-- Node1&#45;&gt;Node15 -->
<g id="edge17_Node000001_Node000015" class="edge">
<title>Node1&#45;&gt;Node15</title>
<g id="a_edge17_Node000001_Node000015"><a xlink:title=" ">
<path fill="none" stroke="#63b8ff" d="M763.03,-396.52C739.08,-377.18 701.67,-346.96 681.94,-331.03"/>
<polygon fill="#63b8ff" stroke="#63b8ff" points="760.62,-399.08 770.6,-402.64 765.02,-393.63 760.62,-399.08"/>
</a>
</g>
</g>
<!-- Node26 -->
<g id="Node000026" class="node">
<title>Node26</title>
<g id="a_Node000026"><a xlink:href="app_8c.html#a638f8f3762772ce177faef400f358c59" target="_top" xlink:title=" ">
<polygon fill="white" stroke="#666666" points="568.62,-156.75 500.88,-156.75 500.88,-136 568.62,-136 568.62,-156.75"/>
<text text-anchor="middle" x="534.75" y="-143.25" font-family="Helvetica,sans-Serif" font-size="10.00">w2c__f429</text>
</a>
</g>
</g>
<!-- Node1&#45;&gt;Node26 -->
<g id="edge29_Node000001_Node000026" class="edge">
<title>Node1&#45;&gt;Node26</title>
<g id="a_edge29_Node000001_Node000026"><a xlink:title=" ">
<path fill="none" stroke="#63b8ff" d="M777.17,-393.22C766.74,-368.11 746.17,-326.5 716.25,-301.38 680.79,-271.6 655.77,-291.84 619.25,-263.38 599.18,-247.73 558.07,-182.72 542.2,-156.96"/>
<polygon fill="#63b8ff" stroke="#63b8ff" points="773.86,-394.36 780.8,-402.37 780.36,-391.78 773.86,-394.36"/>
</a>
</g>
</g>
<!-- Node36 -->
<g id="Node000036" class="node">
<title>Node36</title>
<g id="a_Node000036"><a xlink:href="app_8c.html#a8df6e3911d70946547e02dfdc547c04f" target="_top" xlink:title=" ">
<polygon fill="white" stroke="#666666" points="701.62,-405.75 633.88,-405.75 633.88,-385 701.62,-385 701.62,-405.75"/>
<text text-anchor="middle" x="667.75" y="-392.25" font-family="Helvetica,sans-Serif" font-size="10.00">w2c__f448</text>
</a>
</g>
</g>
<!-- Node1&#45;&gt;Node36 -->
<g id="edge42_Node000001_Node000036" class="edge">
<title>Node1&#45;&gt;Node36</title>
<g id="a_edge42_Node000001_Node000036"><a xlink:title=" ">
<path fill="none" stroke="#63b8ff" d="M740.8,-407.14C727.96,-405.04 714.16,-402.79 702.1,-400.82"/>
<polygon fill="#63b8ff" stroke="#63b8ff" points="739.85,-410.53 750.28,-408.69 740.98,-403.62 739.85,-410.53"/>
</a>
</g>
</g>
<!-- Node38 -->
<g id="Node000038" class="node">
<title>Node38</title>
<g id="a_Node000038"><a xlink:href="app_8c.html#ae9b10d4287ccf9b608fdab25dee14cfc" target="_top" xlink:title=" ">
<polygon fill="white" stroke="#666666" points="716.25,-254.75 619.25,-254.75 619.25,-234 716.25,-234 716.25,-254.75"/>
<text text-anchor="middle" x="667.75" y="-241.25" font-family="Helvetica,sans-Serif" font-size="10.00">wrap_w2c__f398</text>
</a>
</g>
</g>
<!-- Node1&#45;&gt;Node38 -->
<g id="edge45_Node000001_Node000038" class="edge">
<title>Node1&#45;&gt;Node38</title>
<g id="a_edge45_Node000001_Node000038"><a xlink:title=" ">
<path fill="none" stroke="#63b8ff" d="M779.84,-393.02C771.21,-362.08 751.45,-304.54 716.25,-268.38 710.97,-262.95 704.19,-258.53 697.43,-255.04"/>
<polygon fill="#63b8ff" stroke="#63b8ff" points="776.36,-393.58 782.3,-402.36 783.13,-391.8 776.36,-393.58"/>
</a>
</g>
</g>
<!-- Node3 -->
<g id="Node000003" class="node">
<title>Node3</title>
<g id="a_Node000003"><a xlink:href="app_8c.html#a26a3dfaa263b1d98a6eb6055906e8827" target="_top" xlink:title=" ">
<polygon fill="white" stroke="#666666" points="568.62,-637.75 500.88,-637.75 500.88,-617 568.62,-617 568.62,-637.75"/>
<text text-anchor="middle" x="534.75" y="-624.25" font-family="Helvetica,sans-Serif" font-size="10.00">w2c__f532</text>
</a>
</g>
</g>
<!-- Node2&#45;&gt;Node3 -->
<g id="edge2_Node000002_Node000003" class="edge">
<title>Node2&#45;&gt;Node3</title>
<g id="a_edge2_Node000002_Node000003"><a xlink:title=" ">
<path fill="none" stroke="#63b8ff" d="M622.79,-601.46C605.15,-606.72 585.16,-612.66 568.8,-617.54"/>
<polygon fill="#63b8ff" stroke="#63b8ff" points="623.66,-604.86 632.24,-598.65 621.66,-598.15 623.66,-604.86"/>
</a>
</g>
</g>
<!-- Node9 -->
<g id="Node000009" class="node">
<title>Node9</title>
<g id="a_Node000009"><a xlink:href="app_8c.html#a79ad276e9940e9db85f5e85b40d4ab98" target="_top" xlink:title=" ">
<polygon fill="white" stroke="#666666" points="583.25,-598.75 486.25,-598.75 486.25,-578 583.25,-578 583.25,-598.75"/>
<text text-anchor="middle" x="534.75" y="-585.25" font-family="Helvetica,sans-Serif" font-size="10.00">wrap_w2c__f287</text>
</a>
</g>
</g>
<!-- Node2&#45;&gt;Node9 -->
<g id="edge8_Node000002_Node000009" class="edge">
<title>Node2&#45;&gt;Node9</title>
<g id="a_edge8_Node000002_Node000009"><a xlink:title=" ">
<path fill="none" stroke="#63b8ff" d="M622.2,-588.38C609.78,-588.38 596.25,-588.38 583.65,-588.38"/>
<polygon fill="#63b8ff" stroke="#63b8ff" points="622.18,-591.88 632.18,-588.38 622.18,-584.88 622.18,-591.88"/>
</a>
</g>
</g>
<!-- Node3&#45;&gt;Node4 -->
<g id="edge3_Node000003_Node000004" class="edge">
<title>Node3&#45;&gt;Node4</title>
<g id="a_edge3_Node000003_Node000004"><a xlink:title=" ">
<path fill="none" stroke="#63b8ff" d="M489.58,-616.65C443.37,-604.79 374.65,-585.14 353.25,-568.38 309.67,-534.22 282.88,-470.53 273.51,-445.19"/>
<polygon fill="#63b8ff" stroke="#63b8ff" points="488.49,-619.98 499.04,-619.05 490.2,-613.2 488.49,-619.98"/>
</a>
</g>
</g>
<!-- Node8 -->
<g id="Node000008" class="node">
<title>Node8</title>
<g id="a_Node000008"><a xlink:href="app_8c.html#a62dd256a63ac002015b5cc6ed16c8ca9" target="_top" xlink:title=" ">
<polygon fill="white" stroke="#666666" points="450.25,-637.75 353.25,-637.75 353.25,-617 450.25,-617 450.25,-637.75"/>
<text text-anchor="middle" x="401.75" y="-624.25" font-family="Helvetica,sans-Serif" font-size="10.00">wrap_w2c__f532</text>
</a>
</g>
</g>
<!-- Node3&#45;&gt;Node8 -->
<g id="edge7_Node000003_Node000008" class="edge">
<title>Node3&#45;&gt;Node8</title>
<g id="a_edge7_Node000003_Node000008"><a xlink:title=" ">
<path fill="none" stroke="#63b8ff" d="M489.2,-627.38C476.78,-627.38 463.25,-627.38 450.65,-627.38"/>
<polygon fill="#63b8ff" stroke="#63b8ff" points="489.18,-630.88 499.18,-627.38 489.18,-623.88 489.18,-630.88"/>
</a>
</g>
</g>
<!-- Node5 -->
<g id="Node000005" class="node">
<title>Node5</title>
<g id="a_Node000005"><a xlink:href="app_8c.html#ac863989691d4c389f80374209c220171" target="_top" xlink:title=" ">
<polygon fill="white" stroke="#666666" points="167,-424.75 104.5,-424.75 104.5,-404 167,-404 167,-424.75"/>
<text text-anchor="middle" x="135.75" y="-411.25" font-family="Helvetica,sans-Serif" font-size="10.00">w2c__c_0</text>
</a>
</g>
</g>
<!-- Node4&#45;&gt;Node5 -->
<g id="edge4_Node000004_Node000005" class="edge">
<title>Node4&#45;&gt;Node5</title>
<g id="a_edge4_Node000004_Node000005"><a xlink:title=" ">
<path fill="none" stroke="#63b8ff" d="M223.53,-427.62C204.97,-424.79 183.86,-421.57 167.1,-419.01"/>
<polygon fill="#63b8ff" stroke="#63b8ff" points="222.78,-431.05 233.2,-429.1 223.84,-424.13 222.78,-431.05"/>
</a>
</g>
</g>
<!-- Node7 -->
<g id="Node000007" class="node">
<title>Node7</title>
<g id="a_Node000007"><a xlink:href="app_8c.html#a8f64ccad6c506a1ca514ba4f43e5211c" target="_top" xlink:title=" ">
<polygon fill="white" stroke="#666666" points="184.25,-463.75 87.25,-463.75 87.25,-443 184.25,-443 184.25,-463.75"/>
<text text-anchor="middle" x="135.75" y="-450.25" font-family="Helvetica,sans-Serif" font-size="10.00">wrap_w2c__f367</text>
</a>
</g>
</g>
<!-- Node4&#45;&gt;Node7 -->
<g id="edge6_Node000004_Node000007" class="edge">
<title>Node4&#45;&gt;Node7</title>
<g id="a_edge6_Node000004_Node000007"><a xlink:title=" ">
<path fill="none" stroke="#63b8ff" d="M223.58,-440.78C211.06,-442.6 197.38,-444.58 184.65,-446.43"/>
<polygon fill="#63b8ff" stroke="#63b8ff" points="223.8,-444.29 233.2,-439.39 222.8,-437.36 223.8,-444.29"/>
</a>
</g>
</g>
<!-- Node6 -->
<g id="Node000006" class="node">
<title>Node6</title>
<g id="a_Node000006"><a xlink:href="app_8c.html#ab1e039392ea68017ab8a6063263b147d" target="_top" xlink:title=" ">
<polygon fill="white" stroke="#666666" points="51.25,-424.75 0,-424.75 0,-404 51.25,-404 51.25,-424.75"/>
<text text-anchor="middle" x="25.62" y="-411.25" font-family="Helvetica,sans-Serif" font-size="10.00">w2c__c</text>
</a>
</g>
</g>
<!-- Node5&#45;&gt;Node6 -->
<g id="edge5_Node000005_Node000006" class="edge">
<title>Node5&#45;&gt;Node6</title>
<g id="a_edge5_Node000005_Node000006"><a xlink:title=" ">
<path fill="none" stroke="#63b8ff" d="M92.72,-414.38C78.81,-414.38 63.78,-414.38 51.57,-414.38"/>
<polygon fill="#63b8ff" stroke="#63b8ff" points="92.54,-417.88 102.54,-414.38 92.54,-410.88 92.54,-417.88"/>
</a>
</g>
</g>
<!-- Node10&#45;&gt;Node4 -->
<g id="edge10_Node000010_Node000004" class="edge">
<title>Node10&#45;&gt;Node4</title>
<g id="a_edge10_Node000010_Node000004"><a xlink:title=" ">
<path fill="none" stroke="#63b8ff" d="M622.4,-434.38C542.13,-434.38 374.49,-434.38 303.1,-434.38"/>
<polygon fill="#63b8ff" stroke="#63b8ff" points="622.07,-437.88 632.07,-434.38 622.07,-430.88 622.07,-437.88"/>
</a>
</g>
</g>
<!-- Node12 -->
<g id="Node000012" class="node">
<title>Node12</title>
<g id="a_Node000012"><a xlink:href="app_8c.html#adf8c8ec159a20a3362d3c4421c52c359" target="_top" xlink:title=" ">
<polygon fill="white" stroke="#666666" points="568.62,-559.75 500.88,-559.75 500.88,-539 568.62,-539 568.62,-559.75"/>
<text text-anchor="middle" x="534.75" y="-546.25" font-family="Helvetica,sans-Serif" font-size="10.00">w2c__f513</text>
</a>
</g>
</g>
<!-- Node11&#45;&gt;Node12 -->
<g id="edge12_Node000011_Node000012" class="edge">
<title>Node11&#45;&gt;Node12</title>
<g id="a_edge12_Node000011_Node000012"><a xlink:title=" ">
<path fill="none" stroke="#63b8ff" d="M622.79,-523.46C605.15,-528.72 585.16,-534.66 568.8,-539.54"/>
<polygon fill="#63b8ff" stroke="#63b8ff" points="623.66,-526.86 632.24,-520.65 621.66,-520.15 623.66,-526.86"/>
</a>
</g>
</g>
<!-- Node14 -->
<g id="Node000014" class="node">
<title>Node14</title>
<g id="a_Node000014"><a xlink:href="app_8c.html#ac48c5f40fe1cd71ca4f75992778ae373" target="_top" xlink:title=" ">
<polygon fill="white" stroke="#666666" points="583.25,-520.75 486.25,-520.75 486.25,-500 583.25,-500 583.25,-520.75"/>
<text text-anchor="middle" x="534.75" y="-507.25" font-family="Helvetica,sans-Serif" font-size="10.00">wrap_w2c__f363</text>
</a>
</g>
</g>
<!-- Node11&#45;&gt;Node14 -->
<g id="edge15_Node000011_Node000014" class="edge">
<title>Node11&#45;&gt;Node14</title>
<g id="a_edge15_Node000011_Node000014"><a xlink:title=" ">
<path fill="none" stroke="#63b8ff" d="M622.2,-510.38C609.78,-510.38 596.25,-510.38 583.65,-510.38"/>
<polygon fill="#63b8ff" stroke="#63b8ff" points="622.18,-513.88 632.18,-510.38 622.18,-506.88 622.18,-513.88"/>
</a>
</g>
</g>
<!-- Node12&#45;&gt;Node4 -->
<g id="edge13_Node000012_Node000004" class="edge">
<title>Node12&#45;&gt;Node4</title>
<g id="a_edge13_Node000012_Node000004"><a xlink:title=" ">
<path fill="none" stroke="#63b8ff" d="M489.62,-536.97C452.4,-525.8 398.15,-507.87 353.25,-486.38 328.14,-474.36 301.15,-456.56 284.86,-445.22"/>
<polygon fill="#63b8ff" stroke="#63b8ff" points="488.57,-540.31 499.15,-539.78 490.55,-533.59 488.57,-540.31"/>
</a>
</g>
</g>
<!-- Node13 -->
<g id="Node000013" class="node">
<title>Node13</title>
<g id="a_Node000013"><a xlink:href="app_8c.html#a0931bcad301a4f7bce944a5e6f1b6b66" target="_top" xlink:title=" ">
<polygon fill="white" stroke="#666666" points="450.25,-559.75 353.25,-559.75 353.25,-539 450.25,-539 450.25,-559.75"/>
<text text-anchor="middle" x="401.75" y="-546.25" font-family="Helvetica,sans-Serif" font-size="10.00">wrap_w2c__f513</text>
</a>
</g>
</g>
<!-- Node12&#45;&gt;Node13 -->
<g id="edge14_Node000012_Node000013" class="edge">
<title>Node12&#45;&gt;Node13</title>
<g id="a_edge14_Node000012_Node000013"><a xlink:title=" ">
<path fill="none" stroke="#63b8ff" d="M489.2,-549.38C476.78,-549.38 463.25,-549.38 450.65,-549.38"/>
<polygon fill="#63b8ff" stroke="#63b8ff" points="489.18,-552.88 499.18,-549.38 489.18,-545.88 489.18,-552.88"/>
</a>
</g>
</g>
<!-- Node16 -->
<g id="Node000016" class="node">
<title>Node16</title>
<g id="a_Node000016"><a xlink:href="app_8c.html#a05c797a6118657c43344590b357a796b" target="_top" xlink:title=" ">
<polygon fill="white" stroke="#666666" points="568.62,-330.75 500.88,-330.75 500.88,-310 568.62,-310 568.62,-330.75"/>
<text text-anchor="middle" x="534.75" y="-317.25" font-family="Helvetica,sans-Serif" font-size="10.00">w2c__f297</text>
</a>
</g>
</g>
<!-- Node15&#45;&gt;Node16 -->
<g id="edge18_Node000015_Node000016" class="edge">
<title>Node15&#45;&gt;Node16</title>
<g id="a_edge18_Node000015_Node000016"><a xlink:title=" ">
<path fill="none" stroke="#63b8ff" d="M622.28,-320.38C604.77,-320.38 585.01,-320.38 568.8,-320.38"/>
<polygon fill="#63b8ff" stroke="#63b8ff" points="622.18,-323.88 632.18,-320.38 622.18,-316.88 622.18,-323.88"/>
</a>
</g>
</g>
<!-- Node19 -->
<g id="Node000019" class="node">
<title>Node19</title>
<g id="a_Node000019"><a xlink:href="app_8c.html#a856b5cc253a6617dab0fccb7d825799e" target="_top" xlink:title=" ">
<polygon fill="white" stroke="#666666" points="568.62,-291.75 500.88,-291.75 500.88,-271 568.62,-271 568.62,-291.75"/>
<text text-anchor="middle" x="534.75" y="-278.25" font-family="Helvetica,sans-Serif" font-size="10.00">w2c__f368</text>
</a>
</g>
</g>
<!-- Node15&#45;&gt;Node19 -->
<g id="edge22_Node000015_Node000019" class="edge">
<title>Node15&#45;&gt;Node19</title>
<g id="a_edge22_Node000015_Node000019"><a xlink:title=" ">
<path fill="none" stroke="#63b8ff" d="M622.79,-307.29C605.15,-302.03 585.16,-296.09 568.8,-291.21"/>
<polygon fill="#63b8ff" stroke="#63b8ff" points="621.66,-310.6 632.24,-310.1 623.66,-303.89 621.66,-310.6"/>
</a>
</g>
</g>
<!-- Node25 -->
<g id="Node000025" class="node">
<title>Node25</title>
<g id="a_Node000025"><a xlink:href="app_8c.html#ac2ae189c7caaf383377bf53227a48d4d" target="_top" xlink:title=" ">
<polygon fill="white" stroke="#666666" points="583.25,-252.75 486.25,-252.75 486.25,-232 583.25,-232 583.25,-252.75"/>
<text text-anchor="middle" x="534.75" y="-239.25" font-family="Helvetica,sans-Serif" font-size="10.00">wrap_w2c__f428</text>
</a>
</g>
</g>
<!-- Node15&#45;&gt;Node25 -->
<g id="edge28_Node000015_Node000025" class="edge">
<title>Node15&#45;&gt;Node25</title>
<g id="a_edge28_Node000015_Node000025"><a xlink:title=" ">
<path fill="none" stroke="#63b8ff" d="M632.41,-304.53C627.86,-302 623.36,-299.26 619.25,-296.38 601.24,-283.73 601.69,-274.39 583.25,-262.38 577.93,-258.91 571.9,-255.82 565.98,-253.18"/>
<polygon fill="#63b8ff" stroke="#63b8ff" points="630.47,-307.47 640.96,-309 633.72,-301.27 630.47,-307.47"/>
</a>
</g>
</g>
<!-- Node17 -->
<g id="Node000017" class="node">
<title>Node17</title>
<g id="a_Node000017"><a xlink:href="app_8c.html#a46f73f75a1a989305b62e9f96f421e9b" target="_top" xlink:title=" ">
<polygon fill="white" stroke="#666666" points="435.62,-368.75 367.88,-368.75 367.88,-348 435.62,-348 435.62,-368.75"/>
<text text-anchor="middle" x="401.75" y="-355.25" font-family="Helvetica,sans-Serif" font-size="10.00">w2c__f516</text>
</a>
</g>
</g>
<!-- Node16&#45;&gt;Node17 -->
<g id="edge19_Node000016_Node000017" class="edge">
<title>Node16&#45;&gt;Node17</title>
<g id="a_edge19_Node000016_Node000017"><a xlink:title=" ">
<path fill="none" stroke="#63b8ff" d="M489.79,-333.13C472.15,-338.24 452.16,-344.04 435.8,-348.79"/>
<polygon fill="#63b8ff" stroke="#63b8ff" points="490.61,-336.53 499.24,-330.39 488.66,-329.81 490.61,-336.53"/>
</a>
</g>
</g>
<!-- Node18 -->
<g id="Node000018" class="node">
<title>Node18</title>
<g id="a_Node000018"><a xlink:href="app_8c.html#a020600b73b6fda689ab50b26c933a2d6" target="_top" xlink:title=" ">
<polygon fill="white" stroke="#666666" points="450.25,-329.75 353.25,-329.75 353.25,-309 450.25,-309 450.25,-329.75"/>
<text text-anchor="middle" x="401.75" y="-316.25" font-family="Helvetica,sans-Serif" font-size="10.00">wrap_w2c__f297</text>
</a>
</g>
</g>
<!-- Node16&#45;&gt;Node18 -->
<g id="edge21_Node000016_Node000018" class="edge">
<title>Node16&#45;&gt;Node18</title>
<g id="a_edge21_Node000016_Node000018"><a xlink:title=" ">
<path fill="none" stroke="#63b8ff" d="M489.2,-320.03C476.78,-319.94 463.25,-319.84 450.65,-319.74"/>
<polygon fill="#63b8ff" stroke="#63b8ff" points="489.15,-323.53 499.18,-320.11 489.21,-316.53 489.15,-323.53"/>
</a>
</g>
</g>
<!-- Node17&#45;&gt;Node4 -->
<g id="edge20_Node000017_Node000004" class="edge">
<title>Node17&#45;&gt;Node4</title>
<g id="a_edge20_Node000017_Node000004"><a xlink:title=" ">
<path fill="none" stroke="#63b8ff" d="M368.19,-374.34C363.15,-376.95 358.03,-379.69 353.25,-382.38 329.44,-395.77 302.77,-412.74 286.12,-423.57"/>
<polygon fill="#63b8ff" stroke="#63b8ff" points="369.62,-377.54 376.95,-369.89 366.45,-371.3 369.62,-377.54"/>
</a>
</g>
</g>
<!-- Node20 -->
<g id="Node000020" class="node">
<title>Node20</title>
<g id="a_Node000020"><a xlink:href="app_8c.html#a6c89af74d99f30a7ef134089421e6f69" target="_top" xlink:title=" ">
<polygon fill="white" stroke="#666666" points="435.62,-214.75 367.88,-214.75 367.88,-194 435.62,-194 435.62,-214.75"/>
<text text-anchor="middle" x="401.75" y="-201.25" font-family="Helvetica,sans-Serif" font-size="10.00">w2c__f312</text>
</a>
</g>
</g>
<!-- Node19&#45;&gt;Node20 -->
<g id="edge23_Node000019_Node000020" class="edge">
<title>Node19&#45;&gt;Node20</title>
<g id="a_edge23_Node000019_Node000020"><a xlink:title=" ">
<path fill="none" stroke="#63b8ff" d="M495.09,-265.88C492.07,-264.43 489.09,-262.92 486.25,-261.38 460.51,-247.35 432.82,-227.37 416.68,-215.17"/>
<polygon fill="#63b8ff" stroke="#63b8ff" points="493.5,-268.99 504.05,-269.92 496.38,-262.62 493.5,-268.99"/>
</a>
</g>
</g>
<!-- Node24 -->
<g id="Node000024" class="node">
<title>Node24</title>
<g id="a_Node000024"><a xlink:href="app_8c.html#a96fb844d2cdd3b044fcd9fab6bf0fdd4" target="_top" xlink:title=" ">
<polygon fill="white" stroke="#666666" points="450.25,-290.75 353.25,-290.75 353.25,-270 450.25,-270 450.25,-290.75"/>
<text text-anchor="middle" x="401.75" y="-277.25" font-family="Helvetica,sans-Serif" font-size="10.00">wrap_w2c__f368</text>
</a>
</g>
</g>
<!-- Node19&#45;&gt;Node24 -->
<g id="edge27_Node000019_Node000024" class="edge">
<title>Node19&#45;&gt;Node24</title>
<g id="a_edge27_Node000019_Node000024"><a xlink:title=" ">
<path fill="none" stroke="#63b8ff" d="M489.2,-281.03C476.78,-280.94 463.25,-280.84 450.65,-280.74"/>
<polygon fill="#63b8ff" stroke="#63b8ff" points="489.15,-284.53 499.18,-281.11 489.21,-277.53 489.15,-284.53"/>
</a>
</g>
</g>
<!-- Node21 -->
<g id="Node000021" class="node">
<title>Node21</title>
<g id="a_Node000021"><a xlink:href="app_8c.html#af245d5659b958eabe30540d214352ad8" target="_top" xlink:title=" ">
<polygon fill="white" stroke="#666666" points="302.62,-137.75 234.88,-137.75 234.88,-117 302.62,-117 302.62,-137.75"/>
<text text-anchor="middle" x="268.75" y="-124.25" font-family="Helvetica,sans-Serif" font-size="10.00">w2c__f197</text>
</a>
</g>
</g>
<!-- Node20&#45;&gt;Node21 -->
<g id="edge24_Node000020_Node000021" class="edge">
<title>Node20&#45;&gt;Node21</title>
<g id="a_edge24_Node000020_Node000021"><a xlink:title=" ">
<path fill="none" stroke="#63b8ff" d="M359.76,-188.41C357.51,-187.13 355.32,-185.79 353.25,-184.38 334.3,-171.44 336.2,-160.31 317.25,-147.38 312.15,-143.9 306.35,-140.84 300.59,-138.23"/>
<polygon fill="#63b8ff" stroke="#63b8ff" points="358.05,-191.46 368.55,-192.84 361.2,-185.21 358.05,-191.46"/>
</a>
</g>
</g>
<!-- Node23 -->
<g id="Node000023" class="node">
<title>Node23</title>
<g id="a_Node000023"><a xlink:href="app_8c.html#a07d438f3519d306b5f50b93149af1f10" target="_top" xlink:title=" ">
<polygon fill="white" stroke="#666666" points="317.25,-215.75 220.25,-215.75 220.25,-195 317.25,-195 317.25,-215.75"/>
<text text-anchor="middle" x="268.75" y="-202.25" font-family="Helvetica,sans-Serif" font-size="10.00">wrap_w2c__f312</text>
</a>
</g>
</g>
<!-- Node20&#45;&gt;Node23 -->
<g id="edge26_Node000020_Node000023" class="edge">
<title>Node20&#45;&gt;Node23</title>
<g id="a_edge26_Node000020_Node000023"><a xlink:title=" ">
<path fill="none" stroke="#63b8ff" d="M356.2,-204.72C343.78,-204.81 330.25,-204.91 317.65,-205.01"/>
<polygon fill="#63b8ff" stroke="#63b8ff" points="356.21,-208.22 366.18,-204.64 356.15,-201.22 356.21,-208.22"/>
</a>
</g>
</g>
<!-- Node22 -->
<g id="Node000022" class="node">
<title>Node22</title>
<g id="a_Node000022"><a xlink:href="app_8c.html#ac9dfe974277b0ee3fa24e73b7712fe31" target="_top" xlink:title=" ">
<polygon fill="white" stroke="#666666" points="184.25,-137.75 87.25,-137.75 87.25,-117 184.25,-117 184.25,-137.75"/>
<text text-anchor="middle" x="135.75" y="-124.25" font-family="Helvetica,sans-Serif" font-size="10.00">wrap_w2c__f197</text>
</a>
</g>
</g>
<!-- Node21&#45;&gt;Node22 -->
<g id="edge25_Node000021_Node000022" class="edge">
<title>Node21&#45;&gt;Node22</title>
<g id="a_edge25_Node000021_Node000022"><a xlink:title=" ">
<path fill="none" stroke="#63b8ff" d="M223.2,-127.38C210.78,-127.38 197.25,-127.38 184.65,-127.38"/>
<polygon fill="#63b8ff" stroke="#63b8ff" points="223.18,-130.88 233.18,-127.38 223.18,-123.88 223.18,-130.88"/>
</a>
</g>
</g>
<!-- Node26&#45;&gt;Node4 -->
<g id="edge33_Node000026_Node000004" class="edge">
<title>Node26&#45;&gt;Node4</title>
<g id="a_edge33_Node000026_Node000004"><a xlink:title=" ">
<path fill="none" stroke="#63b8ff" d="M517.11,-165.31C501.3,-182.36 476.16,-207.16 450.25,-223.38 411,-247.94 387.21,-229.91 353.25,-261.38 302.12,-308.75 278.82,-394.08 271.99,-423.81"/>
<polygon fill="#63b8ff" stroke="#63b8ff" points="519.33,-168.06 523.46,-158.31 514.15,-163.36 519.33,-168.06"/>
</a>
</g>
</g>
<!-- Node26&#45;&gt;Node21 -->
<g id="edge30_Node000026_Node000021" class="edge">
<title>Node26&#45;&gt;Node21</title>
<g id="a_edge30_Node000026_Node000021"><a xlink:title=" ">
<path fill="none" stroke="#63b8ff" d="M489.25,-143.17C436.6,-139.38 350.15,-133.16 302.99,-129.77"/>
<polygon fill="#63b8ff" stroke="#63b8ff" points="488.85,-146.65 499.07,-143.88 489.35,-139.67 488.85,-146.65"/>
</a>
</g>
</g>
<!-- Node27 -->
<g id="Node000027" class="node">
<title>Node27</title>
<g id="a_Node000027"><a xlink:href="app_8c.html#a92887d2aedd3202ee2ee7790ac44d9c3" target="_top" xlink:title=" ">
<polygon fill="white" stroke="#666666" points="435.62,-175.75 367.88,-175.75 367.88,-155 435.62,-155 435.62,-175.75"/>
<text text-anchor="middle" x="401.75" y="-162.25" font-family="Helvetica,sans-Serif" font-size="10.00">w2c__f352</text>
</a>
</g>
</g>
<!-- Node26&#45;&gt;Node27 -->
<g id="edge31_Node000026_Node000027" class="edge">
<title>Node26&#45;&gt;Node27</title>
<g id="a_edge31_Node000026_Node000027"><a xlink:title=" ">
<path fill="none" stroke="#63b8ff" d="M489.53,-152.79C471.96,-155.34 452.08,-158.22 435.8,-160.58"/>
<polygon fill="#63b8ff" stroke="#63b8ff" points="489.8,-156.29 499.2,-151.39 488.8,-149.36 489.8,-156.29"/>
</a>
</g>
</g>
<!-- Node29 -->
<g id="Node000029" class="node">
<title>Node29</title>
<g id="a_Node000029"><a xlink:href="app_8c.html#affed7b4e730191b8eb2ae859a9d3e4b2" target="_top" xlink:title=" ">
<polygon fill="white" stroke="#666666" points="435.62,-60.75 367.88,-60.75 367.88,-40 435.62,-40 435.62,-60.75"/>
<text text-anchor="middle" x="401.75" y="-47.25" font-family="Helvetica,sans-Serif" font-size="10.00">w2c__f426</text>
</a>
</g>
</g>
<!-- Node26&#45;&gt;Node29 -->
<g id="edge34_Node000026_Node000029" class="edge">
<title>Node26&#45;&gt;Node29</title>
<g id="a_edge34_Node000026_Node000029"><a xlink:title=" ">
<path fill="none" stroke="#63b8ff" d="M516.7,-127.58C500.78,-110.87 475.71,-86.64 450.25,-70.38 444.82,-66.91 438.69,-63.81 432.68,-61.14"/>
<polygon fill="#63b8ff" stroke="#63b8ff" points="513.73,-129.52 523.11,-134.44 518.85,-124.74 513.73,-129.52"/>
</a>
</g>
</g>
<!-- Node35 -->
<g id="Node000035" class="node">
<title>Node35</title>
<g id="a_Node000035"><a xlink:href="app_8c.html#ac929d55242521910f121ad2d134becc2" target="_top" xlink:title=" ">
<polygon fill="white" stroke="#666666" points="450.25,-99.75 353.25,-99.75 353.25,-79 450.25,-79 450.25,-99.75"/>
<text text-anchor="middle" x="401.75" y="-86.25" font-family="Helvetica,sans-Serif" font-size="10.00">wrap_w2c__f429</text>
</a>
</g>
</g>
<!-- Node26&#45;&gt;Node35 -->
<g id="edge41_Node000026_Node000035" class="edge">
<title>Node26&#45;&gt;Node35</title>
<g id="a_edge41_Node000026_Node000035"><a xlink:title=" ">
<path fill="none" stroke="#63b8ff" d="M498.36,-130.98C475.98,-121.24 447.61,-108.89 427.61,-100.19"/>
<polygon fill="#63b8ff" stroke="#63b8ff" points="496.85,-134.14 507.41,-134.92 499.64,-127.72 496.85,-134.14"/>
</a>
</g>
</g>
<!-- Node28 -->
<g id="Node000028" class="node">
<title>Node28</title>
<g id="a_Node000028"><a xlink:href="app_8c.html#a59ffb9c4f4293b99a29f46019ffebf23" target="_top" xlink:title=" ">
<polygon fill="white" stroke="#666666" points="317.25,-176.75 220.25,-176.75 220.25,-156 317.25,-156 317.25,-176.75"/>
<text text-anchor="middle" x="268.75" y="-163.25" font-family="Helvetica,sans-Serif" font-size="10.00">wrap_w2c__f352</text>
</a>
</g>
</g>
<!-- Node27&#45;&gt;Node28 -->
<g id="edge32_Node000027_Node000028" class="edge">
<title>Node27&#45;&gt;Node28</title>
<g id="a_edge32_Node000027_Node000028"><a xlink:title=" ">
<path fill="none" stroke="#63b8ff" d="M356.2,-165.72C343.78,-165.81 330.25,-165.91 317.65,-166.01"/>
<polygon fill="#63b8ff" stroke="#63b8ff" points="356.21,-169.22 366.18,-165.64 356.15,-162.22 356.21,-169.22"/>
</a>
</g>
</g>
<!-- Node29&#45;&gt;Node21 -->
<g id="edge35_Node000029_Node000021" class="edge">
<title>Node29&#45;&gt;Node21</title>
<g id="a_edge35_Node000029_Node000021"><a xlink:title=" ">
<path fill="none" stroke="#63b8ff" d="M359.76,-66.34C357.51,-67.62 355.32,-68.96 353.25,-70.38 334.3,-83.31 336.2,-94.44 317.25,-107.38 312.15,-110.85 306.35,-113.91 300.59,-116.52"/>
<polygon fill="#63b8ff" stroke="#63b8ff" points="361.2,-69.54 368.55,-61.91 358.05,-63.29 361.2,-69.54"/>
</a>
</g>
</g>
<!-- Node30 -->
<g id="Node000030" class="node">
<title>Node30</title>
<g id="a_Node000030"><a xlink:href="app_8c.html#aabc3b06c7f7daa21796552c728f0379b" target="_top" xlink:title=" ">
<polygon fill="white" stroke="#666666" points="302.62,-20.75 234.88,-20.75 234.88,0 302.62,0 302.62,-20.75"/>
<text text-anchor="middle" x="268.75" y="-7.25" font-family="Helvetica,sans-Serif" font-size="10.00">w2c__f270</text>
</a>
</g>
</g>
<!-- Node29&#45;&gt;Node30 -->
<g id="edge36_Node000029_Node000030" class="edge">
<title>Node29&#45;&gt;Node30</title>
<g id="a_edge36_Node000029_Node000030"><a xlink:title=" ">
<path fill="none" stroke="#63b8ff" d="M356.79,-36.95C339.15,-31.56 319.16,-25.46 302.8,-20.47"/>
<polygon fill="#63b8ff" stroke="#63b8ff" points="355.66,-40.27 366.25,-39.84 357.7,-33.57 355.66,-40.27"/>
</a>
</g>
</g>
<!-- Node32 -->
<g id="Node000032" class="node">
<title>Node32</title>
<g id="a_Node000032"><a xlink:href="app_8c.html#a3b35d36403dcff081d46c10210051cdc" target="_top" xlink:title=" ">
<polygon fill="white" stroke="#666666" points="302.62,-98.75 234.88,-98.75 234.88,-78 302.62,-78 302.62,-98.75"/>
<text text-anchor="middle" x="268.75" y="-85.25" font-family="Helvetica,sans-Serif" font-size="10.00">w2c__f349</text>
</a>
</g>
</g>
<!-- Node29&#45;&gt;Node32 -->
<g id="edge38_Node000029_Node000032" class="edge">
<title>Node29&#45;&gt;Node32</title>
<g id="a_edge38_Node000029_Node000032"><a xlink:title=" ">
<path fill="none" stroke="#63b8ff" d="M356.79,-63.13C339.15,-68.24 319.16,-74.04 302.8,-78.79"/>
<polygon fill="#63b8ff" stroke="#63b8ff" points="357.61,-66.53 366.24,-60.39 355.66,-59.81 357.61,-66.53"/>
</a>
</g>
</g>
<!-- Node34 -->
<g id="Node000034" class="node">
<title>Node34</title>
<g id="a_Node000034"><a xlink:href="app_8c.html#ae1beb332ba7551f1acff2f46930c4e85" target="_top" xlink:title=" ">
<polygon fill="white" stroke="#666666" points="317.25,-59.75 220.25,-59.75 220.25,-39 317.25,-39 317.25,-59.75"/>
<text text-anchor="middle" x="268.75" y="-46.25" font-family="Helvetica,sans-Serif" font-size="10.00">wrap_w2c__f426</text>
</a>
</g>
</g>
<!-- Node29&#45;&gt;Node34 -->
<g id="edge40_Node000029_Node000034" class="edge">
<title>Node29&#45;&gt;Node34</title>
<g id="a_edge40_Node000029_Node000034"><a xlink:title=" ">
<path fill="none" stroke="#63b8ff" d="M356.2,-50.03C343.78,-49.94 330.25,-49.84 317.65,-49.74"/>
<polygon fill="#63b8ff" stroke="#63b8ff" points="356.15,-53.53 366.18,-50.11 356.21,-46.53 356.15,-53.53"/>
</a>
</g>
</g>
<!-- Node31 -->
<g id="Node000031" class="node">
<title>Node31</title>
<g id="a_Node000031"><a xlink:href="app_8c.html#a54f194530158831aa826ddabfd869e3f" target="_top" xlink:title=" ">
<polygon fill="white" stroke="#666666" points="184.25,-20.75 87.25,-20.75 87.25,0 184.25,0 184.25,-20.75"/>
<text text-anchor="middle" x="135.75" y="-7.25" font-family="Helvetica,sans-Serif" font-size="10.00">wrap_w2c__f270</text>
</a>
</g>
</g>
<!-- Node30&#45;&gt;Node31 -->
<g id="edge37_Node000030_Node000031" class="edge">
<title>Node30&#45;&gt;Node31</title>
<g id="a_edge37_Node000030_Node000031"><a xlink:title=" ">
<path fill="none" stroke="#63b8ff" d="M223.2,-10.38C210.78,-10.38 197.25,-10.38 184.65,-10.38"/>
<polygon fill="#63b8ff" stroke="#63b8ff" points="223.18,-13.88 233.18,-10.38 223.18,-6.88 223.18,-13.88"/>
</a>
</g>
</g>
<!-- Node33 -->
<g id="Node000033" class="node">
<title>Node33</title>
<g id="a_Node000033"><a xlink:href="app_8c.html#a053e462a04712de112461bc2539f46e8" target="_top" xlink:title=" ">
<polygon fill="white" stroke="#666666" points="184.25,-98.75 87.25,-98.75 87.25,-78 184.25,-78 184.25,-98.75"/>
<text text-anchor="middle" x="135.75" y="-85.25" font-family="Helvetica,sans-Serif" font-size="10.00">wrap_w2c__f349</text>
</a>
</g>
</g>
<!-- Node32&#45;&gt;Node33 -->
<g id="edge39_Node000032_Node000033" class="edge">
<title>Node32&#45;&gt;Node33</title>
<g id="a_edge39_Node000032_Node000033"><a xlink:title=" ">
<path fill="none" stroke="#63b8ff" d="M223.2,-88.38C210.78,-88.38 197.25,-88.38 184.65,-88.38"/>
<polygon fill="#63b8ff" stroke="#63b8ff" points="223.18,-91.88 233.18,-88.38 223.18,-84.88 223.18,-91.88"/>
</a>
</g>
</g>
<!-- Node36&#45;&gt;Node4 -->
<g id="edge43_Node000036_Node000004" class="edge">
<title>Node36&#45;&gt;Node4</title>
<g id="a_edge43_Node000036_Node000004"><a xlink:title=" ">
<path fill="none" stroke="#63b8ff" d="M622.52,-384.01C609.92,-381.28 596.12,-378.75 583.25,-377.38 540.38,-372.81 529,-371.84 486.25,-377.38 418.6,-386.13 341.96,-409.67 300.44,-423.61"/>
<polygon fill="#63b8ff" stroke="#63b8ff" points="621.69,-387.41 632.22,-386.22 623.25,-380.59 621.69,-387.41"/>
</a>
</g>
</g>
<!-- Node37 -->
<g id="Node000037" class="node">
<title>Node37</title>
<g id="a_Node000037"><a xlink:href="app_8c.html#aaa47c0d194dec0f5eae05c05b9b491ce" target="_top" xlink:title=" ">
<polygon fill="white" stroke="#666666" points="583.25,-406.75 486.25,-406.75 486.25,-386 583.25,-386 583.25,-406.75"/>
<text text-anchor="middle" x="534.75" y="-393.25" font-family="Helvetica,sans-Serif" font-size="10.00">wrap_w2c__f448</text>
</a>
</g>
</g>
<!-- Node36&#45;&gt;Node37 -->
<g id="edge44_Node000036_Node000037" class="edge">
<title>Node36&#45;&gt;Node37</title>
<g id="a_edge44_Node000036_Node000037"><a xlink:title=" ">
<path fill="none" stroke="#63b8ff" d="M622.2,-395.72C609.78,-395.81 596.25,-395.91 583.65,-396.01"/>
<polygon fill="#63b8ff" stroke="#63b8ff" points="622.21,-399.22 632.18,-395.64 622.15,-392.22 622.21,-399.22"/>
</a>
</g>
</g>
</g>
</svg>
