<?xml version="1.0" encoding="UTF-8" standalone="no"?>
<!DOCTYPE svg PUBLIC "-//W3C//DTD SVG 1.1//EN"
 "http://www.w3.org/Graphics/SVG/1.1/DTD/svg11.dtd">
<!-- Generated by graphviz version 12.2.1 (0)
 -->
<!-- Title: wrap_w2c__f460 Pages: 1 -->
<svg width="728pt" height="298pt"
 viewBox="0.00 0.00 727.50 297.67" xmlns="http://www.w3.org/2000/svg" xmlns:xlink="http://www.w3.org/1999/xlink">
<g id="graph0" class="graph" transform="scale(1 1) rotate(0) translate(4 293.67)">
<title>wrap_w2c__f460</title>
<!-- Node1 -->
<g id="Node000001" class="node">
<title>Node1</title>
<g id="a_Node000001"><a xlink:title=" ">
<polygon fill="#999999" stroke="#666666" points="97,-134.75 0,-134.75 0,-114 97,-114 97,-134.75"/>
<text text-anchor="middle" x="48.5" y="-121.25" font-family="Helvetica,sans-Serif" font-size="10.00">wrap_w2c__f460</text>
</a>
</g>
</g>
<!-- Node2 -->
<g id="Node000002" class="node">
<title>Node2</title>
<g id="a_Node000002"><a xlink:href="app_8c.html#a5102329aa988cc51dba2782d125133cd" target="_top" xlink:title=" ">
<polygon fill="white" stroke="#666666" points="200.75,-134.75 133,-134.75 133,-114 200.75,-114 200.75,-134.75"/>
<text text-anchor="middle" x="166.88" y="-121.25" font-family="Helvetica,sans-Serif" font-size="10.00">w2c__f460</text>
</a>
</g>
</g>
<!-- Node1&#45;&gt;Node2 -->
<g id="edge1_Node000001_Node000002" class="edge">
<title>Node1&#45;&gt;Node2</title>
<g id="a_edge1_Node000001_Node000002"><a xlink:title=" ">
<path fill="none" stroke="#63b8ff" d="M97.17,-124.38C105.18,-124.38 113.47,-124.38 121.4,-124.38"/>
<polygon fill="#63b8ff" stroke="#63b8ff" points="121.17,-127.88 131.17,-124.38 121.17,-120.88 121.17,-127.88"/>
</a>
</g>
</g>
<!-- Node3 -->
<g id="Node000003" class="node">
<title>Node3</title>
<g id="a_Node000003"><a xlink:href="app_8c.html#a0378208e0d5c0d1d6e7370f1c578fab3" target="_top" xlink:title=" ">
<polygon fill="white" stroke="#666666" points="615.75,-76.75 548,-76.75 548,-56 615.75,-56 615.75,-76.75"/>
<text text-anchor="middle" x="581.88" y="-63.25" font-family="Helvetica,sans-Serif" font-size="10.00">w2c__f216</text>
</a>
</g>
</g>
<!-- Node2&#45;&gt;Node3 -->
<g id="edge2_Node000002_Node000003" class="edge">
<title>Node2&#45;&gt;Node3</title>
<g id="a_edge2_Node000002_Node000003"><a xlink:title=" ">
<path fill="none" stroke="#63b8ff" d="M176.32,-113.88C188.14,-100.12 211.06,-76.67 236.75,-67.38 338.98,-30.39 469.76,-45.48 536.84,-57.3"/>
<polygon fill="#63b8ff" stroke="#63b8ff" points="535.87,-60.68 546.33,-59.04 537.13,-53.79 535.87,-60.68"/>
</a>
</g>
</g>
<!-- Node5 -->
<g id="Node000005" class="node">
<title>Node5</title>
<g id="a_Node000005"><a xlink:href="app_8c.html#aaca5d5bcf49f2ca74019cf097750b9f3" target="_top" xlink:title=" ">
<polygon fill="white" stroke="#666666" points="615.75,-239.75 548,-239.75 548,-219 615.75,-219 615.75,-239.75"/>
<text text-anchor="middle" x="581.88" y="-226.25" font-family="Helvetica,sans-Serif" font-size="10.00">w2c__f258</text>
</a>
</g>
</g>
<!-- Node2&#45;&gt;Node5 -->
<g id="edge4_Node000002_Node000005" class="edge">
<title>Node2&#45;&gt;Node5</title>
<g id="a_edge4_Node000002_Node000005"><a xlink:title=" ">
<path fill="none" stroke="#63b8ff" d="M170.95,-134.98C178.34,-158.69 199.32,-216.37 236.75,-248.38 274.07,-280.29 292.15,-277.8 340.5,-286.38 416.38,-299.83 504.16,-266.32 549.76,-245.14"/>
<polygon fill="#63b8ff" stroke="#63b8ff" points="551.26,-248.3 558.78,-240.84 548.24,-241.98 551.26,-248.3"/>
</a>
</g>
</g>
<!-- Node7 -->
<g id="Node000007" class="node">
<title>Node7</title>
<g id="a_Node000007"><a xlink:href="app_8c.html#a4aba2fe8aec5a4bcbf6eb758e545ce4e" target="_top" xlink:title=" ">
<polygon fill="white" stroke="#666666" points="408.25,-20.75 340.5,-20.75 340.5,0 408.25,0 408.25,-20.75"/>
<text text-anchor="middle" x="374.38" y="-7.25" font-family="Helvetica,sans-Serif" font-size="10.00">w2c__f269</text>
</a>
</g>
</g>
<!-- Node2&#45;&gt;Node7 -->
<g id="edge7_Node000002_Node000007" class="edge">
<title>Node2&#45;&gt;Node7</title>
<g id="a_edge7_Node000002_Node000007"><a xlink:title=" ">
<path fill="none" stroke="#63b8ff" d="M172.73,-113.69C182.1,-94.38 204.63,-53.88 236.75,-34.38 264.43,-17.57 300.73,-11.79 328.95,-10.1"/>
<polygon fill="#63b8ff" stroke="#63b8ff" points="328.77,-13.61 338.6,-9.68 328.46,-6.62 328.77,-13.61"/>
</a>
</g>
</g>
<!-- Node8 -->
<g id="Node000008" class="node">
<title>Node8</title>
<g id="a_Node000008"><a xlink:href="app_8c.html#a39e5374effeff0dc142bbb7c393a906a" target="_top" xlink:title=" ">
<polygon fill="white" stroke="#666666" points="304.5,-239.75 236.75,-239.75 236.75,-219 304.5,-219 304.5,-239.75"/>
<text text-anchor="middle" x="270.62" y="-226.25" font-family="Helvetica,sans-Serif" font-size="10.00">w2c__f311</text>
</a>
</g>
</g>
<!-- Node2&#45;&gt;Node8 -->
<g id="edge9_Node000002_Node000008" class="edge">
<title>Node2&#45;&gt;Node8</title>
<g id="a_edge9_Node000002_Node000008"><a xlink:title=" ">
<path fill="none" stroke="#63b8ff" d="M178.38,-135.22C195.61,-152.99 230.07,-188.55 251.36,-210.52"/>
<polygon fill="#63b8ff" stroke="#63b8ff" points="248.8,-212.92 258.27,-217.66 253.83,-208.05 248.8,-212.92"/>
</a>
</g>
</g>
<!-- Node10 -->
<g id="Node000010" class="node">
<title>Node10</title>
<g id="a_Node000010"><a xlink:href="app_8c.html#ab78a9ba6819f5a9d3b53302097151d33" target="_top" xlink:title=" ">
<polygon fill="white" stroke="#666666" points="304.5,-96.75 236.75,-96.75 236.75,-76 304.5,-76 304.5,-96.75"/>
<text text-anchor="middle" x="270.62" y="-83.25" font-family="Helvetica,sans-Serif" font-size="10.00">w2c__f481</text>
</a>
</g>
</g>
<!-- Node2&#45;&gt;Node10 -->
<g id="edge12_Node000002_Node000010" class="edge">
<title>Node2&#45;&gt;Node10</title>
<g id="a_edge12_Node000002_Node000010"><a xlink:title=" ">
<path fill="none" stroke="#63b8ff" d="M196.76,-113.59C207.07,-109.74 218.88,-105.33 229.94,-101.2"/>
<polygon fill="#63b8ff" stroke="#63b8ff" points="231.11,-104.5 239.25,-97.72 228.66,-97.94 231.11,-104.5"/>
</a>
</g>
</g>
<!-- Node11 -->
<g id="Node000011" class="node">
<title>Node11</title>
<g id="a_Node000011"><a xlink:href="app_8c.html#a674f6e81761467d0a8dc6d2a425eda9f" target="_top" xlink:title=" ">
<polygon fill="white" stroke="#666666" points="615.75,-124.75 548,-124.75 548,-104 615.75,-104 615.75,-124.75"/>
<text text-anchor="middle" x="581.88" y="-111.25" font-family="Helvetica,sans-Serif" font-size="10.00">w2c__f498</text>
</a>
</g>
</g>
<!-- Node2&#45;&gt;Node11 -->
<g id="edge13_Node000002_Node000011" class="edge">
<title>Node2&#45;&gt;Node11</title>
<g id="a_edge13_Node000002_Node000011"><a xlink:title=" ">
<path fill="none" stroke="#63b8ff" d="M200.97,-123.57C274.76,-121.79 452.76,-117.48 536.25,-115.46"/>
<polygon fill="#63b8ff" stroke="#63b8ff" points="536.19,-118.96 546.1,-115.22 536.02,-111.96 536.19,-118.96"/>
</a>
</g>
</g>
<!-- Node12 -->
<g id="Node000012" class="node">
<title>Node12</title>
<g id="a_Node000012"><a xlink:href="app_8c.html#a282da58cdb8a8d86b26b785358ce183a" target="_top" xlink:title=" ">
<polygon fill="white" stroke="#666666" points="304.5,-172.75 236.75,-172.75 236.75,-152 304.5,-152 304.5,-172.75"/>
<text text-anchor="middle" x="270.62" y="-159.25" font-family="Helvetica,sans-Serif" font-size="10.00">w2c__f504</text>
</a>
</g>
</g>
<!-- Node2&#45;&gt;Node12 -->
<g id="edge14_Node000002_Node000012" class="edge">
<title>Node2&#45;&gt;Node12</title>
<g id="a_edge14_Node000002_Node000012"><a xlink:title=" ">
<path fill="none" stroke="#63b8ff" d="M196.76,-135.16C207.07,-139.01 218.88,-143.42 229.94,-147.55"/>
<polygon fill="#63b8ff" stroke="#63b8ff" points="228.66,-150.81 239.25,-151.03 231.11,-144.25 228.66,-150.81"/>
</a>
</g>
</g>
<!-- Node4 -->
<g id="Node000004" class="node">
<title>Node4</title>
<g id="a_Node000004"><a xlink:href="app_8c.html#a8d9f347f9a643f0ebfb53c4f54578ac4" target="_top" xlink:title=" ">
<polygon fill="white" stroke="#666666" points="719.5,-181.75 651.75,-181.75 651.75,-161 719.5,-161 719.5,-181.75"/>
<text text-anchor="middle" x="685.62" y="-168.25" font-family="Helvetica,sans-Serif" font-size="10.00">w2c__f304</text>
</a>
</g>
</g>
<!-- Node3&#45;&gt;Node4 -->
<g id="edge3_Node000003_Node000004" class="edge">
<title>Node3&#45;&gt;Node4</title>
<g id="a_edge3_Node000003_Node000004"><a xlink:title=" ">
<path fill="none" stroke="#63b8ff" d="M595.66,-77.07C601.87,-82.41 609.36,-89.07 615.75,-95.38 634.61,-113.98 654.81,-136.64 668.43,-152.34"/>
<polygon fill="#63b8ff" stroke="#63b8ff" points="665.46,-154.26 674.64,-159.56 670.77,-149.7 665.46,-154.26"/>
</a>
</g>
</g>
<!-- Node5&#45;&gt;Node4 -->
<g id="edge5_Node000005_Node000004" class="edge">
<title>Node5&#45;&gt;Node4</title>
<g id="a_edge5_Node000005_Node000004"><a xlink:title=" ">
<path fill="none" stroke="#63b8ff" d="M601.54,-218.74C616.79,-210.04 638.6,-197.61 656.05,-187.66"/>
<polygon fill="#63b8ff" stroke="#63b8ff" points="657.47,-190.88 664.42,-182.89 654,-184.8 657.47,-190.88"/>
</a>
</g>
</g>
<!-- Node6 -->
<g id="Node000006" class="node">
<title>Node6</title>
<g id="a_Node000006"><a xlink:href="app_8c.html#a881f0b113e93dce3ff52d04b435850f6" target="_top" xlink:title=" ">
<polygon fill="white" stroke="#666666" points="719.5,-239.75 651.75,-239.75 651.75,-219 719.5,-219 719.5,-239.75"/>
<text text-anchor="middle" x="685.62" y="-226.25" font-family="Helvetica,sans-Serif" font-size="10.00">w2c__f491</text>
</a>
</g>
</g>
<!-- Node5&#45;&gt;Node6 -->
<g id="edge6_Node000005_Node000006" class="edge">
<title>Node5&#45;&gt;Node6</title>
<g id="a_edge6_Node000005_Node000006"><a xlink:title=" ">
<path fill="none" stroke="#63b8ff" d="M616.19,-229.38C623.82,-229.38 632.06,-229.38 640.08,-229.38"/>
<polygon fill="#63b8ff" stroke="#63b8ff" points="640.07,-232.88 650.07,-229.38 640.07,-225.88 640.07,-232.88"/>
</a>
</g>
</g>
<!-- Node7&#45;&gt;Node3 -->
<g id="edge8_Node000007_Node000003" class="edge">
<title>Node7&#45;&gt;Node3</title>
<g id="a_edge8_Node000007_Node000003"><a xlink:title=" ">
<path fill="none" stroke="#63b8ff" d="M408.52,-13.74C436.55,-17.17 477.54,-23.55 512,-34.38 525.19,-38.52 539.14,-44.64 551,-50.42"/>
<polygon fill="#63b8ff" stroke="#63b8ff" points="549.38,-53.52 559.88,-54.89 552.52,-47.27 549.38,-53.52"/>
</a>
</g>
</g>
<!-- Node8&#45;&gt;Node5 -->
<g id="edge10_Node000008_Node000005" class="edge">
<title>Node8&#45;&gt;Node5</title>
<g id="a_edge10_Node000008_Node000005"><a xlink:title=" ">
<path fill="none" stroke="#63b8ff" d="M304.72,-229.38C360.49,-229.38 473.25,-229.38 536.06,-229.38"/>
<polygon fill="#63b8ff" stroke="#63b8ff" points="536.04,-232.88 546.04,-229.38 536.04,-225.88 536.04,-232.88"/>
</a>
</g>
</g>
<!-- Node9 -->
<g id="Node000009" class="node">
<title>Node9</title>
<g id="a_Node000009"><a xlink:href="app_8c.html#aeda0fdcf4b3bed63365b3a77c2197b09" target="_top" xlink:title=" ">
<polygon fill="white" stroke="#666666" points="408.25,-277.75 340.5,-277.75 340.5,-257 408.25,-257 408.25,-277.75"/>
<text text-anchor="middle" x="374.38" y="-264.25" font-family="Helvetica,sans-Serif" font-size="10.00">w2c__f538</text>
</a>
</g>
</g>
<!-- Node8&#45;&gt;Node9 -->
<g id="edge11_Node000008_Node000009" class="edge">
<title>Node8&#45;&gt;Node9</title>
<g id="a_edge11_Node000008_Node000009"><a xlink:title=" ">
<path fill="none" stroke="#63b8ff" d="M300.51,-240.16C310.82,-244.01 322.63,-248.42 333.69,-252.55"/>
<polygon fill="#63b8ff" stroke="#63b8ff" points="332.41,-255.81 343,-256.03 334.86,-249.25 332.41,-255.81"/>
</a>
</g>
</g>
<!-- Node13 -->
<g id="Node000013" class="node">
<title>Node13</title>
<g id="a_Node000013"><a xlink:href="app_8c.html#a1a8a1d528c65d63a630e19c3a4bdd098" target="_top" xlink:title=" ">
<polygon fill="white" stroke="#666666" points="408.25,-172.75 340.5,-172.75 340.5,-152 408.25,-152 408.25,-172.75"/>
<text text-anchor="middle" x="374.38" y="-159.25" font-family="Helvetica,sans-Serif" font-size="10.00">w2c__f557</text>
</a>
</g>
</g>
<!-- Node12&#45;&gt;Node13 -->
<g id="edge15_Node000012_Node000013" class="edge">
<title>Node12&#45;&gt;Node13</title>
<g id="a_edge15_Node000012_Node000013"><a xlink:title=" ">
<path fill="none" stroke="#63b8ff" d="M304.94,-162.38C312.57,-162.38 320.81,-162.38 328.83,-162.38"/>
<polygon fill="#63b8ff" stroke="#63b8ff" points="328.82,-165.88 338.82,-162.38 328.82,-158.88 328.82,-165.88"/>
</a>
</g>
</g>
<!-- Node14 -->
<g id="Node000014" class="node">
<title>Node14</title>
<g id="a_Node000014"><a xlink:href="app_8c.html#a0f7003812eaf983535ff7979fc047a21" target="_top" xlink:title=" ">
<polygon fill="white" stroke="#666666" points="512,-201.75 444.25,-201.75 444.25,-181 512,-181 512,-201.75"/>
<text text-anchor="middle" x="478.12" y="-188.25" font-family="Helvetica,sans-Serif" font-size="10.00">w2c__f353</text>
</a>
</g>
</g>
<!-- Node13&#45;&gt;Node14 -->
<g id="edge16_Node000013_Node000014" class="edge">
<title>Node13&#45;&gt;Node14</title>
<g id="a_edge16_Node000013_Node000014"><a xlink:title=" ">
<path fill="none" stroke="#63b8ff" d="M408.69,-171.87C416.5,-174.1 424.94,-176.5 433.14,-178.84"/>
<polygon fill="#63b8ff" stroke="#63b8ff" points="432.05,-182.17 442.63,-181.54 433.97,-175.44 432.05,-182.17"/>
</a>
</g>
</g>
<!-- Node16 -->
<g id="Node000016" class="node">
<title>Node16</title>
<g id="a_Node000016"><a xlink:href="app_8c.html#ac9cc84763a9c1933e50eedd7a06c17e2" target="_top" xlink:title=" ">
<polygon fill="white" stroke="#666666" points="512,-162.75 444.25,-162.75 444.25,-142 512,-142 512,-162.75"/>
<text text-anchor="middle" x="478.12" y="-149.25" font-family="Helvetica,sans-Serif" font-size="10.00">w2c__f480</text>
</a>
</g>
</g>
<!-- Node13&#45;&gt;Node16 -->
<g id="edge20_Node000013_Node000016" class="edge">
<title>Node13&#45;&gt;Node16</title>
<g id="a_edge20_Node000013_Node000016"><a xlink:title=" ">
<path fill="none" stroke="#63b8ff" d="M408.69,-159.1C416.41,-158.34 424.75,-157.52 432.86,-156.73"/>
<polygon fill="#63b8ff" stroke="#63b8ff" points="432.96,-160.23 442.57,-155.77 432.28,-153.27 432.96,-160.23"/>
</a>
</g>
</g>
<!-- Node14&#45;&gt;Node5 -->
<g id="edge17_Node000014_Node000005" class="edge">
<title>Node14&#45;&gt;Node5</title>
<g id="a_edge17_Node000014_Node000005"><a xlink:title=" ">
<path fill="none" stroke="#63b8ff" d="M508.01,-202.16C518.32,-206.01 530.13,-210.42 541.19,-214.55"/>
<polygon fill="#63b8ff" stroke="#63b8ff" points="539.91,-217.81 550.5,-218.03 542.36,-211.25 539.91,-217.81"/>
</a>
</g>
</g>
<!-- Node15 -->
<g id="Node000015" class="node">
<title>Node15</title>
<g id="a_Node000015"><a xlink:href="app_8c.html#a4634342addbde677893ffcb45cf639dd" target="_top" xlink:title=" ">
<polygon fill="white" stroke="#666666" points="615.75,-200.75 548,-200.75 548,-180 615.75,-180 615.75,-200.75"/>
<text text-anchor="middle" x="581.88" y="-187.25" font-family="Helvetica,sans-Serif" font-size="10.00">w2c__f302</text>
</a>
</g>
</g>
<!-- Node14&#45;&gt;Node15 -->
<g id="edge18_Node000014_Node000015" class="edge">
<title>Node14&#45;&gt;Node15</title>
<g id="a_edge18_Node000014_Node000015"><a xlink:title=" ">
<path fill="none" stroke="#63b8ff" d="M512.44,-191.05C520.07,-190.97 528.31,-190.89 536.33,-190.81"/>
<polygon fill="#63b8ff" stroke="#63b8ff" points="536.35,-194.31 546.32,-190.71 536.28,-187.31 536.35,-194.31"/>
</a>
</g>
</g>
<!-- Node15&#45;&gt;Node4 -->
<g id="edge19_Node000015_Node000004" class="edge">
<title>Node15&#45;&gt;Node4</title>
<g id="a_edge19_Node000015_Node000004"><a xlink:title=" ">
<path fill="none" stroke="#63b8ff" d="M616.19,-184.15C623.91,-182.71 632.25,-181.16 640.36,-179.64"/>
<polygon fill="#63b8ff" stroke="#63b8ff" points="640.91,-183.1 650.09,-177.82 639.62,-176.22 640.91,-183.1"/>
</a>
</g>
</g>
<!-- Node16&#45;&gt;Node3 -->
<g id="edge21_Node000016_Node000003" class="edge">
<title>Node16&#45;&gt;Node3</title>
<g id="a_edge21_Node000016_Node000003"><a xlink:title=" ">
<path fill="none" stroke="#63b8ff" d="M491.6,-141.83C508.54,-127.52 539.04,-101.73 559.62,-84.34"/>
<polygon fill="#63b8ff" stroke="#63b8ff" points="561.76,-87.11 567.14,-77.98 557.24,-81.77 561.76,-87.11"/>
</a>
</g>
</g>
<!-- Node16&#45;&gt;Node4 -->
<g id="edge24_Node000016_Node000004" class="edge">
<title>Node16&#45;&gt;Node4</title>
<g id="a_edge24_Node000016_Node000004"><a xlink:title=" ">
<path fill="none" stroke="#63b8ff" d="M512.14,-155.43C546.79,-158.63 601.48,-163.69 639.96,-167.25"/>
<polygon fill="#63b8ff" stroke="#63b8ff" points="639.56,-170.72 649.84,-168.16 640.21,-163.75 639.56,-170.72"/>
</a>
</g>
</g>
<!-- Node16&#45;&gt;Node5 -->
<g id="edge22_Node000016_Node000005" class="edge">
<title>Node16&#45;&gt;Node5</title>
<g id="a_edge22_Node000016_Node000005"><a xlink:title=" ">
<path fill="none" stroke="#63b8ff" d="M498.79,-163.23C503.28,-166 507.92,-169.13 512,-172.38 529.94,-186.67 530.06,-195.08 548,-209.38 549.27,-210.39 550.6,-211.39 551.97,-212.38"/>
<polygon fill="#63b8ff" stroke="#63b8ff" points="549.68,-215.06 559.95,-217.69 553.56,-209.23 549.68,-215.06"/>
</a>
</g>
</g>
<!-- Node16&#45;&gt;Node11 -->
<g id="edge25_Node000016_Node000011" class="edge">
<title>Node16&#45;&gt;Node11</title>
<g id="a_edge25_Node000016_Node000011"><a xlink:title=" ">
<path fill="none" stroke="#63b8ff" d="M508.01,-141.59C518.32,-137.74 530.13,-133.33 541.19,-129.2"/>
<polygon fill="#63b8ff" stroke="#63b8ff" points="542.36,-132.5 550.5,-125.72 539.91,-125.94 542.36,-132.5"/>
</a>
</g>
</g>
<!-- Node16&#45;&gt;Node15 -->
<g id="edge23_Node000016_Node000015" class="edge">
<title>Node16&#45;&gt;Node15</title>
<g id="a_edge23_Node000016_Node000015"><a xlink:title=" ">
<path fill="none" stroke="#63b8ff" d="M508.01,-163.16C518.32,-167.01 530.13,-171.42 541.19,-175.55"/>
<polygon fill="#63b8ff" stroke="#63b8ff" points="539.91,-178.81 550.5,-179.03 542.36,-172.25 539.91,-178.81"/>
</a>
</g>
</g>
</g>
</svg>
