<?xml version="1.0" encoding="UTF-8" standalone="no"?>
<!DOCTYPE svg PUBLIC "-//W3C//DTD SVG 1.1//EN"
 "http://www.w3.org/Graphics/SVG/1.1/DTD/svg11.dtd">
<!-- Generated by graphviz version 12.2.1 (0)
 -->
<!-- Title: w2c__f370 Pages: 1 -->
<svg width="495pt" height="86pt"
 viewBox="0.00 0.00 494.50 85.75" xmlns="http://www.w3.org/2000/svg" xmlns:xlink="http://www.w3.org/1999/xlink">
<g id="graph0" class="graph" transform="scale(1 1) rotate(0) translate(4 81.75)">
<title>w2c__f370</title>
<!-- Node1 -->
<g id="Node000001" class="node">
<title>Node1</title>
<g id="a_Node000001"><a xlink:title=" ">
<polygon fill="#999999" stroke="#666666" points="67.75,-20.75 0,-20.75 0,0 67.75,0 67.75,-20.75"/>
<text text-anchor="middle" x="33.88" y="-7.25" font-family="Helvetica,sans-Serif" font-size="10.00">w2c__f370</text>
</a>
</g>
</g>
<!-- Node2 -->
<g id="Node000002" class="node">
<title>Node2</title>
<g id="a_Node000002"><a xlink:href="app_8c.html#a4ad0e4fbbb0cf438eebff97436bc659b" target="_top" xlink:title=" ">
<polygon fill="white" stroke="#666666" points="171.5,-39.75 103.75,-39.75 103.75,-19 171.5,-19 171.5,-39.75"/>
<text text-anchor="middle" x="137.62" y="-26.25" font-family="Helvetica,sans-Serif" font-size="10.00">w2c__f458</text>
</a>
</g>
</g>
<!-- Node1&#45;&gt;Node2 -->
<g id="edge1_Node000001_Node000002" class="edge">
<title>Node1&#45;&gt;Node2</title>
<g id="a_edge1_Node000001_Node000002"><a xlink:title=" ">
<path fill="none" stroke="#63b8ff" d="M68.19,-16.6C75.91,-18.04 84.25,-19.59 92.36,-21.11"/>
<polygon fill="#63b8ff" stroke="#63b8ff" points="91.62,-24.53 102.09,-22.93 92.91,-17.65 91.62,-24.53"/>
</a>
</g>
</g>
<!-- Node4 -->
<g id="Node000004" class="node">
<title>Node4</title>
<g id="a_Node000004"><a xlink:href="app_8c.html#ad63b6498cfe22ce747f349eeb23b508f" target="_top" xlink:title=" ">
<polygon fill="white" stroke="#666666" points="384.62,-38.75 313.12,-38.75 313.12,-18 384.62,-18 384.62,-38.75"/>
<text text-anchor="middle" x="348.88" y="-25.25" font-family="Helvetica,sans-Serif" font-size="10.00">wasm_fabs</text>
</a>
</g>
</g>
<!-- Node1&#45;&gt;Node4 -->
<g id="edge7_Node000001_Node000004" class="edge">
<title>Node1&#45;&gt;Node4</title>
<g id="a_edge7_Node000001_Node000004"><a xlink:title=" ">
<path fill="none" stroke="#63b8ff" d="M68.03,-9.43C95.71,-8.87 136.2,-8.58 171.5,-10.38 215.88,-12.63 266.3,-18.07 301.83,-22.38"/>
<polygon fill="#63b8ff" stroke="#63b8ff" points="300.96,-25.8 311.32,-23.55 301.82,-18.85 300.96,-25.8"/>
</a>
</g>
</g>
<!-- Node3 -->
<g id="Node000003" class="node">
<title>Node3</title>
<g id="a_Node000003"><a xlink:href="app_8c.html#a5944e8aaeb89215d16f0703618f3d1cb" target="_top" xlink:title=" ">
<polygon fill="white" stroke="#666666" points="275.25,-77.75 207.5,-77.75 207.5,-57 275.25,-57 275.25,-77.75"/>
<text text-anchor="middle" x="241.38" y="-64.25" font-family="Helvetica,sans-Serif" font-size="10.00">w2c__f346</text>
</a>
</g>
</g>
<!-- Node2&#45;&gt;Node3 -->
<g id="edge2_Node000002_Node000003" class="edge">
<title>Node2&#45;&gt;Node3</title>
<g id="a_edge2_Node000002_Node000003"><a xlink:title=" ">
<path fill="none" stroke="#63b8ff" d="M167.51,-40.16C177.82,-44.01 189.63,-48.42 200.69,-52.55"/>
<polygon fill="#63b8ff" stroke="#63b8ff" points="199.41,-55.81 210,-56.03 201.86,-49.25 199.41,-55.81"/>
</a>
</g>
</g>
<!-- Node2&#45;&gt;Node4 -->
<g id="edge6_Node000002_Node000004" class="edge">
<title>Node2&#45;&gt;Node4</title>
<g id="a_edge6_Node000002_Node000004"><a xlink:title=" ">
<path fill="none" stroke="#63b8ff" d="M171.78,-29.22C206.74,-29.05 262.08,-28.78 301.39,-28.6"/>
<polygon fill="#63b8ff" stroke="#63b8ff" points="301.28,-32.1 311.27,-28.55 301.25,-25.1 301.28,-32.1"/>
</a>
</g>
</g>
<!-- Node3&#45;&gt;Node4 -->
<g id="edge3_Node000003_Node000004" class="edge">
<title>Node3&#45;&gt;Node4</title>
<g id="a_edge3_Node000003_Node000004"><a xlink:title=" ">
<path fill="none" stroke="#63b8ff" d="M271.76,-56.51C282.97,-52.37 295.93,-47.58 307.95,-43.13"/>
<polygon fill="#63b8ff" stroke="#63b8ff" points="309.06,-46.46 317.23,-39.71 306.63,-39.89 309.06,-46.46"/>
</a>
</g>
</g>
<!-- Node5 -->
<g id="Node000005" class="node">
<title>Node5</title>
<g id="a_Node000005"><a xlink:href="app_8c.html#abe22e959f965cb0fbcf5b83be18fbe1e" target="_top" xlink:title=" ">
<polygon fill="white" stroke="#666666" points="386.5,-77.75 311.25,-77.75 311.25,-57 386.5,-57 386.5,-77.75"/>
<text text-anchor="middle" x="348.88" y="-64.25" font-family="Helvetica,sans-Serif" font-size="10.00">wasm_quiet</text>
</a>
</g>
</g>
<!-- Node3&#45;&gt;Node5 -->
<g id="edge4_Node000003_Node000005" class="edge">
<title>Node3&#45;&gt;Node5</title>
<g id="a_edge4_Node000003_Node000005"><a xlink:title=" ">
<path fill="none" stroke="#63b8ff" d="M275.47,-67.38C283.11,-67.38 291.39,-67.38 299.53,-67.38"/>
<polygon fill="#63b8ff" stroke="#63b8ff" points="299.35,-70.88 309.35,-67.38 299.35,-63.88 299.35,-70.88"/>
</a>
</g>
</g>
<!-- Node6 -->
<g id="Node000006" class="node">
<title>Node6</title>
<g id="a_Node000006"><a xlink:href="app_8c.html#ae10979e670e507d4373e8cadcb3169aa" target="_top" xlink:title=" ">
<polygon fill="white" stroke="#666666" points="486.5,-77.75 422.5,-77.75 422.5,-57 486.5,-57 486.5,-77.75"/>
<text text-anchor="middle" x="454.5" y="-64.25" font-family="Helvetica,sans-Serif" font-size="10.00">quiet_nan</text>
</a>
</g>
</g>
<!-- Node5&#45;&gt;Node6 -->
<g id="edge5_Node000005_Node000006" class="edge">
<title>Node5&#45;&gt;Node6</title>
<g id="a_edge5_Node000005_Node000006"><a xlink:title=" ">
<path fill="none" stroke="#63b8ff" d="M386.99,-67.38C394.72,-67.38 402.92,-67.38 410.83,-67.38"/>
<polygon fill="#63b8ff" stroke="#63b8ff" points="410.6,-70.88 420.6,-67.38 410.6,-63.88 410.6,-70.88"/>
</a>
</g>
</g>
</g>
</svg>
