<?xml version="1.0" encoding="UTF-8" standalone="no"?>
<!DOCTYPE svg PUBLIC "-//W3C//DTD SVG 1.1//EN"
 "http://www.w3.org/Graphics/SVG/1.1/DTD/svg11.dtd">
<!-- Generated by graphviz version 12.2.1 (0)
 -->
<!-- Title: w2c__f556 Pages: 1 -->
<svg width="491pt" height="169pt"
 viewBox="0.00 0.00 490.75 168.58" xmlns="http://www.w3.org/2000/svg" xmlns:xlink="http://www.w3.org/1999/xlink">
<g id="graph0" class="graph" transform="scale(1 1) rotate(0) translate(4 164.58)">
<title>w2c__f556</title>
<!-- Node1 -->
<g id="Node000001" class="node">
<title>Node1</title>
<g id="a_Node000001"><a xlink:title=" ">
<polygon fill="#999999" stroke="#666666" points="67.75,-111.36 0,-111.36 0,-90.61 67.75,-90.61 67.75,-111.36"/>
<text text-anchor="middle" x="33.88" y="-97.86" font-family="Helvetica,sans-Serif" font-size="10.00">w2c__f556</text>
</a>
</g>
</g>
<!-- Node2 -->
<g id="Node000002" class="node">
<title>Node2</title>
<g id="a_Node000002"><a xlink:href="app_8c.html#aee003829aebed6402992d02b46e1a568" target="_top" xlink:title=" ">
<polygon fill="white" stroke="#666666" points="379,-92.36 311.25,-92.36 311.25,-71.61 379,-71.61 379,-92.36"/>
<text text-anchor="middle" x="345.12" y="-78.86" font-family="Helvetica,sans-Serif" font-size="10.00">w2c__f347</text>
</a>
</g>
</g>
<!-- Node1&#45;&gt;Node2 -->
<g id="edge1_Node000001_Node000002" class="edge">
<title>Node1&#45;&gt;Node2</title>
<g id="a_edge1_Node000001_Node000002"><a xlink:title=" ">
<path fill="none" stroke="#63b8ff" d="M67.93,-99.21C114.28,-96.69 201.21,-91.83 275.25,-86.99 283.14,-86.47 291.53,-85.89 299.65,-85.31"/>
<polygon fill="#63b8ff" stroke="#63b8ff" points="299.62,-88.82 309.34,-84.61 299.12,-81.84 299.62,-88.82"/>
</a>
</g>
</g>
<!-- Node3 -->
<g id="Node000003" class="node">
<title>Node3</title>
<g id="a_Node000003"><a xlink:href="app_8c.html#ab78a9ba6819f5a9d3b53302097151d33" target="_top" xlink:title=" ">
<polygon fill="white" stroke="#666666" points="482.75,-92.36 415,-92.36 415,-71.61 482.75,-71.61 482.75,-92.36"/>
<text text-anchor="middle" x="448.88" y="-78.86" font-family="Helvetica,sans-Serif" font-size="10.00">w2c__f481</text>
</a>
</g>
</g>
<!-- Node1&#45;&gt;Node3 -->
<g id="edge12_Node000001_Node000003" class="edge">
<title>Node1&#45;&gt;Node3</title>
<g id="a_edge12_Node000001_Node000003"><a xlink:title=" ">
<path fill="none" stroke="#63b8ff" d="M56.2,-111.8C97.87,-131.64 193.24,-170.72 275.25,-157.99 323.06,-150.57 335.08,-145.29 379,-124.99 394.55,-117.8 410.85,-107.75 423.7,-99.17"/>
<polygon fill="#63b8ff" stroke="#63b8ff" points="425.64,-102.08 431.92,-93.54 421.69,-96.3 425.64,-102.08"/>
</a>
</g>
</g>
<!-- Node4 -->
<g id="Node000004" class="node">
<title>Node4</title>
<g id="a_Node000004"><a xlink:href="app_8c.html#a9513bce17bc72aed77de02f0c1e16bf1" target="_top" xlink:title=" ">
<polygon fill="white" stroke="#666666" points="171.5,-73.36 103.75,-73.36 103.75,-52.61 171.5,-52.61 171.5,-73.36"/>
<text text-anchor="middle" x="137.62" y="-59.86" font-family="Helvetica,sans-Serif" font-size="10.00">w2c__f397</text>
</a>
</g>
</g>
<!-- Node1&#45;&gt;Node4 -->
<g id="edge3_Node000001_Node000004" class="edge">
<title>Node1&#45;&gt;Node4</title>
<g id="a_edge3_Node000001_Node000004"><a xlink:title=" ">
<path fill="none" stroke="#63b8ff" d="M63.76,-90.2C74.07,-86.35 85.88,-81.94 96.94,-77.81"/>
<polygon fill="#63b8ff" stroke="#63b8ff" points="98.11,-81.11 106.25,-74.33 95.66,-74.55 98.11,-81.11"/>
</a>
</g>
</g>
<!-- Node2&#45;&gt;Node3 -->
<g id="edge2_Node000002_Node000003" class="edge">
<title>Node2&#45;&gt;Node3</title>
<g id="a_edge2_Node000002_Node000003"><a xlink:title=" ">
<path fill="none" stroke="#63b8ff" d="M379.44,-81.99C387.07,-81.99 395.31,-81.99 403.33,-81.99"/>
<polygon fill="#63b8ff" stroke="#63b8ff" points="403.32,-85.49 413.32,-81.99 403.32,-78.49 403.32,-85.49"/>
</a>
</g>
</g>
<!-- Node4&#45;&gt;Node2 -->
<g id="edge7_Node000004_Node000002" class="edge">
<title>Node4&#45;&gt;Node2</title>
<g id="a_edge7_Node000004_Node000002"><a xlink:title=" ">
<path fill="none" stroke="#63b8ff" d="M171.64,-66.04C206.29,-69.24 260.98,-74.3 299.46,-77.86"/>
<polygon fill="#63b8ff" stroke="#63b8ff" points="299.06,-81.34 309.34,-78.77 299.71,-74.37 299.06,-81.34"/>
</a>
</g>
</g>
<!-- Node4&#45;&gt;Node3 -->
<g id="edge8_Node000004_Node000003" class="edge">
<title>Node4&#45;&gt;Node3</title>
<g id="a_edge8_Node000004_Node000003"><a xlink:title=" ">
<path fill="none" stroke="#63b8ff" d="M147.07,-52.48C158.88,-38.71 181.8,-15.24 207.5,-5.99 235.83,4.21 245.54,-1.11 275.25,-5.99 323.27,-13.87 334.79,-20.65 379,-40.99 393.96,-47.87 409.81,-57.15 422.53,-65.15"/>
<polygon fill="#63b8ff" stroke="#63b8ff" points="420.4,-67.94 430.71,-70.39 424.18,-62.05 420.4,-67.94"/>
</a>
</g>
</g>
<!-- Node5 -->
<g id="Node000005" class="node">
<title>Node5</title>
<g id="a_Node000005"><a xlink:href="app_8c.html#ad1c5cf7c8fbc4fcb5006841674996abd" target="_top" xlink:title=" ">
<polygon fill="white" stroke="#666666" points="275.25,-35.36 207.5,-35.36 207.5,-14.61 275.25,-14.61 275.25,-35.36"/>
<text text-anchor="middle" x="241.38" y="-21.86" font-family="Helvetica,sans-Serif" font-size="10.00">w2c__f253</text>
</a>
</g>
</g>
<!-- Node4&#45;&gt;Node5 -->
<g id="edge4_Node000004_Node000005" class="edge">
<title>Node4&#45;&gt;Node5</title>
<g id="a_edge4_Node000004_Node000005"><a xlink:title=" ">
<path fill="none" stroke="#63b8ff" d="M167.51,-52.2C177.82,-48.35 189.63,-43.94 200.69,-39.81"/>
<polygon fill="#63b8ff" stroke="#63b8ff" points="201.86,-43.11 210,-36.33 199.41,-36.55 201.86,-43.11"/>
</a>
</g>
</g>
<!-- Node6 -->
<g id="Node000006" class="node">
<title>Node6</title>
<g id="a_Node000006"><a xlink:href="app_8c.html#aa3f7fb2ace6a87e61320ef7401dfd66f" target="_top" xlink:title=" ">
<polygon fill="white" stroke="#666666" points="275.25,-149.36 207.5,-149.36 207.5,-128.61 275.25,-128.61 275.25,-149.36"/>
<text text-anchor="middle" x="241.38" y="-135.86" font-family="Helvetica,sans-Serif" font-size="10.00">w2c__f489</text>
</a>
</g>
</g>
<!-- Node4&#45;&gt;Node6 -->
<g id="edge9_Node000004_Node000006" class="edge">
<title>Node4&#45;&gt;Node6</title>
<g id="a_edge9_Node000004_Node000006"><a xlink:title=" ">
<path fill="none" stroke="#63b8ff" d="M152.77,-73.56C169.38,-85.96 197.18,-106.73 217.01,-121.54"/>
<polygon fill="#63b8ff" stroke="#63b8ff" points="214.7,-124.18 224.81,-127.36 218.89,-118.57 214.7,-124.18"/>
</a>
</g>
</g>
<!-- Node5&#45;&gt;Node2 -->
<g id="edge5_Node000005_Node000002" class="edge">
<title>Node5&#45;&gt;Node2</title>
<g id="a_edge5_Node000005_Node000002"><a xlink:title=" ">
<path fill="none" stroke="#63b8ff" d="M261.51,-35.71C276.62,-44.17 297.95,-56.12 315.15,-65.76"/>
<polygon fill="#63b8ff" stroke="#63b8ff" points="312.97,-68.55 323.41,-70.38 316.39,-62.44 312.97,-68.55"/>
</a>
</g>
</g>
<!-- Node5&#45;&gt;Node3 -->
<g id="edge6_Node000005_Node000003" class="edge">
<title>Node5&#45;&gt;Node3</title>
<g id="a_edge6_Node000005_Node000003"><a xlink:title=" ">
<path fill="none" stroke="#63b8ff" d="M275.39,-34.15C310.19,-43.8 365.2,-59.06 403.71,-69.74"/>
<polygon fill="#63b8ff" stroke="#63b8ff" points="402.57,-73.05 413.14,-72.35 404.44,-66.31 402.57,-73.05"/>
</a>
</g>
</g>
<!-- Node6&#45;&gt;Node2 -->
<g id="edge10_Node000006_Node000002" class="edge">
<title>Node6&#45;&gt;Node2</title>
<g id="a_edge10_Node000006_Node000002"><a xlink:title=" ">
<path fill="none" stroke="#63b8ff" d="M261.51,-128.27C276.62,-119.8 297.95,-107.85 315.15,-98.22"/>
<polygon fill="#63b8ff" stroke="#63b8ff" points="316.39,-101.54 323.41,-93.59 312.97,-95.43 316.39,-101.54"/>
</a>
</g>
</g>
<!-- Node6&#45;&gt;Node3 -->
<g id="edge11_Node000006_Node000003" class="edge">
<title>Node6&#45;&gt;Node3</title>
<g id="a_edge11_Node000006_Node000003"><a xlink:title=" ">
<path fill="none" stroke="#63b8ff" d="M275.39,-129.83C310.19,-120.18 365.2,-104.92 403.71,-94.24"/>
<polygon fill="#63b8ff" stroke="#63b8ff" points="404.44,-97.67 413.14,-91.62 402.57,-90.92 404.44,-97.67"/>
</a>
</g>
</g>
</g>
</svg>
