<?xml version="1.0" encoding="UTF-8" standalone="no"?>
<!DOCTYPE svg PUBLIC "-//W3C//DTD SVG 1.1//EN"
 "http://www.w3.org/Graphics/SVG/1.1/DTD/svg11.dtd">
<!-- Generated by graphviz version 12.2.1 (0)
 -->
<!-- Title: w2c__f428 Pages: 1 -->
<svg width="701pt" height="804pt"
 viewBox="0.00 0.00 700.50 803.75" xmlns="http://www.w3.org/2000/svg" xmlns:xlink="http://www.w3.org/1999/xlink">
<g id="graph0" class="graph" transform="scale(1 1) rotate(0) translate(4 799.75)">
<title>w2c__f428</title>
<!-- Node1 -->
<g id="Node000001" class="node">
<title>Node1</title>
<g id="a_Node000001"><a xlink:title=" ">
<polygon fill="#999999" stroke="#666666" points="67.75,-405.75 0,-405.75 0,-385 67.75,-385 67.75,-405.75"/>
<text text-anchor="middle" x="33.88" y="-392.25" font-family="Helvetica,sans-Serif" font-size="10.00">w2c__f428</text>
</a>
</g>
</g>
<!-- Node2 -->
<g id="Node000002" class="node">
<title>Node2</title>
<g id="a_Node000002"><a xlink:href="app_8c.html#a9667dd647db83da44fc3f87ff2a62201" target="_top" xlink:title=" ">
<polygon fill="white" stroke="#666666" points="167.75,-795.75 109.75,-795.75 109.75,-775 167.75,-775 167.75,-795.75"/>
<text text-anchor="middle" x="138.75" y="-782.25" font-family="Helvetica,sans-Serif" font-size="10.00">w2c_0_0</text>
</a>
</g>
</g>
<!-- Node1&#45;&gt;Node2 -->
<g id="edge1_Node000001_Node000002" class="edge">
<title>Node1&#45;&gt;Node2</title>
<g id="a_edge1_Node000001_Node000002"><a xlink:title=" ">
<path fill="none" stroke="#63b8ff" d="M35.69,-406.21C39.95,-460.7 61.17,-704.66 103.75,-765.38 104.14,-765.94 104.56,-766.48 104.99,-767.02"/>
<polygon fill="#63b8ff" stroke="#63b8ff" points="102.43,-769.42 112.19,-773.54 107.13,-764.23 102.43,-769.42"/>
</a>
</g>
</g>
<!-- Node3 -->
<g id="Node000003" class="node">
<title>Node3</title>
<g id="a_Node000003"><a xlink:href="app_8c.html#a073f670c8a950594dc8c2335dd28302c" target="_top" xlink:title=" ">
<polygon fill="white" stroke="#666666" points="173.75,-756.75 103.75,-756.75 103.75,-736 173.75,-736 173.75,-756.75"/>
<text text-anchor="middle" x="138.75" y="-743.25" font-family="Helvetica,sans-Serif" font-size="10.00">w2c_0_135</text>
</a>
</g>
</g>
<!-- Node1&#45;&gt;Node3 -->
<g id="edge2_Node000001_Node000003" class="edge">
<title>Node1&#45;&gt;Node3</title>
<g id="a_edge2_Node000001_Node000003"><a xlink:title=" ">
<path fill="none" stroke="#63b8ff" d="M35.93,-406.06C41.12,-456.73 65.18,-672.59 103.75,-726.38 104.15,-726.93 104.57,-727.48 105.01,-728.01"/>
<polygon fill="#63b8ff" stroke="#63b8ff" points="102.47,-730.43 112.25,-734.5 107.14,-725.22 102.47,-730.43"/>
</a>
</g>
</g>
<!-- Node4 -->
<g id="Node000004" class="node">
<title>Node4</title>
<g id="a_Node000004"><a xlink:href="app_8c.html#a18a88d48b058bed42fc73361b8889923" target="_top" xlink:title=" ">
<polygon fill="white" stroke="#666666" points="173.75,-717.75 103.75,-717.75 103.75,-697 173.75,-697 173.75,-717.75"/>
<text text-anchor="middle" x="138.75" y="-704.25" font-family="Helvetica,sans-Serif" font-size="10.00">w2c_0_145</text>
</a>
</g>
</g>
<!-- Node1&#45;&gt;Node4 -->
<g id="edge3_Node000001_Node000004" class="edge">
<title>Node1&#45;&gt;Node4</title>
<g id="a_edge3_Node000001_Node000004"><a xlink:title=" ">
<path fill="none" stroke="#63b8ff" d="M34.53,-406.16C33.78,-447.14 36.06,-595.57 103.75,-687.38 104.25,-688.06 104.79,-688.72 105.35,-689.36"/>
<polygon fill="#63b8ff" stroke="#63b8ff" points="102.8,-691.79 112.65,-695.7 107.39,-686.5 102.8,-691.79"/>
</a>
</g>
</g>
<!-- Node5 -->
<g id="Node000005" class="node">
<title>Node5</title>
<g id="a_Node000005"><a xlink:href="app_8c.html#a26f5f3566a80b7694b3e1f282fe44c4e" target="_top" xlink:title=" ">
<polygon fill="white" stroke="#666666" points="173.75,-678.75 103.75,-678.75 103.75,-658 173.75,-658 173.75,-678.75"/>
<text text-anchor="middle" x="138.75" y="-665.25" font-family="Helvetica,sans-Serif" font-size="10.00">w2c_0_160</text>
</a>
</g>
</g>
<!-- Node1&#45;&gt;Node5 -->
<g id="edge4_Node000001_Node000005" class="edge">
<title>Node1&#45;&gt;Node5</title>
<g id="a_edge4_Node000001_Node000005"><a xlink:title=" ">
<path fill="none" stroke="#63b8ff" d="M35.01,-405.99C36.02,-443.26 43.91,-570.06 103.75,-648.38 104.26,-649.05 104.81,-649.7 105.38,-650.34"/>
<polygon fill="#63b8ff" stroke="#63b8ff" points="102.87,-652.8 112.75,-656.63 107.41,-647.48 102.87,-652.8"/>
</a>
</g>
</g>
<!-- Node6 -->
<g id="Node000006" class="node">
<title>Node6</title>
<g id="a_Node000006"><a xlink:href="app_8c.html#a6ff627af0fa7674eab0ae563b97eeb11" target="_top" xlink:title=" ">
<polygon fill="white" stroke="#666666" points="173.75,-639.75 103.75,-639.75 103.75,-619 173.75,-619 173.75,-639.75"/>
<text text-anchor="middle" x="138.75" y="-626.25" font-family="Helvetica,sans-Serif" font-size="10.00">w2c_0_163</text>
</a>
</g>
</g>
<!-- Node1&#45;&gt;Node6 -->
<g id="edge5_Node000001_Node000006" class="edge">
<title>Node1&#45;&gt;Node6</title>
<g id="a_edge5_Node000001_Node000006"><a xlink:title=" ">
<path fill="none" stroke="#63b8ff" d="M35.65,-405.97C38.61,-439.43 51.79,-544.48 103.75,-609.38 104.28,-610.04 104.84,-610.68 105.42,-611.31"/>
<polygon fill="#63b8ff" stroke="#63b8ff" points="102.95,-613.81 112.87,-617.54 107.44,-608.44 102.95,-613.81"/>
</a>
</g>
</g>
<!-- Node7 -->
<g id="Node000007" class="node">
<title>Node7</title>
<g id="a_Node000007"><a xlink:href="app_8c.html#ae7f249bfdedd6f1b6337d1de6b8cab09" target="_top" xlink:title=" ">
<polygon fill="white" stroke="#666666" points="173.75,-600.75 103.75,-600.75 103.75,-580 173.75,-580 173.75,-600.75"/>
<text text-anchor="middle" x="138.75" y="-587.25" font-family="Helvetica,sans-Serif" font-size="10.00">w2c_0_164</text>
</a>
</g>
</g>
<!-- Node1&#45;&gt;Node7 -->
<g id="edge6_Node000001_Node000007" class="edge">
<title>Node1&#45;&gt;Node7</title>
<g id="a_edge6_Node000001_Node000007"><a xlink:title=" ">
<path fill="none" stroke="#63b8ff" d="M36.58,-406.08C41.74,-435.48 59.64,-518.74 103.75,-570.38 104.41,-571.15 105.11,-571.9 105.84,-572.63"/>
<polygon fill="#63b8ff" stroke="#63b8ff" points="103.38,-575.15 113.38,-578.64 107.75,-569.67 103.38,-575.15"/>
</a>
</g>
</g>
<!-- Node8 -->
<g id="Node000008" class="node">
<title>Node8</title>
<g id="a_Node000008"><a xlink:href="app_8c.html#a903261111f66decbcc7b8be9a05f8eea" target="_top" xlink:title=" ">
<polygon fill="white" stroke="#666666" points="173.75,-561.75 103.75,-561.75 103.75,-541 173.75,-541 173.75,-561.75"/>
<text text-anchor="middle" x="138.75" y="-548.25" font-family="Helvetica,sans-Serif" font-size="10.00">w2c_0_179</text>
</a>
</g>
</g>
<!-- Node1&#45;&gt;Node8 -->
<g id="edge7_Node000001_Node000008" class="edge">
<title>Node1&#45;&gt;Node8</title>
<g id="a_edge7_Node000001_Node000008"><a xlink:title=" ">
<path fill="none" stroke="#63b8ff" d="M38,-406.14C45.64,-430.87 67.34,-492.59 103.75,-531.38 104.57,-532.25 105.44,-533.1 106.34,-533.92"/>
<polygon fill="#63b8ff" stroke="#63b8ff" points="103.88,-536.45 113.97,-539.67 108.09,-530.85 103.88,-536.45"/>
</a>
</g>
</g>
<!-- Node9 -->
<g id="Node000009" class="node">
<title>Node9</title>
<g id="a_Node000009"><a xlink:href="app_8c.html#a4132029eef40af3166fadcb720dd7d1b" target="_top" xlink:title=" ">
<polygon fill="white" stroke="#666666" points="170.75,-522.75 106.75,-522.75 106.75,-502 170.75,-502 170.75,-522.75"/>
<text text-anchor="middle" x="138.75" y="-509.25" font-family="Helvetica,sans-Serif" font-size="10.00">w2c_0_18</text>
</a>
</g>
</g>
<!-- Node1&#45;&gt;Node9 -->
<g id="edge8_Node000001_Node000009" class="edge">
<title>Node1&#45;&gt;Node9</title>
<g id="a_edge8_Node000001_Node000009"><a xlink:title=" ">
<path fill="none" stroke="#63b8ff" d="M40.48,-406.1C50.9,-425.26 74.84,-465.84 103.75,-492.38 104.8,-493.34 105.9,-494.28 107.05,-495.19"/>
<polygon fill="#63b8ff" stroke="#63b8ff" points="104.84,-497.92 115.05,-500.75 108.84,-492.17 104.84,-497.92"/>
</a>
</g>
</g>
<!-- Node10 -->
<g id="Node000010" class="node">
<title>Node10</title>
<g id="a_Node000010"><a xlink:href="app_8c.html#ab9a7bf05ec0bdc1b85a7b30935e397a8" target="_top" xlink:title=" ">
<polygon fill="white" stroke="#666666" points="170.75,-483.75 106.75,-483.75 106.75,-463 170.75,-463 170.75,-483.75"/>
<text text-anchor="middle" x="138.75" y="-470.25" font-family="Helvetica,sans-Serif" font-size="10.00">w2c_0_55</text>
</a>
</g>
</g>
<!-- Node1&#45;&gt;Node10 -->
<g id="edge9_Node000001_Node000010" class="edge">
<title>Node1&#45;&gt;Node10</title>
<g id="a_edge9_Node000001_Node000010"><a xlink:title=" ">
<path fill="none" stroke="#63b8ff" d="M46.1,-405.85C59.35,-417.97 82.31,-438.21 103.75,-453.38 105.29,-454.46 106.89,-455.55 108.52,-456.62"/>
<polygon fill="#63b8ff" stroke="#63b8ff" points="106.35,-459.39 116.69,-461.7 110.05,-453.45 106.35,-459.39"/>
</a>
</g>
</g>
<!-- Node11 -->
<g id="Node000011" class="node">
<title>Node11</title>
<g id="a_Node000011"><a xlink:href="app_8c.html#a0845deaa52bf05e7f31689bf095f9e15" target="_top" xlink:title=" ">
<polygon fill="white" stroke="#666666" points="170.75,-444.75 106.75,-444.75 106.75,-424 170.75,-424 170.75,-444.75"/>
<text text-anchor="middle" x="138.75" y="-431.25" font-family="Helvetica,sans-Serif" font-size="10.00">w2c_0_65</text>
</a>
</g>
</g>
<!-- Node1&#45;&gt;Node11 -->
<g id="edge10_Node000001_Node000011" class="edge">
<title>Node1&#45;&gt;Node11</title>
<g id="a_edge10_Node000001_Node000011"><a xlink:title=" ">
<path fill="none" stroke="#63b8ff" d="M63.53,-406.24C74.46,-410.38 87.1,-415.17 98.82,-419.62"/>
<polygon fill="#63b8ff" stroke="#63b8ff" points="97.24,-422.76 107.83,-423.03 99.72,-416.22 97.24,-422.76"/>
</a>
</g>
</g>
<!-- Node12 -->
<g id="Node000012" class="node">
<title>Node12</title>
<g id="a_Node000012"><a xlink:href="app_8c.html#af2a6460aa980eac83d4be2336a5682cc" target="_top" xlink:title=" ">
<polygon fill="white" stroke="#666666" points="170.75,-405.75 106.75,-405.75 106.75,-385 170.75,-385 170.75,-405.75"/>
<text text-anchor="middle" x="138.75" y="-392.25" font-family="Helvetica,sans-Serif" font-size="10.00">w2c_0_86</text>
</a>
</g>
</g>
<!-- Node1&#45;&gt;Node12 -->
<g id="edge11_Node000001_Node000012" class="edge">
<title>Node1&#45;&gt;Node12</title>
<g id="a_edge11_Node000001_Node000012"><a xlink:title=" ">
<path fill="none" stroke="#63b8ff" d="M67.99,-395.38C76.66,-395.38 86.14,-395.38 95.23,-395.38"/>
<polygon fill="#63b8ff" stroke="#63b8ff" points="94.93,-398.88 104.93,-395.38 94.93,-391.88 94.93,-398.88"/>
</a>
</g>
</g>
<!-- Node13 -->
<g id="Node000013" class="node">
<title>Node13</title>
<g id="a_Node000013"><a xlink:href="app_8c.html#a7504175e528fefc9d7ea063432bef9d5" target="_top" xlink:title=" ">
<polygon fill="white" stroke="#666666" points="170.75,-366.75 106.75,-366.75 106.75,-346 170.75,-346 170.75,-366.75"/>
<text text-anchor="middle" x="138.75" y="-353.25" font-family="Helvetica,sans-Serif" font-size="10.00">w2c_0_87</text>
</a>
</g>
</g>
<!-- Node1&#45;&gt;Node13 -->
<g id="edge12_Node000001_Node000013" class="edge">
<title>Node1&#45;&gt;Node13</title>
<g id="a_edge12_Node000001_Node000013"><a xlink:title=" ">
<path fill="none" stroke="#63b8ff" d="M63.53,-384.51C74.46,-380.37 87.1,-375.58 98.82,-371.13"/>
<polygon fill="#63b8ff" stroke="#63b8ff" points="99.72,-374.53 107.83,-367.72 97.24,-367.99 99.72,-374.53"/>
</a>
</g>
</g>
<!-- Node14 -->
<g id="Node000014" class="node">
<title>Node14</title>
<g id="a_Node000014"><a xlink:href="app_8c.html#a0e3bef21fd9a976288b266a9e18893b9" target="_top" xlink:title=" ">
<polygon fill="white" stroke="#666666" points="170.75,-327.75 106.75,-327.75 106.75,-307 170.75,-307 170.75,-327.75"/>
<text text-anchor="middle" x="138.75" y="-314.25" font-family="Helvetica,sans-Serif" font-size="10.00">w2c_0_93</text>
</a>
</g>
</g>
<!-- Node1&#45;&gt;Node14 -->
<g id="edge13_Node000001_Node000014" class="edge">
<title>Node1&#45;&gt;Node14</title>
<g id="a_edge13_Node000001_Node000014"><a xlink:title=" ">
<path fill="none" stroke="#63b8ff" d="M46.1,-384.9C59.35,-372.78 82.31,-352.54 103.75,-337.38 105.29,-336.29 106.89,-335.2 108.52,-334.13"/>
<polygon fill="#63b8ff" stroke="#63b8ff" points="110.05,-337.3 116.69,-329.05 106.35,-331.36 110.05,-337.3"/>
</a>
</g>
</g>
<!-- Node15 -->
<g id="Node000015" class="node">
<title>Node15</title>
<g id="a_Node000015"><a xlink:href="app_8c.html#a0378208e0d5c0d1d6e7370f1c578fab3" target="_top" xlink:title=" ">
<polygon fill="white" stroke="#666666" points="588.75,-329.75 521,-329.75 521,-309 588.75,-309 588.75,-329.75"/>
<text text-anchor="middle" x="554.88" y="-316.25" font-family="Helvetica,sans-Serif" font-size="10.00">w2c__f216</text>
</a>
</g>
</g>
<!-- Node1&#45;&gt;Node15 -->
<g id="edge14_Node000001_Node000015" class="edge">
<title>Node1&#45;&gt;Node15</title>
<g id="a_edge14_Node000001_Node000015"><a xlink:title=" ">
<path fill="none" stroke="#63b8ff" d="M38.65,-384.62C46.73,-363.46 67.96,-316.85 103.75,-298.38 139.13,-280.1 402.99,-304.18 509.49,-314.8"/>
<polygon fill="#63b8ff" stroke="#63b8ff" points="508.98,-318.27 519.28,-315.79 509.68,-311.3 508.98,-318.27"/>
</a>
</g>
</g>
<!-- Node17 -->
<g id="Node000017" class="node">
<title>Node17</title>
<g id="a_Node000017"><a xlink:href="app_8c.html#a473677c504e5effa085c43e095d81177" target="_top" xlink:title=" ">
<polygon fill="white" stroke="#666666" points="172.62,-251.75 104.88,-251.75 104.88,-231 172.62,-231 172.62,-251.75"/>
<text text-anchor="middle" x="138.75" y="-238.25" font-family="Helvetica,sans-Serif" font-size="10.00">w2c__f228</text>
</a>
</g>
</g>
<!-- Node1&#45;&gt;Node17 -->
<g id="edge16_Node000001_Node000017" class="edge">
<title>Node1&#45;&gt;Node17</title>
<g id="a_edge16_Node000001_Node000017"><a xlink:title=" ">
<path fill="none" stroke="#63b8ff" d="M38.6,-384.59C47.18,-360.92 70.17,-303.53 103.75,-265.38 105.67,-263.19 107.83,-261.1 110.1,-259.13"/>
<polygon fill="#63b8ff" stroke="#63b8ff" points="112.18,-261.95 117.97,-253.08 107.91,-256.4 112.18,-261.95"/>
</a>
</g>
</g>
<!-- Node21 -->
<g id="Node000021" class="node">
<title>Node21</title>
<g id="a_Node000021"><a xlink:href="app_8c.html#aaca5d5bcf49f2ca74019cf097750b9f3" target="_top" xlink:title=" ">
<polygon fill="white" stroke="#666666" points="588.75,-214.75 521,-214.75 521,-194 588.75,-194 588.75,-214.75"/>
<text text-anchor="middle" x="554.88" y="-201.25" font-family="Helvetica,sans-Serif" font-size="10.00">w2c__f258</text>
</a>
</g>
</g>
<!-- Node1&#45;&gt;Node21 -->
<g id="edge31_Node000001_Node000021" class="edge">
<title>Node1&#45;&gt;Node21</title>
<g id="a_edge31_Node000001_Node000021"><a xlink:title=" ">
<path fill="none" stroke="#63b8ff" d="M35.57,-384.68C38.19,-353.82 50.28,-264.21 103.75,-222.38 152.81,-183.99 180.33,-203.38 242.62,-203.38 242.62,-203.38 242.62,-203.38 348.38,-203.38 403.86,-203.38 467.77,-203.74 509.39,-204.03"/>
<polygon fill="#63b8ff" stroke="#63b8ff" points="509.24,-207.53 519.26,-204.1 509.29,-200.53 509.24,-207.53"/>
</a>
</g>
</g>
<!-- Node26 -->
<g id="Node000026" class="node">
<title>Node26</title>
<g id="a_Node000026"><a xlink:href="app_8c.html#a8d8a9f240d971fdd48e2227d3e26416d" target="_top" xlink:title=" ">
<polygon fill="white" stroke="#666666" points="172.62,-137.75 104.88,-137.75 104.88,-117 172.62,-117 172.62,-137.75"/>
<text text-anchor="middle" x="138.75" y="-124.25" font-family="Helvetica,sans-Serif" font-size="10.00">w2c__f283</text>
</a>
</g>
</g>
<!-- Node1&#45;&gt;Node26 -->
<g id="edge32_Node000001_Node000026" class="edge">
<title>Node1&#45;&gt;Node26</title>
<g id="a_edge32_Node000001_Node000026"><a xlink:title=" ">
<path fill="none" stroke="#63b8ff" d="M35.4,-384.55C37.67,-348.23 49.1,-228.64 103.75,-151.38 105.36,-149.1 107.25,-146.97 109.3,-144.99"/>
<polygon fill="#63b8ff" stroke="#63b8ff" points="111.05,-148.08 116.61,-139.06 106.64,-142.65 111.05,-148.08"/>
</a>
</g>
</g>
<!-- Node27 -->
<g id="Node000027" class="node">
<title>Node27</title>
<g id="a_Node000027"><a xlink:href="app_8c.html#a0bc90b77449a4191d27077f29db94c10" target="_top" xlink:title=" ">
<polygon fill="white" stroke="#666666" points="172.62,-98.75 104.88,-98.75 104.88,-78 172.62,-78 172.62,-98.75"/>
<text text-anchor="middle" x="138.75" y="-85.25" font-family="Helvetica,sans-Serif" font-size="10.00">w2c__f390</text>
</a>
</g>
</g>
<!-- Node1&#45;&gt;Node27 -->
<g id="edge33_Node000001_Node000027" class="edge">
<title>Node1&#45;&gt;Node27</title>
<g id="a_edge33_Node000001_Node000027"><a xlink:title=" ">
<path fill="none" stroke="#63b8ff" d="M34.59,-384.77C34.04,-344.48 36.98,-198.57 103.75,-108.38 104.25,-107.69 104.79,-107.03 105.35,-106.39"/>
<polygon fill="#63b8ff" stroke="#63b8ff" points="107.39,-109.25 112.66,-100.06 102.81,-103.96 107.39,-109.25"/>
</a>
</g>
</g>
<!-- Node29 -->
<g id="Node000029" class="node">
<title>Node29</title>
<g id="a_Node000029"><a xlink:href="app_8c.html#a87ed9e71bb510c147810da63c198b7b2" target="_top" xlink:title=" ">
<polygon fill="white" stroke="#666666" points="381.25,-175.75 313.5,-175.75 313.5,-155 381.25,-155 381.25,-175.75"/>
<text text-anchor="middle" x="347.38" y="-162.25" font-family="Helvetica,sans-Serif" font-size="10.00">w2c__f398</text>
</a>
</g>
</g>
<!-- Node1&#45;&gt;Node29 -->
<g id="edge35_Node000001_Node000029" class="edge">
<title>Node1&#45;&gt;Node29</title>
<g id="a_edge35_Node000001_Node000029"><a xlink:title=" ">
<path fill="none" stroke="#63b8ff" d="M34.73,-384.62C34.92,-349.84 40.67,-239.7 103.75,-189.38 160.16,-144.37 249.05,-148.67 302.13,-156.56"/>
<polygon fill="#63b8ff" stroke="#63b8ff" points="301.29,-159.97 311.72,-158.09 302.4,-153.05 301.29,-159.97"/>
</a>
</g>
</g>
<!-- Node30 -->
<g id="Node000030" class="node">
<title>Node30</title>
<g id="a_Node000030"><a xlink:href="app_8c.html#ab78a9ba6819f5a9d3b53302097151d33" target="_top" xlink:title=" ">
<polygon fill="white" stroke="#666666" points="172.62,-59.75 104.88,-59.75 104.88,-39 172.62,-39 172.62,-59.75"/>
<text text-anchor="middle" x="138.75" y="-46.25" font-family="Helvetica,sans-Serif" font-size="10.00">w2c__f481</text>
</a>
</g>
</g>
<!-- Node1&#45;&gt;Node30 -->
<g id="edge37_Node000001_Node000030" class="edge">
<title>Node1&#45;&gt;Node30</title>
<g id="a_edge37_Node000001_Node000030"><a xlink:title=" ">
<path fill="none" stroke="#63b8ff" d="M35.99,-384.52C41.34,-334 65.75,-122.2 103.75,-69.38 104.15,-68.82 104.57,-68.28 105.01,-67.75"/>
<polygon fill="#63b8ff" stroke="#63b8ff" points="107.14,-70.54 112.25,-61.26 102.47,-65.32 107.14,-70.54"/>
</a>
</g>
</g>
<!-- Node31 -->
<g id="Node000031" class="node">
<title>Node31</title>
<g id="a_Node000031"><a xlink:href="app_8c.html#a672569c91ebb1d5055d737b56ec296a7" target="_top" xlink:title=" ">
<polygon fill="white" stroke="#666666" points="172.62,-20.75 104.88,-20.75 104.88,0 172.62,0 172.62,-20.75"/>
<text text-anchor="middle" x="138.75" y="-7.25" font-family="Helvetica,sans-Serif" font-size="10.00">w2c__f585</text>
</a>
</g>
</g>
<!-- Node1&#45;&gt;Node31 -->
<g id="edge38_Node000001_Node000031" class="edge">
<title>Node1&#45;&gt;Node31</title>
<g id="a_edge38_Node000001_Node000031"><a xlink:title=" ">
<path fill="none" stroke="#63b8ff" d="M35.71,-384.69C40.06,-330.93 61.65,-90.25 103.75,-30.38 104.14,-29.81 104.56,-29.27 104.99,-28.73"/>
<polygon fill="#63b8ff" stroke="#63b8ff" points="107.13,-31.52 112.19,-22.22 102.43,-26.33 107.13,-31.52"/>
</a>
</g>
</g>
<!-- Node16 -->
<g id="Node000016" class="node">
<title>Node16</title>
<g id="a_Node000016"><a xlink:href="app_8c.html#a8d9f347f9a643f0ebfb53c4f54578ac4" target="_top" xlink:title=" ">
<polygon fill="white" stroke="#666666" points="692.5,-272.75 624.75,-272.75 624.75,-252 692.5,-252 692.5,-272.75"/>
<text text-anchor="middle" x="658.62" y="-259.25" font-family="Helvetica,sans-Serif" font-size="10.00">w2c__f304</text>
</a>
</g>
</g>
<!-- Node15&#45;&gt;Node16 -->
<g id="edge15_Node000015_Node000016" class="edge">
<title>Node15&#45;&gt;Node16</title>
<g id="a_edge15_Node000015_Node000016"><a xlink:title=" ">
<path fill="none" stroke="#63b8ff" d="M575.01,-308.65C590.12,-300.19 611.45,-288.24 628.65,-278.6"/>
<polygon fill="#63b8ff" stroke="#63b8ff" points="629.89,-281.92 636.91,-273.98 626.47,-275.82 629.89,-281.92"/>
</a>
</g>
</g>
<!-- Node18 -->
<g id="Node000018" class="node">
<title>Node18</title>
<g id="a_Node000018"><a xlink:href="app_8c.html#a16393b3c5cd680d67eabb5d0da38635c" target="_top" xlink:title=" ">
<polygon fill="white" stroke="#666666" points="277.5,-251.75 209.75,-251.75 209.75,-231 277.5,-231 277.5,-251.75"/>
<text text-anchor="middle" x="243.62" y="-238.25" font-family="Helvetica,sans-Serif" font-size="10.00">w2c__f551</text>
</a>
</g>
</g>
<!-- Node17&#45;&gt;Node18 -->
<g id="edge17_Node000017_Node000018" class="edge">
<title>Node17&#45;&gt;Node18</title>
<g id="a_edge17_Node000017_Node000018"><a xlink:title=" ">
<path fill="none" stroke="#63b8ff" d="M172.87,-241.38C180.94,-241.38 189.71,-241.38 198.22,-241.38"/>
<polygon fill="#63b8ff" stroke="#63b8ff" points="198.06,-244.88 208.06,-241.38 198.06,-237.88 198.06,-244.88"/>
</a>
</g>
</g>
<!-- Node19 -->
<g id="Node000019" class="node">
<title>Node19</title>
<g id="a_Node000019"><a xlink:href="app_8c.html#a1a8a1d528c65d63a630e19c3a4bdd098" target="_top" xlink:title=" ">
<polygon fill="white" stroke="#666666" points="381.25,-251.75 313.5,-251.75 313.5,-231 381.25,-231 381.25,-251.75"/>
<text text-anchor="middle" x="347.38" y="-238.25" font-family="Helvetica,sans-Serif" font-size="10.00">w2c__f557</text>
</a>
</g>
</g>
<!-- Node18&#45;&gt;Node19 -->
<g id="edge18_Node000018_Node000019" class="edge">
<title>Node18&#45;&gt;Node19</title>
<g id="a_edge18_Node000018_Node000019"><a xlink:title=" ">
<path fill="none" stroke="#63b8ff" d="M277.94,-241.38C285.57,-241.38 293.81,-241.38 301.83,-241.38"/>
<polygon fill="#63b8ff" stroke="#63b8ff" points="301.82,-244.88 311.82,-241.38 301.82,-237.88 301.82,-244.88"/>
</a>
</g>
</g>
<!-- Node20 -->
<g id="Node000020" class="node">
<title>Node20</title>
<g id="a_Node000020"><a xlink:href="app_8c.html#a0f7003812eaf983535ff7979fc047a21" target="_top" xlink:title=" ">
<polygon fill="white" stroke="#666666" points="485,-251.75 417.25,-251.75 417.25,-231 485,-231 485,-251.75"/>
<text text-anchor="middle" x="451.12" y="-238.25" font-family="Helvetica,sans-Serif" font-size="10.00">w2c__f353</text>
</a>
</g>
</g>
<!-- Node19&#45;&gt;Node20 -->
<g id="edge19_Node000019_Node000020" class="edge">
<title>Node19&#45;&gt;Node20</title>
<g id="a_edge19_Node000019_Node000020"><a xlink:title=" ">
<path fill="none" stroke="#63b8ff" d="M381.69,-241.38C389.32,-241.38 397.56,-241.38 405.58,-241.38"/>
<polygon fill="#63b8ff" stroke="#63b8ff" points="405.57,-244.88 415.57,-241.38 405.57,-237.88 405.57,-244.88"/>
</a>
</g>
</g>
<!-- Node24 -->
<g id="Node000024" class="node">
<title>Node24</title>
<g id="a_Node000024"><a xlink:href="app_8c.html#ac9cc84763a9c1933e50eedd7a06c17e2" target="_top" xlink:title=" ">
<polygon fill="white" stroke="#666666" points="485,-290.75 417.25,-290.75 417.25,-270 485,-270 485,-290.75"/>
<text text-anchor="middle" x="451.12" y="-277.25" font-family="Helvetica,sans-Serif" font-size="10.00">w2c__f480</text>
</a>
</g>
</g>
<!-- Node19&#45;&gt;Node24 -->
<g id="edge25_Node000019_Node000024" class="edge">
<title>Node19&#45;&gt;Node24</title>
<g id="a_edge25_Node000019_Node000024"><a xlink:title=" ">
<path fill="none" stroke="#63b8ff" d="M376.72,-252.24C387.41,-256.34 399.77,-261.08 411.26,-265.48"/>
<polygon fill="#63b8ff" stroke="#63b8ff" points="409.93,-268.72 420.52,-269.03 412.44,-262.18 409.93,-268.72"/>
</a>
</g>
</g>
<!-- Node20&#45;&gt;Node21 -->
<g id="edge20_Node000020_Node000021" class="edge">
<title>Node20&#45;&gt;Node21</title>
<g id="a_edge20_Node000020_Node000021"><a xlink:title=" ">
<path fill="none" stroke="#63b8ff" d="M481.83,-230.57C491.75,-226.96 502.99,-222.88 513.58,-219.03"/>
<polygon fill="#63b8ff" stroke="#63b8ff" points="514.69,-222.35 522.89,-215.64 512.29,-215.77 514.69,-222.35"/>
</a>
</g>
</g>
<!-- Node23 -->
<g id="Node000023" class="node">
<title>Node23</title>
<g id="a_Node000023"><a xlink:href="app_8c.html#a4634342addbde677893ffcb45cf639dd" target="_top" xlink:title=" ">
<polygon fill="white" stroke="#666666" points="588.75,-253.75 521,-253.75 521,-233 588.75,-233 588.75,-253.75"/>
<text text-anchor="middle" x="554.88" y="-240.25" font-family="Helvetica,sans-Serif" font-size="10.00">w2c__f302</text>
</a>
</g>
</g>
<!-- Node20&#45;&gt;Node23 -->
<g id="edge23_Node000020_Node000023" class="edge">
<title>Node20&#45;&gt;Node23</title>
<g id="a_edge23_Node000020_Node000023"><a xlink:title=" ">
<path fill="none" stroke="#63b8ff" d="M485.44,-242.03C493.07,-242.18 501.31,-242.34 509.33,-242.5"/>
<polygon fill="#63b8ff" stroke="#63b8ff" points="509.25,-246 519.32,-242.7 509.39,-239 509.25,-246"/>
</a>
</g>
</g>
<!-- Node21&#45;&gt;Node16 -->
<g id="edge21_Node000021_Node000016" class="edge">
<title>Node21&#45;&gt;Node16</title>
<g id="a_edge21_Node000021_Node000016"><a xlink:title=" ">
<path fill="none" stroke="#63b8ff" d="M574.54,-215.01C589.79,-223.71 611.6,-236.14 629.05,-246.09"/>
<polygon fill="#63b8ff" stroke="#63b8ff" points="627,-248.95 637.42,-250.86 630.47,-242.87 627,-248.95"/>
</a>
</g>
</g>
<!-- Node22 -->
<g id="Node000022" class="node">
<title>Node22</title>
<g id="a_Node000022"><a xlink:href="app_8c.html#a881f0b113e93dce3ff52d04b435850f6" target="_top" xlink:title=" ">
<polygon fill="white" stroke="#666666" points="692.5,-214.75 624.75,-214.75 624.75,-194 692.5,-194 692.5,-214.75"/>
<text text-anchor="middle" x="658.62" y="-201.25" font-family="Helvetica,sans-Serif" font-size="10.00">w2c__f491</text>
</a>
</g>
</g>
<!-- Node21&#45;&gt;Node22 -->
<g id="edge22_Node000021_Node000022" class="edge">
<title>Node21&#45;&gt;Node22</title>
<g id="a_edge22_Node000021_Node000022"><a xlink:title=" ">
<path fill="none" stroke="#63b8ff" d="M589.19,-204.38C596.82,-204.38 605.06,-204.38 613.08,-204.38"/>
<polygon fill="#63b8ff" stroke="#63b8ff" points="613.07,-207.88 623.07,-204.38 613.07,-200.88 613.07,-207.88"/>
</a>
</g>
</g>
<!-- Node23&#45;&gt;Node16 -->
<g id="edge24_Node000023_Node000016" class="edge">
<title>Node23&#45;&gt;Node16</title>
<g id="a_edge24_Node000023_Node000016"><a xlink:title=" ">
<path fill="none" stroke="#63b8ff" d="M589.19,-249.6C596.91,-251.04 605.25,-252.59 613.36,-254.11"/>
<polygon fill="#63b8ff" stroke="#63b8ff" points="612.62,-257.53 623.09,-255.93 613.91,-250.65 612.62,-257.53"/>
</a>
</g>
</g>
<!-- Node24&#45;&gt;Node15 -->
<g id="edge26_Node000024_Node000015" class="edge">
<title>Node24&#45;&gt;Node15</title>
<g id="a_edge26_Node000024_Node000015"><a xlink:title=" ">
<path fill="none" stroke="#63b8ff" d="M480.47,-291.24C491.16,-295.34 503.52,-300.08 515.01,-304.48"/>
<polygon fill="#63b8ff" stroke="#63b8ff" points="513.68,-307.72 524.27,-308.03 516.19,-301.18 513.68,-307.72"/>
</a>
</g>
</g>
<!-- Node24&#45;&gt;Node16 -->
<g id="edge29_Node000024_Node000016" class="edge">
<title>Node24&#45;&gt;Node16</title>
<g id="a_edge29_Node000024_Node000016"><a xlink:title=" ">
<path fill="none" stroke="#63b8ff" d="M485.14,-277.48C519.79,-274.45 574.48,-269.66 612.96,-266.29"/>
<polygon fill="#63b8ff" stroke="#63b8ff" points="613.18,-269.78 622.84,-265.42 612.57,-262.81 613.18,-269.78"/>
</a>
</g>
</g>
<!-- Node24&#45;&gt;Node21 -->
<g id="edge27_Node000024_Node000021" class="edge">
<title>Node24&#45;&gt;Node21</title>
<g id="a_edge27_Node000024_Node000021"><a xlink:title=" ">
<path fill="none" stroke="#63b8ff" d="M471.42,-269.7C476.01,-266.87 480.8,-263.68 485,-260.38 502.79,-246.4 503.21,-238.35 521,-224.38 522.31,-223.34 523.68,-222.32 525.09,-221.32"/>
<polygon fill="#63b8ff" stroke="#63b8ff" points="526.9,-224.32 533.32,-215.89 523.05,-218.47 526.9,-224.32"/>
</a>
</g>
</g>
<!-- Node24&#45;&gt;Node23 -->
<g id="edge28_Node000024_Node000023" class="edge">
<title>Node24&#45;&gt;Node23</title>
<g id="a_edge28_Node000024_Node000023"><a xlink:title=" ">
<path fill="none" stroke="#63b8ff" d="M481.83,-269.57C491.75,-265.96 502.99,-261.88 513.58,-258.03"/>
<polygon fill="#63b8ff" stroke="#63b8ff" points="514.69,-261.35 522.89,-254.64 512.29,-254.77 514.69,-261.35"/>
</a>
</g>
</g>
<!-- Node25 -->
<g id="Node000025" class="node">
<title>Node25</title>
<g id="a_Node000025"><a xlink:href="app_8c.html#a674f6e81761467d0a8dc6d2a425eda9f" target="_top" xlink:title=" ">
<polygon fill="white" stroke="#666666" points="588.75,-175.75 521,-175.75 521,-155 588.75,-155 588.75,-175.75"/>
<text text-anchor="middle" x="554.88" y="-162.25" font-family="Helvetica,sans-Serif" font-size="10.00">w2c__f498</text>
</a>
</g>
</g>
<!-- Node24&#45;&gt;Node25 -->
<g id="edge30_Node000024_Node000025" class="edge">
<title>Node24&#45;&gt;Node25</title>
<g id="a_edge30_Node000024_Node000025"><a xlink:title=" ">
<path fill="none" stroke="#63b8ff" d="M474,-269.53C477.98,-266.91 481.86,-263.84 485,-260.38 509.82,-232.97 496.18,-212.78 521,-185.38 521.69,-184.62 522.41,-183.88 523.16,-183.16"/>
<polygon fill="#63b8ff" stroke="#63b8ff" points="525.11,-186.08 530.81,-177.15 520.78,-180.57 525.11,-186.08"/>
</a>
</g>
</g>
<!-- Node28 -->
<g id="Node000028" class="node">
<title>Node28</title>
<g id="a_Node000028"><a xlink:href="app_8c.html#a75d2a28c1bac8b1e29f069bf851fdba9" target="_top" xlink:title=" ">
<polygon fill="white" stroke="#666666" points="277.5,-98.75 209.75,-98.75 209.75,-78 277.5,-78 277.5,-98.75"/>
<text text-anchor="middle" x="243.62" y="-85.25" font-family="Helvetica,sans-Serif" font-size="10.00">w2c__f549</text>
</a>
</g>
</g>
<!-- Node27&#45;&gt;Node28 -->
<g id="edge34_Node000027_Node000028" class="edge">
<title>Node27&#45;&gt;Node28</title>
<g id="a_edge34_Node000027_Node000028"><a xlink:title=" ">
<path fill="none" stroke="#63b8ff" d="M172.87,-88.38C180.94,-88.38 189.71,-88.38 198.22,-88.38"/>
<polygon fill="#63b8ff" stroke="#63b8ff" points="198.06,-91.88 208.06,-88.38 198.06,-84.88 198.06,-91.88"/>
</a>
</g>
</g>
<!-- Node29&#45;&gt;Node25 -->
<g id="edge36_Node000029_Node000025" class="edge">
<title>Node29&#45;&gt;Node25</title>
<g id="a_edge36_Node000029_Node000025"><a xlink:title=" ">
<path fill="none" stroke="#63b8ff" d="M381.39,-165.38C416.04,-165.38 470.73,-165.38 509.21,-165.38"/>
<polygon fill="#63b8ff" stroke="#63b8ff" points="509.09,-168.88 519.09,-165.38 509.09,-161.88 509.09,-168.88"/>
</a>
</g>
</g>
</g>
</svg>
