<?xml version="1.0" encoding="UTF-8" standalone="no"?>
<!DOCTYPE svg PUBLIC "-//W3C//DTD SVG 1.1//EN"
 "http://www.w3.org/Graphics/SVG/1.1/DTD/svg11.dtd">
<!-- Generated by graphviz version 12.2.1 (0)
 -->
<!-- Title: w2c__f212 Pages: 1 -->
<svg width="802pt" height="163pt"
 viewBox="0.00 0.00 802.00 162.75" xmlns="http://www.w3.org/2000/svg" xmlns:xlink="http://www.w3.org/1999/xlink">
<g id="graph0" class="graph" transform="scale(1 1) rotate(0) translate(4 158.75)">
<title>w2c__f212</title>
<!-- Node1 -->
<g id="Node000001" class="node">
<title>Node1</title>
<g id="a_Node000001"><a xlink:title=" ">
<polygon fill="#999999" stroke="#666666" points="67.75,-116.75 0,-116.75 0,-96 67.75,-96 67.75,-116.75"/>
<text text-anchor="middle" x="33.88" y="-103.25" font-family="Helvetica,sans-Serif" font-size="10.00">w2c__f212</text>
</a>
</g>
</g>
<!-- Node2 -->
<g id="Node000002" class="node">
<title>Node2</title>
<g id="a_Node000002"><a xlink:href="app_8c.html#a986f1214d53a515b2b887b8f988fa6a1" target="_top" xlink:title=" ">
<polygon fill="white" stroke="#666666" points="275.25,-117.75 207.5,-117.75 207.5,-97 275.25,-97 275.25,-117.75"/>
<text text-anchor="middle" x="241.38" y="-104.25" font-family="Helvetica,sans-Serif" font-size="10.00">w2c__f365</text>
</a>
</g>
</g>
<!-- Node1&#45;&gt;Node2 -->
<g id="edge1_Node000001_Node000002" class="edge">
<title>Node1&#45;&gt;Node2</title>
<g id="a_edge1_Node000001_Node000002"><a xlink:title=" ">
<path fill="none" stroke="#63b8ff" d="M67.89,-106.54C102.54,-106.7 157.23,-106.97 195.71,-107.16"/>
<polygon fill="#63b8ff" stroke="#63b8ff" points="195.57,-110.66 205.59,-107.21 195.6,-103.66 195.57,-110.66"/>
</a>
</g>
</g>
<!-- Node12 -->
<g id="Node000012" class="node">
<title>Node12</title>
<g id="a_Node000012"><a xlink:href="app_8c.html#ac86c44b314d05be0a2a2248534b46838" target="_top" xlink:title=" ">
<polygon fill="white" stroke="#666666" points="171.5,-154.75 103.75,-154.75 103.75,-134 171.5,-134 171.5,-154.75"/>
<text text-anchor="middle" x="137.62" y="-141.25" font-family="Helvetica,sans-Serif" font-size="10.00">w2c__f458</text>
</a>
</g>
</g>
<!-- Node1&#45;&gt;Node12 -->
<g id="edge15_Node000001_Node000012" class="edge">
<title>Node1&#45;&gt;Node12</title>
<g id="a_edge15_Node000001_Node000012"><a xlink:title=" ">
<path fill="none" stroke="#63b8ff" d="M63.76,-117.16C74.07,-121.01 85.88,-125.42 96.94,-129.55"/>
<polygon fill="#63b8ff" stroke="#63b8ff" points="95.66,-132.81 106.25,-133.03 98.11,-126.25 95.66,-132.81"/>
</a>
</g>
</g>
<!-- Node13 -->
<g id="Node000013" class="node">
<title>Node13</title>
<g id="a_Node000013"><a xlink:href="app_8c.html#a65a7ed029d328682d1f6fda373974c32" target="_top" xlink:title=" ">
<polygon fill="white" stroke="#666666" points="171.5,-78.75 103.75,-78.75 103.75,-58 171.5,-58 171.5,-78.75"/>
<text text-anchor="middle" x="137.62" y="-65.25" font-family="Helvetica,sans-Serif" font-size="10.00">w2c__f470</text>
</a>
</g>
</g>
<!-- Node1&#45;&gt;Node13 -->
<g id="edge17_Node000001_Node000013" class="edge">
<title>Node1&#45;&gt;Node13</title>
<g id="a_edge17_Node000001_Node000013"><a xlink:title=" ">
<path fill="none" stroke="#63b8ff" d="M63.76,-95.59C74.07,-91.74 85.88,-87.33 96.94,-83.2"/>
<polygon fill="#63b8ff" stroke="#63b8ff" points="98.11,-86.5 106.25,-79.72 95.66,-79.94 98.11,-86.5"/>
</a>
</g>
</g>
<!-- Node3 -->
<g id="Node000003" class="node">
<title>Node3</title>
<g id="a_Node000003"><a xlink:href="app_8c.html#a14e021d2f1b59e04757852f66bff1044" target="_top" xlink:title=" ">
<polygon fill="white" stroke="#666666" points="482.75,-97.75 415,-97.75 415,-77 482.75,-77 482.75,-97.75"/>
<text text-anchor="middle" x="448.88" y="-84.25" font-family="Helvetica,sans-Serif" font-size="10.00">w2c__f511</text>
</a>
</g>
</g>
<!-- Node2&#45;&gt;Node3 -->
<g id="edge2_Node000002_Node000003" class="edge">
<title>Node2&#45;&gt;Node3</title>
<g id="a_edge2_Node000002_Node000003"><a xlink:title=" ">
<path fill="none" stroke="#63b8ff" d="M275.39,-104.16C310.04,-100.79 364.73,-95.47 403.21,-91.72"/>
<polygon fill="#63b8ff" stroke="#63b8ff" points="403.48,-95.21 413.09,-90.76 402.8,-88.25 403.48,-95.21"/>
</a>
</g>
</g>
<!-- Node4 -->
<g id="Node000004" class="node">
<title>Node4</title>
<g id="a_Node000004"><a xlink:href="app_8c.html#aa58fd7f1d3aab8404d7f71d334a8a108" target="_top" xlink:title=" ">
<polygon fill="white" stroke="#666666" points="586.5,-117.75 518.75,-117.75 518.75,-97 586.5,-97 586.5,-117.75"/>
<text text-anchor="middle" x="552.62" y="-104.25" font-family="Helvetica,sans-Serif" font-size="10.00">w2c__f211</text>
</a>
</g>
</g>
<!-- Node3&#45;&gt;Node4 -->
<g id="edge3_Node000003_Node000004" class="edge">
<title>Node3&#45;&gt;Node4</title>
<g id="a_edge3_Node000003_Node000004"><a xlink:title=" ">
<path fill="none" stroke="#63b8ff" d="M483.19,-93.92C490.91,-95.44 499.25,-97.08 507.36,-98.67"/>
<polygon fill="#63b8ff" stroke="#63b8ff" points="506.61,-102.09 517.1,-100.59 507.96,-95.22 506.61,-102.09"/>
</a>
</g>
</g>
<!-- Node9 -->
<g id="Node000009" class="node">
<title>Node9</title>
<g id="a_Node000009"><a xlink:href="app_8c.html#a8c90e9acf2d5915eb0476bc13964c4db" target="_top" xlink:title=" ">
<polygon fill="white" stroke="#666666" points="586.5,-78.75 518.75,-78.75 518.75,-58 586.5,-58 586.5,-78.75"/>
<text text-anchor="middle" x="552.62" y="-65.25" font-family="Helvetica,sans-Serif" font-size="10.00">w2c__f345</text>
</a>
</g>
</g>
<!-- Node3&#45;&gt;Node9 -->
<g id="edge9_Node000003_Node000009" class="edge">
<title>Node3&#45;&gt;Node9</title>
<g id="a_edge9_Node000003_Node000009"><a xlink:title=" ">
<path fill="none" stroke="#63b8ff" d="M483.19,-81.15C490.91,-79.71 499.25,-78.16 507.36,-76.64"/>
<polygon fill="#63b8ff" stroke="#63b8ff" points="507.91,-80.1 517.09,-74.82 506.62,-73.22 507.91,-80.1"/>
</a>
</g>
</g>
<!-- Node5 -->
<g id="Node000005" class="node">
<title>Node5</title>
<g id="a_Node000005"><a xlink:href="app_8c.html#a03fa34d93d32a3ee40dfc2d840730111" target="_top" xlink:title=" ">
<polygon fill="white" stroke="#666666" points="690.25,-137.75 622.5,-137.75 622.5,-117 690.25,-117 690.25,-137.75"/>
<text text-anchor="middle" x="656.38" y="-124.25" font-family="Helvetica,sans-Serif" font-size="10.00">w2c__f262</text>
</a>
</g>
</g>
<!-- Node4&#45;&gt;Node5 -->
<g id="edge4_Node000004_Node000005" class="edge">
<title>Node4&#45;&gt;Node5</title>
<g id="a_edge4_Node000004_Node000005"><a xlink:title=" ">
<path fill="none" stroke="#63b8ff" d="M586.94,-113.92C594.66,-115.44 603,-117.08 611.11,-118.67"/>
<polygon fill="#63b8ff" stroke="#63b8ff" points="610.36,-122.09 620.85,-120.59 611.71,-115.22 610.36,-122.09"/>
</a>
</g>
</g>
<!-- Node8 -->
<g id="Node000008" class="node">
<title>Node8</title>
<g id="a_Node000008"><a xlink:href="app_8c.html#a31b08a294227a9fc0a529e66ccd915dc" target="_top" xlink:title=" ">
<polygon fill="white" stroke="#666666" points="690.25,-98.75 622.5,-98.75 622.5,-78 690.25,-78 690.25,-98.75"/>
<text text-anchor="middle" x="656.38" y="-85.25" font-family="Helvetica,sans-Serif" font-size="10.00">w2c__f325</text>
</a>
</g>
</g>
<!-- Node4&#45;&gt;Node8 -->
<g id="edge7_Node000004_Node000008" class="edge">
<title>Node4&#45;&gt;Node8</title>
<g id="a_edge7_Node000004_Node000008"><a xlink:title=" ">
<path fill="none" stroke="#63b8ff" d="M586.94,-101.15C594.66,-99.71 603,-98.16 611.11,-96.64"/>
<polygon fill="#63b8ff" stroke="#63b8ff" points="611.66,-100.1 620.84,-94.82 610.37,-93.22 611.66,-100.1"/>
</a>
</g>
</g>
<!-- Node6 -->
<g id="Node000006" class="node">
<title>Node6</title>
<g id="a_Node000006"><a xlink:href="app_8c.html#a16207b5f7a97b0ecfddd231452c5aa7e" target="_top" xlink:title=" ">
<polygon fill="white" stroke="#666666" points="794,-137.75 726.25,-137.75 726.25,-117 794,-117 794,-137.75"/>
<text text-anchor="middle" x="760.12" y="-124.25" font-family="Helvetica,sans-Serif" font-size="10.00">w2c__f263</text>
</a>
</g>
</g>
<!-- Node5&#45;&gt;Node6 -->
<g id="edge5_Node000005_Node000006" class="edge">
<title>Node5&#45;&gt;Node6</title>
<g id="a_edge5_Node000005_Node000006"><a xlink:title=" ">
<path fill="none" stroke="#63b8ff" d="M690.69,-127.38C698.32,-127.38 706.56,-127.38 714.58,-127.38"/>
<polygon fill="#63b8ff" stroke="#63b8ff" points="714.57,-130.88 724.57,-127.38 714.57,-123.88 714.57,-130.88"/>
</a>
</g>
</g>
<!-- Node7 -->
<g id="Node000007" class="node">
<title>Node7</title>
<g id="a_Node000007"><a xlink:href="app_8c.html#a71bcbce7faf780cd081af3fa82d6da97" target="_top" xlink:title=" ">
<polygon fill="white" stroke="#666666" points="794,-98.75 726.25,-98.75 726.25,-78 794,-78 794,-98.75"/>
<text text-anchor="middle" x="760.12" y="-85.25" font-family="Helvetica,sans-Serif" font-size="10.00">w2c__f437</text>
</a>
</g>
</g>
<!-- Node5&#45;&gt;Node7 -->
<g id="edge6_Node000005_Node000007" class="edge">
<title>Node5&#45;&gt;Node7</title>
<g id="a_edge6_Node000005_Node000007"><a xlink:title=" ">
<path fill="none" stroke="#63b8ff" d="M685.72,-116.51C696.41,-112.41 708.77,-107.67 720.26,-103.27"/>
<polygon fill="#63b8ff" stroke="#63b8ff" points="721.44,-106.57 729.52,-99.72 718.93,-100.03 721.44,-106.57"/>
</a>
</g>
</g>
<!-- Node8&#45;&gt;Node7 -->
<g id="edge8_Node000008_Node000007" class="edge">
<title>Node8&#45;&gt;Node7</title>
<g id="a_edge8_Node000008_Node000007"><a xlink:title=" ">
<path fill="none" stroke="#63b8ff" d="M690.69,-88.38C698.32,-88.38 706.56,-88.38 714.58,-88.38"/>
<polygon fill="#63b8ff" stroke="#63b8ff" points="714.57,-91.88 724.57,-88.38 714.57,-84.88 714.57,-91.88"/>
</a>
</g>
</g>
<!-- Node9&#45;&gt;Node5 -->
<g id="edge10_Node000009_Node000005" class="edge">
<title>Node9&#45;&gt;Node5</title>
<g id="a_edge10_Node000009_Node000005"><a xlink:title=" ">
<path fill="none" stroke="#63b8ff" d="M572.29,-79.2C587.63,-88.1 609.63,-100.85 627.13,-111"/>
<polygon fill="#63b8ff" stroke="#63b8ff" points="625.11,-113.87 635.52,-115.86 628.63,-107.82 625.11,-113.87"/>
</a>
</g>
</g>
<!-- Node9&#45;&gt;Node8 -->
<g id="edge11_Node000009_Node000008" class="edge">
<title>Node9&#45;&gt;Node8</title>
<g id="a_edge11_Node000009_Node000008"><a xlink:title=" ">
<path fill="none" stroke="#63b8ff" d="M586.94,-74.92C594.66,-76.44 603,-78.08 611.11,-79.67"/>
<polygon fill="#63b8ff" stroke="#63b8ff" points="610.36,-83.09 620.85,-81.59 611.71,-76.22 610.36,-83.09"/>
</a>
</g>
</g>
<!-- Node10 -->
<g id="Node000010" class="node">
<title>Node10</title>
<g id="a_Node000010"><a xlink:href="app_8c.html#a800df00ef236c6d6affc3c661b37e3ad" target="_top" xlink:title=" ">
<polygon fill="white" stroke="#666666" points="690.25,-59.75 622.5,-59.75 622.5,-39 690.25,-39 690.25,-59.75"/>
<text text-anchor="middle" x="656.38" y="-46.25" font-family="Helvetica,sans-Serif" font-size="10.00">w2c__f487</text>
</a>
</g>
</g>
<!-- Node9&#45;&gt;Node10 -->
<g id="edge12_Node000009_Node000010" class="edge">
<title>Node9&#45;&gt;Node10</title>
<g id="a_edge12_Node000009_Node000010"><a xlink:title=" ">
<path fill="none" stroke="#63b8ff" d="M586.94,-62.15C594.66,-60.71 603,-59.16 611.11,-57.64"/>
<polygon fill="#63b8ff" stroke="#63b8ff" points="611.66,-61.1 620.84,-55.82 610.37,-54.22 611.66,-61.1"/>
</a>
</g>
</g>
<!-- Node11 -->
<g id="Node000011" class="node">
<title>Node11</title>
<g id="a_Node000011"><a xlink:href="app_8c.html#a0e0dad0ebc52e45eeff2e1b5d8389ea4" target="_top" xlink:title=" ">
<polygon fill="white" stroke="#666666" points="690.25,-20.75 622.5,-20.75 622.5,0 690.25,0 690.25,-20.75"/>
<text text-anchor="middle" x="656.38" y="-7.25" font-family="Helvetica,sans-Serif" font-size="10.00">w2c__f534</text>
</a>
</g>
</g>
<!-- Node9&#45;&gt;Node11 -->
<g id="edge14_Node000009_Node000011" class="edge">
<title>Node9&#45;&gt;Node11</title>
<g id="a_edge14_Node000009_Node000011"><a xlink:title=" ">
<path fill="none" stroke="#63b8ff" d="M572.29,-57.74C587.54,-49.04 609.35,-36.61 626.8,-26.66"/>
<polygon fill="#63b8ff" stroke="#63b8ff" points="628.22,-29.88 635.17,-21.89 624.75,-23.8 628.22,-29.88"/>
</a>
</g>
</g>
<!-- Node10&#45;&gt;Node7 -->
<g id="edge13_Node000010_Node000007" class="edge">
<title>Node10&#45;&gt;Node7</title>
<g id="a_edge13_Node000010_Node000007"><a xlink:title=" ">
<path fill="none" stroke="#63b8ff" d="M685.72,-60.24C696.41,-64.34 708.77,-69.08 720.26,-73.48"/>
<polygon fill="#63b8ff" stroke="#63b8ff" points="718.93,-76.72 729.52,-77.03 721.44,-70.18 718.93,-76.72"/>
</a>
</g>
</g>
<!-- Node12&#45;&gt;Node2 -->
<g id="edge16_Node000012_Node000002" class="edge">
<title>Node12&#45;&gt;Node2</title>
<g id="a_edge16_Node000012_Node000002"><a xlink:title=" ">
<path fill="none" stroke="#63b8ff" d="M168.33,-133.57C178.25,-129.96 189.49,-125.88 200.08,-122.03"/>
<polygon fill="#63b8ff" stroke="#63b8ff" points="201.19,-125.35 209.39,-118.64 198.79,-118.77 201.19,-125.35"/>
</a>
</g>
</g>
<!-- Node14 -->
<g id="Node000014" class="node">
<title>Node14</title>
<g id="a_Node000014"><a xlink:href="app_8c.html#a0d2b9d1e465bd8169ebd6cf08afb1f69" target="_top" xlink:title=" ">
<polygon fill="white" stroke="#666666" points="275.25,-78.75 207.5,-78.75 207.5,-58 275.25,-58 275.25,-78.75"/>
<text text-anchor="middle" x="241.38" y="-65.25" font-family="Helvetica,sans-Serif" font-size="10.00">w2c__f551</text>
</a>
</g>
</g>
<!-- Node13&#45;&gt;Node14 -->
<g id="edge18_Node000013_Node000014" class="edge">
<title>Node13&#45;&gt;Node14</title>
<g id="a_edge18_Node000013_Node000014"><a xlink:title=" ">
<path fill="none" stroke="#63b8ff" d="M171.94,-68.38C179.57,-68.38 187.81,-68.38 195.83,-68.38"/>
<polygon fill="#63b8ff" stroke="#63b8ff" points="195.82,-71.88 205.82,-68.38 195.82,-64.88 195.82,-71.88"/>
</a>
</g>
</g>
<!-- Node15 -->
<g id="Node000015" class="node">
<title>Node15</title>
<g id="a_Node000015"><a xlink:href="app_8c.html#a70885389166a2cbcb9e78af289ffa12e" target="_top" xlink:title=" ">
<polygon fill="white" stroke="#666666" points="379,-78.75 311.25,-78.75 311.25,-58 379,-58 379,-78.75"/>
<text text-anchor="middle" x="345.12" y="-65.25" font-family="Helvetica,sans-Serif" font-size="10.00">w2c__f577</text>
</a>
</g>
</g>
<!-- Node14&#45;&gt;Node15 -->
<g id="edge19_Node000014_Node000015" class="edge">
<title>Node14&#45;&gt;Node15</title>
<g id="a_edge19_Node000014_Node000015"><a xlink:title=" ">
<path fill="none" stroke="#63b8ff" d="M275.69,-68.38C283.32,-68.38 291.56,-68.38 299.58,-68.38"/>
<polygon fill="#63b8ff" stroke="#63b8ff" points="299.57,-71.88 309.57,-68.38 299.57,-64.88 299.57,-71.88"/>
</a>
</g>
</g>
<!-- Node15&#45;&gt;Node3 -->
<g id="edge20_Node000015_Node000003" class="edge">
<title>Node15&#45;&gt;Node3</title>
<g id="a_edge20_Node000015_Node000003"><a xlink:title=" ">
<path fill="none" stroke="#63b8ff" d="M379.44,-74.6C387.16,-76.04 395.5,-77.59 403.61,-79.11"/>
<polygon fill="#63b8ff" stroke="#63b8ff" points="402.87,-82.53 413.34,-80.93 404.16,-75.65 402.87,-82.53"/>
</a>
</g>
</g>
</g>
</svg>
