<?xml version="1.0" encoding="UTF-8" standalone="no"?>
<!DOCTYPE svg PUBLIC "-//W3C//DTD SVG 1.1//EN"
 "http://www.w3.org/Graphics/SVG/1.1/DTD/svg11.dtd">
<!-- Generated by graphviz version 12.2.1 (0)
 -->
<!-- Title: w2c__f329 Pages: 1 -->
<svg width="283pt" height="222pt"
 viewBox="0.00 0.00 283.25 221.75" xmlns="http://www.w3.org/2000/svg" xmlns:xlink="http://www.w3.org/1999/xlink">
<g id="graph0" class="graph" transform="scale(1 1) rotate(0) translate(4 217.75)">
<title>w2c__f329</title>
<!-- Node1 -->
<g id="Node000001" class="node">
<title>Node1</title>
<g id="a_Node000001"><a xlink:title=" ">
<polygon fill="#999999" stroke="#666666" points="67.75,-116.75 0,-116.75 0,-96 67.75,-96 67.75,-116.75"/>
<text text-anchor="middle" x="33.88" y="-103.25" font-family="Helvetica,sans-Serif" font-size="10.00">w2c__f329</text>
</a>
</g>
</g>
<!-- Node2 -->
<g id="Node000002" class="node">
<title>Node2</title>
<g id="a_Node000002"><a xlink:href="app_8c.html#a0378208e0d5c0d1d6e7370f1c578fab3" target="_top" xlink:title=" ">
<polygon fill="white" stroke="#666666" points="171.5,-213.75 103.75,-213.75 103.75,-193 171.5,-193 171.5,-213.75"/>
<text text-anchor="middle" x="137.62" y="-200.25" font-family="Helvetica,sans-Serif" font-size="10.00">w2c__f216</text>
</a>
</g>
</g>
<!-- Node1&#45;&gt;Node2 -->
<g id="edge1_Node000001_Node000002" class="edge">
<title>Node1&#45;&gt;Node2</title>
<g id="a_edge1_Node000001_Node000002"><a xlink:title=" ">
<path fill="none" stroke="#63b8ff" d="M42.92,-117.25C54.96,-133.05 78.93,-162.73 103.75,-183.38 105,-184.42 106.31,-185.44 107.66,-186.44"/>
<polygon fill="#63b8ff" stroke="#63b8ff" points="105.36,-189.11 115.6,-191.8 109.27,-183.3 105.36,-189.11"/>
</a>
</g>
</g>
<!-- Node4 -->
<g id="Node000004" class="node">
<title>Node4</title>
<g id="a_Node000004"><a xlink:href="app_8c.html#aaca5d5bcf49f2ca74019cf097750b9f3" target="_top" xlink:title=" ">
<polygon fill="white" stroke="#666666" points="171.5,-174.75 103.75,-174.75 103.75,-154 171.5,-154 171.5,-174.75"/>
<text text-anchor="middle" x="137.62" y="-161.25" font-family="Helvetica,sans-Serif" font-size="10.00">w2c__f258</text>
</a>
</g>
</g>
<!-- Node1&#45;&gt;Node4 -->
<g id="edge3_Node000001_Node000004" class="edge">
<title>Node1&#45;&gt;Node4</title>
<g id="a_edge3_Node000001_Node000004"><a xlink:title=" ">
<path fill="none" stroke="#63b8ff" d="M53.54,-117.01C68.79,-125.71 90.6,-138.14 108.05,-148.09"/>
<polygon fill="#63b8ff" stroke="#63b8ff" points="106,-150.95 116.42,-152.86 109.47,-144.87 106,-150.95"/>
</a>
</g>
</g>
<!-- Node6 -->
<g id="Node000006" class="node">
<title>Node6</title>
<g id="a_Node000006"><a xlink:href="app_8c.html#a87ed9e71bb510c147810da63c198b7b2" target="_top" xlink:title=" ">
<polygon fill="white" stroke="#666666" points="171.5,-135.75 103.75,-135.75 103.75,-115 171.5,-115 171.5,-135.75"/>
<text text-anchor="middle" x="137.62" y="-122.25" font-family="Helvetica,sans-Serif" font-size="10.00">w2c__f398</text>
</a>
</g>
</g>
<!-- Node1&#45;&gt;Node6 -->
<g id="edge6_Node000001_Node000006" class="edge">
<title>Node1&#45;&gt;Node6</title>
<g id="a_edge6_Node000001_Node000006"><a xlink:title=" ">
<path fill="none" stroke="#63b8ff" d="M68.19,-112.6C75.91,-114.04 84.25,-115.59 92.36,-117.11"/>
<polygon fill="#63b8ff" stroke="#63b8ff" points="91.62,-120.53 102.09,-118.93 92.91,-113.65 91.62,-120.53"/>
</a>
</g>
</g>
<!-- Node7 -->
<g id="Node000007" class="node">
<title>Node7</title>
<g id="a_Node000007"><a xlink:href="app_8c.html#a674f6e81761467d0a8dc6d2a425eda9f" target="_top" xlink:title=" ">
<polygon fill="white" stroke="#666666" points="275.25,-117.75 207.5,-117.75 207.5,-97 275.25,-97 275.25,-117.75"/>
<text text-anchor="middle" x="241.38" y="-104.25" font-family="Helvetica,sans-Serif" font-size="10.00">w2c__f498</text>
</a>
</g>
</g>
<!-- Node1&#45;&gt;Node7 -->
<g id="edge8_Node000001_Node000007" class="edge">
<title>Node1&#45;&gt;Node7</title>
<g id="a_edge8_Node000001_Node000007"><a xlink:title=" ">
<path fill="none" stroke="#63b8ff" d="M68,-106.24C95.67,-106.16 136.16,-106.12 171.5,-106.38 179.29,-106.43 187.58,-106.52 195.61,-106.63"/>
<polygon fill="#63b8ff" stroke="#63b8ff" points="195.53,-110.13 205.58,-106.77 195.63,-103.13 195.53,-110.13"/>
</a>
</g>
</g>
<!-- Node8 -->
<g id="Node000008" class="node">
<title>Node8</title>
<g id="a_Node000008"><a xlink:href="app_8c.html#abf747258ea915ebf9480c9674226653b" target="_top" xlink:title=" ">
<polygon fill="white" stroke="#666666" points="171.5,-59.75 103.75,-59.75 103.75,-39 171.5,-39 171.5,-59.75"/>
<text text-anchor="middle" x="137.62" y="-46.25" font-family="Helvetica,sans-Serif" font-size="10.00">w2c__f576</text>
</a>
</g>
</g>
<!-- Node1&#45;&gt;Node8 -->
<g id="edge9_Node000001_Node000008" class="edge">
<title>Node1&#45;&gt;Node8</title>
<g id="a_edge9_Node000001_Node000008"><a xlink:title=" ">
<path fill="none" stroke="#63b8ff" d="M54.01,-95.65C69.12,-87.19 90.45,-75.24 107.65,-65.6"/>
<polygon fill="#63b8ff" stroke="#63b8ff" points="108.89,-68.92 115.91,-60.98 105.47,-62.82 108.89,-68.92"/>
</a>
</g>
</g>
<!-- Node10 -->
<g id="Node000010" class="node">
<title>Node10</title>
<g id="a_Node000010"><a xlink:href="app_8c.html#a672569c91ebb1d5055d737b56ec296a7" target="_top" xlink:title=" ">
<polygon fill="white" stroke="#666666" points="171.5,-20.75 103.75,-20.75 103.75,0 171.5,0 171.5,-20.75"/>
<text text-anchor="middle" x="137.62" y="-7.25" font-family="Helvetica,sans-Serif" font-size="10.00">w2c__f585</text>
</a>
</g>
</g>
<!-- Node1&#45;&gt;Node10 -->
<g id="edge11_Node000001_Node000010" class="edge">
<title>Node1&#45;&gt;Node10</title>
<g id="a_edge11_Node000001_Node000010"><a xlink:title=" ">
<path fill="none" stroke="#63b8ff" d="M42.95,-95.66C55.03,-80.07 79.04,-50.79 103.75,-30.38 105.01,-29.34 106.32,-28.32 107.67,-27.32"/>
<polygon fill="#63b8ff" stroke="#63b8ff" points="109.28,-30.46 115.62,-21.97 105.37,-24.65 109.28,-30.46"/>
</a>
</g>
</g>
<!-- Node3 -->
<g id="Node000003" class="node">
<title>Node3</title>
<g id="a_Node000003"><a xlink:href="app_8c.html#a8d9f347f9a643f0ebfb53c4f54578ac4" target="_top" xlink:title=" ">
<polygon fill="white" stroke="#666666" points="275.25,-213.75 207.5,-213.75 207.5,-193 275.25,-193 275.25,-213.75"/>
<text text-anchor="middle" x="241.38" y="-200.25" font-family="Helvetica,sans-Serif" font-size="10.00">w2c__f304</text>
</a>
</g>
</g>
<!-- Node2&#45;&gt;Node3 -->
<g id="edge2_Node000002_Node000003" class="edge">
<title>Node2&#45;&gt;Node3</title>
<g id="a_edge2_Node000002_Node000003"><a xlink:title=" ">
<path fill="none" stroke="#63b8ff" d="M171.94,-203.38C179.57,-203.38 187.81,-203.38 195.83,-203.38"/>
<polygon fill="#63b8ff" stroke="#63b8ff" points="195.82,-206.88 205.82,-203.38 195.82,-199.88 195.82,-206.88"/>
</a>
</g>
</g>
<!-- Node4&#45;&gt;Node3 -->
<g id="edge4_Node000004_Node000003" class="edge">
<title>Node4&#45;&gt;Node3</title>
<g id="a_edge4_Node000004_Node000003"><a xlink:title=" ">
<path fill="none" stroke="#63b8ff" d="M166.97,-175.24C177.66,-179.34 190.02,-184.08 201.51,-188.48"/>
<polygon fill="#63b8ff" stroke="#63b8ff" points="200.18,-191.72 210.77,-192.03 202.69,-185.18 200.18,-191.72"/>
</a>
</g>
</g>
<!-- Node5 -->
<g id="Node000005" class="node">
<title>Node5</title>
<g id="a_Node000005"><a xlink:href="app_8c.html#a881f0b113e93dce3ff52d04b435850f6" target="_top" xlink:title=" ">
<polygon fill="white" stroke="#666666" points="275.25,-174.75 207.5,-174.75 207.5,-154 275.25,-154 275.25,-174.75"/>
<text text-anchor="middle" x="241.38" y="-161.25" font-family="Helvetica,sans-Serif" font-size="10.00">w2c__f491</text>
</a>
</g>
</g>
<!-- Node4&#45;&gt;Node5 -->
<g id="edge5_Node000004_Node000005" class="edge">
<title>Node4&#45;&gt;Node5</title>
<g id="a_edge5_Node000004_Node000005"><a xlink:title=" ">
<path fill="none" stroke="#63b8ff" d="M171.94,-164.38C179.57,-164.38 187.81,-164.38 195.83,-164.38"/>
<polygon fill="#63b8ff" stroke="#63b8ff" points="195.82,-167.88 205.82,-164.38 195.82,-160.88 195.82,-167.88"/>
</a>
</g>
</g>
<!-- Node6&#45;&gt;Node7 -->
<g id="edge7_Node000006_Node000007" class="edge">
<title>Node6&#45;&gt;Node7</title>
<g id="a_edge7_Node000006_Node000007"><a xlink:title=" ">
<path fill="none" stroke="#63b8ff" d="M171.94,-119.48C179.66,-118.12 188,-116.64 196.11,-115.21"/>
<polygon fill="#63b8ff" stroke="#63b8ff" points="196.6,-118.67 205.84,-113.48 195.38,-111.78 196.6,-118.67"/>
</a>
</g>
</g>
<!-- Node9 -->
<g id="Node000009" class="node">
<title>Node9</title>
<g id="a_Node000009"><a xlink:href="app_8c.html#a75d2a28c1bac8b1e29f069bf851fdba9" target="_top" xlink:title=" ">
<polygon fill="white" stroke="#666666" points="275.25,-59.75 207.5,-59.75 207.5,-39 275.25,-39 275.25,-59.75"/>
<text text-anchor="middle" x="241.38" y="-46.25" font-family="Helvetica,sans-Serif" font-size="10.00">w2c__f549</text>
</a>
</g>
</g>
<!-- Node8&#45;&gt;Node9 -->
<g id="edge10_Node000008_Node000009" class="edge">
<title>Node8&#45;&gt;Node9</title>
<g id="a_edge10_Node000008_Node000009"><a xlink:title=" ">
<path fill="none" stroke="#63b8ff" d="M171.94,-49.38C179.57,-49.38 187.81,-49.38 195.83,-49.38"/>
<polygon fill="#63b8ff" stroke="#63b8ff" points="195.82,-52.88 205.82,-49.38 195.82,-45.88 195.82,-52.88"/>
</a>
</g>
</g>
</g>
</svg>
