<?xml version="1.0" encoding="UTF-8" standalone="no"?>
<!DOCTYPE svg PUBLIC "-//W3C//DTD SVG 1.1//EN"
 "http://www.w3.org/Graphics/SVG/1.1/DTD/svg11.dtd">
<!-- Generated by graphviz version 12.2.1 (0)
 -->
<!-- Title: w2c__f313 Pages: 1 -->
<svg width="807pt" height="299pt"
 viewBox="0.00 0.00 806.50 298.75" xmlns="http://www.w3.org/2000/svg" xmlns:xlink="http://www.w3.org/1999/xlink">
<g id="graph0" class="graph" transform="scale(1 1) rotate(0) translate(4 294.75)">
<title>w2c__f313</title>
<!-- Node1 -->
<g id="Node000001" class="node">
<title>Node1</title>
<g id="a_Node000001"><a xlink:title=" ">
<polygon fill="#999999" stroke="#666666" points="67.75,-135.75 0,-135.75 0,-115 67.75,-115 67.75,-135.75"/>
<text text-anchor="middle" x="33.88" y="-122.25" font-family="Helvetica,sans-Serif" font-size="10.00">w2c__f313</text>
</a>
</g>
</g>
<!-- Node2 -->
<g id="Node000002" class="node">
<title>Node2</title>
<g id="a_Node000002"><a xlink:href="app_8c.html#a0378208e0d5c0d1d6e7370f1c578fab3" target="_top" xlink:title=" ">
<polygon fill="white" stroke="#666666" points="486.5,-173.75 418.75,-173.75 418.75,-153 486.5,-153 486.5,-173.75"/>
<text text-anchor="middle" x="452.62" y="-160.25" font-family="Helvetica,sans-Serif" font-size="10.00">w2c__f216</text>
</a>
</g>
</g>
<!-- Node1&#45;&gt;Node2 -->
<g id="edge1_Node000001_Node000002" class="edge">
<title>Node1&#45;&gt;Node2</title>
<g id="a_edge1_Node000001_Node000002"><a xlink:title=" ">
<path fill="none" stroke="#63b8ff" d="M68.19,-136.11C79.37,-139.3 92,-142.46 103.75,-144.38 211.59,-161.98 340.46,-164.2 406.98,-163.98"/>
<polygon fill="#63b8ff" stroke="#63b8ff" points="406.78,-167.48 416.76,-163.93 406.74,-160.48 406.78,-167.48"/>
</a>
</g>
</g>
<!-- Node4 -->
<g id="Node000004" class="node">
<title>Node4</title>
<g id="a_Node000004"><a xlink:href="app_8c.html#aaca5d5bcf49f2ca74019cf097750b9f3" target="_top" xlink:title=" ">
<polygon fill="white" stroke="#666666" points="486.5,-212.75 418.75,-212.75 418.75,-192 486.5,-192 486.5,-212.75"/>
<text text-anchor="middle" x="452.62" y="-199.25" font-family="Helvetica,sans-Serif" font-size="10.00">w2c__f258</text>
</a>
</g>
</g>
<!-- Node1&#45;&gt;Node4 -->
<g id="edge3_Node000001_Node000004" class="edge">
<title>Node1&#45;&gt;Node4</title>
<g id="a_edge3_Node000001_Node000004"><a xlink:title=" ">
<path fill="none" stroke="#63b8ff" d="M50.8,-136.19C64.29,-144.78 84.45,-156.33 103.75,-162.38 209.09,-195.39 340.03,-201.69 407.25,-202.57"/>
<polygon fill="#63b8ff" stroke="#63b8ff" points="407.1,-206.07 417.13,-202.66 407.16,-199.07 407.1,-206.07"/>
</a>
</g>
</g>
<!-- Node6 -->
<g id="Node000006" class="node">
<title>Node6</title>
<g id="a_Node000006"><a xlink:href="app_8c.html#af9ed1dc0404f752fd735c5388877dbd0" target="_top" xlink:title=" ">
<polygon fill="white" stroke="#666666" points="382.75,-249.75 315,-249.75 315,-229 382.75,-229 382.75,-249.75"/>
<text text-anchor="middle" x="348.88" y="-236.25" font-family="Helvetica,sans-Serif" font-size="10.00">w2c__f378</text>
</a>
</g>
</g>
<!-- Node1&#45;&gt;Node6 -->
<g id="edge6_Node000001_Node000006" class="edge">
<title>Node1&#45;&gt;Node6</title>
<g id="a_edge6_Node000001_Node000006"><a xlink:title=" ">
<path fill="none" stroke="#63b8ff" d="M39.45,-135.99C48.5,-155.57 70.74,-197.01 103.75,-215.38 166.24,-250.15 251.79,-249.63 303.26,-245.16"/>
<polygon fill="#63b8ff" stroke="#63b8ff" points="303.51,-248.65 313.13,-244.2 302.84,-241.68 303.51,-248.65"/>
</a>
</g>
</g>
<!-- Node13 -->
<g id="Node000013" class="node">
<title>Node13</title>
<g id="a_Node000013"><a xlink:href="app_8c.html#a21ef0a2981d5eabea48cff0e94f50365" target="_top" xlink:title=" ">
<polygon fill="white" stroke="#666666" points="173.38,-96.75 105.62,-96.75 105.62,-76 173.38,-76 173.38,-96.75"/>
<text text-anchor="middle" x="139.5" y="-83.25" font-family="Helvetica,sans-Serif" font-size="10.00">w2c__f381</text>
</a>
</g>
</g>
<!-- Node1&#45;&gt;Node13 -->
<g id="edge16_Node000001_Node000013" class="edge">
<title>Node1&#45;&gt;Node13</title>
<g id="a_edge16_Node000001_Node000013"><a xlink:title=" ">
<path fill="none" stroke="#63b8ff" d="M63.74,-114.51C74.74,-110.37 87.48,-105.58 99.28,-101.13"/>
<polygon fill="#63b8ff" stroke="#63b8ff" points="100.25,-104.51 108.37,-97.71 97.78,-97.96 100.25,-104.51"/>
</a>
</g>
</g>
<!-- Node18 -->
<g id="Node000018" class="node">
<title>Node18</title>
<g id="a_Node000018"><a xlink:href="app_8c.html#a674f6e81761467d0a8dc6d2a425eda9f" target="_top" xlink:title=" ">
<polygon fill="white" stroke="#666666" points="486.5,-58.75 418.75,-58.75 418.75,-38 486.5,-38 486.5,-58.75"/>
<text text-anchor="middle" x="452.62" y="-45.25" font-family="Helvetica,sans-Serif" font-size="10.00">w2c__f498</text>
</a>
</g>
</g>
<!-- Node1&#45;&gt;Node18 -->
<g id="edge28_Node000001_Node000018" class="edge">
<title>Node1&#45;&gt;Node18</title>
<g id="a_edge28_Node000001_Node000018"><a xlink:title=" ">
<path fill="none" stroke="#63b8ff" d="M43.36,-114.89C55.21,-101.12 78.17,-77.51 103.75,-67.38 206.34,-26.73 339.39,-34.37 407.38,-42.11"/>
<polygon fill="#63b8ff" stroke="#63b8ff" points="406.66,-45.55 417.01,-43.27 407.49,-38.6 406.66,-45.55"/>
</a>
</g>
</g>
<!-- Node19 -->
<g id="Node000019" class="node">
<title>Node19</title>
<g id="a_Node000019"><a xlink:href="app_8c.html#a282da58cdb8a8d86b26b785358ce183a" target="_top" xlink:title=" ">
<polygon fill="white" stroke="#666666" points="173.38,-135.75 105.62,-135.75 105.62,-115 173.38,-115 173.38,-135.75"/>
<text text-anchor="middle" x="139.5" y="-122.25" font-family="Helvetica,sans-Serif" font-size="10.00">w2c__f504</text>
</a>
</g>
</g>
<!-- Node1&#45;&gt;Node19 -->
<g id="edge29_Node000001_Node000019" class="edge">
<title>Node1&#45;&gt;Node19</title>
<g id="a_edge29_Node000001_Node000019"><a xlink:title=" ">
<path fill="none" stroke="#63b8ff" d="M68.23,-125.38C76.37,-125.38 85.2,-125.38 93.77,-125.38"/>
<polygon fill="#63b8ff" stroke="#63b8ff" points="93.69,-128.88 103.69,-125.38 93.69,-121.88 93.69,-128.88"/>
</a>
</g>
</g>
<!-- Node20 -->
<g id="Node000020" class="node">
<title>Node20</title>
<g id="a_Node000020"><a xlink:href="app_8c.html#ad63b6498cfe22ce747f349eeb23b508f" target="_top" xlink:title=" ">
<polygon fill="white" stroke="#666666" points="175.25,-20.75 103.75,-20.75 103.75,0 175.25,0 175.25,-20.75"/>
<text text-anchor="middle" x="139.5" y="-7.25" font-family="Helvetica,sans-Serif" font-size="10.00">wasm_fabs</text>
</a>
</g>
</g>
<!-- Node1&#45;&gt;Node20 -->
<g id="edge31_Node000001_Node000020" class="edge">
<title>Node1&#45;&gt;Node20</title>
<g id="a_edge31_Node000001_Node000020"><a xlink:title=" ">
<path fill="none" stroke="#63b8ff" d="M41.36,-114.69C52.57,-96.74 76.99,-60 103.75,-34.38 106.13,-32.09 108.75,-29.87 111.45,-27.76"/>
<polygon fill="#63b8ff" stroke="#63b8ff" points="113.42,-30.66 119.48,-21.96 109.32,-24.98 113.42,-30.66"/>
</a>
</g>
</g>
<!-- Node3 -->
<g id="Node000003" class="node">
<title>Node3</title>
<g id="a_Node000003"><a xlink:href="app_8c.html#a8d9f347f9a643f0ebfb53c4f54578ac4" target="_top" xlink:title=" ">
<polygon fill="white" stroke="#666666" points="590.25,-154.75 522.5,-154.75 522.5,-134 590.25,-134 590.25,-154.75"/>
<text text-anchor="middle" x="556.38" y="-141.25" font-family="Helvetica,sans-Serif" font-size="10.00">w2c__f304</text>
</a>
</g>
</g>
<!-- Node2&#45;&gt;Node3 -->
<g id="edge2_Node000002_Node000003" class="edge">
<title>Node2&#45;&gt;Node3</title>
<g id="a_edge2_Node000002_Node000003"><a xlink:title=" ">
<path fill="none" stroke="#63b8ff" d="M486.94,-157.15C494.66,-155.71 503,-154.16 511.11,-152.64"/>
<polygon fill="#63b8ff" stroke="#63b8ff" points="511.66,-156.1 520.84,-150.82 510.37,-149.22 511.66,-156.1"/>
</a>
</g>
</g>
<!-- Node4&#45;&gt;Node3 -->
<g id="edge4_Node000004_Node000003" class="edge">
<title>Node4&#45;&gt;Node3</title>
<g id="a_edge4_Node000004_Node000003"><a xlink:title=" ">
<path fill="none" stroke="#63b8ff" d="M472.29,-191.74C487.54,-183.04 509.35,-170.61 526.8,-160.66"/>
<polygon fill="#63b8ff" stroke="#63b8ff" points="528.22,-163.88 535.17,-155.89 524.75,-157.8 528.22,-163.88"/>
</a>
</g>
</g>
<!-- Node5 -->
<g id="Node000005" class="node">
<title>Node5</title>
<g id="a_Node000005"><a xlink:href="app_8c.html#a881f0b113e93dce3ff52d04b435850f6" target="_top" xlink:title=" ">
<polygon fill="white" stroke="#666666" points="590.25,-212.75 522.5,-212.75 522.5,-192 590.25,-192 590.25,-212.75"/>
<text text-anchor="middle" x="556.38" y="-199.25" font-family="Helvetica,sans-Serif" font-size="10.00">w2c__f491</text>
</a>
</g>
</g>
<!-- Node4&#45;&gt;Node5 -->
<g id="edge5_Node000004_Node000005" class="edge">
<title>Node4&#45;&gt;Node5</title>
<g id="a_edge5_Node000004_Node000005"><a xlink:title=" ">
<path fill="none" stroke="#63b8ff" d="M486.94,-202.38C494.57,-202.38 502.81,-202.38 510.83,-202.38"/>
<polygon fill="#63b8ff" stroke="#63b8ff" points="510.82,-205.88 520.82,-202.38 510.82,-198.88 510.82,-205.88"/>
</a>
</g>
</g>
<!-- Node6&#45;&gt;Node2 -->
<g id="edge7_Node000006_Node000002" class="edge">
<title>Node6&#45;&gt;Node2</title>
<g id="a_edge7_Node000006_Node000002"><a xlink:title=" ">
<path fill="none" stroke="#63b8ff" d="M362.17,-228.52C375.64,-216.83 398.1,-197.95 418.75,-183.38 420.29,-182.29 421.89,-181.2 423.51,-180.12"/>
<polygon fill="#63b8ff" stroke="#63b8ff" points="425.07,-183.28 431.63,-174.97 421.31,-177.37 425.07,-183.28"/>
</a>
</g>
</g>
<!-- Node6&#45;&gt;Node4 -->
<g id="edge8_Node000006_Node000004" class="edge">
<title>Node6&#45;&gt;Node4</title>
<g id="a_edge8_Node000006_Node000004"><a xlink:title=" ">
<path fill="none" stroke="#63b8ff" d="M379.58,-228.57C389.5,-224.96 400.74,-220.88 411.33,-217.03"/>
<polygon fill="#63b8ff" stroke="#63b8ff" points="412.44,-220.35 420.64,-213.64 410.04,-213.77 412.44,-220.35"/>
</a>
</g>
</g>
<!-- Node7 -->
<g id="Node000007" class="node">
<title>Node7</title>
<g id="a_Node000007"><a xlink:href="app_8c.html#ab9e08dfe15e606a6bf6c18d3fd4ac400" target="_top" xlink:title=" ">
<polygon fill="white" stroke="#666666" points="486.5,-251.75 418.75,-251.75 418.75,-231 486.5,-231 486.5,-251.75"/>
<text text-anchor="middle" x="452.62" y="-238.25" font-family="Helvetica,sans-Serif" font-size="10.00">w2c__f261</text>
</a>
</g>
</g>
<!-- Node6&#45;&gt;Node7 -->
<g id="edge9_Node000006_Node000007" class="edge">
<title>Node6&#45;&gt;Node7</title>
<g id="a_edge9_Node000006_Node000007"><a xlink:title=" ">
<path fill="none" stroke="#63b8ff" d="M383.19,-240.03C390.82,-240.18 399.06,-240.34 407.08,-240.5"/>
<polygon fill="#63b8ff" stroke="#63b8ff" points="407,-244 417.07,-240.7 407.14,-237 407,-244"/>
</a>
</g>
</g>
<!-- Node12 -->
<g id="Node000012" class="node">
<title>Node12</title>
<g id="a_Node000012"><a xlink:href="app_8c.html#a761558dedd027f6a978b278ebb1aaec6" target="_top" xlink:title=" ">
<polygon fill="white" stroke="#666666" points="486.5,-290.75 418.75,-290.75 418.75,-270 486.5,-270 486.5,-290.75"/>
<text text-anchor="middle" x="452.62" y="-277.25" font-family="Helvetica,sans-Serif" font-size="10.00">w2c__f530</text>
</a>
</g>
</g>
<!-- Node6&#45;&gt;Node12 -->
<g id="edge14_Node000006_Node000012" class="edge">
<title>Node6&#45;&gt;Node12</title>
<g id="a_edge14_Node000006_Node000012"><a xlink:title=" ">
<path fill="none" stroke="#63b8ff" d="M376.61,-250.15C388.08,-254.77 401.69,-260.26 414.15,-265.27"/>
<polygon fill="#63b8ff" stroke="#63b8ff" points="412.73,-268.48 423.31,-268.97 415.35,-261.98 412.73,-268.48"/>
</a>
</g>
</g>
<!-- Node8 -->
<g id="Node000008" class="node">
<title>Node8</title>
<g id="a_Node000008"><a xlink:href="app_8c.html#ab54a3ba3ae88da3c90f2367e2cd95454" target="_top" xlink:title=" ">
<polygon fill="white" stroke="#666666" points="590.25,-270.75 522.5,-270.75 522.5,-250 590.25,-250 590.25,-270.75"/>
<text text-anchor="middle" x="556.38" y="-257.25" font-family="Helvetica,sans-Serif" font-size="10.00">w2c__f433</text>
</a>
</g>
</g>
<!-- Node7&#45;&gt;Node8 -->
<g id="edge10_Node000007_Node000008" class="edge">
<title>Node7&#45;&gt;Node8</title>
<g id="a_edge10_Node000007_Node000008"><a xlink:title=" ">
<path fill="none" stroke="#63b8ff" d="M486.94,-247.6C494.66,-249.04 503,-250.59 511.11,-252.11"/>
<polygon fill="#63b8ff" stroke="#63b8ff" points="510.37,-255.53 520.84,-253.93 511.66,-248.65 510.37,-255.53"/>
</a>
</g>
</g>
<!-- Node9 -->
<g id="Node000009" class="node">
<title>Node9</title>
<g id="a_Node000009"><a xlink:href="app_8c.html#a672569c91ebb1d5055d737b56ec296a7" target="_top" xlink:title=" ">
<polygon fill="white" stroke="#666666" points="696.25,-289.75 628.5,-289.75 628.5,-269 696.25,-269 696.25,-289.75"/>
<text text-anchor="middle" x="662.38" y="-276.25" font-family="Helvetica,sans-Serif" font-size="10.00">w2c__f585</text>
</a>
</g>
</g>
<!-- Node8&#45;&gt;Node9 -->
<g id="edge11_Node000008_Node000009" class="edge">
<title>Node8&#45;&gt;Node9</title>
<g id="a_edge11_Node000008_Node000009"><a xlink:title=" ">
<path fill="none" stroke="#63b8ff" d="M590.57,-266.44C598.92,-267.96 608.01,-269.63 616.82,-271.24"/>
<polygon fill="#63b8ff" stroke="#63b8ff" points="616.19,-274.68 626.65,-273.03 617.44,-267.79 616.19,-274.68"/>
</a>
</g>
</g>
<!-- Node10 -->
<g id="Node000010" class="node">
<title>Node10</title>
<g id="a_Node000010"><a xlink:href="app_8c.html#aca677a5348fb06a52413801823fa5291" target="_top" xlink:title=" ">
<polygon fill="white" stroke="#666666" points="698.5,-250.75 626.25,-250.75 626.25,-230 698.5,-230 698.5,-250.75"/>
<text text-anchor="middle" x="662.38" y="-237.25" font-family="Helvetica,sans-Serif" font-size="10.00">wasm_floor</text>
</a>
</g>
</g>
<!-- Node8&#45;&gt;Node10 -->
<g id="edge12_Node000008_Node000010" class="edge">
<title>Node8&#45;&gt;Node10</title>
<g id="a_edge12_Node000008_Node000010"><a xlink:title=" ">
<path fill="none" stroke="#63b8ff" d="M590.57,-253.99C598.24,-252.52 606.55,-250.92 614.69,-249.35"/>
<polygon fill="#63b8ff" stroke="#63b8ff" points="615.34,-252.79 624.5,-247.47 614.02,-245.92 615.34,-252.79"/>
</a>
</g>
</g>
<!-- Node11 -->
<g id="Node000011" class="node">
<title>Node11</title>
<g id="a_Node000011"><a xlink:href="app_8c.html#ae10979e670e507d4373e8cadcb3169aa" target="_top" xlink:title=" ">
<polygon fill="white" stroke="#666666" points="798.5,-250.75 734.5,-250.75 734.5,-230 798.5,-230 798.5,-250.75"/>
<text text-anchor="middle" x="766.5" y="-237.25" font-family="Helvetica,sans-Serif" font-size="10.00">quiet_nan</text>
</a>
</g>
</g>
<!-- Node10&#45;&gt;Node11 -->
<g id="edge13_Node000010_Node000011" class="edge">
<title>Node10&#45;&gt;Node11</title>
<g id="a_edge13_Node000010_Node000011"><a xlink:title=" ">
<path fill="none" stroke="#63b8ff" d="M698.81,-240.38C706.55,-240.38 714.82,-240.38 722.81,-240.38"/>
<polygon fill="#63b8ff" stroke="#63b8ff" points="722.71,-243.88 732.71,-240.38 722.71,-236.88 722.71,-243.88"/>
</a>
</g>
</g>
<!-- Node12&#45;&gt;Node8 -->
<g id="edge15_Node000012_Node000008" class="edge">
<title>Node12&#45;&gt;Node8</title>
<g id="a_edge15_Node000012_Node000008"><a xlink:title=" ">
<path fill="none" stroke="#63b8ff" d="M486.94,-273.83C494.66,-272.31 503,-270.67 511.11,-269.08"/>
<polygon fill="#63b8ff" stroke="#63b8ff" points="511.71,-272.53 520.85,-267.16 510.36,-265.66 511.71,-272.53"/>
</a>
</g>
</g>
<!-- Node14 -->
<g id="Node000014" class="node">
<title>Node14</title>
<g id="a_Node000014"><a xlink:href="app_8c.html#a1a8a1d528c65d63a630e19c3a4bdd098" target="_top" xlink:title=" ">
<polygon fill="white" stroke="#666666" points="279,-115.75 211.25,-115.75 211.25,-95 279,-95 279,-115.75"/>
<text text-anchor="middle" x="245.12" y="-102.25" font-family="Helvetica,sans-Serif" font-size="10.00">w2c__f557</text>
</a>
</g>
</g>
<!-- Node13&#45;&gt;Node14 -->
<g id="edge17_Node000013_Node000014" class="edge">
<title>Node13&#45;&gt;Node14</title>
<g id="a_edge17_Node000013_Node000014"><a xlink:title=" ">
<path fill="none" stroke="#63b8ff" d="M173.86,-92.49C182.09,-94 191.03,-95.64 199.69,-97.23"/>
<polygon fill="#63b8ff" stroke="#63b8ff" points="198.87,-100.64 209.34,-99 200.14,-93.75 198.87,-100.64"/>
</a>
</g>
</g>
<!-- Node15 -->
<g id="Node000015" class="node">
<title>Node15</title>
<g id="a_Node000015"><a xlink:href="app_8c.html#a0f7003812eaf983535ff7979fc047a21" target="_top" xlink:title=" ">
<polygon fill="white" stroke="#666666" points="382.75,-135.75 315,-135.75 315,-115 382.75,-115 382.75,-135.75"/>
<text text-anchor="middle" x="348.88" y="-122.25" font-family="Helvetica,sans-Serif" font-size="10.00">w2c__f353</text>
</a>
</g>
</g>
<!-- Node14&#45;&gt;Node15 -->
<g id="edge18_Node000014_Node000015" class="edge">
<title>Node14&#45;&gt;Node15</title>
<g id="a_edge18_Node000014_Node000015"><a xlink:title=" ">
<path fill="none" stroke="#63b8ff" d="M279.44,-111.92C287.16,-113.44 295.5,-115.08 303.61,-116.67"/>
<polygon fill="#63b8ff" stroke="#63b8ff" points="302.86,-120.09 313.35,-118.59 304.21,-113.22 302.86,-120.09"/>
</a>
</g>
</g>
<!-- Node17 -->
<g id="Node000017" class="node">
<title>Node17</title>
<g id="a_Node000017"><a xlink:href="app_8c.html#ac9cc84763a9c1933e50eedd7a06c17e2" target="_top" xlink:title=" ">
<polygon fill="white" stroke="#666666" points="382.75,-96.75 315,-96.75 315,-76 382.75,-76 382.75,-96.75"/>
<text text-anchor="middle" x="348.88" y="-83.25" font-family="Helvetica,sans-Serif" font-size="10.00">w2c__f480</text>
</a>
</g>
</g>
<!-- Node14&#45;&gt;Node17 -->
<g id="edge22_Node000014_Node000017" class="edge">
<title>Node14&#45;&gt;Node17</title>
<g id="a_edge22_Node000014_Node000017"><a xlink:title=" ">
<path fill="none" stroke="#63b8ff" d="M279.44,-99.15C287.16,-97.71 295.5,-96.16 303.61,-94.64"/>
<polygon fill="#63b8ff" stroke="#63b8ff" points="304.16,-98.1 313.34,-92.82 302.87,-91.22 304.16,-98.1"/>
</a>
</g>
</g>
<!-- Node15&#45;&gt;Node4 -->
<g id="edge19_Node000015_Node000004" class="edge">
<title>Node15&#45;&gt;Node4</title>
<g id="a_edge19_Node000015_Node000004"><a xlink:title=" ">
<path fill="none" stroke="#63b8ff" d="M361.65,-136.01C375.03,-147.9 397.76,-167.43 418.75,-182.38 420.28,-183.47 421.88,-184.56 423.5,-185.64"/>
<polygon fill="#63b8ff" stroke="#63b8ff" points="421.3,-188.39 431.62,-190.81 425.06,-182.49 421.3,-188.39"/>
</a>
</g>
</g>
<!-- Node16 -->
<g id="Node000016" class="node">
<title>Node16</title>
<g id="a_Node000016"><a xlink:href="app_8c.html#a4634342addbde677893ffcb45cf639dd" target="_top" xlink:title=" ">
<polygon fill="white" stroke="#666666" points="486.5,-134.75 418.75,-134.75 418.75,-114 486.5,-114 486.5,-134.75"/>
<text text-anchor="middle" x="452.62" y="-121.25" font-family="Helvetica,sans-Serif" font-size="10.00">w2c__f302</text>
</a>
</g>
</g>
<!-- Node15&#45;&gt;Node16 -->
<g id="edge20_Node000015_Node000016" class="edge">
<title>Node15&#45;&gt;Node16</title>
<g id="a_edge20_Node000015_Node000016"><a xlink:title=" ">
<path fill="none" stroke="#63b8ff" d="M383.19,-125.05C390.82,-124.97 399.06,-124.89 407.08,-124.81"/>
<polygon fill="#63b8ff" stroke="#63b8ff" points="407.1,-128.31 417.07,-124.71 407.03,-121.31 407.1,-128.31"/>
</a>
</g>
</g>
<!-- Node16&#45;&gt;Node3 -->
<g id="edge21_Node000016_Node000003" class="edge">
<title>Node16&#45;&gt;Node3</title>
<g id="a_edge21_Node000016_Node000003"><a xlink:title=" ">
<path fill="none" stroke="#63b8ff" d="M486.94,-130.92C494.66,-132.44 503,-134.08 511.11,-135.67"/>
<polygon fill="#63b8ff" stroke="#63b8ff" points="510.36,-139.09 520.85,-137.59 511.71,-132.22 510.36,-139.09"/>
</a>
</g>
</g>
<!-- Node17&#45;&gt;Node2 -->
<g id="edge23_Node000017_Node000002" class="edge">
<title>Node17&#45;&gt;Node2</title>
<g id="a_edge23_Node000017_Node000002"><a xlink:title=" ">
<path fill="none" stroke="#63b8ff" d="M369.54,-97.23C374.03,-100 378.67,-103.13 382.75,-106.38 400.69,-120.67 400.81,-129.08 418.75,-143.38 420.02,-144.39 421.35,-145.39 422.72,-146.38"/>
<polygon fill="#63b8ff" stroke="#63b8ff" points="420.43,-149.06 430.7,-151.69 424.31,-143.23 420.43,-149.06"/>
</a>
</g>
</g>
<!-- Node17&#45;&gt;Node3 -->
<g id="edge26_Node000017_Node000003" class="edge">
<title>Node17&#45;&gt;Node3</title>
<g id="a_edge26_Node000017_Node000003"><a xlink:title=" ">
<path fill="none" stroke="#63b8ff" d="M382.97,-87.5C411.15,-89.27 452.36,-93.81 486.5,-105.38 502.11,-110.66 518.21,-119.56 530.92,-127.52"/>
<polygon fill="#63b8ff" stroke="#63b8ff" points="528.74,-130.28 539.03,-132.79 532.55,-124.41 528.74,-130.28"/>
</a>
</g>
</g>
<!-- Node17&#45;&gt;Node4 -->
<g id="edge24_Node000017_Node000004" class="edge">
<title>Node17&#45;&gt;Node4</title>
<g id="a_edge24_Node000017_Node000004"><a xlink:title=" ">
<path fill="none" stroke="#63b8ff" d="M371.76,-97.2C375.74,-99.83 379.62,-102.9 382.75,-106.38 407.77,-134.14 393.73,-154.61 418.75,-182.38 419.43,-183.14 420.16,-183.88 420.9,-184.6"/>
<polygon fill="#63b8ff" stroke="#63b8ff" points="418.52,-187.18 428.55,-190.61 422.85,-181.68 418.52,-187.18"/>
</a>
</g>
</g>
<!-- Node17&#45;&gt;Node16 -->
<g id="edge25_Node000017_Node000016" class="edge">
<title>Node17&#45;&gt;Node16</title>
<g id="a_edge25_Node000017_Node000016"><a xlink:title=" ">
<path fill="none" stroke="#63b8ff" d="M378.76,-97.16C389.07,-101.01 400.88,-105.42 411.94,-109.55"/>
<polygon fill="#63b8ff" stroke="#63b8ff" points="410.66,-112.81 421.25,-113.03 413.11,-106.25 410.66,-112.81"/>
</a>
</g>
</g>
<!-- Node17&#45;&gt;Node18 -->
<g id="edge27_Node000017_Node000018" class="edge">
<title>Node17&#45;&gt;Node18</title>
<g id="a_edge27_Node000017_Node000018"><a xlink:title=" ">
<path fill="none" stroke="#63b8ff" d="M378.76,-75.59C389.07,-71.74 400.88,-67.33 411.94,-63.2"/>
<polygon fill="#63b8ff" stroke="#63b8ff" points="413.11,-66.5 421.25,-59.72 410.66,-59.94 413.11,-66.5"/>
</a>
</g>
</g>
<!-- Node19&#45;&gt;Node14 -->
<g id="edge30_Node000019_Node000014" class="edge">
<title>Node19&#45;&gt;Node14</title>
<g id="a_edge30_Node000019_Node000014"><a xlink:title=" ">
<path fill="none" stroke="#63b8ff" d="M173.86,-118.94C182.09,-117.35 191.03,-115.62 199.69,-113.95"/>
<polygon fill="#63b8ff" stroke="#63b8ff" points="200.19,-117.42 209.34,-112.09 198.86,-110.55 200.19,-117.42"/>
</a>
</g>
</g>
</g>
</svg>
