<?xml version="1.0" encoding="UTF-8" standalone="no"?>
<!DOCTYPE svg PUBLIC "-//W3C//DTD SVG 1.1//EN"
 "http://www.w3.org/Graphics/SVG/1.1/DTD/svg11.dtd">
<!-- Generated by graphviz version 12.2.1 (0)
 -->
<!-- Title: w2c_0_191 Pages: 1 -->
<svg width="784pt" height="224pt"
 viewBox="0.00 0.00 784.00 223.75" xmlns="http://www.w3.org/2000/svg" xmlns:xlink="http://www.w3.org/1999/xlink">
<g id="graph0" class="graph" transform="scale(1 1) rotate(0) translate(4 219.75)">
<title>w2c_0_191</title>
<!-- Node1 -->
<g id="Node000001" class="node">
<title>Node1</title>
<g id="a_Node000001"><a xlink:title=" ">
<polygon fill="#999999" stroke="#666666" points="776,-99.75 706,-99.75 706,-79 776,-79 776,-99.75"/>
<text text-anchor="middle" x="741" y="-86.25" font-family="Helvetica,sans-Serif" font-size="10.00">w2c_0_191</text>
</a>
</g>
</g>
<!-- Node2 -->
<g id="Node000002" class="node">
<title>Node2</title>
<g id="a_Node000002"><a xlink:href="app_8c.html#a1581df0bdfa942524e0a5dce91fd6b8e" target="_top" xlink:title=" ">
<polygon fill="white" stroke="#666666" points="566.25,-176.75 498.5,-176.75 498.5,-156 566.25,-156 566.25,-176.75"/>
<text text-anchor="middle" x="532.38" y="-163.25" font-family="Helvetica,sans-Serif" font-size="10.00">w2c__f253</text>
</a>
</g>
</g>
<!-- Node1&#45;&gt;Node2 -->
<g id="edge1_Node000001_Node000002" class="edge">
<title>Node1&#45;&gt;Node2</title>
<g id="a_edge1_Node000001_Node000002"><a xlink:title=" ">
<path fill="none" stroke="#63b8ff" d="M723.12,-108.06C710,-121.31 690.61,-138.29 670,-147.38 636.8,-162 595.05,-165.97 566.49,-166.78"/>
<polygon fill="#63b8ff" stroke="#63b8ff" points="725.38,-110.76 729.75,-101.1 720.31,-105.93 725.38,-110.76"/>
</a>
</g>
</g>
<!-- Node3 -->
<g id="Node000003" class="node">
<title>Node3</title>
<g id="a_Node000003"><a xlink:href="app_8c.html#a980a551daeb256397f01e6faa91d49db" target="_top" xlink:title=" ">
<polygon fill="white" stroke="#666666" points="670,-99.75 602.25,-99.75 602.25,-79 670,-79 670,-99.75"/>
<text text-anchor="middle" x="636.12" y="-86.25" font-family="Helvetica,sans-Serif" font-size="10.00">w2c__f403</text>
</a>
</g>
</g>
<!-- Node1&#45;&gt;Node3 -->
<g id="edge2_Node000001_Node000003" class="edge">
<title>Node1&#45;&gt;Node3</title>
<g id="a_edge2_Node000001_Node000003"><a xlink:title=" ">
<path fill="none" stroke="#63b8ff" d="M694.43,-89.38C686.27,-89.38 677.91,-89.38 670.18,-89.38"/>
<polygon fill="#63b8ff" stroke="#63b8ff" points="694.23,-92.88 704.23,-89.38 694.23,-85.88 694.23,-92.88"/>
</a>
</g>
</g>
<!-- Node4 -->
<g id="Node000004" class="node">
<title>Node4</title>
<g id="a_Node000004"><a xlink:href="app_8c.html#a05d83e696cfaa26355c9732ee9ea4cd0" target="_top" xlink:title=" ">
<polygon fill="white" stroke="#666666" points="670,-60.75 602.25,-60.75 602.25,-40 670,-40 670,-60.75"/>
<text text-anchor="middle" x="636.12" y="-47.25" font-family="Helvetica,sans-Serif" font-size="10.00">w2c__f454</text>
</a>
</g>
</g>
<!-- Node1&#45;&gt;Node4 -->
<g id="edge3_Node000001_Node000004" class="edge">
<title>Node1&#45;&gt;Node4</title>
<g id="a_edge3_Node000001_Node000004"><a xlink:title=" ">
<path fill="none" stroke="#63b8ff" d="M700.9,-74.55C689.17,-70.11 676.54,-65.32 665.63,-61.18"/>
<polygon fill="#63b8ff" stroke="#63b8ff" points="699.34,-77.7 709.93,-77.97 701.82,-71.16 699.34,-77.7"/>
</a>
</g>
</g>
<!-- Node5 -->
<g id="Node000005" class="node">
<title>Node5</title>
<g id="a_Node000005"><a xlink:href="app_8c.html#a6a5f2eef787a92202f51353c5f79de51" target="_top" xlink:title=" ">
<polygon fill="white" stroke="#666666" points="670,-138.75 602.25,-138.75 602.25,-118 670,-118 670,-138.75"/>
<text text-anchor="middle" x="636.12" y="-125.25" font-family="Helvetica,sans-Serif" font-size="10.00">w2c__f467</text>
</a>
</g>
</g>
<!-- Node1&#45;&gt;Node5 -->
<g id="edge4_Node000001_Node000005" class="edge">
<title>Node1&#45;&gt;Node5</title>
<g id="a_edge4_Node000001_Node000005"><a xlink:title=" ">
<path fill="none" stroke="#63b8ff" d="M700.9,-104.2C689.17,-108.64 676.54,-113.43 665.63,-117.57"/>
<polygon fill="#63b8ff" stroke="#63b8ff" points="701.82,-107.59 709.93,-100.78 699.34,-101.05 701.82,-107.59"/>
</a>
</g>
</g>
<!-- Node21 -->
<g id="Node000021" class="node">
<title>Node21</title>
<g id="a_Node000021"><a xlink:href="app_8c.html#a05835d66b1e582733f9da1f3d4f3b19f" target="_top" xlink:title=" ">
<polygon fill="white" stroke="#666666" points="670,-21.75 602.25,-21.75 602.25,-1 670,-1 670,-21.75"/>
<text text-anchor="middle" x="636.12" y="-8.25" font-family="Helvetica,sans-Serif" font-size="10.00">w2c__f517</text>
</a>
</g>
</g>
<!-- Node1&#45;&gt;Node21 -->
<g id="edge24_Node000001_Node000021" class="edge">
<title>Node1&#45;&gt;Node21</title>
<g id="a_edge24_Node000001_Node000021"><a xlink:title=" ">
<path fill="none" stroke="#63b8ff" d="M719.46,-71.01C705.83,-59.17 687.33,-43.73 670,-31.38 665.54,-28.2 660.56,-25 655.86,-22.13"/>
<polygon fill="#63b8ff" stroke="#63b8ff" points="717.08,-73.58 726.9,-77.55 721.7,-68.32 717.08,-73.58"/>
</a>
</g>
</g>
<!-- Node5&#45;&gt;Node2 -->
<g id="edge5_Node000005_Node000002" class="edge">
<title>Node5&#45;&gt;Node2</title>
<g id="a_edge5_Node000005_Node000002"><a xlink:title=" ">
<path fill="none" stroke="#63b8ff" d="M595.51,-143.17C584.46,-147.3 572.65,-151.71 562.33,-155.56"/>
<polygon fill="#63b8ff" stroke="#63b8ff" points="596.68,-146.47 604.82,-139.69 594.23,-139.91 596.68,-146.47"/>
</a>
</g>
</g>
<!-- Node6 -->
<g id="Node000006" class="node">
<title>Node6</title>
<g id="a_Node000006"><a xlink:href="app_8c.html#a1ecb6667278e1863f1b86d73e8aea927" target="_top" xlink:title=" ">
<polygon fill="white" stroke="#666666" points="566.25,-98.75 498.5,-98.75 498.5,-78 566.25,-78 566.25,-98.75"/>
<text text-anchor="middle" x="532.38" y="-85.25" font-family="Helvetica,sans-Serif" font-size="10.00">w2c__f352</text>
</a>
</g>
</g>
<!-- Node5&#45;&gt;Node6 -->
<g id="edge6_Node000005_Node000006" class="edge">
<title>Node5&#45;&gt;Node6</title>
<g id="a_edge6_Node000005_Node000006"><a xlink:title=" ">
<path fill="none" stroke="#63b8ff" d="M596.96,-113.37C584.99,-108.67 572.02,-103.57 560.93,-99.21"/>
<polygon fill="#63b8ff" stroke="#63b8ff" points="595.59,-116.6 606.18,-117 598.16,-110.08 595.59,-116.6"/>
</a>
</g>
</g>
<!-- Node7 -->
<g id="Node000007" class="node">
<title>Node7</title>
<g id="a_Node000007"><a xlink:href="app_8c.html#a244f0f30c84eab69a2b40f0be3dd065c" target="_top" xlink:title=" ">
<polygon fill="white" stroke="#666666" points="566.25,-137.75 498.5,-137.75 498.5,-117 566.25,-117 566.25,-137.75"/>
<text text-anchor="middle" x="532.38" y="-124.25" font-family="Helvetica,sans-Serif" font-size="10.00">w2c__f445</text>
</a>
</g>
</g>
<!-- Node5&#45;&gt;Node7 -->
<g id="edge7_Node000005_Node000007" class="edge">
<title>Node5&#45;&gt;Node7</title>
<g id="a_edge7_Node000005_Node000007"><a xlink:title=" ">
<path fill="none" stroke="#63b8ff" d="M590.57,-127.94C582.46,-127.86 574.13,-127.78 566.42,-127.7"/>
<polygon fill="#63b8ff" stroke="#63b8ff" points="590.26,-131.43 600.29,-128.03 590.33,-124.43 590.26,-131.43"/>
</a>
</g>
</g>
<!-- Node8 -->
<g id="Node000008" class="node">
<title>Node8</title>
<g id="a_Node000008"><a xlink:href="app_8c.html#a9a9275782eb97e6525073f99d900b184" target="_top" xlink:title=" ">
<polygon fill="white" stroke="#666666" points="255,-215.75 187.25,-215.75 187.25,-195 255,-195 255,-215.75"/>
<text text-anchor="middle" x="221.12" y="-202.25" font-family="Helvetica,sans-Serif" font-size="10.00">w2c__f217</text>
</a>
</g>
</g>
<!-- Node7&#45;&gt;Node8 -->
<g id="edge8_Node000007_Node000008" class="edge">
<title>Node7&#45;&gt;Node8</title>
<g id="a_edge8_Node000007_Node000008"><a xlink:title=" ">
<path fill="none" stroke="#63b8ff" d="M503.99,-143.72C488.63,-152.64 470.91,-162.45 462.5,-165.38 391.17,-190.17 302.45,-199.83 255.26,-203.41"/>
<polygon fill="#63b8ff" stroke="#63b8ff" points="505.46,-146.92 512.32,-138.84 501.92,-140.88 505.46,-146.92"/>
</a>
</g>
</g>
<!-- Node9 -->
<g id="Node000009" class="node">
<title>Node9</title>
<g id="a_Node000009"><a xlink:href="app_8c.html#aafc3f1a435e4fcbbd851eadbe493c093" target="_top" xlink:title=" ">
<polygon fill="white" stroke="#666666" points="462.5,-61.75 394.75,-61.75 394.75,-41 462.5,-41 462.5,-61.75"/>
<text text-anchor="middle" x="428.62" y="-48.25" font-family="Helvetica,sans-Serif" font-size="10.00">w2c__f221</text>
</a>
</g>
</g>
<!-- Node7&#45;&gt;Node9 -->
<g id="edge9_Node000007_Node000009" class="edge">
<title>Node7&#45;&gt;Node9</title>
<g id="a_edge9_Node000007_Node000009"><a xlink:title=" ">
<path fill="none" stroke="#63b8ff" d="M502.66,-110.34C501.24,-109.36 499.84,-108.37 498.5,-107.38 481.29,-94.65 479.16,-88.81 462.5,-75.38 456.89,-70.85 450.53,-66.12 444.91,-62.07"/>
<polygon fill="#63b8ff" stroke="#63b8ff" points="500.65,-113.2 510.95,-115.7 504.45,-107.33 500.65,-113.2"/>
</a>
</g>
</g>
<!-- Node10 -->
<g id="Node000010" class="node">
<title>Node10</title>
<g id="a_Node000010"><a xlink:href="app_8c.html#aac449994afd8488e2efd16fb19f0ecb1" target="_top" xlink:title=" ">
<polygon fill="white" stroke="#666666" points="358.75,-79.75 291,-79.75 291,-59 358.75,-59 358.75,-79.75"/>
<text text-anchor="middle" x="324.88" y="-66.25" font-family="Helvetica,sans-Serif" font-size="10.00">w2c__f336</text>
</a>
</g>
</g>
<!-- Node7&#45;&gt;Node10 -->
<g id="edge10_Node000007_Node000010" class="edge">
<title>Node7&#45;&gt;Node10</title>
<g id="a_edge10_Node000007_Node000010"><a xlink:title=" ">
<path fill="none" stroke="#63b8ff" d="M487.5,-114.99C449.07,-104.14 394.05,-88.62 359.15,-78.77"/>
<polygon fill="#63b8ff" stroke="#63b8ff" points="486.33,-118.3 496.9,-117.65 488.23,-111.56 486.33,-118.3"/>
</a>
</g>
</g>
<!-- Node16 -->
<g id="Node000016" class="node">
<title>Node16</title>
<g id="a_Node000016"><a xlink:href="app_8c.html#afb3fbfc35abe0f21d554f326b79a0b76" target="_top" xlink:title=" ">
<polygon fill="white" stroke="#666666" points="462.5,-137.75 394.75,-137.75 394.75,-117 462.5,-117 462.5,-137.75"/>
<text text-anchor="middle" x="428.62" y="-124.25" font-family="Helvetica,sans-Serif" font-size="10.00">w2c__f494</text>
</a>
</g>
</g>
<!-- Node7&#45;&gt;Node16 -->
<g id="edge16_Node000007_Node000016" class="edge">
<title>Node7&#45;&gt;Node16</title>
<g id="a_edge16_Node000007_Node000016"><a xlink:title=" ">
<path fill="none" stroke="#63b8ff" d="M486.82,-127.38C478.71,-127.38 470.38,-127.38 462.67,-127.38"/>
<polygon fill="#63b8ff" stroke="#63b8ff" points="486.54,-130.88 496.54,-127.38 486.54,-123.88 486.54,-130.88"/>
</a>
</g>
</g>
<!-- Node20 -->
<g id="Node000020" class="node">
<title>Node20</title>
<g id="a_Node000020"><a xlink:href="app_8c.html#a268eebcea573fce720709e588959d401" target="_top" xlink:title=" ">
<polygon fill="white" stroke="#666666" points="255,-176.75 187.25,-176.75 187.25,-156 255,-156 255,-176.75"/>
<text text-anchor="middle" x="221.12" y="-163.25" font-family="Helvetica,sans-Serif" font-size="10.00">w2c__f568</text>
</a>
</g>
</g>
<!-- Node7&#45;&gt;Node20 -->
<g id="edge23_Node000007_Node000020" class="edge">
<title>Node7&#45;&gt;Node20</title>
<g id="a_edge23_Node000007_Node000020"><a xlink:title=" ">
<path fill="none" stroke="#63b8ff" d="M487.19,-140.87C479.04,-142.98 470.56,-144.94 462.5,-146.38 389.32,-159.4 302.06,-163.98 255.43,-165.56"/>
<polygon fill="#63b8ff" stroke="#63b8ff" points="487.84,-144.32 496.57,-138.32 486,-137.56 487.84,-144.32"/>
</a>
</g>
</g>
<!-- Node11 -->
<g id="Node000011" class="node">
<title>Node11</title>
<g id="a_Node000011"><a xlink:href="app_8c.html#ac863989691d4c389f80374209c220171" target="_top" xlink:title=" ">
<polygon fill="white" stroke="#666666" points="252.38,-59.75 189.88,-59.75 189.88,-39 252.38,-39 252.38,-59.75"/>
<text text-anchor="middle" x="221.12" y="-46.25" font-family="Helvetica,sans-Serif" font-size="10.00">w2c__c_0</text>
</a>
</g>
</g>
<!-- Node10&#45;&gt;Node11 -->
<g id="edge11_Node000010_Node000011" class="edge">
<title>Node10&#45;&gt;Node11</title>
<g id="a_edge11_Node000010_Node000011"><a xlink:title=" ">
<path fill="none" stroke="#63b8ff" d="M279.4,-60.63C270.41,-58.87 261.15,-57.05 252.76,-55.4"/>
<polygon fill="#63b8ff" stroke="#63b8ff" points="278.59,-64.04 289.07,-62.53 279.94,-57.17 278.59,-64.04"/>
</a>
</g>
</g>
<!-- Node13 -->
<g id="Node000013" class="node">
<title>Node13</title>
<g id="a_Node000013"><a xlink:href="app_8c.html#a8f312e54d76623b1ae169d5d19736ee0" target="_top" xlink:title=" ">
<polygon fill="white" stroke="#666666" points="255,-20.75 187.25,-20.75 187.25,0 255,0 255,-20.75"/>
<text text-anchor="middle" x="221.12" y="-7.25" font-family="Helvetica,sans-Serif" font-size="10.00">w2c__f363</text>
</a>
</g>
</g>
<!-- Node10&#45;&gt;Node13 -->
<g id="edge13_Node000010_Node000013" class="edge">
<title>Node10&#45;&gt;Node13</title>
<g id="a_edge13_Node000010_Node000013"><a xlink:title=" ">
<path fill="none" stroke="#63b8ff" d="M295.49,-52.92C277.97,-42.76 255.98,-30.01 240.67,-21.13"/>
<polygon fill="#63b8ff" stroke="#63b8ff" points="293.5,-55.81 303.9,-57.79 297.01,-49.75 293.5,-55.81"/>
</a>
</g>
</g>
<!-- Node12 -->
<g id="Node000012" class="node">
<title>Node12</title>
<g id="a_Node000012"><a xlink:href="app_8c.html#ab1e039392ea68017ab8a6063263b147d" target="_top" xlink:title=" ">
<polygon fill="white" stroke="#666666" points="145.25,-59.75 94,-59.75 94,-39 145.25,-39 145.25,-59.75"/>
<text text-anchor="middle" x="119.62" y="-46.25" font-family="Helvetica,sans-Serif" font-size="10.00">w2c__c</text>
</a>
</g>
</g>
<!-- Node11&#45;&gt;Node12 -->
<g id="edge12_Node000011_Node000012" class="edge">
<title>Node11&#45;&gt;Node12</title>
<g id="a_edge12_Node000011_Node000012"><a xlink:title=" ">
<path fill="none" stroke="#63b8ff" d="M178.21,-49.38C167.15,-49.38 155.55,-49.38 145.68,-49.38"/>
<polygon fill="#63b8ff" stroke="#63b8ff" points="177.95,-52.88 187.95,-49.38 177.95,-45.88 177.95,-52.88"/>
</a>
</g>
</g>
<!-- Node14 -->
<g id="Node000014" class="node">
<title>Node14</title>
<g id="a_Node000014"><a xlink:href="app_8c.html#a26657f10c51f10eeb57a4d27606a6885" target="_top" xlink:title=" ">
<polygon fill="white" stroke="#666666" points="151.25,-20.75 88,-20.75 88,0 151.25,0 151.25,-20.75"/>
<text text-anchor="middle" x="119.62" y="-7.25" font-family="Helvetica,sans-Serif" font-size="10.00">w2c__b_0</text>
</a>
</g>
</g>
<!-- Node13&#45;&gt;Node14 -->
<g id="edge14_Node000013_Node000014" class="edge">
<title>Node13&#45;&gt;Node14</title>
<g id="a_edge14_Node000013_Node000014"><a xlink:title=" ">
<path fill="none" stroke="#63b8ff" d="M175.71,-10.38C167.57,-10.38 159.23,-10.38 151.59,-10.38"/>
<polygon fill="#63b8ff" stroke="#63b8ff" points="175.48,-13.88 185.48,-10.38 175.48,-6.88 175.48,-13.88"/>
</a>
</g>
</g>
<!-- Node15 -->
<g id="Node000015" class="node">
<title>Node15</title>
<g id="a_Node000015"><a xlink:href="app_8c.html#a683a2045346c3209e9dac20d55933c7d" target="_top" xlink:title=" ">
<polygon fill="white" stroke="#666666" points="52,-20.75 0,-20.75 0,0 52,0 52,-20.75"/>
<text text-anchor="middle" x="26" y="-7.25" font-family="Helvetica,sans-Serif" font-size="10.00">w2c__b</text>
</a>
</g>
</g>
<!-- Node14&#45;&gt;Node15 -->
<g id="edge15_Node000014_Node000015" class="edge">
<title>Node14&#45;&gt;Node15</title>
<g id="a_edge15_Node000014_Node000015"><a xlink:title=" ">
<path fill="none" stroke="#63b8ff" d="M76.21,-10.38C68,-10.38 59.65,-10.38 52.21,-10.38"/>
<polygon fill="#63b8ff" stroke="#63b8ff" points="76.09,-13.88 86.09,-10.38 76.09,-6.88 76.09,-13.88"/>
</a>
</g>
</g>
<!-- Node16&#45;&gt;Node10 -->
<g id="edge17_Node000016_Node000010" class="edge">
<title>Node16&#45;&gt;Node10</title>
<g id="a_edge17_Node000016_Node000010"><a xlink:title=" ">
<path fill="none" stroke="#63b8ff" d="M399.31,-111.23C381.9,-101.31 360.08,-88.87 344.76,-80.14"/>
<polygon fill="#63b8ff" stroke="#63b8ff" points="397.23,-114.08 407.65,-115.99 400.69,-107.99 397.23,-114.08"/>
</a>
</g>
</g>
<!-- Node17 -->
<g id="Node000017" class="node">
<title>Node17</title>
<g id="a_Node000017"><a xlink:href="app_8c.html#a25b43587c2e4a3802eb8256f469ef5ab" target="_top" xlink:title=" ">
<polygon fill="white" stroke="#666666" points="358.75,-137.75 291,-137.75 291,-117 358.75,-117 358.75,-137.75"/>
<text text-anchor="middle" x="324.88" y="-124.25" font-family="Helvetica,sans-Serif" font-size="10.00">w2c__f531</text>
</a>
</g>
</g>
<!-- Node16&#45;&gt;Node17 -->
<g id="edge18_Node000016_Node000017" class="edge">
<title>Node16&#45;&gt;Node17</title>
<g id="a_edge18_Node000016_Node000017"><a xlink:title=" ">
<path fill="none" stroke="#63b8ff" d="M383.07,-127.38C374.96,-127.38 366.63,-127.38 358.92,-127.38"/>
<polygon fill="#63b8ff" stroke="#63b8ff" points="382.79,-130.88 392.79,-127.38 382.79,-123.88 382.79,-130.88"/>
</a>
</g>
</g>
<!-- Node17&#45;&gt;Node8 -->
<g id="edge19_Node000017_Node000008" class="edge">
<title>Node17&#45;&gt;Node8</title>
<g id="a_edge19_Node000017_Node000008"><a xlink:title=" ">
<path fill="none" stroke="#63b8ff" d="M303.71,-145.78C290.32,-157.63 272.12,-173.07 255,-185.38 250.55,-188.57 245.58,-191.77 240.88,-194.65"/>
<polygon fill="#63b8ff" stroke="#63b8ff" points="305.9,-148.51 311.01,-139.23 301.22,-143.3 305.9,-148.51"/>
</a>
</g>
</g>
<!-- Node18 -->
<g id="Node000018" class="node">
<title>Node18</title>
<g id="a_Node000018"><a xlink:href="app_8c.html#a0b804502e637fa2897681579fae890af" target="_top" xlink:title=" ">
<polygon fill="white" stroke="#666666" points="255,-137.75 187.25,-137.75 187.25,-117 255,-117 255,-137.75"/>
<text text-anchor="middle" x="221.12" y="-124.25" font-family="Helvetica,sans-Serif" font-size="10.00">w2c__f233</text>
</a>
</g>
</g>
<!-- Node17&#45;&gt;Node18 -->
<g id="edge20_Node000017_Node000018" class="edge">
<title>Node17&#45;&gt;Node18</title>
<g id="a_edge20_Node000017_Node000018"><a xlink:title=" ">
<path fill="none" stroke="#63b8ff" d="M279.32,-127.38C271.21,-127.38 262.88,-127.38 255.17,-127.38"/>
<polygon fill="#63b8ff" stroke="#63b8ff" points="279.04,-130.88 289.04,-127.38 279.04,-123.88 279.04,-130.88"/>
</a>
</g>
</g>
<!-- Node19 -->
<g id="Node000019" class="node">
<title>Node19</title>
<g id="a_Node000019"><a xlink:href="app_8c.html#a13a282f739b6944dad1977039f3fadde" target="_top" xlink:title=" ">
<polygon fill="white" stroke="#666666" points="255,-98.75 187.25,-98.75 187.25,-78 255,-78 255,-98.75"/>
<text text-anchor="middle" x="221.12" y="-85.25" font-family="Helvetica,sans-Serif" font-size="10.00">w2c__f420</text>
</a>
</g>
</g>
<!-- Node17&#45;&gt;Node19 -->
<g id="edge21_Node000017_Node000019" class="edge">
<title>Node17&#45;&gt;Node19</title>
<g id="a_edge21_Node000017_Node000019"><a xlink:title=" ">
<path fill="none" stroke="#63b8ff" d="M284.85,-112.42C273.35,-108.01 260.99,-103.27 250.32,-99.18"/>
<polygon fill="#63b8ff" stroke="#63b8ff" points="283.53,-115.66 294.12,-115.97 286.03,-109.12 283.53,-115.66"/>
</a>
</g>
</g>
<!-- Node17&#45;&gt;Node20 -->
<g id="edge22_Node000017_Node000020" class="edge">
<title>Node17&#45;&gt;Node20</title>
<g id="a_edge22_Node000017_Node000020"><a xlink:title=" ">
<path fill="none" stroke="#63b8ff" d="M284.85,-142.33C273.35,-146.74 260.99,-151.48 250.32,-155.57"/>
<polygon fill="#63b8ff" stroke="#63b8ff" points="286.03,-145.63 294.12,-138.78 283.53,-139.09 286.03,-145.63"/>
</a>
</g>
</g>
</g>
</svg>
