<?xml version="1.0" encoding="UTF-8" standalone="no"?>
<!DOCTYPE svg PUBLIC "-//W3C//DTD SVG 1.1//EN"
 "http://www.w3.org/Graphics/SVG/1.1/DTD/svg11.dtd">
<!-- Generated by graphviz version 12.2.1 (0)
 -->
<!-- Title: w2c_0_21 Pages: 1 -->
<svg width="422pt" height="87pt"
 viewBox="0.00 0.00 421.50 86.75" xmlns="http://www.w3.org/2000/svg" xmlns:xlink="http://www.w3.org/1999/xlink">
<g id="graph0" class="graph" transform="scale(1 1) rotate(0) translate(4 82.75)">
<title>w2c_0_21</title>
<!-- Node1 -->
<g id="Node000001" class="node">
<title>Node1</title>
<g id="a_Node000001"><a xlink:title=" ">
<polygon fill="#999999" stroke="#666666" points="413.5,-39.75 349.5,-39.75 349.5,-19 413.5,-19 413.5,-39.75"/>
<text text-anchor="middle" x="381.5" y="-26.25" font-family="Helvetica,sans-Serif" font-size="10.00">w2c_0_21</text>
</a>
</g>
</g>
<!-- Node2 -->
<g id="Node000002" class="node">
<title>Node2</title>
<g id="a_Node000002"><a xlink:href="app_8c.html#a5677ffd129da8cd63b876545b8187d77" target="_top" xlink:title=" ">
<polygon fill="white" stroke="#666666" points="300.75,-59.75 233,-59.75 233,-39 300.75,-39 300.75,-59.75"/>
<text text-anchor="middle" x="266.88" y="-46.25" font-family="Helvetica,sans-Serif" font-size="10.00">w2c__f367</text>
</a>
</g>
</g>
<!-- Node1&#45;&gt;Node2 -->
<g id="edge1_Node000001_Node000002" class="edge">
<title>Node1&#45;&gt;Node2</title>
<g id="a_edge1_Node000001_Node000002"><a xlink:title=" ">
<path fill="none" stroke="#63b8ff" d="M337.81,-36.96C325.64,-39.12 312.56,-41.44 301.05,-43.48"/>
<polygon fill="#63b8ff" stroke="#63b8ff" points="338.4,-40.41 347.64,-35.21 337.18,-33.51 338.4,-40.41"/>
</a>
</g>
</g>
<!-- Node6 -->
<g id="Node000006" class="node">
<title>Node6</title>
<g id="a_Node000006"><a xlink:href="app_8c.html#a2b0768842cb39c3c2a100571eb0c2c6d" target="_top" xlink:title=" ">
<polygon fill="white" stroke="#666666" points="313.5,-20.75 220.25,-20.75 220.25,0 313.5,0 313.5,-20.75"/>
<text text-anchor="middle" x="266.88" y="-7.25" font-family="Helvetica,sans-Serif" font-size="10.00">wrap_w2c_0_21</text>
</a>
</g>
</g>
<!-- Node1&#45;&gt;Node6 -->
<g id="edge5_Node000001_Node000006" class="edge">
<title>Node1&#45;&gt;Node6</title>
<g id="a_edge5_Node000001_Node000006"><a xlink:title=" ">
<path fill="none" stroke="#63b8ff" d="M337.93,-22.19C330.05,-20.86 321.79,-19.47 313.82,-18.13"/>
<polygon fill="#63b8ff" stroke="#63b8ff" points="337.19,-25.62 347.64,-23.83 338.36,-18.72 337.19,-25.62"/>
</a>
</g>
</g>
<!-- Node3 -->
<g id="Node000003" class="node">
<title>Node3</title>
<g id="a_Node000003"><a xlink:href="app_8c.html#ac863989691d4c389f80374209c220171" target="_top" xlink:title=" ">
<polygon fill="white" stroke="#666666" points="167,-78.75 104.5,-78.75 104.5,-58 167,-58 167,-78.75"/>
<text text-anchor="middle" x="135.75" y="-65.25" font-family="Helvetica,sans-Serif" font-size="10.00">w2c__c_0</text>
</a>
</g>
</g>
<!-- Node2&#45;&gt;Node3 -->
<g id="edge2_Node000002_Node000003" class="edge">
<title>Node2&#45;&gt;Node3</title>
<g id="a_edge2_Node000002_Node000003"><a xlink:title=" ">
<path fill="none" stroke="#63b8ff" d="M221.29,-55.94C203.45,-58.56 183.36,-61.52 167.24,-63.89"/>
<polygon fill="#63b8ff" stroke="#63b8ff" points="221.74,-59.41 231.12,-54.49 220.72,-52.48 221.74,-59.41"/>
</a>
</g>
</g>
<!-- Node5 -->
<g id="Node000005" class="node">
<title>Node5</title>
<g id="a_Node000005"><a xlink:href="app_8c.html#a8f64ccad6c506a1ca514ba4f43e5211c" target="_top" xlink:title=" ">
<polygon fill="white" stroke="#666666" points="184.25,-39.75 87.25,-39.75 87.25,-19 184.25,-19 184.25,-39.75"/>
<text text-anchor="middle" x="135.75" y="-26.25" font-family="Helvetica,sans-Serif" font-size="10.00">wrap_w2c__f367</text>
</a>
</g>
</g>
<!-- Node2&#45;&gt;Node5 -->
<g id="edge4_Node000002_Node000005" class="edge">
<title>Node2&#45;&gt;Node5</title>
<g id="a_edge4_Node000002_Node000005"><a xlink:title=" ">
<path fill="none" stroke="#63b8ff" d="M221.54,-42.51C209.6,-40.66 196.62,-38.65 184.49,-36.77"/>
<polygon fill="#63b8ff" stroke="#63b8ff" points="220.71,-45.92 231.13,-43.99 221.78,-39 220.71,-45.92"/>
</a>
</g>
</g>
<!-- Node4 -->
<g id="Node000004" class="node">
<title>Node4</title>
<g id="a_Node000004"><a xlink:href="app_8c.html#ab1e039392ea68017ab8a6063263b147d" target="_top" xlink:title=" ">
<polygon fill="white" stroke="#666666" points="51.25,-78.75 0,-78.75 0,-58 51.25,-58 51.25,-78.75"/>
<text text-anchor="middle" x="25.62" y="-65.25" font-family="Helvetica,sans-Serif" font-size="10.00">w2c__c</text>
</a>
</g>
</g>
<!-- Node3&#45;&gt;Node4 -->
<g id="edge3_Node000003_Node000004" class="edge">
<title>Node3&#45;&gt;Node4</title>
<g id="a_edge3_Node000003_Node000004"><a xlink:title=" ">
<path fill="none" stroke="#63b8ff" d="M92.72,-68.38C78.81,-68.38 63.78,-68.38 51.57,-68.38"/>
<polygon fill="#63b8ff" stroke="#63b8ff" points="92.54,-71.88 102.54,-68.38 92.54,-64.88 92.54,-71.88"/>
</a>
</g>
</g>
</g>
</svg>
