<?xml version="1.0" encoding="UTF-8" standalone="no"?>
<!DOCTYPE svg PUBLIC "-//W3C//DTD SVG 1.1//EN"
 "http://www.w3.org/Graphics/SVG/1.1/DTD/svg11.dtd">
<!-- Generated by graphviz version 12.2.1 (0)
 -->
<!-- Title: w2c__f316 Pages: 1 -->
<svg width="495pt" height="225pt"
 viewBox="0.00 0.00 494.50 224.59" xmlns="http://www.w3.org/2000/svg" xmlns:xlink="http://www.w3.org/1999/xlink">
<g id="graph0" class="graph" transform="scale(1 1) rotate(0) translate(4 220.59)">
<title>w2c__f316</title>
<!-- Node1 -->
<g id="Node000001" class="node">
<title>Node1</title>
<g id="a_Node000001"><a xlink:title=" ">
<polygon fill="#999999" stroke="#666666" points="67.75,-98.75 0,-98.75 0,-78 67.75,-78 67.75,-98.75"/>
<text text-anchor="middle" x="33.88" y="-85.25" font-family="Helvetica,sans-Serif" font-size="10.00">w2c__f316</text>
</a>
</g>
</g>
<!-- Node2 -->
<g id="Node000002" class="node">
<title>Node2</title>
<g id="a_Node000002"><a xlink:href="app_8c.html#a94ba0efd8da5ce4859ae69909ed227f4" target="_top" xlink:title=" ">
<polygon fill="white" stroke="#666666" points="173.38,-176.75 105.62,-176.75 105.62,-156 173.38,-156 173.38,-176.75"/>
<text text-anchor="middle" x="139.5" y="-163.25" font-family="Helvetica,sans-Serif" font-size="10.00">w2c__f213</text>
</a>
</g>
</g>
<!-- Node1&#45;&gt;Node2 -->
<g id="edge1_Node000001_Node000002" class="edge">
<title>Node1&#45;&gt;Node2</title>
<g id="a_edge1_Node000001_Node000002"><a xlink:title=" ">
<path fill="none" stroke="#63b8ff" d="M46.07,-98.88C59.3,-111.04 82.24,-131.31 103.75,-146.38 105.32,-147.47 106.95,-148.57 108.61,-149.64"/>
<polygon fill="#63b8ff" stroke="#63b8ff" points="106.63,-152.53 116.99,-154.76 110.28,-146.56 106.63,-152.53"/>
</a>
</g>
</g>
<!-- Node8 -->
<g id="Node000008" class="node">
<title>Node8</title>
<g id="a_Node000008"><a xlink:href="app_8c.html#a819bb0d5a870d8c4bbb6b9a791102333" target="_top" xlink:title=" ">
<polygon fill="white" stroke="#666666" points="173.38,-137.75 105.62,-137.75 105.62,-117 173.38,-117 173.38,-137.75"/>
<text text-anchor="middle" x="139.5" y="-124.25" font-family="Helvetica,sans-Serif" font-size="10.00">w2c__f322</text>
</a>
</g>
</g>
<!-- Node1&#45;&gt;Node8 -->
<g id="edge10_Node000001_Node000008" class="edge">
<title>Node1&#45;&gt;Node8</title>
<g id="a_edge10_Node000001_Node000008"><a xlink:title=" ">
<path fill="none" stroke="#63b8ff" d="M63.74,-99.24C74.74,-103.38 87.48,-108.17 99.28,-112.62"/>
<polygon fill="#63b8ff" stroke="#63b8ff" points="97.78,-115.79 108.37,-116.04 100.25,-109.24 97.78,-115.79"/>
</a>
</g>
</g>
<!-- Node9 -->
<g id="Node000009" class="node">
<title>Node9</title>
<g id="a_Node000009"><a xlink:href="app_8c.html#a06cdee2573cd7febfe4cfde241e5574b" target="_top" xlink:title=" ">
<polygon fill="white" stroke="#666666" points="173.38,-98.75 105.62,-98.75 105.62,-78 173.38,-78 173.38,-98.75"/>
<text text-anchor="middle" x="139.5" y="-85.25" font-family="Helvetica,sans-Serif" font-size="10.00">w2c__f404</text>
</a>
</g>
</g>
<!-- Node1&#45;&gt;Node9 -->
<g id="edge11_Node000001_Node000009" class="edge">
<title>Node1&#45;&gt;Node9</title>
<g id="a_edge11_Node000001_Node000009"><a xlink:title=" ">
<path fill="none" stroke="#63b8ff" d="M68.23,-88.38C76.37,-88.38 85.2,-88.38 93.77,-88.38"/>
<polygon fill="#63b8ff" stroke="#63b8ff" points="93.69,-91.88 103.69,-88.38 93.69,-84.88 93.69,-91.88"/>
</a>
</g>
</g>
<!-- Node10 -->
<g id="Node000010" class="node">
<title>Node10</title>
<g id="a_Node000010"><a xlink:href="app_8c.html#a55f0e3687ea8fa5d5cc06af63f503791" target="_top" xlink:title=" ">
<polygon fill="white" stroke="#666666" points="173.38,-59.75 105.62,-59.75 105.62,-39 173.38,-39 173.38,-59.75"/>
<text text-anchor="middle" x="139.5" y="-46.25" font-family="Helvetica,sans-Serif" font-size="10.00">w2c__f473</text>
</a>
</g>
</g>
<!-- Node1&#45;&gt;Node10 -->
<g id="edge12_Node000001_Node000010" class="edge">
<title>Node1&#45;&gt;Node10</title>
<g id="a_edge12_Node000001_Node000010"><a xlink:title=" ">
<path fill="none" stroke="#63b8ff" d="M63.74,-77.51C74.74,-73.37 87.48,-68.58 99.28,-64.13"/>
<polygon fill="#63b8ff" stroke="#63b8ff" points="100.25,-67.51 108.37,-60.71 97.78,-60.96 100.25,-67.51"/>
</a>
</g>
</g>
<!-- Node12 -->
<g id="Node000012" class="node">
<title>Node12</title>
<g id="a_Node000012"><a xlink:href="app_8c.html#ad63b6498cfe22ce747f349eeb23b508f" target="_top" xlink:title=" ">
<polygon fill="white" stroke="#666666" points="175.25,-20.75 103.75,-20.75 103.75,0 175.25,0 175.25,-20.75"/>
<text text-anchor="middle" x="139.5" y="-7.25" font-family="Helvetica,sans-Serif" font-size="10.00">wasm_fabs</text>
</a>
</g>
</g>
<!-- Node1&#45;&gt;Node12 -->
<g id="edge14_Node000001_Node000012" class="edge">
<title>Node1&#45;&gt;Node12</title>
<g id="a_edge14_Node000001_Node000012"><a xlink:title=" ">
<path fill="none" stroke="#63b8ff" d="M46.07,-77.87C59.3,-65.71 82.24,-45.44 103.75,-30.38 105.32,-29.28 106.95,-28.18 108.61,-27.11"/>
<polygon fill="#63b8ff" stroke="#63b8ff" points="110.28,-30.19 116.99,-21.99 106.63,-24.22 110.28,-30.19"/>
</a>
</g>
</g>
<!-- Node3 -->
<g id="Node000003" class="node">
<title>Node3</title>
<g id="a_Node000003"><a xlink:href="app_8c.html#ac7c3d97ad3659d9d7492f82b3a7a740d" target="_top" xlink:title=" ">
<polygon fill="white" stroke="#666666" points="279,-195.75 211.25,-195.75 211.25,-175 279,-175 279,-195.75"/>
<text text-anchor="middle" x="245.12" y="-182.25" font-family="Helvetica,sans-Serif" font-size="10.00">w2c__f218</text>
</a>
</g>
</g>
<!-- Node2&#45;&gt;Node3 -->
<g id="edge2_Node000002_Node000003" class="edge">
<title>Node2&#45;&gt;Node3</title>
<g id="a_edge2_Node000002_Node000003"><a xlink:title=" ">
<path fill="none" stroke="#63b8ff" d="M173.86,-172.49C182.09,-174 191.03,-175.64 199.69,-177.23"/>
<polygon fill="#63b8ff" stroke="#63b8ff" points="198.87,-180.64 209.34,-179 200.14,-173.75 198.87,-180.64"/>
</a>
</g>
</g>
<!-- Node5 -->
<g id="Node000005" class="node">
<title>Node5</title>
<g id="a_Node000005"><a xlink:href="app_8c.html#a674f6e81761467d0a8dc6d2a425eda9f" target="_top" xlink:title=" ">
<polygon fill="white" stroke="#666666" points="486.5,-157.75 418.75,-157.75 418.75,-137 486.5,-137 486.5,-157.75"/>
<text text-anchor="middle" x="452.62" y="-144.25" font-family="Helvetica,sans-Serif" font-size="10.00">w2c__f498</text>
</a>
</g>
</g>
<!-- Node2&#45;&gt;Node5 -->
<g id="edge8_Node000002_Node000005" class="edge">
<title>Node2&#45;&gt;Node5</title>
<g id="a_edge8_Node000002_Node000005"><a xlink:title=" ">
<path fill="none" stroke="#63b8ff" d="M171.8,-155.6C217.9,-141.06 306.81,-118.09 382.75,-128.38 391.21,-129.52 400.1,-131.42 408.58,-133.59"/>
<polygon fill="#63b8ff" stroke="#63b8ff" points="407.39,-136.9 417.96,-136.16 409.23,-130.15 407.39,-136.9"/>
</a>
</g>
</g>
<!-- Node6 -->
<g id="Node000006" class="node">
<title>Node6</title>
<g id="a_Node000006"><a xlink:href="app_8c.html#a672569c91ebb1d5055d737b56ec296a7" target="_top" xlink:title=" ">
<polygon fill="white" stroke="#666666" points="486.5,-215.75 418.75,-215.75 418.75,-195 486.5,-195 486.5,-215.75"/>
<text text-anchor="middle" x="452.62" y="-202.25" font-family="Helvetica,sans-Serif" font-size="10.00">w2c__f585</text>
</a>
</g>
</g>
<!-- Node2&#45;&gt;Node6 -->
<g id="edge9_Node000002_Node000006" class="edge">
<title>Node2&#45;&gt;Node6</title>
<g id="a_edge9_Node000002_Node000006"><a xlink:title=" ">
<path fill="none" stroke="#63b8ff" d="M155.34,-177.12C169.07,-186.37 190.45,-199.04 211.25,-204.38 277.72,-221.44 357.98,-216.99 406.88,-211.63"/>
<polygon fill="#63b8ff" stroke="#63b8ff" points="407.29,-215.11 416.81,-210.47 406.47,-208.15 407.29,-215.11"/>
</a>
</g>
</g>
<!-- Node7 -->
<g id="Node000007" class="node">
<title>Node7</title>
<g id="a_Node000007"><a xlink:href="app_8c.html#ab07e4056f5c12e00d750c88d85ec77bb" target="_top" xlink:title=" ">
<polygon fill="white" stroke="#666666" points="382.75,-157.75 315,-157.75 315,-137 382.75,-137 382.75,-157.75"/>
<text text-anchor="middle" x="348.88" y="-144.25" font-family="Helvetica,sans-Serif" font-size="10.00">w2c__f415</text>
</a>
</g>
</g>
<!-- Node2&#45;&gt;Node7 -->
<g id="edge7_Node000002_Node000007" class="edge">
<title>Node2&#45;&gt;Node7</title>
<g id="a_edge7_Node000002_Node000007"><a xlink:title=" ">
<path fill="none" stroke="#63b8ff" d="M173.82,-163.32C209.04,-160.1 264.77,-154.99 303.65,-151.43"/>
<polygon fill="#63b8ff" stroke="#63b8ff" points="303.49,-154.96 313.13,-150.56 302.85,-147.99 303.49,-154.96"/>
</a>
</g>
</g>
<!-- Node4 -->
<g id="Node000004" class="node">
<title>Node4</title>
<g id="a_Node000004"><a xlink:href="app_8c.html#a268eeda7b1a075e4b680bac34cdfebdb" target="_top" xlink:title=" ">
<polygon fill="white" stroke="#666666" points="382.75,-196.75 315,-196.75 315,-176 382.75,-176 382.75,-196.75"/>
<text text-anchor="middle" x="348.88" y="-183.25" font-family="Helvetica,sans-Serif" font-size="10.00">w2c__f259</text>
</a>
</g>
</g>
<!-- Node3&#45;&gt;Node4 -->
<g id="edge3_Node000003_Node000004" class="edge">
<title>Node3&#45;&gt;Node4</title>
<g id="a_edge3_Node000003_Node000004"><a xlink:title=" ">
<path fill="none" stroke="#63b8ff" d="M279.44,-185.7C287.07,-185.78 295.31,-185.86 303.33,-185.94"/>
<polygon fill="#63b8ff" stroke="#63b8ff" points="303.28,-189.44 313.32,-186.04 303.35,-182.44 303.28,-189.44"/>
</a>
</g>
</g>
<!-- Node3&#45;&gt;Node7 -->
<g id="edge6_Node000003_Node000007" class="edge">
<title>Node3&#45;&gt;Node7</title>
<g id="a_edge6_Node000003_Node000007"><a xlink:title=" ">
<path fill="none" stroke="#63b8ff" d="M275.01,-174.59C285.32,-170.74 297.13,-166.33 308.19,-162.2"/>
<polygon fill="#63b8ff" stroke="#63b8ff" points="309.36,-165.5 317.5,-158.72 306.91,-158.94 309.36,-165.5"/>
</a>
</g>
</g>
<!-- Node4&#45;&gt;Node5 -->
<g id="edge4_Node000004_Node000005" class="edge">
<title>Node4&#45;&gt;Node5</title>
<g id="a_edge4_Node000004_Node000005"><a xlink:title=" ">
<path fill="none" stroke="#63b8ff" d="M378.22,-175.51C388.91,-171.41 401.27,-166.67 412.76,-162.27"/>
<polygon fill="#63b8ff" stroke="#63b8ff" points="413.94,-165.57 422.02,-158.72 411.43,-159.03 413.94,-165.57"/>
</a>
</g>
</g>
<!-- Node4&#45;&gt;Node6 -->
<g id="edge5_Node000004_Node000006" class="edge">
<title>Node4&#45;&gt;Node6</title>
<g id="a_edge5_Node000004_Node000006"><a xlink:title=" ">
<path fill="none" stroke="#63b8ff" d="M383.19,-192.6C390.91,-194.04 399.25,-195.59 407.36,-197.11"/>
<polygon fill="#63b8ff" stroke="#63b8ff" points="406.62,-200.53 417.09,-198.93 407.91,-193.65 406.62,-200.53"/>
</a>
</g>
</g>
<!-- Node11 -->
<g id="Node000011" class="node">
<title>Node11</title>
<g id="a_Node000011"><a xlink:href="app_8c.html#ab5fcbcf768e56d91e9aa71bba4a24166" target="_top" xlink:title=" ">
<polygon fill="white" stroke="#666666" points="279,-59.75 211.25,-59.75 211.25,-39 279,-39 279,-59.75"/>
<text text-anchor="middle" x="245.12" y="-46.25" font-family="Helvetica,sans-Serif" font-size="10.00">w2c__f221</text>
</a>
</g>
</g>
<!-- Node10&#45;&gt;Node11 -->
<g id="edge13_Node000010_Node000011" class="edge">
<title>Node10&#45;&gt;Node11</title>
<g id="a_edge13_Node000010_Node000011"><a xlink:title=" ">
<path fill="none" stroke="#63b8ff" d="M173.86,-49.38C181.99,-49.38 190.83,-49.38 199.4,-49.38"/>
<polygon fill="#63b8ff" stroke="#63b8ff" points="199.32,-52.88 209.32,-49.38 199.32,-45.88 199.32,-52.88"/>
</a>
</g>
</g>
</g>
</svg>
