<?xml version="1.0" encoding="UTF-8" standalone="no"?>
<!DOCTYPE svg PUBLIC "-//W3C//DTD SVG 1.1//EN"
 "http://www.w3.org/Graphics/SVG/1.1/DTD/svg11.dtd">
<!-- Generated by graphviz version 12.2.1 (0)
 -->
<!-- Title: w2c__f288 Pages: 1 -->
<svg width="604pt" height="457pt"
 viewBox="0.00 0.00 604.25 456.75" xmlns="http://www.w3.org/2000/svg" xmlns:xlink="http://www.w3.org/1999/xlink">
<g id="graph0" class="graph" transform="scale(1 1) rotate(0) translate(4 452.75)">
<title>w2c__f288</title>
<!-- Node1 -->
<g id="Node000001" class="node">
<title>Node1</title>
<g id="a_Node000001"><a xlink:title=" ">
<polygon fill="#999999" stroke="#666666" points="67.75,-254.75 0,-254.75 0,-234 67.75,-234 67.75,-254.75"/>
<text text-anchor="middle" x="33.88" y="-241.25" font-family="Helvetica,sans-Serif" font-size="10.00">w2c__f288</text>
</a>
</g>
</g>
<!-- Node2 -->
<g id="Node000002" class="node">
<title>Node2</title>
<g id="a_Node000002"><a xlink:href="app_8c.html#aa10b6a43c30b8d06deaba6072073d628" target="_top" xlink:title=" ">
<polygon fill="white" stroke="#666666" points="176.38,-410.75 106.38,-410.75 106.38,-390 176.38,-390 176.38,-410.75"/>
<text text-anchor="middle" x="141.38" y="-397.25" font-family="Helvetica,sans-Serif" font-size="10.00">w2c_0_116</text>
</a>
</g>
</g>
<!-- Node1&#45;&gt;Node2 -->
<g id="edge1_Node000001_Node000002" class="edge">
<title>Node1&#45;&gt;Node2</title>
<g id="a_edge1_Node000001_Node000002"><a xlink:title=" ">
<path fill="none" stroke="#63b8ff" d="M37.92,-255.22C45.38,-280.12 66.72,-342.18 103.75,-380.38 104.61,-381.26 105.51,-382.11 106.45,-382.94"/>
<polygon fill="#63b8ff" stroke="#63b8ff" points="104.29,-385.69 114.45,-388.7 108.38,-380.01 104.29,-385.69"/>
</a>
</g>
</g>
<!-- Node3 -->
<g id="Node000003" class="node">
<title>Node3</title>
<g id="a_Node000003"><a xlink:href="app_8c.html#ade7ef3afa13f61a8c1a8c2c13fe3dda7" target="_top" xlink:title=" ">
<polygon fill="white" stroke="#666666" points="173.38,-371.75 109.38,-371.75 109.38,-351 173.38,-351 173.38,-371.75"/>
<text text-anchor="middle" x="141.38" y="-358.25" font-family="Helvetica,sans-Serif" font-size="10.00">w2c_0_26</text>
</a>
</g>
</g>
<!-- Node1&#45;&gt;Node3 -->
<g id="edge2_Node000001_Node000003" class="edge">
<title>Node1&#45;&gt;Node3</title>
<g id="a_edge2_Node000001_Node000003"><a xlink:title=" ">
<path fill="none" stroke="#63b8ff" d="M40.4,-255.19C50.69,-274.5 74.42,-315.31 103.75,-341.38 104.97,-342.46 106.26,-343.5 107.59,-344.51"/>
<polygon fill="#63b8ff" stroke="#63b8ff" points="105.31,-347.2 115.59,-349.77 109.15,-341.35 105.31,-347.2"/>
</a>
</g>
</g>
<!-- Node4 -->
<g id="Node000004" class="node">
<title>Node4</title>
<g id="a_Node000004"><a xlink:href="app_8c.html#a31cc11531416445cb235efe29b5cdca3" target="_top" xlink:title=" ">
<polygon fill="white" stroke="#666666" points="173.38,-332.75 109.38,-332.75 109.38,-312 173.38,-312 173.38,-332.75"/>
<text text-anchor="middle" x="141.38" y="-319.25" font-family="Helvetica,sans-Serif" font-size="10.00">w2c_0_73</text>
</a>
</g>
</g>
<!-- Node1&#45;&gt;Node4 -->
<g id="edge3_Node000001_Node000004" class="edge">
<title>Node1&#45;&gt;Node4</title>
<g id="a_edge3_Node000001_Node000004"><a xlink:title=" ">
<path fill="none" stroke="#63b8ff" d="M46.01,-254.97C59.18,-267.2 82.07,-287.55 103.75,-302.38 105.54,-303.6 107.42,-304.82 109.34,-306"/>
<polygon fill="#63b8ff" stroke="#63b8ff" points="107.32,-308.88 117.72,-310.89 110.84,-302.83 107.32,-308.88"/>
</a>
</g>
</g>
<!-- Node5 -->
<g id="Node000005" class="node">
<title>Node5</title>
<g id="a_Node000005"><a xlink:href="app_8c.html#a7289466e4668b04108e0e2f55c8b32f7" target="_top" xlink:title=" ">
<polygon fill="white" stroke="#666666" points="173.38,-293.75 109.38,-293.75 109.38,-273 173.38,-273 173.38,-293.75"/>
<text text-anchor="middle" x="141.38" y="-280.25" font-family="Helvetica,sans-Serif" font-size="10.00">w2c_0_88</text>
</a>
</g>
</g>
<!-- Node1&#45;&gt;Node5 -->
<g id="edge4_Node000001_Node000005" class="edge">
<title>Node1&#45;&gt;Node5</title>
<g id="a_edge4_Node000001_Node000005"><a xlink:title=" ">
<path fill="none" stroke="#63b8ff" d="M64.26,-255.24C75.47,-259.38 88.43,-264.17 100.45,-268.62"/>
<polygon fill="#63b8ff" stroke="#63b8ff" points="99.13,-271.86 109.73,-272.04 101.56,-265.29 99.13,-271.86"/>
</a>
</g>
</g>
<!-- Node6 -->
<g id="Node000006" class="node">
<title>Node6</title>
<g id="a_Node000006"><a xlink:href="app_8c.html#ae42480847be1e319c571d8bc8695d191" target="_top" xlink:title=" ">
<polygon fill="white" stroke="#666666" points="175.25,-254.75 107.5,-254.75 107.5,-234 175.25,-234 175.25,-254.75"/>
<text text-anchor="middle" x="141.38" y="-241.25" font-family="Helvetica,sans-Serif" font-size="10.00">w2c__f223</text>
</a>
</g>
</g>
<!-- Node1&#45;&gt;Node6 -->
<g id="edge5_Node000001_Node000006" class="edge">
<title>Node1&#45;&gt;Node6</title>
<g id="a_edge5_Node000001_Node000006"><a xlink:title=" ">
<path fill="none" stroke="#63b8ff" d="M67.97,-244.38C76.72,-244.38 86.31,-244.38 95.58,-244.38"/>
<polygon fill="#63b8ff" stroke="#63b8ff" points="95.52,-247.88 105.52,-244.38 95.52,-240.88 95.52,-247.88"/>
</a>
</g>
</g>
<!-- Node16 -->
<g id="Node000016" class="node">
<title>Node16</title>
<g id="a_Node000016"><a xlink:href="app_8c.html#a5afd0bdcabe1312572f585b64e00c911" target="_top" xlink:title=" ">
<polygon fill="white" stroke="#666666" points="175.25,-215.75 107.5,-215.75 107.5,-195 175.25,-195 175.25,-215.75"/>
<text text-anchor="middle" x="141.38" y="-202.25" font-family="Helvetica,sans-Serif" font-size="10.00">w2c__f256</text>
</a>
</g>
</g>
<!-- Node1&#45;&gt;Node16 -->
<g id="edge20_Node000001_Node000016" class="edge">
<title>Node1&#45;&gt;Node16</title>
<g id="a_edge20_Node000001_Node000016"><a xlink:title=" ">
<path fill="none" stroke="#63b8ff" d="M64.26,-233.51C75.47,-229.37 88.43,-224.58 100.45,-220.13"/>
<polygon fill="#63b8ff" stroke="#63b8ff" points="101.56,-223.46 109.73,-216.71 99.13,-216.89 101.56,-223.46"/>
</a>
</g>
</g>
<!-- Node24 -->
<g id="Node000024" class="node">
<title>Node24</title>
<g id="a_Node000024"><a xlink:href="app_8c.html#aaf013b2b29372f4a479047d0c464d3ba" target="_top" xlink:title=" ">
<polygon fill="white" stroke="#666666" points="175.25,-176.75 107.5,-176.75 107.5,-156 175.25,-156 175.25,-176.75"/>
<text text-anchor="middle" x="141.38" y="-163.25" font-family="Helvetica,sans-Serif" font-size="10.00">w2c__f401</text>
</a>
</g>
</g>
<!-- Node1&#45;&gt;Node24 -->
<g id="edge28_Node000001_Node000024" class="edge">
<title>Node1&#45;&gt;Node24</title>
<g id="a_edge28_Node000001_Node000024"><a xlink:title=" ">
<path fill="none" stroke="#63b8ff" d="M46.01,-233.78C59.18,-221.55 82.07,-201.2 103.75,-186.38 105.54,-185.15 107.42,-183.93 109.34,-182.75"/>
<polygon fill="#63b8ff" stroke="#63b8ff" points="110.84,-185.92 117.72,-177.86 107.32,-179.87 110.84,-185.92"/>
</a>
</g>
</g>
<!-- Node27 -->
<g id="Node000027" class="node">
<title>Node27</title>
<g id="a_Node000027"><a xlink:href="app_8c.html#abe22e959f965cb0fbcf5b83be18fbe1e" target="_top" xlink:title=" ">
<polygon fill="white" stroke="#666666" points="179,-40.75 103.75,-40.75 103.75,-20 179,-20 179,-40.75"/>
<text text-anchor="middle" x="141.38" y="-27.25" font-family="Helvetica,sans-Serif" font-size="10.00">wasm_quiet</text>
</a>
</g>
</g>
<!-- Node1&#45;&gt;Node27 -->
<g id="edge37_Node000001_Node000027" class="edge">
<title>Node1&#45;&gt;Node27</title>
<g id="a_edge37_Node000001_Node000027"><a xlink:title=" ">
<path fill="none" stroke="#63b8ff" d="M39.06,-233.61C49.13,-208.06 75.92,-141.95 103.75,-89.38 110.83,-76 119.78,-61.55 127.06,-50.3"/>
<polygon fill="#63b8ff" stroke="#63b8ff" points="129.77,-52.53 132.34,-42.25 123.92,-48.69 129.77,-52.53"/>
</a>
</g>
</g>
<!-- Node29 -->
<g id="Node000029" class="node">
<title>Node29</title>
<g id="a_Node000029"><a xlink:href="app_8c.html#a22805979cc49b429d0fb4b7435774648" target="_top" xlink:title=" ">
<polygon fill="white" stroke="#666666" points="176,-118.75 106.75,-118.75 106.75,-98 176,-98 176,-118.75"/>
<text text-anchor="middle" x="141.38" y="-105.25" font-family="Helvetica,sans-Serif" font-size="10.00">wasm_sqrt</text>
</a>
</g>
</g>
<!-- Node1&#45;&gt;Node29 -->
<g id="edge39_Node000001_Node000029" class="edge">
<title>Node1&#45;&gt;Node29</title>
<g id="a_edge39_Node000001_Node000029"><a xlink:title=" ">
<path fill="none" stroke="#63b8ff" d="M41.86,-233.55C53.82,-215.25 79.29,-177.27 103.75,-147.38 109.41,-140.46 115.99,-133.23 122,-126.9"/>
<polygon fill="#63b8ff" stroke="#63b8ff" points="124.21,-129.65 128.65,-120.03 119.18,-124.78 124.21,-129.65"/>
</a>
</g>
</g>
<!-- Node7 -->
<g id="Node000007" class="node">
<title>Node7</title>
<g id="a_Node000007"><a xlink:href="app_8c.html#a1a8a1d528c65d63a630e19c3a4bdd098" target="_top" xlink:title=" ">
<polygon fill="white" stroke="#666666" points="283.88,-371.75 216.12,-371.75 216.12,-351 283.88,-351 283.88,-371.75"/>
<text text-anchor="middle" x="250" y="-358.25" font-family="Helvetica,sans-Serif" font-size="10.00">w2c__f557</text>
</a>
</g>
</g>
<!-- Node6&#45;&gt;Node7 -->
<g id="edge6_Node000006_Node000007" class="edge">
<title>Node6&#45;&gt;Node7</title>
<g id="a_edge6_Node000006_Node000007"><a xlink:title=" ">
<path fill="none" stroke="#63b8ff" d="M167.16,-255.08C171.46,-257.69 175.63,-260.78 179,-264.38 204.87,-291.91 189.58,-313.43 215,-341.38 215.71,-342.15 216.45,-342.91 217.22,-343.64"/>
<polygon fill="#63b8ff" stroke="#63b8ff" points="215.09,-346.41 225.15,-349.74 219.36,-340.86 215.09,-346.41"/>
</a>
</g>
</g>
<!-- Node8 -->
<g id="Node000008" class="node">
<title>Node8</title>
<g id="a_Node000008"><a xlink:href="app_8c.html#a0f7003812eaf983535ff7979fc047a21" target="_top" xlink:title=" ">
<polygon fill="white" stroke="#666666" points="388.75,-410.75 321,-410.75 321,-390 388.75,-390 388.75,-410.75"/>
<text text-anchor="middle" x="354.88" y="-397.25" font-family="Helvetica,sans-Serif" font-size="10.00">w2c__f353</text>
</a>
</g>
</g>
<!-- Node7&#45;&gt;Node8 -->
<g id="edge7_Node000007_Node000008" class="edge">
<title>Node7&#45;&gt;Node8</title>
<g id="a_edge7_Node000007_Node000008"><a xlink:title=" ">
<path fill="none" stroke="#63b8ff" d="M279.66,-372.24C290.58,-376.38 303.22,-381.17 314.94,-385.62"/>
<polygon fill="#63b8ff" stroke="#63b8ff" points="313.37,-388.76 323.96,-389.03 315.85,-382.22 313.37,-388.76"/>
</a>
</g>
</g>
<!-- Node13 -->
<g id="Node000013" class="node">
<title>Node13</title>
<g id="a_Node000013"><a xlink:href="app_8c.html#ac9cc84763a9c1933e50eedd7a06c17e2" target="_top" xlink:title=" ">
<polygon fill="white" stroke="#666666" points="388.75,-371.75 321,-371.75 321,-351 388.75,-351 388.75,-371.75"/>
<text text-anchor="middle" x="354.88" y="-358.25" font-family="Helvetica,sans-Serif" font-size="10.00">w2c__f480</text>
</a>
</g>
</g>
<!-- Node7&#45;&gt;Node13 -->
<g id="edge13_Node000007_Node000013" class="edge">
<title>Node7&#45;&gt;Node13</title>
<g id="a_edge13_Node000007_Node000013"><a xlink:title=" ">
<path fill="none" stroke="#63b8ff" d="M284.12,-361.38C292.19,-361.38 300.96,-361.38 309.47,-361.38"/>
<polygon fill="#63b8ff" stroke="#63b8ff" points="309.31,-364.88 319.31,-361.38 309.31,-357.88 309.31,-364.88"/>
</a>
</g>
</g>
<!-- Node9 -->
<g id="Node000009" class="node">
<title>Node9</title>
<g id="a_Node000009"><a xlink:href="app_8c.html#aaca5d5bcf49f2ca74019cf097750b9f3" target="_top" xlink:title=" ">
<polygon fill="white" stroke="#666666" points="492.5,-448.75 424.75,-448.75 424.75,-428 492.5,-428 492.5,-448.75"/>
<text text-anchor="middle" x="458.62" y="-435.25" font-family="Helvetica,sans-Serif" font-size="10.00">w2c__f258</text>
</a>
</g>
</g>
<!-- Node8&#45;&gt;Node9 -->
<g id="edge8_Node000008_Node000009" class="edge">
<title>Node8&#45;&gt;Node9</title>
<g id="a_edge8_Node000008_Node000009"><a xlink:title=" ">
<path fill="none" stroke="#63b8ff" d="M384.76,-411.16C395.07,-415.01 406.88,-419.42 417.94,-423.55"/>
<polygon fill="#63b8ff" stroke="#63b8ff" points="416.66,-426.81 427.25,-427.03 419.11,-420.25 416.66,-426.81"/>
</a>
</g>
</g>
<!-- Node12 -->
<g id="Node000012" class="node">
<title>Node12</title>
<g id="a_Node000012"><a xlink:href="app_8c.html#a4634342addbde677893ffcb45cf639dd" target="_top" xlink:title=" ">
<polygon fill="white" stroke="#666666" points="492.5,-409.75 424.75,-409.75 424.75,-389 492.5,-389 492.5,-409.75"/>
<text text-anchor="middle" x="458.62" y="-396.25" font-family="Helvetica,sans-Serif" font-size="10.00">w2c__f302</text>
</a>
</g>
</g>
<!-- Node8&#45;&gt;Node12 -->
<g id="edge11_Node000008_Node000012" class="edge">
<title>Node8&#45;&gt;Node12</title>
<g id="a_edge11_Node000008_Node000012"><a xlink:title=" ">
<path fill="none" stroke="#63b8ff" d="M389.19,-400.05C396.82,-399.97 405.06,-399.89 413.08,-399.81"/>
<polygon fill="#63b8ff" stroke="#63b8ff" points="413.1,-403.31 423.07,-399.71 413.03,-396.31 413.1,-403.31"/>
</a>
</g>
</g>
<!-- Node10 -->
<g id="Node000010" class="node">
<title>Node10</title>
<g id="a_Node000010"><a xlink:href="app_8c.html#a8d9f347f9a643f0ebfb53c4f54578ac4" target="_top" xlink:title=" ">
<polygon fill="white" stroke="#666666" points="596.25,-390.75 528.5,-390.75 528.5,-370 596.25,-370 596.25,-390.75"/>
<text text-anchor="middle" x="562.38" y="-377.25" font-family="Helvetica,sans-Serif" font-size="10.00">w2c__f304</text>
</a>
</g>
</g>
<!-- Node9&#45;&gt;Node10 -->
<g id="edge9_Node000009_Node000010" class="edge">
<title>Node9&#45;&gt;Node10</title>
<g id="a_edge9_Node000009_Node000010"><a xlink:title=" ">
<path fill="none" stroke="#63b8ff" d="M478.29,-427.74C493.54,-419.04 515.35,-406.61 532.8,-396.66"/>
<polygon fill="#63b8ff" stroke="#63b8ff" points="534.22,-399.88 541.17,-391.89 530.75,-393.8 534.22,-399.88"/>
</a>
</g>
</g>
<!-- Node11 -->
<g id="Node000011" class="node">
<title>Node11</title>
<g id="a_Node000011"><a xlink:href="app_8c.html#a881f0b113e93dce3ff52d04b435850f6" target="_top" xlink:title=" ">
<polygon fill="white" stroke="#666666" points="596.25,-448.75 528.5,-448.75 528.5,-428 596.25,-428 596.25,-448.75"/>
<text text-anchor="middle" x="562.38" y="-435.25" font-family="Helvetica,sans-Serif" font-size="10.00">w2c__f491</text>
</a>
</g>
</g>
<!-- Node9&#45;&gt;Node11 -->
<g id="edge10_Node000009_Node000011" class="edge">
<title>Node9&#45;&gt;Node11</title>
<g id="a_edge10_Node000009_Node000011"><a xlink:title=" ">
<path fill="none" stroke="#63b8ff" d="M492.94,-438.38C500.57,-438.38 508.81,-438.38 516.83,-438.38"/>
<polygon fill="#63b8ff" stroke="#63b8ff" points="516.82,-441.88 526.82,-438.38 516.82,-434.88 516.82,-441.88"/>
</a>
</g>
</g>
<!-- Node12&#45;&gt;Node10 -->
<g id="edge12_Node000012_Node000010" class="edge">
<title>Node12&#45;&gt;Node10</title>
<g id="a_edge12_Node000012_Node000010"><a xlink:title=" ">
<path fill="none" stroke="#63b8ff" d="M492.94,-393.15C500.66,-391.71 509,-390.16 517.11,-388.64"/>
<polygon fill="#63b8ff" stroke="#63b8ff" points="517.66,-392.1 526.84,-386.82 516.37,-385.22 517.66,-392.1"/>
</a>
</g>
</g>
<!-- Node13&#45;&gt;Node9 -->
<g id="edge16_Node000013_Node000009" class="edge">
<title>Node13&#45;&gt;Node9</title>
<g id="a_edge16_Node000013_Node000009"><a xlink:title=" ">
<path fill="none" stroke="#63b8ff" d="M375.54,-372.23C380.03,-375 384.67,-378.13 388.75,-381.38 406.69,-395.67 406.81,-404.08 424.75,-418.38 426.02,-419.39 427.35,-420.39 428.72,-421.38"/>
<polygon fill="#63b8ff" stroke="#63b8ff" points="426.43,-424.06 436.7,-426.69 430.31,-418.23 426.43,-424.06"/>
</a>
</g>
</g>
<!-- Node13&#45;&gt;Node10 -->
<g id="edge18_Node000013_Node000010" class="edge">
<title>Node13&#45;&gt;Node10</title>
<g id="a_edge18_Node000013_Node000010"><a xlink:title=" ">
<path fill="none" stroke="#63b8ff" d="M388.89,-364.43C423.54,-367.63 478.23,-372.69 516.71,-376.25"/>
<polygon fill="#63b8ff" stroke="#63b8ff" points="516.31,-379.72 526.59,-377.16 516.96,-372.75 516.31,-379.72"/>
</a>
</g>
</g>
<!-- Node13&#45;&gt;Node12 -->
<g id="edge17_Node000013_Node000012" class="edge">
<title>Node13&#45;&gt;Node12</title>
<g id="a_edge17_Node000013_Node000012"><a xlink:title=" ">
<path fill="none" stroke="#63b8ff" d="M384.76,-372.16C395.07,-376.01 406.88,-380.42 417.94,-384.55"/>
<polygon fill="#63b8ff" stroke="#63b8ff" points="416.66,-387.81 427.25,-388.03 419.11,-381.25 416.66,-387.81"/>
</a>
</g>
</g>
<!-- Node14 -->
<g id="Node000014" class="node">
<title>Node14</title>
<g id="a_Node000014"><a xlink:href="app_8c.html#a0378208e0d5c0d1d6e7370f1c578fab3" target="_top" xlink:title=" ">
<polygon fill="white" stroke="#666666" points="492.5,-333.75 424.75,-333.75 424.75,-313 492.5,-313 492.5,-333.75"/>
<text text-anchor="middle" x="458.62" y="-320.25" font-family="Helvetica,sans-Serif" font-size="10.00">w2c__f216</text>
</a>
</g>
</g>
<!-- Node13&#45;&gt;Node14 -->
<g id="edge14_Node000013_Node000014" class="edge">
<title>Node13&#45;&gt;Node14</title>
<g id="a_edge14_Node000013_Node000014"><a xlink:title=" ">
<path fill="none" stroke="#63b8ff" d="M384.76,-350.59C395.07,-346.74 406.88,-342.33 417.94,-338.2"/>
<polygon fill="#63b8ff" stroke="#63b8ff" points="419.11,-341.5 427.25,-334.72 416.66,-334.94 419.11,-341.5"/>
</a>
</g>
</g>
<!-- Node15 -->
<g id="Node000015" class="node">
<title>Node15</title>
<g id="a_Node000015"><a xlink:href="app_8c.html#a674f6e81761467d0a8dc6d2a425eda9f" target="_top" xlink:title=" ">
<polygon fill="white" stroke="#666666" points="492.5,-294.75 424.75,-294.75 424.75,-274 492.5,-274 492.5,-294.75"/>
<text text-anchor="middle" x="458.62" y="-281.25" font-family="Helvetica,sans-Serif" font-size="10.00">w2c__f498</text>
</a>
</g>
</g>
<!-- Node13&#45;&gt;Node15 -->
<g id="edge19_Node000013_Node000015" class="edge">
<title>Node13&#45;&gt;Node15</title>
<g id="a_edge19_Node000013_Node000015"><a xlink:title=" ">
<path fill="none" stroke="#63b8ff" d="M375.54,-350.52C380.03,-347.75 384.67,-344.62 388.75,-341.38 406.69,-327.08 406.81,-318.67 424.75,-304.38 426.02,-303.36 427.35,-302.36 428.72,-301.37"/>
<polygon fill="#63b8ff" stroke="#63b8ff" points="430.31,-304.52 436.7,-296.06 426.43,-298.69 430.31,-304.52"/>
</a>
</g>
</g>
<!-- Node14&#45;&gt;Node10 -->
<g id="edge15_Node000014_Node000010" class="edge">
<title>Node14&#45;&gt;Node10</title>
<g id="a_edge15_Node000014_Node000010"><a xlink:title=" ">
<path fill="none" stroke="#63b8ff" d="M478.76,-334.1C493.87,-342.56 515.2,-354.51 532.4,-364.15"/>
<polygon fill="#63b8ff" stroke="#63b8ff" points="530.22,-366.93 540.66,-368.77 533.64,-360.83 530.22,-366.93"/>
</a>
</g>
</g>
<!-- Node17 -->
<g id="Node000017" class="node">
<title>Node17</title>
<g id="a_Node000017"><a xlink:href="app_8c.html#add88601cb03b410d0c4bc8f456c3ae55" target="_top" xlink:title=" ">
<polygon fill="white" stroke="#666666" points="285,-293.75 215,-293.75 215,-273 285,-273 285,-293.75"/>
<text text-anchor="middle" x="250" y="-280.25" font-family="Helvetica,sans-Serif" font-size="10.00">w2c_0_104</text>
</a>
</g>
</g>
<!-- Node16&#45;&gt;Node17 -->
<g id="edge21_Node000016_Node000017" class="edge">
<title>Node16&#45;&gt;Node17</title>
<g id="a_edge21_Node000016_Node000017"><a xlink:title=" ">
<path fill="none" stroke="#63b8ff" d="M164.76,-216.15C169.64,-218.89 174.64,-222.02 179,-225.38 197.43,-239.57 196.79,-248.89 215,-263.38 216.31,-264.41 217.67,-265.44 219.07,-266.44"/>
<polygon fill="#63b8ff" stroke="#63b8ff" points="217.05,-269.29 227.34,-271.81 220.86,-263.43 217.05,-269.29"/>
</a>
</g>
</g>
<!-- Node18 -->
<g id="Node000018" class="node">
<title>Node18</title>
<g id="a_Node000018"><a xlink:href="app_8c.html#ae68178bc105b2d45ebe022d5f9bc03f7" target="_top" xlink:title=" ">
<polygon fill="white" stroke="#666666" points="285,-254.75 215,-254.75 215,-234 285,-234 285,-254.75"/>
<text text-anchor="middle" x="250" y="-241.25" font-family="Helvetica,sans-Serif" font-size="10.00">w2c_0_159</text>
</a>
</g>
</g>
<!-- Node16&#45;&gt;Node18 -->
<g id="edge22_Node000016_Node000018" class="edge">
<title>Node16&#45;&gt;Node18</title>
<g id="a_edge22_Node000016_Node000018"><a xlink:title=" ">
<path fill="none" stroke="#63b8ff" d="M172.08,-216.24C183.4,-220.38 196.5,-225.17 208.65,-229.62"/>
<polygon fill="#63b8ff" stroke="#63b8ff" points="207.44,-232.9 218.04,-233.05 209.85,-226.33 207.44,-232.9"/>
</a>
</g>
</g>
<!-- Node19 -->
<g id="Node000019" class="node">
<title>Node19</title>
<g id="a_Node000019"><a xlink:href="app_8c.html#af3b7c5a4a8f14b9383b243d8c06b1301" target="_top" xlink:title=" ">
<polygon fill="white" stroke="#666666" points="285,-215.75 215,-215.75 215,-195 285,-195 285,-215.75"/>
<text text-anchor="middle" x="250" y="-202.25" font-family="Helvetica,sans-Serif" font-size="10.00">w2c_0_172</text>
</a>
</g>
</g>
<!-- Node16&#45;&gt;Node19 -->
<g id="edge23_Node000016_Node000019" class="edge">
<title>Node16&#45;&gt;Node19</title>
<g id="a_edge23_Node000016_Node000019"><a xlink:title=" ">
<path fill="none" stroke="#63b8ff" d="M175.53,-205.38C184.39,-205.38 194.13,-205.38 203.54,-205.38"/>
<polygon fill="#63b8ff" stroke="#63b8ff" points="203.25,-208.88 213.25,-205.38 203.25,-201.88 203.25,-208.88"/>
</a>
</g>
</g>
<!-- Node20 -->
<g id="Node000020" class="node">
<title>Node20</title>
<g id="a_Node000020"><a xlink:href="app_8c.html#aa018dbf3bc5814e93cedb41f14e2b4d9" target="_top" xlink:title=" ">
<polygon fill="white" stroke="#666666" points="282,-176.75 218,-176.75 218,-156 282,-156 282,-176.75"/>
<text text-anchor="middle" x="250" y="-163.25" font-family="Helvetica,sans-Serif" font-size="10.00">w2c_0_19</text>
</a>
</g>
</g>
<!-- Node16&#45;&gt;Node20 -->
<g id="edge24_Node000016_Node000020" class="edge">
<title>Node16&#45;&gt;Node20</title>
<g id="a_edge24_Node000016_Node000020"><a xlink:title=" ">
<path fill="none" stroke="#63b8ff" d="M172.08,-194.51C183.4,-190.37 196.5,-185.58 208.65,-181.13"/>
<polygon fill="#63b8ff" stroke="#63b8ff" points="209.85,-184.42 218.04,-177.7 207.44,-177.85 209.85,-184.42"/>
</a>
</g>
</g>
<!-- Node21 -->
<g id="Node000021" class="node">
<title>Node21</title>
<g id="a_Node000021"><a xlink:href="app_8c.html#aec29ea126421b36c7ea313062dea6ec6" target="_top" xlink:title=" ">
<polygon fill="white" stroke="#666666" points="282,-137.75 218,-137.75 218,-117 282,-117 282,-137.75"/>
<text text-anchor="middle" x="250" y="-124.25" font-family="Helvetica,sans-Serif" font-size="10.00">w2c_0_35</text>
</a>
</g>
</g>
<!-- Node16&#45;&gt;Node21 -->
<g id="edge25_Node000016_Node000021" class="edge">
<title>Node16&#45;&gt;Node21</title>
<g id="a_edge25_Node000016_Node000021"><a xlink:title=" ">
<path fill="none" stroke="#63b8ff" d="M164.76,-194.6C169.64,-191.86 174.64,-188.73 179,-185.38 197.43,-171.18 196.79,-161.86 215,-147.38 216.31,-146.34 217.67,-145.31 219.07,-144.31"/>
<polygon fill="#63b8ff" stroke="#63b8ff" points="220.86,-147.32 227.34,-138.94 217.05,-141.46 220.86,-147.32"/>
</a>
</g>
</g>
<!-- Node22 -->
<g id="Node000022" class="node">
<title>Node22</title>
<g id="a_Node000022"><a xlink:href="app_8c.html#a19209c6f5685e2e28a1b671ece901600" target="_top" xlink:title=" ">
<polygon fill="white" stroke="#666666" points="283.88,-332.75 216.12,-332.75 216.12,-312 283.88,-312 283.88,-332.75"/>
<text text-anchor="middle" x="250" y="-319.25" font-family="Helvetica,sans-Serif" font-size="10.00">w2c__f335</text>
</a>
</g>
</g>
<!-- Node16&#45;&gt;Node22 -->
<g id="edge26_Node000016_Node000022" class="edge">
<title>Node16&#45;&gt;Node22</title>
<g id="a_edge26_Node000016_Node000022"><a xlink:title=" ">
<path fill="none" stroke="#63b8ff" d="M167.16,-216.08C171.46,-218.69 175.63,-221.78 179,-225.38 204.87,-252.91 189.58,-274.43 215,-302.38 215.71,-303.15 216.45,-303.91 217.22,-304.64"/>
<polygon fill="#63b8ff" stroke="#63b8ff" points="215.09,-307.41 225.15,-310.74 219.36,-301.86 215.09,-307.41"/>
</a>
</g>
</g>
<!-- Node23 -->
<g id="Node000023" class="node">
<title>Node23</title>
<g id="a_Node000023"><a xlink:href="app_8c.html#a84a707cc8c74624a4f1db785844c7211" target="_top" xlink:title=" ">
<polygon fill="white" stroke="#666666" points="386.88,-332.75 322.88,-332.75 322.88,-312 386.88,-312 386.88,-332.75"/>
<text text-anchor="middle" x="354.88" y="-319.25" font-family="Helvetica,sans-Serif" font-size="10.00">w2c_0_92</text>
</a>
</g>
</g>
<!-- Node22&#45;&gt;Node23 -->
<g id="edge27_Node000022_Node000023" class="edge">
<title>Node22&#45;&gt;Node23</title>
<g id="a_edge27_Node000022_Node000023"><a xlink:title=" ">
<path fill="none" stroke="#63b8ff" d="M284.12,-322.38C292.79,-322.38 302.26,-322.38 311.35,-322.38"/>
<polygon fill="#63b8ff" stroke="#63b8ff" points="311.06,-325.88 321.06,-322.38 311.06,-318.88 311.06,-325.88"/>
</a>
</g>
</g>
<!-- Node24&#45;&gt;Node17 -->
<g id="edge29_Node000024_Node000017" class="edge">
<title>Node24&#45;&gt;Node17</title>
<g id="a_edge29_Node000024_Node000017"><a xlink:title=" ">
<path fill="none" stroke="#63b8ff" d="M167.16,-177.08C171.46,-179.69 175.63,-182.78 179,-186.38 204.87,-213.91 189.58,-235.43 215,-263.38 215.71,-264.15 216.45,-264.91 217.22,-265.64"/>
<polygon fill="#63b8ff" stroke="#63b8ff" points="215.09,-268.41 225.15,-271.74 219.36,-262.86 215.09,-268.41"/>
</a>
</g>
</g>
<!-- Node24&#45;&gt;Node18 -->
<g id="edge31_Node000024_Node000018" class="edge">
<title>Node24&#45;&gt;Node18</title>
<g id="a_edge31_Node000024_Node000018"><a xlink:title=" ">
<path fill="none" stroke="#63b8ff" d="M164.76,-177.15C169.64,-179.89 174.64,-183.02 179,-186.38 197.43,-200.57 196.79,-209.89 215,-224.38 216.31,-225.41 217.67,-226.44 219.07,-227.44"/>
<polygon fill="#63b8ff" stroke="#63b8ff" points="217.05,-230.29 227.34,-232.81 220.86,-224.43 217.05,-230.29"/>
</a>
</g>
</g>
<!-- Node24&#45;&gt;Node19 -->
<g id="edge32_Node000024_Node000019" class="edge">
<title>Node24&#45;&gt;Node19</title>
<g id="a_edge32_Node000024_Node000019"><a xlink:title=" ">
<path fill="none" stroke="#63b8ff" d="M172.08,-177.24C183.4,-181.38 196.5,-186.17 208.65,-190.62"/>
<polygon fill="#63b8ff" stroke="#63b8ff" points="207.44,-193.9 218.04,-194.05 209.85,-187.33 207.44,-193.9"/>
</a>
</g>
</g>
<!-- Node24&#45;&gt;Node20 -->
<g id="edge34_Node000024_Node000020" class="edge">
<title>Node24&#45;&gt;Node20</title>
<g id="a_edge34_Node000024_Node000020"><a xlink:title=" ">
<path fill="none" stroke="#63b8ff" d="M175.53,-166.38C185.3,-166.38 196.13,-166.38 206.41,-166.38"/>
<polygon fill="#63b8ff" stroke="#63b8ff" points="206.18,-169.88 216.18,-166.38 206.18,-162.88 206.18,-169.88"/>
</a>
</g>
</g>
<!-- Node24&#45;&gt;Node21 -->
<g id="edge35_Node000024_Node000021" class="edge">
<title>Node24&#45;&gt;Node21</title>
<g id="a_edge35_Node000024_Node000021"><a xlink:title=" ">
<path fill="none" stroke="#63b8ff" d="M172.08,-155.51C183.4,-151.37 196.5,-146.58 208.65,-142.13"/>
<polygon fill="#63b8ff" stroke="#63b8ff" points="209.85,-145.42 218.04,-138.7 207.44,-138.85 209.85,-145.42"/>
</a>
</g>
</g>
<!-- Node24&#45;&gt;Node22 -->
<g id="edge36_Node000024_Node000022" class="edge">
<title>Node24&#45;&gt;Node22</title>
<g id="a_edge36_Node000024_Node000022"><a xlink:title=" ">
<path fill="none" stroke="#63b8ff" d="M168.32,-177.2C172.31,-179.74 176.06,-182.79 179,-186.38 213.19,-228.15 181.48,-260.06 215,-302.38 215.53,-303.04 216.08,-303.69 216.66,-304.32"/>
<polygon fill="#63b8ff" stroke="#63b8ff" points="214.19,-306.81 224.09,-310.56 218.69,-301.45 214.19,-306.81"/>
</a>
</g>
</g>
<!-- Node25 -->
<g id="Node000025" class="node">
<title>Node25</title>
<g id="a_Node000025"><a xlink:href="app_8c.html#a416a3f7003240b1a361323dbb3203bf8" target="_top" xlink:title=" ">
<polygon fill="white" stroke="#666666" points="285,-98.75 215,-98.75 215,-78 285,-78 285,-98.75"/>
<text text-anchor="middle" x="250" y="-85.25" font-family="Helvetica,sans-Serif" font-size="10.00">w2c_0_130</text>
</a>
</g>
</g>
<!-- Node24&#45;&gt;Node25 -->
<g id="edge30_Node000024_Node000025" class="edge">
<title>Node24&#45;&gt;Node25</title>
<g id="a_edge30_Node000024_Node000025"><a xlink:title=" ">
<path fill="none" stroke="#63b8ff" d="M154.81,-155.54C168.95,-143.44 192.94,-123.56 215,-108.38 216.59,-107.28 218.24,-106.18 219.92,-105.1"/>
<polygon fill="#63b8ff" stroke="#63b8ff" points="221.67,-108.14 228.35,-99.91 218,-102.17 221.67,-108.14"/>
</a>
</g>
</g>
<!-- Node26 -->
<g id="Node000026" class="node">
<title>Node26</title>
<g id="a_Node000026"><a xlink:href="app_8c.html#a413a166631157266d5dbee4d8d8164da" target="_top" xlink:title=" ">
<polygon fill="white" stroke="#666666" points="285,-59.75 215,-59.75 215,-39 285,-39 285,-59.75"/>
<text text-anchor="middle" x="250" y="-46.25" font-family="Helvetica,sans-Serif" font-size="10.00">w2c_0_182</text>
</a>
</g>
</g>
<!-- Node24&#45;&gt;Node26 -->
<g id="edge33_Node000024_Node000026" class="edge">
<title>Node24&#45;&gt;Node26</title>
<g id="a_edge33_Node000024_Node000026"><a xlink:title=" ">
<path fill="none" stroke="#63b8ff" d="M153.57,-155.64C161.16,-148.08 171.19,-137.54 179,-127.38 197.48,-103.31 193.29,-90.57 215,-69.38 215.88,-68.51 216.81,-67.67 217.77,-66.86"/>
<polygon fill="#63b8ff" stroke="#63b8ff" points="219.73,-69.76 225.8,-61.07 215.64,-64.08 219.73,-69.76"/>
</a>
</g>
</g>
<!-- Node28 -->
<g id="Node000028" class="node">
<title>Node28</title>
<g id="a_Node000028"><a xlink:href="app_8c.html#ae10979e670e507d4373e8cadcb3169aa" target="_top" xlink:title=" ">
<polygon fill="white" stroke="#666666" points="282,-20.75 218,-20.75 218,0 282,0 282,-20.75"/>
<text text-anchor="middle" x="250" y="-7.25" font-family="Helvetica,sans-Serif" font-size="10.00">quiet_nan</text>
</a>
</g>
</g>
<!-- Node27&#45;&gt;Node28 -->
<g id="edge38_Node000027_Node000028" class="edge">
<title>Node27&#45;&gt;Node28</title>
<g id="a_edge38_Node000027_Node000028"><a xlink:title=" ">
<path fill="none" stroke="#63b8ff" d="M179.37,-23.44C188.16,-21.79 197.62,-20.01 206.63,-18.32"/>
<polygon fill="#63b8ff" stroke="#63b8ff" points="207.07,-21.8 216.25,-16.52 205.78,-14.92 207.07,-21.8"/>
</a>
</g>
</g>
<!-- Node29&#45;&gt;Node28 -->
<g id="edge40_Node000029_Node000028" class="edge">
<title>Node29&#45;&gt;Node28</title>
<g id="a_edge40_Node000029_Node000028"><a xlink:title=" ">
<path fill="none" stroke="#63b8ff" d="M150.7,-97.61C163.39,-81.65 188.88,-51.34 215,-30.38 216.3,-29.33 217.66,-28.3 219.06,-27.3"/>
<polygon fill="#63b8ff" stroke="#63b8ff" points="220.86,-30.31 227.32,-21.91 217.03,-24.45 220.86,-30.31"/>
</a>
</g>
</g>
</g>
</svg>
