<?xml version="1.0" encoding="UTF-8" standalone="no"?>
<!DOCTYPE svg PUBLIC "-//W3C//DTD SVG 1.1//EN"
 "http://www.w3.org/Graphics/SVG/1.1/DTD/svg11.dtd">
<!-- Generated by graphviz version 12.2.1 (0)
 -->
<!-- Title: w2c__f399 Pages: 1 -->
<svg width="574pt" height="139pt"
 viewBox="0.00 0.00 574.25 139.13" xmlns="http://www.w3.org/2000/svg" xmlns:xlink="http://www.w3.org/1999/xlink">
<g id="graph0" class="graph" transform="scale(1 1) rotate(0) translate(4 135.13)">
<title>w2c__f399</title>
<!-- Node1 -->
<g id="Node000001" class="node">
<title>Node1</title>
<g id="a_Node000001"><a xlink:title=" ">
<polygon fill="#999999" stroke="#666666" points="566.25,-96.75 498.5,-96.75 498.5,-76 566.25,-76 566.25,-96.75"/>
<text text-anchor="middle" x="532.38" y="-83.25" font-family="Helvetica,sans-Serif" font-size="10.00">w2c__f399</text>
</a>
</g>
</g>
<!-- Node2 -->
<g id="Node000002" class="node">
<title>Node2</title>
<g id="a_Node000002"><a xlink:href="app_8c.html#aac449994afd8488e2efd16fb19f0ecb1" target="_top" xlink:title=" ">
<polygon fill="white" stroke="#666666" points="358.75,-96.75 291,-96.75 291,-76 358.75,-76 358.75,-96.75"/>
<text text-anchor="middle" x="324.88" y="-83.25" font-family="Helvetica,sans-Serif" font-size="10.00">w2c__f336</text>
</a>
</g>
</g>
<!-- Node1&#45;&gt;Node2 -->
<g id="edge1_Node000001_Node000002" class="edge">
<title>Node1&#45;&gt;Node2</title>
<g id="a_edge1_Node000001_Node000002"><a xlink:title=" ">
<path fill="none" stroke="#63b8ff" d="M508.18,-103.51C495.41,-111.88 478.86,-121.07 462.5,-125.38 433.38,-133.05 423.87,-133.05 394.75,-125.38 374.02,-119.91 352.98,-106.63 339.7,-97.08"/>
<polygon fill="#63b8ff" stroke="#63b8ff" points="510.04,-106.48 516.3,-97.94 506.07,-100.71 510.04,-106.48"/>
</a>
</g>
</g>
<!-- Node8 -->
<g id="Node000008" class="node">
<title>Node8</title>
<g id="a_Node000008"><a xlink:href="app_8c.html#acc85a0c7c0cd1e3346bbdc70d6e7faa5" target="_top" xlink:title=" ">
<polygon fill="white" stroke="#666666" points="462.5,-116.75 394.75,-116.75 394.75,-96 462.5,-96 462.5,-116.75"/>
<text text-anchor="middle" x="428.62" y="-103.25" font-family="Helvetica,sans-Serif" font-size="10.00">w2c__f358</text>
</a>
</g>
</g>
<!-- Node1&#45;&gt;Node8 -->
<g id="edge7_Node000001_Node000008" class="edge">
<title>Node1&#45;&gt;Node8</title>
<g id="a_edge7_Node000001_Node000008"><a xlink:title=" ">
<path fill="none" stroke="#63b8ff" d="M486.82,-95.13C478.71,-96.73 470.38,-98.37 462.67,-99.88"/>
<polygon fill="#63b8ff" stroke="#63b8ff" points="487.44,-98.58 496.57,-93.22 486.09,-91.71 487.44,-98.58"/>
</a>
</g>
</g>
<!-- Node9 -->
<g id="Node000009" class="node">
<title>Node9</title>
<g id="a_Node000009"><a xlink:href="app_8c.html#ad6fb5664ded0c43a2c403b885bad7b30" target="_top" xlink:title=" ">
<polygon fill="white" stroke="#666666" points="462.5,-77.75 394.75,-77.75 394.75,-57 462.5,-57 462.5,-77.75"/>
<text text-anchor="middle" x="428.62" y="-64.25" font-family="Helvetica,sans-Serif" font-size="10.00">w2c__f400</text>
</a>
</g>
</g>
<!-- Node1&#45;&gt;Node9 -->
<g id="edge9_Node000001_Node000009" class="edge">
<title>Node1&#45;&gt;Node9</title>
<g id="a_edge9_Node000001_Node000009"><a xlink:title=" ">
<path fill="none" stroke="#63b8ff" d="M486.82,-78.06C478.71,-76.54 470.38,-74.98 462.67,-73.55"/>
<polygon fill="#63b8ff" stroke="#63b8ff" points="486.1,-81.48 496.57,-79.88 487.38,-74.6 486.1,-81.48"/>
</a>
</g>
</g>
<!-- Node10 -->
<g id="Node000010" class="node">
<title>Node10</title>
<g id="a_Node000010"><a xlink:href="app_8c.html#a27ec3034e861eede96fabd221dec28d1" target="_top" xlink:title=" ">
<polygon fill="white" stroke="#666666" points="462.5,-20.75 394.75,-20.75 394.75,0 462.5,0 462.5,-20.75"/>
<text text-anchor="middle" x="428.62" y="-7.25" font-family="Helvetica,sans-Serif" font-size="10.00">w2c__f554</text>
</a>
</g>
</g>
<!-- Node1&#45;&gt;Node10 -->
<g id="edge11_Node000001_Node000010" class="edge">
<title>Node1&#45;&gt;Node10</title>
<g id="a_edge11_Node000001_Node000010"><a xlink:title=" ">
<path fill="none" stroke="#63b8ff" d="M508.26,-69.11C488.5,-54.35 460.69,-33.58 443.98,-21.1"/>
<polygon fill="#63b8ff" stroke="#63b8ff" points="505.91,-71.72 516.01,-74.9 510.1,-66.11 505.91,-71.72"/>
</a>
</g>
</g>
<!-- Node3 -->
<g id="Node000003" class="node">
<title>Node3</title>
<g id="a_Node000003"><a xlink:href="app_8c.html#ac863989691d4c389f80374209c220171" target="_top" xlink:title=" ">
<polygon fill="white" stroke="#666666" points="252.38,-116.75 189.88,-116.75 189.88,-96 252.38,-96 252.38,-116.75"/>
<text text-anchor="middle" x="221.12" y="-103.25" font-family="Helvetica,sans-Serif" font-size="10.00">w2c__c_0</text>
</a>
</g>
</g>
<!-- Node2&#45;&gt;Node3 -->
<g id="edge2_Node000002_Node000003" class="edge">
<title>Node2&#45;&gt;Node3</title>
<g id="a_edge2_Node000002_Node000003"><a xlink:title=" ">
<path fill="none" stroke="#63b8ff" d="M279.4,-95.12C270.41,-96.88 261.15,-98.7 252.76,-100.35"/>
<polygon fill="#63b8ff" stroke="#63b8ff" points="279.94,-98.58 289.07,-93.22 278.59,-91.71 279.94,-98.58"/>
</a>
</g>
</g>
<!-- Node5 -->
<g id="Node000005" class="node">
<title>Node5</title>
<g id="a_Node000005"><a xlink:href="app_8c.html#a8f312e54d76623b1ae169d5d19736ee0" target="_top" xlink:title=" ">
<polygon fill="white" stroke="#666666" points="255,-77.75 187.25,-77.75 187.25,-57 255,-57 255,-77.75"/>
<text text-anchor="middle" x="221.12" y="-64.25" font-family="Helvetica,sans-Serif" font-size="10.00">w2c__f363</text>
</a>
</g>
</g>
<!-- Node2&#45;&gt;Node5 -->
<g id="edge4_Node000002_Node000005" class="edge">
<title>Node2&#45;&gt;Node5</title>
<g id="a_edge4_Node000002_Node000005"><a xlink:title=" ">
<path fill="none" stroke="#63b8ff" d="M279.32,-78.06C271.21,-76.54 262.88,-74.98 255.17,-73.55"/>
<polygon fill="#63b8ff" stroke="#63b8ff" points="278.6,-81.48 289.07,-79.88 279.88,-74.6 278.6,-81.48"/>
</a>
</g>
</g>
<!-- Node4 -->
<g id="Node000004" class="node">
<title>Node4</title>
<g id="a_Node000004"><a xlink:href="app_8c.html#ab1e039392ea68017ab8a6063263b147d" target="_top" xlink:title=" ">
<polygon fill="white" stroke="#666666" points="145.25,-116.75 94,-116.75 94,-96 145.25,-96 145.25,-116.75"/>
<text text-anchor="middle" x="119.62" y="-103.25" font-family="Helvetica,sans-Serif" font-size="10.00">w2c__c</text>
</a>
</g>
</g>
<!-- Node3&#45;&gt;Node4 -->
<g id="edge3_Node000003_Node000004" class="edge">
<title>Node3&#45;&gt;Node4</title>
<g id="a_edge3_Node000003_Node000004"><a xlink:title=" ">
<path fill="none" stroke="#63b8ff" d="M178.21,-106.38C167.15,-106.38 155.55,-106.38 145.68,-106.38"/>
<polygon fill="#63b8ff" stroke="#63b8ff" points="177.95,-109.88 187.95,-106.38 177.95,-102.88 177.95,-109.88"/>
</a>
</g>
</g>
<!-- Node6 -->
<g id="Node000006" class="node">
<title>Node6</title>
<g id="a_Node000006"><a xlink:href="app_8c.html#a26657f10c51f10eeb57a4d27606a6885" target="_top" xlink:title=" ">
<polygon fill="white" stroke="#666666" points="151.25,-77.75 88,-77.75 88,-57 151.25,-57 151.25,-77.75"/>
<text text-anchor="middle" x="119.62" y="-64.25" font-family="Helvetica,sans-Serif" font-size="10.00">w2c__b_0</text>
</a>
</g>
</g>
<!-- Node5&#45;&gt;Node6 -->
<g id="edge5_Node000005_Node000006" class="edge">
<title>Node5&#45;&gt;Node6</title>
<g id="a_edge5_Node000005_Node000006"><a xlink:title=" ">
<path fill="none" stroke="#63b8ff" d="M175.71,-67.38C167.57,-67.38 159.23,-67.38 151.59,-67.38"/>
<polygon fill="#63b8ff" stroke="#63b8ff" points="175.48,-70.88 185.48,-67.38 175.48,-63.88 175.48,-70.88"/>
</a>
</g>
</g>
<!-- Node7 -->
<g id="Node000007" class="node">
<title>Node7</title>
<g id="a_Node000007"><a xlink:href="app_8c.html#a683a2045346c3209e9dac20d55933c7d" target="_top" xlink:title=" ">
<polygon fill="white" stroke="#666666" points="52,-77.75 0,-77.75 0,-57 52,-57 52,-77.75"/>
<text text-anchor="middle" x="26" y="-64.25" font-family="Helvetica,sans-Serif" font-size="10.00">w2c__b</text>
</a>
</g>
</g>
<!-- Node6&#45;&gt;Node7 -->
<g id="edge6_Node000006_Node000007" class="edge">
<title>Node6&#45;&gt;Node7</title>
<g id="a_edge6_Node000006_Node000007"><a xlink:title=" ">
<path fill="none" stroke="#63b8ff" d="M76.21,-67.38C68,-67.38 59.65,-67.38 52.21,-67.38"/>
<polygon fill="#63b8ff" stroke="#63b8ff" points="76.09,-70.88 86.09,-67.38 76.09,-63.88 76.09,-70.88"/>
</a>
</g>
</g>
<!-- Node8&#45;&gt;Node2 -->
<g id="edge8_Node000008_Node000002" class="edge">
<title>Node8&#45;&gt;Node2</title>
<g id="a_edge8_Node000008_Node000002"><a xlink:title=" ">
<path fill="none" stroke="#63b8ff" d="M383.07,-97.62C374.96,-96.02 366.63,-94.38 358.92,-92.87"/>
<polygon fill="#63b8ff" stroke="#63b8ff" points="382.34,-101.04 392.82,-99.53 383.69,-94.17 382.34,-101.04"/>
</a>
</g>
</g>
<!-- Node9&#45;&gt;Node2 -->
<g id="edge10_Node000009_Node000002" class="edge">
<title>Node9&#45;&gt;Node2</title>
<g id="a_edge10_Node000009_Node000002"><a xlink:title=" ">
<path fill="none" stroke="#63b8ff" d="M383.07,-75.69C374.96,-77.21 366.63,-78.77 358.92,-80.2"/>
<polygon fill="#63b8ff" stroke="#63b8ff" points="383.63,-79.15 392.82,-73.87 382.35,-72.27 383.63,-79.15"/>
</a>
</g>
</g>
<!-- Node10&#45;&gt;Node2 -->
<g id="edge12_Node000010_Node000002" class="edge">
<title>Node10&#45;&gt;Node2</title>
<g id="a_edge12_Node000010_Node000002"><a xlink:title=" ">
<path fill="none" stroke="#63b8ff" d="M404.51,-27.64C384.75,-42.4 356.94,-63.17 340.23,-75.65"/>
<polygon fill="#63b8ff" stroke="#63b8ff" points="406.35,-30.64 412.26,-21.85 402.16,-25.03 406.35,-30.64"/>
</a>
</g>
</g>
<!-- Node10&#45;&gt;Node10 -->
<g id="edge13_Node000010_Node000010" class="edge">
<title>Node10&#45;&gt;Node10</title>
<g id="a_edge13_Node000010_Node000010"><a xlink:title=" ">
<path fill="none" stroke="#63b8ff" d="M446.66,-32.56C444.11,-36.23 438.1,-38.75 428.62,-38.75 410.79,-38.75 405.22,-29.81 411.91,-21.15"/>
<polygon fill="#63b8ff" stroke="#63b8ff" points="450.14,-32.18 445.52,-22.65 443.19,-32.99 450.14,-32.18"/>
</a>
</g>
</g>
</g>
</svg>
