<?xml version="1.0" encoding="UTF-8" standalone="no"?>
<!DOCTYPE svg PUBLIC "-//W3C//DTD SVG 1.1//EN"
 "http://www.w3.org/Graphics/SVG/1.1/DTD/svg11.dtd">
<!-- Generated by graphviz version 12.2.1 (0)
 -->
<!-- Title: w2c_0_7 Pages: 1 -->
<svg width="455pt" height="107pt"
 viewBox="0.00 0.00 455.25 106.75" xmlns="http://www.w3.org/2000/svg" xmlns:xlink="http://www.w3.org/1999/xlink">
<g id="graph0" class="graph" transform="scale(1 1) rotate(0) translate(4 102.75)">
<title>w2c_0_7</title>
<!-- Node1 -->
<g id="Node000001" class="node">
<title>Node1</title>
<g id="a_Node000001"><a xlink:title=" ">
<polygon fill="#999999" stroke="#666666" points="447.25,-59.75 389.25,-59.75 389.25,-39 447.25,-39 447.25,-59.75"/>
<text text-anchor="middle" x="418.25" y="-46.25" font-family="Helvetica,sans-Serif" font-size="10.00">w2c_0_7</text>
</a>
</g>
</g>
<!-- Node2 -->
<g id="Node000002" class="node">
<title>Node2</title>
<g id="a_Node000002"><a xlink:href="app_8c.html#aceab5cda31b6aa6659b94aae079d60c2" target="_top" xlink:title=" ">
<polygon fill="white" stroke="#666666" points="343.5,-98.75 275.75,-98.75 275.75,-78 343.5,-78 343.5,-98.75"/>
<text text-anchor="middle" x="309.62" y="-85.25" font-family="Helvetica,sans-Serif" font-size="10.00">w2c__f456</text>
</a>
</g>
</g>
<!-- Node1&#45;&gt;Node2 -->
<g id="edge1_Node000001_Node000002" class="edge">
<title>Node1&#45;&gt;Node2</title>
<g id="a_edge1_Node000001_Node000002"><a xlink:title=" ">
<path fill="none" stroke="#63b8ff" d="M378.27,-63.63C365.69,-68.23 351.95,-73.26 340.17,-77.57"/>
<polygon fill="#63b8ff" stroke="#63b8ff" points="379.35,-66.97 387.53,-60.24 376.94,-60.39 379.35,-66.97"/>
</a>
</g>
</g>
<!-- Node5 -->
<g id="Node000005" class="node">
<title>Node5</title>
<g id="a_Node000005"><a xlink:href="app_8c.html#a16670c165bc2e48eba2f100b6b1e21c3" target="_top" xlink:title=" ">
<polygon fill="white" stroke="#666666" points="343.5,-59.75 275.75,-59.75 275.75,-39 343.5,-39 343.5,-59.75"/>
<text text-anchor="middle" x="309.62" y="-46.25" font-family="Helvetica,sans-Serif" font-size="10.00">w2c__f495</text>
</a>
</g>
</g>
<!-- Node1&#45;&gt;Node5 -->
<g id="edge4_Node000001_Node000005" class="edge">
<title>Node1&#45;&gt;Node5</title>
<g id="a_edge4_Node000001_Node000005"><a xlink:title=" ">
<path fill="none" stroke="#63b8ff" d="M377.78,-49.38C366.67,-49.38 354.69,-49.38 343.98,-49.38"/>
<polygon fill="#63b8ff" stroke="#63b8ff" points="377.44,-52.88 387.44,-49.38 377.44,-45.88 377.44,-52.88"/>
</a>
</g>
</g>
<!-- Node7 -->
<g id="Node000007" class="node">
<title>Node7</title>
<g id="a_Node000007"><a xlink:href="app_8c.html#abfbcb25f61ddd2534b3676e396996e52" target="_top" xlink:title=" ">
<polygon fill="white" stroke="#666666" points="353.25,-20.75 266,-20.75 266,0 353.25,0 353.25,-20.75"/>
<text text-anchor="middle" x="309.62" y="-7.25" font-family="Helvetica,sans-Serif" font-size="10.00">wrap_w2c_0_7</text>
</a>
</g>
</g>
<!-- Node1&#45;&gt;Node7 -->
<g id="edge7_Node000001_Node000007" class="edge">
<title>Node1&#45;&gt;Node7</title>
<g id="a_edge7_Node000001_Node000007"><a xlink:title=" ">
<path fill="none" stroke="#63b8ff" d="M378.27,-35.12C365.69,-30.52 351.95,-25.49 340.17,-21.18"/>
<polygon fill="#63b8ff" stroke="#63b8ff" points="376.94,-38.36 387.53,-38.51 379.35,-31.78 376.94,-38.36"/>
</a>
</g>
</g>
<!-- Node3 -->
<g id="Node000003" class="node">
<title>Node3</title>
<g id="a_Node000003"><a xlink:href="app_8c.html#ad1dbc2afe7918517df3fc54838f07298" target="_top" xlink:title=" ">
<polygon fill="white" stroke="#666666" points="215.38,-98.75 147.62,-98.75 147.62,-78 215.38,-78 215.38,-98.75"/>
<text text-anchor="middle" x="181.5" y="-85.25" font-family="Helvetica,sans-Serif" font-size="10.00">w2c__f520</text>
</a>
</g>
</g>
<!-- Node2&#45;&gt;Node3 -->
<g id="edge2_Node000002_Node000003" class="edge">
<title>Node2&#45;&gt;Node3</title>
<g id="a_edge2_Node000002_Node000003"><a xlink:title=" ">
<path fill="none" stroke="#63b8ff" d="M264.27,-88.38C248.35,-88.38 230.68,-88.38 215.85,-88.38"/>
<polygon fill="#63b8ff" stroke="#63b8ff" points="263.97,-91.88 273.97,-88.38 263.97,-84.88 263.97,-91.88"/>
</a>
</g>
</g>
<!-- Node4 -->
<g id="Node000004" class="node">
<title>Node4</title>
<g id="a_Node000004"><a xlink:href="app_8c.html#a130f07b726020d1add9a7ed5178e023a" target="_top" xlink:title=" ">
<polygon fill="white" stroke="#666666" points="97,-98.75 0,-98.75 0,-78 97,-78 97,-98.75"/>
<text text-anchor="middle" x="48.5" y="-85.25" font-family="Helvetica,sans-Serif" font-size="10.00">wrap_w2c__f520</text>
</a>
</g>
</g>
<!-- Node3&#45;&gt;Node4 -->
<g id="edge3_Node000003_Node000004" class="edge">
<title>Node3&#45;&gt;Node4</title>
<g id="a_edge3_Node000003_Node000004"><a xlink:title=" ">
<path fill="none" stroke="#63b8ff" d="M135.95,-88.38C123.53,-88.38 110,-88.38 97.4,-88.38"/>
<polygon fill="#63b8ff" stroke="#63b8ff" points="135.93,-91.88 145.93,-88.38 135.93,-84.88 135.93,-91.88"/>
</a>
</g>
</g>
<!-- Node5&#45;&gt;Node3 -->
<g id="edge5_Node000005_Node000003" class="edge">
<title>Node5&#45;&gt;Node3</title>
<g id="a_edge5_Node000005_Node000003"><a xlink:title=" ">
<path fill="none" stroke="#63b8ff" d="M264.73,-62.95C248.69,-67.91 230.83,-73.43 215.85,-78.06"/>
<polygon fill="#63b8ff" stroke="#63b8ff" points="265.52,-66.37 274.04,-60.07 263.45,-59.68 265.52,-66.37"/>
</a>
</g>
</g>
<!-- Node6 -->
<g id="Node000006" class="node">
<title>Node6</title>
<g id="a_Node000006"><a xlink:href="app_8c.html#adc0b425fa65493482058a086393089b5" target="_top" xlink:title=" ">
<polygon fill="white" stroke="#666666" points="230,-59.75 133,-59.75 133,-39 230,-39 230,-59.75"/>
<text text-anchor="middle" x="181.5" y="-46.25" font-family="Helvetica,sans-Serif" font-size="10.00">wrap_w2c__f495</text>
</a>
</g>
</g>
<!-- Node5&#45;&gt;Node6 -->
<g id="edge6_Node000005_Node000006" class="edge">
<title>Node5&#45;&gt;Node6</title>
<g id="a_edge6_Node000005_Node000006"><a xlink:title=" ">
<path fill="none" stroke="#63b8ff" d="M263.98,-49.38C253.01,-49.38 241.22,-49.38 230.12,-49.38"/>
<polygon fill="#63b8ff" stroke="#63b8ff" points="263.97,-52.88 273.97,-49.38 263.97,-45.88 263.97,-52.88"/>
</a>
</g>
</g>
</g>
</svg>
