<?xml version="1.0" encoding="UTF-8" standalone="no"?>
<!DOCTYPE svg PUBLIC "-//W3C//DTD SVG 1.1//EN"
 "http://www.w3.org/Graphics/SVG/1.1/DTD/svg11.dtd">
<!-- Generated by graphviz version 12.2.1 (0)
 -->
<!-- Title: w2c__f566 Pages: 1 -->
<svg width="491pt" height="310pt"
 viewBox="0.00 0.00 490.75 310.14" xmlns="http://www.w3.org/2000/svg" xmlns:xlink="http://www.w3.org/1999/xlink">
<g id="graph0" class="graph" transform="scale(1 1) rotate(0) translate(4 306.14)">
<title>w2c__f566</title>
<!-- Node1 -->
<g id="Node000001" class="node">
<title>Node1</title>
<g id="a_Node000001"><a xlink:title=" ">
<polygon fill="#999999" stroke="#666666" points="67.75,-163.75 0,-163.75 0,-143 67.75,-143 67.75,-163.75"/>
<text text-anchor="middle" x="33.88" y="-150.25" font-family="Helvetica,sans-Serif" font-size="10.00">w2c__f566</text>
</a>
</g>
</g>
<!-- Node2 -->
<g id="Node000002" class="node">
<title>Node2</title>
<g id="a_Node000002"><a xlink:href="app_8c.html#ac17a7b0911ba167adf3030099c144169" target="_top" xlink:title=" ">
<polygon fill="white" stroke="#666666" points="171.5,-163.75 103.75,-163.75 103.75,-143 171.5,-143 171.5,-163.75"/>
<text text-anchor="middle" x="137.62" y="-150.25" font-family="Helvetica,sans-Serif" font-size="10.00">w2c__f321</text>
</a>
</g>
</g>
<!-- Node1&#45;&gt;Node2 -->
<g id="edge1_Node000001_Node000002" class="edge">
<title>Node1&#45;&gt;Node2</title>
<g id="a_edge1_Node000001_Node000002"><a xlink:title=" ">
<path fill="none" stroke="#63b8ff" d="M68.19,-147C75.82,-146.66 84.06,-146.55 92.08,-146.67"/>
<polygon fill="#63b8ff" stroke="#63b8ff" points="91.97,-150.17 102.07,-146.96 92.17,-143.17 91.97,-150.17"/>
</a>
</g>
</g>
<!-- Node4 -->
<g id="Node000004" class="node">
<title>Node4</title>
<g id="a_Node000004"><a xlink:href="app_8c.html#ab78a9ba6819f5a9d3b53302097151d33" target="_top" xlink:title=" ">
<polygon fill="white" stroke="#666666" points="482.75,-184.75 415,-184.75 415,-164 482.75,-164 482.75,-184.75"/>
<text text-anchor="middle" x="448.88" y="-171.25" font-family="Helvetica,sans-Serif" font-size="10.00">w2c__f481</text>
</a>
</g>
</g>
<!-- Node1&#45;&gt;Node4 -->
<g id="edge21_Node000001_Node000004" class="edge">
<title>Node1&#45;&gt;Node4</title>
<g id="a_edge21_Node000001_Node000004"><a xlink:title=" ">
<path fill="none" stroke="#63b8ff" d="M39.52,-164.07C48.85,-184.38 71.75,-228.8 103.75,-254.38 142.48,-285.33 158.79,-286.1 207.5,-295.38 284.39,-310.02 315.17,-300.66 379,-255.38 402.28,-238.86 422.57,-212.74 434.98,-194.64"/>
<polygon fill="#63b8ff" stroke="#63b8ff" points="437.9,-196.58 440.51,-186.31 432.07,-192.71 437.9,-196.58"/>
</a>
</g>
</g>
<!-- Node5 -->
<g id="Node000005" class="node">
<title>Node5</title>
<g id="a_Node000005"><a xlink:href="app_8c.html#a710a90b53ca9da85f7059545f9c0c53f" target="_top" xlink:title=" ">
<polygon fill="white" stroke="#666666" points="379,-222.75 311.25,-222.75 311.25,-202 379,-202 379,-222.75"/>
<text text-anchor="middle" x="345.12" y="-209.25" font-family="Helvetica,sans-Serif" font-size="10.00">w2c__f527</text>
</a>
</g>
</g>
<!-- Node1&#45;&gt;Node5 -->
<g id="edge23_Node000001_Node000005" class="edge">
<title>Node1&#45;&gt;Node5</title>
<g id="a_edge23_Node000001_Node000005"><a xlink:title=" ">
<path fill="none" stroke="#63b8ff" d="M44.84,-164.17C69.43,-189.9 136.2,-254.42 207.5,-277.38 236.16,-286.6 247.27,-288.49 275.25,-277.38 298.15,-268.27 317.85,-247.55 330.24,-231.93"/>
<polygon fill="#63b8ff" stroke="#63b8ff" points="332.83,-234.31 336.06,-224.22 327.24,-230.09 332.83,-234.31"/>
</a>
</g>
</g>
<!-- Node9 -->
<g id="Node000009" class="node">
<title>Node9</title>
<g id="a_Node000009"><a xlink:href="app_8c.html#a674f6e81761467d0a8dc6d2a425eda9f" target="_top" xlink:title=" ">
<polygon fill="white" stroke="#666666" points="275.25,-20.75 207.5,-20.75 207.5,0 275.25,0 275.25,-20.75"/>
<text text-anchor="middle" x="241.38" y="-7.25" font-family="Helvetica,sans-Serif" font-size="10.00">w2c__f498</text>
</a>
</g>
</g>
<!-- Node1&#45;&gt;Node9 -->
<g id="edge22_Node000001_Node000009" class="edge">
<title>Node1&#45;&gt;Node9</title>
<g id="a_edge22_Node000001_Node000009"><a xlink:title=" ">
<path fill="none" stroke="#63b8ff" d="M50.32,-142.63C85.65,-118.04 172.62,-57.53 215.56,-27.64"/>
<polygon fill="#63b8ff" stroke="#63b8ff" points="217.3,-30.7 223.51,-22.11 213.3,-24.95 217.3,-30.7"/>
</a>
</g>
</g>
<!-- Node2&#45;&gt;Node1 -->
<g id="edge20_Node000002_Node000001" class="edge">
<title>Node2&#45;&gt;Node1</title>
<g id="a_edge20_Node000002_Node000001"><a xlink:title=" ">
<path fill="none" stroke="#63b8ff" d="M103.58,-159.74C95.87,-160.09 87.54,-160.2 79.43,-160.08"/>
<polygon fill="#63b8ff" stroke="#63b8ff" points="79.8,-156.59 69.7,-159.8 79.6,-163.58 79.8,-156.59"/>
</a>
</g>
</g>
<!-- Node2&#45;&gt;Node2 -->
<g id="edge10_Node000002_Node000002" class="edge">
<title>Node2&#45;&gt;Node2</title>
<g id="a_edge10_Node000002_Node000002"><a xlink:title=" ">
<path fill="none" stroke="#63b8ff" d="M120.91,-164.15C114.22,-172.81 119.79,-181.75 137.62,-181.75 147.1,-181.75 153.11,-179.23 155.66,-175.56"/>
<polygon fill="#63b8ff" stroke="#63b8ff" points="159.14,-175.18 154.52,-165.65 152.19,-175.99 159.14,-175.18"/>
</a>
</g>
</g>
<!-- Node3 -->
<g id="Node000003" class="node">
<title>Node3</title>
<g id="a_Node000003"><a xlink:href="app_8c.html#adac013373adadecb7663728bdf2ad0d6" target="_top" xlink:title=" ">
<polygon fill="white" stroke="#666666" points="275.25,-135.75 207.5,-135.75 207.5,-115 275.25,-115 275.25,-135.75"/>
<text text-anchor="middle" x="241.38" y="-122.25" font-family="Helvetica,sans-Serif" font-size="10.00">w2c__f290</text>
</a>
</g>
</g>
<!-- Node2&#45;&gt;Node3 -->
<g id="edge2_Node000002_Node000003" class="edge">
<title>Node2&#45;&gt;Node3</title>
<g id="a_edge2_Node000002_Node000003"><a xlink:title=" ">
<path fill="none" stroke="#63b8ff" d="M171.94,-144.21C179.75,-142.06 188.19,-139.74 196.39,-137.48"/>
<polygon fill="#63b8ff" stroke="#63b8ff" points="197.16,-140.9 205.87,-134.87 195.3,-134.15 197.16,-140.9"/>
</a>
</g>
</g>
<!-- Node2&#45;&gt;Node4 -->
<g id="edge17_Node000002_Node000004" class="edge">
<title>Node2&#45;&gt;Node4</title>
<g id="a_edge17_Node000002_Node000004"><a xlink:title=" ">
<path fill="none" stroke="#63b8ff" d="M143.32,-142.62C152.44,-123.28 174.57,-83.19 207.5,-67.38 234.64,-54.34 245.65,-61.87 275.25,-67.38 323.84,-76.42 337.39,-80.72 379,-107.38 399.71,-120.64 419.4,-140.84 432.39,-155.6"/>
<polygon fill="#63b8ff" stroke="#63b8ff" points="429.41,-157.5 438.57,-162.82 434.72,-152.94 429.41,-157.5"/>
</a>
</g>
</g>
<!-- Node2&#45;&gt;Node5 -->
<g id="edge19_Node000002_Node000005" class="edge">
<title>Node2&#45;&gt;Node5</title>
<g id="a_edge19_Node000002_Node000005"><a xlink:title=" ">
<path fill="none" stroke="#63b8ff" d="M149.73,-163.97C162.53,-175.45 184.73,-193.2 207.5,-201.38 237,-211.96 272.3,-214.56 299.63,-214.6"/>
<polygon fill="#63b8ff" stroke="#63b8ff" points="299.34,-218.1 309.3,-214.49 299.26,-211.1 299.34,-218.1"/>
</a>
</g>
</g>
<!-- Node6 -->
<g id="Node000006" class="node">
<title>Node6</title>
<g id="a_Node000006"><a xlink:href="app_8c.html#a954582e69602ef9daaec39d80aad1fe3" target="_top" xlink:title=" ">
<polygon fill="white" stroke="#666666" points="275.25,-268.75 207.5,-268.75 207.5,-248 275.25,-248 275.25,-268.75"/>
<text text-anchor="middle" x="241.38" y="-255.25" font-family="Helvetica,sans-Serif" font-size="10.00">w2c__f299</text>
</a>
</g>
</g>
<!-- Node2&#45;&gt;Node6 -->
<g id="edge7_Node000002_Node000006" class="edge">
<title>Node2&#45;&gt;Node6</title>
<g id="a_edge7_Node000002_Node000006"><a xlink:title=" ">
<path fill="none" stroke="#63b8ff" d="M146.39,-164.04C158.46,-180.22 182.88,-211.52 207.5,-234.38 209.88,-236.58 212.46,-238.77 215.1,-240.88"/>
<polygon fill="#63b8ff" stroke="#63b8ff" points="212.76,-243.5 222.85,-246.71 216.97,-237.9 212.76,-243.5"/>
</a>
</g>
</g>
<!-- Node7 -->
<g id="Node000007" class="node">
<title>Node7</title>
<g id="a_Node000007"><a xlink:href="app_8c.html#ad46ee8455023db930456c594f733bd66" target="_top" xlink:title=" ">
<polygon fill="white" stroke="#666666" points="275.25,-192.75 207.5,-192.75 207.5,-172 275.25,-172 275.25,-192.75"/>
<text text-anchor="middle" x="241.38" y="-179.25" font-family="Helvetica,sans-Serif" font-size="10.00">w2c__f406</text>
</a>
</g>
</g>
<!-- Node2&#45;&gt;Node7 -->
<g id="edge11_Node000002_Node000007" class="edge">
<title>Node2&#45;&gt;Node7</title>
<g id="a_edge11_Node000002_Node000007"><a xlink:title=" ">
<path fill="none" stroke="#63b8ff" d="M171.94,-162.87C179.75,-165.1 188.19,-167.5 196.39,-169.84"/>
<polygon fill="#63b8ff" stroke="#63b8ff" points="195.3,-173.17 205.88,-172.54 197.22,-166.44 195.3,-173.17"/>
</a>
</g>
</g>
<!-- Node8 -->
<g id="Node000008" class="node">
<title>Node8</title>
<g id="a_Node000008"><a xlink:href="app_8c.html#a10d137688bad44b259e5f3c4540da228" target="_top" xlink:title=" ">
<polygon fill="white" stroke="#666666" points="275.25,-96.75 207.5,-96.75 207.5,-76 275.25,-76 275.25,-96.75"/>
<text text-anchor="middle" x="241.38" y="-83.25" font-family="Helvetica,sans-Serif" font-size="10.00">w2c__f468</text>
</a>
</g>
</g>
<!-- Node2&#45;&gt;Node8 -->
<g id="edge14_Node000002_Node000008" class="edge">
<title>Node2&#45;&gt;Node8</title>
<g id="a_edge14_Node000002_Node000008"><a xlink:title=" ">
<path fill="none" stroke="#63b8ff" d="M154.06,-142.5C167.92,-132.82 188.89,-118.38 207.5,-106.38 209.12,-105.33 210.8,-104.27 212.49,-103.2"/>
<polygon fill="#63b8ff" stroke="#63b8ff" points="214.23,-106.24 220.9,-98.01 210.55,-100.29 214.23,-106.24"/>
</a>
</g>
</g>
<!-- Node2&#45;&gt;Node9 -->
<g id="edge18_Node000002_Node000009" class="edge">
<title>Node2&#45;&gt;Node9</title>
<g id="a_edge18_Node000002_Node000009"><a xlink:title=" ">
<path fill="none" stroke="#63b8ff" d="M144.54,-142.58C159.69,-115 199.28,-43.52 207.5,-34.38 209.44,-32.21 211.61,-30.13 213.88,-28.15"/>
<polygon fill="#63b8ff" stroke="#63b8ff" points="215.97,-30.96 221.69,-22.04 211.65,-25.45 215.97,-30.96"/>
</a>
</g>
</g>
<!-- Node3&#45;&gt;Node3 -->
<g id="edge3_Node000003_Node000003" class="edge">
<title>Node3&#45;&gt;Node3</title>
<g id="a_edge3_Node000003_Node000003"><a xlink:title=" ">
<path fill="none" stroke="#63b8ff" d="M224.66,-136.15C217.97,-144.81 223.54,-153.75 241.38,-153.75 250.85,-153.75 256.86,-151.23 259.41,-147.56"/>
<polygon fill="#63b8ff" stroke="#63b8ff" points="262.89,-147.18 258.27,-137.65 255.94,-147.99 262.89,-147.18"/>
</a>
</g>
</g>
<!-- Node3&#45;&gt;Node4 -->
<g id="edge4_Node000003_Node000004" class="edge">
<title>Node3&#45;&gt;Node4</title>
<g id="a_edge4_Node000003_Node000004"><a xlink:title=" ">
<path fill="none" stroke="#63b8ff" d="M275.39,-133.25C310.19,-141.55 365.2,-154.66 403.71,-163.84"/>
<polygon fill="#63b8ff" stroke="#63b8ff" points="402.59,-167.17 413.13,-166.09 404.21,-160.37 402.59,-167.17"/>
</a>
</g>
</g>
<!-- Node3&#45;&gt;Node5 -->
<g id="edge5_Node000003_Node000005" class="edge">
<title>Node3&#45;&gt;Node5</title>
<g id="a_edge5_Node000003_Node000005"><a xlink:title=" ">
<path fill="none" stroke="#63b8ff" d="M254.85,-136.04C271.79,-150.52 302.29,-176.61 322.87,-194.2"/>
<polygon fill="#63b8ff" stroke="#63b8ff" points="320.52,-196.8 330.4,-200.64 325.07,-191.48 320.52,-196.8"/>
</a>
</g>
</g>
<!-- Node5&#45;&gt;Node4 -->
<g id="edge6_Node000005_Node000004" class="edge">
<title>Node5&#45;&gt;Node4</title>
<g id="a_edge6_Node000005_Node000004"><a xlink:title=" ">
<path fill="none" stroke="#63b8ff" d="M375.01,-201.59C385.32,-197.74 397.13,-193.33 408.19,-189.2"/>
<polygon fill="#63b8ff" stroke="#63b8ff" points="409.36,-192.5 417.5,-185.72 406.91,-185.94 409.36,-192.5"/>
</a>
</g>
</g>
<!-- Node6&#45;&gt;Node4 -->
<g id="edge8_Node000006_Node000004" class="edge">
<title>Node6&#45;&gt;Node4</title>
<g id="a_edge8_Node000006_Node000004"><a xlink:title=" ">
<path fill="none" stroke="#63b8ff" d="M275.54,-256.4C304.14,-253.66 345.91,-247.08 379,-231.38 398.6,-222.07 417.32,-205.94 430.29,-193.21"/>
<polygon fill="#63b8ff" stroke="#63b8ff" points="432.72,-195.73 437.22,-186.14 427.72,-190.83 432.72,-195.73"/>
</a>
</g>
</g>
<!-- Node6&#45;&gt;Node5 -->
<g id="edge9_Node000006_Node000005" class="edge">
<title>Node6&#45;&gt;Node5</title>
<g id="a_edge9_Node000006_Node000005"><a xlink:title=" ">
<path fill="none" stroke="#63b8ff" d="M266.23,-247.59C279.37,-241.65 295.9,-234.18 310.35,-227.65"/>
<polygon fill="#63b8ff" stroke="#63b8ff" points="311.37,-231.02 319.04,-223.72 308.49,-224.65 311.37,-231.02"/>
</a>
</g>
</g>
<!-- Node7&#45;&gt;Node4 -->
<g id="edge12_Node000007_Node000004" class="edge">
<title>Node7&#45;&gt;Node4</title>
<g id="a_edge12_Node000007_Node000004"><a xlink:title=" ">
<path fill="none" stroke="#63b8ff" d="M275.39,-181.09C310.04,-179.74 364.73,-177.61 403.21,-176.11"/>
<polygon fill="#63b8ff" stroke="#63b8ff" points="403.23,-179.62 413.09,-175.73 402.96,-172.62 403.23,-179.62"/>
</a>
</g>
</g>
<!-- Node7&#45;&gt;Node5 -->
<g id="edge13_Node000007_Node000005" class="edge">
<title>Node7&#45;&gt;Node5</title>
<g id="a_edge13_Node000007_Node000005"><a xlink:title=" ">
<path fill="none" stroke="#63b8ff" d="M275.69,-192.2C283.5,-194.5 291.94,-196.99 300.14,-199.41"/>
<polygon fill="#63b8ff" stroke="#63b8ff" points="299.05,-202.73 309.63,-202.2 301.03,-196.02 299.05,-202.73"/>
</a>
</g>
</g>
<!-- Node8&#45;&gt;Node4 -->
<g id="edge15_Node000008_Node000004" class="edge">
<title>Node8&#45;&gt;Node4</title>
<g id="a_edge15_Node000008_Node000004"><a xlink:title=" ">
<path fill="none" stroke="#63b8ff" d="M274,-97.22C301.98,-107.09 343.7,-122.5 379,-138.38 392.23,-144.32 406.49,-151.63 418.59,-158.09"/>
<polygon fill="#63b8ff" stroke="#63b8ff" points="416.79,-161.1 427.25,-162.79 420.13,-154.95 416.79,-161.1"/>
</a>
</g>
</g>
<!-- Node8&#45;&gt;Node5 -->
<g id="edge16_Node000008_Node000005" class="edge">
<title>Node8&#45;&gt;Node5</title>
<g id="a_edge16_Node000008_Node000005"><a xlink:title=" ">
<path fill="none" stroke="#63b8ff" d="M263.22,-97.11C267.46,-99.81 271.7,-102.93 275.25,-106.38 301.25,-131.61 322.36,-168.39 334.08,-191.32"/>
<polygon fill="#63b8ff" stroke="#63b8ff" points="330.94,-192.87 338.51,-200.28 337.21,-189.77 330.94,-192.87"/>
</a>
</g>
</g>
</g>
</svg>
