<?xml version="1.0" encoding="UTF-8" standalone="no"?>
<!DOCTYPE svg PUBLIC "-//W3C//DTD SVG 1.1//EN"
 "http://www.w3.org/Graphics/SVG/1.1/DTD/svg11.dtd">
<!-- Generated by graphviz version 12.2.1 (0)
 -->
<!-- Title: w2c__f310 Pages: 1 -->
<svg width="520pt" height="123pt"
 viewBox="0.00 0.00 520.00 123.40" xmlns="http://www.w3.org/2000/svg" xmlns:xlink="http://www.w3.org/1999/xlink">
<g id="graph0" class="graph" transform="scale(1 1) rotate(0) translate(4 119.4)">
<title>w2c__f310</title>
<!-- Node1 -->
<g id="Node000001" class="node">
<title>Node1</title>
<g id="a_Node000001"><a xlink:title=" ">
<polygon fill="#999999" stroke="#666666" points="512,-77.75 444.25,-77.75 444.25,-57 512,-57 512,-77.75"/>
<text text-anchor="middle" x="478.12" y="-64.25" font-family="Helvetica,sans-Serif" font-size="10.00">w2c__f310</text>
</a>
</g>
</g>
<!-- Node2 -->
<g id="Node000002" class="node">
<title>Node2</title>
<g id="a_Node000002"><a xlink:href="app_8c.html#a7dc7d70793bae217b64eab580fce99cb" target="_top" xlink:title=" ">
<polygon fill="white" stroke="#666666" points="200.75,-105.75 133,-105.75 133,-85 200.75,-85 200.75,-105.75"/>
<text text-anchor="middle" x="166.88" y="-92.25" font-family="Helvetica,sans-Serif" font-size="10.00">w2c__f215</text>
</a>
</g>
</g>
<!-- Node1&#45;&gt;Node2 -->
<g id="edge1_Node000001_Node000002" class="edge">
<title>Node1&#45;&gt;Node2</title>
<g id="a_edge1_Node000001_Node000002"><a xlink:title=" ">
<path fill="none" stroke="#63b8ff" d="M453.38,-84.39C440.65,-92.46 424.32,-101.24 408.25,-105.38 336.25,-123.92 248.17,-111.84 201.17,-102.76"/>
<polygon fill="#63b8ff" stroke="#63b8ff" points="455.09,-87.46 461.48,-79.01 451.21,-81.63 455.09,-87.46"/>
</a>
</g>
</g>
<!-- Node4 -->
<g id="Node000004" class="node">
<title>Node4</title>
<g id="a_Node000004"><a xlink:href="app_8c.html#abd18007c72da8f8fc079e9cdba2cef93" target="_top" xlink:title=" ">
<polygon fill="white" stroke="#666666" points="408.25,-96.75 340.5,-96.75 340.5,-76 408.25,-76 408.25,-96.75"/>
<text text-anchor="middle" x="374.38" y="-83.25" font-family="Helvetica,sans-Serif" font-size="10.00">w2c__f252</text>
</a>
</g>
</g>
<!-- Node1&#45;&gt;Node4 -->
<g id="edge3_Node000001_Node000004" class="edge">
<title>Node1&#45;&gt;Node4</title>
<g id="a_edge3_Node000001_Node000004"><a xlink:title=" ">
<path fill="none" stroke="#63b8ff" d="M432.57,-75.69C424.46,-77.21 416.13,-78.77 408.42,-80.2"/>
<polygon fill="#63b8ff" stroke="#63b8ff" points="433.13,-79.15 442.32,-73.87 431.85,-72.27 433.13,-79.15"/>
</a>
</g>
</g>
<!-- Node6 -->
<g id="Node000006" class="node">
<title>Node6</title>
<g id="a_Node000006"><a xlink:href="app_8c.html#a86ae468e235684021eadfdacd5cb9dba" target="_top" xlink:title=" ">
<polygon fill="white" stroke="#666666" points="200.75,-48.75 133,-48.75 133,-28 200.75,-28 200.75,-48.75"/>
<text text-anchor="middle" x="166.88" y="-35.25" font-family="Helvetica,sans-Serif" font-size="10.00">w2c__f452</text>
</a>
</g>
</g>
<!-- Node1&#45;&gt;Node6 -->
<g id="edge6_Node000001_Node000006" class="edge">
<title>Node1&#45;&gt;Node6</title>
<g id="a_edge6_Node000001_Node000006"><a xlink:title=" ">
<path fill="none" stroke="#63b8ff" d="M432.96,-63.23C370.36,-57.36 257.24,-46.76 201.2,-41.5"/>
<polygon fill="#63b8ff" stroke="#63b8ff" points="432.24,-66.68 442.52,-64.13 432.89,-59.71 432.24,-66.68"/>
</a>
</g>
</g>
<!-- Node8 -->
<g id="Node000008" class="node">
<title>Node8</title>
<g id="a_Node000008"><a xlink:href="app_8c.html#a1e1380e4c537909f6add6fd427bdd8dc" target="_top" xlink:title=" ">
<polygon fill="white" stroke="#666666" points="408.25,-20.75 340.5,-20.75 340.5,0 408.25,0 408.25,-20.75"/>
<text text-anchor="middle" x="374.38" y="-7.25" font-family="Helvetica,sans-Serif" font-size="10.00">w2c__f492</text>
</a>
</g>
</g>
<!-- Node1&#45;&gt;Node8 -->
<g id="edge8_Node000001_Node000008" class="edge">
<title>Node1&#45;&gt;Node8</title>
<g id="a_edge8_Node000001_Node000008"><a xlink:title=" ">
<path fill="none" stroke="#63b8ff" d="M447.97,-51.04C430.9,-41.48 409.81,-29.67 394.77,-21.24"/>
<polygon fill="#63b8ff" stroke="#63b8ff" points="446.23,-54.08 456.67,-55.91 449.65,-47.97 446.23,-54.08"/>
</a>
</g>
</g>
<!-- Node3 -->
<g id="Node000003" class="node">
<title>Node3</title>
<g id="a_Node000003"><a xlink:href="app_8c.html#a7f65ba02075f2865f478747946b07c94" target="_top" xlink:title=" ">
<polygon fill="white" stroke="#666666" points="97,-105.75 0,-105.75 0,-85 97,-85 97,-105.75"/>
<text text-anchor="middle" x="48.5" y="-92.25" font-family="Helvetica,sans-Serif" font-size="10.00">wrap_w2c__f215</text>
</a>
</g>
</g>
<!-- Node2&#45;&gt;Node3 -->
<g id="edge2_Node000002_Node000003" class="edge">
<title>Node2&#45;&gt;Node3</title>
<g id="a_edge2_Node000002_Node000003"><a xlink:title=" ">
<path fill="none" stroke="#63b8ff" d="M121.28,-95.38C113.39,-95.38 105.14,-95.38 97.16,-95.38"/>
<polygon fill="#63b8ff" stroke="#63b8ff" points="121.01,-98.88 131.01,-95.38 121.01,-91.88 121.01,-98.88"/>
</a>
</g>
</g>
<!-- Node5 -->
<g id="Node000005" class="node">
<title>Node5</title>
<g id="a_Node000005"><a xlink:href="app_8c.html#a512669319fec7c2cbf61fd668bc650c9" target="_top" xlink:title=" ">
<polygon fill="white" stroke="#666666" points="304.5,-96.75 236.75,-96.75 236.75,-76 304.5,-76 304.5,-96.75"/>
<text text-anchor="middle" x="270.62" y="-83.25" font-family="Helvetica,sans-Serif" font-size="10.00">w2c__f343</text>
</a>
</g>
</g>
<!-- Node4&#45;&gt;Node5 -->
<g id="edge4_Node000004_Node000005" class="edge">
<title>Node4&#45;&gt;Node5</title>
<g id="a_edge4_Node000004_Node000005"><a xlink:title=" ">
<path fill="none" stroke="#63b8ff" d="M328.82,-86.38C320.71,-86.38 312.38,-86.38 304.67,-86.38"/>
<polygon fill="#63b8ff" stroke="#63b8ff" points="328.54,-89.88 338.54,-86.38 328.54,-82.88 328.54,-89.88"/>
</a>
</g>
</g>
<!-- Node5&#45;&gt;Node2 -->
<g id="edge5_Node000005_Node000002" class="edge">
<title>Node5&#45;&gt;Node2</title>
<g id="a_edge5_Node000005_Node000002"><a xlink:title=" ">
<path fill="none" stroke="#63b8ff" d="M225.07,-90.32C216.96,-91.03 208.63,-91.77 200.92,-92.45"/>
<polygon fill="#63b8ff" stroke="#63b8ff" points="225.15,-93.82 234.8,-89.46 224.53,-86.85 225.15,-93.82"/>
</a>
</g>
</g>
<!-- Node7 -->
<g id="Node000007" class="node">
<title>Node7</title>
<g id="a_Node000007"><a xlink:href="app_8c.html#a57ca4f801147f9325a0ea7cc2d7192c5" target="_top" xlink:title=" ">
<polygon fill="white" stroke="#666666" points="97,-48.75 0,-48.75 0,-28 97,-28 97,-48.75"/>
<text text-anchor="middle" x="48.5" y="-35.25" font-family="Helvetica,sans-Serif" font-size="10.00">wrap_w2c__f452</text>
</a>
</g>
</g>
<!-- Node6&#45;&gt;Node7 -->
<g id="edge7_Node000006_Node000007" class="edge">
<title>Node6&#45;&gt;Node7</title>
<g id="a_edge7_Node000006_Node000007"><a xlink:title=" ">
<path fill="none" stroke="#63b8ff" d="M121.28,-38.38C113.39,-38.38 105.14,-38.38 97.16,-38.38"/>
<polygon fill="#63b8ff" stroke="#63b8ff" points="121.01,-41.88 131.01,-38.38 121.01,-34.88 121.01,-41.88"/>
</a>
</g>
</g>
<!-- Node9 -->
<g id="Node000009" class="node">
<title>Node9</title>
<g id="a_Node000009"><a xlink:href="app_8c.html#a6c30f2996216fe44cdda84ff266f8b19" target="_top" xlink:title=" ">
<polygon fill="white" stroke="#666666" points="304.5,-20.75 236.75,-20.75 236.75,0 304.5,0 304.5,-20.75"/>
<text text-anchor="middle" x="270.62" y="-7.25" font-family="Helvetica,sans-Serif" font-size="10.00">w2c__f362</text>
</a>
</g>
</g>
<!-- Node8&#45;&gt;Node9 -->
<g id="edge9_Node000008_Node000009" class="edge">
<title>Node8&#45;&gt;Node9</title>
<g id="a_edge9_Node000008_Node000009"><a xlink:title=" ">
<path fill="none" stroke="#63b8ff" d="M328.82,-10.38C320.71,-10.38 312.38,-10.38 304.67,-10.38"/>
<polygon fill="#63b8ff" stroke="#63b8ff" points="328.54,-13.88 338.54,-10.38 328.54,-6.88 328.54,-13.88"/>
</a>
</g>
</g>
<!-- Node9&#45;&gt;Node6 -->
<g id="edge10_Node000009_Node000006" class="edge">
<title>Node9&#45;&gt;Node6</title>
<g id="a_edge10_Node000009_Node000006"><a xlink:title=" ">
<path fill="none" stroke="#63b8ff" d="M225.35,-22.56C217.15,-24.82 208.71,-27.14 200.92,-29.28"/>
<polygon fill="#63b8ff" stroke="#63b8ff" points="226.14,-25.97 234.85,-19.94 224.28,-19.22 226.14,-25.97"/>
</a>
</g>
</g>
</g>
</svg>
