<?xml version="1.0" encoding="UTF-8" standalone="no"?>
<!DOCTYPE svg PUBLIC "-//W3C//DTD SVG 1.1//EN"
 "http://www.w3.org/Graphics/SVG/1.1/DTD/svg11.dtd">
<!-- Generated by graphviz version 12.2.1 (0)
 -->
<!-- Title: wrap_w2c__f530 Pages: 1 -->
<svg width="521pt" height="68pt"
 viewBox="0.00 0.00 520.75 67.75" xmlns="http://www.w3.org/2000/svg" xmlns:xlink="http://www.w3.org/1999/xlink">
<g id="graph0" class="graph" transform="scale(1 1) rotate(0) translate(4 63.75)">
<title>wrap_w2c__f530</title>
<!-- Node1 -->
<g id="Node000001" class="node">
<title>Node1</title>
<g id="a_Node000001"><a xlink:title=" ">
<polygon fill="#999999" stroke="#666666" points="97,-39.75 0,-39.75 0,-19 97,-19 97,-39.75"/>
<text text-anchor="middle" x="48.5" y="-26.25" font-family="Helvetica,sans-Serif" font-size="10.00">wrap_w2c__f530</text>
</a>
</g>
</g>
<!-- Node2 -->
<g id="Node000002" class="node">
<title>Node2</title>
<g id="a_Node000002"><a xlink:href="app_8c.html#a761558dedd027f6a978b278ebb1aaec6" target="_top" xlink:title=" ">
<polygon fill="white" stroke="#666666" points="200.75,-39.75 133,-39.75 133,-19 200.75,-19 200.75,-39.75"/>
<text text-anchor="middle" x="166.88" y="-26.25" font-family="Helvetica,sans-Serif" font-size="10.00">w2c__f530</text>
</a>
</g>
</g>
<!-- Node1&#45;&gt;Node2 -->
<g id="edge1_Node000001_Node000002" class="edge">
<title>Node1&#45;&gt;Node2</title>
<g id="a_edge1_Node000001_Node000002"><a xlink:title=" ">
<path fill="none" stroke="#63b8ff" d="M97.17,-29.38C105.18,-29.38 113.47,-29.38 121.4,-29.38"/>
<polygon fill="#63b8ff" stroke="#63b8ff" points="121.17,-32.88 131.17,-29.38 121.17,-25.88 121.17,-32.88"/>
</a>
</g>
</g>
<!-- Node3 -->
<g id="Node000003" class="node">
<title>Node3</title>
<g id="a_Node000003"><a xlink:href="app_8c.html#ab54a3ba3ae88da3c90f2367e2cd95454" target="_top" xlink:title=" ">
<polygon fill="white" stroke="#666666" points="304.5,-39.75 236.75,-39.75 236.75,-19 304.5,-19 304.5,-39.75"/>
<text text-anchor="middle" x="270.62" y="-26.25" font-family="Helvetica,sans-Serif" font-size="10.00">w2c__f433</text>
</a>
</g>
</g>
<!-- Node2&#45;&gt;Node3 -->
<g id="edge2_Node000002_Node000003" class="edge">
<title>Node2&#45;&gt;Node3</title>
<g id="a_edge2_Node000002_Node000003"><a xlink:title=" ">
<path fill="none" stroke="#63b8ff" d="M201.19,-29.38C208.82,-29.38 217.06,-29.38 225.08,-29.38"/>
<polygon fill="#63b8ff" stroke="#63b8ff" points="225.07,-32.88 235.07,-29.38 225.07,-25.88 225.07,-32.88"/>
</a>
</g>
</g>
<!-- Node4 -->
<g id="Node000004" class="node">
<title>Node4</title>
<g id="a_Node000004"><a xlink:href="app_8c.html#a672569c91ebb1d5055d737b56ec296a7" target="_top" xlink:title=" ">
<polygon fill="white" stroke="#666666" points="410.5,-59.75 342.75,-59.75 342.75,-39 410.5,-39 410.5,-59.75"/>
<text text-anchor="middle" x="376.62" y="-46.25" font-family="Helvetica,sans-Serif" font-size="10.00">w2c__f585</text>
</a>
</g>
</g>
<!-- Node3&#45;&gt;Node4 -->
<g id="edge3_Node000003_Node000004" class="edge">
<title>Node3&#45;&gt;Node4</title>
<g id="a_edge3_Node000003_Node000004"><a xlink:title=" ">
<path fill="none" stroke="#63b8ff" d="M304.82,-35.76C313.26,-37.38 322.47,-39.15 331.37,-40.86"/>
<polygon fill="#63b8ff" stroke="#63b8ff" points="330.42,-44.25 340.91,-42.7 331.75,-37.37 330.42,-44.25"/>
</a>
</g>
</g>
<!-- Node5 -->
<g id="Node000005" class="node">
<title>Node5</title>
<g id="a_Node000005"><a xlink:href="app_8c.html#aca677a5348fb06a52413801823fa5291" target="_top" xlink:title=" ">
<polygon fill="white" stroke="#666666" points="412.75,-20.75 340.5,-20.75 340.5,0 412.75,0 412.75,-20.75"/>
<text text-anchor="middle" x="376.62" y="-7.25" font-family="Helvetica,sans-Serif" font-size="10.00">wasm_floor</text>
</a>
</g>
</g>
<!-- Node3&#45;&gt;Node5 -->
<g id="edge4_Node000003_Node000005" class="edge">
<title>Node3&#45;&gt;Node5</title>
<g id="a_edge4_Node000003_Node000005"><a xlink:title=" ">
<path fill="none" stroke="#63b8ff" d="M304.82,-23.31C312.49,-21.91 320.8,-20.39 328.94,-18.9"/>
<polygon fill="#63b8ff" stroke="#63b8ff" points="329.54,-22.35 338.75,-17.11 328.28,-15.47 329.54,-22.35"/>
</a>
</g>
</g>
<!-- Node6 -->
<g id="Node000006" class="node">
<title>Node6</title>
<g id="a_Node000006"><a xlink:href="app_8c.html#ae10979e670e507d4373e8cadcb3169aa" target="_top" xlink:title=" ">
<polygon fill="white" stroke="#666666" points="512.75,-20.75 448.75,-20.75 448.75,0 512.75,0 512.75,-20.75"/>
<text text-anchor="middle" x="480.75" y="-7.25" font-family="Helvetica,sans-Serif" font-size="10.00">quiet_nan</text>
</a>
</g>
</g>
<!-- Node5&#45;&gt;Node6 -->
<g id="edge5_Node000005_Node000006" class="edge">
<title>Node5&#45;&gt;Node6</title>
<g id="a_edge5_Node000005_Node000006"><a xlink:title=" ">
<path fill="none" stroke="#63b8ff" d="M413.06,-10.38C420.8,-10.38 429.07,-10.38 437.06,-10.38"/>
<polygon fill="#63b8ff" stroke="#63b8ff" points="436.96,-13.88 446.96,-10.38 436.96,-6.88 436.96,-13.88"/>
</a>
</g>
</g>
</g>
</svg>
