<?xml version="1.0" encoding="UTF-8" standalone="no"?>
<!DOCTYPE svg PUBLIC "-//W3C//DTD SVG 1.1//EN"
 "http://www.w3.org/Graphics/SVG/1.1/DTD/svg11.dtd">
<!-- Generated by graphviz version 12.2.1 (0)
 -->
<!-- Title: w2c_0_124 Pages: 1 -->
<svg width="450pt" height="68pt"
 viewBox="0.00 0.00 450.00 67.75" xmlns="http://www.w3.org/2000/svg" xmlns:xlink="http://www.w3.org/1999/xlink">
<g id="graph0" class="graph" transform="scale(1 1) rotate(0) translate(4 63.75)">
<title>w2c_0_124</title>
<!-- Node1 -->
<g id="Node000001" class="node">
<title>Node1</title>
<g id="a_Node000001"><a xlink:title=" ">
<polygon fill="#999999" stroke="#666666" points="442,-39.75 372,-39.75 372,-19 442,-19 442,-39.75"/>
<text text-anchor="middle" x="407" y="-26.25" font-family="Helvetica,sans-Serif" font-size="10.00">w2c_0_124</text>
</a>
</g>
</g>
<!-- Node2 -->
<g id="Node000002" class="node">
<title>Node2</title>
<g id="a_Node000002"><a xlink:href="app_8c.html#aceab5cda31b6aa6659b94aae079d60c2" target="_top" xlink:title=" ">
<polygon fill="white" stroke="#666666" points="320.25,-59.75 252.5,-59.75 252.5,-39 320.25,-39 320.25,-59.75"/>
<text text-anchor="middle" x="286.38" y="-46.25" font-family="Helvetica,sans-Serif" font-size="10.00">w2c__f456</text>
</a>
</g>
</g>
<!-- Node1&#45;&gt;Node2 -->
<g id="edge1_Node000001_Node000002" class="edge">
<title>Node1&#45;&gt;Node2</title>
<g id="a_edge1_Node000001_Node000002"><a xlink:title=" ">
<path fill="none" stroke="#63b8ff" d="M360.72,-37.01C347.3,-39.27 332.87,-41.7 320.38,-43.81"/>
<polygon fill="#63b8ff" stroke="#63b8ff" points="360.92,-40.53 370.2,-35.41 359.75,-33.62 360.92,-40.53"/>
</a>
</g>
</g>
<!-- Node5 -->
<g id="Node000005" class="node">
<title>Node5</title>
<g id="a_Node000005"><a xlink:href="app_8c.html#a9c6c2413f81d865d6f6139de0cf84c14" target="_top" xlink:title=" ">
<polygon fill="white" stroke="#666666" points="336,-20.75 236.75,-20.75 236.75,0 336,0 336,-20.75"/>
<text text-anchor="middle" x="286.38" y="-7.25" font-family="Helvetica,sans-Serif" font-size="10.00">wrap_w2c_0_124</text>
</a>
</g>
</g>
<!-- Node1&#45;&gt;Node5 -->
<g id="edge4_Node000001_Node000005" class="edge">
<title>Node1&#45;&gt;Node5</title>
<g id="a_edge4_Node000001_Node000005"><a xlink:title=" ">
<path fill="none" stroke="#63b8ff" d="M360.39,-22.07C352.46,-20.8 344.18,-19.47 336.17,-18.19"/>
<polygon fill="#63b8ff" stroke="#63b8ff" points="359.77,-25.51 370.19,-23.64 360.87,-18.6 359.77,-25.51"/>
</a>
</g>
</g>
<!-- Node3 -->
<g id="Node000003" class="node">
<title>Node3</title>
<g id="a_Node000003"><a xlink:href="app_8c.html#ad1dbc2afe7918517df3fc54838f07298" target="_top" xlink:title=" ">
<polygon fill="white" stroke="#666666" points="200.75,-59.75 133,-59.75 133,-39 200.75,-39 200.75,-59.75"/>
<text text-anchor="middle" x="166.88" y="-46.25" font-family="Helvetica,sans-Serif" font-size="10.00">w2c__f520</text>
</a>
</g>
</g>
<!-- Node2&#45;&gt;Node3 -->
<g id="edge2_Node000002_Node000003" class="edge">
<title>Node2&#45;&gt;Node3</title>
<g id="a_edge2_Node000002_Node000003"><a xlink:title=" ">
<path fill="none" stroke="#63b8ff" d="M240.73,-49.38C227.5,-49.38 213.26,-49.38 200.91,-49.38"/>
<polygon fill="#63b8ff" stroke="#63b8ff" points="240.5,-52.88 250.5,-49.38 240.5,-45.88 240.5,-52.88"/>
</a>
</g>
</g>
<!-- Node4 -->
<g id="Node000004" class="node">
<title>Node4</title>
<g id="a_Node000004"><a xlink:href="app_8c.html#a130f07b726020d1add9a7ed5178e023a" target="_top" xlink:title=" ">
<polygon fill="white" stroke="#666666" points="97,-59.75 0,-59.75 0,-39 97,-39 97,-59.75"/>
<text text-anchor="middle" x="48.5" y="-46.25" font-family="Helvetica,sans-Serif" font-size="10.00">wrap_w2c__f520</text>
</a>
</g>
</g>
<!-- Node3&#45;&gt;Node4 -->
<g id="edge3_Node000003_Node000004" class="edge">
<title>Node3&#45;&gt;Node4</title>
<g id="a_edge3_Node000003_Node000004"><a xlink:title=" ">
<path fill="none" stroke="#63b8ff" d="M121.28,-49.38C113.39,-49.38 105.14,-49.38 97.16,-49.38"/>
<polygon fill="#63b8ff" stroke="#63b8ff" points="121.01,-52.88 131.01,-49.38 121.01,-45.88 121.01,-52.88"/>
</a>
</g>
</g>
</g>
</svg>
