<?xml version="1.0" encoding="UTF-8" standalone="no"?>
<!DOCTYPE svg PUBLIC "-//W3C//DTD SVG 1.1//EN"
 "http://www.w3.org/Graphics/SVG/1.1/DTD/svg11.dtd">
<!-- Generated by graphviz version 12.2.1 (0)
 -->
<!-- Title: w2c__f288 Pages: 1 -->
<svg width="595pt" height="146pt"
 viewBox="0.00 0.00 594.50 145.75" xmlns="http://www.w3.org/2000/svg" xmlns:xlink="http://www.w3.org/1999/xlink">
<g id="graph0" class="graph" transform="scale(1 1) rotate(0) translate(4 141.75)">
<title>w2c__f288</title>
<!-- Node1 -->
<g id="Node000001" class="node">
<title>Node1</title>
<g id="a_Node000001"><a xlink:title=" ">
<polygon fill="#999999" stroke="#666666" points="67.75,-50.75 0,-50.75 0,-30 67.75,-30 67.75,-50.75"/>
<text text-anchor="middle" x="33.88" y="-37.25" font-family="Helvetica,sans-Serif" font-size="10.00">w2c__f288</text>
</a>
</g>
</g>
<!-- Node2 -->
<g id="Node000002" class="node">
<title>Node2</title>
<g id="a_Node000002"><a xlink:href="app_8c.html#a1f052451cef3dd4bfb6ec9457f1c0e26" target="_top" xlink:title=" ">
<polygon fill="white" stroke="#666666" points="171.5,-69.75 103.75,-69.75 103.75,-49 171.5,-49 171.5,-69.75"/>
<text text-anchor="middle" x="137.62" y="-56.25" font-family="Helvetica,sans-Serif" font-size="10.00">w2c__f311</text>
</a>
</g>
</g>
<!-- Node1&#45;&gt;Node2 -->
<g id="edge1_Node000001_Node000002" class="edge">
<title>Node1&#45;&gt;Node2</title>
<g id="a_edge1_Node000001_Node000002"><a xlink:title=" ">
<path fill="none" stroke="#63b8ff" d="M68.19,-46.6C75.91,-48.04 84.25,-49.59 92.36,-51.11"/>
<polygon fill="#63b8ff" stroke="#63b8ff" points="91.62,-54.53 102.09,-52.93 92.91,-47.65 91.62,-54.53"/>
</a>
</g>
</g>
<!-- Node10 -->
<g id="Node000010" class="node">
<title>Node10</title>
<g id="a_Node000010"><a xlink:href="app_8c.html#a0e0dad0ebc52e45eeff2e1b5d8389ea4" target="_top" xlink:title=" ">
<polygon fill="white" stroke="#666666" points="482.75,-20.75 415,-20.75 415,0 482.75,0 482.75,-20.75"/>
<text text-anchor="middle" x="448.88" y="-7.25" font-family="Helvetica,sans-Serif" font-size="10.00">w2c__f534</text>
</a>
</g>
</g>
<!-- Node1&#45;&gt;Node10 -->
<g id="edge13_Node000001_Node000010" class="edge">
<title>Node1&#45;&gt;Node10</title>
<g id="a_edge13_Node000001_Node000010"><a xlink:title=" ">
<path fill="none" stroke="#63b8ff" d="M67.97,-37.97C141.76,-32.61 319.76,-19.68 403.25,-13.62"/>
<polygon fill="#63b8ff" stroke="#63b8ff" points="403.39,-17.12 413.11,-12.9 402.88,-10.13 403.39,-17.12"/>
</a>
</g>
</g>
<!-- Node3 -->
<g id="Node000003" class="node">
<title>Node3</title>
<g id="a_Node000003"><a xlink:href="app_8c.html#a1ed0745af60bea321780e5f860a89d43" target="_top" xlink:title=" ">
<polygon fill="white" stroke="#666666" points="275.25,-69.75 207.5,-69.75 207.5,-49 275.25,-49 275.25,-69.75"/>
<text text-anchor="middle" x="241.38" y="-56.25" font-family="Helvetica,sans-Serif" font-size="10.00">w2c__f522</text>
</a>
</g>
</g>
<!-- Node2&#45;&gt;Node3 -->
<g id="edge2_Node000002_Node000003" class="edge">
<title>Node2&#45;&gt;Node3</title>
<g id="a_edge2_Node000002_Node000003"><a xlink:title=" ">
<path fill="none" stroke="#63b8ff" d="M171.94,-59.38C179.57,-59.38 187.81,-59.38 195.83,-59.38"/>
<polygon fill="#63b8ff" stroke="#63b8ff" points="195.82,-62.88 205.82,-59.38 195.82,-55.88 195.82,-62.88"/>
</a>
</g>
</g>
<!-- Node4 -->
<g id="Node000004" class="node">
<title>Node4</title>
<g id="a_Node000004"><a xlink:href="app_8c.html#a03fa34d93d32a3ee40dfc2d840730111" target="_top" xlink:title=" ">
<polygon fill="white" stroke="#666666" points="482.75,-137.75 415,-137.75 415,-117 482.75,-117 482.75,-137.75"/>
<text text-anchor="middle" x="448.88" y="-124.25" font-family="Helvetica,sans-Serif" font-size="10.00">w2c__f262</text>
</a>
</g>
</g>
<!-- Node3&#45;&gt;Node4 -->
<g id="edge3_Node000003_Node000004" class="edge">
<title>Node3&#45;&gt;Node4</title>
<g id="a_edge3_Node000003_Node000004"><a xlink:title=" ">
<path fill="none" stroke="#63b8ff" d="M274.94,-70.15C309.86,-81.7 365.49,-100.11 404.2,-112.92"/>
<polygon fill="#63b8ff" stroke="#63b8ff" points="403.1,-116.24 413.69,-116.06 405.29,-109.6 403.1,-116.24"/>
</a>
</g>
</g>
<!-- Node7 -->
<g id="Node000007" class="node">
<title>Node7</title>
<g id="a_Node000007"><a xlink:href="app_8c.html#a8c90e9acf2d5915eb0476bc13964c4db" target="_top" xlink:title=" ">
<polygon fill="white" stroke="#666666" points="379,-69.75 311.25,-69.75 311.25,-49 379,-49 379,-69.75"/>
<text text-anchor="middle" x="345.12" y="-56.25" font-family="Helvetica,sans-Serif" font-size="10.00">w2c__f345</text>
</a>
</g>
</g>
<!-- Node3&#45;&gt;Node7 -->
<g id="edge6_Node000003_Node000007" class="edge">
<title>Node3&#45;&gt;Node7</title>
<g id="a_edge6_Node000003_Node000007"><a xlink:title=" ">
<path fill="none" stroke="#63b8ff" d="M275.69,-59.38C283.32,-59.38 291.56,-59.38 299.58,-59.38"/>
<polygon fill="#63b8ff" stroke="#63b8ff" points="299.57,-62.88 309.57,-59.38 299.57,-55.88 299.57,-62.88"/>
</a>
</g>
</g>
<!-- Node5 -->
<g id="Node000005" class="node">
<title>Node5</title>
<g id="a_Node000005"><a xlink:href="app_8c.html#a16207b5f7a97b0ecfddd231452c5aa7e" target="_top" xlink:title=" ">
<polygon fill="white" stroke="#666666" points="586.5,-137.75 518.75,-137.75 518.75,-117 586.5,-117 586.5,-137.75"/>
<text text-anchor="middle" x="552.62" y="-124.25" font-family="Helvetica,sans-Serif" font-size="10.00">w2c__f263</text>
</a>
</g>
</g>
<!-- Node4&#45;&gt;Node5 -->
<g id="edge4_Node000004_Node000005" class="edge">
<title>Node4&#45;&gt;Node5</title>
<g id="a_edge4_Node000004_Node000005"><a xlink:title=" ">
<path fill="none" stroke="#63b8ff" d="M483.19,-127.38C490.82,-127.38 499.06,-127.38 507.08,-127.38"/>
<polygon fill="#63b8ff" stroke="#63b8ff" points="507.07,-130.88 517.07,-127.38 507.07,-123.88 507.07,-130.88"/>
</a>
</g>
</g>
<!-- Node6 -->
<g id="Node000006" class="node">
<title>Node6</title>
<g id="a_Node000006"><a xlink:href="app_8c.html#a71bcbce7faf780cd081af3fa82d6da97" target="_top" xlink:title=" ">
<polygon fill="white" stroke="#666666" points="586.5,-98.75 518.75,-98.75 518.75,-78 586.5,-78 586.5,-98.75"/>
<text text-anchor="middle" x="552.62" y="-85.25" font-family="Helvetica,sans-Serif" font-size="10.00">w2c__f437</text>
</a>
</g>
</g>
<!-- Node4&#45;&gt;Node6 -->
<g id="edge5_Node000004_Node000006" class="edge">
<title>Node4&#45;&gt;Node6</title>
<g id="a_edge5_Node000004_Node000006"><a xlink:title=" ">
<path fill="none" stroke="#63b8ff" d="M478.22,-116.51C488.91,-112.41 501.27,-107.67 512.76,-103.27"/>
<polygon fill="#63b8ff" stroke="#63b8ff" points="513.94,-106.57 522.02,-99.72 511.43,-100.03 513.94,-106.57"/>
</a>
</g>
</g>
<!-- Node7&#45;&gt;Node4 -->
<g id="edge7_Node000007_Node000004" class="edge">
<title>Node7&#45;&gt;Node4</title>
<g id="a_edge7_Node000007_Node000004"><a xlink:title=" ">
<path fill="none" stroke="#63b8ff" d="M360.99,-70.13C374.82,-80.05 396.07,-95.04 415,-107.38 416.62,-108.43 418.29,-109.5 419.98,-110.57"/>
<polygon fill="#63b8ff" stroke="#63b8ff" points="418.03,-113.48 428.38,-115.77 421.72,-107.53 418.03,-113.48"/>
</a>
</g>
</g>
<!-- Node8 -->
<g id="Node000008" class="node">
<title>Node8</title>
<g id="a_Node000008"><a xlink:href="app_8c.html#a31b08a294227a9fc0a529e66ccd915dc" target="_top" xlink:title=" ">
<polygon fill="white" stroke="#666666" points="482.75,-98.75 415,-98.75 415,-78 482.75,-78 482.75,-98.75"/>
<text text-anchor="middle" x="448.88" y="-85.25" font-family="Helvetica,sans-Serif" font-size="10.00">w2c__f325</text>
</a>
</g>
</g>
<!-- Node7&#45;&gt;Node8 -->
<g id="edge8_Node000007_Node000008" class="edge">
<title>Node7&#45;&gt;Node8</title>
<g id="a_edge8_Node000007_Node000008"><a xlink:title=" ">
<path fill="none" stroke="#63b8ff" d="M379.44,-68.87C387.25,-71.1 395.69,-73.5 403.89,-75.84"/>
<polygon fill="#63b8ff" stroke="#63b8ff" points="402.8,-79.17 413.38,-78.54 404.72,-72.44 402.8,-79.17"/>
</a>
</g>
</g>
<!-- Node9 -->
<g id="Node000009" class="node">
<title>Node9</title>
<g id="a_Node000009"><a xlink:href="app_8c.html#a800df00ef236c6d6affc3c661b37e3ad" target="_top" xlink:title=" ">
<polygon fill="white" stroke="#666666" points="482.75,-59.75 415,-59.75 415,-39 482.75,-39 482.75,-59.75"/>
<text text-anchor="middle" x="448.88" y="-46.25" font-family="Helvetica,sans-Serif" font-size="10.00">w2c__f487</text>
</a>
</g>
</g>
<!-- Node7&#45;&gt;Node9 -->
<g id="edge10_Node000007_Node000009" class="edge">
<title>Node7&#45;&gt;Node9</title>
<g id="a_edge10_Node000007_Node000009"><a xlink:title=" ">
<path fill="none" stroke="#63b8ff" d="M379.44,-56.1C387.16,-55.34 395.5,-54.52 403.61,-53.73"/>
<polygon fill="#63b8ff" stroke="#63b8ff" points="403.71,-57.23 413.32,-52.77 403.03,-50.27 403.71,-57.23"/>
</a>
</g>
</g>
<!-- Node7&#45;&gt;Node10 -->
<g id="edge12_Node000007_Node000010" class="edge">
<title>Node7&#45;&gt;Node10</title>
<g id="a_edge12_Node000007_Node000010"><a xlink:title=" ">
<path fill="none" stroke="#63b8ff" d="M368.71,-48.5C382.41,-41.9 400.12,-33.37 415.32,-26.05"/>
<polygon fill="#63b8ff" stroke="#63b8ff" points="416.5,-29.37 423.99,-21.88 413.46,-23.06 416.5,-29.37"/>
</a>
</g>
</g>
<!-- Node8&#45;&gt;Node6 -->
<g id="edge9_Node000008_Node000006" class="edge">
<title>Node8&#45;&gt;Node6</title>
<g id="a_edge9_Node000008_Node000006"><a xlink:title=" ">
<path fill="none" stroke="#63b8ff" d="M483.19,-88.38C490.82,-88.38 499.06,-88.38 507.08,-88.38"/>
<polygon fill="#63b8ff" stroke="#63b8ff" points="507.07,-91.88 517.07,-88.38 507.07,-84.88 507.07,-91.88"/>
</a>
</g>
</g>
<!-- Node9&#45;&gt;Node6 -->
<g id="edge11_Node000009_Node000006" class="edge">
<title>Node9&#45;&gt;Node6</title>
<g id="a_edge11_Node000009_Node000006"><a xlink:title=" ">
<path fill="none" stroke="#63b8ff" d="M478.22,-60.24C488.91,-64.34 501.27,-69.08 512.76,-73.48"/>
<polygon fill="#63b8ff" stroke="#63b8ff" points="511.43,-76.72 522.02,-77.03 513.94,-70.18 511.43,-76.72"/>
</a>
</g>
</g>
</g>
</svg>
