<?xml version="1.0" encoding="UTF-8" standalone="no"?>
<!DOCTYPE svg PUBLIC "-//W3C//DTD SVG 1.1//EN"
 "http://www.w3.org/Graphics/SVG/1.1/DTD/svg11.dtd">
<!-- Generated by graphviz version 12.2.1 (0)
 -->
<!-- Title: w2c__f306 Pages: 1 -->
<svg width="741pt" height="799pt"
 viewBox="0.00 0.00 740.75 798.75" xmlns="http://www.w3.org/2000/svg" xmlns:xlink="http://www.w3.org/1999/xlink">
<g id="graph0" class="graph" transform="scale(1 1) rotate(0) translate(4 794.75)">
<title>w2c__f306</title>
<!-- Node1 -->
<g id="Node000001" class="node">
<title>Node1</title>
<g id="a_Node000001"><a xlink:title=" ">
<polygon fill="#999999" stroke="#666666" points="732.75,-578.75 665,-578.75 665,-558 732.75,-558 732.75,-578.75"/>
<text text-anchor="middle" x="698.88" y="-565.25" font-family="Helvetica,sans-Serif" font-size="10.00">w2c__f306</text>
</a>
</g>
</g>
<!-- Node2 -->
<g id="Node000002" class="node">
<title>Node2</title>
<g id="a_Node000002"><a xlink:href="app_8c.html#aabc3b06c7f7daa21796552c728f0379b" target="_top" xlink:title=" ">
<polygon fill="white" stroke="#666666" points="481.38,-636.75 413.62,-636.75 413.62,-616 481.38,-616 481.38,-636.75"/>
<text text-anchor="middle" x="447.5" y="-623.25" font-family="Helvetica,sans-Serif" font-size="10.00">w2c__f270</text>
</a>
</g>
</g>
<!-- Node1&#45;&gt;Node2 -->
<g id="edge1_Node000001_Node000002" class="edge">
<title>Node1&#45;&gt;Node2</title>
<g id="a_edge1_Node000001_Node000002"><a xlink:title=" ">
<path fill="none" stroke="#63b8ff" d="M657.68,-582.78C648.34,-585.85 638.38,-588.91 629,-591.38 578.21,-604.72 518.17,-615.36 481.73,-621.27"/>
<polygon fill="#63b8ff" stroke="#63b8ff" points="658.51,-586.19 666.86,-579.68 656.27,-579.56 658.51,-586.19"/>
</a>
</g>
</g>
<!-- Node4 -->
<g id="Node000004" class="node">
<title>Node4</title>
<g id="a_Node000004"><a xlink:href="app_8c.html#a5bcd487c0a8bcb7cb69947a76c4951cb" target="_top" xlink:title=" ">
<polygon fill="white" stroke="#666666" points="614.38,-713.75 546.62,-713.75 546.62,-693 614.38,-693 614.38,-713.75"/>
<text text-anchor="middle" x="580.5" y="-700.25" font-family="Helvetica,sans-Serif" font-size="10.00">w2c__f324</text>
</a>
</g>
</g>
<!-- Node1&#45;&gt;Node4 -->
<g id="edge3_Node000001_Node000004" class="edge">
<title>Node1&#45;&gt;Node4</title>
<g id="a_edge3_Node000001_Node000004"><a xlink:title=" ">
<path fill="none" stroke="#63b8ff" d="M681.49,-587.38C656.62,-616.23 610.18,-670.1 590.59,-692.83"/>
<polygon fill="#63b8ff" stroke="#63b8ff" points="683.88,-589.97 687.76,-580.11 678.57,-585.4 683.88,-589.97"/>
</a>
</g>
</g>
<!-- Node7 -->
<g id="Node000007" class="node">
<title>Node7</title>
<g id="a_Node000007"><a xlink:href="app_8c.html#a5677ffd129da8cd63b876545b8187d77" target="_top" xlink:title=" ">
<polygon fill="white" stroke="#666666" points="348.38,-482.75 280.62,-482.75 280.62,-462 348.38,-462 348.38,-482.75"/>
<text text-anchor="middle" x="314.5" y="-469.25" font-family="Helvetica,sans-Serif" font-size="10.00">w2c__f367</text>
</a>
</g>
</g>
<!-- Node1&#45;&gt;Node7 -->
<g id="edge14_Node000001_Node000007" class="edge">
<title>Node1&#45;&gt;Node7</title>
<g id="a_edge14_Node000001_Node000007"><a xlink:title=" ">
<path fill="none" stroke="#63b8ff" d="M653.51,-569.23C593.7,-568.96 484.83,-563.35 399,-530.38 370.33,-519.36 342.06,-496.52 326.89,-483.03"/>
<polygon fill="#63b8ff" stroke="#63b8ff" points="653.28,-572.73 663.28,-569.22 653.28,-565.73 653.28,-572.73"/>
</a>
</g>
</g>
<!-- Node14 -->
<g id="Node000014" class="node">
<title>Node14</title>
<g id="a_Node000014"><a xlink:href="app_8c.html#af672285e87aeca1cf90c96a240f9e9ad" target="_top" xlink:title=" ">
<polygon fill="white" stroke="#666666" points="481.38,-597.75 413.62,-597.75 413.62,-577 481.38,-577 481.38,-597.75"/>
<text text-anchor="middle" x="447.5" y="-584.25" font-family="Helvetica,sans-Serif" font-size="10.00">w2c__f399</text>
</a>
</g>
</g>
<!-- Node1&#45;&gt;Node14 -->
<g id="edge15_Node000001_Node000014" class="edge">
<title>Node1&#45;&gt;Node14</title>
<g id="a_edge15_Node000001_Node000014"><a xlink:title=" ">
<path fill="none" stroke="#63b8ff" d="M653.24,-571.78C603.97,-575.53 525.81,-581.48 481.68,-584.85"/>
<polygon fill="#63b8ff" stroke="#63b8ff" points="653.29,-575.28 662.99,-571.03 652.76,-568.3 653.29,-575.28"/>
</a>
</g>
</g>
<!-- Node16 -->
<g id="Node000016" class="node">
<title>Node16</title>
<g id="a_Node000016"><a xlink:href="app_8c.html#a8d133b0dcb7130bbc0a48ea5c1975662" target="_top" xlink:title=" ">
<polygon fill="white" stroke="#666666" points="614.38,-386.75 546.62,-386.75 546.62,-366 614.38,-366 614.38,-386.75"/>
<text text-anchor="middle" x="580.5" y="-373.25" font-family="Helvetica,sans-Serif" font-size="10.00">w2c__f436</text>
</a>
</g>
</g>
<!-- Node1&#45;&gt;Node16 -->
<g id="edge17_Node000001_Node000016" class="edge">
<title>Node1&#45;&gt;Node16</title>
<g id="a_edge17_Node000001_Node000016"><a xlink:title=" ">
<path fill="none" stroke="#63b8ff" d="M685.44,-547.87C660.85,-507.28 606.73,-418 588.02,-387.13"/>
<polygon fill="#63b8ff" stroke="#63b8ff" points="682.32,-549.47 690.5,-556.21 688.31,-545.84 682.32,-549.47"/>
</a>
</g>
</g>
<!-- Node39 -->
<g id="Node000039" class="node">
<title>Node39</title>
<g id="a_Node000039"><a xlink:href="app_8c.html#a4567561af8a7a544c13aa7e3b586f4a9" target="_top" xlink:title=" ">
<polygon fill="white" stroke="#666666" points="629,-347.75 532,-347.75 532,-327 629,-327 629,-347.75"/>
<text text-anchor="middle" x="580.5" y="-334.25" font-family="Helvetica,sans-Serif" font-size="10.00">wrap_w2c__f306</text>
</a>
</g>
</g>
<!-- Node1&#45;&gt;Node39 -->
<g id="edge49_Node000001_Node000039" class="edge">
<title>Node1&#45;&gt;Node39</title>
<g id="a_edge49_Node000001_Node000039"><a xlink:title=" ">
<path fill="none" stroke="#63b8ff" d="M696.57,-546.29C692.94,-504.27 679.37,-412.11 629,-357.38 625.61,-353.69 621.43,-350.66 616.96,-348.17"/>
<polygon fill="#63b8ff" stroke="#63b8ff" points="693.06,-546.4 697.29,-556.12 700.05,-545.89 693.06,-546.4"/>
</a>
</g>
</g>
<!-- Node3 -->
<g id="Node000003" class="node">
<title>Node3</title>
<g id="a_Node000003"><a xlink:href="app_8c.html#a54f194530158831aa826ddabfd869e3f" target="_top" xlink:title=" ">
<polygon fill="white" stroke="#666666" points="363,-636.75 266,-636.75 266,-616 363,-616 363,-636.75"/>
<text text-anchor="middle" x="314.5" y="-623.25" font-family="Helvetica,sans-Serif" font-size="10.00">wrap_w2c__f270</text>
</a>
</g>
</g>
<!-- Node2&#45;&gt;Node3 -->
<g id="edge2_Node000002_Node000003" class="edge">
<title>Node2&#45;&gt;Node3</title>
<g id="a_edge2_Node000002_Node000003"><a xlink:title=" ">
<path fill="none" stroke="#63b8ff" d="M401.95,-626.38C389.53,-626.38 376,-626.38 363.4,-626.38"/>
<polygon fill="#63b8ff" stroke="#63b8ff" points="401.93,-629.88 411.93,-626.38 401.93,-622.88 401.93,-629.88"/>
</a>
</g>
</g>
<!-- Node5 -->
<g id="Node000005" class="node">
<title>Node5</title>
<g id="a_Node000005"><a xlink:href="app_8c.html#a92887d2aedd3202ee2ee7790ac44d9c3" target="_top" xlink:title=" ">
<polygon fill="white" stroke="#666666" points="481.38,-675.75 413.62,-675.75 413.62,-655 481.38,-655 481.38,-675.75"/>
<text text-anchor="middle" x="447.5" y="-662.25" font-family="Helvetica,sans-Serif" font-size="10.00">w2c__f352</text>
</a>
</g>
</g>
<!-- Node4&#45;&gt;Node5 -->
<g id="edge4_Node000004_Node000005" class="edge">
<title>Node4&#45;&gt;Node5</title>
<g id="a_edge4_Node000004_Node000005"><a xlink:title=" ">
<path fill="none" stroke="#63b8ff" d="M535.54,-690.62C517.9,-685.51 497.91,-679.71 481.55,-674.96"/>
<polygon fill="#63b8ff" stroke="#63b8ff" points="534.41,-693.94 544.99,-693.36 536.36,-687.22 534.41,-693.94"/>
</a>
</g>
</g>
<!-- Node4&#45;&gt;Node7 -->
<g id="edge6_Node000004_Node000007" class="edge">
<title>Node4&#45;&gt;Node7</title>
<g id="a_edge6_Node000004_Node000007"><a xlink:title=" ">
<path fill="none" stroke="#63b8ff" d="M535.15,-711.29C495.09,-715.79 436.79,-715.4 399,-684.38 357.28,-650.12 383.03,-618.5 363,-568.38 350.23,-536.43 331.11,-500.52 321.49,-483.06"/>
<polygon fill="#63b8ff" stroke="#63b8ff" points="535.47,-714.78 544.94,-710.03 534.58,-707.84 535.47,-714.78"/>
</a>
</g>
</g>
<!-- Node11 -->
<g id="Node000011" class="node">
<title>Node11</title>
<g id="a_Node000011"><a xlink:href="app_8c.html#a051a4ada43e33e41b591ce80f5f37aca" target="_top" xlink:title=" ">
<polygon fill="white" stroke="#666666" points="481.38,-751.75 413.62,-751.75 413.62,-731 481.38,-731 481.38,-751.75"/>
<text text-anchor="middle" x="447.5" y="-738.25" font-family="Helvetica,sans-Serif" font-size="10.00">w2c__f451</text>
</a>
</g>
</g>
<!-- Node4&#45;&gt;Node11 -->
<g id="edge10_Node000004_Node000011" class="edge">
<title>Node4&#45;&gt;Node11</title>
<g id="a_edge10_Node000004_Node000011"><a xlink:title=" ">
<path fill="none" stroke="#63b8ff" d="M535.54,-716.13C517.9,-721.24 497.91,-727.04 481.55,-731.79"/>
<polygon fill="#63b8ff" stroke="#63b8ff" points="536.36,-719.53 544.99,-713.39 534.41,-712.81 536.36,-719.53"/>
</a>
</g>
</g>
<!-- Node13 -->
<g id="Node000013" class="node">
<title>Node13</title>
<g id="a_Node000013"><a xlink:href="app_8c.html#ae1606a9227009f19ddfac888034d6891" target="_top" xlink:title=" ">
<polygon fill="white" stroke="#666666" points="496,-790.75 399,-790.75 399,-770 496,-770 496,-790.75"/>
<text text-anchor="middle" x="447.5" y="-777.25" font-family="Helvetica,sans-Serif" font-size="10.00">wrap_w2c__f324</text>
</a>
</g>
</g>
<!-- Node4&#45;&gt;Node13 -->
<g id="edge13_Node000004_Node000013" class="edge">
<title>Node4&#45;&gt;Node13</title>
<g id="a_edge13_Node000004_Node000013"><a xlink:title=" ">
<path fill="none" stroke="#63b8ff" d="M556.76,-720.74C540.4,-732.77 517.52,-748.65 496,-760.38 489.95,-763.67 483.24,-766.79 476.82,-769.55"/>
<polygon fill="#63b8ff" stroke="#63b8ff" points="558.43,-723.86 564.36,-715.07 554.25,-718.24 558.43,-723.86"/>
</a>
</g>
</g>
<!-- Node6 -->
<g id="Node000006" class="node">
<title>Node6</title>
<g id="a_Node000006"><a xlink:href="app_8c.html#a59ffb9c4f4293b99a29f46019ffebf23" target="_top" xlink:title=" ">
<polygon fill="white" stroke="#666666" points="363,-675.75 266,-675.75 266,-655 363,-655 363,-675.75"/>
<text text-anchor="middle" x="314.5" y="-662.25" font-family="Helvetica,sans-Serif" font-size="10.00">wrap_w2c__f352</text>
</a>
</g>
</g>
<!-- Node5&#45;&gt;Node6 -->
<g id="edge5_Node000005_Node000006" class="edge">
<title>Node5&#45;&gt;Node6</title>
<g id="a_edge5_Node000005_Node000006"><a xlink:title=" ">
<path fill="none" stroke="#63b8ff" d="M401.95,-665.38C389.53,-665.38 376,-665.38 363.4,-665.38"/>
<polygon fill="#63b8ff" stroke="#63b8ff" points="401.93,-668.88 411.93,-665.38 401.93,-661.88 401.93,-668.88"/>
</a>
</g>
</g>
<!-- Node8 -->
<g id="Node000008" class="node">
<title>Node8</title>
<g id="a_Node000008"><a xlink:href="app_8c.html#ac863989691d4c389f80374209c220171" target="_top" xlink:title=" ">
<polygon fill="white" stroke="#666666" points="212.75,-501.75 150.25,-501.75 150.25,-481 212.75,-481 212.75,-501.75"/>
<text text-anchor="middle" x="181.5" y="-488.25" font-family="Helvetica,sans-Serif" font-size="10.00">w2c__c_0</text>
</a>
</g>
</g>
<!-- Node7&#45;&gt;Node8 -->
<g id="edge7_Node000007_Node000008" class="edge">
<title>Node7&#45;&gt;Node8</title>
<g id="a_edge7_Node000007_Node000008"><a xlink:title=" ">
<path fill="none" stroke="#63b8ff" d="M269.28,-478.79C250.72,-481.48 229.61,-484.54 212.85,-486.97"/>
<polygon fill="#63b8ff" stroke="#63b8ff" points="269.55,-482.29 278.95,-477.39 268.55,-475.36 269.55,-482.29"/>
</a>
</g>
</g>
<!-- Node10 -->
<g id="Node000010" class="node">
<title>Node10</title>
<g id="a_Node000010"><a xlink:href="app_8c.html#a8f64ccad6c506a1ca514ba4f43e5211c" target="_top" xlink:title=" ">
<polygon fill="white" stroke="#666666" points="230,-462.75 133,-462.75 133,-442 230,-442 230,-462.75"/>
<text text-anchor="middle" x="181.5" y="-449.25" font-family="Helvetica,sans-Serif" font-size="10.00">wrap_w2c__f367</text>
</a>
</g>
</g>
<!-- Node7&#45;&gt;Node10 -->
<g id="edge9_Node000007_Node000010" class="edge">
<title>Node7&#45;&gt;Node10</title>
<g id="a_edge9_Node000007_Node000010"><a xlink:title=" ">
<path fill="none" stroke="#63b8ff" d="M269.33,-465.63C256.81,-463.72 243.13,-461.63 230.4,-459.69"/>
<polygon fill="#63b8ff" stroke="#63b8ff" points="268.53,-469.05 278.95,-467.1 269.59,-462.13 268.53,-469.05"/>
</a>
</g>
</g>
<!-- Node9 -->
<g id="Node000009" class="node">
<title>Node9</title>
<g id="a_Node000009"><a xlink:href="app_8c.html#ab1e039392ea68017ab8a6063263b147d" target="_top" xlink:title=" ">
<polygon fill="white" stroke="#666666" points="74.12,-501.75 22.88,-501.75 22.88,-481 74.12,-481 74.12,-501.75"/>
<text text-anchor="middle" x="48.5" y="-488.25" font-family="Helvetica,sans-Serif" font-size="10.00">w2c__c</text>
</a>
</g>
</g>
<!-- Node8&#45;&gt;Node9 -->
<g id="edge8_Node000008_Node000009" class="edge">
<title>Node8&#45;&gt;Node9</title>
<g id="a_edge8_Node000008_Node000009"><a xlink:title=" ">
<path fill="none" stroke="#63b8ff" d="M138.49,-491.38C117.33,-491.38 92.4,-491.38 74.32,-491.38"/>
<polygon fill="#63b8ff" stroke="#63b8ff" points="138.27,-494.88 148.27,-491.38 138.27,-487.88 138.27,-494.88"/>
</a>
</g>
</g>
<!-- Node11&#45;&gt;Node7 -->
<g id="edge11_Node000011_Node000007" class="edge">
<title>Node11&#45;&gt;Node7</title>
<g id="a_edge11_Node000011_Node000007"><a xlink:title=" ">
<path fill="none" stroke="#63b8ff" d="M406.05,-724.38C403.44,-722.28 401.04,-719.95 399,-717.38 356.69,-663.98 386.25,-632.41 363,-568.38 351.26,-536.04 331.68,-500.3 321.73,-482.97"/>
<polygon fill="#63b8ff" stroke="#63b8ff" points="404,-727.22 414.28,-729.8 407.85,-721.37 404,-727.22"/>
</a>
</g>
</g>
<!-- Node12 -->
<g id="Node000012" class="node">
<title>Node12</title>
<g id="a_Node000012"><a xlink:href="app_8c.html#a986a3b273c82dee406f4d880d67fc450" target="_top" xlink:title=" ">
<polygon fill="white" stroke="#666666" points="363,-751.75 266,-751.75 266,-731 363,-731 363,-751.75"/>
<text text-anchor="middle" x="314.5" y="-738.25" font-family="Helvetica,sans-Serif" font-size="10.00">wrap_w2c__f451</text>
</a>
</g>
</g>
<!-- Node11&#45;&gt;Node12 -->
<g id="edge12_Node000011_Node000012" class="edge">
<title>Node11&#45;&gt;Node12</title>
<g id="a_edge12_Node000011_Node000012"><a xlink:title=" ">
<path fill="none" stroke="#63b8ff" d="M401.95,-741.38C389.53,-741.38 376,-741.38 363.4,-741.38"/>
<polygon fill="#63b8ff" stroke="#63b8ff" points="401.93,-744.88 411.93,-741.38 401.93,-737.88 401.93,-744.88"/>
</a>
</g>
</g>
<!-- Node15 -->
<g id="Node000015" class="node">
<title>Node15</title>
<g id="a_Node000015"><a xlink:href="app_8c.html#ab20b995badc9096c944ce34d08172c7e" target="_top" xlink:title=" ">
<polygon fill="white" stroke="#666666" points="363,-597.75 266,-597.75 266,-577 363,-577 363,-597.75"/>
<text text-anchor="middle" x="314.5" y="-584.25" font-family="Helvetica,sans-Serif" font-size="10.00">wrap_w2c__f399</text>
</a>
</g>
</g>
<!-- Node14&#45;&gt;Node15 -->
<g id="edge16_Node000014_Node000015" class="edge">
<title>Node14&#45;&gt;Node15</title>
<g id="a_edge16_Node000014_Node000015"><a xlink:title=" ">
<path fill="none" stroke="#63b8ff" d="M401.95,-587.38C389.53,-587.38 376,-587.38 363.4,-587.38"/>
<polygon fill="#63b8ff" stroke="#63b8ff" points="401.93,-590.88 411.93,-587.38 401.93,-583.88 401.93,-590.88"/>
</a>
</g>
</g>
<!-- Node16&#45;&gt;Node2 -->
<g id="edge24_Node000016_Node000002" class="edge">
<title>Node16&#45;&gt;Node2</title>
<g id="a_edge24_Node000016_Node000002"><a xlink:title=" ">
<path fill="none" stroke="#63b8ff" d="M577.35,-398.34C571.86,-443.16 553.41,-546.01 496,-606.38 491.93,-610.65 486.8,-614.06 481.43,-616.75"/>
<polygon fill="#63b8ff" stroke="#63b8ff" points="580.81,-398.92 578.44,-388.6 573.85,-398.15 580.81,-398.92"/>
</a>
</g>
</g>
<!-- Node16&#45;&gt;Node5 -->
<g id="edge27_Node000016_Node000005" class="edge">
<title>Node16&#45;&gt;Node5</title>
<g id="a_edge27_Node000016_Node000005"><a xlink:title=" ">
<path fill="none" stroke="#63b8ff" d="M578.72,-398.55C575.78,-448.83 561.88,-572.73 496,-645.38 492.03,-649.75 486.95,-653.2 481.6,-655.91"/>
<polygon fill="#63b8ff" stroke="#63b8ff" points="582.21,-398.84 579.19,-388.69 575.21,-398.51 582.21,-398.84"/>
</a>
</g>
</g>
<!-- Node16&#45;&gt;Node7 -->
<g id="edge28_Node000016_Node000007" class="edge">
<title>Node16&#45;&gt;Node7</title>
<g id="a_edge28_Node000016_Node000007"><a xlink:title=" ">
<path fill="none" stroke="#63b8ff" d="M535.3,-380.7C497.81,-385.51 443.23,-395.29 399,-414.38 371.12,-426.4 343.01,-448.45 327.57,-461.62"/>
<polygon fill="#63b8ff" stroke="#63b8ff" points="535.35,-384.22 544.85,-379.54 534.51,-377.27 535.35,-384.22"/>
</a>
</g>
</g>
<!-- Node16&#45;&gt;Node14 -->
<g id="edge36_Node000016_Node000014" class="edge">
<title>Node16&#45;&gt;Node14</title>
<g id="a_edge36_Node000016_Node000014"><a xlink:title=" ">
<path fill="none" stroke="#63b8ff" d="M569.92,-397.05C555.52,-427.33 526.72,-485.06 496,-530.38 484.43,-547.43 468.77,-565.44 458.65,-576.54"/>
<polygon fill="#63b8ff" stroke="#63b8ff" points="572.97,-398.78 574.06,-388.24 566.63,-395.8 572.97,-398.78"/>
</a>
</g>
</g>
<!-- Node17 -->
<g id="Node000017" class="node">
<title>Node17</title>
<g id="a_Node000017"><a xlink:href="app_8c.html#af245d5659b958eabe30540d214352ad8" target="_top" xlink:title=" ">
<polygon fill="white" stroke="#666666" points="215.38,-137.75 147.62,-137.75 147.62,-117 215.38,-117 215.38,-137.75"/>
<text text-anchor="middle" x="181.5" y="-124.25" font-family="Helvetica,sans-Serif" font-size="10.00">w2c__f197</text>
</a>
</g>
</g>
<!-- Node16&#45;&gt;Node17 -->
<g id="edge18_Node000016_Node000017" class="edge">
<title>Node16&#45;&gt;Node17</title>
<g id="a_edge18_Node000016_Node000017"><a xlink:title=" ">
<path fill="none" stroke="#63b8ff" d="M536.77,-361.28C535.02,-359.79 533.42,-358.16 532,-356.38 472.88,-281.85 566.92,-208.79 496,-145.38 455.46,-109.13 287.72,-118.44 215.65,-124.32"/>
<polygon fill="#63b8ff" stroke="#63b8ff" points="534.84,-364.2 545.13,-366.74 538.67,-358.34 534.84,-364.2"/>
</a>
</g>
</g>
<!-- Node19 -->
<g id="Node000019" class="node">
<title>Node19</title>
<g id="a_Node000019"><a xlink:href="app_8c.html#ad7bc646ff3b0753fb5d990967fcebad3" target="_top" xlink:title=" ">
<polygon fill="white" stroke="#666666" points="481.38,-328.75 413.62,-328.75 413.62,-308 481.38,-308 481.38,-328.75"/>
<text text-anchor="middle" x="447.5" y="-315.25" font-family="Helvetica,sans-Serif" font-size="10.00">w2c__f202</text>
</a>
</g>
</g>
<!-- Node16&#45;&gt;Node19 -->
<g id="edge20_Node000016_Node000019" class="edge">
<title>Node16&#45;&gt;Node19</title>
<g id="a_edge20_Node000016_Node000019"><a xlink:title=" ">
<path fill="none" stroke="#63b8ff" d="M542.91,-361.25C539.21,-359.64 535.52,-357.99 532,-356.38 515.75,-348.9 512.25,-345.85 496,-338.38 489.17,-335.23 481.71,-332 474.77,-329.07"/>
<polygon fill="#63b8ff" stroke="#63b8ff" points="541.27,-364.36 551.84,-365.08 544.03,-357.92 541.27,-364.36"/>
</a>
</g>
</g>
<!-- Node21 -->
<g id="Node000021" class="node">
<title>Node21</title>
<g id="a_Node000021"><a xlink:href="app_8c.html#a16b87571119c211bed30fa7b8b381ed7" target="_top" xlink:title=" ">
<polygon fill="white" stroke="#666666" points="481.38,-482.75 413.62,-482.75 413.62,-462 481.38,-462 481.38,-482.75"/>
<text text-anchor="middle" x="447.5" y="-469.25" font-family="Helvetica,sans-Serif" font-size="10.00">w2c__f224</text>
</a>
</g>
</g>
<!-- Node16&#45;&gt;Node21 -->
<g id="edge22_Node000016_Node000021" class="edge">
<title>Node16&#45;&gt;Node21</title>
<g id="a_edge22_Node000016_Node000021"><a xlink:title=" ">
<path fill="none" stroke="#63b8ff" d="M562.45,-395.17C546.53,-411.88 521.46,-436.11 496,-452.38 490.57,-455.84 484.44,-458.94 478.43,-461.61"/>
<polygon fill="#63b8ff" stroke="#63b8ff" points="564.6,-398.01 568.86,-388.31 559.48,-393.23 564.6,-398.01"/>
</a>
</g>
</g>
<!-- Node22 -->
<g id="Node000022" class="node">
<title>Node22</title>
<g id="a_Node000022"><a xlink:href="app_8c.html#a3b35d36403dcff081d46c10210051cdc" target="_top" xlink:title=" ">
<polygon fill="white" stroke="#666666" points="481.38,-40.75 413.62,-40.75 413.62,-20 481.38,-20 481.38,-40.75"/>
<text text-anchor="middle" x="447.5" y="-27.25" font-family="Helvetica,sans-Serif" font-size="10.00">w2c__f349</text>
</a>
</g>
</g>
<!-- Node16&#45;&gt;Node22 -->
<g id="edge25_Node000016_Node000022" class="edge">
<title>Node16&#45;&gt;Node22</title>
<g id="a_edge25_Node000016_Node000022"><a xlink:title=" ">
<path fill="none" stroke="#63b8ff" d="M536.67,-361.35C534.95,-359.85 533.38,-358.19 532,-356.38 454.35,-253.92 558.09,-181.94 496,-69.38 489.51,-57.6 477.9,-47.97 467.78,-41.22"/>
<polygon fill="#63b8ff" stroke="#63b8ff" points="534.69,-364.24 544.96,-366.87 538.57,-358.41 534.69,-364.24"/>
</a>
</g>
</g>
<!-- Node24 -->
<g id="Node000024" class="node">
<title>Node24</title>
<g id="a_Node000024"><a xlink:href="app_8c.html#a856b5cc253a6617dab0fccb7d825799e" target="_top" xlink:title=" ">
<polygon fill="white" stroke="#666666" points="481.38,-98.75 413.62,-98.75 413.62,-78 481.38,-78 481.38,-98.75"/>
<text text-anchor="middle" x="447.5" y="-85.25" font-family="Helvetica,sans-Serif" font-size="10.00">w2c__f368</text>
</a>
</g>
</g>
<!-- Node16&#45;&gt;Node24 -->
<g id="edge29_Node000016_Node000024" class="edge">
<title>Node16&#45;&gt;Node24</title>
<g id="a_edge29_Node000016_Node000024"><a xlink:title=" ">
<path fill="none" stroke="#63b8ff" d="M536.72,-361.32C534.99,-359.82 533.4,-358.18 532,-356.38 464.84,-269.74 560.11,-201.29 496,-112.38 492,-106.83 486.35,-102.48 480.32,-99.11"/>
<polygon fill="#63b8ff" stroke="#63b8ff" points="534.77,-364.22 545.04,-366.81 538.62,-358.38 534.77,-364.22"/>
</a>
</g>
</g>
<!-- Node28 -->
<g id="Node000028" class="node">
<title>Node28</title>
<g id="a_Node000028"><a xlink:href="app_8c.html#aada8f3762f0960bddf55a2e59d8087f8" target="_top" xlink:title=" ">
<polygon fill="white" stroke="#666666" points="481.38,-289.75 413.62,-289.75 413.62,-269 481.38,-269 481.38,-289.75"/>
<text text-anchor="middle" x="447.5" y="-276.25" font-family="Helvetica,sans-Serif" font-size="10.00">w2c__f375</text>
</a>
</g>
</g>
<!-- Node16&#45;&gt;Node28 -->
<g id="edge34_Node000016_Node000028" class="edge">
<title>Node16&#45;&gt;Node28</title>
<g id="a_edge34_Node000016_Node000028"><a xlink:title=" ">
<path fill="none" stroke="#63b8ff" d="M536.6,-359.88C535,-358.77 533.45,-357.61 532,-356.38 509.14,-337 518.86,-318.75 496,-299.38 491.77,-295.79 486.8,-292.77 481.7,-290.24"/>
<polygon fill="#63b8ff" stroke="#63b8ff" points="534.59,-362.75 544.99,-364.75 538.1,-356.7 534.59,-362.75"/>
</a>
</g>
</g>
<!-- Node30 -->
<g id="Node000030" class="node">
<title>Node30</title>
<g id="a_Node000030"><a xlink:href="app_8c.html#a8ca65130146e331854dff1f7ab408838" target="_top" xlink:title=" ">
<polygon fill="white" stroke="#666666" points="481.38,-367.75 413.62,-367.75 413.62,-347 481.38,-347 481.38,-367.75"/>
<text text-anchor="middle" x="447.5" y="-354.25" font-family="Helvetica,sans-Serif" font-size="10.00">w2c__f403</text>
</a>
</g>
</g>
<!-- Node16&#45;&gt;Node30 -->
<g id="edge37_Node000016_Node000030" class="edge">
<title>Node16&#45;&gt;Node30</title>
<g id="a_edge37_Node000016_Node000030"><a xlink:title=" ">
<path fill="none" stroke="#63b8ff" d="M535.28,-369.96C517.71,-367.41 497.83,-364.53 481.55,-362.17"/>
<polygon fill="#63b8ff" stroke="#63b8ff" points="534.55,-373.39 544.95,-371.36 535.55,-366.46 534.55,-373.39"/>
</a>
</g>
</g>
<!-- Node32 -->
<g id="Node000032" class="node">
<title>Node32</title>
<g id="a_Node000032"><a xlink:href="app_8c.html#accaa66b0a8b5284f9eee5ee3fb08c203" target="_top" xlink:title=" ">
<polygon fill="white" stroke="#666666" points="481.38,-213.75 413.62,-213.75 413.62,-193 481.38,-193 481.38,-213.75"/>
<text text-anchor="middle" x="447.5" y="-200.25" font-family="Helvetica,sans-Serif" font-size="10.00">w2c__f412</text>
</a>
</g>
</g>
<!-- Node16&#45;&gt;Node32 -->
<g id="edge40_Node000016_Node000032" class="edge">
<title>Node16&#45;&gt;Node32</title>
<g id="a_edge40_Node000016_Node000032"><a xlink:title=" ">
<path fill="none" stroke="#63b8ff" d="M536.83,-360.97C535.09,-359.56 533.46,-358.04 532,-356.38 492.65,-311.71 533.78,-273.38 496,-227.38 491.54,-221.95 485.55,-217.63 479.32,-214.24"/>
<polygon fill="#63b8ff" stroke="#63b8ff" points="534.7,-363.76 545.02,-366.19 538.47,-357.86 534.7,-363.76"/>
</a>
</g>
</g>
<!-- Node34 -->
<g id="Node000034" class="node">
<title>Node34</title>
<g id="a_Node000034"><a xlink:href="app_8c.html#a4e0e8b8ddb7852b111d530fef11aca0b" target="_top" xlink:title=" ">
<polygon fill="white" stroke="#666666" points="481.38,-443.75 413.62,-443.75 413.62,-423 481.38,-423 481.38,-443.75"/>
<text text-anchor="middle" x="447.5" y="-430.25" font-family="Helvetica,sans-Serif" font-size="10.00">w2c__f434</text>
</a>
</g>
</g>
<!-- Node16&#45;&gt;Node34 -->
<g id="edge42_Node000016_Node000034" class="edge">
<title>Node16&#45;&gt;Node34</title>
<g id="a_edge42_Node000016_Node000034"><a xlink:title=" ">
<path fill="none" stroke="#63b8ff" d="M544.11,-391.77C521.73,-401.51 493.36,-413.86 473.36,-422.56"/>
<polygon fill="#63b8ff" stroke="#63b8ff" points="545.39,-395.03 553.16,-387.83 542.6,-388.61 545.39,-395.03"/>
</a>
</g>
</g>
<!-- Node35 -->
<g id="Node000035" class="node">
<title>Node35</title>
<g id="a_Node000035"><a xlink:href="app_8c.html#a83755b8cd21c3725397c6ca0d8dc1f28" target="_top" xlink:title=" ">
<polygon fill="white" stroke="#666666" points="481.38,-174.75 413.62,-174.75 413.62,-154 481.38,-154 481.38,-174.75"/>
<text text-anchor="middle" x="447.5" y="-161.25" font-family="Helvetica,sans-Serif" font-size="10.00">w2c__f471</text>
</a>
</g>
</g>
<!-- Node16&#45;&gt;Node35 -->
<g id="edge44_Node000016_Node000035" class="edge">
<title>Node16&#45;&gt;Node35</title>
<g id="a_edge44_Node000016_Node000035"><a xlink:title=" ">
<path fill="none" stroke="#63b8ff" d="M537.29,-361.58C535.36,-360.01 533.57,-358.28 532,-356.38 482.33,-296.11 545.67,-244.64 496,-184.38 492.13,-179.68 486.96,-176.07 481.47,-173.29"/>
<polygon fill="#63b8ff" stroke="#63b8ff" points="534.94,-364.23 545.26,-366.64 538.7,-358.32 534.94,-364.23"/>
</a>
</g>
</g>
<!-- Node37 -->
<g id="Node000037" class="node">
<title>Node37</title>
<g id="a_Node000037"><a xlink:href="app_8c.html#a2fc108d0a1e371184535db48139b917f" target="_top" xlink:title=" ">
<polygon fill="white" stroke="#666666" points="348.38,-252.75 280.62,-252.75 280.62,-232 348.38,-232 348.38,-252.75"/>
<text text-anchor="middle" x="314.5" y="-239.25" font-family="Helvetica,sans-Serif" font-size="10.00">w2c__f545</text>
</a>
</g>
</g>
<!-- Node16&#45;&gt;Node37 -->
<g id="edge46_Node000016_Node000037" class="edge">
<title>Node16&#45;&gt;Node37</title>
<g id="a_edge46_Node000016_Node000037"><a xlink:title=" ">
<path fill="none" stroke="#63b8ff" d="M537,-360.81C535.22,-359.45 533.53,-357.97 532,-356.38 500.43,-323.52 532.12,-288.16 496,-260.38 453.57,-227.73 387.89,-230.51 348.56,-236.05"/>
<polygon fill="#63b8ff" stroke="#63b8ff" points="534.96,-363.66 545.32,-365.92 538.63,-357.7 534.96,-363.66"/>
</a>
</g>
</g>
<!-- Node38 -->
<g id="Node000038" class="node">
<title>Node38</title>
<g id="a_Node000038"><a xlink:href="app_8c.html#a3087b23f3d83de670a2a797f2ce25833" target="_top" xlink:title=" ">
<polygon fill="white" stroke="#666666" points="496,-521.75 399,-521.75 399,-501 496,-501 496,-521.75"/>
<text text-anchor="middle" x="447.5" y="-508.25" font-family="Helvetica,sans-Serif" font-size="10.00">wrap_w2c__f436</text>
</a>
</g>
</g>
<!-- Node16&#45;&gt;Node38 -->
<g id="edge48_Node000016_Node000038" class="edge">
<title>Node16&#45;&gt;Node38</title>
<g id="a_edge48_Node000016_Node000038"><a xlink:title=" ">
<path fill="none" stroke="#63b8ff" d="M569.07,-397.05C555.39,-422.35 529.17,-465.06 496,-491.38 491.51,-494.93 486.3,-497.96 481.01,-500.51"/>
<polygon fill="#63b8ff" stroke="#63b8ff" points="572.06,-398.89 573.6,-388.41 565.86,-395.64 572.06,-398.89"/>
</a>
</g>
</g>
<!-- Node18 -->
<g id="Node000018" class="node">
<title>Node18</title>
<g id="a_Node000018"><a xlink:href="app_8c.html#ac9dfe974277b0ee3fa24e73b7712fe31" target="_top" xlink:title=" ">
<polygon fill="white" stroke="#666666" points="97,-137.75 0,-137.75 0,-117 97,-117 97,-137.75"/>
<text text-anchor="middle" x="48.5" y="-124.25" font-family="Helvetica,sans-Serif" font-size="10.00">wrap_w2c__f197</text>
</a>
</g>
</g>
<!-- Node17&#45;&gt;Node18 -->
<g id="edge19_Node000017_Node000018" class="edge">
<title>Node17&#45;&gt;Node18</title>
<g id="a_edge19_Node000017_Node000018"><a xlink:title=" ">
<path fill="none" stroke="#63b8ff" d="M135.95,-127.38C123.53,-127.38 110,-127.38 97.4,-127.38"/>
<polygon fill="#63b8ff" stroke="#63b8ff" points="135.93,-130.88 145.93,-127.38 135.93,-123.88 135.93,-130.88"/>
</a>
</g>
</g>
<!-- Node20 -->
<g id="Node000020" class="node">
<title>Node20</title>
<g id="a_Node000020"><a xlink:href="app_8c.html#a1829cf9a76fc8b745da60219baa76dbf" target="_top" xlink:title=" ">
<polygon fill="white" stroke="#666666" points="363,-330.75 266,-330.75 266,-310 363,-310 363,-330.75"/>
<text text-anchor="middle" x="314.5" y="-317.25" font-family="Helvetica,sans-Serif" font-size="10.00">wrap_w2c__f202</text>
</a>
</g>
</g>
<!-- Node19&#45;&gt;Node20 -->
<g id="edge21_Node000019_Node000020" class="edge">
<title>Node19&#45;&gt;Node20</title>
<g id="a_edge21_Node000019_Node000020"><a xlink:title=" ">
<path fill="none" stroke="#63b8ff" d="M401.95,-319.06C389.53,-319.24 376,-319.45 363.4,-319.64"/>
<polygon fill="#63b8ff" stroke="#63b8ff" points="401.98,-322.56 411.93,-318.9 401.88,-315.56 401.98,-322.56"/>
</a>
</g>
</g>
<!-- Node21&#45;&gt;Node7 -->
<g id="edge23_Node000021_Node000007" class="edge">
<title>Node21&#45;&gt;Node7</title>
<g id="a_edge23_Node000021_Node000007"><a xlink:title=" ">
<path fill="none" stroke="#63b8ff" d="M402.03,-472.38C384.52,-472.38 364.76,-472.38 348.55,-472.38"/>
<polygon fill="#63b8ff" stroke="#63b8ff" points="401.93,-475.88 411.93,-472.38 401.93,-468.88 401.93,-475.88"/>
</a>
</g>
</g>
<!-- Node23 -->
<g id="Node000023" class="node">
<title>Node23</title>
<g id="a_Node000023"><a xlink:href="app_8c.html#a053e462a04712de112461bc2539f46e8" target="_top" xlink:title=" ">
<polygon fill="white" stroke="#666666" points="363,-20.75 266,-20.75 266,0 363,0 363,-20.75"/>
<text text-anchor="middle" x="314.5" y="-7.25" font-family="Helvetica,sans-Serif" font-size="10.00">wrap_w2c__f349</text>
</a>
</g>
</g>
<!-- Node22&#45;&gt;Node23 -->
<g id="edge26_Node000022_Node000023" class="edge">
<title>Node22&#45;&gt;Node23</title>
<g id="a_edge26_Node000022_Node000023"><a xlink:title=" ">
<path fill="none" stroke="#63b8ff" d="M402.33,-23.63C389.81,-21.72 376.13,-19.63 363.4,-17.69"/>
<polygon fill="#63b8ff" stroke="#63b8ff" points="401.53,-27.05 411.95,-25.1 402.59,-20.13 401.53,-27.05"/>
</a>
</g>
</g>
<!-- Node25 -->
<g id="Node000025" class="node">
<title>Node25</title>
<g id="a_Node000025"><a xlink:href="app_8c.html#a6c89af74d99f30a7ef134089421e6f69" target="_top" xlink:title=" ">
<polygon fill="white" stroke="#666666" points="348.38,-98.75 280.62,-98.75 280.62,-78 348.38,-78 348.38,-98.75"/>
<text text-anchor="middle" x="314.5" y="-85.25" font-family="Helvetica,sans-Serif" font-size="10.00">w2c__f312</text>
</a>
</g>
</g>
<!-- Node24&#45;&gt;Node25 -->
<g id="edge30_Node000024_Node000025" class="edge">
<title>Node24&#45;&gt;Node25</title>
<g id="a_edge30_Node000024_Node000025"><a xlink:title=" ">
<path fill="none" stroke="#63b8ff" d="M402.03,-88.38C384.52,-88.38 364.76,-88.38 348.55,-88.38"/>
<polygon fill="#63b8ff" stroke="#63b8ff" points="401.93,-91.88 411.93,-88.38 401.93,-84.88 401.93,-91.88"/>
</a>
</g>
</g>
<!-- Node27 -->
<g id="Node000027" class="node">
<title>Node27</title>
<g id="a_Node000027"><a xlink:href="app_8c.html#a96fb844d2cdd3b044fcd9fab6bf0fdd4" target="_top" xlink:title=" ">
<polygon fill="white" stroke="#666666" points="363,-59.75 266,-59.75 266,-39 363,-39 363,-59.75"/>
<text text-anchor="middle" x="314.5" y="-46.25" font-family="Helvetica,sans-Serif" font-size="10.00">wrap_w2c__f368</text>
</a>
</g>
</g>
<!-- Node24&#45;&gt;Node27 -->
<g id="edge33_Node000024_Node000027" class="edge">
<title>Node24&#45;&gt;Node27</title>
<g id="a_edge33_Node000024_Node000027"><a xlink:title=" ">
<path fill="none" stroke="#63b8ff" d="M402.43,-75.25C385.96,-70.35 367.46,-64.84 351.77,-60.17"/>
<polygon fill="#63b8ff" stroke="#63b8ff" points="401.41,-78.6 411.99,-78.1 403.41,-71.89 401.41,-78.6"/>
</a>
</g>
</g>
<!-- Node25&#45;&gt;Node17 -->
<g id="edge31_Node000025_Node000017" class="edge">
<title>Node25&#45;&gt;Node17</title>
<g id="a_edge31_Node000025_Node000017"><a xlink:title=" ">
<path fill="none" stroke="#63b8ff" d="M269.54,-101.46C251.9,-106.72 231.91,-112.66 215.55,-117.54"/>
<polygon fill="#63b8ff" stroke="#63b8ff" points="270.41,-104.86 278.99,-98.65 268.41,-98.15 270.41,-104.86"/>
</a>
</g>
</g>
<!-- Node26 -->
<g id="Node000026" class="node">
<title>Node26</title>
<g id="a_Node000026"><a xlink:href="app_8c.html#a07d438f3519d306b5f50b93149af1f10" target="_top" xlink:title=" ">
<polygon fill="white" stroke="#666666" points="230,-98.75 133,-98.75 133,-78 230,-78 230,-98.75"/>
<text text-anchor="middle" x="181.5" y="-85.25" font-family="Helvetica,sans-Serif" font-size="10.00">wrap_w2c__f312</text>
</a>
</g>
</g>
<!-- Node25&#45;&gt;Node26 -->
<g id="edge32_Node000025_Node000026" class="edge">
<title>Node25&#45;&gt;Node26</title>
<g id="a_edge32_Node000025_Node000026"><a xlink:title=" ">
<path fill="none" stroke="#63b8ff" d="M268.95,-88.38C256.53,-88.38 243,-88.38 230.4,-88.38"/>
<polygon fill="#63b8ff" stroke="#63b8ff" points="268.93,-91.88 278.93,-88.38 268.93,-84.88 268.93,-91.88"/>
</a>
</g>
</g>
<!-- Node29 -->
<g id="Node000029" class="node">
<title>Node29</title>
<g id="a_Node000029"><a xlink:href="app_8c.html#a1dbeefc302b8764476968e13a8f8ad87" target="_top" xlink:title=" ">
<polygon fill="white" stroke="#666666" points="363,-291.75 266,-291.75 266,-271 363,-271 363,-291.75"/>
<text text-anchor="middle" x="314.5" y="-278.25" font-family="Helvetica,sans-Serif" font-size="10.00">wrap_w2c__f375</text>
</a>
</g>
</g>
<!-- Node28&#45;&gt;Node29 -->
<g id="edge35_Node000028_Node000029" class="edge">
<title>Node28&#45;&gt;Node29</title>
<g id="a_edge35_Node000028_Node000029"><a xlink:title=" ">
<path fill="none" stroke="#63b8ff" d="M401.95,-280.06C389.53,-280.24 376,-280.45 363.4,-280.64"/>
<polygon fill="#63b8ff" stroke="#63b8ff" points="401.98,-283.56 411.93,-279.9 401.88,-276.56 401.98,-283.56"/>
</a>
</g>
</g>
<!-- Node30&#45;&gt;Node7 -->
<g id="edge38_Node000030_Node000007" class="edge">
<title>Node30&#45;&gt;Node7</title>
<g id="a_edge38_Node000030_Node000007"><a xlink:title=" ">
<path fill="none" stroke="#63b8ff" d="M411.04,-373.48C406.84,-375.91 402.73,-378.55 399,-381.38 366.86,-405.71 336.9,-443.38 323.24,-461.67"/>
<polygon fill="#63b8ff" stroke="#63b8ff" points="412.35,-376.75 419.51,-368.94 409.04,-370.58 412.35,-376.75"/>
</a>
</g>
</g>
<!-- Node31 -->
<g id="Node000031" class="node">
<title>Node31</title>
<g id="a_Node000031"><a xlink:href="app_8c.html#a885292c3b5a188c8ec4568afbe3c2556" target="_top" xlink:title=" ">
<polygon fill="white" stroke="#666666" points="363,-369.75 266,-369.75 266,-349 363,-349 363,-369.75"/>
<text text-anchor="middle" x="314.5" y="-356.25" font-family="Helvetica,sans-Serif" font-size="10.00">wrap_w2c__f403</text>
</a>
</g>
</g>
<!-- Node30&#45;&gt;Node31 -->
<g id="edge39_Node000030_Node000031" class="edge">
<title>Node30&#45;&gt;Node31</title>
<g id="a_edge39_Node000030_Node000031"><a xlink:title=" ">
<path fill="none" stroke="#63b8ff" d="M401.95,-358.06C389.53,-358.24 376,-358.45 363.4,-358.64"/>
<polygon fill="#63b8ff" stroke="#63b8ff" points="401.98,-361.56 411.93,-357.9 401.88,-354.56 401.98,-361.56"/>
</a>
</g>
</g>
<!-- Node33 -->
<g id="Node000033" class="node">
<title>Node33</title>
<g id="a_Node000033"><a xlink:href="app_8c.html#ad7e6219b365d4df9ffa2a21183e954f2" target="_top" xlink:title=" ">
<polygon fill="white" stroke="#666666" points="363,-213.75 266,-213.75 266,-193 363,-193 363,-213.75"/>
<text text-anchor="middle" x="314.5" y="-200.25" font-family="Helvetica,sans-Serif" font-size="10.00">wrap_w2c__f412</text>
</a>
</g>
</g>
<!-- Node32&#45;&gt;Node33 -->
<g id="edge41_Node000032_Node000033" class="edge">
<title>Node32&#45;&gt;Node33</title>
<g id="a_edge41_Node000032_Node000033"><a xlink:title=" ">
<path fill="none" stroke="#63b8ff" d="M401.95,-203.38C389.53,-203.38 376,-203.38 363.4,-203.38"/>
<polygon fill="#63b8ff" stroke="#63b8ff" points="401.93,-206.88 411.93,-203.38 401.93,-199.88 401.93,-206.88"/>
</a>
</g>
</g>
<!-- Node34&#45;&gt;Node7 -->
<g id="edge43_Node000034_Node000007" class="edge">
<title>Node34&#45;&gt;Node7</title>
<g id="a_edge43_Node000034_Node000007"><a xlink:title=" ">
<path fill="none" stroke="#63b8ff" d="M402.54,-446.46C384.9,-451.72 364.91,-457.66 348.55,-462.54"/>
<polygon fill="#63b8ff" stroke="#63b8ff" points="403.41,-449.86 411.99,-443.65 401.41,-443.15 403.41,-449.86"/>
</a>
</g>
</g>
<!-- Node36 -->
<g id="Node000036" class="node">
<title>Node36</title>
<g id="a_Node000036"><a xlink:href="app_8c.html#a6b5632f950c10613ca99f4746ff29f36" target="_top" xlink:title=" ">
<polygon fill="white" stroke="#666666" points="363,-174.75 266,-174.75 266,-154 363,-154 363,-174.75"/>
<text text-anchor="middle" x="314.5" y="-161.25" font-family="Helvetica,sans-Serif" font-size="10.00">wrap_w2c__f471</text>
</a>
</g>
</g>
<!-- Node35&#45;&gt;Node36 -->
<g id="edge45_Node000035_Node000036" class="edge">
<title>Node35&#45;&gt;Node36</title>
<g id="a_edge45_Node000035_Node000036"><a xlink:title=" ">
<path fill="none" stroke="#63b8ff" d="M401.95,-164.38C389.53,-164.38 376,-164.38 363.4,-164.38"/>
<polygon fill="#63b8ff" stroke="#63b8ff" points="401.93,-167.88 411.93,-164.38 401.93,-160.88 401.93,-167.88"/>
</a>
</g>
</g>
<!-- Node37&#45;&gt;Node17 -->
<g id="edge47_Node000037_Node000017" class="edge">
<title>Node37&#45;&gt;Node17</title>
<g id="a_edge47_Node000037_Node000017"><a xlink:title=" ">
<path fill="none" stroke="#63b8ff" d="M272.08,-226.32C269.97,-225.08 267.93,-223.76 266,-222.38 232.14,-197.99 202.55,-157.47 189.54,-138.2"/>
<polygon fill="#63b8ff" stroke="#63b8ff" points="270.43,-229.41 280.92,-230.91 273.66,-223.2 270.43,-229.41"/>
</a>
</g>
</g>
</g>
</svg>
