<?xml version="1.0" encoding="UTF-8" standalone="no"?>
<!DOCTYPE svg PUBLIC "-//W3C//DTD SVG 1.1//EN"
 "http://www.w3.org/Graphics/SVG/1.1/DTD/svg11.dtd">
<!-- Generated by graphviz version 12.2.1 (0)
 -->
<!-- Title: w2c__f332 Pages: 1 -->
<svg width="695pt" height="415pt"
 viewBox="0.00 0.00 695.00 414.75" xmlns="http://www.w3.org/2000/svg" xmlns:xlink="http://www.w3.org/1999/xlink">
<g id="graph0" class="graph" transform="scale(1 1) rotate(0) translate(4 410.75)">
<title>w2c__f332</title>
<!-- Node1 -->
<g id="Node000001" class="node">
<title>Node1</title>
<g id="a_Node000001"><a xlink:title=" ">
<polygon fill="#999999" stroke="#666666" points="687,-97.75 619.25,-97.75 619.25,-77 687,-77 687,-97.75"/>
<text text-anchor="middle" x="653.12" y="-84.25" font-family="Helvetica,sans-Serif" font-size="10.00">w2c__f332</text>
</a>
</g>
</g>
<!-- Node2 -->
<g id="Node000002" class="node">
<title>Node2</title>
<g id="a_Node000002"><a xlink:href="app_8c.html#aaecdbe8af0d0258948228167c29a538b" target="_top" xlink:title=" ">
<polygon fill="white" stroke="#666666" points="568.62,-211.75 500.88,-211.75 500.88,-191 568.62,-191 568.62,-211.75"/>
<text text-anchor="middle" x="534.75" y="-198.25" font-family="Helvetica,sans-Serif" font-size="10.00">w2c__f241</text>
</a>
</g>
</g>
<!-- Node1&#45;&gt;Node2 -->
<g id="edge1_Node000001_Node000002" class="edge">
<title>Node1&#45;&gt;Node2</title>
<g id="a_edge1_Node000001_Node000002"><a xlink:title=" ">
<path fill="none" stroke="#63b8ff" d="M633.21,-105.9C608.68,-129.93 566.68,-171.07 546.8,-190.55"/>
<polygon fill="#63b8ff" stroke="#63b8ff" points="635.61,-108.45 640.3,-98.95 630.71,-103.45 635.61,-108.45"/>
</a>
</g>
</g>
<!-- Node7 -->
<g id="Node000007" class="node">
<title>Node7</title>
<g id="a_Node000007"><a xlink:href="app_8c.html#a5677ffd129da8cd63b876545b8187d77" target="_top" xlink:title=" ">
<polygon fill="white" stroke="#666666" points="302.62,-116.75 234.88,-116.75 234.88,-96 302.62,-96 302.62,-116.75"/>
<text text-anchor="middle" x="268.75" y="-103.25" font-family="Helvetica,sans-Serif" font-size="10.00">w2c__f367</text>
</a>
</g>
</g>
<!-- Node1&#45;&gt;Node7 -->
<g id="edge15_Node000001_Node000007" class="edge">
<title>Node1&#45;&gt;Node7</title>
<g id="a_edge15_Node000001_Node000007"><a xlink:title=" ">
<path fill="none" stroke="#63b8ff" d="M607.57,-89.59C529.97,-93.44 371.74,-101.31 302.94,-104.73"/>
<polygon fill="#63b8ff" stroke="#63b8ff" points="607.54,-93.1 617.35,-89.1 607.19,-86.1 607.54,-93.1"/>
</a>
</g>
</g>
<!-- Node15 -->
<g id="Node000015" class="node">
<title>Node15</title>
<g id="a_Node000015"><a xlink:href="app_8c.html#affed7b4e730191b8eb2ae859a9d3e4b2" target="_top" xlink:title=" ">
<polygon fill="white" stroke="#666666" points="568.62,-328.75 500.88,-328.75 500.88,-308 568.62,-308 568.62,-328.75"/>
<text text-anchor="middle" x="534.75" y="-315.25" font-family="Helvetica,sans-Serif" font-size="10.00">w2c__f426</text>
</a>
</g>
</g>
<!-- Node1&#45;&gt;Node15 -->
<g id="edge16_Node000001_Node000015" class="edge">
<title>Node1&#45;&gt;Node15</title>
<g id="a_edge16_Node000001_Node000015"><a xlink:title=" ">
<path fill="none" stroke="#63b8ff" d="M641.58,-108.31C617.52,-156.06 559.27,-271.68 541.2,-307.57"/>
<polygon fill="#63b8ff" stroke="#63b8ff" points="644.61,-110.06 645.99,-99.56 638.36,-106.91 644.61,-110.06"/>
</a>
</g>
</g>
<!-- Node19 -->
<g id="Node000019" class="node">
<title>Node19</title>
<g id="a_Node000019"><a xlink:href="app_8c.html#a8e782c1e475253bfb6f6572258dd2dca" target="_top" xlink:title=" ">
<polygon fill="white" stroke="#666666" points="568.62,-59.75 500.88,-59.75 500.88,-39 568.62,-39 568.62,-59.75"/>
<text text-anchor="middle" x="534.75" y="-46.25" font-family="Helvetica,sans-Serif" font-size="10.00">w2c__f559</text>
</a>
</g>
</g>
<!-- Node1&#45;&gt;Node19 -->
<g id="edge22_Node000001_Node000019" class="edge">
<title>Node1&#45;&gt;Node19</title>
<g id="a_edge22_Node000001_Node000019"><a xlink:title=" ">
<path fill="none" stroke="#63b8ff" d="M608.4,-73.1C595.3,-68.82 581.16,-64.2 568.87,-60.19"/>
<polygon fill="#63b8ff" stroke="#63b8ff" points="607.06,-76.34 617.65,-76.12 609.23,-69.69 607.06,-76.34"/>
</a>
</g>
</g>
<!-- Node20 -->
<g id="Node000020" class="node">
<title>Node20</title>
<g id="a_Node000020"><a xlink:href="app_8c.html#ad739f35919660847e6660dfce3b1c3a5" target="_top" xlink:title=" ">
<polygon fill="white" stroke="#666666" points="583.25,-20.75 486.25,-20.75 486.25,0 583.25,0 583.25,-20.75"/>
<text text-anchor="middle" x="534.75" y="-7.25" font-family="Helvetica,sans-Serif" font-size="10.00">wrap_w2c__f332</text>
</a>
</g>
</g>
<!-- Node1&#45;&gt;Node20 -->
<g id="edge24_Node000001_Node000020" class="edge">
<title>Node1&#45;&gt;Node20</title>
<g id="a_edge24_Node000001_Node000020"><a xlink:title=" ">
<path fill="none" stroke="#63b8ff" d="M632.96,-68.89C619.75,-56.83 601.37,-41.36 583.25,-30.38 577.66,-26.99 571.4,-23.91 565.3,-21.23"/>
<polygon fill="#63b8ff" stroke="#63b8ff" points="630.4,-71.29 640.1,-75.56 635.18,-66.18 630.4,-71.29"/>
</a>
</g>
</g>
<!-- Node3 -->
<g id="Node000003" class="node">
<title>Node3</title>
<g id="a_Node000003"><a xlink:href="app_8c.html#af245d5659b958eabe30540d214352ad8" target="_top" xlink:title=" ">
<polygon fill="white" stroke="#666666" points="435.62,-328.75 367.88,-328.75 367.88,-308 435.62,-308 435.62,-328.75"/>
<text text-anchor="middle" x="401.75" y="-315.25" font-family="Helvetica,sans-Serif" font-size="10.00">w2c__f197</text>
</a>
</g>
</g>
<!-- Node2&#45;&gt;Node3 -->
<g id="edge2_Node000002_Node000003" class="edge">
<title>Node2&#45;&gt;Node3</title>
<g id="a_edge2_Node000002_Node000003"><a xlink:title=" ">
<path fill="none" stroke="#63b8ff" d="M520.6,-221.59C505.74,-243.09 479.74,-276.91 450.25,-298.38 445.33,-301.96 439.67,-305.05 434.02,-307.65"/>
<polygon fill="#63b8ff" stroke="#63b8ff" points="523.44,-223.63 526.12,-213.38 517.64,-219.72 523.44,-223.63"/>
</a>
</g>
</g>
<!-- Node5 -->
<g id="Node000005" class="node">
<title>Node5</title>
<g id="a_Node000005"><a xlink:href="app_8c.html#a3b35d36403dcff081d46c10210051cdc" target="_top" xlink:title=" ">
<polygon fill="white" stroke="#666666" points="435.62,-289.75 367.88,-289.75 367.88,-269 435.62,-269 435.62,-289.75"/>
<text text-anchor="middle" x="401.75" y="-276.25" font-family="Helvetica,sans-Serif" font-size="10.00">w2c__f349</text>
</a>
</g>
</g>
<!-- Node2&#45;&gt;Node5 -->
<g id="edge4_Node000002_Node000005" class="edge">
<title>Node2&#45;&gt;Node5</title>
<g id="a_edge4_Node000002_Node000005"><a xlink:title=" ">
<path fill="none" stroke="#63b8ff" d="M511.34,-218.86C494.99,-231.14 471.97,-247.43 450.25,-259.38 444.21,-262.7 437.51,-265.83 431.09,-268.58"/>
<polygon fill="#63b8ff" stroke="#63b8ff" points="513.1,-221.92 518.94,-213.08 508.86,-216.35 513.1,-221.92"/>
</a>
</g>
</g>
<!-- Node2&#45;&gt;Node7 -->
<g id="edge6_Node000002_Node000007" class="edge">
<title>Node2&#45;&gt;Node7</title>
<g id="a_edge6_Node000002_Node000007"><a xlink:title=" ">
<path fill="none" stroke="#63b8ff" d="M489.53,-189.04C452.67,-178.37 398.99,-161.93 353.25,-144.38 331.84,-136.16 308.09,-125.16 291.42,-117.11"/>
<polygon fill="#63b8ff" stroke="#63b8ff" points="488.37,-192.35 498.94,-191.74 490.3,-185.62 488.37,-192.35"/>
</a>
</g>
</g>
<!-- Node11 -->
<g id="Node000011" class="node">
<title>Node11</title>
<g id="a_Node000011"><a xlink:href="app_8c.html#a4e0e8b8ddb7852b111d530fef11aca0b" target="_top" xlink:title=" ">
<polygon fill="white" stroke="#666666" points="435.62,-135.75 367.88,-135.75 367.88,-115 435.62,-115 435.62,-135.75"/>
<text text-anchor="middle" x="401.75" y="-122.25" font-family="Helvetica,sans-Serif" font-size="10.00">w2c__f434</text>
</a>
</g>
</g>
<!-- Node2&#45;&gt;Node11 -->
<g id="edge10_Node000002_Node000011" class="edge">
<title>Node2&#45;&gt;Node11</title>
<g id="a_edge10_Node000002_Node000011"><a xlink:title=" ">
<path fill="none" stroke="#63b8ff" d="M507.97,-184.49C491.65,-174.01 469.97,-160.47 450.25,-149.38 442.2,-144.85 433.19,-140.19 425.2,-136.2"/>
<polygon fill="#63b8ff" stroke="#63b8ff" points="505.81,-187.26 516.11,-189.75 509.61,-181.38 505.81,-187.26"/>
</a>
</g>
</g>
<!-- Node12 -->
<g id="Node000012" class="node">
<title>Node12</title>
<g id="a_Node000012"><a xlink:href="app_8c.html#a83755b8cd21c3725397c6ca0d8dc1f28" target="_top" xlink:title=" ">
<polygon fill="white" stroke="#666666" points="435.62,-250.75 367.88,-250.75 367.88,-230 435.62,-230 435.62,-250.75"/>
<text text-anchor="middle" x="401.75" y="-237.25" font-family="Helvetica,sans-Serif" font-size="10.00">w2c__f471</text>
</a>
</g>
</g>
<!-- Node2&#45;&gt;Node12 -->
<g id="edge12_Node000002_Node000012" class="edge">
<title>Node2&#45;&gt;Node12</title>
<g id="a_edge12_Node000002_Node000012"><a xlink:title=" ">
<path fill="none" stroke="#63b8ff" d="M489.79,-214.46C472.15,-219.72 452.16,-225.66 435.8,-230.54"/>
<polygon fill="#63b8ff" stroke="#63b8ff" points="490.66,-217.86 499.24,-211.65 488.66,-211.15 490.66,-217.86"/>
</a>
</g>
</g>
<!-- Node14 -->
<g id="Node000014" class="node">
<title>Node14</title>
<g id="a_Node000014"><a xlink:href="app_8c.html#a45a77e2bb896e73245a23486ebe0a307" target="_top" xlink:title=" ">
<polygon fill="white" stroke="#666666" points="450.25,-211.75 353.25,-211.75 353.25,-191 450.25,-191 450.25,-211.75"/>
<text text-anchor="middle" x="401.75" y="-198.25" font-family="Helvetica,sans-Serif" font-size="10.00">wrap_w2c__f241</text>
</a>
</g>
</g>
<!-- Node2&#45;&gt;Node14 -->
<g id="edge14_Node000002_Node000014" class="edge">
<title>Node2&#45;&gt;Node14</title>
<g id="a_edge14_Node000002_Node000014"><a xlink:title=" ">
<path fill="none" stroke="#63b8ff" d="M489.2,-201.38C476.78,-201.38 463.25,-201.38 450.65,-201.38"/>
<polygon fill="#63b8ff" stroke="#63b8ff" points="489.18,-204.88 499.18,-201.38 489.18,-197.88 489.18,-204.88"/>
</a>
</g>
</g>
<!-- Node4 -->
<g id="Node000004" class="node">
<title>Node4</title>
<g id="a_Node000004"><a xlink:href="app_8c.html#ac9dfe974277b0ee3fa24e73b7712fe31" target="_top" xlink:title=" ">
<polygon fill="white" stroke="#666666" points="317.25,-328.75 220.25,-328.75 220.25,-308 317.25,-308 317.25,-328.75"/>
<text text-anchor="middle" x="268.75" y="-315.25" font-family="Helvetica,sans-Serif" font-size="10.00">wrap_w2c__f197</text>
</a>
</g>
</g>
<!-- Node3&#45;&gt;Node4 -->
<g id="edge3_Node000003_Node000004" class="edge">
<title>Node3&#45;&gt;Node4</title>
<g id="a_edge3_Node000003_Node000004"><a xlink:title=" ">
<path fill="none" stroke="#63b8ff" d="M356.2,-318.38C343.78,-318.38 330.25,-318.38 317.65,-318.38"/>
<polygon fill="#63b8ff" stroke="#63b8ff" points="356.18,-321.88 366.18,-318.38 356.18,-314.88 356.18,-321.88"/>
</a>
</g>
</g>
<!-- Node6 -->
<g id="Node000006" class="node">
<title>Node6</title>
<g id="a_Node000006"><a xlink:href="app_8c.html#a053e462a04712de112461bc2539f46e8" target="_top" xlink:title=" ">
<polygon fill="white" stroke="#666666" points="317.25,-289.75 220.25,-289.75 220.25,-269 317.25,-269 317.25,-289.75"/>
<text text-anchor="middle" x="268.75" y="-276.25" font-family="Helvetica,sans-Serif" font-size="10.00">wrap_w2c__f349</text>
</a>
</g>
</g>
<!-- Node5&#45;&gt;Node6 -->
<g id="edge5_Node000005_Node000006" class="edge">
<title>Node5&#45;&gt;Node6</title>
<g id="a_edge5_Node000005_Node000006"><a xlink:title=" ">
<path fill="none" stroke="#63b8ff" d="M356.2,-279.38C343.78,-279.38 330.25,-279.38 317.65,-279.38"/>
<polygon fill="#63b8ff" stroke="#63b8ff" points="356.18,-282.88 366.18,-279.38 356.18,-275.88 356.18,-282.88"/>
</a>
</g>
</g>
<!-- Node8 -->
<g id="Node000008" class="node">
<title>Node8</title>
<g id="a_Node000008"><a xlink:href="app_8c.html#ac863989691d4c389f80374209c220171" target="_top" xlink:title=" ">
<polygon fill="white" stroke="#666666" points="167,-136.75 104.5,-136.75 104.5,-116 167,-116 167,-136.75"/>
<text text-anchor="middle" x="135.75" y="-123.25" font-family="Helvetica,sans-Serif" font-size="10.00">w2c__c_0</text>
</a>
</g>
</g>
<!-- Node7&#45;&gt;Node8 -->
<g id="edge7_Node000007_Node000008" class="edge">
<title>Node7&#45;&gt;Node8</title>
<g id="a_edge7_Node000007_Node000008"><a xlink:title=" ">
<path fill="none" stroke="#63b8ff" d="M223.53,-113.13C204.97,-115.96 183.86,-119.18 167.1,-121.74"/>
<polygon fill="#63b8ff" stroke="#63b8ff" points="223.84,-116.62 233.2,-111.65 222.78,-109.7 223.84,-116.62"/>
</a>
</g>
</g>
<!-- Node10 -->
<g id="Node000010" class="node">
<title>Node10</title>
<g id="a_Node000010"><a xlink:href="app_8c.html#a8f64ccad6c506a1ca514ba4f43e5211c" target="_top" xlink:title=" ">
<polygon fill="white" stroke="#666666" points="184.25,-97.75 87.25,-97.75 87.25,-77 184.25,-77 184.25,-97.75"/>
<text text-anchor="middle" x="135.75" y="-84.25" font-family="Helvetica,sans-Serif" font-size="10.00">wrap_w2c__f367</text>
</a>
</g>
</g>
<!-- Node7&#45;&gt;Node10 -->
<g id="edge9_Node000007_Node000010" class="edge">
<title>Node7&#45;&gt;Node10</title>
<g id="a_edge9_Node000007_Node000010"><a xlink:title=" ">
<path fill="none" stroke="#63b8ff" d="M223.58,-99.97C211.06,-98.15 197.38,-96.17 184.65,-94.32"/>
<polygon fill="#63b8ff" stroke="#63b8ff" points="222.8,-103.39 233.2,-101.36 223.8,-96.46 222.8,-103.39"/>
</a>
</g>
</g>
<!-- Node9 -->
<g id="Node000009" class="node">
<title>Node9</title>
<g id="a_Node000009"><a xlink:href="app_8c.html#ab1e039392ea68017ab8a6063263b147d" target="_top" xlink:title=" ">
<polygon fill="white" stroke="#666666" points="51.25,-136.75 0,-136.75 0,-116 51.25,-116 51.25,-136.75"/>
<text text-anchor="middle" x="25.62" y="-123.25" font-family="Helvetica,sans-Serif" font-size="10.00">w2c__c</text>
</a>
</g>
</g>
<!-- Node8&#45;&gt;Node9 -->
<g id="edge8_Node000008_Node000009" class="edge">
<title>Node8&#45;&gt;Node9</title>
<g id="a_edge8_Node000008_Node000009"><a xlink:title=" ">
<path fill="none" stroke="#63b8ff" d="M92.72,-126.38C78.81,-126.38 63.78,-126.38 51.57,-126.38"/>
<polygon fill="#63b8ff" stroke="#63b8ff" points="92.54,-129.88 102.54,-126.38 92.54,-122.88 92.54,-129.88"/>
</a>
</g>
</g>
<!-- Node11&#45;&gt;Node7 -->
<g id="edge11_Node000011_Node000007" class="edge">
<title>Node11&#45;&gt;Node7</title>
<g id="a_edge11_Node000011_Node000007"><a xlink:title=" ">
<path fill="none" stroke="#63b8ff" d="M356.53,-118.96C338.96,-116.41 319.08,-113.53 302.8,-111.17"/>
<polygon fill="#63b8ff" stroke="#63b8ff" points="355.8,-122.39 366.2,-120.36 356.8,-115.46 355.8,-122.39"/>
</a>
</g>
</g>
<!-- Node13 -->
<g id="Node000013" class="node">
<title>Node13</title>
<g id="a_Node000013"><a xlink:href="app_8c.html#a6b5632f950c10613ca99f4746ff29f36" target="_top" xlink:title=" ">
<polygon fill="white" stroke="#666666" points="317.25,-250.75 220.25,-250.75 220.25,-230 317.25,-230 317.25,-250.75"/>
<text text-anchor="middle" x="268.75" y="-237.25" font-family="Helvetica,sans-Serif" font-size="10.00">wrap_w2c__f471</text>
</a>
</g>
</g>
<!-- Node12&#45;&gt;Node13 -->
<g id="edge13_Node000012_Node000013" class="edge">
<title>Node12&#45;&gt;Node13</title>
<g id="a_edge13_Node000012_Node000013"><a xlink:title=" ">
<path fill="none" stroke="#63b8ff" d="M356.2,-240.38C343.78,-240.38 330.25,-240.38 317.65,-240.38"/>
<polygon fill="#63b8ff" stroke="#63b8ff" points="356.18,-243.88 366.18,-240.38 356.18,-236.88 356.18,-243.88"/>
</a>
</g>
</g>
<!-- Node15&#45;&gt;Node3 -->
<g id="edge17_Node000015_Node000003" class="edge">
<title>Node15&#45;&gt;Node3</title>
<g id="a_edge17_Node000015_Node000003"><a xlink:title=" ">
<path fill="none" stroke="#63b8ff" d="M489.28,-318.38C471.77,-318.38 452.01,-318.38 435.8,-318.38"/>
<polygon fill="#63b8ff" stroke="#63b8ff" points="489.18,-321.88 499.18,-318.38 489.18,-314.88 489.18,-321.88"/>
</a>
</g>
</g>
<!-- Node15&#45;&gt;Node5 -->
<g id="edge20_Node000015_Node000005" class="edge">
<title>Node15&#45;&gt;Node5</title>
<g id="a_edge20_Node000015_Node000005"><a xlink:title=" ">
<path fill="none" stroke="#63b8ff" d="M489.79,-305.29C472.15,-300.03 452.16,-294.09 435.8,-289.21"/>
<polygon fill="#63b8ff" stroke="#63b8ff" points="488.66,-308.6 499.24,-308.1 490.66,-301.89 488.66,-308.6"/>
</a>
</g>
</g>
<!-- Node16 -->
<g id="Node000016" class="node">
<title>Node16</title>
<g id="a_Node000016"><a xlink:href="app_8c.html#aabc3b06c7f7daa21796552c728f0379b" target="_top" xlink:title=" ">
<polygon fill="white" stroke="#666666" points="435.62,-406.75 367.88,-406.75 367.88,-386 435.62,-386 435.62,-406.75"/>
<text text-anchor="middle" x="401.75" y="-393.25" font-family="Helvetica,sans-Serif" font-size="10.00">w2c__f270</text>
</a>
</g>
</g>
<!-- Node15&#45;&gt;Node16 -->
<g id="edge18_Node000015_Node000016" class="edge">
<title>Node15&#45;&gt;Node16</title>
<g id="a_edge18_Node000015_Node000016"><a xlink:title=" ">
<path fill="none" stroke="#63b8ff" d="M511.34,-335.86C494.99,-348.14 471.97,-364.43 450.25,-376.38 444.21,-379.7 437.51,-382.83 431.09,-385.58"/>
<polygon fill="#63b8ff" stroke="#63b8ff" points="513.1,-338.92 518.94,-330.08 508.86,-333.35 513.1,-338.92"/>
</a>
</g>
</g>
<!-- Node18 -->
<g id="Node000018" class="node">
<title>Node18</title>
<g id="a_Node000018"><a xlink:href="app_8c.html#ae1beb332ba7551f1acff2f46930c4e85" target="_top" xlink:title=" ">
<polygon fill="white" stroke="#666666" points="450.25,-367.75 353.25,-367.75 353.25,-347 450.25,-347 450.25,-367.75"/>
<text text-anchor="middle" x="401.75" y="-354.25" font-family="Helvetica,sans-Serif" font-size="10.00">wrap_w2c__f426</text>
</a>
</g>
</g>
<!-- Node15&#45;&gt;Node18 -->
<g id="edge21_Node000015_Node000018" class="edge">
<title>Node15&#45;&gt;Node18</title>
<g id="a_edge21_Node000015_Node000018"><a xlink:title=" ">
<path fill="none" stroke="#63b8ff" d="M489.68,-331.5C473.21,-336.4 454.71,-341.91 439.02,-346.58"/>
<polygon fill="#63b8ff" stroke="#63b8ff" points="490.66,-334.86 499.24,-328.65 488.66,-328.15 490.66,-334.86"/>
</a>
</g>
</g>
<!-- Node17 -->
<g id="Node000017" class="node">
<title>Node17</title>
<g id="a_Node000017"><a xlink:href="app_8c.html#a54f194530158831aa826ddabfd869e3f" target="_top" xlink:title=" ">
<polygon fill="white" stroke="#666666" points="317.25,-406.75 220.25,-406.75 220.25,-386 317.25,-386 317.25,-406.75"/>
<text text-anchor="middle" x="268.75" y="-393.25" font-family="Helvetica,sans-Serif" font-size="10.00">wrap_w2c__f270</text>
</a>
</g>
</g>
<!-- Node16&#45;&gt;Node17 -->
<g id="edge19_Node000016_Node000017" class="edge">
<title>Node16&#45;&gt;Node17</title>
<g id="a_edge19_Node000016_Node000017"><a xlink:title=" ">
<path fill="none" stroke="#63b8ff" d="M356.2,-396.38C343.78,-396.38 330.25,-396.38 317.65,-396.38"/>
<polygon fill="#63b8ff" stroke="#63b8ff" points="356.18,-399.88 366.18,-396.38 356.18,-392.88 356.18,-399.88"/>
</a>
</g>
</g>
<!-- Node19&#45;&gt;Node7 -->
<g id="edge23_Node000019_Node000007" class="edge">
<title>Node19&#45;&gt;Node7</title>
<g id="a_edge23_Node000019_Node000007"><a xlink:title=" ">
<path fill="none" stroke="#63b8ff" d="M489.32,-52.25C452.42,-55.35 398.8,-61.54 353.25,-73.38 332.13,-78.86 309.14,-88.22 292.64,-95.57"/>
<polygon fill="#63b8ff" stroke="#63b8ff" points="489.48,-55.74 499.17,-51.46 488.92,-48.77 489.48,-55.74"/>
</a>
</g>
</g>
</g>
</svg>
