<?xml version="1.0" encoding="UTF-8" standalone="no"?>
<!DOCTYPE svg PUBLIC "-//W3C//DTD SVG 1.1//EN"
 "http://www.w3.org/Graphics/SVG/1.1/DTD/svg11.dtd">
<!-- Generated by graphviz version 12.2.1 (0)
 -->
<!-- Title: w2c__f305 Pages: 1 -->
<svg width="782pt" height="722pt"
 viewBox="0.00 0.00 781.75 721.75" xmlns="http://www.w3.org/2000/svg" xmlns:xlink="http://www.w3.org/1999/xlink">
<g id="graph0" class="graph" transform="scale(1 1) rotate(0) translate(4 717.75)">
<title>w2c__f305</title>
<!-- Node1 -->
<g id="Node000001" class="node">
<title>Node1</title>
<g id="a_Node000001"><a xlink:title=" ">
<polygon fill="#999999" stroke="#666666" points="773.75,-351.75 706,-351.75 706,-331 773.75,-331 773.75,-351.75"/>
<text text-anchor="middle" x="739.88" y="-338.25" font-family="Helvetica,sans-Serif" font-size="10.00">w2c__f305</text>
</a>
</g>
</g>
<!-- Node2 -->
<g id="Node000002" class="node">
<title>Node2</title>
<g id="a_Node000002"><a xlink:href="app_8c.html#a9a9275782eb97e6525073f99d900b184" target="_top" xlink:title=" ">
<polygon fill="white" stroke="#666666" points="670,-713.75 602.25,-713.75 602.25,-693 670,-693 670,-713.75"/>
<text text-anchor="middle" x="636.12" y="-700.25" font-family="Helvetica,sans-Serif" font-size="10.00">w2c__f217</text>
</a>
</g>
</g>
<!-- Node1&#45;&gt;Node2 -->
<g id="edge1_Node000001_Node000002" class="edge">
<title>Node1&#45;&gt;Node2</title>
<g id="a_edge1_Node000001_Node000002"><a xlink:title=" ">
<path fill="none" stroke="#63b8ff" d="M736.77,-363.25C729.97,-430.17 706.91,-630.73 670,-683.38 667.47,-686.99 664.06,-690.06 660.39,-692.64"/>
<polygon fill="#63b8ff" stroke="#63b8ff" points="740.22,-363.86 737.73,-353.56 733.26,-363.17 740.22,-363.86"/>
</a>
</g>
</g>
<!-- Node3 -->
<g id="Node000003" class="node">
<title>Node3</title>
<g id="a_Node000003"><a xlink:href="app_8c.html#a0b804502e637fa2897681579fae890af" target="_top" xlink:title=" ">
<polygon fill="white" stroke="#666666" points="670,-674.75 602.25,-674.75 602.25,-654 670,-654 670,-674.75"/>
<text text-anchor="middle" x="636.12" y="-661.25" font-family="Helvetica,sans-Serif" font-size="10.00">w2c__f233</text>
</a>
</g>
</g>
<!-- Node1&#45;&gt;Node3 -->
<g id="edge2_Node000001_Node000003" class="edge">
<title>Node1&#45;&gt;Node3</title>
<g id="a_edge2_Node000001_Node000003"><a xlink:title=" ">
<path fill="none" stroke="#63b8ff" d="M738.89,-363.44C737.91,-415.9 729.36,-550.42 670,-640.38 666.57,-645.57 661.62,-650.02 656.59,-653.64"/>
<polygon fill="#63b8ff" stroke="#63b8ff" points="742.39,-363.75 738.99,-353.72 735.39,-363.68 742.39,-363.75"/>
</a>
</g>
</g>
<!-- Node4 -->
<g id="Node000004" class="node">
<title>Node4</title>
<g id="a_Node000004"><a xlink:href="app_8c.html#aa3051a0f0feb078aee84a108594b3b11" target="_top" xlink:title=" ">
<polygon fill="white" stroke="#666666" points="566.25,-637.75 498.5,-637.75 498.5,-617 566.25,-617 566.25,-637.75"/>
<text text-anchor="middle" x="532.38" y="-624.25" font-family="Helvetica,sans-Serif" font-size="10.00">w2c__f245</text>
</a>
</g>
</g>
<!-- Node1&#45;&gt;Node4 -->
<g id="edge3_Node000001_Node000004" class="edge">
<title>Node1&#45;&gt;Node4</title>
<g id="a_edge3_Node000001_Node000004"><a xlink:title=" ">
<path fill="none" stroke="#63b8ff" d="M739.63,-363.52C740,-412.02 733.77,-528.32 670,-591.38 642.62,-618.45 597.43,-625.86 566.58,-627.54"/>
<polygon fill="#63b8ff" stroke="#63b8ff" points="743.13,-363.67 739.43,-353.74 736.13,-363.81 743.13,-363.67"/>
</a>
</g>
</g>
<!-- Node5 -->
<g id="Node000005" class="node">
<title>Node5</title>
<g id="a_Node000005"><a xlink:href="app_8c.html#aac449994afd8488e2efd16fb19f0ecb1" target="_top" xlink:title=" ">
<polygon fill="white" stroke="#666666" points="358.75,-484.75 291,-484.75 291,-464 358.75,-464 358.75,-484.75"/>
<text text-anchor="middle" x="324.88" y="-471.25" font-family="Helvetica,sans-Serif" font-size="10.00">w2c__f336</text>
</a>
</g>
</g>
<!-- Node1&#45;&gt;Node5 -->
<g id="edge14_Node000001_Node000005" class="edge">
<title>Node1&#45;&gt;Node5</title>
<g id="a_edge14_Node000001_Node000005"><a xlink:title=" ">
<path fill="none" stroke="#63b8ff" d="M733.08,-363.11C724.2,-392.46 704.52,-444.62 670,-475.38 633.22,-508.14 613.84,-501.66 566.25,-514.38 492.25,-534.14 466.82,-557.33 394.75,-531.38 369.05,-522.12 346.13,-498.65 334.32,-484.88"/>
<polygon fill="#63b8ff" stroke="#63b8ff" points="736.44,-364.09 735.82,-353.51 729.71,-362.16 736.44,-364.09"/>
</a>
</g>
</g>
<!-- Node8 -->
<g id="Node000008" class="node">
<title>Node8</title>
<g id="a_Node000008"><a xlink:href="app_8c.html#a8f312e54d76623b1ae169d5d19736ee0" target="_top" xlink:title=" ">
<polygon fill="white" stroke="#666666" points="255,-408.75 187.25,-408.75 187.25,-388 255,-388 255,-408.75"/>
<text text-anchor="middle" x="221.12" y="-395.25" font-family="Helvetica,sans-Serif" font-size="10.00">w2c__f363</text>
</a>
</g>
</g>
<!-- Node1&#45;&gt;Node8 -->
<g id="edge17_Node000001_Node000008" class="edge">
<title>Node1&#45;&gt;Node8</title>
<g id="a_edge17_Node000001_Node000008"><a xlink:title=" ">
<path fill="none" stroke="#63b8ff" d="M694.13,-347.91C652.58,-353.4 588.93,-360.38 533.38,-360.38 533.38,-360.38 533.38,-360.38 427.62,-360.38 365.95,-360.38 295.56,-377.13 255.24,-388.39"/>
<polygon fill="#63b8ff" stroke="#63b8ff" points="694.56,-351.38 704,-346.57 693.62,-344.44 694.56,-351.38"/>
</a>
</g>
</g>
<!-- Node11 -->
<g id="Node000011" class="node">
<title>Node11</title>
<g id="a_Node000011"><a xlink:href="app_8c.html#a1581df0bdfa942524e0a5dce91fd6b8e" target="_top" xlink:title=" ">
<polygon fill="white" stroke="#666666" points="670,-332.75 602.25,-332.75 602.25,-312 670,-312 670,-332.75"/>
<text text-anchor="middle" x="636.12" y="-319.25" font-family="Helvetica,sans-Serif" font-size="10.00">w2c__f253</text>
</a>
</g>
</g>
<!-- Node1&#45;&gt;Node11 -->
<g id="edge10_Node000001_Node000011" class="edge">
<title>Node1&#45;&gt;Node11</title>
<g id="a_edge10_Node000001_Node000011"><a xlink:title=" ">
<path fill="none" stroke="#63b8ff" d="M694.32,-333.06C686.21,-331.54 677.88,-329.98 670.17,-328.55"/>
<polygon fill="#63b8ff" stroke="#63b8ff" points="693.6,-336.48 704.07,-334.88 694.88,-329.6 693.6,-336.48"/>
</a>
</g>
</g>
<!-- Node12 -->
<g id="Node000012" class="node">
<title>Node12</title>
<g id="a_Node000012"><a xlink:href="app_8c.html#ad6ca5e0c47ccb4e49eb279d54c79b6ae" target="_top" xlink:title=" ">
<polygon fill="white" stroke="#666666" points="670,-293.75 602.25,-293.75 602.25,-273 670,-273 670,-293.75"/>
<text text-anchor="middle" x="636.12" y="-280.25" font-family="Helvetica,sans-Serif" font-size="10.00">w2c__f261</text>
</a>
</g>
</g>
<!-- Node1&#45;&gt;Node12 -->
<g id="edge11_Node000001_Node000012" class="edge">
<title>Node1&#45;&gt;Node12</title>
<g id="a_edge11_Node000001_Node000012"><a xlink:title=" ">
<path fill="none" stroke="#63b8ff" d="M710.56,-325.23C693.15,-315.31 671.33,-302.87 656.01,-294.14"/>
<polygon fill="#63b8ff" stroke="#63b8ff" points="708.48,-328.08 718.9,-329.99 711.94,-321.99 708.48,-328.08"/>
</a>
</g>
</g>
<!-- Node13 -->
<g id="Node000013" class="node">
<title>Node13</title>
<g id="a_Node000013"><a xlink:href="app_8c.html#a06791f7ef017d58ed5ec42c28121f622" target="_top" xlink:title=" ">
<polygon fill="white" stroke="#666666" points="670,-254.75 602.25,-254.75 602.25,-234 670,-234 670,-254.75"/>
<text text-anchor="middle" x="636.12" y="-241.25" font-family="Helvetica,sans-Serif" font-size="10.00">w2c__f268</text>
</a>
</g>
</g>
<!-- Node1&#45;&gt;Node13 -->
<g id="edge12_Node000001_Node000013" class="edge">
<title>Node1&#45;&gt;Node13</title>
<g id="a_edge12_Node000001_Node000013"><a xlink:title=" ">
<path fill="none" stroke="#63b8ff" d="M723.99,-321.71C710.9,-305.2 690.75,-281.63 670,-264.38 665.99,-261.04 661.38,-257.88 656.89,-255.1"/>
<polygon fill="#63b8ff" stroke="#63b8ff" points="721,-323.56 729.9,-329.31 726.53,-319.27 721,-323.56"/>
</a>
</g>
</g>
<!-- Node14 -->
<g id="Node000014" class="node">
<title>Node14</title>
<g id="a_Node000014"><a xlink:href="app_8c.html#ad0fd5481633c9ba352ccac4586783120" target="_top" xlink:title=" ">
<polygon fill="white" stroke="#666666" points="670,-215.75 602.25,-215.75 602.25,-195 670,-195 670,-215.75"/>
<text text-anchor="middle" x="636.12" y="-202.25" font-family="Helvetica,sans-Serif" font-size="10.00">w2c__f331</text>
</a>
</g>
</g>
<!-- Node1&#45;&gt;Node14 -->
<g id="edge13_Node000001_Node000014" class="edge">
<title>Node1&#45;&gt;Node14</title>
<g id="a_edge13_Node000001_Node000014"><a xlink:title=" ">
<path fill="none" stroke="#63b8ff" d="M730.1,-320.13C718.99,-295.15 697.87,-253.55 670,-225.38 666.62,-221.96 662.54,-218.88 658.42,-216.22"/>
<polygon fill="#63b8ff" stroke="#63b8ff" points="726.85,-321.43 734.02,-329.23 733.28,-318.66 726.85,-321.43"/>
</a>
</g>
</g>
<!-- Node15 -->
<g id="Node000015" class="node">
<title>Node15</title>
<g id="a_Node000015"><a xlink:href="app_8c.html#a1ef57a8f3389cf1f0d88eb9fba96163e" target="_top" xlink:title=" ">
<polygon fill="white" stroke="#666666" points="566.25,-598.75 498.5,-598.75 498.5,-578 566.25,-578 566.25,-598.75"/>
<text text-anchor="middle" x="532.38" y="-585.25" font-family="Helvetica,sans-Serif" font-size="10.00">w2c__f356</text>
</a>
</g>
</g>
<!-- Node1&#45;&gt;Node15 -->
<g id="edge15_Node000001_Node000015" class="edge">
<title>Node1&#45;&gt;Node15</title>
<g id="a_edge15_Node000001_Node000015"><a xlink:title=" ">
<path fill="none" stroke="#63b8ff" d="M739.12,-363.34C738.35,-408.45 729.74,-511.7 670,-564.38 641.82,-589.22 597.25,-592.7 566.73,-591.62"/>
<polygon fill="#63b8ff" stroke="#63b8ff" points="742.62,-363.54 739.16,-353.53 735.62,-363.52 742.62,-363.54"/>
</a>
</g>
</g>
<!-- Node16 -->
<g id="Node000016" class="node">
<title>Node16</title>
<g id="a_Node000016"><a xlink:href="app_8c.html#a980a551daeb256397f01e6faa91d49db" target="_top" xlink:title=" ">
<polygon fill="white" stroke="#666666" points="670,-176.75 602.25,-176.75 602.25,-156 670,-156 670,-176.75"/>
<text text-anchor="middle" x="636.12" y="-163.25" font-family="Helvetica,sans-Serif" font-size="10.00">w2c__f403</text>
</a>
</g>
</g>
<!-- Node1&#45;&gt;Node16 -->
<g id="edge18_Node000001_Node000016" class="edge">
<title>Node1&#45;&gt;Node16</title>
<g id="a_edge18_Node000001_Node000016"><a xlink:title=" ">
<path fill="none" stroke="#63b8ff" d="M733.78,-319.98C725.22,-287.84 705.34,-226.58 670,-186.38 666.91,-182.86 663.06,-179.78 659.08,-177.14"/>
<polygon fill="#63b8ff" stroke="#63b8ff" points="730.29,-320.47 736.14,-329.3 737.07,-318.75 730.29,-320.47"/>
</a>
</g>
</g>
<!-- Node17 -->
<g id="Node000017" class="node">
<title>Node17</title>
<g id="a_Node000017"><a xlink:href="app_8c.html#a13a282f739b6944dad1977039f3fadde" target="_top" xlink:title=" ">
<polygon fill="white" stroke="#666666" points="670,-137.75 602.25,-137.75 602.25,-117 670,-117 670,-137.75"/>
<text text-anchor="middle" x="636.12" y="-124.25" font-family="Helvetica,sans-Serif" font-size="10.00">w2c__f420</text>
</a>
</g>
</g>
<!-- Node1&#45;&gt;Node17 -->
<g id="edge19_Node000001_Node000017" class="edge">
<title>Node1&#45;&gt;Node17</title>
<g id="a_edge19_Node000001_Node000017"><a xlink:title=" ">
<path fill="none" stroke="#63b8ff" d="M736,-319.58C729.95,-281.04 712.74,-199.94 670,-147.38 667.13,-143.85 663.47,-140.79 659.64,-138.19"/>
<polygon fill="#63b8ff" stroke="#63b8ff" points="732.53,-320.03 737.43,-329.43 739.46,-319.03 732.53,-320.03"/>
</a>
</g>
</g>
<!-- Node18 -->
<g id="Node000018" class="node">
<title>Node18</title>
<g id="a_Node000018"><a xlink:href="app_8c.html#aeab4e13658d5ad2b48b7d44acc8ceaf7" target="_top" xlink:title=" ">
<polygon fill="white" stroke="#666666" points="670,-98.75 602.25,-98.75 602.25,-78 670,-78 670,-98.75"/>
<text text-anchor="middle" x="636.12" y="-85.25" font-family="Helvetica,sans-Serif" font-size="10.00">w2c__f453</text>
</a>
</g>
</g>
<!-- Node1&#45;&gt;Node18 -->
<g id="edge20_Node000001_Node000018" class="edge">
<title>Node1&#45;&gt;Node18</title>
<g id="a_edge20_Node000001_Node000018"><a xlink:title=" ">
<path fill="none" stroke="#63b8ff" d="M737.59,-319.56C733.96,-275.34 720.34,-173.79 670,-108.38 667.23,-104.77 663.61,-101.68 659.79,-99.07"/>
<polygon fill="#63b8ff" stroke="#63b8ff" points="734.09,-319.66 738.29,-329.38 741.07,-319.16 734.09,-319.66"/>
</a>
</g>
</g>
<!-- Node19 -->
<g id="Node000019" class="node">
<title>Node19</title>
<g id="a_Node000019"><a xlink:href="app_8c.html#a05d83e696cfaa26355c9732ee9ea4cd0" target="_top" xlink:title=" ">
<polygon fill="white" stroke="#666666" points="670,-59.75 602.25,-59.75 602.25,-39 670,-39 670,-59.75"/>
<text text-anchor="middle" x="636.12" y="-46.25" font-family="Helvetica,sans-Serif" font-size="10.00">w2c__f454</text>
</a>
</g>
</g>
<!-- Node1&#45;&gt;Node19 -->
<g id="edge21_Node000001_Node000019" class="edge">
<title>Node1&#45;&gt;Node19</title>
<g id="a_edge21_Node000001_Node000019"><a xlink:title=" ">
<path fill="none" stroke="#63b8ff" d="M738.74,-319.33C737.37,-269.78 727.9,-147.78 670,-69.38 667.38,-65.83 663.93,-62.78 660.24,-60.21"/>
<polygon fill="#63b8ff" stroke="#63b8ff" points="735.24,-319.1 738.91,-329.04 742.23,-318.98 735.24,-319.1"/>
</a>
</g>
</g>
<!-- Node20 -->
<g id="Node000020" class="node">
<title>Node20</title>
<g id="a_Node000020"><a xlink:href="app_8c.html#a99652a649195d12409cd3ede52fb8e48" target="_top" xlink:title=" ">
<polygon fill="white" stroke="#666666" points="670,-20.75 602.25,-20.75 602.25,0 670,0 670,-20.75"/>
<text text-anchor="middle" x="636.12" y="-7.25" font-family="Helvetica,sans-Serif" font-size="10.00">w2c__f486</text>
</a>
</g>
</g>
<!-- Node1&#45;&gt;Node20 -->
<g id="edge22_Node000001_Node000020" class="edge">
<title>Node1&#45;&gt;Node20</title>
<g id="a_edge22_Node000001_Node000020"><a xlink:title=" ">
<path fill="none" stroke="#63b8ff" d="M739.63,-319.19C740.39,-264.67 735.54,-121.97 670,-30.38 667.43,-26.79 664.01,-23.72 660.33,-21.15"/>
<polygon fill="#63b8ff" stroke="#63b8ff" points="736.14,-318.93 739.41,-329.01 743.14,-319.09 736.14,-318.93"/>
</a>
</g>
</g>
<!-- Node21 -->
<g id="Node000021" class="node">
<title>Node21</title>
<g id="a_Node000021"><a xlink:href="app_8c.html#aa3f7fb2ace6a87e61320ef7401dfd66f" target="_top" xlink:title=" ">
<polygon fill="white" stroke="#666666" points="462.5,-446.75 394.75,-446.75 394.75,-426 462.5,-426 462.5,-446.75"/>
<text text-anchor="middle" x="428.62" y="-433.25" font-family="Helvetica,sans-Serif" font-size="10.00">w2c__f489</text>
</a>
</g>
</g>
<!-- Node1&#45;&gt;Node21 -->
<g id="edge23_Node000001_Node000021" class="edge">
<title>Node1&#45;&gt;Node21</title>
<g id="a_edge23_Node000001_Node000021"><a xlink:title=" ">
<path fill="none" stroke="#63b8ff" d="M726.85,-361.68C714.92,-379.75 694.85,-405.17 670,-417.38 602.37,-450.6 511.01,-446.5 462.72,-441.13"/>
<polygon fill="#63b8ff" stroke="#63b8ff" points="729.75,-363.65 732.1,-353.32 723.82,-359.92 729.75,-363.65"/>
</a>
</g>
</g>
<!-- Node22 -->
<g id="Node000022" class="node">
<title>Node22</title>
<g id="a_Node000022"><a xlink:href="app_8c.html#a73bc9653d585d26dc44456eaf4998ba5" target="_top" xlink:title=" ">
<polygon fill="white" stroke="#666666" points="670,-408.75 602.25,-408.75 602.25,-388 670,-388 670,-408.75"/>
<text text-anchor="middle" x="636.12" y="-395.25" font-family="Helvetica,sans-Serif" font-size="10.00">w2c__f513</text>
</a>
</g>
</g>
<!-- Node1&#45;&gt;Node22 -->
<g id="edge25_Node000001_Node000022" class="edge">
<title>Node1&#45;&gt;Node22</title>
<g id="a_edge25_Node000001_Node000022"><a xlink:title=" ">
<path fill="none" stroke="#63b8ff" d="M709.72,-357.71C692.65,-367.27 671.56,-379.08 656.52,-387.51"/>
<polygon fill="#63b8ff" stroke="#63b8ff" points="711.4,-360.78 718.42,-352.84 707.98,-354.67 711.4,-360.78"/>
</a>
</g>
</g>
<!-- Node24 -->
<g id="Node000024" class="node">
<title>Node24</title>
<g id="a_Node000024"><a xlink:href="app_8c.html#a268eebcea573fce720709e588959d401" target="_top" xlink:title=" ">
<polygon fill="white" stroke="#666666" points="462.5,-522.75 394.75,-522.75 394.75,-502 462.5,-502 462.5,-522.75"/>
<text text-anchor="middle" x="428.62" y="-509.25" font-family="Helvetica,sans-Serif" font-size="10.00">w2c__f568</text>
</a>
</g>
</g>
<!-- Node1&#45;&gt;Node24 -->
<g id="edge31_Node000001_Node000024" class="edge">
<title>Node1&#45;&gt;Node24</title>
<g id="a_edge31_Node000001_Node000024"><a xlink:title=" ">
<path fill="none" stroke="#63b8ff" d="M728.58,-362.25C716.88,-384.23 696,-418.75 670,-441.38 610.09,-493.51 513.44,-507.39 462.88,-511.07"/>
<polygon fill="#63b8ff" stroke="#63b8ff" points="731.69,-363.86 733.15,-353.36 725.46,-360.66 731.69,-363.86"/>
</a>
</g>
</g>
<!-- Node4&#45;&gt;Node5 -->
<g id="edge4_Node000004_Node000005" class="edge">
<title>Node4&#45;&gt;Node5</title>
<g id="a_edge4_Node000004_Node000005"><a xlink:title=" ">
<path fill="none" stroke="#63b8ff" d="M486.88,-623.51C458.16,-619.1 421.34,-609.64 394.75,-589.38 358.1,-561.44 336.94,-507.92 329.24,-485.11"/>
<polygon fill="#63b8ff" stroke="#63b8ff" points="486.36,-626.97 496.74,-624.86 487.31,-620.04 486.36,-626.97"/>
</a>
</g>
</g>
<!-- Node6 -->
<g id="Node000006" class="node">
<title>Node6</title>
<g id="a_Node000006"><a xlink:href="app_8c.html#ac863989691d4c389f80374209c220171" target="_top" xlink:title=" ">
<polygon fill="white" stroke="#666666" points="252.38,-484.75 189.88,-484.75 189.88,-464 252.38,-464 252.38,-484.75"/>
<text text-anchor="middle" x="221.12" y="-471.25" font-family="Helvetica,sans-Serif" font-size="10.00">w2c__c_0</text>
</a>
</g>
</g>
<!-- Node5&#45;&gt;Node6 -->
<g id="edge5_Node000005_Node000006" class="edge">
<title>Node5&#45;&gt;Node6</title>
<g id="a_edge5_Node000005_Node000006"><a xlink:title=" ">
<path fill="none" stroke="#63b8ff" d="M279.1,-474.38C270.2,-474.38 261.05,-474.38 252.76,-474.38"/>
<polygon fill="#63b8ff" stroke="#63b8ff" points="279.04,-477.88 289.04,-474.38 279.04,-470.88 279.04,-477.88"/>
</a>
</g>
</g>
<!-- Node5&#45;&gt;Node8 -->
<g id="edge7_Node000005_Node000008" class="edge">
<title>Node5&#45;&gt;Node8</title>
<g id="a_edge7_Node000005_Node000008"><a xlink:title=" ">
<path fill="none" stroke="#63b8ff" d="M300.76,-457.11C281,-442.35 253.19,-421.58 236.48,-409.1"/>
<polygon fill="#63b8ff" stroke="#63b8ff" points="298.41,-459.72 308.51,-462.9 302.6,-454.11 298.41,-459.72"/>
</a>
</g>
</g>
<!-- Node7 -->
<g id="Node000007" class="node">
<title>Node7</title>
<g id="a_Node000007"><a xlink:href="app_8c.html#ab1e039392ea68017ab8a6063263b147d" target="_top" xlink:title=" ">
<polygon fill="white" stroke="#666666" points="145.25,-484.75 94,-484.75 94,-464 145.25,-464 145.25,-484.75"/>
<text text-anchor="middle" x="119.62" y="-471.25" font-family="Helvetica,sans-Serif" font-size="10.00">w2c__c</text>
</a>
</g>
</g>
<!-- Node6&#45;&gt;Node7 -->
<g id="edge6_Node000006_Node000007" class="edge">
<title>Node6&#45;&gt;Node7</title>
<g id="a_edge6_Node000006_Node000007"><a xlink:title=" ">
<path fill="none" stroke="#63b8ff" d="M178.21,-474.38C167.15,-474.38 155.55,-474.38 145.68,-474.38"/>
<polygon fill="#63b8ff" stroke="#63b8ff" points="177.95,-477.88 187.95,-474.38 177.95,-470.88 177.95,-477.88"/>
</a>
</g>
</g>
<!-- Node9 -->
<g id="Node000009" class="node">
<title>Node9</title>
<g id="a_Node000009"><a xlink:href="app_8c.html#a26657f10c51f10eeb57a4d27606a6885" target="_top" xlink:title=" ">
<polygon fill="white" stroke="#666666" points="151.25,-408.75 88,-408.75 88,-388 151.25,-388 151.25,-408.75"/>
<text text-anchor="middle" x="119.62" y="-395.25" font-family="Helvetica,sans-Serif" font-size="10.00">w2c__b_0</text>
</a>
</g>
</g>
<!-- Node8&#45;&gt;Node9 -->
<g id="edge8_Node000008_Node000009" class="edge">
<title>Node8&#45;&gt;Node9</title>
<g id="a_edge8_Node000008_Node000009"><a xlink:title=" ">
<path fill="none" stroke="#63b8ff" d="M175.71,-398.38C167.57,-398.38 159.23,-398.38 151.59,-398.38"/>
<polygon fill="#63b8ff" stroke="#63b8ff" points="175.48,-401.88 185.48,-398.38 175.48,-394.88 175.48,-401.88"/>
</a>
</g>
</g>
<!-- Node10 -->
<g id="Node000010" class="node">
<title>Node10</title>
<g id="a_Node000010"><a xlink:href="app_8c.html#a683a2045346c3209e9dac20d55933c7d" target="_top" xlink:title=" ">
<polygon fill="white" stroke="#666666" points="52,-408.75 0,-408.75 0,-388 52,-388 52,-408.75"/>
<text text-anchor="middle" x="26" y="-395.25" font-family="Helvetica,sans-Serif" font-size="10.00">w2c__b</text>
</a>
</g>
</g>
<!-- Node9&#45;&gt;Node10 -->
<g id="edge9_Node000009_Node000010" class="edge">
<title>Node9&#45;&gt;Node10</title>
<g id="a_edge9_Node000009_Node000010"><a xlink:title=" ">
<path fill="none" stroke="#63b8ff" d="M76.21,-398.38C68,-398.38 59.65,-398.38 52.21,-398.38"/>
<polygon fill="#63b8ff" stroke="#63b8ff" points="76.09,-401.88 86.09,-398.38 76.09,-394.88 76.09,-401.88"/>
</a>
</g>
</g>
<!-- Node15&#45;&gt;Node5 -->
<g id="edge16_Node000015_Node000005" class="edge">
<title>Node15&#45;&gt;Node5</title>
<g id="a_edge16_Node000015_Node000005"><a xlink:title=" ">
<path fill="none" stroke="#63b8ff" d="M486.95,-588.65C458.73,-586.96 422.43,-581.18 394.75,-564.38 362.63,-544.87 340.1,-504.37 330.73,-485.06"/>
<polygon fill="#63b8ff" stroke="#63b8ff" points="486.46,-592.13 496.6,-589.07 486.77,-585.14 486.46,-592.13"/>
</a>
</g>
</g>
<!-- Node21&#45;&gt;Node5 -->
<g id="edge24_Node000021_Node000005" class="edge">
<title>Node21&#45;&gt;Node5</title>
<g id="a_edge24_Node000021_Node000005"><a xlink:title=" ">
<path fill="none" stroke="#63b8ff" d="M388.01,-451.17C376.96,-455.3 365.15,-459.71 354.83,-463.56"/>
<polygon fill="#63b8ff" stroke="#63b8ff" points="389.18,-454.47 397.32,-447.69 386.73,-447.91 389.18,-454.47"/>
</a>
</g>
</g>
<!-- Node22&#45;&gt;Node5 -->
<g id="edge26_Node000022_Node000005" class="edge">
<title>Node22&#45;&gt;Node5</title>
<g id="a_edge26_Node000022_Node000005"><a xlink:title=" ">
<path fill="none" stroke="#63b8ff" d="M590.51,-394.07C540.82,-391.03 459.04,-391.31 394.75,-417.38 369.72,-427.52 346.9,-450.21 334.84,-463.7"/>
<polygon fill="#63b8ff" stroke="#63b8ff" points="590.09,-397.55 600.31,-394.75 590.57,-390.57 590.09,-397.55"/>
</a>
</g>
</g>
<!-- Node23 -->
<g id="Node000023" class="node">
<title>Node23</title>
<g id="a_Node000023"><a xlink:href="app_8c.html#a850a9c260115672f978d3685bca1703b" target="_top" xlink:title=" ">
<polygon fill="white" stroke="#666666" points="566.25,-484.75 498.5,-484.75 498.5,-464 566.25,-464 566.25,-484.75"/>
<text text-anchor="middle" x="532.38" y="-471.25" font-family="Helvetica,sans-Serif" font-size="10.00">w2c__f540</text>
</a>
</g>
</g>
<!-- Node22&#45;&gt;Node23 -->
<g id="edge27_Node000022_Node000023" class="edge">
<title>Node22&#45;&gt;Node23</title>
<g id="a_edge27_Node000022_Node000023"><a xlink:title=" ">
<path fill="none" stroke="#63b8ff" d="M612.01,-415.64C592.25,-430.4 564.44,-451.17 547.73,-463.65"/>
<polygon fill="#63b8ff" stroke="#63b8ff" points="613.85,-418.64 619.76,-409.85 609.66,-413.03 613.85,-418.64"/>
</a>
</g>
</g>
<!-- Node23&#45;&gt;Node5 -->
<g id="edge28_Node000023_Node000005" class="edge">
<title>Node23&#45;&gt;Node5</title>
<g id="a_edge28_Node000023_Node000005"><a xlink:title=" ">
<path fill="none" stroke="#63b8ff" d="M487,-474.38C448.59,-474.38 393.9,-474.38 359.15,-474.38"/>
<polygon fill="#63b8ff" stroke="#63b8ff" points="486.84,-477.88 496.84,-474.38 486.84,-470.88 486.84,-477.88"/>
</a>
</g>
</g>
<!-- Node23&#45;&gt;Node21 -->
<g id="edge29_Node000023_Node000021" class="edge">
<title>Node23&#45;&gt;Node21</title>
<g id="a_edge29_Node000023_Node000021"><a xlink:title=" ">
<path fill="none" stroke="#63b8ff" d="M491.76,-459.58C480.71,-455.45 468.9,-451.04 458.58,-447.19"/>
<polygon fill="#63b8ff" stroke="#63b8ff" points="490.48,-462.84 501.07,-463.06 492.93,-456.28 490.48,-462.84"/>
</a>
</g>
</g>
<!-- Node23&#45;&gt;Node24 -->
<g id="edge30_Node000023_Node000024" class="edge">
<title>Node23&#45;&gt;Node24</title>
<g id="a_edge30_Node000023_Node000024"><a xlink:title=" ">
<path fill="none" stroke="#63b8ff" d="M491.76,-489.17C480.71,-493.3 468.9,-497.71 458.58,-501.56"/>
<polygon fill="#63b8ff" stroke="#63b8ff" points="492.93,-492.47 501.07,-485.69 490.48,-485.91 492.93,-492.47"/>
</a>
</g>
</g>
</g>
</svg>
