<?xml version="1.0" encoding="UTF-8" standalone="no"?>
<!DOCTYPE svg PUBLIC "-//W3C//DTD SVG 1.1//EN"
 "http://www.w3.org/Graphics/SVG/1.1/DTD/svg11.dtd">
<!-- Generated by graphviz version 12.2.1 (0)
 -->
<!-- Title: w2c_0_153 Pages: 1 -->
<svg width="389pt" height="144pt"
 viewBox="0.00 0.00 389.25 143.75" xmlns="http://www.w3.org/2000/svg" xmlns:xlink="http://www.w3.org/1999/xlink">
<g id="graph0" class="graph" transform="scale(1 1) rotate(0) translate(4 139.75)">
<title>w2c_0_153</title>
<!-- Node1 -->
<g id="Node000001" class="node">
<title>Node1</title>
<g id="a_Node000001"><a xlink:title=" ">
<polygon fill="#999999" stroke="#666666" points="381.25,-78.75 311.25,-78.75 311.25,-58 381.25,-58 381.25,-78.75"/>
<text text-anchor="middle" x="346.25" y="-65.25" font-family="Helvetica,sans-Serif" font-size="10.00">w2c_0_153</text>
</a>
</g>
</g>
<!-- Node2 -->
<g id="Node000002" class="node">
<title>Node2</title>
<g id="a_Node000002"><a xlink:href="app_8c.html#a449cb6c73f47b769f147af0ebc196f79" target="_top" xlink:title=" ">
<polygon fill="white" stroke="#666666" points="171.5,-135.75 103.75,-135.75 103.75,-115 171.5,-115 171.5,-135.75"/>
<text text-anchor="middle" x="137.62" y="-122.25" font-family="Helvetica,sans-Serif" font-size="10.00">w2c__f206</text>
</a>
</g>
</g>
<!-- Node1&#45;&gt;Node2 -->
<g id="edge1_Node000001_Node000002" class="edge">
<title>Node1&#45;&gt;Node2</title>
<g id="a_edge1_Node000001_Node000002"><a xlink:title=" ">
<path fill="none" stroke="#63b8ff" d="M319.79,-85.08C306.93,-92.75 290.8,-101.26 275.25,-106.38 241.13,-117.6 200.09,-122.19 171.95,-124.07"/>
<polygon fill="#63b8ff" stroke="#63b8ff" points="321.36,-88.22 328.03,-79.99 317.68,-82.27 321.36,-88.22"/>
</a>
</g>
</g>
<!-- Node4 -->
<g id="Node000004" class="node">
<title>Node4</title>
<g id="a_Node000004"><a xlink:href="app_8c.html#a459b7ee293146f8253684dece0b1694c" target="_top" xlink:title=" ">
<polygon fill="white" stroke="#666666" points="275.25,-97.75 207.5,-97.75 207.5,-77 275.25,-77 275.25,-97.75"/>
<text text-anchor="middle" x="241.38" y="-84.25" font-family="Helvetica,sans-Serif" font-size="10.00">w2c__f310</text>
</a>
</g>
</g>
<!-- Node1&#45;&gt;Node4 -->
<g id="edge3_Node000001_Node000004" class="edge">
<title>Node1&#45;&gt;Node4</title>
<g id="a_edge3_Node000001_Node000004"><a xlink:title=" ">
<path fill="none" stroke="#63b8ff" d="M299.68,-76.79C291.52,-78.3 283.16,-79.84 275.43,-81.27"/>
<polygon fill="#63b8ff" stroke="#63b8ff" points="300.31,-80.23 309.51,-74.98 299.04,-73.35 300.31,-80.23"/>
</a>
</g>
</g>
<!-- Node5 -->
<g id="Node000005" class="node">
<title>Node5</title>
<g id="a_Node000005"><a xlink:href="app_8c.html#a96302817f96aee4b42b2d1383eb34b00" target="_top" xlink:title=" ">
<polygon fill="white" stroke="#666666" points="171.5,-59.75 103.75,-59.75 103.75,-39 171.5,-39 171.5,-59.75"/>
<text text-anchor="middle" x="137.62" y="-46.25" font-family="Helvetica,sans-Serif" font-size="10.00">w2c__f462</text>
</a>
</g>
</g>
<!-- Node1&#45;&gt;Node5 -->
<g id="edge5_Node000001_Node000005" class="edge">
<title>Node1&#45;&gt;Node5</title>
<g id="a_edge5_Node000001_Node000005"><a xlink:title=" ">
<path fill="none" stroke="#63b8ff" d="M299.68,-64.18C260.99,-60.63 206.41,-55.61 171.77,-52.42"/>
<polygon fill="#63b8ff" stroke="#63b8ff" points="299.34,-67.67 309.62,-65.1 299.99,-60.7 299.34,-67.67"/>
</a>
</g>
</g>
<!-- Node7 -->
<g id="Node000007" class="node">
<title>Node7</title>
<g id="a_Node000007"><a xlink:href="app_8c.html#aea24288eb1a35ebf57e85ff10baecd22" target="_top" xlink:title=" ">
<polygon fill="white" stroke="#666666" points="275.25,-21.75 207.5,-21.75 207.5,-1 275.25,-1 275.25,-21.75"/>
<text text-anchor="middle" x="241.38" y="-8.25" font-family="Helvetica,sans-Serif" font-size="10.00">w2c__f566</text>
</a>
</g>
</g>
<!-- Node1&#45;&gt;Node7 -->
<g id="edge8_Node000001_Node000007" class="edge">
<title>Node1&#45;&gt;Node7</title>
<g id="a_edge8_Node000001_Node000007"><a xlink:title=" ">
<path fill="none" stroke="#63b8ff" d="M316.26,-52.31C298.91,-42.7 277.34,-30.75 261.99,-22.24"/>
<polygon fill="#63b8ff" stroke="#63b8ff" points="314.13,-55.14 324.58,-56.92 317.53,-49.01 314.13,-55.14"/>
</a>
</g>
</g>
<!-- Node3 -->
<g id="Node000003" class="node">
<title>Node3</title>
<g id="a_Node000003"><a xlink:href="app_8c.html#a1581df0bdfa942524e0a5dce91fd6b8e" target="_top" xlink:title=" ">
<polygon fill="white" stroke="#666666" points="67.75,-97.75 0,-97.75 0,-77 67.75,-77 67.75,-97.75"/>
<text text-anchor="middle" x="33.88" y="-84.25" font-family="Helvetica,sans-Serif" font-size="10.00">w2c__f253</text>
</a>
</g>
</g>
<!-- Node2&#45;&gt;Node3 -->
<g id="edge2_Node000002_Node000003" class="edge">
<title>Node2&#45;&gt;Node3</title>
<g id="a_edge2_Node000002_Node000003"><a xlink:title=" ">
<path fill="none" stroke="#63b8ff" d="M97.01,-110.58C85.96,-106.45 74.15,-102.04 63.83,-98.19"/>
<polygon fill="#63b8ff" stroke="#63b8ff" points="95.73,-113.84 106.32,-114.06 98.18,-107.28 95.73,-113.84"/>
</a>
</g>
</g>
<!-- Node4&#45;&gt;Node3 -->
<g id="edge4_Node000004_Node000003" class="edge">
<title>Node4&#45;&gt;Node3</title>
<g id="a_edge4_Node000004_Node000003"><a xlink:title=" ">
<path fill="none" stroke="#63b8ff" d="M196,-87.38C157.59,-87.38 102.9,-87.38 68.15,-87.38"/>
<polygon fill="#63b8ff" stroke="#63b8ff" points="195.84,-90.88 205.84,-87.38 195.84,-83.88 195.84,-90.88"/>
</a>
</g>
</g>
<!-- Node5&#45;&gt;Node3 -->
<g id="edge6_Node000005_Node000003" class="edge">
<title>Node5&#45;&gt;Node3</title>
<g id="a_edge6_Node000005_Node000003"><a xlink:title=" ">
<path fill="none" stroke="#63b8ff" d="M97.01,-64.17C85.96,-68.3 74.15,-72.71 63.83,-76.56"/>
<polygon fill="#63b8ff" stroke="#63b8ff" points="98.18,-67.47 106.32,-60.69 95.73,-60.91 98.18,-67.47"/>
</a>
</g>
</g>
<!-- Node6 -->
<g id="Node000006" class="node">
<title>Node6</title>
<g id="a_Node000006"><a xlink:href="app_8c.html#a05d83e696cfaa26355c9732ee9ea4cd0" target="_top" xlink:title=" ">
<polygon fill="white" stroke="#666666" points="67.75,-58.75 0,-58.75 0,-38 67.75,-38 67.75,-58.75"/>
<text text-anchor="middle" x="33.88" y="-45.25" font-family="Helvetica,sans-Serif" font-size="10.00">w2c__f454</text>
</a>
</g>
</g>
<!-- Node5&#45;&gt;Node6 -->
<g id="edge7_Node000005_Node000006" class="edge">
<title>Node5&#45;&gt;Node6</title>
<g id="a_edge7_Node000005_Node000006"><a xlink:title=" ">
<path fill="none" stroke="#63b8ff" d="M92.07,-48.94C83.96,-48.86 75.63,-48.78 67.92,-48.7"/>
<polygon fill="#63b8ff" stroke="#63b8ff" points="91.76,-52.43 101.79,-49.03 91.83,-45.43 91.76,-52.43"/>
</a>
</g>
</g>
<!-- Node7&#45;&gt;Node5 -->
<g id="edge10_Node000007_Node000005" class="edge">
<title>Node7&#45;&gt;Node5</title>
<g id="a_edge10_Node000007_Node000005"><a xlink:title=" ">
<path fill="none" stroke="#63b8ff" d="M200.76,-26.17C189.71,-30.3 177.9,-34.71 167.58,-38.56"/>
<polygon fill="#63b8ff" stroke="#63b8ff" points="201.93,-29.47 210.07,-22.69 199.48,-22.91 201.93,-29.47"/>
</a>
</g>
</g>
<!-- Node8 -->
<g id="Node000008" class="node">
<title>Node8</title>
<g id="a_Node000008"><a xlink:href="app_8c.html#a980a551daeb256397f01e6faa91d49db" target="_top" xlink:title=" ">
<polygon fill="white" stroke="#666666" points="171.5,-20.75 103.75,-20.75 103.75,0 171.5,0 171.5,-20.75"/>
<text text-anchor="middle" x="137.62" y="-7.25" font-family="Helvetica,sans-Serif" font-size="10.00">w2c__f403</text>
</a>
</g>
</g>
<!-- Node7&#45;&gt;Node8 -->
<g id="edge9_Node000007_Node000008" class="edge">
<title>Node7&#45;&gt;Node8</title>
<g id="a_edge9_Node000007_Node000008"><a xlink:title=" ">
<path fill="none" stroke="#63b8ff" d="M195.82,-10.94C187.71,-10.86 179.38,-10.78 171.67,-10.7"/>
<polygon fill="#63b8ff" stroke="#63b8ff" points="195.51,-14.43 205.54,-11.03 195.58,-7.43 195.51,-14.43"/>
</a>
</g>
</g>
</g>
</svg>
