<?xml version="1.0" encoding="UTF-8" standalone="no"?>
<!DOCTYPE svg PUBLIC "-//W3C//DTD SVG 1.1//EN"
 "http://www.w3.org/Graphics/SVG/1.1/DTD/svg11.dtd">
<!-- Generated by graphviz version 12.2.1 (0)
 -->
<!-- Title: w2c__f553 Pages: 1 -->
<svg width="471pt" height="29pt"
 viewBox="0.00 0.00 470.50 28.75" xmlns="http://www.w3.org/2000/svg" xmlns:xlink="http://www.w3.org/1999/xlink">
<g id="graph0" class="graph" transform="scale(1 1) rotate(0) translate(4 24.75)">
<title>w2c__f553</title>
<!-- Node1 -->
<g id="Node000001" class="node">
<title>Node1</title>
<g id="a_Node000001"><a xlink:title=" ">
<polygon fill="#999999" stroke="#666666" points="462.5,-20.75 394.75,-20.75 394.75,0 462.5,0 462.5,-20.75"/>
<text text-anchor="middle" x="428.62" y="-7.25" font-family="Helvetica,sans-Serif" font-size="10.00">w2c__f553</text>
</a>
</g>
</g>
<!-- Node2 -->
<g id="Node000002" class="node">
<title>Node2</title>
<g id="a_Node000002"><a xlink:href="app_8c.html#ae0b9430c5b9817fd400b62f21b77aa3d" target="_top" xlink:title=" ">
<polygon fill="white" stroke="#666666" points="358.75,-20.75 291,-20.75 291,0 358.75,0 358.75,-20.75"/>
<text text-anchor="middle" x="324.88" y="-7.25" font-family="Helvetica,sans-Serif" font-size="10.00">w2c__f480</text>
</a>
</g>
</g>
<!-- Node1&#45;&gt;Node2 -->
<g id="edge1_Node000001_Node000002" class="edge">
<title>Node1&#45;&gt;Node2</title>
<g id="a_edge1_Node000001_Node000002"><a xlink:title=" ">
<path fill="none" stroke="#63b8ff" d="M383.07,-10.38C374.96,-10.38 366.63,-10.38 358.92,-10.38"/>
<polygon fill="#63b8ff" stroke="#63b8ff" points="382.79,-13.88 392.79,-10.38 382.79,-6.88 382.79,-13.88"/>
</a>
</g>
</g>
<!-- Node3 -->
<g id="Node000003" class="node">
<title>Node3</title>
<g id="a_Node000003"><a xlink:href="app_8c.html#a8f312e54d76623b1ae169d5d19736ee0" target="_top" xlink:title=" ">
<polygon fill="white" stroke="#666666" points="255,-20.75 187.25,-20.75 187.25,0 255,0 255,-20.75"/>
<text text-anchor="middle" x="221.12" y="-7.25" font-family="Helvetica,sans-Serif" font-size="10.00">w2c__f363</text>
</a>
</g>
</g>
<!-- Node2&#45;&gt;Node3 -->
<g id="edge2_Node000002_Node000003" class="edge">
<title>Node2&#45;&gt;Node3</title>
<g id="a_edge2_Node000002_Node000003"><a xlink:title=" ">
<path fill="none" stroke="#63b8ff" d="M279.32,-10.38C271.21,-10.38 262.88,-10.38 255.17,-10.38"/>
<polygon fill="#63b8ff" stroke="#63b8ff" points="279.04,-13.88 289.04,-10.38 279.04,-6.88 279.04,-13.88"/>
</a>
</g>
</g>
<!-- Node4 -->
<g id="Node000004" class="node">
<title>Node4</title>
<g id="a_Node000004"><a xlink:href="app_8c.html#a26657f10c51f10eeb57a4d27606a6885" target="_top" xlink:title=" ">
<polygon fill="white" stroke="#666666" points="151.25,-20.75 88,-20.75 88,0 151.25,0 151.25,-20.75"/>
<text text-anchor="middle" x="119.62" y="-7.25" font-family="Helvetica,sans-Serif" font-size="10.00">w2c__b_0</text>
</a>
</g>
</g>
<!-- Node3&#45;&gt;Node4 -->
<g id="edge3_Node000003_Node000004" class="edge">
<title>Node3&#45;&gt;Node4</title>
<g id="a_edge3_Node000003_Node000004"><a xlink:title=" ">
<path fill="none" stroke="#63b8ff" d="M175.71,-10.38C167.57,-10.38 159.23,-10.38 151.59,-10.38"/>
<polygon fill="#63b8ff" stroke="#63b8ff" points="175.48,-13.88 185.48,-10.38 175.48,-6.88 175.48,-13.88"/>
</a>
</g>
</g>
<!-- Node5 -->
<g id="Node000005" class="node">
<title>Node5</title>
<g id="a_Node000005"><a xlink:href="app_8c.html#a683a2045346c3209e9dac20d55933c7d" target="_top" xlink:title=" ">
<polygon fill="white" stroke="#666666" points="52,-20.75 0,-20.75 0,0 52,0 52,-20.75"/>
<text text-anchor="middle" x="26" y="-7.25" font-family="Helvetica,sans-Serif" font-size="10.00">w2c__b</text>
</a>
</g>
</g>
<!-- Node4&#45;&gt;Node5 -->
<g id="edge4_Node000004_Node000005" class="edge">
<title>Node4&#45;&gt;Node5</title>
<g id="a_edge4_Node000004_Node000005"><a xlink:title=" ">
<path fill="none" stroke="#63b8ff" d="M76.21,-10.38C68,-10.38 59.65,-10.38 52.21,-10.38"/>
<polygon fill="#63b8ff" stroke="#63b8ff" points="76.09,-13.88 86.09,-10.38 76.09,-6.88 76.09,-13.88"/>
</a>
</g>
</g>
</g>
</svg>
