<?xml version="1.0" encoding="UTF-8" standalone="no"?>
<!DOCTYPE svg PUBLIC "-//W3C//DTD SVG 1.1//EN"
 "http://www.w3.org/Graphics/SVG/1.1/DTD/svg11.dtd">
<!-- Generated by graphviz version 12.2.1 (0)
 -->
<!-- Title: wrap_w2c__f563 Pages: 1 -->
<svg width="831pt" height="261pt"
 viewBox="0.00 0.00 831.25 260.75" xmlns="http://www.w3.org/2000/svg" xmlns:xlink="http://www.w3.org/1999/xlink">
<g id="graph0" class="graph" transform="scale(1 1) rotate(0) translate(4 256.75)">
<title>wrap_w2c__f563</title>
<!-- Node1 -->
<g id="Node000001" class="node">
<title>Node1</title>
<g id="a_Node000001"><a xlink:title=" ">
<polygon fill="#999999" stroke="#666666" points="97,-79.75 0,-79.75 0,-59 97,-59 97,-79.75"/>
<text text-anchor="middle" x="48.5" y="-66.25" font-family="Helvetica,sans-Serif" font-size="10.00">wrap_w2c__f563</text>
</a>
</g>
</g>
<!-- Node2 -->
<g id="Node000002" class="node">
<title>Node2</title>
<g id="a_Node000002"><a xlink:href="app_8c.html#a526bc958417bd0d96a01739603b1d25e" target="_top" xlink:title=" ">
<polygon fill="white" stroke="#666666" points="200.75,-79.75 133,-79.75 133,-59 200.75,-59 200.75,-79.75"/>
<text text-anchor="middle" x="166.88" y="-66.25" font-family="Helvetica,sans-Serif" font-size="10.00">w2c__f563</text>
</a>
</g>
</g>
<!-- Node1&#45;&gt;Node2 -->
<g id="edge1_Node000001_Node000002" class="edge">
<title>Node1&#45;&gt;Node2</title>
<g id="a_edge1_Node000001_Node000002"><a xlink:title=" ">
<path fill="none" stroke="#63b8ff" d="M97.17,-69.38C105.18,-69.38 113.47,-69.38 121.4,-69.38"/>
<polygon fill="#63b8ff" stroke="#63b8ff" points="121.17,-72.88 131.17,-69.38 121.17,-65.88 121.17,-72.88"/>
</a>
</g>
</g>
<!-- Node3 -->
<g id="Node000003" class="node">
<title>Node3</title>
<g id="a_Node000003"><a xlink:href="app_8c.html#a0378208e0d5c0d1d6e7370f1c578fab3" target="_top" xlink:title=" ">
<polygon fill="white" stroke="#666666" points="719.5,-98.75 651.75,-98.75 651.75,-78 719.5,-78 719.5,-98.75"/>
<text text-anchor="middle" x="685.62" y="-85.25" font-family="Helvetica,sans-Serif" font-size="10.00">w2c__f216</text>
</a>
</g>
</g>
<!-- Node2&#45;&gt;Node3 -->
<g id="edge2_Node000002_Node000003" class="edge">
<title>Node2&#45;&gt;Node3</title>
<g id="a_edge2_Node000002_Node000003"><a xlink:title=" ">
<path fill="none" stroke="#63b8ff" d="M201.25,-74.37C241.83,-80 312.47,-88.38 373.38,-88.38 373.38,-88.38 373.38,-88.38 479.12,-88.38 534.61,-88.38 598.52,-88.38 640.14,-88.38"/>
<polygon fill="#63b8ff" stroke="#63b8ff" points="640.01,-91.88 650.01,-88.38 640.01,-84.88 640.01,-91.88"/>
</a>
</g>
</g>
<!-- Node5 -->
<g id="Node000005" class="node">
<title>Node5</title>
<g id="a_Node000005"><a xlink:href="app_8c.html#a8c2397afdef3a068e7ddfae863c81afc" target="_top" xlink:title=" ">
<polygon fill="white" stroke="#666666" points="719.5,-20.75 651.75,-20.75 651.75,0 719.5,0 719.5,-20.75"/>
<text text-anchor="middle" x="685.62" y="-7.25" font-family="Helvetica,sans-Serif" font-size="10.00">w2c__f523</text>
</a>
</g>
</g>
<!-- Node2&#45;&gt;Node5 -->
<g id="edge4_Node000002_Node000005" class="edge">
<title>Node2&#45;&gt;Node5</title>
<g id="a_edge4_Node000002_Node000005"><a xlink:title=" ">
<path fill="none" stroke="#63b8ff" d="M191.03,-58.52C228.48,-41.98 305.07,-12.38 373.38,-12.38 373.38,-12.38 373.38,-12.38 479.12,-12.38 534.61,-12.38 598.52,-11.64 640.14,-11.06"/>
<polygon fill="#63b8ff" stroke="#63b8ff" points="640.06,-14.56 650.01,-10.92 639.96,-7.56 640.06,-14.56"/>
</a>
</g>
</g>
<!-- Node7 -->
<g id="Node000007" class="node">
<title>Node7</title>
<g id="a_Node000007"><a xlink:href="app_8c.html#ab16838b13b3b04803218f8829fdd28dd" target="_top" xlink:title=" ">
<polygon fill="white" stroke="#666666" points="304.5,-137.75 236.75,-137.75 236.75,-117 304.5,-117 304.5,-137.75"/>
<text text-anchor="middle" x="270.62" y="-124.25" font-family="Helvetica,sans-Serif" font-size="10.00">w2c__f535</text>
</a>
</g>
</g>
<!-- Node2&#45;&gt;Node7 -->
<g id="edge6_Node000002_Node000007" class="edge">
<title>Node2&#45;&gt;Node7</title>
<g id="a_edge6_Node000002_Node000007"><a xlink:title=" ">
<path fill="none" stroke="#63b8ff" d="M186.54,-80.01C201.79,-88.71 223.6,-101.14 241.05,-111.09"/>
<polygon fill="#63b8ff" stroke="#63b8ff" points="239,-113.95 249.42,-115.86 242.47,-107.87 239,-113.95"/>
</a>
</g>
</g>
<!-- Node16 -->
<g id="Node000016" class="node">
<title>Node16</title>
<g id="a_Node000016"><a xlink:href="app_8c.html#a769b7c2ede58215b4aa18ce981255362" target="_top" xlink:title=" ">
<polygon fill="white" stroke="#666666" points="615.75,-60.75 548,-60.75 548,-40 615.75,-40 615.75,-60.75"/>
<text text-anchor="middle" x="581.88" y="-47.25" font-family="Helvetica,sans-Serif" font-size="10.00">w2c__f582</text>
</a>
</g>
</g>
<!-- Node2&#45;&gt;Node16 -->
<g id="edge22_Node000002_Node000016" class="edge">
<title>Node2&#45;&gt;Node16</title>
<g id="a_edge22_Node000002_Node000016"><a xlink:title=" ">
<path fill="none" stroke="#63b8ff" d="M200.97,-67.85C274.76,-64.46 452.76,-56.27 536.25,-52.43"/>
<polygon fill="#63b8ff" stroke="#63b8ff" points="536.28,-55.93 546.11,-51.97 535.96,-48.94 536.28,-55.93"/>
</a>
</g>
</g>
<!-- Node4 -->
<g id="Node000004" class="node">
<title>Node4</title>
<g id="a_Node000004"><a xlink:href="app_8c.html#a8d9f347f9a643f0ebfb53c4f54578ac4" target="_top" xlink:title=" ">
<polygon fill="white" stroke="#666666" points="823.25,-214.75 755.5,-214.75 755.5,-194 823.25,-194 823.25,-214.75"/>
<text text-anchor="middle" x="789.38" y="-201.25" font-family="Helvetica,sans-Serif" font-size="10.00">w2c__f304</text>
</a>
</g>
</g>
<!-- Node3&#45;&gt;Node4 -->
<g id="edge3_Node000003_Node000004" class="edge">
<title>Node3&#45;&gt;Node4</title>
<g id="a_edge3_Node000003_Node000004"><a xlink:title=" ">
<path fill="none" stroke="#63b8ff" d="M708.51,-99.2C712.49,-101.83 716.37,-104.9 719.5,-108.38 744.52,-136.14 730.48,-156.61 755.5,-184.38 756.18,-185.14 756.91,-185.88 757.65,-186.6"/>
<polygon fill="#63b8ff" stroke="#63b8ff" points="755.27,-189.18 765.3,-192.61 759.6,-183.68 755.27,-189.18"/>
</a>
</g>
</g>
<!-- Node6 -->
<g id="Node000006" class="node">
<title>Node6</title>
<g id="a_Node000006"><a xlink:href="app_8c.html#a75d2a28c1bac8b1e29f069bf851fdba9" target="_top" xlink:title=" ">
<polygon fill="white" stroke="#666666" points="823.25,-20.75 755.5,-20.75 755.5,0 823.25,0 823.25,-20.75"/>
<text text-anchor="middle" x="789.38" y="-7.25" font-family="Helvetica,sans-Serif" font-size="10.00">w2c__f549</text>
</a>
</g>
</g>
<!-- Node5&#45;&gt;Node6 -->
<g id="edge5_Node000005_Node000006" class="edge">
<title>Node5&#45;&gt;Node6</title>
<g id="a_edge5_Node000005_Node000006"><a xlink:title=" ">
<path fill="none" stroke="#63b8ff" d="M719.94,-10.38C727.57,-10.38 735.81,-10.38 743.83,-10.38"/>
<polygon fill="#63b8ff" stroke="#63b8ff" points="743.82,-13.88 753.82,-10.38 743.82,-6.88 743.82,-13.88"/>
</a>
</g>
</g>
<!-- Node8 -->
<g id="Node000008" class="node">
<title>Node8</title>
<g id="a_Node000008"><a xlink:href="app_8c.html#a674f6e81761467d0a8dc6d2a425eda9f" target="_top" xlink:title=" ">
<polygon fill="white" stroke="#666666" points="719.5,-137.75 651.75,-137.75 651.75,-117 719.5,-117 719.5,-137.75"/>
<text text-anchor="middle" x="685.62" y="-124.25" font-family="Helvetica,sans-Serif" font-size="10.00">w2c__f498</text>
</a>
</g>
</g>
<!-- Node7&#45;&gt;Node8 -->
<g id="edge7_Node000007_Node000008" class="edge">
<title>Node7&#45;&gt;Node8</title>
<g id="a_edge7_Node000007_Node000008"><a xlink:title=" ">
<path fill="none" stroke="#63b8ff" d="M304.72,-127.38C378.51,-127.38 556.51,-127.38 640,-127.38"/>
<polygon fill="#63b8ff" stroke="#63b8ff" points="639.85,-130.88 649.85,-127.38 639.85,-123.88 639.85,-130.88"/>
</a>
</g>
</g>
<!-- Node9 -->
<g id="Node000009" class="node">
<title>Node9</title>
<g id="a_Node000009"><a xlink:href="app_8c.html#a6cf2e7d1cf333a3a679afd04df9d6129" target="_top" xlink:title=" ">
<polygon fill="white" stroke="#666666" points="408.25,-175.75 340.5,-175.75 340.5,-155 408.25,-155 408.25,-175.75"/>
<text text-anchor="middle" x="374.38" y="-162.25" font-family="Helvetica,sans-Serif" font-size="10.00">w2c__f550</text>
</a>
</g>
</g>
<!-- Node7&#45;&gt;Node9 -->
<g id="edge8_Node000007_Node000009" class="edge">
<title>Node7&#45;&gt;Node9</title>
<g id="a_edge8_Node000007_Node000009"><a xlink:title=" ">
<path fill="none" stroke="#63b8ff" d="M300.51,-138.16C310.82,-142.01 322.63,-146.42 333.69,-150.55"/>
<polygon fill="#63b8ff" stroke="#63b8ff" points="332.41,-153.81 343,-154.03 334.86,-147.25 332.41,-153.81"/>
</a>
</g>
</g>
<!-- Node10 -->
<g id="Node000010" class="node">
<title>Node10</title>
<g id="a_Node000010"><a xlink:href="app_8c.html#a1a8a1d528c65d63a630e19c3a4bdd098" target="_top" xlink:title=" ">
<polygon fill="white" stroke="#666666" points="512,-175.75 444.25,-175.75 444.25,-155 512,-155 512,-175.75"/>
<text text-anchor="middle" x="478.12" y="-162.25" font-family="Helvetica,sans-Serif" font-size="10.00">w2c__f557</text>
</a>
</g>
</g>
<!-- Node9&#45;&gt;Node10 -->
<g id="edge9_Node000009_Node000010" class="edge">
<title>Node9&#45;&gt;Node10</title>
<g id="a_edge9_Node000009_Node000010"><a xlink:title=" ">
<path fill="none" stroke="#63b8ff" d="M408.69,-165.38C416.32,-165.38 424.56,-165.38 432.58,-165.38"/>
<polygon fill="#63b8ff" stroke="#63b8ff" points="432.57,-168.88 442.57,-165.38 432.57,-161.88 432.57,-168.88"/>
</a>
</g>
</g>
<!-- Node11 -->
<g id="Node000011" class="node">
<title>Node11</title>
<g id="a_Node000011"><a xlink:href="app_8c.html#a0f7003812eaf983535ff7979fc047a21" target="_top" xlink:title=" ">
<polygon fill="white" stroke="#666666" points="615.75,-214.75 548,-214.75 548,-194 615.75,-194 615.75,-214.75"/>
<text text-anchor="middle" x="581.88" y="-201.25" font-family="Helvetica,sans-Serif" font-size="10.00">w2c__f353</text>
</a>
</g>
</g>
<!-- Node10&#45;&gt;Node11 -->
<g id="edge10_Node000010_Node000011" class="edge">
<title>Node10&#45;&gt;Node11</title>
<g id="a_edge10_Node000010_Node000011"><a xlink:title=" ">
<path fill="none" stroke="#63b8ff" d="M507.47,-176.24C518.16,-180.34 530.52,-185.08 542.01,-189.48"/>
<polygon fill="#63b8ff" stroke="#63b8ff" points="540.68,-192.72 551.27,-193.03 543.19,-186.18 540.68,-192.72"/>
</a>
</g>
</g>
<!-- Node15 -->
<g id="Node000015" class="node">
<title>Node15</title>
<g id="a_Node000015"><a xlink:href="app_8c.html#ac9cc84763a9c1933e50eedd7a06c17e2" target="_top" xlink:title=" ">
<polygon fill="white" stroke="#666666" points="615.75,-175.75 548,-175.75 548,-155 615.75,-155 615.75,-175.75"/>
<text text-anchor="middle" x="581.88" y="-162.25" font-family="Helvetica,sans-Serif" font-size="10.00">w2c__f480</text>
</a>
</g>
</g>
<!-- Node10&#45;&gt;Node15 -->
<g id="edge16_Node000010_Node000015" class="edge">
<title>Node10&#45;&gt;Node15</title>
<g id="a_edge16_Node000010_Node000015"><a xlink:title=" ">
<path fill="none" stroke="#63b8ff" d="M512.44,-165.38C520.07,-165.38 528.31,-165.38 536.33,-165.38"/>
<polygon fill="#63b8ff" stroke="#63b8ff" points="536.32,-168.88 546.32,-165.38 536.32,-161.88 536.32,-168.88"/>
</a>
</g>
</g>
<!-- Node12 -->
<g id="Node000012" class="node">
<title>Node12</title>
<g id="a_Node000012"><a xlink:href="app_8c.html#aaca5d5bcf49f2ca74019cf097750b9f3" target="_top" xlink:title=" ">
<polygon fill="white" stroke="#666666" points="719.5,-176.75 651.75,-176.75 651.75,-156 719.5,-156 719.5,-176.75"/>
<text text-anchor="middle" x="685.62" y="-163.25" font-family="Helvetica,sans-Serif" font-size="10.00">w2c__f258</text>
</a>
</g>
</g>
<!-- Node11&#45;&gt;Node12 -->
<g id="edge11_Node000011_Node000012" class="edge">
<title>Node11&#45;&gt;Node12</title>
<g id="a_edge11_Node000011_Node000012"><a xlink:title=" ">
<path fill="none" stroke="#63b8ff" d="M611.76,-193.59C622.07,-189.74 633.88,-185.33 644.94,-181.2"/>
<polygon fill="#63b8ff" stroke="#63b8ff" points="646.11,-184.5 654.25,-177.72 643.66,-177.94 646.11,-184.5"/>
</a>
</g>
</g>
<!-- Node14 -->
<g id="Node000014" class="node">
<title>Node14</title>
<g id="a_Node000014"><a xlink:href="app_8c.html#a4634342addbde677893ffcb45cf639dd" target="_top" xlink:title=" ">
<polygon fill="white" stroke="#666666" points="719.5,-252.75 651.75,-252.75 651.75,-232 719.5,-232 719.5,-252.75"/>
<text text-anchor="middle" x="685.62" y="-239.25" font-family="Helvetica,sans-Serif" font-size="10.00">w2c__f302</text>
</a>
</g>
</g>
<!-- Node11&#45;&gt;Node14 -->
<g id="edge14_Node000011_Node000014" class="edge">
<title>Node11&#45;&gt;Node14</title>
<g id="a_edge14_Node000011_Node000014"><a xlink:title=" ">
<path fill="none" stroke="#63b8ff" d="M611.76,-215.16C622.07,-219.01 633.88,-223.42 644.94,-227.55"/>
<polygon fill="#63b8ff" stroke="#63b8ff" points="643.66,-230.81 654.25,-231.03 646.11,-224.25 643.66,-230.81"/>
</a>
</g>
</g>
<!-- Node12&#45;&gt;Node4 -->
<g id="edge12_Node000012_Node000004" class="edge">
<title>Node12&#45;&gt;Node4</title>
<g id="a_edge12_Node000012_Node000004"><a xlink:title=" ">
<path fill="none" stroke="#63b8ff" d="M715.51,-177.16C725.82,-181.01 737.63,-185.42 748.69,-189.55"/>
<polygon fill="#63b8ff" stroke="#63b8ff" points="747.41,-192.81 758,-193.03 749.86,-186.25 747.41,-192.81"/>
</a>
</g>
</g>
<!-- Node13 -->
<g id="Node000013" class="node">
<title>Node13</title>
<g id="a_Node000013"><a xlink:href="app_8c.html#a881f0b113e93dce3ff52d04b435850f6" target="_top" xlink:title=" ">
<polygon fill="white" stroke="#666666" points="823.25,-175.75 755.5,-175.75 755.5,-155 823.25,-155 823.25,-175.75"/>
<text text-anchor="middle" x="789.38" y="-162.25" font-family="Helvetica,sans-Serif" font-size="10.00">w2c__f491</text>
</a>
</g>
</g>
<!-- Node12&#45;&gt;Node13 -->
<g id="edge13_Node000012_Node000013" class="edge">
<title>Node12&#45;&gt;Node13</title>
<g id="a_edge13_Node000012_Node000013"><a xlink:title=" ">
<path fill="none" stroke="#63b8ff" d="M719.94,-166.05C727.57,-165.97 735.81,-165.89 743.83,-165.81"/>
<polygon fill="#63b8ff" stroke="#63b8ff" points="743.85,-169.31 753.82,-165.71 743.78,-162.31 743.85,-169.31"/>
</a>
</g>
</g>
<!-- Node14&#45;&gt;Node4 -->
<g id="edge15_Node000014_Node000004" class="edge">
<title>Node14&#45;&gt;Node4</title>
<g id="a_edge15_Node000014_Node000004"><a xlink:title=" ">
<path fill="none" stroke="#63b8ff" d="M715.51,-231.59C725.82,-227.74 737.63,-223.33 748.69,-219.2"/>
<polygon fill="#63b8ff" stroke="#63b8ff" points="749.86,-222.5 758,-215.72 747.41,-215.94 749.86,-222.5"/>
</a>
</g>
</g>
<!-- Node15&#45;&gt;Node3 -->
<g id="edge17_Node000015_Node000003" class="edge">
<title>Node15&#45;&gt;Node3</title>
<g id="a_edge17_Node000015_Node000003"><a xlink:title=" ">
<path fill="none" stroke="#63b8ff" d="M594.65,-154.74C608.03,-142.85 630.76,-123.32 651.75,-108.38 653.28,-107.28 654.88,-106.19 656.5,-105.11"/>
<polygon fill="#63b8ff" stroke="#63b8ff" points="658.06,-108.26 664.62,-99.94 654.3,-102.36 658.06,-108.26"/>
</a>
</g>
</g>
<!-- Node15&#45;&gt;Node4 -->
<g id="edge20_Node000015_Node000004" class="edge">
<title>Node15&#45;&gt;Node4</title>
<g id="a_edge20_Node000015_Node000004"><a xlink:title=" ">
<path fill="none" stroke="#63b8ff" d="M615.91,-176.02C627.19,-179.37 639.94,-182.85 651.75,-185.38 682.15,-191.87 716.84,-196.66 743.66,-199.81"/>
<polygon fill="#63b8ff" stroke="#63b8ff" points="743.18,-203.28 753.51,-200.93 743.97,-196.32 743.18,-203.28"/>
</a>
</g>
</g>
<!-- Node15&#45;&gt;Node8 -->
<g id="edge21_Node000015_Node000008" class="edge">
<title>Node15&#45;&gt;Node8</title>
<g id="a_edge21_Node000015_Node000008"><a xlink:title=" ">
<path fill="none" stroke="#63b8ff" d="M611.76,-154.59C622.07,-150.74 633.88,-146.33 644.94,-142.2"/>
<polygon fill="#63b8ff" stroke="#63b8ff" points="646.11,-145.5 654.25,-138.72 643.66,-138.94 646.11,-145.5"/>
</a>
</g>
</g>
<!-- Node15&#45;&gt;Node12 -->
<g id="edge18_Node000015_Node000012" class="edge">
<title>Node15&#45;&gt;Node12</title>
<g id="a_edge18_Node000015_Node000012"><a xlink:title=" ">
<path fill="none" stroke="#63b8ff" d="M616.19,-165.7C623.82,-165.78 632.06,-165.86 640.08,-165.94"/>
<polygon fill="#63b8ff" stroke="#63b8ff" points="640.03,-169.44 650.07,-166.04 640.1,-162.44 640.03,-169.44"/>
</a>
</g>
</g>
<!-- Node15&#45;&gt;Node14 -->
<g id="edge19_Node000015_Node000014" class="edge">
<title>Node15&#45;&gt;Node14</title>
<g id="a_edge19_Node000015_Node000014"><a xlink:title=" ">
<path fill="none" stroke="#63b8ff" d="M602.07,-176.18C606.66,-179.01 611.48,-182.17 615.75,-185.38 633.1,-198.41 634.96,-204.62 651.75,-218.38 654.45,-220.59 657.33,-222.84 660.23,-225.03"/>
<polygon fill="#63b8ff" stroke="#63b8ff" points="657.96,-227.71 668.08,-230.83 662.11,-222.08 657.96,-227.71"/>
</a>
</g>
</g>
<!-- Node16&#45;&gt;Node3 -->
<g id="edge23_Node000016_Node000003" class="edge">
<title>Node16&#45;&gt;Node3</title>
<g id="a_edge23_Node000016_Node000003"><a xlink:title=" ">
<path fill="none" stroke="#63b8ff" d="M611.76,-61.16C622.07,-65.01 633.88,-69.42 644.94,-73.55"/>
<polygon fill="#63b8ff" stroke="#63b8ff" points="643.66,-76.81 654.25,-77.03 646.11,-70.25 643.66,-76.81"/>
</a>
</g>
</g>
<!-- Node16&#45;&gt;Node5 -->
<g id="edge26_Node000016_Node000005" class="edge">
<title>Node16&#45;&gt;Node5</title>
<g id="a_edge26_Node000016_Node000005"><a xlink:title=" ">
<path fill="none" stroke="#63b8ff" d="M610.41,-39.55C621.49,-35.19 634.47,-30.09 646.44,-25.39"/>
<polygon fill="#63b8ff" stroke="#63b8ff" points="647.63,-28.68 655.66,-21.76 645.07,-22.16 647.63,-28.68"/>
</a>
</g>
</g>
<!-- Node16&#45;&gt;Node8 -->
<g id="edge25_Node000016_Node000008" class="edge">
<title>Node16&#45;&gt;Node8</title>
<g id="a_edge25_Node000016_Node000008"><a xlink:title=" ">
<path fill="none" stroke="#63b8ff" d="M594.65,-61.01C608.03,-72.9 630.76,-92.43 651.75,-107.38 653.28,-108.47 654.88,-109.56 656.5,-110.64"/>
<polygon fill="#63b8ff" stroke="#63b8ff" points="654.3,-113.39 664.62,-115.81 658.06,-107.49 654.3,-113.39"/>
</a>
</g>
</g>
<!-- Node16&#45;&gt;Node12 -->
<g id="edge24_Node000016_Node000012" class="edge">
<title>Node16&#45;&gt;Node12</title>
<g id="a_edge24_Node000016_Node000012"><a xlink:title=" ">
<path fill="none" stroke="#63b8ff" d="M588.72,-61.24C599.33,-80.25 623.32,-120.02 651.75,-146.38 652.66,-147.22 653.6,-148.04 654.58,-148.84"/>
<polygon fill="#63b8ff" stroke="#63b8ff" points="652.5,-151.66 662.67,-154.64 656.58,-145.97 652.5,-151.66"/>
</a>
</g>
</g>
<!-- Node17 -->
<g id="Node000017" class="node">
<title>Node17</title>
<g id="a_Node000017"><a xlink:href="app_8c.html#a672569c91ebb1d5055d737b56ec296a7" target="_top" xlink:title=" ">
<polygon fill="white" stroke="#666666" points="719.5,-59.75 651.75,-59.75 651.75,-39 719.5,-39 719.5,-59.75"/>
<text text-anchor="middle" x="685.62" y="-46.25" font-family="Helvetica,sans-Serif" font-size="10.00">w2c__f585</text>
</a>
</g>
</g>
<!-- Node16&#45;&gt;Node17 -->
<g id="edge27_Node000016_Node000017" class="edge">
<title>Node16&#45;&gt;Node17</title>
<g id="a_edge27_Node000016_Node000017"><a xlink:title=" ">
<path fill="none" stroke="#63b8ff" d="M616.19,-50.05C623.82,-49.97 632.06,-49.89 640.08,-49.81"/>
<polygon fill="#63b8ff" stroke="#63b8ff" points="640.1,-53.31 650.07,-49.71 640.03,-46.31 640.1,-53.31"/>
</a>
</g>
</g>
</g>
</svg>
