<?xml version="1.0" encoding="UTF-8" standalone="no"?>
<!DOCTYPE svg PUBLIC "-//W3C//DTD SVG 1.1//EN"
 "http://www.w3.org/Graphics/SVG/1.1/DTD/svg11.dtd">
<!-- Generated by graphviz version 12.2.1 (0)
 -->
<!-- Title: w2c_0_73 Pages: 1 -->
<svg width="546pt" height="129pt"
 viewBox="0.00 0.00 545.50 129.07" xmlns="http://www.w3.org/2000/svg" xmlns:xlink="http://www.w3.org/1999/xlink">
<g id="graph0" class="graph" transform="scale(1 1) rotate(0) translate(4 125.07)">
<title>w2c_0_73</title>
<!-- Node1 -->
<g id="Node000001" class="node">
<title>Node1</title>
<g id="a_Node000001"><a xlink:title=" ">
<polygon fill="#999999" stroke="#666666" points="537.5,-62.07 473.5,-62.07 473.5,-41.32 537.5,-41.32 537.5,-62.07"/>
<text text-anchor="middle" x="505.5" y="-48.57" font-family="Helvetica,sans-Serif" font-size="10.00">w2c_0_73</text>
</a>
</g>
</g>
<!-- Node2 -->
<g id="Node000002" class="node">
<title>Node2</title>
<g id="a_Node000002"><a xlink:href="app_8c.html#aeb12ecc9385837eed1de8b75424f1317" target="_top" xlink:title=" ">
<polygon fill="white" stroke="#666666" points="437.5,-43.07 369.75,-43.07 369.75,-22.32 437.5,-22.32 437.5,-43.07"/>
<text text-anchor="middle" x="403.62" y="-29.57" font-family="Helvetica,sans-Serif" font-size="10.00">w2c__f205</text>
</a>
</g>
</g>
<!-- Node1&#45;&gt;Node2 -->
<g id="edge1_Node000001_Node000002" class="edge">
<title>Node1&#45;&gt;Node2</title>
<g id="a_edge1_Node000001_Node000002"><a xlink:title=" ">
<path fill="none" stroke="#63b8ff" d="M462.04,-43.62C453.97,-42.09 445.64,-40.5 437.91,-39.03"/>
<polygon fill="#63b8ff" stroke="#63b8ff" points="461.21,-47.03 471.69,-45.46 462.52,-40.15 461.21,-47.03"/>
</a>
</g>
</g>
<!-- Node4 -->
<g id="Node000004" class="node">
<title>Node4</title>
<g id="a_Node000004"><a xlink:href="app_8c.html#a86ae468e235684021eadfdacd5cb9dba" target="_top" xlink:title=" ">
<polygon fill="white" stroke="#666666" points="200.75,-43.07 133,-43.07 133,-22.32 200.75,-22.32 200.75,-43.07"/>
<text text-anchor="middle" x="166.88" y="-29.57" font-family="Helvetica,sans-Serif" font-size="10.00">w2c__f452</text>
</a>
</g>
</g>
<!-- Node1&#45;&gt;Node4 -->
<g id="edge8_Node000001_Node000004" class="edge">
<title>Node1&#45;&gt;Node4</title>
<g id="a_edge8_Node000001_Node000004"><a xlink:title=" ">
<path fill="none" stroke="#63b8ff" d="M481.1,-34.45C468.79,-26.44 453.06,-17.8 437.5,-13.7 351.23,9.06 325.17,-1.73 236.75,-13.7 224.58,-15.35 211.52,-18.56 200.08,-21.89"/>
<polygon fill="#63b8ff" stroke="#63b8ff" points="479.07,-37.3 489.3,-40.06 483.02,-31.52 479.07,-37.3"/>
</a>
</g>
</g>
<!-- Node7 -->
<g id="Node000007" class="node">
<title>Node7</title>
<g id="a_Node000007"><a xlink:href="app_8c.html#a172dc6e51e60b69c5871fbabfa215af9" target="_top" xlink:title=" ">
<polygon fill="white" stroke="#666666" points="437.5,-121.07 369.75,-121.07 369.75,-100.32 437.5,-100.32 437.5,-121.07"/>
<text text-anchor="middle" x="403.62" y="-107.57" font-family="Helvetica,sans-Serif" font-size="10.00">w2c__f288</text>
</a>
</g>
</g>
<!-- Node1&#45;&gt;Node7 -->
<g id="edge6_Node000001_Node000007" class="edge">
<title>Node1&#45;&gt;Node7</title>
<g id="a_edge6_Node000001_Node000007"><a xlink:title=" ">
<path fill="none" stroke="#63b8ff" d="M476.64,-68.16C459.44,-78.32 437.86,-91.07 422.83,-99.95"/>
<polygon fill="#63b8ff" stroke="#63b8ff" points="478.05,-71.39 484.88,-63.29 474.49,-65.36 478.05,-71.39"/>
</a>
</g>
</g>
<!-- Node8 -->
<g id="Node000008" class="node">
<title>Node8</title>
<g id="a_Node000008"><a xlink:href="app_8c.html#a1e1380e4c537909f6add6fd427bdd8dc" target="_top" xlink:title=" ">
<polygon fill="white" stroke="#666666" points="437.5,-82.07 369.75,-82.07 369.75,-61.32 437.5,-61.32 437.5,-82.07"/>
<text text-anchor="middle" x="403.62" y="-68.57" font-family="Helvetica,sans-Serif" font-size="10.00">w2c__f492</text>
</a>
</g>
</g>
<!-- Node1&#45;&gt;Node8 -->
<g id="edge9_Node000001_Node000008" class="edge">
<title>Node1&#45;&gt;Node8</title>
<g id="a_edge9_Node000001_Node000008"><a xlink:title=" ">
<path fill="none" stroke="#63b8ff" d="M462.04,-60.2C453.97,-61.82 445.64,-63.49 437.91,-65.03"/>
<polygon fill="#63b8ff" stroke="#63b8ff" points="462.57,-63.67 471.69,-58.27 461.2,-56.8 462.57,-63.67"/>
</a>
</g>
</g>
<!-- Node3 -->
<g id="Node000003" class="node">
<title>Node3</title>
<g id="a_Node000003"><a xlink:href="app_8c.html#a6c30f2996216fe44cdda84ff266f8b19" target="_top" xlink:title=" ">
<polygon fill="white" stroke="#666666" points="319.12,-82.07 251.38,-82.07 251.38,-61.32 319.12,-61.32 319.12,-82.07"/>
<text text-anchor="middle" x="285.25" y="-68.57" font-family="Helvetica,sans-Serif" font-size="10.00">w2c__f362</text>
</a>
</g>
</g>
<!-- Node2&#45;&gt;Node3 -->
<g id="edge2_Node000002_Node000003" class="edge">
<title>Node2&#45;&gt;Node3</title>
<g id="a_edge2_Node000002_Node000003"><a xlink:title=" ">
<path fill="none" stroke="#63b8ff" d="M359.61,-47.11C346.01,-51.67 331.21,-56.63 318.49,-60.89"/>
<polygon fill="#63b8ff" stroke="#63b8ff" points="360.4,-50.54 368.77,-44.04 358.18,-43.9 360.4,-50.54"/>
</a>
</g>
</g>
<!-- Node6 -->
<g id="Node000006" class="node">
<title>Node6</title>
<g id="a_Node000006"><a xlink:href="app_8c.html#a9832170d75416f4f84ba0d11565ef970" target="_top" xlink:title=" ">
<polygon fill="white" stroke="#666666" points="333.75,-43.07 236.75,-43.07 236.75,-22.32 333.75,-22.32 333.75,-43.07"/>
<text text-anchor="middle" x="285.25" y="-29.57" font-family="Helvetica,sans-Serif" font-size="10.00">wrap_w2c__f205</text>
</a>
</g>
</g>
<!-- Node2&#45;&gt;Node6 -->
<g id="edge5_Node000002_Node000006" class="edge">
<title>Node2&#45;&gt;Node6</title>
<g id="a_edge5_Node000002_Node000006"><a xlink:title=" ">
<path fill="none" stroke="#63b8ff" d="M358.03,-32.7C350.14,-32.7 341.89,-32.7 333.91,-32.7"/>
<polygon fill="#63b8ff" stroke="#63b8ff" points="357.76,-36.2 367.76,-32.7 357.76,-29.2 357.76,-36.2"/>
</a>
</g>
</g>
<!-- Node3&#45;&gt;Node4 -->
<g id="edge3_Node000003_Node000004" class="edge">
<title>Node3&#45;&gt;Node4</title>
<g id="a_edge3_Node000003_Node000004"><a xlink:title=" ">
<path fill="none" stroke="#63b8ff" d="M241.24,-57.29C227.63,-52.73 212.84,-47.77 200.12,-43.5"/>
<polygon fill="#63b8ff" stroke="#63b8ff" points="239.8,-60.5 250.4,-60.35 242.03,-53.86 239.8,-60.5"/>
</a>
</g>
</g>
<!-- Node5 -->
<g id="Node000005" class="node">
<title>Node5</title>
<g id="a_Node000005"><a xlink:href="app_8c.html#a57ca4f801147f9325a0ea7cc2d7192c5" target="_top" xlink:title=" ">
<polygon fill="white" stroke="#666666" points="97,-43.07 0,-43.07 0,-22.32 97,-22.32 97,-43.07"/>
<text text-anchor="middle" x="48.5" y="-29.57" font-family="Helvetica,sans-Serif" font-size="10.00">wrap_w2c__f452</text>
</a>
</g>
</g>
<!-- Node4&#45;&gt;Node5 -->
<g id="edge4_Node000004_Node000005" class="edge">
<title>Node4&#45;&gt;Node5</title>
<g id="a_edge4_Node000004_Node000005"><a xlink:title=" ">
<path fill="none" stroke="#63b8ff" d="M121.28,-32.7C113.39,-32.7 105.14,-32.7 97.16,-32.7"/>
<polygon fill="#63b8ff" stroke="#63b8ff" points="121.01,-36.2 131.01,-32.7 121.01,-29.2 121.01,-36.2"/>
</a>
</g>
</g>
<!-- Node7&#45;&gt;Node3 -->
<g id="edge7_Node000007_Node000003" class="edge">
<title>Node7&#45;&gt;Node3</title>
<g id="a_edge7_Node000007_Node000003"><a xlink:title=" ">
<path fill="none" stroke="#63b8ff" d="M359.61,-96.29C346.01,-91.73 331.21,-86.77 318.49,-82.5"/>
<polygon fill="#63b8ff" stroke="#63b8ff" points="358.18,-99.5 368.77,-99.35 360.4,-92.86 358.18,-99.5"/>
</a>
</g>
</g>
<!-- Node8&#45;&gt;Node3 -->
<g id="edge10_Node000008_Node000003" class="edge">
<title>Node8&#45;&gt;Node3</title>
<g id="a_edge10_Node000008_Node000003"><a xlink:title=" ">
<path fill="none" stroke="#63b8ff" d="M357.91,-71.7C345.18,-71.7 331.53,-71.7 319.6,-71.7"/>
<polygon fill="#63b8ff" stroke="#63b8ff" points="357.76,-75.2 367.76,-71.7 357.76,-68.2 357.76,-75.2"/>
</a>
</g>
</g>
</g>
</svg>
