<?xml version="1.0" encoding="UTF-8" standalone="no"?>
<!DOCTYPE svg PUBLIC "-//W3C//DTD SVG 1.1//EN"
 "http://www.w3.org/Graphics/SVG/1.1/DTD/svg11.dtd">
<!-- Generated by graphviz version 12.2.1 (0)
 -->
<!-- Title: w2c__f469 Pages: 1 -->
<svg width="491pt" height="407pt"
 viewBox="0.00 0.00 490.75 407.45" xmlns="http://www.w3.org/2000/svg" xmlns:xlink="http://www.w3.org/1999/xlink">
<g id="graph0" class="graph" transform="scale(1 1) rotate(0) translate(4 403.45)">
<title>w2c__f469</title>
<!-- Node1 -->
<g id="Node000001" class="node">
<title>Node1</title>
<g id="a_Node000001"><a xlink:title=" ">
<polygon fill="#999999" stroke="#666666" points="482.75,-208.48 415,-208.48 415,-187.73 482.75,-187.73 482.75,-208.48"/>
<text text-anchor="middle" x="448.88" y="-194.98" font-family="Helvetica,sans-Serif" font-size="10.00">w2c__f469</text>
</a>
</g>
</g>
<!-- Node2 -->
<g id="Node000002" class="node">
<title>Node2</title>
<g id="a_Node000002"><a xlink:href="app_8c.html#ab5a3eb75567e85becd3ea69f3cefe6c1" target="_top" xlink:title=" ">
<polygon fill="white" stroke="#666666" points="275.25,-379.48 207.5,-379.48 207.5,-358.73 275.25,-358.73 275.25,-379.48"/>
<text text-anchor="middle" x="241.38" y="-365.98" font-family="Helvetica,sans-Serif" font-size="10.00">w2c__f285</text>
</a>
</g>
</g>
<!-- Node1&#45;&gt;Node2 -->
<g id="edge1_Node000001_Node000002" class="edge">
<title>Node1&#45;&gt;Node2</title>
<g id="a_edge1_Node000001_Node000002"><a xlink:title=" ">
<path fill="none" stroke="#63b8ff" d="M439.87,-219.34C429.4,-244.56 408.79,-286.43 379,-312.1 348.92,-338.03 305.38,-353.42 275.59,-361.55"/>
<polygon fill="#63b8ff" stroke="#63b8ff" points="443.09,-220.73 443.53,-210.15 436.58,-218.15 443.09,-220.73"/>
</a>
</g>
</g>
<!-- Node3 -->
<g id="Node000003" class="node">
<title>Node3</title>
<g id="a_Node000003"><a xlink:href="app_8c.html#adb357000a4d9b03118bb4a6a7435605d" target="_top" xlink:title=" ">
<polygon fill="white" stroke="#666666" points="171.5,-322.48 103.75,-322.48 103.75,-301.73 171.5,-301.73 171.5,-322.48"/>
<text text-anchor="middle" x="137.62" y="-308.98" font-family="Helvetica,sans-Serif" font-size="10.00">w2c__f404</text>
</a>
</g>
</g>
<!-- Node1&#45;&gt;Node3 -->
<g id="edge12_Node000001_Node000003" class="edge">
<title>Node1&#45;&gt;Node3</title>
<g id="a_edge12_Node000001_Node000003"><a xlink:title=" ">
<path fill="none" stroke="#63b8ff" d="M406.94,-212.68C397.77,-215.85 388.07,-219.15 379,-222.1 303.27,-246.77 280.88,-243.14 207.5,-274.1 189.13,-281.86 169.31,-293.12 155.67,-301.38"/>
<polygon fill="#63b8ff" stroke="#63b8ff" points="408.08,-215.99 416.36,-209.39 405.77,-209.38 408.08,-215.99"/>
</a>
</g>
</g>
<!-- Node4 -->
<g id="Node000004" class="node">
<title>Node4</title>
<g id="a_Node000004"><a xlink:href="app_8c.html#a05d83e696cfaa26355c9732ee9ea4cd0" target="_top" xlink:title=" ">
<polygon fill="white" stroke="#666666" points="67.75,-379.48 0,-379.48 0,-358.73 67.75,-358.73 67.75,-379.48"/>
<text text-anchor="middle" x="33.88" y="-365.98" font-family="Helvetica,sans-Serif" font-size="10.00">w2c__f454</text>
</a>
</g>
</g>
<!-- Node1&#45;&gt;Node4 -->
<g id="edge15_Node000001_Node000004" class="edge">
<title>Node1&#45;&gt;Node4</title>
<g id="a_edge15_Node000001_Node000004"><a xlink:title=" ">
<path fill="none" stroke="#63b8ff" d="M442.98,-219.96C434.85,-251.56 415.69,-310.03 379,-345.1 293.92,-426.41 136.7,-397.04 68.22,-378.99"/>
<polygon fill="#63b8ff" stroke="#63b8ff" points="446.34,-220.93 445.29,-210.39 439.54,-219.29 446.34,-220.93"/>
</a>
</g>
</g>
<!-- Node5 -->
<g id="Node000005" class="node">
<title>Node5</title>
<g id="a_Node000005"><a xlink:href="app_8c.html#a40e1e2f15a47b569fe1234de2e329a46" target="_top" xlink:title=" ">
<polygon fill="white" stroke="#666666" points="379,-35.48 311.25,-35.48 311.25,-14.73 379,-14.73 379,-35.48"/>
<text text-anchor="middle" x="345.12" y="-21.98" font-family="Helvetica,sans-Serif" font-size="10.00">w2c__f297</text>
</a>
</g>
</g>
<!-- Node1&#45;&gt;Node5 -->
<g id="edge4_Node000001_Node000005" class="edge">
<title>Node1&#45;&gt;Node5</title>
<g id="a_edge4_Node000001_Node000005"><a xlink:title=" ">
<path fill="none" stroke="#63b8ff" d="M442.58,-176.52C433.86,-144.67 413.89,-84.59 379,-45.1 375.9,-41.6 372.04,-38.52 368.07,-35.89"/>
<polygon fill="#63b8ff" stroke="#63b8ff" points="439.08,-176.99 444.99,-185.78 445.85,-175.22 439.08,-176.99"/>
</a>
</g>
</g>
<!-- Node7 -->
<g id="Node000007" class="node">
<title>Node7</title>
<g id="a_Node000007"><a xlink:href="app_8c.html#a9a6678ec111966f9ad398c4ddc0f4ce7" target="_top" xlink:title=" ">
<polygon fill="white" stroke="#666666" points="171.5,-94.48 103.75,-94.48 103.75,-73.73 171.5,-73.73 171.5,-94.48"/>
<text text-anchor="middle" x="137.62" y="-80.98" font-family="Helvetica,sans-Serif" font-size="10.00">w2c__f472</text>
</a>
</g>
</g>
<!-- Node1&#45;&gt;Node7 -->
<g id="edge16_Node000001_Node000007" class="edge">
<title>Node1&#45;&gt;Node7</title>
<g id="a_edge16_Node000001_Node000007"><a xlink:title=" ">
<path fill="none" stroke="#63b8ff" d="M416.91,-182.24C405.18,-176.51 391.61,-170.2 379,-165.1 304.52,-135.02 283.54,-133.99 207.5,-108.1 195.03,-103.86 181.33,-99.1 169.45,-94.95"/>
<polygon fill="#63b8ff" stroke="#63b8ff" points="415.21,-185.31 425.73,-186.62 418.33,-179.04 415.21,-185.31"/>
</a>
</g>
</g>
<!-- Node8 -->
<g id="Node000008" class="node">
<title>Node8</title>
<g id="a_Node000008"><a xlink:href="app_8c.html#a980a551daeb256397f01e6faa91d49db" target="_top" xlink:title=" ">
<polygon fill="white" stroke="#666666" points="67.75,-142.48 0,-142.48 0,-121.73 67.75,-121.73 67.75,-142.48"/>
<text text-anchor="middle" x="33.88" y="-128.98" font-family="Helvetica,sans-Serif" font-size="10.00">w2c__f403</text>
</a>
</g>
</g>
<!-- Node1&#45;&gt;Node8 -->
<g id="edge11_Node000001_Node000008" class="edge">
<title>Node1&#45;&gt;Node8</title>
<g id="a_edge11_Node000001_Node000008"><a xlink:title=" ">
<path fill="none" stroke="#63b8ff" d="M403.43,-191C320.08,-177.68 142.06,-149.23 68.13,-137.42"/>
<polygon fill="#63b8ff" stroke="#63b8ff" points="402.85,-194.45 413.28,-192.58 403.96,-187.54 402.85,-194.45"/>
</a>
</g>
</g>
<!-- Node9 -->
<g id="Node000009" class="node">
<title>Node9</title>
<g id="a_Node000009"><a xlink:href="app_8c.html#a90092f313c3529894f5b07df3b2baa3a" target="_top" xlink:title=" ">
<polygon fill="white" stroke="#666666" points="275.25,-227.48 207.5,-227.48 207.5,-206.73 275.25,-206.73 275.25,-227.48"/>
<text text-anchor="middle" x="241.38" y="-213.98" font-family="Helvetica,sans-Serif" font-size="10.00">w2c__f364</text>
</a>
</g>
</g>
<!-- Node1&#45;&gt;Node9 -->
<g id="edge9_Node000001_Node000009" class="edge">
<title>Node1&#45;&gt;Node9</title>
<g id="a_edge9_Node000001_Node000009"><a xlink:title=" ">
<path fill="none" stroke="#63b8ff" d="M403.5,-202.21C365.09,-205.76 310.4,-210.81 275.65,-214.03"/>
<polygon fill="#63b8ff" stroke="#63b8ff" points="403.72,-205.7 413.35,-201.3 403.07,-198.73 403.72,-205.7"/>
</a>
</g>
</g>
<!-- Node10 -->
<g id="Node000010" class="node">
<title>Node10</title>
<g id="a_Node000010"><a xlink:href="app_8c.html#a2ed61b7ee4e5a17be88e493a38bae83d" target="_top" xlink:title=" ">
<polygon fill="white" stroke="#666666" points="379,-113.48 311.25,-113.48 311.25,-92.73 379,-92.73 379,-113.48"/>
<text text-anchor="middle" x="345.12" y="-99.98" font-family="Helvetica,sans-Serif" font-size="10.00">w2c__f405</text>
</a>
</g>
</g>
<!-- Node1&#45;&gt;Node10 -->
<g id="edge13_Node000001_Node000010" class="edge">
<title>Node1&#45;&gt;Node10</title>
<g id="a_edge13_Node000001_Node000010"><a xlink:title=" ">
<path fill="none" stroke="#63b8ff" d="M431.07,-179.08C417.6,-164.26 397.89,-143.53 379,-127.1 373.67,-122.47 367.48,-117.79 361.93,-113.81"/>
<polygon fill="#63b8ff" stroke="#63b8ff" points="428.29,-181.22 437.57,-186.32 433.49,-176.54 428.29,-181.22"/>
</a>
</g>
</g>
<!-- Node11 -->
<g id="Node000011" class="node">
<title>Node11</title>
<g id="a_Node000011"><a xlink:href="app_8c.html#ab921fb28dcc7600a438d095932e682a1" target="_top" xlink:title=" ">
<polygon fill="white" stroke="#666666" points="379,-74.48 311.25,-74.48 311.25,-53.73 379,-53.73 379,-74.48"/>
<text text-anchor="middle" x="345.12" y="-60.98" font-family="Helvetica,sans-Serif" font-size="10.00">w2c__f483</text>
</a>
</g>
</g>
<!-- Node1&#45;&gt;Node11 -->
<g id="edge17_Node000001_Node000011" class="edge">
<title>Node1&#45;&gt;Node11</title>
<g id="a_edge17_Node000001_Node000011"><a xlink:title=" ">
<path fill="none" stroke="#63b8ff" d="M439.02,-177.23C427.82,-152.69 406.62,-111.81 379,-84.1 375.6,-80.7 371.52,-77.63 367.4,-74.97"/>
<polygon fill="#63b8ff" stroke="#63b8ff" points="435.72,-178.42 442.96,-186.16 442.12,-175.6 435.72,-178.42"/>
</a>
</g>
</g>
<!-- Node12 -->
<g id="Node000012" class="node">
<title>Node12</title>
<g id="a_Node000012"><a xlink:href="app_8c.html#ac69b13e2c3468609717df2627a30b836" target="_top" xlink:title=" ">
<polygon fill="white" stroke="#666666" points="379,-303.48 311.25,-303.48 311.25,-282.73 379,-282.73 379,-303.48"/>
<text text-anchor="middle" x="345.12" y="-289.98" font-family="Helvetica,sans-Serif" font-size="10.00">w2c__f497</text>
</a>
</g>
</g>
<!-- Node1&#45;&gt;Node12 -->
<g id="edge19_Node000001_Node000012" class="edge">
<title>Node1&#45;&gt;Node12</title>
<g id="a_edge19_Node000001_Node000012"><a xlink:title=" ">
<path fill="none" stroke="#63b8ff" d="M431.07,-217.13C417.6,-231.95 397.89,-252.68 379,-269.1 373.67,-273.74 367.48,-278.42 361.93,-282.39"/>
<polygon fill="#63b8ff" stroke="#63b8ff" points="433.49,-219.67 437.57,-209.89 428.29,-214.99 433.49,-219.67"/>
</a>
</g>
</g>
<!-- Node2&#45;&gt;Node3 -->
<g id="edge2_Node000002_Node000003" class="edge">
<title>Node2&#45;&gt;Node3</title>
<g id="a_edge2_Node000002_Node000003"><a xlink:title=" ">
<path fill="none" stroke="#63b8ff" d="M211.22,-352.77C194.15,-343.21 173.06,-331.4 158.02,-322.97"/>
<polygon fill="#63b8ff" stroke="#63b8ff" points="209.48,-355.81 219.92,-357.64 212.9,-349.7 209.48,-355.81"/>
</a>
</g>
</g>
<!-- Node3&#45;&gt;Node4 -->
<g id="edge3_Node000003_Node000004" class="edge">
<title>Node3&#45;&gt;Node4</title>
<g id="a_edge3_Node000003_Node000004"><a xlink:title=" ">
<path fill="none" stroke="#63b8ff" d="M107.47,-328.44C90.4,-338 69.31,-349.81 54.27,-358.24"/>
<polygon fill="#63b8ff" stroke="#63b8ff" points="109.15,-331.51 116.17,-323.56 105.73,-325.4 109.15,-331.51"/>
</a>
</g>
</g>
<!-- Node6 -->
<g id="Node000006" class="node">
<title>Node6</title>
<g id="a_Node000006"><a xlink:href="app_8c.html#a083dd2487e591fd27285cd1c1789b457" target="_top" xlink:title=" ">
<polygon fill="white" stroke="#666666" points="275.25,-37.48 207.5,-37.48 207.5,-16.73 275.25,-16.73 275.25,-37.48"/>
<text text-anchor="middle" x="241.38" y="-23.98" font-family="Helvetica,sans-Serif" font-size="10.00">w2c__f412</text>
</a>
</g>
</g>
<!-- Node5&#45;&gt;Node6 -->
<g id="edge5_Node000005_Node000006" class="edge">
<title>Node5&#45;&gt;Node6</title>
<g id="a_edge5_Node000005_Node000006"><a xlink:title=" ">
<path fill="none" stroke="#63b8ff" d="M299.57,-25.98C291.46,-26.14 283.13,-26.3 275.42,-26.45"/>
<polygon fill="#63b8ff" stroke="#63b8ff" points="299.37,-29.48 309.29,-25.79 299.23,-22.49 299.37,-29.48"/>
</a>
</g>
</g>
<!-- Node5&#45;&gt;Node7 -->
<g id="edge8_Node000005_Node000007" class="edge">
<title>Node5&#45;&gt;Node7</title>
<g id="a_edge8_Node000005_Node000007"><a xlink:title=" ">
<path fill="none" stroke="#63b8ff" d="M308.12,-10.65C279.65,-1.54 239.52,6.09 207.5,-8.1 177.06,-21.6 154.34,-55.93 144.3,-73.46"/>
<polygon fill="#63b8ff" stroke="#63b8ff" points="306.76,-13.89 317.36,-13.82 309.03,-7.27 306.76,-13.89"/>
</a>
</g>
</g>
<!-- Node6&#45;&gt;Node7 -->
<g id="edge6_Node000006_Node000007" class="edge">
<title>Node6&#45;&gt;Node7</title>
<g id="a_edge6_Node000006_Node000007"><a xlink:title=" ">
<path fill="none" stroke="#63b8ff" d="M211.22,-43.44C194.15,-53 173.06,-64.81 158.02,-73.24"/>
<polygon fill="#63b8ff" stroke="#63b8ff" points="212.9,-46.51 219.92,-38.56 209.48,-40.4 212.9,-46.51"/>
</a>
</g>
</g>
<!-- Node7&#45;&gt;Node8 -->
<g id="edge7_Node000007_Node000008" class="edge">
<title>Node7&#45;&gt;Node8</title>
<g id="a_edge7_Node000007_Node000008"><a xlink:title=" ">
<path fill="none" stroke="#63b8ff" d="M103.38,-99.79C88.41,-106.85 71.1,-115.01 57.63,-121.37"/>
<polygon fill="#63b8ff" stroke="#63b8ff" points="104.87,-102.95 112.42,-95.52 101.88,-96.62 104.87,-102.95"/>
</a>
</g>
</g>
<!-- Node9&#45;&gt;Node3 -->
<g id="edge10_Node000009_Node000003" class="edge">
<title>Node9&#45;&gt;Node3</title>
<g id="a_edge10_Node000009_Node000003"><a xlink:title=" ">
<path fill="none" stroke="#63b8ff" d="M215.41,-234.63C212.69,-236.75 210,-238.93 207.5,-241.1 184.69,-260.93 160.69,-287.06 147.92,-301.45"/>
<polygon fill="#63b8ff" stroke="#63b8ff" points="217.42,-237.5 223.36,-228.72 213.25,-231.88 217.42,-237.5"/>
</a>
</g>
</g>
<!-- Node10&#45;&gt;Node7 -->
<g id="edge14_Node000010_Node000007" class="edge">
<title>Node10&#45;&gt;Node7</title>
<g id="a_edge14_Node000010_Node000007"><a xlink:title=" ">
<path fill="none" stroke="#63b8ff" d="M299.75,-99C261.34,-95.45 206.65,-90.39 171.9,-87.18"/>
<polygon fill="#63b8ff" stroke="#63b8ff" points="299.32,-102.48 309.6,-99.91 299.97,-95.51 299.32,-102.48"/>
</a>
</g>
</g>
<!-- Node11&#45;&gt;Node7 -->
<g id="edge18_Node000011_Node000007" class="edge">
<title>Node11&#45;&gt;Node7</title>
<g id="a_edge18_Node000011_Node000007"><a xlink:title=" ">
<path fill="none" stroke="#63b8ff" d="M299.75,-68.42C261.34,-72.16 206.65,-77.48 171.9,-80.87"/>
<polygon fill="#63b8ff" stroke="#63b8ff" points="299.99,-71.92 309.6,-67.46 299.31,-64.95 299.99,-71.92"/>
</a>
</g>
</g>
<!-- Node12&#45;&gt;Node3 -->
<g id="edge20_Node000012_Node000003" class="edge">
<title>Node12&#45;&gt;Node3</title>
<g id="a_edge20_Node000012_Node000003"><a xlink:title=" ">
<path fill="none" stroke="#63b8ff" d="M301.08,-306.88C292.6,-309.05 283.71,-310.96 275.25,-312.1 240.23,-316.85 199.69,-316.07 171.92,-314.59"/>
<polygon fill="#63b8ff" stroke="#63b8ff" points="301.73,-310.33 310.46,-304.32 299.89,-303.58 301.73,-310.33"/>
</a>
</g>
</g>
<!-- Node13 -->
<g id="Node000013" class="node">
<title>Node13</title>
<g id="a_Node000013"><a xlink:href="app_8c.html#a3528ca1eb262ff9291f92bf37d2fc18a" target="_top" xlink:title=" ">
<polygon fill="white" stroke="#666666" points="275.25,-303.48 207.5,-303.48 207.5,-282.73 275.25,-282.73 275.25,-303.48"/>
<text text-anchor="middle" x="241.38" y="-289.98" font-family="Helvetica,sans-Serif" font-size="10.00">w2c__f492</text>
</a>
</g>
</g>
<!-- Node12&#45;&gt;Node13 -->
<g id="edge21_Node000012_Node000013" class="edge">
<title>Node12&#45;&gt;Node13</title>
<g id="a_edge21_Node000012_Node000013"><a xlink:title=" ">
<path fill="none" stroke="#63b8ff" d="M299.57,-293.1C291.46,-293.1 283.13,-293.1 275.42,-293.1"/>
<polygon fill="#63b8ff" stroke="#63b8ff" points="299.29,-296.6 309.29,-293.1 299.29,-289.6 299.29,-296.6"/>
</a>
</g>
</g>
<!-- Node13&#45;&gt;Node3 -->
<g id="edge22_Node000013_Node000003" class="edge">
<title>Node13&#45;&gt;Node3</title>
<g id="a_edge22_Node000013_Node000003"><a xlink:title=" ">
<path fill="none" stroke="#63b8ff" d="M195.82,-301.42C187.71,-302.94 179.38,-304.49 171.67,-305.93"/>
<polygon fill="#63b8ff" stroke="#63b8ff" points="196.38,-304.88 205.57,-299.6 195.1,-298 196.38,-304.88"/>
</a>
</g>
</g>
</g>
</svg>
