<?xml version="1.0" encoding="UTF-8" standalone="no"?>
<!DOCTYPE svg PUBLIC "-//W3C//DTD SVG 1.1//EN"
 "http://www.w3.org/Graphics/SVG/1.1/DTD/svg11.dtd">
<!-- Generated by graphviz version 12.2.1 (0)
 -->
<!-- Title: w2c__f281 Pages: 1 -->
<svg width="282pt" height="302pt"
 viewBox="0.00 0.00 281.75 301.75" xmlns="http://www.w3.org/2000/svg" xmlns:xlink="http://www.w3.org/1999/xlink">
<g id="graph0" class="graph" transform="scale(1 1) rotate(0) translate(4 297.75)">
<title>w2c__f281</title>
<!-- Node1 -->
<g id="Node000001" class="node">
<title>Node1</title>
<g id="a_Node000001"><a xlink:title=" ">
<polygon fill="#999999" stroke="#666666" points="67.75,-156.75 0,-156.75 0,-136 67.75,-136 67.75,-156.75"/>
<text text-anchor="middle" x="33.88" y="-143.25" font-family="Helvetica,sans-Serif" font-size="10.00">w2c__f281</text>
</a>
</g>
</g>
<!-- Node2 -->
<g id="Node000002" class="node">
<title>Node2</title>
<g id="a_Node000002"><a xlink:href="app_8c.html#a13064ee1412a7f59da20bca1a8dd3ef4" target="_top" xlink:title=" ">
<polygon fill="white" stroke="#666666" points="170.75,-293.75 106.75,-293.75 106.75,-273 170.75,-273 170.75,-293.75"/>
<text text-anchor="middle" x="138.75" y="-280.25" font-family="Helvetica,sans-Serif" font-size="10.00">w2c_0_11</text>
</a>
</g>
</g>
<!-- Node1&#45;&gt;Node2 -->
<g id="edge1_Node000001_Node000002" class="edge">
<title>Node1&#45;&gt;Node2</title>
<g id="a_edge1_Node000001_Node000002"><a xlink:title=" ">
<path fill="none" stroke="#63b8ff" d="M38.93,-156.92C47.83,-178.96 70.91,-230.55 103.75,-263.38 104.62,-264.25 105.54,-265.09 106.49,-265.92"/>
<polygon fill="#63b8ff" stroke="#63b8ff" points="104.34,-268.68 114.49,-271.74 108.47,-263.03 104.34,-268.68"/>
</a>
</g>
</g>
<!-- Node3 -->
<g id="Node000003" class="node">
<title>Node3</title>
<g id="a_Node000003"><a xlink:href="app_8c.html#a4c2b03b6dc55de401881aa3b953082c7" target="_top" xlink:title=" ">
<polygon fill="white" stroke="#666666" points="173.75,-254.75 103.75,-254.75 103.75,-234 173.75,-234 173.75,-254.75"/>
<text text-anchor="middle" x="138.75" y="-241.25" font-family="Helvetica,sans-Serif" font-size="10.00">w2c_0_124</text>
</a>
</g>
</g>
<!-- Node1&#45;&gt;Node3 -->
<g id="edge2_Node000001_Node000003" class="edge">
<title>Node1&#45;&gt;Node3</title>
<g id="a_edge2_Node000001_Node000003"><a xlink:title=" ">
<path fill="none" stroke="#63b8ff" d="M42.65,-157.18C54.54,-173.19 78.52,-203.57 103.75,-224.38 105,-225.41 106.32,-226.42 107.67,-227.41"/>
<polygon fill="#63b8ff" stroke="#63b8ff" points="105.38,-230.1 115.65,-232.69 109.24,-224.26 105.38,-230.1"/>
</a>
</g>
</g>
<!-- Node4 -->
<g id="Node000004" class="node">
<title>Node4</title>
<g id="a_Node000004"><a xlink:href="app_8c.html#aaf609261891864e97643e3aba116599c" target="_top" xlink:title=" ">
<polygon fill="white" stroke="#666666" points="173.75,-215.75 103.75,-215.75 103.75,-195 173.75,-195 173.75,-215.75"/>
<text text-anchor="middle" x="138.75" y="-202.25" font-family="Helvetica,sans-Serif" font-size="10.00">w2c_0_147</text>
</a>
</g>
</g>
<!-- Node1&#45;&gt;Node4 -->
<g id="edge3_Node000001_Node000004" class="edge">
<title>Node1&#45;&gt;Node4</title>
<g id="a_edge3_Node000001_Node000004"><a xlink:title=" ">
<path fill="none" stroke="#63b8ff" d="M53.74,-157.2C69.26,-166.1 91.49,-178.85 109.19,-189"/>
<polygon fill="#63b8ff" stroke="#63b8ff" points="107.27,-191.93 117.69,-193.87 110.75,-185.86 107.27,-191.93"/>
</a>
</g>
</g>
<!-- Node5 -->
<g id="Node000005" class="node">
<title>Node5</title>
<g id="a_Node000005"><a xlink:href="app_8c.html#a0e3bf3a9dcdc8bd3fa73d1554ff70b35" target="_top" xlink:title=" ">
<polygon fill="white" stroke="#666666" points="173.75,-176.75 103.75,-176.75 103.75,-156 173.75,-156 173.75,-176.75"/>
<text text-anchor="middle" x="138.75" y="-163.25" font-family="Helvetica,sans-Serif" font-size="10.00">w2c_0_165</text>
</a>
</g>
</g>
<!-- Node1&#45;&gt;Node5 -->
<g id="edge4_Node000001_Node000005" class="edge">
<title>Node1&#45;&gt;Node5</title>
<g id="a_edge4_Node000001_Node000005"><a xlink:title=" ">
<path fill="none" stroke="#63b8ff" d="M67.99,-152.81C75.66,-154.3 83.95,-155.92 92.04,-157.49"/>
<polygon fill="#63b8ff" stroke="#63b8ff" points="91.31,-160.91 101.79,-159.38 92.65,-154.04 91.31,-160.91"/>
</a>
</g>
</g>
<!-- Node6 -->
<g id="Node000006" class="node">
<title>Node6</title>
<g id="a_Node000006"><a xlink:href="app_8c.html#acf1029cf408c02e92b9c8bd7417b3b85" target="_top" xlink:title=" ">
<polygon fill="white" stroke="#666666" points="173.75,-137.75 103.75,-137.75 103.75,-117 173.75,-117 173.75,-137.75"/>
<text text-anchor="middle" x="138.75" y="-124.25" font-family="Helvetica,sans-Serif" font-size="10.00">w2c_0_175</text>
</a>
</g>
</g>
<!-- Node1&#45;&gt;Node6 -->
<g id="edge5_Node000001_Node000006" class="edge">
<title>Node1&#45;&gt;Node6</title>
<g id="a_edge5_Node000001_Node000006"><a xlink:title=" ">
<path fill="none" stroke="#63b8ff" d="M67.99,-140.26C75.66,-138.84 83.95,-137.31 92.04,-135.82"/>
<polygon fill="#63b8ff" stroke="#63b8ff" points="92.59,-139.27 101.79,-134.02 91.32,-132.39 92.59,-139.27"/>
</a>
</g>
</g>
<!-- Node7 -->
<g id="Node000007" class="node">
<title>Node7</title>
<g id="a_Node000007"><a xlink:href="app_8c.html#a8bdad8d1b51ecba1b1abe0649c6d91f6" target="_top" xlink:title=" ">
<polygon fill="white" stroke="#666666" points="167.75,-98.75 109.75,-98.75 109.75,-78 167.75,-78 167.75,-98.75"/>
<text text-anchor="middle" x="138.75" y="-85.25" font-family="Helvetica,sans-Serif" font-size="10.00">w2c_0_6</text>
</a>
</g>
</g>
<!-- Node1&#45;&gt;Node7 -->
<g id="edge6_Node000001_Node000007" class="edge">
<title>Node1&#45;&gt;Node7</title>
<g id="a_edge6_Node000001_Node000007"><a xlink:title=" ">
<path fill="none" stroke="#63b8ff" d="M53.74,-135.74C69.16,-127.04 91.22,-114.61 108.86,-104.66"/>
<polygon fill="#63b8ff" stroke="#63b8ff" points="110.34,-107.85 117.33,-99.89 106.9,-101.75 110.34,-107.85"/>
</a>
</g>
</g>
<!-- Node8 -->
<g id="Node000008" class="node">
<title>Node8</title>
<g id="a_Node000008"><a xlink:href="app_8c.html#a25c288cbdae978304d4e0650fedfd720" target="_top" xlink:title=" ">
<polygon fill="white" stroke="#666666" points="170.75,-59.75 106.75,-59.75 106.75,-39 170.75,-39 170.75,-59.75"/>
<text text-anchor="middle" x="138.75" y="-46.25" font-family="Helvetica,sans-Serif" font-size="10.00">w2c_0_73</text>
</a>
</g>
</g>
<!-- Node1&#45;&gt;Node8 -->
<g id="edge7_Node000001_Node000008" class="edge">
<title>Node1&#45;&gt;Node8</title>
<g id="a_edge7_Node000001_Node000008"><a xlink:title=" ">
<path fill="none" stroke="#63b8ff" d="M42.68,-135.72C54.61,-119.92 78.64,-89.95 103.75,-69.38 105.01,-68.34 106.33,-67.33 107.68,-66.35"/>
<polygon fill="#63b8ff" stroke="#63b8ff" points="109.25,-69.5 115.67,-61.07 105.39,-63.66 109.25,-69.5"/>
</a>
</g>
</g>
<!-- Node9 -->
<g id="Node000009" class="node">
<title>Node9</title>
<g id="a_Node000009"><a xlink:href="app_8c.html#aece0acc00c71c5c77a389889a51c4893" target="_top" xlink:title=" ">
<polygon fill="white" stroke="#666666" points="172.62,-20.75 104.88,-20.75 104.88,0 172.62,0 172.62,-20.75"/>
<text text-anchor="middle" x="138.75" y="-7.25" font-family="Helvetica,sans-Serif" font-size="10.00">w2c__f498</text>
</a>
</g>
</g>
<!-- Node1&#45;&gt;Node9 -->
<g id="edge8_Node000001_Node000009" class="edge">
<title>Node1&#45;&gt;Node9</title>
<g id="a_edge8_Node000001_Node000009"><a xlink:title=" ">
<path fill="none" stroke="#63b8ff" d="M39.09,-135.58C48.13,-113.56 71.22,-62.77 103.75,-30.38 104.62,-29.51 105.54,-28.66 106.5,-27.84"/>
<polygon fill="#63b8ff" stroke="#63b8ff" points="108.47,-30.73 114.5,-22.02 104.35,-25.07 108.47,-30.73"/>
</a>
</g>
</g>
<!-- Node10 -->
<g id="Node000010" class="node">
<title>Node10</title>
<g id="a_Node000010"><a xlink:href="app_8c.html#accaa45efc0d12dcfdf98792250803ded" target="_top" xlink:title=" ">
<polygon fill="white" stroke="#666666" points="273.75,-20.75 209.75,-20.75 209.75,0 273.75,0 273.75,-20.75"/>
<text text-anchor="middle" x="241.75" y="-7.25" font-family="Helvetica,sans-Serif" font-size="10.00">w2c_0_15</text>
</a>
</g>
</g>
<!-- Node9&#45;&gt;Node10 -->
<g id="edge9_Node000009_Node000010" class="edge">
<title>Node9&#45;&gt;Node10</title>
<g id="a_edge9_Node000009_Node000010"><a xlink:title=" ">
<path fill="none" stroke="#63b8ff" d="M173.1,-10.38C181.07,-10.38 189.68,-10.38 198.01,-10.38"/>
<polygon fill="#63b8ff" stroke="#63b8ff" points="197.97,-13.88 207.97,-10.38 197.97,-6.88 197.97,-13.88"/>
</a>
</g>
</g>
</g>
</svg>
