<?xml version="1.0" encoding="UTF-8" standalone="no"?>
<!DOCTYPE svg PUBLIC "-//W3C//DTD SVG 1.1//EN"
 "http://www.w3.org/Graphics/SVG/1.1/DTD/svg11.dtd">
<!-- Generated by graphviz version 12.2.1 (0)
 -->
<!-- Title: w2c__f320 Pages: 1 -->
<svg width="283pt" height="68pt"
 viewBox="0.00 0.00 283.25 67.75" xmlns="http://www.w3.org/2000/svg" xmlns:xlink="http://www.w3.org/1999/xlink">
<g id="graph0" class="graph" transform="scale(1 1) rotate(0) translate(4 63.75)">
<title>w2c__f320</title>
<!-- Node1 -->
<g id="Node000001" class="node">
<title>Node1</title>
<g id="a_Node000001"><a xlink:title=" ">
<polygon fill="#999999" stroke="#666666" points="67.75,-39.75 0,-39.75 0,-19 67.75,-19 67.75,-39.75"/>
<text text-anchor="middle" x="33.88" y="-26.25" font-family="Helvetica,sans-Serif" font-size="10.00">w2c__f320</text>
</a>
</g>
</g>
<!-- Node2 -->
<g id="Node000002" class="node">
<title>Node2</title>
<g id="a_Node000002"><a xlink:href="app_8c.html#ad63b6498cfe22ce747f349eeb23b508f" target="_top" xlink:title=" ">
<polygon fill="white" stroke="#666666" points="175.25,-59.75 103.75,-59.75 103.75,-39 175.25,-39 175.25,-59.75"/>
<text text-anchor="middle" x="139.5" y="-46.25" font-family="Helvetica,sans-Serif" font-size="10.00">wasm_fabs</text>
</a>
</g>
</g>
<!-- Node1&#45;&gt;Node2 -->
<g id="edge1_Node000001_Node000002" class="edge">
<title>Node1&#45;&gt;Node2</title>
<g id="a_edge1_Node000001_Node000002"><a xlink:title=" ">
<path fill="none" stroke="#63b8ff" d="M68.23,-35.81C75.87,-37.29 84.13,-38.88 92.21,-40.44"/>
<polygon fill="#63b8ff" stroke="#63b8ff" points="91.45,-43.86 101.93,-42.32 92.78,-36.99 91.45,-43.86"/>
</a>
</g>
</g>
<!-- Node3 -->
<g id="Node000003" class="node">
<title>Node3</title>
<g id="a_Node000003"><a xlink:href="app_8c.html#a22805979cc49b429d0fb4b7435774648" target="_top" xlink:title=" ">
<polygon fill="white" stroke="#666666" points="174.12,-20.75 104.88,-20.75 104.88,0 174.12,0 174.12,-20.75"/>
<text text-anchor="middle" x="139.5" y="-7.25" font-family="Helvetica,sans-Serif" font-size="10.00">wasm_sqrt</text>
</a>
</g>
</g>
<!-- Node1&#45;&gt;Node3 -->
<g id="edge2_Node000001_Node000003" class="edge">
<title>Node1&#45;&gt;Node3</title>
<g id="a_edge2_Node000001_Node000003"><a xlink:title=" ">
<path fill="none" stroke="#63b8ff" d="M68.23,-23.26C76.21,-21.8 84.85,-20.21 93.26,-18.67"/>
<polygon fill="#63b8ff" stroke="#63b8ff" points="93.8,-22.13 103,-16.88 92.54,-15.24 93.8,-22.13"/>
</a>
</g>
</g>
<!-- Node4 -->
<g id="Node000004" class="node">
<title>Node4</title>
<g id="a_Node000004"><a xlink:href="app_8c.html#ae10979e670e507d4373e8cadcb3169aa" target="_top" xlink:title=" ">
<polygon fill="white" stroke="#666666" points="275.25,-20.75 211.25,-20.75 211.25,0 275.25,0 275.25,-20.75"/>
<text text-anchor="middle" x="243.25" y="-7.25" font-family="Helvetica,sans-Serif" font-size="10.00">quiet_nan</text>
</a>
</g>
</g>
<!-- Node3&#45;&gt;Node4 -->
<g id="edge3_Node000003_Node000004" class="edge">
<title>Node3&#45;&gt;Node4</title>
<g id="a_edge3_Node000003_Node000004"><a xlink:title=" ">
<path fill="none" stroke="#63b8ff" d="M174.38,-10.38C182.49,-10.38 191.25,-10.38 199.69,-10.38"/>
<polygon fill="#63b8ff" stroke="#63b8ff" points="199.41,-13.88 209.41,-10.38 199.41,-6.88 199.41,-13.88"/>
</a>
</g>
</g>
</g>
</svg>
