<?xml version="1.0" encoding="UTF-8" standalone="no"?>
<!DOCTYPE svg PUBLIC "-//W3C//DTD SVG 1.1//EN"
 "http://www.w3.org/Graphics/SVG/1.1/DTD/svg11.dtd">
<!-- Generated by graphviz version 12.2.1 (0)
 -->
<!-- Title: w2c__f461 Pages: 1 -->
<svg width="283pt" height="68pt"
 viewBox="0.00 0.00 283.25 67.75" xmlns="http://www.w3.org/2000/svg" xmlns:xlink="http://www.w3.org/1999/xlink">
<g id="graph0" class="graph" transform="scale(1 1) rotate(0) translate(4 63.75)">
<title>w2c__f461</title>
<!-- Node1 -->
<g id="Node000001" class="node">
<title>Node1</title>
<g id="a_Node000001"><a xlink:title=" ">
<polygon fill="#999999" stroke="#666666" points="275.25,-39.75 207.5,-39.75 207.5,-19 275.25,-19 275.25,-39.75"/>
<text text-anchor="middle" x="241.38" y="-26.25" font-family="Helvetica,sans-Serif" font-size="10.00">w2c__f461</text>
</a>
</g>
</g>
<!-- Node2 -->
<g id="Node000002" class="node">
<title>Node2</title>
<g id="a_Node000002"><a xlink:href="app_8c.html#a002ff5eff638807e2d3328e83b06a230" target="_top" xlink:title=" ">
<polygon fill="white" stroke="#666666" points="171.5,-59.75 103.75,-59.75 103.75,-39 171.5,-39 171.5,-59.75"/>
<text text-anchor="middle" x="137.62" y="-46.25" font-family="Helvetica,sans-Serif" font-size="10.00">w2c__f502</text>
</a>
</g>
</g>
<!-- Node1&#45;&gt;Node2 -->
<g id="edge1_Node000001_Node000002" class="edge">
<title>Node1&#45;&gt;Node2</title>
<g id="a_edge1_Node000001_Node000002"><a xlink:title=" ">
<path fill="none" stroke="#63b8ff" d="M195.82,-38.13C187.71,-39.73 179.38,-41.37 171.67,-42.88"/>
<polygon fill="#63b8ff" stroke="#63b8ff" points="196.44,-41.58 205.57,-36.22 195.09,-34.71 196.44,-41.58"/>
</a>
</g>
</g>
<!-- Node3 -->
<g id="Node000003" class="node">
<title>Node3</title>
<g id="a_Node000003"><a xlink:href="app_8c.html#a67e3fcc9c0cb639ce834c8cda8f47ec6" target="_top" xlink:title=" ">
<polygon fill="white" stroke="#666666" points="171.5,-20.75 103.75,-20.75 103.75,0 171.5,0 171.5,-20.75"/>
<text text-anchor="middle" x="137.62" y="-7.25" font-family="Helvetica,sans-Serif" font-size="10.00">w2c__f528</text>
</a>
</g>
</g>
<!-- Node1&#45;&gt;Node3 -->
<g id="edge2_Node000001_Node000003" class="edge">
<title>Node1&#45;&gt;Node3</title>
<g id="a_edge2_Node000001_Node000003"><a xlink:title=" ">
<path fill="none" stroke="#63b8ff" d="M195.82,-21.06C187.71,-19.54 179.38,-17.98 171.67,-16.55"/>
<polygon fill="#63b8ff" stroke="#63b8ff" points="195.1,-24.48 205.57,-22.88 196.38,-17.6 195.1,-24.48"/>
</a>
</g>
</g>
<!-- Node4 -->
<g id="Node000004" class="node">
<title>Node4</title>
<g id="a_Node000004"><a xlink:href="app_8c.html#ac5fdc26246fea811c3c879073c8714e3" target="_top" xlink:title=" ">
<polygon fill="white" stroke="#666666" points="67.75,-20.75 0,-20.75 0,0 67.75,0 67.75,-20.75"/>
<text text-anchor="middle" x="33.88" y="-7.25" font-family="Helvetica,sans-Serif" font-size="10.00">w2c__f544</text>
</a>
</g>
</g>
<!-- Node3&#45;&gt;Node4 -->
<g id="edge3_Node000003_Node000004" class="edge">
<title>Node3&#45;&gt;Node4</title>
<g id="a_edge3_Node000003_Node000004"><a xlink:title=" ">
<path fill="none" stroke="#63b8ff" d="M92.07,-10.38C83.96,-10.38 75.63,-10.38 67.92,-10.38"/>
<polygon fill="#63b8ff" stroke="#63b8ff" points="91.79,-13.88 101.79,-10.38 91.79,-6.88 91.79,-13.88"/>
</a>
</g>
</g>
</g>
</svg>
