<?xml version="1.0" encoding="UTF-8" standalone="no"?>
<!DOCTYPE svg PUBLIC "-//W3C//DTD SVG 1.1//EN"
 "http://www.w3.org/Graphics/SVG/1.1/DTD/svg11.dtd">
<!-- Generated by graphviz version 12.2.1 (0)
 -->
<!-- Title: w2c__f517 Pages: 1 -->
<svg width="932pt" height="642pt"
 viewBox="0.00 0.00 931.75 641.75" xmlns="http://www.w3.org/2000/svg" xmlns:xlink="http://www.w3.org/1999/xlink">
<g id="graph0" class="graph" transform="scale(1 1) rotate(0) translate(4 637.75)">
<title>w2c__f517</title>
<!-- Node1 -->
<g id="Node000001" class="node">
<title>Node1</title>
<g id="a_Node000001"><a xlink:title=" ">
<polygon fill="#999999" stroke="#666666" points="923.75,-211.75 856,-211.75 856,-191 923.75,-191 923.75,-211.75"/>
<text text-anchor="middle" x="889.88" y="-198.25" font-family="Helvetica,sans-Serif" font-size="10.00">w2c__f517</text>
</a>
</g>
</g>
<!-- Node2 -->
<g id="Node000002" class="node">
<title>Node2</title>
<g id="a_Node000002"><a xlink:href="app_8c.html#af343129bd663e00399561d73f0098887" target="_top" xlink:title=" ">
<polygon fill="white" stroke="#666666" points="701.62,-403.75 633.88,-403.75 633.88,-383 701.62,-383 701.62,-403.75"/>
<text text-anchor="middle" x="667.75" y="-390.25" font-family="Helvetica,sans-Serif" font-size="10.00">w2c__f372</text>
</a>
</g>
</g>
<!-- Node1&#45;&gt;Node2 -->
<g id="edge1_Node000001_Node000002" class="edge">
<title>Node1&#45;&gt;Node2</title>
<g id="a_edge1_Node000001_Node000002"><a xlink:title=" ">
<path fill="none" stroke="#63b8ff" d="M873.73,-220.78C845.84,-255.44 783.04,-328.55 716.25,-373.38 711.05,-376.87 705.14,-379.94 699.3,-382.57"/>
<polygon fill="#63b8ff" stroke="#63b8ff" points="876.23,-223.27 879.71,-213.26 870.75,-218.91 876.23,-223.27"/>
</a>
</g>
</g>
<!-- Node12 -->
<g id="Node000012" class="node">
<title>Node12</title>
<g id="a_Node000012"><a xlink:href="app_8c.html#a6400a1d612ef3a2faf5397156806ce7f" target="_top" xlink:title=" ">
<polygon fill="white" stroke="#666666" points="820,-192.75 752.25,-192.75 752.25,-172 820,-172 820,-192.75"/>
<text text-anchor="middle" x="786.12" y="-179.25" font-family="Helvetica,sans-Serif" font-size="10.00">w2c__f450</text>
</a>
</g>
</g>
<!-- Node1&#45;&gt;Node12 -->
<g id="edge13_Node000001_Node000012" class="edge">
<title>Node1&#45;&gt;Node12</title>
<g id="a_edge13_Node000001_Node000012"><a xlink:title=" ">
<path fill="none" stroke="#63b8ff" d="M844.32,-193.06C836.21,-191.54 827.88,-189.98 820.17,-188.55"/>
<polygon fill="#63b8ff" stroke="#63b8ff" points="843.6,-196.48 854.07,-194.88 844.88,-189.6 843.6,-196.48"/>
</a>
</g>
</g>
<!-- Node3 -->
<g id="Node000003" class="node">
<title>Node3</title>
<g id="a_Node000003"><a xlink:href="app_8c.html#a16207b5f7a97b0ecfddd231452c5aa7e" target="_top" xlink:title=" ">
<polygon fill="white" stroke="#666666" points="568.62,-516.75 500.88,-516.75 500.88,-496 568.62,-496 568.62,-516.75"/>
<text text-anchor="middle" x="534.75" y="-503.25" font-family="Helvetica,sans-Serif" font-size="10.00">w2c__f263</text>
</a>
</g>
</g>
<!-- Node2&#45;&gt;Node3 -->
<g id="edge2_Node000002_Node000003" class="edge">
<title>Node2&#45;&gt;Node3</title>
<g id="a_edge2_Node000002_Node000003"><a xlink:title=" ">
<path fill="none" stroke="#63b8ff" d="M645.65,-411.58C618.01,-435.41 570.46,-476.43 548.08,-495.74"/>
<polygon fill="#63b8ff" stroke="#63b8ff" points="647.76,-414.38 653.04,-405.2 643.18,-409.08 647.76,-414.38"/>
</a>
</g>
</g>
<!-- Node6 -->
<g id="Node000006" class="node">
<title>Node6</title>
<g id="a_Node000006"><a xlink:href="app_8c.html#a5677ffd129da8cd63b876545b8187d77" target="_top" xlink:title=" ">
<polygon fill="white" stroke="#666666" points="302.62,-287.75 234.88,-287.75 234.88,-267 302.62,-267 302.62,-287.75"/>
<text text-anchor="middle" x="268.75" y="-274.25" font-family="Helvetica,sans-Serif" font-size="10.00">w2c__f367</text>
</a>
</g>
</g>
<!-- Node2&#45;&gt;Node6 -->
<g id="edge12_Node000002_Node000006" class="edge">
<title>Node2&#45;&gt;Node6</title>
<g id="a_edge12_Node000002_Node000006"><a xlink:title=" ">
<path fill="none" stroke="#63b8ff" d="M622.26,-383.34C561.05,-369.14 447.72,-341.43 353.25,-310.38 333.26,-303.8 311.13,-294.99 294.68,-288.12"/>
<polygon fill="#63b8ff" stroke="#63b8ff" points="621.42,-386.74 631.95,-385.57 622.99,-379.92 621.42,-386.74"/>
</a>
</g>
</g>
<!-- Node4 -->
<g id="Node000004" class="node">
<title>Node4</title>
<g id="a_Node000004"><a xlink:href="app_8c.html#aabc3b06c7f7daa21796552c728f0379b" target="_top" xlink:title=" ">
<polygon fill="white" stroke="#666666" points="435.62,-594.75 367.88,-594.75 367.88,-574 435.62,-574 435.62,-594.75"/>
<text text-anchor="middle" x="401.75" y="-581.25" font-family="Helvetica,sans-Serif" font-size="10.00">w2c__f270</text>
</a>
</g>
</g>
<!-- Node3&#45;&gt;Node4 -->
<g id="edge3_Node000003_Node000004" class="edge">
<title>Node3&#45;&gt;Node4</title>
<g id="a_edge3_Node000003_Node000004"><a xlink:title=" ">
<path fill="none" stroke="#63b8ff" d="M511.34,-523.86C494.99,-536.14 471.97,-552.43 450.25,-564.38 444.21,-567.7 437.51,-570.83 431.09,-573.58"/>
<polygon fill="#63b8ff" stroke="#63b8ff" points="513.1,-526.92 518.94,-518.08 508.86,-521.35 513.1,-526.92"/>
</a>
</g>
</g>
<!-- Node3&#45;&gt;Node6 -->
<g id="edge5_Node000003_Node000006" class="edge">
<title>Node3&#45;&gt;Node6</title>
<g id="a_edge5_Node000003_Node000006"><a xlink:title=" ">
<path fill="none" stroke="#63b8ff" d="M489.63,-496.68C443.13,-485.73 373.81,-467.13 353.25,-449.38 300.75,-404.03 278.32,-318.08 271.85,-288.05"/>
<polygon fill="#63b8ff" stroke="#63b8ff" points="488.62,-500.04 499.15,-498.88 490.2,-493.22 488.62,-500.04"/>
</a>
</g>
</g>
<!-- Node10 -->
<g id="Node000010" class="node">
<title>Node10</title>
<g id="a_Node000010"><a xlink:href="app_8c.html#a4e0e8b8ddb7852b111d530fef11aca0b" target="_top" xlink:title=" ">
<polygon fill="white" stroke="#666666" points="435.62,-516.75 367.88,-516.75 367.88,-496 435.62,-496 435.62,-516.75"/>
<text text-anchor="middle" x="401.75" y="-503.25" font-family="Helvetica,sans-Serif" font-size="10.00">w2c__f434</text>
</a>
</g>
</g>
<!-- Node3&#45;&gt;Node10 -->
<g id="edge9_Node000003_Node000010" class="edge">
<title>Node3&#45;&gt;Node10</title>
<g id="a_edge9_Node000003_Node000010"><a xlink:title=" ">
<path fill="none" stroke="#63b8ff" d="M489.28,-506.38C471.77,-506.38 452.01,-506.38 435.8,-506.38"/>
<polygon fill="#63b8ff" stroke="#63b8ff" points="489.18,-509.88 499.18,-506.38 489.18,-502.88 489.18,-509.88"/>
</a>
</g>
</g>
<!-- Node11 -->
<g id="Node000011" class="node">
<title>Node11</title>
<g id="a_Node000011"><a xlink:href="app_8c.html#a424e6fc7189fa7a8a66b06480239043b" target="_top" xlink:title=" ">
<polygon fill="white" stroke="#666666" points="450.25,-633.75 353.25,-633.75 353.25,-613 450.25,-613 450.25,-633.75"/>
<text text-anchor="middle" x="401.75" y="-620.25" font-family="Helvetica,sans-Serif" font-size="10.00">wrap_w2c__f263</text>
</a>
</g>
</g>
<!-- Node3&#45;&gt;Node11 -->
<g id="edge11_Node000003_Node000011" class="edge">
<title>Node3&#45;&gt;Node11</title>
<g id="a_edge11_Node000003_Node000011"><a xlink:title=" ">
<path fill="none" stroke="#63b8ff" d="M520.6,-526.59C505.74,-548.09 479.74,-581.91 450.25,-603.38 445.33,-606.96 439.67,-610.05 434.02,-612.65"/>
<polygon fill="#63b8ff" stroke="#63b8ff" points="523.44,-528.63 526.12,-518.38 517.64,-524.72 523.44,-528.63"/>
</a>
</g>
</g>
<!-- Node5 -->
<g id="Node000005" class="node">
<title>Node5</title>
<g id="a_Node000005"><a xlink:href="app_8c.html#a54f194530158831aa826ddabfd869e3f" target="_top" xlink:title=" ">
<polygon fill="white" stroke="#666666" points="317.25,-594.75 220.25,-594.75 220.25,-574 317.25,-574 317.25,-594.75"/>
<text text-anchor="middle" x="268.75" y="-581.25" font-family="Helvetica,sans-Serif" font-size="10.00">wrap_w2c__f270</text>
</a>
</g>
</g>
<!-- Node4&#45;&gt;Node5 -->
<g id="edge4_Node000004_Node000005" class="edge">
<title>Node4&#45;&gt;Node5</title>
<g id="a_edge4_Node000004_Node000005"><a xlink:title=" ">
<path fill="none" stroke="#63b8ff" d="M356.2,-584.38C343.78,-584.38 330.25,-584.38 317.65,-584.38"/>
<polygon fill="#63b8ff" stroke="#63b8ff" points="356.18,-587.88 366.18,-584.38 356.18,-580.88 356.18,-587.88"/>
</a>
</g>
</g>
<!-- Node7 -->
<g id="Node000007" class="node">
<title>Node7</title>
<g id="a_Node000007"><a xlink:href="app_8c.html#ac863989691d4c389f80374209c220171" target="_top" xlink:title=" ">
<polygon fill="white" stroke="#666666" points="167,-306.75 104.5,-306.75 104.5,-286 167,-286 167,-306.75"/>
<text text-anchor="middle" x="135.75" y="-293.25" font-family="Helvetica,sans-Serif" font-size="10.00">w2c__c_0</text>
</a>
</g>
</g>
<!-- Node6&#45;&gt;Node7 -->
<g id="edge6_Node000006_Node000007" class="edge">
<title>Node6&#45;&gt;Node7</title>
<g id="a_edge6_Node000006_Node000007"><a xlink:title=" ">
<path fill="none" stroke="#63b8ff" d="M223.53,-283.79C204.97,-286.48 183.86,-289.54 167.1,-291.97"/>
<polygon fill="#63b8ff" stroke="#63b8ff" points="223.8,-287.29 233.2,-282.39 222.8,-280.36 223.8,-287.29"/>
</a>
</g>
</g>
<!-- Node9 -->
<g id="Node000009" class="node">
<title>Node9</title>
<g id="a_Node000009"><a xlink:href="app_8c.html#a8f64ccad6c506a1ca514ba4f43e5211c" target="_top" xlink:title=" ">
<polygon fill="white" stroke="#666666" points="184.25,-267.75 87.25,-267.75 87.25,-247 184.25,-247 184.25,-267.75"/>
<text text-anchor="middle" x="135.75" y="-254.25" font-family="Helvetica,sans-Serif" font-size="10.00">wrap_w2c__f367</text>
</a>
</g>
</g>
<!-- Node6&#45;&gt;Node9 -->
<g id="edge8_Node000006_Node000009" class="edge">
<title>Node6&#45;&gt;Node9</title>
<g id="a_edge8_Node000006_Node000009"><a xlink:title=" ">
<path fill="none" stroke="#63b8ff" d="M223.58,-270.63C211.06,-268.72 197.38,-266.63 184.65,-264.69"/>
<polygon fill="#63b8ff" stroke="#63b8ff" points="222.78,-274.05 233.2,-272.1 223.84,-267.13 222.78,-274.05"/>
</a>
</g>
</g>
<!-- Node8 -->
<g id="Node000008" class="node">
<title>Node8</title>
<g id="a_Node000008"><a xlink:href="app_8c.html#ab1e039392ea68017ab8a6063263b147d" target="_top" xlink:title=" ">
<polygon fill="white" stroke="#666666" points="51.25,-306.75 0,-306.75 0,-286 51.25,-286 51.25,-306.75"/>
<text text-anchor="middle" x="25.62" y="-293.25" font-family="Helvetica,sans-Serif" font-size="10.00">w2c__c</text>
</a>
</g>
</g>
<!-- Node7&#45;&gt;Node8 -->
<g id="edge7_Node000007_Node000008" class="edge">
<title>Node7&#45;&gt;Node8</title>
<g id="a_edge7_Node000007_Node000008"><a xlink:title=" ">
<path fill="none" stroke="#63b8ff" d="M92.72,-296.38C78.81,-296.38 63.78,-296.38 51.57,-296.38"/>
<polygon fill="#63b8ff" stroke="#63b8ff" points="92.54,-299.88 102.54,-296.38 92.54,-292.88 92.54,-299.88"/>
</a>
</g>
</g>
<!-- Node10&#45;&gt;Node6 -->
<g id="edge10_Node000010_Node000006" class="edge">
<title>Node10&#45;&gt;Node6</title>
<g id="a_edge10_Node000010_Node000006"><a xlink:title=" ">
<path fill="none" stroke="#63b8ff" d="M361.72,-489.75C358.64,-487.55 355.76,-485.09 353.25,-482.38 338.99,-466.91 288.02,-327.88 273.58,-288.01"/>
<polygon fill="#63b8ff" stroke="#63b8ff" points="359.72,-492.63 370.08,-494.86 363.37,-486.66 359.72,-492.63"/>
</a>
</g>
</g>
<!-- Node12&#45;&gt;Node6 -->
<g id="edge28_Node000012_Node000006" class="edge">
<title>Node12&#45;&gt;Node6</title>
<g id="a_edge28_Node000012_Node000006"><a xlink:title=" ">
<path fill="none" stroke="#63b8ff" d="M760.36,-199.22C747.67,-207.1 731.69,-215.92 716.25,-221.38 568.74,-273.49 378.8,-278.34 303.07,-277.98"/>
<polygon fill="#63b8ff" stroke="#63b8ff" points="761.95,-202.36 768.47,-194.01 758.17,-196.47 761.95,-202.36"/>
</a>
</g>
</g>
<!-- Node13 -->
<g id="Node000013" class="node">
<title>Node13</title>
<g id="a_Node000013"><a xlink:href="app_8c.html#a792ced92abf08e5bcaa60ca728f23fe8" target="_top" xlink:title=" ">
<polygon fill="white" stroke="#666666" points="701.62,-173.75 633.88,-173.75 633.88,-153 701.62,-153 701.62,-173.75"/>
<text text-anchor="middle" x="667.75" y="-160.25" font-family="Helvetica,sans-Serif" font-size="10.00">w2c__f323</text>
</a>
</g>
</g>
<!-- Node12&#45;&gt;Node13 -->
<g id="edge14_Node000012_Node000013" class="edge">
<title>Node12&#45;&gt;Node13</title>
<g id="a_edge14_Node000012_Node000013"><a xlink:title=" ">
<path fill="none" stroke="#63b8ff" d="M740.8,-175.14C727.96,-173.04 714.16,-170.79 702.1,-168.82"/>
<polygon fill="#63b8ff" stroke="#63b8ff" points="739.85,-178.53 750.28,-176.69 740.98,-171.62 739.85,-178.53"/>
</a>
</g>
</g>
<!-- Node14 -->
<g id="Node000014" class="node">
<title>Node14</title>
<g id="a_Node000014"><a xlink:href="app_8c.html#a8ce57e1cc8f9eb811e47ebb0255bf93c" target="_top" xlink:title=" ">
<polygon fill="white" stroke="#666666" points="435.62,-174.75 367.88,-174.75 367.88,-154 435.62,-154 435.62,-174.75"/>
<text text-anchor="middle" x="401.75" y="-161.25" font-family="Helvetica,sans-Serif" font-size="10.00">w2c__f439</text>
</a>
</g>
</g>
<!-- Node12&#45;&gt;Node14 -->
<g id="edge41_Node000012_Node000014" class="edge">
<title>Node12&#45;&gt;Node14</title>
<g id="a_edge41_Node000012_Node000014"><a xlink:title=" ">
<path fill="none" stroke="#63b8ff" d="M768.67,-163.3C755.84,-149.78 736.79,-132.49 716.25,-123.38 661.78,-99.2 642.72,-110.16 583.25,-106.38 540.23,-103.64 526.31,-90.45 486.25,-106.38 465.8,-114.51 468.26,-127.73 450.25,-140.38 443.14,-145.37 434.85,-149.93 427.2,-153.7"/>
<polygon fill="#63b8ff" stroke="#63b8ff" points="765.82,-165.36 775.14,-170.4 770.99,-160.65 765.82,-165.36"/>
</a>
</g>
</g>
<!-- Node16 -->
<g id="Node000016" class="node">
<title>Node16</title>
<g id="a_Node000016"><a xlink:href="app_8c.html#a636436e7caf036535d952ee46c944412" target="_top" xlink:title=" ">
<polygon fill="white" stroke="#666666" points="568.62,-135.75 500.88,-135.75 500.88,-115 568.62,-115 568.62,-135.75"/>
<text text-anchor="middle" x="534.75" y="-122.25" font-family="Helvetica,sans-Serif" font-size="10.00">w2c__f501</text>
</a>
</g>
</g>
<!-- Node12&#45;&gt;Node16 -->
<g id="edge44_Node000012_Node000016" class="edge">
<title>Node12&#45;&gt;Node16</title>
<g id="a_edge44_Node000012_Node000016"><a xlink:title=" ">
<path fill="none" stroke="#63b8ff" d="M760.43,-165.59C747.77,-157.82 731.77,-149.25 716.25,-144.38 666.5,-128.74 605.64,-125.38 568.82,-124.96"/>
<polygon fill="#63b8ff" stroke="#63b8ff" points="758.21,-168.32 768.52,-170.75 761.97,-162.42 758.21,-168.32"/>
</a>
</g>
</g>
<!-- Node17 -->
<g id="Node000017" class="node">
<title>Node17</title>
<g id="a_Node000017"><a xlink:href="app_8c.html#a5bcd487c0a8bcb7cb69947a76c4951cb" target="_top" xlink:title=" ">
<polygon fill="white" stroke="#666666" points="568.62,-59.75 500.88,-59.75 500.88,-39 568.62,-39 568.62,-59.75"/>
<text text-anchor="middle" x="534.75" y="-46.25" font-family="Helvetica,sans-Serif" font-size="10.00">w2c__f324</text>
</a>
</g>
</g>
<!-- Node12&#45;&gt;Node17 -->
<g id="edge20_Node000012_Node000017" class="edge">
<title>Node12&#45;&gt;Node17</title>
<g id="a_edge20_Node000012_Node000017"><a xlink:title=" ">
<path fill="none" stroke="#63b8ff" d="M778.04,-161.1C768.37,-135.69 748.47,-94.01 716.25,-73.38 671.4,-44.64 607.39,-43.34 568.88,-45.8"/>
<polygon fill="#63b8ff" stroke="#63b8ff" points="774.69,-162.15 781.36,-170.38 781.28,-159.79 774.69,-162.15"/>
</a>
</g>
</g>
<!-- Node23 -->
<g id="Node000023" class="node">
<title>Node23</title>
<g id="a_Node000023"><a xlink:href="app_8c.html#adcdc5c2b726db57cb7193fb1e2a670b6" target="_top" xlink:title=" ">
<polygon fill="white" stroke="#666666" points="701.62,-212.75 633.88,-212.75 633.88,-192 701.62,-192 701.62,-212.75"/>
<text text-anchor="middle" x="667.75" y="-199.25" font-family="Helvetica,sans-Serif" font-size="10.00">w2c__f377</text>
</a>
</g>
</g>
<!-- Node12&#45;&gt;Node23 -->
<g id="edge29_Node000012_Node000023" class="edge">
<title>Node12&#45;&gt;Node23</title>
<g id="a_edge29_Node000012_Node000023"><a xlink:title=" ">
<path fill="none" stroke="#63b8ff" d="M740.8,-189.99C727.96,-192.2 714.16,-194.57 702.1,-196.64"/>
<polygon fill="#63b8ff" stroke="#63b8ff" points="741.02,-193.51 750.28,-188.36 739.84,-186.61 741.02,-193.51"/>
</a>
</g>
</g>
<!-- Node25 -->
<g id="Node000025" class="node">
<title>Node25</title>
<g id="a_Node000025"><a xlink:href="app_8c.html#afd59e3b7891a87c9430573c8a9a96c0a" target="_top" xlink:title=" ">
<polygon fill="white" stroke="#666666" points="701.62,-325.75 633.88,-325.75 633.88,-305 701.62,-305 701.62,-325.75"/>
<text text-anchor="middle" x="667.75" y="-312.25" font-family="Helvetica,sans-Serif" font-size="10.00">w2c__f380</text>
</a>
</g>
</g>
<!-- Node12&#45;&gt;Node25 -->
<g id="edge32_Node000012_Node000025" class="edge">
<title>Node12&#45;&gt;Node25</title>
<g id="a_edge32_Node000012_Node000025"><a xlink:title=" ">
<path fill="none" stroke="#63b8ff" d="M776.09,-203.37C764.94,-227.24 744.01,-266.15 716.25,-291.38 710.37,-296.72 703.08,-301.18 695.99,-304.75"/>
<polygon fill="#63b8ff" stroke="#63b8ff" points="779.23,-204.93 780.14,-194.37 772.84,-202.05 779.23,-204.93"/>
</a>
</g>
</g>
<!-- Node32 -->
<g id="Node000032" class="node">
<title>Node32</title>
<g id="a_Node000032"><a xlink:href="app_8c.html#a651ec0f9d894e20b973be3a3f5e2a759" target="_top" xlink:title=" ">
<polygon fill="white" stroke="#666666" points="701.62,-21.75 633.88,-21.75 633.88,-1 701.62,-1 701.62,-21.75"/>
<text text-anchor="middle" x="667.75" y="-8.25" font-family="Helvetica,sans-Serif" font-size="10.00">w2c__f483</text>
</a>
</g>
</g>
<!-- Node12&#45;&gt;Node32 -->
<g id="edge42_Node000012_Node000032" class="edge">
<title>Node12&#45;&gt;Node32</title>
<g id="a_edge42_Node000012_Node000032"><a xlink:title=" ">
<path fill="none" stroke="#63b8ff" d="M779.87,-160.87C771.3,-129.72 751.6,-71.79 716.25,-35.38 710.97,-29.94 704.2,-25.52 697.44,-22.03"/>
<polygon fill="#63b8ff" stroke="#63b8ff" points="776.42,-161.49 782.33,-170.29 783.19,-159.73 776.42,-161.49"/>
</a>
</g>
</g>
<!-- Node34 -->
<g id="Node000034" class="node">
<title>Node34</title>
<g id="a_Node000034"><a xlink:href="app_8c.html#a1399dd4abee2d457a4a3de852ec3e59c" target="_top" xlink:title=" ">
<polygon fill="white" stroke="#666666" points="716.25,-364.75 619.25,-364.75 619.25,-344 716.25,-344 716.25,-364.75"/>
<text text-anchor="middle" x="667.75" y="-351.25" font-family="Helvetica,sans-Serif" font-size="10.00">wrap_w2c__f450</text>
</a>
</g>
</g>
<!-- Node12&#45;&gt;Node34 -->
<g id="edge45_Node000012_Node000034" class="edge">
<title>Node12&#45;&gt;Node34</title>
<g id="a_edge45_Node000012_Node000034"><a xlink:title=" ">
<path fill="none" stroke="#63b8ff" d="M780.63,-204.03C772.86,-236.44 753.99,-297.64 716.25,-334.38 712.4,-338.12 707.75,-341.21 702.88,-343.74"/>
<polygon fill="#63b8ff" stroke="#63b8ff" points="783.97,-205.14 782.75,-194.61 777.14,-203.6 783.97,-205.14"/>
</a>
</g>
</g>
<!-- Node13&#45;&gt;Node14 -->
<g id="edge15_Node000013_Node000014" class="edge">
<title>Node13&#45;&gt;Node14</title>
<g id="a_edge15_Node000013_Node000014"><a xlink:title=" ">
<path fill="none" stroke="#63b8ff" d="M622.25,-163.54C569.6,-163.74 483.15,-164.07 435.99,-164.25"/>
<polygon fill="#63b8ff" stroke="#63b8ff" points="622.08,-167.04 632.07,-163.51 622.05,-160.04 622.08,-167.04"/>
</a>
</g>
</g>
<!-- Node13&#45;&gt;Node16 -->
<g id="edge18_Node000013_Node000016" class="edge">
<title>Node13&#45;&gt;Node16</title>
<g id="a_edge18_Node000013_Node000016"><a xlink:title=" ">
<path fill="none" stroke="#63b8ff" d="M622.79,-150.62C605.15,-145.51 585.16,-139.71 568.8,-134.96"/>
<polygon fill="#63b8ff" stroke="#63b8ff" points="621.66,-153.94 632.24,-153.36 623.61,-147.22 621.66,-153.94"/>
</a>
</g>
</g>
<!-- Node14&#45;&gt;Node6 -->
<g id="edge16_Node000014_Node000006" class="edge">
<title>Node14&#45;&gt;Node6</title>
<g id="a_edge16_Node000014_Node000006"><a xlink:title=" ">
<path fill="none" stroke="#63b8ff" d="M379.65,-182.58C352.01,-206.41 304.46,-247.43 282.08,-266.74"/>
<polygon fill="#63b8ff" stroke="#63b8ff" points="381.76,-185.38 387.04,-176.2 377.18,-180.08 381.76,-185.38"/>
</a>
</g>
</g>
<!-- Node15 -->
<g id="Node000015" class="node">
<title>Node15</title>
<g id="a_Node000015"><a xlink:href="app_8c.html#ad2f07074387d28148f45e8a52892c3bb" target="_top" xlink:title=" ">
<polygon fill="white" stroke="#666666" points="317.25,-174.75 220.25,-174.75 220.25,-154 317.25,-154 317.25,-174.75"/>
<text text-anchor="middle" x="268.75" y="-161.25" font-family="Helvetica,sans-Serif" font-size="10.00">wrap_w2c__f439</text>
</a>
</g>
</g>
<!-- Node14&#45;&gt;Node15 -->
<g id="edge17_Node000014_Node000015" class="edge">
<title>Node14&#45;&gt;Node15</title>
<g id="a_edge17_Node000014_Node000015"><a xlink:title=" ">
<path fill="none" stroke="#63b8ff" d="M356.2,-164.38C343.78,-164.38 330.25,-164.38 317.65,-164.38"/>
<polygon fill="#63b8ff" stroke="#63b8ff" points="356.18,-167.88 366.18,-164.38 356.18,-160.88 356.18,-167.88"/>
</a>
</g>
</g>
<!-- Node16&#45;&gt;Node14 -->
<g id="edge19_Node000016_Node000014" class="edge">
<title>Node16&#45;&gt;Node14</title>
<g id="a_edge19_Node000016_Node000014"><a xlink:title=" ">
<path fill="none" stroke="#63b8ff" d="M489.79,-138.46C472.15,-143.72 452.16,-149.66 435.8,-154.54"/>
<polygon fill="#63b8ff" stroke="#63b8ff" points="490.66,-141.86 499.24,-135.65 488.66,-135.15 490.66,-141.86"/>
</a>
</g>
</g>
<!-- Node17&#45;&gt;Node6 -->
<g id="edge23_Node000017_Node000006" class="edge">
<title>Node17&#45;&gt;Node6</title>
<g id="a_edge23_Node000017_Node000006"><a xlink:title=" ">
<path fill="none" stroke="#63b8ff" d="M499.41,-65.22C494.86,-67.75 490.36,-70.49 486.25,-73.38 468.24,-86.02 468.84,-95.59 450.25,-107.38 411.15,-132.17 388.96,-115.9 353.25,-145.38 311.22,-180.07 283.71,-241.66 273.84,-266.52"/>
<polygon fill="#63b8ff" stroke="#63b8ff" points="500.72,-68.48 507.96,-60.75 497.47,-62.28 500.72,-68.48"/>
</a>
</g>
</g>
<!-- Node18 -->
<g id="Node000018" class="node">
<title>Node18</title>
<g id="a_Node000018"><a xlink:href="app_8c.html#a92887d2aedd3202ee2ee7790ac44d9c3" target="_top" xlink:title=" ">
<polygon fill="white" stroke="#666666" points="435.62,-20.75 367.88,-20.75 367.88,0 435.62,0 435.62,-20.75"/>
<text text-anchor="middle" x="401.75" y="-7.25" font-family="Helvetica,sans-Serif" font-size="10.00">w2c__f352</text>
</a>
</g>
</g>
<!-- Node17&#45;&gt;Node18 -->
<g id="edge21_Node000017_Node000018" class="edge">
<title>Node17&#45;&gt;Node18</title>
<g id="a_edge21_Node000017_Node000018"><a xlink:title=" ">
<path fill="none" stroke="#63b8ff" d="M489.79,-36.29C472.15,-31.03 452.16,-25.09 435.8,-20.21"/>
<polygon fill="#63b8ff" stroke="#63b8ff" points="488.66,-39.6 499.24,-39.1 490.66,-32.89 488.66,-39.6"/>
</a>
</g>
</g>
<!-- Node20 -->
<g id="Node000020" class="node">
<title>Node20</title>
<g id="a_Node000020"><a xlink:href="app_8c.html#a051a4ada43e33e41b591ce80f5f37aca" target="_top" xlink:title=" ">
<polygon fill="white" stroke="#666666" points="435.62,-59.75 367.88,-59.75 367.88,-39 435.62,-39 435.62,-59.75"/>
<text text-anchor="middle" x="401.75" y="-46.25" font-family="Helvetica,sans-Serif" font-size="10.00">w2c__f451</text>
</a>
</g>
</g>
<!-- Node17&#45;&gt;Node20 -->
<g id="edge24_Node000017_Node000020" class="edge">
<title>Node17&#45;&gt;Node20</title>
<g id="a_edge24_Node000017_Node000020"><a xlink:title=" ">
<path fill="none" stroke="#63b8ff" d="M489.28,-49.38C471.77,-49.38 452.01,-49.38 435.8,-49.38"/>
<polygon fill="#63b8ff" stroke="#63b8ff" points="489.18,-52.88 499.18,-49.38 489.18,-45.88 489.18,-52.88"/>
</a>
</g>
</g>
<!-- Node22 -->
<g id="Node000022" class="node">
<title>Node22</title>
<g id="a_Node000022"><a xlink:href="app_8c.html#ae1606a9227009f19ddfac888034d6891" target="_top" xlink:title=" ">
<polygon fill="white" stroke="#666666" points="450.25,-98.75 353.25,-98.75 353.25,-78 450.25,-78 450.25,-98.75"/>
<text text-anchor="middle" x="401.75" y="-85.25" font-family="Helvetica,sans-Serif" font-size="10.00">wrap_w2c__f324</text>
</a>
</g>
</g>
<!-- Node17&#45;&gt;Node22 -->
<g id="edge27_Node000017_Node000022" class="edge">
<title>Node17&#45;&gt;Node22</title>
<g id="a_edge27_Node000017_Node000022"><a xlink:title=" ">
<path fill="none" stroke="#63b8ff" d="M489.68,-62.5C473.21,-67.4 454.71,-72.91 439.02,-77.58"/>
<polygon fill="#63b8ff" stroke="#63b8ff" points="490.66,-65.86 499.24,-59.65 488.66,-59.15 490.66,-65.86"/>
</a>
</g>
</g>
<!-- Node19 -->
<g id="Node000019" class="node">
<title>Node19</title>
<g id="a_Node000019"><a xlink:href="app_8c.html#a59ffb9c4f4293b99a29f46019ffebf23" target="_top" xlink:title=" ">
<polygon fill="white" stroke="#666666" points="317.25,-20.75 220.25,-20.75 220.25,0 317.25,0 317.25,-20.75"/>
<text text-anchor="middle" x="268.75" y="-7.25" font-family="Helvetica,sans-Serif" font-size="10.00">wrap_w2c__f352</text>
</a>
</g>
</g>
<!-- Node18&#45;&gt;Node19 -->
<g id="edge22_Node000018_Node000019" class="edge">
<title>Node18&#45;&gt;Node19</title>
<g id="a_edge22_Node000018_Node000019"><a xlink:title=" ">
<path fill="none" stroke="#63b8ff" d="M356.2,-10.38C343.78,-10.38 330.25,-10.38 317.65,-10.38"/>
<polygon fill="#63b8ff" stroke="#63b8ff" points="356.18,-13.88 366.18,-10.38 356.18,-6.88 356.18,-13.88"/>
</a>
</g>
</g>
<!-- Node20&#45;&gt;Node6 -->
<g id="edge25_Node000020_Node000006" class="edge">
<title>Node20&#45;&gt;Node6</title>
<g id="a_edge25_Node000020_Node000006"><a xlink:title=" ">
<path fill="none" stroke="#63b8ff" d="M358.15,-64.84C356.39,-66.23 354.74,-67.74 353.25,-69.38 317.46,-108.65 337.3,-134.17 317.25,-183.38 304.56,-214.53 285.57,-249.46 275.9,-266.64"/>
<polygon fill="#63b8ff" stroke="#63b8ff" points="359.78,-67.95 366.39,-59.67 356.06,-62.02 359.78,-67.95"/>
</a>
</g>
</g>
<!-- Node21 -->
<g id="Node000021" class="node">
<title>Node21</title>
<g id="a_Node000021"><a xlink:href="app_8c.html#a986a3b273c82dee406f4d880d67fc450" target="_top" xlink:title=" ">
<polygon fill="white" stroke="#666666" points="317.25,-59.75 220.25,-59.75 220.25,-39 317.25,-39 317.25,-59.75"/>
<text text-anchor="middle" x="268.75" y="-46.25" font-family="Helvetica,sans-Serif" font-size="10.00">wrap_w2c__f451</text>
</a>
</g>
</g>
<!-- Node20&#45;&gt;Node21 -->
<g id="edge26_Node000020_Node000021" class="edge">
<title>Node20&#45;&gt;Node21</title>
<g id="a_edge26_Node000020_Node000021"><a xlink:title=" ">
<path fill="none" stroke="#63b8ff" d="M356.2,-49.38C343.78,-49.38 330.25,-49.38 317.65,-49.38"/>
<polygon fill="#63b8ff" stroke="#63b8ff" points="356.18,-52.88 366.18,-49.38 356.18,-45.88 356.18,-52.88"/>
</a>
</g>
</g>
<!-- Node23&#45;&gt;Node6 -->
<g id="edge30_Node000023_Node000006" class="edge">
<title>Node23&#45;&gt;Node6</title>
<g id="a_edge30_Node000023_Node000006"><a xlink:title=" ">
<path fill="none" stroke="#63b8ff" d="M622.29,-212.24C609.69,-214.96 595.95,-217.85 583.25,-220.38 481.24,-240.64 359.99,-261.88 302.77,-271.74"/>
<polygon fill="#63b8ff" stroke="#63b8ff" points="622.98,-215.67 632,-210.13 621.49,-208.83 622.98,-215.67"/>
</a>
</g>
</g>
<!-- Node24 -->
<g id="Node000024" class="node">
<title>Node24</title>
<g id="a_Node000024"><a xlink:href="app_8c.html#af5aab866c7726617e5d455dd663fefe7" target="_top" xlink:title=" ">
<polygon fill="white" stroke="#666666" points="583.25,-211.75 486.25,-211.75 486.25,-191 583.25,-191 583.25,-211.75"/>
<text text-anchor="middle" x="534.75" y="-198.25" font-family="Helvetica,sans-Serif" font-size="10.00">wrap_w2c__f377</text>
</a>
</g>
</g>
<!-- Node23&#45;&gt;Node24 -->
<g id="edge31_Node000023_Node000024" class="edge">
<title>Node23&#45;&gt;Node24</title>
<g id="a_edge31_Node000023_Node000024"><a xlink:title=" ">
<path fill="none" stroke="#63b8ff" d="M622.2,-202.03C609.78,-201.94 596.25,-201.84 583.65,-201.74"/>
<polygon fill="#63b8ff" stroke="#63b8ff" points="622.15,-205.53 632.18,-202.11 622.21,-198.53 622.15,-205.53"/>
</a>
</g>
</g>
<!-- Node25&#45;&gt;Node6 -->
<g id="edge33_Node000025_Node000006" class="edge">
<title>Node25&#45;&gt;Node6</title>
<g id="a_edge33_Node000025_Node000006"><a xlink:title=" ">
<path fill="none" stroke="#63b8ff" d="M622.24,-313.23C561.35,-310 448.75,-303.01 353.25,-291.38 336.62,-289.35 318.24,-286.35 302.97,-283.65"/>
<polygon fill="#63b8ff" stroke="#63b8ff" points="622.03,-316.72 632.19,-313.74 622.39,-309.73 622.03,-316.72"/>
</a>
</g>
</g>
<!-- Node26 -->
<g id="Node000026" class="node">
<title>Node26</title>
<g id="a_Node000026"><a xlink:href="app_8c.html#affed7b4e730191b8eb2ae859a9d3e4b2" target="_top" xlink:title=" ">
<polygon fill="white" stroke="#666666" points="568.62,-440.75 500.88,-440.75 500.88,-420 568.62,-420 568.62,-440.75"/>
<text text-anchor="middle" x="534.75" y="-427.25" font-family="Helvetica,sans-Serif" font-size="10.00">w2c__f426</text>
</a>
</g>
</g>
<!-- Node25&#45;&gt;Node26 -->
<g id="edge34_Node000025_Node000026" class="edge">
<title>Node25&#45;&gt;Node26</title>
<g id="a_edge34_Node000025_Node000026"><a xlink:title=" ">
<path fill="none" stroke="#63b8ff" d="M625.33,-331.43C623.22,-332.67 621.18,-333.99 619.25,-335.38 585.39,-359.76 555.8,-400.28 542.79,-419.55"/>
<polygon fill="#63b8ff" stroke="#63b8ff" points="626.91,-334.55 634.17,-326.84 623.68,-328.34 626.91,-334.55"/>
</a>
</g>
</g>
<!-- Node26&#45;&gt;Node4 -->
<g id="edge37_Node000026_Node000004" class="edge">
<title>Node26&#45;&gt;Node4</title>
<g id="a_edge37_Node000026_Node000004"><a xlink:title=" ">
<path fill="none" stroke="#63b8ff" d="M515.66,-449.52C506.18,-460.15 494.8,-473.92 486.25,-487.38 465.99,-519.26 477.48,-538.19 450.25,-564.38 446.12,-568.34 441.09,-571.58 435.86,-574.2"/>
<polygon fill="#63b8ff" stroke="#63b8ff" points="518.2,-451.93 522.36,-442.19 513.03,-447.21 518.2,-451.93"/>
</a>
</g>
</g>
<!-- Node27 -->
<g id="Node000027" class="node">
<title>Node27</title>
<g id="a_Node000027"><a xlink:href="app_8c.html#af245d5659b958eabe30540d214352ad8" target="_top" xlink:title=" ">
<polygon fill="white" stroke="#666666" points="435.62,-555.75 367.88,-555.75 367.88,-535 435.62,-535 435.62,-555.75"/>
<text text-anchor="middle" x="401.75" y="-542.25" font-family="Helvetica,sans-Serif" font-size="10.00">w2c__f197</text>
</a>
</g>
</g>
<!-- Node26&#45;&gt;Node27 -->
<g id="edge35_Node000026_Node000027" class="edge">
<title>Node26&#45;&gt;Node27</title>
<g id="a_edge35_Node000026_Node000027"><a xlink:title=" ">
<path fill="none" stroke="#63b8ff" d="M517.47,-449.81C495.5,-475.91 458.18,-519.66 450.25,-525.38 445.31,-528.93 439.65,-532.01 433.99,-534.61"/>
<polygon fill="#63b8ff" stroke="#63b8ff" points="520.06,-452.17 523.82,-442.26 514.7,-447.67 520.06,-452.17"/>
</a>
</g>
</g>
<!-- Node29 -->
<g id="Node000029" class="node">
<title>Node29</title>
<g id="a_Node000029"><a xlink:href="app_8c.html#a3b35d36403dcff081d46c10210051cdc" target="_top" xlink:title=" ">
<polygon fill="white" stroke="#666666" points="435.62,-440.75 367.88,-440.75 367.88,-420 435.62,-420 435.62,-440.75"/>
<text text-anchor="middle" x="401.75" y="-427.25" font-family="Helvetica,sans-Serif" font-size="10.00">w2c__f349</text>
</a>
</g>
</g>
<!-- Node26&#45;&gt;Node29 -->
<g id="edge38_Node000026_Node000029" class="edge">
<title>Node26&#45;&gt;Node29</title>
<g id="a_edge38_Node000026_Node000029"><a xlink:title=" ">
<path fill="none" stroke="#63b8ff" d="M489.28,-430.38C471.77,-430.38 452.01,-430.38 435.8,-430.38"/>
<polygon fill="#63b8ff" stroke="#63b8ff" points="489.18,-433.88 499.18,-430.38 489.18,-426.88 489.18,-433.88"/>
</a>
</g>
</g>
<!-- Node31 -->
<g id="Node000031" class="node">
<title>Node31</title>
<g id="a_Node000031"><a xlink:href="app_8c.html#ae1beb332ba7551f1acff2f46930c4e85" target="_top" xlink:title=" ">
<polygon fill="white" stroke="#666666" points="450.25,-401.75 353.25,-401.75 353.25,-381 450.25,-381 450.25,-401.75"/>
<text text-anchor="middle" x="401.75" y="-388.25" font-family="Helvetica,sans-Serif" font-size="10.00">wrap_w2c__f426</text>
</a>
</g>
</g>
<!-- Node26&#45;&gt;Node31 -->
<g id="edge40_Node000026_Node000031" class="edge">
<title>Node26&#45;&gt;Node31</title>
<g id="a_edge40_Node000026_Node000031"><a xlink:title=" ">
<path fill="none" stroke="#63b8ff" d="M489.68,-417.25C473.21,-412.35 454.71,-406.84 439.02,-402.17"/>
<polygon fill="#63b8ff" stroke="#63b8ff" points="488.66,-420.6 499.24,-420.1 490.66,-413.89 488.66,-420.6"/>
</a>
</g>
</g>
<!-- Node28 -->
<g id="Node000028" class="node">
<title>Node28</title>
<g id="a_Node000028"><a xlink:href="app_8c.html#ac9dfe974277b0ee3fa24e73b7712fe31" target="_top" xlink:title=" ">
<polygon fill="white" stroke="#666666" points="317.25,-555.75 220.25,-555.75 220.25,-535 317.25,-535 317.25,-555.75"/>
<text text-anchor="middle" x="268.75" y="-542.25" font-family="Helvetica,sans-Serif" font-size="10.00">wrap_w2c__f197</text>
</a>
</g>
</g>
<!-- Node27&#45;&gt;Node28 -->
<g id="edge36_Node000027_Node000028" class="edge">
<title>Node27&#45;&gt;Node28</title>
<g id="a_edge36_Node000027_Node000028"><a xlink:title=" ">
<path fill="none" stroke="#63b8ff" d="M356.2,-545.38C343.78,-545.38 330.25,-545.38 317.65,-545.38"/>
<polygon fill="#63b8ff" stroke="#63b8ff" points="356.18,-548.88 366.18,-545.38 356.18,-541.88 356.18,-548.88"/>
</a>
</g>
</g>
<!-- Node30 -->
<g id="Node000030" class="node">
<title>Node30</title>
<g id="a_Node000030"><a xlink:href="app_8c.html#a053e462a04712de112461bc2539f46e8" target="_top" xlink:title=" ">
<polygon fill="white" stroke="#666666" points="317.25,-440.75 220.25,-440.75 220.25,-420 317.25,-420 317.25,-440.75"/>
<text text-anchor="middle" x="268.75" y="-427.25" font-family="Helvetica,sans-Serif" font-size="10.00">wrap_w2c__f349</text>
</a>
</g>
</g>
<!-- Node29&#45;&gt;Node30 -->
<g id="edge39_Node000029_Node000030" class="edge">
<title>Node29&#45;&gt;Node30</title>
<g id="a_edge39_Node000029_Node000030"><a xlink:title=" ">
<path fill="none" stroke="#63b8ff" d="M356.2,-430.38C343.78,-430.38 330.25,-430.38 317.65,-430.38"/>
<polygon fill="#63b8ff" stroke="#63b8ff" points="356.18,-433.88 366.18,-430.38 356.18,-426.88 356.18,-433.88"/>
</a>
</g>
</g>
<!-- Node33 -->
<g id="Node000033" class="node">
<title>Node33</title>
<g id="a_Node000033"><a xlink:href="app_8c.html#a199b0b13b03598552d3b6c02676a7067" target="_top" xlink:title=" ">
<polygon fill="white" stroke="#666666" points="583.25,-20.75 486.25,-20.75 486.25,0 583.25,0 583.25,-20.75"/>
<text text-anchor="middle" x="534.75" y="-7.25" font-family="Helvetica,sans-Serif" font-size="10.00">wrap_w2c__f483</text>
</a>
</g>
</g>
<!-- Node32&#45;&gt;Node33 -->
<g id="edge43_Node000032_Node000033" class="edge">
<title>Node32&#45;&gt;Node33</title>
<g id="a_edge43_Node000032_Node000033"><a xlink:title=" ">
<path fill="none" stroke="#63b8ff" d="M622.2,-11.03C609.78,-10.94 596.25,-10.84 583.65,-10.74"/>
<polygon fill="#63b8ff" stroke="#63b8ff" points="622.15,-14.53 632.18,-11.11 622.21,-7.53 622.15,-14.53"/>
</a>
</g>
</g>
</g>
</svg>
