<?xml version="1.0" encoding="UTF-8" standalone="no"?>
<!DOCTYPE svg PUBLIC "-//W3C//DTD SVG 1.1//EN"
 "http://www.w3.org/Graphics/SVG/1.1/DTD/svg11.dtd">
<!-- Generated by graphviz version 12.2.1 (0)
 -->
<!-- Title: w2c__f309 Pages: 1 -->
<svg width="286pt" height="224pt"
 viewBox="0.00 0.00 285.50 223.75" xmlns="http://www.w3.org/2000/svg" xmlns:xlink="http://www.w3.org/1999/xlink">
<g id="graph0" class="graph" transform="scale(1 1) rotate(0) translate(4 219.75)">
<title>w2c__f309</title>
<!-- Node1 -->
<g id="Node000001" class="node">
<title>Node1</title>
<g id="a_Node000001"><a xlink:title=" ">
<polygon fill="#999999" stroke="#666666" points="67.75,-117.75 0,-117.75 0,-97 67.75,-97 67.75,-117.75"/>
<text text-anchor="middle" x="33.88" y="-104.25" font-family="Helvetica,sans-Serif" font-size="10.00">w2c__f309</text>
</a>
</g>
</g>
<!-- Node2 -->
<g id="Node000002" class="node">
<title>Node2</title>
<g id="a_Node000002"><a xlink:href="app_8c.html#a0164717ce31d2df5fee540951caebe62" target="_top" xlink:title=" ">
<polygon fill="white" stroke="#666666" points="173.75,-215.75 103.75,-215.75 103.75,-195 173.75,-195 173.75,-215.75"/>
<text text-anchor="middle" x="138.75" y="-202.25" font-family="Helvetica,sans-Serif" font-size="10.00">w2c_0_181</text>
</a>
</g>
</g>
<!-- Node1&#45;&gt;Node2 -->
<g id="edge1_Node000001_Node000002" class="edge">
<title>Node1&#45;&gt;Node2</title>
<g id="a_edge1_Node000001_Node000002"><a xlink:title=" ">
<path fill="none" stroke="#63b8ff" d="M42.65,-118.18C54.54,-134.19 78.52,-164.57 103.75,-185.38 105,-186.41 106.32,-187.42 107.67,-188.41"/>
<polygon fill="#63b8ff" stroke="#63b8ff" points="105.38,-191.1 115.65,-193.69 109.24,-185.26 105.38,-191.1"/>
</a>
</g>
</g>
<!-- Node3 -->
<g id="Node000003" class="node">
<title>Node3</title>
<g id="a_Node000003"><a xlink:href="app_8c.html#a4f89434e73555473a637aa72f93ac987" target="_top" xlink:title=" ">
<polygon fill="white" stroke="#666666" points="170.75,-176.75 106.75,-176.75 106.75,-156 170.75,-156 170.75,-176.75"/>
<text text-anchor="middle" x="138.75" y="-163.25" font-family="Helvetica,sans-Serif" font-size="10.00">w2c_0_50</text>
</a>
</g>
</g>
<!-- Node1&#45;&gt;Node3 -->
<g id="edge2_Node000001_Node000003" class="edge">
<title>Node1&#45;&gt;Node3</title>
<g id="a_edge2_Node000001_Node000003"><a xlink:title=" ">
<path fill="none" stroke="#63b8ff" d="M53.74,-118.2C69.26,-127.1 91.49,-139.85 109.19,-150"/>
<polygon fill="#63b8ff" stroke="#63b8ff" points="107.27,-152.93 117.69,-154.87 110.75,-146.86 107.27,-152.93"/>
</a>
</g>
</g>
<!-- Node4 -->
<g id="Node000004" class="node">
<title>Node4</title>
<g id="a_Node000004"><a xlink:href="app_8c.html#a48ecc1104e7460873bafe7d1b275e34e" target="_top" xlink:title=" ">
<polygon fill="white" stroke="#666666" points="170.75,-137.75 106.75,-137.75 106.75,-117 170.75,-117 170.75,-137.75"/>
<text text-anchor="middle" x="138.75" y="-124.25" font-family="Helvetica,sans-Serif" font-size="10.00">w2c_0_87</text>
</a>
</g>
</g>
<!-- Node1&#45;&gt;Node4 -->
<g id="edge3_Node000001_Node000004" class="edge">
<title>Node1&#45;&gt;Node4</title>
<g id="a_edge3_Node000001_Node000004"><a xlink:title=" ">
<path fill="none" stroke="#63b8ff" d="M67.99,-113.81C76.66,-115.5 86.14,-117.34 95.23,-119.11"/>
<polygon fill="#63b8ff" stroke="#63b8ff" points="94.48,-122.53 104.96,-121 95.81,-115.66 94.48,-122.53"/>
</a>
</g>
</g>
<!-- Node5 -->
<g id="Node000005" class="node">
<title>Node5</title>
<g id="a_Node000005"><a xlink:href="app_8c.html#a03fa34d93d32a3ee40dfc2d840730111" target="_top" xlink:title=" ">
<polygon fill="white" stroke="#666666" points="172.62,-98.75 104.88,-98.75 104.88,-78 172.62,-78 172.62,-98.75"/>
<text text-anchor="middle" x="138.75" y="-85.25" font-family="Helvetica,sans-Serif" font-size="10.00">w2c__f262</text>
</a>
</g>
</g>
<!-- Node1&#45;&gt;Node5 -->
<g id="edge4_Node000001_Node000005" class="edge">
<title>Node1&#45;&gt;Node5</title>
<g id="a_edge4_Node000001_Node000005"><a xlink:title=" ">
<path fill="none" stroke="#63b8ff" d="M67.99,-101.26C76.16,-99.75 85.04,-98.11 93.64,-96.52"/>
<polygon fill="#63b8ff" stroke="#63b8ff" points="94.01,-100.01 103.21,-94.75 92.74,-93.13 94.01,-100.01"/>
</a>
</g>
</g>
<!-- Node8 -->
<g id="Node000008" class="node">
<title>Node8</title>
<g id="a_Node000008"><a xlink:href="app_8c.html#aa583f182f69261eb6417ee28acf1bedb" target="_top" xlink:title=" ">
<polygon fill="white" stroke="#666666" points="172.62,-59.75 104.88,-59.75 104.88,-39 172.62,-39 172.62,-59.75"/>
<text text-anchor="middle" x="138.75" y="-46.25" font-family="Helvetica,sans-Serif" font-size="10.00">w2c__f416</text>
</a>
</g>
</g>
<!-- Node1&#45;&gt;Node8 -->
<g id="edge7_Node000001_Node000008" class="edge">
<title>Node1&#45;&gt;Node8</title>
<g id="a_edge7_Node000001_Node000008"><a xlink:title=" ">
<path fill="none" stroke="#63b8ff" d="M53.74,-96.74C69.16,-88.04 91.22,-75.61 108.86,-65.66"/>
<polygon fill="#63b8ff" stroke="#63b8ff" points="110.34,-68.85 117.33,-60.89 106.9,-62.75 110.34,-68.85"/>
</a>
</g>
</g>
<!-- Node9 -->
<g id="Node000009" class="node">
<title>Node9</title>
<g id="a_Node000009"><a xlink:href="app_8c.html#a800df00ef236c6d6affc3c661b37e3ad" target="_top" xlink:title=" ">
<polygon fill="white" stroke="#666666" points="172.62,-20.75 104.88,-20.75 104.88,0 172.62,0 172.62,-20.75"/>
<text text-anchor="middle" x="138.75" y="-7.25" font-family="Helvetica,sans-Serif" font-size="10.00">w2c__f487</text>
</a>
</g>
</g>
<!-- Node1&#45;&gt;Node9 -->
<g id="edge8_Node000001_Node000009" class="edge">
<title>Node1&#45;&gt;Node9</title>
<g id="a_edge8_Node000001_Node000009"><a xlink:title=" ">
<path fill="none" stroke="#63b8ff" d="M42.68,-96.72C54.61,-80.92 78.64,-50.95 103.75,-30.38 105.01,-29.34 106.33,-28.33 107.68,-27.35"/>
<polygon fill="#63b8ff" stroke="#63b8ff" points="109.25,-30.5 115.67,-22.07 105.39,-24.66 109.25,-30.5"/>
</a>
</g>
</g>
<!-- Node6 -->
<g id="Node000006" class="node">
<title>Node6</title>
<g id="a_Node000006"><a xlink:href="app_8c.html#a16207b5f7a97b0ecfddd231452c5aa7e" target="_top" xlink:title=" ">
<polygon fill="white" stroke="#666666" points="277.5,-98.75 209.75,-98.75 209.75,-78 277.5,-78 277.5,-98.75"/>
<text text-anchor="middle" x="243.62" y="-85.25" font-family="Helvetica,sans-Serif" font-size="10.00">w2c__f263</text>
</a>
</g>
</g>
<!-- Node5&#45;&gt;Node6 -->
<g id="edge5_Node000005_Node000006" class="edge">
<title>Node5&#45;&gt;Node6</title>
<g id="a_edge5_Node000005_Node000006"><a xlink:title=" ">
<path fill="none" stroke="#63b8ff" d="M172.87,-88.38C180.94,-88.38 189.71,-88.38 198.22,-88.38"/>
<polygon fill="#63b8ff" stroke="#63b8ff" points="198.06,-91.88 208.06,-88.38 198.06,-84.88 198.06,-91.88"/>
</a>
</g>
</g>
<!-- Node7 -->
<g id="Node000007" class="node">
<title>Node7</title>
<g id="a_Node000007"><a xlink:href="app_8c.html#a71bcbce7faf780cd081af3fa82d6da97" target="_top" xlink:title=" ">
<polygon fill="white" stroke="#666666" points="277.5,-40.75 209.75,-40.75 209.75,-20 277.5,-20 277.5,-40.75"/>
<text text-anchor="middle" x="243.62" y="-27.25" font-family="Helvetica,sans-Serif" font-size="10.00">w2c__f437</text>
</a>
</g>
</g>
<!-- Node5&#45;&gt;Node7 -->
<g id="edge6_Node000005_Node000007" class="edge">
<title>Node5&#45;&gt;Node7</title>
<g id="a_edge6_Node000005_Node000007"><a xlink:title=" ">
<path fill="none" stroke="#63b8ff" d="M158.62,-77.74C174.04,-69.04 196.09,-56.61 213.73,-46.66"/>
<polygon fill="#63b8ff" stroke="#63b8ff" points="215.22,-49.85 222.21,-41.89 211.78,-43.75 215.22,-49.85"/>
</a>
</g>
</g>
<!-- Node9&#45;&gt;Node7 -->
<g id="edge9_Node000009_Node000007" class="edge">
<title>Node9&#45;&gt;Node7</title>
<g id="a_edge9_Node000009_Node000007"><a xlink:title=" ">
<path fill="none" stroke="#63b8ff" d="M172.87,-16.81C181.03,-18.4 189.91,-20.13 198.51,-21.8"/>
<polygon fill="#63b8ff" stroke="#63b8ff" points="197.6,-25.19 208.08,-23.66 198.94,-18.32 197.6,-25.19"/>
</a>
</g>
</g>
</g>
</svg>
