<?xml version="1.0" encoding="UTF-8" standalone="no"?>
<!DOCTYPE svg PUBLIC "-//W3C//DTD SVG 1.1//EN"
 "http://www.w3.org/Graphics/SVG/1.1/DTD/svg11.dtd">
<!-- Generated by graphviz version 12.2.1 (0)
 -->
<!-- Title: w2c__c_0 Pages: 1 -->
<svg width="488pt" height="1906pt"
 viewBox="0.00 0.00 487.75 1905.75" xmlns="http://www.w3.org/2000/svg" xmlns:xlink="http://www.w3.org/1999/xlink">
<g id="graph0" class="graph" transform="scale(1 1) rotate(0) translate(4 1901.75)">
<title>w2c__c_0</title>
<!-- Node1 -->
<g id="Node000001" class="node">
<title>Node1</title>
<g id="a_Node000001"><a xlink:title=" ">
<polygon fill="#999999" stroke="#666666" points="62.5,-983.75 0,-983.75 0,-963 62.5,-963 62.5,-983.75"/>
<text text-anchor="middle" x="31.25" y="-970.25" font-family="Helvetica,sans-Serif" font-size="10.00">w2c__c_0</text>
</a>
</g>
</g>
<!-- Node2 -->
<g id="Node000002" class="node">
<title>Node2</title>
<g id="a_Node000002"><a xlink:href="app_8c.html#aac449994afd8488e2efd16fb19f0ecb1" target="_top" xlink:title=" ">
<polygon fill="#fff0f0" stroke="red" points="166.25,-983.75 98.5,-983.75 98.5,-963 166.25,-963 166.25,-983.75"/>
<text text-anchor="middle" x="132.38" y="-970.25" font-family="Helvetica,sans-Serif" font-size="10.00">w2c__f336</text>
</a>
</g>
</g>
<!-- Node1&#45;&gt;Node2 -->
<g id="edge1_Node000001_Node000002" class="edge">
<title>Node1&#45;&gt;Node2</title>
<g id="a_edge1_Node000001_Node000002"><a xlink:title=" ">
<path fill="none" stroke="#63b8ff" d="M62.8,-973.38C70.46,-973.38 78.82,-973.38 87,-973.38"/>
<polygon fill="#63b8ff" stroke="#63b8ff" points="86.83,-976.88 96.83,-973.38 86.83,-969.88 86.83,-976.88"/>
</a>
</g>
</g>
<!-- Node3 -->
<g id="Node000003" class="node">
<title>Node3</title>
<g id="a_Node000003"><a xlink:href="app_8c.html#a86f7d5fc7415fd1937228236a3f26160" target="_top" xlink:title=" ">
<polygon fill="white" stroke="#666666" points="266.25,-1897.75 208.25,-1897.75 208.25,-1877 266.25,-1877 266.25,-1897.75"/>
<text text-anchor="middle" x="237.25" y="-1884.25" font-family="Helvetica,sans-Serif" font-size="10.00">w2c_0_1</text>
</a>
</g>
</g>
<!-- Node2&#45;&gt;Node3 -->
<g id="edge2_Node000002_Node000003" class="edge">
<title>Node2&#45;&gt;Node3</title>
<g id="a_edge2_Node000002_Node000003"><a xlink:title=" ">
<path fill="none" stroke="#63b8ff" d="M133.61,-984.23C135.75,-1080.66 153.11,-1788.64 202.25,-1867.38 202.53,-1867.83 202.83,-1868.27 203.13,-1868.7"/>
<polygon fill="#63b8ff" stroke="#63b8ff" points="200.46,-1870.98 210.06,-1875.47 205.36,-1865.98 200.46,-1870.98"/>
</a>
</g>
</g>
<!-- Node4 -->
<g id="Node000004" class="node">
<title>Node4</title>
<g id="a_Node000004"><a xlink:href="app_8c.html#a41e0ee6ef20134a809ea951c96136cc8" target="_top" xlink:title=" ">
<polygon fill="white" stroke="#666666" points="272.25,-1858.75 202.25,-1858.75 202.25,-1838 272.25,-1838 272.25,-1858.75"/>
<text text-anchor="middle" x="237.25" y="-1845.25" font-family="Helvetica,sans-Serif" font-size="10.00">w2c_0_108</text>
</a>
</g>
</g>
<!-- Node2&#45;&gt;Node4 -->
<g id="edge3_Node000002_Node000004" class="edge">
<title>Node2&#45;&gt;Node4</title>
<g id="a_edge3_Node000002_Node000004"><a xlink:title=" ">
<path fill="none" stroke="#63b8ff" d="M133.64,-984.05C136.06,-1077.41 155.15,-1753.21 202.25,-1828.38 202.53,-1828.82 202.83,-1829.27 203.14,-1829.7"/>
<polygon fill="#63b8ff" stroke="#63b8ff" points="200.47,-1831.98 210.07,-1836.47 205.36,-1826.98 200.47,-1831.98"/>
</a>
</g>
</g>
<!-- Node5 -->
<g id="Node000005" class="node">
<title>Node5</title>
<g id="a_Node000005"><a xlink:href="app_8c.html#a4412a19c83b911a11fc0ea94ba123b2c" target="_top" xlink:title=" ">
<polygon fill="white" stroke="#666666" points="272.25,-1819.75 202.25,-1819.75 202.25,-1799 272.25,-1799 272.25,-1819.75"/>
<text text-anchor="middle" x="237.25" y="-1806.25" font-family="Helvetica,sans-Serif" font-size="10.00">w2c_0_109</text>
</a>
</g>
</g>
<!-- Node2&#45;&gt;Node5 -->
<g id="edge4_Node000002_Node000005" class="edge">
<title>Node2&#45;&gt;Node5</title>
<g id="a_edge4_Node000002_Node000005"><a xlink:title=" ">
<path fill="none" stroke="#63b8ff" d="M133.69,-984.13C136.43,-1075.37 157.25,-1717.85 202.25,-1789.38 202.53,-1789.82 202.83,-1790.26 203.14,-1790.7"/>
<polygon fill="#63b8ff" stroke="#63b8ff" points="200.47,-1792.99 210.08,-1797.46 205.36,-1787.97 200.47,-1792.99"/>
</a>
</g>
</g>
<!-- Node6 -->
<g id="Node000006" class="node">
<title>Node6</title>
<g id="a_Node000006"><a xlink:href="app_8c.html#a68b833f9aeb03fa55aa2cc9624cdaf5d" target="_top" xlink:title=" ">
<polygon fill="white" stroke="#666666" points="272.25,-1780.75 202.25,-1780.75 202.25,-1760 272.25,-1760 272.25,-1780.75"/>
<text text-anchor="middle" x="237.25" y="-1767.25" font-family="Helvetica,sans-Serif" font-size="10.00">w2c_0_150</text>
</a>
</g>
</g>
<!-- Node2&#45;&gt;Node6 -->
<g id="edge5_Node000002_Node000006" class="edge">
<title>Node2&#45;&gt;Node6</title>
<g id="a_edge5_Node000002_Node000006"><a xlink:title=" ">
<path fill="none" stroke="#63b8ff" d="M133.74,-984.18C136.81,-1073.08 159.33,-1682.48 202.25,-1750.38 202.53,-1750.82 202.83,-1751.26 203.14,-1751.69"/>
<polygon fill="#63b8ff" stroke="#63b8ff" points="200.48,-1753.99 210.09,-1758.45 205.36,-1748.97 200.48,-1753.99"/>
</a>
</g>
</g>
<!-- Node7 -->
<g id="Node000007" class="node">
<title>Node7</title>
<g id="a_Node000007"><a xlink:href="app_8c.html#a7ec3324a54a5b6298d4de7cae840fbee" target="_top" xlink:title=" ">
<polygon fill="white" stroke="#666666" points="272.25,-1741.75 202.25,-1741.75 202.25,-1721 272.25,-1721 272.25,-1741.75"/>
<text text-anchor="middle" x="237.25" y="-1728.25" font-family="Helvetica,sans-Serif" font-size="10.00">w2c_0_160</text>
</a>
</g>
</g>
<!-- Node2&#45;&gt;Node7 -->
<g id="edge6_Node000002_Node000007" class="edge">
<title>Node2&#45;&gt;Node7</title>
<g id="a_edge6_Node000002_Node000007"><a xlink:title=" ">
<path fill="none" stroke="#63b8ff" d="M133.79,-984.18C137.2,-1070.52 161.4,-1647.09 202.25,-1711.38 202.53,-1711.82 202.83,-1712.26 203.14,-1712.69"/>
<polygon fill="#63b8ff" stroke="#63b8ff" points="200.49,-1714.99 210.1,-1719.45 205.36,-1709.97 200.49,-1714.99"/>
</a>
</g>
</g>
<!-- Node8 -->
<g id="Node000008" class="node">
<title>Node8</title>
<g id="a_Node000008"><a xlink:href="app_8c.html#adb0936db985ca5549233f0ac400dd785" target="_top" xlink:title=" ">
<polygon fill="white" stroke="#666666" points="272.25,-1702.75 202.25,-1702.75 202.25,-1682 272.25,-1682 272.25,-1702.75"/>
<text text-anchor="middle" x="237.25" y="-1689.25" font-family="Helvetica,sans-Serif" font-size="10.00">w2c_0_164</text>
</a>
</g>
</g>
<!-- Node2&#45;&gt;Node8 -->
<g id="edge7_Node000002_Node000008" class="edge">
<title>Node2&#45;&gt;Node8</title>
<g id="a_edge7_Node000002_Node000008"><a xlink:title=" ">
<path fill="none" stroke="#63b8ff" d="M133.85,-984.13C137.61,-1067.7 163.47,-1611.69 202.25,-1672.38 202.62,-1672.95 203.01,-1673.51 203.42,-1674.06"/>
<polygon fill="#63b8ff" stroke="#63b8ff" points="200.77,-1676.37 210.44,-1680.69 205.58,-1671.28 200.77,-1676.37"/>
</a>
</g>
</g>
<!-- Node9 -->
<g id="Node000009" class="node">
<title>Node9</title>
<g id="a_Node000009"><a xlink:href="app_8c.html#a337cc07ff026b599840af3f4e83e8260" target="_top" xlink:title=" ">
<polygon fill="white" stroke="#666666" points="272.25,-1663.75 202.25,-1663.75 202.25,-1643 272.25,-1643 272.25,-1663.75"/>
<text text-anchor="middle" x="237.25" y="-1650.25" font-family="Helvetica,sans-Serif" font-size="10.00">w2c_0_184</text>
</a>
</g>
</g>
<!-- Node2&#45;&gt;Node9 -->
<g id="edge8_Node000002_Node000009" class="edge">
<title>Node2&#45;&gt;Node9</title>
<g id="a_edge8_Node000002_Node000009"><a xlink:title=" ">
<path fill="none" stroke="#63b8ff" d="M133.2,-984.15C132.19,-1060.5 129.18,-1519.76 202.25,-1633.38 202.62,-1633.95 203.01,-1634.51 203.43,-1635.06"/>
<polygon fill="#63b8ff" stroke="#63b8ff" points="200.78,-1637.38 210.46,-1641.68 205.58,-1632.28 200.78,-1637.38"/>
</a>
</g>
</g>
<!-- Node10 -->
<g id="Node000010" class="node">
<title>Node10</title>
<g id="a_Node000010"><a xlink:href="app_8c.html#af712434e74bcea443fe8caa9b022d6f1" target="_top" xlink:title=" ">
<polygon fill="white" stroke="#666666" points="269.25,-1624.75 205.25,-1624.75 205.25,-1604 269.25,-1604 269.25,-1624.75"/>
<text text-anchor="middle" x="237.25" y="-1611.25" font-family="Helvetica,sans-Serif" font-size="10.00">w2c_0_25</text>
</a>
</g>
</g>
<!-- Node2&#45;&gt;Node10 -->
<g id="edge9_Node000002_Node000010" class="edge">
<title>Node2&#45;&gt;Node10</title>
<g id="a_edge9_Node000002_Node000010"><a xlink:title=" ">
<path fill="none" stroke="#63b8ff" d="M133.28,-983.99C132.85,-1057.21 133.25,-1487.85 202.25,-1594.38 202.62,-1594.95 203.02,-1595.51 203.43,-1596.06"/>
<polygon fill="#63b8ff" stroke="#63b8ff" points="200.79,-1598.38 210.48,-1602.67 205.58,-1593.28 200.79,-1598.38"/>
</a>
</g>
</g>
<!-- Node11 -->
<g id="Node000011" class="node">
<title>Node11</title>
<g id="a_Node000011"><a xlink:href="app_8c.html#af71864d863b0ac83d66ab8ac6e38bc85" target="_top" xlink:title=" ">
<polygon fill="white" stroke="#666666" points="269.25,-1585.75 205.25,-1585.75 205.25,-1565 269.25,-1565 269.25,-1585.75"/>
<text text-anchor="middle" x="237.25" y="-1572.25" font-family="Helvetica,sans-Serif" font-size="10.00">w2c_0_37</text>
</a>
</g>
</g>
<!-- Node2&#45;&gt;Node11 -->
<g id="edge10_Node000002_Node000011" class="edge">
<title>Node2&#45;&gt;Node11</title>
<g id="a_edge10_Node000002_Node000011"><a xlink:title=" ">
<path fill="none" stroke="#63b8ff" d="M133.37,-984.22C133.55,-1055.42 137.45,-1456.12 202.25,-1555.38 202.62,-1555.95 203.02,-1556.51 203.44,-1557.05"/>
<polygon fill="#63b8ff" stroke="#63b8ff" points="200.81,-1559.38 210.5,-1563.66 205.59,-1554.27 200.81,-1559.38"/>
</a>
</g>
</g>
<!-- Node12 -->
<g id="Node000012" class="node">
<title>Node12</title>
<g id="a_Node000012"><a xlink:href="app_8c.html#a3154d8c5dc2be0be3b61f9964e5058ea" target="_top" xlink:title=" ">
<polygon fill="white" stroke="#666666" points="266.25,-1546.75 208.25,-1546.75 208.25,-1526 266.25,-1526 266.25,-1546.75"/>
<text text-anchor="middle" x="237.25" y="-1533.25" font-family="Helvetica,sans-Serif" font-size="10.00">w2c_0_4</text>
</a>
</g>
</g>
<!-- Node2&#45;&gt;Node12 -->
<g id="edge11_Node000002_Node000012" class="edge">
<title>Node2&#45;&gt;Node12</title>
<g id="a_edge11_Node000002_Node000012"><a xlink:title=" ">
<path fill="none" stroke="#63b8ff" d="M133.47,-983.93C134.28,-1051.56 141.47,-1424.13 202.25,-1516.38 202.63,-1516.95 203.03,-1517.5 203.45,-1518.05"/>
<polygon fill="#63b8ff" stroke="#63b8ff" points="200.82,-1520.39 210.52,-1524.64 205.59,-1515.27 200.82,-1520.39"/>
</a>
</g>
</g>
<!-- Node13 -->
<g id="Node000013" class="node">
<title>Node13</title>
<g id="a_Node000013"><a xlink:href="app_8c.html#a4f89434e73555473a637aa72f93ac987" target="_top" xlink:title=" ">
<polygon fill="white" stroke="#666666" points="269.25,-1507.75 205.25,-1507.75 205.25,-1487 269.25,-1487 269.25,-1507.75"/>
<text text-anchor="middle" x="237.25" y="-1494.25" font-family="Helvetica,sans-Serif" font-size="10.00">w2c_0_50</text>
</a>
</g>
</g>
<!-- Node2&#45;&gt;Node13 -->
<g id="edge12_Node000002_Node000013" class="edge">
<title>Node2&#45;&gt;Node13</title>
<g id="a_edge12_Node000002_Node000013"><a xlink:title=" ">
<path fill="none" stroke="#63b8ff" d="M133.59,-984C135.08,-1048.94 145.59,-1392.29 202.25,-1477.38 202.63,-1477.95 203.03,-1478.5 203.45,-1479.04"/>
<polygon fill="#63b8ff" stroke="#63b8ff" points="200.84,-1481.39 210.55,-1485.63 205.6,-1476.26 200.84,-1481.39"/>
</a>
</g>
</g>
<!-- Node14 -->
<g id="Node000014" class="node">
<title>Node14</title>
<g id="a_Node000014"><a xlink:href="app_8c.html#a1ab57dd4620193a705e9df570e74207c" target="_top" xlink:title=" ">
<polygon fill="white" stroke="#666666" points="269.25,-1468.75 205.25,-1468.75 205.25,-1448 269.25,-1448 269.25,-1468.75"/>
<text text-anchor="middle" x="237.25" y="-1455.25" font-family="Helvetica,sans-Serif" font-size="10.00">w2c_0_58</text>
</a>
</g>
</g>
<!-- Node2&#45;&gt;Node14 -->
<g id="edge13_Node000002_Node000014" class="edge">
<title>Node2&#45;&gt;Node14</title>
<g id="a_edge13_Node000002_Node000014"><a xlink:title=" ">
<path fill="none" stroke="#63b8ff" d="M133.72,-983.98C135.94,-1045.86 149.68,-1360.38 202.25,-1438.38 202.63,-1438.94 203.04,-1439.5 203.46,-1440.04"/>
<polygon fill="#63b8ff" stroke="#63b8ff" points="200.86,-1442.4 210.58,-1446.61 205.61,-1437.25 200.86,-1442.4"/>
</a>
</g>
</g>
<!-- Node15 -->
<g id="Node000015" class="node">
<title>Node15</title>
<g id="a_Node000015"><a xlink:href="app_8c.html#adaae042faee84b162cf863e513537297" target="_top" xlink:title=" ">
<polygon fill="white" stroke="#666666" points="269.25,-1429.75 205.25,-1429.75 205.25,-1409 269.25,-1409 269.25,-1429.75"/>
<text text-anchor="middle" x="237.25" y="-1416.25" font-family="Helvetica,sans-Serif" font-size="10.00">w2c_0_72</text>
</a>
</g>
</g>
<!-- Node2&#45;&gt;Node15 -->
<g id="edge14_Node000002_Node000015" class="edge">
<title>Node2&#45;&gt;Node15</title>
<g id="a_edge14_Node000002_Node000015"><a xlink:title=" ">
<path fill="none" stroke="#63b8ff" d="M133.9,-984.23C136.92,-1043.56 153.84,-1328.56 202.25,-1399.38 202.64,-1399.94 203.04,-1400.49 203.47,-1401.03"/>
<polygon fill="#63b8ff" stroke="#63b8ff" points="200.88,-1403.41 210.62,-1407.58 205.61,-1398.25 200.88,-1403.41"/>
</a>
</g>
</g>
<!-- Node16 -->
<g id="Node000016" class="node">
<title>Node16</title>
<g id="a_Node000016"><a xlink:href="app_8c.html#ae3412eb916e59d0f90145f8fb454c0f2" target="_top" xlink:title=" ">
<polygon fill="white" stroke="#666666" points="269.25,-1390.75 205.25,-1390.75 205.25,-1370 269.25,-1370 269.25,-1390.75"/>
<text text-anchor="middle" x="237.25" y="-1377.25" font-family="Helvetica,sans-Serif" font-size="10.00">w2c_0_86</text>
</a>
</g>
</g>
<!-- Node2&#45;&gt;Node16 -->
<g id="edge15_Node000002_Node000016" class="edge">
<title>Node2&#45;&gt;Node16</title>
<g id="a_edge15_Node000002_Node000016"><a xlink:title=" ">
<path fill="none" stroke="#63b8ff" d="M134.07,-983.96C137.9,-1039.43 157.84,-1296.5 202.25,-1360.38 202.64,-1360.94 203.05,-1361.49 203.48,-1362.02"/>
<polygon fill="#63b8ff" stroke="#63b8ff" points="200.91,-1364.41 210.67,-1368.55 205.62,-1359.24 200.91,-1364.41"/>
</a>
</g>
</g>
<!-- Node17 -->
<g id="Node000017" class="node">
<title>Node17</title>
<g id="a_Node000017"><a xlink:href="app_8c.html#a1e1bea02f0965ece1118d729bd15dbc2" target="_top" xlink:title=" ">
<polygon fill="#fff0f0" stroke="red" points="271.12,-1351.75 203.38,-1351.75 203.38,-1331 271.12,-1331 271.12,-1351.75"/>
<text text-anchor="middle" x="237.25" y="-1338.25" font-family="Helvetica,sans-Serif" font-size="10.00">w2c__f196</text>
</a>
</g>
</g>
<!-- Node2&#45;&gt;Node17 -->
<g id="edge16_Node000002_Node000017" class="edge">
<title>Node2&#45;&gt;Node17</title>
<g id="a_edge16_Node000002_Node000017"><a xlink:title=" ">
<path fill="none" stroke="#63b8ff" d="M134.3,-983.91C139.03,-1035.85 161.88,-1264.5 202.25,-1321.38 202.65,-1321.93 203.06,-1322.48 203.5,-1323.01"/>
<polygon fill="#63b8ff" stroke="#63b8ff" points="200.95,-1325.42 210.72,-1329.52 205.63,-1320.22 200.95,-1325.42"/>
</a>
</g>
</g>
<!-- Node20 -->
<g id="Node000020" class="node">
<title>Node20</title>
<g id="a_Node000020"><a xlink:href="app_8c.html#a9f7c6b96be6e0c0613ec652af07545e6" target="_top" xlink:title=" ">
<polygon fill="#fff0f0" stroke="red" points="271.12,-1312.75 203.38,-1312.75 203.38,-1292 271.12,-1292 271.12,-1312.75"/>
<text text-anchor="middle" x="237.25" y="-1299.25" font-family="Helvetica,sans-Serif" font-size="10.00">w2c__f212</text>
</a>
</g>
</g>
<!-- Node2&#45;&gt;Node20 -->
<g id="edge17_Node000002_Node000020" class="edge">
<title>Node2&#45;&gt;Node20</title>
<g id="a_edge17_Node000002_Node000020"><a xlink:title=" ">
<path fill="none" stroke="#63b8ff" d="M132.86,-984.19C131.37,-1026.68 131.09,-1184.61 202.25,-1282.38 202.75,-1283.06 203.28,-1283.73 203.84,-1284.37"/>
<polygon fill="#63b8ff" stroke="#63b8ff" points="201.28,-1286.79 211.12,-1290.72 205.88,-1281.51 201.28,-1286.79"/>
</a>
</g>
</g>
<!-- Node35 -->
<g id="Node000035" class="node">
<title>Node35</title>
<g id="a_Node000035"><a xlink:href="app_8c.html#ae275fc4639b8584f1e79529b33ad9c4c" target="_top" xlink:title=" ">
<polygon fill="#fff0f0" stroke="red" points="271.12,-1273.75 203.38,-1273.75 203.38,-1253 271.12,-1253 271.12,-1273.75"/>
<text text-anchor="middle" x="237.25" y="-1260.25" font-family="Helvetica,sans-Serif" font-size="10.00">w2c__f213</text>
</a>
</g>
</g>
<!-- Node2&#45;&gt;Node35 -->
<g id="edge18_Node000002_Node000035" class="edge">
<title>Node2&#45;&gt;Node35</title>
<g id="a_edge18_Node000002_Node000035"><a xlink:title=" ">
<path fill="none" stroke="#63b8ff" d="M133.59,-984.09C134.83,-1022.3 143.4,-1154.22 202.25,-1239.38 203.83,-1241.66 205.71,-1243.81 207.75,-1245.8"/>
<polygon fill="#63b8ff" stroke="#63b8ff" points="205.08,-1248.13 215.04,-1251.73 209.5,-1242.7 205.08,-1248.13"/>
</a>
</g>
</g>
<!-- Node37 -->
<g id="Node000037" class="node">
<title>Node37</title>
<g id="a_Node000037"><a xlink:href="app_8c.html#ac33f7fe7abe076e97dc158576d1c5e0e" target="_top" xlink:title=" ">
<polygon fill="#fff0f0" stroke="red" points="376,-1235.75 308.25,-1235.75 308.25,-1215 376,-1215 376,-1235.75"/>
<text text-anchor="middle" x="342.12" y="-1222.25" font-family="Helvetica,sans-Serif" font-size="10.00">w2c__f216</text>
</a>
</g>
</g>
<!-- Node2&#45;&gt;Node37 -->
<g id="edge19_Node000002_Node000037" class="edge">
<title>Node2&#45;&gt;Node37</title>
<g id="a_edge19_Node000002_Node000037"><a xlink:title=" ">
<path fill="none" stroke="#63b8ff" d="M132.99,-984C132.31,-1020.56 135.35,-1142.19 202.25,-1201.38 227.65,-1223.85 266.25,-1229.02 296.32,-1229.04"/>
<polygon fill="#63b8ff" stroke="#63b8ff" points="296.35,-1232.54 306.28,-1228.83 296.21,-1225.54 296.35,-1232.54"/>
</a>
</g>
</g>
<!-- Node24 -->
<g id="Node000024" class="node">
<title>Node24</title>
<g id="a_Node000024"><a xlink:href="app_8c.html#a03fa34d93d32a3ee40dfc2d840730111" target="_top" xlink:title=" ">
<polygon fill="#fff0f0" stroke="red" points="479.75,-714.75 412,-714.75 412,-694 479.75,-694 479.75,-714.75"/>
<text text-anchor="middle" x="445.88" y="-701.25" font-family="Helvetica,sans-Serif" font-size="10.00">w2c__f262</text>
</a>
</g>
</g>
<!-- Node2&#45;&gt;Node24 -->
<g id="edge42_Node000002_Node000024" class="edge">
<title>Node2&#45;&gt;Node24</title>
<g id="a_edge42_Node000002_Node000024"><a xlink:title=" ">
<path fill="none" stroke="#63b8ff" d="M133.26,-983.82C133.54,-1017.55 139.52,-1124.01 202.25,-1168.38 227.65,-1186.34 244.42,-1182.27 272.25,-1168.38 440.13,-1084.55 447.22,-806.24 445.67,-726.12"/>
<polygon fill="#63b8ff" stroke="#63b8ff" points="449.18,-726.44 445.41,-716.54 442.18,-726.63 449.18,-726.44"/>
</a>
</g>
</g>
<!-- Node43 -->
<g id="Node000043" class="node">
<title>Node43</title>
<g id="a_Node000043"><a xlink:href="app_8c.html#a17286e0a4fa98521763a1de2e2c9ddac" target="_top" xlink:title=" ">
<polygon fill="#fff0f0" stroke="red" points="376,-714.75 308.25,-714.75 308.25,-694 376,-694 376,-714.75"/>
<text text-anchor="middle" x="342.12" y="-701.25" font-family="Helvetica,sans-Serif" font-size="10.00">w2c__f223</text>
</a>
</g>
</g>
<!-- Node2&#45;&gt;Node43 -->
<g id="edge21_Node000002_Node000043" class="edge">
<title>Node2&#45;&gt;Node43</title>
<g id="a_edge21_Node000002_Node000043"><a xlink:title=" ">
<path fill="none" stroke="#63b8ff" d="M133.22,-962.72C133.31,-926.55 138.62,-807.27 202.25,-744.38 227.17,-719.74 266.23,-710.08 296.59,-706.39"/>
<polygon fill="#63b8ff" stroke="#63b8ff" points="296.65,-709.9 306.24,-705.4 295.94,-702.94 296.65,-709.9"/>
</a>
</g>
</g>
<!-- Node49 -->
<g id="Node000049" class="node">
<title>Node49</title>
<g id="a_Node000049"><a xlink:href="app_8c.html#a16b87571119c211bed30fa7b8b381ed7" target="_top" xlink:title=" ">
<polygon fill="#fff0f0" stroke="red" points="271.12,-1120.75 203.38,-1120.75 203.38,-1100 271.12,-1100 271.12,-1120.75"/>
<text text-anchor="middle" x="237.25" y="-1107.25" font-family="Helvetica,sans-Serif" font-size="10.00">w2c__f224</text>
</a>
</g>
</g>
<!-- Node2&#45;&gt;Node49 -->
<g id="edge23_Node000002_Node000049" class="edge">
<title>Node2&#45;&gt;Node49</title>
<g id="a_edge23_Node000002_Node000049"><a xlink:title=" ">
<path fill="none" stroke="#63b8ff" d="M137.43,-983.92C146.33,-1005.96 169.41,-1057.55 202.25,-1090.38 203.12,-1091.25 204.04,-1092.09 204.99,-1092.92"/>
<polygon fill="#63b8ff" stroke="#63b8ff" points="202.84,-1095.68 212.99,-1098.74 206.97,-1090.03 202.84,-1095.68"/>
</a>
</g>
</g>
<!-- Node51 -->
<g id="Node000051" class="node">
<title>Node51</title>
<g id="a_Node000051"><a xlink:href="app_8c.html#aab258c808e8a91498793b4b066b32b06" target="_top" xlink:title=" ">
<polygon fill="#fff0f0" stroke="red" points="271.12,-1081.75 203.38,-1081.75 203.38,-1061 271.12,-1061 271.12,-1081.75"/>
<text text-anchor="middle" x="237.25" y="-1068.25" font-family="Helvetica,sans-Serif" font-size="10.00">w2c__f229</text>
</a>
</g>
</g>
<!-- Node2&#45;&gt;Node51 -->
<g id="edge24_Node000002_Node000051" class="edge">
<title>Node2&#45;&gt;Node51</title>
<g id="a_edge24_Node000002_Node000051"><a xlink:title=" ">
<path fill="none" stroke="#63b8ff" d="M141.15,-984.18C153.04,-1000.19 177.02,-1030.57 202.25,-1051.38 203.5,-1052.41 204.82,-1053.42 206.17,-1054.41"/>
<polygon fill="#63b8ff" stroke="#63b8ff" points="203.88,-1057.1 214.15,-1059.69 207.74,-1051.26 203.88,-1057.1"/>
</a>
</g>
</g>
<!-- Node53 -->
<g id="Node000053" class="node">
<title>Node53</title>
<g id="a_Node000053"><a xlink:href="app_8c.html#a11c26bfac0c650600a96747cd8abc4e7" target="_top" xlink:title=" ">
<polygon fill="#fff0f0" stroke="red" points="271.12,-1042.75 203.38,-1042.75 203.38,-1022 271.12,-1022 271.12,-1042.75"/>
<text text-anchor="middle" x="237.25" y="-1029.25" font-family="Helvetica,sans-Serif" font-size="10.00">w2c__f230</text>
</a>
</g>
</g>
<!-- Node2&#45;&gt;Node53 -->
<g id="edge25_Node000002_Node000053" class="edge">
<title>Node2&#45;&gt;Node53</title>
<g id="a_edge25_Node000002_Node000053"><a xlink:title=" ">
<path fill="none" stroke="#63b8ff" d="M152.24,-984.2C167.76,-993.1 189.99,-1005.85 207.69,-1016"/>
<polygon fill="#63b8ff" stroke="#63b8ff" points="205.77,-1018.93 216.19,-1020.87 209.25,-1012.86 205.77,-1018.93"/>
</a>
</g>
</g>
<!-- Node55 -->
<g id="Node000055" class="node">
<title>Node55</title>
<g id="a_Node000055"><a xlink:href="app_8c.html#a804534de2607e24f990723bc046d16ab" target="_top" xlink:title=" ">
<polygon fill="#fff0f0" stroke="red" points="271.12,-1003.75 203.38,-1003.75 203.38,-983 271.12,-983 271.12,-1003.75"/>
<text text-anchor="middle" x="237.25" y="-990.25" font-family="Helvetica,sans-Serif" font-size="10.00">w2c__f232</text>
</a>
</g>
</g>
<!-- Node2&#45;&gt;Node55 -->
<g id="edge26_Node000002_Node000055" class="edge">
<title>Node2&#45;&gt;Node55</title>
<g id="a_edge26_Node000002_Node000055"><a xlink:title=" ">
<path fill="none" stroke="#63b8ff" d="M166.49,-979.81C174.66,-981.4 183.54,-983.13 192.14,-984.8"/>
<polygon fill="#63b8ff" stroke="#63b8ff" points="191.23,-988.19 201.71,-986.66 192.56,-981.32 191.23,-988.19"/>
</a>
</g>
</g>
<!-- Node58 -->
<g id="Node000058" class="node">
<title>Node58</title>
<g id="a_Node000058"><a xlink:href="app_8c.html#a4df29a1001189dbe0f42dff852d343fe" target="_top" xlink:title=" ">
<polygon fill="#fff0f0" stroke="red" points="271.12,-964.75 203.38,-964.75 203.38,-944 271.12,-944 271.12,-964.75"/>
<text text-anchor="middle" x="237.25" y="-951.25" font-family="Helvetica,sans-Serif" font-size="10.00">w2c__f234</text>
</a>
</g>
</g>
<!-- Node2&#45;&gt;Node58 -->
<g id="edge27_Node000002_Node000058" class="edge">
<title>Node2&#45;&gt;Node58</title>
<g id="a_edge27_Node000002_Node000058"><a xlink:title=" ">
<path fill="none" stroke="#63b8ff" d="M166.49,-967.26C174.66,-965.75 183.54,-964.11 192.14,-962.52"/>
<polygon fill="#63b8ff" stroke="#63b8ff" points="192.51,-966.01 201.71,-960.75 191.24,-959.13 192.51,-966.01"/>
</a>
</g>
</g>
<!-- Node59 -->
<g id="Node000059" class="node">
<title>Node59</title>
<g id="a_Node000059"><a xlink:href="app_8c.html#a177b896bb3ca11b154be35fca033e047" target="_top" xlink:title=" ">
<polygon fill="#fff0f0" stroke="red" points="271.12,-907.75 203.38,-907.75 203.38,-887 271.12,-887 271.12,-907.75"/>
<text text-anchor="middle" x="237.25" y="-894.25" font-family="Helvetica,sans-Serif" font-size="10.00">w2c__f235</text>
</a>
</g>
</g>
<!-- Node2&#45;&gt;Node59 -->
<g id="edge28_Node000002_Node000059" class="edge">
<title>Node2&#45;&gt;Node59</title>
<g id="a_edge28_Node000002_Node000059"><a xlink:title=" ">
<path fill="none" stroke="#63b8ff" d="M147.68,-962.81C164.48,-950.4 192.58,-929.64 212.63,-914.83"/>
<polygon fill="#63b8ff" stroke="#63b8ff" points="214.55,-917.75 220.52,-909 210.4,-912.12 214.55,-917.75"/>
</a>
</g>
</g>
<!-- Node61 -->
<g id="Node000061" class="node">
<title>Node61</title>
<g id="a_Node000061"><a xlink:href="app_8c.html#ae00de9e25147267f65732da33b72c30b" target="_top" xlink:title=" ">
<polygon fill="#fff0f0" stroke="red" points="271.12,-868.75 203.38,-868.75 203.38,-848 271.12,-848 271.12,-868.75"/>
<text text-anchor="middle" x="237.25" y="-855.25" font-family="Helvetica,sans-Serif" font-size="10.00">w2c__f236</text>
</a>
</g>
</g>
<!-- Node2&#45;&gt;Node61 -->
<g id="edge30_Node000002_Node000061" class="edge">
<title>Node2&#45;&gt;Node61</title>
<g id="a_edge30_Node000002_Node000061"><a xlink:title=" ">
<path fill="none" stroke="#63b8ff" d="M139.2,-962.58C149.79,-943.71 173.76,-904.27 202.25,-878.38 203.3,-877.42 204.41,-876.48 205.56,-875.57"/>
<polygon fill="#63b8ff" stroke="#63b8ff" points="207.35,-878.59 213.57,-870.02 203.36,-872.84 207.35,-878.59"/>
</a>
</g>
</g>
<!-- Node67 -->
<g id="Node000067" class="node">
<title>Node67</title>
<g id="a_Node000067"><a xlink:href="app_8c.html#ac336790a930c8ddcde0c8065f3c575c5" target="_top" xlink:title=" ">
<polygon fill="#fff0f0" stroke="red" points="271.12,-829.75 203.38,-829.75 203.38,-809 271.12,-809 271.12,-829.75"/>
<text text-anchor="middle" x="237.25" y="-816.25" font-family="Helvetica,sans-Serif" font-size="10.00">w2c__f239</text>
</a>
</g>
</g>
<!-- Node2&#45;&gt;Node67 -->
<g id="edge31_Node000002_Node000067" class="edge">
<title>Node2&#45;&gt;Node67</title>
<g id="a_edge31_Node000002_Node000067"><a xlink:title=" ">
<path fill="none" stroke="#63b8ff" d="M136.55,-962.77C144.28,-938.4 166.15,-877.59 202.25,-839.38 203.07,-838.5 203.94,-837.66 204.85,-836.84"/>
<polygon fill="#63b8ff" stroke="#63b8ff" points="206.6,-839.9 212.49,-831.1 202.39,-834.31 206.6,-839.9"/>
</a>
</g>
</g>
<!-- Node68 -->
<g id="Node000068" class="node">
<title>Node68</title>
<g id="a_Node000068"><a xlink:href="app_8c.html#a4a01f6d7ca9ac2dc9fd10ff8de86d208" target="_top" xlink:title=" ">
<polygon fill="#fff0f0" stroke="red" points="271.12,-790.75 203.38,-790.75 203.38,-770 271.12,-770 271.12,-790.75"/>
<text text-anchor="middle" x="237.25" y="-777.25" font-family="Helvetica,sans-Serif" font-size="10.00">w2c__f242</text>
</a>
</g>
</g>
<!-- Node2&#45;&gt;Node68 -->
<g id="edge32_Node000002_Node000068" class="edge">
<title>Node2&#45;&gt;Node68</title>
<g id="a_edge32_Node000002_Node000068"><a xlink:title=" ">
<path fill="none" stroke="#63b8ff" d="M135.11,-962.79C140.37,-933.72 158.47,-851.41 202.25,-800.38 202.91,-799.6 203.61,-798.85 204.35,-798.12"/>
<polygon fill="#63b8ff" stroke="#63b8ff" points="206.25,-801.08 211.89,-792.12 201.89,-795.6 206.25,-801.08"/>
</a>
</g>
</g>
<!-- Node69 -->
<g id="Node000069" class="node">
<title>Node69</title>
<g id="a_Node000069"><a xlink:href="app_8c.html#aa3051a0f0feb078aee84a108594b3b11" target="_top" xlink:title=" ">
<polygon fill="#fff0f0" stroke="red" points="271.12,-424.75 203.38,-424.75 203.38,-404 271.12,-404 271.12,-424.75"/>
<text text-anchor="middle" x="237.25" y="-411.25" font-family="Helvetica,sans-Serif" font-size="10.00">w2c__f245</text>
</a>
</g>
</g>
<!-- Node2&#45;&gt;Node69 -->
<g id="edge33_Node000002_Node000069" class="edge">
<title>Node2&#45;&gt;Node69</title>
<g id="a_edge33_Node000002_Node000069"><a xlink:title=" ">
<path fill="none" stroke="#63b8ff" d="M133.48,-962.9C134.35,-895.77 141.87,-525.92 202.25,-434.38 202.63,-433.8 203.03,-433.25 203.45,-432.7"/>
<polygon fill="#63b8ff" stroke="#63b8ff" points="205.59,-435.48 210.53,-426.11 200.82,-430.36 205.59,-435.48"/>
</a>
</g>
</g>
<!-- Node73 -->
<g id="Node000073" class="node">
<title>Node73</title>
<g id="a_Node000073"><a xlink:href="app_8c.html#aa0030424238c18279b4e86b3772151fa" target="_top" xlink:title=" ">
<polygon fill="#fff0f0" stroke="red" points="376,-424.75 308.25,-424.75 308.25,-404 376,-404 376,-424.75"/>
<text text-anchor="middle" x="342.12" y="-411.25" font-family="Helvetica,sans-Serif" font-size="10.00">w2c__f305</text>
</a>
</g>
</g>
<!-- Node2&#45;&gt;Node73 -->
<g id="edge54_Node000002_Node000073" class="edge">
<title>Node2&#45;&gt;Node73</title>
<g id="a_edge54_Node000002_Node000073"><a xlink:title=" ">
<path fill="none" stroke="#63b8ff" d="M133.56,-962.73C135.15,-877.62 147.76,-309.86 202.25,-260.38 225.28,-239.46 246.14,-243.45 272.25,-260.38 317.78,-289.89 333.48,-357.33 338.68,-392.35"/>
<polygon fill="#63b8ff" stroke="#63b8ff" points="335.2,-392.69 339.96,-402.16 342.14,-391.79 335.2,-392.69"/>
</a>
</g>
</g>
<!-- Node78 -->
<g id="Node000078" class="node">
<title>Node78</title>
<g id="a_Node000078"><a xlink:href="app_8c.html#ae80c7c9c7a4e31e707f789ad3b0ee6d2" target="_top" xlink:title=" ">
<polygon fill="white" stroke="#666666" points="271.12,-658.75 203.38,-658.75 203.38,-638 271.12,-638 271.12,-658.75"/>
<text text-anchor="middle" x="237.25" y="-645.25" font-family="Helvetica,sans-Serif" font-size="10.00">w2c__f248</text>
</a>
</g>
</g>
<!-- Node2&#45;&gt;Node78 -->
<g id="edge37_Node000002_Node000078" class="edge">
<title>Node2&#45;&gt;Node78</title>
<g id="a_edge37_Node000002_Node000078"><a xlink:title=" ">
<path fill="none" stroke="#63b8ff" d="M134.29,-962.52C137.93,-923.68 153.57,-788.72 202.25,-690.38 206.26,-682.28 212.06,-674.34 217.73,-667.57"/>
<polygon fill="#63b8ff" stroke="#63b8ff" points="220.17,-670.1 224.21,-660.31 214.95,-665.44 220.17,-670.1"/>
</a>
</g>
</g>
<!-- Node79 -->
<g id="Node000079" class="node">
<title>Node79</title>
<g id="a_Node000079"><a xlink:href="app_8c.html#a5523c6729517c9e468c7c65397ed796a" target="_top" xlink:title=" ">
<polygon fill="white" stroke="#666666" points="271.12,-619.75 203.38,-619.75 203.38,-599 271.12,-599 271.12,-619.75"/>
<text text-anchor="middle" x="237.25" y="-606.25" font-family="Helvetica,sans-Serif" font-size="10.00">w2c__f249</text>
</a>
</g>
</g>
<!-- Node2&#45;&gt;Node79 -->
<g id="edge39_Node000002_Node000079" class="edge">
<title>Node2&#45;&gt;Node79</title>
<g id="a_edge39_Node000002_Node000079"><a xlink:title=" ">
<path fill="none" stroke="#63b8ff" d="M134.35,-962.62C139.22,-910.62 162.35,-685.46 202.25,-629.38 202.65,-628.82 203.06,-628.27 203.5,-627.74"/>
<polygon fill="#63b8ff" stroke="#63b8ff" points="205.64,-630.53 210.73,-621.24 200.95,-625.33 205.64,-630.53"/>
</a>
</g>
</g>
<!-- Node80 -->
<g id="Node000080" class="node">
<title>Node80</title>
<g id="a_Node000080"><a xlink:href="app_8c.html#a954a47987372a607b2b4b06641dce13f" target="_top" xlink:title=" ">
<polygon fill="white" stroke="#666666" points="271.12,-580.75 203.38,-580.75 203.38,-560 271.12,-560 271.12,-580.75"/>
<text text-anchor="middle" x="237.25" y="-567.25" font-family="Helvetica,sans-Serif" font-size="10.00">w2c__f250</text>
</a>
</g>
</g>
<!-- Node2&#45;&gt;Node80 -->
<g id="edge40_Node000002_Node000080" class="edge">
<title>Node2&#45;&gt;Node80</title>
<g id="a_edge40_Node000002_Node000080"><a xlink:title=" ">
<path fill="none" stroke="#63b8ff" d="M134.11,-962.54C138.08,-906.88 158.32,-653.43 202.25,-590.38 202.64,-589.81 203.05,-589.26 203.49,-588.73"/>
<polygon fill="#63b8ff" stroke="#63b8ff" points="205.62,-591.52 210.67,-582.2 200.92,-586.34 205.62,-591.52"/>
</a>
</g>
</g>
<!-- Node81 -->
<g id="Node000081" class="node">
<title>Node81</title>
<g id="a_Node000081"><a xlink:href="app_8c.html#a1869b4bbb81c66a06eb33e0c8cb5023f" target="_top" xlink:title=" ">
<polygon fill="#fff0f0" stroke="red" points="271.12,-541.75 203.38,-541.75 203.38,-521 271.12,-521 271.12,-541.75"/>
<text text-anchor="middle" x="237.25" y="-528.25" font-family="Helvetica,sans-Serif" font-size="10.00">w2c__f252</text>
</a>
</g>
</g>
<!-- Node2&#45;&gt;Node81 -->
<g id="edge41_Node000002_Node000081" class="edge">
<title>Node2&#45;&gt;Node81</title>
<g id="a_edge41_Node000002_Node000081"><a xlink:title=" ">
<path fill="none" stroke="#63b8ff" d="M133.91,-962.62C137.01,-903.85 154.23,-621.51 202.25,-551.38 202.64,-550.81 203.05,-550.26 203.47,-549.72"/>
<polygon fill="#63b8ff" stroke="#63b8ff" points="205.62,-552.51 210.63,-543.17 200.89,-547.34 205.62,-552.51"/>
</a>
</g>
</g>
<!-- Node82 -->
<g id="Node000082" class="node">
<title>Node82</title>
<g id="a_Node000082"><a xlink:href="app_8c.html#aad516c1f168c52bf72e2d7c2ea98281b" target="_top" xlink:title=" ">
<polygon fill="#fff0f0" stroke="red" points="271.12,-502.75 203.38,-502.75 203.38,-482 271.12,-482 271.12,-502.75"/>
<text text-anchor="middle" x="237.25" y="-489.25" font-family="Helvetica,sans-Serif" font-size="10.00">w2c__f264</text>
</a>
</g>
</g>
<!-- Node2&#45;&gt;Node82 -->
<g id="edge43_Node000002_Node000082" class="edge">
<title>Node2&#45;&gt;Node82</title>
<g id="a_edge43_Node000002_Node000082"><a xlink:title=" ">
<path fill="none" stroke="#63b8ff" d="M133.74,-962.87C136.02,-901.51 150.08,-589.68 202.25,-512.38 202.63,-511.81 203.04,-511.25 203.46,-510.71"/>
<polygon fill="#63b8ff" stroke="#63b8ff" points="205.61,-513.5 210.59,-504.15 200.86,-508.35 205.61,-513.5"/>
</a>
</g>
</g>
<!-- Node46 -->
<g id="Node000046" class="node">
<title>Node46</title>
<g id="a_Node000046"><a xlink:href="app_8c.html#a5d082dff6c4c25de25da9f4dc538c097" target="_top" xlink:title=" ">
<polygon fill="white" stroke="#666666" points="271.12,-463.75 203.38,-463.75 203.38,-443 271.12,-443 271.12,-463.75"/>
<text text-anchor="middle" x="237.25" y="-450.25" font-family="Helvetica,sans-Serif" font-size="10.00">w2c__f265</text>
</a>
</g>
</g>
<!-- Node2&#45;&gt;Node46 -->
<g id="edge44_Node000002_Node000046" class="edge">
<title>Node2&#45;&gt;Node46</title>
<g id="a_edge44_Node000002_Node000046"><a xlink:title=" ">
<path fill="none" stroke="#63b8ff" d="M133.6,-962.83C135.16,-898.4 145.99,-557.77 202.25,-473.38 202.63,-472.81 203.03,-472.25 203.45,-471.71"/>
<polygon fill="#63b8ff" stroke="#63b8ff" points="205.6,-474.49 210.56,-465.12 200.84,-469.36 205.6,-474.49"/>
</a>
</g>
</g>
<!-- Node84 -->
<g id="Node000084" class="node">
<title>Node84</title>
<g id="a_Node000084"><a xlink:href="app_8c.html#add194bffb67f2f62eef302d08ce41b47" target="_top" xlink:title=" ">
<polygon fill="#fff0f0" stroke="red" points="376,-937.75 308.25,-937.75 308.25,-917 376,-917 376,-937.75"/>
<text text-anchor="middle" x="342.12" y="-924.25" font-family="Helvetica,sans-Serif" font-size="10.00">w2c__f266</text>
</a>
</g>
</g>
<!-- Node2&#45;&gt;Node84 -->
<g id="edge45_Node000002_Node000084" class="edge">
<title>Node2&#45;&gt;Node84</title>
<g id="a_edge45_Node000002_Node000084"><a xlink:title=" ">
<path fill="none" stroke="#63b8ff" d="M132.93,-962.57C132.11,-926.57 134.94,-810.28 202.25,-761.38 227.42,-743.09 246.38,-744.1 272.25,-761.38 321.21,-794.07 335.41,-868.74 339.5,-905.75"/>
<polygon fill="#63b8ff" stroke="#63b8ff" points="335.97,-905.61 340.39,-915.24 342.94,-904.96 335.97,-905.61"/>
</a>
</g>
</g>
<!-- Node86 -->
<g id="Node000086" class="node">
<title>Node86</title>
<g id="a_Node000086"><a xlink:href="app_8c.html#a9856384d540064b02407c53ce1a8be56" target="_top" xlink:title=" ">
<polygon fill="#fff0f0" stroke="red" points="271.12,-367.75 203.38,-367.75 203.38,-347 271.12,-347 271.12,-367.75"/>
<text text-anchor="middle" x="237.25" y="-354.25" font-family="Helvetica,sans-Serif" font-size="10.00">w2c__f275</text>
</a>
</g>
</g>
<!-- Node2&#45;&gt;Node86 -->
<g id="edge46_Node000002_Node000086" class="edge">
<title>Node2&#45;&gt;Node86</title>
<g id="a_edge46_Node000002_Node000086"><a xlink:title=" ">
<path fill="none" stroke="#63b8ff" d="M133.77,-962.81C136.49,-893.46 153.79,-502.67 202.25,-395.38 205.41,-388.39 210.32,-381.78 215.44,-376.09"/>
<polygon fill="#63b8ff" stroke="#63b8ff" points="217.84,-378.64 222.37,-369.07 212.85,-373.73 217.84,-378.64"/>
</a>
</g>
</g>
<!-- Node94 -->
<g id="Node000094" class="node">
<title>Node94</title>
<g id="a_Node000094"><a xlink:href="app_8c.html#a689596d504b22560679f02fa17647ac0" target="_top" xlink:title=" ">
<polygon fill="#fff0f0" stroke="red" points="271.12,-328.75 203.38,-328.75 203.38,-308 271.12,-308 271.12,-328.75"/>
<text text-anchor="middle" x="237.25" y="-315.25" font-family="Helvetica,sans-Serif" font-size="10.00">w2c__f276</text>
</a>
</g>
</g>
<!-- Node2&#45;&gt;Node94 -->
<g id="edge48_Node000002_Node000094" class="edge">
<title>Node2&#45;&gt;Node94</title>
<g id="a_edge48_Node000002_Node000094"><a xlink:title=" ">
<path fill="none" stroke="#63b8ff" d="M133.25,-962.53C132.6,-887.65 131.85,-447.35 202.25,-338.38 202.62,-337.8 203.02,-337.24 203.43,-336.69"/>
<polygon fill="#63b8ff" stroke="#63b8ff" points="205.58,-339.47 210.47,-330.07 200.79,-334.37 205.58,-339.47"/>
</a>
</g>
</g>
<!-- Node102 -->
<g id="Node000102" class="node">
<title>Node102</title>
<g id="a_Node000102"><a xlink:href="app_8c.html#a198d9a8fce939a5bd8295c13954258f2" target="_top" xlink:title=" ">
<polygon fill="#fff0f0" stroke="red" points="271.12,-289.75 203.38,-289.75 203.38,-269 271.12,-269 271.12,-289.75"/>
<text text-anchor="middle" x="237.25" y="-276.25" font-family="Helvetica,sans-Serif" font-size="10.00">w2c__f280</text>
</a>
</g>
</g>
<!-- Node2&#45;&gt;Node102 -->
<g id="edge49_Node000002_Node000102" class="edge">
<title>Node2&#45;&gt;Node102</title>
<g id="a_edge49_Node000002_Node000102"><a xlink:title=" ">
<path fill="none" stroke="#63b8ff" d="M133.18,-962.86C131.97,-886.42 127.62,-415.7 202.25,-299.38 202.62,-298.8 203.01,-298.24 203.43,-297.69"/>
<polygon fill="#63b8ff" stroke="#63b8ff" points="205.58,-300.47 210.46,-291.06 200.78,-295.38 205.58,-300.47"/>
</a>
</g>
</g>
<!-- Node103 -->
<g id="Node000103" class="node">
<title>Node103</title>
<g id="a_Node000103"><a xlink:href="app_8c.html#a2f5b5a93b5e6c79301b9b95b41c561bd" target="_top" xlink:title=" ">
<polygon fill="#fff0f0" stroke="red" points="376,-241.75 308.25,-241.75 308.25,-221 376,-221 376,-241.75"/>
<text text-anchor="middle" x="342.12" y="-228.25" font-family="Helvetica,sans-Serif" font-size="10.00">w2c__f282</text>
</a>
</g>
</g>
<!-- Node2&#45;&gt;Node103 -->
<g id="edge50_Node000002_Node000103" class="edge">
<title>Node2&#45;&gt;Node103</title>
<g id="a_edge50_Node000002_Node000103"><a xlink:title=" ">
<path fill="none" stroke="#63b8ff" d="M133.37,-962.63C133.43,-867.24 136.12,-167.46 202.25,-106.38 225.1,-85.27 245.46,-90.55 272.25,-106.38 310.14,-128.76 328.61,-180.26 336.37,-209.69"/>
<polygon fill="#63b8ff" stroke="#63b8ff" points="332.95,-210.44 338.7,-219.34 339.75,-208.8 332.95,-210.44"/>
</a>
</g>
</g>
<!-- Node105 -->
<g id="Node000105" class="node">
<title>Node105</title>
<g id="a_Node000105"><a xlink:href="app_8c.html#a144a1dd48aaed5edff00fe4fe3f220e6" target="_top" xlink:title=" ">
<polygon fill="#fff0f0" stroke="red" points="271.12,-213.75 203.38,-213.75 203.38,-193 271.12,-193 271.12,-213.75"/>
<text text-anchor="middle" x="237.25" y="-200.25" font-family="Helvetica,sans-Serif" font-size="10.00">w2c__f289</text>
</a>
</g>
</g>
<!-- Node2&#45;&gt;Node105 -->
<g id="edge52_Node000002_Node000105" class="edge">
<title>Node2&#45;&gt;Node105</title>
<g id="a_edge52_Node000002_Node000105"><a xlink:title=" ">
<path fill="none" stroke="#63b8ff" d="M133.16,-962.6C131.7,-881.02 125.53,-360.11 202.25,-227.38 203.48,-225.24 204.99,-223.25 206.68,-221.4"/>
<polygon fill="#63b8ff" stroke="#63b8ff" points="208.56,-224.4 213.8,-215.2 203.96,-219.13 208.56,-224.4"/>
</a>
</g>
</g>
<!-- Node119 -->
<g id="Node000119" class="node">
<title>Node119</title>
<g id="a_Node000119"><a xlink:href="app_8c.html#ab42cfc1c12aba4f539095880179cf3b0" target="_top" xlink:title=" ">
<polygon fill="#fff0f0" stroke="red" points="271.12,-174.75 203.38,-174.75 203.38,-154 271.12,-154 271.12,-174.75"/>
<text text-anchor="middle" x="237.25" y="-161.25" font-family="Helvetica,sans-Serif" font-size="10.00">w2c__f291</text>
</a>
</g>
</g>
<!-- Node2&#45;&gt;Node119 -->
<g id="edge53_Node000002_Node000119" class="edge">
<title>Node2&#45;&gt;Node119</title>
<g id="a_edge53_Node000002_Node000119"><a xlink:title=" ">
<path fill="none" stroke="#63b8ff" d="M133.72,-962.69C136.67,-873.44 158.67,-253.41 202.25,-184.38 202.53,-183.93 202.83,-183.49 203.14,-183.05"/>
<polygon fill="#63b8ff" stroke="#63b8ff" points="205.36,-185.78 210.09,-176.29 200.48,-180.76 205.36,-185.78"/>
</a>
</g>
</g>
<!-- Node122 -->
<g id="Node000122" class="node">
<title>Node122</title>
<g id="a_Node000122"><a xlink:href="app_8c.html#a43dad7cd35d8d3e89a048d92b5a662e9" target="_top" xlink:title=" ">
<polygon fill="#fff0f0" stroke="red" points="271.12,-135.75 203.38,-135.75 203.38,-115 271.12,-115 271.12,-135.75"/>
<text text-anchor="middle" x="237.25" y="-122.25" font-family="Helvetica,sans-Serif" font-size="10.00">w2c__f307</text>
</a>
</g>
</g>
<!-- Node2&#45;&gt;Node122 -->
<g id="edge55_Node000002_Node000122" class="edge">
<title>Node2&#45;&gt;Node122</title>
<g id="a_edge55_Node000002_Node000122"><a xlink:title=" ">
<path fill="none" stroke="#63b8ff" d="M133.67,-962.75C136.3,-871.25 156.59,-218.04 202.25,-145.38 202.53,-144.93 202.83,-144.49 203.14,-144.05"/>
<polygon fill="#63b8ff" stroke="#63b8ff" points="205.36,-146.77 210.08,-137.29 200.47,-141.76 205.36,-146.77"/>
</a>
</g>
</g>
<!-- Node124 -->
<g id="Node000124" class="node">
<title>Node124</title>
<g id="a_Node000124"><a xlink:href="app_8c.html#a90ec7ae13f3de86954f29a59729097ff" target="_top" xlink:title=" ">
<polygon fill="#fff0f0" stroke="red" points="271.12,-1159.75 203.38,-1159.75 203.38,-1139 271.12,-1139 271.12,-1159.75"/>
<text text-anchor="middle" x="237.25" y="-1146.25" font-family="Helvetica,sans-Serif" font-size="10.00">w2c__f308</text>
</a>
</g>
</g>
<!-- Node2&#45;&gt;Node124 -->
<g id="edge56_Node000002_Node000124" class="edge">
<title>Node2&#45;&gt;Node124</title>
<g id="a_edge56_Node000002_Node000124"><a xlink:title=" ">
<path fill="none" stroke="#63b8ff" d="M135.68,-984.08C142,-1011.28 161.89,-1084.05 202.25,-1129.38 202.95,-1130.16 203.68,-1130.92 204.45,-1131.66"/>
<polygon fill="#63b8ff" stroke="#63b8ff" points="202.29,-1134.42 212.34,-1137.79 206.59,-1128.89 202.29,-1134.42"/>
</a>
</g>
</g>
<!-- Node126 -->
<g id="Node000126" class="node">
<title>Node126</title>
<g id="a_Node000126"><a xlink:href="app_8c.html#ab66cff17beb6fbf6b347e33dc43c5297" target="_top" xlink:title=" ">
<polygon fill="#fff0f0" stroke="red" points="271.12,-59.75 203.38,-59.75 203.38,-39 271.12,-39 271.12,-59.75"/>
<text text-anchor="middle" x="237.25" y="-46.25" font-family="Helvetica,sans-Serif" font-size="10.00">w2c__f320</text>
</a>
</g>
</g>
<!-- Node2&#45;&gt;Node126 -->
<g id="edge59_Node000002_Node000126" class="edge">
<title>Node2&#45;&gt;Node126</title>
<g id="a_edge59_Node000002_Node000126"><a xlink:title=" ">
<path fill="none" stroke="#63b8ff" d="M133.64,-962.77C136.12,-867.13 156.08,-154.72 202.25,-73.38 203.47,-71.23 204.96,-69.23 206.64,-67.38"/>
<polygon fill="#63b8ff" stroke="#63b8ff" points="208.52,-70.38 213.75,-61.17 203.92,-65.11 208.52,-70.38"/>
</a>
</g>
</g>
<!-- Node128 -->
<g id="Node000128" class="node">
<title>Node128</title>
<g id="a_Node000128"><a xlink:href="app_8c.html#a4781ae499fbba2d7100668851ce51ad1" target="_top" xlink:title=" ">
<polygon fill="#fff0f0" stroke="red" points="271.12,-20.75 203.38,-20.75 203.38,0 271.12,0 271.12,-20.75"/>
<text text-anchor="middle" x="237.25" y="-7.25" font-family="Helvetica,sans-Serif" font-size="10.00">w2c__f323</text>
</a>
</g>
</g>
<!-- Node2&#45;&gt;Node128 -->
<g id="edge60_Node000002_Node000128" class="edge">
<title>Node2&#45;&gt;Node128</title>
<g id="a_edge60_Node000002_Node000128"><a xlink:title=" ">
<path fill="none" stroke="#63b8ff" d="M133.56,-962.55C135.34,-863.36 150.48,-113.68 202.25,-30.38 202.53,-29.92 202.82,-29.48 203.13,-29.05"/>
<polygon fill="#63b8ff" stroke="#63b8ff" points="205.36,-31.77 210.05,-22.27 200.46,-26.77 205.36,-31.77"/>
</a>
</g>
</g>
<!-- Node37&#45;&gt;Node24 -->
<g id="edge20_Node000037_Node000024" class="edge">
<title>Node37&#45;&gt;Node24</title>
<g id="a_edge20_Node000037_Node000024"><a xlink:title=" ">
<path fill="none" stroke="#63b8ff" d="M363.24,-1214.58C368.15,-1211.01 372.88,-1206.59 376,-1201.38 425.12,-1119.24 440.66,-811.98 444.08,-726.54"/>
<polygon fill="#63b8ff" stroke="#63b8ff" points="447.57,-726.84 444.45,-716.71 440.57,-726.57 447.57,-726.84"/>
</a>
</g>
</g>
<!-- Node43&#45;&gt;Node24 -->
<g id="edge22_Node000043_Node000024" class="edge">
<title>Node43&#45;&gt;Node24</title>
<g id="a_edge22_Node000043_Node000024"><a xlink:title=" ">
<path fill="none" stroke="#63b8ff" d="M376.44,-704.38C384.07,-704.38 392.31,-704.38 400.33,-704.38"/>
<polygon fill="#63b8ff" stroke="#63b8ff" points="400.32,-707.88 410.32,-704.38 400.32,-700.88 400.32,-707.88"/>
</a>
</g>
</g>
<!-- Node59&#45;&gt;Node59 -->
<g id="edge29_Node000059_Node000059" class="edge">
<title>Node59&#45;&gt;Node59</title>
<g id="a_edge29_Node000059_Node000059"><a xlink:title=" ">
<path fill="none" stroke="#63b8ff" d="M220.35,-908.15C213.59,-916.81 219.22,-925.75 237.25,-925.75 246.83,-925.75 252.9,-923.23 255.49,-919.56"/>
<polygon fill="#63b8ff" stroke="#63b8ff" points="258.96,-919.18 254.32,-909.65 252.01,-919.99 258.96,-919.18"/>
</a>
</g>
</g>
<!-- Node69&#45;&gt;Node24 -->
<g id="edge34_Node000069_Node000024" class="edge">
<title>Node69&#45;&gt;Node24</title>
<g id="a_edge34_Node000069_Node000024"><a xlink:title=" ">
<path fill="none" stroke="#63b8ff" d="M260.19,-425.22C264.46,-427.87 268.7,-430.95 272.25,-434.38 352.92,-512.11 413.49,-634.6 435.66,-683.35"/>
<polygon fill="#63b8ff" stroke="#63b8ff" points="432.35,-684.51 439.63,-692.21 438.74,-681.65 432.35,-684.51"/>
</a>
</g>
</g>
<!-- Node69&#45;&gt;Node73 -->
<g id="edge35_Node000069_Node000073" class="edge">
<title>Node69&#45;&gt;Node73</title>
<g id="a_edge35_Node000069_Node000073"><a xlink:title=" ">
<path fill="none" stroke="#63b8ff" d="M271.37,-414.38C279.44,-414.38 288.21,-414.38 296.72,-414.38"/>
<polygon fill="#63b8ff" stroke="#63b8ff" points="296.56,-417.88 306.56,-414.38 296.56,-410.88 296.56,-417.88"/>
</a>
</g>
</g>
<!-- Node73&#45;&gt;Node24 -->
<g id="edge36_Node000073_Node000024" class="edge">
<title>Node73&#45;&gt;Node24</title>
<g id="a_edge36_Node000073_Node000024"><a xlink:title=" ">
<path fill="none" stroke="#63b8ff" d="M346.87,-425.04C361.76,-467.49 417.01,-624.97 437.32,-682.85"/>
<polygon fill="#63b8ff" stroke="#63b8ff" points="433.98,-683.91 440.6,-692.18 440.59,-681.59 433.98,-683.91"/>
</a>
</g>
</g>
<!-- Node78&#45;&gt;Node78 -->
<g id="edge38_Node000078_Node000078" class="edge">
<title>Node78&#45;&gt;Node78</title>
<g id="a_edge38_Node000078_Node000078"><a xlink:title=" ">
<path fill="none" stroke="#63b8ff" d="M220.35,-659.15C213.59,-667.81 219.22,-676.75 237.25,-676.75 246.83,-676.75 252.9,-674.23 255.49,-670.56"/>
<polygon fill="#63b8ff" stroke="#63b8ff" points="258.96,-670.18 254.32,-660.65 252.01,-670.99 258.96,-670.18"/>
</a>
</g>
</g>
<!-- Node86&#45;&gt;Node86 -->
<g id="edge47_Node000086_Node000086" class="edge">
<title>Node86&#45;&gt;Node86</title>
<g id="a_edge47_Node000086_Node000086"><a xlink:title=" ">
<path fill="none" stroke="#63b8ff" d="M220.35,-368.15C213.59,-376.81 219.22,-385.75 237.25,-385.75 246.83,-385.75 252.9,-383.23 255.49,-379.56"/>
<polygon fill="#63b8ff" stroke="#63b8ff" points="258.96,-379.18 254.32,-369.65 252.01,-379.99 258.96,-379.18"/>
</a>
</g>
</g>
<!-- Node103&#45;&gt;Node24 -->
<g id="edge51_Node000103_Node000024" class="edge">
<title>Node103&#45;&gt;Node24</title>
<g id="a_edge51_Node000103_Node000024"><a xlink:title=" ">
<path fill="none" stroke="#63b8ff" d="M345.44,-242.14C358.44,-302.57 422.37,-599.77 440.23,-682.8"/>
<polygon fill="#63b8ff" stroke="#63b8ff" points="436.76,-683.31 442.29,-692.35 443.61,-681.84 436.76,-683.31"/>
</a>
</g>
</g>
<!-- Node124&#45;&gt;Node24 -->
<g id="edge57_Node000124_Node000024" class="edge">
<title>Node124&#45;&gt;Node24</title>
<g id="a_edge57_Node000124_Node000024"><a xlink:title=" ">
<path fill="none" stroke="#63b8ff" d="M260.33,-1138.68C264.59,-1136.01 268.79,-1132.89 272.25,-1129.38 337.83,-1062.74 339.89,-1032.62 376,-946.38 408.79,-868.06 431.49,-769.17 440.52,-726.09"/>
<polygon fill="#63b8ff" stroke="#63b8ff" points="443.95,-726.8 442.53,-716.3 437.09,-725.39 443.95,-726.8"/>
</a>
</g>
</g>
<!-- Node124&#45;&gt;Node84 -->
<g id="edge58_Node000124_Node000084" class="edge">
<title>Node124&#45;&gt;Node84</title>
<g id="a_edge58_Node000124_Node000084"><a xlink:title=" ">
<path fill="none" stroke="#63b8ff" d="M261.57,-1138.7C265.53,-1136.09 269.31,-1132.98 272.25,-1129.38 284.04,-1114.91 319.92,-998.15 334.68,-949.03"/>
<polygon fill="#63b8ff" stroke="#63b8ff" points="338,-950.13 337.51,-939.55 331.29,-948.13 338,-950.13"/>
</a>
</g>
</g>
</g>
</svg>
