<?xml version="1.0" encoding="UTF-8" standalone="no"?>
<!DOCTYPE svg PUBLIC "-//W3C//DTD SVG 1.1//EN"
 "http://www.w3.org/Graphics/SVG/1.1/DTD/svg11.dtd">
<!-- Generated by graphviz version 12.2.1 (0)
 -->
<!-- Title: w2c__f438 Pages: 1 -->
<svg width="283pt" height="224pt"
 viewBox="0.00 0.00 283.25 223.75" xmlns="http://www.w3.org/2000/svg" xmlns:xlink="http://www.w3.org/1999/xlink">
<g id="graph0" class="graph" transform="scale(1 1) rotate(0) translate(4 219.75)">
<title>w2c__f438</title>
<!-- Node1 -->
<g id="Node000001" class="node">
<title>Node1</title>
<g id="a_Node000001"><a xlink:title=" ">
<polygon fill="#999999" stroke="#666666" points="67.75,-117.75 0,-117.75 0,-97 67.75,-97 67.75,-117.75"/>
<text text-anchor="middle" x="33.88" y="-104.25" font-family="Helvetica,sans-Serif" font-size="10.00">w2c__f438</text>
</a>
</g>
</g>
<!-- Node2 -->
<g id="Node000002" class="node">
<title>Node2</title>
<g id="a_Node000002"><a xlink:href="app_8c.html#a0378208e0d5c0d1d6e7370f1c578fab3" target="_top" xlink:title=" ">
<polygon fill="white" stroke="#666666" points="171.5,-215.75 103.75,-215.75 103.75,-195 171.5,-195 171.5,-215.75"/>
<text text-anchor="middle" x="137.62" y="-202.25" font-family="Helvetica,sans-Serif" font-size="10.00">w2c__f216</text>
</a>
</g>
</g>
<!-- Node1&#45;&gt;Node2 -->
<g id="edge1_Node000001_Node000002" class="edge">
<title>Node1&#45;&gt;Node2</title>
<g id="a_edge1_Node000001_Node000002"><a xlink:title=" ">
<path fill="none" stroke="#63b8ff" d="M42.69,-118.13C54.63,-134.08 78.68,-164.39 103.75,-185.38 105,-186.42 106.31,-187.45 107.65,-188.45"/>
<polygon fill="#63b8ff" stroke="#63b8ff" points="105.34,-191.11 115.59,-193.82 109.26,-185.32 105.34,-191.11"/>
</a>
</g>
</g>
<!-- Node4 -->
<g id="Node000004" class="node">
<title>Node4</title>
<g id="a_Node000004"><a xlink:href="app_8c.html#aaca5d5bcf49f2ca74019cf097750b9f3" target="_top" xlink:title=" ">
<polygon fill="white" stroke="#666666" points="171.5,-176.75 103.75,-176.75 103.75,-156 171.5,-156 171.5,-176.75"/>
<text text-anchor="middle" x="137.62" y="-163.25" font-family="Helvetica,sans-Serif" font-size="10.00">w2c__f258</text>
</a>
</g>
</g>
<!-- Node1&#45;&gt;Node4 -->
<g id="edge3_Node000001_Node000004" class="edge">
<title>Node1&#45;&gt;Node4</title>
<g id="a_edge3_Node000001_Node000004"><a xlink:title=" ">
<path fill="none" stroke="#63b8ff" d="M53.54,-118.2C68.88,-127.1 90.88,-139.85 108.38,-150"/>
<polygon fill="#63b8ff" stroke="#63b8ff" points="106.36,-152.87 116.77,-154.86 109.88,-146.82 106.36,-152.87"/>
</a>
</g>
</g>
<!-- Node6 -->
<g id="Node000006" class="node">
<title>Node6</title>
<g id="a_Node000006"><a xlink:href="app_8c.html#a80107b6b0c209f372c3ca2ed24d5d5bf" target="_top" xlink:title=" ">
<polygon fill="white" stroke="#666666" points="171.5,-137.75 103.75,-137.75 103.75,-117 171.5,-117 171.5,-137.75"/>
<text text-anchor="middle" x="137.62" y="-124.25" font-family="Helvetica,sans-Serif" font-size="10.00">w2c__f427</text>
</a>
</g>
</g>
<!-- Node1&#45;&gt;Node6 -->
<g id="edge6_Node000001_Node000006" class="edge">
<title>Node1&#45;&gt;Node6</title>
<g id="a_edge6_Node000001_Node000006"><a xlink:title=" ">
<path fill="none" stroke="#63b8ff" d="M68.19,-113.92C75.91,-115.44 84.25,-117.08 92.36,-118.67"/>
<polygon fill="#63b8ff" stroke="#63b8ff" points="91.61,-122.09 102.1,-120.59 92.96,-115.22 91.61,-122.09"/>
</a>
</g>
</g>
<!-- Node8 -->
<g id="Node000008" class="node">
<title>Node8</title>
<g id="a_Node000008"><a xlink:href="app_8c.html#ab78a9ba6819f5a9d3b53302097151d33" target="_top" xlink:title=" ">
<polygon fill="white" stroke="#666666" points="171.5,-98.75 103.75,-98.75 103.75,-78 171.5,-78 171.5,-98.75"/>
<text text-anchor="middle" x="137.62" y="-85.25" font-family="Helvetica,sans-Serif" font-size="10.00">w2c__f481</text>
</a>
</g>
</g>
<!-- Node1&#45;&gt;Node8 -->
<g id="edge8_Node000001_Node000008" class="edge">
<title>Node1&#45;&gt;Node8</title>
<g id="a_edge8_Node000001_Node000008"><a xlink:title=" ">
<path fill="none" stroke="#63b8ff" d="M68.19,-101.15C75.91,-99.71 84.25,-98.16 92.36,-96.64"/>
<polygon fill="#63b8ff" stroke="#63b8ff" points="92.91,-100.1 102.09,-94.82 91.62,-93.22 92.91,-100.1"/>
</a>
</g>
</g>
<!-- Node9 -->
<g id="Node000009" class="node">
<title>Node9</title>
<g id="a_Node000009"><a xlink:href="app_8c.html#a674f6e81761467d0a8dc6d2a425eda9f" target="_top" xlink:title=" ">
<polygon fill="white" stroke="#666666" points="171.5,-59.75 103.75,-59.75 103.75,-39 171.5,-39 171.5,-59.75"/>
<text text-anchor="middle" x="137.62" y="-46.25" font-family="Helvetica,sans-Serif" font-size="10.00">w2c__f498</text>
</a>
</g>
</g>
<!-- Node1&#45;&gt;Node9 -->
<g id="edge9_Node000001_Node000009" class="edge">
<title>Node1&#45;&gt;Node9</title>
<g id="a_edge9_Node000001_Node000009"><a xlink:title=" ">
<path fill="none" stroke="#63b8ff" d="M53.54,-96.74C68.79,-88.04 90.6,-75.61 108.05,-65.66"/>
<polygon fill="#63b8ff" stroke="#63b8ff" points="109.47,-68.88 116.42,-60.89 106,-62.8 109.47,-68.88"/>
</a>
</g>
</g>
<!-- Node10 -->
<g id="Node000010" class="node">
<title>Node10</title>
<g id="a_Node000010"><a xlink:href="app_8c.html#a672569c91ebb1d5055d737b56ec296a7" target="_top" xlink:title=" ">
<polygon fill="white" stroke="#666666" points="171.5,-20.75 103.75,-20.75 103.75,0 171.5,0 171.5,-20.75"/>
<text text-anchor="middle" x="137.62" y="-7.25" font-family="Helvetica,sans-Serif" font-size="10.00">w2c__f585</text>
</a>
</g>
</g>
<!-- Node1&#45;&gt;Node10 -->
<g id="edge10_Node000001_Node000010" class="edge">
<title>Node1&#45;&gt;Node10</title>
<g id="a_edge10_Node000001_Node000010"><a xlink:title=" ">
<path fill="none" stroke="#63b8ff" d="M42.92,-96.5C54.96,-80.7 78.93,-51.02 103.75,-30.38 105,-29.33 106.31,-28.31 107.66,-27.31"/>
<polygon fill="#63b8ff" stroke="#63b8ff" points="109.27,-30.45 115.6,-21.95 105.36,-24.64 109.27,-30.45"/>
</a>
</g>
</g>
<!-- Node3 -->
<g id="Node000003" class="node">
<title>Node3</title>
<g id="a_Node000003"><a xlink:href="app_8c.html#a8d9f347f9a643f0ebfb53c4f54578ac4" target="_top" xlink:title=" ">
<polygon fill="white" stroke="#666666" points="275.25,-215.75 207.5,-215.75 207.5,-195 275.25,-195 275.25,-215.75"/>
<text text-anchor="middle" x="241.38" y="-202.25" font-family="Helvetica,sans-Serif" font-size="10.00">w2c__f304</text>
</a>
</g>
</g>
<!-- Node2&#45;&gt;Node3 -->
<g id="edge2_Node000002_Node000003" class="edge">
<title>Node2&#45;&gt;Node3</title>
<g id="a_edge2_Node000002_Node000003"><a xlink:title=" ">
<path fill="none" stroke="#63b8ff" d="M171.94,-205.38C179.57,-205.38 187.81,-205.38 195.83,-205.38"/>
<polygon fill="#63b8ff" stroke="#63b8ff" points="195.82,-208.88 205.82,-205.38 195.82,-201.88 195.82,-208.88"/>
</a>
</g>
</g>
<!-- Node4&#45;&gt;Node3 -->
<g id="edge4_Node000004_Node000003" class="edge">
<title>Node4&#45;&gt;Node3</title>
<g id="a_edge4_Node000004_Node000003"><a xlink:title=" ">
<path fill="none" stroke="#63b8ff" d="M166.97,-177.24C177.66,-181.34 190.02,-186.08 201.51,-190.48"/>
<polygon fill="#63b8ff" stroke="#63b8ff" points="200.18,-193.72 210.77,-194.03 202.69,-187.18 200.18,-193.72"/>
</a>
</g>
</g>
<!-- Node5 -->
<g id="Node000005" class="node">
<title>Node5</title>
<g id="a_Node000005"><a xlink:href="app_8c.html#a881f0b113e93dce3ff52d04b435850f6" target="_top" xlink:title=" ">
<polygon fill="white" stroke="#666666" points="275.25,-176.75 207.5,-176.75 207.5,-156 275.25,-156 275.25,-176.75"/>
<text text-anchor="middle" x="241.38" y="-163.25" font-family="Helvetica,sans-Serif" font-size="10.00">w2c__f491</text>
</a>
</g>
</g>
<!-- Node4&#45;&gt;Node5 -->
<g id="edge5_Node000004_Node000005" class="edge">
<title>Node4&#45;&gt;Node5</title>
<g id="a_edge5_Node000004_Node000005"><a xlink:title=" ">
<path fill="none" stroke="#63b8ff" d="M171.94,-166.38C179.57,-166.38 187.81,-166.38 195.83,-166.38"/>
<polygon fill="#63b8ff" stroke="#63b8ff" points="195.82,-169.88 205.82,-166.38 195.82,-162.88 195.82,-169.88"/>
</a>
</g>
</g>
<!-- Node7 -->
<g id="Node000007" class="node">
<title>Node7</title>
<g id="a_Node000007"><a xlink:href="app_8c.html#a75d2a28c1bac8b1e29f069bf851fdba9" target="_top" xlink:title=" ">
<polygon fill="white" stroke="#666666" points="275.25,-137.75 207.5,-137.75 207.5,-117 275.25,-117 275.25,-137.75"/>
<text text-anchor="middle" x="241.38" y="-124.25" font-family="Helvetica,sans-Serif" font-size="10.00">w2c__f549</text>
</a>
</g>
</g>
<!-- Node6&#45;&gt;Node7 -->
<g id="edge7_Node000006_Node000007" class="edge">
<title>Node6&#45;&gt;Node7</title>
<g id="a_edge7_Node000006_Node000007"><a xlink:title=" ">
<path fill="none" stroke="#63b8ff" d="M171.94,-127.38C179.57,-127.38 187.81,-127.38 195.83,-127.38"/>
<polygon fill="#63b8ff" stroke="#63b8ff" points="195.82,-130.88 205.82,-127.38 195.82,-123.88 195.82,-130.88"/>
</a>
</g>
</g>
</g>
</svg>
