<?xml version="1.0" encoding="UTF-8" standalone="no"?>
<!DOCTYPE svg PUBLIC "-//W3C//DTD SVG 1.1//EN"
 "http://www.w3.org/Graphics/SVG/1.1/DTD/svg11.dtd">
<!-- Generated by graphviz version 12.2.1 (0)
 -->
<!-- Title: w2c__f299 Pages: 1 -->
<svg width="283pt" height="100pt"
 viewBox="0.00 0.00 283.25 99.54" xmlns="http://www.w3.org/2000/svg" xmlns:xlink="http://www.w3.org/1999/xlink">
<g id="graph0" class="graph" transform="scale(1 1) rotate(0) translate(4 95.54)">
<title>w2c__f299</title>
<!-- Node1 -->
<g id="Node000001" class="node">
<title>Node1</title>
<g id="a_Node000001"><a xlink:title=" ">
<polygon fill="#999999" stroke="#666666" points="67.75,-59.75 0,-59.75 0,-39 67.75,-39 67.75,-59.75"/>
<text text-anchor="middle" x="33.88" y="-46.25" font-family="Helvetica,sans-Serif" font-size="10.00">w2c__f299</text>
</a>
</g>
</g>
<!-- Node1&#45;&gt;Node1 -->
<g id="edge1_Node000001_Node000001" class="edge">
<title>Node1&#45;&gt;Node1</title>
<g id="a_edge1_Node000001_Node000001"><a xlink:title=" ">
<path fill="none" stroke="#63b8ff" d="M17.16,-60.15C10.47,-68.81 16.04,-77.75 33.88,-77.75 43.35,-77.75 49.36,-75.23 51.91,-71.56"/>
<polygon fill="#63b8ff" stroke="#63b8ff" points="55.39,-71.18 50.77,-61.65 48.44,-71.99 55.39,-71.18"/>
</a>
</g>
</g>
<!-- Node2 -->
<g id="Node000002" class="node">
<title>Node2</title>
<g id="a_Node000002"><a xlink:href="app_8c.html#ac4e64533d9dc398069985d13b9d29808" target="_top" xlink:title=" ">
<polygon fill="white" stroke="#666666" points="275.25,-67.75 207.5,-67.75 207.5,-47 275.25,-47 275.25,-67.75"/>
<text text-anchor="middle" x="241.38" y="-54.25" font-family="Helvetica,sans-Serif" font-size="10.00">w2c__f421</text>
</a>
</g>
</g>
<!-- Node1&#45;&gt;Node2 -->
<g id="edge2_Node000001_Node000002" class="edge">
<title>Node1&#45;&gt;Node2</title>
<g id="a_edge2_Node000001_Node000002"><a xlink:title=" ">
<path fill="none" stroke="#63b8ff" d="M49.83,-60.24C63.21,-69.24 83.74,-81.34 103.75,-86.38 132.95,-93.72 141.98,-92.34 171.5,-86.38 184.74,-83.7 198.61,-78.4 210.4,-73.06"/>
<polygon fill="#63b8ff" stroke="#63b8ff" points="211.68,-76.33 219.2,-68.87 208.66,-70.01 211.68,-76.33"/>
</a>
</g>
</g>
<!-- Node3 -->
<g id="Node000003" class="node">
<title>Node3</title>
<g id="a_Node000003"><a xlink:href="app_8c.html#ae22a9d423605b0b2c969aba1bfdb3062" target="_top" xlink:title=" ">
<polygon fill="white" stroke="#666666" points="171.5,-59.75 103.75,-59.75 103.75,-39 171.5,-39 171.5,-59.75"/>
<text text-anchor="middle" x="137.62" y="-46.25" font-family="Helvetica,sans-Serif" font-size="10.00">w2c__f477</text>
</a>
</g>
</g>
<!-- Node1&#45;&gt;Node3 -->
<g id="edge3_Node000001_Node000003" class="edge">
<title>Node1&#45;&gt;Node3</title>
<g id="a_edge3_Node000001_Node000003"><a xlink:title=" ">
<path fill="none" stroke="#63b8ff" d="M68.19,-49.38C75.82,-49.38 84.06,-49.38 92.08,-49.38"/>
<polygon fill="#63b8ff" stroke="#63b8ff" points="92.07,-52.88 102.07,-49.38 92.07,-45.88 92.07,-52.88"/>
</a>
</g>
</g>
<!-- Node4 -->
<g id="Node000004" class="node">
<title>Node4</title>
<g id="a_Node000004"><a xlink:href="app_8c.html#af7839e814ec3680ce1cd95d804b1dc18" target="_top" xlink:title=" ">
<polygon fill="white" stroke="#666666" points="171.5,-20.75 103.75,-20.75 103.75,0 171.5,0 171.5,-20.75"/>
<text text-anchor="middle" x="137.62" y="-7.25" font-family="Helvetica,sans-Serif" font-size="10.00">w2c__f556</text>
</a>
</g>
</g>
<!-- Node1&#45;&gt;Node4 -->
<g id="edge5_Node000001_Node000004" class="edge">
<title>Node1&#45;&gt;Node4</title>
<g id="a_edge5_Node000001_Node000004"><a xlink:title=" ">
<path fill="none" stroke="#63b8ff" d="M63.22,-38.51C73.91,-34.41 86.27,-29.67 97.76,-25.27"/>
<polygon fill="#63b8ff" stroke="#63b8ff" points="98.94,-28.57 107.02,-21.72 96.43,-22.03 98.94,-28.57"/>
</a>
</g>
</g>
<!-- Node3&#45;&gt;Node3 -->
<g id="edge4_Node000003_Node000003" class="edge">
<title>Node3&#45;&gt;Node3</title>
<g id="a_edge4_Node000003_Node000003"><a xlink:title=" ">
<path fill="none" stroke="#63b8ff" d="M120.91,-60.15C114.22,-68.81 119.79,-77.75 137.62,-77.75 147.1,-77.75 153.11,-75.23 155.66,-71.56"/>
<polygon fill="#63b8ff" stroke="#63b8ff" points="159.14,-71.18 154.52,-61.65 152.19,-71.99 159.14,-71.18"/>
</a>
</g>
</g>
<!-- Node4&#45;&gt;Node2 -->
<g id="edge6_Node000004_Node000002" class="edge">
<title>Node4&#45;&gt;Node2</title>
<g id="a_edge6_Node000004_Node000002"><a xlink:title=" ">
<path fill="none" stroke="#63b8ff" d="M161.97,-21.16C175.28,-27.31 192.2,-35.12 206.9,-41.91"/>
<polygon fill="#63b8ff" stroke="#63b8ff" points="205.22,-44.99 215.77,-46.01 208.16,-38.64 205.22,-44.99"/>
</a>
</g>
</g>
</g>
</svg>
