<?xml version="1.0" encoding="UTF-8" standalone="no"?>
<!DOCTYPE svg PUBLIC "-//W3C//DTD SVG 1.1//EN"
 "http://www.w3.org/Graphics/SVG/1.1/DTD/svg11.dtd">
<!-- Generated by graphviz version 12.2.1 (0)
 -->
<!-- Title: w2c__f364 Pages: 1 -->
<svg width="180pt" height="86pt"
 viewBox="0.00 0.00 179.50 85.75" xmlns="http://www.w3.org/2000/svg" xmlns:xlink="http://www.w3.org/1999/xlink">
<g id="graph0" class="graph" transform="scale(1 1) rotate(0) translate(4 81.75)">
<title>w2c__f364</title>
<!-- Node1 -->
<g id="Node000001" class="node">
<title>Node1</title>
<g id="a_Node000001"><a xlink:title=" ">
<polygon fill="#999999" stroke="#666666" points="67.75,-48.75 0,-48.75 0,-28 67.75,-28 67.75,-48.75"/>
<text text-anchor="middle" x="33.88" y="-35.25" font-family="Helvetica,sans-Serif" font-size="10.00">w2c__f364</text>
</a>
</g>
</g>
<!-- Node1&#45;&gt;Node1 -->
<g id="edge1_Node000001_Node000001" class="edge">
<title>Node1&#45;&gt;Node1</title>
<g id="a_edge1_Node000001_Node000001"><a xlink:title=" ">
<path fill="none" stroke="#63b8ff" d="M17.16,-49.15C10.47,-57.81 16.04,-66.75 33.88,-66.75 43.35,-66.75 49.36,-64.23 51.91,-60.56"/>
<polygon fill="#63b8ff" stroke="#63b8ff" points="55.39,-60.18 50.77,-50.65 48.44,-60.99 55.39,-60.18"/>
</a>
</g>
</g>
<!-- Node2 -->
<g id="Node000002" class="node">
<title>Node2</title>
<g id="a_Node000002"><a xlink:href="app_8c.html#a674f6e81761467d0a8dc6d2a425eda9f" target="_top" xlink:title=" ">
<polygon fill="white" stroke="#666666" points="171.5,-77.75 103.75,-77.75 103.75,-57 171.5,-57 171.5,-77.75"/>
<text text-anchor="middle" x="137.62" y="-64.25" font-family="Helvetica,sans-Serif" font-size="10.00">w2c__f498</text>
</a>
</g>
</g>
<!-- Node1&#45;&gt;Node2 -->
<g id="edge2_Node000001_Node000002" class="edge">
<title>Node1&#45;&gt;Node2</title>
<g id="a_edge2_Node000001_Node000002"><a xlink:title=" ">
<path fill="none" stroke="#63b8ff" d="M68.19,-47.87C76,-50.1 84.44,-52.5 92.64,-54.84"/>
<polygon fill="#63b8ff" stroke="#63b8ff" points="91.55,-58.17 102.13,-57.54 93.47,-51.44 91.55,-58.17"/>
</a>
</g>
</g>
<!-- Node3 -->
<g id="Node000003" class="node">
<title>Node3</title>
<g id="a_Node000003"><a xlink:href="app_8c.html#a8f7f4f321458f36c45336282231f55d9" target="_top" xlink:title=" ">
<polygon fill="white" stroke="#666666" points="171.5,-20.75 103.75,-20.75 103.75,0 171.5,0 171.5,-20.75"/>
<text text-anchor="middle" x="137.62" y="-7.25" font-family="Helvetica,sans-Serif" font-size="10.00">w2c__f579</text>
</a>
</g>
</g>
<!-- Node1&#45;&gt;Node3 -->
<g id="edge3_Node000001_Node000003" class="edge">
<title>Node1&#45;&gt;Node3</title>
<g id="a_edge3_Node000001_Node000003"><a xlink:title=" ">
<path fill="none" stroke="#63b8ff" d="M68.19,-29.21C76,-27.06 84.44,-24.74 92.64,-22.48"/>
<polygon fill="#63b8ff" stroke="#63b8ff" points="93.41,-25.9 102.12,-19.87 91.55,-19.15 93.41,-25.9"/>
</a>
</g>
</g>
<!-- Node3&#45;&gt;Node3 -->
<g id="edge4_Node000003_Node000003" class="edge">
<title>Node3&#45;&gt;Node3</title>
<g id="a_edge4_Node000003_Node000003"><a xlink:title=" ">
<path fill="none" stroke="#63b8ff" d="M120.91,-21.15C114.22,-29.81 119.79,-38.75 137.62,-38.75 147.1,-38.75 153.11,-36.23 155.66,-32.56"/>
<polygon fill="#63b8ff" stroke="#63b8ff" points="159.14,-32.18 154.52,-22.65 152.19,-32.99 159.14,-32.18"/>
</a>
</g>
</g>
</g>
</svg>
