<?xml version="1.0" encoding="UTF-8" standalone="no"?>
<!DOCTYPE svg PUBLIC "-//W3C//DTD SVG 1.1//EN"
 "http://www.w3.org/Graphics/SVG/1.1/DTD/svg11.dtd">
<!-- Generated by graphviz version 12.2.1 (0)
 -->
<!-- Title: w2c_0_27 Pages: 1 -->
<svg width="546pt" height="118pt"
 viewBox="0.00 0.00 545.50 117.86" xmlns="http://www.w3.org/2000/svg" xmlns:xlink="http://www.w3.org/1999/xlink">
<g id="graph0" class="graph" transform="scale(1 1) rotate(0) translate(4 113.86)">
<title>w2c_0_27</title>
<!-- Node1 -->
<g id="Node000001" class="node">
<title>Node1</title>
<g id="a_Node000001"><a xlink:title=" ">
<polygon fill="#999999" stroke="#666666" points="537.5,-77.75 473.5,-77.75 473.5,-57 537.5,-57 537.5,-77.75"/>
<text text-anchor="middle" x="505.5" y="-64.25" font-family="Helvetica,sans-Serif" font-size="10.00">w2c_0_27</text>
</a>
</g>
</g>
<!-- Node2 -->
<g id="Node000002" class="node">
<title>Node2</title>
<g id="a_Node000002"><a xlink:href="app_8c.html#a7dc7d70793bae217b64eab580fce99cb" target="_top" xlink:title=" ">
<polygon fill="white" stroke="#666666" points="333.75,-98.75 266,-98.75 266,-78 333.75,-78 333.75,-98.75"/>
<text text-anchor="middle" x="299.88" y="-85.25" font-family="Helvetica,sans-Serif" font-size="10.00">w2c__f215</text>
</a>
</g>
</g>
<!-- Node1&#45;&gt;Node2 -->
<g id="edge1_Node000001_Node000002" class="edge">
<title>Node1&#45;&gt;Node2</title>
<g id="a_edge1_Node000001_Node000002"><a xlink:title=" ">
<path fill="none" stroke="#63b8ff" d="M481.1,-84.63C468.79,-92.63 453.06,-101.27 437.5,-105.38 402.49,-114.61 361.06,-106.96 333.08,-99.18"/>
<polygon fill="#63b8ff" stroke="#63b8ff" points="483.02,-87.55 489.3,-79.02 479.07,-81.77 483.02,-87.55"/>
</a>
</g>
</g>
<!-- Node4 -->
<g id="Node000004" class="node">
<title>Node4</title>
<g id="a_Node000004"><a xlink:href="app_8c.html#afdae10204d5cc9dd87771389db6460ec" target="_top" xlink:title=" ">
<polygon fill="white" stroke="#666666" points="437.5,-96.75 369.75,-96.75 369.75,-76 437.5,-76 437.5,-96.75"/>
<text text-anchor="middle" x="403.62" y="-83.25" font-family="Helvetica,sans-Serif" font-size="10.00">w2c__f314</text>
</a>
</g>
</g>
<!-- Node1&#45;&gt;Node4 -->
<g id="edge3_Node000001_Node000004" class="edge">
<title>Node1&#45;&gt;Node4</title>
<g id="a_edge3_Node000001_Node000004"><a xlink:title=" ">
<path fill="none" stroke="#63b8ff" d="M462.04,-75.45C453.97,-76.99 445.64,-78.57 437.91,-80.04"/>
<polygon fill="#63b8ff" stroke="#63b8ff" points="462.52,-78.92 471.69,-73.62 461.21,-72.05 462.52,-78.92"/>
</a>
</g>
</g>
<!-- Node5 -->
<g id="Node000005" class="node">
<title>Node5</title>
<g id="a_Node000005"><a xlink:href="app_8c.html#afb3fbfc35abe0f21d554f326b79a0b76" target="_top" xlink:title=" ">
<polygon fill="white" stroke="#666666" points="333.75,-59.75 266,-59.75 266,-39 333.75,-39 333.75,-59.75"/>
<text text-anchor="middle" x="299.88" y="-46.25" font-family="Helvetica,sans-Serif" font-size="10.00">w2c__f494</text>
</a>
</g>
</g>
<!-- Node1&#45;&gt;Node5 -->
<g id="edge10_Node000001_Node000005" class="edge">
<title>Node1&#45;&gt;Node5</title>
<g id="a_edge10_Node000001_Node000005"><a xlink:title=" ">
<path fill="none" stroke="#63b8ff" d="M461.9,-63.61C423.83,-60.24 368.83,-55.38 333.97,-52.3"/>
<polygon fill="#63b8ff" stroke="#63b8ff" points="461.35,-67.07 471.62,-64.47 461.97,-60.1 461.35,-67.07"/>
</a>
</g>
</g>
<!-- Node8 -->
<g id="Node000008" class="node">
<title>Node8</title>
<g id="a_Node000008"><a xlink:href="app_8c.html#ad1dbc2afe7918517df3fc54838f07298" target="_top" xlink:title=" ">
<polygon fill="white" stroke="#666666" points="215.38,-20.75 147.62,-20.75 147.62,0 215.38,0 215.38,-20.75"/>
<text text-anchor="middle" x="181.5" y="-7.25" font-family="Helvetica,sans-Serif" font-size="10.00">w2c__f520</text>
</a>
</g>
</g>
<!-- Node1&#45;&gt;Node8 -->
<g id="edge11_Node000001_Node000008" class="edge">
<title>Node1&#45;&gt;Node8</title>
<g id="a_edge11_Node000001_Node000008"><a xlink:title=" ">
<path fill="none" stroke="#63b8ff" d="M462.01,-56.99C453.88,-55.07 445.44,-53.13 437.5,-51.38 391.56,-41.24 380.15,-38.13 333.75,-30.38 293.26,-23.61 246.35,-17.7 215.64,-14.1"/>
<polygon fill="#63b8ff" stroke="#63b8ff" points="461.18,-60.39 471.72,-59.31 462.81,-53.59 461.18,-60.39"/>
</a>
</g>
</g>
<!-- Node3 -->
<g id="Node000003" class="node">
<title>Node3</title>
<g id="a_Node000003"><a xlink:href="app_8c.html#a7f65ba02075f2865f478747946b07c94" target="_top" xlink:title=" ">
<polygon fill="white" stroke="#666666" points="230,-98.75 133,-98.75 133,-78 230,-78 230,-98.75"/>
<text text-anchor="middle" x="181.5" y="-85.25" font-family="Helvetica,sans-Serif" font-size="10.00">wrap_w2c__f215</text>
</a>
</g>
</g>
<!-- Node2&#45;&gt;Node3 -->
<g id="edge2_Node000002_Node000003" class="edge">
<title>Node2&#45;&gt;Node3</title>
<g id="a_edge2_Node000002_Node000003"><a xlink:title=" ">
<path fill="none" stroke="#63b8ff" d="M254.28,-88.38C246.39,-88.38 238.14,-88.38 230.16,-88.38"/>
<polygon fill="#63b8ff" stroke="#63b8ff" points="254.01,-91.88 264.01,-88.38 254.01,-84.88 254.01,-91.88"/>
</a>
</g>
</g>
<!-- Node4&#45;&gt;Node2 -->
<g id="edge4_Node000004_Node000002" class="edge">
<title>Node4&#45;&gt;Node2</title>
<g id="a_edge4_Node000004_Node000002"><a xlink:title=" ">
<path fill="none" stroke="#63b8ff" d="M358.07,-87.25C349.96,-87.41 341.63,-87.57 333.92,-87.73"/>
<polygon fill="#63b8ff" stroke="#63b8ff" points="357.87,-90.76 367.79,-87.06 357.73,-83.76 357.87,-90.76"/>
</a>
</g>
</g>
<!-- Node4&#45;&gt;Node5 -->
<g id="edge5_Node000004_Node000005" class="edge">
<title>Node4&#45;&gt;Node5</title>
<g id="a_edge5_Node000004_Node000005"><a xlink:title=" ">
<path fill="none" stroke="#63b8ff" d="M362.19,-71.67C351.59,-67.82 340.35,-63.73 330.44,-60.13"/>
<polygon fill="#63b8ff" stroke="#63b8ff" points="360.9,-74.93 371.5,-75.06 363.3,-68.35 360.9,-74.93"/>
</a>
</g>
</g>
<!-- Node6 -->
<g id="Node000006" class="node">
<title>Node6</title>
<g id="a_Node000006"><a xlink:href="app_8c.html#a86ae468e235684021eadfdacd5cb9dba" target="_top" xlink:title=" ">
<polygon fill="white" stroke="#666666" points="215.38,-59.75 147.62,-59.75 147.62,-39 215.38,-39 215.38,-59.75"/>
<text text-anchor="middle" x="181.5" y="-46.25" font-family="Helvetica,sans-Serif" font-size="10.00">w2c__f452</text>
</a>
</g>
</g>
<!-- Node5&#45;&gt;Node6 -->
<g id="edge6_Node000005_Node000006" class="edge">
<title>Node5&#45;&gt;Node6</title>
<g id="a_edge6_Node000005_Node000006"><a xlink:title=" ">
<path fill="none" stroke="#63b8ff" d="M254.16,-49.38C241.43,-49.38 227.78,-49.38 215.85,-49.38"/>
<polygon fill="#63b8ff" stroke="#63b8ff" points="254.01,-52.88 264.01,-49.38 254.01,-45.88 254.01,-52.88"/>
</a>
</g>
</g>
<!-- Node5&#45;&gt;Node8 -->
<g id="edge8_Node000005_Node000008" class="edge">
<title>Node5&#45;&gt;Node8</title>
<g id="a_edge8_Node000005_Node000008"><a xlink:title=" ">
<path fill="none" stroke="#63b8ff" d="M255.86,-34.96C242.26,-30.4 227.46,-25.44 214.74,-21.18"/>
<polygon fill="#63b8ff" stroke="#63b8ff" points="254.43,-38.17 265.02,-38.03 256.65,-31.53 254.43,-38.17"/>
</a>
</g>
</g>
<!-- Node7 -->
<g id="Node000007" class="node">
<title>Node7</title>
<g id="a_Node000007"><a xlink:href="app_8c.html#a57ca4f801147f9325a0ea7cc2d7192c5" target="_top" xlink:title=" ">
<polygon fill="white" stroke="#666666" points="97,-59.75 0,-59.75 0,-39 97,-39 97,-59.75"/>
<text text-anchor="middle" x="48.5" y="-46.25" font-family="Helvetica,sans-Serif" font-size="10.00">wrap_w2c__f452</text>
</a>
</g>
</g>
<!-- Node6&#45;&gt;Node7 -->
<g id="edge7_Node000006_Node000007" class="edge">
<title>Node6&#45;&gt;Node7</title>
<g id="a_edge7_Node000006_Node000007"><a xlink:title=" ">
<path fill="none" stroke="#63b8ff" d="M135.95,-49.38C123.53,-49.38 110,-49.38 97.4,-49.38"/>
<polygon fill="#63b8ff" stroke="#63b8ff" points="135.93,-52.88 145.93,-49.38 135.93,-45.88 135.93,-52.88"/>
</a>
</g>
</g>
<!-- Node9 -->
<g id="Node000009" class="node">
<title>Node9</title>
<g id="a_Node000009"><a xlink:href="app_8c.html#a130f07b726020d1add9a7ed5178e023a" target="_top" xlink:title=" ">
<polygon fill="white" stroke="#666666" points="97,-20.75 0,-20.75 0,0 97,0 97,-20.75"/>
<text text-anchor="middle" x="48.5" y="-7.25" font-family="Helvetica,sans-Serif" font-size="10.00">wrap_w2c__f520</text>
</a>
</g>
</g>
<!-- Node8&#45;&gt;Node9 -->
<g id="edge9_Node000008_Node000009" class="edge">
<title>Node8&#45;&gt;Node9</title>
<g id="a_edge9_Node000008_Node000009"><a xlink:title=" ">
<path fill="none" stroke="#63b8ff" d="M135.95,-10.38C123.53,-10.38 110,-10.38 97.4,-10.38"/>
<polygon fill="#63b8ff" stroke="#63b8ff" points="135.93,-13.88 145.93,-10.38 135.93,-6.88 135.93,-13.88"/>
</a>
</g>
</g>
</g>
</svg>
