<?xml version="1.0" encoding="UTF-8" standalone="no"?>
<!DOCTYPE svg PUBLIC "-//W3C//DTD SVG 1.1//EN"
 "http://www.w3.org/Graphics/SVG/1.1/DTD/svg11.dtd">
<!-- Generated by graphviz version 12.2.1 (0)
 -->
<!-- Title: wrap_w2c__f486 Pages: 1 -->
<svg width="313pt" height="47pt"
 viewBox="0.00 0.00 312.50 46.75" xmlns="http://www.w3.org/2000/svg" xmlns:xlink="http://www.w3.org/1999/xlink">
<g id="graph0" class="graph" transform="scale(1 1) rotate(0) translate(4 42.75)">
<title>wrap_w2c__f486</title>
<!-- Node1 -->
<g id="Node000001" class="node">
<title>Node1</title>
<g id="a_Node000001"><a xlink:title=" ">
<polygon fill="#999999" stroke="#666666" points="97,-20.75 0,-20.75 0,0 97,0 97,-20.75"/>
<text text-anchor="middle" x="48.5" y="-7.25" font-family="Helvetica,sans-Serif" font-size="10.00">wrap_w2c__f486</text>
</a>
</g>
</g>
<!-- Node2 -->
<g id="Node000002" class="node">
<title>Node2</title>
<g id="a_Node000002"><a xlink:href="app_8c.html#a1bbe8d069300360d0ed5d877555c239b" target="_top" xlink:title=" ">
<polygon fill="white" stroke="#666666" points="200.75,-20.75 133,-20.75 133,0 200.75,0 200.75,-20.75"/>
<text text-anchor="middle" x="166.88" y="-7.25" font-family="Helvetica,sans-Serif" font-size="10.00">w2c__f486</text>
</a>
</g>
</g>
<!-- Node1&#45;&gt;Node2 -->
<g id="edge1_Node000001_Node000002" class="edge">
<title>Node1&#45;&gt;Node2</title>
<g id="a_edge1_Node000001_Node000002"><a xlink:title=" ">
<path fill="none" stroke="#63b8ff" d="M97.17,-10.38C105.18,-10.38 113.47,-10.38 121.4,-10.38"/>
<polygon fill="#63b8ff" stroke="#63b8ff" points="121.17,-13.88 131.17,-10.38 121.17,-6.88 121.17,-13.88"/>
</a>
</g>
</g>
<!-- Node2&#45;&gt;Node2 -->
<g id="edge4_Node000002_Node000002" class="edge">
<title>Node2&#45;&gt;Node2</title>
<g id="a_edge4_Node000002_Node000002"><a xlink:title=" ">
<path fill="none" stroke="#63b8ff" d="M150.16,-21.15C143.47,-29.81 149.04,-38.75 166.88,-38.75 176.35,-38.75 182.36,-36.23 184.91,-32.56"/>
<polygon fill="#63b8ff" stroke="#63b8ff" points="188.39,-32.18 183.77,-22.65 181.44,-32.99 188.39,-32.18"/>
</a>
</g>
</g>
<!-- Node3 -->
<g id="Node000003" class="node">
<title>Node3</title>
<g id="a_Node000003"><a xlink:href="app_8c.html#afcd683a2449a627612f5937a80981a02" target="_top" xlink:title=" ">
<polygon fill="white" stroke="#666666" points="304.5,-20.75 236.75,-20.75 236.75,0 304.5,0 304.5,-20.75"/>
<text text-anchor="middle" x="270.62" y="-7.25" font-family="Helvetica,sans-Serif" font-size="10.00">w2c__f244</text>
</a>
</g>
</g>
<!-- Node2&#45;&gt;Node3 -->
<g id="edge2_Node000002_Node000003" class="edge">
<title>Node2&#45;&gt;Node3</title>
<g id="a_edge2_Node000002_Node000003"><a xlink:title=" ">
<path fill="none" stroke="#63b8ff" d="M201.19,-10.38C208.82,-10.38 217.06,-10.38 225.08,-10.38"/>
<polygon fill="#63b8ff" stroke="#63b8ff" points="225.07,-13.88 235.07,-10.38 225.07,-6.88 225.07,-13.88"/>
</a>
</g>
</g>
<!-- Node3&#45;&gt;Node3 -->
<g id="edge3_Node000003_Node000003" class="edge">
<title>Node3&#45;&gt;Node3</title>
<g id="a_edge3_Node000003_Node000003"><a xlink:title=" ">
<path fill="none" stroke="#63b8ff" d="M253.91,-21.15C247.22,-29.81 252.79,-38.75 270.62,-38.75 280.1,-38.75 286.11,-36.23 288.66,-32.56"/>
<polygon fill="#63b8ff" stroke="#63b8ff" points="292.14,-32.18 287.52,-22.65 285.19,-32.99 292.14,-32.18"/>
</a>
</g>
</g>
</g>
</svg>
