<?xml version="1.0" encoding="UTF-8" standalone="no"?>
<!DOCTYPE svg PUBLIC "-//W3C//DTD SVG 1.1//EN"
 "http://www.w3.org/Graphics/SVG/1.1/DTD/svg11.dtd">
<!-- Generated by graphviz version 12.2.1 (0)
 -->
<!-- Title: w2c__f368 Pages: 1 -->
<svg width="475pt" height="87pt"
 viewBox="0.00 0.00 474.75 86.75" xmlns="http://www.w3.org/2000/svg" xmlns:xlink="http://www.w3.org/1999/xlink">
<g id="graph0" class="graph" transform="scale(1 1) rotate(0) translate(4 82.75)">
<title>w2c__f368</title>
<!-- Node1 -->
<g id="Node000001" class="node">
<title>Node1</title>
<g id="a_Node000001"><a xlink:title=" ">
<polygon fill="#999999" stroke="#666666" points="466.75,-39.75 399,-39.75 399,-19 466.75,-19 466.75,-39.75"/>
<text text-anchor="middle" x="432.88" y="-26.25" font-family="Helvetica,sans-Serif" font-size="10.00">w2c__f368</text>
</a>
</g>
</g>
<!-- Node2 -->
<g id="Node000002" class="node">
<title>Node2</title>
<g id="a_Node000002"><a xlink:href="app_8c.html#a6c89af74d99f30a7ef134089421e6f69" target="_top" xlink:title=" ">
<polygon fill="white" stroke="#666666" points="348.38,-59.75 280.62,-59.75 280.62,-39 348.38,-39 348.38,-59.75"/>
<text text-anchor="middle" x="314.5" y="-46.25" font-family="Helvetica,sans-Serif" font-size="10.00">w2c__f312</text>
</a>
</g>
</g>
<!-- Node1&#45;&gt;Node2 -->
<g id="edge1_Node000001_Node000002" class="edge">
<title>Node1&#45;&gt;Node2</title>
<g id="a_edge1_Node000001_Node000002"><a xlink:title=" ">
<path fill="none" stroke="#63b8ff" d="M387.55,-36.99C374.71,-39.2 360.91,-41.57 348.85,-43.64"/>
<polygon fill="#63b8ff" stroke="#63b8ff" points="387.77,-40.51 397.03,-35.36 386.59,-33.61 387.77,-40.51"/>
</a>
</g>
</g>
<!-- Node6 -->
<g id="Node000006" class="node">
<title>Node6</title>
<g id="a_Node000006"><a xlink:href="app_8c.html#a96fb844d2cdd3b044fcd9fab6bf0fdd4" target="_top" xlink:title=" ">
<polygon fill="white" stroke="#666666" points="363,-20.75 266,-20.75 266,0 363,0 363,-20.75"/>
<text text-anchor="middle" x="314.5" y="-7.25" font-family="Helvetica,sans-Serif" font-size="10.00">wrap_w2c__f368</text>
</a>
</g>
</g>
<!-- Node1&#45;&gt;Node6 -->
<g id="edge5_Node000001_Node000006" class="edge">
<title>Node1&#45;&gt;Node6</title>
<g id="a_edge5_Node000001_Node000006"><a xlink:title=" ">
<path fill="none" stroke="#63b8ff" d="M387.28,-22.09C379.39,-20.81 371.14,-19.46 363.16,-18.16"/>
<polygon fill="#63b8ff" stroke="#63b8ff" points="386.6,-25.53 397.03,-23.69 387.73,-18.62 386.6,-25.53"/>
</a>
</g>
</g>
<!-- Node3 -->
<g id="Node000003" class="node">
<title>Node3</title>
<g id="a_Node000003"><a xlink:href="app_8c.html#af245d5659b958eabe30540d214352ad8" target="_top" xlink:title=" ">
<polygon fill="white" stroke="#666666" points="215.38,-78.75 147.62,-78.75 147.62,-58 215.38,-58 215.38,-78.75"/>
<text text-anchor="middle" x="181.5" y="-65.25" font-family="Helvetica,sans-Serif" font-size="10.00">w2c__f197</text>
</a>
</g>
</g>
<!-- Node2&#45;&gt;Node3 -->
<g id="edge2_Node000002_Node000003" class="edge">
<title>Node2&#45;&gt;Node3</title>
<g id="a_edge2_Node000002_Node000003"><a xlink:title=" ">
<path fill="none" stroke="#63b8ff" d="M269.28,-55.79C251.71,-58.34 231.83,-61.22 215.55,-63.58"/>
<polygon fill="#63b8ff" stroke="#63b8ff" points="269.55,-59.29 278.95,-54.39 268.55,-52.36 269.55,-59.29"/>
</a>
</g>
</g>
<!-- Node5 -->
<g id="Node000005" class="node">
<title>Node5</title>
<g id="a_Node000005"><a xlink:href="app_8c.html#a07d438f3519d306b5f50b93149af1f10" target="_top" xlink:title=" ">
<polygon fill="white" stroke="#666666" points="230,-39.75 133,-39.75 133,-19 230,-19 230,-39.75"/>
<text text-anchor="middle" x="181.5" y="-26.25" font-family="Helvetica,sans-Serif" font-size="10.00">wrap_w2c__f312</text>
</a>
</g>
</g>
<!-- Node2&#45;&gt;Node5 -->
<g id="edge4_Node000002_Node000005" class="edge">
<title>Node2&#45;&gt;Node5</title>
<g id="a_edge4_Node000002_Node000005"><a xlink:title=" ">
<path fill="none" stroke="#63b8ff" d="M269.33,-42.63C256.81,-40.72 243.13,-38.63 230.4,-36.69"/>
<polygon fill="#63b8ff" stroke="#63b8ff" points="268.53,-46.05 278.95,-44.1 269.59,-39.13 268.53,-46.05"/>
</a>
</g>
</g>
<!-- Node4 -->
<g id="Node000004" class="node">
<title>Node4</title>
<g id="a_Node000004"><a xlink:href="app_8c.html#ac9dfe974277b0ee3fa24e73b7712fe31" target="_top" xlink:title=" ">
<polygon fill="white" stroke="#666666" points="97,-78.75 0,-78.75 0,-58 97,-58 97,-78.75"/>
<text text-anchor="middle" x="48.5" y="-65.25" font-family="Helvetica,sans-Serif" font-size="10.00">wrap_w2c__f197</text>
</a>
</g>
</g>
<!-- Node3&#45;&gt;Node4 -->
<g id="edge3_Node000003_Node000004" class="edge">
<title>Node3&#45;&gt;Node4</title>
<g id="a_edge3_Node000003_Node000004"><a xlink:title=" ">
<path fill="none" stroke="#63b8ff" d="M135.95,-68.38C123.53,-68.38 110,-68.38 97.4,-68.38"/>
<polygon fill="#63b8ff" stroke="#63b8ff" points="135.93,-71.88 145.93,-68.38 135.93,-64.88 135.93,-71.88"/>
</a>
</g>
</g>
</g>
</svg>
