<?xml version="1.0" encoding="UTF-8" standalone="no"?>
<!DOCTYPE svg PUBLIC "-//W3C//DTD SVG 1.1//EN"
 "http://www.w3.org/Graphics/SVG/1.1/DTD/svg11.dtd">
<!-- Generated by graphviz version 12.2.1 (0)
 -->
<!-- Title: w2c__f496 Pages: 1 -->
<svg width="471pt" height="68pt"
 viewBox="0.00 0.00 470.50 67.75" xmlns="http://www.w3.org/2000/svg" xmlns:xlink="http://www.w3.org/1999/xlink">
<g id="graph0" class="graph" transform="scale(1 1) rotate(0) translate(4 63.75)">
<title>w2c__f496</title>
<!-- Node1 -->
<g id="Node000001" class="node">
<title>Node1</title>
<g id="a_Node000001"><a xlink:title=" ">
<polygon fill="#999999" stroke="#666666" points="462.5,-39.75 394.75,-39.75 394.75,-19 462.5,-19 462.5,-39.75"/>
<text text-anchor="middle" x="428.62" y="-26.25" font-family="Helvetica,sans-Serif" font-size="10.00">w2c__f496</text>
</a>
</g>
</g>
<!-- Node1&#45;&gt;Node1 -->
<g id="edge7_Node000001_Node000001" class="edge">
<title>Node1&#45;&gt;Node1</title>
<g id="a_edge7_Node000001_Node000001"><a xlink:title=" ">
<path fill="none" stroke="#63b8ff" d="M446.66,-51.56C444.11,-55.23 438.1,-57.75 428.62,-57.75 410.79,-57.75 405.22,-48.81 411.91,-40.15"/>
<polygon fill="#63b8ff" stroke="#63b8ff" points="450.14,-51.18 445.52,-41.65 443.19,-51.99 450.14,-51.18"/>
</a>
</g>
</g>
<!-- Node2 -->
<g id="Node000002" class="node">
<title>Node2</title>
<g id="a_Node000002"><a xlink:href="app_8c.html#aac449994afd8488e2efd16fb19f0ecb1" target="_top" xlink:title=" ">
<polygon fill="white" stroke="#666666" points="358.75,-39.75 291,-39.75 291,-19 358.75,-19 358.75,-39.75"/>
<text text-anchor="middle" x="324.88" y="-26.25" font-family="Helvetica,sans-Serif" font-size="10.00">w2c__f336</text>
</a>
</g>
</g>
<!-- Node1&#45;&gt;Node2 -->
<g id="edge1_Node000001_Node000002" class="edge">
<title>Node1&#45;&gt;Node2</title>
<g id="a_edge1_Node000001_Node000002"><a xlink:title=" ">
<path fill="none" stroke="#63b8ff" d="M383.07,-29.38C374.96,-29.38 366.63,-29.38 358.92,-29.38"/>
<polygon fill="#63b8ff" stroke="#63b8ff" points="382.79,-32.88 392.79,-29.38 382.79,-25.88 382.79,-32.88"/>
</a>
</g>
</g>
<!-- Node3 -->
<g id="Node000003" class="node">
<title>Node3</title>
<g id="a_Node000003"><a xlink:href="app_8c.html#ac863989691d4c389f80374209c220171" target="_top" xlink:title=" ">
<polygon fill="white" stroke="#666666" points="252.38,-59.75 189.88,-59.75 189.88,-39 252.38,-39 252.38,-59.75"/>
<text text-anchor="middle" x="221.12" y="-46.25" font-family="Helvetica,sans-Serif" font-size="10.00">w2c__c_0</text>
</a>
</g>
</g>
<!-- Node2&#45;&gt;Node3 -->
<g id="edge2_Node000002_Node000003" class="edge">
<title>Node2&#45;&gt;Node3</title>
<g id="a_edge2_Node000002_Node000003"><a xlink:title=" ">
<path fill="none" stroke="#63b8ff" d="M279.4,-38.12C270.41,-39.88 261.15,-41.7 252.76,-43.35"/>
<polygon fill="#63b8ff" stroke="#63b8ff" points="279.94,-41.58 289.07,-36.22 278.59,-34.71 279.94,-41.58"/>
</a>
</g>
</g>
<!-- Node5 -->
<g id="Node000005" class="node">
<title>Node5</title>
<g id="a_Node000005"><a xlink:href="app_8c.html#a8f312e54d76623b1ae169d5d19736ee0" target="_top" xlink:title=" ">
<polygon fill="white" stroke="#666666" points="255,-20.75 187.25,-20.75 187.25,0 255,0 255,-20.75"/>
<text text-anchor="middle" x="221.12" y="-7.25" font-family="Helvetica,sans-Serif" font-size="10.00">w2c__f363</text>
</a>
</g>
</g>
<!-- Node2&#45;&gt;Node5 -->
<g id="edge4_Node000002_Node000005" class="edge">
<title>Node2&#45;&gt;Node5</title>
<g id="a_edge4_Node000002_Node000005"><a xlink:title=" ">
<path fill="none" stroke="#63b8ff" d="M279.32,-21.06C271.21,-19.54 262.88,-17.98 255.17,-16.55"/>
<polygon fill="#63b8ff" stroke="#63b8ff" points="278.6,-24.48 289.07,-22.88 279.88,-17.6 278.6,-24.48"/>
</a>
</g>
</g>
<!-- Node4 -->
<g id="Node000004" class="node">
<title>Node4</title>
<g id="a_Node000004"><a xlink:href="app_8c.html#ab1e039392ea68017ab8a6063263b147d" target="_top" xlink:title=" ">
<polygon fill="white" stroke="#666666" points="145.25,-59.75 94,-59.75 94,-39 145.25,-39 145.25,-59.75"/>
<text text-anchor="middle" x="119.62" y="-46.25" font-family="Helvetica,sans-Serif" font-size="10.00">w2c__c</text>
</a>
</g>
</g>
<!-- Node3&#45;&gt;Node4 -->
<g id="edge3_Node000003_Node000004" class="edge">
<title>Node3&#45;&gt;Node4</title>
<g id="a_edge3_Node000003_Node000004"><a xlink:title=" ">
<path fill="none" stroke="#63b8ff" d="M178.21,-49.38C167.15,-49.38 155.55,-49.38 145.68,-49.38"/>
<polygon fill="#63b8ff" stroke="#63b8ff" points="177.95,-52.88 187.95,-49.38 177.95,-45.88 177.95,-52.88"/>
</a>
</g>
</g>
<!-- Node6 -->
<g id="Node000006" class="node">
<title>Node6</title>
<g id="a_Node000006"><a xlink:href="app_8c.html#a26657f10c51f10eeb57a4d27606a6885" target="_top" xlink:title=" ">
<polygon fill="white" stroke="#666666" points="151.25,-20.75 88,-20.75 88,0 151.25,0 151.25,-20.75"/>
<text text-anchor="middle" x="119.62" y="-7.25" font-family="Helvetica,sans-Serif" font-size="10.00">w2c__b_0</text>
</a>
</g>
</g>
<!-- Node5&#45;&gt;Node6 -->
<g id="edge5_Node000005_Node000006" class="edge">
<title>Node5&#45;&gt;Node6</title>
<g id="a_edge5_Node000005_Node000006"><a xlink:title=" ">
<path fill="none" stroke="#63b8ff" d="M175.71,-10.38C167.57,-10.38 159.23,-10.38 151.59,-10.38"/>
<polygon fill="#63b8ff" stroke="#63b8ff" points="175.48,-13.88 185.48,-10.38 175.48,-6.88 175.48,-13.88"/>
</a>
</g>
</g>
<!-- Node7 -->
<g id="Node000007" class="node">
<title>Node7</title>
<g id="a_Node000007"><a xlink:href="app_8c.html#a683a2045346c3209e9dac20d55933c7d" target="_top" xlink:title=" ">
<polygon fill="white" stroke="#666666" points="52,-20.75 0,-20.75 0,0 52,0 52,-20.75"/>
<text text-anchor="middle" x="26" y="-7.25" font-family="Helvetica,sans-Serif" font-size="10.00">w2c__b</text>
</a>
</g>
</g>
<!-- Node6&#45;&gt;Node7 -->
<g id="edge6_Node000006_Node000007" class="edge">
<title>Node6&#45;&gt;Node7</title>
<g id="a_edge6_Node000006_Node000007"><a xlink:title=" ">
<path fill="none" stroke="#63b8ff" d="M76.21,-10.38C68,-10.38 59.65,-10.38 52.21,-10.38"/>
<polygon fill="#63b8ff" stroke="#63b8ff" points="76.09,-13.88 86.09,-10.38 76.09,-6.88 76.09,-13.88"/>
</a>
</g>
</g>
</g>
</svg>
