<?xml version="1.0" encoding="UTF-8" standalone="no"?>
<!DOCTYPE svg PUBLIC "-//W3C//DTD SVG 1.1//EN"
 "http://www.w3.org/Graphics/SVG/1.1/DTD/svg11.dtd">
<!-- Generated by graphviz version 12.2.1 (0)
 -->
<!-- Title: w2c__f328 Pages: 1 -->
<svg width="549pt" height="68pt"
 viewBox="0.00 0.00 549.25 67.75" xmlns="http://www.w3.org/2000/svg" xmlns:xlink="http://www.w3.org/1999/xlink">
<g id="graph0" class="graph" transform="scale(1 1) rotate(0) translate(4 63.75)">
<title>w2c__f328</title>
<!-- Node1 -->
<g id="Node000001" class="node">
<title>Node1</title>
<g id="a_Node000001"><a xlink:title=" ">
<polygon fill="#999999" stroke="#666666" points="541.25,-40.75 473.5,-40.75 473.5,-20 541.25,-20 541.25,-40.75"/>
<text text-anchor="middle" x="507.38" y="-27.25" font-family="Helvetica,sans-Serif" font-size="10.00">w2c__f328</text>
</a>
</g>
</g>
<!-- Node2 -->
<g id="Node000002" class="node">
<title>Node2</title>
<g id="a_Node000002"><a xlink:href="app_8c.html#a6c30f2996216fe44cdda84ff266f8b19" target="_top" xlink:title=" ">
<polygon fill="white" stroke="#666666" points="319.12,-59.75 251.38,-59.75 251.38,-39 319.12,-39 319.12,-59.75"/>
<text text-anchor="middle" x="285.25" y="-46.25" font-family="Helvetica,sans-Serif" font-size="10.00">w2c__f362</text>
</a>
</g>
</g>
<!-- Node1&#45;&gt;Node2 -->
<g id="edge1_Node000001_Node000002" class="edge">
<title>Node1&#45;&gt;Node2</title>
<g id="a_edge1_Node000001_Node000002"><a xlink:title=" ">
<path fill="none" stroke="#63b8ff" d="M462.11,-34.2C419.95,-37.83 357.46,-43.23 319.43,-46.51"/>
<polygon fill="#63b8ff" stroke="#63b8ff" points="462.25,-37.7 471.91,-33.35 461.65,-30.72 462.25,-37.7"/>
</a>
</g>
</g>
<!-- Node5 -->
<g id="Node000005" class="node">
<title>Node5</title>
<g id="a_Node000005"><a xlink:href="app_8c.html#ab126aac8a4817b5c574e8992e8137aac" target="_top" xlink:title=" ">
<polygon fill="white" stroke="#666666" points="437.5,-21.75 369.75,-21.75 369.75,-1 437.5,-1 437.5,-21.75"/>
<text text-anchor="middle" x="403.62" y="-8.25" font-family="Helvetica,sans-Serif" font-size="10.00">w2c__f365</text>
</a>
</g>
</g>
<!-- Node1&#45;&gt;Node5 -->
<g id="edge4_Node000001_Node000005" class="edge">
<title>Node1&#45;&gt;Node5</title>
<g id="a_edge4_Node000001_Node000005"><a xlink:title=" ">
<path fill="none" stroke="#63b8ff" d="M461.82,-22.06C453.71,-20.54 445.38,-18.98 437.67,-17.55"/>
<polygon fill="#63b8ff" stroke="#63b8ff" points="461.1,-25.48 471.57,-23.88 462.38,-18.6 461.1,-25.48"/>
</a>
</g>
</g>
<!-- Node3 -->
<g id="Node000003" class="node">
<title>Node3</title>
<g id="a_Node000003"><a xlink:href="app_8c.html#a86ae468e235684021eadfdacd5cb9dba" target="_top" xlink:title=" ">
<polygon fill="white" stroke="#666666" points="200.75,-59.75 133,-59.75 133,-39 200.75,-39 200.75,-59.75"/>
<text text-anchor="middle" x="166.88" y="-46.25" font-family="Helvetica,sans-Serif" font-size="10.00">w2c__f452</text>
</a>
</g>
</g>
<!-- Node2&#45;&gt;Node3 -->
<g id="edge2_Node000002_Node000003" class="edge">
<title>Node2&#45;&gt;Node3</title>
<g id="a_edge2_Node000002_Node000003"><a xlink:title=" ">
<path fill="none" stroke="#63b8ff" d="M239.54,-49.38C226.8,-49.38 213.16,-49.38 201.23,-49.38"/>
<polygon fill="#63b8ff" stroke="#63b8ff" points="239.39,-52.88 249.39,-49.38 239.39,-45.88 239.39,-52.88"/>
</a>
</g>
</g>
<!-- Node4 -->
<g id="Node000004" class="node">
<title>Node4</title>
<g id="a_Node000004"><a xlink:href="app_8c.html#a57ca4f801147f9325a0ea7cc2d7192c5" target="_top" xlink:title=" ">
<polygon fill="white" stroke="#666666" points="97,-59.75 0,-59.75 0,-39 97,-39 97,-59.75"/>
<text text-anchor="middle" x="48.5" y="-46.25" font-family="Helvetica,sans-Serif" font-size="10.00">wrap_w2c__f452</text>
</a>
</g>
</g>
<!-- Node3&#45;&gt;Node4 -->
<g id="edge3_Node000003_Node000004" class="edge">
<title>Node3&#45;&gt;Node4</title>
<g id="a_edge3_Node000003_Node000004"><a xlink:title=" ">
<path fill="none" stroke="#63b8ff" d="M121.28,-49.38C113.39,-49.38 105.14,-49.38 97.16,-49.38"/>
<polygon fill="#63b8ff" stroke="#63b8ff" points="121.01,-52.88 131.01,-49.38 121.01,-45.88 121.01,-52.88"/>
</a>
</g>
</g>
<!-- Node5&#45;&gt;Node2 -->
<g id="edge5_Node000005_Node000002" class="edge">
<title>Node5&#45;&gt;Node2</title>
<g id="a_edge5_Node000005_Node000002"><a xlink:title=" ">
<path fill="none" stroke="#63b8ff" d="M358.9,-25.65C345.8,-29.93 331.66,-34.55 319.37,-38.56"/>
<polygon fill="#63b8ff" stroke="#63b8ff" points="359.73,-29.06 368.15,-22.63 357.56,-22.41 359.73,-29.06"/>
</a>
</g>
</g>
<!-- Node6 -->
<g id="Node000006" class="node">
<title>Node6</title>
<g id="a_Node000006"><a xlink:href="app_8c.html#accc2bca59262d1758a00d538b9f76807" target="_top" xlink:title=" ">
<polygon fill="white" stroke="#666666" points="333.75,-20.75 236.75,-20.75 236.75,0 333.75,0 333.75,-20.75"/>
<text text-anchor="middle" x="285.25" y="-7.25" font-family="Helvetica,sans-Serif" font-size="10.00">wrap_w2c__f365</text>
</a>
</g>
</g>
<!-- Node5&#45;&gt;Node6 -->
<g id="edge6_Node000005_Node000006" class="edge">
<title>Node5&#45;&gt;Node6</title>
<g id="a_edge6_Node000005_Node000006"><a xlink:title=" ">
<path fill="none" stroke="#63b8ff" d="M358.03,-10.99C350.14,-10.92 341.89,-10.85 333.91,-10.78"/>
<polygon fill="#63b8ff" stroke="#63b8ff" points="357.73,-14.49 367.76,-11.08 357.79,-7.49 357.73,-14.49"/>
</a>
</g>
</g>
</g>
</svg>
