<?xml version="1.0" encoding="UTF-8" standalone="no"?>
<!DOCTYPE svg PUBLIC "-//W3C//DTD SVG 1.1//EN"
 "http://www.w3.org/Graphics/SVG/1.1/DTD/svg11.dtd">
<!-- Generated by graphviz version 12.2.1 (0)
 -->
<!-- Title: wrap_w2c__f256 Pages: 1 -->
<svg width="415pt" height="224pt"
 viewBox="0.00 0.00 414.75 223.75" xmlns="http://www.w3.org/2000/svg" xmlns:xlink="http://www.w3.org/1999/xlink">
<g id="graph0" class="graph" transform="scale(1 1) rotate(0) translate(4 219.75)">
<title>wrap_w2c__f256</title>
<!-- Node1 -->
<g id="Node000001" class="node">
<title>Node1</title>
<g id="a_Node000001"><a xlink:title=" ">
<polygon fill="#999999" stroke="#666666" points="97,-117.75 0,-117.75 0,-97 97,-97 97,-117.75"/>
<text text-anchor="middle" x="48.5" y="-104.25" font-family="Helvetica,sans-Serif" font-size="10.00">wrap_w2c__f256</text>
</a>
</g>
</g>
<!-- Node2 -->
<g id="Node000002" class="node">
<title>Node2</title>
<g id="a_Node000002"><a xlink:href="app_8c.html#a5afd0bdcabe1312572f585b64e00c911" target="_top" xlink:title=" ">
<polygon fill="white" stroke="#666666" points="200.75,-117.75 133,-117.75 133,-97 200.75,-97 200.75,-117.75"/>
<text text-anchor="middle" x="166.88" y="-104.25" font-family="Helvetica,sans-Serif" font-size="10.00">w2c__f256</text>
</a>
</g>
</g>
<!-- Node1&#45;&gt;Node2 -->
<g id="edge1_Node000001_Node000002" class="edge">
<title>Node1&#45;&gt;Node2</title>
<g id="a_edge1_Node000001_Node000002"><a xlink:title=" ">
<path fill="none" stroke="#63b8ff" d="M97.17,-107.38C105.18,-107.38 113.47,-107.38 121.4,-107.38"/>
<polygon fill="#63b8ff" stroke="#63b8ff" points="121.17,-110.88 131.17,-107.38 121.17,-103.88 121.17,-110.88"/>
</a>
</g>
</g>
<!-- Node3 -->
<g id="Node000003" class="node">
<title>Node3</title>
<g id="a_Node000003"><a xlink:href="app_8c.html#add88601cb03b410d0c4bc8f456c3ae55" target="_top" xlink:title=" ">
<polygon fill="white" stroke="#666666" points="306.75,-215.75 236.75,-215.75 236.75,-195 306.75,-195 306.75,-215.75"/>
<text text-anchor="middle" x="271.75" y="-202.25" font-family="Helvetica,sans-Serif" font-size="10.00">w2c_0_104</text>
</a>
</g>
</g>
<!-- Node2&#45;&gt;Node3 -->
<g id="edge2_Node000002_Node000003" class="edge">
<title>Node2&#45;&gt;Node3</title>
<g id="a_edge2_Node000002_Node000003"><a xlink:title=" ">
<path fill="none" stroke="#63b8ff" d="M175.65,-118.18C187.54,-134.19 211.52,-164.57 236.75,-185.38 238,-186.41 239.32,-187.42 240.67,-188.41"/>
<polygon fill="#63b8ff" stroke="#63b8ff" points="238.38,-191.1 248.65,-193.69 242.24,-185.26 238.38,-191.1"/>
</a>
</g>
</g>
<!-- Node4 -->
<g id="Node000004" class="node">
<title>Node4</title>
<g id="a_Node000004"><a xlink:href="app_8c.html#ae68178bc105b2d45ebe022d5f9bc03f7" target="_top" xlink:title=" ">
<polygon fill="white" stroke="#666666" points="306.75,-176.75 236.75,-176.75 236.75,-156 306.75,-156 306.75,-176.75"/>
<text text-anchor="middle" x="271.75" y="-163.25" font-family="Helvetica,sans-Serif" font-size="10.00">w2c_0_159</text>
</a>
</g>
</g>
<!-- Node2&#45;&gt;Node4 -->
<g id="edge3_Node000002_Node000004" class="edge">
<title>Node2&#45;&gt;Node4</title>
<g id="a_edge3_Node000002_Node000004"><a xlink:title=" ">
<path fill="none" stroke="#63b8ff" d="M186.74,-118.2C202.26,-127.1 224.49,-139.85 242.19,-150"/>
<polygon fill="#63b8ff" stroke="#63b8ff" points="240.27,-152.93 250.69,-154.87 243.75,-146.86 240.27,-152.93"/>
</a>
</g>
</g>
<!-- Node5 -->
<g id="Node000005" class="node">
<title>Node5</title>
<g id="a_Node000005"><a xlink:href="app_8c.html#af3b7c5a4a8f14b9383b243d8c06b1301" target="_top" xlink:title=" ">
<polygon fill="white" stroke="#666666" points="306.75,-137.75 236.75,-137.75 236.75,-117 306.75,-117 306.75,-137.75"/>
<text text-anchor="middle" x="271.75" y="-124.25" font-family="Helvetica,sans-Serif" font-size="10.00">w2c_0_172</text>
</a>
</g>
</g>
<!-- Node2&#45;&gt;Node5 -->
<g id="edge4_Node000002_Node000005" class="edge">
<title>Node2&#45;&gt;Node5</title>
<g id="a_edge4_Node000002_Node000005"><a xlink:title=" ">
<path fill="none" stroke="#63b8ff" d="M200.99,-113.81C208.66,-115.3 216.95,-116.92 225.04,-118.49"/>
<polygon fill="#63b8ff" stroke="#63b8ff" points="224.31,-121.91 234.79,-120.38 225.65,-115.04 224.31,-121.91"/>
</a>
</g>
</g>
<!-- Node6 -->
<g id="Node000006" class="node">
<title>Node6</title>
<g id="a_Node000006"><a xlink:href="app_8c.html#aa018dbf3bc5814e93cedb41f14e2b4d9" target="_top" xlink:title=" ">
<polygon fill="white" stroke="#666666" points="303.75,-98.75 239.75,-98.75 239.75,-78 303.75,-78 303.75,-98.75"/>
<text text-anchor="middle" x="271.75" y="-85.25" font-family="Helvetica,sans-Serif" font-size="10.00">w2c_0_19</text>
</a>
</g>
</g>
<!-- Node2&#45;&gt;Node6 -->
<g id="edge5_Node000002_Node000006" class="edge">
<title>Node2&#45;&gt;Node6</title>
<g id="a_edge5_Node000002_Node000006"><a xlink:title=" ">
<path fill="none" stroke="#63b8ff" d="M200.99,-101.26C209.66,-99.66 219.14,-97.91 228.23,-96.23"/>
<polygon fill="#63b8ff" stroke="#63b8ff" points="228.76,-99.69 237.96,-94.43 227.49,-92.81 228.76,-99.69"/>
</a>
</g>
</g>
<!-- Node7 -->
<g id="Node000007" class="node">
<title>Node7</title>
<g id="a_Node000007"><a xlink:href="app_8c.html#aec29ea126421b36c7ea313062dea6ec6" target="_top" xlink:title=" ">
<polygon fill="white" stroke="#666666" points="303.75,-59.75 239.75,-59.75 239.75,-39 303.75,-39 303.75,-59.75"/>
<text text-anchor="middle" x="271.75" y="-46.25" font-family="Helvetica,sans-Serif" font-size="10.00">w2c_0_35</text>
</a>
</g>
</g>
<!-- Node2&#45;&gt;Node7 -->
<g id="edge6_Node000002_Node000007" class="edge">
<title>Node2&#45;&gt;Node7</title>
<g id="a_edge6_Node000002_Node000007"><a xlink:title=" ">
<path fill="none" stroke="#63b8ff" d="M186.74,-96.74C202.16,-88.04 224.22,-75.61 241.86,-65.66"/>
<polygon fill="#63b8ff" stroke="#63b8ff" points="243.34,-68.85 250.33,-60.89 239.9,-62.75 243.34,-68.85"/>
</a>
</g>
</g>
<!-- Node8 -->
<g id="Node000008" class="node">
<title>Node8</title>
<g id="a_Node000008"><a xlink:href="app_8c.html#a19209c6f5685e2e28a1b671ece901600" target="_top" xlink:title=" ">
<polygon fill="white" stroke="#666666" points="305.62,-20.75 237.88,-20.75 237.88,0 305.62,0 305.62,-20.75"/>
<text text-anchor="middle" x="271.75" y="-7.25" font-family="Helvetica,sans-Serif" font-size="10.00">w2c__f335</text>
</a>
</g>
</g>
<!-- Node2&#45;&gt;Node8 -->
<g id="edge7_Node000002_Node000008" class="edge">
<title>Node2&#45;&gt;Node8</title>
<g id="a_edge7_Node000002_Node000008"><a xlink:title=" ">
<path fill="none" stroke="#63b8ff" d="M175.68,-96.72C187.61,-80.92 211.64,-50.95 236.75,-30.38 238.01,-29.34 239.33,-28.33 240.68,-27.35"/>
<polygon fill="#63b8ff" stroke="#63b8ff" points="242.25,-30.5 248.67,-22.07 238.39,-24.66 242.25,-30.5"/>
</a>
</g>
</g>
<!-- Node9 -->
<g id="Node000009" class="node">
<title>Node9</title>
<g id="a_Node000009"><a xlink:href="app_8c.html#a84a707cc8c74624a4f1db785844c7211" target="_top" xlink:title=" ">
<polygon fill="white" stroke="#666666" points="406.75,-20.75 342.75,-20.75 342.75,0 406.75,0 406.75,-20.75"/>
<text text-anchor="middle" x="374.75" y="-7.25" font-family="Helvetica,sans-Serif" font-size="10.00">w2c_0_92</text>
</a>
</g>
</g>
<!-- Node8&#45;&gt;Node9 -->
<g id="edge8_Node000008_Node000009" class="edge">
<title>Node8&#45;&gt;Node9</title>
<g id="a_edge8_Node000008_Node000009"><a xlink:title=" ">
<path fill="none" stroke="#63b8ff" d="M306.1,-10.38C314.07,-10.38 322.68,-10.38 331.01,-10.38"/>
<polygon fill="#63b8ff" stroke="#63b8ff" points="330.97,-13.88 340.97,-10.38 330.97,-6.88 330.97,-13.88"/>
</a>
</g>
</g>
</g>
</svg>
