<?xml version="1.0" encoding="UTF-8" standalone="no"?>
<!DOCTYPE svg PUBLIC "-//W3C//DTD SVG 1.1//EN"
 "http://www.w3.org/Graphics/SVG/1.1/DTD/svg11.dtd">
<!-- Generated by graphviz version 12.2.1 (0)
 -->
<!-- Title: w2c_0_168 Pages: 1 -->
<svg width="389pt" height="220pt"
 viewBox="0.00 0.00 389.25 219.75" xmlns="http://www.w3.org/2000/svg" xmlns:xlink="http://www.w3.org/1999/xlink">
<g id="graph0" class="graph" transform="scale(1 1) rotate(0) translate(4 215.75)">
<title>w2c_0_168</title>
<!-- Node1 -->
<g id="Node000001" class="node">
<title>Node1</title>
<g id="a_Node000001"><a xlink:title=" ">
<polygon fill="#999999" stroke="#666666" points="381.25,-115.75 311.25,-115.75 311.25,-95 381.25,-95 381.25,-115.75"/>
<text text-anchor="middle" x="346.25" y="-102.25" font-family="Helvetica,sans-Serif" font-size="10.00">w2c_0_168</text>
</a>
</g>
</g>
<!-- Node2 -->
<g id="Node000002" class="node">
<title>Node2</title>
<g id="a_Node000002"><a xlink:href="app_8c.html#ab5a3eb75567e85becd3ea69f3cefe6c1" target="_top" xlink:title=" ">
<polygon fill="white" stroke="#666666" points="275.25,-211.75 207.5,-211.75 207.5,-191 275.25,-191 275.25,-211.75"/>
<text text-anchor="middle" x="241.38" y="-198.25" font-family="Helvetica,sans-Serif" font-size="10.00">w2c__f285</text>
</a>
</g>
</g>
<!-- Node1&#45;&gt;Node2 -->
<g id="edge1_Node000001_Node000002" class="edge">
<title>Node1&#45;&gt;Node2</title>
<g id="a_edge1_Node000001_Node000002"><a xlink:title=" ">
<path fill="none" stroke="#63b8ff" d="M328.16,-124.66C314.47,-139.69 294.44,-160.72 275.25,-177.38 269.91,-182.01 263.73,-186.68 258.18,-190.66"/>
<polygon fill="#63b8ff" stroke="#63b8ff" points="330.7,-127.08 334.79,-117.3 325.5,-122.39 330.7,-127.08"/>
</a>
</g>
</g>
<!-- Node3 -->
<g id="Node000003" class="node">
<title>Node3</title>
<g id="a_Node000003"><a xlink:href="app_8c.html#adb357000a4d9b03118bb4a6a7435605d" target="_top" xlink:title=" ">
<polygon fill="white" stroke="#666666" points="171.5,-135.75 103.75,-135.75 103.75,-115 171.5,-115 171.5,-135.75"/>
<text text-anchor="middle" x="137.62" y="-122.25" font-family="Helvetica,sans-Serif" font-size="10.00">w2c__f404</text>
</a>
</g>
</g>
<!-- Node1&#45;&gt;Node3 -->
<g id="edge9_Node000001_Node000003" class="edge">
<title>Node1&#45;&gt;Node3</title>
<g id="a_edge9_Node000001_Node000003"><a xlink:title=" ">
<path fill="none" stroke="#63b8ff" d="M321.64,-122.51C308.64,-130.89 291.82,-140.07 275.25,-144.38 239.21,-153.74 196.54,-144.72 168.6,-136.19"/>
<polygon fill="#63b8ff" stroke="#63b8ff" points="323.58,-125.43 329.91,-116.93 319.67,-119.62 323.58,-125.43"/>
</a>
</g>
</g>
<!-- Node4 -->
<g id="Node000004" class="node">
<title>Node4</title>
<g id="a_Node000004"><a xlink:href="app_8c.html#a05d83e696cfaa26355c9732ee9ea4cd0" target="_top" xlink:title=" ">
<polygon fill="white" stroke="#666666" points="67.75,-96.75 0,-96.75 0,-76 67.75,-76 67.75,-96.75"/>
<text text-anchor="middle" x="33.88" y="-83.25" font-family="Helvetica,sans-Serif" font-size="10.00">w2c__f454</text>
</a>
</g>
</g>
<!-- Node1&#45;&gt;Node4 -->
<g id="edge10_Node000001_Node000004" class="edge">
<title>Node1&#45;&gt;Node4</title>
<g id="a_edge10_Node000001_Node000004"><a xlink:title=" ">
<path fill="none" stroke="#63b8ff" d="M321.08,-88.36C308.13,-80.28 291.54,-71.51 275.25,-67.38 203.03,-49.04 115.03,-65.39 68.11,-77.05"/>
<polygon fill="#63b8ff" stroke="#63b8ff" points="319.05,-91.21 329.33,-93.75 322.88,-85.35 319.05,-91.21"/>
</a>
</g>
</g>
<!-- Node5 -->
<g id="Node000005" class="node">
<title>Node5</title>
<g id="a_Node000005"><a xlink:href="app_8c.html#a90092f313c3529894f5b07df3b2baa3a" target="_top" xlink:title=" ">
<polygon fill="white" stroke="#666666" points="275.25,-135.75 207.5,-135.75 207.5,-115 275.25,-115 275.25,-135.75"/>
<text text-anchor="middle" x="241.38" y="-122.25" font-family="Helvetica,sans-Serif" font-size="10.00">w2c__f364</text>
</a>
</g>
</g>
<!-- Node1&#45;&gt;Node5 -->
<g id="edge4_Node000001_Node000005" class="edge">
<title>Node1&#45;&gt;Node5</title>
<g id="a_edge4_Node000001_Node000005"><a xlink:title=" ">
<path fill="none" stroke="#63b8ff" d="M299.96,-114.18C291.71,-115.78 283.25,-117.43 275.43,-118.95"/>
<polygon fill="#63b8ff" stroke="#63b8ff" points="300.36,-117.67 309.51,-112.32 299.02,-110.8 300.36,-117.67"/>
</a>
</g>
</g>
<!-- Node6 -->
<g id="Node000006" class="node">
<title>Node6</title>
<g id="a_Node000006"><a xlink:href="app_8c.html#a4b4464bc0bc06853b9af4b408d460453" target="_top" xlink:title=" ">
<polygon fill="white" stroke="#666666" points="275.25,-96.75 207.5,-96.75 207.5,-76 275.25,-76 275.25,-96.75"/>
<text text-anchor="middle" x="241.38" y="-83.25" font-family="Helvetica,sans-Serif" font-size="10.00">w2c__f376</text>
</a>
</g>
</g>
<!-- Node1&#45;&gt;Node6 -->
<g id="edge6_Node000001_Node000006" class="edge">
<title>Node1&#45;&gt;Node6</title>
<g id="a_edge6_Node000001_Node000006"><a xlink:title=" ">
<path fill="none" stroke="#63b8ff" d="M299.68,-96.96C291.52,-95.45 283.16,-93.91 275.43,-92.48"/>
<polygon fill="#63b8ff" stroke="#63b8ff" points="299.04,-100.4 309.51,-98.77 300.31,-93.52 299.04,-100.4"/>
</a>
</g>
</g>
<!-- Node7 -->
<g id="Node000007" class="node">
<title>Node7</title>
<g id="a_Node000007"><a xlink:href="app_8c.html#a980a551daeb256397f01e6faa91d49db" target="_top" xlink:title=" ">
<polygon fill="white" stroke="#666666" points="275.25,-20.75 207.5,-20.75 207.5,0 275.25,0 275.25,-20.75"/>
<text text-anchor="middle" x="241.38" y="-7.25" font-family="Helvetica,sans-Serif" font-size="10.00">w2c__f403</text>
</a>
</g>
</g>
<!-- Node1&#45;&gt;Node7 -->
<g id="edge8_Node000001_Node000007" class="edge">
<title>Node1&#45;&gt;Node7</title>
<g id="a_edge8_Node000001_Node000007"><a xlink:title=" ">
<path fill="none" stroke="#63b8ff" d="M328.12,-86.38C314.4,-71.58 294.36,-50.85 275.25,-34.38 269.9,-29.76 263.71,-25.09 258.16,-21.11"/>
<polygon fill="#63b8ff" stroke="#63b8ff" points="325.41,-88.61 334.75,-93.62 330.58,-83.88 325.41,-88.61"/>
</a>
</g>
</g>
<!-- Node2&#45;&gt;Node3 -->
<g id="edge2_Node000002_Node000003" class="edge">
<title>Node2&#45;&gt;Node3</title>
<g id="a_edge2_Node000002_Node000003"><a xlink:title=" ">
<path fill="none" stroke="#63b8ff" d="M216.35,-183.9C213.36,-181.71 210.36,-179.5 207.5,-177.38 188.49,-163.26 166.71,-146.76 152.82,-136.2"/>
<polygon fill="#63b8ff" stroke="#63b8ff" points="214.25,-186.7 224.39,-189.78 218.38,-181.05 214.25,-186.7"/>
</a>
</g>
</g>
<!-- Node3&#45;&gt;Node4 -->
<g id="edge3_Node000003_Node000004" class="edge">
<title>Node3&#45;&gt;Node4</title>
<g id="a_edge3_Node000003_Node000004"><a xlink:title=" ">
<path fill="none" stroke="#63b8ff" d="M97.6,-110.42C86.1,-106.01 73.74,-101.27 63.07,-97.18"/>
<polygon fill="#63b8ff" stroke="#63b8ff" points="96.28,-113.66 106.87,-113.97 98.78,-107.12 96.28,-113.66"/>
</a>
</g>
</g>
<!-- Node5&#45;&gt;Node3 -->
<g id="edge5_Node000005_Node000003" class="edge">
<title>Node5&#45;&gt;Node3</title>
<g id="a_edge5_Node000005_Node000003"><a xlink:title=" ">
<path fill="none" stroke="#63b8ff" d="M195.82,-125.38C187.71,-125.38 179.38,-125.38 171.67,-125.38"/>
<polygon fill="#63b8ff" stroke="#63b8ff" points="195.54,-128.88 205.54,-125.38 195.54,-121.88 195.54,-128.88"/>
</a>
</g>
</g>
<!-- Node6&#45;&gt;Node3 -->
<g id="edge7_Node000006_Node000003" class="edge">
<title>Node6&#45;&gt;Node3</title>
<g id="a_edge7_Node000006_Node000003"><a xlink:title=" ">
<path fill="none" stroke="#63b8ff" d="M201.35,-101.33C189.85,-105.74 177.49,-110.48 166.82,-114.57"/>
<polygon fill="#63b8ff" stroke="#63b8ff" points="202.53,-104.63 210.62,-97.78 200.03,-98.09 202.53,-104.63"/>
</a>
</g>
</g>
</g>
</svg>
