<?xml version="1.0" encoding="UTF-8" standalone="no"?>
<!DOCTYPE svg PUBLIC "-//W3C//DTD SVG 1.1//EN"
 "http://www.w3.org/Graphics/SVG/1.1/DTD/svg11.dtd">
<!-- Generated by graphviz version 12.2.1 (0)
 -->
<!-- Title: wrap_w2c__f317 Pages: 1 -->
<svg width="522pt" height="105pt"
 viewBox="0.00 0.00 522.25 104.75" xmlns="http://www.w3.org/2000/svg" xmlns:xlink="http://www.w3.org/1999/xlink">
<g id="graph0" class="graph" transform="scale(1 1) rotate(0) translate(4 100.75)">
<title>wrap_w2c__f317</title>
<!-- Node1 -->
<g id="Node000001" class="node">
<title>Node1</title>
<g id="a_Node000001"><a xlink:title=" ">
<polygon fill="#999999" stroke="#666666" points="97,-58.75 0,-58.75 0,-38 97,-38 97,-58.75"/>
<text text-anchor="middle" x="48.5" y="-45.25" font-family="Helvetica,sans-Serif" font-size="10.00">wrap_w2c__f317</text>
</a>
</g>
</g>
<!-- Node2 -->
<g id="Node000002" class="node">
<title>Node2</title>
<g id="a_Node000002"><a xlink:href="app_8c.html#a7836d11fc7a27305570f2647bd815b60" target="_top" xlink:title=" ">
<polygon fill="white" stroke="#666666" points="200.75,-58.75 133,-58.75 133,-38 200.75,-38 200.75,-58.75"/>
<text text-anchor="middle" x="166.88" y="-45.25" font-family="Helvetica,sans-Serif" font-size="10.00">w2c__f317</text>
</a>
</g>
</g>
<!-- Node1&#45;&gt;Node2 -->
<g id="edge1_Node000001_Node000002" class="edge">
<title>Node1&#45;&gt;Node2</title>
<g id="a_edge1_Node000001_Node000002"><a xlink:title=" ">
<path fill="none" stroke="#63b8ff" d="M97.17,-48.38C105.18,-48.38 113.47,-48.38 121.4,-48.38"/>
<polygon fill="#63b8ff" stroke="#63b8ff" points="121.17,-51.88 131.17,-48.38 121.17,-44.88 121.17,-51.88"/>
</a>
</g>
</g>
<!-- Node3 -->
<g id="Node000003" class="node">
<title>Node3</title>
<g id="a_Node000003"><a xlink:href="app_8c.html#abd001155947e0836c9fc8b48d31f8cac" target="_top" xlink:title=" ">
<polygon fill="white" stroke="#666666" points="304.5,-58.75 236.75,-58.75 236.75,-38 304.5,-38 304.5,-58.75"/>
<text text-anchor="middle" x="270.62" y="-45.25" font-family="Helvetica,sans-Serif" font-size="10.00">w2c__f482</text>
</a>
</g>
</g>
<!-- Node2&#45;&gt;Node3 -->
<g id="edge2_Node000002_Node000003" class="edge">
<title>Node2&#45;&gt;Node3</title>
<g id="a_edge2_Node000002_Node000003"><a xlink:title=" ">
<path fill="none" stroke="#63b8ff" d="M201.19,-48.38C208.82,-48.38 217.06,-48.38 225.08,-48.38"/>
<polygon fill="#63b8ff" stroke="#63b8ff" points="225.07,-51.88 235.07,-48.38 225.07,-44.88 225.07,-51.88"/>
</a>
</g>
</g>
<!-- Node4 -->
<g id="Node000004" class="node">
<title>Node4</title>
<g id="a_Node000004"><a xlink:href="app_8c.html#ae910d950b82aa1f4bb1baa5f02e52b37" target="_top" xlink:title=" ">
<polygon fill="white" stroke="#666666" points="408.25,-96.75 340.5,-96.75 340.5,-76 408.25,-76 408.25,-96.75"/>
<text text-anchor="middle" x="374.38" y="-83.25" font-family="Helvetica,sans-Serif" font-size="10.00">w2c__f469</text>
</a>
</g>
</g>
<!-- Node3&#45;&gt;Node4 -->
<g id="edge3_Node000003_Node000004" class="edge">
<title>Node3&#45;&gt;Node4</title>
<g id="a_edge3_Node000003_Node000004"><a xlink:title=" ">
<path fill="none" stroke="#63b8ff" d="M300.51,-59.16C310.82,-63.01 322.63,-67.42 333.69,-71.55"/>
<polygon fill="#63b8ff" stroke="#63b8ff" points="332.41,-74.81 343,-75.03 334.86,-68.25 332.41,-74.81"/>
</a>
</g>
</g>
<!-- Node6 -->
<g id="Node000006" class="node">
<title>Node6</title>
<g id="a_Node000006"><a xlink:href="app_8c.html#ab78a9ba6819f5a9d3b53302097151d33" target="_top" xlink:title=" ">
<polygon fill="white" stroke="#666666" points="513.12,-39.75 445.38,-39.75 445.38,-19 513.12,-19 513.12,-39.75"/>
<text text-anchor="middle" x="479.25" y="-26.25" font-family="Helvetica,sans-Serif" font-size="10.00">w2c__f481</text>
</a>
</g>
</g>
<!-- Node3&#45;&gt;Node6 -->
<g id="edge5_Node000003_Node000006" class="edge">
<title>Node3&#45;&gt;Node6</title>
<g id="a_edge5_Node000003_Node000006"><a xlink:title=" ">
<path fill="none" stroke="#63b8ff" d="M304.82,-45.32C339.77,-42.11 394.97,-37.03 433.69,-33.47"/>
<polygon fill="#63b8ff" stroke="#63b8ff" points="433.99,-36.96 443.63,-32.56 433.35,-29.99 433.99,-36.96"/>
</a>
</g>
</g>
<!-- Node7 -->
<g id="Node000007" class="node">
<title>Node7</title>
<g id="a_Node000007"><a xlink:href="app_8c.html#a710a90b53ca9da85f7059545f9c0c53f" target="_top" xlink:title=" ">
<polygon fill="white" stroke="#666666" points="408.25,-20.75 340.5,-20.75 340.5,0 408.25,0 408.25,-20.75"/>
<text text-anchor="middle" x="374.38" y="-7.25" font-family="Helvetica,sans-Serif" font-size="10.00">w2c__f527</text>
</a>
</g>
</g>
<!-- Node3&#45;&gt;Node7 -->
<g id="edge6_Node000003_Node000007" class="edge">
<title>Node3&#45;&gt;Node7</title>
<g id="a_edge6_Node000003_Node000007"><a xlink:title=" ">
<path fill="none" stroke="#63b8ff" d="M300.51,-37.59C310.82,-33.74 322.63,-29.33 333.69,-25.2"/>
<polygon fill="#63b8ff" stroke="#63b8ff" points="334.86,-28.5 343,-21.72 332.41,-21.94 334.86,-28.5"/>
</a>
</g>
</g>
<!-- Node5 -->
<g id="Node000005" class="node">
<title>Node5</title>
<g id="a_Node000005"><a xlink:href="app_8c.html#a0459db85ff19e57f5b71f92f3ebd87db" target="_top" xlink:title=" ">
<polygon fill="white" stroke="#666666" points="514.25,-96.75 444.25,-96.75 444.25,-76 514.25,-76 514.25,-96.75"/>
<text text-anchor="middle" x="479.25" y="-83.25" font-family="Helvetica,sans-Serif" font-size="10.00">w2c_0_115</text>
</a>
</g>
</g>
<!-- Node4&#45;&gt;Node5 -->
<g id="edge4_Node000004_Node000005" class="edge">
<title>Node4&#45;&gt;Node5</title>
<g id="a_edge4_Node000004_Node000005"><a xlink:title=" ">
<path fill="none" stroke="#63b8ff" d="M408.49,-86.38C416.16,-86.38 424.45,-86.38 432.54,-86.38"/>
<polygon fill="#63b8ff" stroke="#63b8ff" points="432.27,-89.88 442.27,-86.38 432.27,-82.88 432.27,-89.88"/>
</a>
</g>
</g>
<!-- Node7&#45;&gt;Node6 -->
<g id="edge7_Node000007_Node000006" class="edge">
<title>Node7&#45;&gt;Node6</title>
<g id="a_edge7_Node000007_Node000006"><a xlink:title=" ">
<path fill="none" stroke="#63b8ff" d="M408.49,-16.49C416.66,-18 425.54,-19.64 434.14,-21.23"/>
<polygon fill="#63b8ff" stroke="#63b8ff" points="433.24,-24.62 443.71,-23 434.51,-17.74 433.24,-24.62"/>
</a>
</g>
</g>
</g>
</svg>
