<?xml version="1.0" encoding="UTF-8" standalone="no"?>
<!DOCTYPE svg PUBLIC "-//W3C//DTD SVG 1.1//EN"
 "http://www.w3.org/Graphics/SVG/1.1/DTD/svg11.dtd">
<!-- Generated by graphviz version 12.2.1 (0)
 -->
<!-- Title: w2c__f229 Pages: 1 -->
<svg width="666pt" height="144pt"
 viewBox="0.00 0.00 665.75 143.75" xmlns="http://www.w3.org/2000/svg" xmlns:xlink="http://www.w3.org/1999/xlink">
<g id="graph0" class="graph" transform="scale(1 1) rotate(0) translate(4 139.75)">
<title>w2c__f229</title>
<!-- Node1 -->
<g id="Node000001" class="node">
<title>Node1</title>
<g id="a_Node000001"><a xlink:title=" ">
<polygon fill="#999999" stroke="#666666" points="657.75,-58.75 590,-58.75 590,-38 657.75,-38 657.75,-58.75"/>
<text text-anchor="middle" x="623.88" y="-45.25" font-family="Helvetica,sans-Serif" font-size="10.00">w2c__f229</text>
</a>
</g>
</g>
<!-- Node2 -->
<g id="Node000002" class="node">
<title>Node2</title>
<g id="a_Node000002"><a xlink:href="app_8c.html#af0207b53ee10049250e9aab3d597eb1b" target="_top" xlink:title=" ">
<polygon fill="white" stroke="#666666" points="539.38,-78.75 471.62,-78.75 471.62,-58 539.38,-58 539.38,-78.75"/>
<text text-anchor="middle" x="505.5" y="-65.25" font-family="Helvetica,sans-Serif" font-size="10.00">w2c__f442</text>
</a>
</g>
</g>
<!-- Node1&#45;&gt;Node2 -->
<g id="edge1_Node000001_Node000002" class="edge">
<title>Node1&#45;&gt;Node2</title>
<g id="a_edge1_Node000001_Node000002"><a xlink:title=" ">
<path fill="none" stroke="#63b8ff" d="M578.55,-55.99C565.71,-58.2 551.91,-60.57 539.85,-62.64"/>
<polygon fill="#63b8ff" stroke="#63b8ff" points="578.77,-59.51 588.03,-54.36 577.59,-52.61 578.77,-59.51"/>
</a>
</g>
</g>
<!-- Node12 -->
<g id="Node000012" class="node">
<title>Node12</title>
<g id="a_Node000012"><a xlink:href="app_8c.html#a33eb60d257628dba71940b72b7b57538" target="_top" xlink:title=" ">
<polygon fill="white" stroke="#666666" points="554,-39.75 457,-39.75 457,-19 554,-19 554,-39.75"/>
<text text-anchor="middle" x="505.5" y="-26.25" font-family="Helvetica,sans-Serif" font-size="10.00">wrap_w2c__f229</text>
</a>
</g>
</g>
<!-- Node1&#45;&gt;Node12 -->
<g id="edge12_Node000001_Node000012" class="edge">
<title>Node1&#45;&gt;Node12</title>
<g id="a_edge12_Node000001_Node000012"><a xlink:title=" ">
<path fill="none" stroke="#63b8ff" d="M578.28,-41.09C570.39,-39.81 562.14,-38.46 554.16,-37.16"/>
<polygon fill="#63b8ff" stroke="#63b8ff" points="577.6,-44.53 588.03,-42.69 578.73,-37.62 577.6,-44.53"/>
</a>
</g>
</g>
<!-- Node3 -->
<g id="Node000003" class="node">
<title>Node3</title>
<g id="a_Node000003"><a xlink:href="app_8c.html#af245d5659b958eabe30540d214352ad8" target="_top" xlink:title=" ">
<polygon fill="white" stroke="#666666" points="421,-135.75 353.25,-135.75 353.25,-115 421,-115 421,-135.75"/>
<text text-anchor="middle" x="387.12" y="-122.25" font-family="Helvetica,sans-Serif" font-size="10.00">w2c__f197</text>
</a>
</g>
</g>
<!-- Node2&#45;&gt;Node3 -->
<g id="edge2_Node000002_Node000003" class="edge">
<title>Node2&#45;&gt;Node3</title>
<g id="a_edge2_Node000002_Node000003"><a xlink:title=" ">
<path fill="none" stroke="#63b8ff" d="M472.25,-84.17C452.5,-93.85 427.74,-105.97 410.21,-114.56"/>
<polygon fill="#63b8ff" stroke="#63b8ff" points="473.54,-87.44 480.98,-79.9 470.46,-81.15 473.54,-87.44"/>
</a>
</g>
</g>
<!-- Node5 -->
<g id="Node000005" class="node">
<title>Node5</title>
<g id="a_Node000005"><a xlink:href="app_8c.html#a5677ffd129da8cd63b876545b8187d77" target="_top" xlink:title=" ">
<polygon fill="white" stroke="#666666" points="302.62,-78.75 234.88,-78.75 234.88,-58 302.62,-58 302.62,-78.75"/>
<text text-anchor="middle" x="268.75" y="-65.25" font-family="Helvetica,sans-Serif" font-size="10.00">w2c__f367</text>
</a>
</g>
</g>
<!-- Node2&#45;&gt;Node5 -->
<g id="edge4_Node000002_Node000005" class="edge">
<title>Node2&#45;&gt;Node5</title>
<g id="a_edge4_Node000002_Node000005"><a xlink:title=" ">
<path fill="none" stroke="#63b8ff" d="M460.02,-68.38C414.33,-68.38 344.24,-68.38 303.1,-68.38"/>
<polygon fill="#63b8ff" stroke="#63b8ff" points="459.85,-71.88 469.85,-68.38 459.85,-64.88 459.85,-71.88"/>
</a>
</g>
</g>
<!-- Node9 -->
<g id="Node000009" class="node">
<title>Node9</title>
<g id="a_Node000009"><a xlink:href="app_8c.html#a4e0e8b8ddb7852b111d530fef11aca0b" target="_top" xlink:title=" ">
<polygon fill="white" stroke="#666666" points="421,-59.75 353.25,-59.75 353.25,-39 421,-39 421,-59.75"/>
<text text-anchor="middle" x="387.12" y="-46.25" font-family="Helvetica,sans-Serif" font-size="10.00">w2c__f434</text>
</a>
</g>
</g>
<!-- Node2&#45;&gt;Node9 -->
<g id="edge8_Node000002_Node000009" class="edge">
<title>Node2&#45;&gt;Node9</title>
<g id="a_edge8_Node000002_Node000009"><a xlink:title=" ">
<path fill="none" stroke="#63b8ff" d="M460.18,-61.14C447.33,-59.04 433.53,-56.79 421.48,-54.82"/>
<polygon fill="#63b8ff" stroke="#63b8ff" points="459.22,-64.53 469.66,-62.69 460.35,-57.62 459.22,-64.53"/>
</a>
</g>
</g>
<!-- Node10 -->
<g id="Node000010" class="node">
<title>Node10</title>
<g id="a_Node000010"><a xlink:href="app_8c.html#a651ec0f9d894e20b973be3a3f5e2a759" target="_top" xlink:title=" ">
<polygon fill="white" stroke="#666666" points="421,-20.75 353.25,-20.75 353.25,0 421,0 421,-20.75"/>
<text text-anchor="middle" x="387.12" y="-7.25" font-family="Helvetica,sans-Serif" font-size="10.00">w2c__f483</text>
</a>
</g>
</g>
<!-- Node2&#45;&gt;Node10 -->
<g id="edge10_Node000002_Node000010" class="edge">
<title>Node2&#45;&gt;Node10</title>
<g id="a_edge10_Node000002_Node000010"><a xlink:title=" ">
<path fill="none" stroke="#63b8ff" d="M467.25,-53.14C463.76,-51.58 460.3,-49.98 457,-48.38 439.55,-39.92 420.27,-29.15 406.55,-21.24"/>
<polygon fill="#63b8ff" stroke="#63b8ff" points="465.69,-56.28 476.26,-57.05 468.48,-49.85 465.69,-56.28"/>
</a>
</g>
</g>
<!-- Node4 -->
<g id="Node000004" class="node">
<title>Node4</title>
<g id="a_Node000004"><a xlink:href="app_8c.html#ac9dfe974277b0ee3fa24e73b7712fe31" target="_top" xlink:title=" ">
<polygon fill="white" stroke="#666666" points="317.25,-135.75 220.25,-135.75 220.25,-115 317.25,-115 317.25,-135.75"/>
<text text-anchor="middle" x="268.75" y="-122.25" font-family="Helvetica,sans-Serif" font-size="10.00">wrap_w2c__f197</text>
</a>
</g>
</g>
<!-- Node3&#45;&gt;Node4 -->
<g id="edge3_Node000003_Node000004" class="edge">
<title>Node3&#45;&gt;Node4</title>
<g id="a_edge3_Node000003_Node000004"><a xlink:title=" ">
<path fill="none" stroke="#63b8ff" d="M341.53,-125.38C333.64,-125.38 325.39,-125.38 317.41,-125.38"/>
<polygon fill="#63b8ff" stroke="#63b8ff" points="341.26,-128.88 351.26,-125.38 341.26,-121.88 341.26,-128.88"/>
</a>
</g>
</g>
<!-- Node6 -->
<g id="Node000006" class="node">
<title>Node6</title>
<g id="a_Node000006"><a xlink:href="app_8c.html#ac863989691d4c389f80374209c220171" target="_top" xlink:title=" ">
<polygon fill="white" stroke="#666666" points="167,-97.75 104.5,-97.75 104.5,-77 167,-77 167,-97.75"/>
<text text-anchor="middle" x="135.75" y="-84.25" font-family="Helvetica,sans-Serif" font-size="10.00">w2c__c_0</text>
</a>
</g>
</g>
<!-- Node5&#45;&gt;Node6 -->
<g id="edge5_Node000005_Node000006" class="edge">
<title>Node5&#45;&gt;Node6</title>
<g id="a_edge5_Node000005_Node000006"><a xlink:title=" ">
<path fill="none" stroke="#63b8ff" d="M223.53,-74.79C204.97,-77.48 183.86,-80.54 167.1,-82.97"/>
<polygon fill="#63b8ff" stroke="#63b8ff" points="223.8,-78.29 233.2,-73.39 222.8,-71.36 223.8,-78.29"/>
</a>
</g>
</g>
<!-- Node8 -->
<g id="Node000008" class="node">
<title>Node8</title>
<g id="a_Node000008"><a xlink:href="app_8c.html#a8f64ccad6c506a1ca514ba4f43e5211c" target="_top" xlink:title=" ">
<polygon fill="white" stroke="#666666" points="184.25,-58.75 87.25,-58.75 87.25,-38 184.25,-38 184.25,-58.75"/>
<text text-anchor="middle" x="135.75" y="-45.25" font-family="Helvetica,sans-Serif" font-size="10.00">wrap_w2c__f367</text>
</a>
</g>
</g>
<!-- Node5&#45;&gt;Node8 -->
<g id="edge7_Node000005_Node000008" class="edge">
<title>Node5&#45;&gt;Node8</title>
<g id="a_edge7_Node000005_Node000008"><a xlink:title=" ">
<path fill="none" stroke="#63b8ff" d="M223.58,-61.63C211.06,-59.72 197.38,-57.63 184.65,-55.69"/>
<polygon fill="#63b8ff" stroke="#63b8ff" points="222.78,-65.05 233.2,-63.1 223.84,-58.13 222.78,-65.05"/>
</a>
</g>
</g>
<!-- Node7 -->
<g id="Node000007" class="node">
<title>Node7</title>
<g id="a_Node000007"><a xlink:href="app_8c.html#ab1e039392ea68017ab8a6063263b147d" target="_top" xlink:title=" ">
<polygon fill="white" stroke="#666666" points="51.25,-97.75 0,-97.75 0,-77 51.25,-77 51.25,-97.75"/>
<text text-anchor="middle" x="25.62" y="-84.25" font-family="Helvetica,sans-Serif" font-size="10.00">w2c__c</text>
</a>
</g>
</g>
<!-- Node6&#45;&gt;Node7 -->
<g id="edge6_Node000006_Node000007" class="edge">
<title>Node6&#45;&gt;Node7</title>
<g id="a_edge6_Node000006_Node000007"><a xlink:title=" ">
<path fill="none" stroke="#63b8ff" d="M92.72,-87.38C78.81,-87.38 63.78,-87.38 51.57,-87.38"/>
<polygon fill="#63b8ff" stroke="#63b8ff" points="92.54,-90.88 102.54,-87.38 92.54,-83.88 92.54,-90.88"/>
</a>
</g>
</g>
<!-- Node9&#45;&gt;Node5 -->
<g id="edge9_Node000009_Node000005" class="edge">
<title>Node9&#45;&gt;Node5</title>
<g id="a_edge9_Node000009_Node000005"><a xlink:title=" ">
<path fill="none" stroke="#63b8ff" d="M341.8,-56.61C328.96,-58.71 315.16,-60.96 303.1,-62.93"/>
<polygon fill="#63b8ff" stroke="#63b8ff" points="341.98,-60.13 351.28,-55.06 340.85,-53.22 341.98,-60.13"/>
</a>
</g>
</g>
<!-- Node11 -->
<g id="Node000011" class="node">
<title>Node11</title>
<g id="a_Node000011"><a xlink:href="app_8c.html#a199b0b13b03598552d3b6c02676a7067" target="_top" xlink:title=" ">
<polygon fill="white" stroke="#666666" points="317.25,-20.75 220.25,-20.75 220.25,0 317.25,0 317.25,-20.75"/>
<text text-anchor="middle" x="268.75" y="-7.25" font-family="Helvetica,sans-Serif" font-size="10.00">wrap_w2c__f483</text>
</a>
</g>
</g>
<!-- Node10&#45;&gt;Node11 -->
<g id="edge11_Node000010_Node000011" class="edge">
<title>Node10&#45;&gt;Node11</title>
<g id="a_edge11_Node000010_Node000011"><a xlink:title=" ">
<path fill="none" stroke="#63b8ff" d="M341.53,-10.38C333.64,-10.38 325.39,-10.38 317.41,-10.38"/>
<polygon fill="#63b8ff" stroke="#63b8ff" points="341.26,-13.88 351.26,-10.38 341.26,-6.88 341.26,-13.88"/>
</a>
</g>
</g>
</g>
</svg>
