<?xml version="1.0" encoding="UTF-8" standalone="no"?>
<!DOCTYPE svg PUBLIC "-//W3C//DTD SVG 1.1//EN"
 "http://www.w3.org/Graphics/SVG/1.1/DTD/svg11.dtd">
<!-- Generated by graphviz version 12.2.1 (0)
 -->
<!-- Title: w2c__f444 Pages: 1 -->
<svg width="574pt" height="106pt"
 viewBox="0.00 0.00 574.25 105.75" xmlns="http://www.w3.org/2000/svg" xmlns:xlink="http://www.w3.org/1999/xlink">
<g id="graph0" class="graph" transform="scale(1 1) rotate(0) translate(4 101.75)">
<title>w2c__f444</title>
<!-- Node1 -->
<g id="Node000001" class="node">
<title>Node1</title>
<g id="a_Node000001"><a xlink:title=" ">
<polygon fill="#999999" stroke="#666666" points="566.25,-58.75 498.5,-58.75 498.5,-38 566.25,-38 566.25,-58.75"/>
<text text-anchor="middle" x="532.38" y="-45.25" font-family="Helvetica,sans-Serif" font-size="10.00">w2c__f444</text>
</a>
</g>
</g>
<!-- Node2 -->
<g id="Node000002" class="node">
<title>Node2</title>
<g id="a_Node000002"><a xlink:href="app_8c.html#aad516c1f168c52bf72e2d7c2ea98281b" target="_top" xlink:title=" ">
<polygon fill="white" stroke="#666666" points="462.5,-96.75 394.75,-96.75 394.75,-76 462.5,-76 462.5,-96.75"/>
<text text-anchor="middle" x="428.62" y="-83.25" font-family="Helvetica,sans-Serif" font-size="10.00">w2c__f264</text>
</a>
</g>
</g>
<!-- Node1&#45;&gt;Node2 -->
<g id="edge1_Node000001_Node000002" class="edge">
<title>Node1&#45;&gt;Node2</title>
<g id="a_edge1_Node000001_Node000002"><a xlink:title=" ">
<path fill="none" stroke="#63b8ff" d="M491.76,-63.17C480.71,-67.3 468.9,-71.71 458.58,-75.56"/>
<polygon fill="#63b8ff" stroke="#63b8ff" points="492.93,-66.47 501.07,-59.69 490.48,-59.91 492.93,-66.47"/>
</a>
</g>
</g>
<!-- Node3 -->
<g id="Node000003" class="node">
<title>Node3</title>
<g id="a_Node000003"><a xlink:href="app_8c.html#aac449994afd8488e2efd16fb19f0ecb1" target="_top" xlink:title=" ">
<polygon fill="white" stroke="#666666" points="358.75,-77.75 291,-77.75 291,-57 358.75,-57 358.75,-77.75"/>
<text text-anchor="middle" x="324.88" y="-64.25" font-family="Helvetica,sans-Serif" font-size="10.00">w2c__f336</text>
</a>
</g>
</g>
<!-- Node1&#45;&gt;Node3 -->
<g id="edge8_Node000001_Node000003" class="edge">
<title>Node1&#45;&gt;Node3</title>
<g id="a_edge8_Node000001_Node000003"><a xlink:title=" ">
<path fill="none" stroke="#63b8ff" d="M487,-52.48C448.59,-56.03 393.9,-61.09 359.15,-64.3"/>
<polygon fill="#63b8ff" stroke="#63b8ff" points="487.22,-55.97 496.85,-51.57 486.57,-49 487.22,-55.97"/>
</a>
</g>
</g>
<!-- Node9 -->
<g id="Node000009" class="node">
<title>Node9</title>
<g id="a_Node000009"><a xlink:href="app_8c.html#a6cd5a39e92d2f9d902f7020fedcba65f" target="_top" xlink:title=" ">
<polygon fill="white" stroke="#666666" points="462.5,-20.75 394.75,-20.75 394.75,0 462.5,0 462.5,-20.75"/>
<text text-anchor="middle" x="428.62" y="-7.25" font-family="Helvetica,sans-Serif" font-size="10.00">w2c__f428</text>
</a>
</g>
</g>
<!-- Node1&#45;&gt;Node9 -->
<g id="edge9_Node000001_Node000009" class="edge">
<title>Node1&#45;&gt;Node9</title>
<g id="a_edge9_Node000001_Node000009"><a xlink:title=" ">
<path fill="none" stroke="#63b8ff" d="M491.76,-33.58C480.71,-29.45 468.9,-25.04 458.58,-21.19"/>
<polygon fill="#63b8ff" stroke="#63b8ff" points="490.48,-36.84 501.07,-37.06 492.93,-30.28 490.48,-36.84"/>
</a>
</g>
</g>
<!-- Node2&#45;&gt;Node3 -->
<g id="edge2_Node000002_Node000003" class="edge">
<title>Node2&#45;&gt;Node3</title>
<g id="a_edge2_Node000002_Node000003"><a xlink:title=" ">
<path fill="none" stroke="#63b8ff" d="M383.07,-78.06C374.96,-76.54 366.63,-74.98 358.92,-73.55"/>
<polygon fill="#63b8ff" stroke="#63b8ff" points="382.35,-81.48 392.82,-79.88 383.63,-74.6 382.35,-81.48"/>
</a>
</g>
</g>
<!-- Node4 -->
<g id="Node000004" class="node">
<title>Node4</title>
<g id="a_Node000004"><a xlink:href="app_8c.html#ac863989691d4c389f80374209c220171" target="_top" xlink:title=" ">
<polygon fill="white" stroke="#666666" points="252.38,-97.75 189.88,-97.75 189.88,-77 252.38,-77 252.38,-97.75"/>
<text text-anchor="middle" x="221.12" y="-84.25" font-family="Helvetica,sans-Serif" font-size="10.00">w2c__c_0</text>
</a>
</g>
</g>
<!-- Node3&#45;&gt;Node4 -->
<g id="edge3_Node000003_Node000004" class="edge">
<title>Node3&#45;&gt;Node4</title>
<g id="a_edge3_Node000003_Node000004"><a xlink:title=" ">
<path fill="none" stroke="#63b8ff" d="M279.4,-76.12C270.41,-77.88 261.15,-79.7 252.76,-81.35"/>
<polygon fill="#63b8ff" stroke="#63b8ff" points="279.94,-79.58 289.07,-74.22 278.59,-72.71 279.94,-79.58"/>
</a>
</g>
</g>
<!-- Node6 -->
<g id="Node000006" class="node">
<title>Node6</title>
<g id="a_Node000006"><a xlink:href="app_8c.html#a8f312e54d76623b1ae169d5d19736ee0" target="_top" xlink:title=" ">
<polygon fill="white" stroke="#666666" points="255,-58.75 187.25,-58.75 187.25,-38 255,-38 255,-58.75"/>
<text text-anchor="middle" x="221.12" y="-45.25" font-family="Helvetica,sans-Serif" font-size="10.00">w2c__f363</text>
</a>
</g>
</g>
<!-- Node3&#45;&gt;Node6 -->
<g id="edge5_Node000003_Node000006" class="edge">
<title>Node3&#45;&gt;Node6</title>
<g id="a_edge5_Node000003_Node000006"><a xlink:title=" ">
<path fill="none" stroke="#63b8ff" d="M279.32,-59.06C271.21,-57.54 262.88,-55.98 255.17,-54.55"/>
<polygon fill="#63b8ff" stroke="#63b8ff" points="278.6,-62.48 289.07,-60.88 279.88,-55.6 278.6,-62.48"/>
</a>
</g>
</g>
<!-- Node5 -->
<g id="Node000005" class="node">
<title>Node5</title>
<g id="a_Node000005"><a xlink:href="app_8c.html#ab1e039392ea68017ab8a6063263b147d" target="_top" xlink:title=" ">
<polygon fill="white" stroke="#666666" points="145.25,-97.75 94,-97.75 94,-77 145.25,-77 145.25,-97.75"/>
<text text-anchor="middle" x="119.62" y="-84.25" font-family="Helvetica,sans-Serif" font-size="10.00">w2c__c</text>
</a>
</g>
</g>
<!-- Node4&#45;&gt;Node5 -->
<g id="edge4_Node000004_Node000005" class="edge">
<title>Node4&#45;&gt;Node5</title>
<g id="a_edge4_Node000004_Node000005"><a xlink:title=" ">
<path fill="none" stroke="#63b8ff" d="M178.21,-87.38C167.15,-87.38 155.55,-87.38 145.68,-87.38"/>
<polygon fill="#63b8ff" stroke="#63b8ff" points="177.95,-90.88 187.95,-87.38 177.95,-83.88 177.95,-90.88"/>
</a>
</g>
</g>
<!-- Node7 -->
<g id="Node000007" class="node">
<title>Node7</title>
<g id="a_Node000007"><a xlink:href="app_8c.html#a26657f10c51f10eeb57a4d27606a6885" target="_top" xlink:title=" ">
<polygon fill="white" stroke="#666666" points="151.25,-58.75 88,-58.75 88,-38 151.25,-38 151.25,-58.75"/>
<text text-anchor="middle" x="119.62" y="-45.25" font-family="Helvetica,sans-Serif" font-size="10.00">w2c__b_0</text>
</a>
</g>
</g>
<!-- Node6&#45;&gt;Node7 -->
<g id="edge6_Node000006_Node000007" class="edge">
<title>Node6&#45;&gt;Node7</title>
<g id="a_edge6_Node000006_Node000007"><a xlink:title=" ">
<path fill="none" stroke="#63b8ff" d="M175.71,-48.38C167.57,-48.38 159.23,-48.38 151.59,-48.38"/>
<polygon fill="#63b8ff" stroke="#63b8ff" points="175.48,-51.88 185.48,-48.38 175.48,-44.88 175.48,-51.88"/>
</a>
</g>
</g>
<!-- Node8 -->
<g id="Node000008" class="node">
<title>Node8</title>
<g id="a_Node000008"><a xlink:href="app_8c.html#a683a2045346c3209e9dac20d55933c7d" target="_top" xlink:title=" ">
<polygon fill="white" stroke="#666666" points="52,-58.75 0,-58.75 0,-38 52,-38 52,-58.75"/>
<text text-anchor="middle" x="26" y="-45.25" font-family="Helvetica,sans-Serif" font-size="10.00">w2c__b</text>
</a>
</g>
</g>
<!-- Node7&#45;&gt;Node8 -->
<g id="edge7_Node000007_Node000008" class="edge">
<title>Node7&#45;&gt;Node8</title>
<g id="a_edge7_Node000007_Node000008"><a xlink:title=" ">
<path fill="none" stroke="#63b8ff" d="M76.21,-48.38C68,-48.38 59.65,-48.38 52.21,-48.38"/>
<polygon fill="#63b8ff" stroke="#63b8ff" points="76.09,-51.88 86.09,-48.38 76.09,-44.88 76.09,-51.88"/>
</a>
</g>
</g>
</g>
</svg>
