<?xml version="1.0" encoding="UTF-8" standalone="no"?>
<!DOCTYPE svg PUBLIC "-//W3C//DTD SVG 1.1//EN"
 "http://www.w3.org/Graphics/SVG/1.1/DTD/svg11.dtd">
<!-- Generated by graphviz version 12.2.1 (0)
 -->
<!-- Title: w2c_0_123 Pages: 1 -->
<svg width="493pt" height="232pt"
 viewBox="0.00 0.00 493.00 231.72" xmlns="http://www.w3.org/2000/svg" xmlns:xlink="http://www.w3.org/1999/xlink">
<g id="graph0" class="graph" transform="scale(1 1) rotate(0) translate(4 227.72)">
<title>w2c_0_123</title>
<!-- Node1 -->
<g id="Node000001" class="node">
<title>Node1</title>
<g id="a_Node000001"><a xlink:title=" ">
<polygon fill="#999999" stroke="#666666" points="485,-136.75 415,-136.75 415,-116 485,-116 485,-136.75"/>
<text text-anchor="middle" x="450" y="-123.25" font-family="Helvetica,sans-Serif" font-size="10.00">w2c_0_123</text>
</a>
</g>
</g>
<!-- Node2 -->
<g id="Node000002" class="node">
<title>Node2</title>
<g id="a_Node000002"><a xlink:href="app_8c.html#ab5a3eb75567e85becd3ea69f3cefe6c1" target="_top" xlink:title=" ">
<polygon fill="white" stroke="#666666" points="275.25,-212.75 207.5,-212.75 207.5,-192 275.25,-192 275.25,-212.75"/>
<text text-anchor="middle" x="241.38" y="-199.25" font-family="Helvetica,sans-Serif" font-size="10.00">w2c__f285</text>
</a>
</g>
</g>
<!-- Node1&#45;&gt;Node2 -->
<g id="edge1_Node000001_Node000002" class="edge">
<title>Node1&#45;&gt;Node2</title>
<g id="a_edge1_Node000001_Node000002"><a xlink:title=" ">
<path fill="none" stroke="#63b8ff" d="M429.89,-144.45C416.62,-155.96 397.98,-170.21 379,-178.38 345.6,-192.75 304.07,-198.52 275.62,-200.83"/>
<polygon fill="#63b8ff" stroke="#63b8ff" points="431.93,-147.32 437.03,-138.03 427.25,-142.11 431.93,-147.32"/>
</a>
</g>
</g>
<!-- Node3 -->
<g id="Node000003" class="node">
<title>Node3</title>
<g id="a_Node000003"><a xlink:href="app_8c.html#adb357000a4d9b03118bb4a6a7435605d" target="_top" xlink:title=" ">
<polygon fill="white" stroke="#666666" points="171.5,-136.75 103.75,-136.75 103.75,-116 171.5,-116 171.5,-136.75"/>
<text text-anchor="middle" x="137.62" y="-123.25" font-family="Helvetica,sans-Serif" font-size="10.00">w2c__f404</text>
</a>
</g>
</g>
<!-- Node1&#45;&gt;Node3 -->
<g id="edge9_Node000001_Node000003" class="edge">
<title>Node1&#45;&gt;Node3</title>
<g id="a_edge9_Node000001_Node000003"><a xlink:title=" ">
<path fill="none" stroke="#63b8ff" d="M403.44,-136.51C395.33,-138.02 386.94,-139.39 379,-140.38 303.32,-149.71 283.07,-155.61 207.5,-145.38 195.33,-143.73 182.27,-140.51 170.83,-137.19"/>
<polygon fill="#63b8ff" stroke="#63b8ff" points="404.01,-139.96 413.14,-134.6 402.66,-133.09 404.01,-139.96"/>
</a>
</g>
</g>
<!-- Node4 -->
<g id="Node000004" class="node">
<title>Node4</title>
<g id="a_Node000004"><a xlink:href="app_8c.html#a05d83e696cfaa26355c9732ee9ea4cd0" target="_top" xlink:title=" ">
<polygon fill="white" stroke="#666666" points="67.75,-193.75 0,-193.75 0,-173 67.75,-173 67.75,-193.75"/>
<text text-anchor="middle" x="33.88" y="-180.25" font-family="Helvetica,sans-Serif" font-size="10.00">w2c__f454</text>
</a>
</g>
</g>
<!-- Node1&#45;&gt;Node4 -->
<g id="edge10_Node000001_Node000004" class="edge">
<title>Node1&#45;&gt;Node4</title>
<g id="a_edge10_Node000001_Node000004"><a xlink:title=" ">
<path fill="none" stroke="#63b8ff" d="M435.9,-146.35C423.41,-163.72 402.97,-188.12 379,-201.38 337.91,-224.1 322,-216.91 275.25,-221.38 245.28,-224.24 237.43,-224.63 207.5,-221.38 158.23,-216.02 102.42,-202.3 67.94,-192.9"/>
<polygon fill="#63b8ff" stroke="#63b8ff" points="438.65,-148.54 441.45,-138.32 432.89,-144.56 438.65,-148.54"/>
</a>
</g>
</g>
<!-- Node5 -->
<g id="Node000005" class="node">
<title>Node5</title>
<g id="a_Node000005"><a xlink:href="app_8c.html#a90092f313c3529894f5b07df3b2baa3a" target="_top" xlink:title=" ">
<polygon fill="white" stroke="#666666" points="275.25,-136.75 207.5,-136.75 207.5,-116 275.25,-116 275.25,-136.75"/>
<text text-anchor="middle" x="241.38" y="-123.25" font-family="Helvetica,sans-Serif" font-size="10.00">w2c__f364</text>
</a>
</g>
</g>
<!-- Node1&#45;&gt;Node5 -->
<g id="edge4_Node000001_Node000005" class="edge">
<title>Node1&#45;&gt;Node5</title>
<g id="a_edge4_Node000001_Node000005"><a xlink:title=" ">
<path fill="none" stroke="#63b8ff" d="M403.43,-126.38C364.74,-126.38 310.16,-126.38 275.52,-126.38"/>
<polygon fill="#63b8ff" stroke="#63b8ff" points="403.37,-129.88 413.37,-126.38 403.37,-122.88 403.37,-129.88"/>
</a>
</g>
</g>
<!-- Node6 -->
<g id="Node000006" class="node">
<title>Node6</title>
<g id="a_Node000006"><a xlink:href="app_8c.html#a4b4464bc0bc06853b9af4b408d460453" target="_top" xlink:title=" ">
<polygon fill="white" stroke="#666666" points="379,-20.75 311.25,-20.75 311.25,0 379,0 379,-20.75"/>
<text text-anchor="middle" x="345.12" y="-7.25" font-family="Helvetica,sans-Serif" font-size="10.00">w2c__f376</text>
</a>
</g>
</g>
<!-- Node1&#45;&gt;Node6 -->
<g id="edge6_Node000001_Node000006" class="edge">
<title>Node1&#45;&gt;Node6</title>
<g id="a_edge6_Node000001_Node000006"><a xlink:title=" ">
<path fill="none" stroke="#63b8ff" d="M437.32,-105.79C424.81,-85.01 403.43,-52.85 379,-30.38 375.26,-26.94 370.85,-23.78 366.49,-21.04"/>
<polygon fill="#63b8ff" stroke="#63b8ff" points="434.18,-107.35 442.26,-114.21 440.22,-103.81 434.18,-107.35"/>
</a>
</g>
</g>
<!-- Node7 -->
<g id="Node000007" class="node">
<title>Node7</title>
<g id="a_Node000007"><a xlink:href="app_8c.html#a980a551daeb256397f01e6faa91d49db" target="_top" xlink:title=" ">
<polygon fill="white" stroke="#666666" points="379,-59.75 311.25,-59.75 311.25,-39 379,-39 379,-59.75"/>
<text text-anchor="middle" x="345.12" y="-46.25" font-family="Helvetica,sans-Serif" font-size="10.00">w2c__f403</text>
</a>
</g>
</g>
<!-- Node1&#45;&gt;Node7 -->
<g id="edge8_Node000001_Node000007" class="edge">
<title>Node1&#45;&gt;Node7</title>
<g id="a_edge8_Node000001_Node000007"><a xlink:title=" ">
<path fill="none" stroke="#63b8ff" d="M428.41,-108.36C414.77,-96.74 396.27,-81.57 379,-69.38 374.53,-66.21 369.54,-63.03 364.84,-60.15"/>
<polygon fill="#63b8ff" stroke="#63b8ff" points="426,-110.9 435.86,-114.77 430.57,-105.59 426,-110.9"/>
</a>
</g>
</g>
<!-- Node8 -->
<g id="Node000008" class="node">
<title>Node8</title>
<g id="a_Node000008"><a xlink:href="app_8c.html#ac69b13e2c3468609717df2627a30b836" target="_top" xlink:title=" ">
<polygon fill="white" stroke="#666666" points="379,-98.75 311.25,-98.75 311.25,-78 379,-78 379,-98.75"/>
<text text-anchor="middle" x="345.12" y="-85.25" font-family="Helvetica,sans-Serif" font-size="10.00">w2c__f497</text>
</a>
</g>
</g>
<!-- Node1&#45;&gt;Node8 -->
<g id="edge11_Node000001_Node000008" class="edge">
<title>Node1&#45;&gt;Node8</title>
<g id="a_edge11_Node000001_Node000008"><a xlink:title=" ">
<path fill="none" stroke="#63b8ff" d="M409.3,-111.71C398.02,-107.54 385.94,-103.08 375.4,-99.19"/>
<polygon fill="#63b8ff" stroke="#63b8ff" points="407.78,-114.88 418.38,-115.06 410.21,-108.31 407.78,-114.88"/>
</a>
</g>
</g>
<!-- Node2&#45;&gt;Node3 -->
<g id="edge2_Node000002_Node000003" class="edge">
<title>Node2&#45;&gt;Node3</title>
<g id="a_edge2_Node000002_Node000003"><a xlink:title=" ">
<path fill="none" stroke="#63b8ff" d="M216.35,-184.9C213.36,-182.71 210.36,-180.5 207.5,-178.38 188.49,-164.26 166.71,-147.76 152.82,-137.2"/>
<polygon fill="#63b8ff" stroke="#63b8ff" points="214.25,-187.7 224.39,-190.78 218.38,-182.05 214.25,-187.7"/>
</a>
</g>
</g>
<!-- Node3&#45;&gt;Node4 -->
<g id="edge3_Node000003_Node000004" class="edge">
<title>Node3&#45;&gt;Node4</title>
<g id="a_edge3_Node000003_Node000004"><a xlink:title=" ">
<path fill="none" stroke="#63b8ff" d="M107.47,-142.71C90.4,-152.27 69.31,-164.08 54.27,-172.51"/>
<polygon fill="#63b8ff" stroke="#63b8ff" points="109.15,-145.78 116.17,-137.84 105.73,-139.67 109.15,-145.78"/>
</a>
</g>
</g>
<!-- Node5&#45;&gt;Node3 -->
<g id="edge5_Node000005_Node000003" class="edge">
<title>Node5&#45;&gt;Node3</title>
<g id="a_edge5_Node000005_Node000003"><a xlink:title=" ">
<path fill="none" stroke="#63b8ff" d="M195.82,-126.38C187.71,-126.38 179.38,-126.38 171.67,-126.38"/>
<polygon fill="#63b8ff" stroke="#63b8ff" points="195.54,-129.88 205.54,-126.38 195.54,-122.88 195.54,-129.88"/>
</a>
</g>
</g>
<!-- Node6&#45;&gt;Node3 -->
<g id="edge7_Node000006_Node000003" class="edge">
<title>Node6&#45;&gt;Node3</title>
<g id="a_edge7_Node000006_Node000003"><a xlink:title=" ">
<path fill="none" stroke="#63b8ff" d="M299.61,-8.71C271.35,-9.62 235.05,-14.56 207.5,-31.38 173.94,-51.86 151.84,-95.45 142.99,-115.67"/>
<polygon fill="#63b8ff" stroke="#63b8ff" points="299.33,-12.22 309.28,-8.57 299.23,-5.22 299.33,-12.22"/>
</a>
</g>
</g>
<!-- Node8&#45;&gt;Node3 -->
<g id="edge12_Node000008_Node000003" class="edge">
<title>Node8&#45;&gt;Node3</title>
<g id="a_edge12_Node000008_Node000003"><a xlink:title=" ">
<path fill="none" stroke="#63b8ff" d="M299.44,-93.09C272.63,-96.29 237.94,-101.09 207.5,-107.38 195.72,-109.81 182.97,-113.13 171.69,-116.31"/>
<polygon fill="#63b8ff" stroke="#63b8ff" points="299.75,-96.58 309.28,-91.95 298.95,-89.63 299.75,-96.58"/>
</a>
</g>
</g>
<!-- Node9 -->
<g id="Node000009" class="node">
<title>Node9</title>
<g id="a_Node000009"><a xlink:href="app_8c.html#a3528ca1eb262ff9291f92bf37d2fc18a" target="_top" xlink:title=" ">
<polygon fill="white" stroke="#666666" points="275.25,-60.75 207.5,-60.75 207.5,-40 275.25,-40 275.25,-60.75"/>
<text text-anchor="middle" x="241.38" y="-47.25" font-family="Helvetica,sans-Serif" font-size="10.00">w2c__f492</text>
</a>
</g>
</g>
<!-- Node8&#45;&gt;Node9 -->
<g id="edge13_Node000008_Node000009" class="edge">
<title>Node8&#45;&gt;Node9</title>
<g id="a_edge13_Node000008_Node000009"><a xlink:title=" ">
<path fill="none" stroke="#63b8ff" d="M304.51,-73.58C293.46,-69.45 281.65,-65.04 271.33,-61.19"/>
<polygon fill="#63b8ff" stroke="#63b8ff" points="303.23,-76.84 313.82,-77.06 305.68,-70.28 303.23,-76.84"/>
</a>
</g>
</g>
<!-- Node9&#45;&gt;Node3 -->
<g id="edge14_Node000009_Node000003" class="edge">
<title>Node9&#45;&gt;Node3</title>
<g id="a_edge14_Node000009_Node000003"><a xlink:title=" ">
<path fill="none" stroke="#63b8ff" d="M216.35,-67.85C213.36,-70.04 210.36,-72.25 207.5,-74.38 188.49,-88.49 166.71,-104.99 152.82,-115.55"/>
<polygon fill="#63b8ff" stroke="#63b8ff" points="218.38,-70.7 224.39,-61.97 214.25,-65.05 218.38,-70.7"/>
</a>
</g>
</g>
</g>
</svg>
