<?xml version="1.0" encoding="UTF-8" standalone="no"?>
<!DOCTYPE svg PUBLIC "-//W3C//DTD SVG 1.1//EN"
 "http://www.w3.org/Graphics/SVG/1.1/DTD/svg11.dtd">
<!-- Generated by graphviz version 12.2.1 (0)
 -->
<!-- Title: w2c__f399 Pages: 1 -->
<svg width="802pt" height="296pt"
 viewBox="0.00 0.00 802.00 295.75" xmlns="http://www.w3.org/2000/svg" xmlns:xlink="http://www.w3.org/1999/xlink">
<g id="graph0" class="graph" transform="scale(1 1) rotate(0) translate(4 291.75)">
<title>w2c__f399</title>
<!-- Node1 -->
<g id="Node000001" class="node">
<title>Node1</title>
<g id="a_Node000001"><a xlink:title=" ">
<polygon fill="#999999" stroke="#666666" points="67.75,-211.75 0,-211.75 0,-191 67.75,-191 67.75,-211.75"/>
<text text-anchor="middle" x="33.88" y="-198.25" font-family="Helvetica,sans-Serif" font-size="10.00">w2c__f399</text>
</a>
</g>
</g>
<!-- Node2 -->
<g id="Node000002" class="node">
<title>Node2</title>
<g id="a_Node000002"><a xlink:href="app_8c.html#a0378208e0d5c0d1d6e7370f1c578fab3" target="_top" xlink:title=" ">
<polygon fill="white" stroke="#666666" points="690.25,-212.75 622.5,-212.75 622.5,-192 690.25,-192 690.25,-212.75"/>
<text text-anchor="middle" x="656.38" y="-199.25" font-family="Helvetica,sans-Serif" font-size="10.00">w2c__f216</text>
</a>
</g>
</g>
<!-- Node1&#45;&gt;Node2 -->
<g id="edge1_Node000001_Node000002" class="edge">
<title>Node1&#45;&gt;Node2</title>
<g id="a_edge1_Node000001_Node000002"><a xlink:title=" ">
<path fill="none" stroke="#63b8ff" d="M67.99,-211.36C108.31,-222.62 178.7,-239.38 240.38,-239.38 240.38,-239.38 240.38,-239.38 449.88,-239.38 506.21,-239.38 569.87,-225.74 611.2,-215.03"/>
<polygon fill="#63b8ff" stroke="#63b8ff" points="612.02,-218.43 620.78,-212.48 610.22,-211.67 612.02,-218.43"/>
</a>
</g>
</g>
<!-- Node4 -->
<g id="Node000004" class="node">
<title>Node4</title>
<g id="a_Node000004"><a xlink:href="app_8c.html#a4aba2fe8aec5a4bcbf6eb758e545ce4e" target="_top" xlink:title=" ">
<polygon fill="white" stroke="#666666" points="379,-287.75 311.25,-287.75 311.25,-267 379,-267 379,-287.75"/>
<text text-anchor="middle" x="345.12" y="-274.25" font-family="Helvetica,sans-Serif" font-size="10.00">w2c__f269</text>
</a>
</g>
</g>
<!-- Node1&#45;&gt;Node4 -->
<g id="edge3_Node000001_Node000004" class="edge">
<title>Node1&#45;&gt;Node4</title>
<g id="a_edge3_Node000001_Node000004"><a xlink:title=" ">
<path fill="none" stroke="#63b8ff" d="M44.94,-211.89C57.44,-224.21 80.03,-244.09 103.75,-253.38 168.47,-278.71 250.12,-281.3 299.67,-279.98"/>
<polygon fill="#63b8ff" stroke="#63b8ff" points="299.55,-283.48 309.43,-279.65 299.31,-276.49 299.55,-283.48"/>
</a>
</g>
</g>
<!-- Node5 -->
<g id="Node000005" class="node">
<title>Node5</title>
<g id="a_Node000005"><a xlink:href="app_8c.html#a8ddfdaf7faae4bc857dc43f2691b9dbe" target="_top" xlink:title=" ">
<polygon fill="white" stroke="#666666" points="275.25,-173.75 207.5,-173.75 207.5,-153 275.25,-153 275.25,-173.75"/>
<text text-anchor="middle" x="241.38" y="-160.25" font-family="Helvetica,sans-Serif" font-size="10.00">w2c__f306</text>
</a>
</g>
</g>
<!-- Node1&#45;&gt;Node5 -->
<g id="edge5_Node000001_Node000005" class="edge">
<title>Node1&#45;&gt;Node5</title>
<g id="a_edge5_Node000001_Node000005"><a xlink:title=" ">
<path fill="none" stroke="#63b8ff" d="M67.94,-191.31C79.22,-188.13 91.97,-184.81 103.75,-182.38 134.19,-176.09 168.88,-171.29 195.69,-168.09"/>
<polygon fill="#63b8ff" stroke="#63b8ff" points="196,-171.58 205.53,-166.95 195.2,-164.63 196,-171.58"/>
</a>
</g>
</g>
<!-- Node14 -->
<g id="Node000014" class="node">
<title>Node14</title>
<g id="a_Node000014"><a xlink:href="app_8c.html#a39e5374effeff0dc142bbb7c393a906a" target="_top" xlink:title=" ">
<polygon fill="white" stroke="#666666" points="171.5,-58.75 103.75,-58.75 103.75,-38 171.5,-38 171.5,-58.75"/>
<text text-anchor="middle" x="137.62" y="-45.25" font-family="Helvetica,sans-Serif" font-size="10.00">w2c__f311</text>
</a>
</g>
</g>
<!-- Node1&#45;&gt;Node14 -->
<g id="edge21_Node000001_Node000014" class="edge">
<title>Node1&#45;&gt;Node14</title>
<g id="a_edge21_Node000001_Node000014"><a xlink:title=" ">
<path fill="none" stroke="#63b8ff" d="M41.87,-190.86C58.64,-165.64 101.38,-101.37 123.27,-68.46"/>
<polygon fill="#63b8ff" stroke="#63b8ff" points="126.12,-70.49 128.74,-60.23 120.29,-66.61 126.12,-70.49"/>
</a>
</g>
</g>
<!-- Node16 -->
<g id="Node000016" class="node">
<title>Node16</title>
<g id="a_Node000016"><a xlink:href="app_8c.html#a8d133b0dcb7130bbc0a48ea5c1975662" target="_top" xlink:title=" ">
<polygon fill="white" stroke="#666666" points="171.5,-211.75 103.75,-211.75 103.75,-191 171.5,-191 171.5,-211.75"/>
<text text-anchor="middle" x="137.62" y="-198.25" font-family="Helvetica,sans-Serif" font-size="10.00">w2c__f436</text>
</a>
</g>
</g>
<!-- Node1&#45;&gt;Node16 -->
<g id="edge24_Node000001_Node000016" class="edge">
<title>Node1&#45;&gt;Node16</title>
<g id="a_edge24_Node000001_Node000016"><a xlink:title=" ">
<path fill="none" stroke="#63b8ff" d="M68.19,-201.38C75.82,-201.38 84.06,-201.38 92.08,-201.38"/>
<polygon fill="#63b8ff" stroke="#63b8ff" points="92.07,-204.88 102.07,-201.38 92.07,-197.88 92.07,-204.88"/>
</a>
</g>
</g>
<!-- Node3 -->
<g id="Node000003" class="node">
<title>Node3</title>
<g id="a_Node000003"><a xlink:href="app_8c.html#a8d9f347f9a643f0ebfb53c4f54578ac4" target="_top" xlink:title=" ">
<polygon fill="white" stroke="#666666" points="794,-135.75 726.25,-135.75 726.25,-115 794,-115 794,-135.75"/>
<text text-anchor="middle" x="760.12" y="-122.25" font-family="Helvetica,sans-Serif" font-size="10.00">w2c__f304</text>
</a>
</g>
</g>
<!-- Node2&#45;&gt;Node3 -->
<g id="edge2_Node000002_Node000003" class="edge">
<title>Node2&#45;&gt;Node3</title>
<g id="a_edge2_Node000002_Node000003"><a xlink:title=" ">
<path fill="none" stroke="#63b8ff" d="M672.16,-191.7C677.84,-187.57 684.37,-182.78 690.25,-178.38 705.7,-166.8 722.91,-153.55 736.26,-143.2"/>
<polygon fill="#63b8ff" stroke="#63b8ff" points="738.28,-146.07 744.03,-137.17 733.98,-140.54 738.28,-146.07"/>
</a>
</g>
</g>
<!-- Node4&#45;&gt;Node2 -->
<g id="edge4_Node000004_Node000002" class="edge">
<title>Node4&#45;&gt;Node2</title>
<g id="a_edge4_Node000004_Node000002"><a xlink:title=" ">
<path fill="none" stroke="#63b8ff" d="M379.28,-279.51C426.85,-281.37 516.47,-280.41 586.5,-253.38 605.26,-246.13 623.42,-232.32 636.37,-220.89"/>
<polygon fill="#63b8ff" stroke="#63b8ff" points="638.72,-223.49 643.71,-214.14 633.98,-218.34 638.72,-223.49"/>
</a>
</g>
</g>
<!-- Node5&#45;&gt;Node2 -->
<g id="edge6_Node000005_Node000002" class="edge">
<title>Node5&#45;&gt;Node2</title>
<g id="a_edge6_Node000005_Node000002"><a xlink:title=" ">
<path fill="none" stroke="#63b8ff" d="M275.28,-164.09C336.73,-165.76 472.97,-171.14 586.5,-187.38 594.49,-188.52 602.93,-190.07 611.06,-191.74"/>
<polygon fill="#63b8ff" stroke="#63b8ff" points="610.28,-195.15 620.79,-193.83 611.75,-188.3 610.28,-195.15"/>
</a>
</g>
</g>
<!-- Node6 -->
<g id="Node000006" class="node">
<title>Node6</title>
<g id="a_Node000006"><a xlink:href="app_8c.html#a282da58cdb8a8d86b26b785358ce183a" target="_top" xlink:title=" ">
<polygon fill="white" stroke="#666666" points="379,-135.75 311.25,-135.75 311.25,-115 379,-115 379,-135.75"/>
<text text-anchor="middle" x="345.12" y="-122.25" font-family="Helvetica,sans-Serif" font-size="10.00">w2c__f504</text>
</a>
</g>
</g>
<!-- Node5&#45;&gt;Node6 -->
<g id="edge7_Node000005_Node000006" class="edge">
<title>Node5&#45;&gt;Node6</title>
<g id="a_edge7_Node000005_Node000006"><a xlink:title=" ">
<path fill="none" stroke="#63b8ff" d="M271.26,-152.59C281.57,-148.74 293.38,-144.33 304.44,-140.2"/>
<polygon fill="#63b8ff" stroke="#63b8ff" points="305.61,-143.5 313.75,-136.72 303.16,-136.94 305.61,-143.5"/>
</a>
</g>
</g>
<!-- Node7 -->
<g id="Node000007" class="node">
<title>Node7</title>
<g id="a_Node000007"><a xlink:href="app_8c.html#a1a8a1d528c65d63a630e19c3a4bdd098" target="_top" xlink:title=" ">
<polygon fill="white" stroke="#666666" points="482.75,-135.75 415,-135.75 415,-115 482.75,-115 482.75,-135.75"/>
<text text-anchor="middle" x="448.88" y="-122.25" font-family="Helvetica,sans-Serif" font-size="10.00">w2c__f557</text>
</a>
</g>
</g>
<!-- Node6&#45;&gt;Node7 -->
<g id="edge8_Node000006_Node000007" class="edge">
<title>Node6&#45;&gt;Node7</title>
<g id="a_edge8_Node000006_Node000007"><a xlink:title=" ">
<path fill="none" stroke="#63b8ff" d="M379.44,-125.38C387.07,-125.38 395.31,-125.38 403.33,-125.38"/>
<polygon fill="#63b8ff" stroke="#63b8ff" points="403.32,-128.88 413.32,-125.38 403.32,-121.88 403.32,-128.88"/>
</a>
</g>
</g>
<!-- Node8 -->
<g id="Node000008" class="node">
<title>Node8</title>
<g id="a_Node000008"><a xlink:href="app_8c.html#a0f7003812eaf983535ff7979fc047a21" target="_top" xlink:title=" ">
<polygon fill="white" stroke="#666666" points="586.5,-96.75 518.75,-96.75 518.75,-76 586.5,-76 586.5,-96.75"/>
<text text-anchor="middle" x="552.62" y="-83.25" font-family="Helvetica,sans-Serif" font-size="10.00">w2c__f353</text>
</a>
</g>
</g>
<!-- Node7&#45;&gt;Node8 -->
<g id="edge9_Node000007_Node000008" class="edge">
<title>Node7&#45;&gt;Node8</title>
<g id="a_edge9_Node000007_Node000008"><a xlink:title=" ">
<path fill="none" stroke="#63b8ff" d="M478.22,-114.51C488.91,-110.41 501.27,-105.67 512.76,-101.27"/>
<polygon fill="#63b8ff" stroke="#63b8ff" points="513.94,-104.57 522.02,-97.72 511.43,-98.03 513.94,-104.57"/>
</a>
</g>
</g>
<!-- Node12 -->
<g id="Node000012" class="node">
<title>Node12</title>
<g id="a_Node000012"><a xlink:href="app_8c.html#ac9cc84763a9c1933e50eedd7a06c17e2" target="_top" xlink:title=" ">
<polygon fill="white" stroke="#666666" points="586.5,-135.75 518.75,-135.75 518.75,-115 586.5,-115 586.5,-135.75"/>
<text text-anchor="middle" x="552.62" y="-122.25" font-family="Helvetica,sans-Serif" font-size="10.00">w2c__f480</text>
</a>
</g>
</g>
<!-- Node7&#45;&gt;Node12 -->
<g id="edge15_Node000007_Node000012" class="edge">
<title>Node7&#45;&gt;Node12</title>
<g id="a_edge15_Node000007_Node000012"><a xlink:title=" ">
<path fill="none" stroke="#63b8ff" d="M483.19,-125.38C490.82,-125.38 499.06,-125.38 507.08,-125.38"/>
<polygon fill="#63b8ff" stroke="#63b8ff" points="507.07,-128.88 517.07,-125.38 507.07,-121.88 507.07,-128.88"/>
</a>
</g>
</g>
<!-- Node9 -->
<g id="Node000009" class="node">
<title>Node9</title>
<g id="a_Node000009"><a xlink:href="app_8c.html#aaca5d5bcf49f2ca74019cf097750b9f3" target="_top" xlink:title=" ">
<polygon fill="white" stroke="#666666" points="690.25,-58.75 622.5,-58.75 622.5,-38 690.25,-38 690.25,-58.75"/>
<text text-anchor="middle" x="656.38" y="-45.25" font-family="Helvetica,sans-Serif" font-size="10.00">w2c__f258</text>
</a>
</g>
</g>
<!-- Node8&#45;&gt;Node9 -->
<g id="edge10_Node000008_Node000009" class="edge">
<title>Node8&#45;&gt;Node9</title>
<g id="a_edge10_Node000008_Node000009"><a xlink:title=" ">
<path fill="none" stroke="#63b8ff" d="M582.51,-75.59C592.82,-71.74 604.63,-67.33 615.69,-63.2"/>
<polygon fill="#63b8ff" stroke="#63b8ff" points="616.86,-66.5 625,-59.72 614.41,-59.94 616.86,-66.5"/>
</a>
</g>
</g>
<!-- Node11 -->
<g id="Node000011" class="node">
<title>Node11</title>
<g id="a_Node000011"><a xlink:href="app_8c.html#a4634342addbde677893ffcb45cf639dd" target="_top" xlink:title=" ">
<polygon fill="white" stroke="#666666" points="690.25,-97.75 622.5,-97.75 622.5,-77 690.25,-77 690.25,-97.75"/>
<text text-anchor="middle" x="656.38" y="-84.25" font-family="Helvetica,sans-Serif" font-size="10.00">w2c__f302</text>
</a>
</g>
</g>
<!-- Node8&#45;&gt;Node11 -->
<g id="edge13_Node000008_Node000011" class="edge">
<title>Node8&#45;&gt;Node11</title>
<g id="a_edge13_Node000008_Node000011"><a xlink:title=" ">
<path fill="none" stroke="#63b8ff" d="M586.94,-86.7C594.57,-86.78 602.81,-86.86 610.83,-86.94"/>
<polygon fill="#63b8ff" stroke="#63b8ff" points="610.78,-90.44 620.82,-87.04 610.85,-83.44 610.78,-90.44"/>
</a>
</g>
</g>
<!-- Node9&#45;&gt;Node3 -->
<g id="edge11_Node000009_Node000003" class="edge">
<title>Node9&#45;&gt;Node3</title>
<g id="a_edge11_Node000009_Node000003"><a xlink:title=" ">
<path fill="none" stroke="#63b8ff" d="M676.11,-59.13C680.81,-62 685.79,-65.2 690.25,-68.38 707.3,-80.52 725.5,-95.69 738.91,-107.33"/>
<polygon fill="#63b8ff" stroke="#63b8ff" points="736.39,-109.77 746.22,-113.74 741.01,-104.51 736.39,-109.77"/>
</a>
</g>
</g>
<!-- Node10 -->
<g id="Node000010" class="node">
<title>Node10</title>
<g id="a_Node000010"><a xlink:href="app_8c.html#a881f0b113e93dce3ff52d04b435850f6" target="_top" xlink:title=" ">
<polygon fill="white" stroke="#666666" points="794,-58.75 726.25,-58.75 726.25,-38 794,-38 794,-58.75"/>
<text text-anchor="middle" x="760.12" y="-45.25" font-family="Helvetica,sans-Serif" font-size="10.00">w2c__f491</text>
</a>
</g>
</g>
<!-- Node9&#45;&gt;Node10 -->
<g id="edge12_Node000009_Node000010" class="edge">
<title>Node9&#45;&gt;Node10</title>
<g id="a_edge12_Node000009_Node000010"><a xlink:title=" ">
<path fill="none" stroke="#63b8ff" d="M690.69,-48.38C698.32,-48.38 706.56,-48.38 714.58,-48.38"/>
<polygon fill="#63b8ff" stroke="#63b8ff" points="714.57,-51.88 724.57,-48.38 714.57,-44.88 714.57,-51.88"/>
</a>
</g>
</g>
<!-- Node11&#45;&gt;Node3 -->
<g id="edge14_Node000011_Node000003" class="edge">
<title>Node11&#45;&gt;Node3</title>
<g id="a_edge14_Node000011_Node000003"><a xlink:title=" ">
<path fill="none" stroke="#63b8ff" d="M686.26,-98.16C696.57,-102.01 708.38,-106.42 719.44,-110.55"/>
<polygon fill="#63b8ff" stroke="#63b8ff" points="718.16,-113.81 728.75,-114.03 720.61,-107.25 718.16,-113.81"/>
</a>
</g>
</g>
<!-- Node12&#45;&gt;Node2 -->
<g id="edge16_Node000012_Node000002" class="edge">
<title>Node12&#45;&gt;Node2</title>
<g id="a_edge16_Node000012_Node000002"><a xlink:title=" ">
<path fill="none" stroke="#63b8ff" d="M568.79,-136.22C574.4,-140.29 580.78,-144.99 586.5,-149.38 602.8,-161.88 606.2,-165.87 622.5,-178.38 625.27,-180.5 628.2,-182.7 631.11,-184.86"/>
<polygon fill="#63b8ff" stroke="#63b8ff" points="628.85,-187.55 638.99,-190.64 632.99,-181.9 628.85,-187.55"/>
</a>
</g>
</g>
<!-- Node12&#45;&gt;Node3 -->
<g id="edge19_Node000012_Node000003" class="edge">
<title>Node12&#45;&gt;Node3</title>
<g id="a_edge19_Node000012_Node000003"><a xlink:title=" ">
<path fill="none" stroke="#63b8ff" d="M584.08,-136.23C595.91,-139.91 609.68,-143.55 622.5,-145.38 652.31,-149.62 660.44,-149.62 690.25,-145.38 699.26,-144.09 708.75,-141.91 717.7,-139.45"/>
<polygon fill="#63b8ff" stroke="#63b8ff" points="718.61,-142.83 727.22,-136.65 716.64,-136.11 718.61,-142.83"/>
</a>
</g>
</g>
<!-- Node12&#45;&gt;Node9 -->
<g id="edge17_Node000012_Node000009" class="edge">
<title>Node12&#45;&gt;Node9</title>
<g id="a_edge17_Node000012_Node000009"><a xlink:title=" ">
<path fill="none" stroke="#63b8ff" d="M573.29,-114.52C577.78,-111.75 582.42,-108.62 586.5,-105.38 604.44,-91.08 604.56,-82.67 622.5,-68.38 623.77,-67.36 625.1,-66.36 626.47,-65.37"/>
<polygon fill="#63b8ff" stroke="#63b8ff" points="628.06,-68.52 634.45,-60.06 624.18,-62.69 628.06,-68.52"/>
</a>
</g>
</g>
<!-- Node12&#45;&gt;Node11 -->
<g id="edge18_Node000012_Node000011" class="edge">
<title>Node12&#45;&gt;Node11</title>
<g id="a_edge18_Node000012_Node000011"><a xlink:title=" ">
<path fill="none" stroke="#63b8ff" d="M582.51,-114.59C592.82,-110.74 604.63,-106.33 615.69,-102.2"/>
<polygon fill="#63b8ff" stroke="#63b8ff" points="616.86,-105.5 625,-98.72 614.41,-98.94 616.86,-105.5"/>
</a>
</g>
</g>
<!-- Node13 -->
<g id="Node000013" class="node">
<title>Node13</title>
<g id="a_Node000013"><a xlink:href="app_8c.html#a674f6e81761467d0a8dc6d2a425eda9f" target="_top" xlink:title=" ">
<polygon fill="white" stroke="#666666" points="690.25,-136.75 622.5,-136.75 622.5,-116 690.25,-116 690.25,-136.75"/>
<text text-anchor="middle" x="656.38" y="-123.25" font-family="Helvetica,sans-Serif" font-size="10.00">w2c__f498</text>
</a>
</g>
</g>
<!-- Node12&#45;&gt;Node13 -->
<g id="edge20_Node000012_Node000013" class="edge">
<title>Node12&#45;&gt;Node13</title>
<g id="a_edge20_Node000012_Node000013"><a xlink:title=" ">
<path fill="none" stroke="#63b8ff" d="M586.94,-125.7C594.57,-125.78 602.81,-125.86 610.83,-125.94"/>
<polygon fill="#63b8ff" stroke="#63b8ff" points="610.78,-129.44 620.82,-126.04 610.85,-122.44 610.78,-129.44"/>
</a>
</g>
</g>
<!-- Node14&#45;&gt;Node9 -->
<g id="edge22_Node000014_Node000009" class="edge">
<title>Node14&#45;&gt;Node9</title>
<g id="a_edge22_Node000014_Node000009"><a xlink:title=" ">
<path fill="none" stroke="#63b8ff" d="M171.73,-48.38C212.34,-48.38 283.3,-48.38 344.12,-48.38 344.12,-48.38 344.12,-48.38 449.88,-48.38 505.36,-48.38 569.27,-48.38 610.89,-48.38"/>
<polygon fill="#63b8ff" stroke="#63b8ff" points="610.76,-51.88 620.76,-48.38 610.76,-44.88 610.76,-51.88"/>
</a>
</g>
</g>
<!-- Node15 -->
<g id="Node000015" class="node">
<title>Node15</title>
<g id="a_Node000015"><a xlink:href="app_8c.html#aeda0fdcf4b3bed63365b3a77c2197b09" target="_top" xlink:title=" ">
<polygon fill="white" stroke="#666666" points="275.25,-20.75 207.5,-20.75 207.5,0 275.25,0 275.25,-20.75"/>
<text text-anchor="middle" x="241.38" y="-7.25" font-family="Helvetica,sans-Serif" font-size="10.00">w2c__f538</text>
</a>
</g>
</g>
<!-- Node14&#45;&gt;Node15 -->
<g id="edge23_Node000014_Node000015" class="edge">
<title>Node14&#45;&gt;Node15</title>
<g id="a_edge23_Node000014_Node000015"><a xlink:title=" ">
<path fill="none" stroke="#63b8ff" d="M167.51,-37.59C177.82,-33.74 189.63,-29.33 200.69,-25.2"/>
<polygon fill="#63b8ff" stroke="#63b8ff" points="201.86,-28.5 210,-21.72 199.41,-21.94 201.86,-28.5"/>
</a>
</g>
</g>
<!-- Node16&#45;&gt;Node2 -->
<g id="edge25_Node000016_Node000002" class="edge">
<title>Node16&#45;&gt;Node2</title>
<g id="a_edge25_Node000016_Node000002"><a xlink:title=" ">
<path fill="none" stroke="#63b8ff" d="M171.73,-201.38C212.34,-201.38 283.3,-201.38 344.12,-201.38 344.12,-201.38 344.12,-201.38 449.88,-201.38 505.36,-201.38 569.27,-201.74 610.89,-202.03"/>
<polygon fill="#63b8ff" stroke="#63b8ff" points="610.74,-205.53 620.76,-202.1 610.79,-198.53 610.74,-205.53"/>
</a>
</g>
</g>
<!-- Node16&#45;&gt;Node5 -->
<g id="edge26_Node000016_Node000005" class="edge">
<title>Node16&#45;&gt;Node5</title>
<g id="a_edge26_Node000016_Node000005"><a xlink:title=" ">
<path fill="none" stroke="#63b8ff" d="M167.51,-190.59C177.82,-186.74 189.63,-182.33 200.69,-178.2"/>
<polygon fill="#63b8ff" stroke="#63b8ff" points="201.86,-181.5 210,-174.72 199.41,-174.94 201.86,-181.5"/>
</a>
</g>
</g>
</g>
</svg>
