<?xml version="1.0" encoding="UTF-8" standalone="no"?>
<!DOCTYPE svg PUBLIC "-//W3C//DTD SVG 1.1//EN"
 "http://www.w3.org/Graphics/SVG/1.1/DTD/svg11.dtd">
<!-- Generated by graphviz version 12.2.1 (0)
 -->
<!-- Title: w2c__f396 Pages: 1 -->
<svg width="495pt" height="266pt"
 viewBox="0.00 0.00 494.50 265.81" xmlns="http://www.w3.org/2000/svg" xmlns:xlink="http://www.w3.org/1999/xlink">
<g id="graph0" class="graph" transform="scale(1 1) rotate(0) translate(4 261.81)">
<title>w2c__f396</title>
<!-- Node1 -->
<g id="Node000001" class="node">
<title>Node1</title>
<g id="a_Node000001"><a xlink:title=" ">
<polygon fill="#999999" stroke="#666666" points="67.75,-98.75 0,-98.75 0,-78 67.75,-78 67.75,-98.75"/>
<text text-anchor="middle" x="33.88" y="-85.25" font-family="Helvetica,sans-Serif" font-size="10.00">w2c__f396</text>
</a>
</g>
</g>
<!-- Node2 -->
<g id="Node000002" class="node">
<title>Node2</title>
<g id="a_Node000002"><a xlink:href="app_8c.html#a433dfe09b8150b58f5cef673948d9ed7" target="_top" xlink:title=" ">
<polygon fill="white" stroke="#666666" points="173.38,-194.75 105.62,-194.75 105.62,-174 173.38,-174 173.38,-194.75"/>
<text text-anchor="middle" x="139.5" y="-181.25" font-family="Helvetica,sans-Serif" font-size="10.00">w2c__f277</text>
</a>
</g>
</g>
<!-- Node1&#45;&gt;Node2 -->
<g id="edge1_Node000001_Node000002" class="edge">
<title>Node1&#45;&gt;Node2</title>
<g id="a_edge1_Node000001_Node000002"><a xlink:title=" ">
<path fill="none" stroke="#63b8ff" d="M46.36,-99.02C63.79,-115.16 97.15,-146.07 118.59,-165.93"/>
<polygon fill="#63b8ff" stroke="#63b8ff" points="116.14,-168.43 125.85,-172.66 120.9,-163.29 116.14,-168.43"/>
</a>
</g>
</g>
<!-- Node8 -->
<g id="Node000008" class="node">
<title>Node8</title>
<g id="a_Node000008"><a xlink:href="app_8c.html#a8833c017b322ec1b941ea00b73fc4ab5" target="_top" xlink:title=" ">
<polygon fill="white" stroke="#666666" points="173.38,-137.75 105.62,-137.75 105.62,-117 173.38,-117 173.38,-137.75"/>
<text text-anchor="middle" x="139.5" y="-124.25" font-family="Helvetica,sans-Serif" font-size="10.00">w2c__f308</text>
</a>
</g>
</g>
<!-- Node1&#45;&gt;Node8 -->
<g id="edge10_Node000001_Node000008" class="edge">
<title>Node1&#45;&gt;Node8</title>
<g id="a_edge10_Node000001_Node000008"><a xlink:title=" ">
<path fill="none" stroke="#63b8ff" d="M63.74,-99.24C74.74,-103.38 87.48,-108.17 99.28,-112.62"/>
<polygon fill="#63b8ff" stroke="#63b8ff" points="97.78,-115.79 108.37,-116.04 100.25,-109.24 97.78,-115.79"/>
</a>
</g>
</g>
<!-- Node10 -->
<g id="Node000010" class="node">
<title>Node10</title>
<g id="a_Node000010"><a xlink:href="app_8c.html#a819bb0d5a870d8c4bbb6b9a791102333" target="_top" xlink:title=" ">
<polygon fill="white" stroke="#666666" points="173.38,-98.75 105.62,-98.75 105.62,-78 173.38,-78 173.38,-98.75"/>
<text text-anchor="middle" x="139.5" y="-85.25" font-family="Helvetica,sans-Serif" font-size="10.00">w2c__f322</text>
</a>
</g>
</g>
<!-- Node1&#45;&gt;Node10 -->
<g id="edge13_Node000001_Node000010" class="edge">
<title>Node1&#45;&gt;Node10</title>
<g id="a_edge13_Node000001_Node000010"><a xlink:title=" ">
<path fill="none" stroke="#63b8ff" d="M68.23,-88.38C76.37,-88.38 85.2,-88.38 93.77,-88.38"/>
<polygon fill="#63b8ff" stroke="#63b8ff" points="93.69,-91.88 103.69,-88.38 93.69,-84.88 93.69,-91.88"/>
</a>
</g>
</g>
<!-- Node11 -->
<g id="Node000011" class="node">
<title>Node11</title>
<g id="a_Node000011"><a xlink:href="app_8c.html#a55f0e3687ea8fa5d5cc06af63f503791" target="_top" xlink:title=" ">
<polygon fill="white" stroke="#666666" points="173.38,-59.75 105.62,-59.75 105.62,-39 173.38,-39 173.38,-59.75"/>
<text text-anchor="middle" x="139.5" y="-46.25" font-family="Helvetica,sans-Serif" font-size="10.00">w2c__f473</text>
</a>
</g>
</g>
<!-- Node1&#45;&gt;Node11 -->
<g id="edge14_Node000001_Node000011" class="edge">
<title>Node1&#45;&gt;Node11</title>
<g id="a_edge14_Node000001_Node000011"><a xlink:title=" ">
<path fill="none" stroke="#63b8ff" d="M63.74,-77.51C74.74,-73.37 87.48,-68.58 99.28,-64.13"/>
<polygon fill="#63b8ff" stroke="#63b8ff" points="100.25,-67.51 108.37,-60.71 97.78,-60.96 100.25,-67.51"/>
</a>
</g>
</g>
<!-- Node13 -->
<g id="Node000013" class="node">
<title>Node13</title>
<g id="a_Node000013"><a xlink:href="app_8c.html#ad63b6498cfe22ce747f349eeb23b508f" target="_top" xlink:title=" ">
<polygon fill="white" stroke="#666666" points="175.25,-20.75 103.75,-20.75 103.75,0 175.25,0 175.25,-20.75"/>
<text text-anchor="middle" x="139.5" y="-7.25" font-family="Helvetica,sans-Serif" font-size="10.00">wasm_fabs</text>
</a>
</g>
</g>
<!-- Node1&#45;&gt;Node13 -->
<g id="edge16_Node000001_Node000013" class="edge">
<title>Node1&#45;&gt;Node13</title>
<g id="a_edge16_Node000001_Node000013"><a xlink:title=" ">
<path fill="none" stroke="#63b8ff" d="M46.07,-77.87C59.3,-65.71 82.24,-45.44 103.75,-30.38 105.32,-29.28 106.95,-28.18 108.61,-27.11"/>
<polygon fill="#63b8ff" stroke="#63b8ff" points="110.28,-30.19 116.99,-21.99 106.63,-24.22 110.28,-30.19"/>
</a>
</g>
</g>
<!-- Node3 -->
<g id="Node000003" class="node">
<title>Node3</title>
<g id="a_Node000003"><a xlink:href="app_8c.html#ac7c3d97ad3659d9d7492f82b3a7a740d" target="_top" xlink:title=" ">
<polygon fill="white" stroke="#666666" points="279,-232.75 211.25,-232.75 211.25,-212 279,-212 279,-232.75"/>
<text text-anchor="middle" x="245.12" y="-219.25" font-family="Helvetica,sans-Serif" font-size="10.00">w2c__f218</text>
</a>
</g>
</g>
<!-- Node2&#45;&gt;Node3 -->
<g id="edge2_Node000002_Node000003" class="edge">
<title>Node2&#45;&gt;Node3</title>
<g id="a_edge2_Node000002_Node000003"><a xlink:title=" ">
<path fill="none" stroke="#63b8ff" d="M169.92,-195.16C180.53,-199.05 192.69,-203.51 204.06,-207.68"/>
<polygon fill="#63b8ff" stroke="#63b8ff" points="202.62,-210.88 213.21,-211.04 205.03,-204.31 202.62,-210.88"/>
</a>
</g>
</g>
<!-- Node5 -->
<g id="Node000005" class="node">
<title>Node5</title>
<g id="a_Node000005"><a xlink:href="app_8c.html#a674f6e81761467d0a8dc6d2a425eda9f" target="_top" xlink:title=" ">
<polygon fill="white" stroke="#666666" points="486.5,-252.75 418.75,-252.75 418.75,-232 486.5,-232 486.5,-252.75"/>
<text text-anchor="middle" x="452.62" y="-239.25" font-family="Helvetica,sans-Serif" font-size="10.00">w2c__f498</text>
</a>
</g>
</g>
<!-- Node2&#45;&gt;Node5 -->
<g id="edge8_Node000002_Node000005" class="edge">
<title>Node2&#45;&gt;Node5</title>
<g id="a_edge8_Node000002_Node000005"><a xlink:title=" ">
<path fill="none" stroke="#63b8ff" d="M149.25,-194.85C161.47,-208.58 185.11,-232.01 211.25,-241.38 276.36,-264.69 357.9,-258.24 407.31,-250.79"/>
<polygon fill="#63b8ff" stroke="#63b8ff" points="407.74,-254.27 417.06,-249.23 406.63,-247.35 407.74,-254.27"/>
</a>
</g>
</g>
<!-- Node6 -->
<g id="Node000006" class="node">
<title>Node6</title>
<g id="a_Node000006"><a xlink:href="app_8c.html#a672569c91ebb1d5055d737b56ec296a7" target="_top" xlink:title=" ">
<polygon fill="white" stroke="#666666" points="486.5,-156.75 418.75,-156.75 418.75,-136 486.5,-136 486.5,-156.75"/>
<text text-anchor="middle" x="452.62" y="-143.25" font-family="Helvetica,sans-Serif" font-size="10.00">w2c__f585</text>
</a>
</g>
</g>
<!-- Node2&#45;&gt;Node6 -->
<g id="edge9_Node000002_Node000006" class="edge">
<title>Node2&#45;&gt;Node6</title>
<g id="a_edge9_Node000002_Node000006"><a xlink:title=" ">
<path fill="none" stroke="#63b8ff" d="M173.8,-180.31C230.17,-173.42 344.41,-159.47 407.42,-151.77"/>
<polygon fill="#63b8ff" stroke="#63b8ff" points="407.56,-155.28 417.07,-150.6 406.72,-148.33 407.56,-155.28"/>
</a>
</g>
</g>
<!-- Node7 -->
<g id="Node000007" class="node">
<title>Node7</title>
<g id="a_Node000007"><a xlink:href="app_8c.html#ab07e4056f5c12e00d750c88d85ec77bb" target="_top" xlink:title=" ">
<polygon fill="white" stroke="#666666" points="382.75,-194.75 315,-194.75 315,-174 382.75,-174 382.75,-194.75"/>
<text text-anchor="middle" x="348.88" y="-181.25" font-family="Helvetica,sans-Serif" font-size="10.00">w2c__f415</text>
</a>
</g>
</g>
<!-- Node2&#45;&gt;Node7 -->
<g id="edge7_Node000002_Node000007" class="edge">
<title>Node2&#45;&gt;Node7</title>
<g id="a_edge7_Node000002_Node000007"><a xlink:title=" ">
<path fill="none" stroke="#63b8ff" d="M173.82,-184.38C208.89,-184.38 264.3,-184.38 303.15,-184.38"/>
<polygon fill="#63b8ff" stroke="#63b8ff" points="303.13,-187.88 313.13,-184.38 303.13,-180.88 303.13,-187.88"/>
</a>
</g>
</g>
<!-- Node4 -->
<g id="Node000004" class="node">
<title>Node4</title>
<g id="a_Node000004"><a xlink:href="app_8c.html#a268eeda7b1a075e4b680bac34cdfebdb" target="_top" xlink:title=" ">
<polygon fill="white" stroke="#666666" points="382.75,-233.75 315,-233.75 315,-213 382.75,-213 382.75,-233.75"/>
<text text-anchor="middle" x="348.88" y="-220.25" font-family="Helvetica,sans-Serif" font-size="10.00">w2c__f259</text>
</a>
</g>
</g>
<!-- Node3&#45;&gt;Node4 -->
<g id="edge3_Node000003_Node000004" class="edge">
<title>Node3&#45;&gt;Node4</title>
<g id="a_edge3_Node000003_Node000004"><a xlink:title=" ">
<path fill="none" stroke="#63b8ff" d="M279.44,-222.7C287.07,-222.78 295.31,-222.86 303.33,-222.94"/>
<polygon fill="#63b8ff" stroke="#63b8ff" points="303.28,-226.44 313.32,-223.04 303.35,-219.44 303.28,-226.44"/>
</a>
</g>
</g>
<!-- Node3&#45;&gt;Node7 -->
<g id="edge6_Node000003_Node000007" class="edge">
<title>Node3&#45;&gt;Node7</title>
<g id="a_edge6_Node000003_Node000007"><a xlink:title=" ">
<path fill="none" stroke="#63b8ff" d="M275.01,-211.59C285.32,-207.74 297.13,-203.33 308.19,-199.2"/>
<polygon fill="#63b8ff" stroke="#63b8ff" points="309.36,-202.5 317.5,-195.72 306.91,-195.94 309.36,-202.5"/>
</a>
</g>
</g>
<!-- Node4&#45;&gt;Node5 -->
<g id="edge4_Node000004_Node000005" class="edge">
<title>Node4&#45;&gt;Node5</title>
<g id="a_edge4_Node000004_Node000005"><a xlink:title=" ">
<path fill="none" stroke="#63b8ff" d="M383.19,-229.6C390.91,-231.04 399.25,-232.59 407.36,-234.11"/>
<polygon fill="#63b8ff" stroke="#63b8ff" points="406.62,-237.53 417.09,-235.93 407.91,-230.65 406.62,-237.53"/>
</a>
</g>
</g>
<!-- Node4&#45;&gt;Node6 -->
<g id="edge5_Node000004_Node000006" class="edge">
<title>Node4&#45;&gt;Node6</title>
<g id="a_edge5_Node000004_Node000006"><a xlink:title=" ">
<path fill="none" stroke="#63b8ff" d="M368.61,-212.62C373.31,-209.75 378.29,-206.55 382.75,-203.38 399.8,-191.23 418,-176.06 431.41,-164.42"/>
<polygon fill="#63b8ff" stroke="#63b8ff" points="433.51,-167.24 438.72,-158.01 428.89,-161.98 433.51,-167.24"/>
</a>
</g>
</g>
<!-- Node9 -->
<g id="Node000009" class="node">
<title>Node9</title>
<g id="a_Node000009"><a xlink:href="app_8c.html#a69141c0140f000f9e7b4001ac46fbf92" target="_top" xlink:title=" ">
<polygon fill="white" stroke="#666666" points="382.75,-118.75 315,-118.75 315,-98 382.75,-98 382.75,-118.75"/>
<text text-anchor="middle" x="348.88" y="-105.25" font-family="Helvetica,sans-Serif" font-size="10.00">w2c__f446</text>
</a>
</g>
</g>
<!-- Node8&#45;&gt;Node9 -->
<g id="edge11_Node000008_Node000009" class="edge">
<title>Node8&#45;&gt;Node9</title>
<g id="a_edge11_Node000008_Node000009"><a xlink:title=" ">
<path fill="none" stroke="#63b8ff" d="M173.82,-124.32C209.04,-121.1 264.77,-115.99 303.65,-112.43"/>
<polygon fill="#63b8ff" stroke="#63b8ff" points="303.49,-115.96 313.13,-111.56 302.85,-108.99 303.49,-115.96"/>
</a>
</g>
</g>
<!-- Node9&#45;&gt;Node6 -->
<g id="edge12_Node000009_Node000006" class="edge">
<title>Node9&#45;&gt;Node6</title>
<g id="a_edge12_Node000009_Node000006"><a xlink:title=" ">
<path fill="none" stroke="#63b8ff" d="M378.76,-119.16C389.07,-123.01 400.88,-127.42 411.94,-131.55"/>
<polygon fill="#63b8ff" stroke="#63b8ff" points="410.66,-134.81 421.25,-135.03 413.11,-128.25 410.66,-134.81"/>
</a>
</g>
</g>
<!-- Node12 -->
<g id="Node000012" class="node">
<title>Node12</title>
<g id="a_Node000012"><a xlink:href="app_8c.html#ab5fcbcf768e56d91e9aa71bba4a24166" target="_top" xlink:title=" ">
<polygon fill="white" stroke="#666666" points="279,-59.75 211.25,-59.75 211.25,-39 279,-39 279,-59.75"/>
<text text-anchor="middle" x="245.12" y="-46.25" font-family="Helvetica,sans-Serif" font-size="10.00">w2c__f221</text>
</a>
</g>
</g>
<!-- Node11&#45;&gt;Node12 -->
<g id="edge15_Node000011_Node000012" class="edge">
<title>Node11&#45;&gt;Node12</title>
<g id="a_edge15_Node000011_Node000012"><a xlink:title=" ">
<path fill="none" stroke="#63b8ff" d="M173.86,-49.38C181.99,-49.38 190.83,-49.38 199.4,-49.38"/>
<polygon fill="#63b8ff" stroke="#63b8ff" points="199.32,-52.88 209.32,-49.38 199.32,-45.88 199.32,-52.88"/>
</a>
</g>
</g>
</g>
</svg>
