<?xml version="1.0" encoding="UTF-8" standalone="no"?>
<!DOCTYPE svg PUBLIC "-//W3C//DTD SVG 1.1//EN"
 "http://www.w3.org/Graphics/SVG/1.1/DTD/svg11.dtd">
<!-- Generated by graphviz version 12.2.1 (0)
 -->
<!-- Title: w2c__f466 Pages: 1 -->
<svg width="491pt" height="449pt"
 viewBox="0.00 0.00 490.75 448.75" xmlns="http://www.w3.org/2000/svg" xmlns:xlink="http://www.w3.org/1999/xlink">
<g id="graph0" class="graph" transform="scale(1 1) rotate(0) translate(4 444.75)">
<title>w2c__f466</title>
<!-- Node1 -->
<g id="Node000001" class="node">
<title>Node1</title>
<g id="a_Node000001"><a xlink:title=" ">
<polygon fill="#999999" stroke="#666666" points="482.75,-231.75 415,-231.75 415,-211 482.75,-211 482.75,-231.75"/>
<text text-anchor="middle" x="448.88" y="-218.25" font-family="Helvetica,sans-Serif" font-size="10.00">w2c__f466</text>
</a>
</g>
</g>
<!-- Node2 -->
<g id="Node000002" class="node">
<title>Node2</title>
<g id="a_Node000002"><a xlink:href="app_8c.html#a23410de0f8905b2c8e88eede0c2817bf" target="_top" xlink:title=" ">
<polygon fill="white" stroke="#666666" points="275.25,-440.75 207.5,-440.75 207.5,-420 275.25,-420 275.25,-440.75"/>
<text text-anchor="middle" x="241.38" y="-427.25" font-family="Helvetica,sans-Serif" font-size="10.00">w2c__f274</text>
</a>
</g>
</g>
<!-- Node1&#45;&gt;Node2 -->
<g id="edge1_Node000001_Node000002" class="edge">
<title>Node1&#45;&gt;Node2</title>
<g id="a_edge1_Node000001_Node000002"><a xlink:title=" ">
<path fill="none" stroke="#63b8ff" d="M446.48,-243.63C442.74,-283.01 429.04,-364.72 379,-406.38 350.22,-430.33 305.99,-434.04 275.7,-433.26"/>
<polygon fill="#63b8ff" stroke="#63b8ff" points="449.96,-243.98 447.27,-233.73 442.99,-243.42 449.96,-243.98"/>
</a>
</g>
</g>
<!-- Node3 -->
<g id="Node000003" class="node">
<title>Node3</title>
<g id="a_Node000003"><a xlink:href="app_8c.html#a9a6678ec111966f9ad398c4ddc0f4ce7" target="_top" xlink:title=" ">
<polygon fill="white" stroke="#666666" points="171.5,-345.75 103.75,-345.75 103.75,-325 171.5,-325 171.5,-345.75"/>
<text text-anchor="middle" x="137.62" y="-332.25" font-family="Helvetica,sans-Serif" font-size="10.00">w2c__f472</text>
</a>
</g>
</g>
<!-- Node1&#45;&gt;Node3 -->
<g id="edge18_Node000001_Node000003" class="edge">
<title>Node1&#45;&gt;Node3</title>
<g id="a_edge18_Node000001_Node000003"><a xlink:title=" ">
<path fill="none" stroke="#63b8ff" d="M441.26,-242.73C431.91,-269.1 412.15,-313.17 379,-335.38 316.07,-377.53 221.55,-359.91 171.86,-346.08"/>
<polygon fill="#63b8ff" stroke="#63b8ff" points="444.52,-244.03 444.36,-233.44 437.88,-241.82 444.52,-244.03"/>
</a>
</g>
</g>
<!-- Node5 -->
<g id="Node000005" class="node">
<title>Node5</title>
<g id="a_Node000005"><a xlink:href="app_8c.html#ab5a3eb75567e85becd3ea69f3cefe6c1" target="_top" xlink:title=" ">
<polygon fill="white" stroke="#666666" points="379,-134.75 311.25,-134.75 311.25,-114 379,-114 379,-134.75"/>
<text text-anchor="middle" x="345.12" y="-121.25" font-family="Helvetica,sans-Serif" font-size="10.00">w2c__f285</text>
</a>
</g>
</g>
<!-- Node1&#45;&gt;Node5 -->
<g id="edge4_Node000001_Node000005" class="edge">
<title>Node1&#45;&gt;Node5</title>
<g id="a_edge4_Node000001_Node000005"><a xlink:title=" ">
<path fill="none" stroke="#63b8ff" d="M432.99,-201.71C419.9,-185.2 399.75,-161.63 379,-144.38 374.99,-141.04 370.38,-137.88 365.89,-135.1"/>
<polygon fill="#63b8ff" stroke="#63b8ff" points="430,-203.56 438.9,-209.31 435.53,-199.27 430,-203.56"/>
</a>
</g>
</g>
<!-- Node6 -->
<g id="Node000006" class="node">
<title>Node6</title>
<g id="a_Node000006"><a xlink:href="app_8c.html#adb357000a4d9b03118bb4a6a7435605d" target="_top" xlink:title=" ">
<polygon fill="white" stroke="#666666" points="171.5,-115.75 103.75,-115.75 103.75,-95 171.5,-95 171.5,-115.75"/>
<text text-anchor="middle" x="137.62" y="-102.25" font-family="Helvetica,sans-Serif" font-size="10.00">w2c__f404</text>
</a>
</g>
</g>
<!-- Node1&#45;&gt;Node6 -->
<g id="edge15_Node000001_Node000006" class="edge">
<title>Node1&#45;&gt;Node6</title>
<g id="a_edge15_Node000001_Node000006"><a xlink:title=" ">
<path fill="none" stroke="#63b8ff" d="M442.26,-200.02C433.75,-172.46 414.64,-125.66 379,-105.38 313.54,-68.11 220.89,-83.4 171.93,-95.65"/>
<polygon fill="#63b8ff" stroke="#63b8ff" points="438.83,-200.74 444.95,-209.38 445.56,-198.81 438.83,-200.74"/>
</a>
</g>
</g>
<!-- Node8 -->
<g id="Node000008" class="node">
<title>Node8</title>
<g id="a_Node000008"><a xlink:href="app_8c.html#a40e1e2f15a47b569fe1234de2e329a46" target="_top" xlink:title=" ">
<polygon fill="white" stroke="#666666" points="379,-326.75 311.25,-326.75 311.25,-306 379,-306 379,-326.75"/>
<text text-anchor="middle" x="345.12" y="-313.25" font-family="Helvetica,sans-Serif" font-size="10.00">w2c__f297</text>
</a>
</g>
</g>
<!-- Node1&#45;&gt;Node8 -->
<g id="edge7_Node000001_Node000008" class="edge">
<title>Node1&#45;&gt;Node8</title>
<g id="a_edge7_Node000001_Node000008"><a xlink:title=" ">
<path fill="none" stroke="#63b8ff" d="M431.07,-240.4C417.6,-255.22 397.89,-275.95 379,-292.38 373.67,-297.01 367.48,-301.69 361.93,-305.67"/>
<polygon fill="#63b8ff" stroke="#63b8ff" points="433.49,-242.94 437.57,-233.16 428.29,-238.26 433.49,-242.94"/>
</a>
</g>
</g>
<!-- Node10 -->
<g id="Node000010" class="node">
<title>Node10</title>
<g id="a_Node000010"><a xlink:href="app_8c.html#a90092f313c3529894f5b07df3b2baa3a" target="_top" xlink:title=" ">
<polygon fill="white" stroke="#666666" points="379,-212.75 311.25,-212.75 311.25,-192 379,-192 379,-212.75"/>
<text text-anchor="middle" x="345.12" y="-199.25" font-family="Helvetica,sans-Serif" font-size="10.00">w2c__f364</text>
</a>
</g>
</g>
<!-- Node1&#45;&gt;Node10 -->
<g id="edge11_Node000001_Node000010" class="edge">
<title>Node1&#45;&gt;Node10</title>
<g id="a_edge11_Node000001_Node000010"><a xlink:title=" ">
<path fill="none" stroke="#63b8ff" d="M403.32,-213.06C395.21,-211.54 386.88,-209.98 379.17,-208.55"/>
<polygon fill="#63b8ff" stroke="#63b8ff" points="402.6,-216.48 413.07,-214.88 403.88,-209.6 402.6,-216.48"/>
</a>
</g>
</g>
<!-- Node11 -->
<g id="Node000011" class="node">
<title>Node11</title>
<g id="a_Node000011"><a xlink:href="app_8c.html#a4b4464bc0bc06853b9af4b408d460453" target="_top" xlink:title=" ">
<polygon fill="white" stroke="#666666" points="379,-173.75 311.25,-173.75 311.25,-153 379,-153 379,-173.75"/>
<text text-anchor="middle" x="345.12" y="-160.25" font-family="Helvetica,sans-Serif" font-size="10.00">w2c__f376</text>
</a>
</g>
</g>
<!-- Node1&#45;&gt;Node11 -->
<g id="edge13_Node000001_Node000011" class="edge">
<title>Node1&#45;&gt;Node11</title>
<g id="a_edge13_Node000001_Node000011"><a xlink:title=" ">
<path fill="none" stroke="#63b8ff" d="M419.56,-205.23C402.15,-195.31 380.33,-182.87 365.01,-174.14"/>
<polygon fill="#63b8ff" stroke="#63b8ff" points="417.48,-208.08 427.9,-209.99 420.94,-201.99 417.48,-208.08"/>
</a>
</g>
</g>
<!-- Node12 -->
<g id="Node000012" class="node">
<title>Node12</title>
<g id="a_Node000012"><a xlink:href="app_8c.html#a2ed61b7ee4e5a17be88e493a38bae83d" target="_top" xlink:title=" ">
<polygon fill="white" stroke="#666666" points="275.25,-287.75 207.5,-287.75 207.5,-267 275.25,-267 275.25,-287.75"/>
<text text-anchor="middle" x="241.38" y="-274.25" font-family="Helvetica,sans-Serif" font-size="10.00">w2c__f405</text>
</a>
</g>
</g>
<!-- Node1&#45;&gt;Node12 -->
<g id="edge16_Node000001_Node000012" class="edge">
<title>Node1&#45;&gt;Node12</title>
<g id="a_edge16_Node000001_Node000012"><a xlink:title=" ">
<path fill="none" stroke="#63b8ff" d="M406.51,-235.82C397.49,-238.8 387.96,-241.8 379,-244.38 344.05,-254.41 303.5,-263.94 275.71,-270.16"/>
<polygon fill="#63b8ff" stroke="#63b8ff" points="407.39,-239.22 415.76,-232.73 405.16,-232.58 407.39,-239.22"/>
</a>
</g>
</g>
<!-- Node13 -->
<g id="Node000013" class="node">
<title>Node13</title>
<g id="a_Node000013"><a xlink:href="app_8c.html#ab921fb28dcc7600a438d095932e682a1" target="_top" xlink:title=" ">
<polygon fill="white" stroke="#666666" points="275.25,-248.75 207.5,-248.75 207.5,-228 275.25,-228 275.25,-248.75"/>
<text text-anchor="middle" x="241.38" y="-235.25" font-family="Helvetica,sans-Serif" font-size="10.00">w2c__f483</text>
</a>
</g>
</g>
<!-- Node1&#45;&gt;Node13 -->
<g id="edge19_Node000001_Node000013" class="edge">
<title>Node1&#45;&gt;Node13</title>
<g id="a_edge19_Node000001_Node000013"><a xlink:title=" ">
<path fill="none" stroke="#63b8ff" d="M403.5,-225.05C365.09,-228.22 310.4,-232.75 275.65,-235.62"/>
<polygon fill="#63b8ff" stroke="#63b8ff" points="403.67,-228.54 413.35,-224.23 403.09,-221.57 403.67,-228.54"/>
</a>
</g>
</g>
<!-- Node14 -->
<g id="Node000014" class="node">
<title>Node14</title>
<g id="a_Node000014"><a xlink:href="app_8c.html#ac69b13e2c3468609717df2627a30b836" target="_top" xlink:title=" ">
<polygon fill="white" stroke="#666666" points="379,-58.75 311.25,-58.75 311.25,-38 379,-38 379,-58.75"/>
<text text-anchor="middle" x="345.12" y="-45.25" font-family="Helvetica,sans-Serif" font-size="10.00">w2c__f497</text>
</a>
</g>
</g>
<!-- Node1&#45;&gt;Node14 -->
<g id="edge21_Node000001_Node000014" class="edge">
<title>Node1&#45;&gt;Node14</title>
<g id="a_edge21_Node000001_Node000014"><a xlink:title=" ">
<path fill="none" stroke="#63b8ff" d="M441.74,-199.86C432.17,-169.09 411.37,-111.87 379,-72.38 374.88,-67.35 369.47,-62.83 364.24,-59.11"/>
<polygon fill="#63b8ff" stroke="#63b8ff" points="438.3,-200.59 444.52,-209.16 445.01,-198.58 438.3,-200.59"/>
</a>
</g>
</g>
<!-- Node2&#45;&gt;Node3 -->
<g id="edge2_Node000002_Node000003" class="edge">
<title>Node2&#45;&gt;Node3</title>
<g id="a_edge2_Node000002_Node000003"><a xlink:title=" ">
<path fill="none" stroke="#63b8ff" d="M215.41,-412.84C212.69,-410.73 210,-408.55 207.5,-406.38 184.69,-386.55 160.69,-360.42 147.92,-346.03"/>
<polygon fill="#63b8ff" stroke="#63b8ff" points="213.25,-415.6 223.36,-418.76 217.42,-409.98 213.25,-415.6"/>
</a>
</g>
</g>
<!-- Node4 -->
<g id="Node000004" class="node">
<title>Node4</title>
<g id="a_Node000004"><a xlink:href="app_8c.html#a980a551daeb256397f01e6faa91d49db" target="_top" xlink:title=" ">
<polygon fill="white" stroke="#666666" points="67.75,-345.75 0,-345.75 0,-325 67.75,-325 67.75,-345.75"/>
<text text-anchor="middle" x="33.88" y="-332.25" font-family="Helvetica,sans-Serif" font-size="10.00">w2c__f403</text>
</a>
</g>
</g>
<!-- Node3&#45;&gt;Node4 -->
<g id="edge3_Node000003_Node000004" class="edge">
<title>Node3&#45;&gt;Node4</title>
<g id="a_edge3_Node000003_Node000004"><a xlink:title=" ">
<path fill="none" stroke="#63b8ff" d="M92.07,-335.38C83.96,-335.38 75.63,-335.38 67.92,-335.38"/>
<polygon fill="#63b8ff" stroke="#63b8ff" points="91.79,-338.88 101.79,-335.38 91.79,-331.88 91.79,-338.88"/>
</a>
</g>
</g>
<!-- Node5&#45;&gt;Node6 -->
<g id="edge5_Node000005_Node000006" class="edge">
<title>Node5&#45;&gt;Node6</title>
<g id="a_edge5_Node000005_Node000006"><a xlink:title=" ">
<path fill="none" stroke="#63b8ff" d="M299.75,-120.27C261.34,-116.72 206.65,-111.66 171.9,-108.45"/>
<polygon fill="#63b8ff" stroke="#63b8ff" points="299.32,-123.75 309.6,-121.18 299.97,-116.78 299.32,-123.75"/>
</a>
</g>
</g>
<!-- Node7 -->
<g id="Node000007" class="node">
<title>Node7</title>
<g id="a_Node000007"><a xlink:href="app_8c.html#a05d83e696cfaa26355c9732ee9ea4cd0" target="_top" xlink:title=" ">
<polygon fill="white" stroke="#666666" points="67.75,-115.75 0,-115.75 0,-95 67.75,-95 67.75,-115.75"/>
<text text-anchor="middle" x="33.88" y="-102.25" font-family="Helvetica,sans-Serif" font-size="10.00">w2c__f454</text>
</a>
</g>
</g>
<!-- Node6&#45;&gt;Node7 -->
<g id="edge6_Node000006_Node000007" class="edge">
<title>Node6&#45;&gt;Node7</title>
<g id="a_edge6_Node000006_Node000007"><a xlink:title=" ">
<path fill="none" stroke="#63b8ff" d="M92.07,-105.38C83.96,-105.38 75.63,-105.38 67.92,-105.38"/>
<polygon fill="#63b8ff" stroke="#63b8ff" points="91.79,-108.88 101.79,-105.38 91.79,-101.88 91.79,-108.88"/>
</a>
</g>
</g>
<!-- Node8&#45;&gt;Node3 -->
<g id="edge10_Node000008_Node000003" class="edge">
<title>Node8&#45;&gt;Node3</title>
<g id="a_edge10_Node000008_Node000003"><a xlink:title=" ">
<path fill="none" stroke="#63b8ff" d="M301.08,-330.16C292.6,-332.33 283.71,-334.23 275.25,-335.38 240.23,-340.12 199.69,-339.34 171.92,-337.86"/>
<polygon fill="#63b8ff" stroke="#63b8ff" points="301.73,-333.6 310.46,-327.59 299.89,-326.85 301.73,-333.6"/>
</a>
</g>
</g>
<!-- Node9 -->
<g id="Node000009" class="node">
<title>Node9</title>
<g id="a_Node000009"><a xlink:href="app_8c.html#a083dd2487e591fd27285cd1c1789b457" target="_top" xlink:title=" ">
<polygon fill="white" stroke="#666666" points="275.25,-326.75 207.5,-326.75 207.5,-306 275.25,-306 275.25,-326.75"/>
<text text-anchor="middle" x="241.38" y="-313.25" font-family="Helvetica,sans-Serif" font-size="10.00">w2c__f412</text>
</a>
</g>
</g>
<!-- Node8&#45;&gt;Node9 -->
<g id="edge8_Node000008_Node000009" class="edge">
<title>Node8&#45;&gt;Node9</title>
<g id="a_edge8_Node000008_Node000009"><a xlink:title=" ">
<path fill="none" stroke="#63b8ff" d="M299.57,-316.38C291.46,-316.38 283.13,-316.38 275.42,-316.38"/>
<polygon fill="#63b8ff" stroke="#63b8ff" points="299.29,-319.88 309.29,-316.38 299.29,-312.88 299.29,-319.88"/>
</a>
</g>
</g>
<!-- Node9&#45;&gt;Node3 -->
<g id="edge9_Node000009_Node000003" class="edge">
<title>Node9&#45;&gt;Node3</title>
<g id="a_edge9_Node000009_Node000003"><a xlink:title=" ">
<path fill="none" stroke="#63b8ff" d="M195.82,-324.69C187.71,-326.21 179.38,-327.77 171.67,-329.2"/>
<polygon fill="#63b8ff" stroke="#63b8ff" points="196.38,-328.15 205.57,-322.87 195.1,-321.27 196.38,-328.15"/>
</a>
</g>
</g>
<!-- Node10&#45;&gt;Node6 -->
<g id="edge12_Node000010_Node000006" class="edge">
<title>Node10&#45;&gt;Node6</title>
<g id="a_edge12_Node000010_Node000006"><a xlink:title=" ">
<path fill="none" stroke="#63b8ff" d="M300.06,-189.33C272.7,-180.49 237.21,-167.65 207.5,-152.38 187.16,-141.92 165.69,-126.47 152.23,-116.17"/>
<polygon fill="#63b8ff" stroke="#63b8ff" points="298.83,-192.61 309.42,-192.3 300.94,-185.94 298.83,-192.61"/>
</a>
</g>
</g>
<!-- Node11&#45;&gt;Node6 -->
<g id="edge14_Node000011_Node000006" class="edge">
<title>Node11&#45;&gt;Node6</title>
<g id="a_edge14_Node000011_Node000006"><a xlink:title=" ">
<path fill="none" stroke="#63b8ff" d="M299.78,-153.42C272.91,-147.12 238.04,-138.48 207.5,-129.38 194.39,-125.47 180.09,-120.59 167.93,-116.25"/>
<polygon fill="#63b8ff" stroke="#63b8ff" points="298.76,-156.78 309.29,-155.63 300.34,-149.96 298.76,-156.78"/>
</a>
</g>
</g>
<!-- Node12&#45;&gt;Node3 -->
<g id="edge17_Node000012_Node000003" class="edge">
<title>Node12&#45;&gt;Node3</title>
<g id="a_edge17_Node000012_Node000003"><a xlink:title=" ">
<path fill="none" stroke="#63b8ff" d="M212.06,-293.52C194.65,-303.44 172.83,-315.88 157.51,-324.61"/>
<polygon fill="#63b8ff" stroke="#63b8ff" points="213.44,-296.76 220.4,-288.76 209.98,-290.67 213.44,-296.76"/>
</a>
</g>
</g>
<!-- Node13&#45;&gt;Node3 -->
<g id="edge20_Node000013_Node000003" class="edge">
<title>Node13&#45;&gt;Node3</title>
<g id="a_edge20_Node000013_Node000003"><a xlink:title=" ">
<path fill="none" stroke="#63b8ff" d="M211.41,-255.31C210.06,-256.31 208.75,-257.33 207.5,-258.38 182.68,-279.02 158.71,-308.7 146.67,-324.5"/>
<polygon fill="#63b8ff" stroke="#63b8ff" points="213.02,-258.45 219.35,-249.95 209.11,-252.64 213.02,-258.45"/>
</a>
</g>
</g>
<!-- Node14&#45;&gt;Node6 -->
<g id="edge22_Node000014_Node000006" class="edge">
<title>Node14&#45;&gt;Node6</title>
<g id="a_edge22_Node000014_Node000006"><a xlink:title=" ">
<path fill="none" stroke="#63b8ff" d="M299.86,-53.04C272.75,-56.66 237.6,-62.72 207.5,-72.38 189.95,-78 171.15,-87.25 157.64,-94.52"/>
<polygon fill="#63b8ff" stroke="#63b8ff" points="299.96,-56.56 309.44,-51.83 299.08,-49.61 299.96,-56.56"/>
</a>
</g>
</g>
<!-- Node15 -->
<g id="Node000015" class="node">
<title>Node15</title>
<g id="a_Node000015"><a xlink:href="app_8c.html#a3528ca1eb262ff9291f92bf37d2fc18a" target="_top" xlink:title=" ">
<polygon fill="white" stroke="#666666" points="275.25,-20.75 207.5,-20.75 207.5,0 275.25,0 275.25,-20.75"/>
<text text-anchor="middle" x="241.38" y="-7.25" font-family="Helvetica,sans-Serif" font-size="10.00">w2c__f492</text>
</a>
</g>
</g>
<!-- Node14&#45;&gt;Node15 -->
<g id="edge23_Node000014_Node000015" class="edge">
<title>Node14&#45;&gt;Node15</title>
<g id="a_edge23_Node000014_Node000015"><a xlink:title=" ">
<path fill="none" stroke="#63b8ff" d="M304.51,-33.58C293.46,-29.45 281.65,-25.04 271.33,-21.19"/>
<polygon fill="#63b8ff" stroke="#63b8ff" points="303.23,-36.84 313.82,-37.06 305.68,-30.28 303.23,-36.84"/>
</a>
</g>
</g>
<!-- Node15&#45;&gt;Node6 -->
<g id="edge24_Node000015_Node000006" class="edge">
<title>Node15&#45;&gt;Node6</title>
<g id="a_edge24_Node000015_Node000006"><a xlink:title=" ">
<path fill="none" stroke="#63b8ff" d="M215.41,-27.91C212.69,-30.02 210,-32.2 207.5,-34.38 184.69,-54.2 160.69,-80.33 147.92,-94.72"/>
<polygon fill="#63b8ff" stroke="#63b8ff" points="217.42,-30.77 223.36,-21.99 213.25,-25.15 217.42,-30.77"/>
</a>
</g>
</g>
</g>
</svg>
