<?xml version="1.0" encoding="UTF-8" standalone="no"?>
<!DOCTYPE svg PUBLIC "-//W3C//DTD SVG 1.1//EN"
 "http://www.w3.org/Graphics/SVG/1.1/DTD/svg11.dtd">
<!-- Generated by graphviz version 12.2.1 (0)
 -->
<!-- Title: wrap_w2c__f569 Pages: 1 -->
<svg width="520pt" height="144pt"
 viewBox="0.00 0.00 520.00 143.75" xmlns="http://www.w3.org/2000/svg" xmlns:xlink="http://www.w3.org/1999/xlink">
<g id="graph0" class="graph" transform="scale(1 1) rotate(0) translate(4 139.75)">
<title>wrap_w2c__f569</title>
<!-- Node1 -->
<g id="Node000001" class="node">
<title>Node1</title>
<g id="a_Node000001"><a xlink:title=" ">
<polygon fill="#999999" stroke="#666666" points="97,-78.75 0,-78.75 0,-58 97,-58 97,-78.75"/>
<text text-anchor="middle" x="48.5" y="-65.25" font-family="Helvetica,sans-Serif" font-size="10.00">wrap_w2c__f569</text>
</a>
</g>
</g>
<!-- Node2 -->
<g id="Node000002" class="node">
<title>Node2</title>
<g id="a_Node000002"><a xlink:href="app_8c.html#af0296b725c21bf04f3e7cfda0bf4de01" target="_top" xlink:title=" ">
<polygon fill="white" stroke="#666666" points="200.75,-78.75 133,-78.75 133,-58 200.75,-58 200.75,-78.75"/>
<text text-anchor="middle" x="166.88" y="-65.25" font-family="Helvetica,sans-Serif" font-size="10.00">w2c__f569</text>
</a>
</g>
</g>
<!-- Node1&#45;&gt;Node2 -->
<g id="edge1_Node000001_Node000002" class="edge">
<title>Node1&#45;&gt;Node2</title>
<g id="a_edge1_Node000001_Node000002"><a xlink:title=" ">
<path fill="none" stroke="#63b8ff" d="M97.17,-68.38C105.18,-68.38 113.47,-68.38 121.4,-68.38"/>
<polygon fill="#63b8ff" stroke="#63b8ff" points="121.17,-71.88 131.17,-68.38 121.17,-64.88 121.17,-71.88"/>
</a>
</g>
</g>
<!-- Node3 -->
<g id="Node000003" class="node">
<title>Node3</title>
<g id="a_Node000003"><a xlink:href="app_8c.html#aa709ee1fada6a506c56e35eaa8f8aef1" target="_top" xlink:title=" ">
<polygon fill="white" stroke="#666666" points="302.62,-135.75 238.62,-135.75 238.62,-115 302.62,-115 302.62,-135.75"/>
<text text-anchor="middle" x="270.62" y="-122.25" font-family="Helvetica,sans-Serif" font-size="10.00">w2c_0_39</text>
</a>
</g>
</g>
<!-- Node2&#45;&gt;Node3 -->
<g id="edge2_Node000002_Node000003" class="edge">
<title>Node2&#45;&gt;Node3</title>
<g id="a_edge2_Node000002_Node000003"><a xlink:title=" ">
<path fill="none" stroke="#63b8ff" d="M187.01,-79.1C202.12,-87.56 223.45,-99.51 240.65,-109.15"/>
<polygon fill="#63b8ff" stroke="#63b8ff" points="238.47,-111.93 248.91,-113.77 241.89,-105.83 238.47,-111.93"/>
</a>
</g>
</g>
<!-- Node4 -->
<g id="Node000004" class="node">
<title>Node4</title>
<g id="a_Node000004"><a xlink:href="app_8c.html#a0378208e0d5c0d1d6e7370f1c578fab3" target="_top" xlink:title=" ">
<polygon fill="white" stroke="#666666" points="408.25,-59.75 340.5,-59.75 340.5,-39 408.25,-39 408.25,-59.75"/>
<text text-anchor="middle" x="374.38" y="-46.25" font-family="Helvetica,sans-Serif" font-size="10.00">w2c__f216</text>
</a>
</g>
</g>
<!-- Node2&#45;&gt;Node4 -->
<g id="edge3_Node000002_Node000004" class="edge">
<title>Node2&#45;&gt;Node4</title>
<g id="a_edge3_Node000002_Node000004"><a xlink:title=" ">
<path fill="none" stroke="#63b8ff" d="M201.17,-70.86C228.94,-72.34 269.48,-73.12 304.5,-68.38 312.96,-67.23 321.85,-65.33 330.33,-63.16"/>
<polygon fill="#63b8ff" stroke="#63b8ff" points="330.98,-66.6 339.71,-60.59 329.14,-59.85 330.98,-66.6"/>
</a>
</g>
</g>
<!-- Node6 -->
<g id="Node000006" class="node">
<title>Node6</title>
<g id="a_Node000006"><a xlink:href="app_8c.html#a4896a97430a5c4c956c04aeae2ba14ca" target="_top" xlink:title=" ">
<polygon fill="white" stroke="#666666" points="304.5,-59.75 236.75,-59.75 236.75,-39 304.5,-39 304.5,-59.75"/>
<text text-anchor="middle" x="270.62" y="-46.25" font-family="Helvetica,sans-Serif" font-size="10.00">w2c__f294</text>
</a>
</g>
</g>
<!-- Node2&#45;&gt;Node6 -->
<g id="edge5_Node000002_Node000006" class="edge">
<title>Node2&#45;&gt;Node6</title>
<g id="a_edge5_Node000002_Node000006"><a xlink:title=" ">
<path fill="none" stroke="#63b8ff" d="M201.19,-62.15C208.91,-60.71 217.25,-59.16 225.36,-57.64"/>
<polygon fill="#63b8ff" stroke="#63b8ff" points="225.91,-61.1 235.09,-55.82 224.62,-54.22 225.91,-61.1"/>
</a>
</g>
</g>
<!-- Node7 -->
<g id="Node000007" class="node">
<title>Node7</title>
<g id="a_Node000007"><a xlink:href="app_8c.html#a1a742f22b9fccc882b2323848e1616a4" target="_top" xlink:title=" ">
<polygon fill="white" stroke="#666666" points="304.5,-20.75 236.75,-20.75 236.75,0 304.5,0 304.5,-20.75"/>
<text text-anchor="middle" x="270.62" y="-7.25" font-family="Helvetica,sans-Serif" font-size="10.00">w2c__f533</text>
</a>
</g>
</g>
<!-- Node2&#45;&gt;Node7 -->
<g id="edge7_Node000002_Node000007" class="edge">
<title>Node2&#45;&gt;Node7</title>
<g id="a_edge7_Node000002_Node000007"><a xlink:title=" ">
<path fill="none" stroke="#63b8ff" d="M186.54,-57.74C201.79,-49.04 223.6,-36.61 241.05,-26.66"/>
<polygon fill="#63b8ff" stroke="#63b8ff" points="242.47,-29.88 249.42,-21.89 239,-23.8 242.47,-29.88"/>
</a>
</g>
</g>
<!-- Node5 -->
<g id="Node000005" class="node">
<title>Node5</title>
<g id="a_Node000005"><a xlink:href="app_8c.html#a8d9f347f9a643f0ebfb53c4f54578ac4" target="_top" xlink:title=" ">
<polygon fill="white" stroke="#666666" points="512,-59.75 444.25,-59.75 444.25,-39 512,-39 512,-59.75"/>
<text text-anchor="middle" x="478.12" y="-46.25" font-family="Helvetica,sans-Serif" font-size="10.00">w2c__f304</text>
</a>
</g>
</g>
<!-- Node4&#45;&gt;Node5 -->
<g id="edge4_Node000004_Node000005" class="edge">
<title>Node4&#45;&gt;Node5</title>
<g id="a_edge4_Node000004_Node000005"><a xlink:title=" ">
<path fill="none" stroke="#63b8ff" d="M408.69,-49.38C416.32,-49.38 424.56,-49.38 432.58,-49.38"/>
<polygon fill="#63b8ff" stroke="#63b8ff" points="432.57,-52.88 442.57,-49.38 432.57,-45.88 432.57,-52.88"/>
</a>
</g>
</g>
<!-- Node6&#45;&gt;Node4 -->
<g id="edge6_Node000006_Node000004" class="edge">
<title>Node6&#45;&gt;Node4</title>
<g id="a_edge6_Node000006_Node000004"><a xlink:title=" ">
<path fill="none" stroke="#63b8ff" d="M304.94,-49.38C312.57,-49.38 320.81,-49.38 328.83,-49.38"/>
<polygon fill="#63b8ff" stroke="#63b8ff" points="328.82,-52.88 338.82,-49.38 328.82,-45.88 328.82,-52.88"/>
</a>
</g>
</g>
<!-- Node7&#45;&gt;Node4 -->
<g id="edge8_Node000007_Node000004" class="edge">
<title>Node7&#45;&gt;Node4</title>
<g id="a_edge8_Node000007_Node000004"><a xlink:title=" ">
<path fill="none" stroke="#63b8ff" d="M299.97,-21.24C310.66,-25.34 323.02,-30.08 334.51,-34.48"/>
<polygon fill="#63b8ff" stroke="#63b8ff" points="333.18,-37.72 343.77,-38.03 335.69,-31.18 333.18,-37.72"/>
</a>
</g>
</g>
</g>
</svg>
