<?xml version="1.0" encoding="UTF-8" standalone="no"?>
<!DOCTYPE svg PUBLIC "-//W3C//DTD SVG 1.1//EN"
 "http://www.w3.org/Graphics/SVG/1.1/DTD/svg11.dtd">
<!-- Generated by graphviz version 12.2.1 (0)
 -->
<!-- Title: w2c__f463 Pages: 1 -->
<svg width="389pt" height="116pt"
 viewBox="0.00 0.00 389.25 116.34" xmlns="http://www.w3.org/2000/svg" xmlns:xlink="http://www.w3.org/1999/xlink">
<g id="graph0" class="graph" transform="scale(1 1) rotate(0) translate(4 112.34)">
<title>w2c__f463</title>
<!-- Node1 -->
<g id="Node000001" class="node">
<title>Node1</title>
<g id="a_Node000001"><a xlink:title=" ">
<polygon fill="#999999" stroke="#666666" points="67.75,-51.34 0,-51.34 0,-30.59 67.75,-30.59 67.75,-51.34"/>
<text text-anchor="middle" x="33.88" y="-37.84" font-family="Helvetica,sans-Serif" font-size="10.00">w2c__f463</text>
</a>
</g>
</g>
<!-- Node2 -->
<g id="Node000002" class="node">
<title>Node2</title>
<g id="a_Node000002"><a xlink:href="app_8c.html#ae910d950b82aa1f4bb1baa5f02e52b37" target="_top" xlink:title=" ">
<polygon fill="white" stroke="#666666" points="275.25,-108.34 207.5,-108.34 207.5,-87.59 275.25,-87.59 275.25,-108.34"/>
<text text-anchor="middle" x="241.38" y="-94.84" font-family="Helvetica,sans-Serif" font-size="10.00">w2c__f469</text>
</a>
</g>
</g>
<!-- Node1&#45;&gt;Node2 -->
<g id="edge1_Node000001_Node000002" class="edge">
<title>Node1&#45;&gt;Node2</title>
<g id="a_edge1_Node000001_Node000002"><a xlink:title=" ">
<path fill="none" stroke="#63b8ff" d="M50.52,-51.79C64.01,-60.56 84.31,-72.5 103.75,-78.96 133.57,-88.89 168.73,-93.63 195.91,-95.89"/>
<polygon fill="#63b8ff" stroke="#63b8ff" points="195.29,-99.36 205.52,-96.61 195.81,-92.38 195.29,-99.36"/>
</a>
</g>
</g>
<!-- Node4 -->
<g id="Node000004" class="node">
<title>Node4</title>
<g id="a_Node000004"><a xlink:href="app_8c.html#ab78a9ba6819f5a9d3b53302097151d33" target="_top" xlink:title=" ">
<polygon fill="white" stroke="#666666" points="380.12,-32.34 312.38,-32.34 312.38,-11.59 380.12,-11.59 380.12,-32.34"/>
<text text-anchor="middle" x="346.25" y="-18.84" font-family="Helvetica,sans-Serif" font-size="10.00">w2c__f481</text>
</a>
</g>
</g>
<!-- Node1&#45;&gt;Node4 -->
<g id="edge3_Node000001_Node000004" class="edge">
<title>Node1&#45;&gt;Node4</title>
<g id="a_edge3_Node000001_Node000004"><a xlink:title=" ">
<path fill="none" stroke="#63b8ff" d="M66.3,-30.13C112.14,-15.66 200.08,7.06 275.25,-2.96 283.84,-4.11 292.87,-6.01 301.49,-8.18"/>
<polygon fill="#63b8ff" stroke="#63b8ff" points="300.47,-11.53 311.04,-10.76 302.3,-4.78 300.47,-11.53"/>
</a>
</g>
</g>
<!-- Node5 -->
<g id="Node000005" class="node">
<title>Node5</title>
<g id="a_Node000005"><a xlink:href="app_8c.html#a710a90b53ca9da85f7059545f9c0c53f" target="_top" xlink:title=" ">
<polygon fill="white" stroke="#666666" points="275.25,-32.34 207.5,-32.34 207.5,-11.59 275.25,-11.59 275.25,-32.34"/>
<text text-anchor="middle" x="241.38" y="-18.84" font-family="Helvetica,sans-Serif" font-size="10.00">w2c__f527</text>
</a>
</g>
</g>
<!-- Node1&#45;&gt;Node5 -->
<g id="edge4_Node000001_Node000005" class="edge">
<title>Node1&#45;&gt;Node5</title>
<g id="a_edge4_Node000001_Node000005"><a xlink:title=" ">
<path fill="none" stroke="#63b8ff" d="M67.89,-37.91C102.54,-34.71 157.23,-29.65 195.71,-26.09"/>
<polygon fill="#63b8ff" stroke="#63b8ff" points="195.96,-29.59 205.59,-25.18 195.31,-22.62 195.96,-29.59"/>
</a>
</g>
</g>
<!-- Node6 -->
<g id="Node000006" class="node">
<title>Node6</title>
<g id="a_Node000006"><a xlink:href="app_8c.html#a8bb6ec23ed558afda2d0c8921c50d1c7" target="_top" xlink:title=" ">
<polygon fill="white" stroke="#666666" points="171.5,-70.34 103.75,-70.34 103.75,-49.59 171.5,-49.59 171.5,-70.34"/>
<text text-anchor="middle" x="137.62" y="-56.84" font-family="Helvetica,sans-Serif" font-size="10.00">w2c__f572</text>
</a>
</g>
</g>
<!-- Node1&#45;&gt;Node6 -->
<g id="edge6_Node000001_Node000006" class="edge">
<title>Node1&#45;&gt;Node6</title>
<g id="a_edge6_Node000001_Node000006"><a xlink:title=" ">
<path fill="none" stroke="#63b8ff" d="M68.19,-47.19C75.91,-48.63 84.25,-50.18 92.36,-51.7"/>
<polygon fill="#63b8ff" stroke="#63b8ff" points="91.62,-55.12 102.09,-53.52 92.91,-48.24 91.62,-55.12"/>
</a>
</g>
</g>
<!-- Node3 -->
<g id="Node000003" class="node">
<title>Node3</title>
<g id="a_Node000003"><a xlink:href="app_8c.html#a0459db85ff19e57f5b71f92f3ebd87db" target="_top" xlink:title=" ">
<polygon fill="white" stroke="#666666" points="381.25,-108.34 311.25,-108.34 311.25,-87.59 381.25,-87.59 381.25,-108.34"/>
<text text-anchor="middle" x="346.25" y="-94.84" font-family="Helvetica,sans-Serif" font-size="10.00">w2c_0_115</text>
</a>
</g>
</g>
<!-- Node2&#45;&gt;Node3 -->
<g id="edge2_Node000002_Node000003" class="edge">
<title>Node2&#45;&gt;Node3</title>
<g id="a_edge2_Node000002_Node000003"><a xlink:title=" ">
<path fill="none" stroke="#63b8ff" d="M275.49,-97.96C283.16,-97.96 291.45,-97.96 299.54,-97.96"/>
<polygon fill="#63b8ff" stroke="#63b8ff" points="299.27,-101.46 309.27,-97.96 299.27,-94.46 299.27,-101.46"/>
</a>
</g>
</g>
<!-- Node5&#45;&gt;Node4 -->
<g id="edge5_Node000005_Node000004" class="edge">
<title>Node5&#45;&gt;Node4</title>
<g id="a_edge5_Node000005_Node000004"><a xlink:title=" ">
<path fill="none" stroke="#63b8ff" d="M275.49,-21.96C283.57,-21.96 292.34,-21.96 300.85,-21.96"/>
<polygon fill="#63b8ff" stroke="#63b8ff" points="300.68,-25.46 310.68,-21.96 300.68,-18.46 300.68,-25.46"/>
</a>
</g>
</g>
<!-- Node6&#45;&gt;Node2 -->
<g id="edge7_Node000006_Node000002" class="edge">
<title>Node6&#45;&gt;Node2</title>
<g id="a_edge7_Node000006_Node000002"><a xlink:title=" ">
<path fill="none" stroke="#63b8ff" d="M167.51,-70.75C177.82,-74.6 189.63,-79.01 200.69,-83.14"/>
<polygon fill="#63b8ff" stroke="#63b8ff" points="199.41,-86.4 210,-86.62 201.86,-79.84 199.41,-86.4"/>
</a>
</g>
</g>
<!-- Node6&#45;&gt;Node4 -->
<g id="edge8_Node000006_Node000004" class="edge">
<title>Node6&#45;&gt;Node4</title>
<g id="a_edge8_Node000006_Node000004"><a xlink:title=" ">
<path fill="none" stroke="#63b8ff" d="M171.95,-56.53C199.74,-53.37 240.29,-48.11 275.25,-40.96 283.66,-39.25 292.55,-37.1 301.07,-34.87"/>
<polygon fill="#63b8ff" stroke="#63b8ff" points="301.78,-38.3 310.53,-32.31 299.96,-31.54 301.78,-38.3"/>
</a>
</g>
</g>
<!-- Node6&#45;&gt;Node5 -->
<g id="edge9_Node000006_Node000005" class="edge">
<title>Node6&#45;&gt;Node5</title>
<g id="a_edge9_Node000006_Node000005"><a xlink:title=" ">
<path fill="none" stroke="#63b8ff" d="M167.51,-49.18C177.82,-45.33 189.63,-40.92 200.69,-36.79"/>
<polygon fill="#63b8ff" stroke="#63b8ff" points="201.86,-40.09 210,-33.31 199.41,-33.53 201.86,-40.09"/>
</a>
</g>
</g>
</g>
</svg>
