<?xml version="1.0" encoding="UTF-8" standalone="no"?>
<!DOCTYPE svg PUBLIC "-//W3C//DTD SVG 1.1//EN"
 "http://www.w3.org/Graphics/SVG/1.1/DTD/svg11.dtd">
<!-- Generated by graphviz version 12.2.1 (0)
 -->
<!-- Title: wrap_w2c__f396 Pages: 1 -->
<svg width="628pt" height="266pt"
 viewBox="0.00 0.00 627.50 265.81" xmlns="http://www.w3.org/2000/svg" xmlns:xlink="http://www.w3.org/1999/xlink">
<g id="graph0" class="graph" transform="scale(1 1) rotate(0) translate(4 261.81)">
<title>wrap_w2c__f396</title>
<!-- Node1 -->
<g id="Node000001" class="node">
<title>Node1</title>
<g id="a_Node000001"><a xlink:title=" ">
<polygon fill="#999999" stroke="#666666" points="97,-98.75 0,-98.75 0,-78 97,-78 97,-98.75"/>
<text text-anchor="middle" x="48.5" y="-85.25" font-family="Helvetica,sans-Serif" font-size="10.00">wrap_w2c__f396</text>
</a>
</g>
</g>
<!-- Node2 -->
<g id="Node000002" class="node">
<title>Node2</title>
<g id="a_Node000002"><a xlink:href="app_8c.html#a7d2c54d8027e63228e6904d7088eb41a" target="_top" xlink:title=" ">
<polygon fill="white" stroke="#666666" points="200.75,-98.75 133,-98.75 133,-78 200.75,-78 200.75,-98.75"/>
<text text-anchor="middle" x="166.88" y="-85.25" font-family="Helvetica,sans-Serif" font-size="10.00">w2c__f396</text>
</a>
</g>
</g>
<!-- Node1&#45;&gt;Node2 -->
<g id="edge1_Node000001_Node000002" class="edge">
<title>Node1&#45;&gt;Node2</title>
<g id="a_edge1_Node000001_Node000002"><a xlink:title=" ">
<path fill="none" stroke="#63b8ff" d="M97.17,-88.38C105.18,-88.38 113.47,-88.38 121.4,-88.38"/>
<polygon fill="#63b8ff" stroke="#63b8ff" points="121.17,-91.88 131.17,-88.38 121.17,-84.88 121.17,-91.88"/>
</a>
</g>
</g>
<!-- Node3 -->
<g id="Node000003" class="node">
<title>Node3</title>
<g id="a_Node000003"><a xlink:href="app_8c.html#a433dfe09b8150b58f5cef673948d9ed7" target="_top" xlink:title=" ">
<polygon fill="white" stroke="#666666" points="306.38,-194.75 238.62,-194.75 238.62,-174 306.38,-174 306.38,-194.75"/>
<text text-anchor="middle" x="272.5" y="-181.25" font-family="Helvetica,sans-Serif" font-size="10.00">w2c__f277</text>
</a>
</g>
</g>
<!-- Node2&#45;&gt;Node3 -->
<g id="edge2_Node000002_Node000003" class="edge">
<title>Node2&#45;&gt;Node3</title>
<g id="a_edge2_Node000002_Node000003"><a xlink:title=" ">
<path fill="none" stroke="#63b8ff" d="M179.36,-99.02C196.79,-115.16 230.15,-146.07 251.59,-165.93"/>
<polygon fill="#63b8ff" stroke="#63b8ff" points="249.14,-168.43 258.85,-172.66 253.9,-163.29 249.14,-168.43"/>
</a>
</g>
</g>
<!-- Node9 -->
<g id="Node000009" class="node">
<title>Node9</title>
<g id="a_Node000009"><a xlink:href="app_8c.html#a8833c017b322ec1b941ea00b73fc4ab5" target="_top" xlink:title=" ">
<polygon fill="white" stroke="#666666" points="306.38,-137.75 238.62,-137.75 238.62,-117 306.38,-117 306.38,-137.75"/>
<text text-anchor="middle" x="272.5" y="-124.25" font-family="Helvetica,sans-Serif" font-size="10.00">w2c__f308</text>
</a>
</g>
</g>
<!-- Node2&#45;&gt;Node9 -->
<g id="edge11_Node000002_Node000009" class="edge">
<title>Node2&#45;&gt;Node9</title>
<g id="a_edge11_Node000002_Node000009"><a xlink:title=" ">
<path fill="none" stroke="#63b8ff" d="M196.74,-99.24C207.74,-103.38 220.48,-108.17 232.28,-112.62"/>
<polygon fill="#63b8ff" stroke="#63b8ff" points="230.78,-115.79 241.37,-116.04 233.25,-109.24 230.78,-115.79"/>
</a>
</g>
</g>
<!-- Node11 -->
<g id="Node000011" class="node">
<title>Node11</title>
<g id="a_Node000011"><a xlink:href="app_8c.html#a819bb0d5a870d8c4bbb6b9a791102333" target="_top" xlink:title=" ">
<polygon fill="white" stroke="#666666" points="306.38,-98.75 238.62,-98.75 238.62,-78 306.38,-78 306.38,-98.75"/>
<text text-anchor="middle" x="272.5" y="-85.25" font-family="Helvetica,sans-Serif" font-size="10.00">w2c__f322</text>
</a>
</g>
</g>
<!-- Node2&#45;&gt;Node11 -->
<g id="edge14_Node000002_Node000011" class="edge">
<title>Node2&#45;&gt;Node11</title>
<g id="a_edge14_Node000002_Node000011"><a xlink:title=" ">
<path fill="none" stroke="#63b8ff" d="M201.23,-88.38C209.37,-88.38 218.2,-88.38 226.77,-88.38"/>
<polygon fill="#63b8ff" stroke="#63b8ff" points="226.69,-91.88 236.69,-88.38 226.69,-84.88 226.69,-91.88"/>
</a>
</g>
</g>
<!-- Node12 -->
<g id="Node000012" class="node">
<title>Node12</title>
<g id="a_Node000012"><a xlink:href="app_8c.html#a55f0e3687ea8fa5d5cc06af63f503791" target="_top" xlink:title=" ">
<polygon fill="white" stroke="#666666" points="306.38,-59.75 238.62,-59.75 238.62,-39 306.38,-39 306.38,-59.75"/>
<text text-anchor="middle" x="272.5" y="-46.25" font-family="Helvetica,sans-Serif" font-size="10.00">w2c__f473</text>
</a>
</g>
</g>
<!-- Node2&#45;&gt;Node12 -->
<g id="edge15_Node000002_Node000012" class="edge">
<title>Node2&#45;&gt;Node12</title>
<g id="a_edge15_Node000002_Node000012"><a xlink:title=" ">
<path fill="none" stroke="#63b8ff" d="M196.74,-77.51C207.74,-73.37 220.48,-68.58 232.28,-64.13"/>
<polygon fill="#63b8ff" stroke="#63b8ff" points="233.25,-67.51 241.37,-60.71 230.78,-60.96 233.25,-67.51"/>
</a>
</g>
</g>
<!-- Node14 -->
<g id="Node000014" class="node">
<title>Node14</title>
<g id="a_Node000014"><a xlink:href="app_8c.html#ad63b6498cfe22ce747f349eeb23b508f" target="_top" xlink:title=" ">
<polygon fill="white" stroke="#666666" points="308.25,-20.75 236.75,-20.75 236.75,0 308.25,0 308.25,-20.75"/>
<text text-anchor="middle" x="272.5" y="-7.25" font-family="Helvetica,sans-Serif" font-size="10.00">wasm_fabs</text>
</a>
</g>
</g>
<!-- Node2&#45;&gt;Node14 -->
<g id="edge17_Node000002_Node000014" class="edge">
<title>Node2&#45;&gt;Node14</title>
<g id="a_edge17_Node000002_Node000014"><a xlink:title=" ">
<path fill="none" stroke="#63b8ff" d="M179.07,-77.87C192.3,-65.71 215.24,-45.44 236.75,-30.38 238.32,-29.28 239.95,-28.18 241.61,-27.11"/>
<polygon fill="#63b8ff" stroke="#63b8ff" points="243.28,-30.19 249.99,-21.99 239.63,-24.22 243.28,-30.19"/>
</a>
</g>
</g>
<!-- Node4 -->
<g id="Node000004" class="node">
<title>Node4</title>
<g id="a_Node000004"><a xlink:href="app_8c.html#ac7c3d97ad3659d9d7492f82b3a7a740d" target="_top" xlink:title=" ">
<polygon fill="white" stroke="#666666" points="412,-232.75 344.25,-232.75 344.25,-212 412,-212 412,-232.75"/>
<text text-anchor="middle" x="378.12" y="-219.25" font-family="Helvetica,sans-Serif" font-size="10.00">w2c__f218</text>
</a>
</g>
</g>
<!-- Node3&#45;&gt;Node4 -->
<g id="edge3_Node000003_Node000004" class="edge">
<title>Node3&#45;&gt;Node4</title>
<g id="a_edge3_Node000003_Node000004"><a xlink:title=" ">
<path fill="none" stroke="#63b8ff" d="M302.92,-195.16C313.53,-199.05 325.69,-203.51 337.06,-207.68"/>
<polygon fill="#63b8ff" stroke="#63b8ff" points="335.62,-210.88 346.21,-211.04 338.03,-204.31 335.62,-210.88"/>
</a>
</g>
</g>
<!-- Node6 -->
<g id="Node000006" class="node">
<title>Node6</title>
<g id="a_Node000006"><a xlink:href="app_8c.html#a674f6e81761467d0a8dc6d2a425eda9f" target="_top" xlink:title=" ">
<polygon fill="white" stroke="#666666" points="619.5,-252.75 551.75,-252.75 551.75,-232 619.5,-232 619.5,-252.75"/>
<text text-anchor="middle" x="585.62" y="-239.25" font-family="Helvetica,sans-Serif" font-size="10.00">w2c__f498</text>
</a>
</g>
</g>
<!-- Node3&#45;&gt;Node6 -->
<g id="edge9_Node000003_Node000006" class="edge">
<title>Node3&#45;&gt;Node6</title>
<g id="a_edge9_Node000003_Node000006"><a xlink:title=" ">
<path fill="none" stroke="#63b8ff" d="M282.25,-194.85C294.47,-208.58 318.11,-232.01 344.25,-241.38 409.36,-264.69 490.9,-258.24 540.31,-250.79"/>
<polygon fill="#63b8ff" stroke="#63b8ff" points="540.74,-254.27 550.06,-249.23 539.63,-247.35 540.74,-254.27"/>
</a>
</g>
</g>
<!-- Node7 -->
<g id="Node000007" class="node">
<title>Node7</title>
<g id="a_Node000007"><a xlink:href="app_8c.html#a672569c91ebb1d5055d737b56ec296a7" target="_top" xlink:title=" ">
<polygon fill="white" stroke="#666666" points="619.5,-156.75 551.75,-156.75 551.75,-136 619.5,-136 619.5,-156.75"/>
<text text-anchor="middle" x="585.62" y="-143.25" font-family="Helvetica,sans-Serif" font-size="10.00">w2c__f585</text>
</a>
</g>
</g>
<!-- Node3&#45;&gt;Node7 -->
<g id="edge10_Node000003_Node000007" class="edge">
<title>Node3&#45;&gt;Node7</title>
<g id="a_edge10_Node000003_Node000007"><a xlink:title=" ">
<path fill="none" stroke="#63b8ff" d="M306.8,-180.31C363.17,-173.42 477.41,-159.47 540.42,-151.77"/>
<polygon fill="#63b8ff" stroke="#63b8ff" points="540.56,-155.28 550.07,-150.6 539.72,-148.33 540.56,-155.28"/>
</a>
</g>
</g>
<!-- Node8 -->
<g id="Node000008" class="node">
<title>Node8</title>
<g id="a_Node000008"><a xlink:href="app_8c.html#ab07e4056f5c12e00d750c88d85ec77bb" target="_top" xlink:title=" ">
<polygon fill="white" stroke="#666666" points="515.75,-194.75 448,-194.75 448,-174 515.75,-174 515.75,-194.75"/>
<text text-anchor="middle" x="481.88" y="-181.25" font-family="Helvetica,sans-Serif" font-size="10.00">w2c__f415</text>
</a>
</g>
</g>
<!-- Node3&#45;&gt;Node8 -->
<g id="edge8_Node000003_Node000008" class="edge">
<title>Node3&#45;&gt;Node8</title>
<g id="a_edge8_Node000003_Node000008"><a xlink:title=" ">
<path fill="none" stroke="#63b8ff" d="M306.82,-184.38C341.89,-184.38 397.3,-184.38 436.15,-184.38"/>
<polygon fill="#63b8ff" stroke="#63b8ff" points="436.13,-187.88 446.13,-184.38 436.13,-180.88 436.13,-187.88"/>
</a>
</g>
</g>
<!-- Node5 -->
<g id="Node000005" class="node">
<title>Node5</title>
<g id="a_Node000005"><a xlink:href="app_8c.html#a268eeda7b1a075e4b680bac34cdfebdb" target="_top" xlink:title=" ">
<polygon fill="white" stroke="#666666" points="515.75,-233.75 448,-233.75 448,-213 515.75,-213 515.75,-233.75"/>
<text text-anchor="middle" x="481.88" y="-220.25" font-family="Helvetica,sans-Serif" font-size="10.00">w2c__f259</text>
</a>
</g>
</g>
<!-- Node4&#45;&gt;Node5 -->
<g id="edge4_Node000004_Node000005" class="edge">
<title>Node4&#45;&gt;Node5</title>
<g id="a_edge4_Node000004_Node000005"><a xlink:title=" ">
<path fill="none" stroke="#63b8ff" d="M412.44,-222.7C420.07,-222.78 428.31,-222.86 436.33,-222.94"/>
<polygon fill="#63b8ff" stroke="#63b8ff" points="436.28,-226.44 446.32,-223.04 436.35,-219.44 436.28,-226.44"/>
</a>
</g>
</g>
<!-- Node4&#45;&gt;Node8 -->
<g id="edge7_Node000004_Node000008" class="edge">
<title>Node4&#45;&gt;Node8</title>
<g id="a_edge7_Node000004_Node000008"><a xlink:title=" ">
<path fill="none" stroke="#63b8ff" d="M408.01,-211.59C418.32,-207.74 430.13,-203.33 441.19,-199.2"/>
<polygon fill="#63b8ff" stroke="#63b8ff" points="442.36,-202.5 450.5,-195.72 439.91,-195.94 442.36,-202.5"/>
</a>
</g>
</g>
<!-- Node5&#45;&gt;Node6 -->
<g id="edge5_Node000005_Node000006" class="edge">
<title>Node5&#45;&gt;Node6</title>
<g id="a_edge5_Node000005_Node000006"><a xlink:title=" ">
<path fill="none" stroke="#63b8ff" d="M516.19,-229.6C523.91,-231.04 532.25,-232.59 540.36,-234.11"/>
<polygon fill="#63b8ff" stroke="#63b8ff" points="539.62,-237.53 550.09,-235.93 540.91,-230.65 539.62,-237.53"/>
</a>
</g>
</g>
<!-- Node5&#45;&gt;Node7 -->
<g id="edge6_Node000005_Node000007" class="edge">
<title>Node5&#45;&gt;Node7</title>
<g id="a_edge6_Node000005_Node000007"><a xlink:title=" ">
<path fill="none" stroke="#63b8ff" d="M501.61,-212.62C506.31,-209.75 511.29,-206.55 515.75,-203.38 532.8,-191.23 551,-176.06 564.41,-164.42"/>
<polygon fill="#63b8ff" stroke="#63b8ff" points="566.51,-167.24 571.72,-158.01 561.89,-161.98 566.51,-167.24"/>
</a>
</g>
</g>
<!-- Node10 -->
<g id="Node000010" class="node">
<title>Node10</title>
<g id="a_Node000010"><a xlink:href="app_8c.html#a69141c0140f000f9e7b4001ac46fbf92" target="_top" xlink:title=" ">
<polygon fill="white" stroke="#666666" points="515.75,-118.75 448,-118.75 448,-98 515.75,-98 515.75,-118.75"/>
<text text-anchor="middle" x="481.88" y="-105.25" font-family="Helvetica,sans-Serif" font-size="10.00">w2c__f446</text>
</a>
</g>
</g>
<!-- Node9&#45;&gt;Node10 -->
<g id="edge12_Node000009_Node000010" class="edge">
<title>Node9&#45;&gt;Node10</title>
<g id="a_edge12_Node000009_Node000010"><a xlink:title=" ">
<path fill="none" stroke="#63b8ff" d="M306.82,-124.32C342.04,-121.1 397.77,-115.99 436.65,-112.43"/>
<polygon fill="#63b8ff" stroke="#63b8ff" points="436.49,-115.96 446.13,-111.56 435.85,-108.99 436.49,-115.96"/>
</a>
</g>
</g>
<!-- Node10&#45;&gt;Node7 -->
<g id="edge13_Node000010_Node000007" class="edge">
<title>Node10&#45;&gt;Node7</title>
<g id="a_edge13_Node000010_Node000007"><a xlink:title=" ">
<path fill="none" stroke="#63b8ff" d="M511.76,-119.16C522.07,-123.01 533.88,-127.42 544.94,-131.55"/>
<polygon fill="#63b8ff" stroke="#63b8ff" points="543.66,-134.81 554.25,-135.03 546.11,-128.25 543.66,-134.81"/>
</a>
</g>
</g>
<!-- Node13 -->
<g id="Node000013" class="node">
<title>Node13</title>
<g id="a_Node000013"><a xlink:href="app_8c.html#ab5fcbcf768e56d91e9aa71bba4a24166" target="_top" xlink:title=" ">
<polygon fill="white" stroke="#666666" points="412,-59.75 344.25,-59.75 344.25,-39 412,-39 412,-59.75"/>
<text text-anchor="middle" x="378.12" y="-46.25" font-family="Helvetica,sans-Serif" font-size="10.00">w2c__f221</text>
</a>
</g>
</g>
<!-- Node12&#45;&gt;Node13 -->
<g id="edge16_Node000012_Node000013" class="edge">
<title>Node12&#45;&gt;Node13</title>
<g id="a_edge16_Node000012_Node000013"><a xlink:title=" ">
<path fill="none" stroke="#63b8ff" d="M306.86,-49.38C314.99,-49.38 323.83,-49.38 332.4,-49.38"/>
<polygon fill="#63b8ff" stroke="#63b8ff" points="332.32,-52.88 342.32,-49.38 332.32,-45.88 332.32,-52.88"/>
</a>
</g>
</g>
</g>
</svg>
