<?xml version="1.0" encoding="UTF-8" standalone="no"?>
<!DOCTYPE svg PUBLIC "-//W3C//DTD SVG 1.1//EN"
 "http://www.w3.org/Graphics/SVG/1.1/DTD/svg11.dtd">
<!-- Generated by graphviz version 12.2.1 (0)
 -->
<!-- Title: wrap_w2c__f334 Pages: 1 -->
<svg width="520pt" height="125pt"
 viewBox="0.00 0.00 520.00 124.75" xmlns="http://www.w3.org/2000/svg" xmlns:xlink="http://www.w3.org/1999/xlink">
<g id="graph0" class="graph" transform="scale(1 1) rotate(0) translate(4 120.75)">
<title>wrap_w2c__f334</title>
<!-- Node1 -->
<g id="Node000001" class="node">
<title>Node1</title>
<g id="a_Node000001"><a xlink:title=" ">
<polygon fill="#999999" stroke="#666666" points="97,-59.75 0,-59.75 0,-39 97,-39 97,-59.75"/>
<text text-anchor="middle" x="48.5" y="-46.25" font-family="Helvetica,sans-Serif" font-size="10.00">wrap_w2c__f334</text>
</a>
</g>
</g>
<!-- Node2 -->
<g id="Node000002" class="node">
<title>Node2</title>
<g id="a_Node000002"><a xlink:href="app_8c.html#ad3baf7787ab7775b03d52315b214075c" target="_top" xlink:title=" ">
<polygon fill="white" stroke="#666666" points="200.75,-59.75 133,-59.75 133,-39 200.75,-39 200.75,-59.75"/>
<text text-anchor="middle" x="166.88" y="-46.25" font-family="Helvetica,sans-Serif" font-size="10.00">w2c__f334</text>
</a>
</g>
</g>
<!-- Node1&#45;&gt;Node2 -->
<g id="edge1_Node000001_Node000002" class="edge">
<title>Node1&#45;&gt;Node2</title>
<g id="a_edge1_Node000001_Node000002"><a xlink:title=" ">
<path fill="none" stroke="#63b8ff" d="M97.17,-49.38C105.18,-49.38 113.47,-49.38 121.4,-49.38"/>
<polygon fill="#63b8ff" stroke="#63b8ff" points="121.17,-52.88 131.17,-49.38 121.17,-45.88 121.17,-52.88"/>
</a>
</g>
</g>
<!-- Node3 -->
<g id="Node000003" class="node">
<title>Node3</title>
<g id="a_Node000003"><a xlink:href="app_8c.html#aaca5d5bcf49f2ca74019cf097750b9f3" target="_top" xlink:title=" ">
<polygon fill="white" stroke="#666666" points="408.25,-97.75 340.5,-97.75 340.5,-77 408.25,-77 408.25,-97.75"/>
<text text-anchor="middle" x="374.38" y="-84.25" font-family="Helvetica,sans-Serif" font-size="10.00">w2c__f258</text>
</a>
</g>
</g>
<!-- Node2&#45;&gt;Node3 -->
<g id="edge2_Node000002_Node000003" class="edge">
<title>Node2&#45;&gt;Node3</title>
<g id="a_edge2_Node000002_Node000003"><a xlink:title=" ">
<path fill="none" stroke="#63b8ff" d="M200.94,-59.44C212.22,-62.62 224.97,-65.94 236.75,-68.38 267.19,-74.66 301.88,-79.46 328.69,-82.66"/>
<polygon fill="#63b8ff" stroke="#63b8ff" points="328.2,-86.12 338.53,-83.8 329,-79.17 328.2,-86.12"/>
</a>
</g>
</g>
<!-- Node6 -->
<g id="Node000006" class="node">
<title>Node6</title>
<g id="a_Node000006"><a xlink:href="app_8c.html#a39e5374effeff0dc142bbb7c393a906a" target="_top" xlink:title=" ">
<polygon fill="white" stroke="#666666" points="304.5,-59.75 236.75,-59.75 236.75,-39 304.5,-39 304.5,-59.75"/>
<text text-anchor="middle" x="270.62" y="-46.25" font-family="Helvetica,sans-Serif" font-size="10.00">w2c__f311</text>
</a>
</g>
</g>
<!-- Node2&#45;&gt;Node6 -->
<g id="edge5_Node000002_Node000006" class="edge">
<title>Node2&#45;&gt;Node6</title>
<g id="a_edge5_Node000002_Node000006"><a xlink:title=" ">
<path fill="none" stroke="#63b8ff" d="M201.19,-49.38C208.82,-49.38 217.06,-49.38 225.08,-49.38"/>
<polygon fill="#63b8ff" stroke="#63b8ff" points="225.07,-52.88 235.07,-49.38 225.07,-45.88 225.07,-52.88"/>
</a>
</g>
</g>
<!-- Node8 -->
<g id="Node000008" class="node">
<title>Node8</title>
<g id="a_Node000008"><a xlink:href="app_8c.html#a674f6e81761467d0a8dc6d2a425eda9f" target="_top" xlink:title=" ">
<polygon fill="white" stroke="#666666" points="304.5,-20.75 236.75,-20.75 236.75,0 304.5,0 304.5,-20.75"/>
<text text-anchor="middle" x="270.62" y="-7.25" font-family="Helvetica,sans-Serif" font-size="10.00">w2c__f498</text>
</a>
</g>
</g>
<!-- Node2&#45;&gt;Node8 -->
<g id="edge8_Node000002_Node000008" class="edge">
<title>Node2&#45;&gt;Node8</title>
<g id="a_edge8_Node000002_Node000008"><a xlink:title=" ">
<path fill="none" stroke="#63b8ff" d="M196.22,-38.51C206.91,-34.41 219.27,-29.67 230.76,-25.27"/>
<polygon fill="#63b8ff" stroke="#63b8ff" points="231.94,-28.57 240.02,-21.72 229.43,-22.03 231.94,-28.57"/>
</a>
</g>
</g>
<!-- Node4 -->
<g id="Node000004" class="node">
<title>Node4</title>
<g id="a_Node000004"><a xlink:href="app_8c.html#a8d9f347f9a643f0ebfb53c4f54578ac4" target="_top" xlink:title=" ">
<polygon fill="white" stroke="#666666" points="512,-116.75 444.25,-116.75 444.25,-96 512,-96 512,-116.75"/>
<text text-anchor="middle" x="478.12" y="-103.25" font-family="Helvetica,sans-Serif" font-size="10.00">w2c__f304</text>
</a>
</g>
</g>
<!-- Node3&#45;&gt;Node4 -->
<g id="edge3_Node000003_Node000004" class="edge">
<title>Node3&#45;&gt;Node4</title>
<g id="a_edge3_Node000003_Node000004"><a xlink:title=" ">
<path fill="none" stroke="#63b8ff" d="M408.69,-93.6C416.41,-95.04 424.75,-96.59 432.86,-98.11"/>
<polygon fill="#63b8ff" stroke="#63b8ff" points="432.12,-101.53 442.59,-99.93 433.41,-94.65 432.12,-101.53"/>
</a>
</g>
</g>
<!-- Node5 -->
<g id="Node000005" class="node">
<title>Node5</title>
<g id="a_Node000005"><a xlink:href="app_8c.html#a881f0b113e93dce3ff52d04b435850f6" target="_top" xlink:title=" ">
<polygon fill="white" stroke="#666666" points="512,-77.75 444.25,-77.75 444.25,-57 512,-57 512,-77.75"/>
<text text-anchor="middle" x="478.12" y="-64.25" font-family="Helvetica,sans-Serif" font-size="10.00">w2c__f491</text>
</a>
</g>
</g>
<!-- Node3&#45;&gt;Node5 -->
<g id="edge4_Node000003_Node000005" class="edge">
<title>Node3&#45;&gt;Node5</title>
<g id="a_edge4_Node000003_Node000005"><a xlink:title=" ">
<path fill="none" stroke="#63b8ff" d="M408.69,-80.83C416.41,-79.31 424.75,-77.67 432.86,-76.08"/>
<polygon fill="#63b8ff" stroke="#63b8ff" points="433.46,-79.53 442.6,-74.16 432.11,-72.66 433.46,-79.53"/>
</a>
</g>
</g>
<!-- Node6&#45;&gt;Node3 -->
<g id="edge6_Node000006_Node000003" class="edge">
<title>Node6&#45;&gt;Node3</title>
<g id="a_edge6_Node000006_Node000003"><a xlink:title=" ">
<path fill="none" stroke="#63b8ff" d="M300.51,-60.16C310.82,-64.01 322.63,-68.42 333.69,-72.55"/>
<polygon fill="#63b8ff" stroke="#63b8ff" points="332.41,-75.81 343,-76.03 334.86,-69.25 332.41,-75.81"/>
</a>
</g>
</g>
<!-- Node7 -->
<g id="Node000007" class="node">
<title>Node7</title>
<g id="a_Node000007"><a xlink:href="app_8c.html#aeda0fdcf4b3bed63365b3a77c2197b09" target="_top" xlink:title=" ">
<polygon fill="white" stroke="#666666" points="408.25,-58.75 340.5,-58.75 340.5,-38 408.25,-38 408.25,-58.75"/>
<text text-anchor="middle" x="374.38" y="-45.25" font-family="Helvetica,sans-Serif" font-size="10.00">w2c__f538</text>
</a>
</g>
</g>
<!-- Node6&#45;&gt;Node7 -->
<g id="edge7_Node000006_Node000007" class="edge">
<title>Node6&#45;&gt;Node7</title>
<g id="a_edge7_Node000006_Node000007"><a xlink:title=" ">
<path fill="none" stroke="#63b8ff" d="M304.94,-49.05C312.57,-48.97 320.81,-48.89 328.83,-48.81"/>
<polygon fill="#63b8ff" stroke="#63b8ff" points="328.85,-52.31 338.82,-48.71 328.78,-45.31 328.85,-52.31"/>
</a>
</g>
</g>
</g>
</svg>
