<?xml version="1.0" encoding="UTF-8" standalone="no"?>
<!DOCTYPE svg PUBLIC "-//W3C//DTD SVG 1.1//EN"
 "http://www.w3.org/Graphics/SVG/1.1/DTD/svg11.dtd">
<!-- Generated by graphviz version 12.2.1 (0)
 -->
<!-- Title: w2c__f250 Pages: 1 -->
<svg width="678pt" height="147pt"
 viewBox="0.00 0.00 678.00 146.56" xmlns="http://www.w3.org/2000/svg" xmlns:xlink="http://www.w3.org/1999/xlink">
<g id="graph0" class="graph" transform="scale(1 1) rotate(0) translate(4 142.56)">
<title>w2c__f250</title>
<!-- Node1 -->
<g id="Node000001" class="node">
<title>Node1</title>
<g id="a_Node000001"><a xlink:title=" ">
<polygon fill="#999999" stroke="#666666" points="670,-91.75 602.25,-91.75 602.25,-71 670,-71 670,-91.75"/>
<text text-anchor="middle" x="636.12" y="-78.25" font-family="Helvetica,sans-Serif" font-size="10.00">w2c__f250</text>
</a>
</g>
</g>
<!-- Node2 -->
<g id="Node000002" class="node">
<title>Node2</title>
<g id="a_Node000002"><a xlink:href="app_8c.html#aac449994afd8488e2efd16fb19f0ecb1" target="_top" xlink:title=" ">
<polygon fill="white" stroke="#666666" points="358.75,-87.75 291,-87.75 291,-67 358.75,-67 358.75,-87.75"/>
<text text-anchor="middle" x="324.88" y="-74.25" font-family="Helvetica,sans-Serif" font-size="10.00">w2c__f336</text>
</a>
</g>
</g>
<!-- Node1&#45;&gt;Node2 -->
<g id="edge1_Node000001_Node000002" class="edge">
<title>Node1&#45;&gt;Node2</title>
<g id="a_edge1_Node000001_Node000002"><a xlink:title=" ">
<path fill="none" stroke="#63b8ff" d="M608.65,-97.85C596.24,-104.77 580.96,-112.17 566.25,-116.38 492.86,-137.35 467.57,-148.25 394.75,-125.38 371.39,-118.04 349.03,-99.66 336.41,-87.89"/>
<polygon fill="#63b8ff" stroke="#63b8ff" points="610.13,-101.03 617.02,-92.99 606.62,-94.98 610.13,-101.03"/>
</a>
</g>
</g>
<!-- Node8 -->
<g id="Node000008" class="node">
<title>Node8</title>
<g id="a_Node000008"><a xlink:href="app_8c.html#a044129625d51f33771ec484a5580c8dd" target="_top" xlink:title=" ">
<polygon fill="white" stroke="#666666" points="566.25,-107.75 498.5,-107.75 498.5,-87 566.25,-87 566.25,-107.75"/>
<text text-anchor="middle" x="532.38" y="-94.25" font-family="Helvetica,sans-Serif" font-size="10.00">w2c__f407</text>
</a>
</g>
</g>
<!-- Node1&#45;&gt;Node8 -->
<g id="edge7_Node000001_Node000008" class="edge">
<title>Node1&#45;&gt;Node8</title>
<g id="a_edge7_Node000001_Node000008"><a xlink:title=" ">
<path fill="none" stroke="#63b8ff" d="M590.57,-88.38C582.46,-89.66 574.13,-90.97 566.42,-92.18"/>
<polygon fill="#63b8ff" stroke="#63b8ff" points="590.98,-91.86 600.31,-86.85 589.89,-84.95 590.98,-91.86"/>
</a>
</g>
</g>
<!-- Node10 -->
<g id="Node000010" class="node">
<title>Node10</title>
<g id="a_Node000010"><a xlink:href="app_8c.html#a8148ed87ce4342db8f3f3d26aa70af69" target="_top" xlink:title=" ">
<polygon fill="white" stroke="#666666" points="566.25,-63.75 498.5,-63.75 498.5,-43 566.25,-43 566.25,-63.75"/>
<text text-anchor="middle" x="532.38" y="-50.25" font-family="Helvetica,sans-Serif" font-size="10.00">w2c__f419</text>
</a>
</g>
</g>
<!-- Node1&#45;&gt;Node10 -->
<g id="edge10_Node000001_Node000010" class="edge">
<title>Node1&#45;&gt;Node10</title>
<g id="a_edge10_Node000001_Node000010"><a xlink:title=" ">
<path fill="none" stroke="#63b8ff" d="M590.85,-69.19C582.65,-66.93 574.21,-64.61 566.42,-62.47"/>
<polygon fill="#63b8ff" stroke="#63b8ff" points="589.78,-72.53 600.35,-71.81 591.64,-65.78 589.78,-72.53"/>
</a>
</g>
</g>
<!-- Node12 -->
<g id="Node000012" class="node">
<title>Node12</title>
<g id="a_Node000012"><a xlink:href="app_8c.html#aa6bcbcf5ed363f73cb547467673c5d75" target="_top" xlink:title=" ">
<polygon fill="white" stroke="#666666" points="462.5,-20.75 394.75,-20.75 394.75,0 462.5,0 462.5,-20.75"/>
<text text-anchor="middle" x="428.62" y="-7.25" font-family="Helvetica,sans-Serif" font-size="10.00">w2c__f510</text>
</a>
</g>
</g>
<!-- Node1&#45;&gt;Node12 -->
<g id="edge14_Node000001_Node000012" class="edge">
<title>Node1&#45;&gt;Node12</title>
<g id="a_edge14_Node000001_Node000012"><a xlink:title=" ">
<path fill="none" stroke="#63b8ff" d="M614.27,-63.66C601.27,-53.54 583.73,-41.49 566.25,-34.38 532.57,-20.67 491.08,-14.78 462.72,-12.26"/>
<polygon fill="#63b8ff" stroke="#63b8ff" points="611.71,-66.1 621.69,-69.64 616.1,-60.64 611.71,-66.1"/>
</a>
</g>
</g>
<!-- Node3 -->
<g id="Node000003" class="node">
<title>Node3</title>
<g id="a_Node000003"><a xlink:href="app_8c.html#ac863989691d4c389f80374209c220171" target="_top" xlink:title=" ">
<polygon fill="white" stroke="#666666" points="252.38,-107.75 189.88,-107.75 189.88,-87 252.38,-87 252.38,-107.75"/>
<text text-anchor="middle" x="221.12" y="-94.25" font-family="Helvetica,sans-Serif" font-size="10.00">w2c__c_0</text>
</a>
</g>
</g>
<!-- Node2&#45;&gt;Node3 -->
<g id="edge2_Node000002_Node000003" class="edge">
<title>Node2&#45;&gt;Node3</title>
<g id="a_edge2_Node000002_Node000003"><a xlink:title=" ">
<path fill="none" stroke="#63b8ff" d="M279.4,-86.12C270.41,-87.88 261.15,-89.7 252.76,-91.35"/>
<polygon fill="#63b8ff" stroke="#63b8ff" points="279.94,-89.58 289.07,-84.22 278.59,-82.71 279.94,-89.58"/>
</a>
</g>
</g>
<!-- Node5 -->
<g id="Node000005" class="node">
<title>Node5</title>
<g id="a_Node000005"><a xlink:href="app_8c.html#a8f312e54d76623b1ae169d5d19736ee0" target="_top" xlink:title=" ">
<polygon fill="white" stroke="#666666" points="255,-68.75 187.25,-68.75 187.25,-48 255,-48 255,-68.75"/>
<text text-anchor="middle" x="221.12" y="-55.25" font-family="Helvetica,sans-Serif" font-size="10.00">w2c__f363</text>
</a>
</g>
</g>
<!-- Node2&#45;&gt;Node5 -->
<g id="edge4_Node000002_Node000005" class="edge">
<title>Node2&#45;&gt;Node5</title>
<g id="a_edge4_Node000002_Node000005"><a xlink:title=" ">
<path fill="none" stroke="#63b8ff" d="M279.32,-69.06C271.21,-67.54 262.88,-65.98 255.17,-64.55"/>
<polygon fill="#63b8ff" stroke="#63b8ff" points="278.6,-72.48 289.07,-70.88 279.88,-65.6 278.6,-72.48"/>
</a>
</g>
</g>
<!-- Node4 -->
<g id="Node000004" class="node">
<title>Node4</title>
<g id="a_Node000004"><a xlink:href="app_8c.html#ab1e039392ea68017ab8a6063263b147d" target="_top" xlink:title=" ">
<polygon fill="white" stroke="#666666" points="145.25,-107.75 94,-107.75 94,-87 145.25,-87 145.25,-107.75"/>
<text text-anchor="middle" x="119.62" y="-94.25" font-family="Helvetica,sans-Serif" font-size="10.00">w2c__c</text>
</a>
</g>
</g>
<!-- Node3&#45;&gt;Node4 -->
<g id="edge3_Node000003_Node000004" class="edge">
<title>Node3&#45;&gt;Node4</title>
<g id="a_edge3_Node000003_Node000004"><a xlink:title=" ">
<path fill="none" stroke="#63b8ff" d="M178.21,-97.38C167.15,-97.38 155.55,-97.38 145.68,-97.38"/>
<polygon fill="#63b8ff" stroke="#63b8ff" points="177.95,-100.88 187.95,-97.38 177.95,-93.88 177.95,-100.88"/>
</a>
</g>
</g>
<!-- Node6 -->
<g id="Node000006" class="node">
<title>Node6</title>
<g id="a_Node000006"><a xlink:href="app_8c.html#a26657f10c51f10eeb57a4d27606a6885" target="_top" xlink:title=" ">
<polygon fill="white" stroke="#666666" points="151.25,-68.75 88,-68.75 88,-48 151.25,-48 151.25,-68.75"/>
<text text-anchor="middle" x="119.62" y="-55.25" font-family="Helvetica,sans-Serif" font-size="10.00">w2c__b_0</text>
</a>
</g>
</g>
<!-- Node5&#45;&gt;Node6 -->
<g id="edge5_Node000005_Node000006" class="edge">
<title>Node5&#45;&gt;Node6</title>
<g id="a_edge5_Node000005_Node000006"><a xlink:title=" ">
<path fill="none" stroke="#63b8ff" d="M175.71,-58.38C167.57,-58.38 159.23,-58.38 151.59,-58.38"/>
<polygon fill="#63b8ff" stroke="#63b8ff" points="175.48,-61.88 185.48,-58.38 175.48,-54.88 175.48,-61.88"/>
</a>
</g>
</g>
<!-- Node7 -->
<g id="Node000007" class="node">
<title>Node7</title>
<g id="a_Node000007"><a xlink:href="app_8c.html#a683a2045346c3209e9dac20d55933c7d" target="_top" xlink:title=" ">
<polygon fill="white" stroke="#666666" points="52,-68.75 0,-68.75 0,-48 52,-48 52,-68.75"/>
<text text-anchor="middle" x="26" y="-55.25" font-family="Helvetica,sans-Serif" font-size="10.00">w2c__b</text>
</a>
</g>
</g>
<!-- Node6&#45;&gt;Node7 -->
<g id="edge6_Node000006_Node000007" class="edge">
<title>Node6&#45;&gt;Node7</title>
<g id="a_edge6_Node000006_Node000007"><a xlink:title=" ">
<path fill="none" stroke="#63b8ff" d="M76.21,-58.38C68,-58.38 59.65,-58.38 52.21,-58.38"/>
<polygon fill="#63b8ff" stroke="#63b8ff" points="76.09,-61.88 86.09,-58.38 76.09,-54.88 76.09,-61.88"/>
</a>
</g>
</g>
<!-- Node9 -->
<g id="Node000009" class="node">
<title>Node9</title>
<g id="a_Node000009"><a xlink:href="app_8c.html#ad46ee8455023db930456c594f733bd66" target="_top" xlink:title=" ">
<polygon fill="white" stroke="#666666" points="462.5,-116.75 394.75,-116.75 394.75,-96 462.5,-96 462.5,-116.75"/>
<text text-anchor="middle" x="428.62" y="-103.25" font-family="Helvetica,sans-Serif" font-size="10.00">w2c__f406</text>
</a>
</g>
</g>
<!-- Node8&#45;&gt;Node9 -->
<g id="edge8_Node000008_Node000009" class="edge">
<title>Node8&#45;&gt;Node9</title>
<g id="a_edge8_Node000008_Node000009"><a xlink:title=" ">
<path fill="none" stroke="#63b8ff" d="M486.82,-101.32C478.71,-102.03 470.38,-102.77 462.67,-103.45"/>
<polygon fill="#63b8ff" stroke="#63b8ff" points="486.9,-104.82 496.55,-100.46 486.28,-97.85 486.9,-104.82"/>
</a>
</g>
</g>
<!-- Node9&#45;&gt;Node2 -->
<g id="edge9_Node000009_Node000002" class="edge">
<title>Node9&#45;&gt;Node2</title>
<g id="a_edge9_Node000009_Node000002"><a xlink:title=" ">
<path fill="none" stroke="#63b8ff" d="M383.35,-93.76C375.15,-91.42 366.71,-89.01 358.92,-86.79"/>
<polygon fill="#63b8ff" stroke="#63b8ff" points="382.28,-97.09 392.85,-96.46 384.2,-90.36 382.28,-97.09"/>
</a>
</g>
</g>
<!-- Node11 -->
<g id="Node000011" class="node">
<title>Node11</title>
<g id="a_Node000011"><a xlink:href="app_8c.html#a27ec3034e861eede96fabd221dec28d1" target="_top" xlink:title=" ">
<polygon fill="white" stroke="#666666" points="462.5,-59.75 394.75,-59.75 394.75,-39 462.5,-39 462.5,-59.75"/>
<text text-anchor="middle" x="428.62" y="-46.25" font-family="Helvetica,sans-Serif" font-size="10.00">w2c__f554</text>
</a>
</g>
</g>
<!-- Node10&#45;&gt;Node11 -->
<g id="edge11_Node000010_Node000011" class="edge">
<title>Node10&#45;&gt;Node11</title>
<g id="a_edge11_Node000010_Node000011"><a xlink:title=" ">
<path fill="none" stroke="#63b8ff" d="M486.82,-51.62C478.71,-51.3 470.38,-50.98 462.67,-50.67"/>
<polygon fill="#63b8ff" stroke="#63b8ff" points="486.42,-55.11 496.55,-52.01 486.69,-48.12 486.42,-55.11"/>
</a>
</g>
</g>
<!-- Node11&#45;&gt;Node2 -->
<g id="edge12_Node000011_Node000002" class="edge">
<title>Node11&#45;&gt;Node2</title>
<g id="a_edge12_Node000011_Node000002"><a xlink:title=" ">
<path fill="none" stroke="#63b8ff" d="M383.35,-61.56C375.15,-63.82 366.71,-66.14 358.92,-68.28"/>
<polygon fill="#63b8ff" stroke="#63b8ff" points="384.14,-64.97 392.85,-58.94 382.28,-58.22 384.14,-64.97"/>
</a>
</g>
</g>
<!-- Node11&#45;&gt;Node11 -->
<g id="edge13_Node000011_Node000011" class="edge">
<title>Node11&#45;&gt;Node11</title>
<g id="a_edge13_Node000011_Node000011"><a xlink:title=" ">
<path fill="none" stroke="#63b8ff" d="M446.66,-71.56C444.11,-75.23 438.1,-77.75 428.62,-77.75 410.79,-77.75 405.22,-68.81 411.91,-60.15"/>
<polygon fill="#63b8ff" stroke="#63b8ff" points="450.14,-71.18 445.52,-61.65 443.19,-71.99 450.14,-71.18"/>
</a>
</g>
</g>
<!-- Node12&#45;&gt;Node2 -->
<g id="edge15_Node000012_Node000002" class="edge">
<title>Node12&#45;&gt;Node2</title>
<g id="a_edge15_Node000012_Node000002"><a xlink:title=" ">
<path fill="none" stroke="#63b8ff" d="M399.74,-27.2C398.05,-28.27 396.37,-29.33 394.75,-30.38 376.14,-42.38 355.17,-56.82 341.31,-66.5"/>
<polygon fill="#63b8ff" stroke="#63b8ff" points="401.48,-30.24 408.15,-22.01 397.8,-24.29 401.48,-30.24"/>
</a>
</g>
</g>
</g>
</svg>
