<?xml version="1.0" encoding="UTF-8" standalone="no"?>
<!DOCTYPE svg PUBLIC "-//W3C//DTD SVG 1.1//EN"
 "http://www.w3.org/Graphics/SVG/1.1/DTD/svg11.dtd">
<!-- Generated by graphviz version 12.2.1 (0)
 -->
<!-- Title: w2c__f310 Pages: 1 -->
<svg width="282pt" height="224pt"
 viewBox="0.00 0.00 281.75 223.75" xmlns="http://www.w3.org/2000/svg" xmlns:xlink="http://www.w3.org/1999/xlink">
<g id="graph0" class="graph" transform="scale(1 1) rotate(0) translate(4 219.75)">
<title>w2c__f310</title>
<!-- Node1 -->
<g id="Node000001" class="node">
<title>Node1</title>
<g id="a_Node000001"><a xlink:title=" ">
<polygon fill="#999999" stroke="#666666" points="67.75,-117.75 0,-117.75 0,-97 67.75,-97 67.75,-117.75"/>
<text text-anchor="middle" x="33.88" y="-104.25" font-family="Helvetica,sans-Serif" font-size="10.00">w2c__f310</text>
</a>
</g>
</g>
<!-- Node2 -->
<g id="Node000002" class="node">
<title>Node2</title>
<g id="a_Node000002"><a xlink:href="app_8c.html#add88601cb03b410d0c4bc8f456c3ae55" target="_top" xlink:title=" ">
<polygon fill="white" stroke="#666666" points="173.75,-215.75 103.75,-215.75 103.75,-195 173.75,-195 173.75,-215.75"/>
<text text-anchor="middle" x="138.75" y="-202.25" font-family="Helvetica,sans-Serif" font-size="10.00">w2c_0_104</text>
</a>
</g>
</g>
<!-- Node1&#45;&gt;Node2 -->
<g id="edge1_Node000001_Node000002" class="edge">
<title>Node1&#45;&gt;Node2</title>
<g id="a_edge1_Node000001_Node000002"><a xlink:title=" ">
<path fill="none" stroke="#63b8ff" d="M42.65,-118.18C54.54,-134.19 78.52,-164.57 103.75,-185.38 105,-186.41 106.32,-187.42 107.67,-188.41"/>
<polygon fill="#63b8ff" stroke="#63b8ff" points="105.38,-191.1 115.65,-193.69 109.24,-185.26 105.38,-191.1"/>
</a>
</g>
</g>
<!-- Node3 -->
<g id="Node000003" class="node">
<title>Node3</title>
<g id="a_Node000003"><a xlink:href="app_8c.html#a416a3f7003240b1a361323dbb3203bf8" target="_top" xlink:title=" ">
<polygon fill="white" stroke="#666666" points="173.75,-176.75 103.75,-176.75 103.75,-156 173.75,-156 173.75,-176.75"/>
<text text-anchor="middle" x="138.75" y="-163.25" font-family="Helvetica,sans-Serif" font-size="10.00">w2c_0_130</text>
</a>
</g>
</g>
<!-- Node1&#45;&gt;Node3 -->
<g id="edge2_Node000001_Node000003" class="edge">
<title>Node1&#45;&gt;Node3</title>
<g id="a_edge2_Node000001_Node000003"><a xlink:title=" ">
<path fill="none" stroke="#63b8ff" d="M53.74,-118.2C69.26,-127.1 91.49,-139.85 109.19,-150"/>
<polygon fill="#63b8ff" stroke="#63b8ff" points="107.27,-152.93 117.69,-154.87 110.75,-146.86 107.27,-152.93"/>
</a>
</g>
</g>
<!-- Node4 -->
<g id="Node000004" class="node">
<title>Node4</title>
<g id="a_Node000004"><a xlink:href="app_8c.html#ae68178bc105b2d45ebe022d5f9bc03f7" target="_top" xlink:title=" ">
<polygon fill="white" stroke="#666666" points="173.75,-137.75 103.75,-137.75 103.75,-117 173.75,-117 173.75,-137.75"/>
<text text-anchor="middle" x="138.75" y="-124.25" font-family="Helvetica,sans-Serif" font-size="10.00">w2c_0_159</text>
</a>
</g>
</g>
<!-- Node1&#45;&gt;Node4 -->
<g id="edge3_Node000001_Node000004" class="edge">
<title>Node1&#45;&gt;Node4</title>
<g id="a_edge3_Node000001_Node000004"><a xlink:title=" ">
<path fill="none" stroke="#63b8ff" d="M67.99,-113.81C75.66,-115.3 83.95,-116.92 92.04,-118.49"/>
<polygon fill="#63b8ff" stroke="#63b8ff" points="91.31,-121.91 101.79,-120.38 92.65,-115.04 91.31,-121.91"/>
</a>
</g>
</g>
<!-- Node5 -->
<g id="Node000005" class="node">
<title>Node5</title>
<g id="a_Node000005"><a xlink:href="app_8c.html#af3b7c5a4a8f14b9383b243d8c06b1301" target="_top" xlink:title=" ">
<polygon fill="white" stroke="#666666" points="173.75,-98.75 103.75,-98.75 103.75,-78 173.75,-78 173.75,-98.75"/>
<text text-anchor="middle" x="138.75" y="-85.25" font-family="Helvetica,sans-Serif" font-size="10.00">w2c_0_172</text>
</a>
</g>
</g>
<!-- Node1&#45;&gt;Node5 -->
<g id="edge4_Node000001_Node000005" class="edge">
<title>Node1&#45;&gt;Node5</title>
<g id="a_edge4_Node000001_Node000005"><a xlink:title=" ">
<path fill="none" stroke="#63b8ff" d="M67.99,-101.26C75.66,-99.84 83.95,-98.31 92.04,-96.82"/>
<polygon fill="#63b8ff" stroke="#63b8ff" points="92.59,-100.27 101.79,-95.02 91.32,-93.39 92.59,-100.27"/>
</a>
</g>
</g>
<!-- Node6 -->
<g id="Node000006" class="node">
<title>Node6</title>
<g id="a_Node000006"><a xlink:href="app_8c.html#aa018dbf3bc5814e93cedb41f14e2b4d9" target="_top" xlink:title=" ">
<polygon fill="white" stroke="#666666" points="170.75,-59.75 106.75,-59.75 106.75,-39 170.75,-39 170.75,-59.75"/>
<text text-anchor="middle" x="138.75" y="-46.25" font-family="Helvetica,sans-Serif" font-size="10.00">w2c_0_19</text>
</a>
</g>
</g>
<!-- Node1&#45;&gt;Node6 -->
<g id="edge5_Node000001_Node000006" class="edge">
<title>Node1&#45;&gt;Node6</title>
<g id="a_edge5_Node000001_Node000006"><a xlink:title=" ">
<path fill="none" stroke="#63b8ff" d="M53.74,-96.74C69.16,-88.04 91.22,-75.61 108.86,-65.66"/>
<polygon fill="#63b8ff" stroke="#63b8ff" points="110.34,-68.85 117.33,-60.89 106.9,-62.75 110.34,-68.85"/>
</a>
</g>
</g>
<!-- Node7 -->
<g id="Node000007" class="node">
<title>Node7</title>
<g id="a_Node000007"><a xlink:href="app_8c.html#a19209c6f5685e2e28a1b671ece901600" target="_top" xlink:title=" ">
<polygon fill="white" stroke="#666666" points="172.62,-20.75 104.88,-20.75 104.88,0 172.62,0 172.62,-20.75"/>
<text text-anchor="middle" x="138.75" y="-7.25" font-family="Helvetica,sans-Serif" font-size="10.00">w2c__f335</text>
</a>
</g>
</g>
<!-- Node1&#45;&gt;Node7 -->
<g id="edge6_Node000001_Node000007" class="edge">
<title>Node1&#45;&gt;Node7</title>
<g id="a_edge6_Node000001_Node000007"><a xlink:title=" ">
<path fill="none" stroke="#63b8ff" d="M42.68,-96.72C54.61,-80.92 78.64,-50.95 103.75,-30.38 105.01,-29.34 106.33,-28.33 107.68,-27.35"/>
<polygon fill="#63b8ff" stroke="#63b8ff" points="109.25,-30.5 115.67,-22.07 105.39,-24.66 109.25,-30.5"/>
</a>
</g>
</g>
<!-- Node8 -->
<g id="Node000008" class="node">
<title>Node8</title>
<g id="a_Node000008"><a xlink:href="app_8c.html#a84a707cc8c74624a4f1db785844c7211" target="_top" xlink:title=" ">
<polygon fill="white" stroke="#666666" points="273.75,-20.75 209.75,-20.75 209.75,0 273.75,0 273.75,-20.75"/>
<text text-anchor="middle" x="241.75" y="-7.25" font-family="Helvetica,sans-Serif" font-size="10.00">w2c_0_92</text>
</a>
</g>
</g>
<!-- Node7&#45;&gt;Node8 -->
<g id="edge7_Node000007_Node000008" class="edge">
<title>Node7&#45;&gt;Node8</title>
<g id="a_edge7_Node000007_Node000008"><a xlink:title=" ">
<path fill="none" stroke="#63b8ff" d="M173.1,-10.38C181.07,-10.38 189.68,-10.38 198.01,-10.38"/>
<polygon fill="#63b8ff" stroke="#63b8ff" points="197.97,-13.88 207.97,-10.38 197.97,-6.88 197.97,-13.88"/>
</a>
</g>
</g>
</g>
</svg>
