<?xml version="1.0" encoding="UTF-8" standalone="no"?>
<!DOCTYPE svg PUBLIC "-//W3C//DTD SVG 1.1//EN"
 "http://www.w3.org/Graphics/SVG/1.1/DTD/svg11.dtd">
<!-- Generated by graphviz version 12.2.1 (0)
 -->
<!-- Title: w2c__f555 Pages: 1 -->
<svg width="598pt" height="312pt"
 viewBox="0.00 0.00 598.25 312.28" xmlns="http://www.w3.org/2000/svg" xmlns:xlink="http://www.w3.org/1999/xlink">
<g id="graph0" class="graph" transform="scale(1 1) rotate(0) translate(4 308.28)">
<title>w2c__f555</title>
<!-- Node1 -->
<g id="Node000001" class="node">
<title>Node1</title>
<g id="a_Node000001"><a xlink:title=" ">
<polygon fill="#999999" stroke="#666666" points="67.75,-169.28 0,-169.28 0,-148.53 67.75,-148.53 67.75,-169.28"/>
<text text-anchor="middle" x="33.88" y="-155.78" font-family="Helvetica,sans-Serif" font-size="10.00">w2c__f555</text>
</a>
</g>
</g>
<!-- Node2 -->
<g id="Node000002" class="node">
<title>Node2</title>
<g id="a_Node000002"><a xlink:href="app_8c.html#a0dcc94e50e7bcb39cabb7a720c8f8454" target="_top" xlink:title=" ">
<polygon fill="white" stroke="#666666" points="171.5,-150.28 103.75,-150.28 103.75,-129.53 171.5,-129.53 171.5,-150.28"/>
<text text-anchor="middle" x="137.62" y="-136.78" font-family="Helvetica,sans-Serif" font-size="10.00">w2c__f316</text>
</a>
</g>
</g>
<!-- Node1&#45;&gt;Node2 -->
<g id="edge1_Node000001_Node000002" class="edge">
<title>Node1&#45;&gt;Node2</title>
<g id="a_edge1_Node000001_Node000002"><a xlink:title=" ">
<path fill="none" stroke="#63b8ff" d="M68.19,-152.69C75.91,-151.25 84.25,-149.69 92.36,-148.17"/>
<polygon fill="#63b8ff" stroke="#63b8ff" points="92.91,-151.63 102.09,-146.36 91.62,-144.75 92.91,-151.63"/>
</a>
</g>
</g>
<!-- Node14 -->
<g id="Node000014" class="node">
<title>Node14</title>
<g id="a_Node000014"><a xlink:href="app_8c.html#a7d2c54d8027e63228e6904d7088eb41a" target="_top" xlink:title=" ">
<polygon fill="white" stroke="#666666" points="171.5,-199.28 103.75,-199.28 103.75,-178.53 171.5,-178.53 171.5,-199.28"/>
<text text-anchor="middle" x="137.62" y="-185.78" font-family="Helvetica,sans-Serif" font-size="10.00">w2c__f396</text>
</a>
</g>
</g>
<!-- Node1&#45;&gt;Node14 -->
<g id="edge16_Node000001_Node000014" class="edge">
<title>Node1&#45;&gt;Node14</title>
<g id="a_edge16_Node000001_Node000014"><a xlink:title=" ">
<path fill="none" stroke="#63b8ff" d="M68.19,-168.73C76,-171.03 84.44,-173.52 92.64,-175.94"/>
<polygon fill="#63b8ff" stroke="#63b8ff" points="91.55,-179.27 102.13,-178.74 93.53,-172.55 91.55,-179.27"/>
</a>
</g>
</g>
<!-- Node3 -->
<g id="Node000003" class="node">
<title>Node3</title>
<g id="a_Node000003"><a xlink:href="app_8c.html#a94ba0efd8da5ce4859ae69909ed227f4" target="_top" xlink:title=" ">
<polygon fill="white" stroke="#666666" points="277.12,-53.28 209.38,-53.28 209.38,-32.53 277.12,-32.53 277.12,-53.28"/>
<text text-anchor="middle" x="243.25" y="-39.78" font-family="Helvetica,sans-Serif" font-size="10.00">w2c__f213</text>
</a>
</g>
</g>
<!-- Node2&#45;&gt;Node3 -->
<g id="edge2_Node000002_Node000003" class="edge">
<title>Node2&#45;&gt;Node3</title>
<g id="a_edge2_Node000002_Node000003"><a xlink:title=" ">
<path fill="none" stroke="#63b8ff" d="M146.4,-129.22C158.3,-113.39 182.29,-83.36 207.5,-62.91 208.78,-61.87 210.13,-60.85 211.51,-59.85"/>
<polygon fill="#63b8ff" stroke="#63b8ff" points="213.21,-62.92 219.69,-54.55 209.4,-57.05 213.21,-62.92"/>
</a>
</g>
</g>
<!-- Node9 -->
<g id="Node000009" class="node">
<title>Node9</title>
<g id="a_Node000009"><a xlink:href="app_8c.html#a819bb0d5a870d8c4bbb6b9a791102333" target="_top" xlink:title=" ">
<polygon fill="white" stroke="#666666" points="277.12,-209.28 209.38,-209.28 209.38,-188.53 277.12,-188.53 277.12,-209.28"/>
<text text-anchor="middle" x="243.25" y="-195.78" font-family="Helvetica,sans-Serif" font-size="10.00">w2c__f322</text>
</a>
</g>
</g>
<!-- Node2&#45;&gt;Node9 -->
<g id="edge11_Node000002_Node000009" class="edge">
<title>Node2&#45;&gt;Node9</title>
<g id="a_edge11_Node000002_Node000009"><a xlink:title=" ">
<path fill="none" stroke="#63b8ff" d="M157.63,-150.73C173.26,-159.63 195.66,-172.38 213.48,-182.53"/>
<polygon fill="#63b8ff" stroke="#63b8ff" points="211.63,-185.5 222.05,-187.41 215.09,-179.42 211.63,-185.5"/>
</a>
</g>
</g>
<!-- Node10 -->
<g id="Node000010" class="node">
<title>Node10</title>
<g id="a_Node000010"><a xlink:href="app_8c.html#a06cdee2573cd7febfe4cfde241e5574b" target="_top" xlink:title=" ">
<polygon fill="white" stroke="#666666" points="277.12,-92.28 209.38,-92.28 209.38,-71.53 277.12,-71.53 277.12,-92.28"/>
<text text-anchor="middle" x="243.25" y="-78.78" font-family="Helvetica,sans-Serif" font-size="10.00">w2c__f404</text>
</a>
</g>
</g>
<!-- Node2&#45;&gt;Node10 -->
<g id="edge12_Node000002_Node000010" class="edge">
<title>Node2&#45;&gt;Node10</title>
<g id="a_edge12_Node000002_Node000010"><a xlink:title=" ">
<path fill="none" stroke="#63b8ff" d="M157.63,-129.27C173.16,-120.58 195.38,-108.14 213.15,-98.2"/>
<polygon fill="#63b8ff" stroke="#63b8ff" points="214.68,-101.35 221.69,-93.41 211.26,-95.24 214.68,-101.35"/>
</a>
</g>
</g>
<!-- Node11 -->
<g id="Node000011" class="node">
<title>Node11</title>
<g id="a_Node000011"><a xlink:href="app_8c.html#a55f0e3687ea8fa5d5cc06af63f503791" target="_top" xlink:title=" ">
<polygon fill="white" stroke="#666666" points="277.12,-131.28 209.38,-131.28 209.38,-110.53 277.12,-110.53 277.12,-131.28"/>
<text text-anchor="middle" x="243.25" y="-117.78" font-family="Helvetica,sans-Serif" font-size="10.00">w2c__f473</text>
</a>
</g>
</g>
<!-- Node2&#45;&gt;Node11 -->
<g id="edge13_Node000002_Node000011" class="edge">
<title>Node2&#45;&gt;Node11</title>
<g id="a_edge13_Node000002_Node000011"><a xlink:title=" ">
<path fill="none" stroke="#63b8ff" d="M171.98,-133.79C180.21,-132.28 189.15,-130.64 197.81,-129.06"/>
<polygon fill="#63b8ff" stroke="#63b8ff" points="198.26,-132.53 207.47,-127.29 197,-125.65 198.26,-132.53"/>
</a>
</g>
</g>
<!-- Node13 -->
<g id="Node000013" class="node">
<title>Node13</title>
<g id="a_Node000013"><a xlink:href="app_8c.html#ad63b6498cfe22ce747f349eeb23b508f" target="_top" xlink:title=" ">
<polygon fill="white" stroke="#666666" points="279,-170.28 207.5,-170.28 207.5,-149.53 279,-149.53 279,-170.28"/>
<text text-anchor="middle" x="243.25" y="-156.78" font-family="Helvetica,sans-Serif" font-size="10.00">wasm_fabs</text>
</a>
</g>
</g>
<!-- Node2&#45;&gt;Node13 -->
<g id="edge15_Node000002_Node000013" class="edge">
<title>Node2&#45;&gt;Node13</title>
<g id="a_edge15_Node000002_Node000013"><a xlink:title=" ">
<path fill="none" stroke="#63b8ff" d="M171.98,-146.35C179.62,-147.82 187.88,-149.42 195.96,-150.97"/>
<polygon fill="#63b8ff" stroke="#63b8ff" points="195.2,-154.39 205.68,-152.85 196.53,-147.52 195.2,-154.39"/>
</a>
</g>
</g>
<!-- Node4 -->
<g id="Node000004" class="node">
<title>Node4</title>
<g id="a_Node000004"><a xlink:href="app_8c.html#ac7c3d97ad3659d9d7492f82b3a7a740d" target="_top" xlink:title=" ">
<polygon fill="white" stroke="#666666" points="382.75,-113.28 315,-113.28 315,-92.53 382.75,-92.53 382.75,-113.28"/>
<text text-anchor="middle" x="348.88" y="-99.78" font-family="Helvetica,sans-Serif" font-size="10.00">w2c__f218</text>
</a>
</g>
</g>
<!-- Node3&#45;&gt;Node4 -->
<g id="edge3_Node000003_Node000004" class="edge">
<title>Node3&#45;&gt;Node4</title>
<g id="a_edge3_Node000003_Node000004"><a xlink:title=" ">
<path fill="none" stroke="#63b8ff" d="M263.01,-53.69C268.2,-56.67 273.82,-59.91 279,-62.91 292.37,-70.64 307.19,-79.24 319.65,-86.48"/>
<polygon fill="#63b8ff" stroke="#63b8ff" points="317.76,-89.43 328.16,-91.43 321.28,-83.38 317.76,-89.43"/>
</a>
</g>
</g>
<!-- Node6 -->
<g id="Node000006" class="node">
<title>Node6</title>
<g id="a_Node000006"><a xlink:href="app_8c.html#a674f6e81761467d0a8dc6d2a425eda9f" target="_top" xlink:title=" ">
<polygon fill="white" stroke="#666666" points="590.25,-37.28 522.5,-37.28 522.5,-16.53 590.25,-16.53 590.25,-37.28"/>
<text text-anchor="middle" x="556.38" y="-23.78" font-family="Helvetica,sans-Serif" font-size="10.00">w2c__f498</text>
</a>
</g>
</g>
<!-- Node3&#45;&gt;Node6 -->
<g id="edge9_Node000003_Node000006" class="edge">
<title>Node3&#45;&gt;Node6</title>
<g id="a_edge9_Node000003_Node000006"><a xlink:title=" ">
<path fill="none" stroke="#63b8ff" d="M264.35,-32.13C278.17,-25.28 297.18,-16.98 315,-12.91 389.34,4.07 410.93,2.32 486.5,-7.91 494.96,-9.05 503.85,-10.96 512.33,-13.13"/>
<polygon fill="#63b8ff" stroke="#63b8ff" points="511.14,-16.43 521.71,-15.69 512.98,-9.68 511.14,-16.43"/>
</a>
</g>
</g>
<!-- Node7 -->
<g id="Node000007" class="node">
<title>Node7</title>
<g id="a_Node000007"><a xlink:href="app_8c.html#a672569c91ebb1d5055d737b56ec296a7" target="_top" xlink:title=" ">
<polygon fill="white" stroke="#666666" points="590.25,-171.28 522.5,-171.28 522.5,-150.53 590.25,-150.53 590.25,-171.28"/>
<text text-anchor="middle" x="556.38" y="-157.78" font-family="Helvetica,sans-Serif" font-size="10.00">w2c__f585</text>
</a>
</g>
</g>
<!-- Node3&#45;&gt;Node7 -->
<g id="edge10_Node000003_Node000007" class="edge">
<title>Node3&#45;&gt;Node7</title>
<g id="a_edge10_Node000003_Node000007"><a xlink:title=" ">
<path fill="none" stroke="#63b8ff" d="M277.33,-41.28C326.47,-40.38 420.05,-44.6 486.5,-83.91 510.24,-97.95 530.32,-122.92 542.56,-140.61"/>
<polygon fill="#63b8ff" stroke="#63b8ff" points="539.55,-142.4 548,-148.79 545.38,-138.52 539.55,-142.4"/>
</a>
</g>
</g>
<!-- Node8 -->
<g id="Node000008" class="node">
<title>Node8</title>
<g id="a_Node000008"><a xlink:href="app_8c.html#ab07e4056f5c12e00d750c88d85ec77bb" target="_top" xlink:title=" ">
<polygon fill="white" stroke="#666666" points="486.5,-113.28 418.75,-113.28 418.75,-92.53 486.5,-92.53 486.5,-113.28"/>
<text text-anchor="middle" x="452.62" y="-99.78" font-family="Helvetica,sans-Serif" font-size="10.00">w2c__f415</text>
</a>
</g>
</g>
<!-- Node3&#45;&gt;Node8 -->
<g id="edge8_Node000003_Node000008" class="edge">
<title>Node3&#45;&gt;Node8</title>
<g id="a_edge8_Node000003_Node000008"><a xlink:title=" ">
<path fill="none" stroke="#63b8ff" d="M277.57,-52.55C312.79,-62.74 368.52,-78.86 407.4,-90.11"/>
<polygon fill="#63b8ff" stroke="#63b8ff" points="406.36,-93.45 416.94,-92.87 408.3,-86.73 406.36,-93.45"/>
</a>
</g>
</g>
<!-- Node5 -->
<g id="Node000005" class="node">
<title>Node5</title>
<g id="a_Node000005"><a xlink:href="app_8c.html#a268eeda7b1a075e4b680bac34cdfebdb" target="_top" xlink:title=" ">
<polygon fill="white" stroke="#666666" points="486.5,-37.28 418.75,-37.28 418.75,-16.53 486.5,-16.53 486.5,-37.28"/>
<text text-anchor="middle" x="452.62" y="-23.78" font-family="Helvetica,sans-Serif" font-size="10.00">w2c__f259</text>
</a>
</g>
</g>
<!-- Node4&#45;&gt;Node5 -->
<g id="edge4_Node000004_Node000005" class="edge">
<title>Node4&#45;&gt;Node5</title>
<g id="a_edge4_Node000004_Node000005"><a xlink:title=" ">
<path fill="none" stroke="#63b8ff" d="M364.02,-92.34C380.63,-79.93 408.43,-59.17 428.26,-44.36"/>
<polygon fill="#63b8ff" stroke="#63b8ff" points="430.14,-47.33 436.06,-38.54 425.95,-41.72 430.14,-47.33"/>
</a>
</g>
</g>
<!-- Node4&#45;&gt;Node8 -->
<g id="edge7_Node000004_Node000008" class="edge">
<title>Node4&#45;&gt;Node8</title>
<g id="a_edge7_Node000004_Node000008"><a xlink:title=" ">
<path fill="none" stroke="#63b8ff" d="M383.19,-102.91C390.82,-102.91 399.06,-102.91 407.08,-102.91"/>
<polygon fill="#63b8ff" stroke="#63b8ff" points="407.07,-106.41 417.07,-102.91 407.07,-99.41 407.07,-106.41"/>
</a>
</g>
</g>
<!-- Node5&#45;&gt;Node6 -->
<g id="edge5_Node000005_Node000006" class="edge">
<title>Node5&#45;&gt;Node6</title>
<g id="a_edge5_Node000005_Node000006"><a xlink:title=" ">
<path fill="none" stroke="#63b8ff" d="M486.94,-26.91C494.57,-26.91 502.81,-26.91 510.83,-26.91"/>
<polygon fill="#63b8ff" stroke="#63b8ff" points="510.82,-30.41 520.82,-26.91 510.82,-23.41 510.82,-30.41"/>
</a>
</g>
</g>
<!-- Node5&#45;&gt;Node7 -->
<g id="edge6_Node000005_Node000007" class="edge">
<title>Node5&#45;&gt;Node7</title>
<g id="a_edge6_Node000005_Node000007"><a xlink:title=" ">
<path fill="none" stroke="#63b8ff" d="M471.02,-37.74C476.34,-41.52 481.97,-46.05 486.5,-50.91 512.1,-78.4 533.57,-116.74 545.43,-140.13"/>
<polygon fill="#63b8ff" stroke="#63b8ff" points="542.22,-141.53 549.78,-148.95 548.49,-138.43 542.22,-141.53"/>
</a>
</g>
</g>
<!-- Node12 -->
<g id="Node000012" class="node">
<title>Node12</title>
<g id="a_Node000012"><a xlink:href="app_8c.html#ab5fcbcf768e56d91e9aa71bba4a24166" target="_top" xlink:title=" ">
<polygon fill="white" stroke="#666666" points="382.75,-152.28 315,-152.28 315,-131.53 382.75,-131.53 382.75,-152.28"/>
<text text-anchor="middle" x="348.88" y="-138.78" font-family="Helvetica,sans-Serif" font-size="10.00">w2c__f221</text>
</a>
</g>
</g>
<!-- Node11&#45;&gt;Node12 -->
<g id="edge14_Node000011_Node000012" class="edge">
<title>Node11&#45;&gt;Node12</title>
<g id="a_edge14_Node000011_Node000012"><a xlink:title=" ">
<path fill="none" stroke="#63b8ff" d="M277.61,-127.67C285.84,-129.34 294.78,-131.15 303.44,-132.9"/>
<polygon fill="#63b8ff" stroke="#63b8ff" points="302.6,-136.3 313.1,-134.86 303.99,-129.44 302.6,-136.3"/>
</a>
</g>
</g>
<!-- Node14&#45;&gt;Node9 -->
<g id="edge25_Node000014_Node000009" class="edge">
<title>Node14&#45;&gt;Node9</title>
<g id="a_edge25_Node000014_Node000009"><a xlink:title=" ">
<path fill="none" stroke="#63b8ff" d="M171.98,-192.13C180.12,-192.91 188.95,-193.77 197.52,-194.59"/>
<polygon fill="#63b8ff" stroke="#63b8ff" points="197.16,-198.07 207.45,-195.55 197.83,-191.11 197.16,-198.07"/>
</a>
</g>
</g>
<!-- Node14&#45;&gt;Node11 -->
<g id="edge26_Node000014_Node000011" class="edge">
<title>Node14&#45;&gt;Node11</title>
<g id="a_edge26_Node000014_Node000011"><a xlink:title=" ">
<path fill="none" stroke="#63b8ff" d="M153.42,-178.04C167.2,-168.06 188.43,-153.01 207.5,-140.91 209.35,-139.73 211.27,-138.55 213.22,-137.36"/>
<polygon fill="#63b8ff" stroke="#63b8ff" points="214.82,-140.49 221.65,-132.39 211.26,-134.46 214.82,-140.49"/>
</a>
</g>
</g>
<!-- Node14&#45;&gt;Node13 -->
<g id="edge27_Node000014_Node000013" class="edge">
<title>Node14&#45;&gt;Node13</title>
<g id="a_edge27_Node000014_Node000013"><a xlink:title=" ">
<path fill="none" stroke="#63b8ff" d="M171.98,-179.57C179.71,-177.41 188.07,-175.07 196.23,-172.79"/>
<polygon fill="#63b8ff" stroke="#63b8ff" points="197.03,-176.2 205.71,-170.13 195.14,-169.46 197.03,-176.2"/>
</a>
</g>
</g>
<!-- Node15 -->
<g id="Node000015" class="node">
<title>Node15</title>
<g id="a_Node000015"><a xlink:href="app_8c.html#a433dfe09b8150b58f5cef673948d9ed7" target="_top" xlink:title=" ">
<polygon fill="white" stroke="#666666" points="277.12,-248.28 209.38,-248.28 209.38,-227.53 277.12,-227.53 277.12,-248.28"/>
<text text-anchor="middle" x="243.25" y="-234.78" font-family="Helvetica,sans-Serif" font-size="10.00">w2c__f277</text>
</a>
</g>
</g>
<!-- Node14&#45;&gt;Node15 -->
<g id="edge17_Node000014_Node000015" class="edge">
<title>Node14&#45;&gt;Node15</title>
<g id="a_edge17_Node000014_Node000015"><a xlink:title=" ">
<path fill="none" stroke="#63b8ff" d="M161.62,-199.78C175.58,-206.38 193.62,-214.91 209.09,-222.23"/>
<polygon fill="#63b8ff" stroke="#63b8ff" points="207.41,-225.31 217.95,-226.42 210.4,-218.98 207.41,-225.31"/>
</a>
</g>
</g>
<!-- Node16 -->
<g id="Node000016" class="node">
<title>Node16</title>
<g id="a_Node000016"><a xlink:href="app_8c.html#a8833c017b322ec1b941ea00b73fc4ab5" target="_top" xlink:title=" ">
<polygon fill="white" stroke="#666666" points="277.12,-295.28 209.38,-295.28 209.38,-274.53 277.12,-274.53 277.12,-295.28"/>
<text text-anchor="middle" x="243.25" y="-281.78" font-family="Helvetica,sans-Serif" font-size="10.00">w2c__f308</text>
</a>
</g>
</g>
<!-- Node14&#45;&gt;Node16 -->
<g id="edge22_Node000014_Node000016" class="edge">
<title>Node14&#45;&gt;Node16</title>
<g id="a_edge22_Node000014_Node000016"><a xlink:title=" ">
<path fill="none" stroke="#63b8ff" d="M148.58,-199.38C161.71,-213.02 185.69,-237.44 207.5,-256.91 211.21,-260.22 215.24,-263.62 219.2,-266.87"/>
<polygon fill="#63b8ff" stroke="#63b8ff" points="216.95,-269.56 226.94,-273.1 221.34,-264.11 216.95,-269.56"/>
</a>
</g>
</g>
<!-- Node15&#45;&gt;Node4 -->
<g id="edge18_Node000015_Node000004" class="edge">
<title>Node15&#45;&gt;Node4</title>
<g id="a_edge18_Node000015_Node000004"><a xlink:title=" ">
<path fill="none" stroke="#63b8ff" d="M267.98,-227.22C272.04,-224.61 275.93,-221.51 279,-217.91 308.27,-183.53 286.15,-157.64 315,-122.91 315.54,-122.25 316.12,-121.61 316.71,-120.99"/>
<polygon fill="#63b8ff" stroke="#63b8ff" points="318.79,-123.81 324.26,-114.74 314.32,-118.42 318.79,-123.81"/>
</a>
</g>
</g>
<!-- Node15&#45;&gt;Node6 -->
<g id="edge20_Node000015_Node000006" class="edge">
<title>Node15&#45;&gt;Node6</title>
<g id="a_edge20_Node000015_Node000006"><a xlink:title=" ">
<path fill="none" stroke="#63b8ff" d="M277.53,-230.68C306.3,-223.71 348.52,-211.74 382.75,-194.91 433.34,-170.03 446.35,-161.49 486.5,-121.91 509.62,-99.12 530.64,-67.89 543.22,-47.56"/>
<polygon fill="#63b8ff" stroke="#63b8ff" points="546.18,-49.43 548.37,-39.06 540.19,-45.8 546.18,-49.43"/>
</a>
</g>
</g>
<!-- Node15&#45;&gt;Node7 -->
<g id="edge21_Node000015_Node000007" class="edge">
<title>Node15&#45;&gt;Node7</title>
<g id="a_edge21_Node000015_Node000007"><a xlink:title=" ">
<path fill="none" stroke="#63b8ff" d="M277.28,-244.67C325.55,-252.91 417.13,-262.28 486.5,-231.91 510.7,-221.31 530.68,-197.82 542.78,-180.75"/>
<polygon fill="#63b8ff" stroke="#63b8ff" points="545.42,-183.09 548.12,-172.85 539.62,-179.18 545.42,-183.09"/>
</a>
</g>
</g>
<!-- Node15&#45;&gt;Node8 -->
<g id="edge19_Node000015_Node000008" class="edge">
<title>Node15&#45;&gt;Node8</title>
<g id="a_edge19_Node000015_Node000008"><a xlink:title=" ">
<path fill="none" stroke="#63b8ff" d="M266.62,-227.15C294.66,-213.3 343.79,-187.77 382.75,-160.91 400.32,-148.8 418.73,-133.11 432.1,-121.11"/>
<polygon fill="#63b8ff" stroke="#63b8ff" points="434.32,-123.82 439.35,-114.49 429.6,-118.64 434.32,-123.82"/>
</a>
</g>
</g>
<!-- Node17 -->
<g id="Node000017" class="node">
<title>Node17</title>
<g id="a_Node000017"><a xlink:href="app_8c.html#a69141c0140f000f9e7b4001ac46fbf92" target="_top" xlink:title=" ">
<polygon fill="white" stroke="#666666" points="486.5,-304.28 418.75,-304.28 418.75,-283.53 486.5,-283.53 486.5,-304.28"/>
<text text-anchor="middle" x="452.62" y="-290.78" font-family="Helvetica,sans-Serif" font-size="10.00">w2c__f446</text>
</a>
</g>
</g>
<!-- Node16&#45;&gt;Node17 -->
<g id="edge23_Node000016_Node000017" class="edge">
<title>Node16&#45;&gt;Node17</title>
<g id="a_edge23_Node000016_Node000017"><a xlink:title=" ">
<path fill="none" stroke="#63b8ff" d="M277.57,-286.35C312.64,-287.88 368.05,-290.28 406.9,-291.97"/>
<polygon fill="#63b8ff" stroke="#63b8ff" points="406.73,-295.46 416.88,-292.4 407.04,-288.47 406.73,-295.46"/>
</a>
</g>
</g>
<!-- Node17&#45;&gt;Node7 -->
<g id="edge24_Node000017_Node000007" class="edge">
<title>Node17&#45;&gt;Node7</title>
<g id="a_edge24_Node000017_Node000007"><a xlink:title=" ">
<path fill="none" stroke="#63b8ff" d="M471.01,-283.07C476.33,-279.29 481.96,-274.76 486.5,-269.91 511.86,-242.79 533.27,-205.06 545.2,-181.85"/>
<polygon fill="#63b8ff" stroke="#63b8ff" points="548.24,-183.59 549.6,-173.08 541.99,-180.45 548.24,-183.59"/>
</a>
</g>
</g>
</g>
</svg>
