<?xml version="1.0" encoding="UTF-8" standalone="no"?>
<!DOCTYPE svg PUBLIC "-//W3C//DTD SVG 1.1//EN"
 "http://www.w3.org/Graphics/SVG/1.1/DTD/svg11.dtd">
<!-- Generated by graphviz version 12.2.1 (0)
 -->
<!-- Title: w2c__f384 Pages: 1 -->
<svg width="387pt" height="163pt"
 viewBox="0.00 0.00 387.00 162.75" xmlns="http://www.w3.org/2000/svg" xmlns:xlink="http://www.w3.org/1999/xlink">
<g id="graph0" class="graph" transform="scale(1 1) rotate(0) translate(4 158.75)">
<title>w2c__f384</title>
<!-- Node1 -->
<g id="Node000001" class="node">
<title>Node1</title>
<g id="a_Node000001"><a xlink:title=" ">
<polygon fill="#999999" stroke="#666666" points="67.75,-77.75 0,-77.75 0,-57 67.75,-57 67.75,-77.75"/>
<text text-anchor="middle" x="33.88" y="-64.25" font-family="Helvetica,sans-Serif" font-size="10.00">w2c__f384</text>
</a>
</g>
</g>
<!-- Node2 -->
<g id="Node000002" class="node">
<title>Node2</title>
<g id="a_Node000002"><a xlink:href="app_8c.html#ab2de7471494aa8c32f71c49afe5b00f2" target="_top" xlink:title=" ">
<polygon fill="white" stroke="#666666" points="171.5,-96.75 103.75,-96.75 103.75,-76 171.5,-76 171.5,-96.75"/>
<text text-anchor="middle" x="137.62" y="-83.25" font-family="Helvetica,sans-Serif" font-size="10.00">w2c__f313</text>
</a>
</g>
</g>
<!-- Node1&#45;&gt;Node2 -->
<g id="edge1_Node000001_Node000002" class="edge">
<title>Node1&#45;&gt;Node2</title>
<g id="a_edge1_Node000001_Node000002"><a xlink:title=" ">
<path fill="none" stroke="#63b8ff" d="M68.19,-73.6C75.91,-75.04 84.25,-76.59 92.36,-78.11"/>
<polygon fill="#63b8ff" stroke="#63b8ff" points="91.62,-81.53 102.09,-79.93 92.91,-74.65 91.62,-81.53"/>
</a>
</g>
</g>
<!-- Node3 -->
<g id="Node000003" class="node">
<title>Node3</title>
<g id="a_Node000003"><a xlink:href="app_8c.html#a1e95e578fbe89a9807a67fd3ba78795f" target="_top" xlink:title=" ">
<polygon fill="white" stroke="#666666" points="275.25,-154.75 207.5,-154.75 207.5,-134 275.25,-134 275.25,-154.75"/>
<text text-anchor="middle" x="241.38" y="-141.25" font-family="Helvetica,sans-Serif" font-size="10.00">w2c__f382</text>
</a>
</g>
</g>
<!-- Node1&#45;&gt;Node3 -->
<g id="edge11_Node000001_Node000003" class="edge">
<title>Node1&#45;&gt;Node3</title>
<g id="a_edge11_Node000001_Node000003"><a xlink:title=" ">
<path fill="none" stroke="#63b8ff" d="M51.89,-78.18C65.51,-86.48 85.32,-97.77 103.75,-105.38 133.68,-117.72 168.83,-127.66 195.99,-134.41"/>
<polygon fill="#63b8ff" stroke="#63b8ff" points="195.08,-137.79 205.62,-136.75 196.73,-130.99 195.08,-137.79"/>
</a>
</g>
</g>
<!-- Node6 -->
<g id="Node000006" class="node">
<title>Node6</title>
<g id="a_Node000006"><a xlink:href="app_8c.html#a800df00ef236c6d6affc3c661b37e3ad" target="_top" xlink:title=" ">
<polygon fill="white" stroke="#666666" points="275.25,-37.75 207.5,-37.75 207.5,-17 275.25,-17 275.25,-37.75"/>
<text text-anchor="middle" x="241.38" y="-24.25" font-family="Helvetica,sans-Serif" font-size="10.00">w2c__f487</text>
</a>
</g>
</g>
<!-- Node1&#45;&gt;Node6 -->
<g id="edge12_Node000001_Node000006" class="edge">
<title>Node1&#45;&gt;Node6</title>
<g id="a_edge12_Node000001_Node000006"><a xlink:title=" ">
<path fill="none" stroke="#63b8ff" d="M67.89,-60.95C102.69,-54.17 157.7,-43.47 196.21,-35.97"/>
<polygon fill="#63b8ff" stroke="#63b8ff" points="196.47,-39.49 205.61,-34.14 195.13,-32.62 196.47,-39.49"/>
</a>
</g>
</g>
<!-- Node11 -->
<g id="Node000011" class="node">
<title>Node11</title>
<g id="a_Node000011"><a xlink:href="app_8c.html#a34d18545510c7604d64db5651af2a253" target="_top" xlink:title=" ">
<polygon fill="white" stroke="#666666" points="171.5,-20.75 103.75,-20.75 103.75,0 171.5,0 171.5,-20.75"/>
<text text-anchor="middle" x="137.62" y="-7.25" font-family="Helvetica,sans-Serif" font-size="10.00">w2c__f332</text>
</a>
</g>
</g>
<!-- Node1&#45;&gt;Node11 -->
<g id="edge10_Node000001_Node000011" class="edge">
<title>Node1&#45;&gt;Node11</title>
<g id="a_edge10_Node000001_Node000011"><a xlink:title=" ">
<path fill="none" stroke="#63b8ff" d="M54.01,-56.65C69.12,-48.19 90.45,-36.24 107.65,-26.6"/>
<polygon fill="#63b8ff" stroke="#63b8ff" points="108.89,-29.92 115.91,-21.98 105.47,-23.82 108.89,-29.92"/>
</a>
</g>
</g>
<!-- Node2&#45;&gt;Node3 -->
<g id="edge2_Node000002_Node000003" class="edge">
<title>Node2&#45;&gt;Node3</title>
<g id="a_edge2_Node000002_Node000003"><a xlink:title=" ">
<path fill="none" stroke="#63b8ff" d="M157.29,-97.01C172.54,-105.71 194.35,-118.14 211.8,-128.09"/>
<polygon fill="#63b8ff" stroke="#63b8ff" points="209.75,-130.95 220.17,-132.86 213.22,-124.87 209.75,-130.95"/>
</a>
</g>
</g>
<!-- Node5 -->
<g id="Node000005" class="node">
<title>Node5</title>
<g id="a_Node000005"><a xlink:href="app_8c.html#af732b1ecf09ff688adde158c29714bcd" target="_top" xlink:title=" ">
<polygon fill="white" stroke="#666666" points="275.25,-115.75 207.5,-115.75 207.5,-95 275.25,-95 275.25,-115.75"/>
<text text-anchor="middle" x="241.38" y="-102.25" font-family="Helvetica,sans-Serif" font-size="10.00">w2c__f436</text>
</a>
</g>
</g>
<!-- Node2&#45;&gt;Node5 -->
<g id="edge4_Node000002_Node000005" class="edge">
<title>Node2&#45;&gt;Node5</title>
<g id="a_edge4_Node000002_Node000005"><a xlink:title=" ">
<path fill="none" stroke="#63b8ff" d="M171.94,-92.6C179.66,-94.04 188,-95.59 196.11,-97.11"/>
<polygon fill="#63b8ff" stroke="#63b8ff" points="195.37,-100.53 205.84,-98.93 196.66,-93.65 195.37,-100.53"/>
</a>
</g>
</g>
<!-- Node2&#45;&gt;Node6 -->
<g id="edge5_Node000002_Node000006" class="edge">
<title>Node2&#45;&gt;Node6</title>
<g id="a_edge5_Node000002_Node000006"><a xlink:title=" ">
<path fill="none" stroke="#63b8ff" d="M157.29,-75.55C172.63,-66.65 194.63,-53.9 212.13,-43.75"/>
<polygon fill="#63b8ff" stroke="#63b8ff" points="213.63,-46.93 220.52,-38.89 210.11,-40.88 213.63,-46.93"/>
</a>
</g>
</g>
<!-- Node8 -->
<g id="Node000008" class="node">
<title>Node8</title>
<g id="a_Node000008"><a xlink:href="app_8c.html#a6ed4d3a30c137f002c0294253d206acb" target="_top" xlink:title=" ">
<polygon fill="white" stroke="#666666" points="275.25,-76.75 207.5,-76.75 207.5,-56 275.25,-56 275.25,-76.75"/>
<text text-anchor="middle" x="241.38" y="-63.25" font-family="Helvetica,sans-Serif" font-size="10.00">w2c__f504</text>
</a>
</g>
</g>
<!-- Node2&#45;&gt;Node8 -->
<g id="edge7_Node000002_Node000008" class="edge">
<title>Node2&#45;&gt;Node8</title>
<g id="a_edge7_Node000002_Node000008"><a xlink:title=" ">
<path fill="none" stroke="#63b8ff" d="M171.94,-79.83C179.66,-78.31 188,-76.67 196.11,-75.08"/>
<polygon fill="#63b8ff" stroke="#63b8ff" points="196.71,-78.53 205.85,-73.16 195.36,-71.66 196.71,-78.53"/>
</a>
</g>
</g>
<!-- Node4 -->
<g id="Node000004" class="node">
<title>Node4</title>
<g id="a_Node000004"><a xlink:href="app_8c.html#a5d082dff6c4c25de25da9f4dc538c097" target="_top" xlink:title=" ">
<polygon fill="white" stroke="#666666" points="379,-154.75 311.25,-154.75 311.25,-134 379,-134 379,-154.75"/>
<text text-anchor="middle" x="345.12" y="-141.25" font-family="Helvetica,sans-Serif" font-size="10.00">w2c__f265</text>
</a>
</g>
</g>
<!-- Node3&#45;&gt;Node4 -->
<g id="edge3_Node000003_Node000004" class="edge">
<title>Node3&#45;&gt;Node4</title>
<g id="a_edge3_Node000003_Node000004"><a xlink:title=" ">
<path fill="none" stroke="#63b8ff" d="M275.69,-144.38C283.32,-144.38 291.56,-144.38 299.58,-144.38"/>
<polygon fill="#63b8ff" stroke="#63b8ff" points="299.57,-147.88 309.57,-144.38 299.57,-140.88 299.57,-147.88"/>
</a>
</g>
</g>
<!-- Node7 -->
<g id="Node000007" class="node">
<title>Node7</title>
<g id="a_Node000007"><a xlink:href="app_8c.html#a71bcbce7faf780cd081af3fa82d6da97" target="_top" xlink:title=" ">
<polygon fill="white" stroke="#666666" points="379,-37.75 311.25,-37.75 311.25,-17 379,-17 379,-37.75"/>
<text text-anchor="middle" x="345.12" y="-24.25" font-family="Helvetica,sans-Serif" font-size="10.00">w2c__f437</text>
</a>
</g>
</g>
<!-- Node6&#45;&gt;Node7 -->
<g id="edge6_Node000006_Node000007" class="edge">
<title>Node6&#45;&gt;Node7</title>
<g id="a_edge6_Node000006_Node000007"><a xlink:title=" ">
<path fill="none" stroke="#63b8ff" d="M275.69,-27.38C283.32,-27.38 291.56,-27.38 299.58,-27.38"/>
<polygon fill="#63b8ff" stroke="#63b8ff" points="299.57,-30.88 309.57,-27.38 299.57,-23.88 299.57,-30.88"/>
</a>
</g>
</g>
<!-- Node9 -->
<g id="Node000009" class="node">
<title>Node9</title>
<g id="a_Node000009"><a xlink:href="app_8c.html#a0e0dad0ebc52e45eeff2e1b5d8389ea4" target="_top" xlink:title=" ">
<polygon fill="white" stroke="#666666" points="379,-115.75 311.25,-115.75 311.25,-95 379,-95 379,-115.75"/>
<text text-anchor="middle" x="345.12" y="-102.25" font-family="Helvetica,sans-Serif" font-size="10.00">w2c__f534</text>
</a>
</g>
</g>
<!-- Node8&#45;&gt;Node9 -->
<g id="edge8_Node000008_Node000009" class="edge">
<title>Node8&#45;&gt;Node9</title>
<g id="a_edge8_Node000008_Node000009"><a xlink:title=" ">
<path fill="none" stroke="#63b8ff" d="M270.72,-77.24C281.41,-81.34 293.77,-86.08 305.26,-90.48"/>
<polygon fill="#63b8ff" stroke="#63b8ff" points="303.93,-93.72 314.52,-94.03 306.44,-87.18 303.93,-93.72"/>
</a>
</g>
</g>
<!-- Node10 -->
<g id="Node000010" class="node">
<title>Node10</title>
<g id="a_Node000010"><a xlink:href="app_8c.html#a1b33810b824b3b37999b55db2c1fb45d" target="_top" xlink:title=" ">
<polygon fill="white" stroke="#666666" points="379,-76.75 311.25,-76.75 311.25,-56 379,-56 379,-76.75"/>
<text text-anchor="middle" x="345.12" y="-63.25" font-family="Helvetica,sans-Serif" font-size="10.00">w2c__f555</text>
</a>
</g>
</g>
<!-- Node8&#45;&gt;Node10 -->
<g id="edge9_Node000008_Node000010" class="edge">
<title>Node8&#45;&gt;Node10</title>
<g id="a_edge9_Node000008_Node000010"><a xlink:title=" ">
<path fill="none" stroke="#63b8ff" d="M275.69,-66.38C283.32,-66.38 291.56,-66.38 299.58,-66.38"/>
<polygon fill="#63b8ff" stroke="#63b8ff" points="299.57,-69.88 309.57,-66.38 299.57,-62.88 299.57,-69.88"/>
</a>
</g>
</g>
</g>
</svg>
