<?xml version="1.0" encoding="UTF-8" standalone="no"?>
<!DOCTYPE svg PUBLIC "-//W3C//DTD SVG 1.1//EN"
 "http://www.w3.org/Graphics/SVG/1.1/DTD/svg11.dtd">
<!-- Generated by graphviz version 12.2.1 (0)
 -->
<!-- Title: w2c__f443 Pages: 1 -->
<svg width="389pt" height="321pt"
 viewBox="0.00 0.00 389.25 320.75" xmlns="http://www.w3.org/2000/svg" xmlns:xlink="http://www.w3.org/1999/xlink">
<g id="graph0" class="graph" transform="scale(1 1) rotate(0) translate(4 316.75)">
<title>w2c__f443</title>
<!-- Node1 -->
<g id="Node000001" class="node">
<title>Node1</title>
<g id="a_Node000001"><a xlink:title=" ">
<polygon fill="#999999" stroke="#666666" points="67.75,-175.75 0,-175.75 0,-155 67.75,-155 67.75,-175.75"/>
<text text-anchor="middle" x="33.88" y="-162.25" font-family="Helvetica,sans-Serif" font-size="10.00">w2c__f443</text>
</a>
</g>
</g>
<!-- Node2 -->
<g id="Node000002" class="node">
<title>Node2</title>
<g id="a_Node000002"><a xlink:href="app_8c.html#aa5381be9490280e77162083460f33a76" target="_top" xlink:title=" ">
<polygon fill="white" stroke="#666666" points="171.5,-244.75 103.75,-244.75 103.75,-224 171.5,-224 171.5,-244.75"/>
<text text-anchor="middle" x="137.62" y="-231.25" font-family="Helvetica,sans-Serif" font-size="10.00">w2c__f300</text>
</a>
</g>
</g>
<!-- Node1&#45;&gt;Node2 -->
<g id="edge1_Node000001_Node000002" class="edge">
<title>Node1&#45;&gt;Node2</title>
<g id="a_edge1_Node000001_Node000002"><a xlink:title=" ">
<path fill="none" stroke="#63b8ff" d="M50.77,-176.16C66.98,-187.14 92.35,-204.35 111.32,-217.22"/>
<polygon fill="#63b8ff" stroke="#63b8ff" points="109.34,-220.1 119.59,-222.82 113.27,-214.31 109.34,-220.1"/>
</a>
</g>
</g>
<!-- Node6 -->
<g id="Node000006" class="node">
<title>Node6</title>
<g id="a_Node000006"><a xlink:href="app_8c.html#a76580148a28a8d1d2ffd080f9d3e70c6" target="_top" xlink:title=" ">
<polygon fill="white" stroke="#666666" points="171.5,-156.75 103.75,-156.75 103.75,-136 171.5,-136 171.5,-156.75"/>
<text text-anchor="middle" x="137.62" y="-143.25" font-family="Helvetica,sans-Serif" font-size="10.00">w2c__f400</text>
</a>
</g>
</g>
<!-- Node1&#45;&gt;Node6 -->
<g id="edge5_Node000001_Node000006" class="edge">
<title>Node1&#45;&gt;Node6</title>
<g id="a_edge5_Node000001_Node000006"><a xlink:title=" ">
<path fill="none" stroke="#63b8ff" d="M68.19,-159.15C75.91,-157.71 84.25,-156.16 92.36,-154.64"/>
<polygon fill="#63b8ff" stroke="#63b8ff" points="92.91,-158.1 102.09,-152.82 91.62,-151.22 92.91,-158.1"/>
</a>
</g>
</g>
<!-- Node3 -->
<g id="Node000003" class="node">
<title>Node3</title>
<g id="a_Node000003"><a xlink:href="app_8c.html#aaca5d5bcf49f2ca74019cf097750b9f3" target="_top" xlink:title=" ">
<polygon fill="white" stroke="#666666" points="276.38,-293.75 208.62,-293.75 208.62,-273 276.38,-273 276.38,-293.75"/>
<text text-anchor="middle" x="242.5" y="-280.25" font-family="Helvetica,sans-Serif" font-size="10.00">w2c__f258</text>
</a>
</g>
</g>
<!-- Node2&#45;&gt;Node3 -->
<g id="edge2_Node000002_Node000003" class="edge">
<title>Node2&#45;&gt;Node3</title>
<g id="a_edge2_Node000002_Node000003"><a xlink:title=" ">
<path fill="none" stroke="#63b8ff" d="M161.46,-245.25C175.31,-251.85 193.22,-260.38 208.58,-267.7"/>
<polygon fill="#63b8ff" stroke="#63b8ff" points="206.83,-270.74 217.37,-271.88 209.84,-264.42 206.83,-270.74"/>
</a>
</g>
</g>
<!-- Node4 -->
<g id="Node000004" class="node">
<title>Node4</title>
<g id="a_Node000004"><a xlink:href="app_8c.html#a8d9f347f9a643f0ebfb53c4f54578ac4" target="_top" xlink:title=" ">
<polygon fill="white" stroke="#666666" points="381.25,-312.75 313.5,-312.75 313.5,-292 381.25,-292 381.25,-312.75"/>
<text text-anchor="middle" x="347.38" y="-299.25" font-family="Helvetica,sans-Serif" font-size="10.00">w2c__f304</text>
</a>
</g>
</g>
<!-- Node3&#45;&gt;Node4 -->
<g id="edge3_Node000003_Node000004" class="edge">
<title>Node3&#45;&gt;Node4</title>
<g id="a_edge3_Node000003_Node000004"><a xlink:title=" ">
<path fill="none" stroke="#63b8ff" d="M276.62,-289.49C284.78,-291 293.66,-292.64 302.26,-294.23"/>
<polygon fill="#63b8ff" stroke="#63b8ff" points="301.36,-297.62 311.83,-296 302.63,-290.74 301.36,-297.62"/>
</a>
</g>
</g>
<!-- Node5 -->
<g id="Node000005" class="node">
<title>Node5</title>
<g id="a_Node000005"><a xlink:href="app_8c.html#a881f0b113e93dce3ff52d04b435850f6" target="_top" xlink:title=" ">
<polygon fill="white" stroke="#666666" points="381.25,-273.75 313.5,-273.75 313.5,-253 381.25,-253 381.25,-273.75"/>
<text text-anchor="middle" x="347.38" y="-260.25" font-family="Helvetica,sans-Serif" font-size="10.00">w2c__f491</text>
</a>
</g>
</g>
<!-- Node3&#45;&gt;Node5 -->
<g id="edge4_Node000003_Node000005" class="edge">
<title>Node3&#45;&gt;Node5</title>
<g id="a_edge4_Node000003_Node000005"><a xlink:title=" ">
<path fill="none" stroke="#63b8ff" d="M276.62,-276.94C284.78,-275.35 293.66,-273.62 302.26,-271.95"/>
<polygon fill="#63b8ff" stroke="#63b8ff" points="302.69,-275.43 311.83,-270.09 301.35,-268.56 302.69,-275.43"/>
</a>
</g>
</g>
<!-- Node7 -->
<g id="Node000007" class="node">
<title>Node7</title>
<g id="a_Node000007"><a xlink:href="app_8c.html#a073f670c8a950594dc8c2335dd28302c" target="_top" xlink:title=" ">
<polygon fill="white" stroke="#666666" points="277.5,-254.75 207.5,-254.75 207.5,-234 277.5,-234 277.5,-254.75"/>
<text text-anchor="middle" x="242.5" y="-241.25" font-family="Helvetica,sans-Serif" font-size="10.00">w2c_0_135</text>
</a>
</g>
</g>
<!-- Node6&#45;&gt;Node7 -->
<g id="edge6_Node000006_Node000007" class="edge">
<title>Node6&#45;&gt;Node7</title>
<g id="a_edge6_Node000006_Node000007"><a xlink:title=" ">
<path fill="none" stroke="#63b8ff" d="M146.4,-157.18C158.29,-173.19 182.27,-203.57 207.5,-224.38 208.75,-225.41 210.07,-226.42 211.42,-227.41"/>
<polygon fill="#63b8ff" stroke="#63b8ff" points="209.13,-230.1 219.4,-232.69 212.99,-224.26 209.13,-230.1"/>
</a>
</g>
</g>
<!-- Node8 -->
<g id="Node000008" class="node">
<title>Node8</title>
<g id="a_Node000008"><a xlink:href="app_8c.html#a93c0ec7301f5a783255282e3b8abb1b0" target="_top" xlink:title=" ">
<polygon fill="white" stroke="#666666" points="277.5,-215.75 207.5,-215.75 207.5,-195 277.5,-195 277.5,-215.75"/>
<text text-anchor="middle" x="242.5" y="-202.25" font-family="Helvetica,sans-Serif" font-size="10.00">w2c_0_162</text>
</a>
</g>
</g>
<!-- Node6&#45;&gt;Node8 -->
<g id="edge7_Node000006_Node000008" class="edge">
<title>Node6&#45;&gt;Node8</title>
<g id="a_edge7_Node000006_Node000008"><a xlink:title=" ">
<path fill="none" stroke="#63b8ff" d="M157.49,-157.2C173.01,-166.1 195.24,-178.85 212.94,-189"/>
<polygon fill="#63b8ff" stroke="#63b8ff" points="211.02,-191.93 221.44,-193.87 214.5,-185.86 211.02,-191.93"/>
</a>
</g>
</g>
<!-- Node9 -->
<g id="Node000009" class="node">
<title>Node9</title>
<g id="a_Node000009"><a xlink:href="app_8c.html#a3e4910ad59aba030ab7ae7a91004e951" target="_top" xlink:title=" ">
<polygon fill="white" stroke="#666666" points="271.5,-176.75 213.5,-176.75 213.5,-156 271.5,-156 271.5,-176.75"/>
<text text-anchor="middle" x="242.5" y="-163.25" font-family="Helvetica,sans-Serif" font-size="10.00">w2c_0_2</text>
</a>
</g>
</g>
<!-- Node6&#45;&gt;Node9 -->
<g id="edge8_Node000006_Node000009" class="edge">
<title>Node6&#45;&gt;Node9</title>
<g id="a_edge8_Node000006_Node000009"><a xlink:title=" ">
<path fill="none" stroke="#63b8ff" d="M171.74,-152.81C181.47,-154.7 192.21,-156.79 202.28,-158.75"/>
<polygon fill="#63b8ff" stroke="#63b8ff" points="201.31,-162.13 211.8,-160.6 202.65,-155.26 201.31,-162.13"/>
</a>
</g>
</g>
<!-- Node10 -->
<g id="Node000010" class="node">
<title>Node10</title>
<g id="a_Node000010"><a xlink:href="app_8c.html#a6c7819012b1ac398a370f2a55dfa0dcd" target="_top" xlink:title=" ">
<polygon fill="white" stroke="#666666" points="274.5,-137.75 210.5,-137.75 210.5,-117 274.5,-117 274.5,-137.75"/>
<text text-anchor="middle" x="242.5" y="-124.25" font-family="Helvetica,sans-Serif" font-size="10.00">w2c_0_33</text>
</a>
</g>
</g>
<!-- Node6&#45;&gt;Node10 -->
<g id="edge9_Node000006_Node000010" class="edge">
<title>Node6&#45;&gt;Node10</title>
<g id="a_edge9_Node000006_Node000010"><a xlink:title=" ">
<path fill="none" stroke="#63b8ff" d="M171.74,-140.26C180.41,-138.66 189.89,-136.91 198.98,-135.23"/>
<polygon fill="#63b8ff" stroke="#63b8ff" points="199.51,-138.69 208.71,-133.43 198.24,-131.81 199.51,-138.69"/>
</a>
</g>
</g>
<!-- Node11 -->
<g id="Node000011" class="node">
<title>Node11</title>
<g id="a_Node000011"><a xlink:href="app_8c.html#a89669d859b497acd4d687ede771c8589" target="_top" xlink:title=" ">
<polygon fill="white" stroke="#666666" points="274.5,-98.75 210.5,-98.75 210.5,-78 274.5,-78 274.5,-98.75"/>
<text text-anchor="middle" x="242.5" y="-85.25" font-family="Helvetica,sans-Serif" font-size="10.00">w2c_0_96</text>
</a>
</g>
</g>
<!-- Node6&#45;&gt;Node11 -->
<g id="edge10_Node000006_Node000011" class="edge">
<title>Node6&#45;&gt;Node11</title>
<g id="a_edge10_Node000006_Node000011"><a xlink:title=" ">
<path fill="none" stroke="#63b8ff" d="M157.49,-135.74C172.91,-127.04 194.97,-114.61 212.61,-104.66"/>
<polygon fill="#63b8ff" stroke="#63b8ff" points="214.09,-107.85 221.08,-99.89 210.65,-101.75 214.09,-107.85"/>
</a>
</g>
</g>
<!-- Node12 -->
<g id="Node000012" class="node">
<title>Node12</title>
<g id="a_Node000012"><a xlink:href="app_8c.html#a8d8a9f240d971fdd48e2227d3e26416d" target="_top" xlink:title=" ">
<polygon fill="white" stroke="#666666" points="276.38,-59.75 208.62,-59.75 208.62,-39 276.38,-39 276.38,-59.75"/>
<text text-anchor="middle" x="242.5" y="-46.25" font-family="Helvetica,sans-Serif" font-size="10.00">w2c__f283</text>
</a>
</g>
</g>
<!-- Node6&#45;&gt;Node12 -->
<g id="edge11_Node000006_Node000012" class="edge">
<title>Node6&#45;&gt;Node12</title>
<g id="a_edge11_Node000006_Node000012"><a xlink:title=" ">
<path fill="none" stroke="#63b8ff" d="M146.43,-135.72C158.36,-119.92 182.39,-89.95 207.5,-69.38 208.76,-68.34 210.08,-67.33 211.43,-66.35"/>
<polygon fill="#63b8ff" stroke="#63b8ff" points="213,-69.5 219.42,-61.07 209.14,-63.66 213,-69.5"/>
</a>
</g>
</g>
<!-- Node13 -->
<g id="Node000013" class="node">
<title>Node13</title>
<g id="a_Node000013"><a xlink:href="app_8c.html#a58d893dd6cf117aafb69550b2a0a0e6a" target="_top" xlink:title=" ">
<polygon fill="white" stroke="#666666" points="276.38,-20.75 208.62,-20.75 208.62,0 276.38,0 276.38,-20.75"/>
<text text-anchor="middle" x="242.5" y="-7.25" font-family="Helvetica,sans-Serif" font-size="10.00">wasm_ceil</text>
</a>
</g>
</g>
<!-- Node6&#45;&gt;Node13 -->
<g id="edge12_Node000006_Node000013" class="edge">
<title>Node6&#45;&gt;Node13</title>
<g id="a_edge12_Node000006_Node000013"><a xlink:title=" ">
<path fill="none" stroke="#63b8ff" d="M142.84,-135.58C151.88,-113.56 174.97,-62.77 207.5,-30.38 208.37,-29.51 209.29,-28.66 210.25,-27.84"/>
<polygon fill="#63b8ff" stroke="#63b8ff" points="212.22,-30.73 218.25,-22.02 208.1,-25.07 212.22,-30.73"/>
</a>
</g>
</g>
<!-- Node14 -->
<g id="Node000014" class="node">
<title>Node14</title>
<g id="a_Node000014"><a xlink:href="app_8c.html#ae10979e670e507d4373e8cadcb3169aa" target="_top" xlink:title=" ">
<polygon fill="white" stroke="#666666" points="379.38,-20.75 315.38,-20.75 315.38,0 379.38,0 379.38,-20.75"/>
<text text-anchor="middle" x="347.38" y="-7.25" font-family="Helvetica,sans-Serif" font-size="10.00">quiet_nan</text>
</a>
</g>
</g>
<!-- Node13&#45;&gt;Node14 -->
<g id="edge13_Node000013_Node000014" class="edge">
<title>Node13&#45;&gt;Node14</title>
<g id="a_edge13_Node000013_Node000014"><a xlink:title=" ">
<path fill="none" stroke="#63b8ff" d="M276.62,-10.38C285.29,-10.38 294.76,-10.38 303.85,-10.38"/>
<polygon fill="#63b8ff" stroke="#63b8ff" points="303.56,-13.88 313.56,-10.38 303.56,-6.88 303.56,-13.88"/>
</a>
</g>
</g>
</g>
</svg>
