<?xml version="1.0" encoding="UTF-8" standalone="no"?>
<!DOCTYPE svg PUBLIC "-//W3C//DTD SVG 1.1//EN"
 "http://www.w3.org/Graphics/SVG/1.1/DTD/svg11.dtd">
<!-- Generated by graphviz version 12.2.1 (0)
 -->
<!-- Title: w2c__f274 Pages: 1 -->
<svg width="393pt" height="341pt"
 viewBox="0.00 0.00 393.00 340.75" xmlns="http://www.w3.org/2000/svg" xmlns:xlink="http://www.w3.org/1999/xlink">
<g id="graph0" class="graph" transform="scale(1 1) rotate(0) translate(4 336.75)">
<title>w2c__f274</title>
<!-- Node1 -->
<g id="Node000001" class="node">
<title>Node1</title>
<g id="a_Node000001"><a xlink:title=" ">
<polygon fill="#999999" stroke="#666666" points="67.75,-156.75 0,-156.75 0,-136 67.75,-136 67.75,-156.75"/>
<text text-anchor="middle" x="33.88" y="-143.25" font-family="Helvetica,sans-Serif" font-size="10.00">w2c__f274</text>
</a>
</g>
</g>
<!-- Node2 -->
<g id="Node000002" class="node">
<title>Node2</title>
<g id="a_Node000002"><a xlink:href="app_8c.html#a918c90a4a3c46eadddbec5bb9396768f" target="_top" xlink:title=" ">
<polygon fill="white" stroke="#666666" points="175.25,-176.75 107.5,-176.75 107.5,-156 175.25,-156 175.25,-176.75"/>
<text text-anchor="middle" x="141.38" y="-163.25" font-family="Helvetica,sans-Serif" font-size="10.00">w2c__f281</text>
</a>
</g>
</g>
<!-- Node1&#45;&gt;Node2 -->
<g id="edge1_Node000001_Node000002" class="edge">
<title>Node1&#45;&gt;Node2</title>
<g id="a_edge1_Node000001_Node000002"><a xlink:title=" ">
<path fill="none" stroke="#63b8ff" d="M67.97,-152.65C76.82,-154.33 86.53,-156.17 95.88,-157.94"/>
<polygon fill="#63b8ff" stroke="#63b8ff" points="95.07,-161.35 105.55,-159.77 96.38,-154.47 95.07,-161.35"/>
</a>
</g>
</g>
<!-- Node12 -->
<g id="Node000012" class="node">
<title>Node12</title>
<g id="a_Node000012"><a xlink:href="app_8c.html#a2f4012f4e34b558b2956b16c6946cf98" target="_top" xlink:title=" ">
<polygon fill="white" stroke="#666666" points="175.25,-137.75 107.5,-137.75 107.5,-117 175.25,-117 175.25,-137.75"/>
<text text-anchor="middle" x="141.38" y="-124.25" font-family="Helvetica,sans-Serif" font-size="10.00">w2c__f466</text>
</a>
</g>
</g>
<!-- Node1&#45;&gt;Node12 -->
<g id="edge11_Node000001_Node000012" class="edge">
<title>Node1&#45;&gt;Node12</title>
<g id="a_edge11_Node000001_Node000012"><a xlink:title=" ">
<path fill="none" stroke="#63b8ff" d="M67.97,-140.42C76.82,-138.82 86.53,-137.07 95.88,-135.39"/>
<polygon fill="#63b8ff" stroke="#63b8ff" points="96.33,-138.86 105.55,-133.65 95.09,-131.97 96.33,-138.86"/>
</a>
</g>
</g>
<!-- Node13 -->
<g id="Node000013" class="node">
<title>Node13</title>
<g id="a_Node000013"><a xlink:href="app_8c.html#a784c7bcd456646f7617b48d827af12e3" target="_top" xlink:title=" ">
<polygon fill="white" stroke="#666666" points="175.25,-215.75 107.5,-215.75 107.5,-195 175.25,-195 175.25,-215.75"/>
<text text-anchor="middle" x="141.38" y="-202.25" font-family="Helvetica,sans-Serif" font-size="10.00">w2c__f473</text>
</a>
</g>
</g>
<!-- Node1&#45;&gt;Node13 -->
<g id="edge12_Node000001_Node000013" class="edge">
<title>Node1&#45;&gt;Node13</title>
<g id="a_edge12_Node000001_Node000013"><a xlink:title=" ">
<path fill="none" stroke="#63b8ff" d="M53.83,-157.21C67.64,-165.08 86.82,-175.96 103.75,-185.38 105.96,-186.61 108.25,-187.87 110.56,-189.14"/>
<polygon fill="#63b8ff" stroke="#63b8ff" points="108.8,-192.17 119.25,-193.91 112.16,-186.03 108.8,-192.17"/>
</a>
</g>
</g>
<!-- Node14 -->
<g id="Node000014" class="node">
<title>Node14</title>
<g id="a_Node000014"><a xlink:href="app_8c.html#abe22e959f965cb0fbcf5b83be18fbe1e" target="_top" xlink:title=" ">
<polygon fill="white" stroke="#666666" points="179,-59.75 103.75,-59.75 103.75,-39 179,-39 179,-59.75"/>
<text text-anchor="middle" x="141.38" y="-46.25" font-family="Helvetica,sans-Serif" font-size="10.00">wasm_quiet</text>
</a>
</g>
</g>
<!-- Node1&#45;&gt;Node14 -->
<g id="edge20_Node000001_Node000014" class="edge">
<title>Node1&#45;&gt;Node14</title>
<g id="a_edge20_Node000001_Node000014"><a xlink:title=" ">
<path fill="none" stroke="#63b8ff" d="M46.57,-135.62C64.39,-119.24 98.58,-87.8 120.39,-67.75"/>
<polygon fill="#63b8ff" stroke="#63b8ff" points="122.52,-70.54 127.52,-61.2 117.78,-65.39 122.52,-70.54"/>
</a>
</g>
</g>
<!-- Node3 -->
<g id="Node000003" class="node">
<title>Node3</title>
<g id="a_Node000003"><a xlink:href="app_8c.html#a13064ee1412a7f59da20bca1a8dd3ef4" target="_top" xlink:title=" ">
<polygon fill="white" stroke="#666666" points="282,-137.75 218,-137.75 218,-117 282,-117 282,-137.75"/>
<text text-anchor="middle" x="250" y="-124.25" font-family="Helvetica,sans-Serif" font-size="10.00">w2c_0_11</text>
</a>
</g>
</g>
<!-- Node2&#45;&gt;Node3 -->
<g id="edge2_Node000002_Node000003" class="edge">
<title>Node2&#45;&gt;Node3</title>
<g id="a_edge2_Node000002_Node000003"><a xlink:title=" ">
<path fill="none" stroke="#63b8ff" d="M172.08,-155.51C183.4,-151.37 196.5,-146.58 208.65,-142.13"/>
<polygon fill="#63b8ff" stroke="#63b8ff" points="209.85,-145.42 218.04,-138.7 207.44,-138.85 209.85,-145.42"/>
</a>
</g>
</g>
<!-- Node4 -->
<g id="Node000004" class="node">
<title>Node4</title>
<g id="a_Node000004"><a xlink:href="app_8c.html#a4c2b03b6dc55de401881aa3b953082c7" target="_top" xlink:title=" ">
<polygon fill="white" stroke="#666666" points="285,-98.75 215,-98.75 215,-78 285,-78 285,-98.75"/>
<text text-anchor="middle" x="250" y="-85.25" font-family="Helvetica,sans-Serif" font-size="10.00">w2c_0_124</text>
</a>
</g>
</g>
<!-- Node2&#45;&gt;Node4 -->
<g id="edge3_Node000002_Node000004" class="edge">
<title>Node2&#45;&gt;Node4</title>
<g id="a_edge3_Node000002_Node000004"><a xlink:title=" ">
<path fill="none" stroke="#63b8ff" d="M164.76,-155.6C169.64,-152.86 174.64,-149.73 179,-146.38 197.43,-132.18 196.79,-122.86 215,-108.38 216.31,-107.34 217.67,-106.31 219.07,-105.31"/>
<polygon fill="#63b8ff" stroke="#63b8ff" points="220.86,-108.32 227.34,-99.94 217.05,-102.46 220.86,-108.32"/>
</a>
</g>
</g>
<!-- Node5 -->
<g id="Node000005" class="node">
<title>Node5</title>
<g id="a_Node000005"><a xlink:href="app_8c.html#aaf609261891864e97643e3aba116599c" target="_top" xlink:title=" ">
<polygon fill="white" stroke="#666666" points="285,-332.75 215,-332.75 215,-312 285,-312 285,-332.75"/>
<text text-anchor="middle" x="250" y="-319.25" font-family="Helvetica,sans-Serif" font-size="10.00">w2c_0_147</text>
</a>
</g>
</g>
<!-- Node2&#45;&gt;Node5 -->
<g id="edge4_Node000002_Node000005" class="edge">
<title>Node2&#45;&gt;Node5</title>
<g id="a_edge4_Node000002_Node000005"><a xlink:title=" ">
<path fill="none" stroke="#63b8ff" d="M168.32,-177.2C172.31,-179.74 176.06,-182.79 179,-186.38 213.19,-228.15 181.48,-260.06 215,-302.38 215.53,-303.04 216.08,-303.69 216.66,-304.32"/>
<polygon fill="#63b8ff" stroke="#63b8ff" points="214.19,-306.81 224.09,-310.56 218.69,-301.45 214.19,-306.81"/>
</a>
</g>
</g>
<!-- Node6 -->
<g id="Node000006" class="node">
<title>Node6</title>
<g id="a_Node000006"><a xlink:href="app_8c.html#a0e3bf3a9dcdc8bd3fa73d1554ff70b35" target="_top" xlink:title=" ">
<polygon fill="white" stroke="#666666" points="285,-59.75 215,-59.75 215,-39 285,-39 285,-59.75"/>
<text text-anchor="middle" x="250" y="-46.25" font-family="Helvetica,sans-Serif" font-size="10.00">w2c_0_165</text>
</a>
</g>
</g>
<!-- Node2&#45;&gt;Node6 -->
<g id="edge5_Node000002_Node000006" class="edge">
<title>Node2&#45;&gt;Node6</title>
<g id="a_edge5_Node000002_Node000006"><a xlink:title=" ">
<path fill="none" stroke="#63b8ff" d="M167.16,-155.67C171.46,-153.06 175.63,-149.97 179,-146.38 204.87,-118.84 189.58,-97.32 215,-69.38 215.71,-68.6 216.45,-67.84 217.22,-67.11"/>
<polygon fill="#63b8ff" stroke="#63b8ff" points="219.36,-69.89 225.15,-61.01 215.09,-64.34 219.36,-69.89"/>
</a>
</g>
</g>
<!-- Node7 -->
<g id="Node000007" class="node">
<title>Node7</title>
<g id="a_Node000007"><a xlink:href="app_8c.html#acf1029cf408c02e92b9c8bd7417b3b85" target="_top" xlink:title=" ">
<polygon fill="white" stroke="#666666" points="285,-293.75 215,-293.75 215,-273 285,-273 285,-293.75"/>
<text text-anchor="middle" x="250" y="-280.25" font-family="Helvetica,sans-Serif" font-size="10.00">w2c_0_175</text>
</a>
</g>
</g>
<!-- Node2&#45;&gt;Node7 -->
<g id="edge6_Node000002_Node000007" class="edge">
<title>Node2&#45;&gt;Node7</title>
<g id="a_edge6_Node000002_Node000007"><a xlink:title=" ">
<path fill="none" stroke="#63b8ff" d="M167.16,-177.08C171.46,-179.69 175.63,-182.78 179,-186.38 204.87,-213.91 189.58,-235.43 215,-263.38 215.71,-264.15 216.45,-264.91 217.22,-265.64"/>
<polygon fill="#63b8ff" stroke="#63b8ff" points="215.09,-268.41 225.15,-271.74 219.36,-262.86 215.09,-268.41"/>
</a>
</g>
</g>
<!-- Node8 -->
<g id="Node000008" class="node">
<title>Node8</title>
<g id="a_Node000008"><a xlink:href="app_8c.html#a8bdad8d1b51ecba1b1abe0649c6d91f6" target="_top" xlink:title=" ">
<polygon fill="white" stroke="#666666" points="279,-254.75 221,-254.75 221,-234 279,-234 279,-254.75"/>
<text text-anchor="middle" x="250" y="-241.25" font-family="Helvetica,sans-Serif" font-size="10.00">w2c_0_6</text>
</a>
</g>
</g>
<!-- Node2&#45;&gt;Node8 -->
<g id="edge7_Node000002_Node000008" class="edge">
<title>Node2&#45;&gt;Node8</title>
<g id="a_edge7_Node000002_Node000008"><a xlink:title=" ">
<path fill="none" stroke="#63b8ff" d="M164.76,-177.15C169.64,-179.89 174.64,-183.02 179,-186.38 197.43,-200.57 196.79,-209.89 215,-224.38 216.31,-225.41 217.67,-226.44 219.07,-227.44"/>
<polygon fill="#63b8ff" stroke="#63b8ff" points="217.05,-230.29 227.34,-232.81 220.86,-224.43 217.05,-230.29"/>
</a>
</g>
</g>
<!-- Node9 -->
<g id="Node000009" class="node">
<title>Node9</title>
<g id="a_Node000009"><a xlink:href="app_8c.html#a25c288cbdae978304d4e0650fedfd720" target="_top" xlink:title=" ">
<polygon fill="white" stroke="#666666" points="282,-215.75 218,-215.75 218,-195 282,-195 282,-215.75"/>
<text text-anchor="middle" x="250" y="-202.25" font-family="Helvetica,sans-Serif" font-size="10.00">w2c_0_73</text>
</a>
</g>
</g>
<!-- Node2&#45;&gt;Node9 -->
<g id="edge8_Node000002_Node000009" class="edge">
<title>Node2&#45;&gt;Node9</title>
<g id="a_edge8_Node000002_Node000009"><a xlink:title=" ">
<path fill="none" stroke="#63b8ff" d="M172.08,-177.24C183.4,-181.38 196.5,-186.17 208.65,-190.62"/>
<polygon fill="#63b8ff" stroke="#63b8ff" points="207.44,-193.9 218.04,-194.05 209.85,-187.33 207.44,-193.9"/>
</a>
</g>
</g>
<!-- Node10 -->
<g id="Node000010" class="node">
<title>Node10</title>
<g id="a_Node000010"><a xlink:href="app_8c.html#aece0acc00c71c5c77a389889a51c4893" target="_top" xlink:title=" ">
<polygon fill="white" stroke="#666666" points="283.88,-176.75 216.12,-176.75 216.12,-156 283.88,-156 283.88,-176.75"/>
<text text-anchor="middle" x="250" y="-163.25" font-family="Helvetica,sans-Serif" font-size="10.00">w2c__f498</text>
</a>
</g>
</g>
<!-- Node2&#45;&gt;Node10 -->
<g id="edge9_Node000002_Node000010" class="edge">
<title>Node2&#45;&gt;Node10</title>
<g id="a_edge9_Node000002_Node000010"><a xlink:title=" ">
<path fill="none" stroke="#63b8ff" d="M175.53,-166.38C184.65,-166.38 194.71,-166.38 204.37,-166.38"/>
<polygon fill="#63b8ff" stroke="#63b8ff" points="204.35,-169.88 214.35,-166.38 204.35,-162.88 204.35,-169.88"/>
</a>
</g>
</g>
<!-- Node11 -->
<g id="Node000011" class="node">
<title>Node11</title>
<g id="a_Node000011"><a xlink:href="app_8c.html#accaa45efc0d12dcfdf98792250803ded" target="_top" xlink:title=" ">
<polygon fill="white" stroke="#666666" points="385,-176.75 321,-176.75 321,-156 385,-156 385,-176.75"/>
<text text-anchor="middle" x="353" y="-163.25" font-family="Helvetica,sans-Serif" font-size="10.00">w2c_0_15</text>
</a>
</g>
</g>
<!-- Node10&#45;&gt;Node11 -->
<g id="edge10_Node000010_Node000011" class="edge">
<title>Node10&#45;&gt;Node11</title>
<g id="a_edge10_Node000010_Node000011"><a xlink:title=" ">
<path fill="none" stroke="#63b8ff" d="M284.35,-166.38C292.32,-166.38 300.93,-166.38 309.26,-166.38"/>
<polygon fill="#63b8ff" stroke="#63b8ff" points="309.22,-169.88 319.22,-166.38 309.22,-162.88 309.22,-169.88"/>
</a>
</g>
</g>
<!-- Node13&#45;&gt;Node3 -->
<g id="edge13_Node000013_Node000003" class="edge">
<title>Node13&#45;&gt;Node3</title>
<g id="a_edge13_Node000013_Node000003"><a xlink:title=" ">
<path fill="none" stroke="#63b8ff" d="M164.76,-194.6C169.64,-191.86 174.64,-188.73 179,-185.38 197.43,-171.18 196.79,-161.86 215,-147.38 216.31,-146.34 217.67,-145.31 219.07,-144.31"/>
<polygon fill="#63b8ff" stroke="#63b8ff" points="220.86,-147.32 227.34,-138.94 217.05,-141.46 220.86,-147.32"/>
</a>
</g>
</g>
<!-- Node13&#45;&gt;Node4 -->
<g id="edge14_Node000013_Node000004" class="edge">
<title>Node13&#45;&gt;Node4</title>
<g id="a_edge14_Node000013_Node000004"><a xlink:title=" ">
<path fill="none" stroke="#63b8ff" d="M167.16,-194.67C171.46,-192.06 175.63,-188.97 179,-185.38 204.87,-157.84 189.58,-136.32 215,-108.38 215.71,-107.6 216.45,-106.84 217.22,-106.11"/>
<polygon fill="#63b8ff" stroke="#63b8ff" points="219.36,-108.89 225.15,-100.01 215.09,-103.34 219.36,-108.89"/>
</a>
</g>
</g>
<!-- Node13&#45;&gt;Node5 -->
<g id="edge15_Node000013_Node000005" class="edge">
<title>Node13&#45;&gt;Node5</title>
<g id="a_edge15_Node000013_Node000005"><a xlink:title=" ">
<path fill="none" stroke="#63b8ff" d="M148.43,-216.08C159.64,-235.2 185.21,-275.72 215,-302.38 216.06,-303.33 217.18,-304.25 218.33,-305.16"/>
<polygon fill="#63b8ff" stroke="#63b8ff" points="216.14,-307.9 226.36,-310.69 220.11,-302.13 216.14,-307.9"/>
</a>
</g>
</g>
<!-- Node13&#45;&gt;Node7 -->
<g id="edge16_Node000013_Node000007" class="edge">
<title>Node13&#45;&gt;Node7</title>
<g id="a_edge16_Node000013_Node000007"><a xlink:title=" ">
<path fill="none" stroke="#63b8ff" d="M154.81,-216.21C168.95,-228.31 192.94,-248.19 215,-263.38 216.59,-264.47 218.24,-265.57 219.92,-266.65"/>
<polygon fill="#63b8ff" stroke="#63b8ff" points="218,-269.58 228.35,-271.84 221.67,-263.61 218,-269.58"/>
</a>
</g>
</g>
<!-- Node13&#45;&gt;Node8 -->
<g id="edge17_Node000013_Node000008" class="edge">
<title>Node13&#45;&gt;Node8</title>
<g id="a_edge17_Node000013_Node000008"><a xlink:title=" ">
<path fill="none" stroke="#63b8ff" d="M172.08,-216.24C183.8,-220.53 197.43,-225.51 209.94,-230.09"/>
<polygon fill="#63b8ff" stroke="#63b8ff" points="208.54,-233.3 219.14,-233.45 210.95,-226.73 208.54,-233.3"/>
</a>
</g>
</g>
<!-- Node13&#45;&gt;Node9 -->
<g id="edge18_Node000013_Node000009" class="edge">
<title>Node13&#45;&gt;Node9</title>
<g id="a_edge18_Node000013_Node000009"><a xlink:title=" ">
<path fill="none" stroke="#63b8ff" d="M175.53,-205.38C185.3,-205.38 196.13,-205.38 206.41,-205.38"/>
<polygon fill="#63b8ff" stroke="#63b8ff" points="206.18,-208.88 216.18,-205.38 206.18,-201.88 206.18,-208.88"/>
</a>
</g>
</g>
<!-- Node13&#45;&gt;Node10 -->
<g id="edge19_Node000013_Node000010" class="edge">
<title>Node13&#45;&gt;Node10</title>
<g id="a_edge19_Node000013_Node000010"><a xlink:title=" ">
<path fill="none" stroke="#63b8ff" d="M172.08,-194.51C183.4,-190.37 196.5,-185.58 208.65,-181.13"/>
<polygon fill="#63b8ff" stroke="#63b8ff" points="209.85,-184.42 218.04,-177.7 207.44,-177.85 209.85,-184.42"/>
</a>
</g>
</g>
<!-- Node15 -->
<g id="Node000015" class="node">
<title>Node15</title>
<g id="a_Node000015"><a xlink:href="app_8c.html#ae10979e670e507d4373e8cadcb3169aa" target="_top" xlink:title=" ">
<polygon fill="white" stroke="#666666" points="282,-20.75 218,-20.75 218,0 282,0 282,-20.75"/>
<text text-anchor="middle" x="250" y="-7.25" font-family="Helvetica,sans-Serif" font-size="10.00">quiet_nan</text>
</a>
</g>
</g>
<!-- Node14&#45;&gt;Node15 -->
<g id="edge21_Node000014_Node000015" class="edge">
<title>Node14&#45;&gt;Node15</title>
<g id="a_edge21_Node000014_Node000015"><a xlink:title=" ">
<path fill="none" stroke="#63b8ff" d="M172.08,-38.51C183.4,-34.37 196.5,-29.58 208.65,-25.13"/>
<polygon fill="#63b8ff" stroke="#63b8ff" points="209.85,-28.42 218.04,-21.7 207.44,-21.85 209.85,-28.42"/>
</a>
</g>
</g>
</g>
</svg>
