<?xml version="1.0" encoding="UTF-8" standalone="no"?>
<!DOCTYPE svg PUBLIC "-//W3C//DTD SVG 1.1//EN"
 "http://www.w3.org/Graphics/SVG/1.1/DTD/svg11.dtd">
<!-- Generated by graphviz version 12.2.1 (0)
 -->
<!-- Title: w2c__f235 Pages: 1 -->
<svg width="562pt" height="262pt"
 viewBox="0.00 0.00 562.00 261.75" xmlns="http://www.w3.org/2000/svg" xmlns:xlink="http://www.w3.org/1999/xlink">
<g id="graph0" class="graph" transform="scale(1 1) rotate(0) translate(4 257.75)">
<title>w2c__f235</title>
<!-- Node1 -->
<g id="Node000001" class="node">
<title>Node1</title>
<g id="a_Node000001"><a xlink:title=" ">
<polygon fill="#999999" stroke="#666666" points="554,-137.75 486.25,-137.75 486.25,-117 554,-117 554,-137.75"/>
<text text-anchor="middle" x="520.12" y="-124.25" font-family="Helvetica,sans-Serif" font-size="10.00">w2c__f235</text>
</a>
</g>
</g>
<!-- Node2 -->
<g id="Node000002" class="node">
<title>Node2</title>
<g id="a_Node000002"><a xlink:href="app_8c.html#aabc3b06c7f7daa21796552c728f0379b" target="_top" xlink:title=" ">
<polygon fill="white" stroke="#666666" points="435.62,-253.75 367.88,-253.75 367.88,-233 435.62,-233 435.62,-253.75"/>
<text text-anchor="middle" x="401.75" y="-240.25" font-family="Helvetica,sans-Serif" font-size="10.00">w2c__f270</text>
</a>
</g>
</g>
<!-- Node1&#45;&gt;Node2 -->
<g id="edge1_Node000001_Node000002" class="edge">
<title>Node1&#45;&gt;Node2</title>
<g id="a_edge1_Node000001_Node000002"><a xlink:title=" ">
<path fill="none" stroke="#63b8ff" d="M508.42,-148.08C496.63,-169.18 475.88,-201.65 450.25,-222.38 445.34,-226.34 439.57,-229.71 433.76,-232.51"/>
<polygon fill="#63b8ff" stroke="#63b8ff" points="511.36,-150 513.03,-139.54 505.2,-146.68 511.36,-150"/>
</a>
</g>
</g>
<!-- Node4 -->
<g id="Node000004" class="node">
<title>Node4</title>
<g id="a_Node000004"><a xlink:href="app_8c.html#aa38341e31f5cac540c7c17e4eb6c41e4" target="_top" xlink:title=" ">
<polygon fill="white" stroke="#666666" points="435.62,-213.75 367.88,-213.75 367.88,-193 435.62,-193 435.62,-213.75"/>
<text text-anchor="middle" x="401.75" y="-200.25" font-family="Helvetica,sans-Serif" font-size="10.00">w2c__f361</text>
</a>
</g>
</g>
<!-- Node1&#45;&gt;Node4 -->
<g id="edge3_Node000001_Node000004" class="edge">
<title>Node1&#45;&gt;Node4</title>
<g id="a_edge3_Node000001_Node000004"><a xlink:title=" ">
<path fill="none" stroke="#63b8ff" d="M497.62,-145.19C484.38,-155.75 466.83,-169.05 450.25,-179.38 442.57,-184.16 433.8,-188.8 425.91,-192.71"/>
<polygon fill="#63b8ff" stroke="#63b8ff" points="499.67,-148.03 505.24,-139.02 495.27,-142.59 499.67,-148.03"/>
</a>
</g>
</g>
<!-- Node5 -->
<g id="Node000005" class="node">
<title>Node5</title>
<g id="a_Node000005"><a xlink:href="app_8c.html#a5677ffd129da8cd63b876545b8187d77" target="_top" xlink:title=" ">
<polygon fill="white" stroke="#666666" points="302.62,-175.75 234.88,-175.75 234.88,-155 302.62,-155 302.62,-175.75"/>
<text text-anchor="middle" x="268.75" y="-162.25" font-family="Helvetica,sans-Serif" font-size="10.00">w2c__f367</text>
</a>
</g>
</g>
<!-- Node1&#45;&gt;Node5 -->
<g id="edge9_Node000001_Node000005" class="edge">
<title>Node1&#45;&gt;Node5</title>
<g id="a_edge9_Node000001_Node000005"><a xlink:title=" ">
<path fill="none" stroke="#63b8ff" d="M474.92,-140.72C466.77,-142.85 458.29,-144.85 450.25,-146.38 399.32,-156.01 339.31,-161.11 302.92,-163.52"/>
<polygon fill="#63b8ff" stroke="#63b8ff" points="475.57,-144.17 484.29,-138.17 473.73,-137.42 475.57,-144.17"/>
</a>
</g>
</g>
<!-- Node10 -->
<g id="Node000010" class="node">
<title>Node10</title>
<g id="a_Node000010"><a xlink:href="app_8c.html#aa5aa96620823a66d02f16f4abcd5e0fe" target="_top" xlink:title=" ">
<polygon fill="white" stroke="#666666" points="435.62,-98.75 367.88,-98.75 367.88,-78 435.62,-78 435.62,-98.75"/>
<text text-anchor="middle" x="401.75" y="-85.25" font-family="Helvetica,sans-Serif" font-size="10.00">w2c__f371</text>
</a>
</g>
</g>
<!-- Node1&#45;&gt;Node10 -->
<g id="edge10_Node000001_Node000010" class="edge">
<title>Node1&#45;&gt;Node10</title>
<g id="a_edge10_Node000001_Node000010"><a xlink:title=" ">
<path fill="none" stroke="#63b8ff" d="M476.11,-112.96C462.51,-108.4 447.71,-103.44 434.99,-99.18"/>
<polygon fill="#63b8ff" stroke="#63b8ff" points="474.68,-116.17 485.27,-116.03 476.9,-109.53 474.68,-116.17"/>
</a>
</g>
</g>
<!-- Node12 -->
<g id="Node000012" class="node">
<title>Node12</title>
<g id="a_Node000012"><a xlink:href="app_8c.html#a83755b8cd21c3725397c6ca0d8dc1f28" target="_top" xlink:title=" ">
<polygon fill="white" stroke="#666666" points="435.62,-59.75 367.88,-59.75 367.88,-39 435.62,-39 435.62,-59.75"/>
<text text-anchor="middle" x="401.75" y="-46.25" font-family="Helvetica,sans-Serif" font-size="10.00">w2c__f471</text>
</a>
</g>
</g>
<!-- Node1&#45;&gt;Node12 -->
<g id="edge12_Node000001_Node000012" class="edge">
<title>Node1&#45;&gt;Node12</title>
<g id="a_edge12_Node000001_Node000012"><a xlink:title=" ">
<path fill="none" stroke="#63b8ff" d="M500.48,-108.98C487.26,-96.64 468.67,-80.65 450.25,-69.38 444.68,-65.97 438.42,-62.87 432.32,-60.2"/>
<polygon fill="#63b8ff" stroke="#63b8ff" points="497.96,-111.41 507.61,-115.79 502.79,-106.35 497.96,-111.41"/>
</a>
</g>
</g>
<!-- Node14 -->
<g id="Node000014" class="node">
<title>Node14</title>
<g id="a_Node000014"><a xlink:href="app_8c.html#a086861ef034e921d5879497d0d187145" target="_top" xlink:title=" ">
<polygon fill="white" stroke="#666666" points="435.62,-137.75 367.88,-137.75 367.88,-117 435.62,-117 435.62,-137.75"/>
<text text-anchor="middle" x="401.75" y="-124.25" font-family="Helvetica,sans-Serif" font-size="10.00">w2c__f472</text>
</a>
</g>
</g>
<!-- Node1&#45;&gt;Node14 -->
<g id="edge14_Node000001_Node000014" class="edge">
<title>Node1&#45;&gt;Node14</title>
<g id="a_edge14_Node000001_Node000014"><a xlink:title=" ">
<path fill="none" stroke="#63b8ff" d="M474.41,-127.38C461.68,-127.38 448.03,-127.38 436.1,-127.38"/>
<polygon fill="#63b8ff" stroke="#63b8ff" points="474.26,-130.88 484.26,-127.38 474.26,-123.88 474.26,-130.88"/>
</a>
</g>
</g>
<!-- Node16 -->
<g id="Node000016" class="node">
<title>Node16</title>
<g id="a_Node000016"><a xlink:href="app_8c.html#a13baa115943449fcf44d0233ad5e45fb" target="_top" xlink:title=" ">
<polygon fill="white" stroke="#666666" points="450.25,-20.75 353.25,-20.75 353.25,0 450.25,0 450.25,-20.75"/>
<text text-anchor="middle" x="401.75" y="-7.25" font-family="Helvetica,sans-Serif" font-size="10.00">wrap_w2c__f235</text>
</a>
</g>
</g>
<!-- Node1&#45;&gt;Node16 -->
<g id="edge17_Node000001_Node000016" class="edge">
<title>Node1&#45;&gt;Node16</title>
<g id="a_edge17_Node000001_Node000016"><a xlink:title=" ">
<path fill="none" stroke="#63b8ff" d="M508.78,-106.47C497.16,-84.86 476.46,-51.39 450.25,-30.38 445.78,-26.79 440.58,-23.75 435.29,-21.2"/>
<polygon fill="#63b8ff" stroke="#63b8ff" points="505.61,-107.95 513.31,-115.22 511.82,-104.73 505.61,-107.95"/>
</a>
</g>
</g>
<!-- Node3 -->
<g id="Node000003" class="node">
<title>Node3</title>
<g id="a_Node000003"><a xlink:href="app_8c.html#a54f194530158831aa826ddabfd869e3f" target="_top" xlink:title=" ">
<polygon fill="white" stroke="#666666" points="317.25,-253.75 220.25,-253.75 220.25,-233 317.25,-233 317.25,-253.75"/>
<text text-anchor="middle" x="268.75" y="-240.25" font-family="Helvetica,sans-Serif" font-size="10.00">wrap_w2c__f270</text>
</a>
</g>
</g>
<!-- Node2&#45;&gt;Node3 -->
<g id="edge2_Node000002_Node000003" class="edge">
<title>Node2&#45;&gt;Node3</title>
<g id="a_edge2_Node000002_Node000003"><a xlink:title=" ">
<path fill="none" stroke="#63b8ff" d="M356.2,-243.38C343.78,-243.38 330.25,-243.38 317.65,-243.38"/>
<polygon fill="#63b8ff" stroke="#63b8ff" points="356.18,-246.88 366.18,-243.38 356.18,-239.88 356.18,-246.88"/>
</a>
</g>
</g>
<!-- Node4&#45;&gt;Node5 -->
<g id="edge4_Node000004_Node000005" class="edge">
<title>Node4&#45;&gt;Node5</title>
<g id="a_edge4_Node000004_Node000005"><a xlink:title=" ">
<path fill="none" stroke="#63b8ff" d="M356.79,-190.62C339.15,-185.51 319.16,-179.71 302.8,-174.96"/>
<polygon fill="#63b8ff" stroke="#63b8ff" points="355.66,-193.94 366.24,-193.36 357.61,-187.22 355.66,-193.94"/>
</a>
</g>
</g>
<!-- Node9 -->
<g id="Node000009" class="node">
<title>Node9</title>
<g id="a_Node000009"><a xlink:href="app_8c.html#ad9bd81895f6c998d68691d9d0b136847" target="_top" xlink:title=" ">
<polygon fill="white" stroke="#666666" points="317.25,-214.75 220.25,-214.75 220.25,-194 317.25,-194 317.25,-214.75"/>
<text text-anchor="middle" x="268.75" y="-201.25" font-family="Helvetica,sans-Serif" font-size="10.00">wrap_w2c__f361</text>
</a>
</g>
</g>
<!-- Node4&#45;&gt;Node9 -->
<g id="edge8_Node000004_Node000009" class="edge">
<title>Node4&#45;&gt;Node9</title>
<g id="a_edge8_Node000004_Node000009"><a xlink:title=" ">
<path fill="none" stroke="#63b8ff" d="M356.2,-203.72C343.78,-203.81 330.25,-203.91 317.65,-204.01"/>
<polygon fill="#63b8ff" stroke="#63b8ff" points="356.21,-207.22 366.18,-203.64 356.15,-200.22 356.21,-207.22"/>
</a>
</g>
</g>
<!-- Node6 -->
<g id="Node000006" class="node">
<title>Node6</title>
<g id="a_Node000006"><a xlink:href="app_8c.html#ac863989691d4c389f80374209c220171" target="_top" xlink:title=" ">
<polygon fill="white" stroke="#666666" points="167,-194.75 104.5,-194.75 104.5,-174 167,-174 167,-194.75"/>
<text text-anchor="middle" x="135.75" y="-181.25" font-family="Helvetica,sans-Serif" font-size="10.00">w2c__c_0</text>
</a>
</g>
</g>
<!-- Node5&#45;&gt;Node6 -->
<g id="edge5_Node000005_Node000006" class="edge">
<title>Node5&#45;&gt;Node6</title>
<g id="a_edge5_Node000005_Node000006"><a xlink:title=" ">
<path fill="none" stroke="#63b8ff" d="M223.53,-171.79C204.97,-174.48 183.86,-177.54 167.1,-179.97"/>
<polygon fill="#63b8ff" stroke="#63b8ff" points="223.8,-175.29 233.2,-170.39 222.8,-168.36 223.8,-175.29"/>
</a>
</g>
</g>
<!-- Node8 -->
<g id="Node000008" class="node">
<title>Node8</title>
<g id="a_Node000008"><a xlink:href="app_8c.html#a8f64ccad6c506a1ca514ba4f43e5211c" target="_top" xlink:title=" ">
<polygon fill="white" stroke="#666666" points="184.25,-155.75 87.25,-155.75 87.25,-135 184.25,-135 184.25,-155.75"/>
<text text-anchor="middle" x="135.75" y="-142.25" font-family="Helvetica,sans-Serif" font-size="10.00">wrap_w2c__f367</text>
</a>
</g>
</g>
<!-- Node5&#45;&gt;Node8 -->
<g id="edge7_Node000005_Node000008" class="edge">
<title>Node5&#45;&gt;Node8</title>
<g id="a_edge7_Node000005_Node000008"><a xlink:title=" ">
<path fill="none" stroke="#63b8ff" d="M223.58,-158.63C211.06,-156.72 197.38,-154.63 184.65,-152.69"/>
<polygon fill="#63b8ff" stroke="#63b8ff" points="222.78,-162.05 233.2,-160.1 223.84,-155.13 222.78,-162.05"/>
</a>
</g>
</g>
<!-- Node7 -->
<g id="Node000007" class="node">
<title>Node7</title>
<g id="a_Node000007"><a xlink:href="app_8c.html#ab1e039392ea68017ab8a6063263b147d" target="_top" xlink:title=" ">
<polygon fill="white" stroke="#666666" points="51.25,-194.75 0,-194.75 0,-174 51.25,-174 51.25,-194.75"/>
<text text-anchor="middle" x="25.62" y="-181.25" font-family="Helvetica,sans-Serif" font-size="10.00">w2c__c</text>
</a>
</g>
</g>
<!-- Node6&#45;&gt;Node7 -->
<g id="edge6_Node000006_Node000007" class="edge">
<title>Node6&#45;&gt;Node7</title>
<g id="a_edge6_Node000006_Node000007"><a xlink:title=" ">
<path fill="none" stroke="#63b8ff" d="M92.72,-184.38C78.81,-184.38 63.78,-184.38 51.57,-184.38"/>
<polygon fill="#63b8ff" stroke="#63b8ff" points="92.54,-187.88 102.54,-184.38 92.54,-180.88 92.54,-187.88"/>
</a>
</g>
</g>
<!-- Node11 -->
<g id="Node000011" class="node">
<title>Node11</title>
<g id="a_Node000011"><a xlink:href="app_8c.html#a70f34b1bc2ae815ea8aa822e2de375d8" target="_top" xlink:title=" ">
<polygon fill="white" stroke="#666666" points="317.25,-97.75 220.25,-97.75 220.25,-77 317.25,-77 317.25,-97.75"/>
<text text-anchor="middle" x="268.75" y="-84.25" font-family="Helvetica,sans-Serif" font-size="10.00">wrap_w2c__f371</text>
</a>
</g>
</g>
<!-- Node10&#45;&gt;Node11 -->
<g id="edge11_Node000010_Node000011" class="edge">
<title>Node10&#45;&gt;Node11</title>
<g id="a_edge11_Node000010_Node000011"><a xlink:title=" ">
<path fill="none" stroke="#63b8ff" d="M356.2,-88.03C343.78,-87.94 330.25,-87.84 317.65,-87.74"/>
<polygon fill="#63b8ff" stroke="#63b8ff" points="356.15,-91.53 366.18,-88.11 356.21,-84.53 356.15,-91.53"/>
</a>
</g>
</g>
<!-- Node13 -->
<g id="Node000013" class="node">
<title>Node13</title>
<g id="a_Node000013"><a xlink:href="app_8c.html#a6b5632f950c10613ca99f4746ff29f36" target="_top" xlink:title=" ">
<polygon fill="white" stroke="#666666" points="317.25,-58.75 220.25,-58.75 220.25,-38 317.25,-38 317.25,-58.75"/>
<text text-anchor="middle" x="268.75" y="-45.25" font-family="Helvetica,sans-Serif" font-size="10.00">wrap_w2c__f471</text>
</a>
</g>
</g>
<!-- Node12&#45;&gt;Node13 -->
<g id="edge13_Node000012_Node000013" class="edge">
<title>Node12&#45;&gt;Node13</title>
<g id="a_edge13_Node000012_Node000013"><a xlink:title=" ">
<path fill="none" stroke="#63b8ff" d="M356.2,-49.03C343.78,-48.94 330.25,-48.84 317.65,-48.74"/>
<polygon fill="#63b8ff" stroke="#63b8ff" points="356.15,-52.53 366.18,-49.11 356.21,-45.53 356.15,-52.53"/>
</a>
</g>
</g>
<!-- Node14&#45;&gt;Node5 -->
<g id="edge15_Node000014_Node000005" class="edge">
<title>Node14&#45;&gt;Node5</title>
<g id="a_edge15_Node000014_Node000005"><a xlink:title=" ">
<path fill="none" stroke="#63b8ff" d="M356.79,-140.13C339.15,-145.24 319.16,-151.04 302.8,-155.79"/>
<polygon fill="#63b8ff" stroke="#63b8ff" points="357.61,-143.53 366.24,-137.39 355.66,-136.81 357.61,-143.53"/>
</a>
</g>
</g>
<!-- Node15 -->
<g id="Node000015" class="node">
<title>Node15</title>
<g id="a_Node000015"><a xlink:href="app_8c.html#a84f39d3ce392f762a1ef4ca04684ef84" target="_top" xlink:title=" ">
<polygon fill="white" stroke="#666666" points="317.25,-136.75 220.25,-136.75 220.25,-116 317.25,-116 317.25,-136.75"/>
<text text-anchor="middle" x="268.75" y="-123.25" font-family="Helvetica,sans-Serif" font-size="10.00">wrap_w2c__f472</text>
</a>
</g>
</g>
<!-- Node14&#45;&gt;Node15 -->
<g id="edge16_Node000014_Node000015" class="edge">
<title>Node14&#45;&gt;Node15</title>
<g id="a_edge16_Node000014_Node000015"><a xlink:title=" ">
<path fill="none" stroke="#63b8ff" d="M356.2,-127.03C343.78,-126.94 330.25,-126.84 317.65,-126.74"/>
<polygon fill="#63b8ff" stroke="#63b8ff" points="356.15,-130.53 366.18,-127.11 356.21,-123.53 356.15,-130.53"/>
</a>
</g>
</g>
</g>
</svg>
