<?xml version="1.0" encoding="UTF-8" standalone="no"?>
<!DOCTYPE svg PUBLIC "-//W3C//DTD SVG 1.1//EN"
 "http://www.w3.org/Graphics/SVG/1.1/DTD/svg11.dtd">
<!-- Generated by graphviz version 12.2.1 (0)
 -->
<!-- Title: w2c__f266 Pages: 1 -->
<svg width="678pt" height="404pt"
 viewBox="0.00 0.00 678.00 404.28" xmlns="http://www.w3.org/2000/svg" xmlns:xlink="http://www.w3.org/1999/xlink">
<g id="graph0" class="graph" transform="scale(1 1) rotate(0) translate(4 400.28)">
<title>w2c__f266</title>
<!-- Node1 -->
<g id="Node000001" class="node">
<title>Node1</title>
<g id="a_Node000001"><a xlink:title=" ">
<polygon fill="#999999" stroke="#666666" points="670,-183.28 602.25,-183.28 602.25,-162.53 670,-162.53 670,-183.28"/>
<text text-anchor="middle" x="636.12" y="-169.78" font-family="Helvetica,sans-Serif" font-size="10.00">w2c__f266</text>
</a>
</g>
</g>
<!-- Node2 -->
<g id="Node000002" class="node">
<title>Node2</title>
<g id="a_Node000002"><a xlink:href="app_8c.html#ab4735bfba578333c3aba0581e44f57f7" target="_top" xlink:title=" ">
<polygon fill="white" stroke="#666666" points="462.5,-87.28 394.75,-87.28 394.75,-66.53 462.5,-66.53 462.5,-87.28"/>
<text text-anchor="middle" x="428.62" y="-73.78" font-family="Helvetica,sans-Serif" font-size="10.00">w2c__f197</text>
</a>
</g>
</g>
<!-- Node1&#45;&gt;Node2 -->
<g id="edge1_Node000001_Node000002" class="edge">
<title>Node1&#45;&gt;Node2</title>
<g id="a_edge1_Node000001_Node000002"><a xlink:title=" ">
<path fill="none" stroke="#63b8ff" d="M590.97,-165.63C563.29,-159.87 527.49,-150.21 498.5,-134.91 474.72,-122.36 451.8,-100.49 439.32,-87.49"/>
<polygon fill="#63b8ff" stroke="#63b8ff" points="589.93,-168.99 600.42,-167.49 591.29,-162.12 589.93,-168.99"/>
</a>
</g>
</g>
<!-- Node3 -->
<g id="Node000003" class="node">
<title>Node3</title>
<g id="a_Node000003"><a xlink:href="app_8c.html#ac6e5d2c212d98987ebac3fdf431f3d72" target="_top" xlink:title=" ">
<polygon fill="white" stroke="#666666" points="566.25,-357.28 498.5,-357.28 498.5,-336.53 566.25,-336.53 566.25,-357.28"/>
<text text-anchor="middle" x="532.38" y="-343.78" font-family="Helvetica,sans-Serif" font-size="10.00">w2c__f203</text>
</a>
</g>
</g>
<!-- Node1&#45;&gt;Node3 -->
<g id="edge2_Node000001_Node000003" class="edge">
<title>Node1&#45;&gt;Node3</title>
<g id="a_edge2_Node000001_Node000003"><a xlink:title=" ">
<path fill="none" stroke="#63b8ff" d="M626.27,-193.79C614.32,-221.04 591.59,-269.74 566.25,-307.91 559.49,-318.09 550.47,-328.63 543.58,-336.18"/>
<polygon fill="#63b8ff" stroke="#63b8ff" points="629.36,-195.48 630.11,-184.91 622.93,-192.7 629.36,-195.48"/>
</a>
</g>
</g>
<!-- Node4 -->
<g id="Node000004" class="node">
<title>Node4</title>
<g id="a_Node000004"><a xlink:href="app_8c.html#a0b804502e637fa2897681579fae890af" target="_top" xlink:title=" ">
<polygon fill="white" stroke="#666666" points="462.5,-396.28 394.75,-396.28 394.75,-375.53 462.5,-375.53 462.5,-396.28"/>
<text text-anchor="middle" x="428.62" y="-382.78" font-family="Helvetica,sans-Serif" font-size="10.00">w2c__f233</text>
</a>
</g>
</g>
<!-- Node1&#45;&gt;Node4 -->
<g id="edge5_Node000001_Node000004" class="edge">
<title>Node1&#45;&gt;Node4</title>
<g id="a_edge5_Node000001_Node000004"><a xlink:title=" ">
<path fill="none" stroke="#63b8ff" d="M634.28,-194.82C631.43,-235.51 619.13,-322.56 566.25,-365.91 537.42,-389.54 493.21,-391.84 462.93,-390.01"/>
<polygon fill="#63b8ff" stroke="#63b8ff" points="637.77,-195.04 634.83,-184.86 630.78,-194.65 637.77,-195.04"/>
</a>
</g>
</g>
<!-- Node6 -->
<g id="Node000006" class="node">
<title>Node6</title>
<g id="a_Node000006"><a xlink:href="app_8c.html#a90ec7ae13f3de86954f29a59729097ff" target="_top" xlink:title=" ">
<polygon fill="white" stroke="#666666" points="566.25,-241.28 498.5,-241.28 498.5,-220.53 566.25,-220.53 566.25,-241.28"/>
<text text-anchor="middle" x="532.38" y="-227.78" font-family="Helvetica,sans-Serif" font-size="10.00">w2c__f308</text>
</a>
</g>
</g>
<!-- Node1&#45;&gt;Node6 -->
<g id="edge6_Node000001_Node000006" class="edge">
<title>Node1&#45;&gt;Node6</title>
<g id="a_edge6_Node000001_Node000006"><a xlink:title=" ">
<path fill="none" stroke="#63b8ff" d="M606.81,-189.05C589.4,-198.97 567.58,-211.41 552.26,-220.14"/>
<polygon fill="#63b8ff" stroke="#63b8ff" points="608.19,-192.29 615.15,-184.3 604.73,-186.21 608.19,-192.29"/>
</a>
</g>
</g>
<!-- Node9 -->
<g id="Node000009" class="node">
<title>Node9</title>
<g id="a_Node000009"><a xlink:href="app_8c.html#aac449994afd8488e2efd16fb19f0ecb1" target="_top" xlink:title=" ">
<polygon fill="white" stroke="#666666" points="358.75,-144.28 291,-144.28 291,-123.53 358.75,-123.53 358.75,-144.28"/>
<text text-anchor="middle" x="324.88" y="-130.78" font-family="Helvetica,sans-Serif" font-size="10.00">w2c__f336</text>
</a>
</g>
</g>
<!-- Node1&#45;&gt;Node9 -->
<g id="edge16_Node000001_Node000009" class="edge">
<title>Node1&#45;&gt;Node9</title>
<g id="a_edge16_Node000001_Node000009"><a xlink:title=" ">
<path fill="none" stroke="#63b8ff" d="M632.68,-150.89C627.48,-115.86 611.78,-48.42 566.25,-18.91 500.66,23.61 459.39,-13.96 394.75,-57.91 367.95,-76.13 344.44,-106.86 333.09,-123.1"/>
<polygon fill="#63b8ff" stroke="#63b8ff" points="629.2,-151.23 633.96,-160.69 636.14,-150.32 629.2,-151.23"/>
</a>
</g>
</g>
<!-- Node16 -->
<g id="Node000016" class="node">
<title>Node16</title>
<g id="a_Node000016"><a xlink:href="app_8c.html#a044129625d51f33771ec484a5580c8dd" target="_top" xlink:title=" ">
<polygon fill="white" stroke="#666666" points="566.25,-299.28 498.5,-299.28 498.5,-278.53 566.25,-278.53 566.25,-299.28"/>
<text text-anchor="middle" x="532.38" y="-285.78" font-family="Helvetica,sans-Serif" font-size="10.00">w2c__f407</text>
</a>
</g>
</g>
<!-- Node1&#45;&gt;Node16 -->
<g id="edge17_Node000001_Node000016" class="edge">
<title>Node1&#45;&gt;Node16</title>
<g id="a_edge17_Node000001_Node000016"><a xlink:title=" ">
<path fill="none" stroke="#63b8ff" d="M618.26,-192.13C596.65,-216.78 559.91,-258.65 542.74,-278.23"/>
<polygon fill="#63b8ff" stroke="#63b8ff" points="620.77,-194.58 624.74,-184.75 615.51,-189.96 620.77,-194.58"/>
</a>
</g>
</g>
<!-- Node18 -->
<g id="Node000018" class="node">
<title>Node18</title>
<g id="a_Node000018"><a xlink:href="app_8c.html#a304b9f5409ab6ef5b124d1468ae34cc9" target="_top" xlink:title=" ">
<polygon fill="white" stroke="#666666" points="566.25,-126.28 498.5,-126.28 498.5,-105.53 566.25,-105.53 566.25,-126.28"/>
<text text-anchor="middle" x="532.38" y="-112.78" font-family="Helvetica,sans-Serif" font-size="10.00">w2c__f427</text>
</a>
</g>
</g>
<!-- Node1&#45;&gt;Node18 -->
<g id="edge20_Node000001_Node000018" class="edge">
<title>Node1&#45;&gt;Node18</title>
<g id="a_edge20_Node000001_Node000018"><a xlink:title=" ">
<path fill="none" stroke="#63b8ff" d="M605.97,-156.57C588.9,-147.01 567.81,-135.2 552.77,-126.78"/>
<polygon fill="#63b8ff" stroke="#63b8ff" points="604.23,-159.61 614.67,-161.45 607.65,-153.51 604.23,-159.61"/>
</a>
</g>
</g>
<!-- Node19 -->
<g id="Node000019" class="node">
<title>Node19</title>
<g id="a_Node000019"><a xlink:href="app_8c.html#ad1851b870b2d09060972df5f1d98f5d3" target="_top" xlink:title=" ">
<polygon fill="white" stroke="#666666" points="566.25,-202.28 498.5,-202.28 498.5,-181.53 566.25,-181.53 566.25,-202.28"/>
<text text-anchor="middle" x="532.38" y="-188.78" font-family="Helvetica,sans-Serif" font-size="10.00">w2c__f506</text>
</a>
</g>
</g>
<!-- Node1&#45;&gt;Node19 -->
<g id="edge21_Node000001_Node000019" class="edge">
<title>Node1&#45;&gt;Node19</title>
<g id="a_edge21_Node000001_Node000019"><a xlink:title=" ">
<path fill="none" stroke="#63b8ff" d="M590.57,-181.23C582.46,-182.74 574.13,-184.3 566.42,-185.74"/>
<polygon fill="#63b8ff" stroke="#63b8ff" points="591.13,-184.68 600.32,-179.41 589.85,-177.8 591.13,-184.68"/>
</a>
</g>
</g>
<!-- Node20 -->
<g id="Node000020" class="node">
<title>Node20</title>
<g id="a_Node000020"><a xlink:href="app_8c.html#a00cdd89c8d82f3858c131e3165e128e5" target="_top" xlink:title=" ">
<polygon fill="white" stroke="#666666" points="566.25,-48.28 498.5,-48.28 498.5,-27.53 566.25,-27.53 566.25,-48.28"/>
<text text-anchor="middle" x="532.38" y="-34.78" font-family="Helvetica,sans-Serif" font-size="10.00">w2c__f527</text>
</a>
</g>
</g>
<!-- Node1&#45;&gt;Node20 -->
<g id="edge23_Node000001_Node000020" class="edge">
<title>Node1&#45;&gt;Node20</title>
<g id="a_edge23_Node000001_Node000020"><a xlink:title=" ">
<path fill="none" stroke="#63b8ff" d="M626.31,-151.85C615.15,-127.09 594,-85.85 566.25,-57.91 562.86,-54.5 558.78,-51.42 554.66,-48.76"/>
<polygon fill="#63b8ff" stroke="#63b8ff" points="623.04,-153.1 630.24,-160.86 629.45,-150.3 623.04,-153.1"/>
</a>
</g>
</g>
<!-- Node21 -->
<g id="Node000021" class="node">
<title>Node21</title>
<g id="a_Node000021"><a xlink:href="app_8c.html#abcdc5a03717efe70e368a02cdd0d9f93" target="_top" xlink:title=" ">
<polygon fill="white" stroke="#666666" points="566.25,-87.28 498.5,-87.28 498.5,-66.53 566.25,-66.53 566.25,-87.28"/>
<text text-anchor="middle" x="532.38" y="-73.78" font-family="Helvetica,sans-Serif" font-size="10.00">w2c__f537</text>
</a>
</g>
</g>
<!-- Node1&#45;&gt;Node21 -->
<g id="edge24_Node000001_Node000021" class="edge">
<title>Node1&#45;&gt;Node21</title>
<g id="a_edge24_Node000001_Node000021"><a xlink:title=" ">
<path fill="none" stroke="#63b8ff" d="M620.19,-153.51C607.07,-137.24 586.9,-113.97 566.25,-96.91 562.23,-93.59 557.61,-90.44 553.13,-87.66"/>
<polygon fill="#63b8ff" stroke="#63b8ff" points="617.17,-155.33 626.11,-161 622.66,-150.99 617.17,-155.33"/>
</a>
</g>
</g>
<!-- Node3&#45;&gt;Node4 -->
<g id="edge3_Node000003_Node000004" class="edge">
<title>Node3&#45;&gt;Node4</title>
<g id="a_edge3_Node000003_Node000004"><a xlink:title=" ">
<path fill="none" stroke="#63b8ff" d="M492.35,-361.87C480.85,-366.27 468.49,-371.01 457.82,-375.1"/>
<polygon fill="#63b8ff" stroke="#63b8ff" points="493.53,-365.16 501.62,-358.31 491.03,-358.63 493.53,-365.16"/>
</a>
</g>
</g>
<!-- Node5 -->
<g id="Node000005" class="node">
<title>Node5</title>
<g id="a_Node000005"><a xlink:href="app_8c.html#a13a282f739b6944dad1977039f3fadde" target="_top" xlink:title=" ">
<polygon fill="white" stroke="#666666" points="462.5,-357.28 394.75,-357.28 394.75,-336.53 462.5,-336.53 462.5,-357.28"/>
<text text-anchor="middle" x="428.62" y="-343.78" font-family="Helvetica,sans-Serif" font-size="10.00">w2c__f420</text>
</a>
</g>
</g>
<!-- Node3&#45;&gt;Node5 -->
<g id="edge4_Node000003_Node000005" class="edge">
<title>Node3&#45;&gt;Node5</title>
<g id="a_edge4_Node000003_Node000005"><a xlink:title=" ">
<path fill="none" stroke="#63b8ff" d="M486.82,-346.91C478.71,-346.91 470.38,-346.91 462.67,-346.91"/>
<polygon fill="#63b8ff" stroke="#63b8ff" points="486.54,-350.41 496.54,-346.91 486.54,-343.41 486.54,-350.41"/>
</a>
</g>
</g>
<!-- Node7 -->
<g id="Node000007" class="node">
<title>Node7</title>
<g id="a_Node000007"><a xlink:href="app_8c.html#a5e6d37c539a2e51904358f57d24ae63c" target="_top" xlink:title=" ">
<polygon fill="white" stroke="#666666" points="462.5,-240.28 394.75,-240.28 394.75,-219.53 462.5,-219.53 462.5,-240.28"/>
<text text-anchor="middle" x="428.62" y="-226.78" font-family="Helvetica,sans-Serif" font-size="10.00">w2c__f207</text>
</a>
</g>
</g>
<!-- Node6&#45;&gt;Node7 -->
<g id="edge7_Node000006_Node000007" class="edge">
<title>Node6&#45;&gt;Node7</title>
<g id="a_edge7_Node000006_Node000007"><a xlink:title=" ">
<path fill="none" stroke="#63b8ff" d="M486.82,-230.47C478.71,-230.39 470.38,-230.31 462.67,-230.23"/>
<polygon fill="#63b8ff" stroke="#63b8ff" points="486.51,-233.97 496.54,-230.57 486.58,-226.97 486.51,-233.97"/>
</a>
</g>
</g>
<!-- Node8 -->
<g id="Node000008" class="node">
<title>Node8</title>
<g id="a_Node000008"><a xlink:href="app_8c.html#ad6ca5e0c47ccb4e49eb279d54c79b6ae" target="_top" xlink:title=" ">
<polygon fill="white" stroke="#666666" points="462.5,-201.28 394.75,-201.28 394.75,-180.53 462.5,-180.53 462.5,-201.28"/>
<text text-anchor="middle" x="428.62" y="-187.78" font-family="Helvetica,sans-Serif" font-size="10.00">w2c__f261</text>
</a>
</g>
</g>
<!-- Node6&#45;&gt;Node8 -->
<g id="edge8_Node000006_Node000008" class="edge">
<title>Node6&#45;&gt;Node8</title>
<g id="a_edge8_Node000006_Node000008"><a xlink:title=" ">
<path fill="none" stroke="#63b8ff" d="M493.21,-215.91C481.24,-211.2 468.27,-206.1 457.18,-201.74"/>
<polygon fill="#63b8ff" stroke="#63b8ff" points="491.84,-219.13 502.43,-219.53 494.41,-212.61 491.84,-219.13"/>
</a>
</g>
</g>
<!-- Node6&#45;&gt;Node9 -->
<g id="edge9_Node000006_Node000009" class="edge">
<title>Node6&#45;&gt;Node9</title>
<g id="a_edge9_Node000006_Node000009"><a xlink:title=" ">
<path fill="none" stroke="#63b8ff" d="M502.43,-213.95C501.08,-212.96 499.76,-211.94 498.5,-210.91 480.25,-195.97 482.63,-184.2 462.5,-171.91 430.46,-152.34 388.11,-142.6 359.1,-137.92"/>
<polygon fill="#63b8ff" stroke="#63b8ff" points="500.13,-216.62 510.39,-219.29 504.04,-210.81 500.13,-216.62"/>
</a>
</g>
</g>
<!-- Node15 -->
<g id="Node000015" class="node">
<title>Node15</title>
<g id="a_Node000015"><a xlink:href="app_8c.html#a268eebcea573fce720709e588959d401" target="_top" xlink:title=" ">
<polygon fill="white" stroke="#666666" points="462.5,-279.28 394.75,-279.28 394.75,-258.53 462.5,-258.53 462.5,-279.28"/>
<text text-anchor="middle" x="428.62" y="-265.78" font-family="Helvetica,sans-Serif" font-size="10.00">w2c__f568</text>
</a>
</g>
</g>
<!-- Node6&#45;&gt;Node15 -->
<g id="edge15_Node000006_Node000015" class="edge">
<title>Node6&#45;&gt;Node15</title>
<g id="a_edge15_Node000006_Node000015"><a xlink:title=" ">
<path fill="none" stroke="#63b8ff" d="M491.76,-245.7C480.71,-249.83 468.9,-254.24 458.58,-258.09"/>
<polygon fill="#63b8ff" stroke="#63b8ff" points="492.93,-249 501.07,-242.23 490.48,-242.45 492.93,-249"/>
</a>
</g>
</g>
<!-- Node10 -->
<g id="Node000010" class="node">
<title>Node10</title>
<g id="a_Node000010"><a xlink:href="app_8c.html#ac863989691d4c389f80374209c220171" target="_top" xlink:title=" ">
<polygon fill="white" stroke="#666666" points="252.38,-164.28 189.88,-164.28 189.88,-143.53 252.38,-143.53 252.38,-164.28"/>
<text text-anchor="middle" x="221.12" y="-150.78" font-family="Helvetica,sans-Serif" font-size="10.00">w2c__c_0</text>
</a>
</g>
</g>
<!-- Node9&#45;&gt;Node10 -->
<g id="edge10_Node000009_Node000010" class="edge">
<title>Node9&#45;&gt;Node10</title>
<g id="a_edge10_Node000009_Node000010"><a xlink:title=" ">
<path fill="none" stroke="#63b8ff" d="M279.4,-142.65C270.41,-144.42 261.15,-146.24 252.76,-147.89"/>
<polygon fill="#63b8ff" stroke="#63b8ff" points="279.94,-146.11 289.07,-140.75 278.59,-139.24 279.94,-146.11"/>
</a>
</g>
</g>
<!-- Node12 -->
<g id="Node000012" class="node">
<title>Node12</title>
<g id="a_Node000012"><a xlink:href="app_8c.html#a8f312e54d76623b1ae169d5d19736ee0" target="_top" xlink:title=" ">
<polygon fill="white" stroke="#666666" points="255,-125.28 187.25,-125.28 187.25,-104.53 255,-104.53 255,-125.28"/>
<text text-anchor="middle" x="221.12" y="-111.78" font-family="Helvetica,sans-Serif" font-size="10.00">w2c__f363</text>
</a>
</g>
</g>
<!-- Node9&#45;&gt;Node12 -->
<g id="edge12_Node000009_Node000012" class="edge">
<title>Node9&#45;&gt;Node12</title>
<g id="a_edge12_Node000009_Node000012"><a xlink:title=" ">
<path fill="none" stroke="#63b8ff" d="M279.32,-125.59C271.21,-124.07 262.88,-122.52 255.17,-121.08"/>
<polygon fill="#63b8ff" stroke="#63b8ff" points="278.6,-129.01 289.07,-127.41 279.88,-122.13 278.6,-129.01"/>
</a>
</g>
</g>
<!-- Node11 -->
<g id="Node000011" class="node">
<title>Node11</title>
<g id="a_Node000011"><a xlink:href="app_8c.html#ab1e039392ea68017ab8a6063263b147d" target="_top" xlink:title=" ">
<polygon fill="white" stroke="#666666" points="145.25,-164.28 94,-164.28 94,-143.53 145.25,-143.53 145.25,-164.28"/>
<text text-anchor="middle" x="119.62" y="-150.78" font-family="Helvetica,sans-Serif" font-size="10.00">w2c__c</text>
</a>
</g>
</g>
<!-- Node10&#45;&gt;Node11 -->
<g id="edge11_Node000010_Node000011" class="edge">
<title>Node10&#45;&gt;Node11</title>
<g id="a_edge11_Node000010_Node000011"><a xlink:title=" ">
<path fill="none" stroke="#63b8ff" d="M178.21,-153.91C167.15,-153.91 155.55,-153.91 145.68,-153.91"/>
<polygon fill="#63b8ff" stroke="#63b8ff" points="177.95,-157.41 187.95,-153.91 177.95,-150.41 177.95,-157.41"/>
</a>
</g>
</g>
<!-- Node13 -->
<g id="Node000013" class="node">
<title>Node13</title>
<g id="a_Node000013"><a xlink:href="app_8c.html#a26657f10c51f10eeb57a4d27606a6885" target="_top" xlink:title=" ">
<polygon fill="white" stroke="#666666" points="151.25,-125.28 88,-125.28 88,-104.53 151.25,-104.53 151.25,-125.28"/>
<text text-anchor="middle" x="119.62" y="-111.78" font-family="Helvetica,sans-Serif" font-size="10.00">w2c__b_0</text>
</a>
</g>
</g>
<!-- Node12&#45;&gt;Node13 -->
<g id="edge13_Node000012_Node000013" class="edge">
<title>Node12&#45;&gt;Node13</title>
<g id="a_edge13_Node000012_Node000013"><a xlink:title=" ">
<path fill="none" stroke="#63b8ff" d="M175.71,-114.91C167.57,-114.91 159.23,-114.91 151.59,-114.91"/>
<polygon fill="#63b8ff" stroke="#63b8ff" points="175.48,-118.41 185.48,-114.91 175.48,-111.41 175.48,-118.41"/>
</a>
</g>
</g>
<!-- Node14 -->
<g id="Node000014" class="node">
<title>Node14</title>
<g id="a_Node000014"><a xlink:href="app_8c.html#a683a2045346c3209e9dac20d55933c7d" target="_top" xlink:title=" ">
<polygon fill="white" stroke="#666666" points="52,-125.28 0,-125.28 0,-104.53 52,-104.53 52,-125.28"/>
<text text-anchor="middle" x="26" y="-111.78" font-family="Helvetica,sans-Serif" font-size="10.00">w2c__b</text>
</a>
</g>
</g>
<!-- Node13&#45;&gt;Node14 -->
<g id="edge14_Node000013_Node000014" class="edge">
<title>Node13&#45;&gt;Node14</title>
<g id="a_edge14_Node000013_Node000014"><a xlink:title=" ">
<path fill="none" stroke="#63b8ff" d="M76.21,-114.91C68,-114.91 59.65,-114.91 52.21,-114.91"/>
<polygon fill="#63b8ff" stroke="#63b8ff" points="76.09,-118.41 86.09,-114.91 76.09,-111.41 76.09,-118.41"/>
</a>
</g>
</g>
<!-- Node17 -->
<g id="Node000017" class="node">
<title>Node17</title>
<g id="a_Node000017"><a xlink:href="app_8c.html#ad46ee8455023db930456c594f733bd66" target="_top" xlink:title=" ">
<polygon fill="white" stroke="#666666" points="462.5,-318.28 394.75,-318.28 394.75,-297.53 462.5,-297.53 462.5,-318.28"/>
<text text-anchor="middle" x="428.62" y="-304.78" font-family="Helvetica,sans-Serif" font-size="10.00">w2c__f406</text>
</a>
</g>
</g>
<!-- Node16&#45;&gt;Node17 -->
<g id="edge18_Node000016_Node000017" class="edge">
<title>Node16&#45;&gt;Node17</title>
<g id="a_edge18_Node000016_Node000017"><a xlink:title=" ">
<path fill="none" stroke="#63b8ff" d="M486.82,-297.23C478.71,-298.74 470.38,-300.3 462.67,-301.74"/>
<polygon fill="#63b8ff" stroke="#63b8ff" points="487.38,-300.68 496.57,-295.41 486.1,-293.8 487.38,-300.68"/>
</a>
</g>
</g>
<!-- Node17&#45;&gt;Node9 -->
<g id="edge19_Node000017_Node000009" class="edge">
<title>Node17&#45;&gt;Node9</title>
<g id="a_edge19_Node000017_Node000009"><a xlink:title=" ">
<path fill="none" stroke="#63b8ff" d="M396.88,-290.15C396.14,-289.42 395.43,-288.68 394.75,-287.91 355.05,-242.86 334.77,-171.21 328.26,-144.45"/>
<polygon fill="#63b8ff" stroke="#63b8ff" points="394.48,-292.71 404.49,-296.19 398.84,-287.23 394.48,-292.71"/>
</a>
</g>
</g>
<!-- Node19&#45;&gt;Node9 -->
<g id="edge22_Node000019_Node000009" class="edge">
<title>Node19&#45;&gt;Node9</title>
<g id="a_edge22_Node000019_Node000009"><a xlink:title=" ">
<path fill="none" stroke="#63b8ff" d="M507.11,-174.4C504.2,-172.23 501.27,-170.03 498.5,-167.91 482.2,-155.4 481.75,-146.1 462.5,-138.91 428.92,-126.37 387.42,-126.89 359.03,-129.42"/>
<polygon fill="#63b8ff" stroke="#63b8ff" points="504.85,-177.08 514.99,-180.17 508.99,-171.43 504.85,-177.08"/>
</a>
</g>
</g>
<!-- Node21&#45;&gt;Node2 -->
<g id="edge25_Node000021_Node000002" class="edge">
<title>Node21&#45;&gt;Node2</title>
<g id="a_edge25_Node000021_Node000002"><a xlink:title=" ">
<path fill="none" stroke="#63b8ff" d="M486.82,-76.91C478.71,-76.91 470.38,-76.91 462.67,-76.91"/>
<polygon fill="#63b8ff" stroke="#63b8ff" points="486.54,-80.41 496.54,-76.91 486.54,-73.41 486.54,-80.41"/>
</a>
</g>
</g>
</g>
</svg>
