<?xml version="1.0" encoding="UTF-8" standalone="no"?>
<!DOCTYPE svg PUBLIC "-//W3C//DTD SVG 1.1//EN"
 "http://www.w3.org/Graphics/SVG/1.1/DTD/svg11.dtd">
<!-- Generated by graphviz version 12.2.1 (0)
 -->
<!-- Title: wrap_w2c__f366 Pages: 1 -->
<svg width="416pt" height="48pt"
 viewBox="0.00 0.00 416.25 47.75" xmlns="http://www.w3.org/2000/svg" xmlns:xlink="http://www.w3.org/1999/xlink">
<g id="graph0" class="graph" transform="scale(1 1) rotate(0) translate(4 43.75)">
<title>wrap_w2c__f366</title>
<!-- Node1 -->
<g id="Node000001" class="node">
<title>Node1</title>
<g id="a_Node000001"><a xlink:title=" ">
<polygon fill="#999999" stroke="#666666" points="97,-20.75 0,-20.75 0,0 97,0 97,-20.75"/>
<text text-anchor="middle" x="48.5" y="-7.25" font-family="Helvetica,sans-Serif" font-size="10.00">wrap_w2c__f366</text>
</a>
</g>
</g>
<!-- Node2 -->
<g id="Node000002" class="node">
<title>Node2</title>
<g id="a_Node000002"><a xlink:href="app_8c.html#a6c4eef6d66873a430c1a961238932a90" target="_top" xlink:title=" ">
<polygon fill="white" stroke="#666666" points="200.75,-20.75 133,-20.75 133,0 200.75,0 200.75,-20.75"/>
<text text-anchor="middle" x="166.88" y="-7.25" font-family="Helvetica,sans-Serif" font-size="10.00">w2c__f366</text>
</a>
</g>
</g>
<!-- Node1&#45;&gt;Node2 -->
<g id="edge1_Node000001_Node000002" class="edge">
<title>Node1&#45;&gt;Node2</title>
<g id="a_edge1_Node000001_Node000002"><a xlink:title=" ">
<path fill="none" stroke="#63b8ff" d="M97.17,-10.38C105.18,-10.38 113.47,-10.38 121.4,-10.38"/>
<polygon fill="#63b8ff" stroke="#63b8ff" points="121.17,-13.88 131.17,-10.38 121.17,-6.88 121.17,-13.88"/>
</a>
</g>
</g>
<!-- Node2&#45;&gt;Node2 -->
<g id="edge4_Node000002_Node000002" class="edge">
<title>Node2&#45;&gt;Node2</title>
<g id="a_edge4_Node000002_Node000002"><a xlink:title=" ">
<path fill="none" stroke="#63b8ff" d="M150.16,-21.15C143.47,-29.81 149.04,-38.75 166.88,-38.75 176.35,-38.75 182.36,-36.23 184.91,-32.56"/>
<polygon fill="#63b8ff" stroke="#63b8ff" points="188.39,-32.18 183.77,-22.65 181.44,-32.99 188.39,-32.18"/>
</a>
</g>
</g>
<!-- Node3 -->
<g id="Node000003" class="node">
<title>Node3</title>
<g id="a_Node000003"><a xlink:href="app_8c.html#aee003829aebed6402992d02b46e1a568" target="_top" xlink:title=" ">
<polygon fill="white" stroke="#666666" points="304.5,-39.75 236.75,-39.75 236.75,-19 304.5,-19 304.5,-39.75"/>
<text text-anchor="middle" x="270.62" y="-26.25" font-family="Helvetica,sans-Serif" font-size="10.00">w2c__f347</text>
</a>
</g>
</g>
<!-- Node2&#45;&gt;Node3 -->
<g id="edge2_Node000002_Node000003" class="edge">
<title>Node2&#45;&gt;Node3</title>
<g id="a_edge2_Node000002_Node000003"><a xlink:title=" ">
<path fill="none" stroke="#63b8ff" d="M201.19,-16.6C208.91,-18.04 217.25,-19.59 225.36,-21.11"/>
<polygon fill="#63b8ff" stroke="#63b8ff" points="224.62,-24.53 235.09,-22.93 225.91,-17.65 224.62,-24.53"/>
</a>
</g>
</g>
<!-- Node4 -->
<g id="Node000004" class="node">
<title>Node4</title>
<g id="a_Node000004"><a xlink:href="app_8c.html#ab78a9ba6819f5a9d3b53302097151d33" target="_top" xlink:title=" ">
<polygon fill="white" stroke="#666666" points="408.25,-20.75 340.5,-20.75 340.5,0 408.25,0 408.25,-20.75"/>
<text text-anchor="middle" x="374.38" y="-7.25" font-family="Helvetica,sans-Serif" font-size="10.00">w2c__f481</text>
</a>
</g>
</g>
<!-- Node2&#45;&gt;Node4 -->
<g id="edge5_Node000002_Node000004" class="edge">
<title>Node2&#45;&gt;Node4</title>
<g id="a_edge5_Node000002_Node000004"><a xlink:title=" ">
<path fill="none" stroke="#63b8ff" d="M200.89,-10.38C235.54,-10.38 290.23,-10.38 328.71,-10.38"/>
<polygon fill="#63b8ff" stroke="#63b8ff" points="328.59,-13.88 338.59,-10.38 328.59,-6.88 328.59,-13.88"/>
</a>
</g>
</g>
<!-- Node3&#45;&gt;Node4 -->
<g id="edge3_Node000003_Node000004" class="edge">
<title>Node3&#45;&gt;Node4</title>
<g id="a_edge3_Node000003_Node000004"><a xlink:title=" ">
<path fill="none" stroke="#63b8ff" d="M304.94,-23.15C312.66,-21.71 321,-20.16 329.11,-18.64"/>
<polygon fill="#63b8ff" stroke="#63b8ff" points="329.66,-22.1 338.84,-16.82 328.37,-15.22 329.66,-22.1"/>
</a>
</g>
</g>
</g>
</svg>
