<?xml version="1.0" encoding="UTF-8" standalone="no"?>
<!DOCTYPE svg PUBLIC "-//W3C//DTD SVG 1.1//EN"
 "http://www.w3.org/Graphics/SVG/1.1/DTD/svg11.dtd">
<!-- Generated by graphviz version 12.2.1 (0)
 -->
<!-- Title: w2c__f202 Pages: 1 -->
<svg width="807pt" height="663pt"
 viewBox="0.00 0.00 806.50 663.00" xmlns="http://www.w3.org/2000/svg" xmlns:xlink="http://www.w3.org/1999/xlink">
<g id="graph0" class="graph" transform="scale(1 1) rotate(0) translate(4 659)">
<title>w2c__f202</title>
<!-- Node1 -->
<g id="Node000001" class="node">
<title>Node1</title>
<g id="a_Node000001"><a xlink:title=" ">
<polygon fill="#999999" stroke="#666666" points="67.75,-303.38 0,-303.38 0,-282.62 67.75,-282.62 67.75,-303.38"/>
<text text-anchor="middle" x="33.88" y="-289.88" font-family="Helvetica,sans-Serif" font-size="10.00">w2c__f202</text>
</a>
</g>
</g>
<!-- Node2 -->
<g id="Node000002" class="node">
<title>Node2</title>
<g id="a_Node000002"><a xlink:href="app_8c.html#a0378208e0d5c0d1d6e7370f1c578fab3" target="_top" xlink:title=" ">
<polygon fill="white" stroke="#666666" points="694.75,-570.38 627,-570.38 627,-549.62 694.75,-549.62 694.75,-570.38"/>
<text text-anchor="middle" x="660.88" y="-556.88" font-family="Helvetica,sans-Serif" font-size="10.00">w2c__f216</text>
</a>
</g>
</g>
<!-- Node1&#45;&gt;Node2 -->
<g id="edge1_Node000001_Node000002" class="edge">
<title>Node1&#45;&gt;Node2</title>
<g id="a_edge1_Node000001_Node000002"><a xlink:title=" ">
<path fill="none" stroke="#63b8ff" d="M35.69,-303.83C40.88,-364.07 74.52,-655 240.38,-655 240.38,-655 240.38,-655 451,-655 515.96,-655 533.19,-642.63 591,-613 608.94,-603.81 626.91,-589.78 639.99,-578.46"/>
<polygon fill="#63b8ff" stroke="#63b8ff" points="642.31,-581.08 647.46,-571.82 637.66,-575.85 642.31,-581.08"/>
</a>
</g>
</g>
<!-- Node4 -->
<g id="Node000004" class="node">
<title>Node4</title>
<g id="a_Node000004"><a xlink:href="app_8c.html#aaca5d5bcf49f2ca74019cf097750b9f3" target="_top" xlink:title=" ">
<polygon fill="white" stroke="#666666" points="694.75,-48.38 627,-48.38 627,-27.62 694.75,-27.62 694.75,-48.38"/>
<text text-anchor="middle" x="660.88" y="-34.88" font-family="Helvetica,sans-Serif" font-size="10.00">w2c__f258</text>
</a>
</g>
</g>
<!-- Node1&#45;&gt;Node4 -->
<g id="edge3_Node000001_Node000004" class="edge">
<title>Node1&#45;&gt;Node4</title>
<g id="a_edge3_Node000001_Node000004"><a xlink:title=" ">
<path fill="none" stroke="#63b8ff" d="M36.83,-282.22C47.07,-229.36 99.65,0 240.38,0 240.38,0 240.38,0 451,0 508.57,0 573.63,-14.14 615.63,-25.17"/>
<polygon fill="#63b8ff" stroke="#63b8ff" points="614.54,-28.51 625.11,-27.72 616.36,-21.75 614.54,-28.51"/>
</a>
</g>
</g>
<!-- Node6 -->
<g id="Node000006" class="node">
<title>Node6</title>
<g id="a_Node000006"><a xlink:href="app_8c.html#a8fac5bc4342e3ceea2e6e384a4cbc528" target="_top" xlink:title=" ">
<polygon fill="white" stroke="#666666" points="379,-303.38 311.25,-303.38 311.25,-282.62 379,-282.62 379,-303.38"/>
<text text-anchor="middle" x="345.12" y="-289.88" font-family="Helvetica,sans-Serif" font-size="10.00">w2c__f384</text>
</a>
</g>
</g>
<!-- Node1&#45;&gt;Node6 -->
<g id="edge6_Node000001_Node000006" class="edge">
<title>Node1&#45;&gt;Node6</title>
<g id="a_edge6_Node000001_Node000006"><a xlink:title=" ">
<path fill="none" stroke="#63b8ff" d="M67.97,-293C123.74,-293 236.5,-293 299.31,-293"/>
<polygon fill="#63b8ff" stroke="#63b8ff" points="299.29,-296.5 309.29,-293 299.29,-289.5 299.29,-296.5"/>
</a>
</g>
</g>
<!-- Node28 -->
<g id="Node000028" class="node">
<title>Node28</title>
<g id="a_Node000028"><a xlink:href="app_8c.html#a8d133b0dcb7130bbc0a48ea5c1975662" target="_top" xlink:title=" ">
<polygon fill="white" stroke="#666666" points="171.5,-458.38 103.75,-458.38 103.75,-437.62 171.5,-437.62 171.5,-458.38"/>
<text text-anchor="middle" x="137.62" y="-444.88" font-family="Helvetica,sans-Serif" font-size="10.00">w2c__f436</text>
</a>
</g>
</g>
<!-- Node1&#45;&gt;Node28 -->
<g id="edge41_Node000001_Node000028" class="edge">
<title>Node1&#45;&gt;Node28</title>
<g id="a_edge41_Node000001_Node000028"><a xlink:title=" ">
<path fill="none" stroke="#63b8ff" d="M41.87,-303.65C58.64,-329.2 101.38,-394.31 123.27,-427.65"/>
<polygon fill="#63b8ff" stroke="#63b8ff" points="120.34,-429.57 128.75,-436.01 126.19,-425.73 120.34,-429.57"/>
</a>
</g>
</g>
<!-- Node31 -->
<g id="Node000031" class="node">
<title>Node31</title>
<g id="a_Node000031"><a xlink:href="app_8c.html#aa4984aeb5692411379c03042d58ec683" target="_top" xlink:title=" ">
<polygon fill="white" stroke="#666666" points="171.5,-234.38 103.75,-234.38 103.75,-213.62 171.5,-213.62 171.5,-234.38"/>
<text text-anchor="middle" x="137.62" y="-220.88" font-family="Helvetica,sans-Serif" font-size="10.00">w2c__f560</text>
</a>
</g>
</g>
<!-- Node1&#45;&gt;Node31 -->
<g id="edge47_Node000001_Node000031" class="edge">
<title>Node1&#45;&gt;Node31</title>
<g id="a_edge47_Node000001_Node000031"><a xlink:title=" ">
<path fill="none" stroke="#63b8ff" d="M50.77,-282.22C66.98,-271.23 92.35,-254.02 111.32,-241.16"/>
<polygon fill="#63b8ff" stroke="#63b8ff" points="113.27,-244.06 119.59,-235.56 109.34,-238.27 113.27,-244.06"/>
</a>
</g>
</g>
<!-- Node3 -->
<g id="Node000003" class="node">
<title>Node3</title>
<g id="a_Node000003"><a xlink:href="app_8c.html#a8d9f347f9a643f0ebfb53c4f54578ac4" target="_top" xlink:title=" ">
<polygon fill="white" stroke="#666666" points="798.5,-106.38 730.75,-106.38 730.75,-85.62 798.5,-85.62 798.5,-106.38"/>
<text text-anchor="middle" x="764.62" y="-92.88" font-family="Helvetica,sans-Serif" font-size="10.00">w2c__f304</text>
</a>
</g>
</g>
<!-- Node2&#45;&gt;Node3 -->
<g id="edge2_Node000002_Node000003" class="edge">
<title>Node2&#45;&gt;Node3</title>
<g id="a_edge2_Node000002_Node000003"><a xlink:title=" ">
<path fill="none" stroke="#63b8ff" d="M664.19,-549.44C677.15,-490.35 740.72,-200.47 758.81,-117.95"/>
<polygon fill="#63b8ff" stroke="#63b8ff" points="762.22,-118.75 760.94,-108.23 755.38,-117.25 762.22,-118.75"/>
</a>
</g>
</g>
<!-- Node4&#45;&gt;Node3 -->
<g id="edge4_Node000004_Node000003" class="edge">
<title>Node4&#45;&gt;Node3</title>
<g id="a_edge4_Node000004_Node000003"><a xlink:title=" ">
<path fill="none" stroke="#63b8ff" d="M680.54,-48.64C695.79,-57.33 717.6,-69.76 735.05,-79.71"/>
<polygon fill="#63b8ff" stroke="#63b8ff" points="733,-82.57 743.42,-84.48 736.47,-76.49 733,-82.57"/>
</a>
</g>
</g>
<!-- Node5 -->
<g id="Node000005" class="node">
<title>Node5</title>
<g id="a_Node000005"><a xlink:href="app_8c.html#a881f0b113e93dce3ff52d04b435850f6" target="_top" xlink:title=" ">
<polygon fill="white" stroke="#666666" points="798.5,-48.38 730.75,-48.38 730.75,-27.62 798.5,-27.62 798.5,-48.38"/>
<text text-anchor="middle" x="764.62" y="-34.88" font-family="Helvetica,sans-Serif" font-size="10.00">w2c__f491</text>
</a>
</g>
</g>
<!-- Node4&#45;&gt;Node5 -->
<g id="edge5_Node000004_Node000005" class="edge">
<title>Node4&#45;&gt;Node5</title>
<g id="a_edge5_Node000004_Node000005"><a xlink:title=" ">
<path fill="none" stroke="#63b8ff" d="M695.19,-38C702.82,-38 711.06,-38 719.08,-38"/>
<polygon fill="#63b8ff" stroke="#63b8ff" points="719.07,-41.5 729.07,-38 719.07,-34.5 719.07,-41.5"/>
</a>
</g>
</g>
<!-- Node6&#45;&gt;Node2 -->
<g id="edge11_Node000006_Node000002" class="edge">
<title>Node6&#45;&gt;Node2</title>
<g id="a_edge11_Node000006_Node000002"><a xlink:title=" ">
<path fill="none" stroke="#63b8ff" d="M347.16,-303.75C350.71,-334.89 365.06,-426.18 415,-478 468.47,-533.49 560.53,-551.43 615.26,-557.23"/>
<polygon fill="#63b8ff" stroke="#63b8ff" points="614.88,-560.71 625.16,-558.18 615.54,-553.74 614.88,-560.71"/>
</a>
</g>
</g>
<!-- Node6&#45;&gt;Node4 -->
<g id="edge12_Node000006_Node000004" class="edge">
<title>Node6&#45;&gt;Node4</title>
<g id="a_edge12_Node000006_Node000004"><a xlink:title=" ">
<path fill="none" stroke="#63b8ff" d="M355.2,-282.25C362.61,-272.94 372.84,-258.84 379,-245 406.7,-182.76 369.69,-146.87 415,-96 465.32,-39.5 559.63,-32.9 615.37,-34.54"/>
<polygon fill="#63b8ff" stroke="#63b8ff" points="615.01,-38.03 625.14,-34.94 615.29,-31.04 615.01,-38.03"/>
</a>
</g>
</g>
<!-- Node7 -->
<g id="Node000007" class="node">
<title>Node7</title>
<g id="a_Node000007"><a xlink:href="app_8c.html#ab9f7a0a232ed44631b16a8d8588e5193" target="_top" xlink:title=" ">
<polygon fill="white" stroke="#666666" points="485,-317.38 415,-317.38 415,-296.62 485,-296.62 485,-317.38"/>
<text text-anchor="middle" x="450" y="-303.88" font-family="Helvetica,sans-Serif" font-size="10.00">w2c_0_190</text>
</a>
</g>
</g>
<!-- Node6&#45;&gt;Node7 -->
<g id="edge7_Node000006_Node000007" class="edge">
<title>Node6&#45;&gt;Node7</title>
<g id="a_edge7_Node000006_Node000007"><a xlink:title=" ">
<path fill="none" stroke="#63b8ff" d="M379.24,-297.51C386.91,-298.55 395.2,-299.68 403.29,-300.78"/>
<polygon fill="#63b8ff" stroke="#63b8ff" points="402.65,-304.22 413.03,-302.1 403.59,-297.29 402.65,-304.22"/>
</a>
</g>
</g>
<!-- Node8 -->
<g id="Node000008" class="node">
<title>Node8</title>
<g id="a_Node000008"><a xlink:href="app_8c.html#ad16bda814305a85f9a169fb486f76c59" target="_top" xlink:title=" ">
<polygon fill="white" stroke="#666666" points="485,-278.38 415,-278.38 415,-257.62 485,-257.62 485,-278.38"/>
<text text-anchor="middle" x="450" y="-264.88" font-family="Helvetica,sans-Serif" font-size="10.00">w2c_0_191</text>
</a>
</g>
</g>
<!-- Node6&#45;&gt;Node8 -->
<g id="edge8_Node000006_Node000008" class="edge">
<title>Node6&#45;&gt;Node8</title>
<g id="a_edge8_Node000006_Node000008"><a xlink:title=" ">
<path fill="none" stroke="#63b8ff" d="M379.24,-284.95C386.99,-283.07 395.39,-281.03 403.57,-279.04"/>
<polygon fill="#63b8ff" stroke="#63b8ff" points="404.17,-282.5 413.06,-276.73 402.52,-275.69 404.17,-282.5"/>
</a>
</g>
</g>
<!-- Node9 -->
<g id="Node000009" class="node">
<title>Node9</title>
<g id="a_Node000009"><a xlink:href="app_8c.html#a0eb8bb44db76fe67d749a0cbcd044bd2" target="_top" xlink:title=" ">
<polygon fill="white" stroke="#666666" points="482,-239.38 418,-239.38 418,-218.62 482,-218.62 482,-239.38"/>
<text text-anchor="middle" x="450" y="-225.88" font-family="Helvetica,sans-Serif" font-size="10.00">w2c_0_38</text>
</a>
</g>
</g>
<!-- Node6&#45;&gt;Node9 -->
<g id="edge9_Node000006_Node000009" class="edge">
<title>Node6&#45;&gt;Node9</title>
<g id="a_edge9_Node000006_Node000009"><a xlink:title=" ">
<path fill="none" stroke="#63b8ff" d="M362.72,-282.16C376.6,-273.14 396.98,-260.05 415,-249 416.88,-247.85 418.83,-246.66 420.8,-245.48"/>
<polygon fill="#63b8ff" stroke="#63b8ff" points="422.46,-248.56 429.27,-240.45 418.89,-242.54 422.46,-248.56"/>
</a>
</g>
</g>
<!-- Node10 -->
<g id="Node000010" class="node">
<title>Node10</title>
<g id="a_Node000010"><a xlink:href="app_8c.html#aa709ee1fada6a506c56e35eaa8f8aef1" target="_top" xlink:title=" ">
<polygon fill="white" stroke="#666666" points="588,-513.38 524,-513.38 524,-492.62 588,-492.62 588,-513.38"/>
<text text-anchor="middle" x="556" y="-499.88" font-family="Helvetica,sans-Serif" font-size="10.00">w2c_0_39</text>
</a>
</g>
</g>
<!-- Node6&#45;&gt;Node10 -->
<g id="edge10_Node000006_Node000010" class="edge">
<title>Node6&#45;&gt;Node10</title>
<g id="a_edge10_Node000006_Node000010"><a xlink:title=" ">
<path fill="none" stroke="#63b8ff" d="M348.19,-303.69C353.95,-330.77 372.63,-402.84 415,-444 441.93,-470.15 482.18,-485.46 512.63,-493.9"/>
<polygon fill="#63b8ff" stroke="#63b8ff" points="511.74,-497.29 522.3,-496.43 513.51,-490.51 511.74,-497.29"/>
</a>
</g>
</g>
<!-- Node11 -->
<g id="Node000011" class="node">
<title>Node11</title>
<g id="a_Node000011"><a xlink:href="app_8c.html#a2dd9d7dcae0becfd67f5ee7bdc2a89cc" target="_top" xlink:title=" ">
<polygon fill="white" stroke="#666666" points="483.88,-435.38 416.12,-435.38 416.12,-414.62 483.88,-414.62 483.88,-435.38"/>
<text text-anchor="middle" x="450" y="-421.88" font-family="Helvetica,sans-Serif" font-size="10.00">w2c__f325</text>
</a>
</g>
</g>
<!-- Node6&#45;&gt;Node11 -->
<g id="edge13_Node000006_Node000011" class="edge">
<title>Node6&#45;&gt;Node11</title>
<g id="a_edge13_Node000006_Node000011"><a xlink:title=" ">
<path fill="none" stroke="#63b8ff" d="M350.66,-303.58C360.12,-324.71 383.7,-372.76 415,-404 416.2,-405.19 417.47,-406.35 418.81,-407.47"/>
<polygon fill="#63b8ff" stroke="#63b8ff" points="416.72,-410.28 426.88,-413.32 420.83,-404.61 416.72,-410.28"/>
</a>
</g>
</g>
<!-- Node15 -->
<g id="Node000015" class="node">
<title>Node15</title>
<g id="a_Node000015"><a xlink:href="app_8c.html#a76580148a28a8d1d2ffd080f9d3e70c6" target="_top" xlink:title=" ">
<polygon fill="white" stroke="#666666" points="483.88,-356.38 416.12,-356.38 416.12,-335.62 483.88,-335.62 483.88,-356.38"/>
<text text-anchor="middle" x="450" y="-342.88" font-family="Helvetica,sans-Serif" font-size="10.00">w2c__f400</text>
</a>
</g>
</g>
<!-- Node6&#45;&gt;Node15 -->
<g id="edge18_Node000006_Node000015" class="edge">
<title>Node6&#45;&gt;Node15</title>
<g id="a_edge18_Node000006_Node000015"><a xlink:title=" ">
<path fill="none" stroke="#63b8ff" d="M366.94,-303.73C381.72,-311.34 401.81,-321.69 418.41,-330.24"/>
<polygon fill="#63b8ff" stroke="#63b8ff" points="416.37,-333.13 426.87,-334.6 419.58,-326.91 416.37,-333.13"/>
</a>
</g>
</g>
<!-- Node20 -->
<g id="Node000020" class="node">
<title>Node20</title>
<g id="a_Node000020"><a xlink:href="app_8c.html#a58d893dd6cf117aafb69550b2a0a0e6a" target="_top" xlink:title=" ">
<polygon fill="white" stroke="#666666" points="589.88,-201.38 522.12,-201.38 522.12,-180.62 589.88,-180.62 589.88,-201.38"/>
<text text-anchor="middle" x="556" y="-187.88" font-family="Helvetica,sans-Serif" font-size="10.00">wasm_ceil</text>
</a>
</g>
</g>
<!-- Node6&#45;&gt;Node20 -->
<g id="edge40_Node000006_Node000020" class="edge">
<title>Node6&#45;&gt;Node20</title>
<g id="a_edge40_Node000006_Node000020"><a xlink:title=" ">
<path fill="none" stroke="#63b8ff" d="M353.49,-282.3C367.75,-261.93 399.12,-218.81 415,-210 444.03,-193.89 481.5,-189.51 510.37,-188.95"/>
<polygon fill="#63b8ff" stroke="#63b8ff" points="510.26,-192.45 520.25,-188.92 510.24,-185.45 510.26,-192.45"/>
</a>
</g>
</g>
<!-- Node22 -->
<g id="Node000022" class="node">
<title>Node22</title>
<g id="a_Node000022"><a xlink:href="app_8c.html#ab78a9ba6819f5a9d3b53302097151d33" target="_top" xlink:title=" ">
<polygon fill="white" stroke="#666666" points="483.88,-395.38 416.12,-395.38 416.12,-374.62 483.88,-374.62 483.88,-395.38"/>
<text text-anchor="middle" x="450" y="-381.88" font-family="Helvetica,sans-Serif" font-size="10.00">w2c__f481</text>
</a>
</g>
</g>
<!-- Node6&#45;&gt;Node22 -->
<g id="edge27_Node000006_Node000022" class="edge">
<title>Node6&#45;&gt;Node22</title>
<g id="a_edge27_Node000006_Node000022"><a xlink:title=" ">
<path fill="none" stroke="#63b8ff" d="M354.69,-303.66C366.99,-318.54 390.86,-345.89 415,-365 416.31,-366.04 417.68,-367.06 419.08,-368.05"/>
<polygon fill="#63b8ff" stroke="#63b8ff" points="417.06,-370.91 427.35,-373.42 420.87,-365.04 417.06,-370.91"/>
</a>
</g>
</g>
<!-- Node23 -->
<g id="Node000023" class="node">
<title>Node23</title>
<g id="a_Node000023"><a xlink:href="app_8c.html#a674f6e81761467d0a8dc6d2a425eda9f" target="_top" xlink:title=" ">
<polygon fill="white" stroke="#666666" points="694.75,-163.38 627,-163.38 627,-142.62 694.75,-142.62 694.75,-163.38"/>
<text text-anchor="middle" x="660.88" y="-149.88" font-family="Helvetica,sans-Serif" font-size="10.00">w2c__f498</text>
</a>
</g>
</g>
<!-- Node6&#45;&gt;Node23 -->
<g id="edge28_Node000006_Node000023" class="edge">
<title>Node6&#45;&gt;Node23</title>
<g id="a_edge28_Node000006_Node000023"><a xlink:title=" ">
<path fill="none" stroke="#63b8ff" d="M353.58,-282.42C360.33,-272.75 370.5,-258.03 379,-245 395.58,-219.59 389.59,-203.57 415,-187 475.83,-147.33 563.22,-145.24 615.49,-148.39"/>
<polygon fill="#63b8ff" stroke="#63b8ff" points="614.99,-151.87 625.21,-149.08 615.48,-144.88 614.99,-151.87"/>
</a>
</g>
</g>
<!-- Node24 -->
<g id="Node000024" class="node">
<title>Node24</title>
<g id="a_Node000024"><a xlink:href="app_8c.html#a1a8a1d528c65d63a630e19c3a4bdd098" target="_top" xlink:title=" ">
<polygon fill="white" stroke="#666666" points="483.88,-125.38 416.12,-125.38 416.12,-104.62 483.88,-104.62 483.88,-125.38"/>
<text text-anchor="middle" x="450" y="-111.88" font-family="Helvetica,sans-Serif" font-size="10.00">w2c__f557</text>
</a>
</g>
</g>
<!-- Node6&#45;&gt;Node24 -->
<g id="edge29_Node000006_Node000024" class="edge">
<title>Node6&#45;&gt;Node24</title>
<g id="a_edge29_Node000006_Node000024"><a xlink:title=" ">
<path fill="none" stroke="#63b8ff" d="M354.59,-282.47C361.83,-273.08 372.13,-258.73 379,-245 401.26,-200.51 385.22,-178.85 415,-139 416.67,-136.77 418.6,-134.67 420.68,-132.71"/>
<polygon fill="#63b8ff" stroke="#63b8ff" points="422.42,-135.8 428.03,-126.81 418.04,-130.34 422.42,-135.8"/>
</a>
</g>
</g>
<!-- Node11&#45;&gt;Node10 -->
<g id="edge16_Node000011_Node000010" class="edge">
<title>Node11&#45;&gt;Node10</title>
<g id="a_edge16_Node000011_Node000010"><a xlink:title=" ">
<path fill="none" stroke="#63b8ff" d="M462.43,-435.45C475.93,-447.55 499.3,-467.77 521,-483 522.58,-484.11 524.22,-485.22 525.9,-486.31"/>
<polygon fill="#63b8ff" stroke="#63b8ff" points="523.97,-489.23 534.31,-491.52 527.65,-483.28 523.97,-489.23"/>
</a>
</g>
</g>
<!-- Node12 -->
<g id="Node000012" class="node">
<title>Node12</title>
<g id="a_Node000012"><a xlink:href="app_8c.html#a073f670c8a950594dc8c2335dd28302c" target="_top" xlink:title=" ">
<polygon fill="white" stroke="#666666" points="591,-435.38 521,-435.38 521,-414.62 591,-414.62 591,-435.38"/>
<text text-anchor="middle" x="556" y="-421.88" font-family="Helvetica,sans-Serif" font-size="10.00">w2c_0_135</text>
</a>
</g>
</g>
<!-- Node11&#45;&gt;Node12 -->
<g id="edge14_Node000011_Node000012" class="edge">
<title>Node11&#45;&gt;Node12</title>
<g id="a_edge14_Node000011_Node000012"><a xlink:title=" ">
<path fill="none" stroke="#63b8ff" d="M484.19,-425C492.2,-425 500.9,-425 509.37,-425"/>
<polygon fill="#63b8ff" stroke="#63b8ff" points="509.18,-428.5 519.18,-425 509.18,-421.5 509.18,-428.5"/>
</a>
</g>
</g>
<!-- Node13 -->
<g id="Node000013" class="node">
<title>Node13</title>
<g id="a_Node000013"><a xlink:href="app_8c.html#a18a88d48b058bed42fc73361b8889923" target="_top" xlink:title=" ">
<polygon fill="white" stroke="#666666" points="591,-474.38 521,-474.38 521,-453.62 591,-453.62 591,-474.38"/>
<text text-anchor="middle" x="556" y="-460.88" font-family="Helvetica,sans-Serif" font-size="10.00">w2c_0_145</text>
</a>
</g>
</g>
<!-- Node11&#45;&gt;Node13 -->
<g id="edge15_Node000011_Node000013" class="edge">
<title>Node11&#45;&gt;Node13</title>
<g id="a_edge15_Node000011_Node000013"><a xlink:title=" ">
<path fill="none" stroke="#63b8ff" d="M479.97,-435.86C491.01,-440.01 503.79,-444.8 515.64,-449.24"/>
<polygon fill="#63b8ff" stroke="#63b8ff" points="514.18,-452.43 524.77,-452.66 516.63,-445.87 514.18,-452.43"/>
</a>
</g>
</g>
<!-- Node14 -->
<g id="Node000014" class="node">
<title>Node14</title>
<g id="a_Node000014"><a xlink:href="app_8c.html#a8d8a9f240d971fdd48e2227d3e26416d" target="_top" xlink:title=" ">
<polygon fill="white" stroke="#666666" points="589.88,-396.38 522.12,-396.38 522.12,-375.62 589.88,-375.62 589.88,-396.38"/>
<text text-anchor="middle" x="556" y="-382.88" font-family="Helvetica,sans-Serif" font-size="10.00">w2c__f283</text>
</a>
</g>
</g>
<!-- Node11&#45;&gt;Node14 -->
<g id="edge17_Node000011_Node000014" class="edge">
<title>Node11&#45;&gt;Node14</title>
<g id="a_edge17_Node000011_Node000014"><a xlink:title=" ">
<path fill="none" stroke="#63b8ff" d="M479.97,-414.14C491.01,-409.99 503.79,-405.2 515.64,-400.76"/>
<polygon fill="#63b8ff" stroke="#63b8ff" points="516.63,-404.13 524.77,-397.34 514.18,-397.57 516.63,-404.13"/>
</a>
</g>
</g>
<!-- Node15&#45;&gt;Node12 -->
<g id="edge19_Node000015_Node000012" class="edge">
<title>Node15&#45;&gt;Node12</title>
<g id="a_edge19_Node000015_Node000012"><a xlink:title=" ">
<path fill="none" stroke="#63b8ff" d="M471.42,-356.7C476.06,-359.48 480.84,-362.65 485,-366 503.36,-380.81 502.64,-390.19 521,-405 522.3,-406.05 523.66,-407.08 525.06,-408.08"/>
<polygon fill="#63b8ff" stroke="#63b8ff" points="523.02,-410.93 533.31,-413.47 526.85,-405.07 523.02,-410.93"/>
</a>
</g>
</g>
<!-- Node15&#45;&gt;Node14 -->
<g id="edge24_Node000015_Node000014" class="edge">
<title>Node15&#45;&gt;Node14</title>
<g id="a_edge24_Node000015_Node000014"><a xlink:title=" ">
<path fill="none" stroke="#63b8ff" d="M479.14,-356.82C490.59,-361.23 504,-366.39 516.34,-371.13"/>
<polygon fill="#63b8ff" stroke="#63b8ff" points="514.83,-374.3 525.42,-374.62 517.34,-367.77 514.83,-374.3"/>
</a>
</g>
</g>
<!-- Node16 -->
<g id="Node000016" class="node">
<title>Node16</title>
<g id="a_Node000016"><a xlink:href="app_8c.html#a93c0ec7301f5a783255282e3b8abb1b0" target="_top" xlink:title=" ">
<polygon fill="white" stroke="#666666" points="591,-279.38 521,-279.38 521,-258.62 591,-258.62 591,-279.38"/>
<text text-anchor="middle" x="556" y="-265.88" font-family="Helvetica,sans-Serif" font-size="10.00">w2c_0_162</text>
</a>
</g>
</g>
<!-- Node15&#45;&gt;Node16 -->
<g id="edge20_Node000015_Node000016" class="edge">
<title>Node15&#45;&gt;Node16</title>
<g id="a_edge20_Node000015_Node000016"><a xlink:title=" ">
<path fill="none" stroke="#63b8ff" d="M471.36,-335.22C476,-332.44 480.8,-329.3 485,-326 503.05,-311.83 502.95,-303.17 521,-289 522.31,-287.97 523.68,-286.95 525.09,-285.96"/>
<polygon fill="#63b8ff" stroke="#63b8ff" points="526.88,-288.97 533.37,-280.6 523.07,-283.1 526.88,-288.97"/>
</a>
</g>
</g>
<!-- Node17 -->
<g id="Node000017" class="node">
<title>Node17</title>
<g id="a_Node000017"><a xlink:href="app_8c.html#a3e4910ad59aba030ab7ae7a91004e951" target="_top" xlink:title=" ">
<polygon fill="white" stroke="#666666" points="585,-240.38 527,-240.38 527,-219.62 585,-219.62 585,-240.38"/>
<text text-anchor="middle" x="556" y="-226.88" font-family="Helvetica,sans-Serif" font-size="10.00">w2c_0_2</text>
</a>
</g>
</g>
<!-- Node15&#45;&gt;Node17 -->
<g id="edge21_Node000015_Node000017" class="edge">
<title>Node15&#45;&gt;Node17</title>
<g id="a_edge21_Node000015_Node000017"><a xlink:title=" ">
<path fill="none" stroke="#63b8ff" d="M473.64,-335.27C477.76,-332.64 481.77,-329.54 485,-326 510.22,-298.42 495.78,-277.58 521,-250 521.81,-249.12 522.67,-248.26 523.56,-247.43"/>
<polygon fill="#63b8ff" stroke="#63b8ff" points="525.32,-250.49 531.16,-241.65 521.08,-244.92 525.32,-250.49"/>
</a>
</g>
</g>
<!-- Node18 -->
<g id="Node000018" class="node">
<title>Node18</title>
<g id="a_Node000018"><a xlink:href="app_8c.html#a6c7819012b1ac398a370f2a55dfa0dcd" target="_top" xlink:title=" ">
<polygon fill="white" stroke="#666666" points="588,-357.38 524,-357.38 524,-336.62 588,-336.62 588,-357.38"/>
<text text-anchor="middle" x="556" y="-343.88" font-family="Helvetica,sans-Serif" font-size="10.00">w2c_0_33</text>
</a>
</g>
</g>
<!-- Node15&#45;&gt;Node18 -->
<g id="edge22_Node000015_Node000018" class="edge">
<title>Node15&#45;&gt;Node18</title>
<g id="a_edge22_Node000015_Node000018"><a xlink:title=" ">
<path fill="none" stroke="#63b8ff" d="M484.19,-346.32C493.05,-346.4 502.76,-346.5 512.06,-346.59"/>
<polygon fill="#63b8ff" stroke="#63b8ff" points="511.99,-350.09 522.03,-346.68 512.06,-343.09 511.99,-350.09"/>
</a>
</g>
</g>
<!-- Node19 -->
<g id="Node000019" class="node">
<title>Node19</title>
<g id="a_Node000019"><a xlink:href="app_8c.html#a89669d859b497acd4d687ede771c8589" target="_top" xlink:title=" ">
<polygon fill="white" stroke="#666666" points="588,-318.38 524,-318.38 524,-297.62 588,-297.62 588,-318.38"/>
<text text-anchor="middle" x="556" y="-304.88" font-family="Helvetica,sans-Serif" font-size="10.00">w2c_0_96</text>
</a>
</g>
</g>
<!-- Node15&#45;&gt;Node19 -->
<g id="edge23_Node000015_Node000019" class="edge">
<title>Node15&#45;&gt;Node19</title>
<g id="a_edge23_Node000015_Node000019"><a xlink:title=" ">
<path fill="none" stroke="#63b8ff" d="M480.52,-335.21C491.17,-331.32 503.38,-326.86 514.79,-322.69"/>
<polygon fill="#63b8ff" stroke="#63b8ff" points="515.79,-326.05 523.98,-319.33 513.39,-319.48 515.79,-326.05"/>
</a>
</g>
</g>
<!-- Node15&#45;&gt;Node20 -->
<g id="edge25_Node000015_Node000020" class="edge">
<title>Node15&#45;&gt;Node20</title>
<g id="a_edge25_Node000015_Node000020"><a xlink:title=" ">
<path fill="none" stroke="#63b8ff" d="M474.74,-335.15C478.57,-332.58 482.19,-329.54 485,-326 518.31,-284.06 487.69,-252.94 521,-211 521.53,-210.34 522.08,-209.69 522.66,-209.06"/>
<polygon fill="#63b8ff" stroke="#63b8ff" points="524.69,-211.93 530.1,-202.82 520.19,-206.57 524.69,-211.93"/>
</a>
</g>
</g>
<!-- Node21 -->
<g id="Node000021" class="node">
<title>Node21</title>
<g id="a_Node000021"><a xlink:href="app_8c.html#ae10979e670e507d4373e8cadcb3169aa" target="_top" xlink:title=" ">
<polygon fill="white" stroke="#666666" points="692.88,-202.38 628.88,-202.38 628.88,-181.62 692.88,-181.62 692.88,-202.38"/>
<text text-anchor="middle" x="660.88" y="-188.88" font-family="Helvetica,sans-Serif" font-size="10.00">quiet_nan</text>
</a>
</g>
</g>
<!-- Node20&#45;&gt;Node21 -->
<g id="edge26_Node000020_Node000021" class="edge">
<title>Node20&#45;&gt;Node21</title>
<g id="a_edge26_Node000020_Node000021"><a xlink:title=" ">
<path fill="none" stroke="#63b8ff" d="M590.12,-191.32C598.79,-191.41 608.26,-191.5 617.35,-191.59"/>
<polygon fill="#63b8ff" stroke="#63b8ff" points="617.02,-195.08 627.06,-191.68 617.09,-188.08 617.02,-195.08"/>
</a>
</g>
</g>
<!-- Node25 -->
<g id="Node000025" class="node">
<title>Node25</title>
<g id="a_Node000025"><a xlink:href="app_8c.html#a0f7003812eaf983535ff7979fc047a21" target="_top" xlink:title=" ">
<polygon fill="white" stroke="#666666" points="589.88,-86.38 522.12,-86.38 522.12,-65.62 589.88,-65.62 589.88,-86.38"/>
<text text-anchor="middle" x="556" y="-72.88" font-family="Helvetica,sans-Serif" font-size="10.00">w2c__f353</text>
</a>
</g>
</g>
<!-- Node24&#45;&gt;Node25 -->
<g id="edge30_Node000024_Node000025" class="edge">
<title>Node24&#45;&gt;Node25</title>
<g id="a_edge30_Node000024_Node000025"><a xlink:title=" ">
<path fill="none" stroke="#63b8ff" d="M479.97,-104.14C491.01,-99.99 503.79,-95.2 515.64,-90.76"/>
<polygon fill="#63b8ff" stroke="#63b8ff" points="516.63,-94.13 524.77,-87.34 514.18,-87.57 516.63,-94.13"/>
</a>
</g>
</g>
<!-- Node27 -->
<g id="Node000027" class="node">
<title>Node27</title>
<g id="a_Node000027"><a xlink:href="app_8c.html#ac9cc84763a9c1933e50eedd7a06c17e2" target="_top" xlink:title=" ">
<polygon fill="white" stroke="#666666" points="589.88,-125.38 522.12,-125.38 522.12,-104.62 589.88,-104.62 589.88,-125.38"/>
<text text-anchor="middle" x="556" y="-111.88" font-family="Helvetica,sans-Serif" font-size="10.00">w2c__f480</text>
</a>
</g>
</g>
<!-- Node24&#45;&gt;Node27 -->
<g id="edge34_Node000024_Node000027" class="edge">
<title>Node24&#45;&gt;Node27</title>
<g id="a_edge34_Node000024_Node000027"><a xlink:title=" ">
<path fill="none" stroke="#63b8ff" d="M484.19,-115C492.54,-115 501.64,-115 510.44,-115"/>
<polygon fill="#63b8ff" stroke="#63b8ff" points="510.25,-118.5 520.25,-115 510.25,-111.5 510.25,-118.5"/>
</a>
</g>
</g>
<!-- Node25&#45;&gt;Node4 -->
<g id="edge31_Node000025_Node000004" class="edge">
<title>Node25&#45;&gt;Node4</title>
<g id="a_edge31_Node000025_Node000004"><a xlink:title=" ">
<path fill="none" stroke="#63b8ff" d="M586.2,-65.21C596.74,-61.32 608.81,-56.86 620.1,-52.69"/>
<polygon fill="#63b8ff" stroke="#63b8ff" points="621.01,-56.09 629.18,-49.34 618.58,-49.52 621.01,-56.09"/>
</a>
</g>
</g>
<!-- Node26 -->
<g id="Node000026" class="node">
<title>Node26</title>
<g id="a_Node000026"><a xlink:href="app_8c.html#a4634342addbde677893ffcb45cf639dd" target="_top" xlink:title=" ">
<polygon fill="white" stroke="#666666" points="694.75,-87.38 627,-87.38 627,-66.62 694.75,-66.62 694.75,-87.38"/>
<text text-anchor="middle" x="660.88" y="-73.88" font-family="Helvetica,sans-Serif" font-size="10.00">w2c__f302</text>
</a>
</g>
</g>
<!-- Node25&#45;&gt;Node26 -->
<g id="edge32_Node000025_Node000026" class="edge">
<title>Node25&#45;&gt;Node26</title>
<g id="a_edge32_Node000025_Node000026"><a xlink:title=" ">
<path fill="none" stroke="#63b8ff" d="M590.12,-76.32C598.19,-76.4 606.96,-76.49 615.47,-76.57"/>
<polygon fill="#63b8ff" stroke="#63b8ff" points="615.27,-80.07 625.31,-76.66 615.34,-73.07 615.27,-80.07"/>
</a>
</g>
</g>
<!-- Node26&#45;&gt;Node3 -->
<g id="edge33_Node000026_Node000003" class="edge">
<title>Node26&#45;&gt;Node3</title>
<g id="a_edge33_Node000026_Node000003"><a xlink:title=" ">
<path fill="none" stroke="#63b8ff" d="M695.19,-83.22C702.91,-84.66 711.25,-86.22 719.36,-87.73"/>
<polygon fill="#63b8ff" stroke="#63b8ff" points="718.62,-91.16 729.09,-89.55 719.91,-84.28 718.62,-91.16"/>
</a>
</g>
</g>
<!-- Node27&#45;&gt;Node2 -->
<g id="edge35_Node000027_Node000002" class="edge">
<title>Node27&#45;&gt;Node2</title>
<g id="a_edge35_Node000027_Node000002"><a xlink:title=" ">
<path fill="none" stroke="#63b8ff" d="M565.04,-125.75C572.89,-136.78 584.56,-154.72 591,-172 640.63,-305.16 655.07,-477.69 658.75,-538.02"/>
<polygon fill="#63b8ff" stroke="#63b8ff" points="655.23,-537.84 659.29,-547.62 662.22,-537.44 655.23,-537.84"/>
</a>
</g>
</g>
<!-- Node27&#45;&gt;Node3 -->
<g id="edge38_Node000027_Node000003" class="edge">
<title>Node27&#45;&gt;Node3</title>
<g id="a_edge38_Node000027_Node000003"><a xlink:title=" ">
<path fill="none" stroke="#63b8ff" d="M590.2,-111.95C625.14,-108.73 680.35,-103.66 719.06,-100.1"/>
<polygon fill="#63b8ff" stroke="#63b8ff" points="719.36,-103.58 729,-99.18 718.72,-96.61 719.36,-103.58"/>
</a>
</g>
</g>
<!-- Node27&#45;&gt;Node4 -->
<g id="edge36_Node000027_Node000004" class="edge">
<title>Node27&#45;&gt;Node4</title>
<g id="a_edge36_Node000027_Node000004"><a xlink:title=" ">
<path fill="none" stroke="#63b8ff" d="M577.36,-104.22C582,-101.44 586.8,-98.3 591,-95 609.05,-80.83 609.06,-72.3 627,-58 628.27,-56.99 629.6,-55.98 630.97,-55"/>
<polygon fill="#63b8ff" stroke="#63b8ff" points="632.56,-58.14 638.95,-49.69 628.68,-52.31 632.56,-58.14"/>
</a>
</g>
</g>
<!-- Node27&#45;&gt;Node23 -->
<g id="edge39_Node000027_Node000023" class="edge">
<title>Node27&#45;&gt;Node23</title>
<g id="a_edge39_Node000027_Node000023"><a xlink:title=" ">
<path fill="none" stroke="#63b8ff" d="M586.2,-125.79C596.74,-129.68 608.81,-134.14 620.1,-138.31"/>
<polygon fill="#63b8ff" stroke="#63b8ff" points="618.58,-141.48 629.18,-141.66 621.01,-134.91 618.58,-141.48"/>
</a>
</g>
</g>
<!-- Node27&#45;&gt;Node26 -->
<g id="edge37_Node000027_Node000026" class="edge">
<title>Node27&#45;&gt;Node26</title>
<g id="a_edge37_Node000027_Node000026"><a xlink:title=" ">
<path fill="none" stroke="#63b8ff" d="M586.2,-104.21C596.74,-100.32 608.81,-95.86 620.1,-91.69"/>
<polygon fill="#63b8ff" stroke="#63b8ff" points="621.01,-95.09 629.18,-88.34 618.58,-88.52 621.01,-95.09"/>
</a>
</g>
</g>
<!-- Node28&#45;&gt;Node2 -->
<g id="edge42_Node000028_Node000002" class="edge">
<title>Node28&#45;&gt;Node2</title>
<g id="a_edge42_Node000028_Node000002"><a xlink:title=" ">
<path fill="none" stroke="#63b8ff" d="M144.65,-458.83C166.29,-496.13 244.12,-617 344.12,-617 344.12,-617 344.12,-617 451,-617 514.53,-617 585.21,-592.16 625.91,-575.27"/>
<polygon fill="#63b8ff" stroke="#63b8ff" points="627.09,-578.58 634.93,-571.45 624.36,-572.13 627.09,-578.58"/>
</a>
</g>
</g>
<!-- Node29 -->
<g id="Node000029" class="node">
<title>Node29</title>
<g id="a_Node000029"><a xlink:href="app_8c.html#a8ddfdaf7faae4bc857dc43f2691b9dbe" target="_top" xlink:title=" ">
<polygon fill="white" stroke="#666666" points="275.25,-458.38 207.5,-458.38 207.5,-437.62 275.25,-437.62 275.25,-458.38"/>
<text text-anchor="middle" x="241.38" y="-444.88" font-family="Helvetica,sans-Serif" font-size="10.00">w2c__f306</text>
</a>
</g>
</g>
<!-- Node28&#45;&gt;Node29 -->
<g id="edge43_Node000028_Node000029" class="edge">
<title>Node28&#45;&gt;Node29</title>
<g id="a_edge43_Node000028_Node000029"><a xlink:title=" ">
<path fill="none" stroke="#63b8ff" d="M171.94,-448C179.57,-448 187.81,-448 195.83,-448"/>
<polygon fill="#63b8ff" stroke="#63b8ff" points="195.82,-451.5 205.82,-448 195.82,-444.5 195.82,-451.5"/>
</a>
</g>
</g>
<!-- Node29&#45;&gt;Node2 -->
<g id="edge44_Node000029_Node000002" class="edge">
<title>Node29&#45;&gt;Node2</title>
<g id="a_edge44_Node000029_Node000002"><a xlink:title=" ">
<path fill="none" stroke="#63b8ff" d="M261.51,-458.71C305.59,-482.69 418.37,-540.15 521,-560 552.17,-566.03 588.02,-565.86 615.49,-564.27"/>
<polygon fill="#63b8ff" stroke="#63b8ff" points="615.46,-567.78 625.2,-563.61 614.99,-560.79 615.46,-567.78"/>
</a>
</g>
</g>
<!-- Node30 -->
<g id="Node000030" class="node">
<title>Node30</title>
<g id="a_Node000030"><a xlink:href="app_8c.html#a282da58cdb8a8d86b26b785358ce183a" target="_top" xlink:title=" ">
<polygon fill="white" stroke="#666666" points="379,-236.38 311.25,-236.38 311.25,-215.62 379,-215.62 379,-236.38"/>
<text text-anchor="middle" x="345.12" y="-222.88" font-family="Helvetica,sans-Serif" font-size="10.00">w2c__f504</text>
</a>
</g>
</g>
<!-- Node29&#45;&gt;Node30 -->
<g id="edge45_Node000029_Node000030" class="edge">
<title>Node29&#45;&gt;Node30</title>
<g id="a_edge45_Node000029_Node000030"><a xlink:title=" ">
<path fill="none" stroke="#63b8ff" d="M245.63,-437.44C254.38,-409.75 279.83,-333.09 311.25,-274 316.43,-264.26 323.18,-254.09 329.21,-245.63"/>
<polygon fill="#63b8ff" stroke="#63b8ff" points="331.83,-247.97 334.93,-237.84 326.19,-243.83 331.83,-247.97"/>
</a>
</g>
</g>
<!-- Node30&#45;&gt;Node24 -->
<g id="edge46_Node000030_Node000024" class="edge">
<title>Node30&#45;&gt;Node24</title>
<g id="a_edge46_Node000030_Node000024"><a xlink:title=" ">
<path fill="none" stroke="#63b8ff" d="M353.11,-215.29C364.67,-198.02 389.12,-163.5 415,-139 417.36,-136.77 419.94,-134.57 422.59,-132.48"/>
<polygon fill="#63b8ff" stroke="#63b8ff" points="424.46,-135.46 430.44,-126.72 420.31,-129.82 424.46,-135.46"/>
</a>
</g>
</g>
<!-- Node32 -->
<g id="Node000032" class="node">
<title>Node32</title>
<g id="a_Node000032"><a xlink:href="app_8c.html#a473677c504e5effa085c43e095d81177" target="_top" xlink:title=" ">
<polygon fill="white" stroke="#666666" points="275.25,-203.38 207.5,-203.38 207.5,-182.62 275.25,-182.62 275.25,-203.38"/>
<text text-anchor="middle" x="241.38" y="-189.88" font-family="Helvetica,sans-Serif" font-size="10.00">w2c__f228</text>
</a>
</g>
</g>
<!-- Node31&#45;&gt;Node32 -->
<g id="edge48_Node000031_Node000032" class="edge">
<title>Node31&#45;&gt;Node32</title>
<g id="a_edge48_Node000031_Node000032"><a xlink:title=" ">
<path fill="none" stroke="#63b8ff" d="M171.94,-213.85C179.75,-211.47 188.19,-208.9 196.39,-206.4"/>
<polygon fill="#63b8ff" stroke="#63b8ff" points="197.34,-209.77 205.88,-203.51 195.3,-203.08 197.34,-209.77"/>
</a>
</g>
</g>
<!-- Node33 -->
<g id="Node000033" class="node">
<title>Node33</title>
<g id="a_Node000033"><a xlink:href="app_8c.html#a16393b3c5cd680d67eabb5d0da38635c" target="_top" xlink:title=" ">
<polygon fill="white" stroke="#666666" points="379,-140.38 311.25,-140.38 311.25,-119.62 379,-119.62 379,-140.38"/>
<text text-anchor="middle" x="345.12" y="-126.88" font-family="Helvetica,sans-Serif" font-size="10.00">w2c__f551</text>
</a>
</g>
</g>
<!-- Node32&#45;&gt;Node33 -->
<g id="edge49_Node000032_Node000033" class="edge">
<title>Node32&#45;&gt;Node33</title>
<g id="a_edge49_Node000032_Node000033"><a xlink:title=" ">
<path fill="none" stroke="#63b8ff" d="M259.64,-182.31C275.35,-172.58 298.81,-158.06 317.02,-146.78"/>
<polygon fill="#63b8ff" stroke="#63b8ff" points="318.83,-149.78 325.49,-141.54 315.15,-143.82 318.83,-149.78"/>
</a>
</g>
</g>
<!-- Node33&#45;&gt;Node24 -->
<g id="edge50_Node000033_Node000024" class="edge">
<title>Node33&#45;&gt;Node24</title>
<g id="a_edge50_Node000033_Node000024"><a xlink:title=" ">
<path fill="none" stroke="#63b8ff" d="M379.24,-125.17C387.32,-123.99 396.09,-122.72 404.6,-121.47"/>
<polygon fill="#63b8ff" stroke="#63b8ff" points="405.06,-124.94 414.45,-120.04 404.05,-118.02 405.06,-124.94"/>
</a>
</g>
</g>
</g>
</svg>
