<?xml version="1.0" encoding="UTF-8" standalone="no"?>
<!DOCTYPE svg PUBLIC "-//W3C//DTD SVG 1.1//EN"
 "http://www.w3.org/Graphics/SVG/1.1/DTD/svg11.dtd">
<!-- Generated by graphviz version 12.2.1 (0)
 -->
<!-- Title: wrap_w2c__f458 Pages: 1 -->
<svg width="524pt" height="68pt"
 viewBox="0.00 0.00 523.75 67.75" xmlns="http://www.w3.org/2000/svg" xmlns:xlink="http://www.w3.org/1999/xlink">
<g id="graph0" class="graph" transform="scale(1 1) rotate(0) translate(4 63.75)">
<title>wrap_w2c__f458</title>
<!-- Node1 -->
<g id="Node000001" class="node">
<title>Node1</title>
<g id="a_Node000001"><a xlink:title=" ">
<polygon fill="#999999" stroke="#666666" points="97,-40.75 0,-40.75 0,-20 97,-20 97,-40.75"/>
<text text-anchor="middle" x="48.5" y="-27.25" font-family="Helvetica,sans-Serif" font-size="10.00">wrap_w2c__f458</text>
</a>
</g>
</g>
<!-- Node2 -->
<g id="Node000002" class="node">
<title>Node2</title>
<g id="a_Node000002"><a xlink:href="app_8c.html#a4ad0e4fbbb0cf438eebff97436bc659b" target="_top" xlink:title=" ">
<polygon fill="white" stroke="#666666" points="200.75,-40.75 133,-40.75 133,-20 200.75,-20 200.75,-40.75"/>
<text text-anchor="middle" x="166.88" y="-27.25" font-family="Helvetica,sans-Serif" font-size="10.00">w2c__f458</text>
</a>
</g>
</g>
<!-- Node1&#45;&gt;Node2 -->
<g id="edge1_Node000001_Node000002" class="edge">
<title>Node1&#45;&gt;Node2</title>
<g id="a_edge1_Node000001_Node000002"><a xlink:title=" ">
<path fill="none" stroke="#63b8ff" d="M97.17,-30.38C105.18,-30.38 113.47,-30.38 121.4,-30.38"/>
<polygon fill="#63b8ff" stroke="#63b8ff" points="121.17,-33.88 131.17,-30.38 121.17,-26.88 121.17,-33.88"/>
</a>
</g>
</g>
<!-- Node3 -->
<g id="Node000003" class="node">
<title>Node3</title>
<g id="a_Node000003"><a xlink:href="app_8c.html#a5944e8aaeb89215d16f0703618f3d1cb" target="_top" xlink:title=" ">
<polygon fill="white" stroke="#666666" points="304.5,-21.75 236.75,-21.75 236.75,-1 304.5,-1 304.5,-21.75"/>
<text text-anchor="middle" x="270.62" y="-8.25" font-family="Helvetica,sans-Serif" font-size="10.00">w2c__f346</text>
</a>
</g>
</g>
<!-- Node2&#45;&gt;Node3 -->
<g id="edge2_Node000002_Node000003" class="edge">
<title>Node2&#45;&gt;Node3</title>
<g id="a_edge2_Node000002_Node000003"><a xlink:title=" ">
<path fill="none" stroke="#63b8ff" d="M201.19,-24.15C208.91,-22.71 217.25,-21.16 225.36,-19.64"/>
<polygon fill="#63b8ff" stroke="#63b8ff" points="225.91,-23.1 235.09,-17.82 224.62,-16.22 225.91,-23.1"/>
</a>
</g>
</g>
<!-- Node4 -->
<g id="Node000004" class="node">
<title>Node4</title>
<g id="a_Node000004"><a xlink:href="app_8c.html#ad63b6498cfe22ce747f349eeb23b508f" target="_top" xlink:title=" ">
<polygon fill="white" stroke="#666666" points="413.88,-59.75 342.38,-59.75 342.38,-39 413.88,-39 413.88,-59.75"/>
<text text-anchor="middle" x="378.12" y="-46.25" font-family="Helvetica,sans-Serif" font-size="10.00">wasm_fabs</text>
</a>
</g>
</g>
<!-- Node2&#45;&gt;Node4 -->
<g id="edge6_Node000002_Node000004" class="edge">
<title>Node2&#45;&gt;Node4</title>
<g id="a_edge6_Node000002_Node000004"><a xlink:title=" ">
<path fill="none" stroke="#63b8ff" d="M201.03,-33.39C235.99,-36.56 291.33,-41.59 330.64,-45.15"/>
<polygon fill="#63b8ff" stroke="#63b8ff" points="330.25,-48.63 340.52,-46.05 330.88,-41.66 330.25,-48.63"/>
</a>
</g>
</g>
<!-- Node3&#45;&gt;Node4 -->
<g id="edge3_Node000003_Node000004" class="edge">
<title>Node3&#45;&gt;Node4</title>
<g id="a_edge3_Node000003_Node000004"><a xlink:title=" ">
<path fill="none" stroke="#63b8ff" d="M301.57,-22.16C312.38,-26.05 324.76,-30.51 336.33,-34.68"/>
<polygon fill="#63b8ff" stroke="#63b8ff" points="335.08,-37.95 345.68,-38.05 337.45,-31.37 335.08,-37.95"/>
</a>
</g>
</g>
<!-- Node5 -->
<g id="Node000005" class="node">
<title>Node5</title>
<g id="a_Node000005"><a xlink:href="app_8c.html#abe22e959f965cb0fbcf5b83be18fbe1e" target="_top" xlink:title=" ">
<polygon fill="white" stroke="#666666" points="415.75,-20.75 340.5,-20.75 340.5,0 415.75,0 415.75,-20.75"/>
<text text-anchor="middle" x="378.12" y="-7.25" font-family="Helvetica,sans-Serif" font-size="10.00">wasm_quiet</text>
</a>
</g>
</g>
<!-- Node3&#45;&gt;Node5 -->
<g id="edge4_Node000003_Node000005" class="edge">
<title>Node3&#45;&gt;Node5</title>
<g id="a_edge4_Node000003_Node000005"><a xlink:title=" ">
<path fill="none" stroke="#63b8ff" d="M304.72,-11.06C312.36,-10.99 320.64,-10.91 328.78,-10.83"/>
<polygon fill="#63b8ff" stroke="#63b8ff" points="328.63,-14.33 338.6,-10.74 328.57,-7.34 328.63,-14.33"/>
</a>
</g>
</g>
<!-- Node6 -->
<g id="Node000006" class="node">
<title>Node6</title>
<g id="a_Node000006"><a xlink:href="app_8c.html#ae10979e670e507d4373e8cadcb3169aa" target="_top" xlink:title=" ">
<polygon fill="white" stroke="#666666" points="515.75,-20.75 451.75,-20.75 451.75,0 515.75,0 515.75,-20.75"/>
<text text-anchor="middle" x="483.75" y="-7.25" font-family="Helvetica,sans-Serif" font-size="10.00">quiet_nan</text>
</a>
</g>
</g>
<!-- Node5&#45;&gt;Node6 -->
<g id="edge5_Node000005_Node000006" class="edge">
<title>Node5&#45;&gt;Node6</title>
<g id="a_edge5_Node000005_Node000006"><a xlink:title=" ">
<path fill="none" stroke="#63b8ff" d="M416.24,-10.38C423.97,-10.38 432.17,-10.38 440.08,-10.38"/>
<polygon fill="#63b8ff" stroke="#63b8ff" points="439.85,-13.88 449.85,-10.38 439.85,-6.88 439.85,-13.88"/>
</a>
</g>
</g>
</g>
</svg>
