<?xml version="1.0" encoding="UTF-8" standalone="no"?>
<!DOCTYPE svg PUBLIC "-//W3C//DTD SVG 1.1//EN"
 "http://www.w3.org/Graphics/SVG/1.1/DTD/svg11.dtd">
<!-- Generated by graphviz version 12.2.1 (0)
 -->
<!-- Title: w2c__f430 Pages: 1 -->
<svg width="446pt" height="261pt"
 viewBox="0.00 0.00 445.50 260.75" xmlns="http://www.w3.org/2000/svg" xmlns:xlink="http://www.w3.org/1999/xlink">
<g id="graph0" class="graph" transform="scale(1 1) rotate(0) translate(4 256.75)">
<title>w2c__f430</title>
<!-- Node1 -->
<g id="Node000001" class="node">
<title>Node1</title>
<g id="a_Node000001"><a xlink:title=" ">
<polygon fill="#999999" stroke="#666666" points="437.5,-137.75 369.75,-137.75 369.75,-117 437.5,-117 437.5,-137.75"/>
<text text-anchor="middle" x="403.62" y="-124.25" font-family="Helvetica,sans-Serif" font-size="10.00">w2c__f430</text>
</a>
</g>
</g>
<!-- Node2 -->
<g id="Node000002" class="node">
<title>Node2</title>
<g id="a_Node000002"><a xlink:href="app_8c.html#a7dc7d70793bae217b64eab580fce99cb" target="_top" xlink:title=" ">
<polygon fill="white" stroke="#666666" points="215.38,-233.75 147.62,-233.75 147.62,-213 215.38,-213 215.38,-233.75"/>
<text text-anchor="middle" x="181.5" y="-220.25" font-family="Helvetica,sans-Serif" font-size="10.00">w2c__f215</text>
</a>
</g>
</g>
<!-- Node1&#45;&gt;Node2 -->
<g id="edge1_Node000001_Node000002" class="edge">
<title>Node1&#45;&gt;Node2</title>
<g id="a_edge1_Node000001_Node000002"><a xlink:title=" ">
<path fill="none" stroke="#63b8ff" d="M384.95,-146.24C371.94,-159.05 353.2,-175.42 333.75,-185.38 295.79,-204.8 247.29,-214.71 215.58,-219.46"/>
<polygon fill="#63b8ff" stroke="#63b8ff" points="387.41,-148.72 391.92,-139.13 382.41,-143.82 387.41,-148.72"/>
</a>
</g>
</g>
<!-- Node4 -->
<g id="Node000004" class="node">
<title>Node4</title>
<g id="a_Node000004"><a xlink:href="app_8c.html#a8005d8a3ded5523813d49a79a3a0a58e" target="_top" xlink:title=" ">
<polygon fill="white" stroke="#666666" points="333.75,-176.75 266,-176.75 266,-156 333.75,-156 333.75,-176.75"/>
<text text-anchor="middle" x="299.88" y="-163.25" font-family="Helvetica,sans-Serif" font-size="10.00">w2c__f238</text>
</a>
</g>
</g>
<!-- Node1&#45;&gt;Node4 -->
<g id="edge3_Node000001_Node000004" class="edge">
<title>Node1&#45;&gt;Node4</title>
<g id="a_edge3_Node000001_Node000004"><a xlink:title=" ">
<path fill="none" stroke="#63b8ff" d="M363.6,-142.33C352.1,-146.74 339.74,-151.48 329.07,-155.57"/>
<polygon fill="#63b8ff" stroke="#63b8ff" points="364.78,-145.63 372.87,-138.78 362.28,-139.09 364.78,-145.63"/>
</a>
</g>
</g>
<!-- Node8 -->
<g id="Node000008" class="node">
<title>Node8</title>
<g id="a_Node000008"><a xlink:href="app_8c.html#a512669319fec7c2cbf61fd668bc650c9" target="_top" xlink:title=" ">
<polygon fill="white" stroke="#666666" points="333.75,-252.75 266,-252.75 266,-232 333.75,-232 333.75,-252.75"/>
<text text-anchor="middle" x="299.88" y="-239.25" font-family="Helvetica,sans-Serif" font-size="10.00">w2c__f343</text>
</a>
</g>
</g>
<!-- Node1&#45;&gt;Node8 -->
<g id="edge7_Node000001_Node000008" class="edge">
<title>Node1&#45;&gt;Node8</title>
<g id="a_edge7_Node000001_Node000008"><a xlink:title=" ">
<path fill="none" stroke="#63b8ff" d="M389.84,-147.6C377.02,-166.99 356.05,-196.46 333.75,-218.38 328.91,-223.13 323.08,-227.69 317.68,-231.54"/>
<polygon fill="#63b8ff" stroke="#63b8ff" points="392.75,-149.55 395.25,-139.25 386.87,-145.74 392.75,-149.55"/>
</a>
</g>
</g>
<!-- Node9 -->
<g id="Node000009" class="node">
<title>Node9</title>
<g id="a_Node000009"><a xlink:href="app_8c.html#a6c30f2996216fe44cdda84ff266f8b19" target="_top" xlink:title=" ">
<polygon fill="white" stroke="#666666" points="333.75,-20.75 266,-20.75 266,0 333.75,0 333.75,-20.75"/>
<text text-anchor="middle" x="299.88" y="-7.25" font-family="Helvetica,sans-Serif" font-size="10.00">w2c__f362</text>
</a>
</g>
</g>
<!-- Node1&#45;&gt;Node9 -->
<g id="edge9_Node000001_Node000009" class="edge">
<title>Node1&#45;&gt;Node9</title>
<g id="a_edge9_Node000001_Node000009"><a xlink:title=" ">
<path fill="none" stroke="#63b8ff" d="M391.44,-106.89C379.26,-85.88 358.2,-53.15 333.75,-30.38 330.13,-27.01 325.86,-23.91 321.61,-21.22"/>
<polygon fill="#63b8ff" stroke="#63b8ff" points="388.27,-108.39 396.23,-115.37 394.36,-104.94 388.27,-108.39"/>
</a>
</g>
</g>
<!-- Node12 -->
<g id="Node000012" class="node">
<title>Node12</title>
<g id="a_Node000012"><a xlink:href="app_8c.html#aceab5cda31b6aa6659b94aae079d60c2" target="_top" xlink:title=" ">
<polygon fill="white" stroke="#666666" points="333.75,-137.75 266,-137.75 266,-117 333.75,-117 333.75,-137.75"/>
<text text-anchor="middle" x="299.88" y="-124.25" font-family="Helvetica,sans-Serif" font-size="10.00">w2c__f456</text>
</a>
</g>
</g>
<!-- Node1&#45;&gt;Node12 -->
<g id="edge12_Node000001_Node000012" class="edge">
<title>Node1&#45;&gt;Node12</title>
<g id="a_edge12_Node000001_Node000012"><a xlink:title=" ">
<path fill="none" stroke="#63b8ff" d="M358.07,-127.38C349.96,-127.38 341.63,-127.38 333.92,-127.38"/>
<polygon fill="#63b8ff" stroke="#63b8ff" points="357.79,-130.88 367.79,-127.38 357.79,-123.88 357.79,-130.88"/>
</a>
</g>
</g>
<!-- Node13 -->
<g id="Node000013" class="node">
<title>Node13</title>
<g id="a_Node000013"><a xlink:href="app_8c.html#afb3fbfc35abe0f21d554f326b79a0b76" target="_top" xlink:title=" ">
<polygon fill="white" stroke="#666666" points="333.75,-59.75 266,-59.75 266,-39 333.75,-39 333.75,-59.75"/>
<text text-anchor="middle" x="299.88" y="-46.25" font-family="Helvetica,sans-Serif" font-size="10.00">w2c__f494</text>
</a>
</g>
</g>
<!-- Node1&#45;&gt;Node13 -->
<g id="edge14_Node000001_Node000013" class="edge">
<title>Node1&#45;&gt;Node13</title>
<g id="a_edge14_Node000001_Node000013"><a xlink:title=" ">
<path fill="none" stroke="#63b8ff" d="M382.46,-108.97C369.07,-97.12 350.87,-81.68 333.75,-69.38 329.3,-66.18 324.33,-62.98 319.63,-60.1"/>
<polygon fill="#63b8ff" stroke="#63b8ff" points="379.97,-111.45 389.76,-115.52 384.65,-106.24 379.97,-111.45"/>
</a>
</g>
</g>
<!-- Node14 -->
<g id="Node000014" class="node">
<title>Node14</title>
<g id="a_Node000014"><a xlink:href="app_8c.html#a16670c165bc2e48eba2f100b6b1e21c3" target="_top" xlink:title=" ">
<polygon fill="white" stroke="#666666" points="333.75,-98.75 266,-98.75 266,-78 333.75,-78 333.75,-98.75"/>
<text text-anchor="middle" x="299.88" y="-85.25" font-family="Helvetica,sans-Serif" font-size="10.00">w2c__f495</text>
</a>
</g>
</g>
<!-- Node1&#45;&gt;Node14 -->
<g id="edge17_Node000001_Node000014" class="edge">
<title>Node1&#45;&gt;Node14</title>
<g id="a_edge17_Node000001_Node000014"><a xlink:title=" ">
<path fill="none" stroke="#63b8ff" d="M363.6,-112.42C352.1,-108.01 339.74,-103.27 329.07,-99.18"/>
<polygon fill="#63b8ff" stroke="#63b8ff" points="362.28,-115.66 372.87,-115.97 364.78,-109.12 362.28,-115.66"/>
</a>
</g>
</g>
<!-- Node3 -->
<g id="Node000003" class="node">
<title>Node3</title>
<g id="a_Node000003"><a xlink:href="app_8c.html#a7f65ba02075f2865f478747946b07c94" target="_top" xlink:title=" ">
<polygon fill="white" stroke="#666666" points="97,-233.75 0,-233.75 0,-213 97,-213 97,-233.75"/>
<text text-anchor="middle" x="48.5" y="-220.25" font-family="Helvetica,sans-Serif" font-size="10.00">wrap_w2c__f215</text>
</a>
</g>
</g>
<!-- Node2&#45;&gt;Node3 -->
<g id="edge2_Node000002_Node000003" class="edge">
<title>Node2&#45;&gt;Node3</title>
<g id="a_edge2_Node000002_Node000003"><a xlink:title=" ">
<path fill="none" stroke="#63b8ff" d="M135.95,-223.38C123.53,-223.38 110,-223.38 97.4,-223.38"/>
<polygon fill="#63b8ff" stroke="#63b8ff" points="135.93,-226.88 145.93,-223.38 135.93,-219.88 135.93,-226.88"/>
</a>
</g>
</g>
<!-- Node5 -->
<g id="Node000005" class="node">
<title>Node5</title>
<g id="a_Node000005"><a xlink:href="app_8c.html#ad1dbc2afe7918517df3fc54838f07298" target="_top" xlink:title=" ">
<polygon fill="white" stroke="#666666" points="215.38,-137.75 147.62,-137.75 147.62,-117 215.38,-117 215.38,-137.75"/>
<text text-anchor="middle" x="181.5" y="-124.25" font-family="Helvetica,sans-Serif" font-size="10.00">w2c__f520</text>
</a>
</g>
</g>
<!-- Node4&#45;&gt;Node5 -->
<g id="edge4_Node000004_Node000005" class="edge">
<title>Node4&#45;&gt;Node5</title>
<g id="a_edge4_Node000004_Node000005"><a xlink:title=" ">
<path fill="none" stroke="#63b8ff" d="M255.86,-151.96C242.26,-147.4 227.46,-142.44 214.74,-138.18"/>
<polygon fill="#63b8ff" stroke="#63b8ff" points="254.43,-155.17 265.02,-155.03 256.65,-148.53 254.43,-155.17"/>
</a>
</g>
</g>
<!-- Node7 -->
<g id="Node000007" class="node">
<title>Node7</title>
<g id="a_Node000007"><a xlink:href="app_8c.html#afd9f456edbe9096c8810d692f6da9b76" target="_top" xlink:title=" ">
<polygon fill="white" stroke="#666666" points="230,-176.75 133,-176.75 133,-156 230,-156 230,-176.75"/>
<text text-anchor="middle" x="181.5" y="-163.25" font-family="Helvetica,sans-Serif" font-size="10.00">wrap_w2c__f238</text>
</a>
</g>
</g>
<!-- Node4&#45;&gt;Node7 -->
<g id="edge6_Node000004_Node000007" class="edge">
<title>Node4&#45;&gt;Node7</title>
<g id="a_edge6_Node000004_Node000007"><a xlink:title=" ">
<path fill="none" stroke="#63b8ff" d="M254.28,-166.38C246.39,-166.38 238.14,-166.38 230.16,-166.38"/>
<polygon fill="#63b8ff" stroke="#63b8ff" points="254.01,-169.88 264.01,-166.38 254.01,-162.88 254.01,-169.88"/>
</a>
</g>
</g>
<!-- Node6 -->
<g id="Node000006" class="node">
<title>Node6</title>
<g id="a_Node000006"><a xlink:href="app_8c.html#a130f07b726020d1add9a7ed5178e023a" target="_top" xlink:title=" ">
<polygon fill="white" stroke="#666666" points="97,-137.75 0,-137.75 0,-117 97,-117 97,-137.75"/>
<text text-anchor="middle" x="48.5" y="-124.25" font-family="Helvetica,sans-Serif" font-size="10.00">wrap_w2c__f520</text>
</a>
</g>
</g>
<!-- Node5&#45;&gt;Node6 -->
<g id="edge5_Node000005_Node000006" class="edge">
<title>Node5&#45;&gt;Node6</title>
<g id="a_edge5_Node000005_Node000006"><a xlink:title=" ">
<path fill="none" stroke="#63b8ff" d="M135.95,-127.38C123.53,-127.38 110,-127.38 97.4,-127.38"/>
<polygon fill="#63b8ff" stroke="#63b8ff" points="135.93,-130.88 145.93,-127.38 135.93,-123.88 135.93,-130.88"/>
</a>
</g>
</g>
<!-- Node8&#45;&gt;Node2 -->
<g id="edge8_Node000008_Node000002" class="edge">
<title>Node8&#45;&gt;Node2</title>
<g id="a_edge8_Node000008_Node000002"><a xlink:title=" ">
<path fill="none" stroke="#63b8ff" d="M254.55,-235.14C241.71,-233.04 227.91,-230.79 215.85,-228.82"/>
<polygon fill="#63b8ff" stroke="#63b8ff" points="253.6,-238.53 264.03,-236.69 254.73,-231.62 253.6,-238.53"/>
</a>
</g>
</g>
<!-- Node10 -->
<g id="Node000010" class="node">
<title>Node10</title>
<g id="a_Node000010"><a xlink:href="app_8c.html#a86ae468e235684021eadfdacd5cb9dba" target="_top" xlink:title=" ">
<polygon fill="white" stroke="#666666" points="215.38,-40.75 147.62,-40.75 147.62,-20 215.38,-20 215.38,-40.75"/>
<text text-anchor="middle" x="181.5" y="-27.25" font-family="Helvetica,sans-Serif" font-size="10.00">w2c__f452</text>
</a>
</g>
</g>
<!-- Node9&#45;&gt;Node10 -->
<g id="edge10_Node000009_Node000010" class="edge">
<title>Node9&#45;&gt;Node10</title>
<g id="a_edge10_Node000009_Node000010"><a xlink:title=" ">
<path fill="none" stroke="#63b8ff" d="M254.55,-17.99C241.71,-20.2 227.91,-22.57 215.85,-24.64"/>
<polygon fill="#63b8ff" stroke="#63b8ff" points="254.77,-21.51 264.03,-16.36 253.59,-14.61 254.77,-21.51"/>
</a>
</g>
</g>
<!-- Node11 -->
<g id="Node000011" class="node">
<title>Node11</title>
<g id="a_Node000011"><a xlink:href="app_8c.html#a57ca4f801147f9325a0ea7cc2d7192c5" target="_top" xlink:title=" ">
<polygon fill="white" stroke="#666666" points="97,-40.75 0,-40.75 0,-20 97,-20 97,-40.75"/>
<text text-anchor="middle" x="48.5" y="-27.25" font-family="Helvetica,sans-Serif" font-size="10.00">wrap_w2c__f452</text>
</a>
</g>
</g>
<!-- Node10&#45;&gt;Node11 -->
<g id="edge11_Node000010_Node000011" class="edge">
<title>Node10&#45;&gt;Node11</title>
<g id="a_edge11_Node000010_Node000011"><a xlink:title=" ">
<path fill="none" stroke="#63b8ff" d="M135.95,-30.38C123.53,-30.38 110,-30.38 97.4,-30.38"/>
<polygon fill="#63b8ff" stroke="#63b8ff" points="135.93,-33.88 145.93,-30.38 135.93,-26.88 135.93,-33.88"/>
</a>
</g>
</g>
<!-- Node12&#45;&gt;Node5 -->
<g id="edge13_Node000012_Node000005" class="edge">
<title>Node12&#45;&gt;Node5</title>
<g id="a_edge13_Node000012_Node000005"><a xlink:title=" ">
<path fill="none" stroke="#63b8ff" d="M254.16,-127.38C241.43,-127.38 227.78,-127.38 215.85,-127.38"/>
<polygon fill="#63b8ff" stroke="#63b8ff" points="254.01,-130.88 264.01,-127.38 254.01,-123.88 254.01,-130.88"/>
</a>
</g>
</g>
<!-- Node13&#45;&gt;Node5 -->
<g id="edge16_Node000013_Node000005" class="edge">
<title>Node13&#45;&gt;Node5</title>
<g id="a_edge16_Node000013_Node000005"><a xlink:title=" ">
<path fill="none" stroke="#63b8ff" d="M269.95,-66.35C268.59,-67.34 267.27,-68.35 266,-69.38 247.9,-83.99 249.13,-94.13 230,-107.38 224.92,-110.89 219.13,-113.96 213.38,-116.58"/>
<polygon fill="#63b8ff" stroke="#63b8ff" points="271.55,-69.49 277.92,-61.03 267.66,-63.67 271.55,-69.49"/>
</a>
</g>
</g>
<!-- Node13&#45;&gt;Node10 -->
<g id="edge15_Node000013_Node000010" class="edge">
<title>Node13&#45;&gt;Node10</title>
<g id="a_edge15_Node000013_Node000010"><a xlink:title=" ">
<path fill="none" stroke="#63b8ff" d="M254.55,-42.14C241.71,-40.04 227.91,-37.79 215.85,-35.82"/>
<polygon fill="#63b8ff" stroke="#63b8ff" points="253.6,-45.53 264.03,-43.69 254.73,-38.62 253.6,-45.53"/>
</a>
</g>
</g>
<!-- Node14&#45;&gt;Node5 -->
<g id="edge18_Node000014_Node000005" class="edge">
<title>Node14&#45;&gt;Node5</title>
<g id="a_edge18_Node000014_Node000005"><a xlink:title=" ">
<path fill="none" stroke="#63b8ff" d="M255.86,-102.79C242.26,-107.35 227.46,-112.31 214.74,-116.57"/>
<polygon fill="#63b8ff" stroke="#63b8ff" points="256.65,-106.22 265.02,-99.72 254.43,-99.58 256.65,-106.22"/>
</a>
</g>
</g>
<!-- Node15 -->
<g id="Node000015" class="node">
<title>Node15</title>
<g id="a_Node000015"><a xlink:href="app_8c.html#adc0b425fa65493482058a086393089b5" target="_top" xlink:title=" ">
<polygon fill="white" stroke="#666666" points="230,-98.75 133,-98.75 133,-78 230,-78 230,-98.75"/>
<text text-anchor="middle" x="181.5" y="-85.25" font-family="Helvetica,sans-Serif" font-size="10.00">wrap_w2c__f495</text>
</a>
</g>
</g>
<!-- Node14&#45;&gt;Node15 -->
<g id="edge19_Node000014_Node000015" class="edge">
<title>Node14&#45;&gt;Node15</title>
<g id="a_edge19_Node000014_Node000015"><a xlink:title=" ">
<path fill="none" stroke="#63b8ff" d="M254.28,-88.38C246.39,-88.38 238.14,-88.38 230.16,-88.38"/>
<polygon fill="#63b8ff" stroke="#63b8ff" points="254.01,-91.88 264.01,-88.38 254.01,-84.88 254.01,-91.88"/>
</a>
</g>
</g>
</g>
</svg>
