<?xml version="1.0" encoding="UTF-8" standalone="no"?>
<!DOCTYPE svg PUBLIC "-//W3C//DTD SVG 1.1//EN"
 "http://www.w3.org/Graphics/SVG/1.1/DTD/svg11.dtd">
<!-- Generated by graphviz version 12.2.1 (0)
 -->
<!-- Title: w2c__f566 Pages: 1 -->
<svg width="209pt" height="86pt"
 viewBox="0.00 0.00 208.75 85.75" xmlns="http://www.w3.org/2000/svg" xmlns:xlink="http://www.w3.org/1999/xlink">
<g id="graph0" class="graph" transform="scale(1 1) rotate(0) translate(4 81.75)">
<title>w2c__f566</title>
<!-- Node1 -->
<g id="Node000001" class="node">
<title>Node1</title>
<g id="a_Node000001"><a xlink:title=" ">
<polygon fill="#999999" stroke="#666666" points="200.75,-59.75 133,-59.75 133,-39 200.75,-39 200.75,-59.75"/>
<text text-anchor="middle" x="166.88" y="-46.25" font-family="Helvetica,sans-Serif" font-size="10.00">w2c__f566</text>
</a>
</g>
</g>
<!-- Node2 -->
<g id="Node000002" class="node">
<title>Node2</title>
<g id="a_Node000002"><a xlink:href="app_8c.html#ac17a7b0911ba167adf3030099c144169" target="_top" xlink:title=" ">
<polygon fill="white" stroke="#666666" points="82.38,-59.75 14.62,-59.75 14.62,-39 82.38,-39 82.38,-59.75"/>
<text text-anchor="middle" x="48.5" y="-46.25" font-family="Helvetica,sans-Serif" font-size="10.00">w2c__f321</text>
</a>
</g>
</g>
<!-- Node1&#45;&gt;Node2 -->
<g id="edge1_Node000001_Node000002" class="edge">
<title>Node1&#45;&gt;Node2</title>
<g id="a_edge1_Node000001_Node000002"><a xlink:title=" ">
<path fill="none" stroke="#63b8ff" d="M121.16,-42.79C108.43,-42.47 94.78,-42.61 82.85,-43.2"/>
<polygon fill="#63b8ff" stroke="#63b8ff" points="120.89,-46.28 131.01,-43.15 121.15,-39.29 120.89,-46.28"/>
</a>
</g>
</g>
<!-- Node3 -->
<g id="Node000003" class="node">
<title>Node3</title>
<g id="a_Node000003"><a xlink:href="app_8c.html#a6bb128e62a053eb103507dba0e290d1f" target="_top" xlink:title=" ">
<polygon fill="white" stroke="#666666" points="97,-20.75 0,-20.75 0,0 97,0 97,-20.75"/>
<text text-anchor="middle" x="48.5" y="-7.25" font-family="Helvetica,sans-Serif" font-size="10.00">wrap_w2c__f566</text>
</a>
</g>
</g>
<!-- Node1&#45;&gt;Node3 -->
<g id="edge4_Node000001_Node000003" class="edge">
<title>Node1&#45;&gt;Node3</title>
<g id="a_edge4_Node000001_Node000003"><a xlink:title=" ">
<path fill="none" stroke="#63b8ff" d="M122.86,-34.96C109.26,-30.4 94.46,-25.44 81.74,-21.18"/>
<polygon fill="#63b8ff" stroke="#63b8ff" points="121.43,-38.17 132.02,-38.03 123.65,-31.53 121.43,-38.17"/>
</a>
</g>
</g>
<!-- Node2&#45;&gt;Node1 -->
<g id="edge3_Node000002_Node000001" class="edge">
<title>Node2&#45;&gt;Node1</title>
<g id="a_edge3_Node000002_Node000001"><a xlink:title=" ">
<path fill="none" stroke="#63b8ff" d="M94.22,-55.96C106.95,-56.28 120.6,-56.14 132.53,-55.55"/>
<polygon fill="#63b8ff" stroke="#63b8ff" points="94.49,-52.47 84.37,-55.6 94.23,-59.46 94.49,-52.47"/>
</a>
</g>
</g>
<!-- Node2&#45;&gt;Node2 -->
<g id="edge2_Node000002_Node000002" class="edge">
<title>Node2&#45;&gt;Node2</title>
<g id="a_edge2_Node000002_Node000002"><a xlink:title=" ">
<path fill="none" stroke="#63b8ff" d="M69.33,-71.24C66.57,-75.08 59.63,-77.75 48.5,-77.75 28.15,-77.75 21.8,-68.81 29.43,-60.15"/>
<polygon fill="#63b8ff" stroke="#63b8ff" points="72.83,-70.97 67.81,-61.64 65.92,-72.07 72.83,-70.97"/>
</a>
</g>
</g>
</g>
</svg>
