<?xml version="1.0" encoding="UTF-8" standalone="no"?>
<!DOCTYPE svg PUBLIC "-//W3C//DTD SVG 1.1//EN"
 "http://www.w3.org/Graphics/SVG/1.1/DTD/svg11.dtd">
<!-- Generated by graphviz version 12.2.1 (0)
 -->
<!-- Title: w2c__f411 Pages: 1 -->
<svg width="498pt" height="384pt"
 viewBox="0.00 0.00 498.25 384.27" xmlns="http://www.w3.org/2000/svg" xmlns:xlink="http://www.w3.org/1999/xlink">
<g id="graph0" class="graph" transform="scale(1 1) rotate(0) translate(4 380.27)">
<title>w2c__f411</title>
<!-- Node1 -->
<g id="Node000001" class="node">
<title>Node1</title>
<g id="a_Node000001"><a xlink:title=" ">
<polygon fill="#999999" stroke="#666666" points="67.75,-137.75 0,-137.75 0,-117 67.75,-117 67.75,-137.75"/>
<text text-anchor="middle" x="33.88" y="-124.25" font-family="Helvetica,sans-Serif" font-size="10.00">w2c__f411</text>
</a>
</g>
</g>
<!-- Node2 -->
<g id="Node000002" class="node">
<title>Node2</title>
<g id="a_Node000002"><a xlink:href="app_8c.html#a94ba0efd8da5ce4859ae69909ed227f4" target="_top" xlink:title=" ">
<polygon fill="white" stroke="#666666" points="175.25,-215.75 107.5,-215.75 107.5,-195 175.25,-195 175.25,-215.75"/>
<text text-anchor="middle" x="141.38" y="-202.25" font-family="Helvetica,sans-Serif" font-size="10.00">w2c__f213</text>
</a>
</g>
</g>
<!-- Node1&#45;&gt;Node2 -->
<g id="edge1_Node000001_Node000002" class="edge">
<title>Node1&#45;&gt;Node2</title>
<g id="a_edge1_Node000001_Node000002"><a xlink:title=" ">
<path fill="none" stroke="#63b8ff" d="M46.01,-137.97C59.18,-150.2 82.07,-170.55 103.75,-185.38 105.54,-186.6 107.42,-187.82 109.34,-189"/>
<polygon fill="#63b8ff" stroke="#63b8ff" points="107.32,-191.88 117.72,-193.89 110.84,-185.83 107.32,-191.88"/>
</a>
</g>
</g>
<!-- Node8 -->
<g id="Node000008" class="node">
<title>Node8</title>
<g id="a_Node000008"><a xlink:href="app_8c.html#a433dfe09b8150b58f5cef673948d9ed7" target="_top" xlink:title=" ">
<polygon fill="white" stroke="#666666" points="175.25,-310.75 107.5,-310.75 107.5,-290 175.25,-290 175.25,-310.75"/>
<text text-anchor="middle" x="141.38" y="-297.25" font-family="Helvetica,sans-Serif" font-size="10.00">w2c__f277</text>
</a>
</g>
</g>
<!-- Node1&#45;&gt;Node8 -->
<g id="edge10_Node000001_Node000008" class="edge">
<title>Node1&#45;&gt;Node8</title>
<g id="a_edge10_Node000001_Node000008"><a xlink:title=" ">
<path fill="none" stroke="#63b8ff" d="M41.47,-138.2C58.72,-166.47 105.34,-242.93 127.86,-279.86"/>
<polygon fill="#63b8ff" stroke="#63b8ff" points="124.8,-281.55 132.99,-288.26 130.77,-277.9 124.8,-281.55"/>
</a>
</g>
</g>
<!-- Node9 -->
<g id="Node000009" class="node">
<title>Node9</title>
<g id="a_Node000009"><a xlink:href="app_8c.html#a8833c017b322ec1b941ea00b73fc4ab5" target="_top" xlink:title=" ">
<polygon fill="white" stroke="#666666" points="175.25,-176.75 107.5,-176.75 107.5,-156 175.25,-156 175.25,-176.75"/>
<text text-anchor="middle" x="141.38" y="-163.25" font-family="Helvetica,sans-Serif" font-size="10.00">w2c__f308</text>
</a>
</g>
</g>
<!-- Node1&#45;&gt;Node9 -->
<g id="edge15_Node000001_Node000009" class="edge">
<title>Node1&#45;&gt;Node9</title>
<g id="a_edge15_Node000001_Node000009"><a xlink:title=" ">
<path fill="none" stroke="#63b8ff" d="M64.26,-138.24C75.47,-142.38 88.43,-147.17 100.45,-151.62"/>
<polygon fill="#63b8ff" stroke="#63b8ff" points="99.13,-154.86 109.73,-155.04 101.56,-148.29 99.13,-154.86"/>
</a>
</g>
</g>
<!-- Node11 -->
<g id="Node000011" class="node">
<title>Node11</title>
<g id="a_Node000011"><a xlink:href="app_8c.html#a819bb0d5a870d8c4bbb6b9a791102333" target="_top" xlink:title=" ">
<polygon fill="white" stroke="#666666" points="175.25,-137.75 107.5,-137.75 107.5,-117 175.25,-117 175.25,-137.75"/>
<text text-anchor="middle" x="141.38" y="-124.25" font-family="Helvetica,sans-Serif" font-size="10.00">w2c__f322</text>
</a>
</g>
</g>
<!-- Node1&#45;&gt;Node11 -->
<g id="edge18_Node000001_Node000011" class="edge">
<title>Node1&#45;&gt;Node11</title>
<g id="a_edge18_Node000001_Node000011"><a xlink:title=" ">
<path fill="none" stroke="#63b8ff" d="M67.97,-127.38C76.72,-127.38 86.31,-127.38 95.58,-127.38"/>
<polygon fill="#63b8ff" stroke="#63b8ff" points="95.52,-130.88 105.52,-127.38 95.52,-123.88 95.52,-130.88"/>
</a>
</g>
</g>
<!-- Node12 -->
<g id="Node000012" class="node">
<title>Node12</title>
<g id="a_Node000012"><a xlink:href="app_8c.html#a06cdee2573cd7febfe4cfde241e5574b" target="_top" xlink:title=" ">
<polygon fill="white" stroke="#666666" points="175.25,-98.75 107.5,-98.75 107.5,-78 175.25,-78 175.25,-98.75"/>
<text text-anchor="middle" x="141.38" y="-85.25" font-family="Helvetica,sans-Serif" font-size="10.00">w2c__f404</text>
</a>
</g>
</g>
<!-- Node1&#45;&gt;Node12 -->
<g id="edge19_Node000001_Node000012" class="edge">
<title>Node1&#45;&gt;Node12</title>
<g id="a_edge19_Node000001_Node000012"><a xlink:title=" ">
<path fill="none" stroke="#63b8ff" d="M64.26,-116.51C75.47,-112.37 88.43,-107.58 100.45,-103.13"/>
<polygon fill="#63b8ff" stroke="#63b8ff" points="101.56,-106.46 109.73,-99.71 99.13,-99.89 101.56,-106.46"/>
</a>
</g>
</g>
<!-- Node13 -->
<g id="Node000013" class="node">
<title>Node13</title>
<g id="a_Node000013"><a xlink:href="app_8c.html#a55f0e3687ea8fa5d5cc06af63f503791" target="_top" xlink:title=" ">
<polygon fill="white" stroke="#666666" points="175.25,-59.75 107.5,-59.75 107.5,-39 175.25,-39 175.25,-59.75"/>
<text text-anchor="middle" x="141.38" y="-46.25" font-family="Helvetica,sans-Serif" font-size="10.00">w2c__f473</text>
</a>
</g>
</g>
<!-- Node1&#45;&gt;Node13 -->
<g id="edge20_Node000001_Node000013" class="edge">
<title>Node1&#45;&gt;Node13</title>
<g id="a_edge20_Node000001_Node000013"><a xlink:title=" ">
<path fill="none" stroke="#63b8ff" d="M46.01,-116.78C59.18,-104.55 82.07,-84.2 103.75,-69.38 105.54,-68.15 107.42,-66.93 109.34,-65.75"/>
<polygon fill="#63b8ff" stroke="#63b8ff" points="110.84,-68.92 117.72,-60.86 107.32,-62.87 110.84,-68.92"/>
</a>
</g>
</g>
<!-- Node15 -->
<g id="Node000015" class="node">
<title>Node15</title>
<g id="a_Node000015"><a xlink:href="app_8c.html#a05ca6b8170e78cefae8ec5b6fc09939b" target="_top" xlink:title=" ">
<polygon fill="white" stroke="#666666" points="179,-20.75 103.75,-20.75 103.75,0 179,0 179,-20.75"/>
<text text-anchor="middle" x="141.38" y="-7.25" font-family="Helvetica,sans-Serif" font-size="10.00">wasm_fabsf</text>
</a>
</g>
</g>
<!-- Node1&#45;&gt;Node15 -->
<g id="edge22_Node000001_Node000015" class="edge">
<title>Node1&#45;&gt;Node15</title>
<g id="a_edge22_Node000001_Node000015"><a xlink:title=" ">
<path fill="none" stroke="#63b8ff" d="M40.4,-116.56C50.69,-97.25 74.42,-56.44 103.75,-30.38 104.97,-29.29 106.26,-28.25 107.59,-27.24"/>
<polygon fill="#63b8ff" stroke="#63b8ff" points="109.15,-30.4 115.59,-21.98 105.31,-24.55 109.15,-30.4"/>
</a>
</g>
</g>
<!-- Node3 -->
<g id="Node000003" class="node">
<title>Node3</title>
<g id="a_Node000003"><a xlink:href="app_8c.html#ac7c3d97ad3659d9d7492f82b3a7a740d" target="_top" xlink:title=" ">
<polygon fill="white" stroke="#666666" points="282.75,-234.75 215,-234.75 215,-214 282.75,-214 282.75,-234.75"/>
<text text-anchor="middle" x="248.88" y="-221.25" font-family="Helvetica,sans-Serif" font-size="10.00">w2c__f218</text>
</a>
</g>
</g>
<!-- Node2&#45;&gt;Node3 -->
<g id="edge2_Node000002_Node000003" class="edge">
<title>Node2&#45;&gt;Node3</title>
<g id="a_edge2_Node000002_Node000003"><a xlink:title=" ">
<path fill="none" stroke="#63b8ff" d="M175.47,-211.33C184.32,-212.93 194.03,-214.68 203.38,-216.36"/>
<polygon fill="#63b8ff" stroke="#63b8ff" points="202.59,-219.78 213.05,-218.1 203.83,-212.89 202.59,-219.78"/>
</a>
</g>
</g>
<!-- Node5 -->
<g id="Node000005" class="node">
<title>Node5</title>
<g id="a_Node000005"><a xlink:href="app_8c.html#a674f6e81761467d0a8dc6d2a425eda9f" target="_top" xlink:title=" ">
<polygon fill="white" stroke="#666666" points="490.25,-234.75 422.5,-234.75 422.5,-214 490.25,-214 490.25,-234.75"/>
<text text-anchor="middle" x="456.38" y="-221.25" font-family="Helvetica,sans-Serif" font-size="10.00">w2c__f498</text>
</a>
</g>
</g>
<!-- Node2&#45;&gt;Node5 -->
<g id="edge8_Node000002_Node000005" class="edge">
<title>Node2&#45;&gt;Node5</title>
<g id="a_edge8_Node000002_Node000005"><a xlink:title=" ">
<path fill="none" stroke="#63b8ff" d="M175.59,-204.35C204.05,-203.72 246.13,-203.37 282.75,-205.38 326.43,-207.77 376.05,-213.56 410.85,-218.12"/>
<polygon fill="#63b8ff" stroke="#63b8ff" points="410.17,-221.56 420.55,-219.41 411.1,-214.62 410.17,-221.56"/>
</a>
</g>
</g>
<!-- Node6 -->
<g id="Node000006" class="node">
<title>Node6</title>
<g id="a_Node000006"><a xlink:href="app_8c.html#a672569c91ebb1d5055d737b56ec296a7" target="_top" xlink:title=" ">
<polygon fill="white" stroke="#666666" points="490.25,-177.75 422.5,-177.75 422.5,-157 490.25,-157 490.25,-177.75"/>
<text text-anchor="middle" x="456.38" y="-164.25" font-family="Helvetica,sans-Serif" font-size="10.00">w2c__f585</text>
</a>
</g>
</g>
<!-- Node2&#45;&gt;Node6 -->
<g id="edge9_Node000002_Node000006" class="edge">
<title>Node2&#45;&gt;Node6</title>
<g id="a_edge9_Node000002_Node000006"><a xlink:title=" ">
<path fill="none" stroke="#63b8ff" d="M175.52,-196.03C210.71,-186.62 268.14,-172.77 318.75,-167.38 349.36,-164.11 384.05,-164.16 410.82,-165"/>
<polygon fill="#63b8ff" stroke="#63b8ff" points="410.51,-168.49 420.63,-165.36 410.76,-161.49 410.51,-168.49"/>
</a>
</g>
</g>
<!-- Node7 -->
<g id="Node000007" class="node">
<title>Node7</title>
<g id="a_Node000007"><a xlink:href="app_8c.html#ab07e4056f5c12e00d750c88d85ec77bb" target="_top" xlink:title=" ">
<polygon fill="white" stroke="#666666" points="386.5,-272.75 318.75,-272.75 318.75,-252 386.5,-252 386.5,-272.75"/>
<text text-anchor="middle" x="352.62" y="-259.25" font-family="Helvetica,sans-Serif" font-size="10.00">w2c__f415</text>
</a>
</g>
</g>
<!-- Node2&#45;&gt;Node7 -->
<g id="edge7_Node000002_Node000007" class="edge">
<title>Node2&#45;&gt;Node7</title>
<g id="a_edge7_Node000002_Node000007"><a xlink:title=" ">
<path fill="none" stroke="#63b8ff" d="M158.96,-216.17C173.23,-224.93 194.67,-236.86 215,-243.38 244.8,-252.92 279.77,-257.68 306.87,-260.04"/>
<polygon fill="#63b8ff" stroke="#63b8ff" points="306.59,-263.53 316.84,-260.82 307.14,-256.55 306.59,-263.53"/>
</a>
</g>
</g>
<!-- Node4 -->
<g id="Node000004" class="node">
<title>Node4</title>
<g id="a_Node000004"><a xlink:href="app_8c.html#a268eeda7b1a075e4b680bac34cdfebdb" target="_top" xlink:title=" ">
<polygon fill="white" stroke="#666666" points="386.5,-196.75 318.75,-196.75 318.75,-176 386.5,-176 386.5,-196.75"/>
<text text-anchor="middle" x="352.62" y="-183.25" font-family="Helvetica,sans-Serif" font-size="10.00">w2c__f259</text>
</a>
</g>
</g>
<!-- Node3&#45;&gt;Node4 -->
<g id="edge3_Node000003_Node000004" class="edge">
<title>Node3&#45;&gt;Node4</title>
<g id="a_edge3_Node000003_Node000004"><a xlink:title=" ">
<path fill="none" stroke="#63b8ff" d="M278.76,-213.59C289.07,-209.74 300.88,-205.33 311.94,-201.2"/>
<polygon fill="#63b8ff" stroke="#63b8ff" points="313.11,-204.5 321.25,-197.72 310.66,-197.94 313.11,-204.5"/>
</a>
</g>
</g>
<!-- Node3&#45;&gt;Node7 -->
<g id="edge6_Node000003_Node000007" class="edge">
<title>Node3&#45;&gt;Node7</title>
<g id="a_edge6_Node000003_Node000007"><a xlink:title=" ">
<path fill="none" stroke="#63b8ff" d="M278.76,-235.16C289.07,-239.01 300.88,-243.42 311.94,-247.55"/>
<polygon fill="#63b8ff" stroke="#63b8ff" points="310.66,-250.81 321.25,-251.03 313.11,-244.25 310.66,-250.81"/>
</a>
</g>
</g>
<!-- Node4&#45;&gt;Node5 -->
<g id="edge4_Node000004_Node000005" class="edge">
<title>Node4&#45;&gt;Node5</title>
<g id="a_edge4_Node000004_Node000005"><a xlink:title=" ">
<path fill="none" stroke="#63b8ff" d="M382.51,-197.16C392.82,-201.01 404.63,-205.42 415.69,-209.55"/>
<polygon fill="#63b8ff" stroke="#63b8ff" points="414.41,-212.81 425,-213.03 416.86,-206.25 414.41,-212.81"/>
</a>
</g>
</g>
<!-- Node4&#45;&gt;Node6 -->
<g id="edge5_Node000004_Node000006" class="edge">
<title>Node4&#45;&gt;Node6</title>
<g id="a_edge5_Node000004_Node000006"><a xlink:title=" ">
<path fill="none" stroke="#63b8ff" d="M386.94,-180.15C394.66,-178.71 403,-177.16 411.11,-175.64"/>
<polygon fill="#63b8ff" stroke="#63b8ff" points="411.66,-179.1 420.84,-173.82 410.37,-172.22 411.66,-179.1"/>
</a>
</g>
</g>
<!-- Node8&#45;&gt;Node3 -->
<g id="edge11_Node000008_Node000003" class="edge">
<title>Node8&#45;&gt;Node3</title>
<g id="a_edge11_Node000008_Node000003"><a xlink:title=" ">
<path fill="none" stroke="#63b8ff" d="M157.04,-289.81C174.27,-277.4 203.09,-256.64 223.65,-241.83"/>
<polygon fill="#63b8ff" stroke="#63b8ff" points="225.69,-244.67 231.76,-235.98 221.6,-238.99 225.69,-244.67"/>
</a>
</g>
</g>
<!-- Node8&#45;&gt;Node5 -->
<g id="edge13_Node000008_Node000005" class="edge">
<title>Node8&#45;&gt;Node5</title>
<g id="a_edge13_Node000008_Node000005"><a xlink:title=" ">
<path fill="none" stroke="#63b8ff" d="M152.5,-310.86C165.55,-323.55 189.6,-344.22 215,-352.38 287.57,-375.68 321.07,-391.47 386.5,-352.38 425.15,-329.28 443.38,-276.2 450.88,-246.15"/>
<polygon fill="#63b8ff" stroke="#63b8ff" points="454.24,-247.19 453.06,-236.66 447.41,-245.62 454.24,-247.19"/>
</a>
</g>
</g>
<!-- Node8&#45;&gt;Node6 -->
<g id="edge14_Node000008_Node000006" class="edge">
<title>Node8&#45;&gt;Node6</title>
<g id="a_edge14_Node000008_Node000006"><a xlink:title=" ">
<path fill="none" stroke="#63b8ff" d="M175.34,-307.89C226.06,-317.44 323.92,-327.58 386.5,-281.38 416.57,-259.17 402.09,-236.68 422.5,-205.38 426.75,-198.85 432.04,-192.26 437.11,-186.44"/>
<polygon fill="#63b8ff" stroke="#63b8ff" points="439.59,-188.92 443.73,-179.16 434.41,-184.21 439.59,-188.92"/>
</a>
</g>
</g>
<!-- Node8&#45;&gt;Node7 -->
<g id="edge12_Node000008_Node000007" class="edge">
<title>Node8&#45;&gt;Node7</title>
<g id="a_edge12_Node000008_Node000007"><a xlink:title=" ">
<path fill="none" stroke="#63b8ff" d="M175.61,-294.99C204.09,-290.31 246.17,-283.22 282.75,-276.38 290.66,-274.9 299.06,-273.25 307.18,-271.62"/>
<polygon fill="#63b8ff" stroke="#63b8ff" points="307.8,-275.07 316.9,-269.65 306.41,-268.21 307.8,-275.07"/>
</a>
</g>
</g>
<!-- Node10 -->
<g id="Node000010" class="node">
<title>Node10</title>
<g id="a_Node000010"><a xlink:href="app_8c.html#a69141c0140f000f9e7b4001ac46fbf92" target="_top" xlink:title=" ">
<polygon fill="white" stroke="#666666" points="386.5,-120.75 318.75,-120.75 318.75,-100 386.5,-100 386.5,-120.75"/>
<text text-anchor="middle" x="352.62" y="-107.25" font-family="Helvetica,sans-Serif" font-size="10.00">w2c__f446</text>
</a>
</g>
</g>
<!-- Node9&#45;&gt;Node10 -->
<g id="edge16_Node000009_Node000010" class="edge">
<title>Node9&#45;&gt;Node10</title>
<g id="a_edge16_Node000009_Node000010"><a xlink:title=" ">
<path fill="none" stroke="#63b8ff" d="M163.15,-155.61C177.41,-148.63 196.94,-139.85 215,-134.38 245.15,-125.23 280.16,-119.17 307.19,-115.42"/>
<polygon fill="#63b8ff" stroke="#63b8ff" points="307.3,-118.94 316.75,-114.15 306.38,-112 307.3,-118.94"/>
</a>
</g>
</g>
<!-- Node10&#45;&gt;Node6 -->
<g id="edge17_Node000010_Node000006" class="edge">
<title>Node10&#45;&gt;Node6</title>
<g id="a_edge17_Node000010_Node000006"><a xlink:title=" ">
<path fill="none" stroke="#63b8ff" d="M372.76,-121.1C387.87,-129.56 409.2,-141.51 426.4,-151.15"/>
<polygon fill="#63b8ff" stroke="#63b8ff" points="424.22,-153.93 434.66,-155.77 427.64,-147.83 424.22,-153.93"/>
</a>
</g>
</g>
<!-- Node14 -->
<g id="Node000014" class="node">
<title>Node14</title>
<g id="a_Node000014"><a xlink:href="app_8c.html#ab5fcbcf768e56d91e9aa71bba4a24166" target="_top" xlink:title=" ">
<polygon fill="white" stroke="#666666" points="282.75,-59.75 215,-59.75 215,-39 282.75,-39 282.75,-59.75"/>
<text text-anchor="middle" x="248.88" y="-46.25" font-family="Helvetica,sans-Serif" font-size="10.00">w2c__f221</text>
</a>
</g>
</g>
<!-- Node13&#45;&gt;Node14 -->
<g id="edge21_Node000013_Node000014" class="edge">
<title>Node13&#45;&gt;Node14</title>
<g id="a_edge21_Node000013_Node000014"><a xlink:title=" ">
<path fill="none" stroke="#63b8ff" d="M175.47,-49.38C184.22,-49.38 193.81,-49.38 203.08,-49.38"/>
<polygon fill="#63b8ff" stroke="#63b8ff" points="203.02,-52.88 213.02,-49.38 203.02,-45.88 203.02,-52.88"/>
</a>
</g>
</g>
</g>
</svg>
