<?xml version="1.0" encoding="UTF-8" standalone="no"?>
<!DOCTYPE svg PUBLIC "-//W3C//DTD SVG 1.1//EN"
 "http://www.w3.org/Graphics/SVG/1.1/DTD/svg11.dtd">
<!-- Generated by graphviz version 12.2.1 (0)
 -->
<!-- Title: w2c__f396 Pages: 1 -->
<svg width="595pt" height="146pt"
 viewBox="0.00 0.00 594.50 145.75" xmlns="http://www.w3.org/2000/svg" xmlns:xlink="http://www.w3.org/1999/xlink">
<g id="graph0" class="graph" transform="scale(1 1) rotate(0) translate(4 141.75)">
<title>w2c__f396</title>
<!-- Node1 -->
<g id="Node000001" class="node">
<title>Node1</title>
<g id="a_Node000001"><a xlink:title=" ">
<polygon fill="#999999" stroke="#666666" points="586.5,-79.75 518.75,-79.75 518.75,-59 586.5,-59 586.5,-79.75"/>
<text text-anchor="middle" x="552.62" y="-66.25" font-family="Helvetica,sans-Serif" font-size="10.00">w2c__f396</text>
</a>
</g>
</g>
<!-- Node2 -->
<g id="Node000002" class="node">
<title>Node2</title>
<g id="a_Node000002"><a xlink:href="app_8c.html#a3fc93ee2d917dee38e30c8d32867106f" target="_top" xlink:title=" ">
<polygon fill="white" stroke="#666666" points="379,-107.75 311.25,-107.75 311.25,-87 379,-87 379,-107.75"/>
<text text-anchor="middle" x="345.12" y="-94.25" font-family="Helvetica,sans-Serif" font-size="10.00">w2c__f339</text>
</a>
</g>
</g>
<!-- Node1&#45;&gt;Node2 -->
<g id="edge1_Node000001_Node000002" class="edge">
<title>Node1&#45;&gt;Node2</title>
<g id="a_edge1_Node000001_Node000002"><a xlink:title=" ">
<path fill="none" stroke="#63b8ff" d="M507.46,-82.98C499.31,-85.09 490.82,-87.01 482.75,-88.38 447.83,-94.28 407.27,-96.36 379.47,-97.07"/>
<polygon fill="#63b8ff" stroke="#63b8ff" points="508.11,-86.43 516.84,-80.43 506.27,-79.68 508.11,-86.43"/>
</a>
</g>
</g>
<!-- Node10 -->
<g id="Node000010" class="node">
<title>Node10</title>
<g id="a_Node000010"><a xlink:href="app_8c.html#aae3fe6c78a36d5d64862fe809f830e7c" target="_top" xlink:title=" ">
<polygon fill="white" stroke="#666666" points="379,-59.75 311.25,-59.75 311.25,-39 379,-39 379,-59.75"/>
<text text-anchor="middle" x="345.12" y="-46.25" font-family="Helvetica,sans-Serif" font-size="10.00">w2c__f340</text>
</a>
</g>
</g>
<!-- Node1&#45;&gt;Node10 -->
<g id="edge9_Node000001_Node000010" class="edge">
<title>Node1&#45;&gt;Node10</title>
<g id="a_edge9_Node000001_Node000010"><a xlink:title=" ">
<path fill="none" stroke="#63b8ff" d="M508.03,-55.51C499.72,-53.39 491.03,-51.53 482.75,-50.38 447.74,-45.5 407.2,-45.96 379.43,-47.2"/>
<polygon fill="#63b8ff" stroke="#63b8ff" points="507.03,-58.86 517.6,-58.11 508.87,-52.11 507.03,-58.86"/>
</a>
</g>
</g>
<!-- Node13 -->
<g id="Node000013" class="node">
<title>Node13</title>
<g id="a_Node000013"><a xlink:href="app_8c.html#a309a40d49274226f4e4f391a0a617f71" target="_top" xlink:title=" ">
<polygon fill="white" stroke="#666666" points="482.75,-79.75 415,-79.75 415,-59 482.75,-59 482.75,-79.75"/>
<text text-anchor="middle" x="448.88" y="-66.25" font-family="Helvetica,sans-Serif" font-size="10.00">w2c__f430</text>
</a>
</g>
</g>
<!-- Node1&#45;&gt;Node13 -->
<g id="edge19_Node000001_Node000013" class="edge">
<title>Node1&#45;&gt;Node13</title>
<g id="a_edge19_Node000001_Node000013"><a xlink:title=" ">
<path fill="none" stroke="#63b8ff" d="M507.07,-69.38C498.96,-69.38 490.63,-69.38 482.92,-69.38"/>
<polygon fill="#63b8ff" stroke="#63b8ff" points="506.79,-72.88 516.79,-69.38 506.79,-65.88 506.79,-72.88"/>
</a>
</g>
</g>
<!-- Node3 -->
<g id="Node000003" class="node">
<title>Node3</title>
<g id="a_Node000003"><a xlink:href="app_8c.html#a3baf859eaf495b1a150b161f2cca1d56" target="_top" xlink:title=" ">
<polygon fill="white" stroke="#666666" points="275.25,-137.75 207.5,-137.75 207.5,-117 275.25,-117 275.25,-137.75"/>
<text text-anchor="middle" x="241.38" y="-124.25" font-family="Helvetica,sans-Serif" font-size="10.00">w2c__f292</text>
</a>
</g>
</g>
<!-- Node2&#45;&gt;Node3 -->
<g id="edge2_Node000002_Node000003" class="edge">
<title>Node2&#45;&gt;Node3</title>
<g id="a_edge2_Node000002_Node000003"><a xlink:title=" ">
<path fill="none" stroke="#63b8ff" d="M299.85,-110.43C291.65,-112.85 283.21,-115.33 275.42,-117.63"/>
<polygon fill="#63b8ff" stroke="#63b8ff" points="300.75,-113.81 309.36,-107.63 298.77,-107.1 300.75,-113.81"/>
</a>
</g>
</g>
<!-- Node9 -->
<g id="Node000009" class="node">
<title>Node9</title>
<g id="a_Node000009"><a xlink:href="app_8c.html#ac828ba51f9c5fb29aeff3f2a3661eacf" target="_top" xlink:title=" ">
<polygon fill="white" stroke="#666666" points="275.25,-98.75 207.5,-98.75 207.5,-78 275.25,-78 275.25,-98.75"/>
<text text-anchor="middle" x="241.38" y="-85.25" font-family="Helvetica,sans-Serif" font-size="10.00">w2c__f324</text>
</a>
</g>
</g>
<!-- Node2&#45;&gt;Node9 -->
<g id="edge8_Node000002_Node000009" class="edge">
<title>Node2&#45;&gt;Node9</title>
<g id="a_edge8_Node000002_Node000009"><a xlink:title=" ">
<path fill="none" stroke="#63b8ff" d="M299.57,-93.43C291.46,-92.72 283.13,-91.98 275.42,-91.3"/>
<polygon fill="#63b8ff" stroke="#63b8ff" points="299.03,-96.9 309.3,-94.29 299.65,-89.93 299.03,-96.9"/>
</a>
</g>
</g>
<!-- Node4 -->
<g id="Node000004" class="node">
<title>Node4</title>
<g id="a_Node000004"><a xlink:href="app_8c.html#a0613faea44cc456536d20197c78174ed" target="_top" xlink:title=" ">
<polygon fill="white" stroke="#666666" points="171.5,-137.75 103.75,-137.75 103.75,-117 171.5,-117 171.5,-137.75"/>
<text text-anchor="middle" x="137.62" y="-124.25" font-family="Helvetica,sans-Serif" font-size="10.00">w2c__f227</text>
</a>
</g>
</g>
<!-- Node3&#45;&gt;Node4 -->
<g id="edge3_Node000003_Node000004" class="edge">
<title>Node3&#45;&gt;Node4</title>
<g id="a_edge3_Node000003_Node000004"><a xlink:title=" ">
<path fill="none" stroke="#63b8ff" d="M195.82,-127.38C187.71,-127.38 179.38,-127.38 171.67,-127.38"/>
<polygon fill="#63b8ff" stroke="#63b8ff" points="195.54,-130.88 205.54,-127.38 195.54,-123.88 195.54,-130.88"/>
</a>
</g>
</g>
<!-- Node5 -->
<g id="Node000005" class="node">
<title>Node5</title>
<g id="a_Node000005"><a xlink:href="app_8c.html#aefa0184f736717347a90257062faa35d" target="_top" xlink:title=" ">
<polygon fill="white" stroke="#666666" points="171.5,-98.75 103.75,-98.75 103.75,-78 171.5,-78 171.5,-98.75"/>
<text text-anchor="middle" x="137.62" y="-85.25" font-family="Helvetica,sans-Serif" font-size="10.00">w2c__f450</text>
</a>
</g>
</g>
<!-- Node3&#45;&gt;Node5 -->
<g id="edge4_Node000003_Node000005" class="edge">
<title>Node3&#45;&gt;Node5</title>
<g id="a_edge4_Node000003_Node000005"><a xlink:title=" ">
<path fill="none" stroke="#63b8ff" d="M201.35,-112.42C189.85,-108.01 177.49,-103.27 166.82,-99.18"/>
<polygon fill="#63b8ff" stroke="#63b8ff" points="200.03,-115.66 210.62,-115.97 202.53,-109.12 200.03,-115.66"/>
</a>
</g>
</g>
<!-- Node6 -->
<g id="Node000006" class="node">
<title>Node6</title>
<g id="a_Node000006"><a xlink:href="app_8c.html#a002ff5eff638807e2d3328e83b06a230" target="_top" xlink:title=" ">
<polygon fill="white" stroke="#666666" points="171.5,-59.75 103.75,-59.75 103.75,-39 171.5,-39 171.5,-59.75"/>
<text text-anchor="middle" x="137.62" y="-46.25" font-family="Helvetica,sans-Serif" font-size="10.00">w2c__f502</text>
</a>
</g>
</g>
<!-- Node3&#45;&gt;Node6 -->
<g id="edge5_Node000003_Node000006" class="edge">
<title>Node3&#45;&gt;Node6</title>
<g id="a_edge5_Node000003_Node000006"><a xlink:title=" ">
<path fill="none" stroke="#63b8ff" d="M211.45,-110.4C210.09,-109.41 208.77,-108.4 207.5,-107.38 189.4,-92.76 189.6,-83.99 171.5,-69.38 167.45,-66.1 162.81,-62.96 158.32,-60.19"/>
<polygon fill="#63b8ff" stroke="#63b8ff" points="209.16,-113.08 219.42,-115.72 213.05,-107.26 209.16,-113.08"/>
</a>
</g>
</g>
<!-- Node7 -->
<g id="Node000007" class="node">
<title>Node7</title>
<g id="a_Node000007"><a xlink:href="app_8c.html#a67e3fcc9c0cb639ce834c8cda8f47ec6" target="_top" xlink:title=" ">
<polygon fill="white" stroke="#666666" points="171.5,-20.75 103.75,-20.75 103.75,0 171.5,0 171.5,-20.75"/>
<text text-anchor="middle" x="137.62" y="-7.25" font-family="Helvetica,sans-Serif" font-size="10.00">w2c__f528</text>
</a>
</g>
</g>
<!-- Node3&#45;&gt;Node7 -->
<g id="edge6_Node000003_Node000007" class="edge">
<title>Node3&#45;&gt;Node7</title>
<g id="a_edge6_Node000003_Node000007"><a xlink:title=" ">
<path fill="none" stroke="#63b8ff" d="M209.65,-109.6C208.9,-108.88 208.18,-108.14 207.5,-107.38 182.28,-79.24 196.72,-58.51 171.5,-30.38 168.38,-26.89 164.51,-23.82 160.53,-21.19"/>
<polygon fill="#63b8ff" stroke="#63b8ff" points="207.26,-112.18 217.28,-115.62 211.6,-106.68 207.26,-112.18"/>
</a>
</g>
</g>
<!-- Node8 -->
<g id="Node000008" class="node">
<title>Node8</title>
<g id="a_Node000008"><a xlink:href="app_8c.html#ac5fdc26246fea811c3c879073c8714e3" target="_top" xlink:title=" ">
<polygon fill="white" stroke="#666666" points="67.75,-20.75 0,-20.75 0,0 67.75,0 67.75,-20.75"/>
<text text-anchor="middle" x="33.88" y="-7.25" font-family="Helvetica,sans-Serif" font-size="10.00">w2c__f544</text>
</a>
</g>
</g>
<!-- Node7&#45;&gt;Node8 -->
<g id="edge7_Node000007_Node000008" class="edge">
<title>Node7&#45;&gt;Node8</title>
<g id="a_edge7_Node000007_Node000008"><a xlink:title=" ">
<path fill="none" stroke="#63b8ff" d="M92.07,-10.38C83.96,-10.38 75.63,-10.38 67.92,-10.38"/>
<polygon fill="#63b8ff" stroke="#63b8ff" points="91.79,-13.88 101.79,-10.38 91.79,-6.88 91.79,-13.88"/>
</a>
</g>
</g>
<!-- Node10&#45;&gt;Node9 -->
<g id="edge15_Node000010_Node000009" class="edge">
<title>Node10&#45;&gt;Node9</title>
<g id="a_edge15_Node000010_Node000009"><a xlink:title=" ">
<path fill="none" stroke="#63b8ff" d="M305.1,-64.33C293.6,-68.74 281.24,-73.48 270.57,-77.57"/>
<polygon fill="#63b8ff" stroke="#63b8ff" points="306.28,-67.63 314.37,-60.78 303.78,-61.09 306.28,-67.63"/>
</a>
</g>
</g>
<!-- Node11 -->
<g id="Node000011" class="node">
<title>Node11</title>
<g id="a_Node000011"><a xlink:href="app_8c.html#ae5a3aadb2ff516ba9de8e7fad0e97772" target="_top" xlink:title=" ">
<polygon fill="white" stroke="#666666" points="275.25,-59.75 207.5,-59.75 207.5,-39 275.25,-39 275.25,-59.75"/>
<text text-anchor="middle" x="241.38" y="-46.25" font-family="Helvetica,sans-Serif" font-size="10.00">w2c__f286</text>
</a>
</g>
</g>
<!-- Node10&#45;&gt;Node11 -->
<g id="edge10_Node000010_Node000011" class="edge">
<title>Node10&#45;&gt;Node11</title>
<g id="a_edge10_Node000010_Node000011"><a xlink:title=" ">
<path fill="none" stroke="#63b8ff" d="M299.57,-49.38C291.46,-49.38 283.13,-49.38 275.42,-49.38"/>
<polygon fill="#63b8ff" stroke="#63b8ff" points="299.29,-52.88 309.29,-49.38 299.29,-45.88 299.29,-52.88"/>
</a>
</g>
</g>
<!-- Node12 -->
<g id="Node000012" class="node">
<title>Node12</title>
<g id="a_Node000012"><a xlink:href="app_8c.html#ab5eac21d342abd125af72c67ab44b217" target="_top" xlink:title=" ">
<polygon fill="white" stroke="#666666" points="275.25,-20.75 207.5,-20.75 207.5,0 275.25,0 275.25,-20.75"/>
<text text-anchor="middle" x="241.38" y="-7.25" font-family="Helvetica,sans-Serif" font-size="10.00">w2c__f461</text>
</a>
</g>
</g>
<!-- Node10&#45;&gt;Node12 -->
<g id="edge16_Node000010_Node000012" class="edge">
<title>Node10&#45;&gt;Node12</title>
<g id="a_edge16_Node000010_Node000012"><a xlink:title=" ">
<path fill="none" stroke="#63b8ff" d="M305.1,-34.42C293.6,-30.01 281.24,-25.27 270.57,-21.18"/>
<polygon fill="#63b8ff" stroke="#63b8ff" points="303.78,-37.66 314.37,-37.97 306.28,-31.12 303.78,-37.66"/>
</a>
</g>
</g>
<!-- Node11&#45;&gt;Node4 -->
<g id="edge11_Node000011_Node000004" class="edge">
<title>Node11&#45;&gt;Node4</title>
<g id="a_edge11_Node000011_Node000004"><a xlink:title=" ">
<path fill="none" stroke="#63b8ff" d="M211.45,-66.35C210.09,-67.34 208.77,-68.35 207.5,-69.38 189.4,-83.99 189.6,-92.76 171.5,-107.38 167.45,-110.65 162.81,-113.79 158.32,-116.56"/>
<polygon fill="#63b8ff" stroke="#63b8ff" points="213.05,-69.49 219.42,-61.03 209.16,-63.67 213.05,-69.49"/>
</a>
</g>
</g>
<!-- Node11&#45;&gt;Node5 -->
<g id="edge12_Node000011_Node000005" class="edge">
<title>Node11&#45;&gt;Node5</title>
<g id="a_edge12_Node000011_Node000005"><a xlink:title=" ">
<path fill="none" stroke="#63b8ff" d="M201.35,-64.33C189.85,-68.74 177.49,-73.48 166.82,-77.57"/>
<polygon fill="#63b8ff" stroke="#63b8ff" points="202.53,-67.63 210.62,-60.78 200.03,-61.09 202.53,-67.63"/>
</a>
</g>
</g>
<!-- Node11&#45;&gt;Node6 -->
<g id="edge13_Node000011_Node000006" class="edge">
<title>Node11&#45;&gt;Node6</title>
<g id="a_edge13_Node000011_Node000006"><a xlink:title=" ">
<path fill="none" stroke="#63b8ff" d="M195.82,-49.38C187.71,-49.38 179.38,-49.38 171.67,-49.38"/>
<polygon fill="#63b8ff" stroke="#63b8ff" points="195.54,-52.88 205.54,-49.38 195.54,-45.88 195.54,-52.88"/>
</a>
</g>
</g>
<!-- Node11&#45;&gt;Node7 -->
<g id="edge14_Node000011_Node000007" class="edge">
<title>Node11&#45;&gt;Node7</title>
<g id="a_edge14_Node000011_Node000007"><a xlink:title=" ">
<path fill="none" stroke="#63b8ff" d="M201.35,-34.42C189.85,-30.01 177.49,-25.27 166.82,-21.18"/>
<polygon fill="#63b8ff" stroke="#63b8ff" points="200.03,-37.66 210.62,-37.97 202.53,-31.12 200.03,-37.66"/>
</a>
</g>
</g>
<!-- Node12&#45;&gt;Node6 -->
<g id="edge17_Node000012_Node000006" class="edge">
<title>Node12&#45;&gt;Node6</title>
<g id="a_edge17_Node000012_Node000006"><a xlink:title=" ">
<path fill="none" stroke="#63b8ff" d="M201.35,-25.33C189.85,-29.74 177.49,-34.48 166.82,-38.57"/>
<polygon fill="#63b8ff" stroke="#63b8ff" points="202.53,-28.63 210.62,-21.78 200.03,-22.09 202.53,-28.63"/>
</a>
</g>
</g>
<!-- Node12&#45;&gt;Node7 -->
<g id="edge18_Node000012_Node000007" class="edge">
<title>Node12&#45;&gt;Node7</title>
<g id="a_edge18_Node000012_Node000007"><a xlink:title=" ">
<path fill="none" stroke="#63b8ff" d="M195.82,-10.38C187.71,-10.38 179.38,-10.38 171.67,-10.38"/>
<polygon fill="#63b8ff" stroke="#63b8ff" points="195.54,-13.88 205.54,-10.38 195.54,-6.88 195.54,-13.88"/>
</a>
</g>
</g>
<!-- Node13&#45;&gt;Node2 -->
<g id="edge20_Node000013_Node000002" class="edge">
<title>Node13&#45;&gt;Node2</title>
<g id="a_edge20_Node000013_Node000002"><a xlink:title=" ">
<path fill="none" stroke="#63b8ff" d="M403.6,-81.56C395.4,-83.82 386.96,-86.14 379.17,-88.28"/>
<polygon fill="#63b8ff" stroke="#63b8ff" points="404.39,-84.97 413.1,-78.94 402.53,-78.22 404.39,-84.97"/>
</a>
</g>
</g>
<!-- Node13&#45;&gt;Node10 -->
<g id="edge21_Node000013_Node000010" class="edge">
<title>Node13&#45;&gt;Node10</title>
<g id="a_edge21_Node000013_Node000010"><a xlink:title=" ">
<path fill="none" stroke="#63b8ff" d="M403.32,-60.62C395.21,-59.02 386.88,-57.38 379.17,-55.87"/>
<polygon fill="#63b8ff" stroke="#63b8ff" points="402.59,-64.04 413.07,-62.53 403.94,-57.17 402.59,-64.04"/>
</a>
</g>
</g>
</g>
</svg>
