<?xml version="1.0" encoding="UTF-8" standalone="no"?>
<!DOCTYPE svg PUBLIC "-//W3C//DTD SVG 1.1//EN"
 "http://www.w3.org/Graphics/SVG/1.1/DTD/svg11.dtd">
<!-- Generated by graphviz version 12.2.1 (0)
 -->
<!-- Title: w2c__f572 Pages: 1 -->
<svg width="799pt" height="200pt"
 viewBox="0.00 0.00 798.75 199.75" xmlns="http://www.w3.org/2000/svg" xmlns:xlink="http://www.w3.org/1999/xlink">
<g id="graph0" class="graph" transform="scale(1 1) rotate(0) translate(4 195.75)">
<title>w2c__f572</title>
<!-- Node1 -->
<g id="Node000001" class="node">
<title>Node1</title>
<g id="a_Node000001"><a xlink:title=" ">
<polygon fill="#999999" stroke="#666666" points="790.75,-96.75 723,-96.75 723,-76 790.75,-76 790.75,-96.75"/>
<text text-anchor="middle" x="756.88" y="-83.25" font-family="Helvetica,sans-Serif" font-size="10.00">w2c__f572</text>
</a>
</g>
</g>
<!-- Node2 -->
<g id="Node000002" class="node">
<title>Node2</title>
<g id="a_Node000002"><a xlink:href="app_8c.html#a9acbf29d5eb6c67c955f22a681da8d7e" target="_top" xlink:title=" ">
<polygon fill="white" stroke="#666666" points="435.62,-153.75 367.88,-153.75 367.88,-133 435.62,-133 435.62,-153.75"/>
<text text-anchor="middle" x="401.75" y="-140.25" font-family="Helvetica,sans-Serif" font-size="10.00">w2c__f394</text>
</a>
</g>
</g>
<!-- Node1&#45;&gt;Node2 -->
<g id="edge1_Node000001_Node000002" class="edge">
<title>Node1&#45;&gt;Node2</title>
<g id="a_edge1_Node000001_Node000002"><a xlink:title=" ">
<path fill="none" stroke="#63b8ff" d="M744.25,-106.84C732.5,-125.25 712.45,-151.09 687,-162.38 601.32,-200.36 486.73,-171.7 432.98,-154.24"/>
<polygon fill="#63b8ff" stroke="#63b8ff" points="747.23,-108.68 749.41,-98.32 741.24,-105.06 747.23,-108.68"/>
</a>
</g>
</g>
<!-- Node8 -->
<g id="Node000008" class="node">
<title>Node8</title>
<g id="a_Node000008"><a xlink:href="app_8c.html#a2c1fd502e8ed52b51baa6346388a4657" target="_top" xlink:title=" ">
<polygon fill="white" stroke="#666666" points="672.38,-96.75 604.62,-96.75 604.62,-76 672.38,-76 672.38,-96.75"/>
<text text-anchor="middle" x="638.5" y="-83.25" font-family="Helvetica,sans-Serif" font-size="10.00">w2c__f445</text>
</a>
</g>
</g>
<!-- Node1&#45;&gt;Node8 -->
<g id="edge7_Node000001_Node000008" class="edge">
<title>Node1&#45;&gt;Node8</title>
<g id="a_edge7_Node000001_Node000008"><a xlink:title=" ">
<path fill="none" stroke="#63b8ff" d="M711.16,-86.38C698.43,-86.38 684.78,-86.38 672.85,-86.38"/>
<polygon fill="#63b8ff" stroke="#63b8ff" points="711.01,-89.88 721.01,-86.38 711.01,-82.88 711.01,-89.88"/>
</a>
</g>
</g>
<!-- Node9 -->
<g id="Node000009" class="node">
<title>Node9</title>
<g id="a_Node000009"><a xlink:href="app_8c.html#aa084afa5e7173dc059d34503f7318400" target="_top" xlink:title=" ">
<polygon fill="white" stroke="#666666" points="554,-105.75 486.25,-105.75 486.25,-85 554,-85 554,-105.75"/>
<text text-anchor="middle" x="520.12" y="-92.25" font-family="Helvetica,sans-Serif" font-size="10.00">w2c__f570</text>
</a>
</g>
</g>
<!-- Node1&#45;&gt;Node9 -->
<g id="edge15_Node000001_Node000009" class="edge">
<title>Node1&#45;&gt;Node9</title>
<g id="a_edge15_Node000001_Node000009"><a xlink:title=" ">
<path fill="none" stroke="#63b8ff" d="M712.83,-72.59C704.35,-70.42 695.46,-68.52 687,-67.38 644.28,-61.59 632.31,-59.1 590,-67.38 573.02,-70.69 554.95,-78.21 541.58,-84.62"/>
<polygon fill="#63b8ff" stroke="#63b8ff" points="711.64,-75.9 722.21,-75.16 713.48,-69.15 711.64,-75.9"/>
</a>
</g>
</g>
<!-- Node11 -->
<g id="Node000011" class="node">
<title>Node11</title>
<g id="a_Node000011"><a xlink:href="app_8c.html#a30ceae6b9832629a732936b4058c6c0f" target="_top" xlink:title=" ">
<polygon fill="white" stroke="#666666" points="672.38,-153.75 604.62,-153.75 604.62,-133 672.38,-133 672.38,-153.75"/>
<text text-anchor="middle" x="638.5" y="-140.25" font-family="Helvetica,sans-Serif" font-size="10.00">w2c__f463</text>
</a>
</g>
</g>
<!-- Node1&#45;&gt;Node11 -->
<g id="edge12_Node000001_Node000011" class="edge">
<title>Node1&#45;&gt;Node11</title>
<g id="a_edge12_Node000001_Node000011"><a xlink:title=" ">
<path fill="none" stroke="#63b8ff" d="M726.79,-102.79C714.63,-109.44 700.26,-117.04 687,-123.38 680.38,-126.54 673.13,-129.73 666.33,-132.6"/>
<polygon fill="#63b8ff" stroke="#63b8ff" points="728.45,-105.87 735.5,-97.97 725.06,-99.74 728.45,-105.87"/>
</a>
</g>
</g>
<!-- Node12 -->
<g id="Node000012" class="node">
<title>Node12</title>
<g id="a_Node000012"><a xlink:href="app_8c.html#abc72b96f35c44eeb5d4692840ad0bd10" target="_top" xlink:title=" ">
<polygon fill="white" stroke="#666666" points="687,-20.75 590,-20.75 590,0 687,0 687,-20.75"/>
<text text-anchor="middle" x="638.5" y="-7.25" font-family="Helvetica,sans-Serif" font-size="10.00">wrap_w2c__f572</text>
</a>
</g>
</g>
<!-- Node1&#45;&gt;Node12 -->
<g id="edge16_Node000001_Node000012" class="edge">
<title>Node1&#45;&gt;Node12</title>
<g id="a_edge16_Node000001_Node000012"><a xlink:title=" ">
<path fill="none" stroke="#63b8ff" d="M734.37,-68.56C721.13,-58 703.58,-44.7 687,-34.38 679.32,-29.59 670.55,-24.95 662.66,-21.04"/>
<polygon fill="#63b8ff" stroke="#63b8ff" points="732.02,-71.16 741.99,-74.73 736.42,-65.72 732.02,-71.16"/>
</a>
</g>
</g>
<!-- Node3 -->
<g id="Node000003" class="node">
<title>Node3</title>
<g id="a_Node000003"><a xlink:href="app_8c.html#a5677ffd129da8cd63b876545b8187d77" target="_top" xlink:title=" ">
<polygon fill="white" stroke="#666666" points="302.62,-172.75 234.88,-172.75 234.88,-152 302.62,-152 302.62,-172.75"/>
<text text-anchor="middle" x="268.75" y="-159.25" font-family="Helvetica,sans-Serif" font-size="10.00">w2c__f367</text>
</a>
</g>
</g>
<!-- Node2&#45;&gt;Node3 -->
<g id="edge2_Node000002_Node000003" class="edge">
<title>Node2&#45;&gt;Node3</title>
<g id="a_edge2_Node000002_Node000003"><a xlink:title=" ">
<path fill="none" stroke="#63b8ff" d="M356.53,-149.79C338.96,-152.34 319.08,-155.22 302.8,-157.58"/>
<polygon fill="#63b8ff" stroke="#63b8ff" points="356.8,-153.29 366.2,-148.39 355.8,-146.36 356.8,-153.29"/>
</a>
</g>
</g>
<!-- Node7 -->
<g id="Node000007" class="node">
<title>Node7</title>
<g id="a_Node000007"><a xlink:href="app_8c.html#a9d21ffcf362a3d585320c6d6fc56d894" target="_top" xlink:title=" ">
<polygon fill="white" stroke="#666666" points="317.25,-133.75 220.25,-133.75 220.25,-113 317.25,-113 317.25,-133.75"/>
<text text-anchor="middle" x="268.75" y="-120.25" font-family="Helvetica,sans-Serif" font-size="10.00">wrap_w2c__f394</text>
</a>
</g>
</g>
<!-- Node2&#45;&gt;Node7 -->
<g id="edge6_Node000002_Node000007" class="edge">
<title>Node2&#45;&gt;Node7</title>
<g id="a_edge6_Node000002_Node000007"><a xlink:title=" ">
<path fill="none" stroke="#63b8ff" d="M356.58,-136.63C344.06,-134.72 330.38,-132.63 317.65,-130.69"/>
<polygon fill="#63b8ff" stroke="#63b8ff" points="355.78,-140.05 366.2,-138.1 356.84,-133.13 355.78,-140.05"/>
</a>
</g>
</g>
<!-- Node4 -->
<g id="Node000004" class="node">
<title>Node4</title>
<g id="a_Node000004"><a xlink:href="app_8c.html#ac863989691d4c389f80374209c220171" target="_top" xlink:title=" ">
<polygon fill="white" stroke="#666666" points="167,-191.75 104.5,-191.75 104.5,-171 167,-171 167,-191.75"/>
<text text-anchor="middle" x="135.75" y="-178.25" font-family="Helvetica,sans-Serif" font-size="10.00">w2c__c_0</text>
</a>
</g>
</g>
<!-- Node3&#45;&gt;Node4 -->
<g id="edge3_Node000003_Node000004" class="edge">
<title>Node3&#45;&gt;Node4</title>
<g id="a_edge3_Node000003_Node000004"><a xlink:title=" ">
<path fill="none" stroke="#63b8ff" d="M223.53,-168.79C204.97,-171.48 183.86,-174.54 167.1,-176.97"/>
<polygon fill="#63b8ff" stroke="#63b8ff" points="223.8,-172.29 233.2,-167.39 222.8,-165.36 223.8,-172.29"/>
</a>
</g>
</g>
<!-- Node6 -->
<g id="Node000006" class="node">
<title>Node6</title>
<g id="a_Node000006"><a xlink:href="app_8c.html#a8f64ccad6c506a1ca514ba4f43e5211c" target="_top" xlink:title=" ">
<polygon fill="white" stroke="#666666" points="184.25,-152.75 87.25,-152.75 87.25,-132 184.25,-132 184.25,-152.75"/>
<text text-anchor="middle" x="135.75" y="-139.25" font-family="Helvetica,sans-Serif" font-size="10.00">wrap_w2c__f367</text>
</a>
</g>
</g>
<!-- Node3&#45;&gt;Node6 -->
<g id="edge5_Node000003_Node000006" class="edge">
<title>Node3&#45;&gt;Node6</title>
<g id="a_edge5_Node000003_Node000006"><a xlink:title=" ">
<path fill="none" stroke="#63b8ff" d="M223.58,-155.63C211.06,-153.72 197.38,-151.63 184.65,-149.69"/>
<polygon fill="#63b8ff" stroke="#63b8ff" points="222.78,-159.05 233.2,-157.1 223.84,-152.13 222.78,-159.05"/>
</a>
</g>
</g>
<!-- Node5 -->
<g id="Node000005" class="node">
<title>Node5</title>
<g id="a_Node000005"><a xlink:href="app_8c.html#ab1e039392ea68017ab8a6063263b147d" target="_top" xlink:title=" ">
<polygon fill="white" stroke="#666666" points="51.25,-191.75 0,-191.75 0,-171 51.25,-171 51.25,-191.75"/>
<text text-anchor="middle" x="25.62" y="-178.25" font-family="Helvetica,sans-Serif" font-size="10.00">w2c__c</text>
</a>
</g>
</g>
<!-- Node4&#45;&gt;Node5 -->
<g id="edge4_Node000004_Node000005" class="edge">
<title>Node4&#45;&gt;Node5</title>
<g id="a_edge4_Node000004_Node000005"><a xlink:title=" ">
<path fill="none" stroke="#63b8ff" d="M92.72,-181.38C78.81,-181.38 63.78,-181.38 51.57,-181.38"/>
<polygon fill="#63b8ff" stroke="#63b8ff" points="92.54,-184.88 102.54,-181.38 92.54,-177.88 92.54,-184.88"/>
</a>
</g>
</g>
<!-- Node8&#45;&gt;Node8 -->
<g id="edge8_Node000008_Node000008" class="edge">
<title>Node8&#45;&gt;Node8</title>
<g id="a_edge8_Node000008_Node000008"><a xlink:title=" ">
<path fill="none" stroke="#63b8ff" d="M659.33,-108.24C656.57,-112.08 649.63,-114.75 638.5,-114.75 618.15,-114.75 611.8,-105.81 619.43,-97.15"/>
<polygon fill="#63b8ff" stroke="#63b8ff" points="662.83,-107.97 657.81,-98.64 655.92,-109.07 662.83,-107.97"/>
</a>
</g>
</g>
<!-- Node8&#45;&gt;Node9 -->
<g id="edge9_Node000008_Node000009" class="edge">
<title>Node8&#45;&gt;Node9</title>
<g id="a_edge9_Node000008_Node000009"><a xlink:title=" ">
<path fill="none" stroke="#63b8ff" d="M592.79,-89.83C580.05,-90.82 566.41,-91.87 554.48,-92.8"/>
<polygon fill="#63b8ff" stroke="#63b8ff" points="592.94,-93.33 602.64,-89.07 592.4,-86.35 592.94,-93.33"/>
</a>
</g>
</g>
<!-- Node9&#45;&gt;Node2 -->
<g id="edge10_Node000009_Node000002" class="edge">
<title>Node9&#45;&gt;Node2</title>
<g id="a_edge10_Node000009_Node000002"><a xlink:title=" ">
<path fill="none" stroke="#63b8ff" d="M482.6,-110.44C465.13,-117.64 444.63,-126.1 428.78,-132.64"/>
<polygon fill="#63b8ff" stroke="#63b8ff" points="483.7,-113.77 491.61,-106.72 481.03,-107.3 483.7,-113.77"/>
</a>
</g>
</g>
<!-- Node10 -->
<g id="Node000010" class="node">
<title>Node10</title>
<g id="a_Node000010"><a xlink:href="app_8c.html#a968af1979b4e7300bd0d8a5501315d81" target="_top" xlink:title=" ">
<polygon fill="white" stroke="#666666" points="450.25,-105.75 353.25,-105.75 353.25,-85 450.25,-85 450.25,-105.75"/>
<text text-anchor="middle" x="401.75" y="-92.25" font-family="Helvetica,sans-Serif" font-size="10.00">wrap_w2c__f570</text>
</a>
</g>
</g>
<!-- Node9&#45;&gt;Node10 -->
<g id="edge11_Node000009_Node000010" class="edge">
<title>Node9&#45;&gt;Node10</title>
<g id="a_edge11_Node000009_Node000010"><a xlink:title=" ">
<path fill="none" stroke="#63b8ff" d="M474.53,-95.38C466.64,-95.38 458.39,-95.38 450.41,-95.38"/>
<polygon fill="#63b8ff" stroke="#63b8ff" points="474.26,-98.88 484.26,-95.38 474.26,-91.88 474.26,-98.88"/>
</a>
</g>
</g>
<!-- Node11&#45;&gt;Node2 -->
<g id="edge13_Node000011_Node000002" class="edge">
<title>Node11&#45;&gt;Node2</title>
<g id="a_edge13_Node000011_Node000002"><a xlink:title=" ">
<path fill="none" stroke="#63b8ff" d="M593.02,-143.38C547.33,-143.38 477.24,-143.38 436.1,-143.38"/>
<polygon fill="#63b8ff" stroke="#63b8ff" points="592.85,-146.88 602.85,-143.38 592.85,-139.88 592.85,-146.88"/>
</a>
</g>
</g>
<!-- Node11&#45;&gt;Node9 -->
<g id="edge14_Node000011_Node000009" class="edge">
<title>Node11&#45;&gt;Node9</title>
<g id="a_edge14_Node000011_Node000009"><a xlink:title=" ">
<path fill="none" stroke="#63b8ff" d="M600.97,-128.31C583.51,-121.11 563.01,-112.65 547.15,-106.11"/>
<polygon fill="#63b8ff" stroke="#63b8ff" points="599.4,-131.45 609.98,-132.03 602.07,-124.98 599.4,-131.45"/>
</a>
</g>
</g>
</g>
</svg>
