<?xml version="1.0" encoding="UTF-8" standalone="no"?>
<!DOCTYPE svg PUBLIC "-//W3C//DTD SVG 1.1//EN"
 "http://www.w3.org/Graphics/SVG/1.1/DTD/svg11.dtd">
<!-- Generated by graphviz version 12.2.1 (0)
 -->
<!-- Title: w2c__f301 Pages: 1 -->
<svg width="282pt" height="185pt"
 viewBox="0.00 0.00 281.75 184.75" xmlns="http://www.w3.org/2000/svg" xmlns:xlink="http://www.w3.org/1999/xlink">
<g id="graph0" class="graph" transform="scale(1 1) rotate(0) translate(4 180.75)">
<title>w2c__f301</title>
<!-- Node1 -->
<g id="Node000001" class="node">
<title>Node1</title>
<g id="a_Node000001"><a xlink:title=" ">
<polygon fill="#999999" stroke="#666666" points="67.75,-98.75 0,-98.75 0,-78 67.75,-78 67.75,-98.75"/>
<text text-anchor="middle" x="33.88" y="-85.25" font-family="Helvetica,sans-Serif" font-size="10.00">w2c__f301</text>
</a>
</g>
</g>
<!-- Node2 -->
<g id="Node000002" class="node">
<title>Node2</title>
<g id="a_Node000002"><a xlink:href="app_8c.html#a13064ee1412a7f59da20bca1a8dd3ef4" target="_top" xlink:title=" ">
<polygon fill="white" stroke="#666666" points="170.75,-176.75 106.75,-176.75 106.75,-156 170.75,-156 170.75,-176.75"/>
<text text-anchor="middle" x="138.75" y="-163.25" font-family="Helvetica,sans-Serif" font-size="10.00">w2c_0_11</text>
</a>
</g>
</g>
<!-- Node1&#45;&gt;Node2 -->
<g id="edge1_Node000001_Node000002" class="edge">
<title>Node1&#45;&gt;Node2</title>
<g id="a_edge1_Node000001_Node000002"><a xlink:title=" ">
<path fill="none" stroke="#63b8ff" d="M46.1,-98.85C59.35,-110.97 82.31,-131.21 103.75,-146.38 105.29,-147.46 106.89,-148.55 108.52,-149.62"/>
<polygon fill="#63b8ff" stroke="#63b8ff" points="106.35,-152.39 116.69,-154.7 110.05,-146.45 106.35,-152.39"/>
</a>
</g>
</g>
<!-- Node3 -->
<g id="Node000003" class="node">
<title>Node3</title>
<g id="a_Node000003"><a xlink:href="app_8c.html#aaf609261891864e97643e3aba116599c" target="_top" xlink:title=" ">
<polygon fill="white" stroke="#666666" points="173.75,-137.75 103.75,-137.75 103.75,-117 173.75,-117 173.75,-137.75"/>
<text text-anchor="middle" x="138.75" y="-124.25" font-family="Helvetica,sans-Serif" font-size="10.00">w2c_0_147</text>
</a>
</g>
</g>
<!-- Node1&#45;&gt;Node3 -->
<g id="edge2_Node000001_Node000003" class="edge">
<title>Node1&#45;&gt;Node3</title>
<g id="a_edge2_Node000001_Node000003"><a xlink:title=" ">
<path fill="none" stroke="#63b8ff" d="M63.53,-99.24C74.46,-103.38 87.1,-108.17 98.82,-112.62"/>
<polygon fill="#63b8ff" stroke="#63b8ff" points="97.24,-115.76 107.83,-116.03 99.72,-109.22 97.24,-115.76"/>
</a>
</g>
</g>
<!-- Node4 -->
<g id="Node000004" class="node">
<title>Node4</title>
<g id="a_Node000004"><a xlink:href="app_8c.html#a0e3bf3a9dcdc8bd3fa73d1554ff70b35" target="_top" xlink:title=" ">
<polygon fill="white" stroke="#666666" points="173.75,-98.75 103.75,-98.75 103.75,-78 173.75,-78 173.75,-98.75"/>
<text text-anchor="middle" x="138.75" y="-85.25" font-family="Helvetica,sans-Serif" font-size="10.00">w2c_0_165</text>
</a>
</g>
</g>
<!-- Node1&#45;&gt;Node4 -->
<g id="edge3_Node000001_Node000004" class="edge">
<title>Node1&#45;&gt;Node4</title>
<g id="a_edge3_Node000001_Node000004"><a xlink:title=" ">
<path fill="none" stroke="#63b8ff" d="M67.99,-88.38C75.66,-88.38 83.95,-88.38 92.04,-88.38"/>
<polygon fill="#63b8ff" stroke="#63b8ff" points="91.77,-91.88 101.77,-88.38 91.77,-84.88 91.77,-91.88"/>
</a>
</g>
</g>
<!-- Node5 -->
<g id="Node000005" class="node">
<title>Node5</title>
<g id="a_Node000005"><a xlink:href="app_8c.html#acf1029cf408c02e92b9c8bd7417b3b85" target="_top" xlink:title=" ">
<polygon fill="white" stroke="#666666" points="173.75,-59.75 103.75,-59.75 103.75,-39 173.75,-39 173.75,-59.75"/>
<text text-anchor="middle" x="138.75" y="-46.25" font-family="Helvetica,sans-Serif" font-size="10.00">w2c_0_175</text>
</a>
</g>
</g>
<!-- Node1&#45;&gt;Node5 -->
<g id="edge4_Node000001_Node000005" class="edge">
<title>Node1&#45;&gt;Node5</title>
<g id="a_edge4_Node000001_Node000005"><a xlink:title=" ">
<path fill="none" stroke="#63b8ff" d="M63.53,-77.51C74.46,-73.37 87.1,-68.58 98.82,-64.13"/>
<polygon fill="#63b8ff" stroke="#63b8ff" points="99.72,-67.53 107.83,-60.72 97.24,-60.99 99.72,-67.53"/>
</a>
</g>
</g>
<!-- Node6 -->
<g id="Node000006" class="node">
<title>Node6</title>
<g id="a_Node000006"><a xlink:href="app_8c.html#aece0acc00c71c5c77a389889a51c4893" target="_top" xlink:title=" ">
<polygon fill="white" stroke="#666666" points="172.62,-20.75 104.88,-20.75 104.88,0 172.62,0 172.62,-20.75"/>
<text text-anchor="middle" x="138.75" y="-7.25" font-family="Helvetica,sans-Serif" font-size="10.00">w2c__f498</text>
</a>
</g>
</g>
<!-- Node1&#45;&gt;Node6 -->
<g id="edge5_Node000001_Node000006" class="edge">
<title>Node1&#45;&gt;Node6</title>
<g id="a_edge5_Node000001_Node000006"><a xlink:title=" ">
<path fill="none" stroke="#63b8ff" d="M46.1,-77.9C59.35,-65.78 82.31,-45.54 103.75,-30.38 105.29,-29.29 106.89,-28.2 108.52,-27.13"/>
<polygon fill="#63b8ff" stroke="#63b8ff" points="110.05,-30.3 116.69,-22.05 106.35,-24.36 110.05,-30.3"/>
</a>
</g>
</g>
<!-- Node7 -->
<g id="Node000007" class="node">
<title>Node7</title>
<g id="a_Node000007"><a xlink:href="app_8c.html#accaa45efc0d12dcfdf98792250803ded" target="_top" xlink:title=" ">
<polygon fill="white" stroke="#666666" points="273.75,-20.75 209.75,-20.75 209.75,0 273.75,0 273.75,-20.75"/>
<text text-anchor="middle" x="241.75" y="-7.25" font-family="Helvetica,sans-Serif" font-size="10.00">w2c_0_15</text>
</a>
</g>
</g>
<!-- Node6&#45;&gt;Node7 -->
<g id="edge6_Node000006_Node000007" class="edge">
<title>Node6&#45;&gt;Node7</title>
<g id="a_edge6_Node000006_Node000007"><a xlink:title=" ">
<path fill="none" stroke="#63b8ff" d="M173.1,-10.38C181.07,-10.38 189.68,-10.38 198.01,-10.38"/>
<polygon fill="#63b8ff" stroke="#63b8ff" points="197.97,-13.88 207.97,-10.38 197.97,-6.88 197.97,-13.88"/>
</a>
</g>
</g>
</g>
</svg>
