<?xml version="1.0" encoding="UTF-8" standalone="no"?>
<!DOCTYPE svg PUBLIC "-//W3C//DTD SVG 1.1//EN"
 "http://www.w3.org/Graphics/SVG/1.1/DTD/svg11.dtd">
<!-- Generated by graphviz version 12.2.1 (0)
 -->
<!-- Title: w2c_0_64 Pages: 1 -->
<svg width="467pt" height="107pt"
 viewBox="0.00 0.00 467.25 106.75" xmlns="http://www.w3.org/2000/svg" xmlns:xlink="http://www.w3.org/1999/xlink">
<g id="graph0" class="graph" transform="scale(1 1) rotate(0) translate(4 102.75)">
<title>w2c_0_64</title>
<!-- Node1 -->
<g id="Node000001" class="node">
<title>Node1</title>
<g id="a_Node000001"><a xlink:title=" ">
<polygon fill="#999999" stroke="#666666" points="459.25,-59.75 395.25,-59.75 395.25,-39 459.25,-39 459.25,-59.75"/>
<text text-anchor="middle" x="427.25" y="-46.25" font-family="Helvetica,sans-Serif" font-size="10.00">w2c_0_64</text>
</a>
</g>
</g>
<!-- Node2 -->
<g id="Node000002" class="node">
<title>Node2</title>
<g id="a_Node000002"><a xlink:href="app_8c.html#aceab5cda31b6aa6659b94aae079d60c2" target="_top" xlink:title=" ">
<polygon fill="white" stroke="#666666" points="346.5,-98.75 278.75,-98.75 278.75,-78 346.5,-78 346.5,-98.75"/>
<text text-anchor="middle" x="312.62" y="-85.25" font-family="Helvetica,sans-Serif" font-size="10.00">w2c__f456</text>
</a>
</g>
</g>
<!-- Node1&#45;&gt;Node2 -->
<g id="edge1_Node000001_Node000002" class="edge">
<title>Node1&#45;&gt;Node2</title>
<g id="a_edge1_Node000001_Node000002"><a xlink:title=" ">
<path fill="none" stroke="#63b8ff" d="M384.23,-63.92C371.17,-68.45 357.01,-73.35 344.83,-77.57"/>
<polygon fill="#63b8ff" stroke="#63b8ff" points="385.14,-67.31 393.45,-60.73 382.85,-60.7 385.14,-67.31"/>
</a>
</g>
</g>
<!-- Node5 -->
<g id="Node000005" class="node">
<title>Node5</title>
<g id="a_Node000005"><a xlink:href="app_8c.html#a16670c165bc2e48eba2f100b6b1e21c3" target="_top" xlink:title=" ">
<polygon fill="white" stroke="#666666" points="346.5,-59.75 278.75,-59.75 278.75,-39 346.5,-39 346.5,-59.75"/>
<text text-anchor="middle" x="312.62" y="-46.25" font-family="Helvetica,sans-Serif" font-size="10.00">w2c__f495</text>
</a>
</g>
</g>
<!-- Node1&#45;&gt;Node5 -->
<g id="edge4_Node000001_Node000005" class="edge">
<title>Node1&#45;&gt;Node5</title>
<g id="a_edge4_Node000001_Node000005"><a xlink:title=" ">
<path fill="none" stroke="#63b8ff" d="M383.56,-49.38C371.39,-49.38 358.31,-49.38 346.8,-49.38"/>
<polygon fill="#63b8ff" stroke="#63b8ff" points="383.36,-52.88 393.36,-49.38 383.36,-45.88 383.36,-52.88"/>
</a>
</g>
</g>
<!-- Node7 -->
<g id="Node000007" class="node">
<title>Node7</title>
<g id="a_Node000007"><a xlink:href="app_8c.html#a099ef8ccf214f393e4708837f683c594" target="_top" xlink:title=" ">
<polygon fill="white" stroke="#666666" points="359.25,-20.75 266,-20.75 266,0 359.25,0 359.25,-20.75"/>
<text text-anchor="middle" x="312.62" y="-7.25" font-family="Helvetica,sans-Serif" font-size="10.00">wrap_w2c_0_64</text>
</a>
</g>
</g>
<!-- Node1&#45;&gt;Node7 -->
<g id="edge7_Node000001_Node000007" class="edge">
<title>Node1&#45;&gt;Node7</title>
<g id="a_edge7_Node000001_Node000007"><a xlink:title=" ">
<path fill="none" stroke="#63b8ff" d="M384.23,-34.83C371.17,-30.3 357.01,-25.4 344.83,-21.18"/>
<polygon fill="#63b8ff" stroke="#63b8ff" points="382.85,-38.05 393.45,-38.02 385.14,-31.44 382.85,-38.05"/>
</a>
</g>
</g>
<!-- Node3 -->
<g id="Node000003" class="node">
<title>Node3</title>
<g id="a_Node000003"><a xlink:href="app_8c.html#ad1dbc2afe7918517df3fc54838f07298" target="_top" xlink:title=" ">
<polygon fill="white" stroke="#666666" points="215.38,-98.75 147.62,-98.75 147.62,-78 215.38,-78 215.38,-98.75"/>
<text text-anchor="middle" x="181.5" y="-85.25" font-family="Helvetica,sans-Serif" font-size="10.00">w2c__f520</text>
</a>
</g>
</g>
<!-- Node2&#45;&gt;Node3 -->
<g id="edge2_Node000002_Node000003" class="edge">
<title>Node2&#45;&gt;Node3</title>
<g id="a_edge2_Node000002_Node000003"><a xlink:title=" ">
<path fill="none" stroke="#63b8ff" d="M267.07,-88.38C250.19,-88.38 231.29,-88.38 215.64,-88.38"/>
<polygon fill="#63b8ff" stroke="#63b8ff" points="266.86,-91.88 276.86,-88.38 266.86,-84.88 266.86,-91.88"/>
</a>
</g>
</g>
<!-- Node4 -->
<g id="Node000004" class="node">
<title>Node4</title>
<g id="a_Node000004"><a xlink:href="app_8c.html#a130f07b726020d1add9a7ed5178e023a" target="_top" xlink:title=" ">
<polygon fill="white" stroke="#666666" points="97,-98.75 0,-98.75 0,-78 97,-78 97,-98.75"/>
<text text-anchor="middle" x="48.5" y="-85.25" font-family="Helvetica,sans-Serif" font-size="10.00">wrap_w2c__f520</text>
</a>
</g>
</g>
<!-- Node3&#45;&gt;Node4 -->
<g id="edge3_Node000003_Node000004" class="edge">
<title>Node3&#45;&gt;Node4</title>
<g id="a_edge3_Node000003_Node000004"><a xlink:title=" ">
<path fill="none" stroke="#63b8ff" d="M135.95,-88.38C123.53,-88.38 110,-88.38 97.4,-88.38"/>
<polygon fill="#63b8ff" stroke="#63b8ff" points="135.93,-91.88 145.93,-88.38 135.93,-84.88 135.93,-91.88"/>
</a>
</g>
</g>
<!-- Node5&#45;&gt;Node3 -->
<g id="edge5_Node000005_Node000003" class="edge">
<title>Node5&#45;&gt;Node3</title>
<g id="a_edge5_Node000005_Node000003"><a xlink:title=" ">
<path fill="none" stroke="#63b8ff" d="M267.56,-62.68C250.56,-67.82 231.44,-73.59 215.64,-78.37"/>
<polygon fill="#63b8ff" stroke="#63b8ff" points="268.36,-66.1 276.92,-59.86 266.34,-59.4 268.36,-66.1"/>
</a>
</g>
</g>
<!-- Node6 -->
<g id="Node000006" class="node">
<title>Node6</title>
<g id="a_Node000006"><a xlink:href="app_8c.html#adc0b425fa65493482058a086393089b5" target="_top" xlink:title=" ">
<polygon fill="white" stroke="#666666" points="230,-59.75 133,-59.75 133,-39 230,-39 230,-59.75"/>
<text text-anchor="middle" x="181.5" y="-46.25" font-family="Helvetica,sans-Serif" font-size="10.00">wrap_w2c__f495</text>
</a>
</g>
</g>
<!-- Node5&#45;&gt;Node6 -->
<g id="edge6_Node000005_Node000006" class="edge">
<title>Node5&#45;&gt;Node6</title>
<g id="a_edge6_Node000005_Node000006"><a xlink:title=" ">
<path fill="none" stroke="#63b8ff" d="M266.92,-49.38C255.08,-49.38 242.24,-49.38 230.24,-49.38"/>
<polygon fill="#63b8ff" stroke="#63b8ff" points="266.86,-52.88 276.86,-49.38 266.86,-45.88 266.86,-52.88"/>
</a>
</g>
</g>
</g>
</svg>
