<?xml version="1.0" encoding="UTF-8" standalone="no"?>
<!DOCTYPE svg PUBLIC "-//W3C//DTD SVG 1.1//EN"
 "http://www.w3.org/Graphics/SVG/1.1/DTD/svg11.dtd">
<!-- Generated by graphviz version 12.2.1 (0)
 -->
<!-- Title: w2c__f489 Pages: 1 -->
<svg width="682pt" height="106pt"
 viewBox="0.00 0.00 682.25 105.75" xmlns="http://www.w3.org/2000/svg" xmlns:xlink="http://www.w3.org/1999/xlink">
<g id="graph0" class="graph" transform="scale(1 1) rotate(0) translate(4 101.75)">
<title>w2c__f489</title>
<!-- Node1 -->
<g id="Node000001" class="node">
<title>Node1</title>
<g id="a_Node000001"><a xlink:title=" ">
<polygon fill="#999999" stroke="#666666" points="674.25,-39.75 606.5,-39.75 606.5,-19 674.25,-19 674.25,-39.75"/>
<text text-anchor="middle" x="640.38" y="-26.25" font-family="Helvetica,sans-Serif" font-size="10.00">w2c__f489</text>
</a>
</g>
</g>
<!-- Node2 -->
<g id="Node000002" class="node">
<title>Node2</title>
<g id="a_Node000002"><a xlink:href="app_8c.html#a9513bce17bc72aed77de02f0c1e16bf1" target="_top" xlink:title=" ">
<polygon fill="white" stroke="#666666" points="570.5,-39.75 502.75,-39.75 502.75,-19 570.5,-19 570.5,-39.75"/>
<text text-anchor="middle" x="536.62" y="-26.25" font-family="Helvetica,sans-Serif" font-size="10.00">w2c__f397</text>
</a>
</g>
</g>
<!-- Node1&#45;&gt;Node2 -->
<g id="edge1_Node000001_Node000002" class="edge">
<title>Node1&#45;&gt;Node2</title>
<g id="a_edge1_Node000001_Node000002"><a xlink:title=" ">
<path fill="none" stroke="#63b8ff" d="M594.82,-29.38C586.71,-29.38 578.38,-29.38 570.67,-29.38"/>
<polygon fill="#63b8ff" stroke="#63b8ff" points="594.54,-32.88 604.54,-29.38 594.54,-25.88 594.54,-32.88"/>
</a>
</g>
</g>
<!-- Node3 -->
<g id="Node000003" class="node">
<title>Node3</title>
<g id="a_Node000003"><a xlink:href="app_8c.html#af0024c44b9d13299f5e7a88bddccadf1" target="_top" xlink:title=" ">
<polygon fill="white" stroke="#666666" points="452.12,-59.75 384.38,-59.75 384.38,-39 452.12,-39 452.12,-59.75"/>
<text text-anchor="middle" x="418.25" y="-46.25" font-family="Helvetica,sans-Serif" font-size="10.00">w2c__f556</text>
</a>
</g>
</g>
<!-- Node2&#45;&gt;Node3 -->
<g id="edge2_Node000002_Node000003" class="edge">
<title>Node2&#45;&gt;Node3</title>
<g id="a_edge2_Node000002_Node000003"><a xlink:title=" ">
<path fill="none" stroke="#63b8ff" d="M491.3,-36.99C478.46,-39.2 464.66,-41.57 452.6,-43.64"/>
<polygon fill="#63b8ff" stroke="#63b8ff" points="491.52,-40.51 500.78,-35.36 490.34,-33.61 491.52,-40.51"/>
</a>
</g>
</g>
<!-- Node10 -->
<g id="Node000010" class="node">
<title>Node10</title>
<g id="a_Node000010"><a xlink:href="app_8c.html#ab0862d78ee117419eeae57c60fce3e44" target="_top" xlink:title=" ">
<polygon fill="white" stroke="#666666" points="466.75,-20.75 369.75,-20.75 369.75,0 466.75,0 466.75,-20.75"/>
<text text-anchor="middle" x="418.25" y="-7.25" font-family="Helvetica,sans-Serif" font-size="10.00">wrap_w2c__f397</text>
</a>
</g>
</g>
<!-- Node2&#45;&gt;Node10 -->
<g id="edge9_Node000002_Node000010" class="edge">
<title>Node2&#45;&gt;Node10</title>
<g id="a_edge9_Node000002_Node000010"><a xlink:title=" ">
<path fill="none" stroke="#63b8ff" d="M491.03,-22.09C483.14,-20.81 474.89,-19.46 466.91,-18.16"/>
<polygon fill="#63b8ff" stroke="#63b8ff" points="490.35,-25.53 500.78,-23.69 491.48,-18.62 490.35,-25.53"/>
</a>
</g>
</g>
<!-- Node4 -->
<g id="Node000004" class="node">
<title>Node4</title>
<g id="a_Node000004"><a xlink:href="app_8c.html#afb3fbfc35abe0f21d554f326b79a0b76" target="_top" xlink:title=" ">
<polygon fill="white" stroke="#666666" points="319.12,-78.75 251.38,-78.75 251.38,-58 319.12,-58 319.12,-78.75"/>
<text text-anchor="middle" x="285.25" y="-65.25" font-family="Helvetica,sans-Serif" font-size="10.00">w2c__f494</text>
</a>
</g>
</g>
<!-- Node3&#45;&gt;Node4 -->
<g id="edge3_Node000003_Node000004" class="edge">
<title>Node3&#45;&gt;Node4</title>
<g id="a_edge3_Node000003_Node000004"><a xlink:title=" ">
<path fill="none" stroke="#63b8ff" d="M373.03,-55.79C355.46,-58.34 335.58,-61.22 319.3,-63.58"/>
<polygon fill="#63b8ff" stroke="#63b8ff" points="373.3,-59.29 382.7,-54.39 372.3,-52.36 373.3,-59.29"/>
</a>
</g>
</g>
<!-- Node9 -->
<g id="Node000009" class="node">
<title>Node9</title>
<g id="a_Node000009"><a xlink:href="app_8c.html#a9da6ace7cab30f03c452001dd99af05d" target="_top" xlink:title=" ">
<polygon fill="white" stroke="#666666" points="333.75,-39.75 236.75,-39.75 236.75,-19 333.75,-19 333.75,-39.75"/>
<text text-anchor="middle" x="285.25" y="-26.25" font-family="Helvetica,sans-Serif" font-size="10.00">wrap_w2c__f556</text>
</a>
</g>
</g>
<!-- Node3&#45;&gt;Node9 -->
<g id="edge8_Node000003_Node000009" class="edge">
<title>Node3&#45;&gt;Node9</title>
<g id="a_edge8_Node000003_Node000009"><a xlink:title=" ">
<path fill="none" stroke="#63b8ff" d="M373.08,-42.63C360.56,-40.72 346.88,-38.63 334.15,-36.69"/>
<polygon fill="#63b8ff" stroke="#63b8ff" points="372.28,-46.05 382.7,-44.1 373.34,-39.13 372.28,-46.05"/>
</a>
</g>
</g>
<!-- Node5 -->
<g id="Node000005" class="node">
<title>Node5</title>
<g id="a_Node000005"><a xlink:href="app_8c.html#a86ae468e235684021eadfdacd5cb9dba" target="_top" xlink:title=" ">
<polygon fill="white" stroke="#666666" points="200.75,-97.75 133,-97.75 133,-77 200.75,-77 200.75,-97.75"/>
<text text-anchor="middle" x="166.88" y="-84.25" font-family="Helvetica,sans-Serif" font-size="10.00">w2c__f452</text>
</a>
</g>
</g>
<!-- Node4&#45;&gt;Node5 -->
<g id="edge4_Node000004_Node000005" class="edge">
<title>Node4&#45;&gt;Node5</title>
<g id="a_edge4_Node000004_Node000005"><a xlink:title=" ">
<path fill="none" stroke="#63b8ff" d="M239.93,-75.61C227.08,-77.71 213.28,-79.96 201.23,-81.93"/>
<polygon fill="#63b8ff" stroke="#63b8ff" points="240.1,-79.13 249.41,-74.06 238.97,-72.22 240.1,-79.13"/>
</a>
</g>
</g>
<!-- Node7 -->
<g id="Node000007" class="node">
<title>Node7</title>
<g id="a_Node000007"><a xlink:href="app_8c.html#ad1dbc2afe7918517df3fc54838f07298" target="_top" xlink:title=" ">
<polygon fill="white" stroke="#666666" points="200.75,-58.75 133,-58.75 133,-38 200.75,-38 200.75,-58.75"/>
<text text-anchor="middle" x="166.88" y="-45.25" font-family="Helvetica,sans-Serif" font-size="10.00">w2c__f520</text>
</a>
</g>
</g>
<!-- Node4&#45;&gt;Node7 -->
<g id="edge6_Node000004_Node000007" class="edge">
<title>Node4&#45;&gt;Node7</title>
<g id="a_edge6_Node000004_Node000007"><a xlink:title=" ">
<path fill="none" stroke="#63b8ff" d="M239.93,-60.76C227.08,-58.55 213.28,-56.18 201.23,-54.11"/>
<polygon fill="#63b8ff" stroke="#63b8ff" points="238.96,-64.14 249.41,-62.39 240.15,-57.24 238.96,-64.14"/>
</a>
</g>
</g>
<!-- Node6 -->
<g id="Node000006" class="node">
<title>Node6</title>
<g id="a_Node000006"><a xlink:href="app_8c.html#a57ca4f801147f9325a0ea7cc2d7192c5" target="_top" xlink:title=" ">
<polygon fill="white" stroke="#666666" points="97,-97.75 0,-97.75 0,-77 97,-77 97,-97.75"/>
<text text-anchor="middle" x="48.5" y="-84.25" font-family="Helvetica,sans-Serif" font-size="10.00">wrap_w2c__f452</text>
</a>
</g>
</g>
<!-- Node5&#45;&gt;Node6 -->
<g id="edge5_Node000005_Node000006" class="edge">
<title>Node5&#45;&gt;Node6</title>
<g id="a_edge5_Node000005_Node000006"><a xlink:title=" ">
<path fill="none" stroke="#63b8ff" d="M121.28,-87.38C113.39,-87.38 105.14,-87.38 97.16,-87.38"/>
<polygon fill="#63b8ff" stroke="#63b8ff" points="121.01,-90.88 131.01,-87.38 121.01,-83.88 121.01,-90.88"/>
</a>
</g>
</g>
<!-- Node8 -->
<g id="Node000008" class="node">
<title>Node8</title>
<g id="a_Node000008"><a xlink:href="app_8c.html#a130f07b726020d1add9a7ed5178e023a" target="_top" xlink:title=" ">
<polygon fill="white" stroke="#666666" points="97,-58.75 0,-58.75 0,-38 97,-38 97,-58.75"/>
<text text-anchor="middle" x="48.5" y="-45.25" font-family="Helvetica,sans-Serif" font-size="10.00">wrap_w2c__f520</text>
</a>
</g>
</g>
<!-- Node7&#45;&gt;Node8 -->
<g id="edge7_Node000007_Node000008" class="edge">
<title>Node7&#45;&gt;Node8</title>
<g id="a_edge7_Node000007_Node000008"><a xlink:title=" ">
<path fill="none" stroke="#63b8ff" d="M121.28,-48.38C113.39,-48.38 105.14,-48.38 97.16,-48.38"/>
<polygon fill="#63b8ff" stroke="#63b8ff" points="121.01,-51.88 131.01,-48.38 121.01,-44.88 121.01,-51.88"/>
</a>
</g>
</g>
</g>
</svg>
