<?xml version="1.0" encoding="UTF-8" standalone="no"?>
<!DOCTYPE svg PUBLIC "-//W3C//DTD SVG 1.1//EN"
 "http://www.w3.org/Graphics/SVG/1.1/DTD/svg11.dtd">
<!-- Generated by graphviz version 12.2.1 (0)
 -->
<!-- Title: w2c__f409 Pages: 1 -->
<svg width="391pt" height="239pt"
 viewBox="0.00 0.00 390.75 238.75" xmlns="http://www.w3.org/2000/svg" xmlns:xlink="http://www.w3.org/1999/xlink">
<g id="graph0" class="graph" transform="scale(1 1) rotate(0) translate(4 234.75)">
<title>w2c__f409</title>
<!-- Node1 -->
<g id="Node000001" class="node">
<title>Node1</title>
<g id="a_Node000001"><a xlink:title=" ">
<polygon fill="#999999" stroke="#666666" points="67.75,-134.75 0,-134.75 0,-114 67.75,-114 67.75,-134.75"/>
<text text-anchor="middle" x="33.88" y="-121.25" font-family="Helvetica,sans-Serif" font-size="10.00">w2c__f409</text>
</a>
</g>
</g>
<!-- Node2 -->
<g id="Node000002" class="node">
<title>Node2</title>
<g id="a_Node000002"><a xlink:href="app_8c.html#a0378208e0d5c0d1d6e7370f1c578fab3" target="_top" xlink:title=" ">
<polygon fill="white" stroke="#666666" points="173.38,-230.75 105.62,-230.75 105.62,-210 173.38,-210 173.38,-230.75"/>
<text text-anchor="middle" x="139.5" y="-217.25" font-family="Helvetica,sans-Serif" font-size="10.00">w2c__f216</text>
</a>
</g>
</g>
<!-- Node1&#45;&gt;Node2 -->
<g id="edge1_Node000001_Node000002" class="edge">
<title>Node1&#45;&gt;Node2</title>
<g id="a_edge1_Node000001_Node000002"><a xlink:title=" ">
<path fill="none" stroke="#63b8ff" d="M42.88,-135.17C54.88,-150.86 78.79,-180.26 103.75,-200.38 105.04,-201.41 106.38,-202.43 107.77,-203.42"/>
<polygon fill="#63b8ff" stroke="#63b8ff" points="105.66,-206.22 115.96,-208.72 109.46,-200.35 105.66,-206.22"/>
</a>
</g>
</g>
<!-- Node4 -->
<g id="Node000004" class="node">
<title>Node4</title>
<g id="a_Node000004"><a xlink:href="app_8c.html#aaca5d5bcf49f2ca74019cf097750b9f3" target="_top" xlink:title=" ">
<polygon fill="white" stroke="#666666" points="173.38,-191.75 105.62,-191.75 105.62,-171 173.38,-171 173.38,-191.75"/>
<text text-anchor="middle" x="139.5" y="-178.25" font-family="Helvetica,sans-Serif" font-size="10.00">w2c__f258</text>
</a>
</g>
</g>
<!-- Node1&#45;&gt;Node4 -->
<g id="edge3_Node000001_Node000004" class="edge">
<title>Node1&#45;&gt;Node4</title>
<g id="a_edge3_Node000001_Node000004"><a xlink:title=" ">
<path fill="none" stroke="#63b8ff" d="M54.37,-135.1C69.76,-143.56 91.48,-155.51 109,-165.15"/>
<polygon fill="#63b8ff" stroke="#63b8ff" points="106.97,-168.03 117.42,-169.78 110.34,-161.89 106.97,-168.03"/>
</a>
</g>
</g>
<!-- Node6 -->
<g id="Node000006" class="node">
<title>Node6</title>
<g id="a_Node000006"><a xlink:href="app_8c.html#a661adef20422b3bec7471432caf0b5bd" target="_top" xlink:title=" ">
<polygon fill="white" stroke="#666666" points="173.38,-134.75 105.62,-134.75 105.62,-114 173.38,-114 173.38,-134.75"/>
<text text-anchor="middle" x="139.5" y="-121.25" font-family="Helvetica,sans-Serif" font-size="10.00">w2c__f410</text>
</a>
</g>
</g>
<!-- Node1&#45;&gt;Node6 -->
<g id="edge6_Node000001_Node000006" class="edge">
<title>Node1&#45;&gt;Node6</title>
<g id="a_edge6_Node000001_Node000006"><a xlink:title=" ">
<path fill="none" stroke="#63b8ff" d="M68.23,-124.38C76.37,-124.38 85.2,-124.38 93.77,-124.38"/>
<polygon fill="#63b8ff" stroke="#63b8ff" points="93.69,-127.88 103.69,-124.38 93.69,-120.88 93.69,-127.88"/>
</a>
</g>
</g>
<!-- Node7 -->
<g id="Node000007" class="node">
<title>Node7</title>
<g id="a_Node000007"><a xlink:href="app_8c.html#a674f6e81761467d0a8dc6d2a425eda9f" target="_top" xlink:title=" ">
<polygon fill="white" stroke="#666666" points="382.75,-95.75 315,-95.75 315,-75 382.75,-75 382.75,-95.75"/>
<text text-anchor="middle" x="348.88" y="-82.25" font-family="Helvetica,sans-Serif" font-size="10.00">w2c__f498</text>
</a>
</g>
</g>
<!-- Node1&#45;&gt;Node7 -->
<g id="edge14_Node000001_Node000007" class="edge">
<title>Node1&#45;&gt;Node7</title>
<g id="a_edge14_Node000001_Node000007"><a xlink:title=" ">
<path fill="none" stroke="#63b8ff" d="M67.94,-114.31C79.23,-111.13 91.97,-107.81 103.75,-105.38 150.99,-95.61 163.19,-94.6 211.25,-90.38 241.94,-87.68 276.63,-86.43 303.37,-85.86"/>
<polygon fill="#63b8ff" stroke="#63b8ff" points="303.24,-89.36 313.17,-85.67 303.11,-82.36 303.24,-89.36"/>
</a>
</g>
</g>
<!-- Node11 -->
<g id="Node000011" class="node">
<title>Node11</title>
<g id="a_Node000011"><a xlink:href="app_8c.html#ad63b6498cfe22ce747f349eeb23b508f" target="_top" xlink:title=" ">
<polygon fill="white" stroke="#666666" points="175.25,-20.75 103.75,-20.75 103.75,0 175.25,0 175.25,-20.75"/>
<text text-anchor="middle" x="139.5" y="-7.25" font-family="Helvetica,sans-Serif" font-size="10.00">wasm_fabs</text>
</a>
</g>
</g>
<!-- Node1&#45;&gt;Node11 -->
<g id="edge15_Node000001_Node000011" class="edge">
<title>Node1&#45;&gt;Node11</title>
<g id="a_edge15_Node000001_Node000011"><a xlink:title=" ">
<path fill="none" stroke="#63b8ff" d="M41.56,-113.53C52.9,-95.69 77.25,-59.61 103.75,-34.38 106.14,-32.1 108.76,-29.88 111.46,-27.77"/>
<polygon fill="#63b8ff" stroke="#63b8ff" points="113.43,-30.67 119.49,-21.98 109.33,-24.99 113.43,-30.67"/>
</a>
</g>
</g>
<!-- Node3 -->
<g id="Node000003" class="node">
<title>Node3</title>
<g id="a_Node000003"><a xlink:href="app_8c.html#a8d9f347f9a643f0ebfb53c4f54578ac4" target="_top" xlink:title=" ">
<polygon fill="white" stroke="#666666" points="279,-230.75 211.25,-230.75 211.25,-210 279,-210 279,-230.75"/>
<text text-anchor="middle" x="245.12" y="-217.25" font-family="Helvetica,sans-Serif" font-size="10.00">w2c__f304</text>
</a>
</g>
</g>
<!-- Node2&#45;&gt;Node3 -->
<g id="edge2_Node000002_Node000003" class="edge">
<title>Node2&#45;&gt;Node3</title>
<g id="a_edge2_Node000002_Node000003"><a xlink:title=" ">
<path fill="none" stroke="#63b8ff" d="M173.86,-220.38C181.99,-220.38 190.83,-220.38 199.4,-220.38"/>
<polygon fill="#63b8ff" stroke="#63b8ff" points="199.32,-223.88 209.32,-220.38 199.32,-216.88 199.32,-223.88"/>
</a>
</g>
</g>
<!-- Node4&#45;&gt;Node3 -->
<g id="edge4_Node000004_Node000003" class="edge">
<title>Node4&#45;&gt;Node3</title>
<g id="a_edge4_Node000004_Node000003"><a xlink:title=" ">
<path fill="none" stroke="#63b8ff" d="M169.37,-192.24C180.37,-196.38 193.1,-201.17 204.91,-205.62"/>
<polygon fill="#63b8ff" stroke="#63b8ff" points="203.41,-208.79 214,-209.04 205.87,-202.24 203.41,-208.79"/>
</a>
</g>
</g>
<!-- Node5 -->
<g id="Node000005" class="node">
<title>Node5</title>
<g id="a_Node000005"><a xlink:href="app_8c.html#a881f0b113e93dce3ff52d04b435850f6" target="_top" xlink:title=" ">
<polygon fill="white" stroke="#666666" points="279,-191.75 211.25,-191.75 211.25,-171 279,-171 279,-191.75"/>
<text text-anchor="middle" x="245.12" y="-178.25" font-family="Helvetica,sans-Serif" font-size="10.00">w2c__f491</text>
</a>
</g>
</g>
<!-- Node4&#45;&gt;Node5 -->
<g id="edge5_Node000004_Node000005" class="edge">
<title>Node4&#45;&gt;Node5</title>
<g id="a_edge5_Node000004_Node000005"><a xlink:title=" ">
<path fill="none" stroke="#63b8ff" d="M173.86,-181.38C181.99,-181.38 190.83,-181.38 199.4,-181.38"/>
<polygon fill="#63b8ff" stroke="#63b8ff" points="199.32,-184.88 209.32,-181.38 199.32,-177.88 199.32,-184.88"/>
</a>
</g>
</g>
<!-- Node6&#45;&gt;Node7 -->
<g id="edge7_Node000006_Node000007" class="edge">
<title>Node6&#45;&gt;Node7</title>
<g id="a_edge7_Node000006_Node000007"><a xlink:title=" ">
<path fill="none" stroke="#63b8ff" d="M173.78,-114.58C185.55,-111.34 198.92,-107.92 211.25,-105.38 241.72,-99.08 276.41,-94.02 303.21,-90.57"/>
<polygon fill="#63b8ff" stroke="#63b8ff" points="303.57,-94.06 313.05,-89.34 302.7,-87.11 303.57,-94.06"/>
</a>
</g>
</g>
<!-- Node8 -->
<g id="Node000008" class="node">
<title>Node8</title>
<g id="a_Node000008"><a xlink:href="app_8c.html#abfae8f4ed4890a57991c21d1c2b5183d" target="_top" xlink:title=" ">
<polygon fill="white" stroke="#666666" points="279,-134.75 211.25,-134.75 211.25,-114 279,-114 279,-134.75"/>
<text text-anchor="middle" x="245.12" y="-121.25" font-family="Helvetica,sans-Serif" font-size="10.00">w2c__f531</text>
</a>
</g>
</g>
<!-- Node6&#45;&gt;Node8 -->
<g id="edge8_Node000006_Node000008" class="edge">
<title>Node6&#45;&gt;Node8</title>
<g id="a_edge8_Node000006_Node000008"><a xlink:title=" ">
<path fill="none" stroke="#63b8ff" d="M173.86,-118.02C181.99,-117.66 190.83,-117.54 199.4,-117.68"/>
<polygon fill="#63b8ff" stroke="#63b8ff" points="199.22,-121.18 209.32,-117.98 199.43,-114.18 199.22,-121.18"/>
</a>
</g>
</g>
<!-- Node8&#45;&gt;Node6 -->
<g id="edge10_Node000008_Node000006" class="edge">
<title>Node8&#45;&gt;Node6</title>
<g id="a_edge10_Node000008_Node000006"><a xlink:title=" ">
<path fill="none" stroke="#63b8ff" d="M210.83,-130.73C202.7,-131.09 193.87,-131.21 185.29,-131.07"/>
<polygon fill="#63b8ff" stroke="#63b8ff" points="185.47,-127.57 175.37,-130.77 185.26,-134.57 185.47,-127.57"/>
</a>
</g>
</g>
<!-- Node8&#45;&gt;Node7 -->
<g id="edge11_Node000008_Node000007" class="edge">
<title>Node8&#45;&gt;Node7</title>
<g id="a_edge11_Node000008_Node000007"><a xlink:title=" ">
<path fill="none" stroke="#63b8ff" d="M274.47,-113.51C285.16,-109.41 297.52,-104.67 309.01,-100.27"/>
<polygon fill="#63b8ff" stroke="#63b8ff" points="310.19,-103.57 318.27,-96.72 307.68,-97.03 310.19,-103.57"/>
</a>
</g>
</g>
<!-- Node8&#45;&gt;Node8 -->
<g id="edge13_Node000008_Node000008" class="edge">
<title>Node8&#45;&gt;Node8</title>
<g id="a_edge13_Node000008_Node000008"><a xlink:title=" ">
<path fill="none" stroke="#63b8ff" d="M228.41,-135.15C221.72,-143.81 227.29,-152.75 245.12,-152.75 254.6,-152.75 260.61,-150.23 263.16,-146.56"/>
<polygon fill="#63b8ff" stroke="#63b8ff" points="266.64,-146.18 262.02,-136.65 259.69,-146.99 266.64,-146.18"/>
</a>
</g>
</g>
<!-- Node9 -->
<g id="Node000009" class="node">
<title>Node9</title>
<g id="a_Node000009"><a xlink:href="app_8c.html#a219dcf2dd43adb72eba3cd7db7a10c59" target="_top" xlink:title=" ">
<polygon fill="white" stroke="#666666" points="382.75,-134.75 315,-134.75 315,-114 382.75,-114 382.75,-134.75"/>
<text text-anchor="middle" x="348.88" y="-121.25" font-family="Helvetica,sans-Serif" font-size="10.00">w2c__f246</text>
</a>
</g>
</g>
<!-- Node8&#45;&gt;Node9 -->
<g id="edge9_Node000008_Node000009" class="edge">
<title>Node8&#45;&gt;Node9</title>
<g id="a_edge9_Node000008_Node000009"><a xlink:title=" ">
<path fill="none" stroke="#63b8ff" d="M279.44,-124.38C287.07,-124.38 295.31,-124.38 303.33,-124.38"/>
<polygon fill="#63b8ff" stroke="#63b8ff" points="303.32,-127.88 313.32,-124.38 303.32,-120.88 303.32,-127.88"/>
</a>
</g>
</g>
<!-- Node10 -->
<g id="Node000010" class="node">
<title>Node10</title>
<g id="a_Node000010"><a xlink:href="app_8c.html#a2cbc524988e5fc60b3a75f21224249d9" target="_top" xlink:title=" ">
<polygon fill="white" stroke="#666666" points="382.75,-173.75 315,-173.75 315,-153 382.75,-153 382.75,-173.75"/>
<text text-anchor="middle" x="348.88" y="-160.25" font-family="Helvetica,sans-Serif" font-size="10.00">w2c__f503</text>
</a>
</g>
</g>
<!-- Node8&#45;&gt;Node10 -->
<g id="edge12_Node000008_Node000010" class="edge">
<title>Node8&#45;&gt;Node10</title>
<g id="a_edge12_Node000008_Node000010"><a xlink:title=" ">
<path fill="none" stroke="#63b8ff" d="M274.47,-135.24C285.16,-139.34 297.52,-144.08 309.01,-148.48"/>
<polygon fill="#63b8ff" stroke="#63b8ff" points="307.68,-151.72 318.27,-152.03 310.19,-145.18 307.68,-151.72"/>
</a>
</g>
</g>
</g>
</svg>
