<?xml version="1.0" encoding="UTF-8" standalone="no"?>
<!DOCTYPE svg PUBLIC "-//W3C//DTD SVG 1.1//EN"
 "http://www.w3.org/Graphics/SVG/1.1/DTD/svg11.dtd">
<!-- Generated by graphviz version 12.2.1 (0)
 -->
<!-- Title: w2c__c Pages: 1 -->
<svg width="575pt" height="1868pt"
 viewBox="0.00 0.00 575.00 1867.75" xmlns="http://www.w3.org/2000/svg" xmlns:xlink="http://www.w3.org/1999/xlink">
<g id="graph0" class="graph" transform="scale(1 1) rotate(0) translate(4 1863.75)">
<title>w2c__c</title>
<!-- Node1 -->
<g id="Node000001" class="node">
<title>Node1</title>
<g id="a_Node000001"><a xlink:title=" ">
<polygon fill="#999999" stroke="#666666" points="51.25,-969.75 0,-969.75 0,-949 51.25,-949 51.25,-969.75"/>
<text text-anchor="middle" x="25.62" y="-956.25" font-family="Helvetica,sans-Serif" font-size="10.00">w2c__c</text>
</a>
</g>
</g>
<!-- Node2 -->
<g id="Node000002" class="node">
<title>Node2</title>
<g id="a_Node000002"><a xlink:href="app_8c.html#ac863989691d4c389f80374209c220171" target="_top" xlink:title=" ">
<polygon fill="white" stroke="#666666" points="149.75,-969.75 87.25,-969.75 87.25,-949 149.75,-949 149.75,-969.75"/>
<text text-anchor="middle" x="118.5" y="-956.25" font-family="Helvetica,sans-Serif" font-size="10.00">w2c__c_0</text>
</a>
</g>
</g>
<!-- Node1&#45;&gt;Node2 -->
<g id="edge1_Node000001_Node000002" class="edge">
<title>Node1&#45;&gt;Node2</title>
<g id="a_edge1_Node000001_Node000002"><a xlink:title=" ">
<path fill="none" stroke="#63b8ff" d="M51.46,-959.38C58.89,-959.38 67.25,-959.38 75.46,-959.38"/>
<polygon fill="#63b8ff" stroke="#63b8ff" points="75.35,-962.88 85.35,-959.38 75.35,-955.88 75.35,-962.88"/>
</a>
</g>
</g>
<!-- Node3 -->
<g id="Node000003" class="node">
<title>Node3</title>
<g id="a_Node000003"><a xlink:href="app_8c.html#aac449994afd8488e2efd16fb19f0ecb1" target="_top" xlink:title=" ">
<polygon fill="#fff0f0" stroke="red" points="253.5,-969.75 185.75,-969.75 185.75,-949 253.5,-949 253.5,-969.75"/>
<text text-anchor="middle" x="219.62" y="-956.25" font-family="Helvetica,sans-Serif" font-size="10.00">w2c__f336</text>
</a>
</g>
</g>
<!-- Node2&#45;&gt;Node3 -->
<g id="edge2_Node000002_Node000003" class="edge">
<title>Node2&#45;&gt;Node3</title>
<g id="a_edge2_Node000002_Node000003"><a xlink:title=" ">
<path fill="none" stroke="#63b8ff" d="M150.05,-959.38C157.71,-959.38 166.07,-959.38 174.25,-959.38"/>
<polygon fill="#63b8ff" stroke="#63b8ff" points="174.08,-962.88 184.08,-959.38 174.08,-955.88 174.08,-962.88"/>
</a>
</g>
</g>
<!-- Node4 -->
<g id="Node000004" class="node">
<title>Node4</title>
<g id="a_Node000004"><a xlink:href="app_8c.html#a86f7d5fc7415fd1937228236a3f26160" target="_top" xlink:title=" ">
<polygon fill="white" stroke="#666666" points="353.5,-1859.75 295.5,-1859.75 295.5,-1839 353.5,-1839 353.5,-1859.75"/>
<text text-anchor="middle" x="324.5" y="-1846.25" font-family="Helvetica,sans-Serif" font-size="10.00">w2c_0_1</text>
</a>
</g>
</g>
<!-- Node3&#45;&gt;Node4 -->
<g id="edge3_Node000003_Node000004" class="edge">
<title>Node3&#45;&gt;Node4</title>
<g id="a_edge3_Node000003_Node000004"><a xlink:title=" ">
<path fill="none" stroke="#63b8ff" d="M220.88,-970.24C223.21,-1065.23 241.64,-1752.87 289.5,-1829.38 289.78,-1829.82 290.08,-1830.27 290.39,-1830.7"/>
<polygon fill="#63b8ff" stroke="#63b8ff" points="287.72,-1832.98 297.31,-1837.47 292.61,-1827.98 287.72,-1832.98"/>
</a>
</g>
</g>
<!-- Node5 -->
<g id="Node000005" class="node">
<title>Node5</title>
<g id="a_Node000005"><a xlink:href="app_8c.html#a41e0ee6ef20134a809ea951c96136cc8" target="_top" xlink:title=" ">
<polygon fill="white" stroke="#666666" points="359.5,-1820.75 289.5,-1820.75 289.5,-1800 359.5,-1800 359.5,-1820.75"/>
<text text-anchor="middle" x="324.5" y="-1807.25" font-family="Helvetica,sans-Serif" font-size="10.00">w2c_0_108</text>
</a>
</g>
</g>
<!-- Node3&#45;&gt;Node5 -->
<g id="edge4_Node000003_Node000005" class="edge">
<title>Node3&#45;&gt;Node5</title>
<g id="a_edge4_Node000003_Node000005"><a xlink:title=" ">
<path fill="none" stroke="#63b8ff" d="M220.92,-970.04C223.53,-1061.87 243.68,-1717.44 289.5,-1790.38 289.78,-1790.82 290.08,-1791.26 290.39,-1791.7"/>
<polygon fill="#63b8ff" stroke="#63b8ff" points="287.72,-1793.99 297.32,-1798.46 292.61,-1788.98 287.72,-1793.99"/>
</a>
</g>
</g>
<!-- Node6 -->
<g id="Node000006" class="node">
<title>Node6</title>
<g id="a_Node000006"><a xlink:href="app_8c.html#a4412a19c83b911a11fc0ea94ba123b2c" target="_top" xlink:title=" ">
<polygon fill="white" stroke="#666666" points="359.5,-1781.75 289.5,-1781.75 289.5,-1761 359.5,-1761 359.5,-1781.75"/>
<text text-anchor="middle" x="324.5" y="-1768.25" font-family="Helvetica,sans-Serif" font-size="10.00">w2c_0_109</text>
</a>
</g>
</g>
<!-- Node3&#45;&gt;Node6 -->
<g id="edge5_Node000003_Node000006" class="edge">
<title>Node3&#45;&gt;Node6</title>
<g id="a_edge5_Node000003_Node000006"><a xlink:title=" ">
<path fill="none" stroke="#63b8ff" d="M220.97,-970.1C223.9,-1059.69 245.77,-1682.07 289.5,-1751.38 289.78,-1751.82 290.08,-1752.26 290.39,-1752.7"/>
<polygon fill="#63b8ff" stroke="#63b8ff" points="287.73,-1754.99 297.34,-1759.46 292.61,-1749.97 287.73,-1754.99"/>
</a>
</g>
</g>
<!-- Node7 -->
<g id="Node000007" class="node">
<title>Node7</title>
<g id="a_Node000007"><a xlink:href="app_8c.html#a68b833f9aeb03fa55aa2cc9624cdaf5d" target="_top" xlink:title=" ">
<polygon fill="white" stroke="#666666" points="359.5,-1742.75 289.5,-1742.75 289.5,-1722 359.5,-1722 359.5,-1742.75"/>
<text text-anchor="middle" x="324.5" y="-1729.25" font-family="Helvetica,sans-Serif" font-size="10.00">w2c_0_150</text>
</a>
</g>
</g>
<!-- Node3&#45;&gt;Node7 -->
<g id="edge6_Node000003_Node000007" class="edge">
<title>Node3&#45;&gt;Node7</title>
<g id="a_edge6_Node000003_Node000007"><a xlink:title=" ">
<path fill="none" stroke="#63b8ff" d="M221.02,-970.12C224.29,-1057.25 247.85,-1646.69 289.5,-1712.38 289.78,-1712.82 290.08,-1713.26 290.39,-1713.69"/>
<polygon fill="#63b8ff" stroke="#63b8ff" points="287.74,-1715.99 297.35,-1720.45 292.61,-1710.97 287.74,-1715.99"/>
</a>
</g>
</g>
<!-- Node8 -->
<g id="Node000008" class="node">
<title>Node8</title>
<g id="a_Node000008"><a xlink:href="app_8c.html#a7ec3324a54a5b6298d4de7cae840fbee" target="_top" xlink:title=" ">
<polygon fill="white" stroke="#666666" points="359.5,-1703.75 289.5,-1703.75 289.5,-1683 359.5,-1683 359.5,-1703.75"/>
<text text-anchor="middle" x="324.5" y="-1690.25" font-family="Helvetica,sans-Serif" font-size="10.00">w2c_0_160</text>
</a>
</g>
</g>
<!-- Node3&#45;&gt;Node8 -->
<g id="edge7_Node000003_Node000008" class="edge">
<title>Node3&#45;&gt;Node8</title>
<g id="a_edge7_Node000003_Node000008"><a xlink:title=" ">
<path fill="none" stroke="#63b8ff" d="M221.07,-970.09C224.69,-1054.55 249.91,-1611.29 289.5,-1673.38 289.87,-1673.95 290.26,-1674.52 290.67,-1675.06"/>
<polygon fill="#63b8ff" stroke="#63b8ff" points="288.02,-1677.37 297.69,-1681.7 292.83,-1672.28 288.02,-1677.37"/>
</a>
</g>
</g>
<!-- Node9 -->
<g id="Node000009" class="node">
<title>Node9</title>
<g id="a_Node000009"><a xlink:href="app_8c.html#adb0936db985ca5549233f0ac400dd785" target="_top" xlink:title=" ">
<polygon fill="white" stroke="#666666" points="359.5,-1664.75 289.5,-1664.75 289.5,-1644 359.5,-1644 359.5,-1664.75"/>
<text text-anchor="middle" x="324.5" y="-1651.25" font-family="Helvetica,sans-Serif" font-size="10.00">w2c_0_164</text>
</a>
</g>
</g>
<!-- Node3&#45;&gt;Node9 -->
<g id="edge8_Node000003_Node000009" class="edge">
<title>Node3&#45;&gt;Node9</title>
<g id="a_edge8_Node000003_Node000009"><a xlink:title=" ">
<path fill="none" stroke="#63b8ff" d="M220.43,-969.9C219.2,-1046.46 214.77,-1517.88 289.5,-1634.38 289.87,-1634.95 290.26,-1635.51 290.68,-1636.06"/>
<polygon fill="#63b8ff" stroke="#63b8ff" points="288.03,-1638.37 297.7,-1642.69 292.83,-1633.28 288.03,-1638.37"/>
</a>
</g>
</g>
<!-- Node10 -->
<g id="Node000010" class="node">
<title>Node10</title>
<g id="a_Node000010"><a xlink:href="app_8c.html#a337cc07ff026b599840af3f4e83e8260" target="_top" xlink:title=" ">
<polygon fill="white" stroke="#666666" points="359.5,-1625.75 289.5,-1625.75 289.5,-1605 359.5,-1605 359.5,-1625.75"/>
<text text-anchor="middle" x="324.5" y="-1612.25" font-family="Helvetica,sans-Serif" font-size="10.00">w2c_0_184</text>
</a>
</g>
</g>
<!-- Node3&#45;&gt;Node10 -->
<g id="edge9_Node000003_Node000010" class="edge">
<title>Node3&#45;&gt;Node10</title>
<g id="a_edge9_Node000003_Node000010"><a xlink:title=" ">
<path fill="none" stroke="#63b8ff" d="M220.5,-970.24C219.84,-1045.23 219,-1486.22 289.5,-1595.38 289.87,-1595.95 290.27,-1596.51 290.68,-1597.06"/>
<polygon fill="#63b8ff" stroke="#63b8ff" points="288.04,-1599.38 297.72,-1603.68 292.83,-1594.28 288.04,-1599.38"/>
</a>
</g>
</g>
<!-- Node11 -->
<g id="Node000011" class="node">
<title>Node11</title>
<g id="a_Node000011"><a xlink:href="app_8c.html#af712434e74bcea443fe8caa9b022d6f1" target="_top" xlink:title=" ">
<polygon fill="white" stroke="#666666" points="356.5,-1586.75 292.5,-1586.75 292.5,-1566 356.5,-1566 356.5,-1586.75"/>
<text text-anchor="middle" x="324.5" y="-1573.25" font-family="Helvetica,sans-Serif" font-size="10.00">w2c_0_25</text>
</a>
</g>
</g>
<!-- Node3&#45;&gt;Node11 -->
<g id="edge10_Node000003_Node000011" class="edge">
<title>Node3&#45;&gt;Node11</title>
<g id="a_edge10_Node000003_Node000011"><a xlink:title=" ">
<path fill="none" stroke="#63b8ff" d="M220.59,-970.03C220.52,-1041.76 223.06,-1454.28 289.5,-1556.38 289.87,-1556.95 290.27,-1557.51 290.69,-1558.05"/>
<polygon fill="#63b8ff" stroke="#63b8ff" points="288.05,-1560.38 297.74,-1564.66 292.84,-1555.27 288.05,-1560.38"/>
</a>
</g>
</g>
<!-- Node12 -->
<g id="Node000012" class="node">
<title>Node12</title>
<g id="a_Node000012"><a xlink:href="app_8c.html#af71864d863b0ac83d66ab8ac6e38bc85" target="_top" xlink:title=" ">
<polygon fill="white" stroke="#666666" points="356.5,-1547.75 292.5,-1547.75 292.5,-1527 356.5,-1527 356.5,-1547.75"/>
<text text-anchor="middle" x="324.5" y="-1534.25" font-family="Helvetica,sans-Serif" font-size="10.00">w2c_0_37</text>
</a>
</g>
</g>
<!-- Node3&#45;&gt;Node12 -->
<g id="edge11_Node000003_Node000012" class="edge">
<title>Node3&#45;&gt;Node12</title>
<g id="a_edge11_Node000003_Node000012"><a xlink:title=" ">
<path fill="none" stroke="#63b8ff" d="M220.69,-970.22C221.26,-1039.7 227.23,-1422.52 289.5,-1517.38 289.88,-1517.95 290.27,-1518.51 290.69,-1519.05"/>
<polygon fill="#63b8ff" stroke="#63b8ff" points="288.07,-1521.39 297.77,-1525.65 292.84,-1516.27 288.07,-1521.39"/>
</a>
</g>
</g>
<!-- Node13 -->
<g id="Node000013" class="node">
<title>Node13</title>
<g id="a_Node000013"><a xlink:href="app_8c.html#a3154d8c5dc2be0be3b61f9964e5058ea" target="_top" xlink:title=" ">
<polygon fill="white" stroke="#666666" points="353.5,-1508.75 295.5,-1508.75 295.5,-1488 353.5,-1488 353.5,-1508.75"/>
<text text-anchor="middle" x="324.5" y="-1495.25" font-family="Helvetica,sans-Serif" font-size="10.00">w2c_0_4</text>
</a>
</g>
</g>
<!-- Node3&#45;&gt;Node13 -->
<g id="edge12_Node000003_Node000013" class="edge">
<title>Node3&#45;&gt;Node13</title>
<g id="a_edge12_Node000003_Node000013"><a xlink:title=" ">
<path fill="none" stroke="#63b8ff" d="M220.79,-969.89C222.01,-1035.65 231.23,-1390.5 289.5,-1478.38 289.88,-1478.95 290.28,-1479.5 290.7,-1480.05"/>
<polygon fill="#63b8ff" stroke="#63b8ff" points="288.08,-1482.39 297.79,-1486.63 292.85,-1477.26 288.08,-1482.39"/>
</a>
</g>
</g>
<!-- Node14 -->
<g id="Node000014" class="node">
<title>Node14</title>
<g id="a_Node000014"><a xlink:href="app_8c.html#a4f89434e73555473a637aa72f93ac987" target="_top" xlink:title=" ">
<polygon fill="white" stroke="#666666" points="356.5,-1469.75 292.5,-1469.75 292.5,-1449 356.5,-1449 356.5,-1469.75"/>
<text text-anchor="middle" x="324.5" y="-1456.25" font-family="Helvetica,sans-Serif" font-size="10.00">w2c_0_50</text>
</a>
</g>
</g>
<!-- Node3&#45;&gt;Node14 -->
<g id="edge13_Node000003_Node000014" class="edge">
<title>Node3&#45;&gt;Node14</title>
<g id="a_edge13_Node000003_Node000014"><a xlink:title=" ">
<path fill="none" stroke="#63b8ff" d="M220.92,-969.9C222.84,-1032.78 235.34,-1358.62 289.5,-1439.38 289.88,-1439.94 290.29,-1440.5 290.71,-1441.04"/>
<polygon fill="#63b8ff" stroke="#63b8ff" points="288.1,-1443.4 297.82,-1447.62 292.85,-1438.26 288.1,-1443.4"/>
</a>
</g>
</g>
<!-- Node15 -->
<g id="Node000015" class="node">
<title>Node15</title>
<g id="a_Node000015"><a xlink:href="app_8c.html#a1ab57dd4620193a705e9df570e74207c" target="_top" xlink:title=" ">
<polygon fill="white" stroke="#666666" points="356.5,-1430.75 292.5,-1430.75 292.5,-1410 356.5,-1410 356.5,-1430.75"/>
<text text-anchor="middle" x="324.5" y="-1417.25" font-family="Helvetica,sans-Serif" font-size="10.00">w2c_0_58</text>
</a>
</g>
</g>
<!-- Node3&#45;&gt;Node15 -->
<g id="edge14_Node000003_Node000015" class="edge">
<title>Node3&#45;&gt;Node15</title>
<g id="a_edge14_Node000003_Node000015"><a xlink:title=" ">
<path fill="none" stroke="#63b8ff" d="M221.08,-970.21C223.8,-1030.73 239.51,-1326.84 289.5,-1400.38 289.88,-1400.94 290.29,-1401.49 290.72,-1402.03"/>
<polygon fill="#63b8ff" stroke="#63b8ff" points="288.12,-1404.4 297.86,-1408.59 292.86,-1399.25 288.12,-1404.4"/>
</a>
</g>
</g>
<!-- Node16 -->
<g id="Node000016" class="node">
<title>Node16</title>
<g id="a_Node000016"><a xlink:href="app_8c.html#adaae042faee84b162cf863e513537297" target="_top" xlink:title=" ">
<polygon fill="white" stroke="#666666" points="356.5,-1391.75 292.5,-1391.75 292.5,-1371 356.5,-1371 356.5,-1391.75"/>
<text text-anchor="middle" x="324.5" y="-1378.25" font-family="Helvetica,sans-Serif" font-size="10.00">w2c_0_72</text>
</a>
</g>
</g>
<!-- Node3&#45;&gt;Node16 -->
<g id="edge15_Node000003_Node000016" class="edge">
<title>Node3&#45;&gt;Node16</title>
<g id="a_edge15_Node000003_Node000016"><a xlink:title=" ">
<path fill="none" stroke="#63b8ff" d="M221.25,-969.99C224.75,-1026.8 243.53,-1294.81 289.5,-1361.38 289.89,-1361.94 290.3,-1362.49 290.73,-1363.03"/>
<polygon fill="#63b8ff" stroke="#63b8ff" points="288.15,-1365.41 297.9,-1369.57 292.87,-1360.24 288.15,-1365.41"/>
</a>
</g>
</g>
<!-- Node17 -->
<g id="Node000017" class="node">
<title>Node17</title>
<g id="a_Node000017"><a xlink:href="app_8c.html#ae3412eb916e59d0f90145f8fb454c0f2" target="_top" xlink:title=" ">
<polygon fill="white" stroke="#666666" points="356.5,-1352.75 292.5,-1352.75 292.5,-1332 356.5,-1332 356.5,-1352.75"/>
<text text-anchor="middle" x="324.5" y="-1339.25" font-family="Helvetica,sans-Serif" font-size="10.00">w2c_0_86</text>
</a>
</g>
</g>
<!-- Node3&#45;&gt;Node17 -->
<g id="edge16_Node000003_Node000017" class="edge">
<title>Node3&#45;&gt;Node17</title>
<g id="a_edge16_Node000003_Node000017"><a xlink:title=" ">
<path fill="none" stroke="#63b8ff" d="M221.46,-970C225.85,-1023.47 247.6,-1262.84 289.5,-1322.38 289.89,-1322.94 290.31,-1323.48 290.74,-1324.02"/>
<polygon fill="#63b8ff" stroke="#63b8ff" points="288.18,-1326.42 297.95,-1330.53 292.88,-1321.23 288.18,-1326.42"/>
</a>
</g>
</g>
<!-- Node18 -->
<g id="Node000018" class="node">
<title>Node18</title>
<g id="a_Node000018"><a xlink:href="app_8c.html#a1e1bea02f0965ece1118d729bd15dbc2" target="_top" xlink:title=" ">
<polygon fill="#fff0f0" stroke="red" points="358.38,-1313.75 290.62,-1313.75 290.62,-1293 358.38,-1293 358.38,-1313.75"/>
<text text-anchor="middle" x="324.5" y="-1300.25" font-family="Helvetica,sans-Serif" font-size="10.00">w2c__f196</text>
</a>
</g>
</g>
<!-- Node3&#45;&gt;Node18 -->
<g id="edge17_Node000003_Node000018" class="edge">
<title>Node3&#45;&gt;Node18</title>
<g id="a_edge17_Node000003_Node000018"><a xlink:title=" ">
<path fill="none" stroke="#63b8ff" d="M221.75,-970.17C227.14,-1020.38 251.69,-1230.88 289.5,-1283.38 289.9,-1283.93 290.32,-1284.47 290.76,-1285"/>
<polygon fill="#63b8ff" stroke="#63b8ff" points="288.22,-1287.43 298.01,-1291.49 292.89,-1282.21 288.22,-1287.43"/>
</a>
</g>
</g>
<!-- Node21 -->
<g id="Node000021" class="node">
<title>Node21</title>
<g id="a_Node000021"><a xlink:href="app_8c.html#a9f7c6b96be6e0c0613ec652af07545e6" target="_top" xlink:title=" ">
<polygon fill="#fff0f0" stroke="red" points="358.38,-1274.75 290.62,-1274.75 290.62,-1254 358.38,-1254 358.38,-1274.75"/>
<text text-anchor="middle" x="324.5" y="-1261.25" font-family="Helvetica,sans-Serif" font-size="10.00">w2c__f212</text>
</a>
</g>
</g>
<!-- Node3&#45;&gt;Node21 -->
<g id="edge18_Node000003_Node000021" class="edge">
<title>Node3&#45;&gt;Node21</title>
<g id="a_edge18_Node000003_Node000021"><a xlink:title=" ">
<path fill="none" stroke="#63b8ff" d="M220.36,-970.18C219.92,-1010.58 223.25,-1155.04 289.5,-1244.38 290,-1245.06 290.54,-1245.72 291.1,-1246.36"/>
<polygon fill="#63b8ff" stroke="#63b8ff" points="288.57,-1248.79 298.42,-1252.69 293.14,-1243.5 288.57,-1248.79"/>
</a>
</g>
</g>
<!-- Node36 -->
<g id="Node000036" class="node">
<title>Node36</title>
<g id="a_Node000036"><a xlink:href="app_8c.html#ae275fc4639b8584f1e79529b33ad9c4c" target="_top" xlink:title=" ">
<polygon fill="#fff0f0" stroke="red" points="358.38,-1235.75 290.62,-1235.75 290.62,-1215 358.38,-1215 358.38,-1235.75"/>
<text text-anchor="middle" x="324.5" y="-1222.25" font-family="Helvetica,sans-Serif" font-size="10.00">w2c__f213</text>
</a>
</g>
</g>
<!-- Node3&#45;&gt;Node36 -->
<g id="edge19_Node000003_Node000036" class="edge">
<title>Node3&#45;&gt;Node36</title>
<g id="a_edge19_Node000003_Node000036"><a xlink:title=" ">
<path fill="none" stroke="#63b8ff" d="M221.18,-970.11C223.52,-1006.14 235.18,-1124.76 289.5,-1201.38 291.11,-1203.64 293,-1205.77 295.06,-1207.75"/>
<polygon fill="#63b8ff" stroke="#63b8ff" points="292.4,-1210.1 302.37,-1213.68 296.8,-1204.66 292.4,-1210.1"/>
</a>
</g>
</g>
<!-- Node38 -->
<g id="Node000038" class="node">
<title>Node38</title>
<g id="a_Node000038"><a xlink:href="app_8c.html#ac33f7fe7abe076e97dc158576d1c5e0e" target="_top" xlink:title=" ">
<polygon fill="#fff0f0" stroke="red" points="463.25,-1160.75 395.5,-1160.75 395.5,-1140 463.25,-1140 463.25,-1160.75"/>
<text text-anchor="middle" x="429.38" y="-1147.25" font-family="Helvetica,sans-Serif" font-size="10.00">w2c__f216</text>
</a>
</g>
</g>
<!-- Node3&#45;&gt;Node38 -->
<g id="edge20_Node000003_Node000038" class="edge">
<title>Node3&#45;&gt;Node38</title>
<g id="a_edge20_Node000003_Node000038"><a xlink:title=" ">
<path fill="none" stroke="#63b8ff" d="M222.01,-970.16C226.28,-998.86 241.99,-1077.64 289.5,-1117.38 315.76,-1139.34 354.13,-1147.21 383.88,-1149.8"/>
<polygon fill="#63b8ff" stroke="#63b8ff" points="383.5,-1153.28 393.72,-1150.47 383.98,-1146.3 383.5,-1153.28"/>
</a>
</g>
</g>
<!-- Node25 -->
<g id="Node000025" class="node">
<title>Node25</title>
<g id="a_Node000025"><a xlink:href="app_8c.html#a03fa34d93d32a3ee40dfc2d840730111" target="_top" xlink:title=" ">
<polygon fill="#fff0f0" stroke="red" points="567,-1083.75 499.25,-1083.75 499.25,-1063 567,-1063 567,-1083.75"/>
<text text-anchor="middle" x="533.12" y="-1070.25" font-family="Helvetica,sans-Serif" font-size="10.00">w2c__f262</text>
</a>
</g>
</g>
<!-- Node3&#45;&gt;Node25 -->
<g id="edge43_Node000003_Node000025" class="edge">
<title>Node3&#45;&gt;Node25</title>
<g id="a_edge43_Node000003_Node000025"><a xlink:title=" ">
<path fill="none" stroke="#63b8ff" d="M221.16,-970.24C223.35,-1002.5 234.42,-1098.47 289.5,-1146.38 348.28,-1197.49 393.95,-1204.95 463.25,-1169.38 493.69,-1153.75 513.71,-1117.72 523.96,-1094.52"/>
<polygon fill="#63b8ff" stroke="#63b8ff" points="527.13,-1095.99 527.74,-1085.42 520.67,-1093.31 527.13,-1095.99"/>
</a>
</g>
</g>
<!-- Node44 -->
<g id="Node000044" class="node">
<title>Node44</title>
<g id="a_Node000044"><a xlink:href="app_8c.html#a17286e0a4fa98521763a1de2e2c9ddac" target="_top" xlink:title=" ">
<polygon fill="#fff0f0" stroke="red" points="463.25,-1121.75 395.5,-1121.75 395.5,-1101 463.25,-1101 463.25,-1121.75"/>
<text text-anchor="middle" x="429.38" y="-1108.25" font-family="Helvetica,sans-Serif" font-size="10.00">w2c__f223</text>
</a>
</g>
</g>
<!-- Node3&#45;&gt;Node44 -->
<g id="edge22_Node000003_Node000044" class="edge">
<title>Node3&#45;&gt;Node44</title>
<g id="a_edge22_Node000003_Node000044"><a xlink:title=" ">
<path fill="none" stroke="#63b8ff" d="M222.71,-970.2C228.33,-996.14 246.37,-1061.94 289.5,-1092.38 316.8,-1111.63 354.75,-1115.7 384.09,-1115.33"/>
<polygon fill="#63b8ff" stroke="#63b8ff" points="383.87,-1118.84 393.75,-1115.02 383.65,-1111.84 383.87,-1118.84"/>
</a>
</g>
</g>
<!-- Node50 -->
<g id="Node000050" class="node">
<title>Node50</title>
<g id="a_Node000050"><a xlink:href="app_8c.html#a16b87571119c211bed30fa7b8b381ed7" target="_top" xlink:title=" ">
<polygon fill="#fff0f0" stroke="red" points="358.38,-893.75 290.62,-893.75 290.62,-873 358.38,-873 358.38,-893.75"/>
<text text-anchor="middle" x="324.5" y="-880.25" font-family="Helvetica,sans-Serif" font-size="10.00">w2c__f224</text>
</a>
</g>
</g>
<!-- Node3&#45;&gt;Node50 -->
<g id="edge24_Node000003_Node000050" class="edge">
<title>Node3&#45;&gt;Node50</title>
<g id="a_edge24_Node000003_Node000050"><a xlink:title=" ">
<path fill="none" stroke="#63b8ff" d="M234.51,-948.69C248.35,-938.08 270.26,-921.42 289.5,-907.38 292.53,-905.16 295.74,-902.85 298.92,-900.59"/>
<polygon fill="#63b8ff" stroke="#63b8ff" points="300.82,-903.53 306.96,-894.9 296.77,-897.82 300.82,-903.53"/>
</a>
</g>
</g>
<!-- Node52 -->
<g id="Node000052" class="node">
<title>Node52</title>
<g id="a_Node000052"><a xlink:href="app_8c.html#aab258c808e8a91498793b4b066b32b06" target="_top" xlink:title=" ">
<polygon fill="#fff0f0" stroke="red" points="358.38,-854.75 290.62,-854.75 290.62,-834 358.38,-834 358.38,-854.75"/>
<text text-anchor="middle" x="324.5" y="-841.25" font-family="Helvetica,sans-Serif" font-size="10.00">w2c__f229</text>
</a>
</g>
</g>
<!-- Node3&#45;&gt;Node52 -->
<g id="edge25_Node000003_Node000052" class="edge">
<title>Node3&#45;&gt;Node52</title>
<g id="a_edge25_Node000003_Node000052"><a xlink:title=" ">
<path fill="none" stroke="#63b8ff" d="M226.45,-948.58C237.04,-929.71 261.01,-890.27 289.5,-864.38 290.55,-863.42 291.66,-862.48 292.81,-861.57"/>
<polygon fill="#63b8ff" stroke="#63b8ff" points="294.6,-864.59 300.82,-856.02 290.61,-858.84 294.6,-864.59"/>
</a>
</g>
</g>
<!-- Node54 -->
<g id="Node000054" class="node">
<title>Node54</title>
<g id="a_Node000054"><a xlink:href="app_8c.html#a11c26bfac0c650600a96747cd8abc4e7" target="_top" xlink:title=" ">
<polygon fill="#fff0f0" stroke="red" points="358.38,-815.75 290.62,-815.75 290.62,-795 358.38,-795 358.38,-815.75"/>
<text text-anchor="middle" x="324.5" y="-802.25" font-family="Helvetica,sans-Serif" font-size="10.00">w2c__f230</text>
</a>
</g>
</g>
<!-- Node3&#45;&gt;Node54 -->
<g id="edge26_Node000003_Node000054" class="edge">
<title>Node3&#45;&gt;Node54</title>
<g id="a_edge26_Node000003_Node000054"><a xlink:title=" ">
<path fill="none" stroke="#63b8ff" d="M223.8,-948.77C231.53,-924.4 253.4,-863.59 289.5,-825.38 290.32,-824.5 291.19,-823.66 292.1,-822.84"/>
<polygon fill="#63b8ff" stroke="#63b8ff" points="293.85,-825.9 299.74,-817.1 289.64,-820.31 293.85,-825.9"/>
</a>
</g>
</g>
<!-- Node56 -->
<g id="Node000056" class="node">
<title>Node56</title>
<g id="a_Node000056"><a xlink:href="app_8c.html#a804534de2607e24f990723bc046d16ab" target="_top" xlink:title=" ">
<polygon fill="#fff0f0" stroke="red" points="358.38,-776.75 290.62,-776.75 290.62,-756 358.38,-756 358.38,-776.75"/>
<text text-anchor="middle" x="324.5" y="-763.25" font-family="Helvetica,sans-Serif" font-size="10.00">w2c__f232</text>
</a>
</g>
</g>
<!-- Node3&#45;&gt;Node56 -->
<g id="edge27_Node000003_Node000056" class="edge">
<title>Node3&#45;&gt;Node56</title>
<g id="a_edge27_Node000003_Node000056"><a xlink:title=" ">
<path fill="none" stroke="#63b8ff" d="M222.36,-948.79C227.62,-919.72 245.72,-837.41 289.5,-786.38 290.16,-785.6 290.86,-784.85 291.6,-784.12"/>
<polygon fill="#63b8ff" stroke="#63b8ff" points="293.5,-787.08 299.14,-778.12 289.14,-781.6 293.5,-787.08"/>
</a>
</g>
</g>
<!-- Node59 -->
<g id="Node000059" class="node">
<title>Node59</title>
<g id="a_Node000059"><a xlink:href="app_8c.html#a4df29a1001189dbe0f42dff852d343fe" target="_top" xlink:title=" ">
<polygon fill="#fff0f0" stroke="red" points="358.38,-737.75 290.62,-737.75 290.62,-717 358.38,-717 358.38,-737.75"/>
<text text-anchor="middle" x="324.5" y="-724.25" font-family="Helvetica,sans-Serif" font-size="10.00">w2c__f234</text>
</a>
</g>
</g>
<!-- Node3&#45;&gt;Node59 -->
<g id="edge28_Node000003_Node000059" class="edge">
<title>Node3&#45;&gt;Node59</title>
<g id="a_edge28_Node000003_Node000059"><a xlink:title=" ">
<path fill="none" stroke="#63b8ff" d="M221.43,-948.88C224.48,-915.73 237.89,-811.65 289.5,-747.38 290.03,-746.71 290.59,-746.07 291.17,-745.44"/>
<polygon fill="#63b8ff" stroke="#63b8ff" points="293.2,-748.31 298.63,-739.22 288.71,-742.94 293.2,-748.31"/>
</a>
</g>
</g>
<!-- Node60 -->
<g id="Node000060" class="node">
<title>Node60</title>
<g id="a_Node000060"><a xlink:href="app_8c.html#a177b896bb3ca11b154be35fca033e047" target="_top" xlink:title=" ">
<polygon fill="#fff0f0" stroke="red" points="358.38,-680.75 290.62,-680.75 290.62,-660 358.38,-660 358.38,-680.75"/>
<text text-anchor="middle" x="324.5" y="-667.25" font-family="Helvetica,sans-Serif" font-size="10.00">w2c__f235</text>
</a>
</g>
</g>
<!-- Node3&#45;&gt;Node60 -->
<g id="edge29_Node000003_Node000060" class="edge">
<title>Node3&#45;&gt;Node60</title>
<g id="a_edge29_Node000003_Node000060"><a xlink:title=" ">
<path fill="none" stroke="#63b8ff" d="M221.78,-948.69C226.03,-912.74 243.02,-793.69 289.5,-708.38 293.22,-701.54 298.4,-694.92 303.59,-689.17"/>
<polygon fill="#63b8ff" stroke="#63b8ff" points="306.06,-691.65 310.51,-682.03 301.04,-686.78 306.06,-691.65"/>
</a>
</g>
</g>
<!-- Node62 -->
<g id="Node000062" class="node">
<title>Node62</title>
<g id="a_Node000062"><a xlink:href="app_8c.html#ae00de9e25147267f65732da33b72c30b" target="_top" xlink:title=" ">
<polygon fill="#fff0f0" stroke="red" points="358.38,-641.75 290.62,-641.75 290.62,-621 358.38,-621 358.38,-641.75"/>
<text text-anchor="middle" x="324.5" y="-628.25" font-family="Helvetica,sans-Serif" font-size="10.00">w2c__f236</text>
</a>
</g>
</g>
<!-- Node3&#45;&gt;Node62 -->
<g id="edge31_Node000003_Node000062" class="edge">
<title>Node3&#45;&gt;Node62</title>
<g id="a_edge31_Node000003_Node000062"><a xlink:title=" ">
<path fill="none" stroke="#63b8ff" d="M220.12,-948.6C218.67,-906.24 218.53,-748.81 289.5,-651.38 290,-650.69 290.53,-650.02 291.09,-649.38"/>
<polygon fill="#63b8ff" stroke="#63b8ff" points="293.13,-652.24 298.37,-643.03 288.53,-646.96 293.13,-652.24"/>
</a>
</g>
</g>
<!-- Node68 -->
<g id="Node000068" class="node">
<title>Node68</title>
<g id="a_Node000068"><a xlink:href="app_8c.html#ac336790a930c8ddcde0c8065f3c575c5" target="_top" xlink:title=" ">
<polygon fill="#fff0f0" stroke="red" points="358.38,-602.75 290.62,-602.75 290.62,-582 358.38,-582 358.38,-602.75"/>
<text text-anchor="middle" x="324.5" y="-589.25" font-family="Helvetica,sans-Serif" font-size="10.00">w2c__f239</text>
</a>
</g>
</g>
<!-- Node3&#45;&gt;Node68 -->
<g id="edge32_Node000003_Node000068" class="edge">
<title>Node3&#45;&gt;Node68</title>
<g id="a_edge32_Node000003_Node000068"><a xlink:title=" ">
<path fill="none" stroke="#63b8ff" d="M221.59,-948.53C226.4,-896.07 249.32,-668.96 289.5,-612.38 289.9,-611.82 290.31,-611.27 290.75,-610.74"/>
<polygon fill="#63b8ff" stroke="#63b8ff" points="292.88,-613.53 297.97,-604.23 288.2,-608.33 292.88,-613.53"/>
</a>
</g>
</g>
<!-- Node69 -->
<g id="Node000069" class="node">
<title>Node69</title>
<g id="a_Node000069"><a xlink:href="app_8c.html#a4a01f6d7ca9ac2dc9fd10ff8de86d208" target="_top" xlink:title=" ">
<polygon fill="#fff0f0" stroke="red" points="358.38,-563.75 290.62,-563.75 290.62,-543 358.38,-543 358.38,-563.75"/>
<text text-anchor="middle" x="324.5" y="-550.25" font-family="Helvetica,sans-Serif" font-size="10.00">w2c__f242</text>
</a>
</g>
</g>
<!-- Node3&#45;&gt;Node69 -->
<g id="edge33_Node000003_Node000069" class="edge">
<title>Node3&#45;&gt;Node69</title>
<g id="a_edge33_Node000003_Node000069"><a xlink:title=" ">
<path fill="none" stroke="#63b8ff" d="M221.33,-948.82C225.17,-893.49 245.18,-637.08 289.5,-573.38 289.89,-572.81 290.3,-572.26 290.73,-571.73"/>
<polygon fill="#63b8ff" stroke="#63b8ff" points="292.87,-574.51 297.92,-565.2 288.16,-569.34 292.87,-574.51"/>
</a>
</g>
</g>
<!-- Node70 -->
<g id="Node000070" class="node">
<title>Node70</title>
<g id="a_Node000070"><a xlink:href="app_8c.html#aa3051a0f0feb078aee84a108594b3b11" target="_top" xlink:title=" ">
<polygon fill="#fff0f0" stroke="red" points="358.38,-1083.75 290.62,-1083.75 290.62,-1063 358.38,-1063 358.38,-1083.75"/>
<text text-anchor="middle" x="324.5" y="-1070.25" font-family="Helvetica,sans-Serif" font-size="10.00">w2c__f245</text>
</a>
</g>
</g>
<!-- Node3&#45;&gt;Node70 -->
<g id="edge34_Node000003_Node000070" class="edge">
<title>Node3&#45;&gt;Node70</title>
<g id="a_edge34_Node000003_Node000070"><a xlink:title=" ">
<path fill="none" stroke="#63b8ff" d="M227.34,-970.19C238.72,-987.99 263.13,-1024 289.5,-1049.38 291.84,-1051.63 294.41,-1053.83 297.06,-1055.93"/>
<polygon fill="#63b8ff" stroke="#63b8ff" points="294.77,-1058.59 304.9,-1061.71 298.92,-1052.96 294.77,-1058.59"/>
</a>
</g>
</g>
<!-- Node74 -->
<g id="Node000074" class="node">
<title>Node74</title>
<g id="a_Node000074"><a xlink:href="app_8c.html#aa0030424238c18279b4e86b3772151fa" target="_top" xlink:title=" ">
<polygon fill="#fff0f0" stroke="red" points="463.25,-1045.75 395.5,-1045.75 395.5,-1025 463.25,-1025 463.25,-1045.75"/>
<text text-anchor="middle" x="429.38" y="-1032.25" font-family="Helvetica,sans-Serif" font-size="10.00">w2c__f305</text>
</a>
</g>
</g>
<!-- Node3&#45;&gt;Node74 -->
<g id="edge55_Node000003_Node000074" class="edge">
<title>Node3&#45;&gt;Node74</title>
<g id="a_edge55_Node000003_Node000074"><a xlink:title=" ">
<path fill="none" stroke="#63b8ff" d="M237.61,-970.24C251.22,-978.57 271.03,-989.88 289.5,-997.38 320.24,-1009.85 356.43,-1019.61 384.16,-1026.11"/>
<polygon fill="#63b8ff" stroke="#63b8ff" points="383.1,-1029.45 393.63,-1028.27 384.66,-1022.63 383.1,-1029.45"/>
</a>
</g>
</g>
<!-- Node79 -->
<g id="Node000079" class="node">
<title>Node79</title>
<g id="a_Node000079"><a xlink:href="app_8c.html#ae80c7c9c7a4e31e707f789ad3b0ee6d2" target="_top" xlink:title=" ">
<polygon fill="white" stroke="#666666" points="358.38,-506.75 290.62,-506.75 290.62,-486 358.38,-486 358.38,-506.75"/>
<text text-anchor="middle" x="324.5" y="-493.25" font-family="Helvetica,sans-Serif" font-size="10.00">w2c__f248</text>
</a>
</g>
</g>
<!-- Node3&#45;&gt;Node79 -->
<g id="edge38_Node000003_Node000079" class="edge">
<title>Node3&#45;&gt;Node79</title>
<g id="a_edge38_Node000003_Node000079"><a xlink:title=" ">
<path fill="none" stroke="#63b8ff" d="M220.21,-948.53C218.75,-898.49 217.22,-685.82 289.5,-534.38 292.8,-527.45 297.76,-520.87 302.88,-515.18"/>
<polygon fill="#63b8ff" stroke="#63b8ff" points="305.28,-517.73 309.78,-508.14 300.28,-512.83 305.28,-517.73"/>
</a>
</g>
</g>
<!-- Node80 -->
<g id="Node000080" class="node">
<title>Node80</title>
<g id="a_Node000080"><a xlink:href="app_8c.html#a5523c6729517c9e468c7c65397ed796a" target="_top" xlink:title=" ">
<polygon fill="white" stroke="#666666" points="358.38,-467.75 290.62,-467.75 290.62,-447 358.38,-447 358.38,-467.75"/>
<text text-anchor="middle" x="324.5" y="-454.25" font-family="Helvetica,sans-Serif" font-size="10.00">w2c__f249</text>
</a>
</g>
</g>
<!-- Node3&#45;&gt;Node80 -->
<g id="edge40_Node000003_Node000080" class="edge">
<title>Node3&#45;&gt;Node80</title>
<g id="a_edge40_Node000003_Node000080"><a xlink:title=" ">
<path fill="none" stroke="#63b8ff" d="M220.91,-948.8C222.8,-885.67 235.14,-558.47 289.5,-477.38 289.88,-476.81 290.28,-476.25 290.71,-475.71"/>
<polygon fill="#63b8ff" stroke="#63b8ff" points="292.85,-478.49 297.82,-469.13 288.1,-473.35 292.85,-478.49"/>
</a>
</g>
</g>
<!-- Node81 -->
<g id="Node000081" class="node">
<title>Node81</title>
<g id="a_Node000081"><a xlink:href="app_8c.html#a954a47987372a607b2b4b06641dce13f" target="_top" xlink:title=" ">
<polygon fill="white" stroke="#666666" points="358.38,-428.75 290.62,-428.75 290.62,-408 358.38,-408 358.38,-428.75"/>
<text text-anchor="middle" x="324.5" y="-415.25" font-family="Helvetica,sans-Serif" font-size="10.00">w2c__f250</text>
</a>
</g>
</g>
<!-- Node3&#45;&gt;Node81 -->
<g id="edge41_Node000003_Node000081" class="edge">
<title>Node3&#45;&gt;Node81</title>
<g id="a_edge41_Node000003_Node000081"><a xlink:title=" ">
<path fill="none" stroke="#63b8ff" d="M220.79,-948.82C221.97,-882.81 231.03,-526.6 289.5,-438.38 289.88,-437.8 290.28,-437.25 290.7,-436.7"/>
<polygon fill="#63b8ff" stroke="#63b8ff" points="292.85,-439.49 297.79,-430.12 288.08,-434.36 292.85,-439.49"/>
</a>
</g>
</g>
<!-- Node82 -->
<g id="Node000082" class="node">
<title>Node82</title>
<g id="a_Node000082"><a xlink:href="app_8c.html#a1869b4bbb81c66a06eb33e0c8cb5023f" target="_top" xlink:title=" ">
<polygon fill="#fff0f0" stroke="red" points="358.38,-389.75 290.62,-389.75 290.62,-369 358.38,-369 358.38,-389.75"/>
<text text-anchor="middle" x="324.5" y="-376.25" font-family="Helvetica,sans-Serif" font-size="10.00">w2c__f252</text>
</a>
</g>
</g>
<!-- Node3&#45;&gt;Node82 -->
<g id="edge42_Node000003_Node000082" class="edge">
<title>Node3&#45;&gt;Node82</title>
<g id="a_edge42_Node000003_Node000082"><a xlink:title=" ">
<path fill="none" stroke="#63b8ff" d="M220.68,-948.94C221.2,-880.41 226.89,-494.78 289.5,-399.38 289.88,-398.8 290.27,-398.24 290.69,-397.7"/>
<polygon fill="#63b8ff" stroke="#63b8ff" points="292.84,-400.48 297.76,-391.1 288.07,-395.36 292.84,-400.48"/>
</a>
</g>
</g>
<!-- Node83 -->
<g id="Node000083" class="node">
<title>Node83</title>
<g id="a_Node000083"><a xlink:href="app_8c.html#aad516c1f168c52bf72e2d7c2ea98281b" target="_top" xlink:title=" ">
<polygon fill="#fff0f0" stroke="red" points="358.38,-350.75 290.62,-350.75 290.62,-330 358.38,-330 358.38,-350.75"/>
<text text-anchor="middle" x="324.5" y="-337.25" font-family="Helvetica,sans-Serif" font-size="10.00">w2c__f264</text>
</a>
</g>
</g>
<!-- Node3&#45;&gt;Node83 -->
<g id="edge44_Node000003_Node000083" class="edge">
<title>Node3&#45;&gt;Node83</title>
<g id="a_edge44_Node000003_Node000083"><a xlink:title=" ">
<path fill="none" stroke="#63b8ff" d="M220.58,-948.68C220.48,-876.72 222.85,-462.82 289.5,-360.38 289.87,-359.8 290.27,-359.24 290.69,-358.7"/>
<polygon fill="#63b8ff" stroke="#63b8ff" points="292.84,-361.48 297.74,-352.09 288.05,-356.37 292.84,-361.48"/>
</a>
</g>
</g>
<!-- Node47 -->
<g id="Node000047" class="node">
<title>Node47</title>
<g id="a_Node000047"><a xlink:href="app_8c.html#a5d082dff6c4c25de25da9f4dc538c097" target="_top" xlink:title=" ">
<polygon fill="white" stroke="#666666" points="358.38,-311.75 290.62,-311.75 290.62,-291 358.38,-291 358.38,-311.75"/>
<text text-anchor="middle" x="324.5" y="-298.25" font-family="Helvetica,sans-Serif" font-size="10.00">w2c__f265</text>
</a>
</g>
</g>
<!-- Node3&#45;&gt;Node47 -->
<g id="edge45_Node000003_Node000047" class="edge">
<title>Node3&#45;&gt;Node47</title>
<g id="a_edge45_Node000003_Node000047"><a xlink:title=" ">
<path fill="none" stroke="#63b8ff" d="M220.5,-948.95C219.81,-875.14 218.65,-431.11 289.5,-321.38 289.87,-320.8 290.27,-320.24 290.68,-319.69"/>
<polygon fill="#63b8ff" stroke="#63b8ff" points="292.83,-322.47 297.72,-313.07 288.04,-317.37 292.83,-322.47"/>
</a>
</g>
</g>
<!-- Node85 -->
<g id="Node000085" class="node">
<title>Node85</title>
<g id="a_Node000085"><a xlink:href="app_8c.html#add194bffb67f2f62eef302d08ce41b47" target="_top" xlink:title=" ">
<polygon fill="#fff0f0" stroke="red" points="463.25,-930.75 395.5,-930.75 395.5,-910 463.25,-910 463.25,-930.75"/>
<text text-anchor="middle" x="429.38" y="-917.25" font-family="Helvetica,sans-Serif" font-size="10.00">w2c__f266</text>
</a>
</g>
</g>
<!-- Node3&#45;&gt;Node85 -->
<g id="edge46_Node000003_Node000085" class="edge">
<title>Node3&#45;&gt;Node85</title>
<g id="a_edge46_Node000003_Node000085"><a xlink:title=" ">
<path fill="none" stroke="#63b8ff" d="M253.7,-949.34C264.98,-946.16 277.72,-942.84 289.5,-940.38 320.79,-933.83 356.5,-928.74 383.88,-925.33"/>
<polygon fill="#63b8ff" stroke="#63b8ff" points="384.05,-928.84 393.56,-924.16 383.21,-921.89 384.05,-928.84"/>
</a>
</g>
</g>
<!-- Node87 -->
<g id="Node000087" class="node">
<title>Node87</title>
<g id="a_Node000087"><a xlink:href="app_8c.html#a9856384d540064b02407c53ce1a8be56" target="_top" xlink:title=" ">
<polygon fill="#fff0f0" stroke="red" points="358.38,-254.75 290.62,-254.75 290.62,-234 358.38,-234 358.38,-254.75"/>
<text text-anchor="middle" x="324.5" y="-241.25" font-family="Helvetica,sans-Serif" font-size="10.00">w2c__f275</text>
</a>
</g>
</g>
<!-- Node3&#45;&gt;Node87 -->
<g id="edge47_Node000003_Node000087" class="edge">
<title>Node3&#45;&gt;Node87</title>
<g id="a_edge47_Node000003_Node000087"><a xlink:title=" ">
<path fill="none" stroke="#63b8ff" d="M220.82,-948.53C222.31,-871.72 233.57,-409.1 289.5,-282.38 292.6,-275.36 297.49,-268.74 302.61,-263.05"/>
<polygon fill="#63b8ff" stroke="#63b8ff" points="305.01,-265.61 309.55,-256.04 300.03,-260.68 305.01,-265.61"/>
</a>
</g>
</g>
<!-- Node95 -->
<g id="Node000095" class="node">
<title>Node95</title>
<g id="a_Node000095"><a xlink:href="app_8c.html#a689596d504b22560679f02fa17647ac0" target="_top" xlink:title=" ">
<polygon fill="#fff0f0" stroke="red" points="358.38,-215.75 290.62,-215.75 290.62,-195 358.38,-195 358.38,-215.75"/>
<text text-anchor="middle" x="324.5" y="-202.25" font-family="Helvetica,sans-Serif" font-size="10.00">w2c__f276</text>
</a>
</g>
</g>
<!-- Node3&#45;&gt;Node95 -->
<g id="edge49_Node000003_Node000095" class="edge">
<title>Node3&#45;&gt;Node95</title>
<g id="a_edge49_Node000003_Node000095"><a xlink:title=" ">
<path fill="none" stroke="#63b8ff" d="M221.05,-948.63C224.48,-862.75 248.86,-289.3 289.5,-225.38 289.87,-224.8 290.26,-224.23 290.67,-223.68"/>
<polygon fill="#63b8ff" stroke="#63b8ff" points="292.82,-226.46 297.68,-217.05 288.01,-221.38 292.82,-226.46"/>
</a>
</g>
</g>
<!-- Node103 -->
<g id="Node000103" class="node">
<title>Node103</title>
<g id="a_Node000103"><a xlink:href="app_8c.html#a198d9a8fce939a5bd8295c13954258f2" target="_top" xlink:title=" ">
<polygon fill="#fff0f0" stroke="red" points="358.38,-176.75 290.62,-176.75 290.62,-156 358.38,-156 358.38,-176.75"/>
<text text-anchor="middle" x="324.5" y="-163.25" font-family="Helvetica,sans-Serif" font-size="10.00">w2c__f280</text>
</a>
</g>
</g>
<!-- Node3&#45;&gt;Node103 -->
<g id="edge50_Node000003_Node000103" class="edge">
<title>Node3&#45;&gt;Node103</title>
<g id="a_edge50_Node000003_Node000103"><a xlink:title=" ">
<path fill="none" stroke="#63b8ff" d="M220.99,-948.63C224.09,-860.18 246.78,-253.91 289.5,-186.38 289.78,-185.93 290.08,-185.49 290.39,-185.06"/>
<polygon fill="#63b8ff" stroke="#63b8ff" points="292.61,-187.78 297.34,-178.3 287.73,-182.76 292.61,-187.78"/>
</a>
</g>
</g>
<!-- Node104 -->
<g id="Node000104" class="node">
<title>Node104</title>
<g id="a_Node000104"><a xlink:href="app_8c.html#a2f5b5a93b5e6c79301b9b95b41c561bd" target="_top" xlink:title=" ">
<polygon fill="#fff0f0" stroke="red" points="463.25,-1006.75 395.5,-1006.75 395.5,-986 463.25,-986 463.25,-1006.75"/>
<text text-anchor="middle" x="429.38" y="-993.25" font-family="Helvetica,sans-Serif" font-size="10.00">w2c__f282</text>
</a>
</g>
</g>
<!-- Node3&#45;&gt;Node104 -->
<g id="edge51_Node000003_Node000104" class="edge">
<title>Node3&#45;&gt;Node104</title>
<g id="a_edge51_Node000003_Node000104"><a xlink:title=" ">
<path fill="none" stroke="#63b8ff" d="M253.68,-969.51C264.96,-972.69 277.71,-976 289.5,-978.38 320.78,-984.68 356.49,-989.26 383.86,-992.21"/>
<polygon fill="#63b8ff" stroke="#63b8ff" points="383.23,-995.67 393.54,-993.22 383.96,-988.7 383.23,-995.67"/>
</a>
</g>
</g>
<!-- Node106 -->
<g id="Node000106" class="node">
<title>Node106</title>
<g id="a_Node000106"><a xlink:href="app_8c.html#a144a1dd48aaed5edff00fe4fe3f220e6" target="_top" xlink:title=" ">
<polygon fill="#fff0f0" stroke="red" points="358.38,-137.75 290.62,-137.75 290.62,-117 358.38,-117 358.38,-137.75"/>
<text text-anchor="middle" x="324.5" y="-124.25" font-family="Helvetica,sans-Serif" font-size="10.00">w2c__f289</text>
</a>
</g>
</g>
<!-- Node3&#45;&gt;Node106 -->
<g id="edge53_Node000003_Node000106" class="edge">
<title>Node3&#45;&gt;Node106</title>
<g id="a_edge53_Node000003_Node000106"><a xlink:title=" ">
<path fill="none" stroke="#63b8ff" d="M220.94,-948.67C223.71,-857.87 244.7,-218.54 289.5,-147.38 289.78,-146.93 290.08,-146.49 290.39,-146.05"/>
<polygon fill="#63b8ff" stroke="#63b8ff" points="292.61,-148.78 297.33,-139.29 287.73,-143.76 292.61,-148.78"/>
</a>
</g>
</g>
<!-- Node120 -->
<g id="Node000120" class="node">
<title>Node120</title>
<g id="a_Node000120"><a xlink:href="app_8c.html#ab42cfc1c12aba4f539095880179cf3b0" target="_top" xlink:title=" ">
<polygon fill="#fff0f0" stroke="red" points="358.38,-98.75 290.62,-98.75 290.62,-78 358.38,-78 358.38,-98.75"/>
<text text-anchor="middle" x="324.5" y="-85.25" font-family="Helvetica,sans-Serif" font-size="10.00">w2c__f291</text>
</a>
</g>
</g>
<!-- Node3&#45;&gt;Node120 -->
<g id="edge54_Node000003_Node000120" class="edge">
<title>Node3&#45;&gt;Node120</title>
<g id="a_edge54_Node000003_Node000120"><a xlink:title=" ">
<path fill="none" stroke="#63b8ff" d="M220.9,-948.75C223.34,-855.83 242.61,-183.18 289.5,-108.38 289.78,-107.93 290.08,-107.48 290.39,-107.05"/>
<polygon fill="#63b8ff" stroke="#63b8ff" points="292.61,-109.77 297.32,-100.28 287.72,-104.77 292.61,-109.77"/>
</a>
</g>
</g>
<!-- Node123 -->
<g id="Node000123" class="node">
<title>Node123</title>
<g id="a_Node000123"><a xlink:href="app_8c.html#a43dad7cd35d8d3e89a048d92b5a662e9" target="_top" xlink:title=" ">
<polygon fill="#fff0f0" stroke="red" points="358.38,-59.75 290.62,-59.75 290.62,-39 358.38,-39 358.38,-59.75"/>
<text text-anchor="middle" x="324.5" y="-46.25" font-family="Helvetica,sans-Serif" font-size="10.00">w2c__f307</text>
</a>
</g>
</g>
<!-- Node3&#45;&gt;Node123 -->
<g id="edge56_Node000003_Node000123" class="edge">
<title>Node3&#45;&gt;Node123</title>
<g id="a_edge56_Node000003_Node000123"><a xlink:title=" ">
<path fill="none" stroke="#63b8ff" d="M220.86,-948.57C223.03,-852.57 240.56,-147.76 289.5,-69.38 289.78,-68.92 290.08,-68.48 290.38,-68.05"/>
<polygon fill="#63b8ff" stroke="#63b8ff" points="292.61,-70.77 297.31,-61.28 287.71,-65.77 292.61,-70.77"/>
</a>
</g>
</g>
<!-- Node125 -->
<g id="Node000125" class="node">
<title>Node125</title>
<g id="a_Node000125"><a xlink:href="app_8c.html#a90ec7ae13f3de86954f29a59729097ff" target="_top" xlink:title=" ">
<polygon fill="#fff0f0" stroke="red" points="358.38,-969.75 290.62,-969.75 290.62,-949 358.38,-949 358.38,-969.75"/>
<text text-anchor="middle" x="324.5" y="-956.25" font-family="Helvetica,sans-Serif" font-size="10.00">w2c__f308</text>
</a>
</g>
</g>
<!-- Node3&#45;&gt;Node125 -->
<g id="edge57_Node000003_Node000125" class="edge">
<title>Node3&#45;&gt;Node125</title>
<g id="a_edge57_Node000003_Node000125"><a xlink:title=" ">
<path fill="none" stroke="#63b8ff" d="M253.74,-959.38C261.82,-959.38 270.59,-959.38 279.1,-959.38"/>
<polygon fill="#63b8ff" stroke="#63b8ff" points="278.93,-962.88 288.93,-959.38 278.93,-955.88 278.93,-962.88"/>
</a>
</g>
</g>
<!-- Node127 -->
<g id="Node000127" class="node">
<title>Node127</title>
<g id="a_Node000127"><a xlink:href="app_8c.html#ab66cff17beb6fbf6b347e33dc43c5297" target="_top" xlink:title=" ">
<polygon fill="#fff0f0" stroke="red" points="358.38,-20.75 290.62,-20.75 290.62,0 358.38,0 358.38,-20.75"/>
<text text-anchor="middle" x="324.5" y="-7.25" font-family="Helvetica,sans-Serif" font-size="10.00">w2c__f320</text>
</a>
</g>
</g>
<!-- Node3&#45;&gt;Node127 -->
<g id="edge60_Node000003_Node000127" class="edge">
<title>Node3&#45;&gt;Node127</title>
<g id="a_edge60_Node000003_Node000127"><a xlink:title=" ">
<path fill="none" stroke="#63b8ff" d="M220.82,-948.71C222.69,-850.99 238.45,-112.42 289.5,-30.38 289.78,-29.92 290.07,-29.48 290.38,-29.05"/>
<polygon fill="#63b8ff" stroke="#63b8ff" points="292.61,-31.77 297.3,-22.27 287.71,-26.77 292.61,-31.77"/>
</a>
</g>
</g>
<!-- Node38&#45;&gt;Node25 -->
<g id="edge21_Node000038_Node000025" class="edge">
<title>Node38&#45;&gt;Node25</title>
<g id="a_edge21_Node000038_Node000025"><a xlink:title=" ">
<path fill="none" stroke="#63b8ff" d="M449.11,-1139.62C453.81,-1136.75 458.79,-1133.55 463.25,-1130.38 480.3,-1118.23 498.5,-1103.06 511.91,-1091.42"/>
<polygon fill="#63b8ff" stroke="#63b8ff" points="514.01,-1094.24 519.22,-1085.01 509.39,-1088.98 514.01,-1094.24"/>
</a>
</g>
</g>
<!-- Node44&#45;&gt;Node25 -->
<g id="edge23_Node000044_Node000025" class="edge">
<title>Node44&#45;&gt;Node25</title>
<g id="a_edge23_Node000044_Node000025"><a xlink:title=" ">
<path fill="none" stroke="#63b8ff" d="M459.26,-1100.59C469.57,-1096.74 481.38,-1092.33 492.44,-1088.2"/>
<polygon fill="#63b8ff" stroke="#63b8ff" points="493.61,-1091.5 501.75,-1084.72 491.16,-1084.94 493.61,-1091.5"/>
</a>
</g>
</g>
<!-- Node60&#45;&gt;Node60 -->
<g id="edge30_Node000060_Node000060" class="edge">
<title>Node60&#45;&gt;Node60</title>
<g id="a_edge30_Node000060_Node000060"><a xlink:title=" ">
<path fill="none" stroke="#63b8ff" d="M307.6,-681.15C300.84,-689.81 306.47,-698.75 324.5,-698.75 334.08,-698.75 340.15,-696.23 342.74,-692.56"/>
<polygon fill="#63b8ff" stroke="#63b8ff" points="346.21,-692.18 341.57,-682.65 339.26,-692.99 346.21,-692.18"/>
</a>
</g>
</g>
<!-- Node70&#45;&gt;Node25 -->
<g id="edge35_Node000070_Node000025" class="edge">
<title>Node70&#45;&gt;Node25</title>
<g id="a_edge35_Node000070_Node000025"><a xlink:title=" ">
<path fill="none" stroke="#63b8ff" d="M358.7,-1073.38C393.64,-1073.38 448.85,-1073.38 487.56,-1073.38"/>
<polygon fill="#63b8ff" stroke="#63b8ff" points="487.5,-1076.88 497.5,-1073.38 487.5,-1069.88 487.5,-1076.88"/>
</a>
</g>
</g>
<!-- Node70&#45;&gt;Node74 -->
<g id="edge36_Node000070_Node000074" class="edge">
<title>Node70&#45;&gt;Node74</title>
<g id="a_edge36_Node000070_Node000074"><a xlink:title=" ">
<path fill="none" stroke="#63b8ff" d="M354.7,-1062.59C365.24,-1058.7 377.31,-1054.24 388.6,-1050.07"/>
<polygon fill="#63b8ff" stroke="#63b8ff" points="389.51,-1053.46 397.68,-1046.71 387.08,-1046.9 389.51,-1053.46"/>
</a>
</g>
</g>
<!-- Node74&#45;&gt;Node25 -->
<g id="edge37_Node000074_Node000025" class="edge">
<title>Node74&#45;&gt;Node25</title>
<g id="a_edge37_Node000074_Node000025"><a xlink:title=" ">
<path fill="none" stroke="#63b8ff" d="M459.26,-1046.16C469.57,-1050.01 481.38,-1054.42 492.44,-1058.55"/>
<polygon fill="#63b8ff" stroke="#63b8ff" points="491.16,-1061.81 501.75,-1062.03 493.61,-1055.25 491.16,-1061.81"/>
</a>
</g>
</g>
<!-- Node79&#45;&gt;Node79 -->
<g id="edge39_Node000079_Node000079" class="edge">
<title>Node79&#45;&gt;Node79</title>
<g id="a_edge39_Node000079_Node000079"><a xlink:title=" ">
<path fill="none" stroke="#63b8ff" d="M307.6,-507.15C300.84,-515.81 306.47,-524.75 324.5,-524.75 334.08,-524.75 340.15,-522.23 342.74,-518.56"/>
<polygon fill="#63b8ff" stroke="#63b8ff" points="346.21,-518.18 341.57,-508.65 339.26,-518.99 346.21,-518.18"/>
</a>
</g>
</g>
<!-- Node87&#45;&gt;Node87 -->
<g id="edge48_Node000087_Node000087" class="edge">
<title>Node87&#45;&gt;Node87</title>
<g id="a_edge48_Node000087_Node000087"><a xlink:title=" ">
<path fill="none" stroke="#63b8ff" d="M307.6,-255.15C300.84,-263.81 306.47,-272.75 324.5,-272.75 334.08,-272.75 340.15,-270.23 342.74,-266.56"/>
<polygon fill="#63b8ff" stroke="#63b8ff" points="346.21,-266.18 341.57,-256.65 339.26,-266.99 346.21,-266.18"/>
</a>
</g>
</g>
<!-- Node104&#45;&gt;Node25 -->
<g id="edge52_Node000104_Node000025" class="edge">
<title>Node104&#45;&gt;Node25</title>
<g id="a_edge52_Node000104_Node000025"><a xlink:title=" ">
<path fill="none" stroke="#63b8ff" d="M449.11,-1007.13C453.81,-1010 458.79,-1013.2 463.25,-1016.38 480.3,-1028.52 498.5,-1043.69 511.91,-1055.33"/>
<polygon fill="#63b8ff" stroke="#63b8ff" points="509.39,-1057.77 519.22,-1061.74 514.01,-1052.51 509.39,-1057.77"/>
</a>
</g>
</g>
<!-- Node125&#45;&gt;Node25 -->
<g id="edge58_Node000125_Node000025" class="edge">
<title>Node125&#45;&gt;Node25</title>
<g id="a_edge58_Node000125_Node000025"><a xlink:title=" ">
<path fill="none" stroke="#63b8ff" d="M358.79,-956.58C388.28,-955.68 431.48,-958.37 463.25,-977.38 492.46,-994.85 512.75,-1030.02 523.4,-1052.59"/>
<polygon fill="#63b8ff" stroke="#63b8ff" points="520.07,-1053.73 527.35,-1061.42 526.46,-1050.87 520.07,-1053.73"/>
</a>
</g>
</g>
<!-- Node125&#45;&gt;Node85 -->
<g id="edge59_Node000125_Node000085" class="edge">
<title>Node125&#45;&gt;Node85</title>
<g id="a_edge59_Node000125_Node000085"><a xlink:title=" ">
<path fill="none" stroke="#63b8ff" d="M354.16,-948.51C365.08,-944.37 377.72,-939.58 389.44,-935.13"/>
<polygon fill="#63b8ff" stroke="#63b8ff" points="390.35,-938.53 398.46,-931.72 387.87,-931.99 390.35,-938.53"/>
</a>
</g>
</g>
</g>
</svg>
