<?xml version="1.0" encoding="UTF-8" standalone="no"?>
<!DOCTYPE svg PUBLIC "-//W3C//DTD SVG 1.1//EN"
 "http://www.w3.org/Graphics/SVG/1.1/DTD/svg11.dtd">
<!-- Generated by graphviz version 12.2.1 (0)
 -->
<!-- Title: w2c__f226 Pages: 1 -->
<svg width="698pt" height="261pt"
 viewBox="0.00 0.00 698.25 260.75" xmlns="http://www.w3.org/2000/svg" xmlns:xlink="http://www.w3.org/1999/xlink">
<g id="graph0" class="graph" transform="scale(1 1) rotate(0) translate(4 256.75)">
<title>w2c__f226</title>
<!-- Node1 -->
<g id="Node000001" class="node">
<title>Node1</title>
<g id="a_Node000001"><a xlink:title=" ">
<polygon fill="#999999" stroke="#666666" points="67.75,-116.75 0,-116.75 0,-96 67.75,-96 67.75,-116.75"/>
<text text-anchor="middle" x="33.88" y="-103.25" font-family="Helvetica,sans-Serif" font-size="10.00">w2c__f226</text>
</a>
</g>
</g>
<!-- Node2 -->
<g id="Node000002" class="node">
<title>Node2</title>
<g id="a_Node000002"><a xlink:href="app_8c.html#a0378208e0d5c0d1d6e7370f1c578fab3" target="_top" xlink:title=" ">
<polygon fill="white" stroke="#666666" points="586.5,-137.75 518.75,-137.75 518.75,-117 586.5,-117 586.5,-137.75"/>
<text text-anchor="middle" x="552.62" y="-124.25" font-family="Helvetica,sans-Serif" font-size="10.00">w2c__f216</text>
</a>
</g>
</g>
<!-- Node1&#45;&gt;Node2 -->
<g id="edge1_Node000001_Node000002" class="edge">
<title>Node1&#45;&gt;Node2</title>
<g id="a_edge1_Node000001_Node000002"><a xlink:title=" ">
<path fill="none" stroke="#63b8ff" d="M68.25,-111.37C108.83,-117 179.47,-125.38 240.38,-125.38 240.38,-125.38 240.38,-125.38 346.12,-125.38 401.61,-125.38 465.52,-126.11 507.14,-126.69"/>
<polygon fill="#63b8ff" stroke="#63b8ff" points="506.96,-130.19 517.01,-126.83 507.06,-123.19 506.96,-130.19"/>
</a>
</g>
</g>
<!-- Node4 -->
<g id="Node000004" class="node">
<title>Node4</title>
<g id="a_Node000004"><a xlink:href="app_8c.html#a674f6e81761467d0a8dc6d2a425eda9f" target="_top" xlink:title=" ">
<polygon fill="white" stroke="#666666" points="586.5,-98.75 518.75,-98.75 518.75,-78 586.5,-78 586.5,-98.75"/>
<text text-anchor="middle" x="552.62" y="-85.25" font-family="Helvetica,sans-Serif" font-size="10.00">w2c__f498</text>
</a>
</g>
</g>
<!-- Node1&#45;&gt;Node4 -->
<g id="edge3_Node000001_Node000004" class="edge">
<title>Node1&#45;&gt;Node4</title>
<g id="a_edge3_Node000001_Node000004"><a xlink:title=" ">
<path fill="none" stroke="#63b8ff" d="M58.03,-95.52C95.48,-78.98 172.07,-49.38 240.38,-49.38 240.38,-49.38 240.38,-49.38 346.12,-49.38 407.43,-49.38 422.8,-55.57 482.75,-68.38 490.87,-70.11 499.43,-72.3 507.66,-74.58"/>
<polygon fill="#63b8ff" stroke="#63b8ff" points="506.56,-77.91 517.14,-77.31 508.5,-71.18 506.56,-77.91"/>
</a>
</g>
</g>
<!-- Node5 -->
<g id="Node000005" class="node">
<title>Node5</title>
<g id="a_Node000005"><a xlink:href="app_8c.html#a8c2397afdef3a068e7ddfae863c81afc" target="_top" xlink:title=" ">
<polygon fill="white" stroke="#666666" points="586.5,-20.75 518.75,-20.75 518.75,0 586.5,0 586.5,-20.75"/>
<text text-anchor="middle" x="552.62" y="-7.25" font-family="Helvetica,sans-Serif" font-size="10.00">w2c__f523</text>
</a>
</g>
</g>
<!-- Node1&#45;&gt;Node5 -->
<g id="edge4_Node000001_Node000005" class="edge">
<title>Node1&#45;&gt;Node5</title>
<g id="a_edge4_Node000001_Node000005"><a xlink:title=" ">
<path fill="none" stroke="#63b8ff" d="M46.18,-95.59C59.15,-83.75 81.5,-64.88 103.75,-53.38 160.18,-24.21 176.85,-11.38 240.38,-11.38 240.38,-11.38 240.38,-11.38 346.12,-11.38 401.61,-11.38 465.52,-11.01 507.14,-10.72"/>
<polygon fill="#63b8ff" stroke="#63b8ff" points="507.04,-14.22 517.01,-10.65 506.99,-7.22 507.04,-14.22"/>
</a>
</g>
</g>
<!-- Node7 -->
<g id="Node000007" class="node">
<title>Node7</title>
<g id="a_Node000007"><a xlink:href="app_8c.html#a6cf2e7d1cf333a3a679afd04df9d6129" target="_top" xlink:title=" ">
<polygon fill="white" stroke="#666666" points="275.25,-211.75 207.5,-211.75 207.5,-191 275.25,-191 275.25,-211.75"/>
<text text-anchor="middle" x="241.38" y="-198.25" font-family="Helvetica,sans-Serif" font-size="10.00">w2c__f550</text>
</a>
</g>
</g>
<!-- Node1&#45;&gt;Node7 -->
<g id="edge6_Node000001_Node000007" class="edge">
<title>Node1&#45;&gt;Node7</title>
<g id="a_edge6_Node000001_Node000007"><a xlink:title=" ">
<path fill="none" stroke="#63b8ff" d="M41.11,-117.12C51.63,-134.14 74.63,-166.98 103.75,-182.38 132,-197.31 167.92,-201.84 195.84,-202.75"/>
<polygon fill="#63b8ff" stroke="#63b8ff" points="195.7,-206.25 205.75,-202.91 195.81,-199.25 195.7,-206.25"/>
</a>
</g>
</g>
<!-- Node14 -->
<g id="Node000014" class="node">
<title>Node14</title>
<g id="a_Node000014"><a xlink:href="app_8c.html#a84c07cd077c3fbaaaaad7e22afe6d686" target="_top" xlink:title=" ">
<polygon fill="white" stroke="#666666" points="171.5,-173.75 103.75,-173.75 103.75,-153 171.5,-153 171.5,-173.75"/>
<text text-anchor="middle" x="137.62" y="-160.25" font-family="Helvetica,sans-Serif" font-size="10.00">w2c__f577</text>
</a>
</g>
</g>
<!-- Node1&#45;&gt;Node14 -->
<g id="edge20_Node000001_Node000014" class="edge">
<title>Node1&#45;&gt;Node14</title>
<g id="a_edge20_Node000001_Node000014"><a xlink:title=" ">
<path fill="none" stroke="#63b8ff" d="M54.01,-117.1C69.12,-125.56 90.45,-137.51 107.65,-147.15"/>
<polygon fill="#63b8ff" stroke="#63b8ff" points="105.47,-149.93 115.91,-151.77 108.89,-143.83 105.47,-149.93"/>
</a>
</g>
</g>
<!-- Node15 -->
<g id="Node000015" class="node">
<title>Node15</title>
<g id="a_Node000015"><a xlink:href="app_8c.html#a769b7c2ede58215b4aa18ce981255362" target="_top" xlink:title=" ">
<polygon fill="white" stroke="#666666" points="482.75,-97.75 415,-97.75 415,-77 482.75,-77 482.75,-97.75"/>
<text text-anchor="middle" x="448.88" y="-84.25" font-family="Helvetica,sans-Serif" font-size="10.00">w2c__f582</text>
</a>
</g>
</g>
<!-- Node1&#45;&gt;Node15 -->
<g id="edge23_Node000001_Node000015" class="edge">
<title>Node1&#45;&gt;Node15</title>
<g id="a_edge23_Node000001_Node000015"><a xlink:title=" ">
<path fill="none" stroke="#63b8ff" d="M67.97,-104.85C141.76,-101.46 319.76,-93.27 403.25,-89.43"/>
<polygon fill="#63b8ff" stroke="#63b8ff" points="403.28,-92.93 413.11,-88.97 402.96,-85.94 403.28,-92.93"/>
</a>
</g>
</g>
<!-- Node3 -->
<g id="Node000003" class="node">
<title>Node3</title>
<g id="a_Node000003"><a xlink:href="app_8c.html#a8d9f347f9a643f0ebfb53c4f54578ac4" target="_top" xlink:title=" ">
<polygon fill="white" stroke="#666666" points="690.25,-214.75 622.5,-214.75 622.5,-194 690.25,-194 690.25,-214.75"/>
<text text-anchor="middle" x="656.38" y="-201.25" font-family="Helvetica,sans-Serif" font-size="10.00">w2c__f304</text>
</a>
</g>
</g>
<!-- Node2&#45;&gt;Node3 -->
<g id="edge2_Node000002_Node000003" class="edge">
<title>Node2&#45;&gt;Node3</title>
<g id="a_edge2_Node000002_Node000003"><a xlink:title=" ">
<path fill="none" stroke="#63b8ff" d="M573.29,-138.23C577.78,-141 582.42,-144.13 586.5,-147.38 604.44,-161.67 604.56,-170.08 622.5,-184.38 623.77,-185.39 625.1,-186.39 626.47,-187.38"/>
<polygon fill="#63b8ff" stroke="#63b8ff" points="624.18,-190.06 634.45,-192.69 628.06,-184.23 624.18,-190.06"/>
</a>
</g>
</g>
<!-- Node6 -->
<g id="Node000006" class="node">
<title>Node6</title>
<g id="a_Node000006"><a xlink:href="app_8c.html#a75d2a28c1bac8b1e29f069bf851fdba9" target="_top" xlink:title=" ">
<polygon fill="white" stroke="#666666" points="690.25,-20.75 622.5,-20.75 622.5,0 690.25,0 690.25,-20.75"/>
<text text-anchor="middle" x="656.38" y="-7.25" font-family="Helvetica,sans-Serif" font-size="10.00">w2c__f549</text>
</a>
</g>
</g>
<!-- Node5&#45;&gt;Node6 -->
<g id="edge5_Node000005_Node000006" class="edge">
<title>Node5&#45;&gt;Node6</title>
<g id="a_edge5_Node000005_Node000006"><a xlink:title=" ">
<path fill="none" stroke="#63b8ff" d="M586.94,-10.38C594.57,-10.38 602.81,-10.38 610.83,-10.38"/>
<polygon fill="#63b8ff" stroke="#63b8ff" points="610.82,-13.88 620.82,-10.38 610.82,-6.88 610.82,-13.88"/>
</a>
</g>
</g>
<!-- Node8 -->
<g id="Node000008" class="node">
<title>Node8</title>
<g id="a_Node000008"><a xlink:href="app_8c.html#a1a8a1d528c65d63a630e19c3a4bdd098" target="_top" xlink:title=" ">
<polygon fill="white" stroke="#666666" points="379,-211.75 311.25,-211.75 311.25,-191 379,-191 379,-211.75"/>
<text text-anchor="middle" x="345.12" y="-198.25" font-family="Helvetica,sans-Serif" font-size="10.00">w2c__f557</text>
</a>
</g>
</g>
<!-- Node7&#45;&gt;Node8 -->
<g id="edge7_Node000007_Node000008" class="edge">
<title>Node7&#45;&gt;Node8</title>
<g id="a_edge7_Node000007_Node000008"><a xlink:title=" ">
<path fill="none" stroke="#63b8ff" d="M275.69,-201.38C283.32,-201.38 291.56,-201.38 299.58,-201.38"/>
<polygon fill="#63b8ff" stroke="#63b8ff" points="299.57,-204.88 309.57,-201.38 299.57,-197.88 299.57,-204.88"/>
</a>
</g>
</g>
<!-- Node9 -->
<g id="Node000009" class="node">
<title>Node9</title>
<g id="a_Node000009"><a xlink:href="app_8c.html#a0f7003812eaf983535ff7979fc047a21" target="_top" xlink:title=" ">
<polygon fill="white" stroke="#666666" points="482.75,-250.75 415,-250.75 415,-230 482.75,-230 482.75,-250.75"/>
<text text-anchor="middle" x="448.88" y="-237.25" font-family="Helvetica,sans-Serif" font-size="10.00">w2c__f353</text>
</a>
</g>
</g>
<!-- Node8&#45;&gt;Node9 -->
<g id="edge8_Node000008_Node000009" class="edge">
<title>Node8&#45;&gt;Node9</title>
<g id="a_edge8_Node000008_Node000009"><a xlink:title=" ">
<path fill="none" stroke="#63b8ff" d="M374.47,-212.24C385.16,-216.34 397.52,-221.08 409.01,-225.48"/>
<polygon fill="#63b8ff" stroke="#63b8ff" points="407.68,-228.72 418.27,-229.03 410.19,-222.18 407.68,-228.72"/>
</a>
</g>
</g>
<!-- Node13 -->
<g id="Node000013" class="node">
<title>Node13</title>
<g id="a_Node000013"><a xlink:href="app_8c.html#ac9cc84763a9c1933e50eedd7a06c17e2" target="_top" xlink:title=" ">
<polygon fill="white" stroke="#666666" points="482.75,-211.75 415,-211.75 415,-191 482.75,-191 482.75,-211.75"/>
<text text-anchor="middle" x="448.88" y="-198.25" font-family="Helvetica,sans-Serif" font-size="10.00">w2c__f480</text>
</a>
</g>
</g>
<!-- Node8&#45;&gt;Node13 -->
<g id="edge14_Node000008_Node000013" class="edge">
<title>Node8&#45;&gt;Node13</title>
<g id="a_edge14_Node000008_Node000013"><a xlink:title=" ">
<path fill="none" stroke="#63b8ff" d="M379.44,-201.38C387.07,-201.38 395.31,-201.38 403.33,-201.38"/>
<polygon fill="#63b8ff" stroke="#63b8ff" points="403.32,-204.88 413.32,-201.38 403.32,-197.88 403.32,-204.88"/>
</a>
</g>
</g>
<!-- Node10 -->
<g id="Node000010" class="node">
<title>Node10</title>
<g id="a_Node000010"><a xlink:href="app_8c.html#aaca5d5bcf49f2ca74019cf097750b9f3" target="_top" xlink:title=" ">
<polygon fill="white" stroke="#666666" points="586.5,-176.75 518.75,-176.75 518.75,-156 586.5,-156 586.5,-176.75"/>
<text text-anchor="middle" x="552.62" y="-163.25" font-family="Helvetica,sans-Serif" font-size="10.00">w2c__f258</text>
</a>
</g>
</g>
<!-- Node9&#45;&gt;Node10 -->
<g id="edge9_Node000009_Node000010" class="edge">
<title>Node9&#45;&gt;Node10</title>
<g id="a_edge9_Node000009_Node000010"><a xlink:title=" ">
<path fill="none" stroke="#63b8ff" d="M468.55,-229.54C473.26,-226.67 478.25,-223.49 482.75,-220.38 499.03,-209.1 516.59,-195.3 529.91,-184.48"/>
<polygon fill="#63b8ff" stroke="#63b8ff" points="532.09,-187.21 537.6,-178.16 527.65,-181.8 532.09,-187.21"/>
</a>
</g>
</g>
<!-- Node12 -->
<g id="Node000012" class="node">
<title>Node12</title>
<g id="a_Node000012"><a xlink:href="app_8c.html#a4634342addbde677893ffcb45cf639dd" target="_top" xlink:title=" ">
<polygon fill="white" stroke="#666666" points="586.5,-252.75 518.75,-252.75 518.75,-232 586.5,-232 586.5,-252.75"/>
<text text-anchor="middle" x="552.62" y="-239.25" font-family="Helvetica,sans-Serif" font-size="10.00">w2c__f302</text>
</a>
</g>
</g>
<!-- Node9&#45;&gt;Node12 -->
<g id="edge12_Node000009_Node000012" class="edge">
<title>Node9&#45;&gt;Node12</title>
<g id="a_edge12_Node000009_Node000012"><a xlink:title=" ">
<path fill="none" stroke="#63b8ff" d="M483.19,-241.03C490.82,-241.18 499.06,-241.34 507.08,-241.5"/>
<polygon fill="#63b8ff" stroke="#63b8ff" points="507,-245 517.07,-241.7 507.14,-238 507,-245"/>
</a>
</g>
</g>
<!-- Node10&#45;&gt;Node3 -->
<g id="edge10_Node000010_Node000003" class="edge">
<title>Node10&#45;&gt;Node3</title>
<g id="a_edge10_Node000010_Node000003"><a xlink:title=" ">
<path fill="none" stroke="#63b8ff" d="M582.51,-177.16C592.82,-181.01 604.63,-185.42 615.69,-189.55"/>
<polygon fill="#63b8ff" stroke="#63b8ff" points="614.41,-192.81 625,-193.03 616.86,-186.25 614.41,-192.81"/>
</a>
</g>
</g>
<!-- Node11 -->
<g id="Node000011" class="node">
<title>Node11</title>
<g id="a_Node000011"><a xlink:href="app_8c.html#a881f0b113e93dce3ff52d04b435850f6" target="_top" xlink:title=" ">
<polygon fill="white" stroke="#666666" points="690.25,-175.75 622.5,-175.75 622.5,-155 690.25,-155 690.25,-175.75"/>
<text text-anchor="middle" x="656.38" y="-162.25" font-family="Helvetica,sans-Serif" font-size="10.00">w2c__f491</text>
</a>
</g>
</g>
<!-- Node10&#45;&gt;Node11 -->
<g id="edge11_Node000010_Node000011" class="edge">
<title>Node10&#45;&gt;Node11</title>
<g id="a_edge11_Node000010_Node000011"><a xlink:title=" ">
<path fill="none" stroke="#63b8ff" d="M586.94,-166.05C594.57,-165.97 602.81,-165.89 610.83,-165.81"/>
<polygon fill="#63b8ff" stroke="#63b8ff" points="610.85,-169.31 620.82,-165.71 610.78,-162.31 610.85,-169.31"/>
</a>
</g>
</g>
<!-- Node12&#45;&gt;Node3 -->
<g id="edge13_Node000012_Node000003" class="edge">
<title>Node12&#45;&gt;Node3</title>
<g id="a_edge13_Node000012_Node000003"><a xlink:title=" ">
<path fill="none" stroke="#63b8ff" d="M582.51,-231.59C592.82,-227.74 604.63,-223.33 615.69,-219.2"/>
<polygon fill="#63b8ff" stroke="#63b8ff" points="616.86,-222.5 625,-215.72 614.41,-215.94 616.86,-222.5"/>
</a>
</g>
</g>
<!-- Node13&#45;&gt;Node2 -->
<g id="edge15_Node000013_Node000002" class="edge">
<title>Node13&#45;&gt;Node2</title>
<g id="a_edge15_Node000013_Node000002"><a xlink:title=" ">
<path fill="none" stroke="#63b8ff" d="M465.08,-190.58C470.69,-186.52 477.07,-181.81 482.75,-177.38 499.17,-164.56 501.81,-159.49 518.75,-147.38 520.28,-146.28 521.88,-145.18 523.5,-144.1"/>
<polygon fill="#63b8ff" stroke="#63b8ff" points="525.06,-147.26 531.61,-138.93 521.29,-141.35 525.06,-147.26"/>
</a>
</g>
</g>
<!-- Node13&#45;&gt;Node3 -->
<g id="edge18_Node000013_Node000003" class="edge">
<title>Node13&#45;&gt;Node3</title>
<g id="a_edge18_Node000013_Node000003"><a xlink:title=" ">
<path fill="none" stroke="#63b8ff" d="M482.89,-201.86C517.54,-202.36 572.23,-203.16 610.71,-203.72"/>
<polygon fill="#63b8ff" stroke="#63b8ff" points="610.54,-207.22 620.59,-203.87 610.64,-200.22 610.54,-207.22"/>
</a>
</g>
</g>
<!-- Node13&#45;&gt;Node4 -->
<g id="edge19_Node000013_Node000004" class="edge">
<title>Node13&#45;&gt;Node4</title>
<g id="a_edge19_Node000013_Node000004"><a xlink:title=" ">
<path fill="none" stroke="#63b8ff" d="M467.84,-190.51C473.07,-186.79 478.51,-182.3 482.75,-177.38 505.31,-151.16 495.11,-133.62 518.75,-108.38 519.57,-107.5 520.44,-106.64 521.35,-105.82"/>
<polygon fill="#63b8ff" stroke="#63b8ff" points="523.15,-108.84 528.98,-100 518.91,-103.28 523.15,-108.84"/>
</a>
</g>
</g>
<!-- Node13&#45;&gt;Node10 -->
<g id="edge16_Node000013_Node000010" class="edge">
<title>Node13&#45;&gt;Node10</title>
<g id="a_edge16_Node000013_Node000010"><a xlink:title=" ">
<path fill="none" stroke="#63b8ff" d="M481.23,-190.59C490.13,-187.53 499.97,-184.14 509.4,-180.9"/>
<polygon fill="#63b8ff" stroke="#63b8ff" points="510.45,-184.24 518.76,-177.68 508.17,-177.62 510.45,-184.24"/>
</a>
</g>
</g>
<!-- Node13&#45;&gt;Node12 -->
<g id="edge17_Node000013_Node000012" class="edge">
<title>Node13&#45;&gt;Node12</title>
<g id="a_edge17_Node000013_Node000012"><a xlink:title=" ">
<path fill="none" stroke="#63b8ff" d="M476.61,-212.15C488.08,-216.77 501.69,-222.26 514.15,-227.27"/>
<polygon fill="#63b8ff" stroke="#63b8ff" points="512.73,-230.48 523.31,-230.97 515.35,-223.98 512.73,-230.48"/>
</a>
</g>
</g>
<!-- Node14&#45;&gt;Node4 -->
<g id="edge21_Node000014_Node000004" class="edge">
<title>Node14&#45;&gt;Node4</title>
<g id="a_edge21_Node000014_Node000004"><a xlink:title=" ">
<path fill="none" stroke="#63b8ff" d="M171.55,-158.94C233.03,-150.45 369.33,-130.54 482.75,-106.38 490.81,-104.66 499.35,-102.61 507.56,-100.53"/>
<polygon fill="#63b8ff" stroke="#63b8ff" points="508.23,-103.97 517.03,-98.07 506.47,-97.2 508.23,-103.97"/>
</a>
</g>
</g>
<!-- Node14&#45;&gt;Node7 -->
<g id="edge22_Node000014_Node000007" class="edge">
<title>Node14&#45;&gt;Node7</title>
<g id="a_edge22_Node000014_Node000007"><a xlink:title=" ">
<path fill="none" stroke="#63b8ff" d="M167.51,-174.16C177.82,-178.01 189.63,-182.42 200.69,-186.55"/>
<polygon fill="#63b8ff" stroke="#63b8ff" points="199.41,-189.81 210,-190.03 201.86,-183.25 199.41,-189.81"/>
</a>
</g>
</g>
<!-- Node15&#45;&gt;Node2 -->
<g id="edge24_Node000015_Node000002" class="edge">
<title>Node15&#45;&gt;Node2</title>
<g id="a_edge24_Node000015_Node000002"><a xlink:title=" ">
<path fill="none" stroke="#63b8ff" d="M477.41,-98.2C488.49,-102.56 501.47,-107.66 513.44,-112.36"/>
<polygon fill="#63b8ff" stroke="#63b8ff" points="512.07,-115.59 522.66,-115.99 514.63,-109.07 512.07,-115.59"/>
</a>
</g>
</g>
<!-- Node15&#45;&gt;Node4 -->
<g id="edge26_Node000015_Node000004" class="edge">
<title>Node15&#45;&gt;Node4</title>
<g id="a_edge26_Node000015_Node000004"><a xlink:title=" ">
<path fill="none" stroke="#63b8ff" d="M483.19,-87.7C490.82,-87.78 499.06,-87.86 507.08,-87.94"/>
<polygon fill="#63b8ff" stroke="#63b8ff" points="507.03,-91.44 517.07,-88.04 507.1,-84.44 507.03,-91.44"/>
</a>
</g>
</g>
<!-- Node15&#45;&gt;Node5 -->
<g id="edge27_Node000015_Node000005" class="edge">
<title>Node15&#45;&gt;Node5</title>
<g id="a_edge27_Node000015_Node000005"><a xlink:title=" ">
<path fill="none" stroke="#63b8ff" d="M461.65,-76.74C475.03,-64.85 497.76,-45.32 518.75,-30.38 520.28,-29.28 521.88,-28.19 523.5,-27.11"/>
<polygon fill="#63b8ff" stroke="#63b8ff" points="525.06,-30.26 531.62,-21.94 521.3,-24.36 525.06,-30.26"/>
</a>
</g>
</g>
<!-- Node15&#45;&gt;Node10 -->
<g id="edge25_Node000015_Node000010" class="edge">
<title>Node15&#45;&gt;Node10</title>
<g id="a_edge25_Node000015_Node000010"><a xlink:title=" ">
<path fill="none" stroke="#63b8ff" d="M461.1,-97.99C474.37,-110.29 497.34,-130.85 518.75,-146.38 520.27,-147.48 521.86,-148.59 523.48,-149.68"/>
<polygon fill="#63b8ff" stroke="#63b8ff" points="521.27,-152.42 531.58,-154.86 525.04,-146.52 521.27,-152.42"/>
</a>
</g>
</g>
<!-- Node16 -->
<g id="Node000016" class="node">
<title>Node16</title>
<g id="a_Node000016"><a xlink:href="app_8c.html#a672569c91ebb1d5055d737b56ec296a7" target="_top" xlink:title=" ">
<polygon fill="white" stroke="#666666" points="586.5,-59.75 518.75,-59.75 518.75,-39 586.5,-39 586.5,-59.75"/>
<text text-anchor="middle" x="552.62" y="-46.25" font-family="Helvetica,sans-Serif" font-size="10.00">w2c__f585</text>
</a>
</g>
</g>
<!-- Node15&#45;&gt;Node16 -->
<g id="edge28_Node000015_Node000016" class="edge">
<title>Node15&#45;&gt;Node16</title>
<g id="a_edge28_Node000015_Node000016"><a xlink:title=" ">
<path fill="none" stroke="#63b8ff" d="M478.76,-76.59C489.07,-72.74 500.88,-68.33 511.94,-64.2"/>
<polygon fill="#63b8ff" stroke="#63b8ff" points="513.11,-67.5 521.25,-60.72 510.66,-60.94 513.11,-67.5"/>
</a>
</g>
</g>
</g>
</svg>
