<?xml version="1.0" encoding="UTF-8" standalone="no"?>
<!DOCTYPE svg PUBLIC "-//W3C//DTD SVG 1.1//EN"
 "http://www.w3.org/Graphics/SVG/1.1/DTD/svg11.dtd">
<!-- Generated by graphviz version 12.2.1 (0)
 -->
<!-- Title: w2c__f226 Pages: 1 -->
<svg width="491pt" height="239pt"
 viewBox="0.00 0.00 490.75 238.75" xmlns="http://www.w3.org/2000/svg" xmlns:xlink="http://www.w3.org/1999/xlink">
<g id="graph0" class="graph" transform="scale(1 1) rotate(0) translate(4 234.75)">
<title>w2c__f226</title>
<!-- Node1 -->
<g id="Node000001" class="node">
<title>Node1</title>
<g id="a_Node000001"><a xlink:title=" ">
<polygon fill="#999999" stroke="#666666" points="67.75,-96.75 0,-96.75 0,-76 67.75,-76 67.75,-96.75"/>
<text text-anchor="middle" x="33.88" y="-83.25" font-family="Helvetica,sans-Serif" font-size="10.00">w2c__f226</text>
</a>
</g>
</g>
<!-- Node1&#45;&gt;Node1 -->
<g id="edge1_Node000001_Node000001" class="edge">
<title>Node1&#45;&gt;Node1</title>
<g id="a_edge1_Node000001_Node000001"><a xlink:title=" ">
<path fill="none" stroke="#63b8ff" d="M17.16,-97.15C10.47,-105.81 16.04,-114.75 33.88,-114.75 43.35,-114.75 49.36,-112.23 51.91,-108.56"/>
<polygon fill="#63b8ff" stroke="#63b8ff" points="55.39,-108.18 50.77,-98.65 48.44,-108.99 55.39,-108.18"/>
</a>
</g>
</g>
<!-- Node2 -->
<g id="Node000002" class="node">
<title>Node2</title>
<g id="a_Node000002"><a xlink:href="app_8c.html#a177b896bb3ca11b154be35fca033e047" target="_top" xlink:title=" ">
<polygon fill="white" stroke="#666666" points="171.5,-212.75 103.75,-212.75 103.75,-192 171.5,-192 171.5,-212.75"/>
<text text-anchor="middle" x="137.62" y="-199.25" font-family="Helvetica,sans-Serif" font-size="10.00">w2c__f235</text>
</a>
</g>
</g>
<!-- Node1&#45;&gt;Node2 -->
<g id="edge2_Node000001_Node000002" class="edge">
<title>Node1&#45;&gt;Node2</title>
<g id="a_edge2_Node000001_Node000002"><a xlink:title=" ">
<path fill="none" stroke="#63b8ff" d="M44.27,-97.08C61.45,-116.68 98.19,-158.56 119.79,-183.18"/>
<polygon fill="#63b8ff" stroke="#63b8ff" points="117.03,-185.35 126.26,-190.56 122.3,-180.73 117.03,-185.35"/>
</a>
</g>
</g>
<!-- Node6 -->
<g id="Node000006" class="node">
<title>Node6</title>
<g id="a_Node000006"><a xlink:href="app_8c.html#a03fa34d93d32a3ee40dfc2d840730111" target="_top" xlink:title=" ">
<polygon fill="white" stroke="#666666" points="379,-134.75 311.25,-134.75 311.25,-114 379,-114 379,-134.75"/>
<text text-anchor="middle" x="345.12" y="-121.25" font-family="Helvetica,sans-Serif" font-size="10.00">w2c__f262</text>
</a>
</g>
</g>
<!-- Node1&#45;&gt;Node6 -->
<g id="edge8_Node000001_Node000006" class="edge">
<title>Node1&#45;&gt;Node6</title>
<g id="a_edge8_Node000001_Node000006"><a xlink:title=" ">
<path fill="none" stroke="#63b8ff" d="M68.18,-87.01C114.81,-88.35 202.07,-92.51 275.25,-105.38 283.31,-106.79 291.8,-108.74 299.95,-110.85"/>
<polygon fill="#63b8ff" stroke="#63b8ff" points="298.76,-114.16 309.33,-113.41 300.6,-107.4 298.76,-114.16"/>
</a>
</g>
</g>
<!-- Node8 -->
<g id="Node000008" class="node">
<title>Node8</title>
<g id="a_Node000008"><a xlink:href="app_8c.html#af732b1ecf09ff688adde158c29714bcd" target="_top" xlink:title=" ">
<polygon fill="white" stroke="#666666" points="171.5,-20.75 103.75,-20.75 103.75,0 171.5,0 171.5,-20.75"/>
<text text-anchor="middle" x="137.62" y="-7.25" font-family="Helvetica,sans-Serif" font-size="10.00">w2c__f436</text>
</a>
</g>
</g>
<!-- Node1&#45;&gt;Node8 -->
<g id="edge11_Node000001_Node000008" class="edge">
<title>Node1&#45;&gt;Node8</title>
<g id="a_edge11_Node000001_Node000008"><a xlink:title=" ">
<path fill="none" stroke="#63b8ff" d="M49.07,-75.55C62.96,-64.99 84.74,-48.49 103.75,-34.38 106.61,-32.25 109.61,-30.04 112.6,-27.85"/>
<polygon fill="#63b8ff" stroke="#63b8ff" points="114.63,-30.7 120.64,-21.97 110.5,-25.05 114.63,-30.7"/>
</a>
</g>
</g>
<!-- Node9 -->
<g id="Node000009" class="node">
<title>Node9</title>
<g id="a_Node000009"><a xlink:href="app_8c.html#a0e0dad0ebc52e45eeff2e1b5d8389ea4" target="_top" xlink:title=" ">
<polygon fill="white" stroke="#666666" points="379,-77.75 311.25,-77.75 311.25,-57 379,-57 379,-77.75"/>
<text text-anchor="middle" x="345.12" y="-64.25" font-family="Helvetica,sans-Serif" font-size="10.00">w2c__f534</text>
</a>
</g>
</g>
<!-- Node1&#45;&gt;Node9 -->
<g id="edge12_Node000001_Node000009" class="edge">
<title>Node1&#45;&gt;Node9</title>
<g id="a_edge12_Node000001_Node000009"><a xlink:title=" ">
<path fill="none" stroke="#63b8ff" d="M67.96,-78.39C79.25,-76.01 91.99,-73.68 103.75,-72.38 171.78,-64.82 251.28,-64.89 299.65,-65.92"/>
<polygon fill="#63b8ff" stroke="#63b8ff" points="299.36,-69.41 309.44,-66.15 299.53,-62.41 299.36,-69.41"/>
</a>
</g>
</g>
<!-- Node10 -->
<g id="Node000010" class="node">
<title>Node10</title>
<g id="a_Node000010"><a xlink:href="app_8c.html#a75d2a28c1bac8b1e29f069bf851fdba9" target="_top" xlink:title=" ">
<polygon fill="white" stroke="#666666" points="171.5,-134.75 103.75,-134.75 103.75,-114 171.5,-114 171.5,-134.75"/>
<text text-anchor="middle" x="137.62" y="-121.25" font-family="Helvetica,sans-Serif" font-size="10.00">w2c__f549</text>
</a>
</g>
</g>
<!-- Node1&#45;&gt;Node10 -->
<g id="edge13_Node000001_Node000010" class="edge">
<title>Node1&#45;&gt;Node10</title>
<g id="a_edge13_Node000001_Node000010"><a xlink:title=" ">
<path fill="none" stroke="#63b8ff" d="M63.76,-97.16C74.07,-101.01 85.88,-105.42 96.94,-109.55"/>
<polygon fill="#63b8ff" stroke="#63b8ff" points="95.66,-112.81 106.25,-113.03 98.11,-106.25 95.66,-112.81"/>
</a>
</g>
</g>
<!-- Node2&#45;&gt;Node2 -->
<g id="edge3_Node000002_Node000002" class="edge">
<title>Node2&#45;&gt;Node2</title>
<g id="a_edge3_Node000002_Node000002"><a xlink:title=" ">
<path fill="none" stroke="#63b8ff" d="M120.91,-213.15C114.22,-221.81 119.79,-230.75 137.62,-230.75 147.1,-230.75 153.11,-228.23 155.66,-224.56"/>
<polygon fill="#63b8ff" stroke="#63b8ff" points="159.14,-224.18 154.52,-214.65 152.19,-224.99 159.14,-224.18"/>
</a>
</g>
</g>
<!-- Node3 -->
<g id="Node000003" class="node">
<title>Node3</title>
<g id="a_Node000003"><a xlink:href="app_8c.html#a954fa13f62a4fa2757b0f2bf4e9de60d" target="_top" xlink:title=" ">
<polygon fill="white" stroke="#666666" points="275.25,-212.75 207.5,-212.75 207.5,-192 275.25,-192 275.25,-212.75"/>
<text text-anchor="middle" x="241.38" y="-199.25" font-family="Helvetica,sans-Serif" font-size="10.00">w2c__f474</text>
</a>
</g>
</g>
<!-- Node2&#45;&gt;Node3 -->
<g id="edge4_Node000002_Node000003" class="edge">
<title>Node2&#45;&gt;Node3</title>
<g id="a_edge4_Node000002_Node000003"><a xlink:title=" ">
<path fill="none" stroke="#63b8ff" d="M171.94,-202.38C179.57,-202.38 187.81,-202.38 195.83,-202.38"/>
<polygon fill="#63b8ff" stroke="#63b8ff" points="195.82,-205.88 205.82,-202.38 195.82,-198.88 195.82,-205.88"/>
</a>
</g>
</g>
<!-- Node4 -->
<g id="Node000004" class="node">
<title>Node4</title>
<g id="a_Node000004"><a xlink:href="app_8c.html#a800df00ef236c6d6affc3c661b37e3ad" target="_top" xlink:title=" ">
<polygon fill="white" stroke="#666666" points="379,-212.75 311.25,-212.75 311.25,-192 379,-192 379,-212.75"/>
<text text-anchor="middle" x="345.12" y="-199.25" font-family="Helvetica,sans-Serif" font-size="10.00">w2c__f487</text>
</a>
</g>
</g>
<!-- Node2&#45;&gt;Node4 -->
<g id="edge7_Node000002_Node000004" class="edge">
<title>Node2&#45;&gt;Node4</title>
<g id="a_edge7_Node000002_Node000004"><a xlink:title=" ">
<path fill="none" stroke="#63b8ff" d="M170.83,-213.19C182.27,-216.51 195.33,-219.73 207.5,-221.38 237.34,-225.42 245.41,-225.42 275.25,-221.38 283.71,-220.23 292.6,-218.33 301.08,-216.16"/>
<polygon fill="#63b8ff" stroke="#63b8ff" points="301.73,-219.6 310.46,-213.59 299.89,-212.85 301.73,-219.6"/>
</a>
</g>
</g>
<!-- Node3&#45;&gt;Node4 -->
<g id="edge5_Node000003_Node000004" class="edge">
<title>Node3&#45;&gt;Node4</title>
<g id="a_edge5_Node000003_Node000004"><a xlink:title=" ">
<path fill="none" stroke="#63b8ff" d="M275.69,-202.38C283.32,-202.38 291.56,-202.38 299.58,-202.38"/>
<polygon fill="#63b8ff" stroke="#63b8ff" points="299.57,-205.88 309.57,-202.38 299.57,-198.88 299.57,-205.88"/>
</a>
</g>
</g>
<!-- Node5 -->
<g id="Node000005" class="node">
<title>Node5</title>
<g id="a_Node000005"><a xlink:href="app_8c.html#a71bcbce7faf780cd081af3fa82d6da97" target="_top" xlink:title=" ">
<polygon fill="white" stroke="#666666" points="482.75,-192.75 415,-192.75 415,-172 482.75,-172 482.75,-192.75"/>
<text text-anchor="middle" x="448.88" y="-179.25" font-family="Helvetica,sans-Serif" font-size="10.00">w2c__f437</text>
</a>
</g>
</g>
<!-- Node4&#45;&gt;Node5 -->
<g id="edge6_Node000004_Node000005" class="edge">
<title>Node4&#45;&gt;Node5</title>
<g id="a_edge6_Node000004_Node000005"><a xlink:title=" ">
<path fill="none" stroke="#63b8ff" d="M379.44,-195.83C387.16,-194.31 395.5,-192.67 403.61,-191.08"/>
<polygon fill="#63b8ff" stroke="#63b8ff" points="404.21,-194.53 413.35,-189.16 402.86,-187.66 404.21,-194.53"/>
</a>
</g>
</g>
<!-- Node6&#45;&gt;Node5 -->
<g id="edge10_Node000006_Node000005" class="edge">
<title>Node6&#45;&gt;Node5</title>
<g id="a_edge10_Node000006_Node000005"><a xlink:title=" ">
<path fill="none" stroke="#63b8ff" d="M364.79,-135.01C380.04,-143.71 401.85,-156.14 419.3,-166.09"/>
<polygon fill="#63b8ff" stroke="#63b8ff" points="417.25,-168.95 427.67,-170.86 420.72,-162.87 417.25,-168.95"/>
</a>
</g>
</g>
<!-- Node7 -->
<g id="Node000007" class="node">
<title>Node7</title>
<g id="a_Node000007"><a xlink:href="app_8c.html#a16207b5f7a97b0ecfddd231452c5aa7e" target="_top" xlink:title=" ">
<polygon fill="white" stroke="#666666" points="482.75,-134.75 415,-134.75 415,-114 482.75,-114 482.75,-134.75"/>
<text text-anchor="middle" x="448.88" y="-121.25" font-family="Helvetica,sans-Serif" font-size="10.00">w2c__f263</text>
</a>
</g>
</g>
<!-- Node6&#45;&gt;Node7 -->
<g id="edge9_Node000006_Node000007" class="edge">
<title>Node6&#45;&gt;Node7</title>
<g id="a_edge9_Node000006_Node000007"><a xlink:title=" ">
<path fill="none" stroke="#63b8ff" d="M379.44,-124.38C387.07,-124.38 395.31,-124.38 403.33,-124.38"/>
<polygon fill="#63b8ff" stroke="#63b8ff" points="403.32,-127.88 413.32,-124.38 403.32,-120.88 403.32,-127.88"/>
</a>
</g>
</g>
<!-- Node11 -->
<g id="Node000011" class="node">
<title>Node11</title>
<g id="a_Node000011"><a xlink:href="app_8c.html#ad9bca52de088793f15de1ea81b7d2dde" target="_top" xlink:title=" ">
<polygon fill="white" stroke="#666666" points="275.25,-173.75 207.5,-173.75 207.5,-153 275.25,-153 275.25,-173.75"/>
<text text-anchor="middle" x="241.38" y="-160.25" font-family="Helvetica,sans-Serif" font-size="10.00">w2c__f418</text>
</a>
</g>
</g>
<!-- Node10&#45;&gt;Node11 -->
<g id="edge14_Node000010_Node000011" class="edge">
<title>Node10&#45;&gt;Node11</title>
<g id="a_edge14_Node000010_Node000011"><a xlink:title=" ">
<path fill="none" stroke="#63b8ff" d="M166.97,-135.24C177.66,-139.34 190.02,-144.08 201.51,-148.48"/>
<polygon fill="#63b8ff" stroke="#63b8ff" points="200.18,-151.72 210.77,-152.03 202.69,-145.18 200.18,-151.72"/>
</a>
</g>
</g>
<!-- Node13 -->
<g id="Node000013" class="node">
<title>Node13</title>
<g id="a_Node000013"><a xlink:href="app_8c.html#a224a737afc755fe6bb552fc2a3f14f0e" target="_top" xlink:title=" ">
<polygon fill="white" stroke="#666666" points="275.25,-134.75 207.5,-134.75 207.5,-114 275.25,-114 275.25,-134.75"/>
<text text-anchor="middle" x="241.38" y="-121.25" font-family="Helvetica,sans-Serif" font-size="10.00">w2c__f424</text>
</a>
</g>
</g>
<!-- Node10&#45;&gt;Node13 -->
<g id="edge16_Node000010_Node000013" class="edge">
<title>Node10&#45;&gt;Node13</title>
<g id="a_edge16_Node000010_Node000013"><a xlink:title=" ">
<path fill="none" stroke="#63b8ff" d="M171.94,-124.38C179.57,-124.38 187.81,-124.38 195.83,-124.38"/>
<polygon fill="#63b8ff" stroke="#63b8ff" points="195.82,-127.88 205.82,-124.38 195.82,-120.88 195.82,-127.88"/>
</a>
</g>
</g>
<!-- Node12 -->
<g id="Node000012" class="node">
<title>Node12</title>
<g id="a_Node000012"><a xlink:href="app_8c.html#a5d082dff6c4c25de25da9f4dc538c097" target="_top" xlink:title=" ">
<polygon fill="white" stroke="#666666" points="379,-173.75 311.25,-173.75 311.25,-153 379,-153 379,-173.75"/>
<text text-anchor="middle" x="345.12" y="-160.25" font-family="Helvetica,sans-Serif" font-size="10.00">w2c__f265</text>
</a>
</g>
</g>
<!-- Node11&#45;&gt;Node12 -->
<g id="edge15_Node000011_Node000012" class="edge">
<title>Node11&#45;&gt;Node12</title>
<g id="a_edge15_Node000011_Node000012"><a xlink:title=" ">
<path fill="none" stroke="#63b8ff" d="M275.69,-163.38C283.32,-163.38 291.56,-163.38 299.58,-163.38"/>
<polygon fill="#63b8ff" stroke="#63b8ff" points="299.57,-166.88 309.57,-163.38 299.57,-159.88 299.57,-166.88"/>
</a>
</g>
</g>
<!-- Node13&#45;&gt;Node6 -->
<g id="edge17_Node000013_Node000006" class="edge">
<title>Node13&#45;&gt;Node6</title>
<g id="a_edge17_Node000013_Node000006"><a xlink:title=" ">
<path fill="none" stroke="#63b8ff" d="M275.69,-124.38C283.32,-124.38 291.56,-124.38 299.58,-124.38"/>
<polygon fill="#63b8ff" stroke="#63b8ff" points="299.57,-127.88 309.57,-124.38 299.57,-120.88 299.57,-127.88"/>
</a>
</g>
</g>
<!-- Node13&#45;&gt;Node9 -->
<g id="edge18_Node000013_Node000009" class="edge">
<title>Node13&#45;&gt;Node9</title>
<g id="a_edge18_Node000013_Node000009"><a xlink:title=" ">
<path fill="none" stroke="#63b8ff" d="M261.51,-113.65C276.62,-105.19 297.95,-93.24 315.15,-83.6"/>
<polygon fill="#63b8ff" stroke="#63b8ff" points="316.39,-86.92 323.41,-78.98 312.97,-80.82 316.39,-86.92"/>
</a>
</g>
</g>
</g>
</svg>
