<?xml version="1.0" encoding="UTF-8" standalone="no"?>
<!DOCTYPE svg PUBLIC "-//W3C//DTD SVG 1.1//EN"
 "http://www.w3.org/Graphics/SVG/1.1/DTD/svg11.dtd">
<!-- Generated by graphviz version 12.2.1 (0)
 -->
<!-- Title: w2c__f450 Pages: 1 -->
<svg width="598pt" height="317pt"
 viewBox="0.00 0.00 598.25 317.18" xmlns="http://www.w3.org/2000/svg" xmlns:xlink="http://www.w3.org/1999/xlink">
<g id="graph0" class="graph" transform="scale(1 1) rotate(0) translate(4 313.18)">
<title>w2c__f450</title>
<!-- Node1 -->
<g id="Node000001" class="node">
<title>Node1</title>
<g id="a_Node000001"><a xlink:title=" ">
<polygon fill="#999999" stroke="#666666" points="67.75,-137.18 0,-137.18 0,-116.43 67.75,-116.43 67.75,-137.18"/>
<text text-anchor="middle" x="33.88" y="-123.68" font-family="Helvetica,sans-Serif" font-size="10.00">w2c__f450</text>
</a>
</g>
</g>
<!-- Node2 -->
<g id="Node000002" class="node">
<title>Node2</title>
<g id="a_Node000002"><a xlink:href="app_8c.html#ae5a3aadb2ff516ba9de8e7fad0e97772" target="_top" xlink:title=" ">
<polygon fill="white" stroke="#666666" points="171.5,-118.18 103.75,-118.18 103.75,-97.43 171.5,-97.43 171.5,-118.18"/>
<text text-anchor="middle" x="137.62" y="-104.68" font-family="Helvetica,sans-Serif" font-size="10.00">w2c__f286</text>
</a>
</g>
</g>
<!-- Node1&#45;&gt;Node2 -->
<g id="edge1_Node000001_Node000002" class="edge">
<title>Node1&#45;&gt;Node2</title>
<g id="a_edge1_Node000001_Node000002"><a xlink:title=" ">
<path fill="none" stroke="#63b8ff" d="M68.19,-120.58C75.91,-119.14 84.25,-117.58 92.36,-116.07"/>
<polygon fill="#63b8ff" stroke="#63b8ff" points="92.91,-119.53 102.09,-114.25 91.62,-112.65 92.91,-119.53"/>
</a>
</g>
</g>
<!-- Node14 -->
<g id="Node000014" class="node">
<title>Node14</title>
<g id="a_Node000014"><a xlink:href="app_8c.html#a3baf859eaf495b1a150b161f2cca1d56" target="_top" xlink:title=" ">
<polygon fill="white" stroke="#666666" points="171.5,-167.18 103.75,-167.18 103.75,-146.43 171.5,-146.43 171.5,-167.18"/>
<text text-anchor="middle" x="137.62" y="-153.68" font-family="Helvetica,sans-Serif" font-size="10.00">w2c__f292</text>
</a>
</g>
</g>
<!-- Node1&#45;&gt;Node14 -->
<g id="edge17_Node000001_Node000014" class="edge">
<title>Node1&#45;&gt;Node14</title>
<g id="a_edge17_Node000001_Node000014"><a xlink:title=" ">
<path fill="none" stroke="#63b8ff" d="M68.19,-136.63C76,-138.93 84.44,-141.42 92.64,-143.83"/>
<polygon fill="#63b8ff" stroke="#63b8ff" points="91.55,-147.16 102.13,-146.63 93.53,-140.45 91.55,-147.16"/>
</a>
</g>
</g>
<!-- Node3 -->
<g id="Node000003" class="node">
<title>Node3</title>
<g id="a_Node000003"><a xlink:href="app_8c.html#a831c51f20403bf1cafc621bad21a52e9" target="_top" xlink:title=" ">
<polygon fill="white" stroke="#666666" points="277.12,-21.18 209.38,-21.18 209.38,-0.43 277.12,-0.43 277.12,-21.18"/>
<text text-anchor="middle" x="243.25" y="-7.68" font-family="Helvetica,sans-Serif" font-size="10.00">w2c__f200</text>
</a>
</g>
</g>
<!-- Node2&#45;&gt;Node3 -->
<g id="edge2_Node000002_Node000003" class="edge">
<title>Node2&#45;&gt;Node3</title>
<g id="a_edge2_Node000002_Node000003"><a xlink:title=" ">
<path fill="none" stroke="#63b8ff" d="M146.4,-97.12C158.3,-81.28 182.29,-51.26 207.5,-30.8 208.78,-29.76 210.13,-28.74 211.51,-27.75"/>
<polygon fill="#63b8ff" stroke="#63b8ff" points="213.21,-30.82 219.69,-22.44 209.4,-24.95 213.21,-30.82"/>
</a>
</g>
</g>
<!-- Node4 -->
<g id="Node000004" class="node">
<title>Node4</title>
<g id="a_Node000004"><a xlink:href="app_8c.html#aef4afac43455d3ed5e9e3d9c1d8a5700" target="_top" xlink:title=" ">
<polygon fill="white" stroke="#666666" points="277.12,-138.18 209.38,-138.18 209.38,-117.43 277.12,-117.43 277.12,-138.18"/>
<text text-anchor="middle" x="243.25" y="-124.68" font-family="Helvetica,sans-Serif" font-size="10.00">w2c__f222</text>
</a>
</g>
</g>
<!-- Node2&#45;&gt;Node4 -->
<g id="edge3_Node000002_Node000004" class="edge">
<title>Node2&#45;&gt;Node4</title>
<g id="a_edge3_Node000002_Node000004"><a xlink:title=" ">
<path fill="none" stroke="#63b8ff" d="M171.98,-114.24C180.21,-115.83 189.15,-117.56 197.81,-119.23"/>
<polygon fill="#63b8ff" stroke="#63b8ff" points="196.99,-122.63 207.47,-121.09 198.31,-115.76 196.99,-122.63"/>
</a>
</g>
</g>
<!-- Node6 -->
<g id="Node000006" class="node">
<title>Node6</title>
<g id="a_Node000006"><a xlink:href="app_8c.html#aae3fe6c78a36d5d64862fe809f830e7c" target="_top" xlink:title=" ">
<polygon fill="white" stroke="#666666" points="277.12,-60.18 209.38,-60.18 209.38,-39.43 277.12,-39.43 277.12,-60.18"/>
<text text-anchor="middle" x="243.25" y="-46.68" font-family="Helvetica,sans-Serif" font-size="10.00">w2c__f340</text>
</a>
</g>
</g>
<!-- Node2&#45;&gt;Node6 -->
<g id="edge5_Node000002_Node000006" class="edge">
<title>Node2&#45;&gt;Node6</title>
<g id="a_edge5_Node000002_Node000006"><a xlink:title=" ">
<path fill="none" stroke="#63b8ff" d="M157.63,-97.17C173.16,-88.47 195.38,-76.04 213.15,-66.09"/>
<polygon fill="#63b8ff" stroke="#63b8ff" points="214.68,-69.25 221.69,-61.31 211.26,-63.14 214.68,-69.25"/>
</a>
</g>
</g>
<!-- Node12 -->
<g id="Node000012" class="node">
<title>Node12</title>
<g id="a_Node000012"><a xlink:href="app_8c.html#a2aa5c145ea0ba4e33192bc8f198aa5ff" target="_top" xlink:title=" ">
<polygon fill="white" stroke="#666666" points="277.12,-177.18 209.38,-177.18 209.38,-156.43 277.12,-156.43 277.12,-177.18"/>
<text text-anchor="middle" x="243.25" y="-163.68" font-family="Helvetica,sans-Serif" font-size="10.00">w2c__f369</text>
</a>
</g>
</g>
<!-- Node2&#45;&gt;Node12 -->
<g id="edge15_Node000002_Node000012" class="edge">
<title>Node2&#45;&gt;Node12</title>
<g id="a_edge15_Node000002_Node000012"><a xlink:title=" ">
<path fill="none" stroke="#63b8ff" d="M157.63,-118.63C173.26,-127.52 195.66,-140.28 213.48,-150.42"/>
<polygon fill="#63b8ff" stroke="#63b8ff" points="211.63,-153.4 222.05,-155.3 215.09,-147.31 211.63,-153.4"/>
</a>
</g>
</g>
<!-- Node13 -->
<g id="Node000013" class="node">
<title>Node13</title>
<g id="a_Node000013"><a xlink:href="app_8c.html#ad63b6498cfe22ce747f349eeb23b508f" target="_top" xlink:title=" ">
<polygon fill="white" stroke="#666666" points="279,-99.18 207.5,-99.18 207.5,-78.43 279,-78.43 279,-99.18"/>
<text text-anchor="middle" x="243.25" y="-85.68" font-family="Helvetica,sans-Serif" font-size="10.00">wasm_fabs</text>
</a>
</g>
</g>
<!-- Node2&#45;&gt;Node13 -->
<g id="edge16_Node000002_Node000013" class="edge">
<title>Node2&#45;&gt;Node13</title>
<g id="a_edge16_Node000002_Node000013"><a xlink:title=" ">
<path fill="none" stroke="#63b8ff" d="M171.98,-101.69C179.62,-100.29 187.88,-98.77 195.96,-97.29"/>
<polygon fill="#63b8ff" stroke="#63b8ff" points="196.48,-100.75 205.68,-95.51 195.21,-93.87 196.48,-100.75"/>
</a>
</g>
</g>
<!-- Node5 -->
<g id="Node000005" class="node">
<title>Node5</title>
<g id="a_Node000005"><a xlink:href="app_8c.html#a4efea04c546fa05edb9b134a36e88a52" target="_top" xlink:title=" ">
<polygon fill="white" stroke="#666666" points="382.75,-119.18 315,-119.18 315,-98.43 382.75,-98.43 382.75,-119.18"/>
<text text-anchor="middle" x="348.88" y="-105.68" font-family="Helvetica,sans-Serif" font-size="10.00">w2c__f201</text>
</a>
</g>
</g>
<!-- Node4&#45;&gt;Node5 -->
<g id="edge4_Node000004_Node000005" class="edge">
<title>Node4&#45;&gt;Node5</title>
<g id="a_edge4_Node000004_Node000005"><a xlink:title=" ">
<path fill="none" stroke="#63b8ff" d="M277.61,-121.69C285.84,-120.18 294.78,-118.54 303.44,-116.95"/>
<polygon fill="#63b8ff" stroke="#63b8ff" points="303.89,-120.43 313.09,-115.18 302.62,-113.54 303.89,-120.43"/>
</a>
</g>
</g>
<!-- Node7 -->
<g id="Node000007" class="node">
<title>Node7</title>
<g id="a_Node000007"><a xlink:href="app_8c.html#abcd0c0585ea6884140a3d83d871fdef2" target="_top" xlink:title=" ">
<polygon fill="white" stroke="#666666" points="486.5,-233.18 418.75,-233.18 418.75,-212.43 486.5,-212.43 486.5,-233.18"/>
<text text-anchor="middle" x="452.62" y="-219.68" font-family="Helvetica,sans-Serif" font-size="10.00">w2c__f396</text>
</a>
</g>
</g>
<!-- Node6&#45;&gt;Node7 -->
<g id="edge6_Node000006_Node000007" class="edge">
<title>Node6&#45;&gt;Node7</title>
<g id="a_edge6_Node000006_Node000007"><a xlink:title=" ">
<path fill="none" stroke="#63b8ff" d="M277.44,-50.8C308.59,-53.51 354.5,-62.31 382.75,-89.8 420.53,-126.56 386.17,-161.37 418.75,-202.8 419.28,-203.47 419.83,-204.13 420.41,-204.76"/>
<polygon fill="#63b8ff" stroke="#63b8ff" points="417.98,-207.28 427.87,-211.09 422.51,-201.95 417.98,-207.28"/>
</a>
</g>
</g>
<!-- Node8 -->
<g id="Node000008" class="node">
<title>Node8</title>
<g id="a_Node000008"><a xlink:href="app_8c.html#af732b1ecf09ff688adde158c29714bcd" target="_top" xlink:title=" ">
<polygon fill="white" stroke="#666666" points="590.25,-233.18 522.5,-233.18 522.5,-212.43 590.25,-212.43 590.25,-233.18"/>
<text text-anchor="middle" x="556.38" y="-219.68" font-family="Helvetica,sans-Serif" font-size="10.00">w2c__f436</text>
</a>
</g>
</g>
<!-- Node6&#45;&gt;Node8 -->
<g id="edge13_Node000006_Node000008" class="edge">
<title>Node6&#45;&gt;Node8</title>
<g id="a_edge13_Node000006_Node000008"><a xlink:title=" ">
<path fill="none" stroke="#63b8ff" d="M277.58,-43.84C306.56,-40.19 349.07,-38.58 382.75,-52.8 457.48,-84.37 517.59,-164.86 542.69,-202.65"/>
<polygon fill="#63b8ff" stroke="#63b8ff" points="539.62,-204.34 548,-210.82 545.49,-200.53 539.62,-204.34"/>
</a>
</g>
</g>
<!-- Node9 -->
<g id="Node000009" class="node">
<title>Node9</title>
<g id="a_Node000009"><a xlink:href="app_8c.html#a309a40d49274226f4e4f391a0a617f71" target="_top" xlink:title=" ">
<polygon fill="white" stroke="#666666" points="382.75,-195.18 315,-195.18 315,-174.43 382.75,-174.43 382.75,-195.18"/>
<text text-anchor="middle" x="348.88" y="-181.68" font-family="Helvetica,sans-Serif" font-size="10.00">w2c__f430</text>
</a>
</g>
</g>
<!-- Node6&#45;&gt;Node9 -->
<g id="edge8_Node000006_Node000009" class="edge">
<title>Node6&#45;&gt;Node9</title>
<g id="a_edge8_Node000006_Node000009"><a xlink:title=" ">
<path fill="none" stroke="#63b8ff" d="M266.76,-60.5C271.11,-63.17 275.43,-66.29 279,-69.8 282.86,-73.6 317.46,-132.57 336.1,-164.55"/>
<polygon fill="#63b8ff" stroke="#63b8ff" points="332.93,-166.05 340.98,-172.93 338.97,-162.53 332.93,-166.05"/>
</a>
</g>
</g>
<!-- Node11 -->
<g id="Node000011" class="node">
<title>Node11</title>
<g id="a_Node000011"><a xlink:href="app_8c.html#a0e0dad0ebc52e45eeff2e1b5d8389ea4" target="_top" xlink:title=" ">
<polygon fill="white" stroke="#666666" points="590.25,-156.18 522.5,-156.18 522.5,-135.43 590.25,-135.43 590.25,-156.18"/>
<text text-anchor="middle" x="556.38" y="-142.68" font-family="Helvetica,sans-Serif" font-size="10.00">w2c__f534</text>
</a>
</g>
</g>
<!-- Node6&#45;&gt;Node11 -->
<g id="edge14_Node000006_Node000011" class="edge">
<title>Node6&#45;&gt;Node11</title>
<g id="a_edge14_Node000006_Node000011"><a xlink:title=" ">
<path fill="none" stroke="#63b8ff" d="M265.15,-38.98C309.43,-17.68 414.54,24.03 486.5,-18.8 524.95,-41.69 543.26,-94.37 550.83,-124.19"/>
<polygon fill="#63b8ff" stroke="#63b8ff" points="547.34,-124.66 553.02,-133.6 554.16,-123.07 547.34,-124.66"/>
</a>
</g>
</g>
<!-- Node7&#45;&gt;Node8 -->
<g id="edge7_Node000007_Node000008" class="edge">
<title>Node7&#45;&gt;Node8</title>
<g id="a_edge7_Node000007_Node000008"><a xlink:title=" ">
<path fill="none" stroke="#63b8ff" d="M486.94,-222.8C494.57,-222.8 502.81,-222.8 510.83,-222.8"/>
<polygon fill="#63b8ff" stroke="#63b8ff" points="510.82,-226.3 520.82,-222.8 510.82,-219.3 510.82,-226.3"/>
</a>
</g>
</g>
<!-- Node9&#45;&gt;Node7 -->
<g id="edge12_Node000009_Node000007" class="edge">
<title>Node9&#45;&gt;Node7</title>
<g id="a_edge12_Node000009_Node000007"><a xlink:title=" ">
<path fill="none" stroke="#63b8ff" d="M378.76,-195.59C389.07,-199.44 400.88,-203.85 411.94,-207.98"/>
<polygon fill="#63b8ff" stroke="#63b8ff" points="410.66,-211.24 421.25,-211.46 413.11,-204.68 410.66,-211.24"/>
</a>
</g>
</g>
<!-- Node10 -->
<g id="Node000010" class="node">
<title>Node10</title>
<g id="a_Node000010"><a xlink:href="app_8c.html#a4fe321cbcfefc8ca72854f11ebd1893e" target="_top" xlink:title=" ">
<polygon fill="white" stroke="#666666" points="486.5,-194.18 418.75,-194.18 418.75,-173.43 486.5,-173.43 486.5,-194.18"/>
<text text-anchor="middle" x="452.62" y="-180.68" font-family="Helvetica,sans-Serif" font-size="10.00">w2c__f318</text>
</a>
</g>
</g>
<!-- Node9&#45;&gt;Node10 -->
<g id="edge9_Node000009_Node000010" class="edge">
<title>Node9&#45;&gt;Node10</title>
<g id="a_edge9_Node000009_Node000010"><a xlink:title=" ">
<path fill="none" stroke="#63b8ff" d="M383.19,-184.48C390.82,-184.4 399.06,-184.32 407.08,-184.24"/>
<polygon fill="#63b8ff" stroke="#63b8ff" points="407.1,-187.74 417.07,-184.14 407.03,-180.74 407.1,-187.74"/>
</a>
</g>
</g>
<!-- Node10&#45;&gt;Node8 -->
<g id="edge10_Node000010_Node000008" class="edge">
<title>Node10&#45;&gt;Node8</title>
<g id="a_edge10_Node000010_Node000008"><a xlink:title=" ">
<path fill="none" stroke="#63b8ff" d="M481.97,-194.67C492.66,-198.77 505.02,-203.5 516.51,-207.91"/>
<polygon fill="#63b8ff" stroke="#63b8ff" points="515.18,-211.15 525.77,-211.46 517.69,-204.61 515.18,-211.15"/>
</a>
</g>
</g>
<!-- Node10&#45;&gt;Node11 -->
<g id="edge11_Node000010_Node000011" class="edge">
<title>Node10&#45;&gt;Node11</title>
<g id="a_edge11_Node000010_Node000011"><a xlink:title=" ">
<path fill="none" stroke="#63b8ff" d="M482.51,-173.02C492.82,-169.17 504.63,-164.76 515.69,-160.63"/>
<polygon fill="#63b8ff" stroke="#63b8ff" points="516.86,-163.93 525,-157.15 514.41,-157.37 516.86,-163.93"/>
</a>
</g>
</g>
<!-- Node14&#45;&gt;Node4 -->
<g id="edge18_Node000014_Node000004" class="edge">
<title>Node14&#45;&gt;Node4</title>
<g id="a_edge18_Node000014_Node000004"><a xlink:title=" ">
<path fill="none" stroke="#63b8ff" d="M171.98,-147.47C180.3,-145.14 189.35,-142.61 198.11,-140.16"/>
<polygon fill="#63b8ff" stroke="#63b8ff" points="198.81,-143.6 207.5,-137.53 196.92,-136.85 198.81,-143.6"/>
</a>
</g>
</g>
<!-- Node14&#45;&gt;Node12 -->
<g id="edge27_Node000014_Node000012" class="edge">
<title>Node14&#45;&gt;Node12</title>
<g id="a_edge27_Node000014_Node000012"><a xlink:title=" ">
<path fill="none" stroke="#63b8ff" d="M171.98,-160.02C180.12,-160.81 188.95,-161.66 197.52,-162.49"/>
<polygon fill="#63b8ff" stroke="#63b8ff" points="197.16,-165.97 207.45,-163.45 197.83,-159 197.16,-165.97"/>
</a>
</g>
</g>
<!-- Node14&#45;&gt;Node13 -->
<g id="edge28_Node000014_Node000013" class="edge">
<title>Node14&#45;&gt;Node13</title>
<g id="a_edge28_Node000014_Node000013"><a xlink:title=" ">
<path fill="none" stroke="#63b8ff" d="M153.42,-145.94C167.2,-135.95 188.43,-120.91 207.5,-108.8 209.35,-107.63 211.27,-106.44 213.22,-105.26"/>
<polygon fill="#63b8ff" stroke="#63b8ff" points="214.82,-108.38 221.65,-100.28 211.26,-102.35 214.82,-108.38"/>
</a>
</g>
</g>
<!-- Node15 -->
<g id="Node000015" class="node">
<title>Node15</title>
<g id="a_Node000015"><a xlink:href="app_8c.html#a0ab88abe0001c9616cc383126a10fb06" target="_top" xlink:title=" ">
<polygon fill="white" stroke="#666666" points="277.12,-290.18 209.38,-290.18 209.38,-269.43 277.12,-269.43 277.12,-290.18"/>
<text text-anchor="middle" x="243.25" y="-276.68" font-family="Helvetica,sans-Serif" font-size="10.00">w2c__f329</text>
</a>
</g>
</g>
<!-- Node14&#45;&gt;Node15 -->
<g id="edge19_Node000014_Node000015" class="edge">
<title>Node14&#45;&gt;Node15</title>
<g id="a_edge19_Node000014_Node000015"><a xlink:title=" ">
<path fill="none" stroke="#63b8ff" d="M147.46,-167.29C164.81,-187.88 203.57,-233.89 225.78,-260.25"/>
<polygon fill="#63b8ff" stroke="#63b8ff" points="223.05,-262.44 232.17,-267.84 228.4,-257.93 223.05,-262.44"/>
</a>
</g>
</g>
<!-- Node17 -->
<g id="Node000017" class="node">
<title>Node17</title>
<g id="a_Node000017"><a xlink:href="app_8c.html#a3fc93ee2d917dee38e30c8d32867106f" target="_top" xlink:title=" ">
<polygon fill="white" stroke="#666666" points="277.12,-216.18 209.38,-216.18 209.38,-195.43 277.12,-195.43 277.12,-216.18"/>
<text text-anchor="middle" x="243.25" y="-202.68" font-family="Helvetica,sans-Serif" font-size="10.00">w2c__f339</text>
</a>
</g>
</g>
<!-- Node14&#45;&gt;Node17 -->
<g id="edge22_Node000014_Node000017" class="edge">
<title>Node14&#45;&gt;Node17</title>
<g id="a_edge22_Node000014_Node000017"><a xlink:title=" ">
<path fill="none" stroke="#63b8ff" d="M161.62,-167.68C175.58,-174.28 193.62,-182.81 209.09,-190.13"/>
<polygon fill="#63b8ff" stroke="#63b8ff" points="207.41,-193.2 217.95,-194.31 210.4,-186.87 207.41,-193.2"/>
</a>
</g>
</g>
<!-- Node16 -->
<g id="Node000016" class="node">
<title>Node16</title>
<g id="a_Node000016"><a xlink:href="app_8c.html#a1982e4d2aac4d56e7d177872aef98a16" target="_top" xlink:title=" ">
<polygon fill="white" stroke="#666666" points="486.5,-309.18 418.75,-309.18 418.75,-288.43 486.5,-288.43 486.5,-309.18"/>
<text text-anchor="middle" x="452.62" y="-295.68" font-family="Helvetica,sans-Serif" font-size="10.00">w2c__f357</text>
</a>
</g>
</g>
<!-- Node15&#45;&gt;Node16 -->
<g id="edge20_Node000015_Node000016" class="edge">
<title>Node15&#45;&gt;Node16</title>
<g id="a_edge20_Node000015_Node000016"><a xlink:title=" ">
<path fill="none" stroke="#63b8ff" d="M277.57,-282.86C312.79,-286.08 368.52,-291.19 407.4,-294.75"/>
<polygon fill="#63b8ff" stroke="#63b8ff" points="406.6,-298.19 416.88,-295.62 407.24,-291.22 406.6,-298.19"/>
</a>
</g>
</g>
<!-- Node16&#45;&gt;Node8 -->
<g id="edge21_Node000016_Node000008" class="edge">
<title>Node16&#45;&gt;Node8</title>
<g id="a_edge21_Node000016_Node000008"><a xlink:title=" ">
<path fill="none" stroke="#63b8ff" d="M468.39,-288.1C474.07,-283.97 480.6,-279.18 486.5,-274.8 501.79,-263.45 518.89,-250.55 532.22,-240.43"/>
<polygon fill="#63b8ff" stroke="#63b8ff" points="534.13,-243.38 539.97,-234.54 529.89,-237.8 534.13,-243.38"/>
</a>
</g>
</g>
<!-- Node17&#45;&gt;Node7 -->
<g id="edge23_Node000017_Node000007" class="edge">
<title>Node17&#45;&gt;Node7</title>
<g id="a_edge23_Node000017_Node000007"><a xlink:title=" ">
<path fill="none" stroke="#63b8ff" d="M277.57,-208.54C312.79,-211.42 368.52,-215.99 407.4,-219.18"/>
<polygon fill="#63b8ff" stroke="#63b8ff" points="406.63,-222.63 416.88,-219.96 407.2,-215.65 406.63,-222.63"/>
</a>
</g>
</g>
<!-- Node17&#45;&gt;Node8 -->
<g id="edge25_Node000017_Node000008" class="edge">
<title>Node17&#45;&gt;Node8</title>
<g id="a_edge25_Node000017_Node000008"><a xlink:title=" ">
<path fill="none" stroke="#63b8ff" d="M273.16,-216.58C285.85,-220.94 301.01,-225.68 315,-228.8 389.61,-245.45 410.75,-252.06 486.5,-241.8 494.96,-240.66 503.85,-238.75 512.33,-236.58"/>
<polygon fill="#63b8ff" stroke="#63b8ff" points="512.98,-240.03 521.71,-234.02 511.14,-233.28 512.98,-240.03"/>
</a>
</g>
</g>
<!-- Node17&#45;&gt;Node9 -->
<g id="edge24_Node000017_Node000009" class="edge">
<title>Node17&#45;&gt;Node9</title>
<g id="a_edge24_Node000017_Node000009"><a xlink:title=" ">
<path fill="none" stroke="#63b8ff" d="M277.61,-199.04C285.84,-197.38 294.78,-195.56 303.44,-193.81"/>
<polygon fill="#63b8ff" stroke="#63b8ff" points="303.99,-197.27 313.1,-191.85 302.6,-190.41 303.99,-197.27"/>
</a>
</g>
</g>
<!-- Node17&#45;&gt;Node11 -->
<g id="edge26_Node000017_Node000011" class="edge">
<title>Node17&#45;&gt;Node11</title>
<g id="a_edge26_Node000017_Node000011"><a xlink:title=" ">
<path fill="none" stroke="#63b8ff" d="M263.08,-195.03C283.56,-183.33 313.58,-166.24 315,-165.8 381,-145.48 461.71,-143.04 510.79,-143.88"/>
<polygon fill="#63b8ff" stroke="#63b8ff" points="510.67,-147.38 520.75,-144.11 510.84,-140.38 510.67,-147.38"/>
</a>
</g>
</g>
</g>
</svg>
