<?xml version="1.0" encoding="UTF-8" standalone="no"?>
<!DOCTYPE svg PUBLIC "-//W3C//DTD SVG 1.1//EN"
 "http://www.w3.org/Graphics/SVG/1.1/DTD/svg11.dtd">
<!-- Generated by graphviz version 12.2.1 (0)
 -->
<!-- Title: w2c__f371 Pages: 1 -->
<svg width="989pt" height="654pt"
 viewBox="0.00 0.00 989.25 653.75" xmlns="http://www.w3.org/2000/svg" xmlns:xlink="http://www.w3.org/1999/xlink">
<g id="graph0" class="graph" transform="scale(1 1) rotate(0) translate(4 649.75)">
<title>w2c__f371</title>
<!-- Node1 -->
<g id="Node000001" class="node">
<title>Node1</title>
<g id="a_Node000001"><a xlink:title=" ">
<polygon fill="#999999" stroke="#666666" points="981.25,-325.75 913.5,-325.75 913.5,-305 981.25,-305 981.25,-325.75"/>
<text text-anchor="middle" x="947.38" y="-312.25" font-family="Helvetica,sans-Serif" font-size="10.00">w2c__f371</text>
</a>
</g>
</g>
<!-- Node2 -->
<g id="Node000002" class="node">
<title>Node2</title>
<g id="a_Node000002"><a xlink:href="app_8c.html#ab4735bfba578333c3aba0581e44f57f7" target="_top" xlink:title=" ">
<polygon fill="white" stroke="#666666" points="773.75,-626.75 706,-626.75 706,-606 773.75,-606 773.75,-626.75"/>
<text text-anchor="middle" x="739.88" y="-613.25" font-family="Helvetica,sans-Serif" font-size="10.00">w2c__f197</text>
</a>
</g>
</g>
<!-- Node1&#45;&gt;Node2 -->
<g id="edge1_Node000001_Node000002" class="edge">
<title>Node1&#45;&gt;Node2</title>
<g id="a_edge1_Node000001_Node000002"><a xlink:title=" ">
<path fill="none" stroke="#63b8ff" d="M946.26,-337.63C944.84,-384.49 935.15,-494.35 877.5,-559.38 850.65,-589.66 805.12,-604.26 774.06,-611.01"/>
<polygon fill="#63b8ff" stroke="#63b8ff" points="949.76,-337.75 946.45,-327.69 942.76,-337.62 949.76,-337.75"/>
</a>
</g>
</g>
<!-- Node3 -->
<g id="Node000003" class="node">
<title>Node3</title>
<g id="a_Node000003"><a xlink:href="app_8c.html#ac6e5d2c212d98987ebac3fdf431f3d72" target="_top" xlink:title=" ">
<polygon fill="white" stroke="#666666" points="773.75,-512.75 706,-512.75 706,-492 773.75,-492 773.75,-512.75"/>
<text text-anchor="middle" x="739.88" y="-499.25" font-family="Helvetica,sans-Serif" font-size="10.00">w2c__f203</text>
</a>
</g>
</g>
<!-- Node1&#45;&gt;Node3 -->
<g id="edge2_Node000001_Node000003" class="edge">
<title>Node1&#45;&gt;Node3</title>
<g id="a_edge2_Node000001_Node000003"><a xlink:title=" ">
<path fill="none" stroke="#63b8ff" d="M943,-337.31C934.56,-388.96 910.8,-515.74 877.5,-540.38 839.1,-568.78 780.44,-532.31 754.28,-512.98"/>
<polygon fill="#63b8ff" stroke="#63b8ff" points="946.42,-338.09 944.53,-327.66 939.51,-336.99 946.42,-338.09"/>
</a>
</g>
</g>
<!-- Node6 -->
<g id="Node000006" class="node">
<title>Node6</title>
<g id="a_Node000006"><a xlink:href="app_8c.html#ac33f7fe7abe076e97dc158576d1c5e0e" target="_top" xlink:title=" ">
<polygon fill="white" stroke="#666666" points="566.25,-421.75 498.5,-421.75 498.5,-401 566.25,-401 566.25,-421.75"/>
<text text-anchor="middle" x="532.38" y="-408.25" font-family="Helvetica,sans-Serif" font-size="10.00">w2c__f216</text>
</a>
</g>
</g>
<!-- Node1&#45;&gt;Node6 -->
<g id="edge5_Node000001_Node000006" class="edge">
<title>Node1&#45;&gt;Node6</title>
<g id="a_edge5_Node000001_Node000006"><a xlink:title=" ">
<path fill="none" stroke="#63b8ff" d="M929.84,-334.08C916.96,-347.35 897.9,-364.34 877.5,-373.38 771.43,-420.36 629.7,-418.1 566.37,-414.14"/>
<polygon fill="#63b8ff" stroke="#63b8ff" points="932.06,-336.83 936.32,-327.13 926.94,-332.05 932.06,-336.83"/>
</a>
</g>
</g>
<!-- Node7 -->
<g id="Node000007" class="node">
<title>Node7</title>
<g id="a_Node000007"><a xlink:href="app_8c.html#aac449994afd8488e2efd16fb19f0ecb1" target="_top" xlink:title=" ">
<polygon fill="white" stroke="#666666" points="358.75,-269.75 291,-269.75 291,-249 358.75,-249 358.75,-269.75"/>
<text text-anchor="middle" x="324.88" y="-256.25" font-family="Helvetica,sans-Serif" font-size="10.00">w2c__f336</text>
</a>
</g>
</g>
<!-- Node1&#45;&gt;Node7 -->
<g id="edge19_Node000001_Node000007" class="edge">
<title>Node1&#45;&gt;Node7</title>
<g id="a_edge19_Node000001_Node000007"><a xlink:title=" ">
<path fill="none" stroke="#63b8ff" d="M934.68,-336.07C922.77,-355.2 902.53,-382.94 877.5,-398.38 859.01,-409.78 644.12,-449.38 637.12,-449.38 637.12,-449.38 637.12,-449.38 531.38,-449.38 468.58,-449.38 442.62,-454.02 394.75,-413.38 348.76,-374.33 332.19,-298.4 327.47,-270.24"/>
<polygon fill="#63b8ff" stroke="#63b8ff" points="937.67,-337.89 939.78,-327.51 931.65,-334.3 937.67,-337.89"/>
</a>
</g>
</g>
<!-- Node13 -->
<g id="Node000013" class="node">
<title>Node13</title>
<g id="a_Node000013"><a xlink:href="app_8c.html#aa3051a0f0feb078aee84a108594b3b11" target="_top" xlink:title=" ">
<polygon fill="white" stroke="#666666" points="773.75,-249.75 706,-249.75 706,-229 773.75,-229 773.75,-249.75"/>
<text text-anchor="middle" x="739.88" y="-236.25" font-family="Helvetica,sans-Serif" font-size="10.00">w2c__f245</text>
</a>
</g>
</g>
<!-- Node1&#45;&gt;Node13 -->
<g id="edge12_Node000001_Node000013" class="edge">
<title>Node1&#45;&gt;Node13</title>
<g id="a_edge12_Node000001_Node000013"><a xlink:title=" ">
<path fill="none" stroke="#63b8ff" d="M906.67,-300.69C866.66,-285.89 805.85,-263.41 770.07,-250.17"/>
<polygon fill="#63b8ff" stroke="#63b8ff" points="905.35,-303.94 915.95,-304.12 907.78,-297.37 905.35,-303.94"/>
</a>
</g>
</g>
<!-- Node14 -->
<g id="Node000014" class="node">
<title>Node14</title>
<g id="a_Node000014"><a xlink:href="app_8c.html#a6ee5e8bb6474c76cb6fbf0253e90181b" target="_top" xlink:title=" ">
<polygon fill="white" stroke="#666666" points="877.5,-645.75 809.75,-645.75 809.75,-625 877.5,-625 877.5,-645.75"/>
<text text-anchor="middle" x="843.62" y="-632.25" font-family="Helvetica,sans-Serif" font-size="10.00">w2c__f277</text>
</a>
</g>
</g>
<!-- Node1&#45;&gt;Node14 -->
<g id="edge14_Node000001_Node000014" class="edge">
<title>Node1&#45;&gt;Node14</title>
<g id="a_edge14_Node000001_Node000014"><a xlink:title=" ">
<path fill="none" stroke="#63b8ff" d="M946.32,-337.55C945.18,-389.72 936.27,-522.53 877.5,-611.38 874.07,-616.56 869.11,-621.02 864.08,-624.63"/>
<polygon fill="#63b8ff" stroke="#63b8ff" points="949.82,-337.66 946.45,-327.61 942.82,-337.57 949.82,-337.66"/>
</a>
</g>
</g>
<!-- Node15 -->
<g id="Node000015" class="node">
<title>Node15</title>
<g id="a_Node000015"><a xlink:href="app_8c.html#af40ca2dd6f2ed281f7e739d260fc1d8a" target="_top" xlink:title=" ">
<polygon fill="white" stroke="#666666" points="877.5,-531.75 809.75,-531.75 809.75,-511 877.5,-511 877.5,-531.75"/>
<text text-anchor="middle" x="843.62" y="-518.25" font-family="Helvetica,sans-Serif" font-size="10.00">w2c__f283</text>
</a>
</g>
</g>
<!-- Node1&#45;&gt;Node15 -->
<g id="edge16_Node000001_Node000015" class="edge">
<title>Node1&#45;&gt;Node15</title>
<g id="a_edge16_Node000001_Node000015"><a xlink:title=" ">
<path fill="none" stroke="#63b8ff" d="M943.16,-336.8C936.65,-373.98 918.83,-451.25 877.5,-501.38 874.61,-504.88 870.94,-507.93 867.1,-510.53"/>
<polygon fill="#63b8ff" stroke="#63b8ff" points="946.55,-337.76 944.71,-327.32 939.65,-336.63 946.55,-337.76"/>
</a>
</g>
</g>
<!-- Node16 -->
<g id="Node000016" class="node">
<title>Node16</title>
<g id="a_Node000016"><a xlink:href="app_8c.html#aca81d58bec14bd53aa373f195aabfaac" target="_top" xlink:title=" ">
<polygon fill="white" stroke="#666666" points="877.5,-59.75 809.75,-59.75 809.75,-39 877.5,-39 877.5,-59.75"/>
<text text-anchor="middle" x="843.62" y="-46.25" font-family="Helvetica,sans-Serif" font-size="10.00">w2c__f334</text>
</a>
</g>
</g>
<!-- Node1&#45;&gt;Node16 -->
<g id="edge18_Node000001_Node000016" class="edge">
<title>Node1&#45;&gt;Node16</title>
<g id="a_edge18_Node000001_Node000016"><a xlink:title=" ">
<path fill="none" stroke="#63b8ff" d="M944.87,-293.37C940.84,-248.27 926.48,-143.65 877.5,-73.38 873.94,-68.27 868.95,-63.84 863.92,-60.23"/>
<polygon fill="#63b8ff" stroke="#63b8ff" points="941.37,-293.47 945.65,-303.16 948.35,-292.91 941.37,-293.47"/>
</a>
</g>
</g>
<!-- Node17 -->
<g id="Node000017" class="node">
<title>Node17</title>
<g id="a_Node000017"><a xlink:href="app_8c.html#a756ffb69db4b9fa49d002e2126559e28" target="_top" xlink:title=" ">
<polygon fill="white" stroke="#666666" points="877.5,-249.75 809.75,-249.75 809.75,-229 877.5,-229 877.5,-249.75"/>
<text text-anchor="middle" x="843.62" y="-236.25" font-family="Helvetica,sans-Serif" font-size="10.00">w2c__f346</text>
</a>
</g>
</g>
<!-- Node1&#45;&gt;Node17 -->
<g id="edge20_Node000001_Node000017" class="edge">
<title>Node1&#45;&gt;Node17</title>
<g id="a_edge20_Node000001_Node000017"><a xlink:title=" ">
<path fill="none" stroke="#63b8ff" d="M923.22,-297.74C909.89,-287.63 892.79,-274.73 877.5,-263.38 871.6,-258.99 865.07,-254.21 859.39,-250.08"/>
<polygon fill="#63b8ff" stroke="#63b8ff" points="920.89,-300.38 930.97,-303.64 925.13,-294.8 920.89,-300.38"/>
</a>
</g>
</g>
<!-- Node18 -->
<g id="Node000018" class="node">
<title>Node18</title>
<g id="a_Node000018"><a xlink:href="app_8c.html#a27ec3034e861eede96fabd221dec28d1" target="_top" xlink:title=" ">
<polygon fill="white" stroke="#666666" points="773.75,-192.75 706,-192.75 706,-172 773.75,-172 773.75,-192.75"/>
<text text-anchor="middle" x="739.88" y="-179.25" font-family="Helvetica,sans-Serif" font-size="10.00">w2c__f554</text>
</a>
</g>
</g>
<!-- Node1&#45;&gt;Node18 -->
<g id="edge46_Node000001_Node000018" class="edge">
<title>Node1&#45;&gt;Node18</title>
<g id="a_edge46_Node000001_Node000018"><a xlink:title=" ">
<path fill="none" stroke="#63b8ff" d="M936.61,-294.57C925.36,-272.86 904.85,-239.38 877.5,-220.38 846.47,-198.81 803.53,-189.44 774.12,-185.4"/>
<polygon fill="#63b8ff" stroke="#63b8ff" points="933.39,-295.95 940.96,-303.36 939.66,-292.85 933.39,-295.95"/>
</a>
</g>
</g>
<!-- Node19 -->
<g id="Node000019" class="node">
<title>Node19</title>
<g id="a_Node000019"><a xlink:href="app_8c.html#af9ed1dc0404f752fd735c5388877dbd0" target="_top" xlink:title=" ">
<polygon fill="white" stroke="#666666" points="877.5,-364.75 809.75,-364.75 809.75,-344 877.5,-344 877.5,-364.75"/>
<text text-anchor="middle" x="843.62" y="-351.25" font-family="Helvetica,sans-Serif" font-size="10.00">w2c__f378</text>
</a>
</g>
</g>
<!-- Node1&#45;&gt;Node19 -->
<g id="edge24_Node000001_Node000019" class="edge">
<title>Node1&#45;&gt;Node19</title>
<g id="a_edge24_Node000001_Node000019"><a xlink:title=" ">
<path fill="none" stroke="#63b8ff" d="M907.35,-330.33C895.85,-334.74 883.49,-339.48 872.82,-343.57"/>
<polygon fill="#63b8ff" stroke="#63b8ff" points="908.53,-333.63 916.62,-326.78 906.03,-327.09 908.53,-333.63"/>
</a>
</g>
</g>
<!-- Node22 -->
<g id="Node000022" class="node">
<title>Node22</title>
<g id="a_Node000022"><a xlink:href="app_8c.html#a0c562e3dfa1b94ed5c252e9e3292cdd9" target="_top" xlink:title=" ">
<polygon fill="white" stroke="#666666" points="773.75,-135.75 706,-135.75 706,-115 773.75,-115 773.75,-135.75"/>
<text text-anchor="middle" x="739.88" y="-122.25" font-family="Helvetica,sans-Serif" font-size="10.00">w2c__f398</text>
</a>
</g>
</g>
<!-- Node1&#45;&gt;Node22 -->
<g id="edge30_Node000001_Node000022" class="edge">
<title>Node1&#45;&gt;Node22</title>
<g id="a_edge30_Node000001_Node000022"><a xlink:title=" ">
<path fill="none" stroke="#63b8ff" d="M944.46,-293.83C939.94,-256.81 925.09,-181.54 877.5,-144.38 848.25,-121.53 804.33,-119.38 774.23,-121.24"/>
<polygon fill="#63b8ff" stroke="#63b8ff" points="940.93,-293.72 945.47,-303.3 947.89,-292.98 940.93,-293.72"/>
</a>
</g>
</g>
<!-- Node26 -->
<g id="Node000026" class="node">
<title>Node26</title>
<g id="a_Node000026"><a xlink:href="app_8c.html#a268eebcea573fce720709e588959d401" target="_top" xlink:title=" ">
<polygon fill="white" stroke="#666666" points="462.5,-97.75 394.75,-97.75 394.75,-77 462.5,-77 462.5,-97.75"/>
<text text-anchor="middle" x="428.62" y="-84.25" font-family="Helvetica,sans-Serif" font-size="10.00">w2c__f568</text>
</a>
</g>
</g>
<!-- Node1&#45;&gt;Node26 -->
<g id="edge47_Node000001_Node000026" class="edge">
<title>Node1&#45;&gt;Node26</title>
<g id="a_edge47_Node000001_Node000026"><a xlink:title=" ">
<path fill="none" stroke="#63b8ff" d="M945.44,-293.53C942.45,-252.51 929.92,-163.92 877.5,-117.38 831.01,-76.1 803.04,-87.38 740.88,-87.38 740.88,-87.38 740.88,-87.38 635.12,-87.38 574.3,-87.38 503.34,-87.38 462.73,-87.38"/>
<polygon fill="#63b8ff" stroke="#63b8ff" points="941.94,-293.56 946.02,-303.34 948.92,-293.15 941.94,-293.56"/>
</a>
</g>
</g>
<!-- Node27 -->
<g id="Node000027" class="node">
<title>Node27</title>
<g id="a_Node000027"><a xlink:href="app_8c.html#a243c366f4be19d5552664f987a05465a" target="_top" xlink:title=" ">
<polygon fill="white" stroke="#666666" points="877.5,-325.75 809.75,-325.75 809.75,-305 877.5,-305 877.5,-325.75"/>
<text text-anchor="middle" x="843.62" y="-312.25" font-family="Helvetica,sans-Serif" font-size="10.00">w2c__f481</text>
</a>
</g>
</g>
<!-- Node1&#45;&gt;Node27 -->
<g id="edge39_Node000001_Node000027" class="edge">
<title>Node1&#45;&gt;Node27</title>
<g id="a_edge39_Node000001_Node000027"><a xlink:title=" ">
<path fill="none" stroke="#63b8ff" d="M901.82,-315.38C893.71,-315.38 885.38,-315.38 877.67,-315.38"/>
<polygon fill="#63b8ff" stroke="#63b8ff" points="901.54,-318.88 911.54,-315.38 901.54,-311.88 901.54,-318.88"/>
</a>
</g>
</g>
<!-- Node28 -->
<g id="Node000028" class="node">
<title>Node28</title>
<g id="a_Node000028"><a xlink:href="app_8c.html#a4a2dc7c913fb7d5b6ad9b75da10bebee" target="_top" xlink:title=" ">
<polygon fill="white" stroke="#666666" points="877.5,-492.75 809.75,-492.75 809.75,-472 877.5,-472 877.5,-492.75"/>
<text text-anchor="middle" x="843.62" y="-479.25" font-family="Helvetica,sans-Serif" font-size="10.00">w2c__f515</text>
</a>
</g>
</g>
<!-- Node1&#45;&gt;Node28 -->
<g id="edge41_Node000001_Node000028" class="edge">
<title>Node1&#45;&gt;Node28</title>
<g id="a_edge41_Node000001_Node000028"><a xlink:title=" ">
<path fill="none" stroke="#63b8ff" d="M939.76,-336.85C929.82,-366.56 908.81,-420.78 877.5,-458.38 873.34,-463.37 867.92,-467.87 862.69,-471.6"/>
<polygon fill="#63b8ff" stroke="#63b8ff" points="943.03,-338.1 942.77,-327.51 936.37,-335.95 943.03,-338.1"/>
</a>
</g>
</g>
<!-- Node29 -->
<g id="Node000029" class="node">
<title>Node29</title>
<g id="a_Node000029"><a xlink:href="app_8c.html#aaa5b5afb90b318cc579a08368392f858" target="_top" xlink:title=" ">
<polygon fill="white" stroke="#666666" points="877.5,-173.75 809.75,-173.75 809.75,-153 877.5,-153 877.5,-173.75"/>
<text text-anchor="middle" x="843.62" y="-160.25" font-family="Helvetica,sans-Serif" font-size="10.00">w2c__f530</text>
</a>
</g>
</g>
<!-- Node1&#45;&gt;Node29 -->
<g id="edge43_Node000001_Node000029" class="edge">
<title>Node1&#45;&gt;Node29</title>
<g id="a_edge43_Node000001_Node000029"><a xlink:title=" ">
<path fill="none" stroke="#63b8ff" d="M938.46,-294.27C927.64,-267.36 906.24,-220.35 877.5,-187.38 873.14,-182.37 867.54,-177.8 862.21,-174.03"/>
<polygon fill="#63b8ff" stroke="#63b8ff" points="935.12,-295.34 942.01,-303.38 941.64,-292.8 935.12,-295.34"/>
</a>
</g>
</g>
<!-- Node30 -->
<g id="Node000030" class="node">
<title>Node30</title>
<g id="a_Node000030"><a xlink:href="app_8c.html#aef5ae1a89492224c17bb0ebb875c84b6" target="_top" xlink:title=" ">
<polygon fill="white" stroke="#666666" points="877.5,-20.75 809.75,-20.75 809.75,0 877.5,0 877.5,-20.75"/>
<text text-anchor="middle" x="843.62" y="-7.25" font-family="Helvetica,sans-Serif" font-size="10.00">w2c__f532</text>
</a>
</g>
</g>
<!-- Node1&#45;&gt;Node30 -->
<g id="edge45_Node000001_Node000030" class="edge">
<title>Node1&#45;&gt;Node30</title>
<g id="a_edge45_Node000001_Node000030"><a xlink:title=" ">
<path fill="none" stroke="#63b8ff" d="M946.56,-293.33C945.92,-242.13 937.96,-113.18 877.5,-30.38 874.9,-26.81 871.46,-23.76 867.77,-21.19"/>
<polygon fill="#63b8ff" stroke="#63b8ff" points="943.06,-293.1 946.59,-303.09 950.06,-293.08 943.06,-293.1"/>
</a>
</g>
</g>
<!-- Node4 -->
<g id="Node000004" class="node">
<title>Node4</title>
<g id="a_Node000004"><a xlink:href="app_8c.html#a0b804502e637fa2897681579fae890af" target="_top" xlink:title=" ">
<polygon fill="white" stroke="#666666" points="670,-507.75 602.25,-507.75 602.25,-487 670,-487 670,-507.75"/>
<text text-anchor="middle" x="636.12" y="-494.25" font-family="Helvetica,sans-Serif" font-size="10.00">w2c__f233</text>
</a>
</g>
</g>
<!-- Node3&#45;&gt;Node4 -->
<g id="edge3_Node000003_Node000004" class="edge">
<title>Node3&#45;&gt;Node4</title>
<g id="a_edge3_Node000003_Node000004"><a xlink:title=" ">
<path fill="none" stroke="#63b8ff" d="M694.32,-500.19C686.21,-499.79 677.88,-499.38 670.17,-499"/>
<polygon fill="#63b8ff" stroke="#63b8ff" points="693.89,-503.67 704.05,-500.66 694.23,-496.68 693.89,-503.67"/>
</a>
</g>
</g>
<!-- Node5 -->
<g id="Node000005" class="node">
<title>Node5</title>
<g id="a_Node000005"><a xlink:href="app_8c.html#a13a282f739b6944dad1977039f3fadde" target="_top" xlink:title=" ">
<polygon fill="white" stroke="#666666" points="670,-546.75 602.25,-546.75 602.25,-526 670,-526 670,-546.75"/>
<text text-anchor="middle" x="636.12" y="-533.25" font-family="Helvetica,sans-Serif" font-size="10.00">w2c__f420</text>
</a>
</g>
</g>
<!-- Node3&#45;&gt;Node5 -->
<g id="edge4_Node000003_Node000005" class="edge">
<title>Node3&#45;&gt;Node5</title>
<g id="a_edge4_Node000003_Node000005"><a xlink:title=" ">
<path fill="none" stroke="#63b8ff" d="M695.62,-516.83C686.91,-519.74 677.9,-522.75 669.64,-525.51"/>
<polygon fill="#63b8ff" stroke="#63b8ff" points="696.59,-520.19 704.97,-513.71 694.37,-513.56 696.59,-520.19"/>
</a>
</g>
</g>
<!-- Node6&#45;&gt;Node7 -->
<g id="edge6_Node000006_Node000007" class="edge">
<title>Node6&#45;&gt;Node7</title>
<g id="a_edge6_Node000006_Node000007"><a xlink:title=" ">
<path fill="none" stroke="#63b8ff" d="M486.83,-413.14C458.09,-412.11 421.26,-406.52 394.75,-387.38 353.43,-357.53 334.43,-295.09 328.26,-270.07"/>
<polygon fill="#63b8ff" stroke="#63b8ff" points="486.63,-416.63 496.69,-413.3 486.74,-409.63 486.63,-416.63"/>
</a>
</g>
</g>
<!-- Node8 -->
<g id="Node000008" class="node">
<title>Node8</title>
<g id="a_Node000008"><a xlink:href="app_8c.html#ac863989691d4c389f80374209c220171" target="_top" xlink:title=" ">
<polygon fill="white" stroke="#666666" points="252.38,-289.75 189.88,-289.75 189.88,-269 252.38,-269 252.38,-289.75"/>
<text text-anchor="middle" x="221.12" y="-276.25" font-family="Helvetica,sans-Serif" font-size="10.00">w2c__c_0</text>
</a>
</g>
</g>
<!-- Node7&#45;&gt;Node8 -->
<g id="edge7_Node000007_Node000008" class="edge">
<title>Node7&#45;&gt;Node8</title>
<g id="a_edge7_Node000007_Node000008"><a xlink:title=" ">
<path fill="none" stroke="#63b8ff" d="M279.4,-268.12C270.41,-269.88 261.15,-271.7 252.76,-273.35"/>
<polygon fill="#63b8ff" stroke="#63b8ff" points="279.94,-271.58 289.07,-266.22 278.59,-264.71 279.94,-271.58"/>
</a>
</g>
</g>
<!-- Node10 -->
<g id="Node000010" class="node">
<title>Node10</title>
<g id="a_Node000010"><a xlink:href="app_8c.html#a8f312e54d76623b1ae169d5d19736ee0" target="_top" xlink:title=" ">
<polygon fill="white" stroke="#666666" points="255,-250.75 187.25,-250.75 187.25,-230 255,-230 255,-250.75"/>
<text text-anchor="middle" x="221.12" y="-237.25" font-family="Helvetica,sans-Serif" font-size="10.00">w2c__f363</text>
</a>
</g>
</g>
<!-- Node7&#45;&gt;Node10 -->
<g id="edge9_Node000007_Node000010" class="edge">
<title>Node7&#45;&gt;Node10</title>
<g id="a_edge9_Node000007_Node000010"><a xlink:title=" ">
<path fill="none" stroke="#63b8ff" d="M279.32,-251.06C271.21,-249.54 262.88,-247.98 255.17,-246.55"/>
<polygon fill="#63b8ff" stroke="#63b8ff" points="278.6,-254.48 289.07,-252.88 279.88,-247.6 278.6,-254.48"/>
</a>
</g>
</g>
<!-- Node9 -->
<g id="Node000009" class="node">
<title>Node9</title>
<g id="a_Node000009"><a xlink:href="app_8c.html#ab1e039392ea68017ab8a6063263b147d" target="_top" xlink:title=" ">
<polygon fill="white" stroke="#666666" points="145.25,-289.75 94,-289.75 94,-269 145.25,-269 145.25,-289.75"/>
<text text-anchor="middle" x="119.62" y="-276.25" font-family="Helvetica,sans-Serif" font-size="10.00">w2c__c</text>
</a>
</g>
</g>
<!-- Node8&#45;&gt;Node9 -->
<g id="edge8_Node000008_Node000009" class="edge">
<title>Node8&#45;&gt;Node9</title>
<g id="a_edge8_Node000008_Node000009"><a xlink:title=" ">
<path fill="none" stroke="#63b8ff" d="M178.21,-279.38C167.15,-279.38 155.55,-279.38 145.68,-279.38"/>
<polygon fill="#63b8ff" stroke="#63b8ff" points="177.95,-282.88 187.95,-279.38 177.95,-275.88 177.95,-282.88"/>
</a>
</g>
</g>
<!-- Node11 -->
<g id="Node000011" class="node">
<title>Node11</title>
<g id="a_Node000011"><a xlink:href="app_8c.html#a26657f10c51f10eeb57a4d27606a6885" target="_top" xlink:title=" ">
<polygon fill="white" stroke="#666666" points="151.25,-250.75 88,-250.75 88,-230 151.25,-230 151.25,-250.75"/>
<text text-anchor="middle" x="119.62" y="-237.25" font-family="Helvetica,sans-Serif" font-size="10.00">w2c__b_0</text>
</a>
</g>
</g>
<!-- Node10&#45;&gt;Node11 -->
<g id="edge10_Node000010_Node000011" class="edge">
<title>Node10&#45;&gt;Node11</title>
<g id="a_edge10_Node000010_Node000011"><a xlink:title=" ">
<path fill="none" stroke="#63b8ff" d="M175.71,-240.38C167.57,-240.38 159.23,-240.38 151.59,-240.38"/>
<polygon fill="#63b8ff" stroke="#63b8ff" points="175.48,-243.88 185.48,-240.38 175.48,-236.88 175.48,-243.88"/>
</a>
</g>
</g>
<!-- Node12 -->
<g id="Node000012" class="node">
<title>Node12</title>
<g id="a_Node000012"><a xlink:href="app_8c.html#a683a2045346c3209e9dac20d55933c7d" target="_top" xlink:title=" ">
<polygon fill="white" stroke="#666666" points="52,-250.75 0,-250.75 0,-230 52,-230 52,-250.75"/>
<text text-anchor="middle" x="26" y="-237.25" font-family="Helvetica,sans-Serif" font-size="10.00">w2c__b</text>
</a>
</g>
</g>
<!-- Node11&#45;&gt;Node12 -->
<g id="edge11_Node000011_Node000012" class="edge">
<title>Node11&#45;&gt;Node12</title>
<g id="a_edge11_Node000011_Node000012"><a xlink:title=" ">
<path fill="none" stroke="#63b8ff" d="M76.21,-240.38C68,-240.38 59.65,-240.38 52.21,-240.38"/>
<polygon fill="#63b8ff" stroke="#63b8ff" points="76.09,-243.88 86.09,-240.38 76.09,-236.88 76.09,-243.88"/>
</a>
</g>
</g>
<!-- Node13&#45;&gt;Node7 -->
<g id="edge13_Node000013_Node000007" class="edge">
<title>Node13&#45;&gt;Node7</title>
<g id="a_edge13_Node000013_Node000007"><a xlink:title=" ">
<path fill="none" stroke="#63b8ff" d="M694.61,-250.38C686.47,-252.01 678.02,-253.45 670,-254.38 556.62,-267.41 420.87,-263.78 359.24,-261.09"/>
<polygon fill="#63b8ff" stroke="#63b8ff" points="695.29,-253.81 704.34,-248.29 693.83,-246.97 695.29,-253.81"/>
</a>
</g>
</g>
<!-- Node14&#45;&gt;Node2 -->
<g id="edge15_Node000014_Node000002" class="edge">
<title>Node14&#45;&gt;Node2</title>
<g id="a_edge15_Node000014_Node000002"><a xlink:title=" ">
<path fill="none" stroke="#63b8ff" d="M798.07,-627.06C789.96,-625.54 781.63,-623.98 773.92,-622.55"/>
<polygon fill="#63b8ff" stroke="#63b8ff" points="797.35,-630.48 807.82,-628.88 798.63,-623.6 797.35,-630.48"/>
</a>
</g>
</g>
<!-- Node15&#45;&gt;Node3 -->
<g id="edge17_Node000015_Node000003" class="edge">
<title>Node15&#45;&gt;Node3</title>
<g id="a_edge17_Node000015_Node000003"><a xlink:title=" ">
<path fill="none" stroke="#63b8ff" d="M798.07,-513.06C789.96,-511.54 781.63,-509.98 773.92,-508.55"/>
<polygon fill="#63b8ff" stroke="#63b8ff" points="797.35,-516.48 807.82,-514.88 798.63,-509.6 797.35,-516.48"/>
</a>
</g>
</g>
<!-- Node17&#45;&gt;Node18 -->
<g id="edge21_Node000017_Node000018" class="edge">
<title>Node17&#45;&gt;Node18</title>
<g id="a_edge21_Node000017_Node000018"><a xlink:title=" ">
<path fill="none" stroke="#63b8ff" d="M813.47,-223.04C796.4,-213.48 775.31,-201.67 760.27,-193.24"/>
<polygon fill="#63b8ff" stroke="#63b8ff" points="811.73,-226.08 822.17,-227.91 815.15,-219.97 811.73,-226.08"/>
</a>
</g>
</g>
<!-- Node18&#45;&gt;Node7 -->
<g id="edge22_Node000018_Node000007" class="edge">
<title>Node18&#45;&gt;Node7</title>
<g id="a_edge22_Node000018_Node000007"><a xlink:title=" ">
<path fill="none" stroke="#63b8ff" d="M694.68,-190.61C611.44,-206.13 433.14,-239.38 359.13,-253.17"/>
<polygon fill="#63b8ff" stroke="#63b8ff" points="695.1,-194.1 704.29,-188.82 693.82,-187.22 695.1,-194.1"/>
</a>
</g>
</g>
<!-- Node18&#45;&gt;Node18 -->
<g id="edge23_Node000018_Node000018" class="edge">
<title>Node18&#45;&gt;Node18</title>
<g id="a_edge23_Node000018_Node000018"><a xlink:title=" ">
<path fill="none" stroke="#63b8ff" d="M757.91,-204.56C755.36,-208.23 749.35,-210.75 739.88,-210.75 722.04,-210.75 716.47,-201.81 723.16,-193.15"/>
<polygon fill="#63b8ff" stroke="#63b8ff" points="761.39,-204.18 756.77,-194.65 754.44,-204.99 761.39,-204.18"/>
</a>
</g>
</g>
<!-- Node19&#45;&gt;Node3 -->
<g id="edge25_Node000019_Node000003" class="edge">
<title>Node19&#45;&gt;Node3</title>
<g id="a_edge25_Node000019_Node000003"><a xlink:title=" ">
<path fill="none" stroke="#63b8ff" d="M828.98,-374.22C807.12,-406.02 765,-467.28 748.13,-491.83"/>
<polygon fill="#63b8ff" stroke="#63b8ff" points="831.67,-376.49 834.45,-366.27 825.9,-372.52 831.67,-376.49"/>
</a>
</g>
</g>
<!-- Node19&#45;&gt;Node7 -->
<g id="edge28_Node000019_Node000007" class="edge">
<title>Node19&#45;&gt;Node7</title>
<g id="a_edge28_Node000019_Node000007"><a xlink:title=" ">
<path fill="none" stroke="#63b8ff" d="M797.88,-360.91C756.33,-366.4 692.68,-373.38 637.12,-373.38 637.12,-373.38 637.12,-373.38 531.38,-373.38 446.51,-373.38 363.89,-298.12 335.89,-269.9"/>
<polygon fill="#63b8ff" stroke="#63b8ff" points="798.31,-364.38 807.75,-359.57 797.37,-357.44 798.31,-364.38"/>
</a>
</g>
</g>
<!-- Node20 -->
<g id="Node000020" class="node">
<title>Node20</title>
<g id="a_Node000020"><a xlink:href="app_8c.html#abbf857a88f7c54684871b047308367f6" target="_top" xlink:title=" ">
<polygon fill="white" stroke="#666666" points="773.75,-327.75 706,-327.75 706,-307 773.75,-307 773.75,-327.75"/>
<text text-anchor="middle" x="739.88" y="-314.25" font-family="Helvetica,sans-Serif" font-size="10.00">w2c__f241</text>
</a>
</g>
</g>
<!-- Node19&#45;&gt;Node20 -->
<g id="edge26_Node000019_Node000020" class="edge">
<title>Node19&#45;&gt;Node20</title>
<g id="a_edge26_Node000019_Node000020"><a xlink:title=" ">
<path fill="none" stroke="#63b8ff" d="M802.19,-339.67C791.59,-335.82 780.35,-331.73 770.44,-328.13"/>
<polygon fill="#63b8ff" stroke="#63b8ff" points="800.9,-342.93 811.5,-343.06 803.3,-336.35 800.9,-342.93"/>
</a>
</g>
</g>
<!-- Node21 -->
<g id="Node000021" class="node">
<title>Node21</title>
<g id="a_Node000021"><a xlink:href="app_8c.html#a268b60212628807c2db6e610cc050144" target="_top" xlink:title=" ">
<polygon fill="white" stroke="#666666" points="773.75,-288.75 706,-288.75 706,-268 773.75,-268 773.75,-288.75"/>
<text text-anchor="middle" x="739.88" y="-275.25" font-family="Helvetica,sans-Serif" font-size="10.00">w2c__f351</text>
</a>
</g>
</g>
<!-- Node19&#45;&gt;Node21 -->
<g id="edge29_Node000019_Node000021" class="edge">
<title>Node19&#45;&gt;Node21</title>
<g id="a_edge29_Node000019_Node000021"><a xlink:title=" ">
<path fill="none" stroke="#63b8ff" d="M813.84,-337.43C812.43,-336.43 811.06,-335.41 809.75,-334.38 791.96,-320.4 791.54,-312.35 773.75,-298.38 769.55,-295.07 764.76,-291.88 760.17,-289.05"/>
<polygon fill="#63b8ff" stroke="#63b8ff" points="811.8,-340.28 822.07,-342.86 815.65,-334.43 811.8,-340.28"/>
</a>
</g>
</g>
<!-- Node20&#45;&gt;Node20 -->
<g id="edge27_Node000020_Node000020" class="edge">
<title>Node20&#45;&gt;Node20</title>
<g id="a_edge27_Node000020_Node000020"><a xlink:title=" ">
<path fill="none" stroke="#63b8ff" d="M757.91,-339.56C755.36,-343.23 749.35,-345.75 739.88,-345.75 722.04,-345.75 716.47,-336.81 723.16,-328.15"/>
<polygon fill="#63b8ff" stroke="#63b8ff" points="761.39,-339.18 756.77,-329.65 754.44,-339.99 761.39,-339.18"/>
</a>
</g>
</g>
<!-- Node22&#45;&gt;Node22 -->
<g id="edge31_Node000022_Node000022" class="edge">
<title>Node22&#45;&gt;Node22</title>
<g id="a_edge31_Node000022_Node000022"><a xlink:title=" ">
<path fill="none" stroke="#63b8ff" d="M757.91,-147.56C755.36,-151.23 749.35,-153.75 739.88,-153.75 722.04,-153.75 716.47,-144.81 723.16,-136.15"/>
<polygon fill="#63b8ff" stroke="#63b8ff" points="761.39,-147.18 756.77,-137.65 754.44,-147.99 761.39,-147.18"/>
</a>
</g>
</g>
<!-- Node23 -->
<g id="Node000023" class="node">
<title>Node23</title>
<g id="a_Node000023"><a xlink:href="app_8c.html#a73bc9653d585d26dc44456eaf4998ba5" target="_top" xlink:title=" ">
<polygon fill="white" stroke="#666666" points="670,-136.75 602.25,-136.75 602.25,-116 670,-116 670,-136.75"/>
<text text-anchor="middle" x="636.12" y="-123.25" font-family="Helvetica,sans-Serif" font-size="10.00">w2c__f513</text>
</a>
</g>
</g>
<!-- Node22&#45;&gt;Node23 -->
<g id="edge32_Node000022_Node000023" class="edge">
<title>Node22&#45;&gt;Node23</title>
<g id="a_edge32_Node000022_Node000023"><a xlink:title=" ">
<path fill="none" stroke="#63b8ff" d="M694.32,-125.81C686.21,-125.89 677.88,-125.97 670.17,-126.05"/>
<polygon fill="#63b8ff" stroke="#63b8ff" points="694.08,-129.32 704.04,-125.72 694.01,-122.32 694.08,-129.32"/>
</a>
</g>
</g>
<!-- Node23&#45;&gt;Node7 -->
<g id="edge33_Node000023_Node000007" class="edge">
<title>Node23&#45;&gt;Node7</title>
<g id="a_edge33_Node000023_Node000007"><a xlink:title=" ">
<path fill="none" stroke="#63b8ff" d="M597.47,-141.33C549.93,-160.37 465.76,-194.62 394.75,-226.38 378.89,-233.47 361.23,-241.94 347.76,-248.53"/>
<polygon fill="#63b8ff" stroke="#63b8ff" points="598.5,-144.69 606.48,-137.72 595.9,-138.18 598.5,-144.69"/>
</a>
</g>
</g>
<!-- Node24 -->
<g id="Node000024" class="node">
<title>Node24</title>
<g id="a_Node000024"><a xlink:href="app_8c.html#a850a9c260115672f978d3685bca1703b" target="_top" xlink:title=" ">
<polygon fill="white" stroke="#666666" points="566.25,-136.75 498.5,-136.75 498.5,-116 566.25,-116 566.25,-136.75"/>
<text text-anchor="middle" x="532.38" y="-123.25" font-family="Helvetica,sans-Serif" font-size="10.00">w2c__f540</text>
</a>
</g>
</g>
<!-- Node23&#45;&gt;Node24 -->
<g id="edge34_Node000023_Node000024" class="edge">
<title>Node23&#45;&gt;Node24</title>
<g id="a_edge34_Node000023_Node000024"><a xlink:title=" ">
<path fill="none" stroke="#63b8ff" d="M590.57,-126.38C582.46,-126.38 574.13,-126.38 566.42,-126.38"/>
<polygon fill="#63b8ff" stroke="#63b8ff" points="590.29,-129.88 600.29,-126.38 590.29,-122.88 590.29,-129.88"/>
</a>
</g>
</g>
<!-- Node24&#45;&gt;Node7 -->
<g id="edge35_Node000024_Node000007" class="edge">
<title>Node24&#45;&gt;Node7</title>
<g id="a_edge35_Node000024_Node000007"><a xlink:title=" ">
<path fill="none" stroke="#63b8ff" d="M488.25,-141.15C460.2,-151.88 423.61,-168.06 394.75,-188.38 369.75,-205.97 346.22,-233.42 334.2,-248.52"/>
<polygon fill="#63b8ff" stroke="#63b8ff" points="489.37,-144.47 497.51,-137.69 486.92,-137.91 489.37,-144.47"/>
</a>
</g>
</g>
<!-- Node25 -->
<g id="Node000025" class="node">
<title>Node25</title>
<g id="a_Node000025"><a xlink:href="app_8c.html#aa3f7fb2ace6a87e61320ef7401dfd66f" target="_top" xlink:title=" ">
<polygon fill="white" stroke="#666666" points="462.5,-136.75 394.75,-136.75 394.75,-116 462.5,-116 462.5,-136.75"/>
<text text-anchor="middle" x="428.62" y="-123.25" font-family="Helvetica,sans-Serif" font-size="10.00">w2c__f489</text>
</a>
</g>
</g>
<!-- Node24&#45;&gt;Node25 -->
<g id="edge36_Node000024_Node000025" class="edge">
<title>Node24&#45;&gt;Node25</title>
<g id="a_edge36_Node000024_Node000025"><a xlink:title=" ">
<path fill="none" stroke="#63b8ff" d="M486.82,-126.38C478.71,-126.38 470.38,-126.38 462.67,-126.38"/>
<polygon fill="#63b8ff" stroke="#63b8ff" points="486.54,-129.88 496.54,-126.38 486.54,-122.88 486.54,-129.88"/>
</a>
</g>
</g>
<!-- Node24&#45;&gt;Node26 -->
<g id="edge38_Node000024_Node000026" class="edge">
<title>Node24&#45;&gt;Node26</title>
<g id="a_edge38_Node000024_Node000026"><a xlink:title=" ">
<path fill="none" stroke="#63b8ff" d="M492.35,-111.42C480.85,-107.01 468.49,-102.27 457.82,-98.18"/>
<polygon fill="#63b8ff" stroke="#63b8ff" points="491.03,-114.66 501.62,-114.97 493.53,-108.12 491.03,-114.66"/>
</a>
</g>
</g>
<!-- Node25&#45;&gt;Node7 -->
<g id="edge37_Node000025_Node000007" class="edge">
<title>Node25&#45;&gt;Node7</title>
<g id="a_edge37_Node000025_Node000007"><a xlink:title=" ">
<path fill="none" stroke="#63b8ff" d="M401.22,-144.23C398.93,-146.19 396.73,-148.25 394.75,-150.38 365.24,-181.93 341.08,-227.86 330.97,-248.55"/>
<polygon fill="#63b8ff" stroke="#63b8ff" points="403.3,-147.04 409.05,-138.14 399,-141.52 403.3,-147.04"/>
</a>
</g>
</g>
<!-- Node27&#45;&gt;Node13 -->
<g id="edge40_Node000027_Node000013" class="edge">
<title>Node27&#45;&gt;Node13</title>
<g id="a_edge40_Node000027_Node000013"><a xlink:title=" ">
<path fill="none" stroke="#63b8ff" d="M818.26,-297.99C815.36,-295.81 812.47,-293.57 809.75,-291.38 793.09,-277.94 790.96,-272.1 773.75,-259.38 769.45,-256.2 764.63,-253.05 760.03,-250.23"/>
<polygon fill="#63b8ff" stroke="#63b8ff" points="815.99,-300.67 826.12,-303.78 820.15,-295.03 815.99,-300.67"/>
</a>
</g>
</g>
<!-- Node28&#45;&gt;Node3 -->
<g id="edge42_Node000028_Node000003" class="edge">
<title>Node28&#45;&gt;Node3</title>
<g id="a_edge42_Node000028_Node000003"><a xlink:title=" ">
<path fill="none" stroke="#63b8ff" d="M798.07,-491.13C789.96,-492.73 781.63,-494.37 773.92,-495.88"/>
<polygon fill="#63b8ff" stroke="#63b8ff" points="798.69,-494.58 807.82,-489.22 797.34,-487.71 798.69,-494.58"/>
</a>
</g>
</g>
<!-- Node29&#45;&gt;Node22 -->
<g id="edge44_Node000029_Node000022" class="edge">
<title>Node29&#45;&gt;Node22</title>
<g id="a_edge44_Node000029_Node000022"><a xlink:title=" ">
<path fill="none" stroke="#63b8ff" d="M803.01,-148.58C791.96,-144.45 780.15,-140.04 769.83,-136.19"/>
<polygon fill="#63b8ff" stroke="#63b8ff" points="801.73,-151.84 812.32,-152.06 804.18,-145.28 801.73,-151.84"/>
</a>
</g>
</g>
</g>
</svg>
