<?xml version="1.0" encoding="UTF-8" standalone="no"?>
<!DOCTYPE svg PUBLIC "-//W3C//DTD SVG 1.1//EN"
 "http://www.w3.org/Graphics/SVG/1.1/DTD/svg11.dtd">
<!-- Generated by graphviz version 12.2.1 (0)
 -->
<!-- Title: w2c__f324 Pages: 1 -->
<svg width="698pt" height="352pt"
 viewBox="0.00 0.00 698.25 351.75" xmlns="http://www.w3.org/2000/svg" xmlns:xlink="http://www.w3.org/1999/xlink">
<g id="graph0" class="graph" transform="scale(1 1) rotate(0) translate(4 347.75)">
<title>w2c__f324</title>
<!-- Node1 -->
<g id="Node000001" class="node">
<title>Node1</title>
<g id="a_Node000001"><a xlink:title=" ">
<polygon fill="#999999" stroke="#666666" points="67.75,-171.75 0,-171.75 0,-151 67.75,-151 67.75,-171.75"/>
<text text-anchor="middle" x="33.88" y="-158.25" font-family="Helvetica,sans-Serif" font-size="10.00">w2c__f324</text>
</a>
</g>
</g>
<!-- Node2 -->
<g id="Node000002" class="node">
<title>Node2</title>
<g id="a_Node000002"><a xlink:href="app_8c.html#a0378208e0d5c0d1d6e7370f1c578fab3" target="_top" xlink:title=" ">
<polygon fill="white" stroke="#666666" points="586.5,-228.75 518.75,-228.75 518.75,-208 586.5,-208 586.5,-228.75"/>
<text text-anchor="middle" x="552.62" y="-215.25" font-family="Helvetica,sans-Serif" font-size="10.00">w2c__f216</text>
</a>
</g>
</g>
<!-- Node1&#45;&gt;Node2 -->
<g id="edge1_Node000001_Node000002" class="edge">
<title>Node1&#45;&gt;Node2</title>
<g id="a_edge1_Node000001_Node000002"><a xlink:title=" ">
<path fill="none" stroke="#63b8ff" d="M68.25,-166.37C108.83,-172 179.47,-180.38 240.38,-180.38 240.38,-180.38 240.38,-180.38 346.12,-180.38 402.5,-180.38 466.15,-194.38 507.48,-205.38"/>
<polygon fill="#63b8ff" stroke="#63b8ff" points="506.49,-208.74 517.05,-207.99 508.33,-201.98 506.49,-208.74"/>
</a>
</g>
</g>
<!-- Node4 -->
<g id="Node000004" class="node">
<title>Node4</title>
<g id="a_Node000004"><a xlink:href="app_8c.html#aaca5d5bcf49f2ca74019cf097750b9f3" target="_top" xlink:title=" ">
<polygon fill="white" stroke="#666666" points="586.5,-343.75 518.75,-343.75 518.75,-323 586.5,-323 586.5,-343.75"/>
<text text-anchor="middle" x="552.62" y="-330.25" font-family="Helvetica,sans-Serif" font-size="10.00">w2c__f258</text>
</a>
</g>
</g>
<!-- Node1&#45;&gt;Node4 -->
<g id="edge3_Node000001_Node000004" class="edge">
<title>Node1&#45;&gt;Node4</title>
<g id="a_edge3_Node000001_Node000004"><a xlink:title=" ">
<path fill="none" stroke="#63b8ff" d="M40.7,-172.13C61.96,-209.79 139.42,-333.38 240.38,-333.38 240.38,-333.38 240.38,-333.38 346.12,-333.38 401.61,-333.38 465.52,-333.38 507.14,-333.38"/>
<polygon fill="#63b8ff" stroke="#63b8ff" points="507.01,-336.88 517.01,-333.38 507.01,-329.88 507.01,-336.88"/>
</a>
</g>
</g>
<!-- Node6 -->
<g id="Node000006" class="node">
<title>Node6</title>
<g id="a_Node000006"><a xlink:href="app_8c.html#a8ddfdaf7faae4bc857dc43f2691b9dbe" target="_top" xlink:title=" ">
<polygon fill="white" stroke="#666666" points="171.5,-228.75 103.75,-228.75 103.75,-208 171.5,-208 171.5,-228.75"/>
<text text-anchor="middle" x="137.62" y="-215.25" font-family="Helvetica,sans-Serif" font-size="10.00">w2c__f306</text>
</a>
</g>
</g>
<!-- Node1&#45;&gt;Node6 -->
<g id="edge6_Node000001_Node000006" class="edge">
<title>Node1&#45;&gt;Node6</title>
<g id="a_edge6_Node000001_Node000006"><a xlink:title=" ">
<path fill="none" stroke="#63b8ff" d="M54.01,-172.1C69.12,-180.56 90.45,-192.51 107.65,-202.15"/>
<polygon fill="#63b8ff" stroke="#63b8ff" points="105.47,-204.93 115.91,-206.77 108.89,-198.83 105.47,-204.93"/>
</a>
</g>
</g>
<!-- Node12 -->
<g id="Node000012" class="node">
<title>Node12</title>
<g id="a_Node000012"><a xlink:href="app_8c.html#a674f6e81761467d0a8dc6d2a425eda9f" target="_top" xlink:title=" ">
<polygon fill="white" stroke="#666666" points="586.5,-171.75 518.75,-171.75 518.75,-151 586.5,-151 586.5,-171.75"/>
<text text-anchor="middle" x="552.62" y="-158.25" font-family="Helvetica,sans-Serif" font-size="10.00">w2c__f498</text>
</a>
</g>
</g>
<!-- Node1&#45;&gt;Node12 -->
<g id="edge28_Node000001_Node000012" class="edge">
<title>Node1&#45;&gt;Node12</title>
<g id="a_edge28_Node000001_Node000012"><a xlink:title=" ">
<path fill="none" stroke="#63b8ff" d="M68.25,-156.38C108.83,-150.75 179.47,-142.38 240.38,-142.38 240.38,-142.38 240.38,-142.38 346.12,-142.38 401.68,-142.38 465.33,-149.35 506.88,-154.84"/>
<polygon fill="#63b8ff" stroke="#63b8ff" points="506.37,-158.31 516.75,-156.18 507.31,-151.37 506.37,-158.31"/>
</a>
</g>
</g>
<!-- Node13 -->
<g id="Node000013" class="node">
<title>Node13</title>
<g id="a_Node000013"><a xlink:href="app_8c.html#aef40add0dc334cf9fde891ca08feb3af" target="_top" xlink:title=" ">
<polygon fill="white" stroke="#666666" points="171.5,-96.75 103.75,-96.75 103.75,-76 171.5,-76 171.5,-96.75"/>
<text text-anchor="middle" x="137.62" y="-83.25" font-family="Helvetica,sans-Serif" font-size="10.00">w2c__f307</text>
</a>
</g>
</g>
<!-- Node1&#45;&gt;Node13 -->
<g id="edge20_Node000001_Node000013" class="edge">
<title>Node1&#45;&gt;Node13</title>
<g id="a_edge20_Node000001_Node000013"><a xlink:title=" ">
<path fill="none" stroke="#63b8ff" d="M49.45,-150.63C66,-138.43 93.24,-118.36 112.86,-103.89"/>
<polygon fill="#63b8ff" stroke="#63b8ff" points="114.88,-106.75 120.86,-98 110.73,-101.11 114.88,-106.75"/>
</a>
</g>
</g>
<!-- Node17 -->
<g id="Node000017" class="node">
<title>Node17</title>
<g id="a_Node000017"><a xlink:href="app_8c.html#a6400a1d612ef3a2faf5397156806ce7f" target="_top" xlink:title=" ">
<polygon fill="white" stroke="#666666" points="171.5,-57.75 103.75,-57.75 103.75,-37 171.5,-37 171.5,-57.75"/>
<text text-anchor="middle" x="137.62" y="-44.25" font-family="Helvetica,sans-Serif" font-size="10.00">w2c__f450</text>
</a>
</g>
</g>
<!-- Node1&#45;&gt;Node17 -->
<g id="edge25_Node000001_Node000017" class="edge">
<title>Node1&#45;&gt;Node17</title>
<g id="a_edge25_Node000001_Node000017"><a xlink:title=" ">
<path fill="none" stroke="#63b8ff" d="M40.77,-150.74C51.46,-132.14 75.58,-93.23 103.75,-67.38 104.8,-66.41 105.91,-65.47 107.05,-64.55"/>
<polygon fill="#63b8ff" stroke="#63b8ff" points="108.88,-67.54 115.03,-58.91 104.84,-61.82 108.88,-67.54"/>
</a>
</g>
</g>
<!-- Node3 -->
<g id="Node000003" class="node">
<title>Node3</title>
<g id="a_Node000003"><a xlink:href="app_8c.html#a8d9f347f9a643f0ebfb53c4f54578ac4" target="_top" xlink:title=" ">
<polygon fill="white" stroke="#666666" points="690.25,-285.75 622.5,-285.75 622.5,-265 690.25,-265 690.25,-285.75"/>
<text text-anchor="middle" x="656.38" y="-272.25" font-family="Helvetica,sans-Serif" font-size="10.00">w2c__f304</text>
</a>
</g>
</g>
<!-- Node2&#45;&gt;Node3 -->
<g id="edge2_Node000002_Node000003" class="edge">
<title>Node2&#45;&gt;Node3</title>
<g id="a_edge2_Node000002_Node000003"><a xlink:title=" ">
<path fill="none" stroke="#63b8ff" d="M572.76,-229.1C587.87,-237.56 609.2,-249.51 626.4,-259.15"/>
<polygon fill="#63b8ff" stroke="#63b8ff" points="624.22,-261.93 634.66,-263.77 627.64,-255.83 624.22,-261.93"/>
</a>
</g>
</g>
<!-- Node4&#45;&gt;Node3 -->
<g id="edge4_Node000004_Node000003" class="edge">
<title>Node4&#45;&gt;Node3</title>
<g id="a_edge4_Node000004_Node000003"><a xlink:title=" ">
<path fill="none" stroke="#63b8ff" d="M572.29,-322.74C587.54,-314.04 609.35,-301.61 626.8,-291.66"/>
<polygon fill="#63b8ff" stroke="#63b8ff" points="628.22,-294.88 635.17,-286.89 624.75,-288.8 628.22,-294.88"/>
</a>
</g>
</g>
<!-- Node5 -->
<g id="Node000005" class="node">
<title>Node5</title>
<g id="a_Node000005"><a xlink:href="app_8c.html#a881f0b113e93dce3ff52d04b435850f6" target="_top" xlink:title=" ">
<polygon fill="white" stroke="#666666" points="690.25,-343.75 622.5,-343.75 622.5,-323 690.25,-323 690.25,-343.75"/>
<text text-anchor="middle" x="656.38" y="-330.25" font-family="Helvetica,sans-Serif" font-size="10.00">w2c__f491</text>
</a>
</g>
</g>
<!-- Node4&#45;&gt;Node5 -->
<g id="edge5_Node000004_Node000005" class="edge">
<title>Node4&#45;&gt;Node5</title>
<g id="a_edge5_Node000004_Node000005"><a xlink:title=" ">
<path fill="none" stroke="#63b8ff" d="M586.94,-333.38C594.57,-333.38 602.81,-333.38 610.83,-333.38"/>
<polygon fill="#63b8ff" stroke="#63b8ff" points="610.82,-336.88 620.82,-333.38 610.82,-329.88 610.82,-336.88"/>
</a>
</g>
</g>
<!-- Node6&#45;&gt;Node2 -->
<g id="edge7_Node000006_Node000002" class="edge">
<title>Node6&#45;&gt;Node2</title>
<g id="a_edge7_Node000006_Node000002"><a xlink:title=" ">
<path fill="none" stroke="#63b8ff" d="M171.72,-218.38C245.51,-218.38 423.51,-218.38 507,-218.38"/>
<polygon fill="#63b8ff" stroke="#63b8ff" points="506.85,-221.88 516.85,-218.38 506.85,-214.88 506.85,-221.88"/>
</a>
</g>
</g>
<!-- Node7 -->
<g id="Node000007" class="node">
<title>Node7</title>
<g id="a_Node000007"><a xlink:href="app_8c.html#a282da58cdb8a8d86b26b785358ce183a" target="_top" xlink:title=" ">
<polygon fill="white" stroke="#666666" points="275.25,-266.75 207.5,-266.75 207.5,-246 275.25,-246 275.25,-266.75"/>
<text text-anchor="middle" x="241.38" y="-253.25" font-family="Helvetica,sans-Serif" font-size="10.00">w2c__f504</text>
</a>
</g>
</g>
<!-- Node6&#45;&gt;Node7 -->
<g id="edge8_Node000006_Node000007" class="edge">
<title>Node6&#45;&gt;Node7</title>
<g id="a_edge8_Node000006_Node000007"><a xlink:title=" ">
<path fill="none" stroke="#63b8ff" d="M167.51,-229.16C177.82,-233.01 189.63,-237.42 200.69,-241.55"/>
<polygon fill="#63b8ff" stroke="#63b8ff" points="199.41,-244.81 210,-245.03 201.86,-238.25 199.41,-244.81"/>
</a>
</g>
</g>
<!-- Node8 -->
<g id="Node000008" class="node">
<title>Node8</title>
<g id="a_Node000008"><a xlink:href="app_8c.html#a1a8a1d528c65d63a630e19c3a4bdd098" target="_top" xlink:title=" ">
<polygon fill="white" stroke="#666666" points="379,-266.75 311.25,-266.75 311.25,-246 379,-246 379,-266.75"/>
<text text-anchor="middle" x="345.12" y="-253.25" font-family="Helvetica,sans-Serif" font-size="10.00">w2c__f557</text>
</a>
</g>
</g>
<!-- Node7&#45;&gt;Node8 -->
<g id="edge9_Node000007_Node000008" class="edge">
<title>Node7&#45;&gt;Node8</title>
<g id="a_edge9_Node000007_Node000008"><a xlink:title=" ">
<path fill="none" stroke="#63b8ff" d="M275.69,-256.38C283.32,-256.38 291.56,-256.38 299.58,-256.38"/>
<polygon fill="#63b8ff" stroke="#63b8ff" points="299.57,-259.88 309.57,-256.38 299.57,-252.88 299.57,-259.88"/>
</a>
</g>
</g>
<!-- Node9 -->
<g id="Node000009" class="node">
<title>Node9</title>
<g id="a_Node000009"><a xlink:href="app_8c.html#a0f7003812eaf983535ff7979fc047a21" target="_top" xlink:title=" ">
<polygon fill="white" stroke="#666666" points="482.75,-305.75 415,-305.75 415,-285 482.75,-285 482.75,-305.75"/>
<text text-anchor="middle" x="448.88" y="-292.25" font-family="Helvetica,sans-Serif" font-size="10.00">w2c__f353</text>
</a>
</g>
</g>
<!-- Node8&#45;&gt;Node9 -->
<g id="edge10_Node000008_Node000009" class="edge">
<title>Node8&#45;&gt;Node9</title>
<g id="a_edge10_Node000008_Node000009"><a xlink:title=" ">
<path fill="none" stroke="#63b8ff" d="M374.47,-267.24C385.16,-271.34 397.52,-276.08 409.01,-280.48"/>
<polygon fill="#63b8ff" stroke="#63b8ff" points="407.68,-283.72 418.27,-284.03 410.19,-277.18 407.68,-283.72"/>
</a>
</g>
</g>
<!-- Node11 -->
<g id="Node000011" class="node">
<title>Node11</title>
<g id="a_Node000011"><a xlink:href="app_8c.html#ac9cc84763a9c1933e50eedd7a06c17e2" target="_top" xlink:title=" ">
<polygon fill="white" stroke="#666666" points="482.75,-266.75 415,-266.75 415,-246 482.75,-246 482.75,-266.75"/>
<text text-anchor="middle" x="448.88" y="-253.25" font-family="Helvetica,sans-Serif" font-size="10.00">w2c__f480</text>
</a>
</g>
</g>
<!-- Node8&#45;&gt;Node11 -->
<g id="edge14_Node000008_Node000011" class="edge">
<title>Node8&#45;&gt;Node11</title>
<g id="a_edge14_Node000008_Node000011"><a xlink:title=" ">
<path fill="none" stroke="#63b8ff" d="M379.44,-256.38C387.07,-256.38 395.31,-256.38 403.33,-256.38"/>
<polygon fill="#63b8ff" stroke="#63b8ff" points="403.32,-259.88 413.32,-256.38 403.32,-252.88 403.32,-259.88"/>
</a>
</g>
</g>
<!-- Node9&#45;&gt;Node4 -->
<g id="edge11_Node000009_Node000004" class="edge">
<title>Node9&#45;&gt;Node4</title>
<g id="a_edge11_Node000009_Node000004"><a xlink:title=" ">
<path fill="none" stroke="#63b8ff" d="M478.76,-306.16C489.07,-310.01 500.88,-314.42 511.94,-318.55"/>
<polygon fill="#63b8ff" stroke="#63b8ff" points="510.66,-321.81 521.25,-322.03 513.11,-315.25 510.66,-321.81"/>
</a>
</g>
</g>
<!-- Node10 -->
<g id="Node000010" class="node">
<title>Node10</title>
<g id="a_Node000010"><a xlink:href="app_8c.html#a4634342addbde677893ffcb45cf639dd" target="_top" xlink:title=" ">
<polygon fill="white" stroke="#666666" points="586.5,-304.75 518.75,-304.75 518.75,-284 586.5,-284 586.5,-304.75"/>
<text text-anchor="middle" x="552.62" y="-291.25" font-family="Helvetica,sans-Serif" font-size="10.00">w2c__f302</text>
</a>
</g>
</g>
<!-- Node9&#45;&gt;Node10 -->
<g id="edge12_Node000009_Node000010" class="edge">
<title>Node9&#45;&gt;Node10</title>
<g id="a_edge12_Node000009_Node000010"><a xlink:title=" ">
<path fill="none" stroke="#63b8ff" d="M483.19,-295.05C490.82,-294.97 499.06,-294.89 507.08,-294.81"/>
<polygon fill="#63b8ff" stroke="#63b8ff" points="507.1,-298.31 517.07,-294.71 507.03,-291.31 507.1,-298.31"/>
</a>
</g>
</g>
<!-- Node10&#45;&gt;Node3 -->
<g id="edge13_Node000010_Node000003" class="edge">
<title>Node10&#45;&gt;Node3</title>
<g id="a_edge13_Node000010_Node000003"><a xlink:title=" ">
<path fill="none" stroke="#63b8ff" d="M586.94,-288.15C594.66,-286.71 603,-285.16 611.11,-283.64"/>
<polygon fill="#63b8ff" stroke="#63b8ff" points="611.66,-287.1 620.84,-281.82 610.37,-280.22 611.66,-287.1"/>
</a>
</g>
</g>
<!-- Node11&#45;&gt;Node2 -->
<g id="edge15_Node000011_Node000002" class="edge">
<title>Node11&#45;&gt;Node2</title>
<g id="a_edge15_Node000011_Node000002"><a xlink:title=" ">
<path fill="none" stroke="#63b8ff" d="M478.76,-245.59C489.07,-241.74 500.88,-237.33 511.94,-233.2"/>
<polygon fill="#63b8ff" stroke="#63b8ff" points="513.11,-236.5 521.25,-229.72 510.66,-229.94 513.11,-236.5"/>
</a>
</g>
</g>
<!-- Node11&#45;&gt;Node3 -->
<g id="edge18_Node000011_Node000003" class="edge">
<title>Node11&#45;&gt;Node3</title>
<g id="a_edge18_Node000011_Node000003"><a xlink:title=" ">
<path fill="none" stroke="#63b8ff" d="M482.89,-259.43C517.54,-262.63 572.23,-267.69 610.71,-271.25"/>
<polygon fill="#63b8ff" stroke="#63b8ff" points="610.31,-274.72 620.59,-272.16 610.96,-267.75 610.31,-274.72"/>
</a>
</g>
</g>
<!-- Node11&#45;&gt;Node4 -->
<g id="edge16_Node000011_Node000004" class="edge">
<title>Node11&#45;&gt;Node4</title>
<g id="a_edge16_Node000011_Node000004"><a xlink:title=" ">
<path fill="none" stroke="#63b8ff" d="M469.54,-267.23C474.03,-270 478.67,-273.13 482.75,-276.38 500.69,-290.67 500.81,-299.08 518.75,-313.38 520.02,-314.39 521.35,-315.39 522.72,-316.38"/>
<polygon fill="#63b8ff" stroke="#63b8ff" points="520.43,-319.06 530.7,-321.69 524.31,-313.23 520.43,-319.06"/>
</a>
</g>
</g>
<!-- Node11&#45;&gt;Node10 -->
<g id="edge17_Node000011_Node000010" class="edge">
<title>Node11&#45;&gt;Node10</title>
<g id="a_edge17_Node000011_Node000010"><a xlink:title=" ">
<path fill="none" stroke="#63b8ff" d="M478.76,-267.16C489.07,-271.01 500.88,-275.42 511.94,-279.55"/>
<polygon fill="#63b8ff" stroke="#63b8ff" points="510.66,-282.81 521.25,-283.03 513.11,-276.25 510.66,-282.81"/>
</a>
</g>
</g>
<!-- Node11&#45;&gt;Node12 -->
<g id="edge19_Node000011_Node000012" class="edge">
<title>Node11&#45;&gt;Node12</title>
<g id="a_edge19_Node000011_Node000012"><a xlink:title=" ">
<path fill="none" stroke="#63b8ff" d="M461.15,-245.85C478.18,-229.95 510.68,-199.61 531.74,-179.94"/>
<polygon fill="#63b8ff" stroke="#63b8ff" points="533.96,-182.66 538.88,-173.28 529.18,-177.54 533.96,-182.66"/>
</a>
</g>
</g>
<!-- Node13&#45;&gt;Node13 -->
<g id="edge21_Node000013_Node000013" class="edge">
<title>Node13&#45;&gt;Node13</title>
<g id="a_edge21_Node000013_Node000013"><a xlink:title=" ">
<path fill="none" stroke="#63b8ff" d="M120.91,-97.15C114.22,-105.81 119.79,-114.75 137.62,-114.75 147.1,-114.75 153.11,-112.23 155.66,-108.56"/>
<polygon fill="#63b8ff" stroke="#63b8ff" points="159.14,-108.18 154.52,-98.65 152.19,-108.99 159.14,-108.18"/>
</a>
</g>
</g>
<!-- Node14 -->
<g id="Node000014" class="node">
<title>Node14</title>
<g id="a_Node000014"><a xlink:href="app_8c.html#a0a38e411c42b7f55721003b8e8ca0220" target="_top" xlink:title=" ">
<polygon fill="white" stroke="#666666" points="275.25,-96.75 207.5,-96.75 207.5,-76 275.25,-76 275.25,-96.75"/>
<text text-anchor="middle" x="241.38" y="-83.25" font-family="Helvetica,sans-Serif" font-size="10.00">w2c__f584</text>
</a>
</g>
</g>
<!-- Node13&#45;&gt;Node14 -->
<g id="edge22_Node000013_Node000014" class="edge">
<title>Node13&#45;&gt;Node14</title>
<g id="a_edge22_Node000013_Node000014"><a xlink:title=" ">
<path fill="none" stroke="#63b8ff" d="M171.94,-86.38C179.57,-86.38 187.81,-86.38 195.83,-86.38"/>
<polygon fill="#63b8ff" stroke="#63b8ff" points="195.82,-89.88 205.82,-86.38 195.82,-82.88 195.82,-89.88"/>
</a>
</g>
</g>
<!-- Node15 -->
<g id="Node000015" class="node">
<title>Node15</title>
<g id="a_Node000015"><a xlink:href="app_8c.html#ad08eca629615b71460bd69ae96483b21" target="_top" xlink:title=" ">
<polygon fill="white" stroke="#666666" points="379,-97.75 311.25,-97.75 311.25,-77 379,-77 379,-97.75"/>
<text text-anchor="middle" x="345.12" y="-84.25" font-family="Helvetica,sans-Serif" font-size="10.00">w2c__f327</text>
</a>
</g>
</g>
<!-- Node14&#45;&gt;Node15 -->
<g id="edge23_Node000014_Node000015" class="edge">
<title>Node14&#45;&gt;Node15</title>
<g id="a_edge23_Node000014_Node000015"><a xlink:title=" ">
<path fill="none" stroke="#63b8ff" d="M275.69,-86.7C283.32,-86.78 291.56,-86.86 299.58,-86.94"/>
<polygon fill="#63b8ff" stroke="#63b8ff" points="299.53,-90.44 309.57,-87.04 299.6,-83.44 299.53,-90.44"/>
</a>
</g>
</g>
<!-- Node16 -->
<g id="Node000016" class="node">
<title>Node16</title>
<g id="a_Node000016"><a xlink:href="app_8c.html#ab78a9ba6819f5a9d3b53302097151d33" target="_top" xlink:title=" ">
<polygon fill="white" stroke="#666666" points="379,-58.75 311.25,-58.75 311.25,-38 379,-38 379,-58.75"/>
<text text-anchor="middle" x="345.12" y="-45.25" font-family="Helvetica,sans-Serif" font-size="10.00">w2c__f481</text>
</a>
</g>
</g>
<!-- Node14&#45;&gt;Node16 -->
<g id="edge24_Node000014_Node000016" class="edge">
<title>Node14&#45;&gt;Node16</title>
<g id="a_edge24_Node000014_Node000016"><a xlink:title=" ">
<path fill="none" stroke="#63b8ff" d="M271.26,-75.59C281.57,-71.74 293.38,-67.33 304.44,-63.2"/>
<polygon fill="#63b8ff" stroke="#63b8ff" points="305.61,-66.5 313.75,-59.72 303.16,-59.94 305.61,-66.5"/>
</a>
</g>
</g>
<!-- Node17&#45;&gt;Node16 -->
<g id="edge26_Node000017_Node000016" class="edge">
<title>Node17&#45;&gt;Node16</title>
<g id="a_edge26_Node000017_Node000016"><a xlink:title=" ">
<path fill="none" stroke="#63b8ff" d="M171.64,-47.54C206.29,-47.7 260.98,-47.97 299.46,-48.16"/>
<polygon fill="#63b8ff" stroke="#63b8ff" points="299.32,-51.66 309.34,-48.21 299.35,-44.66 299.32,-51.66"/>
</a>
</g>
</g>
<!-- Node18 -->
<g id="Node000018" class="node">
<title>Node18</title>
<g id="a_Node000018"><a xlink:href="app_8c.html#a8a4084e68b42056da4d5418f72ea03f9" target="_top" xlink:title=" ">
<polygon fill="white" stroke="#666666" points="275.25,-20.75 207.5,-20.75 207.5,0 275.25,0 275.25,-20.75"/>
<text text-anchor="middle" x="241.38" y="-7.25" font-family="Helvetica,sans-Serif" font-size="10.00">w2c__f517</text>
</a>
</g>
</g>
<!-- Node17&#45;&gt;Node18 -->
<g id="edge27_Node000017_Node000018" class="edge">
<title>Node17&#45;&gt;Node18</title>
<g id="a_edge27_Node000017_Node000018"><a xlink:title=" ">
<path fill="none" stroke="#63b8ff" d="M168.33,-36.57C178.25,-32.96 189.49,-28.88 200.08,-25.03"/>
<polygon fill="#63b8ff" stroke="#63b8ff" points="201.19,-28.35 209.39,-21.64 198.79,-21.77 201.19,-28.35"/>
</a>
</g>
</g>
</g>
</svg>
