<?xml version="1.0" encoding="UTF-8" standalone="no"?>
<!DOCTYPE svg PUBLIC "-//W3C//DTD SVG 1.1//EN"
 "http://www.w3.org/Graphics/SVG/1.1/DTD/svg11.dtd">
<!-- Generated by graphviz version 12.2.1 (0)
 -->
<!-- Title: wrap_w2c__f471 Pages: 1 -->
<svg width="1039pt" height="847pt"
 viewBox="0.00 0.00 1038.75 846.75" xmlns="http://www.w3.org/2000/svg" xmlns:xlink="http://www.w3.org/1999/xlink">
<g id="graph0" class="graph" transform="scale(1 1) rotate(0) translate(4 842.75)">
<title>wrap_w2c__f471</title>
<!-- Node1 -->
<g id="Node000001" class="node">
<title>Node1</title>
<g id="a_Node000001"><a xlink:title=" ">
<polygon fill="#999999" stroke="#666666" points="97,-399.75 0,-399.75 0,-379 97,-379 97,-399.75"/>
<text text-anchor="middle" x="48.5" y="-386.25" font-family="Helvetica,sans-Serif" font-size="10.00">wrap_w2c__f471</text>
</a>
</g>
</g>
<!-- Node2 -->
<g id="Node000002" class="node">
<title>Node2</title>
<g id="a_Node000002"><a xlink:href="app_8c.html#a83755b8cd21c3725397c6ca0d8dc1f28" target="_top" xlink:title=" ">
<polygon fill="white" stroke="#666666" points="200.75,-399.75 133,-399.75 133,-379 200.75,-379 200.75,-399.75"/>
<text text-anchor="middle" x="166.88" y="-386.25" font-family="Helvetica,sans-Serif" font-size="10.00">w2c__f471</text>
</a>
</g>
</g>
<!-- Node1&#45;&gt;Node2 -->
<g id="edge1_Node000001_Node000002" class="edge">
<title>Node1&#45;&gt;Node2</title>
<g id="a_edge1_Node000001_Node000002"><a xlink:title=" ">
<path fill="none" stroke="#63b8ff" d="M97.17,-389.38C105.18,-389.38 113.47,-389.38 121.4,-389.38"/>
<polygon fill="#63b8ff" stroke="#63b8ff" points="121.17,-392.88 131.17,-389.38 121.17,-385.88 121.17,-392.88"/>
</a>
</g>
</g>
<!-- Node3 -->
<g id="Node000003" class="node">
<title>Node3</title>
<g id="a_Node000003"><a xlink:href="app_8c.html#a7115da956b1d5cff1bdf5cab15b109ba" target="_top" xlink:title=" ">
<polygon fill="white" stroke="#666666" points="302.62,-838.75 238.62,-838.75 238.62,-818 302.62,-818 302.62,-838.75"/>
<text text-anchor="middle" x="270.62" y="-825.25" font-family="Helvetica,sans-Serif" font-size="10.00">w2c_0_30</text>
</a>
</g>
</g>
<!-- Node2&#45;&gt;Node3 -->
<g id="edge2_Node000002_Node000003" class="edge">
<title>Node2&#45;&gt;Node3</title>
<g id="a_edge2_Node000002_Node000003"><a xlink:title=" ">
<path fill="none" stroke="#63b8ff" d="M168.44,-400.04C171.68,-458.34 189.54,-738.41 236.75,-808.38 237.14,-808.95 237.54,-809.5 237.97,-810.05"/>
<polygon fill="#63b8ff" stroke="#63b8ff" points="235.43,-812.46 245.14,-816.69 240.18,-807.33 235.43,-812.46"/>
</a>
</g>
</g>
<!-- Node4 -->
<g id="Node000004" class="node">
<title>Node4</title>
<g id="a_Node000004"><a xlink:href="app_8c.html#aa709ee1fada6a506c56e35eaa8f8aef1" target="_top" xlink:title=" ">
<polygon fill="white" stroke="#666666" points="302.62,-799.75 238.62,-799.75 238.62,-779 302.62,-779 302.62,-799.75"/>
<text text-anchor="middle" x="270.62" y="-786.25" font-family="Helvetica,sans-Serif" font-size="10.00">w2c_0_39</text>
</a>
</g>
</g>
<!-- Node2&#45;&gt;Node4 -->
<g id="edge3_Node000002_Node000004" class="edge">
<title>Node2&#45;&gt;Node4</title>
<g id="a_edge3_Node000002_Node000004"><a xlink:title=" ">
<path fill="none" stroke="#63b8ff" d="M168.75,-399.94C173.42,-454.2 196.61,-701.44 236.75,-765.38 238.09,-767.51 239.7,-769.52 241.48,-771.4"/>
<polygon fill="#63b8ff" stroke="#63b8ff" points="239,-773.88 248.86,-777.75 243.56,-768.57 239,-773.88"/>
</a>
</g>
</g>
<!-- Node5 -->
<g id="Node000005" class="node">
<title>Node5</title>
<g id="a_Node000005"><a xlink:href="app_8c.html#a0378208e0d5c0d1d6e7370f1c578fab3" target="_top" xlink:title=" ">
<polygon fill="white" stroke="#666666" points="927,-285.75 859.25,-285.75 859.25,-265 927,-265 927,-285.75"/>
<text text-anchor="middle" x="893.12" y="-272.25" font-family="Helvetica,sans-Serif" font-size="10.00">w2c__f216</text>
</a>
</g>
</g>
<!-- Node2&#45;&gt;Node5 -->
<g id="edge4_Node000002_Node000005" class="edge">
<title>Node2&#45;&gt;Node5</title>
<g id="a_edge4_Node000002_Node000005"><a xlink:title=" ">
<path fill="none" stroke="#63b8ff" d="M183.52,-378.55C197.01,-369.78 217.31,-357.84 236.75,-351.38 294.92,-332.02 312.07,-332.38 373.38,-332.38 373.38,-332.38 373.38,-332.38 686.62,-332.38 749.06,-332.38 818.42,-307.64 858.48,-290.76"/>
<polygon fill="#63b8ff" stroke="#63b8ff" points="859.79,-294 867.58,-286.83 857.02,-287.58 859.79,-294"/>
</a>
</g>
</g>
<!-- Node7 -->
<g id="Node000007" class="node">
<title>Node7</title>
<g id="a_Node000007"><a xlink:href="app_8c.html#a2d8a16f03b3e53a82c191ec2e475fc09" target="_top" xlink:title=" ">
<polygon fill="white" stroke="#666666" points="408.25,-702.75 340.5,-702.75 340.5,-682 408.25,-682 408.25,-702.75"/>
<text text-anchor="middle" x="374.38" y="-689.25" font-family="Helvetica,sans-Serif" font-size="10.00">w2c__f235</text>
</a>
</g>
</g>
<!-- Node2&#45;&gt;Node7 -->
<g id="edge6_Node000002_Node000007" class="edge">
<title>Node2&#45;&gt;Node7</title>
<g id="a_edge6_Node000002_Node000007"><a xlink:title=" ">
<path fill="none" stroke="#63b8ff" d="M169.32,-399.87C174.06,-431.22 191.51,-525.89 236.75,-588.38 264.86,-627.21 311.57,-658.29 342.42,-676.04"/>
<polygon fill="#63b8ff" stroke="#63b8ff" points="340.47,-678.96 350.9,-680.8 343.89,-672.85 340.47,-678.96"/>
</a>
</g>
</g>
<!-- Node10 -->
<g id="Node000010" class="node">
<title>Node10</title>
<g id="a_Node000010"><a xlink:href="app_8c.html#aaca5d5bcf49f2ca74019cf097750b9f3" target="_top" xlink:title=" ">
<polygon fill="white" stroke="#666666" points="927,-609.75 859.25,-609.75 859.25,-589 927,-589 927,-609.75"/>
<text text-anchor="middle" x="893.12" y="-596.25" font-family="Helvetica,sans-Serif" font-size="10.00">w2c__f258</text>
</a>
</g>
</g>
<!-- Node2&#45;&gt;Node10 -->
<g id="edge37_Node000002_Node000010" class="edge">
<title>Node2&#45;&gt;Node10</title>
<g id="a_edge37_Node000002_Node000010"><a xlink:title=" ">
<path fill="none" stroke="#63b8ff" d="M168.69,-400.21C173.88,-460.44 207.52,-751.38 373.38,-751.38 373.38,-751.38 373.38,-751.38 686.62,-751.38 774.58,-751.38 849.52,-660.26 878.88,-619.12"/>
<polygon fill="#63b8ff" stroke="#63b8ff" points="881.64,-621.27 884.48,-611.07 875.9,-617.28 881.64,-621.27"/>
</a>
</g>
</g>
<!-- Node14 -->
<g id="Node000014" class="node">
<title>Node14</title>
<g id="a_Node000014"><a xlink:href="app_8c.html#a674f6e81761467d0a8dc6d2a425eda9f" target="_top" xlink:title=" ">
<polygon fill="white" stroke="#666666" points="927,-494.75 859.25,-494.75 859.25,-474 927,-474 927,-494.75"/>
<text text-anchor="middle" x="893.12" y="-481.25" font-family="Helvetica,sans-Serif" font-size="10.00">w2c__f498</text>
</a>
</g>
</g>
<!-- Node2&#45;&gt;Node14 -->
<g id="edge59_Node000002_Node000014" class="edge">
<title>Node2&#45;&gt;Node14</title>
<g id="a_edge59_Node000002_Node000014"><a xlink:title=" ">
<path fill="none" stroke="#63b8ff" d="M201.25,-394.37C241.83,-400 312.47,-408.38 373.38,-408.38 373.38,-408.38 373.38,-408.38 686.62,-408.38 754.6,-408.38 827.81,-445.41 865.82,-467.77"/>
<polygon fill="#63b8ff" stroke="#63b8ff" points="863.91,-470.7 874.28,-472.87 867.52,-464.71 863.91,-470.7"/>
</a>
</g>
</g>
<!-- Node15 -->
<g id="Node000015" class="node">
<title>Node15</title>
<g id="a_Node000015"><a xlink:href="app_8c.html#aaecdbe8af0d0258948228167c29a538b" target="_top" xlink:title=" ">
<polygon fill="white" stroke="#666666" points="304.5,-579.75 236.75,-579.75 236.75,-559 304.5,-559 304.5,-579.75"/>
<text text-anchor="middle" x="270.62" y="-566.25" font-family="Helvetica,sans-Serif" font-size="10.00">w2c__f241</text>
</a>
</g>
</g>
<!-- Node2&#45;&gt;Node15 -->
<g id="edge20_Node000002_Node000015" class="edge">
<title>Node2&#45;&gt;Node15</title>
<g id="a_edge20_Node000002_Node000015"><a xlink:title=" ">
<path fill="none" stroke="#63b8ff" d="M173.94,-400.1C190.45,-429.3 236.43,-510.65 258.08,-548.95"/>
<polygon fill="#63b8ff" stroke="#63b8ff" points="255.01,-550.64 262.98,-557.62 261.11,-547.19 255.01,-550.64"/>
</a>
</g>
</g>
<!-- Node21 -->
<g id="Node000021" class="node">
<title>Node21</title>
<g id="a_Node000021"><a xlink:href="app_8c.html#aa3051a0f0feb078aee84a108594b3b11" target="_top" xlink:title=" ">
<polygon fill="white" stroke="#666666" points="615.75,-200.75 548,-200.75 548,-180 615.75,-180 615.75,-200.75"/>
<text text-anchor="middle" x="581.88" y="-187.25" font-family="Helvetica,sans-Serif" font-size="10.00">w2c__f245</text>
</a>
</g>
</g>
<!-- Node2&#45;&gt;Node21 -->
<g id="edge29_Node000002_Node000021" class="edge">
<title>Node2&#45;&gt;Node21</title>
<g id="a_edge29_Node000002_Node000021"><a xlink:title=" ">
<path fill="none" stroke="#63b8ff" d="M171.72,-378.81C180.08,-357.38 201.97,-308.69 236.75,-283.38 328.74,-216.4 466.11,-197.66 536.21,-192.41"/>
<polygon fill="#63b8ff" stroke="#63b8ff" points="536.44,-195.91 546.18,-191.74 535.96,-188.92 536.44,-195.91"/>
</a>
</g>
</g>
<!-- Node22 -->
<g id="Node000022" class="node">
<title>Node22</title>
<g id="a_Node000022"><a xlink:href="app_8c.html#a566dbdfcf107d41529c3be279fff4741" target="_top" xlink:title=" ">
<polygon fill="white" stroke="#666666" points="823.25,-149.75 755.5,-149.75 755.5,-129 823.25,-129 823.25,-149.75"/>
<text text-anchor="middle" x="789.38" y="-136.25" font-family="Helvetica,sans-Serif" font-size="10.00">w2c__f330</text>
</a>
</g>
</g>
<!-- Node2&#45;&gt;Node22 -->
<g id="edge38_Node000002_Node000022" class="edge">
<title>Node2&#45;&gt;Node22</title>
<g id="a_edge38_Node000002_Node000022"><a xlink:title=" ">
<path fill="none" stroke="#63b8ff" d="M169.63,-378.59C179.11,-324.61 229.09,-86.38 373.38,-86.38 373.38,-86.38 373.38,-86.38 582.88,-86.38 644,-86.38 712.21,-108.63 752.64,-124.3"/>
<polygon fill="#63b8ff" stroke="#63b8ff" points="751.29,-127.53 761.88,-127.96 753.87,-121.02 751.29,-127.53"/>
</a>
</g>
</g>
<!-- Node24 -->
<g id="Node000024" class="node">
<title>Node24</title>
<g id="a_Node000024"><a xlink:href="app_8c.html#a20978c1b92f2cf9c2aef1499361b3bda" target="_top" xlink:title=" ">
<polygon fill="white" stroke="#666666" points="719.5,-58.75 651.75,-58.75 651.75,-38 719.5,-38 719.5,-58.75"/>
<text text-anchor="middle" x="685.62" y="-45.25" font-family="Helvetica,sans-Serif" font-size="10.00">w2c__f333</text>
</a>
</g>
</g>
<!-- Node2&#45;&gt;Node24 -->
<g id="edge39_Node000002_Node000024" class="edge">
<title>Node2&#45;&gt;Node24</title>
<g id="a_edge39_Node000002_Node000024"><a xlink:title=" ">
<path fill="none" stroke="#63b8ff" d="M168.63,-378.82C172.4,-328.82 190.96,-116.37 236.75,-72.38 281.21,-29.66 311.72,-48.38 373.38,-48.38 373.38,-48.38 373.38,-48.38 479.12,-48.38 534.61,-48.38 598.52,-48.38 640.14,-48.38"/>
<polygon fill="#63b8ff" stroke="#63b8ff" points="640.01,-51.88 650.01,-48.38 640.01,-44.88 640.01,-51.88"/>
</a>
</g>
</g>
<!-- Node26 -->
<g id="Node000026" class="node">
<title>Node26</title>
<g id="a_Node000026"><a xlink:href="app_8c.html#ae1894622990b883cad3d7ca790179a8b" target="_top" xlink:title=" ">
<polygon fill="white" stroke="#666666" points="512,-513.75 444.25,-513.75 444.25,-493 512,-493 512,-513.75"/>
<text text-anchor="middle" x="478.12" y="-500.25" font-family="Helvetica,sans-Serif" font-size="10.00">w2c__f407</text>
</a>
</g>
</g>
<!-- Node2&#45;&gt;Node26 -->
<g id="edge43_Node000002_Node000026" class="edge">
<title>Node2&#45;&gt;Node26</title>
<g id="a_edge43_Node000002_Node000026"><a xlink:title=" ">
<path fill="none" stroke="#63b8ff" d="M188.68,-400.16C202.19,-406.96 220.29,-415.69 236.75,-422.38 304.12,-449.75 384.6,-475.51 433.24,-490.35"/>
<polygon fill="#63b8ff" stroke="#63b8ff" points="431.97,-493.62 442.55,-493.18 434,-486.93 431.97,-493.62"/>
</a>
</g>
</g>
<!-- Node30 -->
<g id="Node000030" class="node">
<title>Node30</title>
<g id="a_Node000030"><a xlink:href="app_8c.html#a8d133b0dcb7130bbc0a48ea5c1975662" target="_top" xlink:title=" ">
<polygon fill="white" stroke="#666666" points="304.5,-380.75 236.75,-380.75 236.75,-360 304.5,-360 304.5,-380.75"/>
<text text-anchor="middle" x="270.62" y="-367.25" font-family="Helvetica,sans-Serif" font-size="10.00">w2c__f436</text>
</a>
</g>
</g>
<!-- Node2&#45;&gt;Node30 -->
<g id="edge52_Node000002_Node000030" class="edge">
<title>Node2&#45;&gt;Node30</title>
<g id="a_edge52_Node000002_Node000030"><a xlink:title=" ">
<path fill="none" stroke="#63b8ff" d="M201.19,-383.15C208.91,-381.71 217.25,-380.16 225.36,-378.64"/>
<polygon fill="#63b8ff" stroke="#63b8ff" points="225.91,-382.1 235.09,-376.82 224.62,-375.22 225.91,-382.1"/>
</a>
</g>
</g>
<!-- Node32 -->
<g id="Node000032" class="node">
<title>Node32</title>
<g id="a_Node000032"><a xlink:href="app_8c.html#a758cac7febc0a7d63abc7d4d7bb4a49a" target="_top" xlink:title=" ">
<polygon fill="white" stroke="#666666" points="512,-266.75 444.25,-266.75 444.25,-246 512,-246 512,-266.75"/>
<text text-anchor="middle" x="478.12" y="-253.25" font-family="Helvetica,sans-Serif" font-size="10.00">w2c__f455</text>
</a>
</g>
</g>
<!-- Node2&#45;&gt;Node32 -->
<g id="edge57_Node000002_Node000032" class="edge">
<title>Node2&#45;&gt;Node32</title>
<g id="a_edge57_Node000002_Node000032"><a xlink:title=" ">
<path fill="none" stroke="#63b8ff" d="M175.82,-378.51C187.57,-363.16 210.97,-335.11 236.75,-318.38 297.28,-279.08 381.47,-264.66 432.47,-259.39"/>
<polygon fill="#63b8ff" stroke="#63b8ff" points="432.63,-262.89 442.25,-258.46 431.97,-255.92 432.63,-262.89"/>
</a>
</g>
</g>
<!-- Node33 -->
<g id="Node000033" class="node">
<title>Node33</title>
<g id="a_Node000033"><a xlink:href="app_8c.html#a672569c91ebb1d5055d737b56ec296a7" target="_top" xlink:title=" ">
<polygon fill="white" stroke="#666666" points="304.5,-20.75 236.75,-20.75 236.75,0 304.5,0 304.5,-20.75"/>
<text text-anchor="middle" x="270.62" y="-7.25" font-family="Helvetica,sans-Serif" font-size="10.00">w2c__f585</text>
</a>
</g>
</g>
<!-- Node2&#45;&gt;Node33 -->
<g id="edge60_Node000002_Node000033" class="edge">
<title>Node2&#45;&gt;Node33</title>
<g id="a_edge60_Node000002_Node000033"><a xlink:title=" ">
<path fill="none" stroke="#63b8ff" d="M168.89,-378.71C174.05,-326.1 198.63,-94.39 236.75,-34.38 238.1,-32.24 239.72,-30.24 241.5,-28.37"/>
<polygon fill="#63b8ff" stroke="#63b8ff" points="243.59,-31.19 248.89,-22.02 239.03,-25.88 243.59,-31.19"/>
</a>
</g>
</g>
<!-- Node6 -->
<g id="Node000006" class="node">
<title>Node6</title>
<g id="a_Node000006"><a xlink:href="app_8c.html#a8d9f347f9a643f0ebfb53c4f54578ac4" target="_top" xlink:title=" ">
<polygon fill="white" stroke="#666666" points="1030.75,-551.75 963,-551.75 963,-531 1030.75,-531 1030.75,-551.75"/>
<text text-anchor="middle" x="996.88" y="-538.25" font-family="Helvetica,sans-Serif" font-size="10.00">w2c__f304</text>
</a>
</g>
</g>
<!-- Node5&#45;&gt;Node6 -->
<g id="edge5_Node000005_Node000006" class="edge">
<title>Node5&#45;&gt;Node6</title>
<g id="a_edge5_Node000005_Node000006"><a xlink:title=" ">
<path fill="none" stroke="#63b8ff" d="M898.24,-286.13C913.52,-326.07 967.16,-466.31 987.75,-520.13"/>
<polygon fill="#63b8ff" stroke="#63b8ff" points="984.44,-521.27 991.28,-529.36 990.98,-518.77 984.44,-521.27"/>
</a>
</g>
</g>
<!-- Node8 -->
<g id="Node000008" class="node">
<title>Node8</title>
<g id="a_Node000008"><a xlink:href="app_8c.html#a1a8a1d528c65d63a630e19c3a4bdd098" target="_top" xlink:title=" ">
<polygon fill="white" stroke="#666666" points="719.5,-609.75 651.75,-609.75 651.75,-589 719.5,-589 719.5,-609.75"/>
<text text-anchor="middle" x="685.62" y="-596.25" font-family="Helvetica,sans-Serif" font-size="10.00">w2c__f557</text>
</a>
</g>
</g>
<!-- Node7&#45;&gt;Node8 -->
<g id="edge7_Node000007_Node000008" class="edge">
<title>Node7&#45;&gt;Node8</title>
<g id="a_edge7_Node000007_Node000008"><a xlink:title=" ">
<path fill="none" stroke="#63b8ff" d="M408.66,-701.83C457.18,-713.66 548.84,-728.51 615.75,-694.38 645.87,-679.01 665.88,-643.64 676.23,-620.66"/>
<polygon fill="#63b8ff" stroke="#63b8ff" points="679.38,-622.2 680.07,-611.63 672.94,-619.47 679.38,-622.2"/>
</a>
</g>
</g>
<!-- Node9 -->
<g id="Node000009" class="node">
<title>Node9</title>
<g id="a_Node000009"><a xlink:href="app_8c.html#a0f7003812eaf983535ff7979fc047a21" target="_top" xlink:title=" ">
<polygon fill="white" stroke="#666666" points="823.25,-609.75 755.5,-609.75 755.5,-589 823.25,-589 823.25,-609.75"/>
<text text-anchor="middle" x="789.38" y="-596.25" font-family="Helvetica,sans-Serif" font-size="10.00">w2c__f353</text>
</a>
</g>
</g>
<!-- Node8&#45;&gt;Node9 -->
<g id="edge8_Node000008_Node000009" class="edge">
<title>Node8&#45;&gt;Node9</title>
<g id="a_edge8_Node000008_Node000009"><a xlink:title=" ">
<path fill="none" stroke="#63b8ff" d="M719.94,-599.38C727.57,-599.38 735.81,-599.38 743.83,-599.38"/>
<polygon fill="#63b8ff" stroke="#63b8ff" points="743.82,-602.88 753.82,-599.38 743.82,-595.88 743.82,-602.88"/>
</a>
</g>
</g>
<!-- Node13 -->
<g id="Node000013" class="node">
<title>Node13</title>
<g id="a_Node000013"><a xlink:href="app_8c.html#ac9cc84763a9c1933e50eedd7a06c17e2" target="_top" xlink:title=" ">
<polygon fill="white" stroke="#666666" points="823.25,-532.75 755.5,-532.75 755.5,-512 823.25,-512 823.25,-532.75"/>
<text text-anchor="middle" x="789.38" y="-519.25" font-family="Helvetica,sans-Serif" font-size="10.00">w2c__f480</text>
</a>
</g>
</g>
<!-- Node8&#45;&gt;Node13 -->
<g id="edge14_Node000008_Node000013" class="edge">
<title>Node8&#45;&gt;Node13</title>
<g id="a_edge14_Node000008_Node000013"><a xlink:title=" ">
<path fill="none" stroke="#63b8ff" d="M700.77,-588.67C717.38,-576.1 745.18,-555.06 765.01,-540.06"/>
<polygon fill="#63b8ff" stroke="#63b8ff" points="766.95,-542.98 772.81,-534.15 762.73,-537.4 766.95,-542.98"/>
</a>
</g>
</g>
<!-- Node9&#45;&gt;Node10 -->
<g id="edge9_Node000009_Node000010" class="edge">
<title>Node9&#45;&gt;Node10</title>
<g id="a_edge9_Node000009_Node000010"><a xlink:title=" ">
<path fill="none" stroke="#63b8ff" d="M823.69,-599.38C831.32,-599.38 839.56,-599.38 847.58,-599.38"/>
<polygon fill="#63b8ff" stroke="#63b8ff" points="847.57,-602.88 857.57,-599.38 847.57,-595.88 847.57,-602.88"/>
</a>
</g>
</g>
<!-- Node12 -->
<g id="Node000012" class="node">
<title>Node12</title>
<g id="a_Node000012"><a xlink:href="app_8c.html#a4634342addbde677893ffcb45cf639dd" target="_top" xlink:title=" ">
<polygon fill="white" stroke="#666666" points="927,-570.75 859.25,-570.75 859.25,-550 927,-550 927,-570.75"/>
<text text-anchor="middle" x="893.12" y="-557.25" font-family="Helvetica,sans-Serif" font-size="10.00">w2c__f302</text>
</a>
</g>
</g>
<!-- Node9&#45;&gt;Node12 -->
<g id="edge12_Node000009_Node000012" class="edge">
<title>Node9&#45;&gt;Node12</title>
<g id="a_edge12_Node000009_Node000012"><a xlink:title=" ">
<path fill="none" stroke="#63b8ff" d="M818.72,-588.51C829.41,-584.41 841.77,-579.67 853.26,-575.27"/>
<polygon fill="#63b8ff" stroke="#63b8ff" points="854.44,-578.57 862.52,-571.72 851.93,-572.03 854.44,-578.57"/>
</a>
</g>
</g>
<!-- Node10&#45;&gt;Node6 -->
<g id="edge10_Node000010_Node000006" class="edge">
<title>Node10&#45;&gt;Node6</title>
<g id="a_edge10_Node000010_Node000006"><a xlink:title=" ">
<path fill="none" stroke="#63b8ff" d="M912.79,-588.74C928.04,-580.04 949.85,-567.61 967.3,-557.66"/>
<polygon fill="#63b8ff" stroke="#63b8ff" points="968.72,-560.88 975.67,-552.89 965.25,-554.8 968.72,-560.88"/>
</a>
</g>
</g>
<!-- Node11 -->
<g id="Node000011" class="node">
<title>Node11</title>
<g id="a_Node000011"><a xlink:href="app_8c.html#a881f0b113e93dce3ff52d04b435850f6" target="_top" xlink:title=" ">
<polygon fill="white" stroke="#666666" points="1030.75,-609.75 963,-609.75 963,-589 1030.75,-589 1030.75,-609.75"/>
<text text-anchor="middle" x="996.88" y="-596.25" font-family="Helvetica,sans-Serif" font-size="10.00">w2c__f491</text>
</a>
</g>
</g>
<!-- Node10&#45;&gt;Node11 -->
<g id="edge11_Node000010_Node000011" class="edge">
<title>Node10&#45;&gt;Node11</title>
<g id="a_edge11_Node000010_Node000011"><a xlink:title=" ">
<path fill="none" stroke="#63b8ff" d="M927.44,-599.38C935.07,-599.38 943.31,-599.38 951.33,-599.38"/>
<polygon fill="#63b8ff" stroke="#63b8ff" points="951.32,-602.88 961.32,-599.38 951.32,-595.88 951.32,-602.88"/>
</a>
</g>
</g>
<!-- Node12&#45;&gt;Node6 -->
<g id="edge13_Node000012_Node000006" class="edge">
<title>Node12&#45;&gt;Node6</title>
<g id="a_edge13_Node000012_Node000006"><a xlink:title=" ">
<path fill="none" stroke="#63b8ff" d="M927.44,-554.15C935.16,-552.71 943.5,-551.16 951.61,-549.64"/>
<polygon fill="#63b8ff" stroke="#63b8ff" points="952.16,-553.1 961.34,-547.82 950.87,-546.22 952.16,-553.1"/>
</a>
</g>
</g>
<!-- Node13&#45;&gt;Node5 -->
<g id="edge15_Node000013_Node000005" class="edge">
<title>Node13&#45;&gt;Node5</title>
<g id="a_edge15_Node000013_Node000005"><a xlink:title=" ">
<path fill="none" stroke="#63b8ff" d="M796.64,-511.62C803.6,-499.42 814.97,-478.83 823.25,-460.38 849.24,-402.48 873.67,-331.55 885.19,-296.73"/>
<polygon fill="#63b8ff" stroke="#63b8ff" points="888.45,-298.03 888.24,-287.44 881.8,-295.85 888.45,-298.03"/>
</a>
</g>
</g>
<!-- Node13&#45;&gt;Node6 -->
<g id="edge18_Node000013_Node000006" class="edge">
<title>Node13&#45;&gt;Node6</title>
<g id="a_edge18_Node000013_Node000006"><a xlink:title=" ">
<path fill="none" stroke="#63b8ff" d="M823.39,-525.43C858.04,-528.63 912.73,-533.69 951.21,-537.25"/>
<polygon fill="#63b8ff" stroke="#63b8ff" points="950.81,-540.72 961.09,-538.16 951.46,-533.75 950.81,-540.72"/>
</a>
</g>
</g>
<!-- Node13&#45;&gt;Node10 -->
<g id="edge16_Node000013_Node000010" class="edge">
<title>Node13&#45;&gt;Node10</title>
<g id="a_edge16_Node000013_Node000010"><a xlink:title=" ">
<path fill="none" stroke="#63b8ff" d="M802.15,-533.01C815.53,-544.9 838.26,-564.43 859.25,-579.38 860.78,-580.47 862.38,-581.56 864,-582.64"/>
<polygon fill="#63b8ff" stroke="#63b8ff" points="861.8,-585.39 872.12,-587.81 865.56,-579.49 861.8,-585.39"/>
</a>
</g>
</g>
<!-- Node13&#45;&gt;Node12 -->
<g id="edge17_Node000013_Node000012" class="edge">
<title>Node13&#45;&gt;Node12</title>
<g id="a_edge17_Node000013_Node000012"><a xlink:title=" ">
<path fill="none" stroke="#63b8ff" d="M819.26,-533.16C829.57,-537.01 841.38,-541.42 852.44,-545.55"/>
<polygon fill="#63b8ff" stroke="#63b8ff" points="851.16,-548.81 861.75,-549.03 853.61,-542.25 851.16,-548.81"/>
</a>
</g>
</g>
<!-- Node13&#45;&gt;Node14 -->
<g id="edge19_Node000013_Node000014" class="edge">
<title>Node13&#45;&gt;Node14</title>
<g id="a_edge19_Node000013_Node000014"><a xlink:title=" ">
<path fill="none" stroke="#63b8ff" d="M819.26,-511.59C829.57,-507.74 841.38,-503.33 852.44,-499.2"/>
<polygon fill="#63b8ff" stroke="#63b8ff" points="853.61,-502.5 861.75,-495.72 851.16,-495.94 853.61,-502.5"/>
</a>
</g>
</g>
<!-- Node16 -->
<g id="Node000016" class="node">
<title>Node16</title>
<g id="a_Node000016"><a xlink:href="app_8c.html#a8081f55a97ea1b11ef0e25fdcaa79510" target="_top" xlink:title=" ">
<polygon fill="white" stroke="#666666" points="408.25,-560.75 340.5,-560.75 340.5,-540 408.25,-540 408.25,-560.75"/>
<text text-anchor="middle" x="374.38" y="-547.25" font-family="Helvetica,sans-Serif" font-size="10.00">w2c__f332</text>
</a>
</g>
</g>
<!-- Node15&#45;&gt;Node16 -->
<g id="edge21_Node000015_Node000016" class="edge">
<title>Node15&#45;&gt;Node16</title>
<g id="a_edge21_Node000015_Node000016"><a xlink:title=" ">
<path fill="none" stroke="#63b8ff" d="M304.94,-563.15C312.66,-561.71 321,-560.16 329.11,-558.64"/>
<polygon fill="#63b8ff" stroke="#63b8ff" points="329.66,-562.1 338.84,-556.82 328.37,-555.22 329.66,-562.1"/>
</a>
</g>
</g>
<!-- Node17 -->
<g id="Node000017" class="node">
<title>Node17</title>
<g id="a_Node000017"><a xlink:href="app_8c.html#a282da58cdb8a8d86b26b785358ce183a" target="_top" xlink:title=" ">
<polygon fill="white" stroke="#666666" points="512,-574.75 444.25,-574.75 444.25,-554 512,-554 512,-574.75"/>
<text text-anchor="middle" x="478.12" y="-561.25" font-family="Helvetica,sans-Serif" font-size="10.00">w2c__f504</text>
</a>
</g>
</g>
<!-- Node15&#45;&gt;Node17 -->
<g id="edge24_Node000015_Node000017" class="edge">
<title>Node15&#45;&gt;Node17</title>
<g id="a_edge24_Node000015_Node000017"><a xlink:title=" ">
<path fill="none" stroke="#63b8ff" d="M304.77,-570.05C332.44,-570.45 372.93,-570.66 408.25,-569.38 416.15,-569.09 424.55,-568.62 432.66,-568.08"/>
<polygon fill="#63b8ff" stroke="#63b8ff" points="432.64,-571.59 442.36,-567.39 432.14,-564.61 432.64,-571.59"/>
</a>
</g>
</g>
<!-- Node18 -->
<g id="Node000018" class="node">
<title>Node18</title>
<g id="a_Node000018"><a xlink:href="app_8c.html#aa4984aeb5692411379c03042d58ec683" target="_top" xlink:title=" ">
<polygon fill="white" stroke="#666666" points="408.25,-654.75 340.5,-654.75 340.5,-634 408.25,-634 408.25,-654.75"/>
<text text-anchor="middle" x="374.38" y="-641.25" font-family="Helvetica,sans-Serif" font-size="10.00">w2c__f560</text>
</a>
</g>
</g>
<!-- Node15&#45;&gt;Node18 -->
<g id="edge25_Node000015_Node000018" class="edge">
<title>Node15&#45;&gt;Node18</title>
<g id="a_edge25_Node000015_Node000018"><a xlink:title=" ">
<path fill="none" stroke="#63b8ff" d="M286.2,-580.12C302.75,-592.32 329.99,-612.39 349.61,-626.86"/>
<polygon fill="#63b8ff" stroke="#63b8ff" points="347.48,-629.64 357.61,-632.75 351.63,-624 347.48,-629.64"/>
</a>
</g>
</g>
<!-- Node16&#45;&gt;Node17 -->
<g id="edge22_Node000016_Node000017" class="edge">
<title>Node16&#45;&gt;Node17</title>
<g id="a_edge22_Node000016_Node000017"><a xlink:title=" ">
<path fill="none" stroke="#63b8ff" d="M408.69,-554.96C416.41,-556.02 424.75,-557.17 432.86,-558.28"/>
<polygon fill="#63b8ff" stroke="#63b8ff" points="432.2,-561.73 442.58,-559.62 433.15,-554.79 432.2,-561.73"/>
</a>
</g>
</g>
<!-- Node17&#45;&gt;Node8 -->
<g id="edge23_Node000017_Node000008" class="edge">
<title>Node17&#45;&gt;Node8</title>
<g id="a_edge23_Node000017_Node000008"><a xlink:title=" ">
<path fill="none" stroke="#63b8ff" d="M512.28,-572.71C523.57,-575.38 536.29,-578.21 548,-580.38 578.56,-586.04 613.25,-590.84 640.03,-594.2"/>
<polygon fill="#63b8ff" stroke="#63b8ff" points="639.51,-597.67 649.86,-595.41 640.36,-590.72 639.51,-597.67"/>
</a>
</g>
</g>
<!-- Node19 -->
<g id="Node000019" class="node">
<title>Node19</title>
<g id="a_Node000019"><a xlink:href="app_8c.html#a473677c504e5effa085c43e095d81177" target="_top" xlink:title=" ">
<polygon fill="white" stroke="#666666" points="512,-680.75 444.25,-680.75 444.25,-660 512,-660 512,-680.75"/>
<text text-anchor="middle" x="478.12" y="-667.25" font-family="Helvetica,sans-Serif" font-size="10.00">w2c__f228</text>
</a>
</g>
</g>
<!-- Node18&#45;&gt;Node19 -->
<g id="edge26_Node000018_Node000019" class="edge">
<title>Node18&#45;&gt;Node19</title>
<g id="a_edge26_Node000018_Node000019"><a xlink:title=" ">
<path fill="none" stroke="#63b8ff" d="M408.69,-652.89C416.5,-654.88 424.94,-657.04 433.14,-659.13"/>
<polygon fill="#63b8ff" stroke="#63b8ff" points="432.06,-662.47 442.61,-661.56 433.79,-655.69 432.06,-662.47"/>
</a>
</g>
</g>
<!-- Node20 -->
<g id="Node000020" class="node">
<title>Node20</title>
<g id="a_Node000020"><a xlink:href="app_8c.html#a16393b3c5cd680d67eabb5d0da38635c" target="_top" xlink:title=" ">
<polygon fill="white" stroke="#666666" points="615.75,-685.75 548,-685.75 548,-665 615.75,-665 615.75,-685.75"/>
<text text-anchor="middle" x="581.88" y="-672.25" font-family="Helvetica,sans-Serif" font-size="10.00">w2c__f551</text>
</a>
</g>
</g>
<!-- Node19&#45;&gt;Node20 -->
<g id="edge27_Node000019_Node000020" class="edge">
<title>Node19&#45;&gt;Node20</title>
<g id="a_edge27_Node000019_Node000020"><a xlink:title=" ">
<path fill="none" stroke="#63b8ff" d="M512.44,-672.01C520.16,-672.39 528.5,-672.8 536.61,-673.2"/>
<polygon fill="#63b8ff" stroke="#63b8ff" points="536.16,-676.68 546.32,-673.68 536.5,-669.69 536.16,-676.68"/>
</a>
</g>
</g>
<!-- Node20&#45;&gt;Node8 -->
<g id="edge28_Node000020_Node000008" class="edge">
<title>Node20&#45;&gt;Node8</title>
<g id="a_edge28_Node000020_Node000008"><a xlink:title=" ">
<path fill="none" stroke="#63b8ff" d="M597.02,-664.81C613.63,-652.4 641.43,-631.64 661.26,-616.83"/>
<polygon fill="#63b8ff" stroke="#63b8ff" points="663.14,-619.79 669.06,-611 658.95,-614.18 663.14,-619.79"/>
</a>
</g>
</g>
<!-- Node21&#45;&gt;Node5 -->
<g id="edge30_Node000021_Node000005" class="edge">
<title>Node21&#45;&gt;Node5</title>
<g id="a_edge30_Node000021_Node000005"><a xlink:title=" ">
<path fill="none" stroke="#63b8ff" d="M616.2,-195.06C663.22,-202.23 751.35,-217.75 823.25,-242.38 836.64,-246.96 850.84,-253.46 862.84,-259.48"/>
<polygon fill="#63b8ff" stroke="#63b8ff" points="860.91,-262.42 871.4,-263.89 864.12,-256.2 860.91,-262.42"/>
</a>
</g>
</g>
<!-- Node21&#45;&gt;Node22 -->
<g id="edge31_Node000021_Node000022" class="edge">
<title>Node21&#45;&gt;Node22</title>
<g id="a_edge31_Node000021_Node000022"><a xlink:title=" ">
<path fill="none" stroke="#63b8ff" d="M593.95,-179.78C606.72,-168.36 628.89,-150.8 651.75,-143.38 681.47,-133.72 716.77,-132.94 744.04,-134.46"/>
<polygon fill="#63b8ff" stroke="#63b8ff" points="743.47,-137.93 753.69,-135.13 743.95,-130.95 743.47,-137.93"/>
</a>
</g>
</g>
<!-- Node23 -->
<g id="Node000023" class="node">
<title>Node23</title>
<g id="a_Node000023"><a xlink:href="app_8c.html#a143069370e922aaaa9a54ef24795b2c7" target="_top" xlink:title=" ">
<polygon fill="white" stroke="#666666" points="719.5,-172.75 651.75,-172.75 651.75,-152 719.5,-152 719.5,-172.75"/>
<text text-anchor="middle" x="685.62" y="-159.25" font-family="Helvetica,sans-Serif" font-size="10.00">w2c__f379</text>
</a>
</g>
</g>
<!-- Node21&#45;&gt;Node23 -->
<g id="edge33_Node000021_Node000023" class="edge">
<title>Node21&#45;&gt;Node23</title>
<g id="a_edge33_Node000021_Node000023"><a xlink:title=" ">
<path fill="none" stroke="#63b8ff" d="M616.19,-181.21C624,-179.06 632.44,-176.74 640.64,-174.48"/>
<polygon fill="#63b8ff" stroke="#63b8ff" points="641.41,-177.9 650.12,-171.87 639.55,-171.15 641.41,-177.9"/>
</a>
</g>
</g>
<!-- Node22&#45;&gt;Node5 -->
<g id="edge32_Node000022_Node000005" class="edge">
<title>Node22&#45;&gt;Node5</title>
<g id="a_edge32_Node000022_Node000005"><a xlink:title=" ">
<path fill="none" stroke="#63b8ff" d="M806.04,-150.03C811.83,-154.39 818.2,-159.74 823.25,-165.38 848.19,-193.21 869.72,-231.15 881.8,-254.42"/>
<polygon fill="#63b8ff" stroke="#63b8ff" points="878.61,-255.87 886.25,-263.2 884.85,-252.7 878.61,-255.87"/>
</a>
</g>
</g>
<!-- Node23&#45;&gt;Node5 -->
<g id="edge34_Node000023_Node000005" class="edge">
<title>Node23&#45;&gt;Node5</title>
<g id="a_edge34_Node000023_Node000005"><a xlink:title=" ">
<path fill="none" stroke="#63b8ff" d="M719.74,-167.73C748.67,-173.49 790.98,-184.61 823.25,-204.38 845.08,-217.74 864.84,-239.61 877.54,-255.56"/>
<polygon fill="#63b8ff" stroke="#63b8ff" points="874.69,-257.6 883.57,-263.39 880.24,-253.33 874.69,-257.6"/>
</a>
</g>
</g>
<!-- Node23&#45;&gt;Node22 -->
<g id="edge35_Node000023_Node000022" class="edge">
<title>Node23&#45;&gt;Node22</title>
<g id="a_edge35_Node000023_Node000022"><a xlink:title=" ">
<path fill="none" stroke="#63b8ff" d="M719.94,-154.84C727.66,-153.1 736,-151.21 744.11,-149.38"/>
<polygon fill="#63b8ff" stroke="#63b8ff" points="744.87,-152.8 753.85,-147.18 743.33,-145.97 744.87,-152.8"/>
</a>
</g>
</g>
<!-- Node23&#45;&gt;Node23 -->
<g id="edge36_Node000023_Node000023" class="edge">
<title>Node23&#45;&gt;Node23</title>
<g id="a_edge36_Node000023_Node000023"><a xlink:title=" ">
<path fill="none" stroke="#63b8ff" d="M668.91,-173.15C662.22,-181.81 667.79,-190.75 685.62,-190.75 695.1,-190.75 701.11,-188.23 703.66,-184.56"/>
<polygon fill="#63b8ff" stroke="#63b8ff" points="707.14,-184.18 702.52,-174.65 700.19,-184.99 707.14,-184.18"/>
</a>
</g>
</g>
<!-- Node24&#45;&gt;Node5 -->
<g id="edge40_Node000024_Node000005" class="edge">
<title>Node24&#45;&gt;Node5</title>
<g id="a_edge40_Node000024_Node000005"><a xlink:title=" ">
<path fill="none" stroke="#63b8ff" d="M719.8,-58.77C750.2,-69.77 794.68,-89.83 823.25,-120.38 859.81,-159.47 879.18,-221.19 887.33,-253.7"/>
<polygon fill="#63b8ff" stroke="#63b8ff" points="883.86,-254.23 889.57,-263.15 890.67,-252.61 883.86,-254.23"/>
</a>
</g>
</g>
<!-- Node25 -->
<g id="Node000025" class="node">
<title>Node25</title>
<g id="a_Node000025"><a xlink:href="app_8c.html#a13af816d6a1fb2ff4fec669fc33dc3b4" target="_top" xlink:title=" ">
<polygon fill="white" stroke="#666666" points="823.25,-60.75 755.5,-60.75 755.5,-40 823.25,-40 823.25,-60.75"/>
<text text-anchor="middle" x="789.38" y="-47.25" font-family="Helvetica,sans-Serif" font-size="10.00">w2c__f457</text>
</a>
</g>
</g>
<!-- Node24&#45;&gt;Node25 -->
<g id="edge41_Node000024_Node000025" class="edge">
<title>Node24&#45;&gt;Node25</title>
<g id="a_edge41_Node000024_Node000025"><a xlink:title=" ">
<path fill="none" stroke="#63b8ff" d="M719.94,-49.03C727.57,-49.18 735.81,-49.34 743.83,-49.5"/>
<polygon fill="#63b8ff" stroke="#63b8ff" points="743.75,-53 753.82,-49.7 743.89,-46 743.75,-53"/>
</a>
</g>
</g>
<!-- Node25&#45;&gt;Node5 -->
<g id="edge42_Node000025_Node000005" class="edge">
<title>Node25&#45;&gt;Node5</title>
<g id="a_edge42_Node000025_Node000005"><a xlink:title=" ">
<path fill="none" stroke="#63b8ff" d="M803.63,-61.18C810.26,-67.15 817.98,-75.04 823.25,-83.38 858.8,-139.57 879.25,-216.63 887.63,-253.71"/>
<polygon fill="#63b8ff" stroke="#63b8ff" points="884.15,-254.16 889.69,-263.18 890.99,-252.67 884.15,-254.16"/>
</a>
</g>
</g>
<!-- Node26&#45;&gt;Node5 -->
<g id="edge44_Node000026_Node000005" class="edge">
<title>Node26&#45;&gt;Node5</title>
<g id="a_edge44_Node000026_Node000005"><a xlink:title=" ">
<path fill="none" stroke="#63b8ff" d="M512.49,-494.87C588.8,-474.94 773.33,-423.93 823.25,-384.38 852.94,-360.85 873.47,-320.81 883.98,-296.36"/>
<polygon fill="#63b8ff" stroke="#63b8ff" points="887.08,-298.02 887.64,-287.44 880.6,-295.36 887.08,-298.02"/>
</a>
</g>
</g>
<!-- Node26&#45;&gt;Node10 -->
<g id="edge45_Node000026_Node000010" class="edge">
<title>Node26&#45;&gt;Node10</title>
<g id="a_edge45_Node000026_Node000010"><a xlink:title=" ">
<path fill="none" stroke="#63b8ff" d="M487.69,-514.18C502.79,-533.03 533.9,-570.81 548,-580.38 588.64,-607.94 603.4,-609.8 651.75,-618.38 726.8,-631.69 747.72,-628.6 823.25,-618.38 831.71,-617.23 840.6,-615.33 849.08,-613.16"/>
<polygon fill="#63b8ff" stroke="#63b8ff" points="849.73,-616.6 858.46,-610.59 847.89,-609.85 849.73,-616.6"/>
</a>
</g>
</g>
<!-- Node26&#45;&gt;Node14 -->
<g id="edge48_Node000026_Node000014" class="edge">
<title>Node26&#45;&gt;Node14</title>
<g id="a_edge48_Node000026_Node000014"><a xlink:title=" ">
<path fill="none" stroke="#63b8ff" d="M512.22,-501.85C586.01,-498.46 764.01,-490.27 847.5,-486.43"/>
<polygon fill="#63b8ff" stroke="#63b8ff" points="847.53,-489.93 857.36,-485.97 847.21,-482.94 847.53,-489.93"/>
</a>
</g>
</g>
<!-- Node27 -->
<g id="Node000027" class="node">
<title>Node27</title>
<g id="a_Node000027"><a xlink:href="app_8c.html#a3f67dace1976c647bbc9933a1cc66a39" target="_top" xlink:title=" ">
<polygon fill="white" stroke="#666666" points="615.75,-571.75 548,-571.75 548,-551 615.75,-551 615.75,-571.75"/>
<text text-anchor="middle" x="581.88" y="-558.25" font-family="Helvetica,sans-Serif" font-size="10.00">w2c__f301</text>
</a>
</g>
</g>
<!-- Node26&#45;&gt;Node27 -->
<g id="edge46_Node000026_Node000027" class="edge">
<title>Node26&#45;&gt;Node27</title>
<g id="a_edge46_Node000026_Node000027"><a xlink:title=" ">
<path fill="none" stroke="#63b8ff" d="M497.79,-514.01C513.04,-522.71 534.85,-535.14 552.3,-545.09"/>
<polygon fill="#63b8ff" stroke="#63b8ff" points="550.25,-547.95 560.67,-549.86 553.72,-541.87 550.25,-547.95"/>
</a>
</g>
</g>
<!-- Node28 -->
<g id="Node000028" class="node">
<title>Node28</title>
<g id="a_Node000028"><a xlink:href="app_8c.html#a4fd0a4cb4b78f7e4a76d64b8921bc5dc" target="_top" xlink:title=" ">
<polygon fill="white" stroke="#666666" points="615.75,-532.75 548,-532.75 548,-512 615.75,-512 615.75,-532.75"/>
<text text-anchor="middle" x="581.88" y="-519.25" font-family="Helvetica,sans-Serif" font-size="10.00">w2c__f574</text>
</a>
</g>
</g>
<!-- Node26&#45;&gt;Node28 -->
<g id="edge49_Node000026_Node000028" class="edge">
<title>Node26&#45;&gt;Node28</title>
<g id="a_edge49_Node000026_Node000028"><a xlink:title=" ">
<path fill="none" stroke="#63b8ff" d="M512.44,-509.6C520.16,-511.04 528.5,-512.59 536.61,-514.11"/>
<polygon fill="#63b8ff" stroke="#63b8ff" points="535.87,-517.53 546.34,-515.93 537.16,-510.65 535.87,-517.53"/>
</a>
</g>
</g>
<!-- Node27&#45;&gt;Node8 -->
<g id="edge47_Node000027_Node000008" class="edge">
<title>Node27&#45;&gt;Node8</title>
<g id="a_edge47_Node000027_Node000008"><a xlink:title=" ">
<path fill="none" stroke="#63b8ff" d="M611.76,-572.16C622.07,-576.01 633.88,-580.42 644.94,-584.55"/>
<polygon fill="#63b8ff" stroke="#63b8ff" points="643.66,-587.81 654.25,-588.03 646.11,-581.25 643.66,-587.81"/>
</a>
</g>
</g>
<!-- Node29 -->
<g id="Node000029" class="node">
<title>Node29</title>
<g id="a_Node000029"><a xlink:href="app_8c.html#ae7fb023a7298e99149ca1f090e524235" target="_top" xlink:title=" ">
<polygon fill="white" stroke="#666666" points="719.5,-532.75 651.75,-532.75 651.75,-512 719.5,-512 719.5,-532.75"/>
<text text-anchor="middle" x="685.62" y="-519.25" font-family="Helvetica,sans-Serif" font-size="10.00">w2c__f281</text>
</a>
</g>
</g>
<!-- Node28&#45;&gt;Node29 -->
<g id="edge50_Node000028_Node000029" class="edge">
<title>Node28&#45;&gt;Node29</title>
<g id="a_edge50_Node000028_Node000029"><a xlink:title=" ">
<path fill="none" stroke="#63b8ff" d="M616.19,-522.38C623.82,-522.38 632.06,-522.38 640.08,-522.38"/>
<polygon fill="#63b8ff" stroke="#63b8ff" points="640.07,-525.88 650.07,-522.38 640.07,-518.88 640.07,-525.88"/>
</a>
</g>
</g>
<!-- Node29&#45;&gt;Node13 -->
<g id="edge51_Node000029_Node000013" class="edge">
<title>Node29&#45;&gt;Node13</title>
<g id="a_edge51_Node000029_Node000013"><a xlink:title=" ">
<path fill="none" stroke="#63b8ff" d="M719.94,-522.38C727.57,-522.38 735.81,-522.38 743.83,-522.38"/>
<polygon fill="#63b8ff" stroke="#63b8ff" points="743.82,-525.88 753.82,-522.38 743.82,-518.88 743.82,-525.88"/>
</a>
</g>
</g>
<!-- Node30&#45;&gt;Node5 -->
<g id="edge53_Node000030_Node000005" class="edge">
<title>Node30&#45;&gt;Node5</title>
<g id="a_edge53_Node000030_Node000005"><a xlink:title=" ">
<path fill="none" stroke="#63b8ff" d="M288.17,-359.65C322.13,-338.7 402.76,-294.38 477.12,-294.38 477.12,-294.38 477.12,-294.38 686.62,-294.38 742.18,-294.38 805.83,-287.4 847.38,-281.91"/>
<polygon fill="#63b8ff" stroke="#63b8ff" points="847.81,-285.38 857.25,-280.57 846.87,-278.44 847.81,-285.38"/>
</a>
</g>
</g>
<!-- Node31 -->
<g id="Node000031" class="node">
<title>Node31</title>
<g id="a_Node000031"><a xlink:href="app_8c.html#a8ddfdaf7faae4bc857dc43f2691b9dbe" target="_top" xlink:title=" ">
<polygon fill="white" stroke="#666666" points="408.25,-380.75 340.5,-380.75 340.5,-360 408.25,-360 408.25,-380.75"/>
<text text-anchor="middle" x="374.38" y="-367.25" font-family="Helvetica,sans-Serif" font-size="10.00">w2c__f306</text>
</a>
</g>
</g>
<!-- Node30&#45;&gt;Node31 -->
<g id="edge54_Node000030_Node000031" class="edge">
<title>Node30&#45;&gt;Node31</title>
<g id="a_edge54_Node000030_Node000031"><a xlink:title=" ">
<path fill="none" stroke="#63b8ff" d="M304.94,-370.38C312.57,-370.38 320.81,-370.38 328.83,-370.38"/>
<polygon fill="#63b8ff" stroke="#63b8ff" points="328.82,-373.88 338.82,-370.38 328.82,-366.88 328.82,-373.88"/>
</a>
</g>
</g>
<!-- Node31&#45;&gt;Node5 -->
<g id="edge55_Node000031_Node000005" class="edge">
<title>Node31&#45;&gt;Node5</title>
<g id="a_edge55_Node000031_Node000005"><a xlink:title=" ">
<path fill="none" stroke="#63b8ff" d="M408.48,-370.38C449.09,-370.38 520.05,-370.38 580.88,-370.38 580.88,-370.38 580.88,-370.38 686.62,-370.38 748.28,-370.38 768.77,-375.24 823.25,-346.38 846.12,-334.26 865.94,-311.8 878.36,-295.37"/>
<polygon fill="#63b8ff" stroke="#63b8ff" points="881.18,-297.45 884.22,-287.3 875.52,-293.34 881.18,-297.45"/>
</a>
</g>
</g>
<!-- Node31&#45;&gt;Node17 -->
<g id="edge56_Node000031_Node000017" class="edge">
<title>Node31&#45;&gt;Node17</title>
<g id="a_edge56_Node000031_Node000017"><a xlink:title=" ">
<path fill="none" stroke="#63b8ff" d="M379.23,-381.13C388.57,-406.62 413.92,-472.32 444.25,-522.38 449,-530.22 454.99,-538.27 460.56,-545.21"/>
<polygon fill="#63b8ff" stroke="#63b8ff" points="457.68,-547.21 466.75,-552.68 463.06,-542.74 457.68,-547.21"/>
</a>
</g>
</g>
<!-- Node32&#45;&gt;Node5 -->
<g id="edge58_Node000032_Node000005" class="edge">
<title>Node32&#45;&gt;Node5</title>
<g id="a_edge58_Node000032_Node000005"><a xlink:title=" ">
<path fill="none" stroke="#63b8ff" d="M512.22,-257.9C586.01,-261.29 764.01,-269.48 847.5,-273.32"/>
<polygon fill="#63b8ff" stroke="#63b8ff" points="847.21,-276.81 857.36,-273.78 847.53,-269.82 847.21,-276.81"/>
</a>
</g>
</g>
</g>
</svg>
