<?xml version="1.0" encoding="UTF-8" standalone="no"?>
<!DOCTYPE svg PUBLIC "-//W3C//DTD SVG 1.1//EN"
 "http://www.w3.org/Graphics/SVG/1.1/DTD/svg11.dtd">
<!-- Generated by graphviz version 12.2.1 (0)
 -->
<!-- Title: w2c__f493 Pages: 1 -->
<svg width="387pt" height="181pt"
 viewBox="0.00 0.00 387.00 180.53" xmlns="http://www.w3.org/2000/svg" xmlns:xlink="http://www.w3.org/1999/xlink">
<g id="graph0" class="graph" transform="scale(1 1) rotate(0) translate(4 176.53)">
<title>w2c__f493</title>
<!-- Node1 -->
<g id="Node000001" class="node">
<title>Node1</title>
<g id="a_Node000001"><a xlink:title=" ">
<polygon fill="#999999" stroke="#666666" points="379,-98.75 311.25,-98.75 311.25,-78 379,-78 379,-98.75"/>
<text text-anchor="middle" x="345.12" y="-85.25" font-family="Helvetica,sans-Serif" font-size="10.00">w2c__f493</text>
</a>
</g>
</g>
<!-- Node2 -->
<g id="Node000002" class="node">
<title>Node2</title>
<g id="a_Node000002"><a xlink:href="app_8c.html#afe12d2e352ce066fed84c02f95f2c353" target="_top" xlink:title=" ">
<polygon fill="white" stroke="#666666" points="275.25,-155.75 207.5,-155.75 207.5,-135 275.25,-135 275.25,-155.75"/>
<text text-anchor="middle" x="241.38" y="-142.25" font-family="Helvetica,sans-Serif" font-size="10.00">w2c__f338</text>
</a>
</g>
</g>
<!-- Node1&#45;&gt;Node2 -->
<g id="edge1_Node000001_Node000002" class="edge">
<title>Node1&#45;&gt;Node2</title>
<g id="a_edge1_Node000001_Node000002"><a xlink:title=" ">
<path fill="none" stroke="#63b8ff" d="M314.97,-104.71C297.9,-114.27 276.81,-126.08 261.77,-134.51"/>
<polygon fill="#63b8ff" stroke="#63b8ff" points="316.65,-107.78 323.67,-99.84 313.23,-101.67 316.65,-107.78"/>
</a>
</g>
</g>
<!-- Node3 -->
<g id="Node000003" class="node">
<title>Node3</title>
<g id="a_Node000003"><a xlink:href="app_8c.html#a9b135c901574270ef292ea88df318302" target="_top" xlink:title=" ">
<polygon fill="white" stroke="#666666" points="171.5,-126.75 103.75,-126.75 103.75,-106 171.5,-106 171.5,-126.75"/>
<text text-anchor="middle" x="137.62" y="-113.25" font-family="Helvetica,sans-Serif" font-size="10.00">w2c__f539</text>
</a>
</g>
</g>
<!-- Node1&#45;&gt;Node3 -->
<g id="edge15_Node000001_Node000003" class="edge">
<title>Node1&#45;&gt;Node3</title>
<g id="a_edge15_Node000001_Node000003"><a xlink:title=" ">
<path fill="none" stroke="#63b8ff" d="M332.5,-108.84C320.75,-127.25 300.7,-153.09 275.25,-164.38 247.72,-176.58 236.23,-173.4 207.5,-164.38 184.14,-157.04 161.78,-138.66 149.16,-126.89"/>
<polygon fill="#63b8ff" stroke="#63b8ff" points="335.48,-110.68 337.66,-100.32 329.49,-107.06 335.48,-110.68"/>
</a>
</g>
</g>
<!-- Node4 -->
<g id="Node000004" class="node">
<title>Node4</title>
<g id="a_Node000004"><a xlink:href="app_8c.html#a539ecb793f2b73152b08eb0f5384b4f7" target="_top" xlink:title=" ">
<polygon fill="white" stroke="#666666" points="275.25,-98.75 207.5,-98.75 207.5,-78 275.25,-78 275.25,-98.75"/>
<text text-anchor="middle" x="241.38" y="-85.25" font-family="Helvetica,sans-Serif" font-size="10.00">w2c__f367</text>
</a>
</g>
</g>
<!-- Node1&#45;&gt;Node4 -->
<g id="edge3_Node000001_Node000004" class="edge">
<title>Node1&#45;&gt;Node4</title>
<g id="a_edge3_Node000001_Node000004"><a xlink:title=" ">
<path fill="none" stroke="#63b8ff" d="M299.57,-88.38C291.46,-88.38 283.13,-88.38 275.42,-88.38"/>
<polygon fill="#63b8ff" stroke="#63b8ff" points="299.29,-91.88 309.29,-88.38 299.29,-84.88 299.29,-91.88"/>
</a>
</g>
</g>
<!-- Node5 -->
<g id="Node000005" class="node">
<title>Node5</title>
<g id="a_Node000005"><a xlink:href="app_8c.html#ab70064ae41375763f4785b8348e4dc37" target="_top" xlink:title=" ">
<polygon fill="white" stroke="#666666" points="275.25,-59.75 207.5,-59.75 207.5,-39 275.25,-39 275.25,-59.75"/>
<text text-anchor="middle" x="241.38" y="-46.25" font-family="Helvetica,sans-Serif" font-size="10.00">w2c__f440</text>
</a>
</g>
</g>
<!-- Node1&#45;&gt;Node5 -->
<g id="edge6_Node000001_Node000005" class="edge">
<title>Node1&#45;&gt;Node5</title>
<g id="a_edge6_Node000001_Node000005"><a xlink:title=" ">
<path fill="none" stroke="#63b8ff" d="M305.1,-73.42C293.6,-69.01 281.24,-64.27 270.57,-60.18"/>
<polygon fill="#63b8ff" stroke="#63b8ff" points="303.78,-76.66 314.37,-76.97 306.28,-70.12 303.78,-76.66"/>
</a>
</g>
</g>
<!-- Node10 -->
<g id="Node000010" class="node">
<title>Node10</title>
<g id="a_Node000010"><a xlink:href="app_8c.html#a344b59004eb41f063c9c30fbefc81383" target="_top" xlink:title=" ">
<polygon fill="white" stroke="#666666" points="275.25,-20.75 207.5,-20.75 207.5,0 275.25,0 275.25,-20.75"/>
<text text-anchor="middle" x="241.38" y="-7.25" font-family="Helvetica,sans-Serif" font-size="10.00">w2c__f523</text>
</a>
</g>
</g>
<!-- Node1&#45;&gt;Node10 -->
<g id="edge12_Node000001_Node000010" class="edge">
<title>Node1&#45;&gt;Node10</title>
<g id="a_edge12_Node000001_Node000010"><a xlink:title=" ">
<path fill="none" stroke="#63b8ff" d="M323.96,-69.97C310.57,-58.12 292.37,-42.68 275.25,-30.38 270.8,-27.18 265.83,-23.98 261.13,-21.1"/>
<polygon fill="#63b8ff" stroke="#63b8ff" points="321.47,-72.45 331.26,-76.52 326.15,-67.24 321.47,-72.45"/>
</a>
</g>
</g>
<!-- Node2&#45;&gt;Node3 -->
<g id="edge2_Node000002_Node000003" class="edge">
<title>Node2&#45;&gt;Node3</title>
<g id="a_edge2_Node000002_Node000003"><a xlink:title=" ">
<path fill="none" stroke="#63b8ff" d="M196.1,-132.76C187.9,-130.42 179.46,-128.01 171.67,-125.79"/>
<polygon fill="#63b8ff" stroke="#63b8ff" points="195.03,-136.09 205.6,-135.46 196.95,-129.36 195.03,-136.09"/>
</a>
</g>
</g>
<!-- Node4&#45;&gt;Node3 -->
<g id="edge5_Node000004_Node000003" class="edge">
<title>Node4&#45;&gt;Node3</title>
<g id="a_edge5_Node000004_Node000003"><a xlink:title=" ">
<path fill="none" stroke="#63b8ff" d="M196.1,-100.56C187.9,-102.82 179.46,-105.14 171.67,-107.28"/>
<polygon fill="#63b8ff" stroke="#63b8ff" points="196.89,-103.97 205.6,-97.94 195.03,-97.22 196.89,-103.97"/>
</a>
</g>
</g>
<!-- Node4&#45;&gt;Node4 -->
<g id="edge4_Node000004_Node000004" class="edge">
<title>Node4&#45;&gt;Node4</title>
<g id="a_edge4_Node000004_Node000004"><a xlink:title=" ">
<path fill="none" stroke="#63b8ff" d="M259.41,-110.56C256.86,-114.23 250.85,-116.75 241.38,-116.75 223.54,-116.75 217.97,-107.81 224.66,-99.15"/>
<polygon fill="#63b8ff" stroke="#63b8ff" points="262.89,-110.18 258.27,-100.65 255.94,-110.99 262.89,-110.18"/>
</a>
</g>
</g>
<!-- Node5&#45;&gt;Node3 -->
<g id="edge11_Node000005_Node000003" class="edge">
<title>Node5&#45;&gt;Node3</title>
<g id="a_edge11_Node000005_Node000003"><a xlink:title=" ">
<path fill="none" stroke="#63b8ff" d="M212.49,-66.2C210.8,-67.27 209.12,-68.33 207.5,-69.38 188.89,-81.38 167.92,-95.82 154.06,-105.5"/>
<polygon fill="#63b8ff" stroke="#63b8ff" points="214.23,-69.24 220.9,-61.01 210.55,-63.29 214.23,-69.24"/>
</a>
</g>
</g>
<!-- Node6 -->
<g id="Node000006" class="node">
<title>Node6</title>
<g id="a_Node000006"><a xlink:href="app_8c.html#a980a551daeb256397f01e6faa91d49db" target="_top" xlink:title=" ">
<polygon fill="white" stroke="#666666" points="171.5,-20.75 103.75,-20.75 103.75,0 171.5,0 171.5,-20.75"/>
<text text-anchor="middle" x="137.62" y="-7.25" font-family="Helvetica,sans-Serif" font-size="10.00">w2c__f403</text>
</a>
</g>
</g>
<!-- Node5&#45;&gt;Node6 -->
<g id="edge7_Node000005_Node000006" class="edge">
<title>Node5&#45;&gt;Node6</title>
<g id="a_edge7_Node000005_Node000006"><a xlink:title=" ">
<path fill="none" stroke="#63b8ff" d="M201.35,-34.42C189.85,-30.01 177.49,-25.27 166.82,-21.18"/>
<polygon fill="#63b8ff" stroke="#63b8ff" points="200.03,-37.66 210.62,-37.97 202.53,-31.12 200.03,-37.66"/>
</a>
</g>
</g>
<!-- Node7 -->
<g id="Node000007" class="node">
<title>Node7</title>
<g id="a_Node000007"><a xlink:href="app_8c.html#a96302817f96aee4b42b2d1383eb34b00" target="_top" xlink:title=" ">
<polygon fill="white" stroke="#666666" points="171.5,-59.75 103.75,-59.75 103.75,-39 171.5,-39 171.5,-59.75"/>
<text text-anchor="middle" x="137.62" y="-46.25" font-family="Helvetica,sans-Serif" font-size="10.00">w2c__f462</text>
</a>
</g>
</g>
<!-- Node5&#45;&gt;Node7 -->
<g id="edge8_Node000005_Node000007" class="edge">
<title>Node5&#45;&gt;Node7</title>
<g id="a_edge8_Node000005_Node000007"><a xlink:title=" ">
<path fill="none" stroke="#63b8ff" d="M195.82,-49.38C187.71,-49.38 179.38,-49.38 171.67,-49.38"/>
<polygon fill="#63b8ff" stroke="#63b8ff" points="195.54,-52.88 205.54,-49.38 195.54,-45.88 195.54,-52.88"/>
</a>
</g>
</g>
<!-- Node8 -->
<g id="Node000008" class="node">
<title>Node8</title>
<g id="a_Node000008"><a xlink:href="app_8c.html#a1581df0bdfa942524e0a5dce91fd6b8e" target="_top" xlink:title=" ">
<polygon fill="white" stroke="#666666" points="67.75,-78.75 0,-78.75 0,-58 67.75,-58 67.75,-78.75"/>
<text text-anchor="middle" x="33.88" y="-65.25" font-family="Helvetica,sans-Serif" font-size="10.00">w2c__f253</text>
</a>
</g>
</g>
<!-- Node7&#45;&gt;Node8 -->
<g id="edge9_Node000007_Node000008" class="edge">
<title>Node7&#45;&gt;Node8</title>
<g id="a_edge9_Node000007_Node000008"><a xlink:title=" ">
<path fill="none" stroke="#63b8ff" d="M92.07,-57.69C83.96,-59.21 75.63,-60.77 67.92,-62.2"/>
<polygon fill="#63b8ff" stroke="#63b8ff" points="92.63,-61.15 101.82,-55.87 91.35,-54.27 92.63,-61.15"/>
</a>
</g>
</g>
<!-- Node9 -->
<g id="Node000009" class="node">
<title>Node9</title>
<g id="a_Node000009"><a xlink:href="app_8c.html#a05d83e696cfaa26355c9732ee9ea4cd0" target="_top" xlink:title=" ">
<polygon fill="white" stroke="#666666" points="67.75,-39.75 0,-39.75 0,-19 67.75,-19 67.75,-39.75"/>
<text text-anchor="middle" x="33.88" y="-26.25" font-family="Helvetica,sans-Serif" font-size="10.00">w2c__f454</text>
</a>
</g>
</g>
<!-- Node7&#45;&gt;Node9 -->
<g id="edge10_Node000007_Node000009" class="edge">
<title>Node7&#45;&gt;Node9</title>
<g id="a_edge10_Node000007_Node000009"><a xlink:title=" ">
<path fill="none" stroke="#63b8ff" d="M92.07,-40.62C83.96,-39.02 75.63,-37.38 67.92,-35.87"/>
<polygon fill="#63b8ff" stroke="#63b8ff" points="91.34,-44.04 101.82,-42.53 92.69,-37.17 91.34,-44.04"/>
</a>
</g>
</g>
<!-- Node10&#45;&gt;Node6 -->
<g id="edge13_Node000010_Node000006" class="edge">
<title>Node10&#45;&gt;Node6</title>
<g id="a_edge13_Node000010_Node000006"><a xlink:title=" ">
<path fill="none" stroke="#63b8ff" d="M195.82,-10.38C187.71,-10.38 179.38,-10.38 171.67,-10.38"/>
<polygon fill="#63b8ff" stroke="#63b8ff" points="195.54,-13.88 205.54,-10.38 195.54,-6.88 195.54,-13.88"/>
</a>
</g>
</g>
<!-- Node10&#45;&gt;Node7 -->
<g id="edge14_Node000010_Node000007" class="edge">
<title>Node10&#45;&gt;Node7</title>
<g id="a_edge14_Node000010_Node000007"><a xlink:title=" ">
<path fill="none" stroke="#63b8ff" d="M201.35,-25.33C189.85,-29.74 177.49,-34.48 166.82,-38.57"/>
<polygon fill="#63b8ff" stroke="#63b8ff" points="202.53,-28.63 210.62,-21.78 200.03,-22.09 202.53,-28.63"/>
</a>
</g>
</g>
</g>
</svg>
