<?xml version="1.0" encoding="UTF-8" standalone="no"?>
<!DOCTYPE svg PUBLIC "-//W3C//DTD SVG 1.1//EN"
 "http://www.w3.org/Graphics/SVG/1.1/DTD/svg11.dtd">
<!-- Generated by graphviz version 12.2.1 (0)
 -->
<!-- Title: wrap_w2c__f583 Pages: 1 -->
<svg width="728pt" height="183pt"
 viewBox="0.00 0.00 727.50 182.75" xmlns="http://www.w3.org/2000/svg" xmlns:xlink="http://www.w3.org/1999/xlink">
<g id="graph0" class="graph" transform="scale(1 1) rotate(0) translate(4 178.75)">
<title>wrap_w2c__f583</title>
<!-- Node1 -->
<g id="Node000001" class="node">
<title>Node1</title>
<g id="a_Node000001"><a xlink:title=" ">
<polygon fill="#999999" stroke="#666666" points="97,-115.75 0,-115.75 0,-95 97,-95 97,-115.75"/>
<text text-anchor="middle" x="48.5" y="-102.25" font-family="Helvetica,sans-Serif" font-size="10.00">wrap_w2c__f583</text>
</a>
</g>
</g>
<!-- Node2 -->
<g id="Node000002" class="node">
<title>Node2</title>
<g id="a_Node000002"><a xlink:href="app_8c.html#a9f493237918ad1921fef3b777f63fc6c" target="_top" xlink:title=" ">
<polygon fill="white" stroke="#666666" points="200.75,-115.75 133,-115.75 133,-95 200.75,-95 200.75,-115.75"/>
<text text-anchor="middle" x="166.88" y="-102.25" font-family="Helvetica,sans-Serif" font-size="10.00">w2c__f583</text>
</a>
</g>
</g>
<!-- Node1&#45;&gt;Node2 -->
<g id="edge1_Node000001_Node000002" class="edge">
<title>Node1&#45;&gt;Node2</title>
<g id="a_edge1_Node000001_Node000002"><a xlink:title=" ">
<path fill="none" stroke="#63b8ff" d="M97.17,-105.38C105.18,-105.38 113.47,-105.38 121.4,-105.38"/>
<polygon fill="#63b8ff" stroke="#63b8ff" points="121.17,-108.88 131.17,-105.38 121.17,-101.88 121.17,-108.88"/>
</a>
</g>
</g>
<!-- Node3 -->
<g id="Node000003" class="node">
<title>Node3</title>
<g id="a_Node000003"><a xlink:href="app_8c.html#a282da58cdb8a8d86b26b785358ce183a" target="_top" xlink:title=" ">
<polygon fill="white" stroke="#666666" points="304.5,-115.75 236.75,-115.75 236.75,-95 304.5,-95 304.5,-115.75"/>
<text text-anchor="middle" x="270.62" y="-102.25" font-family="Helvetica,sans-Serif" font-size="10.00">w2c__f504</text>
</a>
</g>
</g>
<!-- Node2&#45;&gt;Node3 -->
<g id="edge2_Node000002_Node000003" class="edge">
<title>Node2&#45;&gt;Node3</title>
<g id="a_edge2_Node000002_Node000003"><a xlink:title=" ">
<path fill="none" stroke="#63b8ff" d="M201.19,-105.38C208.82,-105.38 217.06,-105.38 225.08,-105.38"/>
<polygon fill="#63b8ff" stroke="#63b8ff" points="225.07,-108.88 235.07,-105.38 225.07,-101.88 225.07,-108.88"/>
</a>
</g>
</g>
<!-- Node4 -->
<g id="Node000004" class="node">
<title>Node4</title>
<g id="a_Node000004"><a xlink:href="app_8c.html#a1a8a1d528c65d63a630e19c3a4bdd098" target="_top" xlink:title=" ">
<polygon fill="white" stroke="#666666" points="408.25,-115.75 340.5,-115.75 340.5,-95 408.25,-95 408.25,-115.75"/>
<text text-anchor="middle" x="374.38" y="-102.25" font-family="Helvetica,sans-Serif" font-size="10.00">w2c__f557</text>
</a>
</g>
</g>
<!-- Node3&#45;&gt;Node4 -->
<g id="edge3_Node000003_Node000004" class="edge">
<title>Node3&#45;&gt;Node4</title>
<g id="a_edge3_Node000003_Node000004"><a xlink:title=" ">
<path fill="none" stroke="#63b8ff" d="M304.94,-105.38C312.57,-105.38 320.81,-105.38 328.83,-105.38"/>
<polygon fill="#63b8ff" stroke="#63b8ff" points="328.82,-108.88 338.82,-105.38 328.82,-101.88 328.82,-108.88"/>
</a>
</g>
</g>
<!-- Node5 -->
<g id="Node000005" class="node">
<title>Node5</title>
<g id="a_Node000005"><a xlink:href="app_8c.html#a0f7003812eaf983535ff7979fc047a21" target="_top" xlink:title=" ">
<polygon fill="white" stroke="#666666" points="512,-135.75 444.25,-135.75 444.25,-115 512,-115 512,-135.75"/>
<text text-anchor="middle" x="478.12" y="-122.25" font-family="Helvetica,sans-Serif" font-size="10.00">w2c__f353</text>
</a>
</g>
</g>
<!-- Node4&#45;&gt;Node5 -->
<g id="edge4_Node000004_Node000005" class="edge">
<title>Node4&#45;&gt;Node5</title>
<g id="a_edge4_Node000004_Node000005"><a xlink:title=" ">
<path fill="none" stroke="#63b8ff" d="M408.69,-111.92C416.41,-113.44 424.75,-115.08 432.86,-116.67"/>
<polygon fill="#63b8ff" stroke="#63b8ff" points="432.11,-120.09 442.6,-118.59 433.46,-113.22 432.11,-120.09"/>
</a>
</g>
</g>
<!-- Node10 -->
<g id="Node000010" class="node">
<title>Node10</title>
<g id="a_Node000010"><a xlink:href="app_8c.html#ac9cc84763a9c1933e50eedd7a06c17e2" target="_top" xlink:title=" ">
<polygon fill="white" stroke="#666666" points="512,-96.75 444.25,-96.75 444.25,-76 512,-76 512,-96.75"/>
<text text-anchor="middle" x="478.12" y="-83.25" font-family="Helvetica,sans-Serif" font-size="10.00">w2c__f480</text>
</a>
</g>
</g>
<!-- Node4&#45;&gt;Node10 -->
<g id="edge10_Node000004_Node000010" class="edge">
<title>Node4&#45;&gt;Node10</title>
<g id="a_edge10_Node000004_Node000010"><a xlink:title=" ">
<path fill="none" stroke="#63b8ff" d="M408.69,-99.15C416.41,-97.71 424.75,-96.16 432.86,-94.64"/>
<polygon fill="#63b8ff" stroke="#63b8ff" points="433.41,-98.1 442.59,-92.82 432.12,-91.22 433.41,-98.1"/>
</a>
</g>
</g>
<!-- Node6 -->
<g id="Node000006" class="node">
<title>Node6</title>
<g id="a_Node000006"><a xlink:href="app_8c.html#aaca5d5bcf49f2ca74019cf097750b9f3" target="_top" xlink:title=" ">
<polygon fill="white" stroke="#666666" points="615.75,-174.75 548,-174.75 548,-154 615.75,-154 615.75,-174.75"/>
<text text-anchor="middle" x="581.88" y="-161.25" font-family="Helvetica,sans-Serif" font-size="10.00">w2c__f258</text>
</a>
</g>
</g>
<!-- Node5&#45;&gt;Node6 -->
<g id="edge5_Node000005_Node000006" class="edge">
<title>Node5&#45;&gt;Node6</title>
<g id="a_edge5_Node000005_Node000006"><a xlink:title=" ">
<path fill="none" stroke="#63b8ff" d="M507.47,-136.24C518.16,-140.34 530.52,-145.08 542.01,-149.48"/>
<polygon fill="#63b8ff" stroke="#63b8ff" points="540.68,-152.72 551.27,-153.03 543.19,-146.18 540.68,-152.72"/>
</a>
</g>
</g>
<!-- Node9 -->
<g id="Node000009" class="node">
<title>Node9</title>
<g id="a_Node000009"><a xlink:href="app_8c.html#a4634342addbde677893ffcb45cf639dd" target="_top" xlink:title=" ">
<polygon fill="white" stroke="#666666" points="615.75,-135.75 548,-135.75 548,-115 615.75,-115 615.75,-135.75"/>
<text text-anchor="middle" x="581.88" y="-122.25" font-family="Helvetica,sans-Serif" font-size="10.00">w2c__f302</text>
</a>
</g>
</g>
<!-- Node5&#45;&gt;Node9 -->
<g id="edge8_Node000005_Node000009" class="edge">
<title>Node5&#45;&gt;Node9</title>
<g id="a_edge8_Node000005_Node000009"><a xlink:title=" ">
<path fill="none" stroke="#63b8ff" d="M512.44,-125.38C520.07,-125.38 528.31,-125.38 536.33,-125.38"/>
<polygon fill="#63b8ff" stroke="#63b8ff" points="536.32,-128.88 546.32,-125.38 536.32,-121.88 536.32,-128.88"/>
</a>
</g>
</g>
<!-- Node7 -->
<g id="Node000007" class="node">
<title>Node7</title>
<g id="a_Node000007"><a xlink:href="app_8c.html#a8d9f347f9a643f0ebfb53c4f54578ac4" target="_top" xlink:title=" ">
<polygon fill="white" stroke="#666666" points="719.5,-116.75 651.75,-116.75 651.75,-96 719.5,-96 719.5,-116.75"/>
<text text-anchor="middle" x="685.62" y="-103.25" font-family="Helvetica,sans-Serif" font-size="10.00">w2c__f304</text>
</a>
</g>
</g>
<!-- Node6&#45;&gt;Node7 -->
<g id="edge6_Node000006_Node000007" class="edge">
<title>Node6&#45;&gt;Node7</title>
<g id="a_edge6_Node000006_Node000007"><a xlink:title=" ">
<path fill="none" stroke="#63b8ff" d="M601.54,-153.74C616.79,-145.04 638.6,-132.61 656.05,-122.66"/>
<polygon fill="#63b8ff" stroke="#63b8ff" points="657.47,-125.88 664.42,-117.89 654,-119.8 657.47,-125.88"/>
</a>
</g>
</g>
<!-- Node8 -->
<g id="Node000008" class="node">
<title>Node8</title>
<g id="a_Node000008"><a xlink:href="app_8c.html#a881f0b113e93dce3ff52d04b435850f6" target="_top" xlink:title=" ">
<polygon fill="white" stroke="#666666" points="719.5,-174.75 651.75,-174.75 651.75,-154 719.5,-154 719.5,-174.75"/>
<text text-anchor="middle" x="685.62" y="-161.25" font-family="Helvetica,sans-Serif" font-size="10.00">w2c__f491</text>
</a>
</g>
</g>
<!-- Node6&#45;&gt;Node8 -->
<g id="edge7_Node000006_Node000008" class="edge">
<title>Node6&#45;&gt;Node8</title>
<g id="a_edge7_Node000006_Node000008"><a xlink:title=" ">
<path fill="none" stroke="#63b8ff" d="M616.19,-164.38C623.82,-164.38 632.06,-164.38 640.08,-164.38"/>
<polygon fill="#63b8ff" stroke="#63b8ff" points="640.07,-167.88 650.07,-164.38 640.07,-160.88 640.07,-167.88"/>
</a>
</g>
</g>
<!-- Node9&#45;&gt;Node7 -->
<g id="edge9_Node000009_Node000007" class="edge">
<title>Node9&#45;&gt;Node7</title>
<g id="a_edge9_Node000009_Node000007"><a xlink:title=" ">
<path fill="none" stroke="#63b8ff" d="M616.19,-119.15C623.91,-117.71 632.25,-116.16 640.36,-114.64"/>
<polygon fill="#63b8ff" stroke="#63b8ff" points="640.91,-118.1 650.09,-112.82 639.62,-111.22 640.91,-118.1"/>
</a>
</g>
</g>
<!-- Node10&#45;&gt;Node6 -->
<g id="edge13_Node000010_Node000006" class="edge">
<title>Node10&#45;&gt;Node6</title>
<g id="a_edge13_Node000010_Node000006"><a xlink:title=" ">
<path fill="none" stroke="#63b8ff" d="M498.82,-97.19C503.31,-99.96 507.95,-103.1 512,-106.38 530.1,-120.99 529.9,-129.76 548,-144.38 549.27,-145.4 550.59,-146.41 551.95,-147.4"/>
<polygon fill="#63b8ff" stroke="#63b8ff" points="549.66,-150.08 559.92,-152.72 553.55,-144.26 549.66,-150.08"/>
</a>
</g>
</g>
<!-- Node10&#45;&gt;Node7 -->
<g id="edge15_Node000010_Node000007" class="edge">
<title>Node10&#45;&gt;Node7</title>
<g id="a_edge15_Node000010_Node000007"><a xlink:title=" ">
<path fill="none" stroke="#63b8ff" d="M509.11,-75.5C537.07,-66.94 579.74,-57.89 615.75,-67.38 632.11,-71.68 648.66,-80.87 661.43,-89.24"/>
<polygon fill="#63b8ff" stroke="#63b8ff" points="659.32,-92.04 669.55,-94.81 663.29,-86.27 659.32,-92.04"/>
</a>
</g>
</g>
<!-- Node10&#45;&gt;Node9 -->
<g id="edge14_Node000010_Node000009" class="edge">
<title>Node10&#45;&gt;Node9</title>
<g id="a_edge14_Node000010_Node000009"><a xlink:title=" ">
<path fill="none" stroke="#63b8ff" d="M507.47,-97.24C518.16,-101.34 530.52,-106.08 542.01,-110.48"/>
<polygon fill="#63b8ff" stroke="#63b8ff" points="540.68,-113.72 551.27,-114.03 543.19,-107.18 540.68,-113.72"/>
</a>
</g>
</g>
<!-- Node11 -->
<g id="Node000011" class="node">
<title>Node11</title>
<g id="a_Node000011"><a xlink:href="app_8c.html#a0378208e0d5c0d1d6e7370f1c578fab3" target="_top" xlink:title=" ">
<polygon fill="white" stroke="#666666" points="615.75,-96.75 548,-96.75 548,-76 615.75,-76 615.75,-96.75"/>
<text text-anchor="middle" x="581.88" y="-83.25" font-family="Helvetica,sans-Serif" font-size="10.00">w2c__f216</text>
</a>
</g>
</g>
<!-- Node10&#45;&gt;Node11 -->
<g id="edge11_Node000010_Node000011" class="edge">
<title>Node10&#45;&gt;Node11</title>
<g id="a_edge11_Node000010_Node000011"><a xlink:title=" ">
<path fill="none" stroke="#63b8ff" d="M512.44,-86.38C520.07,-86.38 528.31,-86.38 536.33,-86.38"/>
<polygon fill="#63b8ff" stroke="#63b8ff" points="536.32,-89.88 546.32,-86.38 536.32,-82.88 536.32,-89.88"/>
</a>
</g>
</g>
<!-- Node12 -->
<g id="Node000012" class="node">
<title>Node12</title>
<g id="a_Node000012"><a xlink:href="app_8c.html#a674f6e81761467d0a8dc6d2a425eda9f" target="_top" xlink:title=" ">
<polygon fill="white" stroke="#666666" points="615.75,-20.75 548,-20.75 548,0 615.75,0 615.75,-20.75"/>
<text text-anchor="middle" x="581.88" y="-7.25" font-family="Helvetica,sans-Serif" font-size="10.00">w2c__f498</text>
</a>
</g>
</g>
<!-- Node10&#45;&gt;Node12 -->
<g id="edge16_Node000010_Node000012" class="edge">
<title>Node10&#45;&gt;Node12</title>
<g id="a_edge16_Node000010_Node000012"><a xlink:title=" ">
<path fill="none" stroke="#63b8ff" d="M493.32,-75.55C507.21,-64.99 528.99,-48.49 548,-34.38 550.86,-32.25 553.86,-30.04 556.85,-27.85"/>
<polygon fill="#63b8ff" stroke="#63b8ff" points="558.88,-30.7 564.89,-21.97 554.75,-25.05 558.88,-30.7"/>
</a>
</g>
</g>
<!-- Node11&#45;&gt;Node7 -->
<g id="edge12_Node000011_Node000007" class="edge">
<title>Node11&#45;&gt;Node7</title>
<g id="a_edge12_Node000011_Node000007"><a xlink:title=" ">
<path fill="none" stroke="#63b8ff" d="M616.19,-92.92C623.91,-94.44 632.25,-96.08 640.36,-97.67"/>
<polygon fill="#63b8ff" stroke="#63b8ff" points="639.61,-101.09 650.1,-99.59 640.96,-94.22 639.61,-101.09"/>
</a>
</g>
</g>
</g>
</svg>
