<?xml version="1.0" encoding="UTF-8" standalone="no"?>
<!DOCTYPE svg PUBLIC "-//W3C//DTD SVG 1.1//EN"
 "http://www.w3.org/Graphics/SVG/1.1/DTD/svg11.dtd">
<!-- Generated by graphviz version 12.2.1 (0)
 -->
<!-- Title: w2c__f397 Pages: 1 -->
<svg width="387pt" height="120pt"
 viewBox="0.00 0.00 387.00 119.97" xmlns="http://www.w3.org/2000/svg" xmlns:xlink="http://www.w3.org/1999/xlink">
<g id="graph0" class="graph" transform="scale(1 1) rotate(0) translate(4 115.97)">
<title>w2c__f397</title>
<!-- Node1 -->
<g id="Node000001" class="node">
<title>Node1</title>
<g id="a_Node000001"><a xlink:title=" ">
<polygon fill="#999999" stroke="#666666" points="67.75,-54.97 0,-54.97 0,-34.22 67.75,-34.22 67.75,-54.97"/>
<text text-anchor="middle" x="33.88" y="-41.47" font-family="Helvetica,sans-Serif" font-size="10.00">w2c__f397</text>
</a>
</g>
</g>
<!-- Node2 -->
<g id="Node000002" class="node">
<title>Node2</title>
<g id="a_Node000002"><a xlink:href="app_8c.html#ad1c5cf7c8fbc4fcb5006841674996abd" target="_top" xlink:title=" ">
<polygon fill="white" stroke="#666666" points="171.5,-111.97 103.75,-111.97 103.75,-91.22 171.5,-91.22 171.5,-111.97"/>
<text text-anchor="middle" x="137.62" y="-98.47" font-family="Helvetica,sans-Serif" font-size="10.00">w2c__f253</text>
</a>
</g>
</g>
<!-- Node1&#45;&gt;Node2 -->
<g id="edge1_Node000001_Node000002" class="edge">
<title>Node1&#45;&gt;Node2</title>
<g id="a_edge1_Node000001_Node000002"><a xlink:title=" ">
<path fill="none" stroke="#63b8ff" d="M54.01,-55.32C69.12,-63.79 90.45,-75.73 107.65,-85.37"/>
<polygon fill="#63b8ff" stroke="#63b8ff" points="105.47,-88.16 115.91,-89.99 108.89,-82.05 105.47,-88.16"/>
</a>
</g>
</g>
<!-- Node3 -->
<g id="Node000003" class="node">
<title>Node3</title>
<g id="a_Node000003"><a xlink:href="app_8c.html#aee003829aebed6402992d02b46e1a568" target="_top" xlink:title=" ">
<polygon fill="white" stroke="#666666" points="275.25,-73.97 207.5,-73.97 207.5,-53.22 275.25,-53.22 275.25,-73.97"/>
<text text-anchor="middle" x="241.38" y="-60.47" font-family="Helvetica,sans-Serif" font-size="10.00">w2c__f347</text>
</a>
</g>
</g>
<!-- Node1&#45;&gt;Node3 -->
<g id="edge5_Node000001_Node000003" class="edge">
<title>Node1&#45;&gt;Node3</title>
<g id="a_edge5_Node000001_Node000003"><a xlink:title=" ">
<path fill="none" stroke="#63b8ff" d="M67.89,-47.65C102.54,-50.86 157.23,-55.91 195.71,-59.47"/>
<polygon fill="#63b8ff" stroke="#63b8ff" points="195.31,-62.95 205.59,-60.38 195.96,-55.98 195.31,-62.95"/>
</a>
</g>
</g>
<!-- Node4 -->
<g id="Node000004" class="node">
<title>Node4</title>
<g id="a_Node000004"><a xlink:href="app_8c.html#ab78a9ba6819f5a9d3b53302097151d33" target="_top" xlink:title=" ">
<polygon fill="white" stroke="#666666" points="379,-54.97 311.25,-54.97 311.25,-34.22 379,-34.22 379,-54.97"/>
<text text-anchor="middle" x="345.12" y="-41.47" font-family="Helvetica,sans-Serif" font-size="10.00">w2c__f481</text>
</a>
</g>
</g>
<!-- Node1&#45;&gt;Node4 -->
<g id="edge6_Node000001_Node000004" class="edge">
<title>Node1&#45;&gt;Node4</title>
<g id="a_edge6_Node000001_Node000004"><a xlink:title=" ">
<path fill="none" stroke="#63b8ff" d="M49.26,-33.81C62.6,-24.53 83.38,-11.85 103.75,-6.6 174.96,11.74 260.45,-12.42 307.89,-29.77"/>
<polygon fill="#63b8ff" stroke="#63b8ff" points="306.53,-33 317.12,-33.25 309,-26.45 306.53,-33"/>
</a>
</g>
</g>
<!-- Node5 -->
<g id="Node000005" class="node">
<title>Node5</title>
<g id="a_Node000005"><a xlink:href="app_8c.html#aa3f7fb2ace6a87e61320ef7401dfd66f" target="_top" xlink:title=" ">
<polygon fill="white" stroke="#666666" points="171.5,-35.97 103.75,-35.97 103.75,-15.22 171.5,-15.22 171.5,-35.97"/>
<text text-anchor="middle" x="137.62" y="-22.47" font-family="Helvetica,sans-Serif" font-size="10.00">w2c__f489</text>
</a>
</g>
</g>
<!-- Node1&#45;&gt;Node5 -->
<g id="edge7_Node000001_Node000005" class="edge">
<title>Node1&#45;&gt;Node5</title>
<g id="a_edge7_Node000001_Node000005"><a xlink:title=" ">
<path fill="none" stroke="#63b8ff" d="M68.19,-38.38C75.91,-36.94 84.25,-35.38 92.36,-33.87"/>
<polygon fill="#63b8ff" stroke="#63b8ff" points="92.91,-37.32 102.09,-32.05 91.62,-30.44 92.91,-37.32"/>
</a>
</g>
</g>
<!-- Node2&#45;&gt;Node3 -->
<g id="edge2_Node000002_Node000003" class="edge">
<title>Node2&#45;&gt;Node3</title>
<g id="a_edge2_Node000002_Node000003"><a xlink:title=" ">
<path fill="none" stroke="#63b8ff" d="M167.51,-90.81C177.82,-86.96 189.63,-82.55 200.69,-78.42"/>
<polygon fill="#63b8ff" stroke="#63b8ff" points="201.86,-81.72 210,-74.94 199.41,-75.16 201.86,-81.72"/>
</a>
</g>
</g>
<!-- Node2&#45;&gt;Node4 -->
<g id="edge4_Node000002_Node000004" class="edge">
<title>Node2&#45;&gt;Node4</title>
<g id="a_edge4_Node000002_Node000004"><a xlink:title=" ">
<path fill="none" stroke="#63b8ff" d="M171.97,-100.36C200.12,-98.51 241.17,-93.94 275.25,-82.6 290.44,-77.55 306.15,-69.16 318.73,-61.55"/>
<polygon fill="#63b8ff" stroke="#63b8ff" points="320.59,-64.51 327.19,-56.23 316.86,-58.58 320.59,-64.51"/>
</a>
</g>
</g>
<!-- Node3&#45;&gt;Node4 -->
<g id="edge3_Node000003_Node000004" class="edge">
<title>Node3&#45;&gt;Node4</title>
<g id="a_edge3_Node000003_Node000004"><a xlink:title=" ">
<path fill="none" stroke="#63b8ff" d="M275.69,-57.38C283.41,-55.94 291.75,-54.38 299.86,-52.87"/>
<polygon fill="#63b8ff" stroke="#63b8ff" points="300.41,-56.32 309.59,-51.05 299.12,-49.44 300.41,-56.32"/>
</a>
</g>
</g>
<!-- Node5&#45;&gt;Node3 -->
<g id="edge8_Node000005_Node000003" class="edge">
<title>Node5&#45;&gt;Node3</title>
<g id="a_edge8_Node000005_Node000003"><a xlink:title=" ">
<path fill="none" stroke="#63b8ff" d="M167.51,-36.39C177.82,-40.24 189.63,-44.65 200.69,-48.78"/>
<polygon fill="#63b8ff" stroke="#63b8ff" points="199.41,-52.04 210,-52.26 201.86,-45.48 199.41,-52.04"/>
</a>
</g>
</g>
<!-- Node5&#45;&gt;Node4 -->
<g id="edge9_Node000005_Node000004" class="edge">
<title>Node5&#45;&gt;Node4</title>
<g id="a_edge9_Node000005_Node000004"><a xlink:title=" ">
<path fill="none" stroke="#63b8ff" d="M171.64,-28.65C206.29,-31.86 260.98,-36.91 299.46,-40.47"/>
<polygon fill="#63b8ff" stroke="#63b8ff" points="299.06,-43.95 309.34,-41.38 299.71,-36.98 299.06,-43.95"/>
</a>
</g>
</g>
</g>
</svg>
