<?xml version="1.0" encoding="UTF-8" standalone="no"?>
<!DOCTYPE svg PUBLIC "-//W3C//DTD SVG 1.1//EN"
 "http://www.w3.org/Graphics/SVG/1.1/DTD/svg11.dtd">
<!-- Generated by graphviz version 12.2.1 (0)
 -->
<!-- Title: w2c__f482 Pages: 1 -->
<svg width="579pt" height="258pt"
 viewBox="0.00 0.00 578.50 257.75" xmlns="http://www.w3.org/2000/svg" xmlns:xlink="http://www.w3.org/1999/xlink">
<g id="graph0" class="graph" transform="scale(1 1) rotate(0) translate(4 253.75)">
<title>w2c__f482</title>
<!-- Node1 -->
<g id="Node000001" class="node">
<title>Node1</title>
<g id="a_Node000001"><a xlink:title=" ">
<polygon fill="#999999" stroke="#666666" points="570.5,-116.75 502.75,-116.75 502.75,-96 570.5,-96 570.5,-116.75"/>
<text text-anchor="middle" x="536.62" y="-103.25" font-family="Helvetica,sans-Serif" font-size="10.00">w2c__f482</text>
</a>
</g>
</g>
<!-- Node2 -->
<g id="Node000002" class="node">
<title>Node2</title>
<g id="a_Node000002"><a xlink:href="app_8c.html#a3782bf9bcaf4b3ad28b22b08c0d902e6" target="_top" xlink:title=" ">
<polygon fill="white" stroke="#666666" points="319.12,-249.75 251.38,-249.75 251.38,-229 319.12,-229 319.12,-249.75"/>
<text text-anchor="middle" x="285.25" y="-236.25" font-family="Helvetica,sans-Serif" font-size="10.00">w2c__f267</text>
</a>
</g>
</g>
<!-- Node1&#45;&gt;Node2 -->
<g id="edge1_Node000001_Node000002" class="edge">
<title>Node1&#45;&gt;Node2</title>
<g id="a_edge1_Node000001_Node000002"><a xlink:title=" ">
<path fill="none" stroke="#63b8ff" d="M527.72,-127.62C517.54,-151.83 497.41,-190.61 466.75,-210.38 421.8,-239.35 357.82,-242.75 319.34,-241.68"/>
<polygon fill="#63b8ff" stroke="#63b8ff" points="530.93,-129.04 531.37,-118.45 524.42,-126.45 530.93,-129.04"/>
</a>
</g>
</g>
<!-- Node3 -->
<g id="Node000003" class="node">
<title>Node3</title>
<g id="a_Node000003"><a xlink:href="app_8c.html#a114660805d6920291a2827ae740d4777" target="_top" xlink:title=" ">
<polygon fill="white" stroke="#666666" points="200.75,-173.75 133,-173.75 133,-153 200.75,-153 200.75,-173.75"/>
<text text-anchor="middle" x="166.88" y="-160.25" font-family="Helvetica,sans-Serif" font-size="10.00">w2c__f571</text>
</a>
</g>
</g>
<!-- Node1&#45;&gt;Node3 -->
<g id="edge16_Node000001_Node000003" class="edge">
<title>Node1&#45;&gt;Node3</title>
<g id="a_edge16_Node000001_Node000003"><a xlink:title=" ">
<path fill="none" stroke="#63b8ff" d="M491.07,-102.79C431.5,-99.49 323.34,-98.77 236.75,-127.38 218.05,-133.56 198.27,-144.4 184.74,-152.57"/>
<polygon fill="#63b8ff" stroke="#63b8ff" points="490.62,-106.27 500.81,-103.39 491.04,-99.28 490.62,-106.27"/>
</a>
</g>
</g>
<!-- Node5 -->
<g id="Node000005" class="node">
<title>Node5</title>
<g id="a_Node000005"><a xlink:href="app_8c.html#a7836d11fc7a27305570f2647bd815b60" target="_top" xlink:title=" ">
<polygon fill="white" stroke="#666666" points="452.12,-201.75 384.38,-201.75 384.38,-181 452.12,-181 452.12,-201.75"/>
<text text-anchor="middle" x="418.25" y="-188.25" font-family="Helvetica,sans-Serif" font-size="10.00">w2c__f317</text>
</a>
</g>
</g>
<!-- Node1&#45;&gt;Node5 -->
<g id="edge5_Node000001_Node000005" class="edge">
<title>Node1&#45;&gt;Node5</title>
<g id="a_edge5_Node000001_Node000005"><a xlink:title=" ">
<path fill="none" stroke="#63b8ff" d="M514.87,-124.48C501.49,-135.83 483.52,-150.52 466.75,-162.38 457.6,-168.85 446.99,-175.41 438.12,-180.65"/>
<polygon fill="#63b8ff" stroke="#63b8ff" points="516.87,-127.37 522.18,-118.21 512.31,-122.06 516.87,-127.37"/>
</a>
</g>
</g>
<!-- Node7 -->
<g id="Node000007" class="node">
<title>Node7</title>
<g id="a_Node000007"><a xlink:href="app_8c.html#a5677ffd129da8cd63b876545b8187d77" target="_top" xlink:title=" ">
<polygon fill="white" stroke="#666666" points="452.12,-59.75 384.38,-59.75 384.38,-39 452.12,-39 452.12,-59.75"/>
<text text-anchor="middle" x="418.25" y="-46.25" font-family="Helvetica,sans-Serif" font-size="10.00">w2c__f367</text>
</a>
</g>
</g>
<!-- Node1&#45;&gt;Node7 -->
<g id="edge9_Node000001_Node000007" class="edge">
<title>Node1&#45;&gt;Node7</title>
<g id="a_edge9_Node000001_Node000007"><a xlink:title=" ">
<path fill="none" stroke="#63b8ff" d="M503.37,-90.58C483.62,-80.9 458.86,-68.78 441.33,-60.19"/>
<polygon fill="#63b8ff" stroke="#63b8ff" points="501.58,-93.6 512.1,-94.85 504.66,-87.31 501.58,-93.6"/>
</a>
</g>
</g>
<!-- Node11 -->
<g id="Node000011" class="node">
<title>Node11</title>
<g id="a_Node000011"><a xlink:href="app_8c.html#abcef1888868558877641082d8a7ec127" target="_top" xlink:title=" ">
<polygon fill="white" stroke="#666666" points="452.12,-135.75 384.38,-135.75 384.38,-115 452.12,-115 452.12,-135.75"/>
<text text-anchor="middle" x="418.25" y="-122.25" font-family="Helvetica,sans-Serif" font-size="10.00">w2c__f369</text>
</a>
</g>
</g>
<!-- Node1&#45;&gt;Node11 -->
<g id="edge13_Node000001_Node000011" class="edge">
<title>Node1&#45;&gt;Node11</title>
<g id="a_edge13_Node000001_Node000011"><a xlink:title=" ">
<path fill="none" stroke="#63b8ff" d="M491.3,-113.61C478.46,-115.71 464.66,-117.96 452.6,-119.93"/>
<polygon fill="#63b8ff" stroke="#63b8ff" points="491.48,-117.13 500.78,-112.06 490.35,-110.22 491.48,-117.13"/>
</a>
</g>
</g>
<!-- Node12 -->
<g id="Node000012" class="node">
<title>Node12</title>
<g id="a_Node000012"><a xlink:href="app_8c.html#a0eafec26a92007b32ab644aaba981e1d" target="_top" xlink:title=" ">
<polygon fill="white" stroke="#666666" points="466.75,-20.75 369.75,-20.75 369.75,0 466.75,0 466.75,-20.75"/>
<text text-anchor="middle" x="418.25" y="-7.25" font-family="Helvetica,sans-Serif" font-size="10.00">wrap_w2c__f482</text>
</a>
</g>
</g>
<!-- Node1&#45;&gt;Node12 -->
<g id="edge17_Node000001_Node000012" class="edge">
<title>Node1&#45;&gt;Node12</title>
<g id="a_edge17_Node000001_Node000012"><a xlink:title=" ">
<path fill="none" stroke="#63b8ff" d="M521.73,-86.73C509.01,-69.93 488.85,-46.04 466.75,-30.38 461.79,-26.86 456.11,-23.8 450.44,-21.2"/>
<polygon fill="#63b8ff" stroke="#63b8ff" points="518.68,-88.49 527.42,-94.47 524.32,-84.34 518.68,-88.49"/>
</a>
</g>
</g>
<!-- Node2&#45;&gt;Node3 -->
<g id="edge2_Node000002_Node000003" class="edge">
<title>Node2&#45;&gt;Node3</title>
<g id="a_edge2_Node000002_Node000003"><a xlink:title=" ">
<path fill="none" stroke="#63b8ff" d="M251.17,-223.62C246.26,-221.01 241.31,-218.22 236.75,-215.38 216.15,-202.54 194.04,-185.12 180.58,-174.07"/>
<polygon fill="#63b8ff" stroke="#63b8ff" points="249.24,-226.57 259.74,-228.02 252.44,-220.34 249.24,-226.57"/>
</a>
</g>
</g>
<!-- Node3&#45;&gt;Node3 -->
<g id="edge3_Node000003_Node000003" class="edge">
<title>Node3&#45;&gt;Node3</title>
<g id="a_edge3_Node000003_Node000003"><a xlink:title=" ">
<path fill="none" stroke="#63b8ff" d="M187.7,-185.24C184.94,-189.08 178,-191.75 166.88,-191.75 146.53,-191.75 140.17,-182.81 147.8,-174.15"/>
<polygon fill="#63b8ff" stroke="#63b8ff" points="191.21,-184.97 186.19,-175.64 184.29,-186.07 191.21,-184.97"/>
</a>
</g>
</g>
<!-- Node4 -->
<g id="Node000004" class="node">
<title>Node4</title>
<g id="a_Node000004"><a xlink:href="app_8c.html#a7641dd505d5bad3754a4d32138de0570" target="_top" xlink:title=" ">
<polygon fill="white" stroke="#666666" points="97,-173.75 0,-173.75 0,-153 97,-153 97,-173.75"/>
<text text-anchor="middle" x="48.5" y="-160.25" font-family="Helvetica,sans-Serif" font-size="10.00">wrap_w2c__f571</text>
</a>
</g>
</g>
<!-- Node3&#45;&gt;Node4 -->
<g id="edge4_Node000003_Node000004" class="edge">
<title>Node3&#45;&gt;Node4</title>
<g id="a_edge4_Node000003_Node000004"><a xlink:title=" ">
<path fill="none" stroke="#63b8ff" d="M121.28,-163.38C113.39,-163.38 105.14,-163.38 97.16,-163.38"/>
<polygon fill="#63b8ff" stroke="#63b8ff" points="121.01,-166.88 131.01,-163.38 121.01,-159.88 121.01,-166.88"/>
</a>
</g>
</g>
<!-- Node5&#45;&gt;Node2 -->
<g id="edge6_Node000005_Node000002" class="edge">
<title>Node5&#45;&gt;Node2</title>
<g id="a_edge6_Node000005_Node000002"><a xlink:title=" ">
<path fill="none" stroke="#63b8ff" d="M377.24,-206.04C357.35,-213.32 333.73,-221.98 315.55,-228.64"/>
<polygon fill="#63b8ff" stroke="#63b8ff" points="378.24,-209.39 386.43,-202.67 375.84,-202.82 378.24,-209.39"/>
</a>
</g>
</g>
<!-- Node5&#45;&gt;Node3 -->
<g id="edge7_Node000005_Node000003" class="edge">
<title>Node5&#45;&gt;Node3</title>
<g id="a_edge7_Node000005_Node000003"><a xlink:title=" ">
<path fill="none" stroke="#63b8ff" d="M372.78,-191.86C336.07,-191.62 282.73,-189.77 236.75,-182.38 224.99,-180.48 212.37,-177.34 201.18,-174.15"/>
<polygon fill="#63b8ff" stroke="#63b8ff" points="372.56,-195.36 382.57,-191.89 372.58,-188.36 372.56,-195.36"/>
</a>
</g>
</g>
<!-- Node6 -->
<g id="Node000006" class="node">
<title>Node6</title>
<g id="a_Node000006"><a xlink:href="app_8c.html#af1a4d535e54a4a75e6c69145b6c7cbe3" target="_top" xlink:title=" ">
<polygon fill="white" stroke="#666666" points="333.75,-173.75 236.75,-173.75 236.75,-153 333.75,-153 333.75,-173.75"/>
<text text-anchor="middle" x="285.25" y="-160.25" font-family="Helvetica,sans-Serif" font-size="10.00">wrap_w2c__f317</text>
</a>
</g>
</g>
<!-- Node5&#45;&gt;Node6 -->
<g id="edge8_Node000005_Node000006" class="edge">
<title>Node5&#45;&gt;Node6</title>
<g id="a_edge8_Node000005_Node000006"><a xlink:title=" ">
<path fill="none" stroke="#63b8ff" d="M373.08,-181.93C360.56,-179.26 346.88,-176.33 334.15,-173.61"/>
<polygon fill="#63b8ff" stroke="#63b8ff" points="372.2,-185.33 382.71,-183.99 373.67,-178.48 372.2,-185.33"/>
</a>
</g>
</g>
<!-- Node8 -->
<g id="Node000008" class="node">
<title>Node8</title>
<g id="a_Node000008"><a xlink:href="app_8c.html#ac863989691d4c389f80374209c220171" target="_top" xlink:title=" ">
<polygon fill="white" stroke="#666666" points="316.5,-20.75 254,-20.75 254,0 316.5,0 316.5,-20.75"/>
<text text-anchor="middle" x="285.25" y="-7.25" font-family="Helvetica,sans-Serif" font-size="10.00">w2c__c_0</text>
</a>
</g>
</g>
<!-- Node7&#45;&gt;Node8 -->
<g id="edge10_Node000007_Node000008" class="edge">
<title>Node7&#45;&gt;Node8</title>
<g id="a_edge10_Node000007_Node000008"><a xlink:title=" ">
<path fill="none" stroke="#63b8ff" d="M373.29,-36.29C354.67,-30.74 333.44,-24.42 316.6,-19.41"/>
<polygon fill="#63b8ff" stroke="#63b8ff" points="372.16,-39.6 382.74,-39.1 374.16,-32.89 372.16,-39.6"/>
</a>
</g>
</g>
<!-- Node10 -->
<g id="Node000010" class="node">
<title>Node10</title>
<g id="a_Node000010"><a xlink:href="app_8c.html#a8f64ccad6c506a1ca514ba4f43e5211c" target="_top" xlink:title=" ">
<polygon fill="white" stroke="#666666" points="333.75,-59.75 236.75,-59.75 236.75,-39 333.75,-39 333.75,-59.75"/>
<text text-anchor="middle" x="285.25" y="-46.25" font-family="Helvetica,sans-Serif" font-size="10.00">wrap_w2c__f367</text>
</a>
</g>
</g>
<!-- Node7&#45;&gt;Node10 -->
<g id="edge12_Node000007_Node000010" class="edge">
<title>Node7&#45;&gt;Node10</title>
<g id="a_edge12_Node000007_Node000010"><a xlink:title=" ">
<path fill="none" stroke="#63b8ff" d="M372.7,-49.38C360.28,-49.38 346.75,-49.38 334.15,-49.38"/>
<polygon fill="#63b8ff" stroke="#63b8ff" points="372.68,-52.88 382.68,-49.38 372.68,-45.88 372.68,-52.88"/>
</a>
</g>
</g>
<!-- Node9 -->
<g id="Node000009" class="node">
<title>Node9</title>
<g id="a_Node000009"><a xlink:href="app_8c.html#ab1e039392ea68017ab8a6063263b147d" target="_top" xlink:title=" ">
<polygon fill="white" stroke="#666666" points="192.5,-20.75 141.25,-20.75 141.25,0 192.5,0 192.5,-20.75"/>
<text text-anchor="middle" x="166.88" y="-7.25" font-family="Helvetica,sans-Serif" font-size="10.00">w2c__c</text>
</a>
</g>
</g>
<!-- Node8&#45;&gt;Node9 -->
<g id="edge11_Node000008_Node000009" class="edge">
<title>Node8&#45;&gt;Node9</title>
<g id="a_edge11_Node000008_Node000009"><a xlink:title=" ">
<path fill="none" stroke="#63b8ff" d="M242.53,-10.38C225.87,-10.38 207.24,-10.38 192.76,-10.38"/>
<polygon fill="#63b8ff" stroke="#63b8ff" points="242.16,-13.88 252.16,-10.38 242.16,-6.88 242.16,-13.88"/>
</a>
</g>
</g>
<!-- Node11&#45;&gt;Node3 -->
<g id="edge15_Node000011_Node000003" class="edge">
<title>Node11&#45;&gt;Node3</title>
<g id="a_edge15_Node000011_Node000003"><a xlink:title=" ">
<path fill="none" stroke="#63b8ff" d="M372.77,-128.01C336.05,-130.68 282.71,-135.68 236.75,-144.38 225.05,-146.59 212.44,-149.81 201.25,-152.98"/>
<polygon fill="#63b8ff" stroke="#63b8ff" points="372.83,-131.52 382.57,-127.33 372.35,-124.53 372.83,-131.52"/>
</a>
</g>
</g>
<!-- Node11&#45;&gt;Node11 -->
<g id="edge14_Node000011_Node000011" class="edge">
<title>Node11&#45;&gt;Node11</title>
<g id="a_edge14_Node000011_Node000011"><a xlink:title=" ">
<path fill="none" stroke="#63b8ff" d="M439.08,-147.24C436.32,-151.08 429.38,-153.75 418.25,-153.75 397.9,-153.75 391.55,-144.81 399.18,-136.15"/>
<polygon fill="#63b8ff" stroke="#63b8ff" points="442.58,-146.97 437.56,-137.64 435.67,-148.07 442.58,-146.97"/>
</a>
</g>
</g>
</g>
</svg>
