<?xml version="1.0" encoding="UTF-8" standalone="no"?>
<!DOCTYPE svg PUBLIC "-//W3C//DTD SVG 1.1//EN"
 "http://www.w3.org/Graphics/SVG/1.1/DTD/svg11.dtd">
<!-- Generated by graphviz version 12.2.1 (0)
 -->
<!-- Title: w2c__f403 Pages: 1 -->
<svg width="802pt" height="183pt"
 viewBox="0.00 0.00 802.00 182.75" xmlns="http://www.w3.org/2000/svg" xmlns:xlink="http://www.w3.org/1999/xlink">
<g id="graph0" class="graph" transform="scale(1 1) rotate(0) translate(4 178.75)">
<title>w2c__f403</title>
<!-- Node1 -->
<g id="Node000001" class="node">
<title>Node1</title>
<g id="a_Node000001"><a xlink:title=" ">
<polygon fill="#999999" stroke="#666666" points="67.75,-77.75 0,-77.75 0,-57 67.75,-57 67.75,-77.75"/>
<text text-anchor="middle" x="33.88" y="-64.25" font-family="Helvetica,sans-Serif" font-size="10.00">w2c__f403</text>
</a>
</g>
</g>
<!-- Node2 -->
<g id="Node000002" class="node">
<title>Node2</title>
<g id="a_Node000002"><a xlink:href="app_8c.html#a8d133b0dcb7130bbc0a48ea5c1975662" target="_top" xlink:title=" ">
<polygon fill="white" stroke="#666666" points="171.5,-58.75 103.75,-58.75 103.75,-38 171.5,-38 171.5,-58.75"/>
<text text-anchor="middle" x="137.62" y="-45.25" font-family="Helvetica,sans-Serif" font-size="10.00">w2c__f436</text>
</a>
</g>
</g>
<!-- Node1&#45;&gt;Node2 -->
<g id="edge1_Node000001_Node000002" class="edge">
<title>Node1&#45;&gt;Node2</title>
<g id="a_edge1_Node000001_Node000002"><a xlink:title=" ">
<path fill="none" stroke="#63b8ff" d="M68.19,-61.15C75.91,-59.71 84.25,-58.16 92.36,-56.64"/>
<polygon fill="#63b8ff" stroke="#63b8ff" points="92.91,-60.1 102.09,-54.82 91.62,-53.22 92.91,-60.1"/>
</a>
</g>
</g>
<!-- Node6 -->
<g id="Node000006" class="node">
<title>Node6</title>
<g id="a_Node000006"><a xlink:href="app_8c.html#a282da58cdb8a8d86b26b785358ce183a" target="_top" xlink:title=" ">
<polygon fill="white" stroke="#666666" points="379,-96.75 311.25,-96.75 311.25,-76 379,-76 379,-96.75"/>
<text text-anchor="middle" x="345.12" y="-83.25" font-family="Helvetica,sans-Serif" font-size="10.00">w2c__f504</text>
</a>
</g>
</g>
<!-- Node1&#45;&gt;Node6 -->
<g id="edge20_Node000001_Node000006" class="edge">
<title>Node1&#45;&gt;Node6</title>
<g id="a_edge20_Node000001_Node000006"><a xlink:title=" ">
<path fill="none" stroke="#63b8ff" d="M67.97,-69.41C123.86,-72.84 236.97,-79.79 299.7,-83.65"/>
<polygon fill="#63b8ff" stroke="#63b8ff" points="299.09,-87.11 309.29,-84.23 299.52,-80.13 299.09,-87.11"/>
</a>
</g>
</g>
<!-- Node3 -->
<g id="Node000003" class="node">
<title>Node3</title>
<g id="a_Node000003"><a xlink:href="app_8c.html#a0378208e0d5c0d1d6e7370f1c578fab3" target="_top" xlink:title=" ">
<polygon fill="white" stroke="#666666" points="690.25,-20.75 622.5,-20.75 622.5,0 690.25,0 690.25,-20.75"/>
<text text-anchor="middle" x="656.38" y="-7.25" font-family="Helvetica,sans-Serif" font-size="10.00">w2c__f216</text>
</a>
</g>
</g>
<!-- Node2&#45;&gt;Node3 -->
<g id="edge2_Node000002_Node000003" class="edge">
<title>Node2&#45;&gt;Node3</title>
<g id="a_edge2_Node000002_Node000003"><a xlink:title=" ">
<path fill="none" stroke="#63b8ff" d="M171.74,-38.39C212.06,-27.13 282.45,-10.38 344.12,-10.38 344.12,-10.38 344.12,-10.38 449.88,-10.38 505.36,-10.38 569.27,-10.38 610.89,-10.38"/>
<polygon fill="#63b8ff" stroke="#63b8ff" points="610.76,-13.88 620.76,-10.38 610.76,-6.88 610.76,-13.88"/>
</a>
</g>
</g>
<!-- Node5 -->
<g id="Node000005" class="node">
<title>Node5</title>
<g id="a_Node000005"><a xlink:href="app_8c.html#a8ddfdaf7faae4bc857dc43f2691b9dbe" target="_top" xlink:title=" ">
<polygon fill="white" stroke="#666666" points="275.25,-58.75 207.5,-58.75 207.5,-38 275.25,-38 275.25,-58.75"/>
<text text-anchor="middle" x="241.38" y="-45.25" font-family="Helvetica,sans-Serif" font-size="10.00">w2c__f306</text>
</a>
</g>
</g>
<!-- Node2&#45;&gt;Node5 -->
<g id="edge4_Node000002_Node000005" class="edge">
<title>Node2&#45;&gt;Node5</title>
<g id="a_edge4_Node000002_Node000005"><a xlink:title=" ">
<path fill="none" stroke="#63b8ff" d="M171.94,-48.38C179.57,-48.38 187.81,-48.38 195.83,-48.38"/>
<polygon fill="#63b8ff" stroke="#63b8ff" points="195.82,-51.88 205.82,-48.38 195.82,-44.88 195.82,-51.88"/>
</a>
</g>
</g>
<!-- Node4 -->
<g id="Node000004" class="node">
<title>Node4</title>
<g id="a_Node000004"><a xlink:href="app_8c.html#a8d9f347f9a643f0ebfb53c4f54578ac4" target="_top" xlink:title=" ">
<polygon fill="white" stroke="#666666" points="794,-116.75 726.25,-116.75 726.25,-96 794,-96 794,-116.75"/>
<text text-anchor="middle" x="760.12" y="-103.25" font-family="Helvetica,sans-Serif" font-size="10.00">w2c__f304</text>
</a>
</g>
</g>
<!-- Node3&#45;&gt;Node4 -->
<g id="edge3_Node000003_Node000004" class="edge">
<title>Node3&#45;&gt;Node4</title>
<g id="a_edge3_Node000003_Node000004"><a xlink:title=" ">
<path fill="none" stroke="#63b8ff" d="M677.13,-21.12C681.61,-23.9 686.23,-27.06 690.25,-30.38 710.9,-47.44 731.07,-70.7 744.19,-86.98"/>
<polygon fill="#63b8ff" stroke="#63b8ff" points="741.17,-88.79 750.11,-94.47 746.66,-84.45 741.17,-88.79"/>
</a>
</g>
</g>
<!-- Node5&#45;&gt;Node3 -->
<g id="edge5_Node000005_Node000003" class="edge">
<title>Node5&#45;&gt;Node3</title>
<g id="a_edge5_Node000005_Node000003"><a xlink:title=" ">
<path fill="none" stroke="#63b8ff" d="M275.74,-47.5C337.38,-45.56 473.15,-39.78 586.5,-24.38 594.47,-23.29 602.91,-21.84 611.03,-20.28"/>
<polygon fill="#63b8ff" stroke="#63b8ff" points="611.65,-23.72 620.76,-18.32 610.27,-16.86 611.65,-23.72"/>
</a>
</g>
</g>
<!-- Node5&#45;&gt;Node6 -->
<g id="edge6_Node000005_Node000006" class="edge">
<title>Node5&#45;&gt;Node6</title>
<g id="a_edge6_Node000005_Node000006"><a xlink:title=" ">
<path fill="none" stroke="#63b8ff" d="M271.26,-59.16C281.57,-63.01 293.38,-67.42 304.44,-71.55"/>
<polygon fill="#63b8ff" stroke="#63b8ff" points="303.16,-74.81 313.75,-75.03 305.61,-68.25 303.16,-74.81"/>
</a>
</g>
</g>
<!-- Node7 -->
<g id="Node000007" class="node">
<title>Node7</title>
<g id="a_Node000007"><a xlink:href="app_8c.html#a1a8a1d528c65d63a630e19c3a4bdd098" target="_top" xlink:title=" ">
<polygon fill="white" stroke="#666666" points="482.75,-96.75 415,-96.75 415,-76 482.75,-76 482.75,-96.75"/>
<text text-anchor="middle" x="448.88" y="-83.25" font-family="Helvetica,sans-Serif" font-size="10.00">w2c__f557</text>
</a>
</g>
</g>
<!-- Node6&#45;&gt;Node7 -->
<g id="edge7_Node000006_Node000007" class="edge">
<title>Node6&#45;&gt;Node7</title>
<g id="a_edge7_Node000006_Node000007"><a xlink:title=" ">
<path fill="none" stroke="#63b8ff" d="M379.44,-86.38C387.07,-86.38 395.31,-86.38 403.33,-86.38"/>
<polygon fill="#63b8ff" stroke="#63b8ff" points="403.32,-89.88 413.32,-86.38 403.32,-82.88 403.32,-89.88"/>
</a>
</g>
</g>
<!-- Node8 -->
<g id="Node000008" class="node">
<title>Node8</title>
<g id="a_Node000008"><a xlink:href="app_8c.html#a0f7003812eaf983535ff7979fc047a21" target="_top" xlink:title=" ">
<polygon fill="white" stroke="#666666" points="586.5,-135.75 518.75,-135.75 518.75,-115 586.5,-115 586.5,-135.75"/>
<text text-anchor="middle" x="552.62" y="-122.25" font-family="Helvetica,sans-Serif" font-size="10.00">w2c__f353</text>
</a>
</g>
</g>
<!-- Node7&#45;&gt;Node8 -->
<g id="edge8_Node000007_Node000008" class="edge">
<title>Node7&#45;&gt;Node8</title>
<g id="a_edge8_Node000007_Node000008"><a xlink:title=" ">
<path fill="none" stroke="#63b8ff" d="M478.22,-97.24C488.91,-101.34 501.27,-106.08 512.76,-110.48"/>
<polygon fill="#63b8ff" stroke="#63b8ff" points="511.43,-113.72 522.02,-114.03 513.94,-107.18 511.43,-113.72"/>
</a>
</g>
</g>
<!-- Node12 -->
<g id="Node000012" class="node">
<title>Node12</title>
<g id="a_Node000012"><a xlink:href="app_8c.html#ac9cc84763a9c1933e50eedd7a06c17e2" target="_top" xlink:title=" ">
<polygon fill="white" stroke="#666666" points="586.5,-96.75 518.75,-96.75 518.75,-76 586.5,-76 586.5,-96.75"/>
<text text-anchor="middle" x="552.62" y="-83.25" font-family="Helvetica,sans-Serif" font-size="10.00">w2c__f480</text>
</a>
</g>
</g>
<!-- Node7&#45;&gt;Node12 -->
<g id="edge14_Node000007_Node000012" class="edge">
<title>Node7&#45;&gt;Node12</title>
<g id="a_edge14_Node000007_Node000012"><a xlink:title=" ">
<path fill="none" stroke="#63b8ff" d="M483.19,-86.38C490.82,-86.38 499.06,-86.38 507.08,-86.38"/>
<polygon fill="#63b8ff" stroke="#63b8ff" points="507.07,-89.88 517.07,-86.38 507.07,-82.88 507.07,-89.88"/>
</a>
</g>
</g>
<!-- Node9 -->
<g id="Node000009" class="node">
<title>Node9</title>
<g id="a_Node000009"><a xlink:href="app_8c.html#aaca5d5bcf49f2ca74019cf097750b9f3" target="_top" xlink:title=" ">
<polygon fill="white" stroke="#666666" points="690.25,-174.75 622.5,-174.75 622.5,-154 690.25,-154 690.25,-174.75"/>
<text text-anchor="middle" x="656.38" y="-161.25" font-family="Helvetica,sans-Serif" font-size="10.00">w2c__f258</text>
</a>
</g>
</g>
<!-- Node8&#45;&gt;Node9 -->
<g id="edge9_Node000008_Node000009" class="edge">
<title>Node8&#45;&gt;Node9</title>
<g id="a_edge9_Node000008_Node000009"><a xlink:title=" ">
<path fill="none" stroke="#63b8ff" d="M581.97,-136.24C592.66,-140.34 605.02,-145.08 616.51,-149.48"/>
<polygon fill="#63b8ff" stroke="#63b8ff" points="615.18,-152.72 625.77,-153.03 617.69,-146.18 615.18,-152.72"/>
</a>
</g>
</g>
<!-- Node11 -->
<g id="Node000011" class="node">
<title>Node11</title>
<g id="a_Node000011"><a xlink:href="app_8c.html#a4634342addbde677893ffcb45cf639dd" target="_top" xlink:title=" ">
<polygon fill="white" stroke="#666666" points="690.25,-135.75 622.5,-135.75 622.5,-115 690.25,-115 690.25,-135.75"/>
<text text-anchor="middle" x="656.38" y="-122.25" font-family="Helvetica,sans-Serif" font-size="10.00">w2c__f302</text>
</a>
</g>
</g>
<!-- Node8&#45;&gt;Node11 -->
<g id="edge12_Node000008_Node000011" class="edge">
<title>Node8&#45;&gt;Node11</title>
<g id="a_edge12_Node000008_Node000011"><a xlink:title=" ">
<path fill="none" stroke="#63b8ff" d="M586.94,-125.38C594.57,-125.38 602.81,-125.38 610.83,-125.38"/>
<polygon fill="#63b8ff" stroke="#63b8ff" points="610.82,-128.88 620.82,-125.38 610.82,-121.88 610.82,-128.88"/>
</a>
</g>
</g>
<!-- Node9&#45;&gt;Node4 -->
<g id="edge10_Node000009_Node000004" class="edge">
<title>Node9&#45;&gt;Node4</title>
<g id="a_edge10_Node000009_Node000004"><a xlink:title=" ">
<path fill="none" stroke="#63b8ff" d="M676.04,-153.74C691.29,-145.04 713.1,-132.61 730.55,-122.66"/>
<polygon fill="#63b8ff" stroke="#63b8ff" points="731.97,-125.88 738.92,-117.89 728.5,-119.8 731.97,-125.88"/>
</a>
</g>
</g>
<!-- Node10 -->
<g id="Node000010" class="node">
<title>Node10</title>
<g id="a_Node000010"><a xlink:href="app_8c.html#a881f0b113e93dce3ff52d04b435850f6" target="_top" xlink:title=" ">
<polygon fill="white" stroke="#666666" points="794,-174.75 726.25,-174.75 726.25,-154 794,-154 794,-174.75"/>
<text text-anchor="middle" x="760.12" y="-161.25" font-family="Helvetica,sans-Serif" font-size="10.00">w2c__f491</text>
</a>
</g>
</g>
<!-- Node9&#45;&gt;Node10 -->
<g id="edge11_Node000009_Node000010" class="edge">
<title>Node9&#45;&gt;Node10</title>
<g id="a_edge11_Node000009_Node000010"><a xlink:title=" ">
<path fill="none" stroke="#63b8ff" d="M690.69,-164.38C698.32,-164.38 706.56,-164.38 714.58,-164.38"/>
<polygon fill="#63b8ff" stroke="#63b8ff" points="714.57,-167.88 724.57,-164.38 714.57,-160.88 714.57,-167.88"/>
</a>
</g>
</g>
<!-- Node11&#45;&gt;Node4 -->
<g id="edge13_Node000011_Node000004" class="edge">
<title>Node11&#45;&gt;Node4</title>
<g id="a_edge13_Node000011_Node000004"><a xlink:title=" ">
<path fill="none" stroke="#63b8ff" d="M690.69,-119.15C698.41,-117.71 706.75,-116.16 714.86,-114.64"/>
<polygon fill="#63b8ff" stroke="#63b8ff" points="715.41,-118.1 724.59,-112.82 714.12,-111.22 715.41,-118.1"/>
</a>
</g>
</g>
<!-- Node12&#45;&gt;Node3 -->
<g id="edge15_Node000012_Node000003" class="edge">
<title>Node12&#45;&gt;Node3</title>
<g id="a_edge15_Node000012_Node000003"><a xlink:title=" ">
<path fill="none" stroke="#63b8ff" d="M568.91,-75.68C574.53,-71.63 580.89,-66.9 586.5,-62.38 603.16,-48.94 605.29,-43.1 622.5,-30.38 623.84,-29.38 625.24,-28.39 626.66,-27.41"/>
<polygon fill="#63b8ff" stroke="#63b8ff" points="628.45,-30.42 634.95,-22.05 624.65,-24.55 628.45,-30.42"/>
</a>
</g>
</g>
<!-- Node12&#45;&gt;Node4 -->
<g id="edge18_Node000012_Node000004" class="edge">
<title>Node12&#45;&gt;Node4</title>
<g id="a_edge18_Node000012_Node000004"><a xlink:title=" ">
<path fill="none" stroke="#63b8ff" d="M586.64,-89.59C621.29,-92.96 675.98,-98.28 714.46,-102.03"/>
<polygon fill="#63b8ff" stroke="#63b8ff" points="714.05,-105.5 724.34,-102.99 714.73,-98.54 714.05,-105.5"/>
</a>
</g>
</g>
<!-- Node12&#45;&gt;Node9 -->
<g id="edge16_Node000012_Node000009" class="edge">
<title>Node12&#45;&gt;Node9</title>
<g id="a_edge16_Node000012_Node000009"><a xlink:title=" ">
<path fill="none" stroke="#63b8ff" d="M573.32,-97.19C577.81,-99.96 582.45,-103.1 586.5,-106.38 604.6,-120.99 604.4,-129.76 622.5,-144.38 623.77,-145.4 625.09,-146.41 626.45,-147.4"/>
<polygon fill="#63b8ff" stroke="#63b8ff" points="624.16,-150.08 634.42,-152.72 628.05,-144.26 624.16,-150.08"/>
</a>
</g>
</g>
<!-- Node12&#45;&gt;Node11 -->
<g id="edge17_Node000012_Node000011" class="edge">
<title>Node12&#45;&gt;Node11</title>
<g id="a_edge17_Node000012_Node000011"><a xlink:title=" ">
<path fill="none" stroke="#63b8ff" d="M581.97,-97.24C592.66,-101.34 605.02,-106.08 616.51,-110.48"/>
<polygon fill="#63b8ff" stroke="#63b8ff" points="615.18,-113.72 625.77,-114.03 617.69,-107.18 615.18,-113.72"/>
</a>
</g>
</g>
<!-- Node13 -->
<g id="Node000013" class="node">
<title>Node13</title>
<g id="a_Node000013"><a xlink:href="app_8c.html#a674f6e81761467d0a8dc6d2a425eda9f" target="_top" xlink:title=" ">
<polygon fill="white" stroke="#666666" points="690.25,-59.75 622.5,-59.75 622.5,-39 690.25,-39 690.25,-59.75"/>
<text text-anchor="middle" x="656.38" y="-46.25" font-family="Helvetica,sans-Serif" font-size="10.00">w2c__f498</text>
</a>
</g>
</g>
<!-- Node12&#45;&gt;Node13 -->
<g id="edge19_Node000012_Node000013" class="edge">
<title>Node12&#45;&gt;Node13</title>
<g id="a_edge19_Node000012_Node000013"><a xlink:title=" ">
<path fill="none" stroke="#63b8ff" d="M583.33,-75.57C593.25,-71.96 604.49,-67.88 615.08,-64.03"/>
<polygon fill="#63b8ff" stroke="#63b8ff" points="616.19,-67.35 624.39,-60.64 613.79,-60.77 616.19,-67.35"/>
</a>
</g>
</g>
</g>
</svg>
