<?xml version="1.0" encoding="UTF-8" standalone="no"?>
<!DOCTYPE svg PUBLIC "-//W3C//DTD SVG 1.1//EN"
 "http://www.w3.org/Graphics/SVG/1.1/DTD/svg11.dtd">
<!-- Generated by graphviz version 12.2.1 (0)
 -->
<!-- Title: w2c__f356 Pages: 1 -->
<svg width="595pt" height="183pt"
 viewBox="0.00 0.00 594.50 182.75" xmlns="http://www.w3.org/2000/svg" xmlns:xlink="http://www.w3.org/1999/xlink">
<g id="graph0" class="graph" transform="scale(1 1) rotate(0) translate(4 178.75)">
<title>w2c__f356</title>
<!-- Node1 -->
<g id="Node000001" class="node">
<title>Node1</title>
<g id="a_Node000001"><a xlink:title=" ">
<polygon fill="#999999" stroke="#666666" points="67.75,-58.75 0,-58.75 0,-38 67.75,-38 67.75,-58.75"/>
<text text-anchor="middle" x="33.88" y="-45.25" font-family="Helvetica,sans-Serif" font-size="10.00">w2c__f356</text>
</a>
</g>
</g>
<!-- Node2 -->
<g id="Node000002" class="node">
<title>Node2</title>
<g id="a_Node000002"><a xlink:href="app_8c.html#a21ef0a2981d5eabea48cff0e94f50365" target="_top" xlink:title=" ">
<polygon fill="white" stroke="#666666" points="171.5,-77.75 103.75,-77.75 103.75,-57 171.5,-57 171.5,-77.75"/>
<text text-anchor="middle" x="137.62" y="-64.25" font-family="Helvetica,sans-Serif" font-size="10.00">w2c__f381</text>
</a>
</g>
</g>
<!-- Node1&#45;&gt;Node2 -->
<g id="edge1_Node000001_Node000002" class="edge">
<title>Node1&#45;&gt;Node2</title>
<g id="a_edge1_Node000001_Node000002"><a xlink:title=" ">
<path fill="none" stroke="#63b8ff" d="M68.19,-54.6C75.91,-56.04 84.25,-57.59 92.36,-59.11"/>
<polygon fill="#63b8ff" stroke="#63b8ff" points="91.62,-62.53 102.09,-60.93 92.91,-55.65 91.62,-62.53"/>
</a>
</g>
</g>
<!-- Node11 -->
<g id="Node000011" class="node">
<title>Node11</title>
<g id="a_Node000011"><a xlink:href="app_8c.html#a674f6e81761467d0a8dc6d2a425eda9f" target="_top" xlink:title=" ">
<polygon fill="white" stroke="#666666" points="482.75,-20.75 415,-20.75 415,0 482.75,0 482.75,-20.75"/>
<text text-anchor="middle" x="448.88" y="-7.25" font-family="Helvetica,sans-Serif" font-size="10.00">w2c__f498</text>
</a>
</g>
</g>
<!-- Node1&#45;&gt;Node11 -->
<g id="edge16_Node000001_Node000011" class="edge">
<title>Node1&#45;&gt;Node11</title>
<g id="a_edge16_Node000001_Node000011"><a xlink:title=" ">
<path fill="none" stroke="#63b8ff" d="M67.97,-45.33C141.76,-38.54 319.76,-22.16 403.25,-14.48"/>
<polygon fill="#63b8ff" stroke="#63b8ff" points="403.47,-17.98 413.11,-13.57 402.83,-11 403.47,-17.98"/>
</a>
</g>
</g>
<!-- Node3 -->
<g id="Node000003" class="node">
<title>Node3</title>
<g id="a_Node000003"><a xlink:href="app_8c.html#a1a8a1d528c65d63a630e19c3a4bdd098" target="_top" xlink:title=" ">
<polygon fill="white" stroke="#666666" points="275.25,-96.75 207.5,-96.75 207.5,-76 275.25,-76 275.25,-96.75"/>
<text text-anchor="middle" x="241.38" y="-83.25" font-family="Helvetica,sans-Serif" font-size="10.00">w2c__f557</text>
</a>
</g>
</g>
<!-- Node2&#45;&gt;Node3 -->
<g id="edge2_Node000002_Node000003" class="edge">
<title>Node2&#45;&gt;Node3</title>
<g id="a_edge2_Node000002_Node000003"><a xlink:title=" ">
<path fill="none" stroke="#63b8ff" d="M171.94,-73.6C179.66,-75.04 188,-76.59 196.11,-78.11"/>
<polygon fill="#63b8ff" stroke="#63b8ff" points="195.37,-81.53 205.84,-79.93 196.66,-74.65 195.37,-81.53"/>
</a>
</g>
</g>
<!-- Node4 -->
<g id="Node000004" class="node">
<title>Node4</title>
<g id="a_Node000004"><a xlink:href="app_8c.html#a0f7003812eaf983535ff7979fc047a21" target="_top" xlink:title=" ">
<polygon fill="white" stroke="#666666" points="379,-135.75 311.25,-135.75 311.25,-115 379,-115 379,-135.75"/>
<text text-anchor="middle" x="345.12" y="-122.25" font-family="Helvetica,sans-Serif" font-size="10.00">w2c__f353</text>
</a>
</g>
</g>
<!-- Node3&#45;&gt;Node4 -->
<g id="edge3_Node000003_Node000004" class="edge">
<title>Node3&#45;&gt;Node4</title>
<g id="a_edge3_Node000003_Node000004"><a xlink:title=" ">
<path fill="none" stroke="#63b8ff" d="M270.72,-97.24C281.41,-101.34 293.77,-106.08 305.26,-110.48"/>
<polygon fill="#63b8ff" stroke="#63b8ff" points="303.93,-113.72 314.52,-114.03 306.44,-107.18 303.93,-113.72"/>
</a>
</g>
</g>
<!-- Node9 -->
<g id="Node000009" class="node">
<title>Node9</title>
<g id="a_Node000009"><a xlink:href="app_8c.html#ac9cc84763a9c1933e50eedd7a06c17e2" target="_top" xlink:title=" ">
<polygon fill="white" stroke="#666666" points="379,-96.75 311.25,-96.75 311.25,-76 379,-76 379,-96.75"/>
<text text-anchor="middle" x="345.12" y="-83.25" font-family="Helvetica,sans-Serif" font-size="10.00">w2c__f480</text>
</a>
</g>
</g>
<!-- Node3&#45;&gt;Node9 -->
<g id="edge9_Node000003_Node000009" class="edge">
<title>Node3&#45;&gt;Node9</title>
<g id="a_edge9_Node000003_Node000009"><a xlink:title=" ">
<path fill="none" stroke="#63b8ff" d="M275.69,-86.38C283.32,-86.38 291.56,-86.38 299.58,-86.38"/>
<polygon fill="#63b8ff" stroke="#63b8ff" points="299.57,-89.88 309.57,-86.38 299.57,-82.88 299.57,-89.88"/>
</a>
</g>
</g>
<!-- Node5 -->
<g id="Node000005" class="node">
<title>Node5</title>
<g id="a_Node000005"><a xlink:href="app_8c.html#aaca5d5bcf49f2ca74019cf097750b9f3" target="_top" xlink:title=" ">
<polygon fill="white" stroke="#666666" points="482.75,-174.75 415,-174.75 415,-154 482.75,-154 482.75,-174.75"/>
<text text-anchor="middle" x="448.88" y="-161.25" font-family="Helvetica,sans-Serif" font-size="10.00">w2c__f258</text>
</a>
</g>
</g>
<!-- Node4&#45;&gt;Node5 -->
<g id="edge4_Node000004_Node000005" class="edge">
<title>Node4&#45;&gt;Node5</title>
<g id="a_edge4_Node000004_Node000005"><a xlink:title=" ">
<path fill="none" stroke="#63b8ff" d="M374.47,-136.24C385.16,-140.34 397.52,-145.08 409.01,-149.48"/>
<polygon fill="#63b8ff" stroke="#63b8ff" points="407.68,-152.72 418.27,-153.03 410.19,-146.18 407.68,-152.72"/>
</a>
</g>
</g>
<!-- Node8 -->
<g id="Node000008" class="node">
<title>Node8</title>
<g id="a_Node000008"><a xlink:href="app_8c.html#a4634342addbde677893ffcb45cf639dd" target="_top" xlink:title=" ">
<polygon fill="white" stroke="#666666" points="482.75,-135.75 415,-135.75 415,-115 482.75,-115 482.75,-135.75"/>
<text text-anchor="middle" x="448.88" y="-122.25" font-family="Helvetica,sans-Serif" font-size="10.00">w2c__f302</text>
</a>
</g>
</g>
<!-- Node4&#45;&gt;Node8 -->
<g id="edge7_Node000004_Node000008" class="edge">
<title>Node4&#45;&gt;Node8</title>
<g id="a_edge7_Node000004_Node000008"><a xlink:title=" ">
<path fill="none" stroke="#63b8ff" d="M379.44,-125.38C387.07,-125.38 395.31,-125.38 403.33,-125.38"/>
<polygon fill="#63b8ff" stroke="#63b8ff" points="403.32,-128.88 413.32,-125.38 403.32,-121.88 403.32,-128.88"/>
</a>
</g>
</g>
<!-- Node6 -->
<g id="Node000006" class="node">
<title>Node6</title>
<g id="a_Node000006"><a xlink:href="app_8c.html#a8d9f347f9a643f0ebfb53c4f54578ac4" target="_top" xlink:title=" ">
<polygon fill="white" stroke="#666666" points="586.5,-116.75 518.75,-116.75 518.75,-96 586.5,-96 586.5,-116.75"/>
<text text-anchor="middle" x="552.62" y="-103.25" font-family="Helvetica,sans-Serif" font-size="10.00">w2c__f304</text>
</a>
</g>
</g>
<!-- Node5&#45;&gt;Node6 -->
<g id="edge5_Node000005_Node000006" class="edge">
<title>Node5&#45;&gt;Node6</title>
<g id="a_edge5_Node000005_Node000006"><a xlink:title=" ">
<path fill="none" stroke="#63b8ff" d="M468.54,-153.74C483.79,-145.04 505.6,-132.61 523.05,-122.66"/>
<polygon fill="#63b8ff" stroke="#63b8ff" points="524.47,-125.88 531.42,-117.89 521,-119.8 524.47,-125.88"/>
</a>
</g>
</g>
<!-- Node7 -->
<g id="Node000007" class="node">
<title>Node7</title>
<g id="a_Node000007"><a xlink:href="app_8c.html#a881f0b113e93dce3ff52d04b435850f6" target="_top" xlink:title=" ">
<polygon fill="white" stroke="#666666" points="586.5,-174.75 518.75,-174.75 518.75,-154 586.5,-154 586.5,-174.75"/>
<text text-anchor="middle" x="552.62" y="-161.25" font-family="Helvetica,sans-Serif" font-size="10.00">w2c__f491</text>
</a>
</g>
</g>
<!-- Node5&#45;&gt;Node7 -->
<g id="edge6_Node000005_Node000007" class="edge">
<title>Node5&#45;&gt;Node7</title>
<g id="a_edge6_Node000005_Node000007"><a xlink:title=" ">
<path fill="none" stroke="#63b8ff" d="M483.19,-164.38C490.82,-164.38 499.06,-164.38 507.08,-164.38"/>
<polygon fill="#63b8ff" stroke="#63b8ff" points="507.07,-167.88 517.07,-164.38 507.07,-160.88 507.07,-167.88"/>
</a>
</g>
</g>
<!-- Node8&#45;&gt;Node6 -->
<g id="edge8_Node000008_Node000006" class="edge">
<title>Node8&#45;&gt;Node6</title>
<g id="a_edge8_Node000008_Node000006"><a xlink:title=" ">
<path fill="none" stroke="#63b8ff" d="M483.19,-119.15C490.91,-117.71 499.25,-116.16 507.36,-114.64"/>
<polygon fill="#63b8ff" stroke="#63b8ff" points="507.91,-118.1 517.09,-112.82 506.62,-111.22 507.91,-118.1"/>
</a>
</g>
</g>
<!-- Node9&#45;&gt;Node5 -->
<g id="edge12_Node000009_Node000005" class="edge">
<title>Node9&#45;&gt;Node5</title>
<g id="a_edge12_Node000009_Node000005"><a xlink:title=" ">
<path fill="none" stroke="#63b8ff" d="M365.82,-97.19C370.31,-99.96 374.95,-103.1 379,-106.38 397.1,-120.99 396.9,-129.76 415,-144.38 416.27,-145.4 417.59,-146.41 418.95,-147.4"/>
<polygon fill="#63b8ff" stroke="#63b8ff" points="416.66,-150.08 426.92,-152.72 420.55,-144.26 416.66,-150.08"/>
</a>
</g>
</g>
<!-- Node9&#45;&gt;Node6 -->
<g id="edge14_Node000009_Node000006" class="edge">
<title>Node9&#45;&gt;Node6</title>
<g id="a_edge14_Node000009_Node000006"><a xlink:title=" ">
<path fill="none" stroke="#63b8ff" d="M379.14,-89.59C413.79,-92.96 468.48,-98.28 506.96,-102.03"/>
<polygon fill="#63b8ff" stroke="#63b8ff" points="506.55,-105.5 516.84,-102.99 507.23,-98.54 506.55,-105.5"/>
</a>
</g>
</g>
<!-- Node9&#45;&gt;Node8 -->
<g id="edge13_Node000009_Node000008" class="edge">
<title>Node9&#45;&gt;Node8</title>
<g id="a_edge13_Node000009_Node000008"><a xlink:title=" ">
<path fill="none" stroke="#63b8ff" d="M374.47,-97.24C385.16,-101.34 397.52,-106.08 409.01,-110.48"/>
<polygon fill="#63b8ff" stroke="#63b8ff" points="407.68,-113.72 418.27,-114.03 410.19,-107.18 407.68,-113.72"/>
</a>
</g>
</g>
<!-- Node10 -->
<g id="Node000010" class="node">
<title>Node10</title>
<g id="a_Node000010"><a xlink:href="app_8c.html#a0378208e0d5c0d1d6e7370f1c578fab3" target="_top" xlink:title=" ">
<polygon fill="white" stroke="#666666" points="482.75,-59.75 415,-59.75 415,-39 482.75,-39 482.75,-59.75"/>
<text text-anchor="middle" x="448.88" y="-46.25" font-family="Helvetica,sans-Serif" font-size="10.00">w2c__f216</text>
</a>
</g>
</g>
<!-- Node9&#45;&gt;Node10 -->
<g id="edge10_Node000009_Node000010" class="edge">
<title>Node9&#45;&gt;Node10</title>
<g id="a_edge10_Node000009_Node000010"><a xlink:title=" ">
<path fill="none" stroke="#63b8ff" d="M375.83,-75.57C385.75,-71.96 396.99,-67.88 407.58,-64.03"/>
<polygon fill="#63b8ff" stroke="#63b8ff" points="408.69,-67.35 416.89,-60.64 406.29,-60.77 408.69,-67.35"/>
</a>
</g>
</g>
<!-- Node9&#45;&gt;Node11 -->
<g id="edge15_Node000009_Node000011" class="edge">
<title>Node9&#45;&gt;Node11</title>
<g id="a_edge15_Node000009_Node000011"><a xlink:title=" ">
<path fill="none" stroke="#63b8ff" d="M358.42,-75.52C371.89,-63.83 394.35,-44.95 415,-30.38 416.54,-29.29 418.14,-28.2 419.76,-27.12"/>
<polygon fill="#63b8ff" stroke="#63b8ff" points="421.32,-30.28 427.88,-21.97 417.56,-24.37 421.32,-30.28"/>
</a>
</g>
</g>
<!-- Node10&#45;&gt;Node6 -->
<g id="edge11_Node000010_Node000006" class="edge">
<title>Node10&#45;&gt;Node6</title>
<g id="a_edge11_Node000010_Node000006"><a xlink:title=" ">
<path fill="none" stroke="#63b8ff" d="M469.01,-60.1C484.12,-68.56 505.45,-80.51 522.65,-90.15"/>
<polygon fill="#63b8ff" stroke="#63b8ff" points="520.47,-92.93 530.91,-94.77 523.89,-86.83 520.47,-92.93"/>
</a>
</g>
</g>
</g>
</svg>
