<?xml version="1.0" encoding="UTF-8" standalone="no"?>
<!DOCTYPE svg PUBLIC "-//W3C//DTD SVG 1.1//EN"
 "http://www.w3.org/Graphics/SVG/1.1/DTD/svg11.dtd">
<!-- Generated by graphviz version 12.2.1 (0)
 -->
<!-- Title: w2c__f317 Pages: 1 -->
<svg width="446pt" height="105pt"
 viewBox="0.00 0.00 445.50 104.75" xmlns="http://www.w3.org/2000/svg" xmlns:xlink="http://www.w3.org/1999/xlink">
<g id="graph0" class="graph" transform="scale(1 1) rotate(0) translate(4 100.75)">
<title>w2c__f317</title>
<!-- Node1 -->
<g id="Node000001" class="node">
<title>Node1</title>
<g id="a_Node000001"><a xlink:title=" ">
<polygon fill="#999999" stroke="#666666" points="437.5,-58.75 369.75,-58.75 369.75,-38 437.5,-38 437.5,-58.75"/>
<text text-anchor="middle" x="403.62" y="-45.25" font-family="Helvetica,sans-Serif" font-size="10.00">w2c__f317</text>
</a>
</g>
</g>
<!-- Node2 -->
<g id="Node000002" class="node">
<title>Node2</title>
<g id="a_Node000002"><a xlink:href="app_8c.html#a3782bf9bcaf4b3ad28b22b08c0d902e6" target="_top" xlink:title=" ">
<polygon fill="white" stroke="#666666" points="319.12,-96.75 251.38,-96.75 251.38,-76 319.12,-76 319.12,-96.75"/>
<text text-anchor="middle" x="285.25" y="-83.25" font-family="Helvetica,sans-Serif" font-size="10.00">w2c__f267</text>
</a>
</g>
</g>
<!-- Node1&#45;&gt;Node2 -->
<g id="edge1_Node000001_Node000002" class="edge">
<title>Node1&#45;&gt;Node2</title>
<g id="a_edge1_Node000001_Node000002"><a xlink:title=" ">
<path fill="none" stroke="#63b8ff" d="M358.9,-62.65C345.8,-66.93 331.66,-71.55 319.37,-75.56"/>
<polygon fill="#63b8ff" stroke="#63b8ff" points="359.73,-66.06 368.15,-59.63 357.56,-59.41 359.73,-66.06"/>
</a>
</g>
</g>
<!-- Node3 -->
<g id="Node000003" class="node">
<title>Node3</title>
<g id="a_Node000003"><a xlink:href="app_8c.html#a114660805d6920291a2827ae740d4777" target="_top" xlink:title=" ">
<polygon fill="white" stroke="#666666" points="200.75,-77.75 133,-77.75 133,-57 200.75,-57 200.75,-77.75"/>
<text text-anchor="middle" x="166.88" y="-64.25" font-family="Helvetica,sans-Serif" font-size="10.00">w2c__f571</text>
</a>
</g>
</g>
<!-- Node1&#45;&gt;Node3 -->
<g id="edge5_Node000001_Node000003" class="edge">
<title>Node1&#45;&gt;Node3</title>
<g id="a_edge5_Node000001_Node000003"><a xlink:title=" ">
<path fill="none" stroke="#63b8ff" d="M358.15,-51.97C312.45,-55.67 242.36,-61.35 201.22,-64.68"/>
<polygon fill="#63b8ff" stroke="#63b8ff" points="358.3,-55.47 367.98,-51.18 357.73,-48.5 358.3,-55.47"/>
</a>
</g>
</g>
<!-- Node5 -->
<g id="Node000005" class="node">
<title>Node5</title>
<g id="a_Node000005"><a xlink:href="app_8c.html#af1a4d535e54a4a75e6c69145b6c7cbe3" target="_top" xlink:title=" ">
<polygon fill="white" stroke="#666666" points="333.75,-20.75 236.75,-20.75 236.75,0 333.75,0 333.75,-20.75"/>
<text text-anchor="middle" x="285.25" y="-7.25" font-family="Helvetica,sans-Serif" font-size="10.00">wrap_w2c__f317</text>
</a>
</g>
</g>
<!-- Node1&#45;&gt;Node5 -->
<g id="edge6_Node000001_Node000005" class="edge">
<title>Node1&#45;&gt;Node5</title>
<g id="a_edge6_Node000001_Node000005"><a xlink:title=" ">
<path fill="none" stroke="#63b8ff" d="M358.9,-34.1C345.8,-29.82 331.66,-25.2 319.37,-21.19"/>
<polygon fill="#63b8ff" stroke="#63b8ff" points="357.56,-37.34 368.15,-37.12 359.73,-30.69 357.56,-37.34"/>
</a>
</g>
</g>
<!-- Node2&#45;&gt;Node3 -->
<g id="edge2_Node000002_Node000003" class="edge">
<title>Node2&#45;&gt;Node3</title>
<g id="a_edge2_Node000002_Node000003"><a xlink:title=" ">
<path fill="none" stroke="#63b8ff" d="M239.93,-79.14C227.08,-77.04 213.28,-74.79 201.23,-72.82"/>
<polygon fill="#63b8ff" stroke="#63b8ff" points="238.97,-82.53 249.41,-80.69 240.1,-75.62 238.97,-82.53"/>
</a>
</g>
</g>
<!-- Node3&#45;&gt;Node3 -->
<g id="edge3_Node000003_Node000003" class="edge">
<title>Node3&#45;&gt;Node3</title>
<g id="a_edge3_Node000003_Node000003"><a xlink:title=" ">
<path fill="none" stroke="#63b8ff" d="M187.7,-89.24C184.94,-93.08 178,-95.75 166.88,-95.75 146.53,-95.75 140.17,-86.81 147.8,-78.15"/>
<polygon fill="#63b8ff" stroke="#63b8ff" points="191.21,-88.97 186.19,-79.64 184.29,-90.07 191.21,-88.97"/>
</a>
</g>
</g>
<!-- Node4 -->
<g id="Node000004" class="node">
<title>Node4</title>
<g id="a_Node000004"><a xlink:href="app_8c.html#a7641dd505d5bad3754a4d32138de0570" target="_top" xlink:title=" ">
<polygon fill="white" stroke="#666666" points="97,-77.75 0,-77.75 0,-57 97,-57 97,-77.75"/>
<text text-anchor="middle" x="48.5" y="-64.25" font-family="Helvetica,sans-Serif" font-size="10.00">wrap_w2c__f571</text>
</a>
</g>
</g>
<!-- Node3&#45;&gt;Node4 -->
<g id="edge4_Node000003_Node000004" class="edge">
<title>Node3&#45;&gt;Node4</title>
<g id="a_edge4_Node000003_Node000004"><a xlink:title=" ">
<path fill="none" stroke="#63b8ff" d="M121.28,-67.38C113.39,-67.38 105.14,-67.38 97.16,-67.38"/>
<polygon fill="#63b8ff" stroke="#63b8ff" points="121.01,-70.88 131.01,-67.38 121.01,-63.88 121.01,-70.88"/>
</a>
</g>
</g>
</g>
</svg>
