<?xml version="1.0" encoding="UTF-8" standalone="no"?>
<!DOCTYPE svg PUBLIC "-//W3C//DTD SVG 1.1//EN"
 "http://www.w3.org/Graphics/SVG/1.1/DTD/svg11.dtd">
<!-- Generated by graphviz version 12.2.1 (0)
 -->
<!-- Title: w2c__f206 Pages: 1 -->
<svg width="288pt" height="926pt"
 viewBox="0.00 0.00 287.75 925.75" xmlns="http://www.w3.org/2000/svg" xmlns:xlink="http://www.w3.org/1999/xlink">
<g id="graph0" class="graph" transform="scale(1 1) rotate(0) translate(4 921.75)">
<title>w2c__f206</title>
<!-- Node1 -->
<g id="Node000001" class="node">
<title>Node1</title>
<g id="a_Node000001"><a xlink:title=" ">
<polygon fill="#999999" stroke="#666666" points="67.75,-468.75 0,-468.75 0,-448 67.75,-448 67.75,-468.75"/>
<text text-anchor="middle" x="33.88" y="-455.25" font-family="Helvetica,sans-Serif" font-size="10.00">w2c__f206</text>
</a>
</g>
</g>
<!-- Node2 -->
<g id="Node000002" class="node">
<title>Node2</title>
<g id="a_Node000002"><a xlink:href="app_8c.html#a9d20509a5d9a23039d2f681c013de3be" target="_top" xlink:title=" ">
<polygon fill="white" stroke="#666666" points="174.88,-917.75 104.88,-917.75 104.88,-897 174.88,-897 174.88,-917.75"/>
<text text-anchor="middle" x="139.88" y="-904.25" font-family="Helvetica,sans-Serif" font-size="10.00">w2c_0_116</text>
</a>
</g>
</g>
<!-- Node1&#45;&gt;Node2 -->
<g id="edge1_Node000001_Node000002" class="edge">
<title>Node1&#45;&gt;Node2</title>
<g id="a_edge1_Node000001_Node000002"><a xlink:title=" ">
<path fill="none" stroke="#63b8ff" d="M35.35,-468.93C38.19,-527.87 54.43,-816.24 103.75,-887.38 104.15,-887.95 104.57,-888.51 105.01,-889.06"/>
<polygon fill="#63b8ff" stroke="#63b8ff" points="102.65,-891.64 112.43,-895.72 107.33,-886.43 102.65,-891.64"/>
</a>
</g>
</g>
<!-- Node3 -->
<g id="Node000003" class="node">
<title>Node3</title>
<g id="a_Node000003"><a xlink:href="app_8c.html#a97f1c1200b697bd63c2a5d2e753f08d3" target="_top" xlink:title=" ">
<polygon fill="white" stroke="#666666" points="174.88,-878.75 104.88,-878.75 104.88,-858 174.88,-858 174.88,-878.75"/>
<text text-anchor="middle" x="139.88" y="-865.25" font-family="Helvetica,sans-Serif" font-size="10.00">w2c_0_125</text>
</a>
</g>
</g>
<!-- Node1&#45;&gt;Node3 -->
<g id="edge2_Node000001_Node000003" class="edge">
<title>Node1&#45;&gt;Node3</title>
<g id="a_edge2_Node000001_Node000003"><a xlink:title=" ">
<path fill="none" stroke="#63b8ff" d="M35.55,-469.05C39.24,-525.01 58.59,-784.31 103.75,-848.38 104.15,-848.95 104.58,-849.51 105.03,-850.05"/>
<polygon fill="#63b8ff" stroke="#63b8ff" points="102.68,-852.65 112.47,-856.69 107.34,-847.42 102.68,-852.65"/>
</a>
</g>
</g>
<!-- Node4 -->
<g id="Node000004" class="node">
<title>Node4</title>
<g id="a_Node000004"><a xlink:href="app_8c.html#a5ce3653825ba039c089e4289a849c2c8" target="_top" xlink:title=" ">
<polygon fill="white" stroke="#666666" points="171.88,-839.75 107.88,-839.75 107.88,-819 171.88,-819 171.88,-839.75"/>
<text text-anchor="middle" x="139.88" y="-826.25" font-family="Helvetica,sans-Serif" font-size="10.00">w2c_0_14</text>
</a>
</g>
</g>
<!-- Node1&#45;&gt;Node4 -->
<g id="edge3_Node000001_Node000004" class="edge">
<title>Node1&#45;&gt;Node4</title>
<g id="a_edge3_Node000001_Node000004"><a xlink:title=" ">
<path fill="none" stroke="#63b8ff" d="M35.77,-469.01C40.37,-521.45 62.69,-752.28 103.75,-809.38 104.16,-809.94 104.59,-810.5 105.04,-811.04"/>
<polygon fill="#63b8ff" stroke="#63b8ff" points="102.72,-813.66 112.53,-817.65 107.35,-808.41 102.72,-813.66"/>
</a>
</g>
</g>
<!-- Node5 -->
<g id="Node000005" class="node">
<title>Node5</title>
<g id="a_Node000005"><a xlink:href="app_8c.html#ae253b18a917774c5d8665baef538e998" target="_top" xlink:title=" ">
<polygon fill="white" stroke="#666666" points="174.88,-800.75 104.88,-800.75 104.88,-780 174.88,-780 174.88,-800.75"/>
<text text-anchor="middle" x="139.88" y="-787.25" font-family="Helvetica,sans-Serif" font-size="10.00">w2c_0_153</text>
</a>
</g>
</g>
<!-- Node1&#45;&gt;Node5 -->
<g id="edge4_Node000001_Node000005" class="edge">
<title>Node1&#45;&gt;Node5</title>
<g id="a_edge4_Node000001_Node000005"><a xlink:title=" ">
<path fill="none" stroke="#63b8ff" d="M36.07,-469.11C41.69,-518.1 66.8,-720.25 103.75,-770.38 104.25,-771.05 104.78,-771.71 105.34,-772.35"/>
<polygon fill="#63b8ff" stroke="#63b8ff" points="102.73,-774.73 112.59,-778.61 107.31,-769.43 102.73,-774.73"/>
</a>
</g>
</g>
<!-- Node6 -->
<g id="Node000006" class="node">
<title>Node6</title>
<g id="a_Node000006"><a xlink:href="app_8c.html#a6ff627af0fa7674eab0ae563b97eeb11" target="_top" xlink:title=" ">
<polygon fill="white" stroke="#666666" points="174.88,-761.75 104.88,-761.75 104.88,-741 174.88,-741 174.88,-761.75"/>
<text text-anchor="middle" x="139.88" y="-748.25" font-family="Helvetica,sans-Serif" font-size="10.00">w2c_0_163</text>
</a>
</g>
</g>
<!-- Node1&#45;&gt;Node6 -->
<g id="edge5_Node000001_Node000006" class="edge">
<title>Node1&#45;&gt;Node6</title>
<g id="a_edge5_Node000001_Node000006"><a xlink:title=" ">
<path fill="none" stroke="#63b8ff" d="M34.71,-469.03C34.66,-508.23 39.25,-646.55 103.75,-731.38 104.26,-732.05 104.8,-732.7 105.36,-733.33"/>
<polygon fill="#63b8ff" stroke="#63b8ff" points="102.79,-735.73 112.67,-739.55 107.33,-730.4 102.79,-735.73"/>
</a>
</g>
</g>
<!-- Node7 -->
<g id="Node000007" class="node">
<title>Node7</title>
<g id="a_Node000007"><a xlink:href="app_8c.html#a143393b82de16bee5edd0976a0b03aba" target="_top" xlink:title=" ">
<polygon fill="white" stroke="#666666" points="171.88,-722.75 107.88,-722.75 107.88,-702 171.88,-702 171.88,-722.75"/>
<text text-anchor="middle" x="139.88" y="-709.25" font-family="Helvetica,sans-Serif" font-size="10.00">w2c_0_21</text>
</a>
</g>
</g>
<!-- Node1&#45;&gt;Node7 -->
<g id="edge6_Node000001_Node000007" class="edge">
<title>Node1&#45;&gt;Node7</title>
<g id="a_edge6_Node000001_Node000007"><a xlink:title=" ">
<path fill="none" stroke="#63b8ff" d="M35.27,-469.21C37.11,-505 47.36,-621.16 103.75,-692.38 104.29,-693.06 104.86,-693.72 105.45,-694.36"/>
<polygon fill="#63b8ff" stroke="#63b8ff" points="103.2,-697.04 113.13,-700.71 107.66,-691.64 103.2,-697.04"/>
</a>
</g>
</g>
<!-- Node8 -->
<g id="Node000008" class="node">
<title>Node8</title>
<g id="a_Node000008"><a xlink:href="app_8c.html#a2949da62b839f294f2743d0ef6771ada" target="_top" xlink:title=" ">
<polygon fill="white" stroke="#666666" points="171.88,-683.75 107.88,-683.75 107.88,-663 171.88,-663 171.88,-683.75"/>
<text text-anchor="middle" x="139.88" y="-670.25" font-family="Helvetica,sans-Serif" font-size="10.00">w2c_0_29</text>
</a>
</g>
</g>
<!-- Node1&#45;&gt;Node8 -->
<g id="edge7_Node000001_Node000008" class="edge">
<title>Node1&#45;&gt;Node8</title>
<g id="a_edge7_Node000001_Node000008"><a xlink:title=" ">
<path fill="none" stroke="#63b8ff" d="M36.01,-468.95C39.88,-500.47 55.16,-595.26 103.75,-653.38 104.31,-654.04 104.89,-654.69 105.5,-655.32"/>
<polygon fill="#63b8ff" stroke="#63b8ff" points="103.3,-658.04 113.28,-661.6 107.7,-652.6 103.3,-658.04"/>
</a>
</g>
</g>
<!-- Node9 -->
<g id="Node000009" class="node">
<title>Node9</title>
<g id="a_Node000009"><a xlink:href="app_8c.html#adc1af1044030d072912e04b85bfb9f1c" target="_top" xlink:title=" ">
<polygon fill="white" stroke="#666666" points="171.88,-644.75 107.88,-644.75 107.88,-624 171.88,-624 171.88,-644.75"/>
<text text-anchor="middle" x="139.88" y="-631.25" font-family="Helvetica,sans-Serif" font-size="10.00">w2c_0_35</text>
</a>
</g>
</g>
<!-- Node1&#45;&gt;Node9 -->
<g id="edge8_Node000001_Node000009" class="edge">
<title>Node1&#45;&gt;Node9</title>
<g id="a_edge8_Node000001_Node000009"><a xlink:title=" ">
<path fill="none" stroke="#63b8ff" d="M37.14,-469.12C43.38,-496.39 63.07,-569.33 103.75,-614.38 104.45,-615.15 105.19,-615.9 105.95,-616.63"/>
<polygon fill="#63b8ff" stroke="#63b8ff" points="103.77,-619.37 113.84,-622.67 108.03,-613.81 103.77,-619.37"/>
</a>
</g>
</g>
<!-- Node10 -->
<g id="Node000010" class="node">
<title>Node10</title>
<g id="a_Node000010"><a xlink:href="app_8c.html#ac28006041d61f911b39c2116ebb49162" target="_top" xlink:title=" ">
<polygon fill="white" stroke="#666666" points="171.88,-605.75 107.88,-605.75 107.88,-585 171.88,-585 171.88,-605.75"/>
<text text-anchor="middle" x="139.88" y="-592.25" font-family="Helvetica,sans-Serif" font-size="10.00">w2c_0_39</text>
</a>
</g>
</g>
<!-- Node1&#45;&gt;Node10 -->
<g id="edge9_Node000001_Node000010" class="edge">
<title>Node1&#45;&gt;Node10</title>
<g id="a_edge9_Node000001_Node000010"><a xlink:title=" ">
<path fill="none" stroke="#63b8ff" d="M38.89,-468.96C47.72,-491.07 70.68,-542.78 103.75,-575.38 104.62,-576.24 105.54,-577.07 106.5,-577.89"/>
<polygon fill="#63b8ff" stroke="#63b8ff" points="104.34,-580.64 114.5,-583.62 108.41,-574.95 104.34,-580.64"/>
</a>
</g>
</g>
<!-- Node11 -->
<g id="Node000011" class="node">
<title>Node11</title>
<g id="a_Node000011"><a xlink:href="app_8c.html#a0b6f2580aaa1e4710f7998b7b4233d10" target="_top" xlink:title=" ">
<polygon fill="white" stroke="#666666" points="171.88,-566.75 107.88,-566.75 107.88,-546 171.88,-546 171.88,-566.75"/>
<text text-anchor="middle" x="139.88" y="-553.25" font-family="Helvetica,sans-Serif" font-size="10.00">w2c_0_41</text>
</a>
</g>
</g>
<!-- Node1&#45;&gt;Node11 -->
<g id="edge10_Node000001_Node000011" class="edge">
<title>Node1&#45;&gt;Node11</title>
<g id="a_edge10_Node000001_Node000011"><a xlink:title=" ">
<path fill="none" stroke="#63b8ff" d="M42.61,-469.23C54.45,-485.3 78.38,-515.75 103.75,-536.38 105.04,-537.43 106.4,-538.45 107.79,-539.46"/>
<polygon fill="#63b8ff" stroke="#63b8ff" points="105.76,-542.31 116.06,-544.79 109.56,-536.43 105.76,-542.31"/>
</a>
</g>
</g>
<!-- Node12 -->
<g id="Node000012" class="node">
<title>Node12</title>
<g id="a_Node000012"><a xlink:href="app_8c.html#ac0631eaf77e0cfc5177a24e82b13a72a" target="_top" xlink:title=" ">
<polygon fill="white" stroke="#666666" points="168.88,-527.75 110.88,-527.75 110.88,-507 168.88,-507 168.88,-527.75"/>
<text text-anchor="middle" x="139.88" y="-514.25" font-family="Helvetica,sans-Serif" font-size="10.00">w2c_0_5</text>
</a>
</g>
</g>
<!-- Node1&#45;&gt;Node12 -->
<g id="edge11_Node000001_Node000012" class="edge">
<title>Node1&#45;&gt;Node12</title>
<g id="a_edge11_Node000001_Node000012"><a xlink:title=" ">
<path fill="none" stroke="#63b8ff" d="M53.95,-469.2C69.64,-478.1 92.11,-490.85 110,-501"/>
<polygon fill="#63b8ff" stroke="#63b8ff" points="108.18,-503.99 118.6,-505.88 111.63,-497.9 108.18,-503.99"/>
</a>
</g>
</g>
<!-- Node13 -->
<g id="Node000013" class="node">
<title>Node13</title>
<g id="a_Node000013"><a xlink:href="app_8c.html#ac773df43fddaa6ad600f963ba4e03fa5" target="_top" xlink:title=" ">
<polygon fill="white" stroke="#666666" points="171.88,-488.75 107.88,-488.75 107.88,-468 171.88,-468 171.88,-488.75"/>
<text text-anchor="middle" x="139.88" y="-475.25" font-family="Helvetica,sans-Serif" font-size="10.00">w2c_0_51</text>
</a>
</g>
</g>
<!-- Node1&#45;&gt;Node13 -->
<g id="edge12_Node000001_Node000013" class="edge">
<title>Node1&#45;&gt;Node13</title>
<g id="a_edge12_Node000001_Node000013"><a xlink:title=" ">
<path fill="none" stroke="#63b8ff" d="M68.07,-464.76C77.03,-466.48 86.85,-468.37 96.25,-470.18"/>
<polygon fill="#63b8ff" stroke="#63b8ff" points="95.45,-473.59 105.93,-472.04 96.77,-466.71 95.45,-473.59"/>
</a>
</g>
</g>
<!-- Node14 -->
<g id="Node000014" class="node">
<title>Node14</title>
<g id="a_Node000014"><a xlink:href="app_8c.html#a283b0fb0d9f8b485183969b16969ecb3" target="_top" xlink:title=" ">
<polygon fill="white" stroke="#666666" points="171.88,-449.75 107.88,-449.75 107.88,-429 171.88,-429 171.88,-449.75"/>
<text text-anchor="middle" x="139.88" y="-436.25" font-family="Helvetica,sans-Serif" font-size="10.00">w2c_0_77</text>
</a>
</g>
</g>
<!-- Node1&#45;&gt;Node14 -->
<g id="edge13_Node000001_Node000014" class="edge">
<title>Node1&#45;&gt;Node14</title>
<g id="a_edge13_Node000001_Node000014"><a xlink:title=" ">
<path fill="none" stroke="#63b8ff" d="M68.07,-452.31C77.03,-450.67 86.85,-448.88 96.25,-447.16"/>
<polygon fill="#63b8ff" stroke="#63b8ff" points="96.72,-450.64 105.92,-445.39 95.46,-443.75 96.72,-450.64"/>
</a>
</g>
</g>
<!-- Node15 -->
<g id="Node000015" class="node">
<title>Node15</title>
<g id="a_Node000015"><a xlink:href="app_8c.html#a2f05f3a15359daf31fe525da5dbf8b8c" target="_top" xlink:title=" ">
<polygon fill="white" stroke="#666666" points="171.88,-410.75 107.88,-410.75 107.88,-390 171.88,-390 171.88,-410.75"/>
<text text-anchor="middle" x="139.88" y="-397.25" font-family="Helvetica,sans-Serif" font-size="10.00">w2c_0_81</text>
</a>
</g>
</g>
<!-- Node1&#45;&gt;Node15 -->
<g id="edge14_Node000001_Node000015" class="edge">
<title>Node1&#45;&gt;Node15</title>
<g id="a_edge14_Node000001_Node000015"><a xlink:title=" ">
<path fill="none" stroke="#63b8ff" d="M53.95,-447.74C69.54,-439.04 91.83,-426.61 109.67,-416.66"/>
<polygon fill="#63b8ff" stroke="#63b8ff" points="111.22,-419.81 118.25,-411.88 107.81,-413.69 111.22,-419.81"/>
</a>
</g>
</g>
<!-- Node16 -->
<g id="Node000016" class="node">
<title>Node16</title>
<g id="a_Node000016"><a xlink:href="app_8c.html#a8edff9e29636abae9f76d88e53526ef0" target="_top" xlink:title=" ">
<polygon fill="white" stroke="#666666" points="171.88,-371.75 107.88,-371.75 107.88,-351 171.88,-351 171.88,-371.75"/>
<text text-anchor="middle" x="139.88" y="-358.25" font-family="Helvetica,sans-Serif" font-size="10.00">w2c_0_83</text>
</a>
</g>
</g>
<!-- Node1&#45;&gt;Node16 -->
<g id="edge15_Node000001_Node000016" class="edge">
<title>Node1&#45;&gt;Node16</title>
<g id="a_edge15_Node000001_Node000016"><a xlink:title=" ">
<path fill="none" stroke="#63b8ff" d="M42.64,-447.67C54.52,-431.82 78.49,-401.77 103.75,-381.38 105.05,-380.33 106.4,-379.3 107.8,-378.31"/>
<polygon fill="#63b8ff" stroke="#63b8ff" points="109.56,-381.34 116.08,-372.98 105.78,-375.45 109.56,-381.34"/>
</a>
</g>
</g>
<!-- Node17 -->
<g id="Node000017" class="node">
<title>Node17</title>
<g id="a_Node000017"><a xlink:href="app_8c.html#a93195fcea6efd1282372a61baa627c09" target="_top" xlink:title=" ">
<polygon fill="white" stroke="#666666" points="171.88,-332.75 107.88,-332.75 107.88,-312 171.88,-312 171.88,-332.75"/>
<text text-anchor="middle" x="139.88" y="-319.25" font-family="Helvetica,sans-Serif" font-size="10.00">w2c_0_90</text>
</a>
</g>
</g>
<!-- Node1&#45;&gt;Node17 -->
<g id="edge16_Node000001_Node000017" class="edge">
<title>Node1&#45;&gt;Node17</title>
<g id="a_edge16_Node000001_Node000017"><a xlink:title=" ">
<path fill="none" stroke="#63b8ff" d="M39.05,-447.55C48.02,-425.45 71,-374.54 103.75,-342.38 104.76,-341.38 105.84,-340.42 106.95,-339.49"/>
<polygon fill="#63b8ff" stroke="#63b8ff" points="108.72,-342.53 114.87,-333.9 104.68,-336.81 108.72,-342.53"/>
</a>
</g>
</g>
<!-- Node18 -->
<g id="Node000018" class="node">
<title>Node18</title>
<g id="a_Node000018"><a xlink:href="app_8c.html#a03fa34d93d32a3ee40dfc2d840730111" target="_top" xlink:title=" ">
<polygon fill="white" stroke="#666666" points="173.75,-293.75 106,-293.75 106,-273 173.75,-273 173.75,-293.75"/>
<text text-anchor="middle" x="139.88" y="-280.25" font-family="Helvetica,sans-Serif" font-size="10.00">w2c__f262</text>
</a>
</g>
</g>
<!-- Node1&#45;&gt;Node18 -->
<g id="edge17_Node000001_Node000018" class="edge">
<title>Node1&#45;&gt;Node18</title>
<g id="a_edge17_Node000001_Node000018"><a xlink:title=" ">
<path fill="none" stroke="#63b8ff" d="M37.16,-447.7C43.44,-420.6 63.24,-348.13 103.75,-303.38 104.45,-302.6 105.19,-301.85 105.96,-301.12"/>
<polygon fill="#63b8ff" stroke="#63b8ff" points="108.03,-303.94 113.85,-295.09 103.78,-298.38 108.03,-303.94"/>
</a>
</g>
</g>
<!-- Node21 -->
<g id="Node000021" class="node">
<title>Node21</title>
<g id="a_Node000021"><a xlink:href="app_8c.html#aeb26043970b2a9fd98ca0a56d284b71b" target="_top" xlink:title=" ">
<polygon fill="white" stroke="#666666" points="173.75,-215.75 106,-215.75 106,-195 173.75,-195 173.75,-215.75"/>
<text text-anchor="middle" x="139.88" y="-202.25" font-family="Helvetica,sans-Serif" font-size="10.00">w2c__f386</text>
</a>
</g>
</g>
<!-- Node1&#45;&gt;Node21 -->
<g id="edge20_Node000001_Node000021" class="edge">
<title>Node1&#45;&gt;Node21</title>
<g id="a_edge20_Node000001_Node000021"><a xlink:title=" ">
<path fill="none" stroke="#63b8ff" d="M35.27,-447.83C37.12,-412.48 47.41,-296.44 103.75,-225.38 104.29,-224.69 104.86,-224.03 105.45,-223.39"/>
<polygon fill="#63b8ff" stroke="#63b8ff" points="107.66,-226.11 113.14,-217.04 103.2,-220.71 107.66,-226.11"/>
</a>
</g>
</g>
<!-- Node23 -->
<g id="Node000023" class="node">
<title>Node23</title>
<g id="a_Node000023"><a xlink:href="app_8c.html#a800df00ef236c6d6affc3c661b37e3ad" target="_top" xlink:title=" ">
<polygon fill="white" stroke="#666666" points="173.75,-254.75 106,-254.75 106,-234 173.75,-234 173.75,-254.75"/>
<text text-anchor="middle" x="139.88" y="-241.25" font-family="Helvetica,sans-Serif" font-size="10.00">w2c__f487</text>
</a>
</g>
</g>
<!-- Node1&#45;&gt;Node23 -->
<g id="edge22_Node000001_Node000023" class="edge">
<title>Node1&#45;&gt;Node23</title>
<g id="a_edge22_Node000001_Node000023"><a xlink:title=" ">
<path fill="none" stroke="#63b8ff" d="M36.02,-447.86C39.94,-416.49 55.33,-322.19 103.75,-264.38 104.31,-263.71 104.89,-263.06 105.5,-262.43"/>
<polygon fill="#63b8ff" stroke="#63b8ff" points="107.7,-265.16 113.29,-256.15 103.3,-259.71 107.7,-265.16"/>
</a>
</g>
</g>
<!-- Node24 -->
<g id="Node000024" class="node">
<title>Node24</title>
<g id="a_Node000024"><a xlink:href="app_8c.html#a559e69d186227474c80524d438119c66" target="_top" xlink:title=" ">
<polygon fill="white" stroke="#666666" points="173.75,-176.75 106,-176.75 106,-156 173.75,-156 173.75,-176.75"/>
<text text-anchor="middle" x="139.88" y="-163.25" font-family="Helvetica,sans-Serif" font-size="10.00">w2c__f508</text>
</a>
</g>
</g>
<!-- Node1&#45;&gt;Node24 -->
<g id="edge24_Node000001_Node000024" class="edge">
<title>Node1&#45;&gt;Node24</title>
<g id="a_edge24_Node000001_Node000024"><a xlink:title=" ">
<path fill="none" stroke="#63b8ff" d="M34.73,-447.76C34.71,-408.7 39.43,-270.88 103.75,-186.38 104.26,-185.7 104.8,-185.05 105.36,-184.42"/>
<polygon fill="#63b8ff" stroke="#63b8ff" points="107.33,-187.35 112.68,-178.2 102.79,-182.01 107.33,-187.35"/>
</a>
</g>
</g>
<!-- Node27 -->
<g id="Node000027" class="node">
<title>Node27</title>
<g id="a_Node000027"><a xlink:href="app_8c.html#a0e0dad0ebc52e45eeff2e1b5d8389ea4" target="_top" xlink:title=" ">
<polygon fill="white" stroke="#666666" points="173.75,-137.75 106,-137.75 106,-117 173.75,-117 173.75,-137.75"/>
<text text-anchor="middle" x="139.88" y="-124.25" font-family="Helvetica,sans-Serif" font-size="10.00">w2c__f534</text>
</a>
</g>
</g>
<!-- Node1&#45;&gt;Node27 -->
<g id="edge27_Node000001_Node000027" class="edge">
<title>Node1&#45;&gt;Node27</title>
<g id="a_edge27_Node000001_Node000027"><a xlink:title=" ">
<path fill="none" stroke="#63b8ff" d="M36.07,-447.68C41.71,-398.84 66.9,-197.33 103.75,-147.38 104.25,-146.7 104.78,-146.04 105.34,-145.4"/>
<polygon fill="#63b8ff" stroke="#63b8ff" points="107.31,-148.32 112.59,-139.14 102.73,-143.02 107.31,-148.32"/>
</a>
</g>
</g>
<!-- Node28 -->
<g id="Node000028" class="node">
<title>Node28</title>
<g id="a_Node000028"><a xlink:href="app_8c.html#a58d893dd6cf117aafb69550b2a0a0e6a" target="_top" xlink:title=" ">
<polygon fill="white" stroke="#666666" points="173.75,-98.75 106,-98.75 106,-78 173.75,-78 173.75,-98.75"/>
<text text-anchor="middle" x="139.88" y="-85.25" font-family="Helvetica,sans-Serif" font-size="10.00">wasm_ceil</text>
</a>
</g>
</g>
<!-- Node1&#45;&gt;Node28 -->
<g id="edge28_Node000001_Node000028" class="edge">
<title>Node1&#45;&gt;Node28</title>
<g id="a_edge28_Node000001_Node000028"><a xlink:title=" ">
<path fill="none" stroke="#63b8ff" d="M35.78,-447.77C40.39,-395.48 62.79,-165.3 103.75,-108.38 104.16,-107.81 104.59,-107.25 105.04,-106.71"/>
<polygon fill="#63b8ff" stroke="#63b8ff" points="107.35,-109.34 112.53,-100.1 102.72,-104.09 107.35,-109.34"/>
</a>
</g>
</g>
<!-- Node30 -->
<g id="Node000030" class="node">
<title>Node30</title>
<g id="a_Node000030"><a xlink:href="app_8c.html#ad63b6498cfe22ce747f349eeb23b508f" target="_top" xlink:title=" ">
<polygon fill="white" stroke="#666666" points="175.62,-59.75 104.12,-59.75 104.12,-39 175.62,-39 175.62,-59.75"/>
<text text-anchor="middle" x="139.88" y="-46.25" font-family="Helvetica,sans-Serif" font-size="10.00">wasm_fabs</text>
</a>
</g>
</g>
<!-- Node1&#45;&gt;Node30 -->
<g id="edge30_Node000001_Node000030" class="edge">
<title>Node1&#45;&gt;Node30</title>
<g id="a_edge30_Node000001_Node000030"><a xlink:title=" ">
<path fill="none" stroke="#63b8ff" d="M35.55,-447.73C39.26,-391.91 58.69,-133.27 103.75,-69.38 104.15,-68.8 104.58,-68.24 105.03,-67.7"/>
<polygon fill="#63b8ff" stroke="#63b8ff" points="107.34,-70.33 112.48,-61.06 102.68,-65.1 107.34,-70.33"/>
</a>
</g>
</g>
<!-- Node31 -->
<g id="Node000031" class="node">
<title>Node31</title>
<g id="a_Node000031"><a xlink:href="app_8c.html#aca677a5348fb06a52413801823fa5291" target="_top" xlink:title=" ">
<polygon fill="white" stroke="#666666" points="176,-20.75 103.75,-20.75 103.75,0 176,0 176,-20.75"/>
<text text-anchor="middle" x="139.88" y="-7.25" font-family="Helvetica,sans-Serif" font-size="10.00">wasm_floor</text>
</a>
</g>
</g>
<!-- Node1&#45;&gt;Node31 -->
<g id="edge31_Node000001_Node000031" class="edge">
<title>Node1&#45;&gt;Node31</title>
<g id="a_edge31_Node000001_Node000031"><a xlink:title=" ">
<path fill="none" stroke="#63b8ff" d="M35.35,-447.85C38.21,-389.04 54.53,-101.34 103.75,-30.38 104.15,-29.8 104.57,-29.24 105.01,-28.69"/>
<polygon fill="#63b8ff" stroke="#63b8ff" points="107.33,-31.32 112.43,-22.03 102.65,-26.11 107.33,-31.32"/>
</a>
</g>
</g>
<!-- Node19 -->
<g id="Node000019" class="node">
<title>Node19</title>
<g id="a_Node000019"><a xlink:href="app_8c.html#a16207b5f7a97b0ecfddd231452c5aa7e" target="_top" xlink:title=" ">
<polygon fill="white" stroke="#666666" points="279.75,-293.75 212,-293.75 212,-273 279.75,-273 279.75,-293.75"/>
<text text-anchor="middle" x="245.88" y="-280.25" font-family="Helvetica,sans-Serif" font-size="10.00">w2c__f263</text>
</a>
</g>
</g>
<!-- Node18&#45;&gt;Node19 -->
<g id="edge18_Node000018_Node000019" class="edge">
<title>Node18&#45;&gt;Node19</title>
<g id="a_edge18_Node000018_Node000019"><a xlink:title=" ">
<path fill="none" stroke="#63b8ff" d="M174.07,-283.38C182.42,-283.38 191.51,-283.38 200.32,-283.38"/>
<polygon fill="#63b8ff" stroke="#63b8ff" points="200.13,-286.88 210.13,-283.38 200.13,-279.88 200.13,-286.88"/>
</a>
</g>
</g>
<!-- Node20 -->
<g id="Node000020" class="node">
<title>Node20</title>
<g id="a_Node000020"><a xlink:href="app_8c.html#a71bcbce7faf780cd081af3fa82d6da97" target="_top" xlink:title=" ">
<polygon fill="white" stroke="#666666" points="279.75,-254.75 212,-254.75 212,-234 279.75,-234 279.75,-254.75"/>
<text text-anchor="middle" x="245.88" y="-241.25" font-family="Helvetica,sans-Serif" font-size="10.00">w2c__f437</text>
</a>
</g>
</g>
<!-- Node18&#45;&gt;Node20 -->
<g id="edge19_Node000018_Node000020" class="edge">
<title>Node18&#45;&gt;Node20</title>
<g id="a_edge19_Node000018_Node000020"><a xlink:title=" ">
<path fill="none" stroke="#63b8ff" d="M169.84,-272.51C180.89,-268.37 193.67,-263.58 205.52,-259.13"/>
<polygon fill="#63b8ff" stroke="#63b8ff" points="206.51,-262.5 214.64,-255.71 204.05,-255.95 206.51,-262.5"/>
</a>
</g>
</g>
<!-- Node22 -->
<g id="Node000022" class="node">
<title>Node22</title>
<g id="a_Node000022"><a xlink:href="app_8c.html#a5d082dff6c4c25de25da9f4dc538c097" target="_top" xlink:title=" ">
<polygon fill="white" stroke="#666666" points="279.75,-215.75 212,-215.75 212,-195 279.75,-195 279.75,-215.75"/>
<text text-anchor="middle" x="245.88" y="-202.25" font-family="Helvetica,sans-Serif" font-size="10.00">w2c__f265</text>
</a>
</g>
</g>
<!-- Node21&#45;&gt;Node22 -->
<g id="edge21_Node000021_Node000022" class="edge">
<title>Node21&#45;&gt;Node22</title>
<g id="a_edge21_Node000021_Node000022"><a xlink:title=" ">
<path fill="none" stroke="#63b8ff" d="M174.07,-205.38C182.42,-205.38 191.51,-205.38 200.32,-205.38"/>
<polygon fill="#63b8ff" stroke="#63b8ff" points="200.13,-208.88 210.13,-205.38 200.13,-201.88 200.13,-208.88"/>
</a>
</g>
</g>
<!-- Node23&#45;&gt;Node20 -->
<g id="edge23_Node000023_Node000020" class="edge">
<title>Node23&#45;&gt;Node20</title>
<g id="a_edge23_Node000023_Node000020"><a xlink:title=" ">
<path fill="none" stroke="#63b8ff" d="M174.07,-244.38C182.42,-244.38 191.51,-244.38 200.32,-244.38"/>
<polygon fill="#63b8ff" stroke="#63b8ff" points="200.13,-247.88 210.13,-244.38 200.13,-240.88 200.13,-247.88"/>
</a>
</g>
</g>
<!-- Node25 -->
<g id="Node000025" class="node">
<title>Node25</title>
<g id="a_Node000025"><a xlink:href="app_8c.html#a34d18545510c7604d64db5651af2a253" target="_top" xlink:title=" ">
<polygon fill="white" stroke="#666666" points="279.75,-176.75 212,-176.75 212,-156 279.75,-156 279.75,-176.75"/>
<text text-anchor="middle" x="245.88" y="-163.25" font-family="Helvetica,sans-Serif" font-size="10.00">w2c__f332</text>
</a>
</g>
</g>
<!-- Node24&#45;&gt;Node25 -->
<g id="edge25_Node000024_Node000025" class="edge">
<title>Node24&#45;&gt;Node25</title>
<g id="a_edge25_Node000024_Node000025"><a xlink:title=" ">
<path fill="none" stroke="#63b8ff" d="M174.07,-166.38C182.42,-166.38 191.51,-166.38 200.32,-166.38"/>
<polygon fill="#63b8ff" stroke="#63b8ff" points="200.13,-169.88 210.13,-166.38 200.13,-162.88 200.13,-169.88"/>
</a>
</g>
</g>
<!-- Node26 -->
<g id="Node000026" class="node">
<title>Node26</title>
<g id="a_Node000026"><a xlink:href="app_8c.html#a0f7003812eaf983535ff7979fc047a21" target="_top" xlink:title=" ">
<polygon fill="white" stroke="#666666" points="279.75,-137.75 212,-137.75 212,-117 279.75,-117 279.75,-137.75"/>
<text text-anchor="middle" x="245.88" y="-124.25" font-family="Helvetica,sans-Serif" font-size="10.00">w2c__f353</text>
</a>
</g>
</g>
<!-- Node24&#45;&gt;Node26 -->
<g id="edge26_Node000024_Node000026" class="edge">
<title>Node24&#45;&gt;Node26</title>
<g id="a_edge26_Node000024_Node000026"><a xlink:title=" ">
<path fill="none" stroke="#63b8ff" d="M169.84,-155.51C180.89,-151.37 193.67,-146.58 205.52,-142.13"/>
<polygon fill="#63b8ff" stroke="#63b8ff" points="206.51,-145.5 214.64,-138.71 204.05,-138.95 206.51,-145.5"/>
</a>
</g>
</g>
<!-- Node29 -->
<g id="Node000029" class="node">
<title>Node29</title>
<g id="a_Node000029"><a xlink:href="app_8c.html#ae10979e670e507d4373e8cadcb3169aa" target="_top" xlink:title=" ">
<polygon fill="white" stroke="#666666" points="277.88,-59.75 213.88,-59.75 213.88,-39 277.88,-39 277.88,-59.75"/>
<text text-anchor="middle" x="245.88" y="-46.25" font-family="Helvetica,sans-Serif" font-size="10.00">quiet_nan</text>
</a>
</g>
</g>
<!-- Node28&#45;&gt;Node29 -->
<g id="edge29_Node000028_Node000029" class="edge">
<title>Node28&#45;&gt;Node29</title>
<g id="a_edge29_Node000028_Node000029"><a xlink:title=" ">
<path fill="none" stroke="#63b8ff" d="M169.84,-77.51C180.89,-73.37 193.67,-68.58 205.52,-64.13"/>
<polygon fill="#63b8ff" stroke="#63b8ff" points="206.51,-67.5 214.64,-60.71 204.05,-60.95 206.51,-67.5"/>
</a>
</g>
</g>
<!-- Node31&#45;&gt;Node29 -->
<g id="edge32_Node000031_Node000029" class="edge">
<title>Node31&#45;&gt;Node29</title>
<g id="a_edge32_Node000031_Node000029"><a xlink:title=" ">
<path fill="none" stroke="#63b8ff" d="M169.84,-21.24C180.89,-25.38 193.67,-30.17 205.52,-34.62"/>
<polygon fill="#63b8ff" stroke="#63b8ff" points="204.05,-37.8 214.64,-38.04 206.51,-31.25 204.05,-37.8"/>
</a>
</g>
</g>
</g>
</svg>
