<?xml version="1.0" encoding="UTF-8" standalone="no"?>
<!DOCTYPE svg PUBLIC "-//W3C//DTD SVG 1.1//EN"
 "http://www.w3.org/Graphics/SVG/1.1/DTD/svg11.dtd">
<!-- Generated by graphviz version 12.2.1 (0)
 -->
<!-- Title: w2c__f503 Pages: 1 -->
<svg width="786pt" height="88pt"
 viewBox="0.00 0.00 786.00 87.75" xmlns="http://www.w3.org/2000/svg" xmlns:xlink="http://www.w3.org/1999/xlink">
<g id="graph0" class="graph" transform="scale(1 1) rotate(0) translate(4 83.75)">
<title>w2c__f503</title>
<!-- Node1 -->
<g id="Node000001" class="node">
<title>Node1</title>
<g id="a_Node000001"><a xlink:title=" ">
<polygon fill="#999999" stroke="#666666" points="778,-39.75 710.25,-39.75 710.25,-19 778,-19 778,-39.75"/>
<text text-anchor="middle" x="744.12" y="-26.25" font-family="Helvetica,sans-Serif" font-size="10.00">w2c__f503</text>
</a>
</g>
</g>
<!-- Node2 -->
<g id="Node000002" class="node">
<title>Node2</title>
<g id="a_Node000002"><a xlink:href="app_8c.html#abfae8f4ed4890a57991c21d1c2b5183d" target="_top" xlink:title=" ">
<polygon fill="white" stroke="#666666" points="659.62,-59.75 591.88,-59.75 591.88,-39 659.62,-39 659.62,-59.75"/>
<text text-anchor="middle" x="625.75" y="-46.25" font-family="Helvetica,sans-Serif" font-size="10.00">w2c__f531</text>
</a>
</g>
</g>
<!-- Node1&#45;&gt;Node2 -->
<g id="edge1_Node000001_Node000002" class="edge">
<title>Node1&#45;&gt;Node2</title>
<g id="a_edge1_Node000001_Node000002"><a xlink:title=" ">
<path fill="none" stroke="#63b8ff" d="M698.8,-36.99C685.96,-39.2 672.16,-41.57 660.1,-43.64"/>
<polygon fill="#63b8ff" stroke="#63b8ff" points="699.02,-40.51 708.28,-35.36 697.84,-33.61 699.02,-40.51"/>
</a>
</g>
</g>
<!-- Node12 -->
<g id="Node000012" class="node">
<title>Node12</title>
<g id="a_Node000012"><a xlink:href="app_8c.html#a9f20d86426659be5df6a0dee2fc2d930" target="_top" xlink:title=" ">
<polygon fill="white" stroke="#666666" points="674.25,-20.75 577.25,-20.75 577.25,0 674.25,0 674.25,-20.75"/>
<text text-anchor="middle" x="625.75" y="-7.25" font-family="Helvetica,sans-Serif" font-size="10.00">wrap_w2c__f503</text>
</a>
</g>
</g>
<!-- Node1&#45;&gt;Node12 -->
<g id="edge13_Node000001_Node000012" class="edge">
<title>Node1&#45;&gt;Node12</title>
<g id="a_edge13_Node000001_Node000012"><a xlink:title=" ">
<path fill="none" stroke="#63b8ff" d="M698.53,-22.09C690.64,-20.81 682.39,-19.46 674.41,-18.16"/>
<polygon fill="#63b8ff" stroke="#63b8ff" points="697.85,-25.53 708.28,-23.69 698.98,-18.62 697.85,-25.53"/>
</a>
</g>
</g>
<!-- Node2&#45;&gt;Node2 -->
<g id="edge11_Node000002_Node000002" class="edge">
<title>Node2&#45;&gt;Node2</title>
<g id="a_edge11_Node000002_Node000002"><a xlink:title=" ">
<path fill="none" stroke="#63b8ff" d="M646.58,-71.24C643.82,-75.08 636.88,-77.75 625.75,-77.75 605.4,-77.75 599.05,-68.81 606.68,-60.15"/>
<polygon fill="#63b8ff" stroke="#63b8ff" points="650.08,-70.97 645.06,-61.64 643.17,-72.07 650.08,-70.97"/>
</a>
</g>
</g>
<!-- Node3 -->
<g id="Node000003" class="node">
<title>Node3</title>
<g id="a_Node000003"><a xlink:href="app_8c.html#a661adef20422b3bec7471432caf0b5bd" target="_top" xlink:title=" ">
<polygon fill="white" stroke="#666666" points="526.62,-59.75 458.88,-59.75 458.88,-39 526.62,-39 526.62,-59.75"/>
<text text-anchor="middle" x="492.75" y="-46.25" font-family="Helvetica,sans-Serif" font-size="10.00">w2c__f410</text>
</a>
</g>
</g>
<!-- Node2&#45;&gt;Node3 -->
<g id="edge2_Node000002_Node000003" class="edge">
<title>Node2&#45;&gt;Node3</title>
<g id="a_edge2_Node000002_Node000003"><a xlink:title=" ">
<path fill="none" stroke="#63b8ff" d="M580.28,-42.94C562.77,-42.39 543.01,-42.55 526.8,-43.42"/>
<polygon fill="#63b8ff" stroke="#63b8ff" points="580.04,-46.44 590.18,-43.36 580.34,-39.44 580.04,-46.44"/>
</a>
</g>
</g>
<!-- Node11 -->
<g id="Node000011" class="node">
<title>Node11</title>
<g id="a_Node000011"><a xlink:href="app_8c.html#a146b188acbf010009240d501f3df9752" target="_top" xlink:title=" ">
<polygon fill="white" stroke="#666666" points="541.25,-20.75 444.25,-20.75 444.25,0 541.25,0 541.25,-20.75"/>
<text text-anchor="middle" x="492.75" y="-7.25" font-family="Helvetica,sans-Serif" font-size="10.00">wrap_w2c__f531</text>
</a>
</g>
</g>
<!-- Node2&#45;&gt;Node11 -->
<g id="edge12_Node000002_Node000011" class="edge">
<title>Node2&#45;&gt;Node11</title>
<g id="a_edge12_Node000002_Node000011"><a xlink:title=" ">
<path fill="none" stroke="#63b8ff" d="M580.68,-36.25C564.21,-31.35 545.71,-25.84 530.02,-21.17"/>
<polygon fill="#63b8ff" stroke="#63b8ff" points="579.66,-39.6 590.24,-39.1 581.66,-32.89 579.66,-39.6"/>
</a>
</g>
</g>
<!-- Node3&#45;&gt;Node2 -->
<g id="edge10_Node000003_Node000002" class="edge">
<title>Node3&#45;&gt;Node2</title>
<g id="a_edge10_Node000003_Node000002"><a xlink:title=" ">
<path fill="none" stroke="#63b8ff" d="M538.21,-55.81C555.72,-56.36 575.48,-56.2 591.69,-55.33"/>
<polygon fill="#63b8ff" stroke="#63b8ff" points="538.45,-52.31 528.31,-55.39 538.15,-59.31 538.45,-52.31"/>
</a>
</g>
</g>
<!-- Node4 -->
<g id="Node000004" class="node">
<title>Node4</title>
<g id="a_Node000004"><a xlink:href="app_8c.html#ad626a9df39c0e5c1bf5b949c591b8261" target="_top" xlink:title=" ">
<polygon fill="white" stroke="#666666" points="408.25,-59.75 340.5,-59.75 340.5,-39 408.25,-39 408.25,-59.75"/>
<text text-anchor="middle" x="374.38" y="-46.25" font-family="Helvetica,sans-Serif" font-size="10.00">w2c__f409</text>
</a>
</g>
</g>
<!-- Node3&#45;&gt;Node4 -->
<g id="edge3_Node000003_Node000004" class="edge">
<title>Node3&#45;&gt;Node4</title>
<g id="a_edge3_Node000003_Node000004"><a xlink:title=" ">
<path fill="none" stroke="#63b8ff" d="M447.04,-49.38C434.3,-49.38 420.66,-49.38 408.73,-49.38"/>
<polygon fill="#63b8ff" stroke="#63b8ff" points="446.89,-52.88 456.89,-49.38 446.89,-45.88 446.89,-52.88"/>
</a>
</g>
</g>
<!-- Node5 -->
<g id="Node000005" class="node">
<title>Node5</title>
<g id="a_Node000005"><a xlink:href="app_8c.html#a512669319fec7c2cbf61fd668bc650c9" target="_top" xlink:title=" ">
<polygon fill="white" stroke="#666666" points="304.5,-79.75 236.75,-79.75 236.75,-59 304.5,-59 304.5,-79.75"/>
<text text-anchor="middle" x="270.62" y="-66.25" font-family="Helvetica,sans-Serif" font-size="10.00">w2c__f343</text>
</a>
</g>
</g>
<!-- Node4&#45;&gt;Node5 -->
<g id="edge4_Node000004_Node000005" class="edge">
<title>Node4&#45;&gt;Node5</title>
<g id="a_edge4_Node000004_Node000005"><a xlink:title=" ">
<path fill="none" stroke="#63b8ff" d="M328.82,-58.13C320.71,-59.73 312.38,-61.37 304.67,-62.88"/>
<polygon fill="#63b8ff" stroke="#63b8ff" points="329.44,-61.58 338.57,-56.22 328.09,-54.71 329.44,-61.58"/>
</a>
</g>
</g>
<!-- Node8 -->
<g id="Node000008" class="node">
<title>Node8</title>
<g id="a_Node000008"><a xlink:href="app_8c.html#a6c30f2996216fe44cdda84ff266f8b19" target="_top" xlink:title=" ">
<polygon fill="white" stroke="#666666" points="304.5,-40.75 236.75,-40.75 236.75,-20 304.5,-20 304.5,-40.75"/>
<text text-anchor="middle" x="270.62" y="-27.25" font-family="Helvetica,sans-Serif" font-size="10.00">w2c__f362</text>
</a>
</g>
</g>
<!-- Node4&#45;&gt;Node8 -->
<g id="edge7_Node000004_Node000008" class="edge">
<title>Node4&#45;&gt;Node8</title>
<g id="a_edge7_Node000004_Node000008"><a xlink:title=" ">
<path fill="none" stroke="#63b8ff" d="M328.82,-41.06C320.71,-39.54 312.38,-37.98 304.67,-36.55"/>
<polygon fill="#63b8ff" stroke="#63b8ff" points="328.1,-44.48 338.57,-42.88 329.38,-37.6 328.1,-44.48"/>
</a>
</g>
</g>
<!-- Node6 -->
<g id="Node000006" class="node">
<title>Node6</title>
<g id="a_Node000006"><a xlink:href="app_8c.html#a7dc7d70793bae217b64eab580fce99cb" target="_top" xlink:title=" ">
<polygon fill="white" stroke="#666666" points="200.75,-79.75 133,-79.75 133,-59 200.75,-59 200.75,-79.75"/>
<text text-anchor="middle" x="166.88" y="-66.25" font-family="Helvetica,sans-Serif" font-size="10.00">w2c__f215</text>
</a>
</g>
</g>
<!-- Node5&#45;&gt;Node6 -->
<g id="edge5_Node000005_Node000006" class="edge">
<title>Node5&#45;&gt;Node6</title>
<g id="a_edge5_Node000005_Node000006"><a xlink:title=" ">
<path fill="none" stroke="#63b8ff" d="M225.07,-69.38C216.96,-69.38 208.63,-69.38 200.92,-69.38"/>
<polygon fill="#63b8ff" stroke="#63b8ff" points="224.79,-72.88 234.79,-69.38 224.79,-65.88 224.79,-72.88"/>
</a>
</g>
</g>
<!-- Node7 -->
<g id="Node000007" class="node">
<title>Node7</title>
<g id="a_Node000007"><a xlink:href="app_8c.html#a7f65ba02075f2865f478747946b07c94" target="_top" xlink:title=" ">
<polygon fill="white" stroke="#666666" points="97,-79.75 0,-79.75 0,-59 97,-59 97,-79.75"/>
<text text-anchor="middle" x="48.5" y="-66.25" font-family="Helvetica,sans-Serif" font-size="10.00">wrap_w2c__f215</text>
</a>
</g>
</g>
<!-- Node6&#45;&gt;Node7 -->
<g id="edge6_Node000006_Node000007" class="edge">
<title>Node6&#45;&gt;Node7</title>
<g id="a_edge6_Node000006_Node000007"><a xlink:title=" ">
<path fill="none" stroke="#63b8ff" d="M121.28,-69.38C113.39,-69.38 105.14,-69.38 97.16,-69.38"/>
<polygon fill="#63b8ff" stroke="#63b8ff" points="121.01,-72.88 131.01,-69.38 121.01,-65.88 121.01,-72.88"/>
</a>
</g>
</g>
<!-- Node9 -->
<g id="Node000009" class="node">
<title>Node9</title>
<g id="a_Node000009"><a xlink:href="app_8c.html#a86ae468e235684021eadfdacd5cb9dba" target="_top" xlink:title=" ">
<polygon fill="white" stroke="#666666" points="200.75,-40.75 133,-40.75 133,-20 200.75,-20 200.75,-40.75"/>
<text text-anchor="middle" x="166.88" y="-27.25" font-family="Helvetica,sans-Serif" font-size="10.00">w2c__f452</text>
</a>
</g>
</g>
<!-- Node8&#45;&gt;Node9 -->
<g id="edge8_Node000008_Node000009" class="edge">
<title>Node8&#45;&gt;Node9</title>
<g id="a_edge8_Node000008_Node000009"><a xlink:title=" ">
<path fill="none" stroke="#63b8ff" d="M225.07,-30.38C216.96,-30.38 208.63,-30.38 200.92,-30.38"/>
<polygon fill="#63b8ff" stroke="#63b8ff" points="224.79,-33.88 234.79,-30.38 224.79,-26.88 224.79,-33.88"/>
</a>
</g>
</g>
<!-- Node10 -->
<g id="Node000010" class="node">
<title>Node10</title>
<g id="a_Node000010"><a xlink:href="app_8c.html#a57ca4f801147f9325a0ea7cc2d7192c5" target="_top" xlink:title=" ">
<polygon fill="white" stroke="#666666" points="97,-40.75 0,-40.75 0,-20 97,-20 97,-40.75"/>
<text text-anchor="middle" x="48.5" y="-27.25" font-family="Helvetica,sans-Serif" font-size="10.00">wrap_w2c__f452</text>
</a>
</g>
</g>
<!-- Node9&#45;&gt;Node10 -->
<g id="edge9_Node000009_Node000010" class="edge">
<title>Node9&#45;&gt;Node10</title>
<g id="a_edge9_Node000009_Node000010"><a xlink:title=" ">
<path fill="none" stroke="#63b8ff" d="M121.28,-30.38C113.39,-30.38 105.14,-30.38 97.16,-30.38"/>
<polygon fill="#63b8ff" stroke="#63b8ff" points="121.01,-33.88 131.01,-30.38 121.01,-26.88 121.01,-33.88"/>
</a>
</g>
</g>
</g>
</svg>
