<?xml version="1.0" encoding="UTF-8" standalone="no"?>
<!DOCTYPE svg PUBLIC "-//W3C//DTD SVG 1.1//EN"
 "http://www.w3.org/Graphics/SVG/1.1/DTD/svg11.dtd">
<!-- Generated by graphviz version 12.2.1 (0)
 -->
<!-- Title: w2c__f351 Pages: 1 -->
<svg width="712pt" height="415pt"
 viewBox="0.00 0.00 711.75 415.12" xmlns="http://www.w3.org/2000/svg" xmlns:xlink="http://www.w3.org/1999/xlink">
<g id="graph0" class="graph" transform="scale(1 1) rotate(0) translate(4 411.12)">
<title>w2c__f351</title>
<!-- Node1 -->
<g id="Node000001" class="node">
<title>Node1</title>
<g id="a_Node000001"><a xlink:title=" ">
<polygon fill="#999999" stroke="#666666" points="67.75,-212.75 0,-212.75 0,-192 67.75,-192 67.75,-212.75"/>
<text text-anchor="middle" x="33.88" y="-199.25" font-family="Helvetica,sans-Serif" font-size="10.00">w2c__f351</text>
</a>
</g>
</g>
<!-- Node2 -->
<g id="Node000002" class="node">
<title>Node2</title>
<g id="a_Node000002"><a xlink:href="app_8c.html#ac550aaba82d57d6f9e0af73ab1dd2c1e" target="_top" xlink:title=" ">
<polygon fill="white" stroke="#666666" points="173.38,-212.75 105.62,-212.75 105.62,-192 173.38,-192 173.38,-212.75"/>
<text text-anchor="middle" x="139.5" y="-199.25" font-family="Helvetica,sans-Serif" font-size="10.00">w2c__f575</text>
</a>
</g>
</g>
<!-- Node1&#45;&gt;Node2 -->
<g id="edge1_Node000001_Node000002" class="edge">
<title>Node1&#45;&gt;Node2</title>
<g id="a_edge1_Node000001_Node000002"><a xlink:title=" ">
<path fill="none" stroke="#63b8ff" d="M68.23,-202.38C76.37,-202.38 85.2,-202.38 93.77,-202.38"/>
<polygon fill="#63b8ff" stroke="#63b8ff" points="93.69,-205.88 103.69,-202.38 93.69,-198.88 93.69,-205.88"/>
</a>
</g>
</g>
<!-- Node27 -->
<g id="Node000027" class="node">
<title>Node27</title>
<g id="a_Node000027"><a xlink:href="app_8c.html#ad63b6498cfe22ce747f349eeb23b508f" target="_top" xlink:title=" ">
<polygon fill="white" stroke="#666666" points="175.25,-173.75 103.75,-173.75 103.75,-153 175.25,-153 175.25,-173.75"/>
<text text-anchor="middle" x="139.5" y="-160.25" font-family="Helvetica,sans-Serif" font-size="10.00">wasm_fabs</text>
</a>
</g>
</g>
<!-- Node1&#45;&gt;Node27 -->
<g id="edge43_Node000001_Node000027" class="edge">
<title>Node1&#45;&gt;Node27</title>
<g id="a_edge43_Node000001_Node000027"><a xlink:title=" ">
<path fill="none" stroke="#63b8ff" d="M63.74,-191.51C74.74,-187.37 87.48,-182.58 99.28,-178.13"/>
<polygon fill="#63b8ff" stroke="#63b8ff" points="100.25,-181.51 108.37,-174.71 97.78,-174.96 100.25,-181.51"/>
</a>
</g>
</g>
<!-- Node28 -->
<g id="Node000028" class="node">
<title>Node28</title>
<g id="a_Node000028"><a xlink:href="app_8c.html#a22805979cc49b429d0fb4b7435774648" target="_top" xlink:title=" ">
<polygon fill="white" stroke="#666666" points="174.12,-324.75 104.88,-324.75 104.88,-304 174.12,-304 174.12,-324.75"/>
<text text-anchor="middle" x="139.5" y="-311.25" font-family="Helvetica,sans-Serif" font-size="10.00">wasm_sqrt</text>
</a>
</g>
</g>
<!-- Node1&#45;&gt;Node28 -->
<g id="edge44_Node000001_Node000028" class="edge">
<title>Node1&#45;&gt;Node28</title>
<g id="a_edge44_Node000001_Node000028"><a xlink:title=" ">
<path fill="none" stroke="#63b8ff" d="M44.81,-213.11C62.33,-232.05 98.92,-271.6 120.83,-295.28"/>
<polygon fill="#63b8ff" stroke="#63b8ff" points="118.05,-297.43 127.41,-302.39 123.19,-292.68 118.05,-297.43"/>
</a>
</g>
</g>
<!-- Node3 -->
<g id="Node000003" class="node">
<title>Node3</title>
<g id="a_Node000003"><a xlink:href="app_8c.html#ae42480847be1e319c571d8bc8695d191" target="_top" xlink:title=" ">
<polygon fill="white" stroke="#666666" points="282.75,-254.75 215,-254.75 215,-234 282.75,-234 282.75,-254.75"/>
<text text-anchor="middle" x="248.88" y="-241.25" font-family="Helvetica,sans-Serif" font-size="10.00">w2c__f223</text>
</a>
</g>
</g>
<!-- Node2&#45;&gt;Node3 -->
<g id="edge2_Node000002_Node000003" class="edge">
<title>Node2&#45;&gt;Node3</title>
<g id="a_edge2_Node000002_Node000003"><a xlink:title=" ">
<path fill="none" stroke="#63b8ff" d="M168.15,-213.19C180.8,-218.14 196,-224.08 209.71,-229.45"/>
<polygon fill="#63b8ff" stroke="#63b8ff" points="208.32,-232.66 218.91,-233.04 210.87,-226.14 208.32,-232.66"/>
</a>
</g>
</g>
<!-- Node13 -->
<g id="Node000013" class="node">
<title>Node13</title>
<g id="a_Node000013"><a xlink:href="app_8c.html#a5afd0bdcabe1312572f585b64e00c911" target="_top" xlink:title=" ">
<polygon fill="white" stroke="#666666" points="282.75,-98.75 215,-98.75 215,-78 282.75,-78 282.75,-98.75"/>
<text text-anchor="middle" x="248.88" y="-85.25" font-family="Helvetica,sans-Serif" font-size="10.00">w2c__f256</text>
</a>
</g>
</g>
<!-- Node2&#45;&gt;Node13 -->
<g id="edge17_Node000002_Node000013" class="edge">
<title>Node2&#45;&gt;Node13</title>
<g id="a_edge17_Node000002_Node000013"><a xlink:title=" ">
<path fill="none" stroke="#63b8ff" d="M163.61,-191.69C167.82,-189.05 171.93,-185.94 175.25,-182.38 200.2,-155.63 186,-134.84 211.25,-108.38 212.1,-107.48 213,-106.62 213.94,-105.79"/>
<polygon fill="#63b8ff" stroke="#63b8ff" points="215.87,-108.72 221.91,-100.01 211.76,-103.05 215.87,-108.72"/>
</a>
</g>
</g>
<!-- Node21 -->
<g id="Node000021" class="node">
<title>Node21</title>
<g id="a_Node000021"><a xlink:href="app_8c.html#a9faf27b3cd82c8485f63b0a67bc1865f" target="_top" xlink:title=" ">
<polygon fill="white" stroke="#666666" points="282.75,-137.75 215,-137.75 215,-117 282.75,-117 282.75,-137.75"/>
<text text-anchor="middle" x="248.88" y="-124.25" font-family="Helvetica,sans-Serif" font-size="10.00">w2c__f344</text>
</a>
</g>
</g>
<!-- Node2&#45;&gt;Node21 -->
<g id="edge25_Node000002_Node000021" class="edge">
<title>Node2&#45;&gt;Node21</title>
<g id="a_edge25_Node000002_Node000021"><a xlink:title=" ">
<path fill="none" stroke="#63b8ff" d="M161.25,-191.56C166,-188.78 170.92,-185.65 175.25,-182.38 193.06,-168.93 193.29,-160.62 211.25,-147.38 212.81,-146.22 214.45,-145.09 216.13,-143.99"/>
<polygon fill="#63b8ff" stroke="#63b8ff" points="217.91,-147 224.68,-138.85 214.3,-141 217.91,-147"/>
</a>
</g>
</g>
<!-- Node22 -->
<g id="Node000022" class="node">
<title>Node22</title>
<g id="a_Node000022"><a xlink:href="app_8c.html#aaf013b2b29372f4a479047d0c464d3ba" target="_top" xlink:title=" ">
<polygon fill="white" stroke="#666666" points="282.75,-176.75 215,-176.75 215,-156 282.75,-156 282.75,-176.75"/>
<text text-anchor="middle" x="248.88" y="-163.25" font-family="Helvetica,sans-Serif" font-size="10.00">w2c__f401</text>
</a>
</g>
</g>
<!-- Node2&#45;&gt;Node22 -->
<g id="edge32_Node000002_Node000022" class="edge">
<title>Node2&#45;&gt;Node22</title>
<g id="a_edge32_Node000002_Node000022"><a xlink:title=" ">
<path fill="none" stroke="#63b8ff" d="M172.72,-191.57C182.8,-188.19 194.1,-184.4 204.81,-180.81"/>
<polygon fill="#63b8ff" stroke="#63b8ff" points="205.88,-184.15 214.25,-177.65 203.65,-177.51 205.88,-184.15"/>
</a>
</g>
</g>
<!-- Node25 -->
<g id="Node000025" class="node">
<title>Node25</title>
<g id="a_Node000025"><a xlink:href="app_8c.html#abe22e959f965cb0fbcf5b83be18fbe1e" target="_top" xlink:title=" ">
<polygon fill="white" stroke="#666666" points="286.5,-313.75 211.25,-313.75 211.25,-293 286.5,-293 286.5,-313.75"/>
<text text-anchor="middle" x="248.88" y="-300.25" font-family="Helvetica,sans-Serif" font-size="10.00">wasm_quiet</text>
</a>
</g>
</g>
<!-- Node2&#45;&gt;Node25 -->
<g id="edge41_Node000002_Node000025" class="edge">
<title>Node2&#45;&gt;Node25</title>
<g id="a_edge41_Node000002_Node000025"><a xlink:title=" ">
<path fill="none" stroke="#63b8ff" d="M151.99,-213.18C170.24,-230.35 206.04,-264.03 228.36,-285.02"/>
<polygon fill="#63b8ff" stroke="#63b8ff" points="225.68,-287.3 235.36,-291.61 230.48,-282.21 225.68,-287.3"/>
</a>
</g>
</g>
<!-- Node4 -->
<g id="Node000004" class="node">
<title>Node4</title>
<g id="a_Node000004"><a xlink:href="app_8c.html#a1a8a1d528c65d63a630e19c3a4bdd098" target="_top" xlink:title=" ">
<polygon fill="white" stroke="#666666" points="391.38,-332.75 323.62,-332.75 323.62,-312 391.38,-312 391.38,-332.75"/>
<text text-anchor="middle" x="357.5" y="-319.25" font-family="Helvetica,sans-Serif" font-size="10.00">w2c__f557</text>
</a>
</g>
</g>
<!-- Node3&#45;&gt;Node4 -->
<g id="edge3_Node000003_Node000004" class="edge">
<title>Node3&#45;&gt;Node4</title>
<g id="a_edge3_Node000003_Node000004"><a xlink:title=" ">
<path fill="none" stroke="#63b8ff" d="M262.31,-255.21C276.45,-267.31 300.44,-287.19 322.5,-302.38 324.09,-303.47 325.74,-304.57 327.42,-305.65"/>
<polygon fill="#63b8ff" stroke="#63b8ff" points="325.5,-308.58 335.85,-310.84 329.17,-302.61 325.5,-308.58"/>
</a>
</g>
</g>
<!-- Node5 -->
<g id="Node000005" class="node">
<title>Node5</title>
<g id="a_Node000005"><a xlink:href="app_8c.html#a0f7003812eaf983535ff7979fc047a21" target="_top" xlink:title=" ">
<polygon fill="white" stroke="#666666" points="496.25,-312.75 428.5,-312.75 428.5,-292 496.25,-292 496.25,-312.75"/>
<text text-anchor="middle" x="462.38" y="-299.25" font-family="Helvetica,sans-Serif" font-size="10.00">w2c__f353</text>
</a>
</g>
</g>
<!-- Node4&#45;&gt;Node5 -->
<g id="edge4_Node000004_Node000005" class="edge">
<title>Node4&#45;&gt;Node5</title>
<g id="a_edge4_Node000004_Node000005"><a xlink:title=" ">
<path fill="none" stroke="#63b8ff" d="M391.62,-315.94C399.78,-314.35 408.66,-312.62 417.26,-310.95"/>
<polygon fill="#63b8ff" stroke="#63b8ff" points="417.69,-314.43 426.83,-309.09 416.35,-307.56 417.69,-314.43"/>
</a>
</g>
</g>
<!-- Node10 -->
<g id="Node000010" class="node">
<title>Node10</title>
<g id="a_Node000010"><a xlink:href="app_8c.html#ac9cc84763a9c1933e50eedd7a06c17e2" target="_top" xlink:title=" ">
<polygon fill="white" stroke="#666666" points="496.25,-351.75 428.5,-351.75 428.5,-331 496.25,-331 496.25,-351.75"/>
<text text-anchor="middle" x="462.38" y="-338.25" font-family="Helvetica,sans-Serif" font-size="10.00">w2c__f480</text>
</a>
</g>
</g>
<!-- Node4&#45;&gt;Node10 -->
<g id="edge10_Node000004_Node000010" class="edge">
<title>Node4&#45;&gt;Node10</title>
<g id="a_edge10_Node000004_Node000010"><a xlink:title=" ">
<path fill="none" stroke="#63b8ff" d="M391.62,-328.49C399.78,-330 408.66,-331.64 417.26,-333.23"/>
<polygon fill="#63b8ff" stroke="#63b8ff" points="416.36,-336.62 426.83,-335 417.63,-329.74 416.36,-336.62"/>
</a>
</g>
</g>
<!-- Node6 -->
<g id="Node000006" class="node">
<title>Node6</title>
<g id="a_Node000006"><a xlink:href="app_8c.html#aaca5d5bcf49f2ca74019cf097750b9f3" target="_top" xlink:title=" ">
<polygon fill="white" stroke="#666666" points="600,-273.75 532.25,-273.75 532.25,-253 600,-253 600,-273.75"/>
<text text-anchor="middle" x="566.12" y="-260.25" font-family="Helvetica,sans-Serif" font-size="10.00">w2c__f258</text>
</a>
</g>
</g>
<!-- Node5&#45;&gt;Node6 -->
<g id="edge5_Node000005_Node000006" class="edge">
<title>Node5&#45;&gt;Node6</title>
<g id="a_edge5_Node000005_Node000006"><a xlink:title=" ">
<path fill="none" stroke="#63b8ff" d="M491.72,-291.51C502.41,-287.41 514.77,-282.67 526.26,-278.27"/>
<polygon fill="#63b8ff" stroke="#63b8ff" points="527.44,-281.57 535.52,-274.72 524.93,-275.03 527.44,-281.57"/>
</a>
</g>
</g>
<!-- Node9 -->
<g id="Node000009" class="node">
<title>Node9</title>
<g id="a_Node000009"><a xlink:href="app_8c.html#a4634342addbde677893ffcb45cf639dd" target="_top" xlink:title=" ">
<polygon fill="white" stroke="#666666" points="600,-312.75 532.25,-312.75 532.25,-292 600,-292 600,-312.75"/>
<text text-anchor="middle" x="566.12" y="-299.25" font-family="Helvetica,sans-Serif" font-size="10.00">w2c__f302</text>
</a>
</g>
</g>
<!-- Node5&#45;&gt;Node9 -->
<g id="edge8_Node000005_Node000009" class="edge">
<title>Node5&#45;&gt;Node9</title>
<g id="a_edge8_Node000005_Node000009"><a xlink:title=" ">
<path fill="none" stroke="#63b8ff" d="M496.69,-302.38C504.32,-302.38 512.56,-302.38 520.58,-302.38"/>
<polygon fill="#63b8ff" stroke="#63b8ff" points="520.57,-305.88 530.57,-302.38 520.57,-298.88 520.57,-305.88"/>
</a>
</g>
</g>
<!-- Node7 -->
<g id="Node000007" class="node">
<title>Node7</title>
<g id="a_Node000007"><a xlink:href="app_8c.html#a8d9f347f9a643f0ebfb53c4f54578ac4" target="_top" xlink:title=" ">
<polygon fill="white" stroke="#666666" points="703.75,-351.75 636,-351.75 636,-331 703.75,-331 703.75,-351.75"/>
<text text-anchor="middle" x="669.88" y="-338.25" font-family="Helvetica,sans-Serif" font-size="10.00">w2c__f304</text>
</a>
</g>
</g>
<!-- Node6&#45;&gt;Node7 -->
<g id="edge6_Node000006_Node000007" class="edge">
<title>Node6&#45;&gt;Node7</title>
<g id="a_edge6_Node000006_Node000007"><a xlink:title=" ">
<path fill="none" stroke="#63b8ff" d="M585.88,-274.1C590.58,-276.98 595.55,-280.18 600,-283.38 617.12,-295.68 635.32,-311.12 648.71,-322.97"/>
<polygon fill="#63b8ff" stroke="#63b8ff" points="646.22,-325.45 656.01,-329.52 650.9,-320.24 646.22,-325.45"/>
</a>
</g>
</g>
<!-- Node8 -->
<g id="Node000008" class="node">
<title>Node8</title>
<g id="a_Node000008"><a xlink:href="app_8c.html#a881f0b113e93dce3ff52d04b435850f6" target="_top" xlink:title=" ">
<polygon fill="white" stroke="#666666" points="703.75,-273.75 636,-273.75 636,-253 703.75,-253 703.75,-273.75"/>
<text text-anchor="middle" x="669.88" y="-260.25" font-family="Helvetica,sans-Serif" font-size="10.00">w2c__f491</text>
</a>
</g>
</g>
<!-- Node6&#45;&gt;Node8 -->
<g id="edge7_Node000006_Node000008" class="edge">
<title>Node6&#45;&gt;Node8</title>
<g id="a_edge7_Node000006_Node000008"><a xlink:title=" ">
<path fill="none" stroke="#63b8ff" d="M600.44,-263.38C608.07,-263.38 616.31,-263.38 624.33,-263.38"/>
<polygon fill="#63b8ff" stroke="#63b8ff" points="624.32,-266.88 634.32,-263.38 624.32,-259.88 624.32,-266.88"/>
</a>
</g>
</g>
<!-- Node9&#45;&gt;Node7 -->
<g id="edge9_Node000009_Node000007" class="edge">
<title>Node9&#45;&gt;Node7</title>
<g id="a_edge9_Node000009_Node000007"><a xlink:title=" ">
<path fill="none" stroke="#63b8ff" d="M595.47,-313.24C606.16,-317.34 618.52,-322.08 630.01,-326.48"/>
<polygon fill="#63b8ff" stroke="#63b8ff" points="628.68,-329.72 639.27,-330.03 631.19,-323.18 628.68,-329.72"/>
</a>
</g>
</g>
<!-- Node10&#45;&gt;Node6 -->
<g id="edge13_Node000010_Node000006" class="edge">
<title>Node10&#45;&gt;Node6</title>
<g id="a_edge13_Node000010_Node000006"><a xlink:title=" ">
<path fill="none" stroke="#63b8ff" d="M483.07,-330.56C487.56,-327.79 492.2,-324.65 496.25,-321.38 514.35,-306.76 514.15,-297.99 532.25,-283.38 533.52,-282.35 534.84,-281.34 536.2,-280.35"/>
<polygon fill="#63b8ff" stroke="#63b8ff" points="537.8,-283.49 544.17,-275.03 533.91,-277.67 537.8,-283.49"/>
</a>
</g>
</g>
<!-- Node10&#45;&gt;Node7 -->
<g id="edge15_Node000010_Node000007" class="edge">
<title>Node10&#45;&gt;Node7</title>
<g id="a_edge15_Node000010_Node000007"><a xlink:title=" ">
<path fill="none" stroke="#63b8ff" d="M471.78,-352.06C483.54,-366.07 506.4,-389.94 532.25,-399.38 560.54,-409.7 571.71,-409.7 600,-399.38 621.2,-391.64 640.4,-374.18 653.1,-360.43"/>
<polygon fill="#63b8ff" stroke="#63b8ff" points="655.49,-363.02 659.47,-353.2 650.23,-358.39 655.49,-363.02"/>
</a>
</g>
</g>
<!-- Node10&#45;&gt;Node9 -->
<g id="edge14_Node000010_Node000009" class="edge">
<title>Node10&#45;&gt;Node9</title>
<g id="a_edge14_Node000010_Node000009"><a xlink:title=" ">
<path fill="none" stroke="#63b8ff" d="M491.72,-330.51C502.41,-326.41 514.77,-321.67 526.26,-317.27"/>
<polygon fill="#63b8ff" stroke="#63b8ff" points="527.44,-320.57 535.52,-313.72 524.93,-314.03 527.44,-320.57"/>
</a>
</g>
</g>
<!-- Node11 -->
<g id="Node000011" class="node">
<title>Node11</title>
<g id="a_Node000011"><a xlink:href="app_8c.html#a0378208e0d5c0d1d6e7370f1c578fab3" target="_top" xlink:title=" ">
<polygon fill="white" stroke="#666666" points="600,-390.75 532.25,-390.75 532.25,-370 600,-370 600,-390.75"/>
<text text-anchor="middle" x="566.12" y="-377.25" font-family="Helvetica,sans-Serif" font-size="10.00">w2c__f216</text>
</a>
</g>
</g>
<!-- Node10&#45;&gt;Node11 -->
<g id="edge11_Node000010_Node000011" class="edge">
<title>Node10&#45;&gt;Node11</title>
<g id="a_edge11_Node000010_Node000011"><a xlink:title=" ">
<path fill="none" stroke="#63b8ff" d="M491.72,-352.24C502.41,-356.34 514.77,-361.08 526.26,-365.48"/>
<polygon fill="#63b8ff" stroke="#63b8ff" points="524.93,-368.72 535.52,-369.03 527.44,-362.18 524.93,-368.72"/>
</a>
</g>
</g>
<!-- Node12 -->
<g id="Node000012" class="node">
<title>Node12</title>
<g id="a_Node000012"><a xlink:href="app_8c.html#a674f6e81761467d0a8dc6d2a425eda9f" target="_top" xlink:title=" ">
<polygon fill="white" stroke="#666666" points="600,-351.75 532.25,-351.75 532.25,-331 600,-331 600,-351.75"/>
<text text-anchor="middle" x="566.12" y="-338.25" font-family="Helvetica,sans-Serif" font-size="10.00">w2c__f498</text>
</a>
</g>
</g>
<!-- Node10&#45;&gt;Node12 -->
<g id="edge16_Node000010_Node000012" class="edge">
<title>Node10&#45;&gt;Node12</title>
<g id="a_edge16_Node000010_Node000012"><a xlink:title=" ">
<path fill="none" stroke="#63b8ff" d="M496.69,-341.38C504.32,-341.38 512.56,-341.38 520.58,-341.38"/>
<polygon fill="#63b8ff" stroke="#63b8ff" points="520.57,-344.88 530.57,-341.38 520.57,-337.88 520.57,-344.88"/>
</a>
</g>
</g>
<!-- Node11&#45;&gt;Node7 -->
<g id="edge12_Node000011_Node000007" class="edge">
<title>Node11&#45;&gt;Node7</title>
<g id="a_edge12_Node000011_Node000007"><a xlink:title=" ">
<path fill="none" stroke="#63b8ff" d="M595.47,-369.51C606.16,-365.41 618.52,-360.67 630.01,-356.27"/>
<polygon fill="#63b8ff" stroke="#63b8ff" points="631.19,-359.57 639.27,-352.72 628.68,-353.03 631.19,-359.57"/>
</a>
</g>
</g>
<!-- Node14 -->
<g id="Node000014" class="node">
<title>Node14</title>
<g id="a_Node000014"><a xlink:href="app_8c.html#add88601cb03b410d0c4bc8f456c3ae55" target="_top" xlink:title=" ">
<polygon fill="white" stroke="#666666" points="392.5,-59.75 322.5,-59.75 322.5,-39 392.5,-39 392.5,-59.75"/>
<text text-anchor="middle" x="357.5" y="-46.25" font-family="Helvetica,sans-Serif" font-size="10.00">w2c_0_104</text>
</a>
</g>
</g>
<!-- Node13&#45;&gt;Node14 -->
<g id="edge18_Node000013_Node000014" class="edge">
<title>Node13&#45;&gt;Node14</title>
<g id="a_edge18_Node000013_Node000014"><a xlink:title=" ">
<path fill="none" stroke="#63b8ff" d="M279.58,-77.51C290.9,-73.37 304,-68.58 316.15,-64.13"/>
<polygon fill="#63b8ff" stroke="#63b8ff" points="317.35,-67.42 325.54,-60.7 314.94,-60.85 317.35,-67.42"/>
</a>
</g>
</g>
<!-- Node15 -->
<g id="Node000015" class="node">
<title>Node15</title>
<g id="a_Node000015"><a xlink:href="app_8c.html#ae68178bc105b2d45ebe022d5f9bc03f7" target="_top" xlink:title=" ">
<polygon fill="white" stroke="#666666" points="392.5,-20.75 322.5,-20.75 322.5,0 392.5,0 392.5,-20.75"/>
<text text-anchor="middle" x="357.5" y="-7.25" font-family="Helvetica,sans-Serif" font-size="10.00">w2c_0_159</text>
</a>
</g>
</g>
<!-- Node13&#45;&gt;Node15 -->
<g id="edge19_Node000013_Node000015" class="edge">
<title>Node13&#45;&gt;Node15</title>
<g id="a_edge19_Node000013_Node000015"><a xlink:title=" ">
<path fill="none" stroke="#63b8ff" d="M262.31,-77.54C276.45,-65.44 300.44,-45.56 322.5,-30.38 324.09,-29.28 325.74,-28.18 327.42,-27.1"/>
<polygon fill="#63b8ff" stroke="#63b8ff" points="329.17,-30.14 335.85,-21.91 325.5,-24.17 329.17,-30.14"/>
</a>
</g>
</g>
<!-- Node16 -->
<g id="Node000016" class="node">
<title>Node16</title>
<g id="a_Node000016"><a xlink:href="app_8c.html#af3b7c5a4a8f14b9383b243d8c06b1301" target="_top" xlink:title=" ">
<polygon fill="white" stroke="#666666" points="392.5,-215.75 322.5,-215.75 322.5,-195 392.5,-195 392.5,-215.75"/>
<text text-anchor="middle" x="357.5" y="-202.25" font-family="Helvetica,sans-Serif" font-size="10.00">w2c_0_172</text>
</a>
</g>
</g>
<!-- Node13&#45;&gt;Node16 -->
<g id="edge20_Node000013_Node000016" class="edge">
<title>Node13&#45;&gt;Node16</title>
<g id="a_edge20_Node000013_Node000016"><a xlink:title=" ">
<path fill="none" stroke="#63b8ff" d="M274.66,-99.08C278.96,-101.69 283.13,-104.78 286.5,-108.38 312.37,-135.91 297.08,-157.43 322.5,-185.38 323.21,-186.15 323.95,-186.91 324.72,-187.64"/>
<polygon fill="#63b8ff" stroke="#63b8ff" points="322.59,-190.41 332.65,-193.74 326.86,-184.86 322.59,-190.41"/>
</a>
</g>
</g>
<!-- Node17 -->
<g id="Node000017" class="node">
<title>Node17</title>
<g id="a_Node000017"><a xlink:href="app_8c.html#aa018dbf3bc5814e93cedb41f14e2b4d9" target="_top" xlink:title=" ">
<polygon fill="white" stroke="#666666" points="389.5,-176.75 325.5,-176.75 325.5,-156 389.5,-156 389.5,-176.75"/>
<text text-anchor="middle" x="357.5" y="-163.25" font-family="Helvetica,sans-Serif" font-size="10.00">w2c_0_19</text>
</a>
</g>
</g>
<!-- Node13&#45;&gt;Node17 -->
<g id="edge21_Node000013_Node000017" class="edge">
<title>Node13&#45;&gt;Node17</title>
<g id="a_edge21_Node000013_Node000017"><a xlink:title=" ">
<path fill="none" stroke="#63b8ff" d="M272.26,-99.15C277.14,-101.89 282.14,-105.02 286.5,-108.38 304.93,-122.57 304.29,-131.89 322.5,-146.38 323.81,-147.41 325.17,-148.44 326.57,-149.44"/>
<polygon fill="#63b8ff" stroke="#63b8ff" points="324.55,-152.29 334.84,-154.81 328.36,-146.43 324.55,-152.29"/>
</a>
</g>
</g>
<!-- Node18 -->
<g id="Node000018" class="node">
<title>Node18</title>
<g id="a_Node000018"><a xlink:href="app_8c.html#aec29ea126421b36c7ea313062dea6ec6" target="_top" xlink:title=" ">
<polygon fill="white" stroke="#666666" points="389.5,-137.75 325.5,-137.75 325.5,-117 389.5,-117 389.5,-137.75"/>
<text text-anchor="middle" x="357.5" y="-124.25" font-family="Helvetica,sans-Serif" font-size="10.00">w2c_0_35</text>
</a>
</g>
</g>
<!-- Node13&#45;&gt;Node18 -->
<g id="edge22_Node000013_Node000018" class="edge">
<title>Node13&#45;&gt;Node18</title>
<g id="a_edge22_Node000013_Node000018"><a xlink:title=" ">
<path fill="none" stroke="#63b8ff" d="M279.58,-99.24C290.9,-103.38 304,-108.17 316.15,-112.62"/>
<polygon fill="#63b8ff" stroke="#63b8ff" points="314.94,-115.9 325.54,-116.05 317.35,-109.33 314.94,-115.9"/>
</a>
</g>
</g>
<!-- Node19 -->
<g id="Node000019" class="node">
<title>Node19</title>
<g id="a_Node000019"><a xlink:href="app_8c.html#a19209c6f5685e2e28a1b671ece901600" target="_top" xlink:title=" ">
<polygon fill="white" stroke="#666666" points="391.38,-98.75 323.62,-98.75 323.62,-78 391.38,-78 391.38,-98.75"/>
<text text-anchor="middle" x="357.5" y="-85.25" font-family="Helvetica,sans-Serif" font-size="10.00">w2c__f335</text>
</a>
</g>
</g>
<!-- Node13&#45;&gt;Node19 -->
<g id="edge23_Node000013_Node000019" class="edge">
<title>Node13&#45;&gt;Node19</title>
<g id="a_edge23_Node000013_Node000019"><a xlink:title=" ">
<path fill="none" stroke="#63b8ff" d="M283.03,-88.38C292.15,-88.38 302.21,-88.38 311.87,-88.38"/>
<polygon fill="#63b8ff" stroke="#63b8ff" points="311.85,-91.88 321.85,-88.38 311.85,-84.88 311.85,-91.88"/>
</a>
</g>
</g>
<!-- Node20 -->
<g id="Node000020" class="node">
<title>Node20</title>
<g id="a_Node000020"><a xlink:href="app_8c.html#a84a707cc8c74624a4f1db785844c7211" target="_top" xlink:title=" ">
<polygon fill="white" stroke="#666666" points="494.38,-98.75 430.38,-98.75 430.38,-78 494.38,-78 494.38,-98.75"/>
<text text-anchor="middle" x="462.38" y="-85.25" font-family="Helvetica,sans-Serif" font-size="10.00">w2c_0_92</text>
</a>
</g>
</g>
<!-- Node19&#45;&gt;Node20 -->
<g id="edge24_Node000019_Node000020" class="edge">
<title>Node19&#45;&gt;Node20</title>
<g id="a_edge24_Node000019_Node000020"><a xlink:title=" ">
<path fill="none" stroke="#63b8ff" d="M391.62,-88.38C400.29,-88.38 409.76,-88.38 418.85,-88.38"/>
<polygon fill="#63b8ff" stroke="#63b8ff" points="418.56,-91.88 428.56,-88.38 418.56,-84.88 418.56,-91.88"/>
</a>
</g>
</g>
<!-- Node21&#45;&gt;Node14 -->
<g id="edge26_Node000021_Node000014" class="edge">
<title>Node21&#45;&gt;Node14</title>
<g id="a_edge26_Node000021_Node000014"><a xlink:title=" ">
<path fill="none" stroke="#63b8ff" d="M272.26,-116.6C277.14,-113.86 282.14,-110.73 286.5,-107.38 304.93,-93.18 304.29,-83.86 322.5,-69.38 323.81,-68.34 325.17,-67.31 326.57,-66.31"/>
<polygon fill="#63b8ff" stroke="#63b8ff" points="328.36,-69.32 334.84,-60.94 324.55,-63.46 328.36,-69.32"/>
</a>
</g>
</g>
<!-- Node21&#45;&gt;Node15 -->
<g id="edge27_Node000021_Node000015" class="edge">
<title>Node21&#45;&gt;Node15</title>
<g id="a_edge27_Node000021_Node000015"><a xlink:title=" ">
<path fill="none" stroke="#63b8ff" d="M274.66,-116.67C278.96,-114.06 283.13,-110.97 286.5,-107.38 312.37,-79.84 297.08,-58.32 322.5,-30.38 323.21,-29.6 323.95,-28.84 324.72,-28.11"/>
<polygon fill="#63b8ff" stroke="#63b8ff" points="326.86,-30.89 332.65,-22.01 322.59,-25.34 326.86,-30.89"/>
</a>
</g>
</g>
<!-- Node21&#45;&gt;Node16 -->
<g id="edge28_Node000021_Node000016" class="edge">
<title>Node21&#45;&gt;Node16</title>
<g id="a_edge28_Node000021_Node000016"><a xlink:title=" ">
<path fill="none" stroke="#63b8ff" d="M272.26,-138.15C277.14,-140.89 282.14,-144.02 286.5,-147.38 304.93,-161.57 304.29,-170.89 322.5,-185.38 323.81,-186.41 325.17,-187.44 326.57,-188.44"/>
<polygon fill="#63b8ff" stroke="#63b8ff" points="324.55,-191.29 334.84,-193.81 328.36,-185.43 324.55,-191.29"/>
</a>
</g>
</g>
<!-- Node21&#45;&gt;Node17 -->
<g id="edge29_Node000021_Node000017" class="edge">
<title>Node21&#45;&gt;Node17</title>
<g id="a_edge29_Node000021_Node000017"><a xlink:title=" ">
<path fill="none" stroke="#63b8ff" d="M279.58,-138.24C290.9,-142.38 304,-147.17 316.15,-151.62"/>
<polygon fill="#63b8ff" stroke="#63b8ff" points="314.94,-154.9 325.54,-155.05 317.35,-148.33 314.94,-154.9"/>
</a>
</g>
</g>
<!-- Node21&#45;&gt;Node18 -->
<g id="edge30_Node000021_Node000018" class="edge">
<title>Node21&#45;&gt;Node18</title>
<g id="a_edge30_Node000021_Node000018"><a xlink:title=" ">
<path fill="none" stroke="#63b8ff" d="M283.03,-127.38C292.8,-127.38 303.63,-127.38 313.91,-127.38"/>
<polygon fill="#63b8ff" stroke="#63b8ff" points="313.68,-130.88 323.68,-127.38 313.68,-123.88 313.68,-130.88"/>
</a>
</g>
</g>
<!-- Node21&#45;&gt;Node19 -->
<g id="edge31_Node000021_Node000019" class="edge">
<title>Node21&#45;&gt;Node19</title>
<g id="a_edge31_Node000021_Node000019"><a xlink:title=" ">
<path fill="none" stroke="#63b8ff" d="M279.58,-116.51C290.9,-112.37 304,-107.58 316.15,-103.13"/>
<polygon fill="#63b8ff" stroke="#63b8ff" points="317.35,-106.42 325.54,-99.7 314.94,-99.85 317.35,-106.42"/>
</a>
</g>
</g>
<!-- Node22&#45;&gt;Node14 -->
<g id="edge33_Node000022_Node000014" class="edge">
<title>Node22&#45;&gt;Node14</title>
<g id="a_edge33_Node000022_Node000014"><a xlink:title=" ">
<path fill="none" stroke="#63b8ff" d="M274.66,-155.67C278.96,-153.06 283.13,-149.97 286.5,-146.38 312.37,-118.84 297.08,-97.32 322.5,-69.38 323.21,-68.6 323.95,-67.84 324.72,-67.11"/>
<polygon fill="#63b8ff" stroke="#63b8ff" points="326.86,-69.89 332.65,-61.01 322.59,-64.34 326.86,-69.89"/>
</a>
</g>
</g>
<!-- Node22&#45;&gt;Node15 -->
<g id="edge35_Node000022_Node000015" class="edge">
<title>Node22&#45;&gt;Node15</title>
<g id="a_edge35_Node000022_Node000015"><a xlink:title=" ">
<path fill="none" stroke="#63b8ff" d="M275.82,-155.55C279.81,-153.01 283.56,-149.96 286.5,-146.38 320.69,-104.6 288.98,-72.69 322.5,-30.38 323.03,-29.71 323.58,-29.06 324.16,-28.43"/>
<polygon fill="#63b8ff" stroke="#63b8ff" points="326.19,-31.3 331.59,-22.19 321.69,-25.94 326.19,-31.3"/>
</a>
</g>
</g>
<!-- Node22&#45;&gt;Node16 -->
<g id="edge36_Node000022_Node000016" class="edge">
<title>Node22&#45;&gt;Node16</title>
<g id="a_edge36_Node000022_Node000016"><a xlink:title=" ">
<path fill="none" stroke="#63b8ff" d="M279.58,-177.24C290.9,-181.38 304,-186.17 316.15,-190.62"/>
<polygon fill="#63b8ff" stroke="#63b8ff" points="314.94,-193.9 325.54,-194.05 317.35,-187.33 314.94,-193.9"/>
</a>
</g>
</g>
<!-- Node22&#45;&gt;Node17 -->
<g id="edge38_Node000022_Node000017" class="edge">
<title>Node22&#45;&gt;Node17</title>
<g id="a_edge38_Node000022_Node000017"><a xlink:title=" ">
<path fill="none" stroke="#63b8ff" d="M283.03,-166.38C292.8,-166.38 303.63,-166.38 313.91,-166.38"/>
<polygon fill="#63b8ff" stroke="#63b8ff" points="313.68,-169.88 323.68,-166.38 313.68,-162.88 313.68,-169.88"/>
</a>
</g>
</g>
<!-- Node22&#45;&gt;Node18 -->
<g id="edge39_Node000022_Node000018" class="edge">
<title>Node22&#45;&gt;Node18</title>
<g id="a_edge39_Node000022_Node000018"><a xlink:title=" ">
<path fill="none" stroke="#63b8ff" d="M279.58,-155.51C290.9,-151.37 304,-146.58 316.15,-142.13"/>
<polygon fill="#63b8ff" stroke="#63b8ff" points="317.35,-145.42 325.54,-138.7 314.94,-138.85 317.35,-145.42"/>
</a>
</g>
</g>
<!-- Node22&#45;&gt;Node19 -->
<g id="edge40_Node000022_Node000019" class="edge">
<title>Node22&#45;&gt;Node19</title>
<g id="a_edge40_Node000022_Node000019"><a xlink:title=" ">
<path fill="none" stroke="#63b8ff" d="M272.26,-155.6C277.14,-152.86 282.14,-149.73 286.5,-146.38 304.93,-132.18 304.29,-122.86 322.5,-108.38 323.81,-107.34 325.17,-106.31 326.57,-105.31"/>
<polygon fill="#63b8ff" stroke="#63b8ff" points="328.36,-108.32 334.84,-99.94 324.55,-102.46 328.36,-108.32"/>
</a>
</g>
</g>
<!-- Node23 -->
<g id="Node000023" class="node">
<title>Node23</title>
<g id="a_Node000023"><a xlink:href="app_8c.html#a416a3f7003240b1a361323dbb3203bf8" target="_top" xlink:title=" ">
<polygon fill="white" stroke="#666666" points="392.5,-254.75 322.5,-254.75 322.5,-234 392.5,-234 392.5,-254.75"/>
<text text-anchor="middle" x="357.5" y="-241.25" font-family="Helvetica,sans-Serif" font-size="10.00">w2c_0_130</text>
</a>
</g>
</g>
<!-- Node22&#45;&gt;Node23 -->
<g id="edge34_Node000022_Node000023" class="edge">
<title>Node22&#45;&gt;Node23</title>
<g id="a_edge34_Node000022_Node000023"><a xlink:title=" ">
<path fill="none" stroke="#63b8ff" d="M262.31,-177.21C276.45,-189.31 300.44,-209.19 322.5,-224.38 324.09,-225.47 325.74,-226.57 327.42,-227.65"/>
<polygon fill="#63b8ff" stroke="#63b8ff" points="325.5,-230.58 335.85,-232.84 329.17,-224.61 325.5,-230.58"/>
</a>
</g>
</g>
<!-- Node24 -->
<g id="Node000024" class="node">
<title>Node24</title>
<g id="a_Node000024"><a xlink:href="app_8c.html#a413a166631157266d5dbee4d8d8164da" target="_top" xlink:title=" ">
<polygon fill="white" stroke="#666666" points="392.5,-293.75 322.5,-293.75 322.5,-273 392.5,-273 392.5,-293.75"/>
<text text-anchor="middle" x="357.5" y="-280.25" font-family="Helvetica,sans-Serif" font-size="10.00">w2c_0_182</text>
</a>
</g>
</g>
<!-- Node22&#45;&gt;Node24 -->
<g id="edge37_Node000022_Node000024" class="edge">
<title>Node22&#45;&gt;Node24</title>
<g id="a_edge37_Node000022_Node000024"><a xlink:title=" ">
<path fill="none" stroke="#63b8ff" d="M255.93,-177.08C267.14,-196.2 292.71,-236.72 322.5,-263.38 323.56,-264.33 324.68,-265.25 325.83,-266.16"/>
<polygon fill="#63b8ff" stroke="#63b8ff" points="323.64,-268.9 333.86,-271.69 327.61,-263.13 323.64,-268.9"/>
</a>
</g>
</g>
<!-- Node26 -->
<g id="Node000026" class="node">
<title>Node26</title>
<g id="a_Node000026"><a xlink:href="app_8c.html#ae10979e670e507d4373e8cadcb3169aa" target="_top" xlink:title=" ">
<polygon fill="white" stroke="#666666" points="389.5,-371.75 325.5,-371.75 325.5,-351 389.5,-351 389.5,-371.75"/>
<text text-anchor="middle" x="357.5" y="-358.25" font-family="Helvetica,sans-Serif" font-size="10.00">quiet_nan</text>
</a>
</g>
</g>
<!-- Node25&#45;&gt;Node26 -->
<g id="edge42_Node000025_Node000026" class="edge">
<title>Node25&#45;&gt;Node26</title>
<g id="a_edge42_Node000025_Node000026"><a xlink:title=" ">
<path fill="none" stroke="#63b8ff" d="M269.43,-314.01C285.49,-322.75 308.48,-335.26 326.81,-345.23"/>
<polygon fill="#63b8ff" stroke="#63b8ff" points="324.92,-348.18 335.38,-349.88 328.26,-342.03 324.92,-348.18"/>
</a>
</g>
</g>
<!-- Node28&#45;&gt;Node26 -->
<g id="edge45_Node000028_Node000026" class="edge">
<title>Node28&#45;&gt;Node26</title>
<g id="a_edge45_Node000028_Node000026"><a xlink:title=" ">
<path fill="none" stroke="#63b8ff" d="M174.25,-321.72C211.91,-329.91 272.92,-343.19 313.86,-352.1"/>
<polygon fill="#63b8ff" stroke="#63b8ff" points="313.1,-355.51 323.61,-354.22 314.59,-348.67 313.1,-355.51"/>
</a>
</g>
</g>
</g>
</svg>
