<?xml version="1.0" encoding="UTF-8" standalone="no"?>
<!DOCTYPE svg PUBLIC "-//W3C//DTD SVG 1.1//EN"
 "http://www.w3.org/Graphics/SVG/1.1/DTD/svg11.dtd">
<!-- Generated by graphviz version 12.2.1 (0)
 -->
<!-- Title: w2c__d Pages: 1 -->
<svg width="471pt" height="68pt"
 viewBox="0.00 0.00 470.50 67.75" xmlns="http://www.w3.org/2000/svg" xmlns:xlink="http://www.w3.org/1999/xlink">
<g id="graph0" class="graph" transform="scale(1 1) rotate(0) translate(4 63.75)">
<title>w2c__d</title>
<!-- Node1 -->
<g id="Node000001" class="node">
<title>Node1</title>
<g id="a_Node000001"><a xlink:title=" ">
<polygon fill="#999999" stroke="#666666" points="52,-39.75 0,-39.75 0,-19 52,-19 52,-39.75"/>
<text text-anchor="middle" x="26" y="-26.25" font-family="Helvetica,sans-Serif" font-size="10.00">w2c__d</text>
</a>
</g>
</g>
<!-- Node2 -->
<g id="Node000002" class="node">
<title>Node2</title>
<g id="a_Node000002"><a xlink:href="app_8c.html#acb27d826c433756693ad91ebe276bc5c" target="_top" xlink:title=" ">
<polygon fill="white" stroke="#666666" points="151.25,-39.75 88,-39.75 88,-19 151.25,-19 151.25,-39.75"/>
<text text-anchor="middle" x="119.62" y="-26.25" font-family="Helvetica,sans-Serif" font-size="10.00">w2c__d_0</text>
</a>
</g>
</g>
<!-- Node1&#45;&gt;Node2 -->
<g id="edge1_Node000001_Node000002" class="edge">
<title>Node1&#45;&gt;Node2</title>
<g id="a_edge1_Node000001_Node000002"><a xlink:title=" ">
<path fill="none" stroke="#63b8ff" d="M52.04,-29.38C59.53,-29.38 67.96,-29.38 76.24,-29.38"/>
<polygon fill="#63b8ff" stroke="#63b8ff" points="76.22,-32.88 86.22,-29.38 76.22,-25.88 76.22,-32.88"/>
</a>
</g>
</g>
<!-- Node3 -->
<g id="Node000003" class="node">
<title>Node3</title>
<g id="a_Node000003"><a xlink:href="app_8c.html#aa58fd7f1d3aab8404d7f71d334a8a108" target="_top" xlink:title=" ">
<polygon fill="white" stroke="#666666" points="255,-39.75 187.25,-39.75 187.25,-19 255,-19 255,-39.75"/>
<text text-anchor="middle" x="221.12" y="-26.25" font-family="Helvetica,sans-Serif" font-size="10.00">w2c__f211</text>
</a>
</g>
</g>
<!-- Node2&#45;&gt;Node3 -->
<g id="edge2_Node000002_Node000003" class="edge">
<title>Node2&#45;&gt;Node3</title>
<g id="a_edge2_Node000002_Node000003"><a xlink:title=" ">
<path fill="none" stroke="#63b8ff" d="M151.56,-29.38C159.16,-29.38 167.45,-29.38 175.55,-29.38"/>
<polygon fill="#63b8ff" stroke="#63b8ff" points="175.28,-32.88 185.28,-29.38 175.28,-25.88 175.28,-32.88"/>
</a>
</g>
</g>
<!-- Node4 -->
<g id="Node000004" class="node">
<title>Node4</title>
<g id="a_Node000004"><a xlink:href="app_8c.html#a03fa34d93d32a3ee40dfc2d840730111" target="_top" xlink:title=" ">
<polygon fill="white" stroke="#666666" points="358.75,-59.75 291,-59.75 291,-39 358.75,-39 358.75,-59.75"/>
<text text-anchor="middle" x="324.88" y="-46.25" font-family="Helvetica,sans-Serif" font-size="10.00">w2c__f262</text>
</a>
</g>
</g>
<!-- Node3&#45;&gt;Node4 -->
<g id="edge3_Node000003_Node000004" class="edge">
<title>Node3&#45;&gt;Node4</title>
<g id="a_edge3_Node000003_Node000004"><a xlink:title=" ">
<path fill="none" stroke="#63b8ff" d="M255.44,-35.92C263.16,-37.44 271.5,-39.08 279.61,-40.67"/>
<polygon fill="#63b8ff" stroke="#63b8ff" points="278.86,-44.09 289.35,-42.59 280.21,-37.22 278.86,-44.09"/>
</a>
</g>
</g>
<!-- Node7 -->
<g id="Node000007" class="node">
<title>Node7</title>
<g id="a_Node000007"><a xlink:href="app_8c.html#a31b08a294227a9fc0a529e66ccd915dc" target="_top" xlink:title=" ">
<polygon fill="white" stroke="#666666" points="358.75,-20.75 291,-20.75 291,0 358.75,0 358.75,-20.75"/>
<text text-anchor="middle" x="324.88" y="-7.25" font-family="Helvetica,sans-Serif" font-size="10.00">w2c__f325</text>
</a>
</g>
</g>
<!-- Node3&#45;&gt;Node7 -->
<g id="edge6_Node000003_Node000007" class="edge">
<title>Node3&#45;&gt;Node7</title>
<g id="a_edge6_Node000003_Node000007"><a xlink:title=" ">
<path fill="none" stroke="#63b8ff" d="M255.44,-23.15C263.16,-21.71 271.5,-20.16 279.61,-18.64"/>
<polygon fill="#63b8ff" stroke="#63b8ff" points="280.16,-22.1 289.34,-16.82 278.87,-15.22 280.16,-22.1"/>
</a>
</g>
</g>
<!-- Node5 -->
<g id="Node000005" class="node">
<title>Node5</title>
<g id="a_Node000005"><a xlink:href="app_8c.html#a16207b5f7a97b0ecfddd231452c5aa7e" target="_top" xlink:title=" ">
<polygon fill="white" stroke="#666666" points="462.5,-59.75 394.75,-59.75 394.75,-39 462.5,-39 462.5,-59.75"/>
<text text-anchor="middle" x="428.62" y="-46.25" font-family="Helvetica,sans-Serif" font-size="10.00">w2c__f263</text>
</a>
</g>
</g>
<!-- Node4&#45;&gt;Node5 -->
<g id="edge4_Node000004_Node000005" class="edge">
<title>Node4&#45;&gt;Node5</title>
<g id="a_edge4_Node000004_Node000005"><a xlink:title=" ">
<path fill="none" stroke="#63b8ff" d="M359.19,-49.38C366.82,-49.38 375.06,-49.38 383.08,-49.38"/>
<polygon fill="#63b8ff" stroke="#63b8ff" points="383.07,-52.88 393.07,-49.38 383.07,-45.88 383.07,-52.88"/>
</a>
</g>
</g>
<!-- Node6 -->
<g id="Node000006" class="node">
<title>Node6</title>
<g id="a_Node000006"><a xlink:href="app_8c.html#a71bcbce7faf780cd081af3fa82d6da97" target="_top" xlink:title=" ">
<polygon fill="white" stroke="#666666" points="462.5,-20.75 394.75,-20.75 394.75,0 462.5,0 462.5,-20.75"/>
<text text-anchor="middle" x="428.62" y="-7.25" font-family="Helvetica,sans-Serif" font-size="10.00">w2c__f437</text>
</a>
</g>
</g>
<!-- Node4&#45;&gt;Node6 -->
<g id="edge5_Node000004_Node000006" class="edge">
<title>Node4&#45;&gt;Node6</title>
<g id="a_edge5_Node000004_Node000006"><a xlink:title=" ">
<path fill="none" stroke="#63b8ff" d="M354.22,-38.51C364.91,-34.41 377.27,-29.67 388.76,-25.27"/>
<polygon fill="#63b8ff" stroke="#63b8ff" points="389.94,-28.57 398.02,-21.72 387.43,-22.03 389.94,-28.57"/>
</a>
</g>
</g>
<!-- Node7&#45;&gt;Node6 -->
<g id="edge7_Node000007_Node000006" class="edge">
<title>Node7&#45;&gt;Node6</title>
<g id="a_edge7_Node000007_Node000006"><a xlink:title=" ">
<path fill="none" stroke="#63b8ff" d="M359.19,-10.38C366.82,-10.38 375.06,-10.38 383.08,-10.38"/>
<polygon fill="#63b8ff" stroke="#63b8ff" points="383.07,-13.88 393.07,-10.38 383.07,-6.88 383.07,-13.88"/>
</a>
</g>
</g>
</g>
</svg>
