<?xml version="1.0" encoding="UTF-8" standalone="no"?>
<!DOCTYPE svg PUBLIC "-//W3C//DTD SVG 1.1//EN"
 "http://www.w3.org/Graphics/SVG/1.1/DTD/svg11.dtd">
<!-- Generated by graphviz version 12.2.1 (0)
 -->
<!-- Title: wrap_w2c__f440 Pages: 1 -->
<svg width="419pt" height="341pt"
 viewBox="0.00 0.00 418.50 340.75" xmlns="http://www.w3.org/2000/svg" xmlns:xlink="http://www.w3.org/1999/xlink">
<g id="graph0" class="graph" transform="scale(1 1) rotate(0) translate(4 336.75)">
<title>wrap_w2c__f440</title>
<!-- Node1 -->
<g id="Node000001" class="node">
<title>Node1</title>
<g id="a_Node000001"><a xlink:title=" ">
<polygon fill="#999999" stroke="#666666" points="97,-293.75 0,-293.75 0,-273 97,-273 97,-293.75"/>
<text text-anchor="middle" x="48.5" y="-280.25" font-family="Helvetica,sans-Serif" font-size="10.00">wrap_w2c__f440</text>
</a>
</g>
</g>
<!-- Node2 -->
<g id="Node000002" class="node">
<title>Node2</title>
<g id="a_Node000002"><a xlink:href="app_8c.html#afcd6d857de3bca65f7580b9d3e4aa197" target="_top" xlink:title=" ">
<polygon fill="white" stroke="#666666" points="200.75,-293.75 133,-293.75 133,-273 200.75,-273 200.75,-293.75"/>
<text text-anchor="middle" x="166.88" y="-280.25" font-family="Helvetica,sans-Serif" font-size="10.00">w2c__f440</text>
</a>
</g>
</g>
<!-- Node1&#45;&gt;Node2 -->
<g id="edge1_Node000001_Node000002" class="edge">
<title>Node1&#45;&gt;Node2</title>
<g id="a_edge1_Node000001_Node000002"><a xlink:title=" ">
<path fill="none" stroke="#63b8ff" d="M97.17,-283.38C105.18,-283.38 113.47,-283.38 121.4,-283.38"/>
<polygon fill="#63b8ff" stroke="#63b8ff" points="121.17,-286.88 131.17,-283.38 121.17,-279.88 121.17,-286.88"/>
</a>
</g>
</g>
<!-- Node3 -->
<g id="Node000003" class="node">
<title>Node3</title>
<g id="a_Node000003"><a xlink:href="app_8c.html#a0378208e0d5c0d1d6e7370f1c578fab3" target="_top" xlink:title=" ">
<polygon fill="white" stroke="#666666" points="304.5,-332.75 236.75,-332.75 236.75,-312 304.5,-312 304.5,-332.75"/>
<text text-anchor="middle" x="270.62" y="-319.25" font-family="Helvetica,sans-Serif" font-size="10.00">w2c__f216</text>
</a>
</g>
</g>
<!-- Node2&#45;&gt;Node3 -->
<g id="edge2_Node000002_Node000003" class="edge">
<title>Node2&#45;&gt;Node3</title>
<g id="a_edge2_Node000002_Node000003"><a xlink:title=" ">
<path fill="none" stroke="#63b8ff" d="M196.22,-294.24C206.91,-298.34 219.27,-303.08 230.76,-307.48"/>
<polygon fill="#63b8ff" stroke="#63b8ff" points="229.43,-310.72 240.02,-311.03 231.94,-304.18 229.43,-310.72"/>
</a>
</g>
</g>
<!-- Node5 -->
<g id="Node000005" class="node">
<title>Node5</title>
<g id="a_Node000005"><a xlink:href="app_8c.html#aaca5d5bcf49f2ca74019cf097750b9f3" target="_top" xlink:title=" ">
<polygon fill="white" stroke="#666666" points="304.5,-293.75 236.75,-293.75 236.75,-273 304.5,-273 304.5,-293.75"/>
<text text-anchor="middle" x="270.62" y="-280.25" font-family="Helvetica,sans-Serif" font-size="10.00">w2c__f258</text>
</a>
</g>
</g>
<!-- Node2&#45;&gt;Node5 -->
<g id="edge4_Node000002_Node000005" class="edge">
<title>Node2&#45;&gt;Node5</title>
<g id="a_edge4_Node000002_Node000005"><a xlink:title=" ">
<path fill="none" stroke="#63b8ff" d="M201.19,-283.38C208.82,-283.38 217.06,-283.38 225.08,-283.38"/>
<polygon fill="#63b8ff" stroke="#63b8ff" points="225.07,-286.88 235.07,-283.38 225.07,-279.88 225.07,-286.88"/>
</a>
</g>
</g>
<!-- Node7 -->
<g id="Node000007" class="node">
<title>Node7</title>
<g id="a_Node000007"><a xlink:href="app_8c.html#a0a3203896da22c107966a0b2cc4d60c3" target="_top" xlink:title=" ">
<polygon fill="white" stroke="#666666" points="304.5,-157.75 236.75,-157.75 236.75,-137 304.5,-137 304.5,-157.75"/>
<text text-anchor="middle" x="270.62" y="-144.25" font-family="Helvetica,sans-Serif" font-size="10.00">w2c__f485</text>
</a>
</g>
</g>
<!-- Node2&#45;&gt;Node7 -->
<g id="edge7_Node000002_Node000007" class="edge">
<title>Node2&#45;&gt;Node7</title>
<g id="a_edge7_Node000002_Node000007"><a xlink:title=" ">
<path fill="none" stroke="#63b8ff" d="M175.86,-272.7C192.95,-249.86 233.28,-195.95 255.06,-166.84"/>
<polygon fill="#63b8ff" stroke="#63b8ff" points="257.58,-169.31 260.77,-159.21 251.98,-165.12 257.58,-169.31"/>
</a>
</g>
</g>
<!-- Node4 -->
<g id="Node000004" class="node">
<title>Node4</title>
<g id="a_Node000004"><a xlink:href="app_8c.html#a8d9f347f9a643f0ebfb53c4f54578ac4" target="_top" xlink:title=" ">
<polygon fill="white" stroke="#666666" points="409.38,-332.75 341.62,-332.75 341.62,-312 409.38,-312 409.38,-332.75"/>
<text text-anchor="middle" x="375.5" y="-319.25" font-family="Helvetica,sans-Serif" font-size="10.00">w2c__f304</text>
</a>
</g>
</g>
<!-- Node3&#45;&gt;Node4 -->
<g id="edge3_Node000003_Node000004" class="edge">
<title>Node3&#45;&gt;Node4</title>
<g id="a_edge3_Node000003_Node000004"><a xlink:title=" ">
<path fill="none" stroke="#63b8ff" d="M304.74,-322.38C312.82,-322.38 321.59,-322.38 330.1,-322.38"/>
<polygon fill="#63b8ff" stroke="#63b8ff" points="329.93,-325.88 339.93,-322.38 329.93,-318.88 329.93,-325.88"/>
</a>
</g>
</g>
<!-- Node5&#45;&gt;Node4 -->
<g id="edge5_Node000005_Node000004" class="edge">
<title>Node5&#45;&gt;Node4</title>
<g id="a_edge5_Node000005_Node000004"><a xlink:title=" ">
<path fill="none" stroke="#63b8ff" d="M300.28,-294.24C311.21,-298.38 323.85,-303.17 335.57,-307.62"/>
<polygon fill="#63b8ff" stroke="#63b8ff" points="333.99,-310.76 344.58,-311.03 336.47,-304.22 333.99,-310.76"/>
</a>
</g>
</g>
<!-- Node6 -->
<g id="Node000006" class="node">
<title>Node6</title>
<g id="a_Node000006"><a xlink:href="app_8c.html#a881f0b113e93dce3ff52d04b435850f6" target="_top" xlink:title=" ">
<polygon fill="white" stroke="#666666" points="409.38,-293.75 341.62,-293.75 341.62,-273 409.38,-273 409.38,-293.75"/>
<text text-anchor="middle" x="375.5" y="-280.25" font-family="Helvetica,sans-Serif" font-size="10.00">w2c__f491</text>
</a>
</g>
</g>
<!-- Node5&#45;&gt;Node6 -->
<g id="edge6_Node000005_Node000006" class="edge">
<title>Node5&#45;&gt;Node6</title>
<g id="a_edge6_Node000005_Node000006"><a xlink:title=" ">
<path fill="none" stroke="#63b8ff" d="M304.74,-283.38C312.82,-283.38 321.59,-283.38 330.1,-283.38"/>
<polygon fill="#63b8ff" stroke="#63b8ff" points="329.93,-286.88 339.93,-283.38 329.93,-279.88 329.93,-286.88"/>
</a>
</g>
</g>
<!-- Node8 -->
<g id="Node000008" class="node">
<title>Node8</title>
<g id="a_Node000008"><a xlink:href="app_8c.html#a3c56d9abb3044d2e4c32b95004bfb8b3" target="_top" xlink:title=" ">
<polygon fill="white" stroke="#666666" points="410.5,-254.75 340.5,-254.75 340.5,-234 410.5,-234 410.5,-254.75"/>
<text text-anchor="middle" x="375.5" y="-241.25" font-family="Helvetica,sans-Serif" font-size="10.00">w2c_0_118</text>
</a>
</g>
</g>
<!-- Node7&#45;&gt;Node8 -->
<g id="edge8_Node000007_Node000008" class="edge">
<title>Node7&#45;&gt;Node8</title>
<g id="a_edge8_Node000007_Node000008"><a xlink:title=" ">
<path fill="none" stroke="#63b8ff" d="M279.43,-158.03C291.36,-173.83 315.39,-203.8 340.5,-224.38 341.76,-225.41 343.08,-226.42 344.43,-227.4"/>
<polygon fill="#63b8ff" stroke="#63b8ff" points="342.14,-230.09 352.42,-232.68 346,-224.25 342.14,-230.09"/>
</a>
</g>
</g>
<!-- Node9 -->
<g id="Node000009" class="node">
<title>Node9</title>
<g id="a_Node000009"><a xlink:href="app_8c.html#a3ea3abf850db205f3777ee5eb2c0ef4f" target="_top" xlink:title=" ">
<polygon fill="white" stroke="#666666" points="410.5,-215.75 340.5,-215.75 340.5,-195 410.5,-195 410.5,-215.75"/>
<text text-anchor="middle" x="375.5" y="-202.25" font-family="Helvetica,sans-Serif" font-size="10.00">w2c_0_119</text>
</a>
</g>
</g>
<!-- Node7&#45;&gt;Node9 -->
<g id="edge9_Node000007_Node000009" class="edge">
<title>Node7&#45;&gt;Node9</title>
<g id="a_edge9_Node000007_Node000009"><a xlink:title=" ">
<path fill="none" stroke="#63b8ff" d="M290.49,-158.01C305.91,-166.71 327.97,-179.14 345.61,-189.09"/>
<polygon fill="#63b8ff" stroke="#63b8ff" points="343.65,-192 354.08,-193.86 347.09,-185.9 343.65,-192"/>
</a>
</g>
</g>
<!-- Node10 -->
<g id="Node000010" class="node">
<title>Node10</title>
<g id="a_Node000010"><a xlink:href="app_8c.html#a484b55f4f9d1815773c1408ca2b1f3c2" target="_top" xlink:title=" ">
<polygon fill="white" stroke="#666666" points="410.5,-176.75 340.5,-176.75 340.5,-156 410.5,-156 410.5,-176.75"/>
<text text-anchor="middle" x="375.5" y="-163.25" font-family="Helvetica,sans-Serif" font-size="10.00">w2c_0_129</text>
</a>
</g>
</g>
<!-- Node7&#45;&gt;Node10 -->
<g id="edge10_Node000007_Node000010" class="edge">
<title>Node7&#45;&gt;Node10</title>
<g id="a_edge10_Node000007_Node000010"><a xlink:title=" ">
<path fill="none" stroke="#63b8ff" d="M304.74,-153.49C312.41,-154.91 320.7,-156.44 328.79,-157.93"/>
<polygon fill="#63b8ff" stroke="#63b8ff" points="328.07,-161.36 338.54,-159.73 329.34,-154.48 328.07,-161.36"/>
</a>
</g>
</g>
<!-- Node11 -->
<g id="Node000011" class="node">
<title>Node11</title>
<g id="a_Node000011"><a xlink:href="app_8c.html#a073f670c8a950594dc8c2335dd28302c" target="_top" xlink:title=" ">
<polygon fill="white" stroke="#666666" points="410.5,-137.75 340.5,-137.75 340.5,-117 410.5,-117 410.5,-137.75"/>
<text text-anchor="middle" x="375.5" y="-124.25" font-family="Helvetica,sans-Serif" font-size="10.00">w2c_0_135</text>
</a>
</g>
</g>
<!-- Node7&#45;&gt;Node11 -->
<g id="edge11_Node000007_Node000011" class="edge">
<title>Node7&#45;&gt;Node11</title>
<g id="a_edge11_Node000007_Node000011"><a xlink:title=" ">
<path fill="none" stroke="#63b8ff" d="M304.74,-140.94C312.41,-139.45 320.7,-137.83 328.79,-136.26"/>
<polygon fill="#63b8ff" stroke="#63b8ff" points="329.4,-139.71 338.54,-134.37 328.06,-132.84 329.4,-139.71"/>
</a>
</g>
</g>
<!-- Node12 -->
<g id="Node000012" class="node">
<title>Node12</title>
<g id="a_Node000012"><a xlink:href="app_8c.html#ae0e699cf1cc73a374ef879067836e519" target="_top" xlink:title=" ">
<polygon fill="white" stroke="#666666" points="410.5,-98.75 340.5,-98.75 340.5,-78 410.5,-78 410.5,-98.75"/>
<text text-anchor="middle" x="375.5" y="-85.25" font-family="Helvetica,sans-Serif" font-size="10.00">w2c_0_170</text>
</a>
</g>
</g>
<!-- Node7&#45;&gt;Node12 -->
<g id="edge12_Node000007_Node000012" class="edge">
<title>Node7&#45;&gt;Node12</title>
<g id="a_edge12_Node000007_Node000012"><a xlink:title=" ">
<path fill="none" stroke="#63b8ff" d="M290.49,-136.55C306.01,-127.65 328.24,-114.9 345.94,-104.75"/>
<polygon fill="#63b8ff" stroke="#63b8ff" points="347.5,-107.89 354.44,-99.88 344.02,-101.82 347.5,-107.89"/>
</a>
</g>
</g>
<!-- Node13 -->
<g id="Node000013" class="node">
<title>Node13</title>
<g id="a_Node000013"><a xlink:href="app_8c.html#aa709ee1fada6a506c56e35eaa8f8aef1" target="_top" xlink:title=" ">
<polygon fill="white" stroke="#666666" points="407.5,-59.75 343.5,-59.75 343.5,-39 407.5,-39 407.5,-59.75"/>
<text text-anchor="middle" x="375.5" y="-46.25" font-family="Helvetica,sans-Serif" font-size="10.00">w2c_0_39</text>
</a>
</g>
</g>
<!-- Node7&#45;&gt;Node13 -->
<g id="edge13_Node000007_Node000013" class="edge">
<title>Node7&#45;&gt;Node13</title>
<g id="a_edge13_Node000007_Node000013"><a xlink:title=" ">
<path fill="none" stroke="#63b8ff" d="M279.4,-136.57C291.29,-120.56 315.27,-90.18 340.5,-69.38 341.75,-68.34 343.07,-67.33 344.42,-66.34"/>
<polygon fill="#63b8ff" stroke="#63b8ff" points="345.99,-69.49 352.4,-61.06 342.13,-63.65 345.99,-69.49"/>
</a>
</g>
</g>
<!-- Node14 -->
<g id="Node000014" class="node">
<title>Node14</title>
<g id="a_Node000014"><a xlink:href="app_8c.html#a8d8a9f240d971fdd48e2227d3e26416d" target="_top" xlink:title=" ">
<polygon fill="white" stroke="#666666" points="409.38,-20.75 341.62,-20.75 341.62,0 409.38,0 409.38,-20.75"/>
<text text-anchor="middle" x="375.5" y="-7.25" font-family="Helvetica,sans-Serif" font-size="10.00">w2c__f283</text>
</a>
</g>
</g>
<!-- Node7&#45;&gt;Node14 -->
<g id="edge14_Node000007_Node000014" class="edge">
<title>Node7&#45;&gt;Node14</title>
<g id="a_edge14_Node000007_Node000014"><a xlink:title=" ">
<path fill="none" stroke="#63b8ff" d="M275.68,-136.83C284.58,-114.79 307.66,-63.2 340.5,-30.38 341.37,-29.5 342.29,-28.66 343.24,-27.83"/>
<polygon fill="#63b8ff" stroke="#63b8ff" points="345.22,-30.72 351.24,-22.01 341.09,-25.07 345.22,-30.72"/>
</a>
</g>
</g>
</g>
</svg>
