<?xml version="1.0" encoding="UTF-8" standalone="no"?>
<!DOCTYPE svg PUBLIC "-//W3C//DTD SVG 1.1//EN"
 "http://www.w3.org/Graphics/SVG/1.1/DTD/svg11.dtd">
<!-- Generated by graphviz version 12.2.1 (0)
 -->
<!-- Title: w2c_0_54 Pages: 1 -->
<svg width="555pt" height="107pt"
 viewBox="0.00 0.00 554.50 106.75" xmlns="http://www.w3.org/2000/svg" xmlns:xlink="http://www.w3.org/1999/xlink">
<g id="graph0" class="graph" transform="scale(1 1) rotate(0) translate(4 102.75)">
<title>w2c_0_54</title>
<!-- Node1 -->
<g id="Node000001" class="node">
<title>Node1</title>
<g id="a_Node000001"><a xlink:title=" ">
<polygon fill="#999999" stroke="#666666" points="546.5,-59.75 482.5,-59.75 482.5,-39 546.5,-39 546.5,-59.75"/>
<text text-anchor="middle" x="514.5" y="-46.25" font-family="Helvetica,sans-Serif" font-size="10.00">w2c_0_54</text>
</a>
</g>
</g>
<!-- Node2 -->
<g id="Node000002" class="node">
<title>Node2</title>
<g id="a_Node000002"><a xlink:href="app_8c.html#ab8e58a6ea3255137351fe9a5e62f0376" target="_top" xlink:title=" ">
<polygon fill="white" stroke="#666666" points="433.75,-98.75 366,-98.75 366,-78 433.75,-78 433.75,-98.75"/>
<text text-anchor="middle" x="399.88" y="-85.25" font-family="Helvetica,sans-Serif" font-size="10.00">w2c__f291</text>
</a>
</g>
</g>
<!-- Node1&#45;&gt;Node2 -->
<g id="edge1_Node000001_Node000002" class="edge">
<title>Node1&#45;&gt;Node2</title>
<g id="a_edge1_Node000001_Node000002"><a xlink:title=" ">
<path fill="none" stroke="#63b8ff" d="M471.48,-63.92C458.42,-68.45 444.26,-73.35 432.08,-77.57"/>
<polygon fill="#63b8ff" stroke="#63b8ff" points="472.39,-67.31 480.7,-60.73 470.1,-60.7 472.39,-67.31"/>
</a>
</g>
</g>
<!-- Node4 -->
<g id="Node000004" class="node">
<title>Node4</title>
<g id="a_Node000004"><a xlink:href="app_8c.html#a56f76885651e5ace619296dfe8114b60" target="_top" xlink:title=" ">
<polygon fill="white" stroke="#666666" points="433.75,-59.75 366,-59.75 366,-39 433.75,-39 433.75,-59.75"/>
<text text-anchor="middle" x="399.88" y="-46.25" font-family="Helvetica,sans-Serif" font-size="10.00">w2c__f547</text>
</a>
</g>
</g>
<!-- Node1&#45;&gt;Node4 -->
<g id="edge3_Node000001_Node000004" class="edge">
<title>Node1&#45;&gt;Node4</title>
<g id="a_edge3_Node000001_Node000004"><a xlink:title=" ">
<path fill="none" stroke="#63b8ff" d="M470.81,-49.38C458.64,-49.38 445.56,-49.38 434.05,-49.38"/>
<polygon fill="#63b8ff" stroke="#63b8ff" points="470.61,-52.88 480.61,-49.38 470.61,-45.88 470.61,-52.88"/>
</a>
</g>
</g>
<!-- Node10 -->
<g id="Node000010" class="node">
<title>Node10</title>
<g id="a_Node000010"><a xlink:href="app_8c.html#ae605f9e39ce50124eb09613d1f987cae" target="_top" xlink:title=" ">
<polygon fill="white" stroke="#666666" points="446.5,-20.75 353.25,-20.75 353.25,0 446.5,0 446.5,-20.75"/>
<text text-anchor="middle" x="399.88" y="-7.25" font-family="Helvetica,sans-Serif" font-size="10.00">wrap_w2c_0_54</text>
</a>
</g>
</g>
<!-- Node1&#45;&gt;Node10 -->
<g id="edge9_Node000001_Node000010" class="edge">
<title>Node1&#45;&gt;Node10</title>
<g id="a_edge9_Node000001_Node000010"><a xlink:title=" ">
<path fill="none" stroke="#63b8ff" d="M471.48,-34.83C458.42,-30.3 444.26,-25.4 432.08,-21.18"/>
<polygon fill="#63b8ff" stroke="#63b8ff" points="470.1,-38.05 480.7,-38.02 472.39,-31.44 470.1,-38.05"/>
</a>
</g>
</g>
<!-- Node3 -->
<g id="Node000003" class="node">
<title>Node3</title>
<g id="a_Node000003"><a xlink:href="app_8c.html#acb10a0af79df836b294c2ac7c2f7f191" target="_top" xlink:title=" ">
<polygon fill="white" stroke="#666666" points="317.25,-98.75 220.25,-98.75 220.25,-78 317.25,-78 317.25,-98.75"/>
<text text-anchor="middle" x="268.75" y="-85.25" font-family="Helvetica,sans-Serif" font-size="10.00">wrap_w2c__f291</text>
</a>
</g>
</g>
<!-- Node2&#45;&gt;Node3 -->
<g id="edge2_Node000002_Node000003" class="edge">
<title>Node2&#45;&gt;Node3</title>
<g id="a_edge2_Node000002_Node000003"><a xlink:title=" ">
<path fill="none" stroke="#63b8ff" d="M354.17,-88.38C342.33,-88.38 329.49,-88.38 317.49,-88.38"/>
<polygon fill="#63b8ff" stroke="#63b8ff" points="354.11,-91.88 364.11,-88.38 354.11,-84.88 354.11,-91.88"/>
</a>
</g>
</g>
<!-- Node5 -->
<g id="Node000005" class="node">
<title>Node5</title>
<g id="a_Node000005"><a xlink:href="app_8c.html#a5677ffd129da8cd63b876545b8187d77" target="_top" xlink:title=" ">
<polygon fill="white" stroke="#666666" points="302.62,-59.75 234.88,-59.75 234.88,-39 302.62,-39 302.62,-59.75"/>
<text text-anchor="middle" x="268.75" y="-46.25" font-family="Helvetica,sans-Serif" font-size="10.00">w2c__f367</text>
</a>
</g>
</g>
<!-- Node4&#45;&gt;Node5 -->
<g id="edge4_Node000004_Node000005" class="edge">
<title>Node4&#45;&gt;Node5</title>
<g id="a_edge4_Node000004_Node000005"><a xlink:title=" ">
<path fill="none" stroke="#63b8ff" d="M354.32,-49.38C337.44,-49.38 318.54,-49.38 302.89,-49.38"/>
<polygon fill="#63b8ff" stroke="#63b8ff" points="354.11,-52.88 364.11,-49.38 354.11,-45.88 354.11,-52.88"/>
</a>
</g>
</g>
<!-- Node9 -->
<g id="Node000009" class="node">
<title>Node9</title>
<g id="a_Node000009"><a xlink:href="app_8c.html#a1851db0325f3693d4507242f2fd54e58" target="_top" xlink:title=" ">
<polygon fill="white" stroke="#666666" points="317.25,-20.75 220.25,-20.75 220.25,0 317.25,0 317.25,-20.75"/>
<text text-anchor="middle" x="268.75" y="-7.25" font-family="Helvetica,sans-Serif" font-size="10.00">wrap_w2c__f547</text>
</a>
</g>
</g>
<!-- Node4&#45;&gt;Node9 -->
<g id="edge8_Node000004_Node000009" class="edge">
<title>Node4&#45;&gt;Node9</title>
<g id="a_edge8_Node000004_Node000009"><a xlink:title=" ">
<path fill="none" stroke="#63b8ff" d="M354.87,-36.08C338.81,-31.23 320.87,-25.81 305.61,-21.21"/>
<polygon fill="#63b8ff" stroke="#63b8ff" points="353.59,-39.35 364.17,-38.89 355.61,-32.65 353.59,-39.35"/>
</a>
</g>
</g>
<!-- Node6 -->
<g id="Node000006" class="node">
<title>Node6</title>
<g id="a_Node000006"><a xlink:href="app_8c.html#ac863989691d4c389f80374209c220171" target="_top" xlink:title=" ">
<polygon fill="white" stroke="#666666" points="167,-78.75 104.5,-78.75 104.5,-58 167,-58 167,-78.75"/>
<text text-anchor="middle" x="135.75" y="-65.25" font-family="Helvetica,sans-Serif" font-size="10.00">w2c__c_0</text>
</a>
</g>
</g>
<!-- Node5&#45;&gt;Node6 -->
<g id="edge5_Node000005_Node000006" class="edge">
<title>Node5&#45;&gt;Node6</title>
<g id="a_edge5_Node000005_Node000006"><a xlink:title=" ">
<path fill="none" stroke="#63b8ff" d="M223.53,-55.79C204.97,-58.48 183.86,-61.54 167.1,-63.97"/>
<polygon fill="#63b8ff" stroke="#63b8ff" points="223.8,-59.29 233.2,-54.39 222.8,-52.36 223.8,-59.29"/>
</a>
</g>
</g>
<!-- Node8 -->
<g id="Node000008" class="node">
<title>Node8</title>
<g id="a_Node000008"><a xlink:href="app_8c.html#a8f64ccad6c506a1ca514ba4f43e5211c" target="_top" xlink:title=" ">
<polygon fill="white" stroke="#666666" points="184.25,-39.75 87.25,-39.75 87.25,-19 184.25,-19 184.25,-39.75"/>
<text text-anchor="middle" x="135.75" y="-26.25" font-family="Helvetica,sans-Serif" font-size="10.00">wrap_w2c__f367</text>
</a>
</g>
</g>
<!-- Node5&#45;&gt;Node8 -->
<g id="edge7_Node000005_Node000008" class="edge">
<title>Node5&#45;&gt;Node8</title>
<g id="a_edge7_Node000005_Node000008"><a xlink:title=" ">
<path fill="none" stroke="#63b8ff" d="M223.58,-42.63C211.06,-40.72 197.38,-38.63 184.65,-36.69"/>
<polygon fill="#63b8ff" stroke="#63b8ff" points="222.78,-46.05 233.2,-44.1 223.84,-39.13 222.78,-46.05"/>
</a>
</g>
</g>
<!-- Node7 -->
<g id="Node000007" class="node">
<title>Node7</title>
<g id="a_Node000007"><a xlink:href="app_8c.html#ab1e039392ea68017ab8a6063263b147d" target="_top" xlink:title=" ">
<polygon fill="white" stroke="#666666" points="51.25,-78.75 0,-78.75 0,-58 51.25,-58 51.25,-78.75"/>
<text text-anchor="middle" x="25.62" y="-65.25" font-family="Helvetica,sans-Serif" font-size="10.00">w2c__c</text>
</a>
</g>
</g>
<!-- Node6&#45;&gt;Node7 -->
<g id="edge6_Node000006_Node000007" class="edge">
<title>Node6&#45;&gt;Node7</title>
<g id="a_edge6_Node000006_Node000007"><a xlink:title=" ">
<path fill="none" stroke="#63b8ff" d="M92.72,-68.38C78.81,-68.38 63.78,-68.38 51.57,-68.38"/>
<polygon fill="#63b8ff" stroke="#63b8ff" points="92.54,-71.88 102.54,-68.38 92.54,-64.88 92.54,-71.88"/>
</a>
</g>
</g>
</g>
</svg>
