<?xml version="1.0" encoding="UTF-8" standalone="no"?>
<!DOCTYPE svg PUBLIC "-//W3C//DTD SVG 1.1//EN"
 "http://www.w3.org/Graphics/SVG/1.1/DTD/svg11.dtd">
<!-- Generated by graphviz version 12.2.1 (0)
 -->
<!-- Title: w2c__f516 Pages: 1 -->
<svg width="400pt" height="68pt"
 viewBox="0.00 0.00 399.75 67.75" xmlns="http://www.w3.org/2000/svg" xmlns:xlink="http://www.w3.org/1999/xlink">
<g id="graph0" class="graph" transform="scale(1 1) rotate(0) translate(4 63.75)">
<title>w2c__f516</title>
<!-- Node1 -->
<g id="Node000001" class="node">
<title>Node1</title>
<g id="a_Node000001"><a xlink:title=" ">
<polygon fill="#999999" stroke="#666666" points="391.75,-39.75 324,-39.75 324,-19 391.75,-19 391.75,-39.75"/>
<text text-anchor="middle" x="357.88" y="-26.25" font-family="Helvetica,sans-Serif" font-size="10.00">w2c__f516</text>
</a>
</g>
</g>
<!-- Node2 -->
<g id="Node000002" class="node">
<title>Node2</title>
<g id="a_Node000002"><a xlink:href="app_8c.html#a5677ffd129da8cd63b876545b8187d77" target="_top" xlink:title=" ">
<polygon fill="white" stroke="#666666" points="288,-39.75 220.25,-39.75 220.25,-19 288,-19 288,-39.75"/>
<text text-anchor="middle" x="254.12" y="-26.25" font-family="Helvetica,sans-Serif" font-size="10.00">w2c__f367</text>
</a>
</g>
</g>
<!-- Node1&#45;&gt;Node2 -->
<g id="edge1_Node000001_Node000002" class="edge">
<title>Node1&#45;&gt;Node2</title>
<g id="a_edge1_Node000001_Node000002"><a xlink:title=" ">
<path fill="none" stroke="#63b8ff" d="M312.32,-29.38C304.21,-29.38 295.88,-29.38 288.17,-29.38"/>
<polygon fill="#63b8ff" stroke="#63b8ff" points="312.04,-32.88 322.04,-29.38 312.04,-25.88 312.04,-32.88"/>
</a>
</g>
</g>
<!-- Node3 -->
<g id="Node000003" class="node">
<title>Node3</title>
<g id="a_Node000003"><a xlink:href="app_8c.html#ac863989691d4c389f80374209c220171" target="_top" xlink:title=" ">
<polygon fill="white" stroke="#666666" points="167,-59.75 104.5,-59.75 104.5,-39 167,-39 167,-59.75"/>
<text text-anchor="middle" x="135.75" y="-46.25" font-family="Helvetica,sans-Serif" font-size="10.00">w2c__c_0</text>
</a>
</g>
</g>
<!-- Node2&#45;&gt;Node3 -->
<g id="edge2_Node000002_Node000003" class="edge">
<title>Node2&#45;&gt;Node3</title>
<g id="a_edge2_Node000002_Node000003"><a xlink:title=" ">
<path fill="none" stroke="#63b8ff" d="M208.53,-37.04C194.76,-39.41 179.91,-41.96 167.32,-44.12"/>
<polygon fill="#63b8ff" stroke="#63b8ff" points="209.02,-40.51 218.28,-35.36 207.84,-33.61 209.02,-40.51"/>
</a>
</g>
</g>
<!-- Node5 -->
<g id="Node000005" class="node">
<title>Node5</title>
<g id="a_Node000005"><a xlink:href="app_8c.html#a8f64ccad6c506a1ca514ba4f43e5211c" target="_top" xlink:title=" ">
<polygon fill="white" stroke="#666666" points="184.25,-20.75 87.25,-20.75 87.25,0 184.25,0 184.25,-20.75"/>
<text text-anchor="middle" x="135.75" y="-7.25" font-family="Helvetica,sans-Serif" font-size="10.00">wrap_w2c__f367</text>
</a>
</g>
</g>
<!-- Node2&#45;&gt;Node5 -->
<g id="edge4_Node000002_Node000005" class="edge">
<title>Node2&#45;&gt;Node5</title>
<g id="a_edge4_Node000002_Node000005"><a xlink:title=" ">
<path fill="none" stroke="#63b8ff" d="M208.53,-22.09C200.64,-20.81 192.39,-19.46 184.41,-18.16"/>
<polygon fill="#63b8ff" stroke="#63b8ff" points="207.85,-25.53 218.28,-23.69 208.98,-18.62 207.85,-25.53"/>
</a>
</g>
</g>
<!-- Node4 -->
<g id="Node000004" class="node">
<title>Node4</title>
<g id="a_Node000004"><a xlink:href="app_8c.html#ab1e039392ea68017ab8a6063263b147d" target="_top" xlink:title=" ">
<polygon fill="white" stroke="#666666" points="51.25,-59.75 0,-59.75 0,-39 51.25,-39 51.25,-59.75"/>
<text text-anchor="middle" x="25.62" y="-46.25" font-family="Helvetica,sans-Serif" font-size="10.00">w2c__c</text>
</a>
</g>
</g>
<!-- Node3&#45;&gt;Node4 -->
<g id="edge3_Node000003_Node000004" class="edge">
<title>Node3&#45;&gt;Node4</title>
<g id="a_edge3_Node000003_Node000004"><a xlink:title=" ">
<path fill="none" stroke="#63b8ff" d="M92.72,-49.38C78.81,-49.38 63.78,-49.38 51.57,-49.38"/>
<polygon fill="#63b8ff" stroke="#63b8ff" points="92.54,-52.88 102.54,-49.38 92.54,-45.88 92.54,-52.88"/>
</a>
</g>
</g>
</g>
</svg>
