<?xml version="1.0" encoding="UTF-8" standalone="no"?>
<!DOCTYPE svg PUBLIC "-//W3C//DTD SVG 1.1//EN"
 "http://www.w3.org/Graphics/SVG/1.1/DTD/svg11.dtd">
<!-- Generated by graphviz version 12.2.1 (0)
 -->
<!-- Title: wrap_w2c__f297 Pages: 1 -->
<svg width="937pt" height="838pt"
 viewBox="0.00 0.00 937.25 837.75" xmlns="http://www.w3.org/2000/svg" xmlns:xlink="http://www.w3.org/1999/xlink">
<g id="graph0" class="graph" transform="scale(1 1) rotate(0) translate(4 833.75)">
<title>wrap_w2c__f297</title>
<!-- Node1 -->
<g id="Node000001" class="node">
<title>Node1</title>
<g id="a_Node000001"><a xlink:title=" ">
<polygon fill="#999999" stroke="#666666" points="97,-245.75 0,-245.75 0,-225 97,-225 97,-245.75"/>
<text text-anchor="middle" x="48.5" y="-232.25" font-family="Helvetica,sans-Serif" font-size="10.00">wrap_w2c__f297</text>
</a>
</g>
</g>
<!-- Node2 -->
<g id="Node000002" class="node">
<title>Node2</title>
<g id="a_Node000002"><a xlink:href="app_8c.html#a05c797a6118657c43344590b357a796b" target="_top" xlink:title=" ">
<polygon fill="white" stroke="#666666" points="200.75,-245.75 133,-245.75 133,-225 200.75,-225 200.75,-245.75"/>
<text text-anchor="middle" x="166.88" y="-232.25" font-family="Helvetica,sans-Serif" font-size="10.00">w2c__f297</text>
</a>
</g>
</g>
<!-- Node1&#45;&gt;Node2 -->
<g id="edge1_Node000001_Node000002" class="edge">
<title>Node1&#45;&gt;Node2</title>
<g id="a_edge1_Node000001_Node000002"><a xlink:title=" ">
<path fill="none" stroke="#63b8ff" d="M97.17,-235.38C105.18,-235.38 113.47,-235.38 121.4,-235.38"/>
<polygon fill="#63b8ff" stroke="#63b8ff" points="121.17,-238.88 131.17,-235.38 121.17,-231.88 121.17,-238.88"/>
</a>
</g>
</g>
<!-- Node3 -->
<g id="Node000003" class="node">
<title>Node3</title>
<g id="a_Node000003"><a xlink:href="app_8c.html#a7d4828f80c09fbe34c6c6440dc146ce6" target="_top" xlink:title=" ">
<polygon fill="white" stroke="#666666" points="304.5,-419.75 236.75,-419.75 236.75,-399 304.5,-399 304.5,-419.75"/>
<text text-anchor="middle" x="270.62" y="-406.25" font-family="Helvetica,sans-Serif" font-size="10.00">w2c__f428</text>
</a>
</g>
</g>
<!-- Node2&#45;&gt;Node3 -->
<g id="edge2_Node000002_Node000003" class="edge">
<title>Node2&#45;&gt;Node3</title>
<g id="a_edge2_Node000002_Node000003"><a xlink:title=" ">
<path fill="none" stroke="#63b8ff" d="M174.09,-246C190.66,-274.34 236.13,-352.1 257.82,-389.18"/>
<polygon fill="#63b8ff" stroke="#63b8ff" points="254.66,-390.72 262.73,-397.58 260.7,-387.19 254.66,-390.72"/>
</a>
</g>
</g>
<!-- Node34 -->
<g id="Node000034" class="node">
<title>Node34</title>
<g id="a_Node000034"><a xlink:href="app_8c.html#a282da58cdb8a8d86b26b785358ce183a" target="_top" xlink:title=" ">
<polygon fill="white" stroke="#666666" points="304.5,-226.75 236.75,-226.75 236.75,-206 304.5,-206 304.5,-226.75"/>
<text text-anchor="middle" x="270.62" y="-213.25" font-family="Helvetica,sans-Serif" font-size="10.00">w2c__f504</text>
</a>
</g>
</g>
<!-- Node2&#45;&gt;Node34 -->
<g id="edge41_Node000002_Node000034" class="edge">
<title>Node2&#45;&gt;Node34</title>
<g id="a_edge41_Node000002_Node000034"><a xlink:title=" ">
<path fill="none" stroke="#63b8ff" d="M201.19,-229.15C208.91,-227.71 217.25,-226.16 225.36,-224.64"/>
<polygon fill="#63b8ff" stroke="#63b8ff" points="225.91,-228.1 235.09,-222.82 224.62,-221.22 225.91,-228.1"/>
</a>
</g>
</g>
<!-- Node4 -->
<g id="Node000004" class="node">
<title>Node4</title>
<g id="a_Node000004"><a xlink:href="app_8c.html#a9667dd647db83da44fc3f87ff2a62201" target="_top" xlink:title=" ">
<polygon fill="white" stroke="#666666" points="404.5,-790.75 346.5,-790.75 346.5,-770 404.5,-770 404.5,-790.75"/>
<text text-anchor="middle" x="375.5" y="-777.25" font-family="Helvetica,sans-Serif" font-size="10.00">w2c_0_0</text>
</a>
</g>
</g>
<!-- Node3&#45;&gt;Node4 -->
<g id="edge3_Node000003_Node000004" class="edge">
<title>Node3&#45;&gt;Node4</title>
<g id="a_edge3_Node000003_Node000004"><a xlink:title=" ">
<path fill="none" stroke="#63b8ff" d="M272.54,-420C277.21,-472.38 299.84,-702.99 340.5,-760.38 340.9,-760.93 341.31,-761.48 341.75,-762.01"/>
<polygon fill="#63b8ff" stroke="#63b8ff" points="339.19,-764.42 348.96,-768.52 343.88,-759.22 339.19,-764.42"/>
</a>
</g>
</g>
<!-- Node5 -->
<g id="Node000005" class="node">
<title>Node5</title>
<g id="a_Node000005"><a xlink:href="app_8c.html#a073f670c8a950594dc8c2335dd28302c" target="_top" xlink:title=" ">
<polygon fill="white" stroke="#666666" points="410.5,-751.75 340.5,-751.75 340.5,-731 410.5,-731 410.5,-751.75"/>
<text text-anchor="middle" x="375.5" y="-738.25" font-family="Helvetica,sans-Serif" font-size="10.00">w2c_0_135</text>
</a>
</g>
</g>
<!-- Node3&#45;&gt;Node5 -->
<g id="edge4_Node000003_Node000005" class="edge">
<title>Node3&#45;&gt;Node5</title>
<g id="a_edge4_Node000003_Node000005"><a xlink:title=" ">
<path fill="none" stroke="#63b8ff" d="M271.08,-420C269.47,-462.46 268.62,-622.41 340.5,-721.38 341,-722.06 341.53,-722.73 342.08,-723.37"/>
<polygon fill="#63b8ff" stroke="#63b8ff" points="339.53,-725.79 349.36,-729.73 344.13,-720.51 339.53,-725.79"/>
</a>
</g>
</g>
<!-- Node6 -->
<g id="Node000006" class="node">
<title>Node6</title>
<g id="a_Node000006"><a xlink:href="app_8c.html#a18a88d48b058bed42fc73361b8889923" target="_top" xlink:title=" ">
<polygon fill="white" stroke="#666666" points="410.5,-712.75 340.5,-712.75 340.5,-692 410.5,-692 410.5,-712.75"/>
<text text-anchor="middle" x="375.5" y="-699.25" font-family="Helvetica,sans-Serif" font-size="10.00">w2c_0_145</text>
</a>
</g>
</g>
<!-- Node3&#45;&gt;Node6 -->
<g id="edge5_Node000003_Node000006" class="edge">
<title>Node3&#45;&gt;Node6</title>
<g id="a_edge5_Node000003_Node000006"><a xlink:title=" ">
<path fill="none" stroke="#63b8ff" d="M271.5,-420C271.58,-459.09 276.6,-597.1 340.5,-682.38 341.01,-683.05 341.55,-683.71 342.11,-684.35"/>
<polygon fill="#63b8ff" stroke="#63b8ff" points="339.58,-686.8 349.45,-690.67 344.15,-681.49 339.58,-686.8"/>
</a>
</g>
</g>
<!-- Node7 -->
<g id="Node000007" class="node">
<title>Node7</title>
<g id="a_Node000007"><a xlink:href="app_8c.html#a26f5f3566a80b7694b3e1f282fe44c4e" target="_top" xlink:title=" ">
<polygon fill="white" stroke="#666666" points="410.5,-673.75 340.5,-673.75 340.5,-653 410.5,-653 410.5,-673.75"/>
<text text-anchor="middle" x="375.5" y="-660.25" font-family="Helvetica,sans-Serif" font-size="10.00">w2c_0_160</text>
</a>
</g>
</g>
<!-- Node3&#45;&gt;Node7 -->
<g id="edge6_Node000003_Node000007" class="edge">
<title>Node3&#45;&gt;Node7</title>
<g id="a_edge6_Node000003_Node000007"><a xlink:title=" ">
<path fill="none" stroke="#63b8ff" d="M272.05,-419.94C273.98,-455.33 284.49,-571.6 340.5,-643.38 341.02,-644.04 341.57,-644.69 342.15,-645.33"/>
<polygon fill="#63b8ff" stroke="#63b8ff" points="339.66,-647.8 349.55,-651.59 344.18,-642.46 339.66,-647.8"/>
</a>
</g>
</g>
<!-- Node8 -->
<g id="Node000008" class="node">
<title>Node8</title>
<g id="a_Node000008"><a xlink:href="app_8c.html#a6ff627af0fa7674eab0ae563b97eeb11" target="_top" xlink:title=" ">
<polygon fill="white" stroke="#666666" points="410.5,-634.75 340.5,-634.75 340.5,-614 410.5,-614 410.5,-634.75"/>
<text text-anchor="middle" x="375.5" y="-621.25" font-family="Helvetica,sans-Serif" font-size="10.00">w2c_0_163</text>
</a>
</g>
</g>
<!-- Node3&#45;&gt;Node8 -->
<g id="edge7_Node000003_Node000008" class="edge">
<title>Node3&#45;&gt;Node8</title>
<g id="a_edge7_Node000003_Node000008"><a xlink:title=" ">
<path fill="none" stroke="#63b8ff" d="M272.8,-419.91C276.77,-451.35 292.32,-545.91 340.5,-604.38 341.15,-605.16 341.84,-605.92 342.56,-606.66"/>
<polygon fill="#63b8ff" stroke="#63b8ff" points="340.06,-609.15 350.04,-612.72 344.47,-603.71 340.06,-609.15"/>
</a>
</g>
</g>
<!-- Node9 -->
<g id="Node000009" class="node">
<title>Node9</title>
<g id="a_Node000009"><a xlink:href="app_8c.html#ae7f249bfdedd6f1b6337d1de6b8cab09" target="_top" xlink:title=" ">
<polygon fill="white" stroke="#666666" points="410.5,-595.75 340.5,-595.75 340.5,-575 410.5,-575 410.5,-595.75"/>
<text text-anchor="middle" x="375.5" y="-582.25" font-family="Helvetica,sans-Serif" font-size="10.00">w2c_0_164</text>
</a>
</g>
</g>
<!-- Node3&#45;&gt;Node9 -->
<g id="edge8_Node000003_Node000009" class="edge">
<title>Node3&#45;&gt;Node9</title>
<g id="a_edge8_Node000003_Node000009"><a xlink:title=" ">
<path fill="none" stroke="#63b8ff" d="M273.93,-420.08C280.25,-447.28 300.14,-520.05 340.5,-565.38 341.2,-566.16 341.93,-566.92 342.7,-567.66"/>
<polygon fill="#63b8ff" stroke="#63b8ff" points="340.54,-570.42 350.59,-573.79 344.84,-564.89 340.54,-570.42"/>
</a>
</g>
</g>
<!-- Node10 -->
<g id="Node000010" class="node">
<title>Node10</title>
<g id="a_Node000010"><a xlink:href="app_8c.html#a903261111f66decbcc7b8be9a05f8eea" target="_top" xlink:title=" ">
<polygon fill="white" stroke="#666666" points="410.5,-556.75 340.5,-556.75 340.5,-536 410.5,-536 410.5,-556.75"/>
<text text-anchor="middle" x="375.5" y="-543.25" font-family="Helvetica,sans-Serif" font-size="10.00">w2c_0_179</text>
</a>
</g>
</g>
<!-- Node3&#45;&gt;Node10 -->
<g id="edge9_Node000003_Node000010" class="edge">
<title>Node3&#45;&gt;Node10</title>
<g id="a_edge9_Node000003_Node000010"><a xlink:title=" ">
<path fill="none" stroke="#63b8ff" d="M275.68,-419.92C284.58,-441.96 307.66,-493.55 340.5,-526.38 341.37,-527.25 342.29,-528.09 343.24,-528.92"/>
<polygon fill="#63b8ff" stroke="#63b8ff" points="341.09,-531.68 351.24,-534.74 345.22,-526.03 341.09,-531.68"/>
</a>
</g>
</g>
<!-- Node11 -->
<g id="Node000011" class="node">
<title>Node11</title>
<g id="a_Node000011"><a xlink:href="app_8c.html#a4132029eef40af3166fadcb720dd7d1b" target="_top" xlink:title=" ">
<polygon fill="white" stroke="#666666" points="407.5,-517.75 343.5,-517.75 343.5,-497 407.5,-497 407.5,-517.75"/>
<text text-anchor="middle" x="375.5" y="-504.25" font-family="Helvetica,sans-Serif" font-size="10.00">w2c_0_18</text>
</a>
</g>
</g>
<!-- Node3&#45;&gt;Node11 -->
<g id="edge10_Node000003_Node000011" class="edge">
<title>Node3&#45;&gt;Node11</title>
<g id="a_edge10_Node000003_Node000011"><a xlink:title=" ">
<path fill="none" stroke="#63b8ff" d="M279.4,-420.18C291.29,-436.19 315.27,-466.57 340.5,-487.38 341.75,-488.41 343.07,-489.42 344.42,-490.41"/>
<polygon fill="#63b8ff" stroke="#63b8ff" points="342.13,-493.1 352.4,-495.69 345.99,-487.26 342.13,-493.1"/>
</a>
</g>
</g>
<!-- Node12 -->
<g id="Node000012" class="node">
<title>Node12</title>
<g id="a_Node000012"><a xlink:href="app_8c.html#ab9a7bf05ec0bdc1b85a7b30935e397a8" target="_top" xlink:title=" ">
<polygon fill="white" stroke="#666666" points="407.5,-478.75 343.5,-478.75 343.5,-458 407.5,-458 407.5,-478.75"/>
<text text-anchor="middle" x="375.5" y="-465.25" font-family="Helvetica,sans-Serif" font-size="10.00">w2c_0_55</text>
</a>
</g>
</g>
<!-- Node3&#45;&gt;Node12 -->
<g id="edge11_Node000003_Node000012" class="edge">
<title>Node3&#45;&gt;Node12</title>
<g id="a_edge11_Node000003_Node000012"><a xlink:title=" ">
<path fill="none" stroke="#63b8ff" d="M290.49,-420.2C306.01,-429.1 328.24,-441.85 345.94,-452"/>
<polygon fill="#63b8ff" stroke="#63b8ff" points="344.02,-454.93 354.44,-456.87 347.5,-448.86 344.02,-454.93"/>
</a>
</g>
</g>
<!-- Node13 -->
<g id="Node000013" class="node">
<title>Node13</title>
<g id="a_Node000013"><a xlink:href="app_8c.html#a0845deaa52bf05e7f31689bf095f9e15" target="_top" xlink:title=" ">
<polygon fill="white" stroke="#666666" points="407.5,-439.75 343.5,-439.75 343.5,-419 407.5,-419 407.5,-439.75"/>
<text text-anchor="middle" x="375.5" y="-426.25" font-family="Helvetica,sans-Serif" font-size="10.00">w2c_0_65</text>
</a>
</g>
</g>
<!-- Node3&#45;&gt;Node13 -->
<g id="edge12_Node000003_Node000013" class="edge">
<title>Node3&#45;&gt;Node13</title>
<g id="a_edge12_Node000003_Node000013"><a xlink:title=" ">
<path fill="none" stroke="#63b8ff" d="M304.74,-415.81C313.41,-417.5 322.89,-419.34 331.98,-421.11"/>
<polygon fill="#63b8ff" stroke="#63b8ff" points="331.23,-424.53 341.71,-423 332.56,-417.66 331.23,-424.53"/>
</a>
</g>
</g>
<!-- Node14 -->
<g id="Node000014" class="node">
<title>Node14</title>
<g id="a_Node000014"><a xlink:href="app_8c.html#af2a6460aa980eac83d4be2336a5682cc" target="_top" xlink:title=" ">
<polygon fill="white" stroke="#666666" points="407.5,-400.75 343.5,-400.75 343.5,-380 407.5,-380 407.5,-400.75"/>
<text text-anchor="middle" x="375.5" y="-387.25" font-family="Helvetica,sans-Serif" font-size="10.00">w2c_0_86</text>
</a>
</g>
</g>
<!-- Node3&#45;&gt;Node14 -->
<g id="edge13_Node000003_Node000014" class="edge">
<title>Node3&#45;&gt;Node14</title>
<g id="a_edge13_Node000003_Node000014"><a xlink:title=" ">
<path fill="none" stroke="#63b8ff" d="M304.74,-403.26C313.41,-401.66 322.89,-399.91 331.98,-398.23"/>
<polygon fill="#63b8ff" stroke="#63b8ff" points="332.51,-401.69 341.71,-396.43 331.24,-394.81 332.51,-401.69"/>
</a>
</g>
</g>
<!-- Node15 -->
<g id="Node000015" class="node">
<title>Node15</title>
<g id="a_Node000015"><a xlink:href="app_8c.html#a7504175e528fefc9d7ea063432bef9d5" target="_top" xlink:title=" ">
<polygon fill="white" stroke="#666666" points="407.5,-361.75 343.5,-361.75 343.5,-341 407.5,-341 407.5,-361.75"/>
<text text-anchor="middle" x="375.5" y="-348.25" font-family="Helvetica,sans-Serif" font-size="10.00">w2c_0_87</text>
</a>
</g>
</g>
<!-- Node3&#45;&gt;Node15 -->
<g id="edge14_Node000003_Node000015" class="edge">
<title>Node3&#45;&gt;Node15</title>
<g id="a_edge14_Node000003_Node000015"><a xlink:title=" ">
<path fill="none" stroke="#63b8ff" d="M290.49,-398.74C305.91,-390.04 327.97,-377.61 345.61,-367.66"/>
<polygon fill="#63b8ff" stroke="#63b8ff" points="347.09,-370.85 354.08,-362.89 343.65,-364.75 347.09,-370.85"/>
</a>
</g>
</g>
<!-- Node16 -->
<g id="Node000016" class="node">
<title>Node16</title>
<g id="a_Node000016"><a xlink:href="app_8c.html#a0e3bef21fd9a976288b266a9e18893b9" target="_top" xlink:title=" ">
<polygon fill="white" stroke="#666666" points="407.5,-322.75 343.5,-322.75 343.5,-302 407.5,-302 407.5,-322.75"/>
<text text-anchor="middle" x="375.5" y="-309.25" font-family="Helvetica,sans-Serif" font-size="10.00">w2c_0_93</text>
</a>
</g>
</g>
<!-- Node3&#45;&gt;Node16 -->
<g id="edge15_Node000003_Node000016" class="edge">
<title>Node3&#45;&gt;Node16</title>
<g id="a_edge15_Node000003_Node000016"><a xlink:title=" ">
<path fill="none" stroke="#63b8ff" d="M279.43,-398.72C291.36,-382.92 315.39,-352.95 340.5,-332.38 341.76,-331.34 343.08,-330.33 344.43,-329.35"/>
<polygon fill="#63b8ff" stroke="#63b8ff" points="346,-332.5 352.42,-324.07 342.14,-326.66 346,-332.5"/>
</a>
</g>
</g>
<!-- Node17 -->
<g id="Node000017" class="node">
<title>Node17</title>
<g id="a_Node000017"><a xlink:href="app_8c.html#a0378208e0d5c0d1d6e7370f1c578fab3" target="_top" xlink:title=" ">
<polygon fill="white" stroke="#666666" points="825.5,-91.75 757.75,-91.75 757.75,-71 825.5,-71 825.5,-91.75"/>
<text text-anchor="middle" x="791.62" y="-78.25" font-family="Helvetica,sans-Serif" font-size="10.00">w2c__f216</text>
</a>
</g>
</g>
<!-- Node3&#45;&gt;Node17 -->
<g id="edge16_Node000003_Node000017" class="edge">
<title>Node3&#45;&gt;Node17</title>
<g id="a_edge16_Node000003_Node000017"><a xlink:title=" ">
<path fill="none" stroke="#63b8ff" d="M273.63,-398.78C283.75,-345.72 329.02,-110.93 340.5,-100.38 386.35,-58.2 417.08,-81.38 479.38,-81.38 479.38,-81.38 479.38,-81.38 585.12,-81.38 640.61,-81.38 704.52,-81.38 746.14,-81.38"/>
<polygon fill="#63b8ff" stroke="#63b8ff" points="746.01,-84.88 756.01,-81.38 746.01,-77.88 746.01,-84.88"/>
</a>
</g>
</g>
<!-- Node19 -->
<g id="Node000019" class="node">
<title>Node19</title>
<g id="a_Node000019"><a xlink:href="app_8c.html#a473677c504e5effa085c43e095d81177" target="_top" xlink:title=" ">
<polygon fill="white" stroke="#666666" points="409.38,-246.75 341.62,-246.75 341.62,-226 409.38,-226 409.38,-246.75"/>
<text text-anchor="middle" x="375.5" y="-233.25" font-family="Helvetica,sans-Serif" font-size="10.00">w2c__f228</text>
</a>
</g>
</g>
<!-- Node3&#45;&gt;Node19 -->
<g id="edge18_Node000003_Node000019" class="edge">
<title>Node3&#45;&gt;Node19</title>
<g id="a_edge18_Node000003_Node000019"><a xlink:title=" ">
<path fill="none" stroke="#63b8ff" d="M274.5,-398.58C281.86,-372.47 303.47,-304.82 340.5,-260.38 342.36,-258.14 344.48,-256.02 346.72,-254.02"/>
<polygon fill="#63b8ff" stroke="#63b8ff" points="348.8,-256.84 354.56,-247.94 344.51,-251.31 348.8,-256.84"/>
</a>
</g>
</g>
<!-- Node23 -->
<g id="Node000023" class="node">
<title>Node23</title>
<g id="a_Node000023"><a xlink:href="app_8c.html#aaca5d5bcf49f2ca74019cf097750b9f3" target="_top" xlink:title=" ">
<polygon fill="white" stroke="#666666" points="825.5,-206.75 757.75,-206.75 757.75,-186 825.5,-186 825.5,-206.75"/>
<text text-anchor="middle" x="791.62" y="-193.25" font-family="Helvetica,sans-Serif" font-size="10.00">w2c__f258</text>
</a>
</g>
</g>
<!-- Node3&#45;&gt;Node23 -->
<g id="edge33_Node000003_Node000023" class="edge">
<title>Node3&#45;&gt;Node23</title>
<g id="a_edge33_Node000003_Node000023"><a xlink:title=" ">
<path fill="none" stroke="#63b8ff" d="M274.57,-398.51C281.58,-374.94 301.65,-319.13 340.5,-293.38 392.42,-258.95 417.08,-274.38 479.38,-274.38 479.38,-274.38 479.38,-274.38 585.12,-274.38 653.49,-274.38 726.81,-236.17 764.67,-213.24"/>
<polygon fill="#63b8ff" stroke="#63b8ff" points="766.44,-216.26 773.09,-208.02 762.75,-210.32 766.44,-216.26"/>
</a>
</g>
</g>
<!-- Node28 -->
<g id="Node000028" class="node">
<title>Node28</title>
<g id="a_Node000028"><a xlink:href="app_8c.html#a8d8a9f240d971fdd48e2227d3e26416d" target="_top" xlink:title=" ">
<polygon fill="white" stroke="#666666" points="409.38,-207.75 341.62,-207.75 341.62,-187 409.38,-187 409.38,-207.75"/>
<text text-anchor="middle" x="375.5" y="-194.25" font-family="Helvetica,sans-Serif" font-size="10.00">w2c__f283</text>
</a>
</g>
</g>
<!-- Node3&#45;&gt;Node28 -->
<g id="edge34_Node000003_Node000028" class="edge">
<title>Node3&#45;&gt;Node28</title>
<g id="a_edge34_Node000003_Node000028"><a xlink:title=" ">
<path fill="none" stroke="#63b8ff" d="M272.9,-398.55C277.11,-367.16 293.06,-274.65 340.5,-217.38 341.15,-216.59 341.84,-215.83 342.56,-215.09"/>
<polygon fill="#63b8ff" stroke="#63b8ff" points="344.47,-218.05 350.05,-209.04 340.07,-212.6 344.47,-218.05"/>
</a>
</g>
</g>
<!-- Node29 -->
<g id="Node000029" class="node">
<title>Node29</title>
<g id="a_Node000029"><a xlink:href="app_8c.html#a0bc90b77449a4191d27077f29db94c10" target="_top" xlink:title=" ">
<polygon fill="white" stroke="#666666" points="409.38,-168.75 341.62,-168.75 341.62,-148 409.38,-148 409.38,-168.75"/>
<text text-anchor="middle" x="375.5" y="-155.25" font-family="Helvetica,sans-Serif" font-size="10.00">w2c__f390</text>
</a>
</g>
</g>
<!-- Node3&#45;&gt;Node29 -->
<g id="edge35_Node000003_Node000029" class="edge">
<title>Node3&#45;&gt;Node29</title>
<g id="a_edge35_Node000003_Node000029"><a xlink:title=" ">
<path fill="none" stroke="#63b8ff" d="M272.09,-398.95C274.15,-364 285.02,-249.21 340.5,-178.38 341.02,-177.71 341.57,-177.06 342.15,-176.43"/>
<polygon fill="#63b8ff" stroke="#63b8ff" points="344.18,-179.29 349.56,-170.17 339.66,-173.94 344.18,-179.29"/>
</a>
</g>
</g>
<!-- Node31 -->
<g id="Node000031" class="node">
<title>Node31</title>
<g id="a_Node000031"><a xlink:href="app_8c.html#a87ed9e71bb510c147810da63c198b7b2" target="_top" xlink:title=" ">
<polygon fill="white" stroke="#666666" points="618,-20.75 550.25,-20.75 550.25,0 618,0 618,-20.75"/>
<text text-anchor="middle" x="584.12" y="-7.25" font-family="Helvetica,sans-Serif" font-size="10.00">w2c__f398</text>
</a>
</g>
</g>
<!-- Node3&#45;&gt;Node31 -->
<g id="edge37_Node000003_Node000031" class="edge">
<title>Node3&#45;&gt;Node31</title>
<g id="a_edge37_Node000003_Node000031"><a xlink:title=" ">
<path fill="none" stroke="#63b8ff" d="M273.63,-398.6C284.33,-341.18 334.48,-73.59 340.5,-67.38 392.24,-13.95 483.88,-6.57 538.52,-7.49"/>
<polygon fill="#63b8ff" stroke="#63b8ff" points="538.31,-10.98 548.4,-7.77 538.5,-3.99 538.31,-10.98"/>
</a>
</g>
</g>
<!-- Node32 -->
<g id="Node000032" class="node">
<title>Node32</title>
<g id="a_Node000032"><a xlink:href="app_8c.html#ab78a9ba6819f5a9d3b53302097151d33" target="_top" xlink:title=" ">
<polygon fill="white" stroke="#666666" points="409.38,-129.75 341.62,-129.75 341.62,-109 409.38,-109 409.38,-129.75"/>
<text text-anchor="middle" x="375.5" y="-116.25" font-family="Helvetica,sans-Serif" font-size="10.00">w2c__f481</text>
</a>
</g>
</g>
<!-- Node3&#45;&gt;Node32 -->
<g id="edge39_Node000003_Node000032" class="edge">
<title>Node3&#45;&gt;Node32</title>
<g id="a_edge39_Node000003_Node000032"><a xlink:title=" ">
<path fill="none" stroke="#63b8ff" d="M273.24,-398.62C280.14,-353.82 308.24,-182.3 340.5,-139.38 341.01,-138.7 341.55,-138.04 342.11,-137.4"/>
<polygon fill="#63b8ff" stroke="#63b8ff" points="344.15,-140.26 349.45,-131.09 339.59,-134.95 344.15,-140.26"/>
</a>
</g>
</g>
<!-- Node33 -->
<g id="Node000033" class="node">
<title>Node33</title>
<g id="a_Node000033"><a xlink:href="app_8c.html#a672569c91ebb1d5055d737b56ec296a7" target="_top" xlink:title=" ">
<polygon fill="white" stroke="#666666" points="409.38,-829.75 341.62,-829.75 341.62,-809 409.38,-809 409.38,-829.75"/>
<text text-anchor="middle" x="375.5" y="-816.25" font-family="Helvetica,sans-Serif" font-size="10.00">w2c__f585</text>
</a>
</g>
</g>
<!-- Node3&#45;&gt;Node33 -->
<g id="edge40_Node000003_Node000033" class="edge">
<title>Node3&#45;&gt;Node33</title>
<g id="a_edge40_Node000003_Node000033"><a xlink:title=" ">
<path fill="none" stroke="#63b8ff" d="M272.31,-420.04C276.09,-475.94 295.79,-734.99 340.5,-799.38 340.89,-799.94 341.3,-800.49 341.73,-801.02"/>
<polygon fill="#63b8ff" stroke="#63b8ff" points="339.16,-803.41 348.91,-807.56 343.87,-798.24 339.16,-803.41"/>
</a>
</g>
</g>
<!-- Node18 -->
<g id="Node000018" class="node">
<title>Node18</title>
<g id="a_Node000018"><a xlink:href="app_8c.html#a8d9f347f9a643f0ebfb53c4f54578ac4" target="_top" xlink:title=" ">
<polygon fill="white" stroke="#666666" points="929.25,-148.75 861.5,-148.75 861.5,-128 929.25,-128 929.25,-148.75"/>
<text text-anchor="middle" x="895.38" y="-135.25" font-family="Helvetica,sans-Serif" font-size="10.00">w2c__f304</text>
</a>
</g>
</g>
<!-- Node17&#45;&gt;Node18 -->
<g id="edge17_Node000017_Node000018" class="edge">
<title>Node17&#45;&gt;Node18</title>
<g id="a_edge17_Node000017_Node000018"><a xlink:title=" ">
<path fill="none" stroke="#63b8ff" d="M811.76,-92.1C826.87,-100.56 848.2,-112.51 865.4,-122.15"/>
<polygon fill="#63b8ff" stroke="#63b8ff" points="863.22,-124.93 873.66,-126.77 866.64,-118.83 863.22,-124.93"/>
</a>
</g>
</g>
<!-- Node20 -->
<g id="Node000020" class="node">
<title>Node20</title>
<g id="a_Node000020"><a xlink:href="app_8c.html#a16393b3c5cd680d67eabb5d0da38635c" target="_top" xlink:title=" ">
<polygon fill="white" stroke="#666666" points="514.25,-226.75 446.5,-226.75 446.5,-206 514.25,-206 514.25,-226.75"/>
<text text-anchor="middle" x="480.38" y="-213.25" font-family="Helvetica,sans-Serif" font-size="10.00">w2c__f551</text>
</a>
</g>
</g>
<!-- Node19&#45;&gt;Node20 -->
<g id="edge19_Node000019_Node000020" class="edge">
<title>Node19&#45;&gt;Node20</title>
<g id="a_edge19_Node000019_Node000020"><a xlink:title=" ">
<path fill="none" stroke="#63b8ff" d="M409.62,-229.94C417.78,-228.35 426.66,-226.62 435.26,-224.95"/>
<polygon fill="#63b8ff" stroke="#63b8ff" points="435.69,-228.43 444.83,-223.09 434.35,-221.56 435.69,-228.43"/>
</a>
</g>
</g>
<!-- Node21 -->
<g id="Node000021" class="node">
<title>Node21</title>
<g id="a_Node000021"><a xlink:href="app_8c.html#a1a8a1d528c65d63a630e19c3a4bdd098" target="_top" xlink:title=" ">
<polygon fill="white" stroke="#666666" points="618,-149.75 550.25,-149.75 550.25,-129 618,-129 618,-149.75"/>
<text text-anchor="middle" x="584.12" y="-136.25" font-family="Helvetica,sans-Serif" font-size="10.00">w2c__f557</text>
</a>
</g>
</g>
<!-- Node20&#45;&gt;Node21 -->
<g id="edge20_Node000020_Node000021" class="edge">
<title>Node20&#45;&gt;Node21</title>
<g id="a_edge20_Node000020_Node000021"><a xlink:title=" ">
<path fill="none" stroke="#63b8ff" d="M495.52,-205.67C512.13,-193.1 539.93,-172.06 559.76,-157.06"/>
<polygon fill="#63b8ff" stroke="#63b8ff" points="561.7,-159.98 567.56,-151.15 557.48,-154.4 561.7,-159.98"/>
</a>
</g>
</g>
<!-- Node22 -->
<g id="Node000022" class="node">
<title>Node22</title>
<g id="a_Node000022"><a xlink:href="app_8c.html#a0f7003812eaf983535ff7979fc047a21" target="_top" xlink:title=" ">
<polygon fill="white" stroke="#666666" points="721.75,-168.75 654,-168.75 654,-148 721.75,-148 721.75,-168.75"/>
<text text-anchor="middle" x="687.88" y="-155.25" font-family="Helvetica,sans-Serif" font-size="10.00">w2c__f353</text>
</a>
</g>
</g>
<!-- Node21&#45;&gt;Node22 -->
<g id="edge21_Node000021_Node000022" class="edge">
<title>Node21&#45;&gt;Node22</title>
<g id="a_edge21_Node000021_Node000022"><a xlink:title=" ">
<path fill="none" stroke="#63b8ff" d="M618.44,-145.6C626.16,-147.04 634.5,-148.59 642.61,-150.11"/>
<polygon fill="#63b8ff" stroke="#63b8ff" points="641.87,-153.53 652.34,-151.93 643.16,-146.65 641.87,-153.53"/>
</a>
</g>
</g>
<!-- Node26 -->
<g id="Node000026" class="node">
<title>Node26</title>
<g id="a_Node000026"><a xlink:href="app_8c.html#ac9cc84763a9c1933e50eedd7a06c17e2" target="_top" xlink:title=" ">
<polygon fill="white" stroke="#666666" points="721.75,-129.75 654,-129.75 654,-109 721.75,-109 721.75,-129.75"/>
<text text-anchor="middle" x="687.88" y="-116.25" font-family="Helvetica,sans-Serif" font-size="10.00">w2c__f480</text>
</a>
</g>
</g>
<!-- Node21&#45;&gt;Node26 -->
<g id="edge27_Node000021_Node000026" class="edge">
<title>Node21&#45;&gt;Node26</title>
<g id="a_edge27_Node000021_Node000026"><a xlink:title=" ">
<path fill="none" stroke="#63b8ff" d="M618.44,-132.83C626.16,-131.31 634.5,-129.67 642.61,-128.08"/>
<polygon fill="#63b8ff" stroke="#63b8ff" points="643.21,-131.53 652.35,-126.16 641.86,-124.66 643.21,-131.53"/>
</a>
</g>
</g>
<!-- Node22&#45;&gt;Node23 -->
<g id="edge22_Node000022_Node000023" class="edge">
<title>Node22&#45;&gt;Node23</title>
<g id="a_edge22_Node000022_Node000023"><a xlink:title=" ">
<path fill="none" stroke="#63b8ff" d="M717.76,-169.16C728.07,-173.01 739.88,-177.42 750.94,-181.55"/>
<polygon fill="#63b8ff" stroke="#63b8ff" points="749.66,-184.81 760.25,-185.03 752.11,-178.25 749.66,-184.81"/>
</a>
</g>
</g>
<!-- Node25 -->
<g id="Node000025" class="node">
<title>Node25</title>
<g id="a_Node000025"><a xlink:href="app_8c.html#a4634342addbde677893ffcb45cf639dd" target="_top" xlink:title=" ">
<polygon fill="white" stroke="#666666" points="825.5,-167.75 757.75,-167.75 757.75,-147 825.5,-147 825.5,-167.75"/>
<text text-anchor="middle" x="791.62" y="-154.25" font-family="Helvetica,sans-Serif" font-size="10.00">w2c__f302</text>
</a>
</g>
</g>
<!-- Node22&#45;&gt;Node25 -->
<g id="edge25_Node000022_Node000025" class="edge">
<title>Node22&#45;&gt;Node25</title>
<g id="a_edge25_Node000022_Node000025"><a xlink:title=" ">
<path fill="none" stroke="#63b8ff" d="M722.19,-158.05C729.82,-157.97 738.06,-157.89 746.08,-157.81"/>
<polygon fill="#63b8ff" stroke="#63b8ff" points="746.1,-161.31 756.07,-157.71 746.03,-154.31 746.1,-161.31"/>
</a>
</g>
</g>
<!-- Node23&#45;&gt;Node18 -->
<g id="edge23_Node000023_Node000018" class="edge">
<title>Node23&#45;&gt;Node18</title>
<g id="a_edge23_Node000023_Node000018"><a xlink:title=" ">
<path fill="none" stroke="#63b8ff" d="M811.29,-185.74C826.54,-177.04 848.35,-164.61 865.8,-154.66"/>
<polygon fill="#63b8ff" stroke="#63b8ff" points="867.22,-157.88 874.17,-149.89 863.75,-151.8 867.22,-157.88"/>
</a>
</g>
</g>
<!-- Node24 -->
<g id="Node000024" class="node">
<title>Node24</title>
<g id="a_Node000024"><a xlink:href="app_8c.html#a881f0b113e93dce3ff52d04b435850f6" target="_top" xlink:title=" ">
<polygon fill="white" stroke="#666666" points="929.25,-206.75 861.5,-206.75 861.5,-186 929.25,-186 929.25,-206.75"/>
<text text-anchor="middle" x="895.38" y="-193.25" font-family="Helvetica,sans-Serif" font-size="10.00">w2c__f491</text>
</a>
</g>
</g>
<!-- Node23&#45;&gt;Node24 -->
<g id="edge24_Node000023_Node000024" class="edge">
<title>Node23&#45;&gt;Node24</title>
<g id="a_edge24_Node000023_Node000024"><a xlink:title=" ">
<path fill="none" stroke="#63b8ff" d="M825.94,-196.38C833.57,-196.38 841.81,-196.38 849.83,-196.38"/>
<polygon fill="#63b8ff" stroke="#63b8ff" points="849.82,-199.88 859.82,-196.38 849.82,-192.88 849.82,-199.88"/>
</a>
</g>
</g>
<!-- Node25&#45;&gt;Node18 -->
<g id="edge26_Node000025_Node000018" class="edge">
<title>Node25&#45;&gt;Node18</title>
<g id="a_edge26_Node000025_Node000018"><a xlink:title=" ">
<path fill="none" stroke="#63b8ff" d="M825.94,-151.15C833.66,-149.71 842,-148.16 850.11,-146.64"/>
<polygon fill="#63b8ff" stroke="#63b8ff" points="850.66,-150.1 859.84,-144.82 849.37,-143.22 850.66,-150.1"/>
</a>
</g>
</g>
<!-- Node26&#45;&gt;Node17 -->
<g id="edge28_Node000026_Node000017" class="edge">
<title>Node26&#45;&gt;Node17</title>
<g id="a_edge28_Node000026_Node000017"><a xlink:title=" ">
<path fill="none" stroke="#63b8ff" d="M717.76,-108.59C728.07,-104.74 739.88,-100.33 750.94,-96.2"/>
<polygon fill="#63b8ff" stroke="#63b8ff" points="752.11,-99.5 760.25,-92.72 749.66,-92.94 752.11,-99.5"/>
</a>
</g>
</g>
<!-- Node26&#45;&gt;Node18 -->
<g id="edge31_Node000026_Node000018" class="edge">
<title>Node26&#45;&gt;Node18</title>
<g id="a_edge31_Node000026_Node000018"><a xlink:title=" ">
<path fill="none" stroke="#63b8ff" d="M721.89,-122.43C756.54,-125.63 811.23,-130.69 849.71,-134.25"/>
<polygon fill="#63b8ff" stroke="#63b8ff" points="849.31,-137.72 859.59,-135.16 849.96,-130.75 849.31,-137.72"/>
</a>
</g>
</g>
<!-- Node26&#45;&gt;Node23 -->
<g id="edge29_Node000026_Node000023" class="edge">
<title>Node26&#45;&gt;Node23</title>
<g id="a_edge29_Node000026_Node000023"><a xlink:title=" ">
<path fill="none" stroke="#63b8ff" d="M708.54,-130.23C713.03,-133 717.67,-136.13 721.75,-139.38 739.69,-153.67 739.81,-162.08 757.75,-176.38 759.02,-177.39 760.35,-178.39 761.72,-179.38"/>
<polygon fill="#63b8ff" stroke="#63b8ff" points="759.43,-182.06 769.7,-184.69 763.31,-176.23 759.43,-182.06"/>
</a>
</g>
</g>
<!-- Node26&#45;&gt;Node25 -->
<g id="edge30_Node000026_Node000025" class="edge">
<title>Node26&#45;&gt;Node25</title>
<g id="a_edge30_Node000026_Node000025"><a xlink:title=" ">
<path fill="none" stroke="#63b8ff" d="M717.76,-130.16C728.07,-134.01 739.88,-138.42 750.94,-142.55"/>
<polygon fill="#63b8ff" stroke="#63b8ff" points="749.66,-145.81 760.25,-146.03 752.11,-139.25 749.66,-145.81"/>
</a>
</g>
</g>
<!-- Node27 -->
<g id="Node000027" class="node">
<title>Node27</title>
<g id="a_Node000027"><a xlink:href="app_8c.html#a674f6e81761467d0a8dc6d2a425eda9f" target="_top" xlink:title=" ">
<polygon fill="white" stroke="#666666" points="825.5,-47.75 757.75,-47.75 757.75,-27 825.5,-27 825.5,-47.75"/>
<text text-anchor="middle" x="791.62" y="-34.25" font-family="Helvetica,sans-Serif" font-size="10.00">w2c__f498</text>
</a>
</g>
</g>
<!-- Node26&#45;&gt;Node27 -->
<g id="edge32_Node000026_Node000027" class="edge">
<title>Node26&#45;&gt;Node27</title>
<g id="a_edge32_Node000026_Node000027"><a xlink:title=" ">
<path fill="none" stroke="#63b8ff" d="M701.44,-108.71C715.15,-97.14 737.81,-78.2 757.75,-62.38 760.73,-60.01 763.88,-57.56 767.01,-55.15"/>
<polygon fill="#63b8ff" stroke="#63b8ff" points="769.09,-57.96 774.92,-49.12 764.85,-52.4 769.09,-57.96"/>
</a>
</g>
</g>
<!-- Node30 -->
<g id="Node000030" class="node">
<title>Node30</title>
<g id="a_Node000030"><a xlink:href="app_8c.html#a75d2a28c1bac8b1e29f069bf851fdba9" target="_top" xlink:title=" ">
<polygon fill="white" stroke="#666666" points="514.25,-168.75 446.5,-168.75 446.5,-148 514.25,-148 514.25,-168.75"/>
<text text-anchor="middle" x="480.38" y="-155.25" font-family="Helvetica,sans-Serif" font-size="10.00">w2c__f549</text>
</a>
</g>
</g>
<!-- Node29&#45;&gt;Node30 -->
<g id="edge36_Node000029_Node000030" class="edge">
<title>Node29&#45;&gt;Node30</title>
<g id="a_edge36_Node000029_Node000030"><a xlink:title=" ">
<path fill="none" stroke="#63b8ff" d="M409.62,-158.38C417.69,-158.38 426.46,-158.38 434.97,-158.38"/>
<polygon fill="#63b8ff" stroke="#63b8ff" points="434.81,-161.88 444.81,-158.38 434.81,-154.88 434.81,-161.88"/>
</a>
</g>
</g>
<!-- Node31&#45;&gt;Node27 -->
<g id="edge38_Node000031_Node000027" class="edge">
<title>Node31&#45;&gt;Node27</title>
<g id="a_edge38_Node000031_Node000027"><a xlink:title=" ">
<path fill="none" stroke="#63b8ff" d="M618.14,-14.71C652.79,-19.27 707.48,-26.45 745.96,-31.51"/>
<polygon fill="#63b8ff" stroke="#63b8ff" points="745.48,-34.97 755.85,-32.81 746.39,-28.03 745.48,-34.97"/>
</a>
</g>
</g>
<!-- Node34&#45;&gt;Node21 -->
<g id="edge42_Node000034_Node000021" class="edge">
<title>Node34&#45;&gt;Node21</title>
<g id="a_edge42_Node000034_Node000021"><a xlink:title=" ">
<path fill="none" stroke="#63b8ff" d="M274.13,-205.84C280.46,-181.89 299.59,-123.66 340.5,-100.38 409.44,-61.13 506.23,-99.47 554.04,-123.39"/>
<polygon fill="#63b8ff" stroke="#63b8ff" points="552.18,-126.37 562.67,-127.84 555.39,-120.15 552.18,-126.37"/>
</a>
</g>
</g>
</g>
</svg>
