<?xml version="1.0" encoding="UTF-8" standalone="no"?>
<!DOCTYPE svg PUBLIC "-//W3C//DTD SVG 1.1//EN"
 "http://www.w3.org/Graphics/SVG/1.1/DTD/svg11.dtd">
<!-- Generated by graphviz version 12.2.1 (0)
 -->
<!-- Title: w2c__f326 Pages: 1 -->
<svg width="695pt" height="260pt"
 viewBox="0.00 0.00 695.00 259.75" xmlns="http://www.w3.org/2000/svg" xmlns:xlink="http://www.w3.org/1999/xlink">
<g id="graph0" class="graph" transform="scale(1 1) rotate(0) translate(4 255.75)">
<title>w2c__f326</title>
<!-- Node1 -->
<g id="Node000001" class="node">
<title>Node1</title>
<g id="a_Node000001"><a xlink:title=" ">
<polygon fill="#999999" stroke="#666666" points="687,-117.75 619.25,-117.75 619.25,-97 687,-97 687,-117.75"/>
<text text-anchor="middle" x="653.12" y="-104.25" font-family="Helvetica,sans-Serif" font-size="10.00">w2c__f326</text>
</a>
</g>
</g>
<!-- Node2 -->
<g id="Node000002" class="node">
<title>Node2</title>
<g id="a_Node000002"><a xlink:href="app_8c.html#ac31bcf9c978e89bff4ef5e2cafdb7448" target="_top" xlink:title=" ">
<polygon fill="white" stroke="#666666" points="568.62,-212.75 500.88,-212.75 500.88,-192 568.62,-192 568.62,-212.75"/>
<text text-anchor="middle" x="534.75" y="-199.25" font-family="Helvetica,sans-Serif" font-size="10.00">w2c__f287</text>
</a>
</g>
</g>
<!-- Node1&#45;&gt;Node2 -->
<g id="edge1_Node000001_Node000002" class="edge">
<title>Node1&#45;&gt;Node2</title>
<g id="a_edge1_Node000001_Node000002"><a xlink:title=" ">
<path fill="none" stroke="#63b8ff" d="M636.47,-126.77C623.39,-142.11 603.64,-163.37 583.25,-178.38 576.4,-183.41 568.34,-187.93 560.83,-191.65"/>
<polygon fill="#63b8ff" stroke="#63b8ff" points="639.02,-129.17 642.73,-119.25 633.64,-124.69 639.02,-129.17"/>
</a>
</g>
</g>
<!-- Node4 -->
<g id="Node000004" class="node">
<title>Node4</title>
<g id="a_Node000004"><a xlink:href="app_8c.html#a5677ffd129da8cd63b876545b8187d77" target="_top" xlink:title=" ">
<polygon fill="white" stroke="#666666" points="302.62,-174.75 234.88,-174.75 234.88,-154 302.62,-154 302.62,-174.75"/>
<text text-anchor="middle" x="268.75" y="-161.25" font-family="Helvetica,sans-Serif" font-size="10.00">w2c__f367</text>
</a>
</g>
</g>
<!-- Node1&#45;&gt;Node4 -->
<g id="edge14_Node000001_Node000004" class="edge">
<title>Node1&#45;&gt;Node4</title>
<g id="a_edge14_Node000001_Node000004"><a xlink:title=" ">
<path fill="none" stroke="#63b8ff" d="M613.42,-121.88C603.69,-125.09 593.18,-128.18 583.25,-130.38 482.75,-152.56 360.79,-160.5 303.08,-163.15"/>
<polygon fill="#63b8ff" stroke="#63b8ff" points="614.26,-125.29 622.59,-118.74 611.99,-118.67 614.26,-125.29"/>
</a>
</g>
</g>
<!-- Node10 -->
<g id="Node000010" class="node">
<title>Node10</title>
<g id="a_Node000010"><a xlink:href="app_8c.html#a382a18f7c476aeaf0817235093cde2a5" target="_top" xlink:title=" ">
<polygon fill="white" stroke="#666666" points="568.62,-98.75 500.88,-98.75 500.88,-78 568.62,-78 568.62,-98.75"/>
<text text-anchor="middle" x="534.75" y="-85.25" font-family="Helvetica,sans-Serif" font-size="10.00">w2c__f363</text>
</a>
</g>
</g>
<!-- Node1&#45;&gt;Node10 -->
<g id="edge9_Node000001_Node000010" class="edge">
<title>Node1&#45;&gt;Node10</title>
<g id="a_edge9_Node000001_Node000010"><a xlink:title=" ">
<path fill="none" stroke="#63b8ff" d="M607.8,-100.14C594.96,-98.04 581.16,-95.79 569.1,-93.82"/>
<polygon fill="#63b8ff" stroke="#63b8ff" points="606.85,-103.53 617.28,-101.69 607.98,-96.62 606.85,-103.53"/>
</a>
</g>
</g>
<!-- Node11 -->
<g id="Node000011" class="node">
<title>Node11</title>
<g id="a_Node000011"><a xlink:href="app_8c.html#adf8c8ec159a20a3362d3c4421c52c359" target="_top" xlink:title=" ">
<polygon fill="white" stroke="#666666" points="435.62,-136.75 367.88,-136.75 367.88,-116 435.62,-116 435.62,-136.75"/>
<text text-anchor="middle" x="401.75" y="-123.25" font-family="Helvetica,sans-Serif" font-size="10.00">w2c__f513</text>
</a>
</g>
</g>
<!-- Node1&#45;&gt;Node11 -->
<g id="edge15_Node000001_Node000011" class="edge">
<title>Node1&#45;&gt;Node11</title>
<g id="a_edge15_Node000001_Node000011"><a xlink:title=" ">
<path fill="none" stroke="#63b8ff" d="M607.49,-110.78C558.22,-114.53 480.06,-120.48 435.93,-123.85"/>
<polygon fill="#63b8ff" stroke="#63b8ff" points="607.54,-114.28 617.24,-110.03 607.01,-107.3 607.54,-114.28"/>
</a>
</g>
</g>
<!-- Node14 -->
<g id="Node000014" class="node">
<title>Node14</title>
<g id="a_Node000014"><a xlink:href="app_8c.html#a2a2c9303fc9235b5c91f5b9e45ba5e91" target="_top" xlink:title=" ">
<polygon fill="white" stroke="#666666" points="568.62,-59.75 500.88,-59.75 500.88,-39 568.62,-39 568.62,-59.75"/>
<text text-anchor="middle" x="534.75" y="-46.25" font-family="Helvetica,sans-Serif" font-size="10.00">w2c__f546</text>
</a>
</g>
</g>
<!-- Node1&#45;&gt;Node14 -->
<g id="edge16_Node000001_Node000014" class="edge">
<title>Node1&#45;&gt;Node14</title>
<g id="a_edge16_Node000001_Node000014"><a xlink:title=" ">
<path fill="none" stroke="#63b8ff" d="M623.98,-90.96C611.63,-84 596.88,-75.98 583.25,-69.38 576.65,-66.17 569.4,-62.97 562.6,-60.1"/>
<polygon fill="#63b8ff" stroke="#63b8ff" points="621.96,-93.84 632.38,-95.76 625.43,-87.77 621.96,-93.84"/>
</a>
</g>
</g>
<!-- Node16 -->
<g id="Node000016" class="node">
<title>Node16</title>
<g id="a_Node000016"><a xlink:href="app_8c.html#aa02530036b35b9657bf6107e11d99e39" target="_top" xlink:title=" ">
<polygon fill="white" stroke="#666666" points="583.25,-20.75 486.25,-20.75 486.25,0 583.25,0 583.25,-20.75"/>
<text text-anchor="middle" x="534.75" y="-7.25" font-family="Helvetica,sans-Serif" font-size="10.00">wrap_w2c__f326</text>
</a>
</g>
</g>
<!-- Node1&#45;&gt;Node16 -->
<g id="edge18_Node000001_Node000016" class="edge">
<title>Node1&#45;&gt;Node16</title>
<g id="a_edge18_Node000001_Node000016"><a xlink:title=" ">
<path fill="none" stroke="#63b8ff" d="M638.28,-87.46C625.6,-70.43 605.46,-46.23 583.25,-30.38 578.3,-26.84 572.62,-23.77 566.96,-21.17"/>
<polygon fill="#63b8ff" stroke="#63b8ff" points="635.27,-89.27 643.96,-95.32 640.94,-85.16 635.27,-89.27"/>
</a>
</g>
</g>
<!-- Node3 -->
<g id="Node000003" class="node">
<title>Node3</title>
<g id="a_Node000003"><a xlink:href="app_8c.html#a26a3dfaa263b1d98a6eb6055906e8827" target="_top" xlink:title=" ">
<polygon fill="white" stroke="#666666" points="435.62,-251.75 367.88,-251.75 367.88,-231 435.62,-231 435.62,-251.75"/>
<text text-anchor="middle" x="401.75" y="-238.25" font-family="Helvetica,sans-Serif" font-size="10.00">w2c__f532</text>
</a>
</g>
</g>
<!-- Node2&#45;&gt;Node3 -->
<g id="edge2_Node000002_Node000003" class="edge">
<title>Node2&#45;&gt;Node3</title>
<g id="a_edge2_Node000002_Node000003"><a xlink:title=" ">
<path fill="none" stroke="#63b8ff" d="M489.79,-215.46C472.15,-220.72 452.16,-226.66 435.8,-231.54"/>
<polygon fill="#63b8ff" stroke="#63b8ff" points="490.66,-218.86 499.24,-212.65 488.66,-212.15 490.66,-218.86"/>
</a>
</g>
</g>
<!-- Node9 -->
<g id="Node000009" class="node">
<title>Node9</title>
<g id="a_Node000009"><a xlink:href="app_8c.html#a79ad276e9940e9db85f5e85b40d4ab98" target="_top" xlink:title=" ">
<polygon fill="white" stroke="#666666" points="450.25,-212.75 353.25,-212.75 353.25,-192 450.25,-192 450.25,-212.75"/>
<text text-anchor="middle" x="401.75" y="-199.25" font-family="Helvetica,sans-Serif" font-size="10.00">wrap_w2c__f287</text>
</a>
</g>
</g>
<!-- Node2&#45;&gt;Node9 -->
<g id="edge8_Node000002_Node000009" class="edge">
<title>Node2&#45;&gt;Node9</title>
<g id="a_edge8_Node000002_Node000009"><a xlink:title=" ">
<path fill="none" stroke="#63b8ff" d="M489.2,-202.38C476.78,-202.38 463.25,-202.38 450.65,-202.38"/>
<polygon fill="#63b8ff" stroke="#63b8ff" points="489.18,-205.88 499.18,-202.38 489.18,-198.88 489.18,-205.88"/>
</a>
</g>
</g>
<!-- Node3&#45;&gt;Node4 -->
<g id="edge3_Node000003_Node000004" class="edge">
<title>Node3&#45;&gt;Node4</title>
<g id="a_edge3_Node000003_Node000004"><a xlink:title=" ">
<path fill="none" stroke="#63b8ff" d="M362.09,-225.88C359.07,-224.43 356.09,-222.92 353.25,-221.38 327.51,-207.35 299.82,-187.37 283.68,-175.17"/>
<polygon fill="#63b8ff" stroke="#63b8ff" points="360.5,-228.99 371.05,-229.92 363.38,-222.62 360.5,-228.99"/>
</a>
</g>
</g>
<!-- Node8 -->
<g id="Node000008" class="node">
<title>Node8</title>
<g id="a_Node000008"><a xlink:href="app_8c.html#a62dd256a63ac002015b5cc6ed16c8ca9" target="_top" xlink:title=" ">
<polygon fill="white" stroke="#666666" points="317.25,-251.75 220.25,-251.75 220.25,-231 317.25,-231 317.25,-251.75"/>
<text text-anchor="middle" x="268.75" y="-238.25" font-family="Helvetica,sans-Serif" font-size="10.00">wrap_w2c__f532</text>
</a>
</g>
</g>
<!-- Node3&#45;&gt;Node8 -->
<g id="edge7_Node000003_Node000008" class="edge">
<title>Node3&#45;&gt;Node8</title>
<g id="a_edge7_Node000003_Node000008"><a xlink:title=" ">
<path fill="none" stroke="#63b8ff" d="M356.2,-241.38C343.78,-241.38 330.25,-241.38 317.65,-241.38"/>
<polygon fill="#63b8ff" stroke="#63b8ff" points="356.18,-244.88 366.18,-241.38 356.18,-237.88 356.18,-244.88"/>
</a>
</g>
</g>
<!-- Node5 -->
<g id="Node000005" class="node">
<title>Node5</title>
<g id="a_Node000005"><a xlink:href="app_8c.html#ac863989691d4c389f80374209c220171" target="_top" xlink:title=" ">
<polygon fill="white" stroke="#666666" points="167,-193.75 104.5,-193.75 104.5,-173 167,-173 167,-193.75"/>
<text text-anchor="middle" x="135.75" y="-180.25" font-family="Helvetica,sans-Serif" font-size="10.00">w2c__c_0</text>
</a>
</g>
</g>
<!-- Node4&#45;&gt;Node5 -->
<g id="edge4_Node000004_Node000005" class="edge">
<title>Node4&#45;&gt;Node5</title>
<g id="a_edge4_Node000004_Node000005"><a xlink:title=" ">
<path fill="none" stroke="#63b8ff" d="M223.53,-170.79C204.97,-173.48 183.86,-176.54 167.1,-178.97"/>
<polygon fill="#63b8ff" stroke="#63b8ff" points="223.8,-174.29 233.2,-169.39 222.8,-167.36 223.8,-174.29"/>
</a>
</g>
</g>
<!-- Node7 -->
<g id="Node000007" class="node">
<title>Node7</title>
<g id="a_Node000007"><a xlink:href="app_8c.html#a8f64ccad6c506a1ca514ba4f43e5211c" target="_top" xlink:title=" ">
<polygon fill="white" stroke="#666666" points="184.25,-154.75 87.25,-154.75 87.25,-134 184.25,-134 184.25,-154.75"/>
<text text-anchor="middle" x="135.75" y="-141.25" font-family="Helvetica,sans-Serif" font-size="10.00">wrap_w2c__f367</text>
</a>
</g>
</g>
<!-- Node4&#45;&gt;Node7 -->
<g id="edge6_Node000004_Node000007" class="edge">
<title>Node4&#45;&gt;Node7</title>
<g id="a_edge6_Node000004_Node000007"><a xlink:title=" ">
<path fill="none" stroke="#63b8ff" d="M223.58,-157.63C211.06,-155.72 197.38,-153.63 184.65,-151.69"/>
<polygon fill="#63b8ff" stroke="#63b8ff" points="222.78,-161.05 233.2,-159.1 223.84,-154.13 222.78,-161.05"/>
</a>
</g>
</g>
<!-- Node6 -->
<g id="Node000006" class="node">
<title>Node6</title>
<g id="a_Node000006"><a xlink:href="app_8c.html#ab1e039392ea68017ab8a6063263b147d" target="_top" xlink:title=" ">
<polygon fill="white" stroke="#666666" points="51.25,-193.75 0,-193.75 0,-173 51.25,-173 51.25,-193.75"/>
<text text-anchor="middle" x="25.62" y="-180.25" font-family="Helvetica,sans-Serif" font-size="10.00">w2c__c</text>
</a>
</g>
</g>
<!-- Node5&#45;&gt;Node6 -->
<g id="edge5_Node000005_Node000006" class="edge">
<title>Node5&#45;&gt;Node6</title>
<g id="a_edge5_Node000005_Node000006"><a xlink:title=" ">
<path fill="none" stroke="#63b8ff" d="M92.72,-183.38C78.81,-183.38 63.78,-183.38 51.57,-183.38"/>
<polygon fill="#63b8ff" stroke="#63b8ff" points="92.54,-186.88 102.54,-183.38 92.54,-179.88 92.54,-186.88"/>
</a>
</g>
</g>
<!-- Node10&#45;&gt;Node11 -->
<g id="edge10_Node000010_Node000011" class="edge">
<title>Node10&#45;&gt;Node11</title>
<g id="a_edge10_Node000010_Node000011"><a xlink:title=" ">
<path fill="none" stroke="#63b8ff" d="M489.79,-101.13C472.15,-106.24 452.16,-112.04 435.8,-116.79"/>
<polygon fill="#63b8ff" stroke="#63b8ff" points="490.61,-104.53 499.24,-98.39 488.66,-97.81 490.61,-104.53"/>
</a>
</g>
</g>
<!-- Node13 -->
<g id="Node000013" class="node">
<title>Node13</title>
<g id="a_Node000013"><a xlink:href="app_8c.html#ac48c5f40fe1cd71ca4f75992778ae373" target="_top" xlink:title=" ">
<polygon fill="white" stroke="#666666" points="450.25,-97.75 353.25,-97.75 353.25,-77 450.25,-77 450.25,-97.75"/>
<text text-anchor="middle" x="401.75" y="-84.25" font-family="Helvetica,sans-Serif" font-size="10.00">wrap_w2c__f363</text>
</a>
</g>
</g>
<!-- Node10&#45;&gt;Node13 -->
<g id="edge13_Node000010_Node000013" class="edge">
<title>Node10&#45;&gt;Node13</title>
<g id="a_edge13_Node000010_Node000013"><a xlink:title=" ">
<path fill="none" stroke="#63b8ff" d="M489.2,-88.03C476.78,-87.94 463.25,-87.84 450.65,-87.74"/>
<polygon fill="#63b8ff" stroke="#63b8ff" points="489.15,-91.53 499.18,-88.11 489.21,-84.53 489.15,-91.53"/>
</a>
</g>
</g>
<!-- Node11&#45;&gt;Node4 -->
<g id="edge11_Node000011_Node000004" class="edge">
<title>Node11&#45;&gt;Node4</title>
<g id="a_edge11_Node000011_Node000004"><a xlink:title=" ">
<path fill="none" stroke="#63b8ff" d="M356.79,-139.13C339.15,-144.24 319.16,-150.04 302.8,-154.79"/>
<polygon fill="#63b8ff" stroke="#63b8ff" points="357.61,-142.53 366.24,-136.39 355.66,-135.81 357.61,-142.53"/>
</a>
</g>
</g>
<!-- Node12 -->
<g id="Node000012" class="node">
<title>Node12</title>
<g id="a_Node000012"><a xlink:href="app_8c.html#a0931bcad301a4f7bce944a5e6f1b6b66" target="_top" xlink:title=" ">
<polygon fill="white" stroke="#666666" points="317.25,-135.75 220.25,-135.75 220.25,-115 317.25,-115 317.25,-135.75"/>
<text text-anchor="middle" x="268.75" y="-122.25" font-family="Helvetica,sans-Serif" font-size="10.00">wrap_w2c__f513</text>
</a>
</g>
</g>
<!-- Node11&#45;&gt;Node12 -->
<g id="edge12_Node000011_Node000012" class="edge">
<title>Node11&#45;&gt;Node12</title>
<g id="a_edge12_Node000011_Node000012"><a xlink:title=" ">
<path fill="none" stroke="#63b8ff" d="M356.2,-126.03C343.78,-125.94 330.25,-125.84 317.65,-125.74"/>
<polygon fill="#63b8ff" stroke="#63b8ff" points="356.15,-129.53 366.18,-126.11 356.21,-122.53 356.15,-129.53"/>
</a>
</g>
</g>
<!-- Node15 -->
<g id="Node000015" class="node">
<title>Node15</title>
<g id="a_Node000015"><a xlink:href="app_8c.html#a4f265dac7c9ab7c1ac2e95d3251950a8" target="_top" xlink:title=" ">
<polygon fill="white" stroke="#666666" points="450.25,-58.75 353.25,-58.75 353.25,-38 450.25,-38 450.25,-58.75"/>
<text text-anchor="middle" x="401.75" y="-45.25" font-family="Helvetica,sans-Serif" font-size="10.00">wrap_w2c__f546</text>
</a>
</g>
</g>
<!-- Node14&#45;&gt;Node15 -->
<g id="edge17_Node000014_Node000015" class="edge">
<title>Node14&#45;&gt;Node15</title>
<g id="a_edge17_Node000014_Node000015"><a xlink:title=" ">
<path fill="none" stroke="#63b8ff" d="M489.2,-49.03C476.78,-48.94 463.25,-48.84 450.65,-48.74"/>
<polygon fill="#63b8ff" stroke="#63b8ff" points="489.15,-52.53 499.18,-49.11 489.21,-45.53 489.15,-52.53"/>
</a>
</g>
</g>
</g>
</svg>
