<?xml version="1.0" encoding="UTF-8" standalone="no"?>
<!DOCTYPE svg PUBLIC "-//W3C//DTD SVG 1.1//EN"
 "http://www.w3.org/Graphics/SVG/1.1/DTD/svg11.dtd">
<!-- Generated by graphviz version 12.2.1 (0)
 -->
<!-- Title: w2c__f446 Pages: 1 -->
<svg width="782pt" height="172pt"
 viewBox="0.00 0.00 781.75 171.75" xmlns="http://www.w3.org/2000/svg" xmlns:xlink="http://www.w3.org/1999/xlink">
<g id="graph0" class="graph" transform="scale(1 1) rotate(0) translate(4 167.75)">
<title>w2c__f446</title>
<!-- Node1 -->
<g id="Node000001" class="node">
<title>Node1</title>
<g id="a_Node000001"><a xlink:title=" ">
<polygon fill="#999999" stroke="#666666" points="773.75,-96.75 706,-96.75 706,-76 773.75,-76 773.75,-96.75"/>
<text text-anchor="middle" x="739.88" y="-83.25" font-family="Helvetica,sans-Serif" font-size="10.00">w2c__f446</text>
</a>
</g>
</g>
<!-- Node2 -->
<g id="Node000002" class="node">
<title>Node2</title>
<g id="a_Node000002"><a xlink:href="app_8c.html#a9856384d540064b02407c53ce1a8be56" target="_top" xlink:title=" ">
<polygon fill="white" stroke="#666666" points="462.5,-96.75 394.75,-96.75 394.75,-76 462.5,-76 462.5,-96.75"/>
<text text-anchor="middle" x="428.62" y="-83.25" font-family="Helvetica,sans-Serif" font-size="10.00">w2c__f275</text>
</a>
</g>
</g>
<!-- Node1&#45;&gt;Node2 -->
<g id="edge1_Node000001_Node000002" class="edge">
<title>Node1&#45;&gt;Node2</title>
<g id="a_edge1_Node000001_Node000002"><a xlink:title=" ">
<path fill="none" stroke="#63b8ff" d="M701.9,-101.11C654.33,-118 569.39,-141.21 498.5,-123.38 478.49,-118.34 457.96,-106.24 444.58,-97.24"/>
<polygon fill="#63b8ff" stroke="#63b8ff" points="702.98,-104.44 711.17,-97.71 700.57,-97.86 702.98,-104.44"/>
</a>
</g>
</g>
<!-- Node3 -->
<g id="Node000003" class="node">
<title>Node3</title>
<g id="a_Node000003"><a xlink:href="app_8c.html#aac449994afd8488e2efd16fb19f0ecb1" target="_top" xlink:title=" ">
<polygon fill="white" stroke="#666666" points="358.75,-143.75 291,-143.75 291,-123 358.75,-123 358.75,-143.75"/>
<text text-anchor="middle" x="324.88" y="-130.25" font-family="Helvetica,sans-Serif" font-size="10.00">w2c__f336</text>
</a>
</g>
</g>
<!-- Node1&#45;&gt;Node3 -->
<g id="edge9_Node000001_Node000003" class="edge">
<title>Node1&#45;&gt;Node3</title>
<g id="a_edge9_Node000001_Node000003"><a xlink:title=" ">
<path fill="none" stroke="#63b8ff" d="M718.67,-103.94C705.68,-114.14 687.93,-126.17 670,-132.38 561.31,-169.96 421.5,-151.58 358.83,-140.16"/>
<polygon fill="#63b8ff" stroke="#63b8ff" points="720.52,-106.94 726.05,-97.9 716.09,-101.53 720.52,-106.94"/>
</a>
</g>
</g>
<!-- Node9 -->
<g id="Node000009" class="node">
<title>Node9</title>
<g id="a_Node000009"><a xlink:href="app_8c.html#aada8f3762f0960bddf55a2e59d8087f8" target="_top" xlink:title=" ">
<polygon fill="white" stroke="#666666" points="670,-58.75 602.25,-58.75 602.25,-38 670,-38 670,-58.75"/>
<text text-anchor="middle" x="636.12" y="-45.25" font-family="Helvetica,sans-Serif" font-size="10.00">w2c__f375</text>
</a>
</g>
</g>
<!-- Node1&#45;&gt;Node9 -->
<g id="edge10_Node000001_Node000009" class="edge">
<title>Node1&#45;&gt;Node9</title>
<g id="a_edge10_Node000001_Node000009"><a xlink:title=" ">
<path fill="none" stroke="#63b8ff" d="M699.26,-71.58C688.21,-67.45 676.4,-63.04 666.08,-59.19"/>
<polygon fill="#63b8ff" stroke="#63b8ff" points="697.98,-74.84 708.57,-75.06 700.43,-68.28 697.98,-74.84"/>
</a>
</g>
</g>
<!-- Node10 -->
<g id="Node000010" class="node">
<title>Node10</title>
<g id="a_Node000010"><a xlink:href="app_8c.html#ae4bb39cfb5a24045c9b864563ef76ba6" target="_top" xlink:title=" ">
<polygon fill="white" stroke="#666666" points="566.25,-20.75 498.5,-20.75 498.5,0 566.25,0 566.25,-20.75"/>
<text text-anchor="middle" x="532.38" y="-7.25" font-family="Helvetica,sans-Serif" font-size="10.00">w2c__f579</text>
</a>
</g>
</g>
<!-- Node1&#45;&gt;Node10 -->
<g id="edge17_Node000001_Node000010" class="edge">
<title>Node1&#45;&gt;Node10</title>
<g id="a_edge17_Node000001_Node000010"><a xlink:title=" ">
<path fill="none" stroke="#63b8ff" d="M721.89,-67.64C708.99,-54.68 690.08,-38.22 670,-29.38 636.8,-14.75 595.04,-10.78 566.49,-9.98"/>
<polygon fill="#63b8ff" stroke="#63b8ff" points="719.32,-70.02 728.76,-74.83 724.39,-65.18 719.32,-70.02"/>
</a>
</g>
</g>
<!-- Node11 -->
<g id="Node000011" class="node">
<title>Node11</title>
<g id="a_Node000011"><a xlink:href="app_8c.html#a98b6c466c826c179b34e726bb6a4bebc" target="_top" xlink:title=" ">
<polygon fill="white" stroke="#666666" points="566.25,-96.75 498.5,-96.75 498.5,-76 566.25,-76 566.25,-96.75"/>
<text text-anchor="middle" x="532.38" y="-83.25" font-family="Helvetica,sans-Serif" font-size="10.00">w2c__f422</text>
</a>
</g>
</g>
<!-- Node1&#45;&gt;Node11 -->
<g id="edge14_Node000001_Node000011" class="edge">
<title>Node1&#45;&gt;Node11</title>
<g id="a_edge14_Node000001_Node000011"><a xlink:title=" ">
<path fill="none" stroke="#63b8ff" d="M694.5,-86.38C656.09,-86.38 601.4,-86.38 566.65,-86.38"/>
<polygon fill="#63b8ff" stroke="#63b8ff" points="694.34,-89.88 704.34,-86.38 694.34,-82.88 694.34,-89.88"/>
</a>
</g>
</g>
<!-- Node2&#45;&gt;Node2 -->
<g id="edge2_Node000002_Node000002" class="edge">
<title>Node2&#45;&gt;Node2</title>
<g id="a_edge2_Node000002_Node000002"><a xlink:title=" ">
<path fill="none" stroke="#63b8ff" d="M446.66,-108.56C444.11,-112.23 438.1,-114.75 428.62,-114.75 410.79,-114.75 405.22,-105.81 411.91,-97.15"/>
<polygon fill="#63b8ff" stroke="#63b8ff" points="450.14,-108.18 445.52,-98.65 443.19,-108.99 450.14,-108.18"/>
</a>
</g>
</g>
<!-- Node2&#45;&gt;Node3 -->
<g id="edge3_Node000002_Node000003" class="edge">
<title>Node2&#45;&gt;Node3</title>
<g id="a_edge3_Node000002_Node000003"><a xlink:title=" ">
<path fill="none" stroke="#63b8ff" d="M394.03,-101.89C379.31,-108.69 362.4,-116.5 349.11,-122.64"/>
<polygon fill="#63b8ff" stroke="#63b8ff" points="395.3,-105.16 402.91,-97.79 392.36,-98.81 395.3,-105.16"/>
</a>
</g>
</g>
<!-- Node4 -->
<g id="Node000004" class="node">
<title>Node4</title>
<g id="a_Node000004"><a xlink:href="app_8c.html#ac863989691d4c389f80374209c220171" target="_top" xlink:title=" ">
<polygon fill="white" stroke="#666666" points="252.38,-163.75 189.88,-163.75 189.88,-143 252.38,-143 252.38,-163.75"/>
<text text-anchor="middle" x="221.12" y="-150.25" font-family="Helvetica,sans-Serif" font-size="10.00">w2c__c_0</text>
</a>
</g>
</g>
<!-- Node3&#45;&gt;Node4 -->
<g id="edge4_Node000003_Node000004" class="edge">
<title>Node3&#45;&gt;Node4</title>
<g id="a_edge4_Node000003_Node000004"><a xlink:title=" ">
<path fill="none" stroke="#63b8ff" d="M279.4,-142.12C270.41,-143.88 261.15,-145.7 252.76,-147.35"/>
<polygon fill="#63b8ff" stroke="#63b8ff" points="279.94,-145.58 289.07,-140.22 278.59,-138.71 279.94,-145.58"/>
</a>
</g>
</g>
<!-- Node6 -->
<g id="Node000006" class="node">
<title>Node6</title>
<g id="a_Node000006"><a xlink:href="app_8c.html#a8f312e54d76623b1ae169d5d19736ee0" target="_top" xlink:title=" ">
<polygon fill="white" stroke="#666666" points="255,-124.75 187.25,-124.75 187.25,-104 255,-104 255,-124.75"/>
<text text-anchor="middle" x="221.12" y="-111.25" font-family="Helvetica,sans-Serif" font-size="10.00">w2c__f363</text>
</a>
</g>
</g>
<!-- Node3&#45;&gt;Node6 -->
<g id="edge6_Node000003_Node000006" class="edge">
<title>Node3&#45;&gt;Node6</title>
<g id="a_edge6_Node000003_Node000006"><a xlink:title=" ">
<path fill="none" stroke="#63b8ff" d="M279.32,-125.06C271.21,-123.54 262.88,-121.98 255.17,-120.55"/>
<polygon fill="#63b8ff" stroke="#63b8ff" points="278.6,-128.48 289.07,-126.88 279.88,-121.6 278.6,-128.48"/>
</a>
</g>
</g>
<!-- Node5 -->
<g id="Node000005" class="node">
<title>Node5</title>
<g id="a_Node000005"><a xlink:href="app_8c.html#ab1e039392ea68017ab8a6063263b147d" target="_top" xlink:title=" ">
<polygon fill="white" stroke="#666666" points="145.25,-163.75 94,-163.75 94,-143 145.25,-143 145.25,-163.75"/>
<text text-anchor="middle" x="119.62" y="-150.25" font-family="Helvetica,sans-Serif" font-size="10.00">w2c__c</text>
</a>
</g>
</g>
<!-- Node4&#45;&gt;Node5 -->
<g id="edge5_Node000004_Node000005" class="edge">
<title>Node4&#45;&gt;Node5</title>
<g id="a_edge5_Node000004_Node000005"><a xlink:title=" ">
<path fill="none" stroke="#63b8ff" d="M178.21,-153.38C167.15,-153.38 155.55,-153.38 145.68,-153.38"/>
<polygon fill="#63b8ff" stroke="#63b8ff" points="177.95,-156.88 187.95,-153.38 177.95,-149.88 177.95,-156.88"/>
</a>
</g>
</g>
<!-- Node7 -->
<g id="Node000007" class="node">
<title>Node7</title>
<g id="a_Node000007"><a xlink:href="app_8c.html#a26657f10c51f10eeb57a4d27606a6885" target="_top" xlink:title=" ">
<polygon fill="white" stroke="#666666" points="151.25,-124.75 88,-124.75 88,-104 151.25,-104 151.25,-124.75"/>
<text text-anchor="middle" x="119.62" y="-111.25" font-family="Helvetica,sans-Serif" font-size="10.00">w2c__b_0</text>
</a>
</g>
</g>
<!-- Node6&#45;&gt;Node7 -->
<g id="edge7_Node000006_Node000007" class="edge">
<title>Node6&#45;&gt;Node7</title>
<g id="a_edge7_Node000006_Node000007"><a xlink:title=" ">
<path fill="none" stroke="#63b8ff" d="M175.71,-114.38C167.57,-114.38 159.23,-114.38 151.59,-114.38"/>
<polygon fill="#63b8ff" stroke="#63b8ff" points="175.48,-117.88 185.48,-114.38 175.48,-110.88 175.48,-117.88"/>
</a>
</g>
</g>
<!-- Node8 -->
<g id="Node000008" class="node">
<title>Node8</title>
<g id="a_Node000008"><a xlink:href="app_8c.html#a683a2045346c3209e9dac20d55933c7d" target="_top" xlink:title=" ">
<polygon fill="white" stroke="#666666" points="52,-124.75 0,-124.75 0,-104 52,-104 52,-124.75"/>
<text text-anchor="middle" x="26" y="-111.25" font-family="Helvetica,sans-Serif" font-size="10.00">w2c__b</text>
</a>
</g>
</g>
<!-- Node7&#45;&gt;Node8 -->
<g id="edge8_Node000007_Node000008" class="edge">
<title>Node7&#45;&gt;Node8</title>
<g id="a_edge8_Node000007_Node000008"><a xlink:title=" ">
<path fill="none" stroke="#63b8ff" d="M76.21,-114.38C68,-114.38 59.65,-114.38 52.21,-114.38"/>
<polygon fill="#63b8ff" stroke="#63b8ff" points="76.09,-117.88 86.09,-114.38 76.09,-110.88 76.09,-117.88"/>
</a>
</g>
</g>
<!-- Node9&#45;&gt;Node2 -->
<g id="edge11_Node000009_Node000002" class="edge">
<title>Node9&#45;&gt;Node2</title>
<g id="a_edge11_Node000009_Node000002"><a xlink:title=" ">
<path fill="none" stroke="#63b8ff" d="M590.44,-53.09C563.63,-56.29 528.94,-61.09 498.5,-67.38 486.72,-69.81 473.97,-73.13 462.69,-76.31"/>
<polygon fill="#63b8ff" stroke="#63b8ff" points="590.75,-56.58 600.28,-51.95 589.95,-49.63 590.75,-56.58"/>
</a>
</g>
</g>
<!-- Node9&#45;&gt;Node10 -->
<g id="edge12_Node000009_Node000010" class="edge">
<title>Node9&#45;&gt;Node10</title>
<g id="a_edge12_Node000009_Node000010"><a xlink:title=" ">
<path fill="none" stroke="#63b8ff" d="M595.51,-33.58C584.46,-29.45 572.65,-25.04 562.33,-21.19"/>
<polygon fill="#63b8ff" stroke="#63b8ff" points="594.23,-36.84 604.82,-37.06 596.68,-30.28 594.23,-36.84"/>
</a>
</g>
</g>
<!-- Node10&#45;&gt;Node2 -->
<g id="edge13_Node000010_Node000002" class="edge">
<title>Node10&#45;&gt;Node2</title>
<g id="a_edge13_Node000010_Node000002"><a xlink:title=" ">
<path fill="none" stroke="#63b8ff" d="M507.35,-27.85C504.36,-30.04 501.36,-32.25 498.5,-34.38 479.49,-48.49 457.71,-64.99 443.82,-75.55"/>
<polygon fill="#63b8ff" stroke="#63b8ff" points="509.38,-30.7 515.39,-21.97 505.25,-25.05 509.38,-30.7"/>
</a>
</g>
</g>
<!-- Node11&#45;&gt;Node2 -->
<g id="edge15_Node000011_Node000002" class="edge">
<title>Node11&#45;&gt;Node2</title>
<g id="a_edge15_Node000011_Node000002"><a xlink:title=" ">
<path fill="none" stroke="#63b8ff" d="M486.82,-86.38C478.71,-86.38 470.38,-86.38 462.67,-86.38"/>
<polygon fill="#63b8ff" stroke="#63b8ff" points="486.54,-89.88 496.54,-86.38 486.54,-82.88 486.54,-89.88"/>
</a>
</g>
</g>
<!-- Node11&#45;&gt;Node11 -->
<g id="edge16_Node000011_Node000011" class="edge">
<title>Node11&#45;&gt;Node11</title>
<g id="a_edge16_Node000011_Node000011"><a xlink:title=" ">
<path fill="none" stroke="#63b8ff" d="M550.41,-108.56C547.86,-112.23 541.85,-114.75 532.38,-114.75 514.54,-114.75 508.97,-105.81 515.66,-97.15"/>
<polygon fill="#63b8ff" stroke="#63b8ff" points="553.89,-108.18 549.27,-98.65 546.94,-108.99 553.89,-108.18"/>
</a>
</g>
</g>
</g>
</svg>
