<?xml version="1.0" encoding="UTF-8" standalone="no"?>
<!DOCTYPE svg PUBLIC "-//W3C//DTD SVG 1.1//EN"
 "http://www.w3.org/Graphics/SVG/1.1/DTD/svg11.dtd">
<!-- Generated by graphviz version 12.2.1 (0)
 -->
<!-- Title: w2c__f277 Pages: 1 -->
<svg width="387pt" height="99pt"
 viewBox="0.00 0.00 387.00 99.44" xmlns="http://www.w3.org/2000/svg" xmlns:xlink="http://www.w3.org/1999/xlink">
<g id="graph0" class="graph" transform="scale(1 1) rotate(0) translate(4 95.44)">
<title>w2c__f277</title>
<!-- Node1 -->
<g id="Node000001" class="node">
<title>Node1</title>
<g id="a_Node000001"><a xlink:title=" ">
<polygon fill="#999999" stroke="#666666" points="67.75,-60.84 0,-60.84 0,-40.09 67.75,-40.09 67.75,-60.84"/>
<text text-anchor="middle" x="33.88" y="-47.34" font-family="Helvetica,sans-Serif" font-size="10.00">w2c__f277</text>
</a>
</g>
</g>
<!-- Node2 -->
<g id="Node000002" class="node">
<title>Node2</title>
<g id="a_Node000002"><a xlink:href="app_8c.html#ac7c3d97ad3659d9d7492f82b3a7a740d" target="_top" xlink:title=" ">
<polygon fill="white" stroke="#666666" points="171.5,-41.84 103.75,-41.84 103.75,-21.09 171.5,-21.09 171.5,-41.84"/>
<text text-anchor="middle" x="137.62" y="-28.34" font-family="Helvetica,sans-Serif" font-size="10.00">w2c__f218</text>
</a>
</g>
</g>
<!-- Node1&#45;&gt;Node2 -->
<g id="edge1_Node000001_Node000002" class="edge">
<title>Node1&#45;&gt;Node2</title>
<g id="a_edge1_Node000001_Node000002"><a xlink:title=" ">
<path fill="none" stroke="#63b8ff" d="M68.19,-44.25C75.91,-42.81 84.25,-41.25 92.36,-39.74"/>
<polygon fill="#63b8ff" stroke="#63b8ff" points="92.91,-43.19 102.09,-37.92 91.62,-36.31 92.91,-43.19"/>
</a>
</g>
</g>
<!-- Node4 -->
<g id="Node000004" class="node">
<title>Node4</title>
<g id="a_Node000004"><a xlink:href="app_8c.html#a674f6e81761467d0a8dc6d2a425eda9f" target="_top" xlink:title=" ">
<polygon fill="white" stroke="#666666" points="379,-88.84 311.25,-88.84 311.25,-68.09 379,-68.09 379,-88.84"/>
<text text-anchor="middle" x="345.12" y="-75.34" font-family="Helvetica,sans-Serif" font-size="10.00">w2c__f498</text>
</a>
</g>
</g>
<!-- Node1&#45;&gt;Node4 -->
<g id="edge7_Node000001_Node000004" class="edge">
<title>Node1&#45;&gt;Node4</title>
<g id="a_edge7_Node000001_Node000004"><a xlink:title=" ">
<path fill="none" stroke="#63b8ff" d="M61.98,-61.33C74.52,-65.99 89.71,-71.11 103.75,-74.47 178.13,-92.26 198.97,-93.98 275.25,-88.47 283.2,-87.9 291.62,-86.95 299.74,-85.87"/>
<polygon fill="#63b8ff" stroke="#63b8ff" points="300.05,-89.36 309.45,-84.49 299.06,-82.44 300.05,-89.36"/>
</a>
</g>
</g>
<!-- Node5 -->
<g id="Node000005" class="node">
<title>Node5</title>
<g id="a_Node000005"><a xlink:href="app_8c.html#a672569c91ebb1d5055d737b56ec296a7" target="_top" xlink:title=" ">
<polygon fill="white" stroke="#666666" points="379,-21.84 311.25,-21.84 311.25,-1.09 379,-1.09 379,-21.84"/>
<text text-anchor="middle" x="345.12" y="-8.34" font-family="Helvetica,sans-Serif" font-size="10.00">w2c__f585</text>
</a>
</g>
</g>
<!-- Node1&#45;&gt;Node5 -->
<g id="edge8_Node000001_Node000005" class="edge">
<title>Node1&#45;&gt;Node5</title>
<g id="a_edge8_Node000001_Node000005"><a xlink:title=" ">
<path fill="none" stroke="#63b8ff" d="M49.28,-39.72C62.62,-30.48 83.41,-17.81 103.75,-12.47 170.26,5 250.75,0.4 299.66,-5.11"/>
<polygon fill="#63b8ff" stroke="#63b8ff" points="298.94,-8.55 309.28,-6.26 299.77,-1.59 298.94,-8.55"/>
</a>
</g>
</g>
<!-- Node6 -->
<g id="Node000006" class="node">
<title>Node6</title>
<g id="a_Node000006"><a xlink:href="app_8c.html#ab07e4056f5c12e00d750c88d85ec77bb" target="_top" xlink:title=" ">
<polygon fill="white" stroke="#666666" points="275.25,-79.84 207.5,-79.84 207.5,-59.09 275.25,-59.09 275.25,-79.84"/>
<text text-anchor="middle" x="241.38" y="-66.34" font-family="Helvetica,sans-Serif" font-size="10.00">w2c__f415</text>
</a>
</g>
</g>
<!-- Node1&#45;&gt;Node6 -->
<g id="edge6_Node000001_Node000006" class="edge">
<title>Node1&#45;&gt;Node6</title>
<g id="a_edge6_Node000001_Node000006"><a xlink:title=" ">
<path fill="none" stroke="#63b8ff" d="M67.89,-53.52C102.54,-56.73 157.23,-61.78 195.71,-65.34"/>
<polygon fill="#63b8ff" stroke="#63b8ff" points="195.31,-68.82 205.59,-66.25 195.96,-61.85 195.31,-68.82"/>
</a>
</g>
</g>
<!-- Node3 -->
<g id="Node000003" class="node">
<title>Node3</title>
<g id="a_Node000003"><a xlink:href="app_8c.html#a268eeda7b1a075e4b680bac34cdfebdb" target="_top" xlink:title=" ">
<polygon fill="white" stroke="#666666" points="275.25,-40.84 207.5,-40.84 207.5,-20.09 275.25,-20.09 275.25,-40.84"/>
<text text-anchor="middle" x="241.38" y="-27.34" font-family="Helvetica,sans-Serif" font-size="10.00">w2c__f259</text>
</a>
</g>
</g>
<!-- Node2&#45;&gt;Node3 -->
<g id="edge2_Node000002_Node000003" class="edge">
<title>Node2&#45;&gt;Node3</title>
<g id="a_edge2_Node000002_Node000003"><a xlink:title=" ">
<path fill="none" stroke="#63b8ff" d="M171.94,-31.14C179.57,-31.07 187.81,-30.99 195.83,-30.91"/>
<polygon fill="#63b8ff" stroke="#63b8ff" points="195.85,-34.41 205.82,-30.81 195.78,-27.41 195.85,-34.41"/>
</a>
</g>
</g>
<!-- Node2&#45;&gt;Node6 -->
<g id="edge5_Node000002_Node000006" class="edge">
<title>Node2&#45;&gt;Node6</title>
<g id="a_edge5_Node000002_Node000006"><a xlink:title=" ">
<path fill="none" stroke="#63b8ff" d="M167.51,-42.26C177.82,-46.11 189.63,-50.52 200.69,-54.65"/>
<polygon fill="#63b8ff" stroke="#63b8ff" points="199.41,-57.91 210,-58.13 201.86,-51.35 199.41,-57.91"/>
</a>
</g>
</g>
<!-- Node3&#45;&gt;Node4 -->
<g id="edge3_Node000003_Node000004" class="edge">
<title>Node3&#45;&gt;Node4</title>
<g id="a_edge3_Node000003_Node000004"><a xlink:title=" ">
<path fill="none" stroke="#63b8ff" d="M265.21,-41.24C278.69,-47.6 296,-55.77 310.97,-62.83"/>
<polygon fill="#63b8ff" stroke="#63b8ff" points="309.46,-65.99 320,-67.09 312.45,-59.66 309.46,-65.99"/>
</a>
</g>
</g>
<!-- Node3&#45;&gt;Node5 -->
<g id="edge4_Node000003_Node000005" class="edge">
<title>Node3&#45;&gt;Node5</title>
<g id="a_edge4_Node000003_Node000005"><a xlink:title=" ">
<path fill="none" stroke="#63b8ff" d="M275.69,-24.25C283.41,-22.81 291.75,-21.25 299.86,-19.74"/>
<polygon fill="#63b8ff" stroke="#63b8ff" points="300.41,-23.19 309.59,-17.92 299.12,-16.31 300.41,-23.19"/>
</a>
</g>
</g>
</g>
</svg>
