<?xml version="1.0" encoding="UTF-8" standalone="no"?>
<!DOCTYPE svg PUBLIC "-//W3C//DTD SVG 1.1//EN"
 "http://www.w3.org/Graphics/SVG/1.1/DTD/svg11.dtd">
<!-- Generated by graphviz version 12.2.1 (0)
 -->
<!-- Title: wrap_w2c__f497 Pages: 1 -->
<svg width="313pt" height="125pt"
 viewBox="0.00 0.00 312.50 124.75" xmlns="http://www.w3.org/2000/svg" xmlns:xlink="http://www.w3.org/1999/xlink">
<g id="graph0" class="graph" transform="scale(1 1) rotate(0) translate(4 120.75)">
<title>wrap_w2c__f497</title>
<!-- Node1 -->
<g id="Node000001" class="node">
<title>Node1</title>
<g id="a_Node000001"><a xlink:title=" ">
<polygon fill="#999999" stroke="#666666" points="97,-59.75 0,-59.75 0,-39 97,-39 97,-59.75"/>
<text text-anchor="middle" x="48.5" y="-46.25" font-family="Helvetica,sans-Serif" font-size="10.00">wrap_w2c__f497</text>
</a>
</g>
</g>
<!-- Node2 -->
<g id="Node000002" class="node">
<title>Node2</title>
<g id="a_Node000002"><a xlink:href="app_8c.html#aaaca37441d682cadd3d34e6463aa7086" target="_top" xlink:title=" ">
<polygon fill="white" stroke="#666666" points="200.75,-59.75 133,-59.75 133,-39 200.75,-39 200.75,-59.75"/>
<text text-anchor="middle" x="166.88" y="-46.25" font-family="Helvetica,sans-Serif" font-size="10.00">w2c__f497</text>
</a>
</g>
</g>
<!-- Node1&#45;&gt;Node2 -->
<g id="edge1_Node000001_Node000002" class="edge">
<title>Node1&#45;&gt;Node2</title>
<g id="a_edge1_Node000001_Node000002"><a xlink:title=" ">
<path fill="none" stroke="#63b8ff" d="M97.17,-49.38C105.18,-49.38 113.47,-49.38 121.4,-49.38"/>
<polygon fill="#63b8ff" stroke="#63b8ff" points="121.17,-52.88 131.17,-49.38 121.17,-45.88 121.17,-52.88"/>
</a>
</g>
</g>
<!-- Node3 -->
<g id="Node000003" class="node">
<title>Node3</title>
<g id="a_Node000003"><a xlink:href="app_8c.html#a33ea5715ab3fce77e2919d07169a7b23" target="_top" xlink:title=" ">
<polygon fill="white" stroke="#666666" points="304.5,-116.75 236.75,-116.75 236.75,-96 304.5,-96 304.5,-116.75"/>
<text text-anchor="middle" x="270.62" y="-103.25" font-family="Helvetica,sans-Serif" font-size="10.00">w2c__f298</text>
</a>
</g>
</g>
<!-- Node2&#45;&gt;Node3 -->
<g id="edge2_Node000002_Node000003" class="edge">
<title>Node2&#45;&gt;Node3</title>
<g id="a_edge2_Node000002_Node000003"><a xlink:title=" ">
<path fill="none" stroke="#63b8ff" d="M187.01,-60.1C202.12,-68.56 223.45,-80.51 240.65,-90.15"/>
<polygon fill="#63b8ff" stroke="#63b8ff" points="238.47,-92.93 248.91,-94.77 241.89,-86.83 238.47,-92.93"/>
</a>
</g>
</g>
<!-- Node4 -->
<g id="Node000004" class="node">
<title>Node4</title>
<g id="a_Node000004"><a xlink:href="app_8c.html#a81183127548ff0133311929fe930b91d" target="_top" xlink:title=" ">
<polygon fill="white" stroke="#666666" points="304.5,-59.75 236.75,-59.75 236.75,-39 304.5,-39 304.5,-59.75"/>
<text text-anchor="middle" x="270.62" y="-46.25" font-family="Helvetica,sans-Serif" font-size="10.00">w2c__f488</text>
</a>
</g>
</g>
<!-- Node2&#45;&gt;Node4 -->
<g id="edge3_Node000002_Node000004" class="edge">
<title>Node2&#45;&gt;Node4</title>
<g id="a_edge3_Node000002_Node000004"><a xlink:title=" ">
<path fill="none" stroke="#63b8ff" d="M201.19,-49.38C208.82,-49.38 217.06,-49.38 225.08,-49.38"/>
<polygon fill="#63b8ff" stroke="#63b8ff" points="225.07,-52.88 235.07,-49.38 225.07,-45.88 225.07,-52.88"/>
</a>
</g>
</g>
<!-- Node5 -->
<g id="Node000005" class="node">
<title>Node5</title>
<g id="a_Node000005"><a xlink:href="app_8c.html#a26607d1f53b13d860a8138c163c36f48" target="_top" xlink:title=" ">
<polygon fill="white" stroke="#666666" points="304.5,-20.75 236.75,-20.75 236.75,0 304.5,0 304.5,-20.75"/>
<text text-anchor="middle" x="270.62" y="-7.25" font-family="Helvetica,sans-Serif" font-size="10.00">w2c__f524</text>
</a>
</g>
</g>
<!-- Node2&#45;&gt;Node5 -->
<g id="edge5_Node000002_Node000005" class="edge">
<title>Node2&#45;&gt;Node5</title>
<g id="a_edge5_Node000002_Node000005"><a xlink:title=" ">
<path fill="none" stroke="#63b8ff" d="M196.22,-38.51C206.91,-34.41 219.27,-29.67 230.76,-25.27"/>
<polygon fill="#63b8ff" stroke="#63b8ff" points="231.94,-28.57 240.02,-21.72 229.43,-22.03 231.94,-28.57"/>
</a>
</g>
</g>
<!-- Node4&#45;&gt;Node4 -->
<g id="edge4_Node000004_Node000004" class="edge">
<title>Node4&#45;&gt;Node4</title>
<g id="a_edge4_Node000004_Node000004"><a xlink:title=" ">
<path fill="none" stroke="#63b8ff" d="M253.91,-60.15C247.22,-68.81 252.79,-77.75 270.62,-77.75 280.1,-77.75 286.11,-75.23 288.66,-71.56"/>
<polygon fill="#63b8ff" stroke="#63b8ff" points="292.14,-71.18 287.52,-61.65 285.19,-71.99 292.14,-71.18"/>
</a>
</g>
</g>
</g>
</svg>
