<?xml version="1.0" encoding="UTF-8" standalone="no"?>
<!DOCTYPE svg PUBLIC "-//W3C//DTD SVG 1.1//EN"
 "http://www.w3.org/Graphics/SVG/1.1/DTD/svg11.dtd">
<!-- Generated by graphviz version 12.2.1 (0)
 -->
<!-- Title: wrap_w2c__f365 Pages: 1 -->
<svg width="845pt" height="454pt"
 viewBox="0.00 0.00 844.75 454.12" xmlns="http://www.w3.org/2000/svg" xmlns:xlink="http://www.w3.org/1999/xlink">
<g id="graph0" class="graph" transform="scale(1 1) rotate(0) translate(4 450.12)">
<title>wrap_w2c__f365</title>
<!-- Node1 -->
<g id="Node000001" class="node">
<title>Node1</title>
<g id="a_Node000001"><a xlink:title=" ">
<polygon fill="#999999" stroke="#666666" points="97,-79.75 0,-79.75 0,-59 97,-59 97,-79.75"/>
<text text-anchor="middle" x="48.5" y="-66.25" font-family="Helvetica,sans-Serif" font-size="10.00">wrap_w2c__f365</text>
</a>
</g>
</g>
<!-- Node2 -->
<g id="Node000002" class="node">
<title>Node2</title>
<g id="a_Node000002"><a xlink:href="app_8c.html#ab126aac8a4817b5c574e8992e8137aac" target="_top" xlink:title=" ">
<polygon fill="white" stroke="#666666" points="200.75,-79.75 133,-79.75 133,-59 200.75,-59 200.75,-79.75"/>
<text text-anchor="middle" x="166.88" y="-66.25" font-family="Helvetica,sans-Serif" font-size="10.00">w2c__f365</text>
</a>
</g>
</g>
<!-- Node1&#45;&gt;Node2 -->
<g id="edge1_Node000001_Node000002" class="edge">
<title>Node1&#45;&gt;Node2</title>
<g id="a_edge1_Node000001_Node000002"><a xlink:title=" ">
<path fill="none" stroke="#63b8ff" d="M97.17,-69.38C105.18,-69.38 113.47,-69.38 121.4,-69.38"/>
<polygon fill="#63b8ff" stroke="#63b8ff" points="121.17,-72.88 131.17,-69.38 121.17,-65.88 121.17,-72.88"/>
</a>
</g>
</g>
<!-- Node3 -->
<g id="Node000003" class="node">
<title>Node3</title>
<g id="a_Node000003"><a xlink:href="app_8c.html#ab437815594eb4e8c7676d529f946de25" target="_top" xlink:title=" ">
<polygon fill="white" stroke="#666666" points="306.38,-176.75 238.62,-176.75 238.62,-156 306.38,-156 306.38,-176.75"/>
<text text-anchor="middle" x="272.5" y="-163.25" font-family="Helvetica,sans-Serif" font-size="10.00">w2c__f328</text>
</a>
</g>
</g>
<!-- Node2&#45;&gt;Node3 -->
<g id="edge2_Node000002_Node000003" class="edge">
<title>Node2&#45;&gt;Node3</title>
<g id="a_edge2_Node000002_Node000003"><a xlink:title=" ">
<path fill="none" stroke="#63b8ff" d="M179.36,-80.13C196.79,-96.44 230.15,-127.67 251.59,-147.74"/>
<polygon fill="#63b8ff" stroke="#63b8ff" points="249.17,-150.26 258.86,-154.54 253.95,-145.15 249.17,-150.26"/>
</a>
</g>
</g>
<!-- Node31 -->
<g id="Node000031" class="node">
<title>Node31</title>
<g id="a_Node000031"><a xlink:href="app_8c.html#ad63b6498cfe22ce747f349eeb23b508f" target="_top" xlink:title=" ">
<polygon fill="white" stroke="#666666" points="308.25,-40.75 236.75,-40.75 236.75,-20 308.25,-20 308.25,-40.75"/>
<text text-anchor="middle" x="272.5" y="-27.25" font-family="Helvetica,sans-Serif" font-size="10.00">wasm_fabs</text>
</a>
</g>
</g>
<!-- Node2&#45;&gt;Node31 -->
<g id="edge47_Node000002_Node000031" class="edge">
<title>Node2&#45;&gt;Node31</title>
<g id="a_edge47_Node000002_Node000031"><a xlink:title=" ">
<path fill="none" stroke="#63b8ff" d="M196.74,-58.51C207.74,-54.37 220.48,-49.58 232.28,-45.13"/>
<polygon fill="#63b8ff" stroke="#63b8ff" points="233.25,-48.51 241.37,-41.71 230.78,-41.96 233.25,-48.51"/>
</a>
</g>
</g>
<!-- Node32 -->
<g id="Node000032" class="node">
<title>Node32</title>
<g id="a_Node000032"><a xlink:href="app_8c.html#a22805979cc49b429d0fb4b7435774648" target="_top" xlink:title=" ">
<polygon fill="white" stroke="#666666" points="307.12,-79.75 237.88,-79.75 237.88,-59 307.12,-59 307.12,-79.75"/>
<text text-anchor="middle" x="272.5" y="-66.25" font-family="Helvetica,sans-Serif" font-size="10.00">wasm_sqrt</text>
</a>
</g>
</g>
<!-- Node2&#45;&gt;Node32 -->
<g id="edge48_Node000002_Node000032" class="edge">
<title>Node2&#45;&gt;Node32</title>
<g id="a_edge48_Node000002_Node000032"><a xlink:title=" ">
<path fill="none" stroke="#63b8ff" d="M201.23,-69.38C209.21,-69.38 217.85,-69.38 226.26,-69.38"/>
<polygon fill="#63b8ff" stroke="#63b8ff" points="225.98,-72.88 235.98,-69.38 225.98,-65.88 225.98,-72.88"/>
</a>
</g>
</g>
<!-- Node4 -->
<g id="Node000004" class="node">
<title>Node4</title>
<g id="a_Node000004"><a xlink:href="app_8c.html#aa10b6a43c30b8d06deaba6072073d628" target="_top" xlink:title=" ">
<polygon fill="white" stroke="#666666" points="416.88,-254.75 346.88,-254.75 346.88,-234 416.88,-234 416.88,-254.75"/>
<text text-anchor="middle" x="381.88" y="-241.25" font-family="Helvetica,sans-Serif" font-size="10.00">w2c_0_116</text>
</a>
</g>
</g>
<!-- Node3&#45;&gt;Node4 -->
<g id="edge3_Node000003_Node000004" class="edge">
<title>Node3&#45;&gt;Node4</title>
<g id="a_edge3_Node000003_Node000004"><a xlink:title=" ">
<path fill="none" stroke="#63b8ff" d="M284.99,-176.94C298.57,-189.14 322.13,-209.46 344.25,-224.38 346.05,-225.59 347.93,-226.8 349.85,-227.98"/>
<polygon fill="#63b8ff" stroke="#63b8ff" points="347.84,-230.86 358.25,-232.85 351.36,-224.8 347.84,-230.86"/>
</a>
</g>
</g>
<!-- Node5 -->
<g id="Node000005" class="node">
<title>Node5</title>
<g id="a_Node000005"><a xlink:href="app_8c.html#ade7ef3afa13f61a8c1a8c2c13fe3dda7" target="_top" xlink:title=" ">
<polygon fill="white" stroke="#666666" points="413.88,-215.75 349.88,-215.75 349.88,-195 413.88,-195 413.88,-215.75"/>
<text text-anchor="middle" x="381.88" y="-202.25" font-family="Helvetica,sans-Serif" font-size="10.00">w2c_0_26</text>
</a>
</g>
</g>
<!-- Node3&#45;&gt;Node5 -->
<g id="edge4_Node000003_Node000005" class="edge">
<title>Node3&#45;&gt;Node5</title>
<g id="a_edge4_Node000003_Node000005"><a xlink:title=" ">
<path fill="none" stroke="#63b8ff" d="M303.41,-177.24C314.93,-181.42 328.28,-186.27 340.61,-190.75"/>
<polygon fill="#63b8ff" stroke="#63b8ff" points="339.11,-193.93 349.7,-194.05 341.5,-187.35 339.11,-193.93"/>
</a>
</g>
</g>
<!-- Node6 -->
<g id="Node000006" class="node">
<title>Node6</title>
<g id="a_Node000006"><a xlink:href="app_8c.html#a7289466e4668b04108e0e2f55c8b32f7" target="_top" xlink:title=" ">
<polygon fill="white" stroke="#666666" points="413.88,-176.75 349.88,-176.75 349.88,-156 413.88,-156 413.88,-176.75"/>
<text text-anchor="middle" x="381.88" y="-163.25" font-family="Helvetica,sans-Serif" font-size="10.00">w2c_0_88</text>
</a>
</g>
</g>
<!-- Node3&#45;&gt;Node6 -->
<g id="edge5_Node000003_Node000006" class="edge">
<title>Node3&#45;&gt;Node6</title>
<g id="a_edge5_Node000003_Node000006"><a xlink:title=" ">
<path fill="none" stroke="#63b8ff" d="M306.59,-166.38C316.53,-166.38 327.58,-166.38 338.05,-166.38"/>
<polygon fill="#63b8ff" stroke="#63b8ff" points="338.03,-169.88 348.03,-166.38 338.03,-162.88 338.03,-169.88"/>
</a>
</g>
</g>
<!-- Node7 -->
<g id="Node000007" class="node">
<title>Node7</title>
<g id="a_Node000007"><a xlink:href="app_8c.html#ae42480847be1e319c571d8bc8695d191" target="_top" xlink:title=" ">
<polygon fill="white" stroke="#666666" points="415.75,-351.75 348,-351.75 348,-331 415.75,-331 415.75,-351.75"/>
<text text-anchor="middle" x="381.88" y="-338.25" font-family="Helvetica,sans-Serif" font-size="10.00">w2c__f223</text>
</a>
</g>
</g>
<!-- Node3&#45;&gt;Node7 -->
<g id="edge6_Node000003_Node000007" class="edge">
<title>Node3&#45;&gt;Node7</title>
<g id="a_edge6_Node000003_Node000007"><a xlink:title=" ">
<path fill="none" stroke="#63b8ff" d="M277.9,-177.17C287.85,-200.96 313.61,-259.17 344.25,-302.38 349.35,-309.56 355.7,-316.78 361.67,-323.02"/>
<polygon fill="#63b8ff" stroke="#63b8ff" points="358.83,-325.12 368.36,-329.75 363.79,-320.19 358.83,-325.12"/>
</a>
</g>
</g>
<!-- Node17 -->
<g id="Node000017" class="node">
<title>Node17</title>
<g id="a_Node000017"><a xlink:href="app_8c.html#a5afd0bdcabe1312572f585b64e00c911" target="_top" xlink:title=" ">
<polygon fill="white" stroke="#666666" points="415.75,-98.75 348,-98.75 348,-78 415.75,-78 415.75,-98.75"/>
<text text-anchor="middle" x="381.88" y="-85.25" font-family="Helvetica,sans-Serif" font-size="10.00">w2c__f256</text>
</a>
</g>
</g>
<!-- Node3&#45;&gt;Node17 -->
<g id="edge21_Node000003_Node000017" class="edge">
<title>Node3&#45;&gt;Node17</title>
<g id="a_edge21_Node000003_Node000017"><a xlink:title=" ">
<path fill="none" stroke="#63b8ff" d="M284.99,-155.81C298.57,-143.61 322.13,-123.29 344.25,-108.38 346.05,-107.16 347.93,-105.95 349.85,-104.77"/>
<polygon fill="#63b8ff" stroke="#63b8ff" points="351.36,-107.95 358.25,-99.9 347.84,-101.89 351.36,-107.95"/>
</a>
</g>
</g>
<!-- Node25 -->
<g id="Node000025" class="node">
<title>Node25</title>
<g id="a_Node000025"><a xlink:href="app_8c.html#a9faf27b3cd82c8485f63b0a67bc1865f" target="_top" xlink:title=" ">
<polygon fill="white" stroke="#666666" points="415.75,-137.75 348,-137.75 348,-117 415.75,-117 415.75,-137.75"/>
<text text-anchor="middle" x="381.88" y="-124.25" font-family="Helvetica,sans-Serif" font-size="10.00">w2c__f344</text>
</a>
</g>
</g>
<!-- Node3&#45;&gt;Node25 -->
<g id="edge29_Node000003_Node000025" class="edge">
<title>Node3&#45;&gt;Node25</title>
<g id="a_edge29_Node000003_Node000025"><a xlink:title=" ">
<path fill="none" stroke="#63b8ff" d="M303.41,-155.51C314.93,-151.33 328.28,-146.48 340.61,-142"/>
<polygon fill="#63b8ff" stroke="#63b8ff" points="341.5,-145.4 349.7,-138.7 339.11,-138.82 341.5,-145.4"/>
</a>
</g>
</g>
<!-- Node26 -->
<g id="Node000026" class="node">
<title>Node26</title>
<g id="a_Node000026"><a xlink:href="app_8c.html#aaf013b2b29372f4a479047d0c464d3ba" target="_top" xlink:title=" ">
<polygon fill="white" stroke="#666666" points="415.75,-293.75 348,-293.75 348,-273 415.75,-273 415.75,-293.75"/>
<text text-anchor="middle" x="381.88" y="-280.25" font-family="Helvetica,sans-Serif" font-size="10.00">w2c__f401</text>
</a>
</g>
</g>
<!-- Node3&#45;&gt;Node26 -->
<g id="edge36_Node000003_Node000026" class="edge">
<title>Node3&#45;&gt;Node26</title>
<g id="a_edge36_Node000003_Node000026"><a xlink:title=" ">
<path fill="none" stroke="#63b8ff" d="M279.25,-177.18C289.93,-196.47 314.48,-237.25 344.25,-263.38 345.48,-264.45 346.77,-265.49 348.11,-266.49"/>
<polygon fill="#63b8ff" stroke="#63b8ff" points="345.84,-269.19 356.12,-271.73 349.67,-263.33 345.84,-269.19"/>
</a>
</g>
</g>
<!-- Node29 -->
<g id="Node000029" class="node">
<title>Node29</title>
<g id="a_Node000029"><a xlink:href="app_8c.html#abe22e959f965cb0fbcf5b83be18fbe1e" target="_top" xlink:title=" ">
<polygon fill="white" stroke="#666666" points="419.5,-59.75 344.25,-59.75 344.25,-39 419.5,-39 419.5,-59.75"/>
<text text-anchor="middle" x="381.88" y="-46.25" font-family="Helvetica,sans-Serif" font-size="10.00">wasm_quiet</text>
</a>
</g>
</g>
<!-- Node3&#45;&gt;Node29 -->
<g id="edge45_Node000003_Node000029" class="edge">
<title>Node3&#45;&gt;Node29</title>
<g id="a_edge45_Node000003_Node000029"><a xlink:title=" ">
<path fill="none" stroke="#63b8ff" d="M279.25,-155.57C289.93,-136.28 314.48,-95.5 344.25,-69.38 345.48,-68.3 346.77,-67.26 348.11,-66.26"/>
<polygon fill="#63b8ff" stroke="#63b8ff" points="349.67,-69.42 356.12,-61.02 345.84,-63.56 349.67,-69.42"/>
</a>
</g>
</g>
<!-- Node8 -->
<g id="Node000008" class="node">
<title>Node8</title>
<g id="a_Node000008"><a xlink:href="app_8c.html#a1a8a1d528c65d63a630e19c3a4bdd098" target="_top" xlink:title=" ">
<polygon fill="white" stroke="#666666" points="524.38,-371.75 456.62,-371.75 456.62,-351 524.38,-351 524.38,-371.75"/>
<text text-anchor="middle" x="490.5" y="-358.25" font-family="Helvetica,sans-Serif" font-size="10.00">w2c__f557</text>
</a>
</g>
</g>
<!-- Node7&#45;&gt;Node8 -->
<g id="edge7_Node000007_Node000008" class="edge">
<title>Node7&#45;&gt;Node8</title>
<g id="a_edge7_Node000007_Node000008"><a xlink:title=" ">
<path fill="none" stroke="#63b8ff" d="M416.03,-347.59C425.25,-349.32 435.43,-351.23 445.18,-353.06"/>
<polygon fill="#63b8ff" stroke="#63b8ff" points="444.41,-356.48 454.88,-354.88 445.7,-349.6 444.41,-356.48"/>
</a>
</g>
</g>
<!-- Node9 -->
<g id="Node000009" class="node">
<title>Node9</title>
<g id="a_Node000009"><a xlink:href="app_8c.html#a0f7003812eaf983535ff7979fc047a21" target="_top" xlink:title=" ">
<polygon fill="white" stroke="#666666" points="629.25,-351.75 561.5,-351.75 561.5,-331 629.25,-331 629.25,-351.75"/>
<text text-anchor="middle" x="595.38" y="-338.25" font-family="Helvetica,sans-Serif" font-size="10.00">w2c__f353</text>
</a>
</g>
</g>
<!-- Node8&#45;&gt;Node9 -->
<g id="edge8_Node000008_Node000009" class="edge">
<title>Node8&#45;&gt;Node9</title>
<g id="a_edge8_Node000008_Node000009"><a xlink:title=" ">
<path fill="none" stroke="#63b8ff" d="M524.62,-354.94C532.78,-353.35 541.66,-351.62 550.26,-349.95"/>
<polygon fill="#63b8ff" stroke="#63b8ff" points="550.69,-353.43 559.83,-348.09 549.35,-346.56 550.69,-353.43"/>
</a>
</g>
</g>
<!-- Node14 -->
<g id="Node000014" class="node">
<title>Node14</title>
<g id="a_Node000014"><a xlink:href="app_8c.html#ac9cc84763a9c1933e50eedd7a06c17e2" target="_top" xlink:title=" ">
<polygon fill="white" stroke="#666666" points="629.25,-390.75 561.5,-390.75 561.5,-370 629.25,-370 629.25,-390.75"/>
<text text-anchor="middle" x="595.38" y="-377.25" font-family="Helvetica,sans-Serif" font-size="10.00">w2c__f480</text>
</a>
</g>
</g>
<!-- Node8&#45;&gt;Node14 -->
<g id="edge14_Node000008_Node000014" class="edge">
<title>Node8&#45;&gt;Node14</title>
<g id="a_edge14_Node000008_Node000014"><a xlink:title=" ">
<path fill="none" stroke="#63b8ff" d="M524.62,-367.49C532.78,-369 541.66,-370.64 550.26,-372.23"/>
<polygon fill="#63b8ff" stroke="#63b8ff" points="549.36,-375.62 559.83,-374 550.63,-368.74 549.36,-375.62"/>
</a>
</g>
</g>
<!-- Node10 -->
<g id="Node000010" class="node">
<title>Node10</title>
<g id="a_Node000010"><a xlink:href="app_8c.html#aaca5d5bcf49f2ca74019cf097750b9f3" target="_top" xlink:title=" ">
<polygon fill="white" stroke="#666666" points="733,-312.75 665.25,-312.75 665.25,-292 733,-292 733,-312.75"/>
<text text-anchor="middle" x="699.12" y="-299.25" font-family="Helvetica,sans-Serif" font-size="10.00">w2c__f258</text>
</a>
</g>
</g>
<!-- Node9&#45;&gt;Node10 -->
<g id="edge9_Node000009_Node000010" class="edge">
<title>Node9&#45;&gt;Node10</title>
<g id="a_edge9_Node000009_Node000010"><a xlink:title=" ">
<path fill="none" stroke="#63b8ff" d="M624.72,-330.51C635.41,-326.41 647.77,-321.67 659.26,-317.27"/>
<polygon fill="#63b8ff" stroke="#63b8ff" points="660.44,-320.57 668.52,-313.72 657.93,-314.03 660.44,-320.57"/>
</a>
</g>
</g>
<!-- Node13 -->
<g id="Node000013" class="node">
<title>Node13</title>
<g id="a_Node000013"><a xlink:href="app_8c.html#a4634342addbde677893ffcb45cf639dd" target="_top" xlink:title=" ">
<polygon fill="white" stroke="#666666" points="733,-351.75 665.25,-351.75 665.25,-331 733,-331 733,-351.75"/>
<text text-anchor="middle" x="699.12" y="-338.25" font-family="Helvetica,sans-Serif" font-size="10.00">w2c__f302</text>
</a>
</g>
</g>
<!-- Node9&#45;&gt;Node13 -->
<g id="edge12_Node000009_Node000013" class="edge">
<title>Node9&#45;&gt;Node13</title>
<g id="a_edge12_Node000009_Node000013"><a xlink:title=" ">
<path fill="none" stroke="#63b8ff" d="M629.69,-341.38C637.32,-341.38 645.56,-341.38 653.58,-341.38"/>
<polygon fill="#63b8ff" stroke="#63b8ff" points="653.57,-344.88 663.57,-341.38 653.57,-337.88 653.57,-344.88"/>
</a>
</g>
</g>
<!-- Node11 -->
<g id="Node000011" class="node">
<title>Node11</title>
<g id="a_Node000011"><a xlink:href="app_8c.html#a8d9f347f9a643f0ebfb53c4f54578ac4" target="_top" xlink:title=" ">
<polygon fill="white" stroke="#666666" points="836.75,-390.75 769,-390.75 769,-370 836.75,-370 836.75,-390.75"/>
<text text-anchor="middle" x="802.88" y="-377.25" font-family="Helvetica,sans-Serif" font-size="10.00">w2c__f304</text>
</a>
</g>
</g>
<!-- Node10&#45;&gt;Node11 -->
<g id="edge10_Node000010_Node000011" class="edge">
<title>Node10&#45;&gt;Node11</title>
<g id="a_edge10_Node000010_Node000011"><a xlink:title=" ">
<path fill="none" stroke="#63b8ff" d="M718.88,-313.1C723.58,-315.98 728.55,-319.18 733,-322.38 750.12,-334.68 768.32,-350.12 781.71,-361.97"/>
<polygon fill="#63b8ff" stroke="#63b8ff" points="779.22,-364.45 789.01,-368.52 783.9,-359.24 779.22,-364.45"/>
</a>
</g>
</g>
<!-- Node12 -->
<g id="Node000012" class="node">
<title>Node12</title>
<g id="a_Node000012"><a xlink:href="app_8c.html#a881f0b113e93dce3ff52d04b435850f6" target="_top" xlink:title=" ">
<polygon fill="white" stroke="#666666" points="836.75,-312.75 769,-312.75 769,-292 836.75,-292 836.75,-312.75"/>
<text text-anchor="middle" x="802.88" y="-299.25" font-family="Helvetica,sans-Serif" font-size="10.00">w2c__f491</text>
</a>
</g>
</g>
<!-- Node10&#45;&gt;Node12 -->
<g id="edge11_Node000010_Node000012" class="edge">
<title>Node10&#45;&gt;Node12</title>
<g id="a_edge11_Node000010_Node000012"><a xlink:title=" ">
<path fill="none" stroke="#63b8ff" d="M733.44,-302.38C741.07,-302.38 749.31,-302.38 757.33,-302.38"/>
<polygon fill="#63b8ff" stroke="#63b8ff" points="757.32,-305.88 767.32,-302.38 757.32,-298.88 757.32,-305.88"/>
</a>
</g>
</g>
<!-- Node13&#45;&gt;Node11 -->
<g id="edge13_Node000013_Node000011" class="edge">
<title>Node13&#45;&gt;Node11</title>
<g id="a_edge13_Node000013_Node000011"><a xlink:title=" ">
<path fill="none" stroke="#63b8ff" d="M728.47,-352.24C739.16,-356.34 751.52,-361.08 763.01,-365.48"/>
<polygon fill="#63b8ff" stroke="#63b8ff" points="761.68,-368.72 772.27,-369.03 764.19,-362.18 761.68,-368.72"/>
</a>
</g>
</g>
<!-- Node14&#45;&gt;Node10 -->
<g id="edge17_Node000014_Node000010" class="edge">
<title>Node14&#45;&gt;Node10</title>
<g id="a_edge17_Node000014_Node000010"><a xlink:title=" ">
<path fill="none" stroke="#63b8ff" d="M616.07,-369.56C620.56,-366.79 625.2,-363.65 629.25,-360.38 647.35,-345.76 647.15,-336.99 665.25,-322.38 666.52,-321.35 667.84,-320.34 669.2,-319.35"/>
<polygon fill="#63b8ff" stroke="#63b8ff" points="670.8,-322.49 677.17,-314.03 666.91,-316.67 670.8,-322.49"/>
</a>
</g>
</g>
<!-- Node14&#45;&gt;Node11 -->
<g id="edge19_Node000014_Node000011" class="edge">
<title>Node14&#45;&gt;Node11</title>
<g id="a_edge19_Node000014_Node000011"><a xlink:title=" ">
<path fill="none" stroke="#63b8ff" d="M604.78,-391.06C616.54,-405.07 639.4,-428.94 665.25,-438.38 693.54,-448.7 704.71,-448.7 733,-438.38 754.2,-430.64 773.4,-413.18 786.1,-399.43"/>
<polygon fill="#63b8ff" stroke="#63b8ff" points="788.49,-402.02 792.47,-392.2 783.23,-397.39 788.49,-402.02"/>
</a>
</g>
</g>
<!-- Node14&#45;&gt;Node13 -->
<g id="edge18_Node000014_Node000013" class="edge">
<title>Node14&#45;&gt;Node13</title>
<g id="a_edge18_Node000014_Node000013"><a xlink:title=" ">
<path fill="none" stroke="#63b8ff" d="M624.72,-369.51C635.41,-365.41 647.77,-360.67 659.26,-356.27"/>
<polygon fill="#63b8ff" stroke="#63b8ff" points="660.44,-359.57 668.52,-352.72 657.93,-353.03 660.44,-359.57"/>
</a>
</g>
</g>
<!-- Node15 -->
<g id="Node000015" class="node">
<title>Node15</title>
<g id="a_Node000015"><a xlink:href="app_8c.html#a0378208e0d5c0d1d6e7370f1c578fab3" target="_top" xlink:title=" ">
<polygon fill="white" stroke="#666666" points="733,-429.75 665.25,-429.75 665.25,-409 733,-409 733,-429.75"/>
<text text-anchor="middle" x="699.12" y="-416.25" font-family="Helvetica,sans-Serif" font-size="10.00">w2c__f216</text>
</a>
</g>
</g>
<!-- Node14&#45;&gt;Node15 -->
<g id="edge15_Node000014_Node000015" class="edge">
<title>Node14&#45;&gt;Node15</title>
<g id="a_edge15_Node000014_Node000015"><a xlink:title=" ">
<path fill="none" stroke="#63b8ff" d="M624.72,-391.24C635.41,-395.34 647.77,-400.08 659.26,-404.48"/>
<polygon fill="#63b8ff" stroke="#63b8ff" points="657.93,-407.72 668.52,-408.03 660.44,-401.18 657.93,-407.72"/>
</a>
</g>
</g>
<!-- Node16 -->
<g id="Node000016" class="node">
<title>Node16</title>
<g id="a_Node000016"><a xlink:href="app_8c.html#a674f6e81761467d0a8dc6d2a425eda9f" target="_top" xlink:title=" ">
<polygon fill="white" stroke="#666666" points="733,-390.75 665.25,-390.75 665.25,-370 733,-370 733,-390.75"/>
<text text-anchor="middle" x="699.12" y="-377.25" font-family="Helvetica,sans-Serif" font-size="10.00">w2c__f498</text>
</a>
</g>
</g>
<!-- Node14&#45;&gt;Node16 -->
<g id="edge20_Node000014_Node000016" class="edge">
<title>Node14&#45;&gt;Node16</title>
<g id="a_edge20_Node000014_Node000016"><a xlink:title=" ">
<path fill="none" stroke="#63b8ff" d="M629.69,-380.38C637.32,-380.38 645.56,-380.38 653.58,-380.38"/>
<polygon fill="#63b8ff" stroke="#63b8ff" points="653.57,-383.88 663.57,-380.38 653.57,-376.88 653.57,-383.88"/>
</a>
</g>
</g>
<!-- Node15&#45;&gt;Node11 -->
<g id="edge16_Node000015_Node000011" class="edge">
<title>Node15&#45;&gt;Node11</title>
<g id="a_edge16_Node000015_Node000011"><a xlink:title=" ">
<path fill="none" stroke="#63b8ff" d="M728.47,-408.51C739.16,-404.41 751.52,-399.67 763.01,-395.27"/>
<polygon fill="#63b8ff" stroke="#63b8ff" points="764.19,-398.57 772.27,-391.72 761.68,-392.03 764.19,-398.57"/>
</a>
</g>
</g>
<!-- Node18 -->
<g id="Node000018" class="node">
<title>Node18</title>
<g id="a_Node000018"><a xlink:href="app_8c.html#add88601cb03b410d0c4bc8f456c3ae55" target="_top" xlink:title=" ">
<polygon fill="white" stroke="#666666" points="525.5,-59.75 455.5,-59.75 455.5,-39 525.5,-39 525.5,-59.75"/>
<text text-anchor="middle" x="490.5" y="-46.25" font-family="Helvetica,sans-Serif" font-size="10.00">w2c_0_104</text>
</a>
</g>
</g>
<!-- Node17&#45;&gt;Node18 -->
<g id="edge22_Node000017_Node000018" class="edge">
<title>Node17&#45;&gt;Node18</title>
<g id="a_edge22_Node000017_Node000018"><a xlink:title=" ">
<path fill="none" stroke="#63b8ff" d="M412.58,-77.51C423.9,-73.37 437,-68.58 449.15,-64.13"/>
<polygon fill="#63b8ff" stroke="#63b8ff" points="450.35,-67.42 458.54,-60.7 447.94,-60.85 450.35,-67.42"/>
</a>
</g>
</g>
<!-- Node19 -->
<g id="Node000019" class="node">
<title>Node19</title>
<g id="a_Node000019"><a xlink:href="app_8c.html#ae68178bc105b2d45ebe022d5f9bc03f7" target="_top" xlink:title=" ">
<polygon fill="white" stroke="#666666" points="525.5,-254.75 455.5,-254.75 455.5,-234 525.5,-234 525.5,-254.75"/>
<text text-anchor="middle" x="490.5" y="-241.25" font-family="Helvetica,sans-Serif" font-size="10.00">w2c_0_159</text>
</a>
</g>
</g>
<!-- Node17&#45;&gt;Node19 -->
<g id="edge23_Node000017_Node000019" class="edge">
<title>Node17&#45;&gt;Node19</title>
<g id="a_edge23_Node000017_Node000019"><a xlink:title=" ">
<path fill="none" stroke="#63b8ff" d="M408.82,-99.2C412.81,-101.74 416.56,-104.79 419.5,-108.38 453.69,-150.15 421.98,-182.06 455.5,-224.38 456.03,-225.04 456.58,-225.69 457.16,-226.32"/>
<polygon fill="#63b8ff" stroke="#63b8ff" points="454.69,-228.81 464.59,-232.56 459.19,-223.45 454.69,-228.81"/>
</a>
</g>
</g>
<!-- Node20 -->
<g id="Node000020" class="node">
<title>Node20</title>
<g id="a_Node000020"><a xlink:href="app_8c.html#af3b7c5a4a8f14b9383b243d8c06b1301" target="_top" xlink:title=" ">
<polygon fill="white" stroke="#666666" points="525.5,-215.75 455.5,-215.75 455.5,-195 525.5,-195 525.5,-215.75"/>
<text text-anchor="middle" x="490.5" y="-202.25" font-family="Helvetica,sans-Serif" font-size="10.00">w2c_0_172</text>
</a>
</g>
</g>
<!-- Node17&#45;&gt;Node20 -->
<g id="edge24_Node000017_Node000020" class="edge">
<title>Node17&#45;&gt;Node20</title>
<g id="a_edge24_Node000017_Node000020"><a xlink:title=" ">
<path fill="none" stroke="#63b8ff" d="M407.66,-99.08C411.96,-101.69 416.13,-104.78 419.5,-108.38 445.37,-135.91 430.08,-157.43 455.5,-185.38 456.21,-186.15 456.95,-186.91 457.72,-187.64"/>
<polygon fill="#63b8ff" stroke="#63b8ff" points="455.59,-190.41 465.65,-193.74 459.86,-184.86 455.59,-190.41"/>
</a>
</g>
</g>
<!-- Node21 -->
<g id="Node000021" class="node">
<title>Node21</title>
<g id="a_Node000021"><a xlink:href="app_8c.html#aa018dbf3bc5814e93cedb41f14e2b4d9" target="_top" xlink:title=" ">
<polygon fill="white" stroke="#666666" points="522.5,-176.75 458.5,-176.75 458.5,-156 522.5,-156 522.5,-176.75"/>
<text text-anchor="middle" x="490.5" y="-163.25" font-family="Helvetica,sans-Serif" font-size="10.00">w2c_0_19</text>
</a>
</g>
</g>
<!-- Node17&#45;&gt;Node21 -->
<g id="edge25_Node000017_Node000021" class="edge">
<title>Node17&#45;&gt;Node21</title>
<g id="a_edge25_Node000017_Node000021"><a xlink:title=" ">
<path fill="none" stroke="#63b8ff" d="M405.26,-99.15C410.14,-101.89 415.14,-105.02 419.5,-108.38 437.93,-122.57 437.29,-131.89 455.5,-146.38 456.81,-147.41 458.17,-148.44 459.57,-149.44"/>
<polygon fill="#63b8ff" stroke="#63b8ff" points="457.55,-152.29 467.84,-154.81 461.36,-146.43 457.55,-152.29"/>
</a>
</g>
</g>
<!-- Node22 -->
<g id="Node000022" class="node">
<title>Node22</title>
<g id="a_Node000022"><a xlink:href="app_8c.html#aec29ea126421b36c7ea313062dea6ec6" target="_top" xlink:title=" ">
<polygon fill="white" stroke="#666666" points="522.5,-137.75 458.5,-137.75 458.5,-117 522.5,-117 522.5,-137.75"/>
<text text-anchor="middle" x="490.5" y="-124.25" font-family="Helvetica,sans-Serif" font-size="10.00">w2c_0_35</text>
</a>
</g>
</g>
<!-- Node17&#45;&gt;Node22 -->
<g id="edge26_Node000017_Node000022" class="edge">
<title>Node17&#45;&gt;Node22</title>
<g id="a_edge26_Node000017_Node000022"><a xlink:title=" ">
<path fill="none" stroke="#63b8ff" d="M412.58,-99.24C423.9,-103.38 437,-108.17 449.15,-112.62"/>
<polygon fill="#63b8ff" stroke="#63b8ff" points="447.94,-115.9 458.54,-116.05 450.35,-109.33 447.94,-115.9"/>
</a>
</g>
</g>
<!-- Node23 -->
<g id="Node000023" class="node">
<title>Node23</title>
<g id="a_Node000023"><a xlink:href="app_8c.html#a19209c6f5685e2e28a1b671ece901600" target="_top" xlink:title=" ">
<polygon fill="white" stroke="#666666" points="524.38,-98.75 456.62,-98.75 456.62,-78 524.38,-78 524.38,-98.75"/>
<text text-anchor="middle" x="490.5" y="-85.25" font-family="Helvetica,sans-Serif" font-size="10.00">w2c__f335</text>
</a>
</g>
</g>
<!-- Node17&#45;&gt;Node23 -->
<g id="edge27_Node000017_Node000023" class="edge">
<title>Node17&#45;&gt;Node23</title>
<g id="a_edge27_Node000017_Node000023"><a xlink:title=" ">
<path fill="none" stroke="#63b8ff" d="M416.03,-88.38C425.15,-88.38 435.21,-88.38 444.87,-88.38"/>
<polygon fill="#63b8ff" stroke="#63b8ff" points="444.85,-91.88 454.85,-88.38 444.85,-84.88 444.85,-91.88"/>
</a>
</g>
</g>
<!-- Node24 -->
<g id="Node000024" class="node">
<title>Node24</title>
<g id="a_Node000024"><a xlink:href="app_8c.html#a84a707cc8c74624a4f1db785844c7211" target="_top" xlink:title=" ">
<polygon fill="white" stroke="#666666" points="627.38,-98.75 563.38,-98.75 563.38,-78 627.38,-78 627.38,-98.75"/>
<text text-anchor="middle" x="595.38" y="-85.25" font-family="Helvetica,sans-Serif" font-size="10.00">w2c_0_92</text>
</a>
</g>
</g>
<!-- Node23&#45;&gt;Node24 -->
<g id="edge28_Node000023_Node000024" class="edge">
<title>Node23&#45;&gt;Node24</title>
<g id="a_edge28_Node000023_Node000024"><a xlink:title=" ">
<path fill="none" stroke="#63b8ff" d="M524.62,-88.38C533.29,-88.38 542.76,-88.38 551.85,-88.38"/>
<polygon fill="#63b8ff" stroke="#63b8ff" points="551.56,-91.88 561.56,-88.38 551.56,-84.88 551.56,-91.88"/>
</a>
</g>
</g>
<!-- Node25&#45;&gt;Node18 -->
<g id="edge30_Node000025_Node000018" class="edge">
<title>Node25&#45;&gt;Node18</title>
<g id="a_edge30_Node000025_Node000018"><a xlink:title=" ">
<path fill="none" stroke="#63b8ff" d="M405.26,-116.6C410.14,-113.86 415.14,-110.73 419.5,-107.38 437.93,-93.18 437.29,-83.86 455.5,-69.38 456.81,-68.34 458.17,-67.31 459.57,-66.31"/>
<polygon fill="#63b8ff" stroke="#63b8ff" points="461.36,-69.32 467.84,-60.94 457.55,-63.46 461.36,-69.32"/>
</a>
</g>
</g>
<!-- Node25&#45;&gt;Node19 -->
<g id="edge31_Node000025_Node000019" class="edge">
<title>Node25&#45;&gt;Node19</title>
<g id="a_edge31_Node000025_Node000019"><a xlink:title=" ">
<path fill="none" stroke="#63b8ff" d="M407.66,-138.08C411.96,-140.69 416.13,-143.78 419.5,-147.38 445.37,-174.91 430.08,-196.43 455.5,-224.38 456.21,-225.15 456.95,-225.91 457.72,-226.64"/>
<polygon fill="#63b8ff" stroke="#63b8ff" points="455.59,-229.41 465.65,-232.74 459.86,-223.86 455.59,-229.41"/>
</a>
</g>
</g>
<!-- Node25&#45;&gt;Node20 -->
<g id="edge32_Node000025_Node000020" class="edge">
<title>Node25&#45;&gt;Node20</title>
<g id="a_edge32_Node000025_Node000020"><a xlink:title=" ">
<path fill="none" stroke="#63b8ff" d="M405.26,-138.15C410.14,-140.89 415.14,-144.02 419.5,-147.38 437.93,-161.57 437.29,-170.89 455.5,-185.38 456.81,-186.41 458.17,-187.44 459.57,-188.44"/>
<polygon fill="#63b8ff" stroke="#63b8ff" points="457.55,-191.29 467.84,-193.81 461.36,-185.43 457.55,-191.29"/>
</a>
</g>
</g>
<!-- Node25&#45;&gt;Node21 -->
<g id="edge33_Node000025_Node000021" class="edge">
<title>Node25&#45;&gt;Node21</title>
<g id="a_edge33_Node000025_Node000021"><a xlink:title=" ">
<path fill="none" stroke="#63b8ff" d="M412.58,-138.24C423.9,-142.38 437,-147.17 449.15,-151.62"/>
<polygon fill="#63b8ff" stroke="#63b8ff" points="447.94,-154.9 458.54,-155.05 450.35,-148.33 447.94,-154.9"/>
</a>
</g>
</g>
<!-- Node25&#45;&gt;Node22 -->
<g id="edge34_Node000025_Node000022" class="edge">
<title>Node25&#45;&gt;Node22</title>
<g id="a_edge34_Node000025_Node000022"><a xlink:title=" ">
<path fill="none" stroke="#63b8ff" d="M416.03,-127.38C425.8,-127.38 436.63,-127.38 446.91,-127.38"/>
<polygon fill="#63b8ff" stroke="#63b8ff" points="446.68,-130.88 456.68,-127.38 446.68,-123.88 446.68,-130.88"/>
</a>
</g>
</g>
<!-- Node25&#45;&gt;Node23 -->
<g id="edge35_Node000025_Node000023" class="edge">
<title>Node25&#45;&gt;Node23</title>
<g id="a_edge35_Node000025_Node000023"><a xlink:title=" ">
<path fill="none" stroke="#63b8ff" d="M412.58,-116.51C423.9,-112.37 437,-107.58 449.15,-103.13"/>
<polygon fill="#63b8ff" stroke="#63b8ff" points="450.35,-106.42 458.54,-99.7 447.94,-99.85 450.35,-106.42"/>
</a>
</g>
</g>
<!-- Node26&#45;&gt;Node18 -->
<g id="edge37_Node000026_Node000018" class="edge">
<title>Node26&#45;&gt;Node18</title>
<g id="a_edge37_Node000026_Node000018"><a xlink:title=" ">
<path fill="none" stroke="#63b8ff" d="M409.55,-272.59C413.36,-270.06 416.86,-267.01 419.5,-263.38 470.97,-192.37 405.17,-141.19 455.5,-69.38 455.89,-68.81 456.31,-68.27 456.74,-67.73"/>
<polygon fill="#63b8ff" stroke="#63b8ff" points="458.88,-70.52 463.94,-61.21 454.18,-65.33 458.88,-70.52"/>
</a>
</g>
</g>
<!-- Node26&#45;&gt;Node19 -->
<g id="edge39_Node000026_Node000019" class="edge">
<title>Node26&#45;&gt;Node19</title>
<g id="a_edge39_Node000026_Node000019"><a xlink:title=" ">
<path fill="none" stroke="#63b8ff" d="M412.58,-272.51C423.9,-268.37 437,-263.58 449.15,-259.13"/>
<polygon fill="#63b8ff" stroke="#63b8ff" points="450.35,-262.42 458.54,-255.7 447.94,-255.85 450.35,-262.42"/>
</a>
</g>
</g>
<!-- Node26&#45;&gt;Node20 -->
<g id="edge40_Node000026_Node000020" class="edge">
<title>Node26&#45;&gt;Node20</title>
<g id="a_edge40_Node000026_Node000020"><a xlink:title=" ">
<path fill="none" stroke="#63b8ff" d="M405.26,-272.6C410.14,-269.86 415.14,-266.73 419.5,-263.38 437.93,-249.18 437.29,-239.86 455.5,-225.38 456.81,-224.34 458.17,-223.31 459.57,-222.31"/>
<polygon fill="#63b8ff" stroke="#63b8ff" points="461.36,-225.32 467.84,-216.94 457.55,-219.46 461.36,-225.32"/>
</a>
</g>
</g>
<!-- Node26&#45;&gt;Node21 -->
<g id="edge42_Node000026_Node000021" class="edge">
<title>Node26&#45;&gt;Node21</title>
<g id="a_edge42_Node000026_Node000021"><a xlink:title=" ">
<path fill="none" stroke="#63b8ff" d="M407.66,-272.67C411.96,-270.06 416.13,-266.97 419.5,-263.38 445.37,-235.84 430.08,-214.32 455.5,-186.38 456.21,-185.6 456.95,-184.84 457.72,-184.11"/>
<polygon fill="#63b8ff" stroke="#63b8ff" points="459.86,-186.89 465.65,-178.01 455.59,-181.34 459.86,-186.89"/>
</a>
</g>
</g>
<!-- Node26&#45;&gt;Node22 -->
<g id="edge43_Node000026_Node000022" class="edge">
<title>Node26&#45;&gt;Node22</title>
<g id="a_edge43_Node000026_Node000022"><a xlink:title=" ">
<path fill="none" stroke="#63b8ff" d="M408.82,-272.55C412.81,-270.01 416.56,-266.96 419.5,-263.38 453.69,-221.6 421.98,-189.69 455.5,-147.38 456.03,-146.71 456.58,-146.06 457.16,-145.43"/>
<polygon fill="#63b8ff" stroke="#63b8ff" points="459.19,-148.3 464.59,-139.19 454.69,-142.94 459.19,-148.3"/>
</a>
</g>
</g>
<!-- Node26&#45;&gt;Node23 -->
<g id="edge44_Node000026_Node000023" class="edge">
<title>Node26&#45;&gt;Node23</title>
<g id="a_edge44_Node000026_Node000023"><a xlink:title=" ">
<path fill="none" stroke="#63b8ff" d="M409.04,-272.73C413,-270.16 416.7,-267.07 419.5,-263.38 462.28,-207.06 413.63,-165.37 455.5,-108.38 456,-107.69 456.53,-107.03 457.09,-106.38"/>
<polygon fill="#63b8ff" stroke="#63b8ff" points="459.14,-109.24 464.39,-100.05 454.55,-103.96 459.14,-109.24"/>
</a>
</g>
</g>
<!-- Node27 -->
<g id="Node000027" class="node">
<title>Node27</title>
<g id="a_Node000027"><a xlink:href="app_8c.html#a416a3f7003240b1a361323dbb3203bf8" target="_top" xlink:title=" ">
<polygon fill="white" stroke="#666666" points="525.5,-293.75 455.5,-293.75 455.5,-273 525.5,-273 525.5,-293.75"/>
<text text-anchor="middle" x="490.5" y="-280.25" font-family="Helvetica,sans-Serif" font-size="10.00">w2c_0_130</text>
</a>
</g>
</g>
<!-- Node26&#45;&gt;Node27 -->
<g id="edge38_Node000026_Node000027" class="edge">
<title>Node26&#45;&gt;Node27</title>
<g id="a_edge38_Node000026_Node000027"><a xlink:title=" ">
<path fill="none" stroke="#63b8ff" d="M416.03,-283.38C424.89,-283.38 434.63,-283.38 444.04,-283.38"/>
<polygon fill="#63b8ff" stroke="#63b8ff" points="443.75,-286.88 453.75,-283.38 443.75,-279.88 443.75,-286.88"/>
</a>
</g>
</g>
<!-- Node28 -->
<g id="Node000028" class="node">
<title>Node28</title>
<g id="a_Node000028"><a xlink:href="app_8c.html#a413a166631157266d5dbee4d8d8164da" target="_top" xlink:title=" ">
<polygon fill="white" stroke="#666666" points="525.5,-332.75 455.5,-332.75 455.5,-312 525.5,-312 525.5,-332.75"/>
<text text-anchor="middle" x="490.5" y="-319.25" font-family="Helvetica,sans-Serif" font-size="10.00">w2c_0_182</text>
</a>
</g>
</g>
<!-- Node26&#45;&gt;Node28 -->
<g id="edge41_Node000026_Node000028" class="edge">
<title>Node26&#45;&gt;Node28</title>
<g id="a_edge41_Node000026_Node000028"><a xlink:title=" ">
<path fill="none" stroke="#63b8ff" d="M412.58,-294.24C423.9,-298.38 437,-303.17 449.15,-307.62"/>
<polygon fill="#63b8ff" stroke="#63b8ff" points="447.94,-310.9 458.54,-311.05 450.35,-304.33 447.94,-310.9"/>
</a>
</g>
</g>
<!-- Node30 -->
<g id="Node000030" class="node">
<title>Node30</title>
<g id="a_Node000030"><a xlink:href="app_8c.html#ae10979e670e507d4373e8cadcb3169aa" target="_top" xlink:title=" ">
<polygon fill="white" stroke="#666666" points="522.5,-20.75 458.5,-20.75 458.5,0 522.5,0 522.5,-20.75"/>
<text text-anchor="middle" x="490.5" y="-7.25" font-family="Helvetica,sans-Serif" font-size="10.00">quiet_nan</text>
</a>
</g>
</g>
<!-- Node29&#45;&gt;Node30 -->
<g id="edge46_Node000029_Node000030" class="edge">
<title>Node29&#45;&gt;Node30</title>
<g id="a_edge46_Node000029_Node000030"><a xlink:title=" ">
<path fill="none" stroke="#63b8ff" d="M412.58,-38.51C423.9,-34.37 437,-29.58 449.15,-25.13"/>
<polygon fill="#63b8ff" stroke="#63b8ff" points="450.35,-28.42 458.54,-21.7 447.94,-21.85 450.35,-28.42"/>
</a>
</g>
</g>
<!-- Node32&#45;&gt;Node30 -->
<g id="edge49_Node000032_Node000030" class="edge">
<title>Node32&#45;&gt;Node30</title>
<g id="a_edge49_Node000032_Node000030"><a xlink:title=" ">
<path fill="none" stroke="#63b8ff" d="M292.23,-58.59C311.29,-47.68 338.79,-32.19 344.25,-30.38 377.74,-19.27 417.54,-14.32 447,-12.13"/>
<polygon fill="#63b8ff" stroke="#63b8ff" points="446.89,-15.64 456.64,-11.49 446.43,-8.66 446.89,-15.64"/>
</a>
</g>
</g>
</g>
</svg>
