<?xml version="1.0" encoding="UTF-8" standalone="no"?>
<!DOCTYPE svg PUBLIC "-//W3C//DTD SVG 1.1//EN"
 "http://www.w3.org/Graphics/SVG/1.1/DTD/svg11.dtd">
<!-- Generated by graphviz version 12.2.1 (0)
 -->
<!-- Title: w2c__f576 Pages: 1 -->
<svg width="562pt" height="300pt"
 viewBox="0.00 0.00 562.00 299.75" xmlns="http://www.w3.org/2000/svg" xmlns:xlink="http://www.w3.org/1999/xlink">
<g id="graph0" class="graph" transform="scale(1 1) rotate(0) translate(4 295.75)">
<title>w2c__f576</title>
<!-- Node1 -->
<g id="Node000001" class="node">
<title>Node1</title>
<g id="a_Node000001"><a xlink:title=" ">
<polygon fill="#999999" stroke="#666666" points="554,-155.75 486.25,-155.75 486.25,-135 554,-135 554,-155.75"/>
<text text-anchor="middle" x="520.12" y="-142.25" font-family="Helvetica,sans-Serif" font-size="10.00">w2c__f576</text>
</a>
</g>
</g>
<!-- Node2 -->
<g id="Node000002" class="node">
<title>Node2</title>
<g id="a_Node000002"><a xlink:href="app_8c.html#ac9a0c71cf63996e4bfc5bce6e39d8f40" target="_top" xlink:title=" ">
<polygon fill="white" stroke="#666666" points="435.62,-291.75 367.88,-291.75 367.88,-271 435.62,-271 435.62,-291.75"/>
<text text-anchor="middle" x="401.75" y="-278.25" font-family="Helvetica,sans-Serif" font-size="10.00">w2c__f219</text>
</a>
</g>
</g>
<!-- Node1&#45;&gt;Node2 -->
<g id="edge1_Node000001_Node000002" class="edge">
<title>Node1&#45;&gt;Node2</title>
<g id="a_edge1_Node000001_Node000002"><a xlink:title=" ">
<path fill="none" stroke="#63b8ff" d="M511.34,-166.62C500.99,-192.23 480.42,-235.09 450.25,-261.38 446.07,-265.02 441.12,-268.07 436.04,-270.6"/>
<polygon fill="#63b8ff" stroke="#63b8ff" points="514.49,-168.19 514.83,-157.6 507.96,-165.66 514.49,-168.19"/>
</a>
</g>
</g>
<!-- Node4 -->
<g id="Node000004" class="node">
<title>Node4</title>
<g id="a_Node000004"><a xlink:href="app_8c.html#a8eae5294a79b4c9c32816241eb7736d6" target="_top" xlink:title=" ">
<polygon fill="white" stroke="#666666" points="435.62,-252.75 367.88,-252.75 367.88,-232 435.62,-232 435.62,-252.75"/>
<text text-anchor="middle" x="401.75" y="-239.25" font-family="Helvetica,sans-Serif" font-size="10.00">w2c__f249</text>
</a>
</g>
</g>
<!-- Node1&#45;&gt;Node4 -->
<g id="edge3_Node000001_Node000004" class="edge">
<title>Node1&#45;&gt;Node4</title>
<g id="a_edge3_Node000001_Node000004"><a xlink:title=" ">
<path fill="none" stroke="#63b8ff" d="M505.28,-165.29C492.6,-182.32 472.46,-206.52 450.25,-222.38 445.3,-225.91 439.62,-228.98 433.96,-231.58"/>
<polygon fill="#63b8ff" stroke="#63b8ff" points="507.94,-167.59 510.96,-157.43 502.27,-163.48 507.94,-167.59"/>
</a>
</g>
</g>
<!-- Node6 -->
<g id="Node000006" class="node">
<title>Node6</title>
<g id="a_Node000006"><a xlink:href="app_8c.html#a9fffa1fcfa3daf80477a4b35c1657655" target="_top" xlink:title=" ">
<polygon fill="white" stroke="#666666" points="435.62,-213.75 367.88,-213.75 367.88,-193 435.62,-193 435.62,-213.75"/>
<text text-anchor="middle" x="401.75" y="-200.25" font-family="Helvetica,sans-Serif" font-size="10.00">w2c__f296</text>
</a>
</g>
</g>
<!-- Node1&#45;&gt;Node6 -->
<g id="edge5_Node000001_Node000006" class="edge">
<title>Node1&#45;&gt;Node6</title>
<g id="a_edge5_Node000001_Node000006"><a xlink:title=" ">
<path fill="none" stroke="#63b8ff" d="M490.98,-161.79C478.63,-168.75 463.88,-176.77 450.25,-183.38 443.65,-186.58 436.4,-189.78 429.6,-192.65"/>
<polygon fill="#63b8ff" stroke="#63b8ff" points="492.43,-164.98 499.38,-156.99 488.96,-158.91 492.43,-164.98"/>
</a>
</g>
</g>
<!-- Node8 -->
<g id="Node000008" class="node">
<title>Node8</title>
<g id="a_Node000008"><a xlink:href="app_8c.html#ad5fbd7f0fed2d1446a23e08afe41ca32" target="_top" xlink:title=" ">
<polygon fill="white" stroke="#666666" points="435.62,-174.75 367.88,-174.75 367.88,-154 435.62,-154 435.62,-174.75"/>
<text text-anchor="middle" x="401.75" y="-161.25" font-family="Helvetica,sans-Serif" font-size="10.00">w2c__f329</text>
</a>
</g>
</g>
<!-- Node1&#45;&gt;Node8 -->
<g id="edge7_Node000001_Node000008" class="edge">
<title>Node1&#45;&gt;Node8</title>
<g id="a_edge7_Node000001_Node000008"><a xlink:title=" ">
<path fill="none" stroke="#63b8ff" d="M474.8,-152.61C461.96,-154.71 448.16,-156.96 436.1,-158.93"/>
<polygon fill="#63b8ff" stroke="#63b8ff" points="474.98,-156.13 484.28,-151.06 473.85,-149.22 474.98,-156.13"/>
</a>
</g>
</g>
<!-- Node9 -->
<g id="Node000009" class="node">
<title>Node9</title>
<g id="a_Node000009"><a xlink:href="app_8c.html#a5677ffd129da8cd63b876545b8187d77" target="_top" xlink:title=" ">
<polygon fill="white" stroke="#666666" points="302.62,-156.75 234.88,-156.75 234.88,-136 302.62,-136 302.62,-156.75"/>
<text text-anchor="middle" x="268.75" y="-143.25" font-family="Helvetica,sans-Serif" font-size="10.00">w2c__f367</text>
</a>
</g>
</g>
<!-- Node1&#45;&gt;Node9 -->
<g id="edge12_Node000001_Node000009" class="edge">
<title>Node1&#45;&gt;Node9</title>
<g id="a_edge12_Node000001_Node000009"><a xlink:title=" ">
<path fill="none" stroke="#63b8ff" d="M474.54,-145.23C441.15,-145.16 394.34,-145.13 353.25,-145.38 336.72,-145.47 318.36,-145.68 303.07,-145.88"/>
<polygon fill="#63b8ff" stroke="#63b8ff" points="474.24,-148.73 484.25,-145.25 474.26,-141.73 474.24,-148.73"/>
</a>
</g>
</g>
<!-- Node13 -->
<g id="Node000013" class="node">
<title>Node13</title>
<g id="a_Node000013"><a xlink:href="app_8c.html#a87577be3dba25b5612760ac0a6772fca" target="_top" xlink:title=" ">
<polygon fill="white" stroke="#666666" points="435.62,-98.75 367.88,-98.75 367.88,-78 435.62,-78 435.62,-98.75"/>
<text text-anchor="middle" x="401.75" y="-85.25" font-family="Helvetica,sans-Serif" font-size="10.00">w2c__f487</text>
</a>
</g>
</g>
<!-- Node1&#45;&gt;Node13 -->
<g id="edge13_Node000001_Node000013" class="edge">
<title>Node1&#45;&gt;Node13</title>
<g id="a_edge13_Node000001_Node000013"><a xlink:title=" ">
<path fill="none" stroke="#63b8ff" d="M486.87,-129.58C467.12,-119.9 442.36,-107.78 424.83,-99.19"/>
<polygon fill="#63b8ff" stroke="#63b8ff" points="485.08,-132.6 495.6,-133.85 488.16,-126.31 485.08,-132.6"/>
</a>
</g>
</g>
<!-- Node15 -->
<g id="Node000015" class="node">
<title>Node15</title>
<g id="a_Node000015"><a xlink:href="app_8c.html#a7f976b05c0526d264a2a9b603200ceb7" target="_top" xlink:title=" ">
<polygon fill="white" stroke="#666666" points="435.62,-59.75 367.88,-59.75 367.88,-39 435.62,-39 435.62,-59.75"/>
<text text-anchor="middle" x="401.75" y="-46.25" font-family="Helvetica,sans-Serif" font-size="10.00">w2c__f506</text>
</a>
</g>
</g>
<!-- Node1&#45;&gt;Node15 -->
<g id="edge15_Node000001_Node000015" class="edge">
<title>Node1&#45;&gt;Node15</title>
<g id="a_edge15_Node000001_Node000015"><a xlink:title=" ">
<path fill="none" stroke="#63b8ff" d="M505.23,-125.73C492.51,-108.93 472.35,-85.04 450.25,-69.38 445.29,-65.86 439.61,-62.8 433.94,-60.2"/>
<polygon fill="#63b8ff" stroke="#63b8ff" points="502.18,-127.49 510.92,-133.47 507.82,-123.34 502.18,-127.49"/>
</a>
</g>
</g>
<!-- Node17 -->
<g id="Node000017" class="node">
<title>Node17</title>
<g id="a_Node000017"><a xlink:href="app_8c.html#a63fdb0a29425a8c6f17eafa953454b5b" target="_top" xlink:title=" ">
<polygon fill="white" stroke="#666666" points="450.25,-20.75 353.25,-20.75 353.25,0 450.25,0 450.25,-20.75"/>
<text text-anchor="middle" x="401.75" y="-7.25" font-family="Helvetica,sans-Serif" font-size="10.00">wrap_w2c__f576</text>
</a>
</g>
</g>
<!-- Node1&#45;&gt;Node17 -->
<g id="edge17_Node000001_Node000017" class="edge">
<title>Node1&#45;&gt;Node17</title>
<g id="a_edge17_Node000001_Node000017"><a xlink:title=" ">
<path fill="none" stroke="#63b8ff" d="M511.16,-123.97C500.71,-98.54 480.14,-56.32 450.25,-30.38 446.06,-26.74 441.11,-23.69 436.02,-21.16"/>
<polygon fill="#63b8ff" stroke="#63b8ff" points="507.89,-125.22 514.8,-133.25 514.4,-122.66 507.89,-125.22"/>
</a>
</g>
</g>
<!-- Node3 -->
<g id="Node000003" class="node">
<title>Node3</title>
<g id="a_Node000003"><a xlink:href="app_8c.html#abeef053fb026869343dd2ce67a494539" target="_top" xlink:title=" ">
<polygon fill="white" stroke="#666666" points="317.25,-291.75 220.25,-291.75 220.25,-271 317.25,-271 317.25,-291.75"/>
<text text-anchor="middle" x="268.75" y="-278.25" font-family="Helvetica,sans-Serif" font-size="10.00">wrap_w2c__f219</text>
</a>
</g>
</g>
<!-- Node2&#45;&gt;Node3 -->
<g id="edge2_Node000002_Node000003" class="edge">
<title>Node2&#45;&gt;Node3</title>
<g id="a_edge2_Node000002_Node000003"><a xlink:title=" ">
<path fill="none" stroke="#63b8ff" d="M356.2,-281.38C343.78,-281.38 330.25,-281.38 317.65,-281.38"/>
<polygon fill="#63b8ff" stroke="#63b8ff" points="356.18,-284.88 366.18,-281.38 356.18,-277.88 356.18,-284.88"/>
</a>
</g>
</g>
<!-- Node5 -->
<g id="Node000005" class="node">
<title>Node5</title>
<g id="a_Node000005"><a xlink:href="app_8c.html#ac71716a8a841e4af742c3598c80c1e2d" target="_top" xlink:title=" ">
<polygon fill="white" stroke="#666666" points="317.25,-252.75 220.25,-252.75 220.25,-232 317.25,-232 317.25,-252.75"/>
<text text-anchor="middle" x="268.75" y="-239.25" font-family="Helvetica,sans-Serif" font-size="10.00">wrap_w2c__f249</text>
</a>
</g>
</g>
<!-- Node4&#45;&gt;Node5 -->
<g id="edge4_Node000004_Node000005" class="edge">
<title>Node4&#45;&gt;Node5</title>
<g id="a_edge4_Node000004_Node000005"><a xlink:title=" ">
<path fill="none" stroke="#63b8ff" d="M356.2,-242.38C343.78,-242.38 330.25,-242.38 317.65,-242.38"/>
<polygon fill="#63b8ff" stroke="#63b8ff" points="356.18,-245.88 366.18,-242.38 356.18,-238.88 356.18,-245.88"/>
</a>
</g>
</g>
<!-- Node7 -->
<g id="Node000007" class="node">
<title>Node7</title>
<g id="a_Node000007"><a xlink:href="app_8c.html#acb27ee283da308a7b55edec80b26b53a" target="_top" xlink:title=" ">
<polygon fill="white" stroke="#666666" points="317.25,-213.75 220.25,-213.75 220.25,-193 317.25,-193 317.25,-213.75"/>
<text text-anchor="middle" x="268.75" y="-200.25" font-family="Helvetica,sans-Serif" font-size="10.00">wrap_w2c__f296</text>
</a>
</g>
</g>
<!-- Node6&#45;&gt;Node7 -->
<g id="edge6_Node000006_Node000007" class="edge">
<title>Node6&#45;&gt;Node7</title>
<g id="a_edge6_Node000006_Node000007"><a xlink:title=" ">
<path fill="none" stroke="#63b8ff" d="M356.2,-203.38C343.78,-203.38 330.25,-203.38 317.65,-203.38"/>
<polygon fill="#63b8ff" stroke="#63b8ff" points="356.18,-206.88 366.18,-203.38 356.18,-199.88 356.18,-206.88"/>
</a>
</g>
</g>
<!-- Node8&#45;&gt;Node9 -->
<g id="edge8_Node000008_Node000009" class="edge">
<title>Node8&#45;&gt;Node9</title>
<g id="a_edge8_Node000008_Node000009"><a xlink:title=" ">
<path fill="none" stroke="#63b8ff" d="M356.53,-158.3C338.96,-155.88 319.08,-153.15 302.8,-150.92"/>
<polygon fill="#63b8ff" stroke="#63b8ff" points="355.81,-161.73 366.19,-159.63 356.76,-154.8 355.81,-161.73"/>
</a>
</g>
</g>
<!-- Node10 -->
<g id="Node000010" class="node">
<title>Node10</title>
<g id="a_Node000010"><a xlink:href="app_8c.html#ac863989691d4c389f80374209c220171" target="_top" xlink:title=" ">
<polygon fill="white" stroke="#666666" points="167,-175.75 104.5,-175.75 104.5,-155 167,-155 167,-175.75"/>
<text text-anchor="middle" x="135.75" y="-162.25" font-family="Helvetica,sans-Serif" font-size="10.00">w2c__c_0</text>
</a>
</g>
</g>
<!-- Node9&#45;&gt;Node10 -->
<g id="edge9_Node000009_Node000010" class="edge">
<title>Node9&#45;&gt;Node10</title>
<g id="a_edge9_Node000009_Node000010"><a xlink:title=" ">
<path fill="none" stroke="#63b8ff" d="M223.53,-152.79C204.97,-155.48 183.86,-158.54 167.1,-160.97"/>
<polygon fill="#63b8ff" stroke="#63b8ff" points="223.8,-156.29 233.2,-151.39 222.8,-149.36 223.8,-156.29"/>
</a>
</g>
</g>
<!-- Node12 -->
<g id="Node000012" class="node">
<title>Node12</title>
<g id="a_Node000012"><a xlink:href="app_8c.html#a8f64ccad6c506a1ca514ba4f43e5211c" target="_top" xlink:title=" ">
<polygon fill="white" stroke="#666666" points="184.25,-136.75 87.25,-136.75 87.25,-116 184.25,-116 184.25,-136.75"/>
<text text-anchor="middle" x="135.75" y="-123.25" font-family="Helvetica,sans-Serif" font-size="10.00">wrap_w2c__f367</text>
</a>
</g>
</g>
<!-- Node9&#45;&gt;Node12 -->
<g id="edge11_Node000009_Node000012" class="edge">
<title>Node9&#45;&gt;Node12</title>
<g id="a_edge11_Node000009_Node000012"><a xlink:title=" ">
<path fill="none" stroke="#63b8ff" d="M223.58,-139.63C211.06,-137.72 197.38,-135.63 184.65,-133.69"/>
<polygon fill="#63b8ff" stroke="#63b8ff" points="222.78,-143.05 233.2,-141.1 223.84,-136.13 222.78,-143.05"/>
</a>
</g>
</g>
<!-- Node11 -->
<g id="Node000011" class="node">
<title>Node11</title>
<g id="a_Node000011"><a xlink:href="app_8c.html#ab1e039392ea68017ab8a6063263b147d" target="_top" xlink:title=" ">
<polygon fill="white" stroke="#666666" points="51.25,-175.75 0,-175.75 0,-155 51.25,-155 51.25,-175.75"/>
<text text-anchor="middle" x="25.62" y="-162.25" font-family="Helvetica,sans-Serif" font-size="10.00">w2c__c</text>
</a>
</g>
</g>
<!-- Node10&#45;&gt;Node11 -->
<g id="edge10_Node000010_Node000011" class="edge">
<title>Node10&#45;&gt;Node11</title>
<g id="a_edge10_Node000010_Node000011"><a xlink:title=" ">
<path fill="none" stroke="#63b8ff" d="M92.72,-165.38C78.81,-165.38 63.78,-165.38 51.57,-165.38"/>
<polygon fill="#63b8ff" stroke="#63b8ff" points="92.54,-168.88 102.54,-165.38 92.54,-161.88 92.54,-168.88"/>
</a>
</g>
</g>
<!-- Node14 -->
<g id="Node000014" class="node">
<title>Node14</title>
<g id="a_Node000014"><a xlink:href="app_8c.html#a8853a714c7c9ee84054e58d59d4f04b0" target="_top" xlink:title=" ">
<polygon fill="white" stroke="#666666" points="317.25,-98.75 220.25,-98.75 220.25,-78 317.25,-78 317.25,-98.75"/>
<text text-anchor="middle" x="268.75" y="-85.25" font-family="Helvetica,sans-Serif" font-size="10.00">wrap_w2c__f487</text>
</a>
</g>
</g>
<!-- Node13&#45;&gt;Node14 -->
<g id="edge14_Node000013_Node000014" class="edge">
<title>Node13&#45;&gt;Node14</title>
<g id="a_edge14_Node000013_Node000014"><a xlink:title=" ">
<path fill="none" stroke="#63b8ff" d="M356.2,-88.38C343.78,-88.38 330.25,-88.38 317.65,-88.38"/>
<polygon fill="#63b8ff" stroke="#63b8ff" points="356.18,-91.88 366.18,-88.38 356.18,-84.88 356.18,-91.88"/>
</a>
</g>
</g>
<!-- Node16 -->
<g id="Node000016" class="node">
<title>Node16</title>
<g id="a_Node000016"><a xlink:href="app_8c.html#a7f58d267cd8e1f6c18258ac8537228fb" target="_top" xlink:title=" ">
<polygon fill="white" stroke="#666666" points="317.25,-59.75 220.25,-59.75 220.25,-39 317.25,-39 317.25,-59.75"/>
<text text-anchor="middle" x="268.75" y="-46.25" font-family="Helvetica,sans-Serif" font-size="10.00">wrap_w2c__f506</text>
</a>
</g>
</g>
<!-- Node15&#45;&gt;Node16 -->
<g id="edge16_Node000015_Node000016" class="edge">
<title>Node15&#45;&gt;Node16</title>
<g id="a_edge16_Node000015_Node000016"><a xlink:title=" ">
<path fill="none" stroke="#63b8ff" d="M356.2,-49.38C343.78,-49.38 330.25,-49.38 317.65,-49.38"/>
<polygon fill="#63b8ff" stroke="#63b8ff" points="356.18,-52.88 366.18,-49.38 356.18,-45.88 356.18,-52.88"/>
</a>
</g>
</g>
</g>
</svg>
