<?xml version="1.0" encoding="UTF-8" standalone="no"?>
<!DOCTYPE svg PUBLIC "-//W3C//DTD SVG 1.1//EN"
 "http://www.w3.org/Graphics/SVG/1.1/DTD/svg11.dtd">
<!-- Generated by graphviz version 12.2.1 (0)
 -->
<!-- Title: w2c__f418 Pages: 1 -->
<svg width="886pt" height="388pt"
 viewBox="0.00 0.00 885.50 387.75" xmlns="http://www.w3.org/2000/svg" xmlns:xlink="http://www.w3.org/1999/xlink">
<g id="graph0" class="graph" transform="scale(1 1) rotate(0) translate(4 383.75)">
<title>w2c__f418</title>
<!-- Node1 -->
<g id="Node000001" class="node">
<title>Node1</title>
<g id="a_Node000001"><a xlink:title=" ">
<polygon fill="#999999" stroke="#666666" points="877.5,-153.75 809.75,-153.75 809.75,-133 877.5,-133 877.5,-153.75"/>
<text text-anchor="middle" x="843.62" y="-140.25" font-family="Helvetica,sans-Serif" font-size="10.00">w2c__f418</text>
</a>
</g>
</g>
<!-- Node2 -->
<g id="Node000002" class="node">
<title>Node2</title>
<g id="a_Node000002"><a xlink:href="app_8c.html#ac7adfcc42dca841e81dfd249fec7651b" target="_top" xlink:title=" ">
<polygon fill="white" stroke="#666666" points="773.75,-361.75 706,-361.75 706,-341 773.75,-341 773.75,-361.75"/>
<text text-anchor="middle" x="739.88" y="-348.25" font-family="Helvetica,sans-Serif" font-size="10.00">w2c__f215</text>
</a>
</g>
</g>
<!-- Node1&#45;&gt;Node2 -->
<g id="edge1_Node000001_Node000002" class="edge">
<title>Node1&#45;&gt;Node2</title>
<g id="a_edge1_Node000001_Node000002"><a xlink:title=" ">
<path fill="none" stroke="#63b8ff" d="M839.48,-165.03C833.06,-202.6 815.38,-280.7 773.75,-331.38 770.87,-334.89 767.2,-337.94 763.36,-340.54"/>
<polygon fill="#63b8ff" stroke="#63b8ff" points="842.89,-165.86 841,-155.44 835.98,-164.76 842.89,-165.86"/>
</a>
</g>
</g>
<!-- Node3 -->
<g id="Node000003" class="node">
<title>Node3</title>
<g id="a_Node000003"><a xlink:href="app_8c.html#abbf857a88f7c54684871b047308367f6" target="_top" xlink:title=" ">
<polygon fill="white" stroke="#666666" points="773.75,-304.75 706,-304.75 706,-284 773.75,-284 773.75,-304.75"/>
<text text-anchor="middle" x="739.88" y="-291.25" font-family="Helvetica,sans-Serif" font-size="10.00">w2c__f241</text>
</a>
</g>
</g>
<!-- Node1&#45;&gt;Node3 -->
<g id="edge3_Node000001_Node000003" class="edge">
<title>Node1&#45;&gt;Node3</title>
<g id="a_edge3_Node000001_Node000003"><a xlink:title=" ">
<path fill="none" stroke="#63b8ff" d="M834.51,-164.71C823.6,-191.48 802.23,-237.81 773.75,-270.38 769.38,-275.38 763.78,-279.94 758.45,-283.71"/>
<polygon fill="#63b8ff" stroke="#63b8ff" points="837.68,-166.22 838.1,-155.63 831.17,-163.64 837.68,-166.22"/>
</a>
</g>
</g>
<!-- Node4 -->
<g id="Node000004" class="node">
<title>Node4</title>
<g id="a_Node000004"><a xlink:href="app_8c.html#aac449994afd8488e2efd16fb19f0ecb1" target="_top" xlink:title=" ">
<polygon fill="white" stroke="#666666" points="358.75,-172.75 291,-172.75 291,-152 358.75,-152 358.75,-172.75"/>
<text text-anchor="middle" x="324.88" y="-159.25" font-family="Helvetica,sans-Serif" font-size="10.00">w2c__f336</text>
</a>
</g>
</g>
<!-- Node1&#45;&gt;Node4 -->
<g id="edge5_Node000001_Node000004" class="edge">
<title>Node1&#45;&gt;Node4</title>
<g id="a_edge5_Node000001_Node000004"><a xlink:title=" ">
<path fill="none" stroke="#63b8ff" d="M824.13,-162.02C790.23,-194.12 714.49,-256.38 637.12,-256.38 637.12,-256.38 637.12,-256.38 531.38,-256.38 452.13,-256.38 369.99,-197.85 338.87,-173.16"/>
<polygon fill="#63b8ff" stroke="#63b8ff" points="826.36,-164.74 831.1,-155.26 821.48,-159.71 826.36,-164.74"/>
</a>
</g>
</g>
<!-- Node10 -->
<g id="Node000010" class="node">
<title>Node10</title>
<g id="a_Node000010"><a xlink:href="app_8c.html#ad8900d20af3b9f9c768670d0005907f3" target="_top" xlink:title=" ">
<polygon fill="white" stroke="#666666" points="773.75,-20.75 706,-20.75 706,0 773.75,0 773.75,-20.75"/>
<text text-anchor="middle" x="739.88" y="-7.25" font-family="Helvetica,sans-Serif" font-size="10.00">w2c__f381</text>
</a>
</g>
</g>
<!-- Node1&#45;&gt;Node10 -->
<g id="edge11_Node000001_Node000010" class="edge">
<title>Node1&#45;&gt;Node10</title>
<g id="a_edge11_Node000001_Node000010"><a xlink:title=" ">
<path fill="none" stroke="#63b8ff" d="M832.45,-122.44C820.52,-99.23 799.11,-61.49 773.75,-34.38 769.21,-29.52 763.58,-25 758.26,-21.22"/>
<polygon fill="#63b8ff" stroke="#63b8ff" points="829.24,-123.83 836.85,-131.2 835.49,-120.69 829.24,-123.83"/>
</a>
</g>
</g>
<!-- Node11 -->
<g id="Node000011" class="node">
<title>Node11</title>
<g id="a_Node000011"><a xlink:href="app_8c.html#aa3f7fb2ace6a87e61320ef7401dfd66f" target="_top" xlink:title=" ">
<polygon fill="white" stroke="#666666" points="462.5,-134.75 394.75,-134.75 394.75,-114 462.5,-114 462.5,-134.75"/>
<text text-anchor="middle" x="428.62" y="-121.25" font-family="Helvetica,sans-Serif" font-size="10.00">w2c__f489</text>
</a>
</g>
</g>
<!-- Node1&#45;&gt;Node11 -->
<g id="edge12_Node000001_Node000011" class="edge">
<title>Node1&#45;&gt;Node11</title>
<g id="a_edge12_Node000001_Node000011"><a xlink:title=" ">
<path fill="none" stroke="#63b8ff" d="M798.18,-141.33C714.83,-137.5 536.81,-129.31 462.88,-125.9"/>
<polygon fill="#63b8ff" stroke="#63b8ff" points="797.86,-144.82 808.01,-141.78 798.19,-137.83 797.86,-144.82"/>
</a>
</g>
</g>
<!-- Node12 -->
<g id="Node000012" class="node">
<title>Node12</title>
<g id="a_Node000012"><a xlink:href="app_8c.html#a850a9c260115672f978d3685bca1703b" target="_top" xlink:title=" ">
<polygon fill="white" stroke="#666666" points="566.25,-96.75 498.5,-96.75 498.5,-76 566.25,-76 566.25,-96.75"/>
<text text-anchor="middle" x="532.38" y="-83.25" font-family="Helvetica,sans-Serif" font-size="10.00">w2c__f540</text>
</a>
</g>
</g>
<!-- Node1&#45;&gt;Node12 -->
<g id="edge14_Node000001_Node000012" class="edge">
<title>Node1&#45;&gt;Node12</title>
<g id="a_edge14_Node000001_Node000012"><a xlink:title=" ">
<path fill="none" stroke="#63b8ff" d="M814.62,-127.23C802.44,-120.94 787.77,-114.3 773.75,-110.38 701.87,-90.24 613.73,-86.5 566.7,-86.09"/>
<polygon fill="#63b8ff" stroke="#63b8ff" points="812.8,-130.22 823.27,-131.88 816.12,-124.06 812.8,-130.22"/>
</a>
</g>
</g>
<!-- Node13 -->
<g id="Node000013" class="node">
<title>Node13</title>
<g id="a_Node000013"><a xlink:href="app_8c.html#a268eebcea573fce720709e588959d401" target="_top" xlink:title=" ">
<polygon fill="white" stroke="#666666" points="462.5,-58.75 394.75,-58.75 394.75,-38 462.5,-38 462.5,-58.75"/>
<text text-anchor="middle" x="428.62" y="-45.25" font-family="Helvetica,sans-Serif" font-size="10.00">w2c__f568</text>
</a>
</g>
</g>
<!-- Node1&#45;&gt;Node13 -->
<g id="edge25_Node000001_Node000013" class="edge">
<title>Node1&#45;&gt;Node13</title>
<g id="a_edge25_Node000001_Node000013"><a xlink:title=" ">
<path fill="none" stroke="#63b8ff" d="M823.55,-125.03C810.57,-113.68 792.41,-99.88 773.75,-92.38 666.18,-49.12 525.8,-46.04 462.78,-47.17"/>
<polygon fill="#63b8ff" stroke="#63b8ff" points="821.16,-127.58 830.91,-131.73 825.87,-122.41 821.16,-127.58"/>
</a>
</g>
</g>
<!-- Node14 -->
<g id="Node000014" class="node">
<title>Node14</title>
<g id="a_Node000014"><a xlink:href="app_8c.html#a75d2a28c1bac8b1e29f069bf851fdba9" target="_top" xlink:title=" ">
<polygon fill="white" stroke="#666666" points="773.75,-172.75 706,-172.75 706,-152 773.75,-152 773.75,-172.75"/>
<text text-anchor="middle" x="739.88" y="-159.25" font-family="Helvetica,sans-Serif" font-size="10.00">w2c__f549</text>
</a>
</g>
</g>
<!-- Node1&#45;&gt;Node14 -->
<g id="edge18_Node000001_Node000014" class="edge">
<title>Node1&#45;&gt;Node14</title>
<g id="a_edge18_Node000001_Node000014"><a xlink:title=" ">
<path fill="none" stroke="#63b8ff" d="M798.07,-151.69C789.96,-153.21 781.63,-154.77 773.92,-156.2"/>
<polygon fill="#63b8ff" stroke="#63b8ff" points="798.63,-155.15 807.82,-149.87 797.35,-148.27 798.63,-155.15"/>
</a>
</g>
</g>
<!-- Node2&#45;&gt;Node2 -->
<g id="edge2_Node000002_Node000002" class="edge">
<title>Node2&#45;&gt;Node2</title>
<g id="a_edge2_Node000002_Node000002"><a xlink:title=" ">
<path fill="none" stroke="#63b8ff" d="M757.91,-373.56C755.36,-377.23 749.35,-379.75 739.88,-379.75 722.04,-379.75 716.47,-370.81 723.16,-362.15"/>
<polygon fill="#63b8ff" stroke="#63b8ff" points="761.39,-373.18 756.77,-363.65 754.44,-373.99 761.39,-373.18"/>
</a>
</g>
</g>
<!-- Node3&#45;&gt;Node3 -->
<g id="edge4_Node000003_Node000003" class="edge">
<title>Node3&#45;&gt;Node3</title>
<g id="a_edge4_Node000003_Node000003"><a xlink:title=" ">
<path fill="none" stroke="#63b8ff" d="M757.91,-316.56C755.36,-320.23 749.35,-322.75 739.88,-322.75 722.04,-322.75 716.47,-313.81 723.16,-305.15"/>
<polygon fill="#63b8ff" stroke="#63b8ff" points="761.39,-316.18 756.77,-306.65 754.44,-316.99 761.39,-316.18"/>
</a>
</g>
</g>
<!-- Node5 -->
<g id="Node000005" class="node">
<title>Node5</title>
<g id="a_Node000005"><a xlink:href="app_8c.html#ac863989691d4c389f80374209c220171" target="_top" xlink:title=" ">
<polygon fill="white" stroke="#666666" points="252.38,-192.75 189.88,-192.75 189.88,-172 252.38,-172 252.38,-192.75"/>
<text text-anchor="middle" x="221.12" y="-179.25" font-family="Helvetica,sans-Serif" font-size="10.00">w2c__c_0</text>
</a>
</g>
</g>
<!-- Node4&#45;&gt;Node5 -->
<g id="edge6_Node000004_Node000005" class="edge">
<title>Node4&#45;&gt;Node5</title>
<g id="a_edge6_Node000004_Node000005"><a xlink:title=" ">
<path fill="none" stroke="#63b8ff" d="M279.4,-171.12C270.41,-172.88 261.15,-174.7 252.76,-176.35"/>
<polygon fill="#63b8ff" stroke="#63b8ff" points="279.94,-174.58 289.07,-169.22 278.59,-167.71 279.94,-174.58"/>
</a>
</g>
</g>
<!-- Node7 -->
<g id="Node000007" class="node">
<title>Node7</title>
<g id="a_Node000007"><a xlink:href="app_8c.html#a8f312e54d76623b1ae169d5d19736ee0" target="_top" xlink:title=" ">
<polygon fill="white" stroke="#666666" points="255,-153.75 187.25,-153.75 187.25,-133 255,-133 255,-153.75"/>
<text text-anchor="middle" x="221.12" y="-140.25" font-family="Helvetica,sans-Serif" font-size="10.00">w2c__f363</text>
</a>
</g>
</g>
<!-- Node4&#45;&gt;Node7 -->
<g id="edge8_Node000004_Node000007" class="edge">
<title>Node4&#45;&gt;Node7</title>
<g id="a_edge8_Node000004_Node000007"><a xlink:title=" ">
<path fill="none" stroke="#63b8ff" d="M279.32,-154.06C271.21,-152.54 262.88,-150.98 255.17,-149.55"/>
<polygon fill="#63b8ff" stroke="#63b8ff" points="278.6,-157.48 289.07,-155.88 279.88,-150.6 278.6,-157.48"/>
</a>
</g>
</g>
<!-- Node6 -->
<g id="Node000006" class="node">
<title>Node6</title>
<g id="a_Node000006"><a xlink:href="app_8c.html#ab1e039392ea68017ab8a6063263b147d" target="_top" xlink:title=" ">
<polygon fill="white" stroke="#666666" points="145.25,-192.75 94,-192.75 94,-172 145.25,-172 145.25,-192.75"/>
<text text-anchor="middle" x="119.62" y="-179.25" font-family="Helvetica,sans-Serif" font-size="10.00">w2c__c</text>
</a>
</g>
</g>
<!-- Node5&#45;&gt;Node6 -->
<g id="edge7_Node000005_Node000006" class="edge">
<title>Node5&#45;&gt;Node6</title>
<g id="a_edge7_Node000005_Node000006"><a xlink:title=" ">
<path fill="none" stroke="#63b8ff" d="M178.21,-182.38C167.15,-182.38 155.55,-182.38 145.68,-182.38"/>
<polygon fill="#63b8ff" stroke="#63b8ff" points="177.95,-185.88 187.95,-182.38 177.95,-178.88 177.95,-185.88"/>
</a>
</g>
</g>
<!-- Node8 -->
<g id="Node000008" class="node">
<title>Node8</title>
<g id="a_Node000008"><a xlink:href="app_8c.html#a26657f10c51f10eeb57a4d27606a6885" target="_top" xlink:title=" ">
<polygon fill="white" stroke="#666666" points="151.25,-153.75 88,-153.75 88,-133 151.25,-133 151.25,-153.75"/>
<text text-anchor="middle" x="119.62" y="-140.25" font-family="Helvetica,sans-Serif" font-size="10.00">w2c__b_0</text>
</a>
</g>
</g>
<!-- Node7&#45;&gt;Node8 -->
<g id="edge9_Node000007_Node000008" class="edge">
<title>Node7&#45;&gt;Node8</title>
<g id="a_edge9_Node000007_Node000008"><a xlink:title=" ">
<path fill="none" stroke="#63b8ff" d="M175.71,-143.38C167.57,-143.38 159.23,-143.38 151.59,-143.38"/>
<polygon fill="#63b8ff" stroke="#63b8ff" points="175.48,-146.88 185.48,-143.38 175.48,-139.88 175.48,-146.88"/>
</a>
</g>
</g>
<!-- Node9 -->
<g id="Node000009" class="node">
<title>Node9</title>
<g id="a_Node000009"><a xlink:href="app_8c.html#a683a2045346c3209e9dac20d55933c7d" target="_top" xlink:title=" ">
<polygon fill="white" stroke="#666666" points="52,-153.75 0,-153.75 0,-133 52,-133 52,-153.75"/>
<text text-anchor="middle" x="26" y="-140.25" font-family="Helvetica,sans-Serif" font-size="10.00">w2c__b</text>
</a>
</g>
</g>
<!-- Node8&#45;&gt;Node9 -->
<g id="edge10_Node000008_Node000009" class="edge">
<title>Node8&#45;&gt;Node9</title>
<g id="a_edge10_Node000008_Node000009"><a xlink:title=" ">
<path fill="none" stroke="#63b8ff" d="M76.21,-143.38C68,-143.38 59.65,-143.38 52.21,-143.38"/>
<polygon fill="#63b8ff" stroke="#63b8ff" points="76.09,-146.88 86.09,-143.38 76.09,-139.88 76.09,-146.88"/>
</a>
</g>
</g>
<!-- Node11&#45;&gt;Node4 -->
<g id="edge13_Node000011_Node000004" class="edge">
<title>Node11&#45;&gt;Node4</title>
<g id="a_edge13_Node000011_Node000004"><a xlink:title=" ">
<path fill="none" stroke="#63b8ff" d="M388.01,-139.17C376.96,-143.3 365.15,-147.71 354.83,-151.56"/>
<polygon fill="#63b8ff" stroke="#63b8ff" points="389.18,-142.47 397.32,-135.69 386.73,-135.91 389.18,-142.47"/>
</a>
</g>
</g>
<!-- Node12&#45;&gt;Node4 -->
<g id="edge15_Node000012_Node000004" class="edge">
<title>Node12&#45;&gt;Node4</title>
<g id="a_edge15_Node000012_Node000004"><a xlink:title=" ">
<path fill="none" stroke="#63b8ff" d="M486.98,-86.44C459.4,-87.94 423.8,-92.58 394.75,-105.38 370.03,-116.26 347.1,-138.68 334.94,-151.93"/>
<polygon fill="#63b8ff" stroke="#63b8ff" points="486.9,-89.95 496.75,-86.04 486.61,-82.96 486.9,-89.95"/>
</a>
</g>
</g>
<!-- Node12&#45;&gt;Node11 -->
<g id="edge16_Node000012_Node000011" class="edge">
<title>Node12&#45;&gt;Node11</title>
<g id="a_edge16_Node000012_Node000011"><a xlink:title=" ">
<path fill="none" stroke="#63b8ff" d="M491.76,-101.17C480.71,-105.3 468.9,-109.71 458.58,-113.56"/>
<polygon fill="#63b8ff" stroke="#63b8ff" points="492.93,-104.47 501.07,-97.69 490.48,-97.91 492.93,-104.47"/>
</a>
</g>
</g>
<!-- Node12&#45;&gt;Node13 -->
<g id="edge17_Node000012_Node000013" class="edge">
<title>Node12&#45;&gt;Node13</title>
<g id="a_edge17_Node000012_Node000013"><a xlink:title=" ">
<path fill="none" stroke="#63b8ff" d="M491.76,-71.58C480.71,-67.45 468.9,-63.04 458.58,-59.19"/>
<polygon fill="#63b8ff" stroke="#63b8ff" points="490.48,-74.84 501.07,-75.06 492.93,-68.28 490.48,-74.84"/>
</a>
</g>
</g>
<!-- Node15 -->
<g id="Node000015" class="node">
<title>Node15</title>
<g id="a_Node000015"><a xlink:href="app_8c.html#af44863a9f6b78ac4e379c138c19a8c91" target="_top" xlink:title=" ">
<polygon fill="white" stroke="#666666" points="670,-172.75 602.25,-172.75 602.25,-152 670,-152 670,-172.75"/>
<text text-anchor="middle" x="636.12" y="-159.25" font-family="Helvetica,sans-Serif" font-size="10.00">w2c__f226</text>
</a>
</g>
</g>
<!-- Node14&#45;&gt;Node15 -->
<g id="edge19_Node000014_Node000015" class="edge">
<title>Node14&#45;&gt;Node15</title>
<g id="a_edge19_Node000014_Node000015"><a xlink:title=" ">
<path fill="none" stroke="#63b8ff" d="M694.32,-162.38C686.21,-162.38 677.88,-162.38 670.17,-162.38"/>
<polygon fill="#63b8ff" stroke="#63b8ff" points="694.04,-165.88 704.04,-162.38 694.04,-158.88 694.04,-165.88"/>
</a>
</g>
</g>
<!-- Node16 -->
<g id="Node000016" class="node">
<title>Node16</title>
<g id="a_Node000016"><a xlink:href="app_8c.html#a27ec3034e861eede96fabd221dec28d1" target="_top" xlink:title=" ">
<polygon fill="white" stroke="#666666" points="566.25,-191.75 498.5,-191.75 498.5,-171 566.25,-171 566.25,-191.75"/>
<text text-anchor="middle" x="532.38" y="-178.25" font-family="Helvetica,sans-Serif" font-size="10.00">w2c__f554</text>
</a>
</g>
</g>
<!-- Node14&#45;&gt;Node16 -->
<g id="edge22_Node000014_Node000016" class="edge">
<title>Node14&#45;&gt;Node16</title>
<g id="a_edge22_Node000014_Node000016"><a xlink:title=" ">
<path fill="none" stroke="#63b8ff" d="M714.57,-179.25C701.9,-187.03 685.79,-195.4 670,-199.38 634.62,-208.28 592.91,-200.19 564.96,-192.19"/>
<polygon fill="#63b8ff" stroke="#63b8ff" points="716.13,-182.41 722.64,-174.06 712.34,-176.53 716.13,-182.41"/>
</a>
</g>
</g>
<!-- Node15&#45;&gt;Node12 -->
<g id="edge21_Node000015_Node000012" class="edge">
<title>Node15&#45;&gt;Node12</title>
<g id="a_edge21_Node000015_Node000012"><a xlink:title=" ">
<path fill="none" stroke="#63b8ff" d="M612.01,-145.11C592.25,-130.35 564.44,-109.58 547.73,-97.1"/>
<polygon fill="#63b8ff" stroke="#63b8ff" points="609.66,-147.72 619.76,-150.9 613.85,-142.11 609.66,-147.72"/>
</a>
</g>
</g>
<!-- Node15&#45;&gt;Node15 -->
<g id="edge20_Node000015_Node000015" class="edge">
<title>Node15&#45;&gt;Node15</title>
<g id="a_edge20_Node000015_Node000015"><a xlink:title=" ">
<path fill="none" stroke="#63b8ff" d="M654.16,-184.56C651.61,-188.23 645.6,-190.75 636.12,-190.75 618.29,-190.75 612.72,-181.81 619.41,-173.15"/>
<polygon fill="#63b8ff" stroke="#63b8ff" points="657.64,-184.18 653.02,-174.65 650.69,-184.99 657.64,-184.18"/>
</a>
</g>
</g>
<!-- Node16&#45;&gt;Node4 -->
<g id="edge23_Node000016_Node000004" class="edge">
<title>Node16&#45;&gt;Node4</title>
<g id="a_edge23_Node000016_Node000004"><a xlink:title=" ">
<path fill="none" stroke="#63b8ff" d="M487,-177.27C448.59,-173.72 393.9,-168.66 359.15,-165.45"/>
<polygon fill="#63b8ff" stroke="#63b8ff" points="486.57,-180.75 496.85,-178.18 487.22,-173.78 486.57,-180.75"/>
</a>
</g>
</g>
<!-- Node16&#45;&gt;Node16 -->
<g id="edge24_Node000016_Node000016" class="edge">
<title>Node16&#45;&gt;Node16</title>
<g id="a_edge24_Node000016_Node000016"><a xlink:title=" ">
<path fill="none" stroke="#63b8ff" d="M550.41,-203.56C547.86,-207.23 541.85,-209.75 532.38,-209.75 514.54,-209.75 508.97,-200.81 515.66,-192.15"/>
<polygon fill="#63b8ff" stroke="#63b8ff" points="553.89,-203.18 549.27,-193.65 546.94,-203.99 553.89,-203.18"/>
</a>
</g>
</g>
</g>
</svg>
