<?xml version="1.0" encoding="UTF-8" standalone="no"?>
<!DOCTYPE svg PUBLIC "-//W3C//DTD SVG 1.1//EN"
 "http://www.w3.org/Graphics/SVG/1.1/DTD/svg11.dtd">
<!-- Generated by graphviz version 12.2.1 (0)
 -->
<!-- Title: w2c__f407 Pages: 1 -->
<svg width="429pt" height="224pt"
 viewBox="0.00 0.00 429.00 223.75" xmlns="http://www.w3.org/2000/svg" xmlns:xlink="http://www.w3.org/1999/xlink">
<g id="graph0" class="graph" transform="scale(1 1) rotate(0) translate(4 219.75)">
<title>w2c__f407</title>
<!-- Node1 -->
<g id="Node000001" class="node">
<title>Node1</title>
<g id="a_Node000001"><a xlink:title=" ">
<polygon fill="#999999" stroke="#666666" points="421,-98.75 353.25,-98.75 353.25,-78 421,-78 421,-98.75"/>
<text text-anchor="middle" x="387.12" y="-85.25" font-family="Helvetica,sans-Serif" font-size="10.00">w2c__f407</text>
</a>
</g>
</g>
<!-- Node2 -->
<g id="Node000002" class="node">
<title>Node2</title>
<g id="a_Node000002"><a xlink:href="app_8c.html#aabc3b06c7f7daa21796552c728f0379b" target="_top" xlink:title=" ">
<polygon fill="white" stroke="#666666" points="302.62,-196.75 234.88,-196.75 234.88,-176 302.62,-176 302.62,-196.75"/>
<text text-anchor="middle" x="268.75" y="-183.25" font-family="Helvetica,sans-Serif" font-size="10.00">w2c__f270</text>
</a>
</g>
</g>
<!-- Node1&#45;&gt;Node2 -->
<g id="edge1_Node000001_Node000002" class="edge">
<title>Node1&#45;&gt;Node2</title>
<g id="a_edge1_Node000001_Node000002"><a xlink:title=" ">
<path fill="none" stroke="#63b8ff" d="M364.42,-106.65C340.26,-127 302.02,-159.2 282.35,-175.76"/>
<polygon fill="#63b8ff" stroke="#63b8ff" points="366.67,-109.33 372.07,-100.21 362.16,-103.98 366.67,-109.33"/>
</a>
</g>
</g>
<!-- Node4 -->
<g id="Node000004" class="node">
<title>Node4</title>
<g id="a_Node000004"><a xlink:href="app_8c.html#a5677ffd129da8cd63b876545b8187d77" target="_top" xlink:title=" ">
<polygon fill="white" stroke="#666666" points="302.62,-137.75 234.88,-137.75 234.88,-117 302.62,-117 302.62,-137.75"/>
<text text-anchor="middle" x="268.75" y="-124.25" font-family="Helvetica,sans-Serif" font-size="10.00">w2c__f367</text>
</a>
</g>
</g>
<!-- Node1&#45;&gt;Node4 -->
<g id="edge3_Node000001_Node000004" class="edge">
<title>Node1&#45;&gt;Node4</title>
<g id="a_edge3_Node000001_Node000004"><a xlink:title=" ">
<path fill="none" stroke="#63b8ff" d="M343.11,-102.79C329.51,-107.35 314.71,-112.31 301.99,-116.57"/>
<polygon fill="#63b8ff" stroke="#63b8ff" points="343.9,-106.22 352.27,-99.72 341.68,-99.58 343.9,-106.22"/>
</a>
</g>
</g>
<!-- Node8 -->
<g id="Node000008" class="node">
<title>Node8</title>
<g id="a_Node000008"><a xlink:href="app_8c.html#aa5aa96620823a66d02f16f4abcd5e0fe" target="_top" xlink:title=" ">
<polygon fill="white" stroke="#666666" points="302.62,-98.75 234.88,-98.75 234.88,-78 302.62,-78 302.62,-98.75"/>
<text text-anchor="middle" x="268.75" y="-85.25" font-family="Helvetica,sans-Serif" font-size="10.00">w2c__f371</text>
</a>
</g>
</g>
<!-- Node1&#45;&gt;Node8 -->
<g id="edge7_Node000001_Node000008" class="edge">
<title>Node1&#45;&gt;Node8</title>
<g id="a_edge7_Node000001_Node000008"><a xlink:title=" ">
<path fill="none" stroke="#63b8ff" d="M341.41,-88.38C328.68,-88.38 315.03,-88.38 303.1,-88.38"/>
<polygon fill="#63b8ff" stroke="#63b8ff" points="341.26,-91.88 351.26,-88.38 341.26,-84.88 341.26,-91.88"/>
</a>
</g>
</g>
<!-- Node10 -->
<g id="Node000010" class="node">
<title>Node10</title>
<g id="a_Node000010"><a xlink:href="app_8c.html#a83755b8cd21c3725397c6ca0d8dc1f28" target="_top" xlink:title=" ">
<polygon fill="white" stroke="#666666" points="302.62,-59.75 234.88,-59.75 234.88,-39 302.62,-39 302.62,-59.75"/>
<text text-anchor="middle" x="268.75" y="-46.25" font-family="Helvetica,sans-Serif" font-size="10.00">w2c__f471</text>
</a>
</g>
</g>
<!-- Node1&#45;&gt;Node10 -->
<g id="edge9_Node000001_Node000010" class="edge">
<title>Node1&#45;&gt;Node10</title>
<g id="a_edge9_Node000001_Node000010"><a xlink:title=" ">
<path fill="none" stroke="#63b8ff" d="M343.11,-73.96C329.51,-69.4 314.71,-64.44 301.99,-60.18"/>
<polygon fill="#63b8ff" stroke="#63b8ff" points="341.68,-77.17 352.27,-77.03 343.9,-70.53 341.68,-77.17"/>
</a>
</g>
</g>
<!-- Node12 -->
<g id="Node000012" class="node">
<title>Node12</title>
<g id="a_Node000012"><a xlink:href="app_8c.html#a2e4e816c21a72b2d2dc555b3e5000fa4" target="_top" xlink:title=" ">
<polygon fill="white" stroke="#666666" points="317.25,-20.75 220.25,-20.75 220.25,0 317.25,0 317.25,-20.75"/>
<text text-anchor="middle" x="268.75" y="-7.25" font-family="Helvetica,sans-Serif" font-size="10.00">wrap_w2c__f407</text>
</a>
</g>
</g>
<!-- Node1&#45;&gt;Node12 -->
<g id="edge11_Node000001_Node000012" class="edge">
<title>Node1&#45;&gt;Node12</title>
<g id="a_edge11_Node000001_Node000012"><a xlink:title=" ">
<path fill="none" stroke="#63b8ff" d="M367.48,-69.98C354.26,-57.64 335.67,-41.65 317.25,-30.38 311.68,-26.97 305.42,-23.87 299.32,-21.2"/>
<polygon fill="#63b8ff" stroke="#63b8ff" points="364.96,-72.41 374.61,-76.79 369.79,-67.35 364.96,-72.41"/>
</a>
</g>
</g>
<!-- Node3 -->
<g id="Node000003" class="node">
<title>Node3</title>
<g id="a_Node000003"><a xlink:href="app_8c.html#a54f194530158831aa826ddabfd869e3f" target="_top" xlink:title=" ">
<polygon fill="white" stroke="#666666" points="184.25,-215.75 87.25,-215.75 87.25,-195 184.25,-195 184.25,-215.75"/>
<text text-anchor="middle" x="135.75" y="-202.25" font-family="Helvetica,sans-Serif" font-size="10.00">wrap_w2c__f270</text>
</a>
</g>
</g>
<!-- Node2&#45;&gt;Node3 -->
<g id="edge2_Node000002_Node000003" class="edge">
<title>Node2&#45;&gt;Node3</title>
<g id="a_edge2_Node000002_Node000003"><a xlink:title=" ">
<path fill="none" stroke="#63b8ff" d="M223.58,-192.78C211.06,-194.6 197.38,-196.58 184.65,-198.43"/>
<polygon fill="#63b8ff" stroke="#63b8ff" points="223.8,-196.29 233.2,-191.39 222.8,-189.36 223.8,-196.29"/>
</a>
</g>
</g>
<!-- Node5 -->
<g id="Node000005" class="node">
<title>Node5</title>
<g id="a_Node000005"><a xlink:href="app_8c.html#ac863989691d4c389f80374209c220171" target="_top" xlink:title=" ">
<polygon fill="white" stroke="#666666" points="167,-176.75 104.5,-176.75 104.5,-156 167,-156 167,-176.75"/>
<text text-anchor="middle" x="135.75" y="-163.25" font-family="Helvetica,sans-Serif" font-size="10.00">w2c__c_0</text>
</a>
</g>
</g>
<!-- Node4&#45;&gt;Node5 -->
<g id="edge4_Node000004_Node000005" class="edge">
<title>Node4&#45;&gt;Node5</title>
<g id="a_edge4_Node000004_Node000005"><a xlink:title=" ">
<path fill="none" stroke="#63b8ff" d="M223.79,-140.46C205.17,-146.01 183.94,-152.33 167.1,-157.34"/>
<polygon fill="#63b8ff" stroke="#63b8ff" points="224.66,-143.86 233.24,-137.65 222.66,-137.15 224.66,-143.86"/>
</a>
</g>
</g>
<!-- Node7 -->
<g id="Node000007" class="node">
<title>Node7</title>
<g id="a_Node000007"><a xlink:href="app_8c.html#a8f64ccad6c506a1ca514ba4f43e5211c" target="_top" xlink:title=" ">
<polygon fill="white" stroke="#666666" points="184.25,-137.75 87.25,-137.75 87.25,-117 184.25,-117 184.25,-137.75"/>
<text text-anchor="middle" x="135.75" y="-124.25" font-family="Helvetica,sans-Serif" font-size="10.00">wrap_w2c__f367</text>
</a>
</g>
</g>
<!-- Node4&#45;&gt;Node7 -->
<g id="edge6_Node000004_Node000007" class="edge">
<title>Node4&#45;&gt;Node7</title>
<g id="a_edge6_Node000004_Node000007"><a xlink:title=" ">
<path fill="none" stroke="#63b8ff" d="M223.2,-127.38C210.78,-127.38 197.25,-127.38 184.65,-127.38"/>
<polygon fill="#63b8ff" stroke="#63b8ff" points="223.18,-130.88 233.18,-127.38 223.18,-123.88 223.18,-130.88"/>
</a>
</g>
</g>
<!-- Node6 -->
<g id="Node000006" class="node">
<title>Node6</title>
<g id="a_Node000006"><a xlink:href="app_8c.html#ab1e039392ea68017ab8a6063263b147d" target="_top" xlink:title=" ">
<polygon fill="white" stroke="#666666" points="51.25,-176.75 0,-176.75 0,-156 51.25,-156 51.25,-176.75"/>
<text text-anchor="middle" x="25.62" y="-163.25" font-family="Helvetica,sans-Serif" font-size="10.00">w2c__c</text>
</a>
</g>
</g>
<!-- Node5&#45;&gt;Node6 -->
<g id="edge5_Node000005_Node000006" class="edge">
<title>Node5&#45;&gt;Node6</title>
<g id="a_edge5_Node000005_Node000006"><a xlink:title=" ">
<path fill="none" stroke="#63b8ff" d="M92.72,-166.38C78.81,-166.38 63.78,-166.38 51.57,-166.38"/>
<polygon fill="#63b8ff" stroke="#63b8ff" points="92.54,-169.88 102.54,-166.38 92.54,-162.88 92.54,-169.88"/>
</a>
</g>
</g>
<!-- Node9 -->
<g id="Node000009" class="node">
<title>Node9</title>
<g id="a_Node000009"><a xlink:href="app_8c.html#a70f34b1bc2ae815ea8aa822e2de375d8" target="_top" xlink:title=" ">
<polygon fill="white" stroke="#666666" points="184.25,-98.75 87.25,-98.75 87.25,-78 184.25,-78 184.25,-98.75"/>
<text text-anchor="middle" x="135.75" y="-85.25" font-family="Helvetica,sans-Serif" font-size="10.00">wrap_w2c__f371</text>
</a>
</g>
</g>
<!-- Node8&#45;&gt;Node9 -->
<g id="edge8_Node000008_Node000009" class="edge">
<title>Node8&#45;&gt;Node9</title>
<g id="a_edge8_Node000008_Node000009"><a xlink:title=" ">
<path fill="none" stroke="#63b8ff" d="M223.2,-88.38C210.78,-88.38 197.25,-88.38 184.65,-88.38"/>
<polygon fill="#63b8ff" stroke="#63b8ff" points="223.18,-91.88 233.18,-88.38 223.18,-84.88 223.18,-91.88"/>
</a>
</g>
</g>
<!-- Node11 -->
<g id="Node000011" class="node">
<title>Node11</title>
<g id="a_Node000011"><a xlink:href="app_8c.html#a6b5632f950c10613ca99f4746ff29f36" target="_top" xlink:title=" ">
<polygon fill="white" stroke="#666666" points="184.25,-59.75 87.25,-59.75 87.25,-39 184.25,-39 184.25,-59.75"/>
<text text-anchor="middle" x="135.75" y="-46.25" font-family="Helvetica,sans-Serif" font-size="10.00">wrap_w2c__f471</text>
</a>
</g>
</g>
<!-- Node10&#45;&gt;Node11 -->
<g id="edge10_Node000010_Node000011" class="edge">
<title>Node10&#45;&gt;Node11</title>
<g id="a_edge10_Node000010_Node000011"><a xlink:title=" ">
<path fill="none" stroke="#63b8ff" d="M223.2,-49.38C210.78,-49.38 197.25,-49.38 184.65,-49.38"/>
<polygon fill="#63b8ff" stroke="#63b8ff" points="223.18,-52.88 233.18,-49.38 223.18,-45.88 223.18,-52.88"/>
</a>
</g>
</g>
</g>
</svg>
