<?xml version="1.0" encoding="UTF-8" standalone="no"?>
<!DOCTYPE svg PUBLIC "-//W3C//DTD SVG 1.1//EN"
 "http://www.w3.org/Graphics/SVG/1.1/DTD/svg11.dtd">
<!-- Generated by graphviz version 12.2.1 (0)
 -->
<!-- Title: w2c__f261 Pages: 1 -->
<svg width="910pt" height="1089pt"
 viewBox="0.00 0.00 910.25 1089.38" xmlns="http://www.w3.org/2000/svg" xmlns:xlink="http://www.w3.org/1999/xlink">
<g id="graph0" class="graph" transform="scale(1 1) rotate(0) translate(4 1085.38)">
<title>w2c__f261</title>
<!-- Node1 -->
<g id="Node000001" class="node">
<title>Node1</title>
<g id="a_Node000001"><a xlink:title=" ">
<polygon fill="#999999" stroke="#666666" points="67.75,-719.38 0,-719.38 0,-698.62 67.75,-698.62 67.75,-719.38"/>
<text text-anchor="middle" x="33.88" y="-705.88" font-family="Helvetica,sans-Serif" font-size="10.00">w2c__f261</text>
</a>
</g>
</g>
<!-- Node2 -->
<g id="Node000002" class="node">
<title>Node2</title>
<g id="a_Node000002"><a xlink:href="app_8c.html#a21c3335f5635ea7ae1fba0f925c4148a" target="_top" xlink:title=" ">
<polygon fill="white" stroke="#666666" points="173.75,-1081.38 103.75,-1081.38 103.75,-1060.62 173.75,-1060.62 173.75,-1081.38"/>
<text text-anchor="middle" x="138.75" y="-1067.88" font-family="Helvetica,sans-Serif" font-size="10.00">w2c_0_169</text>
</a>
</g>
</g>
<!-- Node1&#45;&gt;Node2 -->
<g id="edge1_Node000001_Node000002" class="edge">
<title>Node1&#45;&gt;Node2</title>
<g id="a_edge1_Node000001_Node000002"><a xlink:title=" ">
<path fill="none" stroke="#63b8ff" d="M35.86,-719.69C40.77,-771.39 64.04,-995.25 103.75,-1051 104.15,-1051.56 104.57,-1052.1 105,-1052.63"/>
<polygon fill="#63b8ff" stroke="#63b8ff" points="102.45,-1055.05 112.23,-1059.14 107.14,-1049.85 102.45,-1055.05"/>
</a>
</g>
</g>
<!-- Node3 -->
<g id="Node000003" class="node">
<title>Node3</title>
<g id="a_Node000003"><a xlink:href="app_8c.html#a4f89434e73555473a637aa72f93ac987" target="_top" xlink:title=" ">
<polygon fill="white" stroke="#666666" points="170.75,-1042.38 106.75,-1042.38 106.75,-1021.62 170.75,-1021.62 170.75,-1042.38"/>
<text text-anchor="middle" x="138.75" y="-1028.88" font-family="Helvetica,sans-Serif" font-size="10.00">w2c_0_50</text>
</a>
</g>
</g>
<!-- Node1&#45;&gt;Node3 -->
<g id="edge2_Node000001_Node000003" class="edge">
<title>Node1&#45;&gt;Node3</title>
<g id="a_edge2_Node000001_Node000003"><a xlink:title=" ">
<path fill="none" stroke="#63b8ff" d="M34.7,-719.86C34.55,-761.19 38.72,-911.15 103.75,-1008 105.16,-1010.1 106.81,-1012.07 108.62,-1013.91"/>
<polygon fill="#63b8ff" stroke="#63b8ff" points="106.19,-1016.43 116.1,-1020.16 110.68,-1011.06 106.19,-1016.43"/>
</a>
</g>
</g>
<!-- Node4 -->
<g id="Node000004" class="node">
<title>Node4</title>
<g id="a_Node000004"><a xlink:href="app_8c.html#a9f7c6b96be6e0c0613ec652af07545e6" target="_top" xlink:title=" ">
<polygon fill="white" stroke="#666666" points="172.62,-681.38 104.88,-681.38 104.88,-660.62 172.62,-660.62 172.62,-681.38"/>
<text text-anchor="middle" x="138.75" y="-667.88" font-family="Helvetica,sans-Serif" font-size="10.00">w2c__f212</text>
</a>
</g>
</g>
<!-- Node1&#45;&gt;Node4 -->
<g id="edge3_Node000001_Node000004" class="edge">
<title>Node1&#45;&gt;Node4</title>
<g id="a_edge3_Node000001_Node000004"><a xlink:title=" ">
<path fill="none" stroke="#63b8ff" d="M64.08,-698.21C74.61,-694.32 86.69,-689.86 97.97,-685.69"/>
<polygon fill="#63b8ff" stroke="#63b8ff" points="98.88,-689.09 107.05,-682.34 96.46,-682.52 98.88,-689.09"/>
</a>
</g>
</g>
<!-- Node8 -->
<g id="Node000008" class="node">
<title>Node8</title>
<g id="a_Node000008"><a xlink:href="app_8c.html#a03fa34d93d32a3ee40dfc2d840730111" target="_top" xlink:title=" ">
<polygon fill="white" stroke="#666666" points="798.5,-459.38 730.75,-459.38 730.75,-438.62 798.5,-438.62 798.5,-459.38"/>
<text text-anchor="middle" x="764.62" y="-445.88" font-family="Helvetica,sans-Serif" font-size="10.00">w2c__f262</text>
</a>
</g>
</g>
<!-- Node1&#45;&gt;Node8 -->
<g id="edge33_Node000001_Node000008" class="edge">
<title>Node1&#45;&gt;Node8</title>
<g id="a_edge33_Node000001_Node000008"><a xlink:title=" ">
<path fill="none" stroke="#63b8ff" d="M35.71,-698.24C38.74,-666.2 51.92,-570.3 103.75,-516 149.81,-467.73 175.91,-459 242.62,-459 242.62,-459 242.62,-459 348.38,-459 483.22,-459 642.63,-453.66 718.77,-450.79"/>
<polygon fill="#63b8ff" stroke="#63b8ff" points="718.89,-454.29 728.75,-450.41 718.62,-447.29 718.89,-454.29"/>
</a>
</g>
</g>
<!-- Node13 -->
<g id="Node000013" class="node">
<title>Node13</title>
<g id="a_Node000013"><a xlink:href="app_8c.html#a800df00ef236c6d6affc3c661b37e3ad" target="_top" xlink:title=" ">
<polygon fill="white" stroke="#666666" points="798.5,-738.38 730.75,-738.38 730.75,-717.62 798.5,-717.62 798.5,-738.38"/>
<text text-anchor="middle" x="764.62" y="-724.88" font-family="Helvetica,sans-Serif" font-size="10.00">w2c__f487</text>
</a>
</g>
</g>
<!-- Node1&#45;&gt;Node13 -->
<g id="edge51_Node000001_Node000013" class="edge">
<title>Node1&#45;&gt;Node13</title>
<g id="a_edge51_Node000001_Node000013"><a xlink:title=" ">
<path fill="none" stroke="#63b8ff" d="M37.06,-719.82C48.28,-771.88 104.25,-994 242.62,-994 242.62,-994 242.62,-994 557,-994 620.39,-994 649.26,-1001.15 694.75,-957 753.3,-900.16 762.55,-795.6 763.68,-750.11"/>
<polygon fill="#63b8ff" stroke="#63b8ff" points="767.18,-750.26 763.8,-740.22 760.18,-750.17 767.18,-750.26"/>
</a>
</g>
</g>
<!-- Node14 -->
<g id="Node000014" class="node">
<title>Node14</title>
<g id="a_Node000014"><a xlink:href="app_8c.html#a0e0dad0ebc52e45eeff2e1b5d8389ea4" target="_top" xlink:title=" ">
<polygon fill="white" stroke="#666666" points="798.5,-124.38 730.75,-124.38 730.75,-103.62 798.5,-103.62 798.5,-124.38"/>
<text text-anchor="middle" x="764.62" y="-110.88" font-family="Helvetica,sans-Serif" font-size="10.00">w2c__f534</text>
</a>
</g>
</g>
<!-- Node1&#45;&gt;Node14 -->
<g id="edge52_Node000001_Node000014" class="edge">
<title>Node1&#45;&gt;Node14</title>
<g id="a_edge52_Node000001_Node000014"><a xlink:title=" ">
<path fill="none" stroke="#63b8ff" d="M35.13,-698.28C36.92,-627.91 49.37,-231.55 103.75,-126 141.92,-51.92 159.28,0 242.62,0 242.62,0 242.62,0 557,0 620.63,0 640.57,-5.64 694.75,-39 717.78,-53.18 737.88,-77.19 750.33,-94.23"/>
<polygon fill="#63b8ff" stroke="#63b8ff" points="747.24,-95.93 755.87,-102.08 752.97,-91.89 747.24,-95.93"/>
</a>
</g>
</g>
<!-- Node19 -->
<g id="Node000019" class="node">
<title>Node19</title>
<g id="a_Node000019"><a xlink:href="app_8c.html#ae275fc4639b8584f1e79529b33ad9c4c" target="_top" xlink:title=" ">
<polygon fill="white" stroke="#666666" points="589.88,-928.38 522.12,-928.38 522.12,-907.62 589.88,-907.62 589.88,-928.38"/>
<text text-anchor="middle" x="556" y="-914.88" font-family="Helvetica,sans-Serif" font-size="10.00">w2c__f213</text>
</a>
</g>
</g>
<!-- Node1&#45;&gt;Node19 -->
<g id="edge24_Node000001_Node000019" class="edge">
<title>Node1&#45;&gt;Node19</title>
<g id="a_edge24_Node000001_Node000019"><a xlink:title=" ">
<path fill="none" stroke="#63b8ff" d="M37.2,-719.66C43.47,-745.99 63.02,-814.87 103.75,-855 152.03,-902.57 174.85,-918 242.62,-918 242.62,-918 242.62,-918 348.38,-918 404.16,-918 468.42,-918 510.27,-918"/>
<polygon fill="#63b8ff" stroke="#63b8ff" points="510.2,-921.5 520.2,-918 510.2,-914.5 510.2,-921.5"/>
</a>
</g>
</g>
<!-- Node21 -->
<g id="Node000021" class="node">
<title>Node21</title>
<g id="a_Node000021"><a xlink:href="app_8c.html#a16b87571119c211bed30fa7b8b381ed7" target="_top" xlink:title=" ">
<polygon fill="white" stroke="#666666" points="172.62,-814.38 104.88,-814.38 104.88,-793.62 172.62,-793.62 172.62,-814.38"/>
<text text-anchor="middle" x="138.75" y="-800.88" font-family="Helvetica,sans-Serif" font-size="10.00">w2c__f224</text>
</a>
</g>
</g>
<!-- Node1&#45;&gt;Node21 -->
<g id="edge28_Node000001_Node000021" class="edge">
<title>Node1&#45;&gt;Node21</title>
<g id="a_edge28_Node000001_Node000021"><a xlink:title=" ">
<path fill="none" stroke="#63b8ff" d="M44.12,-719.71C56.84,-734.16 80.78,-760.35 103.75,-780 106.41,-782.27 109.28,-784.55 112.19,-786.74"/>
<polygon fill="#63b8ff" stroke="#63b8ff" points="109.99,-789.47 120.15,-792.47 114.08,-783.79 109.99,-789.47"/>
</a>
</g>
</g>
<!-- Node23 -->
<g id="Node000023" class="node">
<title>Node23</title>
<g id="a_Node000023"><a xlink:href="app_8c.html#accb387db6c79fbd8851011a7ad551e4c" target="_top" xlink:title=" ">
<polygon fill="white" stroke="#666666" points="381.25,-890.38 313.5,-890.38 313.5,-869.62 381.25,-869.62 381.25,-890.38"/>
<text text-anchor="middle" x="347.38" y="-876.88" font-family="Helvetica,sans-Serif" font-size="10.00">w2c__f293</text>
</a>
</g>
</g>
<!-- Node1&#45;&gt;Node23 -->
<g id="edge34_Node000001_Node000023" class="edge">
<title>Node1&#45;&gt;Node23</title>
<g id="a_edge34_Node000001_Node000023"><a xlink:title=" ">
<path fill="none" stroke="#63b8ff" d="M38.33,-719.56C46.22,-742.01 67.71,-794.76 103.75,-823 161.54,-868.28 249.3,-878.57 301.92,-880.37"/>
<polygon fill="#63b8ff" stroke="#63b8ff" points="301.64,-883.87 311.72,-880.61 301.81,-876.87 301.64,-883.87"/>
</a>
</g>
</g>
<!-- Node24 -->
<g id="Node000024" class="node">
<title>Node24</title>
<g id="a_Node000024"><a xlink:href="app_8c.html#aa0030424238c18279b4e86b3772151fa" target="_top" xlink:title=" ">
<polygon fill="white" stroke="#666666" points="172.62,-545.38 104.88,-545.38 104.88,-524.62 172.62,-524.62 172.62,-545.38"/>
<text text-anchor="middle" x="138.75" y="-531.88" font-family="Helvetica,sans-Serif" font-size="10.00">w2c__f305</text>
</a>
</g>
</g>
<!-- Node1&#45;&gt;Node24 -->
<g id="edge36_Node000001_Node000024" class="edge">
<title>Node1&#45;&gt;Node24</title>
<g id="a_edge36_Node000001_Node000024"><a xlink:title=" ">
<path fill="none" stroke="#63b8ff" d="M40.85,-698.43C52.68,-677.59 79.97,-629.74 103.75,-590 110.68,-578.42 118.6,-565.58 125.05,-555.23"/>
<polygon fill="#63b8ff" stroke="#63b8ff" points="128,-557.11 130.34,-546.77 122.07,-553.4 128,-557.11"/>
</a>
</g>
</g>
<!-- Node26 -->
<g id="Node000026" class="node">
<title>Node26</title>
<g id="a_Node000026"><a xlink:href="app_8c.html#a90ec7ae13f3de86954f29a59729097ff" target="_top" xlink:title=" ">
<polygon fill="white" stroke="#666666" points="381.25,-411.38 313.5,-411.38 313.5,-390.62 381.25,-390.62 381.25,-411.38"/>
<text text-anchor="middle" x="347.38" y="-397.88" font-family="Helvetica,sans-Serif" font-size="10.00">w2c__f308</text>
</a>
</g>
</g>
<!-- Node1&#45;&gt;Node26 -->
<g id="edge39_Node000001_Node000026" class="edge">
<title>Node1&#45;&gt;Node26</title>
<g id="a_edge39_Node000001_Node000026"><a xlink:title=" ">
<path fill="none" stroke="#63b8ff" d="M36.16,-698.16C41.71,-653.03 65.19,-480.74 103.75,-445 157.57,-395.11 248.1,-392.31 302.05,-395.9"/>
<polygon fill="#63b8ff" stroke="#63b8ff" points="301.55,-399.37 311.79,-396.66 302.1,-392.39 301.55,-399.37"/>
</a>
</g>
</g>
<!-- Node30 -->
<g id="Node000030" class="node">
<title>Node30</title>
<g id="a_Node000030"><a xlink:href="app_8c.html#af732b1ecf09ff688adde158c29714bcd" target="_top" xlink:title=" ">
<polygon fill="white" stroke="#666666" points="694.75,-86.38 627,-86.38 627,-65.62 694.75,-65.62 694.75,-86.38"/>
<text text-anchor="middle" x="660.88" y="-72.88" font-family="Helvetica,sans-Serif" font-size="10.00">w2c__f436</text>
</a>
</g>
</g>
<!-- Node1&#45;&gt;Node30 -->
<g id="edge48_Node000001_Node000030" class="edge">
<title>Node1&#45;&gt;Node30</title>
<g id="a_edge48_Node000001_Node000030"><a xlink:title=" ">
<path fill="none" stroke="#63b8ff" d="M35.95,-698.28C44.61,-615.1 106,-76 242.62,-76 242.62,-76 242.62,-76 452.12,-76 508.38,-76 573.2,-76 615.27,-76"/>
<polygon fill="#63b8ff" stroke="#63b8ff" points="615.26,-79.5 625.26,-76 615.26,-72.5 615.26,-79.5"/>
</a>
</g>
</g>
<!-- Node31 -->
<g id="Node000031" class="node">
<title>Node31</title>
<g id="a_Node000031"><a xlink:href="app_8c.html#a954fa13f62a4fa2757b0f2bf4e9de60d" target="_top" xlink:title=" ">
<polygon fill="white" stroke="#666666" points="694.75,-738.38 627,-738.38 627,-717.62 694.75,-717.62 694.75,-738.38"/>
<text text-anchor="middle" x="660.88" y="-724.88" font-family="Helvetica,sans-Serif" font-size="10.00">w2c__f474</text>
</a>
</g>
</g>
<!-- Node1&#45;&gt;Node31 -->
<g id="edge49_Node000001_Node000031" class="edge">
<title>Node1&#45;&gt;Node31</title>
<g id="a_edge49_Node000001_Node000031"><a xlink:title=" ">
<path fill="none" stroke="#63b8ff" d="M58.29,-719.86C96.17,-736.39 173.62,-766 242.62,-766 242.62,-766 242.62,-766 452.12,-766 509.39,-766 574.11,-751.86 615.87,-740.83"/>
<polygon fill="#63b8ff" stroke="#63b8ff" points="616.55,-744.27 625.29,-738.28 614.73,-737.51 616.55,-744.27"/>
</a>
</g>
</g>
<!-- Node32 -->
<g id="Node000032" class="node">
<title>Node32</title>
<g id="a_Node000032"><a xlink:href="app_8c.html#a78319adfe8c03a89fbf57b0c537d3113" target="_top" xlink:title=" ">
<polygon fill="white" stroke="#666666" points="277.5,-584.38 209.75,-584.38 209.75,-563.62 277.5,-563.62 277.5,-584.38"/>
<text text-anchor="middle" x="243.62" y="-570.88" font-family="Helvetica,sans-Serif" font-size="10.00">w2c__f542</text>
</a>
</g>
</g>
<!-- Node1&#45;&gt;Node32 -->
<g id="edge53_Node000001_Node000032" class="edge">
<title>Node1&#45;&gt;Node32</title>
<g id="a_edge53_Node000001_Node000032"><a xlink:title=" ">
<path fill="none" stroke="#63b8ff" d="M46.55,-698.22C59.85,-686.22 82.51,-666.58 103.75,-652 138.88,-627.89 182.03,-604.55 210.82,-589.78"/>
<polygon fill="#63b8ff" stroke="#63b8ff" points="212.05,-593.08 219.39,-585.43 208.88,-586.84 212.05,-593.08"/>
</a>
</g>
</g>
<!-- Node33 -->
<g id="Node000033" class="node">
<title>Node33</title>
<g id="a_Node000033"><a xlink:href="app_8c.html#a37fce8ca7d5ce886ab2e3a8da2d33566" target="_top" xlink:title=" ">
<polygon fill="white" stroke="#666666" points="485,-729.38 417.25,-729.38 417.25,-708.62 485,-708.62 485,-729.38"/>
<text text-anchor="middle" x="451.12" y="-715.88" font-family="Helvetica,sans-Serif" font-size="10.00">w2c__f548</text>
</a>
</g>
</g>
<!-- Node1&#45;&gt;Node33 -->
<g id="edge55_Node000001_Node000033" class="edge">
<title>Node1&#45;&gt;Node33</title>
<g id="a_edge55_Node000001_Node000033"><a xlink:title=" ">
<path fill="none" stroke="#63b8ff" d="M68.15,-709.8C142.43,-711.59 321.76,-715.91 405.57,-717.93"/>
<polygon fill="#63b8ff" stroke="#63b8ff" points="405.38,-721.42 415.46,-718.17 405.55,-714.43 405.38,-721.42"/>
</a>
</g>
</g>
<!-- Node35 -->
<g id="Node000035" class="node">
<title>Node35</title>
<g id="a_Node000035"><a xlink:href="app_8c.html#a0cc5b16aef09bc4edd582b66fc4ee06a" target="_top" xlink:title=" ">
<polygon fill="white" stroke="#666666" points="485,-241.38 417.25,-241.38 417.25,-220.62 485,-220.62 485,-241.38"/>
<text text-anchor="middle" x="451.12" y="-227.88" font-family="Helvetica,sans-Serif" font-size="10.00">w2c__f572</text>
</a>
</g>
</g>
<!-- Node1&#45;&gt;Node35 -->
<g id="edge62_Node000001_Node000035" class="edge">
<title>Node1&#45;&gt;Node35</title>
<g id="a_edge62_Node000001_Node000035"><a xlink:title=" ">
<path fill="none" stroke="#63b8ff" d="M36.03,-698.42C41.49,-650.16 66,-451.08 103.75,-403 181.64,-303.8 331.73,-257.57 406.12,-239.99"/>
<polygon fill="#63b8ff" stroke="#63b8ff" points="406.52,-243.49 415.48,-237.84 404.95,-236.66 406.52,-243.49"/>
</a>
</g>
</g>
<!-- Node5 -->
<g id="Node000005" class="node">
<title>Node5</title>
<g id="a_Node000005"><a xlink:href="app_8c.html#a986f1214d53a515b2b887b8f988fa6a1" target="_top" xlink:title=" ">
<polygon fill="white" stroke="#666666" points="381.25,-691.38 313.5,-691.38 313.5,-670.62 381.25,-670.62 381.25,-691.38"/>
<text text-anchor="middle" x="347.38" y="-677.88" font-family="Helvetica,sans-Serif" font-size="10.00">w2c__f365</text>
</a>
</g>
</g>
<!-- Node4&#45;&gt;Node5 -->
<g id="edge4_Node000004_Node000005" class="edge">
<title>Node4&#45;&gt;Node5</title>
<g id="a_edge4_Node000004_Node000005"><a xlink:title=" ">
<path fill="none" stroke="#63b8ff" d="M172.95,-672.61C207.89,-674.3 263.1,-676.97 301.81,-678.84"/>
<polygon fill="#63b8ff" stroke="#63b8ff" points="301.59,-682.34 311.75,-679.32 301.93,-675.34 301.59,-682.34"/>
</a>
</g>
</g>
<!-- Node15 -->
<g id="Node000015" class="node">
<title>Node15</title>
<g id="a_Node000015"><a xlink:href="app_8c.html#ac86c44b314d05be0a2a2248534b46838" target="_top" xlink:title=" ">
<polygon fill="white" stroke="#666666" points="277.5,-662.38 209.75,-662.38 209.75,-641.62 277.5,-641.62 277.5,-662.38"/>
<text text-anchor="middle" x="243.62" y="-648.88" font-family="Helvetica,sans-Serif" font-size="10.00">w2c__f458</text>
</a>
</g>
</g>
<!-- Node4&#45;&gt;Node15 -->
<g id="edge18_Node000004_Node000015" class="edge">
<title>Node4&#45;&gt;Node15</title>
<g id="a_edge18_Node000004_Node000015"><a xlink:title=" ">
<path fill="none" stroke="#63b8ff" d="M172.87,-664.88C181.03,-663.38 189.91,-661.74 198.51,-660.15"/>
<polygon fill="#63b8ff" stroke="#63b8ff" points="198.88,-663.64 208.08,-658.38 197.61,-656.75 198.88,-663.64"/>
</a>
</g>
</g>
<!-- Node16 -->
<g id="Node000016" class="node">
<title>Node16</title>
<g id="a_Node000016"><a xlink:href="app_8c.html#a65a7ed029d328682d1f6fda373974c32" target="_top" xlink:title=" ">
<polygon fill="white" stroke="#666666" points="277.5,-623.38 209.75,-623.38 209.75,-602.62 277.5,-602.62 277.5,-623.38"/>
<text text-anchor="middle" x="243.62" y="-609.88" font-family="Helvetica,sans-Serif" font-size="10.00">w2c__f470</text>
</a>
</g>
</g>
<!-- Node4&#45;&gt;Node16 -->
<g id="edge20_Node000004_Node000016" class="edge">
<title>Node4&#45;&gt;Node16</title>
<g id="a_edge20_Node000004_Node000016"><a xlink:title=" ">
<path fill="none" stroke="#63b8ff" d="M158.62,-660.36C174.04,-651.67 196.09,-639.24 213.73,-629.29"/>
<polygon fill="#63b8ff" stroke="#63b8ff" points="215.22,-632.47 222.21,-624.51 211.78,-626.37 215.22,-632.47"/>
</a>
</g>
</g>
<!-- Node6 -->
<g id="Node000006" class="node">
<title>Node6</title>
<g id="a_Node000006"><a xlink:href="app_8c.html#a14e021d2f1b59e04757852f66bff1044" target="_top" xlink:title=" ">
<polygon fill="white" stroke="#666666" points="589.88,-557.38 522.12,-557.38 522.12,-536.62 589.88,-536.62 589.88,-557.38"/>
<text text-anchor="middle" x="556" y="-543.88" font-family="Helvetica,sans-Serif" font-size="10.00">w2c__f511</text>
</a>
</g>
</g>
<!-- Node5&#45;&gt;Node6 -->
<g id="edge5_Node000005_Node000006" class="edge">
<title>Node5&#45;&gt;Node6</title>
<g id="a_edge5_Node000005_Node000006"><a xlink:title=" ">
<path fill="none" stroke="#63b8ff" d="M381.74,-681.14C411.23,-679.74 454.21,-673.82 485,-653 515.91,-632.1 536.54,-592.52 546.98,-568.08"/>
<polygon fill="#63b8ff" stroke="#63b8ff" points="550.08,-569.73 550.6,-559.15 543.6,-567.1 550.08,-569.73"/>
</a>
</g>
</g>
<!-- Node7 -->
<g id="Node000007" class="node">
<title>Node7</title>
<g id="a_Node000007"><a xlink:href="app_8c.html#aa58fd7f1d3aab8404d7f71d334a8a108" target="_top" xlink:title=" ">
<polygon fill="white" stroke="#666666" points="694.75,-546.38 627,-546.38 627,-525.62 694.75,-525.62 694.75,-546.38"/>
<text text-anchor="middle" x="660.88" y="-532.88" font-family="Helvetica,sans-Serif" font-size="10.00">w2c__f211</text>
</a>
</g>
</g>
<!-- Node6&#45;&gt;Node7 -->
<g id="edge6_Node000006_Node000007" class="edge">
<title>Node6&#45;&gt;Node7</title>
<g id="a_edge6_Node000006_Node000007"><a xlink:title=" ">
<path fill="none" stroke="#63b8ff" d="M590.12,-543.46C598.19,-542.6 606.96,-541.66 615.47,-540.75"/>
<polygon fill="#63b8ff" stroke="#63b8ff" points="615.74,-544.24 625.32,-539.7 615,-537.28 615.74,-544.24"/>
</a>
</g>
</g>
<!-- Node12 -->
<g id="Node000012" class="node">
<title>Node12</title>
<g id="a_Node000012"><a xlink:href="app_8c.html#a8c90e9acf2d5915eb0476bc13964c4db" target="_top" xlink:title=" ">
<polygon fill="white" stroke="#666666" points="694.75,-507.38 627,-507.38 627,-486.62 694.75,-486.62 694.75,-507.38"/>
<text text-anchor="middle" x="660.88" y="-493.88" font-family="Helvetica,sans-Serif" font-size="10.00">w2c__f345</text>
</a>
</g>
</g>
<!-- Node6&#45;&gt;Node12 -->
<g id="edge12_Node000006_Node000012" class="edge">
<title>Node6&#45;&gt;Node12</title>
<g id="a_edge12_Node000006_Node000012"><a xlink:title=" ">
<path fill="none" stroke="#63b8ff" d="M579.32,-536.15C593.34,-529.34 611.67,-520.43 627.29,-512.84"/>
<polygon fill="#63b8ff" stroke="#63b8ff" points="628.77,-516.01 636.23,-508.49 625.71,-509.71 628.77,-516.01"/>
</a>
</g>
</g>
<!-- Node7&#45;&gt;Node8 -->
<g id="edge7_Node000007_Node000008" class="edge">
<title>Node7&#45;&gt;Node8</title>
<g id="a_edge7_Node000007_Node000008"><a xlink:title=" ">
<path fill="none" stroke="#63b8ff" d="M681.13,-525.28C685.73,-522.45 690.52,-519.27 694.75,-516 713.75,-501.28 733.18,-481.9 746.54,-467.78"/>
<polygon fill="#63b8ff" stroke="#63b8ff" points="748.73,-470.56 752.98,-460.86 743.61,-465.79 748.73,-470.56"/>
</a>
</g>
</g>
<!-- Node11 -->
<g id="Node000011" class="node">
<title>Node11</title>
<g id="a_Node000011"><a xlink:href="app_8c.html#a31b08a294227a9fc0a529e66ccd915dc" target="_top" xlink:title=" ">
<polygon fill="white" stroke="#666666" points="798.5,-516.38 730.75,-516.38 730.75,-495.62 798.5,-495.62 798.5,-516.38"/>
<text text-anchor="middle" x="764.62" y="-502.88" font-family="Helvetica,sans-Serif" font-size="10.00">w2c__f325</text>
</a>
</g>
</g>
<!-- Node7&#45;&gt;Node11 -->
<g id="edge10_Node000007_Node000011" class="edge">
<title>Node7&#45;&gt;Node11</title>
<g id="a_edge10_Node000007_Node000011"><a xlink:title=" ">
<path fill="none" stroke="#63b8ff" d="M695.19,-526.18C703,-523.87 711.44,-521.39 719.64,-518.97"/>
<polygon fill="#63b8ff" stroke="#63b8ff" points="720.53,-522.36 729.13,-516.17 718.55,-515.64 720.53,-522.36"/>
</a>
</g>
</g>
<!-- Node9 -->
<g id="Node000009" class="node">
<title>Node9</title>
<g id="a_Node000009"><a xlink:href="app_8c.html#a16207b5f7a97b0ecfddd231452c5aa7e" target="_top" xlink:title=" ">
<polygon fill="white" stroke="#666666" points="902.25,-459.38 834.5,-459.38 834.5,-438.62 902.25,-438.62 902.25,-459.38"/>
<text text-anchor="middle" x="868.38" y="-445.88" font-family="Helvetica,sans-Serif" font-size="10.00">w2c__f263</text>
</a>
</g>
</g>
<!-- Node8&#45;&gt;Node9 -->
<g id="edge8_Node000008_Node000009" class="edge">
<title>Node8&#45;&gt;Node9</title>
<g id="a_edge8_Node000008_Node000009"><a xlink:title=" ">
<path fill="none" stroke="#63b8ff" d="M798.94,-449C806.57,-449 814.81,-449 822.83,-449"/>
<polygon fill="#63b8ff" stroke="#63b8ff" points="822.82,-452.5 832.82,-449 822.82,-445.5 822.82,-452.5"/>
</a>
</g>
</g>
<!-- Node10 -->
<g id="Node000010" class="node">
<title>Node10</title>
<g id="a_Node000010"><a xlink:href="app_8c.html#a71bcbce7faf780cd081af3fa82d6da97" target="_top" xlink:title=" ">
<polygon fill="white" stroke="#666666" points="902.25,-516.38 834.5,-516.38 834.5,-495.62 902.25,-495.62 902.25,-516.38"/>
<text text-anchor="middle" x="868.38" y="-502.88" font-family="Helvetica,sans-Serif" font-size="10.00">w2c__f437</text>
</a>
</g>
</g>
<!-- Node8&#45;&gt;Node10 -->
<g id="edge9_Node000008_Node000010" class="edge">
<title>Node8&#45;&gt;Node10</title>
<g id="a_edge9_Node000008_Node000010"><a xlink:title=" ">
<path fill="none" stroke="#63b8ff" d="M784.76,-459.72C799.87,-468.19 821.2,-480.13 838.4,-489.77"/>
<polygon fill="#63b8ff" stroke="#63b8ff" points="836.22,-492.56 846.66,-494.39 839.64,-486.45 836.22,-492.56"/>
</a>
</g>
</g>
<!-- Node11&#45;&gt;Node10 -->
<g id="edge11_Node000011_Node000010" class="edge">
<title>Node11&#45;&gt;Node10</title>
<g id="a_edge11_Node000011_Node000010"><a xlink:title=" ">
<path fill="none" stroke="#63b8ff" d="M798.94,-506C806.57,-506 814.81,-506 822.83,-506"/>
<polygon fill="#63b8ff" stroke="#63b8ff" points="822.82,-509.5 832.82,-506 822.82,-502.5 822.82,-509.5"/>
</a>
</g>
</g>
<!-- Node12&#45;&gt;Node8 -->
<g id="edge13_Node000012_Node000008" class="edge">
<title>Node12&#45;&gt;Node8</title>
<g id="a_edge13_Node000012_Node000008"><a xlink:title=" ">
<path fill="none" stroke="#63b8ff" d="M684.71,-486.23C698.19,-479.87 715.5,-471.7 730.47,-464.64"/>
<polygon fill="#63b8ff" stroke="#63b8ff" points="731.95,-467.81 739.5,-460.38 728.96,-461.48 731.95,-467.81"/>
</a>
</g>
</g>
<!-- Node12&#45;&gt;Node11 -->
<g id="edge14_Node000012_Node000011" class="edge">
<title>Node12&#45;&gt;Node11</title>
<g id="a_edge14_Node000012_Node000011"><a xlink:title=" ">
<path fill="none" stroke="#63b8ff" d="M695.19,-499.95C702.91,-500.63 711.25,-501.37 719.36,-502.08"/>
<polygon fill="#63b8ff" stroke="#63b8ff" points="718.8,-505.55 729.07,-502.94 719.42,-498.58 718.8,-505.55"/>
</a>
</g>
</g>
<!-- Node12&#45;&gt;Node13 -->
<g id="edge15_Node000012_Node000013" class="edge">
<title>Node12&#45;&gt;Node13</title>
<g id="a_edge15_Node000012_Node000013"><a xlink:title=" ">
<path fill="none" stroke="#63b8ff" d="M684.46,-507.75C688.29,-510.36 691.93,-513.44 694.75,-517 740.83,-575.18 756.56,-665.26 761.52,-706.3"/>
<polygon fill="#63b8ff" stroke="#63b8ff" points="758.03,-706.52 762.6,-716.08 764.99,-705.76 758.03,-706.52"/>
</a>
</g>
</g>
<!-- Node12&#45;&gt;Node14 -->
<g id="edge17_Node000012_Node000014" class="edge">
<title>Node12&#45;&gt;Node14</title>
<g id="a_edge17_Node000012_Node000014"><a xlink:title=" ">
<path fill="none" stroke="#63b8ff" d="M664.7,-486.36C678.51,-434.39 738.93,-206.96 757.9,-135.54"/>
<polygon fill="#63b8ff" stroke="#63b8ff" points="761.19,-136.8 760.37,-126.24 754.42,-135 761.19,-136.8"/>
</a>
</g>
</g>
<!-- Node13&#45;&gt;Node10 -->
<g id="edge16_Node000013_Node000010" class="edge">
<title>Node13&#45;&gt;Node10</title>
<g id="a_edge16_Node000013_Node000010"><a xlink:title=" ">
<path fill="none" stroke="#63b8ff" d="M770.53,-717.29C786.38,-682.72 836.38,-573.63 857.65,-527.22"/>
<polygon fill="#63b8ff" stroke="#63b8ff" points="860.78,-528.79 861.77,-518.24 854.42,-525.87 860.78,-528.79"/>
</a>
</g>
</g>
<!-- Node15&#45;&gt;Node5 -->
<g id="edge19_Node000015_Node000005" class="edge">
<title>Node15&#45;&gt;Node5</title>
<g id="a_edge19_Node000015_Node000005"><a xlink:title=" ">
<path fill="none" stroke="#63b8ff" d="M277.94,-661.5C285.75,-663.72 294.19,-666.13 302.39,-668.46"/>
<polygon fill="#63b8ff" stroke="#63b8ff" points="301.3,-671.79 311.88,-671.17 303.22,-665.06 301.3,-671.79"/>
</a>
</g>
</g>
<!-- Node17 -->
<g id="Node000017" class="node">
<title>Node17</title>
<g id="a_Node000017"><a xlink:href="app_8c.html#a0d2b9d1e465bd8169ebd6cf08afb1f69" target="_top" xlink:title=" ">
<polygon fill="white" stroke="#666666" points="381.25,-633.38 313.5,-633.38 313.5,-612.62 381.25,-612.62 381.25,-633.38"/>
<text text-anchor="middle" x="347.38" y="-619.88" font-family="Helvetica,sans-Serif" font-size="10.00">w2c__f551</text>
</a>
</g>
</g>
<!-- Node16&#45;&gt;Node17 -->
<g id="edge21_Node000016_Node000017" class="edge">
<title>Node16&#45;&gt;Node17</title>
<g id="a_edge21_Node000016_Node000017"><a xlink:title=" ">
<path fill="none" stroke="#63b8ff" d="M277.94,-616.27C285.66,-617.03 294,-617.85 302.11,-618.65"/>
<polygon fill="#63b8ff" stroke="#63b8ff" points="301.53,-622.11 311.82,-619.6 302.21,-615.14 301.53,-622.11"/>
</a>
</g>
</g>
<!-- Node18 -->
<g id="Node000018" class="node">
<title>Node18</title>
<g id="a_Node000018"><a xlink:href="app_8c.html#a70885389166a2cbcb9e78af289ffa12e" target="_top" xlink:title=" ">
<polygon fill="white" stroke="#666666" points="485,-644.38 417.25,-644.38 417.25,-623.62 485,-623.62 485,-644.38"/>
<text text-anchor="middle" x="451.12" y="-630.88" font-family="Helvetica,sans-Serif" font-size="10.00">w2c__f577</text>
</a>
</g>
</g>
<!-- Node17&#45;&gt;Node18 -->
<g id="edge22_Node000017_Node000018" class="edge">
<title>Node17&#45;&gt;Node18</title>
<g id="a_edge22_Node000017_Node000018"><a xlink:title=" ">
<path fill="none" stroke="#63b8ff" d="M381.69,-626.6C389.41,-627.44 397.75,-628.34 405.86,-629.21"/>
<polygon fill="#63b8ff" stroke="#63b8ff" points="405.26,-632.67 415.58,-630.26 406.01,-625.71 405.26,-632.67"/>
</a>
</g>
</g>
<!-- Node18&#45;&gt;Node6 -->
<g id="edge23_Node000018_Node000006" class="edge">
<title>Node18&#45;&gt;Node6</title>
<g id="a_edge23_Node000018_Node000006"><a xlink:title=" ">
<path fill="none" stroke="#63b8ff" d="M464.74,-623.33C481.86,-608.85 512.71,-582.77 533.51,-565.17"/>
<polygon fill="#63b8ff" stroke="#63b8ff" points="535.75,-567.86 541.13,-558.73 531.23,-562.52 535.75,-567.86"/>
</a>
</g>
</g>
<!-- Node19&#45;&gt;Node13 -->
<g id="edge27_Node000019_Node000013" class="edge">
<title>Node19&#45;&gt;Node13</title>
<g id="a_edge27_Node000019_Node000013"><a xlink:title=" ">
<path fill="none" stroke="#63b8ff" d="M576.9,-928.76C605.74,-942.73 659.54,-962.47 694.75,-937 755.32,-893.18 763.54,-794.24 764.04,-750.04"/>
<polygon fill="#63b8ff" stroke="#63b8ff" points="767.54,-750.16 764.02,-740.17 760.54,-750.18 767.54,-750.16"/>
</a>
</g>
</g>
<!-- Node20 -->
<g id="Node000020" class="node">
<title>Node20</title>
<g id="a_Node000020"><a xlink:href="app_8c.html#a25127e7223ad1048bed344feb10b4333" target="_top" xlink:title=" ">
<polygon fill="white" stroke="#666666" points="694.75,-928.38 627,-928.38 627,-907.62 694.75,-907.62 694.75,-928.38"/>
<text text-anchor="middle" x="660.88" y="-914.88" font-family="Helvetica,sans-Serif" font-size="10.00">w2c__f327</text>
</a>
</g>
</g>
<!-- Node19&#45;&gt;Node20 -->
<g id="edge25_Node000019_Node000020" class="edge">
<title>Node19&#45;&gt;Node20</title>
<g id="a_edge25_Node000019_Node000020"><a xlink:title=" ">
<path fill="none" stroke="#63b8ff" d="M590.12,-918C598.19,-918 606.96,-918 615.47,-918"/>
<polygon fill="#63b8ff" stroke="#63b8ff" points="615.31,-921.5 625.31,-918 615.31,-914.5 615.31,-921.5"/>
</a>
</g>
</g>
<!-- Node20&#45;&gt;Node13 -->
<g id="edge26_Node000020_Node000013" class="edge">
<title>Node20&#45;&gt;Node13</title>
<g id="a_edge26_Node000020_Node000013"><a xlink:title=" ">
<path fill="none" stroke="#63b8ff" d="M680.11,-907.36C685.35,-903.65 690.73,-899.11 694.75,-894 730.15,-849.01 750.19,-783.25 758.7,-749.59"/>
<polygon fill="#63b8ff" stroke="#63b8ff" points="762.02,-750.76 760.96,-740.21 755.21,-749.11 762.02,-750.76"/>
</a>
</g>
</g>
<!-- Node21&#45;&gt;Node13 -->
<g id="edge29_Node000021_Node000013" class="edge">
<title>Node21&#45;&gt;Node13</title>
<g id="a_edge29_Node000021_Node000013"><a xlink:title=" ">
<path fill="none" stroke="#63b8ff" d="M173.05,-813.98C213.6,-825.24 284.37,-842 346.38,-842 346.38,-842 346.38,-842 557,-842 621.69,-842 639.61,-828.82 694.75,-795 715.71,-782.14 735.37,-761.88 748.27,-747"/>
<polygon fill="#63b8ff" stroke="#63b8ff" points="750.65,-749.61 754.41,-739.7 745.3,-745.1 750.65,-749.61"/>
</a>
</g>
</g>
<!-- Node22 -->
<g id="Node000022" class="node">
<title>Node22</title>
<g id="a_Node000022"><a xlink:href="app_8c.html#a5143f7bebd925f0663756f10aef87ef0" target="_top" xlink:title=" ">
<polygon fill="white" stroke="#666666" points="277.5,-814.38 209.75,-814.38 209.75,-793.62 277.5,-793.62 277.5,-814.38"/>
<text text-anchor="middle" x="243.62" y="-800.88" font-family="Helvetica,sans-Serif" font-size="10.00">w2c__f570</text>
</a>
</g>
</g>
<!-- Node21&#45;&gt;Node22 -->
<g id="edge30_Node000021_Node000022" class="edge">
<title>Node21&#45;&gt;Node22</title>
<g id="a_edge30_Node000021_Node000022"><a xlink:title=" ">
<path fill="none" stroke="#63b8ff" d="M172.87,-804C180.94,-804 189.71,-804 198.22,-804"/>
<polygon fill="#63b8ff" stroke="#63b8ff" points="198.06,-807.5 208.06,-804 198.06,-800.5 198.06,-807.5"/>
</a>
</g>
</g>
<!-- Node22&#45;&gt;Node5 -->
<g id="edge31_Node000022_Node000005" class="edge">
<title>Node22&#45;&gt;Node5</title>
<g id="a_edge31_Node000022_Node000005"><a xlink:title=" ">
<path fill="none" stroke="#63b8ff" d="M253.3,-793.51C270.34,-772.92 308.39,-726.91 330.2,-700.55"/>
<polygon fill="#63b8ff" stroke="#63b8ff" points="332.79,-702.91 336.47,-692.98 327.4,-698.45 332.79,-702.91"/>
</a>
</g>
</g>
<!-- Node22&#45;&gt;Node13 -->
<g id="edge32_Node000022_Node000013" class="edge">
<title>Node22&#45;&gt;Node13</title>
<g id="a_edge32_Node000022_Node000013"><a xlink:title=" ">
<path fill="none" stroke="#63b8ff" d="M277.73,-804C318.34,-804 389.3,-804 450.12,-804 450.12,-804 450.12,-804 557,-804 625.3,-804 698.93,-766.97 737.17,-744.6"/>
<polygon fill="#63b8ff" stroke="#63b8ff" points="738.9,-747.65 745.68,-739.51 735.3,-741.64 738.9,-747.65"/>
</a>
</g>
</g>
<!-- Node23&#45;&gt;Node13 -->
<g id="edge35_Node000023_Node000013" class="edge">
<title>Node23&#45;&gt;Node13</title>
<g id="a_edge35_Node000023_Node000013"><a xlink:title=" ">
<path fill="none" stroke="#63b8ff" d="M381.56,-881.67C457.97,-884.88 643.66,-888.97 694.75,-856 732.58,-831.58 751.13,-779.03 758.9,-749.41"/>
<polygon fill="#63b8ff" stroke="#63b8ff" points="762.21,-750.63 761.17,-740.09 755.41,-748.98 762.21,-750.63"/>
</a>
</g>
</g>
<!-- Node24&#45;&gt;Node8 -->
<g id="edge37_Node000024_Node000008" class="edge">
<title>Node24&#45;&gt;Node8</title>
<g id="a_edge37_Node000024_Node000008"><a xlink:title=" ">
<path fill="none" stroke="#63b8ff" d="M173.05,-525.02C213.6,-513.76 284.37,-497 346.38,-497 346.38,-497 346.38,-497 452.12,-497 503.35,-497 646.27,-471.32 719.36,-457.53"/>
<polygon fill="#63b8ff" stroke="#63b8ff" points="719.8,-461.01 728.98,-455.71 718.5,-454.13 719.8,-461.01"/>
</a>
</g>
</g>
<!-- Node25 -->
<g id="Node000025" class="node">
<title>Node25</title>
<g id="a_Node000025"><a xlink:href="app_8c.html#abc21e85cf3aaa918b50fa3e8b54e25e0" target="_top" xlink:title=" ">
<polygon fill="white" stroke="#666666" points="277.5,-545.38 209.75,-545.38 209.75,-524.62 277.5,-524.62 277.5,-545.38"/>
<text text-anchor="middle" x="243.62" y="-531.88" font-family="Helvetica,sans-Serif" font-size="10.00">w2c__f565</text>
</a>
</g>
</g>
<!-- Node24&#45;&gt;Node25 -->
<g id="edge38_Node000024_Node000025" class="edge">
<title>Node24&#45;&gt;Node25</title>
<g id="a_edge38_Node000024_Node000025"><a xlink:title=" ">
<path fill="none" stroke="#63b8ff" d="M172.87,-535C180.94,-535 189.71,-535 198.22,-535"/>
<polygon fill="#63b8ff" stroke="#63b8ff" points="198.06,-538.5 208.06,-535 198.06,-531.5 198.06,-538.5"/>
</a>
</g>
</g>
<!-- Node26&#45;&gt;Node8 -->
<g id="edge40_Node000026_Node000008" class="edge">
<title>Node26&#45;&gt;Node8</title>
<g id="a_edge40_Node000026_Node000008"><a xlink:title=" ">
<path fill="none" stroke="#63b8ff" d="M362.76,-390.21C376.1,-380.93 396.88,-368.25 417.25,-363 428.39,-360.13 564.81,-361.13 591,-364 637.86,-369.14 652.83,-364.45 694.75,-386 715.56,-396.7 734.8,-415.37 747.63,-429.61"/>
<polygon fill="#63b8ff" stroke="#63b8ff" points="744.89,-431.8 754.09,-437.07 750.18,-427.22 744.89,-431.8"/>
</a>
</g>
</g>
<!-- Node26&#45;&gt;Node13 -->
<g id="edge46_Node000026_Node000013" class="edge">
<title>Node26&#45;&gt;Node13</title>
<g id="a_edge46_Node000026_Node000013"><a xlink:title=" ">
<path fill="none" stroke="#63b8ff" d="M357.62,-411.72C382.12,-439.7 451.62,-516.19 521,-566 591.81,-616.84 624.91,-604.83 694.75,-657 715.03,-672.15 734.79,-693.39 747.91,-708.69"/>
<polygon fill="#63b8ff" stroke="#63b8ff" points="745.08,-710.76 754.19,-716.18 750.44,-706.27 745.08,-710.76"/>
</a>
</g>
</g>
<!-- Node26&#45;&gt;Node14 -->
<g id="edge47_Node000026_Node000014" class="edge">
<title>Node26&#45;&gt;Node14</title>
<g id="a_edge47_Node000026_Node000014"><a xlink:title=" ">
<path fill="none" stroke="#63b8ff" d="M365.03,-390.25C378.95,-381.3 399.34,-368.23 417.25,-357 494.08,-308.81 516.22,-301.31 591,-250 638.79,-217.21 649.36,-207.04 694.75,-171 710.85,-158.22 728.72,-143.41 742.23,-132.09"/>
<polygon fill="#63b8ff" stroke="#63b8ff" points="744.25,-134.96 749.65,-125.85 739.74,-129.6 744.25,-134.96"/>
</a>
</g>
</g>
<!-- Node27 -->
<g id="Node000027" class="node">
<title>Node27</title>
<g id="a_Node000027"><a xlink:href="app_8c.html#add194bffb67f2f62eef302d08ce41b47" target="_top" xlink:title=" ">
<polygon fill="white" stroke="#666666" points="485,-431.38 417.25,-431.38 417.25,-410.62 485,-410.62 485,-431.38"/>
<text text-anchor="middle" x="451.12" y="-417.88" font-family="Helvetica,sans-Serif" font-size="10.00">w2c__f266</text>
</a>
</g>
</g>
<!-- Node26&#45;&gt;Node27 -->
<g id="edge41_Node000026_Node000027" class="edge">
<title>Node26&#45;&gt;Node27</title>
<g id="a_edge41_Node000026_Node000027"><a xlink:title=" ">
<path fill="none" stroke="#63b8ff" d="M381.69,-407.55C389.41,-409.07 397.75,-410.7 405.86,-412.3"/>
<polygon fill="#63b8ff" stroke="#63b8ff" points="405.11,-415.72 415.6,-414.21 406.46,-408.85 405.11,-415.72"/>
</a>
</g>
</g>
<!-- Node29 -->
<g id="Node000029" class="node">
<title>Node29</title>
<g id="a_Node000029"><a xlink:href="app_8c.html#a6a2774d671c637b0e59bdf11ecf12f03" target="_top" xlink:title=" ">
<polygon fill="white" stroke="#666666" points="485,-392.38 417.25,-392.38 417.25,-371.62 485,-371.62 485,-392.38"/>
<text text-anchor="middle" x="451.12" y="-378.88" font-family="Helvetica,sans-Serif" font-size="10.00">w2c__f337</text>
</a>
</g>
</g>
<!-- Node26&#45;&gt;Node29 -->
<g id="edge45_Node000026_Node000029" class="edge">
<title>Node26&#45;&gt;Node29</title>
<g id="a_edge45_Node000026_Node000029"><a xlink:title=" ">
<path fill="none" stroke="#63b8ff" d="M381.69,-394.78C389.41,-393.34 397.75,-391.78 405.86,-390.27"/>
<polygon fill="#63b8ff" stroke="#63b8ff" points="406.41,-393.72 415.59,-388.45 405.12,-386.84 406.41,-393.72"/>
</a>
</g>
</g>
<!-- Node28 -->
<g id="Node000028" class="node">
<title>Node28</title>
<g id="a_Node000028"><a xlink:href="app_8c.html#a1ed0745af60bea321780e5f860a89d43" target="_top" xlink:title=" ">
<polygon fill="white" stroke="#666666" points="589.88,-393.38 522.12,-393.38 522.12,-372.62 589.88,-372.62 589.88,-393.38"/>
<text text-anchor="middle" x="556" y="-379.88" font-family="Helvetica,sans-Serif" font-size="10.00">w2c__f522</text>
</a>
</g>
</g>
<!-- Node27&#45;&gt;Node28 -->
<g id="edge42_Node000027_Node000028" class="edge">
<title>Node27&#45;&gt;Node28</title>
<g id="a_edge42_Node000027_Node000028"><a xlink:title=" ">
<path fill="none" stroke="#63b8ff" d="M481.33,-410.21C491.86,-406.32 503.94,-401.86 515.22,-397.69"/>
<polygon fill="#63b8ff" stroke="#63b8ff" points="516.13,-401.09 524.3,-394.34 513.71,-394.52 516.13,-401.09"/>
</a>
</g>
</g>
<!-- Node28&#45;&gt;Node8 -->
<g id="edge43_Node000028_Node000008" class="edge">
<title>Node28&#45;&gt;Node8</title>
<g id="a_edge43_Node000028_Node000008"><a xlink:title=" ">
<path fill="none" stroke="#63b8ff" d="M590.2,-385.28C618.68,-388.06 660.44,-394.09 694.75,-407 710.88,-413.07 727.43,-423.02 740.25,-431.7"/>
<polygon fill="#63b8ff" stroke="#63b8ff" points="738.23,-434.56 748.43,-437.44 742.25,-428.83 738.23,-434.56"/>
</a>
</g>
</g>
<!-- Node28&#45;&gt;Node12 -->
<g id="edge44_Node000028_Node000012" class="edge">
<title>Node28&#45;&gt;Node12</title>
<g id="a_edge44_Node000028_Node000012"><a xlink:title=" ">
<path fill="none" stroke="#63b8ff" d="M566.49,-393.52C583.78,-412.68 620.64,-453.52 642.52,-477.77"/>
<polygon fill="#63b8ff" stroke="#63b8ff" points="639.79,-479.97 649.09,-485.05 644.99,-475.28 639.79,-479.97"/>
</a>
</g>
</g>
<!-- Node31&#45;&gt;Node13 -->
<g id="edge50_Node000031_Node000013" class="edge">
<title>Node31&#45;&gt;Node13</title>
<g id="a_edge50_Node000031_Node000013"><a xlink:title=" ">
<path fill="none" stroke="#63b8ff" d="M695.19,-728C702.82,-728 711.06,-728 719.08,-728"/>
<polygon fill="#63b8ff" stroke="#63b8ff" points="719.07,-731.5 729.07,-728 719.07,-724.5 719.07,-731.5"/>
</a>
</g>
</g>
<!-- Node32&#45;&gt;Node6 -->
<g id="edge54_Node000032_Node000006" class="edge">
<title>Node32&#45;&gt;Node6</title>
<g id="a_edge54_Node000032_Node000006"><a xlink:title=" ">
<path fill="none" stroke="#63b8ff" d="M277.84,-571.11C334.08,-566.22 448.05,-556.3 510.91,-550.84"/>
<polygon fill="#63b8ff" stroke="#63b8ff" points="510.86,-554.35 520.52,-550 510.25,-547.38 510.86,-554.35"/>
</a>
</g>
</g>
<!-- Node33&#45;&gt;Node13 -->
<g id="edge61_Node000033_Node000013" class="edge">
<title>Node33&#45;&gt;Node13</title>
<g id="a_edge61_Node000033_Node000013"><a xlink:title=" ">
<path fill="none" stroke="#63b8ff" d="M461.55,-708.18C476.83,-690.98 506.71,-658.74 521,-653 549.87,-641.4 560.3,-647.96 591,-653 639.02,-660.88 650.43,-667.9 694.75,-688 709.46,-694.67 725.08,-703.58 737.72,-711.29"/>
<polygon fill="#63b8ff" stroke="#63b8ff" points="735.52,-714.05 745.86,-716.36 739.22,-708.11 735.52,-714.05"/>
</a>
</g>
</g>
<!-- Node33&#45;&gt;Node31 -->
<g id="edge60_Node000033_Node000031" class="edge">
<title>Node33&#45;&gt;Node31</title>
<g id="a_edge60_Node000033_Node000031"><a xlink:title=" ">
<path fill="none" stroke="#63b8ff" d="M485.04,-720.43C520.27,-721.95 576.35,-724.38 615.47,-726.08"/>
<polygon fill="#63b8ff" stroke="#63b8ff" points="615.11,-729.56 625.25,-726.5 615.42,-722.57 615.11,-729.56"/>
</a>
</g>
</g>
<!-- Node34 -->
<g id="Node000034" class="node">
<title>Node34</title>
<g id="a_Node000034"><a xlink:href="app_8c.html#a177b896bb3ca11b154be35fca033e047" target="_top" xlink:title=" ">
<polygon fill="white" stroke="#666666" points="589.88,-682.38 522.12,-682.38 522.12,-661.62 589.88,-661.62 589.88,-682.38"/>
<text text-anchor="middle" x="556" y="-668.88" font-family="Helvetica,sans-Serif" font-size="10.00">w2c__f235</text>
</a>
</g>
</g>
<!-- Node33&#45;&gt;Node34 -->
<g id="edge56_Node000033_Node000034" class="edge">
<title>Node33&#45;&gt;Node34</title>
<g id="a_edge56_Node000033_Node000034"><a xlink:title=" ">
<path fill="none" stroke="#63b8ff" d="M475.73,-708.22C489.19,-702.07 506.29,-694.25 521.16,-687.46"/>
<polygon fill="#63b8ff" stroke="#63b8ff" points="522.49,-690.7 530.13,-683.36 519.58,-684.33 522.49,-690.7"/>
</a>
</g>
</g>
<!-- Node34&#45;&gt;Node13 -->
<g id="edge59_Node000034_Node000013" class="edge">
<title>Node34&#45;&gt;Node13</title>
<g id="a_edge59_Node000034_Node000013"><a xlink:title=" ">
<path fill="none" stroke="#63b8ff" d="M590.14,-680.83C618.05,-688.29 659.03,-699.28 694.75,-709 702.73,-711.17 711.23,-713.5 719.43,-715.76"/>
<polygon fill="#63b8ff" stroke="#63b8ff" points="718.33,-719.09 728.9,-718.37 720.19,-712.34 718.33,-719.09"/>
</a>
</g>
</g>
<!-- Node34&#45;&gt;Node31 -->
<g id="edge58_Node000034_Node000031" class="edge">
<title>Node34&#45;&gt;Node31</title>
<g id="a_edge58_Node000034_Node000031"><a xlink:title=" ">
<path fill="none" stroke="#63b8ff" d="M576.84,-682.8C591.92,-691.01 612.93,-702.44 630.04,-711.76"/>
<polygon fill="#63b8ff" stroke="#63b8ff" points="628.31,-714.81 638.77,-716.51 631.66,-708.66 628.31,-714.81"/>
</a>
</g>
</g>
<!-- Node34&#45;&gt;Node34 -->
<g id="edge57_Node000034_Node000034" class="edge">
<title>Node34&#45;&gt;Node34</title>
<g id="a_edge57_Node000034_Node000034"><a xlink:title=" ">
<path fill="none" stroke="#63b8ff" d="M539.1,-682.77C532.34,-691.43 537.97,-700.38 556,-700.38 565.58,-700.38 571.65,-697.85 574.24,-694.19"/>
<polygon fill="#63b8ff" stroke="#63b8ff" points="577.71,-693.8 573.07,-684.28 570.76,-694.61 577.71,-693.8"/>
</a>
</g>
</g>
<!-- Node35&#45;&gt;Node6 -->
<g id="edge72_Node000035_Node000006" class="edge">
<title>Node35&#45;&gt;Node6</title>
<g id="a_edge72_Node000035_Node000006"><a xlink:title=" ">
<path fill="none" stroke="#63b8ff" d="M454.57,-241.8C462.48,-276.15 488.75,-385.73 521,-473 527.8,-491.39 537.2,-511.57 544.4,-526.2"/>
<polygon fill="#63b8ff" stroke="#63b8ff" points="541.12,-527.46 548.72,-534.84 547.38,-524.33 541.12,-527.46"/>
</a>
</g>
</g>
<!-- Node35&#45;&gt;Node8 -->
<g id="edge65_Node000035_Node000008" class="edge">
<title>Node35&#45;&gt;Node8</title>
<g id="a_edge65_Node000035_Node000008"><a xlink:title=" ">
<path fill="none" stroke="#63b8ff" d="M485.22,-241.69C543.65,-261.04 662.03,-302.49 694.75,-331 725.46,-357.75 745.96,-401.7 756.13,-427.75"/>
<polygon fill="#63b8ff" stroke="#63b8ff" points="752.77,-428.76 759.54,-436.91 759.33,-426.31 752.77,-428.76"/>
</a>
</g>
</g>
<!-- Node35&#45;&gt;Node13 -->
<g id="edge71_Node000035_Node000013" class="edge">
<title>Node35&#45;&gt;Node13</title>
<g id="a_edge71_Node000035_Node000013"><a xlink:title=" ">
<path fill="none" stroke="#63b8ff" d="M455.53,-241.78C464.43,-269.33 489.87,-344.25 521,-402 560.25,-474.82 567.34,-497.7 627,-555 652.72,-579.7 670.54,-571.81 694.75,-598 724.96,-630.67 745.95,-679.08 756.28,-706.68"/>
<polygon fill="#63b8ff" stroke="#63b8ff" points="752.96,-707.8 759.64,-716.02 759.55,-705.43 752.96,-707.8"/>
</a>
</g>
</g>
<!-- Node35&#45;&gt;Node14 -->
<g id="edge73_Node000035_Node000014" class="edge">
<title>Node35&#45;&gt;Node14</title>
<g id="a_edge73_Node000035_Node000014"><a xlink:title=" ">
<path fill="none" stroke="#63b8ff" d="M454.58,-220.5C461.01,-195.24 480.72,-130.55 521,-95 580.27,-42.69 620.38,-30.22 694.75,-57 715.83,-64.59 735.04,-81.75 747.79,-95.27"/>
<polygon fill="#63b8ff" stroke="#63b8ff" points="744.88,-97.27 754.17,-102.37 750.08,-92.59 744.88,-97.27"/>
</a>
</g>
</g>
<!-- Node36 -->
<g id="Node000036" class="node">
<title>Node36</title>
<g id="a_Node000036"><a xlink:href="app_8c.html#a3037e52902578bf3349bd0f46d81e879" target="_top" xlink:title=" ">
<polygon fill="white" stroke="#666666" points="591,-241.38 521,-241.38 521,-220.62 591,-220.62 591,-241.38"/>
<text text-anchor="middle" x="556" y="-227.88" font-family="Helvetica,sans-Serif" font-size="10.00">w2c_0_110</text>
</a>
</g>
</g>
<!-- Node35&#45;&gt;Node36 -->
<g id="edge63_Node000035_Node000036" class="edge">
<title>Node35&#45;&gt;Node36</title>
<g id="a_edge63_Node000035_Node000036"><a xlink:title=" ">
<path fill="none" stroke="#63b8ff" d="M485.24,-231C492.91,-231 501.2,-231 509.29,-231"/>
<polygon fill="#63b8ff" stroke="#63b8ff" points="509.02,-234.5 519.02,-231 509.02,-227.5 509.02,-234.5"/>
</a>
</g>
</g>
<!-- Node37 -->
<g id="Node000037" class="node">
<title>Node37</title>
<g id="a_Node000037"><a xlink:href="app_8c.html#a507dc25ee41f8ff1077f0137cf35a54d" target="_top" xlink:title=" ">
<polygon fill="white" stroke="#666666" points="588,-202.38 524,-202.38 524,-181.62 588,-181.62 588,-202.38"/>
<text text-anchor="middle" x="556" y="-188.88" font-family="Helvetica,sans-Serif" font-size="10.00">w2c_0_59</text>
</a>
</g>
</g>
<!-- Node35&#45;&gt;Node37 -->
<g id="edge64_Node000035_Node000037" class="edge">
<title>Node35&#45;&gt;Node37</title>
<g id="a_edge64_Node000035_Node000037"><a xlink:title=" ">
<path fill="none" stroke="#63b8ff" d="M480.78,-220.14C491.71,-215.99 504.35,-211.2 516.07,-206.76"/>
<polygon fill="#63b8ff" stroke="#63b8ff" points="516.97,-210.16 525.08,-203.34 514.49,-203.61 516.97,-210.16"/>
</a>
</g>
</g>
<!-- Node38 -->
<g id="Node000038" class="node">
<title>Node38</title>
<g id="a_Node000038"><a xlink:href="app_8c.html#ab66cff17beb6fbf6b347e33dc43c5297" target="_top" xlink:title=" ">
<polygon fill="white" stroke="#666666" points="589.88,-124.38 522.12,-124.38 522.12,-103.62 589.88,-103.62 589.88,-124.38"/>
<text text-anchor="middle" x="556" y="-110.88" font-family="Helvetica,sans-Serif" font-size="10.00">w2c__f320</text>
</a>
</g>
</g>
<!-- Node35&#45;&gt;Node38 -->
<g id="edge66_Node000035_Node000038" class="edge">
<title>Node35&#45;&gt;Node38</title>
<g id="a_edge66_Node000035_Node000038"><a xlink:title=" ">
<path fill="none" stroke="#63b8ff" d="M457.73,-220.27C468.15,-201.11 492.09,-160.53 521,-134 522.05,-133.04 523.15,-132.1 524.3,-131.18"/>
<polygon fill="#63b8ff" stroke="#63b8ff" points="526.09,-134.2 532.3,-125.62 522.09,-128.46 526.09,-134.2"/>
</a>
</g>
</g>
<!-- Node40 -->
<g id="Node000040" class="node">
<title>Node40</title>
<g id="a_Node000040"><a xlink:href="app_8c.html#af202ab1efb62d0e517c715292ed21e82" target="_top" xlink:title=" ">
<polygon fill="white" stroke="#666666" points="589.88,-163.38 522.12,-163.38 522.12,-142.62 589.88,-142.62 589.88,-163.38"/>
<text text-anchor="middle" x="556" y="-149.88" font-family="Helvetica,sans-Serif" font-size="10.00">w2c__f395</text>
</a>
</g>
</g>
<!-- Node35&#45;&gt;Node40 -->
<g id="edge70_Node000035_Node000040" class="edge">
<title>Node35&#45;&gt;Node40</title>
<g id="a_edge70_Node000035_Node000040"><a xlink:title=" ">
<path fill="none" stroke="#63b8ff" d="M463.35,-220.53C476.6,-208.41 499.56,-188.17 521,-173 522.54,-171.91 524.14,-170.83 525.77,-169.76"/>
<polygon fill="#63b8ff" stroke="#63b8ff" points="527.3,-172.93 533.94,-164.67 523.6,-166.98 527.3,-172.93"/>
</a>
</g>
</g>
<!-- Node38&#45;&gt;Node14 -->
<g id="edge69_Node000038_Node000014" class="edge">
<title>Node38&#45;&gt;Node14</title>
<g id="a_edge69_Node000038_Node000014"><a xlink:title=" ">
<path fill="none" stroke="#63b8ff" d="M590.2,-114C625.14,-114 680.35,-114 719.06,-114"/>
<polygon fill="#63b8ff" stroke="#63b8ff" points="719,-117.5 729,-114 719,-110.5 719,-117.5"/>
</a>
</g>
</g>
<!-- Node38&#45;&gt;Node30 -->
<g id="edge68_Node000038_Node000030" class="edge">
<title>Node38&#45;&gt;Node30</title>
<g id="a_edge68_Node000038_Node000030"><a xlink:title=" ">
<path fill="none" stroke="#63b8ff" d="M586.2,-103.21C596.74,-99.32 608.81,-94.86 620.1,-90.69"/>
<polygon fill="#63b8ff" stroke="#63b8ff" points="621.01,-94.09 629.18,-87.34 618.58,-87.52 621.01,-94.09"/>
</a>
</g>
</g>
<!-- Node39 -->
<g id="Node000039" class="node">
<title>Node39</title>
<g id="a_Node000039"><a xlink:href="app_8c.html#af5f3f66642494d64ec680194a0409378" target="_top" xlink:title=" ">
<polygon fill="white" stroke="#666666" points="694.75,-162.38 627,-162.38 627,-141.62 694.75,-141.62 694.75,-162.38"/>
<text text-anchor="middle" x="660.88" y="-148.88" font-family="Helvetica,sans-Serif" font-size="10.00">w2c__f391</text>
</a>
</g>
</g>
<!-- Node38&#45;&gt;Node39 -->
<g id="edge67_Node000038_Node000039" class="edge">
<title>Node38&#45;&gt;Node39</title>
<g id="a_edge67_Node000038_Node000039"><a xlink:title=" ">
<path fill="none" stroke="#63b8ff" d="M586.2,-124.79C596.74,-128.68 608.81,-133.14 620.1,-137.31"/>
<polygon fill="#63b8ff" stroke="#63b8ff" points="618.58,-140.48 629.18,-140.66 621.01,-133.91 618.58,-140.48"/>
</a>
</g>
</g>
</g>
</svg>
