<?xml version="1.0" encoding="UTF-8" standalone="no"?>
<!DOCTYPE svg PUBLIC "-//W3C//DTD SVG 1.1//EN"
 "http://www.w3.org/Graphics/SVG/1.1/DTD/svg11.dtd">
<!-- Generated by graphviz version 12.2.1 (0)
 -->
<!-- Title: w2c_0_9 Pages: 1 -->
<svg width="980pt" height="468pt"
 viewBox="0.00 0.00 979.50 468.22" xmlns="http://www.w3.org/2000/svg" xmlns:xlink="http://www.w3.org/1999/xlink">
<g id="graph0" class="graph" transform="scale(1 1) rotate(0) translate(4 464.22)">
<title>w2c_0_9</title>
<!-- Node1 -->
<g id="Node000001" class="node">
<title>Node1</title>
<g id="a_Node000001"><a xlink:title=" ">
<polygon fill="#999999" stroke="#666666" points="971.5,-152.38 913.5,-152.38 913.5,-131.62 971.5,-131.62 971.5,-152.38"/>
<text text-anchor="middle" x="942.5" y="-138.88" font-family="Helvetica,sans-Serif" font-size="10.00">w2c_0_9</text>
</a>
</g>
</g>
<!-- Node2 -->
<g id="Node000002" class="node">
<title>Node2</title>
<g id="a_Node000002"><a xlink:href="app_8c.html#a9856384d540064b02407c53ce1a8be56" target="_top" xlink:title=" ">
<polygon fill="white" stroke="#666666" points="462.5,-124.38 394.75,-124.38 394.75,-103.62 462.5,-103.62 462.5,-124.38"/>
<text text-anchor="middle" x="428.62" y="-110.88" font-family="Helvetica,sans-Serif" font-size="10.00">w2c__f275</text>
</a>
</g>
</g>
<!-- Node1&#45;&gt;Node2 -->
<g id="edge1_Node000001_Node000002" class="edge">
<title>Node1&#45;&gt;Node2</title>
<g id="a_edge1_Node000001_Node000002"><a xlink:title=" ">
<path fill="none" stroke="#63b8ff" d="M927.36,-122.22C897.64,-83.19 824.49,0 740.88,0 740.88,0 740.88,0 635.12,0 572.1,0 552.14,-4.9 498.5,-38 470.77,-55.11 447.49,-86.6 436.47,-103.16"/>
<polygon fill="#63b8ff" stroke="#63b8ff" points="924.44,-124.16 933.21,-130.11 930.07,-119.99 924.44,-124.16"/>
</a>
</g>
</g>
<!-- Node9 -->
<g id="Node000009" class="node">
<title>Node9</title>
<g id="a_Node000009"><a xlink:href="app_8c.html#a59744f5a084c0a1456224d40ac2611e7" target="_top" xlink:title=" ">
<polygon fill="white" stroke="#666666" points="877.5,-294.38 809.75,-294.38 809.75,-273.62 877.5,-273.62 877.5,-294.38"/>
<text text-anchor="middle" x="843.62" y="-280.88" font-family="Helvetica,sans-Serif" font-size="10.00">w2c__f468</text>
</a>
</g>
</g>
<!-- Node1&#45;&gt;Node9 -->
<g id="edge9_Node000001_Node000009" class="edge">
<title>Node1&#45;&gt;Node9</title>
<g id="a_edge9_Node000001_Node000009"><a xlink:title=" ">
<path fill="none" stroke="#63b8ff" d="M927.93,-161.89C907.17,-192.33 868.2,-249.44 851.99,-273.2"/>
<polygon fill="#63b8ff" stroke="#63b8ff" points="930.62,-164.16 933.37,-153.92 924.84,-160.21 930.62,-164.16"/>
</a>
</g>
</g>
<!-- Node2&#45;&gt;Node2 -->
<g id="edge2_Node000002_Node000002" class="edge">
<title>Node2&#45;&gt;Node2</title>
<g id="a_edge2_Node000002_Node000002"><a xlink:title=" ">
<path fill="none" stroke="#63b8ff" d="M446.66,-136.19C444.11,-139.85 438.1,-142.38 428.62,-142.38 410.79,-142.38 405.22,-133.43 411.91,-124.77"/>
<polygon fill="#63b8ff" stroke="#63b8ff" points="450.14,-135.81 445.52,-126.28 443.19,-136.61 450.14,-135.81"/>
</a>
</g>
</g>
<!-- Node3 -->
<g id="Node000003" class="node">
<title>Node3</title>
<g id="a_Node000003"><a xlink:href="app_8c.html#aac449994afd8488e2efd16fb19f0ecb1" target="_top" xlink:title=" ">
<polygon fill="white" stroke="#666666" points="358.75,-275.38 291,-275.38 291,-254.62 358.75,-254.62 358.75,-275.38"/>
<text text-anchor="middle" x="324.88" y="-261.88" font-family="Helvetica,sans-Serif" font-size="10.00">w2c__f336</text>
</a>
</g>
</g>
<!-- Node2&#45;&gt;Node3 -->
<g id="edge3_Node000002_Node000003" class="edge">
<title>Node2&#45;&gt;Node3</title>
<g id="a_edge3_Node000002_Node000003"><a xlink:title=" ">
<path fill="none" stroke="#63b8ff" d="M413.98,-134.25C392.12,-166.69 350,-229.2 333.13,-254.24"/>
<polygon fill="#63b8ff" stroke="#63b8ff" points="416.78,-136.36 419.46,-126.11 410.97,-132.45 416.78,-136.36"/>
</a>
</g>
</g>
<!-- Node4 -->
<g id="Node000004" class="node">
<title>Node4</title>
<g id="a_Node000004"><a xlink:href="app_8c.html#ac863989691d4c389f80374209c220171" target="_top" xlink:title=" ">
<polygon fill="white" stroke="#666666" points="252.38,-295.38 189.88,-295.38 189.88,-274.62 252.38,-274.62 252.38,-295.38"/>
<text text-anchor="middle" x="221.12" y="-281.88" font-family="Helvetica,sans-Serif" font-size="10.00">w2c__c_0</text>
</a>
</g>
</g>
<!-- Node3&#45;&gt;Node4 -->
<g id="edge4_Node000003_Node000004" class="edge">
<title>Node3&#45;&gt;Node4</title>
<g id="a_edge4_Node000003_Node000004"><a xlink:title=" ">
<path fill="none" stroke="#63b8ff" d="M279.4,-273.74C270.41,-275.51 261.15,-277.33 252.76,-278.98"/>
<polygon fill="#63b8ff" stroke="#63b8ff" points="279.94,-277.2 289.07,-271.84 278.59,-270.34 279.94,-277.2"/>
</a>
</g>
</g>
<!-- Node6 -->
<g id="Node000006" class="node">
<title>Node6</title>
<g id="a_Node000006"><a xlink:href="app_8c.html#a8f312e54d76623b1ae169d5d19736ee0" target="_top" xlink:title=" ">
<polygon fill="white" stroke="#666666" points="255,-256.38 187.25,-256.38 187.25,-235.62 255,-235.62 255,-256.38"/>
<text text-anchor="middle" x="221.12" y="-242.88" font-family="Helvetica,sans-Serif" font-size="10.00">w2c__f363</text>
</a>
</g>
</g>
<!-- Node3&#45;&gt;Node6 -->
<g id="edge6_Node000003_Node000006" class="edge">
<title>Node3&#45;&gt;Node6</title>
<g id="a_edge6_Node000003_Node000006"><a xlink:title=" ">
<path fill="none" stroke="#63b8ff" d="M279.32,-256.68C271.21,-255.17 262.88,-253.61 255.17,-252.17"/>
<polygon fill="#63b8ff" stroke="#63b8ff" points="278.6,-260.11 289.07,-258.5 279.88,-253.22 278.6,-260.11"/>
</a>
</g>
</g>
<!-- Node5 -->
<g id="Node000005" class="node">
<title>Node5</title>
<g id="a_Node000005"><a xlink:href="app_8c.html#ab1e039392ea68017ab8a6063263b147d" target="_top" xlink:title=" ">
<polygon fill="white" stroke="#666666" points="145.25,-295.38 94,-295.38 94,-274.62 145.25,-274.62 145.25,-295.38"/>
<text text-anchor="middle" x="119.62" y="-281.88" font-family="Helvetica,sans-Serif" font-size="10.00">w2c__c</text>
</a>
</g>
</g>
<!-- Node4&#45;&gt;Node5 -->
<g id="edge5_Node000004_Node000005" class="edge">
<title>Node4&#45;&gt;Node5</title>
<g id="a_edge5_Node000004_Node000005"><a xlink:title=" ">
<path fill="none" stroke="#63b8ff" d="M178.21,-285C167.15,-285 155.55,-285 145.68,-285"/>
<polygon fill="#63b8ff" stroke="#63b8ff" points="177.95,-288.5 187.95,-285 177.95,-281.5 177.95,-288.5"/>
</a>
</g>
</g>
<!-- Node7 -->
<g id="Node000007" class="node">
<title>Node7</title>
<g id="a_Node000007"><a xlink:href="app_8c.html#a26657f10c51f10eeb57a4d27606a6885" target="_top" xlink:title=" ">
<polygon fill="white" stroke="#666666" points="151.25,-256.38 88,-256.38 88,-235.62 151.25,-235.62 151.25,-256.38"/>
<text text-anchor="middle" x="119.62" y="-242.88" font-family="Helvetica,sans-Serif" font-size="10.00">w2c__b_0</text>
</a>
</g>
</g>
<!-- Node6&#45;&gt;Node7 -->
<g id="edge7_Node000006_Node000007" class="edge">
<title>Node6&#45;&gt;Node7</title>
<g id="a_edge7_Node000006_Node000007"><a xlink:title=" ">
<path fill="none" stroke="#63b8ff" d="M175.71,-246C167.57,-246 159.23,-246 151.59,-246"/>
<polygon fill="#63b8ff" stroke="#63b8ff" points="175.48,-249.5 185.48,-246 175.48,-242.5 175.48,-249.5"/>
</a>
</g>
</g>
<!-- Node8 -->
<g id="Node000008" class="node">
<title>Node8</title>
<g id="a_Node000008"><a xlink:href="app_8c.html#a683a2045346c3209e9dac20d55933c7d" target="_top" xlink:title=" ">
<polygon fill="white" stroke="#666666" points="52,-256.38 0,-256.38 0,-235.62 52,-235.62 52,-256.38"/>
<text text-anchor="middle" x="26" y="-242.88" font-family="Helvetica,sans-Serif" font-size="10.00">w2c__b</text>
</a>
</g>
</g>
<!-- Node7&#45;&gt;Node8 -->
<g id="edge8_Node000007_Node000008" class="edge">
<title>Node7&#45;&gt;Node8</title>
<g id="a_edge8_Node000007_Node000008"><a xlink:title=" ">
<path fill="none" stroke="#63b8ff" d="M76.21,-246C68,-246 59.65,-246 52.21,-246"/>
<polygon fill="#63b8ff" stroke="#63b8ff" points="76.09,-249.5 86.09,-246 76.09,-242.5 76.09,-249.5"/>
</a>
</g>
</g>
<!-- Node9&#45;&gt;Node2 -->
<g id="edge10_Node000009_Node000002" class="edge">
<title>Node9&#45;&gt;Node2</title>
<g id="a_edge10_Node000009_Node000002"><a xlink:title=" ">
<path fill="none" stroke="#63b8ff" d="M833.43,-262.79C812.34,-217.27 755.66,-111.09 670,-71 600.74,-38.58 570.45,-31.09 498.5,-57 472.8,-66.26 449.88,-89.73 438.07,-103.49"/>
<polygon fill="#63b8ff" stroke="#63b8ff" points="830.2,-264.15 837.5,-271.84 836.59,-261.28 830.2,-264.15"/>
</a>
</g>
</g>
<!-- Node9&#45;&gt;Node3 -->
<g id="edge17_Node000009_Node000003" class="edge">
<title>Node9&#45;&gt;Node3</title>
<g id="a_edge17_Node000009_Node000003"><a xlink:title=" ">
<path fill="none" stroke="#63b8ff" d="M798.14,-284C756.52,-284 692.61,-284 637.12,-284 637.12,-284 637.12,-284 531.38,-284 470.47,-284 399.83,-275.62 359.25,-269.99"/>
<polygon fill="#63b8ff" stroke="#63b8ff" points="798.01,-287.5 808.01,-284 798.01,-280.5 798.01,-287.5"/>
</a>
</g>
</g>
<!-- Node10 -->
<g id="Node000010" class="node">
<title>Node10</title>
<g id="a_Node000010"><a xlink:href="app_8c.html#a4f1571983eb8b10007474101465ef041" target="_top" xlink:title=" ">
<polygon fill="white" stroke="#666666" points="670,-332.38 602.25,-332.38 602.25,-311.62 670,-311.62 670,-332.38"/>
<text text-anchor="middle" x="636.12" y="-318.88" font-family="Helvetica,sans-Serif" font-size="10.00">w2c__f287</text>
</a>
</g>
</g>
<!-- Node9&#45;&gt;Node10 -->
<g id="edge11_Node000009_Node000010" class="edge">
<title>Node9&#45;&gt;Node10</title>
<g id="a_edge11_Node000009_Node000010"><a xlink:title=" ">
<path fill="none" stroke="#63b8ff" d="M798.17,-293.22C790.06,-294.85 781.65,-296.5 773.75,-298 738.49,-304.68 697.99,-311.71 670.3,-316.43"/>
<polygon fill="#63b8ff" stroke="#63b8ff" points="798.79,-296.66 807.9,-291.24 797.4,-289.8 798.79,-296.66"/>
</a>
</g>
</g>
<!-- Node12 -->
<g id="Node000012" class="node">
<title>Node12</title>
<g id="a_Node000012"><a xlink:href="app_8c.html#a114660805d6920291a2827ae740d4777" target="_top" xlink:title=" ">
<polygon fill="white" stroke="#666666" points="566.25,-408.38 498.5,-408.38 498.5,-387.62 566.25,-387.62 566.25,-408.38"/>
<text text-anchor="middle" x="532.38" y="-394.88" font-family="Helvetica,sans-Serif" font-size="10.00">w2c__f571</text>
</a>
</g>
</g>
<!-- Node9&#45;&gt;Node12 -->
<g id="edge36_Node000009_Node000012" class="edge">
<title>Node9&#45;&gt;Node12</title>
<g id="a_edge36_Node000009_Node000012"><a xlink:title=" ">
<path fill="none" stroke="#63b8ff" d="M830.71,-304.71C806.54,-344.12 747.4,-428.22 670,-453 641.32,-462.18 630.67,-462.95 602.25,-453 577.12,-444.2 554.33,-421.95 542.31,-408.6"/>
<polygon fill="#63b8ff" stroke="#63b8ff" points="833.69,-306.54 835.81,-296.16 827.68,-302.95 833.69,-306.54"/>
</a>
</g>
</g>
<!-- Node13 -->
<g id="Node000013" class="node">
<title>Node13</title>
<g id="a_Node000013"><a xlink:href="app_8c.html#a369480ebb798d5578ca00b16d6d2c658" target="_top" xlink:title=" ">
<polygon fill="white" stroke="#666666" points="773.75,-195.38 706,-195.38 706,-174.62 773.75,-174.62 773.75,-195.38"/>
<text text-anchor="middle" x="739.88" y="-181.88" font-family="Helvetica,sans-Serif" font-size="10.00">w2c__f446</text>
</a>
</g>
</g>
<!-- Node9&#45;&gt;Node13 -->
<g id="edge18_Node000009_Node000013" class="edge">
<title>Node9&#45;&gt;Node13</title>
<g id="a_edge18_Node000009_Node000013"><a xlink:title=" ">
<path fill="none" stroke="#63b8ff" d="M823.52,-265.41C802.43,-244.89 769.18,-212.54 751.99,-195.82"/>
<polygon fill="#63b8ff" stroke="#63b8ff" points="821.04,-267.88 830.65,-272.35 825.92,-262.87 821.04,-267.88"/>
</a>
</g>
</g>
<!-- Node17 -->
<g id="Node000017" class="node">
<title>Node17</title>
<g id="a_Node000017"><a xlink:href="app_8c.html#aa5901cdf06a4d555e435828d47aeb370" target="_top" xlink:title=" ">
<polygon fill="white" stroke="#666666" points="773.75,-370.38 706,-370.38 706,-349.62 773.75,-349.62 773.75,-370.38"/>
<text text-anchor="middle" x="739.88" y="-356.88" font-family="Helvetica,sans-Serif" font-size="10.00">w2c__f560</text>
</a>
</g>
</g>
<!-- Node9&#45;&gt;Node17 -->
<g id="edge29_Node000009_Node000017" class="edge">
<title>Node9&#45;&gt;Node17</title>
<g id="a_edge29_Node000009_Node000017"><a xlink:title=" ">
<path fill="none" stroke="#63b8ff" d="M819.47,-301.63C806.14,-311.74 789.04,-324.64 773.75,-336 767.85,-340.38 761.32,-345.16 755.64,-349.3"/>
<polygon fill="#63b8ff" stroke="#63b8ff" points="821.38,-304.57 827.22,-295.74 817.14,-299 821.38,-304.57"/>
</a>
</g>
</g>
<!-- Node11 -->
<g id="Node000011" class="node">
<title>Node11</title>
<g id="a_Node000011"><a xlink:href="app_8c.html#a4e0e8b8ddb7852b111d530fef11aca0b" target="_top" xlink:title=" ">
<polygon fill="white" stroke="#666666" points="462.5,-351.38 394.75,-351.38 394.75,-330.62 462.5,-330.62 462.5,-351.38"/>
<text text-anchor="middle" x="428.62" y="-337.88" font-family="Helvetica,sans-Serif" font-size="10.00">w2c__f434</text>
</a>
</g>
</g>
<!-- Node10&#45;&gt;Node11 -->
<g id="edge12_Node000010_Node000011" class="edge">
<title>Node10&#45;&gt;Node11</title>
<g id="a_edge12_Node000010_Node000011"><a xlink:title=" ">
<path fill="none" stroke="#63b8ff" d="M590.75,-326.1C552.34,-329.65 497.65,-334.71 462.9,-337.92"/>
<polygon fill="#63b8ff" stroke="#63b8ff" points="590.97,-329.6 600.6,-325.19 590.32,-322.63 590.97,-329.6"/>
</a>
</g>
</g>
<!-- Node10&#45;&gt;Node12 -->
<g id="edge14_Node000010_Node000012" class="edge">
<title>Node10&#45;&gt;Node12</title>
<g id="a_edge14_Node000010_Node000012"><a xlink:title=" ">
<path fill="none" stroke="#63b8ff" d="M612.01,-339.27C592.25,-354.03 564.44,-374.8 547.73,-387.28"/>
<polygon fill="#63b8ff" stroke="#63b8ff" points="613.85,-342.26 619.76,-333.47 609.66,-336.65 613.85,-342.26"/>
</a>
</g>
</g>
<!-- Node11&#45;&gt;Node3 -->
<g id="edge13_Node000011_Node000003" class="edge">
<title>Node11&#45;&gt;Node3</title>
<g id="a_edge13_Node000011_Node000003"><a xlink:title=" ">
<path fill="none" stroke="#63b8ff" d="M404.51,-323.73C384.75,-308.97 356.94,-288.2 340.23,-275.72"/>
<polygon fill="#63b8ff" stroke="#63b8ff" points="402.16,-326.35 412.26,-329.53 406.35,-320.74 402.16,-326.35"/>
</a>
</g>
</g>
<!-- Node12&#45;&gt;Node11 -->
<g id="edge15_Node000012_Node000011" class="edge">
<title>Node12&#45;&gt;Node11</title>
<g id="a_edge15_Node000012_Node000011"><a xlink:title=" ">
<path fill="none" stroke="#63b8ff" d="M502.22,-381.67C485.15,-372.1 464.06,-360.29 449.02,-351.87"/>
<polygon fill="#63b8ff" stroke="#63b8ff" points="500.48,-384.71 510.92,-386.54 503.9,-378.6 500.48,-384.71"/>
</a>
</g>
</g>
<!-- Node12&#45;&gt;Node12 -->
<g id="edge16_Node000012_Node000012" class="edge">
<title>Node12&#45;&gt;Node12</title>
<g id="a_edge16_Node000012_Node000012"><a xlink:title=" ">
<path fill="none" stroke="#63b8ff" d="M550.41,-420.19C547.86,-423.85 541.85,-426.38 532.38,-426.38 514.54,-426.38 508.97,-417.43 515.66,-408.77"/>
<polygon fill="#63b8ff" stroke="#63b8ff" points="553.89,-419.81 549.27,-410.28 546.94,-420.61 553.89,-419.81"/>
</a>
</g>
</g>
<!-- Node13&#45;&gt;Node2 -->
<g id="edge19_Node000013_Node000002" class="edge">
<title>Node13&#45;&gt;Node2</title>
<g id="a_edge19_Node000013_Node000002"><a xlink:title=" ">
<path fill="none" stroke="#63b8ff" d="M694.63,-196.37C644.69,-206.85 562.13,-216.96 498.5,-189 468.4,-175.77 445.68,-142.17 435.51,-124.79"/>
<polygon fill="#63b8ff" stroke="#63b8ff" points="695.19,-199.83 704.21,-194.26 693.69,-192.99 695.19,-199.83"/>
</a>
</g>
</g>
<!-- Node13&#45;&gt;Node3 -->
<g id="edge20_Node000013_Node000003" class="edge">
<title>Node13&#45;&gt;Node3</title>
<g id="a_edge20_Node000013_Node000003"><a xlink:title=" ">
<path fill="none" stroke="#63b8ff" d="M710.54,-201.03C698.4,-207.24 683.85,-213.85 670,-218 559.1,-251.25 420.98,-261.06 358.85,-263.89"/>
<polygon fill="#63b8ff" stroke="#63b8ff" points="711.98,-204.23 719.17,-196.45 708.7,-198.05 711.98,-204.23"/>
</a>
</g>
</g>
<!-- Node14 -->
<g id="Node000014" class="node">
<title>Node14</title>
<g id="a_Node000014"><a xlink:href="app_8c.html#aada8f3762f0960bddf55a2e59d8087f8" target="_top" xlink:title=" ">
<polygon fill="white" stroke="#666666" points="670,-124.38 602.25,-124.38 602.25,-103.62 670,-103.62 670,-124.38"/>
<text text-anchor="middle" x="636.12" y="-110.88" font-family="Helvetica,sans-Serif" font-size="10.00">w2c__f375</text>
</a>
</g>
</g>
<!-- Node13&#45;&gt;Node14 -->
<g id="edge21_Node000013_Node000014" class="edge">
<title>Node13&#45;&gt;Node14</title>
<g id="a_edge21_Node000013_Node000014"><a xlink:title=" ">
<path fill="none" stroke="#63b8ff" d="M714.06,-167.68C694.79,-154.24 668.7,-136.03 652.39,-124.65"/>
<polygon fill="#63b8ff" stroke="#63b8ff" points="711.98,-170.5 722.18,-173.35 715.98,-164.76 711.98,-170.5"/>
</a>
</g>
</g>
<!-- Node15 -->
<g id="Node000015" class="node">
<title>Node15</title>
<g id="a_Node000015"><a xlink:href="app_8c.html#ae4bb39cfb5a24045c9b864563ef76ba6" target="_top" xlink:title=" ">
<polygon fill="white" stroke="#666666" points="566.25,-86.38 498.5,-86.38 498.5,-65.62 566.25,-65.62 566.25,-86.38"/>
<text text-anchor="middle" x="532.38" y="-72.88" font-family="Helvetica,sans-Serif" font-size="10.00">w2c__f579</text>
</a>
</g>
</g>
<!-- Node13&#45;&gt;Node15 -->
<g id="edge28_Node000013_Node000015" class="edge">
<title>Node13&#45;&gt;Node15</title>
<g id="a_edge28_Node000013_Node000015"><a xlink:title=" ">
<path fill="none" stroke="#63b8ff" d="M728.95,-163.96C717.78,-142.79 697.52,-111.05 670,-95 638.35,-76.54 595.73,-73.36 566.56,-73.79"/>
<polygon fill="#63b8ff" stroke="#63b8ff" points="725.8,-165.48 733.41,-172.85 732.05,-162.34 725.8,-165.48"/>
</a>
</g>
</g>
<!-- Node16 -->
<g id="Node000016" class="node">
<title>Node16</title>
<g id="a_Node000016"><a xlink:href="app_8c.html#a98b6c466c826c179b34e726bb6a4bebc" target="_top" xlink:title=" ">
<polygon fill="white" stroke="#666666" points="566.25,-162.38 498.5,-162.38 498.5,-141.62 566.25,-141.62 566.25,-162.38"/>
<text text-anchor="middle" x="532.38" y="-148.88" font-family="Helvetica,sans-Serif" font-size="10.00">w2c__f422</text>
</a>
</g>
</g>
<!-- Node13&#45;&gt;Node16 -->
<g id="edge25_Node000013_Node000016" class="edge">
<title>Node13&#45;&gt;Node16</title>
<g id="a_edge25_Node000013_Node000016"><a xlink:title=" ">
<path fill="none" stroke="#63b8ff" d="M694.5,-177.87C656.09,-171.71 601.4,-162.92 566.65,-157.34"/>
<polygon fill="#63b8ff" stroke="#63b8ff" points="693.94,-181.33 704.36,-179.46 695.04,-174.42 693.94,-181.33"/>
</a>
</g>
</g>
<!-- Node14&#45;&gt;Node2 -->
<g id="edge22_Node000014_Node000002" class="edge">
<title>Node14&#45;&gt;Node2</title>
<g id="a_edge22_Node000014_Node000002"><a xlink:title=" ">
<path fill="none" stroke="#63b8ff" d="M590.75,-114C552.34,-114 497.65,-114 462.9,-114"/>
<polygon fill="#63b8ff" stroke="#63b8ff" points="590.59,-117.5 600.59,-114 590.59,-110.5 590.59,-117.5"/>
</a>
</g>
</g>
<!-- Node14&#45;&gt;Node15 -->
<g id="edge23_Node000014_Node000015" class="edge">
<title>Node14&#45;&gt;Node15</title>
<g id="a_edge23_Node000014_Node000015"><a xlink:title=" ">
<path fill="none" stroke="#63b8ff" d="M595.51,-99.21C584.46,-95.08 572.65,-90.67 562.33,-86.81"/>
<polygon fill="#63b8ff" stroke="#63b8ff" points="594.23,-102.46 604.82,-102.68 596.68,-95.91 594.23,-102.46"/>
</a>
</g>
</g>
<!-- Node15&#45;&gt;Node2 -->
<g id="edge24_Node000015_Node000002" class="edge">
<title>Node15&#45;&gt;Node2</title>
<g id="a_edge24_Node000015_Node000002"><a xlink:title=" ">
<path fill="none" stroke="#63b8ff" d="M491.76,-90.79C480.71,-94.92 468.9,-99.33 458.58,-103.19"/>
<polygon fill="#63b8ff" stroke="#63b8ff" points="492.93,-94.09 501.07,-87.32 490.48,-87.54 492.93,-94.09"/>
</a>
</g>
</g>
<!-- Node16&#45;&gt;Node2 -->
<g id="edge26_Node000016_Node000002" class="edge">
<title>Node16&#45;&gt;Node2</title>
<g id="a_edge26_Node000016_Node000002"><a xlink:title=" ">
<path fill="none" stroke="#63b8ff" d="M491.76,-137.21C480.71,-133.08 468.9,-128.67 458.58,-124.81"/>
<polygon fill="#63b8ff" stroke="#63b8ff" points="490.48,-140.46 501.07,-140.68 492.93,-133.91 490.48,-140.46"/>
</a>
</g>
</g>
<!-- Node16&#45;&gt;Node16 -->
<g id="edge27_Node000016_Node000016" class="edge">
<title>Node16&#45;&gt;Node16</title>
<g id="a_edge27_Node000016_Node000016"><a xlink:title=" ">
<path fill="none" stroke="#63b8ff" d="M550.41,-174.19C547.86,-177.85 541.85,-180.38 532.38,-180.38 514.54,-180.38 508.97,-171.43 515.66,-162.77"/>
<polygon fill="#63b8ff" stroke="#63b8ff" points="553.89,-173.81 549.27,-164.28 546.94,-174.61 553.89,-173.81"/>
</a>
</g>
</g>
<!-- Node17&#45;&gt;Node10 -->
<g id="edge30_Node000017_Node000010" class="edge">
<title>Node17&#45;&gt;Node10</title>
<g id="a_edge30_Node000017_Node000010"><a xlink:title=" ">
<path fill="none" stroke="#63b8ff" d="M699.26,-345.21C688.21,-341.08 676.4,-336.67 666.08,-332.81"/>
<polygon fill="#63b8ff" stroke="#63b8ff" points="697.98,-348.46 708.57,-348.68 700.43,-341.91 697.98,-348.46"/>
</a>
</g>
</g>
<!-- Node17&#45;&gt;Node11 -->
<g id="edge31_Node000017_Node000011" class="edge">
<title>Node17&#45;&gt;Node11</title>
<g id="a_edge31_Node000017_Node000011"><a xlink:title=" ">
<path fill="none" stroke="#63b8ff" d="M694.54,-357.61C646.3,-354.96 566.9,-350.47 498.5,-346 486.9,-345.24 474.2,-344.34 462.9,-343.51"/>
<polygon fill="#63b8ff" stroke="#63b8ff" points="694.13,-361.09 704.3,-358.14 694.51,-354.1 694.13,-361.09"/>
</a>
</g>
</g>
<!-- Node17&#45;&gt;Node12 -->
<g id="edge35_Node000017_Node000012" class="edge">
<title>Node17&#45;&gt;Node12</title>
<g id="a_edge35_Node000017_Node000012"><a xlink:title=" ">
<path fill="none" stroke="#63b8ff" d="M727,-380.49C715.17,-398.65 695.17,-423.94 670,-435 642.43,-447.11 631.45,-442.35 602.25,-435 582.24,-429.97 561.71,-417.87 548.33,-408.87"/>
<polygon fill="#63b8ff" stroke="#63b8ff" points="729.92,-382.42 732.2,-372.08 723.96,-378.74 729.92,-382.42"/>
</a>
</g>
</g>
<!-- Node18 -->
<g id="Node000018" class="node">
<title>Node18</title>
<g id="a_Node000018"><a xlink:href="app_8c.html#ad1be79736d98f29af0fb54c49f571e84" target="_top" xlink:title=" ">
<polygon fill="white" stroke="#666666" points="670,-408.38 602.25,-408.38 602.25,-387.62 670,-387.62 670,-408.38"/>
<text text-anchor="middle" x="636.12" y="-394.88" font-family="Helvetica,sans-Serif" font-size="10.00">w2c__f536</text>
</a>
</g>
</g>
<!-- Node17&#45;&gt;Node18 -->
<g id="edge32_Node000017_Node000018" class="edge">
<title>Node17&#45;&gt;Node18</title>
<g id="a_edge32_Node000017_Node000018"><a xlink:title=" ">
<path fill="none" stroke="#63b8ff" d="M699.26,-374.79C688.21,-378.92 676.4,-383.33 666.08,-387.19"/>
<polygon fill="#63b8ff" stroke="#63b8ff" points="700.43,-378.09 708.57,-371.32 697.98,-371.54 700.43,-378.09"/>
</a>
</g>
</g>
<!-- Node18&#45;&gt;Node12 -->
<g id="edge34_Node000018_Node000012" class="edge">
<title>Node18&#45;&gt;Node12</title>
<g id="a_edge34_Node000018_Node000012"><a xlink:title=" ">
<path fill="none" stroke="#63b8ff" d="M590.57,-398C582.46,-398 574.13,-398 566.42,-398"/>
<polygon fill="#63b8ff" stroke="#63b8ff" points="590.29,-401.5 600.29,-398 590.29,-394.5 590.29,-401.5"/>
</a>
</g>
</g>
<!-- Node18&#45;&gt;Node18 -->
<g id="edge33_Node000018_Node000018" class="edge">
<title>Node18&#45;&gt;Node18</title>
<g id="a_edge33_Node000018_Node000018"><a xlink:title=" ">
<path fill="none" stroke="#63b8ff" d="M654.16,-420.19C651.61,-423.85 645.6,-426.38 636.12,-426.38 618.29,-426.38 612.72,-417.43 619.41,-408.77"/>
<polygon fill="#63b8ff" stroke="#63b8ff" points="657.64,-419.81 653.02,-410.28 650.69,-420.61 657.64,-419.81"/>
</a>
</g>
</g>
</g>
</svg>
