<?xml version="1.0" encoding="UTF-8" standalone="no"?>
<!DOCTYPE svg PUBLIC "-//W3C//DTD SVG 1.1//EN"
 "http://www.w3.org/Graphics/SVG/1.1/DTD/svg11.dtd">
<!-- Generated by graphviz version 12.2.1 (0)
 -->
<!-- Title: wrap_w2c__f371 Pages: 1 -->
<svg width="839pt" height="633pt"
 viewBox="0.00 0.00 838.75 632.61" xmlns="http://www.w3.org/2000/svg" xmlns:xlink="http://www.w3.org/1999/xlink">
<g id="graph0" class="graph" transform="scale(1 1) rotate(0) translate(4 628.61)">
<title>wrap_w2c__f371</title>
<!-- Node1 -->
<g id="Node000001" class="node">
<title>Node1</title>
<g id="a_Node000001"><a xlink:title=" ">
<polygon fill="#999999" stroke="#666666" points="97,-164.61 0,-164.61 0,-143.86 97,-143.86 97,-164.61"/>
<text text-anchor="middle" x="48.5" y="-151.11" font-family="Helvetica,sans-Serif" font-size="10.00">wrap_w2c__f371</text>
</a>
</g>
</g>
<!-- Node2 -->
<g id="Node000002" class="node">
<title>Node2</title>
<g id="a_Node000002"><a xlink:href="app_8c.html#aa5aa96620823a66d02f16f4abcd5e0fe" target="_top" xlink:title=" ">
<polygon fill="white" stroke="#666666" points="200.75,-164.61 133,-164.61 133,-143.86 200.75,-143.86 200.75,-164.61"/>
<text text-anchor="middle" x="166.88" y="-151.11" font-family="Helvetica,sans-Serif" font-size="10.00">w2c__f371</text>
</a>
</g>
</g>
<!-- Node1&#45;&gt;Node2 -->
<g id="edge1_Node000001_Node000002" class="edge">
<title>Node1&#45;&gt;Node2</title>
<g id="a_edge1_Node000001_Node000002"><a xlink:title=" ">
<path fill="none" stroke="#63b8ff" d="M97.17,-154.23C105.18,-154.23 113.47,-154.23 121.4,-154.23"/>
<polygon fill="#63b8ff" stroke="#63b8ff" points="121.17,-157.73 131.17,-154.23 121.17,-150.73 121.17,-157.73"/>
</a>
</g>
</g>
<!-- Node3 -->
<g id="Node000003" class="node">
<title>Node3</title>
<g id="a_Node000003"><a xlink:href="app_8c.html#a0378208e0d5c0d1d6e7370f1c578fab3" target="_top" xlink:title=" ">
<polygon fill="white" stroke="#666666" points="727,-203.61 659.25,-203.61 659.25,-182.86 727,-182.86 727,-203.61"/>
<text text-anchor="middle" x="693.12" y="-190.11" font-family="Helvetica,sans-Serif" font-size="10.00">w2c__f216</text>
</a>
</g>
</g>
<!-- Node2&#45;&gt;Node3 -->
<g id="edge2_Node000002_Node000003" class="edge">
<title>Node2&#45;&gt;Node3</title>
<g id="a_edge2_Node000002_Node000003"><a xlink:title=" ">
<path fill="none" stroke="#63b8ff" d="M170.82,-143.67C177.94,-120.14 198.41,-63.18 236.75,-34.23 286.68,3.48 310.8,-0.23 373.38,-0.23 373.38,-0.23 373.38,-0.23 482.88,-0.23 547.75,-0.23 574.17,2.19 623.25,-40.23 663.51,-75.02 681.38,-138.06 688.32,-171.32"/>
<polygon fill="#63b8ff" stroke="#63b8ff" points="684.85,-171.85 690.18,-181.01 691.73,-170.53 684.85,-171.85"/>
</a>
</g>
</g>
<!-- Node5 -->
<g id="Node000005" class="node">
<title>Node5</title>
<g id="a_Node000005"><a xlink:href="app_8c.html#a2d8a16f03b3e53a82c191ec2e475fc09" target="_top" xlink:title=" ">
<polygon fill="white" stroke="#666666" points="304.5,-624.61 236.75,-624.61 236.75,-603.86 304.5,-603.86 304.5,-624.61"/>
<text text-anchor="middle" x="270.62" y="-611.11" font-family="Helvetica,sans-Serif" font-size="10.00">w2c__f235</text>
</a>
</g>
</g>
<!-- Node2&#45;&gt;Node5 -->
<g id="edge4_Node000002_Node000005" class="edge">
<title>Node2&#45;&gt;Node5</title>
<g id="a_edge4_Node000002_Node000005"><a xlink:title=" ">
<path fill="none" stroke="#63b8ff" d="M168.92,-165.1C173.54,-211.04 193.76,-393.54 236.75,-537.23 242.59,-556.76 251.9,-578 259.12,-593.22"/>
<polygon fill="#63b8ff" stroke="#63b8ff" points="255.97,-594.73 263.49,-602.19 262.26,-591.67 255.97,-594.73"/>
</a>
</g>
</g>
<!-- Node13 -->
<g id="Node000013" class="node">
<title>Node13</title>
<g id="a_Node000013"><a xlink:href="app_8c.html#a5ba72172e6af05360e11d7dc02410099" target="_top" xlink:title=" ">
<polygon fill="white" stroke="#666666" points="408.25,-357.61 340.5,-357.61 340.5,-336.86 408.25,-336.86 408.25,-357.61"/>
<text text-anchor="middle" x="374.38" y="-344.11" font-family="Helvetica,sans-Serif" font-size="10.00">w2c__f254</text>
</a>
</g>
</g>
<!-- Node2&#45;&gt;Node13 -->
<g id="edge18_Node000002_Node000013" class="edge">
<title>Node2&#45;&gt;Node13</title>
<g id="a_edge18_Node000002_Node000013"><a xlink:title=" ">
<path fill="none" stroke="#63b8ff" d="M179.22,-164.88C212.68,-196.31 311.31,-288.94 353.67,-328.73"/>
<polygon fill="#63b8ff" stroke="#63b8ff" points="351.03,-331.04 360.71,-335.34 355.82,-325.94 351.03,-331.04"/>
</a>
</g>
</g>
<!-- Node20 -->
<g id="Node000020" class="node">
<title>Node20</title>
<g id="a_Node000020"><a xlink:href="app_8c.html#a4540f33311f3aa59883a912236af15d6" target="_top" xlink:title=" ">
<polygon fill="white" stroke="#666666" points="408.25,-49.61 340.5,-49.61 340.5,-28.86 408.25,-28.86 408.25,-49.61"/>
<text text-anchor="middle" x="374.38" y="-36.11" font-family="Helvetica,sans-Serif" font-size="10.00">w2c__f320</text>
</a>
</g>
</g>
<!-- Node2&#45;&gt;Node20 -->
<g id="edge30_Node000002_Node000020" class="edge">
<title>Node2&#45;&gt;Node20</title>
<g id="a_edge30_Node000002_Node000020"><a xlink:title=" ">
<path fill="none" stroke="#63b8ff" d="M172.18,-143.37C180.92,-122.87 202.86,-78.7 236.75,-58.23 264.32,-41.58 300.62,-37.18 328.88,-36.76"/>
<polygon fill="#63b8ff" stroke="#63b8ff" points="328.53,-40.26 338.54,-36.78 328.55,-33.26 328.53,-40.26"/>
</a>
</g>
</g>
<!-- Node24 -->
<g id="Node000024" class="node">
<title>Node24</title>
<g id="a_Node000024"><a xlink:href="app_8c.html#a20978c1b92f2cf9c2aef1499361b3bda" target="_top" xlink:title=" ">
<polygon fill="white" stroke="#666666" points="515.75,-165.61 448,-165.61 448,-144.86 515.75,-144.86 515.75,-165.61"/>
<text text-anchor="middle" x="481.88" y="-152.11" font-family="Helvetica,sans-Serif" font-size="10.00">w2c__f333</text>
</a>
</g>
</g>
<!-- Node2&#45;&gt;Node24 -->
<g id="edge34_Node000002_Node000024" class="edge">
<title>Node2&#45;&gt;Node24</title>
<g id="a_edge34_Node000002_Node000024"><a xlink:title=" ">
<path fill="none" stroke="#63b8ff" d="M200.95,-162.35C212.23,-164.75 224.97,-167.05 236.75,-168.23 312.59,-175.86 332.33,-174.97 408.25,-168.23 417.5,-167.41 427.34,-166.01 436.69,-164.43"/>
<polygon fill="#63b8ff" stroke="#63b8ff" points="437.07,-167.92 446.29,-162.7 435.83,-161.03 437.07,-167.92"/>
</a>
</g>
</g>
<!-- Node26 -->
<g id="Node000026" class="node">
<title>Node26</title>
<g id="a_Node000026"><a xlink:href="app_8c.html#aa476913c06cddc14d3dc0f912d9b632b" target="_top" xlink:title=" ">
<polygon fill="white" stroke="#666666" points="304.5,-126.61 236.75,-126.61 236.75,-105.86 304.5,-105.86 304.5,-126.61"/>
<text text-anchor="middle" x="270.62" y="-113.11" font-family="Helvetica,sans-Serif" font-size="10.00">w2c__f382</text>
</a>
</g>
</g>
<!-- Node2&#45;&gt;Node26 -->
<g id="edge38_Node000002_Node000026" class="edge">
<title>Node2&#45;&gt;Node26</title>
<g id="a_edge38_Node000002_Node000026"><a xlink:title=" ">
<path fill="none" stroke="#63b8ff" d="M196.76,-143.44C207.07,-139.59 218.88,-135.19 229.94,-131.05"/>
<polygon fill="#63b8ff" stroke="#63b8ff" points="231.11,-134.35 239.25,-127.58 228.66,-127.8 231.11,-134.35"/>
</a>
</g>
</g>
<!-- Node27 -->
<g id="Node000027" class="node">
<title>Node27</title>
<g id="a_Node000027"><a xlink:href="app_8c.html#ae1894622990b883cad3d7ca790179a8b" target="_top" xlink:title=" ">
<polygon fill="white" stroke="#666666" points="304.5,-528.61 236.75,-528.61 236.75,-507.86 304.5,-507.86 304.5,-528.61"/>
<text text-anchor="middle" x="270.62" y="-515.11" font-family="Helvetica,sans-Serif" font-size="10.00">w2c__f407</text>
</a>
</g>
</g>
<!-- Node2&#45;&gt;Node27 -->
<g id="edge39_Node000002_Node000027" class="edge">
<title>Node2&#45;&gt;Node27</title>
<g id="a_edge39_Node000002_Node000027"><a xlink:title=" ">
<path fill="none" stroke="#63b8ff" d="M170.81,-164.73C184.77,-214.66 244.52,-428.41 263.68,-496.97"/>
<polygon fill="#63b8ff" stroke="#63b8ff" points="260.21,-497.54 266.27,-506.23 266.95,-495.66 260.21,-497.54"/>
</a>
</g>
</g>
<!-- Node31 -->
<g id="Node000031" class="node">
<title>Node31</title>
<g id="a_Node000031"><a xlink:href="app_8c.html#a4ad0e4fbbb0cf438eebff97436bc659b" target="_top" xlink:title=" ">
<polygon fill="white" stroke="#666666" points="304.5,-87.61 236.75,-87.61 236.75,-66.86 304.5,-66.86 304.5,-87.61"/>
<text text-anchor="middle" x="270.62" y="-74.11" font-family="Helvetica,sans-Serif" font-size="10.00">w2c__f458</text>
</a>
</g>
</g>
<!-- Node2&#45;&gt;Node31 -->
<g id="edge48_Node000002_Node000031" class="edge">
<title>Node2&#45;&gt;Node31</title>
<g id="a_edge48_Node000002_Node000031"><a xlink:title=" ">
<path fill="none" stroke="#63b8ff" d="M179.65,-143.59C193.03,-131.71 215.76,-112.18 236.75,-97.23 238.28,-96.14 239.88,-95.04 241.5,-93.96"/>
<polygon fill="#63b8ff" stroke="#63b8ff" points="243.06,-97.12 249.62,-88.8 239.3,-91.22 243.06,-97.12"/>
</a>
</g>
</g>
<!-- Node33 -->
<g id="Node000033" class="node">
<title>Node33</title>
<g id="a_Node000033"><a xlink:href="app_8c.html#abe22e959f965cb0fbcf5b83be18fbe1e" target="_top" xlink:title=" ">
<polygon fill="white" stroke="#666666" points="519.5,-126.61 444.25,-126.61 444.25,-105.86 519.5,-105.86 519.5,-126.61"/>
<text text-anchor="middle" x="481.88" y="-113.11" font-family="Helvetica,sans-Serif" font-size="10.00">wasm_quiet</text>
</a>
</g>
</g>
<!-- Node2&#45;&gt;Node33 -->
<g id="edge54_Node000002_Node000033" class="edge">
<title>Node2&#45;&gt;Node33</title>
<g id="a_edge54_Node000002_Node000033"><a xlink:title=" ">
<path fill="none" stroke="#63b8ff" d="M201.13,-153.15C247.71,-151.24 334.91,-146.29 408.25,-134.23 416.27,-132.91 424.71,-131.16 432.88,-129.27"/>
<polygon fill="#63b8ff" stroke="#63b8ff" points="433.42,-132.74 442.32,-126.99 431.78,-125.94 433.42,-132.74"/>
</a>
</g>
</g>
<!-- Node4 -->
<g id="Node000004" class="node">
<title>Node4</title>
<g id="a_Node000004"><a xlink:href="app_8c.html#a8d9f347f9a643f0ebfb53c4f54578ac4" target="_top" xlink:title=" ">
<polygon fill="white" stroke="#666666" points="830.75,-489.61 763,-489.61 763,-468.86 830.75,-468.86 830.75,-489.61"/>
<text text-anchor="middle" x="796.88" y="-476.11" font-family="Helvetica,sans-Serif" font-size="10.00">w2c__f304</text>
</a>
</g>
</g>
<!-- Node3&#45;&gt;Node4 -->
<g id="edge3_Node000003_Node000004" class="edge">
<title>Node3&#45;&gt;Node4</title>
<g id="a_edge3_Node000003_Node000004"><a xlink:title=" ">
<path fill="none" stroke="#63b8ff" d="M697.99,-204.09C713.04,-246.39 767.88,-400.54 788.22,-457.71"/>
<polygon fill="#63b8ff" stroke="#63b8ff" points="784.85,-458.68 791.5,-466.93 791.44,-456.34 784.85,-458.68"/>
</a>
</g>
</g>
<!-- Node6 -->
<g id="Node000006" class="node">
<title>Node6</title>
<g id="a_Node000006"><a xlink:href="app_8c.html#a1a8a1d528c65d63a630e19c3a4bdd098" target="_top" xlink:title=" ">
<polygon fill="white" stroke="#666666" points="515.75,-586.61 448,-586.61 448,-565.86 515.75,-565.86 515.75,-586.61"/>
<text text-anchor="middle" x="481.88" y="-573.11" font-family="Helvetica,sans-Serif" font-size="10.00">w2c__f557</text>
</a>
</g>
</g>
<!-- Node5&#45;&gt;Node6 -->
<g id="edge5_Node000005_Node000006" class="edge">
<title>Node5&#45;&gt;Node6</title>
<g id="a_edge5_Node000005_Node000006"><a xlink:title=" ">
<path fill="none" stroke="#63b8ff" d="M304.94,-610.71C332.72,-607.51 373.26,-602.22 408.25,-595.23 417.52,-593.38 427.36,-591.06 436.71,-588.67"/>
<polygon fill="#63b8ff" stroke="#63b8ff" points="437.55,-592.07 446.34,-586.15 435.78,-585.3 437.55,-592.07"/>
</a>
</g>
</g>
<!-- Node7 -->
<g id="Node000007" class="node">
<title>Node7</title>
<g id="a_Node000007"><a xlink:href="app_8c.html#a0f7003812eaf983535ff7979fc047a21" target="_top" xlink:title=" ">
<polygon fill="white" stroke="#666666" points="623.25,-566.61 555.5,-566.61 555.5,-545.86 623.25,-545.86 623.25,-566.61"/>
<text text-anchor="middle" x="589.38" y="-553.11" font-family="Helvetica,sans-Serif" font-size="10.00">w2c__f353</text>
</a>
</g>
</g>
<!-- Node6&#45;&gt;Node7 -->
<g id="edge6_Node000006_Node000007" class="edge">
<title>Node6&#45;&gt;Node7</title>
<g id="a_edge6_Node000006_Node000007"><a xlink:title=" ">
<path fill="none" stroke="#63b8ff" d="M515.97,-569.96C524.82,-568.28 534.53,-566.44 543.88,-564.67"/>
<polygon fill="#63b8ff" stroke="#63b8ff" points="544.38,-568.13 553.55,-562.83 543.07,-561.26 544.38,-568.13"/>
</a>
</g>
</g>
<!-- Node11 -->
<g id="Node000011" class="node">
<title>Node11</title>
<g id="a_Node000011"><a xlink:href="app_8c.html#ac9cc84763a9c1933e50eedd7a06c17e2" target="_top" xlink:title=" ">
<polygon fill="white" stroke="#666666" points="623.25,-490.61 555.5,-490.61 555.5,-469.86 623.25,-469.86 623.25,-490.61"/>
<text text-anchor="middle" x="589.38" y="-477.11" font-family="Helvetica,sans-Serif" font-size="10.00">w2c__f480</text>
</a>
</g>
</g>
<!-- Node6&#45;&gt;Node11 -->
<g id="edge12_Node000006_Node000011" class="edge">
<title>Node6&#45;&gt;Node11</title>
<g id="a_edge12_Node000006_Node000011"><a xlink:title=" ">
<path fill="none" stroke="#63b8ff" d="M505.32,-565.53C510.19,-562.79 515.17,-559.64 519.5,-556.23 540.55,-539.65 560.65,-516.31 573.64,-499.88"/>
<polygon fill="#63b8ff" stroke="#63b8ff" points="576.15,-502.35 579.5,-492.3 570.61,-498.07 576.15,-502.35"/>
</a>
</g>
</g>
<!-- Node8 -->
<g id="Node000008" class="node">
<title>Node8</title>
<g id="a_Node000008"><a xlink:href="app_8c.html#aaca5d5bcf49f2ca74019cf097750b9f3" target="_top" xlink:title=" ">
<polygon fill="white" stroke="#666666" points="727,-547.61 659.25,-547.61 659.25,-526.86 727,-526.86 727,-547.61"/>
<text text-anchor="middle" x="693.12" y="-534.11" font-family="Helvetica,sans-Serif" font-size="10.00">w2c__f258</text>
</a>
</g>
</g>
<!-- Node7&#45;&gt;Node8 -->
<g id="edge7_Node000007_Node000008" class="edge">
<title>Node7&#45;&gt;Node8</title>
<g id="a_edge7_Node000007_Node000008"><a xlink:title=" ">
<path fill="none" stroke="#63b8ff" d="M623.69,-550.01C631.41,-548.57 639.75,-547.01 647.86,-545.5"/>
<polygon fill="#63b8ff" stroke="#63b8ff" points="648.41,-548.96 657.59,-543.68 647.12,-542.08 648.41,-548.96"/>
</a>
</g>
</g>
<!-- Node10 -->
<g id="Node000010" class="node">
<title>Node10</title>
<g id="a_Node000010"><a xlink:href="app_8c.html#a4634342addbde677893ffcb45cf639dd" target="_top" xlink:title=" ">
<polygon fill="white" stroke="#666666" points="727,-508.61 659.25,-508.61 659.25,-487.86 727,-487.86 727,-508.61"/>
<text text-anchor="middle" x="693.12" y="-495.11" font-family="Helvetica,sans-Serif" font-size="10.00">w2c__f302</text>
</a>
</g>
</g>
<!-- Node7&#45;&gt;Node10 -->
<g id="edge10_Node000007_Node000010" class="edge">
<title>Node7&#45;&gt;Node10</title>
<g id="a_edge10_Node000007_Node000010"><a xlink:title=" ">
<path fill="none" stroke="#63b8ff" d="M609.04,-545.59C624.29,-536.9 646.1,-524.47 663.55,-514.52"/>
<polygon fill="#63b8ff" stroke="#63b8ff" points="664.97,-517.74 671.92,-509.75 661.5,-511.66 664.97,-517.74"/>
</a>
</g>
</g>
<!-- Node8&#45;&gt;Node4 -->
<g id="edge8_Node000008_Node000004" class="edge">
<title>Node8&#45;&gt;Node4</title>
<g id="a_edge8_Node000008_Node000004"><a xlink:title=" ">
<path fill="none" stroke="#63b8ff" d="M712.79,-526.59C728.04,-517.9 749.85,-505.47 767.3,-495.52"/>
<polygon fill="#63b8ff" stroke="#63b8ff" points="768.72,-498.74 775.67,-490.75 765.25,-492.66 768.72,-498.74"/>
</a>
</g>
</g>
<!-- Node9 -->
<g id="Node000009" class="node">
<title>Node9</title>
<g id="a_Node000009"><a xlink:href="app_8c.html#a881f0b113e93dce3ff52d04b435850f6" target="_top" xlink:title=" ">
<polygon fill="white" stroke="#666666" points="830.75,-547.61 763,-547.61 763,-526.86 830.75,-526.86 830.75,-547.61"/>
<text text-anchor="middle" x="796.88" y="-534.11" font-family="Helvetica,sans-Serif" font-size="10.00">w2c__f491</text>
</a>
</g>
</g>
<!-- Node8&#45;&gt;Node9 -->
<g id="edge9_Node000008_Node000009" class="edge">
<title>Node8&#45;&gt;Node9</title>
<g id="a_edge9_Node000008_Node000009"><a xlink:title=" ">
<path fill="none" stroke="#63b8ff" d="M727.44,-537.23C735.07,-537.23 743.31,-537.23 751.33,-537.23"/>
<polygon fill="#63b8ff" stroke="#63b8ff" points="751.32,-540.73 761.32,-537.23 751.32,-533.73 751.32,-540.73"/>
</a>
</g>
</g>
<!-- Node10&#45;&gt;Node4 -->
<g id="edge11_Node000010_Node000004" class="edge">
<title>Node10&#45;&gt;Node4</title>
<g id="a_edge11_Node000010_Node000004"><a xlink:title=" ">
<path fill="none" stroke="#63b8ff" d="M727.44,-492.01C735.16,-490.57 743.5,-489.01 751.61,-487.5"/>
<polygon fill="#63b8ff" stroke="#63b8ff" points="752.16,-490.96 761.34,-485.68 750.87,-484.08 752.16,-490.96"/>
</a>
</g>
</g>
<!-- Node11&#45;&gt;Node3 -->
<g id="edge13_Node000011_Node000003" class="edge">
<title>Node11&#45;&gt;Node3</title>
<g id="a_edge13_Node000011_Node000003"><a xlink:title=" ">
<path fill="none" stroke="#63b8ff" d="M594.12,-469.68C609.01,-427.66 664.26,-271.82 684.57,-214.53"/>
<polygon fill="#63b8ff" stroke="#63b8ff" points="687.8,-215.9 687.84,-205.31 681.2,-213.56 687.8,-215.9"/>
</a>
</g>
</g>
<!-- Node11&#45;&gt;Node4 -->
<g id="edge16_Node000011_Node000004" class="edge">
<title>Node11&#45;&gt;Node4</title>
<g id="a_edge16_Node000011_Node000004"><a xlink:title=" ">
<path fill="none" stroke="#63b8ff" d="M623.65,-479.65C634.95,-479.48 647.65,-479.32 659.25,-479.23 690.04,-479.01 724.72,-479.01 751.44,-479.07"/>
<polygon fill="#63b8ff" stroke="#63b8ff" points="751.22,-482.57 761.23,-479.09 751.24,-475.57 751.22,-482.57"/>
</a>
</g>
</g>
<!-- Node11&#45;&gt;Node8 -->
<g id="edge14_Node000011_Node000008" class="edge">
<title>Node11&#45;&gt;Node8</title>
<g id="a_edge14_Node000011_Node000008"><a xlink:title=" ">
<path fill="none" stroke="#63b8ff" d="M609.51,-490.95C624.62,-499.42 645.95,-511.37 663.15,-521"/>
<polygon fill="#63b8ff" stroke="#63b8ff" points="660.97,-523.79 671.41,-525.63 664.39,-517.68 660.97,-523.79"/>
</a>
</g>
</g>
<!-- Node11&#45;&gt;Node10 -->
<g id="edge15_Node000011_Node000010" class="edge">
<title>Node11&#45;&gt;Node10</title>
<g id="a_edge15_Node000011_Node000010"><a xlink:title=" ">
<path fill="none" stroke="#63b8ff" d="M623.69,-486.13C631.41,-487.49 639.75,-488.97 647.86,-490.4"/>
<polygon fill="#63b8ff" stroke="#63b8ff" points="647.13,-493.83 657.59,-492.12 648.35,-486.93 647.13,-493.83"/>
</a>
</g>
</g>
<!-- Node12 -->
<g id="Node000012" class="node">
<title>Node12</title>
<g id="a_Node000012"><a xlink:href="app_8c.html#a674f6e81761467d0a8dc6d2a425eda9f" target="_top" xlink:title=" ">
<polygon fill="white" stroke="#666666" points="727,-413.61 659.25,-413.61 659.25,-392.86 727,-392.86 727,-413.61"/>
<text text-anchor="middle" x="693.12" y="-400.11" font-family="Helvetica,sans-Serif" font-size="10.00">w2c__f498</text>
</a>
</g>
</g>
<!-- Node11&#45;&gt;Node12 -->
<g id="edge17_Node000011_Node000012" class="edge">
<title>Node11&#45;&gt;Node12</title>
<g id="a_edge17_Node000011_Node000012"><a xlink:title=" ">
<path fill="none" stroke="#63b8ff" d="M605.16,-469.56C610.84,-465.43 617.37,-460.64 623.25,-456.23 638.7,-444.65 655.91,-431.41 669.26,-421.06"/>
<polygon fill="#63b8ff" stroke="#63b8ff" points="671.28,-423.92 677.03,-415.02 666.98,-418.4 671.28,-423.92"/>
</a>
</g>
</g>
<!-- Node13&#45;&gt;Node3 -->
<g id="edge21_Node000013_Node000003" class="edge">
<title>Node13&#45;&gt;Node3</title>
<g id="a_edge21_Node000013_Node000003"><a xlink:title=" ">
<path fill="none" stroke="#63b8ff" d="M379.82,-336.53C388.8,-316.27 411.12,-272.4 444.25,-250.23 506.52,-208.57 595.13,-197.09 647.81,-194.09"/>
<polygon fill="#63b8ff" stroke="#63b8ff" points="647.79,-197.6 657.61,-193.62 647.45,-190.61 647.79,-197.6"/>
</a>
</g>
</g>
<!-- Node13&#45;&gt;Node6 -->
<g id="edge29_Node000013_Node000006" class="edge">
<title>Node13&#45;&gt;Node6</title>
<g id="a_edge29_Node000013_Node000006"><a xlink:title=" ">
<path fill="none" stroke="#63b8ff" d="M376.14,-357.65C379.07,-390.54 392.16,-493.71 444.25,-556.23 444.81,-556.9 445.39,-557.55 446,-558.18"/>
<polygon fill="#63b8ff" stroke="#63b8ff" points="443.81,-560.91 453.8,-564.42 448.18,-555.44 443.81,-560.91"/>
</a>
</g>
</g>
<!-- Node13&#45;&gt;Node8 -->
<g id="edge22_Node000013_Node000008" class="edge">
<title>Node13&#45;&gt;Node8</title>
<g id="a_edge22_Node000013_Node000008"><a xlink:title=" ">
<path fill="none" stroke="#63b8ff" d="M380.89,-357.9C391.16,-376.92 414.86,-417.05 444.25,-442.23 503.91,-493.36 594.05,-518.52 647.6,-529.63"/>
<polygon fill="#63b8ff" stroke="#63b8ff" points="646.8,-533.04 657.29,-531.55 648.17,-526.17 646.8,-533.04"/>
</a>
</g>
</g>
<!-- Node13&#45;&gt;Node12 -->
<g id="edge27_Node000013_Node000012" class="edge">
<title>Node13&#45;&gt;Node12</title>
<g id="a_edge27_Node000013_Node000012"><a xlink:title=" ">
<path fill="none" stroke="#63b8ff" d="M408.46,-357.23C419.74,-360.41 432.48,-363.74 444.25,-366.23 514.79,-381.17 597.87,-392.27 647.7,-398.25"/>
<polygon fill="#63b8ff" stroke="#63b8ff" points="647.17,-401.71 657.52,-399.4 648,-394.76 647.17,-401.71"/>
</a>
</g>
</g>
<!-- Node14 -->
<g id="Node000014" class="node">
<title>Node14</title>
<g id="a_Node000014"><a xlink:href="app_8c.html#a4a1a4e9c895fe0e888a3f38ff09d8077" target="_top" xlink:title=" ">
<polygon fill="white" stroke="#666666" points="513.88,-357.61 449.88,-357.61 449.88,-336.86 513.88,-336.86 513.88,-357.61"/>
<text text-anchor="middle" x="481.88" y="-344.11" font-family="Helvetica,sans-Serif" font-size="10.00">w2c_0_16</text>
</a>
</g>
</g>
<!-- Node13&#45;&gt;Node14 -->
<g id="edge19_Node000013_Node000014" class="edge">
<title>Node13&#45;&gt;Node14</title>
<g id="a_edge19_Node000013_Node000014"><a xlink:title=" ">
<path fill="none" stroke="#63b8ff" d="M408.47,-347.23C417.93,-347.23 428.39,-347.23 438.34,-347.23"/>
<polygon fill="#63b8ff" stroke="#63b8ff" points="438.19,-350.73 448.19,-347.23 438.19,-343.73 438.19,-350.73"/>
</a>
</g>
</g>
<!-- Node15 -->
<g id="Node000015" class="node">
<title>Node15</title>
<g id="a_Node000015"><a xlink:href="app_8c.html#a7ef3ddae93849b756dec18a2aa329f87" target="_top" xlink:title=" ">
<polygon fill="white" stroke="#666666" points="516.88,-318.61 446.88,-318.61 446.88,-297.86 516.88,-297.86 516.88,-318.61"/>
<text text-anchor="middle" x="481.88" y="-305.11" font-family="Helvetica,sans-Serif" font-size="10.00">w2c_0_169</text>
</a>
</g>
</g>
<!-- Node13&#45;&gt;Node15 -->
<g id="edge20_Node000013_Node000015" class="edge">
<title>Node13&#45;&gt;Node15</title>
<g id="a_edge20_Node000013_Node000015"><a xlink:title=" ">
<path fill="none" stroke="#63b8ff" d="M404.76,-336.37C415.97,-332.23 428.93,-327.43 440.95,-322.99"/>
<polygon fill="#63b8ff" stroke="#63b8ff" points="442.06,-326.31 450.23,-319.56 439.63,-319.75 442.06,-326.31"/>
</a>
</g>
</g>
<!-- Node16 -->
<g id="Node000016" class="node">
<title>Node16</title>
<g id="a_Node000016"><a xlink:href="app_8c.html#ac62a79295f1b87483d329d02ea6591a7" target="_top" xlink:title=" ">
<polygon fill="white" stroke="#666666" points="515.75,-279.61 448,-279.61 448,-258.86 515.75,-258.86 515.75,-279.61"/>
<text text-anchor="middle" x="481.88" y="-266.11" font-family="Helvetica,sans-Serif" font-size="10.00">w2c__f342</text>
</a>
</g>
</g>
<!-- Node13&#45;&gt;Node16 -->
<g id="edge23_Node000013_Node000016" class="edge">
<title>Node13&#45;&gt;Node16</title>
<g id="a_edge23_Node000013_Node000016"><a xlink:title=" ">
<path fill="none" stroke="#63b8ff" d="M386.51,-336.64C399.68,-324.4 422.57,-304.06 444.25,-289.23 446.04,-288 447.92,-286.79 449.84,-285.6"/>
<polygon fill="#63b8ff" stroke="#63b8ff" points="451.34,-288.78 458.22,-280.72 447.82,-282.73 451.34,-288.78"/>
</a>
</g>
</g>
<!-- Node19 -->
<g id="Node000019" class="node">
<title>Node19</title>
<g id="a_Node000019"><a xlink:href="app_8c.html#a971cd7f91f64ad7d3cfb3e54d391f1a5" target="_top" xlink:title=" ">
<polygon fill="white" stroke="#666666" points="515.75,-433.61 448,-433.61 448,-412.86 515.75,-412.86 515.75,-433.61"/>
<text text-anchor="middle" x="481.88" y="-420.11" font-family="Helvetica,sans-Serif" font-size="10.00">w2c__f553</text>
</a>
</g>
</g>
<!-- Node13&#45;&gt;Node19 -->
<g id="edge28_Node000013_Node000019" class="edge">
<title>Node13&#45;&gt;Node19</title>
<g id="a_edge28_Node000013_Node000019"><a xlink:title=" ">
<path fill="none" stroke="#63b8ff" d="M389.16,-358.06C402.92,-368.78 424.77,-385.52 444.25,-399.23 447.52,-401.53 450.99,-403.9 454.44,-406.21"/>
<polygon fill="#63b8ff" stroke="#63b8ff" points="452.4,-409.06 462.68,-411.64 456.25,-403.21 452.4,-409.06"/>
</a>
</g>
</g>
<!-- Node16&#45;&gt;Node12 -->
<g id="edge24_Node000016_Node000012" class="edge">
<title>Node16&#45;&gt;Node12</title>
<g id="a_edge24_Node000016_Node000012"><a xlink:title=" ">
<path fill="none" stroke="#63b8ff" d="M505.26,-280.01C510.14,-282.75 515.14,-285.87 519.5,-289.23 537.93,-303.42 537.12,-312.97 555.5,-327.23 587.44,-352.02 628.47,-373.7 657.2,-387.49"/>
<polygon fill="#63b8ff" stroke="#63b8ff" points="655.65,-390.63 666.19,-391.73 658.64,-384.3 655.65,-390.63"/>
</a>
</g>
</g>
<!-- Node17 -->
<g id="Node000017" class="node">
<title>Node17</title>
<g id="a_Node000017"><a xlink:href="app_8c.html#a31594ecf945e2c8fc30048411d791180" target="_top" xlink:title=" ">
<polygon fill="white" stroke="#666666" points="623.25,-318.61 555.5,-318.61 555.5,-297.86 623.25,-297.86 623.25,-318.61"/>
<text text-anchor="middle" x="589.38" y="-305.11" font-family="Helvetica,sans-Serif" font-size="10.00">w2c__f537</text>
</a>
</g>
</g>
<!-- Node16&#45;&gt;Node17 -->
<g id="edge25_Node000016_Node000017" class="edge">
<title>Node16&#45;&gt;Node17</title>
<g id="a_edge25_Node000016_Node000017"><a xlink:title=" ">
<path fill="none" stroke="#63b8ff" d="M512.26,-280.1C523.47,-284.24 536.43,-289.03 548.45,-293.47"/>
<polygon fill="#63b8ff" stroke="#63b8ff" points="547.13,-296.72 557.73,-296.9 549.56,-290.15 547.13,-296.72"/>
</a>
</g>
</g>
<!-- Node18 -->
<g id="Node000018" class="node">
<title>Node18</title>
<g id="a_Node000018"><a xlink:href="app_8c.html#a672569c91ebb1d5055d737b56ec296a7" target="_top" xlink:title=" ">
<polygon fill="white" stroke="#666666" points="623.25,-279.61 555.5,-279.61 555.5,-258.86 623.25,-258.86 623.25,-279.61"/>
<text text-anchor="middle" x="589.38" y="-266.11" font-family="Helvetica,sans-Serif" font-size="10.00">w2c__f585</text>
</a>
</g>
</g>
<!-- Node16&#45;&gt;Node18 -->
<g id="edge26_Node000016_Node000018" class="edge">
<title>Node16&#45;&gt;Node18</title>
<g id="a_edge26_Node000016_Node000018"><a xlink:title=" ">
<path fill="none" stroke="#63b8ff" d="M515.97,-269.23C524.72,-269.23 534.31,-269.23 543.58,-269.23"/>
<polygon fill="#63b8ff" stroke="#63b8ff" points="543.52,-272.73 553.52,-269.23 543.52,-265.73 543.52,-272.73"/>
</a>
</g>
</g>
<!-- Node21 -->
<g id="Node000021" class="node">
<title>Node21</title>
<g id="a_Node000021"><a xlink:href="app_8c.html#ad63b6498cfe22ce747f349eeb23b508f" target="_top" xlink:title=" ">
<polygon fill="white" stroke="#666666" points="517.62,-87.61 446.12,-87.61 446.12,-66.86 517.62,-66.86 517.62,-87.61"/>
<text text-anchor="middle" x="481.88" y="-74.11" font-family="Helvetica,sans-Serif" font-size="10.00">wasm_fabs</text>
</a>
</g>
</g>
<!-- Node20&#45;&gt;Node21 -->
<g id="edge31_Node000020_Node000021" class="edge">
<title>Node20&#45;&gt;Node21</title>
<g id="a_edge31_Node000020_Node000021"><a xlink:title=" ">
<path fill="none" stroke="#63b8ff" d="M405.32,-50.02C416.13,-53.91 428.51,-58.37 440.08,-62.54"/>
<polygon fill="#63b8ff" stroke="#63b8ff" points="438.83,-65.81 449.43,-65.9 441.2,-59.22 438.83,-65.81"/>
</a>
</g>
</g>
<!-- Node22 -->
<g id="Node000022" class="node">
<title>Node22</title>
<g id="a_Node000022"><a xlink:href="app_8c.html#a22805979cc49b429d0fb4b7435774648" target="_top" xlink:title=" ">
<polygon fill="white" stroke="#666666" points="516.5,-48.61 447.25,-48.61 447.25,-27.86 516.5,-27.86 516.5,-48.61"/>
<text text-anchor="middle" x="481.88" y="-35.11" font-family="Helvetica,sans-Serif" font-size="10.00">wasm_sqrt</text>
</a>
</g>
</g>
<!-- Node20&#45;&gt;Node22 -->
<g id="edge32_Node000020_Node000022" class="edge">
<title>Node20&#45;&gt;Node22</title>
<g id="a_edge32_Node000020_Node000022"><a xlink:title=" ">
<path fill="none" stroke="#63b8ff" d="M408.47,-38.92C417.05,-38.84 426.44,-38.75 435.54,-38.66"/>
<polygon fill="#63b8ff" stroke="#63b8ff" points="435.33,-42.16 445.3,-38.57 435.26,-35.16 435.33,-42.16"/>
</a>
</g>
</g>
<!-- Node23 -->
<g id="Node000023" class="node">
<title>Node23</title>
<g id="a_Node000023"><a xlink:href="app_8c.html#ae10979e670e507d4373e8cadcb3169aa" target="_top" xlink:title=" ">
<polygon fill="white" stroke="#666666" points="621.38,-69.61 557.38,-69.61 557.38,-48.86 621.38,-48.86 621.38,-69.61"/>
<text text-anchor="middle" x="589.38" y="-56.11" font-family="Helvetica,sans-Serif" font-size="10.00">quiet_nan</text>
</a>
</g>
</g>
<!-- Node22&#45;&gt;Node23 -->
<g id="edge33_Node000022_Node000023" class="edge">
<title>Node22&#45;&gt;Node23</title>
<g id="a_edge33_Node000022_Node000023"><a xlink:title=" ">
<path fill="none" stroke="#63b8ff" d="M516.84,-44.99C526.1,-46.84 536.26,-48.86 545.93,-50.78"/>
<polygon fill="#63b8ff" stroke="#63b8ff" points="545.01,-54.17 555.5,-52.69 546.37,-47.3 545.01,-54.17"/>
</a>
</g>
</g>
<!-- Node24&#45;&gt;Node3 -->
<g id="edge35_Node000024_Node000003" class="edge">
<title>Node24&#45;&gt;Node3</title>
<g id="a_edge35_Node000024_Node000003"><a xlink:title=" ">
<path fill="none" stroke="#63b8ff" d="M509.27,-144.43C538.08,-134.28 585.19,-122.52 623.25,-136.23 644.33,-143.82 663.54,-160.98 676.29,-174.5"/>
<polygon fill="#63b8ff" stroke="#63b8ff" points="673.38,-176.5 682.67,-181.6 678.58,-171.82 673.38,-176.5"/>
</a>
</g>
</g>
<!-- Node25 -->
<g id="Node000025" class="node">
<title>Node25</title>
<g id="a_Node000025"><a xlink:href="app_8c.html#a13af816d6a1fb2ff4fec669fc33dc3b4" target="_top" xlink:title=" ">
<polygon fill="white" stroke="#666666" points="623.25,-165.61 555.5,-165.61 555.5,-144.86 623.25,-144.86 623.25,-165.61"/>
<text text-anchor="middle" x="589.38" y="-152.11" font-family="Helvetica,sans-Serif" font-size="10.00">w2c__f457</text>
</a>
</g>
</g>
<!-- Node24&#45;&gt;Node25 -->
<g id="edge36_Node000024_Node000025" class="edge">
<title>Node24&#45;&gt;Node25</title>
<g id="a_edge36_Node000024_Node000025"><a xlink:title=" ">
<path fill="none" stroke="#63b8ff" d="M515.97,-155.23C524.72,-155.23 534.31,-155.23 543.58,-155.23"/>
<polygon fill="#63b8ff" stroke="#63b8ff" points="543.52,-158.73 553.52,-155.23 543.52,-151.73 543.52,-158.73"/>
</a>
</g>
</g>
<!-- Node25&#45;&gt;Node3 -->
<g id="edge37_Node000025_Node000003" class="edge">
<title>Node25&#45;&gt;Node3</title>
<g id="a_edge37_Node000025_Node000003"><a xlink:title=" ">
<path fill="none" stroke="#63b8ff" d="M619.26,-166.02C629.57,-169.87 641.38,-174.28 652.44,-178.41"/>
<polygon fill="#63b8ff" stroke="#63b8ff" points="651.16,-181.67 661.75,-181.89 653.61,-175.11 651.16,-181.67"/>
</a>
</g>
</g>
<!-- Node27&#45;&gt;Node3 -->
<g id="edge40_Node000027_Node000003" class="edge">
<title>Node27&#45;&gt;Node3</title>
<g id="a_edge40_Node000027_Node000003"><a xlink:title=" ">
<path fill="none" stroke="#63b8ff" d="M273.25,-507.77C278.4,-477.37 296.68,-387.47 340.5,-328.23 414.02,-228.85 570.71,-202.63 647.64,-195.71"/>
<polygon fill="#63b8ff" stroke="#63b8ff" points="647.64,-199.22 657.32,-194.92 647.07,-192.25 647.64,-199.22"/>
</a>
</g>
</g>
<!-- Node27&#45;&gt;Node8 -->
<g id="edge41_Node000027_Node000008" class="edge">
<title>Node27&#45;&gt;Node8</title>
<g id="a_edge41_Node000027_Node000008"><a xlink:title=" ">
<path fill="none" stroke="#63b8ff" d="M277.27,-529.01C287.24,-546.77 309.88,-581.54 340.5,-595.23 455.5,-646.66 504.79,-618.11 623.25,-575.23 638.2,-569.82 653.79,-561.47 666.36,-553.98"/>
<polygon fill="#63b8ff" stroke="#63b8ff" points="668.15,-556.99 674.83,-548.76 664.48,-551.03 668.15,-556.99"/>
</a>
</g>
</g>
<!-- Node27&#45;&gt;Node12 -->
<g id="edge44_Node000027_Node000012" class="edge">
<title>Node27&#45;&gt;Node12</title>
<g id="a_edge44_Node000027_Node000012"><a xlink:title=" ">
<path fill="none" stroke="#63b8ff" d="M304.97,-509.11C380.19,-488.54 563.06,-438.53 647.74,-415.37"/>
<polygon fill="#63b8ff" stroke="#63b8ff" points="648.59,-418.77 657.31,-412.75 646.75,-412.01 648.59,-418.77"/>
</a>
</g>
</g>
<!-- Node28 -->
<g id="Node000028" class="node">
<title>Node28</title>
<g id="a_Node000028"><a xlink:href="app_8c.html#a3f67dace1976c647bbc9933a1cc66a39" target="_top" xlink:title=" ">
<polygon fill="white" stroke="#666666" points="408.25,-586.61 340.5,-586.61 340.5,-565.86 408.25,-565.86 408.25,-586.61"/>
<text text-anchor="middle" x="374.38" y="-573.11" font-family="Helvetica,sans-Serif" font-size="10.00">w2c__f301</text>
</a>
</g>
</g>
<!-- Node27&#45;&gt;Node28 -->
<g id="edge42_Node000027_Node000028" class="edge">
<title>Node27&#45;&gt;Node28</title>
<g id="a_edge42_Node000027_Node000028"><a xlink:title=" ">
<path fill="none" stroke="#63b8ff" d="M290.29,-528.87C305.54,-537.56 327.35,-550 344.8,-559.94"/>
<polygon fill="#63b8ff" stroke="#63b8ff" points="342.75,-562.8 353.17,-564.72 346.22,-556.72 342.75,-562.8"/>
</a>
</g>
</g>
<!-- Node29 -->
<g id="Node000029" class="node">
<title>Node29</title>
<g id="a_Node000029"><a xlink:href="app_8c.html#a4fd0a4cb4b78f7e4a76d64b8921bc5dc" target="_top" xlink:title=" ">
<polygon fill="white" stroke="#666666" points="408.25,-547.61 340.5,-547.61 340.5,-526.86 408.25,-526.86 408.25,-547.61"/>
<text text-anchor="middle" x="374.38" y="-534.11" font-family="Helvetica,sans-Serif" font-size="10.00">w2c__f574</text>
</a>
</g>
</g>
<!-- Node27&#45;&gt;Node29 -->
<g id="edge45_Node000027_Node000029" class="edge">
<title>Node27&#45;&gt;Node29</title>
<g id="a_edge45_Node000027_Node000029"><a xlink:title=" ">
<path fill="none" stroke="#63b8ff" d="M304.94,-524.45C312.66,-525.9 321,-527.45 329.11,-528.97"/>
<polygon fill="#63b8ff" stroke="#63b8ff" points="328.37,-532.39 338.84,-530.78 329.66,-525.51 328.37,-532.39"/>
</a>
</g>
</g>
<!-- Node28&#45;&gt;Node6 -->
<g id="edge43_Node000028_Node000006" class="edge">
<title>Node28&#45;&gt;Node6</title>
<g id="a_edge43_Node000028_Node000006"><a xlink:title=" ">
<path fill="none" stroke="#63b8ff" d="M408.47,-576.23C417.22,-576.23 426.81,-576.23 436.08,-576.23"/>
<polygon fill="#63b8ff" stroke="#63b8ff" points="436.02,-579.73 446.02,-576.23 436.02,-572.73 436.02,-579.73"/>
</a>
</g>
</g>
<!-- Node30 -->
<g id="Node000030" class="node">
<title>Node30</title>
<g id="a_Node000030"><a xlink:href="app_8c.html#ae7fb023a7298e99149ca1f090e524235" target="_top" xlink:title=" ">
<polygon fill="white" stroke="#666666" points="515.75,-547.61 448,-547.61 448,-526.86 515.75,-526.86 515.75,-547.61"/>
<text text-anchor="middle" x="481.88" y="-534.11" font-family="Helvetica,sans-Serif" font-size="10.00">w2c__f281</text>
</a>
</g>
</g>
<!-- Node29&#45;&gt;Node30 -->
<g id="edge46_Node000029_Node000030" class="edge">
<title>Node29&#45;&gt;Node30</title>
<g id="a_edge46_Node000029_Node000030"><a xlink:title=" ">
<path fill="none" stroke="#63b8ff" d="M408.47,-537.23C417.22,-537.23 426.81,-537.23 436.08,-537.23"/>
<polygon fill="#63b8ff" stroke="#63b8ff" points="436.02,-540.73 446.02,-537.23 436.02,-533.73 436.02,-540.73"/>
</a>
</g>
</g>
<!-- Node30&#45;&gt;Node11 -->
<g id="edge47_Node000030_Node000011" class="edge">
<title>Node30&#45;&gt;Node11</title>
<g id="a_edge47_Node000030_Node000011"><a xlink:title=" ">
<path fill="none" stroke="#63b8ff" d="M502.72,-526.51C518.39,-518.05 540.5,-506.1 558.34,-496.46"/>
<polygon fill="#63b8ff" stroke="#63b8ff" points="559.8,-499.65 566.93,-491.82 556.47,-493.49 559.8,-499.65"/>
</a>
</g>
</g>
<!-- Node31&#45;&gt;Node21 -->
<g id="edge53_Node000031_Node000021" class="edge">
<title>Node31&#45;&gt;Node21</title>
<g id="a_edge53_Node000031_Node000021"><a xlink:title=" ">
<path fill="none" stroke="#63b8ff" d="M304.78,-77.23C339.74,-77.23 395.08,-77.23 434.39,-77.23"/>
<polygon fill="#63b8ff" stroke="#63b8ff" points="434.27,-80.73 444.27,-77.23 434.27,-73.73 434.27,-80.73"/>
</a>
</g>
</g>
<!-- Node32 -->
<g id="Node000032" class="node">
<title>Node32</title>
<g id="a_Node000032"><a xlink:href="app_8c.html#a5944e8aaeb89215d16f0703618f3d1cb" target="_top" xlink:title=" ">
<polygon fill="white" stroke="#666666" points="408.25,-125.61 340.5,-125.61 340.5,-104.86 408.25,-104.86 408.25,-125.61"/>
<text text-anchor="middle" x="374.38" y="-112.11" font-family="Helvetica,sans-Serif" font-size="10.00">w2c__f346</text>
</a>
</g>
</g>
<!-- Node31&#45;&gt;Node32 -->
<g id="edge49_Node000031_Node000032" class="edge">
<title>Node31&#45;&gt;Node32</title>
<g id="a_edge49_Node000031_Node000032"><a xlink:title=" ">
<path fill="none" stroke="#63b8ff" d="M300.51,-88.02C310.82,-91.87 322.63,-96.28 333.69,-100.41"/>
<polygon fill="#63b8ff" stroke="#63b8ff" points="332.41,-103.67 343,-103.89 334.86,-97.11 332.41,-103.67"/>
</a>
</g>
</g>
<!-- Node32&#45;&gt;Node21 -->
<g id="edge50_Node000032_Node000021" class="edge">
<title>Node32&#45;&gt;Node21</title>
<g id="a_edge50_Node000032_Node000021"><a xlink:title=" ">
<path fill="none" stroke="#63b8ff" d="M405.32,-104.44C416.13,-100.55 428.51,-96.09 440.08,-91.93"/>
<polygon fill="#63b8ff" stroke="#63b8ff" points="441.2,-95.24 449.43,-88.56 438.83,-88.66 441.2,-95.24"/>
</a>
</g>
</g>
<!-- Node32&#45;&gt;Node33 -->
<g id="edge51_Node000032_Node000033" class="edge">
<title>Node32&#45;&gt;Node33</title>
<g id="a_edge51_Node000032_Node000033"><a xlink:title=" ">
<path fill="none" stroke="#63b8ff" d="M408.47,-115.55C416.11,-115.62 424.39,-115.7 432.53,-115.77"/>
<polygon fill="#63b8ff" stroke="#63b8ff" points="432.32,-119.27 442.35,-115.87 432.38,-112.27 432.32,-119.27"/>
</a>
</g>
</g>
<!-- Node33&#45;&gt;Node23 -->
<g id="edge52_Node000033_Node000023" class="edge">
<title>Node33&#45;&gt;Node23</title>
<g id="a_edge52_Node000033_Node000023"><a xlink:title=" ">
<path fill="none" stroke="#63b8ff" d="M502.72,-105.51C518.39,-97.05 540.5,-85.1 558.34,-75.46"/>
<polygon fill="#63b8ff" stroke="#63b8ff" points="559.8,-78.65 566.93,-70.82 556.47,-72.49 559.8,-78.65"/>
</a>
</g>
</g>
</g>
</svg>
