<?xml version="1.0" encoding="UTF-8" standalone="no"?>
<!DOCTYPE svg PUBLIC "-//W3C//DTD SVG 1.1//EN"
 "http://www.w3.org/Graphics/SVG/1.1/DTD/svg11.dtd">
<!-- Generated by graphviz version 12.2.1 (0)
 -->
<!-- Title: w2c__f199 Pages: 1 -->
<svg width="342pt" height="68pt"
 viewBox="0.00 0.00 341.75 67.75" xmlns="http://www.w3.org/2000/svg" xmlns:xlink="http://www.w3.org/1999/xlink">
<g id="graph0" class="graph" transform="scale(1 1) rotate(0) translate(4 63.75)">
<title>w2c__f199</title>
<!-- Node1 -->
<g id="Node000001" class="node">
<title>Node1</title>
<g id="a_Node000001"><a xlink:title=" ">
<polygon fill="#999999" stroke="#666666" points="333.75,-39.75 266,-39.75 266,-19 333.75,-19 333.75,-39.75"/>
<text text-anchor="middle" x="299.88" y="-26.25" font-family="Helvetica,sans-Serif" font-size="10.00">w2c__f199</text>
</a>
</g>
</g>
<!-- Node2 -->
<g id="Node000002" class="node">
<title>Node2</title>
<g id="a_Node000002"><a xlink:href="app_8c.html#afb0325b318072421121ececc2415a642" target="_top" xlink:title=" ">
<polygon fill="white" stroke="#666666" points="215.38,-59.75 147.62,-59.75 147.62,-39 215.38,-39 215.38,-59.75"/>
<text text-anchor="middle" x="181.5" y="-46.25" font-family="Helvetica,sans-Serif" font-size="10.00">w2c__f511</text>
</a>
</g>
</g>
<!-- Node1&#45;&gt;Node2 -->
<g id="edge1_Node000001_Node000002" class="edge">
<title>Node1&#45;&gt;Node2</title>
<g id="a_edge1_Node000001_Node000002"><a xlink:title=" ">
<path fill="none" stroke="#63b8ff" d="M254.55,-36.99C241.71,-39.2 227.91,-41.57 215.85,-43.64"/>
<polygon fill="#63b8ff" stroke="#63b8ff" points="254.77,-40.51 264.03,-35.36 253.59,-33.61 254.77,-40.51"/>
</a>
</g>
</g>
<!-- Node4 -->
<g id="Node000004" class="node">
<title>Node4</title>
<g id="a_Node000004"><a xlink:href="app_8c.html#abac56b3bd2bf46aaa040ecdd8eccaea3" target="_top" xlink:title=" ">
<polygon fill="white" stroke="#666666" points="230,-20.75 133,-20.75 133,0 230,0 230,-20.75"/>
<text text-anchor="middle" x="181.5" y="-7.25" font-family="Helvetica,sans-Serif" font-size="10.00">wrap_w2c__f199</text>
</a>
</g>
</g>
<!-- Node1&#45;&gt;Node4 -->
<g id="edge3_Node000001_Node000004" class="edge">
<title>Node1&#45;&gt;Node4</title>
<g id="a_edge3_Node000001_Node000004"><a xlink:title=" ">
<path fill="none" stroke="#63b8ff" d="M254.28,-22.09C246.39,-20.81 238.14,-19.46 230.16,-18.16"/>
<polygon fill="#63b8ff" stroke="#63b8ff" points="253.6,-25.53 264.03,-23.69 254.73,-18.62 253.6,-25.53"/>
</a>
</g>
</g>
<!-- Node3 -->
<g id="Node000003" class="node">
<title>Node3</title>
<g id="a_Node000003"><a xlink:href="app_8c.html#a073bcf2b718e95dac403ae631eced4c1" target="_top" xlink:title=" ">
<polygon fill="white" stroke="#666666" points="97,-59.75 0,-59.75 0,-39 97,-39 97,-59.75"/>
<text text-anchor="middle" x="48.5" y="-46.25" font-family="Helvetica,sans-Serif" font-size="10.00">wrap_w2c__f511</text>
</a>
</g>
</g>
<!-- Node2&#45;&gt;Node3 -->
<g id="edge2_Node000002_Node000003" class="edge">
<title>Node2&#45;&gt;Node3</title>
<g id="a_edge2_Node000002_Node000003"><a xlink:title=" ">
<path fill="none" stroke="#63b8ff" d="M135.95,-49.38C123.53,-49.38 110,-49.38 97.4,-49.38"/>
<polygon fill="#63b8ff" stroke="#63b8ff" points="135.93,-52.88 145.93,-49.38 135.93,-45.88 135.93,-52.88"/>
</a>
</g>
</g>
</g>
</svg>
