<?xml version="1.0" encoding="UTF-8" standalone="no"?>
<!DOCTYPE svg PUBLIC "-//W3C//DTD SVG 1.1//EN"
 "http://www.w3.org/Graphics/SVG/1.1/DTD/svg11.dtd">
<!-- Generated by graphviz version 12.2.1 (0)
 -->
<!-- Title: w2c__f352 Pages: 1 -->
<svg width="804pt" height="832pt"
 viewBox="0.00 0.00 804.25 832.38" xmlns="http://www.w3.org/2000/svg" xmlns:xlink="http://www.w3.org/1999/xlink">
<g id="graph0" class="graph" transform="scale(1 1) rotate(0) translate(4 828.38)">
<title>w2c__f352</title>
<!-- Node1 -->
<g id="Node000001" class="node">
<title>Node1</title>
<g id="a_Node000001"><a xlink:title=" ">
<polygon fill="#999999" stroke="#666666" points="67.75,-553.38 0,-553.38 0,-532.62 67.75,-532.62 67.75,-553.38"/>
<text text-anchor="middle" x="33.88" y="-539.88" font-family="Helvetica,sans-Serif" font-size="10.00">w2c__f352</text>
</a>
</g>
</g>
<!-- Node2 -->
<g id="Node000002" class="node">
<title>Node2</title>
<g id="a_Node000002"><a xlink:href="app_8c.html#a073f670c8a950594dc8c2335dd28302c" target="_top" xlink:title=" ">
<polygon fill="white" stroke="#666666" points="173.75,-824.38 103.75,-824.38 103.75,-803.62 173.75,-803.62 173.75,-824.38"/>
<text text-anchor="middle" x="138.75" y="-810.88" font-family="Helvetica,sans-Serif" font-size="10.00">w2c_0_135</text>
</a>
</g>
</g>
<!-- Node1&#45;&gt;Node2 -->
<g id="edge1_Node000001_Node000002" class="edge">
<title>Node1&#45;&gt;Node2</title>
<g id="a_edge1_Node000001_Node000002"><a xlink:title=" ">
<path fill="none" stroke="#63b8ff" d="M35.05,-553.79C36.17,-591.09 44.41,-716.5 103.75,-794 104.27,-794.67 104.81,-795.33 105.38,-795.96"/>
<polygon fill="#63b8ff" stroke="#63b8ff" points="102.87,-798.43 112.75,-802.25 107.42,-793.1 102.87,-798.43"/>
</a>
</g>
</g>
<!-- Node3 -->
<g id="Node000003" class="node">
<title>Node3</title>
<g id="a_Node000003"><a xlink:href="app_8c.html#a68b833f9aeb03fa55aa2cc9624cdaf5d" target="_top" xlink:title=" ">
<polygon fill="white" stroke="#666666" points="173.75,-785.38 103.75,-785.38 103.75,-764.62 173.75,-764.62 173.75,-785.38"/>
<text text-anchor="middle" x="138.75" y="-771.88" font-family="Helvetica,sans-Serif" font-size="10.00">w2c_0_150</text>
</a>
</g>
</g>
<!-- Node1&#45;&gt;Node3 -->
<g id="edge2_Node000001_Node000003" class="edge">
<title>Node1&#45;&gt;Node3</title>
<g id="a_edge2_Node000001_Node000003"><a xlink:title=" ">
<path fill="none" stroke="#63b8ff" d="M35.68,-553.49C38.73,-586.65 52.14,-690.73 103.75,-755 104.28,-755.66 104.84,-756.3 105.42,-756.93"/>
<polygon fill="#63b8ff" stroke="#63b8ff" points="102.96,-759.43 112.88,-763.16 107.45,-754.06 102.96,-759.43"/>
</a>
</g>
</g>
<!-- Node4 -->
<g id="Node000004" class="node">
<title>Node4</title>
<g id="a_Node000004"><a xlink:href="app_8c.html#a365372478ebb0dcb09fa1c65a82a1867" target="_top" xlink:title=" ">
<polygon fill="white" stroke="#666666" points="173.75,-746.38 103.75,-746.38 103.75,-725.62 173.75,-725.62 173.75,-746.38"/>
<text text-anchor="middle" x="138.75" y="-732.88" font-family="Helvetica,sans-Serif" font-size="10.00">w2c_0_185</text>
</a>
</g>
</g>
<!-- Node1&#45;&gt;Node4 -->
<g id="edge3_Node000001_Node000004" class="edge">
<title>Node1&#45;&gt;Node4</title>
<g id="a_edge3_Node000001_Node000004"><a xlink:title=" ">
<path fill="none" stroke="#63b8ff" d="M36.61,-553.58C41.87,-582.65 59.97,-664.96 103.75,-716 104.41,-716.77 105.11,-717.52 105.85,-718.25"/>
<polygon fill="#63b8ff" stroke="#63b8ff" points="103.39,-720.77 113.39,-724.26 107.75,-715.29 103.39,-720.77"/>
</a>
</g>
</g>
<!-- Node5 -->
<g id="Node000005" class="node">
<title>Node5</title>
<g id="a_Node000005"><a xlink:href="app_8c.html#a26d9a78cb0a4535fb1a70951a4c4ffba" target="_top" xlink:title=" ">
<polygon fill="white" stroke="#666666" points="170.75,-707.38 106.75,-707.38 106.75,-686.62 170.75,-686.62 170.75,-707.38"/>
<text text-anchor="middle" x="138.75" y="-693.88" font-family="Helvetica,sans-Serif" font-size="10.00">w2c_0_34</text>
</a>
</g>
</g>
<!-- Node1&#45;&gt;Node5 -->
<g id="edge4_Node000001_Node000005" class="edge">
<title>Node1&#45;&gt;Node5</title>
<g id="a_edge4_Node000001_Node000005"><a xlink:title=" ">
<path fill="none" stroke="#63b8ff" d="M38.05,-553.61C45.78,-577.97 67.65,-638.78 103.75,-677 104.57,-677.87 105.44,-678.72 106.35,-679.54"/>
<polygon fill="#63b8ff" stroke="#63b8ff" points="103.89,-682.07 113.99,-685.28 108.1,-676.47 103.89,-682.07"/>
</a>
</g>
</g>
<!-- Node6 -->
<g id="Node000006" class="node">
<title>Node6</title>
<g id="a_Node000006"><a xlink:href="app_8c.html#aa709ee1fada6a506c56e35eaa8f8aef1" target="_top" xlink:title=" ">
<polygon fill="white" stroke="#666666" points="170.75,-668.38 106.75,-668.38 106.75,-647.62 170.75,-647.62 170.75,-668.38"/>
<text text-anchor="middle" x="138.75" y="-654.88" font-family="Helvetica,sans-Serif" font-size="10.00">w2c_0_39</text>
</a>
</g>
</g>
<!-- Node1&#45;&gt;Node6 -->
<g id="edge5_Node000001_Node000006" class="edge">
<title>Node1&#45;&gt;Node6</title>
<g id="a_edge5_Node000001_Node000006"><a xlink:title=" ">
<path fill="none" stroke="#63b8ff" d="M40.7,-553.79C51.29,-572.67 75.26,-612.11 103.75,-638 104.8,-638.96 105.91,-639.89 107.06,-640.8"/>
<polygon fill="#63b8ff" stroke="#63b8ff" points="104.86,-643.54 115.07,-646.35 108.85,-637.78 104.86,-643.54"/>
</a>
</g>
</g>
<!-- Node7 -->
<g id="Node000007" class="node">
<title>Node7</title>
<g id="a_Node000007"><a xlink:href="app_8c.html#a9aaf3655b108b04175755acefd27b7c1" target="_top" xlink:title=" ">
<polygon fill="white" stroke="#666666" points="170.75,-629.38 106.75,-629.38 106.75,-608.62 170.75,-608.62 170.75,-629.38"/>
<text text-anchor="middle" x="138.75" y="-615.88" font-family="Helvetica,sans-Serif" font-size="10.00">w2c_0_91</text>
</a>
</g>
</g>
<!-- Node1&#45;&gt;Node7 -->
<g id="edge6_Node000001_Node000007" class="edge">
<title>Node1&#45;&gt;Node7</title>
<g id="a_edge6_Node000001_Node000007"><a xlink:title=" ">
<path fill="none" stroke="#63b8ff" d="M48.76,-553.69C62.6,-564.29 84.51,-580.95 103.75,-595 106.78,-597.22 109.99,-599.52 113.17,-601.79"/>
<polygon fill="#63b8ff" stroke="#63b8ff" points="111.02,-604.56 121.21,-607.48 115.07,-598.84 111.02,-604.56"/>
</a>
</g>
</g>
<!-- Node8 -->
<g id="Node000008" class="node">
<title>Node8</title>
<g id="a_Node000008"><a xlink:href="app_8c.html#a0378208e0d5c0d1d6e7370f1c578fab3" target="_top" xlink:title=" ">
<polygon fill="white" stroke="#666666" points="692.5,-361.38 624.75,-361.38 624.75,-340.62 692.5,-340.62 692.5,-361.38"/>
<text text-anchor="middle" x="658.62" y="-347.88" font-family="Helvetica,sans-Serif" font-size="10.00">w2c__f216</text>
</a>
</g>
</g>
<!-- Node1&#45;&gt;Node8 -->
<g id="edge7_Node000001_Node000008" class="edge">
<title>Node1&#45;&gt;Node8</title>
<g id="a_edge7_Node000001_Node000008"><a xlink:title=" ">
<path fill="none" stroke="#63b8ff" d="M36.84,-532.19C42.79,-501.6 62.75,-412.62 103.75,-351 139.12,-297.83 150.68,-278.27 209.75,-254 366.34,-189.67 440.13,-210.94 588.75,-292 608.25,-302.64 627.18,-319.47 640.24,-332.44"/>
<polygon fill="#63b8ff" stroke="#63b8ff" points="637.37,-334.51 646.87,-339.22 642.38,-329.62 637.37,-334.51"/>
</a>
</g>
</g>
<!-- Node10 -->
<g id="Node000010" class="node">
<title>Node10</title>
<g id="a_Node000010"><a xlink:href="app_8c.html#aaca5d5bcf49f2ca74019cf097750b9f3" target="_top" xlink:title=" ">
<polygon fill="white" stroke="#666666" points="692.5,-514.38 624.75,-514.38 624.75,-493.62 692.5,-493.62 692.5,-514.38"/>
<text text-anchor="middle" x="658.62" y="-500.88" font-family="Helvetica,sans-Serif" font-size="10.00">w2c__f258</text>
</a>
</g>
</g>
<!-- Node1&#45;&gt;Node10 -->
<g id="edge9_Node000001_Node000010" class="edge">
<title>Node1&#45;&gt;Node10</title>
<g id="a_edge9_Node000001_Node000010"><a xlink:title=" ">
<path fill="none" stroke="#63b8ff" d="M61.03,-553.75C113.95,-574.48 237.91,-618 346.38,-618 346.38,-618 346.38,-618 452.12,-618 515.03,-618 535.21,-614.03 588.75,-581 612.23,-566.52 632.36,-541.64 644.69,-524.09"/>
<polygon fill="#63b8ff" stroke="#63b8ff" points="647.46,-526.23 650.16,-515.99 641.66,-522.31 647.46,-526.23"/>
</a>
</g>
</g>
<!-- Node12 -->
<g id="Node000012" class="node">
<title>Node12</title>
<g id="a_Node000012"><a xlink:href="app_8c.html#a8d8a9f240d971fdd48e2227d3e26416d" target="_top" xlink:title=" ">
<polygon fill="white" stroke="#666666" points="172.62,-514.38 104.88,-514.38 104.88,-493.62 172.62,-493.62 172.62,-514.38"/>
<text text-anchor="middle" x="138.75" y="-500.88" font-family="Helvetica,sans-Serif" font-size="10.00">w2c__f283</text>
</a>
</g>
</g>
<!-- Node1&#45;&gt;Node12 -->
<g id="edge12_Node000001_Node000012" class="edge">
<title>Node1&#45;&gt;Node12</title>
<g id="a_edge12_Node000001_Node000012"><a xlink:title=" ">
<path fill="none" stroke="#63b8ff" d="M63.53,-532.14C74.46,-527.99 87.1,-523.2 98.82,-518.76"/>
<polygon fill="#63b8ff" stroke="#63b8ff" points="99.72,-522.16 107.83,-515.34 97.24,-515.61 99.72,-522.16"/>
</a>
</g>
</g>
<!-- Node13 -->
<g id="Node000013" class="node">
<title>Node13</title>
<g id="a_Node000013"><a xlink:href="app_8c.html#a39e5374effeff0dc142bbb7c393a906a" target="_top" xlink:title=" ">
<polygon fill="white" stroke="#666666" points="172.62,-553.38 104.88,-553.38 104.88,-532.62 172.62,-532.62 172.62,-553.38"/>
<text text-anchor="middle" x="138.75" y="-539.88" font-family="Helvetica,sans-Serif" font-size="10.00">w2c__f311</text>
</a>
</g>
</g>
<!-- Node1&#45;&gt;Node13 -->
<g id="edge13_Node000001_Node000013" class="edge">
<title>Node1&#45;&gt;Node13</title>
<g id="a_edge13_Node000001_Node000013"><a xlink:title=" ">
<path fill="none" stroke="#63b8ff" d="M67.99,-543C76.07,-543 84.84,-543 93.35,-543"/>
<polygon fill="#63b8ff" stroke="#63b8ff" points="93.18,-546.5 103.18,-543 93.18,-539.5 93.18,-546.5"/>
</a>
</g>
</g>
<!-- Node15 -->
<g id="Node000015" class="node">
<title>Node15</title>
<g id="a_Node000015"><a xlink:href="app_8c.html#a5bcd487c0a8bcb7cb69947a76c4951cb" target="_top" xlink:title=" ">
<polygon fill="white" stroke="#666666" points="172.62,-419.38 104.88,-419.38 104.88,-398.62 172.62,-398.62 172.62,-419.38"/>
<text text-anchor="middle" x="138.75" y="-405.88" font-family="Helvetica,sans-Serif" font-size="10.00">w2c__f324</text>
</a>
</g>
</g>
<!-- Node1&#45;&gt;Node15 -->
<g id="edge16_Node000001_Node000015" class="edge">
<title>Node1&#45;&gt;Node15</title>
<g id="a_edge16_Node000001_Node000015"><a xlink:title=" ">
<path fill="none" stroke="#63b8ff" d="M42.86,-532.3C55.62,-515.23 81.44,-480.84 103.75,-452 109.81,-444.17 116.56,-435.6 122.44,-428.18"/>
<polygon fill="#63b8ff" stroke="#63b8ff" points="124.88,-430.74 128.36,-420.74 119.4,-426.39 124.88,-430.74"/>
</a>
</g>
</g>
<!-- Node17 -->
<g id="Node000017" class="node">
<title>Node17</title>
<g id="a_Node000017"><a xlink:href="app_8c.html#a282da58cdb8a8d86b26b785358ce183a" target="_top" xlink:title=" ">
<polygon fill="white" stroke="#666666" points="381.25,-476.38 313.5,-476.38 313.5,-455.62 381.25,-455.62 381.25,-476.38"/>
<text text-anchor="middle" x="347.38" y="-462.88" font-family="Helvetica,sans-Serif" font-size="10.00">w2c__f504</text>
</a>
</g>
</g>
<!-- Node1&#45;&gt;Node17 -->
<g id="edge54_Node000001_Node000017" class="edge">
<title>Node1&#45;&gt;Node17</title>
<g id="a_edge54_Node000001_Node000017"><a xlink:title=" ">
<path fill="none" stroke="#63b8ff" d="M43.8,-532.14C55.81,-518.4 78.58,-495.32 103.75,-485 168.72,-458.37 251.57,-458.31 301.72,-461.54"/>
<polygon fill="#63b8ff" stroke="#63b8ff" points="301.39,-465.03 311.62,-462.26 301.9,-458.04 301.39,-465.03"/>
</a>
</g>
</g>
<!-- Node22 -->
<g id="Node000022" class="node">
<title>Node22</title>
<g id="a_Node000022"><a xlink:href="app_8c.html#a674f6e81761467d0a8dc6d2a425eda9f" target="_top" xlink:title=" ">
<polygon fill="white" stroke="#666666" points="692.5,-67.38 624.75,-67.38 624.75,-46.62 692.5,-46.62 692.5,-67.38"/>
<text text-anchor="middle" x="658.62" y="-53.88" font-family="Helvetica,sans-Serif" font-size="10.00">w2c__f498</text>
</a>
</g>
</g>
<!-- Node1&#45;&gt;Node22 -->
<g id="edge53_Node000001_Node000022" class="edge">
<title>Node1&#45;&gt;Node22</title>
<g id="a_edge53_Node000001_Node000022"><a xlink:title=" ">
<path fill="none" stroke="#63b8ff" d="M34.5,-532.44C33.22,-484.6 32.56,-284.45 103.75,-144 143.95,-64.69 153.71,0 242.62,0 242.62,0 242.62,0 452.12,0 514.56,0 583.92,-24.74 623.98,-41.62"/>
<polygon fill="#63b8ff" stroke="#63b8ff" points="622.52,-44.8 633.08,-45.55 625.29,-38.37 622.52,-44.8"/>
</a>
</g>
</g>
<!-- Node29 -->
<g id="Node000029" class="node">
<title>Node29</title>
<g id="a_Node000029"><a xlink:href="app_8c.html#a638f8f3762772ce177faef400f358c59" target="_top" xlink:title=" ">
<polygon fill="white" stroke="#666666" points="485,-166.38 417.25,-166.38 417.25,-145.62 485,-145.62 485,-166.38"/>
<text text-anchor="middle" x="451.12" y="-152.88" font-family="Helvetica,sans-Serif" font-size="10.00">w2c__f429</text>
</a>
</g>
</g>
<!-- Node1&#45;&gt;Node29 -->
<g id="edge42_Node000001_Node000029" class="edge">
<title>Node1&#45;&gt;Node29</title>
<g id="a_edge42_Node000001_Node000029"><a xlink:title=" ">
<path fill="none" stroke="#63b8ff" d="M35.28,-532.14C37.54,-477.56 50.52,-233.95 103.75,-186 187.4,-110.64 333.03,-129.17 405.92,-144.78"/>
<polygon fill="#63b8ff" stroke="#63b8ff" points="404.97,-148.15 415.49,-146.91 406.49,-141.32 404.97,-148.15"/>
</a>
</g>
</g>
<!-- Node34 -->
<g id="Node000034" class="node">
<title>Node34</title>
<g id="a_Node000034"><a xlink:href="app_8c.html#a8d133b0dcb7130bbc0a48ea5c1975662" target="_top" xlink:title=" ">
<polygon fill="white" stroke="#666666" points="172.62,-380.38 104.88,-380.38 104.88,-359.62 172.62,-359.62 172.62,-380.38"/>
<text text-anchor="middle" x="138.75" y="-366.88" font-family="Helvetica,sans-Serif" font-size="10.00">w2c__f436</text>
</a>
</g>
</g>
<!-- Node1&#45;&gt;Node34 -->
<g id="edge50_Node000001_Node000034" class="edge">
<title>Node1&#45;&gt;Node34</title>
<g id="a_edge50_Node000001_Node000034"><a xlink:title=" ">
<path fill="none" stroke="#63b8ff" d="M37.24,-532.5C43.7,-505.83 63.88,-434.46 103.75,-390 104.45,-389.22 105.19,-388.46 105.96,-387.72"/>
<polygon fill="#63b8ff" stroke="#63b8ff" points="108.09,-390.5 113.86,-381.61 103.81,-384.96 108.09,-390.5"/>
</a>
</g>
</g>
<!-- Node9 -->
<g id="Node000009" class="node">
<title>Node9</title>
<g id="a_Node000009"><a xlink:href="app_8c.html#a8d9f347f9a643f0ebfb53c4f54578ac4" target="_top" xlink:title=" ">
<polygon fill="white" stroke="#666666" points="796.25,-456.38 728.5,-456.38 728.5,-435.62 796.25,-435.62 796.25,-456.38"/>
<text text-anchor="middle" x="762.38" y="-442.88" font-family="Helvetica,sans-Serif" font-size="10.00">w2c__f304</text>
</a>
</g>
</g>
<!-- Node8&#45;&gt;Node9 -->
<g id="edge8_Node000008_Node000009" class="edge">
<title>Node8&#45;&gt;Node9</title>
<g id="a_edge8_Node000008_Node000009"><a xlink:title=" ">
<path fill="none" stroke="#63b8ff" d="M670.9,-361.53C687.93,-377.42 720.43,-407.77 741.49,-427.43"/>
<polygon fill="#63b8ff" stroke="#63b8ff" points="738.93,-429.83 748.63,-434.1 743.71,-424.72 738.93,-429.83"/>
</a>
</g>
</g>
<!-- Node10&#45;&gt;Node9 -->
<g id="edge10_Node000010_Node000009" class="edge">
<title>Node10&#45;&gt;Node9</title>
<g id="a_edge10_Node000010_Node000009"><a xlink:title=" ">
<path fill="none" stroke="#63b8ff" d="M678.29,-493.36C693.54,-484.67 715.35,-472.24 732.8,-462.29"/>
<polygon fill="#63b8ff" stroke="#63b8ff" points="734.22,-465.51 741.17,-457.52 730.75,-459.43 734.22,-465.51"/>
</a>
</g>
</g>
<!-- Node11 -->
<g id="Node000011" class="node">
<title>Node11</title>
<g id="a_Node000011"><a xlink:href="app_8c.html#a881f0b113e93dce3ff52d04b435850f6" target="_top" xlink:title=" ">
<polygon fill="white" stroke="#666666" points="796.25,-514.38 728.5,-514.38 728.5,-493.62 796.25,-493.62 796.25,-514.38"/>
<text text-anchor="middle" x="762.38" y="-500.88" font-family="Helvetica,sans-Serif" font-size="10.00">w2c__f491</text>
</a>
</g>
</g>
<!-- Node10&#45;&gt;Node11 -->
<g id="edge11_Node000010_Node000011" class="edge">
<title>Node10&#45;&gt;Node11</title>
<g id="a_edge11_Node000010_Node000011"><a xlink:title=" ">
<path fill="none" stroke="#63b8ff" d="M692.94,-504C700.57,-504 708.81,-504 716.83,-504"/>
<polygon fill="#63b8ff" stroke="#63b8ff" points="716.82,-507.5 726.82,-504 716.82,-500.5 716.82,-507.5"/>
</a>
</g>
</g>
<!-- Node13&#45;&gt;Node10 -->
<g id="edge14_Node000013_Node000010" class="edge">
<title>Node13&#45;&gt;Node10</title>
<g id="a_edge14_Node000013_Node000010"><a xlink:title=" ">
<path fill="none" stroke="#63b8ff" d="M173.06,-552.72C213.63,-563.68 284.42,-580 346.38,-580 346.38,-580 346.38,-580 452.12,-580 513.78,-580 532.21,-580.59 588.75,-556 607.32,-547.92 625.49,-533.87 638.49,-522.41"/>
<polygon fill="#63b8ff" stroke="#63b8ff" points="640.85,-525 645.87,-515.67 636.13,-519.84 640.85,-525"/>
</a>
</g>
</g>
<!-- Node14 -->
<g id="Node000014" class="node">
<title>Node14</title>
<g id="a_Node000014"><a xlink:href="app_8c.html#aeda0fdcf4b3bed63365b3a77c2197b09" target="_top" xlink:title=" ">
<polygon fill="white" stroke="#666666" points="277.5,-552.38 209.75,-552.38 209.75,-531.62 277.5,-531.62 277.5,-552.38"/>
<text text-anchor="middle" x="243.62" y="-538.88" font-family="Helvetica,sans-Serif" font-size="10.00">w2c__f538</text>
</a>
</g>
</g>
<!-- Node13&#45;&gt;Node14 -->
<g id="edge15_Node000013_Node000014" class="edge">
<title>Node13&#45;&gt;Node14</title>
<g id="a_edge15_Node000013_Node000014"><a xlink:title=" ">
<path fill="none" stroke="#63b8ff" d="M172.87,-542.68C180.94,-542.6 189.71,-542.51 198.22,-542.43"/>
<polygon fill="#63b8ff" stroke="#63b8ff" points="198.09,-545.93 208.06,-542.34 198.02,-538.93 198.09,-545.93"/>
</a>
</g>
</g>
<!-- Node15&#45;&gt;Node8 -->
<g id="edge17_Node000015_Node000008" class="edge">
<title>Node15&#45;&gt;Node8</title>
<g id="a_edge17_Node000015_Node000008"><a xlink:title=" ">
<path fill="none" stroke="#63b8ff" d="M172.9,-409.94C200.81,-410.5 241.79,-410.8 277.5,-409 416.48,-401.99 453.26,-406.72 588.75,-375 599.16,-372.56 610.2,-369.12 620.32,-365.6"/>
<polygon fill="#63b8ff" stroke="#63b8ff" points="621.22,-369 629.44,-362.31 618.84,-362.41 621.22,-369"/>
</a>
</g>
</g>
<!-- Node15&#45;&gt;Node10 -->
<g id="edge18_Node000015_Node000010" class="edge">
<title>Node15&#45;&gt;Node10</title>
<g id="a_edge18_Node000015_Node000010"><a xlink:title=" ">
<path fill="none" stroke="#63b8ff" d="M159.39,-419.84C190.88,-436.7 255.09,-468.93 313.5,-485 403.11,-509.66 428.24,-505.21 521,-511 551.05,-512.88 558.68,-512.52 588.75,-511 596.66,-510.6 605.07,-509.94 613.19,-509.18"/>
<polygon fill="#63b8ff" stroke="#63b8ff" points="613.29,-512.69 622.89,-508.21 612.59,-505.73 613.29,-512.69"/>
</a>
</g>
</g>
<!-- Node16 -->
<g id="Node000016" class="node">
<title>Node16</title>
<g id="a_Node000016"><a xlink:href="app_8c.html#a8ddfdaf7faae4bc857dc43f2691b9dbe" target="_top" xlink:title=" ">
<polygon fill="white" stroke="#666666" points="277.5,-400.38 209.75,-400.38 209.75,-379.62 277.5,-379.62 277.5,-400.38"/>
<text text-anchor="middle" x="243.62" y="-386.88" font-family="Helvetica,sans-Serif" font-size="10.00">w2c__f306</text>
</a>
</g>
</g>
<!-- Node15&#45;&gt;Node16 -->
<g id="edge19_Node000015_Node000016" class="edge">
<title>Node15&#45;&gt;Node16</title>
<g id="a_edge19_Node000015_Node000016"><a xlink:title=" ">
<path fill="none" stroke="#63b8ff" d="M172.87,-402.88C181.03,-401.38 189.91,-399.74 198.51,-398.15"/>
<polygon fill="#63b8ff" stroke="#63b8ff" points="198.88,-401.64 208.08,-396.38 197.61,-394.75 198.88,-401.64"/>
</a>
</g>
</g>
<!-- Node15&#45;&gt;Node22 -->
<g id="edge41_Node000015_Node000022" class="edge">
<title>Node15&#45;&gt;Node22</title>
<g id="a_edge41_Node000015_Node000022"><a xlink:title=" ">
<path fill="none" stroke="#63b8ff" d="M163.48,-398.15C167.31,-395.58 170.93,-392.54 173.75,-389 206.85,-347.44 188.36,-323.64 209.75,-275 258.71,-163.71 224.79,-38 346.38,-38 346.38,-38 346.38,-38 452.12,-38 507.68,-38 571.33,-44.97 612.88,-50.47"/>
<polygon fill="#63b8ff" stroke="#63b8ff" points="612.37,-53.93 622.75,-51.8 613.31,-46.99 612.37,-53.93"/>
</a>
</g>
</g>
<!-- Node23 -->
<g id="Node000023" class="node">
<title>Node23</title>
<g id="a_Node000023"><a xlink:href="app_8c.html#aef40add0dc334cf9fde891ca08feb3af" target="_top" xlink:title=" ">
<polygon fill="white" stroke="#666666" points="277.5,-343.38 209.75,-343.38 209.75,-322.62 277.5,-322.62 277.5,-343.38"/>
<text text-anchor="middle" x="243.62" y="-329.88" font-family="Helvetica,sans-Serif" font-size="10.00">w2c__f307</text>
</a>
</g>
</g>
<!-- Node15&#45;&gt;Node23 -->
<g id="edge33_Node000015_Node000023" class="edge">
<title>Node15&#45;&gt;Node23</title>
<g id="a_edge33_Node000015_Node000023"><a xlink:title=" ">
<path fill="none" stroke="#63b8ff" d="M159.13,-398.28C163.99,-395.41 169.14,-392.2 173.75,-389 190.82,-377.14 209.02,-362.23 222.42,-350.78"/>
<polygon fill="#63b8ff" stroke="#63b8ff" points="224.44,-353.66 229.72,-344.48 219.86,-348.37 224.44,-353.66"/>
</a>
</g>
</g>
<!-- Node27 -->
<g id="Node000027" class="node">
<title>Node27</title>
<g id="a_Node000027"><a xlink:href="app_8c.html#a6400a1d612ef3a2faf5397156806ce7f" target="_top" xlink:title=" ">
<polygon fill="white" stroke="#666666" points="277.5,-304.38 209.75,-304.38 209.75,-283.62 277.5,-283.62 277.5,-304.38"/>
<text text-anchor="middle" x="243.62" y="-290.88" font-family="Helvetica,sans-Serif" font-size="10.00">w2c__f450</text>
</a>
</g>
</g>
<!-- Node15&#45;&gt;Node27 -->
<g id="edge38_Node000015_Node000027" class="edge">
<title>Node15&#45;&gt;Node27</title>
<g id="a_edge38_Node000015_Node000027"><a xlink:title=" ">
<path fill="none" stroke="#63b8ff" d="M162.38,-398.26C166.49,-395.62 170.51,-392.53 173.75,-389 198.77,-361.78 184.93,-341.41 209.75,-314 210.44,-313.24 211.16,-312.5 211.91,-311.78"/>
<polygon fill="#63b8ff" stroke="#63b8ff" points="213.86,-314.7 219.56,-305.78 209.53,-309.2 213.86,-314.7"/>
</a>
</g>
</g>
<!-- Node16&#45;&gt;Node8 -->
<g id="edge20_Node000016_Node000008" class="edge">
<title>Node16&#45;&gt;Node8</title>
<g id="a_edge20_Node000016_Node000008"><a xlink:title=" ">
<path fill="none" stroke="#63b8ff" d="M277.71,-387.77C324.09,-384.55 411.05,-378.2 485,-371 528.7,-366.74 578.51,-360.86 613.36,-356.58"/>
<polygon fill="#63b8ff" stroke="#63b8ff" points="613.57,-360.08 623.07,-355.38 612.71,-353.13 613.57,-360.08"/>
</a>
</g>
</g>
<!-- Node16&#45;&gt;Node17 -->
<g id="edge21_Node000016_Node000017" class="edge">
<title>Node16&#45;&gt;Node17</title>
<g id="a_edge21_Node000016_Node000017"><a xlink:title=" ">
<path fill="none" stroke="#63b8ff" d="M258.77,-400.57C275.38,-412.98 303.18,-433.74 323.01,-448.55"/>
<polygon fill="#63b8ff" stroke="#63b8ff" points="320.7,-451.19 330.81,-454.37 324.89,-445.58 320.7,-451.19"/>
</a>
</g>
</g>
<!-- Node18 -->
<g id="Node000018" class="node">
<title>Node18</title>
<g id="a_Node000018"><a xlink:href="app_8c.html#a1a8a1d528c65d63a630e19c3a4bdd098" target="_top" xlink:title=" ">
<polygon fill="white" stroke="#666666" points="485,-476.38 417.25,-476.38 417.25,-455.62 485,-455.62 485,-476.38"/>
<text text-anchor="middle" x="451.12" y="-462.88" font-family="Helvetica,sans-Serif" font-size="10.00">w2c__f557</text>
</a>
</g>
</g>
<!-- Node17&#45;&gt;Node18 -->
<g id="edge22_Node000017_Node000018" class="edge">
<title>Node17&#45;&gt;Node18</title>
<g id="a_edge22_Node000017_Node000018"><a xlink:title=" ">
<path fill="none" stroke="#63b8ff" d="M381.69,-466C389.32,-466 397.56,-466 405.58,-466"/>
<polygon fill="#63b8ff" stroke="#63b8ff" points="405.57,-469.5 415.57,-466 405.57,-462.5 405.57,-469.5"/>
</a>
</g>
</g>
<!-- Node19 -->
<g id="Node000019" class="node">
<title>Node19</title>
<g id="a_Node000019"><a xlink:href="app_8c.html#a0f7003812eaf983535ff7979fc047a21" target="_top" xlink:title=" ">
<polygon fill="white" stroke="#666666" points="588.75,-476.38 521,-476.38 521,-455.62 588.75,-455.62 588.75,-476.38"/>
<text text-anchor="middle" x="554.88" y="-462.88" font-family="Helvetica,sans-Serif" font-size="10.00">w2c__f353</text>
</a>
</g>
</g>
<!-- Node18&#45;&gt;Node19 -->
<g id="edge23_Node000018_Node000019" class="edge">
<title>Node18&#45;&gt;Node19</title>
<g id="a_edge23_Node000018_Node000019"><a xlink:title=" ">
<path fill="none" stroke="#63b8ff" d="M485.44,-466C493.07,-466 501.31,-466 509.33,-466"/>
<polygon fill="#63b8ff" stroke="#63b8ff" points="509.32,-469.5 519.32,-466 509.32,-462.5 509.32,-469.5"/>
</a>
</g>
</g>
<!-- Node21 -->
<g id="Node000021" class="node">
<title>Node21</title>
<g id="a_Node000021"><a xlink:href="app_8c.html#ac9cc84763a9c1933e50eedd7a06c17e2" target="_top" xlink:title=" ">
<polygon fill="white" stroke="#666666" points="588.75,-437.38 521,-437.38 521,-416.62 588.75,-416.62 588.75,-437.38"/>
<text text-anchor="middle" x="554.88" y="-423.88" font-family="Helvetica,sans-Serif" font-size="10.00">w2c__f480</text>
</a>
</g>
</g>
<!-- Node18&#45;&gt;Node21 -->
<g id="edge27_Node000018_Node000021" class="edge">
<title>Node18&#45;&gt;Node21</title>
<g id="a_edge27_Node000018_Node000021"><a xlink:title=" ">
<path fill="none" stroke="#63b8ff" d="M480.47,-455.14C491.16,-451.04 503.52,-446.3 515.01,-441.9"/>
<polygon fill="#63b8ff" stroke="#63b8ff" points="516.19,-445.19 524.27,-438.35 513.68,-438.66 516.19,-445.19"/>
</a>
</g>
</g>
<!-- Node19&#45;&gt;Node10 -->
<g id="edge24_Node000019_Node000010" class="edge">
<title>Node19&#45;&gt;Node10</title>
<g id="a_edge24_Node000019_Node000010"><a xlink:title=" ">
<path fill="none" stroke="#63b8ff" d="M584.76,-476.79C595.07,-480.64 606.88,-485.05 617.94,-489.18"/>
<polygon fill="#63b8ff" stroke="#63b8ff" points="616.66,-492.44 627.25,-492.66 619.11,-485.88 616.66,-492.44"/>
</a>
</g>
</g>
<!-- Node20 -->
<g id="Node000020" class="node">
<title>Node20</title>
<g id="a_Node000020"><a xlink:href="app_8c.html#a4634342addbde677893ffcb45cf639dd" target="_top" xlink:title=" ">
<polygon fill="white" stroke="#666666" points="692.5,-475.38 624.75,-475.38 624.75,-454.62 692.5,-454.62 692.5,-475.38"/>
<text text-anchor="middle" x="658.62" y="-461.88" font-family="Helvetica,sans-Serif" font-size="10.00">w2c__f302</text>
</a>
</g>
</g>
<!-- Node19&#45;&gt;Node20 -->
<g id="edge25_Node000019_Node000020" class="edge">
<title>Node19&#45;&gt;Node20</title>
<g id="a_edge25_Node000019_Node000020"><a xlink:title=" ">
<path fill="none" stroke="#63b8ff" d="M589.19,-465.67C596.82,-465.6 605.06,-465.52 613.08,-465.44"/>
<polygon fill="#63b8ff" stroke="#63b8ff" points="613.1,-468.94 623.07,-465.34 613.03,-461.94 613.1,-468.94"/>
</a>
</g>
</g>
<!-- Node20&#45;&gt;Node9 -->
<g id="edge26_Node000020_Node000009" class="edge">
<title>Node20&#45;&gt;Node9</title>
<g id="a_edge26_Node000020_Node000009"><a xlink:title=" ">
<path fill="none" stroke="#63b8ff" d="M692.94,-458.78C700.66,-457.34 709,-455.78 717.11,-454.27"/>
<polygon fill="#63b8ff" stroke="#63b8ff" points="717.66,-457.72 726.84,-452.45 716.37,-450.84 717.66,-457.72"/>
</a>
</g>
</g>
<!-- Node21&#45;&gt;Node8 -->
<g id="edge28_Node000021_Node000008" class="edge">
<title>Node21&#45;&gt;Node8</title>
<g id="a_edge28_Node000021_Node000008"><a xlink:title=" ">
<path fill="none" stroke="#63b8ff" d="M570.64,-416.3C576.32,-412.16 582.85,-407.38 588.75,-403 604.04,-391.64 621.14,-378.74 634.47,-368.63"/>
<polygon fill="#63b8ff" stroke="#63b8ff" points="636.38,-371.57 642.22,-362.74 632.14,-366 636.38,-371.57"/>
</a>
</g>
</g>
<!-- Node21&#45;&gt;Node9 -->
<g id="edge31_Node000021_Node000009" class="edge">
<title>Node21&#45;&gt;Node9</title>
<g id="a_edge31_Node000021_Node000009"><a xlink:title=" ">
<path fill="none" stroke="#63b8ff" d="M588.89,-430.05C623.54,-433.26 678.23,-438.31 716.71,-441.87"/>
<polygon fill="#63b8ff" stroke="#63b8ff" points="716.31,-445.35 726.59,-442.78 716.96,-438.38 716.31,-445.35"/>
</a>
</g>
</g>
<!-- Node21&#45;&gt;Node10 -->
<g id="edge29_Node000021_Node000010" class="edge">
<title>Node21&#45;&gt;Node10</title>
<g id="a_edge29_Node000021_Node000010"><a xlink:title=" ">
<path fill="none" stroke="#63b8ff" d="M575.54,-437.85C580.03,-440.63 584.67,-443.75 588.75,-447 606.69,-461.3 606.81,-469.7 624.75,-484 626.02,-485.01 627.35,-486.02 628.72,-487"/>
<polygon fill="#63b8ff" stroke="#63b8ff" points="626.43,-489.69 636.7,-492.31 630.31,-483.86 626.43,-489.69"/>
</a>
</g>
</g>
<!-- Node21&#45;&gt;Node20 -->
<g id="edge30_Node000021_Node000020" class="edge">
<title>Node21&#45;&gt;Node20</title>
<g id="a_edge30_Node000021_Node000020"><a xlink:title=" ">
<path fill="none" stroke="#63b8ff" d="M584.76,-437.79C595.07,-441.64 606.88,-446.05 617.94,-450.18"/>
<polygon fill="#63b8ff" stroke="#63b8ff" points="616.66,-453.44 627.25,-453.66 619.11,-446.88 616.66,-453.44"/>
</a>
</g>
</g>
<!-- Node21&#45;&gt;Node22 -->
<g id="edge32_Node000021_Node000022" class="edge">
<title>Node21&#45;&gt;Node22</title>
<g id="a_edge32_Node000021_Node000022"><a xlink:title=" ">
<path fill="none" stroke="#63b8ff" d="M556.21,-416.38C557.95,-373.84 568.13,-212.38 624.75,-96 628.16,-89 633.1,-82.2 638.13,-76.3"/>
<polygon fill="#63b8ff" stroke="#63b8ff" points="640.67,-78.71 644.86,-68.97 635.51,-73.97 640.67,-78.71"/>
</a>
</g>
</g>
<!-- Node23&#45;&gt;Node23 -->
<g id="edge34_Node000023_Node000023" class="edge">
<title>Node23&#45;&gt;Node23</title>
<g id="a_edge34_Node000023_Node000023"><a xlink:title=" ">
<path fill="none" stroke="#63b8ff" d="M226.91,-343.77C220.22,-352.43 225.79,-361.38 243.62,-361.38 253.1,-361.38 259.11,-358.85 261.66,-355.19"/>
<polygon fill="#63b8ff" stroke="#63b8ff" points="265.14,-354.81 260.52,-345.28 258.19,-355.61 265.14,-354.81"/>
</a>
</g>
</g>
<!-- Node24 -->
<g id="Node000024" class="node">
<title>Node24</title>
<g id="a_Node000024"><a xlink:href="app_8c.html#a0a38e411c42b7f55721003b8e8ca0220" target="_top" xlink:title=" ">
<polygon fill="white" stroke="#666666" points="381.25,-362.38 313.5,-362.38 313.5,-341.62 381.25,-341.62 381.25,-362.38"/>
<text text-anchor="middle" x="347.38" y="-348.88" font-family="Helvetica,sans-Serif" font-size="10.00">w2c__f584</text>
</a>
</g>
</g>
<!-- Node23&#45;&gt;Node24 -->
<g id="edge35_Node000023_Node000024" class="edge">
<title>Node23&#45;&gt;Node24</title>
<g id="a_edge35_Node000023_Node000024"><a xlink:title=" ">
<path fill="none" stroke="#63b8ff" d="M277.94,-339.22C285.66,-340.66 294,-342.22 302.11,-343.73"/>
<polygon fill="#63b8ff" stroke="#63b8ff" points="301.37,-347.16 311.84,-345.55 302.66,-340.28 301.37,-347.16"/>
</a>
</g>
</g>
<!-- Node25 -->
<g id="Node000025" class="node">
<title>Node25</title>
<g id="a_Node000025"><a xlink:href="app_8c.html#ad08eca629615b71460bd69ae96483b21" target="_top" xlink:title=" ">
<polygon fill="white" stroke="#666666" points="485,-362.38 417.25,-362.38 417.25,-341.62 485,-341.62 485,-362.38"/>
<text text-anchor="middle" x="451.12" y="-348.88" font-family="Helvetica,sans-Serif" font-size="10.00">w2c__f327</text>
</a>
</g>
</g>
<!-- Node24&#45;&gt;Node25 -->
<g id="edge36_Node000024_Node000025" class="edge">
<title>Node24&#45;&gt;Node25</title>
<g id="a_edge36_Node000024_Node000025"><a xlink:title=" ">
<path fill="none" stroke="#63b8ff" d="M381.69,-352C389.32,-352 397.56,-352 405.58,-352"/>
<polygon fill="#63b8ff" stroke="#63b8ff" points="405.57,-355.5 415.57,-352 405.57,-348.5 405.57,-355.5"/>
</a>
</g>
</g>
<!-- Node26 -->
<g id="Node000026" class="node">
<title>Node26</title>
<g id="a_Node000026"><a xlink:href="app_8c.html#ab78a9ba6819f5a9d3b53302097151d33" target="_top" xlink:title=" ">
<polygon fill="white" stroke="#666666" points="485,-323.38 417.25,-323.38 417.25,-302.62 485,-302.62 485,-323.38"/>
<text text-anchor="middle" x="451.12" y="-309.88" font-family="Helvetica,sans-Serif" font-size="10.00">w2c__f481</text>
</a>
</g>
</g>
<!-- Node24&#45;&gt;Node26 -->
<g id="edge37_Node000024_Node000026" class="edge">
<title>Node24&#45;&gt;Node26</title>
<g id="a_edge37_Node000024_Node000026"><a xlink:title=" ">
<path fill="none" stroke="#63b8ff" d="M376.72,-341.14C387.41,-337.04 399.77,-332.3 411.26,-327.9"/>
<polygon fill="#63b8ff" stroke="#63b8ff" points="412.44,-331.19 420.52,-324.35 409.93,-324.66 412.44,-331.19"/>
</a>
</g>
</g>
<!-- Node27&#45;&gt;Node26 -->
<g id="edge39_Node000027_Node000026" class="edge">
<title>Node27&#45;&gt;Node26</title>
<g id="a_edge39_Node000027_Node000026"><a xlink:title=" ">
<path fill="none" stroke="#63b8ff" d="M277.64,-297.05C312.29,-300.26 366.98,-305.31 405.46,-308.87"/>
<polygon fill="#63b8ff" stroke="#63b8ff" points="405.06,-312.35 415.34,-309.78 405.71,-305.38 405.06,-312.35"/>
</a>
</g>
</g>
<!-- Node28 -->
<g id="Node000028" class="node">
<title>Node28</title>
<g id="a_Node000028"><a xlink:href="app_8c.html#a8a4084e68b42056da4d5418f72ea03f9" target="_top" xlink:title=" ">
<polygon fill="white" stroke="#666666" points="381.25,-286.38 313.5,-286.38 313.5,-265.62 381.25,-265.62 381.25,-286.38"/>
<text text-anchor="middle" x="347.38" y="-272.88" font-family="Helvetica,sans-Serif" font-size="10.00">w2c__f517</text>
</a>
</g>
</g>
<!-- Node27&#45;&gt;Node28 -->
<g id="edge40_Node000027_Node000028" class="edge">
<title>Node27&#45;&gt;Node28</title>
<g id="a_edge40_Node000027_Node000028"><a xlink:title=" ">
<path fill="none" stroke="#63b8ff" d="M277.94,-288.11C285.66,-286.74 294,-285.27 302.11,-283.83"/>
<polygon fill="#63b8ff" stroke="#63b8ff" points="302.6,-287.3 311.84,-282.11 301.38,-280.4 302.6,-287.3"/>
</a>
</g>
</g>
<!-- Node29&#45;&gt;Node8 -->
<g id="edge43_Node000029_Node000008" class="edge">
<title>Node29&#45;&gt;Node8</title>
<g id="a_edge43_Node000029_Node000008"><a xlink:title=" ">
<path fill="none" stroke="#63b8ff" d="M485.22,-163.7C515.34,-172.15 559.45,-188.35 588.75,-216 622.57,-247.92 642.52,-300.12 651.63,-329.37"/>
<polygon fill="#63b8ff" stroke="#63b8ff" points="648.27,-330.33 654.46,-338.93 654.98,-328.35 648.27,-330.33"/>
</a>
</g>
</g>
<!-- Node29&#45;&gt;Node10 -->
<g id="edge44_Node000029_Node000010" class="edge">
<title>Node29&#45;&gt;Node10</title>
<g id="a_edge44_Node000029_Node000010"><a xlink:title=" ">
<path fill="none" stroke="#63b8ff" d="M454.86,-166.7C460.73,-189.84 474.83,-246.31 485,-294 503.01,-378.48 458.47,-425.4 521,-485 545.03,-507.9 583.09,-511.57 612.94,-510.12"/>
<polygon fill="#63b8ff" stroke="#63b8ff" points="613.11,-513.62 622.83,-509.42 612.61,-506.64 613.11,-513.62"/>
</a>
</g>
</g>
<!-- Node30 -->
<g id="Node000030" class="node">
<title>Node30</title>
<g id="a_Node000030"><a xlink:href="app_8c.html#a0bc90b77449a4191d27077f29db94c10" target="_top" xlink:title=" ">
<polygon fill="white" stroke="#666666" points="588.75,-125.38 521,-125.38 521,-104.62 588.75,-104.62 588.75,-125.38"/>
<text text-anchor="middle" x="554.88" y="-111.88" font-family="Helvetica,sans-Serif" font-size="10.00">w2c__f390</text>
</a>
</g>
</g>
<!-- Node29&#45;&gt;Node30 -->
<g id="edge45_Node000029_Node000030" class="edge">
<title>Node29&#45;&gt;Node30</title>
<g id="a_edge45_Node000029_Node000030"><a xlink:title=" ">
<path fill="none" stroke="#63b8ff" d="M478.86,-145.23C490.33,-140.6 503.94,-135.12 516.4,-130.1"/>
<polygon fill="#63b8ff" stroke="#63b8ff" points="517.6,-133.39 525.56,-126.41 514.98,-126.9 517.6,-133.39"/>
</a>
</g>
</g>
<!-- Node32 -->
<g id="Node000032" class="node">
<title>Node32</title>
<g id="a_Node000032"><a xlink:href="app_8c.html#a87ed9e71bb510c147810da63c198b7b2" target="_top" xlink:title=" ">
<polygon fill="white" stroke="#666666" points="588.75,-86.38 521,-86.38 521,-65.62 588.75,-65.62 588.75,-86.38"/>
<text text-anchor="middle" x="554.88" y="-72.88" font-family="Helvetica,sans-Serif" font-size="10.00">w2c__f398</text>
</a>
</g>
</g>
<!-- Node29&#45;&gt;Node32 -->
<g id="edge47_Node000029_Node000032" class="edge">
<title>Node29&#45;&gt;Node32</title>
<g id="a_edge47_Node000029_Node000032"><a xlink:title=" ">
<path fill="none" stroke="#63b8ff" d="M463.32,-145.18C476.56,-132.65 499.5,-111.73 521,-96 522.52,-94.89 524.1,-93.78 525.72,-92.68"/>
<polygon fill="#63b8ff" stroke="#63b8ff" points="527.28,-95.84 533.81,-87.49 523.5,-89.95 527.28,-95.84"/>
</a>
</g>
</g>
<!-- Node33 -->
<g id="Node000033" class="node">
<title>Node33</title>
<g id="a_Node000033"><a xlink:href="app_8c.html#a672569c91ebb1d5055d737b56ec296a7" target="_top" xlink:title=" ">
<polygon fill="white" stroke="#666666" points="588.75,-164.38 521,-164.38 521,-143.62 588.75,-143.62 588.75,-164.38"/>
<text text-anchor="middle" x="554.88" y="-150.88" font-family="Helvetica,sans-Serif" font-size="10.00">w2c__f585</text>
</a>
</g>
</g>
<!-- Node29&#45;&gt;Node33 -->
<g id="edge49_Node000029_Node000033" class="edge">
<title>Node29&#45;&gt;Node33</title>
<g id="a_edge49_Node000029_Node000033"><a xlink:title=" ">
<path fill="none" stroke="#63b8ff" d="M485.44,-155.35C493.07,-155.2 501.31,-155.03 509.33,-154.88"/>
<polygon fill="#63b8ff" stroke="#63b8ff" points="509.39,-158.38 519.32,-154.68 509.25,-151.38 509.39,-158.38"/>
</a>
</g>
</g>
<!-- Node31 -->
<g id="Node000031" class="node">
<title>Node31</title>
<g id="a_Node000031"><a xlink:href="app_8c.html#a75d2a28c1bac8b1e29f069bf851fdba9" target="_top" xlink:title=" ">
<polygon fill="white" stroke="#666666" points="692.5,-125.38 624.75,-125.38 624.75,-104.62 692.5,-104.62 692.5,-125.38"/>
<text text-anchor="middle" x="658.62" y="-111.88" font-family="Helvetica,sans-Serif" font-size="10.00">w2c__f549</text>
</a>
</g>
</g>
<!-- Node30&#45;&gt;Node31 -->
<g id="edge46_Node000030_Node000031" class="edge">
<title>Node30&#45;&gt;Node31</title>
<g id="a_edge46_Node000030_Node000031"><a xlink:title=" ">
<path fill="none" stroke="#63b8ff" d="M589.19,-115C596.82,-115 605.06,-115 613.08,-115"/>
<polygon fill="#63b8ff" stroke="#63b8ff" points="613.07,-118.5 623.07,-115 613.07,-111.5 613.07,-118.5"/>
</a>
</g>
</g>
<!-- Node32&#45;&gt;Node22 -->
<g id="edge48_Node000032_Node000022" class="edge">
<title>Node32&#45;&gt;Node22</title>
<g id="a_edge48_Node000032_Node000022"><a xlink:title=" ">
<path fill="none" stroke="#63b8ff" d="M589.19,-69.78C596.91,-68.34 605.25,-66.78 613.36,-65.27"/>
<polygon fill="#63b8ff" stroke="#63b8ff" points="613.91,-68.72 623.09,-63.45 612.62,-61.84 613.91,-68.72"/>
</a>
</g>
</g>
<!-- Node34&#45;&gt;Node8 -->
<g id="edge51_Node000034_Node000008" class="edge">
<title>Node34&#45;&gt;Node8</title>
<g id="a_edge51_Node000034_Node000008"><a xlink:title=" ">
<path fill="none" stroke="#63b8ff" d="M144.27,-359.35C153.41,-339.23 176.12,-295.79 209.75,-275 249.56,-250.39 266.87,-261.01 313.5,-257 343.5,-254.42 351.54,-252.09 381.25,-257 472.09,-272.03 573.18,-313.06 624.23,-335.63"/>
<polygon fill="#63b8ff" stroke="#63b8ff" points="622.7,-338.78 633.25,-339.66 625.55,-332.39 622.7,-338.78"/>
</a>
</g>
</g>
<!-- Node34&#45;&gt;Node16 -->
<g id="edge52_Node000034_Node000016" class="edge">
<title>Node34&#45;&gt;Node16</title>
<g id="a_edge52_Node000034_Node000016"><a xlink:title=" ">
<path fill="none" stroke="#63b8ff" d="M172.87,-376.44C181.03,-378.03 189.91,-379.75 198.51,-381.42"/>
<polygon fill="#63b8ff" stroke="#63b8ff" points="197.6,-384.81 208.08,-383.28 198.94,-377.94 197.6,-384.81"/>
</a>
</g>
</g>
</g>
</svg>
