<?xml version="1.0" encoding="UTF-8" standalone="no"?>
<!DOCTYPE svg PUBLIC "-//W3C//DTD SVG 1.1//EN"
 "http://www.w3.org/Graphics/SVG/1.1/DTD/svg11.dtd">
<!-- Generated by graphviz version 12.2.1 (0)
 -->
<!-- Title: w2c__f506 Pages: 1 -->
<svg width="595pt" height="292pt"
 viewBox="0.00 0.00 594.50 291.67" xmlns="http://www.w3.org/2000/svg" xmlns:xlink="http://www.w3.org/1999/xlink">
<g id="graph0" class="graph" transform="scale(1 1) rotate(0) translate(4 287.67)">
<title>w2c__f506</title>
<!-- Node1 -->
<g id="Node000001" class="node">
<title>Node1</title>
<g id="a_Node000001"><a xlink:title=" ">
<polygon fill="#999999" stroke="#666666" points="67.75,-154.75 0,-154.75 0,-134 67.75,-134 67.75,-154.75"/>
<text text-anchor="middle" x="33.88" y="-141.25" font-family="Helvetica,sans-Serif" font-size="10.00">w2c__f506</text>
</a>
</g>
</g>
<!-- Node2 -->
<g id="Node000002" class="node">
<title>Node2</title>
<g id="a_Node000002"><a xlink:href="app_8c.html#a706085993f32e11fbd1c3ec7893f0e81" target="_top" xlink:title=" ">
<polygon fill="white" stroke="#666666" points="171.5,-211.75 103.75,-211.75 103.75,-191 171.5,-191 171.5,-211.75"/>
<text text-anchor="middle" x="137.62" y="-198.25" font-family="Helvetica,sans-Serif" font-size="10.00">w2c__f237</text>
</a>
</g>
</g>
<!-- Node1&#45;&gt;Node2 -->
<g id="edge1_Node000001_Node000002" class="edge">
<title>Node1&#45;&gt;Node2</title>
<g id="a_edge1_Node000001_Node000002"><a xlink:title=" ">
<path fill="none" stroke="#63b8ff" d="M54.01,-155.1C69.12,-163.56 90.45,-175.51 107.65,-185.15"/>
<polygon fill="#63b8ff" stroke="#63b8ff" points="105.47,-187.93 115.91,-189.77 108.89,-181.83 105.47,-187.93"/>
</a>
</g>
</g>
<!-- Node4 -->
<g id="Node000004" class="node">
<title>Node4</title>
<g id="a_Node000004"><a xlink:href="app_8c.html#a03fa34d93d32a3ee40dfc2d840730111" target="_top" xlink:title=" ">
<polygon fill="white" stroke="#666666" points="482.75,-214.75 415,-214.75 415,-194 482.75,-194 482.75,-214.75"/>
<text text-anchor="middle" x="448.88" y="-201.25" font-family="Helvetica,sans-Serif" font-size="10.00">w2c__f262</text>
</a>
</g>
</g>
<!-- Node1&#45;&gt;Node4 -->
<g id="edge13_Node000001_Node000004" class="edge">
<title>Node1&#45;&gt;Node4</title>
<g id="a_edge13_Node000001_Node000004"><a xlink:title=" ">
<path fill="none" stroke="#63b8ff" d="M37.51,-155.18C44,-179.14 63.26,-236.43 103.75,-259.38 208.24,-318.59 357.61,-252.9 419.42,-220.41"/>
<polygon fill="#63b8ff" stroke="#63b8ff" points="420.75,-223.66 427.91,-215.85 417.44,-217.5 420.75,-223.66"/>
</a>
</g>
</g>
<!-- Node7 -->
<g id="Node000007" class="node">
<title>Node7</title>
<g id="a_Node000007"><a xlink:href="app_8c.html#a8c90e9acf2d5915eb0476bc13964c4db" target="_top" xlink:title=" ">
<polygon fill="white" stroke="#666666" points="379,-174.75 311.25,-174.75 311.25,-154 379,-154 379,-174.75"/>
<text text-anchor="middle" x="345.12" y="-161.25" font-family="Helvetica,sans-Serif" font-size="10.00">w2c__f345</text>
</a>
</g>
</g>
<!-- Node1&#45;&gt;Node7 -->
<g id="edge17_Node000001_Node000007" class="edge">
<title>Node1&#45;&gt;Node7</title>
<g id="a_edge17_Node000001_Node000007"><a xlink:title=" ">
<path fill="none" stroke="#63b8ff" d="M67.97,-146.52C123.86,-150.13 236.97,-157.44 299.7,-161.5"/>
<polygon fill="#63b8ff" stroke="#63b8ff" points="299.08,-164.97 309.29,-162.12 299.54,-157.98 299.08,-164.97"/>
</a>
</g>
</g>
<!-- Node9 -->
<g id="Node000009" class="node">
<title>Node9</title>
<g id="a_Node000009"><a xlink:href="app_8c.html#a800df00ef236c6d6affc3c661b37e3ad" target="_top" xlink:title=" ">
<polygon fill="white" stroke="#666666" points="482.75,-136.75 415,-136.75 415,-116 482.75,-116 482.75,-136.75"/>
<text text-anchor="middle" x="448.88" y="-123.25" font-family="Helvetica,sans-Serif" font-size="10.00">w2c__f487</text>
</a>
</g>
</g>
<!-- Node1&#45;&gt;Node9 -->
<g id="edge18_Node000001_Node000009" class="edge">
<title>Node1&#45;&gt;Node9</title>
<g id="a_edge18_Node000001_Node000009"><a xlink:title=" ">
<path fill="none" stroke="#63b8ff" d="M67.97,-142.93C141.76,-139.72 319.76,-131.96 403.25,-128.32"/>
<polygon fill="#63b8ff" stroke="#63b8ff" points="403.27,-131.82 413.11,-127.89 402.96,-124.83 403.27,-131.82"/>
</a>
</g>
</g>
<!-- Node10 -->
<g id="Node000010" class="node">
<title>Node10</title>
<g id="a_Node000010"><a xlink:href="app_8c.html#a0e0dad0ebc52e45eeff2e1b5d8389ea4" target="_top" xlink:title=" ">
<polygon fill="white" stroke="#666666" points="482.75,-97.75 415,-97.75 415,-77 482.75,-77 482.75,-97.75"/>
<text text-anchor="middle" x="448.88" y="-84.25" font-family="Helvetica,sans-Serif" font-size="10.00">w2c__f534</text>
</a>
</g>
</g>
<!-- Node1&#45;&gt;Node10 -->
<g id="edge19_Node000001_Node000010" class="edge">
<title>Node1&#45;&gt;Node10</title>
<g id="a_edge19_Node000001_Node000010"><a xlink:title=" ">
<path fill="none" stroke="#63b8ff" d="M68.15,-139.49C79.45,-137.84 92.14,-136.01 103.75,-134.38 211.33,-119.22 337.95,-102.11 403.51,-93.31"/>
<polygon fill="#63b8ff" stroke="#63b8ff" points="403.7,-96.82 413.14,-92.02 402.77,-89.88 403.7,-96.82"/>
</a>
</g>
</g>
<!-- Node11 -->
<g id="Node000011" class="node">
<title>Node11</title>
<g id="a_Node000011"><a xlink:href="app_8c.html#add194bffb67f2f62eef302d08ce41b47" target="_top" xlink:title=" ">
<polygon fill="white" stroke="#666666" points="171.5,-250.75 103.75,-250.75 103.75,-230 171.5,-230 171.5,-250.75"/>
<text text-anchor="middle" x="137.62" y="-237.25" font-family="Helvetica,sans-Serif" font-size="10.00">w2c__f266</text>
</a>
</g>
</g>
<!-- Node1&#45;&gt;Node11 -->
<g id="edge14_Node000001_Node000011" class="edge">
<title>Node1&#45;&gt;Node11</title>
<g id="a_edge14_Node000001_Node000011"><a xlink:title=" ">
<path fill="none" stroke="#63b8ff" d="M42.95,-155.09C55.03,-170.68 79.04,-199.96 103.75,-220.38 105.01,-221.41 106.32,-222.43 107.67,-223.43"/>
<polygon fill="#63b8ff" stroke="#63b8ff" points="105.37,-226.1 115.62,-228.78 109.28,-220.29 105.37,-226.1"/>
</a>
</g>
</g>
<!-- Node12 -->
<g id="Node000012" class="node">
<title>Node12</title>
<g id="a_Node000012"><a xlink:href="app_8c.html#a1e0aad88e537fa7106055af5e3661692" target="_top" xlink:title=" ">
<polygon fill="white" stroke="#666666" points="171.5,-59.75 103.75,-59.75 103.75,-39 171.5,-39 171.5,-59.75"/>
<text text-anchor="middle" x="137.62" y="-46.25" font-family="Helvetica,sans-Serif" font-size="10.00">w2c__f303</text>
</a>
</g>
</g>
<!-- Node1&#45;&gt;Node12 -->
<g id="edge16_Node000001_Node000012" class="edge">
<title>Node1&#45;&gt;Node12</title>
<g id="a_edge16_Node000001_Node000012"><a xlink:title=" ">
<path fill="none" stroke="#63b8ff" d="M44.17,-133.72C56.94,-119.33 80.94,-93.2 103.75,-73.38 106.25,-71.2 108.94,-69.02 111.66,-66.91"/>
<polygon fill="#63b8ff" stroke="#63b8ff" points="113.67,-69.77 119.61,-60.99 109.5,-64.15 113.67,-69.77"/>
</a>
</g>
</g>
<!-- Node13 -->
<g id="Node000013" class="node">
<title>Node13</title>
<g id="a_Node000013"><a xlink:href="app_8c.html#abc21e85cf3aaa918b50fa3e8b54e25e0" target="_top" xlink:title=" ">
<polygon fill="white" stroke="#666666" points="171.5,-20.75 103.75,-20.75 103.75,0 171.5,0 171.5,-20.75"/>
<text text-anchor="middle" x="137.62" y="-7.25" font-family="Helvetica,sans-Serif" font-size="10.00">w2c__f565</text>
</a>
</g>
</g>
<!-- Node1&#45;&gt;Node13 -->
<g id="edge20_Node000001_Node000013" class="edge">
<title>Node1&#45;&gt;Node13</title>
<g id="a_edge20_Node000001_Node000013"><a xlink:title=" ">
<path fill="none" stroke="#63b8ff" d="M39.18,-133.81C48.38,-112.24 71.75,-62.47 103.75,-30.38 104.6,-29.52 105.49,-28.69 106.42,-27.88"/>
<polygon fill="#63b8ff" stroke="#63b8ff" points="108.2,-30.92 114.14,-22.14 104.02,-25.3 108.2,-30.92"/>
</a>
</g>
</g>
<!-- Node3 -->
<g id="Node000003" class="node">
<title>Node3</title>
<g id="a_Node000003"><a xlink:href="app_8c.html#a1ed0745af60bea321780e5f860a89d43" target="_top" xlink:title=" ">
<polygon fill="white" stroke="#666666" points="275.25,-212.75 207.5,-212.75 207.5,-192 275.25,-192 275.25,-212.75"/>
<text text-anchor="middle" x="241.38" y="-199.25" font-family="Helvetica,sans-Serif" font-size="10.00">w2c__f522</text>
</a>
</g>
</g>
<!-- Node2&#45;&gt;Node3 -->
<g id="edge2_Node000002_Node000003" class="edge">
<title>Node2&#45;&gt;Node3</title>
<g id="a_edge2_Node000002_Node000003"><a xlink:title=" ">
<path fill="none" stroke="#63b8ff" d="M171.94,-201.7C179.57,-201.78 187.81,-201.86 195.83,-201.94"/>
<polygon fill="#63b8ff" stroke="#63b8ff" points="195.78,-205.44 205.82,-202.04 195.85,-198.44 195.78,-205.44"/>
</a>
</g>
</g>
<!-- Node3&#45;&gt;Node4 -->
<g id="edge3_Node000003_Node000004" class="edge">
<title>Node3&#45;&gt;Node4</title>
<g id="a_edge3_Node000003_Node000004"><a xlink:title=" ">
<path fill="none" stroke="#63b8ff" d="M275.39,-202.7C310.04,-203.03 364.73,-203.57 403.21,-203.94"/>
<polygon fill="#63b8ff" stroke="#63b8ff" points="403.05,-207.44 413.09,-204.04 403.12,-200.44 403.05,-207.44"/>
</a>
</g>
</g>
<!-- Node3&#45;&gt;Node7 -->
<g id="edge6_Node000003_Node000007" class="edge">
<title>Node3&#45;&gt;Node7</title>
<g id="a_edge6_Node000003_Node000007"><a xlink:title=" ">
<path fill="none" stroke="#63b8ff" d="M271.26,-191.59C281.57,-187.74 293.38,-183.33 304.44,-179.2"/>
<polygon fill="#63b8ff" stroke="#63b8ff" points="305.61,-182.5 313.75,-175.72 303.16,-175.94 305.61,-182.5"/>
</a>
</g>
</g>
<!-- Node5 -->
<g id="Node000005" class="node">
<title>Node5</title>
<g id="a_Node000005"><a xlink:href="app_8c.html#a16207b5f7a97b0ecfddd231452c5aa7e" target="_top" xlink:title=" ">
<polygon fill="white" stroke="#666666" points="586.5,-214.75 518.75,-214.75 518.75,-194 586.5,-194 586.5,-214.75"/>
<text text-anchor="middle" x="552.62" y="-201.25" font-family="Helvetica,sans-Serif" font-size="10.00">w2c__f263</text>
</a>
</g>
</g>
<!-- Node4&#45;&gt;Node5 -->
<g id="edge4_Node000004_Node000005" class="edge">
<title>Node4&#45;&gt;Node5</title>
<g id="a_edge4_Node000004_Node000005"><a xlink:title=" ">
<path fill="none" stroke="#63b8ff" d="M483.19,-204.38C490.82,-204.38 499.06,-204.38 507.08,-204.38"/>
<polygon fill="#63b8ff" stroke="#63b8ff" points="507.07,-207.88 517.07,-204.38 507.07,-200.88 507.07,-207.88"/>
</a>
</g>
</g>
<!-- Node6 -->
<g id="Node000006" class="node">
<title>Node6</title>
<g id="a_Node000006"><a xlink:href="app_8c.html#a71bcbce7faf780cd081af3fa82d6da97" target="_top" xlink:title=" ">
<polygon fill="white" stroke="#666666" points="586.5,-175.75 518.75,-175.75 518.75,-155 586.5,-155 586.5,-175.75"/>
<text text-anchor="middle" x="552.62" y="-162.25" font-family="Helvetica,sans-Serif" font-size="10.00">w2c__f437</text>
</a>
</g>
</g>
<!-- Node4&#45;&gt;Node6 -->
<g id="edge5_Node000004_Node000006" class="edge">
<title>Node4&#45;&gt;Node6</title>
<g id="a_edge5_Node000004_Node000006"><a xlink:title=" ">
<path fill="none" stroke="#63b8ff" d="M478.22,-193.51C488.91,-189.41 501.27,-184.67 512.76,-180.27"/>
<polygon fill="#63b8ff" stroke="#63b8ff" points="513.94,-183.57 522.02,-176.72 511.43,-177.03 513.94,-183.57"/>
</a>
</g>
</g>
<!-- Node7&#45;&gt;Node4 -->
<g id="edge7_Node000007_Node000004" class="edge">
<title>Node7&#45;&gt;Node4</title>
<g id="a_edge7_Node000007_Node000004"><a xlink:title=" ">
<path fill="none" stroke="#63b8ff" d="M373.66,-175.2C384.74,-179.56 397.72,-184.66 409.69,-189.36"/>
<polygon fill="#63b8ff" stroke="#63b8ff" points="408.32,-192.59 418.91,-192.99 410.88,-186.07 408.32,-192.59"/>
</a>
</g>
</g>
<!-- Node8 -->
<g id="Node000008" class="node">
<title>Node8</title>
<g id="a_Node000008"><a xlink:href="app_8c.html#a31b08a294227a9fc0a529e66ccd915dc" target="_top" xlink:title=" ">
<polygon fill="white" stroke="#666666" points="482.75,-175.75 415,-175.75 415,-155 482.75,-155 482.75,-175.75"/>
<text text-anchor="middle" x="448.88" y="-162.25" font-family="Helvetica,sans-Serif" font-size="10.00">w2c__f325</text>
</a>
</g>
</g>
<!-- Node7&#45;&gt;Node8 -->
<g id="edge8_Node000007_Node000008" class="edge">
<title>Node7&#45;&gt;Node8</title>
<g id="a_edge8_Node000007_Node000008"><a xlink:title=" ">
<path fill="none" stroke="#63b8ff" d="M379.44,-164.7C387.07,-164.78 395.31,-164.86 403.33,-164.94"/>
<polygon fill="#63b8ff" stroke="#63b8ff" points="403.28,-168.44 413.32,-165.04 403.35,-161.44 403.28,-168.44"/>
</a>
</g>
</g>
<!-- Node7&#45;&gt;Node9 -->
<g id="edge10_Node000007_Node000009" class="edge">
<title>Node7&#45;&gt;Node9</title>
<g id="a_edge10_Node000007_Node000009"><a xlink:title=" ">
<path fill="none" stroke="#63b8ff" d="M375.01,-153.59C385.32,-149.74 397.13,-145.33 408.19,-141.2"/>
<polygon fill="#63b8ff" stroke="#63b8ff" points="409.36,-144.5 417.5,-137.72 406.91,-137.94 409.36,-144.5"/>
</a>
</g>
</g>
<!-- Node7&#45;&gt;Node10 -->
<g id="edge12_Node000007_Node000010" class="edge">
<title>Node7&#45;&gt;Node10</title>
<g id="a_edge12_Node000007_Node000010"><a xlink:title=" ">
<path fill="none" stroke="#63b8ff" d="M357.9,-153.74C371.28,-141.85 394.01,-122.32 415,-107.38 416.53,-106.28 418.13,-105.19 419.75,-104.11"/>
<polygon fill="#63b8ff" stroke="#63b8ff" points="421.31,-107.26 427.87,-98.94 417.55,-101.36 421.31,-107.26"/>
</a>
</g>
</g>
<!-- Node8&#45;&gt;Node6 -->
<g id="edge9_Node000008_Node000006" class="edge">
<title>Node8&#45;&gt;Node6</title>
<g id="a_edge9_Node000008_Node000006"><a xlink:title=" ">
<path fill="none" stroke="#63b8ff" d="M483.19,-165.38C490.82,-165.38 499.06,-165.38 507.08,-165.38"/>
<polygon fill="#63b8ff" stroke="#63b8ff" points="507.07,-168.88 517.07,-165.38 507.07,-161.88 507.07,-168.88"/>
</a>
</g>
</g>
<!-- Node9&#45;&gt;Node6 -->
<g id="edge11_Node000009_Node000006" class="edge">
<title>Node9&#45;&gt;Node6</title>
<g id="a_edge11_Node000009_Node000006"><a xlink:title=" ">
<path fill="none" stroke="#63b8ff" d="M478.22,-137.24C488.91,-141.34 501.27,-146.08 512.76,-150.48"/>
<polygon fill="#63b8ff" stroke="#63b8ff" points="511.43,-153.72 522.02,-154.03 513.94,-147.18 511.43,-153.72"/>
</a>
</g>
</g>
<!-- Node11&#45;&gt;Node3 -->
<g id="edge15_Node000011_Node000003" class="edge">
<title>Node11&#45;&gt;Node3</title>
<g id="a_edge15_Node000011_Node000003"><a xlink:title=" ">
<path fill="none" stroke="#63b8ff" d="M167.51,-229.59C177.82,-225.74 189.63,-221.33 200.69,-217.2"/>
<polygon fill="#63b8ff" stroke="#63b8ff" points="201.86,-220.5 210,-213.72 199.41,-213.94 201.86,-220.5"/>
</a>
</g>
</g>
</g>
</svg>
