<?xml version="1.0" encoding="UTF-8" standalone="no"?>
<!DOCTYPE svg PUBLIC "-//W3C//DTD SVG 1.1//EN"
 "http://www.w3.org/Graphics/SVG/1.1/DTD/svg11.dtd">
<!-- Generated by graphviz version 12.2.1 (0)
 -->
<!-- Title: w2c__f522 Pages: 1 -->
<svg width="782pt" height="480pt"
 viewBox="0.00 0.00 781.75 480.00" xmlns="http://www.w3.org/2000/svg" xmlns:xlink="http://www.w3.org/1999/xlink">
<g id="graph0" class="graph" transform="scale(1 1) rotate(0) translate(4 476)">
<title>w2c__f522</title>
<!-- Node1 -->
<g id="Node000001" class="node">
<title>Node1</title>
<g id="a_Node000001"><a xlink:title=" ">
<polygon fill="#999999" stroke="#666666" points="773.75,-365.75 706,-365.75 706,-345 773.75,-345 773.75,-365.75"/>
<text text-anchor="middle" x="739.88" y="-352.25" font-family="Helvetica,sans-Serif" font-size="10.00">w2c__f522</text>
</a>
</g>
</g>
<!-- Node2 -->
<g id="Node000002" class="node">
<title>Node2</title>
<g id="a_Node000002"><a xlink:href="app_8c.html#a706085993f32e11fbd1c3ec7893f0e81" target="_top" xlink:title=" ">
<polygon fill="white" stroke="#666666" points="670,-395.75 602.25,-395.75 602.25,-375 670,-375 670,-395.75"/>
<text text-anchor="middle" x="636.12" y="-382.25" font-family="Helvetica,sans-Serif" font-size="10.00">w2c__f237</text>
</a>
</g>
</g>
<!-- Node1&#45;&gt;Node2 -->
<g id="edge1_Node000001_Node000002" class="edge">
<title>Node1&#45;&gt;Node2</title>
<g id="a_edge1_Node000001_Node000002"><a xlink:title=" ">
<path fill="none" stroke="#63b8ff" d="M694.6,-368.43C686.4,-370.85 677.96,-373.33 670.17,-375.63"/>
<polygon fill="#63b8ff" stroke="#63b8ff" points="695.5,-371.81 704.11,-365.63 693.52,-365.1 695.5,-371.81"/>
</a>
</g>
</g>
<!-- Node4 -->
<g id="Node000004" class="node">
<title>Node4</title>
<g id="a_Node000004"><a xlink:href="app_8c.html#aac449994afd8488e2efd16fb19f0ecb1" target="_top" xlink:title=" ">
<polygon fill="white" stroke="#666666" points="358.75,-435.75 291,-435.75 291,-415 358.75,-415 358.75,-435.75"/>
<text text-anchor="middle" x="324.88" y="-422.25" font-family="Helvetica,sans-Serif" font-size="10.00">w2c__f336</text>
</a>
</g>
</g>
<!-- Node1&#45;&gt;Node4 -->
<g id="edge33_Node000001_Node000004" class="edge">
<title>Node1&#45;&gt;Node4</title>
<g id="a_edge33_Node000001_Node000004"><a xlink:title=" ">
<path fill="none" stroke="#63b8ff" d="M718.05,-373.21C687.3,-398.17 626.84,-442.18 566.25,-457.38 492.31,-475.92 468.98,-476.7 394.75,-459.38 375.66,-454.92 355.78,-444.37 342.32,-436.19"/>
<polygon fill="#63b8ff" stroke="#63b8ff" points="719.97,-376.17 725.44,-367.09 715.5,-370.77 719.97,-376.17"/>
</a>
</g>
</g>
<!-- Node10 -->
<g id="Node000010" class="node">
<title>Node10</title>
<g id="a_Node000010"><a xlink:href="app_8c.html#add194bffb67f2f62eef302d08ce41b47" target="_top" xlink:title=" ">
<polygon fill="white" stroke="#666666" points="670,-269.75 602.25,-269.75 602.25,-249 670,-249 670,-269.75"/>
<text text-anchor="middle" x="636.12" y="-256.25" font-family="Helvetica,sans-Serif" font-size="10.00">w2c__f266</text>
</a>
</g>
</g>
<!-- Node1&#45;&gt;Node10 -->
<g id="edge9_Node000001_Node000010" class="edge">
<title>Node1&#45;&gt;Node10</title>
<g id="a_edge9_Node000001_Node000010"><a xlink:title=" ">
<path fill="none" stroke="#63b8ff" d="M719.38,-336.99C698.36,-317.15 665.6,-286.24 648.45,-270.06"/>
<polygon fill="#63b8ff" stroke="#63b8ff" points="716.82,-339.38 726.5,-343.7 721.62,-334.29 716.82,-339.38"/>
</a>
</g>
</g>
<!-- Node24 -->
<g id="Node000024" class="node">
<title>Node24</title>
<g id="a_Node000024"><a xlink:href="app_8c.html#a1f052451cef3dd4bfb6ec9457f1c0e26" target="_top" xlink:title=" ">
<polygon fill="white" stroke="#666666" points="670,-79.75 602.25,-79.75 602.25,-59 670,-59 670,-79.75"/>
<text text-anchor="middle" x="636.12" y="-66.25" font-family="Helvetica,sans-Serif" font-size="10.00">w2c__f311</text>
</a>
</g>
</g>
<!-- Node1&#45;&gt;Node24 -->
<g id="edge29_Node000001_Node000024" class="edge">
<title>Node1&#45;&gt;Node24</title>
<g id="a_edge29_Node000001_Node000024"><a xlink:title=" ">
<path fill="none" stroke="#63b8ff" d="M731.22,-333.86C710.89,-276.71 656.05,-122.56 640.99,-80.25"/>
<polygon fill="#63b8ff" stroke="#63b8ff" points="727.85,-334.84 734.5,-343.09 734.45,-332.49 727.85,-334.84"/>
</a>
</g>
</g>
<!-- Node3 -->
<g id="Node000003" class="node">
<title>Node3</title>
<g id="a_Node000003"><a xlink:href="app_8c.html#ad1851b870b2d09060972df5f1d98f5d3" target="_top" xlink:title=" ">
<polygon fill="white" stroke="#666666" points="566.25,-448.75 498.5,-448.75 498.5,-428 566.25,-428 566.25,-448.75"/>
<text text-anchor="middle" x="532.38" y="-435.25" font-family="Helvetica,sans-Serif" font-size="10.00">w2c__f506</text>
</a>
</g>
</g>
<!-- Node2&#45;&gt;Node3 -->
<g id="edge2_Node000002_Node000003" class="edge">
<title>Node2&#45;&gt;Node3</title>
<g id="a_edge2_Node000002_Node000003"><a xlink:title=" ">
<path fill="none" stroke="#63b8ff" d="M604.37,-401.4C588.04,-409.9 568.41,-420.13 553.94,-427.67"/>
<polygon fill="#63b8ff" stroke="#63b8ff" points="605.94,-404.52 613.19,-396.8 602.71,-398.32 605.94,-404.52"/>
</a>
</g>
</g>
<!-- Node3&#45;&gt;Node4 -->
<g id="edge3_Node000003_Node000004" class="edge">
<title>Node3&#45;&gt;Node4</title>
<g id="a_edge3_Node000003_Node000004"><a xlink:title=" ">
<path fill="none" stroke="#63b8ff" d="M486.76,-444.33C459.98,-446.91 425.29,-448.51 394.75,-444.38 382.58,-442.73 369.52,-439.51 358.08,-436.19"/>
<polygon fill="#63b8ff" stroke="#63b8ff" points="487.01,-447.82 496.59,-443.29 486.28,-440.86 487.01,-447.82"/>
</a>
</g>
</g>
<!-- Node5 -->
<g id="Node000005" class="node">
<title>Node5</title>
<g id="a_Node000005"><a xlink:href="app_8c.html#ac863989691d4c389f80374209c220171" target="_top" xlink:title=" ">
<polygon fill="white" stroke="#666666" points="252.38,-455.75 189.88,-455.75 189.88,-435 252.38,-435 252.38,-455.75"/>
<text text-anchor="middle" x="221.12" y="-442.25" font-family="Helvetica,sans-Serif" font-size="10.00">w2c__c_0</text>
</a>
</g>
</g>
<!-- Node4&#45;&gt;Node5 -->
<g id="edge4_Node000004_Node000005" class="edge">
<title>Node4&#45;&gt;Node5</title>
<g id="a_edge4_Node000004_Node000005"><a xlink:title=" ">
<path fill="none" stroke="#63b8ff" d="M279.4,-434.12C270.41,-435.88 261.15,-437.7 252.76,-439.35"/>
<polygon fill="#63b8ff" stroke="#63b8ff" points="279.94,-437.58 289.07,-432.22 278.59,-430.71 279.94,-437.58"/>
</a>
</g>
</g>
<!-- Node7 -->
<g id="Node000007" class="node">
<title>Node7</title>
<g id="a_Node000007"><a xlink:href="app_8c.html#a8f312e54d76623b1ae169d5d19736ee0" target="_top" xlink:title=" ">
<polygon fill="white" stroke="#666666" points="255,-416.75 187.25,-416.75 187.25,-396 255,-396 255,-416.75"/>
<text text-anchor="middle" x="221.12" y="-403.25" font-family="Helvetica,sans-Serif" font-size="10.00">w2c__f363</text>
</a>
</g>
</g>
<!-- Node4&#45;&gt;Node7 -->
<g id="edge6_Node000004_Node000007" class="edge">
<title>Node4&#45;&gt;Node7</title>
<g id="a_edge6_Node000004_Node000007"><a xlink:title=" ">
<path fill="none" stroke="#63b8ff" d="M279.32,-417.06C271.21,-415.54 262.88,-413.98 255.17,-412.55"/>
<polygon fill="#63b8ff" stroke="#63b8ff" points="278.6,-420.48 289.07,-418.88 279.88,-413.6 278.6,-420.48"/>
</a>
</g>
</g>
<!-- Node6 -->
<g id="Node000006" class="node">
<title>Node6</title>
<g id="a_Node000006"><a xlink:href="app_8c.html#ab1e039392ea68017ab8a6063263b147d" target="_top" xlink:title=" ">
<polygon fill="white" stroke="#666666" points="145.25,-455.75 94,-455.75 94,-435 145.25,-435 145.25,-455.75"/>
<text text-anchor="middle" x="119.62" y="-442.25" font-family="Helvetica,sans-Serif" font-size="10.00">w2c__c</text>
</a>
</g>
</g>
<!-- Node5&#45;&gt;Node6 -->
<g id="edge5_Node000005_Node000006" class="edge">
<title>Node5&#45;&gt;Node6</title>
<g id="a_edge5_Node000005_Node000006"><a xlink:title=" ">
<path fill="none" stroke="#63b8ff" d="M178.21,-445.38C167.15,-445.38 155.55,-445.38 145.68,-445.38"/>
<polygon fill="#63b8ff" stroke="#63b8ff" points="177.95,-448.88 187.95,-445.38 177.95,-441.88 177.95,-448.88"/>
</a>
</g>
</g>
<!-- Node8 -->
<g id="Node000008" class="node">
<title>Node8</title>
<g id="a_Node000008"><a xlink:href="app_8c.html#a26657f10c51f10eeb57a4d27606a6885" target="_top" xlink:title=" ">
<polygon fill="white" stroke="#666666" points="151.25,-416.75 88,-416.75 88,-396 151.25,-396 151.25,-416.75"/>
<text text-anchor="middle" x="119.62" y="-403.25" font-family="Helvetica,sans-Serif" font-size="10.00">w2c__b_0</text>
</a>
</g>
</g>
<!-- Node7&#45;&gt;Node8 -->
<g id="edge7_Node000007_Node000008" class="edge">
<title>Node7&#45;&gt;Node8</title>
<g id="a_edge7_Node000007_Node000008"><a xlink:title=" ">
<path fill="none" stroke="#63b8ff" d="M175.71,-406.38C167.57,-406.38 159.23,-406.38 151.59,-406.38"/>
<polygon fill="#63b8ff" stroke="#63b8ff" points="175.48,-409.88 185.48,-406.38 175.48,-402.88 175.48,-409.88"/>
</a>
</g>
</g>
<!-- Node9 -->
<g id="Node000009" class="node">
<title>Node9</title>
<g id="a_Node000009"><a xlink:href="app_8c.html#a683a2045346c3209e9dac20d55933c7d" target="_top" xlink:title=" ">
<polygon fill="white" stroke="#666666" points="52,-416.75 0,-416.75 0,-396 52,-396 52,-416.75"/>
<text text-anchor="middle" x="26" y="-403.25" font-family="Helvetica,sans-Serif" font-size="10.00">w2c__b</text>
</a>
</g>
</g>
<!-- Node8&#45;&gt;Node9 -->
<g id="edge8_Node000008_Node000009" class="edge">
<title>Node8&#45;&gt;Node9</title>
<g id="a_edge8_Node000008_Node000009"><a xlink:title=" ">
<path fill="none" stroke="#63b8ff" d="M76.21,-406.38C68,-406.38 59.65,-406.38 52.21,-406.38"/>
<polygon fill="#63b8ff" stroke="#63b8ff" points="76.09,-409.88 86.09,-406.38 76.09,-402.88 76.09,-409.88"/>
</a>
</g>
</g>
<!-- Node10&#45;&gt;Node3 -->
<g id="edge25_Node000010_Node000003" class="edge">
<title>Node10&#45;&gt;Node3</title>
<g id="a_edge25_Node000010_Node000003"><a xlink:title=" ">
<path fill="none" stroke="#63b8ff" d="M630.29,-280.84C621.99,-313.68 602.34,-376.94 566.25,-418.38 563.18,-421.9 559.33,-424.99 555.36,-427.63"/>
<polygon fill="#63b8ff" stroke="#63b8ff" points="633.65,-281.87 632.57,-271.33 626.84,-280.23 633.65,-281.87"/>
</a>
</g>
</g>
<!-- Node10&#45;&gt;Node4 -->
<g id="edge20_Node000010_Node000004" class="edge">
<title>Node10&#45;&gt;Node4</title>
<g id="a_edge20_Node000010_Node000004"><a xlink:title=" ">
<path fill="none" stroke="#63b8ff" d="M612.3,-242.05C566.57,-209.59 462.28,-147.23 394.75,-197.38 358.23,-224.49 333.61,-373.39 327.41,-414.73"/>
<polygon fill="#63b8ff" stroke="#63b8ff" points="610.02,-244.71 620.16,-247.76 614.14,-239.05 610.02,-244.71"/>
</a>
</g>
</g>
<!-- Node11 -->
<g id="Node000011" class="node">
<title>Node11</title>
<g id="a_Node000011"><a xlink:href="app_8c.html#ab4735bfba578333c3aba0581e44f57f7" target="_top" xlink:title=" ">
<polygon fill="white" stroke="#666666" points="462.5,-126.75 394.75,-126.75 394.75,-106 462.5,-106 462.5,-126.75"/>
<text text-anchor="middle" x="428.62" y="-113.25" font-family="Helvetica,sans-Serif" font-size="10.00">w2c__f197</text>
</a>
</g>
</g>
<!-- Node10&#45;&gt;Node11 -->
<g id="edge10_Node000010_Node000011" class="edge">
<title>Node10&#45;&gt;Node11</title>
<g id="a_edge10_Node000010_Node000011"><a xlink:title=" ">
<path fill="none" stroke="#63b8ff" d="M628.16,-237.92C618.54,-211.81 598.6,-168.39 566.25,-145.38 535.82,-123.73 492.56,-117.63 462.92,-116.21"/>
<polygon fill="#63b8ff" stroke="#63b8ff" points="624.78,-238.83 631.37,-247.13 631.39,-236.53 624.78,-238.83"/>
</a>
</g>
</g>
<!-- Node12 -->
<g id="Node000012" class="node">
<title>Node12</title>
<g id="a_Node000012"><a xlink:href="app_8c.html#ac6e5d2c212d98987ebac3fdf431f3d72" target="_top" xlink:title=" ">
<polygon fill="white" stroke="#666666" points="566.25,-333.75 498.5,-333.75 498.5,-313 566.25,-313 566.25,-333.75"/>
<text text-anchor="middle" x="532.38" y="-320.25" font-family="Helvetica,sans-Serif" font-size="10.00">w2c__f203</text>
</a>
</g>
</g>
<!-- Node10&#45;&gt;Node12 -->
<g id="edge11_Node000010_Node000012" class="edge">
<title>Node10&#45;&gt;Node12</title>
<g id="a_edge11_Node000010_Node000012"><a xlink:title=" ">
<path fill="none" stroke="#63b8ff" d="M608.31,-276.24C589.96,-287.78 566.18,-302.74 550.38,-312.68"/>
<polygon fill="#63b8ff" stroke="#63b8ff" points="609.98,-279.32 616.58,-271.04 606.26,-273.4 609.98,-279.32"/>
</a>
</g>
</g>
<!-- Node13 -->
<g id="Node000013" class="node">
<title>Node13</title>
<g id="a_Node000013"><a xlink:href="app_8c.html#a0b804502e637fa2897681579fae890af" target="_top" xlink:title=" ">
<polygon fill="white" stroke="#666666" points="462.5,-396.75 394.75,-396.75 394.75,-376 462.5,-376 462.5,-396.75"/>
<text text-anchor="middle" x="428.62" y="-383.25" font-family="Helvetica,sans-Serif" font-size="10.00">w2c__f233</text>
</a>
</g>
</g>
<!-- Node10&#45;&gt;Node13 -->
<g id="edge14_Node000010_Node000013" class="edge">
<title>Node10&#45;&gt;Node13</title>
<g id="a_edge14_Node000010_Node000013"><a xlink:title=" ">
<path fill="none" stroke="#63b8ff" d="M622.93,-279.91C610.78,-298.69 590.48,-325.98 566.25,-342.38 534.67,-363.74 492.04,-375.28 462.84,-381.11"/>
<polygon fill="#63b8ff" stroke="#63b8ff" points="625.85,-281.84 628.16,-271.51 619.91,-278.14 625.85,-281.84"/>
</a>
</g>
</g>
<!-- Node15 -->
<g id="Node000015" class="node">
<title>Node15</title>
<g id="a_Node000015"><a xlink:href="app_8c.html#a90ec7ae13f3de86954f29a59729097ff" target="_top" xlink:title=" ">
<polygon fill="white" stroke="#666666" points="566.25,-269.75 498.5,-269.75 498.5,-249 566.25,-249 566.25,-269.75"/>
<text text-anchor="middle" x="532.38" y="-256.25" font-family="Helvetica,sans-Serif" font-size="10.00">w2c__f308</text>
</a>
</g>
</g>
<!-- Node10&#45;&gt;Node15 -->
<g id="edge15_Node000010_Node000015" class="edge">
<title>Node10&#45;&gt;Node15</title>
<g id="a_edge15_Node000010_Node000015"><a xlink:title=" ">
<path fill="none" stroke="#63b8ff" d="M590.57,-259.38C582.46,-259.38 574.13,-259.38 566.42,-259.38"/>
<polygon fill="#63b8ff" stroke="#63b8ff" points="590.29,-262.88 600.29,-259.38 590.29,-255.88 590.29,-262.88"/>
</a>
</g>
</g>
<!-- Node19 -->
<g id="Node000019" class="node">
<title>Node19</title>
<g id="a_Node000019"><a xlink:href="app_8c.html#a044129625d51f33771ec484a5580c8dd" target="_top" xlink:title=" ">
<polygon fill="white" stroke="#666666" points="566.25,-409.75 498.5,-409.75 498.5,-389 566.25,-389 566.25,-409.75"/>
<text text-anchor="middle" x="532.38" y="-396.25" font-family="Helvetica,sans-Serif" font-size="10.00">w2c__f407</text>
</a>
</g>
</g>
<!-- Node10&#45;&gt;Node19 -->
<g id="edge21_Node000010_Node000019" class="edge">
<title>Node10&#45;&gt;Node19</title>
<g id="a_edge21_Node000010_Node000019"><a xlink:title=" ">
<path fill="none" stroke="#63b8ff" d="M625.76,-280.6C614.2,-305.24 592.78,-346.21 566.25,-375.38 561.78,-380.29 556.16,-384.83 550.84,-388.61"/>
<polygon fill="#63b8ff" stroke="#63b8ff" points="628.89,-282.17 629.86,-271.62 622.53,-279.26 628.89,-282.17"/>
</a>
</g>
</g>
<!-- Node21 -->
<g id="Node000021" class="node">
<title>Node21</title>
<g id="a_Node000021"><a xlink:href="app_8c.html#a304b9f5409ab6ef5b124d1468ae34cc9" target="_top" xlink:title=" ">
<polygon fill="white" stroke="#666666" points="566.25,-98.75 498.5,-98.75 498.5,-78 566.25,-78 566.25,-98.75"/>
<text text-anchor="middle" x="532.38" y="-85.25" font-family="Helvetica,sans-Serif" font-size="10.00">w2c__f427</text>
</a>
</g>
</g>
<!-- Node10&#45;&gt;Node21 -->
<g id="edge24_Node000010_Node000021" class="edge">
<title>Node10&#45;&gt;Node21</title>
<g id="a_edge24_Node000010_Node000021"><a xlink:title=" ">
<path fill="none" stroke="#63b8ff" d="M628.92,-238.15C619.27,-207.8 598.37,-151.36 566.25,-112.38 562.12,-107.36 556.71,-102.85 551.47,-99.13"/>
<polygon fill="#63b8ff" stroke="#63b8ff" points="625.45,-238.78 631.73,-247.31 632.14,-236.73 625.45,-238.78"/>
</a>
</g>
</g>
<!-- Node22 -->
<g id="Node000022" class="node">
<title>Node22</title>
<g id="a_Node000022"><a xlink:href="app_8c.html#a00cdd89c8d82f3858c131e3165e128e5" target="_top" xlink:title=" ">
<polygon fill="white" stroke="#666666" points="566.25,-59.75 498.5,-59.75 498.5,-39 566.25,-39 566.25,-59.75"/>
<text text-anchor="middle" x="532.38" y="-46.25" font-family="Helvetica,sans-Serif" font-size="10.00">w2c__f527</text>
</a>
</g>
</g>
<!-- Node10&#45;&gt;Node22 -->
<g id="edge26_Node000010_Node000022" class="edge">
<title>Node10&#45;&gt;Node22</title>
<g id="a_edge26_Node000010_Node000022"><a xlink:title=" ">
<path fill="none" stroke="#63b8ff" d="M632.04,-237.49C625.72,-199.52 608.18,-120.6 566.25,-69.38 563.37,-65.86 559.7,-62.8 555.87,-60.2"/>
<polygon fill="#63b8ff" stroke="#63b8ff" points="628.55,-237.85 633.54,-247.2 635.47,-236.78 628.55,-237.85"/>
</a>
</g>
</g>
<!-- Node23 -->
<g id="Node000023" class="node">
<title>Node23</title>
<g id="a_Node000023"><a xlink:href="app_8c.html#abcdc5a03717efe70e368a02cdd0d9f93" target="_top" xlink:title=" ">
<polygon fill="white" stroke="#666666" points="566.25,-174.75 498.5,-174.75 498.5,-154 566.25,-154 566.25,-174.75"/>
<text text-anchor="middle" x="532.38" y="-161.25" font-family="Helvetica,sans-Serif" font-size="10.00">w2c__f537</text>
</a>
</g>
</g>
<!-- Node10&#45;&gt;Node23 -->
<g id="edge27_Node000010_Node000023" class="edge">
<title>Node10&#45;&gt;Node23</title>
<g id="a_edge27_Node000010_Node000023"><a xlink:title=" ">
<path fill="none" stroke="#63b8ff" d="M618.32,-240.35C604.85,-225.53 585.14,-204.8 566.25,-188.38 560.92,-183.74 554.73,-179.06 549.18,-175.08"/>
<polygon fill="#63b8ff" stroke="#63b8ff" points="615.54,-242.49 624.82,-247.59 620.74,-237.81 615.54,-242.49"/>
</a>
</g>
</g>
<!-- Node12&#45;&gt;Node13 -->
<g id="edge12_Node000012_Node000013" class="edge">
<title>Node12&#45;&gt;Node13</title>
<g id="a_edge12_Node000012_Node000013"><a xlink:title=" ">
<path fill="none" stroke="#63b8ff" d="M504.6,-340.19C491.87,-348.16 476.42,-357.8 462.5,-366.38 457.61,-369.39 452.29,-372.64 447.39,-375.62"/>
<polygon fill="#63b8ff" stroke="#63b8ff" points="506.25,-343.29 512.86,-335.01 502.53,-337.36 506.25,-343.29"/>
</a>
</g>
</g>
<!-- Node14 -->
<g id="Node000014" class="node">
<title>Node14</title>
<g id="a_Node000014"><a xlink:href="app_8c.html#a13a282f739b6944dad1977039f3fadde" target="_top" xlink:title=" ">
<polygon fill="white" stroke="#666666" points="462.5,-357.75 394.75,-357.75 394.75,-337 462.5,-337 462.5,-357.75"/>
<text text-anchor="middle" x="428.62" y="-344.25" font-family="Helvetica,sans-Serif" font-size="10.00">w2c__f420</text>
</a>
</g>
</g>
<!-- Node12&#45;&gt;Node14 -->
<g id="edge13_Node000012_Node000014" class="edge">
<title>Node12&#45;&gt;Node14</title>
<g id="a_edge13_Node000012_Node000014"><a xlink:title=" ">
<path fill="none" stroke="#63b8ff" d="M487.1,-333.82C478.9,-335.75 470.46,-337.74 462.67,-339.58"/>
<polygon fill="#63b8ff" stroke="#63b8ff" points="487.66,-337.28 496.59,-331.58 486.05,-330.47 487.66,-337.28"/>
</a>
</g>
</g>
<!-- Node15&#45;&gt;Node4 -->
<g id="edge18_Node000015_Node000004" class="edge">
<title>Node15&#45;&gt;Node4</title>
<g id="a_edge18_Node000015_Node000004"><a xlink:title=" ">
<path fill="none" stroke="#63b8ff" d="M511.07,-241.34C482.78,-218.48 430.9,-185.04 394.75,-211.38 326.77,-260.91 324.44,-378.69 325.4,-414.72"/>
<polygon fill="#63b8ff" stroke="#63b8ff" points="508.64,-243.87 518.55,-247.61 513.14,-238.5 508.64,-243.87"/>
</a>
</g>
</g>
<!-- Node16 -->
<g id="Node000016" class="node">
<title>Node16</title>
<g id="a_Node000016"><a xlink:href="app_8c.html#a5e6d37c539a2e51904358f57d24ae63c" target="_top" xlink:title=" ">
<polygon fill="white" stroke="#666666" points="462.5,-240.75 394.75,-240.75 394.75,-220 462.5,-220 462.5,-240.75"/>
<text text-anchor="middle" x="428.62" y="-227.25" font-family="Helvetica,sans-Serif" font-size="10.00">w2c__f207</text>
</a>
</g>
</g>
<!-- Node15&#45;&gt;Node16 -->
<g id="edge16_Node000015_Node000016" class="edge">
<title>Node15&#45;&gt;Node16</title>
<g id="a_edge16_Node000015_Node000016"><a xlink:title=" ">
<path fill="none" stroke="#63b8ff" d="M487.1,-246.76C478.9,-244.42 470.46,-242.01 462.67,-239.79"/>
<polygon fill="#63b8ff" stroke="#63b8ff" points="486.03,-250.09 496.6,-249.46 487.95,-243.36 486.03,-250.09"/>
</a>
</g>
</g>
<!-- Node17 -->
<g id="Node000017" class="node">
<title>Node17</title>
<g id="a_Node000017"><a xlink:href="app_8c.html#ad6ca5e0c47ccb4e49eb279d54c79b6ae" target="_top" xlink:title=" ">
<polygon fill="white" stroke="#666666" points="462.5,-318.75 394.75,-318.75 394.75,-298 462.5,-298 462.5,-318.75"/>
<text text-anchor="middle" x="428.62" y="-305.25" font-family="Helvetica,sans-Serif" font-size="10.00">w2c__f261</text>
</a>
</g>
</g>
<!-- Node15&#45;&gt;Node17 -->
<g id="edge17_Node000015_Node000017" class="edge">
<title>Node15&#45;&gt;Node17</title>
<g id="a_edge17_Node000015_Node000017"><a xlink:title=" ">
<path fill="none" stroke="#63b8ff" d="M498.75,-275.09C483.54,-282.41 465.83,-290.94 452.14,-297.53"/>
<polygon fill="#63b8ff" stroke="#63b8ff" points="499.94,-278.4 507.43,-270.91 496.9,-272.09 499.94,-278.4"/>
</a>
</g>
</g>
<!-- Node18 -->
<g id="Node000018" class="node">
<title>Node18</title>
<g id="a_Node000018"><a xlink:href="app_8c.html#a268eebcea573fce720709e588959d401" target="_top" xlink:title=" ">
<polygon fill="white" stroke="#666666" points="462.5,-279.75 394.75,-279.75 394.75,-259 462.5,-259 462.5,-279.75"/>
<text text-anchor="middle" x="428.62" y="-266.25" font-family="Helvetica,sans-Serif" font-size="10.00">w2c__f568</text>
</a>
</g>
</g>
<!-- Node15&#45;&gt;Node18 -->
<g id="edge19_Node000015_Node000018" class="edge">
<title>Node15&#45;&gt;Node18</title>
<g id="a_edge19_Node000015_Node000018"><a xlink:title=" ">
<path fill="none" stroke="#63b8ff" d="M486.82,-263.75C478.71,-264.55 470.38,-265.37 462.67,-266.13"/>
<polygon fill="#63b8ff" stroke="#63b8ff" points="486.94,-267.26 496.55,-262.8 486.26,-260.29 486.94,-267.26"/>
</a>
</g>
</g>
<!-- Node20 -->
<g id="Node000020" class="node">
<title>Node20</title>
<g id="a_Node000020"><a xlink:href="app_8c.html#ad46ee8455023db930456c594f733bd66" target="_top" xlink:title=" ">
<polygon fill="white" stroke="#666666" points="462.5,-435.75 394.75,-435.75 394.75,-415 462.5,-415 462.5,-435.75"/>
<text text-anchor="middle" x="428.62" y="-422.25" font-family="Helvetica,sans-Serif" font-size="10.00">w2c__f406</text>
</a>
</g>
</g>
<!-- Node19&#45;&gt;Node20 -->
<g id="edge22_Node000019_Node000020" class="edge">
<title>Node19&#45;&gt;Node20</title>
<g id="a_edge22_Node000019_Node000020"><a xlink:title=" ">
<path fill="none" stroke="#63b8ff" d="M487.1,-410.69C478.9,-412.78 470.46,-414.94 462.67,-416.93"/>
<polygon fill="#63b8ff" stroke="#63b8ff" points="487.77,-414.13 496.59,-408.26 486.04,-407.35 487.77,-414.13"/>
</a>
</g>
</g>
<!-- Node20&#45;&gt;Node4 -->
<g id="edge23_Node000020_Node000004" class="edge">
<title>Node20&#45;&gt;Node4</title>
<g id="a_edge23_Node000020_Node000004"><a xlink:title=" ">
<path fill="none" stroke="#63b8ff" d="M383.07,-425.38C374.96,-425.38 366.63,-425.38 358.92,-425.38"/>
<polygon fill="#63b8ff" stroke="#63b8ff" points="382.79,-428.88 392.79,-425.38 382.79,-421.88 382.79,-428.88"/>
</a>
</g>
</g>
<!-- Node23&#45;&gt;Node11 -->
<g id="edge28_Node000023_Node000011" class="edge">
<title>Node23&#45;&gt;Node11</title>
<g id="a_edge28_Node000023_Node000011"><a xlink:title=" ">
<path fill="none" stroke="#63b8ff" d="M498.13,-148.69C483.16,-141.63 465.85,-133.47 452.38,-127.11"/>
<polygon fill="#63b8ff" stroke="#63b8ff" points="496.63,-151.86 507.17,-152.96 499.62,-145.53 496.63,-151.86"/>
</a>
</g>
</g>
<!-- Node24&#45;&gt;Node21 -->
<g id="edge31_Node000024_Node000021" class="edge">
<title>Node24&#45;&gt;Node21</title>
<g id="a_edge31_Node000024_Node000021"><a xlink:title=" ">
<path fill="none" stroke="#63b8ff" d="M590.57,-77.69C582.46,-79.21 574.13,-80.77 566.42,-82.2"/>
<polygon fill="#63b8ff" stroke="#63b8ff" points="591.13,-81.15 600.32,-75.87 589.85,-74.27 591.13,-81.15"/>
</a>
</g>
</g>
<!-- Node24&#45;&gt;Node22 -->
<g id="edge32_Node000024_Node000022" class="edge">
<title>Node24&#45;&gt;Node22</title>
<g id="a_edge32_Node000024_Node000022"><a xlink:title=" ">
<path fill="none" stroke="#63b8ff" d="M590.57,-60.62C582.46,-59.02 574.13,-57.38 566.42,-55.87"/>
<polygon fill="#63b8ff" stroke="#63b8ff" points="589.84,-64.04 600.32,-62.53 591.19,-57.17 589.84,-64.04"/>
</a>
</g>
</g>
<!-- Node25 -->
<g id="Node000025" class="node">
<title>Node25</title>
<g id="a_Node000025"><a xlink:href="app_8c.html#aba6a17517e2602cdfa89b1857617511b" target="_top" xlink:title=" ">
<polygon fill="white" stroke="#666666" points="566.25,-20.75 498.5,-20.75 498.5,0 566.25,0 566.25,-20.75"/>
<text text-anchor="middle" x="532.38" y="-7.25" font-family="Helvetica,sans-Serif" font-size="10.00">w2c__f288</text>
</a>
</g>
</g>
<!-- Node24&#45;&gt;Node25 -->
<g id="edge30_Node000024_Node000025" class="edge">
<title>Node24&#45;&gt;Node25</title>
<g id="a_edge30_Node000024_Node000025"><a xlink:title=" ">
<path fill="none" stroke="#63b8ff" d="M606.74,-52.92C589.22,-42.76 567.23,-30.01 551.92,-21.13"/>
<polygon fill="#63b8ff" stroke="#63b8ff" points="604.75,-55.81 615.15,-57.79 608.26,-49.75 604.75,-55.81"/>
</a>
</g>
</g>
</g>
</svg>
