<?xml version="1.0" encoding="UTF-8" standalone="no"?>
<!DOCTYPE svg PUBLIC "-//W3C//DTD SVG 1.1//EN"
 "http://www.w3.org/Graphics/SVG/1.1/DTD/svg11.dtd">
<!-- Generated by graphviz version 12.2.1 (0)
 -->
<!-- Title: w2c__f574 Pages: 1 -->
<svg width="608pt" height="631pt"
 viewBox="0.00 0.00 607.75 630.75" xmlns="http://www.w3.org/2000/svg" xmlns:xlink="http://www.w3.org/1999/xlink">
<g id="graph0" class="graph" transform="scale(1 1) rotate(0) translate(4 626.75)">
<title>w2c__f574</title>
<!-- Node1 -->
<g id="Node000001" class="node">
<title>Node1</title>
<g id="a_Node000001"><a xlink:title=" ">
<polygon fill="#999999" stroke="#666666" points="599.75,-234.75 532,-234.75 532,-214 599.75,-214 599.75,-234.75"/>
<text text-anchor="middle" x="565.88" y="-221.25" font-family="Helvetica,sans-Serif" font-size="10.00">w2c__f574</text>
</a>
</g>
</g>
<!-- Node2 -->
<g id="Node000002" class="node">
<title>Node2</title>
<g id="a_Node000002"><a xlink:href="app_8c.html#aaebae91a4d143d7892a5d87dc0f30ebc" target="_top" xlink:title=" ">
<polygon fill="white" stroke="#666666" points="481.38,-582.75 413.62,-582.75 413.62,-562 481.38,-562 481.38,-582.75"/>
<text text-anchor="middle" x="447.5" y="-569.25" font-family="Helvetica,sans-Serif" font-size="10.00">w2c__f207</text>
</a>
</g>
</g>
<!-- Node1&#45;&gt;Node2 -->
<g id="edge1_Node000001_Node000002" class="edge">
<title>Node1&#45;&gt;Node2</title>
<g id="a_edge1_Node000001_Node000002"><a xlink:title=" ">
<path fill="none" stroke="#63b8ff" d="M562.66,-246.49C555.79,-311.48 533,-500.32 496,-548.38 491.72,-553.94 485.79,-558.31 479.57,-561.72"/>
<polygon fill="#63b8ff" stroke="#63b8ff" points="566.13,-247.03 563.67,-236.73 559.16,-246.32 566.13,-247.03"/>
</a>
</g>
</g>
<!-- Node3 -->
<g id="Node000003" class="node">
<title>Node3</title>
<g id="a_Node000003"><a xlink:href="app_8c.html#a5677ffd129da8cd63b876545b8187d77" target="_top" xlink:title=" ">
<polygon fill="white" stroke="#666666" points="348.38,-583.75 280.62,-583.75 280.62,-563 348.38,-563 348.38,-583.75"/>
<text text-anchor="middle" x="314.5" y="-570.25" font-family="Helvetica,sans-Serif" font-size="10.00">w2c__f367</text>
</a>
</g>
</g>
<!-- Node1&#45;&gt;Node3 -->
<g id="edge24_Node000001_Node000003" class="edge">
<title>Node1&#45;&gt;Node3</title>
<g id="a_edge24_Node000001_Node000003"><a xlink:title=" ">
<path fill="none" stroke="#63b8ff" d="M564.27,-246.09C561.77,-318.08 549.65,-546.86 496,-591.38 450.2,-629.38 373.64,-601.46 336.71,-584.24"/>
<polygon fill="#63b8ff" stroke="#63b8ff" points="567.76,-246.51 564.58,-236.4 560.76,-246.29 567.76,-246.51"/>
</a>
</g>
</g>
<!-- Node7 -->
<g id="Node000007" class="node">
<title>Node7</title>
<g id="a_Node000007"><a xlink:href="app_8c.html#accfadfdf9e0b2a636cff5ac8e77bc6c6" target="_top" xlink:title=" ">
<polygon fill="white" stroke="#666666" points="348.38,-506.75 280.62,-506.75 280.62,-486 348.38,-486 348.38,-506.75"/>
<text text-anchor="middle" x="314.5" y="-493.25" font-family="Helvetica,sans-Serif" font-size="10.00">w2c__f225</text>
</a>
</g>
</g>
<!-- Node1&#45;&gt;Node7 -->
<g id="edge6_Node000001_Node000007" class="edge">
<title>Node1&#45;&gt;Node7</title>
<g id="a_edge6_Node000001_Node000007"><a xlink:title=" ">
<path fill="none" stroke="#63b8ff" d="M564.7,-246.5C563.11,-291.12 553.03,-392.28 496,-447.38 456.07,-485.95 388.95,-494.86 348.78,-496.52"/>
<polygon fill="#63b8ff" stroke="#63b8ff" points="568.2,-246.63 564.93,-236.56 561.2,-246.48 568.2,-246.63"/>
</a>
</g>
</g>
<!-- Node8 -->
<g id="Node000008" class="node">
<title>Node8</title>
<g id="a_Node000008"><a xlink:href="app_8c.html#a3b35d36403dcff081d46c10210051cdc" target="_top" xlink:title=" ">
<polygon fill="white" stroke="#666666" points="215.38,-544.75 147.62,-544.75 147.62,-524 215.38,-524 215.38,-544.75"/>
<text text-anchor="middle" x="181.5" y="-531.25" font-family="Helvetica,sans-Serif" font-size="10.00">w2c__f349</text>
</a>
</g>
</g>
<!-- Node1&#45;&gt;Node8 -->
<g id="edge23_Node000001_Node000008" class="edge">
<title>Node1&#45;&gt;Node8</title>
<g id="a_edge23_Node000001_Node000008"><a xlink:title=" ">
<path fill="none" stroke="#63b8ff" d="M561.94,-246.36C553.98,-302.65 530.28,-449.9 496,-483.38 419.66,-557.92 279.61,-548.91 215.78,-540.07"/>
<polygon fill="#63b8ff" stroke="#63b8ff" points="565.4,-246.84 563.3,-236.46 558.47,-245.89 565.4,-246.84"/>
</a>
</g>
</g>
<!-- Node12 -->
<g id="Node000012" class="node">
<title>Node12</title>
<g id="a_Node000012"><a xlink:href="app_8c.html#a29ede891bbfd531ec972fd15b30ced81" target="_top" xlink:title=" ">
<polygon fill="white" stroke="#666666" points="481.38,-214.75 413.62,-214.75 413.62,-194 481.38,-194 481.38,-214.75"/>
<text text-anchor="middle" x="447.5" y="-201.25" font-family="Helvetica,sans-Serif" font-size="10.00">w2c__f240</text>
</a>
</g>
</g>
<!-- Node1&#45;&gt;Node12 -->
<g id="edge11_Node000001_Node000012" class="edge">
<title>Node1&#45;&gt;Node12</title>
<g id="a_edge11_Node000001_Node000012"><a xlink:title=" ">
<path fill="none" stroke="#63b8ff" d="M520.55,-216.76C507.71,-214.55 493.91,-212.18 481.85,-210.11"/>
<polygon fill="#63b8ff" stroke="#63b8ff" points="519.59,-220.14 530.03,-218.39 520.77,-213.24 519.59,-220.14"/>
</a>
</g>
</g>
<!-- Node14 -->
<g id="Node000014" class="node">
<title>Node14</title>
<g id="a_Node000014"><a xlink:href="app_8c.html#add194bffb67f2f62eef302d08ce41b47" target="_top" xlink:title=" ">
<polygon fill="white" stroke="#666666" points="481.38,-438.75 413.62,-438.75 413.62,-418 481.38,-418 481.38,-438.75"/>
<text text-anchor="middle" x="447.5" y="-425.25" font-family="Helvetica,sans-Serif" font-size="10.00">w2c__f266</text>
</a>
</g>
</g>
<!-- Node1&#45;&gt;Node14 -->
<g id="edge13_Node000001_Node000014" class="edge">
<title>Node1&#45;&gt;Node14</title>
<g id="a_edge13_Node000001_Node000014"><a xlink:title=" ">
<path fill="none" stroke="#63b8ff" d="M553.15,-244.93C528.69,-287.81 472.95,-385.51 454.53,-417.8"/>
<polygon fill="#63b8ff" stroke="#63b8ff" points="556.12,-246.79 558.03,-236.37 550.04,-243.32 556.12,-246.79"/>
</a>
</g>
</g>
<!-- Node21 -->
<g id="Node000021" class="node">
<title>Node21</title>
<g id="a_Node000021"><a xlink:href="app_8c.html#acb255bbda6ed30845a5263860d3c45b1" target="_top" xlink:title=" ">
<polygon fill="white" stroke="#666666" points="348.38,-137.75 280.62,-137.75 280.62,-117 348.38,-117 348.38,-137.75"/>
<text text-anchor="middle" x="314.5" y="-124.25" font-family="Helvetica,sans-Serif" font-size="10.00">w2c__f389</text>
</a>
</g>
</g>
<!-- Node1&#45;&gt;Node21 -->
<g id="edge25_Node000001_Node000021" class="edge">
<title>Node1&#45;&gt;Node21</title>
<g id="a_edge25_Node000001_Node000021"><a xlink:title=" ">
<path fill="none" stroke="#63b8ff" d="M538.33,-207.66C525.8,-200.21 510.45,-191.71 496,-185.38 446.26,-163.57 385.65,-145.78 348.85,-135.89"/>
<polygon fill="#63b8ff" stroke="#63b8ff" points="536.45,-210.61 546.82,-212.81 540.09,-204.63 536.45,-210.61"/>
</a>
</g>
</g>
<!-- Node23 -->
<g id="Node000023" class="node">
<title>Node23</title>
<g id="a_Node000023"><a xlink:href="app_8c.html#ae1894622990b883cad3d7ca790179a8b" target="_top" xlink:title=" ">
<polygon fill="white" stroke="#666666" points="481.38,-273.75 413.62,-273.75 413.62,-253 481.38,-253 481.38,-273.75"/>
<text text-anchor="middle" x="447.5" y="-260.25" font-family="Helvetica,sans-Serif" font-size="10.00">w2c__f407</text>
</a>
</g>
</g>
<!-- Node1&#45;&gt;Node23 -->
<g id="edge27_Node000001_Node000023" class="edge">
<title>Node1&#45;&gt;Node23</title>
<g id="a_edge27_Node000001_Node000023"><a xlink:title=" ">
<path fill="none" stroke="#63b8ff" d="M521.86,-238.79C508.26,-243.35 493.46,-248.31 480.74,-252.57"/>
<polygon fill="#63b8ff" stroke="#63b8ff" points="522.65,-242.22 531.02,-235.72 520.43,-235.58 522.65,-242.22"/>
</a>
</g>
</g>
<!-- Node31 -->
<g id="Node000031" class="node">
<title>Node31</title>
<g id="a_Node000031"><a xlink:href="app_8c.html#a85d3b9af05c91f610c185ddb2549e444" target="_top" xlink:title=" ">
<polygon fill="white" stroke="#666666" points="481.38,-98.75 413.62,-98.75 413.62,-78 481.38,-78 481.38,-98.75"/>
<text text-anchor="middle" x="447.5" y="-85.25" font-family="Helvetica,sans-Serif" font-size="10.00">w2c__f543</text>
</a>
</g>
</g>
<!-- Node1&#45;&gt;Node31 -->
<g id="edge36_Node000001_Node000031" class="edge">
<title>Node1&#45;&gt;Node31</title>
<g id="a_edge36_Node000001_Node000031"><a xlink:title=" ">
<path fill="none" stroke="#63b8ff" d="M557.09,-203.13C546.74,-177.52 526.17,-134.66 496,-108.38 491.82,-104.73 486.87,-101.68 481.79,-99.15"/>
<polygon fill="#63b8ff" stroke="#63b8ff" points="553.71,-204.09 560.58,-212.15 560.24,-201.56 553.71,-204.09"/>
</a>
</g>
</g>
<!-- Node33 -->
<g id="Node000033" class="node">
<title>Node33</title>
<g id="a_Node000033"><a xlink:href="app_8c.html#a6b79da1c760dd75bc17e4b1f0706c467" target="_top" xlink:title=" ">
<polygon fill="white" stroke="#666666" points="481.38,-137.75 413.62,-137.75 413.62,-117 481.38,-117 481.38,-137.75"/>
<text text-anchor="middle" x="447.5" y="-124.25" font-family="Helvetica,sans-Serif" font-size="10.00">w2c__f562</text>
</a>
</g>
</g>
<!-- Node1&#45;&gt;Node33 -->
<g id="edge38_Node000001_Node000033" class="edge">
<title>Node1&#45;&gt;Node33</title>
<g id="a_edge38_Node000001_Node000033"><a xlink:title=" ">
<path fill="none" stroke="#63b8ff" d="M549.2,-204.79C536.11,-189.27 516.36,-167.73 496,-152.38 488.86,-146.99 480.39,-142.13 472.6,-138.15"/>
<polygon fill="#63b8ff" stroke="#63b8ff" points="546.41,-206.9 555.47,-212.39 551.81,-202.45 546.41,-206.9"/>
</a>
</g>
</g>
<!-- Node35 -->
<g id="Node000035" class="node">
<title>Node35</title>
<g id="a_Node000035"><a xlink:href="app_8c.html#ad7a697348c658220d234ccfc02168d02" target="_top" xlink:title=" ">
<polygon fill="white" stroke="#666666" points="481.38,-59.75 413.62,-59.75 413.62,-39 481.38,-39 481.38,-59.75"/>
<text text-anchor="middle" x="447.5" y="-46.25" font-family="Helvetica,sans-Serif" font-size="10.00">w2c__f581</text>
</a>
</g>
</g>
<!-- Node1&#45;&gt;Node35 -->
<g id="edge41_Node000001_Node000035" class="edge">
<title>Node1&#45;&gt;Node35</title>
<g id="a_edge41_Node000001_Node000035"><a xlink:title=" ">
<path fill="none" stroke="#63b8ff" d="M560.61,-202.77C553.07,-169.87 534.41,-107.03 496,-69.38 491.91,-65.37 486.9,-62.11 481.68,-59.48"/>
<polygon fill="#63b8ff" stroke="#63b8ff" points="557.14,-203.28 562.66,-212.33 563.99,-201.82 557.14,-203.28"/>
</a>
</g>
</g>
<!-- Node37 -->
<g id="Node000037" class="node">
<title>Node37</title>
<g id="a_Node000037"><a xlink:href="app_8c.html#a29b586c0fe9b4a8deb4b9cd743372a7c" target="_top" xlink:title=" ">
<polygon fill="white" stroke="#666666" points="496,-20.75 399,-20.75 399,0 496,0 496,-20.75"/>
<text text-anchor="middle" x="447.5" y="-7.25" font-family="Helvetica,sans-Serif" font-size="10.00">wrap_w2c__f574</text>
</a>
</g>
</g>
<!-- Node1&#45;&gt;Node37 -->
<g id="edge43_Node000001_Node000037" class="edge">
<title>Node1&#45;&gt;Node37</title>
<g id="a_edge43_Node000001_Node000037"><a xlink:title=" ">
<path fill="none" stroke="#63b8ff" d="M562.8,-202.17C557.97,-162.68 542.62,-79.75 496,-30.38 492.44,-26.6 488.05,-23.51 483.4,-20.99"/>
<polygon fill="#63b8ff" stroke="#63b8ff" points="559.31,-202.51 563.87,-212.08 566.27,-201.76 559.31,-202.51"/>
</a>
</g>
</g>
<!-- Node2&#45;&gt;Node3 -->
<g id="edge2_Node000002_Node000003" class="edge">
<title>Node2&#45;&gt;Node3</title>
<g id="a_edge2_Node000002_Node000003"><a xlink:title=" ">
<path fill="none" stroke="#63b8ff" d="M402.03,-572.71C384.52,-572.85 364.76,-573 348.55,-573.12"/>
<polygon fill="#63b8ff" stroke="#63b8ff" points="401.96,-576.22 411.93,-572.64 401.9,-569.22 401.96,-576.22"/>
</a>
</g>
</g>
<!-- Node4 -->
<g id="Node000004" class="node">
<title>Node4</title>
<g id="a_Node000004"><a xlink:href="app_8c.html#ac863989691d4c389f80374209c220171" target="_top" xlink:title=" ">
<polygon fill="white" stroke="#666666" points="212.75,-583.75 150.25,-583.75 150.25,-563 212.75,-563 212.75,-583.75"/>
<text text-anchor="middle" x="181.5" y="-570.25" font-family="Helvetica,sans-Serif" font-size="10.00">w2c__c_0</text>
</a>
</g>
</g>
<!-- Node3&#45;&gt;Node4 -->
<g id="edge3_Node000003_Node000004" class="edge">
<title>Node3&#45;&gt;Node4</title>
<g id="a_edge3_Node000003_Node000004"><a xlink:title=" ">
<path fill="none" stroke="#63b8ff" d="M269.02,-573.38C250.52,-573.38 229.53,-573.38 212.85,-573.38"/>
<polygon fill="#63b8ff" stroke="#63b8ff" points="268.93,-576.88 278.93,-573.38 268.93,-569.88 268.93,-576.88"/>
</a>
</g>
</g>
<!-- Node6 -->
<g id="Node000006" class="node">
<title>Node6</title>
<g id="a_Node000006"><a xlink:href="app_8c.html#a8f64ccad6c506a1ca514ba4f43e5211c" target="_top" xlink:title=" ">
<polygon fill="white" stroke="#666666" points="230,-622.75 133,-622.75 133,-602 230,-602 230,-622.75"/>
<text text-anchor="middle" x="181.5" y="-609.25" font-family="Helvetica,sans-Serif" font-size="10.00">wrap_w2c__f367</text>
</a>
</g>
</g>
<!-- Node3&#45;&gt;Node6 -->
<g id="edge5_Node000003_Node000006" class="edge">
<title>Node3&#45;&gt;Node6</title>
<g id="a_edge5_Node000003_Node000006"><a xlink:title=" ">
<path fill="none" stroke="#63b8ff" d="M269.43,-586.5C252.96,-591.4 234.46,-596.91 218.77,-601.58"/>
<polygon fill="#63b8ff" stroke="#63b8ff" points="270.41,-589.86 278.99,-583.65 268.41,-583.15 270.41,-589.86"/>
</a>
</g>
</g>
<!-- Node5 -->
<g id="Node000005" class="node">
<title>Node5</title>
<g id="a_Node000005"><a xlink:href="app_8c.html#ab1e039392ea68017ab8a6063263b147d" target="_top" xlink:title=" ">
<polygon fill="white" stroke="#666666" points="74.12,-583.75 22.88,-583.75 22.88,-563 74.12,-563 74.12,-583.75"/>
<text text-anchor="middle" x="48.5" y="-570.25" font-family="Helvetica,sans-Serif" font-size="10.00">w2c__c</text>
</a>
</g>
</g>
<!-- Node4&#45;&gt;Node5 -->
<g id="edge4_Node000004_Node000005" class="edge">
<title>Node4&#45;&gt;Node5</title>
<g id="a_edge4_Node000004_Node000005"><a xlink:title=" ">
<path fill="none" stroke="#63b8ff" d="M138.49,-573.38C117.33,-573.38 92.4,-573.38 74.32,-573.38"/>
<polygon fill="#63b8ff" stroke="#63b8ff" points="138.27,-576.88 148.27,-573.38 138.27,-569.88 138.27,-576.88"/>
</a>
</g>
</g>
<!-- Node7&#45;&gt;Node8 -->
<g id="edge7_Node000007_Node000008" class="edge">
<title>Node7&#45;&gt;Node8</title>
<g id="a_edge7_Node000007_Node000008"><a xlink:title=" ">
<path fill="none" stroke="#63b8ff" d="M269.54,-509.13C251.9,-514.24 231.91,-520.04 215.55,-524.79"/>
<polygon fill="#63b8ff" stroke="#63b8ff" points="270.36,-512.53 278.99,-506.39 268.41,-505.81 270.36,-512.53"/>
</a>
</g>
</g>
<!-- Node10 -->
<g id="Node000010" class="node">
<title>Node10</title>
<g id="a_Node000010"><a xlink:href="app_8c.html#accaa66b0a8b5284f9eee5ee3fb08c203" target="_top" xlink:title=" ">
<polygon fill="white" stroke="#666666" points="215.38,-505.75 147.62,-505.75 147.62,-485 215.38,-485 215.38,-505.75"/>
<text text-anchor="middle" x="181.5" y="-492.25" font-family="Helvetica,sans-Serif" font-size="10.00">w2c__f412</text>
</a>
</g>
</g>
<!-- Node7&#45;&gt;Node10 -->
<g id="edge9_Node000007_Node000010" class="edge">
<title>Node7&#45;&gt;Node10</title>
<g id="a_edge9_Node000007_Node000010"><a xlink:title=" ">
<path fill="none" stroke="#63b8ff" d="M269.03,-496.04C251.52,-495.9 231.76,-495.75 215.55,-495.63"/>
<polygon fill="#63b8ff" stroke="#63b8ff" points="268.9,-499.53 278.93,-496.11 268.96,-492.53 268.9,-499.53"/>
</a>
</g>
</g>
<!-- Node9 -->
<g id="Node000009" class="node">
<title>Node9</title>
<g id="a_Node000009"><a xlink:href="app_8c.html#a053e462a04712de112461bc2539f46e8" target="_top" xlink:title=" ">
<polygon fill="white" stroke="#666666" points="97,-544.75 0,-544.75 0,-524 97,-524 97,-544.75"/>
<text text-anchor="middle" x="48.5" y="-531.25" font-family="Helvetica,sans-Serif" font-size="10.00">wrap_w2c__f349</text>
</a>
</g>
</g>
<!-- Node8&#45;&gt;Node9 -->
<g id="edge8_Node000008_Node000009" class="edge">
<title>Node8&#45;&gt;Node9</title>
<g id="a_edge8_Node000008_Node000009"><a xlink:title=" ">
<path fill="none" stroke="#63b8ff" d="M135.95,-534.38C123.53,-534.38 110,-534.38 97.4,-534.38"/>
<polygon fill="#63b8ff" stroke="#63b8ff" points="135.93,-537.88 145.93,-534.38 135.93,-530.88 135.93,-537.88"/>
</a>
</g>
</g>
<!-- Node11 -->
<g id="Node000011" class="node">
<title>Node11</title>
<g id="a_Node000011"><a xlink:href="app_8c.html#ad7e6219b365d4df9ffa2a21183e954f2" target="_top" xlink:title=" ">
<polygon fill="white" stroke="#666666" points="97,-505.75 0,-505.75 0,-485 97,-485 97,-505.75"/>
<text text-anchor="middle" x="48.5" y="-492.25" font-family="Helvetica,sans-Serif" font-size="10.00">wrap_w2c__f412</text>
</a>
</g>
</g>
<!-- Node10&#45;&gt;Node11 -->
<g id="edge10_Node000010_Node000011" class="edge">
<title>Node10&#45;&gt;Node11</title>
<g id="a_edge10_Node000010_Node000011"><a xlink:title=" ">
<path fill="none" stroke="#63b8ff" d="M135.95,-495.38C123.53,-495.38 110,-495.38 97.4,-495.38"/>
<polygon fill="#63b8ff" stroke="#63b8ff" points="135.93,-498.88 145.93,-495.38 135.93,-491.88 135.93,-498.88"/>
</a>
</g>
</g>
<!-- Node13 -->
<g id="Node000013" class="node">
<title>Node13</title>
<g id="a_Node000013"><a xlink:href="app_8c.html#a438f33f7d1181479b41929e335200724" target="_top" xlink:title=" ">
<polygon fill="white" stroke="#666666" points="363,-176.75 266,-176.75 266,-156 363,-156 363,-176.75"/>
<text text-anchor="middle" x="314.5" y="-163.25" font-family="Helvetica,sans-Serif" font-size="10.00">wrap_w2c__f240</text>
</a>
</g>
</g>
<!-- Node12&#45;&gt;Node13 -->
<g id="edge12_Node000012_Node000013" class="edge">
<title>Node12&#45;&gt;Node13</title>
<g id="a_edge12_Node000012_Node000013"><a xlink:title=" ">
<path fill="none" stroke="#63b8ff" d="M402.61,-191.64C386.42,-186.95 368.25,-181.68 352.71,-177.17"/>
<polygon fill="#63b8ff" stroke="#63b8ff" points="401.41,-194.94 411.99,-194.36 403.36,-188.22 401.41,-194.94"/>
</a>
</g>
</g>
<!-- Node14&#45;&gt;Node3 -->
<g id="edge15_Node000014_Node000003" class="edge">
<title>Node14&#45;&gt;Node3</title>
<g id="a_edge15_Node000014_Node000003"><a xlink:title=" ">
<path fill="none" stroke="#63b8ff" d="M429.7,-446.97C401.93,-477.71 347.35,-538.13 325.19,-562.65"/>
<polygon fill="#63b8ff" stroke="#63b8ff" points="431.96,-449.69 436.06,-439.93 426.76,-445 431.96,-449.69"/>
</a>
</g>
</g>
<!-- Node14&#45;&gt;Node7 -->
<g id="edge14_Node000014_Node000007" class="edge">
<title>Node14&#45;&gt;Node7</title>
<g id="a_edge14_Node000014_Node000007"><a xlink:title=" ">
<path fill="none" stroke="#63b8ff" d="M419.43,-445.07C403.31,-454.72 382.3,-466.81 363,-476.38 356.59,-479.55 349.54,-482.7 342.89,-485.52"/>
<polygon fill="#63b8ff" stroke="#63b8ff" points="421.21,-448.08 427.95,-439.91 417.59,-442.09 421.21,-448.08"/>
</a>
</g>
</g>
<!-- Node15 -->
<g id="Node000015" class="node">
<title>Node15</title>
<g id="a_Node000015"><a xlink:href="app_8c.html#af23f6c193d642848a6a7312a50699df7" target="_top" xlink:title=" ">
<polygon fill="white" stroke="#666666" points="348.38,-467.75 280.62,-467.75 280.62,-447 348.38,-447 348.38,-467.75"/>
<text text-anchor="middle" x="314.5" y="-454.25" font-family="Helvetica,sans-Serif" font-size="10.00">w2c__f467</text>
</a>
</g>
</g>
<!-- Node14&#45;&gt;Node15 -->
<g id="edge16_Node000014_Node000015" class="edge">
<title>Node14&#45;&gt;Node15</title>
<g id="a_edge16_Node000014_Node000015"><a xlink:title=" ">
<path fill="none" stroke="#63b8ff" d="M402.28,-438.16C384.71,-442.05 364.83,-446.45 348.55,-450.06"/>
<polygon fill="#63b8ff" stroke="#63b8ff" points="402.96,-441.6 411.97,-436.02 401.45,-434.76 402.96,-441.6"/>
</a>
</g>
</g>
<!-- Node17 -->
<g id="Node000017" class="node">
<title>Node17</title>
<g id="a_Node000017"><a xlink:href="app_8c.html#a651ec0f9d894e20b973be3a3f5e2a759" target="_top" xlink:title=" ">
<polygon fill="white" stroke="#666666" points="348.38,-428.75 280.62,-428.75 280.62,-408 348.38,-408 348.38,-428.75"/>
<text text-anchor="middle" x="314.5" y="-415.25" font-family="Helvetica,sans-Serif" font-size="10.00">w2c__f483</text>
</a>
</g>
</g>
<!-- Node14&#45;&gt;Node17 -->
<g id="edge18_Node000014_Node000017" class="edge">
<title>Node14&#45;&gt;Node17</title>
<g id="a_edge18_Node000014_Node000017"><a xlink:title=" ">
<path fill="none" stroke="#63b8ff" d="M402.03,-424.98C384.52,-423.64 364.76,-422.14 348.55,-420.9"/>
<polygon fill="#63b8ff" stroke="#63b8ff" points="401.7,-428.46 411.93,-425.74 402.23,-421.49 401.7,-428.46"/>
</a>
</g>
</g>
<!-- Node19 -->
<g id="Node000019" class="node">
<title>Node19</title>
<g id="a_Node000019"><a xlink:href="app_8c.html#acc202c88ff97c62f319f7e4dee4b9329" target="_top" xlink:title=" ">
<polygon fill="white" stroke="#666666" points="348.38,-371.75 280.62,-371.75 280.62,-351 348.38,-351 348.38,-371.75"/>
<text text-anchor="middle" x="314.5" y="-358.25" font-family="Helvetica,sans-Serif" font-size="10.00">w2c__f564</text>
</a>
</g>
</g>
<!-- Node14&#45;&gt;Node19 -->
<g id="edge20_Node000014_Node000019" class="edge">
<title>Node14&#45;&gt;Node19</title>
<g id="a_edge20_Node000014_Node000019"><a xlink:title=" ">
<path fill="none" stroke="#63b8ff" d="M415.29,-412.41C390.93,-399.95 357.77,-382.99 336.5,-372.11"/>
<polygon fill="#63b8ff" stroke="#63b8ff" points="413.61,-415.48 424.11,-416.92 416.8,-409.25 413.61,-415.48"/>
</a>
</g>
</g>
<!-- Node16 -->
<g id="Node000016" class="node">
<title>Node16</title>
<g id="a_Node000016"><a xlink:href="app_8c.html#a3b0c41e424e9f1d00e067608c44efdab" target="_top" xlink:title=" ">
<polygon fill="white" stroke="#666666" points="230,-466.75 133,-466.75 133,-446 230,-446 230,-466.75"/>
<text text-anchor="middle" x="181.5" y="-453.25" font-family="Helvetica,sans-Serif" font-size="10.00">wrap_w2c__f467</text>
</a>
</g>
</g>
<!-- Node15&#45;&gt;Node16 -->
<g id="edge17_Node000015_Node000016" class="edge">
<title>Node15&#45;&gt;Node16</title>
<g id="a_edge17_Node000015_Node000016"><a xlink:title=" ">
<path fill="none" stroke="#63b8ff" d="M268.95,-457.03C256.53,-456.94 243,-456.84 230.4,-456.74"/>
<polygon fill="#63b8ff" stroke="#63b8ff" points="268.9,-460.53 278.93,-457.11 268.96,-453.53 268.9,-460.53"/>
</a>
</g>
</g>
<!-- Node18 -->
<g id="Node000018" class="node">
<title>Node18</title>
<g id="a_Node000018"><a xlink:href="app_8c.html#a199b0b13b03598552d3b6c02676a7067" target="_top" xlink:title=" ">
<polygon fill="white" stroke="#666666" points="230,-427.75 133,-427.75 133,-407 230,-407 230,-427.75"/>
<text text-anchor="middle" x="181.5" y="-414.25" font-family="Helvetica,sans-Serif" font-size="10.00">wrap_w2c__f483</text>
</a>
</g>
</g>
<!-- Node17&#45;&gt;Node18 -->
<g id="edge19_Node000017_Node000018" class="edge">
<title>Node17&#45;&gt;Node18</title>
<g id="a_edge19_Node000017_Node000018"><a xlink:title=" ">
<path fill="none" stroke="#63b8ff" d="M268.95,-418.03C256.53,-417.94 243,-417.84 230.4,-417.74"/>
<polygon fill="#63b8ff" stroke="#63b8ff" points="268.9,-421.53 278.93,-418.11 268.96,-414.53 268.9,-421.53"/>
</a>
</g>
</g>
<!-- Node19&#45;&gt;Node19 -->
<g id="edge21_Node000019_Node000019" class="edge">
<title>Node19&#45;&gt;Node19</title>
<g id="a_edge21_Node000019_Node000019"><a xlink:title=" ">
<path fill="none" stroke="#63b8ff" d="M337.9,-383.24C334.8,-387.08 327,-389.75 314.5,-389.75 291.64,-389.75 284.5,-380.81 293.07,-372.15"/>
<polygon fill="#63b8ff" stroke="#63b8ff" points="341.39,-382.87 336.2,-373.64 334.5,-384.1 341.39,-382.87"/>
</a>
</g>
</g>
<!-- Node20 -->
<g id="Node000020" class="node">
<title>Node20</title>
<g id="a_Node000020"><a xlink:href="app_8c.html#a810668da6a4bac2a6bb6b48a06731447" target="_top" xlink:title=" ">
<polygon fill="white" stroke="#666666" points="230,-371.75 133,-371.75 133,-351 230,-351 230,-371.75"/>
<text text-anchor="middle" x="181.5" y="-358.25" font-family="Helvetica,sans-Serif" font-size="10.00">wrap_w2c__f564</text>
</a>
</g>
</g>
<!-- Node19&#45;&gt;Node20 -->
<g id="edge22_Node000019_Node000020" class="edge">
<title>Node19&#45;&gt;Node20</title>
<g id="a_edge22_Node000019_Node000020"><a xlink:title=" ">
<path fill="none" stroke="#63b8ff" d="M268.95,-361.38C256.53,-361.38 243,-361.38 230.4,-361.38"/>
<polygon fill="#63b8ff" stroke="#63b8ff" points="268.93,-364.88 278.93,-361.38 268.93,-357.88 268.93,-364.88"/>
</a>
</g>
</g>
<!-- Node22 -->
<g id="Node000022" class="node">
<title>Node22</title>
<g id="a_Node000022"><a xlink:href="app_8c.html#a64c4ada45e34e8f55ad1eae8aedc6126" target="_top" xlink:title=" ">
<polygon fill="white" stroke="#666666" points="230,-137.75 133,-137.75 133,-117 230,-117 230,-137.75"/>
<text text-anchor="middle" x="181.5" y="-124.25" font-family="Helvetica,sans-Serif" font-size="10.00">wrap_w2c__f389</text>
</a>
</g>
</g>
<!-- Node21&#45;&gt;Node22 -->
<g id="edge26_Node000021_Node000022" class="edge">
<title>Node21&#45;&gt;Node22</title>
<g id="a_edge26_Node000021_Node000022"><a xlink:title=" ">
<path fill="none" stroke="#63b8ff" d="M268.95,-127.38C256.53,-127.38 243,-127.38 230.4,-127.38"/>
<polygon fill="#63b8ff" stroke="#63b8ff" points="268.93,-130.88 278.93,-127.38 268.93,-123.88 268.93,-130.88"/>
</a>
</g>
</g>
<!-- Node23&#45;&gt;Node3 -->
<g id="edge30_Node000023_Node000003" class="edge">
<title>Node23&#45;&gt;Node3</title>
<g id="a_edge30_Node000023_Node000003"><a xlink:title=" ">
<path fill="none" stroke="#63b8ff" d="M439.54,-284.72C420.01,-344.59 365.91,-510.09 363,-515.38 352.96,-533.62 336.92,-551.71 326.29,-562.72"/>
<polygon fill="#63b8ff" stroke="#63b8ff" points="442.82,-285.97 442.59,-275.38 436.16,-283.8 442.82,-285.97"/>
</a>
</g>
</g>
<!-- Node24 -->
<g id="Node000024" class="node">
<title>Node24</title>
<g id="a_Node000024"><a xlink:href="app_8c.html#aabc3b06c7f7daa21796552c728f0379b" target="_top" xlink:title=" ">
<polygon fill="white" stroke="#666666" points="348.38,-293.75 280.62,-293.75 280.62,-273 348.38,-273 348.38,-293.75"/>
<text text-anchor="middle" x="314.5" y="-280.25" font-family="Helvetica,sans-Serif" font-size="10.00">w2c__f270</text>
</a>
</g>
</g>
<!-- Node23&#45;&gt;Node24 -->
<g id="edge28_Node000023_Node000024" class="edge">
<title>Node23&#45;&gt;Node24</title>
<g id="a_edge28_Node000023_Node000024"><a xlink:title=" ">
<path fill="none" stroke="#63b8ff" d="M402.28,-270.13C384.71,-272.81 364.83,-275.84 348.55,-278.33"/>
<polygon fill="#63b8ff" stroke="#63b8ff" points="402.59,-273.62 411.95,-268.65 401.53,-266.7 402.59,-273.62"/>
</a>
</g>
</g>
<!-- Node26 -->
<g id="Node000026" class="node">
<title>Node26</title>
<g id="a_Node000026"><a xlink:href="app_8c.html#aa5aa96620823a66d02f16f4abcd5e0fe" target="_top" xlink:title=" ">
<polygon fill="white" stroke="#666666" points="348.38,-254.75 280.62,-254.75 280.62,-234 348.38,-234 348.38,-254.75"/>
<text text-anchor="middle" x="314.5" y="-241.25" font-family="Helvetica,sans-Serif" font-size="10.00">w2c__f371</text>
</a>
</g>
</g>
<!-- Node23&#45;&gt;Node26 -->
<g id="edge31_Node000023_Node000026" class="edge">
<title>Node23&#45;&gt;Node26</title>
<g id="a_edge31_Node000023_Node000026"><a xlink:title=" ">
<path fill="none" stroke="#63b8ff" d="M402.28,-256.96C384.71,-254.41 364.83,-251.53 348.55,-249.17"/>
<polygon fill="#63b8ff" stroke="#63b8ff" points="401.55,-260.39 411.95,-258.36 402.55,-253.46 401.55,-260.39"/>
</a>
</g>
</g>
<!-- Node28 -->
<g id="Node000028" class="node">
<title>Node28</title>
<g id="a_Node000028"><a xlink:href="app_8c.html#a83755b8cd21c3725397c6ca0d8dc1f28" target="_top" xlink:title=" ">
<polygon fill="white" stroke="#666666" points="348.38,-215.75 280.62,-215.75 280.62,-195 348.38,-195 348.38,-215.75"/>
<text text-anchor="middle" x="314.5" y="-202.25" font-family="Helvetica,sans-Serif" font-size="10.00">w2c__f471</text>
</a>
</g>
</g>
<!-- Node23&#45;&gt;Node28 -->
<g id="edge33_Node000023_Node000028" class="edge">
<title>Node23&#45;&gt;Node28</title>
<g id="a_edge33_Node000023_Node000028"><a xlink:title=" ">
<path fill="none" stroke="#63b8ff" d="M412.74,-247.75C397.58,-240.8 379.44,-232.57 363,-225.38 356.12,-222.36 348.63,-219.17 341.69,-216.24"/>
<polygon fill="#63b8ff" stroke="#63b8ff" points="411.26,-250.92 421.81,-251.92 414.19,-244.56 411.26,-250.92"/>
</a>
</g>
</g>
<!-- Node30 -->
<g id="Node000030" class="node">
<title>Node30</title>
<g id="a_Node000030"><a xlink:href="app_8c.html#a2e4e816c21a72b2d2dc555b3e5000fa4" target="_top" xlink:title=" ">
<polygon fill="white" stroke="#666666" points="363,-332.75 266,-332.75 266,-312 363,-312 363,-332.75"/>
<text text-anchor="middle" x="314.5" y="-319.25" font-family="Helvetica,sans-Serif" font-size="10.00">wrap_w2c__f407</text>
</a>
</g>
</g>
<!-- Node23&#45;&gt;Node30 -->
<g id="edge35_Node000023_Node000030" class="edge">
<title>Node23&#45;&gt;Node30</title>
<g id="a_edge35_Node000023_Node000030"><a xlink:title=" ">
<path fill="none" stroke="#63b8ff" d="M413.87,-278.97C398.5,-286.23 379.87,-294.89 363,-302.38 356.13,-305.42 348.65,-308.63 341.71,-311.55"/>
<polygon fill="#63b8ff" stroke="#63b8ff" points="415.02,-282.3 422.56,-274.85 412.02,-275.97 415.02,-282.3"/>
</a>
</g>
</g>
<!-- Node25 -->
<g id="Node000025" class="node">
<title>Node25</title>
<g id="a_Node000025"><a xlink:href="app_8c.html#a54f194530158831aa826ddabfd869e3f" target="_top" xlink:title=" ">
<polygon fill="white" stroke="#666666" points="230,-293.75 133,-293.75 133,-273 230,-273 230,-293.75"/>
<text text-anchor="middle" x="181.5" y="-280.25" font-family="Helvetica,sans-Serif" font-size="10.00">wrap_w2c__f270</text>
</a>
</g>
</g>
<!-- Node24&#45;&gt;Node25 -->
<g id="edge29_Node000024_Node000025" class="edge">
<title>Node24&#45;&gt;Node25</title>
<g id="a_edge29_Node000024_Node000025"><a xlink:title=" ">
<path fill="none" stroke="#63b8ff" d="M268.95,-283.38C256.53,-283.38 243,-283.38 230.4,-283.38"/>
<polygon fill="#63b8ff" stroke="#63b8ff" points="268.93,-286.88 278.93,-283.38 268.93,-279.88 268.93,-286.88"/>
</a>
</g>
</g>
<!-- Node27 -->
<g id="Node000027" class="node">
<title>Node27</title>
<g id="a_Node000027"><a xlink:href="app_8c.html#a70f34b1bc2ae815ea8aa822e2de375d8" target="_top" xlink:title=" ">
<polygon fill="white" stroke="#666666" points="230,-254.75 133,-254.75 133,-234 230,-234 230,-254.75"/>
<text text-anchor="middle" x="181.5" y="-241.25" font-family="Helvetica,sans-Serif" font-size="10.00">wrap_w2c__f371</text>
</a>
</g>
</g>
<!-- Node26&#45;&gt;Node27 -->
<g id="edge32_Node000026_Node000027" class="edge">
<title>Node26&#45;&gt;Node27</title>
<g id="a_edge32_Node000026_Node000027"><a xlink:title=" ">
<path fill="none" stroke="#63b8ff" d="M268.95,-244.38C256.53,-244.38 243,-244.38 230.4,-244.38"/>
<polygon fill="#63b8ff" stroke="#63b8ff" points="268.93,-247.88 278.93,-244.38 268.93,-240.88 268.93,-247.88"/>
</a>
</g>
</g>
<!-- Node29 -->
<g id="Node000029" class="node">
<title>Node29</title>
<g id="a_Node000029"><a xlink:href="app_8c.html#a6b5632f950c10613ca99f4746ff29f36" target="_top" xlink:title=" ">
<polygon fill="white" stroke="#666666" points="230,-215.75 133,-215.75 133,-195 230,-195 230,-215.75"/>
<text text-anchor="middle" x="181.5" y="-202.25" font-family="Helvetica,sans-Serif" font-size="10.00">wrap_w2c__f471</text>
</a>
</g>
</g>
<!-- Node28&#45;&gt;Node29 -->
<g id="edge34_Node000028_Node000029" class="edge">
<title>Node28&#45;&gt;Node29</title>
<g id="a_edge34_Node000028_Node000029"><a xlink:title=" ">
<path fill="none" stroke="#63b8ff" d="M268.95,-205.38C256.53,-205.38 243,-205.38 230.4,-205.38"/>
<polygon fill="#63b8ff" stroke="#63b8ff" points="268.93,-208.88 278.93,-205.38 268.93,-201.88 268.93,-208.88"/>
</a>
</g>
</g>
<!-- Node32 -->
<g id="Node000032" class="node">
<title>Node32</title>
<g id="a_Node000032"><a xlink:href="app_8c.html#a150c1b2103da9aad28f8090ebe774379" target="_top" xlink:title=" ">
<polygon fill="white" stroke="#666666" points="363,-59.75 266,-59.75 266,-39 363,-39 363,-59.75"/>
<text text-anchor="middle" x="314.5" y="-46.25" font-family="Helvetica,sans-Serif" font-size="10.00">wrap_w2c__f543</text>
</a>
</g>
</g>
<!-- Node31&#45;&gt;Node32 -->
<g id="edge37_Node000031_Node000032" class="edge">
<title>Node31&#45;&gt;Node32</title>
<g id="a_edge37_Node000031_Node000032"><a xlink:title=" ">
<path fill="none" stroke="#63b8ff" d="M402.43,-75.25C385.96,-70.35 367.46,-64.84 351.77,-60.17"/>
<polygon fill="#63b8ff" stroke="#63b8ff" points="401.41,-78.6 411.99,-78.1 403.41,-71.89 401.41,-78.6"/>
</a>
</g>
</g>
<!-- Node33&#45;&gt;Node21 -->
<g id="edge39_Node000033_Node000021" class="edge">
<title>Node33&#45;&gt;Node21</title>
<g id="a_edge39_Node000033_Node000021"><a xlink:title=" ">
<path fill="none" stroke="#63b8ff" d="M402.03,-127.38C384.52,-127.38 364.76,-127.38 348.55,-127.38"/>
<polygon fill="#63b8ff" stroke="#63b8ff" points="401.93,-130.88 411.93,-127.38 401.93,-123.88 401.93,-130.88"/>
</a>
</g>
</g>
<!-- Node34 -->
<g id="Node000034" class="node">
<title>Node34</title>
<g id="a_Node000034"><a xlink:href="app_8c.html#a5dc3b1b123d8d6bca35b4df899b9bfc6" target="_top" xlink:title=" ">
<polygon fill="white" stroke="#666666" points="363,-98.75 266,-98.75 266,-78 363,-78 363,-98.75"/>
<text text-anchor="middle" x="314.5" y="-85.25" font-family="Helvetica,sans-Serif" font-size="10.00">wrap_w2c__f562</text>
</a>
</g>
</g>
<!-- Node33&#45;&gt;Node34 -->
<g id="edge40_Node000033_Node000034" class="edge">
<title>Node33&#45;&gt;Node34</title>
<g id="a_edge40_Node000033_Node000034"><a xlink:title=" ">
<path fill="none" stroke="#63b8ff" d="M402.43,-114.25C385.96,-109.35 367.46,-103.84 351.77,-99.17"/>
<polygon fill="#63b8ff" stroke="#63b8ff" points="401.41,-117.6 411.99,-117.1 403.41,-110.89 401.41,-117.6"/>
</a>
</g>
</g>
<!-- Node36 -->
<g id="Node000036" class="node">
<title>Node36</title>
<g id="a_Node000036"><a xlink:href="app_8c.html#a54dfeaa8d0689415b63bb001141331b4" target="_top" xlink:title=" ">
<polygon fill="white" stroke="#666666" points="363,-20.75 266,-20.75 266,0 363,0 363,-20.75"/>
<text text-anchor="middle" x="314.5" y="-7.25" font-family="Helvetica,sans-Serif" font-size="10.00">wrap_w2c__f581</text>
</a>
</g>
</g>
<!-- Node35&#45;&gt;Node36 -->
<g id="edge42_Node000035_Node000036" class="edge">
<title>Node35&#45;&gt;Node36</title>
<g id="a_edge42_Node000035_Node000036"><a xlink:title=" ">
<path fill="none" stroke="#63b8ff" d="M402.43,-36.25C385.96,-31.35 367.46,-25.84 351.77,-21.17"/>
<polygon fill="#63b8ff" stroke="#63b8ff" points="401.41,-39.6 411.99,-39.1 403.41,-32.89 401.41,-39.6"/>
</a>
</g>
</g>
</g>
</svg>
