<?xml version="1.0" encoding="UTF-8" standalone="no"?>
<!DOCTYPE svg PUBLIC "-//W3C//DTD SVG 1.1//EN"
 "http://www.w3.org/Graphics/SVG/1.1/DTD/svg11.dtd">
<!-- Generated by graphviz version 12.2.1 (0)
 -->
<!-- Title: wrap_w2c__f375 Pages: 1 -->
<svg width="935pt" height="313pt"
 viewBox="0.00 0.00 935.00 313.00" xmlns="http://www.w3.org/2000/svg" xmlns:xlink="http://www.w3.org/1999/xlink">
<g id="graph0" class="graph" transform="scale(1 1) rotate(0) translate(4 309)">
<title>wrap_w2c__f375</title>
<!-- Node1 -->
<g id="Node000001" class="node">
<title>Node1</title>
<g id="a_Node000001"><a xlink:title=" ">
<polygon fill="#999999" stroke="#666666" points="97,-162.38 0,-162.38 0,-141.62 97,-141.62 97,-162.38"/>
<text text-anchor="middle" x="48.5" y="-148.88" font-family="Helvetica,sans-Serif" font-size="10.00">wrap_w2c__f375</text>
</a>
</g>
</g>
<!-- Node2 -->
<g id="Node000002" class="node">
<title>Node2</title>
<g id="a_Node000002"><a xlink:href="app_8c.html#aada8f3762f0960bddf55a2e59d8087f8" target="_top" xlink:title=" ">
<polygon fill="white" stroke="#666666" points="200.75,-162.38 133,-162.38 133,-141.62 200.75,-141.62 200.75,-162.38"/>
<text text-anchor="middle" x="166.88" y="-148.88" font-family="Helvetica,sans-Serif" font-size="10.00">w2c__f375</text>
</a>
</g>
</g>
<!-- Node1&#45;&gt;Node2 -->
<g id="edge1_Node000001_Node000002" class="edge">
<title>Node1&#45;&gt;Node2</title>
<g id="a_edge1_Node000001_Node000002"><a xlink:title=" ">
<path fill="none" stroke="#63b8ff" d="M97.17,-152C105.18,-152 113.47,-152 121.4,-152"/>
<polygon fill="#63b8ff" stroke="#63b8ff" points="121.17,-155.5 131.17,-152 121.17,-148.5 121.17,-155.5"/>
</a>
</g>
</g>
<!-- Node3 -->
<g id="Node000003" class="node">
<title>Node3</title>
<g id="a_Node000003"><a xlink:href="app_8c.html#a0378208e0d5c0d1d6e7370f1c578fab3" target="_top" xlink:title=" ">
<polygon fill="white" stroke="#666666" points="823.25,-124.38 755.5,-124.38 755.5,-103.62 823.25,-103.62 823.25,-124.38"/>
<text text-anchor="middle" x="789.38" y="-110.88" font-family="Helvetica,sans-Serif" font-size="10.00">w2c__f216</text>
</a>
</g>
</g>
<!-- Node2&#45;&gt;Node3 -->
<g id="edge2_Node000002_Node000003" class="edge">
<title>Node2&#45;&gt;Node3</title>
<g id="a_edge2_Node000002_Node000003"><a xlink:title=" ">
<path fill="none" stroke="#63b8ff" d="M177.89,-141.48C205.89,-113.26 288.51,-38 373.38,-38 373.38,-38 373.38,-38 582.88,-38 650.85,-38 724.06,-75.03 762.07,-97.4"/>
<polygon fill="#63b8ff" stroke="#63b8ff" points="760.16,-100.33 770.53,-102.49 763.77,-94.33 760.16,-100.33"/>
</a>
</g>
</g>
<!-- Node5 -->
<g id="Node000005" class="node">
<title>Node5</title>
<g id="a_Node000005"><a xlink:href="app_8c.html#aaca5d5bcf49f2ca74019cf097750b9f3" target="_top" xlink:title=" ">
<polygon fill="white" stroke="#666666" points="823.25,-239.38 755.5,-239.38 755.5,-218.62 823.25,-218.62 823.25,-239.38"/>
<text text-anchor="middle" x="789.38" y="-225.88" font-family="Helvetica,sans-Serif" font-size="10.00">w2c__f258</text>
</a>
</g>
</g>
<!-- Node2&#45;&gt;Node5 -->
<g id="edge4_Node000002_Node000005" class="edge">
<title>Node2&#45;&gt;Node5</title>
<g id="a_edge4_Node000002_Node000005"><a xlink:title=" ">
<path fill="none" stroke="#63b8ff" d="M173.01,-162.71C182.84,-182.18 206.09,-223.61 236.75,-248 288.25,-288.95 307.58,-305 373.38,-305 373.38,-305 373.38,-305 582.88,-305 645.67,-305 661.47,-292.98 719.5,-269 734.63,-262.75 750.49,-253.73 763.17,-245.83"/>
<polygon fill="#63b8ff" stroke="#63b8ff" points="764.77,-248.97 771.31,-240.63 761,-243.07 764.77,-248.97"/>
</a>
</g>
</g>
<!-- Node7 -->
<g id="Node000007" class="node">
<title>Node7</title>
<g id="a_Node000007"><a xlink:href="app_8c.html#a39e5374effeff0dc142bbb7c393a906a" target="_top" xlink:title=" ">
<polygon fill="white" stroke="#666666" points="304.5,-239.38 236.75,-239.38 236.75,-218.62 304.5,-218.62 304.5,-239.38"/>
<text text-anchor="middle" x="270.62" y="-225.88" font-family="Helvetica,sans-Serif" font-size="10.00">w2c__f311</text>
</a>
</g>
</g>
<!-- Node2&#45;&gt;Node7 -->
<g id="edge7_Node000002_Node000007" class="edge">
<title>Node2&#45;&gt;Node7</title>
<g id="a_edge7_Node000002_Node000007"><a xlink:title=" ">
<path fill="none" stroke="#63b8ff" d="M179.65,-162.64C193.03,-174.52 215.76,-194.05 236.75,-209 238.28,-210.09 239.88,-211.19 241.5,-212.27"/>
<polygon fill="#63b8ff" stroke="#63b8ff" points="239.3,-215.02 249.62,-217.43 243.06,-209.11 239.3,-215.02"/>
</a>
</g>
</g>
<!-- Node9 -->
<g id="Node000009" class="node">
<title>Node9</title>
<g id="a_Node000009"><a xlink:href="app_8c.html#a8d133b0dcb7130bbc0a48ea5c1975662" target="_top" xlink:title=" ">
<polygon fill="white" stroke="#666666" points="304.5,-124.38 236.75,-124.38 236.75,-103.62 304.5,-103.62 304.5,-124.38"/>
<text text-anchor="middle" x="270.62" y="-110.88" font-family="Helvetica,sans-Serif" font-size="10.00">w2c__f436</text>
</a>
</g>
</g>
<!-- Node2&#45;&gt;Node9 -->
<g id="edge10_Node000002_Node000009" class="edge">
<title>Node2&#45;&gt;Node9</title>
<g id="a_edge10_Node000002_Node000009"><a xlink:title=" ">
<path fill="none" stroke="#63b8ff" d="M196.76,-141.21C207.07,-137.36 218.88,-132.95 229.94,-128.82"/>
<polygon fill="#63b8ff" stroke="#63b8ff" points="231.11,-132.12 239.25,-125.34 228.66,-125.56 231.11,-132.12"/>
</a>
</g>
</g>
<!-- Node11 -->
<g id="Node000011" class="node">
<title>Node11</title>
<g id="a_Node000011"><a xlink:href="app_8c.html#a282da58cdb8a8d86b26b785358ce183a" target="_top" xlink:title=" ">
<polygon fill="white" stroke="#666666" points="512,-162.38 444.25,-162.38 444.25,-141.62 512,-141.62 512,-162.38"/>
<text text-anchor="middle" x="478.12" y="-148.88" font-family="Helvetica,sans-Serif" font-size="10.00">w2c__f504</text>
</a>
</g>
</g>
<!-- Node2&#45;&gt;Node11 -->
<g id="edge27_Node000002_Node000011" class="edge">
<title>Node2&#45;&gt;Node11</title>
<g id="a_edge27_Node000002_Node000011"><a xlink:title=" ">
<path fill="none" stroke="#63b8ff" d="M200.97,-152C256.74,-152 369.5,-152 432.31,-152"/>
<polygon fill="#63b8ff" stroke="#63b8ff" points="432.29,-155.5 442.29,-152 432.29,-148.5 432.29,-155.5"/>
</a>
</g>
</g>
<!-- Node16 -->
<g id="Node000016" class="node">
<title>Node16</title>
<g id="a_Node000016"><a xlink:href="app_8c.html#a674f6e81761467d0a8dc6d2a425eda9f" target="_top" xlink:title=" ">
<polygon fill="white" stroke="#666666" points="823.25,-48.38 755.5,-48.38 755.5,-27.62 823.25,-27.62 823.25,-48.38"/>
<text text-anchor="middle" x="789.38" y="-34.88" font-family="Helvetica,sans-Serif" font-size="10.00">w2c__f498</text>
</a>
</g>
</g>
<!-- Node2&#45;&gt;Node16 -->
<g id="edge26_Node000002_Node000016" class="edge">
<title>Node2&#45;&gt;Node16</title>
<g id="a_edge26_Node000002_Node000016"><a xlink:title=" ">
<path fill="none" stroke="#63b8ff" d="M172.48,-141.25C181.74,-120.84 204.51,-76.27 236.75,-51 287.76,-11.02 308.56,0 373.38,0 373.38,0 373.38,0 582.88,0 639.25,0 702.9,-14 744.23,-25.01"/>
<polygon fill="#63b8ff" stroke="#63b8ff" points="743.24,-28.36 753.8,-27.62 745.08,-21.61 743.24,-28.36"/>
</a>
</g>
</g>
<!-- Node17 -->
<g id="Node000017" class="node">
<title>Node17</title>
<g id="a_Node000017"><a xlink:href="app_8c.html#aa4984aeb5692411379c03042d58ec683" target="_top" xlink:title=" ">
<polygon fill="white" stroke="#666666" points="304.5,-200.38 236.75,-200.38 236.75,-179.62 304.5,-179.62 304.5,-200.38"/>
<text text-anchor="middle" x="270.62" y="-186.88" font-family="Helvetica,sans-Serif" font-size="10.00">w2c__f560</text>
</a>
</g>
</g>
<!-- Node2&#45;&gt;Node17 -->
<g id="edge28_Node000002_Node000017" class="edge">
<title>Node2&#45;&gt;Node17</title>
<g id="a_edge28_Node000002_Node000017"><a xlink:title=" ">
<path fill="none" stroke="#63b8ff" d="M196.76,-162.79C207.07,-166.64 218.88,-171.05 229.94,-175.18"/>
<polygon fill="#63b8ff" stroke="#63b8ff" points="228.66,-178.44 239.25,-178.66 231.11,-171.88 228.66,-178.44"/>
</a>
</g>
</g>
<!-- Node4 -->
<g id="Node000004" class="node">
<title>Node4</title>
<g id="a_Node000004"><a xlink:href="app_8c.html#a8d9f347f9a643f0ebfb53c4f54578ac4" target="_top" xlink:title=" ">
<polygon fill="white" stroke="#666666" points="927,-181.38 859.25,-181.38 859.25,-160.62 927,-160.62 927,-181.38"/>
<text text-anchor="middle" x="893.12" y="-167.88" font-family="Helvetica,sans-Serif" font-size="10.00">w2c__f304</text>
</a>
</g>
</g>
<!-- Node3&#45;&gt;Node4 -->
<g id="edge3_Node000003_Node000004" class="edge">
<title>Node3&#45;&gt;Node4</title>
<g id="a_edge3_Node000003_Node000004"><a xlink:title=" ">
<path fill="none" stroke="#63b8ff" d="M809.51,-124.72C824.62,-133.19 845.95,-145.13 863.15,-154.77"/>
<polygon fill="#63b8ff" stroke="#63b8ff" points="860.97,-157.56 871.41,-159.39 864.39,-151.45 860.97,-157.56"/>
</a>
</g>
</g>
<!-- Node5&#45;&gt;Node4 -->
<g id="edge5_Node000005_Node000004" class="edge">
<title>Node5&#45;&gt;Node4</title>
<g id="a_edge5_Node000005_Node000004"><a xlink:title=" ">
<path fill="none" stroke="#63b8ff" d="M809.04,-218.36C824.29,-209.67 846.1,-197.24 863.55,-187.29"/>
<polygon fill="#63b8ff" stroke="#63b8ff" points="864.97,-190.51 871.92,-182.52 861.5,-184.43 864.97,-190.51"/>
</a>
</g>
</g>
<!-- Node6 -->
<g id="Node000006" class="node">
<title>Node6</title>
<g id="a_Node000006"><a xlink:href="app_8c.html#a881f0b113e93dce3ff52d04b435850f6" target="_top" xlink:title=" ">
<polygon fill="white" stroke="#666666" points="927,-239.38 859.25,-239.38 859.25,-218.62 927,-218.62 927,-239.38"/>
<text text-anchor="middle" x="893.12" y="-225.88" font-family="Helvetica,sans-Serif" font-size="10.00">w2c__f491</text>
</a>
</g>
</g>
<!-- Node5&#45;&gt;Node6 -->
<g id="edge6_Node000005_Node000006" class="edge">
<title>Node5&#45;&gt;Node6</title>
<g id="a_edge6_Node000005_Node000006"><a xlink:title=" ">
<path fill="none" stroke="#63b8ff" d="M823.69,-229C831.32,-229 839.56,-229 847.58,-229"/>
<polygon fill="#63b8ff" stroke="#63b8ff" points="847.57,-232.5 857.57,-229 847.57,-225.5 847.57,-232.5"/>
</a>
</g>
</g>
<!-- Node7&#45;&gt;Node5 -->
<g id="edge8_Node000007_Node000005" class="edge">
<title>Node7&#45;&gt;Node5</title>
<g id="a_edge8_Node000007_Node000005"><a xlink:title=" ">
<path fill="none" stroke="#63b8ff" d="M304.74,-238.98C345.06,-250.24 415.45,-267 477.12,-267 477.12,-267 477.12,-267 582.88,-267 639.25,-267 702.9,-253 744.23,-241.99"/>
<polygon fill="#63b8ff" stroke="#63b8ff" points="745.08,-245.39 753.8,-239.38 743.24,-238.64 745.08,-245.39"/>
</a>
</g>
</g>
<!-- Node8 -->
<g id="Node000008" class="node">
<title>Node8</title>
<g id="a_Node000008"><a xlink:href="app_8c.html#aeda0fdcf4b3bed63365b3a77c2197b09" target="_top" xlink:title=" ">
<polygon fill="white" stroke="#666666" points="408.25,-239.38 340.5,-239.38 340.5,-218.62 408.25,-218.62 408.25,-239.38"/>
<text text-anchor="middle" x="374.38" y="-225.88" font-family="Helvetica,sans-Serif" font-size="10.00">w2c__f538</text>
</a>
</g>
</g>
<!-- Node7&#45;&gt;Node8 -->
<g id="edge9_Node000007_Node000008" class="edge">
<title>Node7&#45;&gt;Node8</title>
<g id="a_edge9_Node000007_Node000008"><a xlink:title=" ">
<path fill="none" stroke="#63b8ff" d="M304.94,-229C312.57,-229 320.81,-229 328.83,-229"/>
<polygon fill="#63b8ff" stroke="#63b8ff" points="328.82,-232.5 338.82,-229 328.82,-225.5 328.82,-232.5"/>
</a>
</g>
</g>
<!-- Node9&#45;&gt;Node3 -->
<g id="edge11_Node000009_Node000003" class="edge">
<title>Node9&#45;&gt;Node3</title>
<g id="a_edge11_Node000009_Node000003"><a xlink:title=" ">
<path fill="none" stroke="#63b8ff" d="M304.74,-104.02C345.06,-92.76 415.45,-76 477.12,-76 477.12,-76 477.12,-76 582.88,-76 639.25,-76 702.9,-90 744.23,-101.01"/>
<polygon fill="#63b8ff" stroke="#63b8ff" points="743.24,-104.36 753.8,-103.62 745.08,-97.61 743.24,-104.36"/>
</a>
</g>
</g>
<!-- Node10 -->
<g id="Node000010" class="node">
<title>Node10</title>
<g id="a_Node000010"><a xlink:href="app_8c.html#a8ddfdaf7faae4bc857dc43f2691b9dbe" target="_top" xlink:title=" ">
<polygon fill="white" stroke="#666666" points="408.25,-124.38 340.5,-124.38 340.5,-103.62 408.25,-103.62 408.25,-124.38"/>
<text text-anchor="middle" x="374.38" y="-110.88" font-family="Helvetica,sans-Serif" font-size="10.00">w2c__f306</text>
</a>
</g>
</g>
<!-- Node9&#45;&gt;Node10 -->
<g id="edge12_Node000009_Node000010" class="edge">
<title>Node9&#45;&gt;Node10</title>
<g id="a_edge12_Node000009_Node000010"><a xlink:title=" ">
<path fill="none" stroke="#63b8ff" d="M304.94,-114C312.57,-114 320.81,-114 328.83,-114"/>
<polygon fill="#63b8ff" stroke="#63b8ff" points="328.82,-117.5 338.82,-114 328.82,-110.5 328.82,-117.5"/>
</a>
</g>
</g>
<!-- Node10&#45;&gt;Node3 -->
<g id="edge13_Node000010_Node000003" class="edge">
<title>Node10&#45;&gt;Node3</title>
<g id="a_edge13_Node000010_Node000003"><a xlink:title=" ">
<path fill="none" stroke="#63b8ff" d="M408.47,-114C482.26,-114 660.26,-114 743.75,-114"/>
<polygon fill="#63b8ff" stroke="#63b8ff" points="743.6,-117.5 753.6,-114 743.6,-110.5 743.6,-117.5"/>
</a>
</g>
</g>
<!-- Node10&#45;&gt;Node11 -->
<g id="edge14_Node000010_Node000011" class="edge">
<title>Node10&#45;&gt;Node11</title>
<g id="a_edge14_Node000010_Node000011"><a xlink:title=" ">
<path fill="none" stroke="#63b8ff" d="M404.26,-124.79C414.57,-128.64 426.38,-133.05 437.44,-137.18"/>
<polygon fill="#63b8ff" stroke="#63b8ff" points="436.16,-140.44 446.75,-140.66 438.61,-133.88 436.16,-140.44"/>
</a>
</g>
</g>
<!-- Node12 -->
<g id="Node000012" class="node">
<title>Node12</title>
<g id="a_Node000012"><a xlink:href="app_8c.html#a1a8a1d528c65d63a630e19c3a4bdd098" target="_top" xlink:title=" ">
<polygon fill="white" stroke="#666666" points="615.75,-181.38 548,-181.38 548,-160.62 615.75,-160.62 615.75,-181.38"/>
<text text-anchor="middle" x="581.88" y="-167.88" font-family="Helvetica,sans-Serif" font-size="10.00">w2c__f557</text>
</a>
</g>
</g>
<!-- Node11&#45;&gt;Node12 -->
<g id="edge15_Node000011_Node000012" class="edge">
<title>Node11&#45;&gt;Node12</title>
<g id="a_edge15_Node000011_Node000012"><a xlink:title=" ">
<path fill="none" stroke="#63b8ff" d="M512.44,-158.22C520.16,-159.66 528.5,-161.22 536.61,-162.73"/>
<polygon fill="#63b8ff" stroke="#63b8ff" points="535.87,-166.16 546.34,-164.55 537.16,-159.28 535.87,-166.16"/>
</a>
</g>
</g>
<!-- Node13 -->
<g id="Node000013" class="node">
<title>Node13</title>
<g id="a_Node000013"><a xlink:href="app_8c.html#a0f7003812eaf983535ff7979fc047a21" target="_top" xlink:title=" ">
<polygon fill="white" stroke="#666666" points="719.5,-201.38 651.75,-201.38 651.75,-180.62 719.5,-180.62 719.5,-201.38"/>
<text text-anchor="middle" x="685.62" y="-187.88" font-family="Helvetica,sans-Serif" font-size="10.00">w2c__f353</text>
</a>
</g>
</g>
<!-- Node12&#45;&gt;Node13 -->
<g id="edge16_Node000012_Node000013" class="edge">
<title>Node12&#45;&gt;Node13</title>
<g id="a_edge16_Node000012_Node000013"><a xlink:title=" ">
<path fill="none" stroke="#63b8ff" d="M616.19,-177.55C623.91,-179.07 632.25,-180.7 640.36,-182.3"/>
<polygon fill="#63b8ff" stroke="#63b8ff" points="639.61,-185.72 650.1,-184.21 640.96,-178.85 639.61,-185.72"/>
</a>
</g>
</g>
<!-- Node15 -->
<g id="Node000015" class="node">
<title>Node15</title>
<g id="a_Node000015"><a xlink:href="app_8c.html#ac9cc84763a9c1933e50eedd7a06c17e2" target="_top" xlink:title=" ">
<polygon fill="white" stroke="#666666" points="719.5,-162.38 651.75,-162.38 651.75,-141.62 719.5,-141.62 719.5,-162.38"/>
<text text-anchor="middle" x="685.62" y="-148.88" font-family="Helvetica,sans-Serif" font-size="10.00">w2c__f480</text>
</a>
</g>
</g>
<!-- Node12&#45;&gt;Node15 -->
<g id="edge20_Node000012_Node000015" class="edge">
<title>Node12&#45;&gt;Node15</title>
<g id="a_edge20_Node000012_Node000015"><a xlink:title=" ">
<path fill="none" stroke="#63b8ff" d="M616.19,-164.78C623.91,-163.34 632.25,-161.78 640.36,-160.27"/>
<polygon fill="#63b8ff" stroke="#63b8ff" points="640.91,-163.72 650.09,-158.45 639.62,-156.84 640.91,-163.72"/>
</a>
</g>
</g>
<!-- Node13&#45;&gt;Node5 -->
<g id="edge17_Node000013_Node000005" class="edge">
<title>Node13&#45;&gt;Node5</title>
<g id="a_edge17_Node000013_Node000005"><a xlink:title=" ">
<path fill="none" stroke="#63b8ff" d="M715.51,-201.79C725.82,-205.64 737.63,-210.05 748.69,-214.18"/>
<polygon fill="#63b8ff" stroke="#63b8ff" points="747.41,-217.44 758,-217.66 749.86,-210.88 747.41,-217.44"/>
</a>
</g>
</g>
<!-- Node14 -->
<g id="Node000014" class="node">
<title>Node14</title>
<g id="a_Node000014"><a xlink:href="app_8c.html#a4634342addbde677893ffcb45cf639dd" target="_top" xlink:title=" ">
<polygon fill="white" stroke="#666666" points="823.25,-200.38 755.5,-200.38 755.5,-179.62 823.25,-179.62 823.25,-200.38"/>
<text text-anchor="middle" x="789.38" y="-186.88" font-family="Helvetica,sans-Serif" font-size="10.00">w2c__f302</text>
</a>
</g>
</g>
<!-- Node13&#45;&gt;Node14 -->
<g id="edge18_Node000013_Node000014" class="edge">
<title>Node13&#45;&gt;Node14</title>
<g id="a_edge18_Node000013_Node000014"><a xlink:title=" ">
<path fill="none" stroke="#63b8ff" d="M719.94,-190.67C727.57,-190.6 735.81,-190.52 743.83,-190.44"/>
<polygon fill="#63b8ff" stroke="#63b8ff" points="743.85,-193.94 753.82,-190.34 743.78,-186.94 743.85,-193.94"/>
</a>
</g>
</g>
<!-- Node14&#45;&gt;Node4 -->
<g id="edge19_Node000014_Node000004" class="edge">
<title>Node14&#45;&gt;Node4</title>
<g id="a_edge19_Node000014_Node000004"><a xlink:title=" ">
<path fill="none" stroke="#63b8ff" d="M823.69,-183.78C831.41,-182.34 839.75,-180.78 847.86,-179.27"/>
<polygon fill="#63b8ff" stroke="#63b8ff" points="848.41,-182.72 857.59,-177.45 847.12,-175.84 848.41,-182.72"/>
</a>
</g>
</g>
<!-- Node15&#45;&gt;Node3 -->
<g id="edge21_Node000015_Node000003" class="edge">
<title>Node15&#45;&gt;Node3</title>
<g id="a_edge21_Node000015_Node000003"><a xlink:title=" ">
<path fill="none" stroke="#63b8ff" d="M715.51,-141.21C725.82,-137.36 737.63,-132.95 748.69,-128.82"/>
<polygon fill="#63b8ff" stroke="#63b8ff" points="749.86,-132.12 758,-125.34 747.41,-125.56 749.86,-132.12"/>
</a>
</g>
</g>
<!-- Node15&#45;&gt;Node4 -->
<g id="edge24_Node000015_Node000004" class="edge">
<title>Node15&#45;&gt;Node4</title>
<g id="a_edge24_Node000015_Node000004"><a xlink:title=" ">
<path fill="none" stroke="#63b8ff" d="M719.64,-155.05C754.29,-158.26 808.98,-163.31 847.46,-166.87"/>
<polygon fill="#63b8ff" stroke="#63b8ff" points="847.06,-170.35 857.34,-167.78 847.71,-163.38 847.06,-170.35"/>
</a>
</g>
</g>
<!-- Node15&#45;&gt;Node5 -->
<g id="edge22_Node000015_Node000005" class="edge">
<title>Node15&#45;&gt;Node5</title>
<g id="a_edge22_Node000015_Node000005"><a xlink:title=" ">
<path fill="none" stroke="#63b8ff" d="M706.29,-162.85C710.78,-165.63 715.42,-168.75 719.5,-172 737.44,-186.3 737.56,-194.7 755.5,-209 756.77,-210.01 758.1,-211.02 759.47,-212"/>
<polygon fill="#63b8ff" stroke="#63b8ff" points="757.18,-214.69 767.45,-217.31 761.06,-208.86 757.18,-214.69"/>
</a>
</g>
</g>
<!-- Node15&#45;&gt;Node14 -->
<g id="edge23_Node000015_Node000014" class="edge">
<title>Node15&#45;&gt;Node14</title>
<g id="a_edge23_Node000015_Node000014"><a xlink:title=" ">
<path fill="none" stroke="#63b8ff" d="M715.51,-162.79C725.82,-166.64 737.63,-171.05 748.69,-175.18"/>
<polygon fill="#63b8ff" stroke="#63b8ff" points="747.41,-178.44 758,-178.66 749.86,-171.88 747.41,-178.44"/>
</a>
</g>
</g>
<!-- Node15&#45;&gt;Node16 -->
<g id="edge25_Node000015_Node000016" class="edge">
<title>Node15&#45;&gt;Node16</title>
<g id="a_edge25_Node000015_Node000016"><a xlink:title=" ">
<path fill="none" stroke="#63b8ff" d="M696.02,-141.48C713.12,-122.32 749.57,-81.48 771.21,-57.23"/>
<polygon fill="#63b8ff" stroke="#63b8ff" points="773.66,-59.75 777.7,-49.96 768.43,-55.09 773.66,-59.75"/>
</a>
</g>
</g>
<!-- Node18 -->
<g id="Node000018" class="node">
<title>Node18</title>
<g id="a_Node000018"><a xlink:href="app_8c.html#a473677c504e5effa085c43e095d81177" target="_top" xlink:title=" ">
<polygon fill="white" stroke="#666666" points="408.25,-200.38 340.5,-200.38 340.5,-179.62 408.25,-179.62 408.25,-200.38"/>
<text text-anchor="middle" x="374.38" y="-186.88" font-family="Helvetica,sans-Serif" font-size="10.00">w2c__f228</text>
</a>
</g>
</g>
<!-- Node17&#45;&gt;Node18 -->
<g id="edge29_Node000017_Node000018" class="edge">
<title>Node17&#45;&gt;Node18</title>
<g id="a_edge29_Node000017_Node000018"><a xlink:title=" ">
<path fill="none" stroke="#63b8ff" d="M304.94,-190C312.57,-190 320.81,-190 328.83,-190"/>
<polygon fill="#63b8ff" stroke="#63b8ff" points="328.82,-193.5 338.82,-190 328.82,-186.5 328.82,-193.5"/>
</a>
</g>
</g>
<!-- Node19 -->
<g id="Node000019" class="node">
<title>Node19</title>
<g id="a_Node000019"><a xlink:href="app_8c.html#a16393b3c5cd680d67eabb5d0da38635c" target="_top" xlink:title=" ">
<polygon fill="white" stroke="#666666" points="512,-201.38 444.25,-201.38 444.25,-180.62 512,-180.62 512,-201.38"/>
<text text-anchor="middle" x="478.12" y="-187.88" font-family="Helvetica,sans-Serif" font-size="10.00">w2c__f551</text>
</a>
</g>
</g>
<!-- Node18&#45;&gt;Node19 -->
<g id="edge30_Node000018_Node000019" class="edge">
<title>Node18&#45;&gt;Node19</title>
<g id="a_edge30_Node000018_Node000019"><a xlink:title=" ">
<path fill="none" stroke="#63b8ff" d="M408.69,-190.33C416.32,-190.4 424.56,-190.48 432.58,-190.56"/>
<polygon fill="#63b8ff" stroke="#63b8ff" points="432.53,-194.06 442.57,-190.66 432.6,-187.06 432.53,-194.06"/>
</a>
</g>
</g>
<!-- Node19&#45;&gt;Node12 -->
<g id="edge31_Node000019_Node000012" class="edge">
<title>Node19&#45;&gt;Node12</title>
<g id="a_edge31_Node000019_Node000012"><a xlink:title=" ">
<path fill="none" stroke="#63b8ff" d="M512.44,-184.45C520.16,-182.93 528.5,-181.3 536.61,-179.7"/>
<polygon fill="#63b8ff" stroke="#63b8ff" points="537.21,-183.15 546.35,-177.79 535.86,-176.28 537.21,-183.15"/>
</a>
</g>
</g>
</g>
</svg>
