<?xml version="1.0" encoding="UTF-8" standalone="no"?>
<!DOCTYPE svg PUBLIC "-//W3C//DTD SVG 1.1//EN"
 "http://www.w3.org/Graphics/SVG/1.1/DTD/svg11.dtd">
<!-- Generated by graphviz version 12.2.1 (0)
 -->
<!-- Title: w2c__f291 Pages: 1 -->
<svg width="387pt" height="299pt"
 viewBox="0.00 0.00 387.00 298.75" xmlns="http://www.w3.org/2000/svg" xmlns:xlink="http://www.w3.org/1999/xlink">
<g id="graph0" class="graph" transform="scale(1 1) rotate(0) translate(4 294.75)">
<title>w2c__f291</title>
<!-- Node1 -->
<g id="Node000001" class="node">
<title>Node1</title>
<g id="a_Node000001"><a xlink:title=" ">
<polygon fill="#999999" stroke="#666666" points="67.75,-115.75 0,-115.75 0,-95 67.75,-95 67.75,-115.75"/>
<text text-anchor="middle" x="33.88" y="-102.25" font-family="Helvetica,sans-Serif" font-size="10.00">w2c__f291</text>
</a>
</g>
</g>
<!-- Node2 -->
<g id="Node000002" class="node">
<title>Node2</title>
<g id="a_Node000002"><a xlink:href="app_8c.html#a4c9d09242877b040eccebb807ffefe80" target="_top" xlink:title=" ">
<polygon fill="white" stroke="#666666" points="171.5,-173.75 103.75,-173.75 103.75,-153 171.5,-153 171.5,-173.75"/>
<text text-anchor="middle" x="137.62" y="-160.25" font-family="Helvetica,sans-Serif" font-size="10.00">w2c__f306</text>
</a>
</g>
</g>
<!-- Node1&#45;&gt;Node2 -->
<g id="edge1_Node000001_Node000002" class="edge">
<title>Node1&#45;&gt;Node2</title>
<g id="a_edge1_Node000001_Node000002"><a xlink:title=" ">
<path fill="none" stroke="#63b8ff" d="M53.54,-116.01C68.79,-124.71 90.6,-137.14 108.05,-147.09"/>
<polygon fill="#63b8ff" stroke="#63b8ff" points="106,-149.95 116.42,-151.86 109.47,-143.87 106,-149.95"/>
</a>
</g>
</g>
<!-- Node6 -->
<g id="Node000006" class="node">
<title>Node6</title>
<g id="a_Node000006"><a xlink:href="app_8c.html#a1e95e578fbe89a9807a67fd3ba78795f" target="_top" xlink:title=" ">
<polygon fill="white" stroke="#666666" points="275.25,-290.75 207.5,-290.75 207.5,-270 275.25,-270 275.25,-290.75"/>
<text text-anchor="middle" x="241.38" y="-277.25" font-family="Helvetica,sans-Serif" font-size="10.00">w2c__f382</text>
</a>
</g>
</g>
<!-- Node1&#45;&gt;Node6 -->
<g id="edge15_Node000001_Node000006" class="edge">
<title>Node1&#45;&gt;Node6</title>
<g id="a_edge15_Node000001_Node000006"><a xlink:title=" ">
<path fill="none" stroke="#63b8ff" d="M43.4,-116.19C55.85,-131.67 80.1,-160.66 103.75,-182.38 146.24,-221.4 159.74,-228.01 207.5,-260.38 209.1,-261.46 210.75,-262.55 212.43,-263.64"/>
<polygon fill="#63b8ff" stroke="#63b8ff" points="210.47,-266.54 220.8,-268.88 214.19,-260.61 210.47,-266.54"/>
</a>
</g>
</g>
<!-- Node11 -->
<g id="Node000011" class="node">
<title>Node11</title>
<g id="a_Node000011"><a xlink:href="app_8c.html#a0e0dad0ebc52e45eeff2e1b5d8389ea4" target="_top" xlink:title=" ">
<polygon fill="white" stroke="#666666" points="379,-95.75 311.25,-95.75 311.25,-75 379,-75 379,-95.75"/>
<text text-anchor="middle" x="345.12" y="-82.25" font-family="Helvetica,sans-Serif" font-size="10.00">w2c__f534</text>
</a>
</g>
</g>
<!-- Node1&#45;&gt;Node11 -->
<g id="edge16_Node000001_Node000011" class="edge">
<title>Node1&#45;&gt;Node11</title>
<g id="a_edge16_Node000001_Node000011"><a xlink:title=" ">
<path fill="none" stroke="#63b8ff" d="M68.18,-100.11C102.87,-94.91 158.83,-87.32 207.5,-84.38 237.56,-82.55 245.14,-84.16 275.25,-84.38 283.04,-84.43 291.33,-84.52 299.36,-84.63"/>
<polygon fill="#63b8ff" stroke="#63b8ff" points="299.28,-88.13 309.33,-84.77 299.38,-81.13 299.28,-88.13"/>
</a>
</g>
</g>
<!-- Node13 -->
<g id="Node000013" class="node">
<title>Node13</title>
<g id="a_Node000013"><a xlink:href="app_8c.html#a34d18545510c7604d64db5651af2a253" target="_top" xlink:title=" ">
<polygon fill="white" stroke="#666666" points="171.5,-20.75 103.75,-20.75 103.75,0 171.5,0 171.5,-20.75"/>
<text text-anchor="middle" x="137.62" y="-7.25" font-family="Helvetica,sans-Serif" font-size="10.00">w2c__f332</text>
</a>
</g>
</g>
<!-- Node1&#45;&gt;Node13 -->
<g id="edge14_Node000001_Node000013" class="edge">
<title>Node1&#45;&gt;Node13</title>
<g id="a_edge14_Node000001_Node000013"><a xlink:title=" ">
<path fill="none" stroke="#63b8ff" d="M44.17,-94.72C56.94,-80.33 80.94,-54.2 103.75,-34.38 106.25,-32.2 108.94,-30.02 111.66,-27.91"/>
<polygon fill="#63b8ff" stroke="#63b8ff" points="113.67,-30.77 119.61,-21.99 109.5,-25.15 113.67,-30.77"/>
</a>
</g>
</g>
<!-- Node3 -->
<g id="Node000003" class="node">
<title>Node3</title>
<g id="a_Node000003"><a xlink:href="app_8c.html#a03fa34d93d32a3ee40dfc2d840730111" target="_top" xlink:title=" ">
<polygon fill="white" stroke="#666666" points="275.25,-251.75 207.5,-251.75 207.5,-231 275.25,-231 275.25,-251.75"/>
<text text-anchor="middle" x="241.38" y="-238.25" font-family="Helvetica,sans-Serif" font-size="10.00">w2c__f262</text>
</a>
</g>
</g>
<!-- Node2&#45;&gt;Node3 -->
<g id="edge2_Node000002_Node000003" class="edge">
<title>Node2&#45;&gt;Node3</title>
<g id="a_edge2_Node000002_Node000003"><a xlink:title=" ">
<path fill="none" stroke="#63b8ff" d="M150.36,-174.22C163.72,-186.34 186.43,-206.23 207.5,-221.38 209.03,-222.47 210.62,-223.57 212.24,-224.66"/>
<polygon fill="#63b8ff" stroke="#63b8ff" points="210.03,-227.4 220.35,-229.83 213.8,-221.5 210.03,-227.4"/>
</a>
</g>
</g>
<!-- Node2&#45;&gt;Node6 -->
<g id="edge5_Node000002_Node000006" class="edge">
<title>Node2&#45;&gt;Node6</title>
<g id="a_edge5_Node000002_Node000006"><a xlink:title=" ">
<path fill="none" stroke="#63b8ff" d="M144.27,-174.06C154.75,-193.15 178.79,-233.63 207.5,-260.38 208.4,-261.22 209.35,-262.04 210.33,-262.85"/>
<polygon fill="#63b8ff" stroke="#63b8ff" points="208.24,-265.66 218.41,-268.65 212.32,-259.98 208.24,-265.66"/>
</a>
</g>
</g>
<!-- Node8 -->
<g id="Node000008" class="node">
<title>Node8</title>
<g id="a_Node000008"><a xlink:href="app_8c.html#af732b1ecf09ff688adde158c29714bcd" target="_top" xlink:title=" ">
<polygon fill="white" stroke="#666666" points="275.25,-173.75 207.5,-173.75 207.5,-153 275.25,-153 275.25,-173.75"/>
<text text-anchor="middle" x="241.38" y="-160.25" font-family="Helvetica,sans-Serif" font-size="10.00">w2c__f436</text>
</a>
</g>
</g>
<!-- Node2&#45;&gt;Node8 -->
<g id="edge7_Node000002_Node000008" class="edge">
<title>Node2&#45;&gt;Node8</title>
<g id="a_edge7_Node000002_Node000008"><a xlink:title=" ">
<path fill="none" stroke="#63b8ff" d="M171.94,-163.38C179.57,-163.38 187.81,-163.38 195.83,-163.38"/>
<polygon fill="#63b8ff" stroke="#63b8ff" points="195.82,-166.88 205.82,-163.38 195.82,-159.88 195.82,-166.88"/>
</a>
</g>
</g>
<!-- Node9 -->
<g id="Node000009" class="node">
<title>Node9</title>
<g id="a_Node000009"><a xlink:href="app_8c.html#a800df00ef236c6d6affc3c661b37e3ad" target="_top" xlink:title=" ">
<polygon fill="white" stroke="#666666" points="275.25,-212.75 207.5,-212.75 207.5,-192 275.25,-192 275.25,-212.75"/>
<text text-anchor="middle" x="241.38" y="-199.25" font-family="Helvetica,sans-Serif" font-size="10.00">w2c__f487</text>
</a>
</g>
</g>
<!-- Node2&#45;&gt;Node9 -->
<g id="edge8_Node000002_Node000009" class="edge">
<title>Node2&#45;&gt;Node9</title>
<g id="a_edge8_Node000002_Node000009"><a xlink:title=" ">
<path fill="none" stroke="#63b8ff" d="M166.97,-174.24C177.66,-178.34 190.02,-183.08 201.51,-187.48"/>
<polygon fill="#63b8ff" stroke="#63b8ff" points="200.18,-190.72 210.77,-191.03 202.69,-184.18 200.18,-190.72"/>
</a>
</g>
</g>
<!-- Node10 -->
<g id="Node000010" class="node">
<title>Node10</title>
<g id="a_Node000010"><a xlink:href="app_8c.html#a6ed4d3a30c137f002c0294253d206acb" target="_top" xlink:title=" ">
<polygon fill="white" stroke="#666666" points="275.25,-134.75 207.5,-134.75 207.5,-114 275.25,-114 275.25,-134.75"/>
<text text-anchor="middle" x="241.38" y="-121.25" font-family="Helvetica,sans-Serif" font-size="10.00">w2c__f504</text>
</a>
</g>
</g>
<!-- Node2&#45;&gt;Node10 -->
<g id="edge10_Node000002_Node000010" class="edge">
<title>Node2&#45;&gt;Node10</title>
<g id="a_edge10_Node000002_Node000010"><a xlink:title=" ">
<path fill="none" stroke="#63b8ff" d="M166.97,-152.51C177.66,-148.41 190.02,-143.67 201.51,-139.27"/>
<polygon fill="#63b8ff" stroke="#63b8ff" points="202.69,-142.57 210.77,-135.72 200.18,-136.03 202.69,-142.57"/>
</a>
</g>
</g>
<!-- Node2&#45;&gt;Node11 -->
<g id="edge13_Node000002_Node000011" class="edge">
<title>Node2&#45;&gt;Node11</title>
<g id="a_edge13_Node000002_Node000011"><a xlink:title=" ">
<path fill="none" stroke="#63b8ff" d="M147.66,-152.77C159.79,-139.32 182.69,-116.53 207.5,-105.38 236.48,-92.34 272.08,-87.44 299.68,-85.75"/>
<polygon fill="#63b8ff" stroke="#63b8ff" points="299.64,-89.26 309.46,-85.28 299.3,-82.26 299.64,-89.26"/>
</a>
</g>
</g>
<!-- Node4 -->
<g id="Node000004" class="node">
<title>Node4</title>
<g id="a_Node000004"><a xlink:href="app_8c.html#a16207b5f7a97b0ecfddd231452c5aa7e" target="_top" xlink:title=" ">
<polygon fill="white" stroke="#666666" points="379,-251.75 311.25,-251.75 311.25,-231 379,-231 379,-251.75"/>
<text text-anchor="middle" x="345.12" y="-238.25" font-family="Helvetica,sans-Serif" font-size="10.00">w2c__f263</text>
</a>
</g>
</g>
<!-- Node3&#45;&gt;Node4 -->
<g id="edge3_Node000003_Node000004" class="edge">
<title>Node3&#45;&gt;Node4</title>
<g id="a_edge3_Node000003_Node000004"><a xlink:title=" ">
<path fill="none" stroke="#63b8ff" d="M275.69,-241.38C283.32,-241.38 291.56,-241.38 299.58,-241.38"/>
<polygon fill="#63b8ff" stroke="#63b8ff" points="299.57,-244.88 309.57,-241.38 299.57,-237.88 299.57,-244.88"/>
</a>
</g>
</g>
<!-- Node5 -->
<g id="Node000005" class="node">
<title>Node5</title>
<g id="a_Node000005"><a xlink:href="app_8c.html#a71bcbce7faf780cd081af3fa82d6da97" target="_top" xlink:title=" ">
<polygon fill="white" stroke="#666666" points="379,-212.75 311.25,-212.75 311.25,-192 379,-192 379,-212.75"/>
<text text-anchor="middle" x="345.12" y="-199.25" font-family="Helvetica,sans-Serif" font-size="10.00">w2c__f437</text>
</a>
</g>
</g>
<!-- Node3&#45;&gt;Node5 -->
<g id="edge4_Node000003_Node000005" class="edge">
<title>Node3&#45;&gt;Node5</title>
<g id="a_edge4_Node000003_Node000005"><a xlink:title=" ">
<path fill="none" stroke="#63b8ff" d="M270.72,-230.51C281.41,-226.41 293.77,-221.67 305.26,-217.27"/>
<polygon fill="#63b8ff" stroke="#63b8ff" points="306.44,-220.57 314.52,-213.72 303.93,-214.03 306.44,-220.57"/>
</a>
</g>
</g>
<!-- Node7 -->
<g id="Node000007" class="node">
<title>Node7</title>
<g id="a_Node000007"><a xlink:href="app_8c.html#a5d082dff6c4c25de25da9f4dc538c097" target="_top" xlink:title=" ">
<polygon fill="white" stroke="#666666" points="379,-290.75 311.25,-290.75 311.25,-270 379,-270 379,-290.75"/>
<text text-anchor="middle" x="345.12" y="-277.25" font-family="Helvetica,sans-Serif" font-size="10.00">w2c__f265</text>
</a>
</g>
</g>
<!-- Node6&#45;&gt;Node7 -->
<g id="edge6_Node000006_Node000007" class="edge">
<title>Node6&#45;&gt;Node7</title>
<g id="a_edge6_Node000006_Node000007"><a xlink:title=" ">
<path fill="none" stroke="#63b8ff" d="M275.69,-280.38C283.32,-280.38 291.56,-280.38 299.58,-280.38"/>
<polygon fill="#63b8ff" stroke="#63b8ff" points="299.57,-283.88 309.57,-280.38 299.57,-276.88 299.57,-283.88"/>
</a>
</g>
</g>
<!-- Node9&#45;&gt;Node5 -->
<g id="edge9_Node000009_Node000005" class="edge">
<title>Node9&#45;&gt;Node5</title>
<g id="a_edge9_Node000009_Node000005"><a xlink:title=" ">
<path fill="none" stroke="#63b8ff" d="M275.69,-202.38C283.32,-202.38 291.56,-202.38 299.58,-202.38"/>
<polygon fill="#63b8ff" stroke="#63b8ff" points="299.57,-205.88 309.57,-202.38 299.57,-198.88 299.57,-205.88"/>
</a>
</g>
</g>
<!-- Node10&#45;&gt;Node11 -->
<g id="edge11_Node000010_Node000011" class="edge">
<title>Node10&#45;&gt;Node11</title>
<g id="a_edge11_Node000010_Node000011"><a xlink:title=" ">
<path fill="none" stroke="#63b8ff" d="M270.72,-113.51C281.41,-109.41 293.77,-104.67 305.26,-100.27"/>
<polygon fill="#63b8ff" stroke="#63b8ff" points="306.44,-103.57 314.52,-96.72 303.93,-97.03 306.44,-103.57"/>
</a>
</g>
</g>
<!-- Node12 -->
<g id="Node000012" class="node">
<title>Node12</title>
<g id="a_Node000012"><a xlink:href="app_8c.html#a1b33810b824b3b37999b55db2c1fb45d" target="_top" xlink:title=" ">
<polygon fill="white" stroke="#666666" points="379,-134.75 311.25,-134.75 311.25,-114 379,-114 379,-134.75"/>
<text text-anchor="middle" x="345.12" y="-121.25" font-family="Helvetica,sans-Serif" font-size="10.00">w2c__f555</text>
</a>
</g>
</g>
<!-- Node10&#45;&gt;Node12 -->
<g id="edge12_Node000010_Node000012" class="edge">
<title>Node10&#45;&gt;Node12</title>
<g id="a_edge12_Node000010_Node000012"><a xlink:title=" ">
<path fill="none" stroke="#63b8ff" d="M275.69,-124.38C283.32,-124.38 291.56,-124.38 299.58,-124.38"/>
<polygon fill="#63b8ff" stroke="#63b8ff" points="299.57,-127.88 309.57,-124.38 299.57,-120.88 299.57,-127.88"/>
</a>
</g>
</g>
</g>
</svg>
