<?xml version="1.0" encoding="UTF-8" standalone="no"?>
<!DOCTYPE svg PUBLIC "-//W3C//DTD SVG 1.1//EN"
 "http://www.w3.org/Graphics/SVG/1.1/DTD/svg11.dtd">
<!-- Generated by graphviz version 12.2.1 (0)
 -->
<!-- Title: w2c_0_92 Pages: 1 -->
<svg width="945pt" height="994pt"
 viewBox="0.00 0.00 944.50 993.76" xmlns="http://www.w3.org/2000/svg" xmlns:xlink="http://www.w3.org/1999/xlink">
<g id="graph0" class="graph" transform="scale(1 1) rotate(0) translate(4 989.76)">
<title>w2c_0_92</title>
<!-- Node1 -->
<g id="Node000001" class="node">
<title>Node1</title>
<g id="a_Node000001"><a xlink:title=" ">
<polygon fill="#999999" stroke="#666666" points="936.5,-421.24 872.5,-421.24 872.5,-400.49 936.5,-400.49 936.5,-421.24"/>
<text text-anchor="middle" x="904.5" y="-407.74" font-family="Helvetica,sans-Serif" font-size="10.00">w2c_0_92</text>
</a>
</g>
</g>
<!-- Node2 -->
<g id="Node000002" class="node">
<title>Node2</title>
<g id="a_Node000002"><a xlink:href="app_8c.html#a19209c6f5685e2e28a1b671ece901600" target="_top" xlink:title=" ">
<polygon fill="white" stroke="#666666" points="836.5,-421.24 768.75,-421.24 768.75,-400.49 836.5,-400.49 836.5,-421.24"/>
<text text-anchor="middle" x="802.62" y="-407.74" font-family="Helvetica,sans-Serif" font-size="10.00">w2c__f335</text>
</a>
</g>
</g>
<!-- Node1&#45;&gt;Node2 -->
<g id="edge1_Node000001_Node000002" class="edge">
<title>Node1&#45;&gt;Node2</title>
<g id="a_edge1_Node000001_Node000002"><a xlink:title=" ">
<path fill="none" stroke="#63b8ff" d="M860.76,-410.86C852.78,-410.86 844.56,-410.86 836.91,-410.86"/>
<polygon fill="#63b8ff" stroke="#63b8ff" points="860.66,-414.36 870.66,-410.86 860.66,-407.36 860.66,-414.36"/>
</a>
</g>
</g>
<!-- Node3 -->
<g id="Node000003" class="node">
<title>Node3</title>
<g id="a_Node000003"><a xlink:href="app_8c.html#a5afd0bdcabe1312572f585b64e00c911" target="_top" xlink:title=" ">
<polygon fill="white" stroke="#666666" points="718.12,-421.24 650.38,-421.24 650.38,-400.49 718.12,-400.49 718.12,-421.24"/>
<text text-anchor="middle" x="684.25" y="-407.74" font-family="Helvetica,sans-Serif" font-size="10.00">w2c__f256</text>
</a>
</g>
</g>
<!-- Node2&#45;&gt;Node3 -->
<g id="edge2_Node000002_Node000003" class="edge">
<title>Node2&#45;&gt;Node3</title>
<g id="a_edge2_Node000002_Node000003"><a xlink:title=" ">
<path fill="none" stroke="#63b8ff" d="M756.91,-410.86C744.18,-410.86 730.53,-410.86 718.6,-410.86"/>
<polygon fill="#63b8ff" stroke="#63b8ff" points="756.76,-414.36 766.76,-410.86 756.76,-407.36 756.76,-414.36"/>
</a>
</g>
</g>
<!-- Node21 -->
<g id="Node000021" class="node">
<title>Node21</title>
<g id="a_Node000021"><a xlink:href="app_8c.html#a4672aaf978b08eef7ca3d8390381c886" target="_top" xlink:title=" ">
<polygon fill="white" stroke="#666666" points="585.12,-880.24 517.38,-880.24 517.38,-859.49 585.12,-859.49 585.12,-880.24"/>
<text text-anchor="middle" x="551.25" y="-866.74" font-family="Helvetica,sans-Serif" font-size="10.00">w2c__f310</text>
</a>
</g>
</g>
<!-- Node2&#45;&gt;Node21 -->
<g id="edge30_Node000002_Node000021" class="edge">
<title>Node2&#45;&gt;Node21</title>
<g id="a_edge30_Node000002_Node000021"><a xlink:title=" ">
<path fill="none" stroke="#63b8ff" d="M797.47,-432.67C788.99,-474.64 767.46,-568.92 732.75,-641.86 687.67,-736.59 673.61,-762.36 599.75,-836.86 591.27,-845.42 580.3,-853.2 571.04,-859.06"/>
<polygon fill="#63b8ff" stroke="#63b8ff" points="800.9,-433.38 799.4,-422.9 794.03,-432.03 800.9,-433.38"/>
</a>
</g>
</g>
<!-- Node24 -->
<g id="Node000024" class="node">
<title>Node24</title>
<g id="a_Node000024"><a xlink:href="app_8c.html#a9faf27b3cd82c8485f63b0a67bc1865f" target="_top" xlink:title=" ">
<polygon fill="white" stroke="#666666" points="718.12,-268.24 650.38,-268.24 650.38,-247.49 718.12,-247.49 718.12,-268.24"/>
<text text-anchor="middle" x="684.25" y="-254.74" font-family="Helvetica,sans-Serif" font-size="10.00">w2c__f344</text>
</a>
</g>
</g>
<!-- Node2&#45;&gt;Node24 -->
<g id="edge37_Node000002_Node000024" class="edge">
<title>Node2&#45;&gt;Node24</title>
<g id="a_edge37_Node000002_Node000024"><a xlink:title=" ">
<path fill="none" stroke="#63b8ff" d="M786.74,-391.3C761.86,-358.58 712.63,-293.86 693.3,-268.45"/>
<polygon fill="#63b8ff" stroke="#63b8ff" points="783.87,-393.3 792.71,-399.14 789.44,-389.06 783.87,-393.3"/>
</a>
</g>
</g>
<!-- Node26 -->
<g id="Node000026" class="node">
<title>Node26</title>
<g id="a_Node000026"><a xlink:href="app_8c.html#aaf013b2b29372f4a479047d0c464d3ba" target="_top" xlink:title=" ">
<polygon fill="white" stroke="#666666" points="718.12,-633.24 650.38,-633.24 650.38,-612.49 718.12,-612.49 718.12,-633.24"/>
<text text-anchor="middle" x="684.25" y="-619.74" font-family="Helvetica,sans-Serif" font-size="10.00">w2c__f401</text>
</a>
</g>
</g>
<!-- Node2&#45;&gt;Node26 -->
<g id="edge45_Node000002_Node000026" class="edge">
<title>Node2&#45;&gt;Node26</title>
<g id="a_edge45_Node000002_Node000026"><a xlink:title=" ">
<path fill="none" stroke="#63b8ff" d="M790.24,-431.6C765.91,-475.93 709.56,-578.58 691.17,-612.08"/>
<polygon fill="#63b8ff" stroke="#63b8ff" points="793.22,-433.44 794.97,-422.99 787.09,-430.07 793.22,-433.44"/>
</a>
</g>
</g>
<!-- Node28 -->
<g id="Node000028" class="node">
<title>Node28</title>
<g id="a_Node000028"><a xlink:href="app_8c.html#af52a607970b1273d1c0470622cc7e16b" target="_top" xlink:title=" ">
<polygon fill="white" stroke="#666666" points="732.75,-229.24 635.75,-229.24 635.75,-208.49 732.75,-208.49 732.75,-229.24"/>
<text text-anchor="middle" x="684.25" y="-215.74" font-family="Helvetica,sans-Serif" font-size="10.00">wrap_w2c__f335</text>
</a>
</g>
</g>
<!-- Node2&#45;&gt;Node28 -->
<g id="edge59_Node000002_Node000028" class="edge">
<title>Node2&#45;&gt;Node28</title>
<g id="a_edge59_Node000002_Node000028"><a xlink:title=" ">
<path fill="none" stroke="#63b8ff" d="M798.4,-388.92C792.05,-353.05 774.69,-281.55 732.75,-238.86 729.11,-235.16 724.69,-232.11 720.01,-229.6"/>
<polygon fill="#63b8ff" stroke="#63b8ff" points="794.91,-389.22 799.97,-398.53 801.82,-388.1 794.91,-389.22"/>
</a>
</g>
</g>
<!-- Node4 -->
<g id="Node000004" class="node">
<title>Node4</title>
<g id="a_Node000004"><a xlink:href="app_8c.html#aeb12ecc9385837eed1de8b75424f1317" target="_top" xlink:title=" ">
<polygon fill="white" stroke="#666666" points="585.12,-614.24 517.38,-614.24 517.38,-593.49 585.12,-593.49 585.12,-614.24"/>
<text text-anchor="middle" x="551.25" y="-600.74" font-family="Helvetica,sans-Serif" font-size="10.00">w2c__f205</text>
</a>
</g>
</g>
<!-- Node3&#45;&gt;Node4 -->
<g id="edge3_Node000003_Node000004" class="edge">
<title>Node3&#45;&gt;Node4</title>
<g id="a_edge3_Node000003_Node000004"><a xlink:title=" ">
<path fill="none" stroke="#63b8ff" d="M678.17,-432.45C668.67,-468.43 644.95,-540.92 599.75,-583.86 595.6,-587.81 590.55,-591.03 585.32,-593.64"/>
<polygon fill="#63b8ff" stroke="#63b8ff" points="681.55,-433.38 680.58,-422.83 674.76,-431.68 681.55,-433.38"/>
</a>
</g>
</g>
<!-- Node5 -->
<g id="Node000005" class="node">
<title>Node5</title>
<g id="a_Node000005"><a xlink:href="app_8c.html#a6c30f2996216fe44cdda84ff266f8b19" target="_top" xlink:title=" ">
<polygon fill="white" stroke="#666666" points="319.12,-499.24 251.38,-499.24 251.38,-478.49 319.12,-478.49 319.12,-499.24"/>
<text text-anchor="middle" x="285.25" y="-485.74" font-family="Helvetica,sans-Serif" font-size="10.00">w2c__f362</text>
</a>
</g>
</g>
<!-- Node3&#45;&gt;Node5 -->
<g id="edge21_Node000003_Node000005" class="edge">
<title>Node3&#45;&gt;Node5</title>
<g id="a_edge21_Node000003_Node000005"><a xlink:title=" ">
<path fill="none" stroke="#63b8ff" d="M649.84,-395.78C611.39,-380.9 547.76,-364.04 502.75,-391.86 472.32,-410.67 495.82,-443 466.75,-463.86 423.31,-495.03 358.56,-495.94 319.57,-492.96"/>
<polygon fill="#63b8ff" stroke="#63b8ff" points="648.46,-399 659.05,-399.52 651.1,-392.52 648.46,-399"/>
</a>
</g>
</g>
<!-- Node6 -->
<g id="Node000006" class="node">
<title>Node6</title>
<g id="a_Node000006"><a xlink:href="app_8c.html#a86ae468e235684021eadfdacd5cb9dba" target="_top" xlink:title=" ">
<polygon fill="white" stroke="#666666" points="200.75,-537.24 133,-537.24 133,-516.49 200.75,-516.49 200.75,-537.24"/>
<text text-anchor="middle" x="166.88" y="-523.74" font-family="Helvetica,sans-Serif" font-size="10.00">w2c__f452</text>
</a>
</g>
</g>
<!-- Node3&#45;&gt;Node6 -->
<g id="edge24_Node000003_Node000006" class="edge">
<title>Node3&#45;&gt;Node6</title>
<g id="a_edge24_Node000003_Node000006"><a xlink:title=" ">
<path fill="none" stroke="#63b8ff" d="M662.98,-428.7C646.92,-441.85 623.33,-459.09 599.75,-468.86 460.15,-526.71 275.46,-529.59 201.04,-528.07"/>
<polygon fill="#63b8ff" stroke="#63b8ff" points="664.95,-431.61 670.35,-422.49 660.44,-426.25 664.95,-431.61"/>
</a>
</g>
</g>
<!-- Node9 -->
<g id="Node000009" class="node">
<title>Node9</title>
<g id="a_Node000009"><a xlink:href="app_8c.html#a7dc7d70793bae217b64eab580fce99cb" target="_top" xlink:title=" ">
<polygon fill="white" stroke="#666666" points="200.75,-290.24 133,-290.24 133,-269.49 200.75,-269.49 200.75,-290.24"/>
<text text-anchor="middle" x="166.88" y="-276.74" font-family="Helvetica,sans-Serif" font-size="10.00">w2c__f215</text>
</a>
</g>
</g>
<!-- Node3&#45;&gt;Node9 -->
<g id="edge8_Node000003_Node000009" class="edge">
<title>Node3&#45;&gt;Node9</title>
<g id="a_edge8_Node000003_Node000009"><a xlink:title=" ">
<path fill="none" stroke="#63b8ff" d="M676.28,-389.52C661.74,-346.39 627.25,-251.33 599.75,-231.86 467.66,-138.38 253.72,-235.25 187.83,-269.12"/>
<polygon fill="#63b8ff" stroke="#63b8ff" points="672.87,-390.37 679.35,-398.76 679.52,-388.17 672.87,-390.37"/>
</a>
</g>
</g>
<!-- Node11 -->
<g id="Node000011" class="node">
<title>Node11</title>
<g id="a_Node000011"><a xlink:href="app_8c.html#ad554c83ea8f2f1b6e67921e2fd7b7ffc" target="_top" xlink:title=" ">
<polygon fill="white" stroke="#666666" points="585.12,-536.24 517.38,-536.24 517.38,-515.49 585.12,-515.49 585.12,-536.24"/>
<text text-anchor="middle" x="551.25" y="-522.74" font-family="Helvetica,sans-Serif" font-size="10.00">w2c__f285</text>
</a>
</g>
</g>
<!-- Node3&#45;&gt;Node11 -->
<g id="edge10_Node000003_Node000011" class="edge">
<title>Node3&#45;&gt;Node11</title>
<g id="a_edge10_Node000003_Node000011"><a xlink:title=" ">
<path fill="none" stroke="#63b8ff" d="M668.61,-430.61C653.15,-450.47 627.24,-481.04 599.75,-501.86 593.12,-506.88 585.28,-511.34 577.9,-515.01"/>
<polygon fill="#63b8ff" stroke="#63b8ff" points="671.31,-432.84 674.59,-422.77 665.74,-428.6 671.31,-432.84"/>
</a>
</g>
</g>
<!-- Node12 -->
<g id="Node000012" class="node">
<title>Node12</title>
<g id="a_Node000012"><a xlink:href="app_8c.html#a512669319fec7c2cbf61fd668bc650c9" target="_top" xlink:title=" ">
<polygon fill="white" stroke="#666666" points="319.12,-290.24 251.38,-290.24 251.38,-269.49 319.12,-269.49 319.12,-290.24"/>
<text text-anchor="middle" x="285.25" y="-276.74" font-family="Helvetica,sans-Serif" font-size="10.00">w2c__f343</text>
</a>
</g>
</g>
<!-- Node3&#45;&gt;Node12 -->
<g id="edge20_Node000003_Node000012" class="edge">
<title>Node3&#45;&gt;Node12</title>
<g id="a_edge20_Node000003_Node000012"><a xlink:title=" ">
<path fill="none" stroke="#63b8ff" d="M675.38,-389.79C663.4,-360.46 637.86,-307.47 599.75,-276.86 550.87,-237.61 528.54,-240.46 466.75,-229.86 424.26,-222.57 411.3,-218.37 369.75,-229.86 342.23,-237.47 314.65,-256.82 299.09,-269.1"/>
<polygon fill="#63b8ff" stroke="#63b8ff" points="671.97,-390.68 678.88,-398.71 678.48,-388.12 671.97,-390.68"/>
</a>
</g>
</g>
<!-- Node13 -->
<g id="Node000013" class="node">
<title>Node13</title>
<g id="a_Node000013"><a xlink:href="app_8c.html#a172dc6e51e60b69c5871fbabfa215af9" target="_top" xlink:title=" ">
<polygon fill="white" stroke="#666666" points="585.12,-575.24 517.38,-575.24 517.38,-554.49 585.12,-554.49 585.12,-575.24"/>
<text text-anchor="middle" x="551.25" y="-561.74" font-family="Helvetica,sans-Serif" font-size="10.00">w2c__f288</text>
</a>
</g>
</g>
<!-- Node3&#45;&gt;Node13 -->
<g id="edge13_Node000003_Node000013" class="edge">
<title>Node3&#45;&gt;Node13</title>
<g id="a_edge13_Node000003_Node000013"><a xlink:title=" ">
<path fill="none" stroke="#63b8ff" d="M674.96,-432.01C662.61,-461.06 636.78,-513.29 599.75,-544.86 595.53,-548.46 590.57,-551.49 585.47,-554.01"/>
<polygon fill="#63b8ff" stroke="#63b8ff" points="678.17,-433.42 678.72,-422.84 671.69,-430.76 678.17,-433.42"/>
</a>
</g>
</g>
<!-- Node14 -->
<g id="Node000014" class="node">
<title>Node14</title>
<g id="a_Node000014"><a xlink:href="app_8c.html#ab437815594eb4e8c7676d529f946de25" target="_top" xlink:title=" ">
<polygon fill="white" stroke="#666666" points="585.12,-345.24 517.38,-345.24 517.38,-324.49 585.12,-324.49 585.12,-345.24"/>
<text text-anchor="middle" x="551.25" y="-331.74" font-family="Helvetica,sans-Serif" font-size="10.00">w2c__f328</text>
</a>
</g>
</g>
<!-- Node3&#45;&gt;Node14 -->
<g id="edge15_Node000003_Node000014" class="edge">
<title>Node3&#45;&gt;Node14</title>
<g id="a_edge15_Node000003_Node000014"><a xlink:title=" ">
<path fill="none" stroke="#63b8ff" d="M657.47,-393.98C641.15,-383.5 619.47,-369.96 599.75,-358.86 591.7,-354.33 582.69,-349.68 574.7,-345.69"/>
<polygon fill="#63b8ff" stroke="#63b8ff" points="655.31,-396.75 665.61,-399.24 659.11,-390.87 655.31,-396.75"/>
</a>
</g>
</g>
<!-- Node17 -->
<g id="Node000017" class="node">
<title>Node17</title>
<g id="a_Node000017"><a xlink:href="app_8c.html#a05fd87b7f41136119e8d7698caac1f5c" target="_top" xlink:title=" ">
<polygon fill="white" stroke="#666666" points="585.12,-460.24 517.38,-460.24 517.38,-439.49 585.12,-439.49 585.12,-460.24"/>
<text text-anchor="middle" x="551.25" y="-446.74" font-family="Helvetica,sans-Serif" font-size="10.00">w2c__f423</text>
</a>
</g>
</g>
<!-- Node3&#45;&gt;Node17 -->
<g id="edge22_Node000003_Node000017" class="edge">
<title>Node3&#45;&gt;Node17</title>
<g id="a_edge22_Node000003_Node000017"><a xlink:title=" ">
<path fill="none" stroke="#63b8ff" d="M639.29,-423.95C621.65,-429.2 601.66,-435.15 585.3,-440.02"/>
<polygon fill="#63b8ff" stroke="#63b8ff" points="640.16,-427.34 648.74,-421.13 638.16,-420.63 640.16,-427.34"/>
</a>
</g>
</g>
<!-- Node18 -->
<g id="Node000018" class="node">
<title>Node18</title>
<g id="a_Node000018"><a xlink:href="app_8c.html#ac550aaba82d57d6f9e0af73ab1dd2c1e" target="_top" xlink:title=" ">
<polygon fill="white" stroke="#666666" points="585.12,-306.24 517.38,-306.24 517.38,-285.49 585.12,-285.49 585.12,-306.24"/>
<text text-anchor="middle" x="551.25" y="-292.74" font-family="Helvetica,sans-Serif" font-size="10.00">w2c__f575</text>
</a>
</g>
</g>
<!-- Node3&#45;&gt;Node18 -->
<g id="edge25_Node000003_Node000018" class="edge">
<title>Node3&#45;&gt;Node18</title>
<g id="a_edge25_Node000003_Node000018"><a xlink:title=" ">
<path fill="none" stroke="#63b8ff" d="M669.77,-390.75C654.79,-369.69 628.84,-336.81 599.75,-315.86 594.81,-312.31 589.15,-309.23 583.49,-306.63"/>
<polygon fill="#63b8ff" stroke="#63b8ff" points="666.78,-392.57 675.35,-398.79 672.53,-388.58 666.78,-392.57"/>
</a>
</g>
</g>
<!-- Node20 -->
<g id="Node000020" class="node">
<title>Node20</title>
<g id="a_Node000020"><a xlink:href="app_8c.html#a616b28808639236198360c34ca17e115" target="_top" xlink:title=" ">
<polygon fill="white" stroke="#666666" points="599.75,-421.24 502.75,-421.24 502.75,-400.49 599.75,-400.49 599.75,-421.24"/>
<text text-anchor="middle" x="551.25" y="-407.74" font-family="Helvetica,sans-Serif" font-size="10.00">wrap_w2c__f256</text>
</a>
</g>
</g>
<!-- Node3&#45;&gt;Node20 -->
<g id="edge29_Node000003_Node000020" class="edge">
<title>Node3&#45;&gt;Node20</title>
<g id="a_edge29_Node000003_Node000020"><a xlink:title=" ">
<path fill="none" stroke="#63b8ff" d="M638.7,-410.86C626.28,-410.86 612.75,-410.86 600.15,-410.86"/>
<polygon fill="#63b8ff" stroke="#63b8ff" points="638.68,-414.36 648.68,-410.86 638.68,-407.36 638.68,-414.36"/>
</a>
</g>
</g>
<!-- Node4&#45;&gt;Node5 -->
<g id="edge4_Node000004_Node000005" class="edge">
<title>Node4&#45;&gt;Node5</title>
<g id="a_edge4_Node000004_Node000005"><a xlink:title=" ">
<path fill="none" stroke="#63b8ff" d="M515.1,-618.66C476.87,-632.31 415.15,-646.97 369.75,-621.86 320.84,-594.82 296.72,-525.8 289.05,-499.37"/>
<polygon fill="#63b8ff" stroke="#63b8ff" points="516.14,-622.01 524.28,-615.22 513.69,-615.46 516.14,-622.01"/>
</a>
</g>
</g>
<!-- Node8 -->
<g id="Node000008" class="node">
<title>Node8</title>
<g id="a_Node000008"><a xlink:href="app_8c.html#a9832170d75416f4f84ba0d11565ef970" target="_top" xlink:title=" ">
<polygon fill="white" stroke="#666666" points="466.75,-613.24 369.75,-613.24 369.75,-592.49 466.75,-592.49 466.75,-613.24"/>
<text text-anchor="middle" x="418.25" y="-599.74" font-family="Helvetica,sans-Serif" font-size="10.00">wrap_w2c__f205</text>
</a>
</g>
</g>
<!-- Node4&#45;&gt;Node8 -->
<g id="edge7_Node000004_Node000008" class="edge">
<title>Node4&#45;&gt;Node8</title>
<g id="a_edge7_Node000004_Node000008"><a xlink:title=" ">
<path fill="none" stroke="#63b8ff" d="M505.7,-603.52C493.28,-603.43 479.75,-603.32 467.15,-603.23"/>
<polygon fill="#63b8ff" stroke="#63b8ff" points="505.65,-607.02 515.68,-603.6 505.71,-600.02 505.65,-607.02"/>
</a>
</g>
</g>
<!-- Node5&#45;&gt;Node6 -->
<g id="edge5_Node000005_Node000006" class="edge">
<title>Node5&#45;&gt;Node6</title>
<g id="a_edge5_Node000005_Node000006"><a xlink:title=" ">
<path fill="none" stroke="#63b8ff" d="M240.52,-503.14C227.43,-507.42 213.29,-512.03 200.99,-516.05"/>
<polygon fill="#63b8ff" stroke="#63b8ff" points="241.35,-506.55 249.77,-500.12 239.18,-499.9 241.35,-506.55"/>
</a>
</g>
</g>
<!-- Node7 -->
<g id="Node000007" class="node">
<title>Node7</title>
<g id="a_Node000007"><a xlink:href="app_8c.html#a57ca4f801147f9325a0ea7cc2d7192c5" target="_top" xlink:title=" ">
<polygon fill="white" stroke="#666666" points="97,-537.24 0,-537.24 0,-516.49 97,-516.49 97,-537.24"/>
<text text-anchor="middle" x="48.5" y="-523.74" font-family="Helvetica,sans-Serif" font-size="10.00">wrap_w2c__f452</text>
</a>
</g>
</g>
<!-- Node6&#45;&gt;Node7 -->
<g id="edge6_Node000006_Node000007" class="edge">
<title>Node6&#45;&gt;Node7</title>
<g id="a_edge6_Node000006_Node000007"><a xlink:title=" ">
<path fill="none" stroke="#63b8ff" d="M121.28,-526.86C113.39,-526.86 105.14,-526.86 97.16,-526.86"/>
<polygon fill="#63b8ff" stroke="#63b8ff" points="121.01,-530.36 131.01,-526.86 121.01,-523.36 121.01,-530.36"/>
</a>
</g>
</g>
<!-- Node10 -->
<g id="Node000010" class="node">
<title>Node10</title>
<g id="a_Node000010"><a xlink:href="app_8c.html#a7f65ba02075f2865f478747946b07c94" target="_top" xlink:title=" ">
<polygon fill="white" stroke="#666666" points="97,-290.24 0,-290.24 0,-269.49 97,-269.49 97,-290.24"/>
<text text-anchor="middle" x="48.5" y="-276.74" font-family="Helvetica,sans-Serif" font-size="10.00">wrap_w2c__f215</text>
</a>
</g>
</g>
<!-- Node9&#45;&gt;Node10 -->
<g id="edge9_Node000009_Node000010" class="edge">
<title>Node9&#45;&gt;Node10</title>
<g id="a_edge9_Node000009_Node000010"><a xlink:title=" ">
<path fill="none" stroke="#63b8ff" d="M121.28,-279.86C113.39,-279.86 105.14,-279.86 97.16,-279.86"/>
<polygon fill="#63b8ff" stroke="#63b8ff" points="121.01,-283.36 131.01,-279.86 121.01,-276.36 121.01,-283.36"/>
</a>
</g>
</g>
<!-- Node11&#45;&gt;Node12 -->
<g id="edge11_Node000011_Node000012" class="edge">
<title>Node11&#45;&gt;Node12</title>
<g id="a_edge11_Node000011_Node000012"><a xlink:title=" ">
<path fill="none" stroke="#63b8ff" d="M531.09,-506.74C521.49,-496.28 510.32,-482.66 502.75,-468.86 477.41,-422.64 502.62,-394.48 466.75,-355.86 435.13,-321.82 412.55,-334.94 369.75,-316.86 349.45,-308.29 326.58,-298.11 309.91,-290.61"/>
<polygon fill="#63b8ff" stroke="#63b8ff" points="528.52,-509.12 537.96,-513.95 533.59,-504.29 528.52,-509.12"/>
</a>
</g>
</g>
<!-- Node12&#45;&gt;Node9 -->
<g id="edge12_Node000012_Node000009" class="edge">
<title>Node12&#45;&gt;Node9</title>
<g id="a_edge12_Node000012_Node000009"><a xlink:title=" ">
<path fill="none" stroke="#63b8ff" d="M239.54,-279.86C226.8,-279.86 213.16,-279.86 201.23,-279.86"/>
<polygon fill="#63b8ff" stroke="#63b8ff" points="239.39,-283.36 249.39,-279.86 239.39,-276.36 239.39,-283.36"/>
</a>
</g>
</g>
<!-- Node13&#45;&gt;Node5 -->
<g id="edge14_Node000013_Node000005" class="edge">
<title>Node13&#45;&gt;Node5</title>
<g id="a_edge14_Node000013_Node000005"><a xlink:title=" ">
<path fill="none" stroke="#63b8ff" d="M506.08,-552.15C453.46,-537 366.75,-512.04 319.49,-498.43"/>
<polygon fill="#63b8ff" stroke="#63b8ff" points="505.05,-555.49 515.63,-554.89 506.99,-548.76 505.05,-555.49"/>
</a>
</g>
</g>
<!-- Node14&#45;&gt;Node5 -->
<g id="edge16_Node000014_Node000005" class="edge">
<title>Node14&#45;&gt;Node5</title>
<g id="a_edge16_Node000014_Node000005"><a xlink:title=" ">
<path fill="none" stroke="#63b8ff" d="M512.04,-351.39C508.7,-353.64 505.54,-356.13 502.75,-358.86 478.34,-382.81 492.74,-404.64 466.75,-426.86 424.06,-463.36 358.77,-478.71 319.53,-484.91"/>
<polygon fill="#63b8ff" stroke="#63b8ff" points="513.59,-354.54 520.44,-346.46 510.04,-348.51 513.59,-354.54"/>
</a>
</g>
</g>
<!-- Node15 -->
<g id="Node000015" class="node">
<title>Node15</title>
<g id="a_Node000015"><a xlink:href="app_8c.html#ab126aac8a4817b5c574e8992e8137aac" target="_top" xlink:title=" ">
<polygon fill="white" stroke="#666666" points="452.12,-385.24 384.38,-385.24 384.38,-364.49 452.12,-364.49 452.12,-385.24"/>
<text text-anchor="middle" x="418.25" y="-371.74" font-family="Helvetica,sans-Serif" font-size="10.00">w2c__f365</text>
</a>
</g>
</g>
<!-- Node14&#45;&gt;Node15 -->
<g id="edge17_Node000014_Node000015" class="edge">
<title>Node14&#45;&gt;Node15</title>
<g id="a_edge17_Node000014_Node000015"><a xlink:title=" ">
<path fill="none" stroke="#63b8ff" d="M506.29,-348.29C488.65,-353.67 468.66,-359.77 452.3,-364.77"/>
<polygon fill="#63b8ff" stroke="#63b8ff" points="507.2,-351.67 515.75,-345.4 505.16,-344.97 507.2,-351.67"/>
</a>
</g>
</g>
<!-- Node15&#45;&gt;Node5 -->
<g id="edge18_Node000015_Node000005" class="edge">
<title>Node15&#45;&gt;Node5</title>
<g id="a_edge18_Node000015_Node000005"><a xlink:title=" ">
<path fill="none" stroke="#63b8ff" d="M382.08,-390.82C377.79,-393.29 373.57,-395.99 369.75,-398.86 337.91,-422.83 308.03,-459.81 294.24,-478"/>
<polygon fill="#63b8ff" stroke="#63b8ff" points="383.58,-393.99 390.77,-386.21 380.3,-387.81 383.58,-393.99"/>
</a>
</g>
</g>
<!-- Node16 -->
<g id="Node000016" class="node">
<title>Node16</title>
<g id="a_Node000016"><a xlink:href="app_8c.html#accc2bca59262d1758a00d538b9f76807" target="_top" xlink:title=" ">
<polygon fill="white" stroke="#666666" points="333.75,-385.24 236.75,-385.24 236.75,-364.49 333.75,-364.49 333.75,-385.24"/>
<text text-anchor="middle" x="285.25" y="-371.74" font-family="Helvetica,sans-Serif" font-size="10.00">wrap_w2c__f365</text>
</a>
</g>
</g>
<!-- Node15&#45;&gt;Node16 -->
<g id="edge19_Node000015_Node000016" class="edge">
<title>Node15&#45;&gt;Node16</title>
<g id="a_edge19_Node000015_Node000016"><a xlink:title=" ">
<path fill="none" stroke="#63b8ff" d="M372.7,-374.86C360.28,-374.86 346.75,-374.86 334.15,-374.86"/>
<polygon fill="#63b8ff" stroke="#63b8ff" points="372.68,-378.36 382.68,-374.86 372.68,-371.36 372.68,-378.36"/>
</a>
</g>
</g>
<!-- Node17&#45;&gt;Node12 -->
<g id="edge23_Node000017_Node000012" class="edge">
<title>Node17&#45;&gt;Node12</title>
<g id="a_edge23_Node000017_Node000012"><a xlink:title=" ">
<path fill="none" stroke="#63b8ff" d="M507.69,-434.36C505.92,-432.98 504.26,-431.48 502.75,-429.86 468.61,-393.09 503.8,-356.7 466.75,-322.86 426.07,-285.72 359.2,-279.01 319.28,-278.65"/>
<polygon fill="#63b8ff" stroke="#63b8ff" points="505.61,-437.19 515.95,-439.51 509.32,-431.25 505.61,-437.19"/>
</a>
</g>
</g>
<!-- Node18&#45;&gt;Node12 -->
<g id="edge26_Node000018_Node000012" class="edge">
<title>Node18&#45;&gt;Node12</title>
<g id="a_edge26_Node000018_Node000012"><a xlink:title=" ">
<path fill="none" stroke="#63b8ff" d="M530.18,-278.1C514.23,-265.24 490.7,-248.93 466.75,-241.86 425.4,-229.66 411.88,-232.73 369.75,-241.86 345.78,-247.06 320.43,-259.76 304.04,-269.05"/>
<polygon fill="#63b8ff" stroke="#63b8ff" points="527.57,-280.48 537.48,-284.21 532.06,-275.11 527.57,-280.48"/>
</a>
</g>
</g>
<!-- Node19 -->
<g id="Node000019" class="node">
<title>Node19</title>
<g id="a_Node000019"><a xlink:href="app_8c.html#a764c0bb0028716e0a66688159e30b882" target="_top" xlink:title=" ">
<polygon fill="white" stroke="#666666" points="452.12,-271.24 384.38,-271.24 384.38,-250.49 452.12,-250.49 452.12,-271.24"/>
<text text-anchor="middle" x="418.25" y="-257.74" font-family="Helvetica,sans-Serif" font-size="10.00">w2c__f351</text>
</a>
</g>
</g>
<!-- Node18&#45;&gt;Node19 -->
<g id="edge27_Node000018_Node000019" class="edge">
<title>Node18&#45;&gt;Node19</title>
<g id="a_edge27_Node000018_Node000019"><a xlink:title=" ">
<path fill="none" stroke="#63b8ff" d="M506.29,-284.12C488.65,-279.4 468.66,-274.06 452.3,-269.69"/>
<polygon fill="#63b8ff" stroke="#63b8ff" points="505.17,-287.44 515.73,-286.64 506.97,-280.68 505.17,-287.44"/>
</a>
</g>
</g>
<!-- Node19&#45;&gt;Node12 -->
<g id="edge28_Node000019_Node000012" class="edge">
<title>Node19&#45;&gt;Node12</title>
<g id="a_edge28_Node000019_Node000012"><a xlink:title=" ">
<path fill="none" stroke="#63b8ff" d="M373.03,-267.27C355.46,-269.82 335.58,-272.71 319.3,-275.07"/>
<polygon fill="#63b8ff" stroke="#63b8ff" points="373.3,-270.77 382.7,-265.87 372.3,-263.85 373.3,-270.77"/>
</a>
</g>
</g>
<!-- Node21&#45;&gt;Node6 -->
<g id="edge34_Node000021_Node000006" class="edge">
<title>Node21&#45;&gt;Node6</title>
<g id="a_edge34_Node000021_Node000006"><a xlink:title=" ">
<path fill="none" stroke="#63b8ff" d="M514.96,-884.93C451.39,-909.43 316.82,-948.92 236.75,-882.86 181.52,-837.29 170.06,-591.57 168.19,-537.42"/>
<polygon fill="#63b8ff" stroke="#63b8ff" points="516.21,-888.2 524.21,-881.26 513.62,-881.69 516.21,-888.2"/>
</a>
</g>
</g>
<!-- Node21&#45;&gt;Node9 -->
<g id="edge31_Node000021_Node000009" class="edge">
<title>Node21&#45;&gt;Node9</title>
<g id="a_edge31_Node000021_Node000009"><a xlink:title=" ">
<path fill="none" stroke="#63b8ff" d="M505.92,-872.33C468.13,-872.74 413.19,-869.27 369.75,-849.86 297.33,-817.51 274.51,-800.61 236.75,-730.86 231.27,-720.74 178.93,-357 169.37,-290.31"/>
<polygon fill="#63b8ff" stroke="#63b8ff" points="505.63,-875.84 515.55,-872.12 505.48,-868.84 505.63,-875.84"/>
</a>
</g>
</g>
<!-- Node22 -->
<g id="Node000022" class="node">
<title>Node22</title>
<g id="a_Node000022"><a xlink:href="app_8c.html#abd18007c72da8f8fc079e9cdba2cef93" target="_top" xlink:title=" ">
<polygon fill="white" stroke="#666666" points="452.12,-765.24 384.38,-765.24 384.38,-744.49 452.12,-744.49 452.12,-765.24"/>
<text text-anchor="middle" x="418.25" y="-751.74" font-family="Helvetica,sans-Serif" font-size="10.00">w2c__f252</text>
</a>
</g>
</g>
<!-- Node21&#45;&gt;Node22 -->
<g id="edge32_Node000021_Node000022" class="edge">
<title>Node21&#45;&gt;Node22</title>
<g id="a_edge32_Node000021_Node000022"><a xlink:title=" ">
<path fill="none" stroke="#63b8ff" d="M529.63,-851.76C501.96,-827.47 453.71,-785.11 431.31,-765.45"/>
<polygon fill="#63b8ff" stroke="#63b8ff" points="527.2,-854.28 537.02,-858.25 531.82,-849.02 527.2,-854.28"/>
</a>
</g>
</g>
<!-- Node23 -->
<g id="Node000023" class="node">
<title>Node23</title>
<g id="a_Node000023"><a xlink:href="app_8c.html#a1e1380e4c537909f6add6fd427bdd8dc" target="_top" xlink:title=" ">
<polygon fill="white" stroke="#666666" points="452.12,-841.24 384.38,-841.24 384.38,-820.49 452.12,-820.49 452.12,-841.24"/>
<text text-anchor="middle" x="418.25" y="-827.74" font-family="Helvetica,sans-Serif" font-size="10.00">w2c__f492</text>
</a>
</g>
</g>
<!-- Node21&#45;&gt;Node23 -->
<g id="edge35_Node000021_Node000023" class="edge">
<title>Node21&#45;&gt;Node23</title>
<g id="a_edge35_Node000021_Node000023"><a xlink:title=" ">
<path fill="none" stroke="#63b8ff" d="M506.29,-856.77C488.65,-851.52 468.66,-845.57 452.3,-840.7"/>
<polygon fill="#63b8ff" stroke="#63b8ff" points="505.16,-860.09 515.74,-859.59 507.16,-853.38 505.16,-860.09"/>
</a>
</g>
</g>
<!-- Node22&#45;&gt;Node12 -->
<g id="edge33_Node000022_Node000012" class="edge">
<title>Node22&#45;&gt;Node12</title>
<g id="a_edge33_Node000022_Node000012"><a xlink:title=" ">
<path fill="none" stroke="#63b8ff" d="M405.03,-734.27C393.94,-714.58 378.09,-683.7 369.75,-654.86 332.55,-526.29 378.29,-482.08 333.75,-355.86 324.74,-330.33 306.04,-304.4 294.98,-290.4"/>
<polygon fill="#63b8ff" stroke="#63b8ff" points="401.98,-736 410.01,-742.91 408.05,-732.5 401.98,-736"/>
</a>
</g>
</g>
<!-- Node23&#45;&gt;Node5 -->
<g id="edge36_Node000023_Node000005" class="edge">
<title>Node23&#45;&gt;Node5</title>
<g id="a_edge36_Node000023_Node000005"><a xlink:title=" ">
<path fill="none" stroke="#63b8ff" d="M376.85,-813.82C374.23,-811.73 371.82,-809.42 369.75,-806.86 290.44,-708.76 285.84,-543.05 286.06,-499.57"/>
<polygon fill="#63b8ff" stroke="#63b8ff" points="374.82,-816.67 385.1,-819.22 378.66,-810.81 374.82,-816.67"/>
</a>
</g>
</g>
<!-- Node24&#45;&gt;Node5 -->
<g id="edge41_Node000024_Node000005" class="edge">
<title>Node24&#45;&gt;Node5</title>
<g id="a_edge41_Node000024_Node000005"><a xlink:title=" ">
<path fill="none" stroke="#63b8ff" d="M638.88,-249.92C598.81,-245.41 540.51,-245.79 502.75,-276.86 460.74,-311.43 504.65,-354.83 466.75,-393.86 435.03,-426.53 410.07,-405.7 369.75,-426.86 342.09,-441.38 313.68,-464.59 298.17,-478.11"/>
<polygon fill="#63b8ff" stroke="#63b8ff" points="638.31,-253.38 648.68,-251.19 639.21,-246.44 638.31,-253.38"/>
</a>
</g>
</g>
<!-- Node24&#45;&gt;Node6 -->
<g id="edge42_Node000024_Node000006" class="edge">
<title>Node24&#45;&gt;Node6</title>
<g id="a_edge42_Node000024_Node000006"><a xlink:title=" ">
<path fill="none" stroke="#63b8ff" d="M641.3,-241.68C639.37,-240.48 637.51,-239.21 635.75,-237.86 615.12,-222.1 620.17,-207.89 599.75,-191.86 516.64,-126.65 467.66,-92.18 369.75,-131.86 293.43,-162.79 278.17,-189.69 236.75,-260.86 184.81,-350.13 171.46,-478.66 168.58,-516.19"/>
<polygon fill="#63b8ff" stroke="#63b8ff" points="639.55,-244.71 650.01,-246.37 642.87,-238.55 639.55,-244.71"/>
</a>
</g>
</g>
<!-- Node24&#45;&gt;Node9 -->
<g id="edge38_Node000024_Node000009" class="edge">
<title>Node24&#45;&gt;Node9</title>
<g id="a_edge38_Node000024_Node000009"><a xlink:title=" ">
<path fill="none" stroke="#63b8ff" d="M640.5,-242.78C638.76,-241.29 637.16,-239.66 635.75,-237.86 573.47,-158.57 676.5,-79.26 599.75,-13.86 566.94,14.1 545.72,-10.41 502.75,-13.86 383.38,-23.45 327.12,21.72 236.75,-56.86 170.86,-114.16 167.1,-233.01 167.55,-269.19"/>
<polygon fill="#63b8ff" stroke="#63b8ff" points="638.56,-245.7 648.84,-248.26 642.4,-239.84 638.56,-245.7"/>
</a>
</g>
</g>
<!-- Node24&#45;&gt;Node12 -->
<g id="edge40_Node000024_Node000012" class="edge">
<title>Node24&#45;&gt;Node12</title>
<g id="a_edge40_Node000024_Node000012"><a xlink:title=" ">
<path fill="none" stroke="#63b8ff" d="M640.84,-241.92C639.05,-240.66 637.34,-239.31 635.75,-237.86 610.74,-215.11 628.76,-188.21 599.75,-170.86 512.01,-118.4 461.41,-125.61 369.75,-170.86 327.21,-191.86 300.35,-246.08 290.5,-269.18"/>
<polygon fill="#63b8ff" stroke="#63b8ff" points="638.62,-244.67 649.02,-246.72 642.17,-238.64 638.62,-244.67"/>
</a>
</g>
</g>
<!-- Node24&#45;&gt;Node14 -->
<g id="edge39_Node000024_Node000014" class="edge">
<title>Node24&#45;&gt;Node14</title>
<g id="a_edge39_Node000024_Node000014"><a xlink:title=" ">
<path fill="none" stroke="#63b8ff" d="M660.51,-275.23C644.15,-287.25 621.27,-303.14 599.75,-314.86 593.7,-318.16 586.99,-321.28 580.57,-324.04"/>
<polygon fill="#63b8ff" stroke="#63b8ff" points="662.18,-278.34 668.11,-269.56 658,-272.73 662.18,-278.34"/>
</a>
</g>
</g>
<!-- Node24&#45;&gt;Node18 -->
<g id="edge43_Node000024_Node000018" class="edge">
<title>Node24&#45;&gt;Node18</title>
<g id="a_edge43_Node000024_Node000018"><a xlink:title=" ">
<path fill="none" stroke="#63b8ff" d="M639.29,-270.61C621.65,-275.73 601.66,-281.53 585.3,-286.28"/>
<polygon fill="#63b8ff" stroke="#63b8ff" points="640.11,-274.02 648.74,-267.87 638.16,-267.3 640.11,-274.02"/>
</a>
</g>
</g>
<!-- Node25 -->
<g id="Node000025" class="node">
<title>Node25</title>
<g id="a_Node000025"><a xlink:href="app_8c.html#aa522bc9120b448427cd17d57a3f9edbe" target="_top" xlink:title=" ">
<polygon fill="white" stroke="#666666" points="599.75,-43.24 502.75,-43.24 502.75,-22.49 599.75,-22.49 599.75,-43.24"/>
<text text-anchor="middle" x="551.25" y="-29.74" font-family="Helvetica,sans-Serif" font-size="10.00">wrap_w2c__f344</text>
</a>
</g>
</g>
<!-- Node24&#45;&gt;Node25 -->
<g id="edge44_Node000024_Node000025" class="edge">
<title>Node24&#45;&gt;Node25</title>
<g id="a_edge44_Node000024_Node000025"><a xlink:title=" ">
<path fill="none" stroke="#63b8ff" d="M641.02,-243.08C639.09,-241.51 637.31,-239.78 635.75,-237.86 583.9,-174.31 649.36,-122.17 599.75,-56.86 595.5,-51.27 589.59,-46.88 583.38,-43.48"/>
<polygon fill="#63b8ff" stroke="#63b8ff" points="638.66,-245.73 648.97,-248.16 642.43,-239.83 638.66,-245.73"/>
</a>
</g>
</g>
<!-- Node26&#45;&gt;Node4 -->
<g id="edge46_Node000026_Node000004" class="edge">
<title>Node26&#45;&gt;Node4</title>
<g id="a_edge46_Node000026_Node000004"><a xlink:title=" ">
<path fill="none" stroke="#63b8ff" d="M639.03,-616.45C621.46,-613.9 601.58,-611.02 585.3,-608.65"/>
<polygon fill="#63b8ff" stroke="#63b8ff" points="638.3,-619.88 648.7,-617.85 639.3,-612.95 638.3,-619.88"/>
</a>
</g>
</g>
<!-- Node26&#45;&gt;Node5 -->
<g id="edge53_Node000026_Node000005" class="edge">
<title>Node26&#45;&gt;Node5</title>
<g id="a_edge53_Node000026_Node000005"><a xlink:title=" ">
<path fill="none" stroke="#63b8ff" d="M640.17,-633.99C638.59,-635.15 637.1,-636.44 635.75,-637.86 592.34,-683.45 649.6,-736.42 599.75,-774.86 585.27,-786.03 387.84,-787.52 369.75,-773.86 323.66,-739.07 294.3,-546.96 287.68,-499.48"/>
<polygon fill="#63b8ff" stroke="#63b8ff" points="641.68,-637.15 648.77,-629.28 638.32,-631.01 641.68,-637.15"/>
</a>
</g>
</g>
<!-- Node26&#45;&gt;Node6 -->
<g id="edge55_Node000026_Node000006" class="edge">
<title>Node26&#45;&gt;Node6</title>
<g id="a_edge55_Node000026_Node000006"><a xlink:title=" ">
<path fill="none" stroke="#63b8ff" d="M683.09,-645.12C681.47,-696.02 670.14,-821.7 599.75,-888.86 482.73,-1000.52 357.13,-1022.89 236.75,-914.86 178.57,-862.66 169.38,-594.53 168.07,-537.52"/>
<polygon fill="#63b8ff" stroke="#63b8ff" points="686.59,-645.2 683.29,-635.13 679.59,-645.05 686.59,-645.2"/>
</a>
</g>
</g>
<!-- Node26&#45;&gt;Node9 -->
<g id="edge47_Node000026_Node000009" class="edge">
<title>Node26&#45;&gt;Node9</title>
<g id="a_edge47_Node000026_Node000009"><a xlink:title=" ">
<path fill="none" stroke="#63b8ff" d="M639.22,-636.65C638.05,-637.06 636.89,-637.46 635.75,-637.86 619.56,-643.56 616.62,-648.7 599.75,-651.86 499.2,-670.72 462.73,-685.53 369.75,-642.86 293.2,-607.73 279.74,-580.29 236.75,-507.86 191.8,-432.12 173.97,-324.58 169.25,-290.59"/>
<polygon fill="#63b8ff" stroke="#63b8ff" points="640.13,-640.04 648.5,-633.56 637.91,-633.4 640.13,-640.04"/>
</a>
</g>
</g>
<!-- Node26&#45;&gt;Node11 -->
<g id="edge49_Node000026_Node000011" class="edge">
<title>Node26&#45;&gt;Node11</title>
<g id="a_edge49_Node000026_Node000011"><a xlink:title=" ">
<path fill="none" stroke="#63b8ff" d="M666.51,-604.08C650.64,-587.13 625.45,-562.4 599.75,-545.86 594.41,-542.42 588.37,-539.36 582.45,-536.71"/>
<polygon fill="#63b8ff" stroke="#63b8ff" points="663.55,-606.03 672.89,-611.03 668.71,-601.3 663.55,-606.03"/>
</a>
</g>
</g>
<!-- Node26&#45;&gt;Node12 -->
<g id="edge52_Node000026_Node000012" class="edge">
<title>Node26&#45;&gt;Node12</title>
<g id="a_edge52_Node000026_Node000012"><a xlink:title=" ">
<path fill="none" stroke="#63b8ff" d="M638.93,-629.55C562.06,-640.07 408.51,-655.99 369.75,-621.86 324.98,-582.44 354.01,-411.97 333.75,-355.86 324.55,-330.4 305.92,-304.44 294.92,-290.42"/>
<polygon fill="#63b8ff" stroke="#63b8ff" points="639.22,-633.04 648.63,-628.19 638.25,-626.11 639.22,-633.04"/>
</a>
</g>
</g>
<!-- Node26&#45;&gt;Node13 -->
<g id="edge50_Node000026_Node000013" class="edge">
<title>Node26&#45;&gt;Node13</title>
<g id="a_edge50_Node000026_Node000013"><a xlink:title=" ">
<path fill="none" stroke="#63b8ff" d="M649.49,-607.23C634.33,-600.28 616.19,-592.06 599.75,-584.86 592.87,-581.85 585.38,-578.66 578.44,-575.73"/>
<polygon fill="#63b8ff" stroke="#63b8ff" points="648.01,-610.41 658.56,-611.4 650.94,-604.05 648.01,-610.41"/>
</a>
</g>
</g>
<!-- Node26&#45;&gt;Node14 -->
<g id="edge51_Node000026_Node000014" class="edge">
<title>Node26&#45;&gt;Node14</title>
<g id="a_edge51_Node000026_Node000014"><a xlink:title=" ">
<path fill="none" stroke="#63b8ff" d="M678.08,-601.04C667.49,-558.73 640.8,-463.42 599.75,-391.86 589.49,-373.98 573.5,-356.19 562.95,-345.35"/>
<polygon fill="#63b8ff" stroke="#63b8ff" points="674.67,-601.81 680.44,-610.7 681.47,-600.15 674.67,-601.81"/>
</a>
</g>
</g>
<!-- Node26&#45;&gt;Node17 -->
<g id="edge54_Node000026_Node000017" class="edge">
<title>Node26&#45;&gt;Node17</title>
<g id="a_edge54_Node000026_Node000017"><a xlink:title=" ">
<path fill="none" stroke="#63b8ff" d="M669.52,-602.9C653.31,-579.53 625.31,-539.84 599.75,-506.86 586.97,-490.37 571.34,-471.92 561.59,-460.6"/>
<polygon fill="#63b8ff" stroke="#63b8ff" points="666.47,-604.64 675.04,-610.88 672.23,-600.66 666.47,-604.64"/>
</a>
</g>
</g>
<!-- Node26&#45;&gt;Node18 -->
<g id="edge57_Node000026_Node000018" class="edge">
<title>Node26&#45;&gt;Node18</title>
<g id="a_edge57_Node000026_Node000018"><a xlink:title=" ">
<path fill="none" stroke="#63b8ff" d="M677.85,-600.94C660.92,-532.55 609.45,-326.94 599.75,-315.86 595.86,-311.42 590.82,-307.94 585.48,-305.22"/>
<polygon fill="#63b8ff" stroke="#63b8ff" points="674.43,-601.7 680.23,-610.57 681.23,-600.02 674.43,-601.7"/>
</a>
</g>
</g>
<!-- Node26&#45;&gt;Node22 -->
<g id="edge48_Node000026_Node000022" class="edge">
<title>Node26&#45;&gt;Node22</title>
<g id="a_edge48_Node000026_Node000022"><a xlink:title=" ">
<path fill="none" stroke="#63b8ff" d="M665.26,-641.74C649.32,-657.54 624.76,-679.7 599.75,-693.86 551.83,-721 489.89,-738.64 452.44,-747.66"/>
<polygon fill="#63b8ff" stroke="#63b8ff" points="667.58,-644.37 672.11,-634.79 662.6,-639.45 667.58,-644.37"/>
</a>
</g>
</g>
<!-- Node26&#45;&gt;Node23 -->
<g id="edge56_Node000026_Node000023" class="edge">
<title>Node26&#45;&gt;Node23</title>
<g id="a_edge56_Node000026_Node000023"><a xlink:title=" ">
<path fill="none" stroke="#63b8ff" d="M676.43,-644.54C662.05,-688.82 627.65,-787.23 599.75,-807.86 556.7,-839.7 491.53,-839.46 452.4,-835.66"/>
<polygon fill="#63b8ff" stroke="#63b8ff" points="679.76,-645.62 679.47,-635.03 673.09,-643.49 679.76,-645.62"/>
</a>
</g>
</g>
<!-- Node27 -->
<g id="Node000027" class="node">
<title>Node27</title>
<g id="a_Node000027"><a xlink:href="app_8c.html#a7804805b0583b5d74c462fd3b6d49ecf" target="_top" xlink:title=" ">
<polygon fill="white" stroke="#666666" points="599.75,-766.24 502.75,-766.24 502.75,-745.49 599.75,-745.49 599.75,-766.24"/>
<text text-anchor="middle" x="551.25" y="-752.74" font-family="Helvetica,sans-Serif" font-size="10.00">wrap_w2c__f401</text>
</a>
</g>
</g>
<!-- Node26&#45;&gt;Node27 -->
<g id="edge58_Node000026_Node000027" class="edge">
<title>Node26&#45;&gt;Node27</title>
<g id="a_edge58_Node000026_Node000027"><a xlink:title=" ">
<path fill="none" stroke="#63b8ff" d="M671.64,-643.12C657.25,-666.83 630.78,-706.13 599.75,-731.86 593.49,-737.05 585.92,-741.51 578.69,-745.13"/>
<polygon fill="#63b8ff" stroke="#63b8ff" points="674.53,-645.11 676.61,-634.73 668.5,-641.55 674.53,-645.11"/>
</a>
</g>
</g>
</g>
</svg>
