<?xml version="1.0" encoding="UTF-8" standalone="no"?>
<!DOCTYPE svg PUBLIC "-//W3C//DTD SVG 1.1//EN"
 "http://www.w3.org/Graphics/SVG/1.1/DTD/svg11.dtd">
<!-- Generated by graphviz version 12.2.1 (0)
 -->
<!-- Title: w2c__f221 Pages: 1 -->
<svg width="807pt" height="751pt"
 viewBox="0.00 0.00 806.50 751.38" xmlns="http://www.w3.org/2000/svg" xmlns:xlink="http://www.w3.org/1999/xlink">
<g id="graph0" class="graph" transform="scale(1 1) rotate(0) translate(4 747.38)">
<title>w2c__f221</title>
<!-- Node1 -->
<g id="Node000001" class="node">
<title>Node1</title>
<g id="a_Node000001"><a xlink:title=" ">
<polygon fill="#999999" stroke="#666666" points="67.75,-619.75 0,-619.75 0,-599 67.75,-599 67.75,-619.75"/>
<text text-anchor="middle" x="33.88" y="-606.25" font-family="Helvetica,sans-Serif" font-size="10.00">w2c__f221</text>
</a>
</g>
</g>
<!-- Node2 -->
<g id="Node000002" class="node">
<title>Node2</title>
<g id="a_Node000002"><a xlink:href="app_8c.html#a16b87571119c211bed30fa7b8b381ed7" target="_top" xlink:title=" ">
<polygon fill="white" stroke="#666666" points="171.5,-677.75 103.75,-677.75 103.75,-657 171.5,-657 171.5,-677.75"/>
<text text-anchor="middle" x="137.62" y="-664.25" font-family="Helvetica,sans-Serif" font-size="10.00">w2c__f224</text>
</a>
</g>
</g>
<!-- Node1&#45;&gt;Node2 -->
<g id="edge1_Node000001_Node000002" class="edge">
<title>Node1&#45;&gt;Node2</title>
<g id="a_edge1_Node000001_Node000002"><a xlink:title=" ">
<path fill="none" stroke="#63b8ff" d="M53.54,-620.01C68.79,-628.71 90.6,-641.14 108.05,-651.09"/>
<polygon fill="#63b8ff" stroke="#63b8ff" points="106,-653.95 116.42,-655.86 109.47,-647.87 106,-653.95"/>
</a>
</g>
</g>
<!-- Node3 -->
<g id="Node000003" class="node">
<title>Node3</title>
<g id="a_Node000003"><a xlink:href="app_8c.html#a800df00ef236c6d6affc3c661b37e3ad" target="_top" xlink:title=" ">
<polygon fill="white" stroke="#666666" points="694.75,-658.75 627,-658.75 627,-638 694.75,-638 694.75,-658.75"/>
<text text-anchor="middle" x="660.88" y="-645.25" font-family="Helvetica,sans-Serif" font-size="10.00">w2c__f487</text>
</a>
</g>
</g>
<!-- Node1&#45;&gt;Node3 -->
<g id="edge50_Node000001_Node000003" class="edge">
<title>Node1&#45;&gt;Node3</title>
<g id="a_edge50_Node000001_Node000003"><a xlink:title=" ">
<path fill="none" stroke="#63b8ff" d="M42.14,-620.22C53.56,-636.52 77.15,-667.46 103.75,-686.38 157.37,-724.5 174.58,-743.38 240.38,-743.38 240.38,-743.38 240.38,-743.38 451,-743.38 515.96,-743.38 533.19,-731.01 591,-701.38 608.94,-692.18 626.91,-678.15 639.99,-666.84"/>
<polygon fill="#63b8ff" stroke="#63b8ff" points="642.31,-669.45 647.46,-660.19 637.66,-664.23 642.31,-669.45"/>
</a>
</g>
</g>
<!-- Node6 -->
<g id="Node000006" class="node">
<title>Node6</title>
<g id="a_Node000006"><a xlink:href="app_8c.html#a986f1214d53a515b2b887b8f988fa6a1" target="_top" xlink:title=" ">
<polygon fill="white" stroke="#666666" points="379,-639.75 311.25,-639.75 311.25,-619 379,-619 379,-639.75"/>
<text text-anchor="middle" x="345.12" y="-626.25" font-family="Helvetica,sans-Serif" font-size="10.00">w2c__f365</text>
</a>
</g>
</g>
<!-- Node1&#45;&gt;Node6 -->
<g id="edge20_Node000001_Node000006" class="edge">
<title>Node1&#45;&gt;Node6</title>
<g id="a_edge20_Node000001_Node000006"><a xlink:title=" ">
<path fill="none" stroke="#63b8ff" d="M67.97,-611.52C123.86,-615.13 236.97,-622.44 299.7,-626.5"/>
<polygon fill="#63b8ff" stroke="#63b8ff" points="299.08,-629.97 309.29,-627.12 299.54,-622.98 299.08,-629.97"/>
</a>
</g>
</g>
<!-- Node9 -->
<g id="Node000009" class="node">
<title>Node9</title>
<g id="a_Node000009"><a xlink:href="app_8c.html#a03fa34d93d32a3ee40dfc2d840730111" target="_top" xlink:title=" ">
<polygon fill="white" stroke="#666666" points="694.75,-562.75 627,-562.75 627,-542 694.75,-542 694.75,-562.75"/>
<text text-anchor="middle" x="660.88" y="-549.25" font-family="Helvetica,sans-Serif" font-size="10.00">w2c__f262</text>
</a>
</g>
</g>
<!-- Node1&#45;&gt;Node9 -->
<g id="edge19_Node000001_Node000009" class="edge">
<title>Node1&#45;&gt;Node9</title>
<g id="a_edge19_Node000001_Node000009"><a xlink:title=" ">
<path fill="none" stroke="#63b8ff" d="M50.52,-598.55C64.01,-589.78 84.31,-577.84 103.75,-571.38 161.92,-552.02 179.07,-552.38 240.38,-552.38 240.38,-552.38 240.38,-552.38 346.12,-552.38 455.29,-552.38 482.83,-518.73 591,-533.38 599.46,-534.52 608.35,-536.42 616.83,-538.59"/>
<polygon fill="#63b8ff" stroke="#63b8ff" points="615.64,-541.9 626.21,-541.16 617.48,-535.15 615.64,-541.9"/>
</a>
</g>
</g>
<!-- Node14 -->
<g id="Node000014" class="node">
<title>Node14</title>
<g id="a_Node000014"><a xlink:href="app_8c.html#a244f0f30c84eab69a2b40f0be3dd065c" target="_top" xlink:title=" ">
<polygon fill="white" stroke="#666666" points="379,-408.75 311.25,-408.75 311.25,-388 379,-388 379,-408.75"/>
<text text-anchor="middle" x="345.12" y="-395.25" font-family="Helvetica,sans-Serif" font-size="10.00">w2c__f445</text>
</a>
</g>
</g>
<!-- Node1&#45;&gt;Node14 -->
<g id="edge21_Node000001_Node000014" class="edge">
<title>Node1&#45;&gt;Node14</title>
<g id="a_edge21_Node000001_Node000014"><a xlink:title=" ">
<path fill="none" stroke="#63b8ff" d="M43.46,-598.86C55.78,-584.18 79.68,-557.21 103.75,-538.38 171.99,-484.97 262.66,-437.65 310.79,-414.12"/>
<polygon fill="#63b8ff" stroke="#63b8ff" points="312.12,-417.37 319.59,-409.86 309.07,-411.07 312.12,-417.37"/>
</a>
</g>
</g>
<!-- Node31 -->
<g id="Node000031" class="node">
<title>Node31</title>
<g id="a_Node000031"><a xlink:href="app_8c.html#a65a7ed029d328682d1f6fda373974c32" target="_top" xlink:title=" ">
<polygon fill="white" stroke="#666666" points="171.5,-600.75 103.75,-600.75 103.75,-580 171.5,-580 171.5,-600.75"/>
<text text-anchor="middle" x="137.62" y="-587.25" font-family="Helvetica,sans-Serif" font-size="10.00">w2c__f470</text>
</a>
</g>
</g>
<!-- Node1&#45;&gt;Node31 -->
<g id="edge46_Node000001_Node000031" class="edge">
<title>Node1&#45;&gt;Node31</title>
<g id="a_edge46_Node000001_Node000031"><a xlink:title=" ">
<path fill="none" stroke="#63b8ff" d="M68.19,-603.15C75.91,-601.71 84.25,-600.16 92.36,-598.64"/>
<polygon fill="#63b8ff" stroke="#63b8ff" points="92.91,-602.1 102.09,-596.82 91.62,-595.22 92.91,-602.1"/>
</a>
</g>
</g>
<!-- Node2&#45;&gt;Node3 -->
<g id="edge2_Node000002_Node000003" class="edge">
<title>Node2&#45;&gt;Node3</title>
<g id="a_edge2_Node000002_Node000003"><a xlink:title=" ">
<path fill="none" stroke="#63b8ff" d="M171.74,-677.36C212.06,-688.62 282.45,-705.38 344.12,-705.38 344.12,-705.38 344.12,-705.38 451,-705.38 514.53,-705.38 585.21,-680.53 625.91,-663.65"/>
<polygon fill="#63b8ff" stroke="#63b8ff" points="627.09,-666.95 634.93,-659.82 624.36,-660.51 627.09,-666.95"/>
</a>
</g>
</g>
<!-- Node5 -->
<g id="Node000005" class="node">
<title>Node5</title>
<g id="a_Node000005"><a xlink:href="app_8c.html#a5143f7bebd925f0663756f10aef87ef0" target="_top" xlink:title=" ">
<polygon fill="white" stroke="#666666" points="275.25,-677.75 207.5,-677.75 207.5,-657 275.25,-657 275.25,-677.75"/>
<text text-anchor="middle" x="241.38" y="-664.25" font-family="Helvetica,sans-Serif" font-size="10.00">w2c__f570</text>
</a>
</g>
</g>
<!-- Node2&#45;&gt;Node5 -->
<g id="edge4_Node000002_Node000005" class="edge">
<title>Node2&#45;&gt;Node5</title>
<g id="a_edge4_Node000002_Node000005"><a xlink:title=" ">
<path fill="none" stroke="#63b8ff" d="M171.94,-667.38C179.57,-667.38 187.81,-667.38 195.83,-667.38"/>
<polygon fill="#63b8ff" stroke="#63b8ff" points="195.82,-670.88 205.82,-667.38 195.82,-663.88 195.82,-670.88"/>
</a>
</g>
</g>
<!-- Node4 -->
<g id="Node000004" class="node">
<title>Node4</title>
<g id="a_Node000004"><a xlink:href="app_8c.html#a71bcbce7faf780cd081af3fa82d6da97" target="_top" xlink:title=" ">
<polygon fill="white" stroke="#666666" points="798.5,-601.75 730.75,-601.75 730.75,-581 798.5,-581 798.5,-601.75"/>
<text text-anchor="middle" x="764.62" y="-588.25" font-family="Helvetica,sans-Serif" font-size="10.00">w2c__f437</text>
</a>
</g>
</g>
<!-- Node3&#45;&gt;Node4 -->
<g id="edge3_Node000003_Node000004" class="edge">
<title>Node3&#45;&gt;Node4</title>
<g id="a_edge3_Node000003_Node000004"><a xlink:title=" ">
<path fill="none" stroke="#63b8ff" d="M681.01,-637.65C696.12,-629.19 717.45,-617.24 734.65,-607.6"/>
<polygon fill="#63b8ff" stroke="#63b8ff" points="735.89,-610.92 742.91,-602.98 732.47,-604.82 735.89,-610.92"/>
</a>
</g>
</g>
<!-- Node5&#45;&gt;Node3 -->
<g id="edge18_Node000005_Node000003" class="edge">
<title>Node5&#45;&gt;Node3</title>
<g id="a_edge18_Node000005_Node000003"><a xlink:title=" ">
<path fill="none" stroke="#63b8ff" d="M275.48,-665.87C350.01,-662.48 530.99,-654.24 615.29,-650.4"/>
<polygon fill="#63b8ff" stroke="#63b8ff" points="615.42,-653.9 625.25,-649.95 615.1,-646.91 615.42,-653.9"/>
</a>
</g>
</g>
<!-- Node5&#45;&gt;Node6 -->
<g id="edge5_Node000005_Node000006" class="edge">
<title>Node5&#45;&gt;Node6</title>
<g id="a_edge5_Node000005_Node000006"><a xlink:title=" ">
<path fill="none" stroke="#63b8ff" d="M271.26,-656.59C281.57,-652.74 293.38,-648.33 304.44,-644.2"/>
<polygon fill="#63b8ff" stroke="#63b8ff" points="305.61,-647.5 313.75,-640.72 303.16,-640.94 305.61,-647.5"/>
</a>
</g>
</g>
<!-- Node7 -->
<g id="Node000007" class="node">
<title>Node7</title>
<g id="a_Node000007"><a xlink:href="app_8c.html#a14e021d2f1b59e04757852f66bff1044" target="_top" xlink:title=" ">
<polygon fill="white" stroke="#666666" points="483.88,-639.75 416.12,-639.75 416.12,-619 483.88,-619 483.88,-639.75"/>
<text text-anchor="middle" x="450" y="-626.25" font-family="Helvetica,sans-Serif" font-size="10.00">w2c__f511</text>
</a>
</g>
</g>
<!-- Node6&#45;&gt;Node7 -->
<g id="edge6_Node000006_Node000007" class="edge">
<title>Node6&#45;&gt;Node7</title>
<g id="a_edge6_Node000006_Node000007"><a xlink:title=" ">
<path fill="none" stroke="#63b8ff" d="M379.24,-629.38C387.32,-629.38 396.09,-629.38 404.6,-629.38"/>
<polygon fill="#63b8ff" stroke="#63b8ff" points="404.43,-632.88 414.43,-629.38 404.43,-625.88 404.43,-632.88"/>
</a>
</g>
</g>
<!-- Node8 -->
<g id="Node000008" class="node">
<title>Node8</title>
<g id="a_Node000008"><a xlink:href="app_8c.html#aa58fd7f1d3aab8404d7f71d334a8a108" target="_top" xlink:title=" ">
<polygon fill="white" stroke="#666666" points="589.88,-562.75 522.12,-562.75 522.12,-542 589.88,-542 589.88,-562.75"/>
<text text-anchor="middle" x="556" y="-549.25" font-family="Helvetica,sans-Serif" font-size="10.00">w2c__f211</text>
</a>
</g>
</g>
<!-- Node7&#45;&gt;Node8 -->
<g id="edge7_Node000007_Node000008" class="edge">
<title>Node7&#45;&gt;Node8</title>
<g id="a_edge7_Node000007_Node000008"><a xlink:title=" ">
<path fill="none" stroke="#63b8ff" d="M462.95,-618.7C476.55,-606.78 499.64,-587.23 521,-572.38 522.58,-571.27 524.23,-570.17 525.91,-569.08"/>
<polygon fill="#63b8ff" stroke="#63b8ff" points="527.66,-572.12 534.33,-563.89 523.98,-566.16 527.66,-572.12"/>
</a>
</g>
</g>
<!-- Node12 -->
<g id="Node000012" class="node">
<title>Node12</title>
<g id="a_Node000012"><a xlink:href="app_8c.html#a8c90e9acf2d5915eb0476bc13964c4db" target="_top" xlink:title=" ">
<polygon fill="white" stroke="#666666" points="589.88,-601.75 522.12,-601.75 522.12,-581 589.88,-581 589.88,-601.75"/>
<text text-anchor="middle" x="556" y="-588.25" font-family="Helvetica,sans-Serif" font-size="10.00">w2c__f345</text>
</a>
</g>
</g>
<!-- Node7&#45;&gt;Node12 -->
<g id="edge13_Node000007_Node000012" class="edge">
<title>Node7&#45;&gt;Node12</title>
<g id="a_edge13_Node000007_Node000012"><a xlink:title=" ">
<path fill="none" stroke="#63b8ff" d="M480.52,-618.59C491.17,-614.7 503.38,-610.24 514.79,-606.07"/>
<polygon fill="#63b8ff" stroke="#63b8ff" points="515.79,-609.43 523.98,-602.71 513.39,-602.85 515.79,-609.43"/>
</a>
</g>
</g>
<!-- Node8&#45;&gt;Node9 -->
<g id="edge8_Node000008_Node000009" class="edge">
<title>Node8&#45;&gt;Node9</title>
<g id="a_edge8_Node000008_Node000009"><a xlink:title=" ">
<path fill="none" stroke="#63b8ff" d="M590.12,-552.38C598.19,-552.38 606.96,-552.38 615.47,-552.38"/>
<polygon fill="#63b8ff" stroke="#63b8ff" points="615.31,-555.88 625.31,-552.38 615.31,-548.88 615.31,-555.88"/>
</a>
</g>
</g>
<!-- Node11 -->
<g id="Node000011" class="node">
<title>Node11</title>
<g id="a_Node000011"><a xlink:href="app_8c.html#a31b08a294227a9fc0a529e66ccd915dc" target="_top" xlink:title=" ">
<polygon fill="white" stroke="#666666" points="694.75,-601.75 627,-601.75 627,-581 694.75,-581 694.75,-601.75"/>
<text text-anchor="middle" x="660.88" y="-588.25" font-family="Helvetica,sans-Serif" font-size="10.00">w2c__f325</text>
</a>
</g>
</g>
<!-- Node8&#45;&gt;Node11 -->
<g id="edge11_Node000008_Node000011" class="edge">
<title>Node8&#45;&gt;Node11</title>
<g id="a_edge11_Node000008_Node000011"><a xlink:title=" ">
<path fill="none" stroke="#63b8ff" d="M585.66,-563.24C596.58,-567.38 609.22,-572.17 620.94,-576.62"/>
<polygon fill="#63b8ff" stroke="#63b8ff" points="619.37,-579.76 629.96,-580.03 621.85,-573.22 619.37,-579.76"/>
</a>
</g>
</g>
<!-- Node9&#45;&gt;Node4 -->
<g id="edge10_Node000009_Node000004" class="edge">
<title>Node9&#45;&gt;Node4</title>
<g id="a_edge10_Node000009_Node000004"><a xlink:title=" ">
<path fill="none" stroke="#63b8ff" d="M690.22,-563.24C700.91,-567.34 713.27,-572.08 724.76,-576.48"/>
<polygon fill="#63b8ff" stroke="#63b8ff" points="723.43,-579.72 734.02,-580.03 725.94,-573.18 723.43,-579.72"/>
</a>
</g>
</g>
<!-- Node10 -->
<g id="Node000010" class="node">
<title>Node10</title>
<g id="a_Node000010"><a xlink:href="app_8c.html#a16207b5f7a97b0ecfddd231452c5aa7e" target="_top" xlink:title=" ">
<polygon fill="white" stroke="#666666" points="798.5,-562.75 730.75,-562.75 730.75,-542 798.5,-542 798.5,-562.75"/>
<text text-anchor="middle" x="764.62" y="-549.25" font-family="Helvetica,sans-Serif" font-size="10.00">w2c__f263</text>
</a>
</g>
</g>
<!-- Node9&#45;&gt;Node10 -->
<g id="edge9_Node000009_Node000010" class="edge">
<title>Node9&#45;&gt;Node10</title>
<g id="a_edge9_Node000009_Node000010"><a xlink:title=" ">
<path fill="none" stroke="#63b8ff" d="M695.19,-552.38C702.82,-552.38 711.06,-552.38 719.08,-552.38"/>
<polygon fill="#63b8ff" stroke="#63b8ff" points="719.07,-555.88 729.07,-552.38 719.07,-548.88 719.07,-555.88"/>
</a>
</g>
</g>
<!-- Node11&#45;&gt;Node4 -->
<g id="edge12_Node000011_Node000004" class="edge">
<title>Node11&#45;&gt;Node4</title>
<g id="a_edge12_Node000011_Node000004"><a xlink:title=" ">
<path fill="none" stroke="#63b8ff" d="M695.19,-591.38C702.82,-591.38 711.06,-591.38 719.08,-591.38"/>
<polygon fill="#63b8ff" stroke="#63b8ff" points="719.07,-594.88 729.07,-591.38 719.07,-587.88 719.07,-594.88"/>
</a>
</g>
</g>
<!-- Node12&#45;&gt;Node3 -->
<g id="edge16_Node000012_Node000003" class="edge">
<title>Node12&#45;&gt;Node3</title>
<g id="a_edge16_Node000012_Node000003"><a xlink:title=" ">
<path fill="none" stroke="#63b8ff" d="M576.35,-602.1C591.63,-610.56 613.19,-622.51 630.58,-632.15"/>
<polygon fill="#63b8ff" stroke="#63b8ff" points="628.49,-634.99 638.94,-636.77 631.89,-628.87 628.49,-634.99"/>
</a>
</g>
</g>
<!-- Node12&#45;&gt;Node9 -->
<g id="edge14_Node000012_Node000009" class="edge">
<title>Node12&#45;&gt;Node9</title>
<g id="a_edge14_Node000012_Node000009"><a xlink:title=" ">
<path fill="none" stroke="#63b8ff" d="M585.66,-580.51C596.58,-576.37 609.22,-571.58 620.94,-567.13"/>
<polygon fill="#63b8ff" stroke="#63b8ff" points="621.85,-570.53 629.96,-563.72 619.37,-563.99 621.85,-570.53"/>
</a>
</g>
</g>
<!-- Node12&#45;&gt;Node11 -->
<g id="edge15_Node000012_Node000011" class="edge">
<title>Node12&#45;&gt;Node11</title>
<g id="a_edge15_Node000012_Node000011"><a xlink:title=" ">
<path fill="none" stroke="#63b8ff" d="M590.12,-591.38C598.19,-591.38 606.96,-591.38 615.47,-591.38"/>
<polygon fill="#63b8ff" stroke="#63b8ff" points="615.31,-594.88 625.31,-591.38 615.31,-587.88 615.31,-594.88"/>
</a>
</g>
</g>
<!-- Node13 -->
<g id="Node000013" class="node">
<title>Node13</title>
<g id="a_Node000013"><a xlink:href="app_8c.html#a0e0dad0ebc52e45eeff2e1b5d8389ea4" target="_top" xlink:title=" ">
<polygon fill="white" stroke="#666666" points="694.75,-447.75 627,-447.75 627,-427 694.75,-427 694.75,-447.75"/>
<text text-anchor="middle" x="660.88" y="-434.25" font-family="Helvetica,sans-Serif" font-size="10.00">w2c__f534</text>
</a>
</g>
</g>
<!-- Node12&#45;&gt;Node13 -->
<g id="edge17_Node000012_Node000013" class="edge">
<title>Node12&#45;&gt;Node13</title>
<g id="a_edge17_Node000012_Node000013"><a xlink:title=" ">
<path fill="none" stroke="#63b8ff" d="M579.55,-580.56C583.67,-577.93 587.71,-574.86 591,-571.38 622.59,-537.93 643.28,-487.19 653.14,-458.71"/>
<polygon fill="#63b8ff" stroke="#63b8ff" points="656.4,-460.01 656.23,-449.42 649.75,-457.8 656.4,-460.01"/>
</a>
</g>
</g>
<!-- Node14&#45;&gt;Node3 -->
<g id="edge42_Node000014_Node000003" class="edge">
<title>Node14&#45;&gt;Node3</title>
<g id="a_edge42_Node000014_Node000003"><a xlink:title=" ">
<path fill="none" stroke="#63b8ff" d="M349.66,-409.19C358,-433.48 380.81,-493.37 415,-533.38 452.83,-577.64 468.51,-585.17 521,-610.38 551.1,-624.83 587.61,-634.55 615.63,-640.53"/>
<polygon fill="#63b8ff" stroke="#63b8ff" points="614.71,-643.92 625.21,-642.5 616.12,-637.06 614.71,-643.92"/>
</a>
</g>
</g>
<!-- Node14&#45;&gt;Node7 -->
<g id="edge43_Node000014_Node000007" class="edge">
<title>Node14&#45;&gt;Node7</title>
<g id="a_edge43_Node000014_Node000007"><a xlink:title=" ">
<path fill="none" stroke="#63b8ff" d="M347.29,-408.9C351.31,-441.26 367.13,-540.91 415,-605.38 416.66,-607.61 418.59,-609.71 420.67,-611.68"/>
<polygon fill="#63b8ff" stroke="#63b8ff" points="418.02,-614.04 428.01,-617.58 422.41,-608.59 418.02,-614.04"/>
</a>
</g>
</g>
<!-- Node14&#45;&gt;Node9 -->
<g id="edge31_Node000014_Node000009" class="edge">
<title>Node14&#45;&gt;Node9</title>
<g id="a_edge31_Node000014_Node000009"><a xlink:title=" ">
<path fill="none" stroke="#63b8ff" d="M379.37,-398.16C408.32,-399.06 450.88,-403.08 485,-417.38 550.68,-444.89 613.08,-503.51 642.4,-533.64"/>
<polygon fill="#63b8ff" stroke="#63b8ff" points="639.6,-535.77 649.05,-540.58 644.66,-530.93 639.6,-535.77"/>
</a>
</g>
</g>
<!-- Node14&#45;&gt;Node13 -->
<g id="edge44_Node000014_Node000013" class="edge">
<title>Node14&#45;&gt;Node13</title>
<g id="a_edge44_Node000014_Node000013"><a xlink:title=" ">
<path fill="none" stroke="#63b8ff" d="M379.27,-388.78C427.36,-376.54 518.64,-359.76 591,-384.38 610.96,-391.17 629.65,-406.34 642.51,-418.71"/>
<polygon fill="#63b8ff" stroke="#63b8ff" points="639.84,-420.99 649.36,-425.63 644.81,-416.06 639.84,-420.99"/>
</a>
</g>
</g>
<!-- Node15 -->
<g id="Node000015" class="node">
<title>Node15</title>
<g id="a_Node000015"><a xlink:href="app_8c.html#ade2c5d56e164673d9204f66a2eaadd70" target="_top" xlink:title=" ">
<polygon fill="white" stroke="#666666" points="485,-332.75 415,-332.75 415,-312 485,-312 485,-332.75"/>
<text text-anchor="middle" x="450" y="-319.25" font-family="Helvetica,sans-Serif" font-size="10.00">w2c_0_103</text>
</a>
</g>
</g>
<!-- Node14&#45;&gt;Node15 -->
<g id="edge22_Node000014_Node000015" class="edge">
<title>Node14&#45;&gt;Node15</title>
<g id="a_edge22_Node000014_Node000015"><a xlink:title=" ">
<path fill="none" stroke="#63b8ff" d="M360.01,-387.69C373.85,-377.08 395.76,-360.42 415,-346.38 418.03,-344.16 421.24,-341.85 424.42,-339.59"/>
<polygon fill="#63b8ff" stroke="#63b8ff" points="426.32,-342.53 432.46,-333.9 422.27,-336.82 426.32,-342.53"/>
</a>
</g>
</g>
<!-- Node16 -->
<g id="Node000016" class="node">
<title>Node16</title>
<g id="a_Node000016"><a xlink:href="app_8c.html#a4f89434e73555473a637aa72f93ac987" target="_top" xlink:title=" ">
<polygon fill="white" stroke="#666666" points="588,-332.75 524,-332.75 524,-312 588,-312 588,-332.75"/>
<text text-anchor="middle" x="556" y="-319.25" font-family="Helvetica,sans-Serif" font-size="10.00">w2c_0_50</text>
</a>
</g>
</g>
<!-- Node14&#45;&gt;Node16 -->
<g id="edge23_Node000014_Node000016" class="edge">
<title>Node14&#45;&gt;Node16</title>
<g id="a_edge23_Node000014_Node000016"><a xlink:title=" ">
<path fill="none" stroke="#63b8ff" d="M350.09,-387.52C358.39,-366.63 379.8,-321.33 415,-303.38 448.52,-286.28 492.14,-296.49 521.71,-307.43"/>
<polygon fill="#63b8ff" stroke="#63b8ff" points="520.32,-310.64 530.9,-311.04 522.88,-304.12 520.32,-310.64"/>
</a>
</g>
</g>
<!-- Node17 -->
<g id="Node000017" class="node">
<title>Node17</title>
<g id="a_Node000017"><a xlink:href="app_8c.html#a206ee4e4e8e05cd99b508dd4e7a3da78" target="_top" xlink:title=" ">
<polygon fill="white" stroke="#666666" points="482,-524.75 418,-524.75 418,-504 482,-504 482,-524.75"/>
<text text-anchor="middle" x="450" y="-511.25" font-family="Helvetica,sans-Serif" font-size="10.00">w2c_0_55</text>
</a>
</g>
</g>
<!-- Node14&#45;&gt;Node17 -->
<g id="edge24_Node000014_Node000017" class="edge">
<title>Node14&#45;&gt;Node17</title>
<g id="a_edge24_Node000014_Node000017"><a xlink:title=" ">
<path fill="none" stroke="#63b8ff" d="M351.76,-408.99C362.22,-427.94 386.22,-468.09 415,-494.38 416.05,-495.34 417.16,-496.27 418.3,-497.18"/>
<polygon fill="#63b8ff" stroke="#63b8ff" points="416.1,-499.92 426.31,-502.74 420.09,-494.16 416.1,-499.92"/>
</a>
</g>
</g>
<!-- Node18 -->
<g id="Node000018" class="node">
<title>Node18</title>
<g id="a_Node000018"><a xlink:href="app_8c.html#a922558a564bbc880daa9c785dfb3fc56" target="_top" xlink:title=" ">
<polygon fill="white" stroke="#666666" points="482,-485.75 418,-485.75 418,-465 482,-465 482,-485.75"/>
<text text-anchor="middle" x="450" y="-472.25" font-family="Helvetica,sans-Serif" font-size="10.00">w2c_0_61</text>
</a>
</g>
</g>
<!-- Node14&#45;&gt;Node18 -->
<g id="edge25_Node000014_Node000018" class="edge">
<title>Node14&#45;&gt;Node18</title>
<g id="a_edge25_Node000014_Node000018"><a xlink:title=" ">
<path fill="none" stroke="#63b8ff" d="M357.86,-409.07C371.21,-421.01 393.9,-440.58 415,-455.38 416.58,-456.48 418.23,-457.59 419.9,-458.68"/>
<polygon fill="#63b8ff" stroke="#63b8ff" points="417.97,-461.6 428.32,-463.89 421.65,-455.65 417.97,-461.6"/>
</a>
</g>
</g>
<!-- Node19 -->
<g id="Node000019" class="node">
<title>Node19</title>
<g id="a_Node000019"><a xlink:href="app_8c.html#ac0548585a38e60685454f9d017aa15f5" target="_top" xlink:title=" ">
<polygon fill="white" stroke="#666666" points="483.88,-256.75 416.12,-256.75 416.12,-236 483.88,-236 483.88,-256.75"/>
<text text-anchor="middle" x="450" y="-243.25" font-family="Helvetica,sans-Serif" font-size="10.00">w2c__f257</text>
</a>
</g>
</g>
<!-- Node14&#45;&gt;Node19 -->
<g id="edge26_Node000014_Node000019" class="edge">
<title>Node14&#45;&gt;Node19</title>
<g id="a_edge26_Node000014_Node000019"><a xlink:title=" ">
<path fill="none" stroke="#63b8ff" d="M349.9,-387.75C358.55,-364.46 381.7,-307.97 415,-270.38 416.93,-268.2 419.09,-266.11 421.37,-264.14"/>
<polygon fill="#63b8ff" stroke="#63b8ff" points="423.44,-266.96 429.24,-258.1 419.18,-261.41 423.44,-266.96"/>
</a>
</g>
</g>
<!-- Node23 -->
<g id="Node000023" class="node">
<title>Node23</title>
<g id="a_Node000023"><a xlink:href="app_8c.html#a34d18545510c7604d64db5651af2a253" target="_top" xlink:title=" ">
<polygon fill="white" stroke="#666666" points="483.88,-446.75 416.12,-446.75 416.12,-426 483.88,-426 483.88,-446.75"/>
<text text-anchor="middle" x="450" y="-433.25" font-family="Helvetica,sans-Serif" font-size="10.00">w2c__f332</text>
</a>
</g>
</g>
<!-- Node14&#45;&gt;Node23 -->
<g id="edge32_Node000014_Node000023" class="edge">
<title>Node14&#45;&gt;Node23</title>
<g id="a_edge32_Node000014_Node000023"><a xlink:title=" ">
<path fill="none" stroke="#63b8ff" d="M375.33,-409.16C385.86,-413.05 397.94,-417.51 409.22,-421.68"/>
<polygon fill="#63b8ff" stroke="#63b8ff" points="407.71,-424.85 418.3,-425.04 410.13,-418.29 407.71,-424.85"/>
</a>
</g>
</g>
<!-- Node24 -->
<g id="Node000024" class="node">
<title>Node24</title>
<g id="a_Node000024"><a xlink:href="app_8c.html#a6a5f2eef787a92202f51353c5f79de51" target="_top" xlink:title=" ">
<polygon fill="white" stroke="#666666" points="483.88,-157.75 416.12,-157.75 416.12,-137 483.88,-137 483.88,-157.75"/>
<text text-anchor="middle" x="450" y="-144.25" font-family="Helvetica,sans-Serif" font-size="10.00">w2c__f467</text>
</a>
</g>
</g>
<!-- Node14&#45;&gt;Node24 -->
<g id="edge33_Node000014_Node000024" class="edge">
<title>Node14&#45;&gt;Node24</title>
<g id="a_edge33_Node000014_Node000024"><a xlink:title=" ">
<path fill="none" stroke="#63b8ff" d="M350.41,-387.54C361.12,-360.47 390.03,-287.7 415,-227.38 423.27,-207.4 432.93,-184.74 439.83,-168.64"/>
<polygon fill="#63b8ff" stroke="#63b8ff" points="442.98,-170.18 443.72,-159.61 436.55,-167.41 442.98,-170.18"/>
</a>
</g>
</g>
<!-- Node29 -->
<g id="Node000029" class="node">
<title>Node29</title>
<g id="a_Node000029"><a xlink:href="app_8c.html#a58d893dd6cf117aafb69550b2a0a0e6a" target="_top" xlink:title=" ">
<polygon fill="white" stroke="#666666" points="589.88,-20.75 522.12,-20.75 522.12,0 589.88,0 589.88,-20.75"/>
<text text-anchor="middle" x="556" y="-7.25" font-family="Helvetica,sans-Serif" font-size="10.00">wasm_ceil</text>
</a>
</g>
</g>
<!-- Node14&#45;&gt;Node29 -->
<g id="edge45_Node000014_Node000029" class="edge">
<title>Node14&#45;&gt;Node29</title>
<g id="a_edge45_Node000014_Node000029"><a xlink:title=" ">
<path fill="none" stroke="#63b8ff" d="M346.71,-387.5C349.2,-349.25 361.41,-218.36 415,-128.38 442.01,-83.03 492.87,-46.87 525.29,-27.05"/>
<polygon fill="#63b8ff" stroke="#63b8ff" points="527.01,-30.1 533.81,-21.98 523.43,-24.09 527.01,-30.1"/>
</a>
</g>
</g>
<!-- Node19&#45;&gt;Node16 -->
<g id="edge28_Node000019_Node000016" class="edge">
<title>Node19&#45;&gt;Node16</title>
<g id="a_edge28_Node000019_Node000016"><a xlink:title=" ">
<path fill="none" stroke="#63b8ff" d="M467.18,-257.25C472.91,-261.24 479.34,-265.88 485,-270.38 501.77,-283.68 503.69,-289.78 521,-302.38 522.52,-303.48 524.11,-304.58 525.73,-305.67"/>
<polygon fill="#63b8ff" stroke="#63b8ff" points="523.55,-308.43 533.88,-310.78 527.27,-302.5 523.55,-308.43"/>
</a>
</g>
</g>
<!-- Node20 -->
<g id="Node000020" class="node">
<title>Node20</title>
<g id="a_Node000020"><a xlink:href="app_8c.html#a0164717ce31d2df5fee540951caebe62" target="_top" xlink:title=" ">
<polygon fill="white" stroke="#666666" points="591,-293.75 521,-293.75 521,-273 591,-273 591,-293.75"/>
<text text-anchor="middle" x="556" y="-280.25" font-family="Helvetica,sans-Serif" font-size="10.00">w2c_0_181</text>
</a>
</g>
</g>
<!-- Node19&#45;&gt;Node20 -->
<g id="edge27_Node000019_Node000020" class="edge">
<title>Node19&#45;&gt;Node20</title>
<g id="a_edge27_Node000019_Node000020"><a xlink:title=" ">
<path fill="none" stroke="#63b8ff" d="M481.36,-257.18C491.61,-260.82 503.23,-264.96 514.16,-268.85"/>
<polygon fill="#63b8ff" stroke="#63b8ff" points="512.76,-272.06 523.36,-272.12 515.11,-265.47 512.76,-272.06"/>
</a>
</g>
</g>
<!-- Node21 -->
<g id="Node000021" class="node">
<title>Node21</title>
<g id="a_Node000021"><a xlink:href="app_8c.html#a48ecc1104e7460873bafe7d1b275e34e" target="_top" xlink:title=" ">
<polygon fill="white" stroke="#666666" points="588,-254.75 524,-254.75 524,-234 588,-234 588,-254.75"/>
<text text-anchor="middle" x="556" y="-241.25" font-family="Helvetica,sans-Serif" font-size="10.00">w2c_0_87</text>
</a>
</g>
</g>
<!-- Node19&#45;&gt;Node21 -->
<g id="edge29_Node000019_Node000021" class="edge">
<title>Node19&#45;&gt;Node21</title>
<g id="a_edge29_Node000019_Node000021"><a xlink:title=" ">
<path fill="none" stroke="#63b8ff" d="M484.19,-245.74C493.05,-245.57 502.76,-245.38 512.06,-245.2"/>
<polygon fill="#63b8ff" stroke="#63b8ff" points="512.09,-248.7 522.03,-245.01 511.96,-241.7 512.09,-248.7"/>
</a>
</g>
</g>
<!-- Node22 -->
<g id="Node000022" class="node">
<title>Node22</title>
<g id="a_Node000022"><a xlink:href="app_8c.html#aa583f182f69261eb6417ee28acf1bedb" target="_top" xlink:title=" ">
<polygon fill="white" stroke="#666666" points="589.88,-215.75 522.12,-215.75 522.12,-195 589.88,-195 589.88,-215.75"/>
<text text-anchor="middle" x="556" y="-202.25" font-family="Helvetica,sans-Serif" font-size="10.00">w2c__f416</text>
</a>
</g>
</g>
<!-- Node19&#45;&gt;Node22 -->
<g id="edge30_Node000019_Node000022" class="edge">
<title>Node19&#45;&gt;Node22</title>
<g id="a_edge30_Node000019_Node000022"><a xlink:title=" ">
<path fill="none" stroke="#63b8ff" d="M478.32,-235.6C490.17,-230.93 504.25,-225.38 517.08,-220.32"/>
<polygon fill="#63b8ff" stroke="#63b8ff" points="518.07,-223.7 526.09,-216.77 515.5,-217.18 518.07,-223.7"/>
</a>
</g>
</g>
<!-- Node24&#45;&gt;Node21 -->
<g id="edge37_Node000024_Node000021" class="edge">
<title>Node24&#45;&gt;Node21</title>
<g id="a_edge37_Node000024_Node000021"><a xlink:title=" ">
<path fill="none" stroke="#63b8ff" d="M458.97,-158.02C471.14,-173.8 495.62,-203.75 521,-224.38 522.3,-225.43 523.65,-226.46 525.05,-227.47"/>
<polygon fill="#63b8ff" stroke="#63b8ff" points="523.01,-230.32 533.29,-232.87 526.84,-224.46 523.01,-230.32"/>
</a>
</g>
</g>
<!-- Node24&#45;&gt;Node22 -->
<g id="edge39_Node000024_Node000022" class="edge">
<title>Node24&#45;&gt;Node22</title>
<g id="a_edge39_Node000024_Node000022"><a xlink:title=" ">
<path fill="none" stroke="#63b8ff" d="M470.08,-158.01C485.66,-166.71 507.96,-179.14 525.79,-189.09"/>
<polygon fill="#63b8ff" stroke="#63b8ff" points="523.93,-192.06 534.37,-193.87 527.34,-185.94 523.93,-192.06"/>
</a>
</g>
</g>
<!-- Node25 -->
<g id="Node000025" class="node">
<title>Node25</title>
<g id="a_Node000025"><a xlink:href="app_8c.html#a3e65bc9f5b394f44476d287d6618ad25" target="_top" xlink:title=" ">
<polygon fill="white" stroke="#666666" points="591,-137.75 521,-137.75 521,-117 591,-117 591,-137.75"/>
<text text-anchor="middle" x="556" y="-124.25" font-family="Helvetica,sans-Serif" font-size="10.00">w2c_0_191</text>
</a>
</g>
</g>
<!-- Node24&#45;&gt;Node25 -->
<g id="edge34_Node000024_Node000025" class="edge">
<title>Node24&#45;&gt;Node25</title>
<g id="a_edge34_Node000024_Node000025"><a xlink:title=" ">
<path fill="none" stroke="#63b8ff" d="M484.19,-140.99C492.29,-139.43 501.1,-137.74 509.66,-136.09"/>
<polygon fill="#63b8ff" stroke="#63b8ff" points="510.05,-139.58 519.21,-134.26 508.72,-132.71 510.05,-139.58"/>
</a>
</g>
</g>
<!-- Node26 -->
<g id="Node000026" class="node">
<title>Node26</title>
<g id="a_Node000026"><a xlink:href="app_8c.html#a9e9cea06ac123231363f2a4b4a18139d" target="_top" xlink:title=" ">
<polygon fill="white" stroke="#666666" points="588,-98.75 524,-98.75 524,-78 588,-78 588,-98.75"/>
<text text-anchor="middle" x="556" y="-85.25" font-family="Helvetica,sans-Serif" font-size="10.00">w2c_0_53</text>
</a>
</g>
</g>
<!-- Node24&#45;&gt;Node26 -->
<g id="edge35_Node000024_Node000026" class="edge">
<title>Node24&#45;&gt;Node26</title>
<g id="a_edge35_Node000024_Node000026"><a xlink:title=" ">
<path fill="none" stroke="#63b8ff" d="M470.08,-136.55C485.76,-127.65 508.24,-114.9 526.13,-104.75"/>
<polygon fill="#63b8ff" stroke="#63b8ff" points="527.76,-107.85 534.73,-99.87 524.3,-101.76 527.76,-107.85"/>
</a>
</g>
</g>
<!-- Node27 -->
<g id="Node000027" class="node">
<title>Node27</title>
<g id="a_Node000027"><a xlink:href="app_8c.html#a9c898a7672016900b5e7935a1439b9fa" target="_top" xlink:title=" ">
<polygon fill="white" stroke="#666666" points="588,-59.75 524,-59.75 524,-39 588,-39 588,-59.75"/>
<text text-anchor="middle" x="556" y="-46.25" font-family="Helvetica,sans-Serif" font-size="10.00">w2c_0_74</text>
</a>
</g>
</g>
<!-- Node24&#45;&gt;Node27 -->
<g id="edge36_Node000024_Node000027" class="edge">
<title>Node24&#45;&gt;Node27</title>
<g id="a_edge36_Node000024_Node000027"><a xlink:title=" ">
<path fill="none" stroke="#63b8ff" d="M458.94,-136.58C471.07,-120.58 495.51,-90.23 521,-69.38 522.26,-68.35 523.58,-67.33 524.93,-66.35"/>
<polygon fill="#63b8ff" stroke="#63b8ff" points="526.5,-69.51 532.92,-61.08 522.65,-63.66 526.5,-69.51"/>
</a>
</g>
</g>
<!-- Node28 -->
<g id="Node000028" class="node">
<title>Node28</title>
<g id="a_Node000028"><a xlink:href="app_8c.html#a56c009794d1fbbab448bd47443d67213" target="_top" xlink:title=" ">
<polygon fill="white" stroke="#666666" points="588,-176.75 524,-176.75 524,-156 588,-156 588,-176.75"/>
<text text-anchor="middle" x="556" y="-163.25" font-family="Helvetica,sans-Serif" font-size="10.00">w2c_0_95</text>
</a>
</g>
</g>
<!-- Node24&#45;&gt;Node28 -->
<g id="edge38_Node000024_Node000028" class="edge">
<title>Node24&#45;&gt;Node28</title>
<g id="a_edge38_Node000024_Node000028"><a xlink:title=" ">
<path fill="none" stroke="#63b8ff" d="M484.19,-153.44C493.15,-155.08 502.97,-156.87 512.37,-158.59"/>
<polygon fill="#63b8ff" stroke="#63b8ff" points="511.58,-162 522.05,-160.36 512.84,-155.11 511.58,-162"/>
</a>
</g>
</g>
<!-- Node24&#45;&gt;Node29 -->
<g id="edge40_Node000024_Node000029" class="edge">
<title>Node24&#45;&gt;Node29</title>
<g id="a_edge40_Node000024_Node000029"><a xlink:title=" ">
<path fill="none" stroke="#63b8ff" d="M455.17,-136.83C464.29,-114.8 487.9,-63.23 521,-30.38 521.87,-29.51 522.79,-28.66 523.75,-27.84"/>
<polygon fill="#63b8ff" stroke="#63b8ff" points="525.72,-30.73 531.75,-22.02 521.61,-25.07 525.72,-30.73"/>
</a>
</g>
</g>
<!-- Node30 -->
<g id="Node000030" class="node">
<title>Node30</title>
<g id="a_Node000030"><a xlink:href="app_8c.html#ae10979e670e507d4373e8cadcb3169aa" target="_top" xlink:title=" ">
<polygon fill="white" stroke="#666666" points="692.88,-20.75 628.88,-20.75 628.88,0 692.88,0 692.88,-20.75"/>
<text text-anchor="middle" x="660.88" y="-7.25" font-family="Helvetica,sans-Serif" font-size="10.00">quiet_nan</text>
</a>
</g>
</g>
<!-- Node29&#45;&gt;Node30 -->
<g id="edge41_Node000029_Node000030" class="edge">
<title>Node29&#45;&gt;Node30</title>
<g id="a_edge41_Node000029_Node000030"><a xlink:title=" ">
<path fill="none" stroke="#63b8ff" d="M590.12,-10.38C598.79,-10.38 608.26,-10.38 617.35,-10.38"/>
<polygon fill="#63b8ff" stroke="#63b8ff" points="617.06,-13.88 627.06,-10.38 617.06,-6.88 617.06,-13.88"/>
</a>
</g>
</g>
<!-- Node32 -->
<g id="Node000032" class="node">
<title>Node32</title>
<g id="a_Node000032"><a xlink:href="app_8c.html#a0d2b9d1e465bd8169ebd6cf08afb1f69" target="_top" xlink:title=" ">
<polygon fill="white" stroke="#666666" points="275.25,-600.75 207.5,-600.75 207.5,-580 275.25,-580 275.25,-600.75"/>
<text text-anchor="middle" x="241.38" y="-587.25" font-family="Helvetica,sans-Serif" font-size="10.00">w2c__f551</text>
</a>
</g>
</g>
<!-- Node31&#45;&gt;Node32 -->
<g id="edge47_Node000031_Node000032" class="edge">
<title>Node31&#45;&gt;Node32</title>
<g id="a_edge47_Node000031_Node000032"><a xlink:title=" ">
<path fill="none" stroke="#63b8ff" d="M171.94,-590.38C179.57,-590.38 187.81,-590.38 195.83,-590.38"/>
<polygon fill="#63b8ff" stroke="#63b8ff" points="195.82,-593.88 205.82,-590.38 195.82,-586.88 195.82,-593.88"/>
</a>
</g>
</g>
<!-- Node33 -->
<g id="Node000033" class="node">
<title>Node33</title>
<g id="a_Node000033"><a xlink:href="app_8c.html#a70885389166a2cbcb9e78af289ffa12e" target="_top" xlink:title=" ">
<polygon fill="white" stroke="#666666" points="379,-600.75 311.25,-600.75 311.25,-580 379,-580 379,-600.75"/>
<text text-anchor="middle" x="345.12" y="-587.25" font-family="Helvetica,sans-Serif" font-size="10.00">w2c__f577</text>
</a>
</g>
</g>
<!-- Node32&#45;&gt;Node33 -->
<g id="edge48_Node000032_Node000033" class="edge">
<title>Node32&#45;&gt;Node33</title>
<g id="a_edge48_Node000032_Node000033"><a xlink:title=" ">
<path fill="none" stroke="#63b8ff" d="M275.69,-590.38C283.32,-590.38 291.56,-590.38 299.58,-590.38"/>
<polygon fill="#63b8ff" stroke="#63b8ff" points="299.57,-593.88 309.57,-590.38 299.57,-586.88 299.57,-593.88"/>
</a>
</g>
</g>
<!-- Node33&#45;&gt;Node7 -->
<g id="edge49_Node000033_Node000007" class="edge">
<title>Node33&#45;&gt;Node7</title>
<g id="a_edge49_Node000033_Node000007"><a xlink:title=" ">
<path fill="none" stroke="#63b8ff" d="M374.78,-601.24C385.71,-605.38 398.35,-610.17 410.07,-614.62"/>
<polygon fill="#63b8ff" stroke="#63b8ff" points="408.49,-617.76 419.08,-618.03 410.97,-611.22 408.49,-617.76"/>
</a>
</g>
</g>
</g>
</svg>
