<?xml version="1.0" encoding="UTF-8" standalone="no"?>
<!DOCTYPE svg PUBLIC "-//W3C//DTD SVG 1.1//EN"
 "http://www.w3.org/Graphics/SVG/1.1/DTD/svg11.dtd">
<!-- Generated by graphviz version 12.2.1 (0)
 -->
<!-- Title: w2c__f270 Pages: 1 -->
<svg width="180pt" height="224pt"
 viewBox="0.00 0.00 179.50 223.75" xmlns="http://www.w3.org/2000/svg" xmlns:xlink="http://www.w3.org/1999/xlink">
<g id="graph0" class="graph" transform="scale(1 1) rotate(0) translate(4 219.75)">
<title>w2c__f270</title>
<!-- Node1 -->
<g id="Node000001" class="node">
<title>Node1</title>
<g id="a_Node000001"><a xlink:title=" ">
<polygon fill="#999999" stroke="#666666" points="171.5,-117.75 103.75,-117.75 103.75,-97 171.5,-97 171.5,-117.75"/>
<text text-anchor="middle" x="137.62" y="-104.25" font-family="Helvetica,sans-Serif" font-size="10.00">w2c__f270</text>
</a>
</g>
</g>
<!-- Node2 -->
<g id="Node000002" class="node">
<title>Node2</title>
<g id="a_Node000002"><a xlink:href="app_8c.html#a42ef30ce2bdf2afaf875b34a7e7c598e" target="_top" xlink:title=" ">
<polygon fill="white" stroke="#666666" points="67.75,-215.75 0,-215.75 0,-195 67.75,-195 67.75,-215.75"/>
<text text-anchor="middle" x="33.88" y="-202.25" font-family="Helvetica,sans-Serif" font-size="10.00">w2c__f199</text>
</a>
</g>
</g>
<!-- Node1&#45;&gt;Node2 -->
<g id="edge1_Node000001_Node000002" class="edge">
<title>Node1&#45;&gt;Node2</title>
<g id="a_edge1_Node000001_Node000002"><a xlink:title=" ">
<path fill="none" stroke="#63b8ff" d="M122,-127.04C108.95,-143.78 88.71,-167.83 67.75,-185.38 63.75,-188.72 59.14,-191.88 54.66,-194.67"/>
<polygon fill="#63b8ff" stroke="#63b8ff" points="124.6,-129.41 127.89,-119.33 119.04,-125.16 124.6,-129.41"/>
</a>
</g>
</g>
<!-- Node3 -->
<g id="Node000003" class="node">
<title>Node3</title>
<g id="a_Node000003"><a xlink:href="app_8c.html#a58616896084cfccb4c1460279b66b4a0" target="_top" xlink:title=" ">
<polygon fill="white" stroke="#666666" points="67.75,-176.75 0,-176.75 0,-156 67.75,-156 67.75,-176.75"/>
<text text-anchor="middle" x="33.88" y="-163.25" font-family="Helvetica,sans-Serif" font-size="10.00">w2c__f443</text>
</a>
</g>
</g>
<!-- Node1&#45;&gt;Node3 -->
<g id="edge2_Node000001_Node000003" class="edge">
<title>Node1&#45;&gt;Node3</title>
<g id="a_edge2_Node000001_Node000003"><a xlink:title=" ">
<path fill="none" stroke="#63b8ff" d="M108.24,-123.83C90.72,-133.99 68.73,-146.74 53.42,-155.62"/>
<polygon fill="#63b8ff" stroke="#63b8ff" points="109.76,-127 116.65,-118.96 106.25,-120.94 109.76,-127"/>
</a>
</g>
</g>
<!-- Node4 -->
<g id="Node000004" class="node">
<title>Node4</title>
<g id="a_Node000004"><a xlink:href="app_8c.html#a5733edede1839431dbbe6cc1782eb156" target="_top" xlink:title=" ">
<polygon fill="white" stroke="#666666" points="67.75,-137.75 0,-137.75 0,-117 67.75,-117 67.75,-137.75"/>
<text text-anchor="middle" x="33.88" y="-124.25" font-family="Helvetica,sans-Serif" font-size="10.00">w2c__f526</text>
</a>
</g>
</g>
<!-- Node1&#45;&gt;Node4 -->
<g id="edge3_Node000001_Node000004" class="edge">
<title>Node1&#45;&gt;Node4</title>
<g id="a_edge3_Node000001_Node000004"><a xlink:title=" ">
<path fill="none" stroke="#63b8ff" d="M92.07,-116.13C83.96,-117.73 75.63,-119.37 67.92,-120.88"/>
<polygon fill="#63b8ff" stroke="#63b8ff" points="92.69,-119.58 101.82,-114.22 91.34,-112.71 92.69,-119.58"/>
</a>
</g>
</g>
<!-- Node5 -->
<g id="Node000005" class="node">
<title>Node5</title>
<g id="a_Node000005"><a xlink:href="app_8c.html#a93cad146d390c85870394d12d70f1e9c" target="_top" xlink:title=" ">
<polygon fill="white" stroke="#666666" points="67.75,-98.75 0,-98.75 0,-78 67.75,-78 67.75,-98.75"/>
<text text-anchor="middle" x="33.88" y="-85.25" font-family="Helvetica,sans-Serif" font-size="10.00">w2c__f543</text>
</a>
</g>
</g>
<!-- Node1&#45;&gt;Node5 -->
<g id="edge4_Node000001_Node000005" class="edge">
<title>Node1&#45;&gt;Node5</title>
<g id="a_edge4_Node000001_Node000005"><a xlink:title=" ">
<path fill="none" stroke="#63b8ff" d="M92.07,-99.06C83.96,-97.54 75.63,-95.98 67.92,-94.55"/>
<polygon fill="#63b8ff" stroke="#63b8ff" points="91.35,-102.48 101.82,-100.88 92.63,-95.6 91.35,-102.48"/>
</a>
</g>
</g>
<!-- Node6 -->
<g id="Node000006" class="node">
<title>Node6</title>
<g id="a_Node000006"><a xlink:href="app_8c.html#a6b2e548a6d10560824eb045aa578909d" target="_top" xlink:title=" ">
<polygon fill="white" stroke="#666666" points="67.75,-59.75 0,-59.75 0,-39 67.75,-39 67.75,-59.75"/>
<text text-anchor="middle" x="33.88" y="-46.25" font-family="Helvetica,sans-Serif" font-size="10.00">w2c__f573</text>
</a>
</g>
</g>
<!-- Node1&#45;&gt;Node6 -->
<g id="edge5_Node000001_Node000006" class="edge">
<title>Node1&#45;&gt;Node6</title>
<g id="a_edge5_Node000001_Node000006"><a xlink:title=" ">
<path fill="none" stroke="#63b8ff" d="M108.31,-91.23C90.9,-81.31 69.08,-68.87 53.76,-60.14"/>
<polygon fill="#63b8ff" stroke="#63b8ff" points="106.23,-94.08 116.65,-95.99 109.69,-87.99 106.23,-94.08"/>
</a>
</g>
</g>
<!-- Node7 -->
<g id="Node000007" class="node">
<title>Node7</title>
<g id="a_Node000007"><a xlink:href="app_8c.html#ac6d3ac81e490ecb5c24f68f968595ab0" target="_top" xlink:title=" ">
<polygon fill="white" stroke="#666666" points="67.75,-20.75 0,-20.75 0,0 67.75,0 67.75,-20.75"/>
<text text-anchor="middle" x="33.88" y="-7.25" font-family="Helvetica,sans-Serif" font-size="10.00">w2c__f578</text>
</a>
</g>
</g>
<!-- Node1&#45;&gt;Node7 -->
<g id="edge6_Node000001_Node000007" class="edge">
<title>Node1&#45;&gt;Node7</title>
<g id="a_edge6_Node000001_Node000007"><a xlink:title=" ">
<path fill="none" stroke="#63b8ff" d="M121.74,-87.71C108.65,-71.2 88.5,-47.63 67.75,-30.38 63.74,-27.04 59.13,-23.88 54.64,-21.1"/>
<polygon fill="#63b8ff" stroke="#63b8ff" points="118.75,-89.56 127.65,-95.31 124.28,-85.27 118.75,-89.56"/>
</a>
</g>
</g>
</g>
</svg>
