<?xml version="1.0" encoding="UTF-8" standalone="no"?>
<!DOCTYPE svg PUBLIC "-//W3C//DTD SVG 1.1//EN"
 "http://www.w3.org/Graphics/SVG/1.1/DTD/svg11.dtd">
<!-- Generated by graphviz version 12.2.1 (0)
 -->
<!-- Title: w2c__f282 Pages: 1 -->
<svg width="574pt" height="224pt"
 viewBox="0.00 0.00 574.25 223.75" xmlns="http://www.w3.org/2000/svg" xmlns:xlink="http://www.w3.org/1999/xlink">
<g id="graph0" class="graph" transform="scale(1 1) rotate(0) translate(4 219.75)">
<title>w2c__f282</title>
<!-- Node1 -->
<g id="Node000001" class="node">
<title>Node1</title>
<g id="a_Node000001"><a xlink:title=" ">
<polygon fill="#999999" stroke="#666666" points="566.25,-138.75 498.5,-138.75 498.5,-118 566.25,-118 566.25,-138.75"/>
<text text-anchor="middle" x="532.38" y="-125.25" font-family="Helvetica,sans-Serif" font-size="10.00">w2c__f282</text>
</a>
</g>
</g>
<!-- Node2 -->
<g id="Node000002" class="node">
<title>Node2</title>
<g id="a_Node000002"><a xlink:href="app_8c.html#aac449994afd8488e2efd16fb19f0ecb1" target="_top" xlink:title=" ">
<polygon fill="white" stroke="#666666" points="358.75,-176.75 291,-176.75 291,-156 358.75,-156 358.75,-176.75"/>
<text text-anchor="middle" x="324.88" y="-163.25" font-family="Helvetica,sans-Serif" font-size="10.00">w2c__f336</text>
</a>
</g>
</g>
<!-- Node1&#45;&gt;Node2 -->
<g id="edge1_Node000001_Node000002" class="edge">
<title>Node1&#45;&gt;Node2</title>
<g id="a_edge1_Node000001_Node000002"><a xlink:title=" ">
<path fill="none" stroke="#63b8ff" d="M487.38,-141.43C479.16,-143.61 470.6,-145.7 462.5,-147.38 427.56,-154.59 387.01,-159.84 359.21,-162.97"/>
<polygon fill="#63b8ff" stroke="#63b8ff" points="488.13,-144.86 496.85,-138.84 486.28,-138.11 488.13,-144.86"/>
</a>
</g>
</g>
<!-- Node8 -->
<g id="Node000008" class="node">
<title>Node8</title>
<g id="a_Node000008"><a xlink:href="app_8c.html#aeab4e13658d5ad2b48b7d44acc8ceaf7" target="_top" xlink:title=" ">
<polygon fill="white" stroke="#666666" points="462.5,-138.75 394.75,-138.75 394.75,-118 462.5,-118 462.5,-138.75"/>
<text text-anchor="middle" x="428.62" y="-125.25" font-family="Helvetica,sans-Serif" font-size="10.00">w2c__f453</text>
</a>
</g>
</g>
<!-- Node1&#45;&gt;Node8 -->
<g id="edge7_Node000001_Node000008" class="edge">
<title>Node1&#45;&gt;Node8</title>
<g id="a_edge7_Node000001_Node000008"><a xlink:title=" ">
<path fill="none" stroke="#63b8ff" d="M486.82,-128.38C478.71,-128.38 470.38,-128.38 462.67,-128.38"/>
<polygon fill="#63b8ff" stroke="#63b8ff" points="486.54,-131.88 496.54,-128.38 486.54,-124.88 486.54,-131.88"/>
</a>
</g>
</g>
<!-- Node9 -->
<g id="Node000009" class="node">
<title>Node9</title>
<g id="a_Node000009"><a xlink:href="app_8c.html#a5623d4dbccf798b86433dae3f3d5983f" target="_top" xlink:title=" ">
<polygon fill="white" stroke="#666666" points="462.5,-99.75 394.75,-99.75 394.75,-79 462.5,-79 462.5,-99.75"/>
<text text-anchor="middle" x="428.62" y="-86.25" font-family="Helvetica,sans-Serif" font-size="10.00">w2c__f465</text>
</a>
</g>
</g>
<!-- Node1&#45;&gt;Node9 -->
<g id="edge8_Node000001_Node000009" class="edge">
<title>Node1&#45;&gt;Node9</title>
<g id="a_edge8_Node000001_Node000009"><a xlink:title=" ">
<path fill="none" stroke="#63b8ff" d="M492.35,-113.42C480.85,-109.01 468.49,-104.27 457.82,-100.18"/>
<polygon fill="#63b8ff" stroke="#63b8ff" points="491.03,-116.66 501.62,-116.97 493.53,-110.12 491.03,-116.66"/>
</a>
</g>
</g>
<!-- Node3 -->
<g id="Node000003" class="node">
<title>Node3</title>
<g id="a_Node000003"><a xlink:href="app_8c.html#ac863989691d4c389f80374209c220171" target="_top" xlink:title=" ">
<polygon fill="white" stroke="#666666" points="252.38,-215.75 189.88,-215.75 189.88,-195 252.38,-195 252.38,-215.75"/>
<text text-anchor="middle" x="221.12" y="-202.25" font-family="Helvetica,sans-Serif" font-size="10.00">w2c__c_0</text>
</a>
</g>
</g>
<!-- Node2&#45;&gt;Node3 -->
<g id="edge2_Node000002_Node000003" class="edge">
<title>Node2&#45;&gt;Node3</title>
<g id="a_edge2_Node000002_Node000003"><a xlink:title=" ">
<path fill="none" stroke="#63b8ff" d="M284.85,-181.33C273.35,-185.74 260.99,-190.48 250.32,-194.57"/>
<polygon fill="#63b8ff" stroke="#63b8ff" points="286.03,-184.63 294.12,-177.78 283.53,-178.09 286.03,-184.63"/>
</a>
</g>
</g>
<!-- Node5 -->
<g id="Node000005" class="node">
<title>Node5</title>
<g id="a_Node000005"><a xlink:href="app_8c.html#a8f312e54d76623b1ae169d5d19736ee0" target="_top" xlink:title=" ">
<polygon fill="white" stroke="#666666" points="255,-176.75 187.25,-176.75 187.25,-156 255,-156 255,-176.75"/>
<text text-anchor="middle" x="221.12" y="-163.25" font-family="Helvetica,sans-Serif" font-size="10.00">w2c__f363</text>
</a>
</g>
</g>
<!-- Node2&#45;&gt;Node5 -->
<g id="edge4_Node000002_Node000005" class="edge">
<title>Node2&#45;&gt;Node5</title>
<g id="a_edge4_Node000002_Node000005"><a xlink:title=" ">
<path fill="none" stroke="#63b8ff" d="M279.32,-166.38C271.21,-166.38 262.88,-166.38 255.17,-166.38"/>
<polygon fill="#63b8ff" stroke="#63b8ff" points="279.04,-169.88 289.04,-166.38 279.04,-162.88 279.04,-169.88"/>
</a>
</g>
</g>
<!-- Node4 -->
<g id="Node000004" class="node">
<title>Node4</title>
<g id="a_Node000004"><a xlink:href="app_8c.html#ab1e039392ea68017ab8a6063263b147d" target="_top" xlink:title=" ">
<polygon fill="white" stroke="#666666" points="145.25,-215.75 94,-215.75 94,-195 145.25,-195 145.25,-215.75"/>
<text text-anchor="middle" x="119.62" y="-202.25" font-family="Helvetica,sans-Serif" font-size="10.00">w2c__c</text>
</a>
</g>
</g>
<!-- Node3&#45;&gt;Node4 -->
<g id="edge3_Node000003_Node000004" class="edge">
<title>Node3&#45;&gt;Node4</title>
<g id="a_edge3_Node000003_Node000004"><a xlink:title=" ">
<path fill="none" stroke="#63b8ff" d="M178.21,-205.38C167.15,-205.38 155.55,-205.38 145.68,-205.38"/>
<polygon fill="#63b8ff" stroke="#63b8ff" points="177.95,-208.88 187.95,-205.38 177.95,-201.88 177.95,-208.88"/>
</a>
</g>
</g>
<!-- Node6 -->
<g id="Node000006" class="node">
<title>Node6</title>
<g id="a_Node000006"><a xlink:href="app_8c.html#a26657f10c51f10eeb57a4d27606a6885" target="_top" xlink:title=" ">
<polygon fill="white" stroke="#666666" points="151.25,-176.75 88,-176.75 88,-156 151.25,-156 151.25,-176.75"/>
<text text-anchor="middle" x="119.62" y="-163.25" font-family="Helvetica,sans-Serif" font-size="10.00">w2c__b_0</text>
</a>
</g>
</g>
<!-- Node5&#45;&gt;Node6 -->
<g id="edge5_Node000005_Node000006" class="edge">
<title>Node5&#45;&gt;Node6</title>
<g id="a_edge5_Node000005_Node000006"><a xlink:title=" ">
<path fill="none" stroke="#63b8ff" d="M175.71,-166.38C167.57,-166.38 159.23,-166.38 151.59,-166.38"/>
<polygon fill="#63b8ff" stroke="#63b8ff" points="175.48,-169.88 185.48,-166.38 175.48,-162.88 175.48,-169.88"/>
</a>
</g>
</g>
<!-- Node7 -->
<g id="Node000007" class="node">
<title>Node7</title>
<g id="a_Node000007"><a xlink:href="app_8c.html#a683a2045346c3209e9dac20d55933c7d" target="_top" xlink:title=" ">
<polygon fill="white" stroke="#666666" points="52,-176.75 0,-176.75 0,-156 52,-156 52,-176.75"/>
<text text-anchor="middle" x="26" y="-163.25" font-family="Helvetica,sans-Serif" font-size="10.00">w2c__b</text>
</a>
</g>
</g>
<!-- Node6&#45;&gt;Node7 -->
<g id="edge6_Node000006_Node000007" class="edge">
<title>Node6&#45;&gt;Node7</title>
<g id="a_edge6_Node000006_Node000007"><a xlink:title=" ">
<path fill="none" stroke="#63b8ff" d="M76.21,-166.38C68,-166.38 59.65,-166.38 52.21,-166.38"/>
<polygon fill="#63b8ff" stroke="#63b8ff" points="76.09,-169.88 86.09,-166.38 76.09,-162.88 76.09,-169.88"/>
</a>
</g>
</g>
<!-- Node9&#45;&gt;Node2 -->
<g id="edge9_Node000009_Node000002" class="edge">
<title>Node9&#45;&gt;Node2</title>
<g id="a_edge9_Node000009_Node000002"><a xlink:title=" ">
<path fill="none" stroke="#63b8ff" d="M399.5,-106.11C397.88,-107.19 396.28,-108.28 394.75,-109.38 373.76,-124.32 351.03,-143.85 337.65,-155.74"/>
<polygon fill="#63b8ff" stroke="#63b8ff" points="401.06,-109.26 407.62,-100.94 397.3,-103.36 401.06,-109.26"/>
</a>
</g>
</g>
<!-- Node10 -->
<g id="Node000010" class="node">
<title>Node10</title>
<g id="a_Node000010"><a xlink:href="app_8c.html#a25b43587c2e4a3802eb8256f469ef5ab" target="_top" xlink:title=" ">
<polygon fill="white" stroke="#666666" points="358.75,-98.75 291,-98.75 291,-78 358.75,-78 358.75,-98.75"/>
<text text-anchor="middle" x="324.88" y="-85.25" font-family="Helvetica,sans-Serif" font-size="10.00">w2c__f531</text>
</a>
</g>
</g>
<!-- Node9&#45;&gt;Node10 -->
<g id="edge10_Node000009_Node000010" class="edge">
<title>Node9&#45;&gt;Node10</title>
<g id="a_edge10_Node000009_Node000010"><a xlink:title=" ">
<path fill="none" stroke="#63b8ff" d="M383.07,-88.94C374.96,-88.86 366.63,-88.78 358.92,-88.7"/>
<polygon fill="#63b8ff" stroke="#63b8ff" points="382.76,-92.43 392.79,-89.03 382.83,-85.43 382.76,-92.43"/>
</a>
</g>
</g>
<!-- Node11 -->
<g id="Node000011" class="node">
<title>Node11</title>
<g id="a_Node000011"><a xlink:href="app_8c.html#a9a9275782eb97e6525073f99d900b184" target="_top" xlink:title=" ">
<polygon fill="white" stroke="#666666" points="255,-137.75 187.25,-137.75 187.25,-117 255,-117 255,-137.75"/>
<text text-anchor="middle" x="221.12" y="-124.25" font-family="Helvetica,sans-Serif" font-size="10.00">w2c__f217</text>
</a>
</g>
</g>
<!-- Node10&#45;&gt;Node11 -->
<g id="edge11_Node000010_Node000011" class="edge">
<title>Node10&#45;&gt;Node11</title>
<g id="a_edge11_Node000010_Node000011"><a xlink:title=" ">
<path fill="none" stroke="#63b8ff" d="M284.85,-103.33C273.35,-107.74 260.99,-112.48 250.32,-116.57"/>
<polygon fill="#63b8ff" stroke="#63b8ff" points="286.03,-106.63 294.12,-99.78 283.53,-100.09 286.03,-106.63"/>
</a>
</g>
</g>
<!-- Node12 -->
<g id="Node000012" class="node">
<title>Node12</title>
<g id="a_Node000012"><a xlink:href="app_8c.html#a0b804502e637fa2897681579fae890af" target="_top" xlink:title=" ">
<polygon fill="white" stroke="#666666" points="255,-98.75 187.25,-98.75 187.25,-78 255,-78 255,-98.75"/>
<text text-anchor="middle" x="221.12" y="-85.25" font-family="Helvetica,sans-Serif" font-size="10.00">w2c__f233</text>
</a>
</g>
</g>
<!-- Node10&#45;&gt;Node12 -->
<g id="edge12_Node000010_Node000012" class="edge">
<title>Node10&#45;&gt;Node12</title>
<g id="a_edge12_Node000010_Node000012"><a xlink:title=" ">
<path fill="none" stroke="#63b8ff" d="M279.32,-88.38C271.21,-88.38 262.88,-88.38 255.17,-88.38"/>
<polygon fill="#63b8ff" stroke="#63b8ff" points="279.04,-91.88 289.04,-88.38 279.04,-84.88 279.04,-91.88"/>
</a>
</g>
</g>
<!-- Node13 -->
<g id="Node000013" class="node">
<title>Node13</title>
<g id="a_Node000013"><a xlink:href="app_8c.html#a13a282f739b6944dad1977039f3fadde" target="_top" xlink:title=" ">
<polygon fill="white" stroke="#666666" points="255,-59.75 187.25,-59.75 187.25,-39 255,-39 255,-59.75"/>
<text text-anchor="middle" x="221.12" y="-46.25" font-family="Helvetica,sans-Serif" font-size="10.00">w2c__f420</text>
</a>
</g>
</g>
<!-- Node10&#45;&gt;Node13 -->
<g id="edge13_Node000010_Node000013" class="edge">
<title>Node10&#45;&gt;Node13</title>
<g id="a_edge13_Node000010_Node000013"><a xlink:title=" ">
<path fill="none" stroke="#63b8ff" d="M284.85,-73.42C273.35,-69.01 260.99,-64.27 250.32,-60.18"/>
<polygon fill="#63b8ff" stroke="#63b8ff" points="283.53,-76.66 294.12,-76.97 286.03,-70.12 283.53,-76.66"/>
</a>
</g>
</g>
<!-- Node14 -->
<g id="Node000014" class="node">
<title>Node14</title>
<g id="a_Node000014"><a xlink:href="app_8c.html#a268eebcea573fce720709e588959d401" target="_top" xlink:title=" ">
<polygon fill="white" stroke="#666666" points="255,-20.75 187.25,-20.75 187.25,0 255,0 255,-20.75"/>
<text text-anchor="middle" x="221.12" y="-7.25" font-family="Helvetica,sans-Serif" font-size="10.00">w2c__f568</text>
</a>
</g>
</g>
<!-- Node10&#45;&gt;Node14 -->
<g id="edge14_Node000010_Node000014" class="edge">
<title>Node10&#45;&gt;Node14</title>
<g id="a_edge14_Node000010_Node000014"><a xlink:title=" ">
<path fill="none" stroke="#63b8ff" d="M303.71,-69.97C290.32,-58.12 272.12,-42.68 255,-30.38 250.55,-27.18 245.58,-23.98 240.88,-21.1"/>
<polygon fill="#63b8ff" stroke="#63b8ff" points="301.22,-72.45 311.01,-76.52 305.9,-67.24 301.22,-72.45"/>
</a>
</g>
</g>
</g>
</svg>
