<?xml version="1.0" encoding="UTF-8" standalone="no"?>
<!DOCTYPE svg PUBLIC "-//W3C//DTD SVG 1.1//EN"
 "http://www.w3.org/Graphics/SVG/1.1/DTD/svg11.dtd">
<!-- Generated by graphviz version 12.2.1 (0)
 -->
<!-- Title: wasm_sqrt Pages: 1 -->
<svg width="783pt" height="529pt"
 viewBox="0.00 0.00 783.25 528.75" xmlns="http://www.w3.org/2000/svg" xmlns:xlink="http://www.w3.org/1999/xlink">
<g id="graph0" class="graph" transform="scale(1 1) rotate(0) translate(4 524.75)">
<title>wasm_sqrt</title>
<!-- Node1 -->
<g id="Node000001" class="node">
<title>Node1</title>
<g id="a_Node000001"><a xlink:title=" ">
<polygon fill="#999999" stroke="#666666" points="775.25,-192.75 706,-192.75 706,-172 775.25,-172 775.25,-192.75"/>
<text text-anchor="middle" x="740.62" y="-179.25" font-family="Helvetica,sans-Serif" font-size="10.00">wasm_sqrt</text>
</a>
</g>
</g>
<!-- Node2 -->
<g id="Node000002" class="node">
<title>Node2</title>
<g id="a_Node000002"><a xlink:href="app_8c.html#ab5a3eb75567e85becd3ea69f3cefe6c1" target="_top" xlink:title=" ">
<polygon fill="white" stroke="#666666" points="670,-482.75 602.25,-482.75 602.25,-462 670,-462 670,-482.75"/>
<text text-anchor="middle" x="636.12" y="-469.25" font-family="Helvetica,sans-Serif" font-size="10.00">w2c__f285</text>
</a>
</g>
</g>
<!-- Node1&#45;&gt;Node2 -->
<g id="edge1_Node000001_Node000002" class="edge">
<title>Node1&#45;&gt;Node2</title>
<g id="a_edge1_Node000001_Node000002"><a xlink:title=" ">
<path fill="none" stroke="#63b8ff" d="M739.36,-204.57C737.7,-253.98 727.59,-374.75 670,-452.38 667.37,-455.92 663.92,-458.96 660.23,-461.53"/>
<polygon fill="#63b8ff" stroke="#63b8ff" points="742.86,-204.71 739.6,-194.63 735.86,-204.55 742.86,-204.71"/>
</a>
</g>
</g>
<!-- Node3 -->
<g id="Node000003" class="node">
<title>Node3</title>
<g id="a_Node000003"><a xlink:href="app_8c.html#adb357000a4d9b03118bb4a6a7435605d" target="_top" xlink:title=" ">
<polygon fill="white" stroke="#666666" points="566.25,-520.75 498.5,-520.75 498.5,-500 566.25,-500 566.25,-520.75"/>
<text text-anchor="middle" x="532.38" y="-507.25" font-family="Helvetica,sans-Serif" font-size="10.00">w2c__f404</text>
</a>
</g>
</g>
<!-- Node1&#45;&gt;Node3 -->
<g id="edge19_Node000001_Node000003" class="edge">
<title>Node1&#45;&gt;Node3</title>
<g id="a_edge19_Node000001_Node000003"><a xlink:title=" ">
<path fill="none" stroke="#63b8ff" d="M737.85,-204.48C732.22,-268.53 712.6,-452.19 670,-491.38 642.42,-516.75 597.5,-518.2 566.75,-515.49"/>
<polygon fill="#63b8ff" stroke="#63b8ff" points="741.33,-204.8 738.68,-194.54 734.36,-204.21 741.33,-204.8"/>
</a>
</g>
</g>
<!-- Node5 -->
<g id="Node000005" class="node">
<title>Node5</title>
<g id="a_Node000005"><a xlink:href="app_8c.html#a4781ae499fbba2d7100668851ce51ad1" target="_top" xlink:title=" ">
<polygon fill="white" stroke="#666666" points="670,-404.75 602.25,-404.75 602.25,-384 670,-384 670,-404.75"/>
<text text-anchor="middle" x="636.12" y="-391.25" font-family="Helvetica,sans-Serif" font-size="10.00">w2c__f323</text>
</a>
</g>
</g>
<!-- Node1&#45;&gt;Node5 -->
<g id="edge4_Node000001_Node000005" class="edge">
<title>Node1&#45;&gt;Node5</title>
<g id="a_edge4_Node000001_Node000005"><a xlink:title=" ">
<path fill="none" stroke="#63b8ff" d="M729.46,-203.4C707.96,-247.88 658.5,-350.17 642.34,-383.59"/>
<polygon fill="#63b8ff" stroke="#63b8ff" points="732.54,-205.07 733.74,-194.54 726.24,-202.02 732.54,-205.07"/>
</a>
</g>
</g>
<!-- Node8 -->
<g id="Node000008" class="node">
<title>Node8</title>
<g id="a_Node000008"><a xlink:href="app_8c.html#aac449994afd8488e2efd16fb19f0ecb1" target="_top" xlink:title=" ">
<polygon fill="white" stroke="#666666" points="358.75,-195.75 291,-195.75 291,-175 358.75,-175 358.75,-195.75"/>
<text text-anchor="middle" x="324.88" y="-182.25" font-family="Helvetica,sans-Serif" font-size="10.00">w2c__f336</text>
</a>
</g>
</g>
<!-- Node1&#45;&gt;Node8 -->
<g id="edge18_Node000001_Node000008" class="edge">
<title>Node1&#45;&gt;Node8</title>
<g id="a_edge18_Node000001_Node000008"><a xlink:title=" ">
<path fill="none" stroke="#63b8ff" d="M694.51,-173.89C614.34,-159.47 450.3,-133.07 394.75,-147.38 374.38,-152.62 353.6,-165.31 340.26,-174.58"/>
<polygon fill="#63b8ff" stroke="#63b8ff" points="693.75,-177.31 704.21,-175.66 695,-170.43 693.75,-177.31"/>
</a>
</g>
</g>
<!-- Node18 -->
<g id="Node000018" class="node">
<title>Node18</title>
<g id="a_Node000018"><a xlink:href="app_8c.html#a2ed61b7ee4e5a17be88e493a38bae83d" target="_top" xlink:title=" ">
<polygon fill="white" stroke="#666666" points="670,-59.75 602.25,-59.75 602.25,-39 670,-39 670,-59.75"/>
<text text-anchor="middle" x="636.12" y="-46.25" font-family="Helvetica,sans-Serif" font-size="10.00">w2c__f405</text>
</a>
</g>
</g>
<!-- Node1&#45;&gt;Node18 -->
<g id="edge20_Node000001_Node000018" class="edge">
<title>Node1&#45;&gt;Node18</title>
<g id="a_edge20_Node000001_Node000018"><a xlink:title=" ">
<path fill="none" stroke="#63b8ff" d="M729.29,-161.44C717.19,-138.24 695.5,-100.52 670,-73.38 665.45,-68.53 659.81,-64.01 654.49,-60.23"/>
<polygon fill="#63b8ff" stroke="#63b8ff" points="726.1,-162.89 733.76,-170.21 732.34,-159.71 726.1,-162.89"/>
</a>
</g>
</g>
<!-- Node19 -->
<g id="Node000019" class="node">
<title>Node19</title>
<g id="a_Node000019"><a xlink:href="app_8c.html#a9a6678ec111966f9ad398c4ddc0f4ce7" target="_top" xlink:title=" ">
<polygon fill="white" stroke="#666666" points="566.25,-59.75 498.5,-59.75 498.5,-39 566.25,-39 566.25,-59.75"/>
<text text-anchor="middle" x="532.38" y="-46.25" font-family="Helvetica,sans-Serif" font-size="10.00">w2c__f472</text>
</a>
</g>
</g>
<!-- Node1&#45;&gt;Node19 -->
<g id="edge25_Node000001_Node000019" class="edge">
<title>Node1&#45;&gt;Node19</title>
<g id="a_edge25_Node000001_Node000019"><a xlink:title=" ">
<path fill="none" stroke="#63b8ff" d="M722.19,-163.36C708.81,-149.49 689.39,-130.83 670,-117.38 634.62,-92.84 589.11,-72.05 560.58,-60.14"/>
<polygon fill="#63b8ff" stroke="#63b8ff" points="719.6,-165.72 729.01,-170.59 724.69,-160.91 719.6,-165.72"/>
</a>
</g>
</g>
<!-- Node21 -->
<g id="Node000021" class="node">
<title>Node21</title>
<g id="a_Node000021"><a xlink:href="app_8c.html#a083dd2487e591fd27285cd1c1789b457" target="_top" xlink:title=" ">
<polygon fill="white" stroke="#666666" points="670,-20.75 602.25,-20.75 602.25,0 670,0 670,-20.75"/>
<text text-anchor="middle" x="636.12" y="-7.25" font-family="Helvetica,sans-Serif" font-size="10.00">w2c__f412</text>
</a>
</g>
</g>
<!-- Node1&#45;&gt;Node21 -->
<g id="edge23_Node000001_Node000021" class="edge">
<title>Node1&#45;&gt;Node21</title>
<g id="a_edge23_Node000001_Node000021"><a xlink:title=" ">
<path fill="none" stroke="#63b8ff" d="M734.05,-160.51C725.06,-128.76 704.74,-69.44 670,-30.38 666.89,-26.88 663.03,-23.8 659.05,-21.17"/>
<polygon fill="#63b8ff" stroke="#63b8ff" points="730.66,-161.38 736.65,-170.12 737.42,-159.56 730.66,-161.38"/>
</a>
</g>
</g>
<!-- Node22 -->
<g id="Node000022" class="node">
<title>Node22</title>
<g id="a_Node000022"><a xlink:href="app_8c.html#a3528ca1eb262ff9291f92bf37d2fc18a" target="_top" xlink:title=" ">
<polygon fill="white" stroke="#666666" points="670,-443.75 602.25,-443.75 602.25,-423 670,-423 670,-443.75"/>
<text text-anchor="middle" x="636.12" y="-430.25" font-family="Helvetica,sans-Serif" font-size="10.00">w2c__f492</text>
</a>
</g>
</g>
<!-- Node1&#45;&gt;Node22 -->
<g id="edge26_Node000001_Node000022" class="edge">
<title>Node1&#45;&gt;Node22</title>
<g id="a_edge26_Node000001_Node000022"><a xlink:title=" ">
<path fill="none" stroke="#63b8ff" d="M738.2,-204.01C734.32,-247.86 720.16,-348.55 670,-413.38 667.22,-416.97 663.6,-420.06 659.78,-422.67"/>
<polygon fill="#63b8ff" stroke="#63b8ff" points="741.67,-204.52 738.96,-194.28 734.7,-203.98 741.67,-204.52"/>
</a>
</g>
</g>
<!-- Node23 -->
<g id="Node000023" class="node">
<title>Node23</title>
<g id="a_Node000023"><a xlink:href="app_8c.html#a73bc9653d585d26dc44456eaf4998ba5" target="_top" xlink:title=" ">
<polygon fill="white" stroke="#666666" points="670,-214.75 602.25,-214.75 602.25,-194 670,-194 670,-214.75"/>
<text text-anchor="middle" x="636.12" y="-201.25" font-family="Helvetica,sans-Serif" font-size="10.00">w2c__f513</text>
</a>
</g>
</g>
<!-- Node1&#45;&gt;Node23 -->
<g id="edge28_Node000001_Node000023" class="edge">
<title>Node1&#45;&gt;Node23</title>
<g id="a_edge28_Node000001_Node000023"><a xlink:title=" ">
<path fill="none" stroke="#63b8ff" d="M694.76,-192C686.52,-193.77 678.06,-195.59 670.24,-197.27"/>
<polygon fill="#63b8ff" stroke="#63b8ff" points="695.26,-195.48 704.3,-189.96 693.79,-188.63 695.26,-195.48"/>
</a>
</g>
</g>
<!-- Node26 -->
<g id="Node000026" class="node">
<title>Node26</title>
<g id="a_Node000026"><a xlink:href="app_8c.html#a27ec3034e861eede96fabd221dec28d1" target="_top" xlink:title=" ">
<polygon fill="white" stroke="#666666" points="566.25,-103.75 498.5,-103.75 498.5,-83 566.25,-83 566.25,-103.75"/>
<text text-anchor="middle" x="532.38" y="-90.25" font-family="Helvetica,sans-Serif" font-size="10.00">w2c__f554</text>
</a>
</g>
</g>
<!-- Node1&#45;&gt;Node26 -->
<g id="edge35_Node000001_Node000026" class="edge">
<title>Node1&#45;&gt;Node26</title>
<g id="a_edge35_Node000001_Node000026"><a xlink:title=" ">
<path fill="none" stroke="#63b8ff" d="M707.31,-166.62C695.62,-161.03 682.27,-154.79 670,-149.38 632.6,-132.86 588.77,-115.19 561.04,-104.21"/>
<polygon fill="#63b8ff" stroke="#63b8ff" points="705.61,-169.68 716.14,-170.86 708.64,-163.37 705.61,-169.68"/>
</a>
</g>
</g>
<!-- Node2&#45;&gt;Node3 -->
<g id="edge2_Node000002_Node000003" class="edge">
<title>Node2&#45;&gt;Node3</title>
<g id="a_edge2_Node000002_Node000003"><a xlink:title=" ">
<path fill="none" stroke="#63b8ff" d="M595.51,-487.17C584.46,-491.3 572.65,-495.71 562.33,-499.56"/>
<polygon fill="#63b8ff" stroke="#63b8ff" points="596.68,-490.47 604.82,-483.69 594.23,-483.91 596.68,-490.47"/>
</a>
</g>
</g>
<!-- Node4 -->
<g id="Node000004" class="node">
<title>Node4</title>
<g id="a_Node000004"><a xlink:href="app_8c.html#a05d83e696cfaa26355c9732ee9ea4cd0" target="_top" xlink:title=" ">
<polygon fill="white" stroke="#666666" points="462.5,-520.75 394.75,-520.75 394.75,-500 462.5,-500 462.5,-520.75"/>
<text text-anchor="middle" x="428.62" y="-507.25" font-family="Helvetica,sans-Serif" font-size="10.00">w2c__f454</text>
</a>
</g>
</g>
<!-- Node3&#45;&gt;Node4 -->
<g id="edge3_Node000003_Node000004" class="edge">
<title>Node3&#45;&gt;Node4</title>
<g id="a_edge3_Node000003_Node000004"><a xlink:title=" ">
<path fill="none" stroke="#63b8ff" d="M486.82,-510.38C478.71,-510.38 470.38,-510.38 462.67,-510.38"/>
<polygon fill="#63b8ff" stroke="#63b8ff" points="486.54,-513.88 496.54,-510.38 486.54,-506.88 486.54,-513.88"/>
</a>
</g>
</g>
<!-- Node6 -->
<g id="Node000006" class="node">
<title>Node6</title>
<g id="a_Node000006"><a xlink:href="app_8c.html#a5e6d37c539a2e51904358f57d24ae63c" target="_top" xlink:title=" ">
<polygon fill="white" stroke="#666666" points="566.25,-481.75 498.5,-481.75 498.5,-461 566.25,-461 566.25,-481.75"/>
<text text-anchor="middle" x="532.38" y="-468.25" font-family="Helvetica,sans-Serif" font-size="10.00">w2c__f207</text>
</a>
</g>
</g>
<!-- Node5&#45;&gt;Node6 -->
<g id="edge5_Node000005_Node000006" class="edge">
<title>Node5&#45;&gt;Node6</title>
<g id="a_edge5_Node000005_Node000006"><a xlink:title=" ">
<path fill="none" stroke="#63b8ff" d="M606.39,-411.39C604.97,-412.37 603.59,-413.37 602.25,-414.38 584.9,-427.41 583.04,-433.62 566.25,-447.38 560.67,-451.94 554.32,-456.68 548.7,-460.73"/>
<polygon fill="#63b8ff" stroke="#63b8ff" points="608.19,-414.4 614.67,-406.01 604.37,-408.53 608.19,-414.4"/>
</a>
</g>
</g>
<!-- Node7 -->
<g id="Node000007" class="node">
<title>Node7</title>
<g id="a_Node000007"><a xlink:href="app_8c.html#a9a9275782eb97e6525073f99d900b184" target="_top" xlink:title=" ">
<polygon fill="white" stroke="#666666" points="462.5,-406.75 394.75,-406.75 394.75,-386 462.5,-386 462.5,-406.75"/>
<text text-anchor="middle" x="428.62" y="-393.25" font-family="Helvetica,sans-Serif" font-size="10.00">w2c__f217</text>
</a>
</g>
</g>
<!-- Node5&#45;&gt;Node7 -->
<g id="edge6_Node000005_Node000007" class="edge">
<title>Node5&#45;&gt;Node7</title>
<g id="a_edge6_Node000005_Node000007"><a xlink:title=" ">
<path fill="none" stroke="#63b8ff" d="M590.75,-394.81C552.34,-395.18 497.65,-395.71 462.9,-396.05"/>
<polygon fill="#63b8ff" stroke="#63b8ff" points="590.63,-398.31 600.59,-394.71 590.56,-391.31 590.63,-398.31"/>
</a>
</g>
</g>
<!-- Node5&#45;&gt;Node8 -->
<g id="edge7_Node000005_Node000008" class="edge">
<title>Node5&#45;&gt;Node8</title>
<g id="a_edge7_Node000005_Node000008"><a xlink:title=" ">
<path fill="none" stroke="#63b8ff" d="M602.38,-409.8C552.32,-430.86 456.14,-461.07 394.75,-415.38 357.97,-388 333.54,-237.81 327.4,-196.12"/>
<polygon fill="#63b8ff" stroke="#63b8ff" points="603.75,-413.02 611.52,-405.82 600.95,-406.6 603.75,-413.02"/>
</a>
</g>
</g>
<!-- Node14 -->
<g id="Node000014" class="node">
<title>Node14</title>
<g id="a_Node000014"><a xlink:href="app_8c.html#a25b43587c2e4a3802eb8256f469ef5ab" target="_top" xlink:title=" ">
<polygon fill="white" stroke="#666666" points="566.25,-367.75 498.5,-367.75 498.5,-347 566.25,-347 566.25,-367.75"/>
<text text-anchor="middle" x="532.38" y="-354.25" font-family="Helvetica,sans-Serif" font-size="10.00">w2c__f531</text>
</a>
</g>
</g>
<!-- Node5&#45;&gt;Node14 -->
<g id="edge13_Node000005_Node000014" class="edge">
<title>Node5&#45;&gt;Node14</title>
<g id="a_edge13_Node000005_Node000014"><a xlink:title=" ">
<path fill="none" stroke="#63b8ff" d="M594.69,-379.67C584.09,-375.82 572.85,-371.73 562.94,-368.13"/>
<polygon fill="#63b8ff" stroke="#63b8ff" points="593.4,-382.93 604,-383.06 595.8,-376.35 593.4,-382.93"/>
</a>
</g>
</g>
<!-- Node9 -->
<g id="Node000009" class="node">
<title>Node9</title>
<g id="a_Node000009"><a xlink:href="app_8c.html#ac863989691d4c389f80374209c220171" target="_top" xlink:title=" ">
<polygon fill="white" stroke="#666666" points="252.38,-215.75 189.88,-215.75 189.88,-195 252.38,-195 252.38,-215.75"/>
<text text-anchor="middle" x="221.12" y="-202.25" font-family="Helvetica,sans-Serif" font-size="10.00">w2c__c_0</text>
</a>
</g>
</g>
<!-- Node8&#45;&gt;Node9 -->
<g id="edge8_Node000008_Node000009" class="edge">
<title>Node8&#45;&gt;Node9</title>
<g id="a_edge8_Node000008_Node000009"><a xlink:title=" ">
<path fill="none" stroke="#63b8ff" d="M279.4,-194.12C270.41,-195.88 261.15,-197.7 252.76,-199.35"/>
<polygon fill="#63b8ff" stroke="#63b8ff" points="279.94,-197.58 289.07,-192.22 278.59,-190.71 279.94,-197.58"/>
</a>
</g>
</g>
<!-- Node11 -->
<g id="Node000011" class="node">
<title>Node11</title>
<g id="a_Node000011"><a xlink:href="app_8c.html#a8f312e54d76623b1ae169d5d19736ee0" target="_top" xlink:title=" ">
<polygon fill="white" stroke="#666666" points="255,-176.75 187.25,-176.75 187.25,-156 255,-156 255,-176.75"/>
<text text-anchor="middle" x="221.12" y="-163.25" font-family="Helvetica,sans-Serif" font-size="10.00">w2c__f363</text>
</a>
</g>
</g>
<!-- Node8&#45;&gt;Node11 -->
<g id="edge10_Node000008_Node000011" class="edge">
<title>Node8&#45;&gt;Node11</title>
<g id="a_edge10_Node000008_Node000011"><a xlink:title=" ">
<path fill="none" stroke="#63b8ff" d="M279.32,-177.06C271.21,-175.54 262.88,-173.98 255.17,-172.55"/>
<polygon fill="#63b8ff" stroke="#63b8ff" points="278.6,-180.48 289.07,-178.88 279.88,-173.6 278.6,-180.48"/>
</a>
</g>
</g>
<!-- Node10 -->
<g id="Node000010" class="node">
<title>Node10</title>
<g id="a_Node000010"><a xlink:href="app_8c.html#ab1e039392ea68017ab8a6063263b147d" target="_top" xlink:title=" ">
<polygon fill="white" stroke="#666666" points="145.25,-215.75 94,-215.75 94,-195 145.25,-195 145.25,-215.75"/>
<text text-anchor="middle" x="119.62" y="-202.25" font-family="Helvetica,sans-Serif" font-size="10.00">w2c__c</text>
</a>
</g>
</g>
<!-- Node9&#45;&gt;Node10 -->
<g id="edge9_Node000009_Node000010" class="edge">
<title>Node9&#45;&gt;Node10</title>
<g id="a_edge9_Node000009_Node000010"><a xlink:title=" ">
<path fill="none" stroke="#63b8ff" d="M178.21,-205.38C167.15,-205.38 155.55,-205.38 145.68,-205.38"/>
<polygon fill="#63b8ff" stroke="#63b8ff" points="177.95,-208.88 187.95,-205.38 177.95,-201.88 177.95,-208.88"/>
</a>
</g>
</g>
<!-- Node12 -->
<g id="Node000012" class="node">
<title>Node12</title>
<g id="a_Node000012"><a xlink:href="app_8c.html#a26657f10c51f10eeb57a4d27606a6885" target="_top" xlink:title=" ">
<polygon fill="white" stroke="#666666" points="151.25,-176.75 88,-176.75 88,-156 151.25,-156 151.25,-176.75"/>
<text text-anchor="middle" x="119.62" y="-163.25" font-family="Helvetica,sans-Serif" font-size="10.00">w2c__b_0</text>
</a>
</g>
</g>
<!-- Node11&#45;&gt;Node12 -->
<g id="edge11_Node000011_Node000012" class="edge">
<title>Node11&#45;&gt;Node12</title>
<g id="a_edge11_Node000011_Node000012"><a xlink:title=" ">
<path fill="none" stroke="#63b8ff" d="M175.71,-166.38C167.57,-166.38 159.23,-166.38 151.59,-166.38"/>
<polygon fill="#63b8ff" stroke="#63b8ff" points="175.48,-169.88 185.48,-166.38 175.48,-162.88 175.48,-169.88"/>
</a>
</g>
</g>
<!-- Node13 -->
<g id="Node000013" class="node">
<title>Node13</title>
<g id="a_Node000013"><a xlink:href="app_8c.html#a683a2045346c3209e9dac20d55933c7d" target="_top" xlink:title=" ">
<polygon fill="white" stroke="#666666" points="52,-176.75 0,-176.75 0,-156 52,-156 52,-176.75"/>
<text text-anchor="middle" x="26" y="-163.25" font-family="Helvetica,sans-Serif" font-size="10.00">w2c__b</text>
</a>
</g>
</g>
<!-- Node12&#45;&gt;Node13 -->
<g id="edge12_Node000012_Node000013" class="edge">
<title>Node12&#45;&gt;Node13</title>
<g id="a_edge12_Node000012_Node000013"><a xlink:title=" ">
<path fill="none" stroke="#63b8ff" d="M76.21,-166.38C68,-166.38 59.65,-166.38 52.21,-166.38"/>
<polygon fill="#63b8ff" stroke="#63b8ff" points="76.09,-169.88 86.09,-166.38 76.09,-162.88 76.09,-169.88"/>
</a>
</g>
</g>
<!-- Node14&#45;&gt;Node7 -->
<g id="edge14_Node000014_Node000007" class="edge">
<title>Node14&#45;&gt;Node7</title>
<g id="a_edge14_Node000014_Node000007"><a xlink:title=" ">
<path fill="none" stroke="#63b8ff" d="M492.35,-372.33C480.85,-376.74 468.49,-381.48 457.82,-385.57"/>
<polygon fill="#63b8ff" stroke="#63b8ff" points="493.53,-375.63 501.62,-368.78 491.03,-369.09 493.53,-375.63"/>
</a>
</g>
</g>
<!-- Node15 -->
<g id="Node000015" class="node">
<title>Node15</title>
<g id="a_Node000015"><a xlink:href="app_8c.html#a0b804502e637fa2897681579fae890af" target="_top" xlink:title=" ">
<polygon fill="white" stroke="#666666" points="462.5,-367.75 394.75,-367.75 394.75,-347 462.5,-347 462.5,-367.75"/>
<text text-anchor="middle" x="428.62" y="-354.25" font-family="Helvetica,sans-Serif" font-size="10.00">w2c__f233</text>
</a>
</g>
</g>
<!-- Node14&#45;&gt;Node15 -->
<g id="edge15_Node000014_Node000015" class="edge">
<title>Node14&#45;&gt;Node15</title>
<g id="a_edge15_Node000014_Node000015"><a xlink:title=" ">
<path fill="none" stroke="#63b8ff" d="M486.82,-357.38C478.71,-357.38 470.38,-357.38 462.67,-357.38"/>
<polygon fill="#63b8ff" stroke="#63b8ff" points="486.54,-360.88 496.54,-357.38 486.54,-353.88 486.54,-360.88"/>
</a>
</g>
</g>
<!-- Node16 -->
<g id="Node000016" class="node">
<title>Node16</title>
<g id="a_Node000016"><a xlink:href="app_8c.html#a13a282f739b6944dad1977039f3fadde" target="_top" xlink:title=" ">
<polygon fill="white" stroke="#666666" points="462.5,-328.75 394.75,-328.75 394.75,-308 462.5,-308 462.5,-328.75"/>
<text text-anchor="middle" x="428.62" y="-315.25" font-family="Helvetica,sans-Serif" font-size="10.00">w2c__f420</text>
</a>
</g>
</g>
<!-- Node14&#45;&gt;Node16 -->
<g id="edge16_Node000014_Node000016" class="edge">
<title>Node14&#45;&gt;Node16</title>
<g id="a_edge16_Node000014_Node000016"><a xlink:title=" ">
<path fill="none" stroke="#63b8ff" d="M492.35,-342.42C480.85,-338.01 468.49,-333.27 457.82,-329.18"/>
<polygon fill="#63b8ff" stroke="#63b8ff" points="491.03,-345.66 501.62,-345.97 493.53,-339.12 491.03,-345.66"/>
</a>
</g>
</g>
<!-- Node17 -->
<g id="Node000017" class="node">
<title>Node17</title>
<g id="a_Node000017"><a xlink:href="app_8c.html#a268eebcea573fce720709e588959d401" target="_top" xlink:title=" ">
<polygon fill="white" stroke="#666666" points="462.5,-252.75 394.75,-252.75 394.75,-232 462.5,-232 462.5,-252.75"/>
<text text-anchor="middle" x="428.62" y="-239.25" font-family="Helvetica,sans-Serif" font-size="10.00">w2c__f568</text>
</a>
</g>
</g>
<!-- Node14&#45;&gt;Node17 -->
<g id="edge17_Node000014_Node000017" class="edge">
<title>Node14&#45;&gt;Node17</title>
<g id="a_edge17_Node000014_Node000017"><a xlink:title=" ">
<path fill="none" stroke="#63b8ff" d="M514.51,-338.32C492.9,-313.89 456.16,-272.37 438.99,-252.96"/>
<polygon fill="#63b8ff" stroke="#63b8ff" points="511.73,-340.46 520.98,-345.63 516.98,-335.82 511.73,-340.46"/>
</a>
</g>
</g>
<!-- Node18&#45;&gt;Node19 -->
<g id="edge21_Node000018_Node000019" class="edge">
<title>Node18&#45;&gt;Node19</title>
<g id="a_edge21_Node000018_Node000019"><a xlink:title=" ">
<path fill="none" stroke="#63b8ff" d="M590.57,-49.38C582.46,-49.38 574.13,-49.38 566.42,-49.38"/>
<polygon fill="#63b8ff" stroke="#63b8ff" points="590.29,-52.88 600.29,-49.38 590.29,-45.88 590.29,-52.88"/>
</a>
</g>
</g>
<!-- Node20 -->
<g id="Node000020" class="node">
<title>Node20</title>
<g id="a_Node000020"><a xlink:href="app_8c.html#a980a551daeb256397f01e6faa91d49db" target="_top" xlink:title=" ">
<polygon fill="white" stroke="#666666" points="462.5,-59.75 394.75,-59.75 394.75,-39 462.5,-39 462.5,-59.75"/>
<text text-anchor="middle" x="428.62" y="-46.25" font-family="Helvetica,sans-Serif" font-size="10.00">w2c__f403</text>
</a>
</g>
</g>
<!-- Node19&#45;&gt;Node20 -->
<g id="edge22_Node000019_Node000020" class="edge">
<title>Node19&#45;&gt;Node20</title>
<g id="a_edge22_Node000019_Node000020"><a xlink:title=" ">
<path fill="none" stroke="#63b8ff" d="M486.82,-49.38C478.71,-49.38 470.38,-49.38 462.67,-49.38"/>
<polygon fill="#63b8ff" stroke="#63b8ff" points="486.54,-52.88 496.54,-49.38 486.54,-45.88 486.54,-52.88"/>
</a>
</g>
</g>
<!-- Node21&#45;&gt;Node19 -->
<g id="edge24_Node000021_Node000019" class="edge">
<title>Node21&#45;&gt;Node19</title>
<g id="a_edge24_Node000021_Node000019"><a xlink:title=" ">
<path fill="none" stroke="#63b8ff" d="M596.1,-25.33C584.6,-29.74 572.24,-34.48 561.57,-38.57"/>
<polygon fill="#63b8ff" stroke="#63b8ff" points="597.28,-28.63 605.37,-21.78 594.78,-22.09 597.28,-28.63"/>
</a>
</g>
</g>
<!-- Node22&#45;&gt;Node3 -->
<g id="edge27_Node000022_Node000003" class="edge">
<title>Node22&#45;&gt;Node3</title>
<g id="a_edge27_Node000022_Node000003"><a xlink:title=" ">
<path fill="none" stroke="#63b8ff" d="M606.22,-450.37C604.85,-451.36 603.52,-452.36 602.25,-453.38 584.31,-467.67 584.19,-476.08 566.25,-490.38 562.17,-493.62 557.53,-496.75 553.04,-499.52"/>
<polygon fill="#63b8ff" stroke="#63b8ff" points="607.81,-453.52 614.2,-445.06 603.93,-447.69 607.81,-453.52"/>
</a>
</g>
</g>
<!-- Node23&#45;&gt;Node8 -->
<g id="edge29_Node000023_Node000008" class="edge">
<title>Node23&#45;&gt;Node8</title>
<g id="a_edge29_Node000023_Node000008"><a xlink:title=" ">
<path fill="none" stroke="#63b8ff" d="M609.1,-221.08C563.88,-247.83 468.59,-294.11 394.75,-261.38 364.31,-247.88 341.59,-213.55 331.55,-196.02"/>
<polygon fill="#63b8ff" stroke="#63b8ff" points="610.7,-224.2 617.42,-216.02 607.06,-218.22 610.7,-224.2"/>
</a>
</g>
</g>
<!-- Node24 -->
<g id="Node000024" class="node">
<title>Node24</title>
<g id="a_Node000024"><a xlink:href="app_8c.html#a850a9c260115672f978d3685bca1703b" target="_top" xlink:title=" ">
<polygon fill="white" stroke="#666666" points="566.25,-214.75 498.5,-214.75 498.5,-194 566.25,-194 566.25,-214.75"/>
<text text-anchor="middle" x="532.38" y="-201.25" font-family="Helvetica,sans-Serif" font-size="10.00">w2c__f540</text>
</a>
</g>
</g>
<!-- Node23&#45;&gt;Node24 -->
<g id="edge30_Node000023_Node000024" class="edge">
<title>Node23&#45;&gt;Node24</title>
<g id="a_edge30_Node000023_Node000024"><a xlink:title=" ">
<path fill="none" stroke="#63b8ff" d="M590.57,-204.38C582.46,-204.38 574.13,-204.38 566.42,-204.38"/>
<polygon fill="#63b8ff" stroke="#63b8ff" points="590.29,-207.88 600.29,-204.38 590.29,-200.88 590.29,-207.88"/>
</a>
</g>
</g>
<!-- Node24&#45;&gt;Node8 -->
<g id="edge31_Node000024_Node000008" class="edge">
<title>Node24&#45;&gt;Node8</title>
<g id="a_edge31_Node000024_Node000008"><a xlink:title=" ">
<path fill="none" stroke="#63b8ff" d="M487,-200.27C448.59,-196.72 393.9,-191.66 359.15,-188.45"/>
<polygon fill="#63b8ff" stroke="#63b8ff" points="486.57,-203.75 496.85,-201.18 487.22,-196.78 486.57,-203.75"/>
</a>
</g>
</g>
<!-- Node24&#45;&gt;Node17 -->
<g id="edge34_Node000024_Node000017" class="edge">
<title>Node24&#45;&gt;Node17</title>
<g id="a_edge34_Node000024_Node000017"><a xlink:title=" ">
<path fill="none" stroke="#63b8ff" d="M491.76,-219.17C480.71,-223.3 468.9,-227.71 458.58,-231.56"/>
<polygon fill="#63b8ff" stroke="#63b8ff" points="492.93,-222.47 501.07,-215.69 490.48,-215.91 492.93,-222.47"/>
</a>
</g>
</g>
<!-- Node25 -->
<g id="Node000025" class="node">
<title>Node25</title>
<g id="a_Node000025"><a xlink:href="app_8c.html#aa3f7fb2ace6a87e61320ef7401dfd66f" target="_top" xlink:title=" ">
<polygon fill="white" stroke="#666666" points="462.5,-176.75 394.75,-176.75 394.75,-156 462.5,-156 462.5,-176.75"/>
<text text-anchor="middle" x="428.62" y="-163.25" font-family="Helvetica,sans-Serif" font-size="10.00">w2c__f489</text>
</a>
</g>
</g>
<!-- Node24&#45;&gt;Node25 -->
<g id="edge32_Node000024_Node000025" class="edge">
<title>Node24&#45;&gt;Node25</title>
<g id="a_edge32_Node000024_Node000025"><a xlink:title=" ">
<path fill="none" stroke="#63b8ff" d="M491.76,-189.58C480.71,-185.45 468.9,-181.04 458.58,-177.19"/>
<polygon fill="#63b8ff" stroke="#63b8ff" points="490.48,-192.84 501.07,-193.06 492.93,-186.28 490.48,-192.84"/>
</a>
</g>
</g>
<!-- Node25&#45;&gt;Node8 -->
<g id="edge33_Node000025_Node000008" class="edge">
<title>Node25&#45;&gt;Node8</title>
<g id="a_edge33_Node000025_Node000008"><a xlink:title=" ">
<path fill="none" stroke="#63b8ff" d="M383.07,-174.69C374.96,-176.21 366.63,-177.77 358.92,-179.2"/>
<polygon fill="#63b8ff" stroke="#63b8ff" points="383.63,-178.15 392.82,-172.87 382.35,-171.27 383.63,-178.15"/>
</a>
</g>
</g>
<!-- Node26&#45;&gt;Node8 -->
<g id="edge36_Node000026_Node000008" class="edge">
<title>Node26&#45;&gt;Node8</title>
<g id="a_edge36_Node000026_Node000008"><a xlink:title=" ">
<path fill="none" stroke="#63b8ff" d="M486.7,-93.12C458.88,-94.64 423.11,-99.73 394.75,-114.38 366.98,-128.71 343.88,-158.55 332.85,-174.6"/>
<polygon fill="#63b8ff" stroke="#63b8ff" points="486.73,-96.62 496.59,-92.73 486.46,-89.63 486.73,-96.62"/>
</a>
</g>
</g>
<!-- Node26&#45;&gt;Node26 -->
<g id="edge37_Node000026_Node000026" class="edge">
<title>Node26&#45;&gt;Node26</title>
<g id="a_edge37_Node000026_Node000026"><a xlink:title=" ">
<path fill="none" stroke="#63b8ff" d="M550.41,-115.56C547.86,-119.23 541.85,-121.75 532.38,-121.75 514.54,-121.75 508.97,-112.81 515.66,-104.15"/>
<polygon fill="#63b8ff" stroke="#63b8ff" points="553.89,-115.18 549.27,-105.65 546.94,-115.99 553.89,-115.18"/>
</a>
</g>
</g>
</g>
</svg>
