<?xml version="1.0" encoding="UTF-8" standalone="no"?>
<!DOCTYPE svg PUBLIC "-//W3C//DTD SVG 1.1//EN"
 "http://www.w3.org/Graphics/SVG/1.1/DTD/svg11.dtd">
<!-- Generated by graphviz version 12.2.1 (0)
 -->
<!-- Title: w2c__f243 Pages: 1 -->
<svg width="782pt" height="256pt"
 viewBox="0.00 0.00 781.75 255.52" xmlns="http://www.w3.org/2000/svg" xmlns:xlink="http://www.w3.org/1999/xlink">
<g id="graph0" class="graph" transform="scale(1 1) rotate(0) translate(4 251.52)">
<title>w2c__f243</title>
<!-- Node1 -->
<g id="Node000001" class="node">
<title>Node1</title>
<g id="a_Node000001"><a xlink:title=" ">
<polygon fill="#999999" stroke="#666666" points="773.75,-173.75 706,-173.75 706,-153 773.75,-153 773.75,-173.75"/>
<text text-anchor="middle" x="739.88" y="-160.25" font-family="Helvetica,sans-Serif" font-size="10.00">w2c__f243</text>
</a>
</g>
</g>
<!-- Node2 -->
<g id="Node000002" class="node">
<title>Node2</title>
<g id="a_Node000002"><a xlink:href="app_8c.html#ac33f7fe7abe076e97dc158576d1c5e0e" target="_top" xlink:title=" ">
<polygon fill="white" stroke="#666666" points="566.25,-239.75 498.5,-239.75 498.5,-219 566.25,-219 566.25,-239.75"/>
<text text-anchor="middle" x="532.38" y="-226.25" font-family="Helvetica,sans-Serif" font-size="10.00">w2c__f216</text>
</a>
</g>
</g>
<!-- Node1&#45;&gt;Node2 -->
<g id="edge1_Node000001_Node000002" class="edge">
<title>Node1&#45;&gt;Node2</title>
<g id="a_edge1_Node000001_Node000002"><a xlink:title=" ">
<path fill="none" stroke="#63b8ff" d="M727,-183.87C715.17,-202.03 695.17,-227.32 670,-238.38 637.03,-252.86 595.23,-247.05 566.6,-239.89"/>
<polygon fill="#63b8ff" stroke="#63b8ff" points="729.92,-185.8 732.2,-175.45 723.96,-182.12 729.92,-185.8"/>
</a>
</g>
</g>
<!-- Node9 -->
<g id="Node000009" class="node">
<title>Node9</title>
<g id="a_Node000009"><a xlink:href="app_8c.html#abbf857a88f7c54684871b047308367f6" target="_top" xlink:title=" ">
<polygon fill="white" stroke="#666666" points="670,-211.75 602.25,-211.75 602.25,-191 670,-191 670,-211.75"/>
<text text-anchor="middle" x="636.12" y="-198.25" font-family="Helvetica,sans-Serif" font-size="10.00">w2c__f241</text>
</a>
</g>
</g>
<!-- Node1&#45;&gt;Node9 -->
<g id="edge8_Node000001_Node000009" class="edge">
<title>Node1&#45;&gt;Node9</title>
<g id="a_edge8_Node000001_Node000009"><a xlink:title=" ">
<path fill="none" stroke="#63b8ff" d="M699.26,-178.17C688.21,-182.3 676.4,-186.71 666.08,-190.56"/>
<polygon fill="#63b8ff" stroke="#63b8ff" points="700.43,-181.47 708.57,-174.69 697.98,-174.91 700.43,-181.47"/>
</a>
</g>
</g>
<!-- Node10 -->
<g id="Node000010" class="node">
<title>Node10</title>
<g id="a_Node000010"><a xlink:href="app_8c.html#aa3051a0f0feb078aee84a108594b3b11" target="_top" xlink:title=" ">
<polygon fill="white" stroke="#666666" points="566.25,-173.75 498.5,-173.75 498.5,-153 566.25,-153 566.25,-173.75"/>
<text text-anchor="middle" x="532.38" y="-160.25" font-family="Helvetica,sans-Serif" font-size="10.00">w2c__f245</text>
</a>
</g>
</g>
<!-- Node1&#45;&gt;Node10 -->
<g id="edge10_Node000001_Node000010" class="edge">
<title>Node1&#45;&gt;Node10</title>
<g id="a_edge10_Node000001_Node000010"><a xlink:title=" ">
<path fill="none" stroke="#63b8ff" d="M694.5,-163.38C656.09,-163.38 601.4,-163.38 566.65,-163.38"/>
<polygon fill="#63b8ff" stroke="#63b8ff" points="694.34,-166.88 704.34,-163.38 694.34,-159.88 694.34,-166.88"/>
</a>
</g>
</g>
<!-- Node11 -->
<g id="Node000011" class="node">
<title>Node11</title>
<g id="a_Node000011"><a xlink:href="app_8c.html#a243c366f4be19d5552664f987a05465a" target="_top" xlink:title=" ">
<polygon fill="white" stroke="#666666" points="670,-135.75 602.25,-135.75 602.25,-115 670,-115 670,-135.75"/>
<text text-anchor="middle" x="636.12" y="-122.25" font-family="Helvetica,sans-Serif" font-size="10.00">w2c__f481</text>
</a>
</g>
</g>
<!-- Node1&#45;&gt;Node11 -->
<g id="edge12_Node000001_Node000011" class="edge">
<title>Node1&#45;&gt;Node11</title>
<g id="a_edge12_Node000001_Node000011"><a xlink:title=" ">
<path fill="none" stroke="#63b8ff" d="M699.26,-148.58C688.21,-144.45 676.4,-140.04 666.08,-136.19"/>
<polygon fill="#63b8ff" stroke="#63b8ff" points="697.98,-151.84 708.57,-152.06 700.43,-145.28 697.98,-151.84"/>
</a>
</g>
</g>
<!-- Node12 -->
<g id="Node000012" class="node">
<title>Node12</title>
<g id="a_Node000012"><a xlink:href="app_8c.html#a73bc9653d585d26dc44456eaf4998ba5" target="_top" xlink:title=" ">
<polygon fill="white" stroke="#666666" points="670,-96.75 602.25,-96.75 602.25,-76 670,-76 670,-96.75"/>
<text text-anchor="middle" x="636.12" y="-83.25" font-family="Helvetica,sans-Serif" font-size="10.00">w2c__f513</text>
</a>
</g>
</g>
<!-- Node1&#45;&gt;Node12 -->
<g id="edge14_Node000001_Node000012" class="edge">
<title>Node1&#45;&gt;Node12</title>
<g id="a_edge14_Node000001_Node000012"><a xlink:title=" ">
<path fill="none" stroke="#63b8ff" d="M718.66,-145.33C705.25,-133.69 687.05,-118.52 670,-106.38 665.54,-103.2 660.56,-100 655.86,-97.13"/>
<polygon fill="#63b8ff" stroke="#63b8ff" points="716.14,-147.77 725.97,-151.74 720.76,-142.51 716.14,-147.77"/>
</a>
</g>
</g>
<!-- Node3 -->
<g id="Node000003" class="node">
<title>Node3</title>
<g id="a_Node000003"><a xlink:href="app_8c.html#aac449994afd8488e2efd16fb19f0ecb1" target="_top" xlink:title=" ">
<polygon fill="white" stroke="#666666" points="358.75,-135.75 291,-135.75 291,-115 358.75,-115 358.75,-135.75"/>
<text text-anchor="middle" x="324.88" y="-122.25" font-family="Helvetica,sans-Serif" font-size="10.00">w2c__f336</text>
</a>
</g>
</g>
<!-- Node2&#45;&gt;Node3 -->
<g id="edge2_Node000002_Node000003" class="edge">
<title>Node2&#45;&gt;Node3</title>
<g id="a_edge2_Node000002_Node000003"><a xlink:title=" ">
<path fill="none" stroke="#63b8ff" d="M499.88,-213.44C457.62,-192.05 383.64,-154.61 347.29,-136.21"/>
<polygon fill="#63b8ff" stroke="#63b8ff" points="498.3,-216.56 508.81,-217.95 501.46,-210.32 498.3,-216.56"/>
</a>
</g>
</g>
<!-- Node4 -->
<g id="Node000004" class="node">
<title>Node4</title>
<g id="a_Node000004"><a xlink:href="app_8c.html#ac863989691d4c389f80374209c220171" target="_top" xlink:title=" ">
<polygon fill="white" stroke="#666666" points="252.38,-155.75 189.88,-155.75 189.88,-135 252.38,-135 252.38,-155.75"/>
<text text-anchor="middle" x="221.12" y="-142.25" font-family="Helvetica,sans-Serif" font-size="10.00">w2c__c_0</text>
</a>
</g>
</g>
<!-- Node3&#45;&gt;Node4 -->
<g id="edge3_Node000003_Node000004" class="edge">
<title>Node3&#45;&gt;Node4</title>
<g id="a_edge3_Node000003_Node000004"><a xlink:title=" ">
<path fill="none" stroke="#63b8ff" d="M279.4,-134.12C270.41,-135.88 261.15,-137.7 252.76,-139.35"/>
<polygon fill="#63b8ff" stroke="#63b8ff" points="279.94,-137.58 289.07,-132.22 278.59,-130.71 279.94,-137.58"/>
</a>
</g>
</g>
<!-- Node6 -->
<g id="Node000006" class="node">
<title>Node6</title>
<g id="a_Node000006"><a xlink:href="app_8c.html#a8f312e54d76623b1ae169d5d19736ee0" target="_top" xlink:title=" ">
<polygon fill="white" stroke="#666666" points="255,-116.75 187.25,-116.75 187.25,-96 255,-96 255,-116.75"/>
<text text-anchor="middle" x="221.12" y="-103.25" font-family="Helvetica,sans-Serif" font-size="10.00">w2c__f363</text>
</a>
</g>
</g>
<!-- Node3&#45;&gt;Node6 -->
<g id="edge5_Node000003_Node000006" class="edge">
<title>Node3&#45;&gt;Node6</title>
<g id="a_edge5_Node000003_Node000006"><a xlink:title=" ">
<path fill="none" stroke="#63b8ff" d="M279.32,-117.06C271.21,-115.54 262.88,-113.98 255.17,-112.55"/>
<polygon fill="#63b8ff" stroke="#63b8ff" points="278.6,-120.48 289.07,-118.88 279.88,-113.6 278.6,-120.48"/>
</a>
</g>
</g>
<!-- Node5 -->
<g id="Node000005" class="node">
<title>Node5</title>
<g id="a_Node000005"><a xlink:href="app_8c.html#ab1e039392ea68017ab8a6063263b147d" target="_top" xlink:title=" ">
<polygon fill="white" stroke="#666666" points="145.25,-155.75 94,-155.75 94,-135 145.25,-135 145.25,-155.75"/>
<text text-anchor="middle" x="119.62" y="-142.25" font-family="Helvetica,sans-Serif" font-size="10.00">w2c__c</text>
</a>
</g>
</g>
<!-- Node4&#45;&gt;Node5 -->
<g id="edge4_Node000004_Node000005" class="edge">
<title>Node4&#45;&gt;Node5</title>
<g id="a_edge4_Node000004_Node000005"><a xlink:title=" ">
<path fill="none" stroke="#63b8ff" d="M178.21,-145.38C167.15,-145.38 155.55,-145.38 145.68,-145.38"/>
<polygon fill="#63b8ff" stroke="#63b8ff" points="177.95,-148.88 187.95,-145.38 177.95,-141.88 177.95,-148.88"/>
</a>
</g>
</g>
<!-- Node7 -->
<g id="Node000007" class="node">
<title>Node7</title>
<g id="a_Node000007"><a xlink:href="app_8c.html#a26657f10c51f10eeb57a4d27606a6885" target="_top" xlink:title=" ">
<polygon fill="white" stroke="#666666" points="151.25,-116.75 88,-116.75 88,-96 151.25,-96 151.25,-116.75"/>
<text text-anchor="middle" x="119.62" y="-103.25" font-family="Helvetica,sans-Serif" font-size="10.00">w2c__b_0</text>
</a>
</g>
</g>
<!-- Node6&#45;&gt;Node7 -->
<g id="edge6_Node000006_Node000007" class="edge">
<title>Node6&#45;&gt;Node7</title>
<g id="a_edge6_Node000006_Node000007"><a xlink:title=" ">
<path fill="none" stroke="#63b8ff" d="M175.71,-106.38C167.57,-106.38 159.23,-106.38 151.59,-106.38"/>
<polygon fill="#63b8ff" stroke="#63b8ff" points="175.48,-109.88 185.48,-106.38 175.48,-102.88 175.48,-109.88"/>
</a>
</g>
</g>
<!-- Node8 -->
<g id="Node000008" class="node">
<title>Node8</title>
<g id="a_Node000008"><a xlink:href="app_8c.html#a683a2045346c3209e9dac20d55933c7d" target="_top" xlink:title=" ">
<polygon fill="white" stroke="#666666" points="52,-116.75 0,-116.75 0,-96 52,-96 52,-116.75"/>
<text text-anchor="middle" x="26" y="-103.25" font-family="Helvetica,sans-Serif" font-size="10.00">w2c__b</text>
</a>
</g>
</g>
<!-- Node7&#45;&gt;Node8 -->
<g id="edge7_Node000007_Node000008" class="edge">
<title>Node7&#45;&gt;Node8</title>
<g id="a_edge7_Node000007_Node000008"><a xlink:title=" ">
<path fill="none" stroke="#63b8ff" d="M76.21,-106.38C68,-106.38 59.65,-106.38 52.21,-106.38"/>
<polygon fill="#63b8ff" stroke="#63b8ff" points="76.09,-109.88 86.09,-106.38 76.09,-102.88 76.09,-109.88"/>
</a>
</g>
</g>
<!-- Node9&#45;&gt;Node9 -->
<g id="edge9_Node000009_Node000009" class="edge">
<title>Node9&#45;&gt;Node9</title>
<g id="a_edge9_Node000009_Node000009"><a xlink:title=" ">
<path fill="none" stroke="#63b8ff" d="M654.16,-223.56C651.61,-227.23 645.6,-229.75 636.12,-229.75 618.29,-229.75 612.72,-220.81 619.41,-212.15"/>
<polygon fill="#63b8ff" stroke="#63b8ff" points="657.64,-223.18 653.02,-213.65 650.69,-223.99 657.64,-223.18"/>
</a>
</g>
</g>
<!-- Node10&#45;&gt;Node3 -->
<g id="edge11_Node000010_Node000003" class="edge">
<title>Node10&#45;&gt;Node3</title>
<g id="a_edge11_Node000010_Node000003"><a xlink:title=" ">
<path fill="none" stroke="#63b8ff" d="M486.89,-155.87C460.15,-151.28 425.46,-145.19 394.75,-139.38 383.12,-137.17 370.42,-134.63 359.12,-132.32"/>
<polygon fill="#63b8ff" stroke="#63b8ff" points="486.26,-159.31 496.71,-157.55 487.44,-152.41 486.26,-159.31"/>
</a>
</g>
</g>
<!-- Node11&#45;&gt;Node10 -->
<g id="edge13_Node000011_Node000010" class="edge">
<title>Node11&#45;&gt;Node10</title>
<g id="a_edge13_Node000011_Node000010"><a xlink:title=" ">
<path fill="none" stroke="#63b8ff" d="M595.51,-140.17C584.46,-144.3 572.65,-148.71 562.33,-152.56"/>
<polygon fill="#63b8ff" stroke="#63b8ff" points="596.68,-143.47 604.82,-136.69 594.23,-136.91 596.68,-143.47"/>
</a>
</g>
</g>
<!-- Node12&#45;&gt;Node3 -->
<g id="edge15_Node000012_Node000003" class="edge">
<title>Node12&#45;&gt;Node3</title>
<g id="a_edge15_Node000012_Node000003"><a xlink:title=" ">
<path fill="none" stroke="#63b8ff" d="M590.86,-92.89C556.01,-97.93 506.2,-104.94 462.5,-110.38 427.22,-114.76 386.72,-119.12 359.04,-122"/>
<polygon fill="#63b8ff" stroke="#63b8ff" points="591.18,-96.38 600.57,-91.48 590.17,-89.45 591.18,-96.38"/>
</a>
</g>
</g>
<!-- Node13 -->
<g id="Node000013" class="node">
<title>Node13</title>
<g id="a_Node000013"><a xlink:href="app_8c.html#a850a9c260115672f978d3685bca1703b" target="_top" xlink:title=" ">
<polygon fill="white" stroke="#666666" points="566.25,-77.75 498.5,-77.75 498.5,-57 566.25,-57 566.25,-77.75"/>
<text text-anchor="middle" x="532.38" y="-64.25" font-family="Helvetica,sans-Serif" font-size="10.00">w2c__f540</text>
</a>
</g>
</g>
<!-- Node12&#45;&gt;Node13 -->
<g id="edge16_Node000012_Node000013" class="edge">
<title>Node12&#45;&gt;Node13</title>
<g id="a_edge16_Node000012_Node000013"><a xlink:title=" ">
<path fill="none" stroke="#63b8ff" d="M590.57,-78.06C582.46,-76.54 574.13,-74.98 566.42,-73.55"/>
<polygon fill="#63b8ff" stroke="#63b8ff" points="589.85,-81.48 600.32,-79.88 591.13,-74.6 589.85,-81.48"/>
</a>
</g>
</g>
<!-- Node13&#45;&gt;Node3 -->
<g id="edge17_Node000013_Node000003" class="edge">
<title>Node13&#45;&gt;Node3</title>
<g id="a_edge17_Node000013_Node000003"><a xlink:title=" ">
<path fill="none" stroke="#63b8ff" d="M487.5,-79.76C449.07,-90.61 394.05,-106.13 359.15,-115.98"/>
<polygon fill="#63b8ff" stroke="#63b8ff" points="488.23,-83.19 496.9,-77.1 486.33,-76.45 488.23,-83.19"/>
</a>
</g>
</g>
<!-- Node14 -->
<g id="Node000014" class="node">
<title>Node14</title>
<g id="a_Node000014"><a xlink:href="app_8c.html#aa3f7fb2ace6a87e61320ef7401dfd66f" target="_top" xlink:title=" ">
<polygon fill="white" stroke="#666666" points="462.5,-59.75 394.75,-59.75 394.75,-39 462.5,-39 462.5,-59.75"/>
<text text-anchor="middle" x="428.62" y="-46.25" font-family="Helvetica,sans-Serif" font-size="10.00">w2c__f489</text>
</a>
</g>
</g>
<!-- Node13&#45;&gt;Node14 -->
<g id="edge18_Node000013_Node000014" class="edge">
<title>Node13&#45;&gt;Node14</title>
<g id="a_edge18_Node000013_Node000014"><a xlink:title=" ">
<path fill="none" stroke="#63b8ff" d="M486.82,-59.49C478.71,-58.06 470.38,-56.58 462.67,-55.22"/>
<polygon fill="#63b8ff" stroke="#63b8ff" points="486.11,-62.92 496.57,-61.22 487.33,-56.03 486.11,-62.92"/>
</a>
</g>
</g>
<!-- Node15 -->
<g id="Node000015" class="node">
<title>Node15</title>
<g id="a_Node000015"><a xlink:href="app_8c.html#a268eebcea573fce720709e588959d401" target="_top" xlink:title=" ">
<polygon fill="white" stroke="#666666" points="462.5,-20.75 394.75,-20.75 394.75,0 462.5,0 462.5,-20.75"/>
<text text-anchor="middle" x="428.62" y="-7.25" font-family="Helvetica,sans-Serif" font-size="10.00">w2c__f568</text>
</a>
</g>
</g>
<!-- Node13&#45;&gt;Node15 -->
<g id="edge20_Node000013_Node000015" class="edge">
<title>Node13&#45;&gt;Node15</title>
<g id="a_edge20_Node000013_Node000015"><a xlink:title=" ">
<path fill="none" stroke="#63b8ff" d="M502.22,-51.04C485.15,-41.48 464.06,-29.67 449.02,-21.24"/>
<polygon fill="#63b8ff" stroke="#63b8ff" points="500.48,-54.08 510.92,-55.91 503.9,-47.97 500.48,-54.08"/>
</a>
</g>
</g>
<!-- Node14&#45;&gt;Node3 -->
<g id="edge19_Node000014_Node000003" class="edge">
<title>Node14&#45;&gt;Node3</title>
<g id="a_edge19_Node000014_Node000003"><a xlink:title=" ">
<path fill="none" stroke="#63b8ff" d="M403.6,-66.85C400.61,-69.04 397.61,-71.25 394.75,-73.38 375.74,-87.49 353.96,-103.99 340.07,-114.55"/>
<polygon fill="#63b8ff" stroke="#63b8ff" points="405.63,-69.7 411.64,-60.97 401.5,-64.05 405.63,-69.7"/>
</a>
</g>
</g>
</g>
</svg>
