<?xml version="1.0" encoding="UTF-8" standalone="no"?>
<!DOCTYPE svg PUBLIC "-//W3C//DTD SVG 1.1//EN"
 "http://www.w3.org/Graphics/SVG/1.1/DTD/svg11.dtd">
<!-- Generated by graphviz version 12.2.1 (0)
 -->
<!-- Title: w2c__f282 Pages: 1 -->
<svg width="698pt" height="343pt"
 viewBox="0.00 0.00 698.25 343.38" xmlns="http://www.w3.org/2000/svg" xmlns:xlink="http://www.w3.org/1999/xlink">
<g id="graph0" class="graph" transform="scale(1 1) rotate(0) translate(4 339.38)">
<title>w2c__f282</title>
<!-- Node1 -->
<g id="Node000001" class="node">
<title>Node1</title>
<g id="a_Node000001"><a xlink:title=" ">
<polygon fill="#999999" stroke="#666666" points="67.75,-173.75 0,-173.75 0,-153 67.75,-153 67.75,-173.75"/>
<text text-anchor="middle" x="33.88" y="-160.25" font-family="Helvetica,sans-Serif" font-size="10.00">w2c__f282</text>
</a>
</g>
</g>
<!-- Node2 -->
<g id="Node000002" class="node">
<title>Node2</title>
<g id="a_Node000002"><a xlink:href="app_8c.html#a03fa34d93d32a3ee40dfc2d840730111" target="_top" xlink:title=" ">
<polygon fill="white" stroke="#666666" points="586.5,-307.75 518.75,-307.75 518.75,-287 586.5,-287 586.5,-307.75"/>
<text text-anchor="middle" x="552.62" y="-294.25" font-family="Helvetica,sans-Serif" font-size="10.00">w2c__f262</text>
</a>
</g>
</g>
<!-- Node1&#45;&gt;Node2 -->
<g id="edge1_Node000001_Node000002" class="edge">
<title>Node1&#45;&gt;Node2</title>
<g id="a_edge1_Node000001_Node000002"><a xlink:title=" ">
<path fill="none" stroke="#63b8ff" d="M40.7,-174.13C61.96,-211.79 139.42,-335.38 240.38,-335.38 240.38,-335.38 240.38,-335.38 346.12,-335.38 402.5,-335.38 466.15,-321.37 507.48,-310.37"/>
<polygon fill="#63b8ff" stroke="#63b8ff" points="508.33,-313.77 517.05,-307.76 506.49,-307.01 508.33,-313.77"/>
</a>
</g>
</g>
<!-- Node5 -->
<g id="Node000005" class="node">
<title>Node5</title>
<g id="a_Node000005"><a xlink:href="app_8c.html#a800df00ef236c6d6affc3c661b37e3ad" target="_top" xlink:title=" ">
<polygon fill="white" stroke="#666666" points="586.5,-229.75 518.75,-229.75 518.75,-209 586.5,-209 586.5,-229.75"/>
<text text-anchor="middle" x="552.62" y="-216.25" font-family="Helvetica,sans-Serif" font-size="10.00">w2c__f487</text>
</a>
</g>
</g>
<!-- Node1&#45;&gt;Node5 -->
<g id="edge4_Node000001_Node000005" class="edge">
<title>Node1&#45;&gt;Node5</title>
<g id="a_edge4_Node000001_Node000005"><a xlink:title=" ">
<path fill="none" stroke="#63b8ff" d="M68.25,-168.37C108.83,-174 179.47,-182.38 240.38,-182.38 240.38,-182.38 240.38,-182.38 346.12,-182.38 402.46,-182.38 466.12,-196.01 507.45,-206.72"/>
<polygon fill="#63b8ff" stroke="#63b8ff" points="506.47,-210.08 517.03,-209.27 508.27,-203.32 506.47,-210.08"/>
</a>
</g>
</g>
<!-- Node6 -->
<g id="Node000006" class="node">
<title>Node6</title>
<g id="a_Node000006"><a xlink:href="app_8c.html#a0e0dad0ebc52e45eeff2e1b5d8389ea4" target="_top" xlink:title=" ">
<polygon fill="white" stroke="#666666" points="586.5,-172.75 518.75,-172.75 518.75,-152 586.5,-152 586.5,-172.75"/>
<text text-anchor="middle" x="552.62" y="-159.25" font-family="Helvetica,sans-Serif" font-size="10.00">w2c__f534</text>
</a>
</g>
</g>
<!-- Node1&#45;&gt;Node6 -->
<g id="edge6_Node000001_Node000006" class="edge">
<title>Node1&#45;&gt;Node6</title>
<g id="a_edge6_Node000001_Node000006"><a xlink:title=" ">
<path fill="none" stroke="#63b8ff" d="M68.25,-158.38C108.83,-152.75 179.47,-144.38 240.38,-144.38 240.38,-144.38 240.38,-144.38 346.12,-144.38 401.82,-144.38 465.68,-151.02 507.24,-156.23"/>
<polygon fill="#63b8ff" stroke="#63b8ff" points="506.74,-159.7 517.1,-157.5 507.63,-152.75 506.74,-159.7"/>
</a>
</g>
</g>
<!-- Node7 -->
<g id="Node000007" class="node">
<title>Node7</title>
<g id="a_Node000007"><a xlink:href="app_8c.html#a8e782c1e475253bfb6f6572258dd2dca" target="_top" xlink:title=" ">
<polygon fill="white" stroke="#666666" points="171.5,-98.75 103.75,-98.75 103.75,-78 171.5,-78 171.5,-98.75"/>
<text text-anchor="middle" x="137.62" y="-85.25" font-family="Helvetica,sans-Serif" font-size="10.00">w2c__f559</text>
</a>
</g>
</g>
<!-- Node1&#45;&gt;Node7 -->
<g id="edge7_Node000001_Node000007" class="edge">
<title>Node1&#45;&gt;Node7</title>
<g id="a_edge7_Node000001_Node000007"><a xlink:title=" ">
<path fill="none" stroke="#63b8ff" d="M49.45,-152.63C66,-140.43 93.24,-120.36 112.86,-105.89"/>
<polygon fill="#63b8ff" stroke="#63b8ff" points="114.88,-108.75 120.86,-100 110.73,-103.11 114.88,-108.75"/>
</a>
</g>
</g>
<!-- Node10 -->
<g id="Node000010" class="node">
<title>Node10</title>
<g id="a_Node000010"><a xlink:href="app_8c.html#a3a02765241f44fd4a16c3b6c05443e75" target="_top" xlink:title=" ">
<polygon fill="white" stroke="#666666" points="171.5,-59.75 103.75,-59.75 103.75,-39 171.5,-39 171.5,-59.75"/>
<text text-anchor="middle" x="137.62" y="-46.25" font-family="Helvetica,sans-Serif" font-size="10.00">w2c__f569</text>
</a>
</g>
</g>
<!-- Node1&#45;&gt;Node10 -->
<g id="edge11_Node000001_Node000010" class="edge">
<title>Node1&#45;&gt;Node10</title>
<g id="a_edge11_Node000001_Node000010"><a xlink:title=" ">
<path fill="none" stroke="#63b8ff" d="M40.77,-152.74C51.46,-134.14 75.58,-95.23 103.75,-69.38 104.8,-68.41 105.91,-67.47 107.05,-66.55"/>
<polygon fill="#63b8ff" stroke="#63b8ff" points="108.88,-69.54 115.03,-60.91 104.84,-63.82 108.88,-69.54"/>
</a>
</g>
</g>
<!-- Node13 -->
<g id="Node000013" class="node">
<title>Node13</title>
<g id="a_Node000013"><a xlink:href="app_8c.html#a5143f7bebd925f0663756f10aef87ef0" target="_top" xlink:title=" ">
<polygon fill="white" stroke="#666666" points="171.5,-230.75 103.75,-230.75 103.75,-210 171.5,-210 171.5,-230.75"/>
<text text-anchor="middle" x="137.62" y="-217.25" font-family="Helvetica,sans-Serif" font-size="10.00">w2c__f570</text>
</a>
</g>
</g>
<!-- Node1&#45;&gt;Node13 -->
<g id="edge14_Node000001_Node000013" class="edge">
<title>Node1&#45;&gt;Node13</title>
<g id="a_edge14_Node000001_Node000013"><a xlink:title=" ">
<path fill="none" stroke="#63b8ff" d="M54.01,-174.1C69.12,-182.56 90.45,-194.51 107.65,-204.15"/>
<polygon fill="#63b8ff" stroke="#63b8ff" points="105.47,-206.93 115.91,-208.77 108.89,-200.83 105.47,-206.93"/>
</a>
</g>
</g>
<!-- Node3 -->
<g id="Node000003" class="node">
<title>Node3</title>
<g id="a_Node000003"><a xlink:href="app_8c.html#a16207b5f7a97b0ecfddd231452c5aa7e" target="_top" xlink:title=" ">
<polygon fill="white" stroke="#666666" points="690.25,-307.75 622.5,-307.75 622.5,-287 690.25,-287 690.25,-307.75"/>
<text text-anchor="middle" x="656.38" y="-294.25" font-family="Helvetica,sans-Serif" font-size="10.00">w2c__f263</text>
</a>
</g>
</g>
<!-- Node2&#45;&gt;Node3 -->
<g id="edge2_Node000002_Node000003" class="edge">
<title>Node2&#45;&gt;Node3</title>
<g id="a_edge2_Node000002_Node000003"><a xlink:title=" ">
<path fill="none" stroke="#63b8ff" d="M586.94,-297.38C594.57,-297.38 602.81,-297.38 610.83,-297.38"/>
<polygon fill="#63b8ff" stroke="#63b8ff" points="610.82,-300.88 620.82,-297.38 610.82,-293.88 610.82,-300.88"/>
</a>
</g>
</g>
<!-- Node4 -->
<g id="Node000004" class="node">
<title>Node4</title>
<g id="a_Node000004"><a xlink:href="app_8c.html#a71bcbce7faf780cd081af3fa82d6da97" target="_top" xlink:title=" ">
<polygon fill="white" stroke="#666666" points="690.25,-268.75 622.5,-268.75 622.5,-248 690.25,-248 690.25,-268.75"/>
<text text-anchor="middle" x="656.38" y="-255.25" font-family="Helvetica,sans-Serif" font-size="10.00">w2c__f437</text>
</a>
</g>
</g>
<!-- Node2&#45;&gt;Node4 -->
<g id="edge3_Node000002_Node000004" class="edge">
<title>Node2&#45;&gt;Node4</title>
<g id="a_edge3_Node000002_Node000004"><a xlink:title=" ">
<path fill="none" stroke="#63b8ff" d="M581.97,-286.51C592.66,-282.41 605.02,-277.67 616.51,-273.27"/>
<polygon fill="#63b8ff" stroke="#63b8ff" points="617.69,-276.57 625.77,-269.72 615.18,-270.03 617.69,-276.57"/>
</a>
</g>
</g>
<!-- Node5&#45;&gt;Node4 -->
<g id="edge5_Node000005_Node000004" class="edge">
<title>Node5&#45;&gt;Node4</title>
<g id="a_edge5_Node000005_Node000004"><a xlink:title=" ">
<path fill="none" stroke="#63b8ff" d="M581.97,-230.24C592.66,-234.34 605.02,-239.08 616.51,-243.48"/>
<polygon fill="#63b8ff" stroke="#63b8ff" points="615.18,-246.72 625.77,-247.03 617.69,-240.18 615.18,-246.72"/>
</a>
</g>
</g>
<!-- Node7&#45;&gt;Node7 -->
<g id="edge10_Node000007_Node000007" class="edge">
<title>Node7&#45;&gt;Node7</title>
<g id="a_edge10_Node000007_Node000007"><a xlink:title=" ">
<path fill="none" stroke="#63b8ff" d="M120.91,-99.15C114.22,-107.81 119.79,-116.75 137.62,-116.75 147.1,-116.75 153.11,-114.23 155.66,-110.56"/>
<polygon fill="#63b8ff" stroke="#63b8ff" points="159.14,-110.18 154.52,-100.65 152.19,-110.99 159.14,-110.18"/>
</a>
</g>
</g>
<!-- Node8 -->
<g id="Node000008" class="node">
<title>Node8</title>
<g id="a_Node000008"><a xlink:href="app_8c.html#a077001e0590f3cc17d2d5222bebc7f9d" target="_top" xlink:title=" ">
<polygon fill="white" stroke="#666666" points="275.25,-98.75 207.5,-98.75 207.5,-78 275.25,-78 275.25,-98.75"/>
<text text-anchor="middle" x="241.38" y="-85.25" font-family="Helvetica,sans-Serif" font-size="10.00">w2c__f455</text>
</a>
</g>
</g>
<!-- Node7&#45;&gt;Node8 -->
<g id="edge8_Node000007_Node000008" class="edge">
<title>Node7&#45;&gt;Node8</title>
<g id="a_edge8_Node000007_Node000008"><a xlink:title=" ">
<path fill="none" stroke="#63b8ff" d="M171.94,-88.38C179.57,-88.38 187.81,-88.38 195.83,-88.38"/>
<polygon fill="#63b8ff" stroke="#63b8ff" points="195.82,-91.88 205.82,-88.38 195.82,-84.88 195.82,-91.88"/>
</a>
</g>
</g>
<!-- Node9 -->
<g id="Node000009" class="node">
<title>Node9</title>
<g id="a_Node000009"><a xlink:href="app_8c.html#a6c30f2996216fe44cdda84ff266f8b19" target="_top" xlink:title=" ">
<polygon fill="white" stroke="#666666" points="379,-98.75 311.25,-98.75 311.25,-78 379,-78 379,-98.75"/>
<text text-anchor="middle" x="345.12" y="-85.25" font-family="Helvetica,sans-Serif" font-size="10.00">w2c__f362</text>
</a>
</g>
</g>
<!-- Node8&#45;&gt;Node9 -->
<g id="edge9_Node000008_Node000009" class="edge">
<title>Node8&#45;&gt;Node9</title>
<g id="a_edge9_Node000008_Node000009"><a xlink:title=" ">
<path fill="none" stroke="#63b8ff" d="M275.69,-88.38C283.32,-88.38 291.56,-88.38 299.58,-88.38"/>
<polygon fill="#63b8ff" stroke="#63b8ff" points="299.57,-91.88 309.57,-88.38 299.57,-84.88 299.57,-91.88"/>
</a>
</g>
</g>
<!-- Node11 -->
<g id="Node000011" class="node">
<title>Node11</title>
<g id="a_Node000011"><a xlink:href="app_8c.html#a34d18545510c7604d64db5651af2a253" target="_top" xlink:title=" ">
<polygon fill="white" stroke="#666666" points="275.25,-59.75 207.5,-59.75 207.5,-39 275.25,-39 275.25,-59.75"/>
<text text-anchor="middle" x="241.38" y="-46.25" font-family="Helvetica,sans-Serif" font-size="10.00">w2c__f332</text>
</a>
</g>
</g>
<!-- Node10&#45;&gt;Node11 -->
<g id="edge12_Node000010_Node000011" class="edge">
<title>Node10&#45;&gt;Node11</title>
<g id="a_edge12_Node000010_Node000011"><a xlink:title=" ">
<path fill="none" stroke="#63b8ff" d="M171.94,-49.38C179.57,-49.38 187.81,-49.38 195.83,-49.38"/>
<polygon fill="#63b8ff" stroke="#63b8ff" points="195.82,-52.88 205.82,-49.38 195.82,-45.88 195.82,-52.88"/>
</a>
</g>
</g>
<!-- Node12 -->
<g id="Node000012" class="node">
<title>Node12</title>
<g id="a_Node000012"><a xlink:href="app_8c.html#ad4b5d3581d609cdf4a419347fe33bfef" target="_top" xlink:title=" ">
<polygon fill="white" stroke="#666666" points="275.25,-20.75 207.5,-20.75 207.5,0 275.25,0 275.25,-20.75"/>
<text text-anchor="middle" x="241.38" y="-7.25" font-family="Helvetica,sans-Serif" font-size="10.00">w2c__f368</text>
</a>
</g>
</g>
<!-- Node10&#45;&gt;Node12 -->
<g id="edge13_Node000010_Node000012" class="edge">
<title>Node10&#45;&gt;Node12</title>
<g id="a_edge13_Node000010_Node000012"><a xlink:title=" ">
<path fill="none" stroke="#63b8ff" d="M166.97,-38.51C177.66,-34.41 190.02,-29.67 201.51,-25.27"/>
<polygon fill="#63b8ff" stroke="#63b8ff" points="202.69,-28.57 210.77,-21.72 200.18,-22.03 202.69,-28.57"/>
</a>
</g>
</g>
<!-- Node13&#45;&gt;Node5 -->
<g id="edge26_Node000013_Node000005" class="edge">
<title>Node13&#45;&gt;Node5</title>
<g id="a_edge26_Node000013_Node000005"><a xlink:title=" ">
<path fill="none" stroke="#63b8ff" d="M171.72,-220.29C245.51,-220.12 423.51,-219.69 507,-219.48"/>
<polygon fill="#63b8ff" stroke="#63b8ff" points="506.86,-222.98 516.85,-219.46 506.85,-215.98 506.86,-222.98"/>
</a>
</g>
</g>
<!-- Node14 -->
<g id="Node000014" class="node">
<title>Node14</title>
<g id="a_Node000014"><a xlink:href="app_8c.html#a986f1214d53a515b2b887b8f988fa6a1" target="_top" xlink:title=" ">
<polygon fill="white" stroke="#666666" points="275.25,-268.75 207.5,-268.75 207.5,-248 275.25,-248 275.25,-268.75"/>
<text text-anchor="middle" x="241.38" y="-255.25" font-family="Helvetica,sans-Serif" font-size="10.00">w2c__f365</text>
</a>
</g>
</g>
<!-- Node13&#45;&gt;Node14 -->
<g id="edge15_Node000013_Node000014" class="edge">
<title>Node13&#45;&gt;Node14</title>
<g id="a_edge15_Node000013_Node000014"><a xlink:title=" ">
<path fill="none" stroke="#63b8ff" d="M167.51,-231.16C177.82,-235.01 189.63,-239.42 200.69,-243.55"/>
<polygon fill="#63b8ff" stroke="#63b8ff" points="199.41,-246.81 210,-247.03 201.86,-240.25 199.41,-246.81"/>
</a>
</g>
</g>
<!-- Node15 -->
<g id="Node000015" class="node">
<title>Node15</title>
<g id="a_Node000015"><a xlink:href="app_8c.html#a14e021d2f1b59e04757852f66bff1044" target="_top" xlink:title=" ">
<polygon fill="white" stroke="#666666" points="379,-268.75 311.25,-268.75 311.25,-248 379,-248 379,-268.75"/>
<text text-anchor="middle" x="345.12" y="-255.25" font-family="Helvetica,sans-Serif" font-size="10.00">w2c__f511</text>
</a>
</g>
</g>
<!-- Node14&#45;&gt;Node15 -->
<g id="edge16_Node000014_Node000015" class="edge">
<title>Node14&#45;&gt;Node15</title>
<g id="a_edge16_Node000014_Node000015"><a xlink:title=" ">
<path fill="none" stroke="#63b8ff" d="M275.69,-258.38C283.32,-258.38 291.56,-258.38 299.58,-258.38"/>
<polygon fill="#63b8ff" stroke="#63b8ff" points="299.57,-261.88 309.57,-258.38 299.57,-254.88 299.57,-261.88"/>
</a>
</g>
</g>
<!-- Node16 -->
<g id="Node000016" class="node">
<title>Node16</title>
<g id="a_Node000016"><a xlink:href="app_8c.html#aa58fd7f1d3aab8404d7f71d334a8a108" target="_top" xlink:title=" ">
<polygon fill="white" stroke="#666666" points="482.75,-307.75 415,-307.75 415,-287 482.75,-287 482.75,-307.75"/>
<text text-anchor="middle" x="448.88" y="-294.25" font-family="Helvetica,sans-Serif" font-size="10.00">w2c__f211</text>
</a>
</g>
</g>
<!-- Node15&#45;&gt;Node16 -->
<g id="edge17_Node000015_Node000016" class="edge">
<title>Node15&#45;&gt;Node16</title>
<g id="a_edge17_Node000015_Node000016"><a xlink:title=" ">
<path fill="none" stroke="#63b8ff" d="M374.47,-269.24C385.16,-273.34 397.52,-278.08 409.01,-282.48"/>
<polygon fill="#63b8ff" stroke="#63b8ff" points="407.68,-285.72 418.27,-286.03 410.19,-279.18 407.68,-285.72"/>
</a>
</g>
</g>
<!-- Node18 -->
<g id="Node000018" class="node">
<title>Node18</title>
<g id="a_Node000018"><a xlink:href="app_8c.html#a8c90e9acf2d5915eb0476bc13964c4db" target="_top" xlink:title=" ">
<polygon fill="white" stroke="#666666" points="482.75,-268.75 415,-268.75 415,-248 482.75,-248 482.75,-268.75"/>
<text text-anchor="middle" x="448.88" y="-255.25" font-family="Helvetica,sans-Serif" font-size="10.00">w2c__f345</text>
</a>
</g>
</g>
<!-- Node15&#45;&gt;Node18 -->
<g id="edge21_Node000015_Node000018" class="edge">
<title>Node15&#45;&gt;Node18</title>
<g id="a_edge21_Node000015_Node000018"><a xlink:title=" ">
<path fill="none" stroke="#63b8ff" d="M379.44,-258.38C387.07,-258.38 395.31,-258.38 403.33,-258.38"/>
<polygon fill="#63b8ff" stroke="#63b8ff" points="403.32,-261.88 413.32,-258.38 403.32,-254.88 403.32,-261.88"/>
</a>
</g>
</g>
<!-- Node16&#45;&gt;Node2 -->
<g id="edge18_Node000016_Node000002" class="edge">
<title>Node16&#45;&gt;Node2</title>
<g id="a_edge18_Node000016_Node000002"><a xlink:title=" ">
<path fill="none" stroke="#63b8ff" d="M483.19,-297.38C490.82,-297.38 499.06,-297.38 507.08,-297.38"/>
<polygon fill="#63b8ff" stroke="#63b8ff" points="507.07,-300.88 517.07,-297.38 507.07,-293.88 507.07,-300.88"/>
</a>
</g>
</g>
<!-- Node17 -->
<g id="Node000017" class="node">
<title>Node17</title>
<g id="a_Node000017"><a xlink:href="app_8c.html#a31b08a294227a9fc0a529e66ccd915dc" target="_top" xlink:title=" ">
<polygon fill="white" stroke="#666666" points="586.5,-268.75 518.75,-268.75 518.75,-248 586.5,-248 586.5,-268.75"/>
<text text-anchor="middle" x="552.62" y="-255.25" font-family="Helvetica,sans-Serif" font-size="10.00">w2c__f325</text>
</a>
</g>
</g>
<!-- Node16&#45;&gt;Node17 -->
<g id="edge19_Node000016_Node000017" class="edge">
<title>Node16&#45;&gt;Node17</title>
<g id="a_edge19_Node000016_Node000017"><a xlink:title=" ">
<path fill="none" stroke="#63b8ff" d="M478.22,-286.51C488.91,-282.41 501.27,-277.67 512.76,-273.27"/>
<polygon fill="#63b8ff" stroke="#63b8ff" points="513.94,-276.57 522.02,-269.72 511.43,-270.03 513.94,-276.57"/>
</a>
</g>
</g>
<!-- Node17&#45;&gt;Node4 -->
<g id="edge20_Node000017_Node000004" class="edge">
<title>Node17&#45;&gt;Node4</title>
<g id="a_edge20_Node000017_Node000004"><a xlink:title=" ">
<path fill="none" stroke="#63b8ff" d="M586.94,-258.38C594.57,-258.38 602.81,-258.38 610.83,-258.38"/>
<polygon fill="#63b8ff" stroke="#63b8ff" points="610.82,-261.88 620.82,-258.38 610.82,-254.88 610.82,-261.88"/>
</a>
</g>
</g>
<!-- Node18&#45;&gt;Node2 -->
<g id="edge22_Node000018_Node000002" class="edge">
<title>Node18&#45;&gt;Node2</title>
<g id="a_edge22_Node000018_Node000002"><a xlink:title=" ">
<path fill="none" stroke="#63b8ff" d="M478.22,-269.24C488.91,-273.34 501.27,-278.08 512.76,-282.48"/>
<polygon fill="#63b8ff" stroke="#63b8ff" points="511.43,-285.72 522.02,-286.03 513.94,-279.18 511.43,-285.72"/>
</a>
</g>
</g>
<!-- Node18&#45;&gt;Node5 -->
<g id="edge24_Node000018_Node000005" class="edge">
<title>Node18&#45;&gt;Node5</title>
<g id="a_edge24_Node000018_Node000005"><a xlink:title=" ">
<path fill="none" stroke="#63b8ff" d="M478.22,-247.51C488.91,-243.41 501.27,-238.67 512.76,-234.27"/>
<polygon fill="#63b8ff" stroke="#63b8ff" points="513.94,-237.57 522.02,-230.72 511.43,-231.03 513.94,-237.57"/>
</a>
</g>
</g>
<!-- Node18&#45;&gt;Node6 -->
<g id="edge25_Node000018_Node000006" class="edge">
<title>Node18&#45;&gt;Node6</title>
<g id="a_edge25_Node000018_Node000006"><a xlink:title=" ">
<path fill="none" stroke="#63b8ff" d="M461.15,-247.73C478.27,-231.59 511.02,-200.68 532.07,-180.82"/>
<polygon fill="#63b8ff" stroke="#63b8ff" points="534.32,-183.51 539.2,-174.1 529.52,-178.42 534.32,-183.51"/>
</a>
</g>
</g>
<!-- Node18&#45;&gt;Node17 -->
<g id="edge23_Node000018_Node000017" class="edge">
<title>Node18&#45;&gt;Node17</title>
<g id="a_edge23_Node000018_Node000017"><a xlink:title=" ">
<path fill="none" stroke="#63b8ff" d="M483.19,-258.38C490.82,-258.38 499.06,-258.38 507.08,-258.38"/>
<polygon fill="#63b8ff" stroke="#63b8ff" points="507.07,-261.88 517.07,-258.38 507.07,-254.88 507.07,-261.88"/>
</a>
</g>
</g>
</g>
</svg>
