<?xml version="1.0" encoding="UTF-8" standalone="no"?>
<!DOCTYPE svg PUBLIC "-//W3C//DTD SVG 1.1//EN"
 "http://www.w3.org/Graphics/SVG/1.1/DTD/svg11.dtd">
<!-- Generated by graphviz version 12.2.1 (0)
 -->
<!-- Title: wrap_w2c__f566 Pages: 1 -->
<svg width="624pt" height="310pt"
 viewBox="0.00 0.00 623.75 310.14" xmlns="http://www.w3.org/2000/svg" xmlns:xlink="http://www.w3.org/1999/xlink">
<g id="graph0" class="graph" transform="scale(1 1) rotate(0) translate(4 306.14)">
<title>wrap_w2c__f566</title>
<!-- Node1 -->
<g id="Node000001" class="node">
<title>Node1</title>
<g id="a_Node000001"><a xlink:title=" ">
<polygon fill="#999999" stroke="#666666" points="97,-163.75 0,-163.75 0,-143 97,-143 97,-163.75"/>
<text text-anchor="middle" x="48.5" y="-150.25" font-family="Helvetica,sans-Serif" font-size="10.00">wrap_w2c__f566</text>
</a>
</g>
</g>
<!-- Node2 -->
<g id="Node000002" class="node">
<title>Node2</title>
<g id="a_Node000002"><a xlink:href="app_8c.html#a992e3e9fe99a47560a2b83121c1b916a" target="_top" xlink:title=" ">
<polygon fill="white" stroke="#666666" points="200.75,-163.75 133,-163.75 133,-143 200.75,-143 200.75,-163.75"/>
<text text-anchor="middle" x="166.88" y="-150.25" font-family="Helvetica,sans-Serif" font-size="10.00">w2c__f566</text>
</a>
</g>
</g>
<!-- Node1&#45;&gt;Node2 -->
<g id="edge1_Node000001_Node000002" class="edge">
<title>Node1&#45;&gt;Node2</title>
<g id="a_edge1_Node000001_Node000002"><a xlink:title=" ">
<path fill="none" stroke="#63b8ff" d="M97.17,-153.38C105.18,-153.38 113.47,-153.38 121.4,-153.38"/>
<polygon fill="#63b8ff" stroke="#63b8ff" points="121.17,-156.88 131.17,-153.38 121.17,-149.88 121.17,-156.88"/>
</a>
</g>
</g>
<!-- Node3 -->
<g id="Node000003" class="node">
<title>Node3</title>
<g id="a_Node000003"><a xlink:href="app_8c.html#ac17a7b0911ba167adf3030099c144169" target="_top" xlink:title=" ">
<polygon fill="white" stroke="#666666" points="304.5,-163.75 236.75,-163.75 236.75,-143 304.5,-143 304.5,-163.75"/>
<text text-anchor="middle" x="270.62" y="-150.25" font-family="Helvetica,sans-Serif" font-size="10.00">w2c__f321</text>
</a>
</g>
</g>
<!-- Node2&#45;&gt;Node3 -->
<g id="edge2_Node000002_Node000003" class="edge">
<title>Node2&#45;&gt;Node3</title>
<g id="a_edge2_Node000002_Node000003"><a xlink:title=" ">
<path fill="none" stroke="#63b8ff" d="M201.19,-147C208.82,-146.66 217.06,-146.55 225.08,-146.67"/>
<polygon fill="#63b8ff" stroke="#63b8ff" points="224.97,-150.17 235.07,-146.96 225.17,-143.17 224.97,-150.17"/>
</a>
</g>
</g>
<!-- Node5 -->
<g id="Node000005" class="node">
<title>Node5</title>
<g id="a_Node000005"><a xlink:href="app_8c.html#ab78a9ba6819f5a9d3b53302097151d33" target="_top" xlink:title=" ">
<polygon fill="white" stroke="#666666" points="615.75,-184.75 548,-184.75 548,-164 615.75,-164 615.75,-184.75"/>
<text text-anchor="middle" x="581.88" y="-171.25" font-family="Helvetica,sans-Serif" font-size="10.00">w2c__f481</text>
</a>
</g>
</g>
<!-- Node2&#45;&gt;Node5 -->
<g id="edge22_Node000002_Node000005" class="edge">
<title>Node2&#45;&gt;Node5</title>
<g id="a_edge22_Node000002_Node000005"><a xlink:title=" ">
<path fill="none" stroke="#63b8ff" d="M172.52,-164.07C181.85,-184.38 204.75,-228.8 236.75,-254.38 275.48,-285.33 291.79,-286.1 340.5,-295.38 417.39,-310.02 448.17,-300.66 512,-255.38 535.28,-238.86 555.57,-212.74 567.98,-194.64"/>
<polygon fill="#63b8ff" stroke="#63b8ff" points="570.9,-196.58 573.51,-186.31 565.07,-192.71 570.9,-196.58"/>
</a>
</g>
</g>
<!-- Node6 -->
<g id="Node000006" class="node">
<title>Node6</title>
<g id="a_Node000006"><a xlink:href="app_8c.html#a710a90b53ca9da85f7059545f9c0c53f" target="_top" xlink:title=" ">
<polygon fill="white" stroke="#666666" points="512,-222.75 444.25,-222.75 444.25,-202 512,-202 512,-222.75"/>
<text text-anchor="middle" x="478.12" y="-209.25" font-family="Helvetica,sans-Serif" font-size="10.00">w2c__f527</text>
</a>
</g>
</g>
<!-- Node2&#45;&gt;Node6 -->
<g id="edge24_Node000002_Node000006" class="edge">
<title>Node2&#45;&gt;Node6</title>
<g id="a_edge24_Node000002_Node000006"><a xlink:title=" ">
<path fill="none" stroke="#63b8ff" d="M177.84,-164.17C202.43,-189.9 269.2,-254.42 340.5,-277.38 369.16,-286.6 380.27,-288.49 408.25,-277.38 431.15,-268.27 450.85,-247.55 463.24,-231.93"/>
<polygon fill="#63b8ff" stroke="#63b8ff" points="465.83,-234.31 469.06,-224.22 460.24,-230.09 465.83,-234.31"/>
</a>
</g>
</g>
<!-- Node10 -->
<g id="Node000010" class="node">
<title>Node10</title>
<g id="a_Node000010"><a xlink:href="app_8c.html#a674f6e81761467d0a8dc6d2a425eda9f" target="_top" xlink:title=" ">
<polygon fill="white" stroke="#666666" points="408.25,-20.75 340.5,-20.75 340.5,0 408.25,0 408.25,-20.75"/>
<text text-anchor="middle" x="374.38" y="-7.25" font-family="Helvetica,sans-Serif" font-size="10.00">w2c__f498</text>
</a>
</g>
</g>
<!-- Node2&#45;&gt;Node10 -->
<g id="edge23_Node000002_Node000010" class="edge">
<title>Node2&#45;&gt;Node10</title>
<g id="a_edge23_Node000002_Node000010"><a xlink:title=" ">
<path fill="none" stroke="#63b8ff" d="M183.32,-142.63C218.65,-118.04 305.62,-57.53 348.56,-27.64"/>
<polygon fill="#63b8ff" stroke="#63b8ff" points="350.3,-30.7 356.51,-22.11 346.3,-24.95 350.3,-30.7"/>
</a>
</g>
</g>
<!-- Node3&#45;&gt;Node2 -->
<g id="edge21_Node000003_Node000002" class="edge">
<title>Node3&#45;&gt;Node2</title>
<g id="a_edge21_Node000003_Node000002"><a xlink:title=" ">
<path fill="none" stroke="#63b8ff" d="M236.58,-159.74C228.87,-160.09 220.54,-160.2 212.43,-160.08"/>
<polygon fill="#63b8ff" stroke="#63b8ff" points="212.8,-156.59 202.7,-159.8 212.6,-163.58 212.8,-156.59"/>
</a>
</g>
</g>
<!-- Node3&#45;&gt;Node3 -->
<g id="edge11_Node000003_Node000003" class="edge">
<title>Node3&#45;&gt;Node3</title>
<g id="a_edge11_Node000003_Node000003"><a xlink:title=" ">
<path fill="none" stroke="#63b8ff" d="M253.91,-164.15C247.22,-172.81 252.79,-181.75 270.62,-181.75 280.1,-181.75 286.11,-179.23 288.66,-175.56"/>
<polygon fill="#63b8ff" stroke="#63b8ff" points="292.14,-175.18 287.52,-165.65 285.19,-175.99 292.14,-175.18"/>
</a>
</g>
</g>
<!-- Node4 -->
<g id="Node000004" class="node">
<title>Node4</title>
<g id="a_Node000004"><a xlink:href="app_8c.html#adac013373adadecb7663728bdf2ad0d6" target="_top" xlink:title=" ">
<polygon fill="white" stroke="#666666" points="408.25,-135.75 340.5,-135.75 340.5,-115 408.25,-115 408.25,-135.75"/>
<text text-anchor="middle" x="374.38" y="-122.25" font-family="Helvetica,sans-Serif" font-size="10.00">w2c__f290</text>
</a>
</g>
</g>
<!-- Node3&#45;&gt;Node4 -->
<g id="edge3_Node000003_Node000004" class="edge">
<title>Node3&#45;&gt;Node4</title>
<g id="a_edge3_Node000003_Node000004"><a xlink:title=" ">
<path fill="none" stroke="#63b8ff" d="M304.94,-144.21C312.75,-142.06 321.19,-139.74 329.39,-137.48"/>
<polygon fill="#63b8ff" stroke="#63b8ff" points="330.16,-140.9 338.87,-134.87 328.3,-134.15 330.16,-140.9"/>
</a>
</g>
</g>
<!-- Node3&#45;&gt;Node5 -->
<g id="edge18_Node000003_Node000005" class="edge">
<title>Node3&#45;&gt;Node5</title>
<g id="a_edge18_Node000003_Node000005"><a xlink:title=" ">
<path fill="none" stroke="#63b8ff" d="M276.32,-142.62C285.44,-123.28 307.57,-83.19 340.5,-67.38 367.64,-54.34 378.65,-61.87 408.25,-67.38 456.84,-76.42 470.39,-80.72 512,-107.38 532.71,-120.64 552.4,-140.84 565.39,-155.6"/>
<polygon fill="#63b8ff" stroke="#63b8ff" points="562.41,-157.5 571.57,-162.82 567.72,-152.94 562.41,-157.5"/>
</a>
</g>
</g>
<!-- Node3&#45;&gt;Node6 -->
<g id="edge20_Node000003_Node000006" class="edge">
<title>Node3&#45;&gt;Node6</title>
<g id="a_edge20_Node000003_Node000006"><a xlink:title=" ">
<path fill="none" stroke="#63b8ff" d="M282.73,-163.97C295.53,-175.45 317.73,-193.2 340.5,-201.38 370,-211.96 405.3,-214.56 432.63,-214.6"/>
<polygon fill="#63b8ff" stroke="#63b8ff" points="432.34,-218.1 442.3,-214.49 432.26,-211.1 432.34,-218.1"/>
</a>
</g>
</g>
<!-- Node7 -->
<g id="Node000007" class="node">
<title>Node7</title>
<g id="a_Node000007"><a xlink:href="app_8c.html#a954582e69602ef9daaec39d80aad1fe3" target="_top" xlink:title=" ">
<polygon fill="white" stroke="#666666" points="408.25,-268.75 340.5,-268.75 340.5,-248 408.25,-248 408.25,-268.75"/>
<text text-anchor="middle" x="374.38" y="-255.25" font-family="Helvetica,sans-Serif" font-size="10.00">w2c__f299</text>
</a>
</g>
</g>
<!-- Node3&#45;&gt;Node7 -->
<g id="edge8_Node000003_Node000007" class="edge">
<title>Node3&#45;&gt;Node7</title>
<g id="a_edge8_Node000003_Node000007"><a xlink:title=" ">
<path fill="none" stroke="#63b8ff" d="M279.39,-164.04C291.46,-180.22 315.88,-211.52 340.5,-234.38 342.88,-236.58 345.46,-238.77 348.1,-240.88"/>
<polygon fill="#63b8ff" stroke="#63b8ff" points="345.76,-243.5 355.85,-246.71 349.97,-237.9 345.76,-243.5"/>
</a>
</g>
</g>
<!-- Node8 -->
<g id="Node000008" class="node">
<title>Node8</title>
<g id="a_Node000008"><a xlink:href="app_8c.html#ad46ee8455023db930456c594f733bd66" target="_top" xlink:title=" ">
<polygon fill="white" stroke="#666666" points="408.25,-192.75 340.5,-192.75 340.5,-172 408.25,-172 408.25,-192.75"/>
<text text-anchor="middle" x="374.38" y="-179.25" font-family="Helvetica,sans-Serif" font-size="10.00">w2c__f406</text>
</a>
</g>
</g>
<!-- Node3&#45;&gt;Node8 -->
<g id="edge12_Node000003_Node000008" class="edge">
<title>Node3&#45;&gt;Node8</title>
<g id="a_edge12_Node000003_Node000008"><a xlink:title=" ">
<path fill="none" stroke="#63b8ff" d="M304.94,-162.87C312.75,-165.1 321.19,-167.5 329.39,-169.84"/>
<polygon fill="#63b8ff" stroke="#63b8ff" points="328.3,-173.17 338.88,-172.54 330.22,-166.44 328.3,-173.17"/>
</a>
</g>
</g>
<!-- Node9 -->
<g id="Node000009" class="node">
<title>Node9</title>
<g id="a_Node000009"><a xlink:href="app_8c.html#a10d137688bad44b259e5f3c4540da228" target="_top" xlink:title=" ">
<polygon fill="white" stroke="#666666" points="408.25,-96.75 340.5,-96.75 340.5,-76 408.25,-76 408.25,-96.75"/>
<text text-anchor="middle" x="374.38" y="-83.25" font-family="Helvetica,sans-Serif" font-size="10.00">w2c__f468</text>
</a>
</g>
</g>
<!-- Node3&#45;&gt;Node9 -->
<g id="edge15_Node000003_Node000009" class="edge">
<title>Node3&#45;&gt;Node9</title>
<g id="a_edge15_Node000003_Node000009"><a xlink:title=" ">
<path fill="none" stroke="#63b8ff" d="M287.06,-142.5C300.92,-132.82 321.89,-118.38 340.5,-106.38 342.12,-105.33 343.8,-104.27 345.49,-103.2"/>
<polygon fill="#63b8ff" stroke="#63b8ff" points="347.23,-106.24 353.9,-98.01 343.55,-100.29 347.23,-106.24"/>
</a>
</g>
</g>
<!-- Node3&#45;&gt;Node10 -->
<g id="edge19_Node000003_Node000010" class="edge">
<title>Node3&#45;&gt;Node10</title>
<g id="a_edge19_Node000003_Node000010"><a xlink:title=" ">
<path fill="none" stroke="#63b8ff" d="M277.54,-142.58C292.69,-115 332.28,-43.52 340.5,-34.38 342.44,-32.21 344.61,-30.13 346.88,-28.15"/>
<polygon fill="#63b8ff" stroke="#63b8ff" points="348.97,-30.96 354.69,-22.04 344.65,-25.45 348.97,-30.96"/>
</a>
</g>
</g>
<!-- Node4&#45;&gt;Node4 -->
<g id="edge4_Node000004_Node000004" class="edge">
<title>Node4&#45;&gt;Node4</title>
<g id="a_edge4_Node000004_Node000004"><a xlink:title=" ">
<path fill="none" stroke="#63b8ff" d="M357.66,-136.15C350.97,-144.81 356.54,-153.75 374.38,-153.75 383.85,-153.75 389.86,-151.23 392.41,-147.56"/>
<polygon fill="#63b8ff" stroke="#63b8ff" points="395.89,-147.18 391.27,-137.65 388.94,-147.99 395.89,-147.18"/>
</a>
</g>
</g>
<!-- Node4&#45;&gt;Node5 -->
<g id="edge5_Node000004_Node000005" class="edge">
<title>Node4&#45;&gt;Node5</title>
<g id="a_edge5_Node000004_Node000005"><a xlink:title=" ">
<path fill="none" stroke="#63b8ff" d="M408.39,-133.25C443.19,-141.55 498.2,-154.66 536.71,-163.84"/>
<polygon fill="#63b8ff" stroke="#63b8ff" points="535.59,-167.17 546.13,-166.09 537.21,-160.37 535.59,-167.17"/>
</a>
</g>
</g>
<!-- Node4&#45;&gt;Node6 -->
<g id="edge6_Node000004_Node000006" class="edge">
<title>Node4&#45;&gt;Node6</title>
<g id="a_edge6_Node000004_Node000006"><a xlink:title=" ">
<path fill="none" stroke="#63b8ff" d="M387.85,-136.04C404.79,-150.52 435.29,-176.61 455.87,-194.2"/>
<polygon fill="#63b8ff" stroke="#63b8ff" points="453.52,-196.8 463.4,-200.64 458.07,-191.48 453.52,-196.8"/>
</a>
</g>
</g>
<!-- Node6&#45;&gt;Node5 -->
<g id="edge7_Node000006_Node000005" class="edge">
<title>Node6&#45;&gt;Node5</title>
<g id="a_edge7_Node000006_Node000005"><a xlink:title=" ">
<path fill="none" stroke="#63b8ff" d="M508.01,-201.59C518.32,-197.74 530.13,-193.33 541.19,-189.2"/>
<polygon fill="#63b8ff" stroke="#63b8ff" points="542.36,-192.5 550.5,-185.72 539.91,-185.94 542.36,-192.5"/>
</a>
</g>
</g>
<!-- Node7&#45;&gt;Node5 -->
<g id="edge9_Node000007_Node000005" class="edge">
<title>Node7&#45;&gt;Node5</title>
<g id="a_edge9_Node000007_Node000005"><a xlink:title=" ">
<path fill="none" stroke="#63b8ff" d="M408.54,-256.4C437.14,-253.66 478.91,-247.08 512,-231.38 531.6,-222.07 550.32,-205.94 563.29,-193.21"/>
<polygon fill="#63b8ff" stroke="#63b8ff" points="565.72,-195.73 570.22,-186.14 560.72,-190.83 565.72,-195.73"/>
</a>
</g>
</g>
<!-- Node7&#45;&gt;Node6 -->
<g id="edge10_Node000007_Node000006" class="edge">
<title>Node7&#45;&gt;Node6</title>
<g id="a_edge10_Node000007_Node000006"><a xlink:title=" ">
<path fill="none" stroke="#63b8ff" d="M399.23,-247.59C412.37,-241.65 428.9,-234.18 443.35,-227.65"/>
<polygon fill="#63b8ff" stroke="#63b8ff" points="444.37,-231.02 452.04,-223.72 441.49,-224.65 444.37,-231.02"/>
</a>
</g>
</g>
<!-- Node8&#45;&gt;Node5 -->
<g id="edge13_Node000008_Node000005" class="edge">
<title>Node8&#45;&gt;Node5</title>
<g id="a_edge13_Node000008_Node000005"><a xlink:title=" ">
<path fill="none" stroke="#63b8ff" d="M408.39,-181.09C443.04,-179.74 497.73,-177.61 536.21,-176.11"/>
<polygon fill="#63b8ff" stroke="#63b8ff" points="536.23,-179.62 546.09,-175.73 535.96,-172.62 536.23,-179.62"/>
</a>
</g>
</g>
<!-- Node8&#45;&gt;Node6 -->
<g id="edge14_Node000008_Node000006" class="edge">
<title>Node8&#45;&gt;Node6</title>
<g id="a_edge14_Node000008_Node000006"><a xlink:title=" ">
<path fill="none" stroke="#63b8ff" d="M408.69,-192.2C416.5,-194.5 424.94,-196.99 433.14,-199.41"/>
<polygon fill="#63b8ff" stroke="#63b8ff" points="432.05,-202.73 442.63,-202.2 434.03,-196.02 432.05,-202.73"/>
</a>
</g>
</g>
<!-- Node9&#45;&gt;Node5 -->
<g id="edge16_Node000009_Node000005" class="edge">
<title>Node9&#45;&gt;Node5</title>
<g id="a_edge16_Node000009_Node000005"><a xlink:title=" ">
<path fill="none" stroke="#63b8ff" d="M407,-97.22C434.98,-107.09 476.7,-122.5 512,-138.38 525.23,-144.32 539.49,-151.63 551.59,-158.09"/>
<polygon fill="#63b8ff" stroke="#63b8ff" points="549.79,-161.1 560.25,-162.79 553.13,-154.95 549.79,-161.1"/>
</a>
</g>
</g>
<!-- Node9&#45;&gt;Node6 -->
<g id="edge17_Node000009_Node000006" class="edge">
<title>Node9&#45;&gt;Node6</title>
<g id="a_edge17_Node000009_Node000006"><a xlink:title=" ">
<path fill="none" stroke="#63b8ff" d="M396.22,-97.11C400.46,-99.81 404.7,-102.93 408.25,-106.38 434.25,-131.61 455.36,-168.39 467.08,-191.32"/>
<polygon fill="#63b8ff" stroke="#63b8ff" points="463.94,-192.87 471.51,-200.28 470.21,-189.77 463.94,-192.87"/>
</a>
</g>
</g>
</g>
</svg>
