<?xml version="1.0" encoding="UTF-8" standalone="no"?>
<!DOCTYPE svg PUBLIC "-//W3C//DTD SVG 1.1//EN"
 "http://www.w3.org/Graphics/SVG/1.1/DTD/svg11.dtd">
<!-- Generated by graphviz version 12.2.1 (0)
 -->
<!-- Title: w2c__f551 Pages: 1 -->
<svg width="932pt" height="869pt"
 viewBox="0.00 0.00 931.75 868.98" xmlns="http://www.w3.org/2000/svg" xmlns:xlink="http://www.w3.org/1999/xlink">
<g id="graph0" class="graph" transform="scale(1 1) rotate(0) translate(4 864.98)">
<title>w2c__f551</title>
<!-- Node1 -->
<g id="Node000001" class="node">
<title>Node1</title>
<g id="a_Node000001"><a xlink:title=" ">
<polygon fill="#999999" stroke="#666666" points="923.75,-322.98 856,-322.98 856,-302.23 923.75,-302.23 923.75,-322.98"/>
<text text-anchor="middle" x="889.88" y="-309.48" font-family="Helvetica,sans-Serif" font-size="10.00">w2c__f551</text>
</a>
</g>
</g>
<!-- Node2 -->
<g id="Node000002" class="node">
<title>Node2</title>
<g id="a_Node000002"><a xlink:href="app_8c.html#a473677c504e5effa085c43e095d81177" target="_top" xlink:title=" ">
<polygon fill="white" stroke="#666666" points="820,-629.98 752.25,-629.98 752.25,-609.23 820,-609.23 820,-629.98"/>
<text text-anchor="middle" x="786.12" y="-616.48" font-family="Helvetica,sans-Serif" font-size="10.00">w2c__f228</text>
</a>
</g>
</g>
<!-- Node1&#45;&gt;Node2 -->
<g id="edge1_Node000001_Node000002" class="edge">
<title>Node1&#45;&gt;Node2</title>
<g id="a_edge1_Node000001_Node000002"><a xlink:title=" ">
<path fill="none" stroke="#63b8ff" d="M881.78,-334C861.8,-394.31 805.5,-564.16 790.72,-608.77"/>
<polygon fill="#63b8ff" stroke="#63b8ff" points="885.07,-335.21 884.9,-324.61 878.43,-333.01 885.07,-335.21"/>
</a>
</g>
</g>
<!-- Node5 -->
<g id="Node000005" class="node">
<title>Node5</title>
<g id="a_Node000005"><a xlink:href="app_8c.html#a5677ffd129da8cd63b876545b8187d77" target="_top" xlink:title=" ">
<polygon fill="white" stroke="#666666" points="302.62,-207.98 234.88,-207.98 234.88,-187.23 302.62,-187.23 302.62,-207.98"/>
<text text-anchor="middle" x="268.75" y="-194.48" font-family="Helvetica,sans-Serif" font-size="10.00">w2c__f367</text>
</a>
</g>
</g>
<!-- Node1&#45;&gt;Node5 -->
<g id="edge50_Node000001_Node000005" class="edge">
<title>Node1&#45;&gt;Node5</title>
<g id="a_edge50_Node000001_Node000005"><a xlink:title=" ">
<path fill="none" stroke="#63b8ff" d="M884.49,-291.2C868.87,-221.67 809.2,-6.61 668.75,-6.61 668.75,-6.61 668.75,-6.61 533.75,-6.61 452.93,-6.61 419.18,18.12 353.25,-28.61 297.18,-68.35 276.91,-156.61 271.44,-187.05"/>
<polygon fill="#63b8ff" stroke="#63b8ff" points="880.98,-291.56 886.51,-300.6 887.83,-290.08 880.98,-291.56"/>
</a>
</g>
</g>
<!-- Node3 -->
<g id="Node000003" class="node">
<title>Node3</title>
<g id="a_Node000003"><a xlink:href="app_8c.html#af245d5659b958eabe30540d214352ad8" target="_top" xlink:title=" ">
<polygon fill="white" stroke="#666666" points="302.62,-648.98 234.88,-648.98 234.88,-628.23 302.62,-628.23 302.62,-648.98"/>
<text text-anchor="middle" x="268.75" y="-635.48" font-family="Helvetica,sans-Serif" font-size="10.00">w2c__f197</text>
</a>
</g>
</g>
<!-- Node2&#45;&gt;Node3 -->
<g id="edge2_Node000002_Node000003" class="edge">
<title>Node2&#45;&gt;Node3</title>
<g id="a_edge2_Node000002_Node000003"><a xlink:title=" ">
<path fill="none" stroke="#63b8ff" d="M746.28,-634.3C706.14,-648.63 641.34,-669.43 583.25,-677.61 482.03,-691.86 453.04,-699.77 353.25,-677.61 328.88,-672.2 303.21,-658.9 286.87,-649.34"/>
<polygon fill="#63b8ff" stroke="#63b8ff" points="747.29,-637.65 755.5,-630.96 744.91,-631.07 747.29,-637.65"/>
</a>
</g>
</g>
<!-- Node2&#45;&gt;Node5 -->
<g id="edge4_Node000002_Node000005" class="edge">
<title>Node2&#45;&gt;Node5</title>
<g id="a_edge4_Node000002_Node000005"><a xlink:title=" ">
<path fill="none" stroke="#63b8ff" d="M785.77,-597.74C786.99,-509.81 778.1,-181.5 583.25,-69.61 494.6,-18.71 443.05,-19.77 353.25,-68.61 305.44,-94.61 280.8,-161.09 272.77,-187.02"/>
<polygon fill="#63b8ff" stroke="#63b8ff" points="782.27,-597.53 785.56,-607.6 789.27,-597.68 782.27,-597.53"/>
</a>
</g>
</g>
<!-- Node9 -->
<g id="Node000009" class="node">
<title>Node9</title>
<g id="a_Node000009"><a xlink:href="app_8c.html#affed7b4e730191b8eb2ae859a9d3e4b2" target="_top" xlink:title=" ">
<polygon fill="white" stroke="#666666" points="568.62,-744.98 500.88,-744.98 500.88,-724.23 568.62,-724.23 568.62,-744.98"/>
<text text-anchor="middle" x="534.75" y="-731.48" font-family="Helvetica,sans-Serif" font-size="10.00">w2c__f426</text>
</a>
</g>
</g>
<!-- Node2&#45;&gt;Node9 -->
<g id="edge8_Node000002_Node000009" class="edge">
<title>Node2&#45;&gt;Node9</title>
<g id="a_edge8_Node000002_Node000009"><a xlink:title=" ">
<path fill="none" stroke="#63b8ff" d="M775.46,-640.57C764.39,-662 744.11,-694.38 716.25,-710.61 670.36,-737.35 606.97,-739.33 568.81,-737.53"/>
<polygon fill="#63b8ff" stroke="#63b8ff" points="778.6,-642.12 779.86,-631.6 772.31,-639.03 778.6,-642.12"/>
</a>
</g>
</g>
<!-- Node15 -->
<g id="Node000015" class="node">
<title>Node15</title>
<g id="a_Node000015"><a xlink:href="app_8c.html#a7d4828f80c09fbe34c6c6440dc146ce6" target="_top" xlink:title=" ">
<polygon fill="white" stroke="#666666" points="701.62,-629.98 633.88,-629.98 633.88,-609.23 701.62,-609.23 701.62,-629.98"/>
<text text-anchor="middle" x="667.75" y="-616.48" font-family="Helvetica,sans-Serif" font-size="10.00">w2c__f428</text>
</a>
</g>
</g>
<!-- Node2&#45;&gt;Node15 -->
<g id="edge15_Node000002_Node000015" class="edge">
<title>Node2&#45;&gt;Node15</title>
<g id="a_edge15_Node000002_Node000015"><a xlink:title=" ">
<path fill="none" stroke="#63b8ff" d="M740.41,-619.61C727.68,-619.61 714.03,-619.61 702.1,-619.61"/>
<polygon fill="#63b8ff" stroke="#63b8ff" points="740.26,-623.11 750.26,-619.61 740.26,-616.11 740.26,-623.11"/>
</a>
</g>
</g>
<!-- Node24 -->
<g id="Node000024" class="node">
<title>Node24</title>
<g id="a_Node000024"><a xlink:href="app_8c.html#aa4984aeb5692411379c03042d58ec683" target="_top" xlink:title=" ">
<polygon fill="white" stroke="#666666" points="701.62,-322.98 633.88,-322.98 633.88,-302.23 701.62,-302.23 701.62,-322.98"/>
<text text-anchor="middle" x="667.75" y="-309.48" font-family="Helvetica,sans-Serif" font-size="10.00">w2c__f560</text>
</a>
</g>
</g>
<!-- Node2&#45;&gt;Node24 -->
<g id="edge26_Node000002_Node000024" class="edge">
<title>Node2&#45;&gt;Node24</title>
<g id="a_edge26_Node000002_Node000024"><a xlink:title=" ">
<path fill="none" stroke="#63b8ff" d="M777.16,-598.59C754.43,-538.62 689.8,-368.15 672.86,-323.45"/>
<polygon fill="#63b8ff" stroke="#63b8ff" points="773.77,-599.52 780.58,-607.63 780.31,-597.04 773.77,-599.52"/>
</a>
</g>
</g>
<!-- Node39 -->
<g id="Node000039" class="node">
<title>Node39</title>
<g id="a_Node000039"><a xlink:href="app_8c.html#ab56baf59d7a87a549880807f32fa2bad" target="_top" xlink:title=" ">
<polygon fill="white" stroke="#666666" points="716.25,-782.98 619.25,-782.98 619.25,-762.23 716.25,-762.23 716.25,-782.98"/>
<text text-anchor="middle" x="667.75" y="-769.48" font-family="Helvetica,sans-Serif" font-size="10.00">wrap_w2c__f228</text>
</a>
</g>
</g>
<!-- Node2&#45;&gt;Node39 -->
<g id="edge49_Node000002_Node000039" class="edge">
<title>Node2&#45;&gt;Node39</title>
<g id="a_edge49_Node000002_Node000039"><a xlink:title=" ">
<path fill="none" stroke="#63b8ff" d="M778.21,-641.23C768.36,-669.11 747.88,-717.69 716.25,-748.61 710.83,-753.91 704.01,-758.27 697.24,-761.76"/>
<polygon fill="#63b8ff" stroke="#63b8ff" points="781.52,-642.36 781.41,-631.77 774.89,-640.12 781.52,-642.36"/>
</a>
</g>
</g>
<!-- Node4 -->
<g id="Node000004" class="node">
<title>Node4</title>
<g id="a_Node000004"><a xlink:href="app_8c.html#ac9dfe974277b0ee3fa24e73b7712fe31" target="_top" xlink:title=" ">
<polygon fill="white" stroke="#666666" points="184.25,-648.98 87.25,-648.98 87.25,-628.23 184.25,-628.23 184.25,-648.98"/>
<text text-anchor="middle" x="135.75" y="-635.48" font-family="Helvetica,sans-Serif" font-size="10.00">wrap_w2c__f197</text>
</a>
</g>
</g>
<!-- Node3&#45;&gt;Node4 -->
<g id="edge3_Node000003_Node000004" class="edge">
<title>Node3&#45;&gt;Node4</title>
<g id="a_edge3_Node000003_Node000004"><a xlink:title=" ">
<path fill="none" stroke="#63b8ff" d="M223.2,-638.61C210.78,-638.61 197.25,-638.61 184.65,-638.61"/>
<polygon fill="#63b8ff" stroke="#63b8ff" points="223.18,-642.11 233.18,-638.61 223.18,-635.11 223.18,-642.11"/>
</a>
</g>
</g>
<!-- Node6 -->
<g id="Node000006" class="node">
<title>Node6</title>
<g id="a_Node000006"><a xlink:href="app_8c.html#ac863989691d4c389f80374209c220171" target="_top" xlink:title=" ">
<polygon fill="white" stroke="#666666" points="167,-188.98 104.5,-188.98 104.5,-168.23 167,-168.23 167,-188.98"/>
<text text-anchor="middle" x="135.75" y="-175.48" font-family="Helvetica,sans-Serif" font-size="10.00">w2c__c_0</text>
</a>
</g>
</g>
<!-- Node5&#45;&gt;Node6 -->
<g id="edge5_Node000005_Node000006" class="edge">
<title>Node5&#45;&gt;Node6</title>
<g id="a_edge5_Node000005_Node000006"><a xlink:title=" ">
<path fill="none" stroke="#63b8ff" d="M223.53,-191.2C204.97,-188.5 183.86,-185.44 167.1,-183.01"/>
<polygon fill="#63b8ff" stroke="#63b8ff" points="222.8,-194.63 233.2,-192.6 223.8,-187.7 222.8,-194.63"/>
</a>
</g>
</g>
<!-- Node8 -->
<g id="Node000008" class="node">
<title>Node8</title>
<g id="a_Node000008"><a xlink:href="app_8c.html#a8f64ccad6c506a1ca514ba4f43e5211c" target="_top" xlink:title=" ">
<polygon fill="white" stroke="#666666" points="184.25,-227.98 87.25,-227.98 87.25,-207.23 184.25,-207.23 184.25,-227.98"/>
<text text-anchor="middle" x="135.75" y="-214.48" font-family="Helvetica,sans-Serif" font-size="10.00">wrap_w2c__f367</text>
</a>
</g>
</g>
<!-- Node5&#45;&gt;Node8 -->
<g id="edge7_Node000005_Node000008" class="edge">
<title>Node5&#45;&gt;Node8</title>
<g id="a_edge7_Node000005_Node000008"><a xlink:title=" ">
<path fill="none" stroke="#63b8ff" d="M223.58,-204.35C211.06,-206.26 197.38,-208.35 184.65,-210.3"/>
<polygon fill="#63b8ff" stroke="#63b8ff" points="223.84,-207.85 233.2,-202.89 222.78,-200.93 223.84,-207.85"/>
</a>
</g>
</g>
<!-- Node7 -->
<g id="Node000007" class="node">
<title>Node7</title>
<g id="a_Node000007"><a xlink:href="app_8c.html#ab1e039392ea68017ab8a6063263b147d" target="_top" xlink:title=" ">
<polygon fill="white" stroke="#666666" points="51.25,-188.98 0,-188.98 0,-168.23 51.25,-168.23 51.25,-188.98"/>
<text text-anchor="middle" x="25.62" y="-175.48" font-family="Helvetica,sans-Serif" font-size="10.00">w2c__c</text>
</a>
</g>
</g>
<!-- Node6&#45;&gt;Node7 -->
<g id="edge6_Node000006_Node000007" class="edge">
<title>Node6&#45;&gt;Node7</title>
<g id="a_edge6_Node000006_Node000007"><a xlink:title=" ">
<path fill="none" stroke="#63b8ff" d="M92.72,-178.61C78.81,-178.61 63.78,-178.61 51.57,-178.61"/>
<polygon fill="#63b8ff" stroke="#63b8ff" points="92.54,-182.11 102.54,-178.61 92.54,-175.11 92.54,-182.11"/>
</a>
</g>
</g>
<!-- Node9&#45;&gt;Node3 -->
<g id="edge9_Node000009_Node000003" class="edge">
<title>Node9&#45;&gt;Node3</title>
<g id="a_edge9_Node000009_Node000003"><a xlink:title=" ">
<path fill="none" stroke="#63b8ff" d="M489.46,-735.67C451.69,-734.99 396.77,-730.14 353.25,-710.61 321.29,-696.27 292.36,-665.64 278.45,-649.34"/>
<polygon fill="#63b8ff" stroke="#63b8ff" points="489.06,-739.17 499.08,-735.75 489.11,-732.17 489.06,-739.17"/>
</a>
</g>
</g>
<!-- Node10 -->
<g id="Node000010" class="node">
<title>Node10</title>
<g id="a_Node000010"><a xlink:href="app_8c.html#aabc3b06c7f7daa21796552c728f0379b" target="_top" xlink:title=" ">
<polygon fill="white" stroke="#666666" points="435.62,-860.98 367.88,-860.98 367.88,-840.23 435.62,-840.23 435.62,-860.98"/>
<text text-anchor="middle" x="401.75" y="-847.48" font-family="Helvetica,sans-Serif" font-size="10.00">w2c__f270</text>
</a>
</g>
</g>
<!-- Node9&#45;&gt;Node10 -->
<g id="edge10_Node000009_Node000010" class="edge">
<title>Node9&#45;&gt;Node10</title>
<g id="a_edge10_Node000009_Node000010"><a xlink:title=" ">
<path fill="none" stroke="#63b8ff" d="M520.56,-754.61C505.65,-775.88 479.62,-809.35 450.25,-830.61 445.32,-834.18 439.66,-837.26 434,-839.87"/>
<polygon fill="#63b8ff" stroke="#63b8ff" points="523.34,-756.73 526.09,-746.5 517.56,-752.78 523.34,-756.73"/>
</a>
</g>
</g>
<!-- Node12 -->
<g id="Node000012" class="node">
<title>Node12</title>
<g id="a_Node000012"><a xlink:href="app_8c.html#a3b35d36403dcff081d46c10210051cdc" target="_top" xlink:title=" ">
<polygon fill="white" stroke="#666666" points="435.62,-515.98 367.88,-515.98 367.88,-495.23 435.62,-495.23 435.62,-515.98"/>
<text text-anchor="middle" x="401.75" y="-502.48" font-family="Helvetica,sans-Serif" font-size="10.00">w2c__f349</text>
</a>
</g>
</g>
<!-- Node9&#45;&gt;Node12 -->
<g id="edge12_Node000009_Node000012" class="edge">
<title>Node9&#45;&gt;Node12</title>
<g id="a_edge12_Node000009_Node000012"><a xlink:title=" ">
<path fill="none" stroke="#63b8ff" d="M515.66,-715.46C506.18,-704.83 494.8,-691.06 486.25,-677.61 465.99,-645.72 466.7,-634.62 450.25,-600.61 435.4,-569.9 417.2,-533.96 408.26,-516.39"/>
<polygon fill="#63b8ff" stroke="#63b8ff" points="513.03,-717.78 522.36,-722.8 518.2,-713.05 513.03,-717.78"/>
</a>
</g>
</g>
<!-- Node14 -->
<g id="Node000014" class="node">
<title>Node14</title>
<g id="a_Node000014"><a xlink:href="app_8c.html#ae1beb332ba7551f1acff2f46930c4e85" target="_top" xlink:title=" ">
<polygon fill="white" stroke="#666666" points="450.25,-821.98 353.25,-821.98 353.25,-801.23 450.25,-801.23 450.25,-821.98"/>
<text text-anchor="middle" x="401.75" y="-808.48" font-family="Helvetica,sans-Serif" font-size="10.00">wrap_w2c__f426</text>
</a>
</g>
</g>
<!-- Node9&#45;&gt;Node14 -->
<g id="edge14_Node000009_Node000014" class="edge">
<title>Node9&#45;&gt;Node14</title>
<g id="a_edge14_Node000009_Node000014"><a xlink:title=" ">
<path fill="none" stroke="#63b8ff" d="M511.01,-751.98C494.65,-764 471.77,-779.89 450.25,-791.61 444.2,-794.91 437.49,-798.03 431.07,-800.78"/>
<polygon fill="#63b8ff" stroke="#63b8ff" points="512.68,-755.09 518.61,-746.31 508.5,-749.48 512.68,-755.09"/>
</a>
</g>
</g>
<!-- Node11 -->
<g id="Node000011" class="node">
<title>Node11</title>
<g id="a_Node000011"><a xlink:href="app_8c.html#a54f194530158831aa826ddabfd869e3f" target="_top" xlink:title=" ">
<polygon fill="white" stroke="#666666" points="317.25,-860.98 220.25,-860.98 220.25,-840.23 317.25,-840.23 317.25,-860.98"/>
<text text-anchor="middle" x="268.75" y="-847.48" font-family="Helvetica,sans-Serif" font-size="10.00">wrap_w2c__f270</text>
</a>
</g>
</g>
<!-- Node10&#45;&gt;Node11 -->
<g id="edge11_Node000010_Node000011" class="edge">
<title>Node10&#45;&gt;Node11</title>
<g id="a_edge11_Node000010_Node000011"><a xlink:title=" ">
<path fill="none" stroke="#63b8ff" d="M356.2,-850.61C343.78,-850.61 330.25,-850.61 317.65,-850.61"/>
<polygon fill="#63b8ff" stroke="#63b8ff" points="356.18,-854.11 366.18,-850.61 356.18,-847.11 356.18,-854.11"/>
</a>
</g>
</g>
<!-- Node13 -->
<g id="Node000013" class="node">
<title>Node13</title>
<g id="a_Node000013"><a xlink:href="app_8c.html#a053e462a04712de112461bc2539f46e8" target="_top" xlink:title=" ">
<polygon fill="white" stroke="#666666" points="317.25,-515.98 220.25,-515.98 220.25,-495.23 317.25,-495.23 317.25,-515.98"/>
<text text-anchor="middle" x="268.75" y="-502.48" font-family="Helvetica,sans-Serif" font-size="10.00">wrap_w2c__f349</text>
</a>
</g>
</g>
<!-- Node12&#45;&gt;Node13 -->
<g id="edge13_Node000012_Node000013" class="edge">
<title>Node12&#45;&gt;Node13</title>
<g id="a_edge13_Node000012_Node000013"><a xlink:title=" ">
<path fill="none" stroke="#63b8ff" d="M356.2,-505.61C343.78,-505.61 330.25,-505.61 317.65,-505.61"/>
<polygon fill="#63b8ff" stroke="#63b8ff" points="356.18,-509.11 366.18,-505.61 356.18,-502.11 356.18,-509.11"/>
</a>
</g>
</g>
<!-- Node16 -->
<g id="Node000016" class="node">
<title>Node16</title>
<g id="a_Node000016"><a xlink:href="app_8c.html#a05c797a6118657c43344590b357a796b" target="_top" xlink:title=" ">
<polygon fill="white" stroke="#666666" points="568.62,-590.98 500.88,-590.98 500.88,-570.23 568.62,-570.23 568.62,-590.98"/>
<text text-anchor="middle" x="534.75" y="-577.48" font-family="Helvetica,sans-Serif" font-size="10.00">w2c__f297</text>
</a>
</g>
</g>
<!-- Node15&#45;&gt;Node16 -->
<g id="edge16_Node000015_Node000016" class="edge">
<title>Node15&#45;&gt;Node16</title>
<g id="a_edge16_Node000015_Node000016"><a xlink:title=" ">
<path fill="none" stroke="#63b8ff" d="M622.79,-606.52C605.15,-601.27 585.16,-595.32 568.8,-590.45"/>
<polygon fill="#63b8ff" stroke="#63b8ff" points="621.66,-609.84 632.24,-609.34 623.66,-603.13 621.66,-609.84"/>
</a>
</g>
</g>
<!-- Node19 -->
<g id="Node000019" class="node">
<title>Node19</title>
<g id="a_Node000019"><a xlink:href="app_8c.html#a856b5cc253a6617dab0fccb7d825799e" target="_top" xlink:title=" ">
<polygon fill="white" stroke="#666666" points="568.62,-668.98 500.88,-668.98 500.88,-648.23 568.62,-648.23 568.62,-668.98"/>
<text text-anchor="middle" x="534.75" y="-655.48" font-family="Helvetica,sans-Serif" font-size="10.00">w2c__f368</text>
</a>
</g>
</g>
<!-- Node15&#45;&gt;Node19 -->
<g id="edge20_Node000015_Node000019" class="edge">
<title>Node15&#45;&gt;Node19</title>
<g id="a_edge20_Node000015_Node000019"><a xlink:title=" ">
<path fill="none" stroke="#63b8ff" d="M622.79,-632.7C605.15,-637.95 585.16,-643.9 568.8,-648.77"/>
<polygon fill="#63b8ff" stroke="#63b8ff" points="623.66,-636.09 632.24,-629.88 621.66,-629.38 623.66,-636.09"/>
</a>
</g>
</g>
<!-- Node23 -->
<g id="Node000023" class="node">
<title>Node23</title>
<g id="a_Node000023"><a xlink:href="app_8c.html#ac2ae189c7caaf383377bf53227a48d4d" target="_top" xlink:title=" ">
<polygon fill="white" stroke="#666666" points="583.25,-629.98 486.25,-629.98 486.25,-609.23 583.25,-609.23 583.25,-629.98"/>
<text text-anchor="middle" x="534.75" y="-616.48" font-family="Helvetica,sans-Serif" font-size="10.00">wrap_w2c__f428</text>
</a>
</g>
</g>
<!-- Node15&#45;&gt;Node23 -->
<g id="edge25_Node000015_Node000023" class="edge">
<title>Node15&#45;&gt;Node23</title>
<g id="a_edge25_Node000015_Node000023"><a xlink:title=" ">
<path fill="none" stroke="#63b8ff" d="M622.2,-619.61C609.78,-619.61 596.25,-619.61 583.65,-619.61"/>
<polygon fill="#63b8ff" stroke="#63b8ff" points="622.18,-623.11 632.18,-619.61 622.18,-616.11 622.18,-623.11"/>
</a>
</g>
</g>
<!-- Node17 -->
<g id="Node000017" class="node">
<title>Node17</title>
<g id="a_Node000017"><a xlink:href="app_8c.html#a46f73f75a1a989305b62e9f96f421e9b" target="_top" xlink:title=" ">
<polygon fill="white" stroke="#666666" points="435.62,-476.98 367.88,-476.98 367.88,-456.23 435.62,-456.23 435.62,-476.98"/>
<text text-anchor="middle" x="401.75" y="-463.48" font-family="Helvetica,sans-Serif" font-size="10.00">w2c__f516</text>
</a>
</g>
</g>
<!-- Node16&#45;&gt;Node17 -->
<g id="edge17_Node000016_Node000017" class="edge">
<title>Node16&#45;&gt;Node17</title>
<g id="a_edge17_Node000016_Node000017"><a xlink:title=" ">
<path fill="none" stroke="#63b8ff" d="M491.27,-564.74C489.49,-563.46 487.81,-562.09 486.25,-560.61 459.7,-535.46 476.8,-511.76 450.25,-486.61 446.09,-482.67 441.04,-479.45 435.81,-476.84"/>
<polygon fill="#63b8ff" stroke="#63b8ff" points="489.01,-567.47 499.39,-569.6 492.6,-561.47 489.01,-567.47"/>
</a>
</g>
</g>
<!-- Node18 -->
<g id="Node000018" class="node">
<title>Node18</title>
<g id="a_Node000018"><a xlink:href="app_8c.html#a020600b73b6fda689ab50b26c933a2d6" target="_top" xlink:title=" ">
<polygon fill="white" stroke="#666666" points="450.25,-629.98 353.25,-629.98 353.25,-609.23 450.25,-609.23 450.25,-629.98"/>
<text text-anchor="middle" x="401.75" y="-616.48" font-family="Helvetica,sans-Serif" font-size="10.00">wrap_w2c__f297</text>
</a>
</g>
</g>
<!-- Node16&#45;&gt;Node18 -->
<g id="edge19_Node000016_Node000018" class="edge">
<title>Node16&#45;&gt;Node18</title>
<g id="a_edge19_Node000016_Node000018"><a xlink:title=" ">
<path fill="none" stroke="#63b8ff" d="M489.68,-593.73C473.21,-598.63 454.71,-604.14 439.02,-608.81"/>
<polygon fill="#63b8ff" stroke="#63b8ff" points="490.66,-597.09 499.24,-590.88 488.66,-590.38 490.66,-597.09"/>
</a>
</g>
</g>
<!-- Node17&#45;&gt;Node5 -->
<g id="edge18_Node000017_Node000005" class="edge">
<title>Node17&#45;&gt;Node5</title>
<g id="a_edge18_Node000017_Node000005"><a xlink:title=" ">
<path fill="none" stroke="#63b8ff" d="M358.15,-451.14C356.39,-449.75 354.74,-448.25 353.25,-446.61 317.46,-407.34 334.07,-383.01 317.25,-332.61 301.76,-286.18 281.98,-231.26 273.69,-208.42"/>
<polygon fill="#63b8ff" stroke="#63b8ff" points="356.06,-453.96 366.39,-456.32 359.78,-448.03 356.06,-453.96"/>
</a>
</g>
</g>
<!-- Node20 -->
<g id="Node000020" class="node">
<title>Node20</title>
<g id="a_Node000020"><a xlink:href="app_8c.html#a6c89af74d99f30a7ef134089421e6f69" target="_top" xlink:title=" ">
<polygon fill="white" stroke="#666666" points="435.62,-782.98 367.88,-782.98 367.88,-762.23 435.62,-762.23 435.62,-782.98"/>
<text text-anchor="middle" x="401.75" y="-769.48" font-family="Helvetica,sans-Serif" font-size="10.00">w2c__f312</text>
</a>
</g>
</g>
<!-- Node19&#45;&gt;Node20 -->
<g id="edge21_Node000019_Node000020" class="edge">
<title>Node19&#45;&gt;Node20</title>
<g id="a_edge21_Node000019_Node000020"><a xlink:title=" ">
<path fill="none" stroke="#63b8ff" d="M513.18,-676.51C485.68,-700.45 437.77,-742.14 415.19,-761.78"/>
<polygon fill="#63b8ff" stroke="#63b8ff" points="515.27,-679.33 520.52,-670.12 510.68,-674.05 515.27,-679.33"/>
</a>
</g>
</g>
<!-- Node22 -->
<g id="Node000022" class="node">
<title>Node22</title>
<g id="a_Node000022"><a xlink:href="app_8c.html#a96fb844d2cdd3b044fcd9fab6bf0fdd4" target="_top" xlink:title=" ">
<polygon fill="white" stroke="#666666" points="450.25,-668.98 353.25,-668.98 353.25,-648.23 450.25,-648.23 450.25,-668.98"/>
<text text-anchor="middle" x="401.75" y="-655.48" font-family="Helvetica,sans-Serif" font-size="10.00">wrap_w2c__f368</text>
</a>
</g>
</g>
<!-- Node19&#45;&gt;Node22 -->
<g id="edge24_Node000019_Node000022" class="edge">
<title>Node19&#45;&gt;Node22</title>
<g id="a_edge24_Node000019_Node000022"><a xlink:title=" ">
<path fill="none" stroke="#63b8ff" d="M489.2,-658.61C476.78,-658.61 463.25,-658.61 450.65,-658.61"/>
<polygon fill="#63b8ff" stroke="#63b8ff" points="489.18,-662.11 499.18,-658.61 489.18,-655.11 489.18,-662.11"/>
</a>
</g>
</g>
<!-- Node20&#45;&gt;Node3 -->
<g id="edge22_Node000020_Node000003" class="edge">
<title>Node20&#45;&gt;Node3</title>
<g id="a_edge22_Node000020_Node000003"><a xlink:title=" ">
<path fill="none" stroke="#63b8ff" d="M364.41,-756.47C360.48,-754.08 356.67,-751.46 353.25,-748.61 317.33,-718.68 287.68,-670.52 275.6,-649.27"/>
<polygon fill="#63b8ff" stroke="#63b8ff" points="362.52,-759.42 372.97,-761.16 365.89,-753.28 362.52,-759.42"/>
</a>
</g>
</g>
<!-- Node21 -->
<g id="Node000021" class="node">
<title>Node21</title>
<g id="a_Node000021"><a xlink:href="app_8c.html#a07d438f3519d306b5f50b93149af1f10" target="_top" xlink:title=" ">
<polygon fill="white" stroke="#666666" points="317.25,-782.98 220.25,-782.98 220.25,-762.23 317.25,-762.23 317.25,-782.98"/>
<text text-anchor="middle" x="268.75" y="-769.48" font-family="Helvetica,sans-Serif" font-size="10.00">wrap_w2c__f312</text>
</a>
</g>
</g>
<!-- Node20&#45;&gt;Node21 -->
<g id="edge23_Node000020_Node000021" class="edge">
<title>Node20&#45;&gt;Node21</title>
<g id="a_edge23_Node000020_Node000021"><a xlink:title=" ">
<path fill="none" stroke="#63b8ff" d="M356.2,-772.61C343.78,-772.61 330.25,-772.61 317.65,-772.61"/>
<polygon fill="#63b8ff" stroke="#63b8ff" points="356.18,-776.11 366.18,-772.61 356.18,-769.11 356.18,-776.11"/>
</a>
</g>
</g>
<!-- Node24&#45;&gt;Node3 -->
<g id="edge27_Node000024_Node000003" class="edge">
<title>Node24&#45;&gt;Node3</title>
<g id="a_edge27_Node000024_Node000003"><a xlink:title=" ">
<path fill="none" stroke="#63b8ff" d="M654.87,-333.04C640.06,-357.47 613.03,-398.79 583.25,-428.61 531.73,-480.19 514.1,-489.42 450.25,-524.61 409.56,-547.04 392.69,-539.04 353.25,-563.61 323.31,-582.26 293.97,-612.03 279.34,-627.87"/>
<polygon fill="#63b8ff" stroke="#63b8ff" points="657.73,-335.08 659.84,-324.7 651.71,-331.5 657.73,-335.08"/>
</a>
</g>
</g>
<!-- Node24&#45;&gt;Node5 -->
<g id="edge39_Node000024_Node000005" class="edge">
<title>Node24&#45;&gt;Node5</title>
<g id="a_edge39_Node000024_Node000005"><a xlink:title=" ">
<path fill="none" stroke="#63b8ff" d="M664.17,-290.93C658.09,-250.32 638.93,-163.05 583.25,-120.61 501.67,-58.43 446.59,-59.09 353.25,-101.61 314.05,-119.47 286.12,-165.82 275.04,-186.9"/>
<polygon fill="#63b8ff" stroke="#63b8ff" points="660.67,-291.21 665.48,-300.65 667.61,-290.27 660.67,-291.21"/>
</a>
</g>
</g>
<!-- Node25 -->
<g id="Node000025" class="node">
<title>Node25</title>
<g id="a_Node000025"><a xlink:href="app_8c.html#ad7bc646ff3b0753fb5d990967fcebad3" target="_top" xlink:title=" ">
<polygon fill="white" stroke="#666666" points="568.62,-419.98 500.88,-419.98 500.88,-399.23 568.62,-399.23 568.62,-419.98"/>
<text text-anchor="middle" x="534.75" y="-406.48" font-family="Helvetica,sans-Serif" font-size="10.00">w2c__f202</text>
</a>
</g>
</g>
<!-- Node24&#45;&gt;Node25 -->
<g id="edge28_Node000024_Node000025" class="edge">
<title>Node24&#45;&gt;Node25</title>
<g id="a_edge28_Node000024_Node000025"><a xlink:title=" ">
<path fill="none" stroke="#63b8ff" d="M643.09,-330.13C616.1,-350.11 572.8,-382.17 550.33,-398.81"/>
<polygon fill="#63b8ff" stroke="#63b8ff" points="645.06,-333.03 651.01,-324.26 640.89,-327.4 645.06,-333.03"/>
</a>
</g>
</g>
<!-- Node27 -->
<g id="Node000027" class="node">
<title>Node27</title>
<g id="a_Node000027"><a xlink:href="app_8c.html#aaecdbe8af0d0258948228167c29a538b" target="_top" xlink:title=" ">
<polygon fill="white" stroke="#666666" points="568.62,-342.98 500.88,-342.98 500.88,-322.23 568.62,-322.23 568.62,-342.98"/>
<text text-anchor="middle" x="534.75" y="-329.48" font-family="Helvetica,sans-Serif" font-size="10.00">w2c__f241</text>
</a>
</g>
</g>
<!-- Node24&#45;&gt;Node27 -->
<g id="edge30_Node000024_Node000027" class="edge">
<title>Node24&#45;&gt;Node27</title>
<g id="a_edge30_Node000024_Node000027"><a xlink:title=" ">
<path fill="none" stroke="#63b8ff" d="M622.53,-319.36C604.96,-322.04 585.08,-325.08 568.8,-327.56"/>
<polygon fill="#63b8ff" stroke="#63b8ff" points="622.84,-322.85 632.2,-317.89 621.78,-315.93 622.84,-322.85"/>
</a>
</g>
</g>
<!-- Node32 -->
<g id="Node000032" class="node">
<title>Node32</title>
<g id="a_Node000032"><a xlink:href="app_8c.html#aada8f3762f0960bddf55a2e59d8087f8" target="_top" xlink:title=" ">
<polygon fill="white" stroke="#666666" points="568.62,-264.98 500.88,-264.98 500.88,-244.23 568.62,-244.23 568.62,-264.98"/>
<text text-anchor="middle" x="534.75" y="-251.48" font-family="Helvetica,sans-Serif" font-size="10.00">w2c__f375</text>
</a>
</g>
</g>
<!-- Node24&#45;&gt;Node32 -->
<g id="edge40_Node000024_Node000032" class="edge">
<title>Node24&#45;&gt;Node32</title>
<g id="a_edge40_Node000024_Node000032"><a xlink:title=" ">
<path fill="none" stroke="#63b8ff" d="M632.99,-296.98C617.83,-290.03 599.69,-281.81 583.25,-274.61 576.37,-271.59 568.88,-268.4 561.94,-265.48"/>
<polygon fill="#63b8ff" stroke="#63b8ff" points="631.51,-300.15 642.06,-301.15 634.44,-293.79 631.51,-300.15"/>
</a>
</g>
</g>
<!-- Node34 -->
<g id="Node000034" class="node">
<title>Node34</title>
<g id="a_Node000034"><a xlink:href="app_8c.html#accaa66b0a8b5284f9eee5ee3fb08c203" target="_top" xlink:title=" ">
<polygon fill="white" stroke="#666666" points="568.62,-149.98 500.88,-149.98 500.88,-129.23 568.62,-129.23 568.62,-149.98"/>
<text text-anchor="middle" x="534.75" y="-136.48" font-family="Helvetica,sans-Serif" font-size="10.00">w2c__f412</text>
</a>
</g>
</g>
<!-- Node24&#45;&gt;Node34 -->
<g id="edge42_Node000024_Node000034" class="edge">
<title>Node24&#45;&gt;Node34</title>
<g id="a_edge42_Node000024_Node000034"><a xlink:title=" ">
<path fill="none" stroke="#63b8ff" d="M653.02,-292.64C636.81,-269.28 608.81,-229.58 583.25,-196.61 570.47,-180.12 554.84,-161.67 545.09,-150.35"/>
<polygon fill="#63b8ff" stroke="#63b8ff" points="649.97,-294.39 658.54,-300.62 655.73,-290.41 649.97,-294.39"/>
</a>
</g>
</g>
<!-- Node36 -->
<g id="Node000036" class="node">
<title>Node36</title>
<g id="a_Node000036"><a xlink:href="app_8c.html#a2fc108d0a1e371184535db48139b917f" target="_top" xlink:title=" ">
<polygon fill="white" stroke="#666666" points="568.62,-551.98 500.88,-551.98 500.88,-531.23 568.62,-531.23 568.62,-551.98"/>
<text text-anchor="middle" x="534.75" y="-538.48" font-family="Helvetica,sans-Serif" font-size="10.00">w2c__f545</text>
</a>
</g>
</g>
<!-- Node24&#45;&gt;Node36 -->
<g id="edge44_Node000024_Node000036" class="edge">
<title>Node24&#45;&gt;Node36</title>
<g id="a_edge44_Node000024_Node000036"><a xlink:title=" ">
<path fill="none" stroke="#63b8ff" d="M663.05,-334.65C655.16,-375.44 633.19,-463.45 583.25,-517.61 578.24,-523.04 571.72,-527.43 565.13,-530.88"/>
<polygon fill="#63b8ff" stroke="#63b8ff" points="666.48,-335.34 664.82,-324.88 659.59,-334.09 666.48,-335.34"/>
</a>
</g>
</g>
<!-- Node37 -->
<g id="Node000037" class="node">
<title>Node37</title>
<g id="a_Node000037"><a xlink:href="app_8c.html#a8e782c1e475253bfb6f6572258dd2dca" target="_top" xlink:title=" ">
<polygon fill="white" stroke="#666666" points="568.62,-303.98 500.88,-303.98 500.88,-283.23 568.62,-283.23 568.62,-303.98"/>
<text text-anchor="middle" x="534.75" y="-290.48" font-family="Helvetica,sans-Serif" font-size="10.00">w2c__f559</text>
</a>
</g>
</g>
<!-- Node24&#45;&gt;Node37 -->
<g id="edge46_Node000024_Node000037" class="edge">
<title>Node24&#45;&gt;Node37</title>
<g id="a_edge46_Node000024_Node000037"><a xlink:title=" ">
<path fill="none" stroke="#63b8ff" d="M622.53,-306.2C604.96,-303.65 585.08,-300.77 568.8,-298.4"/>
<polygon fill="#63b8ff" stroke="#63b8ff" points="621.8,-309.63 632.2,-307.6 622.8,-302.7 621.8,-309.63"/>
</a>
</g>
</g>
<!-- Node38 -->
<g id="Node000038" class="node">
<title>Node38</title>
<g id="a_Node000038"><a xlink:href="app_8c.html#aeefcd133b6277bd69830624a75605d9d" target="_top" xlink:title=" ">
<polygon fill="white" stroke="#666666" points="583.25,-225.98 486.25,-225.98 486.25,-205.23 583.25,-205.23 583.25,-225.98"/>
<text text-anchor="middle" x="534.75" y="-212.48" font-family="Helvetica,sans-Serif" font-size="10.00">wrap_w2c__f560</text>
</a>
</g>
</g>
<!-- Node24&#45;&gt;Node38 -->
<g id="edge48_Node000024_Node000038" class="edge">
<title>Node24&#45;&gt;Node38</title>
<g id="a_edge48_Node000024_Node000038"><a xlink:title=" ">
<path fill="none" stroke="#63b8ff" d="M650.01,-293.83C634.14,-276.88 608.95,-252.15 583.25,-235.61 577.91,-232.17 571.87,-229.1 565.95,-226.46"/>
<polygon fill="#63b8ff" stroke="#63b8ff" points="647.05,-295.78 656.39,-300.78 652.21,-291.05 647.05,-295.78"/>
</a>
</g>
</g>
<!-- Node26 -->
<g id="Node000026" class="node">
<title>Node26</title>
<g id="a_Node000026"><a xlink:href="app_8c.html#a1829cf9a76fc8b745da60219baa76dbf" target="_top" xlink:title=" ">
<polygon fill="white" stroke="#666666" points="450.25,-437.98 353.25,-437.98 353.25,-417.23 450.25,-417.23 450.25,-437.98"/>
<text text-anchor="middle" x="401.75" y="-424.48" font-family="Helvetica,sans-Serif" font-size="10.00">wrap_w2c__f202</text>
</a>
</g>
</g>
<!-- Node25&#45;&gt;Node26 -->
<g id="edge29_Node000025_Node000026" class="edge">
<title>Node25&#45;&gt;Node26</title>
<g id="a_edge29_Node000025_Node000026"><a xlink:title=" ">
<path fill="none" stroke="#63b8ff" d="M489.58,-415.68C477.06,-417.4 463.38,-419.28 450.65,-421.03"/>
<polygon fill="#63b8ff" stroke="#63b8ff" points="489.76,-419.19 499.19,-414.36 488.81,-412.25 489.76,-419.19"/>
</a>
</g>
</g>
<!-- Node27&#45;&gt;Node3 -->
<g id="edge31_Node000027_Node000003" class="edge">
<title>Node27&#45;&gt;Node3</title>
<g id="a_edge31_Node000027_Node000003"><a xlink:title=" ">
<path fill="none" stroke="#63b8ff" d="M500.84,-348.08C485.54,-355.14 467.05,-363.5 450.25,-370.61 407.61,-388.65 384.78,-374.71 353.25,-408.61 316.49,-448.14 335.65,-473.86 317.25,-524.61 303.29,-563.11 283.72,-607.62 274.68,-627.74"/>
<polygon fill="#63b8ff" stroke="#63b8ff" points="501.89,-351.45 509.49,-344.07 498.94,-345.1 501.89,-351.45"/>
</a>
</g>
</g>
<!-- Node27&#45;&gt;Node5 -->
<g id="edge33_Node000027_Node000005" class="edge">
<title>Node27&#45;&gt;Node5</title>
<g id="a_edge33_Node000027_Node000005"><a xlink:title=" ">
<path fill="none" stroke="#63b8ff" d="M490.84,-316.13C489.24,-315.02 487.7,-313.85 486.25,-312.61 463.18,-292.9 474.21,-273.23 450.25,-254.61 444.27,-249.96 353.15,-222.41 302.73,-207.38"/>
<polygon fill="#63b8ff" stroke="#63b8ff" points="488.82,-319 499.22,-321.01 492.34,-312.95 488.82,-319"/>
</a>
</g>
</g>
<!-- Node27&#45;&gt;Node12 -->
<g id="edge32_Node000027_Node000012" class="edge">
<title>Node27&#45;&gt;Node12</title>
<g id="a_edge32_Node000027_Node000012"><a xlink:title=" ">
<path fill="none" stroke="#63b8ff" d="M515.56,-351.56C505.91,-362.37 494.39,-376.53 486.25,-390.61 463.65,-429.7 481.59,-453.11 450.25,-485.61 446.27,-489.73 441.32,-493.04 436.12,-495.69"/>
<polygon fill="#63b8ff" stroke="#63b8ff" points="517.9,-354.2 522.09,-344.47 512.75,-349.46 517.9,-354.2"/>
</a>
</g>
</g>
<!-- Node28 -->
<g id="Node000028" class="node">
<title>Node28</title>
<g id="a_Node000028"><a xlink:href="app_8c.html#a4e0e8b8ddb7852b111d530fef11aca0b" target="_top" xlink:title=" ">
<polygon fill="white" stroke="#666666" points="435.62,-283.98 367.88,-283.98 367.88,-263.23 435.62,-263.23 435.62,-283.98"/>
<text text-anchor="middle" x="401.75" y="-270.48" font-family="Helvetica,sans-Serif" font-size="10.00">w2c__f434</text>
</a>
</g>
</g>
<!-- Node27&#45;&gt;Node28 -->
<g id="edge34_Node000027_Node000028" class="edge">
<title>Node27&#45;&gt;Node28</title>
<g id="a_edge34_Node000027_Node000028"><a xlink:title=" ">
<path fill="none" stroke="#63b8ff" d="M496.53,-317.31C493.04,-315.76 489.57,-314.18 486.25,-312.61 469.9,-304.87 466.6,-301.35 450.25,-293.61 443.62,-290.47 436.36,-287.29 429.56,-284.42"/>
<polygon fill="#63b8ff" stroke="#63b8ff" points="494.98,-320.45 505.55,-321.2 497.76,-314.02 494.98,-320.45"/>
</a>
</g>
</g>
<!-- Node29 -->
<g id="Node000029" class="node">
<title>Node29</title>
<g id="a_Node000029"><a xlink:href="app_8c.html#a83755b8cd21c3725397c6ca0d8dc1f28" target="_top" xlink:title=" ">
<polygon fill="white" stroke="#666666" points="435.62,-361.98 367.88,-361.98 367.88,-341.23 435.62,-341.23 435.62,-361.98"/>
<text text-anchor="middle" x="401.75" y="-348.48" font-family="Helvetica,sans-Serif" font-size="10.00">w2c__f471</text>
</a>
</g>
</g>
<!-- Node27&#45;&gt;Node29 -->
<g id="edge36_Node000027_Node000029" class="edge">
<title>Node27&#45;&gt;Node29</title>
<g id="a_edge36_Node000027_Node000029"><a xlink:title=" ">
<path fill="none" stroke="#63b8ff" d="M489.53,-339.02C471.96,-341.57 452.08,-344.45 435.8,-346.82"/>
<polygon fill="#63b8ff" stroke="#63b8ff" points="489.8,-342.52 499.2,-337.62 488.8,-335.59 489.8,-342.52"/>
</a>
</g>
</g>
<!-- Node31 -->
<g id="Node000031" class="node">
<title>Node31</title>
<g id="a_Node000031"><a xlink:href="app_8c.html#a45a77e2bb896e73245a23486ebe0a307" target="_top" xlink:title=" ">
<polygon fill="white" stroke="#666666" points="450.25,-322.98 353.25,-322.98 353.25,-302.23 450.25,-302.23 450.25,-322.98"/>
<text text-anchor="middle" x="401.75" y="-309.48" font-family="Helvetica,sans-Serif" font-size="10.00">wrap_w2c__f241</text>
</a>
</g>
</g>
<!-- Node27&#45;&gt;Node31 -->
<g id="edge38_Node000027_Node000031" class="edge">
<title>Node27&#45;&gt;Node31</title>
<g id="a_edge38_Node000027_Node000031"><a xlink:title=" ">
<path fill="none" stroke="#63b8ff" d="M489.58,-325.87C477.06,-323.96 463.38,-321.87 450.65,-319.92"/>
<polygon fill="#63b8ff" stroke="#63b8ff" points="488.78,-329.29 499.2,-327.33 489.84,-322.37 488.78,-329.29"/>
</a>
</g>
</g>
<!-- Node28&#45;&gt;Node5 -->
<g id="edge35_Node000028_Node000005" class="edge">
<title>Node28&#45;&gt;Node5</title>
<g id="a_edge35_Node000028_Node000005"><a xlink:title=" ">
<path fill="none" stroke="#63b8ff" d="M368.19,-257.64C363.15,-255.03 358.03,-252.3 353.25,-249.61 329.44,-236.21 302.77,-219.25 286.12,-208.41"/>
<polygon fill="#63b8ff" stroke="#63b8ff" points="366.45,-260.69 376.95,-262.1 369.62,-254.45 366.45,-260.69"/>
</a>
</g>
</g>
<!-- Node30 -->
<g id="Node000030" class="node">
<title>Node30</title>
<g id="a_Node000030"><a xlink:href="app_8c.html#a6b5632f950c10613ca99f4746ff29f36" target="_top" xlink:title=" ">
<polygon fill="white" stroke="#666666" points="317.25,-361.98 220.25,-361.98 220.25,-341.23 317.25,-341.23 317.25,-361.98"/>
<text text-anchor="middle" x="268.75" y="-348.48" font-family="Helvetica,sans-Serif" font-size="10.00">wrap_w2c__f471</text>
</a>
</g>
</g>
<!-- Node29&#45;&gt;Node30 -->
<g id="edge37_Node000029_Node000030" class="edge">
<title>Node29&#45;&gt;Node30</title>
<g id="a_edge37_Node000029_Node000030"><a xlink:title=" ">
<path fill="none" stroke="#63b8ff" d="M356.2,-351.61C343.78,-351.61 330.25,-351.61 317.65,-351.61"/>
<polygon fill="#63b8ff" stroke="#63b8ff" points="356.18,-355.11 366.18,-351.61 356.18,-348.11 356.18,-355.11"/>
</a>
</g>
</g>
<!-- Node33 -->
<g id="Node000033" class="node">
<title>Node33</title>
<g id="a_Node000033"><a xlink:href="app_8c.html#a1dbeefc302b8764476968e13a8f8ad87" target="_top" xlink:title=" ">
<polygon fill="white" stroke="#666666" points="450.25,-169.98 353.25,-169.98 353.25,-149.23 450.25,-149.23 450.25,-169.98"/>
<text text-anchor="middle" x="401.75" y="-156.48" font-family="Helvetica,sans-Serif" font-size="10.00">wrap_w2c__f375</text>
</a>
</g>
</g>
<!-- Node32&#45;&gt;Node33 -->
<g id="edge41_Node000032_Node000033" class="edge">
<title>Node32&#45;&gt;Node33</title>
<g id="a_edge41_Node000032_Node000033"><a xlink:title=" ">
<path fill="none" stroke="#63b8ff" d="M491.55,-238.42C489.7,-237.23 487.92,-235.96 486.25,-234.61 464.63,-217.22 471.25,-201.74 450.25,-183.61 444.23,-178.42 436.9,-174.01 429.81,-170.44"/>
<polygon fill="#63b8ff" stroke="#63b8ff" points="489.44,-241.25 499.88,-243.06 492.84,-235.14 489.44,-241.25"/>
</a>
</g>
</g>
<!-- Node35 -->
<g id="Node000035" class="node">
<title>Node35</title>
<g id="a_Node000035"><a xlink:href="app_8c.html#ad7e6219b365d4df9ffa2a21183e954f2" target="_top" xlink:title=" ">
<polygon fill="white" stroke="#666666" points="450.25,-130.98 353.25,-130.98 353.25,-110.23 450.25,-110.23 450.25,-130.98"/>
<text text-anchor="middle" x="401.75" y="-117.48" font-family="Helvetica,sans-Serif" font-size="10.00">wrap_w2c__f412</text>
</a>
</g>
</g>
<!-- Node34&#45;&gt;Node35 -->
<g id="edge43_Node000034_Node000035" class="edge">
<title>Node34&#45;&gt;Node35</title>
<g id="a_edge43_Node000034_Node000035"><a xlink:title=" ">
<path fill="none" stroke="#63b8ff" d="M489.58,-133.2C477.06,-131.39 463.38,-129.4 450.65,-127.56"/>
<polygon fill="#63b8ff" stroke="#63b8ff" points="488.8,-136.63 499.2,-134.6 489.8,-129.7 488.8,-136.63"/>
</a>
</g>
</g>
<!-- Node36&#45;&gt;Node3 -->
<g id="edge45_Node000036_Node000003" class="edge">
<title>Node36&#45;&gt;Node3</title>
<g id="a_edge45_Node000036_Node000003"><a xlink:title=" ">
<path fill="none" stroke="#63b8ff" d="M489.56,-554.55C452.71,-565.7 399.05,-582.77 353.25,-600.61 332.03,-608.88 308.46,-619.77 291.79,-627.77"/>
<polygon fill="#63b8ff" stroke="#63b8ff" points="490.4,-557.95 498.97,-551.72 488.39,-551.25 490.4,-557.95"/>
</a>
</g>
</g>
<!-- Node37&#45;&gt;Node5 -->
<g id="edge47_Node000037_Node000005" class="edge">
<title>Node37&#45;&gt;Node5</title>
<g id="a_edge47_Node000037_Node000005"><a xlink:title=" ">
<path fill="none" stroke="#63b8ff" d="M491.53,-277.44C489.69,-276.24 487.92,-274.96 486.25,-273.61 464.43,-255.89 474.23,-236.27 450.25,-221.61 404.94,-193.91 341.36,-192.23 303.01,-194.35"/>
<polygon fill="#63b8ff" stroke="#63b8ff" points="489.42,-280.27 499.85,-282.09 492.83,-274.15 489.42,-280.27"/>
</a>
</g>
</g>
</g>
</svg>
