<?xml version="1.0" encoding="UTF-8" standalone="no"?>
<!DOCTYPE svg PUBLIC "-//W3C//DTD SVG 1.1//EN"
 "http://www.w3.org/Graphics/SVG/1.1/DTD/svg11.dtd">
<!-- Generated by graphviz version 12.2.1 (0)
 -->
<!-- Title: w2c_0_98 Pages: 1 -->
<svg width="442pt" height="107pt"
 viewBox="0.00 0.00 441.75 106.75" xmlns="http://www.w3.org/2000/svg" xmlns:xlink="http://www.w3.org/1999/xlink">
<g id="graph0" class="graph" transform="scale(1 1) rotate(0) translate(4 102.75)">
<title>w2c_0_98</title>
<!-- Node1 -->
<g id="Node000001" class="node">
<title>Node1</title>
<g id="a_Node000001"><a xlink:title=" ">
<polygon fill="#999999" stroke="#666666" points="433.75,-58.75 369.75,-58.75 369.75,-38 433.75,-38 433.75,-58.75"/>
<text text-anchor="middle" x="401.75" y="-45.25" font-family="Helvetica,sans-Serif" font-size="10.00">w2c_0_98</text>
</a>
</g>
</g>
<!-- Node2 -->
<g id="Node000002" class="node">
<title>Node2</title>
<g id="a_Node000002"><a xlink:href="app_8c.html#a7dc7d70793bae217b64eab580fce99cb" target="_top" xlink:title=" ">
<polygon fill="white" stroke="#666666" points="333.75,-97.75 266,-97.75 266,-77 333.75,-77 333.75,-97.75"/>
<text text-anchor="middle" x="299.88" y="-84.25" font-family="Helvetica,sans-Serif" font-size="10.00">w2c__f215</text>
</a>
</g>
</g>
<!-- Node1&#45;&gt;Node2 -->
<g id="edge1_Node000001_Node000002" class="edge">
<title>Node1&#45;&gt;Node2</title>
<g id="a_edge1_Node000001_Node000002"><a xlink:title=" ">
<path fill="none" stroke="#63b8ff" d="M362.44,-63.33C351.16,-67.74 339.03,-72.48 328.55,-76.57"/>
<polygon fill="#63b8ff" stroke="#63b8ff" points="363.48,-66.69 371.52,-59.79 360.93,-60.17 363.48,-66.69"/>
</a>
</g>
</g>
<!-- Node4 -->
<g id="Node000004" class="node">
<title>Node4</title>
<g id="a_Node000004"><a xlink:href="app_8c.html#afb3fbfc35abe0f21d554f326b79a0b76" target="_top" xlink:title=" ">
<polygon fill="white" stroke="#666666" points="333.75,-58.75 266,-58.75 266,-38 333.75,-38 333.75,-58.75"/>
<text text-anchor="middle" x="299.88" y="-45.25" font-family="Helvetica,sans-Serif" font-size="10.00">w2c__f494</text>
</a>
</g>
</g>
<!-- Node1&#45;&gt;Node4 -->
<g id="edge3_Node000001_Node000004" class="edge">
<title>Node1&#45;&gt;Node4</title>
<g id="a_edge3_Node000001_Node000004"><a xlink:title=" ">
<path fill="none" stroke="#63b8ff" d="M358.01,-48.38C350.03,-48.38 341.81,-48.38 334.16,-48.38"/>
<polygon fill="#63b8ff" stroke="#63b8ff" points="357.91,-51.88 367.91,-48.38 357.91,-44.88 357.91,-51.88"/>
</a>
</g>
</g>
<!-- Node7 -->
<g id="Node000007" class="node">
<title>Node7</title>
<g id="a_Node000007"><a xlink:href="app_8c.html#ad1dbc2afe7918517df3fc54838f07298" target="_top" xlink:title=" ">
<polygon fill="white" stroke="#666666" points="215.38,-20.75 147.62,-20.75 147.62,0 215.38,0 215.38,-20.75"/>
<text text-anchor="middle" x="181.5" y="-7.25" font-family="Helvetica,sans-Serif" font-size="10.00">w2c__f520</text>
</a>
</g>
</g>
<!-- Node1&#45;&gt;Node7 -->
<g id="edge8_Node000001_Node000007" class="edge">
<title>Node1&#45;&gt;Node7</title>
<g id="a_edge8_Node000001_Node000007"><a xlink:title=" ">
<path fill="none" stroke="#63b8ff" d="M358.48,-35.34C350.33,-33.13 341.81,-31.02 333.75,-29.38 293.55,-21.2 246.58,-15.96 215.78,-13.1"/>
<polygon fill="#63b8ff" stroke="#63b8ff" points="357.26,-38.64 367.84,-37.98 359.16,-31.9 357.26,-38.64"/>
</a>
</g>
</g>
<!-- Node3 -->
<g id="Node000003" class="node">
<title>Node3</title>
<g id="a_Node000003"><a xlink:href="app_8c.html#a7f65ba02075f2865f478747946b07c94" target="_top" xlink:title=" ">
<polygon fill="white" stroke="#666666" points="230,-98.75 133,-98.75 133,-78 230,-78 230,-98.75"/>
<text text-anchor="middle" x="181.5" y="-85.25" font-family="Helvetica,sans-Serif" font-size="10.00">wrap_w2c__f215</text>
</a>
</g>
</g>
<!-- Node2&#45;&gt;Node3 -->
<g id="edge2_Node000002_Node000003" class="edge">
<title>Node2&#45;&gt;Node3</title>
<g id="a_edge2_Node000002_Node000003"><a xlink:title=" ">
<path fill="none" stroke="#63b8ff" d="M254.28,-87.76C246.39,-87.83 238.14,-87.9 230.16,-87.97"/>
<polygon fill="#63b8ff" stroke="#63b8ff" points="254.04,-91.26 264.01,-87.67 253.98,-84.26 254.04,-91.26"/>
</a>
</g>
</g>
<!-- Node5 -->
<g id="Node000005" class="node">
<title>Node5</title>
<g id="a_Node000005"><a xlink:href="app_8c.html#a86ae468e235684021eadfdacd5cb9dba" target="_top" xlink:title=" ">
<polygon fill="white" stroke="#666666" points="215.38,-59.75 147.62,-59.75 147.62,-39 215.38,-39 215.38,-59.75"/>
<text text-anchor="middle" x="181.5" y="-46.25" font-family="Helvetica,sans-Serif" font-size="10.00">w2c__f452</text>
</a>
</g>
</g>
<!-- Node4&#45;&gt;Node5 -->
<g id="edge4_Node000004_Node000005" class="edge">
<title>Node4&#45;&gt;Node5</title>
<g id="a_edge4_Node000004_Node000005"><a xlink:title=" ">
<path fill="none" stroke="#63b8ff" d="M254.16,-48.76C241.43,-48.87 227.78,-48.99 215.85,-49.09"/>
<polygon fill="#63b8ff" stroke="#63b8ff" points="254.04,-52.26 264.01,-48.67 253.98,-45.26 254.04,-52.26"/>
</a>
</g>
</g>
<!-- Node4&#45;&gt;Node7 -->
<g id="edge6_Node000004_Node000007" class="edge">
<title>Node4&#45;&gt;Node7</title>
<g id="a_edge6_Node000004_Node000007"><a xlink:title=" ">
<path fill="none" stroke="#63b8ff" d="M255.15,-34.1C242.05,-29.82 227.91,-25.2 215.62,-21.19"/>
<polygon fill="#63b8ff" stroke="#63b8ff" points="253.81,-37.34 264.4,-37.12 255.98,-30.69 253.81,-37.34"/>
</a>
</g>
</g>
<!-- Node6 -->
<g id="Node000006" class="node">
<title>Node6</title>
<g id="a_Node000006"><a xlink:href="app_8c.html#a57ca4f801147f9325a0ea7cc2d7192c5" target="_top" xlink:title=" ">
<polygon fill="white" stroke="#666666" points="97,-59.75 0,-59.75 0,-39 97,-39 97,-59.75"/>
<text text-anchor="middle" x="48.5" y="-46.25" font-family="Helvetica,sans-Serif" font-size="10.00">wrap_w2c__f452</text>
</a>
</g>
</g>
<!-- Node5&#45;&gt;Node6 -->
<g id="edge5_Node000005_Node000006" class="edge">
<title>Node5&#45;&gt;Node6</title>
<g id="a_edge5_Node000005_Node000006"><a xlink:title=" ">
<path fill="none" stroke="#63b8ff" d="M135.95,-49.38C123.53,-49.38 110,-49.38 97.4,-49.38"/>
<polygon fill="#63b8ff" stroke="#63b8ff" points="135.93,-52.88 145.93,-49.38 135.93,-45.88 135.93,-52.88"/>
</a>
</g>
</g>
<!-- Node8 -->
<g id="Node000008" class="node">
<title>Node8</title>
<g id="a_Node000008"><a xlink:href="app_8c.html#a130f07b726020d1add9a7ed5178e023a" target="_top" xlink:title=" ">
<polygon fill="white" stroke="#666666" points="97,-20.75 0,-20.75 0,0 97,0 97,-20.75"/>
<text text-anchor="middle" x="48.5" y="-7.25" font-family="Helvetica,sans-Serif" font-size="10.00">wrap_w2c__f520</text>
</a>
</g>
</g>
<!-- Node7&#45;&gt;Node8 -->
<g id="edge7_Node000007_Node000008" class="edge">
<title>Node7&#45;&gt;Node8</title>
<g id="a_edge7_Node000007_Node000008"><a xlink:title=" ">
<path fill="none" stroke="#63b8ff" d="M135.95,-10.38C123.53,-10.38 110,-10.38 97.4,-10.38"/>
<polygon fill="#63b8ff" stroke="#63b8ff" points="135.93,-13.88 145.93,-10.38 135.93,-6.88 135.93,-13.88"/>
</a>
</g>
</g>
</g>
</svg>
