<?xml version="1.0" encoding="UTF-8" standalone="no"?>
<!DOCTYPE svg PUBLIC "-//W3C//DTD SVG 1.1//EN"
 "http://www.w3.org/Graphics/SVG/1.1/DTD/svg11.dtd">
<!-- Generated by graphviz version 12.2.1 (0)
 -->
<!-- Title: w2c__f486 Pages: 1 -->
<svg width="802pt" height="313pt"
 viewBox="0.00 0.00 802.00 313.00" xmlns="http://www.w3.org/2000/svg" xmlns:xlink="http://www.w3.org/1999/xlink">
<g id="graph0" class="graph" transform="scale(1 1) rotate(0) translate(4 309)">
<title>w2c__f486</title>
<!-- Node1 -->
<g id="Node000001" class="node">
<title>Node1</title>
<g id="a_Node000001"><a xlink:title=" ">
<polygon fill="#999999" stroke="#666666" points="67.75,-162.38 0,-162.38 0,-141.62 67.75,-141.62 67.75,-162.38"/>
<text text-anchor="middle" x="33.88" y="-148.88" font-family="Helvetica,sans-Serif" font-size="10.00">w2c__f486</text>
</a>
</g>
</g>
<!-- Node2 -->
<g id="Node000002" class="node">
<title>Node2</title>
<g id="a_Node000002"><a xlink:href="app_8c.html#a16b87571119c211bed30fa7b8b381ed7" target="_top" xlink:title=" ">
<polygon fill="white" stroke="#666666" points="171.5,-239.38 103.75,-239.38 103.75,-218.62 171.5,-218.62 171.5,-239.38"/>
<text text-anchor="middle" x="137.62" y="-225.88" font-family="Helvetica,sans-Serif" font-size="10.00">w2c__f224</text>
</a>
</g>
</g>
<!-- Node1&#45;&gt;Node2 -->
<g id="edge1_Node000001_Node000002" class="edge">
<title>Node1&#45;&gt;Node2</title>
<g id="a_edge1_Node000001_Node000002"><a xlink:title=" ">
<path fill="none" stroke="#63b8ff" d="M48.78,-162.86C62.63,-173.65 84.55,-190.61 103.75,-205 106.6,-207.14 109.6,-209.36 112.58,-211.55"/>
<polygon fill="#63b8ff" stroke="#63b8ff" points="110.48,-214.35 120.62,-217.43 114.61,-208.7 110.48,-214.35"/>
</a>
</g>
</g>
<!-- Node3 -->
<g id="Node000003" class="node">
<title>Node3</title>
<g id="a_Node000003"><a xlink:href="app_8c.html#a800df00ef236c6d6affc3c661b37e3ad" target="_top" xlink:title=" ">
<polygon fill="white" stroke="#666666" points="690.25,-239.38 622.5,-239.38 622.5,-218.62 690.25,-218.62 690.25,-239.38"/>
<text text-anchor="middle" x="656.38" y="-225.88" font-family="Helvetica,sans-Serif" font-size="10.00">w2c__f487</text>
</a>
</g>
</g>
<!-- Node1&#45;&gt;Node3 -->
<g id="edge28_Node000001_Node000003" class="edge">
<title>Node1&#45;&gt;Node3</title>
<g id="a_edge28_Node000001_Node000003"><a xlink:title=" ">
<path fill="none" stroke="#63b8ff" d="M40.01,-162.71C49.84,-182.18 73.09,-223.61 103.75,-248 155.25,-288.95 174.58,-305 240.38,-305 240.38,-305 240.38,-305 449.88,-305 512.67,-305 528.47,-292.98 586.5,-269 601.63,-262.75 617.49,-253.73 630.17,-245.83"/>
<polygon fill="#63b8ff" stroke="#63b8ff" points="631.77,-248.97 638.31,-240.63 628,-243.07 631.77,-248.97"/>
</a>
</g>
</g>
<!-- Node6 -->
<g id="Node000006" class="node">
<title>Node6</title>
<g id="a_Node000006"><a xlink:href="app_8c.html#a986f1214d53a515b2b887b8f988fa6a1" target="_top" xlink:title=" ">
<polygon fill="white" stroke="#666666" points="379,-201.38 311.25,-201.38 311.25,-180.62 379,-180.62 379,-201.38"/>
<text text-anchor="middle" x="345.12" y="-187.88" font-family="Helvetica,sans-Serif" font-size="10.00">w2c__f365</text>
</a>
</g>
</g>
<!-- Node1&#45;&gt;Node6 -->
<g id="edge23_Node000001_Node000006" class="edge">
<title>Node1&#45;&gt;Node6</title>
<g id="a_edge23_Node000001_Node000006"><a xlink:title=" ">
<path fill="none" stroke="#63b8ff" d="M68.22,-162.54C79.41,-165.72 92.03,-168.91 103.75,-171 171.36,-183.03 250.98,-187.85 299.48,-189.77"/>
<polygon fill="#63b8ff" stroke="#63b8ff" points="299.19,-193.26 309.31,-190.13 299.45,-186.26 299.19,-193.26"/>
</a>
</g>
</g>
<!-- Node9 -->
<g id="Node000009" class="node">
<title>Node9</title>
<g id="a_Node000009"><a xlink:href="app_8c.html#a03fa34d93d32a3ee40dfc2d840730111" target="_top" xlink:title=" ">
<polygon fill="white" stroke="#666666" points="690.25,-161.38 622.5,-161.38 622.5,-140.62 690.25,-140.62 690.25,-161.38"/>
<text text-anchor="middle" x="656.38" y="-147.88" font-family="Helvetica,sans-Serif" font-size="10.00">w2c__f262</text>
</a>
</g>
</g>
<!-- Node1&#45;&gt;Node9 -->
<g id="edge19_Node000001_Node000009" class="edge">
<title>Node1&#45;&gt;Node9</title>
<g id="a_edge19_Node000001_Node000009"><a xlink:title=" ">
<path fill="none" stroke="#63b8ff" d="M67.99,-142.02C108.31,-130.76 178.7,-114 240.38,-114 240.38,-114 240.38,-114 449.88,-114 506.21,-114 569.87,-127.63 611.2,-138.35"/>
<polygon fill="#63b8ff" stroke="#63b8ff" points="610.22,-141.71 620.78,-140.89 612.02,-134.94 610.22,-141.71"/>
</a>
</g>
</g>
<!-- Node13 -->
<g id="Node000013" class="node">
<title>Node13</title>
<g id="a_Node000013"><a xlink:href="app_8c.html#a0e0dad0ebc52e45eeff2e1b5d8389ea4" target="_top" xlink:title=" ">
<polygon fill="white" stroke="#666666" points="690.25,-66.38 622.5,-66.38 622.5,-45.62 690.25,-45.62 690.25,-66.38"/>
<text text-anchor="middle" x="656.38" y="-52.88" font-family="Helvetica,sans-Serif" font-size="10.00">w2c__f534</text>
</a>
</g>
</g>
<!-- Node1&#45;&gt;Node13 -->
<g id="edge29_Node000001_Node000013" class="edge">
<title>Node1&#45;&gt;Node13</title>
<g id="a_edge29_Node000001_Node000013"><a xlink:title=" ">
<path fill="none" stroke="#63b8ff" d="M40.04,-141.41C49.92,-122.14 73.24,-81.14 103.75,-57 155.35,-16.17 174.58,0 240.38,0 240.38,0 240.38,0 449.88,0 512.07,0 581.24,-24.17 621.38,-40.75"/>
<polygon fill="#63b8ff" stroke="#63b8ff" points="619.93,-43.94 630.5,-44.61 622.66,-37.49 619.93,-43.94"/>
</a>
</g>
</g>
<!-- Node14 -->
<g id="Node000014" class="node">
<title>Node14</title>
<g id="a_Node000014"><a xlink:href="app_8c.html#aa0030424238c18279b4e86b3772151fa" target="_top" xlink:title=" ">
<polygon fill="white" stroke="#666666" points="171.5,-86.38 103.75,-86.38 103.75,-65.62 171.5,-65.62 171.5,-86.38"/>
<text text-anchor="middle" x="137.62" y="-72.88" font-family="Helvetica,sans-Serif" font-size="10.00">w2c__f305</text>
</a>
</g>
</g>
<!-- Node1&#45;&gt;Node14 -->
<g id="edge20_Node000001_Node000014" class="edge">
<title>Node1&#45;&gt;Node14</title>
<g id="a_edge20_Node000001_Node000014"><a xlink:title=" ">
<path fill="none" stroke="#63b8ff" d="M49.07,-141.18C62.96,-130.61 84.74,-114.11 103.75,-100 106.61,-97.88 109.61,-95.66 112.6,-93.47"/>
<polygon fill="#63b8ff" stroke="#63b8ff" points="114.63,-96.32 120.64,-87.6 110.5,-90.67 114.63,-96.32"/>
</a>
</g>
</g>
<!-- Node16 -->
<g id="Node000016" class="node">
<title>Node16</title>
<g id="a_Node000016"><a xlink:href="app_8c.html#a65a7ed029d328682d1f6fda373974c32" target="_top" xlink:title=" ">
<polygon fill="white" stroke="#666666" points="171.5,-162.38 103.75,-162.38 103.75,-141.62 171.5,-141.62 171.5,-162.38"/>
<text text-anchor="middle" x="137.62" y="-148.88" font-family="Helvetica,sans-Serif" font-size="10.00">w2c__f470</text>
</a>
</g>
</g>
<!-- Node1&#45;&gt;Node16 -->
<g id="edge24_Node000001_Node000016" class="edge">
<title>Node1&#45;&gt;Node16</title>
<g id="a_edge24_Node000001_Node000016"><a xlink:title=" ">
<path fill="none" stroke="#63b8ff" d="M68.19,-152C75.82,-152 84.06,-152 92.08,-152"/>
<polygon fill="#63b8ff" stroke="#63b8ff" points="92.07,-155.5 102.07,-152 92.07,-148.5 92.07,-155.5"/>
</a>
</g>
</g>
<!-- Node2&#45;&gt;Node3 -->
<g id="edge2_Node000002_Node000003" class="edge">
<title>Node2&#45;&gt;Node3</title>
<g id="a_edge2_Node000002_Node000003"><a xlink:title=" ">
<path fill="none" stroke="#63b8ff" d="M171.74,-238.98C212.06,-250.24 282.45,-267 344.12,-267 344.12,-267 344.12,-267 449.88,-267 506.25,-267 569.9,-253 611.23,-241.99"/>
<polygon fill="#63b8ff" stroke="#63b8ff" points="612.08,-245.39 620.8,-239.38 610.24,-238.64 612.08,-245.39"/>
</a>
</g>
</g>
<!-- Node5 -->
<g id="Node000005" class="node">
<title>Node5</title>
<g id="a_Node000005"><a xlink:href="app_8c.html#a5143f7bebd925f0663756f10aef87ef0" target="_top" xlink:title=" ">
<polygon fill="white" stroke="#666666" points="275.25,-239.38 207.5,-239.38 207.5,-218.62 275.25,-218.62 275.25,-239.38"/>
<text text-anchor="middle" x="241.38" y="-225.88" font-family="Helvetica,sans-Serif" font-size="10.00">w2c__f570</text>
</a>
</g>
</g>
<!-- Node2&#45;&gt;Node5 -->
<g id="edge4_Node000002_Node000005" class="edge">
<title>Node2&#45;&gt;Node5</title>
<g id="a_edge4_Node000002_Node000005"><a xlink:title=" ">
<path fill="none" stroke="#63b8ff" d="M171.94,-229C179.57,-229 187.81,-229 195.83,-229"/>
<polygon fill="#63b8ff" stroke="#63b8ff" points="195.82,-232.5 205.82,-229 195.82,-225.5 195.82,-232.5"/>
</a>
</g>
</g>
<!-- Node4 -->
<g id="Node000004" class="node">
<title>Node4</title>
<g id="a_Node000004"><a xlink:href="app_8c.html#a71bcbce7faf780cd081af3fa82d6da97" target="_top" xlink:title=" ">
<polygon fill="white" stroke="#666666" points="794,-200.38 726.25,-200.38 726.25,-179.62 794,-179.62 794,-200.38"/>
<text text-anchor="middle" x="760.12" y="-186.88" font-family="Helvetica,sans-Serif" font-size="10.00">w2c__f437</text>
</a>
</g>
</g>
<!-- Node3&#45;&gt;Node4 -->
<g id="edge3_Node000003_Node000004" class="edge">
<title>Node3&#45;&gt;Node4</title>
<g id="a_edge3_Node000003_Node000004"><a xlink:title=" ">
<path fill="none" stroke="#63b8ff" d="M685.72,-218.14C696.41,-214.04 708.77,-209.3 720.26,-204.9"/>
<polygon fill="#63b8ff" stroke="#63b8ff" points="721.44,-208.19 729.52,-201.35 718.93,-201.66 721.44,-208.19"/>
</a>
</g>
</g>
<!-- Node5&#45;&gt;Node3 -->
<g id="edge18_Node000005_Node000003" class="edge">
<title>Node5&#45;&gt;Node3</title>
<g id="a_edge18_Node000005_Node000003"><a xlink:title=" ">
<path fill="none" stroke="#63b8ff" d="M275.47,-229C349.26,-229 527.26,-229 610.75,-229"/>
<polygon fill="#63b8ff" stroke="#63b8ff" points="610.6,-232.5 620.6,-229 610.6,-225.5 610.6,-232.5"/>
</a>
</g>
</g>
<!-- Node5&#45;&gt;Node6 -->
<g id="edge5_Node000005_Node000006" class="edge">
<title>Node5&#45;&gt;Node6</title>
<g id="a_edge5_Node000005_Node000006"><a xlink:title=" ">
<path fill="none" stroke="#63b8ff" d="M271.26,-218.21C281.57,-214.36 293.38,-209.95 304.44,-205.82"/>
<polygon fill="#63b8ff" stroke="#63b8ff" points="305.61,-209.12 313.75,-202.34 303.16,-202.56 305.61,-209.12"/>
</a>
</g>
</g>
<!-- Node7 -->
<g id="Node000007" class="node">
<title>Node7</title>
<g id="a_Node000007"><a xlink:href="app_8c.html#a14e021d2f1b59e04757852f66bff1044" target="_top" xlink:title=" ">
<polygon fill="white" stroke="#666666" points="482.75,-181.38 415,-181.38 415,-160.62 482.75,-160.62 482.75,-181.38"/>
<text text-anchor="middle" x="448.88" y="-167.88" font-family="Helvetica,sans-Serif" font-size="10.00">w2c__f511</text>
</a>
</g>
</g>
<!-- Node6&#45;&gt;Node7 -->
<g id="edge6_Node000006_Node000007" class="edge">
<title>Node6&#45;&gt;Node7</title>
<g id="a_edge6_Node000006_Node000007"><a xlink:title=" ">
<path fill="none" stroke="#63b8ff" d="M379.44,-184.45C387.16,-182.93 395.5,-181.3 403.61,-179.7"/>
<polygon fill="#63b8ff" stroke="#63b8ff" points="404.21,-183.15 413.35,-177.79 402.86,-176.28 404.21,-183.15"/>
</a>
</g>
</g>
<!-- Node8 -->
<g id="Node000008" class="node">
<title>Node8</title>
<g id="a_Node000008"><a xlink:href="app_8c.html#aa58fd7f1d3aab8404d7f71d334a8a108" target="_top" xlink:title=" ">
<polygon fill="white" stroke="#666666" points="586.5,-162.38 518.75,-162.38 518.75,-141.62 586.5,-141.62 586.5,-162.38"/>
<text text-anchor="middle" x="552.62" y="-148.88" font-family="Helvetica,sans-Serif" font-size="10.00">w2c__f211</text>
</a>
</g>
</g>
<!-- Node7&#45;&gt;Node8 -->
<g id="edge7_Node000007_Node000008" class="edge">
<title>Node7&#45;&gt;Node8</title>
<g id="a_edge7_Node000007_Node000008"><a xlink:title=" ">
<path fill="none" stroke="#63b8ff" d="M483.19,-164.78C490.91,-163.34 499.25,-161.78 507.36,-160.27"/>
<polygon fill="#63b8ff" stroke="#63b8ff" points="507.91,-163.72 517.09,-158.45 506.62,-156.84 507.91,-163.72"/>
</a>
</g>
</g>
<!-- Node12 -->
<g id="Node000012" class="node">
<title>Node12</title>
<g id="a_Node000012"><a xlink:href="app_8c.html#a8c90e9acf2d5915eb0476bc13964c4db" target="_top" xlink:title=" ">
<polygon fill="white" stroke="#666666" points="586.5,-201.38 518.75,-201.38 518.75,-180.62 586.5,-180.62 586.5,-201.38"/>
<text text-anchor="middle" x="552.62" y="-187.88" font-family="Helvetica,sans-Serif" font-size="10.00">w2c__f345</text>
</a>
</g>
</g>
<!-- Node7&#45;&gt;Node12 -->
<g id="edge13_Node000007_Node000012" class="edge">
<title>Node7&#45;&gt;Node12</title>
<g id="a_edge13_Node000007_Node000012"><a xlink:title=" ">
<path fill="none" stroke="#63b8ff" d="M483.19,-177.55C490.91,-179.07 499.25,-180.7 507.36,-182.3"/>
<polygon fill="#63b8ff" stroke="#63b8ff" points="506.61,-185.72 517.1,-184.21 507.96,-178.85 506.61,-185.72"/>
</a>
</g>
</g>
<!-- Node8&#45;&gt;Node9 -->
<g id="edge8_Node000008_Node000009" class="edge">
<title>Node8&#45;&gt;Node9</title>
<g id="a_edge8_Node000008_Node000009"><a xlink:title=" ">
<path fill="none" stroke="#63b8ff" d="M586.94,-151.67C594.57,-151.6 602.81,-151.52 610.83,-151.44"/>
<polygon fill="#63b8ff" stroke="#63b8ff" points="610.85,-154.94 620.82,-151.34 610.78,-147.94 610.85,-154.94"/>
</a>
</g>
</g>
<!-- Node11 -->
<g id="Node000011" class="node">
<title>Node11</title>
<g id="a_Node000011"><a xlink:href="app_8c.html#a31b08a294227a9fc0a529e66ccd915dc" target="_top" xlink:title=" ">
<polygon fill="white" stroke="#666666" points="690.25,-200.38 622.5,-200.38 622.5,-179.62 690.25,-179.62 690.25,-200.38"/>
<text text-anchor="middle" x="656.38" y="-186.88" font-family="Helvetica,sans-Serif" font-size="10.00">w2c__f325</text>
</a>
</g>
</g>
<!-- Node8&#45;&gt;Node11 -->
<g id="edge11_Node000008_Node000011" class="edge">
<title>Node8&#45;&gt;Node11</title>
<g id="a_edge11_Node000008_Node000011"><a xlink:title=" ">
<path fill="none" stroke="#63b8ff" d="M582.51,-162.79C592.82,-166.64 604.63,-171.05 615.69,-175.18"/>
<polygon fill="#63b8ff" stroke="#63b8ff" points="614.41,-178.44 625,-178.66 616.86,-171.88 614.41,-178.44"/>
</a>
</g>
</g>
<!-- Node9&#45;&gt;Node4 -->
<g id="edge10_Node000009_Node000004" class="edge">
<title>Node9&#45;&gt;Node4</title>
<g id="a_edge10_Node000009_Node000004"><a xlink:title=" ">
<path fill="none" stroke="#63b8ff" d="M685.72,-161.86C696.41,-165.96 708.77,-170.7 720.26,-175.1"/>
<polygon fill="#63b8ff" stroke="#63b8ff" points="718.93,-178.34 729.52,-178.65 721.44,-171.81 718.93,-178.34"/>
</a>
</g>
</g>
<!-- Node10 -->
<g id="Node000010" class="node">
<title>Node10</title>
<g id="a_Node000010"><a xlink:href="app_8c.html#a16207b5f7a97b0ecfddd231452c5aa7e" target="_top" xlink:title=" ">
<polygon fill="white" stroke="#666666" points="794,-161.38 726.25,-161.38 726.25,-140.62 794,-140.62 794,-161.38"/>
<text text-anchor="middle" x="760.12" y="-147.88" font-family="Helvetica,sans-Serif" font-size="10.00">w2c__f263</text>
</a>
</g>
</g>
<!-- Node9&#45;&gt;Node10 -->
<g id="edge9_Node000009_Node000010" class="edge">
<title>Node9&#45;&gt;Node10</title>
<g id="a_edge9_Node000009_Node000010"><a xlink:title=" ">
<path fill="none" stroke="#63b8ff" d="M690.69,-151C698.32,-151 706.56,-151 714.58,-151"/>
<polygon fill="#63b8ff" stroke="#63b8ff" points="714.57,-154.5 724.57,-151 714.57,-147.5 714.57,-154.5"/>
</a>
</g>
</g>
<!-- Node11&#45;&gt;Node4 -->
<g id="edge12_Node000011_Node000004" class="edge">
<title>Node11&#45;&gt;Node4</title>
<g id="a_edge12_Node000011_Node000004"><a xlink:title=" ">
<path fill="none" stroke="#63b8ff" d="M690.69,-190C698.32,-190 706.56,-190 714.58,-190"/>
<polygon fill="#63b8ff" stroke="#63b8ff" points="714.57,-193.5 724.57,-190 714.57,-186.5 714.57,-193.5"/>
</a>
</g>
</g>
<!-- Node12&#45;&gt;Node3 -->
<g id="edge16_Node000012_Node000003" class="edge">
<title>Node12&#45;&gt;Node3</title>
<g id="a_edge16_Node000012_Node000003"><a xlink:title=" ">
<path fill="none" stroke="#63b8ff" d="M582.51,-201.79C592.82,-205.64 604.63,-210.05 615.69,-214.18"/>
<polygon fill="#63b8ff" stroke="#63b8ff" points="614.41,-217.44 625,-217.66 616.86,-210.88 614.41,-217.44"/>
</a>
</g>
</g>
<!-- Node12&#45;&gt;Node9 -->
<g id="edge14_Node000012_Node000009" class="edge">
<title>Node12&#45;&gt;Node9</title>
<g id="a_edge14_Node000012_Node000009"><a xlink:title=" ">
<path fill="none" stroke="#63b8ff" d="M581.16,-180.18C592.24,-175.82 605.22,-170.72 617.19,-166.01"/>
<polygon fill="#63b8ff" stroke="#63b8ff" points="618.38,-169.3 626.41,-162.39 615.82,-162.79 618.38,-169.3"/>
</a>
</g>
</g>
<!-- Node12&#45;&gt;Node11 -->
<g id="edge15_Node000012_Node000011" class="edge">
<title>Node12&#45;&gt;Node11</title>
<g id="a_edge15_Node000012_Node000011"><a xlink:title=" ">
<path fill="none" stroke="#63b8ff" d="M586.94,-190.67C594.57,-190.6 602.81,-190.52 610.83,-190.44"/>
<polygon fill="#63b8ff" stroke="#63b8ff" points="610.85,-193.94 620.82,-190.34 610.78,-186.94 610.85,-193.94"/>
</a>
</g>
</g>
<!-- Node12&#45;&gt;Node13 -->
<g id="edge17_Node000012_Node000013" class="edge">
<title>Node12&#45;&gt;Node13</title>
<g id="a_edge17_Node000012_Node000013"><a xlink:title=" ">
<path fill="none" stroke="#63b8ff" d="M574.91,-180.15C579.03,-177.49 583.11,-174.41 586.5,-171 614.25,-143.06 635.4,-101.82 646.56,-77.06"/>
<polygon fill="#63b8ff" stroke="#63b8ff" points="649.7,-78.61 650.49,-68.04 643.29,-75.81 649.7,-78.61"/>
</a>
</g>
</g>
<!-- Node14&#45;&gt;Node9 -->
<g id="edge21_Node000014_Node000009" class="edge">
<title>Node14&#45;&gt;Node9</title>
<g id="a_edge21_Node000014_Node000009"><a xlink:title=" ">
<path fill="none" stroke="#63b8ff" d="M171.73,-76C212.34,-76 283.3,-76 344.12,-76 344.12,-76 344.12,-76 449.88,-76 511.53,-76 529.85,-75.67 586.5,-100 604.76,-107.84 622.72,-121.39 635.72,-132.55"/>
<polygon fill="#63b8ff" stroke="#63b8ff" points="633.31,-135.09 643.11,-139.13 637.97,-129.86 633.31,-135.09"/>
</a>
</g>
</g>
<!-- Node15 -->
<g id="Node000015" class="node">
<title>Node15</title>
<g id="a_Node000015"><a xlink:href="app_8c.html#abc21e85cf3aaa918b50fa3e8b54e25e0" target="_top" xlink:title=" ">
<polygon fill="white" stroke="#666666" points="275.25,-48.38 207.5,-48.38 207.5,-27.62 275.25,-27.62 275.25,-48.38"/>
<text text-anchor="middle" x="241.38" y="-34.88" font-family="Helvetica,sans-Serif" font-size="10.00">w2c__f565</text>
</a>
</g>
</g>
<!-- Node14&#45;&gt;Node15 -->
<g id="edge22_Node000014_Node000015" class="edge">
<title>Node14&#45;&gt;Node15</title>
<g id="a_edge22_Node000014_Node000015"><a xlink:title=" ">
<path fill="none" stroke="#63b8ff" d="M167.51,-65.21C177.82,-61.36 189.63,-56.95 200.69,-52.82"/>
<polygon fill="#63b8ff" stroke="#63b8ff" points="201.86,-56.12 210,-49.34 199.41,-49.56 201.86,-56.12"/>
</a>
</g>
</g>
<!-- Node17 -->
<g id="Node000017" class="node">
<title>Node17</title>
<g id="a_Node000017"><a xlink:href="app_8c.html#a0d2b9d1e465bd8169ebd6cf08afb1f69" target="_top" xlink:title=" ">
<polygon fill="white" stroke="#666666" points="275.25,-162.38 207.5,-162.38 207.5,-141.62 275.25,-141.62 275.25,-162.38"/>
<text text-anchor="middle" x="241.38" y="-148.88" font-family="Helvetica,sans-Serif" font-size="10.00">w2c__f551</text>
</a>
</g>
</g>
<!-- Node16&#45;&gt;Node17 -->
<g id="edge25_Node000016_Node000017" class="edge">
<title>Node16&#45;&gt;Node17</title>
<g id="a_edge25_Node000016_Node000017"><a xlink:title=" ">
<path fill="none" stroke="#63b8ff" d="M171.94,-152C179.57,-152 187.81,-152 195.83,-152"/>
<polygon fill="#63b8ff" stroke="#63b8ff" points="195.82,-155.5 205.82,-152 195.82,-148.5 195.82,-155.5"/>
</a>
</g>
</g>
<!-- Node18 -->
<g id="Node000018" class="node">
<title>Node18</title>
<g id="a_Node000018"><a xlink:href="app_8c.html#a70885389166a2cbcb9e78af289ffa12e" target="_top" xlink:title=" ">
<polygon fill="white" stroke="#666666" points="379,-162.38 311.25,-162.38 311.25,-141.62 379,-141.62 379,-162.38"/>
<text text-anchor="middle" x="345.12" y="-148.88" font-family="Helvetica,sans-Serif" font-size="10.00">w2c__f577</text>
</a>
</g>
</g>
<!-- Node17&#45;&gt;Node18 -->
<g id="edge26_Node000017_Node000018" class="edge">
<title>Node17&#45;&gt;Node18</title>
<g id="a_edge26_Node000017_Node000018"><a xlink:title=" ">
<path fill="none" stroke="#63b8ff" d="M275.69,-152C283.32,-152 291.56,-152 299.58,-152"/>
<polygon fill="#63b8ff" stroke="#63b8ff" points="299.57,-155.5 309.57,-152 299.57,-148.5 299.57,-155.5"/>
</a>
</g>
</g>
<!-- Node18&#45;&gt;Node7 -->
<g id="edge27_Node000018_Node000007" class="edge">
<title>Node18&#45;&gt;Node7</title>
<g id="a_edge27_Node000018_Node000007"><a xlink:title=" ">
<path fill="none" stroke="#63b8ff" d="M379.44,-158.22C387.16,-159.66 395.5,-161.22 403.61,-162.73"/>
<polygon fill="#63b8ff" stroke="#63b8ff" points="402.87,-166.16 413.34,-164.55 404.16,-159.28 402.87,-166.16"/>
</a>
</g>
</g>
</g>
</svg>
