<?xml version="1.0" encoding="UTF-8" standalone="no"?>
<!DOCTYPE svg PUBLIC "-//W3C//DTD SVG 1.1//EN"
 "http://www.w3.org/Graphics/SVG/1.1/DTD/svg11.dtd">
<!-- Generated by graphviz version 12.2.1 (0)
 -->
<!-- Title: w2c__f414 Pages: 1 -->
<svg width="574pt" height="105pt"
 viewBox="0.00 0.00 574.25 104.75" xmlns="http://www.w3.org/2000/svg" xmlns:xlink="http://www.w3.org/1999/xlink">
<g id="graph0" class="graph" transform="scale(1 1) rotate(0) translate(4 100.75)">
<title>w2c__f414</title>
<!-- Node1 -->
<g id="Node000001" class="node">
<title>Node1</title>
<g id="a_Node000001"><a xlink:title=" ">
<polygon fill="#999999" stroke="#666666" points="566.25,-58.75 498.5,-58.75 498.5,-38 566.25,-38 566.25,-58.75"/>
<text text-anchor="middle" x="532.38" y="-45.25" font-family="Helvetica,sans-Serif" font-size="10.00">w2c__f414</text>
</a>
</g>
</g>
<!-- Node2 -->
<g id="Node000002" class="node">
<title>Node2</title>
<g id="a_Node000002"><a xlink:href="app_8c.html#a1e1bea02f0965ece1118d729bd15dbc2" target="_top" xlink:title=" ">
<polygon fill="white" stroke="#666666" points="462.5,-96.75 394.75,-96.75 394.75,-76 462.5,-76 462.5,-96.75"/>
<text text-anchor="middle" x="428.62" y="-83.25" font-family="Helvetica,sans-Serif" font-size="10.00">w2c__f196</text>
</a>
</g>
</g>
<!-- Node1&#45;&gt;Node2 -->
<g id="edge1_Node000001_Node000002" class="edge">
<title>Node1&#45;&gt;Node2</title>
<g id="a_edge1_Node000001_Node000002"><a xlink:title=" ">
<path fill="none" stroke="#63b8ff" d="M491.76,-63.17C480.71,-67.3 468.9,-71.71 458.58,-75.56"/>
<polygon fill="#63b8ff" stroke="#63b8ff" points="492.93,-66.47 501.07,-59.69 490.48,-59.91 492.93,-66.47"/>
</a>
</g>
</g>
<!-- Node3 -->
<g id="Node000003" class="node">
<title>Node3</title>
<g id="a_Node000003"><a xlink:href="app_8c.html#aac449994afd8488e2efd16fb19f0ecb1" target="_top" xlink:title=" ">
<polygon fill="white" stroke="#666666" points="358.75,-58.75 291,-58.75 291,-38 358.75,-38 358.75,-58.75"/>
<text text-anchor="middle" x="324.88" y="-45.25" font-family="Helvetica,sans-Serif" font-size="10.00">w2c__f336</text>
</a>
</g>
</g>
<!-- Node1&#45;&gt;Node3 -->
<g id="edge8_Node000001_Node000003" class="edge">
<title>Node1&#45;&gt;Node3</title>
<g id="a_edge8_Node000001_Node000003"><a xlink:title=" ">
<path fill="none" stroke="#63b8ff" d="M487,-48.38C448.59,-48.38 393.9,-48.38 359.15,-48.38"/>
<polygon fill="#63b8ff" stroke="#63b8ff" points="486.84,-51.88 496.84,-48.38 486.84,-44.88 486.84,-51.88"/>
</a>
</g>
</g>
<!-- Node9 -->
<g id="Node000009" class="node">
<title>Node9</title>
<g id="a_Node000009"><a xlink:href="app_8c.html#ac4ce080029d653ecddeeebbc04195771" target="_top" xlink:title=" ">
<polygon fill="white" stroke="#666666" points="462.5,-20.75 394.75,-20.75 394.75,0 462.5,0 462.5,-20.75"/>
<text text-anchor="middle" x="428.62" y="-7.25" font-family="Helvetica,sans-Serif" font-size="10.00">w2c__f479</text>
</a>
</g>
</g>
<!-- Node1&#45;&gt;Node9 -->
<g id="edge9_Node000001_Node000009" class="edge">
<title>Node1&#45;&gt;Node9</title>
<g id="a_edge9_Node000001_Node000009"><a xlink:title=" ">
<path fill="none" stroke="#63b8ff" d="M491.76,-33.58C480.71,-29.45 468.9,-25.04 458.58,-21.19"/>
<polygon fill="#63b8ff" stroke="#63b8ff" points="490.48,-36.84 501.07,-37.06 492.93,-30.28 490.48,-36.84"/>
</a>
</g>
</g>
<!-- Node2&#45;&gt;Node3 -->
<g id="edge2_Node000002_Node000003" class="edge">
<title>Node2&#45;&gt;Node3</title>
<g id="a_edge2_Node000002_Node000003"><a xlink:title=" ">
<path fill="none" stroke="#63b8ff" d="M388.01,-71.58C376.96,-67.45 365.15,-63.04 354.83,-59.19"/>
<polygon fill="#63b8ff" stroke="#63b8ff" points="386.73,-74.84 397.32,-75.06 389.18,-68.28 386.73,-74.84"/>
</a>
</g>
</g>
<!-- Node4 -->
<g id="Node000004" class="node">
<title>Node4</title>
<g id="a_Node000004"><a xlink:href="app_8c.html#ac863989691d4c389f80374209c220171" target="_top" xlink:title=" ">
<polygon fill="white" stroke="#666666" points="252.38,-78.75 189.88,-78.75 189.88,-58 252.38,-58 252.38,-78.75"/>
<text text-anchor="middle" x="221.12" y="-65.25" font-family="Helvetica,sans-Serif" font-size="10.00">w2c__c_0</text>
</a>
</g>
</g>
<!-- Node3&#45;&gt;Node4 -->
<g id="edge3_Node000003_Node000004" class="edge">
<title>Node3&#45;&gt;Node4</title>
<g id="a_edge3_Node000003_Node000004"><a xlink:title=" ">
<path fill="none" stroke="#63b8ff" d="M279.4,-57.12C270.41,-58.88 261.15,-60.7 252.76,-62.35"/>
<polygon fill="#63b8ff" stroke="#63b8ff" points="279.94,-60.58 289.07,-55.22 278.59,-53.71 279.94,-60.58"/>
</a>
</g>
</g>
<!-- Node6 -->
<g id="Node000006" class="node">
<title>Node6</title>
<g id="a_Node000006"><a xlink:href="app_8c.html#a8f312e54d76623b1ae169d5d19736ee0" target="_top" xlink:title=" ">
<polygon fill="white" stroke="#666666" points="255,-39.75 187.25,-39.75 187.25,-19 255,-19 255,-39.75"/>
<text text-anchor="middle" x="221.12" y="-26.25" font-family="Helvetica,sans-Serif" font-size="10.00">w2c__f363</text>
</a>
</g>
</g>
<!-- Node3&#45;&gt;Node6 -->
<g id="edge5_Node000003_Node000006" class="edge">
<title>Node3&#45;&gt;Node6</title>
<g id="a_edge5_Node000003_Node000006"><a xlink:title=" ">
<path fill="none" stroke="#63b8ff" d="M279.32,-40.06C271.21,-38.54 262.88,-36.98 255.17,-35.55"/>
<polygon fill="#63b8ff" stroke="#63b8ff" points="278.6,-43.48 289.07,-41.88 279.88,-36.6 278.6,-43.48"/>
</a>
</g>
</g>
<!-- Node5 -->
<g id="Node000005" class="node">
<title>Node5</title>
<g id="a_Node000005"><a xlink:href="app_8c.html#ab1e039392ea68017ab8a6063263b147d" target="_top" xlink:title=" ">
<polygon fill="white" stroke="#666666" points="145.25,-78.75 94,-78.75 94,-58 145.25,-58 145.25,-78.75"/>
<text text-anchor="middle" x="119.62" y="-65.25" font-family="Helvetica,sans-Serif" font-size="10.00">w2c__c</text>
</a>
</g>
</g>
<!-- Node4&#45;&gt;Node5 -->
<g id="edge4_Node000004_Node000005" class="edge">
<title>Node4&#45;&gt;Node5</title>
<g id="a_edge4_Node000004_Node000005"><a xlink:title=" ">
<path fill="none" stroke="#63b8ff" d="M178.21,-68.38C167.15,-68.38 155.55,-68.38 145.68,-68.38"/>
<polygon fill="#63b8ff" stroke="#63b8ff" points="177.95,-71.88 187.95,-68.38 177.95,-64.88 177.95,-71.88"/>
</a>
</g>
</g>
<!-- Node7 -->
<g id="Node000007" class="node">
<title>Node7</title>
<g id="a_Node000007"><a xlink:href="app_8c.html#a26657f10c51f10eeb57a4d27606a6885" target="_top" xlink:title=" ">
<polygon fill="white" stroke="#666666" points="151.25,-39.75 88,-39.75 88,-19 151.25,-19 151.25,-39.75"/>
<text text-anchor="middle" x="119.62" y="-26.25" font-family="Helvetica,sans-Serif" font-size="10.00">w2c__b_0</text>
</a>
</g>
</g>
<!-- Node6&#45;&gt;Node7 -->
<g id="edge6_Node000006_Node000007" class="edge">
<title>Node6&#45;&gt;Node7</title>
<g id="a_edge6_Node000006_Node000007"><a xlink:title=" ">
<path fill="none" stroke="#63b8ff" d="M175.71,-29.38C167.57,-29.38 159.23,-29.38 151.59,-29.38"/>
<polygon fill="#63b8ff" stroke="#63b8ff" points="175.48,-32.88 185.48,-29.38 175.48,-25.88 175.48,-32.88"/>
</a>
</g>
</g>
<!-- Node8 -->
<g id="Node000008" class="node">
<title>Node8</title>
<g id="a_Node000008"><a xlink:href="app_8c.html#a683a2045346c3209e9dac20d55933c7d" target="_top" xlink:title=" ">
<polygon fill="white" stroke="#666666" points="52,-39.75 0,-39.75 0,-19 52,-19 52,-39.75"/>
<text text-anchor="middle" x="26" y="-26.25" font-family="Helvetica,sans-Serif" font-size="10.00">w2c__b</text>
</a>
</g>
</g>
<!-- Node7&#45;&gt;Node8 -->
<g id="edge7_Node000007_Node000008" class="edge">
<title>Node7&#45;&gt;Node8</title>
<g id="a_edge7_Node000007_Node000008"><a xlink:title=" ">
<path fill="none" stroke="#63b8ff" d="M76.21,-29.38C68,-29.38 59.65,-29.38 52.21,-29.38"/>
<polygon fill="#63b8ff" stroke="#63b8ff" points="76.09,-32.88 86.09,-29.38 76.09,-25.88 76.09,-32.88"/>
</a>
</g>
</g>
<!-- Node9&#45;&gt;Node3 -->
<g id="edge10_Node000009_Node000003" class="edge">
<title>Node9&#45;&gt;Node3</title>
<g id="a_edge10_Node000009_Node000003"><a xlink:title=" ">
<path fill="none" stroke="#63b8ff" d="M388.01,-25.17C376.96,-29.3 365.15,-33.71 354.83,-37.56"/>
<polygon fill="#63b8ff" stroke="#63b8ff" points="389.18,-28.47 397.32,-21.69 386.73,-21.91 389.18,-28.47"/>
</a>
</g>
</g>
</g>
</svg>
