<?xml version="1.0" encoding="UTF-8" standalone="no"?>
<!DOCTYPE svg PUBLIC "-//W3C//DTD SVG 1.1//EN"
 "http://www.w3.org/Graphics/SVG/1.1/DTD/svg11.dtd">
<!-- Generated by graphviz version 12.2.1 (0)
 -->
<!-- Title: w2c__f454 Pages: 1 -->
<svg width="695pt" height="260pt"
 viewBox="0.00 0.00 695.00 259.75" xmlns="http://www.w3.org/2000/svg" xmlns:xlink="http://www.w3.org/1999/xlink">
<g id="graph0" class="graph" transform="scale(1 1) rotate(0) translate(4 255.75)">
<title>w2c__f454</title>
<!-- Node1 -->
<g id="Node000001" class="node">
<title>Node1</title>
<g id="a_Node000001"><a xlink:title=" ">
<polygon fill="#999999" stroke="#666666" points="687,-135.75 619.25,-135.75 619.25,-115 687,-115 687,-135.75"/>
<text text-anchor="middle" x="653.12" y="-122.25" font-family="Helvetica,sans-Serif" font-size="10.00">w2c__f454</text>
</a>
</g>
</g>
<!-- Node2 -->
<g id="Node000002" class="node">
<title>Node2</title>
<g id="a_Node000002"><a xlink:href="app_8c.html#a5677ffd129da8cd63b876545b8187d77" target="_top" xlink:title=" ">
<polygon fill="white" stroke="#666666" points="302.62,-232.75 234.88,-232.75 234.88,-212 302.62,-212 302.62,-232.75"/>
<text text-anchor="middle" x="268.75" y="-219.25" font-family="Helvetica,sans-Serif" font-size="10.00">w2c__f367</text>
</a>
</g>
</g>
<!-- Node1&#45;&gt;Node2 -->
<g id="edge1_Node000001_Node000002" class="edge">
<title>Node1&#45;&gt;Node2</title>
<g id="a_edge1_Node000001_Node000002"><a xlink:title=" ">
<path fill="none" stroke="#63b8ff" d="M633.43,-143.7C620.19,-156 601.59,-171.99 583.25,-183.38 528.46,-217.39 513.38,-228.21 450.25,-241.38 399.51,-251.96 339.45,-241.09 303,-231.98"/>
<polygon fill="#63b8ff" stroke="#63b8ff" points="635.74,-146.34 640.58,-136.91 630.92,-141.26 635.74,-146.34"/>
</a>
</g>
</g>
<!-- Node6 -->
<g id="Node000006" class="node">
<title>Node6</title>
<g id="a_Node000006"><a xlink:href="app_8c.html#af0207b53ee10049250e9aab3d597eb1b" target="_top" xlink:title=" ">
<polygon fill="white" stroke="#666666" points="568.62,-174.75 500.88,-174.75 500.88,-154 568.62,-154 568.62,-174.75"/>
<text text-anchor="middle" x="534.75" y="-161.25" font-family="Helvetica,sans-Serif" font-size="10.00">w2c__f442</text>
</a>
</g>
</g>
<!-- Node1&#45;&gt;Node6 -->
<g id="edge5_Node000001_Node000006" class="edge">
<title>Node1&#45;&gt;Node6</title>
<g id="a_edge5_Node000001_Node000006"><a xlink:title=" ">
<path fill="none" stroke="#63b8ff" d="M609.11,-139.79C595.51,-144.35 580.71,-149.31 567.99,-153.57"/>
<polygon fill="#63b8ff" stroke="#63b8ff" points="609.9,-143.22 618.27,-136.72 607.68,-136.58 609.9,-143.22"/>
</a>
</g>
</g>
<!-- Node12 -->
<g id="Node000012" class="node">
<title>Node12</title>
<g id="a_Node000012"><a xlink:href="app_8c.html#a8df6e3911d70946547e02dfdc547c04f" target="_top" xlink:title=" ">
<polygon fill="white" stroke="#666666" points="568.62,-135.75 500.88,-135.75 500.88,-115 568.62,-115 568.62,-135.75"/>
<text text-anchor="middle" x="534.75" y="-122.25" font-family="Helvetica,sans-Serif" font-size="10.00">w2c__f448</text>
</a>
</g>
</g>
<!-- Node1&#45;&gt;Node12 -->
<g id="edge13_Node000001_Node000012" class="edge">
<title>Node1&#45;&gt;Node12</title>
<g id="a_edge13_Node000001_Node000012"><a xlink:title=" ">
<path fill="none" stroke="#63b8ff" d="M607.41,-125.38C594.68,-125.38 581.03,-125.38 569.1,-125.38"/>
<polygon fill="#63b8ff" stroke="#63b8ff" points="607.26,-128.88 617.26,-125.38 607.26,-121.88 607.26,-128.88"/>
</a>
</g>
</g>
<!-- Node14 -->
<g id="Node000014" class="node">
<title>Node14</title>
<g id="a_Node000014"><a xlink:href="app_8c.html#a4dac52e4f4ebc2831a92909296909384" target="_top" xlink:title=" ">
<polygon fill="white" stroke="#666666" points="568.62,-96.75 500.88,-96.75 500.88,-76 568.62,-76 568.62,-96.75"/>
<text text-anchor="middle" x="534.75" y="-83.25" font-family="Helvetica,sans-Serif" font-size="10.00">w2c__f561</text>
</a>
</g>
</g>
<!-- Node1&#45;&gt;Node14 -->
<g id="edge16_Node000001_Node000014" class="edge">
<title>Node1&#45;&gt;Node14</title>
<g id="a_edge16_Node000001_Node000014"><a xlink:title=" ">
<path fill="none" stroke="#63b8ff" d="M609.11,-110.96C595.51,-106.4 580.71,-101.44 567.99,-97.18"/>
<polygon fill="#63b8ff" stroke="#63b8ff" points="607.68,-114.17 618.27,-114.03 609.9,-107.53 607.68,-114.17"/>
</a>
</g>
</g>
<!-- Node16 -->
<g id="Node000016" class="node">
<title>Node16</title>
<g id="a_Node000016"><a xlink:href="app_8c.html#a60edd73436699d5440f7be3573b3f0c9" target="_top" xlink:title=" ">
<polygon fill="white" stroke="#666666" points="583.25,-57.75 486.25,-57.75 486.25,-37 583.25,-37 583.25,-57.75"/>
<text text-anchor="middle" x="534.75" y="-44.25" font-family="Helvetica,sans-Serif" font-size="10.00">wrap_w2c__f454</text>
</a>
</g>
</g>
<!-- Node1&#45;&gt;Node16 -->
<g id="edge18_Node000001_Node000016" class="edge">
<title>Node1&#45;&gt;Node16</title>
<g id="a_edge18_Node000001_Node000016"><a xlink:title=" ">
<path fill="none" stroke="#63b8ff" d="M633.48,-106.98C620.26,-94.64 601.67,-78.65 583.25,-67.38 577.68,-63.97 571.42,-60.87 565.32,-58.2"/>
<polygon fill="#63b8ff" stroke="#63b8ff" points="630.96,-109.41 640.61,-113.79 635.79,-104.35 630.96,-109.41"/>
</a>
</g>
</g>
<!-- Node3 -->
<g id="Node000003" class="node">
<title>Node3</title>
<g id="a_Node000003"><a xlink:href="app_8c.html#ac863989691d4c389f80374209c220171" target="_top" xlink:title=" ">
<polygon fill="white" stroke="#666666" points="167,-251.75 104.5,-251.75 104.5,-231 167,-231 167,-251.75"/>
<text text-anchor="middle" x="135.75" y="-238.25" font-family="Helvetica,sans-Serif" font-size="10.00">w2c__c_0</text>
</a>
</g>
</g>
<!-- Node2&#45;&gt;Node3 -->
<g id="edge2_Node000002_Node000003" class="edge">
<title>Node2&#45;&gt;Node3</title>
<g id="a_edge2_Node000002_Node000003"><a xlink:title=" ">
<path fill="none" stroke="#63b8ff" d="M223.53,-228.79C204.97,-231.48 183.86,-234.54 167.1,-236.97"/>
<polygon fill="#63b8ff" stroke="#63b8ff" points="223.8,-232.29 233.2,-227.39 222.8,-225.36 223.8,-232.29"/>
</a>
</g>
</g>
<!-- Node5 -->
<g id="Node000005" class="node">
<title>Node5</title>
<g id="a_Node000005"><a xlink:href="app_8c.html#a8f64ccad6c506a1ca514ba4f43e5211c" target="_top" xlink:title=" ">
<polygon fill="white" stroke="#666666" points="184.25,-212.75 87.25,-212.75 87.25,-192 184.25,-192 184.25,-212.75"/>
<text text-anchor="middle" x="135.75" y="-199.25" font-family="Helvetica,sans-Serif" font-size="10.00">wrap_w2c__f367</text>
</a>
</g>
</g>
<!-- Node2&#45;&gt;Node5 -->
<g id="edge4_Node000002_Node000005" class="edge">
<title>Node2&#45;&gt;Node5</title>
<g id="a_edge4_Node000002_Node000005"><a xlink:title=" ">
<path fill="none" stroke="#63b8ff" d="M223.58,-215.63C211.06,-213.72 197.38,-211.63 184.65,-209.69"/>
<polygon fill="#63b8ff" stroke="#63b8ff" points="222.78,-219.05 233.2,-217.1 223.84,-212.13 222.78,-219.05"/>
</a>
</g>
</g>
<!-- Node4 -->
<g id="Node000004" class="node">
<title>Node4</title>
<g id="a_Node000004"><a xlink:href="app_8c.html#ab1e039392ea68017ab8a6063263b147d" target="_top" xlink:title=" ">
<polygon fill="white" stroke="#666666" points="51.25,-251.75 0,-251.75 0,-231 51.25,-231 51.25,-251.75"/>
<text text-anchor="middle" x="25.62" y="-238.25" font-family="Helvetica,sans-Serif" font-size="10.00">w2c__c</text>
</a>
</g>
</g>
<!-- Node3&#45;&gt;Node4 -->
<g id="edge3_Node000003_Node000004" class="edge">
<title>Node3&#45;&gt;Node4</title>
<g id="a_edge3_Node000003_Node000004"><a xlink:title=" ">
<path fill="none" stroke="#63b8ff" d="M92.72,-241.38C78.81,-241.38 63.78,-241.38 51.57,-241.38"/>
<polygon fill="#63b8ff" stroke="#63b8ff" points="92.54,-244.88 102.54,-241.38 92.54,-237.88 92.54,-244.88"/>
</a>
</g>
</g>
<!-- Node6&#45;&gt;Node2 -->
<g id="edge8_Node000006_Node000002" class="edge">
<title>Node6&#45;&gt;Node2</title>
<g id="a_edge8_Node000006_Node000002"><a xlink:title=" ">
<path fill="none" stroke="#63b8ff" d="M514.73,-182.71C498.91,-196.62 475.03,-214.61 450.25,-222.38 400.76,-237.88 339.82,-233.34 302.92,-228.19"/>
<polygon fill="#63b8ff" stroke="#63b8ff" points="516.92,-185.45 521.95,-176.13 512.2,-180.28 516.92,-185.45"/>
</a>
</g>
</g>
<!-- Node7 -->
<g id="Node000007" class="node">
<title>Node7</title>
<g id="a_Node000007"><a xlink:href="app_8c.html#af245d5659b958eabe30540d214352ad8" target="_top" xlink:title=" ">
<polygon fill="white" stroke="#666666" points="435.62,-174.75 367.88,-174.75 367.88,-154 435.62,-154 435.62,-174.75"/>
<text text-anchor="middle" x="401.75" y="-161.25" font-family="Helvetica,sans-Serif" font-size="10.00">w2c__f197</text>
</a>
</g>
</g>
<!-- Node6&#45;&gt;Node7 -->
<g id="edge6_Node000006_Node000007" class="edge">
<title>Node6&#45;&gt;Node7</title>
<g id="a_edge6_Node000006_Node000007"><a xlink:title=" ">
<path fill="none" stroke="#63b8ff" d="M489.28,-164.38C471.77,-164.38 452.01,-164.38 435.8,-164.38"/>
<polygon fill="#63b8ff" stroke="#63b8ff" points="489.18,-167.88 499.18,-164.38 489.18,-160.88 489.18,-167.88"/>
</a>
</g>
</g>
<!-- Node9 -->
<g id="Node000009" class="node">
<title>Node9</title>
<g id="a_Node000009"><a xlink:href="app_8c.html#a4e0e8b8ddb7852b111d530fef11aca0b" target="_top" xlink:title=" ">
<polygon fill="white" stroke="#666666" points="435.62,-213.75 367.88,-213.75 367.88,-193 435.62,-193 435.62,-213.75"/>
<text text-anchor="middle" x="401.75" y="-200.25" font-family="Helvetica,sans-Serif" font-size="10.00">w2c__f434</text>
</a>
</g>
</g>
<!-- Node6&#45;&gt;Node9 -->
<g id="edge9_Node000006_Node000009" class="edge">
<title>Node6&#45;&gt;Node9</title>
<g id="a_edge9_Node000006_Node000009"><a xlink:title=" ">
<path fill="none" stroke="#63b8ff" d="M489.79,-177.46C472.15,-182.72 452.16,-188.66 435.8,-193.54"/>
<polygon fill="#63b8ff" stroke="#63b8ff" points="490.66,-180.86 499.24,-174.65 488.66,-174.15 490.66,-180.86"/>
</a>
</g>
</g>
<!-- Node10 -->
<g id="Node000010" class="node">
<title>Node10</title>
<g id="a_Node000010"><a xlink:href="app_8c.html#a651ec0f9d894e20b973be3a3f5e2a759" target="_top" xlink:title=" ">
<polygon fill="white" stroke="#666666" points="435.62,-98.75 367.88,-98.75 367.88,-78 435.62,-78 435.62,-98.75"/>
<text text-anchor="middle" x="401.75" y="-85.25" font-family="Helvetica,sans-Serif" font-size="10.00">w2c__f483</text>
</a>
</g>
</g>
<!-- Node6&#45;&gt;Node10 -->
<g id="edge11_Node000006_Node000010" class="edge">
<title>Node6&#45;&gt;Node10</title>
<g id="a_edge11_Node000006_Node000010"><a xlink:title=" ">
<path fill="none" stroke="#63b8ff" d="M495.11,-148.85C492.08,-147.41 489.09,-145.91 486.25,-144.38 460.75,-130.62 433.21,-111.16 417,-99.17"/>
<polygon fill="#63b8ff" stroke="#63b8ff" points="493.52,-151.97 504.07,-152.89 496.39,-145.59 493.52,-151.97"/>
</a>
</g>
</g>
<!-- Node8 -->
<g id="Node000008" class="node">
<title>Node8</title>
<g id="a_Node000008"><a xlink:href="app_8c.html#ac9dfe974277b0ee3fa24e73b7712fe31" target="_top" xlink:title=" ">
<polygon fill="white" stroke="#666666" points="317.25,-174.75 220.25,-174.75 220.25,-154 317.25,-154 317.25,-174.75"/>
<text text-anchor="middle" x="268.75" y="-161.25" font-family="Helvetica,sans-Serif" font-size="10.00">wrap_w2c__f197</text>
</a>
</g>
</g>
<!-- Node7&#45;&gt;Node8 -->
<g id="edge7_Node000007_Node000008" class="edge">
<title>Node7&#45;&gt;Node8</title>
<g id="a_edge7_Node000007_Node000008"><a xlink:title=" ">
<path fill="none" stroke="#63b8ff" d="M356.2,-164.38C343.78,-164.38 330.25,-164.38 317.65,-164.38"/>
<polygon fill="#63b8ff" stroke="#63b8ff" points="356.18,-167.88 366.18,-164.38 356.18,-160.88 356.18,-167.88"/>
</a>
</g>
</g>
<!-- Node9&#45;&gt;Node2 -->
<g id="edge10_Node000009_Node000002" class="edge">
<title>Node9&#45;&gt;Node2</title>
<g id="a_edge10_Node000009_Node000002"><a xlink:title=" ">
<path fill="none" stroke="#63b8ff" d="M356.53,-209.79C338.96,-212.34 319.08,-215.22 302.8,-217.58"/>
<polygon fill="#63b8ff" stroke="#63b8ff" points="356.8,-213.29 366.2,-208.39 355.8,-206.36 356.8,-213.29"/>
</a>
</g>
</g>
<!-- Node11 -->
<g id="Node000011" class="node">
<title>Node11</title>
<g id="a_Node000011"><a xlink:href="app_8c.html#a199b0b13b03598552d3b6c02676a7067" target="_top" xlink:title=" ">
<polygon fill="white" stroke="#666666" points="317.25,-98.75 220.25,-98.75 220.25,-78 317.25,-78 317.25,-98.75"/>
<text text-anchor="middle" x="268.75" y="-85.25" font-family="Helvetica,sans-Serif" font-size="10.00">wrap_w2c__f483</text>
</a>
</g>
</g>
<!-- Node10&#45;&gt;Node11 -->
<g id="edge12_Node000010_Node000011" class="edge">
<title>Node10&#45;&gt;Node11</title>
<g id="a_edge12_Node000010_Node000011"><a xlink:title=" ">
<path fill="none" stroke="#63b8ff" d="M356.2,-88.38C343.78,-88.38 330.25,-88.38 317.65,-88.38"/>
<polygon fill="#63b8ff" stroke="#63b8ff" points="356.18,-91.88 366.18,-88.38 356.18,-84.88 356.18,-91.88"/>
</a>
</g>
</g>
<!-- Node12&#45;&gt;Node2 -->
<g id="edge14_Node000012_Node000002" class="edge">
<title>Node12&#45;&gt;Node2</title>
<g id="a_edge14_Node000012_Node000002"><a xlink:title=" ">
<path fill="none" stroke="#63b8ff" d="M489.34,-122.02C451.27,-121.02 395.98,-124.13 353.25,-145.38 332.42,-155.73 334.27,-167.52 317.25,-183.38 306.48,-193.41 293.51,-203.96 283.85,-211.55"/>
<polygon fill="#63b8ff" stroke="#63b8ff" points="488.93,-125.51 499.05,-122.39 489.19,-118.51 488.93,-125.51"/>
</a>
</g>
</g>
<!-- Node13 -->
<g id="Node000013" class="node">
<title>Node13</title>
<g id="a_Node000013"><a xlink:href="app_8c.html#aaa47c0d194dec0f5eae05c05b9b491ce" target="_top" xlink:title=" ">
<polygon fill="white" stroke="#666666" points="450.25,-59.75 353.25,-59.75 353.25,-39 450.25,-39 450.25,-59.75"/>
<text text-anchor="middle" x="401.75" y="-46.25" font-family="Helvetica,sans-Serif" font-size="10.00">wrap_w2c__f448</text>
</a>
</g>
</g>
<!-- Node12&#45;&gt;Node13 -->
<g id="edge15_Node000012_Node000013" class="edge">
<title>Node12&#45;&gt;Node13</title>
<g id="a_edge15_Node000012_Node000013"><a xlink:title=" ">
<path fill="none" stroke="#63b8ff" d="M493.15,-109.57C490.76,-108.25 488.44,-106.85 486.25,-105.38 467.47,-92.75 469.03,-82 450.25,-69.38 445.05,-65.88 439.15,-62.8 433.31,-60.17"/>
<polygon fill="#63b8ff" stroke="#63b8ff" points="491.33,-112.58 501.84,-113.9 494.45,-106.31 491.33,-112.58"/>
</a>
</g>
</g>
<!-- Node15 -->
<g id="Node000015" class="node">
<title>Node15</title>
<g id="a_Node000015"><a xlink:href="app_8c.html#ada02000b65b73c6f6ee06a92d471cdba" target="_top" xlink:title=" ">
<polygon fill="white" stroke="#666666" points="450.25,-20.75 353.25,-20.75 353.25,0 450.25,0 450.25,-20.75"/>
<text text-anchor="middle" x="401.75" y="-7.25" font-family="Helvetica,sans-Serif" font-size="10.00">wrap_w2c__f561</text>
</a>
</g>
</g>
<!-- Node14&#45;&gt;Node15 -->
<g id="edge17_Node000014_Node000015" class="edge">
<title>Node14&#45;&gt;Node15</title>
<g id="a_edge17_Node000014_Node000015"><a xlink:title=" ">
<path fill="none" stroke="#63b8ff" d="M493.15,-70.57C490.76,-69.25 488.44,-67.85 486.25,-66.38 467.47,-53.75 469.03,-43 450.25,-30.38 445.05,-26.88 439.15,-23.8 433.31,-21.17"/>
<polygon fill="#63b8ff" stroke="#63b8ff" points="491.33,-73.58 501.84,-74.9 494.45,-67.31 491.33,-73.58"/>
</a>
</g>
</g>
</g>
</svg>
