<?xml version="1.0" encoding="UTF-8" standalone="no"?>
<!DOCTYPE svg PUBLIC "-//W3C//DTD SVG 1.1//EN"
 "http://www.w3.org/Graphics/SVG/1.1/DTD/svg11.dtd">
<!-- Generated by graphviz version 12.2.1 (0)
 -->
<!-- Title: w2c__f318 Pages: 1 -->
<svg width="446pt" height="134pt"
 viewBox="0.00 0.00 445.50 133.75" xmlns="http://www.w3.org/2000/svg" xmlns:xlink="http://www.w3.org/1999/xlink">
<g id="graph0" class="graph" transform="scale(1 1) rotate(0) translate(4 129.75)">
<title>w2c__f318</title>
<!-- Node1 -->
<g id="Node000001" class="node">
<title>Node1</title>
<g id="a_Node000001"><a xlink:title=" ">
<polygon fill="#999999" stroke="#666666" points="437.5,-68.75 369.75,-68.75 369.75,-48 437.5,-48 437.5,-68.75"/>
<text text-anchor="middle" x="403.62" y="-55.25" font-family="Helvetica,sans-Serif" font-size="10.00">w2c__f318</text>
</a>
</g>
</g>
<!-- Node2 -->
<g id="Node000002" class="node">
<title>Node2</title>
<g id="a_Node000002"><a xlink:href="app_8c.html#a7dc7d70793bae217b64eab580fce99cb" target="_top" xlink:title=" ">
<polygon fill="white" stroke="#666666" points="333.75,-125.75 266,-125.75 266,-105 333.75,-105 333.75,-125.75"/>
<text text-anchor="middle" x="299.88" y="-112.25" font-family="Helvetica,sans-Serif" font-size="10.00">w2c__f215</text>
</a>
</g>
</g>
<!-- Node1&#45;&gt;Node2 -->
<g id="edge1_Node000001_Node000002" class="edge">
<title>Node1&#45;&gt;Node2</title>
<g id="a_edge1_Node000001_Node000002"><a xlink:title=" ">
<path fill="none" stroke="#63b8ff" d="M373.47,-74.71C356.4,-84.27 335.31,-96.08 320.27,-104.51"/>
<polygon fill="#63b8ff" stroke="#63b8ff" points="375.15,-77.78 382.17,-69.84 371.73,-71.67 375.15,-77.78"/>
</a>
</g>
</g>
<!-- Node4 -->
<g id="Node000004" class="node">
<title>Node4</title>
<g id="a_Node000004"><a xlink:href="app_8c.html#a86ae468e235684021eadfdacd5cb9dba" target="_top" xlink:title=" ">
<polygon fill="white" stroke="#666666" points="215.38,-77.75 147.62,-77.75 147.62,-57 215.38,-57 215.38,-77.75"/>
<text text-anchor="middle" x="181.5" y="-64.25" font-family="Helvetica,sans-Serif" font-size="10.00">w2c__f452</text>
</a>
</g>
</g>
<!-- Node1&#45;&gt;Node4 -->
<g id="edge3_Node000001_Node000004" class="edge">
<title>Node1&#45;&gt;Node4</title>
<g id="a_edge3_Node000001_Node000004"><a xlink:title=" ">
<path fill="none" stroke="#63b8ff" d="M358.36,-60.18C316.2,-61.91 253.71,-64.46 215.68,-66.02"/>
<polygon fill="#63b8ff" stroke="#63b8ff" points="358.31,-63.69 368.16,-59.78 358.02,-56.7 358.31,-63.69"/>
</a>
</g>
</g>
<!-- Node6 -->
<g id="Node000006" class="node">
<title>Node6</title>
<g id="a_Node000006"><a xlink:href="app_8c.html#afb3fbfc35abe0f21d554f326b79a0b76" target="_top" xlink:title=" ">
<polygon fill="white" stroke="#666666" points="333.75,-49.75 266,-49.75 266,-29 333.75,-29 333.75,-49.75"/>
<text text-anchor="middle" x="299.88" y="-36.25" font-family="Helvetica,sans-Serif" font-size="10.00">w2c__f494</text>
</a>
</g>
</g>
<!-- Node1&#45;&gt;Node6 -->
<g id="edge5_Node000001_Node000006" class="edge">
<title>Node1&#45;&gt;Node6</title>
<g id="a_edge5_Node000001_Node000006"><a xlink:title=" ">
<path fill="none" stroke="#63b8ff" d="M358.07,-50.06C349.96,-48.54 341.63,-46.98 333.92,-45.55"/>
<polygon fill="#63b8ff" stroke="#63b8ff" points="357.35,-53.48 367.82,-51.88 358.63,-46.6 357.35,-53.48"/>
</a>
</g>
</g>
<!-- Node7 -->
<g id="Node000007" class="node">
<title>Node7</title>
<g id="a_Node000007"><a xlink:href="app_8c.html#ad1dbc2afe7918517df3fc54838f07298" target="_top" xlink:title=" ">
<polygon fill="white" stroke="#666666" points="215.38,-20.75 147.62,-20.75 147.62,0 215.38,0 215.38,-20.75"/>
<text text-anchor="middle" x="181.5" y="-7.25" font-family="Helvetica,sans-Serif" font-size="10.00">w2c__f520</text>
</a>
</g>
</g>
<!-- Node1&#45;&gt;Node7 -->
<g id="edge9_Node000001_Node000007" class="edge">
<title>Node1&#45;&gt;Node7</title>
<g id="a_edge9_Node000001_Node000007"><a xlink:title=" ">
<path fill="none" stroke="#63b8ff" d="M378.26,-41.49C365.58,-33.61 349.47,-24.98 333.75,-20.38 294.35,-8.83 246.81,-7.64 215.67,-8.48"/>
<polygon fill="#63b8ff" stroke="#63b8ff" points="376.05,-44.23 386.35,-46.72 379.86,-38.35 376.05,-44.23"/>
</a>
</g>
</g>
<!-- Node3 -->
<g id="Node000003" class="node">
<title>Node3</title>
<g id="a_Node000003"><a xlink:href="app_8c.html#a7f65ba02075f2865f478747946b07c94" target="_top" xlink:title=" ">
<polygon fill="white" stroke="#666666" points="230,-125.75 133,-125.75 133,-105 230,-105 230,-125.75"/>
<text text-anchor="middle" x="181.5" y="-112.25" font-family="Helvetica,sans-Serif" font-size="10.00">wrap_w2c__f215</text>
</a>
</g>
</g>
<!-- Node2&#45;&gt;Node3 -->
<g id="edge2_Node000002_Node000003" class="edge">
<title>Node2&#45;&gt;Node3</title>
<g id="a_edge2_Node000002_Node000003"><a xlink:title=" ">
<path fill="none" stroke="#63b8ff" d="M254.28,-115.38C246.39,-115.38 238.14,-115.38 230.16,-115.38"/>
<polygon fill="#63b8ff" stroke="#63b8ff" points="254.01,-118.88 264.01,-115.38 254.01,-111.88 254.01,-118.88"/>
</a>
</g>
</g>
<!-- Node5 -->
<g id="Node000005" class="node">
<title>Node5</title>
<g id="a_Node000005"><a xlink:href="app_8c.html#a57ca4f801147f9325a0ea7cc2d7192c5" target="_top" xlink:title=" ">
<polygon fill="white" stroke="#666666" points="97,-77.75 0,-77.75 0,-57 97,-57 97,-77.75"/>
<text text-anchor="middle" x="48.5" y="-64.25" font-family="Helvetica,sans-Serif" font-size="10.00">wrap_w2c__f452</text>
</a>
</g>
</g>
<!-- Node4&#45;&gt;Node5 -->
<g id="edge4_Node000004_Node000005" class="edge">
<title>Node4&#45;&gt;Node5</title>
<g id="a_edge4_Node000004_Node000005"><a xlink:title=" ">
<path fill="none" stroke="#63b8ff" d="M135.95,-67.38C123.53,-67.38 110,-67.38 97.4,-67.38"/>
<polygon fill="#63b8ff" stroke="#63b8ff" points="135.93,-70.88 145.93,-67.38 135.93,-63.88 135.93,-70.88"/>
</a>
</g>
</g>
<!-- Node6&#45;&gt;Node4 -->
<g id="edge6_Node000006_Node000004" class="edge">
<title>Node6&#45;&gt;Node4</title>
<g id="a_edge6_Node000006_Node000004"><a xlink:title=" ">
<path fill="none" stroke="#63b8ff" d="M254.55,-50.04C241.71,-53.13 227.91,-56.45 215.85,-59.35"/>
<polygon fill="#63b8ff" stroke="#63b8ff" points="255.15,-53.49 264.06,-47.75 253.51,-46.69 255.15,-53.49"/>
</a>
</g>
</g>
<!-- Node6&#45;&gt;Node7 -->
<g id="edge7_Node000006_Node000007" class="edge">
<title>Node6&#45;&gt;Node7</title>
<g id="a_edge7_Node000006_Node000007"><a xlink:title=" ">
<path fill="none" stroke="#63b8ff" d="M254.55,-28.33C241.71,-25.13 227.91,-21.69 215.85,-18.69"/>
<polygon fill="#63b8ff" stroke="#63b8ff" points="253.51,-31.68 264.06,-30.7 255.2,-24.88 253.51,-31.68"/>
</a>
</g>
</g>
<!-- Node8 -->
<g id="Node000008" class="node">
<title>Node8</title>
<g id="a_Node000008"><a xlink:href="app_8c.html#a130f07b726020d1add9a7ed5178e023a" target="_top" xlink:title=" ">
<polygon fill="white" stroke="#666666" points="97,-20.75 0,-20.75 0,0 97,0 97,-20.75"/>
<text text-anchor="middle" x="48.5" y="-7.25" font-family="Helvetica,sans-Serif" font-size="10.00">wrap_w2c__f520</text>
</a>
</g>
</g>
<!-- Node7&#45;&gt;Node8 -->
<g id="edge8_Node000007_Node000008" class="edge">
<title>Node7&#45;&gt;Node8</title>
<g id="a_edge8_Node000007_Node000008"><a xlink:title=" ">
<path fill="none" stroke="#63b8ff" d="M135.95,-10.38C123.53,-10.38 110,-10.38 97.4,-10.38"/>
<polygon fill="#63b8ff" stroke="#63b8ff" points="135.93,-13.88 145.93,-10.38 135.93,-6.88 135.93,-13.88"/>
</a>
</g>
</g>
</g>
</svg>
