<?xml version="1.0" encoding="UTF-8" standalone="no"?>
<!DOCTYPE svg PUBLIC "-//W3C//DTD SVG 1.1//EN"
 "http://www.w3.org/Graphics/SVG/1.1/DTD/svg11.dtd">
<!-- Generated by graphviz version 12.2.1 (0)
 -->
<!-- Title: w2c__f344 Pages: 1 -->
<svg width="283pt" height="107pt"
 viewBox="0.00 0.00 283.25 106.75" xmlns="http://www.w3.org/2000/svg" xmlns:xlink="http://www.w3.org/1999/xlink">
<g id="graph0" class="graph" transform="scale(1 1) rotate(0) translate(4 102.75)">
<title>w2c__f344</title>
<!-- Node1 -->
<g id="Node000001" class="node">
<title>Node1</title>
<g id="a_Node000001"><a xlink:title=" ">
<polygon fill="#999999" stroke="#666666" points="67.75,-59.75 0,-59.75 0,-39 67.75,-39 67.75,-59.75"/>
<text text-anchor="middle" x="33.88" y="-46.25" font-family="Helvetica,sans-Serif" font-size="10.00">w2c__f344</text>
</a>
</g>
</g>
<!-- Node2 -->
<g id="Node000002" class="node">
<title>Node2</title>
<g id="a_Node000002"><a xlink:href="app_8c.html#a34d18545510c7604d64db5651af2a253" target="_top" xlink:title=" ">
<polygon fill="white" stroke="#666666" points="171.5,-98.75 103.75,-98.75 103.75,-78 171.5,-78 171.5,-98.75"/>
<text text-anchor="middle" x="137.62" y="-85.25" font-family="Helvetica,sans-Serif" font-size="10.00">w2c__f332</text>
</a>
</g>
</g>
<!-- Node1&#45;&gt;Node2 -->
<g id="edge1_Node000001_Node000002" class="edge">
<title>Node1&#45;&gt;Node2</title>
<g id="a_edge1_Node000001_Node000002"><a xlink:title=" ">
<path fill="none" stroke="#63b8ff" d="M63.22,-60.24C73.91,-64.34 86.27,-69.08 97.76,-73.48"/>
<polygon fill="#63b8ff" stroke="#63b8ff" points="96.43,-76.72 107.02,-77.03 98.94,-70.18 96.43,-76.72"/>
</a>
</g>
</g>
<!-- Node3 -->
<g id="Node000003" class="node">
<title>Node3</title>
<g id="a_Node000003"><a xlink:href="app_8c.html#a0f7003812eaf983535ff7979fc047a21" target="_top" xlink:title=" ">
<polygon fill="white" stroke="#666666" points="171.5,-59.75 103.75,-59.75 103.75,-39 171.5,-39 171.5,-59.75"/>
<text text-anchor="middle" x="137.62" y="-46.25" font-family="Helvetica,sans-Serif" font-size="10.00">w2c__f353</text>
</a>
</g>
</g>
<!-- Node1&#45;&gt;Node3 -->
<g id="edge2_Node000001_Node000003" class="edge">
<title>Node1&#45;&gt;Node3</title>
<g id="a_edge2_Node000001_Node000003"><a xlink:title=" ">
<path fill="none" stroke="#63b8ff" d="M68.19,-49.38C75.82,-49.38 84.06,-49.38 92.08,-49.38"/>
<polygon fill="#63b8ff" stroke="#63b8ff" points="92.07,-52.88 102.07,-49.38 92.07,-45.88 92.07,-52.88"/>
</a>
</g>
</g>
<!-- Node4 -->
<g id="Node000004" class="node">
<title>Node4</title>
<g id="a_Node000004"><a xlink:href="app_8c.html#a800df00ef236c6d6affc3c661b37e3ad" target="_top" xlink:title=" ">
<polygon fill="white" stroke="#666666" points="171.5,-20.75 103.75,-20.75 103.75,0 171.5,0 171.5,-20.75"/>
<text text-anchor="middle" x="137.62" y="-7.25" font-family="Helvetica,sans-Serif" font-size="10.00">w2c__f487</text>
</a>
</g>
</g>
<!-- Node1&#45;&gt;Node4 -->
<g id="edge3_Node000001_Node000004" class="edge">
<title>Node1&#45;&gt;Node4</title>
<g id="a_edge3_Node000001_Node000004"><a xlink:title=" ">
<path fill="none" stroke="#63b8ff" d="M63.22,-38.51C73.91,-34.41 86.27,-29.67 97.76,-25.27"/>
<polygon fill="#63b8ff" stroke="#63b8ff" points="98.94,-28.57 107.02,-21.72 96.43,-22.03 98.94,-28.57"/>
</a>
</g>
</g>
<!-- Node5 -->
<g id="Node000005" class="node">
<title>Node5</title>
<g id="a_Node000005"><a xlink:href="app_8c.html#a71bcbce7faf780cd081af3fa82d6da97" target="_top" xlink:title=" ">
<polygon fill="white" stroke="#666666" points="275.25,-20.75 207.5,-20.75 207.5,0 275.25,0 275.25,-20.75"/>
<text text-anchor="middle" x="241.38" y="-7.25" font-family="Helvetica,sans-Serif" font-size="10.00">w2c__f437</text>
</a>
</g>
</g>
<!-- Node4&#45;&gt;Node5 -->
<g id="edge4_Node000004_Node000005" class="edge">
<title>Node4&#45;&gt;Node5</title>
<g id="a_edge4_Node000004_Node000005"><a xlink:title=" ">
<path fill="none" stroke="#63b8ff" d="M171.94,-10.38C179.57,-10.38 187.81,-10.38 195.83,-10.38"/>
<polygon fill="#63b8ff" stroke="#63b8ff" points="195.82,-13.88 205.82,-10.38 195.82,-6.88 195.82,-13.88"/>
</a>
</g>
</g>
</g>
</svg>
