<?xml version="1.0" encoding="UTF-8" standalone="no"?>
<!DOCTYPE svg PUBLIC "-//W3C//DTD SVG 1.1//EN"
 "http://www.w3.org/Graphics/SVG/1.1/DTD/svg11.dtd">
<!-- Generated by graphviz version 12.2.1 (0)
 -->
<!-- Title: w2c__f408 Pages: 1 -->
<svg width="562pt" height="164pt"
 viewBox="0.00 0.00 562.00 163.75" xmlns="http://www.w3.org/2000/svg" xmlns:xlink="http://www.w3.org/1999/xlink">
<g id="graph0" class="graph" transform="scale(1 1) rotate(0) translate(4 159.75)">
<title>w2c__f408</title>
<!-- Node1 -->
<g id="Node000001" class="node">
<title>Node1</title>
<g id="a_Node000001"><a xlink:title=" ">
<polygon fill="#999999" stroke="#666666" points="554,-78.75 486.25,-78.75 486.25,-58 554,-58 554,-78.75"/>
<text text-anchor="middle" x="520.12" y="-65.25" font-family="Helvetica,sans-Serif" font-size="10.00">w2c__f408</text>
</a>
</g>
</g>
<!-- Node2 -->
<g id="Node000002" class="node">
<title>Node2</title>
<g id="a_Node000002"><a xlink:href="app_8c.html#a5677ffd129da8cd63b876545b8187d77" target="_top" xlink:title=" ">
<polygon fill="white" stroke="#666666" points="302.62,-136.75 234.88,-136.75 234.88,-116 302.62,-116 302.62,-136.75"/>
<text text-anchor="middle" x="268.75" y="-123.25" font-family="Helvetica,sans-Serif" font-size="10.00">w2c__f367</text>
</a>
</g>
</g>
<!-- Node1&#45;&gt;Node2 -->
<g id="edge1_Node000001_Node000002" class="edge">
<title>Node1&#45;&gt;Node2</title>
<g id="a_edge1_Node000001_Node000002"><a xlink:title=" ">
<path fill="none" stroke="#63b8ff" d="M494.99,-85.3C482.26,-93.35 466.05,-102.31 450.25,-107.38 400.59,-123.29 339.7,-126.57 302.85,-126.9"/>
<polygon fill="#63b8ff" stroke="#63b8ff" points="496.68,-88.37 503.11,-79.95 492.83,-82.53 496.68,-88.37"/>
</a>
</g>
</g>
<!-- Node6 -->
<g id="Node000006" class="node">
<title>Node6</title>
<g id="a_Node000006"><a xlink:href="app_8c.html#acc39c94fb61c3e1e8c2b07b4d898505d" target="_top" xlink:title=" ">
<polygon fill="white" stroke="#666666" points="435.62,-98.75 367.88,-98.75 367.88,-78 435.62,-78 435.62,-98.75"/>
<text text-anchor="middle" x="401.75" y="-85.25" font-family="Helvetica,sans-Serif" font-size="10.00">w2c__f395</text>
</a>
</g>
</g>
<!-- Node1&#45;&gt;Node6 -->
<g id="edge5_Node000001_Node000006" class="edge">
<title>Node1&#45;&gt;Node6</title>
<g id="a_edge5_Node000001_Node000006"><a xlink:title=" ">
<path fill="none" stroke="#63b8ff" d="M474.8,-75.99C461.96,-78.2 448.16,-80.57 436.1,-82.64"/>
<polygon fill="#63b8ff" stroke="#63b8ff" points="475.02,-79.51 484.28,-74.36 473.84,-72.61 475.02,-79.51"/>
</a>
</g>
</g>
<!-- Node8 -->
<g id="Node000008" class="node">
<title>Node8</title>
<g id="a_Node000008"><a xlink:href="app_8c.html#a85d3b9af05c91f610c185ddb2549e444" target="_top" xlink:title=" ">
<polygon fill="white" stroke="#666666" points="435.62,-59.75 367.88,-59.75 367.88,-39 435.62,-39 435.62,-59.75"/>
<text text-anchor="middle" x="401.75" y="-46.25" font-family="Helvetica,sans-Serif" font-size="10.00">w2c__f543</text>
</a>
</g>
</g>
<!-- Node1&#45;&gt;Node8 -->
<g id="edge8_Node000001_Node000008" class="edge">
<title>Node1&#45;&gt;Node8</title>
<g id="a_edge8_Node000001_Node000008"><a xlink:title=" ">
<path fill="none" stroke="#63b8ff" d="M474.8,-61.14C461.96,-59.04 448.16,-56.79 436.1,-54.82"/>
<polygon fill="#63b8ff" stroke="#63b8ff" points="473.85,-64.53 484.28,-62.69 474.98,-57.62 473.85,-64.53"/>
</a>
</g>
</g>
<!-- Node10 -->
<g id="Node000010" class="node">
<title>Node10</title>
<g id="a_Node000010"><a xlink:href="app_8c.html#acbb419f2cf591e56e8450ce32bab2fae" target="_top" xlink:title=" ">
<polygon fill="white" stroke="#666666" points="450.25,-20.75 353.25,-20.75 353.25,0 450.25,0 450.25,-20.75"/>
<text text-anchor="middle" x="401.75" y="-7.25" font-family="Helvetica,sans-Serif" font-size="10.00">wrap_w2c__f408</text>
</a>
</g>
</g>
<!-- Node1&#45;&gt;Node10 -->
<g id="edge10_Node000001_Node000010" class="edge">
<title>Node1&#45;&gt;Node10</title>
<g id="a_edge10_Node000001_Node000010"><a xlink:title=" ">
<path fill="none" stroke="#63b8ff" d="M490.98,-51.96C478.63,-45 463.88,-36.98 450.25,-30.38 443.65,-27.17 436.4,-23.97 429.6,-21.1"/>
<polygon fill="#63b8ff" stroke="#63b8ff" points="488.96,-54.84 499.38,-56.76 492.43,-48.77 488.96,-54.84"/>
</a>
</g>
</g>
<!-- Node3 -->
<g id="Node000003" class="node">
<title>Node3</title>
<g id="a_Node000003"><a xlink:href="app_8c.html#ac863989691d4c389f80374209c220171" target="_top" xlink:title=" ">
<polygon fill="white" stroke="#666666" points="167,-155.75 104.5,-155.75 104.5,-135 167,-135 167,-155.75"/>
<text text-anchor="middle" x="135.75" y="-142.25" font-family="Helvetica,sans-Serif" font-size="10.00">w2c__c_0</text>
</a>
</g>
</g>
<!-- Node2&#45;&gt;Node3 -->
<g id="edge2_Node000002_Node000003" class="edge">
<title>Node2&#45;&gt;Node3</title>
<g id="a_edge2_Node000002_Node000003"><a xlink:title=" ">
<path fill="none" stroke="#63b8ff" d="M223.53,-132.79C204.97,-135.48 183.86,-138.54 167.1,-140.97"/>
<polygon fill="#63b8ff" stroke="#63b8ff" points="223.8,-136.29 233.2,-131.39 222.8,-129.36 223.8,-136.29"/>
</a>
</g>
</g>
<!-- Node5 -->
<g id="Node000005" class="node">
<title>Node5</title>
<g id="a_Node000005"><a xlink:href="app_8c.html#a8f64ccad6c506a1ca514ba4f43e5211c" target="_top" xlink:title=" ">
<polygon fill="white" stroke="#666666" points="184.25,-116.75 87.25,-116.75 87.25,-96 184.25,-96 184.25,-116.75"/>
<text text-anchor="middle" x="135.75" y="-103.25" font-family="Helvetica,sans-Serif" font-size="10.00">wrap_w2c__f367</text>
</a>
</g>
</g>
<!-- Node2&#45;&gt;Node5 -->
<g id="edge4_Node000002_Node000005" class="edge">
<title>Node2&#45;&gt;Node5</title>
<g id="a_edge4_Node000002_Node000005"><a xlink:title=" ">
<path fill="none" stroke="#63b8ff" d="M223.58,-119.63C211.06,-117.72 197.38,-115.63 184.65,-113.69"/>
<polygon fill="#63b8ff" stroke="#63b8ff" points="222.78,-123.05 233.2,-121.1 223.84,-116.13 222.78,-123.05"/>
</a>
</g>
</g>
<!-- Node4 -->
<g id="Node000004" class="node">
<title>Node4</title>
<g id="a_Node000004"><a xlink:href="app_8c.html#ab1e039392ea68017ab8a6063263b147d" target="_top" xlink:title=" ">
<polygon fill="white" stroke="#666666" points="51.25,-155.75 0,-155.75 0,-135 51.25,-135 51.25,-155.75"/>
<text text-anchor="middle" x="25.62" y="-142.25" font-family="Helvetica,sans-Serif" font-size="10.00">w2c__c</text>
</a>
</g>
</g>
<!-- Node3&#45;&gt;Node4 -->
<g id="edge3_Node000003_Node000004" class="edge">
<title>Node3&#45;&gt;Node4</title>
<g id="a_edge3_Node000003_Node000004"><a xlink:title=" ">
<path fill="none" stroke="#63b8ff" d="M92.72,-145.38C78.81,-145.38 63.78,-145.38 51.57,-145.38"/>
<polygon fill="#63b8ff" stroke="#63b8ff" points="92.54,-148.88 102.54,-145.38 92.54,-141.88 92.54,-148.88"/>
</a>
</g>
</g>
<!-- Node6&#45;&gt;Node2 -->
<g id="edge6_Node000006_Node000002" class="edge">
<title>Node6&#45;&gt;Node2</title>
<g id="a_edge6_Node000006_Node000002"><a xlink:title=" ">
<path fill="none" stroke="#63b8ff" d="M356.79,-101.13C339.15,-106.24 319.16,-112.04 302.8,-116.79"/>
<polygon fill="#63b8ff" stroke="#63b8ff" points="357.61,-104.53 366.24,-98.39 355.66,-97.81 357.61,-104.53"/>
</a>
</g>
</g>
<!-- Node7 -->
<g id="Node000007" class="node">
<title>Node7</title>
<g id="a_Node000007"><a xlink:href="app_8c.html#a2dfa75cf75dd12aae7a6f022a90da00b" target="_top" xlink:title=" ">
<polygon fill="white" stroke="#666666" points="317.25,-97.75 220.25,-97.75 220.25,-77 317.25,-77 317.25,-97.75"/>
<text text-anchor="middle" x="268.75" y="-84.25" font-family="Helvetica,sans-Serif" font-size="10.00">wrap_w2c__f395</text>
</a>
</g>
</g>
<!-- Node6&#45;&gt;Node7 -->
<g id="edge7_Node000006_Node000007" class="edge">
<title>Node6&#45;&gt;Node7</title>
<g id="a_edge7_Node000006_Node000007"><a xlink:title=" ">
<path fill="none" stroke="#63b8ff" d="M356.2,-88.03C343.78,-87.94 330.25,-87.84 317.65,-87.74"/>
<polygon fill="#63b8ff" stroke="#63b8ff" points="356.15,-91.53 366.18,-88.11 356.21,-84.53 356.15,-91.53"/>
</a>
</g>
</g>
<!-- Node9 -->
<g id="Node000009" class="node">
<title>Node9</title>
<g id="a_Node000009"><a xlink:href="app_8c.html#a150c1b2103da9aad28f8090ebe774379" target="_top" xlink:title=" ">
<polygon fill="white" stroke="#666666" points="317.25,-58.75 220.25,-58.75 220.25,-38 317.25,-38 317.25,-58.75"/>
<text text-anchor="middle" x="268.75" y="-45.25" font-family="Helvetica,sans-Serif" font-size="10.00">wrap_w2c__f543</text>
</a>
</g>
</g>
<!-- Node8&#45;&gt;Node9 -->
<g id="edge9_Node000008_Node000009" class="edge">
<title>Node8&#45;&gt;Node9</title>
<g id="a_edge9_Node000008_Node000009"><a xlink:title=" ">
<path fill="none" stroke="#63b8ff" d="M356.2,-49.03C343.78,-48.94 330.25,-48.84 317.65,-48.74"/>
<polygon fill="#63b8ff" stroke="#63b8ff" points="356.15,-52.53 366.18,-49.11 356.21,-45.53 356.15,-52.53"/>
</a>
</g>
</g>
</g>
</svg>
