<?xml version="1.0" encoding="UTF-8" standalone="no"?>
<!DOCTYPE svg PUBLIC "-//W3C//DTD SVG 1.1//EN"
 "http://www.w3.org/Graphics/SVG/1.1/DTD/svg11.dtd">
<!-- Generated by graphviz version 12.2.1 (0)
 -->
<!-- Title: w2c_0_56 Pages: 1 -->
<svg width="555pt" height="146pt"
 viewBox="0.00 0.00 554.50 145.75" xmlns="http://www.w3.org/2000/svg" xmlns:xlink="http://www.w3.org/1999/xlink">
<g id="graph0" class="graph" transform="scale(1 1) rotate(0) translate(4 141.75)">
<title>w2c_0_56</title>
<!-- Node1 -->
<g id="Node000001" class="node">
<title>Node1</title>
<g id="a_Node000001"><a xlink:title=" ">
<polygon fill="#999999" stroke="#666666" points="546.5,-39.75 482.5,-39.75 482.5,-19 546.5,-19 546.5,-39.75"/>
<text text-anchor="middle" x="514.5" y="-26.25" font-family="Helvetica,sans-Serif" font-size="10.00">w2c_0_56</text>
</a>
</g>
</g>
<!-- Node2 -->
<g id="Node000002" class="node">
<title>Node2</title>
<g id="a_Node000002"><a xlink:href="app_8c.html#aef16a5c62c9748ae6c8dc8fe4a97c582" target="_top" xlink:title=" ">
<polygon fill="white" stroke="#666666" points="433.75,-59.75 366,-59.75 366,-39 433.75,-39 433.75,-59.75"/>
<text text-anchor="middle" x="399.88" y="-46.25" font-family="Helvetica,sans-Serif" font-size="10.00">w2c__f204</text>
</a>
</g>
</g>
<!-- Node1&#45;&gt;Node2 -->
<g id="edge1_Node000001_Node000002" class="edge">
<title>Node1&#45;&gt;Node2</title>
<g id="a_edge1_Node000001_Node000002"><a xlink:title=" ">
<path fill="none" stroke="#63b8ff" d="M470.81,-36.96C458.64,-39.12 445.56,-41.44 434.05,-43.48"/>
<polygon fill="#63b8ff" stroke="#63b8ff" points="471.4,-40.41 480.64,-35.21 470.18,-33.51 471.4,-40.41"/>
</a>
</g>
</g>
<!-- Node10 -->
<g id="Node000010" class="node">
<title>Node10</title>
<g id="a_Node000010"><a xlink:href="app_8c.html#a05d8039e18609077441b86c8e0751774" target="_top" xlink:title=" ">
<polygon fill="white" stroke="#666666" points="446.5,-20.75 353.25,-20.75 353.25,0 446.5,0 446.5,-20.75"/>
<text text-anchor="middle" x="399.88" y="-7.25" font-family="Helvetica,sans-Serif" font-size="10.00">wrap_w2c_0_56</text>
</a>
</g>
</g>
<!-- Node1&#45;&gt;Node10 -->
<g id="edge9_Node000001_Node000010" class="edge">
<title>Node1&#45;&gt;Node10</title>
<g id="a_edge9_Node000001_Node000010"><a xlink:title=" ">
<path fill="none" stroke="#63b8ff" d="M470.93,-22.19C463.05,-20.86 454.79,-19.47 446.82,-18.13"/>
<polygon fill="#63b8ff" stroke="#63b8ff" points="470.19,-25.62 480.64,-23.83 471.36,-18.72 470.19,-25.62"/>
</a>
</g>
</g>
<!-- Node3 -->
<g id="Node000003" class="node">
<title>Node3</title>
<g id="a_Node000003"><a xlink:href="app_8c.html#a5677ffd129da8cd63b876545b8187d77" target="_top" xlink:title=" ">
<polygon fill="white" stroke="#666666" points="302.62,-98.75 234.88,-98.75 234.88,-78 302.62,-78 302.62,-98.75"/>
<text text-anchor="middle" x="268.75" y="-85.25" font-family="Helvetica,sans-Serif" font-size="10.00">w2c__f367</text>
</a>
</g>
</g>
<!-- Node2&#45;&gt;Node3 -->
<g id="edge2_Node000002_Node000003" class="edge">
<title>Node2&#45;&gt;Node3</title>
<g id="a_edge2_Node000002_Node000003"><a xlink:title=" ">
<path fill="none" stroke="#63b8ff" d="M354.81,-62.68C337.81,-67.82 318.69,-73.59 302.89,-78.37"/>
<polygon fill="#63b8ff" stroke="#63b8ff" points="355.61,-66.1 364.17,-59.86 353.59,-59.4 355.61,-66.1"/>
</a>
</g>
</g>
<!-- Node7 -->
<g id="Node000007" class="node">
<title>Node7</title>
<g id="a_Node000007"><a xlink:href="app_8c.html#a5623d4dbccf798b86433dae3f3d5983f" target="_top" xlink:title=" ">
<polygon fill="white" stroke="#666666" points="302.62,-59.75 234.88,-59.75 234.88,-39 302.62,-39 302.62,-59.75"/>
<text text-anchor="middle" x="268.75" y="-46.25" font-family="Helvetica,sans-Serif" font-size="10.00">w2c__f465</text>
</a>
</g>
</g>
<!-- Node2&#45;&gt;Node7 -->
<g id="edge6_Node000002_Node000007" class="edge">
<title>Node2&#45;&gt;Node7</title>
<g id="a_edge6_Node000002_Node000007"><a xlink:title=" ">
<path fill="none" stroke="#63b8ff" d="M354.32,-49.38C337.44,-49.38 318.54,-49.38 302.89,-49.38"/>
<polygon fill="#63b8ff" stroke="#63b8ff" points="354.11,-52.88 364.11,-49.38 354.11,-45.88 354.11,-52.88"/>
</a>
</g>
</g>
<!-- Node9 -->
<g id="Node000009" class="node">
<title>Node9</title>
<g id="a_Node000009"><a xlink:href="app_8c.html#a3769cf0c9fa7c5920ef18da625d48baf" target="_top" xlink:title=" ">
<polygon fill="white" stroke="#666666" points="317.25,-20.75 220.25,-20.75 220.25,0 317.25,0 317.25,-20.75"/>
<text text-anchor="middle" x="268.75" y="-7.25" font-family="Helvetica,sans-Serif" font-size="10.00">wrap_w2c__f204</text>
</a>
</g>
</g>
<!-- Node2&#45;&gt;Node9 -->
<g id="edge8_Node000002_Node000009" class="edge">
<title>Node2&#45;&gt;Node9</title>
<g id="a_edge8_Node000002_Node000009"><a xlink:title=" ">
<path fill="none" stroke="#63b8ff" d="M354.87,-36.08C338.81,-31.23 320.87,-25.81 305.61,-21.21"/>
<polygon fill="#63b8ff" stroke="#63b8ff" points="353.59,-39.35 364.17,-38.89 355.61,-32.65 353.59,-39.35"/>
</a>
</g>
</g>
<!-- Node4 -->
<g id="Node000004" class="node">
<title>Node4</title>
<g id="a_Node000004"><a xlink:href="app_8c.html#ac863989691d4c389f80374209c220171" target="_top" xlink:title=" ">
<polygon fill="white" stroke="#666666" points="167,-137.75 104.5,-137.75 104.5,-117 167,-117 167,-137.75"/>
<text text-anchor="middle" x="135.75" y="-124.25" font-family="Helvetica,sans-Serif" font-size="10.00">w2c__c_0</text>
</a>
</g>
</g>
<!-- Node3&#45;&gt;Node4 -->
<g id="edge3_Node000003_Node000004" class="edge">
<title>Node3&#45;&gt;Node4</title>
<g id="a_edge3_Node000003_Node000004"><a xlink:title=" ">
<path fill="none" stroke="#63b8ff" d="M223.79,-101.46C205.17,-107.01 183.94,-113.33 167.1,-118.34"/>
<polygon fill="#63b8ff" stroke="#63b8ff" points="224.66,-104.86 233.24,-98.65 222.66,-98.15 224.66,-104.86"/>
</a>
</g>
</g>
<!-- Node6 -->
<g id="Node000006" class="node">
<title>Node6</title>
<g id="a_Node000006"><a xlink:href="app_8c.html#a8f64ccad6c506a1ca514ba4f43e5211c" target="_top" xlink:title=" ">
<polygon fill="white" stroke="#666666" points="184.25,-98.75 87.25,-98.75 87.25,-78 184.25,-78 184.25,-98.75"/>
<text text-anchor="middle" x="135.75" y="-85.25" font-family="Helvetica,sans-Serif" font-size="10.00">wrap_w2c__f367</text>
</a>
</g>
</g>
<!-- Node3&#45;&gt;Node6 -->
<g id="edge5_Node000003_Node000006" class="edge">
<title>Node3&#45;&gt;Node6</title>
<g id="a_edge5_Node000003_Node000006"><a xlink:title=" ">
<path fill="none" stroke="#63b8ff" d="M223.2,-88.38C210.78,-88.38 197.25,-88.38 184.65,-88.38"/>
<polygon fill="#63b8ff" stroke="#63b8ff" points="223.18,-91.88 233.18,-88.38 223.18,-84.88 223.18,-91.88"/>
</a>
</g>
</g>
<!-- Node5 -->
<g id="Node000005" class="node">
<title>Node5</title>
<g id="a_Node000005"><a xlink:href="app_8c.html#ab1e039392ea68017ab8a6063263b147d" target="_top" xlink:title=" ">
<polygon fill="white" stroke="#666666" points="51.25,-137.75 0,-137.75 0,-117 51.25,-117 51.25,-137.75"/>
<text text-anchor="middle" x="25.62" y="-124.25" font-family="Helvetica,sans-Serif" font-size="10.00">w2c__c</text>
</a>
</g>
</g>
<!-- Node4&#45;&gt;Node5 -->
<g id="edge4_Node000004_Node000005" class="edge">
<title>Node4&#45;&gt;Node5</title>
<g id="a_edge4_Node000004_Node000005"><a xlink:title=" ">
<path fill="none" stroke="#63b8ff" d="M92.72,-127.38C78.81,-127.38 63.78,-127.38 51.57,-127.38"/>
<polygon fill="#63b8ff" stroke="#63b8ff" points="92.54,-130.88 102.54,-127.38 92.54,-123.88 92.54,-130.88"/>
</a>
</g>
</g>
<!-- Node8 -->
<g id="Node000008" class="node">
<title>Node8</title>
<g id="a_Node000008"><a xlink:href="app_8c.html#af02f0bee35b84918cf19e0ee77ab3ee7" target="_top" xlink:title=" ">
<polygon fill="white" stroke="#666666" points="184.25,-59.75 87.25,-59.75 87.25,-39 184.25,-39 184.25,-59.75"/>
<text text-anchor="middle" x="135.75" y="-46.25" font-family="Helvetica,sans-Serif" font-size="10.00">wrap_w2c__f465</text>
</a>
</g>
</g>
<!-- Node7&#45;&gt;Node8 -->
<g id="edge7_Node000007_Node000008" class="edge">
<title>Node7&#45;&gt;Node8</title>
<g id="a_edge7_Node000007_Node000008"><a xlink:title=" ">
<path fill="none" stroke="#63b8ff" d="M223.2,-49.38C210.78,-49.38 197.25,-49.38 184.65,-49.38"/>
<polygon fill="#63b8ff" stroke="#63b8ff" points="223.18,-52.88 233.18,-49.38 223.18,-45.88 223.18,-52.88"/>
</a>
</g>
</g>
</g>
</svg>
