<?xml version="1.0" encoding="UTF-8" standalone="no"?>
<!DOCTYPE svg PUBLIC "-//W3C//DTD SVG 1.1//EN"
 "http://www.w3.org/Graphics/SVG/1.1/DTD/svg11.dtd">
<!-- Generated by graphviz version 12.2.1 (0)
 -->
<!-- Title: w2c__f537 Pages: 1 -->
<svg width="595pt" height="146pt"
 viewBox="0.00 0.00 594.50 145.75" xmlns="http://www.w3.org/2000/svg" xmlns:xlink="http://www.w3.org/1999/xlink">
<g id="graph0" class="graph" transform="scale(1 1) rotate(0) translate(4 141.75)">
<title>w2c__f537</title>
<!-- Node1 -->
<g id="Node000001" class="node">
<title>Node1</title>
<g id="a_Node000001"><a xlink:title=" ">
<polygon fill="#999999" stroke="#666666" points="67.75,-136.75 0,-136.75 0,-116 67.75,-116 67.75,-136.75"/>
<text text-anchor="middle" x="33.88" y="-123.25" font-family="Helvetica,sans-Serif" font-size="10.00">w2c__f537</text>
</a>
</g>
</g>
<!-- Node2 -->
<g id="Node000002" class="node">
<title>Node2</title>
<g id="a_Node000002"><a xlink:href="app_8c.html#a03fa34d93d32a3ee40dfc2d840730111" target="_top" xlink:title=" ">
<polygon fill="white" stroke="#666666" points="482.75,-137.75 415,-137.75 415,-117 482.75,-117 482.75,-137.75"/>
<text text-anchor="middle" x="448.88" y="-124.25" font-family="Helvetica,sans-Serif" font-size="10.00">w2c__f262</text>
</a>
</g>
</g>
<!-- Node1&#45;&gt;Node2 -->
<g id="edge1_Node000001_Node000002" class="edge">
<title>Node1&#45;&gt;Node2</title>
<g id="a_edge1_Node000001_Node000002"><a xlink:title=" ">
<path fill="none" stroke="#63b8ff" d="M68.1,-127.82C129.51,-130.27 264.93,-134.68 379,-131.38 386.8,-131.15 395.1,-130.78 403.13,-130.35"/>
<polygon fill="#63b8ff" stroke="#63b8ff" points="403.32,-133.85 413.1,-129.78 402.92,-126.86 403.32,-133.85"/>
</a>
</g>
</g>
<!-- Node5 -->
<g id="Node000005" class="node">
<title>Node5</title>
<g id="a_Node000005"><a xlink:href="app_8c.html#add194bffb67f2f62eef302d08ce41b47" target="_top" xlink:title=" ">
<polygon fill="white" stroke="#666666" points="171.5,-117.75 103.75,-117.75 103.75,-97 171.5,-97 171.5,-117.75"/>
<text text-anchor="middle" x="137.62" y="-104.25" font-family="Helvetica,sans-Serif" font-size="10.00">w2c__f266</text>
</a>
</g>
</g>
<!-- Node1&#45;&gt;Node5 -->
<g id="edge4_Node000001_Node000005" class="edge">
<title>Node1&#45;&gt;Node5</title>
<g id="a_edge4_Node000001_Node000005"><a xlink:title=" ">
<path fill="none" stroke="#63b8ff" d="M68.19,-120.15C75.91,-118.71 84.25,-117.16 92.36,-115.64"/>
<polygon fill="#63b8ff" stroke="#63b8ff" points="92.91,-119.1 102.09,-113.82 91.62,-112.22 92.91,-119.1"/>
</a>
</g>
</g>
<!-- Node3 -->
<g id="Node000003" class="node">
<title>Node3</title>
<g id="a_Node000003"><a xlink:href="app_8c.html#a16207b5f7a97b0ecfddd231452c5aa7e" target="_top" xlink:title=" ">
<polygon fill="white" stroke="#666666" points="586.5,-137.75 518.75,-137.75 518.75,-117 586.5,-117 586.5,-137.75"/>
<text text-anchor="middle" x="552.62" y="-124.25" font-family="Helvetica,sans-Serif" font-size="10.00">w2c__f263</text>
</a>
</g>
</g>
<!-- Node2&#45;&gt;Node3 -->
<g id="edge2_Node000002_Node000003" class="edge">
<title>Node2&#45;&gt;Node3</title>
<g id="a_edge2_Node000002_Node000003"><a xlink:title=" ">
<path fill="none" stroke="#63b8ff" d="M483.19,-127.38C490.82,-127.38 499.06,-127.38 507.08,-127.38"/>
<polygon fill="#63b8ff" stroke="#63b8ff" points="507.07,-130.88 517.07,-127.38 507.07,-123.88 507.07,-130.88"/>
</a>
</g>
</g>
<!-- Node4 -->
<g id="Node000004" class="node">
<title>Node4</title>
<g id="a_Node000004"><a xlink:href="app_8c.html#a71bcbce7faf780cd081af3fa82d6da97" target="_top" xlink:title=" ">
<polygon fill="white" stroke="#666666" points="586.5,-98.75 518.75,-98.75 518.75,-78 586.5,-78 586.5,-98.75"/>
<text text-anchor="middle" x="552.62" y="-85.25" font-family="Helvetica,sans-Serif" font-size="10.00">w2c__f437</text>
</a>
</g>
</g>
<!-- Node2&#45;&gt;Node4 -->
<g id="edge3_Node000002_Node000004" class="edge">
<title>Node2&#45;&gt;Node4</title>
<g id="a_edge3_Node000002_Node000004"><a xlink:title=" ">
<path fill="none" stroke="#63b8ff" d="M478.22,-116.51C488.91,-112.41 501.27,-107.67 512.76,-103.27"/>
<polygon fill="#63b8ff" stroke="#63b8ff" points="513.94,-106.57 522.02,-99.72 511.43,-100.03 513.94,-106.57"/>
</a>
</g>
</g>
<!-- Node6 -->
<g id="Node000006" class="node">
<title>Node6</title>
<g id="a_Node000006"><a xlink:href="app_8c.html#a1ed0745af60bea321780e5f860a89d43" target="_top" xlink:title=" ">
<polygon fill="white" stroke="#666666" points="275.25,-117.75 207.5,-117.75 207.5,-97 275.25,-97 275.25,-117.75"/>
<text text-anchor="middle" x="241.38" y="-104.25" font-family="Helvetica,sans-Serif" font-size="10.00">w2c__f522</text>
</a>
</g>
</g>
<!-- Node5&#45;&gt;Node6 -->
<g id="edge5_Node000005_Node000006" class="edge">
<title>Node5&#45;&gt;Node6</title>
<g id="a_edge5_Node000005_Node000006"><a xlink:title=" ">
<path fill="none" stroke="#63b8ff" d="M171.94,-107.38C179.57,-107.38 187.81,-107.38 195.83,-107.38"/>
<polygon fill="#63b8ff" stroke="#63b8ff" points="195.82,-110.88 205.82,-107.38 195.82,-103.88 195.82,-110.88"/>
</a>
</g>
</g>
<!-- Node6&#45;&gt;Node2 -->
<g id="edge6_Node000006_Node000002" class="edge">
<title>Node6&#45;&gt;Node2</title>
<g id="a_edge6_Node000006_Node000002"><a xlink:title=" ">
<path fill="none" stroke="#63b8ff" d="M275.39,-110.59C310.04,-113.96 364.73,-119.28 403.21,-123.03"/>
<polygon fill="#63b8ff" stroke="#63b8ff" points="402.8,-126.5 413.09,-123.99 403.48,-119.54 402.8,-126.5"/>
</a>
</g>
</g>
<!-- Node7 -->
<g id="Node000007" class="node">
<title>Node7</title>
<g id="a_Node000007"><a xlink:href="app_8c.html#a8c90e9acf2d5915eb0476bc13964c4db" target="_top" xlink:title=" ">
<polygon fill="white" stroke="#666666" points="379,-79.75 311.25,-79.75 311.25,-59 379,-59 379,-79.75"/>
<text text-anchor="middle" x="345.12" y="-66.25" font-family="Helvetica,sans-Serif" font-size="10.00">w2c__f345</text>
</a>
</g>
</g>
<!-- Node6&#45;&gt;Node7 -->
<g id="edge7_Node000006_Node000007" class="edge">
<title>Node6&#45;&gt;Node7</title>
<g id="a_edge7_Node000006_Node000007"><a xlink:title=" ">
<path fill="none" stroke="#63b8ff" d="M271.26,-96.59C281.57,-92.74 293.38,-88.33 304.44,-84.2"/>
<polygon fill="#63b8ff" stroke="#63b8ff" points="305.61,-87.5 313.75,-80.72 303.16,-80.94 305.61,-87.5"/>
</a>
</g>
</g>
<!-- Node7&#45;&gt;Node2 -->
<g id="edge8_Node000007_Node000002" class="edge">
<title>Node7&#45;&gt;Node2</title>
<g id="a_edge8_Node000007_Node000002"><a xlink:title=" ">
<path fill="none" stroke="#63b8ff" d="M364.79,-80.01C380.04,-88.71 401.85,-101.14 419.3,-111.09"/>
<polygon fill="#63b8ff" stroke="#63b8ff" points="417.25,-113.95 427.67,-115.86 420.72,-107.87 417.25,-113.95"/>
</a>
</g>
</g>
<!-- Node8 -->
<g id="Node000008" class="node">
<title>Node8</title>
<g id="a_Node000008"><a xlink:href="app_8c.html#a31b08a294227a9fc0a529e66ccd915dc" target="_top" xlink:title=" ">
<polygon fill="white" stroke="#666666" points="482.75,-98.75 415,-98.75 415,-78 482.75,-78 482.75,-98.75"/>
<text text-anchor="middle" x="448.88" y="-85.25" font-family="Helvetica,sans-Serif" font-size="10.00">w2c__f325</text>
</a>
</g>
</g>
<!-- Node7&#45;&gt;Node8 -->
<g id="edge9_Node000007_Node000008" class="edge">
<title>Node7&#45;&gt;Node8</title>
<g id="a_edge9_Node000007_Node000008"><a xlink:title=" ">
<path fill="none" stroke="#63b8ff" d="M379.44,-75.6C387.16,-77.04 395.5,-78.59 403.61,-80.11"/>
<polygon fill="#63b8ff" stroke="#63b8ff" points="402.87,-83.53 413.34,-81.93 404.16,-76.65 402.87,-83.53"/>
</a>
</g>
</g>
<!-- Node9 -->
<g id="Node000009" class="node">
<title>Node9</title>
<g id="a_Node000009"><a xlink:href="app_8c.html#a800df00ef236c6d6affc3c661b37e3ad" target="_top" xlink:title=" ">
<polygon fill="white" stroke="#666666" points="482.75,-59.75 415,-59.75 415,-39 482.75,-39 482.75,-59.75"/>
<text text-anchor="middle" x="448.88" y="-46.25" font-family="Helvetica,sans-Serif" font-size="10.00">w2c__f487</text>
</a>
</g>
</g>
<!-- Node7&#45;&gt;Node9 -->
<g id="edge11_Node000007_Node000009" class="edge">
<title>Node7&#45;&gt;Node9</title>
<g id="a_edge11_Node000007_Node000009"><a xlink:title=" ">
<path fill="none" stroke="#63b8ff" d="M379.44,-62.83C387.16,-61.31 395.5,-59.67 403.61,-58.08"/>
<polygon fill="#63b8ff" stroke="#63b8ff" points="404.21,-61.53 413.35,-56.16 402.86,-54.66 404.21,-61.53"/>
</a>
</g>
</g>
<!-- Node10 -->
<g id="Node000010" class="node">
<title>Node10</title>
<g id="a_Node000010"><a xlink:href="app_8c.html#a0e0dad0ebc52e45eeff2e1b5d8389ea4" target="_top" xlink:title=" ">
<polygon fill="white" stroke="#666666" points="482.75,-20.75 415,-20.75 415,0 482.75,0 482.75,-20.75"/>
<text text-anchor="middle" x="448.88" y="-7.25" font-family="Helvetica,sans-Serif" font-size="10.00">w2c__f534</text>
</a>
</g>
</g>
<!-- Node7&#45;&gt;Node10 -->
<g id="edge13_Node000007_Node000010" class="edge">
<title>Node7&#45;&gt;Node10</title>
<g id="a_edge13_Node000007_Node000010"><a xlink:title=" ">
<path fill="none" stroke="#63b8ff" d="M364.79,-58.55C380.13,-49.65 402.13,-36.9 419.63,-26.75"/>
<polygon fill="#63b8ff" stroke="#63b8ff" points="421.13,-29.93 428.02,-21.89 417.61,-23.88 421.13,-29.93"/>
</a>
</g>
</g>
<!-- Node8&#45;&gt;Node4 -->
<g id="edge10_Node000008_Node000004" class="edge">
<title>Node8&#45;&gt;Node4</title>
<g id="a_edge10_Node000008_Node000004"><a xlink:title=" ">
<path fill="none" stroke="#63b8ff" d="M483.19,-88.38C490.82,-88.38 499.06,-88.38 507.08,-88.38"/>
<polygon fill="#63b8ff" stroke="#63b8ff" points="507.07,-91.88 517.07,-88.38 507.07,-84.88 507.07,-91.88"/>
</a>
</g>
</g>
<!-- Node9&#45;&gt;Node4 -->
<g id="edge12_Node000009_Node000004" class="edge">
<title>Node9&#45;&gt;Node4</title>
<g id="a_edge12_Node000009_Node000004"><a xlink:title=" ">
<path fill="none" stroke="#63b8ff" d="M478.22,-60.24C488.91,-64.34 501.27,-69.08 512.76,-73.48"/>
<polygon fill="#63b8ff" stroke="#63b8ff" points="511.43,-76.72 522.02,-77.03 513.94,-70.18 511.43,-76.72"/>
</a>
</g>
</g>
</g>
</svg>
