<?xml version="1.0" encoding="UTF-8" standalone="no"?>
<!DOCTYPE svg PUBLIC "-//W3C//DTD SVG 1.1//EN"
 "http://www.w3.org/Graphics/SVG/1.1/DTD/svg11.dtd">
<!-- Generated by graphviz version 12.2.1 (0)
 -->
<!-- Title: wrap_w2c__f571 Pages: 1 -->
<svg width="730pt" height="221pt"
 viewBox="0.00 0.00 729.75 220.75" xmlns="http://www.w3.org/2000/svg" xmlns:xlink="http://www.w3.org/1999/xlink">
<g id="graph0" class="graph" transform="scale(1 1) rotate(0) translate(4 216.75)">
<title>wrap_w2c__f571</title>
<!-- Node1 -->
<g id="Node000001" class="node">
<title>Node1</title>
<g id="a_Node000001"><a xlink:title=" ">
<polygon fill="#999999" stroke="#666666" points="97,-124.38 0,-124.38 0,-103.62 97,-103.62 97,-124.38"/>
<text text-anchor="middle" x="48.5" y="-110.88" font-family="Helvetica,sans-Serif" font-size="10.00">wrap_w2c__f571</text>
</a>
</g>
</g>
<!-- Node2 -->
<g id="Node000002" class="node">
<title>Node2</title>
<g id="a_Node000002"><a xlink:href="app_8c.html#a114660805d6920291a2827ae740d4777" target="_top" xlink:title=" ">
<polygon fill="white" stroke="#666666" points="200.75,-124.38 133,-124.38 133,-103.62 200.75,-103.62 200.75,-124.38"/>
<text text-anchor="middle" x="166.88" y="-110.88" font-family="Helvetica,sans-Serif" font-size="10.00">w2c__f571</text>
</a>
</g>
</g>
<!-- Node1&#45;&gt;Node2 -->
<g id="edge1_Node000001_Node000002" class="edge">
<title>Node1&#45;&gt;Node2</title>
<g id="a_edge1_Node000001_Node000002"><a xlink:title=" ">
<path fill="none" stroke="#63b8ff" d="M97.17,-114C105.18,-114 113.47,-114 121.4,-114"/>
<polygon fill="#63b8ff" stroke="#63b8ff" points="121.17,-117.5 131.17,-114 121.17,-110.5 121.17,-117.5"/>
</a>
</g>
</g>
<!-- Node2&#45;&gt;Node2 -->
<g id="edge19_Node000002_Node000002" class="edge">
<title>Node2&#45;&gt;Node2</title>
<g id="a_edge19_Node000002_Node000002"><a xlink:title=" ">
<path fill="none" stroke="#63b8ff" d="M150.16,-124.77C143.47,-133.43 149.04,-142.38 166.88,-142.38 176.35,-142.38 182.36,-139.85 184.91,-136.19"/>
<polygon fill="#63b8ff" stroke="#63b8ff" points="188.39,-135.81 183.77,-126.28 181.44,-136.61 188.39,-135.81"/>
</a>
</g>
</g>
<!-- Node3 -->
<g id="Node000003" class="node">
<title>Node3</title>
<g id="a_Node000003"><a xlink:href="app_8c.html#a3782bf9bcaf4b3ad28b22b08c0d902e6" target="_top" xlink:title=" ">
<polygon fill="white" stroke="#666666" points="304.5,-86.38 236.75,-86.38 236.75,-65.62 304.5,-65.62 304.5,-86.38"/>
<text text-anchor="middle" x="270.62" y="-72.88" font-family="Helvetica,sans-Serif" font-size="10.00">w2c__f267</text>
</a>
</g>
</g>
<!-- Node2&#45;&gt;Node3 -->
<g id="edge2_Node000002_Node000003" class="edge">
<title>Node2&#45;&gt;Node3</title>
<g id="a_edge2_Node000002_Node000003"><a xlink:title=" ">
<path fill="none" stroke="#63b8ff" d="M196.76,-103.21C207.07,-99.36 218.88,-94.95 229.94,-90.82"/>
<polygon fill="#63b8ff" stroke="#63b8ff" points="231.11,-94.12 239.25,-87.34 228.66,-87.56 231.11,-94.12"/>
</a>
</g>
</g>
<!-- Node4 -->
<g id="Node000004" class="node">
<title>Node4</title>
<g id="a_Node000004"><a xlink:href="app_8c.html#a7836d11fc7a27305570f2647bd815b60" target="_top" xlink:title=" ">
<polygon fill="white" stroke="#666666" points="408.25,-124.38 340.5,-124.38 340.5,-103.62 408.25,-103.62 408.25,-124.38"/>
<text text-anchor="middle" x="374.38" y="-110.88" font-family="Helvetica,sans-Serif" font-size="10.00">w2c__f317</text>
</a>
</g>
</g>
<!-- Node2&#45;&gt;Node4 -->
<g id="edge11_Node000002_Node000004" class="edge">
<title>Node2&#45;&gt;Node4</title>
<g id="a_edge11_Node000002_Node000004"><a xlink:title=" ">
<path fill="none" stroke="#63b8ff" d="M200.89,-114C235.54,-114 290.23,-114 328.71,-114"/>
<polygon fill="#63b8ff" stroke="#63b8ff" points="328.59,-117.5 338.59,-114 328.59,-110.5 328.59,-117.5"/>
</a>
</g>
</g>
<!-- Node5 -->
<g id="Node000005" class="node">
<title>Node5</title>
<g id="a_Node000005"><a xlink:href="app_8c.html#abd001155947e0836c9fc8b48d31f8cac" target="_top" xlink:title=" ">
<polygon fill="white" stroke="#666666" points="512,-124.38 444.25,-124.38 444.25,-103.62 512,-103.62 512,-124.38"/>
<text text-anchor="middle" x="478.12" y="-110.88" font-family="Helvetica,sans-Serif" font-size="10.00">w2c__f482</text>
</a>
</g>
</g>
<!-- Node2&#45;&gt;Node5 -->
<g id="edge17_Node000002_Node000005" class="edge">
<title>Node2&#45;&gt;Node5</title>
<g id="a_edge17_Node000002_Node000005"><a xlink:title=" ">
<path fill="none" stroke="#63b8ff" d="M181.01,-124.7C217.84,-153.31 324.82,-226.98 408.25,-190 433.7,-178.72 453.75,-152.88 465.5,-134.46"/>
<polygon fill="#63b8ff" stroke="#63b8ff" points="468.48,-136.31 470.66,-125.94 462.49,-132.68 468.48,-136.31"/>
</a>
</g>
</g>
<!-- Node6 -->
<g id="Node000006" class="node">
<title>Node6</title>
<g id="a_Node000006"><a xlink:href="app_8c.html#ae910d950b82aa1f4bb1baa5f02e52b37" target="_top" xlink:title=" ">
<polygon fill="white" stroke="#666666" points="615.75,-143.38 548,-143.38 548,-122.62 615.75,-122.62 615.75,-143.38"/>
<text text-anchor="middle" x="581.88" y="-129.88" font-family="Helvetica,sans-Serif" font-size="10.00">w2c__f469</text>
</a>
</g>
</g>
<!-- Node2&#45;&gt;Node6 -->
<g id="edge15_Node000002_Node000006" class="edge">
<title>Node2&#45;&gt;Node6</title>
<g id="a_edge15_Node000002_Node000006"><a xlink:title=" ">
<path fill="none" stroke="#63b8ff" d="M174.13,-124.77C184.69,-141.86 207.73,-174.91 236.75,-191 277.68,-213.7 293.87,-204.99 340.5,-209 370.5,-211.58 378.78,-215.2 408.25,-209 462.32,-197.62 520.11,-168.23 553.22,-149.51"/>
<polygon fill="#63b8ff" stroke="#63b8ff" points="554.84,-152.62 561.76,-144.59 551.35,-146.55 554.84,-152.62"/>
</a>
</g>
</g>
<!-- Node8 -->
<g id="Node000008" class="node">
<title>Node8</title>
<g id="a_Node000008"><a xlink:href="app_8c.html#ab78a9ba6819f5a9d3b53302097151d33" target="_top" xlink:title=" ">
<polygon fill="white" stroke="#666666" points="720.62,-53.38 652.88,-53.38 652.88,-32.62 720.62,-32.62 720.62,-53.38"/>
<text text-anchor="middle" x="686.75" y="-39.88" font-family="Helvetica,sans-Serif" font-size="10.00">w2c__f481</text>
</a>
</g>
</g>
<!-- Node2&#45;&gt;Node8 -->
<g id="edge16_Node000002_Node000008" class="edge">
<title>Node2&#45;&gt;Node8</title>
<g id="a_edge16_Node000002_Node000008"><a xlink:title=" ">
<path fill="none" stroke="#63b8ff" d="M174.22,-103.22C184.89,-86.05 208.09,-52.66 236.75,-35 290.11,-2.12 310.69,0 373.38,0 373.38,0 373.38,0 479.12,0 536.85,0 601.79,-16.29 643.19,-28.81"/>
<polygon fill="#63b8ff" stroke="#63b8ff" points="641.93,-32.09 652.52,-31.7 644,-25.4 641.93,-32.09"/>
</a>
</g>
</g>
<!-- Node9 -->
<g id="Node000009" class="node">
<title>Node9</title>
<g id="a_Node000009"><a xlink:href="app_8c.html#a710a90b53ca9da85f7059545f9c0c53f" target="_top" xlink:title=" ">
<polygon fill="white" stroke="#666666" points="615.75,-53.38 548,-53.38 548,-32.62 615.75,-32.62 615.75,-53.38"/>
<text text-anchor="middle" x="581.88" y="-39.88" font-family="Helvetica,sans-Serif" font-size="10.00">w2c__f527</text>
</a>
</g>
</g>
<!-- Node2&#45;&gt;Node9 -->
<g id="edge18_Node000002_Node000009" class="edge">
<title>Node2&#45;&gt;Node9</title>
<g id="a_edge18_Node000002_Node000009"><a xlink:title=" ">
<path fill="none" stroke="#63b8ff" d="M176.79,-103.18C188.78,-89.52 211.53,-66.67 236.75,-57 338.35,-18.06 469.39,-27.41 536.68,-36.07"/>
<polygon fill="#63b8ff" stroke="#63b8ff" points="535.82,-39.48 546.2,-37.35 536.76,-32.55 535.82,-39.48"/>
</a>
</g>
</g>
<!-- Node10 -->
<g id="Node000010" class="node">
<title>Node10</title>
<g id="a_Node000010"><a xlink:href="app_8c.html#abcef1888868558877641082d8a7ec127" target="_top" xlink:title=" ">
<polygon fill="white" stroke="#666666" points="408.25,-163.38 340.5,-163.38 340.5,-142.62 408.25,-142.62 408.25,-163.38"/>
<text text-anchor="middle" x="374.38" y="-149.88" font-family="Helvetica,sans-Serif" font-size="10.00">w2c__f369</text>
</a>
</g>
</g>
<!-- Node2&#45;&gt;Node10 -->
<g id="edge12_Node000002_Node000010" class="edge">
<title>Node2&#45;&gt;Node10</title>
<g id="a_edge12_Node000002_Node000010"><a xlink:title=" ">
<path fill="none" stroke="#63b8ff" d="M201.13,-120.9C212.43,-123.2 225.13,-125.76 236.75,-128 267.48,-133.93 302.17,-140.28 328.9,-145.09"/>
<polygon fill="#63b8ff" stroke="#63b8ff" points="328.26,-148.53 338.72,-146.85 329.5,-141.64 328.26,-148.53"/>
</a>
</g>
</g>
<!-- Node3&#45;&gt;Node4 -->
<g id="edge3_Node000003_Node000004" class="edge">
<title>Node3&#45;&gt;Node4</title>
<g id="a_edge3_Node000003_Node000004"><a xlink:title=" ">
<path fill="none" stroke="#63b8ff" d="M300.51,-86.79C310.82,-90.64 322.63,-95.05 333.69,-99.18"/>
<polygon fill="#63b8ff" stroke="#63b8ff" points="332.41,-102.44 343,-102.66 334.86,-95.88 332.41,-102.44"/>
</a>
</g>
</g>
<!-- Node3&#45;&gt;Node5 -->
<g id="edge10_Node000003_Node000005" class="edge">
<title>Node3&#45;&gt;Node5</title>
<g id="a_edge10_Node000003_Node000005"><a xlink:title=" ">
<path fill="none" stroke="#63b8ff" d="M304.96,-79.4C332.76,-82.53 373.31,-87.78 408.25,-95 416.35,-96.67 424.91,-98.76 433.13,-100.94"/>
<polygon fill="#63b8ff" stroke="#63b8ff" points="432.03,-104.27 442.6,-103.53 433.88,-97.52 432.03,-104.27"/>
</a>
</g>
</g>
<!-- Node4&#45;&gt;Node5 -->
<g id="edge4_Node000004_Node000005" class="edge">
<title>Node4&#45;&gt;Node5</title>
<g id="a_edge4_Node000004_Node000005"><a xlink:title=" ">
<path fill="none" stroke="#63b8ff" d="M408.69,-114C416.32,-114 424.56,-114 432.58,-114"/>
<polygon fill="#63b8ff" stroke="#63b8ff" points="432.57,-117.5 442.57,-114 432.57,-110.5 432.57,-117.5"/>
</a>
</g>
</g>
<!-- Node5&#45;&gt;Node6 -->
<g id="edge5_Node000005_Node000006" class="edge">
<title>Node5&#45;&gt;Node6</title>
<g id="a_edge5_Node000005_Node000006"><a xlink:title=" ">
<path fill="none" stroke="#63b8ff" d="M512.44,-120.22C520.16,-121.66 528.5,-123.22 536.61,-124.73"/>
<polygon fill="#63b8ff" stroke="#63b8ff" points="535.87,-128.16 546.34,-126.55 537.16,-121.28 535.87,-128.16"/>
</a>
</g>
</g>
<!-- Node5&#45;&gt;Node8 -->
<g id="edge7_Node000005_Node000008" class="edge">
<title>Node5&#45;&gt;Node8</title>
<g id="a_edge7_Node000005_Node000008"><a xlink:title=" ">
<path fill="none" stroke="#63b8ff" d="M510.51,-103.22C546.03,-91.01 604.09,-71.06 643.56,-57.5"/>
<polygon fill="#63b8ff" stroke="#63b8ff" points="644.66,-60.82 652.98,-54.26 642.39,-54.2 644.66,-60.82"/>
</a>
</g>
</g>
<!-- Node5&#45;&gt;Node9 -->
<g id="edge8_Node000005_Node000009" class="edge">
<title>Node5&#45;&gt;Node9</title>
<g id="a_edge8_Node000005_Node000009"><a xlink:title=" ">
<path fill="none" stroke="#63b8ff" d="M494.58,-103.22C510.96,-91.79 537.06,-73.57 556.28,-60.16"/>
<polygon fill="#63b8ff" stroke="#63b8ff" points="558.17,-63.11 564.37,-54.52 554.16,-57.37 558.17,-63.11"/>
</a>
</g>
</g>
<!-- Node7 -->
<g id="Node000007" class="node">
<title>Node7</title>
<g id="a_Node000007"><a xlink:href="app_8c.html#a0459db85ff19e57f5b71f92f3ebd87db" target="_top" xlink:title=" ">
<polygon fill="white" stroke="#666666" points="721.75,-143.38 651.75,-143.38 651.75,-122.62 721.75,-122.62 721.75,-143.38"/>
<text text-anchor="middle" x="686.75" y="-129.88" font-family="Helvetica,sans-Serif" font-size="10.00">w2c_0_115</text>
</a>
</g>
</g>
<!-- Node6&#45;&gt;Node7 -->
<g id="edge6_Node000006_Node000007" class="edge">
<title>Node6&#45;&gt;Node7</title>
<g id="a_edge6_Node000006_Node000007"><a xlink:title=" ">
<path fill="none" stroke="#63b8ff" d="M615.99,-133C623.66,-133 631.95,-133 640.04,-133"/>
<polygon fill="#63b8ff" stroke="#63b8ff" points="639.77,-136.5 649.77,-133 639.77,-129.5 639.77,-136.5"/>
</a>
</g>
</g>
<!-- Node9&#45;&gt;Node8 -->
<g id="edge9_Node000009_Node000008" class="edge">
<title>Node9&#45;&gt;Node8</title>
<g id="a_edge9_Node000009_Node000008"><a xlink:title=" ">
<path fill="none" stroke="#63b8ff" d="M615.99,-43C624.07,-43 632.84,-43 641.35,-43"/>
<polygon fill="#63b8ff" stroke="#63b8ff" points="641.18,-46.5 651.18,-43 641.18,-39.5 641.18,-46.5"/>
</a>
</g>
</g>
<!-- Node10&#45;&gt;Node5 -->
<g id="edge14_Node000010_Node000005" class="edge">
<title>Node10&#45;&gt;Node5</title>
<g id="a_edge14_Node000010_Node000005"><a xlink:title=" ">
<path fill="none" stroke="#63b8ff" d="M403.72,-142.14C414.41,-138.04 426.77,-133.3 438.26,-128.9"/>
<polygon fill="#63b8ff" stroke="#63b8ff" points="439.44,-132.19 447.52,-125.35 436.93,-125.66 439.44,-132.19"/>
</a>
</g>
</g>
<!-- Node10&#45;&gt;Node10 -->
<g id="edge13_Node000010_Node000010" class="edge">
<title>Node10&#45;&gt;Node10</title>
<g id="a_edge13_Node000010_Node000010"><a xlink:title=" ">
<path fill="none" stroke="#63b8ff" d="M357.66,-163.77C350.97,-172.43 356.54,-181.38 374.38,-181.38 383.85,-181.38 389.86,-178.85 392.41,-175.19"/>
<polygon fill="#63b8ff" stroke="#63b8ff" points="395.89,-174.81 391.27,-165.28 388.94,-175.61 395.89,-174.81"/>
</a>
</g>
</g>
</g>
</svg>
