<?xml version="1.0" encoding="UTF-8" standalone="no"?>
<!DOCTYPE svg PUBLIC "-//W3C//DTD SVG 1.1//EN"
 "http://www.w3.org/Graphics/SVG/1.1/DTD/svg11.dtd">
<!-- Generated by graphviz version 12.2.1 (0)
 -->
<!-- Title: w2c__f328 Pages: 1 -->
<svg width="908pt" height="938pt"
 viewBox="0.00 0.00 908.00 938.00" xmlns="http://www.w3.org/2000/svg" xmlns:xlink="http://www.w3.org/1999/xlink">
<g id="graph0" class="graph" transform="scale(1 1) rotate(0) translate(4 934)">
<title>w2c__f328</title>
<!-- Node1 -->
<g id="Node000001" class="node">
<title>Node1</title>
<g id="a_Node000001"><a xlink:title=" ">
<polygon fill="#999999" stroke="#666666" points="67.75,-357.38 0,-357.38 0,-336.62 67.75,-336.62 67.75,-357.38"/>
<text text-anchor="middle" x="33.88" y="-343.88" font-family="Helvetica,sans-Serif" font-size="10.00">w2c__f328</text>
</a>
</g>
</g>
<!-- Node2 -->
<g id="Node000002" class="node">
<title>Node2</title>
<g id="a_Node000002"><a xlink:href="app_8c.html#a986f1214d53a515b2b887b8f988fa6a1" target="_top" xlink:title=" ">
<polygon fill="white" stroke="#666666" points="485,-873.38 417.25,-873.38 417.25,-852.62 485,-852.62 485,-873.38"/>
<text text-anchor="middle" x="451.12" y="-859.88" font-family="Helvetica,sans-Serif" font-size="10.00">w2c__f365</text>
</a>
</g>
</g>
<!-- Node1&#45;&gt;Node2 -->
<g id="edge1_Node000001_Node000002" class="edge">
<title>Node1&#45;&gt;Node2</title>
<g id="a_edge1_Node000001_Node000002"><a xlink:title=" ">
<path fill="none" stroke="#63b8ff" d="M36.03,-357.84C43.78,-424.21 94.63,-776.51 311.25,-893 347.04,-912.25 394.29,-894.29 423.42,-879.05"/>
<polygon fill="#63b8ff" stroke="#63b8ff" points="424.87,-882.24 431.95,-874.36 421.5,-876.11 424.87,-882.24"/>
</a>
</g>
</g>
<!-- Node10 -->
<g id="Node000010" class="node">
<title>Node10</title>
<g id="a_Node000010"><a xlink:href="app_8c.html#a800df00ef236c6d6affc3c661b37e3ad" target="_top" xlink:title=" ">
<polygon fill="white" stroke="#666666" points="796.25,-124.38 728.5,-124.38 728.5,-103.62 796.25,-103.62 796.25,-124.38"/>
<text text-anchor="middle" x="762.38" y="-110.88" font-family="Helvetica,sans-Serif" font-size="10.00">w2c__f487</text>
</a>
</g>
</g>
<!-- Node1&#45;&gt;Node10 -->
<g id="edge15_Node000001_Node000010" class="edge">
<title>Node1&#45;&gt;Node10</title>
<g id="a_edge15_Node000001_Node000010"><a xlink:title=" ">
<path fill="none" stroke="#63b8ff" d="M35.9,-336.23C42.12,-277.66 80.04,0 240.38,0 240.38,0 240.38,0 555.88,0 619.81,0 638.07,-11.46 692.5,-45 713.86,-58.16 733.58,-79.22 746.39,-94.61"/>
<polygon fill="#63b8ff" stroke="#63b8ff" points="743.48,-96.58 752.48,-102.16 748.93,-92.18 743.48,-96.58"/>
</a>
</g>
</g>
<!-- Node12 -->
<g id="Node000012" class="node">
<title>Node12</title>
<g id="a_Node000012"><a xlink:href="app_8c.html#a7bd86d6c56e8db012e9e5dfe6465d939" target="_top" xlink:title=" ">
<polygon fill="white" stroke="#666666" points="171.5,-357.38 103.75,-357.38 103.75,-336.62 171.5,-336.62 171.5,-357.38"/>
<text text-anchor="middle" x="137.62" y="-343.88" font-family="Helvetica,sans-Serif" font-size="10.00">w2c__f564</text>
</a>
</g>
</g>
<!-- Node1&#45;&gt;Node12 -->
<g id="edge16_Node000001_Node000012" class="edge">
<title>Node1&#45;&gt;Node12</title>
<g id="a_edge16_Node000001_Node000012"><a xlink:title=" ">
<path fill="none" stroke="#63b8ff" d="M68.19,-347C75.82,-347 84.06,-347 92.08,-347"/>
<polygon fill="#63b8ff" stroke="#63b8ff" points="92.07,-350.5 102.07,-347 92.07,-343.5 92.07,-350.5"/>
</a>
</g>
</g>
<!-- Node3 -->
<g id="Node000003" class="node">
<title>Node3</title>
<g id="a_Node000003"><a xlink:href="app_8c.html#a14e021d2f1b59e04757852f66bff1044" target="_top" xlink:title=" ">
<polygon fill="white" stroke="#666666" points="588.75,-817.38 521,-817.38 521,-796.62 588.75,-796.62 588.75,-817.38"/>
<text text-anchor="middle" x="554.88" y="-803.88" font-family="Helvetica,sans-Serif" font-size="10.00">w2c__f511</text>
</a>
</g>
</g>
<!-- Node2&#45;&gt;Node3 -->
<g id="edge2_Node000002_Node000003" class="edge">
<title>Node2&#45;&gt;Node3</title>
<g id="a_edge2_Node000002_Node000003"><a xlink:title=" ">
<path fill="none" stroke="#63b8ff" d="M471.74,-852.2C486.66,-843.99 507.44,-832.56 524.36,-823.24"/>
<polygon fill="#63b8ff" stroke="#63b8ff" points="525.92,-826.38 532.99,-818.49 522.54,-820.25 525.92,-826.38"/>
</a>
</g>
</g>
<!-- Node4 -->
<g id="Node000004" class="node">
<title>Node4</title>
<g id="a_Node000004"><a xlink:href="app_8c.html#aa58fd7f1d3aab8404d7f71d334a8a108" target="_top" xlink:title=" ">
<polygon fill="white" stroke="#666666" points="692.5,-813.38 624.75,-813.38 624.75,-792.62 692.5,-792.62 692.5,-813.38"/>
<text text-anchor="middle" x="658.62" y="-799.88" font-family="Helvetica,sans-Serif" font-size="10.00">w2c__f211</text>
</a>
</g>
</g>
<!-- Node3&#45;&gt;Node4 -->
<g id="edge3_Node000003_Node000004" class="edge">
<title>Node3&#45;&gt;Node4</title>
<g id="a_edge3_Node000003_Node000004"><a xlink:title=" ">
<path fill="none" stroke="#63b8ff" d="M589.19,-805.69C596.82,-805.39 605.06,-805.07 613.08,-804.75"/>
<polygon fill="#63b8ff" stroke="#63b8ff" points="613.21,-808.25 623.07,-804.36 612.94,-801.25 613.21,-808.25"/>
</a>
</g>
</g>
<!-- Node9 -->
<g id="Node000009" class="node">
<title>Node9</title>
<g id="a_Node000009"><a xlink:href="app_8c.html#a8c90e9acf2d5915eb0476bc13964c4db" target="_top" xlink:title=" ">
<polygon fill="white" stroke="#666666" points="692.5,-774.38 624.75,-774.38 624.75,-753.62 692.5,-753.62 692.5,-774.38"/>
<text text-anchor="middle" x="658.62" y="-760.88" font-family="Helvetica,sans-Serif" font-size="10.00">w2c__f345</text>
</a>
</g>
</g>
<!-- Node3&#45;&gt;Node9 -->
<g id="edge9_Node000003_Node000009" class="edge">
<title>Node3&#45;&gt;Node9</title>
<g id="a_edge9_Node000003_Node000009"><a xlink:title=" ">
<path fill="none" stroke="#63b8ff" d="M581.55,-796.15C593.72,-791.01 608.47,-784.77 621.72,-779.17"/>
<polygon fill="#63b8ff" stroke="#63b8ff" points="622.71,-782.55 630.56,-775.44 619.99,-776.11 622.71,-782.55"/>
</a>
</g>
</g>
<!-- Node5 -->
<g id="Node000005" class="node">
<title>Node5</title>
<g id="a_Node000005"><a xlink:href="app_8c.html#a03fa34d93d32a3ee40dfc2d840730111" target="_top" xlink:title=" ">
<polygon fill="white" stroke="#666666" points="796.25,-813.38 728.5,-813.38 728.5,-792.62 796.25,-792.62 796.25,-813.38"/>
<text text-anchor="middle" x="762.38" y="-799.88" font-family="Helvetica,sans-Serif" font-size="10.00">w2c__f262</text>
</a>
</g>
</g>
<!-- Node4&#45;&gt;Node5 -->
<g id="edge4_Node000004_Node000005" class="edge">
<title>Node4&#45;&gt;Node5</title>
<g id="a_edge4_Node000004_Node000005"><a xlink:title=" ">
<path fill="none" stroke="#63b8ff" d="M692.94,-803C700.57,-803 708.81,-803 716.83,-803"/>
<polygon fill="#63b8ff" stroke="#63b8ff" points="716.82,-806.5 726.82,-803 716.82,-799.5 716.82,-806.5"/>
</a>
</g>
</g>
<!-- Node8 -->
<g id="Node000008" class="node">
<title>Node8</title>
<g id="a_Node000008"><a xlink:href="app_8c.html#a31b08a294227a9fc0a529e66ccd915dc" target="_top" xlink:title=" ">
<polygon fill="white" stroke="#666666" points="796.25,-774.38 728.5,-774.38 728.5,-753.62 796.25,-753.62 796.25,-774.38"/>
<text text-anchor="middle" x="762.38" y="-760.88" font-family="Helvetica,sans-Serif" font-size="10.00">w2c__f325</text>
</a>
</g>
</g>
<!-- Node4&#45;&gt;Node8 -->
<g id="edge7_Node000004_Node000008" class="edge">
<title>Node4&#45;&gt;Node8</title>
<g id="a_edge7_Node000004_Node000008"><a xlink:title=" ">
<path fill="none" stroke="#63b8ff" d="M687.97,-792.14C698.66,-788.04 711.02,-783.3 722.51,-778.9"/>
<polygon fill="#63b8ff" stroke="#63b8ff" points="723.69,-782.19 731.77,-775.35 721.18,-775.66 723.69,-782.19"/>
</a>
</g>
</g>
<!-- Node6 -->
<g id="Node000006" class="node">
<title>Node6</title>
<g id="a_Node000006"><a xlink:href="app_8c.html#a16207b5f7a97b0ecfddd231452c5aa7e" target="_top" xlink:title=" ">
<polygon fill="white" stroke="#666666" points="900,-813.38 832.25,-813.38 832.25,-792.62 900,-792.62 900,-813.38"/>
<text text-anchor="middle" x="866.12" y="-799.88" font-family="Helvetica,sans-Serif" font-size="10.00">w2c__f263</text>
</a>
</g>
</g>
<!-- Node5&#45;&gt;Node6 -->
<g id="edge5_Node000005_Node000006" class="edge">
<title>Node5&#45;&gt;Node6</title>
<g id="a_edge5_Node000005_Node000006"><a xlink:title=" ">
<path fill="none" stroke="#63b8ff" d="M796.69,-803C804.32,-803 812.56,-803 820.58,-803"/>
<polygon fill="#63b8ff" stroke="#63b8ff" points="820.57,-806.5 830.57,-803 820.57,-799.5 820.57,-806.5"/>
</a>
</g>
</g>
<!-- Node7 -->
<g id="Node000007" class="node">
<title>Node7</title>
<g id="a_Node000007"><a xlink:href="app_8c.html#a71bcbce7faf780cd081af3fa82d6da97" target="_top" xlink:title=" ">
<polygon fill="white" stroke="#666666" points="900,-774.38 832.25,-774.38 832.25,-753.62 900,-753.62 900,-774.38"/>
<text text-anchor="middle" x="866.12" y="-760.88" font-family="Helvetica,sans-Serif" font-size="10.00">w2c__f437</text>
</a>
</g>
</g>
<!-- Node5&#45;&gt;Node7 -->
<g id="edge6_Node000005_Node000007" class="edge">
<title>Node5&#45;&gt;Node7</title>
<g id="a_edge6_Node000005_Node000007"><a xlink:title=" ">
<path fill="none" stroke="#63b8ff" d="M791.72,-792.14C802.41,-788.04 814.77,-783.3 826.26,-778.9"/>
<polygon fill="#63b8ff" stroke="#63b8ff" points="827.44,-782.19 835.52,-775.35 824.93,-775.66 827.44,-782.19"/>
</a>
</g>
</g>
<!-- Node8&#45;&gt;Node7 -->
<g id="edge8_Node000008_Node000007" class="edge">
<title>Node8&#45;&gt;Node7</title>
<g id="a_edge8_Node000008_Node000007"><a xlink:title=" ">
<path fill="none" stroke="#63b8ff" d="M796.69,-764C804.32,-764 812.56,-764 820.58,-764"/>
<polygon fill="#63b8ff" stroke="#63b8ff" points="820.57,-767.5 830.57,-764 820.57,-760.5 820.57,-767.5"/>
</a>
</g>
</g>
<!-- Node9&#45;&gt;Node5 -->
<g id="edge10_Node000009_Node000005" class="edge">
<title>Node9&#45;&gt;Node5</title>
<g id="a_edge10_Node000009_Node000005"><a xlink:title=" ">
<path fill="none" stroke="#63b8ff" d="M687.97,-774.86C698.66,-778.96 711.02,-783.7 722.51,-788.1"/>
<polygon fill="#63b8ff" stroke="#63b8ff" points="721.18,-791.34 731.77,-791.65 723.69,-784.81 721.18,-791.34"/>
</a>
</g>
</g>
<!-- Node9&#45;&gt;Node8 -->
<g id="edge11_Node000009_Node000008" class="edge">
<title>Node9&#45;&gt;Node8</title>
<g id="a_edge11_Node000009_Node000008"><a xlink:title=" ">
<path fill="none" stroke="#63b8ff" d="M692.94,-764C700.57,-764 708.81,-764 716.83,-764"/>
<polygon fill="#63b8ff" stroke="#63b8ff" points="716.82,-767.5 726.82,-764 716.82,-760.5 716.82,-767.5"/>
</a>
</g>
</g>
<!-- Node9&#45;&gt;Node10 -->
<g id="edge12_Node000009_Node000010" class="edge">
<title>Node9&#45;&gt;Node10</title>
<g id="a_edge12_Node000009_Node000010"><a xlink:title=" ">
<path fill="none" stroke="#63b8ff" d="M661.31,-753.26C672.96,-678.79 741.78,-239.16 757.97,-135.76"/>
<polygon fill="#63b8ff" stroke="#63b8ff" points="761.39,-136.55 759.48,-126.13 754.47,-135.47 761.39,-136.55"/>
</a>
</g>
</g>
<!-- Node11 -->
<g id="Node000011" class="node">
<title>Node11</title>
<g id="a_Node000011"><a xlink:href="app_8c.html#a0e0dad0ebc52e45eeff2e1b5d8389ea4" target="_top" xlink:title=" ">
<polygon fill="white" stroke="#666666" points="796.25,-728.38 728.5,-728.38 728.5,-707.62 796.25,-707.62 796.25,-728.38"/>
<text text-anchor="middle" x="762.38" y="-714.88" font-family="Helvetica,sans-Serif" font-size="10.00">w2c__f534</text>
</a>
</g>
</g>
<!-- Node9&#45;&gt;Node11 -->
<g id="edge14_Node000009_Node000011" class="edge">
<title>Node9&#45;&gt;Node11</title>
<g id="a_edge14_Node000009_Node000011"><a xlink:title=" ">
<path fill="none" stroke="#63b8ff" d="M683.48,-753.22C696.62,-747.27 713.15,-739.8 727.6,-733.27"/>
<polygon fill="#63b8ff" stroke="#63b8ff" points="728.62,-736.65 736.29,-729.34 725.74,-730.27 728.62,-736.65"/>
</a>
</g>
</g>
<!-- Node10&#45;&gt;Node7 -->
<g id="edge13_Node000010_Node000007" class="edge">
<title>Node10&#45;&gt;Node7</title>
<g id="a_edge13_Node000010_Node000007"><a xlink:title=" ">
<path fill="none" stroke="#63b8ff" d="M765.06,-124.74C776.71,-199.21 845.53,-638.84 861.72,-742.24"/>
<polygon fill="#63b8ff" stroke="#63b8ff" points="858.22,-742.53 863.23,-751.87 865.14,-741.45 858.22,-742.53"/>
</a>
</g>
</g>
<!-- Node12&#45;&gt;Node10 -->
<g id="edge22_Node000012_Node000010" class="edge">
<title>Node12&#45;&gt;Node10</title>
<g id="a_edge22_Node000012_Node000010"><a xlink:title=" ">
<path fill="none" stroke="#63b8ff" d="M140.28,-336.36C149.38,-282.03 198.43,-38 345.25,-38 345.25,-38 345.25,-38 555.88,-38 623.85,-38 697.06,-75.03 735.07,-97.4"/>
<polygon fill="#63b8ff" stroke="#63b8ff" points="733.16,-100.33 743.53,-102.49 736.77,-94.33 733.16,-100.33"/>
</a>
</g>
</g>
<!-- Node13 -->
<g id="Node000013" class="node">
<title>Node13</title>
<g id="a_Node000013"><a xlink:href="app_8c.html#a16b87571119c211bed30fa7b8b381ed7" target="_top" xlink:title=" ">
<polygon fill="white" stroke="#666666" points="275.25,-201.38 207.5,-201.38 207.5,-180.62 275.25,-180.62 275.25,-201.38"/>
<text text-anchor="middle" x="241.38" y="-187.88" font-family="Helvetica,sans-Serif" font-size="10.00">w2c__f224</text>
</a>
</g>
</g>
<!-- Node12&#45;&gt;Node13 -->
<g id="edge17_Node000012_Node000013" class="edge">
<title>Node12&#45;&gt;Node13</title>
<g id="a_edge17_Node000012_Node000013"><a xlink:title=" ">
<path fill="none" stroke="#63b8ff" d="M145.62,-336.28C162.46,-310.45 205.5,-244.46 227.3,-211.04"/>
<polygon fill="#63b8ff" stroke="#63b8ff" points="229.97,-213.35 232.51,-203.07 224.11,-209.53 229.97,-213.35"/>
</a>
</g>
</g>
<!-- Node15 -->
<g id="Node000015" class="node">
<title>Node15</title>
<g id="a_Node000015"><a xlink:href="app_8c.html#a5e8ebcb374cf6f9becc37f51cd9ebc0e" target="_top" xlink:title=" ">
<polygon fill="white" stroke="#666666" points="275.25,-513.38 207.5,-513.38 207.5,-492.62 275.25,-492.62 275.25,-513.38"/>
<text text-anchor="middle" x="241.38" y="-499.88" font-family="Helvetica,sans-Serif" font-size="10.00">w2c__f500</text>
</a>
</g>
</g>
<!-- Node12&#45;&gt;Node15 -->
<g id="edge23_Node000012_Node000015" class="edge">
<title>Node12&#45;&gt;Node15</title>
<g id="a_edge23_Node000012_Node000015"><a xlink:title=" ">
<path fill="none" stroke="#63b8ff" d="M145.62,-357.72C162.46,-383.55 205.5,-449.54 227.3,-482.96"/>
<polygon fill="#63b8ff" stroke="#63b8ff" points="224.11,-484.47 232.51,-490.93 229.97,-480.65 224.11,-484.47"/>
</a>
</g>
</g>
<!-- Node37 -->
<g id="Node000037" class="node">
<title>Node37</title>
<g id="a_Node000037"><a xlink:href="app_8c.html#a1fa898c1f1731fb2a8ecdb90bf4383a7" target="_top" xlink:title=" ">
<polygon fill="white" stroke="#666666" points="275.25,-727.38 207.5,-727.38 207.5,-706.62 275.25,-706.62 275.25,-727.38"/>
<text text-anchor="middle" x="241.38" y="-713.88" font-family="Helvetica,sans-Serif" font-size="10.00">w2c__f533</text>
</a>
</g>
</g>
<!-- Node12&#45;&gt;Node37 -->
<g id="edge49_Node000012_Node000037" class="edge">
<title>Node12&#45;&gt;Node37</title>
<g id="a_edge49_Node000012_Node000037"><a xlink:title=" ">
<path fill="none" stroke="#63b8ff" d="M141.56,-357.67C155.52,-408.42 215.27,-625.7 234.43,-695.39"/>
<polygon fill="#63b8ff" stroke="#63b8ff" points="231,-696.11 237.03,-704.82 237.75,-694.25 231,-696.11"/>
</a>
</g>
</g>
<!-- Node13&#45;&gt;Node10 -->
<g id="edge18_Node000013_Node000010" class="edge">
<title>Node13&#45;&gt;Node10</title>
<g id="a_edge18_Node000013_Node000010"><a xlink:title=" ">
<path fill="none" stroke="#63b8ff" d="M247.19,-180.19C256.5,-160.65 278.93,-119.68 311.25,-100 364.75,-67.42 387.49,-76 450.12,-76 450.12,-76 450.12,-76 555.88,-76 612.25,-76 675.9,-90 717.23,-101.01"/>
<polygon fill="#63b8ff" stroke="#63b8ff" points="716.24,-104.36 726.8,-103.62 718.08,-97.61 716.24,-104.36"/>
</a>
</g>
</g>
<!-- Node14 -->
<g id="Node000014" class="node">
<title>Node14</title>
<g id="a_Node000014"><a xlink:href="app_8c.html#a5143f7bebd925f0663756f10aef87ef0" target="_top" xlink:title=" ">
<polygon fill="white" stroke="#666666" points="380.12,-201.38 312.38,-201.38 312.38,-180.62 380.12,-180.62 380.12,-201.38"/>
<text text-anchor="middle" x="346.25" y="-187.88" font-family="Helvetica,sans-Serif" font-size="10.00">w2c__f570</text>
</a>
</g>
</g>
<!-- Node13&#45;&gt;Node14 -->
<g id="edge19_Node000013_Node000014" class="edge">
<title>Node13&#45;&gt;Node14</title>
<g id="a_edge19_Node000013_Node000014"><a xlink:title=" ">
<path fill="none" stroke="#63b8ff" d="M275.49,-191C283.57,-191 292.34,-191 300.85,-191"/>
<polygon fill="#63b8ff" stroke="#63b8ff" points="300.68,-194.5 310.68,-191 300.68,-187.5 300.68,-194.5"/>
</a>
</g>
</g>
<!-- Node14&#45;&gt;Node2 -->
<g id="edge20_Node000014_Node000002" class="edge">
<title>Node14&#45;&gt;Node2</title>
<g id="a_edge20_Node000014_Node000002"><a xlink:title=" ">
<path fill="none" stroke="#63b8ff" d="M372.42,-201.81C375.9,-204.33 379.04,-207.38 381.25,-211 454.32,-330.69 347.69,-719.24 417.25,-841 417.96,-842.24 418.77,-843.43 419.66,-844.55"/>
<polygon fill="#63b8ff" stroke="#63b8ff" points="416.94,-846.8 426.62,-851.11 421.74,-841.7 416.94,-846.8"/>
</a>
</g>
</g>
<!-- Node14&#45;&gt;Node10 -->
<g id="edge21_Node000014_Node000010" class="edge">
<title>Node14&#45;&gt;Node10</title>
<g id="a_edge21_Node000014_Node000010"><a xlink:title=" ">
<path fill="none" stroke="#63b8ff" d="M380.46,-186.74C408.42,-183.02 449.42,-177.25 485,-171 567.44,-156.53 662.94,-135.98 717.35,-123.92"/>
<polygon fill="#63b8ff" stroke="#63b8ff" points="717.83,-127.4 726.84,-121.81 716.31,-120.56 717.83,-127.4"/>
</a>
</g>
</g>
<!-- Node15&#45;&gt;Node5 -->
<g id="edge36_Node000015_Node000005" class="edge">
<title>Node15&#45;&gt;Node5</title>
<g id="a_edge36_Node000015_Node000005"><a xlink:title=" ">
<path fill="none" stroke="#63b8ff" d="M244.25,-513.84C254.67,-574.13 305.34,-865.73 311.25,-873 353.34,-924.77 383.41,-930 450.12,-930 450.12,-930 450.12,-930 555.88,-930 636.72,-930 712.34,-857.99 744.76,-822.41"/>
<polygon fill="#63b8ff" stroke="#63b8ff" points="747.35,-824.76 751.38,-814.96 742.12,-820.11 747.35,-824.76"/>
</a>
</g>
</g>
<!-- Node15&#45;&gt;Node10 -->
<g id="edge42_Node000015_Node000010" class="edge">
<title>Node15&#45;&gt;Node10</title>
<g id="a_edge42_Node000015_Node000010"><a xlink:title=" ">
<path fill="none" stroke="#63b8ff" d="M242.75,-492.17C244.88,-436.62 257.45,-184.28 311.25,-133 356.35,-90.02 387.83,-114 450.12,-114 450.12,-114 450.12,-114 555.88,-114 611.36,-114 675.27,-114 716.89,-114"/>
<polygon fill="#63b8ff" stroke="#63b8ff" points="716.76,-117.5 726.76,-114 716.76,-110.5 716.76,-117.5"/>
</a>
</g>
</g>
<!-- Node16 -->
<g id="Node000016" class="node">
<title>Node16</title>
<g id="a_Node000016"><a xlink:href="app_8c.html#a4b53a7e94216ec02a12a81319e766aac" target="_top" xlink:title=" ">
<polygon fill="white" stroke="#666666" points="381.25,-357.38 311.25,-357.38 311.25,-336.62 381.25,-336.62 381.25,-357.38"/>
<text text-anchor="middle" x="346.25" y="-343.88" font-family="Helvetica,sans-Serif" font-size="10.00">w2c_0_104</text>
</a>
</g>
</g>
<!-- Node15&#45;&gt;Node16 -->
<g id="edge24_Node000015_Node000016" class="edge">
<title>Node15&#45;&gt;Node16</title>
<g id="a_edge24_Node000015_Node000016"><a xlink:title=" ">
<path fill="none" stroke="#63b8ff" d="M245.5,-492.24C253.14,-467.5 274.84,-405.78 311.25,-367 312.07,-366.13 312.94,-365.28 313.84,-364.46"/>
<polygon fill="#63b8ff" stroke="#63b8ff" points="315.59,-367.52 321.47,-358.71 311.38,-361.93 315.59,-367.52"/>
</a>
</g>
</g>
<!-- Node17 -->
<g id="Node000017" class="node">
<title>Node17</title>
<g id="a_Node000017"><a xlink:href="app_8c.html#a8b2f2dd0746d3692a6b1f5504710b489" target="_top" xlink:title=" ">
<polygon fill="white" stroke="#666666" points="381.25,-318.38 311.25,-318.38 311.25,-297.62 381.25,-297.62 381.25,-318.38"/>
<text text-anchor="middle" x="346.25" y="-304.88" font-family="Helvetica,sans-Serif" font-size="10.00">w2c_0_114</text>
</a>
</g>
</g>
<!-- Node15&#45;&gt;Node17 -->
<g id="edge25_Node000015_Node000017" class="edge">
<title>Node15&#45;&gt;Node17</title>
<g id="a_edge25_Node000015_Node000017"><a xlink:title=" ">
<path fill="none" stroke="#63b8ff" d="M244.08,-492.3C249.24,-462.89 267.14,-379.63 311.25,-328 311.91,-327.23 312.61,-326.47 313.34,-325.74"/>
<polygon fill="#63b8ff" stroke="#63b8ff" points="315.25,-328.7 320.88,-319.73 310.88,-323.23 315.25,-328.7"/>
</a>
</g>
</g>
<!-- Node18 -->
<g id="Node000018" class="node">
<title>Node18</title>
<g id="a_Node000018"><a xlink:href="app_8c.html#a7438402b7e7bf0d5c1edd80b7ba72e1f" target="_top" xlink:title=" ">
<polygon fill="white" stroke="#666666" points="381.25,-279.38 311.25,-279.38 311.25,-258.62 381.25,-258.62 381.25,-279.38"/>
<text text-anchor="middle" x="346.25" y="-265.88" font-family="Helvetica,sans-Serif" font-size="10.00">w2c_0_128</text>
</a>
</g>
</g>
<!-- Node15&#45;&gt;Node18 -->
<g id="edge26_Node000015_Node000018" class="edge">
<title>Node15&#45;&gt;Node18</title>
<g id="a_edge26_Node000015_Node000018"><a xlink:title=" ">
<path fill="none" stroke="#63b8ff" d="M243.15,-492.41C246.11,-458.95 259.29,-353.89 311.25,-289 311.78,-288.34 312.34,-287.69 312.92,-287.07"/>
<polygon fill="#63b8ff" stroke="#63b8ff" points="314.94,-289.94 320.37,-280.84 310.45,-284.57 314.94,-289.94"/>
</a>
</g>
</g>
<!-- Node19 -->
<g id="Node000019" class="node">
<title>Node19</title>
<g id="a_Node000019"><a xlink:href="app_8c.html#ae29d60093e27470c0ea7d43879d00f11" target="_top" xlink:title=" ">
<polygon fill="white" stroke="#666666" points="381.25,-240.38 311.25,-240.38 311.25,-219.62 381.25,-219.62 381.25,-240.38"/>
<text text-anchor="middle" x="346.25" y="-226.88" font-family="Helvetica,sans-Serif" font-size="10.00">w2c_0_138</text>
</a>
</g>
</g>
<!-- Node15&#45;&gt;Node19 -->
<g id="edge27_Node000015_Node000019" class="edge">
<title>Node15&#45;&gt;Node19</title>
<g id="a_edge27_Node000015_Node000019"><a xlink:title=" ">
<path fill="none" stroke="#63b8ff" d="M242.51,-492.38C243.52,-455.12 251.41,-328.31 311.25,-250 311.76,-249.33 312.31,-248.67 312.88,-248.03"/>
<polygon fill="#63b8ff" stroke="#63b8ff" points="314.91,-250.9 320.25,-241.74 310.37,-245.57 314.91,-250.9"/>
</a>
</g>
</g>
<!-- Node20 -->
<g id="Node000020" class="node">
<title>Node20</title>
<g id="a_Node000020"><a xlink:href="app_8c.html#ad9db77a2760c6bc7bc182064bb83ee19" target="_top" xlink:title=" ">
<polygon fill="white" stroke="#666666" points="381.25,-825.38 311.25,-825.38 311.25,-804.62 381.25,-804.62 381.25,-825.38"/>
<text text-anchor="middle" x="346.25" y="-811.88" font-family="Helvetica,sans-Serif" font-size="10.00">w2c_0_149</text>
</a>
</g>
</g>
<!-- Node15&#45;&gt;Node20 -->
<g id="edge28_Node000015_Node000020" class="edge">
<title>Node15&#45;&gt;Node20</title>
<g id="a_edge28_Node000015_Node000020"><a xlink:title=" ">
<path fill="none" stroke="#63b8ff" d="M243.75,-513.66C249.98,-560.54 276.71,-748.15 311.25,-795 311.75,-795.68 312.29,-796.34 312.85,-796.99"/>
<polygon fill="#63b8ff" stroke="#63b8ff" points="310.3,-799.42 320.15,-803.32 314.89,-794.13 310.3,-799.42"/>
</a>
</g>
</g>
<!-- Node21 -->
<g id="Node000021" class="node">
<title>Node21</title>
<g id="a_Node000021"><a xlink:href="app_8c.html#aa0b61cf77a1fbe587a4685c7392eb2a1" target="_top" xlink:title=" ">
<polygon fill="white" stroke="#666666" points="381.25,-786.38 311.25,-786.38 311.25,-765.62 381.25,-765.62 381.25,-786.38"/>
<text text-anchor="middle" x="346.25" y="-772.88" font-family="Helvetica,sans-Serif" font-size="10.00">w2c_0_154</text>
</a>
</g>
</g>
<!-- Node15&#45;&gt;Node21 -->
<g id="edge29_Node000015_Node000021" class="edge">
<title>Node15&#45;&gt;Node21</title>
<g id="a_edge29_Node000015_Node000021"><a xlink:title=" ">
<path fill="none" stroke="#63b8ff" d="M242.51,-513.62C243.52,-550.88 251.41,-677.69 311.25,-756 311.76,-756.67 312.31,-757.33 312.88,-757.97"/>
<polygon fill="#63b8ff" stroke="#63b8ff" points="310.37,-760.43 320.25,-764.26 314.91,-755.1 310.37,-760.43"/>
</a>
</g>
</g>
<!-- Node22 -->
<g id="Node000022" class="node">
<title>Node22</title>
<g id="a_Node000022"><a xlink:href="app_8c.html#a54e1ef3f05b3789f7a2c6d79147ffeb3" target="_top" xlink:title=" ">
<polygon fill="white" stroke="#666666" points="381.25,-747.38 311.25,-747.38 311.25,-726.62 381.25,-726.62 381.25,-747.38"/>
<text text-anchor="middle" x="346.25" y="-733.88" font-family="Helvetica,sans-Serif" font-size="10.00">w2c_0_170</text>
</a>
</g>
</g>
<!-- Node15&#45;&gt;Node22 -->
<g id="edge30_Node000015_Node000022" class="edge">
<title>Node15&#45;&gt;Node22</title>
<g id="a_edge30_Node000015_Node000022"><a xlink:title=" ">
<path fill="none" stroke="#63b8ff" d="M243.15,-513.59C246.11,-547.05 259.29,-652.11 311.25,-717 311.78,-717.66 312.34,-718.31 312.92,-718.93"/>
<polygon fill="#63b8ff" stroke="#63b8ff" points="310.45,-721.43 320.37,-725.16 314.94,-716.06 310.45,-721.43"/>
</a>
</g>
</g>
<!-- Node23 -->
<g id="Node000023" class="node">
<title>Node23</title>
<g id="a_Node000023"><a xlink:href="app_8c.html#a0164717ce31d2df5fee540951caebe62" target="_top" xlink:title=" ">
<polygon fill="white" stroke="#666666" points="381.25,-708.38 311.25,-708.38 311.25,-687.62 381.25,-687.62 381.25,-708.38"/>
<text text-anchor="middle" x="346.25" y="-694.88" font-family="Helvetica,sans-Serif" font-size="10.00">w2c_0_181</text>
</a>
</g>
</g>
<!-- Node15&#45;&gt;Node23 -->
<g id="edge31_Node000015_Node000023" class="edge">
<title>Node15&#45;&gt;Node23</title>
<g id="a_edge31_Node000015_Node000023"><a xlink:title=" ">
<path fill="none" stroke="#63b8ff" d="M244.08,-513.7C249.24,-543.11 267.14,-626.37 311.25,-678 311.91,-678.77 312.61,-679.53 313.34,-680.26"/>
<polygon fill="#63b8ff" stroke="#63b8ff" points="310.88,-682.77 320.88,-686.27 315.25,-677.3 310.88,-682.77"/>
</a>
</g>
</g>
<!-- Node24 -->
<g id="Node000024" class="node">
<title>Node24</title>
<g id="a_Node000024"><a xlink:href="app_8c.html#ab8df49a9eeba8644a99f23740b559f7e" target="_top" xlink:title=" ">
<polygon fill="white" stroke="#666666" points="378.25,-669.38 314.25,-669.38 314.25,-648.62 378.25,-648.62 378.25,-669.38"/>
<text text-anchor="middle" x="346.25" y="-655.88" font-family="Helvetica,sans-Serif" font-size="10.00">w2c_0_71</text>
</a>
</g>
</g>
<!-- Node15&#45;&gt;Node24 -->
<g id="edge32_Node000015_Node000024" class="edge">
<title>Node15&#45;&gt;Node24</title>
<g id="a_edge32_Node000015_Node000024"><a xlink:title=" ">
<path fill="none" stroke="#63b8ff" d="M245.5,-513.76C253.14,-538.5 274.84,-600.22 311.25,-639 312.07,-639.87 312.94,-640.72 313.84,-641.54"/>
<polygon fill="#63b8ff" stroke="#63b8ff" points="311.38,-644.07 321.47,-647.29 315.59,-638.48 311.38,-644.07"/>
</a>
</g>
</g>
<!-- Node25 -->
<g id="Node000025" class="node">
<title>Node25</title>
<g id="a_Node000025"><a xlink:href="app_8c.html#ab924d394d868075ccc7ea86f15195135" target="_top" xlink:title=" ">
<polygon fill="white" stroke="#666666" points="375.25,-591.38 317.25,-591.38 317.25,-570.62 375.25,-570.62 375.25,-591.38"/>
<text text-anchor="middle" x="346.25" y="-577.88" font-family="Helvetica,sans-Serif" font-size="10.00">w2c_0_8</text>
</a>
</g>
</g>
<!-- Node15&#45;&gt;Node25 -->
<g id="edge33_Node000015_Node000025" class="edge">
<title>Node15&#45;&gt;Node25</title>
<g id="a_edge33_Node000015_Node000025"><a xlink:title=" ">
<path fill="none" stroke="#63b8ff" d="M253.6,-513.47C266.85,-525.59 289.81,-545.83 311.25,-561 312.79,-562.09 314.39,-563.17 316.02,-564.24"/>
<polygon fill="#63b8ff" stroke="#63b8ff" points="313.85,-567.02 324.19,-569.33 317.55,-561.07 313.85,-567.02"/>
</a>
</g>
</g>
<!-- Node26 -->
<g id="Node000026" class="node">
<title>Node26</title>
<g id="a_Node000026"><a xlink:href="app_8c.html#a48ecc1104e7460873bafe7d1b275e34e" target="_top" xlink:title=" ">
<polygon fill="white" stroke="#666666" points="378.25,-552.38 314.25,-552.38 314.25,-531.62 378.25,-531.62 378.25,-552.38"/>
<text text-anchor="middle" x="346.25" y="-538.88" font-family="Helvetica,sans-Serif" font-size="10.00">w2c_0_87</text>
</a>
</g>
</g>
<!-- Node15&#45;&gt;Node26 -->
<g id="edge34_Node000015_Node000026" class="edge">
<title>Node15&#45;&gt;Node26</title>
<g id="a_edge34_Node000015_Node000026"><a xlink:title=" ">
<path fill="none" stroke="#63b8ff" d="M271.03,-513.86C281.96,-518.01 294.6,-522.8 306.32,-527.24"/>
<polygon fill="#63b8ff" stroke="#63b8ff" points="304.74,-530.39 315.33,-530.66 307.22,-523.84 304.74,-530.39"/>
</a>
</g>
</g>
<!-- Node27 -->
<g id="Node000027" class="node">
<title>Node27</title>
<g id="a_Node000027"><a xlink:href="app_8c.html#a89669d859b497acd4d687ede771c8589" target="_top" xlink:title=" ">
<polygon fill="white" stroke="#666666" points="378.25,-513.38 314.25,-513.38 314.25,-492.62 378.25,-492.62 378.25,-513.38"/>
<text text-anchor="middle" x="346.25" y="-499.88" font-family="Helvetica,sans-Serif" font-size="10.00">w2c_0_96</text>
</a>
</g>
</g>
<!-- Node15&#45;&gt;Node27 -->
<g id="edge35_Node000015_Node000027" class="edge">
<title>Node15&#45;&gt;Node27</title>
<g id="a_edge35_Node000015_Node000027"><a xlink:title=" ">
<path fill="none" stroke="#63b8ff" d="M275.49,-503C284.16,-503 293.64,-503 302.73,-503"/>
<polygon fill="#63b8ff" stroke="#63b8ff" points="302.43,-506.5 312.43,-503 302.43,-499.5 302.43,-506.5"/>
</a>
</g>
</g>
<!-- Node28 -->
<g id="Node000028" class="node">
<title>Node28</title>
<g id="a_Node000028"><a xlink:href="app_8c.html#a34d18545510c7604d64db5651af2a253" target="_top" xlink:title=" ">
<polygon fill="white" stroke="#666666" points="380.12,-474.38 312.38,-474.38 312.38,-453.62 380.12,-453.62 380.12,-474.38"/>
<text text-anchor="middle" x="346.25" y="-460.88" font-family="Helvetica,sans-Serif" font-size="10.00">w2c__f332</text>
</a>
</g>
</g>
<!-- Node15&#45;&gt;Node28 -->
<g id="edge37_Node000015_Node000028" class="edge">
<title>Node15&#45;&gt;Node28</title>
<g id="a_edge37_Node000015_Node000028"><a xlink:title=" ">
<path fill="none" stroke="#63b8ff" d="M271.03,-492.14C281.96,-487.99 294.6,-483.2 306.32,-478.76"/>
<polygon fill="#63b8ff" stroke="#63b8ff" points="307.22,-482.16 315.33,-475.34 304.74,-475.61 307.22,-482.16"/>
</a>
</g>
</g>
<!-- Node29 -->
<g id="Node000029" class="node">
<title>Node29</title>
<g id="a_Node000029"><a xlink:href="app_8c.html#aa583f182f69261eb6417ee28acf1bedb" target="_top" xlink:title=" ">
<polygon fill="white" stroke="#666666" points="380.12,-435.38 312.38,-435.38 312.38,-414.62 380.12,-414.62 380.12,-435.38"/>
<text text-anchor="middle" x="346.25" y="-421.88" font-family="Helvetica,sans-Serif" font-size="10.00">w2c__f416</text>
</a>
</g>
</g>
<!-- Node15&#45;&gt;Node29 -->
<g id="edge38_Node000015_Node000029" class="edge">
<title>Node15&#45;&gt;Node29</title>
<g id="a_edge38_Node000015_Node000029"><a xlink:title=" ">
<path fill="none" stroke="#63b8ff" d="M253.6,-492.53C266.85,-480.41 289.81,-460.17 311.25,-445 312.79,-443.91 314.39,-442.83 316.02,-441.76"/>
<polygon fill="#63b8ff" stroke="#63b8ff" points="317.55,-444.93 324.19,-436.67 313.85,-438.98 317.55,-444.93"/>
</a>
</g>
</g>
<!-- Node30 -->
<g id="Node000030" class="node">
<title>Node30</title>
<g id="a_Node000030"><a xlink:href="app_8c.html#af732b1ecf09ff688adde158c29714bcd" target="_top" xlink:title=" ">
<polygon fill="white" stroke="#666666" points="380.12,-396.38 312.38,-396.38 312.38,-375.62 380.12,-375.62 380.12,-396.38"/>
<text text-anchor="middle" x="346.25" y="-382.88" font-family="Helvetica,sans-Serif" font-size="10.00">w2c__f436</text>
</a>
</g>
</g>
<!-- Node15&#45;&gt;Node30 -->
<g id="edge39_Node000015_Node000030" class="edge">
<title>Node15&#45;&gt;Node30</title>
<g id="a_edge39_Node000015_Node000030"><a xlink:title=" ">
<path fill="none" stroke="#63b8ff" d="M247.98,-492.27C258.4,-473.11 282.34,-432.53 311.25,-406 312.3,-405.04 313.4,-404.1 314.55,-403.18"/>
<polygon fill="#63b8ff" stroke="#63b8ff" points="316.34,-406.2 322.55,-397.62 312.34,-400.46 316.34,-406.2"/>
</a>
</g>
</g>
<!-- Node31 -->
<g id="Node000031" class="node">
<title>Node31</title>
<g id="a_Node000031"><a xlink:href="app_8c.html#a990f8a9d4528c9216baea17b3c64a813" target="_top" xlink:title=" ">
<polygon fill="white" stroke="#666666" points="380.12,-162.38 312.38,-162.38 312.38,-141.62 380.12,-141.62 380.12,-162.38"/>
<text text-anchor="middle" x="346.25" y="-148.88" font-family="Helvetica,sans-Serif" font-size="10.00">w2c__f485</text>
</a>
</g>
</g>
<!-- Node15&#45;&gt;Node31 -->
<g id="edge40_Node000015_Node000031" class="edge">
<title>Node15&#45;&gt;Node31</title>
<g id="a_edge40_Node000015_Node000031"><a xlink:title=" ">
<path fill="none" stroke="#63b8ff" d="M243.43,-492.31C248.62,-441.64 272.68,-225.78 311.25,-172 311.65,-171.44 312.07,-170.9 312.51,-170.37"/>
<polygon fill="#63b8ff" stroke="#63b8ff" points="314.64,-173.16 319.75,-163.88 309.97,-167.95 314.64,-173.16"/>
</a>
</g>
</g>
<!-- Node33 -->
<g id="Node000033" class="node">
<title>Node33</title>
<g id="a_Node000033"><a xlink:href="app_8c.html#a6ed4d3a30c137f002c0294253d206acb" target="_top" xlink:title=" ">
<polygon fill="white" stroke="#666666" points="380.12,-630.38 312.38,-630.38 312.38,-609.62 380.12,-609.62 380.12,-630.38"/>
<text text-anchor="middle" x="346.25" y="-616.88" font-family="Helvetica,sans-Serif" font-size="10.00">w2c__f504</text>
</a>
</g>
</g>
<!-- Node15&#45;&gt;Node33 -->
<g id="edge43_Node000015_Node000033" class="edge">
<title>Node15&#45;&gt;Node33</title>
<g id="a_edge43_Node000015_Node000033"><a xlink:title=" ">
<path fill="none" stroke="#63b8ff" d="M247.98,-513.73C258.4,-532.89 282.34,-573.47 311.25,-600 312.3,-600.96 313.4,-601.9 314.55,-602.82"/>
<polygon fill="#63b8ff" stroke="#63b8ff" points="312.34,-605.54 322.55,-608.38 316.34,-599.8 312.34,-605.54"/>
</a>
</g>
</g>
<!-- Node35 -->
<g id="Node000035" class="node">
<title>Node35</title>
<g id="a_Node000035"><a xlink:href="app_8c.html#a0d2b9d1e465bd8169ebd6cf08afb1f69" target="_top" xlink:title=" ">
<polygon fill="white" stroke="#666666" points="380.12,-864.38 312.38,-864.38 312.38,-843.62 380.12,-843.62 380.12,-864.38"/>
<text text-anchor="middle" x="346.25" y="-850.88" font-family="Helvetica,sans-Serif" font-size="10.00">w2c__f551</text>
</a>
</g>
</g>
<!-- Node15&#45;&gt;Node35 -->
<g id="edge46_Node000015_Node000035" class="edge">
<title>Node15&#45;&gt;Node35</title>
<g id="a_edge46_Node000015_Node000035"><a xlink:title=" ">
<path fill="none" stroke="#63b8ff" d="M244.08,-513.74C252.7,-567.61 291.84,-806.93 311.25,-834 311.65,-834.56 312.07,-835.1 312.51,-835.63"/>
<polygon fill="#63b8ff" stroke="#63b8ff" points="309.97,-838.05 319.75,-842.12 314.64,-832.84 309.97,-838.05"/>
</a>
</g>
</g>
<!-- Node32 -->
<g id="Node000032" class="node">
<title>Node32</title>
<g id="a_Node000032"><a xlink:href="app_8c.html#a5d082dff6c4c25de25da9f4dc538c097" target="_top" xlink:title=" ">
<polygon fill="white" stroke="#666666" points="485,-162.38 417.25,-162.38 417.25,-141.62 485,-141.62 485,-162.38"/>
<text text-anchor="middle" x="451.12" y="-148.88" font-family="Helvetica,sans-Serif" font-size="10.00">w2c__f265</text>
</a>
</g>
</g>
<!-- Node31&#45;&gt;Node32 -->
<g id="edge41_Node000031_Node000032" class="edge">
<title>Node31&#45;&gt;Node32</title>
<g id="a_edge41_Node000031_Node000032"><a xlink:title=" ">
<path fill="none" stroke="#63b8ff" d="M380.37,-152C388.44,-152 397.21,-152 405.72,-152"/>
<polygon fill="#63b8ff" stroke="#63b8ff" points="405.56,-155.5 415.56,-152 405.56,-148.5 405.56,-155.5"/>
</a>
</g>
</g>
<!-- Node33&#45;&gt;Node11 -->
<g id="edge44_Node000033_Node000011" class="edge">
<title>Node33&#45;&gt;Node11</title>
<g id="a_edge44_Node000033_Node000011"><a xlink:title=" ">
<path fill="none" stroke="#63b8ff" d="M380.3,-629.26C391.95,-632.44 405.16,-635.97 417.25,-639 524.39,-665.83 651.19,-694.03 716.89,-708.38"/>
<polygon fill="#63b8ff" stroke="#63b8ff" points="716.06,-711.78 726.57,-710.49 717.55,-704.94 716.06,-711.78"/>
</a>
</g>
</g>
<!-- Node34 -->
<g id="Node000034" class="node">
<title>Node34</title>
<g id="a_Node000034"><a xlink:href="app_8c.html#a1b33810b824b3b37999b55db2c1fb45d" target="_top" xlink:title=" ">
<polygon fill="white" stroke="#666666" points="485,-630.38 417.25,-630.38 417.25,-609.62 485,-609.62 485,-630.38"/>
<text text-anchor="middle" x="451.12" y="-616.88" font-family="Helvetica,sans-Serif" font-size="10.00">w2c__f555</text>
</a>
</g>
</g>
<!-- Node33&#45;&gt;Node34 -->
<g id="edge45_Node000033_Node000034" class="edge">
<title>Node33&#45;&gt;Node34</title>
<g id="a_edge45_Node000033_Node000034"><a xlink:title=" ">
<path fill="none" stroke="#63b8ff" d="M380.37,-620C388.44,-620 397.21,-620 405.72,-620"/>
<polygon fill="#63b8ff" stroke="#63b8ff" points="405.56,-623.5 415.56,-620 405.56,-616.5 405.56,-623.5"/>
</a>
</g>
</g>
<!-- Node36 -->
<g id="Node000036" class="node">
<title>Node36</title>
<g id="a_Node000036"><a xlink:href="app_8c.html#a70885389166a2cbcb9e78af289ffa12e" target="_top" xlink:title=" ">
<polygon fill="white" stroke="#666666" points="485,-832.38 417.25,-832.38 417.25,-811.62 485,-811.62 485,-832.38"/>
<text text-anchor="middle" x="451.12" y="-818.88" font-family="Helvetica,sans-Serif" font-size="10.00">w2c__f577</text>
</a>
</g>
</g>
<!-- Node35&#45;&gt;Node36 -->
<g id="edge47_Node000035_Node000036" class="edge">
<title>Node35&#45;&gt;Node36</title>
<g id="a_edge47_Node000035_Node000036"><a xlink:title=" ">
<path fill="none" stroke="#63b8ff" d="M380.37,-843.7C388.63,-841.13 397.61,-838.33 406.3,-835.63"/>
<polygon fill="#63b8ff" stroke="#63b8ff" points="407.12,-839.04 415.63,-832.73 405.04,-832.36 407.12,-839.04"/>
</a>
</g>
</g>
<!-- Node36&#45;&gt;Node3 -->
<g id="edge48_Node000036_Node000003" class="edge">
<title>Node36&#45;&gt;Node3</title>
<g id="a_edge48_Node000036_Node000003"><a xlink:title=" ">
<path fill="none" stroke="#63b8ff" d="M485.44,-817.09C493.16,-815.95 501.5,-814.72 509.61,-813.53"/>
<polygon fill="#63b8ff" stroke="#63b8ff" points="509.95,-817.01 519.33,-812.09 508.93,-810.09 509.95,-817.01"/>
</a>
</g>
</g>
<!-- Node37&#45;&gt;Node2 -->
<g id="edge50_Node000037_Node000002" class="edge">
<title>Node37&#45;&gt;Node2</title>
<g id="a_edge50_Node000037_Node000002"><a xlink:title=" ">
<path fill="none" stroke="#63b8ff" d="M243.29,-727.85C246.43,-757.41 259.66,-839.38 311.25,-873 341.15,-892.48 382.75,-886.17 412.61,-877.33"/>
<polygon fill="#63b8ff" stroke="#63b8ff" points="413.54,-880.71 421.99,-874.33 411.4,-874.04 413.54,-880.71"/>
</a>
</g>
</g>
</g>
</svg>
