<?xml version="1.0" encoding="UTF-8" standalone="no"?>
<!DOCTYPE svg PUBLIC "-//W3C//DTD SVG 1.1//EN"
 "http://www.w3.org/Graphics/SVG/1.1/DTD/svg11.dtd">
<!-- Generated by graphviz version 12.2.1 (0)
 -->
<!-- Title: w2c__f557 Pages: 1 -->
<svg width="387pt" height="183pt"
 viewBox="0.00 0.00 387.00 182.75" xmlns="http://www.w3.org/2000/svg" xmlns:xlink="http://www.w3.org/1999/xlink">
<g id="graph0" class="graph" transform="scale(1 1) rotate(0) translate(4 178.75)">
<title>w2c__f557</title>
<!-- Node1 -->
<g id="Node000001" class="node">
<title>Node1</title>
<g id="a_Node000001"><a xlink:title=" ">
<polygon fill="#999999" stroke="#666666" points="67.75,-115.75 0,-115.75 0,-95 67.75,-95 67.75,-115.75"/>
<text text-anchor="middle" x="33.88" y="-102.25" font-family="Helvetica,sans-Serif" font-size="10.00">w2c__f557</text>
</a>
</g>
</g>
<!-- Node2 -->
<g id="Node000002" class="node">
<title>Node2</title>
<g id="a_Node000002"><a xlink:href="app_8c.html#a0f7003812eaf983535ff7979fc047a21" target="_top" xlink:title=" ">
<polygon fill="white" stroke="#666666" points="171.5,-135.75 103.75,-135.75 103.75,-115 171.5,-115 171.5,-135.75"/>
<text text-anchor="middle" x="137.62" y="-122.25" font-family="Helvetica,sans-Serif" font-size="10.00">w2c__f353</text>
</a>
</g>
</g>
<!-- Node1&#45;&gt;Node2 -->
<g id="edge1_Node000001_Node000002" class="edge">
<title>Node1&#45;&gt;Node2</title>
<g id="a_edge1_Node000001_Node000002"><a xlink:title=" ">
<path fill="none" stroke="#63b8ff" d="M68.19,-111.92C75.91,-113.44 84.25,-115.08 92.36,-116.67"/>
<polygon fill="#63b8ff" stroke="#63b8ff" points="91.61,-120.09 102.1,-118.59 92.96,-113.22 91.61,-120.09"/>
</a>
</g>
</g>
<!-- Node7 -->
<g id="Node000007" class="node">
<title>Node7</title>
<g id="a_Node000007"><a xlink:href="app_8c.html#ac9cc84763a9c1933e50eedd7a06c17e2" target="_top" xlink:title=" ">
<polygon fill="white" stroke="#666666" points="171.5,-96.75 103.75,-96.75 103.75,-76 171.5,-76 171.5,-96.75"/>
<text text-anchor="middle" x="137.62" y="-83.25" font-family="Helvetica,sans-Serif" font-size="10.00">w2c__f480</text>
</a>
</g>
</g>
<!-- Node1&#45;&gt;Node7 -->
<g id="edge7_Node000001_Node000007" class="edge">
<title>Node1&#45;&gt;Node7</title>
<g id="a_edge7_Node000001_Node000007"><a xlink:title=" ">
<path fill="none" stroke="#63b8ff" d="M68.19,-99.15C75.91,-97.71 84.25,-96.16 92.36,-94.64"/>
<polygon fill="#63b8ff" stroke="#63b8ff" points="92.91,-98.1 102.09,-92.82 91.62,-91.22 92.91,-98.1"/>
</a>
</g>
</g>
<!-- Node3 -->
<g id="Node000003" class="node">
<title>Node3</title>
<g id="a_Node000003"><a xlink:href="app_8c.html#aaca5d5bcf49f2ca74019cf097750b9f3" target="_top" xlink:title=" ">
<polygon fill="white" stroke="#666666" points="275.25,-174.75 207.5,-174.75 207.5,-154 275.25,-154 275.25,-174.75"/>
<text text-anchor="middle" x="241.38" y="-161.25" font-family="Helvetica,sans-Serif" font-size="10.00">w2c__f258</text>
</a>
</g>
</g>
<!-- Node2&#45;&gt;Node3 -->
<g id="edge2_Node000002_Node000003" class="edge">
<title>Node2&#45;&gt;Node3</title>
<g id="a_edge2_Node000002_Node000003"><a xlink:title=" ">
<path fill="none" stroke="#63b8ff" d="M166.97,-136.24C177.66,-140.34 190.02,-145.08 201.51,-149.48"/>
<polygon fill="#63b8ff" stroke="#63b8ff" points="200.18,-152.72 210.77,-153.03 202.69,-146.18 200.18,-152.72"/>
</a>
</g>
</g>
<!-- Node6 -->
<g id="Node000006" class="node">
<title>Node6</title>
<g id="a_Node000006"><a xlink:href="app_8c.html#a4634342addbde677893ffcb45cf639dd" target="_top" xlink:title=" ">
<polygon fill="white" stroke="#666666" points="275.25,-135.75 207.5,-135.75 207.5,-115 275.25,-115 275.25,-135.75"/>
<text text-anchor="middle" x="241.38" y="-122.25" font-family="Helvetica,sans-Serif" font-size="10.00">w2c__f302</text>
</a>
</g>
</g>
<!-- Node2&#45;&gt;Node6 -->
<g id="edge5_Node000002_Node000006" class="edge">
<title>Node2&#45;&gt;Node6</title>
<g id="a_edge5_Node000002_Node000006"><a xlink:title=" ">
<path fill="none" stroke="#63b8ff" d="M171.94,-125.38C179.57,-125.38 187.81,-125.38 195.83,-125.38"/>
<polygon fill="#63b8ff" stroke="#63b8ff" points="195.82,-128.88 205.82,-125.38 195.82,-121.88 195.82,-128.88"/>
</a>
</g>
</g>
<!-- Node4 -->
<g id="Node000004" class="node">
<title>Node4</title>
<g id="a_Node000004"><a xlink:href="app_8c.html#a8d9f347f9a643f0ebfb53c4f54578ac4" target="_top" xlink:title=" ">
<polygon fill="white" stroke="#666666" points="379,-116.75 311.25,-116.75 311.25,-96 379,-96 379,-116.75"/>
<text text-anchor="middle" x="345.12" y="-103.25" font-family="Helvetica,sans-Serif" font-size="10.00">w2c__f304</text>
</a>
</g>
</g>
<!-- Node3&#45;&gt;Node4 -->
<g id="edge3_Node000003_Node000004" class="edge">
<title>Node3&#45;&gt;Node4</title>
<g id="a_edge3_Node000003_Node000004"><a xlink:title=" ">
<path fill="none" stroke="#63b8ff" d="M261.04,-153.74C276.29,-145.04 298.1,-132.61 315.55,-122.66"/>
<polygon fill="#63b8ff" stroke="#63b8ff" points="316.97,-125.88 323.92,-117.89 313.5,-119.8 316.97,-125.88"/>
</a>
</g>
</g>
<!-- Node5 -->
<g id="Node000005" class="node">
<title>Node5</title>
<g id="a_Node000005"><a xlink:href="app_8c.html#a881f0b113e93dce3ff52d04b435850f6" target="_top" xlink:title=" ">
<polygon fill="white" stroke="#666666" points="379,-174.75 311.25,-174.75 311.25,-154 379,-154 379,-174.75"/>
<text text-anchor="middle" x="345.12" y="-161.25" font-family="Helvetica,sans-Serif" font-size="10.00">w2c__f491</text>
</a>
</g>
</g>
<!-- Node3&#45;&gt;Node5 -->
<g id="edge4_Node000003_Node000005" class="edge">
<title>Node3&#45;&gt;Node5</title>
<g id="a_edge4_Node000003_Node000005"><a xlink:title=" ">
<path fill="none" stroke="#63b8ff" d="M275.69,-164.38C283.32,-164.38 291.56,-164.38 299.58,-164.38"/>
<polygon fill="#63b8ff" stroke="#63b8ff" points="299.57,-167.88 309.57,-164.38 299.57,-160.88 299.57,-167.88"/>
</a>
</g>
</g>
<!-- Node6&#45;&gt;Node4 -->
<g id="edge6_Node000006_Node000004" class="edge">
<title>Node6&#45;&gt;Node4</title>
<g id="a_edge6_Node000006_Node000004"><a xlink:title=" ">
<path fill="none" stroke="#63b8ff" d="M275.69,-119.15C283.41,-117.71 291.75,-116.16 299.86,-114.64"/>
<polygon fill="#63b8ff" stroke="#63b8ff" points="300.41,-118.1 309.59,-112.82 299.12,-111.22 300.41,-118.1"/>
</a>
</g>
</g>
<!-- Node7&#45;&gt;Node3 -->
<g id="edge10_Node000007_Node000003" class="edge">
<title>Node7&#45;&gt;Node3</title>
<g id="a_edge10_Node000007_Node000003"><a xlink:title=" ">
<path fill="none" stroke="#63b8ff" d="M158.32,-97.19C162.81,-99.96 167.45,-103.1 171.5,-106.38 189.6,-120.99 189.4,-129.76 207.5,-144.38 208.77,-145.4 210.09,-146.41 211.45,-147.4"/>
<polygon fill="#63b8ff" stroke="#63b8ff" points="209.16,-150.08 219.42,-152.72 213.05,-144.26 209.16,-150.08"/>
</a>
</g>
</g>
<!-- Node7&#45;&gt;Node4 -->
<g id="edge12_Node000007_Node000004" class="edge">
<title>Node7&#45;&gt;Node4</title>
<g id="a_edge12_Node000007_Node000004"><a xlink:title=" ">
<path fill="none" stroke="#63b8ff" d="M168.61,-75.5C196.57,-66.94 239.24,-57.89 275.25,-67.38 291.61,-71.68 308.16,-80.87 320.93,-89.24"/>
<polygon fill="#63b8ff" stroke="#63b8ff" points="318.82,-92.04 329.05,-94.81 322.79,-86.27 318.82,-92.04"/>
</a>
</g>
</g>
<!-- Node7&#45;&gt;Node6 -->
<g id="edge11_Node000007_Node000006" class="edge">
<title>Node7&#45;&gt;Node6</title>
<g id="a_edge11_Node000007_Node000006"><a xlink:title=" ">
<path fill="none" stroke="#63b8ff" d="M166.97,-97.24C177.66,-101.34 190.02,-106.08 201.51,-110.48"/>
<polygon fill="#63b8ff" stroke="#63b8ff" points="200.18,-113.72 210.77,-114.03 202.69,-107.18 200.18,-113.72"/>
</a>
</g>
</g>
<!-- Node8 -->
<g id="Node000008" class="node">
<title>Node8</title>
<g id="a_Node000008"><a xlink:href="app_8c.html#a0378208e0d5c0d1d6e7370f1c578fab3" target="_top" xlink:title=" ">
<polygon fill="white" stroke="#666666" points="275.25,-96.75 207.5,-96.75 207.5,-76 275.25,-76 275.25,-96.75"/>
<text text-anchor="middle" x="241.38" y="-83.25" font-family="Helvetica,sans-Serif" font-size="10.00">w2c__f216</text>
</a>
</g>
</g>
<!-- Node7&#45;&gt;Node8 -->
<g id="edge8_Node000007_Node000008" class="edge">
<title>Node7&#45;&gt;Node8</title>
<g id="a_edge8_Node000007_Node000008"><a xlink:title=" ">
<path fill="none" stroke="#63b8ff" d="M171.94,-86.38C179.57,-86.38 187.81,-86.38 195.83,-86.38"/>
<polygon fill="#63b8ff" stroke="#63b8ff" points="195.82,-89.88 205.82,-86.38 195.82,-82.88 195.82,-89.88"/>
</a>
</g>
</g>
<!-- Node9 -->
<g id="Node000009" class="node">
<title>Node9</title>
<g id="a_Node000009"><a xlink:href="app_8c.html#a674f6e81761467d0a8dc6d2a425eda9f" target="_top" xlink:title=" ">
<polygon fill="white" stroke="#666666" points="275.25,-20.75 207.5,-20.75 207.5,0 275.25,0 275.25,-20.75"/>
<text text-anchor="middle" x="241.38" y="-7.25" font-family="Helvetica,sans-Serif" font-size="10.00">w2c__f498</text>
</a>
</g>
</g>
<!-- Node7&#45;&gt;Node9 -->
<g id="edge13_Node000007_Node000009" class="edge">
<title>Node7&#45;&gt;Node9</title>
<g id="a_edge13_Node000007_Node000009"><a xlink:title=" ">
<path fill="none" stroke="#63b8ff" d="M152.82,-75.55C166.71,-64.99 188.49,-48.49 207.5,-34.38 210.36,-32.25 213.36,-30.04 216.35,-27.85"/>
<polygon fill="#63b8ff" stroke="#63b8ff" points="218.38,-30.7 224.39,-21.97 214.25,-25.05 218.38,-30.7"/>
</a>
</g>
</g>
<!-- Node8&#45;&gt;Node4 -->
<g id="edge9_Node000008_Node000004" class="edge">
<title>Node8&#45;&gt;Node4</title>
<g id="a_edge9_Node000008_Node000004"><a xlink:title=" ">
<path fill="none" stroke="#63b8ff" d="M275.69,-92.92C283.41,-94.44 291.75,-96.08 299.86,-97.67"/>
<polygon fill="#63b8ff" stroke="#63b8ff" points="299.11,-101.09 309.6,-99.59 300.46,-94.22 299.11,-101.09"/>
</a>
</g>
</g>
</g>
</svg>
