<?xml version="1.0" encoding="UTF-8" standalone="no"?>
<!DOCTYPE svg PUBLIC "-//W3C//DTD SVG 1.1//EN"
 "http://www.w3.org/Graphics/SVG/1.1/DTD/svg11.dtd">
<!-- Generated by graphviz version 12.2.1 (0)
 -->
<!-- Title: w2c__f306 Pages: 1 -->
<svg width="283pt" height="223pt"
 viewBox="0.00 0.00 283.25 222.75" xmlns="http://www.w3.org/2000/svg" xmlns:xlink="http://www.w3.org/1999/xlink">
<g id="graph0" class="graph" transform="scale(1 1) rotate(0) translate(4 218.75)">
<title>w2c__f306</title>
<!-- Node1 -->
<g id="Node000001" class="node">
<title>Node1</title>
<g id="a_Node000001"><a xlink:title=" ">
<polygon fill="#999999" stroke="#666666" points="67.75,-116.75 0,-116.75 0,-96 67.75,-96 67.75,-116.75"/>
<text text-anchor="middle" x="33.88" y="-103.25" font-family="Helvetica,sans-Serif" font-size="10.00">w2c__f306</text>
</a>
</g>
</g>
<!-- Node2 -->
<g id="Node000002" class="node">
<title>Node2</title>
<g id="a_Node000002"><a xlink:href="app_8c.html#a03fa34d93d32a3ee40dfc2d840730111" target="_top" xlink:title=" ">
<polygon fill="white" stroke="#666666" points="171.5,-175.75 103.75,-175.75 103.75,-155 171.5,-155 171.5,-175.75"/>
<text text-anchor="middle" x="137.62" y="-162.25" font-family="Helvetica,sans-Serif" font-size="10.00">w2c__f262</text>
</a>
</g>
</g>
<!-- Node1&#45;&gt;Node2 -->
<g id="edge1_Node000001_Node000002" class="edge">
<title>Node1&#45;&gt;Node2</title>
<g id="a_edge1_Node000001_Node000002"><a xlink:title=" ">
<path fill="none" stroke="#63b8ff" d="M53.54,-117.2C68.88,-126.1 90.88,-138.85 108.38,-149"/>
<polygon fill="#63b8ff" stroke="#63b8ff" points="106.36,-151.87 116.77,-153.86 109.88,-145.82 106.36,-151.87"/>
</a>
</g>
</g>
<!-- Node5 -->
<g id="Node000005" class="node">
<title>Node5</title>
<g id="a_Node000005"><a xlink:href="app_8c.html#a1e95e578fbe89a9807a67fd3ba78795f" target="_top" xlink:title=" ">
<polygon fill="white" stroke="#666666" points="171.5,-214.75 103.75,-214.75 103.75,-194 171.5,-194 171.5,-214.75"/>
<text text-anchor="middle" x="137.62" y="-201.25" font-family="Helvetica,sans-Serif" font-size="10.00">w2c__f382</text>
</a>
</g>
</g>
<!-- Node1&#45;&gt;Node5 -->
<g id="edge4_Node000001_Node000005" class="edge">
<title>Node1&#45;&gt;Node5</title>
<g id="a_edge4_Node000001_Node000005"><a xlink:title=" ">
<path fill="none" stroke="#63b8ff" d="M42.69,-117.13C54.63,-133.08 78.68,-163.39 103.75,-184.38 105,-185.42 106.31,-186.45 107.65,-187.45"/>
<polygon fill="#63b8ff" stroke="#63b8ff" points="105.34,-190.11 115.59,-192.82 109.26,-184.32 105.34,-190.11"/>
</a>
</g>
</g>
<!-- Node7 -->
<g id="Node000007" class="node">
<title>Node7</title>
<g id="a_Node000007"><a xlink:href="app_8c.html#af732b1ecf09ff688adde158c29714bcd" target="_top" xlink:title=" ">
<polygon fill="white" stroke="#666666" points="171.5,-136.75 103.75,-136.75 103.75,-116 171.5,-116 171.5,-136.75"/>
<text text-anchor="middle" x="137.62" y="-123.25" font-family="Helvetica,sans-Serif" font-size="10.00">w2c__f436</text>
</a>
</g>
</g>
<!-- Node1&#45;&gt;Node7 -->
<g id="edge6_Node000001_Node000007" class="edge">
<title>Node1&#45;&gt;Node7</title>
<g id="a_edge6_Node000001_Node000007"><a xlink:title=" ">
<path fill="none" stroke="#63b8ff" d="M68.19,-112.92C75.91,-114.44 84.25,-116.08 92.36,-117.67"/>
<polygon fill="#63b8ff" stroke="#63b8ff" points="91.61,-121.09 102.1,-119.59 92.96,-114.22 91.61,-121.09"/>
</a>
</g>
</g>
<!-- Node8 -->
<g id="Node000008" class="node">
<title>Node8</title>
<g id="a_Node000008"><a xlink:href="app_8c.html#a800df00ef236c6d6affc3c661b37e3ad" target="_top" xlink:title=" ">
<polygon fill="white" stroke="#666666" points="171.5,-97.75 103.75,-97.75 103.75,-77 171.5,-77 171.5,-97.75"/>
<text text-anchor="middle" x="137.62" y="-84.25" font-family="Helvetica,sans-Serif" font-size="10.00">w2c__f487</text>
</a>
</g>
</g>
<!-- Node1&#45;&gt;Node8 -->
<g id="edge7_Node000001_Node000008" class="edge">
<title>Node1&#45;&gt;Node8</title>
<g id="a_edge7_Node000001_Node000008"><a xlink:title=" ">
<path fill="none" stroke="#63b8ff" d="M68.19,-100.15C75.91,-98.71 84.25,-97.16 92.36,-95.64"/>
<polygon fill="#63b8ff" stroke="#63b8ff" points="92.91,-99.1 102.09,-93.82 91.62,-92.22 92.91,-99.1"/>
</a>
</g>
</g>
<!-- Node9 -->
<g id="Node000009" class="node">
<title>Node9</title>
<g id="a_Node000009"><a xlink:href="app_8c.html#a6ed4d3a30c137f002c0294253d206acb" target="_top" xlink:title=" ">
<polygon fill="white" stroke="#666666" points="171.5,-21.75 103.75,-21.75 103.75,-1 171.5,-1 171.5,-21.75"/>
<text text-anchor="middle" x="137.62" y="-8.25" font-family="Helvetica,sans-Serif" font-size="10.00">w2c__f504</text>
</a>
</g>
</g>
<!-- Node1&#45;&gt;Node9 -->
<g id="edge9_Node000001_Node000009" class="edge">
<title>Node1&#45;&gt;Node9</title>
<g id="a_edge9_Node000001_Node000009"><a xlink:title=" ">
<path fill="none" stroke="#63b8ff" d="M44.17,-95.72C56.94,-81.33 80.94,-55.2 103.75,-35.38 106.25,-33.2 108.94,-31.02 111.66,-28.91"/>
<polygon fill="#63b8ff" stroke="#63b8ff" points="113.67,-31.77 119.61,-22.99 109.5,-26.15 113.67,-31.77"/>
</a>
</g>
</g>
<!-- Node10 -->
<g id="Node000010" class="node">
<title>Node10</title>
<g id="a_Node000010"><a xlink:href="app_8c.html#a0e0dad0ebc52e45eeff2e1b5d8389ea4" target="_top" xlink:title=" ">
<polygon fill="white" stroke="#666666" points="275.25,-59.75 207.5,-59.75 207.5,-39 275.25,-39 275.25,-59.75"/>
<text text-anchor="middle" x="241.38" y="-46.25" font-family="Helvetica,sans-Serif" font-size="10.00">w2c__f534</text>
</a>
</g>
</g>
<!-- Node1&#45;&gt;Node10 -->
<g id="edge12_Node000001_Node000010" class="edge">
<title>Node1&#45;&gt;Node10</title>
<g id="a_edge12_Node000001_Node000010"><a xlink:title=" ">
<path fill="none" stroke="#63b8ff" d="M50.52,-95.55C64.01,-86.78 84.31,-74.84 103.75,-68.38 133.57,-58.45 168.73,-53.71 195.91,-51.44"/>
<polygon fill="#63b8ff" stroke="#63b8ff" points="195.81,-54.96 205.52,-50.73 195.29,-47.98 195.81,-54.96"/>
</a>
</g>
</g>
<!-- Node3 -->
<g id="Node000003" class="node">
<title>Node3</title>
<g id="a_Node000003"><a xlink:href="app_8c.html#a16207b5f7a97b0ecfddd231452c5aa7e" target="_top" xlink:title=" ">
<polygon fill="white" stroke="#666666" points="275.25,-175.75 207.5,-175.75 207.5,-155 275.25,-155 275.25,-175.75"/>
<text text-anchor="middle" x="241.38" y="-162.25" font-family="Helvetica,sans-Serif" font-size="10.00">w2c__f263</text>
</a>
</g>
</g>
<!-- Node2&#45;&gt;Node3 -->
<g id="edge2_Node000002_Node000003" class="edge">
<title>Node2&#45;&gt;Node3</title>
<g id="a_edge2_Node000002_Node000003"><a xlink:title=" ">
<path fill="none" stroke="#63b8ff" d="M171.94,-165.38C179.57,-165.38 187.81,-165.38 195.83,-165.38"/>
<polygon fill="#63b8ff" stroke="#63b8ff" points="195.82,-168.88 205.82,-165.38 195.82,-161.88 195.82,-168.88"/>
</a>
</g>
</g>
<!-- Node4 -->
<g id="Node000004" class="node">
<title>Node4</title>
<g id="a_Node000004"><a xlink:href="app_8c.html#a71bcbce7faf780cd081af3fa82d6da97" target="_top" xlink:title=" ">
<polygon fill="white" stroke="#666666" points="275.25,-117.75 207.5,-117.75 207.5,-97 275.25,-97 275.25,-117.75"/>
<text text-anchor="middle" x="241.38" y="-104.25" font-family="Helvetica,sans-Serif" font-size="10.00">w2c__f437</text>
</a>
</g>
</g>
<!-- Node2&#45;&gt;Node4 -->
<g id="edge3_Node000002_Node000004" class="edge">
<title>Node2&#45;&gt;Node4</title>
<g id="a_edge3_Node000002_Node000004"><a xlink:title=" ">
<path fill="none" stroke="#63b8ff" d="M157.29,-154.74C172.54,-146.04 194.35,-133.61 211.8,-123.66"/>
<polygon fill="#63b8ff" stroke="#63b8ff" points="213.22,-126.88 220.17,-118.89 209.75,-120.8 213.22,-126.88"/>
</a>
</g>
</g>
<!-- Node6 -->
<g id="Node000006" class="node">
<title>Node6</title>
<g id="a_Node000006"><a xlink:href="app_8c.html#a5d082dff6c4c25de25da9f4dc538c097" target="_top" xlink:title=" ">
<polygon fill="white" stroke="#666666" points="275.25,-214.75 207.5,-214.75 207.5,-194 275.25,-194 275.25,-214.75"/>
<text text-anchor="middle" x="241.38" y="-201.25" font-family="Helvetica,sans-Serif" font-size="10.00">w2c__f265</text>
</a>
</g>
</g>
<!-- Node5&#45;&gt;Node6 -->
<g id="edge5_Node000005_Node000006" class="edge">
<title>Node5&#45;&gt;Node6</title>
<g id="a_edge5_Node000005_Node000006"><a xlink:title=" ">
<path fill="none" stroke="#63b8ff" d="M171.94,-204.38C179.57,-204.38 187.81,-204.38 195.83,-204.38"/>
<polygon fill="#63b8ff" stroke="#63b8ff" points="195.82,-207.88 205.82,-204.38 195.82,-200.88 195.82,-207.88"/>
</a>
</g>
</g>
<!-- Node8&#45;&gt;Node4 -->
<g id="edge8_Node000008_Node000004" class="edge">
<title>Node8&#45;&gt;Node4</title>
<g id="a_edge8_Node000008_Node000004"><a xlink:title=" ">
<path fill="none" stroke="#63b8ff" d="M171.94,-93.92C179.66,-95.44 188,-97.08 196.11,-98.67"/>
<polygon fill="#63b8ff" stroke="#63b8ff" points="195.36,-102.09 205.85,-100.59 196.71,-95.22 195.36,-102.09"/>
</a>
</g>
</g>
<!-- Node9&#45;&gt;Node10 -->
<g id="edge10_Node000009_Node000010" class="edge">
<title>Node9&#45;&gt;Node10</title>
<g id="a_edge10_Node000009_Node000010"><a xlink:title=" ">
<path fill="none" stroke="#63b8ff" d="M167.51,-22.16C177.82,-26.01 189.63,-30.42 200.69,-34.55"/>
<polygon fill="#63b8ff" stroke="#63b8ff" points="199.41,-37.81 210,-38.03 201.86,-31.25 199.41,-37.81"/>
</a>
</g>
</g>
<!-- Node11 -->
<g id="Node000011" class="node">
<title>Node11</title>
<g id="a_Node000011"><a xlink:href="app_8c.html#a1b33810b824b3b37999b55db2c1fb45d" target="_top" xlink:title=" ">
<polygon fill="white" stroke="#666666" points="275.25,-20.75 207.5,-20.75 207.5,0 275.25,0 275.25,-20.75"/>
<text text-anchor="middle" x="241.38" y="-7.25" font-family="Helvetica,sans-Serif" font-size="10.00">w2c__f555</text>
</a>
</g>
</g>
<!-- Node9&#45;&gt;Node11 -->
<g id="edge11_Node000009_Node000011" class="edge">
<title>Node9&#45;&gt;Node11</title>
<g id="a_edge11_Node000009_Node000011"><a xlink:title=" ">
<path fill="none" stroke="#63b8ff" d="M171.94,-11.05C179.57,-10.97 187.81,-10.89 195.83,-10.81"/>
<polygon fill="#63b8ff" stroke="#63b8ff" points="195.85,-14.31 205.82,-10.71 195.78,-7.31 195.85,-14.31"/>
</a>
</g>
</g>
</g>
</svg>
