<?xml version="1.0" encoding="UTF-8" standalone="no"?>
<!DOCTYPE svg PUBLIC "-//W3C//DTD SVG 1.1//EN"
 "http://www.w3.org/Graphics/SVG/1.1/DTD/svg11.dtd">
<!-- Generated by graphviz version 12.2.1 (0)
 -->
<!-- Title: wrap_w2c__f541 Pages: 1 -->
<svg width="728pt" height="183pt"
 viewBox="0.00 0.00 727.50 182.75" xmlns="http://www.w3.org/2000/svg" xmlns:xlink="http://www.w3.org/1999/xlink">
<g id="graph0" class="graph" transform="scale(1 1) rotate(0) translate(4 178.75)">
<title>wrap_w2c__f541</title>
<!-- Node1 -->
<g id="Node000001" class="node">
<title>Node1</title>
<g id="a_Node000001"><a xlink:title=" ">
<polygon fill="#999999" stroke="#666666" points="97,-59.75 0,-59.75 0,-39 97,-39 97,-59.75"/>
<text text-anchor="middle" x="48.5" y="-46.25" font-family="Helvetica,sans-Serif" font-size="10.00">wrap_w2c__f541</text>
</a>
</g>
</g>
<!-- Node2 -->
<g id="Node000002" class="node">
<title>Node2</title>
<g id="a_Node000002"><a xlink:href="app_8c.html#af16d7d2242e69c7e58a9da608c6b99a7" target="_top" xlink:title=" ">
<polygon fill="white" stroke="#666666" points="200.75,-59.75 133,-59.75 133,-39 200.75,-39 200.75,-59.75"/>
<text text-anchor="middle" x="166.88" y="-46.25" font-family="Helvetica,sans-Serif" font-size="10.00">w2c__f541</text>
</a>
</g>
</g>
<!-- Node1&#45;&gt;Node2 -->
<g id="edge1_Node000001_Node000002" class="edge">
<title>Node1&#45;&gt;Node2</title>
<g id="a_edge1_Node000001_Node000002"><a xlink:title=" ">
<path fill="none" stroke="#63b8ff" d="M97.17,-49.38C105.18,-49.38 113.47,-49.38 121.4,-49.38"/>
<polygon fill="#63b8ff" stroke="#63b8ff" points="121.17,-52.88 131.17,-49.38 121.17,-45.88 121.17,-52.88"/>
</a>
</g>
</g>
<!-- Node3 -->
<g id="Node000003" class="node">
<title>Node3</title>
<g id="a_Node000003"><a xlink:href="app_8c.html#a5a0d1cd445d6077fbe4477c0f417eeaf" target="_top" xlink:title=" ">
<polygon fill="white" stroke="#666666" points="304.5,-78.75 236.75,-78.75 236.75,-58 304.5,-58 304.5,-78.75"/>
<text text-anchor="middle" x="270.62" y="-65.25" font-family="Helvetica,sans-Serif" font-size="10.00">w2c__f275</text>
</a>
</g>
</g>
<!-- Node2&#45;&gt;Node3 -->
<g id="edge2_Node000002_Node000003" class="edge">
<title>Node2&#45;&gt;Node3</title>
<g id="a_edge2_Node000002_Node000003"><a xlink:title=" ">
<path fill="none" stroke="#63b8ff" d="M201.19,-55.6C208.91,-57.04 217.25,-58.59 225.36,-60.11"/>
<polygon fill="#63b8ff" stroke="#63b8ff" points="224.62,-63.53 235.09,-61.93 225.91,-56.65 224.62,-63.53"/>
</a>
</g>
</g>
<!-- Node11 -->
<g id="Node000011" class="node">
<title>Node11</title>
<g id="a_Node000011"><a xlink:href="app_8c.html#a674f6e81761467d0a8dc6d2a425eda9f" target="_top" xlink:title=" ">
<polygon fill="white" stroke="#666666" points="615.75,-20.75 548,-20.75 548,0 615.75,0 615.75,-20.75"/>
<text text-anchor="middle" x="581.88" y="-7.25" font-family="Helvetica,sans-Serif" font-size="10.00">w2c__f498</text>
</a>
</g>
</g>
<!-- Node2&#45;&gt;Node11 -->
<g id="edge14_Node000002_Node000011" class="edge">
<title>Node2&#45;&gt;Node11</title>
<g id="a_edge14_Node000002_Node000011"><a xlink:title=" ">
<path fill="none" stroke="#63b8ff" d="M200.97,-46.25C274.76,-39.28 452.76,-22.47 536.25,-14.59"/>
<polygon fill="#63b8ff" stroke="#63b8ff" points="536.48,-18.08 546.11,-13.66 535.83,-11.11 536.48,-18.08"/>
</a>
</g>
</g>
<!-- Node4 -->
<g id="Node000004" class="node">
<title>Node4</title>
<g id="a_Node000004"><a xlink:href="app_8c.html#ae7fb023a7298e99149ca1f090e524235" target="_top" xlink:title=" ">
<polygon fill="white" stroke="#666666" points="408.25,-78.75 340.5,-78.75 340.5,-58 408.25,-58 408.25,-78.75"/>
<text text-anchor="middle" x="374.38" y="-65.25" font-family="Helvetica,sans-Serif" font-size="10.00">w2c__f281</text>
</a>
</g>
</g>
<!-- Node3&#45;&gt;Node4 -->
<g id="edge3_Node000003_Node000004" class="edge">
<title>Node3&#45;&gt;Node4</title>
<g id="a_edge3_Node000003_Node000004"><a xlink:title=" ">
<path fill="none" stroke="#63b8ff" d="M304.94,-68.38C312.57,-68.38 320.81,-68.38 328.83,-68.38"/>
<polygon fill="#63b8ff" stroke="#63b8ff" points="328.82,-71.88 338.82,-68.38 328.82,-64.88 328.82,-71.88"/>
</a>
</g>
</g>
<!-- Node5 -->
<g id="Node000005" class="node">
<title>Node5</title>
<g id="a_Node000005"><a xlink:href="app_8c.html#ac9cc84763a9c1933e50eedd7a06c17e2" target="_top" xlink:title=" ">
<polygon fill="white" stroke="#666666" points="512,-78.75 444.25,-78.75 444.25,-58 512,-58 512,-78.75"/>
<text text-anchor="middle" x="478.12" y="-65.25" font-family="Helvetica,sans-Serif" font-size="10.00">w2c__f480</text>
</a>
</g>
</g>
<!-- Node4&#45;&gt;Node5 -->
<g id="edge4_Node000004_Node000005" class="edge">
<title>Node4&#45;&gt;Node5</title>
<g id="a_edge4_Node000004_Node000005"><a xlink:title=" ">
<path fill="none" stroke="#63b8ff" d="M408.69,-68.38C416.32,-68.38 424.56,-68.38 432.58,-68.38"/>
<polygon fill="#63b8ff" stroke="#63b8ff" points="432.57,-71.88 442.57,-68.38 432.57,-64.88 432.57,-71.88"/>
</a>
</g>
</g>
<!-- Node6 -->
<g id="Node000006" class="node">
<title>Node6</title>
<g id="a_Node000006"><a xlink:href="app_8c.html#a0378208e0d5c0d1d6e7370f1c578fab3" target="_top" xlink:title=" ">
<polygon fill="white" stroke="#666666" points="615.75,-174.75 548,-174.75 548,-154 615.75,-154 615.75,-174.75"/>
<text text-anchor="middle" x="581.88" y="-161.25" font-family="Helvetica,sans-Serif" font-size="10.00">w2c__f216</text>
</a>
</g>
</g>
<!-- Node5&#45;&gt;Node6 -->
<g id="edge5_Node000005_Node000006" class="edge">
<title>Node5&#45;&gt;Node6</title>
<g id="a_edge5_Node000005_Node000006"><a xlink:title=" ">
<path fill="none" stroke="#63b8ff" d="M488.39,-79.2C501.13,-93.81 525.09,-120.32 548,-140.38 550.49,-142.56 553.17,-144.74 555.89,-146.86"/>
<polygon fill="#63b8ff" stroke="#63b8ff" points="553.73,-149.61 563.84,-152.78 557.91,-144 553.73,-149.61"/>
</a>
</g>
</g>
<!-- Node7 -->
<g id="Node000007" class="node">
<title>Node7</title>
<g id="a_Node000007"><a xlink:href="app_8c.html#a8d9f347f9a643f0ebfb53c4f54578ac4" target="_top" xlink:title=" ">
<polygon fill="white" stroke="#666666" points="719.5,-117.75 651.75,-117.75 651.75,-97 719.5,-97 719.5,-117.75"/>
<text text-anchor="middle" x="685.62" y="-104.25" font-family="Helvetica,sans-Serif" font-size="10.00">w2c__f304</text>
</a>
</g>
</g>
<!-- Node5&#45;&gt;Node7 -->
<g id="edge12_Node000005_Node000007" class="edge">
<title>Node5&#45;&gt;Node7</title>
<g id="a_edge12_Node000005_Node000007"><a xlink:title=" ">
<path fill="none" stroke="#63b8ff" d="M492.95,-79.08C506.23,-88.63 527.27,-101.91 548,-107.38 577.97,-115.27 612.94,-115.11 640,-113.05"/>
<polygon fill="#63b8ff" stroke="#63b8ff" points="640.29,-116.54 649.94,-112.17 639.67,-109.57 640.29,-116.54"/>
</a>
</g>
</g>
<!-- Node8 -->
<g id="Node000008" class="node">
<title>Node8</title>
<g id="a_Node000008"><a xlink:href="app_8c.html#aaca5d5bcf49f2ca74019cf097750b9f3" target="_top" xlink:title=" ">
<polygon fill="white" stroke="#666666" points="615.75,-59.75 548,-59.75 548,-39 615.75,-39 615.75,-59.75"/>
<text text-anchor="middle" x="581.88" y="-46.25" font-family="Helvetica,sans-Serif" font-size="10.00">w2c__f258</text>
</a>
</g>
</g>
<!-- Node5&#45;&gt;Node8 -->
<g id="edge7_Node000005_Node000008" class="edge">
<title>Node5&#45;&gt;Node8</title>
<g id="a_edge7_Node000005_Node000008"><a xlink:title=" ">
<path fill="none" stroke="#63b8ff" d="M512.44,-62.15C520.16,-60.71 528.5,-59.16 536.61,-57.64"/>
<polygon fill="#63b8ff" stroke="#63b8ff" points="537.16,-61.1 546.34,-55.82 535.87,-54.22 537.16,-61.1"/>
</a>
</g>
</g>
<!-- Node10 -->
<g id="Node000010" class="node">
<title>Node10</title>
<g id="a_Node000010"><a xlink:href="app_8c.html#a4634342addbde677893ffcb45cf639dd" target="_top" xlink:title=" ">
<polygon fill="white" stroke="#666666" points="615.75,-98.75 548,-98.75 548,-78 615.75,-78 615.75,-98.75"/>
<text text-anchor="middle" x="581.88" y="-85.25" font-family="Helvetica,sans-Serif" font-size="10.00">w2c__f302</text>
</a>
</g>
</g>
<!-- Node5&#45;&gt;Node10 -->
<g id="edge10_Node000005_Node000010" class="edge">
<title>Node5&#45;&gt;Node10</title>
<g id="a_edge10_Node000005_Node000010"><a xlink:title=" ">
<path fill="none" stroke="#63b8ff" d="M512.44,-74.92C520.16,-76.44 528.5,-78.08 536.61,-79.67"/>
<polygon fill="#63b8ff" stroke="#63b8ff" points="535.86,-83.09 546.35,-81.59 537.21,-76.22 535.86,-83.09"/>
</a>
</g>
</g>
<!-- Node5&#45;&gt;Node11 -->
<g id="edge13_Node000005_Node000011" class="edge">
<title>Node5&#45;&gt;Node11</title>
<g id="a_edge13_Node000005_Node000011"><a xlink:title=" ">
<path fill="none" stroke="#63b8ff" d="M497.79,-57.74C513.04,-49.04 534.85,-36.61 552.3,-26.66"/>
<polygon fill="#63b8ff" stroke="#63b8ff" points="553.72,-29.88 560.67,-21.89 550.25,-23.8 553.72,-29.88"/>
</a>
</g>
</g>
<!-- Node6&#45;&gt;Node7 -->
<g id="edge6_Node000006_Node000007" class="edge">
<title>Node6&#45;&gt;Node7</title>
<g id="a_edge6_Node000006_Node000007"><a xlink:title=" ">
<path fill="none" stroke="#63b8ff" d="M602.01,-153.65C617.12,-145.19 638.45,-133.24 655.65,-123.6"/>
<polygon fill="#63b8ff" stroke="#63b8ff" points="656.89,-126.92 663.91,-118.98 653.47,-120.82 656.89,-126.92"/>
</a>
</g>
</g>
<!-- Node8&#45;&gt;Node7 -->
<g id="edge8_Node000008_Node000007" class="edge">
<title>Node8&#45;&gt;Node7</title>
<g id="a_edge8_Node000008_Node000007"><a xlink:title=" ">
<path fill="none" stroke="#63b8ff" d="M601.54,-60.01C616.79,-68.71 638.6,-81.14 656.05,-91.09"/>
<polygon fill="#63b8ff" stroke="#63b8ff" points="654,-93.95 664.42,-95.86 657.47,-87.87 654,-93.95"/>
</a>
</g>
</g>
<!-- Node9 -->
<g id="Node000009" class="node">
<title>Node9</title>
<g id="a_Node000009"><a xlink:href="app_8c.html#a881f0b113e93dce3ff52d04b435850f6" target="_top" xlink:title=" ">
<polygon fill="white" stroke="#666666" points="719.5,-59.75 651.75,-59.75 651.75,-39 719.5,-39 719.5,-59.75"/>
<text text-anchor="middle" x="685.62" y="-46.25" font-family="Helvetica,sans-Serif" font-size="10.00">w2c__f491</text>
</a>
</g>
</g>
<!-- Node8&#45;&gt;Node9 -->
<g id="edge9_Node000008_Node000009" class="edge">
<title>Node8&#45;&gt;Node9</title>
<g id="a_edge9_Node000008_Node000009"><a xlink:title=" ">
<path fill="none" stroke="#63b8ff" d="M616.19,-49.38C623.82,-49.38 632.06,-49.38 640.08,-49.38"/>
<polygon fill="#63b8ff" stroke="#63b8ff" points="640.07,-52.88 650.07,-49.38 640.07,-45.88 640.07,-52.88"/>
</a>
</g>
</g>
<!-- Node10&#45;&gt;Node7 -->
<g id="edge11_Node000010_Node000007" class="edge">
<title>Node10&#45;&gt;Node7</title>
<g id="a_edge11_Node000010_Node000007"><a xlink:title=" ">
<path fill="none" stroke="#63b8ff" d="M616.19,-94.6C623.91,-96.04 632.25,-97.59 640.36,-99.11"/>
<polygon fill="#63b8ff" stroke="#63b8ff" points="639.62,-102.53 650.09,-100.93 640.91,-95.65 639.62,-102.53"/>
</a>
</g>
</g>
</g>
</svg>
