<?xml version="1.0" encoding="UTF-8" standalone="no"?>
<!DOCTYPE svg PUBLIC "-//W3C//DTD SVG 1.1//EN"
 "http://www.w3.org/Graphics/SVG/1.1/DTD/svg11.dtd">
<!-- Generated by graphviz version 12.2.1 (0)
 -->
<!-- Title: w2c__f575 Pages: 1 -->
<svg width="520pt" height="48pt"
 viewBox="0.00 0.00 520.00 47.75" xmlns="http://www.w3.org/2000/svg" xmlns:xlink="http://www.w3.org/1999/xlink">
<g id="graph0" class="graph" transform="scale(1 1) rotate(0) translate(4 43.75)">
<title>w2c__f575</title>
<!-- Node1 -->
<g id="Node000001" class="node">
<title>Node1</title>
<g id="a_Node000001"><a xlink:title=" ">
<polygon fill="#999999" stroke="#666666" points="512,-39.75 444.25,-39.75 444.25,-19 512,-19 512,-39.75"/>
<text text-anchor="middle" x="478.12" y="-26.25" font-family="Helvetica,sans-Serif" font-size="10.00">w2c__f575</text>
</a>
</g>
</g>
<!-- Node2 -->
<g id="Node000002" class="node">
<title>Node2</title>
<g id="a_Node000002"><a xlink:href="app_8c.html#a512669319fec7c2cbf61fd668bc650c9" target="_top" xlink:title=" ">
<polygon fill="white" stroke="#666666" points="304.5,-39.75 236.75,-39.75 236.75,-19 304.5,-19 304.5,-39.75"/>
<text text-anchor="middle" x="270.62" y="-26.25" font-family="Helvetica,sans-Serif" font-size="10.00">w2c__f343</text>
</a>
</g>
</g>
<!-- Node1&#45;&gt;Node2 -->
<g id="edge1_Node000001_Node000002" class="edge">
<title>Node1&#45;&gt;Node2</title>
<g id="a_edge1_Node000001_Node000002"><a xlink:title=" ">
<path fill="none" stroke="#63b8ff" d="M432.75,-29.38C394.34,-29.38 339.65,-29.38 304.9,-29.38"/>
<polygon fill="#63b8ff" stroke="#63b8ff" points="432.59,-32.88 442.59,-29.38 432.59,-25.88 432.59,-32.88"/>
</a>
</g>
</g>
<!-- Node5 -->
<g id="Node000005" class="node">
<title>Node5</title>
<g id="a_Node000005"><a xlink:href="app_8c.html#a764c0bb0028716e0a66688159e30b882" target="_top" xlink:title=" ">
<polygon fill="white" stroke="#666666" points="408.25,-20.75 340.5,-20.75 340.5,0 408.25,0 408.25,-20.75"/>
<text text-anchor="middle" x="374.38" y="-7.25" font-family="Helvetica,sans-Serif" font-size="10.00">w2c__f351</text>
</a>
</g>
</g>
<!-- Node1&#45;&gt;Node5 -->
<g id="edge4_Node000001_Node000005" class="edge">
<title>Node1&#45;&gt;Node5</title>
<g id="a_edge4_Node000001_Node000005"><a xlink:title=" ">
<path fill="none" stroke="#63b8ff" d="M432.57,-21.06C424.46,-19.54 416.13,-17.98 408.42,-16.55"/>
<polygon fill="#63b8ff" stroke="#63b8ff" points="431.85,-24.48 442.32,-22.88 433.13,-17.6 431.85,-24.48"/>
</a>
</g>
</g>
<!-- Node3 -->
<g id="Node000003" class="node">
<title>Node3</title>
<g id="a_Node000003"><a xlink:href="app_8c.html#a7dc7d70793bae217b64eab580fce99cb" target="_top" xlink:title=" ">
<polygon fill="white" stroke="#666666" points="200.75,-39.75 133,-39.75 133,-19 200.75,-19 200.75,-39.75"/>
<text text-anchor="middle" x="166.88" y="-26.25" font-family="Helvetica,sans-Serif" font-size="10.00">w2c__f215</text>
</a>
</g>
</g>
<!-- Node2&#45;&gt;Node3 -->
<g id="edge2_Node000002_Node000003" class="edge">
<title>Node2&#45;&gt;Node3</title>
<g id="a_edge2_Node000002_Node000003"><a xlink:title=" ">
<path fill="none" stroke="#63b8ff" d="M225.07,-29.38C216.96,-29.38 208.63,-29.38 200.92,-29.38"/>
<polygon fill="#63b8ff" stroke="#63b8ff" points="224.79,-32.88 234.79,-29.38 224.79,-25.88 224.79,-32.88"/>
</a>
</g>
</g>
<!-- Node4 -->
<g id="Node000004" class="node">
<title>Node4</title>
<g id="a_Node000004"><a xlink:href="app_8c.html#a7f65ba02075f2865f478747946b07c94" target="_top" xlink:title=" ">
<polygon fill="white" stroke="#666666" points="97,-39.75 0,-39.75 0,-19 97,-19 97,-39.75"/>
<text text-anchor="middle" x="48.5" y="-26.25" font-family="Helvetica,sans-Serif" font-size="10.00">wrap_w2c__f215</text>
</a>
</g>
</g>
<!-- Node3&#45;&gt;Node4 -->
<g id="edge3_Node000003_Node000004" class="edge">
<title>Node3&#45;&gt;Node4</title>
<g id="a_edge3_Node000003_Node000004"><a xlink:title=" ">
<path fill="none" stroke="#63b8ff" d="M121.28,-29.38C113.39,-29.38 105.14,-29.38 97.16,-29.38"/>
<polygon fill="#63b8ff" stroke="#63b8ff" points="121.01,-32.88 131.01,-29.38 121.01,-25.88 121.01,-32.88"/>
</a>
</g>
</g>
<!-- Node5&#45;&gt;Node2 -->
<g id="edge5_Node000005_Node000002" class="edge">
<title>Node5&#45;&gt;Node2</title>
<g id="a_edge5_Node000005_Node000002"><a xlink:title=" ">
<path fill="none" stroke="#63b8ff" d="M328.82,-18.69C320.71,-20.21 312.38,-21.77 304.67,-23.2"/>
<polygon fill="#63b8ff" stroke="#63b8ff" points="329.38,-22.15 338.57,-16.87 328.1,-15.27 329.38,-22.15"/>
</a>
</g>
</g>
</g>
</svg>
