<?xml version="1.0" encoding="UTF-8" standalone="no"?>
<!DOCTYPE svg PUBLIC "-//W3C//DTD SVG 1.1//EN"
 "http://www.w3.org/Graphics/SVG/1.1/DTD/svg11.dtd">
<!-- Generated by graphviz version 12.2.1 (0)
 -->
<!-- Title: w2c__f530 Pages: 1 -->
<svg width="599pt" height="317pt"
 viewBox="0.00 0.00 599.00 317.11" xmlns="http://www.w3.org/2000/svg" xmlns:xlink="http://www.w3.org/1999/xlink">
<g id="graph0" class="graph" transform="scale(1 1) rotate(0) translate(4 313.11)">
<title>w2c__f530</title>
<!-- Node1 -->
<g id="Node000001" class="node">
<title>Node1</title>
<g id="a_Node000001"><a xlink:title=" ">
<polygon fill="#999999" stroke="#666666" points="67.75,-191.39 0,-191.39 0,-170.64 67.75,-170.64 67.75,-191.39"/>
<text text-anchor="middle" x="33.88" y="-177.89" font-family="Helvetica,sans-Serif" font-size="10.00">w2c__f530</text>
</a>
</g>
</g>
<!-- Node2 -->
<g id="Node000002" class="node">
<title>Node2</title>
<g id="a_Node000002"><a xlink:href="app_8c.html#a03fa34d93d32a3ee40dfc2d840730111" target="_top" xlink:title=" ">
<polygon fill="white" stroke="#666666" points="485,-172.39 417.25,-172.39 417.25,-151.64 485,-151.64 485,-172.39"/>
<text text-anchor="middle" x="451.12" y="-158.89" font-family="Helvetica,sans-Serif" font-size="10.00">w2c__f262</text>
</a>
</g>
</g>
<!-- Node1&#45;&gt;Node2 -->
<g id="edge1_Node000001_Node000002" class="edge">
<title>Node1&#45;&gt;Node2</title>
<g id="a_edge1_Node000001_Node000002"><a xlink:title=" ">
<path fill="none" stroke="#63b8ff" d="M67.96,-172.99C79.24,-170.6 91.98,-168.29 103.75,-167.02 211.77,-155.36 339.82,-157.67 405.84,-160.03"/>
<polygon fill="#63b8ff" stroke="#63b8ff" points="405.41,-163.52 415.53,-160.4 405.67,-156.52 405.41,-163.52"/>
</a>
</g>
</g>
<!-- Node5 -->
<g id="Node000005" class="node">
<title>Node5</title>
<g id="a_Node000005"><a xlink:href="app_8c.html#a986f1214d53a515b2b887b8f988fa6a1" target="_top" xlink:title=" ">
<polygon fill="white" stroke="#666666" points="171.5,-229.39 103.75,-229.39 103.75,-208.64 171.5,-208.64 171.5,-229.39"/>
<text text-anchor="middle" x="137.62" y="-215.89" font-family="Helvetica,sans-Serif" font-size="10.00">w2c__f365</text>
</a>
</g>
</g>
<!-- Node1&#45;&gt;Node5 -->
<g id="edge4_Node000001_Node000005" class="edge">
<title>Node1&#45;&gt;Node5</title>
<g id="a_edge4_Node000001_Node000005"><a xlink:title=" ">
<path fill="none" stroke="#63b8ff" d="M63.76,-191.8C74.07,-195.65 85.88,-200.06 96.94,-204.19"/>
<polygon fill="#63b8ff" stroke="#63b8ff" points="95.66,-207.45 106.25,-207.67 98.11,-200.89 95.66,-207.45"/>
</a>
</g>
</g>
<!-- Node10 -->
<g id="Node000010" class="node">
<title>Node10</title>
<g id="a_Node000010"><a xlink:href="app_8c.html#a800df00ef236c6d6affc3c661b37e3ad" target="_top" xlink:title=" ">
<polygon fill="white" stroke="#666666" points="485,-289.39 417.25,-289.39 417.25,-268.64 485,-268.64 485,-289.39"/>
<text text-anchor="middle" x="451.12" y="-275.89" font-family="Helvetica,sans-Serif" font-size="10.00">w2c__f487</text>
</a>
</g>
</g>
<!-- Node1&#45;&gt;Node10 -->
<g id="edge28_Node000001_Node000010" class="edge">
<title>Node1&#45;&gt;Node10</title>
<g id="a_edge28_Node000001_Node000010"><a xlink:title=" ">
<path fill="none" stroke="#63b8ff" d="M38.69,-191.64C46.85,-212.56 68.22,-258.65 103.75,-277.02 201.67,-327.63 336.94,-306.79 405.87,-290.87"/>
<polygon fill="#63b8ff" stroke="#63b8ff" points="406.37,-294.35 415.28,-288.62 404.74,-287.54 406.37,-294.35"/>
</a>
</g>
</g>
<!-- Node11 -->
<g id="Node000011" class="node">
<title>Node11</title>
<g id="a_Node000011"><a xlink:href="app_8c.html#a0e0dad0ebc52e45eeff2e1b5d8389ea4" target="_top" xlink:title=" ">
<polygon fill="white" stroke="#666666" points="485,-211.39 417.25,-211.39 417.25,-190.64 485,-190.64 485,-211.39"/>
<text text-anchor="middle" x="451.12" y="-197.89" font-family="Helvetica,sans-Serif" font-size="10.00">w2c__f534</text>
</a>
</g>
</g>
<!-- Node1&#45;&gt;Node11 -->
<g id="edge29_Node000001_Node000011" class="edge">
<title>Node1&#45;&gt;Node11</title>
<g id="a_edge29_Node000001_Node000011"><a xlink:title=" ">
<path fill="none" stroke="#63b8ff" d="M68.15,-182.62C142.43,-186.2 321.76,-194.83 405.57,-198.87"/>
<polygon fill="#63b8ff" stroke="#63b8ff" points="405.31,-202.36 415.46,-199.35 405.64,-195.37 405.31,-202.36"/>
</a>
</g>
</g>
<!-- Node12 -->
<g id="Node000012" class="node">
<title>Node12</title>
<g id="a_Node000012"><a xlink:href="app_8c.html#abe1f70c7c6938f6dce1f562507454958" target="_top" xlink:title=" ">
<polygon fill="white" stroke="#666666" points="171.5,-268.39 103.75,-268.39 103.75,-247.64 171.5,-247.64 171.5,-268.39"/>
<text text-anchor="middle" x="137.62" y="-254.89" font-family="Helvetica,sans-Serif" font-size="10.00">w2c__f371</text>
</a>
</g>
</g>
<!-- Node1&#45;&gt;Node12 -->
<g id="edge16_Node000001_Node000012" class="edge">
<title>Node1&#45;&gt;Node12</title>
<g id="a_edge16_Node000001_Node000012"><a xlink:title=" ">
<path fill="none" stroke="#63b8ff" d="M46.65,-191.65C60.03,-203.54 82.76,-223.07 103.75,-238.02 105.28,-239.11 106.88,-240.2 108.5,-241.29"/>
<polygon fill="#63b8ff" stroke="#63b8ff" points="106.3,-244.03 116.62,-246.45 110.06,-238.13 106.3,-244.03"/>
</a>
</g>
</g>
<!-- Node13 -->
<g id="Node000013" class="node">
<title>Node13</title>
<g id="a_Node000013"><a xlink:href="app_8c.html#a8ce57e1cc8f9eb811e47ebb0255bf93c" target="_top" xlink:title=" ">
<polygon fill="white" stroke="#666666" points="171.5,-96.39 103.75,-96.39 103.75,-75.64 171.5,-75.64 171.5,-96.39"/>
<text text-anchor="middle" x="137.62" y="-82.89" font-family="Helvetica,sans-Serif" font-size="10.00">w2c__f439</text>
</a>
</g>
</g>
<!-- Node1&#45;&gt;Node13 -->
<g id="edge18_Node000001_Node000013" class="edge">
<title>Node1&#45;&gt;Node13</title>
<g id="a_edge18_Node000001_Node000013"><a xlink:title=" ">
<path fill="none" stroke="#63b8ff" d="M46.15,-170.49C63.18,-154.59 95.68,-124.25 116.74,-104.58"/>
<polygon fill="#63b8ff" stroke="#63b8ff" points="118.96,-107.3 123.88,-97.92 114.18,-102.18 118.96,-107.3"/>
</a>
</g>
</g>
<!-- Node17 -->
<g id="Node000017" class="node">
<title>Node17</title>
<g id="a_Node000017"><a xlink:href="app_8c.html#ad63b6498cfe22ce747f349eeb23b508f" target="_top" xlink:title=" ">
<polygon fill="white" stroke="#666666" points="486.88,-38.39 415.38,-38.39 415.38,-17.64 486.88,-17.64 486.88,-38.39"/>
<text text-anchor="middle" x="451.12" y="-24.89" font-family="Helvetica,sans-Serif" font-size="10.00">wasm_fabs</text>
</a>
</g>
</g>
<!-- Node1&#45;&gt;Node17 -->
<g id="edge30_Node000001_Node000017" class="edge">
<title>Node1&#45;&gt;Node17</title>
<g id="a_edge30_Node000001_Node000017"><a xlink:title=" ">
<path fill="none" stroke="#63b8ff" d="M39.08,-170.36C48.1,-148.61 71.17,-98.52 103.75,-67.02 141.73,-30.3 156.38,-22.34 207.5,-9.02 274.26,8.38 354.56,-4.15 403.97,-15.5"/>
<polygon fill="#63b8ff" stroke="#63b8ff" points="402.92,-18.85 413.46,-17.77 404.55,-12.04 402.92,-18.85"/>
</a>
</g>
</g>
<!-- Node3 -->
<g id="Node000003" class="node">
<title>Node3</title>
<g id="a_Node000003"><a xlink:href="app_8c.html#a16207b5f7a97b0ecfddd231452c5aa7e" target="_top" xlink:title=" ">
<polygon fill="white" stroke="#666666" points="591,-172.39 523.25,-172.39 523.25,-151.64 591,-151.64 591,-172.39"/>
<text text-anchor="middle" x="557.12" y="-158.89" font-family="Helvetica,sans-Serif" font-size="10.00">w2c__f263</text>
</a>
</g>
</g>
<!-- Node2&#45;&gt;Node3 -->
<g id="edge2_Node000002_Node000003" class="edge">
<title>Node2&#45;&gt;Node3</title>
<g id="a_edge2_Node000002_Node000003"><a xlink:title=" ">
<path fill="none" stroke="#63b8ff" d="M485.32,-162.02C493.67,-162.02 502.76,-162.02 511.57,-162.02"/>
<polygon fill="#63b8ff" stroke="#63b8ff" points="511.38,-165.52 521.38,-162.02 511.38,-158.52 511.38,-165.52"/>
</a>
</g>
</g>
<!-- Node4 -->
<g id="Node000004" class="node">
<title>Node4</title>
<g id="a_Node000004"><a xlink:href="app_8c.html#a71bcbce7faf780cd081af3fa82d6da97" target="_top" xlink:title=" ">
<polygon fill="white" stroke="#666666" points="591,-250.39 523.25,-250.39 523.25,-229.64 591,-229.64 591,-250.39"/>
<text text-anchor="middle" x="557.12" y="-236.89" font-family="Helvetica,sans-Serif" font-size="10.00">w2c__f437</text>
</a>
</g>
</g>
<!-- Node2&#45;&gt;Node4 -->
<g id="edge3_Node000002_Node000004" class="edge">
<title>Node2&#45;&gt;Node4</title>
<g id="a_edge3_Node000002_Node000004"><a xlink:title=" ">
<path fill="none" stroke="#63b8ff" d="M472.57,-172.83C477.49,-175.65 482.64,-178.81 487.25,-182.02 504.76,-194.22 523.17,-209.9 536.56,-221.88"/>
<polygon fill="#63b8ff" stroke="#63b8ff" points="534.07,-224.34 543.82,-228.47 538.77,-219.16 534.07,-224.34"/>
</a>
</g>
</g>
<!-- Node6 -->
<g id="Node000006" class="node">
<title>Node6</title>
<g id="a_Node000006"><a xlink:href="app_8c.html#a14e021d2f1b59e04757852f66bff1044" target="_top" xlink:title=" ">
<polygon fill="white" stroke="#666666" points="275.25,-249.39 207.5,-249.39 207.5,-228.64 275.25,-228.64 275.25,-249.39"/>
<text text-anchor="middle" x="241.38" y="-235.89" font-family="Helvetica,sans-Serif" font-size="10.00">w2c__f511</text>
</a>
</g>
</g>
<!-- Node5&#45;&gt;Node6 -->
<g id="edge5_Node000005_Node000006" class="edge">
<title>Node5&#45;&gt;Node6</title>
<g id="a_edge5_Node000005_Node000006"><a xlink:title=" ">
<path fill="none" stroke="#63b8ff" d="M171.94,-225.56C179.66,-227.08 188,-228.72 196.11,-230.31"/>
<polygon fill="#63b8ff" stroke="#63b8ff" points="195.36,-233.73 205.85,-232.23 196.71,-226.87 195.36,-233.73"/>
</a>
</g>
</g>
<!-- Node7 -->
<g id="Node000007" class="node">
<title>Node7</title>
<g id="a_Node000007"><a xlink:href="app_8c.html#aa58fd7f1d3aab8404d7f71d334a8a108" target="_top" xlink:title=" ">
<polygon fill="white" stroke="#666666" points="379,-229.39 311.25,-229.39 311.25,-208.64 379,-208.64 379,-229.39"/>
<text text-anchor="middle" x="345.12" y="-215.89" font-family="Helvetica,sans-Serif" font-size="10.00">w2c__f211</text>
</a>
</g>
</g>
<!-- Node6&#45;&gt;Node7 -->
<g id="edge6_Node000006_Node000007" class="edge">
<title>Node6&#45;&gt;Node7</title>
<g id="a_edge6_Node000006_Node000007"><a xlink:title=" ">
<path fill="none" stroke="#63b8ff" d="M275.69,-232.47C283.41,-230.95 291.75,-229.31 299.86,-227.72"/>
<polygon fill="#63b8ff" stroke="#63b8ff" points="300.46,-231.17 309.6,-225.8 299.11,-224.3 300.46,-231.17"/>
</a>
</g>
</g>
<!-- Node9 -->
<g id="Node000009" class="node">
<title>Node9</title>
<g id="a_Node000009"><a xlink:href="app_8c.html#a8c90e9acf2d5915eb0476bc13964c4db" target="_top" xlink:title=" ">
<polygon fill="white" stroke="#666666" points="379,-268.39 311.25,-268.39 311.25,-247.64 379,-247.64 379,-268.39"/>
<text text-anchor="middle" x="345.12" y="-254.89" font-family="Helvetica,sans-Serif" font-size="10.00">w2c__f345</text>
</a>
</g>
</g>
<!-- Node6&#45;&gt;Node9 -->
<g id="edge10_Node000006_Node000009" class="edge">
<title>Node6&#45;&gt;Node9</title>
<g id="a_edge10_Node000006_Node000009"><a xlink:title=" ">
<path fill="none" stroke="#63b8ff" d="M275.69,-245.24C283.41,-246.68 291.75,-248.24 299.86,-249.75"/>
<polygon fill="#63b8ff" stroke="#63b8ff" points="299.12,-253.17 309.59,-251.57 300.41,-246.29 299.12,-253.17"/>
</a>
</g>
</g>
<!-- Node7&#45;&gt;Node2 -->
<g id="edge7_Node000007_Node000002" class="edge">
<title>Node7&#45;&gt;Node2</title>
<g id="a_edge7_Node000007_Node000002"><a xlink:title=" ">
<path fill="none" stroke="#63b8ff" d="M365.69,-208.29C381.13,-199.83 402.93,-187.88 420.51,-178.25"/>
<polygon fill="#63b8ff" stroke="#63b8ff" points="421.88,-181.49 428.97,-173.61 418.52,-175.35 421.88,-181.49"/>
</a>
</g>
</g>
<!-- Node8 -->
<g id="Node000008" class="node">
<title>Node8</title>
<g id="a_Node000008"><a xlink:href="app_8c.html#a31b08a294227a9fc0a529e66ccd915dc" target="_top" xlink:title=" ">
<polygon fill="white" stroke="#666666" points="485,-250.39 417.25,-250.39 417.25,-229.64 485,-229.64 485,-250.39"/>
<text text-anchor="middle" x="451.12" y="-236.89" font-family="Helvetica,sans-Serif" font-size="10.00">w2c__f325</text>
</a>
</g>
</g>
<!-- Node7&#45;&gt;Node8 -->
<g id="edge8_Node000007_Node000008" class="edge">
<title>Node7&#45;&gt;Node8</title>
<g id="a_edge8_Node000007_Node000008"><a xlink:title=" ">
<path fill="none" stroke="#63b8ff" d="M379.32,-225.72C387.76,-227.42 396.97,-229.28 405.87,-231.08"/>
<polygon fill="#63b8ff" stroke="#63b8ff" points="404.91,-234.46 415.41,-233.01 406.3,-227.6 404.91,-234.46"/>
</a>
</g>
</g>
<!-- Node8&#45;&gt;Node4 -->
<g id="edge9_Node000008_Node000004" class="edge">
<title>Node8&#45;&gt;Node4</title>
<g id="a_edge9_Node000008_Node000004"><a xlink:title=" ">
<path fill="none" stroke="#63b8ff" d="M485.32,-240.02C493.67,-240.02 502.76,-240.02 511.57,-240.02"/>
<polygon fill="#63b8ff" stroke="#63b8ff" points="511.38,-243.52 521.38,-240.02 511.38,-236.52 511.38,-243.52"/>
</a>
</g>
</g>
<!-- Node9&#45;&gt;Node2 -->
<g id="edge11_Node000009_Node000002" class="edge">
<title>Node9&#45;&gt;Node2</title>
<g id="a_edge11_Node000009_Node000002"><a xlink:title=" ">
<path fill="none" stroke="#63b8ff" d="M366.98,-247.3C371.22,-244.6 375.46,-241.47 379,-238.02 400.18,-217.36 393.52,-202.37 415,-182.02 416.03,-181.04 417.12,-180.09 418.25,-179.17"/>
<polygon fill="#63b8ff" stroke="#63b8ff" points="420,-182.22 426.21,-173.64 416,-176.47 420,-182.22"/>
</a>
</g>
</g>
<!-- Node9&#45;&gt;Node8 -->
<g id="edge12_Node000009_Node000008" class="edge">
<title>Node9&#45;&gt;Node8</title>
<g id="a_edge12_Node000009_Node000008"><a xlink:title=" ">
<path fill="none" stroke="#63b8ff" d="M379.32,-252.27C387.67,-250.83 396.76,-249.25 405.57,-247.73"/>
<polygon fill="#63b8ff" stroke="#63b8ff" points="406.14,-251.18 415.4,-246.03 404.95,-244.28 406.14,-251.18"/>
</a>
</g>
</g>
<!-- Node9&#45;&gt;Node10 -->
<g id="edge13_Node000009_Node000010" class="edge">
<title>Node9&#45;&gt;Node10</title>
<g id="a_edge13_Node000009_Node000010"><a xlink:title=" ">
<path fill="none" stroke="#63b8ff" d="M379.32,-264.72C387.76,-266.42 396.97,-268.28 405.87,-270.08"/>
<polygon fill="#63b8ff" stroke="#63b8ff" points="404.91,-273.46 415.41,-272.01 406.3,-266.6 404.91,-273.46"/>
</a>
</g>
</g>
<!-- Node9&#45;&gt;Node11 -->
<g id="edge15_Node000009_Node000011" class="edge">
<title>Node9&#45;&gt;Node11</title>
<g id="a_edge15_Node000009_Node000011"><a xlink:title=" ">
<path fill="none" stroke="#63b8ff" d="M365.69,-247.29C381.13,-238.83 402.93,-226.88 420.51,-217.25"/>
<polygon fill="#63b8ff" stroke="#63b8ff" points="421.88,-220.49 428.97,-212.61 418.52,-214.35 421.88,-220.49"/>
</a>
</g>
</g>
<!-- Node10&#45;&gt;Node4 -->
<g id="edge14_Node000010_Node000004" class="edge">
<title>Node10&#45;&gt;Node4</title>
<g id="a_edge14_Node000010_Node000004"><a xlink:title=" ">
<path fill="none" stroke="#63b8ff" d="M481.09,-268.15C492.14,-264.01 504.92,-259.22 516.77,-254.77"/>
<polygon fill="#63b8ff" stroke="#63b8ff" points="517.76,-258.14 525.89,-251.35 515.3,-251.59 517.76,-258.14"/>
</a>
</g>
</g>
<!-- Node12&#45;&gt;Node6 -->
<g id="edge17_Node000012_Node000006" class="edge">
<title>Node12&#45;&gt;Node6</title>
<g id="a_edge17_Node000012_Node000006"><a xlink:title=" ">
<path fill="none" stroke="#63b8ff" d="M171.94,-251.79C179.66,-250.35 188,-248.8 196.11,-247.28"/>
<polygon fill="#63b8ff" stroke="#63b8ff" points="196.66,-250.74 205.84,-245.46 195.37,-243.86 196.66,-250.74"/>
</a>
</g>
</g>
<!-- Node13&#45;&gt;Node2 -->
<g id="edge19_Node000013_Node000002" class="edge">
<title>Node13&#45;&gt;Node2</title>
<g id="a_edge19_Node000013_Node000002"><a xlink:title=" ">
<path fill="none" stroke="#63b8ff" d="M171.93,-89.23C218.94,-94.39 307.04,-106.3 379,-129.02 392.96,-133.42 407.73,-139.95 420.18,-146.03"/>
<polygon fill="#63b8ff" stroke="#63b8ff" points="418.59,-149.15 429.09,-150.52 421.74,-142.9 418.59,-149.15"/>
</a>
</g>
</g>
<!-- Node14 -->
<g id="Node000014" class="node">
<title>Node14</title>
<g id="a_Node000014"><a xlink:href="app_8c.html#a78a17ac0e7e7f4db4d33e1a2e032ed58" target="_top" xlink:title=" ">
<polygon fill="white" stroke="#666666" points="275.25,-77.39 207.5,-77.39 207.5,-56.64 275.25,-56.64 275.25,-77.39"/>
<text text-anchor="middle" x="241.38" y="-63.89" font-family="Helvetica,sans-Serif" font-size="10.00">w2c__f387</text>
</a>
</g>
</g>
<!-- Node13&#45;&gt;Node14 -->
<g id="edge20_Node000013_Node000014" class="edge">
<title>Node13&#45;&gt;Node14</title>
<g id="a_edge20_Node000013_Node000014"><a xlink:title=" ">
<path fill="none" stroke="#63b8ff" d="M171.94,-79.79C179.66,-78.35 188,-76.8 196.11,-75.28"/>
<polygon fill="#63b8ff" stroke="#63b8ff" points="196.66,-78.74 205.84,-73.46 195.37,-71.86 196.66,-78.74"/>
</a>
</g>
</g>
<!-- Node20 -->
<g id="Node000020" class="node">
<title>Node20</title>
<g id="a_Node000020"><a xlink:href="app_8c.html#a7c6f80e3a58bc541f1aa2c8ec1ce581e" target="_top" xlink:title=" ">
<polygon fill="white" stroke="#666666" points="275.25,-38.39 207.5,-38.39 207.5,-17.64 275.25,-17.64 275.25,-38.39"/>
<text text-anchor="middle" x="241.38" y="-24.89" font-family="Helvetica,sans-Serif" font-size="10.00">w2c__f563</text>
</a>
</g>
</g>
<!-- Node13&#45;&gt;Node20 -->
<g id="edge26_Node000013_Node000020" class="edge">
<title>Node13&#45;&gt;Node20</title>
<g id="a_edge26_Node000013_Node000020"><a xlink:title=" ">
<path fill="none" stroke="#63b8ff" d="M157.29,-75.38C172.54,-66.68 194.35,-54.25 211.8,-44.3"/>
<polygon fill="#63b8ff" stroke="#63b8ff" points="213.22,-47.53 220.17,-39.53 209.75,-41.44 213.22,-47.53"/>
</a>
</g>
</g>
<!-- Node15 -->
<g id="Node000015" class="node">
<title>Node15</title>
<g id="a_Node000015"><a xlink:href="app_8c.html#a515b1589d484e4dc494f93ca155f6966" target="_top" xlink:title=" ">
<polygon fill="white" stroke="#666666" points="379,-77.39 311.25,-77.39 311.25,-56.64 379,-56.64 379,-77.39"/>
<text text-anchor="middle" x="345.12" y="-63.89" font-family="Helvetica,sans-Serif" font-size="10.00">w2c__f260</text>
</a>
</g>
</g>
<!-- Node14&#45;&gt;Node15 -->
<g id="edge21_Node000014_Node000015" class="edge">
<title>Node14&#45;&gt;Node15</title>
<g id="a_edge21_Node000014_Node000015"><a xlink:title=" ">
<path fill="none" stroke="#63b8ff" d="M275.69,-67.02C283.32,-67.02 291.56,-67.02 299.58,-67.02"/>
<polygon fill="#63b8ff" stroke="#63b8ff" points="299.57,-70.52 309.57,-67.02 299.57,-63.52 299.57,-70.52"/>
</a>
</g>
</g>
<!-- Node16 -->
<g id="Node000016" class="node">
<title>Node16</title>
<g id="a_Node000016"><a xlink:href="app_8c.html#af732b1ecf09ff688adde158c29714bcd" target="_top" xlink:title=" ">
<polygon fill="white" stroke="#666666" points="485,-116.39 417.25,-116.39 417.25,-95.64 485,-95.64 485,-116.39"/>
<text text-anchor="middle" x="451.12" y="-102.89" font-family="Helvetica,sans-Serif" font-size="10.00">w2c__f436</text>
</a>
</g>
</g>
<!-- Node15&#45;&gt;Node16 -->
<g id="edge22_Node000015_Node000016" class="edge">
<title>Node15&#45;&gt;Node16</title>
<g id="a_edge22_Node000015_Node000016"><a xlink:title=" ">
<path fill="none" stroke="#63b8ff" d="M375.09,-77.88C386.14,-82.02 398.92,-86.81 410.77,-91.26"/>
<polygon fill="#63b8ff" stroke="#63b8ff" points="409.3,-94.45 419.89,-94.68 411.76,-87.89 409.3,-94.45"/>
</a>
</g>
</g>
<!-- Node15&#45;&gt;Node17 -->
<g id="edge23_Node000015_Node000017" class="edge">
<title>Node15&#45;&gt;Node17</title>
<g id="a_edge23_Node000015_Node000017"><a xlink:title=" ">
<path fill="none" stroke="#63b8ff" d="M375.09,-56.15C386.14,-52.01 398.92,-47.22 410.77,-42.77"/>
<polygon fill="#63b8ff" stroke="#63b8ff" points="411.76,-46.14 419.89,-39.35 409.3,-39.59 411.76,-46.14"/>
</a>
</g>
</g>
<!-- Node18 -->
<g id="Node000018" class="node">
<title>Node18</title>
<g id="a_Node000018"><a xlink:href="app_8c.html#aca677a5348fb06a52413801823fa5291" target="_top" xlink:title=" ">
<polygon fill="white" stroke="#666666" points="487.25,-77.39 415,-77.39 415,-56.64 487.25,-56.64 487.25,-77.39"/>
<text text-anchor="middle" x="451.12" y="-63.89" font-family="Helvetica,sans-Serif" font-size="10.00">wasm_floor</text>
</a>
</g>
</g>
<!-- Node15&#45;&gt;Node18 -->
<g id="edge24_Node000015_Node000018" class="edge">
<title>Node15&#45;&gt;Node18</title>
<g id="a_edge24_Node000015_Node000018"><a xlink:title=" ">
<path fill="none" stroke="#63b8ff" d="M379.32,-67.02C386.99,-67.02 395.3,-67.02 403.44,-67.02"/>
<polygon fill="#63b8ff" stroke="#63b8ff" points="403.22,-70.52 413.22,-67.02 403.22,-63.52 403.22,-70.52"/>
</a>
</g>
</g>
<!-- Node19 -->
<g id="Node000019" class="node">
<title>Node19</title>
<g id="a_Node000019"><a xlink:href="app_8c.html#ae10979e670e507d4373e8cadcb3169aa" target="_top" xlink:title=" ">
<polygon fill="white" stroke="#666666" points="589.12,-77.39 525.12,-77.39 525.12,-56.64 589.12,-56.64 589.12,-77.39"/>
<text text-anchor="middle" x="557.12" y="-63.89" font-family="Helvetica,sans-Serif" font-size="10.00">quiet_nan</text>
</a>
</g>
</g>
<!-- Node18&#45;&gt;Node19 -->
<g id="edge25_Node000018_Node000019" class="edge">
<title>Node18&#45;&gt;Node19</title>
<g id="a_edge25_Node000018_Node000019"><a xlink:title=" ">
<path fill="none" stroke="#63b8ff" d="M487.63,-67.02C495.96,-67.02 504.92,-67.02 513.53,-67.02"/>
<polygon fill="#63b8ff" stroke="#63b8ff" points="513.44,-70.52 523.44,-67.02 513.44,-63.52 513.44,-70.52"/>
</a>
</g>
</g>
<!-- Node20&#45;&gt;Node17 -->
<g id="edge27_Node000020_Node000017" class="edge">
<title>Node20&#45;&gt;Node17</title>
<g id="a_edge27_Node000020_Node000017"><a xlink:title=" ">
<path fill="none" stroke="#63b8ff" d="M275.29,-28.02C309.9,-28.02 364.62,-28.02 403.62,-28.02"/>
<polygon fill="#63b8ff" stroke="#63b8ff" points="403.42,-31.52 413.42,-28.02 403.42,-24.52 403.42,-31.52"/>
</a>
</g>
</g>
</g>
</svg>
