<?xml version="1.0" encoding="UTF-8" standalone="no"?>
<!DOCTYPE svg PUBLIC "-//W3C//DTD SVG 1.1//EN"
 "http://www.w3.org/Graphics/SVG/1.1/DTD/svg11.dtd">
<!-- Generated by graphviz version 12.2.1 (0)
 -->
<!-- Title: w2c_0_37 Pages: 1 -->
<svg width="600pt" height="173pt"
 viewBox="0.00 0.00 600.25 172.75" xmlns="http://www.w3.org/2000/svg" xmlns:xlink="http://www.w3.org/1999/xlink">
<g id="graph0" class="graph" transform="scale(1 1) rotate(0) translate(4 168.75)">
<title>w2c_0_37</title>
<!-- Node1 -->
<g id="Node000001" class="node">
<title>Node1</title>
<g id="a_Node000001"><a xlink:title=" ">
<polygon fill="#999999" stroke="#666666" points="592.25,-97.75 528.25,-97.75 528.25,-77 592.25,-77 592.25,-97.75"/>
<text text-anchor="middle" x="560.25" y="-84.25" font-family="Helvetica,sans-Serif" font-size="10.00">w2c_0_37</text>
</a>
</g>
</g>
<!-- Node2 -->
<g id="Node000002" class="node">
<title>Node2</title>
<g id="a_Node000002"><a xlink:href="app_8c.html#a7dc7d70793bae217b64eab580fce99cb" target="_top" xlink:title=" ">
<polygon fill="white" stroke="#666666" points="348.38,-164.75 280.62,-164.75 280.62,-144 348.38,-144 348.38,-164.75"/>
<text text-anchor="middle" x="314.5" y="-151.25" font-family="Helvetica,sans-Serif" font-size="10.00">w2c__f215</text>
</a>
</g>
</g>
<!-- Node1&#45;&gt;Node2 -->
<g id="edge1_Node000001_Node000002" class="edge">
<title>Node1&#45;&gt;Node2</title>
<g id="a_edge1_Node000001_Node000002"><a xlink:title=" ">
<path fill="none" stroke="#63b8ff" d="M543.04,-106.6C530.63,-119.81 512.29,-136.35 492.25,-144.38 445.17,-163.22 385.35,-161.93 348.78,-158.63"/>
<polygon fill="#63b8ff" stroke="#63b8ff" points="545.55,-109.04 549.61,-99.26 540.33,-104.37 545.55,-109.04"/>
</a>
</g>
</g>
<!-- Node4 -->
<g id="Node000004" class="node">
<title>Node4</title>
<g id="a_Node000004"><a xlink:href="app_8c.html#afdae10204d5cc9dd87771389db6460ec" target="_top" xlink:title=" ">
<polygon fill="white" stroke="#666666" points="479.5,-135.75 411.75,-135.75 411.75,-115 479.5,-115 479.5,-135.75"/>
<text text-anchor="middle" x="445.62" y="-122.25" font-family="Helvetica,sans-Serif" font-size="10.00">w2c__f314</text>
</a>
</g>
</g>
<!-- Node1&#45;&gt;Node4 -->
<g id="edge3_Node000001_Node000004" class="edge">
<title>Node1&#45;&gt;Node4</title>
<g id="a_edge3_Node000001_Node000004"><a xlink:title=" ">
<path fill="none" stroke="#63b8ff" d="M517.03,-101.62C504.31,-105.91 490.56,-110.55 478.61,-114.58"/>
<polygon fill="#63b8ff" stroke="#63b8ff" points="518.09,-104.96 526.44,-98.44 515.85,-98.32 518.09,-104.96"/>
</a>
</g>
</g>
<!-- Node5 -->
<g id="Node000005" class="node">
<title>Node5</title>
<g id="a_Node000005"><a xlink:href="app_8c.html#afb3fbfc35abe0f21d554f326b79a0b76" target="_top" xlink:title=" ">
<polygon fill="white" stroke="#666666" points="348.38,-107.75 280.62,-107.75 280.62,-87 348.38,-87 348.38,-107.75"/>
<text text-anchor="middle" x="314.5" y="-94.25" font-family="Helvetica,sans-Serif" font-size="10.00">w2c__f494</text>
</a>
</g>
</g>
<!-- Node1&#45;&gt;Node5 -->
<g id="edge10_Node000001_Node000005" class="edge">
<title>Node1&#45;&gt;Node5</title>
<g id="a_edge10_Node000001_Node000005"><a xlink:title=" ">
<path fill="none" stroke="#63b8ff" d="M516.68,-89.12C468.87,-91.08 392.28,-94.22 348.7,-96.01"/>
<polygon fill="#63b8ff" stroke="#63b8ff" points="516.52,-92.63 526.37,-88.72 516.24,-85.64 516.52,-92.63"/>
</a>
</g>
</g>
<!-- Node10 -->
<g id="Node000010" class="node">
<title>Node10</title>
<g id="a_Node000010"><a xlink:href="app_8c.html#a16670c165bc2e48eba2f100b6b1e21c3" target="_top" xlink:title=" ">
<polygon fill="white" stroke="#666666" points="479.5,-59.75 411.75,-59.75 411.75,-39 479.5,-39 479.5,-59.75"/>
<text text-anchor="middle" x="445.62" y="-46.25" font-family="Helvetica,sans-Serif" font-size="10.00">w2c__f495</text>
</a>
</g>
</g>
<!-- Node1&#45;&gt;Node10 -->
<g id="edge11_Node000001_Node000010" class="edge">
<title>Node1&#45;&gt;Node10</title>
<g id="a_edge11_Node000001_Node000010"><a xlink:title=" ">
<path fill="none" stroke="#63b8ff" d="M517.03,-73.13C504.31,-68.84 490.56,-64.2 478.61,-60.17"/>
<polygon fill="#63b8ff" stroke="#63b8ff" points="515.85,-76.43 526.44,-76.31 518.09,-69.79 515.85,-76.43"/>
</a>
</g>
</g>
<!-- Node12 -->
<g id="Node000012" class="node">
<title>Node12</title>
<g id="a_Node000012"><a xlink:href="app_8c.html#ae2247552ddef39a1c95f6bf9605203a1" target="_top" xlink:title=" ">
<polygon fill="white" stroke="#666666" points="492.25,-20.75 399,-20.75 399,0 492.25,0 492.25,-20.75"/>
<text text-anchor="middle" x="445.62" y="-7.25" font-family="Helvetica,sans-Serif" font-size="10.00">wrap_w2c_0_37</text>
</a>
</g>
</g>
<!-- Node1&#45;&gt;Node12 -->
<g id="edge14_Node000001_Node000012" class="edge">
<title>Node1&#45;&gt;Node12</title>
<g id="a_edge14_Node000001_Node000012"><a xlink:title=" ">
<path fill="none" stroke="#63b8ff" d="M540.63,-68.94C527.8,-56.9 509.92,-41.43 492.25,-30.38 486.82,-26.98 480.72,-23.88 474.79,-21.18"/>
<polygon fill="#63b8ff" stroke="#63b8ff" points="537.92,-71.18 547.56,-75.58 542.76,-66.13 537.92,-71.18"/>
</a>
</g>
</g>
<!-- Node3 -->
<g id="Node000003" class="node">
<title>Node3</title>
<g id="a_Node000003"><a xlink:href="app_8c.html#a7f65ba02075f2865f478747946b07c94" target="_top" xlink:title=" ">
<polygon fill="white" stroke="#666666" points="230,-164.75 133,-164.75 133,-144 230,-144 230,-164.75"/>
<text text-anchor="middle" x="181.5" y="-151.25" font-family="Helvetica,sans-Serif" font-size="10.00">wrap_w2c__f215</text>
</a>
</g>
</g>
<!-- Node2&#45;&gt;Node3 -->
<g id="edge2_Node000002_Node000003" class="edge">
<title>Node2&#45;&gt;Node3</title>
<g id="a_edge2_Node000002_Node000003"><a xlink:title=" ">
<path fill="none" stroke="#63b8ff" d="M268.95,-154.38C256.53,-154.38 243,-154.38 230.4,-154.38"/>
<polygon fill="#63b8ff" stroke="#63b8ff" points="268.93,-157.88 278.93,-154.38 268.93,-150.88 268.93,-157.88"/>
</a>
</g>
</g>
<!-- Node4&#45;&gt;Node2 -->
<g id="edge4_Node000004_Node000002" class="edge">
<title>Node4&#45;&gt;Node2</title>
<g id="a_edge4_Node000004_Node000002"><a xlink:title=" ">
<path fill="none" stroke="#63b8ff" d="M400.56,-135.27C383.56,-139.09 364.44,-143.38 348.64,-146.93"/>
<polygon fill="#63b8ff" stroke="#63b8ff" points="400.91,-138.78 409.9,-133.17 399.37,-131.95 400.91,-138.78"/>
</a>
</g>
</g>
<!-- Node4&#45;&gt;Node5 -->
<g id="edge5_Node000004_Node000005" class="edge">
<title>Node4&#45;&gt;Node5</title>
<g id="a_edge5_Node000004_Node000005"><a xlink:title=" ">
<path fill="none" stroke="#63b8ff" d="M400.56,-115.82C383.56,-112.13 364.44,-107.99 348.64,-104.56"/>
<polygon fill="#63b8ff" stroke="#63b8ff" points="399.38,-119.14 409.89,-117.84 400.86,-112.3 399.38,-119.14"/>
</a>
</g>
</g>
<!-- Node6 -->
<g id="Node000006" class="node">
<title>Node6</title>
<g id="a_Node000006"><a xlink:href="app_8c.html#a86ae468e235684021eadfdacd5cb9dba" target="_top" xlink:title=" ">
<polygon fill="white" stroke="#666666" points="215.38,-107.75 147.62,-107.75 147.62,-87 215.38,-87 215.38,-107.75"/>
<text text-anchor="middle" x="181.5" y="-94.25" font-family="Helvetica,sans-Serif" font-size="10.00">w2c__f452</text>
</a>
</g>
</g>
<!-- Node5&#45;&gt;Node6 -->
<g id="edge6_Node000005_Node000006" class="edge">
<title>Node5&#45;&gt;Node6</title>
<g id="a_edge6_Node000005_Node000006"><a xlink:title=" ">
<path fill="none" stroke="#63b8ff" d="M269.03,-97.38C251.52,-97.38 231.76,-97.38 215.55,-97.38"/>
<polygon fill="#63b8ff" stroke="#63b8ff" points="268.93,-100.88 278.93,-97.38 268.93,-93.88 268.93,-100.88"/>
</a>
</g>
</g>
<!-- Node8 -->
<g id="Node000008" class="node">
<title>Node8</title>
<g id="a_Node000008"><a xlink:href="app_8c.html#ad1dbc2afe7918517df3fc54838f07298" target="_top" xlink:title=" ">
<polygon fill="white" stroke="#666666" points="215.38,-68.75 147.62,-68.75 147.62,-48 215.38,-48 215.38,-68.75"/>
<text text-anchor="middle" x="181.5" y="-55.25" font-family="Helvetica,sans-Serif" font-size="10.00">w2c__f520</text>
</a>
</g>
</g>
<!-- Node5&#45;&gt;Node8 -->
<g id="edge8_Node000005_Node000008" class="edge">
<title>Node5&#45;&gt;Node8</title>
<g id="a_edge8_Node000005_Node000008"><a xlink:title=" ">
<path fill="none" stroke="#63b8ff" d="M269.54,-84.29C251.9,-79.03 231.91,-73.09 215.55,-68.21"/>
<polygon fill="#63b8ff" stroke="#63b8ff" points="268.41,-87.6 278.99,-87.1 270.41,-80.89 268.41,-87.6"/>
</a>
</g>
</g>
<!-- Node7 -->
<g id="Node000007" class="node">
<title>Node7</title>
<g id="a_Node000007"><a xlink:href="app_8c.html#a57ca4f801147f9325a0ea7cc2d7192c5" target="_top" xlink:title=" ">
<polygon fill="white" stroke="#666666" points="97,-107.75 0,-107.75 0,-87 97,-87 97,-107.75"/>
<text text-anchor="middle" x="48.5" y="-94.25" font-family="Helvetica,sans-Serif" font-size="10.00">wrap_w2c__f452</text>
</a>
</g>
</g>
<!-- Node6&#45;&gt;Node7 -->
<g id="edge7_Node000006_Node000007" class="edge">
<title>Node6&#45;&gt;Node7</title>
<g id="a_edge7_Node000006_Node000007"><a xlink:title=" ">
<path fill="none" stroke="#63b8ff" d="M135.95,-97.38C123.53,-97.38 110,-97.38 97.4,-97.38"/>
<polygon fill="#63b8ff" stroke="#63b8ff" points="135.93,-100.88 145.93,-97.38 135.93,-93.88 135.93,-100.88"/>
</a>
</g>
</g>
<!-- Node9 -->
<g id="Node000009" class="node">
<title>Node9</title>
<g id="a_Node000009"><a xlink:href="app_8c.html#a130f07b726020d1add9a7ed5178e023a" target="_top" xlink:title=" ">
<polygon fill="white" stroke="#666666" points="97,-68.75 0,-68.75 0,-48 97,-48 97,-68.75"/>
<text text-anchor="middle" x="48.5" y="-55.25" font-family="Helvetica,sans-Serif" font-size="10.00">wrap_w2c__f520</text>
</a>
</g>
</g>
<!-- Node8&#45;&gt;Node9 -->
<g id="edge9_Node000008_Node000009" class="edge">
<title>Node8&#45;&gt;Node9</title>
<g id="a_edge9_Node000008_Node000009"><a xlink:title=" ">
<path fill="none" stroke="#63b8ff" d="M135.95,-58.38C123.53,-58.38 110,-58.38 97.4,-58.38"/>
<polygon fill="#63b8ff" stroke="#63b8ff" points="135.93,-61.88 145.93,-58.38 135.93,-54.88 135.93,-61.88"/>
</a>
</g>
</g>
<!-- Node10&#45;&gt;Node8 -->
<g id="edge12_Node000010_Node000008" class="edge">
<title>Node10&#45;&gt;Node8</title>
<g id="a_edge12_Node000010_Node000008"><a xlink:title=" ">
<path fill="none" stroke="#63b8ff" d="M400.19,-50.9C348.01,-52.69 262.67,-55.62 215.84,-57.23"/>
<polygon fill="#63b8ff" stroke="#63b8ff" points="400.04,-54.41 409.91,-50.57 399.8,-47.41 400.04,-54.41"/>
</a>
</g>
</g>
<!-- Node11 -->
<g id="Node000011" class="node">
<title>Node11</title>
<g id="a_Node000011"><a xlink:href="app_8c.html#adc0b425fa65493482058a086393089b5" target="_top" xlink:title=" ">
<polygon fill="white" stroke="#666666" points="363,-30.75 266,-30.75 266,-10 363,-10 363,-30.75"/>
<text text-anchor="middle" x="314.5" y="-17.25" font-family="Helvetica,sans-Serif" font-size="10.00">wrap_w2c__f495</text>
</a>
</g>
</g>
<!-- Node10&#45;&gt;Node11 -->
<g id="edge13_Node000010_Node000011" class="edge">
<title>Node10&#45;&gt;Node11</title>
<g id="a_edge13_Node000010_Node000011"><a xlink:title=" ">
<path fill="none" stroke="#63b8ff" d="M400.29,-39.42C388.35,-36.74 375.37,-33.82 363.24,-31.1"/>
<polygon fill="#63b8ff" stroke="#63b8ff" points="399.37,-42.8 409.9,-41.58 400.91,-35.97 399.37,-42.8"/>
</a>
</g>
</g>
</g>
</svg>
