<?xml version="1.0" encoding="UTF-8" standalone="no"?>
<!DOCTYPE svg PUBLIC "-//W3C//DTD SVG 1.1//EN"
 "http://www.w3.org/Graphics/SVG/1.1/DTD/svg11.dtd">
<!-- Generated by graphviz version 12.2.1 (0)
 -->
<!-- Title: w2c__f554 Pages: 1 -->
<svg width="711pt" height="578pt"
 viewBox="0.00 0.00 711.00 577.54" xmlns="http://www.w3.org/2000/svg" xmlns:xlink="http://www.w3.org/1999/xlink">
<g id="graph0" class="graph" transform="scale(1 1) rotate(0) translate(4 573.54)">
<title>w2c__f554</title>
<!-- Node1 -->
<g id="Node000001" class="node">
<title>Node1</title>
<g id="a_Node000001"><a xlink:title=" ">
<polygon fill="#999999" stroke="#666666" points="67.75,-289.75 0,-289.75 0,-269 67.75,-269 67.75,-289.75"/>
<text text-anchor="middle" x="33.88" y="-276.25" font-family="Helvetica,sans-Serif" font-size="10.00">w2c__f554</text>
</a>
</g>
</g>
<!-- Node1&#45;&gt;Node1 -->
<g id="edge45_Node000001_Node000001" class="edge">
<title>Node1&#45;&gt;Node1</title>
<g id="a_edge45_Node000001_Node000001"><a xlink:title=" ">
<path fill="none" stroke="#63b8ff" d="M17.04,-290.15C10.3,-298.81 15.91,-307.75 33.88,-307.75 43.42,-307.75 49.47,-305.23 52.05,-301.56"/>
<polygon fill="#63b8ff" stroke="#63b8ff" points="55.52,-301.18 50.89,-291.65 48.57,-301.99 55.52,-301.18"/>
</a>
</g>
</g>
<!-- Node2 -->
<g id="Node000002" class="node">
<title>Node2</title>
<g id="a_Node000002"><a xlink:href="app_8c.html#aab258c808e8a91498793b4b066b32b06" target="_top" xlink:title=" ">
<polygon fill="white" stroke="#666666" points="172.25,-546.75 104.5,-546.75 104.5,-526 172.25,-526 172.25,-546.75"/>
<text text-anchor="middle" x="138.38" y="-533.25" font-family="Helvetica,sans-Serif" font-size="10.00">w2c__f229</text>
</a>
</g>
</g>
<!-- Node1&#45;&gt;Node2 -->
<g id="edge1_Node000001_Node000002" class="edge">
<title>Node1&#45;&gt;Node2</title>
<g id="a_edge1_Node000001_Node000002"><a xlink:title=" ">
<path fill="none" stroke="#63b8ff" d="M35.27,-290.06C37.11,-325.87 47.38,-443.51 103.75,-516.38 104.26,-517.04 104.81,-517.69 105.38,-518.32"/>
<polygon fill="#63b8ff" stroke="#63b8ff" points="102.81,-520.73 112.68,-524.55 107.35,-515.4 102.81,-520.73"/>
</a>
</g>
</g>
<!-- Node3 -->
<g id="Node000003" class="node">
<title>Node3</title>
<g id="a_Node000003"><a xlink:href="app_8c.html#a05ca6b8170e78cefae8ec5b6fc09939b" target="_top" xlink:title=" ">
<polygon fill="white" stroke="#666666" points="286.12,-546.75 210.88,-546.75 210.88,-526 286.12,-526 286.12,-546.75"/>
<text text-anchor="middle" x="248.5" y="-533.25" font-family="Helvetica,sans-Serif" font-size="10.00">wasm_fabsf</text>
</a>
</g>
</g>
<!-- Node1&#45;&gt;Node3 -->
<g id="edge46_Node000001_Node000003" class="edge">
<title>Node1&#45;&gt;Node3</title>
<g id="a_edge46_Node000001_Node000003"><a xlink:title=" ">
<path fill="none" stroke="#63b8ff" d="M35.82,-289.95C40.21,-336.38 60.26,-521.4 103.75,-555.38 136.23,-580.74 185.95,-565.9 217.58,-551.9"/>
<polygon fill="#63b8ff" stroke="#63b8ff" points="219.01,-555.09 226.58,-547.69 216.04,-548.75 219.01,-555.09"/>
</a>
</g>
</g>
<!-- Node4 -->
<g id="Node000004" class="node">
<title>Node4</title>
<g id="a_Node000004"><a xlink:href="app_8c.html#a4df29a1001189dbe0f42dff852d343fe" target="_top" xlink:title=" ">
<polygon fill="white" stroke="#666666" points="172.25,-507.75 104.5,-507.75 104.5,-487 172.25,-487 172.25,-507.75"/>
<text text-anchor="middle" x="138.38" y="-494.25" font-family="Helvetica,sans-Serif" font-size="10.00">w2c__f234</text>
</a>
</g>
</g>
<!-- Node1&#45;&gt;Node4 -->
<g id="edge3_Node000001_Node000004" class="edge">
<title>Node1&#45;&gt;Node4</title>
<g id="a_edge3_Node000001_Node000004"><a xlink:title=" ">
<path fill="none" stroke="#63b8ff" d="M36.37,-290.11C41.17,-321.29 58.57,-413.45 103.75,-473.38 105.45,-475.63 107.42,-477.76 109.54,-479.75"/>
<polygon fill="#63b8ff" stroke="#63b8ff" points="107.03,-482.22 117.02,-485.74 111.41,-476.76 107.03,-482.22"/>
</a>
</g>
</g>
<!-- Node5 -->
<g id="Node000005" class="node">
<title>Node5</title>
<g id="a_Node000005"><a xlink:href="app_8c.html#a177b896bb3ca11b154be35fca033e047" target="_top" xlink:title=" ">
<polygon fill="white" stroke="#666666" points="172.25,-403.75 104.5,-403.75 104.5,-383 172.25,-383 172.25,-403.75"/>
<text text-anchor="middle" x="138.38" y="-390.25" font-family="Helvetica,sans-Serif" font-size="10.00">w2c__f235</text>
</a>
</g>
</g>
<!-- Node1&#45;&gt;Node5 -->
<g id="edge5_Node000001_Node000005" class="edge">
<title>Node1&#45;&gt;Node5</title>
<g id="a_edge5_Node000001_Node000005"><a xlink:title=" ">
<path fill="none" stroke="#63b8ff" d="M41.61,-290.18C53.01,-307.95 77.45,-343.93 103.75,-369.38 105.99,-371.54 108.44,-373.67 110.97,-375.7"/>
<polygon fill="#63b8ff" stroke="#63b8ff" points="108.87,-378.5 118.98,-381.67 113.05,-372.89 108.87,-378.5"/>
</a>
</g>
</g>
<!-- Node6 -->
<g id="Node000006" class="node">
<title>Node6</title>
<g id="a_Node000006"><a xlink:href="app_8c.html#a954fa13f62a4fa2757b0f2bf4e9de60d" target="_top" xlink:title=" ">
<polygon fill="white" stroke="#666666" points="282.38,-403.75 214.62,-403.75 214.62,-383 282.38,-383 282.38,-403.75"/>
<text text-anchor="middle" x="248.5" y="-390.25" font-family="Helvetica,sans-Serif" font-size="10.00">w2c__f474</text>
</a>
</g>
</g>
<!-- Node1&#45;&gt;Node6 -->
<g id="edge36_Node000001_Node000006" class="edge">
<title>Node1&#45;&gt;Node6</title>
<g id="a_edge36_Node000001_Node000006"><a xlink:title=" ">
<path fill="none" stroke="#63b8ff" d="M46.94,-289.91C60.22,-301.15 82.51,-319.02 103.75,-331.38 136.66,-350.52 176.61,-367.28 206.03,-378.53"/>
<polygon fill="#63b8ff" stroke="#63b8ff" points="204.74,-381.79 215.33,-382.04 207.21,-375.24 204.74,-381.79"/>
</a>
</g>
</g>
<!-- Node7 -->
<g id="Node000007" class="node">
<title>Node7</title>
<g id="a_Node000007"><a xlink:href="app_8c.html#a800df00ef236c6d6affc3c661b37e3ad" target="_top" xlink:title=" ">
<polygon fill="white" stroke="#666666" points="599.25,-385.75 531.5,-385.75 531.5,-365 599.25,-365 599.25,-385.75"/>
<text text-anchor="middle" x="565.38" y="-372.25" font-family="Helvetica,sans-Serif" font-size="10.00">w2c__f487</text>
</a>
</g>
</g>
<!-- Node1&#45;&gt;Node7 -->
<g id="edge37_Node000001_Node000007" class="edge">
<title>Node1&#45;&gt;Node7</title>
<g id="a_edge37_Node000001_Node000007"><a xlink:title=" ">
<path fill="none" stroke="#63b8ff" d="M35.91,-289.89C39.38,-318.54 53.34,-397.96 103.75,-430.38 250.34,-524.63 329.02,-464.9 495.5,-413.38 511.04,-408.56 527.04,-400 539.7,-392.22"/>
<polygon fill="#63b8ff" stroke="#63b8ff" points="541.25,-395.38 547.79,-387.05 537.48,-389.48 541.25,-395.38"/>
</a>
</g>
</g>
<!-- Node9 -->
<g id="Node000009" class="node">
<title>Node9</title>
<g id="a_Node000009"><a xlink:href="app_8c.html#a25127e7223ad1048bed344feb10b4333" target="_top" xlink:title=" ">
<polygon fill="white" stroke="#666666" points="391.75,-347.75 324,-347.75 324,-327 391.75,-327 391.75,-347.75"/>
<text text-anchor="middle" x="357.88" y="-334.25" font-family="Helvetica,sans-Serif" font-size="10.00">w2c__f327</text>
</a>
</g>
</g>
<!-- Node1&#45;&gt;Node9 -->
<g id="edge11_Node000001_Node000009" class="edge">
<title>Node1&#45;&gt;Node9</title>
<g id="a_edge11_Node000001_Node000009"><a xlink:title=" ">
<path fill="none" stroke="#63b8ff" d="M68.12,-286.33C79.41,-288.64 92.12,-291.18 103.75,-293.38 176.74,-307.13 261.88,-321.61 312.48,-330.05"/>
<polygon fill="#63b8ff" stroke="#63b8ff" points="311.72,-333.47 322.16,-331.66 312.87,-326.57 311.72,-333.47"/>
</a>
</g>
</g>
<!-- Node10 -->
<g id="Node000010" class="node">
<title>Node10</title>
<g id="a_Node000010"><a xlink:href="app_8c.html#a756ffb69db4b9fa49d002e2126559e28" target="_top" xlink:title=" ">
<polygon fill="white" stroke="#666666" points="172.25,-251.75 104.5,-251.75 104.5,-231 172.25,-231 172.25,-251.75"/>
<text text-anchor="middle" x="138.38" y="-238.25" font-family="Helvetica,sans-Serif" font-size="10.00">w2c__f346</text>
</a>
</g>
</g>
<!-- Node1&#45;&gt;Node10 -->
<g id="edge13_Node000001_Node000010" class="edge">
<title>Node1&#45;&gt;Node10</title>
<g id="a_edge13_Node000001_Node000010"><a xlink:title=" ">
<path fill="none" stroke="#63b8ff" d="M63.97,-268.59C74.47,-264.7 86.5,-260.24 97.74,-256.07"/>
<polygon fill="#63b8ff" stroke="#63b8ff" points="98.63,-259.47 106.78,-252.72 96.19,-252.91 98.63,-259.47"/>
</a>
</g>
</g>
<!-- Node11 -->
<g id="Node000011" class="node">
<title>Node11</title>
<g id="a_Node000011"><a xlink:href="app_8c.html#abe1f70c7c6938f6dce1f562507454958" target="_top" xlink:title=" ">
<polygon fill="white" stroke="#666666" points="282.38,-289.75 214.62,-289.75 214.62,-269 282.38,-269 282.38,-289.75"/>
<text text-anchor="middle" x="248.5" y="-276.25" font-family="Helvetica,sans-Serif" font-size="10.00">w2c__f371</text>
</a>
</g>
</g>
<!-- Node1&#45;&gt;Node11 -->
<g id="edge28_Node000001_Node000011" class="edge">
<title>Node1&#45;&gt;Node11</title>
<g id="a_edge28_Node000001_Node000011"><a xlink:title=" ">
<path fill="none" stroke="#63b8ff" d="M68.1,-279.38C104.35,-279.38 162.57,-279.38 202.81,-279.38"/>
<polygon fill="#63b8ff" stroke="#63b8ff" points="202.65,-282.88 212.65,-279.38 202.65,-275.88 202.65,-282.88"/>
</a>
</g>
</g>
<!-- Node18 -->
<g id="Node000018" class="node">
<title>Node18</title>
<g id="a_Node000018"><a xlink:href="app_8c.html#a0e0dad0ebc52e45eeff2e1b5d8389ea4" target="_top" xlink:title=" ">
<polygon fill="white" stroke="#666666" points="599.25,-231.75 531.5,-231.75 531.5,-211 599.25,-211 599.25,-231.75"/>
<text text-anchor="middle" x="565.38" y="-218.25" font-family="Helvetica,sans-Serif" font-size="10.00">w2c__f534</text>
</a>
</g>
</g>
<!-- Node1&#45;&gt;Node18 -->
<g id="edge38_Node000001_Node000018" class="edge">
<title>Node1&#45;&gt;Node18</title>
<g id="a_edge38_Node000001_Node000018"><a xlink:title=" ">
<path fill="none" stroke="#63b8ff" d="M40.89,-268.6C51.25,-251.13 74.23,-216.93 103.75,-200.38 231.15,-128.95 282.21,-157.64 427.75,-145.38 457.75,-142.85 467.97,-133.17 495.5,-145.38 498.97,-146.91 528.41,-180.16 547.66,-202.17"/>
<polygon fill="#63b8ff" stroke="#63b8ff" points="544.98,-204.41 554.19,-209.65 550.25,-199.81 544.98,-204.41"/>
</a>
</g>
</g>
<!-- Node19 -->
<g id="Node000019" class="node">
<title>Node19</title>
<g id="a_Node000019"><a xlink:href="app_8c.html#af672285e87aeca1cf90c96a240f9e9ad" target="_top" xlink:title=" ">
<polygon fill="white" stroke="#666666" points="172.25,-137.75 104.5,-137.75 104.5,-117 172.25,-117 172.25,-137.75"/>
<text text-anchor="middle" x="138.38" y="-124.25" font-family="Helvetica,sans-Serif" font-size="10.00">w2c__f399</text>
</a>
</g>
</g>
<!-- Node1&#45;&gt;Node19 -->
<g id="edge29_Node000001_Node000019" class="edge">
<title>Node1&#45;&gt;Node19</title>
<g id="a_edge29_Node000001_Node000019"><a xlink:title=" ">
<path fill="none" stroke="#63b8ff" d="M38.66,-268.77C47.35,-245.5 70.55,-189.05 103.75,-151.38 105.66,-149.21 107.8,-147.13 110.05,-145.17"/>
<polygon fill="#63b8ff" stroke="#63b8ff" points="112.07,-148.03 117.83,-139.14 107.78,-142.49 112.07,-148.03"/>
</a>
</g>
</g>
<!-- Node22 -->
<g id="Node000022" class="node">
<title>Node22</title>
<g id="a_Node000022"><a xlink:href="app_8c.html#a8148ed87ce4342db8f3f3d26aa70af69" target="_top" xlink:title=" ">
<polygon fill="white" stroke="#666666" points="172.25,-98.75 104.5,-98.75 104.5,-78 172.25,-78 172.25,-98.75"/>
<text text-anchor="middle" x="138.38" y="-85.25" font-family="Helvetica,sans-Serif" font-size="10.00">w2c__f419</text>
</a>
</g>
</g>
<!-- Node1&#45;&gt;Node22 -->
<g id="edge33_Node000001_Node000022" class="edge">
<title>Node1&#45;&gt;Node22</title>
<g id="a_edge33_Node000001_Node000022"><a xlink:title=" ">
<path fill="none" stroke="#63b8ff" d="M36.74,-268.51C42.21,-239.44 60.64,-158.68 103.75,-108.38 104.31,-107.72 104.9,-107.08 105.52,-106.45"/>
<polygon fill="#63b8ff" stroke="#63b8ff" points="107.71,-109.18 113.29,-100.17 103.31,-103.73 107.71,-109.18"/>
</a>
</g>
</g>
<!-- Node24 -->
<g id="Node000024" class="node">
<title>Node24</title>
<g id="a_Node000024"><a xlink:href="app_8c.html#af732b1ecf09ff688adde158c29714bcd" target="_top" xlink:title=" ">
<polygon fill="white" stroke="#666666" points="172.25,-59.75 104.5,-59.75 104.5,-39 172.25,-39 172.25,-59.75"/>
<text text-anchor="middle" x="138.38" y="-46.25" font-family="Helvetica,sans-Serif" font-size="10.00">w2c__f436</text>
</a>
</g>
</g>
<!-- Node1&#45;&gt;Node24 -->
<g id="edge35_Node000001_Node000024" class="edge">
<title>Node1&#45;&gt;Node24</title>
<g id="a_edge35_Node000001_Node000024"><a xlink:title=" ">
<path fill="none" stroke="#63b8ff" d="M35.77,-268.52C39.03,-235.21 52.88,-132.85 103.75,-69.38 104.29,-68.7 104.86,-68.04 105.46,-67.4"/>
<polygon fill="#63b8ff" stroke="#63b8ff" points="107.67,-70.11 113.12,-61.03 103.19,-64.73 107.67,-70.11"/>
</a>
</g>
</g>
<!-- Node25 -->
<g id="Node000025" class="node">
<title>Node25</title>
<g id="a_Node000025"><a xlink:href="app_8c.html#a75d2a28c1bac8b1e29f069bf851fdba9" target="_top" xlink:title=" ">
<polygon fill="white" stroke="#666666" points="391.75,-213.75 324,-213.75 324,-193 391.75,-193 391.75,-213.75"/>
<text text-anchor="middle" x="357.88" y="-200.25" font-family="Helvetica,sans-Serif" font-size="10.00">w2c__f549</text>
</a>
</g>
</g>
<!-- Node1&#45;&gt;Node25 -->
<g id="edge39_Node000001_Node000025" class="edge">
<title>Node1&#45;&gt;Node25</title>
<g id="a_edge39_Node000001_Node000025"><a xlink:title=" ">
<path fill="none" stroke="#63b8ff" d="M43.84,-268.68C55.88,-255.18 78.7,-232.47 103.75,-222.38 172.72,-194.58 260.74,-195.17 312.73,-198.8"/>
<polygon fill="#63b8ff" stroke="#63b8ff" points="312.14,-202.27 322.38,-199.55 312.68,-195.29 312.14,-202.27"/>
</a>
</g>
</g>
<!-- Node29 -->
<g id="Node000029" class="node">
<title>Node29</title>
<g id="a_Node000029"><a xlink:href="app_8c.html#a22805979cc49b429d0fb4b7435774648" target="_top" xlink:title=" ">
<polygon fill="white" stroke="#666666" points="173,-20.75 103.75,-20.75 103.75,0 173,0 173,-20.75"/>
<text text-anchor="middle" x="138.38" y="-7.25" font-family="Helvetica,sans-Serif" font-size="10.00">wasm_sqrt</text>
</a>
</g>
</g>
<!-- Node1&#45;&gt;Node29 -->
<g id="edge47_Node000001_Node000029" class="edge">
<title>Node1&#45;&gt;Node29</title>
<g id="a_edge47_Node000001_Node000029"><a xlink:title=" ">
<path fill="none" stroke="#63b8ff" d="M35.09,-268.68C36.35,-231.71 44.96,-107.38 103.75,-30.38 104.26,-29.71 104.8,-29.06 105.36,-28.42"/>
<polygon fill="#63b8ff" stroke="#63b8ff" points="107.34,-31.34 112.65,-22.17 102.78,-26.03 107.34,-31.34"/>
</a>
</g>
</g>
<!-- Node2&#45;&gt;Node3 -->
<g id="edge2_Node000002_Node000003" class="edge">
<title>Node2&#45;&gt;Node3</title>
<g id="a_edge2_Node000002_Node000003"><a xlink:title=" ">
<path fill="none" stroke="#63b8ff" d="M172.7,-536.38C181.16,-536.38 190.43,-536.38 199.46,-536.38"/>
<polygon fill="#63b8ff" stroke="#63b8ff" points="199.2,-539.88 209.2,-536.38 199.2,-532.88 199.2,-539.88"/>
</a>
</g>
</g>
<!-- Node4&#45;&gt;Node3 -->
<g id="edge4_Node000004_Node000003" class="edge">
<title>Node4&#45;&gt;Node3</title>
<g id="a_edge4_Node000004_Node000003"><a xlink:title=" ">
<path fill="none" stroke="#63b8ff" d="M169.49,-508.24C181.09,-512.42 194.53,-517.27 206.96,-521.75"/>
<polygon fill="#63b8ff" stroke="#63b8ff" points="205.52,-524.96 216.12,-525.06 207.9,-518.37 205.52,-524.96"/>
</a>
</g>
</g>
<!-- Node5&#45;&gt;Node5 -->
<g id="edge6_Node000005_Node000005" class="edge">
<title>Node5&#45;&gt;Node5</title>
<g id="a_edge6_Node000005_Node000005"><a xlink:title=" ">
<path fill="none" stroke="#63b8ff" d="M121.54,-404.15C114.8,-412.81 120.41,-421.75 138.38,-421.75 147.92,-421.75 153.97,-419.23 156.55,-415.56"/>
<polygon fill="#63b8ff" stroke="#63b8ff" points="160.02,-415.18 155.39,-405.65 153.07,-415.99 160.02,-415.18"/>
</a>
</g>
</g>
<!-- Node5&#45;&gt;Node6 -->
<g id="edge7_Node000005_Node000006" class="edge">
<title>Node5&#45;&gt;Node6</title>
<g id="a_edge7_Node000005_Node000006"><a xlink:title=" ">
<path fill="none" stroke="#63b8ff" d="M172.7,-393.38C182.35,-393.38 193.03,-393.38 203.24,-393.38"/>
<polygon fill="#63b8ff" stroke="#63b8ff" points="202.96,-396.88 212.96,-393.38 202.96,-389.88 202.96,-396.88"/>
</a>
</g>
</g>
<!-- Node5&#45;&gt;Node7 -->
<g id="edge10_Node000005_Node000007" class="edge">
<title>Node5&#45;&gt;Node7</title>
<g id="a_edge10_Node000005_Node000007"><a xlink:title=" ">
<path fill="none" stroke="#63b8ff" d="M171.94,-404.19C183.51,-407.51 196.71,-410.73 209,-412.38 285.53,-422.63 487.4,-396.87 495.5,-395.38 503.93,-393.82 512.81,-391.66 521.28,-389.32"/>
<polygon fill="#63b8ff" stroke="#63b8ff" points="522.02,-392.75 530.66,-386.62 520.08,-386.03 522.02,-392.75"/>
</a>
</g>
</g>
<!-- Node6&#45;&gt;Node7 -->
<g id="edge8_Node000006_Node000007" class="edge">
<title>Node6&#45;&gt;Node7</title>
<g id="a_edge8_Node000006_Node000007"><a xlink:title=" ">
<path fill="none" stroke="#63b8ff" d="M282.6,-391.48C339.53,-388.23 456.02,-381.57 519.95,-377.91"/>
<polygon fill="#63b8ff" stroke="#63b8ff" points="519.95,-381.42 529.73,-377.36 519.55,-374.43 519.95,-381.42"/>
</a>
</g>
</g>
<!-- Node8 -->
<g id="Node000008" class="node">
<title>Node8</title>
<g id="a_Node000008"><a xlink:href="app_8c.html#a71bcbce7faf780cd081af3fa82d6da97" target="_top" xlink:title=" ">
<polygon fill="white" stroke="#666666" points="703,-328.75 635.25,-328.75 635.25,-308 703,-308 703,-328.75"/>
<text text-anchor="middle" x="669.12" y="-315.25" font-family="Helvetica,sans-Serif" font-size="10.00">w2c__f437</text>
</a>
</g>
</g>
<!-- Node7&#45;&gt;Node8 -->
<g id="edge9_Node000007_Node000008" class="edge">
<title>Node7&#45;&gt;Node8</title>
<g id="a_edge9_Node000007_Node000008"><a xlink:title=" ">
<path fill="none" stroke="#63b8ff" d="M585.51,-364.65C600.62,-356.19 621.95,-344.24 639.15,-334.6"/>
<polygon fill="#63b8ff" stroke="#63b8ff" points="640.39,-337.92 647.41,-329.98 636.97,-331.82 640.39,-337.92"/>
</a>
</g>
</g>
<!-- Node9&#45;&gt;Node7 -->
<g id="edge12_Node000009_Node000007" class="edge">
<title>Node9&#45;&gt;Node7</title>
<g id="a_edge12_Node000009_Node000007"><a xlink:title=" ">
<path fill="none" stroke="#63b8ff" d="M391.89,-343.48C426.69,-349.92 481.7,-360.09 520.21,-367.21"/>
<polygon fill="#63b8ff" stroke="#63b8ff" points="519.14,-370.57 529.61,-368.95 520.41,-363.69 519.14,-370.57"/>
</a>
</g>
</g>
<!-- Node10&#45;&gt;Node11 -->
<g id="edge14_Node000010_Node000011" class="edge">
<title>Node10&#45;&gt;Node11</title>
<g id="a_edge14_Node000010_Node000011"><a xlink:title=" ">
<path fill="none" stroke="#63b8ff" d="M170.07,-252.16C181.26,-256.09 194.09,-260.61 206.06,-264.81"/>
<polygon fill="#63b8ff" stroke="#63b8ff" points="204.71,-268.04 215.3,-268.06 207.03,-261.44 204.71,-268.04"/>
</a>
</g>
</g>
<!-- Node10&#45;&gt;Node18 -->
<g id="edge27_Node000010_Node000018" class="edge">
<title>Node10&#45;&gt;Node18</title>
<g id="a_edge27_Node000010_Node000018"><a xlink:title=" ">
<path fill="none" stroke="#63b8ff" d="M172.72,-239.81C248.6,-236.23 434.19,-227.5 519.79,-223.47"/>
<polygon fill="#63b8ff" stroke="#63b8ff" points="519.84,-226.97 529.67,-223.01 519.52,-219.98 519.84,-226.97"/>
</a>
</g>
</g>
<!-- Node12 -->
<g id="Node000012" class="node">
<title>Node12</title>
<g id="a_Node000012"><a xlink:href="app_8c.html#a14e021d2f1b59e04757852f66bff1044" target="_top" xlink:title=" ">
<polygon fill="white" stroke="#666666" points="391.75,-289.75 324,-289.75 324,-269 391.75,-269 391.75,-289.75"/>
<text text-anchor="middle" x="357.88" y="-276.25" font-family="Helvetica,sans-Serif" font-size="10.00">w2c__f511</text>
</a>
</g>
</g>
<!-- Node11&#45;&gt;Node12 -->
<g id="edge15_Node000011_Node000012" class="edge">
<title>Node11&#45;&gt;Node12</title>
<g id="a_edge15_Node000011_Node000012"><a xlink:title=" ">
<path fill="none" stroke="#63b8ff" d="M282.59,-279.38C291.98,-279.38 302.36,-279.38 312.31,-279.38"/>
<polygon fill="#63b8ff" stroke="#63b8ff" points="312.19,-282.88 322.19,-279.38 312.19,-275.88 312.19,-282.88"/>
</a>
</g>
</g>
<!-- Node13 -->
<g id="Node000013" class="node">
<title>Node13</title>
<g id="a_Node000013"><a xlink:href="app_8c.html#aa58fd7f1d3aab8404d7f71d334a8a108" target="_top" xlink:title=" ">
<polygon fill="white" stroke="#666666" points="495.5,-328.75 427.75,-328.75 427.75,-308 495.5,-308 495.5,-328.75"/>
<text text-anchor="middle" x="461.62" y="-315.25" font-family="Helvetica,sans-Serif" font-size="10.00">w2c__f211</text>
</a>
</g>
</g>
<!-- Node12&#45;&gt;Node13 -->
<g id="edge16_Node000012_Node000013" class="edge">
<title>Node12&#45;&gt;Node13</title>
<g id="a_edge16_Node000012_Node000013"><a xlink:title=" ">
<path fill="none" stroke="#63b8ff" d="M387.22,-290.24C397.91,-294.34 410.27,-299.08 421.76,-303.48"/>
<polygon fill="#63b8ff" stroke="#63b8ff" points="420.43,-306.72 431.02,-307.03 422.94,-300.18 420.43,-306.72"/>
</a>
</g>
</g>
<!-- Node17 -->
<g id="Node000017" class="node">
<title>Node17</title>
<g id="a_Node000017"><a xlink:href="app_8c.html#a8c90e9acf2d5915eb0476bc13964c4db" target="_top" xlink:title=" ">
<polygon fill="white" stroke="#666666" points="495.5,-289.75 427.75,-289.75 427.75,-269 495.5,-269 495.5,-289.75"/>
<text text-anchor="middle" x="461.62" y="-276.25" font-family="Helvetica,sans-Serif" font-size="10.00">w2c__f345</text>
</a>
</g>
</g>
<!-- Node12&#45;&gt;Node17 -->
<g id="edge22_Node000012_Node000017" class="edge">
<title>Node12&#45;&gt;Node17</title>
<g id="a_edge22_Node000012_Node000017"><a xlink:title=" ">
<path fill="none" stroke="#63b8ff" d="M392.19,-279.38C399.82,-279.38 408.06,-279.38 416.08,-279.38"/>
<polygon fill="#63b8ff" stroke="#63b8ff" points="416.07,-282.88 426.07,-279.38 416.07,-275.88 416.07,-282.88"/>
</a>
</g>
</g>
<!-- Node14 -->
<g id="Node000014" class="node">
<title>Node14</title>
<g id="a_Node000014"><a xlink:href="app_8c.html#a03fa34d93d32a3ee40dfc2d840730111" target="_top" xlink:title=" ">
<polygon fill="white" stroke="#666666" points="599.25,-289.75 531.5,-289.75 531.5,-269 599.25,-269 599.25,-289.75"/>
<text text-anchor="middle" x="565.38" y="-276.25" font-family="Helvetica,sans-Serif" font-size="10.00">w2c__f262</text>
</a>
</g>
</g>
<!-- Node13&#45;&gt;Node14 -->
<g id="edge17_Node000013_Node000014" class="edge">
<title>Node13&#45;&gt;Node14</title>
<g id="a_edge17_Node000013_Node000014"><a xlink:title=" ">
<path fill="none" stroke="#63b8ff" d="M490.97,-307.51C501.66,-303.41 514.02,-298.67 525.51,-294.27"/>
<polygon fill="#63b8ff" stroke="#63b8ff" points="526.69,-297.57 534.77,-290.72 524.18,-291.03 526.69,-297.57"/>
</a>
</g>
</g>
<!-- Node16 -->
<g id="Node000016" class="node">
<title>Node16</title>
<g id="a_Node000016"><a xlink:href="app_8c.html#a31b08a294227a9fc0a529e66ccd915dc" target="_top" xlink:title=" ">
<polygon fill="white" stroke="#666666" points="599.25,-328.75 531.5,-328.75 531.5,-308 599.25,-308 599.25,-328.75"/>
<text text-anchor="middle" x="565.38" y="-315.25" font-family="Helvetica,sans-Serif" font-size="10.00">w2c__f325</text>
</a>
</g>
</g>
<!-- Node13&#45;&gt;Node16 -->
<g id="edge20_Node000013_Node000016" class="edge">
<title>Node13&#45;&gt;Node16</title>
<g id="a_edge20_Node000013_Node000016"><a xlink:title=" ">
<path fill="none" stroke="#63b8ff" d="M495.94,-318.38C503.57,-318.38 511.81,-318.38 519.83,-318.38"/>
<polygon fill="#63b8ff" stroke="#63b8ff" points="519.82,-321.88 529.82,-318.38 519.82,-314.88 519.82,-321.88"/>
</a>
</g>
</g>
<!-- Node14&#45;&gt;Node8 -->
<g id="edge19_Node000014_Node000008" class="edge">
<title>Node14&#45;&gt;Node8</title>
<g id="a_edge19_Node000014_Node000008"><a xlink:title=" ">
<path fill="none" stroke="#63b8ff" d="M594.72,-290.24C605.41,-294.34 617.77,-299.08 629.26,-303.48"/>
<polygon fill="#63b8ff" stroke="#63b8ff" points="627.93,-306.72 638.52,-307.03 630.44,-300.18 627.93,-306.72"/>
</a>
</g>
</g>
<!-- Node15 -->
<g id="Node000015" class="node">
<title>Node15</title>
<g id="a_Node000015"><a xlink:href="app_8c.html#a16207b5f7a97b0ecfddd231452c5aa7e" target="_top" xlink:title=" ">
<polygon fill="white" stroke="#666666" points="703,-289.75 635.25,-289.75 635.25,-269 703,-269 703,-289.75"/>
<text text-anchor="middle" x="669.12" y="-276.25" font-family="Helvetica,sans-Serif" font-size="10.00">w2c__f263</text>
</a>
</g>
</g>
<!-- Node14&#45;&gt;Node15 -->
<g id="edge18_Node000014_Node000015" class="edge">
<title>Node14&#45;&gt;Node15</title>
<g id="a_edge18_Node000014_Node000015"><a xlink:title=" ">
<path fill="none" stroke="#63b8ff" d="M599.69,-279.38C607.32,-279.38 615.56,-279.38 623.58,-279.38"/>
<polygon fill="#63b8ff" stroke="#63b8ff" points="623.57,-282.88 633.57,-279.38 623.57,-275.88 623.57,-282.88"/>
</a>
</g>
</g>
<!-- Node16&#45;&gt;Node8 -->
<g id="edge21_Node000016_Node000008" class="edge">
<title>Node16&#45;&gt;Node8</title>
<g id="a_edge21_Node000016_Node000008"><a xlink:title=" ">
<path fill="none" stroke="#63b8ff" d="M599.69,-318.38C607.32,-318.38 615.56,-318.38 623.58,-318.38"/>
<polygon fill="#63b8ff" stroke="#63b8ff" points="623.57,-321.88 633.57,-318.38 623.57,-314.88 623.57,-321.88"/>
</a>
</g>
</g>
<!-- Node17&#45;&gt;Node7 -->
<g id="edge25_Node000017_Node000007" class="edge">
<title>Node17&#45;&gt;Node7</title>
<g id="a_edge25_Node000017_Node000007"><a xlink:title=" ">
<path fill="none" stroke="#63b8ff" d="M482.38,-290.12C486.86,-292.9 491.48,-296.06 495.5,-299.38 501.24,-304.12 528.88,-335.1 547.35,-356.02"/>
<polygon fill="#63b8ff" stroke="#63b8ff" points="544.61,-358.2 553.85,-363.39 549.86,-353.57 544.61,-358.2"/>
</a>
</g>
</g>
<!-- Node17&#45;&gt;Node14 -->
<g id="edge23_Node000017_Node000014" class="edge">
<title>Node17&#45;&gt;Node14</title>
<g id="a_edge23_Node000017_Node000014"><a xlink:title=" ">
<path fill="none" stroke="#63b8ff" d="M495.94,-279.38C503.57,-279.38 511.81,-279.38 519.83,-279.38"/>
<polygon fill="#63b8ff" stroke="#63b8ff" points="519.82,-282.88 529.82,-279.38 519.82,-275.88 519.82,-282.88"/>
</a>
</g>
</g>
<!-- Node17&#45;&gt;Node16 -->
<g id="edge24_Node000017_Node000016" class="edge">
<title>Node17&#45;&gt;Node16</title>
<g id="a_edge24_Node000017_Node000016"><a xlink:title=" ">
<path fill="none" stroke="#63b8ff" d="M490.97,-290.24C501.66,-294.34 514.02,-299.08 525.51,-303.48"/>
<polygon fill="#63b8ff" stroke="#63b8ff" points="524.18,-306.72 534.77,-307.03 526.69,-300.18 524.18,-306.72"/>
</a>
</g>
</g>
<!-- Node17&#45;&gt;Node18 -->
<g id="edge26_Node000017_Node000018" class="edge">
<title>Node17&#45;&gt;Node18</title>
<g id="a_edge26_Node000017_Node000018"><a xlink:title=" ">
<path fill="none" stroke="#63b8ff" d="M481.29,-268.74C496.54,-260.04 518.35,-247.61 535.8,-237.66"/>
<polygon fill="#63b8ff" stroke="#63b8ff" points="537.22,-240.88 544.17,-232.89 533.75,-234.8 537.22,-240.88"/>
</a>
</g>
</g>
<!-- Node20 -->
<g id="Node000020" class="node">
<title>Node20</title>
<g id="a_Node000020"><a xlink:href="app_8c.html#a3a6ad40f478d9734736d33254017f626" target="_top" xlink:title=" ">
<polygon fill="white" stroke="#666666" points="288,-137.75 209,-137.75 209,-117 288,-117 288,-137.75"/>
<text text-anchor="middle" x="248.5" y="-124.25" font-family="Helvetica,sans-Serif" font-size="10.00">wasm_quietf</text>
</a>
</g>
</g>
<!-- Node19&#45;&gt;Node20 -->
<g id="edge30_Node000019_Node000020" class="edge">
<title>Node19&#45;&gt;Node20</title>
<g id="a_edge30_Node000019_Node000020"><a xlink:title=" ">
<path fill="none" stroke="#63b8ff" d="M172.7,-127.38C180.55,-127.38 189.08,-127.38 197.49,-127.38"/>
<polygon fill="#63b8ff" stroke="#63b8ff" points="197.28,-130.88 207.28,-127.38 197.28,-123.88 197.28,-130.88"/>
</a>
</g>
</g>
<!-- Node21 -->
<g id="Node000021" class="node">
<title>Node21</title>
<g id="a_Node000021"><a xlink:href="app_8c.html#a6bbbe889100dc6eac42b2215653172ea" target="_top" xlink:title=" ">
<polygon fill="white" stroke="#666666" points="391.75,-119.75 324,-119.75 324,-99 391.75,-99 391.75,-119.75"/>
<text text-anchor="middle" x="357.88" y="-106.25" font-family="Helvetica,sans-Serif" font-size="10.00">quiet_nanf</text>
</a>
</g>
</g>
<!-- Node20&#45;&gt;Node21 -->
<g id="edge31_Node000020_Node000021" class="edge">
<title>Node20&#45;&gt;Node21</title>
<g id="a_edge31_Node000020_Node000021"><a xlink:title=" ">
<path fill="none" stroke="#63b8ff" d="M288.26,-120.88C296.19,-119.55 304.58,-118.14 312.67,-116.79"/>
<polygon fill="#63b8ff" stroke="#63b8ff" points="313.06,-120.27 322.35,-115.16 311.9,-113.37 313.06,-120.27"/>
</a>
</g>
</g>
<!-- Node21&#45;&gt;Node21 -->
<g id="edge32_Node000021_Node000021" class="edge">
<title>Node21&#45;&gt;Node21</title>
<g id="a_edge32_Node000021_Node000021"><a xlink:title=" ">
<path fill="none" stroke="#63b8ff" d="M341.16,-120.15C334.47,-128.81 340.04,-137.75 357.88,-137.75 367.35,-137.75 373.36,-135.23 375.91,-131.56"/>
<polygon fill="#63b8ff" stroke="#63b8ff" points="379.39,-131.18 374.77,-121.65 372.44,-131.99 379.39,-131.18"/>
</a>
</g>
</g>
<!-- Node23 -->
<g id="Node000023" class="node">
<title>Node23</title>
<g id="a_Node000023"><a xlink:href="app_8c.html#a954a47987372a607b2b4b06641dce13f" target="_top" xlink:title=" ">
<polygon fill="white" stroke="#666666" points="282.38,-98.75 214.62,-98.75 214.62,-78 282.38,-78 282.38,-98.75"/>
<text text-anchor="middle" x="248.5" y="-85.25" font-family="Helvetica,sans-Serif" font-size="10.00">w2c__f250</text>
</a>
</g>
</g>
<!-- Node22&#45;&gt;Node23 -->
<g id="edge34_Node000022_Node000023" class="edge">
<title>Node22&#45;&gt;Node23</title>
<g id="a_edge34_Node000022_Node000023"><a xlink:title=" ">
<path fill="none" stroke="#63b8ff" d="M172.7,-88.38C182.35,-88.38 193.03,-88.38 203.24,-88.38"/>
<polygon fill="#63b8ff" stroke="#63b8ff" points="202.96,-91.88 212.96,-88.38 202.96,-84.88 202.96,-91.88"/>
</a>
</g>
</g>
<!-- Node26 -->
<g id="Node000026" class="node">
<title>Node26</title>
<g id="a_Node000026"><a xlink:href="app_8c.html#ad9bca52de088793f15de1ea81b7d2dde" target="_top" xlink:title=" ">
<polygon fill="white" stroke="#666666" points="495.5,-174.75 427.75,-174.75 427.75,-154 495.5,-154 495.5,-174.75"/>
<text text-anchor="middle" x="461.62" y="-161.25" font-family="Helvetica,sans-Serif" font-size="10.00">w2c__f418</text>
</a>
</g>
</g>
<!-- Node25&#45;&gt;Node26 -->
<g id="edge40_Node000025_Node000026" class="edge">
<title>Node25&#45;&gt;Node26</title>
<g id="a_edge40_Node000025_Node000026"><a xlink:title=" ">
<path fill="none" stroke="#63b8ff" d="M387.22,-192.51C397.91,-188.41 410.27,-183.67 421.76,-179.27"/>
<polygon fill="#63b8ff" stroke="#63b8ff" points="422.94,-182.57 431.02,-175.72 420.43,-176.03 422.94,-182.57"/>
</a>
</g>
</g>
<!-- Node28 -->
<g id="Node000028" class="node">
<title>Node28</title>
<g id="a_Node000028"><a xlink:href="app_8c.html#a224a737afc755fe6bb552fc2a3f14f0e" target="_top" xlink:title=" ">
<polygon fill="white" stroke="#666666" points="495.5,-213.75 427.75,-213.75 427.75,-193 495.5,-193 495.5,-213.75"/>
<text text-anchor="middle" x="461.62" y="-200.25" font-family="Helvetica,sans-Serif" font-size="10.00">w2c__f424</text>
</a>
</g>
</g>
<!-- Node25&#45;&gt;Node28 -->
<g id="edge42_Node000025_Node000028" class="edge">
<title>Node25&#45;&gt;Node28</title>
<g id="a_edge42_Node000025_Node000028"><a xlink:title=" ">
<path fill="none" stroke="#63b8ff" d="M392.19,-203.38C399.82,-203.38 408.06,-203.38 416.08,-203.38"/>
<polygon fill="#63b8ff" stroke="#63b8ff" points="416.07,-206.88 426.07,-203.38 416.07,-199.88 416.07,-206.88"/>
</a>
</g>
</g>
<!-- Node27 -->
<g id="Node000027" class="node">
<title>Node27</title>
<g id="a_Node000027"><a xlink:href="app_8c.html#a5d082dff6c4c25de25da9f4dc538c097" target="_top" xlink:title=" ">
<polygon fill="white" stroke="#666666" points="599.25,-174.75 531.5,-174.75 531.5,-154 599.25,-154 599.25,-174.75"/>
<text text-anchor="middle" x="565.38" y="-161.25" font-family="Helvetica,sans-Serif" font-size="10.00">w2c__f265</text>
</a>
</g>
</g>
<!-- Node26&#45;&gt;Node27 -->
<g id="edge41_Node000026_Node000027" class="edge">
<title>Node26&#45;&gt;Node27</title>
<g id="a_edge41_Node000026_Node000027"><a xlink:title=" ">
<path fill="none" stroke="#63b8ff" d="M495.94,-164.38C503.57,-164.38 511.81,-164.38 519.83,-164.38"/>
<polygon fill="#63b8ff" stroke="#63b8ff" points="519.82,-167.88 529.82,-164.38 519.82,-160.88 519.82,-167.88"/>
</a>
</g>
</g>
<!-- Node28&#45;&gt;Node14 -->
<g id="edge43_Node000028_Node000014" class="edge">
<title>Node28&#45;&gt;Node14</title>
<g id="a_edge43_Node000028_Node000014"><a xlink:title=" ">
<path fill="none" stroke="#63b8ff" d="M476.77,-213.94C493.38,-226.35 521.18,-247.11 541.01,-261.92"/>
<polygon fill="#63b8ff" stroke="#63b8ff" points="538.7,-264.57 548.81,-267.75 542.89,-258.96 538.7,-264.57"/>
</a>
</g>
</g>
<!-- Node28&#45;&gt;Node18 -->
<g id="edge44_Node000028_Node000018" class="edge">
<title>Node28&#45;&gt;Node18</title>
<g id="a_edge44_Node000028_Node000018"><a xlink:title=" ">
<path fill="none" stroke="#63b8ff" d="M495.94,-209.27C503.66,-210.63 512,-212.11 520.11,-213.54"/>
<polygon fill="#63b8ff" stroke="#63b8ff" points="519.38,-216.97 529.84,-215.27 520.6,-210.08 519.38,-216.97"/>
</a>
</g>
</g>
<!-- Node30 -->
<g id="Node000030" class="node">
<title>Node30</title>
<g id="a_Node000030"><a xlink:href="app_8c.html#ae10979e670e507d4373e8cadcb3169aa" target="_top" xlink:title=" ">
<polygon fill="white" stroke="#666666" points="280.5,-20.75 216.5,-20.75 216.5,0 280.5,0 280.5,-20.75"/>
<text text-anchor="middle" x="248.5" y="-7.25" font-family="Helvetica,sans-Serif" font-size="10.00">quiet_nan</text>
</a>
</g>
</g>
<!-- Node29&#45;&gt;Node30 -->
<g id="edge48_Node000029_Node000030" class="edge">
<title>Node29&#45;&gt;Node30</title>
<g id="a_edge48_Node000029_Node000030"><a xlink:title=" ">
<path fill="none" stroke="#63b8ff" d="M173.29,-10.38C183.28,-10.38 194.34,-10.38 204.81,-10.38"/>
<polygon fill="#63b8ff" stroke="#63b8ff" points="204.77,-13.88 214.77,-10.38 204.77,-6.88 204.77,-13.88"/>
</a>
</g>
</g>
</g>
</svg>
