<?xml version="1.0" encoding="UTF-8" standalone="no"?>
<!DOCTYPE svg PUBLIC "-//W3C//DTD SVG 1.1//EN"
 "http://www.w3.org/Graphics/SVG/1.1/DTD/svg11.dtd">
<!-- Generated by graphviz version 12.2.1 (0)
 -->
<!-- Title: src/app.c Pages: 1 -->
<svg width="648pt" height="86pt"
 viewBox="0.00 0.00 647.88 85.50" xmlns="http://www.w3.org/2000/svg" xmlns:xlink="http://www.w3.org/1999/xlink">
<g id="graph0" class="graph" transform="scale(1 1) rotate(0) translate(4 81.5)">
<title>src/app.c</title>
<!-- Node1 -->
<g id="Node000001" class="node">
<title>Node1</title>
<g id="a_Node000001"><a xlink:title=" ">
<polygon fill="#999999" stroke="#666666" points="353.5,-77.5 294,-77.5 294,-56.75 353.5,-56.75 353.5,-77.5"/>
<text text-anchor="middle" x="323.75" y="-64" font-family="Helvetica,sans-Serif" font-size="10.00">src/app.c</text>
</a>
</g>
</g>
<!-- Node2 -->
<g id="Node000002" class="node">
<title>Node2</title>
<g id="a_Node000002"><a xlink:title=" ">
<polygon fill="#e0e0e0" stroke="#999999" points="65.5,-20.75 0,-20.75 0,0 65.5,0 65.5,-20.75"/>
<text text-anchor="middle" x="32.75" y="-7.25" font-family="Helvetica,sans-Serif" font-size="10.00">wasm&#45;rt.h</text>
</a>
</g>
</g>
<!-- Node1&#45;&gt;Node2 -->
<g id="edge1_Node000001_Node000002" class="edge">
<title>Node1&#45;&gt;Node2</title>
<g id="a_edge1_Node000001_Node000002"><a xlink:title=" ">
<path fill="none" stroke="#63b8ff" d="M293.78,-61.06C248.9,-53.38 161.32,-38.08 76.83,-21.11"/>
<polygon fill="#63b8ff" stroke="#63b8ff" points="77.72,-17.72 67.22,-19.17 76.33,-24.58 77.72,-17.72"/>
</a>
</g>
</g>
<!-- Node3 -->
<g id="Node000003" class="node">
<title>Node3</title>
<g id="a_Node000003"><a xlink:title=" ">
<polygon fill="#e0e0e0" stroke="#999999" points="136.12,-20.75 83.38,-20.75 83.38,0 136.12,0 136.12,-20.75"/>
<text text-anchor="middle" x="109.75" y="-7.25" font-family="Helvetica,sans-Serif" font-size="10.00">stdint.h</text>
</a>
</g>
</g>
<!-- Node1&#45;&gt;Node3 -->
<g id="edge2_Node000001_Node000003" class="edge">
<title>Node1&#45;&gt;Node3</title>
<g id="a_edge2_Node000001_Node000003"><a xlink:title=" ">
<path fill="none" stroke="#63b8ff" d="M293.63,-58.62C260.19,-50.26 204.32,-36.21 147.49,-21.44"/>
<polygon fill="#63b8ff" stroke="#63b8ff" points="148.52,-18.09 137.96,-18.96 146.75,-24.87 148.52,-18.09"/>
</a>
</g>
</g>
<!-- Node4 -->
<g id="Node000004" class="node">
<title>Node4</title>
<g id="a_Node000004"><a xlink:title=" ">
<polygon fill="#e0e0e0" stroke="#999999" points="209.25,-20.75 154.25,-20.75 154.25,0 209.25,0 209.25,-20.75"/>
<text text-anchor="middle" x="181.75" y="-7.25" font-family="Helvetica,sans-Serif" font-size="10.00">assert.h</text>
</a>
</g>
</g>
<!-- Node1&#45;&gt;Node4 -->
<g id="edge3_Node000001_Node000004" class="edge">
<title>Node1&#45;&gt;Node4</title>
<g id="a_edge3_Node000001_Node000004"><a xlink:title=" ">
<path fill="none" stroke="#63b8ff" d="M298.36,-56.34C275.85,-47.66 242.72,-34.88 217.52,-25.17"/>
<polygon fill="#63b8ff" stroke="#63b8ff" points="218.92,-21.95 208.33,-21.62 216.4,-28.49 218.92,-21.95"/>
</a>
</g>
</g>
<!-- Node5 -->
<g id="Node000005" class="node">
<title>Node5</title>
<g id="a_Node000005"><a xlink:title=" ">
<polygon fill="#e0e0e0" stroke="#999999" points="278,-20.75 227.5,-20.75 227.5,0 278,0 278,-20.75"/>
<text text-anchor="middle" x="252.75" y="-7.25" font-family="Helvetica,sans-Serif" font-size="10.00">math.h</text>
</a>
</g>
</g>
<!-- Node1&#45;&gt;Node5 -->
<g id="edge4_Node000001_Node000005" class="edge">
<title>Node1&#45;&gt;Node5</title>
<g id="a_edge4_Node000001_Node000005"><a xlink:title=" ">
<path fill="none" stroke="#63b8ff" d="M311.06,-56.34C300.86,-48.47 286.31,-37.25 274.29,-27.99"/>
<polygon fill="#63b8ff" stroke="#63b8ff" points="276.59,-25.34 266.53,-22 272.31,-30.88 276.59,-25.34"/>
</a>
</g>
</g>
<!-- Node6 -->
<g id="Node000006" class="node">
<title>Node6</title>
<g id="a_Node000006"><a xlink:title=" ">
<polygon fill="#e0e0e0" stroke="#999999" points="351.62,-20.75 295.88,-20.75 295.88,0 351.62,0 351.62,-20.75"/>
<text text-anchor="middle" x="323.75" y="-7.25" font-family="Helvetica,sans-Serif" font-size="10.00">stdarg.h</text>
</a>
</g>
</g>
<!-- Node1&#45;&gt;Node6 -->
<g id="edge5_Node000001_Node000006" class="edge">
<title>Node1&#45;&gt;Node6</title>
<g id="a_edge5_Node000001_Node000006"><a xlink:title=" ">
<path fill="none" stroke="#63b8ff" d="M323.75,-56.34C323.75,-49.72 323.75,-40.72 323.75,-32.52"/>
<polygon fill="#63b8ff" stroke="#63b8ff" points="327.25,-32.59 323.75,-22.59 320.25,-32.59 327.25,-32.59"/>
</a>
</g>
</g>
<!-- Node7 -->
<g id="Node000007" class="node">
<title>Node7</title>
<g id="a_Node000007"><a xlink:title=" ">
<polygon fill="#e0e0e0" stroke="#999999" points="424.25,-20.75 369.25,-20.75 369.25,0 424.25,0 424.25,-20.75"/>
<text text-anchor="middle" x="396.75" y="-7.25" font-family="Helvetica,sans-Serif" font-size="10.00">stddef.h</text>
</a>
</g>
</g>
<!-- Node1&#45;&gt;Node7 -->
<g id="edge6_Node000001_Node000007" class="edge">
<title>Node1&#45;&gt;Node7</title>
<g id="a_edge6_Node000001_Node000007"><a xlink:title=" ">
<path fill="none" stroke="#63b8ff" d="M336.8,-56.34C347.39,-48.4 362.54,-37.03 374.97,-27.71"/>
<polygon fill="#63b8ff" stroke="#63b8ff" points="376.7,-30.79 382.6,-21.99 372.5,-25.19 376.7,-30.79"/>
</a>
</g>
</g>
<!-- Node8 -->
<g id="Node000008" class="node">
<title>Node8</title>
<g id="a_Node000008"><a xlink:title=" ">
<polygon fill="#e0e0e0" stroke="#999999" points="495.12,-20.75 442.38,-20.75 442.38,0 495.12,0 495.12,-20.75"/>
<text text-anchor="middle" x="468.75" y="-7.25" font-family="Helvetica,sans-Serif" font-size="10.00">string.h</text>
</a>
</g>
</g>
<!-- Node1&#45;&gt;Node8 -->
<g id="edge7_Node000001_Node000008" class="edge">
<title>Node1&#45;&gt;Node8</title>
<g id="a_edge7_Node000001_Node000008"><a xlink:title=" ">
<path fill="none" stroke="#63b8ff" d="M349.67,-56.34C372.77,-47.62 406.79,-34.77 432.57,-25.04"/>
<polygon fill="#63b8ff" stroke="#63b8ff" points="433.52,-28.42 441.64,-21.61 431.04,-21.87 433.52,-28.42"/>
</a>
</g>
</g>
<!-- Node9 -->
<g id="Node000009" class="node">
<title>Node9</title>
<g id="a_Node000009"><a xlink:title=" ">
<polygon fill="#e0e0e0" stroke="#999999" points="567.88,-20.75 513.62,-20.75 513.62,0 567.88,0 567.88,-20.75"/>
<text text-anchor="middle" x="540.75" y="-7.25" font-family="Helvetica,sans-Serif" font-size="10.00">alloca.h</text>
</a>
</g>
</g>
<!-- Node1&#45;&gt;Node9 -->
<g id="edge8_Node000001_Node000009" class="edge">
<title>Node1&#45;&gt;Node9</title>
<g id="a_edge8_Node000001_Node000009"><a xlink:title=" ">
<path fill="none" stroke="#63b8ff" d="M353.69,-58.59C387.32,-50.12 443.82,-35.89 502.33,-21.11"/>
<polygon fill="#63b8ff" stroke="#63b8ff" points="502.97,-24.56 511.8,-18.71 501.25,-17.77 502.97,-24.56"/>
</a>
</g>
</g>
<!-- Node10 -->
<g id="Node000010" class="node">
<title>Node10</title>
<g id="a_Node000010"><a xlink:title=" ">
<polygon fill="#e0e0e0" stroke="#999999" points="639.88,-20.75 585.62,-20.75 585.62,0 639.88,0 639.88,-20.75"/>
<text text-anchor="middle" x="612.75" y="-7.25" font-family="Helvetica,sans-Serif" font-size="10.00">wasm.h</text>
</a>
</g>
</g>
<!-- Node1&#45;&gt;Node10 -->
<g id="edge9_Node000001_Node000010" class="edge">
<title>Node1&#45;&gt;Node10</title>
<g id="a_edge9_Node000001_Node000010"><a xlink:title=" ">
<path fill="none" stroke="#63b8ff" d="M353.89,-61.49C399.46,-54.32 488.85,-39.61 574.1,-21.2"/>
<polygon fill="#63b8ff" stroke="#63b8ff" points="574.78,-24.64 583.81,-19.08 573.29,-17.8 574.78,-24.64"/>
</a>
</g>
</g>
</g>
</svg>
