<?xml version="1.0" encoding="UTF-8" standalone="no"?>
<!DOCTYPE svg PUBLIC "-//W3C//DTD SVG 1.1//EN"
 "http://www.w3.org/Graphics/SVG/1.1/DTD/svg11.dtd">
<!-- Generated by graphviz version 12.2.1 (0)
 -->
<!-- Title: w2c__f207 Pages: 1 -->
<svg width="595pt" height="278pt"
 viewBox="0.00 0.00 594.50 277.75" xmlns="http://www.w3.org/2000/svg" xmlns:xlink="http://www.w3.org/1999/xlink">
<g id="graph0" class="graph" transform="scale(1 1) rotate(0) translate(4 273.75)">
<title>w2c__f207</title>
<!-- Node1 -->
<g id="Node000001" class="node">
<title>Node1</title>
<g id="a_Node000001"><a xlink:title=" ">
<polygon fill="#999999" stroke="#666666" points="67.75,-136.75 0,-136.75 0,-116 67.75,-116 67.75,-136.75"/>
<text text-anchor="middle" x="33.88" y="-123.25" font-family="Helvetica,sans-Serif" font-size="10.00">w2c__f207</text>
</a>
</g>
</g>
<!-- Node2 -->
<g id="Node000002" class="node">
<title>Node2</title>
<g id="a_Node000002"><a xlink:href="app_8c.html#a0378208e0d5c0d1d6e7370f1c578fab3" target="_top" xlink:title=" ">
<polygon fill="white" stroke="#666666" points="482.75,-269.75 415,-269.75 415,-249 482.75,-249 482.75,-269.75"/>
<text text-anchor="middle" x="448.88" y="-256.25" font-family="Helvetica,sans-Serif" font-size="10.00">w2c__f216</text>
</a>
</g>
</g>
<!-- Node1&#45;&gt;Node2 -->
<g id="edge1_Node000001_Node000002" class="edge">
<title>Node1&#45;&gt;Node2</title>
<g id="a_edge1_Node000001_Node000002"><a xlink:title=" ">
<path fill="none" stroke="#63b8ff" d="M40.9,-137.05C51.29,-154.34 74.31,-188.18 103.75,-204.38 200.71,-257.72 334.8,-262.91 403.46,-261.53"/>
<polygon fill="#63b8ff" stroke="#63b8ff" points="403.28,-265.04 413.18,-261.27 403.1,-258.04 403.28,-265.04"/>
</a>
</g>
</g>
<!-- Node4 -->
<g id="Node000004" class="node">
<title>Node4</title>
<g id="a_Node000004"><a xlink:href="app_8c.html#aaca5d5bcf49f2ca74019cf097750b9f3" target="_top" xlink:title=" ">
<polygon fill="white" stroke="#666666" points="482.75,-115.75 415,-115.75 415,-95 482.75,-95 482.75,-115.75"/>
<text text-anchor="middle" x="448.88" y="-102.25" font-family="Helvetica,sans-Serif" font-size="10.00">w2c__f258</text>
</a>
</g>
</g>
<!-- Node1&#45;&gt;Node4 -->
<g id="edge3_Node000001_Node000004" class="edge">
<title>Node1&#45;&gt;Node4</title>
<g id="a_edge3_Node000001_Node000004"><a xlink:title=" ">
<path fill="none" stroke="#63b8ff" d="M67.97,-124.69C141.76,-120.94 319.76,-111.89 403.25,-107.64"/>
<polygon fill="#63b8ff" stroke="#63b8ff" points="403.3,-111.15 413.11,-107.14 402.94,-104.16 403.3,-111.15"/>
</a>
</g>
</g>
<!-- Node6 -->
<g id="Node000006" class="node">
<title>Node6</title>
<g id="a_Node000006"><a xlink:href="app_8c.html#a35bde82d2203439a81740bfa13caa3b2" target="_top" xlink:title=" ">
<polygon fill="white" stroke="#666666" points="171.5,-98.75 103.75,-98.75 103.75,-78 171.5,-78 171.5,-98.75"/>
<text text-anchor="middle" x="137.62" y="-85.25" font-family="Helvetica,sans-Serif" font-size="10.00">w2c__f376</text>
</a>
</g>
</g>
<!-- Node1&#45;&gt;Node6 -->
<g id="edge6_Node000001_Node000006" class="edge">
<title>Node1&#45;&gt;Node6</title>
<g id="a_edge6_Node000001_Node000006"><a xlink:title=" ">
<path fill="none" stroke="#63b8ff" d="M63.76,-115.59C74.07,-111.74 85.88,-107.33 96.94,-103.2"/>
<polygon fill="#63b8ff" stroke="#63b8ff" points="98.11,-106.5 106.25,-99.72 95.66,-99.94 98.11,-106.5"/>
</a>
</g>
</g>
<!-- Node7 -->
<g id="Node000007" class="node">
<title>Node7</title>
<g id="a_Node000007"><a xlink:href="app_8c.html#abd73b615dc566f3bce8231cc128bfbd9" target="_top" xlink:title=" ">
<polygon fill="white" stroke="#666666" points="171.5,-59.75 103.75,-59.75 103.75,-39 171.5,-39 171.5,-59.75"/>
<text text-anchor="middle" x="137.62" y="-46.25" font-family="Helvetica,sans-Serif" font-size="10.00">w2c__f417</text>
</a>
</g>
</g>
<!-- Node1&#45;&gt;Node7 -->
<g id="edge7_Node000001_Node000007" class="edge">
<title>Node1&#45;&gt;Node7</title>
<g id="a_edge7_Node000001_Node000007"><a xlink:title=" ">
<path fill="none" stroke="#63b8ff" d="M46.65,-115.74C60.03,-103.85 82.76,-84.32 103.75,-69.38 105.28,-68.28 106.88,-67.19 108.5,-66.11"/>
<polygon fill="#63b8ff" stroke="#63b8ff" points="110.06,-69.26 116.62,-60.94 106.3,-63.36 110.06,-69.26"/>
</a>
</g>
</g>
<!-- Node8 -->
<g id="Node000008" class="node">
<title>Node8</title>
<g id="a_Node000008"><a xlink:href="app_8c.html#ac9cc84763a9c1933e50eedd7a06c17e2" target="_top" xlink:title=" ">
<polygon fill="white" stroke="#666666" points="379,-193.75 311.25,-193.75 311.25,-173 379,-173 379,-193.75"/>
<text text-anchor="middle" x="345.12" y="-180.25" font-family="Helvetica,sans-Serif" font-size="10.00">w2c__f480</text>
</a>
</g>
</g>
<!-- Node1&#45;&gt;Node8 -->
<g id="edge8_Node000001_Node000008" class="edge">
<title>Node1&#45;&gt;Node8</title>
<g id="a_edge8_Node000001_Node000008"><a xlink:title=" ">
<path fill="none" stroke="#63b8ff" d="M43.32,-136.88C55.13,-150.65 78.05,-174.12 103.75,-183.38 168.82,-206.81 250.37,-199.9 299.8,-192.12"/>
<polygon fill="#63b8ff" stroke="#63b8ff" points="300.26,-195.59 309.55,-190.49 299.11,-188.68 300.26,-195.59"/>
</a>
</g>
</g>
<!-- Node11 -->
<g id="Node000011" class="node">
<title>Node11</title>
<g id="a_Node000011"><a xlink:href="app_8c.html#aeda0fdcf4b3bed63365b3a77c2197b09" target="_top" xlink:title=" ">
<polygon fill="white" stroke="#666666" points="171.5,-20.75 103.75,-20.75 103.75,0 171.5,0 171.5,-20.75"/>
<text text-anchor="middle" x="137.62" y="-7.25" font-family="Helvetica,sans-Serif" font-size="10.00">w2c__f538</text>
</a>
</g>
</g>
<!-- Node1&#45;&gt;Node11 -->
<g id="edge15_Node000001_Node000011" class="edge">
<title>Node1&#45;&gt;Node11</title>
<g id="a_edge15_Node000001_Node000011"><a xlink:title=" ">
<path fill="none" stroke="#63b8ff" d="M40.72,-115.51C51.33,-96.5 75.32,-56.73 103.75,-30.38 104.66,-29.53 105.6,-28.71 106.58,-27.91"/>
<polygon fill="#63b8ff" stroke="#63b8ff" points="108.58,-30.78 114.67,-22.11 104.5,-25.09 108.58,-30.78"/>
</a>
</g>
</g>
<!-- Node12 -->
<g id="Node000012" class="node">
<title>Node12</title>
<g id="a_Node000012"><a xlink:href="app_8c.html#a4fd0a4cb4b78f7e4a76d64b8921bc5dc" target="_top" xlink:title=" ">
<polygon fill="white" stroke="#666666" points="171.5,-174.75 103.75,-174.75 103.75,-154 171.5,-154 171.5,-174.75"/>
<text text-anchor="middle" x="137.62" y="-161.25" font-family="Helvetica,sans-Serif" font-size="10.00">w2c__f574</text>
</a>
</g>
</g>
<!-- Node1&#45;&gt;Node12 -->
<g id="edge16_Node000001_Node000012" class="edge">
<title>Node1&#45;&gt;Node12</title>
<g id="a_edge16_Node000001_Node000012"><a xlink:title=" ">
<path fill="none" stroke="#63b8ff" d="M63.76,-137.16C74.07,-141.01 85.88,-145.42 96.94,-149.55"/>
<polygon fill="#63b8ff" stroke="#63b8ff" points="95.66,-152.81 106.25,-153.03 98.11,-146.25 95.66,-152.81"/>
</a>
</g>
</g>
<!-- Node3 -->
<g id="Node000003" class="node">
<title>Node3</title>
<g id="a_Node000003"><a xlink:href="app_8c.html#a8d9f347f9a643f0ebfb53c4f54578ac4" target="_top" xlink:title=" ">
<polygon fill="white" stroke="#666666" points="586.5,-212.75 518.75,-212.75 518.75,-192 586.5,-192 586.5,-212.75"/>
<text text-anchor="middle" x="552.62" y="-199.25" font-family="Helvetica,sans-Serif" font-size="10.00">w2c__f304</text>
</a>
</g>
</g>
<!-- Node2&#45;&gt;Node3 -->
<g id="edge2_Node000002_Node000003" class="edge">
<title>Node2&#45;&gt;Node3</title>
<g id="a_edge2_Node000002_Node000003"><a xlink:title=" ">
<path fill="none" stroke="#63b8ff" d="M469.01,-248.65C484.12,-240.19 505.45,-228.24 522.65,-218.6"/>
<polygon fill="#63b8ff" stroke="#63b8ff" points="523.89,-221.92 530.91,-213.98 520.47,-215.82 523.89,-221.92"/>
</a>
</g>
</g>
<!-- Node4&#45;&gt;Node3 -->
<g id="edge4_Node000004_Node000003" class="edge">
<title>Node4&#45;&gt;Node3</title>
<g id="a_edge4_Node000004_Node000003"><a xlink:title=" ">
<path fill="none" stroke="#63b8ff" d="M469.64,-116.1C474.13,-118.88 478.74,-122.04 482.75,-125.38 503.5,-142.63 523.65,-166.2 536.74,-182.71"/>
<polygon fill="#63b8ff" stroke="#63b8ff" points="533.75,-184.56 542.65,-190.31 539.28,-180.27 533.75,-184.56"/>
</a>
</g>
</g>
<!-- Node5 -->
<g id="Node000005" class="node">
<title>Node5</title>
<g id="a_Node000005"><a xlink:href="app_8c.html#a881f0b113e93dce3ff52d04b435850f6" target="_top" xlink:title=" ">
<polygon fill="white" stroke="#666666" points="586.5,-115.75 518.75,-115.75 518.75,-95 586.5,-95 586.5,-115.75"/>
<text text-anchor="middle" x="552.62" y="-102.25" font-family="Helvetica,sans-Serif" font-size="10.00">w2c__f491</text>
</a>
</g>
</g>
<!-- Node4&#45;&gt;Node5 -->
<g id="edge5_Node000004_Node000005" class="edge">
<title>Node4&#45;&gt;Node5</title>
<g id="a_edge5_Node000004_Node000005"><a xlink:title=" ">
<path fill="none" stroke="#63b8ff" d="M483.19,-105.38C490.82,-105.38 499.06,-105.38 507.08,-105.38"/>
<polygon fill="#63b8ff" stroke="#63b8ff" points="507.07,-108.88 517.07,-105.38 507.07,-101.88 507.07,-108.88"/>
</a>
</g>
</g>
<!-- Node8&#45;&gt;Node2 -->
<g id="edge9_Node000008_Node000002" class="edge">
<title>Node8&#45;&gt;Node2</title>
<g id="a_edge9_Node000008_Node000002"><a xlink:title=" ">
<path fill="none" stroke="#63b8ff" d="M360.32,-194.2C374.21,-204.76 395.99,-221.26 415,-235.38 417.86,-237.5 420.86,-239.71 423.85,-241.9"/>
<polygon fill="#63b8ff" stroke="#63b8ff" points="421.75,-244.7 431.89,-247.78 425.88,-239.05 421.75,-244.7"/>
</a>
</g>
</g>
<!-- Node8&#45;&gt;Node3 -->
<g id="edge13_Node000008_Node000003" class="edge">
<title>Node8&#45;&gt;Node3</title>
<g id="a_edge13_Node000008_Node000003"><a xlink:title=" ">
<path fill="none" stroke="#63b8ff" d="M378.33,-194.19C389.77,-197.51 402.83,-200.73 415,-202.38 445.51,-206.51 480.2,-206.45 506.99,-205.39"/>
<polygon fill="#63b8ff" stroke="#63b8ff" points="506.99,-208.89 516.82,-204.93 506.66,-201.9 506.99,-208.89"/>
</a>
</g>
</g>
<!-- Node8&#45;&gt;Node4 -->
<g id="edge10_Node000008_Node000004" class="edge">
<title>Node8&#45;&gt;Node4</title>
<g id="a_edge10_Node000008_Node000004"><a xlink:title=" ">
<path fill="none" stroke="#63b8ff" d="M357.86,-172.53C371.22,-160.41 393.93,-140.52 415,-125.38 416.53,-124.28 418.12,-123.18 419.74,-122.09"/>
<polygon fill="#63b8ff" stroke="#63b8ff" points="421.3,-125.25 427.85,-116.92 417.53,-119.35 421.3,-125.25"/>
</a>
</g>
</g>
<!-- Node9 -->
<g id="Node000009" class="node">
<title>Node9</title>
<g id="a_Node000009"><a xlink:href="app_8c.html#a4634342addbde677893ffcb45cf639dd" target="_top" xlink:title=" ">
<polygon fill="white" stroke="#666666" points="482.75,-193.75 415,-193.75 415,-173 482.75,-173 482.75,-193.75"/>
<text text-anchor="middle" x="448.88" y="-180.25" font-family="Helvetica,sans-Serif" font-size="10.00">w2c__f302</text>
</a>
</g>
</g>
<!-- Node8&#45;&gt;Node9 -->
<g id="edge11_Node000008_Node000009" class="edge">
<title>Node8&#45;&gt;Node9</title>
<g id="a_edge11_Node000008_Node000009"><a xlink:title=" ">
<path fill="none" stroke="#63b8ff" d="M379.44,-183.38C387.07,-183.38 395.31,-183.38 403.33,-183.38"/>
<polygon fill="#63b8ff" stroke="#63b8ff" points="403.32,-186.88 413.32,-183.38 403.32,-179.88 403.32,-186.88"/>
</a>
</g>
</g>
<!-- Node10 -->
<g id="Node000010" class="node">
<title>Node10</title>
<g id="a_Node000010"><a xlink:href="app_8c.html#a674f6e81761467d0a8dc6d2a425eda9f" target="_top" xlink:title=" ">
<polygon fill="white" stroke="#666666" points="482.75,-154.75 415,-154.75 415,-134 482.75,-134 482.75,-154.75"/>
<text text-anchor="middle" x="448.88" y="-141.25" font-family="Helvetica,sans-Serif" font-size="10.00">w2c__f498</text>
</a>
</g>
</g>
<!-- Node8&#45;&gt;Node10 -->
<g id="edge14_Node000008_Node000010" class="edge">
<title>Node8&#45;&gt;Node10</title>
<g id="a_edge14_Node000008_Node000010"><a xlink:title=" ">
<path fill="none" stroke="#63b8ff" d="M374.47,-172.51C385.16,-168.41 397.52,-163.67 409.01,-159.27"/>
<polygon fill="#63b8ff" stroke="#63b8ff" points="410.19,-162.57 418.27,-155.72 407.68,-156.03 410.19,-162.57"/>
</a>
</g>
</g>
<!-- Node9&#45;&gt;Node3 -->
<g id="edge12_Node000009_Node000003" class="edge">
<title>Node9&#45;&gt;Node3</title>
<g id="a_edge12_Node000009_Node000003"><a xlink:title=" ">
<path fill="none" stroke="#63b8ff" d="M483.19,-189.6C490.91,-191.04 499.25,-192.59 507.36,-194.11"/>
<polygon fill="#63b8ff" stroke="#63b8ff" points="506.62,-197.53 517.09,-195.93 507.91,-190.65 506.62,-197.53"/>
</a>
</g>
</g>
<!-- Node13 -->
<g id="Node000013" class="node">
<title>Node13</title>
<g id="a_Node000013"><a xlink:href="app_8c.html#ae7fb023a7298e99149ca1f090e524235" target="_top" xlink:title=" ">
<polygon fill="white" stroke="#666666" points="275.25,-174.75 207.5,-174.75 207.5,-154 275.25,-154 275.25,-174.75"/>
<text text-anchor="middle" x="241.38" y="-161.25" font-family="Helvetica,sans-Serif" font-size="10.00">w2c__f281</text>
</a>
</g>
</g>
<!-- Node12&#45;&gt;Node13 -->
<g id="edge17_Node000012_Node000013" class="edge">
<title>Node12&#45;&gt;Node13</title>
<g id="a_edge17_Node000012_Node000013"><a xlink:title=" ">
<path fill="none" stroke="#63b8ff" d="M171.94,-164.38C179.57,-164.38 187.81,-164.38 195.83,-164.38"/>
<polygon fill="#63b8ff" stroke="#63b8ff" points="195.82,-167.88 205.82,-164.38 195.82,-160.88 195.82,-167.88"/>
</a>
</g>
</g>
<!-- Node13&#45;&gt;Node8 -->
<g id="edge18_Node000013_Node000008" class="edge">
<title>Node13&#45;&gt;Node8</title>
<g id="a_edge18_Node000013_Node000008"><a xlink:title=" ">
<path fill="none" stroke="#63b8ff" d="M275.69,-170.6C283.41,-172.04 291.75,-173.59 299.86,-175.11"/>
<polygon fill="#63b8ff" stroke="#63b8ff" points="299.12,-178.53 309.59,-176.93 300.41,-171.65 299.12,-178.53"/>
</a>
</g>
</g>
</g>
</svg>
