<?xml version="1.0" encoding="UTF-8" standalone="no"?>
<!DOCTYPE svg PUBLIC "-//W3C//DTD SVG 1.1//EN"
 "http://www.w3.org/Graphics/SVG/1.1/DTD/svg11.dtd">
<!-- Generated by graphviz version 12.2.1 (0)
 -->
<!-- Title: w2c__f549 Pages: 1 -->
<svg width="387pt" height="107pt"
 viewBox="0.00 0.00 387.00 106.75" xmlns="http://www.w3.org/2000/svg" xmlns:xlink="http://www.w3.org/1999/xlink">
<g id="graph0" class="graph" transform="scale(1 1) rotate(0) translate(4 102.75)">
<title>w2c__f549</title>
<!-- Node1 -->
<g id="Node000001" class="node">
<title>Node1</title>
<g id="a_Node000001"><a xlink:title=" ">
<polygon fill="#999999" stroke="#666666" points="67.75,-78.75 0,-78.75 0,-58 67.75,-58 67.75,-78.75"/>
<text text-anchor="middle" x="33.88" y="-65.25" font-family="Helvetica,sans-Serif" font-size="10.00">w2c__f549</text>
</a>
</g>
</g>
<!-- Node2 -->
<g id="Node000002" class="node">
<title>Node2</title>
<g id="a_Node000002"><a xlink:href="app_8c.html#ad9bca52de088793f15de1ea81b7d2dde" target="_top" xlink:title=" ">
<polygon fill="white" stroke="#666666" points="171.5,-98.75 103.75,-98.75 103.75,-78 171.5,-78 171.5,-98.75"/>
<text text-anchor="middle" x="137.62" y="-85.25" font-family="Helvetica,sans-Serif" font-size="10.00">w2c__f418</text>
</a>
</g>
</g>
<!-- Node1&#45;&gt;Node2 -->
<g id="edge1_Node000001_Node000002" class="edge">
<title>Node1&#45;&gt;Node2</title>
<g id="a_edge1_Node000001_Node000002"><a xlink:title=" ">
<path fill="none" stroke="#63b8ff" d="M68.19,-74.92C75.91,-76.44 84.25,-78.08 92.36,-79.67"/>
<polygon fill="#63b8ff" stroke="#63b8ff" points="91.61,-83.09 102.1,-81.59 92.96,-76.22 91.61,-83.09"/>
</a>
</g>
</g>
<!-- Node4 -->
<g id="Node000004" class="node">
<title>Node4</title>
<g id="a_Node000004"><a xlink:href="app_8c.html#a224a737afc755fe6bb552fc2a3f14f0e" target="_top" xlink:title=" ">
<polygon fill="white" stroke="#666666" points="171.5,-59.75 103.75,-59.75 103.75,-39 171.5,-39 171.5,-59.75"/>
<text text-anchor="middle" x="137.62" y="-46.25" font-family="Helvetica,sans-Serif" font-size="10.00">w2c__f424</text>
</a>
</g>
</g>
<!-- Node1&#45;&gt;Node4 -->
<g id="edge3_Node000001_Node000004" class="edge">
<title>Node1&#45;&gt;Node4</title>
<g id="a_edge3_Node000001_Node000004"><a xlink:title=" ">
<path fill="none" stroke="#63b8ff" d="M68.19,-62.15C75.91,-60.71 84.25,-59.16 92.36,-57.64"/>
<polygon fill="#63b8ff" stroke="#63b8ff" points="92.91,-61.1 102.09,-55.82 91.62,-54.22 92.91,-61.1"/>
</a>
</g>
</g>
<!-- Node3 -->
<g id="Node000003" class="node">
<title>Node3</title>
<g id="a_Node000003"><a xlink:href="app_8c.html#a5d082dff6c4c25de25da9f4dc538c097" target="_top" xlink:title=" ">
<polygon fill="white" stroke="#666666" points="275.25,-98.75 207.5,-98.75 207.5,-78 275.25,-78 275.25,-98.75"/>
<text text-anchor="middle" x="241.38" y="-85.25" font-family="Helvetica,sans-Serif" font-size="10.00">w2c__f265</text>
</a>
</g>
</g>
<!-- Node2&#45;&gt;Node3 -->
<g id="edge2_Node000002_Node000003" class="edge">
<title>Node2&#45;&gt;Node3</title>
<g id="a_edge2_Node000002_Node000003"><a xlink:title=" ">
<path fill="none" stroke="#63b8ff" d="M171.94,-88.38C179.57,-88.38 187.81,-88.38 195.83,-88.38"/>
<polygon fill="#63b8ff" stroke="#63b8ff" points="195.82,-91.88 205.82,-88.38 195.82,-84.88 195.82,-91.88"/>
</a>
</g>
</g>
<!-- Node5 -->
<g id="Node000005" class="node">
<title>Node5</title>
<g id="a_Node000005"><a xlink:href="app_8c.html#a03fa34d93d32a3ee40dfc2d840730111" target="_top" xlink:title=" ">
<polygon fill="white" stroke="#666666" points="275.25,-59.75 207.5,-59.75 207.5,-39 275.25,-39 275.25,-59.75"/>
<text text-anchor="middle" x="241.38" y="-46.25" font-family="Helvetica,sans-Serif" font-size="10.00">w2c__f262</text>
</a>
</g>
</g>
<!-- Node4&#45;&gt;Node5 -->
<g id="edge4_Node000004_Node000005" class="edge">
<title>Node4&#45;&gt;Node5</title>
<g id="a_edge4_Node000004_Node000005"><a xlink:title=" ">
<path fill="none" stroke="#63b8ff" d="M171.94,-49.38C179.57,-49.38 187.81,-49.38 195.83,-49.38"/>
<polygon fill="#63b8ff" stroke="#63b8ff" points="195.82,-52.88 205.82,-49.38 195.82,-45.88 195.82,-52.88"/>
</a>
</g>
</g>
<!-- Node8 -->
<g id="Node000008" class="node">
<title>Node8</title>
<g id="a_Node000008"><a xlink:href="app_8c.html#a0e0dad0ebc52e45eeff2e1b5d8389ea4" target="_top" xlink:title=" ">
<polygon fill="white" stroke="#666666" points="275.25,-20.75 207.5,-20.75 207.5,0 275.25,0 275.25,-20.75"/>
<text text-anchor="middle" x="241.38" y="-7.25" font-family="Helvetica,sans-Serif" font-size="10.00">w2c__f534</text>
</a>
</g>
</g>
<!-- Node4&#45;&gt;Node8 -->
<g id="edge7_Node000004_Node000008" class="edge">
<title>Node4&#45;&gt;Node8</title>
<g id="a_edge7_Node000004_Node000008"><a xlink:title=" ">
<path fill="none" stroke="#63b8ff" d="M166.97,-38.51C177.66,-34.41 190.02,-29.67 201.51,-25.27"/>
<polygon fill="#63b8ff" stroke="#63b8ff" points="202.69,-28.57 210.77,-21.72 200.18,-22.03 202.69,-28.57"/>
</a>
</g>
</g>
<!-- Node6 -->
<g id="Node000006" class="node">
<title>Node6</title>
<g id="a_Node000006"><a xlink:href="app_8c.html#a16207b5f7a97b0ecfddd231452c5aa7e" target="_top" xlink:title=" ">
<polygon fill="white" stroke="#666666" points="379,-78.75 311.25,-78.75 311.25,-58 379,-58 379,-78.75"/>
<text text-anchor="middle" x="345.12" y="-65.25" font-family="Helvetica,sans-Serif" font-size="10.00">w2c__f263</text>
</a>
</g>
</g>
<!-- Node5&#45;&gt;Node6 -->
<g id="edge5_Node000005_Node000006" class="edge">
<title>Node5&#45;&gt;Node6</title>
<g id="a_edge5_Node000005_Node000006"><a xlink:title=" ">
<path fill="none" stroke="#63b8ff" d="M275.69,-55.6C283.41,-57.04 291.75,-58.59 299.86,-60.11"/>
<polygon fill="#63b8ff" stroke="#63b8ff" points="299.12,-63.53 309.59,-61.93 300.41,-56.65 299.12,-63.53"/>
</a>
</g>
</g>
<!-- Node7 -->
<g id="Node000007" class="node">
<title>Node7</title>
<g id="a_Node000007"><a xlink:href="app_8c.html#a71bcbce7faf780cd081af3fa82d6da97" target="_top" xlink:title=" ">
<polygon fill="white" stroke="#666666" points="379,-39.75 311.25,-39.75 311.25,-19 379,-19 379,-39.75"/>
<text text-anchor="middle" x="345.12" y="-26.25" font-family="Helvetica,sans-Serif" font-size="10.00">w2c__f437</text>
</a>
</g>
</g>
<!-- Node5&#45;&gt;Node7 -->
<g id="edge6_Node000005_Node000007" class="edge">
<title>Node5&#45;&gt;Node7</title>
<g id="a_edge6_Node000005_Node000007"><a xlink:title=" ">
<path fill="none" stroke="#63b8ff" d="M275.69,-42.83C283.41,-41.31 291.75,-39.67 299.86,-38.08"/>
<polygon fill="#63b8ff" stroke="#63b8ff" points="300.46,-41.53 309.6,-36.16 299.11,-34.66 300.46,-41.53"/>
</a>
</g>
</g>
</g>
</svg>
