<?xml version="1.0" encoding="UTF-8" standalone="no"?>
<!DOCTYPE svg PUBLIC "-//W3C//DTD SVG 1.1//EN"
 "http://www.w3.org/Graphics/SVG/1.1/DTD/svg11.dtd">
<!-- Generated by graphviz version 12.2.1 (0)
 -->
<!-- Title: w2c_0_19 Pages: 1 -->
<svg width="837pt" height="994pt"
 viewBox="0.00 0.00 837.00 993.88" xmlns="http://www.w3.org/2000/svg" xmlns:xlink="http://www.w3.org/1999/xlink">
<g id="graph0" class="graph" transform="scale(1 1) rotate(0) translate(4 989.88)">
<title>w2c_0_19</title>
<!-- Node1 -->
<g id="Node000001" class="node">
<title>Node1</title>
<g id="a_Node000001"><a xlink:title=" ">
<polygon fill="#999999" stroke="#666666" points="829,-421.24 765,-421.24 765,-400.49 829,-400.49 829,-421.24"/>
<text text-anchor="middle" x="797" y="-407.74" font-family="Helvetica,sans-Serif" font-size="10.00">w2c_0_19</text>
</a>
</g>
</g>
<!-- Node2 -->
<g id="Node000002" class="node">
<title>Node2</title>
<g id="a_Node000002"><a xlink:href="app_8c.html#a5afd0bdcabe1312572f585b64e00c911" target="_top" xlink:title=" ">
<polygon fill="white" stroke="#666666" points="716.25,-421.24 648.5,-421.24 648.5,-400.49 716.25,-400.49 716.25,-421.24"/>
<text text-anchor="middle" x="682.38" y="-407.74" font-family="Helvetica,sans-Serif" font-size="10.00">w2c__f256</text>
</a>
</g>
</g>
<!-- Node1&#45;&gt;Node2 -->
<g id="edge1_Node000001_Node000002" class="edge">
<title>Node1&#45;&gt;Node2</title>
<g id="a_edge1_Node000001_Node000002"><a xlink:title=" ">
<path fill="none" stroke="#63b8ff" d="M753.31,-410.86C741.14,-410.86 728.06,-410.86 716.55,-410.86"/>
<polygon fill="#63b8ff" stroke="#63b8ff" points="753.11,-414.36 763.11,-410.86 753.11,-407.36 753.11,-414.36"/>
</a>
</g>
</g>
<!-- Node20 -->
<g id="Node000020" class="node">
<title>Node20</title>
<g id="a_Node000020"><a xlink:href="app_8c.html#a4672aaf978b08eef7ca3d8390381c886" target="_top" xlink:title=" ">
<polygon fill="white" stroke="#666666" points="585.12,-880.24 517.38,-880.24 517.38,-859.49 585.12,-859.49 585.12,-880.24"/>
<text text-anchor="middle" x="551.25" y="-866.74" font-family="Helvetica,sans-Serif" font-size="10.00">w2c__f310</text>
</a>
</g>
</g>
<!-- Node1&#45;&gt;Node20 -->
<g id="edge29_Node000001_Node000020" class="edge">
<title>Node1&#45;&gt;Node20</title>
<g id="a_edge29_Node000001_Node000020"><a xlink:title=" ">
<path fill="none" stroke="#63b8ff" d="M791.98,-432.64C783.76,-474.55 762.88,-568.72 729,-641.86 685.3,-736.21 672.46,-762.54 599.75,-836.86 591.32,-845.47 580.36,-853.26 571.09,-859.11"/>
<polygon fill="#63b8ff" stroke="#63b8ff" points="795.41,-433.36 793.84,-422.88 788.53,-432.05 795.41,-433.36"/>
</a>
</g>
</g>
<!-- Node23 -->
<g id="Node000023" class="node">
<title>Node23</title>
<g id="a_Node000023"><a xlink:href="app_8c.html#a9faf27b3cd82c8485f63b0a67bc1865f" target="_top" xlink:title=" ">
<polygon fill="white" stroke="#666666" points="716.25,-268.24 648.5,-268.24 648.5,-247.49 716.25,-247.49 716.25,-268.24"/>
<text text-anchor="middle" x="682.38" y="-254.74" font-family="Helvetica,sans-Serif" font-size="10.00">w2c__f344</text>
</a>
</g>
</g>
<!-- Node1&#45;&gt;Node23 -->
<g id="edge36_Node000001_Node000023" class="edge">
<title>Node1&#45;&gt;Node23</title>
<g id="a_edge36_Node000001_Node000023"><a xlink:title=" ">
<path fill="none" stroke="#63b8ff" d="M781.6,-391.3C757.52,-358.58 709.87,-293.86 691.17,-268.45"/>
<polygon fill="#63b8ff" stroke="#63b8ff" points="778.61,-393.15 787.36,-399.13 784.25,-389 778.61,-393.15"/>
</a>
</g>
</g>
<!-- Node25 -->
<g id="Node000025" class="node">
<title>Node25</title>
<g id="a_Node000025"><a xlink:href="app_8c.html#aaf013b2b29372f4a479047d0c464d3ba" target="_top" xlink:title=" ">
<polygon fill="white" stroke="#666666" points="716.25,-633.24 648.5,-633.24 648.5,-612.49 716.25,-612.49 716.25,-633.24"/>
<text text-anchor="middle" x="682.38" y="-619.74" font-family="Helvetica,sans-Serif" font-size="10.00">w2c__f401</text>
</a>
</g>
</g>
<!-- Node1&#45;&gt;Node25 -->
<g id="edge44_Node000001_Node000025" class="edge">
<title>Node1&#45;&gt;Node25</title>
<g id="a_edge44_Node000001_Node000025"><a xlink:title=" ">
<path fill="none" stroke="#63b8ff" d="M784.98,-431.6C761.43,-475.93 706.9,-578.58 689.1,-612.08"/>
<polygon fill="#63b8ff" stroke="#63b8ff" points="787.95,-433.48 789.55,-423 781.77,-430.19 787.95,-433.48"/>
</a>
</g>
</g>
<!-- Node27 -->
<g id="Node000027" class="node">
<title>Node27</title>
<g id="a_Node000027"><a xlink:href="app_8c.html#a7943f23b47d89a5f0975dcd4c25f021f" target="_top" xlink:title=" ">
<polygon fill="white" stroke="#666666" points="729,-229.24 635.75,-229.24 635.75,-208.49 729,-208.49 729,-229.24"/>
<text text-anchor="middle" x="682.38" y="-215.74" font-family="Helvetica,sans-Serif" font-size="10.00">wrap_w2c_0_19</text>
</a>
</g>
</g>
<!-- Node1&#45;&gt;Node27 -->
<g id="edge58_Node000001_Node000027" class="edge">
<title>Node1&#45;&gt;Node27</title>
<g id="a_edge58_Node000001_Node000027"><a xlink:title=" ">
<path fill="none" stroke="#63b8ff" d="M792.97,-389C786.94,-353.23 770.27,-281.89 729,-238.86 725.41,-235.12 720.99,-232.03 716.34,-229.5"/>
<polygon fill="#63b8ff" stroke="#63b8ff" points="789.46,-389.22 794.45,-398.57 796.38,-388.15 789.46,-389.22"/>
</a>
</g>
</g>
<!-- Node3 -->
<g id="Node000003" class="node">
<title>Node3</title>
<g id="a_Node000003"><a xlink:href="app_8c.html#aeb12ecc9385837eed1de8b75424f1317" target="_top" xlink:title=" ">
<polygon fill="white" stroke="#666666" points="585.12,-614.24 517.38,-614.24 517.38,-593.49 585.12,-593.49 585.12,-614.24"/>
<text text-anchor="middle" x="551.25" y="-600.74" font-family="Helvetica,sans-Serif" font-size="10.00">w2c__f205</text>
</a>
</g>
</g>
<!-- Node2&#45;&gt;Node3 -->
<g id="edge2_Node000002_Node000003" class="edge">
<title>Node2&#45;&gt;Node3</title>
<g id="a_edge2_Node000002_Node000003"><a xlink:title=" ">
<path fill="none" stroke="#63b8ff" d="M676.55,-432.45C667.46,-468.42 644.57,-540.9 599.75,-583.86 595.62,-587.82 590.58,-591.06 585.35,-593.67"/>
<polygon fill="#63b8ff" stroke="#63b8ff" points="679.93,-433.37 678.85,-422.83 673.12,-431.74 679.93,-433.37"/>
</a>
</g>
</g>
<!-- Node4 -->
<g id="Node000004" class="node">
<title>Node4</title>
<g id="a_Node000004"><a xlink:href="app_8c.html#a6c30f2996216fe44cdda84ff266f8b19" target="_top" xlink:title=" ">
<polygon fill="white" stroke="#666666" points="319.12,-499.24 251.38,-499.24 251.38,-478.49 319.12,-478.49 319.12,-499.24"/>
<text text-anchor="middle" x="285.25" y="-485.74" font-family="Helvetica,sans-Serif" font-size="10.00">w2c__f362</text>
</a>
</g>
</g>
<!-- Node2&#45;&gt;Node4 -->
<g id="edge20_Node000002_Node000004" class="edge">
<title>Node2&#45;&gt;Node4</title>
<g id="a_edge20_Node000002_Node000004"><a xlink:title=" ">
<path fill="none" stroke="#63b8ff" d="M648,-395.77C609.92,-381 547.18,-364.4 502.75,-391.86 472.32,-410.67 495.82,-443 466.75,-463.86 423.31,-495.03 358.56,-495.94 319.57,-492.96"/>
<polygon fill="#63b8ff" stroke="#63b8ff" points="646.53,-398.95 657.12,-399.47 649.17,-392.46 646.53,-398.95"/>
</a>
</g>
</g>
<!-- Node5 -->
<g id="Node000005" class="node">
<title>Node5</title>
<g id="a_Node000005"><a xlink:href="app_8c.html#a86ae468e235684021eadfdacd5cb9dba" target="_top" xlink:title=" ">
<polygon fill="white" stroke="#666666" points="200.75,-537.24 133,-537.24 133,-516.49 200.75,-516.49 200.75,-537.24"/>
<text text-anchor="middle" x="166.88" y="-523.74" font-family="Helvetica,sans-Serif" font-size="10.00">w2c__f452</text>
</a>
</g>
</g>
<!-- Node2&#45;&gt;Node5 -->
<g id="edge23_Node000002_Node000005" class="edge">
<title>Node2&#45;&gt;Node5</title>
<g id="a_edge23_Node000002_Node000005"><a xlink:title=" ">
<path fill="none" stroke="#63b8ff" d="M661.63,-428.71C645.96,-441.87 622.92,-459.11 599.75,-468.86 460.46,-527.45 275.6,-529.92 201.09,-528.18"/>
<polygon fill="#63b8ff" stroke="#63b8ff" points="663.52,-431.7 668.8,-422.51 658.94,-426.4 663.52,-431.7"/>
</a>
</g>
</g>
<!-- Node8 -->
<g id="Node000008" class="node">
<title>Node8</title>
<g id="a_Node000008"><a xlink:href="app_8c.html#a7dc7d70793bae217b64eab580fce99cb" target="_top" xlink:title=" ">
<polygon fill="white" stroke="#666666" points="200.75,-290.24 133,-290.24 133,-269.49 200.75,-269.49 200.75,-290.24"/>
<text text-anchor="middle" x="166.88" y="-276.74" font-family="Helvetica,sans-Serif" font-size="10.00">w2c__f215</text>
</a>
</g>
</g>
<!-- Node2&#45;&gt;Node8 -->
<g id="edge7_Node000002_Node000008" class="edge">
<title>Node2&#45;&gt;Node8</title>
<g id="a_edge7_Node000002_Node000008"><a xlink:title=" ">
<path fill="none" stroke="#63b8ff" d="M674.54,-389.25C660.4,-346.01 627,-251.33 599.75,-231.86 468.07,-137.81 253.85,-235.07 187.86,-269.07"/>
<polygon fill="#63b8ff" stroke="#63b8ff" points="671.2,-390.31 677.6,-398.76 677.87,-388.17 671.2,-390.31"/>
</a>
</g>
</g>
<!-- Node10 -->
<g id="Node000010" class="node">
<title>Node10</title>
<g id="a_Node000010"><a xlink:href="app_8c.html#ad554c83ea8f2f1b6e67921e2fd7b7ffc" target="_top" xlink:title=" ">
<polygon fill="white" stroke="#666666" points="585.12,-536.24 517.38,-536.24 517.38,-515.49 585.12,-515.49 585.12,-536.24"/>
<text text-anchor="middle" x="551.25" y="-522.74" font-family="Helvetica,sans-Serif" font-size="10.00">w2c__f285</text>
</a>
</g>
</g>
<!-- Node2&#45;&gt;Node10 -->
<g id="edge9_Node000002_Node000010" class="edge">
<title>Node2&#45;&gt;Node10</title>
<g id="a_edge9_Node000002_Node000010"><a xlink:title=" ">
<path fill="none" stroke="#63b8ff" d="M667.15,-430.63C652.11,-450.51 626.84,-481.1 599.75,-501.86 593.15,-506.92 585.32,-511.39 577.94,-515.05"/>
<polygon fill="#63b8ff" stroke="#63b8ff" points="669.82,-432.91 672.96,-422.79 664.2,-428.75 669.82,-432.91"/>
</a>
</g>
</g>
<!-- Node11 -->
<g id="Node000011" class="node">
<title>Node11</title>
<g id="a_Node000011"><a xlink:href="app_8c.html#a512669319fec7c2cbf61fd668bc650c9" target="_top" xlink:title=" ">
<polygon fill="white" stroke="#666666" points="319.12,-290.24 251.38,-290.24 251.38,-269.49 319.12,-269.49 319.12,-290.24"/>
<text text-anchor="middle" x="285.25" y="-276.74" font-family="Helvetica,sans-Serif" font-size="10.00">w2c__f343</text>
</a>
</g>
</g>
<!-- Node2&#45;&gt;Node11 -->
<g id="edge19_Node000002_Node000011" class="edge">
<title>Node2&#45;&gt;Node11</title>
<g id="a_edge19_Node000002_Node000011"><a xlink:title=" ">
<path fill="none" stroke="#63b8ff" d="M673.66,-389.4C662.03,-359.99 637.3,-307.33 599.75,-276.86 551.07,-237.36 528.54,-240.46 466.75,-229.86 424.26,-222.57 411.3,-218.37 369.75,-229.86 342.23,-237.47 314.65,-256.82 299.09,-269.1"/>
<polygon fill="#63b8ff" stroke="#63b8ff" points="670.36,-390.59 677.18,-398.7 676.91,-388.11 670.36,-390.59"/>
</a>
</g>
</g>
<!-- Node12 -->
<g id="Node000012" class="node">
<title>Node12</title>
<g id="a_Node000012"><a xlink:href="app_8c.html#a172dc6e51e60b69c5871fbabfa215af9" target="_top" xlink:title=" ">
<polygon fill="white" stroke="#666666" points="585.12,-575.24 517.38,-575.24 517.38,-554.49 585.12,-554.49 585.12,-575.24"/>
<text text-anchor="middle" x="551.25" y="-561.74" font-family="Helvetica,sans-Serif" font-size="10.00">w2c__f288</text>
</a>
</g>
</g>
<!-- Node2&#45;&gt;Node12 -->
<g id="edge12_Node000002_Node000012" class="edge">
<title>Node2&#45;&gt;Node12</title>
<g id="a_edge12_Node000002_Node000012"><a xlink:title=" ">
<path fill="none" stroke="#63b8ff" d="M673.4,-432.01C661.47,-461.07 636.39,-513.3 599.75,-544.86 595.55,-548.48 590.59,-551.52 585.5,-554.05"/>
<polygon fill="#63b8ff" stroke="#63b8ff" points="676.6,-433.43 677.02,-422.85 670.09,-430.86 676.6,-433.43"/>
</a>
</g>
</g>
<!-- Node13 -->
<g id="Node000013" class="node">
<title>Node13</title>
<g id="a_Node000013"><a xlink:href="app_8c.html#ab437815594eb4e8c7676d529f946de25" target="_top" xlink:title=" ">
<polygon fill="white" stroke="#666666" points="585.12,-345.24 517.38,-345.24 517.38,-324.49 585.12,-324.49 585.12,-345.24"/>
<text text-anchor="middle" x="551.25" y="-331.74" font-family="Helvetica,sans-Serif" font-size="10.00">w2c__f328</text>
</a>
</g>
</g>
<!-- Node2&#45;&gt;Node13 -->
<g id="edge14_Node000002_Node000013" class="edge">
<title>Node2&#45;&gt;Node13</title>
<g id="a_edge14_Node000002_Node000013"><a xlink:title=" ">
<path fill="none" stroke="#63b8ff" d="M656.22,-393.92C640.28,-383.42 619.1,-369.88 599.75,-358.86 591.72,-354.29 582.72,-349.63 574.72,-345.64"/>
<polygon fill="#63b8ff" stroke="#63b8ff" points="653.88,-396.57 664.14,-399.18 657.75,-390.74 653.88,-396.57"/>
</a>
</g>
</g>
<!-- Node16 -->
<g id="Node000016" class="node">
<title>Node16</title>
<g id="a_Node000016"><a xlink:href="app_8c.html#a05fd87b7f41136119e8d7698caac1f5c" target="_top" xlink:title=" ">
<polygon fill="white" stroke="#666666" points="585.12,-460.24 517.38,-460.24 517.38,-439.49 585.12,-439.49 585.12,-460.24"/>
<text text-anchor="middle" x="551.25" y="-446.74" font-family="Helvetica,sans-Serif" font-size="10.00">w2c__f423</text>
</a>
</g>
</g>
<!-- Node2&#45;&gt;Node16 -->
<g id="edge21_Node000002_Node000016" class="edge">
<title>Node2&#45;&gt;Node16</title>
<g id="a_edge21_Node000002_Node000016"><a xlink:title=" ">
<path fill="none" stroke="#63b8ff" d="M637.31,-424.17C620.31,-429.31 601.19,-435.08 585.39,-439.85"/>
<polygon fill="#63b8ff" stroke="#63b8ff" points="638.11,-427.58 646.67,-421.34 636.09,-420.88 638.11,-427.58"/>
</a>
</g>
</g>
<!-- Node17 -->
<g id="Node000017" class="node">
<title>Node17</title>
<g id="a_Node000017"><a xlink:href="app_8c.html#ac550aaba82d57d6f9e0af73ab1dd2c1e" target="_top" xlink:title=" ">
<polygon fill="white" stroke="#666666" points="585.12,-306.24 517.38,-306.24 517.38,-285.49 585.12,-285.49 585.12,-306.24"/>
<text text-anchor="middle" x="551.25" y="-292.74" font-family="Helvetica,sans-Serif" font-size="10.00">w2c__f575</text>
</a>
</g>
</g>
<!-- Node2&#45;&gt;Node17 -->
<g id="edge24_Node000002_Node000017" class="edge">
<title>Node2&#45;&gt;Node17</title>
<g id="a_edge24_Node000002_Node000017"><a xlink:title=" ">
<path fill="none" stroke="#63b8ff" d="M668.3,-390.73C653.74,-369.66 628.44,-336.77 599.75,-315.86 594.83,-312.28 589.18,-309.19 583.52,-306.58"/>
<polygon fill="#63b8ff" stroke="#63b8ff" points="665.22,-392.43 673.71,-398.77 671.03,-388.52 665.22,-392.43"/>
</a>
</g>
</g>
<!-- Node19 -->
<g id="Node000019" class="node">
<title>Node19</title>
<g id="a_Node000019"><a xlink:href="app_8c.html#a616b28808639236198360c34ca17e115" target="_top" xlink:title=" ">
<polygon fill="white" stroke="#666666" points="599.75,-421.24 502.75,-421.24 502.75,-400.49 599.75,-400.49 599.75,-421.24"/>
<text text-anchor="middle" x="551.25" y="-407.74" font-family="Helvetica,sans-Serif" font-size="10.00">wrap_w2c__f256</text>
</a>
</g>
</g>
<!-- Node2&#45;&gt;Node19 -->
<g id="edge28_Node000002_Node000019" class="edge">
<title>Node2&#45;&gt;Node19</title>
<g id="a_edge28_Node000002_Node000019"><a xlink:title=" ">
<path fill="none" stroke="#63b8ff" d="M636.67,-410.86C624.83,-410.86 611.99,-410.86 599.99,-410.86"/>
<polygon fill="#63b8ff" stroke="#63b8ff" points="636.61,-414.36 646.61,-410.86 636.61,-407.36 636.61,-414.36"/>
</a>
</g>
</g>
<!-- Node3&#45;&gt;Node4 -->
<g id="edge3_Node000003_Node000004" class="edge">
<title>Node3&#45;&gt;Node4</title>
<g id="a_edge3_Node000003_Node000004"><a xlink:title=" ">
<path fill="none" stroke="#63b8ff" d="M515.1,-618.66C476.87,-632.31 415.15,-646.97 369.75,-621.86 320.84,-594.82 296.72,-525.8 289.05,-499.37"/>
<polygon fill="#63b8ff" stroke="#63b8ff" points="516.14,-622.01 524.28,-615.22 513.69,-615.46 516.14,-622.01"/>
</a>
</g>
</g>
<!-- Node7 -->
<g id="Node000007" class="node">
<title>Node7</title>
<g id="a_Node000007"><a xlink:href="app_8c.html#a9832170d75416f4f84ba0d11565ef970" target="_top" xlink:title=" ">
<polygon fill="white" stroke="#666666" points="466.75,-613.24 369.75,-613.24 369.75,-592.49 466.75,-592.49 466.75,-613.24"/>
<text text-anchor="middle" x="418.25" y="-599.74" font-family="Helvetica,sans-Serif" font-size="10.00">wrap_w2c__f205</text>
</a>
</g>
</g>
<!-- Node3&#45;&gt;Node7 -->
<g id="edge6_Node000003_Node000007" class="edge">
<title>Node3&#45;&gt;Node7</title>
<g id="a_edge6_Node000003_Node000007"><a xlink:title=" ">
<path fill="none" stroke="#63b8ff" d="M505.7,-603.52C493.28,-603.43 479.75,-603.32 467.15,-603.23"/>
<polygon fill="#63b8ff" stroke="#63b8ff" points="505.65,-607.02 515.68,-603.6 505.71,-600.02 505.65,-607.02"/>
</a>
</g>
</g>
<!-- Node4&#45;&gt;Node5 -->
<g id="edge4_Node000004_Node000005" class="edge">
<title>Node4&#45;&gt;Node5</title>
<g id="a_edge4_Node000004_Node000005"><a xlink:title=" ">
<path fill="none" stroke="#63b8ff" d="M240.52,-503.14C227.43,-507.42 213.29,-512.03 200.99,-516.05"/>
<polygon fill="#63b8ff" stroke="#63b8ff" points="241.35,-506.55 249.77,-500.12 239.18,-499.9 241.35,-506.55"/>
</a>
</g>
</g>
<!-- Node6 -->
<g id="Node000006" class="node">
<title>Node6</title>
<g id="a_Node000006"><a xlink:href="app_8c.html#a57ca4f801147f9325a0ea7cc2d7192c5" target="_top" xlink:title=" ">
<polygon fill="white" stroke="#666666" points="97,-537.24 0,-537.24 0,-516.49 97,-516.49 97,-537.24"/>
<text text-anchor="middle" x="48.5" y="-523.74" font-family="Helvetica,sans-Serif" font-size="10.00">wrap_w2c__f452</text>
</a>
</g>
</g>
<!-- Node5&#45;&gt;Node6 -->
<g id="edge5_Node000005_Node000006" class="edge">
<title>Node5&#45;&gt;Node6</title>
<g id="a_edge5_Node000005_Node000006"><a xlink:title=" ">
<path fill="none" stroke="#63b8ff" d="M121.28,-526.86C113.39,-526.86 105.14,-526.86 97.16,-526.86"/>
<polygon fill="#63b8ff" stroke="#63b8ff" points="121.01,-530.36 131.01,-526.86 121.01,-523.36 121.01,-530.36"/>
</a>
</g>
</g>
<!-- Node9 -->
<g id="Node000009" class="node">
<title>Node9</title>
<g id="a_Node000009"><a xlink:href="app_8c.html#a7f65ba02075f2865f478747946b07c94" target="_top" xlink:title=" ">
<polygon fill="white" stroke="#666666" points="97,-290.24 0,-290.24 0,-269.49 97,-269.49 97,-290.24"/>
<text text-anchor="middle" x="48.5" y="-276.74" font-family="Helvetica,sans-Serif" font-size="10.00">wrap_w2c__f215</text>
</a>
</g>
</g>
<!-- Node8&#45;&gt;Node9 -->
<g id="edge8_Node000008_Node000009" class="edge">
<title>Node8&#45;&gt;Node9</title>
<g id="a_edge8_Node000008_Node000009"><a xlink:title=" ">
<path fill="none" stroke="#63b8ff" d="M121.28,-279.86C113.39,-279.86 105.14,-279.86 97.16,-279.86"/>
<polygon fill="#63b8ff" stroke="#63b8ff" points="121.01,-283.36 131.01,-279.86 121.01,-276.36 121.01,-283.36"/>
</a>
</g>
</g>
<!-- Node10&#45;&gt;Node11 -->
<g id="edge10_Node000010_Node000011" class="edge">
<title>Node10&#45;&gt;Node11</title>
<g id="a_edge10_Node000010_Node000011"><a xlink:title=" ">
<path fill="none" stroke="#63b8ff" d="M531.09,-506.74C521.49,-496.28 510.32,-482.66 502.75,-468.86 477.41,-422.64 502.62,-394.48 466.75,-355.86 435.13,-321.82 412.55,-334.94 369.75,-316.86 349.45,-308.29 326.58,-298.11 309.91,-290.61"/>
<polygon fill="#63b8ff" stroke="#63b8ff" points="528.52,-509.12 537.96,-513.95 533.59,-504.29 528.52,-509.12"/>
</a>
</g>
</g>
<!-- Node11&#45;&gt;Node8 -->
<g id="edge11_Node000011_Node000008" class="edge">
<title>Node11&#45;&gt;Node8</title>
<g id="a_edge11_Node000011_Node000008"><a xlink:title=" ">
<path fill="none" stroke="#63b8ff" d="M239.54,-279.86C226.8,-279.86 213.16,-279.86 201.23,-279.86"/>
<polygon fill="#63b8ff" stroke="#63b8ff" points="239.39,-283.36 249.39,-279.86 239.39,-276.36 239.39,-283.36"/>
</a>
</g>
</g>
<!-- Node12&#45;&gt;Node4 -->
<g id="edge13_Node000012_Node000004" class="edge">
<title>Node12&#45;&gt;Node4</title>
<g id="a_edge13_Node000012_Node000004"><a xlink:title=" ">
<path fill="none" stroke="#63b8ff" d="M506.08,-552.15C453.46,-537 366.75,-512.04 319.49,-498.43"/>
<polygon fill="#63b8ff" stroke="#63b8ff" points="505.05,-555.49 515.63,-554.89 506.99,-548.76 505.05,-555.49"/>
</a>
</g>
</g>
<!-- Node13&#45;&gt;Node4 -->
<g id="edge15_Node000013_Node000004" class="edge">
<title>Node13&#45;&gt;Node4</title>
<g id="a_edge15_Node000013_Node000004"><a xlink:title=" ">
<path fill="none" stroke="#63b8ff" d="M512.04,-351.39C508.7,-353.64 505.54,-356.13 502.75,-358.86 478.34,-382.81 492.74,-404.64 466.75,-426.86 424.06,-463.36 358.77,-478.71 319.53,-484.91"/>
<polygon fill="#63b8ff" stroke="#63b8ff" points="513.59,-354.54 520.44,-346.46 510.04,-348.51 513.59,-354.54"/>
</a>
</g>
</g>
<!-- Node14 -->
<g id="Node000014" class="node">
<title>Node14</title>
<g id="a_Node000014"><a xlink:href="app_8c.html#ab126aac8a4817b5c574e8992e8137aac" target="_top" xlink:title=" ">
<polygon fill="white" stroke="#666666" points="452.12,-385.24 384.38,-385.24 384.38,-364.49 452.12,-364.49 452.12,-385.24"/>
<text text-anchor="middle" x="418.25" y="-371.74" font-family="Helvetica,sans-Serif" font-size="10.00">w2c__f365</text>
</a>
</g>
</g>
<!-- Node13&#45;&gt;Node14 -->
<g id="edge16_Node000013_Node000014" class="edge">
<title>Node13&#45;&gt;Node14</title>
<g id="a_edge16_Node000013_Node000014"><a xlink:title=" ">
<path fill="none" stroke="#63b8ff" d="M506.29,-348.29C488.65,-353.67 468.66,-359.77 452.3,-364.77"/>
<polygon fill="#63b8ff" stroke="#63b8ff" points="507.2,-351.67 515.75,-345.4 505.16,-344.97 507.2,-351.67"/>
</a>
</g>
</g>
<!-- Node14&#45;&gt;Node4 -->
<g id="edge17_Node000014_Node000004" class="edge">
<title>Node14&#45;&gt;Node4</title>
<g id="a_edge17_Node000014_Node000004"><a xlink:title=" ">
<path fill="none" stroke="#63b8ff" d="M382.08,-390.82C377.79,-393.29 373.57,-395.99 369.75,-398.86 337.91,-422.83 308.03,-459.81 294.24,-478"/>
<polygon fill="#63b8ff" stroke="#63b8ff" points="383.58,-393.99 390.77,-386.21 380.3,-387.81 383.58,-393.99"/>
</a>
</g>
</g>
<!-- Node15 -->
<g id="Node000015" class="node">
<title>Node15</title>
<g id="a_Node000015"><a xlink:href="app_8c.html#accc2bca59262d1758a00d538b9f76807" target="_top" xlink:title=" ">
<polygon fill="white" stroke="#666666" points="333.75,-385.24 236.75,-385.24 236.75,-364.49 333.75,-364.49 333.75,-385.24"/>
<text text-anchor="middle" x="285.25" y="-371.74" font-family="Helvetica,sans-Serif" font-size="10.00">wrap_w2c__f365</text>
</a>
</g>
</g>
<!-- Node14&#45;&gt;Node15 -->
<g id="edge18_Node000014_Node000015" class="edge">
<title>Node14&#45;&gt;Node15</title>
<g id="a_edge18_Node000014_Node000015"><a xlink:title=" ">
<path fill="none" stroke="#63b8ff" d="M372.7,-374.86C360.28,-374.86 346.75,-374.86 334.15,-374.86"/>
<polygon fill="#63b8ff" stroke="#63b8ff" points="372.68,-378.36 382.68,-374.86 372.68,-371.36 372.68,-378.36"/>
</a>
</g>
</g>
<!-- Node16&#45;&gt;Node11 -->
<g id="edge22_Node000016_Node000011" class="edge">
<title>Node16&#45;&gt;Node11</title>
<g id="a_edge22_Node000016_Node000011"><a xlink:title=" ">
<path fill="none" stroke="#63b8ff" d="M507.69,-434.36C505.92,-432.98 504.26,-431.48 502.75,-429.86 468.61,-393.09 503.8,-356.7 466.75,-322.86 426.07,-285.72 359.2,-279.01 319.28,-278.65"/>
<polygon fill="#63b8ff" stroke="#63b8ff" points="505.61,-437.19 515.95,-439.51 509.32,-431.25 505.61,-437.19"/>
</a>
</g>
</g>
<!-- Node17&#45;&gt;Node11 -->
<g id="edge25_Node000017_Node000011" class="edge">
<title>Node17&#45;&gt;Node11</title>
<g id="a_edge25_Node000017_Node000011"><a xlink:title=" ">
<path fill="none" stroke="#63b8ff" d="M530.18,-278.1C514.23,-265.24 490.7,-248.93 466.75,-241.86 425.4,-229.66 411.88,-232.73 369.75,-241.86 345.78,-247.06 320.43,-259.76 304.04,-269.05"/>
<polygon fill="#63b8ff" stroke="#63b8ff" points="527.57,-280.48 537.48,-284.21 532.06,-275.11 527.57,-280.48"/>
</a>
</g>
</g>
<!-- Node18 -->
<g id="Node000018" class="node">
<title>Node18</title>
<g id="a_Node000018"><a xlink:href="app_8c.html#a764c0bb0028716e0a66688159e30b882" target="_top" xlink:title=" ">
<polygon fill="white" stroke="#666666" points="452.12,-271.24 384.38,-271.24 384.38,-250.49 452.12,-250.49 452.12,-271.24"/>
<text text-anchor="middle" x="418.25" y="-257.74" font-family="Helvetica,sans-Serif" font-size="10.00">w2c__f351</text>
</a>
</g>
</g>
<!-- Node17&#45;&gt;Node18 -->
<g id="edge26_Node000017_Node000018" class="edge">
<title>Node17&#45;&gt;Node18</title>
<g id="a_edge26_Node000017_Node000018"><a xlink:title=" ">
<path fill="none" stroke="#63b8ff" d="M506.29,-284.12C488.65,-279.4 468.66,-274.06 452.3,-269.69"/>
<polygon fill="#63b8ff" stroke="#63b8ff" points="505.17,-287.44 515.73,-286.64 506.97,-280.68 505.17,-287.44"/>
</a>
</g>
</g>
<!-- Node18&#45;&gt;Node11 -->
<g id="edge27_Node000018_Node000011" class="edge">
<title>Node18&#45;&gt;Node11</title>
<g id="a_edge27_Node000018_Node000011"><a xlink:title=" ">
<path fill="none" stroke="#63b8ff" d="M373.03,-267.27C355.46,-269.82 335.58,-272.71 319.3,-275.07"/>
<polygon fill="#63b8ff" stroke="#63b8ff" points="373.3,-270.77 382.7,-265.87 372.3,-263.85 373.3,-270.77"/>
</a>
</g>
</g>
<!-- Node20&#45;&gt;Node5 -->
<g id="edge33_Node000020_Node000005" class="edge">
<title>Node20&#45;&gt;Node5</title>
<g id="a_edge33_Node000020_Node000005"><a xlink:title=" ">
<path fill="none" stroke="#63b8ff" d="M514.96,-884.93C451.39,-909.43 316.82,-948.92 236.75,-882.86 181.52,-837.29 170.06,-591.57 168.19,-537.42"/>
<polygon fill="#63b8ff" stroke="#63b8ff" points="516.21,-888.2 524.21,-881.26 513.62,-881.69 516.21,-888.2"/>
</a>
</g>
</g>
<!-- Node20&#45;&gt;Node8 -->
<g id="edge30_Node000020_Node000008" class="edge">
<title>Node20&#45;&gt;Node8</title>
<g id="a_edge30_Node000020_Node000008"><a xlink:title=" ">
<path fill="none" stroke="#63b8ff" d="M505.92,-872.33C468.13,-872.74 413.19,-869.27 369.75,-849.86 297.33,-817.51 274.51,-800.61 236.75,-730.86 231.27,-720.74 178.93,-357 169.37,-290.31"/>
<polygon fill="#63b8ff" stroke="#63b8ff" points="505.63,-875.84 515.55,-872.12 505.48,-868.84 505.63,-875.84"/>
</a>
</g>
</g>
<!-- Node21 -->
<g id="Node000021" class="node">
<title>Node21</title>
<g id="a_Node000021"><a xlink:href="app_8c.html#abd18007c72da8f8fc079e9cdba2cef93" target="_top" xlink:title=" ">
<polygon fill="white" stroke="#666666" points="452.12,-765.24 384.38,-765.24 384.38,-744.49 452.12,-744.49 452.12,-765.24"/>
<text text-anchor="middle" x="418.25" y="-751.74" font-family="Helvetica,sans-Serif" font-size="10.00">w2c__f252</text>
</a>
</g>
</g>
<!-- Node20&#45;&gt;Node21 -->
<g id="edge31_Node000020_Node000021" class="edge">
<title>Node20&#45;&gt;Node21</title>
<g id="a_edge31_Node000020_Node000021"><a xlink:title=" ">
<path fill="none" stroke="#63b8ff" d="M529.63,-851.76C501.96,-827.47 453.71,-785.11 431.31,-765.45"/>
<polygon fill="#63b8ff" stroke="#63b8ff" points="527.2,-854.28 537.02,-858.25 531.82,-849.02 527.2,-854.28"/>
</a>
</g>
</g>
<!-- Node22 -->
<g id="Node000022" class="node">
<title>Node22</title>
<g id="a_Node000022"><a xlink:href="app_8c.html#a1e1380e4c537909f6add6fd427bdd8dc" target="_top" xlink:title=" ">
<polygon fill="white" stroke="#666666" points="452.12,-841.24 384.38,-841.24 384.38,-820.49 452.12,-820.49 452.12,-841.24"/>
<text text-anchor="middle" x="418.25" y="-827.74" font-family="Helvetica,sans-Serif" font-size="10.00">w2c__f492</text>
</a>
</g>
</g>
<!-- Node20&#45;&gt;Node22 -->
<g id="edge34_Node000020_Node000022" class="edge">
<title>Node20&#45;&gt;Node22</title>
<g id="a_edge34_Node000020_Node000022"><a xlink:title=" ">
<path fill="none" stroke="#63b8ff" d="M506.29,-856.77C488.65,-851.52 468.66,-845.57 452.3,-840.7"/>
<polygon fill="#63b8ff" stroke="#63b8ff" points="505.16,-860.09 515.74,-859.59 507.16,-853.38 505.16,-860.09"/>
</a>
</g>
</g>
<!-- Node21&#45;&gt;Node11 -->
<g id="edge32_Node000021_Node000011" class="edge">
<title>Node21&#45;&gt;Node11</title>
<g id="a_edge32_Node000021_Node000011"><a xlink:title=" ">
<path fill="none" stroke="#63b8ff" d="M405.03,-734.27C393.94,-714.58 378.09,-683.7 369.75,-654.86 332.55,-526.29 378.29,-482.08 333.75,-355.86 324.74,-330.33 306.04,-304.4 294.98,-290.4"/>
<polygon fill="#63b8ff" stroke="#63b8ff" points="401.98,-736 410.01,-742.91 408.05,-732.5 401.98,-736"/>
</a>
</g>
</g>
<!-- Node22&#45;&gt;Node4 -->
<g id="edge35_Node000022_Node000004" class="edge">
<title>Node22&#45;&gt;Node4</title>
<g id="a_edge35_Node000022_Node000004"><a xlink:title=" ">
<path fill="none" stroke="#63b8ff" d="M376.85,-813.82C374.23,-811.73 371.82,-809.42 369.75,-806.86 290.44,-708.76 285.84,-543.05 286.06,-499.57"/>
<polygon fill="#63b8ff" stroke="#63b8ff" points="374.82,-816.67 385.1,-819.22 378.66,-810.81 374.82,-816.67"/>
</a>
</g>
</g>
<!-- Node23&#45;&gt;Node4 -->
<g id="edge40_Node000023_Node000004" class="edge">
<title>Node23&#45;&gt;Node4</title>
<g id="a_edge40_Node000023_Node000004"><a xlink:title=" ">
<path fill="none" stroke="#63b8ff" d="M637.11,-250.02C597.47,-245.64 539.99,-246.18 502.75,-276.86 460.76,-311.46 504.65,-354.83 466.75,-393.86 435.03,-426.53 410.07,-405.7 369.75,-426.86 342.09,-441.38 313.68,-464.59 298.17,-478.11"/>
<polygon fill="#63b8ff" stroke="#63b8ff" points="636.43,-253.47 646.8,-251.25 637.31,-246.52 636.43,-253.47"/>
</a>
</g>
</g>
<!-- Node23&#45;&gt;Node5 -->
<g id="edge41_Node000023_Node000005" class="edge">
<title>Node23&#45;&gt;Node5</title>
<g id="a_edge41_Node000023_Node000005"><a xlink:title=" ">
<path fill="none" stroke="#63b8ff" d="M641.26,-241.71C639.34,-240.49 637.49,-239.21 635.75,-237.86 615.24,-221.95 620.17,-207.89 599.75,-191.86 516.64,-126.65 467.66,-92.18 369.75,-131.86 293.43,-162.79 278.17,-189.69 236.75,-260.86 184.81,-350.13 171.46,-478.66 168.58,-516.19"/>
<polygon fill="#63b8ff" stroke="#63b8ff" points="639.44,-244.7 649.89,-246.45 642.81,-238.57 639.44,-244.7"/>
</a>
</g>
</g>
<!-- Node23&#45;&gt;Node8 -->
<g id="edge37_Node000023_Node000008" class="edge">
<title>Node23&#45;&gt;Node8</title>
<g id="a_edge37_Node000023_Node000008"><a xlink:title=" ">
<path fill="none" stroke="#63b8ff" d="M639.12,-241.58C637.91,-240.43 636.78,-239.19 635.75,-237.86 574.05,-158.11 676.5,-79.26 599.75,-13.86 566.94,14.1 545.72,-10.41 502.75,-13.86 383.38,-23.45 327.12,21.72 236.75,-56.86 170.86,-114.16 167.1,-233.01 167.55,-269.19"/>
<polygon fill="#63b8ff" stroke="#63b8ff" points="636.76,-244.19 646.91,-247.23 640.87,-238.53 636.76,-244.19"/>
</a>
</g>
</g>
<!-- Node23&#45;&gt;Node11 -->
<g id="edge39_Node000023_Node000011" class="edge">
<title>Node23&#45;&gt;Node11</title>
<g id="a_edge39_Node000023_Node000011"><a xlink:title=" ">
<path fill="none" stroke="#63b8ff" d="M639.65,-241.1C638.29,-240.08 636.98,-239 635.75,-237.86 610.91,-214.93 628.76,-188.21 599.75,-170.86 512.01,-118.4 461.41,-125.61 369.75,-170.86 327.21,-191.86 300.35,-246.08 290.5,-269.18"/>
<polygon fill="#63b8ff" stroke="#63b8ff" points="637.64,-243.97 647.98,-246.28 641.34,-238.03 637.64,-243.97"/>
</a>
</g>
</g>
<!-- Node23&#45;&gt;Node13 -->
<g id="edge38_Node000023_Node000013" class="edge">
<title>Node23&#45;&gt;Node13</title>
<g id="a_edge38_Node000023_Node000013"><a xlink:title=" ">
<path fill="none" stroke="#63b8ff" d="M658.75,-275.61C642.82,-287.61 620.68,-303.32 599.75,-314.86 593.72,-318.19 587.02,-321.32 580.59,-324.08"/>
<polygon fill="#63b8ff" stroke="#63b8ff" points="660.78,-278.46 666.6,-269.6 656.53,-272.9 660.78,-278.46"/>
</a>
</g>
</g>
<!-- Node23&#45;&gt;Node17 -->
<g id="edge42_Node000023_Node000017" class="edge">
<title>Node23&#45;&gt;Node17</title>
<g id="a_edge42_Node000023_Node000017"><a xlink:title=" ">
<path fill="none" stroke="#63b8ff" d="M637.31,-270.83C620.31,-275.83 601.19,-281.46 585.39,-286.11"/>
<polygon fill="#63b8ff" stroke="#63b8ff" points="638.07,-274.26 646.67,-268.07 636.09,-267.54 638.07,-274.26"/>
</a>
</g>
</g>
<!-- Node24 -->
<g id="Node000024" class="node">
<title>Node24</title>
<g id="a_Node000024"><a xlink:href="app_8c.html#aa522bc9120b448427cd17d57a3f9edbe" target="_top" xlink:title=" ">
<polygon fill="white" stroke="#666666" points="599.75,-43.24 502.75,-43.24 502.75,-22.49 599.75,-22.49 599.75,-43.24"/>
<text text-anchor="middle" x="551.25" y="-29.74" font-family="Helvetica,sans-Serif" font-size="10.00">wrap_w2c__f344</text>
</a>
</g>
</g>
<!-- Node23&#45;&gt;Node24 -->
<g id="edge43_Node000023_Node000024" class="edge">
<title>Node23&#45;&gt;Node24</title>
<g id="a_edge43_Node000023_Node000024"><a xlink:title=" ">
<path fill="none" stroke="#63b8ff" d="M639.19,-241.54C637.95,-240.39 636.8,-239.17 635.75,-237.86 584.37,-173.93 649.36,-122.17 599.75,-56.86 595.5,-51.27 589.59,-46.88 583.38,-43.48"/>
<polygon fill="#63b8ff" stroke="#63b8ff" points="636.86,-244.18 647.04,-247.13 640.93,-238.48 636.86,-244.18"/>
</a>
</g>
</g>
<!-- Node25&#45;&gt;Node3 -->
<g id="edge45_Node000025_Node000003" class="edge">
<title>Node25&#45;&gt;Node3</title>
<g id="a_edge45_Node000025_Node000003"><a xlink:title=" ">
<path fill="none" stroke="#63b8ff" d="M636.82,-616.31C619.94,-613.82 601.04,-611.04 585.39,-608.74"/>
<polygon fill="#63b8ff" stroke="#63b8ff" points="636.22,-619.76 646.62,-617.75 637.24,-612.83 636.22,-619.76"/>
</a>
</g>
</g>
<!-- Node25&#45;&gt;Node4 -->
<g id="edge52_Node000025_Node000004" class="edge">
<title>Node25&#45;&gt;Node4</title>
<g id="a_edge52_Node000025_Node000004"><a xlink:title=" ">
<path fill="none" stroke="#63b8ff" d="M638.48,-635.29C637.52,-636.1 636.61,-636.95 635.75,-637.86 592.6,-683.71 649.6,-736.42 599.75,-774.86 585.27,-786.03 387.84,-787.52 369.75,-773.86 323.66,-739.07 294.3,-546.96 287.68,-499.48"/>
<polygon fill="#63b8ff" stroke="#63b8ff" points="640.14,-638.38 646.83,-630.16 636.48,-632.41 640.14,-638.38"/>
</a>
</g>
</g>
<!-- Node25&#45;&gt;Node5 -->
<g id="edge54_Node000025_Node000005" class="edge">
<title>Node25&#45;&gt;Node5</title>
<g id="a_edge54_Node000025_Node000005"><a xlink:title=" ">
<path fill="none" stroke="#63b8ff" d="M681.39,-645.1C680.16,-695.98 669.78,-821.61 599.75,-888.86 483.09,-1000.9 357.13,-1022.89 236.75,-914.86 178.57,-862.66 169.38,-594.53 168.07,-537.52"/>
<polygon fill="#63b8ff" stroke="#63b8ff" points="684.89,-645.16 681.51,-635.12 677.89,-645.07 684.89,-645.16"/>
</a>
</g>
</g>
<!-- Node25&#45;&gt;Node8 -->
<g id="edge46_Node000025_Node000008" class="edge">
<title>Node25&#45;&gt;Node8</title>
<g id="a_edge46_Node000025_Node000008"><a xlink:title=" ">
<path fill="none" stroke="#63b8ff" d="M637.68,-637.17C637.03,-637.4 636.39,-637.63 635.75,-637.86 619.59,-643.66 616.62,-648.7 599.75,-651.86 499.2,-670.72 462.73,-685.53 369.75,-642.86 293.2,-607.73 279.74,-580.29 236.75,-507.86 191.8,-432.12 173.97,-324.58 169.25,-290.59"/>
<polygon fill="#63b8ff" stroke="#63b8ff" points="638.67,-640.54 646.98,-633.96 636.38,-633.92 638.67,-640.54"/>
</a>
</g>
</g>
<!-- Node25&#45;&gt;Node10 -->
<g id="edge48_Node000025_Node000010" class="edge">
<title>Node25&#45;&gt;Node10</title>
<g id="a_edge48_Node000025_Node000010"><a xlink:title=" ">
<path fill="none" stroke="#63b8ff" d="M664.67,-603.59C649.18,-586.64 624.82,-562.19 599.75,-545.86 594.43,-542.39 588.4,-539.31 582.48,-536.67"/>
<polygon fill="#63b8ff" stroke="#63b8ff" points="662.02,-605.88 671.3,-611 667.24,-601.21 662.02,-605.88"/>
</a>
</g>
</g>
<!-- Node25&#45;&gt;Node11 -->
<g id="edge51_Node000025_Node000011" class="edge">
<title>Node25&#45;&gt;Node11</title>
<g id="a_edge51_Node000025_Node000011"><a xlink:title=" ">
<path fill="none" stroke="#63b8ff" d="M637.03,-629.55C560.53,-640 408.23,-655.74 369.75,-621.86 324.98,-582.44 354.01,-411.97 333.75,-355.86 324.55,-330.4 305.92,-304.44 294.92,-290.42"/>
<polygon fill="#63b8ff" stroke="#63b8ff" points="637.27,-633.05 646.69,-628.2 636.3,-626.12 637.27,-633.05"/>
</a>
</g>
</g>
<!-- Node25&#45;&gt;Node12 -->
<g id="edge49_Node000025_Node000012" class="edge">
<title>Node25&#45;&gt;Node12</title>
<g id="a_edge49_Node000025_Node000012"><a xlink:title=" ">
<path fill="none" stroke="#63b8ff" d="M648.4,-607.17C633.59,-600.21 615.85,-592 599.75,-584.86 592.88,-581.82 585.4,-578.62 578.46,-575.69"/>
<polygon fill="#63b8ff" stroke="#63b8ff" points="646.7,-610.24 657.24,-611.34 649.69,-603.91 646.7,-610.24"/>
</a>
</g>
</g>
<!-- Node25&#45;&gt;Node13 -->
<g id="edge50_Node000025_Node000013" class="edge">
<title>Node25&#45;&gt;Node13</title>
<g id="a_edge50_Node000025_Node000013"><a xlink:title=" ">
<path fill="none" stroke="#63b8ff" d="M676.42,-601.04C666.24,-558.72 640.43,-463.38 599.75,-391.86 589.56,-373.95 573.55,-356.16 562.98,-345.34"/>
<polygon fill="#63b8ff" stroke="#63b8ff" points="673,-601.75 678.69,-610.69 679.81,-600.16 673,-601.75"/>
</a>
</g>
</g>
<!-- Node25&#45;&gt;Node16 -->
<g id="edge53_Node000025_Node000016" class="edge">
<title>Node25&#45;&gt;Node16</title>
<g id="a_edge53_Node000025_Node000016"><a xlink:title=" ">
<path fill="none" stroke="#63b8ff" d="M667.81,-602.54C652,-579.09 624.82,-539.57 599.75,-506.86 587.06,-490.3 571.41,-471.87 561.62,-460.57"/>
<polygon fill="#63b8ff" stroke="#63b8ff" points="664.91,-604.49 673.39,-610.84 670.72,-600.59 664.91,-604.49"/>
</a>
</g>
</g>
<!-- Node25&#45;&gt;Node17 -->
<g id="edge56_Node000025_Node000017" class="edge">
<title>Node25&#45;&gt;Node17</title>
<g id="a_edge56_Node000025_Node000017"><a xlink:title=" ">
<path fill="none" stroke="#63b8ff" d="M676.11,-600.94C659.6,-532.55 609.4,-326.95 599.75,-315.86 595.87,-311.41 590.84,-307.92 585.5,-305.2"/>
<polygon fill="#63b8ff" stroke="#63b8ff" points="672.68,-601.67 678.43,-610.57 679.49,-600.03 672.68,-601.67"/>
</a>
</g>
</g>
<!-- Node25&#45;&gt;Node21 -->
<g id="edge47_Node000025_Node000021" class="edge">
<title>Node25&#45;&gt;Node21</title>
<g id="a_edge47_Node000025_Node000021"><a xlink:title=" ">
<path fill="none" stroke="#63b8ff" d="M663.87,-641.76C648.34,-657.57 624.35,-679.74 599.75,-693.86 551.98,-721.27 490,-738.83 452.49,-747.76"/>
<polygon fill="#63b8ff" stroke="#63b8ff" points="666.13,-644.46 670.53,-634.82 661.08,-639.61 666.13,-644.46"/>
</a>
</g>
</g>
<!-- Node25&#45;&gt;Node22 -->
<g id="edge55_Node000025_Node000022" class="edge">
<title>Node25&#45;&gt;Node22</title>
<g id="a_edge55_Node000025_Node000022"><a xlink:title=" ">
<path fill="none" stroke="#63b8ff" d="M674.78,-644.53C660.85,-688.8 627.46,-787.19 599.75,-807.86 556.83,-839.88 491.62,-839.58 452.45,-835.73"/>
<polygon fill="#63b8ff" stroke="#63b8ff" points="678.1,-645.62 677.72,-635.03 671.42,-643.55 678.1,-645.62"/>
</a>
</g>
</g>
<!-- Node26 -->
<g id="Node000026" class="node">
<title>Node26</title>
<g id="a_Node000026"><a xlink:href="app_8c.html#a7804805b0583b5d74c462fd3b6d49ecf" target="_top" xlink:title=" ">
<polygon fill="white" stroke="#666666" points="599.75,-766.24 502.75,-766.24 502.75,-745.49 599.75,-745.49 599.75,-766.24"/>
<text text-anchor="middle" x="551.25" y="-752.74" font-family="Helvetica,sans-Serif" font-size="10.00">wrap_w2c__f401</text>
</a>
</g>
</g>
<!-- Node25&#45;&gt;Node26 -->
<g id="edge57_Node000025_Node000026" class="edge">
<title>Node25&#45;&gt;Node26</title>
<g id="a_edge57_Node000025_Node000026"><a xlink:title=" ">
<path fill="none" stroke="#63b8ff" d="M670.13,-643.13C656.16,-666.86 630.38,-706.17 599.75,-731.86 593.52,-737.09 585.96,-741.56 578.72,-745.17"/>
<polygon fill="#63b8ff" stroke="#63b8ff" points="673,-645.16 674.94,-634.75 666.93,-641.68 673,-645.16"/>
</a>
</g>
</g>
</g>
</svg>
