<?xml version="1.0" encoding="UTF-8" standalone="no"?>
<!DOCTYPE svg PUBLIC "-//W3C//DTD SVG 1.1//EN"
 "http://www.w3.org/Graphics/SVG/1.1/DTD/svg11.dtd">
<!-- Generated by graphviz version 12.2.1 (0)
 -->
<!-- Title: wrap_w2c__f373 Pages: 1 -->
<svg width="420pt" height="68pt"
 viewBox="0.00 0.00 420.00 67.75" xmlns="http://www.w3.org/2000/svg" xmlns:xlink="http://www.w3.org/1999/xlink">
<g id="graph0" class="graph" transform="scale(1 1) rotate(0) translate(4 63.75)">
<title>wrap_w2c__f373</title>
<!-- Node1 -->
<g id="Node000001" class="node">
<title>Node1</title>
<g id="a_Node000001"><a xlink:title=" ">
<polygon fill="#999999" stroke="#666666" points="97,-39.75 0,-39.75 0,-19 97,-19 97,-39.75"/>
<text text-anchor="middle" x="48.5" y="-26.25" font-family="Helvetica,sans-Serif" font-size="10.00">wrap_w2c__f373</text>
</a>
</g>
</g>
<!-- Node2 -->
<g id="Node000002" class="node">
<title>Node2</title>
<g id="a_Node000002"><a xlink:href="app_8c.html#a2ce79fade48644997d23741bbc114e47" target="_top" xlink:title=" ">
<polygon fill="white" stroke="#666666" points="200.75,-39.75 133,-39.75 133,-19 200.75,-19 200.75,-39.75"/>
<text text-anchor="middle" x="166.88" y="-26.25" font-family="Helvetica,sans-Serif" font-size="10.00">w2c__f373</text>
</a>
</g>
</g>
<!-- Node1&#45;&gt;Node2 -->
<g id="edge1_Node000001_Node000002" class="edge">
<title>Node1&#45;&gt;Node2</title>
<g id="a_edge1_Node000001_Node000002"><a xlink:title=" ">
<path fill="none" stroke="#63b8ff" d="M97.17,-29.38C105.18,-29.38 113.47,-29.38 121.4,-29.38"/>
<polygon fill="#63b8ff" stroke="#63b8ff" points="121.17,-32.88 131.17,-29.38 121.17,-25.88 121.17,-32.88"/>
</a>
</g>
</g>
<!-- Node3 -->
<g id="Node000003" class="node">
<title>Node3</title>
<g id="a_Node000003"><a xlink:href="app_8c.html#af3f13764edac1b452cbff75a1fcff666" target="_top" xlink:title=" ">
<polygon fill="white" stroke="#666666" points="308.25,-59.75 240.5,-59.75 240.5,-39 308.25,-39 308.25,-59.75"/>
<text text-anchor="middle" x="274.38" y="-46.25" font-family="Helvetica,sans-Serif" font-size="10.00">w2c__f510</text>
</a>
</g>
</g>
<!-- Node2&#45;&gt;Node3 -->
<g id="edge2_Node000002_Node000003" class="edge">
<title>Node2&#45;&gt;Node3</title>
<g id="a_edge2_Node000002_Node000003"><a xlink:title=" ">
<path fill="none" stroke="#63b8ff" d="M200.97,-35.65C209.82,-37.33 219.53,-39.17 228.88,-40.94"/>
<polygon fill="#63b8ff" stroke="#63b8ff" points="228.07,-44.35 238.55,-42.77 229.38,-37.47 228.07,-44.35"/>
</a>
</g>
</g>
<!-- Node4 -->
<g id="Node000004" class="node">
<title>Node4</title>
<g id="a_Node000004"><a xlink:href="app_8c.html#a43517182877370811f9852884f2e3844" target="_top" xlink:title=" ">
<polygon fill="white" stroke="#666666" points="312,-20.75 236.75,-20.75 236.75,0 312,0 312,-20.75"/>
<text text-anchor="middle" x="274.38" y="-7.25" font-family="Helvetica,sans-Serif" font-size="10.00">wasm_trunc</text>
</a>
</g>
</g>
<!-- Node2&#45;&gt;Node4 -->
<g id="edge3_Node000002_Node000004" class="edge">
<title>Node2&#45;&gt;Node4</title>
<g id="a_edge3_Node000002_Node000004"><a xlink:title=" ">
<path fill="none" stroke="#63b8ff" d="M200.97,-23.42C208.69,-22.02 217.08,-20.51 225.31,-19.03"/>
<polygon fill="#63b8ff" stroke="#63b8ff" points="225.65,-22.53 234.87,-17.31 224.41,-15.64 225.65,-22.53"/>
</a>
</g>
</g>
<!-- Node5 -->
<g id="Node000005" class="node">
<title>Node5</title>
<g id="a_Node000005"><a xlink:href="app_8c.html#ae10979e670e507d4373e8cadcb3169aa" target="_top" xlink:title=" ">
<polygon fill="white" stroke="#666666" points="412,-20.75 348,-20.75 348,0 412,0 412,-20.75"/>
<text text-anchor="middle" x="380" y="-7.25" font-family="Helvetica,sans-Serif" font-size="10.00">quiet_nan</text>
</a>
</g>
</g>
<!-- Node4&#45;&gt;Node5 -->
<g id="edge4_Node000004_Node000005" class="edge">
<title>Node4&#45;&gt;Node5</title>
<g id="a_edge4_Node000004_Node000005"><a xlink:title=" ">
<path fill="none" stroke="#63b8ff" d="M312.49,-10.38C320.22,-10.38 328.42,-10.38 336.33,-10.38"/>
<polygon fill="#63b8ff" stroke="#63b8ff" points="336.1,-13.88 346.1,-10.38 336.1,-6.88 336.1,-13.88"/>
</a>
</g>
</g>
</g>
</svg>
