<?xml version="1.0" encoding="UTF-8" standalone="no"?>
<!DOCTYPE svg PUBLIC "-//W3C//DTD SVG 1.1//EN"
 "http://www.w3.org/Graphics/SVG/1.1/DTD/svg11.dtd">
<!-- Generated by graphviz version 12.2.1 (0)
 -->
<!-- Title: w2c__f235 Pages: 1 -->
<svg width="782pt" height="245pt"
 viewBox="0.00 0.00 781.75 244.93" xmlns="http://www.w3.org/2000/svg" xmlns:xlink="http://www.w3.org/1999/xlink">
<g id="graph0" class="graph" transform="scale(1 1) rotate(0) translate(4 240.93)">
<title>w2c__f235</title>
<!-- Node1 -->
<g id="Node000001" class="node">
<title>Node1</title>
<g id="a_Node000001"><a xlink:title=" ">
<polygon fill="#999999" stroke="#666666" points="773.75,-115.75 706,-115.75 706,-95 773.75,-95 773.75,-115.75"/>
<text text-anchor="middle" x="739.88" y="-102.25" font-family="Helvetica,sans-Serif" font-size="10.00">w2c__f235</text>
</a>
</g>
</g>
<!-- Node1&#45;&gt;Node1 -->
<g id="edge13_Node000001_Node000001" class="edge">
<title>Node1&#45;&gt;Node1</title>
<g id="a_edge13_Node000001_Node000001"><a xlink:title=" ">
<path fill="none" stroke="#63b8ff" d="M757.91,-127.56C755.36,-131.23 749.35,-133.75 739.88,-133.75 722.04,-133.75 716.47,-124.81 723.16,-116.15"/>
<polygon fill="#63b8ff" stroke="#63b8ff" points="761.39,-127.18 756.77,-117.65 754.44,-127.99 761.39,-127.18"/>
</a>
</g>
</g>
<!-- Node2 -->
<g id="Node000002" class="node">
<title>Node2</title>
<g id="a_Node000002"><a xlink:href="app_8c.html#af44863a9f6b78ac4e379c138c19a8c91" target="_top" xlink:title=" ">
<polygon fill="white" stroke="#666666" points="670,-134.75 602.25,-134.75 602.25,-114 670,-114 670,-134.75"/>
<text text-anchor="middle" x="636.12" y="-121.25" font-family="Helvetica,sans-Serif" font-size="10.00">w2c__f226</text>
</a>
</g>
</g>
<!-- Node1&#45;&gt;Node2 -->
<g id="edge1_Node000001_Node000002" class="edge">
<title>Node1&#45;&gt;Node2</title>
<g id="a_edge1_Node000001_Node000002"><a xlink:title=" ">
<path fill="none" stroke="#63b8ff" d="M694.32,-113.69C686.21,-115.21 677.88,-116.77 670.17,-118.2"/>
<polygon fill="#63b8ff" stroke="#63b8ff" points="694.88,-117.15 704.07,-111.87 693.6,-110.27 694.88,-117.15"/>
</a>
</g>
</g>
<!-- Node3 -->
<g id="Node000003" class="node">
<title>Node3</title>
<g id="a_Node000003"><a xlink:href="app_8c.html#a850a9c260115672f978d3685bca1703b" target="_top" xlink:title=" ">
<polygon fill="white" stroke="#666666" points="566.25,-98.75 498.5,-98.75 498.5,-78 566.25,-78 566.25,-98.75"/>
<text text-anchor="middle" x="532.38" y="-85.25" font-family="Helvetica,sans-Serif" font-size="10.00">w2c__f540</text>
</a>
</g>
</g>
<!-- Node1&#45;&gt;Node3 -->
<g id="edge17_Node000001_Node000003" class="edge">
<title>Node1&#45;&gt;Node3</title>
<g id="a_edge17_Node000001_Node000003"><a xlink:title=" ">
<path fill="none" stroke="#63b8ff" d="M694.5,-101.7C656.09,-98.53 601.4,-94 566.65,-91.13"/>
<polygon fill="#63b8ff" stroke="#63b8ff" points="694.09,-105.18 704.35,-102.52 694.67,-98.21 694.09,-105.18"/>
</a>
</g>
</g>
<!-- Node4 -->
<g id="Node000004" class="node">
<title>Node4</title>
<g id="a_Node000004"><a xlink:href="app_8c.html#aac449994afd8488e2efd16fb19f0ecb1" target="_top" xlink:title=" ">
<polygon fill="white" stroke="#666666" points="358.75,-97.75 291,-97.75 291,-77 358.75,-77 358.75,-97.75"/>
<text text-anchor="middle" x="324.88" y="-84.25" font-family="Helvetica,sans-Serif" font-size="10.00">w2c__f336</text>
</a>
</g>
</g>
<!-- Node1&#45;&gt;Node4 -->
<g id="edge14_Node000001_Node000004" class="edge">
<title>Node1&#45;&gt;Node4</title>
<g id="a_edge14_Node000001_Node000004"><a xlink:title=" ">
<path fill="none" stroke="#63b8ff" d="M726.88,-125.87C714.97,-144.13 694.91,-169.84 670,-182.38 560.46,-237.49 501.55,-261.63 394.75,-201.38 354.47,-178.65 335.09,-121.85 328.54,-98.09"/>
<polygon fill="#63b8ff" stroke="#63b8ff" points="729.82,-127.76 732.13,-117.42 723.88,-124.07 729.82,-127.76"/>
</a>
</g>
</g>
<!-- Node12 -->
<g id="Node000012" class="node">
<title>Node12</title>
<g id="a_Node000012"><a xlink:href="app_8c.html#ae0b9430c5b9817fd400b62f21b77aa3d" target="_top" xlink:title=" ">
<polygon fill="white" stroke="#666666" points="566.25,-20.75 498.5,-20.75 498.5,0 566.25,0 566.25,-20.75"/>
<text text-anchor="middle" x="532.38" y="-7.25" font-family="Helvetica,sans-Serif" font-size="10.00">w2c__f480</text>
</a>
</g>
</g>
<!-- Node1&#45;&gt;Node12 -->
<g id="edge15_Node000001_Node000012" class="edge">
<title>Node1&#45;&gt;Node12</title>
<g id="a_edge15_Node000001_Node000012"><a xlink:title=" ">
<path fill="none" stroke="#63b8ff" d="M726.48,-85.12C714.41,-67.3 694.34,-42.25 670,-29.38 637.71,-12.3 595.41,-8.83 566.48,-8.81"/>
<polygon fill="#63b8ff" stroke="#63b8ff" points="723.45,-86.87 731.82,-93.36 729.32,-83.07 723.45,-86.87"/>
</a>
</g>
</g>
<!-- Node13 -->
<g id="Node000013" class="node">
<title>Node13</title>
<g id="a_Node000013"><a xlink:href="app_8c.html#a37fce8ca7d5ce886ab2e3a8da2d33566" target="_top" xlink:title=" ">
<polygon fill="white" stroke="#666666" points="670,-58.75 602.25,-58.75 602.25,-38 670,-38 670,-58.75"/>
<text text-anchor="middle" x="636.12" y="-45.25" font-family="Helvetica,sans-Serif" font-size="10.00">w2c__f548</text>
</a>
</g>
</g>
<!-- Node1&#45;&gt;Node13 -->
<g id="edge18_Node000001_Node000013" class="edge">
<title>Node1&#45;&gt;Node13</title>
<g id="a_edge18_Node000001_Node000013"><a xlink:title=" ">
<path fill="none" stroke="#63b8ff" d="M709.72,-89.04C692.65,-79.48 671.56,-67.67 656.52,-59.24"/>
<polygon fill="#63b8ff" stroke="#63b8ff" points="707.98,-92.08 718.42,-93.91 711.4,-85.97 707.98,-92.08"/>
</a>
</g>
</g>
<!-- Node15 -->
<g id="Node000015" class="node">
<title>Node15</title>
<g id="a_Node000015"><a xlink:href="app_8c.html#a27ec3034e861eede96fabd221dec28d1" target="_top" xlink:title=" ">
<polygon fill="white" stroke="#666666" points="462.5,-174.75 394.75,-174.75 394.75,-154 462.5,-154 462.5,-174.75"/>
<text text-anchor="middle" x="428.62" y="-161.25" font-family="Helvetica,sans-Serif" font-size="10.00">w2c__f554</text>
</a>
</g>
</g>
<!-- Node1&#45;&gt;Node15 -->
<g id="edge21_Node000001_Node000015" class="edge">
<title>Node1&#45;&gt;Node15</title>
<g id="a_edge21_Node000001_Node000015"><a xlink:title=" ">
<path fill="none" stroke="#63b8ff" d="M722.14,-124.54C709.35,-137.65 690.48,-153.95 670,-161.38 599.76,-186.82 510.23,-178.15 462.72,-170.63"/>
<polygon fill="#63b8ff" stroke="#63b8ff" points="724.69,-126.94 728.93,-117.23 719.56,-122.17 724.69,-126.94"/>
</a>
</g>
</g>
<!-- Node2&#45;&gt;Node2 -->
<g id="edge2_Node000002_Node000002" class="edge">
<title>Node2&#45;&gt;Node2</title>
<g id="a_edge2_Node000002_Node000002"><a xlink:title=" ">
<path fill="none" stroke="#63b8ff" d="M654.16,-146.56C651.61,-150.23 645.6,-152.75 636.12,-152.75 618.29,-152.75 612.72,-143.81 619.41,-135.15"/>
<polygon fill="#63b8ff" stroke="#63b8ff" points="657.64,-146.18 653.02,-136.65 650.69,-146.99 657.64,-146.18"/>
</a>
</g>
</g>
<!-- Node2&#45;&gt;Node3 -->
<g id="edge3_Node000002_Node000003" class="edge">
<title>Node2&#45;&gt;Node3</title>
<g id="a_edge3_Node000002_Node000003"><a xlink:title=" ">
<path fill="none" stroke="#63b8ff" d="M593.97,-109.81C583.92,-106.26 573.34,-102.51 563.88,-99.17"/>
<polygon fill="#63b8ff" stroke="#63b8ff" points="592.58,-113.03 603.17,-113.07 594.91,-106.43 592.58,-113.03"/>
</a>
</g>
</g>
<!-- Node3&#45;&gt;Node4 -->
<g id="edge4_Node000003_Node000004" class="edge">
<title>Node3&#45;&gt;Node4</title>
<g id="a_edge4_Node000003_Node000004"><a xlink:title=" ">
<path fill="none" stroke="#63b8ff" d="M487,-88.16C448.59,-87.97 393.9,-87.71 359.15,-87.54"/>
<polygon fill="#63b8ff" stroke="#63b8ff" points="486.83,-91.66 496.84,-88.21 486.86,-84.66 486.83,-91.66"/>
</a>
</g>
</g>
<!-- Node10 -->
<g id="Node000010" class="node">
<title>Node10</title>
<g id="a_Node000010"><a xlink:href="app_8c.html#aa3f7fb2ace6a87e61320ef7401dfd66f" target="_top" xlink:title=" ">
<polygon fill="white" stroke="#666666" points="462.5,-59.75 394.75,-59.75 394.75,-39 462.5,-39 462.5,-59.75"/>
<text text-anchor="middle" x="428.62" y="-46.25" font-family="Helvetica,sans-Serif" font-size="10.00">w2c__f489</text>
</a>
</g>
</g>
<!-- Node3&#45;&gt;Node10 -->
<g id="edge10_Node000003_Node000010" class="edge">
<title>Node3&#45;&gt;Node10</title>
<g id="a_edge10_Node000003_Node000010"><a xlink:title=" ">
<path fill="none" stroke="#63b8ff" d="M492.35,-73.42C480.85,-69.01 468.49,-64.27 457.82,-60.18"/>
<polygon fill="#63b8ff" stroke="#63b8ff" points="491.03,-76.66 501.62,-76.97 493.53,-70.12 491.03,-76.66"/>
</a>
</g>
</g>
<!-- Node11 -->
<g id="Node000011" class="node">
<title>Node11</title>
<g id="a_Node000011"><a xlink:href="app_8c.html#a268eebcea573fce720709e588959d401" target="_top" xlink:title=" ">
<polygon fill="white" stroke="#666666" points="462.5,-135.75 394.75,-135.75 394.75,-115 462.5,-115 462.5,-135.75"/>
<text text-anchor="middle" x="428.62" y="-122.25" font-family="Helvetica,sans-Serif" font-size="10.00">w2c__f568</text>
</a>
</g>
</g>
<!-- Node3&#45;&gt;Node11 -->
<g id="edge12_Node000003_Node000011" class="edge">
<title>Node3&#45;&gt;Node11</title>
<g id="a_edge12_Node000003_Node000011"><a xlink:title=" ">
<path fill="none" stroke="#63b8ff" d="M490.94,-103.08C480.34,-106.93 469.1,-111.02 459.19,-114.62"/>
<polygon fill="#63b8ff" stroke="#63b8ff" points="492.05,-106.4 500.25,-99.69 489.65,-99.82 492.05,-106.4"/>
</a>
</g>
</g>
<!-- Node5 -->
<g id="Node000005" class="node">
<title>Node5</title>
<g id="a_Node000005"><a xlink:href="app_8c.html#ac863989691d4c389f80374209c220171" target="_top" xlink:title=" ">
<polygon fill="white" stroke="#666666" points="252.38,-97.75 189.88,-97.75 189.88,-77 252.38,-77 252.38,-97.75"/>
<text text-anchor="middle" x="221.12" y="-84.25" font-family="Helvetica,sans-Serif" font-size="10.00">w2c__c_0</text>
</a>
</g>
</g>
<!-- Node4&#45;&gt;Node5 -->
<g id="edge5_Node000004_Node000005" class="edge">
<title>Node4&#45;&gt;Node5</title>
<g id="a_edge5_Node000004_Node000005"><a xlink:title=" ">
<path fill="none" stroke="#63b8ff" d="M279.1,-87.38C270.2,-87.38 261.05,-87.38 252.76,-87.38"/>
<polygon fill="#63b8ff" stroke="#63b8ff" points="279.04,-90.88 289.04,-87.38 279.04,-83.88 279.04,-90.88"/>
</a>
</g>
</g>
<!-- Node7 -->
<g id="Node000007" class="node">
<title>Node7</title>
<g id="a_Node000007"><a xlink:href="app_8c.html#a8f312e54d76623b1ae169d5d19736ee0" target="_top" xlink:title=" ">
<polygon fill="white" stroke="#666666" points="255,-40.75 187.25,-40.75 187.25,-20 255,-20 255,-40.75"/>
<text text-anchor="middle" x="221.12" y="-27.25" font-family="Helvetica,sans-Serif" font-size="10.00">w2c__f363</text>
</a>
</g>
</g>
<!-- Node4&#45;&gt;Node7 -->
<g id="edge7_Node000004_Node000007" class="edge">
<title>Node4&#45;&gt;Node7</title>
<g id="a_edge7_Node000004_Node000007"><a xlink:title=" ">
<path fill="none" stroke="#63b8ff" d="M294.72,-71.04C277.65,-61.48 256.56,-49.67 241.52,-41.24"/>
<polygon fill="#63b8ff" stroke="#63b8ff" points="292.98,-74.08 303.42,-75.91 296.4,-67.97 292.98,-74.08"/>
</a>
</g>
</g>
<!-- Node6 -->
<g id="Node000006" class="node">
<title>Node6</title>
<g id="a_Node000006"><a xlink:href="app_8c.html#ab1e039392ea68017ab8a6063263b147d" target="_top" xlink:title=" ">
<polygon fill="white" stroke="#666666" points="145.25,-97.75 94,-97.75 94,-77 145.25,-77 145.25,-97.75"/>
<text text-anchor="middle" x="119.62" y="-84.25" font-family="Helvetica,sans-Serif" font-size="10.00">w2c__c</text>
</a>
</g>
</g>
<!-- Node5&#45;&gt;Node6 -->
<g id="edge6_Node000005_Node000006" class="edge">
<title>Node5&#45;&gt;Node6</title>
<g id="a_edge6_Node000005_Node000006"><a xlink:title=" ">
<path fill="none" stroke="#63b8ff" d="M178.21,-87.38C167.15,-87.38 155.55,-87.38 145.68,-87.38"/>
<polygon fill="#63b8ff" stroke="#63b8ff" points="177.95,-90.88 187.95,-87.38 177.95,-83.88 177.95,-90.88"/>
</a>
</g>
</g>
<!-- Node8 -->
<g id="Node000008" class="node">
<title>Node8</title>
<g id="a_Node000008"><a xlink:href="app_8c.html#a26657f10c51f10eeb57a4d27606a6885" target="_top" xlink:title=" ">
<polygon fill="white" stroke="#666666" points="151.25,-40.75 88,-40.75 88,-20 151.25,-20 151.25,-40.75"/>
<text text-anchor="middle" x="119.62" y="-27.25" font-family="Helvetica,sans-Serif" font-size="10.00">w2c__b_0</text>
</a>
</g>
</g>
<!-- Node7&#45;&gt;Node8 -->
<g id="edge8_Node000007_Node000008" class="edge">
<title>Node7&#45;&gt;Node8</title>
<g id="a_edge8_Node000007_Node000008"><a xlink:title=" ">
<path fill="none" stroke="#63b8ff" d="M175.71,-30.38C167.57,-30.38 159.23,-30.38 151.59,-30.38"/>
<polygon fill="#63b8ff" stroke="#63b8ff" points="175.48,-33.88 185.48,-30.38 175.48,-26.88 175.48,-33.88"/>
</a>
</g>
</g>
<!-- Node9 -->
<g id="Node000009" class="node">
<title>Node9</title>
<g id="a_Node000009"><a xlink:href="app_8c.html#a683a2045346c3209e9dac20d55933c7d" target="_top" xlink:title=" ">
<polygon fill="white" stroke="#666666" points="52,-40.75 0,-40.75 0,-20 52,-20 52,-40.75"/>
<text text-anchor="middle" x="26" y="-27.25" font-family="Helvetica,sans-Serif" font-size="10.00">w2c__b</text>
</a>
</g>
</g>
<!-- Node8&#45;&gt;Node9 -->
<g id="edge9_Node000008_Node000009" class="edge">
<title>Node8&#45;&gt;Node9</title>
<g id="a_edge9_Node000008_Node000009"><a xlink:title=" ">
<path fill="none" stroke="#63b8ff" d="M76.21,-30.38C68,-30.38 59.65,-30.38 52.21,-30.38"/>
<polygon fill="#63b8ff" stroke="#63b8ff" points="76.09,-33.88 86.09,-30.38 76.09,-26.88 76.09,-33.88"/>
</a>
</g>
</g>
<!-- Node10&#45;&gt;Node4 -->
<g id="edge11_Node000010_Node000004" class="edge">
<title>Node10&#45;&gt;Node4</title>
<g id="a_edge11_Node000010_Node000004"><a xlink:title=" ">
<path fill="none" stroke="#63b8ff" d="M388.01,-64.17C376.96,-68.3 365.15,-72.71 354.83,-76.56"/>
<polygon fill="#63b8ff" stroke="#63b8ff" points="389.18,-67.47 397.32,-60.69 386.73,-60.91 389.18,-67.47"/>
</a>
</g>
</g>
<!-- Node12&#45;&gt;Node7 -->
<g id="edge16_Node000012_Node000007" class="edge">
<title>Node12&#45;&gt;Node7</title>
<g id="a_edge16_Node000012_Node000007"><a xlink:title=" ">
<path fill="none" stroke="#63b8ff" d="M486.82,-13.26C424.14,-17.31 311.38,-24.6 255.45,-28.22"/>
<polygon fill="#63b8ff" stroke="#63b8ff" points="487.02,-16.75 496.77,-12.61 486.56,-9.77 487.02,-16.75"/>
</a>
</g>
</g>
<!-- Node13&#45;&gt;Node12 -->
<g id="edge20_Node000013_Node000012" class="edge">
<title>Node13&#45;&gt;Node12</title>
<g id="a_edge20_Node000013_Node000012"><a xlink:title=" ">
<path fill="none" stroke="#63b8ff" d="M595.51,-33.58C584.46,-29.45 572.65,-25.04 562.33,-21.19"/>
<polygon fill="#63b8ff" stroke="#63b8ff" points="594.23,-36.84 604.82,-37.06 596.68,-30.28 594.23,-36.84"/>
</a>
</g>
</g>
<!-- Node14 -->
<g id="Node000014" class="node">
<title>Node14</title>
<g id="a_Node000014"><a xlink:href="app_8c.html#ad6ca5e0c47ccb4e49eb279d54c79b6ae" target="_top" xlink:title=" ">
<polygon fill="white" stroke="#666666" points="566.25,-59.75 498.5,-59.75 498.5,-39 566.25,-39 566.25,-59.75"/>
<text text-anchor="middle" x="532.38" y="-46.25" font-family="Helvetica,sans-Serif" font-size="10.00">w2c__f261</text>
</a>
</g>
</g>
<!-- Node13&#45;&gt;Node14 -->
<g id="edge19_Node000013_Node000014" class="edge">
<title>Node13&#45;&gt;Node14</title>
<g id="a_edge19_Node000013_Node000014"><a xlink:title=" ">
<path fill="none" stroke="#63b8ff" d="M590.57,-48.81C582.46,-48.89 574.13,-48.97 566.42,-49.05"/>
<polygon fill="#63b8ff" stroke="#63b8ff" points="590.33,-52.32 600.29,-48.72 590.26,-45.32 590.33,-52.32"/>
</a>
</g>
</g>
<!-- Node15&#45;&gt;Node4 -->
<g id="edge22_Node000015_Node000004" class="edge">
<title>Node15&#45;&gt;Node4</title>
<g id="a_edge22_Node000015_Node000004"><a xlink:title=" ">
<path fill="none" stroke="#63b8ff" d="M399.5,-147.64C397.88,-146.56 396.28,-145.47 394.75,-144.38 373.76,-129.43 351.03,-109.9 337.65,-98.01"/>
<polygon fill="#63b8ff" stroke="#63b8ff" points="397.3,-150.39 407.62,-152.81 401.06,-144.49 397.3,-150.39"/>
</a>
</g>
</g>
<!-- Node15&#45;&gt;Node15 -->
<g id="edge23_Node000015_Node000015" class="edge">
<title>Node15&#45;&gt;Node15</title>
<g id="a_edge23_Node000015_Node000015"><a xlink:title=" ">
<path fill="none" stroke="#63b8ff" d="M446.66,-186.56C444.11,-190.23 438.1,-192.75 428.62,-192.75 410.79,-192.75 405.22,-183.81 411.91,-175.15"/>
<polygon fill="#63b8ff" stroke="#63b8ff" points="450.14,-186.18 445.52,-176.65 443.19,-186.99 450.14,-186.18"/>
</a>
</g>
</g>
</g>
</svg>
