<?xml version="1.0" encoding="UTF-8" standalone="no"?>
<!DOCTYPE svg PUBLIC "-//W3C//DTD SVG 1.1//EN"
 "http://www.w3.org/Graphics/SVG/1.1/DTD/svg11.dtd">
<!-- Generated by graphviz version 12.2.1 (0)
 -->
<!-- Title: w2c__f563 Pages: 1 -->
<svg width="698pt" height="261pt"
 viewBox="0.00 0.00 698.25 260.75" xmlns="http://www.w3.org/2000/svg" xmlns:xlink="http://www.w3.org/1999/xlink">
<g id="graph0" class="graph" transform="scale(1 1) rotate(0) translate(4 256.75)">
<title>w2c__f563</title>
<!-- Node1 -->
<g id="Node000001" class="node">
<title>Node1</title>
<g id="a_Node000001"><a xlink:title=" ">
<polygon fill="#999999" stroke="#666666" points="67.75,-79.75 0,-79.75 0,-59 67.75,-59 67.75,-79.75"/>
<text text-anchor="middle" x="33.88" y="-66.25" font-family="Helvetica,sans-Serif" font-size="10.00">w2c__f563</text>
</a>
</g>
</g>
<!-- Node2 -->
<g id="Node000002" class="node">
<title>Node2</title>
<g id="a_Node000002"><a xlink:href="app_8c.html#a0378208e0d5c0d1d6e7370f1c578fab3" target="_top" xlink:title=" ">
<polygon fill="white" stroke="#666666" points="586.5,-98.75 518.75,-98.75 518.75,-78 586.5,-78 586.5,-98.75"/>
<text text-anchor="middle" x="552.62" y="-85.25" font-family="Helvetica,sans-Serif" font-size="10.00">w2c__f216</text>
</a>
</g>
</g>
<!-- Node1&#45;&gt;Node2 -->
<g id="edge1_Node000001_Node000002" class="edge">
<title>Node1&#45;&gt;Node2</title>
<g id="a_edge1_Node000001_Node000002"><a xlink:title=" ">
<path fill="none" stroke="#63b8ff" d="M68.25,-74.37C108.83,-80 179.47,-88.38 240.38,-88.38 240.38,-88.38 240.38,-88.38 346.12,-88.38 401.61,-88.38 465.52,-88.38 507.14,-88.38"/>
<polygon fill="#63b8ff" stroke="#63b8ff" points="507.01,-91.88 517.01,-88.38 507.01,-84.88 507.01,-91.88"/>
</a>
</g>
</g>
<!-- Node4 -->
<g id="Node000004" class="node">
<title>Node4</title>
<g id="a_Node000004"><a xlink:href="app_8c.html#a8c2397afdef3a068e7ddfae863c81afc" target="_top" xlink:title=" ">
<polygon fill="white" stroke="#666666" points="586.5,-20.75 518.75,-20.75 518.75,0 586.5,0 586.5,-20.75"/>
<text text-anchor="middle" x="552.62" y="-7.25" font-family="Helvetica,sans-Serif" font-size="10.00">w2c__f523</text>
</a>
</g>
</g>
<!-- Node1&#45;&gt;Node4 -->
<g id="edge3_Node000001_Node000004" class="edge">
<title>Node1&#45;&gt;Node4</title>
<g id="a_edge3_Node000001_Node000004"><a xlink:title=" ">
<path fill="none" stroke="#63b8ff" d="M58.03,-58.52C95.48,-41.98 172.07,-12.38 240.38,-12.38 240.38,-12.38 240.38,-12.38 346.12,-12.38 401.61,-12.38 465.52,-11.64 507.14,-11.06"/>
<polygon fill="#63b8ff" stroke="#63b8ff" points="507.06,-14.56 517.01,-10.92 506.96,-7.56 507.06,-14.56"/>
</a>
</g>
</g>
<!-- Node6 -->
<g id="Node000006" class="node">
<title>Node6</title>
<g id="a_Node000006"><a xlink:href="app_8c.html#ab16838b13b3b04803218f8829fdd28dd" target="_top" xlink:title=" ">
<polygon fill="white" stroke="#666666" points="171.5,-137.75 103.75,-137.75 103.75,-117 171.5,-117 171.5,-137.75"/>
<text text-anchor="middle" x="137.62" y="-124.25" font-family="Helvetica,sans-Serif" font-size="10.00">w2c__f535</text>
</a>
</g>
</g>
<!-- Node1&#45;&gt;Node6 -->
<g id="edge5_Node000001_Node000006" class="edge">
<title>Node1&#45;&gt;Node6</title>
<g id="a_edge5_Node000001_Node000006"><a xlink:title=" ">
<path fill="none" stroke="#63b8ff" d="M53.54,-80.01C68.79,-88.71 90.6,-101.14 108.05,-111.09"/>
<polygon fill="#63b8ff" stroke="#63b8ff" points="106,-113.95 116.42,-115.86 109.47,-107.87 106,-113.95"/>
</a>
</g>
</g>
<!-- Node15 -->
<g id="Node000015" class="node">
<title>Node15</title>
<g id="a_Node000015"><a xlink:href="app_8c.html#a769b7c2ede58215b4aa18ce981255362" target="_top" xlink:title=" ">
<polygon fill="white" stroke="#666666" points="482.75,-60.75 415,-60.75 415,-40 482.75,-40 482.75,-60.75"/>
<text text-anchor="middle" x="448.88" y="-47.25" font-family="Helvetica,sans-Serif" font-size="10.00">w2c__f582</text>
</a>
</g>
</g>
<!-- Node1&#45;&gt;Node15 -->
<g id="edge21_Node000001_Node000015" class="edge">
<title>Node1&#45;&gt;Node15</title>
<g id="a_edge21_Node000001_Node000015"><a xlink:title=" ">
<path fill="none" stroke="#63b8ff" d="M67.97,-67.85C141.76,-64.46 319.76,-56.27 403.25,-52.43"/>
<polygon fill="#63b8ff" stroke="#63b8ff" points="403.28,-55.93 413.11,-51.97 402.96,-48.94 403.28,-55.93"/>
</a>
</g>
</g>
<!-- Node3 -->
<g id="Node000003" class="node">
<title>Node3</title>
<g id="a_Node000003"><a xlink:href="app_8c.html#a8d9f347f9a643f0ebfb53c4f54578ac4" target="_top" xlink:title=" ">
<polygon fill="white" stroke="#666666" points="690.25,-214.75 622.5,-214.75 622.5,-194 690.25,-194 690.25,-214.75"/>
<text text-anchor="middle" x="656.38" y="-201.25" font-family="Helvetica,sans-Serif" font-size="10.00">w2c__f304</text>
</a>
</g>
</g>
<!-- Node2&#45;&gt;Node3 -->
<g id="edge2_Node000002_Node000003" class="edge">
<title>Node2&#45;&gt;Node3</title>
<g id="a_edge2_Node000002_Node000003"><a xlink:title=" ">
<path fill="none" stroke="#63b8ff" d="M575.51,-99.2C579.49,-101.83 583.37,-104.9 586.5,-108.38 611.52,-136.14 597.48,-156.61 622.5,-184.38 623.18,-185.14 623.91,-185.88 624.65,-186.6"/>
<polygon fill="#63b8ff" stroke="#63b8ff" points="622.27,-189.18 632.3,-192.61 626.6,-183.68 622.27,-189.18"/>
</a>
</g>
</g>
<!-- Node5 -->
<g id="Node000005" class="node">
<title>Node5</title>
<g id="a_Node000005"><a xlink:href="app_8c.html#a75d2a28c1bac8b1e29f069bf851fdba9" target="_top" xlink:title=" ">
<polygon fill="white" stroke="#666666" points="690.25,-20.75 622.5,-20.75 622.5,0 690.25,0 690.25,-20.75"/>
<text text-anchor="middle" x="656.38" y="-7.25" font-family="Helvetica,sans-Serif" font-size="10.00">w2c__f549</text>
</a>
</g>
</g>
<!-- Node4&#45;&gt;Node5 -->
<g id="edge4_Node000004_Node000005" class="edge">
<title>Node4&#45;&gt;Node5</title>
<g id="a_edge4_Node000004_Node000005"><a xlink:title=" ">
<path fill="none" stroke="#63b8ff" d="M586.94,-10.38C594.57,-10.38 602.81,-10.38 610.83,-10.38"/>
<polygon fill="#63b8ff" stroke="#63b8ff" points="610.82,-13.88 620.82,-10.38 610.82,-6.88 610.82,-13.88"/>
</a>
</g>
</g>
<!-- Node7 -->
<g id="Node000007" class="node">
<title>Node7</title>
<g id="a_Node000007"><a xlink:href="app_8c.html#a674f6e81761467d0a8dc6d2a425eda9f" target="_top" xlink:title=" ">
<polygon fill="white" stroke="#666666" points="586.5,-137.75 518.75,-137.75 518.75,-117 586.5,-117 586.5,-137.75"/>
<text text-anchor="middle" x="552.62" y="-124.25" font-family="Helvetica,sans-Serif" font-size="10.00">w2c__f498</text>
</a>
</g>
</g>
<!-- Node6&#45;&gt;Node7 -->
<g id="edge6_Node000006_Node000007" class="edge">
<title>Node6&#45;&gt;Node7</title>
<g id="a_edge6_Node000006_Node000007"><a xlink:title=" ">
<path fill="none" stroke="#63b8ff" d="M171.72,-127.38C245.51,-127.38 423.51,-127.38 507,-127.38"/>
<polygon fill="#63b8ff" stroke="#63b8ff" points="506.85,-130.88 516.85,-127.38 506.85,-123.88 506.85,-130.88"/>
</a>
</g>
</g>
<!-- Node8 -->
<g id="Node000008" class="node">
<title>Node8</title>
<g id="a_Node000008"><a xlink:href="app_8c.html#a6cf2e7d1cf333a3a679afd04df9d6129" target="_top" xlink:title=" ">
<polygon fill="white" stroke="#666666" points="275.25,-175.75 207.5,-175.75 207.5,-155 275.25,-155 275.25,-175.75"/>
<text text-anchor="middle" x="241.38" y="-162.25" font-family="Helvetica,sans-Serif" font-size="10.00">w2c__f550</text>
</a>
</g>
</g>
<!-- Node6&#45;&gt;Node8 -->
<g id="edge7_Node000006_Node000008" class="edge">
<title>Node6&#45;&gt;Node8</title>
<g id="a_edge7_Node000006_Node000008"><a xlink:title=" ">
<path fill="none" stroke="#63b8ff" d="M167.51,-138.16C177.82,-142.01 189.63,-146.42 200.69,-150.55"/>
<polygon fill="#63b8ff" stroke="#63b8ff" points="199.41,-153.81 210,-154.03 201.86,-147.25 199.41,-153.81"/>
</a>
</g>
</g>
<!-- Node9 -->
<g id="Node000009" class="node">
<title>Node9</title>
<g id="a_Node000009"><a xlink:href="app_8c.html#a1a8a1d528c65d63a630e19c3a4bdd098" target="_top" xlink:title=" ">
<polygon fill="white" stroke="#666666" points="379,-175.75 311.25,-175.75 311.25,-155 379,-155 379,-175.75"/>
<text text-anchor="middle" x="345.12" y="-162.25" font-family="Helvetica,sans-Serif" font-size="10.00">w2c__f557</text>
</a>
</g>
</g>
<!-- Node8&#45;&gt;Node9 -->
<g id="edge8_Node000008_Node000009" class="edge">
<title>Node8&#45;&gt;Node9</title>
<g id="a_edge8_Node000008_Node000009"><a xlink:title=" ">
<path fill="none" stroke="#63b8ff" d="M275.69,-165.38C283.32,-165.38 291.56,-165.38 299.58,-165.38"/>
<polygon fill="#63b8ff" stroke="#63b8ff" points="299.57,-168.88 309.57,-165.38 299.57,-161.88 299.57,-168.88"/>
</a>
</g>
</g>
<!-- Node10 -->
<g id="Node000010" class="node">
<title>Node10</title>
<g id="a_Node000010"><a xlink:href="app_8c.html#a0f7003812eaf983535ff7979fc047a21" target="_top" xlink:title=" ">
<polygon fill="white" stroke="#666666" points="482.75,-214.75 415,-214.75 415,-194 482.75,-194 482.75,-214.75"/>
<text text-anchor="middle" x="448.88" y="-201.25" font-family="Helvetica,sans-Serif" font-size="10.00">w2c__f353</text>
</a>
</g>
</g>
<!-- Node9&#45;&gt;Node10 -->
<g id="edge9_Node000009_Node000010" class="edge">
<title>Node9&#45;&gt;Node10</title>
<g id="a_edge9_Node000009_Node000010"><a xlink:title=" ">
<path fill="none" stroke="#63b8ff" d="M374.47,-176.24C385.16,-180.34 397.52,-185.08 409.01,-189.48"/>
<polygon fill="#63b8ff" stroke="#63b8ff" points="407.68,-192.72 418.27,-193.03 410.19,-186.18 407.68,-192.72"/>
</a>
</g>
</g>
<!-- Node14 -->
<g id="Node000014" class="node">
<title>Node14</title>
<g id="a_Node000014"><a xlink:href="app_8c.html#ac9cc84763a9c1933e50eedd7a06c17e2" target="_top" xlink:title=" ">
<polygon fill="white" stroke="#666666" points="482.75,-175.75 415,-175.75 415,-155 482.75,-155 482.75,-175.75"/>
<text text-anchor="middle" x="448.88" y="-162.25" font-family="Helvetica,sans-Serif" font-size="10.00">w2c__f480</text>
</a>
</g>
</g>
<!-- Node9&#45;&gt;Node14 -->
<g id="edge15_Node000009_Node000014" class="edge">
<title>Node9&#45;&gt;Node14</title>
<g id="a_edge15_Node000009_Node000014"><a xlink:title=" ">
<path fill="none" stroke="#63b8ff" d="M379.44,-165.38C387.07,-165.38 395.31,-165.38 403.33,-165.38"/>
<polygon fill="#63b8ff" stroke="#63b8ff" points="403.32,-168.88 413.32,-165.38 403.32,-161.88 403.32,-168.88"/>
</a>
</g>
</g>
<!-- Node11 -->
<g id="Node000011" class="node">
<title>Node11</title>
<g id="a_Node000011"><a xlink:href="app_8c.html#aaca5d5bcf49f2ca74019cf097750b9f3" target="_top" xlink:title=" ">
<polygon fill="white" stroke="#666666" points="586.5,-176.75 518.75,-176.75 518.75,-156 586.5,-156 586.5,-176.75"/>
<text text-anchor="middle" x="552.62" y="-163.25" font-family="Helvetica,sans-Serif" font-size="10.00">w2c__f258</text>
</a>
</g>
</g>
<!-- Node10&#45;&gt;Node11 -->
<g id="edge10_Node000010_Node000011" class="edge">
<title>Node10&#45;&gt;Node11</title>
<g id="a_edge10_Node000010_Node000011"><a xlink:title=" ">
<path fill="none" stroke="#63b8ff" d="M478.76,-193.59C489.07,-189.74 500.88,-185.33 511.94,-181.2"/>
<polygon fill="#63b8ff" stroke="#63b8ff" points="513.11,-184.5 521.25,-177.72 510.66,-177.94 513.11,-184.5"/>
</a>
</g>
</g>
<!-- Node13 -->
<g id="Node000013" class="node">
<title>Node13</title>
<g id="a_Node000013"><a xlink:href="app_8c.html#a4634342addbde677893ffcb45cf639dd" target="_top" xlink:title=" ">
<polygon fill="white" stroke="#666666" points="586.5,-252.75 518.75,-252.75 518.75,-232 586.5,-232 586.5,-252.75"/>
<text text-anchor="middle" x="552.62" y="-239.25" font-family="Helvetica,sans-Serif" font-size="10.00">w2c__f302</text>
</a>
</g>
</g>
<!-- Node10&#45;&gt;Node13 -->
<g id="edge13_Node000010_Node000013" class="edge">
<title>Node10&#45;&gt;Node13</title>
<g id="a_edge13_Node000010_Node000013"><a xlink:title=" ">
<path fill="none" stroke="#63b8ff" d="M478.76,-215.16C489.07,-219.01 500.88,-223.42 511.94,-227.55"/>
<polygon fill="#63b8ff" stroke="#63b8ff" points="510.66,-230.81 521.25,-231.03 513.11,-224.25 510.66,-230.81"/>
</a>
</g>
</g>
<!-- Node11&#45;&gt;Node3 -->
<g id="edge11_Node000011_Node000003" class="edge">
<title>Node11&#45;&gt;Node3</title>
<g id="a_edge11_Node000011_Node000003"><a xlink:title=" ">
<path fill="none" stroke="#63b8ff" d="M582.51,-177.16C592.82,-181.01 604.63,-185.42 615.69,-189.55"/>
<polygon fill="#63b8ff" stroke="#63b8ff" points="614.41,-192.81 625,-193.03 616.86,-186.25 614.41,-192.81"/>
</a>
</g>
</g>
<!-- Node12 -->
<g id="Node000012" class="node">
<title>Node12</title>
<g id="a_Node000012"><a xlink:href="app_8c.html#a881f0b113e93dce3ff52d04b435850f6" target="_top" xlink:title=" ">
<polygon fill="white" stroke="#666666" points="690.25,-175.75 622.5,-175.75 622.5,-155 690.25,-155 690.25,-175.75"/>
<text text-anchor="middle" x="656.38" y="-162.25" font-family="Helvetica,sans-Serif" font-size="10.00">w2c__f491</text>
</a>
</g>
</g>
<!-- Node11&#45;&gt;Node12 -->
<g id="edge12_Node000011_Node000012" class="edge">
<title>Node11&#45;&gt;Node12</title>
<g id="a_edge12_Node000011_Node000012"><a xlink:title=" ">
<path fill="none" stroke="#63b8ff" d="M586.94,-166.05C594.57,-165.97 602.81,-165.89 610.83,-165.81"/>
<polygon fill="#63b8ff" stroke="#63b8ff" points="610.85,-169.31 620.82,-165.71 610.78,-162.31 610.85,-169.31"/>
</a>
</g>
</g>
<!-- Node13&#45;&gt;Node3 -->
<g id="edge14_Node000013_Node000003" class="edge">
<title>Node13&#45;&gt;Node3</title>
<g id="a_edge14_Node000013_Node000003"><a xlink:title=" ">
<path fill="none" stroke="#63b8ff" d="M582.51,-231.59C592.82,-227.74 604.63,-223.33 615.69,-219.2"/>
<polygon fill="#63b8ff" stroke="#63b8ff" points="616.86,-222.5 625,-215.72 614.41,-215.94 616.86,-222.5"/>
</a>
</g>
</g>
<!-- Node14&#45;&gt;Node2 -->
<g id="edge16_Node000014_Node000002" class="edge">
<title>Node14&#45;&gt;Node2</title>
<g id="a_edge16_Node000014_Node000002"><a xlink:title=" ">
<path fill="none" stroke="#63b8ff" d="M461.65,-154.74C475.03,-142.85 497.76,-123.32 518.75,-108.38 520.28,-107.28 521.88,-106.19 523.5,-105.11"/>
<polygon fill="#63b8ff" stroke="#63b8ff" points="525.06,-108.26 531.62,-99.94 521.3,-102.36 525.06,-108.26"/>
</a>
</g>
</g>
<!-- Node14&#45;&gt;Node3 -->
<g id="edge19_Node000014_Node000003" class="edge">
<title>Node14&#45;&gt;Node3</title>
<g id="a_edge19_Node000014_Node000003"><a xlink:title=" ">
<path fill="none" stroke="#63b8ff" d="M482.91,-176.02C494.19,-179.37 506.94,-182.85 518.75,-185.38 549.15,-191.87 583.84,-196.66 610.66,-199.81"/>
<polygon fill="#63b8ff" stroke="#63b8ff" points="610.18,-203.28 620.51,-200.93 610.97,-196.32 610.18,-203.28"/>
</a>
</g>
</g>
<!-- Node14&#45;&gt;Node7 -->
<g id="edge20_Node000014_Node000007" class="edge">
<title>Node14&#45;&gt;Node7</title>
<g id="a_edge20_Node000014_Node000007"><a xlink:title=" ">
<path fill="none" stroke="#63b8ff" d="M478.76,-154.59C489.07,-150.74 500.88,-146.33 511.94,-142.2"/>
<polygon fill="#63b8ff" stroke="#63b8ff" points="513.11,-145.5 521.25,-138.72 510.66,-138.94 513.11,-145.5"/>
</a>
</g>
</g>
<!-- Node14&#45;&gt;Node11 -->
<g id="edge17_Node000014_Node000011" class="edge">
<title>Node14&#45;&gt;Node11</title>
<g id="a_edge17_Node000014_Node000011"><a xlink:title=" ">
<path fill="none" stroke="#63b8ff" d="M483.19,-165.7C490.82,-165.78 499.06,-165.86 507.08,-165.94"/>
<polygon fill="#63b8ff" stroke="#63b8ff" points="507.03,-169.44 517.07,-166.04 507.1,-162.44 507.03,-169.44"/>
</a>
</g>
</g>
<!-- Node14&#45;&gt;Node13 -->
<g id="edge18_Node000014_Node000013" class="edge">
<title>Node14&#45;&gt;Node13</title>
<g id="a_edge18_Node000014_Node000013"><a xlink:title=" ">
<path fill="none" stroke="#63b8ff" d="M469.07,-176.18C473.66,-179.01 478.48,-182.17 482.75,-185.38 500.1,-198.41 501.96,-204.62 518.75,-218.38 521.45,-220.59 524.33,-222.84 527.23,-225.03"/>
<polygon fill="#63b8ff" stroke="#63b8ff" points="524.96,-227.71 535.08,-230.83 529.11,-222.08 524.96,-227.71"/>
</a>
</g>
</g>
<!-- Node15&#45;&gt;Node2 -->
<g id="edge22_Node000015_Node000002" class="edge">
<title>Node15&#45;&gt;Node2</title>
<g id="a_edge22_Node000015_Node000002"><a xlink:title=" ">
<path fill="none" stroke="#63b8ff" d="M478.76,-61.16C489.07,-65.01 500.88,-69.42 511.94,-73.55"/>
<polygon fill="#63b8ff" stroke="#63b8ff" points="510.66,-76.81 521.25,-77.03 513.11,-70.25 510.66,-76.81"/>
</a>
</g>
</g>
<!-- Node15&#45;&gt;Node4 -->
<g id="edge25_Node000015_Node000004" class="edge">
<title>Node15&#45;&gt;Node4</title>
<g id="a_edge25_Node000015_Node000004"><a xlink:title=" ">
<path fill="none" stroke="#63b8ff" d="M477.41,-39.55C488.49,-35.19 501.47,-30.09 513.44,-25.39"/>
<polygon fill="#63b8ff" stroke="#63b8ff" points="514.63,-28.68 522.66,-21.76 512.07,-22.16 514.63,-28.68"/>
</a>
</g>
</g>
<!-- Node15&#45;&gt;Node7 -->
<g id="edge24_Node000015_Node000007" class="edge">
<title>Node15&#45;&gt;Node7</title>
<g id="a_edge24_Node000015_Node000007"><a xlink:title=" ">
<path fill="none" stroke="#63b8ff" d="M461.65,-61.01C475.03,-72.9 497.76,-92.43 518.75,-107.38 520.28,-108.47 521.88,-109.56 523.5,-110.64"/>
<polygon fill="#63b8ff" stroke="#63b8ff" points="521.3,-113.39 531.62,-115.81 525.06,-107.49 521.3,-113.39"/>
</a>
</g>
</g>
<!-- Node15&#45;&gt;Node11 -->
<g id="edge23_Node000015_Node000011" class="edge">
<title>Node15&#45;&gt;Node11</title>
<g id="a_edge23_Node000015_Node000011"><a xlink:title=" ">
<path fill="none" stroke="#63b8ff" d="M455.72,-61.24C466.33,-80.25 490.32,-120.02 518.75,-146.38 519.66,-147.22 520.6,-148.04 521.58,-148.84"/>
<polygon fill="#63b8ff" stroke="#63b8ff" points="519.5,-151.66 529.67,-154.64 523.58,-145.97 519.5,-151.66"/>
</a>
</g>
</g>
<!-- Node16 -->
<g id="Node000016" class="node">
<title>Node16</title>
<g id="a_Node000016"><a xlink:href="app_8c.html#a672569c91ebb1d5055d737b56ec296a7" target="_top" xlink:title=" ">
<polygon fill="white" stroke="#666666" points="586.5,-59.75 518.75,-59.75 518.75,-39 586.5,-39 586.5,-59.75"/>
<text text-anchor="middle" x="552.62" y="-46.25" font-family="Helvetica,sans-Serif" font-size="10.00">w2c__f585</text>
</a>
</g>
</g>
<!-- Node15&#45;&gt;Node16 -->
<g id="edge26_Node000015_Node000016" class="edge">
<title>Node15&#45;&gt;Node16</title>
<g id="a_edge26_Node000015_Node000016"><a xlink:title=" ">
<path fill="none" stroke="#63b8ff" d="M483.19,-50.05C490.82,-49.97 499.06,-49.89 507.08,-49.81"/>
<polygon fill="#63b8ff" stroke="#63b8ff" points="507.1,-53.31 517.07,-49.71 507.03,-46.31 507.1,-53.31"/>
</a>
</g>
</g>
</g>
</svg>
