<?xml version="1.0" encoding="UTF-8" standalone="no"?>
<!DOCTYPE svg PUBLIC "-//W3C//DTD SVG 1.1//EN"
 "http://www.w3.org/Graphics/SVG/1.1/DTD/svg11.dtd">
<!-- Generated by graphviz version 12.2.1 (0)
 -->
<!-- Title: wrap_w2c__f403 Pages: 1 -->
<svg width="935pt" height="183pt"
 viewBox="0.00 0.00 935.00 182.75" xmlns="http://www.w3.org/2000/svg" xmlns:xlink="http://www.w3.org/1999/xlink">
<g id="graph0" class="graph" transform="scale(1 1) rotate(0) translate(4 178.75)">
<title>wrap_w2c__f403</title>
<!-- Node1 -->
<g id="Node000001" class="node">
<title>Node1</title>
<g id="a_Node000001"><a xlink:title=" ">
<polygon fill="#999999" stroke="#666666" points="97,-77.75 0,-77.75 0,-57 97,-57 97,-77.75"/>
<text text-anchor="middle" x="48.5" y="-64.25" font-family="Helvetica,sans-Serif" font-size="10.00">wrap_w2c__f403</text>
</a>
</g>
</g>
<!-- Node2 -->
<g id="Node000002" class="node">
<title>Node2</title>
<g id="a_Node000002"><a xlink:href="app_8c.html#a8ca65130146e331854dff1f7ab408838" target="_top" xlink:title=" ">
<polygon fill="white" stroke="#666666" points="200.75,-77.75 133,-77.75 133,-57 200.75,-57 200.75,-77.75"/>
<text text-anchor="middle" x="166.88" y="-64.25" font-family="Helvetica,sans-Serif" font-size="10.00">w2c__f403</text>
</a>
</g>
</g>
<!-- Node1&#45;&gt;Node2 -->
<g id="edge1_Node000001_Node000002" class="edge">
<title>Node1&#45;&gt;Node2</title>
<g id="a_edge1_Node000001_Node000002"><a xlink:title=" ">
<path fill="none" stroke="#63b8ff" d="M97.17,-67.38C105.18,-67.38 113.47,-67.38 121.4,-67.38"/>
<polygon fill="#63b8ff" stroke="#63b8ff" points="121.17,-70.88 131.17,-67.38 121.17,-63.88 121.17,-70.88"/>
</a>
</g>
</g>
<!-- Node3 -->
<g id="Node000003" class="node">
<title>Node3</title>
<g id="a_Node000003"><a xlink:href="app_8c.html#a8d133b0dcb7130bbc0a48ea5c1975662" target="_top" xlink:title=" ">
<polygon fill="white" stroke="#666666" points="304.5,-58.75 236.75,-58.75 236.75,-38 304.5,-38 304.5,-58.75"/>
<text text-anchor="middle" x="270.62" y="-45.25" font-family="Helvetica,sans-Serif" font-size="10.00">w2c__f436</text>
</a>
</g>
</g>
<!-- Node2&#45;&gt;Node3 -->
<g id="edge2_Node000002_Node000003" class="edge">
<title>Node2&#45;&gt;Node3</title>
<g id="a_edge2_Node000002_Node000003"><a xlink:title=" ">
<path fill="none" stroke="#63b8ff" d="M201.19,-61.15C208.91,-59.71 217.25,-58.16 225.36,-56.64"/>
<polygon fill="#63b8ff" stroke="#63b8ff" points="225.91,-60.1 235.09,-54.82 224.62,-53.22 225.91,-60.1"/>
</a>
</g>
</g>
<!-- Node7 -->
<g id="Node000007" class="node">
<title>Node7</title>
<g id="a_Node000007"><a xlink:href="app_8c.html#a282da58cdb8a8d86b26b785358ce183a" target="_top" xlink:title=" ">
<polygon fill="white" stroke="#666666" points="512,-96.75 444.25,-96.75 444.25,-76 512,-76 512,-96.75"/>
<text text-anchor="middle" x="478.12" y="-83.25" font-family="Helvetica,sans-Serif" font-size="10.00">w2c__f504</text>
</a>
</g>
</g>
<!-- Node2&#45;&gt;Node7 -->
<g id="edge21_Node000002_Node000007" class="edge">
<title>Node2&#45;&gt;Node7</title>
<g id="a_edge21_Node000002_Node000007"><a xlink:title=" ">
<path fill="none" stroke="#63b8ff" d="M200.97,-69.41C256.86,-72.84 369.97,-79.79 432.7,-83.65"/>
<polygon fill="#63b8ff" stroke="#63b8ff" points="432.09,-87.11 442.29,-84.23 432.52,-80.13 432.09,-87.11"/>
</a>
</g>
</g>
<!-- Node4 -->
<g id="Node000004" class="node">
<title>Node4</title>
<g id="a_Node000004"><a xlink:href="app_8c.html#a0378208e0d5c0d1d6e7370f1c578fab3" target="_top" xlink:title=" ">
<polygon fill="white" stroke="#666666" points="823.25,-20.75 755.5,-20.75 755.5,0 823.25,0 823.25,-20.75"/>
<text text-anchor="middle" x="789.38" y="-7.25" font-family="Helvetica,sans-Serif" font-size="10.00">w2c__f216</text>
</a>
</g>
</g>
<!-- Node3&#45;&gt;Node4 -->
<g id="edge3_Node000003_Node000004" class="edge">
<title>Node3&#45;&gt;Node4</title>
<g id="a_edge3_Node000003_Node000004"><a xlink:title=" ">
<path fill="none" stroke="#63b8ff" d="M304.74,-38.39C345.06,-27.13 415.45,-10.38 477.12,-10.38 477.12,-10.38 477.12,-10.38 582.88,-10.38 638.36,-10.38 702.27,-10.38 743.89,-10.38"/>
<polygon fill="#63b8ff" stroke="#63b8ff" points="743.76,-13.88 753.76,-10.38 743.76,-6.88 743.76,-13.88"/>
</a>
</g>
</g>
<!-- Node6 -->
<g id="Node000006" class="node">
<title>Node6</title>
<g id="a_Node000006"><a xlink:href="app_8c.html#a8ddfdaf7faae4bc857dc43f2691b9dbe" target="_top" xlink:title=" ">
<polygon fill="white" stroke="#666666" points="408.25,-58.75 340.5,-58.75 340.5,-38 408.25,-38 408.25,-58.75"/>
<text text-anchor="middle" x="374.38" y="-45.25" font-family="Helvetica,sans-Serif" font-size="10.00">w2c__f306</text>
</a>
</g>
</g>
<!-- Node3&#45;&gt;Node6 -->
<g id="edge5_Node000003_Node000006" class="edge">
<title>Node3&#45;&gt;Node6</title>
<g id="a_edge5_Node000003_Node000006"><a xlink:title=" ">
<path fill="none" stroke="#63b8ff" d="M304.94,-48.38C312.57,-48.38 320.81,-48.38 328.83,-48.38"/>
<polygon fill="#63b8ff" stroke="#63b8ff" points="328.82,-51.88 338.82,-48.38 328.82,-44.88 328.82,-51.88"/>
</a>
</g>
</g>
<!-- Node5 -->
<g id="Node000005" class="node">
<title>Node5</title>
<g id="a_Node000005"><a xlink:href="app_8c.html#a8d9f347f9a643f0ebfb53c4f54578ac4" target="_top" xlink:title=" ">
<polygon fill="white" stroke="#666666" points="927,-116.75 859.25,-116.75 859.25,-96 927,-96 927,-116.75"/>
<text text-anchor="middle" x="893.12" y="-103.25" font-family="Helvetica,sans-Serif" font-size="10.00">w2c__f304</text>
</a>
</g>
</g>
<!-- Node4&#45;&gt;Node5 -->
<g id="edge4_Node000004_Node000005" class="edge">
<title>Node4&#45;&gt;Node5</title>
<g id="a_edge4_Node000004_Node000005"><a xlink:title=" ">
<path fill="none" stroke="#63b8ff" d="M810.13,-21.12C814.61,-23.9 819.23,-27.06 823.25,-30.38 843.9,-47.44 864.07,-70.7 877.19,-86.98"/>
<polygon fill="#63b8ff" stroke="#63b8ff" points="874.17,-88.79 883.11,-94.47 879.66,-84.45 874.17,-88.79"/>
</a>
</g>
</g>
<!-- Node6&#45;&gt;Node4 -->
<g id="edge6_Node000006_Node000004" class="edge">
<title>Node6&#45;&gt;Node4</title>
<g id="a_edge6_Node000006_Node000004"><a xlink:title=" ">
<path fill="none" stroke="#63b8ff" d="M408.74,-47.5C470.38,-45.56 606.15,-39.78 719.5,-24.38 727.47,-23.29 735.91,-21.84 744.03,-20.28"/>
<polygon fill="#63b8ff" stroke="#63b8ff" points="744.65,-23.72 753.76,-18.32 743.27,-16.86 744.65,-23.72"/>
</a>
</g>
</g>
<!-- Node6&#45;&gt;Node7 -->
<g id="edge7_Node000006_Node000007" class="edge">
<title>Node6&#45;&gt;Node7</title>
<g id="a_edge7_Node000006_Node000007"><a xlink:title=" ">
<path fill="none" stroke="#63b8ff" d="M404.26,-59.16C414.57,-63.01 426.38,-67.42 437.44,-71.55"/>
<polygon fill="#63b8ff" stroke="#63b8ff" points="436.16,-74.81 446.75,-75.03 438.61,-68.25 436.16,-74.81"/>
</a>
</g>
</g>
<!-- Node8 -->
<g id="Node000008" class="node">
<title>Node8</title>
<g id="a_Node000008"><a xlink:href="app_8c.html#a1a8a1d528c65d63a630e19c3a4bdd098" target="_top" xlink:title=" ">
<polygon fill="white" stroke="#666666" points="615.75,-96.75 548,-96.75 548,-76 615.75,-76 615.75,-96.75"/>
<text text-anchor="middle" x="581.88" y="-83.25" font-family="Helvetica,sans-Serif" font-size="10.00">w2c__f557</text>
</a>
</g>
</g>
<!-- Node7&#45;&gt;Node8 -->
<g id="edge8_Node000007_Node000008" class="edge">
<title>Node7&#45;&gt;Node8</title>
<g id="a_edge8_Node000007_Node000008"><a xlink:title=" ">
<path fill="none" stroke="#63b8ff" d="M512.44,-86.38C520.07,-86.38 528.31,-86.38 536.33,-86.38"/>
<polygon fill="#63b8ff" stroke="#63b8ff" points="536.32,-89.88 546.32,-86.38 536.32,-82.88 536.32,-89.88"/>
</a>
</g>
</g>
<!-- Node9 -->
<g id="Node000009" class="node">
<title>Node9</title>
<g id="a_Node000009"><a xlink:href="app_8c.html#a0f7003812eaf983535ff7979fc047a21" target="_top" xlink:title=" ">
<polygon fill="white" stroke="#666666" points="719.5,-135.75 651.75,-135.75 651.75,-115 719.5,-115 719.5,-135.75"/>
<text text-anchor="middle" x="685.62" y="-122.25" font-family="Helvetica,sans-Serif" font-size="10.00">w2c__f353</text>
</a>
</g>
</g>
<!-- Node8&#45;&gt;Node9 -->
<g id="edge9_Node000008_Node000009" class="edge">
<title>Node8&#45;&gt;Node9</title>
<g id="a_edge9_Node000008_Node000009"><a xlink:title=" ">
<path fill="none" stroke="#63b8ff" d="M611.22,-97.24C621.91,-101.34 634.27,-106.08 645.76,-110.48"/>
<polygon fill="#63b8ff" stroke="#63b8ff" points="644.43,-113.72 655.02,-114.03 646.94,-107.18 644.43,-113.72"/>
</a>
</g>
</g>
<!-- Node13 -->
<g id="Node000013" class="node">
<title>Node13</title>
<g id="a_Node000013"><a xlink:href="app_8c.html#ac9cc84763a9c1933e50eedd7a06c17e2" target="_top" xlink:title=" ">
<polygon fill="white" stroke="#666666" points="719.5,-96.75 651.75,-96.75 651.75,-76 719.5,-76 719.5,-96.75"/>
<text text-anchor="middle" x="685.62" y="-83.25" font-family="Helvetica,sans-Serif" font-size="10.00">w2c__f480</text>
</a>
</g>
</g>
<!-- Node8&#45;&gt;Node13 -->
<g id="edge15_Node000008_Node000013" class="edge">
<title>Node8&#45;&gt;Node13</title>
<g id="a_edge15_Node000008_Node000013"><a xlink:title=" ">
<path fill="none" stroke="#63b8ff" d="M616.19,-86.38C623.82,-86.38 632.06,-86.38 640.08,-86.38"/>
<polygon fill="#63b8ff" stroke="#63b8ff" points="640.07,-89.88 650.07,-86.38 640.07,-82.88 640.07,-89.88"/>
</a>
</g>
</g>
<!-- Node10 -->
<g id="Node000010" class="node">
<title>Node10</title>
<g id="a_Node000010"><a xlink:href="app_8c.html#aaca5d5bcf49f2ca74019cf097750b9f3" target="_top" xlink:title=" ">
<polygon fill="white" stroke="#666666" points="823.25,-174.75 755.5,-174.75 755.5,-154 823.25,-154 823.25,-174.75"/>
<text text-anchor="middle" x="789.38" y="-161.25" font-family="Helvetica,sans-Serif" font-size="10.00">w2c__f258</text>
</a>
</g>
</g>
<!-- Node9&#45;&gt;Node10 -->
<g id="edge10_Node000009_Node000010" class="edge">
<title>Node9&#45;&gt;Node10</title>
<g id="a_edge10_Node000009_Node000010"><a xlink:title=" ">
<path fill="none" stroke="#63b8ff" d="M714.97,-136.24C725.66,-140.34 738.02,-145.08 749.51,-149.48"/>
<polygon fill="#63b8ff" stroke="#63b8ff" points="748.18,-152.72 758.77,-153.03 750.69,-146.18 748.18,-152.72"/>
</a>
</g>
</g>
<!-- Node12 -->
<g id="Node000012" class="node">
<title>Node12</title>
<g id="a_Node000012"><a xlink:href="app_8c.html#a4634342addbde677893ffcb45cf639dd" target="_top" xlink:title=" ">
<polygon fill="white" stroke="#666666" points="823.25,-135.75 755.5,-135.75 755.5,-115 823.25,-115 823.25,-135.75"/>
<text text-anchor="middle" x="789.38" y="-122.25" font-family="Helvetica,sans-Serif" font-size="10.00">w2c__f302</text>
</a>
</g>
</g>
<!-- Node9&#45;&gt;Node12 -->
<g id="edge13_Node000009_Node000012" class="edge">
<title>Node9&#45;&gt;Node12</title>
<g id="a_edge13_Node000009_Node000012"><a xlink:title=" ">
<path fill="none" stroke="#63b8ff" d="M719.94,-125.38C727.57,-125.38 735.81,-125.38 743.83,-125.38"/>
<polygon fill="#63b8ff" stroke="#63b8ff" points="743.82,-128.88 753.82,-125.38 743.82,-121.88 743.82,-128.88"/>
</a>
</g>
</g>
<!-- Node10&#45;&gt;Node5 -->
<g id="edge11_Node000010_Node000005" class="edge">
<title>Node10&#45;&gt;Node5</title>
<g id="a_edge11_Node000010_Node000005"><a xlink:title=" ">
<path fill="none" stroke="#63b8ff" d="M809.04,-153.74C824.29,-145.04 846.1,-132.61 863.55,-122.66"/>
<polygon fill="#63b8ff" stroke="#63b8ff" points="864.97,-125.88 871.92,-117.89 861.5,-119.8 864.97,-125.88"/>
</a>
</g>
</g>
<!-- Node11 -->
<g id="Node000011" class="node">
<title>Node11</title>
<g id="a_Node000011"><a xlink:href="app_8c.html#a881f0b113e93dce3ff52d04b435850f6" target="_top" xlink:title=" ">
<polygon fill="white" stroke="#666666" points="927,-174.75 859.25,-174.75 859.25,-154 927,-154 927,-174.75"/>
<text text-anchor="middle" x="893.12" y="-161.25" font-family="Helvetica,sans-Serif" font-size="10.00">w2c__f491</text>
</a>
</g>
</g>
<!-- Node10&#45;&gt;Node11 -->
<g id="edge12_Node000010_Node000011" class="edge">
<title>Node10&#45;&gt;Node11</title>
<g id="a_edge12_Node000010_Node000011"><a xlink:title=" ">
<path fill="none" stroke="#63b8ff" d="M823.69,-164.38C831.32,-164.38 839.56,-164.38 847.58,-164.38"/>
<polygon fill="#63b8ff" stroke="#63b8ff" points="847.57,-167.88 857.57,-164.38 847.57,-160.88 847.57,-167.88"/>
</a>
</g>
</g>
<!-- Node12&#45;&gt;Node5 -->
<g id="edge14_Node000012_Node000005" class="edge">
<title>Node12&#45;&gt;Node5</title>
<g id="a_edge14_Node000012_Node000005"><a xlink:title=" ">
<path fill="none" stroke="#63b8ff" d="M823.69,-119.15C831.41,-117.71 839.75,-116.16 847.86,-114.64"/>
<polygon fill="#63b8ff" stroke="#63b8ff" points="848.41,-118.1 857.59,-112.82 847.12,-111.22 848.41,-118.1"/>
</a>
</g>
</g>
<!-- Node13&#45;&gt;Node4 -->
<g id="edge16_Node000013_Node000004" class="edge">
<title>Node13&#45;&gt;Node4</title>
<g id="a_edge16_Node000013_Node000004"><a xlink:title=" ">
<path fill="none" stroke="#63b8ff" d="M701.91,-75.68C707.53,-71.63 713.89,-66.9 719.5,-62.38 736.16,-48.94 738.29,-43.1 755.5,-30.38 756.84,-29.38 758.24,-28.39 759.66,-27.41"/>
<polygon fill="#63b8ff" stroke="#63b8ff" points="761.45,-30.42 767.95,-22.05 757.65,-24.55 761.45,-30.42"/>
</a>
</g>
</g>
<!-- Node13&#45;&gt;Node5 -->
<g id="edge19_Node000013_Node000005" class="edge">
<title>Node13&#45;&gt;Node5</title>
<g id="a_edge19_Node000013_Node000005"><a xlink:title=" ">
<path fill="none" stroke="#63b8ff" d="M719.64,-89.59C754.29,-92.96 808.98,-98.28 847.46,-102.03"/>
<polygon fill="#63b8ff" stroke="#63b8ff" points="847.05,-105.5 857.34,-102.99 847.73,-98.54 847.05,-105.5"/>
</a>
</g>
</g>
<!-- Node13&#45;&gt;Node10 -->
<g id="edge17_Node000013_Node000010" class="edge">
<title>Node13&#45;&gt;Node10</title>
<g id="a_edge17_Node000013_Node000010"><a xlink:title=" ">
<path fill="none" stroke="#63b8ff" d="M706.32,-97.19C710.81,-99.96 715.45,-103.1 719.5,-106.38 737.6,-120.99 737.4,-129.76 755.5,-144.38 756.77,-145.4 758.09,-146.41 759.45,-147.4"/>
<polygon fill="#63b8ff" stroke="#63b8ff" points="757.16,-150.08 767.42,-152.72 761.05,-144.26 757.16,-150.08"/>
</a>
</g>
</g>
<!-- Node13&#45;&gt;Node12 -->
<g id="edge18_Node000013_Node000012" class="edge">
<title>Node13&#45;&gt;Node12</title>
<g id="a_edge18_Node000013_Node000012"><a xlink:title=" ">
<path fill="none" stroke="#63b8ff" d="M714.97,-97.24C725.66,-101.34 738.02,-106.08 749.51,-110.48"/>
<polygon fill="#63b8ff" stroke="#63b8ff" points="748.18,-113.72 758.77,-114.03 750.69,-107.18 748.18,-113.72"/>
</a>
</g>
</g>
<!-- Node14 -->
<g id="Node000014" class="node">
<title>Node14</title>
<g id="a_Node000014"><a xlink:href="app_8c.html#a674f6e81761467d0a8dc6d2a425eda9f" target="_top" xlink:title=" ">
<polygon fill="white" stroke="#666666" points="823.25,-59.75 755.5,-59.75 755.5,-39 823.25,-39 823.25,-59.75"/>
<text text-anchor="middle" x="789.38" y="-46.25" font-family="Helvetica,sans-Serif" font-size="10.00">w2c__f498</text>
</a>
</g>
</g>
<!-- Node13&#45;&gt;Node14 -->
<g id="edge20_Node000013_Node000014" class="edge">
<title>Node13&#45;&gt;Node14</title>
<g id="a_edge20_Node000013_Node000014"><a xlink:title=" ">
<path fill="none" stroke="#63b8ff" d="M716.33,-75.57C726.25,-71.96 737.49,-67.88 748.08,-64.03"/>
<polygon fill="#63b8ff" stroke="#63b8ff" points="749.19,-67.35 757.39,-60.64 746.79,-60.77 749.19,-67.35"/>
</a>
</g>
</g>
</g>
</svg>
