<?xml version="1.0" encoding="UTF-8" standalone="no"?>
<!DOCTYPE svg PUBLIC "-//W3C//DTD SVG 1.1//EN"
 "http://www.w3.org/Graphics/SVG/1.1/DTD/svg11.dtd">
<!-- Generated by graphviz version 12.2.1 (0)
 -->
<!-- Title: w2c__f291 Pages: 1 -->
<svg width="389pt" height="377pt"
 viewBox="0.00 0.00 389.25 376.75" xmlns="http://www.w3.org/2000/svg" xmlns:xlink="http://www.w3.org/1999/xlink">
<g id="graph0" class="graph" transform="scale(1 1) rotate(0) translate(4 372.75)">
<title>w2c__f291</title>
<!-- Node1 -->
<g id="Node000001" class="node">
<title>Node1</title>
<g id="a_Node000001"><a xlink:title=" ">
<polygon fill="#999999" stroke="#666666" points="67.75,-193.75 0,-193.75 0,-173 67.75,-173 67.75,-193.75"/>
<text text-anchor="middle" x="33.88" y="-180.25" font-family="Helvetica,sans-Serif" font-size="10.00">w2c__f291</text>
</a>
</g>
</g>
<!-- Node2 -->
<g id="Node000002" class="node">
<title>Node2</title>
<g id="a_Node000002"><a xlink:href="app_8c.html#a073f670c8a950594dc8c2335dd28302c" target="_top" xlink:title=" ">
<polygon fill="white" stroke="#666666" points="173.75,-368.75 103.75,-368.75 103.75,-348 173.75,-348 173.75,-368.75"/>
<text text-anchor="middle" x="138.75" y="-355.25" font-family="Helvetica,sans-Serif" font-size="10.00">w2c_0_135</text>
</a>
</g>
</g>
<!-- Node1&#45;&gt;Node2 -->
<g id="edge1_Node000001_Node000002" class="edge">
<title>Node1&#45;&gt;Node2</title>
<g id="a_edge1_Node000001_Node000002"><a xlink:title=" ">
<path fill="none" stroke="#63b8ff" d="M37.2,-194.02C43.57,-221.04 63.56,-293.34 103.75,-338.38 104.45,-339.16 105.18,-339.92 105.95,-340.66"/>
<polygon fill="#63b8ff" stroke="#63b8ff" points="103.8,-343.42 113.85,-346.78 108.09,-337.88 103.8,-343.42"/>
</a>
</g>
</g>
<!-- Node3 -->
<g id="Node000003" class="node">
<title>Node3</title>
<g id="a_Node000003"><a xlink:href="app_8c.html#a89f88fd60ab17298de7e431ec6d9f2fe" target="_top" xlink:title=" ">
<polygon fill="white" stroke="#666666" points="173.75,-329.75 103.75,-329.75 103.75,-309 173.75,-309 173.75,-329.75"/>
<text text-anchor="middle" x="138.75" y="-316.25" font-family="Helvetica,sans-Serif" font-size="10.00">w2c_0_138</text>
</a>
</g>
</g>
<!-- Node1&#45;&gt;Node3 -->
<g id="edge2_Node000001_Node000003" class="edge">
<title>Node1&#45;&gt;Node3</title>
<g id="a_edge2_Node000001_Node000003"><a xlink:title=" ">
<path fill="none" stroke="#63b8ff" d="M39.09,-194.17C48.13,-216.19 71.22,-266.98 103.75,-299.38 104.62,-300.24 105.54,-301.09 106.5,-301.91"/>
<polygon fill="#63b8ff" stroke="#63b8ff" points="104.35,-304.68 114.5,-307.73 108.47,-299.02 104.35,-304.68"/>
</a>
</g>
</g>
<!-- Node4 -->
<g id="Node000004" class="node">
<title>Node4</title>
<g id="a_Node000004"><a xlink:href="app_8c.html#a1760c3b3b44de1e65a74c4dfe8fd011e" target="_top" xlink:title=" ">
<polygon fill="white" stroke="#666666" points="170.75,-290.75 106.75,-290.75 106.75,-270 170.75,-270 170.75,-290.75"/>
<text text-anchor="middle" x="138.75" y="-277.25" font-family="Helvetica,sans-Serif" font-size="10.00">w2c_0_23</text>
</a>
</g>
</g>
<!-- Node1&#45;&gt;Node4 -->
<g id="edge3_Node000001_Node000004" class="edge">
<title>Node1&#45;&gt;Node4</title>
<g id="a_edge3_Node000001_Node000004"><a xlink:title=" ">
<path fill="none" stroke="#63b8ff" d="M42.68,-194.03C54.61,-209.83 78.64,-239.8 103.75,-260.38 105.01,-261.41 106.33,-262.42 107.68,-263.4"/>
<polygon fill="#63b8ff" stroke="#63b8ff" points="105.39,-266.09 115.67,-268.68 109.25,-260.25 105.39,-266.09"/>
</a>
</g>
</g>
<!-- Node5 -->
<g id="Node000005" class="node">
<title>Node5</title>
<g id="a_Node000005"><a xlink:href="app_8c.html#ae8958d4c89a1da9cc5f6036cc6fc2ef2" target="_top" xlink:title=" ">
<polygon fill="white" stroke="#666666" points="167.75,-251.75 109.75,-251.75 109.75,-231 167.75,-231 167.75,-251.75"/>
<text text-anchor="middle" x="138.75" y="-238.25" font-family="Helvetica,sans-Serif" font-size="10.00">w2c_0_4</text>
</a>
</g>
</g>
<!-- Node1&#45;&gt;Node5 -->
<g id="edge4_Node000001_Node000005" class="edge">
<title>Node1&#45;&gt;Node5</title>
<g id="a_edge4_Node000001_Node000005"><a xlink:title=" ">
<path fill="none" stroke="#63b8ff" d="M53.74,-194.01C69.16,-202.71 91.22,-215.14 108.86,-225.09"/>
<polygon fill="#63b8ff" stroke="#63b8ff" points="106.9,-228 117.33,-229.86 110.34,-221.9 106.9,-228"/>
</a>
</g>
</g>
<!-- Node6 -->
<g id="Node000006" class="node">
<title>Node6</title>
<g id="a_Node000006"><a xlink:href="app_8c.html#ab90d98d730a9c6f613abf4233fab413b" target="_top" xlink:title=" ">
<polygon fill="white" stroke="#666666" points="170.75,-212.75 106.75,-212.75 106.75,-192 170.75,-192 170.75,-212.75"/>
<text text-anchor="middle" x="138.75" y="-199.25" font-family="Helvetica,sans-Serif" font-size="10.00">w2c_0_54</text>
</a>
</g>
</g>
<!-- Node1&#45;&gt;Node6 -->
<g id="edge5_Node000001_Node000006" class="edge">
<title>Node1&#45;&gt;Node6</title>
<g id="a_edge5_Node000001_Node000006"><a xlink:title=" ">
<path fill="none" stroke="#63b8ff" d="M67.99,-189.49C76.66,-191.09 86.14,-192.84 95.23,-194.52"/>
<polygon fill="#63b8ff" stroke="#63b8ff" points="94.49,-197.94 104.96,-196.32 95.76,-191.06 94.49,-197.94"/>
</a>
</g>
</g>
<!-- Node7 -->
<g id="Node000007" class="node">
<title>Node7</title>
<g id="a_Node000007"><a xlink:href="app_8c.html#a0378208e0d5c0d1d6e7370f1c578fab3" target="_top" xlink:title=" ">
<polygon fill="white" stroke="#666666" points="277.5,-174.75 209.75,-174.75 209.75,-154 277.5,-154 277.5,-174.75"/>
<text text-anchor="middle" x="243.62" y="-161.25" font-family="Helvetica,sans-Serif" font-size="10.00">w2c__f216</text>
</a>
</g>
</g>
<!-- Node1&#45;&gt;Node7 -->
<g id="edge6_Node000001_Node000007" class="edge">
<title>Node1&#45;&gt;Node7</title>
<g id="a_edge6_Node000001_Node000007"><a xlink:title=" ">
<path fill="none" stroke="#63b8ff" d="M67.79,-180.36C103.02,-177.14 159.1,-172.01 198.22,-168.44"/>
<polygon fill="#63b8ff" stroke="#63b8ff" points="198.37,-171.94 208.01,-167.54 197.73,-164.97 198.37,-171.94"/>
</a>
</g>
</g>
<!-- Node9 -->
<g id="Node000009" class="node">
<title>Node9</title>
<g id="a_Node000009"><a xlink:href="app_8c.html#aaca5d5bcf49f2ca74019cf097750b9f3" target="_top" xlink:title=" ">
<polygon fill="white" stroke="#666666" points="277.5,-135.75 209.75,-135.75 209.75,-115 277.5,-115 277.5,-135.75"/>
<text text-anchor="middle" x="243.62" y="-122.25" font-family="Helvetica,sans-Serif" font-size="10.00">w2c__f258</text>
</a>
</g>
</g>
<!-- Node1&#45;&gt;Node9 -->
<g id="edge8_Node000001_Node000009" class="edge">
<title>Node1&#45;&gt;Node9</title>
<g id="a_edge8_Node000001_Node000009"><a xlink:title=" ">
<path fill="none" stroke="#63b8ff" d="M67.79,-174.18C103.1,-164.33 159.34,-148.63 198.47,-137.7"/>
<polygon fill="#63b8ff" stroke="#63b8ff" points="199.37,-141.09 208.06,-135.03 197.49,-134.34 199.37,-141.09"/>
</a>
</g>
</g>
<!-- Node11 -->
<g id="Node000011" class="node">
<title>Node11</title>
<g id="a_Node000011"><a xlink:href="app_8c.html#a8d8a9f240d971fdd48e2227d3e26416d" target="_top" xlink:title=" ">
<polygon fill="white" stroke="#666666" points="172.62,-98.75 104.88,-98.75 104.88,-78 172.62,-78 172.62,-98.75"/>
<text text-anchor="middle" x="138.75" y="-85.25" font-family="Helvetica,sans-Serif" font-size="10.00">w2c__f283</text>
</a>
</g>
</g>
<!-- Node1&#45;&gt;Node11 -->
<g id="edge11_Node000001_Node000011" class="edge">
<title>Node1&#45;&gt;Node11</title>
<g id="a_edge11_Node000001_Node000011"><a xlink:title=" ">
<path fill="none" stroke="#63b8ff" d="M44.12,-172.66C56.84,-158.21 80.78,-132.02 103.75,-112.38 106.41,-110.1 109.28,-107.83 112.19,-105.64"/>
<polygon fill="#63b8ff" stroke="#63b8ff" points="114.08,-108.59 120.15,-99.9 109.99,-102.91 114.08,-108.59"/>
</a>
</g>
</g>
<!-- Node12 -->
<g id="Node000012" class="node">
<title>Node12</title>
<g id="a_Node000012"><a xlink:href="app_8c.html#a39e5374effeff0dc142bbb7c393a906a" target="_top" xlink:title=" ">
<polygon fill="white" stroke="#666666" points="172.62,-59.75 104.88,-59.75 104.88,-39 172.62,-39 172.62,-59.75"/>
<text text-anchor="middle" x="138.75" y="-46.25" font-family="Helvetica,sans-Serif" font-size="10.00">w2c__f311</text>
</a>
</g>
</g>
<!-- Node1&#45;&gt;Node12 -->
<g id="edge12_Node000001_Node000012" class="edge">
<title>Node1&#45;&gt;Node12</title>
<g id="a_edge12_Node000001_Node000012"><a xlink:title=" ">
<path fill="none" stroke="#63b8ff" d="M39.14,-172.77C48.27,-151.13 71.51,-101.23 103.75,-69.38 104.63,-68.51 105.55,-67.66 106.5,-66.85"/>
<polygon fill="#63b8ff" stroke="#63b8ff" points="108.47,-69.74 114.52,-61.04 104.37,-64.07 108.47,-69.74"/>
</a>
</g>
</g>
<!-- Node14 -->
<g id="Node000014" class="node">
<title>Node14</title>
<g id="a_Node000014"><a xlink:href="app_8c.html#ab78a9ba6819f5a9d3b53302097151d33" target="_top" xlink:title=" ">
<polygon fill="white" stroke="#666666" points="172.62,-20.75 104.88,-20.75 104.88,0 172.62,0 172.62,-20.75"/>
<text text-anchor="middle" x="138.75" y="-7.25" font-family="Helvetica,sans-Serif" font-size="10.00">w2c__f481</text>
</a>
</g>
</g>
<!-- Node1&#45;&gt;Node14 -->
<g id="edge15_Node000001_Node000014" class="edge">
<title>Node1&#45;&gt;Node14</title>
<g id="a_edge15_Node000001_Node000014"><a xlink:title=" ">
<path fill="none" stroke="#63b8ff" d="M37.24,-172.87C43.7,-146.2 63.88,-74.83 103.75,-30.38 104.45,-29.59 105.19,-28.84 105.96,-28.1"/>
<polygon fill="#63b8ff" stroke="#63b8ff" points="108.09,-30.87 113.86,-21.98 103.81,-25.34 108.09,-30.87"/>
</a>
</g>
</g>
<!-- Node8 -->
<g id="Node000008" class="node">
<title>Node8</title>
<g id="a_Node000008"><a xlink:href="app_8c.html#a8d9f347f9a643f0ebfb53c4f54578ac4" target="_top" xlink:title=" ">
<polygon fill="white" stroke="#666666" points="381.25,-174.75 313.5,-174.75 313.5,-154 381.25,-154 381.25,-174.75"/>
<text text-anchor="middle" x="347.38" y="-161.25" font-family="Helvetica,sans-Serif" font-size="10.00">w2c__f304</text>
</a>
</g>
</g>
<!-- Node7&#45;&gt;Node8 -->
<g id="edge7_Node000007_Node000008" class="edge">
<title>Node7&#45;&gt;Node8</title>
<g id="a_edge7_Node000007_Node000008"><a xlink:title=" ">
<path fill="none" stroke="#63b8ff" d="M277.94,-164.38C285.57,-164.38 293.81,-164.38 301.83,-164.38"/>
<polygon fill="#63b8ff" stroke="#63b8ff" points="301.82,-167.88 311.82,-164.38 301.82,-160.88 301.82,-167.88"/>
</a>
</g>
</g>
<!-- Node9&#45;&gt;Node8 -->
<g id="edge9_Node000009_Node000008" class="edge">
<title>Node9&#45;&gt;Node8</title>
<g id="a_edge9_Node000009_Node000008"><a xlink:title=" ">
<path fill="none" stroke="#63b8ff" d="M272.97,-136.24C283.66,-140.34 296.02,-145.08 307.51,-149.48"/>
<polygon fill="#63b8ff" stroke="#63b8ff" points="306.18,-152.72 316.77,-153.03 308.69,-146.18 306.18,-152.72"/>
</a>
</g>
</g>
<!-- Node10 -->
<g id="Node000010" class="node">
<title>Node10</title>
<g id="a_Node000010"><a xlink:href="app_8c.html#a881f0b113e93dce3ff52d04b435850f6" target="_top" xlink:title=" ">
<polygon fill="white" stroke="#666666" points="381.25,-135.75 313.5,-135.75 313.5,-115 381.25,-115 381.25,-135.75"/>
<text text-anchor="middle" x="347.38" y="-122.25" font-family="Helvetica,sans-Serif" font-size="10.00">w2c__f491</text>
</a>
</g>
</g>
<!-- Node9&#45;&gt;Node10 -->
<g id="edge10_Node000009_Node000010" class="edge">
<title>Node9&#45;&gt;Node10</title>
<g id="a_edge10_Node000009_Node000010"><a xlink:title=" ">
<path fill="none" stroke="#63b8ff" d="M277.94,-125.38C285.57,-125.38 293.81,-125.38 301.83,-125.38"/>
<polygon fill="#63b8ff" stroke="#63b8ff" points="301.82,-128.88 311.82,-125.38 301.82,-121.88 301.82,-128.88"/>
</a>
</g>
</g>
<!-- Node12&#45;&gt;Node9 -->
<g id="edge13_Node000012_Node000009" class="edge">
<title>Node12&#45;&gt;Node9</title>
<g id="a_edge13_Node000012_Node000009"><a xlink:title=" ">
<path fill="none" stroke="#63b8ff" d="M159.13,-60.09C163.99,-62.97 169.14,-66.17 173.75,-69.38 190.82,-81.23 209.02,-96.14 222.42,-107.59"/>
<polygon fill="#63b8ff" stroke="#63b8ff" points="219.86,-110.01 229.72,-113.9 224.44,-104.71 219.86,-110.01"/>
</a>
</g>
</g>
<!-- Node13 -->
<g id="Node000013" class="node">
<title>Node13</title>
<g id="a_Node000013"><a xlink:href="app_8c.html#aeda0fdcf4b3bed63365b3a77c2197b09" target="_top" xlink:title=" ">
<polygon fill="white" stroke="#666666" points="277.5,-59.75 209.75,-59.75 209.75,-39 277.5,-39 277.5,-59.75"/>
<text text-anchor="middle" x="243.62" y="-46.25" font-family="Helvetica,sans-Serif" font-size="10.00">w2c__f538</text>
</a>
</g>
</g>
<!-- Node12&#45;&gt;Node13 -->
<g id="edge14_Node000012_Node000013" class="edge">
<title>Node12&#45;&gt;Node13</title>
<g id="a_edge14_Node000012_Node000013"><a xlink:title=" ">
<path fill="none" stroke="#63b8ff" d="M172.87,-49.38C180.94,-49.38 189.71,-49.38 198.22,-49.38"/>
<polygon fill="#63b8ff" stroke="#63b8ff" points="198.06,-52.88 208.06,-49.38 198.06,-45.88 198.06,-52.88"/>
</a>
</g>
</g>
</g>
</svg>
