<?xml version="1.0" encoding="UTF-8" standalone="no"?>
<!DOCTYPE svg PUBLIC "-//W3C//DTD SVG 1.1//EN"
 "http://www.w3.org/Graphics/SVG/1.1/DTD/svg11.dtd">
<!-- Generated by graphviz version 12.2.1 (0)
 -->
<!-- Title: w2c__f569 Pages: 1 -->
<svg width="387pt" height="144pt"
 viewBox="0.00 0.00 387.00 143.75" xmlns="http://www.w3.org/2000/svg" xmlns:xlink="http://www.w3.org/1999/xlink">
<g id="graph0" class="graph" transform="scale(1 1) rotate(0) translate(4 139.75)">
<title>w2c__f569</title>
<!-- Node1 -->
<g id="Node000001" class="node">
<title>Node1</title>
<g id="a_Node000001"><a xlink:title=" ">
<polygon fill="#999999" stroke="#666666" points="67.75,-78.75 0,-78.75 0,-58 67.75,-58 67.75,-78.75"/>
<text text-anchor="middle" x="33.88" y="-65.25" font-family="Helvetica,sans-Serif" font-size="10.00">w2c__f569</text>
</a>
</g>
</g>
<!-- Node2 -->
<g id="Node000002" class="node">
<title>Node2</title>
<g id="a_Node000002"><a xlink:href="app_8c.html#aa709ee1fada6a506c56e35eaa8f8aef1" target="_top" xlink:title=" ">
<polygon fill="white" stroke="#666666" points="169.62,-135.75 105.62,-135.75 105.62,-115 169.62,-115 169.62,-135.75"/>
<text text-anchor="middle" x="137.62" y="-122.25" font-family="Helvetica,sans-Serif" font-size="10.00">w2c_0_39</text>
</a>
</g>
</g>
<!-- Node1&#45;&gt;Node2 -->
<g id="edge1_Node000001_Node000002" class="edge">
<title>Node1&#45;&gt;Node2</title>
<g id="a_edge1_Node000001_Node000002"><a xlink:title=" ">
<path fill="none" stroke="#63b8ff" d="M54.01,-79.1C69.12,-87.56 90.45,-99.51 107.65,-109.15"/>
<polygon fill="#63b8ff" stroke="#63b8ff" points="105.47,-111.93 115.91,-113.77 108.89,-105.83 105.47,-111.93"/>
</a>
</g>
</g>
<!-- Node3 -->
<g id="Node000003" class="node">
<title>Node3</title>
<g id="a_Node000003"><a xlink:href="app_8c.html#a0378208e0d5c0d1d6e7370f1c578fab3" target="_top" xlink:title=" ">
<polygon fill="white" stroke="#666666" points="275.25,-59.75 207.5,-59.75 207.5,-39 275.25,-39 275.25,-59.75"/>
<text text-anchor="middle" x="241.38" y="-46.25" font-family="Helvetica,sans-Serif" font-size="10.00">w2c__f216</text>
</a>
</g>
</g>
<!-- Node1&#45;&gt;Node3 -->
<g id="edge2_Node000001_Node000003" class="edge">
<title>Node1&#45;&gt;Node3</title>
<g id="a_edge2_Node000001_Node000003"><a xlink:title=" ">
<path fill="none" stroke="#63b8ff" d="M68.17,-70.86C95.94,-72.34 136.48,-73.12 171.5,-68.38 179.96,-67.23 188.85,-65.33 197.33,-63.16"/>
<polygon fill="#63b8ff" stroke="#63b8ff" points="197.98,-66.6 206.71,-60.59 196.14,-59.85 197.98,-66.6"/>
</a>
</g>
</g>
<!-- Node5 -->
<g id="Node000005" class="node">
<title>Node5</title>
<g id="a_Node000005"><a xlink:href="app_8c.html#a4896a97430a5c4c956c04aeae2ba14ca" target="_top" xlink:title=" ">
<polygon fill="white" stroke="#666666" points="171.5,-59.75 103.75,-59.75 103.75,-39 171.5,-39 171.5,-59.75"/>
<text text-anchor="middle" x="137.62" y="-46.25" font-family="Helvetica,sans-Serif" font-size="10.00">w2c__f294</text>
</a>
</g>
</g>
<!-- Node1&#45;&gt;Node5 -->
<g id="edge4_Node000001_Node000005" class="edge">
<title>Node1&#45;&gt;Node5</title>
<g id="a_edge4_Node000001_Node000005"><a xlink:title=" ">
<path fill="none" stroke="#63b8ff" d="M68.19,-62.15C75.91,-60.71 84.25,-59.16 92.36,-57.64"/>
<polygon fill="#63b8ff" stroke="#63b8ff" points="92.91,-61.1 102.09,-55.82 91.62,-54.22 92.91,-61.1"/>
</a>
</g>
</g>
<!-- Node6 -->
<g id="Node000006" class="node">
<title>Node6</title>
<g id="a_Node000006"><a xlink:href="app_8c.html#a1a742f22b9fccc882b2323848e1616a4" target="_top" xlink:title=" ">
<polygon fill="white" stroke="#666666" points="171.5,-20.75 103.75,-20.75 103.75,0 171.5,0 171.5,-20.75"/>
<text text-anchor="middle" x="137.62" y="-7.25" font-family="Helvetica,sans-Serif" font-size="10.00">w2c__f533</text>
</a>
</g>
</g>
<!-- Node1&#45;&gt;Node6 -->
<g id="edge6_Node000001_Node000006" class="edge">
<title>Node1&#45;&gt;Node6</title>
<g id="a_edge6_Node000001_Node000006"><a xlink:title=" ">
<path fill="none" stroke="#63b8ff" d="M53.54,-57.74C68.79,-49.04 90.6,-36.61 108.05,-26.66"/>
<polygon fill="#63b8ff" stroke="#63b8ff" points="109.47,-29.88 116.42,-21.89 106,-23.8 109.47,-29.88"/>
</a>
</g>
</g>
<!-- Node4 -->
<g id="Node000004" class="node">
<title>Node4</title>
<g id="a_Node000004"><a xlink:href="app_8c.html#a8d9f347f9a643f0ebfb53c4f54578ac4" target="_top" xlink:title=" ">
<polygon fill="white" stroke="#666666" points="379,-59.75 311.25,-59.75 311.25,-39 379,-39 379,-59.75"/>
<text text-anchor="middle" x="345.12" y="-46.25" font-family="Helvetica,sans-Serif" font-size="10.00">w2c__f304</text>
</a>
</g>
</g>
<!-- Node3&#45;&gt;Node4 -->
<g id="edge3_Node000003_Node000004" class="edge">
<title>Node3&#45;&gt;Node4</title>
<g id="a_edge3_Node000003_Node000004"><a xlink:title=" ">
<path fill="none" stroke="#63b8ff" d="M275.69,-49.38C283.32,-49.38 291.56,-49.38 299.58,-49.38"/>
<polygon fill="#63b8ff" stroke="#63b8ff" points="299.57,-52.88 309.57,-49.38 299.57,-45.88 299.57,-52.88"/>
</a>
</g>
</g>
<!-- Node5&#45;&gt;Node3 -->
<g id="edge5_Node000005_Node000003" class="edge">
<title>Node5&#45;&gt;Node3</title>
<g id="a_edge5_Node000005_Node000003"><a xlink:title=" ">
<path fill="none" stroke="#63b8ff" d="M171.94,-49.38C179.57,-49.38 187.81,-49.38 195.83,-49.38"/>
<polygon fill="#63b8ff" stroke="#63b8ff" points="195.82,-52.88 205.82,-49.38 195.82,-45.88 195.82,-52.88"/>
</a>
</g>
</g>
<!-- Node6&#45;&gt;Node3 -->
<g id="edge7_Node000006_Node000003" class="edge">
<title>Node6&#45;&gt;Node3</title>
<g id="a_edge7_Node000006_Node000003"><a xlink:title=" ">
<path fill="none" stroke="#63b8ff" d="M166.97,-21.24C177.66,-25.34 190.02,-30.08 201.51,-34.48"/>
<polygon fill="#63b8ff" stroke="#63b8ff" points="200.18,-37.72 210.77,-38.03 202.69,-31.18 200.18,-37.72"/>
</a>
</g>
</g>
</g>
</svg>
