<?xml version="1.0" encoding="UTF-8" standalone="no"?>
<!DOCTYPE svg PUBLIC "-//W3C//DTD SVG 1.1//EN"
 "http://www.w3.org/Graphics/SVG/1.1/DTD/svg11.dtd">
<!-- Generated by graphviz version 12.2.1 (0)
 -->
<!-- Title: w2c__f253 Pages: 1 -->
<svg width="283pt" height="48pt"
 viewBox="0.00 0.00 283.25 47.75" xmlns="http://www.w3.org/2000/svg" xmlns:xlink="http://www.w3.org/1999/xlink">
<g id="graph0" class="graph" transform="scale(1 1) rotate(0) translate(4 43.75)">
<title>w2c__f253</title>
<!-- Node1 -->
<g id="Node000001" class="node">
<title>Node1</title>
<g id="a_Node000001"><a xlink:title=" ">
<polygon fill="#999999" stroke="#666666" points="67.75,-20.75 0,-20.75 0,0 67.75,0 67.75,-20.75"/>
<text text-anchor="middle" x="33.88" y="-7.25" font-family="Helvetica,sans-Serif" font-size="10.00">w2c__f253</text>
</a>
</g>
</g>
<!-- Node2 -->
<g id="Node000002" class="node">
<title>Node2</title>
<g id="a_Node000002"><a xlink:href="app_8c.html#aee003829aebed6402992d02b46e1a568" target="_top" xlink:title=" ">
<polygon fill="white" stroke="#666666" points="171.5,-39.75 103.75,-39.75 103.75,-19 171.5,-19 171.5,-39.75"/>
<text text-anchor="middle" x="137.62" y="-26.25" font-family="Helvetica,sans-Serif" font-size="10.00">w2c__f347</text>
</a>
</g>
</g>
<!-- Node1&#45;&gt;Node2 -->
<g id="edge1_Node000001_Node000002" class="edge">
<title>Node1&#45;&gt;Node2</title>
<g id="a_edge1_Node000001_Node000002"><a xlink:title=" ">
<path fill="none" stroke="#63b8ff" d="M68.19,-16.6C75.91,-18.04 84.25,-19.59 92.36,-21.11"/>
<polygon fill="#63b8ff" stroke="#63b8ff" points="91.62,-24.53 102.09,-22.93 92.91,-17.65 91.62,-24.53"/>
</a>
</g>
</g>
<!-- Node3 -->
<g id="Node000003" class="node">
<title>Node3</title>
<g id="a_Node000003"><a xlink:href="app_8c.html#ab78a9ba6819f5a9d3b53302097151d33" target="_top" xlink:title=" ">
<polygon fill="white" stroke="#666666" points="275.25,-20.75 207.5,-20.75 207.5,0 275.25,0 275.25,-20.75"/>
<text text-anchor="middle" x="241.38" y="-7.25" font-family="Helvetica,sans-Serif" font-size="10.00">w2c__f481</text>
</a>
</g>
</g>
<!-- Node1&#45;&gt;Node3 -->
<g id="edge3_Node000001_Node000003" class="edge">
<title>Node1&#45;&gt;Node3</title>
<g id="a_edge3_Node000001_Node000003"><a xlink:title=" ">
<path fill="none" stroke="#63b8ff" d="M67.89,-10.38C102.54,-10.38 157.23,-10.38 195.71,-10.38"/>
<polygon fill="#63b8ff" stroke="#63b8ff" points="195.59,-13.88 205.59,-10.38 195.59,-6.88 195.59,-13.88"/>
</a>
</g>
</g>
<!-- Node2&#45;&gt;Node3 -->
<g id="edge2_Node000002_Node000003" class="edge">
<title>Node2&#45;&gt;Node3</title>
<g id="a_edge2_Node000002_Node000003"><a xlink:title=" ">
<path fill="none" stroke="#63b8ff" d="M171.94,-23.15C179.66,-21.71 188,-20.16 196.11,-18.64"/>
<polygon fill="#63b8ff" stroke="#63b8ff" points="196.66,-22.1 205.84,-16.82 195.37,-15.22 196.66,-22.1"/>
</a>
</g>
</g>
</g>
</svg>
