<?xml version="1.0" encoding="UTF-8" standalone="no"?>
<!DOCTYPE svg PUBLIC "-//W3C//DTD SVG 1.1//EN"
 "http://www.w3.org/Graphics/SVG/1.1/DTD/svg11.dtd">
<!-- Generated by graphviz version 12.2.1 (0)
 -->
<!-- Title: w2c__f245 Pages: 1 -->
<svg width="491pt" height="91pt"
 viewBox="0.00 0.00 490.75 90.57" xmlns="http://www.w3.org/2000/svg" xmlns:xlink="http://www.w3.org/1999/xlink">
<g id="graph0" class="graph" transform="scale(1 1) rotate(0) translate(4 86.57)">
<title>w2c__f245</title>
<!-- Node1 -->
<g id="Node000001" class="node">
<title>Node1</title>
<g id="a_Node000001"><a xlink:title=" ">
<polygon fill="#999999" stroke="#666666" points="67.75,-76.75 0,-76.75 0,-56 67.75,-56 67.75,-76.75"/>
<text text-anchor="middle" x="33.88" y="-63.25" font-family="Helvetica,sans-Serif" font-size="10.00">w2c__f245</text>
</a>
</g>
</g>
<!-- Node2 -->
<g id="Node000002" class="node">
<title>Node2</title>
<g id="a_Node000002"><a xlink:href="app_8c.html#a0378208e0d5c0d1d6e7370f1c578fab3" target="_top" xlink:title=" ">
<polygon fill="white" stroke="#666666" points="379,-67.75 311.25,-67.75 311.25,-47 379,-47 379,-67.75"/>
<text text-anchor="middle" x="345.12" y="-54.25" font-family="Helvetica,sans-Serif" font-size="10.00">w2c__f216</text>
</a>
</g>
</g>
<!-- Node1&#45;&gt;Node2 -->
<g id="edge1_Node000001_Node000002" class="edge">
<title>Node1&#45;&gt;Node2</title>
<g id="a_edge1_Node000001_Node000002"><a xlink:title=" ">
<path fill="none" stroke="#63b8ff" d="M68.05,-72.18C79.34,-73.89 92.06,-75.53 103.75,-76.38 179.77,-81.87 199.72,-86.6 275.25,-76.38 283.71,-75.23 292.6,-73.33 301.08,-71.16"/>
<polygon fill="#63b8ff" stroke="#63b8ff" points="301.73,-74.6 310.46,-68.59 299.89,-67.85 301.73,-74.6"/>
</a>
</g>
</g>
<!-- Node4 -->
<g id="Node000004" class="node">
<title>Node4</title>
<g id="a_Node000004"><a xlink:href="app_8c.html#a566dbdfcf107d41529c3be279fff4741" target="_top" xlink:title=" ">
<polygon fill="white" stroke="#666666" points="275.25,-67.75 207.5,-67.75 207.5,-47 275.25,-47 275.25,-67.75"/>
<text text-anchor="middle" x="241.38" y="-54.25" font-family="Helvetica,sans-Serif" font-size="10.00">w2c__f330</text>
</a>
</g>
</g>
<!-- Node1&#45;&gt;Node4 -->
<g id="edge3_Node000001_Node000004" class="edge">
<title>Node1&#45;&gt;Node4</title>
<g id="a_edge3_Node000001_Node000004"><a xlink:title=" ">
<path fill="none" stroke="#63b8ff" d="M67.89,-64.93C102.54,-63.41 157.23,-61.02 195.71,-59.33"/>
<polygon fill="#63b8ff" stroke="#63b8ff" points="195.75,-62.83 205.59,-58.9 195.44,-55.84 195.75,-62.83"/>
</a>
</g>
</g>
<!-- Node5 -->
<g id="Node000005" class="node">
<title>Node5</title>
<g id="a_Node000005"><a xlink:href="app_8c.html#a143069370e922aaaa9a54ef24795b2c7" target="_top" xlink:title=" ">
<polygon fill="white" stroke="#666666" points="171.5,-20.75 103.75,-20.75 103.75,0 171.5,0 171.5,-20.75"/>
<text text-anchor="middle" x="137.62" y="-7.25" font-family="Helvetica,sans-Serif" font-size="10.00">w2c__f379</text>
</a>
</g>
</g>
<!-- Node1&#45;&gt;Node5 -->
<g id="edge5_Node000001_Node000005" class="edge">
<title>Node1&#45;&gt;Node5</title>
<g id="a_edge5_Node000001_Node000005"><a xlink:title=" ">
<path fill="none" stroke="#63b8ff" d="M54.49,-55.58C69.41,-47.37 90.19,-35.93 107.11,-26.62"/>
<polygon fill="#63b8ff" stroke="#63b8ff" points="108.67,-29.76 115.74,-21.87 105.29,-23.62 108.67,-29.76"/>
</a>
</g>
</g>
<!-- Node3 -->
<g id="Node000003" class="node">
<title>Node3</title>
<g id="a_Node000003"><a xlink:href="app_8c.html#a8d9f347f9a643f0ebfb53c4f54578ac4" target="_top" xlink:title=" ">
<polygon fill="white" stroke="#666666" points="482.75,-67.75 415,-67.75 415,-47 482.75,-47 482.75,-67.75"/>
<text text-anchor="middle" x="448.88" y="-54.25" font-family="Helvetica,sans-Serif" font-size="10.00">w2c__f304</text>
</a>
</g>
</g>
<!-- Node2&#45;&gt;Node3 -->
<g id="edge2_Node000002_Node000003" class="edge">
<title>Node2&#45;&gt;Node3</title>
<g id="a_edge2_Node000002_Node000003"><a xlink:title=" ">
<path fill="none" stroke="#63b8ff" d="M379.44,-57.38C387.07,-57.38 395.31,-57.38 403.33,-57.38"/>
<polygon fill="#63b8ff" stroke="#63b8ff" points="403.32,-60.88 413.32,-57.38 403.32,-53.88 403.32,-60.88"/>
</a>
</g>
</g>
<!-- Node4&#45;&gt;Node2 -->
<g id="edge4_Node000004_Node000002" class="edge">
<title>Node4&#45;&gt;Node2</title>
<g id="a_edge4_Node000004_Node000002"><a xlink:title=" ">
<path fill="none" stroke="#63b8ff" d="M275.69,-57.38C283.32,-57.38 291.56,-57.38 299.58,-57.38"/>
<polygon fill="#63b8ff" stroke="#63b8ff" points="299.57,-60.88 309.57,-57.38 299.57,-53.88 299.57,-60.88"/>
</a>
</g>
</g>
<!-- Node5&#45;&gt;Node2 -->
<g id="edge6_Node000005_Node000002" class="edge">
<title>Node5&#45;&gt;Node2</title>
<g id="a_edge6_Node000005_Node000002"><a xlink:title=" ">
<path fill="none" stroke="#63b8ff" d="M171.89,-16.55C199.64,-21.85 240.17,-29.95 275.25,-38.38 283.29,-40.31 291.82,-42.52 300.03,-44.74"/>
<polygon fill="#63b8ff" stroke="#63b8ff" points="298.93,-48.07 309.5,-47.34 300.79,-41.32 298.93,-48.07"/>
</a>
</g>
</g>
<!-- Node5&#45;&gt;Node4 -->
<g id="edge7_Node000005_Node000004" class="edge">
<title>Node5&#45;&gt;Node4</title>
<g id="a_edge7_Node000005_Node000004"><a xlink:title=" ">
<path fill="none" stroke="#63b8ff" d="M161.97,-21.16C175.28,-27.31 192.2,-35.12 206.9,-41.91"/>
<polygon fill="#63b8ff" stroke="#63b8ff" points="205.22,-44.99 215.77,-46.01 208.16,-38.64 205.22,-44.99"/>
</a>
</g>
</g>
<!-- Node5&#45;&gt;Node5 -->
<g id="edge8_Node000005_Node000005" class="edge">
<title>Node5&#45;&gt;Node5</title>
<g id="a_edge8_Node000005_Node000005"><a xlink:title=" ">
<path fill="none" stroke="#63b8ff" d="M120.91,-21.15C114.22,-29.81 119.79,-38.75 137.62,-38.75 147.1,-38.75 153.11,-36.23 155.66,-32.56"/>
<polygon fill="#63b8ff" stroke="#63b8ff" points="159.14,-32.18 154.52,-22.65 152.19,-32.99 159.14,-32.18"/>
</a>
</g>
</g>
</g>
</svg>
