<?xml version="1.0" encoding="UTF-8" standalone="no"?>
<!DOCTYPE svg PUBLIC "-//W3C//DTD SVG 1.1//EN"
 "http://www.w3.org/Graphics/SVG/1.1/DTD/svg11.dtd">
<!-- Generated by graphviz version 12.2.1 (0)
 -->
<!-- Title: w2c__d_0 Pages: 1 -->
<svg width="383pt" height="68pt"
 viewBox="0.00 0.00 382.50 67.75" xmlns="http://www.w3.org/2000/svg" xmlns:xlink="http://www.w3.org/1999/xlink">
<g id="graph0" class="graph" transform="scale(1 1) rotate(0) translate(4 63.75)">
<title>w2c__d_0</title>
<!-- Node1 -->
<g id="Node000001" class="node">
<title>Node1</title>
<g id="a_Node000001"><a xlink:title=" ">
<polygon fill="#999999" stroke="#666666" points="63.25,-39.75 0,-39.75 0,-19 63.25,-19 63.25,-39.75"/>
<text text-anchor="middle" x="31.62" y="-26.25" font-family="Helvetica,sans-Serif" font-size="10.00">w2c__d_0</text>
</a>
</g>
</g>
<!-- Node2 -->
<g id="Node000002" class="node">
<title>Node2</title>
<g id="a_Node000002"><a xlink:href="app_8c.html#aa58fd7f1d3aab8404d7f71d334a8a108" target="_top" xlink:title=" ">
<polygon fill="white" stroke="#666666" points="167,-39.75 99.25,-39.75 99.25,-19 167,-19 167,-39.75"/>
<text text-anchor="middle" x="133.12" y="-26.25" font-family="Helvetica,sans-Serif" font-size="10.00">w2c__f211</text>
</a>
</g>
</g>
<!-- Node1&#45;&gt;Node2 -->
<g id="edge1_Node000001_Node000002" class="edge">
<title>Node1&#45;&gt;Node2</title>
<g id="a_edge1_Node000001_Node000002"><a xlink:title=" ">
<path fill="none" stroke="#63b8ff" d="M63.56,-29.38C71.16,-29.38 79.45,-29.38 87.55,-29.38"/>
<polygon fill="#63b8ff" stroke="#63b8ff" points="87.28,-32.88 97.28,-29.38 87.28,-25.88 87.28,-32.88"/>
</a>
</g>
</g>
<!-- Node3 -->
<g id="Node000003" class="node">
<title>Node3</title>
<g id="a_Node000003"><a xlink:href="app_8c.html#a03fa34d93d32a3ee40dfc2d840730111" target="_top" xlink:title=" ">
<polygon fill="white" stroke="#666666" points="270.75,-59.75 203,-59.75 203,-39 270.75,-39 270.75,-59.75"/>
<text text-anchor="middle" x="236.88" y="-46.25" font-family="Helvetica,sans-Serif" font-size="10.00">w2c__f262</text>
</a>
</g>
</g>
<!-- Node2&#45;&gt;Node3 -->
<g id="edge2_Node000002_Node000003" class="edge">
<title>Node2&#45;&gt;Node3</title>
<g id="a_edge2_Node000002_Node000003"><a xlink:title=" ">
<path fill="none" stroke="#63b8ff" d="M167.44,-35.92C175.16,-37.44 183.5,-39.08 191.61,-40.67"/>
<polygon fill="#63b8ff" stroke="#63b8ff" points="190.86,-44.09 201.35,-42.59 192.21,-37.22 190.86,-44.09"/>
</a>
</g>
</g>
<!-- Node6 -->
<g id="Node000006" class="node">
<title>Node6</title>
<g id="a_Node000006"><a xlink:href="app_8c.html#a31b08a294227a9fc0a529e66ccd915dc" target="_top" xlink:title=" ">
<polygon fill="white" stroke="#666666" points="270.75,-20.75 203,-20.75 203,0 270.75,0 270.75,-20.75"/>
<text text-anchor="middle" x="236.88" y="-7.25" font-family="Helvetica,sans-Serif" font-size="10.00">w2c__f325</text>
</a>
</g>
</g>
<!-- Node2&#45;&gt;Node6 -->
<g id="edge5_Node000002_Node000006" class="edge">
<title>Node2&#45;&gt;Node6</title>
<g id="a_edge5_Node000002_Node000006"><a xlink:title=" ">
<path fill="none" stroke="#63b8ff" d="M167.44,-23.15C175.16,-21.71 183.5,-20.16 191.61,-18.64"/>
<polygon fill="#63b8ff" stroke="#63b8ff" points="192.16,-22.1 201.34,-16.82 190.87,-15.22 192.16,-22.1"/>
</a>
</g>
</g>
<!-- Node4 -->
<g id="Node000004" class="node">
<title>Node4</title>
<g id="a_Node000004"><a xlink:href="app_8c.html#a16207b5f7a97b0ecfddd231452c5aa7e" target="_top" xlink:title=" ">
<polygon fill="white" stroke="#666666" points="374.5,-59.75 306.75,-59.75 306.75,-39 374.5,-39 374.5,-59.75"/>
<text text-anchor="middle" x="340.62" y="-46.25" font-family="Helvetica,sans-Serif" font-size="10.00">w2c__f263</text>
</a>
</g>
</g>
<!-- Node3&#45;&gt;Node4 -->
<g id="edge3_Node000003_Node000004" class="edge">
<title>Node3&#45;&gt;Node4</title>
<g id="a_edge3_Node000003_Node000004"><a xlink:title=" ">
<path fill="none" stroke="#63b8ff" d="M271.19,-49.38C278.82,-49.38 287.06,-49.38 295.08,-49.38"/>
<polygon fill="#63b8ff" stroke="#63b8ff" points="295.07,-52.88 305.07,-49.38 295.07,-45.88 295.07,-52.88"/>
</a>
</g>
</g>
<!-- Node5 -->
<g id="Node000005" class="node">
<title>Node5</title>
<g id="a_Node000005"><a xlink:href="app_8c.html#a71bcbce7faf780cd081af3fa82d6da97" target="_top" xlink:title=" ">
<polygon fill="white" stroke="#666666" points="374.5,-20.75 306.75,-20.75 306.75,0 374.5,0 374.5,-20.75"/>
<text text-anchor="middle" x="340.62" y="-7.25" font-family="Helvetica,sans-Serif" font-size="10.00">w2c__f437</text>
</a>
</g>
</g>
<!-- Node3&#45;&gt;Node5 -->
<g id="edge4_Node000003_Node000005" class="edge">
<title>Node3&#45;&gt;Node5</title>
<g id="a_edge4_Node000003_Node000005"><a xlink:title=" ">
<path fill="none" stroke="#63b8ff" d="M266.22,-38.51C276.91,-34.41 289.27,-29.67 300.76,-25.27"/>
<polygon fill="#63b8ff" stroke="#63b8ff" points="301.94,-28.57 310.02,-21.72 299.43,-22.03 301.94,-28.57"/>
</a>
</g>
</g>
<!-- Node6&#45;&gt;Node5 -->
<g id="edge6_Node000006_Node000005" class="edge">
<title>Node6&#45;&gt;Node5</title>
<g id="a_edge6_Node000006_Node000005"><a xlink:title=" ">
<path fill="none" stroke="#63b8ff" d="M271.19,-10.38C278.82,-10.38 287.06,-10.38 295.08,-10.38"/>
<polygon fill="#63b8ff" stroke="#63b8ff" points="295.07,-13.88 305.07,-10.38 295.07,-6.88 295.07,-13.88"/>
</a>
</g>
</g>
</g>
</svg>
