<?xml version="1.0" encoding="UTF-8" standalone="no"?>
<!DOCTYPE svg PUBLIC "-//W3C//DTD SVG 1.1//EN"
 "http://www.w3.org/Graphics/SVG/1.1/DTD/svg11.dtd">
<!-- Generated by graphviz version 12.2.1 (0)
 -->
<!-- Title: wrap_w2c__f312 Pages: 1 -->
<svg width="1041pt" height="1014pt"
 viewBox="0.00 0.00 1041.00 1013.72" xmlns="http://www.w3.org/2000/svg" xmlns:xlink="http://www.w3.org/1999/xlink">
<g id="graph0" class="graph" transform="scale(1 1) rotate(0) translate(4 1009.72)">
<title>wrap_w2c__f312</title>
<!-- Node1 -->
<g id="Node000001" class="node">
<title>Node1</title>
<g id="a_Node000001"><a xlink:title=" ">
<polygon fill="#999999" stroke="#666666" points="97,-883.09 0,-883.09 0,-862.34 97,-862.34 97,-883.09"/>
<text text-anchor="middle" x="48.5" y="-869.59" font-family="Helvetica,sans-Serif" font-size="10.00">wrap_w2c__f312</text>
</a>
</g>
</g>
<!-- Node2 -->
<g id="Node000002" class="node">
<title>Node2</title>
<g id="a_Node000002"><a xlink:href="app_8c.html#a6c89af74d99f30a7ef134089421e6f69" target="_top" xlink:title=" ">
<polygon fill="white" stroke="#666666" points="200.75,-883.09 133,-883.09 133,-862.34 200.75,-862.34 200.75,-883.09"/>
<text text-anchor="middle" x="166.88" y="-869.59" font-family="Helvetica,sans-Serif" font-size="10.00">w2c__f312</text>
</a>
</g>
</g>
<!-- Node1&#45;&gt;Node2 -->
<g id="edge1_Node000001_Node000002" class="edge">
<title>Node1&#45;&gt;Node2</title>
<g id="a_edge1_Node000001_Node000002"><a xlink:title=" ">
<path fill="none" stroke="#63b8ff" d="M97.17,-872.72C105.18,-872.72 113.47,-872.72 121.4,-872.72"/>
<polygon fill="#63b8ff" stroke="#63b8ff" points="121.17,-876.22 131.17,-872.72 121.17,-869.22 121.17,-876.22"/>
</a>
</g>
</g>
<!-- Node3 -->
<g id="Node000003" class="node">
<title>Node3</title>
<g id="a_Node000003"><a xlink:href="app_8c.html#a0378208e0d5c0d1d6e7370f1c578fab3" target="_top" xlink:title=" ">
<polygon fill="white" stroke="#666666" points="929.25,-902.09 861.5,-902.09 861.5,-881.34 929.25,-881.34 929.25,-902.09"/>
<text text-anchor="middle" x="895.38" y="-888.59" font-family="Helvetica,sans-Serif" font-size="10.00">w2c__f216</text>
</a>
</g>
</g>
<!-- Node2&#45;&gt;Node3 -->
<g id="edge2_Node000002_Node000003" class="edge">
<title>Node2&#45;&gt;Node3</title>
<g id="a_edge2_Node000002_Node000003"><a xlink:title=" ">
<path fill="none" stroke="#63b8ff" d="M176.02,-883.15C201.48,-914.51 283.28,-1005.72 373.38,-1005.72 373.38,-1005.72 373.38,-1005.72 688.88,-1005.72 753.09,-1005.72 770.8,-992.36 825.5,-958.72 846.44,-945.83 866.1,-925.57 879.02,-910.7"/>
<polygon fill="#63b8ff" stroke="#63b8ff" points="881.39,-913.31 885.16,-903.41 876.04,-908.8 881.39,-913.31"/>
</a>
</g>
</g>
<!-- Node5 -->
<g id="Node000005" class="node">
<title>Node5</title>
<g id="a_Node000005"><a xlink:href="app_8c.html#a856b5cc253a6617dab0fccb7d825799e" target="_top" xlink:title=" ">
<polygon fill="white" stroke="#666666" points="304.5,-883.09 236.75,-883.09 236.75,-862.34 304.5,-862.34 304.5,-883.09"/>
<text text-anchor="middle" x="270.62" y="-869.59" font-family="Helvetica,sans-Serif" font-size="10.00">w2c__f368</text>
</a>
</g>
</g>
<!-- Node2&#45;&gt;Node5 -->
<g id="edge4_Node000002_Node000005" class="edge">
<title>Node2&#45;&gt;Node5</title>
<g id="a_edge4_Node000002_Node000005"><a xlink:title=" ">
<path fill="none" stroke="#63b8ff" d="M201.19,-872.72C208.82,-872.72 217.06,-872.72 225.08,-872.72"/>
<polygon fill="#63b8ff" stroke="#63b8ff" points="225.07,-876.22 235.07,-872.72 225.07,-869.22 225.07,-876.22"/>
</a>
</g>
</g>
<!-- Node37 -->
<g id="Node000037" class="node">
<title>Node37</title>
<g id="a_Node000037"><a xlink:href="app_8c.html#a282da58cdb8a8d86b26b785358ce183a" target="_top" xlink:title=" ">
<polygon fill="white" stroke="#666666" points="618,-845.09 550.25,-845.09 550.25,-824.34 618,-824.34 618,-845.09"/>
<text text-anchor="middle" x="584.12" y="-831.59" font-family="Helvetica,sans-Serif" font-size="10.00">w2c__f504</text>
</a>
</g>
</g>
<!-- Node2&#45;&gt;Node37 -->
<g id="edge52_Node000002_Node000037" class="edge">
<title>Node2&#45;&gt;Node37</title>
<g id="a_edge52_Node000002_Node000037"><a xlink:title=" ">
<path fill="none" stroke="#63b8ff" d="M201.01,-862.94C212.29,-859.78 225.02,-856.4 236.75,-853.72 282.44,-843.25 293.81,-838.96 340.5,-834.72 409.48,-828.45 489.95,-830.24 538.69,-832.31"/>
<polygon fill="#63b8ff" stroke="#63b8ff" points="538.41,-835.8 548.56,-832.76 538.73,-828.81 538.41,-835.8"/>
</a>
</g>
</g>
<!-- Node4 -->
<g id="Node000004" class="node">
<title>Node4</title>
<g id="a_Node000004"><a xlink:href="app_8c.html#a8d9f347f9a643f0ebfb53c4f54578ac4" target="_top" xlink:title=" ">
<polygon fill="white" stroke="#666666" points="1033,-739.09 965.25,-739.09 965.25,-718.34 1033,-718.34 1033,-739.09"/>
<text text-anchor="middle" x="999.12" y="-725.59" font-family="Helvetica,sans-Serif" font-size="10.00">w2c__f304</text>
</a>
</g>
</g>
<!-- Node3&#45;&gt;Node4 -->
<g id="edge3_Node000003_Node000004" class="edge">
<title>Node3&#45;&gt;Node4</title>
<g id="a_edge3_Node000003_Node000004"><a xlink:title=" ">
<path fill="none" stroke="#63b8ff" d="M903.05,-881.02C919.8,-854.19 963.81,-783.69 985.57,-748.83"/>
<polygon fill="#63b8ff" stroke="#63b8ff" points="988.43,-750.86 990.76,-740.52 982.49,-747.15 988.43,-750.86"/>
</a>
</g>
</g>
<!-- Node5&#45;&gt;Node3 -->
<g id="edge5_Node000005_Node000003" class="edge">
<title>Node5&#45;&gt;Node3</title>
<g id="a_edge5_Node000005_Node000003"><a xlink:title=" ">
<path fill="none" stroke="#63b8ff" d="M284.22,-883.25C315.14,-907.98 398.1,-967.72 478.25,-967.72 478.25,-967.72 478.25,-967.72 688.88,-967.72 751.67,-967.72 767.47,-955.7 825.5,-931.72 840.63,-925.47 856.49,-916.45 869.17,-908.55"/>
<polygon fill="#63b8ff" stroke="#63b8ff" points="870.77,-911.68 877.31,-903.35 867,-905.79 870.77,-911.68"/>
</a>
</g>
</g>
<!-- Node6 -->
<g id="Node000006" class="node">
<title>Node6</title>
<g id="a_Node000006"><a xlink:href="app_8c.html#a7d4828f80c09fbe34c6c6440dc146ce6" target="_top" xlink:title=" ">
<polygon fill="white" stroke="#666666" points="408.25,-419.09 340.5,-419.09 340.5,-398.34 408.25,-398.34 408.25,-419.09"/>
<text text-anchor="middle" x="374.38" y="-405.59" font-family="Helvetica,sans-Serif" font-size="10.00">w2c__f428</text>
</a>
</g>
</g>
<!-- Node5&#45;&gt;Node6 -->
<g id="edge6_Node000005_Node000006" class="edge">
<title>Node5&#45;&gt;Node6</title>
<g id="a_edge6_Node000005_Node000006"><a xlink:title=" ">
<path fill="none" stroke="#63b8ff" d="M273.94,-862.15C286.9,-803.06 350.47,-513.19 368.56,-430.67"/>
<polygon fill="#63b8ff" stroke="#63b8ff" points="371.97,-431.46 370.69,-420.95 365.13,-429.96 371.97,-431.46"/>
</a>
</g>
</g>
<!-- Node35 -->
<g id="Node000035" class="node">
<title>Node35</title>
<g id="a_Node000035"><a xlink:href="app_8c.html#a8d133b0dcb7130bbc0a48ea5c1975662" target="_top" xlink:title=" ">
<polygon fill="white" stroke="#666666" points="408.25,-903.09 340.5,-903.09 340.5,-882.34 408.25,-882.34 408.25,-903.09"/>
<text text-anchor="middle" x="374.38" y="-889.59" font-family="Helvetica,sans-Serif" font-size="10.00">w2c__f436</text>
</a>
</g>
</g>
<!-- Node5&#45;&gt;Node35 -->
<g id="edge44_Node000005_Node000035" class="edge">
<title>Node5&#45;&gt;Node35</title>
<g id="a_edge44_Node000005_Node000035"><a xlink:title=" ">
<path fill="none" stroke="#63b8ff" d="M304.94,-879.27C312.66,-880.78 321,-882.42 329.11,-884.02"/>
<polygon fill="#63b8ff" stroke="#63b8ff" points="328.36,-887.44 338.85,-885.93 329.71,-880.57 328.36,-887.44"/>
</a>
</g>
</g>
<!-- Node38 -->
<g id="Node000038" class="node">
<title>Node38</title>
<g id="a_Node000038"><a xlink:href="app_8c.html#a9f493237918ad1921fef3b777f63fc6c" target="_top" xlink:title=" ">
<polygon fill="white" stroke="#666666" points="408.25,-864.09 340.5,-864.09 340.5,-843.34 408.25,-843.34 408.25,-864.09"/>
<text text-anchor="middle" x="374.38" y="-850.59" font-family="Helvetica,sans-Serif" font-size="10.00">w2c__f583</text>
</a>
</g>
</g>
<!-- Node5&#45;&gt;Node38 -->
<g id="edge50_Node000005_Node000038" class="edge">
<title>Node5&#45;&gt;Node38</title>
<g id="a_edge50_Node000005_Node000038"><a xlink:title=" ">
<path fill="none" stroke="#63b8ff" d="M304.94,-866.5C312.66,-865.05 321,-863.5 329.11,-861.98"/>
<polygon fill="#63b8ff" stroke="#63b8ff" points="329.66,-865.44 338.84,-860.17 328.37,-858.56 329.66,-865.44"/>
</a>
</g>
</g>
<!-- Node6&#45;&gt;Node3 -->
<g id="edge20_Node000006_Node000003" class="edge">
<title>Node6&#45;&gt;Node3</title>
<g id="a_edge20_Node000006_Node000003"><a xlink:title=" ">
<path fill="none" stroke="#63b8ff" d="M375.86,-419.32C378.51,-472.6 393.12,-710.49 444.25,-758.72 489.57,-801.46 520.83,-777.72 583.12,-777.72 583.12,-777.72 583.12,-777.72 688.88,-777.72 766.78,-777.72 842.79,-841.13 876.4,-873.37"/>
<polygon fill="#63b8ff" stroke="#63b8ff" points="873.7,-875.62 883.28,-880.14 878.6,-870.63 873.7,-875.62"/>
</a>
</g>
</g>
<!-- Node7 -->
<g id="Node000007" class="node">
<title>Node7</title>
<g id="a_Node000007"><a xlink:href="app_8c.html#a9667dd647db83da44fc3f87ff2a62201" target="_top" xlink:title=" ">
<polygon fill="white" stroke="#666666" points="508.25,-594.09 450.25,-594.09 450.25,-573.34 508.25,-573.34 508.25,-594.09"/>
<text text-anchor="middle" x="479.25" y="-580.59" font-family="Helvetica,sans-Serif" font-size="10.00">w2c_0_0</text>
</a>
</g>
</g>
<!-- Node6&#45;&gt;Node7 -->
<g id="edge7_Node000006_Node000007" class="edge">
<title>Node6&#45;&gt;Node7</title>
<g id="a_edge7_Node000006_Node000007"><a xlink:title=" ">
<path fill="none" stroke="#63b8ff" d="M377.7,-419.36C384.07,-446.38 404.06,-518.68 444.25,-563.72 444.95,-564.5 445.68,-565.26 446.45,-566"/>
<polygon fill="#63b8ff" stroke="#63b8ff" points="444.3,-568.76 454.35,-572.12 448.59,-563.23 444.3,-568.76"/>
</a>
</g>
</g>
<!-- Node8 -->
<g id="Node000008" class="node">
<title>Node8</title>
<g id="a_Node000008"><a xlink:href="app_8c.html#a073f670c8a950594dc8c2335dd28302c" target="_top" xlink:title=" ">
<polygon fill="white" stroke="#666666" points="514.25,-555.09 444.25,-555.09 444.25,-534.34 514.25,-534.34 514.25,-555.09"/>
<text text-anchor="middle" x="479.25" y="-541.59" font-family="Helvetica,sans-Serif" font-size="10.00">w2c_0_135</text>
</a>
</g>
</g>
<!-- Node6&#45;&gt;Node8 -->
<g id="edge8_Node000006_Node000008" class="edge">
<title>Node6&#45;&gt;Node8</title>
<g id="a_edge8_Node000006_Node000008"><a xlink:title=" ">
<path fill="none" stroke="#63b8ff" d="M379.59,-419.51C388.63,-441.54 411.72,-492.32 444.25,-524.72 445.12,-525.59 446.04,-526.43 447,-527.26"/>
<polygon fill="#63b8ff" stroke="#63b8ff" points="444.85,-530.02 455,-533.08 448.97,-524.36 444.85,-530.02"/>
</a>
</g>
</g>
<!-- Node9 -->
<g id="Node000009" class="node">
<title>Node9</title>
<g id="a_Node000009"><a xlink:href="app_8c.html#a18a88d48b058bed42fc73361b8889923" target="_top" xlink:title=" ">
<polygon fill="white" stroke="#666666" points="514.25,-516.09 444.25,-516.09 444.25,-495.34 514.25,-495.34 514.25,-516.09"/>
<text text-anchor="middle" x="479.25" y="-502.59" font-family="Helvetica,sans-Serif" font-size="10.00">w2c_0_145</text>
</a>
</g>
</g>
<!-- Node6&#45;&gt;Node9 -->
<g id="edge9_Node000006_Node000009" class="edge">
<title>Node6&#45;&gt;Node9</title>
<g id="a_edge9_Node000006_Node000009"><a xlink:title=" ">
<path fill="none" stroke="#63b8ff" d="M383.18,-419.37C395.11,-435.17 419.14,-465.14 444.25,-485.72 445.51,-486.75 446.83,-487.76 448.18,-488.75"/>
<polygon fill="#63b8ff" stroke="#63b8ff" points="445.89,-491.43 456.17,-494.02 449.75,-485.59 445.89,-491.43"/>
</a>
</g>
</g>
<!-- Node10 -->
<g id="Node000010" class="node">
<title>Node10</title>
<g id="a_Node000010"><a xlink:href="app_8c.html#a26f5f3566a80b7694b3e1f282fe44c4e" target="_top" xlink:title=" ">
<polygon fill="white" stroke="#666666" points="514.25,-477.09 444.25,-477.09 444.25,-456.34 514.25,-456.34 514.25,-477.09"/>
<text text-anchor="middle" x="479.25" y="-463.59" font-family="Helvetica,sans-Serif" font-size="10.00">w2c_0_160</text>
</a>
</g>
</g>
<!-- Node6&#45;&gt;Node10 -->
<g id="edge10_Node000006_Node000010" class="edge">
<title>Node6&#45;&gt;Node10</title>
<g id="a_edge10_Node000006_Node000010"><a xlink:title=" ">
<path fill="none" stroke="#63b8ff" d="M394.24,-419.36C409.66,-428.05 431.72,-440.48 449.36,-450.43"/>
<polygon fill="#63b8ff" stroke="#63b8ff" points="447.4,-453.34 457.83,-455.21 450.84,-447.25 447.4,-453.34"/>
</a>
</g>
</g>
<!-- Node11 -->
<g id="Node000011" class="node">
<title>Node11</title>
<g id="a_Node000011"><a xlink:href="app_8c.html#a6ff627af0fa7674eab0ae563b97eeb11" target="_top" xlink:title=" ">
<polygon fill="white" stroke="#666666" points="514.25,-438.09 444.25,-438.09 444.25,-417.34 514.25,-417.34 514.25,-438.09"/>
<text text-anchor="middle" x="479.25" y="-424.59" font-family="Helvetica,sans-Serif" font-size="10.00">w2c_0_163</text>
</a>
</g>
</g>
<!-- Node6&#45;&gt;Node11 -->
<g id="edge11_Node000006_Node000011" class="edge">
<title>Node6&#45;&gt;Node11</title>
<g id="a_edge11_Node000006_Node000011"><a xlink:title=" ">
<path fill="none" stroke="#63b8ff" d="M408.49,-414.83C416.16,-416.25 424.45,-417.78 432.54,-419.28"/>
<polygon fill="#63b8ff" stroke="#63b8ff" points="431.82,-422.7 442.29,-421.08 433.09,-415.82 431.82,-422.7"/>
</a>
</g>
</g>
<!-- Node12 -->
<g id="Node000012" class="node">
<title>Node12</title>
<g id="a_Node000012"><a xlink:href="app_8c.html#ae7f249bfdedd6f1b6337d1de6b8cab09" target="_top" xlink:title=" ">
<polygon fill="white" stroke="#666666" points="514.25,-362.09 444.25,-362.09 444.25,-341.34 514.25,-341.34 514.25,-362.09"/>
<text text-anchor="middle" x="479.25" y="-348.59" font-family="Helvetica,sans-Serif" font-size="10.00">w2c_0_164</text>
</a>
</g>
</g>
<!-- Node6&#45;&gt;Node12 -->
<g id="edge12_Node000006_Node000012" class="edge">
<title>Node6&#45;&gt;Node12</title>
<g id="a_edge12_Node000006_Node000012"><a xlink:title=" ">
<path fill="none" stroke="#63b8ff" d="M394.73,-398C410,-389.53 431.57,-377.58 448.96,-367.95"/>
<polygon fill="#63b8ff" stroke="#63b8ff" points="450.26,-371.23 457.31,-363.32 446.87,-365.1 450.26,-371.23"/>
</a>
</g>
</g>
<!-- Node13 -->
<g id="Node000013" class="node">
<title>Node13</title>
<g id="a_Node000013"><a xlink:href="app_8c.html#a903261111f66decbcc7b8be9a05f8eea" target="_top" xlink:title=" ">
<polygon fill="white" stroke="#666666" points="514.25,-323.09 444.25,-323.09 444.25,-302.34 514.25,-302.34 514.25,-323.09"/>
<text text-anchor="middle" x="479.25" y="-309.59" font-family="Helvetica,sans-Serif" font-size="10.00">w2c_0_179</text>
</a>
</g>
</g>
<!-- Node6&#45;&gt;Node13 -->
<g id="edge13_Node000006_Node000013" class="edge">
<title>Node6&#45;&gt;Node13</title>
<g id="a_edge13_Node000006_Node000013"><a xlink:title=" ">
<path fill="none" stroke="#63b8ff" d="M383.41,-397.95C395.44,-382.3 419.39,-352.95 444.25,-332.72 445.54,-331.66 446.9,-330.63 448.3,-329.62"/>
<polygon fill="#63b8ff" stroke="#63b8ff" points="450.09,-332.63 456.54,-324.22 446.26,-326.77 450.09,-332.63"/>
</a>
</g>
</g>
<!-- Node14 -->
<g id="Node000014" class="node">
<title>Node14</title>
<g id="a_Node000014"><a xlink:href="app_8c.html#a4132029eef40af3166fadcb720dd7d1b" target="_top" xlink:title=" ">
<polygon fill="white" stroke="#666666" points="511.25,-284.09 447.25,-284.09 447.25,-263.34 511.25,-263.34 511.25,-284.09"/>
<text text-anchor="middle" x="479.25" y="-270.59" font-family="Helvetica,sans-Serif" font-size="10.00">w2c_0_18</text>
</a>
</g>
</g>
<!-- Node6&#45;&gt;Node14 -->
<g id="edge14_Node000006_Node000014" class="edge">
<title>Node6&#45;&gt;Node14</title>
<g id="a_edge14_Node000006_Node000014"><a xlink:title=" ">
<path fill="none" stroke="#63b8ff" d="M379.62,-398.02C388.7,-376.19 411.87,-325.84 444.25,-293.72 445.13,-292.85 446.05,-292 447,-291.18"/>
<polygon fill="#63b8ff" stroke="#63b8ff" points="448.97,-294.08 455.01,-285.37 444.86,-288.41 448.97,-294.08"/>
</a>
</g>
</g>
<!-- Node15 -->
<g id="Node000015" class="node">
<title>Node15</title>
<g id="a_Node000015"><a xlink:href="app_8c.html#ab9a7bf05ec0bdc1b85a7b30935e397a8" target="_top" xlink:title=" ">
<polygon fill="white" stroke="#666666" points="511.25,-245.09 447.25,-245.09 447.25,-224.34 511.25,-224.34 511.25,-245.09"/>
<text text-anchor="middle" x="479.25" y="-231.59" font-family="Helvetica,sans-Serif" font-size="10.00">w2c_0_55</text>
</a>
</g>
</g>
<!-- Node6&#45;&gt;Node15 -->
<g id="edge15_Node000006_Node000015" class="edge">
<title>Node6&#45;&gt;Node15</title>
<g id="a_edge15_Node000006_Node000015"><a xlink:title=" ">
<path fill="none" stroke="#63b8ff" d="M377.72,-398.14C384.13,-371.3 404.22,-299.47 444.25,-254.72 444.95,-253.94 445.69,-253.18 446.45,-252.44"/>
<polygon fill="#63b8ff" stroke="#63b8ff" points="448.59,-255.21 454.35,-246.32 444.3,-249.68 448.59,-255.21"/>
</a>
</g>
</g>
<!-- Node16 -->
<g id="Node000016" class="node">
<title>Node16</title>
<g id="a_Node000016"><a xlink:href="app_8c.html#a0845deaa52bf05e7f31689bf095f9e15" target="_top" xlink:title=" ">
<polygon fill="white" stroke="#666666" points="511.25,-206.09 447.25,-206.09 447.25,-185.34 511.25,-185.34 511.25,-206.09"/>
<text text-anchor="middle" x="479.25" y="-192.59" font-family="Helvetica,sans-Serif" font-size="10.00">w2c_0_65</text>
</a>
</g>
</g>
<!-- Node6&#45;&gt;Node16 -->
<g id="edge16_Node000006_Node000016" class="edge">
<title>Node6&#45;&gt;Node16</title>
<g id="a_edge16_Node000006_Node000016"><a xlink:title=" ">
<path fill="none" stroke="#63b8ff" d="M376.58,-398.29C380.64,-367.17 396.41,-273.57 444.25,-215.72 444.9,-214.93 445.59,-214.17 446.31,-213.43"/>
<polygon fill="#63b8ff" stroke="#63b8ff" points="448.22,-216.39 453.8,-207.38 443.82,-210.94 448.22,-216.39"/>
</a>
</g>
</g>
<!-- Node17 -->
<g id="Node000017" class="node">
<title>Node17</title>
<g id="a_Node000017"><a xlink:href="app_8c.html#af2a6460aa980eac83d4be2336a5682cc" target="_top" xlink:title=" ">
<polygon fill="white" stroke="#666666" points="511.25,-167.09 447.25,-167.09 447.25,-146.34 511.25,-146.34 511.25,-167.09"/>
<text text-anchor="middle" x="479.25" y="-153.59" font-family="Helvetica,sans-Serif" font-size="10.00">w2c_0_86</text>
</a>
</g>
</g>
<!-- Node6&#45;&gt;Node17 -->
<g id="edge17_Node000006_Node000017" class="edge">
<title>Node6&#45;&gt;Node17</title>
<g id="a_edge17_Node000006_Node000017"><a xlink:title=" ">
<path fill="none" stroke="#63b8ff" d="M375.83,-398.25C377.84,-363.15 388.59,-247.87 444.25,-176.72 444.77,-176.05 445.32,-175.4 445.9,-174.77"/>
<polygon fill="#63b8ff" stroke="#63b8ff" points="447.93,-177.64 453.31,-168.51 443.41,-172.29 447.93,-177.64"/>
</a>
</g>
</g>
<!-- Node18 -->
<g id="Node000018" class="node">
<title>Node18</title>
<g id="a_Node000018"><a xlink:href="app_8c.html#a7504175e528fefc9d7ea063432bef9d5" target="_top" xlink:title=" ">
<polygon fill="white" stroke="#666666" points="511.25,-128.09 447.25,-128.09 447.25,-107.34 511.25,-107.34 511.25,-128.09"/>
<text text-anchor="middle" x="479.25" y="-114.59" font-family="Helvetica,sans-Serif" font-size="10.00">w2c_0_87</text>
</a>
</g>
</g>
<!-- Node6&#45;&gt;Node18 -->
<g id="edge18_Node000006_Node000018" class="edge">
<title>Node6&#45;&gt;Node18</title>
<g id="a_edge18_Node000006_Node000018"><a xlink:title=" ">
<path fill="none" stroke="#63b8ff" d="M375.28,-397.9C375.47,-358.73 380.86,-222.15 444.25,-137.72 444.76,-137.04 445.3,-136.38 445.86,-135.74"/>
<polygon fill="#63b8ff" stroke="#63b8ff" points="447.9,-138.6 453.2,-129.43 443.34,-133.3 447.9,-138.6"/>
</a>
</g>
</g>
<!-- Node19 -->
<g id="Node000019" class="node">
<title>Node19</title>
<g id="a_Node000019"><a xlink:href="app_8c.html#a0e3bef21fd9a976288b266a9e18893b9" target="_top" xlink:title=" ">
<polygon fill="white" stroke="#666666" points="511.25,-89.09 447.25,-89.09 447.25,-68.34 511.25,-68.34 511.25,-89.09"/>
<text text-anchor="middle" x="479.25" y="-75.59" font-family="Helvetica,sans-Serif" font-size="10.00">w2c_0_93</text>
</a>
</g>
</g>
<!-- Node6&#45;&gt;Node19 -->
<g id="edge19_Node000006_Node000019" class="edge">
<title>Node6&#45;&gt;Node19</title>
<g id="a_edge19_Node000006_Node000019"><a xlink:title=" ">
<path fill="none" stroke="#63b8ff" d="M374.85,-397.87C373.32,-355.25 372.91,-196.81 444.25,-98.72 444.75,-98.03 445.28,-97.37 445.84,-96.72"/>
<polygon fill="#63b8ff" stroke="#63b8ff" points="447.88,-99.58 453.12,-90.37 443.28,-94.3 447.88,-99.58"/>
</a>
</g>
</g>
<!-- Node20 -->
<g id="Node000020" class="node">
<title>Node20</title>
<g id="a_Node000020"><a xlink:href="app_8c.html#a473677c504e5effa085c43e095d81177" target="_top" xlink:title=" ">
<polygon fill="white" stroke="#666666" points="513.12,-672.09 445.38,-672.09 445.38,-651.34 513.12,-651.34 513.12,-672.09"/>
<text text-anchor="middle" x="479.25" y="-658.59" font-family="Helvetica,sans-Serif" font-size="10.00">w2c__f228</text>
</a>
</g>
</g>
<!-- Node6&#45;&gt;Node20 -->
<g id="edge21_Node000006_Node000020" class="edge">
<title>Node6&#45;&gt;Node20</title>
<g id="a_edge21_Node000006_Node000020"><a xlink:title=" ">
<path fill="none" stroke="#63b8ff" d="M375.81,-419.23C377.78,-454.48 388.41,-570.25 444.25,-641.72 444.77,-642.39 445.32,-643.04 445.9,-643.67"/>
<polygon fill="#63b8ff" stroke="#63b8ff" points="443.41,-646.15 453.31,-649.93 447.93,-640.8 443.41,-646.15"/>
</a>
</g>
</g>
<!-- Node24 -->
<g id="Node000024" class="node">
<title>Node24</title>
<g id="a_Node000024"><a xlink:href="app_8c.html#aaca5d5bcf49f2ca74019cf097750b9f3" target="_top" xlink:title=" ">
<polygon fill="white" stroke="#666666" points="929.25,-681.09 861.5,-681.09 861.5,-660.34 929.25,-660.34 929.25,-681.09"/>
<text text-anchor="middle" x="895.38" y="-667.59" font-family="Helvetica,sans-Serif" font-size="10.00">w2c__f258</text>
</a>
</g>
</g>
<!-- Node6&#45;&gt;Node24 -->
<g id="edge36_Node000006_Node000024" class="edge">
<title>Node6&#45;&gt;Node24</title>
<g id="a_edge36_Node000006_Node000024"><a xlink:title=" ">
<path fill="none" stroke="#63b8ff" d="M408.39,-403.82C449.3,-398.2 521.19,-389.72 583.12,-389.72 583.12,-389.72 583.12,-389.72 688.88,-389.72 817.2,-389.72 874.02,-583 889.68,-648.96"/>
<polygon fill="#63b8ff" stroke="#63b8ff" points="886.23,-649.6 891.86,-658.57 893.05,-648.04 886.23,-649.6"/>
</a>
</g>
</g>
<!-- Node29 -->
<g id="Node000029" class="node">
<title>Node29</title>
<g id="a_Node000029"><a xlink:href="app_8c.html#a8d8a9f240d971fdd48e2227d3e26416d" target="_top" xlink:title=" ">
<polygon fill="white" stroke="#666666" points="513.12,-50.09 445.38,-50.09 445.38,-29.34 513.12,-29.34 513.12,-50.09"/>
<text text-anchor="middle" x="479.25" y="-36.59" font-family="Helvetica,sans-Serif" font-size="10.00">w2c__f283</text>
</a>
</g>
</g>
<!-- Node6&#45;&gt;Node29 -->
<g id="edge37_Node000006_Node000029" class="edge">
<title>Node6&#45;&gt;Node29</title>
<g id="a_edge37_Node000006_Node000029"><a xlink:title=" ">
<path fill="none" stroke="#63b8ff" d="M376.3,-398.16C381.01,-346.07 403.78,-116.77 444.25,-59.72 444.65,-59.16 445.06,-58.61 445.5,-58.08"/>
<polygon fill="#63b8ff" stroke="#63b8ff" points="447.63,-60.87 452.72,-51.57 442.95,-55.67 447.63,-60.87"/>
</a>
</g>
</g>
<!-- Node30 -->
<g id="Node000030" class="node">
<title>Node30</title>
<g id="a_Node000030"><a xlink:href="app_8c.html#a0bc90b77449a4191d27077f29db94c10" target="_top" xlink:title=" ">
<polygon fill="white" stroke="#666666" points="513.12,-711.09 445.38,-711.09 445.38,-690.34 513.12,-690.34 513.12,-711.09"/>
<text text-anchor="middle" x="479.25" y="-697.59" font-family="Helvetica,sans-Serif" font-size="10.00">w2c__f390</text>
</a>
</g>
</g>
<!-- Node6&#45;&gt;Node30 -->
<g id="edge38_Node000006_Node000030" class="edge">
<title>Node6&#45;&gt;Node30</title>
<g id="a_edge38_Node000006_Node000030"><a xlink:title=" ">
<path fill="none" stroke="#63b8ff" d="M375.27,-419.57C375.41,-458.88 380.68,-595.96 444.25,-680.72 444.76,-681.4 445.3,-682.05 445.86,-682.7"/>
<polygon fill="#63b8ff" stroke="#63b8ff" points="443.34,-685.14 453.2,-689.01 447.9,-679.83 443.34,-685.14"/>
</a>
</g>
</g>
<!-- Node32 -->
<g id="Node000032" class="node">
<title>Node32</title>
<g id="a_Node000032"><a xlink:href="app_8c.html#a87ed9e71bb510c147810da63c198b7b2" target="_top" xlink:title=" ">
<polygon fill="white" stroke="#666666" points="721.75,-100.09 654,-100.09 654,-79.34 721.75,-79.34 721.75,-100.09"/>
<text text-anchor="middle" x="687.88" y="-86.59" font-family="Helvetica,sans-Serif" font-size="10.00">w2c__f398</text>
</a>
</g>
</g>
<!-- Node6&#45;&gt;Node32 -->
<g id="edge40_Node000006_Node000032" class="edge">
<title>Node6&#45;&gt;Node32</title>
<g id="a_edge40_Node000006_Node000032"><a xlink:title=" ">
<path fill="none" stroke="#63b8ff" d="M375.51,-397.99C376.51,-340.62 384.34,-70.93 444.25,-20.72 510.68,34.96 619.42,-36.7 665.34,-72.08"/>
<polygon fill="#63b8ff" stroke="#63b8ff" points="662.93,-74.64 672.95,-78.08 667.27,-69.14 662.93,-74.64"/>
</a>
</g>
</g>
<!-- Node33 -->
<g id="Node000033" class="node">
<title>Node33</title>
<g id="a_Node000033"><a xlink:href="app_8c.html#ab78a9ba6819f5a9d3b53302097151d33" target="_top" xlink:title=" ">
<polygon fill="white" stroke="#666666" points="513.12,-750.09 445.38,-750.09 445.38,-729.34 513.12,-729.34 513.12,-750.09"/>
<text text-anchor="middle" x="479.25" y="-736.59" font-family="Helvetica,sans-Serif" font-size="10.00">w2c__f481</text>
</a>
</g>
</g>
<!-- Node6&#45;&gt;Node33 -->
<g id="edge42_Node000006_Node000033" class="edge">
<title>Node6&#45;&gt;Node33</title>
<g id="a_edge42_Node000006_Node000033"><a xlink:title=" ">
<path fill="none" stroke="#63b8ff" d="M374.85,-419.31C373.27,-461.63 372.56,-621.08 444.25,-719.72 444.75,-720.4 445.28,-721.07 445.83,-721.72"/>
<polygon fill="#63b8ff" stroke="#63b8ff" points="443.28,-724.13 453.12,-728.07 447.88,-718.86 443.28,-724.13"/>
</a>
</g>
</g>
<!-- Node34 -->
<g id="Node000034" class="node">
<title>Node34</title>
<g id="a_Node000034"><a xlink:href="app_8c.html#a672569c91ebb1d5055d737b56ec296a7" target="_top" xlink:title=" ">
<polygon fill="white" stroke="#666666" points="513.12,-633.09 445.38,-633.09 445.38,-612.34 513.12,-612.34 513.12,-633.09"/>
<text text-anchor="middle" x="479.25" y="-619.59" font-family="Helvetica,sans-Serif" font-size="10.00">w2c__f585</text>
</a>
</g>
</g>
<!-- Node6&#45;&gt;Node34 -->
<g id="edge43_Node000006_Node000034" class="edge">
<title>Node6&#45;&gt;Node34</title>
<g id="a_edge43_Node000006_Node000034"><a xlink:title=" ">
<path fill="none" stroke="#63b8ff" d="M376.56,-419.2C380.58,-450.48 396.24,-544.56 444.25,-602.72 444.9,-603.5 445.59,-604.26 446.31,-605"/>
<polygon fill="#63b8ff" stroke="#63b8ff" points="443.82,-607.49 453.79,-611.06 448.22,-602.05 443.82,-607.49"/>
</a>
</g>
</g>
<!-- Node21 -->
<g id="Node000021" class="node">
<title>Node21</title>
<g id="a_Node000021"><a xlink:href="app_8c.html#a16393b3c5cd680d67eabb5d0da38635c" target="_top" xlink:title=" ">
<polygon fill="white" stroke="#666666" points="618,-672.09 550.25,-672.09 550.25,-651.34 618,-651.34 618,-672.09"/>
<text text-anchor="middle" x="584.12" y="-658.59" font-family="Helvetica,sans-Serif" font-size="10.00">w2c__f551</text>
</a>
</g>
</g>
<!-- Node20&#45;&gt;Node21 -->
<g id="edge22_Node000020_Node000021" class="edge">
<title>Node20&#45;&gt;Node21</title>
<g id="a_edge22_Node000020_Node000021"><a xlink:title=" ">
<path fill="none" stroke="#63b8ff" d="M513.37,-661.72C521.44,-661.72 530.21,-661.72 538.72,-661.72"/>
<polygon fill="#63b8ff" stroke="#63b8ff" points="538.56,-665.22 548.56,-661.72 538.56,-658.22 538.56,-665.22"/>
</a>
</g>
</g>
<!-- Node22 -->
<g id="Node000022" class="node">
<title>Node22</title>
<g id="a_Node000022"><a xlink:href="app_8c.html#a1a8a1d528c65d63a630e19c3a4bdd098" target="_top" xlink:title=" ">
<polygon fill="white" stroke="#666666" points="721.75,-701.09 654,-701.09 654,-680.34 721.75,-680.34 721.75,-701.09"/>
<text text-anchor="middle" x="687.88" y="-687.59" font-family="Helvetica,sans-Serif" font-size="10.00">w2c__f557</text>
</a>
</g>
</g>
<!-- Node21&#45;&gt;Node22 -->
<g id="edge23_Node000021_Node000022" class="edge">
<title>Node21&#45;&gt;Node22</title>
<g id="a_edge23_Node000021_Node000022"><a xlink:title=" ">
<path fill="none" stroke="#63b8ff" d="M618.44,-671.21C626.25,-673.44 634.69,-675.84 642.89,-678.18"/>
<polygon fill="#63b8ff" stroke="#63b8ff" points="641.8,-681.51 652.38,-680.88 643.72,-674.78 641.8,-681.51"/>
</a>
</g>
</g>
<!-- Node23 -->
<g id="Node000023" class="node">
<title>Node23</title>
<g id="a_Node000023"><a xlink:href="app_8c.html#a0f7003812eaf983535ff7979fc047a21" target="_top" xlink:title=" ">
<polygon fill="white" stroke="#666666" points="825.5,-681.09 757.75,-681.09 757.75,-660.34 825.5,-660.34 825.5,-681.09"/>
<text text-anchor="middle" x="791.62" y="-667.59" font-family="Helvetica,sans-Serif" font-size="10.00">w2c__f353</text>
</a>
</g>
</g>
<!-- Node22&#45;&gt;Node23 -->
<g id="edge24_Node000022_Node000023" class="edge">
<title>Node22&#45;&gt;Node23</title>
<g id="a_edge24_Node000022_Node000023"><a xlink:title=" ">
<path fill="none" stroke="#63b8ff" d="M722.19,-684.17C729.91,-682.65 738.25,-681.01 746.36,-679.42"/>
<polygon fill="#63b8ff" stroke="#63b8ff" points="746.96,-682.87 756.1,-677.5 745.61,-676 746.96,-682.87"/>
</a>
</g>
</g>
<!-- Node27 -->
<g id="Node000027" class="node">
<title>Node27</title>
<g id="a_Node000027"><a xlink:href="app_8c.html#ac9cc84763a9c1933e50eedd7a06c17e2" target="_top" xlink:title=" ">
<polygon fill="white" stroke="#666666" points="825.5,-720.09 757.75,-720.09 757.75,-699.34 825.5,-699.34 825.5,-720.09"/>
<text text-anchor="middle" x="791.62" y="-706.59" font-family="Helvetica,sans-Serif" font-size="10.00">w2c__f480</text>
</a>
</g>
</g>
<!-- Node22&#45;&gt;Node27 -->
<g id="edge30_Node000022_Node000027" class="edge">
<title>Node22&#45;&gt;Node27</title>
<g id="a_edge30_Node000022_Node000027"><a xlink:title=" ">
<path fill="none" stroke="#63b8ff" d="M722.19,-696.94C729.91,-698.38 738.25,-699.94 746.36,-701.45"/>
<polygon fill="#63b8ff" stroke="#63b8ff" points="745.62,-704.87 756.09,-703.27 746.91,-697.99 745.62,-704.87"/>
</a>
</g>
</g>
<!-- Node23&#45;&gt;Node24 -->
<g id="edge25_Node000023_Node000024" class="edge">
<title>Node23&#45;&gt;Node24</title>
<g id="a_edge25_Node000023_Node000024"><a xlink:title=" ">
<path fill="none" stroke="#63b8ff" d="M825.94,-670.72C833.57,-670.72 841.81,-670.72 849.83,-670.72"/>
<polygon fill="#63b8ff" stroke="#63b8ff" points="849.82,-674.22 859.82,-670.72 849.82,-667.22 849.82,-674.22"/>
</a>
</g>
</g>
<!-- Node26 -->
<g id="Node000026" class="node">
<title>Node26</title>
<g id="a_Node000026"><a xlink:href="app_8c.html#a4634342addbde677893ffcb45cf639dd" target="_top" xlink:title=" ">
<polygon fill="white" stroke="#666666" points="929.25,-720.09 861.5,-720.09 861.5,-699.34 929.25,-699.34 929.25,-720.09"/>
<text text-anchor="middle" x="895.38" y="-706.59" font-family="Helvetica,sans-Serif" font-size="10.00">w2c__f302</text>
</a>
</g>
</g>
<!-- Node23&#45;&gt;Node26 -->
<g id="edge28_Node000023_Node000026" class="edge">
<title>Node23&#45;&gt;Node26</title>
<g id="a_edge28_Node000023_Node000026"><a xlink:title=" ">
<path fill="none" stroke="#63b8ff" d="M820.97,-681.58C831.66,-685.68 844.02,-690.42 855.51,-694.82"/>
<polygon fill="#63b8ff" stroke="#63b8ff" points="854.18,-698.06 864.77,-698.37 856.69,-691.52 854.18,-698.06"/>
</a>
</g>
</g>
<!-- Node24&#45;&gt;Node4 -->
<g id="edge26_Node000024_Node000004" class="edge">
<title>Node24&#45;&gt;Node4</title>
<g id="a_edge26_Node000024_Node000004"><a xlink:title=" ">
<path fill="none" stroke="#63b8ff" d="M915.04,-681.36C930.29,-690.05 952.1,-702.48 969.55,-712.43"/>
<polygon fill="#63b8ff" stroke="#63b8ff" points="967.5,-715.29 977.92,-717.2 970.97,-709.21 967.5,-715.29"/>
</a>
</g>
</g>
<!-- Node25 -->
<g id="Node000025" class="node">
<title>Node25</title>
<g id="a_Node000025"><a xlink:href="app_8c.html#a881f0b113e93dce3ff52d04b435850f6" target="_top" xlink:title=" ">
<polygon fill="white" stroke="#666666" points="1033,-681.09 965.25,-681.09 965.25,-660.34 1033,-660.34 1033,-681.09"/>
<text text-anchor="middle" x="999.12" y="-667.59" font-family="Helvetica,sans-Serif" font-size="10.00">w2c__f491</text>
</a>
</g>
</g>
<!-- Node24&#45;&gt;Node25 -->
<g id="edge27_Node000024_Node000025" class="edge">
<title>Node24&#45;&gt;Node25</title>
<g id="a_edge27_Node000024_Node000025"><a xlink:title=" ">
<path fill="none" stroke="#63b8ff" d="M929.69,-670.72C937.32,-670.72 945.56,-670.72 953.58,-670.72"/>
<polygon fill="#63b8ff" stroke="#63b8ff" points="953.57,-674.22 963.57,-670.72 953.57,-667.22 953.57,-674.22"/>
</a>
</g>
</g>
<!-- Node26&#45;&gt;Node4 -->
<g id="edge29_Node000026_Node000004" class="edge">
<title>Node26&#45;&gt;Node4</title>
<g id="a_edge29_Node000026_Node000004"><a xlink:title=" ">
<path fill="none" stroke="#63b8ff" d="M929.69,-715.94C937.41,-717.38 945.75,-718.94 953.86,-720.45"/>
<polygon fill="#63b8ff" stroke="#63b8ff" points="953.12,-723.87 963.59,-722.27 954.41,-716.99 953.12,-723.87"/>
</a>
</g>
</g>
<!-- Node27&#45;&gt;Node3 -->
<g id="edge31_Node000027_Node000003" class="edge">
<title>Node27&#45;&gt;Node3</title>
<g id="a_edge31_Node000027_Node000003"><a xlink:title=" ">
<path fill="none" stroke="#63b8ff" d="M799.34,-720.38C806.11,-731.2 816.77,-748.48 825.5,-763.72 846.92,-801.1 870.4,-845.55 883.67,-871.02"/>
<polygon fill="#63b8ff" stroke="#63b8ff" points="880.44,-872.39 888.15,-879.65 886.65,-869.16 880.44,-872.39"/>
</a>
</g>
</g>
<!-- Node27&#45;&gt;Node4 -->
<g id="edge34_Node000027_Node000004" class="edge">
<title>Node27&#45;&gt;Node4</title>
<g id="a_edge34_Node000027_Node000004"><a xlink:title=" ">
<path fill="none" stroke="#63b8ff" d="M824.83,-720.53C836.27,-723.86 849.33,-727.07 861.5,-728.72 892.01,-732.85 926.7,-732.79 953.49,-731.73"/>
<polygon fill="#63b8ff" stroke="#63b8ff" points="953.49,-735.23 963.32,-731.27 953.16,-728.24 953.49,-735.23"/>
</a>
</g>
</g>
<!-- Node27&#45;&gt;Node24 -->
<g id="edge32_Node000027_Node000024" class="edge">
<title>Node27&#45;&gt;Node24</title>
<g id="a_edge32_Node000027_Node000024"><a xlink:title=" ">
<path fill="none" stroke="#63b8ff" d="M820.97,-698.85C831.66,-694.75 844.02,-690.02 855.51,-685.61"/>
<polygon fill="#63b8ff" stroke="#63b8ff" points="856.69,-688.91 864.77,-682.06 854.18,-682.38 856.69,-688.91"/>
</a>
</g>
</g>
<!-- Node27&#45;&gt;Node26 -->
<g id="edge33_Node000027_Node000026" class="edge">
<title>Node27&#45;&gt;Node26</title>
<g id="a_edge33_Node000027_Node000026"><a xlink:title=" ">
<path fill="none" stroke="#63b8ff" d="M825.94,-709.72C833.57,-709.72 841.81,-709.72 849.83,-709.72"/>
<polygon fill="#63b8ff" stroke="#63b8ff" points="849.82,-713.22 859.82,-709.72 849.82,-706.22 849.82,-713.22"/>
</a>
</g>
</g>
<!-- Node28 -->
<g id="Node000028" class="node">
<title>Node28</title>
<g id="a_Node000028"><a xlink:href="app_8c.html#a674f6e81761467d0a8dc6d2a425eda9f" target="_top" xlink:title=" ">
<polygon fill="white" stroke="#666666" points="929.25,-526.09 861.5,-526.09 861.5,-505.34 929.25,-505.34 929.25,-526.09"/>
<text text-anchor="middle" x="895.38" y="-512.59" font-family="Helvetica,sans-Serif" font-size="10.00">w2c__f498</text>
</a>
</g>
</g>
<!-- Node27&#45;&gt;Node28 -->
<g id="edge35_Node000027_Node000028" class="edge">
<title>Node27&#45;&gt;Node28</title>
<g id="a_edge35_Node000027_Node000028"><a xlink:title=" ">
<path fill="none" stroke="#63b8ff" d="M814.7,-699.05C818.66,-696.41 822.49,-693.29 825.5,-689.72 864.47,-643.51 883.18,-572.55 890.49,-537.23"/>
<polygon fill="#63b8ff" stroke="#63b8ff" points="893.85,-538.3 892.32,-527.81 886.98,-536.96 893.85,-538.3"/>
</a>
</g>
</g>
<!-- Node31 -->
<g id="Node000031" class="node">
<title>Node31</title>
<g id="a_Node000031"><a xlink:href="app_8c.html#a75d2a28c1bac8b1e29f069bf851fdba9" target="_top" xlink:title=" ">
<polygon fill="white" stroke="#666666" points="618,-711.09 550.25,-711.09 550.25,-690.34 618,-690.34 618,-711.09"/>
<text text-anchor="middle" x="584.12" y="-697.59" font-family="Helvetica,sans-Serif" font-size="10.00">w2c__f549</text>
</a>
</g>
</g>
<!-- Node30&#45;&gt;Node31 -->
<g id="edge39_Node000030_Node000031" class="edge">
<title>Node30&#45;&gt;Node31</title>
<g id="a_edge39_Node000030_Node000031"><a xlink:title=" ">
<path fill="none" stroke="#63b8ff" d="M513.37,-700.72C521.44,-700.72 530.21,-700.72 538.72,-700.72"/>
<polygon fill="#63b8ff" stroke="#63b8ff" points="538.56,-704.22 548.56,-700.72 538.56,-697.22 538.56,-704.22"/>
</a>
</g>
</g>
<!-- Node32&#45;&gt;Node28 -->
<g id="edge41_Node000032_Node000028" class="edge">
<title>Node32&#45;&gt;Node28</title>
<g id="a_edge41_Node000032_Node000028"><a xlink:title=" ">
<path fill="none" stroke="#63b8ff" d="M693.95,-100.25C720.94,-156.19 847.63,-418.82 884.37,-494.97"/>
<polygon fill="#63b8ff" stroke="#63b8ff" points="881.13,-496.32 888.63,-503.81 887.44,-493.28 881.13,-496.32"/>
</a>
</g>
</g>
<!-- Node35&#45;&gt;Node3 -->
<g id="edge45_Node000035_Node000003" class="edge">
<title>Node35&#45;&gt;Node3</title>
<g id="a_edge45_Node000035_Node000003"><a xlink:title=" ">
<path fill="none" stroke="#63b8ff" d="M408.51,-902.34C449.25,-913.31 520.66,-929.72 583.12,-929.72 583.12,-929.72 583.12,-929.72 688.88,-929.72 745.25,-929.72 808.9,-915.72 850.23,-904.71"/>
<polygon fill="#63b8ff" stroke="#63b8ff" points="851.08,-908.11 859.8,-902.1 849.24,-901.35 851.08,-908.11"/>
</a>
</g>
</g>
<!-- Node36 -->
<g id="Node000036" class="node">
<title>Node36</title>
<g id="a_Node000036"><a xlink:href="app_8c.html#a8ddfdaf7faae4bc857dc43f2691b9dbe" target="_top" xlink:title=" ">
<polygon fill="white" stroke="#666666" points="513.12,-902.09 445.38,-902.09 445.38,-881.34 513.12,-881.34 513.12,-902.09"/>
<text text-anchor="middle" x="479.25" y="-888.59" font-family="Helvetica,sans-Serif" font-size="10.00">w2c__f306</text>
</a>
</g>
</g>
<!-- Node35&#45;&gt;Node36 -->
<g id="edge46_Node000035_Node000036" class="edge">
<title>Node35&#45;&gt;Node36</title>
<g id="a_edge46_Node000035_Node000036"><a xlink:title=" ">
<path fill="none" stroke="#63b8ff" d="M408.49,-892.4C416.57,-892.32 425.34,-892.23 433.85,-892.15"/>
<polygon fill="#63b8ff" stroke="#63b8ff" points="433.72,-895.65 443.68,-892.05 433.65,-888.65 433.72,-895.65"/>
</a>
</g>
</g>
<!-- Node36&#45;&gt;Node3 -->
<g id="edge47_Node000036_Node000003" class="edge">
<title>Node36&#45;&gt;Node3</title>
<g id="a_edge47_Node000036_Node000003"><a xlink:title=" ">
<path fill="none" stroke="#63b8ff" d="M513.44,-891.72C587.42,-891.72 765.92,-891.72 849.63,-891.72"/>
<polygon fill="#63b8ff" stroke="#63b8ff" points="849.51,-895.22 859.51,-891.72 849.51,-888.22 849.51,-895.22"/>
</a>
</g>
</g>
<!-- Node36&#45;&gt;Node37 -->
<g id="edge48_Node000036_Node000037" class="edge">
<title>Node36&#45;&gt;Node37</title>
<g id="a_edge48_Node000036_Node000037"><a xlink:title=" ">
<path fill="none" stroke="#63b8ff" d="M499.6,-881C514.88,-872.53 536.44,-860.58 553.83,-850.95"/>
<polygon fill="#63b8ff" stroke="#63b8ff" points="555.14,-854.23 562.19,-846.32 551.74,-848.1 555.14,-854.23"/>
</a>
</g>
</g>
<!-- Node37&#45;&gt;Node22 -->
<g id="edge49_Node000037_Node000022" class="edge">
<title>Node37&#45;&gt;Node22</title>
<g id="a_edge49_Node000037_Node000022"><a xlink:title=" ">
<path fill="none" stroke="#63b8ff" d="M592.77,-823.89C609.8,-799.8 651.03,-741.44 672.83,-710.59"/>
<polygon fill="#63b8ff" stroke="#63b8ff" points="675.63,-712.7 678.54,-702.51 669.91,-708.66 675.63,-712.7"/>
</a>
</g>
</g>
<!-- Node38&#45;&gt;Node37 -->
<g id="edge51_Node000038_Node000037" class="edge">
<title>Node38&#45;&gt;Node37</title>
<g id="a_edge51_Node000038_Node000037"><a xlink:title=" ">
<path fill="none" stroke="#63b8ff" d="M408.29,-850.71C443.52,-847.49 499.6,-842.36 538.72,-838.78"/>
<polygon fill="#63b8ff" stroke="#63b8ff" points="538.87,-842.28 548.51,-837.88 538.23,-835.31 538.87,-842.28"/>
</a>
</g>
</g>
</g>
</svg>
