<?xml version="1.0" encoding="UTF-8" standalone="no"?>
<!DOCTYPE svg PUBLIC "-//W3C//DTD SVG 1.1//EN"
 "http://www.w3.org/Graphics/SVG/1.1/DTD/svg11.dtd">
<!-- Generated by graphviz version 12.2.1 (0)
 -->
<!-- Title: w2c_0_129 Pages: 1 -->
<svg width="479pt" height="87pt"
 viewBox="0.00 0.00 479.25 86.75" xmlns="http://www.w3.org/2000/svg" xmlns:xlink="http://www.w3.org/1999/xlink">
<g id="graph0" class="graph" transform="scale(1 1) rotate(0) translate(4 82.75)">
<title>w2c_0_129</title>
<!-- Node1 -->
<g id="Node000001" class="node">
<title>Node1</title>
<g id="a_Node000001"><a xlink:title=" ">
<polygon fill="#999999" stroke="#666666" points="471.25,-39.75 401.25,-39.75 401.25,-19 471.25,-19 471.25,-39.75"/>
<text text-anchor="middle" x="436.25" y="-26.25" font-family="Helvetica,sans-Serif" font-size="10.00">w2c_0_129</text>
</a>
</g>
</g>
<!-- Node2 -->
<g id="Node000002" class="node">
<title>Node2</title>
<g id="a_Node000002"><a xlink:href="app_8c.html#a0a3203896da22c107966a0b2cc4d60c3" target="_top" xlink:title=" ">
<polygon fill="white" stroke="#666666" points="349.5,-59.75 281.75,-59.75 281.75,-39 349.5,-39 349.5,-59.75"/>
<text text-anchor="middle" x="315.62" y="-46.25" font-family="Helvetica,sans-Serif" font-size="10.00">w2c__f485</text>
</a>
</g>
</g>
<!-- Node1&#45;&gt;Node2 -->
<g id="edge1_Node000001_Node000002" class="edge">
<title>Node1&#45;&gt;Node2</title>
<g id="a_edge1_Node000001_Node000002"><a xlink:title=" ">
<path fill="none" stroke="#63b8ff" d="M389.97,-37.01C376.55,-39.27 362.12,-41.7 349.63,-43.81"/>
<polygon fill="#63b8ff" stroke="#63b8ff" points="390.17,-40.53 399.45,-35.41 389,-33.62 390.17,-40.53"/>
</a>
</g>
</g>
<!-- Node6 -->
<g id="Node000006" class="node">
<title>Node6</title>
<g id="a_Node000006"><a xlink:href="app_8c.html#a12764b38e260372c40817ca3c79e2105" target="_top" xlink:title=" ">
<polygon fill="white" stroke="#666666" points="365.25,-20.75 266,-20.75 266,0 365.25,0 365.25,-20.75"/>
<text text-anchor="middle" x="315.62" y="-7.25" font-family="Helvetica,sans-Serif" font-size="10.00">wrap_w2c_0_129</text>
</a>
</g>
</g>
<!-- Node1&#45;&gt;Node6 -->
<g id="edge5_Node000001_Node000006" class="edge">
<title>Node1&#45;&gt;Node6</title>
<g id="a_edge5_Node000001_Node000006"><a xlink:title=" ">
<path fill="none" stroke="#63b8ff" d="M389.64,-22.07C381.71,-20.8 373.43,-19.47 365.42,-18.19"/>
<polygon fill="#63b8ff" stroke="#63b8ff" points="389.02,-25.51 399.44,-23.64 390.12,-18.6 389.02,-25.51"/>
</a>
</g>
</g>
<!-- Node3 -->
<g id="Node000003" class="node">
<title>Node3</title>
<g id="a_Node000003"><a xlink:href="app_8c.html#afcd6d857de3bca65f7580b9d3e4aa197" target="_top" xlink:title=" ">
<polygon fill="white" stroke="#666666" points="215.38,-78.75 147.62,-78.75 147.62,-58 215.38,-58 215.38,-78.75"/>
<text text-anchor="middle" x="181.5" y="-65.25" font-family="Helvetica,sans-Serif" font-size="10.00">w2c__f440</text>
</a>
</g>
</g>
<!-- Node2&#45;&gt;Node3 -->
<g id="edge2_Node000002_Node000003" class="edge">
<title>Node2&#45;&gt;Node3</title>
<g id="a_edge2_Node000002_Node000003"><a xlink:title=" ">
<path fill="none" stroke="#63b8ff" d="M270.03,-55.79C252.3,-58.34 232.26,-61.22 215.83,-63.58"/>
<polygon fill="#63b8ff" stroke="#63b8ff" points="270.39,-59.27 279.79,-54.38 269.39,-52.34 270.39,-59.27"/>
</a>
</g>
</g>
<!-- Node5 -->
<g id="Node000005" class="node">
<title>Node5</title>
<g id="a_Node000005"><a xlink:href="app_8c.html#aab6a5d144a64932100c86be24948f523" target="_top" xlink:title=" ">
<polygon fill="white" stroke="#666666" points="230,-39.75 133,-39.75 133,-19 230,-19 230,-39.75"/>
<text text-anchor="middle" x="181.5" y="-26.25" font-family="Helvetica,sans-Serif" font-size="10.00">wrap_w2c__f485</text>
</a>
</g>
</g>
<!-- Node2&#45;&gt;Node5 -->
<g id="edge4_Node000002_Node000005" class="edge">
<title>Node2&#45;&gt;Node5</title>
<g id="a_edge4_Node000002_Node000005"><a xlink:title=" ">
<path fill="none" stroke="#63b8ff" d="M269.96,-42.61C257.2,-40.68 243.25,-38.57 230.31,-36.61"/>
<polygon fill="#63b8ff" stroke="#63b8ff" points="269.38,-46.07 279.79,-44.1 270.42,-39.14 269.38,-46.07"/>
</a>
</g>
</g>
<!-- Node4 -->
<g id="Node000004" class="node">
<title>Node4</title>
<g id="a_Node000004"><a xlink:href="app_8c.html#a5e80fd25553c5e34a6b8ff6032dc7e62" target="_top" xlink:title=" ">
<polygon fill="white" stroke="#666666" points="97,-78.75 0,-78.75 0,-58 97,-58 97,-78.75"/>
<text text-anchor="middle" x="48.5" y="-65.25" font-family="Helvetica,sans-Serif" font-size="10.00">wrap_w2c__f440</text>
</a>
</g>
</g>
<!-- Node3&#45;&gt;Node4 -->
<g id="edge3_Node000003_Node000004" class="edge">
<title>Node3&#45;&gt;Node4</title>
<g id="a_edge3_Node000003_Node000004"><a xlink:title=" ">
<path fill="none" stroke="#63b8ff" d="M135.95,-68.38C123.53,-68.38 110,-68.38 97.4,-68.38"/>
<polygon fill="#63b8ff" stroke="#63b8ff" points="135.93,-71.88 145.93,-68.38 135.93,-64.88 135.93,-71.88"/>
</a>
</g>
</g>
</g>
</svg>
