<?xml version="1.0" encoding="UTF-8" standalone="no"?>
<!DOCTYPE svg PUBLIC "-//W3C//DTD SVG 1.1//EN"
 "http://www.w3.org/Graphics/SVG/1.1/DTD/svg11.dtd">
<!-- Generated by graphviz version 12.2.1 (0)
 -->
<!-- Title: quiet_nanf Pages: 1 -->
<svg width="815pt" height="224pt"
 viewBox="0.00 0.00 814.75 223.75" xmlns="http://www.w3.org/2000/svg" xmlns:xlink="http://www.w3.org/1999/xlink">
<g id="graph0" class="graph" transform="scale(1 1) rotate(0) translate(4 219.75)">
<title>quiet_nanf</title>
<!-- Node1 -->
<g id="Node000001" class="node">
<title>Node1</title>
<g id="a_Node000001"><a xlink:title=" ">
<polygon fill="#999999" stroke="#666666" points="806.75,-117.75 739,-117.75 739,-97 806.75,-97 806.75,-117.75"/>
<text text-anchor="middle" x="772.88" y="-104.25" font-family="Helvetica,sans-Serif" font-size="10.00">quiet_nanf</text>
</a>
</g>
</g>
<!-- Node1&#45;&gt;Node1 -->
<g id="edge1_Node000001_Node000001" class="edge">
<title>Node1&#45;&gt;Node1</title>
<g id="a_edge1_Node000001_Node000001"><a xlink:title=" ">
<path fill="none" stroke="#63b8ff" d="M794.03,-129.24C791.23,-133.08 784.18,-135.75 772.88,-135.75 752.21,-135.75 745.75,-126.81 753.5,-118.15"/>
<polygon fill="#63b8ff" stroke="#63b8ff" points="797.54,-128.96 792.49,-119.64 790.62,-130.07 797.54,-128.96"/>
</a>
</g>
</g>
<!-- Node2 -->
<g id="Node000002" class="node">
<title>Node2</title>
<g id="a_Node000002"><a xlink:href="app_8c.html#a559cd17aa2602cb038c5822107c545a6" target="_top" xlink:title=" ">
<polygon fill="white" stroke="#666666" points="688.38,-215.75 616.88,-215.75 616.88,-195 688.38,-195 688.38,-215.75"/>
<text text-anchor="middle" x="652.62" y="-202.25" font-family="Helvetica,sans-Serif" font-size="10.00">wasm_ceilf</text>
</a>
</g>
</g>
<!-- Node1&#45;&gt;Node2 -->
<g id="edge2_Node000001_Node000002" class="edge">
<title>Node1&#45;&gt;Node2</title>
<g id="a_edge2_Node000001_Node000002"><a xlink:title=" ">
<path fill="none" stroke="#63b8ff" d="M758.35,-127.35C745.75,-144.67 725.55,-169.4 703,-185.38 698.02,-188.9 692.32,-191.94 686.61,-194.51"/>
<polygon fill="#63b8ff" stroke="#63b8ff" points="761.07,-129.55 763.98,-119.36 755.35,-125.52 761.07,-129.55"/>
</a>
</g>
</g>
<!-- Node3 -->
<g id="Node000003" class="node">
<title>Node3</title>
<g id="a_Node000003"><a xlink:href="app_8c.html#aba118053e440493cfe7584e9277f6d9d" target="_top" xlink:title=" ">
<polygon fill="white" stroke="#666666" points="690.62,-176.75 614.62,-176.75 614.62,-156 690.62,-156 690.62,-176.75"/>
<text text-anchor="middle" x="652.62" y="-163.25" font-family="Helvetica,sans-Serif" font-size="10.00">wasm_floorf</text>
</a>
</g>
</g>
<!-- Node1&#45;&gt;Node3 -->
<g id="edge3_Node000001_Node000003" class="edge">
<title>Node1&#45;&gt;Node3</title>
<g id="a_edge3_Node000001_Node000003"><a xlink:title=" ">
<path fill="none" stroke="#63b8ff" d="M744.59,-123.91C732.11,-131.19 717.02,-139.6 703,-146.38 696.34,-149.59 689.02,-152.75 682.1,-155.58"/>
<polygon fill="#63b8ff" stroke="#63b8ff" points="746.25,-127 753.07,-118.89 742.68,-120.97 746.25,-127"/>
</a>
</g>
</g>
<!-- Node4 -->
<g id="Node000004" class="node">
<title>Node4</title>
<g id="a_Node000004"><a xlink:href="app_8c.html#a7ad52f794c3884e1a06a83da94ddf34c" target="_top" xlink:title=" ">
<polygon fill="white" stroke="#666666" points="703,-137.75 602.25,-137.75 602.25,-117 703,-117 703,-137.75"/>
<text text-anchor="middle" x="652.62" y="-124.25" font-family="Helvetica,sans-Serif" font-size="10.00">wasm_nearbyintf</text>
</a>
</g>
</g>
<!-- Node1&#45;&gt;Node4 -->
<g id="edge4_Node000001_Node000004" class="edge">
<title>Node1&#45;&gt;Node4</title>
<g id="a_edge4_Node000001_Node000004"><a xlink:title=" ">
<path fill="none" stroke="#63b8ff" d="M727.46,-114.89C719.61,-116.21 711.39,-117.6 703.41,-118.95"/>
<polygon fill="#63b8ff" stroke="#63b8ff" points="727.85,-118.37 737.13,-113.25 726.69,-111.47 727.85,-118.37"/>
</a>
</g>
</g>
<!-- Node5 -->
<g id="Node000005" class="node">
<title>Node5</title>
<g id="a_Node000005"><a xlink:href="app_8c.html#a3a6ad40f478d9734736d33254017f626" target="_top" xlink:title=" ">
<polygon fill="white" stroke="#666666" points="692.12,-98.75 613.12,-98.75 613.12,-78 692.12,-78 692.12,-98.75"/>
<text text-anchor="middle" x="652.62" y="-85.25" font-family="Helvetica,sans-Serif" font-size="10.00">wasm_quietf</text>
</a>
</g>
</g>
<!-- Node1&#45;&gt;Node5 -->
<g id="edge5_Node000001_Node000005" class="edge">
<title>Node1&#45;&gt;Node5</title>
<g id="a_edge5_Node000001_Node000005"><a xlink:title=" ">
<path fill="none" stroke="#63b8ff" d="M727.46,-100.24C715.96,-98.39 703.67,-96.42 692.48,-94.62"/>
<polygon fill="#63b8ff" stroke="#63b8ff" points="726.7,-103.66 737.13,-101.79 727.81,-96.75 726.7,-103.66"/>
</a>
</g>
</g>
<!-- Node16 -->
<g id="Node000016" class="node">
<title>Node16</title>
<g id="a_Node000016"><a xlink:href="app_8c.html#ae93db85cabfeaaab53db16b2867234b4" target="_top" xlink:title=" ">
<polygon fill="white" stroke="#666666" points="689.12,-59.75 616.12,-59.75 616.12,-39 689.12,-39 689.12,-59.75"/>
<text text-anchor="middle" x="652.62" y="-46.25" font-family="Helvetica,sans-Serif" font-size="10.00">wasm_sqrtf</text>
</a>
</g>
</g>
<!-- Node1&#45;&gt;Node16 -->
<g id="edge20_Node000001_Node000016" class="edge">
<title>Node1&#45;&gt;Node16</title>
<g id="a_edge20_Node000001_Node000016"><a xlink:title=" ">
<path fill="none" stroke="#63b8ff" d="M744.03,-91.02C731.64,-84.01 716.77,-75.94 703,-69.38 696.32,-66.19 688.99,-63.05 682.08,-60.22"/>
<polygon fill="#63b8ff" stroke="#63b8ff" points="742.04,-93.92 752.46,-95.86 745.52,-87.84 742.04,-93.92"/>
</a>
</g>
</g>
<!-- Node17 -->
<g id="Node000017" class="node">
<title>Node17</title>
<g id="a_Node000017"><a xlink:href="app_8c.html#a7d5d53162e11e52b88cc0696f9961a14" target="_top" xlink:title=" ">
<polygon fill="white" stroke="#666666" points="692.12,-20.75 613.12,-20.75 613.12,0 692.12,0 692.12,-20.75"/>
<text text-anchor="middle" x="652.62" y="-7.25" font-family="Helvetica,sans-Serif" font-size="10.00">wasm_truncf</text>
</a>
</g>
</g>
<!-- Node1&#45;&gt;Node17 -->
<g id="edge21_Node000001_Node000017" class="edge">
<title>Node1&#45;&gt;Node17</title>
<g id="a_edge21_Node000001_Node000017"><a xlink:title=" ">
<path fill="none" stroke="#63b8ff" d="M758.09,-87.39C745.44,-70.31 725.32,-46.07 703,-30.38 697.93,-26.81 692.13,-23.74 686.34,-21.15"/>
<polygon fill="#63b8ff" stroke="#63b8ff" points="755.07,-89.19 763.75,-95.27 760.76,-85.11 755.07,-89.19"/>
</a>
</g>
</g>
<!-- Node6 -->
<g id="Node000006" class="node">
<title>Node6</title>
<g id="a_Node000006"><a xlink:href="app_8c.html#af672285e87aeca1cf90c96a240f9e9ad" target="_top" xlink:title=" ">
<polygon fill="white" stroke="#666666" points="566.25,-98.75 498.5,-98.75 498.5,-78 566.25,-78 566.25,-98.75"/>
<text text-anchor="middle" x="532.38" y="-85.25" font-family="Helvetica,sans-Serif" font-size="10.00">w2c__f399</text>
</a>
</g>
</g>
<!-- Node5&#45;&gt;Node6 -->
<g id="edge6_Node000005_Node000006" class="edge">
<title>Node5&#45;&gt;Node6</title>
<g id="a_edge6_Node000005_Node000006"><a xlink:title=" ">
<path fill="none" stroke="#63b8ff" d="M601.76,-88.38C589.9,-88.38 577.53,-88.38 566.62,-88.38"/>
<polygon fill="#63b8ff" stroke="#63b8ff" points="601.39,-91.88 611.39,-88.38 601.39,-84.88 601.39,-91.88"/>
</a>
</g>
</g>
<!-- Node7 -->
<g id="Node000007" class="node">
<title>Node7</title>
<g id="a_Node000007"><a xlink:href="app_8c.html#aac449994afd8488e2efd16fb19f0ecb1" target="_top" xlink:title=" ">
<polygon fill="white" stroke="#666666" points="358.75,-98.75 291,-98.75 291,-78 358.75,-78 358.75,-98.75"/>
<text text-anchor="middle" x="324.88" y="-85.25" font-family="Helvetica,sans-Serif" font-size="10.00">w2c__f336</text>
</a>
</g>
</g>
<!-- Node6&#45;&gt;Node7 -->
<g id="edge7_Node000006_Node000007" class="edge">
<title>Node6&#45;&gt;Node7</title>
<g id="a_edge7_Node000006_Node000007"><a xlink:title=" ">
<path fill="none" stroke="#63b8ff" d="M508.18,-105.51C495.41,-113.88 478.86,-123.07 462.5,-127.38 433.38,-135.05 423.87,-135.05 394.75,-127.38 374.02,-121.91 352.98,-108.63 339.7,-99.08"/>
<polygon fill="#63b8ff" stroke="#63b8ff" points="510.04,-108.48 516.3,-99.94 506.07,-102.71 510.04,-108.48"/>
</a>
</g>
</g>
<!-- Node13 -->
<g id="Node000013" class="node">
<title>Node13</title>
<g id="a_Node000013"><a xlink:href="app_8c.html#acc85a0c7c0cd1e3346bbdc70d6e7faa5" target="_top" xlink:title=" ">
<polygon fill="white" stroke="#666666" points="462.5,-118.75 394.75,-118.75 394.75,-98 462.5,-98 462.5,-118.75"/>
<text text-anchor="middle" x="428.62" y="-105.25" font-family="Helvetica,sans-Serif" font-size="10.00">w2c__f358</text>
</a>
</g>
</g>
<!-- Node6&#45;&gt;Node13 -->
<g id="edge13_Node000006_Node000013" class="edge">
<title>Node6&#45;&gt;Node13</title>
<g id="a_edge13_Node000006_Node000013"><a xlink:title=" ">
<path fill="none" stroke="#63b8ff" d="M486.82,-97.13C478.71,-98.73 470.38,-100.37 462.67,-101.88"/>
<polygon fill="#63b8ff" stroke="#63b8ff" points="487.44,-100.58 496.57,-95.22 486.09,-93.71 487.44,-100.58"/>
</a>
</g>
</g>
<!-- Node14 -->
<g id="Node000014" class="node">
<title>Node14</title>
<g id="a_Node000014"><a xlink:href="app_8c.html#ad6fb5664ded0c43a2c403b885bad7b30" target="_top" xlink:title=" ">
<polygon fill="white" stroke="#666666" points="462.5,-79.75 394.75,-79.75 394.75,-59 462.5,-59 462.5,-79.75"/>
<text text-anchor="middle" x="428.62" y="-66.25" font-family="Helvetica,sans-Serif" font-size="10.00">w2c__f400</text>
</a>
</g>
</g>
<!-- Node6&#45;&gt;Node14 -->
<g id="edge15_Node000006_Node000014" class="edge">
<title>Node6&#45;&gt;Node14</title>
<g id="a_edge15_Node000006_Node000014"><a xlink:title=" ">
<path fill="none" stroke="#63b8ff" d="M486.82,-80.06C478.71,-78.54 470.38,-76.98 462.67,-75.55"/>
<polygon fill="#63b8ff" stroke="#63b8ff" points="486.1,-83.48 496.57,-81.88 487.38,-76.6 486.1,-83.48"/>
</a>
</g>
</g>
<!-- Node15 -->
<g id="Node000015" class="node">
<title>Node15</title>
<g id="a_Node000015"><a xlink:href="app_8c.html#a27ec3034e861eede96fabd221dec28d1" target="_top" xlink:title=" ">
<polygon fill="white" stroke="#666666" points="462.5,-22.75 394.75,-22.75 394.75,-2 462.5,-2 462.5,-22.75"/>
<text text-anchor="middle" x="428.62" y="-9.25" font-family="Helvetica,sans-Serif" font-size="10.00">w2c__f554</text>
</a>
</g>
</g>
<!-- Node6&#45;&gt;Node15 -->
<g id="edge17_Node000006_Node000015" class="edge">
<title>Node6&#45;&gt;Node15</title>
<g id="a_edge17_Node000006_Node000015"><a xlink:title=" ">
<path fill="none" stroke="#63b8ff" d="M508.26,-71.11C488.5,-56.35 460.69,-35.58 443.98,-23.1"/>
<polygon fill="#63b8ff" stroke="#63b8ff" points="505.91,-73.72 516.01,-76.9 510.1,-68.11 505.91,-73.72"/>
</a>
</g>
</g>
<!-- Node8 -->
<g id="Node000008" class="node">
<title>Node8</title>
<g id="a_Node000008"><a xlink:href="app_8c.html#ac863989691d4c389f80374209c220171" target="_top" xlink:title=" ">
<polygon fill="white" stroke="#666666" points="252.38,-118.75 189.88,-118.75 189.88,-98 252.38,-98 252.38,-118.75"/>
<text text-anchor="middle" x="221.12" y="-105.25" font-family="Helvetica,sans-Serif" font-size="10.00">w2c__c_0</text>
</a>
</g>
</g>
<!-- Node7&#45;&gt;Node8 -->
<g id="edge8_Node000007_Node000008" class="edge">
<title>Node7&#45;&gt;Node8</title>
<g id="a_edge8_Node000007_Node000008"><a xlink:title=" ">
<path fill="none" stroke="#63b8ff" d="M279.4,-97.12C270.41,-98.88 261.15,-100.7 252.76,-102.35"/>
<polygon fill="#63b8ff" stroke="#63b8ff" points="279.94,-100.58 289.07,-95.22 278.59,-93.71 279.94,-100.58"/>
</a>
</g>
</g>
<!-- Node10 -->
<g id="Node000010" class="node">
<title>Node10</title>
<g id="a_Node000010"><a xlink:href="app_8c.html#a8f312e54d76623b1ae169d5d19736ee0" target="_top" xlink:title=" ">
<polygon fill="white" stroke="#666666" points="255,-79.75 187.25,-79.75 187.25,-59 255,-59 255,-79.75"/>
<text text-anchor="middle" x="221.12" y="-66.25" font-family="Helvetica,sans-Serif" font-size="10.00">w2c__f363</text>
</a>
</g>
</g>
<!-- Node7&#45;&gt;Node10 -->
<g id="edge10_Node000007_Node000010" class="edge">
<title>Node7&#45;&gt;Node10</title>
<g id="a_edge10_Node000007_Node000010"><a xlink:title=" ">
<path fill="none" stroke="#63b8ff" d="M279.32,-80.06C271.21,-78.54 262.88,-76.98 255.17,-75.55"/>
<polygon fill="#63b8ff" stroke="#63b8ff" points="278.6,-83.48 289.07,-81.88 279.88,-76.6 278.6,-83.48"/>
</a>
</g>
</g>
<!-- Node9 -->
<g id="Node000009" class="node">
<title>Node9</title>
<g id="a_Node000009"><a xlink:href="app_8c.html#ab1e039392ea68017ab8a6063263b147d" target="_top" xlink:title=" ">
<polygon fill="white" stroke="#666666" points="145.25,-118.75 94,-118.75 94,-98 145.25,-98 145.25,-118.75"/>
<text text-anchor="middle" x="119.62" y="-105.25" font-family="Helvetica,sans-Serif" font-size="10.00">w2c__c</text>
</a>
</g>
</g>
<!-- Node8&#45;&gt;Node9 -->
<g id="edge9_Node000008_Node000009" class="edge">
<title>Node8&#45;&gt;Node9</title>
<g id="a_edge9_Node000008_Node000009"><a xlink:title=" ">
<path fill="none" stroke="#63b8ff" d="M178.21,-108.38C167.15,-108.38 155.55,-108.38 145.68,-108.38"/>
<polygon fill="#63b8ff" stroke="#63b8ff" points="177.95,-111.88 187.95,-108.38 177.95,-104.88 177.95,-111.88"/>
</a>
</g>
</g>
<!-- Node11 -->
<g id="Node000011" class="node">
<title>Node11</title>
<g id="a_Node000011"><a xlink:href="app_8c.html#a26657f10c51f10eeb57a4d27606a6885" target="_top" xlink:title=" ">
<polygon fill="white" stroke="#666666" points="151.25,-79.75 88,-79.75 88,-59 151.25,-59 151.25,-79.75"/>
<text text-anchor="middle" x="119.62" y="-66.25" font-family="Helvetica,sans-Serif" font-size="10.00">w2c__b_0</text>
</a>
</g>
</g>
<!-- Node10&#45;&gt;Node11 -->
<g id="edge11_Node000010_Node000011" class="edge">
<title>Node10&#45;&gt;Node11</title>
<g id="a_edge11_Node000010_Node000011"><a xlink:title=" ">
<path fill="none" stroke="#63b8ff" d="M175.71,-69.38C167.57,-69.38 159.23,-69.38 151.59,-69.38"/>
<polygon fill="#63b8ff" stroke="#63b8ff" points="175.48,-72.88 185.48,-69.38 175.48,-65.88 175.48,-72.88"/>
</a>
</g>
</g>
<!-- Node12 -->
<g id="Node000012" class="node">
<title>Node12</title>
<g id="a_Node000012"><a xlink:href="app_8c.html#a683a2045346c3209e9dac20d55933c7d" target="_top" xlink:title=" ">
<polygon fill="white" stroke="#666666" points="52,-79.75 0,-79.75 0,-59 52,-59 52,-79.75"/>
<text text-anchor="middle" x="26" y="-66.25" font-family="Helvetica,sans-Serif" font-size="10.00">w2c__b</text>
</a>
</g>
</g>
<!-- Node11&#45;&gt;Node12 -->
<g id="edge12_Node000011_Node000012" class="edge">
<title>Node11&#45;&gt;Node12</title>
<g id="a_edge12_Node000011_Node000012"><a xlink:title=" ">
<path fill="none" stroke="#63b8ff" d="M76.21,-69.38C68,-69.38 59.65,-69.38 52.21,-69.38"/>
<polygon fill="#63b8ff" stroke="#63b8ff" points="76.09,-72.88 86.09,-69.38 76.09,-65.88 76.09,-72.88"/>
</a>
</g>
</g>
<!-- Node13&#45;&gt;Node7 -->
<g id="edge14_Node000013_Node000007" class="edge">
<title>Node13&#45;&gt;Node7</title>
<g id="a_edge14_Node000013_Node000007"><a xlink:title=" ">
<path fill="none" stroke="#63b8ff" d="M383.07,-99.62C374.96,-98.02 366.63,-96.38 358.92,-94.87"/>
<polygon fill="#63b8ff" stroke="#63b8ff" points="382.34,-103.04 392.82,-101.53 383.69,-96.17 382.34,-103.04"/>
</a>
</g>
</g>
<!-- Node14&#45;&gt;Node7 -->
<g id="edge16_Node000014_Node000007" class="edge">
<title>Node14&#45;&gt;Node7</title>
<g id="a_edge16_Node000014_Node000007"><a xlink:title=" ">
<path fill="none" stroke="#63b8ff" d="M383.07,-77.69C374.96,-79.21 366.63,-80.77 358.92,-82.2"/>
<polygon fill="#63b8ff" stroke="#63b8ff" points="383.63,-81.15 392.82,-75.87 382.35,-74.27 383.63,-81.15"/>
</a>
</g>
</g>
<!-- Node15&#45;&gt;Node7 -->
<g id="edge18_Node000015_Node000007" class="edge">
<title>Node15&#45;&gt;Node7</title>
<g id="a_edge18_Node000015_Node000007"><a xlink:title=" ">
<path fill="none" stroke="#63b8ff" d="M404.51,-29.64C384.75,-44.4 356.94,-65.17 340.23,-77.65"/>
<polygon fill="#63b8ff" stroke="#63b8ff" points="406.35,-32.64 412.26,-23.85 402.16,-27.03 406.35,-32.64"/>
</a>
</g>
</g>
<!-- Node15&#45;&gt;Node15 -->
<g id="edge19_Node000015_Node000015" class="edge">
<title>Node15&#45;&gt;Node15</title>
<g id="a_edge19_Node000015_Node000015"><a xlink:title=" ">
<path fill="none" stroke="#63b8ff" d="M446.66,-34.56C444.11,-38.23 438.1,-40.75 428.62,-40.75 410.79,-40.75 405.22,-31.81 411.91,-23.15"/>
<polygon fill="#63b8ff" stroke="#63b8ff" points="450.14,-34.18 445.52,-24.65 443.19,-34.99 450.14,-34.18"/>
</a>
</g>
</g>
</g>
</svg>
