<?xml version="1.0" encoding="UTF-8" standalone="no"?>
<!DOCTYPE svg PUBLIC "-//W3C//DTD SVG 1.1//EN"
 "http://www.w3.org/Graphics/SVG/1.1/DTD/svg11.dtd">
<!-- Generated by graphviz version 12.2.1 (0)
 -->
<!-- Title: w2c__f208 Pages: 1 -->
<svg width="387pt" height="302pt"
 viewBox="0.00 0.00 387.00 301.91" xmlns="http://www.w3.org/2000/svg" xmlns:xlink="http://www.w3.org/1999/xlink">
<g id="graph0" class="graph" transform="scale(1 1) rotate(0) translate(4 297.91)">
<title>w2c__f208</title>
<!-- Node1 -->
<g id="Node000001" class="node">
<title>Node1</title>
<g id="a_Node000001"><a xlink:title=" ">
<polygon fill="#999999" stroke="#666666" points="67.75,-151.75 0,-151.75 0,-131 67.75,-131 67.75,-151.75"/>
<text text-anchor="middle" x="33.88" y="-138.25" font-family="Helvetica,sans-Serif" font-size="10.00">w2c__f208</text>
</a>
</g>
</g>
<!-- Node1&#45;&gt;Node1 -->
<g id="edge1_Node000001_Node000001" class="edge">
<title>Node1&#45;&gt;Node1</title>
<g id="a_edge1_Node000001_Node000001"><a xlink:title=" ">
<path fill="none" stroke="#63b8ff" d="M17.16,-152.15C10.47,-160.81 16.04,-169.75 33.88,-169.75 43.35,-169.75 49.36,-167.23 51.91,-163.56"/>
<polygon fill="#63b8ff" stroke="#63b8ff" points="55.39,-163.18 50.77,-153.65 48.44,-163.99 55.39,-163.18"/>
</a>
</g>
</g>
<!-- Node2 -->
<g id="Node000002" class="node">
<title>Node2</title>
<g id="a_Node000002"><a xlink:href="app_8c.html#a34d18545510c7604d64db5651af2a253" target="_top" xlink:title=" ">
<polygon fill="white" stroke="#666666" points="379,-189.75 311.25,-189.75 311.25,-169 379,-169 379,-189.75"/>
<text text-anchor="middle" x="345.12" y="-176.25" font-family="Helvetica,sans-Serif" font-size="10.00">w2c__f332</text>
</a>
</g>
</g>
<!-- Node1&#45;&gt;Node2 -->
<g id="edge2_Node000001_Node000002" class="edge">
<title>Node1&#45;&gt;Node2</title>
<g id="a_edge2_Node000001_Node000002"><a xlink:title=" ">
<path fill="none" stroke="#63b8ff" d="M36.54,-151.88C41.35,-178.32 57.98,-247.44 103.75,-275.38 169.93,-315.77 208.11,-282.17 275.25,-243.38 295.65,-231.58 314.95,-212.74 327.9,-198.54"/>
<polygon fill="#63b8ff" stroke="#63b8ff" points="330.44,-200.95 334.44,-191.14 325.19,-196.32 330.44,-200.95"/>
</a>
</g>
</g>
<!-- Node3 -->
<g id="Node000003" class="node">
<title>Node3</title>
<g id="a_Node000003"><a xlink:href="app_8c.html#a6df2a3972e7986f80c1ba05486d1d190" target="_top" xlink:title=" ">
<polygon fill="white" stroke="#666666" points="171.5,-266.75 103.75,-266.75 103.75,-246 171.5,-246 171.5,-266.75"/>
<text text-anchor="middle" x="137.62" y="-253.25" font-family="Helvetica,sans-Serif" font-size="10.00">w2c__f360</text>
</a>
</g>
</g>
<!-- Node1&#45;&gt;Node3 -->
<g id="edge3_Node000001_Node000003" class="edge">
<title>Node1&#45;&gt;Node3</title>
<g id="a_edge3_Node000001_Node000003"><a xlink:title=" ">
<path fill="none" stroke="#63b8ff" d="M40.74,-152.13C51.39,-170.93 75.45,-210.27 103.75,-236.38 104.66,-237.21 105.61,-238.03 106.59,-238.84"/>
<polygon fill="#63b8ff" stroke="#63b8ff" points="104.51,-241.66 114.68,-244.62 108.58,-235.96 104.51,-241.66"/>
</a>
</g>
</g>
<!-- Node4 -->
<g id="Node000004" class="node">
<title>Node4</title>
<g id="a_Node000004"><a xlink:href="app_8c.html#af5a84f1aaefefdd67da679c5f4ece22d" target="_top" xlink:title=" ">
<polygon fill="white" stroke="#666666" points="275.25,-189.75 207.5,-189.75 207.5,-169 275.25,-169 275.25,-189.75"/>
<text text-anchor="middle" x="241.38" y="-176.25" font-family="Helvetica,sans-Serif" font-size="10.00">w2c__f370</text>
</a>
</g>
</g>
<!-- Node1&#45;&gt;Node4 -->
<g id="edge7_Node000001_Node000004" class="edge">
<title>Node1&#45;&gt;Node4</title>
<g id="a_edge7_Node000001_Node000004"><a xlink:title=" ">
<path fill="none" stroke="#63b8ff" d="M67.94,-151.44C79.22,-154.62 91.97,-157.94 103.75,-160.38 134.19,-166.66 168.88,-171.46 195.69,-174.66"/>
<polygon fill="#63b8ff" stroke="#63b8ff" points="195.2,-178.12 205.53,-175.8 196,-171.17 195.2,-178.12"/>
</a>
</g>
</g>
<!-- Node5 -->
<g id="Node000005" class="node">
<title>Node5</title>
<g id="a_Node000005"><a xlink:href="app_8c.html#a74b0a4e082d67428fd16ab43df670993" target="_top" xlink:title=" ">
<polygon fill="white" stroke="#666666" points="171.5,-227.75 103.75,-227.75 103.75,-207 171.5,-207 171.5,-227.75"/>
<text text-anchor="middle" x="137.62" y="-214.25" font-family="Helvetica,sans-Serif" font-size="10.00">w2c__f380</text>
</a>
</g>
</g>
<!-- Node1&#45;&gt;Node5 -->
<g id="edge8_Node000001_Node000005" class="edge">
<title>Node1&#45;&gt;Node5</title>
<g id="a_edge8_Node000001_Node000005"><a xlink:title=" ">
<path fill="none" stroke="#63b8ff" d="M49.07,-152.2C62.96,-162.76 84.74,-179.26 103.75,-193.38 106.61,-195.5 109.61,-197.71 112.6,-199.9"/>
<polygon fill="#63b8ff" stroke="#63b8ff" points="110.5,-202.7 120.64,-205.78 114.63,-197.05 110.5,-202.7"/>
</a>
</g>
</g>
<!-- Node6 -->
<g id="Node000006" class="node">
<title>Node6</title>
<g id="a_Node000006"><a xlink:href="app_8c.html#a9acbf29d5eb6c67c955f22a681da8d7e" target="_top" xlink:title=" ">
<polygon fill="white" stroke="#666666" points="171.5,-151.75 103.75,-151.75 103.75,-131 171.5,-131 171.5,-151.75"/>
<text text-anchor="middle" x="137.62" y="-138.25" font-family="Helvetica,sans-Serif" font-size="10.00">w2c__f394</text>
</a>
</g>
</g>
<!-- Node1&#45;&gt;Node6 -->
<g id="edge11_Node000001_Node000006" class="edge">
<title>Node1&#45;&gt;Node6</title>
<g id="a_edge11_Node000001_Node000006"><a xlink:title=" ">
<path fill="none" stroke="#63b8ff" d="M68.19,-141.38C75.82,-141.38 84.06,-141.38 92.08,-141.38"/>
<polygon fill="#63b8ff" stroke="#63b8ff" points="92.07,-144.88 102.07,-141.38 92.07,-137.88 92.07,-144.88"/>
</a>
</g>
</g>
<!-- Node7 -->
<g id="Node000007" class="node">
<title>Node7</title>
<g id="a_Node000007"><a xlink:href="app_8c.html#aa61e8a83e8401cf272e1b3b877d56cf0" target="_top" xlink:title=" ">
<polygon fill="white" stroke="#666666" points="171.5,-55.75 103.75,-55.75 103.75,-35 171.5,-35 171.5,-55.75"/>
<text text-anchor="middle" x="137.62" y="-42.25" font-family="Helvetica,sans-Serif" font-size="10.00">w2c__f451</text>
</a>
</g>
</g>
<!-- Node1&#45;&gt;Node7 -->
<g id="edge14_Node000001_Node000007" class="edge">
<title>Node1&#45;&gt;Node7</title>
<g id="a_edge14_Node000001_Node000007"><a xlink:title=" ">
<path fill="none" stroke="#63b8ff" d="M39.38,-130.6C48.65,-114.51 71.06,-85.73 95.65,-63.41"/>
<polygon fill="#63b8ff" stroke="#63b8ff" points="97.66,-66.31 102.92,-57.11 93.07,-61.02 97.66,-66.31"/>
</a>
</g>
</g>
<!-- Node8 -->
<g id="Node000008" class="node">
<title>Node8</title>
<g id="a_Node000008"><a xlink:href="app_8c.html#a0e0dad0ebc52e45eeff2e1b5d8389ea4" target="_top" xlink:title=" ">
<polygon fill="white" stroke="#666666" points="275.25,-20.75 207.5,-20.75 207.5,0 275.25,0 275.25,-20.75"/>
<text text-anchor="middle" x="241.38" y="-7.25" font-family="Helvetica,sans-Serif" font-size="10.00">w2c__f534</text>
</a>
</g>
</g>
<!-- Node1&#45;&gt;Node8 -->
<g id="edge23_Node000001_Node000008" class="edge">
<title>Node1&#45;&gt;Node8</title>
<g id="a_edge23_Node000001_Node000008"><a xlink:title=" ">
<path fill="none" stroke="#63b8ff" d="M37.81,-130.55C44.81,-107.06 64.86,-51.52 103.75,-26.38 130.81,-8.88 167.29,-5.38 195.75,-5.99"/>
<polygon fill="#63b8ff" stroke="#63b8ff" points="195.37,-9.47 205.5,-6.38 195.65,-2.48 195.37,-9.47"/>
</a>
</g>
</g>
<!-- Node9 -->
<g id="Node000009" class="node">
<title>Node9</title>
<g id="a_Node000009"><a xlink:href="app_8c.html#a570d350db1669791e77d257c294e013f" target="_top" xlink:title=" ">
<polygon fill="white" stroke="#666666" points="171.5,-94.75 103.75,-94.75 103.75,-74 171.5,-74 171.5,-94.75"/>
<text text-anchor="middle" x="137.62" y="-81.25" font-family="Helvetica,sans-Serif" font-size="10.00">w2c__f484</text>
</a>
</g>
</g>
<!-- Node1&#45;&gt;Node9 -->
<g id="edge19_Node000001_Node000009" class="edge">
<title>Node1&#45;&gt;Node9</title>
<g id="a_edge19_Node000001_Node000009"><a xlink:title=" ">
<path fill="none" stroke="#63b8ff" d="M54.01,-130.65C69.12,-122.19 90.45,-110.24 107.65,-100.6"/>
<polygon fill="#63b8ff" stroke="#63b8ff" points="108.89,-103.92 115.91,-95.98 105.47,-97.82 108.89,-103.92"/>
</a>
</g>
</g>
<!-- Node3&#45;&gt;Node2 -->
<g id="edge4_Node000003_Node000002" class="edge">
<title>Node3&#45;&gt;Node2</title>
<g id="a_edge4_Node000003_Node000002"><a xlink:title=" ">
<path fill="none" stroke="#63b8ff" d="M171.95,-249.5C200.1,-243.14 241.14,-232.53 275.25,-218.38 289.93,-212.29 305.39,-203.74 317.95,-196.2"/>
<polygon fill="#63b8ff" stroke="#63b8ff" points="319.76,-199.2 326.43,-190.97 316.08,-193.24 319.76,-199.2"/>
</a>
</g>
</g>
<!-- Node3&#45;&gt;Node4 -->
<g id="edge5_Node000003_Node000004" class="edge">
<title>Node3&#45;&gt;Node4</title>
<g id="a_edge5_Node000003_Node000004"><a xlink:title=" ">
<path fill="none" stroke="#63b8ff" d="M157.36,-245.62C162.06,-242.75 167.04,-239.55 171.5,-236.38 188.55,-224.23 206.75,-209.06 220.16,-197.42"/>
<polygon fill="#63b8ff" stroke="#63b8ff" points="222.26,-200.24 227.47,-191.01 217.64,-194.98 222.26,-200.24"/>
</a>
</g>
</g>
<!-- Node4&#45;&gt;Node2 -->
<g id="edge6_Node000004_Node000002" class="edge">
<title>Node4&#45;&gt;Node2</title>
<g id="a_edge6_Node000004_Node000002"><a xlink:title=" ">
<path fill="none" stroke="#63b8ff" d="M275.69,-179.38C283.32,-179.38 291.56,-179.38 299.58,-179.38"/>
<polygon fill="#63b8ff" stroke="#63b8ff" points="299.57,-182.88 309.57,-179.38 299.57,-175.88 299.57,-182.88"/>
</a>
</g>
</g>
<!-- Node5&#45;&gt;Node2 -->
<g id="edge9_Node000005_Node000002" class="edge">
<title>Node5&#45;&gt;Node2</title>
<g id="a_edge9_Node000005_Node000002"><a xlink:title=" ">
<path fill="none" stroke="#63b8ff" d="M171.96,-213.97C199.76,-210.84 240.31,-205.59 275.25,-198.38 283.35,-196.7 291.91,-194.61 300.13,-192.43"/>
<polygon fill="#63b8ff" stroke="#63b8ff" points="300.88,-195.86 309.6,-189.84 299.03,-189.11 300.88,-195.86"/>
</a>
</g>
</g>
<!-- Node5&#45;&gt;Node4 -->
<g id="edge10_Node000005_Node000004" class="edge">
<title>Node5&#45;&gt;Node4</title>
<g id="a_edge10_Node000005_Node000004"><a xlink:title=" ">
<path fill="none" stroke="#63b8ff" d="M167.51,-206.59C177.82,-202.74 189.63,-198.33 200.69,-194.2"/>
<polygon fill="#63b8ff" stroke="#63b8ff" points="201.86,-197.5 210,-190.72 199.41,-190.94 201.86,-197.5"/>
</a>
</g>
</g>
<!-- Node6&#45;&gt;Node2 -->
<g id="edge12_Node000006_Node000002" class="edge">
<title>Node6&#45;&gt;Node2</title>
<g id="a_edge12_Node000006_Node000002"><a xlink:title=" ">
<path fill="none" stroke="#63b8ff" d="M171.96,-144.78C199.76,-147.91 240.31,-153.16 275.25,-160.38 283.35,-162.05 291.91,-164.14 300.13,-166.32"/>
<polygon fill="#63b8ff" stroke="#63b8ff" points="299.03,-169.64 309.6,-168.91 300.88,-162.89 299.03,-169.64"/>
</a>
</g>
</g>
<!-- Node6&#45;&gt;Node4 -->
<g id="edge13_Node000006_Node000004" class="edge">
<title>Node6&#45;&gt;Node4</title>
<g id="a_edge13_Node000006_Node000004"><a xlink:title=" ">
<path fill="none" stroke="#63b8ff" d="M167.51,-152.16C177.82,-156.01 189.63,-160.42 200.69,-164.55"/>
<polygon fill="#63b8ff" stroke="#63b8ff" points="199.41,-167.81 210,-168.03 201.86,-161.25 199.41,-167.81"/>
</a>
</g>
</g>
<!-- Node7&#45;&gt;Node1 -->
<g id="edge15_Node000007_Node000001" class="edge">
<title>Node7&#45;&gt;Node1</title>
<g id="a_edge15_Node000007_Node000001"><a xlink:title=" ">
<path fill="none" stroke="#63b8ff" d="M129.17,-56.07C122.23,-61.76 111.78,-67.74 103.75,-74.38 86.02,-89.03 68.64,-108.25 55.78,-122.53"/>
<polygon fill="#63b8ff" stroke="#63b8ff" points="53.51,-119.82 49.41,-129.58 58.71,-124.51 53.51,-119.82"/>
</a>
</g>
</g>
<!-- Node7&#45;&gt;Node2 -->
<g id="edge16_Node000007_Node000002" class="edge">
<title>Node7&#45;&gt;Node2</title>
<g id="a_edge16_Node000007_Node000002"><a xlink:title=" ">
<path fill="none" stroke="#63b8ff" d="M168.73,-56.23C197.54,-67.4 241.46,-86.5 275.25,-110.38 295.63,-124.77 315.37,-145.47 328.46,-160.43"/>
<polygon fill="#63b8ff" stroke="#63b8ff" points="325.55,-162.42 334.71,-167.75 330.88,-157.88 325.55,-162.42"/>
</a>
</g>
</g>
<!-- Node7&#45;&gt;Node4 -->
<g id="edge17_Node000007_Node000004" class="edge">
<title>Node7&#45;&gt;Node4</title>
<g id="a_edge17_Node000007_Node000004"><a xlink:title=" ">
<path fill="none" stroke="#63b8ff" d="M159.9,-56.24C164.02,-58.9 168.1,-61.97 171.5,-65.38 199.12,-93.08 220.32,-133.97 231.52,-158.5"/>
<polygon fill="#63b8ff" stroke="#63b8ff" points="228.22,-159.7 235.46,-167.43 234.62,-156.87 228.22,-159.7"/>
</a>
</g>
</g>
<!-- Node7&#45;&gt;Node8 -->
<g id="edge18_Node000007_Node000008" class="edge">
<title>Node7&#45;&gt;Node8</title>
<g id="a_edge18_Node000007_Node000008"><a xlink:title=" ">
<path fill="none" stroke="#63b8ff" d="M169.98,-34.59C178.88,-31.53 188.72,-28.14 198.15,-24.9"/>
<polygon fill="#63b8ff" stroke="#63b8ff" points="199.2,-28.24 207.51,-21.68 196.92,-21.62 199.2,-28.24"/>
</a>
</g>
</g>
<!-- Node9&#45;&gt;Node2 -->
<g id="edge20_Node000009_Node000002" class="edge">
<title>Node9&#45;&gt;Node2</title>
<g id="a_edge20_Node000009_Node000002"><a xlink:title=" ">
<path fill="none" stroke="#63b8ff" d="M163.44,-95.11C190.91,-107.08 236.46,-127.15 275.25,-145.38 287.54,-151.15 300.95,-157.71 312.64,-163.52"/>
<polygon fill="#63b8ff" stroke="#63b8ff" points="310.96,-166.59 321.47,-167.92 314.08,-160.32 310.96,-166.59"/>
</a>
</g>
</g>
<!-- Node9&#45;&gt;Node4 -->
<g id="edge21_Node000009_Node000004" class="edge">
<title>Node9&#45;&gt;Node4</title>
<g id="a_edge21_Node000009_Node000004"><a xlink:title=" ">
<path fill="none" stroke="#63b8ff" d="M149.9,-94.9C166.93,-110.8 199.43,-141.14 220.49,-160.81"/>
<polygon fill="#63b8ff" stroke="#63b8ff" points="217.93,-163.21 227.63,-167.47 222.71,-158.09 217.93,-163.21"/>
</a>
</g>
</g>
<!-- Node9&#45;&gt;Node9 -->
<g id="edge22_Node000009_Node000009" class="edge">
<title>Node9&#45;&gt;Node9</title>
<g id="a_edge22_Node000009_Node000009"><a xlink:title=" ">
<path fill="none" stroke="#63b8ff" d="M120.91,-95.15C114.22,-103.81 119.79,-112.75 137.62,-112.75 147.1,-112.75 153.11,-110.23 155.66,-106.56"/>
<polygon fill="#63b8ff" stroke="#63b8ff" points="159.14,-106.18 154.52,-96.65 152.19,-106.99 159.14,-106.18"/>
</a>
</g>
</g>
</g>
</svg>
