<?xml version="1.0" encoding="UTF-8" standalone="no"?>
<!DOCTYPE svg PUBLIC "-//W3C//DTD SVG 1.1//EN"
 "http://www.w3.org/Graphics/SVG/1.1/DTD/svg11.dtd">
<!-- Generated by graphviz version 12.2.1 (0)
 -->
<!-- Title: w2c__f458 Pages: 1 -->
<svg width="678pt" height="302pt"
 viewBox="0.00 0.00 678.00 302.23" xmlns="http://www.w3.org/2000/svg" xmlns:xlink="http://www.w3.org/1999/xlink">
<g id="graph0" class="graph" transform="scale(1 1) rotate(0) translate(4 298.23)">
<title>w2c__f458</title>
<!-- Node1 -->
<g id="Node000001" class="node">
<title>Node1</title>
<g id="a_Node000001"><a xlink:title=" ">
<polygon fill="#999999" stroke="#666666" points="670,-80.23 602.25,-80.23 602.25,-59.48 670,-59.48 670,-80.23"/>
<text text-anchor="middle" x="636.12" y="-66.73" font-family="Helvetica,sans-Serif" font-size="10.00">w2c__f458</text>
</a>
</g>
</g>
<!-- Node2 -->
<g id="Node000002" class="node">
<title>Node2</title>
<g id="a_Node000002"><a xlink:href="app_8c.html#a9f7c6b96be6e0c0613ec652af07545e6" target="_top" xlink:title=" ">
<polygon fill="white" stroke="#666666" points="566.25,-119.23 498.5,-119.23 498.5,-98.48 566.25,-98.48 566.25,-119.23"/>
<text text-anchor="middle" x="532.38" y="-105.73" font-family="Helvetica,sans-Serif" font-size="10.00">w2c__f212</text>
</a>
</g>
</g>
<!-- Node1&#45;&gt;Node2 -->
<g id="edge1_Node000001_Node000002" class="edge">
<title>Node1&#45;&gt;Node2</title>
<g id="a_edge1_Node000001_Node000002"><a xlink:title=" ">
<path fill="none" stroke="#63b8ff" d="M596.1,-84.81C584.6,-89.22 572.24,-93.96 561.57,-98.05"/>
<polygon fill="#63b8ff" stroke="#63b8ff" points="597.28,-88.11 605.37,-81.26 594.78,-81.57 597.28,-88.11"/>
</a>
</g>
</g>
<!-- Node6 -->
<g id="Node000006" class="node">
<title>Node6</title>
<g id="a_Node000006"><a xlink:href="app_8c.html#aac449994afd8488e2efd16fb19f0ecb1" target="_top" xlink:title=" ">
<polygon fill="white" stroke="#666666" points="358.75,-43.23 291,-43.23 291,-22.48 358.75,-22.48 358.75,-43.23"/>
<text text-anchor="middle" x="324.88" y="-29.73" font-family="Helvetica,sans-Serif" font-size="10.00">w2c__f336</text>
</a>
</g>
</g>
<!-- Node1&#45;&gt;Node6 -->
<g id="edge13_Node000001_Node000006" class="edge">
<title>Node1&#45;&gt;Node6</title>
<g id="a_edge13_Node000001_Node000006"><a xlink:title=" ">
<path fill="none" stroke="#63b8ff" d="M619.29,-51.12C606.54,-37.6 587.33,-20.45 566.25,-12.85 494.94,12.83 404.3,-7.8 357.32,-22.1"/>
<polygon fill="#63b8ff" stroke="#63b8ff" points="616.38,-53.13 625.67,-58.22 621.58,-48.44 616.38,-53.13"/>
</a>
</g>
</g>
<!-- Node13 -->
<g id="Node000013" class="node">
<title>Node13</title>
<g id="a_Node000013"><a xlink:href="app_8c.html#a8ad87ce860af4a130d317ecf8d885d2c" target="_top" xlink:title=" ">
<polygon fill="white" stroke="#666666" points="566.25,-42.23 498.5,-42.23 498.5,-21.48 566.25,-21.48 566.25,-42.23"/>
<text text-anchor="middle" x="532.38" y="-28.73" font-family="Helvetica,sans-Serif" font-size="10.00">w2c__f457</text>
</a>
</g>
</g>
<!-- Node1&#45;&gt;Node13 -->
<g id="edge14_Node000001_Node000013" class="edge">
<title>Node1&#45;&gt;Node13</title>
<g id="a_edge14_Node000001_Node000013"><a xlink:title=" ">
<path fill="none" stroke="#63b8ff" d="M595.51,-55.06C584.46,-50.93 572.65,-46.52 562.33,-42.67"/>
<polygon fill="#63b8ff" stroke="#63b8ff" points="594.23,-58.32 604.82,-58.54 596.68,-51.76 594.23,-58.32"/>
</a>
</g>
</g>
<!-- Node14 -->
<g id="Node000014" class="node">
<title>Node14</title>
<g id="a_Node000014"><a xlink:href="app_8c.html#a25b43587c2e4a3802eb8256f469ef5ab" target="_top" xlink:title=" ">
<polygon fill="white" stroke="#666666" points="566.25,-216.23 498.5,-216.23 498.5,-195.48 566.25,-195.48 566.25,-216.23"/>
<text text-anchor="middle" x="532.38" y="-202.73" font-family="Helvetica,sans-Serif" font-size="10.00">w2c__f531</text>
</a>
</g>
</g>
<!-- Node1&#45;&gt;Node14 -->
<g id="edge16_Node000001_Node000014" class="edge">
<title>Node1&#45;&gt;Node14</title>
<g id="a_edge16_Node000001_Node000014"><a xlink:title=" ">
<path fill="none" stroke="#63b8ff" d="M620.51,-89.38C598.71,-118.53 558.38,-172.44 541.32,-195.23"/>
<polygon fill="#63b8ff" stroke="#63b8ff" points="623.05,-91.84 626.23,-81.74 617.44,-87.65 623.05,-91.84"/>
</a>
</g>
</g>
<!-- Node3 -->
<g id="Node000003" class="node">
<title>Node3</title>
<g id="a_Node000003"><a xlink:href="app_8c.html#a9a9275782eb97e6525073f99d900b184" target="_top" xlink:title=" ">
<polygon fill="white" stroke="#666666" points="462.5,-177.23 394.75,-177.23 394.75,-156.48 462.5,-156.48 462.5,-177.23"/>
<text text-anchor="middle" x="428.62" y="-163.73" font-family="Helvetica,sans-Serif" font-size="10.00">w2c__f217</text>
</a>
</g>
</g>
<!-- Node2&#45;&gt;Node3 -->
<g id="edge2_Node000002_Node000003" class="edge">
<title>Node2&#45;&gt;Node3</title>
<g id="a_edge2_Node000002_Node000003"><a xlink:title=" ">
<path fill="none" stroke="#63b8ff" d="M503.06,-125C485.65,-134.92 463.83,-147.36 448.51,-156.09"/>
<polygon fill="#63b8ff" stroke="#63b8ff" points="504.44,-128.23 511.4,-120.24 500.98,-122.15 504.44,-128.23"/>
</a>
</g>
</g>
<!-- Node4 -->
<g id="Node000004" class="node">
<title>Node4</title>
<g id="a_Node000004"><a xlink:href="app_8c.html#a0b804502e637fa2897681579fae890af" target="_top" xlink:title=" ">
<polygon fill="white" stroke="#666666" points="462.5,-216.23 394.75,-216.23 394.75,-195.48 462.5,-195.48 462.5,-216.23"/>
<text text-anchor="middle" x="428.62" y="-202.73" font-family="Helvetica,sans-Serif" font-size="10.00">w2c__f233</text>
</a>
</g>
</g>
<!-- Node2&#45;&gt;Node4 -->
<g id="edge3_Node000002_Node000004" class="edge">
<title>Node2&#45;&gt;Node4</title>
<g id="a_edge3_Node000002_Node000004"><a xlink:title=" ">
<path fill="none" stroke="#63b8ff" d="M516.49,-128.52C503.4,-145.02 483.25,-168.6 462.5,-185.85 458.49,-189.19 453.88,-192.34 449.39,-195.13"/>
<polygon fill="#63b8ff" stroke="#63b8ff" points="519.03,-130.96 522.4,-120.92 513.5,-126.67 519.03,-130.96"/>
</a>
</g>
</g>
<!-- Node5 -->
<g id="Node000005" class="node">
<title>Node5</title>
<g id="a_Node000005"><a xlink:href="app_8c.html#ad6ca5e0c47ccb4e49eb279d54c79b6ae" target="_top" xlink:title=" ">
<polygon fill="white" stroke="#666666" points="462.5,-138.23 394.75,-138.23 394.75,-117.48 462.5,-117.48 462.5,-138.23"/>
<text text-anchor="middle" x="428.62" y="-124.73" font-family="Helvetica,sans-Serif" font-size="10.00">w2c__f261</text>
</a>
</g>
</g>
<!-- Node2&#45;&gt;Node5 -->
<g id="edge4_Node000002_Node000005" class="edge">
<title>Node2&#45;&gt;Node5</title>
<g id="a_edge4_Node000002_Node000005"><a xlink:title=" ">
<path fill="none" stroke="#63b8ff" d="M486.82,-117.17C478.71,-118.69 470.38,-120.24 462.67,-121.68"/>
<polygon fill="#63b8ff" stroke="#63b8ff" points="487.38,-120.63 496.57,-115.35 486.1,-113.75 487.38,-120.63"/>
</a>
</g>
</g>
<!-- Node2&#45;&gt;Node6 -->
<g id="edge5_Node000002_Node000006" class="edge">
<title>Node2&#45;&gt;Node6</title>
<g id="a_edge5_Node000002_Node000006"><a xlink:title=" ">
<path fill="none" stroke="#63b8ff" d="M486.98,-99.28C459.82,-92.75 424.67,-83.07 394.75,-70.85 376.29,-63.32 356.48,-52.02 342.87,-43.7"/>
<polygon fill="#63b8ff" stroke="#63b8ff" points="486.08,-102.67 496.61,-101.54 487.67,-95.85 486.08,-102.67"/>
</a>
</g>
</g>
<!-- Node12 -->
<g id="Node000012" class="node">
<title>Node12</title>
<g id="a_Node000012"><a xlink:href="app_8c.html#aa3f7fb2ace6a87e61320ef7401dfd66f" target="_top" xlink:title=" ">
<polygon fill="white" stroke="#666666" points="462.5,-62.23 394.75,-62.23 394.75,-41.48 462.5,-41.48 462.5,-62.23"/>
<text text-anchor="middle" x="428.62" y="-48.73" font-family="Helvetica,sans-Serif" font-size="10.00">w2c__f489</text>
</a>
</g>
</g>
<!-- Node2&#45;&gt;Node12 -->
<g id="edge11_Node000002_Node000012" class="edge">
<title>Node2&#45;&gt;Node12</title>
<g id="a_edge11_Node000002_Node000012"><a xlink:title=" ">
<path fill="none" stroke="#63b8ff" d="M502.22,-92.52C485.15,-82.96 464.06,-71.15 449.02,-62.72"/>
<polygon fill="#63b8ff" stroke="#63b8ff" points="500.48,-95.56 510.92,-97.39 503.9,-89.45 500.48,-95.56"/>
</a>
</g>
</g>
<!-- Node7 -->
<g id="Node000007" class="node">
<title>Node7</title>
<g id="a_Node000007"><a xlink:href="app_8c.html#ac863989691d4c389f80374209c220171" target="_top" xlink:title=" ">
<polygon fill="white" stroke="#666666" points="252.38,-63.23 189.88,-63.23 189.88,-42.48 252.38,-42.48 252.38,-63.23"/>
<text text-anchor="middle" x="221.12" y="-49.73" font-family="Helvetica,sans-Serif" font-size="10.00">w2c__c_0</text>
</a>
</g>
</g>
<!-- Node6&#45;&gt;Node7 -->
<g id="edge6_Node000006_Node000007" class="edge">
<title>Node6&#45;&gt;Node7</title>
<g id="a_edge6_Node000006_Node000007"><a xlink:title=" ">
<path fill="none" stroke="#63b8ff" d="M279.4,-41.6C270.41,-43.36 261.15,-45.18 252.76,-46.83"/>
<polygon fill="#63b8ff" stroke="#63b8ff" points="279.94,-45.06 289.07,-39.69 278.59,-38.19 279.94,-45.06"/>
</a>
</g>
</g>
<!-- Node9 -->
<g id="Node000009" class="node">
<title>Node9</title>
<g id="a_Node000009"><a xlink:href="app_8c.html#a8f312e54d76623b1ae169d5d19736ee0" target="_top" xlink:title=" ">
<polygon fill="white" stroke="#666666" points="255,-24.23 187.25,-24.23 187.25,-3.48 255,-3.48 255,-24.23"/>
<text text-anchor="middle" x="221.12" y="-10.73" font-family="Helvetica,sans-Serif" font-size="10.00">w2c__f363</text>
</a>
</g>
</g>
<!-- Node6&#45;&gt;Node9 -->
<g id="edge8_Node000006_Node000009" class="edge">
<title>Node6&#45;&gt;Node9</title>
<g id="a_edge8_Node000006_Node000009"><a xlink:title=" ">
<path fill="none" stroke="#63b8ff" d="M279.32,-24.53C271.21,-23.02 262.88,-21.46 255.17,-20.02"/>
<polygon fill="#63b8ff" stroke="#63b8ff" points="278.6,-27.96 289.07,-26.35 279.88,-21.08 278.6,-27.96"/>
</a>
</g>
</g>
<!-- Node8 -->
<g id="Node000008" class="node">
<title>Node8</title>
<g id="a_Node000008"><a xlink:href="app_8c.html#ab1e039392ea68017ab8a6063263b147d" target="_top" xlink:title=" ">
<polygon fill="white" stroke="#666666" points="145.25,-63.23 94,-63.23 94,-42.48 145.25,-42.48 145.25,-63.23"/>
<text text-anchor="middle" x="119.62" y="-49.73" font-family="Helvetica,sans-Serif" font-size="10.00">w2c__c</text>
</a>
</g>
</g>
<!-- Node7&#45;&gt;Node8 -->
<g id="edge7_Node000007_Node000008" class="edge">
<title>Node7&#45;&gt;Node8</title>
<g id="a_edge7_Node000007_Node000008"><a xlink:title=" ">
<path fill="none" stroke="#63b8ff" d="M178.21,-52.85C167.15,-52.85 155.55,-52.85 145.68,-52.85"/>
<polygon fill="#63b8ff" stroke="#63b8ff" points="177.95,-56.35 187.95,-52.85 177.95,-49.35 177.95,-56.35"/>
</a>
</g>
</g>
<!-- Node10 -->
<g id="Node000010" class="node">
<title>Node10</title>
<g id="a_Node000010"><a xlink:href="app_8c.html#a26657f10c51f10eeb57a4d27606a6885" target="_top" xlink:title=" ">
<polygon fill="white" stroke="#666666" points="151.25,-24.23 88,-24.23 88,-3.48 151.25,-3.48 151.25,-24.23"/>
<text text-anchor="middle" x="119.62" y="-10.73" font-family="Helvetica,sans-Serif" font-size="10.00">w2c__b_0</text>
</a>
</g>
</g>
<!-- Node9&#45;&gt;Node10 -->
<g id="edge9_Node000009_Node000010" class="edge">
<title>Node9&#45;&gt;Node10</title>
<g id="a_edge9_Node000009_Node000010"><a xlink:title=" ">
<path fill="none" stroke="#63b8ff" d="M175.71,-13.85C167.57,-13.85 159.23,-13.85 151.59,-13.85"/>
<polygon fill="#63b8ff" stroke="#63b8ff" points="175.48,-17.35 185.48,-13.85 175.48,-10.35 175.48,-17.35"/>
</a>
</g>
</g>
<!-- Node11 -->
<g id="Node000011" class="node">
<title>Node11</title>
<g id="a_Node000011"><a xlink:href="app_8c.html#a683a2045346c3209e9dac20d55933c7d" target="_top" xlink:title=" ">
<polygon fill="white" stroke="#666666" points="52,-24.23 0,-24.23 0,-3.48 52,-3.48 52,-24.23"/>
<text text-anchor="middle" x="26" y="-10.73" font-family="Helvetica,sans-Serif" font-size="10.00">w2c__b</text>
</a>
</g>
</g>
<!-- Node10&#45;&gt;Node11 -->
<g id="edge10_Node000010_Node000011" class="edge">
<title>Node10&#45;&gt;Node11</title>
<g id="a_edge10_Node000010_Node000011"><a xlink:title=" ">
<path fill="none" stroke="#63b8ff" d="M76.21,-13.85C68,-13.85 59.65,-13.85 52.21,-13.85"/>
<polygon fill="#63b8ff" stroke="#63b8ff" points="76.09,-17.35 86.09,-13.85 76.09,-10.35 76.09,-17.35"/>
</a>
</g>
</g>
<!-- Node12&#45;&gt;Node6 -->
<g id="edge12_Node000012_Node000006" class="edge">
<title>Node12&#45;&gt;Node6</title>
<g id="a_edge12_Node000012_Node000006"><a xlink:title=" ">
<path fill="none" stroke="#63b8ff" d="M383.07,-43.53C374.96,-42.02 366.63,-40.46 358.92,-39.02"/>
<polygon fill="#63b8ff" stroke="#63b8ff" points="382.35,-46.96 392.82,-45.35 383.63,-40.08 382.35,-46.96"/>
</a>
</g>
</g>
<!-- Node13&#45;&gt;Node6 -->
<g id="edge15_Node000013_Node000006" class="edge">
<title>Node13&#45;&gt;Node6</title>
<g id="a_edge15_Node000013_Node000006"><a xlink:title=" ">
<path fill="none" stroke="#63b8ff" d="M487,-32.07C448.59,-32.26 393.9,-32.52 359.15,-32.69"/>
<polygon fill="#63b8ff" stroke="#63b8ff" points="486.86,-35.57 496.84,-32.02 486.83,-28.57 486.86,-35.57"/>
</a>
</g>
</g>
<!-- Node14&#45;&gt;Node3 -->
<g id="edge17_Node000014_Node000003" class="edge">
<title>Node14&#45;&gt;Node3</title>
<g id="a_edge17_Node000014_Node000003"><a xlink:title=" ">
<path fill="none" stroke="#63b8ff" d="M492.35,-190.9C480.85,-186.49 468.49,-181.75 457.82,-177.66"/>
<polygon fill="#63b8ff" stroke="#63b8ff" points="491.03,-194.14 501.62,-194.45 493.53,-187.6 491.03,-194.14"/>
</a>
</g>
</g>
<!-- Node14&#45;&gt;Node4 -->
<g id="edge18_Node000014_Node000004" class="edge">
<title>Node14&#45;&gt;Node4</title>
<g id="a_edge18_Node000014_Node000004"><a xlink:title=" ">
<path fill="none" stroke="#63b8ff" d="M486.82,-205.85C478.71,-205.85 470.38,-205.85 462.67,-205.85"/>
<polygon fill="#63b8ff" stroke="#63b8ff" points="486.54,-209.35 496.54,-205.85 486.54,-202.35 486.54,-209.35"/>
</a>
</g>
</g>
<!-- Node15 -->
<g id="Node000015" class="node">
<title>Node15</title>
<g id="a_Node000015"><a xlink:href="app_8c.html#a13a282f739b6944dad1977039f3fadde" target="_top" xlink:title=" ">
<polygon fill="white" stroke="#666666" points="462.5,-255.23 394.75,-255.23 394.75,-234.48 462.5,-234.48 462.5,-255.23"/>
<text text-anchor="middle" x="428.62" y="-241.73" font-family="Helvetica,sans-Serif" font-size="10.00">w2c__f420</text>
</a>
</g>
</g>
<!-- Node14&#45;&gt;Node15 -->
<g id="edge19_Node000014_Node000015" class="edge">
<title>Node14&#45;&gt;Node15</title>
<g id="a_edge19_Node000014_Node000015"><a xlink:title=" ">
<path fill="none" stroke="#63b8ff" d="M492.35,-220.81C480.85,-225.22 468.49,-229.96 457.82,-234.05"/>
<polygon fill="#63b8ff" stroke="#63b8ff" points="493.53,-224.11 501.62,-217.26 491.03,-217.57 493.53,-224.11"/>
</a>
</g>
</g>
<!-- Node16 -->
<g id="Node000016" class="node">
<title>Node16</title>
<g id="a_Node000016"><a xlink:href="app_8c.html#a268eebcea573fce720709e588959d401" target="_top" xlink:title=" ">
<polygon fill="white" stroke="#666666" points="462.5,-294.23 394.75,-294.23 394.75,-273.48 462.5,-273.48 462.5,-294.23"/>
<text text-anchor="middle" x="428.62" y="-280.73" font-family="Helvetica,sans-Serif" font-size="10.00">w2c__f568</text>
</a>
</g>
</g>
<!-- Node14&#45;&gt;Node16 -->
<g id="edge20_Node000014_Node000016" class="edge">
<title>Node14&#45;&gt;Node16</title>
<g id="a_edge20_Node000014_Node000016"><a xlink:title=" ">
<path fill="none" stroke="#63b8ff" d="M511.21,-224.26C497.82,-236.11 479.62,-251.55 462.5,-263.85 458.05,-267.05 453.08,-270.25 448.38,-273.13"/>
<polygon fill="#63b8ff" stroke="#63b8ff" points="513.4,-226.99 518.51,-217.71 508.72,-221.78 513.4,-226.99"/>
</a>
</g>
</g>
</g>
</svg>
