<?xml version="1.0" encoding="UTF-8" standalone="no"?>
<!DOCTYPE svg PUBLIC "-//W3C//DTD SVG 1.1//EN"
 "http://www.w3.org/Graphics/SVG/1.1/DTD/svg11.dtd">
<!-- Generated by graphviz version 12.2.1 (0)
 -->
<!-- Title: wrap_w2c__f531 Pages: 1 -->
<svg width="416pt" height="144pt"
 viewBox="0.00 0.00 416.25 143.75" xmlns="http://www.w3.org/2000/svg" xmlns:xlink="http://www.w3.org/1999/xlink">
<g id="graph0" class="graph" transform="scale(1 1) rotate(0) translate(4 139.75)">
<title>wrap_w2c__f531</title>
<!-- Node1 -->
<g id="Node000001" class="node">
<title>Node1</title>
<g id="a_Node000001"><a xlink:title=" ">
<polygon fill="#999999" stroke="#666666" points="97,-96.75 0,-96.75 0,-76 97,-76 97,-96.75"/>
<text text-anchor="middle" x="48.5" y="-83.25" font-family="Helvetica,sans-Serif" font-size="10.00">wrap_w2c__f531</text>
</a>
</g>
</g>
<!-- Node2 -->
<g id="Node000002" class="node">
<title>Node2</title>
<g id="a_Node000002"><a xlink:href="app_8c.html#abfae8f4ed4890a57991c21d1c2b5183d" target="_top" xlink:title=" ">
<polygon fill="white" stroke="#666666" points="200.75,-96.75 133,-96.75 133,-76 200.75,-76 200.75,-96.75"/>
<text text-anchor="middle" x="166.88" y="-83.25" font-family="Helvetica,sans-Serif" font-size="10.00">w2c__f531</text>
</a>
</g>
</g>
<!-- Node1&#45;&gt;Node2 -->
<g id="edge1_Node000001_Node000002" class="edge">
<title>Node1&#45;&gt;Node2</title>
<g id="a_edge1_Node000001_Node000002"><a xlink:title=" ">
<path fill="none" stroke="#63b8ff" d="M97.17,-86.38C105.18,-86.38 113.47,-86.38 121.4,-86.38"/>
<polygon fill="#63b8ff" stroke="#63b8ff" points="121.17,-89.88 131.17,-86.38 121.17,-82.88 121.17,-89.88"/>
</a>
</g>
</g>
<!-- Node2&#45;&gt;Node2 -->
<g id="edge8_Node000002_Node000002" class="edge">
<title>Node2&#45;&gt;Node2</title>
<g id="a_edge8_Node000002_Node000002"><a xlink:title=" ">
<path fill="none" stroke="#63b8ff" d="M150.16,-97.15C143.47,-105.81 149.04,-114.75 166.88,-114.75 176.35,-114.75 182.36,-112.23 184.91,-108.56"/>
<polygon fill="#63b8ff" stroke="#63b8ff" points="188.39,-108.18 183.77,-98.65 181.44,-108.99 188.39,-108.18"/>
</a>
</g>
</g>
<!-- Node3 -->
<g id="Node000003" class="node">
<title>Node3</title>
<g id="a_Node000003"><a xlink:href="app_8c.html#a219dcf2dd43adb72eba3cd7db7a10c59" target="_top" xlink:title=" ">
<polygon fill="white" stroke="#666666" points="304.5,-135.75 236.75,-135.75 236.75,-115 304.5,-115 304.5,-135.75"/>
<text text-anchor="middle" x="270.62" y="-122.25" font-family="Helvetica,sans-Serif" font-size="10.00">w2c__f246</text>
</a>
</g>
</g>
<!-- Node2&#45;&gt;Node3 -->
<g id="edge2_Node000002_Node000003" class="edge">
<title>Node2&#45;&gt;Node3</title>
<g id="a_edge2_Node000002_Node000003"><a xlink:title=" ">
<path fill="none" stroke="#63b8ff" d="M196.22,-97.24C206.91,-101.34 219.27,-106.08 230.76,-110.48"/>
<polygon fill="#63b8ff" stroke="#63b8ff" points="229.43,-113.72 240.02,-114.03 231.94,-107.18 229.43,-113.72"/>
</a>
</g>
</g>
<!-- Node4 -->
<g id="Node000004" class="node">
<title>Node4</title>
<g id="a_Node000004"><a xlink:href="app_8c.html#a661adef20422b3bec7471432caf0b5bd" target="_top" xlink:title=" ">
<polygon fill="white" stroke="#666666" points="304.5,-96.75 236.75,-96.75 236.75,-76 304.5,-76 304.5,-96.75"/>
<text text-anchor="middle" x="270.62" y="-83.25" font-family="Helvetica,sans-Serif" font-size="10.00">w2c__f410</text>
</a>
</g>
</g>
<!-- Node2&#45;&gt;Node4 -->
<g id="edge3_Node000002_Node000004" class="edge">
<title>Node2&#45;&gt;Node4</title>
<g id="a_edge3_Node000002_Node000004"><a xlink:title=" ">
<path fill="none" stroke="#63b8ff" d="M201.19,-80C208.82,-79.66 217.06,-79.55 225.08,-79.67"/>
<polygon fill="#63b8ff" stroke="#63b8ff" points="224.97,-83.17 235.07,-79.96 225.17,-76.17 224.97,-83.17"/>
</a>
</g>
</g>
<!-- Node5 -->
<g id="Node000005" class="node">
<title>Node5</title>
<g id="a_Node000005"><a xlink:href="app_8c.html#a674f6e81761467d0a8dc6d2a425eda9f" target="_top" xlink:title=" ">
<polygon fill="white" stroke="#666666" points="408.25,-77.75 340.5,-77.75 340.5,-57 408.25,-57 408.25,-77.75"/>
<text text-anchor="middle" x="374.38" y="-64.25" font-family="Helvetica,sans-Serif" font-size="10.00">w2c__f498</text>
</a>
</g>
</g>
<!-- Node2&#45;&gt;Node5 -->
<g id="edge6_Node000002_Node000005" class="edge">
<title>Node2&#45;&gt;Node5</title>
<g id="a_edge6_Node000002_Node000005"><a xlink:title=" ">
<path fill="none" stroke="#63b8ff" d="M200.08,-75.56C211.52,-72.24 224.58,-69.02 236.75,-67.38 267.26,-63.24 301.95,-63.3 328.74,-64.36"/>
<polygon fill="#63b8ff" stroke="#63b8ff" points="328.41,-67.85 338.57,-64.82 328.74,-60.86 328.41,-67.85"/>
</a>
</g>
</g>
<!-- Node6 -->
<g id="Node000006" class="node">
<title>Node6</title>
<g id="a_Node000006"><a xlink:href="app_8c.html#a2cbc524988e5fc60b3a75f21224249d9" target="_top" xlink:title=" ">
<polygon fill="white" stroke="#666666" points="304.5,-20.75 236.75,-20.75 236.75,0 304.5,0 304.5,-20.75"/>
<text text-anchor="middle" x="270.62" y="-7.25" font-family="Helvetica,sans-Serif" font-size="10.00">w2c__f503</text>
</a>
</g>
</g>
<!-- Node2&#45;&gt;Node6 -->
<g id="edge7_Node000002_Node000006" class="edge">
<title>Node2&#45;&gt;Node6</title>
<g id="a_edge7_Node000002_Node000006"><a xlink:title=" ">
<path fill="none" stroke="#63b8ff" d="M182.07,-75.55C195.96,-64.99 217.74,-48.49 236.75,-34.38 239.61,-32.25 242.61,-30.04 245.6,-27.85"/>
<polygon fill="#63b8ff" stroke="#63b8ff" points="247.63,-30.7 253.64,-21.97 243.5,-25.05 247.63,-30.7"/>
</a>
</g>
</g>
<!-- Node4&#45;&gt;Node2 -->
<g id="edge5_Node000004_Node000002" class="edge">
<title>Node4&#45;&gt;Node2</title>
<g id="a_edge5_Node000004_Node000002"><a xlink:title=" ">
<path fill="none" stroke="#63b8ff" d="M236.58,-92.74C228.87,-93.09 220.54,-93.2 212.43,-93.08"/>
<polygon fill="#63b8ff" stroke="#63b8ff" points="212.8,-89.59 202.7,-92.8 212.6,-96.58 212.8,-89.59"/>
</a>
</g>
</g>
<!-- Node4&#45;&gt;Node5 -->
<g id="edge4_Node000004_Node000005" class="edge">
<title>Node4&#45;&gt;Node5</title>
<g id="a_edge4_Node000004_Node000005"><a xlink:title=" ">
<path fill="none" stroke="#63b8ff" d="M304.94,-80.15C312.66,-78.71 321,-77.16 329.11,-75.64"/>
<polygon fill="#63b8ff" stroke="#63b8ff" points="329.66,-79.1 338.84,-73.82 328.37,-72.22 329.66,-79.1"/>
</a>
</g>
</g>
</g>
</svg>
