<?xml version="1.0" encoding="UTF-8" standalone="no"?>
<!DOCTYPE svg PUBLIC "-//W3C//DTD SVG 1.1//EN"
 "http://www.w3.org/Graphics/SVG/1.1/DTD/svg11.dtd">
<!-- Generated by graphviz version 12.2.1 (0)
 -->
<!-- Title: wrap_w2c__f513 Pages: 1 -->
<svg width="520pt" height="163pt"
 viewBox="0.00 0.00 520.00 162.75" xmlns="http://www.w3.org/2000/svg" xmlns:xlink="http://www.w3.org/1999/xlink">
<g id="graph0" class="graph" transform="scale(1 1) rotate(0) translate(4 158.75)">
<title>wrap_w2c__f513</title>
<!-- Node1 -->
<g id="Node000001" class="node">
<title>Node1</title>
<g id="a_Node000001"><a xlink:title=" ">
<polygon fill="#999999" stroke="#666666" points="97,-77.75 0,-77.75 0,-57 97,-57 97,-77.75"/>
<text text-anchor="middle" x="48.5" y="-64.25" font-family="Helvetica,sans-Serif" font-size="10.00">wrap_w2c__f513</text>
</a>
</g>
</g>
<!-- Node2 -->
<g id="Node000002" class="node">
<title>Node2</title>
<g id="a_Node000002"><a xlink:href="app_8c.html#adf8c8ec159a20a3362d3c4421c52c359" target="_top" xlink:title=" ">
<polygon fill="white" stroke="#666666" points="200.75,-77.75 133,-77.75 133,-57 200.75,-57 200.75,-77.75"/>
<text text-anchor="middle" x="166.88" y="-64.25" font-family="Helvetica,sans-Serif" font-size="10.00">w2c__f513</text>
</a>
</g>
</g>
<!-- Node1&#45;&gt;Node2 -->
<g id="edge1_Node000001_Node000002" class="edge">
<title>Node1&#45;&gt;Node2</title>
<g id="a_edge1_Node000001_Node000002"><a xlink:title=" ">
<path fill="none" stroke="#63b8ff" d="M97.17,-67.38C105.18,-67.38 113.47,-67.38 121.4,-67.38"/>
<polygon fill="#63b8ff" stroke="#63b8ff" points="121.17,-70.88 131.17,-67.38 121.17,-63.88 121.17,-70.88"/>
</a>
</g>
</g>
<!-- Node3 -->
<g id="Node000003" class="node">
<title>Node3</title>
<g id="a_Node000003"><a xlink:href="app_8c.html#a0378208e0d5c0d1d6e7370f1c578fab3" target="_top" xlink:title=" ">
<polygon fill="white" stroke="#666666" points="408.25,-154.75 340.5,-154.75 340.5,-134 408.25,-134 408.25,-154.75"/>
<text text-anchor="middle" x="374.38" y="-141.25" font-family="Helvetica,sans-Serif" font-size="10.00">w2c__f216</text>
</a>
</g>
</g>
<!-- Node2&#45;&gt;Node3 -->
<g id="edge2_Node000002_Node000003" class="edge">
<title>Node2&#45;&gt;Node3</title>
<g id="a_edge2_Node000002_Node000003"><a xlink:title=" ">
<path fill="none" stroke="#63b8ff" d="M184.89,-78.18C198.51,-86.48 218.32,-97.77 236.75,-105.38 266.68,-117.72 301.83,-127.66 328.99,-134.41"/>
<polygon fill="#63b8ff" stroke="#63b8ff" points="328.08,-137.79 338.62,-136.75 329.73,-130.99 328.08,-137.79"/>
</a>
</g>
</g>
<!-- Node5 -->
<g id="Node000005" class="node">
<title>Node5</title>
<g id="a_Node000005"><a xlink:href="app_8c.html#a4cee3be2fcc198bdc8a4972930d94f4f" target="_top" xlink:title=" ">
<polygon fill="white" stroke="#666666" points="408.25,-37.75 340.5,-37.75 340.5,-17 408.25,-17 408.25,-37.75"/>
<text text-anchor="middle" x="374.38" y="-24.25" font-family="Helvetica,sans-Serif" font-size="10.00">w2c__f326</text>
</a>
</g>
</g>
<!-- Node2&#45;&gt;Node5 -->
<g id="edge4_Node000002_Node000005" class="edge">
<title>Node2&#45;&gt;Node5</title>
<g id="a_edge4_Node000002_Node000005"><a xlink:title=" ">
<path fill="none" stroke="#63b8ff" d="M200.89,-60.95C235.69,-54.17 290.7,-43.47 329.21,-35.97"/>
<polygon fill="#63b8ff" stroke="#63b8ff" points="329.47,-39.49 338.61,-34.14 328.13,-32.62 329.47,-39.49"/>
</a>
</g>
</g>
<!-- Node7 -->
<g id="Node000007" class="node">
<title>Node7</title>
<g id="a_Node000007"><a xlink:href="app_8c.html#a382a18f7c476aeaf0817235093cde2a5" target="_top" xlink:title=" ">
<polygon fill="white" stroke="#666666" points="304.5,-96.75 236.75,-96.75 236.75,-76 304.5,-76 304.5,-96.75"/>
<text text-anchor="middle" x="270.62" y="-83.25" font-family="Helvetica,sans-Serif" font-size="10.00">w2c__f363</text>
</a>
</g>
</g>
<!-- Node2&#45;&gt;Node7 -->
<g id="edge6_Node000002_Node000007" class="edge">
<title>Node2&#45;&gt;Node7</title>
<g id="a_edge6_Node000002_Node000007"><a xlink:title=" ">
<path fill="none" stroke="#63b8ff" d="M201.19,-73.6C208.91,-75.04 217.25,-76.59 225.36,-78.11"/>
<polygon fill="#63b8ff" stroke="#63b8ff" points="224.62,-81.53 235.09,-79.93 225.91,-74.65 224.62,-81.53"/>
</a>
</g>
</g>
<!-- Node12 -->
<g id="Node000012" class="node">
<title>Node12</title>
<g id="a_Node000012"><a xlink:href="app_8c.html#ab78a9ba6819f5a9d3b53302097151d33" target="_top" xlink:title=" ">
<polygon fill="white" stroke="#666666" points="304.5,-20.75 236.75,-20.75 236.75,0 304.5,0 304.5,-20.75"/>
<text text-anchor="middle" x="270.62" y="-7.25" font-family="Helvetica,sans-Serif" font-size="10.00">w2c__f481</text>
</a>
</g>
</g>
<!-- Node2&#45;&gt;Node12 -->
<g id="edge14_Node000002_Node000012" class="edge">
<title>Node2&#45;&gt;Node12</title>
<g id="a_edge14_Node000002_Node000012"><a xlink:title=" ">
<path fill="none" stroke="#63b8ff" d="M187.01,-56.65C202.12,-48.19 223.45,-36.24 240.65,-26.6"/>
<polygon fill="#63b8ff" stroke="#63b8ff" points="241.89,-29.92 248.91,-21.98 238.47,-23.82 241.89,-29.92"/>
</a>
</g>
</g>
<!-- Node4 -->
<g id="Node000004" class="node">
<title>Node4</title>
<g id="a_Node000004"><a xlink:href="app_8c.html#a8d9f347f9a643f0ebfb53c4f54578ac4" target="_top" xlink:title=" ">
<polygon fill="white" stroke="#666666" points="512,-154.75 444.25,-154.75 444.25,-134 512,-134 512,-154.75"/>
<text text-anchor="middle" x="478.12" y="-141.25" font-family="Helvetica,sans-Serif" font-size="10.00">w2c__f304</text>
</a>
</g>
</g>
<!-- Node3&#45;&gt;Node4 -->
<g id="edge3_Node000003_Node000004" class="edge">
<title>Node3&#45;&gt;Node4</title>
<g id="a_edge3_Node000003_Node000004"><a xlink:title=" ">
<path fill="none" stroke="#63b8ff" d="M408.69,-144.38C416.32,-144.38 424.56,-144.38 432.58,-144.38"/>
<polygon fill="#63b8ff" stroke="#63b8ff" points="432.57,-147.88 442.57,-144.38 432.57,-140.88 432.57,-147.88"/>
</a>
</g>
</g>
<!-- Node6 -->
<g id="Node000006" class="node">
<title>Node6</title>
<g id="a_Node000006"><a xlink:href="app_8c.html#a75d2a28c1bac8b1e29f069bf851fdba9" target="_top" xlink:title=" ">
<polygon fill="white" stroke="#666666" points="512,-37.75 444.25,-37.75 444.25,-17 512,-17 512,-37.75"/>
<text text-anchor="middle" x="478.12" y="-24.25" font-family="Helvetica,sans-Serif" font-size="10.00">w2c__f549</text>
</a>
</g>
</g>
<!-- Node5&#45;&gt;Node6 -->
<g id="edge5_Node000005_Node000006" class="edge">
<title>Node5&#45;&gt;Node6</title>
<g id="a_edge5_Node000005_Node000006"><a xlink:title=" ">
<path fill="none" stroke="#63b8ff" d="M408.69,-27.38C416.32,-27.38 424.56,-27.38 432.58,-27.38"/>
<polygon fill="#63b8ff" stroke="#63b8ff" points="432.57,-30.88 442.57,-27.38 432.57,-23.88 432.57,-30.88"/>
</a>
</g>
</g>
<!-- Node7&#45;&gt;Node3 -->
<g id="edge7_Node000007_Node000003" class="edge">
<title>Node7&#45;&gt;Node3</title>
<g id="a_edge7_Node000007_Node000003"><a xlink:title=" ">
<path fill="none" stroke="#63b8ff" d="M290.29,-97.01C305.54,-105.71 327.35,-118.14 344.8,-128.09"/>
<polygon fill="#63b8ff" stroke="#63b8ff" points="342.75,-130.95 353.17,-132.86 346.22,-124.87 342.75,-130.95"/>
</a>
</g>
</g>
<!-- Node7&#45;&gt;Node5 -->
<g id="edge11_Node000007_Node000005" class="edge">
<title>Node7&#45;&gt;Node5</title>
<g id="a_edge11_Node000007_Node000005"><a xlink:title=" ">
<path fill="none" stroke="#63b8ff" d="M290.29,-75.55C305.63,-66.65 327.63,-53.9 345.13,-43.75"/>
<polygon fill="#63b8ff" stroke="#63b8ff" points="346.63,-46.93 353.52,-38.89 343.11,-40.88 346.63,-46.93"/>
</a>
</g>
</g>
<!-- Node8 -->
<g id="Node000008" class="node">
<title>Node8</title>
<g id="a_Node000008"><a xlink:href="app_8c.html#aaca5d5bcf49f2ca74019cf097750b9f3" target="_top" xlink:title=" ">
<polygon fill="white" stroke="#666666" points="408.25,-115.75 340.5,-115.75 340.5,-95 408.25,-95 408.25,-115.75"/>
<text text-anchor="middle" x="374.38" y="-102.25" font-family="Helvetica,sans-Serif" font-size="10.00">w2c__f258</text>
</a>
</g>
</g>
<!-- Node7&#45;&gt;Node8 -->
<g id="edge8_Node000007_Node000008" class="edge">
<title>Node7&#45;&gt;Node8</title>
<g id="a_edge8_Node000007_Node000008"><a xlink:title=" ">
<path fill="none" stroke="#63b8ff" d="M304.94,-92.6C312.66,-94.04 321,-95.59 329.11,-97.11"/>
<polygon fill="#63b8ff" stroke="#63b8ff" points="328.37,-100.53 338.84,-98.93 329.66,-93.65 328.37,-100.53"/>
</a>
</g>
</g>
<!-- Node10 -->
<g id="Node000010" class="node">
<title>Node10</title>
<g id="a_Node000010"><a xlink:href="app_8c.html#a87ed9e71bb510c147810da63c198b7b2" target="_top" xlink:title=" ">
<polygon fill="white" stroke="#666666" points="408.25,-76.75 340.5,-76.75 340.5,-56 408.25,-56 408.25,-76.75"/>
<text text-anchor="middle" x="374.38" y="-63.25" font-family="Helvetica,sans-Serif" font-size="10.00">w2c__f398</text>
</a>
</g>
</g>
<!-- Node7&#45;&gt;Node10 -->
<g id="edge12_Node000007_Node000010" class="edge">
<title>Node7&#45;&gt;Node10</title>
<g id="a_edge12_Node000007_Node000010"><a xlink:title=" ">
<path fill="none" stroke="#63b8ff" d="M304.94,-79.83C312.66,-78.31 321,-76.67 329.11,-75.08"/>
<polygon fill="#63b8ff" stroke="#63b8ff" points="329.71,-78.53 338.85,-73.16 328.36,-71.66 329.71,-78.53"/>
</a>
</g>
</g>
<!-- Node8&#45;&gt;Node4 -->
<g id="edge9_Node000008_Node000004" class="edge">
<title>Node8&#45;&gt;Node4</title>
<g id="a_edge9_Node000008_Node000004"><a xlink:title=" ">
<path fill="none" stroke="#63b8ff" d="M403.72,-116.24C414.41,-120.34 426.77,-125.08 438.26,-129.48"/>
<polygon fill="#63b8ff" stroke="#63b8ff" points="436.93,-132.72 447.52,-133.03 439.44,-126.18 436.93,-132.72"/>
</a>
</g>
</g>
<!-- Node9 -->
<g id="Node000009" class="node">
<title>Node9</title>
<g id="a_Node000009"><a xlink:href="app_8c.html#a881f0b113e93dce3ff52d04b435850f6" target="_top" xlink:title=" ">
<polygon fill="white" stroke="#666666" points="512,-115.75 444.25,-115.75 444.25,-95 512,-95 512,-115.75"/>
<text text-anchor="middle" x="478.12" y="-102.25" font-family="Helvetica,sans-Serif" font-size="10.00">w2c__f491</text>
</a>
</g>
</g>
<!-- Node8&#45;&gt;Node9 -->
<g id="edge10_Node000008_Node000009" class="edge">
<title>Node8&#45;&gt;Node9</title>
<g id="a_edge10_Node000008_Node000009"><a xlink:title=" ">
<path fill="none" stroke="#63b8ff" d="M408.69,-105.38C416.32,-105.38 424.56,-105.38 432.58,-105.38"/>
<polygon fill="#63b8ff" stroke="#63b8ff" points="432.57,-108.88 442.57,-105.38 432.57,-101.88 432.57,-108.88"/>
</a>
</g>
</g>
<!-- Node11 -->
<g id="Node000011" class="node">
<title>Node11</title>
<g id="a_Node000011"><a xlink:href="app_8c.html#a674f6e81761467d0a8dc6d2a425eda9f" target="_top" xlink:title=" ">
<polygon fill="white" stroke="#666666" points="512,-76.75 444.25,-76.75 444.25,-56 512,-56 512,-76.75"/>
<text text-anchor="middle" x="478.12" y="-63.25" font-family="Helvetica,sans-Serif" font-size="10.00">w2c__f498</text>
</a>
</g>
</g>
<!-- Node10&#45;&gt;Node11 -->
<g id="edge13_Node000010_Node000011" class="edge">
<title>Node10&#45;&gt;Node11</title>
<g id="a_edge13_Node000010_Node000011"><a xlink:title=" ">
<path fill="none" stroke="#63b8ff" d="M408.69,-66.38C416.32,-66.38 424.56,-66.38 432.58,-66.38"/>
<polygon fill="#63b8ff" stroke="#63b8ff" points="432.57,-69.88 442.57,-66.38 432.57,-62.88 432.57,-69.88"/>
</a>
</g>
</g>
</g>
</svg>
