<?xml version="1.0" encoding="UTF-8" standalone="no"?>
<!DOCTYPE svg PUBLIC "-//W3C//DTD SVG 1.1//EN"
 "http://www.w3.org/Graphics/SVG/1.1/DTD/svg11.dtd">
<!-- Generated by graphviz version 12.2.1 (0)
 -->
<!-- Title: w2c__f353 Pages: 1 -->
<svg width="387pt" height="279pt"
 viewBox="0.00 0.00 387.00 278.71" xmlns="http://www.w3.org/2000/svg" xmlns:xlink="http://www.w3.org/1999/xlink">
<g id="graph0" class="graph" transform="scale(1 1) rotate(0) translate(4 274.71)">
<title>w2c__f353</title>
<!-- Node1 -->
<g id="Node000001" class="node">
<title>Node1</title>
<g id="a_Node000001"><a xlink:title=" ">
<polygon fill="#999999" stroke="#666666" points="379,-156.75 311.25,-156.75 311.25,-136 379,-136 379,-156.75"/>
<text text-anchor="middle" x="345.12" y="-143.25" font-family="Helvetica,sans-Serif" font-size="10.00">w2c__f353</text>
</a>
</g>
</g>
<!-- Node2 -->
<g id="Node000002" class="node">
<title>Node2</title>
<g id="a_Node000002"><a xlink:href="app_8c.html#a72ea182500329a01f4104b0a8f7f97ea" target="_top" xlink:title=" ">
<polygon fill="white" stroke="#666666" points="275.25,-176.75 207.5,-176.75 207.5,-156 275.25,-156 275.25,-176.75"/>
<text text-anchor="middle" x="241.38" y="-163.25" font-family="Helvetica,sans-Serif" font-size="10.00">w2c__f344</text>
</a>
</g>
</g>
<!-- Node1&#45;&gt;Node2 -->
<g id="edge1_Node000001_Node000002" class="edge">
<title>Node1&#45;&gt;Node2</title>
<g id="a_edge1_Node000001_Node000002"><a xlink:title=" ">
<path fill="none" stroke="#63b8ff" d="M299.57,-155.13C291.46,-156.73 283.13,-158.37 275.42,-159.88"/>
<polygon fill="#63b8ff" stroke="#63b8ff" points="300.19,-158.58 309.32,-153.22 298.84,-151.71 300.19,-158.58"/>
</a>
</g>
</g>
<!-- Node7 -->
<g id="Node000007" class="node">
<title>Node7</title>
<g id="a_Node000007"><a xlink:href="app_8c.html#a559e69d186227474c80524d438119c66" target="_top" xlink:title=" ">
<polygon fill="white" stroke="#666666" points="275.25,-137.75 207.5,-137.75 207.5,-117 275.25,-117 275.25,-137.75"/>
<text text-anchor="middle" x="241.38" y="-124.25" font-family="Helvetica,sans-Serif" font-size="10.00">w2c__f508</text>
</a>
</g>
</g>
<!-- Node1&#45;&gt;Node7 -->
<g id="edge6_Node000001_Node000007" class="edge">
<title>Node1&#45;&gt;Node7</title>
<g id="a_edge6_Node000001_Node000007"><a xlink:title=" ">
<path fill="none" stroke="#63b8ff" d="M299.57,-138.06C291.46,-136.54 283.13,-134.98 275.42,-133.55"/>
<polygon fill="#63b8ff" stroke="#63b8ff" points="298.85,-141.48 309.32,-139.88 300.13,-134.6 298.85,-141.48"/>
</a>
</g>
</g>
<!-- Node3 -->
<g id="Node000003" class="node">
<title>Node3</title>
<g id="a_Node000003"><a xlink:href="app_8c.html#a980a551daeb256397f01e6faa91d49db" target="_top" xlink:title=" ">
<polygon fill="white" stroke="#666666" points="67.75,-252.75 0,-252.75 0,-232 67.75,-232 67.75,-252.75"/>
<text text-anchor="middle" x="33.88" y="-239.25" font-family="Helvetica,sans-Serif" font-size="10.00">w2c__f403</text>
</a>
</g>
</g>
<!-- Node2&#45;&gt;Node3 -->
<g id="edge2_Node000002_Node000003" class="edge">
<title>Node2&#45;&gt;Node3</title>
<g id="a_edge2_Node000002_Node000003"><a xlink:title=" ">
<path fill="none" stroke="#63b8ff" d="M231.98,-187.66C221.63,-210.64 201.62,-246.01 171.5,-261.38 134.81,-280.09 85.75,-265.08 57.5,-253.22"/>
<polygon fill="#63b8ff" stroke="#63b8ff" points="235.13,-189.2 235.82,-178.63 228.69,-186.47 235.13,-189.2"/>
</a>
</g>
</g>
<!-- Node4 -->
<g id="Node000004" class="node">
<title>Node4</title>
<g id="a_Node000004"><a xlink:href="app_8c.html#a96302817f96aee4b42b2d1383eb34b00" target="_top" xlink:title=" ">
<polygon fill="white" stroke="#666666" points="171.5,-176.75 103.75,-176.75 103.75,-156 171.5,-156 171.5,-176.75"/>
<text text-anchor="middle" x="137.62" y="-163.25" font-family="Helvetica,sans-Serif" font-size="10.00">w2c__f462</text>
</a>
</g>
</g>
<!-- Node2&#45;&gt;Node4 -->
<g id="edge3_Node000002_Node000004" class="edge">
<title>Node2&#45;&gt;Node4</title>
<g id="a_edge3_Node000002_Node000004"><a xlink:title=" ">
<path fill="none" stroke="#63b8ff" d="M195.82,-166.38C187.71,-166.38 179.38,-166.38 171.67,-166.38"/>
<polygon fill="#63b8ff" stroke="#63b8ff" points="195.54,-169.88 205.54,-166.38 195.54,-162.88 195.54,-169.88"/>
</a>
</g>
</g>
<!-- Node5 -->
<g id="Node000005" class="node">
<title>Node5</title>
<g id="a_Node000005"><a xlink:href="app_8c.html#a1581df0bdfa942524e0a5dce91fd6b8e" target="_top" xlink:title=" ">
<polygon fill="white" stroke="#666666" points="67.75,-79.75 0,-79.75 0,-59 67.75,-59 67.75,-79.75"/>
<text text-anchor="middle" x="33.88" y="-66.25" font-family="Helvetica,sans-Serif" font-size="10.00">w2c__f253</text>
</a>
</g>
</g>
<!-- Node4&#45;&gt;Node5 -->
<g id="edge4_Node000004_Node000005" class="edge">
<title>Node4&#45;&gt;Node5</title>
<g id="a_edge4_Node000004_Node000005"><a xlink:title=" ">
<path fill="none" stroke="#63b8ff" d="M107.66,-149.44C106.31,-148.44 105,-147.42 103.75,-146.38 78.93,-125.73 54.96,-96.05 42.92,-80.25"/>
<polygon fill="#63b8ff" stroke="#63b8ff" points="105.36,-152.11 115.6,-154.8 109.27,-146.3 105.36,-152.11"/>
</a>
</g>
</g>
<!-- Node6 -->
<g id="Node000006" class="node">
<title>Node6</title>
<g id="a_Node000006"><a xlink:href="app_8c.html#a05d83e696cfaa26355c9732ee9ea4cd0" target="_top" xlink:title=" ">
<polygon fill="white" stroke="#666666" points="67.75,-156.75 0,-156.75 0,-136 67.75,-136 67.75,-156.75"/>
<text text-anchor="middle" x="33.88" y="-143.25" font-family="Helvetica,sans-Serif" font-size="10.00">w2c__f454</text>
</a>
</g>
</g>
<!-- Node4&#45;&gt;Node6 -->
<g id="edge5_Node000004_Node000006" class="edge">
<title>Node4&#45;&gt;Node6</title>
<g id="a_edge5_Node000004_Node000006"><a xlink:title=" ">
<path fill="none" stroke="#63b8ff" d="M92.07,-157.62C83.96,-156.02 75.63,-154.38 67.92,-152.87"/>
<polygon fill="#63b8ff" stroke="#63b8ff" points="91.34,-161.04 101.82,-159.53 92.69,-154.17 91.34,-161.04"/>
</a>
</g>
</g>
<!-- Node7&#45;&gt;Node3 -->
<g id="edge13_Node000007_Node000003" class="edge">
<title>Node7&#45;&gt;Node3</title>
<g id="a_edge13_Node000007_Node000003"><a xlink:title=" ">
<path fill="none" stroke="#63b8ff" d="M211.45,-144.35C210.09,-145.34 208.77,-146.35 207.5,-147.38 189.4,-161.99 190.65,-172.17 171.5,-185.38 139.24,-207.63 96.93,-223.6 67.99,-232.87"/>
<polygon fill="#63b8ff" stroke="#63b8ff" points="213.05,-147.49 219.42,-139.03 209.16,-141.67 213.05,-147.49"/>
</a>
</g>
</g>
<!-- Node7&#45;&gt;Node4 -->
<g id="edge16_Node000007_Node000004" class="edge">
<title>Node7&#45;&gt;Node4</title>
<g id="a_edge16_Node000007_Node000004"><a xlink:title=" ">
<path fill="none" stroke="#63b8ff" d="M201.35,-142.33C189.85,-146.74 177.49,-151.48 166.82,-155.57"/>
<polygon fill="#63b8ff" stroke="#63b8ff" points="202.53,-145.63 210.62,-138.78 200.03,-139.09 202.53,-145.63"/>
</a>
</g>
</g>
<!-- Node8 -->
<g id="Node000008" class="node">
<title>Node8</title>
<g id="a_Node000008"><a xlink:href="app_8c.html#a449cb6c73f47b769f147af0ebc196f79" target="_top" xlink:title=" ">
<polygon fill="white" stroke="#666666" points="171.5,-20.75 103.75,-20.75 103.75,0 171.5,0 171.5,-20.75"/>
<text text-anchor="middle" x="137.62" y="-7.25" font-family="Helvetica,sans-Serif" font-size="10.00">w2c__f206</text>
</a>
</g>
</g>
<!-- Node7&#45;&gt;Node8 -->
<g id="edge7_Node000007_Node000008" class="edge">
<title>Node7&#45;&gt;Node8</title>
<g id="a_edge7_Node000007_Node000008"><a xlink:title=" ">
<path fill="none" stroke="#63b8ff" d="M229.19,-106.89C217.01,-85.88 195.95,-53.15 171.5,-30.38 167.88,-27.01 163.61,-23.91 159.36,-21.22"/>
<polygon fill="#63b8ff" stroke="#63b8ff" points="226.02,-108.39 233.98,-115.37 232.11,-104.94 226.02,-108.39"/>
</a>
</g>
</g>
<!-- Node9 -->
<g id="Node000009" class="node">
<title>Node9</title>
<g id="a_Node000009"><a xlink:href="app_8c.html#a459b7ee293146f8253684dece0b1694c" target="_top" xlink:title=" ">
<polygon fill="white" stroke="#666666" points="171.5,-98.75 103.75,-98.75 103.75,-78 171.5,-78 171.5,-98.75"/>
<text text-anchor="middle" x="137.62" y="-85.25" font-family="Helvetica,sans-Serif" font-size="10.00">w2c__f310</text>
</a>
</g>
</g>
<!-- Node7&#45;&gt;Node9 -->
<g id="edge9_Node000007_Node000009" class="edge">
<title>Node7&#45;&gt;Node9</title>
<g id="a_edge9_Node000007_Node000009"><a xlink:title=" ">
<path fill="none" stroke="#63b8ff" d="M201.35,-112.42C189.85,-108.01 177.49,-103.27 166.82,-99.18"/>
<polygon fill="#63b8ff" stroke="#63b8ff" points="200.03,-115.66 210.62,-115.97 202.53,-109.12 200.03,-115.66"/>
</a>
</g>
</g>
<!-- Node10 -->
<g id="Node000010" class="node">
<title>Node10</title>
<g id="a_Node000010"><a xlink:href="app_8c.html#acd88d6cfe5e0daab92b8b572bf715307" target="_top" xlink:title=" ">
<polygon fill="white" stroke="#666666" points="171.5,-59.75 103.75,-59.75 103.75,-39 171.5,-39 171.5,-59.75"/>
<text text-anchor="middle" x="137.62" y="-46.25" font-family="Helvetica,sans-Serif" font-size="10.00">w2c__f322</text>
</a>
</g>
</g>
<!-- Node7&#45;&gt;Node10 -->
<g id="edge11_Node000007_Node000010" class="edge">
<title>Node7&#45;&gt;Node10</title>
<g id="a_edge11_Node000007_Node000010"><a xlink:title=" ">
<path fill="none" stroke="#63b8ff" d="M220.21,-108.97C206.82,-97.12 188.62,-81.68 171.5,-69.38 167.05,-66.18 162.08,-62.98 157.38,-60.1"/>
<polygon fill="#63b8ff" stroke="#63b8ff" points="217.72,-111.45 227.51,-115.52 222.4,-106.24 217.72,-111.45"/>
</a>
</g>
</g>
<!-- Node11 -->
<g id="Node000011" class="node">
<title>Node11</title>
<g id="a_Node000011"><a xlink:href="app_8c.html#adb357000a4d9b03118bb4a6a7435605d" target="_top" xlink:title=" ">
<polygon fill="white" stroke="#666666" points="171.5,-137.75 103.75,-137.75 103.75,-117 171.5,-117 171.5,-137.75"/>
<text text-anchor="middle" x="137.62" y="-124.25" font-family="Helvetica,sans-Serif" font-size="10.00">w2c__f404</text>
</a>
</g>
</g>
<!-- Node7&#45;&gt;Node11 -->
<g id="edge14_Node000007_Node000011" class="edge">
<title>Node7&#45;&gt;Node11</title>
<g id="a_edge14_Node000007_Node000011"><a xlink:title=" ">
<path fill="none" stroke="#63b8ff" d="M195.82,-127.38C187.71,-127.38 179.38,-127.38 171.67,-127.38"/>
<polygon fill="#63b8ff" stroke="#63b8ff" points="195.54,-130.88 205.54,-127.38 195.54,-123.88 195.54,-130.88"/>
</a>
</g>
</g>
<!-- Node12 -->
<g id="Node000012" class="node">
<title>Node12</title>
<g id="a_Node000012"><a xlink:href="app_8c.html#a9a6678ec111966f9ad398c4ddc0f4ce7" target="_top" xlink:title=" ">
<polygon fill="white" stroke="#666666" points="171.5,-252.75 103.75,-252.75 103.75,-232 171.5,-232 171.5,-252.75"/>
<text text-anchor="middle" x="137.62" y="-239.25" font-family="Helvetica,sans-Serif" font-size="10.00">w2c__f472</text>
</a>
</g>
</g>
<!-- Node7&#45;&gt;Node12 -->
<g id="edge17_Node000007_Node000012" class="edge">
<title>Node7&#45;&gt;Node12</title>
<g id="a_edge17_Node000007_Node000012"><a xlink:title=" ">
<path fill="none" stroke="#63b8ff" d="M210.08,-144.8C209.18,-145.64 208.32,-146.49 207.5,-147.38 183.47,-173.34 194.42,-191.42 171.5,-218.38 167.29,-223.33 161.86,-227.82 156.63,-231.54"/>
<polygon fill="#63b8ff" stroke="#63b8ff" points="211.89,-147.83 217.7,-138.97 207.63,-142.27 211.89,-147.83"/>
</a>
</g>
</g>
<!-- Node8&#45;&gt;Node5 -->
<g id="edge8_Node000008_Node000005" class="edge">
<title>Node8&#45;&gt;Node5</title>
<g id="a_edge8_Node000008_Node000005"><a xlink:title=" ">
<path fill="none" stroke="#63b8ff" d="M108.24,-26.83C90.72,-36.99 68.73,-49.74 53.42,-58.62"/>
<polygon fill="#63b8ff" stroke="#63b8ff" points="109.76,-30 116.65,-21.96 106.25,-23.94 109.76,-30"/>
</a>
</g>
</g>
<!-- Node9&#45;&gt;Node5 -->
<g id="edge10_Node000009_Node000005" class="edge">
<title>Node9&#45;&gt;Node5</title>
<g id="a_edge10_Node000009_Node000005"><a xlink:title=" ">
<path fill="none" stroke="#63b8ff" d="M92.07,-80.06C83.96,-78.54 75.63,-76.98 67.92,-75.55"/>
<polygon fill="#63b8ff" stroke="#63b8ff" points="91.35,-83.48 101.82,-81.88 92.63,-76.6 91.35,-83.48"/>
</a>
</g>
</g>
<!-- Node10&#45;&gt;Node5 -->
<g id="edge12_Node000010_Node000005" class="edge">
<title>Node10&#45;&gt;Node5</title>
<g id="a_edge12_Node000010_Node000005"><a xlink:title=" ">
<path fill="none" stroke="#63b8ff" d="M92.07,-58.13C83.96,-59.73 75.63,-61.37 67.92,-62.88"/>
<polygon fill="#63b8ff" stroke="#63b8ff" points="92.69,-61.58 101.82,-56.22 91.34,-54.71 92.69,-61.58"/>
</a>
</g>
</g>
<!-- Node11&#45;&gt;Node6 -->
<g id="edge15_Node000011_Node000006" class="edge">
<title>Node11&#45;&gt;Node6</title>
<g id="a_edge15_Node000011_Node000006"><a xlink:title=" ">
<path fill="none" stroke="#63b8ff" d="M92.07,-135.69C83.96,-137.21 75.63,-138.77 67.92,-140.2"/>
<polygon fill="#63b8ff" stroke="#63b8ff" points="92.63,-139.15 101.82,-133.87 91.35,-132.27 92.63,-139.15"/>
</a>
</g>
</g>
<!-- Node12&#45;&gt;Node3 -->
<g id="edge18_Node000012_Node000003" class="edge">
<title>Node12&#45;&gt;Node3</title>
<g id="a_edge18_Node000012_Node000003"><a xlink:title=" ">
<path fill="none" stroke="#63b8ff" d="M92.07,-242.38C83.96,-242.38 75.63,-242.38 67.92,-242.38"/>
<polygon fill="#63b8ff" stroke="#63b8ff" points="91.79,-245.88 101.79,-242.38 91.79,-238.88 91.79,-245.88"/>
</a>
</g>
</g>
</g>
</svg>
