<?xml version="1.0" encoding="UTF-8" standalone="no"?>
<!DOCTYPE svg PUBLIC "-//W3C//DTD SVG 1.1//EN"
 "http://www.w3.org/Graphics/SVG/1.1/DTD/svg11.dtd">
<!-- Generated by graphviz version 12.2.1 (0)
 -->
<!-- Title: w2c_0_151 Pages: 1 -->
<svg width="479pt" height="107pt"
 viewBox="0.00 0.00 479.25 106.75" xmlns="http://www.w3.org/2000/svg" xmlns:xlink="http://www.w3.org/1999/xlink">
<g id="graph0" class="graph" transform="scale(1 1) rotate(0) translate(4 102.75)">
<title>w2c_0_151</title>
<!-- Node1 -->
<g id="Node000001" class="node">
<title>Node1</title>
<g id="a_Node000001"><a xlink:title=" ">
<polygon fill="#999999" stroke="#666666" points="471.25,-59.75 401.25,-59.75 401.25,-39 471.25,-39 471.25,-59.75"/>
<text text-anchor="middle" x="436.25" y="-46.25" font-family="Helvetica,sans-Serif" font-size="10.00">w2c_0_151</text>
</a>
</g>
</g>
<!-- Node2 -->
<g id="Node000002" class="node">
<title>Node2</title>
<g id="a_Node000002"><a xlink:href="app_8c.html#aceab5cda31b6aa6659b94aae079d60c2" target="_top" xlink:title=" ">
<polygon fill="white" stroke="#666666" points="349.5,-98.75 281.75,-98.75 281.75,-78 349.5,-78 349.5,-98.75"/>
<text text-anchor="middle" x="315.62" y="-85.25" font-family="Helvetica,sans-Serif" font-size="10.00">w2c__f456</text>
</a>
</g>
</g>
<!-- Node1&#45;&gt;Node2 -->
<g id="edge1_Node000001_Node000002" class="edge">
<title>Node1&#45;&gt;Node2</title>
<g id="a_edge1_Node000001_Node000002"><a xlink:title=" ">
<path fill="none" stroke="#63b8ff" d="M391.41,-63.79C377.54,-68.35 362.45,-73.31 349.49,-77.57"/>
<polygon fill="#63b8ff" stroke="#63b8ff" points="392.36,-67.16 400.77,-60.71 390.18,-60.51 392.36,-67.16"/>
</a>
</g>
</g>
<!-- Node5 -->
<g id="Node000005" class="node">
<title>Node5</title>
<g id="a_Node000005"><a xlink:href="app_8c.html#a16670c165bc2e48eba2f100b6b1e21c3" target="_top" xlink:title=" ">
<polygon fill="white" stroke="#666666" points="349.5,-59.75 281.75,-59.75 281.75,-39 349.5,-39 349.5,-59.75"/>
<text text-anchor="middle" x="315.62" y="-46.25" font-family="Helvetica,sans-Serif" font-size="10.00">w2c__f495</text>
</a>
</g>
</g>
<!-- Node1&#45;&gt;Node5 -->
<g id="edge4_Node000001_Node000005" class="edge">
<title>Node1&#45;&gt;Node5</title>
<g id="a_edge4_Node000001_Node000005"><a xlink:title=" ">
<path fill="none" stroke="#63b8ff" d="M389.57,-49.38C376.27,-49.38 361.99,-49.38 349.63,-49.38"/>
<polygon fill="#63b8ff" stroke="#63b8ff" points="389.43,-52.88 399.43,-49.38 389.43,-45.88 389.43,-52.88"/>
</a>
</g>
</g>
<!-- Node7 -->
<g id="Node000007" class="node">
<title>Node7</title>
<g id="a_Node000007"><a xlink:href="app_8c.html#a2a23865178f02b6e7c182dcc8a8ccd2c" target="_top" xlink:title=" ">
<polygon fill="white" stroke="#666666" points="365.25,-20.75 266,-20.75 266,0 365.25,0 365.25,-20.75"/>
<text text-anchor="middle" x="315.62" y="-7.25" font-family="Helvetica,sans-Serif" font-size="10.00">wrap_w2c_0_151</text>
</a>
</g>
</g>
<!-- Node1&#45;&gt;Node7 -->
<g id="edge7_Node000001_Node000007" class="edge">
<title>Node1&#45;&gt;Node7</title>
<g id="a_edge7_Node000001_Node000007"><a xlink:title=" ">
<path fill="none" stroke="#63b8ff" d="M391.41,-34.96C377.54,-30.4 362.45,-25.44 349.49,-21.18"/>
<polygon fill="#63b8ff" stroke="#63b8ff" points="390.18,-38.24 400.77,-38.04 392.36,-31.59 390.18,-38.24"/>
</a>
</g>
</g>
<!-- Node3 -->
<g id="Node000003" class="node">
<title>Node3</title>
<g id="a_Node000003"><a xlink:href="app_8c.html#ad1dbc2afe7918517df3fc54838f07298" target="_top" xlink:title=" ">
<polygon fill="white" stroke="#666666" points="215.38,-98.75 147.62,-98.75 147.62,-78 215.38,-78 215.38,-98.75"/>
<text text-anchor="middle" x="181.5" y="-85.25" font-family="Helvetica,sans-Serif" font-size="10.00">w2c__f520</text>
</a>
</g>
</g>
<!-- Node2&#45;&gt;Node3 -->
<g id="edge2_Node000002_Node000003" class="edge">
<title>Node2&#45;&gt;Node3</title>
<g id="a_edge2_Node000002_Node000003"><a xlink:title=" ">
<path fill="none" stroke="#63b8ff" d="M269.78,-88.38C252.11,-88.38 232.18,-88.38 215.83,-88.38"/>
<polygon fill="#63b8ff" stroke="#63b8ff" points="269.77,-91.88 279.77,-88.38 269.77,-84.88 269.77,-91.88"/>
</a>
</g>
</g>
<!-- Node4 -->
<g id="Node000004" class="node">
<title>Node4</title>
<g id="a_Node000004"><a xlink:href="app_8c.html#a130f07b726020d1add9a7ed5178e023a" target="_top" xlink:title=" ">
<polygon fill="white" stroke="#666666" points="97,-98.75 0,-98.75 0,-78 97,-78 97,-98.75"/>
<text text-anchor="middle" x="48.5" y="-85.25" font-family="Helvetica,sans-Serif" font-size="10.00">wrap_w2c__f520</text>
</a>
</g>
</g>
<!-- Node3&#45;&gt;Node4 -->
<g id="edge3_Node000003_Node000004" class="edge">
<title>Node3&#45;&gt;Node4</title>
<g id="a_edge3_Node000003_Node000004"><a xlink:title=" ">
<path fill="none" stroke="#63b8ff" d="M135.95,-88.38C123.53,-88.38 110,-88.38 97.4,-88.38"/>
<polygon fill="#63b8ff" stroke="#63b8ff" points="135.93,-91.88 145.93,-88.38 135.93,-84.88 135.93,-91.88"/>
</a>
</g>
</g>
<!-- Node5&#45;&gt;Node3 -->
<g id="edge5_Node000005_Node000003" class="edge">
<title>Node5&#45;&gt;Node3</title>
<g id="a_edge5_Node000005_Node000003"><a xlink:title=" ">
<path fill="none" stroke="#63b8ff" d="M270.28,-62.46C252.49,-67.72 232.34,-73.66 215.83,-78.54"/>
<polygon fill="#63b8ff" stroke="#63b8ff" points="271.23,-65.83 279.83,-59.64 269.25,-59.12 271.23,-65.83"/>
</a>
</g>
</g>
<!-- Node6 -->
<g id="Node000006" class="node">
<title>Node6</title>
<g id="a_Node000006"><a xlink:href="app_8c.html#adc0b425fa65493482058a086393089b5" target="_top" xlink:title=" ">
<polygon fill="white" stroke="#666666" points="230,-59.75 133,-59.75 133,-39 230,-39 230,-59.75"/>
<text text-anchor="middle" x="181.5" y="-46.25" font-family="Helvetica,sans-Serif" font-size="10.00">wrap_w2c__f495</text>
</a>
</g>
</g>
<!-- Node5&#45;&gt;Node6 -->
<g id="edge6_Node000005_Node000006" class="edge">
<title>Node5&#45;&gt;Node6</title>
<g id="a_edge6_Node000005_Node000006"><a xlink:title=" ">
<path fill="none" stroke="#63b8ff" d="M269.96,-49.38C257.2,-49.38 243.25,-49.38 230.31,-49.38"/>
<polygon fill="#63b8ff" stroke="#63b8ff" points="269.77,-52.88 279.77,-49.38 269.77,-45.88 269.77,-52.88"/>
</a>
</g>
</g>
</g>
</svg>
