<?xml version="1.0" encoding="UTF-8" standalone="no"?>
<!DOCTYPE svg PUBLIC "-//W3C//DTD SVG 1.1//EN"
 "http://www.w3.org/Graphics/SVG/1.1/DTD/svg11.dtd">
<!-- Generated by graphviz version 12.2.1 (0)
 -->
<!-- Title: w2c__f500 Pages: 1 -->
<svg width="701pt" height="766pt"
 viewBox="0.00 0.00 700.50 765.75" xmlns="http://www.w3.org/2000/svg" xmlns:xlink="http://www.w3.org/1999/xlink">
<g id="graph0" class="graph" transform="scale(1 1) rotate(0) translate(4 761.75)">
<title>w2c__f500</title>
<!-- Node1 -->
<g id="Node000001" class="node">
<title>Node1</title>
<g id="a_Node000001"><a xlink:title=" ">
<polygon fill="#999999" stroke="#666666" points="67.75,-386.75 0,-386.75 0,-366 67.75,-366 67.75,-386.75"/>
<text text-anchor="middle" x="33.88" y="-373.25" font-family="Helvetica,sans-Serif" font-size="10.00">w2c__f500</text>
</a>
</g>
</g>
<!-- Node2 -->
<g id="Node000002" class="node">
<title>Node2</title>
<g id="a_Node000002"><a xlink:href="app_8c.html#a4b53a7e94216ec02a12a81319e766aac" target="_top" xlink:title=" ">
<polygon fill="white" stroke="#666666" points="173.75,-757.75 103.75,-757.75 103.75,-737 173.75,-737 173.75,-757.75"/>
<text text-anchor="middle" x="138.75" y="-744.25" font-family="Helvetica,sans-Serif" font-size="10.00">w2c_0_104</text>
</a>
</g>
</g>
<!-- Node1&#45;&gt;Node2 -->
<g id="edge1_Node000001_Node000002" class="edge">
<title>Node1&#45;&gt;Node2</title>
<g id="a_edge1_Node000001_Node000002"><a xlink:title=" ">
<path fill="none" stroke="#63b8ff" d="M35.79,-387C40.46,-439.38 63.09,-669.99 103.75,-727.38 104.15,-727.93 104.56,-728.48 105,-729.01"/>
<polygon fill="#63b8ff" stroke="#63b8ff" points="102.44,-731.42 112.21,-735.52 107.13,-726.22 102.44,-731.42"/>
</a>
</g>
</g>
<!-- Node3 -->
<g id="Node000003" class="node">
<title>Node3</title>
<g id="a_Node000003"><a xlink:href="app_8c.html#a8b2f2dd0746d3692a6b1f5504710b489" target="_top" xlink:title=" ">
<polygon fill="white" stroke="#666666" points="173.75,-718.75 103.75,-718.75 103.75,-698 173.75,-698 173.75,-718.75"/>
<text text-anchor="middle" x="138.75" y="-705.25" font-family="Helvetica,sans-Serif" font-size="10.00">w2c_0_114</text>
</a>
</g>
</g>
<!-- Node1&#45;&gt;Node3 -->
<g id="edge2_Node000001_Node000003" class="edge">
<title>Node1&#45;&gt;Node3</title>
<g id="a_edge2_Node000001_Node000003"><a xlink:title=" ">
<path fill="none" stroke="#63b8ff" d="M34.33,-387C32.72,-429.46 31.87,-589.41 103.75,-688.38 104.25,-689.06 104.78,-689.73 105.33,-690.37"/>
<polygon fill="#63b8ff" stroke="#63b8ff" points="102.78,-692.79 112.61,-696.73 107.38,-687.51 102.78,-692.79"/>
</a>
</g>
</g>
<!-- Node4 -->
<g id="Node000004" class="node">
<title>Node4</title>
<g id="a_Node000004"><a xlink:href="app_8c.html#a7438402b7e7bf0d5c1edd80b7ba72e1f" target="_top" xlink:title=" ">
<polygon fill="white" stroke="#666666" points="173.75,-679.75 103.75,-679.75 103.75,-659 173.75,-659 173.75,-679.75"/>
<text text-anchor="middle" x="138.75" y="-666.25" font-family="Helvetica,sans-Serif" font-size="10.00">w2c_0_128</text>
</a>
</g>
</g>
<!-- Node1&#45;&gt;Node4 -->
<g id="edge3_Node000001_Node000004" class="edge">
<title>Node1&#45;&gt;Node4</title>
<g id="a_edge3_Node000001_Node000004"><a xlink:title=" ">
<path fill="none" stroke="#63b8ff" d="M34.75,-387C34.83,-426.09 39.85,-564.1 103.75,-649.38 104.26,-650.05 104.8,-650.71 105.36,-651.35"/>
<polygon fill="#63b8ff" stroke="#63b8ff" points="102.83,-653.8 112.7,-657.67 107.4,-648.49 102.83,-653.8"/>
</a>
</g>
</g>
<!-- Node5 -->
<g id="Node000005" class="node">
<title>Node5</title>
<g id="a_Node000005"><a xlink:href="app_8c.html#ae29d60093e27470c0ea7d43879d00f11" target="_top" xlink:title=" ">
<polygon fill="white" stroke="#666666" points="173.75,-640.75 103.75,-640.75 103.75,-620 173.75,-620 173.75,-640.75"/>
<text text-anchor="middle" x="138.75" y="-627.25" font-family="Helvetica,sans-Serif" font-size="10.00">w2c_0_138</text>
</a>
</g>
</g>
<!-- Node1&#45;&gt;Node5 -->
<g id="edge4_Node000001_Node000005" class="edge">
<title>Node1&#45;&gt;Node5</title>
<g id="a_edge4_Node000001_Node000005"><a xlink:title=" ">
<path fill="none" stroke="#63b8ff" d="M35.3,-386.94C37.23,-422.33 47.74,-538.6 103.75,-610.38 104.27,-611.04 104.82,-611.69 105.4,-612.33"/>
<polygon fill="#63b8ff" stroke="#63b8ff" points="102.91,-614.8 112.8,-618.59 107.43,-609.46 102.91,-614.8"/>
</a>
</g>
</g>
<!-- Node6 -->
<g id="Node000006" class="node">
<title>Node6</title>
<g id="a_Node000006"><a xlink:href="app_8c.html#ad9db77a2760c6bc7bc182064bb83ee19" target="_top" xlink:title=" ">
<polygon fill="white" stroke="#666666" points="173.75,-601.75 103.75,-601.75 103.75,-581 173.75,-581 173.75,-601.75"/>
<text text-anchor="middle" x="138.75" y="-588.25" font-family="Helvetica,sans-Serif" font-size="10.00">w2c_0_149</text>
</a>
</g>
</g>
<!-- Node1&#45;&gt;Node6 -->
<g id="edge5_Node000001_Node000006" class="edge">
<title>Node1&#45;&gt;Node6</title>
<g id="a_edge5_Node000001_Node000006"><a xlink:title=" ">
<path fill="none" stroke="#63b8ff" d="M36.05,-386.91C40.02,-418.35 55.57,-512.91 103.75,-571.38 104.4,-572.16 105.09,-572.92 105.81,-573.66"/>
<polygon fill="#63b8ff" stroke="#63b8ff" points="103.31,-576.15 113.29,-579.72 107.72,-570.71 103.31,-576.15"/>
</a>
</g>
</g>
<!-- Node7 -->
<g id="Node000007" class="node">
<title>Node7</title>
<g id="a_Node000007"><a xlink:href="app_8c.html#aa0b61cf77a1fbe587a4685c7392eb2a1" target="_top" xlink:title=" ">
<polygon fill="white" stroke="#666666" points="173.75,-562.75 103.75,-562.75 103.75,-542 173.75,-542 173.75,-562.75"/>
<text text-anchor="middle" x="138.75" y="-549.25" font-family="Helvetica,sans-Serif" font-size="10.00">w2c_0_154</text>
</a>
</g>
</g>
<!-- Node1&#45;&gt;Node7 -->
<g id="edge6_Node000001_Node000007" class="edge">
<title>Node1&#45;&gt;Node7</title>
<g id="a_edge6_Node000001_Node000007"><a xlink:title=" ">
<path fill="none" stroke="#63b8ff" d="M37.18,-387.08C43.5,-414.28 63.39,-487.05 103.75,-532.38 104.45,-533.16 105.18,-533.92 105.95,-534.66"/>
<polygon fill="#63b8ff" stroke="#63b8ff" points="103.79,-537.42 113.84,-540.79 108.09,-531.89 103.79,-537.42"/>
</a>
</g>
</g>
<!-- Node8 -->
<g id="Node000008" class="node">
<title>Node8</title>
<g id="a_Node000008"><a xlink:href="app_8c.html#a54e1ef3f05b3789f7a2c6d79147ffeb3" target="_top" xlink:title=" ">
<polygon fill="white" stroke="#666666" points="173.75,-523.75 103.75,-523.75 103.75,-503 173.75,-503 173.75,-523.75"/>
<text text-anchor="middle" x="138.75" y="-510.25" font-family="Helvetica,sans-Serif" font-size="10.00">w2c_0_170</text>
</a>
</g>
</g>
<!-- Node1&#45;&gt;Node8 -->
<g id="edge7_Node000001_Node000008" class="edge">
<title>Node1&#45;&gt;Node8</title>
<g id="a_edge7_Node000001_Node000008"><a xlink:title=" ">
<path fill="none" stroke="#63b8ff" d="M38.93,-386.92C47.83,-408.96 70.91,-460.55 103.75,-493.38 104.62,-494.25 105.54,-495.09 106.49,-495.92"/>
<polygon fill="#63b8ff" stroke="#63b8ff" points="104.34,-498.68 114.49,-501.74 108.47,-493.03 104.34,-498.68"/>
</a>
</g>
</g>
<!-- Node9 -->
<g id="Node000009" class="node">
<title>Node9</title>
<g id="a_Node000009"><a xlink:href="app_8c.html#a0164717ce31d2df5fee540951caebe62" target="_top" xlink:title=" ">
<polygon fill="white" stroke="#666666" points="173.75,-484.75 103.75,-484.75 103.75,-464 173.75,-464 173.75,-484.75"/>
<text text-anchor="middle" x="138.75" y="-471.25" font-family="Helvetica,sans-Serif" font-size="10.00">w2c_0_181</text>
</a>
</g>
</g>
<!-- Node1&#45;&gt;Node9 -->
<g id="edge8_Node000001_Node000009" class="edge">
<title>Node1&#45;&gt;Node9</title>
<g id="a_edge8_Node000001_Node000009"><a xlink:title=" ">
<path fill="none" stroke="#63b8ff" d="M42.65,-387.18C54.54,-403.19 78.52,-433.57 103.75,-454.38 105,-455.41 106.32,-456.42 107.67,-457.41"/>
<polygon fill="#63b8ff" stroke="#63b8ff" points="105.38,-460.1 115.65,-462.69 109.24,-454.26 105.38,-460.1"/>
</a>
</g>
</g>
<!-- Node10 -->
<g id="Node000010" class="node">
<title>Node10</title>
<g id="a_Node000010"><a xlink:href="app_8c.html#ab8df49a9eeba8644a99f23740b559f7e" target="_top" xlink:title=" ">
<polygon fill="white" stroke="#666666" points="170.75,-445.75 106.75,-445.75 106.75,-425 170.75,-425 170.75,-445.75"/>
<text text-anchor="middle" x="138.75" y="-432.25" font-family="Helvetica,sans-Serif" font-size="10.00">w2c_0_71</text>
</a>
</g>
</g>
<!-- Node1&#45;&gt;Node10 -->
<g id="edge9_Node000001_Node000010" class="edge">
<title>Node1&#45;&gt;Node10</title>
<g id="a_edge9_Node000001_Node000010"><a xlink:title=" ">
<path fill="none" stroke="#63b8ff" d="M53.74,-387.2C69.26,-396.1 91.49,-408.85 109.19,-419"/>
<polygon fill="#63b8ff" stroke="#63b8ff" points="107.27,-421.93 117.69,-423.87 110.75,-415.86 107.27,-421.93"/>
</a>
</g>
</g>
<!-- Node11 -->
<g id="Node000011" class="node">
<title>Node11</title>
<g id="a_Node000011"><a xlink:href="app_8c.html#ab924d394d868075ccc7ea86f15195135" target="_top" xlink:title=" ">
<polygon fill="white" stroke="#666666" points="167.75,-406.75 109.75,-406.75 109.75,-386 167.75,-386 167.75,-406.75"/>
<text text-anchor="middle" x="138.75" y="-393.25" font-family="Helvetica,sans-Serif" font-size="10.00">w2c_0_8</text>
</a>
</g>
</g>
<!-- Node1&#45;&gt;Node11 -->
<g id="edge10_Node000001_Node000011" class="edge">
<title>Node1&#45;&gt;Node11</title>
<g id="a_edge10_Node000001_Node000011"><a xlink:title=" ">
<path fill="none" stroke="#63b8ff" d="M67.99,-382.81C77.72,-384.7 88.46,-386.79 98.53,-388.75"/>
<polygon fill="#63b8ff" stroke="#63b8ff" points="97.56,-392.13 108.05,-390.6 98.9,-385.26 97.56,-392.13"/>
</a>
</g>
</g>
<!-- Node12 -->
<g id="Node000012" class="node">
<title>Node12</title>
<g id="a_Node000012"><a xlink:href="app_8c.html#a48ecc1104e7460873bafe7d1b275e34e" target="_top" xlink:title=" ">
<polygon fill="white" stroke="#666666" points="170.75,-367.75 106.75,-367.75 106.75,-347 170.75,-347 170.75,-367.75"/>
<text text-anchor="middle" x="138.75" y="-354.25" font-family="Helvetica,sans-Serif" font-size="10.00">w2c_0_87</text>
</a>
</g>
</g>
<!-- Node1&#45;&gt;Node12 -->
<g id="edge11_Node000001_Node000012" class="edge">
<title>Node1&#45;&gt;Node12</title>
<g id="a_edge11_Node000001_Node000012"><a xlink:title=" ">
<path fill="none" stroke="#63b8ff" d="M67.99,-370.26C76.66,-368.66 86.14,-366.91 95.23,-365.23"/>
<polygon fill="#63b8ff" stroke="#63b8ff" points="95.76,-368.69 104.96,-363.43 94.49,-361.81 95.76,-368.69"/>
</a>
</g>
</g>
<!-- Node13 -->
<g id="Node000013" class="node">
<title>Node13</title>
<g id="a_Node000013"><a xlink:href="app_8c.html#a89669d859b497acd4d687ede771c8589" target="_top" xlink:title=" ">
<polygon fill="white" stroke="#666666" points="170.75,-328.75 106.75,-328.75 106.75,-308 170.75,-308 170.75,-328.75"/>
<text text-anchor="middle" x="138.75" y="-315.25" font-family="Helvetica,sans-Serif" font-size="10.00">w2c_0_96</text>
</a>
</g>
</g>
<!-- Node1&#45;&gt;Node13 -->
<g id="edge12_Node000001_Node000013" class="edge">
<title>Node1&#45;&gt;Node13</title>
<g id="a_edge12_Node000001_Node000013"><a xlink:title=" ">
<path fill="none" stroke="#63b8ff" d="M53.74,-365.74C69.16,-357.04 91.22,-344.61 108.86,-334.66"/>
<polygon fill="#63b8ff" stroke="#63b8ff" points="110.34,-337.85 117.33,-329.89 106.9,-331.75 110.34,-337.85"/>
</a>
</g>
</g>
<!-- Node14 -->
<g id="Node000014" class="node">
<title>Node14</title>
<g id="a_Node000014"><a xlink:href="app_8c.html#a03fa34d93d32a3ee40dfc2d840730111" target="_top" xlink:title=" ">
<polygon fill="white" stroke="#666666" points="588.75,-293.75 521,-293.75 521,-273 588.75,-273 588.75,-293.75"/>
<text text-anchor="middle" x="554.88" y="-280.25" font-family="Helvetica,sans-Serif" font-size="10.00">w2c__f262</text>
</a>
</g>
</g>
<!-- Node1&#45;&gt;Node14 -->
<g id="edge13_Node000001_Node000014" class="edge">
<title>Node1&#45;&gt;Node14</title>
<g id="a_edge13_Node000001_Node000014"><a xlink:title=" ">
<path fill="none" stroke="#63b8ff" d="M40.52,-365.59C50.49,-347.84 73.13,-313.07 103.75,-299.38 132.15,-286.67 142.64,-299.31 173.75,-299.38 281.97,-299.6 309.03,-300.15 417.25,-300.38 447.36,-300.44 455.11,-304.01 485,-300.38 492.98,-299.41 501.36,-297.83 509.43,-296.01"/>
<polygon fill="#63b8ff" stroke="#63b8ff" points="510.18,-299.43 519.08,-293.68 508.53,-292.63 510.18,-299.43"/>
</a>
</g>
</g>
<!-- Node17 -->
<g id="Node000017" class="node">
<title>Node17</title>
<g id="a_Node000017"><a xlink:href="app_8c.html#a34d18545510c7604d64db5651af2a253" target="_top" xlink:title=" ">
<polygon fill="white" stroke="#666666" points="172.62,-137.75 104.88,-137.75 104.88,-117 172.62,-117 172.62,-137.75"/>
<text text-anchor="middle" x="138.75" y="-124.25" font-family="Helvetica,sans-Serif" font-size="10.00">w2c__f332</text>
</a>
</g>
</g>
<!-- Node1&#45;&gt;Node17 -->
<g id="edge16_Node000001_Node000017" class="edge">
<title>Node1&#45;&gt;Node17</title>
<g id="a_edge16_Node000001_Node000017"><a xlink:title=" ">
<path fill="none" stroke="#63b8ff" d="M35.4,-365.55C37.62,-330.33 48.88,-217.25 103.75,-147.38 104.27,-146.71 104.83,-146.06 105.4,-145.43"/>
<polygon fill="#63b8ff" stroke="#63b8ff" points="107.43,-148.3 112.82,-139.17 102.92,-142.94 107.43,-148.3"/>
</a>
</g>
</g>
<!-- Node18 -->
<g id="Node000018" class="node">
<title>Node18</title>
<g id="a_Node000018"><a xlink:href="app_8c.html#aa583f182f69261eb6417ee28acf1bedb" target="_top" xlink:title=" ">
<polygon fill="white" stroke="#666666" points="172.62,-98.75 104.88,-98.75 104.88,-78 172.62,-78 172.62,-98.75"/>
<text text-anchor="middle" x="138.75" y="-85.25" font-family="Helvetica,sans-Serif" font-size="10.00">w2c__f416</text>
</a>
</g>
</g>
<!-- Node1&#45;&gt;Node18 -->
<g id="edge17_Node000001_Node000018" class="edge">
<title>Node1&#45;&gt;Node18</title>
<g id="a_edge17_Node000001_Node000018"><a xlink:title=" ">
<path fill="none" stroke="#63b8ff" d="M34.82,-365.68C35.13,-326.93 40.91,-191.85 103.75,-108.38 104.26,-107.7 104.8,-107.04 105.37,-106.4"/>
<polygon fill="#63b8ff" stroke="#63b8ff" points="107.4,-109.26 112.71,-100.09 102.84,-103.95 107.4,-109.26"/>
</a>
</g>
</g>
<!-- Node19 -->
<g id="Node000019" class="node">
<title>Node19</title>
<g id="a_Node000019"><a xlink:href="app_8c.html#af732b1ecf09ff688adde158c29714bcd" target="_top" xlink:title=" ">
<polygon fill="white" stroke="#666666" points="172.62,-59.75 104.88,-59.75 104.88,-39 172.62,-39 172.62,-59.75"/>
<text text-anchor="middle" x="138.75" y="-46.25" font-family="Helvetica,sans-Serif" font-size="10.00">w2c__f436</text>
</a>
</g>
</g>
<!-- Node1&#45;&gt;Node19 -->
<g id="edge18_Node000001_Node000019" class="edge">
<title>Node1&#45;&gt;Node19</title>
<g id="a_edge18_Node000001_Node000019"><a xlink:title=" ">
<path fill="none" stroke="#63b8ff" d="M34.38,-365.63C32.98,-323.41 32.96,-166.49 103.75,-69.38 104.25,-68.69 104.78,-68.02 105.34,-67.38"/>
<polygon fill="#63b8ff" stroke="#63b8ff" points="107.38,-70.24 112.62,-61.03 102.78,-64.96 107.38,-70.24"/>
</a>
</g>
</g>
<!-- Node20 -->
<g id="Node000020" class="node">
<title>Node20</title>
<g id="a_Node000020"><a xlink:href="app_8c.html#a990f8a9d4528c9216baea17b3c64a813" target="_top" xlink:title=" ">
<polygon fill="white" stroke="#666666" points="172.62,-20.75 104.88,-20.75 104.88,0 172.62,0 172.62,-20.75"/>
<text text-anchor="middle" x="138.75" y="-7.25" font-family="Helvetica,sans-Serif" font-size="10.00">w2c__f485</text>
</a>
</g>
</g>
<!-- Node1&#45;&gt;Node20 -->
<g id="edge19_Node000001_Node000020" class="edge">
<title>Node1&#45;&gt;Node20</title>
<g id="a_edge19_Node000001_Node000020"><a xlink:title=" ">
<path fill="none" stroke="#63b8ff" d="M35.84,-365.56C40.68,-313.26 63.66,-86.79 103.75,-30.38 104.15,-29.82 104.56,-29.27 105,-28.74"/>
<polygon fill="#63b8ff" stroke="#63b8ff" points="107.13,-31.53 112.22,-22.23 102.45,-26.33 107.13,-31.53"/>
</a>
</g>
</g>
<!-- Node22 -->
<g id="Node000022" class="node">
<title>Node22</title>
<g id="a_Node000022"><a xlink:href="app_8c.html#a800df00ef236c6d6affc3c661b37e3ad" target="_top" xlink:title=" ">
<polygon fill="white" stroke="#666666" points="588.75,-215.75 521,-215.75 521,-195 588.75,-195 588.75,-215.75"/>
<text text-anchor="middle" x="554.88" y="-202.25" font-family="Helvetica,sans-Serif" font-size="10.00">w2c__f487</text>
</a>
</g>
</g>
<!-- Node1&#45;&gt;Node22 -->
<g id="edge21_Node000001_Node000022" class="edge">
<title>Node1&#45;&gt;Node22</title>
<g id="a_edge21_Node000001_Node000022"><a xlink:title=" ">
<path fill="none" stroke="#63b8ff" d="M36.17,-365.67C40.23,-337.23 55.45,-259.48 103.75,-223.38 153.65,-186.08 180.33,-204.38 242.62,-204.38 242.62,-204.38 242.62,-204.38 348.38,-204.38 403.86,-204.38 467.77,-204.74 509.39,-205.03"/>
<polygon fill="#63b8ff" stroke="#63b8ff" points="509.24,-208.53 519.26,-205.1 509.29,-201.53 509.24,-208.53"/>
</a>
</g>
</g>
<!-- Node23 -->
<g id="Node000023" class="node">
<title>Node23</title>
<g id="a_Node000023"><a xlink:href="app_8c.html#a6ed4d3a30c137f002c0294253d206acb" target="_top" xlink:title=" ">
<polygon fill="white" stroke="#666666" points="172.62,-176.75 104.88,-176.75 104.88,-156 172.62,-156 172.62,-176.75"/>
<text text-anchor="middle" x="138.75" y="-163.25" font-family="Helvetica,sans-Serif" font-size="10.00">w2c__f504</text>
</a>
</g>
</g>
<!-- Node1&#45;&gt;Node23 -->
<g id="edge23_Node000001_Node000023" class="edge">
<title>Node1&#45;&gt;Node23</title>
<g id="a_edge23_Node000001_Node000023"><a xlink:title=" ">
<path fill="none" stroke="#63b8ff" d="M36.55,-365.64C41.74,-335.3 59.89,-247.43 103.75,-190.38 105.48,-188.12 107.49,-185.99 109.64,-184"/>
<polygon fill="#63b8ff" stroke="#63b8ff" points="111.55,-186.95 117.22,-178 107.2,-181.47 111.55,-186.95"/>
</a>
</g>
</g>
<!-- Node26 -->
<g id="Node000026" class="node">
<title>Node26</title>
<g id="a_Node000026"><a xlink:href="app_8c.html#a0d2b9d1e465bd8169ebd6cf08afb1f69" target="_top" xlink:title=" ">
<polygon fill="white" stroke="#666666" points="172.62,-252.75 104.88,-252.75 104.88,-232 172.62,-232 172.62,-252.75"/>
<text text-anchor="middle" x="138.75" y="-239.25" font-family="Helvetica,sans-Serif" font-size="10.00">w2c__f551</text>
</a>
</g>
</g>
<!-- Node1&#45;&gt;Node26 -->
<g id="edge26_Node000001_Node000026" class="edge">
<title>Node1&#45;&gt;Node26</title>
<g id="a_edge26_Node000001_Node000026"><a xlink:title=" ">
<path fill="none" stroke="#63b8ff" d="M39.75,-365.73C49.64,-344.93 73.71,-298.13 103.75,-266.38 105.87,-264.14 108.22,-261.98 110.67,-259.94"/>
<polygon fill="#63b8ff" stroke="#63b8ff" points="112.65,-262.84 118.53,-254.03 108.44,-257.24 112.65,-262.84"/>
</a>
</g>
</g>
<!-- Node15 -->
<g id="Node000015" class="node">
<title>Node15</title>
<g id="a_Node000015"><a xlink:href="app_8c.html#a16207b5f7a97b0ecfddd231452c5aa7e" target="_top" xlink:title=" ">
<polygon fill="white" stroke="#666666" points="692.5,-293.75 624.75,-293.75 624.75,-273 692.5,-273 692.5,-293.75"/>
<text text-anchor="middle" x="658.62" y="-280.25" font-family="Helvetica,sans-Serif" font-size="10.00">w2c__f263</text>
</a>
</g>
</g>
<!-- Node14&#45;&gt;Node15 -->
<g id="edge14_Node000014_Node000015" class="edge">
<title>Node14&#45;&gt;Node15</title>
<g id="a_edge14_Node000014_Node000015"><a xlink:title=" ">
<path fill="none" stroke="#63b8ff" d="M589.19,-283.38C596.82,-283.38 605.06,-283.38 613.08,-283.38"/>
<polygon fill="#63b8ff" stroke="#63b8ff" points="613.07,-286.88 623.07,-283.38 613.07,-279.88 613.07,-286.88"/>
</a>
</g>
</g>
<!-- Node16 -->
<g id="Node000016" class="node">
<title>Node16</title>
<g id="a_Node000016"><a xlink:href="app_8c.html#a71bcbce7faf780cd081af3fa82d6da97" target="_top" xlink:title=" ">
<polygon fill="white" stroke="#666666" points="692.5,-254.75 624.75,-254.75 624.75,-234 692.5,-234 692.5,-254.75"/>
<text text-anchor="middle" x="658.62" y="-241.25" font-family="Helvetica,sans-Serif" font-size="10.00">w2c__f437</text>
</a>
</g>
</g>
<!-- Node14&#45;&gt;Node16 -->
<g id="edge15_Node000014_Node000016" class="edge">
<title>Node14&#45;&gt;Node16</title>
<g id="a_edge15_Node000014_Node000016"><a xlink:title=" ">
<path fill="none" stroke="#63b8ff" d="M584.22,-272.51C594.91,-268.41 607.27,-263.67 618.76,-259.27"/>
<polygon fill="#63b8ff" stroke="#63b8ff" points="619.94,-262.57 628.02,-255.72 617.43,-256.03 619.94,-262.57"/>
</a>
</g>
</g>
<!-- Node21 -->
<g id="Node000021" class="node">
<title>Node21</title>
<g id="a_Node000021"><a xlink:href="app_8c.html#a5d082dff6c4c25de25da9f4dc538c097" target="_top" xlink:title=" ">
<polygon fill="white" stroke="#666666" points="277.5,-20.75 209.75,-20.75 209.75,0 277.5,0 277.5,-20.75"/>
<text text-anchor="middle" x="243.62" y="-7.25" font-family="Helvetica,sans-Serif" font-size="10.00">w2c__f265</text>
</a>
</g>
</g>
<!-- Node20&#45;&gt;Node21 -->
<g id="edge20_Node000020_Node000021" class="edge">
<title>Node20&#45;&gt;Node21</title>
<g id="a_edge20_Node000020_Node000021"><a xlink:title=" ">
<path fill="none" stroke="#63b8ff" d="M172.87,-10.38C180.94,-10.38 189.71,-10.38 198.22,-10.38"/>
<polygon fill="#63b8ff" stroke="#63b8ff" points="198.06,-13.88 208.06,-10.38 198.06,-6.88 198.06,-13.88"/>
</a>
</g>
</g>
<!-- Node22&#45;&gt;Node16 -->
<g id="edge22_Node000022_Node000016" class="edge">
<title>Node22&#45;&gt;Node16</title>
<g id="a_edge22_Node000022_Node000016"><a xlink:title=" ">
<path fill="none" stroke="#63b8ff" d="M584.22,-216.24C594.91,-220.34 607.27,-225.08 618.76,-229.48"/>
<polygon fill="#63b8ff" stroke="#63b8ff" points="617.43,-232.72 628.02,-233.03 619.94,-226.18 617.43,-232.72"/>
</a>
</g>
</g>
<!-- Node24 -->
<g id="Node000024" class="node">
<title>Node24</title>
<g id="a_Node000024"><a xlink:href="app_8c.html#a0e0dad0ebc52e45eeff2e1b5d8389ea4" target="_top" xlink:title=" ">
<polygon fill="white" stroke="#666666" points="588.75,-176.75 521,-176.75 521,-156 588.75,-156 588.75,-176.75"/>
<text text-anchor="middle" x="554.88" y="-163.25" font-family="Helvetica,sans-Serif" font-size="10.00">w2c__f534</text>
</a>
</g>
</g>
<!-- Node23&#45;&gt;Node24 -->
<g id="edge24_Node000023_Node000024" class="edge">
<title>Node23&#45;&gt;Node24</title>
<g id="a_edge24_Node000023_Node000024"><a xlink:title=" ">
<path fill="none" stroke="#63b8ff" d="M172.94,-166.38C246.92,-166.38 425.42,-166.38 509.13,-166.38"/>
<polygon fill="#63b8ff" stroke="#63b8ff" points="509.01,-169.88 519.01,-166.38 509.01,-162.88 509.01,-169.88"/>
</a>
</g>
</g>
<!-- Node25 -->
<g id="Node000025" class="node">
<title>Node25</title>
<g id="a_Node000025"><a xlink:href="app_8c.html#a1b33810b824b3b37999b55db2c1fb45d" target="_top" xlink:title=" ">
<polygon fill="white" stroke="#666666" points="277.5,-138.75 209.75,-138.75 209.75,-118 277.5,-118 277.5,-138.75"/>
<text text-anchor="middle" x="243.62" y="-125.25" font-family="Helvetica,sans-Serif" font-size="10.00">w2c__f555</text>
</a>
</g>
</g>
<!-- Node23&#45;&gt;Node25 -->
<g id="edge25_Node000023_Node000025" class="edge">
<title>Node23&#45;&gt;Node25</title>
<g id="a_edge25_Node000023_Node000025"><a xlink:title=" ">
<path fill="none" stroke="#63b8ff" d="M168.95,-155.59C179.49,-151.7 191.56,-147.24 202.85,-143.07"/>
<polygon fill="#63b8ff" stroke="#63b8ff" points="203.76,-146.46 211.93,-139.71 201.33,-139.9 203.76,-146.46"/>
</a>
</g>
</g>
<!-- Node27 -->
<g id="Node000027" class="node">
<title>Node27</title>
<g id="a_Node000027"><a xlink:href="app_8c.html#a70885389166a2cbcb9e78af289ffa12e" target="_top" xlink:title=" ">
<polygon fill="white" stroke="#666666" points="277.5,-252.75 209.75,-252.75 209.75,-232 277.5,-232 277.5,-252.75"/>
<text text-anchor="middle" x="243.62" y="-239.25" font-family="Helvetica,sans-Serif" font-size="10.00">w2c__f577</text>
</a>
</g>
</g>
<!-- Node26&#45;&gt;Node27 -->
<g id="edge27_Node000026_Node000027" class="edge">
<title>Node26&#45;&gt;Node27</title>
<g id="a_edge27_Node000026_Node000027"><a xlink:title=" ">
<path fill="none" stroke="#63b8ff" d="M172.87,-242.38C180.94,-242.38 189.71,-242.38 198.22,-242.38"/>
<polygon fill="#63b8ff" stroke="#63b8ff" points="198.06,-245.88 208.06,-242.38 198.06,-238.88 198.06,-245.88"/>
</a>
</g>
</g>
<!-- Node28 -->
<g id="Node000028" class="node">
<title>Node28</title>
<g id="a_Node000028"><a xlink:href="app_8c.html#a14e021d2f1b59e04757852f66bff1044" target="_top" xlink:title=" ">
<polygon fill="white" stroke="#666666" points="381.25,-252.75 313.5,-252.75 313.5,-232 381.25,-232 381.25,-252.75"/>
<text text-anchor="middle" x="347.38" y="-239.25" font-family="Helvetica,sans-Serif" font-size="10.00">w2c__f511</text>
</a>
</g>
</g>
<!-- Node27&#45;&gt;Node28 -->
<g id="edge28_Node000027_Node000028" class="edge">
<title>Node27&#45;&gt;Node28</title>
<g id="a_edge28_Node000027_Node000028"><a xlink:title=" ">
<path fill="none" stroke="#63b8ff" d="M277.94,-242.38C285.57,-242.38 293.81,-242.38 301.83,-242.38"/>
<polygon fill="#63b8ff" stroke="#63b8ff" points="301.82,-245.88 311.82,-242.38 301.82,-238.88 301.82,-245.88"/>
</a>
</g>
</g>
<!-- Node29 -->
<g id="Node000029" class="node">
<title>Node29</title>
<g id="a_Node000029"><a xlink:href="app_8c.html#aa58fd7f1d3aab8404d7f71d334a8a108" target="_top" xlink:title=" ">
<polygon fill="white" stroke="#666666" points="485,-291.75 417.25,-291.75 417.25,-271 485,-271 485,-291.75"/>
<text text-anchor="middle" x="451.12" y="-278.25" font-family="Helvetica,sans-Serif" font-size="10.00">w2c__f211</text>
</a>
</g>
</g>
<!-- Node28&#45;&gt;Node29 -->
<g id="edge29_Node000028_Node000029" class="edge">
<title>Node28&#45;&gt;Node29</title>
<g id="a_edge29_Node000028_Node000029"><a xlink:title=" ">
<path fill="none" stroke="#63b8ff" d="M376.72,-253.24C387.41,-257.34 399.77,-262.08 411.26,-266.48"/>
<polygon fill="#63b8ff" stroke="#63b8ff" points="409.93,-269.72 420.52,-270.03 412.44,-263.18 409.93,-269.72"/>
</a>
</g>
</g>
<!-- Node31 -->
<g id="Node000031" class="node">
<title>Node31</title>
<g id="a_Node000031"><a xlink:href="app_8c.html#a8c90e9acf2d5915eb0476bc13964c4db" target="_top" xlink:title=" ">
<polygon fill="white" stroke="#666666" points="485,-252.75 417.25,-252.75 417.25,-232 485,-232 485,-252.75"/>
<text text-anchor="middle" x="451.12" y="-239.25" font-family="Helvetica,sans-Serif" font-size="10.00">w2c__f345</text>
</a>
</g>
</g>
<!-- Node28&#45;&gt;Node31 -->
<g id="edge33_Node000028_Node000031" class="edge">
<title>Node28&#45;&gt;Node31</title>
<g id="a_edge33_Node000028_Node000031"><a xlink:title=" ">
<path fill="none" stroke="#63b8ff" d="M381.69,-242.38C389.32,-242.38 397.56,-242.38 405.58,-242.38"/>
<polygon fill="#63b8ff" stroke="#63b8ff" points="405.57,-245.88 415.57,-242.38 405.57,-238.88 405.57,-245.88"/>
</a>
</g>
</g>
<!-- Node29&#45;&gt;Node14 -->
<g id="edge30_Node000029_Node000014" class="edge">
<title>Node29&#45;&gt;Node14</title>
<g id="a_edge30_Node000029_Node000014"><a xlink:title=" ">
<path fill="none" stroke="#63b8ff" d="M485.44,-282.03C493.07,-282.18 501.31,-282.34 509.33,-282.5"/>
<polygon fill="#63b8ff" stroke="#63b8ff" points="509.25,-286 519.32,-282.7 509.39,-279 509.25,-286"/>
</a>
</g>
</g>
<!-- Node30 -->
<g id="Node000030" class="node">
<title>Node30</title>
<g id="a_Node000030"><a xlink:href="app_8c.html#a31b08a294227a9fc0a529e66ccd915dc" target="_top" xlink:title=" ">
<polygon fill="white" stroke="#666666" points="588.75,-254.75 521,-254.75 521,-234 588.75,-234 588.75,-254.75"/>
<text text-anchor="middle" x="554.88" y="-241.25" font-family="Helvetica,sans-Serif" font-size="10.00">w2c__f325</text>
</a>
</g>
</g>
<!-- Node29&#45;&gt;Node30 -->
<g id="edge31_Node000029_Node000030" class="edge">
<title>Node29&#45;&gt;Node30</title>
<g id="a_edge31_Node000029_Node000030"><a xlink:title=" ">
<path fill="none" stroke="#63b8ff" d="M481.83,-270.57C491.75,-266.96 502.99,-262.88 513.58,-259.03"/>
<polygon fill="#63b8ff" stroke="#63b8ff" points="514.69,-262.35 522.89,-255.64 512.29,-255.77 514.69,-262.35"/>
</a>
</g>
</g>
<!-- Node30&#45;&gt;Node16 -->
<g id="edge32_Node000030_Node000016" class="edge">
<title>Node30&#45;&gt;Node16</title>
<g id="a_edge32_Node000030_Node000016"><a xlink:title=" ">
<path fill="none" stroke="#63b8ff" d="M589.19,-244.38C596.82,-244.38 605.06,-244.38 613.08,-244.38"/>
<polygon fill="#63b8ff" stroke="#63b8ff" points="613.07,-247.88 623.07,-244.38 613.07,-240.88 613.07,-247.88"/>
</a>
</g>
</g>
<!-- Node31&#45;&gt;Node14 -->
<g id="edge34_Node000031_Node000014" class="edge">
<title>Node31&#45;&gt;Node14</title>
<g id="a_edge34_Node000031_Node000014"><a xlink:title=" ">
<path fill="none" stroke="#63b8ff" d="M478.86,-253.15C490.33,-257.77 503.94,-263.26 516.4,-268.27"/>
<polygon fill="#63b8ff" stroke="#63b8ff" points="514.98,-271.48 525.56,-271.97 517.6,-264.98 514.98,-271.48"/>
</a>
</g>
</g>
<!-- Node31&#45;&gt;Node22 -->
<g id="edge36_Node000031_Node000022" class="edge">
<title>Node31&#45;&gt;Node22</title>
<g id="a_edge36_Node000031_Node000022"><a xlink:title=" ">
<path fill="none" stroke="#63b8ff" d="M481.83,-231.57C491.75,-227.96 502.99,-223.88 513.58,-220.03"/>
<polygon fill="#63b8ff" stroke="#63b8ff" points="514.69,-223.35 522.89,-216.64 512.29,-216.77 514.69,-223.35"/>
</a>
</g>
</g>
<!-- Node31&#45;&gt;Node24 -->
<g id="edge37_Node000031_Node000024" class="edge">
<title>Node31&#45;&gt;Node24</title>
<g id="a_edge37_Node000031_Node000024"><a xlink:title=" ">
<path fill="none" stroke="#63b8ff" d="M464.42,-231.52C477.89,-219.83 500.35,-200.95 521,-186.38 522.54,-185.29 524.14,-184.2 525.76,-183.12"/>
<polygon fill="#63b8ff" stroke="#63b8ff" points="527.32,-186.28 533.88,-177.97 523.56,-180.37 527.32,-186.28"/>
</a>
</g>
</g>
<!-- Node31&#45;&gt;Node30 -->
<g id="edge35_Node000031_Node000030" class="edge">
<title>Node31&#45;&gt;Node30</title>
<g id="a_edge35_Node000031_Node000030"><a xlink:title=" ">
<path fill="none" stroke="#63b8ff" d="M485.44,-243.03C493.07,-243.18 501.31,-243.34 509.33,-243.5"/>
<polygon fill="#63b8ff" stroke="#63b8ff" points="509.25,-247 519.32,-243.7 509.39,-240 509.25,-247"/>
</a>
</g>
</g>
</g>
</svg>
