<?xml version="1.0" encoding="UTF-8" standalone="no"?>
<!DOCTYPE svg PUBLIC "-//W3C//DTD SVG 1.1//EN"
 "http://www.w3.org/Graphics/SVG/1.1/DTD/svg11.dtd">
<!-- Generated by graphviz version 12.2.1 (0)
 -->
<!-- Title: w2c__f564 Pages: 1 -->
<svg width="804pt" height="908pt"
 viewBox="0.00 0.00 804.25 908.38" xmlns="http://www.w3.org/2000/svg" xmlns:xlink="http://www.w3.org/1999/xlink">
<g id="graph0" class="graph" transform="scale(1 1) rotate(0) translate(4 904.38)">
<title>w2c__f564</title>
<!-- Node1 -->
<g id="Node000001" class="node">
<title>Node1</title>
<g id="a_Node000001"><a xlink:title=" ">
<polygon fill="#999999" stroke="#666666" points="67.75,-815.75 0,-815.75 0,-795 67.75,-795 67.75,-815.75"/>
<text text-anchor="middle" x="33.88" y="-802.25" font-family="Helvetica,sans-Serif" font-size="10.00">w2c__f564</text>
</a>
</g>
</g>
<!-- Node2 -->
<g id="Node000002" class="node">
<title>Node2</title>
<g id="a_Node000002"><a xlink:href="app_8c.html#a16b87571119c211bed30fa7b8b381ed7" target="_top" xlink:title=" ">
<polygon fill="white" stroke="#666666" points="171.5,-835.75 103.75,-835.75 103.75,-815 171.5,-815 171.5,-835.75"/>
<text text-anchor="middle" x="137.62" y="-822.25" font-family="Helvetica,sans-Serif" font-size="10.00">w2c__f224</text>
</a>
</g>
</g>
<!-- Node1&#45;&gt;Node2 -->
<g id="edge1_Node000001_Node000002" class="edge">
<title>Node1&#45;&gt;Node2</title>
<g id="a_edge1_Node000001_Node000002"><a xlink:title=" ">
<path fill="none" stroke="#63b8ff" d="M68.19,-811.92C75.91,-813.44 84.25,-815.08 92.36,-816.67"/>
<polygon fill="#63b8ff" stroke="#63b8ff" points="91.61,-820.09 102.1,-818.59 92.96,-813.22 91.61,-820.09"/>
</a>
</g>
</g>
<!-- Node3 -->
<g id="Node000003" class="node">
<title>Node3</title>
<g id="a_Node000003"><a xlink:href="app_8c.html#a800df00ef236c6d6affc3c661b37e3ad" target="_top" xlink:title=" ">
<polygon fill="white" stroke="#666666" points="692.5,-787.75 624.75,-787.75 624.75,-767 692.5,-767 692.5,-787.75"/>
<text text-anchor="middle" x="658.62" y="-774.25" font-family="Helvetica,sans-Serif" font-size="10.00">w2c__f487</text>
</a>
</g>
</g>
<!-- Node1&#45;&gt;Node3 -->
<g id="edge19_Node000001_Node000003" class="edge">
<title>Node1&#45;&gt;Node3</title>
<g id="a_edge19_Node000001_Node000003"><a xlink:title=" ">
<path fill="none" stroke="#63b8ff" d="M47.47,-815.9C78.39,-840.64 161.35,-900.38 241.5,-900.38 241.5,-900.38 241.5,-900.38 452.12,-900.38 516.79,-900.38 534.76,-885.95 588.75,-850.38 610.56,-836 630.44,-813.44 643.18,-797.2"/>
<polygon fill="#63b8ff" stroke="#63b8ff" points="645.96,-799.32 649.22,-789.24 640.38,-795.08 645.96,-799.32"/>
</a>
</g>
</g>
<!-- Node14 -->
<g id="Node000014" class="node">
<title>Node14</title>
<g id="a_Node000014"><a xlink:href="app_8c.html#a5e8ebcb374cf6f9becc37f51cd9ebc0e" target="_top" xlink:title=" ">
<polygon fill="white" stroke="#666666" points="171.5,-408.75 103.75,-408.75 103.75,-388 171.5,-388 171.5,-408.75"/>
<text text-anchor="middle" x="137.62" y="-395.25" font-family="Helvetica,sans-Serif" font-size="10.00">w2c__f500</text>
</a>
</g>
</g>
<!-- Node1&#45;&gt;Node14 -->
<g id="edge20_Node000001_Node000014" class="edge">
<title>Node1&#45;&gt;Node14</title>
<g id="a_edge20_Node000001_Node000014"><a xlink:title=" ">
<path fill="none" stroke="#63b8ff" d="M37.49,-794.91C50.96,-741.04 112.52,-494.79 131.22,-419.99"/>
<polygon fill="#63b8ff" stroke="#63b8ff" points="134.53,-421.17 133.56,-410.62 127.74,-419.47 134.53,-421.17"/>
</a>
</g>
</g>
<!-- Node36 -->
<g id="Node000036" class="node">
<title>Node36</title>
<g id="a_Node000036"><a xlink:href="app_8c.html#a1fa898c1f1731fb2a8ecdb90bf4383a7" target="_top" xlink:title=" ">
<polygon fill="white" stroke="#666666" points="171.5,-796.75 103.75,-796.75 103.75,-776 171.5,-776 171.5,-796.75"/>
<text text-anchor="middle" x="137.62" y="-783.25" font-family="Helvetica,sans-Serif" font-size="10.00">w2c__f533</text>
</a>
</g>
</g>
<!-- Node1&#45;&gt;Node36 -->
<g id="edge46_Node000001_Node000036" class="edge">
<title>Node1&#45;&gt;Node36</title>
<g id="a_edge46_Node000001_Node000036"><a xlink:title=" ">
<path fill="none" stroke="#63b8ff" d="M68.19,-799.15C75.91,-797.71 84.25,-796.16 92.36,-794.64"/>
<polygon fill="#63b8ff" stroke="#63b8ff" points="92.91,-798.1 102.09,-792.82 91.62,-791.22 92.91,-798.1"/>
</a>
</g>
</g>
<!-- Node2&#45;&gt;Node3 -->
<g id="edge2_Node000002_Node000003" class="edge">
<title>Node2&#45;&gt;Node3</title>
<g id="a_edge2_Node000002_Node000003"><a xlink:title=" ">
<path fill="none" stroke="#63b8ff" d="M171.76,-835C212.5,-845.96 283.91,-862.38 346.38,-862.38 346.38,-862.38 346.38,-862.38 452.12,-862.38 522.35,-862.38 596.53,-819.46 633.59,-794.62"/>
<polygon fill="#63b8ff" stroke="#63b8ff" points="635.51,-797.54 641.78,-789 631.55,-791.77 635.51,-797.54"/>
</a>
</g>
</g>
<!-- Node5 -->
<g id="Node000005" class="node">
<title>Node5</title>
<g id="a_Node000005"><a xlink:href="app_8c.html#a5143f7bebd925f0663756f10aef87ef0" target="_top" xlink:title=" ">
<polygon fill="white" stroke="#666666" points="276.38,-834.75 208.62,-834.75 208.62,-814 276.38,-814 276.38,-834.75"/>
<text text-anchor="middle" x="242.5" y="-821.25" font-family="Helvetica,sans-Serif" font-size="10.00">w2c__f570</text>
</a>
</g>
</g>
<!-- Node2&#45;&gt;Node5 -->
<g id="edge4_Node000002_Node000005" class="edge">
<title>Node2&#45;&gt;Node5</title>
<g id="a_edge4_Node000002_Node000005"><a xlink:title=" ">
<path fill="none" stroke="#63b8ff" d="M171.74,-825.05C179.82,-824.97 188.59,-824.89 197.1,-824.81"/>
<polygon fill="#63b8ff" stroke="#63b8ff" points="196.97,-828.31 206.93,-824.71 196.9,-821.31 196.97,-828.31"/>
</a>
</g>
</g>
<!-- Node4 -->
<g id="Node000004" class="node">
<title>Node4</title>
<g id="a_Node000004"><a xlink:href="app_8c.html#a71bcbce7faf780cd081af3fa82d6da97" target="_top" xlink:title=" ">
<polygon fill="white" stroke="#666666" points="796.25,-690.75 728.5,-690.75 728.5,-670 796.25,-670 796.25,-690.75"/>
<text text-anchor="middle" x="762.38" y="-677.25" font-family="Helvetica,sans-Serif" font-size="10.00">w2c__f437</text>
</a>
</g>
</g>
<!-- Node3&#45;&gt;Node4 -->
<g id="edge3_Node000003_Node000004" class="edge">
<title>Node3&#45;&gt;Node4</title>
<g id="a_edge3_Node000003_Node000004"><a xlink:title=" ">
<path fill="none" stroke="#63b8ff" d="M670.9,-766.62C688.02,-750.31 720.77,-719.08 741.82,-699.01"/>
<polygon fill="#63b8ff" stroke="#63b8ff" points="744.13,-701.65 748.95,-692.22 739.3,-696.59 744.13,-701.65"/>
</a>
</g>
</g>
<!-- Node5&#45;&gt;Node3 -->
<g id="edge18_Node000005_Node000003" class="edge">
<title>Node5&#45;&gt;Node3</title>
<g id="a_edge18_Node000005_Node000003"><a xlink:title=" ">
<path fill="none" stroke="#63b8ff" d="M276.69,-820.61C350.67,-812.21 529.17,-791.95 612.88,-782.45"/>
<polygon fill="#63b8ff" stroke="#63b8ff" points="613.23,-785.94 622.77,-781.33 612.44,-778.98 613.23,-785.94"/>
</a>
</g>
</g>
<!-- Node6 -->
<g id="Node000006" class="node">
<title>Node6</title>
<g id="a_Node000006"><a xlink:href="app_8c.html#a986f1214d53a515b2b887b8f988fa6a1" target="_top" xlink:title=" ">
<polygon fill="white" stroke="#666666" points="381.25,-796.75 313.5,-796.75 313.5,-776 381.25,-776 381.25,-796.75"/>
<text text-anchor="middle" x="347.38" y="-783.25" font-family="Helvetica,sans-Serif" font-size="10.00">w2c__f365</text>
</a>
</g>
</g>
<!-- Node5&#45;&gt;Node6 -->
<g id="edge5_Node000005_Node000006" class="edge">
<title>Node5&#45;&gt;Node6</title>
<g id="a_edge5_Node000005_Node000006"><a xlink:title=" ">
<path fill="none" stroke="#63b8ff" d="M272.7,-813.59C283.24,-809.7 295.31,-805.24 306.6,-801.07"/>
<polygon fill="#63b8ff" stroke="#63b8ff" points="307.51,-804.46 315.68,-797.71 305.08,-797.9 307.51,-804.46"/>
</a>
</g>
</g>
<!-- Node7 -->
<g id="Node000007" class="node">
<title>Node7</title>
<g id="a_Node000007"><a xlink:href="app_8c.html#a14e021d2f1b59e04757852f66bff1044" target="_top" xlink:title=" ">
<polygon fill="white" stroke="#666666" points="485,-670.75 417.25,-670.75 417.25,-650 485,-650 485,-670.75"/>
<text text-anchor="middle" x="451.12" y="-657.25" font-family="Helvetica,sans-Serif" font-size="10.00">w2c__f511</text>
</a>
</g>
</g>
<!-- Node6&#45;&gt;Node7 -->
<g id="edge6_Node000006_Node000007" class="edge">
<title>Node6&#45;&gt;Node7</title>
<g id="a_edge6_Node000006_Node000007"><a xlink:title=" ">
<path fill="none" stroke="#63b8ff" d="M357.05,-775.63C374.17,-754.43 412.53,-706.93 434.28,-680"/>
<polygon fill="#63b8ff" stroke="#63b8ff" points="436.96,-682.25 440.52,-672.27 431.52,-677.85 436.96,-682.25"/>
</a>
</g>
</g>
<!-- Node8 -->
<g id="Node000008" class="node">
<title>Node8</title>
<g id="a_Node000008"><a xlink:href="app_8c.html#aa58fd7f1d3aab8404d7f71d334a8a108" target="_top" xlink:title=" ">
<polygon fill="white" stroke="#666666" points="588.75,-690.75 521,-690.75 521,-670 588.75,-670 588.75,-690.75"/>
<text text-anchor="middle" x="554.88" y="-677.25" font-family="Helvetica,sans-Serif" font-size="10.00">w2c__f211</text>
</a>
</g>
</g>
<!-- Node7&#45;&gt;Node8 -->
<g id="edge7_Node000007_Node000008" class="edge">
<title>Node7&#45;&gt;Node8</title>
<g id="a_edge7_Node000007_Node000008"><a xlink:title=" ">
<path fill="none" stroke="#63b8ff" d="M485.44,-666.92C493.16,-668.44 501.5,-670.08 509.61,-671.67"/>
<polygon fill="#63b8ff" stroke="#63b8ff" points="508.86,-675.09 519.35,-673.59 510.21,-668.22 508.86,-675.09"/>
</a>
</g>
</g>
<!-- Node12 -->
<g id="Node000012" class="node">
<title>Node12</title>
<g id="a_Node000012"><a xlink:href="app_8c.html#a8c90e9acf2d5915eb0476bc13964c4db" target="_top" xlink:title=" ">
<polygon fill="white" stroke="#666666" points="588.75,-651.75 521,-651.75 521,-631 588.75,-631 588.75,-651.75"/>
<text text-anchor="middle" x="554.88" y="-638.25" font-family="Helvetica,sans-Serif" font-size="10.00">w2c__f345</text>
</a>
</g>
</g>
<!-- Node7&#45;&gt;Node12 -->
<g id="edge13_Node000007_Node000012" class="edge">
<title>Node7&#45;&gt;Node12</title>
<g id="a_edge13_Node000007_Node000012"><a xlink:title=" ">
<path fill="none" stroke="#63b8ff" d="M485.44,-654.15C493.16,-652.71 501.5,-651.16 509.61,-649.64"/>
<polygon fill="#63b8ff" stroke="#63b8ff" points="510.16,-653.1 519.34,-647.82 508.87,-646.22 510.16,-653.1"/>
</a>
</g>
</g>
<!-- Node9 -->
<g id="Node000009" class="node">
<title>Node9</title>
<g id="a_Node000009"><a xlink:href="app_8c.html#a03fa34d93d32a3ee40dfc2d840730111" target="_top" xlink:title=" ">
<polygon fill="white" stroke="#666666" points="692.5,-651.75 624.75,-651.75 624.75,-631 692.5,-631 692.5,-651.75"/>
<text text-anchor="middle" x="658.62" y="-638.25" font-family="Helvetica,sans-Serif" font-size="10.00">w2c__f262</text>
</a>
</g>
</g>
<!-- Node8&#45;&gt;Node9 -->
<g id="edge8_Node000008_Node000009" class="edge">
<title>Node8&#45;&gt;Node9</title>
<g id="a_edge8_Node000008_Node000009"><a xlink:title=" ">
<path fill="none" stroke="#63b8ff" d="M584.22,-669.51C594.91,-665.41 607.27,-660.67 618.76,-656.27"/>
<polygon fill="#63b8ff" stroke="#63b8ff" points="619.94,-659.57 628.02,-652.72 617.43,-653.03 619.94,-659.57"/>
</a>
</g>
</g>
<!-- Node11 -->
<g id="Node000011" class="node">
<title>Node11</title>
<g id="a_Node000011"><a xlink:href="app_8c.html#a31b08a294227a9fc0a529e66ccd915dc" target="_top" xlink:title=" ">
<polygon fill="white" stroke="#666666" points="692.5,-690.75 624.75,-690.75 624.75,-670 692.5,-670 692.5,-690.75"/>
<text text-anchor="middle" x="658.62" y="-677.25" font-family="Helvetica,sans-Serif" font-size="10.00">w2c__f325</text>
</a>
</g>
</g>
<!-- Node8&#45;&gt;Node11 -->
<g id="edge11_Node000008_Node000011" class="edge">
<title>Node8&#45;&gt;Node11</title>
<g id="a_edge11_Node000008_Node000011"><a xlink:title=" ">
<path fill="none" stroke="#63b8ff" d="M589.19,-680.38C596.82,-680.38 605.06,-680.38 613.08,-680.38"/>
<polygon fill="#63b8ff" stroke="#63b8ff" points="613.07,-683.88 623.07,-680.38 613.07,-676.88 613.07,-683.88"/>
</a>
</g>
</g>
<!-- Node9&#45;&gt;Node4 -->
<g id="edge10_Node000009_Node000004" class="edge">
<title>Node9&#45;&gt;Node4</title>
<g id="a_edge10_Node000009_Node000004"><a xlink:title=" ">
<path fill="none" stroke="#63b8ff" d="M687.97,-652.24C698.66,-656.34 711.02,-661.08 722.51,-665.48"/>
<polygon fill="#63b8ff" stroke="#63b8ff" points="721.18,-668.72 731.77,-669.03 723.69,-662.18 721.18,-668.72"/>
</a>
</g>
</g>
<!-- Node10 -->
<g id="Node000010" class="node">
<title>Node10</title>
<g id="a_Node000010"><a xlink:href="app_8c.html#a16207b5f7a97b0ecfddd231452c5aa7e" target="_top" xlink:title=" ">
<polygon fill="white" stroke="#666666" points="796.25,-651.75 728.5,-651.75 728.5,-631 796.25,-631 796.25,-651.75"/>
<text text-anchor="middle" x="762.38" y="-638.25" font-family="Helvetica,sans-Serif" font-size="10.00">w2c__f263</text>
</a>
</g>
</g>
<!-- Node9&#45;&gt;Node10 -->
<g id="edge9_Node000009_Node000010" class="edge">
<title>Node9&#45;&gt;Node10</title>
<g id="a_edge9_Node000009_Node000010"><a xlink:title=" ">
<path fill="none" stroke="#63b8ff" d="M692.94,-641.38C700.57,-641.38 708.81,-641.38 716.83,-641.38"/>
<polygon fill="#63b8ff" stroke="#63b8ff" points="716.82,-644.88 726.82,-641.38 716.82,-637.88 716.82,-644.88"/>
</a>
</g>
</g>
<!-- Node11&#45;&gt;Node4 -->
<g id="edge12_Node000011_Node000004" class="edge">
<title>Node11&#45;&gt;Node4</title>
<g id="a_edge12_Node000011_Node000004"><a xlink:title=" ">
<path fill="none" stroke="#63b8ff" d="M692.94,-680.38C700.57,-680.38 708.81,-680.38 716.83,-680.38"/>
<polygon fill="#63b8ff" stroke="#63b8ff" points="716.82,-683.88 726.82,-680.38 716.82,-676.88 716.82,-683.88"/>
</a>
</g>
</g>
<!-- Node12&#45;&gt;Node3 -->
<g id="edge16_Node000012_Node000003" class="edge">
<title>Node12&#45;&gt;Node3</title>
<g id="a_edge16_Node000012_Node000003"><a xlink:title=" ">
<path fill="none" stroke="#63b8ff" d="M577.17,-652.22C581.29,-654.88 585.37,-657.96 588.75,-661.38 616.62,-689.55 637.74,-731.15 648.85,-756.13"/>
<polygon fill="#63b8ff" stroke="#63b8ff" points="645.6,-757.43 652.77,-765.23 652.03,-754.66 645.6,-757.43"/>
</a>
</g>
</g>
<!-- Node12&#45;&gt;Node9 -->
<g id="edge14_Node000012_Node000009" class="edge">
<title>Node12&#45;&gt;Node9</title>
<g id="a_edge14_Node000012_Node000009"><a xlink:title=" ">
<path fill="none" stroke="#63b8ff" d="M589.19,-641.38C596.82,-641.38 605.06,-641.38 613.08,-641.38"/>
<polygon fill="#63b8ff" stroke="#63b8ff" points="613.07,-644.88 623.07,-641.38 613.07,-637.88 613.07,-644.88"/>
</a>
</g>
</g>
<!-- Node12&#45;&gt;Node11 -->
<g id="edge15_Node000012_Node000011" class="edge">
<title>Node12&#45;&gt;Node11</title>
<g id="a_edge15_Node000012_Node000011"><a xlink:title=" ">
<path fill="none" stroke="#63b8ff" d="M584.22,-652.24C594.91,-656.34 607.27,-661.08 618.76,-665.48"/>
<polygon fill="#63b8ff" stroke="#63b8ff" points="617.43,-668.72 628.02,-669.03 619.94,-662.18 617.43,-668.72"/>
</a>
</g>
</g>
<!-- Node13 -->
<g id="Node000013" class="node">
<title>Node13</title>
<g id="a_Node000013"><a xlink:href="app_8c.html#a0e0dad0ebc52e45eeff2e1b5d8389ea4" target="_top" xlink:title=" ">
<polygon fill="white" stroke="#666666" points="692.5,-361.75 624.75,-361.75 624.75,-341 692.5,-341 692.5,-361.75"/>
<text text-anchor="middle" x="658.62" y="-348.25" font-family="Helvetica,sans-Serif" font-size="10.00">w2c__f534</text>
</a>
</g>
</g>
<!-- Node12&#45;&gt;Node13 -->
<g id="edge17_Node000012_Node000013" class="edge">
<title>Node12&#45;&gt;Node13</title>
<g id="a_edge17_Node000012_Node000013"><a xlink:title=" ">
<path fill="none" stroke="#63b8ff" d="M559.62,-630.71C574.51,-588.26 629.76,-430.78 650.07,-372.9"/>
<polygon fill="#63b8ff" stroke="#63b8ff" points="653.34,-374.16 653.35,-363.57 646.73,-371.84 653.34,-374.16"/>
</a>
</g>
</g>
<!-- Node14&#45;&gt;Node3 -->
<g id="edge39_Node000014_Node000003" class="edge">
<title>Node14&#45;&gt;Node3</title>
<g id="a_edge39_Node000014_Node000003"><a xlink:title=" ">
<path fill="none" stroke="#63b8ff" d="M139.24,-409.08C142.46,-460.8 159.01,-684.13 207.5,-729.38 253.05,-771.88 284.08,-748.38 346.38,-748.38 346.38,-748.38 346.38,-748.38 452.12,-748.38 508.11,-748.38 571.85,-759.06 613.3,-767.46"/>
<polygon fill="#63b8ff" stroke="#63b8ff" points="612.39,-770.84 622.89,-769.45 613.81,-763.99 612.39,-770.84"/>
</a>
</g>
</g>
<!-- Node14&#45;&gt;Node9 -->
<g id="edge33_Node000014_Node000009" class="edge">
<title>Node14&#45;&gt;Node9</title>
<g id="a_edge33_Node000014_Node000009"><a xlink:title=" ">
<path fill="none" stroke="#63b8ff" d="M139.27,-387.56C141.78,-356.36 153.58,-265.73 207.5,-223.38 256.49,-184.89 284.08,-204.38 346.38,-204.38 346.38,-204.38 346.38,-204.38 452.12,-204.38 637.51,-204.38 655.96,-530.42 657.54,-619.25"/>
<polygon fill="#63b8ff" stroke="#63b8ff" points="654.04,-619.1 657.66,-629.06 661.04,-619.02 654.04,-619.1"/>
</a>
</g>
</g>
<!-- Node15 -->
<g id="Node000015" class="node">
<title>Node15</title>
<g id="a_Node000015"><a xlink:href="app_8c.html#a4b53a7e94216ec02a12a81319e766aac" target="_top" xlink:title=" ">
<polygon fill="white" stroke="#666666" points="277.5,-137.75 207.5,-137.75 207.5,-117 277.5,-117 277.5,-137.75"/>
<text text-anchor="middle" x="242.5" y="-124.25" font-family="Helvetica,sans-Serif" font-size="10.00">w2c_0_104</text>
</a>
</g>
</g>
<!-- Node14&#45;&gt;Node15 -->
<g id="edge21_Node000014_Node000015" class="edge">
<title>Node14&#45;&gt;Node15</title>
<g id="a_edge21_Node000014_Node000015"><a xlink:title=" ">
<path fill="none" stroke="#63b8ff" d="M138.8,-387.58C139.92,-350.28 148.16,-224.87 207.5,-147.38 208.02,-146.7 208.56,-146.05 209.13,-145.41"/>
<polygon fill="#63b8ff" stroke="#63b8ff" points="211.17,-148.28 216.5,-139.12 206.62,-142.95 211.17,-148.28"/>
</a>
</g>
</g>
<!-- Node16 -->
<g id="Node000016" class="node">
<title>Node16</title>
<g id="a_Node000016"><a xlink:href="app_8c.html#a8b2f2dd0746d3692a6b1f5504710b489" target="_top" xlink:title=" ">
<polygon fill="white" stroke="#666666" points="277.5,-98.75 207.5,-98.75 207.5,-78 277.5,-78 277.5,-98.75"/>
<text text-anchor="middle" x="242.5" y="-85.25" font-family="Helvetica,sans-Serif" font-size="10.00">w2c_0_114</text>
</a>
</g>
</g>
<!-- Node14&#45;&gt;Node16 -->
<g id="edge22_Node000014_Node000016" class="edge">
<title>Node14&#45;&gt;Node16</title>
<g id="a_edge22_Node000014_Node000016"><a xlink:title=" ">
<path fill="none" stroke="#63b8ff" d="M138.31,-387.67C137.63,-346.96 140.17,-199.54 207.5,-108.38 208,-107.69 208.54,-107.03 209.1,-106.39"/>
<polygon fill="#63b8ff" stroke="#63b8ff" points="211.14,-109.25 216.41,-100.06 206.56,-103.96 211.14,-109.25"/>
</a>
</g>
</g>
<!-- Node17 -->
<g id="Node000017" class="node">
<title>Node17</title>
<g id="a_Node000017"><a xlink:href="app_8c.html#a7438402b7e7bf0d5c1edd80b7ba72e1f" target="_top" xlink:title=" ">
<polygon fill="white" stroke="#666666" points="277.5,-59.75 207.5,-59.75 207.5,-39 277.5,-39 277.5,-59.75"/>
<text text-anchor="middle" x="242.5" y="-46.25" font-family="Helvetica,sans-Serif" font-size="10.00">w2c_0_128</text>
</a>
</g>
</g>
<!-- Node14&#45;&gt;Node17 -->
<g id="edge23_Node000014_Node000017" class="edge">
<title>Node14&#45;&gt;Node17</title>
<g id="a_edge23_Node000014_Node000017"><a xlink:title=" ">
<path fill="none" stroke="#63b8ff" d="M139.69,-387.75C144.91,-337.39 169.12,-122.82 207.5,-69.38 207.9,-68.82 208.32,-68.28 208.76,-67.74"/>
<polygon fill="#63b8ff" stroke="#63b8ff" points="210.89,-70.53 216,-61.25 206.22,-65.32 210.89,-70.53"/>
</a>
</g>
</g>
<!-- Node18 -->
<g id="Node000018" class="node">
<title>Node18</title>
<g id="a_Node000018"><a xlink:href="app_8c.html#ae29d60093e27470c0ea7d43879d00f11" target="_top" xlink:title=" ">
<polygon fill="white" stroke="#666666" points="277.5,-20.75 207.5,-20.75 207.5,0 277.5,0 277.5,-20.75"/>
<text text-anchor="middle" x="242.5" y="-7.25" font-family="Helvetica,sans-Serif" font-size="10.00">w2c_0_138</text>
</a>
</g>
</g>
<!-- Node14&#45;&gt;Node18 -->
<g id="edge24_Node000014_Node000018" class="edge">
<title>Node14&#45;&gt;Node18</title>
<g id="a_edge24_Node000014_Node000018"><a xlink:title=" ">
<path fill="none" stroke="#63b8ff" d="M139.44,-387.6C143.74,-333.4 165.11,-90.76 207.5,-30.38 207.89,-29.81 208.31,-29.27 208.74,-28.73"/>
<polygon fill="#63b8ff" stroke="#63b8ff" points="210.88,-31.52 215.94,-22.21 206.18,-26.33 210.88,-31.52"/>
</a>
</g>
</g>
<!-- Node19 -->
<g id="Node000019" class="node">
<title>Node19</title>
<g id="a_Node000019"><a xlink:href="app_8c.html#ad9db77a2760c6bc7bc182064bb83ee19" target="_top" xlink:title=" ">
<polygon fill="white" stroke="#666666" points="277.5,-720.75 207.5,-720.75 207.5,-700 277.5,-700 277.5,-720.75"/>
<text text-anchor="middle" x="242.5" y="-707.25" font-family="Helvetica,sans-Serif" font-size="10.00">w2c_0_149</text>
</a>
</g>
</g>
<!-- Node14&#45;&gt;Node19 -->
<g id="edge25_Node000014_Node000019" class="edge">
<title>Node14&#45;&gt;Node19</title>
<g id="a_edge25_Node000014_Node000019"><a xlink:title=" ">
<path fill="none" stroke="#63b8ff" d="M138.28,-409.16C137.53,-450.14 139.81,-598.57 207.5,-690.38 208,-691.06 208.54,-691.72 209.1,-692.36"/>
<polygon fill="#63b8ff" stroke="#63b8ff" points="206.55,-694.79 216.4,-698.7 211.14,-689.5 206.55,-694.79"/>
</a>
</g>
</g>
<!-- Node20 -->
<g id="Node000020" class="node">
<title>Node20</title>
<g id="a_Node000020"><a xlink:href="app_8c.html#aa0b61cf77a1fbe587a4685c7392eb2a1" target="_top" xlink:title=" ">
<polygon fill="white" stroke="#666666" points="277.5,-681.75 207.5,-681.75 207.5,-661 277.5,-661 277.5,-681.75"/>
<text text-anchor="middle" x="242.5" y="-668.25" font-family="Helvetica,sans-Serif" font-size="10.00">w2c_0_154</text>
</a>
</g>
</g>
<!-- Node14&#45;&gt;Node20 -->
<g id="edge26_Node000014_Node000020" class="edge">
<title>Node14&#45;&gt;Node20</title>
<g id="a_edge26_Node000014_Node000020"><a xlink:title=" ">
<path fill="none" stroke="#63b8ff" d="M138.76,-408.99C139.77,-446.26 147.66,-573.06 207.5,-651.38 208.01,-652.05 208.56,-652.7 209.13,-653.34"/>
<polygon fill="#63b8ff" stroke="#63b8ff" points="206.62,-655.8 216.5,-659.63 211.16,-650.48 206.62,-655.8"/>
</a>
</g>
</g>
<!-- Node21 -->
<g id="Node000021" class="node">
<title>Node21</title>
<g id="a_Node000021"><a xlink:href="app_8c.html#a54e1ef3f05b3789f7a2c6d79147ffeb3" target="_top" xlink:title=" ">
<polygon fill="white" stroke="#666666" points="277.5,-642.75 207.5,-642.75 207.5,-622 277.5,-622 277.5,-642.75"/>
<text text-anchor="middle" x="242.5" y="-629.25" font-family="Helvetica,sans-Serif" font-size="10.00">w2c_0_170</text>
</a>
</g>
</g>
<!-- Node14&#45;&gt;Node21 -->
<g id="edge27_Node000014_Node000021" class="edge">
<title>Node14&#45;&gt;Node21</title>
<g id="a_edge27_Node000014_Node000021"><a xlink:title=" ">
<path fill="none" stroke="#63b8ff" d="M139.4,-408.97C142.36,-442.43 155.54,-547.48 207.5,-612.38 208.03,-613.04 208.59,-613.68 209.17,-614.31"/>
<polygon fill="#63b8ff" stroke="#63b8ff" points="206.7,-616.81 216.62,-620.54 211.19,-611.44 206.7,-616.81"/>
</a>
</g>
</g>
<!-- Node22 -->
<g id="Node000022" class="node">
<title>Node22</title>
<g id="a_Node000022"><a xlink:href="app_8c.html#a0164717ce31d2df5fee540951caebe62" target="_top" xlink:title=" ">
<polygon fill="white" stroke="#666666" points="277.5,-603.75 207.5,-603.75 207.5,-583 277.5,-583 277.5,-603.75"/>
<text text-anchor="middle" x="242.5" y="-590.25" font-family="Helvetica,sans-Serif" font-size="10.00">w2c_0_181</text>
</a>
</g>
</g>
<!-- Node14&#45;&gt;Node22 -->
<g id="edge28_Node000014_Node000022" class="edge">
<title>Node14&#45;&gt;Node22</title>
<g id="a_edge28_Node000014_Node000022"><a xlink:title=" ">
<path fill="none" stroke="#63b8ff" d="M140.33,-409.08C145.49,-438.48 163.39,-521.74 207.5,-573.38 208.16,-574.15 208.86,-574.9 209.59,-575.63"/>
<polygon fill="#63b8ff" stroke="#63b8ff" points="207.13,-578.15 217.13,-581.64 211.5,-572.67 207.13,-578.15"/>
</a>
</g>
</g>
<!-- Node23 -->
<g id="Node000023" class="node">
<title>Node23</title>
<g id="a_Node000023"><a xlink:href="app_8c.html#ab8df49a9eeba8644a99f23740b559f7e" target="_top" xlink:title=" ">
<polygon fill="white" stroke="#666666" points="274.5,-525.75 210.5,-525.75 210.5,-505 274.5,-505 274.5,-525.75"/>
<text text-anchor="middle" x="242.5" y="-512.25" font-family="Helvetica,sans-Serif" font-size="10.00">w2c_0_71</text>
</a>
</g>
</g>
<!-- Node14&#45;&gt;Node23 -->
<g id="edge29_Node000014_Node000023" class="edge">
<title>Node14&#45;&gt;Node23</title>
<g id="a_edge29_Node000014_Node000023"><a xlink:title=" ">
<path fill="none" stroke="#63b8ff" d="M144.23,-409.1C154.65,-428.26 178.59,-468.84 207.5,-495.38 208.55,-496.34 209.65,-497.28 210.8,-498.19"/>
<polygon fill="#63b8ff" stroke="#63b8ff" points="208.59,-500.92 218.8,-503.75 212.59,-495.17 208.59,-500.92"/>
</a>
</g>
</g>
<!-- Node24 -->
<g id="Node000024" class="node">
<title>Node24</title>
<g id="a_Node000024"><a xlink:href="app_8c.html#ab924d394d868075ccc7ea86f15195135" target="_top" xlink:title=" ">
<polygon fill="white" stroke="#666666" points="271.5,-486.75 213.5,-486.75 213.5,-466 271.5,-466 271.5,-486.75"/>
<text text-anchor="middle" x="242.5" y="-473.25" font-family="Helvetica,sans-Serif" font-size="10.00">w2c_0_8</text>
</a>
</g>
</g>
<!-- Node14&#45;&gt;Node24 -->
<g id="edge30_Node000014_Node000024" class="edge">
<title>Node14&#45;&gt;Node24</title>
<g id="a_edge30_Node000014_Node000024"><a xlink:title=" ">
<path fill="none" stroke="#63b8ff" d="M149.85,-408.85C163.1,-420.97 186.06,-441.21 207.5,-456.38 209.04,-457.46 210.64,-458.55 212.27,-459.62"/>
<polygon fill="#63b8ff" stroke="#63b8ff" points="210.1,-462.39 220.44,-464.7 213.8,-456.45 210.1,-462.39"/>
</a>
</g>
</g>
<!-- Node25 -->
<g id="Node000025" class="node">
<title>Node25</title>
<g id="a_Node000025"><a xlink:href="app_8c.html#a48ecc1104e7460873bafe7d1b275e34e" target="_top" xlink:title=" ">
<polygon fill="white" stroke="#666666" points="274.5,-447.75 210.5,-447.75 210.5,-427 274.5,-427 274.5,-447.75"/>
<text text-anchor="middle" x="242.5" y="-434.25" font-family="Helvetica,sans-Serif" font-size="10.00">w2c_0_87</text>
</a>
</g>
</g>
<!-- Node14&#45;&gt;Node25 -->
<g id="edge31_Node000014_Node000025" class="edge">
<title>Node14&#45;&gt;Node25</title>
<g id="a_edge31_Node000014_Node000025"><a xlink:title=" ">
<path fill="none" stroke="#63b8ff" d="M167.28,-409.24C178.21,-413.38 190.85,-418.17 202.57,-422.62"/>
<polygon fill="#63b8ff" stroke="#63b8ff" points="200.99,-425.76 211.58,-426.03 203.47,-419.22 200.99,-425.76"/>
</a>
</g>
</g>
<!-- Node26 -->
<g id="Node000026" class="node">
<title>Node26</title>
<g id="a_Node000026"><a xlink:href="app_8c.html#a89669d859b497acd4d687ede771c8589" target="_top" xlink:title=" ">
<polygon fill="white" stroke="#666666" points="274.5,-408.75 210.5,-408.75 210.5,-388 274.5,-388 274.5,-408.75"/>
<text text-anchor="middle" x="242.5" y="-395.25" font-family="Helvetica,sans-Serif" font-size="10.00">w2c_0_96</text>
</a>
</g>
</g>
<!-- Node14&#45;&gt;Node26 -->
<g id="edge32_Node000014_Node000026" class="edge">
<title>Node14&#45;&gt;Node26</title>
<g id="a_edge32_Node000014_Node000026"><a xlink:title=" ">
<path fill="none" stroke="#63b8ff" d="M171.74,-398.38C180.41,-398.38 189.89,-398.38 198.98,-398.38"/>
<polygon fill="#63b8ff" stroke="#63b8ff" points="198.68,-401.88 208.68,-398.38 198.68,-394.88 198.68,-401.88"/>
</a>
</g>
</g>
<!-- Node27 -->
<g id="Node000027" class="node">
<title>Node27</title>
<g id="a_Node000027"><a xlink:href="app_8c.html#a34d18545510c7604d64db5651af2a253" target="_top" xlink:title=" ">
<polygon fill="white" stroke="#666666" points="276.38,-330.75 208.62,-330.75 208.62,-310 276.38,-310 276.38,-330.75"/>
<text text-anchor="middle" x="242.5" y="-317.25" font-family="Helvetica,sans-Serif" font-size="10.00">w2c__f332</text>
</a>
</g>
</g>
<!-- Node14&#45;&gt;Node27 -->
<g id="edge34_Node000014_Node000027" class="edge">
<title>Node14&#45;&gt;Node27</title>
<g id="a_edge34_Node000014_Node000027"><a xlink:title=" ">
<path fill="none" stroke="#63b8ff" d="M149.85,-387.9C163.1,-375.78 186.06,-355.54 207.5,-340.38 209.04,-339.29 210.64,-338.2 212.27,-337.13"/>
<polygon fill="#63b8ff" stroke="#63b8ff" points="213.8,-340.3 220.44,-332.05 210.1,-334.36 213.8,-340.3"/>
</a>
</g>
</g>
<!-- Node28 -->
<g id="Node000028" class="node">
<title>Node28</title>
<g id="a_Node000028"><a xlink:href="app_8c.html#aa583f182f69261eb6417ee28acf1bedb" target="_top" xlink:title=" ">
<polygon fill="white" stroke="#666666" points="276.38,-291.75 208.62,-291.75 208.62,-271 276.38,-271 276.38,-291.75"/>
<text text-anchor="middle" x="242.5" y="-278.25" font-family="Helvetica,sans-Serif" font-size="10.00">w2c__f416</text>
</a>
</g>
</g>
<!-- Node14&#45;&gt;Node28 -->
<g id="edge35_Node000014_Node000028" class="edge">
<title>Node14&#45;&gt;Node28</title>
<g id="a_edge35_Node000014_Node000028"><a xlink:title=" ">
<path fill="none" stroke="#63b8ff" d="M144.23,-387.65C154.65,-368.49 178.59,-327.91 207.5,-301.38 208.55,-300.41 209.65,-299.47 210.8,-298.56"/>
<polygon fill="#63b8ff" stroke="#63b8ff" points="212.59,-301.58 218.8,-293 208.59,-295.83 212.59,-301.58"/>
</a>
</g>
</g>
<!-- Node29 -->
<g id="Node000029" class="node">
<title>Node29</title>
<g id="a_Node000029"><a xlink:href="app_8c.html#af732b1ecf09ff688adde158c29714bcd" target="_top" xlink:title=" ">
<polygon fill="white" stroke="#666666" points="276.38,-252.75 208.62,-252.75 208.62,-232 276.38,-232 276.38,-252.75"/>
<text text-anchor="middle" x="242.5" y="-239.25" font-family="Helvetica,sans-Serif" font-size="10.00">w2c__f436</text>
</a>
</g>
</g>
<!-- Node14&#45;&gt;Node29 -->
<g id="edge36_Node000014_Node000029" class="edge">
<title>Node14&#45;&gt;Node29</title>
<g id="a_edge36_Node000014_Node000029"><a xlink:title=" ">
<path fill="none" stroke="#63b8ff" d="M141.75,-387.61C149.39,-362.88 171.09,-301.16 207.5,-262.38 208.32,-261.5 209.19,-260.65 210.09,-259.83"/>
<polygon fill="#63b8ff" stroke="#63b8ff" points="211.84,-262.9 217.72,-254.08 207.63,-257.3 211.84,-262.9"/>
</a>
</g>
</g>
<!-- Node30 -->
<g id="Node000030" class="node">
<title>Node30</title>
<g id="a_Node000030"><a xlink:href="app_8c.html#a990f8a9d4528c9216baea17b3c64a813" target="_top" xlink:title=" ">
<polygon fill="white" stroke="#666666" points="276.38,-369.75 208.62,-369.75 208.62,-349 276.38,-349 276.38,-369.75"/>
<text text-anchor="middle" x="242.5" y="-356.25" font-family="Helvetica,sans-Serif" font-size="10.00">w2c__f485</text>
</a>
</g>
</g>
<!-- Node14&#45;&gt;Node30 -->
<g id="edge37_Node000014_Node000030" class="edge">
<title>Node14&#45;&gt;Node30</title>
<g id="a_edge37_Node000014_Node000030"><a xlink:title=" ">
<path fill="none" stroke="#63b8ff" d="M167.28,-387.51C178.21,-383.37 190.85,-378.58 202.57,-374.13"/>
<polygon fill="#63b8ff" stroke="#63b8ff" points="203.47,-377.53 211.58,-370.72 200.99,-370.99 203.47,-377.53"/>
</a>
</g>
</g>
<!-- Node32 -->
<g id="Node000032" class="node">
<title>Node32</title>
<g id="a_Node000032"><a xlink:href="app_8c.html#a6ed4d3a30c137f002c0294253d206acb" target="_top" xlink:title=" ">
<polygon fill="white" stroke="#666666" points="276.38,-176.75 208.62,-176.75 208.62,-156 276.38,-156 276.38,-176.75"/>
<text text-anchor="middle" x="242.5" y="-163.25" font-family="Helvetica,sans-Serif" font-size="10.00">w2c__f504</text>
</a>
</g>
</g>
<!-- Node14&#45;&gt;Node32 -->
<g id="edge40_Node000014_Node000032" class="edge">
<title>Node14&#45;&gt;Node32</title>
<g id="a_edge40_Node000014_Node000032"><a xlink:title=" ">
<path fill="none" stroke="#63b8ff" d="M139.77,-387.79C143.76,-355.29 159.47,-255.16 207.5,-190.38 209.16,-188.14 211.08,-186.04 213.16,-184.07"/>
<polygon fill="#63b8ff" stroke="#63b8ff" points="214.91,-187.16 220.5,-178.17 210.52,-181.71 214.91,-187.16"/>
</a>
</g>
</g>
<!-- Node34 -->
<g id="Node000034" class="node">
<title>Node34</title>
<g id="a_Node000034"><a xlink:href="app_8c.html#a0d2b9d1e465bd8169ebd6cf08afb1f69" target="_top" xlink:title=" ">
<polygon fill="white" stroke="#666666" points="276.38,-564.75 208.62,-564.75 208.62,-544 276.38,-544 276.38,-564.75"/>
<text text-anchor="middle" x="242.5" y="-551.25" font-family="Helvetica,sans-Serif" font-size="10.00">w2c__f551</text>
</a>
</g>
</g>
<!-- Node14&#45;&gt;Node34 -->
<g id="edge43_Node000014_Node000034" class="edge">
<title>Node14&#45;&gt;Node34</title>
<g id="a_edge43_Node000014_Node000034"><a xlink:title=" ">
<path fill="none" stroke="#63b8ff" d="M141.75,-409.14C149.39,-433.87 171.09,-495.59 207.5,-534.38 208.32,-535.25 209.19,-536.1 210.09,-536.92"/>
<polygon fill="#63b8ff" stroke="#63b8ff" points="207.63,-539.45 217.72,-542.67 211.84,-533.85 207.63,-539.45"/>
</a>
</g>
</g>
<!-- Node31 -->
<g id="Node000031" class="node">
<title>Node31</title>
<g id="a_Node000031"><a xlink:href="app_8c.html#a5d082dff6c4c25de25da9f4dc538c097" target="_top" xlink:title=" ">
<polygon fill="white" stroke="#666666" points="381.25,-369.75 313.5,-369.75 313.5,-349 381.25,-349 381.25,-369.75"/>
<text text-anchor="middle" x="347.38" y="-356.25" font-family="Helvetica,sans-Serif" font-size="10.00">w2c__f265</text>
</a>
</g>
</g>
<!-- Node30&#45;&gt;Node31 -->
<g id="edge38_Node000030_Node000031" class="edge">
<title>Node30&#45;&gt;Node31</title>
<g id="a_edge38_Node000030_Node000031"><a xlink:title=" ">
<path fill="none" stroke="#63b8ff" d="M276.62,-359.38C284.69,-359.38 293.46,-359.38 301.97,-359.38"/>
<polygon fill="#63b8ff" stroke="#63b8ff" points="301.81,-362.88 311.81,-359.38 301.81,-355.88 301.81,-362.88"/>
</a>
</g>
</g>
<!-- Node32&#45;&gt;Node13 -->
<g id="edge41_Node000032_Node000013" class="edge">
<title>Node32&#45;&gt;Node13</title>
<g id="a_edge41_Node000032_Node000013"><a xlink:title=" ">
<path fill="none" stroke="#63b8ff" d="M276.25,-155.56C287.87,-152.24 301.14,-149.02 313.5,-147.38 436.23,-131.01 492.9,-112 588.75,-190.38 632.35,-226.03 648.91,-294.39 654.74,-329.45"/>
<polygon fill="#63b8ff" stroke="#63b8ff" points="651.26,-329.87 656.21,-339.24 658.19,-328.83 651.26,-329.87"/>
</a>
</g>
</g>
<!-- Node33 -->
<g id="Node000033" class="node">
<title>Node33</title>
<g id="a_Node000033"><a xlink:href="app_8c.html#a1b33810b824b3b37999b55db2c1fb45d" target="_top" xlink:title=" ">
<polygon fill="white" stroke="#666666" points="381.25,-176.75 313.5,-176.75 313.5,-156 381.25,-156 381.25,-176.75"/>
<text text-anchor="middle" x="347.38" y="-163.25" font-family="Helvetica,sans-Serif" font-size="10.00">w2c__f555</text>
</a>
</g>
</g>
<!-- Node32&#45;&gt;Node33 -->
<g id="edge42_Node000032_Node000033" class="edge">
<title>Node32&#45;&gt;Node33</title>
<g id="a_edge42_Node000032_Node000033"><a xlink:title=" ">
<path fill="none" stroke="#63b8ff" d="M276.62,-166.38C284.69,-166.38 293.46,-166.38 301.97,-166.38"/>
<polygon fill="#63b8ff" stroke="#63b8ff" points="301.81,-169.88 311.81,-166.38 301.81,-162.88 301.81,-169.88"/>
</a>
</g>
</g>
<!-- Node35 -->
<g id="Node000035" class="node">
<title>Node35</title>
<g id="a_Node000035"><a xlink:href="app_8c.html#a70885389166a2cbcb9e78af289ffa12e" target="_top" xlink:title=" ">
<polygon fill="white" stroke="#666666" points="381.25,-617.75 313.5,-617.75 313.5,-597 381.25,-597 381.25,-617.75"/>
<text text-anchor="middle" x="347.38" y="-604.25" font-family="Helvetica,sans-Serif" font-size="10.00">w2c__f577</text>
</a>
</g>
</g>
<!-- Node34&#45;&gt;Node35 -->
<g id="edge44_Node000034_Node000035" class="edge">
<title>Node34&#45;&gt;Node35</title>
<g id="a_edge44_Node000034_Node000035"><a xlink:title=" ">
<path fill="none" stroke="#63b8ff" d="M264.32,-565.1C279.1,-572.72 299.18,-583.06 315.78,-591.61"/>
<polygon fill="#63b8ff" stroke="#63b8ff" points="313.75,-594.5 324.24,-595.97 316.96,-588.28 313.75,-594.5"/>
</a>
</g>
</g>
<!-- Node35&#45;&gt;Node7 -->
<g id="edge45_Node000035_Node000007" class="edge">
<title>Node35&#45;&gt;Node7</title>
<g id="a_edge45_Node000035_Node000007"><a xlink:title=" ">
<path fill="none" stroke="#63b8ff" d="M368.97,-618.1C383.45,-625.64 403.07,-635.87 419.4,-644.37"/>
<polygon fill="#63b8ff" stroke="#63b8ff" points="417.74,-647.45 428.22,-648.97 420.97,-641.24 417.74,-647.45"/>
</a>
</g>
</g>
<!-- Node36&#45;&gt;Node6 -->
<g id="edge47_Node000036_Node000006" class="edge">
<title>Node36&#45;&gt;Node6</title>
<g id="a_edge47_Node000036_Node000006"><a xlink:title=" ">
<path fill="none" stroke="#63b8ff" d="M171.54,-786.38C206.77,-786.38 262.85,-786.38 301.97,-786.38"/>
<polygon fill="#63b8ff" stroke="#63b8ff" points="301.75,-789.88 311.75,-786.38 301.75,-782.88 301.75,-789.88"/>
</a>
</g>
</g>
</g>
</svg>
