<?xml version="1.0" encoding="UTF-8" standalone="no"?>
<!DOCTYPE svg PUBLIC "-//W3C//DTD SVG 1.1//EN"
 "http://www.w3.org/Graphics/SVG/1.1/DTD/svg11.dtd">
<!-- Generated by graphviz version 12.2.1 (0)
 -->
<!-- Title: w2c__f313 Pages: 1 -->
<svg width="283pt" height="185pt"
 viewBox="0.00 0.00 283.25 184.75" xmlns="http://www.w3.org/2000/svg" xmlns:xlink="http://www.w3.org/1999/xlink">
<g id="graph0" class="graph" transform="scale(1 1) rotate(0) translate(4 180.75)">
<title>w2c__f313</title>
<!-- Node1 -->
<g id="Node000001" class="node">
<title>Node1</title>
<g id="a_Node000001"><a xlink:title=" ">
<polygon fill="#999999" stroke="#666666" points="67.75,-117.75 0,-117.75 0,-97 67.75,-97 67.75,-117.75"/>
<text text-anchor="middle" x="33.88" y="-104.25" font-family="Helvetica,sans-Serif" font-size="10.00">w2c__f313</text>
</a>
</g>
</g>
<!-- Node2 -->
<g id="Node000002" class="node">
<title>Node2</title>
<g id="a_Node000002"><a xlink:href="app_8c.html#a1e95e578fbe89a9807a67fd3ba78795f" target="_top" xlink:title=" ">
<polygon fill="white" stroke="#666666" points="171.5,-176.75 103.75,-176.75 103.75,-156 171.5,-156 171.5,-176.75"/>
<text text-anchor="middle" x="137.62" y="-163.25" font-family="Helvetica,sans-Serif" font-size="10.00">w2c__f382</text>
</a>
</g>
</g>
<!-- Node1&#45;&gt;Node2 -->
<g id="edge1_Node000001_Node000002" class="edge">
<title>Node1&#45;&gt;Node2</title>
<g id="a_edge1_Node000001_Node000002"><a xlink:title=" ">
<path fill="none" stroke="#63b8ff" d="M53.54,-118.2C68.88,-127.1 90.88,-139.85 108.38,-150"/>
<polygon fill="#63b8ff" stroke="#63b8ff" points="106.36,-152.87 116.77,-154.86 109.88,-146.82 106.36,-152.87"/>
</a>
</g>
</g>
<!-- Node4 -->
<g id="Node000004" class="node">
<title>Node4</title>
<g id="a_Node000004"><a xlink:href="app_8c.html#af732b1ecf09ff688adde158c29714bcd" target="_top" xlink:title=" ">
<polygon fill="white" stroke="#666666" points="171.5,-137.75 103.75,-137.75 103.75,-117 171.5,-117 171.5,-137.75"/>
<text text-anchor="middle" x="137.62" y="-124.25" font-family="Helvetica,sans-Serif" font-size="10.00">w2c__f436</text>
</a>
</g>
</g>
<!-- Node1&#45;&gt;Node4 -->
<g id="edge3_Node000001_Node000004" class="edge">
<title>Node1&#45;&gt;Node4</title>
<g id="a_edge3_Node000001_Node000004"><a xlink:title=" ">
<path fill="none" stroke="#63b8ff" d="M68.19,-113.92C75.91,-115.44 84.25,-117.08 92.36,-118.67"/>
<polygon fill="#63b8ff" stroke="#63b8ff" points="91.61,-122.09 102.1,-120.59 92.96,-115.22 91.61,-122.09"/>
</a>
</g>
</g>
<!-- Node5 -->
<g id="Node000005" class="node">
<title>Node5</title>
<g id="a_Node000005"><a xlink:href="app_8c.html#a800df00ef236c6d6affc3c661b37e3ad" target="_top" xlink:title=" ">
<polygon fill="white" stroke="#666666" points="171.5,-98.75 103.75,-98.75 103.75,-78 171.5,-78 171.5,-98.75"/>
<text text-anchor="middle" x="137.62" y="-85.25" font-family="Helvetica,sans-Serif" font-size="10.00">w2c__f487</text>
</a>
</g>
</g>
<!-- Node1&#45;&gt;Node5 -->
<g id="edge4_Node000001_Node000005" class="edge">
<title>Node1&#45;&gt;Node5</title>
<g id="a_edge4_Node000001_Node000005"><a xlink:title=" ">
<path fill="none" stroke="#63b8ff" d="M68.19,-101.15C75.91,-99.71 84.25,-98.16 92.36,-96.64"/>
<polygon fill="#63b8ff" stroke="#63b8ff" points="92.91,-100.1 102.09,-94.82 91.62,-93.22 92.91,-100.1"/>
</a>
</g>
</g>
<!-- Node7 -->
<g id="Node000007" class="node">
<title>Node7</title>
<g id="a_Node000007"><a xlink:href="app_8c.html#a6ed4d3a30c137f002c0294253d206acb" target="_top" xlink:title=" ">
<polygon fill="white" stroke="#666666" points="171.5,-59.75 103.75,-59.75 103.75,-39 171.5,-39 171.5,-59.75"/>
<text text-anchor="middle" x="137.62" y="-46.25" font-family="Helvetica,sans-Serif" font-size="10.00">w2c__f504</text>
</a>
</g>
</g>
<!-- Node1&#45;&gt;Node7 -->
<g id="edge6_Node000001_Node000007" class="edge">
<title>Node1&#45;&gt;Node7</title>
<g id="a_edge6_Node000001_Node000007"><a xlink:title=" ">
<path fill="none" stroke="#63b8ff" d="M53.54,-96.74C68.79,-88.04 90.6,-75.61 108.05,-65.66"/>
<polygon fill="#63b8ff" stroke="#63b8ff" points="109.47,-68.88 116.42,-60.89 106,-62.8 109.47,-68.88"/>
</a>
</g>
</g>
<!-- Node3 -->
<g id="Node000003" class="node">
<title>Node3</title>
<g id="a_Node000003"><a xlink:href="app_8c.html#a5d082dff6c4c25de25da9f4dc538c097" target="_top" xlink:title=" ">
<polygon fill="white" stroke="#666666" points="275.25,-176.75 207.5,-176.75 207.5,-156 275.25,-156 275.25,-176.75"/>
<text text-anchor="middle" x="241.38" y="-163.25" font-family="Helvetica,sans-Serif" font-size="10.00">w2c__f265</text>
</a>
</g>
</g>
<!-- Node2&#45;&gt;Node3 -->
<g id="edge2_Node000002_Node000003" class="edge">
<title>Node2&#45;&gt;Node3</title>
<g id="a_edge2_Node000002_Node000003"><a xlink:title=" ">
<path fill="none" stroke="#63b8ff" d="M171.94,-166.38C179.57,-166.38 187.81,-166.38 195.83,-166.38"/>
<polygon fill="#63b8ff" stroke="#63b8ff" points="195.82,-169.88 205.82,-166.38 195.82,-162.88 195.82,-169.88"/>
</a>
</g>
</g>
<!-- Node6 -->
<g id="Node000006" class="node">
<title>Node6</title>
<g id="a_Node000006"><a xlink:href="app_8c.html#a71bcbce7faf780cd081af3fa82d6da97" target="_top" xlink:title=" ">
<polygon fill="white" stroke="#666666" points="275.25,-98.75 207.5,-98.75 207.5,-78 275.25,-78 275.25,-98.75"/>
<text text-anchor="middle" x="241.38" y="-85.25" font-family="Helvetica,sans-Serif" font-size="10.00">w2c__f437</text>
</a>
</g>
</g>
<!-- Node5&#45;&gt;Node6 -->
<g id="edge5_Node000005_Node000006" class="edge">
<title>Node5&#45;&gt;Node6</title>
<g id="a_edge5_Node000005_Node000006"><a xlink:title=" ">
<path fill="none" stroke="#63b8ff" d="M171.94,-88.38C179.57,-88.38 187.81,-88.38 195.83,-88.38"/>
<polygon fill="#63b8ff" stroke="#63b8ff" points="195.82,-91.88 205.82,-88.38 195.82,-84.88 195.82,-91.88"/>
</a>
</g>
</g>
<!-- Node8 -->
<g id="Node000008" class="node">
<title>Node8</title>
<g id="a_Node000008"><a xlink:href="app_8c.html#a0e0dad0ebc52e45eeff2e1b5d8389ea4" target="_top" xlink:title=" ">
<polygon fill="white" stroke="#666666" points="275.25,-59.75 207.5,-59.75 207.5,-39 275.25,-39 275.25,-59.75"/>
<text text-anchor="middle" x="241.38" y="-46.25" font-family="Helvetica,sans-Serif" font-size="10.00">w2c__f534</text>
</a>
</g>
</g>
<!-- Node7&#45;&gt;Node8 -->
<g id="edge7_Node000007_Node000008" class="edge">
<title>Node7&#45;&gt;Node8</title>
<g id="a_edge7_Node000007_Node000008"><a xlink:title=" ">
<path fill="none" stroke="#63b8ff" d="M171.94,-49.38C179.57,-49.38 187.81,-49.38 195.83,-49.38"/>
<polygon fill="#63b8ff" stroke="#63b8ff" points="195.82,-52.88 205.82,-49.38 195.82,-45.88 195.82,-52.88"/>
</a>
</g>
</g>
<!-- Node9 -->
<g id="Node000009" class="node">
<title>Node9</title>
<g id="a_Node000009"><a xlink:href="app_8c.html#a1b33810b824b3b37999b55db2c1fb45d" target="_top" xlink:title=" ">
<polygon fill="white" stroke="#666666" points="275.25,-20.75 207.5,-20.75 207.5,0 275.25,0 275.25,-20.75"/>
<text text-anchor="middle" x="241.38" y="-7.25" font-family="Helvetica,sans-Serif" font-size="10.00">w2c__f555</text>
</a>
</g>
</g>
<!-- Node7&#45;&gt;Node9 -->
<g id="edge8_Node000007_Node000009" class="edge">
<title>Node7&#45;&gt;Node9</title>
<g id="a_edge8_Node000007_Node000009"><a xlink:title=" ">
<path fill="none" stroke="#63b8ff" d="M166.97,-38.51C177.66,-34.41 190.02,-29.67 201.51,-25.27"/>
<polygon fill="#63b8ff" stroke="#63b8ff" points="202.69,-28.57 210.77,-21.72 200.18,-22.03 202.69,-28.57"/>
</a>
</g>
</g>
</g>
</svg>
