<?xml version="1.0" encoding="UTF-8" standalone="no"?>
<!DOCTYPE svg PUBLIC "-//W3C//DTD SVG 1.1//EN"
 "http://www.w3.org/Graphics/SVG/1.1/DTD/svg11.dtd">
<!-- Generated by graphviz version 12.2.1 (0)
 -->
<!-- Title: wrap_w2c__f395 Pages: 1 -->
<svg width="416pt" height="146pt"
 viewBox="0.00 0.00 416.25 145.75" xmlns="http://www.w3.org/2000/svg" xmlns:xlink="http://www.w3.org/1999/xlink">
<g id="graph0" class="graph" transform="scale(1 1) rotate(0) translate(4 141.75)">
<title>wrap_w2c__f395</title>
<!-- Node1 -->
<g id="Node000001" class="node">
<title>Node1</title>
<g id="a_Node000001"><a xlink:title=" ">
<polygon fill="#999999" stroke="#666666" points="97,-78.75 0,-78.75 0,-58 97,-58 97,-78.75"/>
<text text-anchor="middle" x="48.5" y="-65.25" font-family="Helvetica,sans-Serif" font-size="10.00">wrap_w2c__f395</text>
</a>
</g>
</g>
<!-- Node2 -->
<g id="Node000002" class="node">
<title>Node2</title>
<g id="a_Node000002"><a xlink:href="app_8c.html#acc39c94fb61c3e1e8c2b07b4d898505d" target="_top" xlink:title=" ">
<polygon fill="white" stroke="#666666" points="200.75,-78.75 133,-78.75 133,-58 200.75,-58 200.75,-78.75"/>
<text text-anchor="middle" x="166.88" y="-65.25" font-family="Helvetica,sans-Serif" font-size="10.00">w2c__f395</text>
</a>
</g>
</g>
<!-- Node1&#45;&gt;Node2 -->
<g id="edge1_Node000001_Node000002" class="edge">
<title>Node1&#45;&gt;Node2</title>
<g id="a_edge1_Node000001_Node000002"><a xlink:title=" ">
<path fill="none" stroke="#63b8ff" d="M97.17,-68.38C105.18,-68.38 113.47,-68.38 121.4,-68.38"/>
<polygon fill="#63b8ff" stroke="#63b8ff" points="121.17,-71.88 131.17,-68.38 121.17,-64.88 121.17,-71.88"/>
</a>
</g>
</g>
<!-- Node3 -->
<g id="Node000003" class="node">
<title>Node3</title>
<g id="a_Node000003"><a xlink:href="app_8c.html#a0378208e0d5c0d1d6e7370f1c578fab3" target="_top" xlink:title=" ">
<polygon fill="white" stroke="#666666" points="304.5,-137.75 236.75,-137.75 236.75,-117 304.5,-117 304.5,-137.75"/>
<text text-anchor="middle" x="270.62" y="-124.25" font-family="Helvetica,sans-Serif" font-size="10.00">w2c__f216</text>
</a>
</g>
</g>
<!-- Node2&#45;&gt;Node3 -->
<g id="edge2_Node000002_Node000003" class="edge">
<title>Node2&#45;&gt;Node3</title>
<g id="a_edge2_Node000002_Node000003"><a xlink:title=" ">
<path fill="none" stroke="#63b8ff" d="M186.54,-79.2C201.88,-88.1 223.88,-100.85 241.38,-111"/>
<polygon fill="#63b8ff" stroke="#63b8ff" points="239.36,-113.87 249.77,-115.86 242.88,-107.82 239.36,-113.87"/>
</a>
</g>
</g>
<!-- Node5 -->
<g id="Node000005" class="node">
<title>Node5</title>
<g id="a_Node000005"><a xlink:href="app_8c.html#aaca5d5bcf49f2ca74019cf097750b9f3" target="_top" xlink:title=" ">
<polygon fill="white" stroke="#666666" points="304.5,-98.75 236.75,-98.75 236.75,-78 304.5,-78 304.5,-98.75"/>
<text text-anchor="middle" x="270.62" y="-85.25" font-family="Helvetica,sans-Serif" font-size="10.00">w2c__f258</text>
</a>
</g>
</g>
<!-- Node2&#45;&gt;Node5 -->
<g id="edge4_Node000002_Node000005" class="edge">
<title>Node2&#45;&gt;Node5</title>
<g id="a_edge4_Node000002_Node000005"><a xlink:title=" ">
<path fill="none" stroke="#63b8ff" d="M201.19,-74.92C208.91,-76.44 217.25,-78.08 225.36,-79.67"/>
<polygon fill="#63b8ff" stroke="#63b8ff" points="224.61,-83.09 235.1,-81.59 225.96,-76.22 224.61,-83.09"/>
</a>
</g>
</g>
<!-- Node7 -->
<g id="Node000007" class="node">
<title>Node7</title>
<g id="a_Node000007"><a xlink:href="app_8c.html#a1498426bba145c97675057441616261d" target="_top" xlink:title=" ">
<polygon fill="white" stroke="#666666" points="304.5,-59.75 236.75,-59.75 236.75,-39 304.5,-39 304.5,-59.75"/>
<text text-anchor="middle" x="270.62" y="-46.25" font-family="Helvetica,sans-Serif" font-size="10.00">w2c__f408</text>
</a>
</g>
</g>
<!-- Node2&#45;&gt;Node7 -->
<g id="edge7_Node000002_Node000007" class="edge">
<title>Node2&#45;&gt;Node7</title>
<g id="a_edge7_Node000002_Node000007"><a xlink:title=" ">
<path fill="none" stroke="#63b8ff" d="M201.19,-62.15C208.91,-60.71 217.25,-59.16 225.36,-57.64"/>
<polygon fill="#63b8ff" stroke="#63b8ff" points="225.91,-61.1 235.09,-55.82 224.62,-54.22 225.91,-61.1"/>
</a>
</g>
</g>
<!-- Node8 -->
<g id="Node000008" class="node">
<title>Node8</title>
<g id="a_Node000008"><a xlink:href="app_8c.html#a674f6e81761467d0a8dc6d2a425eda9f" target="_top" xlink:title=" ">
<polygon fill="white" stroke="#666666" points="304.5,-20.75 236.75,-20.75 236.75,0 304.5,0 304.5,-20.75"/>
<text text-anchor="middle" x="270.62" y="-7.25" font-family="Helvetica,sans-Serif" font-size="10.00">w2c__f498</text>
</a>
</g>
</g>
<!-- Node2&#45;&gt;Node8 -->
<g id="edge8_Node000002_Node000008" class="edge">
<title>Node2&#45;&gt;Node8</title>
<g id="a_edge8_Node000002_Node000008"><a xlink:title=" ">
<path fill="none" stroke="#63b8ff" d="M186.54,-57.74C201.79,-49.04 223.6,-36.61 241.05,-26.66"/>
<polygon fill="#63b8ff" stroke="#63b8ff" points="242.47,-29.88 249.42,-21.89 239,-23.8 242.47,-29.88"/>
</a>
</g>
</g>
<!-- Node4 -->
<g id="Node000004" class="node">
<title>Node4</title>
<g id="a_Node000004"><a xlink:href="app_8c.html#a8d9f347f9a643f0ebfb53c4f54578ac4" target="_top" xlink:title=" ">
<polygon fill="white" stroke="#666666" points="408.25,-137.75 340.5,-137.75 340.5,-117 408.25,-117 408.25,-137.75"/>
<text text-anchor="middle" x="374.38" y="-124.25" font-family="Helvetica,sans-Serif" font-size="10.00">w2c__f304</text>
</a>
</g>
</g>
<!-- Node3&#45;&gt;Node4 -->
<g id="edge3_Node000003_Node000004" class="edge">
<title>Node3&#45;&gt;Node4</title>
<g id="a_edge3_Node000003_Node000004"><a xlink:title=" ">
<path fill="none" stroke="#63b8ff" d="M304.94,-127.38C312.57,-127.38 320.81,-127.38 328.83,-127.38"/>
<polygon fill="#63b8ff" stroke="#63b8ff" points="328.82,-130.88 338.82,-127.38 328.82,-123.88 328.82,-130.88"/>
</a>
</g>
</g>
<!-- Node5&#45;&gt;Node4 -->
<g id="edge5_Node000005_Node000004" class="edge">
<title>Node5&#45;&gt;Node4</title>
<g id="a_edge5_Node000005_Node000004"><a xlink:title=" ">
<path fill="none" stroke="#63b8ff" d="M299.97,-99.24C310.66,-103.34 323.02,-108.08 334.51,-112.48"/>
<polygon fill="#63b8ff" stroke="#63b8ff" points="333.18,-115.72 343.77,-116.03 335.69,-109.18 333.18,-115.72"/>
</a>
</g>
</g>
<!-- Node6 -->
<g id="Node000006" class="node">
<title>Node6</title>
<g id="a_Node000006"><a xlink:href="app_8c.html#a881f0b113e93dce3ff52d04b435850f6" target="_top" xlink:title=" ">
<polygon fill="white" stroke="#666666" points="408.25,-98.75 340.5,-98.75 340.5,-78 408.25,-78 408.25,-98.75"/>
<text text-anchor="middle" x="374.38" y="-85.25" font-family="Helvetica,sans-Serif" font-size="10.00">w2c__f491</text>
</a>
</g>
</g>
<!-- Node5&#45;&gt;Node6 -->
<g id="edge6_Node000005_Node000006" class="edge">
<title>Node5&#45;&gt;Node6</title>
<g id="a_edge6_Node000005_Node000006"><a xlink:title=" ">
<path fill="none" stroke="#63b8ff" d="M304.94,-88.38C312.57,-88.38 320.81,-88.38 328.83,-88.38"/>
<polygon fill="#63b8ff" stroke="#63b8ff" points="328.82,-91.88 338.82,-88.38 328.82,-84.88 328.82,-91.88"/>
</a>
</g>
</g>
</g>
</svg>
