<?xml version="1.0" encoding="UTF-8" standalone="no"?>
<!DOCTYPE svg PUBLIC "-//W3C//DTD SVG 1.1//EN"
 "http://www.w3.org/Graphics/SVG/1.1/DTD/svg11.dtd">
<!-- Generated by graphviz version 12.2.1 (0)
 -->
<!-- Title: w2c_0_105 Pages: 1 -->
<svg width="583pt" height="145pt"
 viewBox="0.00 0.00 583.00 144.75" xmlns="http://www.w3.org/2000/svg" xmlns:xlink="http://www.w3.org/1999/xlink">
<g id="graph0" class="graph" transform="scale(1 1) rotate(0) translate(4 140.75)">
<title>w2c_0_105</title>
<!-- Node1 -->
<g id="Node000001" class="node">
<title>Node1</title>
<g id="a_Node000001"><a xlink:title=" ">
<polygon fill="#999999" stroke="#666666" points="575,-77.75 505,-77.75 505,-57 575,-57 575,-77.75"/>
<text text-anchor="middle" x="540" y="-64.25" font-family="Helvetica,sans-Serif" font-size="10.00">w2c_0_105</text>
</a>
</g>
</g>
<!-- Node2 -->
<g id="Node000002" class="node">
<title>Node2</title>
<g id="a_Node000002"><a xlink:href="app_8c.html#afdae10204d5cc9dd87771389db6460ec" target="_top" xlink:title=" ">
<polygon fill="white" stroke="#666666" points="453.25,-134.75 385.5,-134.75 385.5,-114 453.25,-114 453.25,-134.75"/>
<text text-anchor="middle" x="419.38" y="-121.25" font-family="Helvetica,sans-Serif" font-size="10.00">w2c__f314</text>
</a>
</g>
</g>
<!-- Node1&#45;&gt;Node2 -->
<g id="edge1_Node000001_Node000002" class="edge">
<title>Node1&#45;&gt;Node2</title>
<g id="a_edge1_Node000001_Node000002"><a xlink:title=" ">
<path fill="none" stroke="#63b8ff" d="M506.12,-83.17C485.99,-92.85 460.75,-104.97 442.88,-113.56"/>
<polygon fill="#63b8ff" stroke="#63b8ff" points="507.55,-86.37 515.04,-78.89 504.51,-80.06 507.55,-86.37"/>
</a>
</g>
</g>
<!-- Node5 -->
<g id="Node000005" class="node">
<title>Node5</title>
<g id="a_Node000005"><a xlink:href="app_8c.html#afb3fbfc35abe0f21d554f326b79a0b76" target="_top" xlink:title=" ">
<polygon fill="white" stroke="#666666" points="333.75,-96.75 266,-96.75 266,-76 333.75,-76 333.75,-96.75"/>
<text text-anchor="middle" x="299.88" y="-83.25" font-family="Helvetica,sans-Serif" font-size="10.00">w2c__f494</text>
</a>
</g>
</g>
<!-- Node1&#45;&gt;Node5 -->
<g id="edge9_Node000001_Node000005" class="edge">
<title>Node1&#45;&gt;Node5</title>
<g id="a_edge9_Node000001_Node000005"><a xlink:title=" ">
<path fill="none" stroke="#63b8ff" d="M493.35,-71.02C446.76,-74.74 375.57,-80.42 334.08,-83.73"/>
<polygon fill="#63b8ff" stroke="#63b8ff" points="493.43,-74.52 503.12,-70.24 492.87,-67.54 493.43,-74.52"/>
</a>
</g>
</g>
<!-- Node8 -->
<g id="Node000008" class="node">
<title>Node8</title>
<g id="a_Node000008"><a xlink:href="app_8c.html#ad1dbc2afe7918517df3fc54838f07298" target="_top" xlink:title=" ">
<polygon fill="white" stroke="#666666" points="215.38,-58.75 147.62,-58.75 147.62,-38 215.38,-38 215.38,-58.75"/>
<text text-anchor="middle" x="181.5" y="-45.25" font-family="Helvetica,sans-Serif" font-size="10.00">w2c__f520</text>
</a>
</g>
</g>
<!-- Node1&#45;&gt;Node8 -->
<g id="edge10_Node000001_Node000008" class="edge">
<title>Node1&#45;&gt;Node8</title>
<g id="a_edge10_Node000001_Node000008"><a xlink:title=" ">
<path fill="none" stroke="#63b8ff" d="M493.76,-64.96C421.1,-61.09 280.03,-53.57 215.8,-50.15"/>
<polygon fill="#63b8ff" stroke="#63b8ff" points="493.13,-68.44 503.31,-65.47 493.51,-61.45 493.13,-68.44"/>
</a>
</g>
</g>
<!-- Node10 -->
<g id="Node000010" class="node">
<title>Node10</title>
<g id="a_Node000010"><a xlink:href="app_8c.html#a033c0626c9909fd345d7bf260633ccd4" target="_top" xlink:title=" ">
<polygon fill="white" stroke="#666666" points="469,-20.75 369.75,-20.75 369.75,0 469,0 469,-20.75"/>
<text text-anchor="middle" x="419.38" y="-7.25" font-family="Helvetica,sans-Serif" font-size="10.00">wrap_w2c_0_105</text>
</a>
</g>
</g>
<!-- Node1&#45;&gt;Node10 -->
<g id="edge11_Node000001_Node000010" class="edge">
<title>Node1&#45;&gt;Node10</title>
<g id="a_edge11_Node000001_Node000010"><a xlink:title=" ">
<path fill="none" stroke="#63b8ff" d="M506.12,-51.58C485.99,-41.9 460.75,-29.78 442.88,-21.19"/>
<polygon fill="#63b8ff" stroke="#63b8ff" points="504.51,-54.69 515.04,-55.86 507.55,-48.38 504.51,-54.69"/>
</a>
</g>
</g>
<!-- Node3 -->
<g id="Node000003" class="node">
<title>Node3</title>
<g id="a_Node000003"><a xlink:href="app_8c.html#a7dc7d70793bae217b64eab580fce99cb" target="_top" xlink:title=" ">
<polygon fill="white" stroke="#666666" points="333.75,-135.75 266,-135.75 266,-115 333.75,-115 333.75,-135.75"/>
<text text-anchor="middle" x="299.88" y="-122.25" font-family="Helvetica,sans-Serif" font-size="10.00">w2c__f215</text>
</a>
</g>
</g>
<!-- Node2&#45;&gt;Node3 -->
<g id="edge2_Node000002_Node000003" class="edge">
<title>Node2&#45;&gt;Node3</title>
<g id="a_edge2_Node000002_Node000003"><a xlink:title=" ">
<path fill="none" stroke="#63b8ff" d="M373.73,-124.75C360.5,-124.87 346.26,-124.99 333.91,-125.09"/>
<polygon fill="#63b8ff" stroke="#63b8ff" points="373.54,-128.26 383.51,-124.67 373.48,-121.26 373.54,-128.26"/>
</a>
</g>
</g>
<!-- Node2&#45;&gt;Node5 -->
<g id="edge4_Node000002_Node000005" class="edge">
<title>Node2&#45;&gt;Node5</title>
<g id="a_edge4_Node000002_Node000005"><a xlink:title=" ">
<path fill="none" stroke="#63b8ff" d="M374.13,-110.07C360.79,-105.75 346.38,-101.09 333.91,-97.06"/>
<polygon fill="#63b8ff" stroke="#63b8ff" points="372.99,-113.37 383.58,-113.12 375.14,-106.71 372.99,-113.37"/>
</a>
</g>
</g>
<!-- Node4 -->
<g id="Node000004" class="node">
<title>Node4</title>
<g id="a_Node000004"><a xlink:href="app_8c.html#a7f65ba02075f2865f478747946b07c94" target="_top" xlink:title=" ">
<polygon fill="white" stroke="#666666" points="230,-136.75 133,-136.75 133,-116 230,-116 230,-136.75"/>
<text text-anchor="middle" x="181.5" y="-123.25" font-family="Helvetica,sans-Serif" font-size="10.00">wrap_w2c__f215</text>
</a>
</g>
</g>
<!-- Node3&#45;&gt;Node4 -->
<g id="edge3_Node000003_Node000004" class="edge">
<title>Node3&#45;&gt;Node4</title>
<g id="a_edge3_Node000003_Node000004"><a xlink:title=" ">
<path fill="none" stroke="#63b8ff" d="M254.28,-125.76C246.39,-125.83 238.14,-125.9 230.16,-125.97"/>
<polygon fill="#63b8ff" stroke="#63b8ff" points="254.04,-129.26 264.01,-125.67 253.98,-122.26 254.04,-129.26"/>
</a>
</g>
</g>
<!-- Node6 -->
<g id="Node000006" class="node">
<title>Node6</title>
<g id="a_Node000006"><a xlink:href="app_8c.html#a86ae468e235684021eadfdacd5cb9dba" target="_top" xlink:title=" ">
<polygon fill="white" stroke="#666666" points="215.38,-97.75 147.62,-97.75 147.62,-77 215.38,-77 215.38,-97.75"/>
<text text-anchor="middle" x="181.5" y="-84.25" font-family="Helvetica,sans-Serif" font-size="10.00">w2c__f452</text>
</a>
</g>
</g>
<!-- Node5&#45;&gt;Node6 -->
<g id="edge5_Node000005_Node000006" class="edge">
<title>Node5&#45;&gt;Node6</title>
<g id="a_edge5_Node000005_Node000006"><a xlink:title=" ">
<path fill="none" stroke="#63b8ff" d="M254.16,-86.76C241.43,-86.87 227.78,-86.99 215.85,-87.09"/>
<polygon fill="#63b8ff" stroke="#63b8ff" points="254.04,-90.26 264.01,-86.67 253.98,-83.26 254.04,-90.26"/>
</a>
</g>
</g>
<!-- Node5&#45;&gt;Node8 -->
<g id="edge7_Node000005_Node000008" class="edge">
<title>Node5&#45;&gt;Node8</title>
<g id="a_edge7_Node000005_Node000008"><a xlink:title=" ">
<path fill="none" stroke="#63b8ff" d="M255.15,-72.1C242.05,-67.82 227.91,-63.2 215.62,-59.19"/>
<polygon fill="#63b8ff" stroke="#63b8ff" points="253.81,-75.34 264.4,-75.12 255.98,-68.69 253.81,-75.34"/>
</a>
</g>
</g>
<!-- Node7 -->
<g id="Node000007" class="node">
<title>Node7</title>
<g id="a_Node000007"><a xlink:href="app_8c.html#a57ca4f801147f9325a0ea7cc2d7192c5" target="_top" xlink:title=" ">
<polygon fill="white" stroke="#666666" points="97,-97.75 0,-97.75 0,-77 97,-77 97,-97.75"/>
<text text-anchor="middle" x="48.5" y="-84.25" font-family="Helvetica,sans-Serif" font-size="10.00">wrap_w2c__f452</text>
</a>
</g>
</g>
<!-- Node6&#45;&gt;Node7 -->
<g id="edge6_Node000006_Node000007" class="edge">
<title>Node6&#45;&gt;Node7</title>
<g id="a_edge6_Node000006_Node000007"><a xlink:title=" ">
<path fill="none" stroke="#63b8ff" d="M135.95,-87.38C123.53,-87.38 110,-87.38 97.4,-87.38"/>
<polygon fill="#63b8ff" stroke="#63b8ff" points="135.93,-90.88 145.93,-87.38 135.93,-83.88 135.93,-90.88"/>
</a>
</g>
</g>
<!-- Node9 -->
<g id="Node000009" class="node">
<title>Node9</title>
<g id="a_Node000009"><a xlink:href="app_8c.html#a130f07b726020d1add9a7ed5178e023a" target="_top" xlink:title=" ">
<polygon fill="white" stroke="#666666" points="97,-58.75 0,-58.75 0,-38 97,-38 97,-58.75"/>
<text text-anchor="middle" x="48.5" y="-45.25" font-family="Helvetica,sans-Serif" font-size="10.00">wrap_w2c__f520</text>
</a>
</g>
</g>
<!-- Node8&#45;&gt;Node9 -->
<g id="edge8_Node000008_Node000009" class="edge">
<title>Node8&#45;&gt;Node9</title>
<g id="a_edge8_Node000008_Node000009"><a xlink:title=" ">
<path fill="none" stroke="#63b8ff" d="M135.95,-48.38C123.53,-48.38 110,-48.38 97.4,-48.38"/>
<polygon fill="#63b8ff" stroke="#63b8ff" points="135.93,-51.88 145.93,-48.38 135.93,-44.88 135.93,-51.88"/>
</a>
</g>
</g>
</g>
</svg>
