<?xml version="1.0" encoding="UTF-8" standalone="no"?>
<!DOCTYPE svg PUBLIC "-//W3C//DTD SVG 1.1//EN"
 "http://www.w3.org/Graphics/SVG/1.1/DTD/svg11.dtd">
<!-- Generated by graphviz version 12.2.1 (0)
 -->
<!-- Title: w2c__f480 Pages: 1 -->
<svg width="597pt" height="504pt"
 viewBox="0.00 0.00 596.75 503.75" xmlns="http://www.w3.org/2000/svg" xmlns:xlink="http://www.w3.org/1999/xlink">
<g id="graph0" class="graph" transform="scale(1 1) rotate(0) translate(4 499.75)">
<title>w2c__f480</title>
<!-- Node1 -->
<g id="Node000001" class="node">
<title>Node1</title>
<g id="a_Node000001"><a xlink:title=" ">
<polygon fill="#999999" stroke="#666666" points="67.75,-230.75 0,-230.75 0,-210 67.75,-210 67.75,-230.75"/>
<text text-anchor="middle" x="33.88" y="-217.25" font-family="Helvetica,sans-Serif" font-size="10.00">w2c__f480</text>
</a>
</g>
</g>
<!-- Node2 -->
<g id="Node000002" class="node">
<title>Node2</title>
<g id="a_Node000002"><a xlink:href="app_8c.html#a21c3335f5635ea7ae1fba0f925c4148a" target="_top" xlink:title=" ">
<polygon fill="white" stroke="#666666" points="173.75,-495.75 103.75,-495.75 103.75,-475 173.75,-475 173.75,-495.75"/>
<text text-anchor="middle" x="138.75" y="-482.25" font-family="Helvetica,sans-Serif" font-size="10.00">w2c_0_169</text>
</a>
</g>
</g>
<!-- Node1&#45;&gt;Node2 -->
<g id="edge1_Node000001_Node000002" class="edge">
<title>Node1&#45;&gt;Node2</title>
<g id="a_edge1_Node000001_Node000002"><a xlink:title=" ">
<path fill="none" stroke="#63b8ff" d="M35.44,-231.07C37.82,-266.95 49.6,-385.08 103.75,-461.38 105.36,-463.64 107.25,-465.77 109.31,-467.75"/>
<polygon fill="#63b8ff" stroke="#63b8ff" points="106.65,-470.1 116.62,-473.68 111.06,-464.66 106.65,-470.1"/>
</a>
</g>
</g>
<!-- Node3 -->
<g id="Node000003" class="node">
<title>Node3</title>
<g id="a_Node000003"><a xlink:href="app_8c.html#a4f89434e73555473a637aa72f93ac987" target="_top" xlink:title=" ">
<polygon fill="white" stroke="#666666" points="275.62,-249.75 211.62,-249.75 211.62,-229 275.62,-229 275.62,-249.75"/>
<text text-anchor="middle" x="243.62" y="-236.25" font-family="Helvetica,sans-Serif" font-size="10.00">w2c_0_50</text>
</a>
</g>
</g>
<!-- Node1&#45;&gt;Node3 -->
<g id="edge2_Node000001_Node000003" class="edge">
<title>Node1&#45;&gt;Node3</title>
<g id="a_edge2_Node000001_Node000003"><a xlink:title=" ">
<path fill="none" stroke="#63b8ff" d="M67.79,-223.39C103.54,-226.65 160.76,-231.89 199.93,-235.47"/>
<polygon fill="#63b8ff" stroke="#63b8ff" points="199.44,-238.94 209.71,-236.36 200.07,-231.97 199.44,-238.94"/>
</a>
</g>
</g>
<!-- Node4 -->
<g id="Node000004" class="node">
<title>Node4</title>
<g id="a_Node000004"><a xlink:href="app_8c.html#a177b896bb3ca11b154be35fca033e047" target="_top" xlink:title=" ">
<polygon fill="white" stroke="#666666" points="277.5,-325.75 209.75,-325.75 209.75,-305 277.5,-305 277.5,-325.75"/>
<text text-anchor="middle" x="243.62" y="-312.25" font-family="Helvetica,sans-Serif" font-size="10.00">w2c__f235</text>
</a>
</g>
</g>
<!-- Node1&#45;&gt;Node4 -->
<g id="edge3_Node000001_Node000004" class="edge">
<title>Node1&#45;&gt;Node4</title>
<g id="a_edge3_Node000001_Node000004"><a xlink:title=" ">
<path fill="none" stroke="#63b8ff" d="M58.3,-231.09C95.01,-247.87 166.24,-280.45 208.6,-299.82"/>
<polygon fill="#63b8ff" stroke="#63b8ff" points="207.04,-302.95 217.59,-303.93 209.95,-296.58 207.04,-302.95"/>
</a>
</g>
</g>
<!-- Node5 -->
<g id="Node000005" class="node">
<title>Node5</title>
<g id="a_Node000005"><a xlink:href="app_8c.html#a954fa13f62a4fa2757b0f2bf4e9de60d" target="_top" xlink:title=" ">
<polygon fill="white" stroke="#666666" points="381.25,-372.75 313.5,-372.75 313.5,-352 381.25,-352 381.25,-372.75"/>
<text text-anchor="middle" x="347.38" y="-359.25" font-family="Helvetica,sans-Serif" font-size="10.00">w2c__f474</text>
</a>
</g>
</g>
<!-- Node1&#45;&gt;Node5 -->
<g id="edge20_Node000001_Node000005" class="edge">
<title>Node1&#45;&gt;Node5</title>
<g id="a_edge20_Node000001_Node000005"><a xlink:title=" ">
<path fill="none" stroke="#63b8ff" d="M38.53,-231.18C46.66,-253.64 68.37,-305.68 103.75,-334.38 159.89,-379.92 248.86,-377.22 302.04,-370.33"/>
<polygon fill="#63b8ff" stroke="#63b8ff" points="302.23,-373.84 311.64,-368.98 301.25,-366.91 302.23,-373.84"/>
</a>
</g>
</g>
<!-- Node6 -->
<g id="Node000006" class="node">
<title>Node6</title>
<g id="a_Node000006"><a xlink:href="app_8c.html#a800df00ef236c6d6affc3c661b37e3ad" target="_top" xlink:title=" ">
<polygon fill="white" stroke="#666666" points="485,-211.75 417.25,-211.75 417.25,-191 485,-191 485,-211.75"/>
<text text-anchor="middle" x="451.12" y="-198.25" font-family="Helvetica,sans-Serif" font-size="10.00">w2c__f487</text>
</a>
</g>
</g>
<!-- Node1&#45;&gt;Node6 -->
<g id="edge21_Node000001_Node000006" class="edge">
<title>Node1&#45;&gt;Node6</title>
<g id="a_edge21_Node000001_Node000006"><a xlink:title=" ">
<path fill="none" stroke="#63b8ff" d="M36.68,-231.05C41.83,-257.99 59.19,-329.13 103.75,-364.38 164.85,-412.7 199.64,-389.62 277.5,-387.38 323.67,-386.04 343.97,-408.64 381.25,-381.38 432.56,-343.84 445.64,-262.89 448.98,-223.62"/>
<polygon fill="#63b8ff" stroke="#63b8ff" points="452.47,-223.97 449.67,-213.75 445.48,-223.49 452.47,-223.97"/>
</a>
</g>
</g>
<!-- Node8 -->
<g id="Node000008" class="node">
<title>Node8</title>
<g id="a_Node000008"><a xlink:href="app_8c.html#a198d9a8fce939a5bd8295c13954258f2" target="_top" xlink:title=" ">
<polygon fill="white" stroke="#666666" points="381.25,-97.75 313.5,-97.75 313.5,-77 381.25,-77 381.25,-97.75"/>
<text text-anchor="middle" x="347.38" y="-84.25" font-family="Helvetica,sans-Serif" font-size="10.00">w2c__f280</text>
</a>
</g>
</g>
<!-- Node1&#45;&gt;Node8 -->
<g id="edge9_Node000001_Node000008" class="edge">
<title>Node1&#45;&gt;Node8</title>
<g id="a_edge9_Node000001_Node000008"><a xlink:title=" ">
<path fill="none" stroke="#63b8ff" d="M40.51,-209.57C50.64,-191.25 73.69,-154.12 103.75,-134.38 164.13,-94.7 250.05,-86.89 301.79,-86.18"/>
<polygon fill="#63b8ff" stroke="#63b8ff" points="301.73,-89.68 311.71,-86.14 301.7,-82.68 301.73,-89.68"/>
</a>
</g>
</g>
<!-- Node9 -->
<g id="Node000009" class="node">
<title>Node9</title>
<g id="a_Node000009"><a xlink:href="app_8c.html#a3d7b097f4ea595d9ddbd29a8f336a42b" target="_top" xlink:title=" ">
<polygon fill="white" stroke="#666666" points="277.5,-173.75 209.75,-173.75 209.75,-153 277.5,-153 277.5,-173.75"/>
<text text-anchor="middle" x="243.62" y="-160.25" font-family="Helvetica,sans-Serif" font-size="10.00">w2c__f298</text>
</a>
</g>
</g>
<!-- Node1&#45;&gt;Node9 -->
<g id="edge11_Node000001_Node000009" class="edge">
<title>Node1&#45;&gt;Node9</title>
<g id="a_edge11_Node000001_Node000009"><a xlink:title=" ">
<path fill="none" stroke="#63b8ff" d="M50.52,-209.54C64,-200.76 84.31,-188.82 103.75,-182.38 134.27,-172.26 170.28,-167.52 197.98,-165.31"/>
<polygon fill="#63b8ff" stroke="#63b8ff" points="198.07,-168.81 207.8,-164.61 197.57,-161.83 198.07,-168.81"/>
</a>
</g>
</g>
<!-- Node10 -->
<g id="Node000010" class="node">
<title>Node10</title>
<g id="a_Node000010"><a xlink:href="app_8c.html#a143069370e922aaaa9a54ef24795b2c7" target="_top" xlink:title=" ">
<polygon fill="white" stroke="#666666" points="277.5,-134.75 209.75,-134.75 209.75,-114 277.5,-114 277.5,-134.75"/>
<text text-anchor="middle" x="243.62" y="-121.25" font-family="Helvetica,sans-Serif" font-size="10.00">w2c__f379</text>
</a>
</g>
</g>
<!-- Node1&#45;&gt;Node10 -->
<g id="edge13_Node000001_Node000010" class="edge">
<title>Node1&#45;&gt;Node10</title>
<g id="a_edge13_Node000001_Node000010"><a xlink:title=" ">
<path fill="none" stroke="#63b8ff" d="M45.11,-209.77C57.78,-197.22 80.53,-176.51 103.75,-164.38 133.56,-148.8 170.22,-138.57 198.39,-132.36"/>
<polygon fill="#63b8ff" stroke="#63b8ff" points="198.96,-135.81 208.03,-130.32 197.52,-128.96 198.96,-135.81"/>
</a>
</g>
</g>
<!-- Node11 -->
<g id="Node000011" class="node">
<title>Node11</title>
<g id="a_Node000011"><a xlink:href="app_8c.html#a6724f0ad6b5e425ef0114f66f942aecd" target="_top" xlink:title=" ">
<polygon fill="white" stroke="#666666" points="172.62,-211.75 104.88,-211.75 104.88,-191 172.62,-191 172.62,-211.75"/>
<text text-anchor="middle" x="138.75" y="-198.25" font-family="Helvetica,sans-Serif" font-size="10.00">w2c__f463</text>
</a>
</g>
</g>
<!-- Node1&#45;&gt;Node11 -->
<g id="edge15_Node000001_Node000011" class="edge">
<title>Node1&#45;&gt;Node11</title>
<g id="a_edge15_Node000001_Node000011"><a xlink:title=" ">
<path fill="none" stroke="#63b8ff" d="M67.99,-214.26C76.16,-212.75 85.04,-211.11 93.64,-209.52"/>
<polygon fill="#63b8ff" stroke="#63b8ff" points="94.01,-213.01 103.21,-207.75 92.74,-206.13 94.01,-213.01"/>
</a>
</g>
</g>
<!-- Node12 -->
<g id="Node000012" class="node">
<title>Node12</title>
<g id="a_Node000012"><a xlink:href="app_8c.html#a0e0dad0ebc52e45eeff2e1b5d8389ea4" target="_top" xlink:title=" ">
<polygon fill="white" stroke="#666666" points="172.62,-20.75 104.88,-20.75 104.88,0 172.62,0 172.62,-20.75"/>
<text text-anchor="middle" x="138.75" y="-7.25" font-family="Helvetica,sans-Serif" font-size="10.00">w2c__f534</text>
</a>
</g>
</g>
<!-- Node1&#45;&gt;Node12 -->
<g id="edge22_Node000001_Node000012" class="edge">
<title>Node1&#45;&gt;Node12</title>
<g id="a_edge22_Node000001_Node000012"><a xlink:title=" ">
<path fill="none" stroke="#63b8ff" d="M36.55,-209.64C41.74,-179.3 59.89,-91.43 103.75,-34.38 105.48,-32.12 107.49,-29.99 109.64,-28"/>
<polygon fill="#63b8ff" stroke="#63b8ff" points="111.55,-30.95 117.22,-22 107.2,-25.47 111.55,-30.95"/>
</a>
</g>
</g>
<!-- Node13 -->
<g id="Node000013" class="node">
<title>Node13</title>
<g id="a_Node000013"><a xlink:href="app_8c.html#a37fce8ca7d5ce886ab2e3a8da2d33566" target="_top" xlink:title=" ">
<polygon fill="white" stroke="#666666" points="172.62,-325.75 104.88,-325.75 104.88,-305 172.62,-305 172.62,-325.75"/>
<text text-anchor="middle" x="138.75" y="-312.25" font-family="Helvetica,sans-Serif" font-size="10.00">w2c__f548</text>
</a>
</g>
</g>
<!-- Node1&#45;&gt;Node13 -->
<g id="edge23_Node000001_Node000013" class="edge">
<title>Node1&#45;&gt;Node13</title>
<g id="a_edge23_Node000001_Node000013"><a xlink:title=" ">
<path fill="none" stroke="#63b8ff" d="M44.12,-231.09C56.84,-245.54 80.78,-271.73 103.75,-291.38 106.41,-293.65 109.28,-295.92 112.19,-298.11"/>
<polygon fill="#63b8ff" stroke="#63b8ff" points="109.99,-300.84 120.15,-303.85 114.08,-295.16 109.99,-300.84"/>
</a>
</g>
</g>
<!-- Node14 -->
<g id="Node000014" class="node">
<title>Node14</title>
<g id="a_Node000014"><a xlink:href="app_8c.html#a971cd7f91f64ad7d3cfb3e54d391f1a5" target="_top" xlink:title=" ">
<polygon fill="white" stroke="#666666" points="381.25,-58.75 313.5,-58.75 313.5,-38 381.25,-38 381.25,-58.75"/>
<text text-anchor="middle" x="347.38" y="-45.25" font-family="Helvetica,sans-Serif" font-size="10.00">w2c__f553</text>
</a>
</g>
</g>
<!-- Node1&#45;&gt;Node14 -->
<g id="edge27_Node000001_Node000014" class="edge">
<title>Node1&#45;&gt;Node14</title>
<g id="a_edge27_Node000001_Node000014"><a xlink:title=" ">
<path fill="none" stroke="#63b8ff" d="M37.71,-209.63C44.63,-185.69 64.69,-127.87 103.75,-99.38 162.59,-56.45 249.64,-47.99 301.91,-47.19"/>
<polygon fill="#63b8ff" stroke="#63b8ff" points="301.65,-50.69 311.63,-47.13 301.61,-43.69 301.65,-50.69"/>
</a>
</g>
</g>
<!-- Node4&#45;&gt;Node4 -->
<g id="edge4_Node000004_Node000004" class="edge">
<title>Node4&#45;&gt;Node4</title>
<g id="a_edge4_Node000004_Node000004"><a xlink:title=" ">
<path fill="none" stroke="#63b8ff" d="M226.91,-326.15C220.22,-334.81 225.79,-343.75 243.62,-343.75 253.1,-343.75 259.11,-341.23 261.66,-337.56"/>
<polygon fill="#63b8ff" stroke="#63b8ff" points="265.14,-337.18 260.52,-327.65 258.19,-337.99 265.14,-337.18"/>
</a>
</g>
</g>
<!-- Node4&#45;&gt;Node5 -->
<g id="edge5_Node000004_Node000005" class="edge">
<title>Node4&#45;&gt;Node5</title>
<g id="a_edge5_Node000004_Node000005"><a xlink:title=" ">
<path fill="none" stroke="#63b8ff" d="M267.97,-326.16C281.28,-332.31 298.2,-340.12 312.9,-346.91"/>
<polygon fill="#63b8ff" stroke="#63b8ff" points="311.22,-349.99 321.77,-351.01 314.16,-343.64 311.22,-349.99"/>
</a>
</g>
</g>
<!-- Node4&#45;&gt;Node6 -->
<g id="edge8_Node000004_Node000006" class="edge">
<title>Node4&#45;&gt;Node6</title>
<g id="a_edge8_Node000004_Node000006"><a xlink:title=" ">
<path fill="none" stroke="#63b8ff" d="M277.88,-316.13C307.11,-315.34 349.76,-310.5 381.25,-291.38 408.48,-274.84 428.81,-243.22 440.09,-222.21"/>
<polygon fill="#63b8ff" stroke="#63b8ff" points="443.15,-223.91 444.58,-213.41 436.92,-220.72 443.15,-223.91"/>
</a>
</g>
</g>
<!-- Node5&#45;&gt;Node6 -->
<g id="edge6_Node000005_Node000006" class="edge">
<title>Node5&#45;&gt;Node6</title>
<g id="a_edge6_Node000005_Node000006"><a xlink:title=" ">
<path fill="none" stroke="#63b8ff" d="M360.82,-351.52C367.37,-345.42 375.27,-337.43 381.25,-329.38 407.19,-294.43 429.44,-248.47 441.2,-222.2"/>
<polygon fill="#63b8ff" stroke="#63b8ff" points="444.28,-223.88 445.1,-213.32 437.87,-221.07 444.28,-223.88"/>
</a>
</g>
</g>
<!-- Node7 -->
<g id="Node000007" class="node">
<title>Node7</title>
<g id="a_Node000007"><a xlink:href="app_8c.html#a71bcbce7faf780cd081af3fa82d6da97" target="_top" xlink:title=" ">
<polygon fill="white" stroke="#666666" points="588.75,-211.75 521,-211.75 521,-191 588.75,-191 588.75,-211.75"/>
<text text-anchor="middle" x="554.88" y="-198.25" font-family="Helvetica,sans-Serif" font-size="10.00">w2c__f437</text>
</a>
</g>
</g>
<!-- Node6&#45;&gt;Node7 -->
<g id="edge7_Node000006_Node000007" class="edge">
<title>Node6&#45;&gt;Node7</title>
<g id="a_edge7_Node000006_Node000007"><a xlink:title=" ">
<path fill="none" stroke="#63b8ff" d="M485.44,-201.38C493.07,-201.38 501.31,-201.38 509.33,-201.38"/>
<polygon fill="#63b8ff" stroke="#63b8ff" points="509.32,-204.88 519.32,-201.38 509.32,-197.88 509.32,-204.88"/>
</a>
</g>
</g>
<!-- Node8&#45;&gt;Node6 -->
<g id="edge10_Node000008_Node000006" class="edge">
<title>Node8&#45;&gt;Node6</title>
<g id="a_edge10_Node000008_Node000006"><a xlink:title=" ">
<path fill="none" stroke="#63b8ff" d="M365.16,-98.22C370.56,-102.07 376.4,-106.63 381.25,-111.38 403.33,-132.96 424.22,-161.9 437.09,-181.07"/>
<polygon fill="#63b8ff" stroke="#63b8ff" points="434.11,-182.91 442.53,-189.34 439.95,-179.06 434.11,-182.91"/>
</a>
</g>
</g>
<!-- Node9&#45;&gt;Node6 -->
<g id="edge12_Node000009_Node000006" class="edge">
<title>Node9&#45;&gt;Node6</title>
<g id="a_edge12_Node000009_Node000006"><a xlink:title=" ">
<path fill="none" stroke="#63b8ff" d="M277.8,-168.95C305.49,-173.66 345.99,-180.7 381.25,-187.38 389.15,-188.87 397.56,-190.53 405.67,-192.16"/>
<polygon fill="#63b8ff" stroke="#63b8ff" points="404.9,-195.57 415.4,-194.13 406.29,-188.71 404.9,-195.57"/>
</a>
</g>
</g>
<!-- Node10&#45;&gt;Node6 -->
<g id="edge14_Node000010_Node000006" class="edge">
<title>Node10&#45;&gt;Node6</title>
<g id="a_edge14_Node000010_Node000006"><a xlink:title=" ">
<path fill="none" stroke="#63b8ff" d="M277.74,-134.95C305.58,-144.03 346.3,-157.78 381.25,-171.38 392.86,-175.89 405.39,-181.21 416.54,-186.11"/>
<polygon fill="#63b8ff" stroke="#63b8ff" points="414.79,-189.16 425.35,-190.02 417.63,-182.76 414.79,-189.16"/>
</a>
</g>
</g>
<!-- Node11&#45;&gt;Node3 -->
<g id="edge16_Node000011_Node000003" class="edge">
<title>Node11&#45;&gt;Node3</title>
<g id="a_edge16_Node000011_Node000003"><a xlink:title=" ">
<path fill="none" stroke="#63b8ff" d="M168.95,-212.16C179.49,-216.05 191.56,-220.51 202.85,-224.68"/>
<polygon fill="#63b8ff" stroke="#63b8ff" points="201.33,-227.85 211.93,-228.04 203.76,-221.29 201.33,-227.85"/>
</a>
</g>
</g>
<!-- Node11&#45;&gt;Node6 -->
<g id="edge19_Node000011_Node000006" class="edge">
<title>Node11&#45;&gt;Node6</title>
<g id="a_edge19_Node000011_Node000006"><a xlink:title=" ">
<path fill="none" stroke="#63b8ff" d="M172.97,-201.38C229.09,-201.38 342.7,-201.38 405.64,-201.38"/>
<polygon fill="#63b8ff" stroke="#63b8ff" points="405.63,-204.88 415.63,-201.38 405.63,-197.88 405.63,-204.88"/>
</a>
</g>
</g>
<!-- Node11&#45;&gt;Node9 -->
<g id="edge17_Node000011_Node000009" class="edge">
<title>Node11&#45;&gt;Node9</title>
<g id="a_edge17_Node000011_Node000009"><a xlink:title=" ">
<path fill="none" stroke="#63b8ff" d="M168.95,-190.59C179.49,-186.7 191.56,-182.24 202.85,-178.07"/>
<polygon fill="#63b8ff" stroke="#63b8ff" points="203.76,-181.46 211.93,-174.71 201.33,-174.9 203.76,-181.46"/>
</a>
</g>
</g>
<!-- Node11&#45;&gt;Node10 -->
<g id="edge18_Node000011_Node000010" class="edge">
<title>Node11&#45;&gt;Node10</title>
<g id="a_edge18_Node000011_Node000010"><a xlink:title=" ">
<path fill="none" stroke="#63b8ff" d="M151.74,-190.76C165.38,-178.9 188.5,-159.38 209.75,-144.38 211.29,-143.29 212.89,-142.2 214.51,-141.12"/>
<polygon fill="#63b8ff" stroke="#63b8ff" points="216.07,-144.28 222.63,-135.96 212.31,-138.37 216.07,-144.28"/>
</a>
</g>
</g>
<!-- Node13&#45;&gt;Node4 -->
<g id="edge24_Node000013_Node000004" class="edge">
<title>Node13&#45;&gt;Node4</title>
<g id="a_edge24_Node000013_Node000004"><a xlink:title=" ">
<path fill="none" stroke="#63b8ff" d="M172.87,-315.38C180.94,-315.38 189.71,-315.38 198.22,-315.38"/>
<polygon fill="#63b8ff" stroke="#63b8ff" points="198.06,-318.88 208.06,-315.38 198.06,-311.88 198.06,-318.88"/>
</a>
</g>
</g>
<!-- Node13&#45;&gt;Node5 -->
<g id="edge25_Node000013_Node000005" class="edge">
<title>Node13&#45;&gt;Node5</title>
<g id="a_edge25_Node000013_Node000005"><a xlink:title=" ">
<path fill="none" stroke="#63b8ff" d="M155.62,-326.23C169.31,-334.96 189.93,-346.68 209.75,-352.38 239.62,-360.95 274.59,-363.38 301.67,-363.7"/>
<polygon fill="#63b8ff" stroke="#63b8ff" points="301.62,-367.2 311.62,-363.71 301.63,-360.2 301.62,-367.2"/>
</a>
</g>
</g>
<!-- Node13&#45;&gt;Node6 -->
<g id="edge26_Node000013_Node000006" class="edge">
<title>Node13&#45;&gt;Node6</title>
<g id="a_edge26_Node000013_Node000006"><a xlink:title=" ">
<path fill="none" stroke="#63b8ff" d="M169.23,-304.55C225.19,-283.99 346.84,-239.31 410.11,-216.07"/>
<polygon fill="#63b8ff" stroke="#63b8ff" points="411.24,-219.39 419.42,-212.65 408.83,-212.81 411.24,-219.39"/>
</a>
</g>
</g>
<!-- Node14&#45;&gt;Node6 -->
<g id="edge28_Node000014_Node000006" class="edge">
<title>Node14&#45;&gt;Node6</title>
<g id="a_edge28_Node000014_Node000006"><a xlink:title=" ">
<path fill="none" stroke="#63b8ff" d="M369.82,-59.07C373.93,-61.74 377.97,-64.86 381.25,-68.38 412.3,-101.64 433.09,-151.58 443.13,-179.85"/>
<polygon fill="#63b8ff" stroke="#63b8ff" points="439.74,-180.76 446.29,-189.09 446.37,-178.5 439.74,-180.76"/>
</a>
</g>
</g>
</g>
</svg>
