<?xml version="1.0" encoding="UTF-8" standalone="no"?>
<!DOCTYPE svg PUBLIC "-//W3C//DTD SVG 1.1//EN"
 "http://www.w3.org/Graphics/SVG/1.1/DTD/svg11.dtd">
<!-- Generated by graphviz version 12.2.1 (0)
 -->
<!-- Title: wasm_quiet Pages: 1 -->
<svg width="806pt" height="857pt"
 viewBox="0.00 0.00 806.25 856.93" xmlns="http://www.w3.org/2000/svg" xmlns:xlink="http://www.w3.org/1999/xlink">
<g id="graph0" class="graph" transform="scale(1 1) rotate(0) translate(4 852.93)">
<title>wasm_quiet</title>
<!-- Node1 -->
<g id="Node000001" class="node">
<title>Node1</title>
<g id="a_Node000001"><a xlink:title=" ">
<polygon fill="#999999" stroke="#666666" points="798.25,-517.75 723,-517.75 723,-497 798.25,-497 798.25,-517.75"/>
<text text-anchor="middle" x="760.62" y="-504.25" font-family="Helvetica,sans-Serif" font-size="10.00">wasm_quiet</text>
</a>
</g>
</g>
<!-- Node2 -->
<g id="Node000002" class="node">
<title>Node2</title>
<g id="a_Node000002"><a xlink:href="app_8c.html#aeb12ecc9385837eed1de8b75424f1317" target="_top" xlink:title=" ">
<polygon fill="white" stroke="#666666" points="687,-783.75 619.25,-783.75 619.25,-763 687,-763 687,-783.75"/>
<text text-anchor="middle" x="653.12" y="-770.25" font-family="Helvetica,sans-Serif" font-size="10.00">w2c__f205</text>
</a>
</g>
</g>
<!-- Node1&#45;&gt;Node2 -->
<g id="edge1_Node000001_Node000002" class="edge">
<title>Node1&#45;&gt;Node2</title>
<g id="a_edge1_Node000001_Node000002"><a xlink:title=" ">
<path fill="none" stroke="#63b8ff" d="M753.59,-528.96C742.52,-567.47 717.26,-650.18 687,-716.38 679.31,-733.21 668.18,-751.56 661.05,-762.77"/>
<polygon fill="#63b8ff" stroke="#63b8ff" points="756.9,-530.12 756.27,-519.54 750.17,-528.21 756.9,-530.12"/>
</a>
</g>
</g>
<!-- Node3 -->
<g id="Node000003" class="node">
<title>Node3</title>
<g id="a_Node000003"><a xlink:href="app_8c.html#a6c30f2996216fe44cdda84ff266f8b19" target="_top" xlink:title=" ">
<polygon fill="white" stroke="#666666" points="435.62,-687.75 367.88,-687.75 367.88,-667 435.62,-667 435.62,-687.75"/>
<text text-anchor="middle" x="401.75" y="-674.25" font-family="Helvetica,sans-Serif" font-size="10.00">w2c__f362</text>
</a>
</g>
</g>
<!-- Node1&#45;&gt;Node3 -->
<g id="edge33_Node000001_Node000003" class="edge">
<title>Node1&#45;&gt;Node3</title>
<g id="a_edge33_Node000001_Node000003"><a xlink:title=" ">
<path fill="none" stroke="#63b8ff" d="M752.78,-528.76C742.87,-556.05 721.8,-602.56 687,-626.38 609.22,-679.61 492.38,-682.16 435.8,-679.76"/>
<polygon fill="#63b8ff" stroke="#63b8ff" points="756.03,-530.07 755.96,-519.47 749.41,-527.8 756.03,-530.07"/>
</a>
</g>
</g>
<!-- Node4 -->
<g id="Node000004" class="node">
<title>Node4</title>
<g id="a_Node000004"><a xlink:href="app_8c.html#a86ae468e235684021eadfdacd5cb9dba" target="_top" xlink:title=" ">
<polygon fill="white" stroke="#666666" points="302.62,-782.75 234.88,-782.75 234.88,-762 302.62,-762 302.62,-782.75"/>
<text text-anchor="middle" x="268.75" y="-769.25" font-family="Helvetica,sans-Serif" font-size="10.00">w2c__f452</text>
</a>
</g>
</g>
<!-- Node1&#45;&gt;Node4 -->
<g id="edge38_Node000001_Node000004" class="edge">
<title>Node1&#45;&gt;Node4</title>
<g id="a_edge38_Node000001_Node000004"><a xlink:title=" ">
<path fill="none" stroke="#63b8ff" d="M760.51,-529.24C761.42,-581.61 756.4,-715.54 687,-792.38 582.97,-907.55 361.29,-816.19 291.36,-783.11"/>
<polygon fill="#63b8ff" stroke="#63b8ff" points="764.02,-529.44 760.24,-519.54 757.02,-529.64 764.02,-529.44"/>
</a>
</g>
</g>
<!-- Node7 -->
<g id="Node000007" class="node">
<title>Node7</title>
<g id="a_Node000007"><a xlink:href="app_8c.html#abd18007c72da8f8fc079e9cdba2cef93" target="_top" xlink:title=" ">
<polygon fill="white" stroke="#666666" points="568.62,-517.75 500.88,-517.75 500.88,-497 568.62,-497 568.62,-517.75"/>
<text text-anchor="middle" x="534.75" y="-504.25" font-family="Helvetica,sans-Serif" font-size="10.00">w2c__f252</text>
</a>
</g>
</g>
<!-- Node1&#45;&gt;Node7 -->
<g id="edge6_Node000001_Node000007" class="edge">
<title>Node1&#45;&gt;Node7</title>
<g id="a_edge6_Node000001_Node000007"><a xlink:title=" ">
<path fill="none" stroke="#63b8ff" d="M711.35,-507.38C668.43,-507.38 606.79,-507.38 569.12,-507.38"/>
<polygon fill="#63b8ff" stroke="#63b8ff" points="711.14,-510.88 721.14,-507.38 711.14,-503.88 711.14,-510.88"/>
</a>
</g>
</g>
<!-- Node8 -->
<g id="Node000008" class="node">
<title>Node8</title>
<g id="a_Node000008"><a xlink:href="app_8c.html#a512669319fec7c2cbf61fd668bc650c9" target="_top" xlink:title=" ">
<polygon fill="white" stroke="#666666" points="435.62,-441.75 367.88,-441.75 367.88,-421 435.62,-421 435.62,-441.75"/>
<text text-anchor="middle" x="401.75" y="-428.25" font-family="Helvetica,sans-Serif" font-size="10.00">w2c__f343</text>
</a>
</g>
</g>
<!-- Node1&#45;&gt;Node8 -->
<g id="edge19_Node000001_Node000008" class="edge">
<title>Node1&#45;&gt;Node8</title>
<g id="a_edge19_Node000001_Node000008"><a xlink:title=" ">
<path fill="none" stroke="#63b8ff" d="M719.34,-521.66C664.08,-538.76 562.89,-561.05 486.25,-526.38 447.24,-508.73 419.21,-462.84 408.07,-441.98"/>
<polygon fill="#63b8ff" stroke="#63b8ff" points="720.19,-525.06 728.64,-518.68 718.05,-518.39 720.19,-525.06"/>
</a>
</g>
</g>
<!-- Node11 -->
<g id="Node000011" class="node">
<title>Node11</title>
<g id="a_Node000011"><a xlink:href="app_8c.html#ad554c83ea8f2f1b6e67921e2fd7b7ffc" target="_top" xlink:title=" ">
<polygon fill="white" stroke="#666666" points="687,-479.75 619.25,-479.75 619.25,-459 687,-459 687,-479.75"/>
<text text-anchor="middle" x="653.12" y="-466.25" font-family="Helvetica,sans-Serif" font-size="10.00">w2c__f285</text>
</a>
</g>
</g>
<!-- Node1&#45;&gt;Node11 -->
<g id="edge10_Node000001_Node000011" class="edge">
<title>Node1&#45;&gt;Node11</title>
<g id="a_edge10_Node000001_Node000011"><a xlink:title=" ">
<path fill="none" stroke="#63b8ff" d="M718.91,-492.71C707.34,-488.54 694.96,-484.08 684.15,-480.19"/>
<polygon fill="#63b8ff" stroke="#63b8ff" points="717.66,-495.98 728.25,-496.07 720.03,-489.39 717.66,-495.98"/>
</a>
</g>
</g>
<!-- Node12 -->
<g id="Node000012" class="node">
<title>Node12</title>
<g id="a_Node000012"><a xlink:href="app_8c.html#a172dc6e51e60b69c5871fbabfa215af9" target="_top" xlink:title=" ">
<polygon fill="white" stroke="#666666" points="568.62,-631.75 500.88,-631.75 500.88,-611 568.62,-611 568.62,-631.75"/>
<text text-anchor="middle" x="534.75" y="-618.25" font-family="Helvetica,sans-Serif" font-size="10.00">w2c__f288</text>
</a>
</g>
</g>
<!-- Node1&#45;&gt;Node12 -->
<g id="edge12_Node000001_Node000012" class="edge">
<title>Node1&#45;&gt;Node12</title>
<g id="a_edge12_Node000001_Node000012"><a xlink:title=" ">
<path fill="none" stroke="#63b8ff" d="M749.9,-528.34C738.31,-550.73 716.72,-585.3 687,-602.38 650.63,-623.27 601.32,-625.58 569.03,-624.3"/>
<polygon fill="#63b8ff" stroke="#63b8ff" points="752.96,-530.05 754.24,-519.53 746.68,-526.96 752.96,-530.05"/>
</a>
</g>
</g>
<!-- Node13 -->
<g id="Node000013" class="node">
<title>Node13</title>
<g id="a_Node000013"><a xlink:href="app_8c.html#ab437815594eb4e8c7676d529f946de25" target="_top" xlink:title=" ">
<polygon fill="white" stroke="#666666" points="687,-707.75 619.25,-707.75 619.25,-687 687,-687 687,-707.75"/>
<text text-anchor="middle" x="653.12" y="-694.25" font-family="Helvetica,sans-Serif" font-size="10.00">w2c__f328</text>
</a>
</g>
</g>
<!-- Node1&#45;&gt;Node13 -->
<g id="edge14_Node000001_Node000013" class="edge">
<title>Node1&#45;&gt;Node13</title>
<g id="a_edge14_Node000001_Node000013"><a xlink:title=" ">
<path fill="none" stroke="#63b8ff" d="M754.14,-528.96C744.77,-562.61 723.12,-628.36 687,-673.38 682.93,-678.45 677.54,-682.97 672.3,-686.69"/>
<polygon fill="#63b8ff" stroke="#63b8ff" points="757.45,-530.14 756.65,-519.58 750.68,-528.33 757.45,-530.14"/>
</a>
</g>
</g>
<!-- Node16 -->
<g id="Node000016" class="node">
<title>Node16</title>
<g id="a_Node000016"><a xlink:href="app_8c.html#a5944e8aaeb89215d16f0703618f3d1cb" target="_top" xlink:title=" ">
<polygon fill="white" stroke="#666666" points="687,-344.75 619.25,-344.75 619.25,-324 687,-324 687,-344.75"/>
<text text-anchor="middle" x="653.12" y="-331.25" font-family="Helvetica,sans-Serif" font-size="10.00">w2c__f346</text>
</a>
</g>
</g>
<!-- Node1&#45;&gt;Node16 -->
<g id="edge20_Node000001_Node000016" class="edge">
<title>Node1&#45;&gt;Node16</title>
<g id="a_edge20_Node000001_Node000016"><a xlink:title=" ">
<path fill="none" stroke="#63b8ff" d="M750.16,-486.49C737.42,-459.24 713.3,-410.53 687,-372.38 680.27,-362.61 671.41,-352.49 664.59,-345.16"/>
<polygon fill="#63b8ff" stroke="#63b8ff" points="746.9,-487.77 754.26,-495.39 753.25,-484.84 746.9,-487.77"/>
</a>
</g>
</g>
<!-- Node19 -->
<g id="Node000019" class="node">
<title>Node19</title>
<g id="a_Node000019"><a xlink:href="app_8c.html#a5677ffd129da8cd63b876545b8187d77" target="_top" xlink:title=" ">
<polygon fill="white" stroke="#666666" points="302.62,-249.75 234.88,-249.75 234.88,-229 302.62,-229 302.62,-249.75"/>
<text text-anchor="middle" x="268.75" y="-236.25" font-family="Helvetica,sans-Serif" font-size="10.00">w2c__f367</text>
</a>
</g>
</g>
<!-- Node1&#45;&gt;Node19 -->
<g id="edge34_Node000001_Node000019" class="edge">
<title>Node1&#45;&gt;Node19</title>
<g id="a_edge34_Node000001_Node000019"><a xlink:title=" ">
<path fill="none" stroke="#63b8ff" d="M759.93,-485.04C759.24,-438.25 750.47,-329.86 687,-276.38 629.37,-227.82 391.58,-233.63 303.11,-237.61"/>
<polygon fill="#63b8ff" stroke="#63b8ff" points="756.43,-485 759.94,-494.99 763.43,-484.98 756.43,-485"/>
</a>
</g>
</g>
<!-- Node24 -->
<g id="Node000024" class="node">
<title>Node24</title>
<g id="a_Node000024"><a xlink:href="app_8c.html#aa5aa96620823a66d02f16f4abcd5e0fe" target="_top" xlink:title=" ">
<polygon fill="white" stroke="#666666" points="435.62,-288.75 367.88,-288.75 367.88,-268 435.62,-268 435.62,-288.75"/>
<text text-anchor="middle" x="401.75" y="-275.25" font-family="Helvetica,sans-Serif" font-size="10.00">w2c__f371</text>
</a>
</g>
</g>
<!-- Node1&#45;&gt;Node24 -->
<g id="edge35_Node000001_Node000024" class="edge">
<title>Node1&#45;&gt;Node24</title>
<g id="a_edge35_Node000001_Node000024"><a xlink:title=" ">
<path fill="none" stroke="#63b8ff" d="M758.12,-485.1C754.12,-444.53 739.56,-358.8 687,-315.38 614.49,-255.47 494.11,-263.85 436.07,-272.34"/>
<polygon fill="#63b8ff" stroke="#63b8ff" points="754.64,-485.39 758.96,-495.07 761.61,-484.81 754.64,-485.39"/>
</a>
</g>
</g>
<!-- Node27 -->
<g id="Node000027" class="node">
<title>Node27</title>
<g id="a_Node000027"><a xlink:href="app_8c.html#a05fd87b7f41136119e8d7698caac1f5c" target="_top" xlink:title=" ">
<polygon fill="white" stroke="#666666" points="687,-440.75 619.25,-440.75 619.25,-420 687,-420 687,-440.75"/>
<text text-anchor="middle" x="653.12" y="-427.25" font-family="Helvetica,sans-Serif" font-size="10.00">w2c__f423</text>
</a>
</g>
</g>
<!-- Node1&#45;&gt;Node27 -->
<g id="edge36_Node000001_Node000027" class="edge">
<title>Node1&#45;&gt;Node27</title>
<g id="a_edge36_Node000001_Node000027"><a xlink:title=" ">
<path fill="none" stroke="#63b8ff" d="M738.32,-489.56C724.11,-477.96 704.83,-462.73 687,-450.38 682.5,-447.25 677.51,-444.08 672.8,-441.21"/>
<polygon fill="#63b8ff" stroke="#63b8ff" points="735.75,-491.98 745.69,-495.64 740.2,-486.58 735.75,-491.98"/>
</a>
</g>
</g>
<!-- Node28 -->
<g id="Node000028" class="node">
<title>Node28</title>
<g id="a_Node000028"><a xlink:href="app_8c.html#a1e1380e4c537909f6add6fd427bdd8dc" target="_top" xlink:title=" ">
<polygon fill="white" stroke="#666666" points="687,-593.75 619.25,-593.75 619.25,-573 687,-573 687,-593.75"/>
<text text-anchor="middle" x="653.12" y="-580.25" font-family="Helvetica,sans-Serif" font-size="10.00">w2c__f492</text>
</a>
</g>
</g>
<!-- Node1&#45;&gt;Node28 -->
<g id="edge39_Node000001_Node000028" class="edge">
<title>Node1&#45;&gt;Node28</title>
<g id="a_edge39_Node000001_Node000028"><a xlink:title=" ">
<path fill="none" stroke="#63b8ff" d="M735.66,-524.64C715.17,-539.4 686.33,-560.17 669.01,-572.65"/>
<polygon fill="#63b8ff" stroke="#63b8ff" points="737.66,-527.51 743.73,-518.83 733.57,-521.83 737.66,-527.51"/>
</a>
</g>
</g>
<!-- Node29 -->
<g id="Node000029" class="node">
<title>Node29</title>
<g id="a_Node000029"><a xlink:href="app_8c.html#ac65170899944ed31091738f6570367ae" target="_top" xlink:title=" ">
<polygon fill="white" stroke="#666666" points="687,-174.75 619.25,-174.75 619.25,-154 687,-154 687,-174.75"/>
<text text-anchor="middle" x="653.12" y="-161.25" font-family="Helvetica,sans-Serif" font-size="10.00">w2c__f539</text>
</a>
</g>
</g>
<!-- Node1&#45;&gt;Node29 -->
<g id="edge41_Node000001_Node000029" class="edge">
<title>Node1&#45;&gt;Node29</title>
<g id="a_edge41_Node000001_Node000029"><a xlink:title=" ">
<path fill="none" stroke="#63b8ff" d="M755.79,-485.5C746.98,-437.49 723.23,-319.73 687,-226.38 679.68,-207.52 668.03,-187.05 660.74,-174.98"/>
<polygon fill="#63b8ff" stroke="#63b8ff" points="752.31,-485.92 757.52,-495.14 759.2,-484.68 752.31,-485.92"/>
</a>
</g>
</g>
<!-- Node39 -->
<g id="Node000039" class="node">
<title>Node39</title>
<g id="a_Node000039"><a xlink:href="app_8c.html#ac550aaba82d57d6f9e0af73ab1dd2c1e" target="_top" xlink:title=" ">
<polygon fill="white" stroke="#666666" points="687,-401.75 619.25,-401.75 619.25,-381 687,-381 687,-401.75"/>
<text text-anchor="middle" x="653.12" y="-388.25" font-family="Helvetica,sans-Serif" font-size="10.00">w2c__f575</text>
</a>
</g>
</g>
<!-- Node1&#45;&gt;Node39 -->
<g id="edge53_Node000001_Node000039" class="edge">
<title>Node1&#45;&gt;Node39</title>
<g id="a_edge53_Node000001_Node000039"><a xlink:title=" ">
<path fill="none" stroke="#63b8ff" d="M747.34,-486.83C734.24,-466.07 711.96,-433.93 687,-411.38 683.23,-407.97 678.81,-404.83 674.44,-402.08"/>
<polygon fill="#63b8ff" stroke="#63b8ff" points="744.31,-488.57 752.53,-495.24 750.27,-484.89 744.31,-488.57"/>
</a>
</g>
</g>
<!-- Node2&#45;&gt;Node3 -->
<g id="edge2_Node000002_Node000003" class="edge">
<title>Node2&#45;&gt;Node3</title>
<g id="a_edge2_Node000002_Node000003"><a xlink:title=" ">
<path fill="none" stroke="#63b8ff" d="M607.53,-776.34C572.73,-776.81 524.11,-773.28 486.25,-754.38 465.44,-743.98 467.27,-732.23 450.25,-716.38 439.48,-706.34 426.51,-695.79 416.85,-688.2"/>
<polygon fill="#63b8ff" stroke="#63b8ff" points="607.35,-779.85 617.26,-776.09 607.17,-772.85 607.35,-779.85"/>
</a>
</g>
</g>
<!-- Node6 -->
<g id="Node000006" class="node">
<title>Node6</title>
<g id="a_Node000006"><a xlink:href="app_8c.html#a9832170d75416f4f84ba0d11565ef970" target="_top" xlink:title=" ">
<polygon fill="white" stroke="#666666" points="583.25,-821.75 486.25,-821.75 486.25,-801 583.25,-801 583.25,-821.75"/>
<text text-anchor="middle" x="534.75" y="-808.25" font-family="Helvetica,sans-Serif" font-size="10.00">wrap_w2c__f205</text>
</a>
</g>
</g>
<!-- Node2&#45;&gt;Node6 -->
<g id="edge5_Node000002_Node000006" class="edge">
<title>Node2&#45;&gt;Node6</title>
<g id="a_edge5_Node000002_Node000006"><a xlink:title=" ">
<path fill="none" stroke="#63b8ff" d="M608.4,-787.65C595.3,-791.93 581.16,-796.55 568.87,-800.56"/>
<polygon fill="#63b8ff" stroke="#63b8ff" points="609.23,-791.06 617.65,-784.63 607.06,-784.41 609.23,-791.06"/>
</a>
</g>
</g>
<!-- Node3&#45;&gt;Node4 -->
<g id="edge3_Node000003_Node000004" class="edge">
<title>Node3&#45;&gt;Node4</title>
<g id="a_edge3_Node000003_Node000004"><a xlink:title=" ">
<path fill="none" stroke="#63b8ff" d="M376.87,-694.7C349.99,-714.18 307.17,-745.24 284.67,-761.56"/>
<polygon fill="#63b8ff" stroke="#63b8ff" points="378.71,-697.68 384.75,-688.98 374.6,-692.01 378.71,-697.68"/>
</a>
</g>
</g>
<!-- Node5 -->
<g id="Node000005" class="node">
<title>Node5</title>
<g id="a_Node000005"><a xlink:href="app_8c.html#a57ca4f801147f9325a0ea7cc2d7192c5" target="_top" xlink:title=" ">
<polygon fill="white" stroke="#666666" points="184.25,-782.75 87.25,-782.75 87.25,-762 184.25,-762 184.25,-782.75"/>
<text text-anchor="middle" x="135.75" y="-769.25" font-family="Helvetica,sans-Serif" font-size="10.00">wrap_w2c__f452</text>
</a>
</g>
</g>
<!-- Node4&#45;&gt;Node5 -->
<g id="edge4_Node000004_Node000005" class="edge">
<title>Node4&#45;&gt;Node5</title>
<g id="a_edge4_Node000004_Node000005"><a xlink:title=" ">
<path fill="none" stroke="#63b8ff" d="M223.2,-772.38C210.78,-772.38 197.25,-772.38 184.65,-772.38"/>
<polygon fill="#63b8ff" stroke="#63b8ff" points="223.18,-775.88 233.18,-772.38 223.18,-768.88 223.18,-775.88"/>
</a>
</g>
</g>
<!-- Node7&#45;&gt;Node8 -->
<g id="edge7_Node000007_Node000008" class="edge">
<title>Node7&#45;&gt;Node8</title>
<g id="a_edge7_Node000007_Node000008"><a xlink:title=" ">
<path fill="none" stroke="#63b8ff" d="M501.19,-491.41C496.15,-488.8 491.03,-486.06 486.25,-483.38 462.44,-469.98 435.77,-453.01 419.12,-442.18"/>
<polygon fill="#63b8ff" stroke="#63b8ff" points="499.45,-494.45 509.95,-495.86 502.62,-488.21 499.45,-494.45"/>
</a>
</g>
</g>
<!-- Node9 -->
<g id="Node000009" class="node">
<title>Node9</title>
<g id="a_Node000009"><a xlink:href="app_8c.html#a7dc7d70793bae217b64eab580fce99cb" target="_top" xlink:title=" ">
<polygon fill="white" stroke="#666666" points="302.62,-441.75 234.88,-441.75 234.88,-421 302.62,-421 302.62,-441.75"/>
<text text-anchor="middle" x="268.75" y="-428.25" font-family="Helvetica,sans-Serif" font-size="10.00">w2c__f215</text>
</a>
</g>
</g>
<!-- Node8&#45;&gt;Node9 -->
<g id="edge8_Node000008_Node000009" class="edge">
<title>Node8&#45;&gt;Node9</title>
<g id="a_edge8_Node000008_Node000009"><a xlink:title=" ">
<path fill="none" stroke="#63b8ff" d="M356.28,-431.38C338.77,-431.38 319.01,-431.38 302.8,-431.38"/>
<polygon fill="#63b8ff" stroke="#63b8ff" points="356.18,-434.88 366.18,-431.38 356.18,-427.88 356.18,-434.88"/>
</a>
</g>
</g>
<!-- Node10 -->
<g id="Node000010" class="node">
<title>Node10</title>
<g id="a_Node000010"><a xlink:href="app_8c.html#a7f65ba02075f2865f478747946b07c94" target="_top" xlink:title=" ">
<polygon fill="white" stroke="#666666" points="184.25,-441.75 87.25,-441.75 87.25,-421 184.25,-421 184.25,-441.75"/>
<text text-anchor="middle" x="135.75" y="-428.25" font-family="Helvetica,sans-Serif" font-size="10.00">wrap_w2c__f215</text>
</a>
</g>
</g>
<!-- Node9&#45;&gt;Node10 -->
<g id="edge9_Node000009_Node000010" class="edge">
<title>Node9&#45;&gt;Node10</title>
<g id="a_edge9_Node000009_Node000010"><a xlink:title=" ">
<path fill="none" stroke="#63b8ff" d="M223.2,-431.38C210.78,-431.38 197.25,-431.38 184.65,-431.38"/>
<polygon fill="#63b8ff" stroke="#63b8ff" points="223.18,-434.88 233.18,-431.38 223.18,-427.88 223.18,-434.88"/>
</a>
</g>
</g>
<!-- Node11&#45;&gt;Node8 -->
<g id="edge11_Node000011_Node000008" class="edge">
<title>Node11&#45;&gt;Node8</title>
<g id="a_edge11_Node000011_Node000008"><a xlink:title=" ">
<path fill="none" stroke="#63b8ff" d="M607.54,-462.71C574.14,-457.71 527.32,-450.67 486.25,-444.38 469.72,-441.84 451.35,-438.99 436.06,-436.6"/>
<polygon fill="#63b8ff" stroke="#63b8ff" points="606.85,-466.15 617.26,-464.17 607.89,-459.23 606.85,-466.15"/>
</a>
</g>
</g>
<!-- Node12&#45;&gt;Node3 -->
<g id="edge13_Node000012_Node000003" class="edge">
<title>Node12&#45;&gt;Node3</title>
<g id="a_edge13_Node000012_Node000003"><a xlink:title=" ">
<path fill="none" stroke="#63b8ff" d="M498.11,-636.61C475.9,-646.11 447.84,-658.1 427.93,-666.61"/>
<polygon fill="#63b8ff" stroke="#63b8ff" points="499.28,-639.92 507.1,-632.77 496.53,-633.48 499.28,-639.92"/>
</a>
</g>
</g>
<!-- Node13&#45;&gt;Node3 -->
<g id="edge15_Node000013_Node000003" class="edge">
<title>Node13&#45;&gt;Node3</title>
<g id="a_edge15_Node000013_Node000003"><a xlink:title=" ">
<path fill="none" stroke="#63b8ff" d="M607.49,-693.8C558.22,-689.84 480.06,-683.58 435.93,-680.04"/>
<polygon fill="#63b8ff" stroke="#63b8ff" points="607,-697.27 617.24,-694.58 607.56,-690.29 607,-697.27"/>
</a>
</g>
</g>
<!-- Node14 -->
<g id="Node000014" class="node">
<title>Node14</title>
<g id="a_Node000014"><a xlink:href="app_8c.html#ab126aac8a4817b5c574e8992e8137aac" target="_top" xlink:title=" ">
<polygon fill="white" stroke="#666666" points="568.62,-745.75 500.88,-745.75 500.88,-725 568.62,-725 568.62,-745.75"/>
<text text-anchor="middle" x="534.75" y="-732.25" font-family="Helvetica,sans-Serif" font-size="10.00">w2c__f365</text>
</a>
</g>
</g>
<!-- Node13&#45;&gt;Node14 -->
<g id="edge16_Node000013_Node000014" class="edge">
<title>Node13&#45;&gt;Node14</title>
<g id="a_edge16_Node000013_Node000014"><a xlink:title=" ">
<path fill="none" stroke="#63b8ff" d="M608.4,-711.65C595.3,-715.93 581.16,-720.55 568.87,-724.56"/>
<polygon fill="#63b8ff" stroke="#63b8ff" points="609.23,-715.06 617.65,-708.63 607.06,-708.41 609.23,-715.06"/>
</a>
</g>
</g>
<!-- Node14&#45;&gt;Node3 -->
<g id="edge17_Node000014_Node000003" class="edge">
<title>Node14&#45;&gt;Node3</title>
<g id="a_edge17_Node000014_Node000003"><a xlink:title=" ">
<path fill="none" stroke="#63b8ff" d="M499.16,-720.06C476.42,-709.99 447.23,-697.07 426.95,-688.09"/>
<polygon fill="#63b8ff" stroke="#63b8ff" points="497.47,-723.14 508.03,-723.99 500.31,-716.74 497.47,-723.14"/>
</a>
</g>
</g>
<!-- Node15 -->
<g id="Node000015" class="node">
<title>Node15</title>
<g id="a_Node000015"><a xlink:href="app_8c.html#accc2bca59262d1758a00d538b9f76807" target="_top" xlink:title=" ">
<polygon fill="white" stroke="#666666" points="450.25,-745.75 353.25,-745.75 353.25,-725 450.25,-725 450.25,-745.75"/>
<text text-anchor="middle" x="401.75" y="-732.25" font-family="Helvetica,sans-Serif" font-size="10.00">wrap_w2c__f365</text>
</a>
</g>
</g>
<!-- Node14&#45;&gt;Node15 -->
<g id="edge18_Node000014_Node000015" class="edge">
<title>Node14&#45;&gt;Node15</title>
<g id="a_edge18_Node000014_Node000015"><a xlink:title=" ">
<path fill="none" stroke="#63b8ff" d="M489.2,-735.38C476.78,-735.38 463.25,-735.38 450.65,-735.38"/>
<polygon fill="#63b8ff" stroke="#63b8ff" points="489.18,-738.88 499.18,-735.38 489.18,-731.88 489.18,-738.88"/>
</a>
</g>
</g>
<!-- Node17 -->
<g id="Node000017" class="node">
<title>Node17</title>
<g id="a_Node000017"><a xlink:href="app_8c.html#a4ad0e4fbbb0cf438eebff97436bc659b" target="_top" xlink:title=" ">
<polygon fill="white" stroke="#666666" points="568.62,-326.75 500.88,-326.75 500.88,-306 568.62,-306 568.62,-326.75"/>
<text text-anchor="middle" x="534.75" y="-313.25" font-family="Helvetica,sans-Serif" font-size="10.00">w2c__f458</text>
</a>
</g>
</g>
<!-- Node16&#45;&gt;Node17 -->
<g id="edge21_Node000016_Node000017" class="edge">
<title>Node16&#45;&gt;Node17</title>
<g id="a_edge21_Node000016_Node000017"><a xlink:title=" ">
<path fill="none" stroke="#63b8ff" d="M607.41,-327.46C594.68,-325.49 581.03,-323.38 569.1,-321.53"/>
<polygon fill="#63b8ff" stroke="#63b8ff" points="606.86,-330.92 617.28,-328.99 607.93,-324 606.86,-330.92"/>
</a>
</g>
</g>
<!-- Node17&#45;&gt;Node3 -->
<g id="edge23_Node000017_Node000003" class="edge">
<title>Node17&#45;&gt;Node3</title>
<g id="a_edge23_Node000017_Node000003"><a xlink:title=" ">
<path fill="none" stroke="#63b8ff" d="M491.01,-331.73C489.29,-333.14 487.69,-334.69 486.25,-336.38 463.75,-362.75 415.3,-611.55 404.79,-666.62"/>
<polygon fill="#63b8ff" stroke="#63b8ff" points="492.65,-334.83 499.16,-326.47 488.86,-328.95 492.65,-334.83"/>
</a>
</g>
</g>
<!-- Node17&#45;&gt;Node8 -->
<g id="edge22_Node000017_Node000008" class="edge">
<title>Node17&#45;&gt;Node8</title>
<g id="a_edge22_Node000017_Node000008"><a xlink:title=" ">
<path fill="none" stroke="#63b8ff" d="M492.33,-332.43C490.22,-333.67 488.18,-334.99 486.25,-336.38 481.77,-339.6 432.85,-396.33 412.04,-420.55"/>
<polygon fill="#63b8ff" stroke="#63b8ff" points="493.91,-335.55 501.17,-327.84 490.68,-329.34 493.91,-335.55"/>
</a>
</g>
</g>
<!-- Node18 -->
<g id="Node000018" class="node">
<title>Node18</title>
<g id="a_Node000018"><a xlink:href="app_8c.html#a44d2fb91341c2bb5600daec813144423" target="_top" xlink:title=" ">
<polygon fill="white" stroke="#666666" points="435.62,-327.75 367.88,-327.75 367.88,-307 435.62,-307 435.62,-327.75"/>
<text text-anchor="middle" x="401.75" y="-314.25" font-family="Helvetica,sans-Serif" font-size="10.00">w2c__f370</text>
</a>
</g>
</g>
<!-- Node17&#45;&gt;Node18 -->
<g id="edge24_Node000017_Node000018" class="edge">
<title>Node17&#45;&gt;Node18</title>
<g id="a_edge24_Node000017_Node000018"><a xlink:title=" ">
<path fill="none" stroke="#63b8ff" d="M489.28,-316.71C471.77,-316.85 452.01,-317 435.8,-317.12"/>
<polygon fill="#63b8ff" stroke="#63b8ff" points="489.21,-320.22 499.18,-316.64 489.15,-313.22 489.21,-320.22"/>
</a>
</g>
</g>
<!-- Node17&#45;&gt;Node24 -->
<g id="edge30_Node000017_Node000024" class="edge">
<title>Node17&#45;&gt;Node24</title>
<g id="a_edge30_Node000017_Node000024"><a xlink:title=" ">
<path fill="none" stroke="#63b8ff" d="M489.79,-303.62C472.15,-298.51 452.16,-292.71 435.8,-287.96"/>
<polygon fill="#63b8ff" stroke="#63b8ff" points="488.66,-306.94 499.24,-306.36 490.61,-300.22 488.66,-306.94"/>
</a>
</g>
</g>
<!-- Node26 -->
<g id="Node000026" class="node">
<title>Node26</title>
<g id="a_Node000026"><a xlink:href="app_8c.html#ad7cbeb92851aeeb66201b4342b03bd9e" target="_top" xlink:title=" ">
<polygon fill="white" stroke="#666666" points="450.25,-366.75 353.25,-366.75 353.25,-346 450.25,-346 450.25,-366.75"/>
<text text-anchor="middle" x="401.75" y="-353.25" font-family="Helvetica,sans-Serif" font-size="10.00">wrap_w2c__f458</text>
</a>
</g>
</g>
<!-- Node17&#45;&gt;Node26 -->
<g id="edge32_Node000017_Node000026" class="edge">
<title>Node17&#45;&gt;Node26</title>
<g id="a_edge32_Node000017_Node000026"><a xlink:title=" ">
<path fill="none" stroke="#63b8ff" d="M489.97,-329.74C473.11,-334.89 454.07,-340.71 438.09,-345.58"/>
<polygon fill="#63b8ff" stroke="#63b8ff" points="490.7,-333.18 499.25,-326.91 488.66,-326.48 490.7,-333.18"/>
</a>
</g>
</g>
<!-- Node18&#45;&gt;Node19 -->
<g id="edge25_Node000018_Node000019" class="edge">
<title>Node18&#45;&gt;Node19</title>
<g id="a_edge25_Node000018_Node000019"><a xlink:title=" ">
<path fill="none" stroke="#63b8ff" d="M359.74,-301.44C357.49,-300.16 355.31,-298.8 353.25,-297.38 334.12,-284.13 336.38,-272.62 317.25,-259.38 312.17,-255.86 306.38,-252.79 300.63,-250.17"/>
<polygon fill="#63b8ff" stroke="#63b8ff" points="358.02,-304.49 368.52,-305.89 361.18,-298.25 358.02,-304.49"/>
</a>
</g>
</g>
<!-- Node23 -->
<g id="Node000023" class="node">
<title>Node23</title>
<g id="a_Node000023"><a xlink:href="app_8c.html#ab0d7478086fc1c5625429eb5f347da11" target="_top" xlink:title=" ">
<polygon fill="white" stroke="#666666" points="317.25,-327.75 220.25,-327.75 220.25,-307 317.25,-307 317.25,-327.75"/>
<text text-anchor="middle" x="268.75" y="-314.25" font-family="Helvetica,sans-Serif" font-size="10.00">wrap_w2c__f370</text>
</a>
</g>
</g>
<!-- Node18&#45;&gt;Node23 -->
<g id="edge29_Node000018_Node000023" class="edge">
<title>Node18&#45;&gt;Node23</title>
<g id="a_edge29_Node000018_Node000023"><a xlink:title=" ">
<path fill="none" stroke="#63b8ff" d="M356.2,-317.38C343.78,-317.38 330.25,-317.38 317.65,-317.38"/>
<polygon fill="#63b8ff" stroke="#63b8ff" points="356.18,-320.88 366.18,-317.38 356.18,-313.88 356.18,-320.88"/>
</a>
</g>
</g>
<!-- Node20 -->
<g id="Node000020" class="node">
<title>Node20</title>
<g id="a_Node000020"><a xlink:href="app_8c.html#ac863989691d4c389f80374209c220171" target="_top" xlink:title=" ">
<polygon fill="white" stroke="#666666" points="167,-268.75 104.5,-268.75 104.5,-248 167,-248 167,-268.75"/>
<text text-anchor="middle" x="135.75" y="-255.25" font-family="Helvetica,sans-Serif" font-size="10.00">w2c__c_0</text>
</a>
</g>
</g>
<!-- Node19&#45;&gt;Node20 -->
<g id="edge26_Node000019_Node000020" class="edge">
<title>Node19&#45;&gt;Node20</title>
<g id="a_edge26_Node000019_Node000020"><a xlink:title=" ">
<path fill="none" stroke="#63b8ff" d="M223.53,-245.79C204.97,-248.48 183.86,-251.54 167.1,-253.97"/>
<polygon fill="#63b8ff" stroke="#63b8ff" points="223.8,-249.29 233.2,-244.39 222.8,-242.36 223.8,-249.29"/>
</a>
</g>
</g>
<!-- Node22 -->
<g id="Node000022" class="node">
<title>Node22</title>
<g id="a_Node000022"><a xlink:href="app_8c.html#a8f64ccad6c506a1ca514ba4f43e5211c" target="_top" xlink:title=" ">
<polygon fill="white" stroke="#666666" points="184.25,-229.75 87.25,-229.75 87.25,-209 184.25,-209 184.25,-229.75"/>
<text text-anchor="middle" x="135.75" y="-216.25" font-family="Helvetica,sans-Serif" font-size="10.00">wrap_w2c__f367</text>
</a>
</g>
</g>
<!-- Node19&#45;&gt;Node22 -->
<g id="edge28_Node000019_Node000022" class="edge">
<title>Node19&#45;&gt;Node22</title>
<g id="a_edge28_Node000019_Node000022"><a xlink:title=" ">
<path fill="none" stroke="#63b8ff" d="M223.58,-232.63C211.06,-230.72 197.38,-228.63 184.65,-226.69"/>
<polygon fill="#63b8ff" stroke="#63b8ff" points="222.78,-236.05 233.2,-234.1 223.84,-229.13 222.78,-236.05"/>
</a>
</g>
</g>
<!-- Node21 -->
<g id="Node000021" class="node">
<title>Node21</title>
<g id="a_Node000021"><a xlink:href="app_8c.html#ab1e039392ea68017ab8a6063263b147d" target="_top" xlink:title=" ">
<polygon fill="white" stroke="#666666" points="51.25,-268.75 0,-268.75 0,-248 51.25,-248 51.25,-268.75"/>
<text text-anchor="middle" x="25.62" y="-255.25" font-family="Helvetica,sans-Serif" font-size="10.00">w2c__c</text>
</a>
</g>
</g>
<!-- Node20&#45;&gt;Node21 -->
<g id="edge27_Node000020_Node000021" class="edge">
<title>Node20&#45;&gt;Node21</title>
<g id="a_edge27_Node000020_Node000021"><a xlink:title=" ">
<path fill="none" stroke="#63b8ff" d="M92.72,-258.38C78.81,-258.38 63.78,-258.38 51.57,-258.38"/>
<polygon fill="#63b8ff" stroke="#63b8ff" points="92.54,-261.88 102.54,-258.38 92.54,-254.88 92.54,-261.88"/>
</a>
</g>
</g>
<!-- Node25 -->
<g id="Node000025" class="node">
<title>Node25</title>
<g id="a_Node000025"><a xlink:href="app_8c.html#a70f34b1bc2ae815ea8aa822e2de375d8" target="_top" xlink:title=" ">
<polygon fill="white" stroke="#666666" points="317.25,-288.75 220.25,-288.75 220.25,-268 317.25,-268 317.25,-288.75"/>
<text text-anchor="middle" x="268.75" y="-275.25" font-family="Helvetica,sans-Serif" font-size="10.00">wrap_w2c__f371</text>
</a>
</g>
</g>
<!-- Node24&#45;&gt;Node25 -->
<g id="edge31_Node000024_Node000025" class="edge">
<title>Node24&#45;&gt;Node25</title>
<g id="a_edge31_Node000024_Node000025"><a xlink:title=" ">
<path fill="none" stroke="#63b8ff" d="M356.2,-278.38C343.78,-278.38 330.25,-278.38 317.65,-278.38"/>
<polygon fill="#63b8ff" stroke="#63b8ff" points="356.18,-281.88 366.18,-278.38 356.18,-274.88 356.18,-281.88"/>
</a>
</g>
</g>
<!-- Node27&#45;&gt;Node8 -->
<g id="edge37_Node000027_Node000008" class="edge">
<title>Node27&#45;&gt;Node8</title>
<g id="a_edge37_Node000027_Node000008"><a xlink:title=" ">
<path fill="none" stroke="#63b8ff" d="M607.49,-430.55C558.22,-430.75 480.06,-431.06 435.93,-431.24"/>
<polygon fill="#63b8ff" stroke="#63b8ff" points="607.25,-434.06 617.24,-430.51 607.22,-427.06 607.25,-434.06"/>
</a>
</g>
</g>
<!-- Node28&#45;&gt;Node3 -->
<g id="edge40_Node000028_Node000003" class="edge">
<title>Node28&#45;&gt;Node3</title>
<g id="a_edge40_Node000028_Node000003"><a xlink:title=" ">
<path fill="none" stroke="#63b8ff" d="M607.62,-581.26C573.06,-581.29 524.72,-585.06 486.25,-602.38 453.38,-617.17 424.41,-649.75 410.87,-666.68"/>
<polygon fill="#63b8ff" stroke="#63b8ff" points="607.23,-584.76 617.26,-581.37 607.3,-577.76 607.23,-584.76"/>
</a>
</g>
</g>
<!-- Node29&#45;&gt;Node19 -->
<g id="edge44_Node000029_Node000019" class="edge">
<title>Node29&#45;&gt;Node19</title>
<g id="a_edge44_Node000029_Node000019"><a xlink:title=" ">
<path fill="none" stroke="#63b8ff" d="M608.07,-177.18C599.86,-179.38 591.32,-181.55 583.25,-183.38 530,-195.45 372.32,-222.22 303.04,-233.83"/>
<polygon fill="#63b8ff" stroke="#63b8ff" points="608.82,-180.6 617.54,-174.58 606.97,-173.85 608.82,-180.6"/>
</a>
</g>
</g>
<!-- Node30 -->
<g id="Node000030" class="node">
<title>Node30</title>
<g id="a_Node000030"><a xlink:href="app_8c.html#af245d5659b958eabe30540d214352ad8" target="_top" xlink:title=" ">
<polygon fill="white" stroke="#666666" points="435.62,-137.75 367.88,-137.75 367.88,-117 435.62,-117 435.62,-137.75"/>
<text text-anchor="middle" x="401.75" y="-124.25" font-family="Helvetica,sans-Serif" font-size="10.00">w2c__f197</text>
</a>
</g>
</g>
<!-- Node29&#45;&gt;Node30 -->
<g id="edge42_Node000029_Node000030" class="edge">
<title>Node29&#45;&gt;Node30</title>
<g id="a_edge42_Node000029_Node000030"><a xlink:title=" ">
<path fill="none" stroke="#63b8ff" d="M607.92,-150.99C599.77,-148.86 591.3,-146.88 583.25,-145.38 532.32,-135.88 472.32,-131.16 435.93,-128.99"/>
<polygon fill="#63b8ff" stroke="#63b8ff" points="606.73,-154.29 617.3,-153.55 608.57,-147.54 606.73,-154.29"/>
</a>
</g>
</g>
<!-- Node32 -->
<g id="Node000032" class="node">
<title>Node32</title>
<g id="a_Node000032"><a xlink:href="app_8c.html#affed7b4e730191b8eb2ae859a9d3e4b2" target="_top" xlink:title=" ">
<polygon fill="white" stroke="#666666" points="568.62,-98.75 500.88,-98.75 500.88,-78 568.62,-78 568.62,-98.75"/>
<text text-anchor="middle" x="534.75" y="-85.25" font-family="Helvetica,sans-Serif" font-size="10.00">w2c__f426</text>
</a>
</g>
</g>
<!-- Node29&#45;&gt;Node32 -->
<g id="edge45_Node000029_Node000032" class="edge">
<title>Node29&#45;&gt;Node32</title>
<g id="a_edge45_Node000029_Node000032"><a xlink:title=" ">
<path fill="none" stroke="#63b8ff" d="M630.62,-146.56C617.38,-136 599.83,-122.7 583.25,-112.38 575.57,-107.59 566.8,-102.95 558.91,-99.04"/>
<polygon fill="#63b8ff" stroke="#63b8ff" points="628.27,-149.16 638.24,-152.73 632.67,-143.72 628.27,-149.16"/>
</a>
</g>
</g>
<!-- Node38 -->
<g id="Node000038" class="node">
<title>Node38</title>
<g id="a_Node000038"><a xlink:href="app_8c.html#a401d6ee42e4ce81d31802bad3bc83d27" target="_top" xlink:title=" ">
<polygon fill="white" stroke="#666666" points="583.25,-174.75 486.25,-174.75 486.25,-154 583.25,-154 583.25,-174.75"/>
<text text-anchor="middle" x="534.75" y="-161.25" font-family="Helvetica,sans-Serif" font-size="10.00">wrap_w2c__f539</text>
</a>
</g>
</g>
<!-- Node29&#45;&gt;Node38 -->
<g id="edge52_Node000029_Node000038" class="edge">
<title>Node29&#45;&gt;Node38</title>
<g id="a_edge52_Node000029_Node000038"><a xlink:title=" ">
<path fill="none" stroke="#63b8ff" d="M607.53,-164.38C599.64,-164.38 591.39,-164.38 583.41,-164.38"/>
<polygon fill="#63b8ff" stroke="#63b8ff" points="607.26,-167.88 617.26,-164.38 607.26,-160.88 607.26,-167.88"/>
</a>
</g>
</g>
<!-- Node31 -->
<g id="Node000031" class="node">
<title>Node31</title>
<g id="a_Node000031"><a xlink:href="app_8c.html#ac9dfe974277b0ee3fa24e73b7712fe31" target="_top" xlink:title=" ">
<polygon fill="white" stroke="#666666" points="317.25,-137.75 220.25,-137.75 220.25,-117 317.25,-117 317.25,-137.75"/>
<text text-anchor="middle" x="268.75" y="-124.25" font-family="Helvetica,sans-Serif" font-size="10.00">wrap_w2c__f197</text>
</a>
</g>
</g>
<!-- Node30&#45;&gt;Node31 -->
<g id="edge43_Node000030_Node000031" class="edge">
<title>Node30&#45;&gt;Node31</title>
<g id="a_edge43_Node000030_Node000031"><a xlink:title=" ">
<path fill="none" stroke="#63b8ff" d="M356.2,-127.38C343.78,-127.38 330.25,-127.38 317.65,-127.38"/>
<polygon fill="#63b8ff" stroke="#63b8ff" points="356.18,-130.88 366.18,-127.38 356.18,-123.88 356.18,-130.88"/>
</a>
</g>
</g>
<!-- Node32&#45;&gt;Node30 -->
<g id="edge46_Node000032_Node000030" class="edge">
<title>Node32&#45;&gt;Node30</title>
<g id="a_edge46_Node000032_Node000030"><a xlink:title=" ">
<path fill="none" stroke="#63b8ff" d="M489.79,-101.46C472.15,-106.72 452.16,-112.66 435.8,-117.54"/>
<polygon fill="#63b8ff" stroke="#63b8ff" points="490.66,-104.86 499.24,-98.65 488.66,-98.15 490.66,-104.86"/>
</a>
</g>
</g>
<!-- Node33 -->
<g id="Node000033" class="node">
<title>Node33</title>
<g id="a_Node000033"><a xlink:href="app_8c.html#aabc3b06c7f7daa21796552c728f0379b" target="_top" xlink:title=" ">
<polygon fill="white" stroke="#666666" points="435.62,-20.75 367.88,-20.75 367.88,0 435.62,0 435.62,-20.75"/>
<text text-anchor="middle" x="401.75" y="-7.25" font-family="Helvetica,sans-Serif" font-size="10.00">w2c__f270</text>
</a>
</g>
</g>
<!-- Node32&#45;&gt;Node33 -->
<g id="edge47_Node000032_Node000033" class="edge">
<title>Node32&#45;&gt;Node33</title>
<g id="a_edge47_Node000032_Node000033"><a xlink:title=" ">
<path fill="none" stroke="#63b8ff" d="M511.34,-70.89C494.99,-58.61 471.97,-42.32 450.25,-30.38 444.21,-27.05 437.51,-23.92 431.09,-21.17"/>
<polygon fill="#63b8ff" stroke="#63b8ff" points="508.86,-73.4 518.94,-76.67 513.1,-67.83 508.86,-73.4"/>
</a>
</g>
</g>
<!-- Node35 -->
<g id="Node000035" class="node">
<title>Node35</title>
<g id="a_Node000035"><a xlink:href="app_8c.html#a3b35d36403dcff081d46c10210051cdc" target="_top" xlink:title=" ">
<polygon fill="white" stroke="#666666" points="435.62,-59.75 367.88,-59.75 367.88,-39 435.62,-39 435.62,-59.75"/>
<text text-anchor="middle" x="401.75" y="-46.25" font-family="Helvetica,sans-Serif" font-size="10.00">w2c__f349</text>
</a>
</g>
</g>
<!-- Node32&#45;&gt;Node35 -->
<g id="edge49_Node000032_Node000035" class="edge">
<title>Node32&#45;&gt;Node35</title>
<g id="a_edge49_Node000032_Node000035"><a xlink:title=" ">
<path fill="none" stroke="#63b8ff" d="M489.79,-75.29C472.15,-70.03 452.16,-64.09 435.8,-59.21"/>
<polygon fill="#63b8ff" stroke="#63b8ff" points="488.66,-78.6 499.24,-78.1 490.66,-71.89 488.66,-78.6"/>
</a>
</g>
</g>
<!-- Node37 -->
<g id="Node000037" class="node">
<title>Node37</title>
<g id="a_Node000037"><a xlink:href="app_8c.html#ae1beb332ba7551f1acff2f46930c4e85" target="_top" xlink:title=" ">
<polygon fill="white" stroke="#666666" points="450.25,-98.75 353.25,-98.75 353.25,-78 450.25,-78 450.25,-98.75"/>
<text text-anchor="middle" x="401.75" y="-85.25" font-family="Helvetica,sans-Serif" font-size="10.00">wrap_w2c__f426</text>
</a>
</g>
</g>
<!-- Node32&#45;&gt;Node37 -->
<g id="edge51_Node000032_Node000037" class="edge">
<title>Node32&#45;&gt;Node37</title>
<g id="a_edge51_Node000032_Node000037"><a xlink:title=" ">
<path fill="none" stroke="#63b8ff" d="M489.2,-88.38C476.78,-88.38 463.25,-88.38 450.65,-88.38"/>
<polygon fill="#63b8ff" stroke="#63b8ff" points="489.18,-91.88 499.18,-88.38 489.18,-84.88 489.18,-91.88"/>
</a>
</g>
</g>
<!-- Node34 -->
<g id="Node000034" class="node">
<title>Node34</title>
<g id="a_Node000034"><a xlink:href="app_8c.html#a54f194530158831aa826ddabfd869e3f" target="_top" xlink:title=" ">
<polygon fill="white" stroke="#666666" points="317.25,-20.75 220.25,-20.75 220.25,0 317.25,0 317.25,-20.75"/>
<text text-anchor="middle" x="268.75" y="-7.25" font-family="Helvetica,sans-Serif" font-size="10.00">wrap_w2c__f270</text>
</a>
</g>
</g>
<!-- Node33&#45;&gt;Node34 -->
<g id="edge48_Node000033_Node000034" class="edge">
<title>Node33&#45;&gt;Node34</title>
<g id="a_edge48_Node000033_Node000034"><a xlink:title=" ">
<path fill="none" stroke="#63b8ff" d="M356.2,-10.38C343.78,-10.38 330.25,-10.38 317.65,-10.38"/>
<polygon fill="#63b8ff" stroke="#63b8ff" points="356.18,-13.88 366.18,-10.38 356.18,-6.88 356.18,-13.88"/>
</a>
</g>
</g>
<!-- Node36 -->
<g id="Node000036" class="node">
<title>Node36</title>
<g id="a_Node000036"><a xlink:href="app_8c.html#a053e462a04712de112461bc2539f46e8" target="_top" xlink:title=" ">
<polygon fill="white" stroke="#666666" points="317.25,-59.75 220.25,-59.75 220.25,-39 317.25,-39 317.25,-59.75"/>
<text text-anchor="middle" x="268.75" y="-46.25" font-family="Helvetica,sans-Serif" font-size="10.00">wrap_w2c__f349</text>
</a>
</g>
</g>
<!-- Node35&#45;&gt;Node36 -->
<g id="edge50_Node000035_Node000036" class="edge">
<title>Node35&#45;&gt;Node36</title>
<g id="a_edge50_Node000035_Node000036"><a xlink:title=" ">
<path fill="none" stroke="#63b8ff" d="M356.2,-49.38C343.78,-49.38 330.25,-49.38 317.65,-49.38"/>
<polygon fill="#63b8ff" stroke="#63b8ff" points="356.18,-52.88 366.18,-49.38 356.18,-45.88 356.18,-52.88"/>
</a>
</g>
</g>
<!-- Node39&#45;&gt;Node8 -->
<g id="edge54_Node000039_Node000008" class="edge">
<title>Node39&#45;&gt;Node8</title>
<g id="a_edge54_Node000039_Node000008"><a xlink:title=" ">
<path fill="none" stroke="#63b8ff" d="M607.49,-398.53C558.22,-406.44 480.06,-418.97 435.93,-426.05"/>
<polygon fill="#63b8ff" stroke="#63b8ff" points="607.94,-402.01 617.26,-396.97 606.83,-395.1 607.94,-402.01"/>
</a>
</g>
</g>
<!-- Node40 -->
<g id="Node000040" class="node">
<title>Node40</title>
<g id="a_Node000040"><a xlink:href="app_8c.html#a764c0bb0028716e0a66688159e30b882" target="_top" xlink:title=" ">
<polygon fill="white" stroke="#666666" points="568.62,-365.75 500.88,-365.75 500.88,-345 568.62,-345 568.62,-365.75"/>
<text text-anchor="middle" x="534.75" y="-352.25" font-family="Helvetica,sans-Serif" font-size="10.00">w2c__f351</text>
</a>
</g>
</g>
<!-- Node39&#45;&gt;Node40 -->
<g id="edge55_Node000039_Node000040" class="edge">
<title>Node39&#45;&gt;Node40</title>
<g id="a_edge55_Node000039_Node000040"><a xlink:title=" ">
<path fill="none" stroke="#63b8ff" d="M607.8,-377.66C594.96,-373.69 581.16,-369.42 569.1,-365.69"/>
<polygon fill="#63b8ff" stroke="#63b8ff" points="606.74,-381 617.33,-380.61 608.81,-374.31 606.74,-381"/>
</a>
</g>
</g>
<!-- Node40&#45;&gt;Node8 -->
<g id="edge56_Node000040_Node000008" class="edge">
<title>Node40&#45;&gt;Node8</title>
<g id="a_edge56_Node000040_Node000008"><a xlink:title=" ">
<path fill="none" stroke="#63b8ff" d="M501.19,-371.34C496.15,-373.95 491.03,-376.69 486.25,-379.38 462.44,-392.77 435.77,-409.74 419.12,-420.57"/>
<polygon fill="#63b8ff" stroke="#63b8ff" points="502.62,-374.54 509.95,-366.89 499.45,-368.3 502.62,-374.54"/>
</a>
</g>
</g>
</g>
</svg>
