<?xml version="1.0" encoding="UTF-8" standalone="no"?>
<!DOCTYPE svg PUBLIC "-//W3C//DTD SVG 1.1//EN"
 "http://www.w3.org/Graphics/SVG/1.1/DTD/svg11.dtd">
<!-- Generated by graphviz version 12.2.1 (0)
 -->
<!-- Title: w2c_0_11 Pages: 1 -->
<svg width="591pt" height="898pt"
 viewBox="0.00 0.00 590.75 898.31" xmlns="http://www.w3.org/2000/svg" xmlns:xlink="http://www.w3.org/1999/xlink">
<g id="graph0" class="graph" transform="scale(1 1) rotate(0) translate(4 894.31)">
<title>w2c_0_11</title>
<!-- Node1 -->
<g id="Node000001" class="node">
<title>Node1</title>
<g id="a_Node000001"><a xlink:title=" ">
<polygon fill="#999999" stroke="#666666" points="582.75,-537.86 518.75,-537.86 518.75,-517.11 582.75,-517.11 582.75,-537.86"/>
<text text-anchor="middle" x="550.75" y="-524.36" font-family="Helvetica,sans-Serif" font-size="10.00">w2c_0_11</text>
</a>
</g>
</g>
<!-- Node2 -->
<g id="Node000002" class="node">
<title>Node2</title>
<g id="a_Node000002"><a xlink:href="app_8c.html#a918c90a4a3c46eadddbec5bb9396768f" target="_top" xlink:title=" ">
<polygon fill="white" stroke="#666666" points="379,-822.86 311.25,-822.86 311.25,-802.11 379,-802.11 379,-822.86"/>
<text text-anchor="middle" x="345.12" y="-809.36" font-family="Helvetica,sans-Serif" font-size="10.00">w2c__f281</text>
</a>
</g>
</g>
<!-- Node1&#45;&gt;Node2 -->
<g id="edge1_Node000001_Node000002" class="edge">
<title>Node1&#45;&gt;Node2</title>
<g id="a_edge1_Node000001_Node000002"><a xlink:title=" ">
<path fill="none" stroke="#63b8ff" d="M539.52,-548.21C515.86,-594.83 453.59,-709.97 379,-788.49 374.33,-793.41 368.54,-798.01 363.12,-801.85"/>
<polygon fill="#63b8ff" stroke="#63b8ff" points="542.54,-550 543.9,-539.49 536.29,-546.86 542.54,-550"/>
</a>
</g>
</g>
<!-- Node9 -->
<g id="Node000009" class="node">
<title>Node9</title>
<g id="a_Node000009"><a xlink:href="app_8c.html#aa850afe7c0d5044718fe9ef94c499a4d" target="_top" xlink:title=" ">
<polygon fill="white" stroke="#666666" points="482.75,-613.86 415,-613.86 415,-593.11 482.75,-593.11 482.75,-613.86"/>
<text text-anchor="middle" x="448.88" y="-600.36" font-family="Helvetica,sans-Serif" font-size="10.00">w2c__f301</text>
</a>
</g>
</g>
<!-- Node1&#45;&gt;Node9 -->
<g id="edge10_Node000001_Node000009" class="edge">
<title>Node1&#45;&gt;Node9</title>
<g id="a_edge10_Node000001_Node000009"><a xlink:title=" ">
<path fill="none" stroke="#63b8ff" d="M526.79,-544.96C507.41,-559.7 480.29,-580.34 463.97,-592.77"/>
<polygon fill="#63b8ff" stroke="#63b8ff" points="528.82,-547.81 534.66,-538.97 524.58,-542.24 528.82,-547.81"/>
</a>
</g>
</g>
<!-- Node14 -->
<g id="Node000014" class="node">
<title>Node14</title>
<g id="a_Node000014"><a xlink:href="app_8c.html#af627807eb409c47162636d35977715f6" target="_top" xlink:title=" ">
<polygon fill="white" stroke="#666666" points="482.75,-461.86 415,-461.86 415,-441.11 482.75,-441.11 482.75,-461.86"/>
<text text-anchor="middle" x="448.88" y="-448.36" font-family="Helvetica,sans-Serif" font-size="10.00">w2c__f469</text>
</a>
</g>
</g>
<!-- Node1&#45;&gt;Node14 -->
<g id="edge23_Node000001_Node000014" class="edge">
<title>Node1&#45;&gt;Node14</title>
<g id="a_edge23_Node000001_Node000014"><a xlink:title=" ">
<path fill="none" stroke="#63b8ff" d="M526.79,-510.02C507.41,-495.27 480.29,-474.63 463.97,-462.21"/>
<polygon fill="#63b8ff" stroke="#63b8ff" points="524.58,-512.73 534.66,-516 528.82,-507.16 524.58,-512.73"/>
</a>
</g>
</g>
<!-- Node19 -->
<g id="Node000019" class="node">
<title>Node19</title>
<g id="a_Node000019"><a xlink:href="app_8c.html#a784c7bcd456646f7617b48d827af12e3" target="_top" xlink:title=" ">
<polygon fill="white" stroke="#666666" points="482.75,-251.86 415,-251.86 415,-231.11 482.75,-231.11 482.75,-251.86"/>
<text text-anchor="middle" x="448.88" y="-238.36" font-family="Helvetica,sans-Serif" font-size="10.00">w2c__f473</text>
</a>
</g>
</g>
<!-- Node1&#45;&gt;Node19 -->
<g id="edge38_Node000001_Node000019" class="edge">
<title>Node1&#45;&gt;Node19</title>
<g id="a_edge38_Node000001_Node000019"><a xlink:title=" ">
<path fill="none" stroke="#63b8ff" d="M542.24,-505.98C522.28,-448.83 468.45,-294.67 453.67,-252.36"/>
<polygon fill="#63b8ff" stroke="#63b8ff" points="538.86,-506.91 545.46,-515.2 545.47,-504.6 538.86,-506.91"/>
</a>
</g>
</g>
<!-- Node3 -->
<g id="Node000003" class="node">
<title>Node3</title>
<g id="a_Node000003"><a xlink:href="app_8c.html#a23410de0f8905b2c8e88eede0c2817bf" target="_top" xlink:title=" ">
<polygon fill="white" stroke="#666666" points="275.25,-650.86 207.5,-650.86 207.5,-630.11 275.25,-630.11 275.25,-650.86"/>
<text text-anchor="middle" x="241.38" y="-637.36" font-family="Helvetica,sans-Serif" font-size="10.00">w2c__f274</text>
</a>
</g>
</g>
<!-- Node2&#45;&gt;Node3 -->
<g id="edge2_Node000002_Node000003" class="edge">
<title>Node2&#45;&gt;Node3</title>
<g id="a_edge2_Node000002_Node000003"><a xlink:title=" ">
<path fill="none" stroke="#63b8ff" d="M338.67,-790.62C329.85,-758.88 309.84,-699.55 275.25,-660.49 272.15,-656.99 268.29,-653.91 264.31,-651.28"/>
<polygon fill="#63b8ff" stroke="#63b8ff" points="335.28,-791.46 341.22,-800.23 342.04,-789.67 335.28,-791.46"/>
</a>
</g>
</g>
<!-- Node5 -->
<g id="Node000005" class="node">
<title>Node5</title>
<g id="a_Node000005"><a xlink:href="app_8c.html#a980a551daeb256397f01e6faa91d49db" target="_top" xlink:title=" ">
<polygon fill="white" stroke="#666666" points="67.75,-841.86 0,-841.86 0,-821.11 67.75,-821.11 67.75,-841.86"/>
<text text-anchor="middle" x="33.88" y="-828.36" font-family="Helvetica,sans-Serif" font-size="10.00">w2c__f403</text>
</a>
</g>
</g>
<!-- Node2&#45;&gt;Node5 -->
<g id="edge8_Node000002_Node000005" class="edge">
<title>Node2&#45;&gt;Node5</title>
<g id="a_edge8_Node000002_Node000005"><a xlink:title=" ">
<path fill="none" stroke="#63b8ff" d="M317.06,-828.92C304.76,-835.45 289.75,-842.19 275.25,-845.49 202.69,-861.97 114.82,-848.77 68.01,-839.19"/>
<polygon fill="#63b8ff" stroke="#63b8ff" points="318.74,-831.99 325.76,-824.06 315.32,-825.88 318.74,-831.99"/>
</a>
</g>
</g>
<!-- Node6 -->
<g id="Node000006" class="node">
<title>Node6</title>
<g id="a_Node000006"><a xlink:href="app_8c.html#a4b4464bc0bc06853b9af4b408d460453" target="_top" xlink:title=" ">
<polygon fill="white" stroke="#666666" points="275.25,-270.86 207.5,-270.86 207.5,-250.11 275.25,-250.11 275.25,-270.86"/>
<text text-anchor="middle" x="241.38" y="-257.36" font-family="Helvetica,sans-Serif" font-size="10.00">w2c__f376</text>
</a>
</g>
</g>
<!-- Node2&#45;&gt;Node6 -->
<g id="edge5_Node000002_Node000006" class="edge">
<title>Node2&#45;&gt;Node6</title>
<g id="a_edge5_Node000002_Node000006"><a xlink:title=" ">
<path fill="none" stroke="#63b8ff" d="M340.05,-790.51C333.55,-755.17 320.64,-683.49 311.25,-622.49 293.04,-504.14 302.97,-471.98 275.25,-355.49 267.78,-324.08 253.94,-288.45 246.83,-271.11"/>
<polygon fill="#63b8ff" stroke="#63b8ff" points="336.6,-791.11 341.86,-800.31 343.48,-789.84 336.6,-791.11"/>
</a>
</g>
</g>
<!-- Node8 -->
<g id="Node000008" class="node">
<title>Node8</title>
<g id="a_Node000008"><a xlink:href="app_8c.html#a05d83e696cfaa26355c9732ee9ea4cd0" target="_top" xlink:title=" ">
<polygon fill="white" stroke="#666666" points="67.75,-536.86 0,-536.86 0,-516.11 67.75,-516.11 67.75,-536.86"/>
<text text-anchor="middle" x="33.88" y="-523.36" font-family="Helvetica,sans-Serif" font-size="10.00">w2c__f454</text>
</a>
</g>
</g>
<!-- Node2&#45;&gt;Node8 -->
<g id="edge9_Node000002_Node000008" class="edge">
<title>Node2&#45;&gt;Node8</title>
<g id="a_edge9_Node000002_Node000008"><a xlink:title=" ">
<path fill="none" stroke="#63b8ff" d="M299.62,-817.53C246.27,-820.97 157.36,-818.03 103.75,-769.49 33.21,-705.62 32.77,-575.43 34.27,-537.24"/>
<polygon fill="#63b8ff" stroke="#63b8ff" points="299.87,-821.02 309.57,-816.77 299.34,-814.04 299.87,-821.02"/>
</a>
</g>
</g>
<!-- Node4 -->
<g id="Node000004" class="node">
<title>Node4</title>
<g id="a_Node000004"><a xlink:href="app_8c.html#a9a6678ec111966f9ad398c4ddc0f4ce7" target="_top" xlink:title=" ">
<polygon fill="white" stroke="#666666" points="171.5,-612.86 103.75,-612.86 103.75,-592.11 171.5,-592.11 171.5,-612.86"/>
<text text-anchor="middle" x="137.62" y="-599.36" font-family="Helvetica,sans-Serif" font-size="10.00">w2c__f472</text>
</a>
</g>
</g>
<!-- Node3&#45;&gt;Node4 -->
<g id="edge3_Node000003_Node000004" class="edge">
<title>Node3&#45;&gt;Node4</title>
<g id="a_edge3_Node000003_Node000004"><a xlink:title=" ">
<path fill="none" stroke="#63b8ff" d="M200.76,-625.69C189.71,-621.56 177.9,-617.16 167.58,-613.3"/>
<polygon fill="#63b8ff" stroke="#63b8ff" points="199.48,-628.95 210.07,-629.17 201.93,-622.39 199.48,-628.95"/>
</a>
</g>
</g>
<!-- Node4&#45;&gt;Node5 -->
<g id="edge4_Node000004_Node000005" class="edge">
<title>Node4&#45;&gt;Node5</title>
<g id="a_edge4_Node000004_Node000005"><a xlink:title=" ">
<path fill="none" stroke="#63b8ff" d="M127.27,-623.54C106.16,-671.06 55.41,-785.27 39.64,-820.77"/>
<polygon fill="#63b8ff" stroke="#63b8ff" points="130.38,-625.17 131.24,-614.61 123.98,-622.33 130.38,-625.17"/>
</a>
</g>
</g>
<!-- Node7 -->
<g id="Node000007" class="node">
<title>Node7</title>
<g id="a_Node000007"><a xlink:href="app_8c.html#adb357000a4d9b03118bb4a6a7435605d" target="_top" xlink:title=" ">
<polygon fill="white" stroke="#666666" points="171.5,-308.86 103.75,-308.86 103.75,-288.11 171.5,-288.11 171.5,-308.86"/>
<text text-anchor="middle" x="137.62" y="-295.36" font-family="Helvetica,sans-Serif" font-size="10.00">w2c__f404</text>
</a>
</g>
</g>
<!-- Node6&#45;&gt;Node7 -->
<g id="edge6_Node000006_Node000007" class="edge">
<title>Node6&#45;&gt;Node7</title>
<g id="a_edge6_Node000006_Node000007"><a xlink:title=" ">
<path fill="none" stroke="#63b8ff" d="M200.76,-275.28C189.71,-279.41 177.9,-283.82 167.58,-287.67"/>
<polygon fill="#63b8ff" stroke="#63b8ff" points="201.93,-278.58 210.07,-271.81 199.48,-272.03 201.93,-278.58"/>
</a>
</g>
</g>
<!-- Node7&#45;&gt;Node8 -->
<g id="edge7_Node000007_Node000008" class="edge">
<title>Node7&#45;&gt;Node8</title>
<g id="a_edge7_Node000007_Node000008"><a xlink:title=" ">
<path fill="none" stroke="#63b8ff" d="M127.27,-319.45C106.16,-366.76 55.41,-480.47 39.64,-515.82"/>
<polygon fill="#63b8ff" stroke="#63b8ff" points="130.36,-321.12 131.24,-310.56 123.97,-318.27 130.36,-321.12"/>
</a>
</g>
</g>
<!-- Node9&#45;&gt;Node4 -->
<g id="edge18_Node000009_Node000004" class="edge">
<title>Node9&#45;&gt;Node4</title>
<g id="a_edge18_Node000009_Node000004"><a xlink:title=" ">
<path fill="none" stroke="#63b8ff" d="M425.31,-620.85C393.77,-643.9 333.8,-683.44 275.25,-698.49 246.09,-705.98 234.29,-712.24 207.5,-698.49 171.91,-680.22 150.58,-634.08 142.43,-613.13"/>
<polygon fill="#63b8ff" stroke="#63b8ff" points="427,-623.95 432.93,-615.17 422.82,-618.34 427,-623.95"/>
</a>
</g>
</g>
<!-- Node9&#45;&gt;Node5 -->
<g id="edge15_Node000009_Node000005" class="edge">
<title>Node9&#45;&gt;Node5</title>
<g id="a_edge15_Node000009_Node000005"><a xlink:title=" ">
<path fill="none" stroke="#63b8ff" d="M447.72,-625.65C446.17,-670.79 436.17,-773.98 379,-831.49 292.17,-918.83 224.01,-890.06 103.75,-863.49 85.34,-859.42 66.01,-849.91 52.53,-842.31"/>
<polygon fill="#63b8ff" stroke="#63b8ff" points="451.21,-625.89 447.93,-615.82 444.21,-625.74 451.21,-625.89"/>
</a>
</g>
</g>
<!-- Node9&#45;&gt;Node7 -->
<g id="edge16_Node000009_Node000007" class="edge">
<title>Node9&#45;&gt;Node7</title>
<g id="a_edge16_Node000009_Node000007"><a xlink:title=" ">
<path fill="none" stroke="#63b8ff" d="M419.62,-586.77C371.54,-557.28 272.7,-492.06 207.5,-417.49 176.7,-382.27 152.69,-331.22 143.13,-309.23"/>
<polygon fill="#63b8ff" stroke="#63b8ff" points="417.69,-589.69 428.05,-591.89 421.32,-583.71 417.69,-589.69"/>
</a>
</g>
</g>
<!-- Node9&#45;&gt;Node8 -->
<g id="edge17_Node000009_Node000008" class="edge">
<title>Node9&#45;&gt;Node8</title>
<g id="a_edge17_Node000009_Node000008"><a xlink:title=" ">
<path fill="none" stroke="#63b8ff" d="M432.95,-623.18C416.81,-644.05 391.67,-675.11 379,-683.49 314.24,-726.28 279.85,-744.61 207.5,-716.49 118.6,-681.94 57.7,-572.38 40.11,-537.36"/>
<polygon fill="#63b8ff" stroke="#63b8ff" points="435.64,-625.44 438.94,-615.37 430.08,-621.18 435.64,-625.44"/>
</a>
</g>
</g>
<!-- Node10 -->
<g id="Node000010" class="node">
<title>Node10</title>
<g id="a_Node000010"><a xlink:href="app_8c.html#a40e1e2f15a47b569fe1234de2e329a46" target="_top" xlink:title=" ">
<polygon fill="white" stroke="#666666" points="379,-613.86 311.25,-613.86 311.25,-593.11 379,-593.11 379,-613.86"/>
<text text-anchor="middle" x="345.12" y="-600.36" font-family="Helvetica,sans-Serif" font-size="10.00">w2c__f297</text>
</a>
</g>
</g>
<!-- Node9&#45;&gt;Node10 -->
<g id="edge11_Node000009_Node000010" class="edge">
<title>Node9&#45;&gt;Node10</title>
<g id="a_edge11_Node000009_Node000010"><a xlink:title=" ">
<path fill="none" stroke="#63b8ff" d="M403.32,-603.49C395.21,-603.49 386.88,-603.49 379.17,-603.49"/>
<polygon fill="#63b8ff" stroke="#63b8ff" points="403.04,-606.99 413.04,-603.49 403.04,-599.99 403.04,-606.99"/>
</a>
</g>
</g>
<!-- Node12 -->
<g id="Node000012" class="node">
<title>Node12</title>
<g id="a_Node000012"><a xlink:href="app_8c.html#ac69b13e2c3468609717df2627a30b836" target="_top" xlink:title=" ">
<polygon fill="white" stroke="#666666" points="379,-422.86 311.25,-422.86 311.25,-402.11 379,-402.11 379,-422.86"/>
<text text-anchor="middle" x="345.12" y="-409.36" font-family="Helvetica,sans-Serif" font-size="10.00">w2c__f497</text>
</a>
</g>
</g>
<!-- Node9&#45;&gt;Node12 -->
<g id="edge19_Node000009_Node000012" class="edge">
<title>Node9&#45;&gt;Node12</title>
<g id="a_edge19_Node000009_Node000012"><a xlink:title=" ">
<path fill="none" stroke="#63b8ff" d="M443.68,-581.38C436.09,-546.35 417.17,-477.48 379,-432.49 375.97,-428.92 372.15,-425.81 368.18,-423.17"/>
<polygon fill="#63b8ff" stroke="#63b8ff" points="440.25,-582.06 445.68,-591.16 447.11,-580.66 440.25,-582.06"/>
</a>
</g>
</g>
<!-- Node10&#45;&gt;Node4 -->
<g id="edge14_Node000010_Node000004" class="edge">
<title>Node10&#45;&gt;Node4</title>
<g id="a_edge14_Node000010_Node000004"><a xlink:title=" ">
<path fill="none" stroke="#63b8ff" d="M299.75,-603.27C261.34,-603.09 206.65,-602.82 171.9,-602.65"/>
<polygon fill="#63b8ff" stroke="#63b8ff" points="299.58,-606.77 309.59,-603.32 299.61,-599.77 299.58,-606.77"/>
</a>
</g>
</g>
<!-- Node11 -->
<g id="Node000011" class="node">
<title>Node11</title>
<g id="a_Node000011"><a xlink:href="app_8c.html#a083dd2487e591fd27285cd1c1789b457" target="_top" xlink:title=" ">
<polygon fill="white" stroke="#666666" points="275.25,-689.86 207.5,-689.86 207.5,-669.11 275.25,-669.11 275.25,-689.86"/>
<text text-anchor="middle" x="241.38" y="-676.36" font-family="Helvetica,sans-Serif" font-size="10.00">w2c__f412</text>
</a>
</g>
</g>
<!-- Node10&#45;&gt;Node11 -->
<g id="edge12_Node000010_Node000011" class="edge">
<title>Node10&#45;&gt;Node11</title>
<g id="a_edge12_Node000010_Node000011"><a xlink:title=" ">
<path fill="none" stroke="#63b8ff" d="M323.38,-621.6C310,-632.96 292.03,-647.65 275.25,-659.49 270.77,-662.65 265.79,-665.83 261.09,-668.71"/>
<polygon fill="#63b8ff" stroke="#63b8ff" points="325.38,-624.5 330.68,-615.33 320.82,-619.18 325.38,-624.5"/>
</a>
</g>
</g>
<!-- Node11&#45;&gt;Node4 -->
<g id="edge13_Node000011_Node000004" class="edge">
<title>Node11&#45;&gt;Node4</title>
<g id="a_edge13_Node000011_Node000004"><a xlink:title=" ">
<path fill="none" stroke="#63b8ff" d="M212.25,-662.76C210.63,-661.67 209.03,-660.58 207.5,-659.49 186.51,-644.54 163.78,-625.01 150.4,-613.13"/>
<polygon fill="#63b8ff" stroke="#63b8ff" points="210.05,-665.5 220.37,-667.92 213.81,-659.6 210.05,-665.5"/>
</a>
</g>
</g>
<!-- Node12&#45;&gt;Node7 -->
<g id="edge20_Node000012_Node000007" class="edge">
<title>Node12&#45;&gt;Node7</title>
<g id="a_edge20_Node000012_Node000007"><a xlink:title=" ">
<path fill="none" stroke="#63b8ff" d="M299.65,-414.92C271.41,-414.47 235.11,-410.07 207.5,-393.49 173.79,-373.25 151.76,-329.53 142.96,-309.24"/>
<polygon fill="#63b8ff" stroke="#63b8ff" points="299.32,-418.42 309.31,-414.9 299.31,-411.42 299.32,-418.42"/>
</a>
</g>
</g>
<!-- Node13 -->
<g id="Node000013" class="node">
<title>Node13</title>
<g id="a_Node000013"><a xlink:href="app_8c.html#a3528ca1eb262ff9291f92bf37d2fc18a" target="_top" xlink:title=" ">
<polygon fill="white" stroke="#666666" points="275.25,-384.86 207.5,-384.86 207.5,-364.11 275.25,-364.11 275.25,-384.86"/>
<text text-anchor="middle" x="241.38" y="-371.36" font-family="Helvetica,sans-Serif" font-size="10.00">w2c__f492</text>
</a>
</g>
</g>
<!-- Node12&#45;&gt;Node13 -->
<g id="edge21_Node000012_Node000013" class="edge">
<title>Node12&#45;&gt;Node13</title>
<g id="a_edge21_Node000012_Node000013"><a xlink:title=" ">
<path fill="none" stroke="#63b8ff" d="M304.51,-397.69C293.46,-393.56 281.65,-389.16 271.33,-385.3"/>
<polygon fill="#63b8ff" stroke="#63b8ff" points="303.23,-400.95 313.82,-401.17 305.68,-394.39 303.23,-400.95"/>
</a>
</g>
</g>
<!-- Node13&#45;&gt;Node7 -->
<g id="edge22_Node000013_Node000007" class="edge">
<title>Node13&#45;&gt;Node7</title>
<g id="a_edge22_Node000013_Node000007"><a xlink:title=" ">
<path fill="none" stroke="#63b8ff" d="M217.26,-357.22C197.5,-342.46 169.69,-321.69 152.98,-309.21"/>
<polygon fill="#63b8ff" stroke="#63b8ff" points="214.91,-359.83 225.01,-363.01 219.1,-354.23 214.91,-359.83"/>
</a>
</g>
</g>
<!-- Node14&#45;&gt;Node4 -->
<g id="edge34_Node000014_Node000004" class="edge">
<title>Node14&#45;&gt;Node4</title>
<g id="a_edge34_Node000014_Node000004"><a xlink:title=" ">
<path fill="none" stroke="#63b8ff" d="M427.13,-469.38C413.94,-480.17 396.17,-493.69 379,-503.49 308.84,-543.54 219.27,-575.98 171.74,-591.88"/>
<polygon fill="#63b8ff" stroke="#63b8ff" points="429.26,-472.16 434.69,-463.06 424.77,-466.79 429.26,-472.16"/>
</a>
</g>
</g>
<!-- Node14&#45;&gt;Node5 -->
<g id="edge29_Node000014_Node000005" class="edge">
<title>Node14&#45;&gt;Node5</title>
<g id="a_edge29_Node000014_Node000005"><a xlink:title=" ">
<path fill="none" stroke="#63b8ff" d="M443.22,-473.22C434.99,-507.73 415.21,-575.9 379,-622.49 294.49,-731.21 136.26,-796.37 67.82,-820.63"/>
<polygon fill="#63b8ff" stroke="#63b8ff" points="446.6,-474.14 445.4,-463.61 439.77,-472.59 446.6,-474.14"/>
</a>
</g>
</g>
<!-- Node14&#45;&gt;Node7 -->
<g id="edge30_Node000014_Node000007" class="edge">
<title>Node14&#45;&gt;Node7</title>
<g id="a_edge30_Node000014_Node000007"><a xlink:title=" ">
<path fill="none" stroke="#63b8ff" d="M429.31,-432.96C416.12,-420.56 397.54,-404.55 379,-393.49 309.84,-352.21 219.49,-322.11 171.66,-307.81"/>
<polygon fill="#63b8ff" stroke="#63b8ff" points="426.79,-435.39 436.41,-439.81 431.64,-430.35 426.79,-435.39"/>
</a>
</g>
</g>
<!-- Node14&#45;&gt;Node8 -->
<g id="edge33_Node000014_Node000008" class="edge">
<title>Node14&#45;&gt;Node8</title>
<g id="a_edge33_Node000014_Node000008"><a xlink:title=" ">
<path fill="none" stroke="#63b8ff" d="M403.84,-464.39C395.63,-466.59 387.08,-468.72 379,-470.49 265.76,-495.25 129.37,-514.3 67.84,-522.33"/>
<polygon fill="#63b8ff" stroke="#63b8ff" points="404.6,-467.82 413.31,-461.8 402.75,-461.07 404.6,-467.82"/>
</a>
</g>
</g>
<!-- Node14&#45;&gt;Node10 -->
<g id="edge26_Node000014_Node000010" class="edge">
<title>Node14&#45;&gt;Node10</title>
<g id="a_edge26_Node000014_Node000010"><a xlink:title=" ">
<path fill="none" stroke="#63b8ff" d="M439.96,-472.59C429.14,-499.5 407.74,-546.51 379,-579.49 374.64,-584.5 369.04,-589.06 363.71,-592.83"/>
<polygon fill="#63b8ff" stroke="#63b8ff" points="443.14,-474.07 443.51,-463.48 436.62,-471.53 443.14,-474.07"/>
</a>
</g>
</g>
<!-- Node14&#45;&gt;Node12 -->
<g id="edge37_Node000014_Node000012" class="edge">
<title>Node14&#45;&gt;Node12</title>
<g id="a_edge37_Node000014_Node000012"><a xlink:title=" ">
<path fill="none" stroke="#63b8ff" d="M408.85,-436.53C397.35,-432.12 384.99,-427.39 374.32,-423.29"/>
<polygon fill="#63b8ff" stroke="#63b8ff" points="407.53,-439.77 418.12,-440.08 410.03,-433.24 407.53,-439.77"/>
</a>
</g>
</g>
<!-- Node15 -->
<g id="Node000015" class="node">
<title>Node15</title>
<g id="a_Node000015"><a xlink:href="app_8c.html#ab5a3eb75567e85becd3ea69f3cefe6c1" target="_top" xlink:title=" ">
<polygon fill="white" stroke="#666666" points="379,-270.86 311.25,-270.86 311.25,-250.11 379,-250.11 379,-270.86"/>
<text text-anchor="middle" x="345.12" y="-257.36" font-family="Helvetica,sans-Serif" font-size="10.00">w2c__f285</text>
</a>
</g>
</g>
<!-- Node14&#45;&gt;Node15 -->
<g id="edge24_Node000014_Node000015" class="edge">
<title>Node14&#45;&gt;Node15</title>
<g id="a_edge24_Node000014_Node000015"><a xlink:title=" ">
<path fill="none" stroke="#63b8ff" d="M437.53,-430.61C424.32,-404.11 400.58,-357.08 379,-317.49 370.14,-301.24 359.33,-282.73 352.59,-271.33"/>
<polygon fill="#63b8ff" stroke="#63b8ff" points="434.26,-431.87 441.84,-439.27 440.52,-428.76 434.26,-431.87"/>
</a>
</g>
</g>
<!-- Node16 -->
<g id="Node000016" class="node">
<title>Node16</title>
<g id="a_Node000016"><a xlink:href="app_8c.html#a90092f313c3529894f5b07df3b2baa3a" target="_top" xlink:title=" ">
<polygon fill="white" stroke="#666666" points="379,-194.86 311.25,-194.86 311.25,-174.11 379,-174.11 379,-194.86"/>
<text text-anchor="middle" x="345.12" y="-181.36" font-family="Helvetica,sans-Serif" font-size="10.00">w2c__f364</text>
</a>
</g>
</g>
<!-- Node14&#45;&gt;Node16 -->
<g id="edge27_Node000014_Node000016" class="edge">
<title>Node14&#45;&gt;Node16</title>
<g id="a_edge27_Node000014_Node000016"><a xlink:title=" ">
<path fill="none" stroke="#63b8ff" d="M442.35,-429.77C432.14,-391.04 408.65,-307.87 379,-241.49 371.45,-224.59 360.29,-206.25 353.11,-195.06"/>
<polygon fill="#63b8ff" stroke="#63b8ff" points="438.91,-430.44 444.81,-439.24 445.68,-428.69 438.91,-430.44"/>
</a>
</g>
</g>
<!-- Node17 -->
<g id="Node000017" class="node">
<title>Node17</title>
<g id="a_Node000017"><a xlink:href="app_8c.html#a2ed61b7ee4e5a17be88e493a38bae83d" target="_top" xlink:title=" ">
<polygon fill="white" stroke="#666666" points="379,-461.86 311.25,-461.86 311.25,-441.11 379,-441.11 379,-461.86"/>
<text text-anchor="middle" x="345.12" y="-448.36" font-family="Helvetica,sans-Serif" font-size="10.00">w2c__f405</text>
</a>
</g>
</g>
<!-- Node14&#45;&gt;Node17 -->
<g id="edge31_Node000014_Node000017" class="edge">
<title>Node14&#45;&gt;Node17</title>
<g id="a_edge31_Node000014_Node000017"><a xlink:title=" ">
<path fill="none" stroke="#63b8ff" d="M403.32,-451.49C395.21,-451.49 386.88,-451.49 379.17,-451.49"/>
<polygon fill="#63b8ff" stroke="#63b8ff" points="403.04,-454.99 413.04,-451.49 403.04,-447.99 403.04,-454.99"/>
</a>
</g>
</g>
<!-- Node18 -->
<g id="Node000018" class="node">
<title>Node18</title>
<g id="a_Node000018"><a xlink:href="app_8c.html#ab921fb28dcc7600a438d095932e682a1" target="_top" xlink:title=" ">
<polygon fill="white" stroke="#666666" points="379,-346.86 311.25,-346.86 311.25,-326.11 379,-326.11 379,-346.86"/>
<text text-anchor="middle" x="345.12" y="-333.36" font-family="Helvetica,sans-Serif" font-size="10.00">w2c__f483</text>
</a>
</g>
</g>
<!-- Node14&#45;&gt;Node18 -->
<g id="edge35_Node000014_Node000018" class="edge">
<title>Node14&#45;&gt;Node18</title>
<g id="a_edge35_Node000014_Node000018"><a xlink:title=" ">
<path fill="none" stroke="#63b8ff" d="M435.09,-431.26C422.27,-411.87 401.3,-382.4 379,-360.49 374.16,-355.73 368.33,-351.17 362.93,-347.32"/>
<polygon fill="#63b8ff" stroke="#63b8ff" points="432.12,-433.12 440.5,-439.61 438,-429.31 432.12,-433.12"/>
</a>
</g>
</g>
<!-- Node15&#45;&gt;Node7 -->
<g id="edge25_Node000015_Node000007" class="edge">
<title>Node15&#45;&gt;Node7</title>
<g id="a_edge25_Node000015_Node000007"><a xlink:title=" ">
<path fill="none" stroke="#63b8ff" d="M307.38,-246.11C279.3,-237.31 240.02,-229.78 207.5,-241.49 181.8,-250.74 158.88,-274.21 147.07,-287.98"/>
<polygon fill="#63b8ff" stroke="#63b8ff" points="305.9,-249.31 316.5,-249.16 308.12,-242.67 305.9,-249.31"/>
</a>
</g>
</g>
<!-- Node16&#45;&gt;Node7 -->
<g id="edge28_Node000016_Node000007" class="edge">
<title>Node16&#45;&gt;Node7</title>
<g id="a_edge28_Node000016_Node000007"><a xlink:title=" ">
<path fill="none" stroke="#63b8ff" d="M299.86,-194.41C272,-201.9 236.04,-213.93 207.5,-231.49 182.21,-247.05 158.79,-273.36 146.87,-287.95"/>
<polygon fill="#63b8ff" stroke="#63b8ff" points="300.6,-197.83 309.41,-191.94 298.86,-191.05 300.6,-197.83"/>
</a>
</g>
</g>
<!-- Node17&#45;&gt;Node4 -->
<g id="edge32_Node000017_Node000004" class="edge">
<title>Node17&#45;&gt;Node4</title>
<g id="a_edge32_Node000017_Node000004"><a xlink:title=" ">
<path fill="none" stroke="#63b8ff" d="M320.1,-468.68C292.74,-488.31 246.72,-521.48 207.5,-550.49 188.47,-564.57 166.69,-581.07 152.81,-591.65"/>
<polygon fill="#63b8ff" stroke="#63b8ff" points="321.98,-471.64 328.07,-462.97 317.9,-465.95 321.98,-471.64"/>
</a>
</g>
</g>
<!-- Node18&#45;&gt;Node4 -->
<g id="edge36_Node000018_Node000004" class="edge">
<title>Node18&#45;&gt;Node4</title>
<g id="a_edge36_Node000018_Node000004"><a xlink:title=" ">
<path fill="none" stroke="#63b8ff" d="M299.76,-331.01C270.22,-329.9 232.41,-333.71 207.5,-355.49 170.47,-387.87 146.04,-548.42 140.06,-591.72"/>
<polygon fill="#63b8ff" stroke="#63b8ff" points="299.34,-334.5 309.53,-331.6 299.75,-327.51 299.34,-334.5"/>
</a>
</g>
</g>
<!-- Node19&#45;&gt;Node3 -->
<g id="edge39_Node000019_Node000003" class="edge">
<title>Node19&#45;&gt;Node3</title>
<g id="a_edge39_Node000019_Node000003"><a xlink:title=" ">
<path fill="none" stroke="#63b8ff" d="M418.35,-257.81C378.32,-279.96 311.7,-316.88 311.25,-317.49 272.9,-369.36 248.76,-579.56 243.47,-629.71"/>
<polygon fill="#63b8ff" stroke="#63b8ff" points="420,-260.9 427.06,-253 416.61,-254.77 420,-260.9"/>
</a>
</g>
</g>
<!-- Node19&#45;&gt;Node4 -->
<g id="edge47_Node000019_Node000004" class="edge">
<title>Node19&#45;&gt;Node4</title>
<g id="a_edge47_Node000019_Node000004"><a xlink:title=" ">
<path fill="none" stroke="#63b8ff" d="M436.25,-221.02C424.5,-202.61 404.45,-176.77 379,-165.49 302.78,-131.7 252.04,-171.01 207.5,-241.49 168.9,-302.57 144.69,-538.16 139.62,-591.65"/>
<polygon fill="#63b8ff" stroke="#63b8ff" points="433.24,-222.8 441.41,-229.55 439.23,-219.18 433.24,-222.8"/>
</a>
</g>
</g>
<!-- Node19&#45;&gt;Node5 -->
<g id="edge43_Node000019_Node000005" class="edge">
<title>Node19&#45;&gt;Node5</title>
<g id="a_edge43_Node000019_Node000005"><a xlink:title=" ">
<path fill="none" stroke="#63b8ff" d="M444.35,-219.71C437.83,-187.45 420.57,-127.92 379,-101.49 314.68,-60.58 273.5,-61.35 207.5,-99.49 127.55,-145.69 133.1,-191.94 103.75,-279.49 94.75,-306.33 44.45,-747.17 36.06,-821.03"/>
<polygon fill="#63b8ff" stroke="#63b8ff" points="440.9,-220.28 446.14,-229.49 447.78,-219.02 440.9,-220.28"/>
</a>
</g>
</g>
<!-- Node19&#45;&gt;Node6 -->
<g id="edge42_Node000019_Node000006" class="edge">
<title>Node19&#45;&gt;Node6</title>
<g id="a_edge42_Node000019_Node000006"><a xlink:title=" ">
<path fill="none" stroke="#63b8ff" d="M403.24,-238.48C376.45,-237.41 341.76,-237.36 311.25,-241.49 299.08,-243.14 286.02,-246.35 274.58,-249.67"/>
<polygon fill="#63b8ff" stroke="#63b8ff" points="402.91,-241.96 413.07,-238.93 403.24,-234.97 402.91,-241.96"/>
</a>
</g>
</g>
<!-- Node19&#45;&gt;Node7 -->
<g id="edge44_Node000019_Node000007" class="edge">
<title>Node19&#45;&gt;Node7</title>
<g id="a_edge44_Node000019_Node000007"><a xlink:title=" ">
<path fill="none" stroke="#63b8ff" d="M441.48,-220.24C432.35,-194.17 412.83,-151.13 379,-132.49 312.24,-95.7 270.89,-90.16 207.5,-132.49 153.01,-168.87 141.57,-257.27 139.22,-287.86"/>
<polygon fill="#63b8ff" stroke="#63b8ff" points="438.05,-221.02 444.48,-229.44 444.7,-218.85 438.05,-221.02"/>
</a>
</g>
</g>
<!-- Node19&#45;&gt;Node8 -->
<g id="edge46_Node000019_Node000008" class="edge">
<title>Node19&#45;&gt;Node8</title>
<g id="a_edge46_Node000019_Node000008"><a xlink:title=" ">
<path fill="none" stroke="#63b8ff" d="M447.22,-219.18C444.68,-178.7 432.84,-93.89 379,-56.49 278.53,13.31 196.31,23.5 103.75,-56.49 31.68,-118.77 33.59,-451.34 34.66,-515.7"/>
<polygon fill="#63b8ff" stroke="#63b8ff" points="443.72,-219.31 447.69,-229.13 450.71,-218.98 443.72,-219.31"/>
</a>
</g>
</g>
<!-- Node19&#45;&gt;Node12 -->
<g id="edge49_Node000019_Node000012" class="edge">
<title>Node19&#45;&gt;Node12</title>
<g id="a_edge49_Node000019_Node000012"><a xlink:title=" ">
<path fill="none" stroke="#63b8ff" d="M435.81,-261.77C414.08,-298.28 369.12,-373.85 352.49,-401.8"/>
<polygon fill="#63b8ff" stroke="#63b8ff" points="438.63,-263.87 440.74,-253.49 432.61,-260.29 438.63,-263.87"/>
</a>
</g>
</g>
<!-- Node19&#45;&gt;Node15 -->
<g id="edge40_Node000019_Node000015" class="edge">
<title>Node19&#45;&gt;Node15</title>
<g id="a_edge40_Node000019_Node000015"><a xlink:title=" ">
<path fill="none" stroke="#63b8ff" d="M403.32,-249.81C395.21,-251.32 386.88,-252.88 379.17,-254.32"/>
<polygon fill="#63b8ff" stroke="#63b8ff" points="403.88,-253.26 413.07,-247.99 402.6,-246.38 403.88,-253.26"/>
</a>
</g>
</g>
<!-- Node19&#45;&gt;Node16 -->
<g id="edge41_Node000019_Node000016" class="edge">
<title>Node19&#45;&gt;Node16</title>
<g id="a_edge41_Node000019_Node000016"><a xlink:title=" ">
<path fill="none" stroke="#63b8ff" d="M418.72,-225.15C401.65,-215.59 380.56,-203.78 365.52,-195.35"/>
<polygon fill="#63b8ff" stroke="#63b8ff" points="416.98,-228.19 427.42,-230.03 420.4,-222.09 416.98,-228.19"/>
</a>
</g>
</g>
<!-- Node19&#45;&gt;Node17 -->
<g id="edge45_Node000019_Node000017" class="edge">
<title>Node19&#45;&gt;Node17</title>
<g id="a_edge45_Node000019_Node000017"><a xlink:title=" ">
<path fill="none" stroke="#63b8ff" d="M444.79,-263.37C438.47,-301.34 420.93,-380.26 379,-431.49 376.12,-435 372.45,-438.06 368.62,-440.66"/>
<polygon fill="#63b8ff" stroke="#63b8ff" points="448.22,-264.08 446.29,-253.66 441.3,-263.01 448.22,-264.08"/>
</a>
</g>
</g>
<!-- Node19&#45;&gt;Node18 -->
<g id="edge48_Node000019_Node000018" class="edge">
<title>Node19&#45;&gt;Node18</title>
<g id="a_edge48_Node000019_Node000018"><a xlink:title=" ">
<path fill="none" stroke="#63b8ff" d="M431.07,-260.51C417.6,-275.33 397.89,-296.07 379,-312.49 373.67,-317.12 367.48,-321.8 361.93,-325.78"/>
<polygon fill="#63b8ff" stroke="#63b8ff" points="433.49,-263.05 437.57,-253.27 428.29,-258.37 433.49,-263.05"/>
</a>
</g>
</g>
</g>
</svg>
