<?xml version="1.0" encoding="UTF-8" standalone="no"?>
<!DOCTYPE svg PUBLIC "-//W3C//DTD SVG 1.1//EN"
 "http://www.w3.org/Graphics/SVG/1.1/DTD/svg11.dtd">
<!-- Generated by graphviz version 12.2.1 (0)
 -->
<!-- Title: w2c_0_170 Pages: 1 -->
<svg width="612pt" height="183pt"
 viewBox="0.00 0.00 612.25 182.75" xmlns="http://www.w3.org/2000/svg" xmlns:xlink="http://www.w3.org/1999/xlink">
<g id="graph0" class="graph" transform="scale(1 1) rotate(0) translate(4 178.75)">
<title>w2c_0_170</title>
<!-- Node1 -->
<g id="Node000001" class="node">
<title>Node1</title>
<g id="a_Node000001"><a xlink:title=" ">
<polygon fill="#999999" stroke="#666666" points="604.25,-97.75 534.25,-97.75 534.25,-77 604.25,-77 604.25,-97.75"/>
<text text-anchor="middle" x="569.25" y="-84.25" font-family="Helvetica,sans-Serif" font-size="10.00">w2c_0_170</text>
</a>
</g>
</g>
<!-- Node2 -->
<g id="Node000002" class="node">
<title>Node2</title>
<g id="a_Node000002"><a xlink:href="app_8c.html#a7dc7d70793bae217b64eab580fce99cb" target="_top" xlink:title=" ">
<polygon fill="white" stroke="#666666" points="348.38,-173.75 280.62,-173.75 280.62,-153 348.38,-153 348.38,-173.75"/>
<text text-anchor="middle" x="314.5" y="-160.25" font-family="Helvetica,sans-Serif" font-size="10.00">w2c__f215</text>
</a>
</g>
</g>
<!-- Node1&#45;&gt;Node2 -->
<g id="edge1_Node000001_Node000002" class="edge">
<title>Node1&#45;&gt;Node2</title>
<g id="a_edge1_Node000001_Node000002"><a xlink:title=" ">
<path fill="none" stroke="#63b8ff" d="M551.4,-105.94C538.29,-119.07 518.91,-135.8 498.25,-144.38 449.05,-164.8 386.27,-166.66 348.57,-165.49"/>
<polygon fill="#63b8ff" stroke="#63b8ff" points="553.61,-108.69 558.01,-99.05 548.56,-103.84 553.61,-108.69"/>
</a>
</g>
</g>
<!-- Node4 -->
<g id="Node000004" class="node">
<title>Node4</title>
<g id="a_Node000004"><a xlink:href="app_8c.html#a89762a8b7c6aa85c61818d40fc39f65a" target="_top" xlink:title=" ">
<polygon fill="white" stroke="#666666" points="482.5,-135.75 414.75,-135.75 414.75,-115 482.5,-115 482.5,-135.75"/>
<text text-anchor="middle" x="448.62" y="-122.25" font-family="Helvetica,sans-Serif" font-size="10.00">w2c__f441</text>
</a>
</g>
</g>
<!-- Node1&#45;&gt;Node4 -->
<g id="edge3_Node000001_Node000004" class="edge">
<title>Node1&#45;&gt;Node4</title>
<g id="a_edge3_Node000001_Node000004"><a xlink:title=" ">
<path fill="none" stroke="#63b8ff" d="M523.98,-101.56C510.4,-105.91 495.7,-110.62 482.97,-114.69"/>
<polygon fill="#63b8ff" stroke="#63b8ff" points="524.68,-105.01 533.13,-98.62 522.54,-98.34 524.68,-105.01"/>
</a>
</g>
</g>
<!-- Node5 -->
<g id="Node000005" class="node">
<title>Node5</title>
<g id="a_Node000005"><a xlink:href="app_8c.html#afb3fbfc35abe0f21d554f326b79a0b76" target="_top" xlink:title=" ">
<polygon fill="white" stroke="#666666" points="348.38,-116.75 280.62,-116.75 280.62,-96 348.38,-96 348.38,-116.75"/>
<text text-anchor="middle" x="314.5" y="-103.25" font-family="Helvetica,sans-Serif" font-size="10.00">w2c__f494</text>
</a>
</g>
</g>
<!-- Node1&#45;&gt;Node5 -->
<g id="edge14_Node000001_Node000005" class="edge">
<title>Node1&#45;&gt;Node5</title>
<g id="a_edge14_Node000001_Node000005"><a xlink:title=" ">
<path fill="none" stroke="#63b8ff" d="M522.43,-90.82C472.25,-94.59 393.02,-100.55 348.57,-103.89"/>
<polygon fill="#63b8ff" stroke="#63b8ff" points="522.68,-94.31 532.39,-90.07 522.16,-87.33 522.68,-94.31"/>
</a>
</g>
</g>
<!-- Node10 -->
<g id="Node000010" class="node">
<title>Node10</title>
<g id="a_Node000010"><a xlink:href="app_8c.html#a0a3203896da22c107966a0b2cc4d60c3" target="_top" xlink:title=" ">
<polygon fill="white" stroke="#666666" points="482.5,-59.75 414.75,-59.75 414.75,-39 482.5,-39 482.5,-59.75"/>
<text text-anchor="middle" x="448.62" y="-46.25" font-family="Helvetica,sans-Serif" font-size="10.00">w2c__f485</text>
</a>
</g>
</g>
<!-- Node1&#45;&gt;Node10 -->
<g id="edge10_Node000001_Node000010" class="edge">
<title>Node1&#45;&gt;Node10</title>
<g id="a_edge10_Node000001_Node000010"><a xlink:title=" ">
<path fill="none" stroke="#63b8ff" d="M523.98,-73.19C510.4,-68.84 495.7,-64.13 482.97,-60.06"/>
<polygon fill="#63b8ff" stroke="#63b8ff" points="522.54,-76.41 533.13,-76.13 524.68,-69.74 522.54,-76.41"/>
</a>
</g>
</g>
<!-- Node14 -->
<g id="Node000014" class="node">
<title>Node14</title>
<g id="a_Node000014"><a xlink:href="app_8c.html#a8d7780a4ef58494086c85677d9c06d3e" target="_top" xlink:title=" ">
<polygon fill="white" stroke="#666666" points="498.25,-20.75 399,-20.75 399,0 498.25,0 498.25,-20.75"/>
<text text-anchor="middle" x="448.62" y="-7.25" font-family="Helvetica,sans-Serif" font-size="10.00">wrap_w2c_0_170</text>
</a>
</g>
</g>
<!-- Node1&#45;&gt;Node14 -->
<g id="edge15_Node000001_Node000014" class="edge">
<title>Node1&#45;&gt;Node14</title>
<g id="a_edge15_Node000001_Node000014"><a xlink:title=" ">
<path fill="none" stroke="#63b8ff" d="M548.75,-68.86C535.31,-56.79 516.63,-41.31 498.25,-30.38 492.52,-26.97 486.11,-23.88 479.86,-21.2"/>
<polygon fill="#63b8ff" stroke="#63b8ff" points="546.3,-71.36 556.03,-75.55 551.03,-66.21 546.3,-71.36"/>
</a>
</g>
</g>
<!-- Node3 -->
<g id="Node000003" class="node">
<title>Node3</title>
<g id="a_Node000003"><a xlink:href="app_8c.html#a7f65ba02075f2865f478747946b07c94" target="_top" xlink:title=" ">
<polygon fill="white" stroke="#666666" points="230,-174.75 133,-174.75 133,-154 230,-154 230,-174.75"/>
<text text-anchor="middle" x="181.5" y="-161.25" font-family="Helvetica,sans-Serif" font-size="10.00">wrap_w2c__f215</text>
</a>
</g>
</g>
<!-- Node2&#45;&gt;Node3 -->
<g id="edge2_Node000002_Node000003" class="edge">
<title>Node2&#45;&gt;Node3</title>
<g id="a_edge2_Node000002_Node000003"><a xlink:title=" ">
<path fill="none" stroke="#63b8ff" d="M268.95,-163.72C256.53,-163.81 243,-163.91 230.4,-164.01"/>
<polygon fill="#63b8ff" stroke="#63b8ff" points="268.96,-167.22 278.93,-163.64 268.9,-160.22 268.96,-167.22"/>
</a>
</g>
</g>
<!-- Node4&#45;&gt;Node2 -->
<g id="edge4_Node000004_Node000002" class="edge">
<title>Node4&#45;&gt;Node2</title>
<g id="a_edge4_Node000004_Node000002"><a xlink:title=" ">
<path fill="none" stroke="#63b8ff" d="M403.28,-138.13C385.49,-143.24 365.34,-149.04 348.83,-153.79"/>
<polygon fill="#63b8ff" stroke="#63b8ff" points="404.19,-141.51 412.83,-135.38 402.25,-134.78 404.19,-141.51"/>
</a>
</g>
</g>
<!-- Node4&#45;&gt;Node5 -->
<g id="edge5_Node000004_Node000005" class="edge">
<title>Node4&#45;&gt;Node5</title>
<g id="a_edge5_Node000004_Node000005"><a xlink:title=" ">
<path fill="none" stroke="#63b8ff" d="M403.03,-118.96C385.3,-116.41 365.26,-113.53 348.83,-111.17"/>
<polygon fill="#63b8ff" stroke="#63b8ff" points="402.39,-122.41 412.79,-120.37 403.39,-115.48 402.39,-122.41"/>
</a>
</g>
</g>
<!-- Node6 -->
<g id="Node000006" class="node">
<title>Node6</title>
<g id="a_Node000006"><a xlink:href="app_8c.html#a86ae468e235684021eadfdacd5cb9dba" target="_top" xlink:title=" ">
<polygon fill="white" stroke="#666666" points="215.38,-135.75 147.62,-135.75 147.62,-115 215.38,-115 215.38,-135.75"/>
<text text-anchor="middle" x="181.5" y="-122.25" font-family="Helvetica,sans-Serif" font-size="10.00">w2c__f452</text>
</a>
</g>
</g>
<!-- Node5&#45;&gt;Node6 -->
<g id="edge6_Node000005_Node000006" class="edge">
<title>Node5&#45;&gt;Node6</title>
<g id="a_edge6_Node000005_Node000006"><a xlink:title=" ">
<path fill="none" stroke="#63b8ff" d="M269.28,-112.79C251.71,-115.34 231.83,-118.22 215.55,-120.58"/>
<polygon fill="#63b8ff" stroke="#63b8ff" points="269.55,-116.29 278.95,-111.39 268.55,-109.36 269.55,-116.29"/>
</a>
</g>
</g>
<!-- Node8 -->
<g id="Node000008" class="node">
<title>Node8</title>
<g id="a_Node000008"><a xlink:href="app_8c.html#ad1dbc2afe7918517df3fc54838f07298" target="_top" xlink:title=" ">
<polygon fill="white" stroke="#666666" points="215.38,-96.75 147.62,-96.75 147.62,-76 215.38,-76 215.38,-96.75"/>
<text text-anchor="middle" x="181.5" y="-83.25" font-family="Helvetica,sans-Serif" font-size="10.00">w2c__f520</text>
</a>
</g>
</g>
<!-- Node5&#45;&gt;Node8 -->
<g id="edge8_Node000005_Node000008" class="edge">
<title>Node5&#45;&gt;Node8</title>
<g id="a_edge8_Node000005_Node000008"><a xlink:title=" ">
<path fill="none" stroke="#63b8ff" d="M269.28,-99.62C251.71,-96.94 231.83,-93.91 215.55,-91.42"/>
<polygon fill="#63b8ff" stroke="#63b8ff" points="268.53,-103.05 278.95,-101.1 269.59,-96.13 268.53,-103.05"/>
</a>
</g>
</g>
<!-- Node7 -->
<g id="Node000007" class="node">
<title>Node7</title>
<g id="a_Node000007"><a xlink:href="app_8c.html#a57ca4f801147f9325a0ea7cc2d7192c5" target="_top" xlink:title=" ">
<polygon fill="white" stroke="#666666" points="97,-135.75 0,-135.75 0,-115 97,-115 97,-135.75"/>
<text text-anchor="middle" x="48.5" y="-122.25" font-family="Helvetica,sans-Serif" font-size="10.00">wrap_w2c__f452</text>
</a>
</g>
</g>
<!-- Node6&#45;&gt;Node7 -->
<g id="edge7_Node000006_Node000007" class="edge">
<title>Node6&#45;&gt;Node7</title>
<g id="a_edge7_Node000006_Node000007"><a xlink:title=" ">
<path fill="none" stroke="#63b8ff" d="M135.95,-125.38C123.53,-125.38 110,-125.38 97.4,-125.38"/>
<polygon fill="#63b8ff" stroke="#63b8ff" points="135.93,-128.88 145.93,-125.38 135.93,-121.88 135.93,-128.88"/>
</a>
</g>
</g>
<!-- Node9 -->
<g id="Node000009" class="node">
<title>Node9</title>
<g id="a_Node000009"><a xlink:href="app_8c.html#a130f07b726020d1add9a7ed5178e023a" target="_top" xlink:title=" ">
<polygon fill="white" stroke="#666666" points="97,-96.75 0,-96.75 0,-76 97,-76 97,-96.75"/>
<text text-anchor="middle" x="48.5" y="-83.25" font-family="Helvetica,sans-Serif" font-size="10.00">wrap_w2c__f520</text>
</a>
</g>
</g>
<!-- Node8&#45;&gt;Node9 -->
<g id="edge9_Node000008_Node000009" class="edge">
<title>Node8&#45;&gt;Node9</title>
<g id="a_edge9_Node000008_Node000009"><a xlink:title=" ">
<path fill="none" stroke="#63b8ff" d="M135.95,-86.38C123.53,-86.38 110,-86.38 97.4,-86.38"/>
<polygon fill="#63b8ff" stroke="#63b8ff" points="135.93,-89.88 145.93,-86.38 135.93,-82.88 135.93,-89.88"/>
</a>
</g>
</g>
<!-- Node11 -->
<g id="Node000011" class="node">
<title>Node11</title>
<g id="a_Node000011"><a xlink:href="app_8c.html#afcd6d857de3bca65f7580b9d3e4aa197" target="_top" xlink:title=" ">
<polygon fill="white" stroke="#666666" points="348.38,-59.75 280.62,-59.75 280.62,-39 348.38,-39 348.38,-59.75"/>
<text text-anchor="middle" x="314.5" y="-46.25" font-family="Helvetica,sans-Serif" font-size="10.00">w2c__f440</text>
</a>
</g>
</g>
<!-- Node10&#45;&gt;Node11 -->
<g id="edge11_Node000010_Node000011" class="edge">
<title>Node10&#45;&gt;Node11</title>
<g id="a_edge11_Node000010_Node000011"><a xlink:title=" ">
<path fill="none" stroke="#63b8ff" d="M402.78,-49.38C385.11,-49.38 365.18,-49.38 348.83,-49.38"/>
<polygon fill="#63b8ff" stroke="#63b8ff" points="402.77,-52.88 412.77,-49.38 402.77,-45.88 402.77,-52.88"/>
</a>
</g>
</g>
<!-- Node13 -->
<g id="Node000013" class="node">
<title>Node13</title>
<g id="a_Node000013"><a xlink:href="app_8c.html#aab6a5d144a64932100c86be24948f523" target="_top" xlink:title=" ">
<polygon fill="white" stroke="#666666" points="363,-20.75 266,-20.75 266,0 363,0 363,-20.75"/>
<text text-anchor="middle" x="314.5" y="-7.25" font-family="Helvetica,sans-Serif" font-size="10.00">wrap_w2c__f485</text>
</a>
</g>
</g>
<!-- Node10&#45;&gt;Node13 -->
<g id="edge13_Node000010_Node000013" class="edge">
<title>Node10&#45;&gt;Node13</title>
<g id="a_edge13_Node000010_Node000013"><a xlink:title=" ">
<path fill="none" stroke="#63b8ff" d="M403.65,-36.4C386.92,-31.46 368.06,-25.89 352.08,-21.17"/>
<polygon fill="#63b8ff" stroke="#63b8ff" points="402.25,-39.63 412.83,-39.11 404.23,-32.92 402.25,-39.63"/>
</a>
</g>
</g>
<!-- Node12 -->
<g id="Node000012" class="node">
<title>Node12</title>
<g id="a_Node000012"><a xlink:href="app_8c.html#a5e80fd25553c5e34a6b8ff6032dc7e62" target="_top" xlink:title=" ">
<polygon fill="white" stroke="#666666" points="230,-57.75 133,-57.75 133,-37 230,-37 230,-57.75"/>
<text text-anchor="middle" x="181.5" y="-44.25" font-family="Helvetica,sans-Serif" font-size="10.00">wrap_w2c__f440</text>
</a>
</g>
</g>
<!-- Node11&#45;&gt;Node12 -->
<g id="edge12_Node000011_Node000012" class="edge">
<title>Node11&#45;&gt;Node12</title>
<g id="a_edge12_Node000011_Node000012"><a xlink:title=" ">
<path fill="none" stroke="#63b8ff" d="M268.95,-48.69C256.53,-48.51 243,-48.3 230.4,-48.11"/>
<polygon fill="#63b8ff" stroke="#63b8ff" points="268.88,-52.19 278.93,-48.85 268.98,-45.19 268.88,-52.19"/>
</a>
</g>
</g>
</g>
</svg>
