<?xml version="1.0" encoding="UTF-8" standalone="no"?>
<!DOCTYPE svg PUBLIC "-//W3C//DTD SVG 1.1//EN"
 "http://www.w3.org/Graphics/SVG/1.1/DTD/svg11.dtd">
<!-- Generated by graphviz version 12.2.1 (0)
 -->
<!-- Title: wrap_w2c__f504 Pages: 1 -->
<svg width="624pt" height="183pt"
 viewBox="0.00 0.00 623.75 182.75" xmlns="http://www.w3.org/2000/svg" xmlns:xlink="http://www.w3.org/1999/xlink">
<g id="graph0" class="graph" transform="scale(1 1) rotate(0) translate(4 178.75)">
<title>wrap_w2c__f504</title>
<!-- Node1 -->
<g id="Node000001" class="node">
<title>Node1</title>
<g id="a_Node000001"><a xlink:title=" ">
<polygon fill="#999999" stroke="#666666" points="97,-115.75 0,-115.75 0,-95 97,-95 97,-115.75"/>
<text text-anchor="middle" x="48.5" y="-102.25" font-family="Helvetica,sans-Serif" font-size="10.00">wrap_w2c__f504</text>
</a>
</g>
</g>
<!-- Node2 -->
<g id="Node000002" class="node">
<title>Node2</title>
<g id="a_Node000002"><a xlink:href="app_8c.html#a282da58cdb8a8d86b26b785358ce183a" target="_top" xlink:title=" ">
<polygon fill="white" stroke="#666666" points="200.75,-115.75 133,-115.75 133,-95 200.75,-95 200.75,-115.75"/>
<text text-anchor="middle" x="166.88" y="-102.25" font-family="Helvetica,sans-Serif" font-size="10.00">w2c__f504</text>
</a>
</g>
</g>
<!-- Node1&#45;&gt;Node2 -->
<g id="edge1_Node000001_Node000002" class="edge">
<title>Node1&#45;&gt;Node2</title>
<g id="a_edge1_Node000001_Node000002"><a xlink:title=" ">
<path fill="none" stroke="#63b8ff" d="M97.17,-105.38C105.18,-105.38 113.47,-105.38 121.4,-105.38"/>
<polygon fill="#63b8ff" stroke="#63b8ff" points="121.17,-108.88 131.17,-105.38 121.17,-101.88 121.17,-108.88"/>
</a>
</g>
</g>
<!-- Node3 -->
<g id="Node000003" class="node">
<title>Node3</title>
<g id="a_Node000003"><a xlink:href="app_8c.html#a1a8a1d528c65d63a630e19c3a4bdd098" target="_top" xlink:title=" ">
<polygon fill="white" stroke="#666666" points="304.5,-115.75 236.75,-115.75 236.75,-95 304.5,-95 304.5,-115.75"/>
<text text-anchor="middle" x="270.62" y="-102.25" font-family="Helvetica,sans-Serif" font-size="10.00">w2c__f557</text>
</a>
</g>
</g>
<!-- Node2&#45;&gt;Node3 -->
<g id="edge2_Node000002_Node000003" class="edge">
<title>Node2&#45;&gt;Node3</title>
<g id="a_edge2_Node000002_Node000003"><a xlink:title=" ">
<path fill="none" stroke="#63b8ff" d="M201.19,-105.38C208.82,-105.38 217.06,-105.38 225.08,-105.38"/>
<polygon fill="#63b8ff" stroke="#63b8ff" points="225.07,-108.88 235.07,-105.38 225.07,-101.88 225.07,-108.88"/>
</a>
</g>
</g>
<!-- Node4 -->
<g id="Node000004" class="node">
<title>Node4</title>
<g id="a_Node000004"><a xlink:href="app_8c.html#a0f7003812eaf983535ff7979fc047a21" target="_top" xlink:title=" ">
<polygon fill="white" stroke="#666666" points="408.25,-135.75 340.5,-135.75 340.5,-115 408.25,-115 408.25,-135.75"/>
<text text-anchor="middle" x="374.38" y="-122.25" font-family="Helvetica,sans-Serif" font-size="10.00">w2c__f353</text>
</a>
</g>
</g>
<!-- Node3&#45;&gt;Node4 -->
<g id="edge3_Node000003_Node000004" class="edge">
<title>Node3&#45;&gt;Node4</title>
<g id="a_edge3_Node000003_Node000004"><a xlink:title=" ">
<path fill="none" stroke="#63b8ff" d="M304.94,-111.92C312.66,-113.44 321,-115.08 329.11,-116.67"/>
<polygon fill="#63b8ff" stroke="#63b8ff" points="328.36,-120.09 338.85,-118.59 329.71,-113.22 328.36,-120.09"/>
</a>
</g>
</g>
<!-- Node9 -->
<g id="Node000009" class="node">
<title>Node9</title>
<g id="a_Node000009"><a xlink:href="app_8c.html#ac9cc84763a9c1933e50eedd7a06c17e2" target="_top" xlink:title=" ">
<polygon fill="white" stroke="#666666" points="408.25,-96.75 340.5,-96.75 340.5,-76 408.25,-76 408.25,-96.75"/>
<text text-anchor="middle" x="374.38" y="-83.25" font-family="Helvetica,sans-Serif" font-size="10.00">w2c__f480</text>
</a>
</g>
</g>
<!-- Node3&#45;&gt;Node9 -->
<g id="edge9_Node000003_Node000009" class="edge">
<title>Node3&#45;&gt;Node9</title>
<g id="a_edge9_Node000003_Node000009"><a xlink:title=" ">
<path fill="none" stroke="#63b8ff" d="M304.94,-99.15C312.66,-97.71 321,-96.16 329.11,-94.64"/>
<polygon fill="#63b8ff" stroke="#63b8ff" points="329.66,-98.1 338.84,-92.82 328.37,-91.22 329.66,-98.1"/>
</a>
</g>
</g>
<!-- Node5 -->
<g id="Node000005" class="node">
<title>Node5</title>
<g id="a_Node000005"><a xlink:href="app_8c.html#aaca5d5bcf49f2ca74019cf097750b9f3" target="_top" xlink:title=" ">
<polygon fill="white" stroke="#666666" points="512,-174.75 444.25,-174.75 444.25,-154 512,-154 512,-174.75"/>
<text text-anchor="middle" x="478.12" y="-161.25" font-family="Helvetica,sans-Serif" font-size="10.00">w2c__f258</text>
</a>
</g>
</g>
<!-- Node4&#45;&gt;Node5 -->
<g id="edge4_Node000004_Node000005" class="edge">
<title>Node4&#45;&gt;Node5</title>
<g id="a_edge4_Node000004_Node000005"><a xlink:title=" ">
<path fill="none" stroke="#63b8ff" d="M403.72,-136.24C414.41,-140.34 426.77,-145.08 438.26,-149.48"/>
<polygon fill="#63b8ff" stroke="#63b8ff" points="436.93,-152.72 447.52,-153.03 439.44,-146.18 436.93,-152.72"/>
</a>
</g>
</g>
<!-- Node8 -->
<g id="Node000008" class="node">
<title>Node8</title>
<g id="a_Node000008"><a xlink:href="app_8c.html#a4634342addbde677893ffcb45cf639dd" target="_top" xlink:title=" ">
<polygon fill="white" stroke="#666666" points="512,-135.75 444.25,-135.75 444.25,-115 512,-115 512,-135.75"/>
<text text-anchor="middle" x="478.12" y="-122.25" font-family="Helvetica,sans-Serif" font-size="10.00">w2c__f302</text>
</a>
</g>
</g>
<!-- Node4&#45;&gt;Node8 -->
<g id="edge7_Node000004_Node000008" class="edge">
<title>Node4&#45;&gt;Node8</title>
<g id="a_edge7_Node000004_Node000008"><a xlink:title=" ">
<path fill="none" stroke="#63b8ff" d="M408.69,-125.38C416.32,-125.38 424.56,-125.38 432.58,-125.38"/>
<polygon fill="#63b8ff" stroke="#63b8ff" points="432.57,-128.88 442.57,-125.38 432.57,-121.88 432.57,-128.88"/>
</a>
</g>
</g>
<!-- Node6 -->
<g id="Node000006" class="node">
<title>Node6</title>
<g id="a_Node000006"><a xlink:href="app_8c.html#a8d9f347f9a643f0ebfb53c4f54578ac4" target="_top" xlink:title=" ">
<polygon fill="white" stroke="#666666" points="615.75,-116.75 548,-116.75 548,-96 615.75,-96 615.75,-116.75"/>
<text text-anchor="middle" x="581.88" y="-103.25" font-family="Helvetica,sans-Serif" font-size="10.00">w2c__f304</text>
</a>
</g>
</g>
<!-- Node5&#45;&gt;Node6 -->
<g id="edge5_Node000005_Node000006" class="edge">
<title>Node5&#45;&gt;Node6</title>
<g id="a_edge5_Node000005_Node000006"><a xlink:title=" ">
<path fill="none" stroke="#63b8ff" d="M497.79,-153.74C513.04,-145.04 534.85,-132.61 552.3,-122.66"/>
<polygon fill="#63b8ff" stroke="#63b8ff" points="553.72,-125.88 560.67,-117.89 550.25,-119.8 553.72,-125.88"/>
</a>
</g>
</g>
<!-- Node7 -->
<g id="Node000007" class="node">
<title>Node7</title>
<g id="a_Node000007"><a xlink:href="app_8c.html#a881f0b113e93dce3ff52d04b435850f6" target="_top" xlink:title=" ">
<polygon fill="white" stroke="#666666" points="615.75,-174.75 548,-174.75 548,-154 615.75,-154 615.75,-174.75"/>
<text text-anchor="middle" x="581.88" y="-161.25" font-family="Helvetica,sans-Serif" font-size="10.00">w2c__f491</text>
</a>
</g>
</g>
<!-- Node5&#45;&gt;Node7 -->
<g id="edge6_Node000005_Node000007" class="edge">
<title>Node5&#45;&gt;Node7</title>
<g id="a_edge6_Node000005_Node000007"><a xlink:title=" ">
<path fill="none" stroke="#63b8ff" d="M512.44,-164.38C520.07,-164.38 528.31,-164.38 536.33,-164.38"/>
<polygon fill="#63b8ff" stroke="#63b8ff" points="536.32,-167.88 546.32,-164.38 536.32,-160.88 536.32,-167.88"/>
</a>
</g>
</g>
<!-- Node8&#45;&gt;Node6 -->
<g id="edge8_Node000008_Node000006" class="edge">
<title>Node8&#45;&gt;Node6</title>
<g id="a_edge8_Node000008_Node000006"><a xlink:title=" ">
<path fill="none" stroke="#63b8ff" d="M512.44,-119.15C520.16,-117.71 528.5,-116.16 536.61,-114.64"/>
<polygon fill="#63b8ff" stroke="#63b8ff" points="537.16,-118.1 546.34,-112.82 535.87,-111.22 537.16,-118.1"/>
</a>
</g>
</g>
<!-- Node9&#45;&gt;Node5 -->
<g id="edge12_Node000009_Node000005" class="edge">
<title>Node9&#45;&gt;Node5</title>
<g id="a_edge12_Node000009_Node000005"><a xlink:title=" ">
<path fill="none" stroke="#63b8ff" d="M395.07,-97.19C399.56,-99.96 404.2,-103.1 408.25,-106.38 426.35,-120.99 426.15,-129.76 444.25,-144.38 445.52,-145.4 446.84,-146.41 448.2,-147.4"/>
<polygon fill="#63b8ff" stroke="#63b8ff" points="445.91,-150.08 456.17,-152.72 449.8,-144.26 445.91,-150.08"/>
</a>
</g>
</g>
<!-- Node9&#45;&gt;Node6 -->
<g id="edge14_Node000009_Node000006" class="edge">
<title>Node9&#45;&gt;Node6</title>
<g id="a_edge14_Node000009_Node000006"><a xlink:title=" ">
<path fill="none" stroke="#63b8ff" d="M405.36,-75.5C433.32,-66.94 475.99,-57.89 512,-67.38 528.36,-71.68 544.91,-80.87 557.68,-89.24"/>
<polygon fill="#63b8ff" stroke="#63b8ff" points="555.57,-92.04 565.8,-94.81 559.54,-86.27 555.57,-92.04"/>
</a>
</g>
</g>
<!-- Node9&#45;&gt;Node8 -->
<g id="edge13_Node000009_Node000008" class="edge">
<title>Node9&#45;&gt;Node8</title>
<g id="a_edge13_Node000009_Node000008"><a xlink:title=" ">
<path fill="none" stroke="#63b8ff" d="M403.72,-97.24C414.41,-101.34 426.77,-106.08 438.26,-110.48"/>
<polygon fill="#63b8ff" stroke="#63b8ff" points="436.93,-113.72 447.52,-114.03 439.44,-107.18 436.93,-113.72"/>
</a>
</g>
</g>
<!-- Node10 -->
<g id="Node000010" class="node">
<title>Node10</title>
<g id="a_Node000010"><a xlink:href="app_8c.html#a0378208e0d5c0d1d6e7370f1c578fab3" target="_top" xlink:title=" ">
<polygon fill="white" stroke="#666666" points="512,-96.75 444.25,-96.75 444.25,-76 512,-76 512,-96.75"/>
<text text-anchor="middle" x="478.12" y="-83.25" font-family="Helvetica,sans-Serif" font-size="10.00">w2c__f216</text>
</a>
</g>
</g>
<!-- Node9&#45;&gt;Node10 -->
<g id="edge10_Node000009_Node000010" class="edge">
<title>Node9&#45;&gt;Node10</title>
<g id="a_edge10_Node000009_Node000010"><a xlink:title=" ">
<path fill="none" stroke="#63b8ff" d="M408.69,-86.38C416.32,-86.38 424.56,-86.38 432.58,-86.38"/>
<polygon fill="#63b8ff" stroke="#63b8ff" points="432.57,-89.88 442.57,-86.38 432.57,-82.88 432.57,-89.88"/>
</a>
</g>
</g>
<!-- Node11 -->
<g id="Node000011" class="node">
<title>Node11</title>
<g id="a_Node000011"><a xlink:href="app_8c.html#a674f6e81761467d0a8dc6d2a425eda9f" target="_top" xlink:title=" ">
<polygon fill="white" stroke="#666666" points="512,-20.75 444.25,-20.75 444.25,0 512,0 512,-20.75"/>
<text text-anchor="middle" x="478.12" y="-7.25" font-family="Helvetica,sans-Serif" font-size="10.00">w2c__f498</text>
</a>
</g>
</g>
<!-- Node9&#45;&gt;Node11 -->
<g id="edge15_Node000009_Node000011" class="edge">
<title>Node9&#45;&gt;Node11</title>
<g id="a_edge15_Node000009_Node000011"><a xlink:title=" ">
<path fill="none" stroke="#63b8ff" d="M389.57,-75.55C403.46,-64.99 425.24,-48.49 444.25,-34.38 447.11,-32.25 450.11,-30.04 453.1,-27.85"/>
<polygon fill="#63b8ff" stroke="#63b8ff" points="455.13,-30.7 461.14,-21.97 451,-25.05 455.13,-30.7"/>
</a>
</g>
</g>
<!-- Node10&#45;&gt;Node6 -->
<g id="edge11_Node000010_Node000006" class="edge">
<title>Node10&#45;&gt;Node6</title>
<g id="a_edge11_Node000010_Node000006"><a xlink:title=" ">
<path fill="none" stroke="#63b8ff" d="M512.44,-92.92C520.16,-94.44 528.5,-96.08 536.61,-97.67"/>
<polygon fill="#63b8ff" stroke="#63b8ff" points="535.86,-101.09 546.35,-99.59 537.21,-94.22 535.86,-101.09"/>
</a>
</g>
</g>
</g>
</svg>
