<?xml version="1.0" encoding="UTF-8" standalone="no"?>
<!DOCTYPE svg PUBLIC "-//W3C//DTD SVG 1.1//EN"
 "http://www.w3.org/Graphics/SVG/1.1/DTD/svg11.dtd">
<!-- Generated by graphviz version 12.2.1 (0)
 -->
<!-- Title: w2c_0_187 Pages: 1 -->
<svg width="182pt" height="107pt"
 viewBox="0.00 0.00 181.75 106.75" xmlns="http://www.w3.org/2000/svg" xmlns:xlink="http://www.w3.org/1999/xlink">
<g id="graph0" class="graph" transform="scale(1 1) rotate(0) translate(4 102.75)">
<title>w2c_0_187</title>
<!-- Node1 -->
<g id="Node000001" class="node">
<title>Node1</title>
<g id="a_Node000001"><a xlink:title=" ">
<polygon fill="#999999" stroke="#666666" points="173.75,-59.75 103.75,-59.75 103.75,-39 173.75,-39 173.75,-59.75"/>
<text text-anchor="middle" x="138.75" y="-46.25" font-family="Helvetica,sans-Serif" font-size="10.00">w2c_0_187</text>
</a>
</g>
</g>
<!-- Node2 -->
<g id="Node000002" class="node">
<title>Node2</title>
<g id="a_Node000002"><a xlink:href="app_8c.html#a3f760669e5f405cae42aa341ecb01687" target="_top" xlink:title=" ">
<polygon fill="white" stroke="#666666" points="67.75,-98.75 0,-98.75 0,-78 67.75,-78 67.75,-98.75"/>
<text text-anchor="middle" x="33.88" y="-85.25" font-family="Helvetica,sans-Serif" font-size="10.00">w2c__f246</text>
</a>
</g>
</g>
<!-- Node1&#45;&gt;Node2 -->
<g id="edge1_Node000001_Node000002" class="edge">
<title>Node1&#45;&gt;Node2</title>
<g id="a_edge1_Node000001_Node000002"><a xlink:title=" ">
<path fill="none" stroke="#63b8ff" d="M98.65,-64.2C86.92,-68.64 74.29,-73.43 63.38,-77.57"/>
<polygon fill="#63b8ff" stroke="#63b8ff" points="99.57,-67.59 107.68,-60.78 97.09,-61.05 99.57,-67.59"/>
</a>
</g>
</g>
<!-- Node3 -->
<g id="Node000003" class="node">
<title>Node3</title>
<g id="a_Node000003"><a xlink:href="app_8c.html#affed7b4e730191b8eb2ae859a9d3e4b2" target="_top" xlink:title=" ">
<polygon fill="white" stroke="#666666" points="67.75,-59.75 0,-59.75 0,-39 67.75,-39 67.75,-59.75"/>
<text text-anchor="middle" x="33.88" y="-46.25" font-family="Helvetica,sans-Serif" font-size="10.00">w2c__f426</text>
</a>
</g>
</g>
<!-- Node1&#45;&gt;Node3 -->
<g id="edge2_Node000001_Node000003" class="edge">
<title>Node1&#45;&gt;Node3</title>
<g id="a_edge2_Node000001_Node000003"><a xlink:title=" ">
<path fill="none" stroke="#63b8ff" d="M92.18,-49.38C84.02,-49.38 75.66,-49.38 67.93,-49.38"/>
<polygon fill="#63b8ff" stroke="#63b8ff" points="91.98,-52.88 101.98,-49.38 91.98,-45.88 91.98,-52.88"/>
</a>
</g>
</g>
<!-- Node4 -->
<g id="Node000004" class="node">
<title>Node4</title>
<g id="a_Node000004"><a xlink:href="app_8c.html#a05835d66b1e582733f9da1f3d4f3b19f" target="_top" xlink:title=" ">
<polygon fill="white" stroke="#666666" points="67.75,-20.75 0,-20.75 0,0 67.75,0 67.75,-20.75"/>
<text text-anchor="middle" x="33.88" y="-7.25" font-family="Helvetica,sans-Serif" font-size="10.00">w2c__f517</text>
</a>
</g>
</g>
<!-- Node1&#45;&gt;Node4 -->
<g id="edge3_Node000001_Node000004" class="edge">
<title>Node1&#45;&gt;Node4</title>
<g id="a_edge3_Node000001_Node000004"><a xlink:title=" ">
<path fill="none" stroke="#63b8ff" d="M98.65,-34.55C86.92,-30.11 74.29,-25.32 63.38,-21.18"/>
<polygon fill="#63b8ff" stroke="#63b8ff" points="97.09,-37.7 107.68,-37.97 99.57,-31.16 97.09,-37.7"/>
</a>
</g>
</g>
</g>
</svg>
