<?xml version="1.0" encoding="UTF-8" standalone="no"?>
<!DOCTYPE svg PUBLIC "-//W3C//DTD SVG 1.1//EN"
 "http://www.w3.org/Graphics/SVG/1.1/DTD/svg11.dtd">
<!-- Generated by graphviz version 12.2.1 (0)
 -->
<!-- Title: w2c__f373 Pages: 1 -->
<svg width="287pt" height="68pt"
 viewBox="0.00 0.00 287.00 67.75" xmlns="http://www.w3.org/2000/svg" xmlns:xlink="http://www.w3.org/1999/xlink">
<g id="graph0" class="graph" transform="scale(1 1) rotate(0) translate(4 63.75)">
<title>w2c__f373</title>
<!-- Node1 -->
<g id="Node000001" class="node">
<title>Node1</title>
<g id="a_Node000001"><a xlink:title=" ">
<polygon fill="#999999" stroke="#666666" points="67.75,-39.75 0,-39.75 0,-19 67.75,-19 67.75,-39.75"/>
<text text-anchor="middle" x="33.88" y="-26.25" font-family="Helvetica,sans-Serif" font-size="10.00">w2c__f373</text>
</a>
</g>
</g>
<!-- Node2 -->
<g id="Node000002" class="node">
<title>Node2</title>
<g id="a_Node000002"><a xlink:href="app_8c.html#af3f13764edac1b452cbff75a1fcff666" target="_top" xlink:title=" ">
<polygon fill="white" stroke="#666666" points="175.25,-59.75 107.5,-59.75 107.5,-39 175.25,-39 175.25,-59.75"/>
<text text-anchor="middle" x="141.38" y="-46.25" font-family="Helvetica,sans-Serif" font-size="10.00">w2c__f510</text>
</a>
</g>
</g>
<!-- Node1&#45;&gt;Node2 -->
<g id="edge1_Node000001_Node000002" class="edge">
<title>Node1&#45;&gt;Node2</title>
<g id="a_edge1_Node000001_Node000002"><a xlink:title=" ">
<path fill="none" stroke="#63b8ff" d="M67.97,-35.65C76.82,-37.33 86.53,-39.17 95.88,-40.94"/>
<polygon fill="#63b8ff" stroke="#63b8ff" points="95.07,-44.35 105.55,-42.77 96.38,-37.47 95.07,-44.35"/>
</a>
</g>
</g>
<!-- Node3 -->
<g id="Node000003" class="node">
<title>Node3</title>
<g id="a_Node000003"><a xlink:href="app_8c.html#a43517182877370811f9852884f2e3844" target="_top" xlink:title=" ">
<polygon fill="white" stroke="#666666" points="179,-20.75 103.75,-20.75 103.75,0 179,0 179,-20.75"/>
<text text-anchor="middle" x="141.38" y="-7.25" font-family="Helvetica,sans-Serif" font-size="10.00">wasm_trunc</text>
</a>
</g>
</g>
<!-- Node1&#45;&gt;Node3 -->
<g id="edge2_Node000001_Node000003" class="edge">
<title>Node1&#45;&gt;Node3</title>
<g id="a_edge2_Node000001_Node000003"><a xlink:title=" ">
<path fill="none" stroke="#63b8ff" d="M67.97,-23.42C75.69,-22.02 84.08,-20.51 92.31,-19.03"/>
<polygon fill="#63b8ff" stroke="#63b8ff" points="92.65,-22.53 101.87,-17.31 91.41,-15.64 92.65,-22.53"/>
</a>
</g>
</g>
<!-- Node4 -->
<g id="Node000004" class="node">
<title>Node4</title>
<g id="a_Node000004"><a xlink:href="app_8c.html#ae10979e670e507d4373e8cadcb3169aa" target="_top" xlink:title=" ">
<polygon fill="white" stroke="#666666" points="279,-20.75 215,-20.75 215,0 279,0 279,-20.75"/>
<text text-anchor="middle" x="247" y="-7.25" font-family="Helvetica,sans-Serif" font-size="10.00">quiet_nan</text>
</a>
</g>
</g>
<!-- Node3&#45;&gt;Node4 -->
<g id="edge3_Node000003_Node000004" class="edge">
<title>Node3&#45;&gt;Node4</title>
<g id="a_edge3_Node000003_Node000004"><a xlink:title=" ">
<path fill="none" stroke="#63b8ff" d="M179.49,-10.38C187.22,-10.38 195.42,-10.38 203.33,-10.38"/>
<polygon fill="#63b8ff" stroke="#63b8ff" points="203.1,-13.88 213.1,-10.38 203.1,-6.88 203.1,-13.88"/>
</a>
</g>
</g>
</g>
</svg>
