<?xml version="1.0" encoding="UTF-8" standalone="no"?>
<!DOCTYPE svg PUBLIC "-//W3C//DTD SVG 1.1//EN"
 "http://www.w3.org/Graphics/SVG/1.1/DTD/svg11.dtd">
<!-- Generated by graphviz version 12.2.1 (0)
 -->
<!-- Title: wasm_floor Pages: 1 -->
<svg width="1381pt" height="792pt"
 viewBox="0.00 0.00 1380.50 791.75" xmlns="http://www.w3.org/2000/svg" xmlns:xlink="http://www.w3.org/1999/xlink">
<g id="graph0" class="graph" transform="scale(1 1) rotate(0) translate(4 787.75)">
<title>wasm_floor</title>
<!-- Node1 -->
<g id="Node000001" class="node">
<title>Node1</title>
<g id="a_Node000001"><a xlink:title=" ">
<polygon fill="#999999" stroke="#666666" points="1372.5,-611.75 1300.25,-611.75 1300.25,-591 1372.5,-591 1372.5,-611.75"/>
<text text-anchor="middle" x="1336.38" y="-598.25" font-family="Helvetica,sans-Serif" font-size="10.00">wasm_floor</text>
</a>
</g>
</g>
<!-- Node2 -->
<g id="Node000002" class="node">
<title>Node2</title>
<g id="a_Node000002"><a xlink:href="app_8c.html#a7dc7d70793bae217b64eab580fce99cb" target="_top" xlink:title=" ">
<polygon fill="white" stroke="#666666" points="894.5,-554.75 826.75,-554.75 826.75,-534 894.5,-534 894.5,-554.75"/>
<text text-anchor="middle" x="860.62" y="-541.25" font-family="Helvetica,sans-Serif" font-size="10.00">w2c__f215</text>
</a>
</g>
</g>
<!-- Node1&#45;&gt;Node2 -->
<g id="edge1_Node000001_Node000002" class="edge">
<title>Node1&#45;&gt;Node2</title>
<g id="a_edge1_Node000001_Node000002"><a xlink:title=" ">
<path fill="none" stroke="#63b8ff" d="M1288.29,-597.83C1212.6,-591.81 1059.31,-578.26 930.5,-558.38 918.8,-556.57 906.08,-554.12 894.79,-551.78"/>
<polygon fill="#63b8ff" stroke="#63b8ff" points="1288,-601.32 1298.25,-598.61 1288.55,-594.34 1288,-601.32"/>
</a>
</g>
</g>
<!-- Node4 -->
<g id="Node000004" class="node">
<title>Node4</title>
<g id="a_Node000004"><a xlink:href="app_8c.html#a8005d8a3ded5523813d49a79a3a0a58e" target="_top" xlink:title=" ">
<polygon fill="white" stroke="#666666" points="1264.25,-707.75 1196.5,-707.75 1196.5,-687 1264.25,-687 1264.25,-707.75"/>
<text text-anchor="middle" x="1230.38" y="-694.25" font-family="Helvetica,sans-Serif" font-size="10.00">w2c__f238</text>
</a>
</g>
</g>
<!-- Node1&#45;&gt;Node4 -->
<g id="edge3_Node000001_Node000004" class="edge">
<title>Node1&#45;&gt;Node4</title>
<g id="a_edge3_Node000001_Node000004"><a xlink:title=" ">
<path fill="none" stroke="#63b8ff" d="M1319.84,-620.73C1306.22,-636.98 1285.35,-660.22 1264.25,-677.38 1260.21,-680.66 1255.57,-683.8 1251.09,-686.58"/>
<polygon fill="#63b8ff" stroke="#63b8ff" points="1322.35,-623.18 1326,-613.24 1316.95,-618.73 1322.35,-623.18"/>
</a>
</g>
</g>
<!-- Node5 -->
<g id="Node000005" class="node">
<title>Node5</title>
<g id="a_Node000005"><a xlink:href="app_8c.html#ad1dbc2afe7918517df3fc54838f07298" target="_top" xlink:title=" ">
<polygon fill="white" stroke="#666666" points="1145.88,-746.75 1078.12,-746.75 1078.12,-726 1145.88,-726 1145.88,-746.75"/>
<text text-anchor="middle" x="1112" y="-733.25" font-family="Helvetica,sans-Serif" font-size="10.00">w2c__f520</text>
</a>
</g>
</g>
<!-- Node1&#45;&gt;Node5 -->
<g id="edge59_Node000001_Node000005" class="edge">
<title>Node1&#45;&gt;Node5</title>
<g id="a_edge59_Node000001_Node000005"><a xlink:title=" ">
<path fill="none" stroke="#63b8ff" d="M1328.47,-623.05C1318.74,-649.78 1298.26,-694.37 1264.25,-716.38 1228.78,-739.32 1178.79,-741.44 1146.15,-739.77"/>
<polygon fill="#63b8ff" stroke="#63b8ff" points="1331.78,-624.19 1331.71,-613.6 1325.16,-621.92 1331.78,-624.19"/>
</a>
</g>
</g>
<!-- Node8 -->
<g id="Node000008" class="node">
<title>Node8</title>
<g id="a_Node000008"><a xlink:href="app_8c.html#a512669319fec7c2cbf61fd668bc650c9" target="_top" xlink:title=" ">
<polygon fill="white" stroke="#666666" points="1012.88,-516.75 945.12,-516.75 945.12,-496 1012.88,-496 1012.88,-516.75"/>
<text text-anchor="middle" x="979" y="-503.25" font-family="Helvetica,sans-Serif" font-size="10.00">w2c__f343</text>
</a>
</g>
</g>
<!-- Node1&#45;&gt;Node8 -->
<g id="edge7_Node000001_Node000008" class="edge">
<title>Node1&#45;&gt;Node8</title>
<g id="a_edge7_Node000001_Node000008"><a xlink:title=" ">
<path fill="none" stroke="#63b8ff" d="M1321.85,-581.59C1309.14,-564.77 1288.46,-541.61 1264.25,-530.38 1180.46,-491.5 1067.9,-496.53 1012.95,-502.13"/>
<polygon fill="#63b8ff" stroke="#63b8ff" points="1318.8,-583.35 1327.5,-589.4 1324.48,-579.25 1318.8,-583.35"/>
</a>
</g>
</g>
<!-- Node9 -->
<g id="Node000009" class="node">
<title>Node9</title>
<g id="a_Node000009"><a xlink:href="app_8c.html#a6c30f2996216fe44cdda84ff266f8b19" target="_top" xlink:title=" ">
<polygon fill="white" stroke="#666666" points="1012.88,-440.75 945.12,-440.75 945.12,-420 1012.88,-420 1012.88,-440.75"/>
<text text-anchor="middle" x="979" y="-427.25" font-family="Helvetica,sans-Serif" font-size="10.00">w2c__f362</text>
</a>
</g>
</g>
<!-- Node1&#45;&gt;Node9 -->
<g id="edge9_Node000001_Node000009" class="edge">
<title>Node1&#45;&gt;Node9</title>
<g id="a_edge9_Node000001_Node000009"><a xlink:title=" ">
<path fill="none" stroke="#63b8ff" d="M1325.38,-580.59C1313.75,-558.59 1292.45,-524.49 1264.25,-505.38 1185.03,-451.69 1069.37,-436.41 1013.15,-432.08"/>
<polygon fill="#63b8ff" stroke="#63b8ff" points="1322.12,-581.88 1329.76,-589.21 1328.36,-578.71 1322.12,-581.88"/>
</a>
</g>
</g>
<!-- Node10 -->
<g id="Node000010" class="node">
<title>Node10</title>
<g id="a_Node000010"><a xlink:href="app_8c.html#a86ae468e235684021eadfdacd5cb9dba" target="_top" xlink:title=" ">
<polygon fill="white" stroke="#666666" points="894.5,-440.75 826.75,-440.75 826.75,-420 894.5,-420 894.5,-440.75"/>
<text text-anchor="middle" x="860.62" y="-427.25" font-family="Helvetica,sans-Serif" font-size="10.00">w2c__f452</text>
</a>
</g>
</g>
<!-- Node1&#45;&gt;Node10 -->
<g id="edge53_Node000001_Node000010" class="edge">
<title>Node1&#45;&gt;Node10</title>
<g id="a_edge53_Node000001_Node000010"><a xlink:title=" ">
<path fill="none" stroke="#63b8ff" d="M1288.69,-591.34C1280.55,-589.65 1272.16,-587.93 1264.25,-586.38 1227.26,-579.1 962.4,-545.47 930.5,-525.38 897.23,-504.42 874.98,-461.07 866.04,-441"/>
<polygon fill="#63b8ff" stroke="#63b8ff" points="1287.97,-594.77 1298.48,-593.4 1289.41,-587.92 1287.97,-594.77"/>
</a>
</g>
</g>
<!-- Node12 -->
<g id="Node000012" class="node">
<title>Node12</title>
<g id="a_Node000012"><a xlink:href="app_8c.html#a5677ffd129da8cd63b876545b8187d77" target="_top" xlink:title=" ">
<polygon fill="white" stroke="#666666" points="302.62,-267.75 234.88,-267.75 234.88,-247 302.62,-247 302.62,-267.75"/>
<text text-anchor="middle" x="268.75" y="-254.25" font-family="Helvetica,sans-Serif" font-size="10.00">w2c__f367</text>
</a>
</g>
</g>
<!-- Node1&#45;&gt;Node12 -->
<g id="edge12_Node000001_Node000012" class="edge">
<title>Node1&#45;&gt;Node12</title>
<g id="a_edge12_Node000001_Node000012"><a xlink:title=" ">
<path fill="none" stroke="#63b8ff" d="M1288.88,-607.67C1243.96,-613.2 1173.95,-620.38 1113,-620.38 1113,-620.38 1113,-620.38 519.12,-620.38 343.65,-620.38 282.38,-328.64 271.57,-268.24"/>
<polygon fill="#63b8ff" stroke="#63b8ff" points="1289.04,-611.18 1298.52,-606.46 1288.16,-604.23 1289.04,-611.18"/>
</a>
</g>
</g>
<!-- Node16 -->
<g id="Node000016" class="node">
<title>Node16</title>
<g id="a_Node000016"><a xlink:href="app_8c.html#ab54a3ba3ae88da3c90f2367e2cd95454" target="_top" xlink:title=" ">
<polygon fill="white" stroke="#666666" points="1264.25,-393.75 1196.5,-393.75 1196.5,-373 1264.25,-373 1264.25,-393.75"/>
<text text-anchor="middle" x="1230.38" y="-380.25" font-family="Helvetica,sans-Serif" font-size="10.00">w2c__f433</text>
</a>
</g>
</g>
<!-- Node1&#45;&gt;Node16 -->
<g id="edge16_Node000001_Node000016" class="edge">
<title>Node1&#45;&gt;Node16</title>
<g id="a_edge16_Node000001_Node000016"><a xlink:title=" ">
<path fill="none" stroke="#63b8ff" d="M1328.67,-579.77C1317.7,-545.86 1294.11,-478.61 1264.25,-426.38 1257.53,-414.63 1247.97,-402.49 1240.89,-394.12"/>
<polygon fill="#63b8ff" stroke="#63b8ff" points="1325.31,-580.75 1331.67,-589.22 1331.99,-578.63 1325.31,-580.75"/>
</a>
</g>
</g>
<!-- Node32 -->
<g id="Node000032" class="node">
<title>Node32</title>
<g id="a_Node000032"><a xlink:href="app_8c.html#aceab5cda31b6aa6659b94aae079d60c2" target="_top" xlink:title=" ">
<polygon fill="white" stroke="#666666" points="1264.25,-783.75 1196.5,-783.75 1196.5,-763 1264.25,-763 1264.25,-783.75"/>
<text text-anchor="middle" x="1230.38" y="-770.25" font-family="Helvetica,sans-Serif" font-size="10.00">w2c__f456</text>
</a>
</g>
</g>
<!-- Node1&#45;&gt;Node32 -->
<g id="edge54_Node000001_Node000032" class="edge">
<title>Node1&#45;&gt;Node32</title>
<g id="a_edge54_Node000001_Node000032"><a xlink:title=" ">
<path fill="none" stroke="#63b8ff" d="M1328.84,-622.74C1318.71,-653.29 1296.93,-710.11 1264.25,-749.38 1260.09,-754.37 1254.68,-758.88 1249.44,-762.6"/>
<polygon fill="#63b8ff" stroke="#63b8ff" points="1332.08,-624.09 1331.79,-613.5 1325.41,-621.96 1332.08,-624.09"/>
</a>
</g>
</g>
<!-- Node33 -->
<g id="Node000033" class="node">
<title>Node33</title>
<g id="a_Node000033"><a xlink:href="app_8c.html#a16670c165bc2e48eba2f100b6b1e21c3" target="_top" xlink:title=" ">
<polygon fill="white" stroke="#666666" points="1264.25,-668.75 1196.5,-668.75 1196.5,-648 1264.25,-648 1264.25,-668.75"/>
<text text-anchor="middle" x="1230.38" y="-655.25" font-family="Helvetica,sans-Serif" font-size="10.00">w2c__f495</text>
</a>
</g>
</g>
<!-- Node1&#45;&gt;Node33 -->
<g id="edge56_Node000001_Node000033" class="edge">
<title>Node1&#45;&gt;Node33</title>
<g id="a_edge56_Node000001_Node000033"><a xlink:title=" ">
<path fill="none" stroke="#63b8ff" d="M1306.07,-617.44C1288.53,-627.05 1266.72,-639 1251.2,-647.51"/>
<polygon fill="#63b8ff" stroke="#63b8ff" points="1307.4,-620.7 1314.49,-612.82 1304.03,-614.56 1307.4,-620.7"/>
</a>
</g>
</g>
<!-- Node3 -->
<g id="Node000003" class="node">
<title>Node3</title>
<g id="a_Node000003"><a xlink:href="app_8c.html#a7f65ba02075f2865f478747946b07c94" target="_top" xlink:title=" ">
<polygon fill="white" stroke="#666666" points="790.75,-554.75 693.75,-554.75 693.75,-534 790.75,-534 790.75,-554.75"/>
<text text-anchor="middle" x="742.25" y="-541.25" font-family="Helvetica,sans-Serif" font-size="10.00">wrap_w2c__f215</text>
</a>
</g>
</g>
<!-- Node2&#45;&gt;Node3 -->
<g id="edge2_Node000002_Node000003" class="edge">
<title>Node2&#45;&gt;Node3</title>
<g id="a_edge2_Node000002_Node000003"><a xlink:title=" ">
<path fill="none" stroke="#63b8ff" d="M815.03,-544.38C807.14,-544.38 798.89,-544.38 790.91,-544.38"/>
<polygon fill="#63b8ff" stroke="#63b8ff" points="814.76,-547.88 824.76,-544.38 814.76,-540.88 814.76,-547.88"/>
</a>
</g>
</g>
<!-- Node4&#45;&gt;Node5 -->
<g id="edge4_Node000004_Node000005" class="edge">
<title>Node4&#45;&gt;Node5</title>
<g id="a_edge4_Node000004_Node000005"><a xlink:title=" ">
<path fill="none" stroke="#63b8ff" d="M1186.36,-711.79C1172.76,-716.35 1157.96,-721.31 1145.24,-725.57"/>
<polygon fill="#63b8ff" stroke="#63b8ff" points="1187.15,-715.22 1195.52,-708.72 1184.93,-708.58 1187.15,-715.22"/>
</a>
</g>
</g>
<!-- Node7 -->
<g id="Node000007" class="node">
<title>Node7</title>
<g id="a_Node000007"><a xlink:href="app_8c.html#afd9f456edbe9096c8810d692f6da9b76" target="_top" xlink:title=" ">
<polygon fill="white" stroke="#666666" points="1160.5,-707.75 1063.5,-707.75 1063.5,-687 1160.5,-687 1160.5,-707.75"/>
<text text-anchor="middle" x="1112" y="-694.25" font-family="Helvetica,sans-Serif" font-size="10.00">wrap_w2c__f238</text>
</a>
</g>
</g>
<!-- Node4&#45;&gt;Node7 -->
<g id="edge6_Node000004_Node000007" class="edge">
<title>Node4&#45;&gt;Node7</title>
<g id="a_edge6_Node000004_Node000007"><a xlink:title=" ">
<path fill="none" stroke="#63b8ff" d="M1184.78,-697.38C1176.89,-697.38 1168.64,-697.38 1160.66,-697.38"/>
<polygon fill="#63b8ff" stroke="#63b8ff" points="1184.51,-700.88 1194.51,-697.38 1184.51,-693.88 1184.51,-700.88"/>
</a>
</g>
</g>
<!-- Node6 -->
<g id="Node000006" class="node">
<title>Node6</title>
<g id="a_Node000006"><a xlink:href="app_8c.html#a130f07b726020d1add9a7ed5178e023a" target="_top" xlink:title=" ">
<polygon fill="white" stroke="#666666" points="1027.5,-746.75 930.5,-746.75 930.5,-726 1027.5,-726 1027.5,-746.75"/>
<text text-anchor="middle" x="979" y="-733.25" font-family="Helvetica,sans-Serif" font-size="10.00">wrap_w2c__f520</text>
</a>
</g>
</g>
<!-- Node5&#45;&gt;Node6 -->
<g id="edge5_Node000005_Node000006" class="edge">
<title>Node5&#45;&gt;Node6</title>
<g id="a_edge5_Node000005_Node000006"><a xlink:title=" ">
<path fill="none" stroke="#63b8ff" d="M1066.45,-736.38C1054.03,-736.38 1040.5,-736.38 1027.9,-736.38"/>
<polygon fill="#63b8ff" stroke="#63b8ff" points="1066.43,-739.88 1076.43,-736.38 1066.43,-732.88 1066.43,-739.88"/>
</a>
</g>
</g>
<!-- Node8&#45;&gt;Node2 -->
<g id="edge8_Node000008_Node000002" class="edge">
<title>Node8&#45;&gt;Node2</title>
<g id="a_edge8_Node000008_Node000002"><a xlink:title=" ">
<path fill="none" stroke="#63b8ff" d="M934.27,-520.65C921.18,-524.93 907.04,-529.55 894.74,-533.56"/>
<polygon fill="#63b8ff" stroke="#63b8ff" points="935.1,-524.06 943.52,-517.63 932.93,-517.41 935.1,-524.06"/>
</a>
</g>
</g>
<!-- Node9&#45;&gt;Node10 -->
<g id="edge10_Node000009_Node000010" class="edge">
<title>Node9&#45;&gt;Node10</title>
<g id="a_edge10_Node000009_Node000010"><a xlink:title=" ">
<path fill="none" stroke="#63b8ff" d="M933.29,-430.38C920.55,-430.38 906.91,-430.38 894.98,-430.38"/>
<polygon fill="#63b8ff" stroke="#63b8ff" points="933.14,-433.88 943.14,-430.38 933.14,-426.88 933.14,-433.88"/>
</a>
</g>
</g>
<!-- Node11 -->
<g id="Node000011" class="node">
<title>Node11</title>
<g id="a_Node000011"><a xlink:href="app_8c.html#a57ca4f801147f9325a0ea7cc2d7192c5" target="_top" xlink:title=" ">
<polygon fill="white" stroke="#666666" points="790.75,-440.75 693.75,-440.75 693.75,-420 790.75,-420 790.75,-440.75"/>
<text text-anchor="middle" x="742.25" y="-427.25" font-family="Helvetica,sans-Serif" font-size="10.00">wrap_w2c__f452</text>
</a>
</g>
</g>
<!-- Node10&#45;&gt;Node11 -->
<g id="edge11_Node000010_Node000011" class="edge">
<title>Node10&#45;&gt;Node11</title>
<g id="a_edge11_Node000010_Node000011"><a xlink:title=" ">
<path fill="none" stroke="#63b8ff" d="M815.03,-430.38C807.14,-430.38 798.89,-430.38 790.91,-430.38"/>
<polygon fill="#63b8ff" stroke="#63b8ff" points="814.76,-433.88 824.76,-430.38 814.76,-426.88 814.76,-433.88"/>
</a>
</g>
</g>
<!-- Node13 -->
<g id="Node000013" class="node">
<title>Node13</title>
<g id="a_Node000013"><a xlink:href="app_8c.html#ac863989691d4c389f80374209c220171" target="_top" xlink:title=" ">
<polygon fill="white" stroke="#666666" points="167,-286.75 104.5,-286.75 104.5,-266 167,-266 167,-286.75"/>
<text text-anchor="middle" x="135.75" y="-273.25" font-family="Helvetica,sans-Serif" font-size="10.00">w2c__c_0</text>
</a>
</g>
</g>
<!-- Node12&#45;&gt;Node13 -->
<g id="edge13_Node000012_Node000013" class="edge">
<title>Node12&#45;&gt;Node13</title>
<g id="a_edge13_Node000012_Node000013"><a xlink:title=" ">
<path fill="none" stroke="#63b8ff" d="M223.53,-263.79C204.97,-266.48 183.86,-269.54 167.1,-271.97"/>
<polygon fill="#63b8ff" stroke="#63b8ff" points="223.8,-267.29 233.2,-262.39 222.8,-260.36 223.8,-267.29"/>
</a>
</g>
</g>
<!-- Node15 -->
<g id="Node000015" class="node">
<title>Node15</title>
<g id="a_Node000015"><a xlink:href="app_8c.html#a8f64ccad6c506a1ca514ba4f43e5211c" target="_top" xlink:title=" ">
<polygon fill="white" stroke="#666666" points="184.25,-247.75 87.25,-247.75 87.25,-227 184.25,-227 184.25,-247.75"/>
<text text-anchor="middle" x="135.75" y="-234.25" font-family="Helvetica,sans-Serif" font-size="10.00">wrap_w2c__f367</text>
</a>
</g>
</g>
<!-- Node12&#45;&gt;Node15 -->
<g id="edge15_Node000012_Node000015" class="edge">
<title>Node12&#45;&gt;Node15</title>
<g id="a_edge15_Node000012_Node000015"><a xlink:title=" ">
<path fill="none" stroke="#63b8ff" d="M223.58,-250.63C211.06,-248.72 197.38,-246.63 184.65,-244.69"/>
<polygon fill="#63b8ff" stroke="#63b8ff" points="222.78,-254.05 233.2,-252.1 223.84,-247.13 222.78,-254.05"/>
</a>
</g>
</g>
<!-- Node14 -->
<g id="Node000014" class="node">
<title>Node14</title>
<g id="a_Node000014"><a xlink:href="app_8c.html#ab1e039392ea68017ab8a6063263b147d" target="_top" xlink:title=" ">
<polygon fill="white" stroke="#666666" points="51.25,-286.75 0,-286.75 0,-266 51.25,-266 51.25,-286.75"/>
<text text-anchor="middle" x="25.62" y="-273.25" font-family="Helvetica,sans-Serif" font-size="10.00">w2c__c</text>
</a>
</g>
</g>
<!-- Node13&#45;&gt;Node14 -->
<g id="edge14_Node000013_Node000014" class="edge">
<title>Node13&#45;&gt;Node14</title>
<g id="a_edge14_Node000013_Node000014"><a xlink:title=" ">
<path fill="none" stroke="#63b8ff" d="M92.72,-276.38C78.81,-276.38 63.78,-276.38 51.57,-276.38"/>
<polygon fill="#63b8ff" stroke="#63b8ff" points="92.54,-279.88 102.54,-276.38 92.54,-272.88 92.54,-279.88"/>
</a>
</g>
</g>
<!-- Node17 -->
<g id="Node000017" class="node">
<title>Node17</title>
<g id="a_Node000017"><a xlink:href="app_8c.html#ab9e08dfe15e606a6bf6c18d3fd4ac400" target="_top" xlink:title=" ">
<polygon fill="white" stroke="#666666" points="1145.88,-267.75 1078.12,-267.75 1078.12,-247 1145.88,-247 1145.88,-267.75"/>
<text text-anchor="middle" x="1112" y="-254.25" font-family="Helvetica,sans-Serif" font-size="10.00">w2c__f261</text>
</a>
</g>
</g>
<!-- Node16&#45;&gt;Node17 -->
<g id="edge17_Node000016_Node000017" class="edge">
<title>Node16&#45;&gt;Node17</title>
<g id="a_edge17_Node000016_Node000017"><a xlink:title=" ">
<path fill="none" stroke="#63b8ff" d="M1211.87,-364.42C1187.1,-337.6 1142.63,-289.46 1122.9,-268.09"/>
<polygon fill="#63b8ff" stroke="#63b8ff" points="1209.07,-366.55 1218.43,-371.52 1214.21,-361.8 1209.07,-366.55"/>
</a>
</g>
</g>
<!-- Node30 -->
<g id="Node000030" class="node">
<title>Node30</title>
<g id="a_Node000030"><a xlink:href="app_8c.html#a761558dedd027f6a978b278ebb1aaec6" target="_top" xlink:title=" ">
<polygon fill="white" stroke="#666666" points="1145.88,-393.75 1078.12,-393.75 1078.12,-373 1145.88,-373 1145.88,-393.75"/>
<text text-anchor="middle" x="1112" y="-380.25" font-family="Helvetica,sans-Serif" font-size="10.00">w2c__f530</text>
</a>
</g>
</g>
<!-- Node16&#45;&gt;Node30 -->
<g id="edge44_Node000016_Node000030" class="edge">
<title>Node16&#45;&gt;Node30</title>
<g id="a_edge44_Node000016_Node000030"><a xlink:title=" ">
<path fill="none" stroke="#63b8ff" d="M1184.66,-383.38C1171.93,-383.38 1158.28,-383.38 1146.35,-383.38"/>
<polygon fill="#63b8ff" stroke="#63b8ff" points="1184.51,-386.88 1194.51,-383.38 1184.51,-379.88 1184.51,-386.88"/>
</a>
</g>
</g>
<!-- Node17&#45;&gt;Node8 -->
<g id="edge34_Node000017_Node000008" class="edge">
<title>Node17&#45;&gt;Node8</title>
<g id="a_edge34_Node000017_Node000008"><a xlink:title=" ">
<path fill="none" stroke="#63b8ff" d="M1101.62,-278.22C1091.96,-299.75 1076.52,-334.34 1063.5,-364.38 1047.18,-402.01 1048.86,-414.35 1027.5,-449.38 1016.77,-466.97 1000.9,-484.84 990.5,-495.76"/>
<polygon fill="#63b8ff" stroke="#63b8ff" points="1104.69,-279.92 1105.6,-269.36 1098.31,-277.05 1104.69,-279.92"/>
</a>
</g>
</g>
<!-- Node17&#45;&gt;Node9 -->
<g id="edge35_Node000017_Node000009" class="edge">
<title>Node17&#45;&gt;Node9</title>
<g id="a_edge35_Node000017_Node000009"><a xlink:title=" ">
<path fill="none" stroke="#63b8ff" d="M1097.27,-277.34C1081.06,-300.71 1053.06,-340.4 1027.5,-373.38 1014.72,-389.87 999.09,-408.31 989.34,-419.63"/>
<polygon fill="#63b8ff" stroke="#63b8ff" points="1099.98,-279.58 1102.79,-269.36 1094.22,-275.6 1099.98,-279.58"/>
</a>
</g>
</g>
<!-- Node17&#45;&gt;Node12 -->
<g id="edge36_Node000017_Node000012" class="edge">
<title>Node17&#45;&gt;Node12</title>
<g id="a_edge36_Node000017_Node000012"><a xlink:title=" ">
<path fill="none" stroke="#63b8ff" d="M1107.62,-235.44C1100.42,-196.66 1079.72,-116.31 1027.5,-76.38 968.11,-30.96 936.39,-48.38 861.62,-48.38 861.62,-48.38 861.62,-48.38 519.12,-48.38 437.47,-48.38 414.52,-73.4 353.25,-127.38 312.99,-162.84 284.67,-222.24 274.21,-246.53"/>
<polygon fill="#63b8ff" stroke="#63b8ff" points="1104.15,-235.92 1109.29,-245.18 1111.05,-234.74 1104.15,-235.92"/>
</a>
</g>
</g>
<!-- Node18 -->
<g id="Node000018" class="node">
<title>Node18</title>
<g id="a_Node000018"><a xlink:href="app_8c.html#a8170b16890e86fb1c7b7f6b873a1dc48" target="_top" xlink:title=" ">
<polygon fill="white" stroke="#666666" points="894.5,-210.75 826.75,-210.75 826.75,-190 894.5,-190 894.5,-210.75"/>
<text text-anchor="middle" x="860.62" y="-197.25" font-family="Helvetica,sans-Serif" font-size="10.00">w2c__f217</text>
</a>
</g>
</g>
<!-- Node17&#45;&gt;Node18 -->
<g id="edge18_Node000017_Node000018" class="edge">
<title>Node17&#45;&gt;Node18</title>
<g id="a_edge18_Node000017_Node000018"><a xlink:title=" ">
<path fill="none" stroke="#63b8ff" d="M1077.74,-242.17C1062.67,-235.82 1044.47,-228.89 1027.5,-224.38 982.37,-212.37 928.63,-205.98 894.81,-202.89"/>
<polygon fill="#63b8ff" stroke="#63b8ff" points="1076.14,-245.29 1086.7,-246.04 1078.91,-238.86 1076.14,-245.29"/>
</a>
</g>
</g>
<!-- Node20 -->
<g id="Node000020" class="node">
<title>Node20</title>
<g id="a_Node000020"><a xlink:href="app_8c.html#a16207b5f7a97b0ecfddd231452c5aa7e" target="_top" xlink:title=" ">
<polygon fill="white" stroke="#666666" points="554,-171.75 486.25,-171.75 486.25,-151 554,-151 554,-171.75"/>
<text text-anchor="middle" x="520.12" y="-158.25" font-family="Helvetica,sans-Serif" font-size="10.00">w2c__f263</text>
</a>
</g>
</g>
<!-- Node17&#45;&gt;Node20 -->
<g id="edge33_Node000017_Node000020" class="edge">
<title>Node17&#45;&gt;Node20</title>
<g id="a_edge33_Node000017_Node000020"><a xlink:title=" ">
<path fill="none" stroke="#63b8ff" d="M1105.87,-235.6C1096.6,-201.52 1073.59,-136.32 1027.5,-105.38 965.89,-64.01 935.83,-86.38 861.62,-86.38 861.62,-86.38 861.62,-86.38 741.25,-86.38 662.52,-86.38 576.01,-129.89 539.25,-150.63"/>
<polygon fill="#63b8ff" stroke="#63b8ff" points="1102.44,-236.33 1108.31,-245.15 1109.23,-234.6 1102.44,-236.33"/>
</a>
</g>
</g>
<!-- Node25 -->
<g id="Node000025" class="node">
<title>Node25</title>
<g id="a_Node000025"><a xlink:href="app_8c.html#a50ce3678e8b5d9f8d087d7a79773e5ab" target="_top" xlink:title=" ">
<polygon fill="white" stroke="#666666" points="776.12,-324.75 708.38,-324.75 708.38,-304 776.12,-304 776.12,-324.75"/>
<text text-anchor="middle" x="742.25" y="-311.25" font-family="Helvetica,sans-Serif" font-size="10.00">w2c__f444</text>
</a>
</g>
</g>
<!-- Node17&#45;&gt;Node25 -->
<g id="edge40_Node000017_Node000025" class="edge">
<title>Node17&#45;&gt;Node25</title>
<g id="a_edge40_Node000017_Node000025"><a xlink:title=" ">
<path fill="none" stroke="#63b8ff" d="M1066.2,-253.98C1009.17,-251.08 908.25,-250.8 826.75,-276.38 814.74,-280.14 785.75,-293.73 765.31,-303.59"/>
<polygon fill="#63b8ff" stroke="#63b8ff" points="1065.99,-257.47 1076.17,-254.54 1066.38,-250.48 1065.99,-257.47"/>
</a>
</g>
</g>
<!-- Node26 -->
<g id="Node000026" class="node">
<title>Node26</title>
<g id="a_Node000026"><a xlink:href="app_8c.html#af9ed1dc0404f752fd735c5388877dbd0" target="_top" xlink:title=" ">
<polygon fill="white" stroke="#666666" points="1012.88,-286.75 945.12,-286.75 945.12,-266 1012.88,-266 1012.88,-286.75"/>
<text text-anchor="middle" x="979" y="-273.25" font-family="Helvetica,sans-Serif" font-size="10.00">w2c__f378</text>
</a>
</g>
</g>
<!-- Node17&#45;&gt;Node26 -->
<g id="edge37_Node000017_Node000026" class="edge">
<title>Node17&#45;&gt;Node26</title>
<g id="a_edge37_Node000017_Node000026"><a xlink:title=" ">
<path fill="none" stroke="#63b8ff" d="M1066.78,-263.79C1049.21,-266.34 1029.33,-269.22 1013.05,-271.58"/>
<polygon fill="#63b8ff" stroke="#63b8ff" points="1067.05,-267.29 1076.45,-262.39 1066.05,-260.36 1067.05,-267.29"/>
</a>
</g>
</g>
<!-- Node28 -->
<g id="Node000028" class="node">
<title>Node28</title>
<g id="a_Node000028"><a xlink:href="app_8c.html#a1c5f734741936e9f52bc637185dac141" target="_top" xlink:title=" ">
<polygon fill="white" stroke="#666666" points="1012.88,-325.75 945.12,-325.75 945.12,-305 1012.88,-305 1012.88,-325.75"/>
<text text-anchor="middle" x="979" y="-312.25" font-family="Helvetica,sans-Serif" font-size="10.00">w2c__f525</text>
</a>
</g>
</g>
<!-- Node17&#45;&gt;Node28 -->
<g id="edge41_Node000017_Node000028" class="edge">
<title>Node17&#45;&gt;Node28</title>
<g id="a_edge41_Node000017_Node000028"><a xlink:title=" ">
<path fill="none" stroke="#63b8ff" d="M1077.24,-273C1062.08,-279.95 1043.94,-288.18 1027.5,-295.38 1020.62,-298.39 1013.13,-301.58 1006.19,-304.51"/>
<polygon fill="#63b8ff" stroke="#63b8ff" points="1078.69,-276.19 1086.31,-268.83 1075.76,-269.83 1078.69,-276.19"/>
</a>
</g>
</g>
<!-- Node29 -->
<g id="Node000029" class="node">
<title>Node29</title>
<g id="a_Node000029"><a xlink:href="app_8c.html#a871e4f1ebe2d1f3cdbb886d886d42149" target="_top" xlink:title=" ">
<polygon fill="white" stroke="#666666" points="1027.5,-134.75 930.5,-134.75 930.5,-114 1027.5,-114 1027.5,-134.75"/>
<text text-anchor="middle" x="979" y="-121.25" font-family="Helvetica,sans-Serif" font-size="10.00">wrap_w2c__f261</text>
</a>
</g>
</g>
<!-- Node17&#45;&gt;Node29 -->
<g id="edge43_Node000017_Node000029" class="edge">
<title>Node17&#45;&gt;Node29</title>
<g id="a_edge43_Node000017_Node000029"><a xlink:title=" ">
<path fill="none" stroke="#63b8ff" d="M1099.39,-237.12C1085,-213.41 1058.53,-174.11 1027.5,-148.38 1021.24,-143.18 1013.67,-138.73 1006.44,-135.11"/>
<polygon fill="#63b8ff" stroke="#63b8ff" points="1096.25,-238.69 1104.36,-245.51 1102.28,-235.12 1096.25,-238.69"/>
</a>
</g>
</g>
<!-- Node18&#45;&gt;Node12 -->
<g id="edge19_Node000018_Node000012" class="edge">
<title>Node18&#45;&gt;Node12</title>
<g id="a_edge19_Node000018_Node000012"><a xlink:title=" ">
<path fill="none" stroke="#63b8ff" d="M831.15,-216.69C818.99,-223.17 804.46,-230.27 790.75,-235.38 719.58,-261.86 700.82,-276.38 624.88,-276.38 624.88,-276.38 624.88,-276.38 519.12,-276.38 441.4,-276.38 350.45,-267.09 302.77,-261.5"/>
<polygon fill="#63b8ff" stroke="#63b8ff" points="832.72,-219.82 839.82,-211.95 829.36,-213.68 832.72,-219.82"/>
</a>
</g>
</g>
<!-- Node19 -->
<g id="Node000019" class="node">
<title>Node19</title>
<g id="a_Node000019"><a xlink:href="app_8c.html#af343129bd663e00399561d73f0098887" target="_top" xlink:title=" ">
<polygon fill="white" stroke="#666666" points="657.75,-248.75 590,-248.75 590,-228 657.75,-228 657.75,-248.75"/>
<text text-anchor="middle" x="623.88" y="-235.25" font-family="Helvetica,sans-Serif" font-size="10.00">w2c__f372</text>
</a>
</g>
</g>
<!-- Node18&#45;&gt;Node19 -->
<g id="edge20_Node000018_Node000019" class="edge">
<title>Node18&#45;&gt;Node19</title>
<g id="a_edge20_Node000018_Node000019"><a xlink:title=" ">
<path fill="none" stroke="#63b8ff" d="M815.21,-209.79C807.09,-211.4 798.68,-213 790.75,-214.38 744.88,-222.35 691.55,-229.73 658.01,-234.15"/>
<polygon fill="#63b8ff" stroke="#63b8ff" points="815.83,-213.24 824.93,-207.82 814.44,-206.37 815.83,-213.24"/>
</a>
</g>
</g>
<!-- Node23 -->
<g id="Node000023" class="node">
<title>Node23</title>
<g id="a_Node000023"><a xlink:href="app_8c.html#a4e0e8b8ddb7852b111d530fef11aca0b" target="_top" xlink:title=" ">
<polygon fill="white" stroke="#666666" points="435.62,-210.75 367.88,-210.75 367.88,-190 435.62,-190 435.62,-210.75"/>
<text text-anchor="middle" x="401.75" y="-197.25" font-family="Helvetica,sans-Serif" font-size="10.00">w2c__f434</text>
</a>
</g>
</g>
<!-- Node18&#45;&gt;Node23 -->
<g id="edge29_Node000018_Node000023" class="edge">
<title>Node18&#45;&gt;Node23</title>
<g id="a_edge29_Node000018_Node000023"><a xlink:title=" ">
<path fill="none" stroke="#63b8ff" d="M815.06,-200.38C723.61,-200.38 516.57,-200.38 435.85,-200.38"/>
<polygon fill="#63b8ff" stroke="#63b8ff" points="814.89,-203.88 824.89,-200.38 814.89,-196.88 814.89,-203.88"/>
</a>
</g>
</g>
<!-- Node18&#45;&gt;Node25 -->
<g id="edge30_Node000018_Node000025" class="edge">
<title>Node18&#45;&gt;Node25</title>
<g id="a_edge30_Node000018_Node000025"><a xlink:title=" ">
<path fill="none" stroke="#63b8ff" d="M833.07,-218.1C830.81,-220.09 828.67,-222.19 826.75,-224.38 804.72,-249.5 814.75,-267.12 790.75,-290.38 785.18,-295.78 778.15,-300.22 771.22,-303.75"/>
<polygon fill="#63b8ff" stroke="#63b8ff" points="835.16,-220.91 840.86,-211.98 830.84,-215.4 835.16,-220.91"/>
</a>
</g>
</g>
<!-- Node19&#45;&gt;Node12 -->
<g id="edge28_Node000019_Node000012" class="edge">
<title>Node19&#45;&gt;Node12</title>
<g id="a_edge28_Node000019_Node000012"><a xlink:title=" ">
<path fill="none" stroke="#63b8ff" d="M578.31,-240.77C506.46,-244.64 366.65,-252.16 302.88,-255.59"/>
<polygon fill="#63b8ff" stroke="#63b8ff" points="578.35,-244.28 588.14,-240.24 577.97,-237.29 578.35,-244.28"/>
</a>
</g>
</g>
<!-- Node19&#45;&gt;Node20 -->
<g id="edge21_Node000019_Node000020" class="edge">
<title>Node19&#45;&gt;Node20</title>
<g id="a_edge21_Node000019_Node000020"><a xlink:title=" ">
<path fill="none" stroke="#63b8ff" d="M599.76,-220.88C580,-205.93 552.19,-184.88 535.48,-172.24"/>
<polygon fill="#63b8ff" stroke="#63b8ff" points="597.43,-223.51 607.52,-226.76 601.66,-217.93 597.43,-223.51"/>
</a>
</g>
</g>
<!-- Node20&#45;&gt;Node12 -->
<g id="edge24_Node000020_Node000012" class="edge">
<title>Node20&#45;&gt;Node12</title>
<g id="a_edge24_Node000020_Node000012"><a xlink:title=" ">
<path fill="none" stroke="#63b8ff" d="M484.18,-146.52C449.15,-134.03 394.61,-121.29 353.25,-142.38 309.07,-164.9 282.79,-222.95 273.54,-246.85"/>
<polygon fill="#63b8ff" stroke="#63b8ff" points="482.82,-149.74 493.41,-149.99 485.28,-143.19 482.82,-149.74"/>
</a>
</g>
</g>
<!-- Node21 -->
<g id="Node000021" class="node">
<title>Node21</title>
<g id="a_Node000021"><a xlink:href="app_8c.html#aabc3b06c7f7daa21796552c728f0379b" target="_top" xlink:title=" ">
<polygon fill="white" stroke="#666666" points="435.62,-20.75 367.88,-20.75 367.88,0 435.62,0 435.62,-20.75"/>
<text text-anchor="middle" x="401.75" y="-7.25" font-family="Helvetica,sans-Serif" font-size="10.00">w2c__f270</text>
</a>
</g>
</g>
<!-- Node20&#45;&gt;Node21 -->
<g id="edge22_Node000020_Node000021" class="edge">
<title>Node20&#45;&gt;Node21</title>
<g id="a_edge22_Node000020_Node000021"><a xlink:title=" ">
<path fill="none" stroke="#63b8ff" d="M503.84,-141.54C478.94,-109.23 430.43,-46.29 411.04,-21.14"/>
<polygon fill="#63b8ff" stroke="#63b8ff" points="500.96,-143.53 509.83,-149.32 506.5,-139.26 500.96,-143.53"/>
</a>
</g>
</g>
<!-- Node20&#45;&gt;Node23 -->
<g id="edge25_Node000020_Node000023" class="edge">
<title>Node20&#45;&gt;Node23</title>
<g id="a_edge25_Node000020_Node000023"><a xlink:title=" ">
<path fill="none" stroke="#63b8ff" d="M476.11,-175.79C462.51,-180.35 447.71,-185.31 434.99,-189.57"/>
<polygon fill="#63b8ff" stroke="#63b8ff" points="476.9,-179.22 485.27,-172.72 474.68,-172.58 476.9,-179.22"/>
</a>
</g>
</g>
<!-- Node24 -->
<g id="Node000024" class="node">
<title>Node24</title>
<g id="a_Node000024"><a xlink:href="app_8c.html#a424e6fc7189fa7a8a66b06480239043b" target="_top" xlink:title=" ">
<polygon fill="white" stroke="#666666" points="450.25,-171.75 353.25,-171.75 353.25,-151 450.25,-151 450.25,-171.75"/>
<text text-anchor="middle" x="401.75" y="-158.25" font-family="Helvetica,sans-Serif" font-size="10.00">wrap_w2c__f263</text>
</a>
</g>
</g>
<!-- Node20&#45;&gt;Node24 -->
<g id="edge27_Node000020_Node000024" class="edge">
<title>Node20&#45;&gt;Node24</title>
<g id="a_edge27_Node000020_Node000024"><a xlink:title=" ">
<path fill="none" stroke="#63b8ff" d="M474.53,-161.38C466.64,-161.38 458.39,-161.38 450.41,-161.38"/>
<polygon fill="#63b8ff" stroke="#63b8ff" points="474.26,-164.88 484.26,-161.38 474.26,-157.88 474.26,-164.88"/>
</a>
</g>
</g>
<!-- Node22 -->
<g id="Node000022" class="node">
<title>Node22</title>
<g id="a_Node000022"><a xlink:href="app_8c.html#a54f194530158831aa826ddabfd869e3f" target="_top" xlink:title=" ">
<polygon fill="white" stroke="#666666" points="317.25,-20.75 220.25,-20.75 220.25,0 317.25,0 317.25,-20.75"/>
<text text-anchor="middle" x="268.75" y="-7.25" font-family="Helvetica,sans-Serif" font-size="10.00">wrap_w2c__f270</text>
</a>
</g>
</g>
<!-- Node21&#45;&gt;Node22 -->
<g id="edge23_Node000021_Node000022" class="edge">
<title>Node21&#45;&gt;Node22</title>
<g id="a_edge23_Node000021_Node000022"><a xlink:title=" ">
<path fill="none" stroke="#63b8ff" d="M356.2,-10.38C343.78,-10.38 330.25,-10.38 317.65,-10.38"/>
<polygon fill="#63b8ff" stroke="#63b8ff" points="356.18,-13.88 366.18,-10.38 356.18,-6.88 356.18,-13.88"/>
</a>
</g>
</g>
<!-- Node23&#45;&gt;Node12 -->
<g id="edge26_Node000023_Node000012" class="edge">
<title>Node23&#45;&gt;Node12</title>
<g id="a_edge26_Node000023_Node000012"><a xlink:title=" ">
<path fill="none" stroke="#63b8ff" d="M365.36,-215.77C342.98,-225.51 314.61,-237.86 294.61,-246.56"/>
<polygon fill="#63b8ff" stroke="#63b8ff" points="366.64,-219.03 374.41,-211.83 363.85,-212.61 366.64,-219.03"/>
</a>
</g>
</g>
<!-- Node25&#45;&gt;Node19 -->
<g id="edge31_Node000025_Node000019" class="edge">
<title>Node25&#45;&gt;Node19</title>
<g id="a_edge31_Node000025_Node000019"><a xlink:title=" ">
<path fill="none" stroke="#63b8ff" d="M715.73,-297.71C693.08,-282.92 660.66,-261.75 641.29,-249.1"/>
<polygon fill="#63b8ff" stroke="#63b8ff" points="713.51,-300.44 723.8,-302.98 717.34,-294.58 713.51,-300.44"/>
</a>
</g>
</g>
<!-- Node25&#45;&gt;Node25 -->
<g id="edge32_Node000025_Node000025" class="edge">
<title>Node25&#45;&gt;Node25</title>
<g id="a_edge32_Node000025_Node000025"><a xlink:title=" ">
<path fill="none" stroke="#63b8ff" d="M763.08,-336.24C760.32,-340.08 753.38,-342.75 742.25,-342.75 721.9,-342.75 715.55,-333.81 723.18,-325.15"/>
<polygon fill="#63b8ff" stroke="#63b8ff" points="766.58,-335.97 761.56,-326.64 759.67,-337.07 766.58,-335.97"/>
</a>
</g>
</g>
<!-- Node27 -->
<g id="Node000027" class="node">
<title>Node27</title>
<g id="a_Node000027"><a xlink:href="app_8c.html#ae71f0c203d672594503da106c578e2c1" target="_top" xlink:title=" ">
<polygon fill="white" stroke="#666666" points="894.5,-305.75 826.75,-305.75 826.75,-285 894.5,-285 894.5,-305.75"/>
<text text-anchor="middle" x="860.62" y="-292.25" font-family="Helvetica,sans-Serif" font-size="10.00">w2c__f313</text>
</a>
</g>
</g>
<!-- Node26&#45;&gt;Node27 -->
<g id="edge38_Node000026_Node000027" class="edge">
<title>Node26&#45;&gt;Node27</title>
<g id="a_edge38_Node000026_Node000027"><a xlink:title=" ">
<path fill="none" stroke="#63b8ff" d="M933.68,-283.61C920.83,-285.71 907.03,-287.96 894.98,-289.93"/>
<polygon fill="#63b8ff" stroke="#63b8ff" points="933.85,-287.13 943.16,-282.06 932.72,-280.22 933.85,-287.13"/>
</a>
</g>
</g>
<!-- Node27&#45;&gt;Node25 -->
<g id="edge39_Node000027_Node000025" class="edge">
<title>Node27&#45;&gt;Node25</title>
<g id="a_edge39_Node000027_Node000025"><a xlink:title=" ">
<path fill="none" stroke="#63b8ff" d="M815.3,-302.61C802.46,-304.71 788.66,-306.96 776.6,-308.93"/>
<polygon fill="#63b8ff" stroke="#63b8ff" points="815.48,-306.13 824.78,-301.06 814.35,-299.22 815.48,-306.13"/>
</a>
</g>
</g>
<!-- Node28&#45;&gt;Node12 -->
<g id="edge42_Node000028_Node000012" class="edge">
<title>Node28&#45;&gt;Node12</title>
<g id="a_edge42_Node000028_Node000012"><a xlink:title=" ">
<path fill="none" stroke="#63b8ff" d="M941.45,-330.48C885.91,-352.91 782.56,-392.38 743.25,-392.38 743.25,-392.38 743.25,-392.38 519.12,-392.38 414.75,-392.38 312.23,-299.79 280.07,-267.97"/>
<polygon fill="#63b8ff" stroke="#63b8ff" points="942.54,-333.82 950.49,-326.81 939.9,-327.33 942.54,-333.82"/>
</a>
</g>
</g>
<!-- Node30&#45;&gt;Node8 -->
<g id="edge46_Node000030_Node000008" class="edge">
<title>Node30&#45;&gt;Node8</title>
<g id="a_edge46_Node000030_Node000008"><a xlink:title=" ">
<path fill="none" stroke="#63b8ff" d="M1097.65,-403.63C1082.6,-425.25 1056.45,-459.49 1027.5,-482.38 1020.98,-487.53 1013.17,-492.03 1005.79,-495.69"/>
<polygon fill="#63b8ff" stroke="#63b8ff" points="1100.52,-405.62 1103.25,-395.38 1094.73,-401.68 1100.52,-405.62"/>
</a>
</g>
</g>
<!-- Node30&#45;&gt;Node9 -->
<g id="edge47_Node000030_Node000009" class="edge">
<title>Node30&#45;&gt;Node9</title>
<g id="a_edge47_Node000030_Node000009"><a xlink:title=" ">
<path fill="none" stroke="#63b8ff" d="M1070.22,-398.01C1050.71,-405 1027.78,-413.23 1009.91,-419.64"/>
<polygon fill="#63b8ff" stroke="#63b8ff" points="1071.29,-401.34 1079.52,-394.67 1068.93,-394.75 1071.29,-401.34"/>
</a>
</g>
</g>
<!-- Node30&#45;&gt;Node12 -->
<g id="edge48_Node000030_Node000012" class="edge">
<title>Node30&#45;&gt;Node12</title>
<g id="a_edge48_Node000030_Node000012"><a xlink:title=" ">
<path fill="none" stroke="#63b8ff" d="M1093.67,-401.94C1077.99,-417.44 1053.44,-438.67 1027.5,-449.38 958.91,-477.69 935.83,-468.38 861.62,-468.38 861.62,-468.38 861.62,-468.38 519.12,-468.38 393.79,-468.38 299.01,-311.13 275.43,-268.13"/>
<polygon fill="#63b8ff" stroke="#63b8ff" points="1095.87,-404.69 1100.36,-395.1 1090.87,-399.8 1095.87,-404.69"/>
</a>
</g>
</g>
<!-- Node30&#45;&gt;Node20 -->
<g id="edge45_Node000030_Node000020" class="edge">
<title>Node30&#45;&gt;Node20</title>
<g id="a_edge45_Node000030_Node000020"><a xlink:title=" ">
<path fill="none" stroke="#63b8ff" d="M1100.55,-362.74C1071.11,-307.84 981.77,-162.38 861.62,-162.38 861.62,-162.38 861.62,-162.38 741.25,-162.38 674.94,-162.38 597.41,-161.92 554.32,-161.62"/>
<polygon fill="#63b8ff" stroke="#63b8ff" points="1097.33,-364.14 1105.07,-371.37 1103.53,-360.89 1097.33,-364.14"/>
</a>
</g>
</g>
<!-- Node30&#45;&gt;Node25 -->
<g id="edge50_Node000030_Node000025" class="edge">
<title>Node30&#45;&gt;Node25</title>
<g id="a_edge50_Node000030_Node000025"><a xlink:title=" ">
<path fill="none" stroke="#63b8ff" d="M1066.45,-383.99C1029.7,-383.76 976.33,-381.73 930.5,-373.38 871.82,-362.68 805.86,-339.04 770,-325.14"/>
<polygon fill="#63b8ff" stroke="#63b8ff" points="1066.25,-387.49 1076.26,-384 1066.26,-380.49 1066.25,-387.49"/>
</a>
</g>
</g>
<!-- Node30&#45;&gt;Node26 -->
<g id="edge49_Node000030_Node000026" class="edge">
<title>Node30&#45;&gt;Node26</title>
<g id="a_edge49_Node000030_Node000026"><a xlink:title=" ">
<path fill="none" stroke="#63b8ff" d="M1096.22,-363.84C1080.81,-344.58 1055.1,-315.35 1027.5,-296.38 1022.41,-292.88 1016.62,-289.81 1010.86,-287.2"/>
<polygon fill="#63b8ff" stroke="#63b8ff" points="1093.26,-365.74 1102.17,-371.46 1098.77,-361.43 1093.26,-365.74"/>
</a>
</g>
</g>
<!-- Node30&#45;&gt;Node28 -->
<g id="edge51_Node000030_Node000028" class="edge">
<title>Node30&#45;&gt;Node28</title>
<g id="a_edge51_Node000030_Node000028"><a xlink:title=" ">
<path fill="none" stroke="#63b8ff" d="M1083.93,-366.68C1067.81,-357.03 1046.8,-344.94 1027.5,-335.38 1021.09,-332.2 1014.04,-329.05 1007.39,-326.23"/>
<polygon fill="#63b8ff" stroke="#63b8ff" points="1082.09,-369.66 1092.45,-371.84 1085.71,-363.67 1082.09,-369.66"/>
</a>
</g>
</g>
<!-- Node31 -->
<g id="Node000031" class="node">
<title>Node31</title>
<g id="a_Node000031"><a xlink:href="app_8c.html#a0b594b333852d9c8846ff72bf9bf5915" target="_top" xlink:title=" ">
<polygon fill="white" stroke="#666666" points="1027.5,-364.75 930.5,-364.75 930.5,-344 1027.5,-344 1027.5,-364.75"/>
<text text-anchor="middle" x="979" y="-351.25" font-family="Helvetica,sans-Serif" font-size="10.00">wrap_w2c__f530</text>
</a>
</g>
</g>
<!-- Node30&#45;&gt;Node31 -->
<g id="edge52_Node000030_Node000031" class="edge">
<title>Node30&#45;&gt;Node31</title>
<g id="a_edge52_Node000030_Node000031"><a xlink:title=" ">
<path fill="none" stroke="#63b8ff" d="M1066.83,-373.6C1054.31,-370.83 1040.63,-367.8 1027.9,-364.98"/>
<polygon fill="#63b8ff" stroke="#63b8ff" points="1065.95,-376.99 1076.47,-375.73 1067.46,-370.15 1065.95,-376.99"/>
</a>
</g>
</g>
<!-- Node32&#45;&gt;Node5 -->
<g id="edge55_Node000032_Node000005" class="edge">
<title>Node32&#45;&gt;Node5</title>
<g id="a_edge55_Node000032_Node000005"><a xlink:title=" ">
<path fill="none" stroke="#63b8ff" d="M1185.44,-759.41C1172.49,-755.29 1158.53,-750.85 1146.35,-746.98"/>
<polygon fill="#63b8ff" stroke="#63b8ff" points="1183.99,-762.62 1194.58,-762.31 1186.11,-755.95 1183.99,-762.62"/>
</a>
</g>
</g>
<!-- Node33&#45;&gt;Node5 -->
<g id="edge57_Node000033_Node000005" class="edge">
<title>Node33&#45;&gt;Node5</title>
<g id="a_edge57_Node000033_Node000005"><a xlink:title=" ">
<path fill="none" stroke="#63b8ff" d="M1200.45,-675.35C1199.09,-676.34 1197.77,-677.35 1196.5,-678.38 1178.4,-692.99 1179.63,-703.13 1160.5,-716.38 1155.42,-719.89 1149.63,-722.96 1143.88,-725.58"/>
<polygon fill="#63b8ff" stroke="#63b8ff" points="1202.05,-678.49 1208.42,-670.03 1198.16,-672.67 1202.05,-678.49"/>
</a>
</g>
</g>
<!-- Node34 -->
<g id="Node000034" class="node">
<title>Node34</title>
<g id="a_Node000034"><a xlink:href="app_8c.html#adc0b425fa65493482058a086393089b5" target="_top" xlink:title=" ">
<polygon fill="white" stroke="#666666" points="1160.5,-668.75 1063.5,-668.75 1063.5,-648 1160.5,-648 1160.5,-668.75"/>
<text text-anchor="middle" x="1112" y="-655.25" font-family="Helvetica,sans-Serif" font-size="10.00">wrap_w2c__f495</text>
</a>
</g>
</g>
<!-- Node33&#45;&gt;Node34 -->
<g id="edge58_Node000033_Node000034" class="edge">
<title>Node33&#45;&gt;Node34</title>
<g id="a_edge58_Node000033_Node000034"><a xlink:title=" ">
<path fill="none" stroke="#63b8ff" d="M1184.78,-658.38C1176.89,-658.38 1168.64,-658.38 1160.66,-658.38"/>
<polygon fill="#63b8ff" stroke="#63b8ff" points="1184.51,-661.88 1194.51,-658.38 1184.51,-654.88 1184.51,-661.88"/>
</a>
</g>
</g>
</g>
</svg>
