<?xml version="1.0" encoding="UTF-8" standalone="no"?>
<!DOCTYPE svg PUBLIC "-//W3C//DTD SVG 1.1//EN"
 "http://www.w3.org/Graphics/SVG/1.1/DTD/svg11.dtd">
<!-- Generated by graphviz version 12.2.1 (0)
 -->
<!-- Title: w2c__f281 Pages: 1 -->
<svg width="741pt" height="669pt"
 viewBox="0.00 0.00 740.75 668.75" xmlns="http://www.w3.org/2000/svg" xmlns:xlink="http://www.w3.org/1999/xlink">
<g id="graph0" class="graph" transform="scale(1 1) rotate(0) translate(4 664.75)">
<title>w2c__f281</title>
<!-- Node1 -->
<g id="Node000001" class="node">
<title>Node1</title>
<g id="a_Node000001"><a xlink:title=" ">
<polygon fill="#999999" stroke="#666666" points="732.75,-275.75 665,-275.75 665,-255 732.75,-255 732.75,-275.75"/>
<text text-anchor="middle" x="698.88" y="-262.25" font-family="Helvetica,sans-Serif" font-size="10.00">w2c__f281</text>
</a>
</g>
</g>
<!-- Node2 -->
<g id="Node000002" class="node">
<title>Node2</title>
<g id="a_Node000002"><a xlink:href="app_8c.html#a5a0d1cd445d6077fbe4477c0f417eeaf" target="_top" xlink:title=" ">
<polygon fill="white" stroke="#666666" points="614.38,-582.75 546.62,-582.75 546.62,-562 614.38,-562 614.38,-582.75"/>
<text text-anchor="middle" x="580.5" y="-569.25" font-family="Helvetica,sans-Serif" font-size="10.00">w2c__f275</text>
</a>
</g>
</g>
<!-- Node1&#45;&gt;Node2 -->
<g id="edge1_Node000001_Node000002" class="edge">
<title>Node1&#45;&gt;Node2</title>
<g id="a_edge1_Node000001_Node000002"><a xlink:title=" ">
<path fill="none" stroke="#63b8ff" d="M689.91,-286.39C667.18,-346.36 602.55,-516.83 585.61,-561.53"/>
<polygon fill="#63b8ff" stroke="#63b8ff" points="693.06,-287.95 693.33,-277.36 686.52,-285.47 693.06,-287.95"/>
</a>
</g>
</g>
<!-- Node10 -->
<g id="Node000010" class="node">
<title>Node10</title>
<g id="a_Node000010"><a xlink:href="app_8c.html#a5677ffd129da8cd63b876545b8187d77" target="_top" xlink:title=" ">
<polygon fill="white" stroke="#666666" points="348.38,-293.75 280.62,-293.75 280.62,-273 348.38,-273 348.38,-293.75"/>
<text text-anchor="middle" x="314.5" y="-280.25" font-family="Helvetica,sans-Serif" font-size="10.00">w2c__f367</text>
</a>
</g>
</g>
<!-- Node1&#45;&gt;Node10 -->
<g id="edge9_Node000001_Node000010" class="edge">
<title>Node1&#45;&gt;Node10</title>
<g id="a_edge9_Node000001_Node000010"><a xlink:title=" ">
<path fill="none" stroke="#63b8ff" d="M653.59,-264.38C620.16,-263.87 573.18,-263.67 532,-265.38 467,-268.07 391.29,-275.31 348.83,-279.74"/>
<polygon fill="#63b8ff" stroke="#63b8ff" points="653.24,-267.87 663.3,-264.54 653.36,-260.87 653.24,-267.87"/>
</a>
</g>
</g>
<!-- Node14 -->
<g id="Node000014" class="node">
<title>Node14</title>
<g id="a_Node000014"><a xlink:href="app_8c.html#a4fd0a4cb4b78f7e4a76d64b8921bc5dc" target="_top" xlink:title=" ">
<polygon fill="white" stroke="#666666" points="614.38,-294.75 546.62,-294.75 546.62,-274 614.38,-274 614.38,-294.75"/>
<text text-anchor="middle" x="580.5" y="-281.25" font-family="Helvetica,sans-Serif" font-size="10.00">w2c__f574</text>
</a>
</g>
</g>
<!-- Node1&#45;&gt;Node14 -->
<g id="edge13_Node000001_Node000014" class="edge">
<title>Node1&#45;&gt;Node14</title>
<g id="a_edge13_Node000001_Node000014"><a xlink:title=" ">
<path fill="none" stroke="#63b8ff" d="M653.55,-272.61C640.71,-274.71 626.91,-276.96 614.85,-278.93"/>
<polygon fill="#63b8ff" stroke="#63b8ff" points="653.73,-276.13 663.03,-271.06 652.6,-269.22 653.73,-276.13"/>
</a>
</g>
</g>
<!-- Node43 -->
<g id="Node000043" class="node">
<title>Node43</title>
<g id="a_Node000043"><a xlink:href="app_8c.html#ae05c0daccaf9e56889f5c463a0b0a9e9" target="_top" xlink:title=" ">
<polygon fill="white" stroke="#666666" points="629,-218.75 532,-218.75 532,-198 629,-198 629,-218.75"/>
<text text-anchor="middle" x="580.5" y="-205.25" font-family="Helvetica,sans-Serif" font-size="10.00">wrap_w2c__f281</text>
</a>
</g>
</g>
<!-- Node1&#45;&gt;Node43 -->
<g id="edge52_Node000001_Node000043" class="edge">
<title>Node1&#45;&gt;Node43</title>
<g id="a_edge52_Node000001_Node000043"><a xlink:title=" ">
<path fill="none" stroke="#63b8ff" d="M665.62,-249.58C645.87,-239.9 621.11,-227.78 603.58,-219.19"/>
<polygon fill="#63b8ff" stroke="#63b8ff" points="663.83,-252.6 674.35,-253.85 666.91,-246.31 663.83,-252.6"/>
</a>
</g>
</g>
<!-- Node3 -->
<g id="Node000003" class="node">
<title>Node3</title>
<g id="a_Node000003"><a xlink:href="app_8c.html#a29ede891bbfd531ec972fd15b30ced81" target="_top" xlink:title=" ">
<polygon fill="white" stroke="#666666" points="481.38,-543.75 413.62,-543.75 413.62,-523 481.38,-523 481.38,-543.75"/>
<text text-anchor="middle" x="447.5" y="-530.25" font-family="Helvetica,sans-Serif" font-size="10.00">w2c__f240</text>
</a>
</g>
</g>
<!-- Node2&#45;&gt;Node3 -->
<g id="edge2_Node000002_Node000003" class="edge">
<title>Node2&#45;&gt;Node3</title>
<g id="a_edge2_Node000002_Node000003"><a xlink:title=" ">
<path fill="none" stroke="#63b8ff" d="M535.54,-559.29C517.9,-554.03 497.91,-548.09 481.55,-543.21"/>
<polygon fill="#63b8ff" stroke="#63b8ff" points="534.41,-562.6 544.99,-562.1 536.41,-555.89 534.41,-562.6"/>
</a>
</g>
</g>
<!-- Node5 -->
<g id="Node000005" class="node">
<title>Node5</title>
<g id="a_Node000005"><a xlink:href="app_8c.html#af16d7d2242e69c7e58a9da608c6b99a7" target="_top" xlink:title=" ">
<polygon fill="white" stroke="#666666" points="481.38,-660.75 413.62,-660.75 413.62,-640 481.38,-640 481.38,-660.75"/>
<text text-anchor="middle" x="447.5" y="-647.25" font-family="Helvetica,sans-Serif" font-size="10.00">w2c__f541</text>
</a>
</g>
</g>
<!-- Node2&#45;&gt;Node5 -->
<g id="edge4_Node000002_Node000005" class="edge">
<title>Node2&#45;&gt;Node5</title>
<g id="a_edge4_Node000002_Node000005"><a xlink:title=" ">
<path fill="none" stroke="#63b8ff" d="M557.09,-589.86C540.74,-602.14 517.72,-618.43 496,-630.38 489.96,-633.7 483.26,-636.83 476.84,-639.58"/>
<polygon fill="#63b8ff" stroke="#63b8ff" points="558.85,-592.92 564.69,-584.08 554.61,-587.35 558.85,-592.92"/>
</a>
</g>
</g>
<!-- Node7 -->
<g id="Node000007" class="node">
<title>Node7</title>
<g id="a_Node000007"><a xlink:href="app_8c.html#ad7a697348c658220d234ccfc02168d02" target="_top" xlink:title=" ">
<polygon fill="white" stroke="#666666" points="481.38,-582.75 413.62,-582.75 413.62,-562 481.38,-562 481.38,-582.75"/>
<text text-anchor="middle" x="447.5" y="-569.25" font-family="Helvetica,sans-Serif" font-size="10.00">w2c__f581</text>
</a>
</g>
</g>
<!-- Node2&#45;&gt;Node7 -->
<g id="edge6_Node000002_Node000007" class="edge">
<title>Node2&#45;&gt;Node7</title>
<g id="a_edge6_Node000002_Node000007"><a xlink:title=" ">
<path fill="none" stroke="#63b8ff" d="M535.03,-572.38C517.52,-572.38 497.76,-572.38 481.55,-572.38"/>
<polygon fill="#63b8ff" stroke="#63b8ff" points="534.93,-575.88 544.93,-572.38 534.93,-568.88 534.93,-575.88"/>
</a>
</g>
</g>
<!-- Node9 -->
<g id="Node000009" class="node">
<title>Node9</title>
<g id="a_Node000009"><a xlink:href="app_8c.html#a065ce225fe25455210379bd1aaff1bd9" target="_top" xlink:title=" ">
<polygon fill="white" stroke="#666666" points="496,-621.75 399,-621.75 399,-601 496,-601 496,-621.75"/>
<text text-anchor="middle" x="447.5" y="-608.25" font-family="Helvetica,sans-Serif" font-size="10.00">wrap_w2c__f275</text>
</a>
</g>
</g>
<!-- Node2&#45;&gt;Node9 -->
<g id="edge8_Node000002_Node000009" class="edge">
<title>Node2&#45;&gt;Node9</title>
<g id="a_edge8_Node000002_Node000009"><a xlink:title=" ">
<path fill="none" stroke="#63b8ff" d="M535.43,-585.5C518.96,-590.4 500.46,-595.91 484.77,-600.58"/>
<polygon fill="#63b8ff" stroke="#63b8ff" points="536.41,-588.86 544.99,-582.65 534.41,-582.15 536.41,-588.86"/>
</a>
</g>
</g>
<!-- Node4 -->
<g id="Node000004" class="node">
<title>Node4</title>
<g id="a_Node000004"><a xlink:href="app_8c.html#a438f33f7d1181479b41929e335200724" target="_top" xlink:title=" ">
<polygon fill="white" stroke="#666666" points="363,-543.75 266,-543.75 266,-523 363,-523 363,-543.75"/>
<text text-anchor="middle" x="314.5" y="-530.25" font-family="Helvetica,sans-Serif" font-size="10.00">wrap_w2c__f240</text>
</a>
</g>
</g>
<!-- Node3&#45;&gt;Node4 -->
<g id="edge3_Node000003_Node000004" class="edge">
<title>Node3&#45;&gt;Node4</title>
<g id="a_edge3_Node000003_Node000004"><a xlink:title=" ">
<path fill="none" stroke="#63b8ff" d="M401.95,-533.38C389.53,-533.38 376,-533.38 363.4,-533.38"/>
<polygon fill="#63b8ff" stroke="#63b8ff" points="401.93,-536.88 411.93,-533.38 401.93,-529.88 401.93,-536.88"/>
</a>
</g>
</g>
<!-- Node6 -->
<g id="Node000006" class="node">
<title>Node6</title>
<g id="a_Node000006"><a xlink:href="app_8c.html#a98fd23db1c1cb69a8c078eccb9adaf0c" target="_top" xlink:title=" ">
<polygon fill="white" stroke="#666666" points="363,-660.75 266,-660.75 266,-640 363,-640 363,-660.75"/>
<text text-anchor="middle" x="314.5" y="-647.25" font-family="Helvetica,sans-Serif" font-size="10.00">wrap_w2c__f541</text>
</a>
</g>
</g>
<!-- Node5&#45;&gt;Node6 -->
<g id="edge5_Node000005_Node000006" class="edge">
<title>Node5&#45;&gt;Node6</title>
<g id="a_edge5_Node000005_Node000006"><a xlink:title=" ">
<path fill="none" stroke="#63b8ff" d="M401.95,-650.38C389.53,-650.38 376,-650.38 363.4,-650.38"/>
<polygon fill="#63b8ff" stroke="#63b8ff" points="401.93,-653.88 411.93,-650.38 401.93,-646.88 401.93,-653.88"/>
</a>
</g>
</g>
<!-- Node8 -->
<g id="Node000008" class="node">
<title>Node8</title>
<g id="a_Node000008"><a xlink:href="app_8c.html#a54dfeaa8d0689415b63bb001141331b4" target="_top" xlink:title=" ">
<polygon fill="white" stroke="#666666" points="363,-582.75 266,-582.75 266,-562 363,-562 363,-582.75"/>
<text text-anchor="middle" x="314.5" y="-569.25" font-family="Helvetica,sans-Serif" font-size="10.00">wrap_w2c__f581</text>
</a>
</g>
</g>
<!-- Node7&#45;&gt;Node8 -->
<g id="edge7_Node000007_Node000008" class="edge">
<title>Node7&#45;&gt;Node8</title>
<g id="a_edge7_Node000007_Node000008"><a xlink:title=" ">
<path fill="none" stroke="#63b8ff" d="M401.95,-572.38C389.53,-572.38 376,-572.38 363.4,-572.38"/>
<polygon fill="#63b8ff" stroke="#63b8ff" points="401.93,-575.88 411.93,-572.38 401.93,-568.88 401.93,-575.88"/>
</a>
</g>
</g>
<!-- Node11 -->
<g id="Node000011" class="node">
<title>Node11</title>
<g id="a_Node000011"><a xlink:href="app_8c.html#ac863989691d4c389f80374209c220171" target="_top" xlink:title=" ">
<polygon fill="white" stroke="#666666" points="212.75,-311.75 150.25,-311.75 150.25,-291 212.75,-291 212.75,-311.75"/>
<text text-anchor="middle" x="181.5" y="-298.25" font-family="Helvetica,sans-Serif" font-size="10.00">w2c__c_0</text>
</a>
</g>
</g>
<!-- Node10&#45;&gt;Node11 -->
<g id="edge10_Node000010_Node000011" class="edge">
<title>Node10&#45;&gt;Node11</title>
<g id="a_edge10_Node000010_Node000011"><a xlink:title=" ">
<path fill="none" stroke="#63b8ff" d="M269.28,-289.45C250.72,-292 229.61,-294.9 212.85,-297.2"/>
<polygon fill="#63b8ff" stroke="#63b8ff" points="269.51,-292.95 278.94,-288.12 268.56,-286.02 269.51,-292.95"/>
</a>
</g>
</g>
<!-- Node13 -->
<g id="Node000013" class="node">
<title>Node13</title>
<g id="a_Node000013"><a xlink:href="app_8c.html#a8f64ccad6c506a1ca514ba4f43e5211c" target="_top" xlink:title=" ">
<polygon fill="white" stroke="#666666" points="230,-272.75 133,-272.75 133,-252 230,-252 230,-272.75"/>
<text text-anchor="middle" x="181.5" y="-259.25" font-family="Helvetica,sans-Serif" font-size="10.00">wrap_w2c__f367</text>
</a>
</g>
</g>
<!-- Node10&#45;&gt;Node13 -->
<g id="edge12_Node000010_Node000013" class="edge">
<title>Node10&#45;&gt;Node13</title>
<g id="a_edge12_Node000010_Node000013"><a xlink:title=" ">
<path fill="none" stroke="#63b8ff" d="M269.33,-276.29C256.81,-274.29 243.13,-272.09 230.4,-270.05"/>
<polygon fill="#63b8ff" stroke="#63b8ff" points="268.52,-279.71 278.95,-277.84 269.63,-272.8 268.52,-279.71"/>
</a>
</g>
</g>
<!-- Node12 -->
<g id="Node000012" class="node">
<title>Node12</title>
<g id="a_Node000012"><a xlink:href="app_8c.html#ab1e039392ea68017ab8a6063263b147d" target="_top" xlink:title=" ">
<polygon fill="white" stroke="#666666" points="74.12,-311.75 22.88,-311.75 22.88,-291 74.12,-291 74.12,-311.75"/>
<text text-anchor="middle" x="48.5" y="-298.25" font-family="Helvetica,sans-Serif" font-size="10.00">w2c__c</text>
</a>
</g>
</g>
<!-- Node11&#45;&gt;Node12 -->
<g id="edge11_Node000011_Node000012" class="edge">
<title>Node11&#45;&gt;Node12</title>
<g id="a_edge11_Node000011_Node000012"><a xlink:title=" ">
<path fill="none" stroke="#63b8ff" d="M138.49,-301.38C117.33,-301.38 92.4,-301.38 74.32,-301.38"/>
<polygon fill="#63b8ff" stroke="#63b8ff" points="138.27,-304.88 148.27,-301.38 138.27,-297.88 138.27,-304.88"/>
</a>
</g>
</g>
<!-- Node14&#45;&gt;Node3 -->
<g id="edge21_Node000014_Node000003" class="edge">
<title>Node14&#45;&gt;Node3</title>
<g id="a_edge21_Node000014_Node000003"><a xlink:title=" ">
<path fill="none" stroke="#63b8ff" d="M576.73,-306.44C570.2,-350.18 550.07,-448.86 496,-509.38 491.08,-514.89 484.59,-519.3 478,-522.76"/>
<polygon fill="#63b8ff" stroke="#63b8ff" points="580.18,-307.07 578.08,-296.69 573.25,-306.11 580.18,-307.07"/>
</a>
</g>
</g>
<!-- Node14&#45;&gt;Node7 -->
<g id="edge50_Node000014_Node000007" class="edge">
<title>Node14&#45;&gt;Node7</title>
<g id="a_edge50_Node000014_Node000007"><a xlink:title=" ">
<path fill="none" stroke="#63b8ff" d="M578.69,-306.47C575.7,-356.56 561.69,-480.02 496,-552.38 492.03,-556.75 486.95,-560.19 481.6,-562.9"/>
<polygon fill="#63b8ff" stroke="#63b8ff" points="582.18,-306.81 579.17,-296.65 575.19,-306.47 582.18,-306.81"/>
</a>
</g>
</g>
<!-- Node14&#45;&gt;Node10 -->
<g id="edge33_Node000014_Node000010" class="edge">
<title>Node14&#45;&gt;Node10</title>
<g id="a_edge33_Node000014_Node000010"><a xlink:title=" ">
<path fill="none" stroke="#63b8ff" d="M535,-284.21C482.35,-284.01 395.9,-283.68 348.74,-283.5"/>
<polygon fill="#63b8ff" stroke="#63b8ff" points="534.8,-287.71 544.82,-284.24 534.83,-280.71 534.8,-287.71"/>
</a>
</g>
</g>
<!-- Node15 -->
<g id="Node000015" class="node">
<title>Node15</title>
<g id="a_Node000015"><a xlink:href="app_8c.html#aaebae91a4d143d7892a5d87dc0f30ebc" target="_top" xlink:title=" ">
<polygon fill="white" stroke="#666666" points="481.38,-332.75 413.62,-332.75 413.62,-312 481.38,-312 481.38,-332.75"/>
<text text-anchor="middle" x="447.5" y="-319.25" font-family="Helvetica,sans-Serif" font-size="10.00">w2c__f207</text>
</a>
</g>
</g>
<!-- Node14&#45;&gt;Node15 -->
<g id="edge14_Node000014_Node000015" class="edge">
<title>Node14&#45;&gt;Node15</title>
<g id="a_edge14_Node000014_Node000015"><a xlink:title=" ">
<path fill="none" stroke="#63b8ff" d="M535.54,-297.13C517.9,-302.24 497.91,-308.04 481.55,-312.79"/>
<polygon fill="#63b8ff" stroke="#63b8ff" points="536.36,-300.53 544.99,-294.39 534.41,-293.81 536.36,-300.53"/>
</a>
</g>
</g>
<!-- Node16 -->
<g id="Node000016" class="node">
<title>Node16</title>
<g id="a_Node000016"><a xlink:href="app_8c.html#accfadfdf9e0b2a636cff5ac8e77bc6c6" target="_top" xlink:title=" ">
<polygon fill="white" stroke="#666666" points="348.38,-467.75 280.62,-467.75 280.62,-447 348.38,-447 348.38,-467.75"/>
<text text-anchor="middle" x="314.5" y="-454.25" font-family="Helvetica,sans-Serif" font-size="10.00">w2c__f225</text>
</a>
</g>
</g>
<!-- Node14&#45;&gt;Node16 -->
<g id="edge16_Node000014_Node000016" class="edge">
<title>Node14&#45;&gt;Node16</title>
<g id="a_edge16_Node000014_Node000016"><a xlink:title=" ">
<path fill="none" stroke="#63b8ff" d="M566.28,-304.34C551.35,-325.58 525.3,-359.02 496,-380.38 449.89,-413.99 386.84,-436.58 348.77,-448.18"/>
<polygon fill="#63b8ff" stroke="#63b8ff" points="569.06,-306.47 571.82,-296.24 563.28,-302.51 569.06,-306.47"/>
</a>
</g>
</g>
<!-- Node17 -->
<g id="Node000017" class="node">
<title>Node17</title>
<g id="a_Node000017"><a xlink:href="app_8c.html#a3b35d36403dcff081d46c10210051cdc" target="_top" xlink:title=" ">
<polygon fill="white" stroke="#666666" points="215.38,-506.75 147.62,-506.75 147.62,-486 215.38,-486 215.38,-506.75"/>
<text text-anchor="middle" x="181.5" y="-493.25" font-family="Helvetica,sans-Serif" font-size="10.00">w2c__f349</text>
</a>
</g>
</g>
<!-- Node14&#45;&gt;Node17 -->
<g id="edge32_Node000014_Node000017" class="edge">
<title>Node14&#45;&gt;Node17</title>
<g id="a_edge32_Node000014_Node000017"><a xlink:title=" ">
<path fill="none" stroke="#63b8ff" d="M571.23,-305.65C558.89,-334.88 533.08,-387.45 496,-419.38 414.25,-489.77 278.18,-497.84 215.71,-497.51"/>
<polygon fill="#63b8ff" stroke="#63b8ff" points="574.46,-307 574.98,-296.41 567.97,-304.36 574.46,-307"/>
</a>
</g>
</g>
<!-- Node21 -->
<g id="Node000021" class="node">
<title>Node21</title>
<g id="a_Node000021"><a xlink:href="app_8c.html#add194bffb67f2f62eef302d08ce41b47" target="_top" xlink:title=" ">
<polygon fill="white" stroke="#666666" points="481.38,-371.75 413.62,-371.75 413.62,-351 481.38,-351 481.38,-371.75"/>
<text text-anchor="middle" x="447.5" y="-358.25" font-family="Helvetica,sans-Serif" font-size="10.00">w2c__f266</text>
</a>
</g>
</g>
<!-- Node14&#45;&gt;Node21 -->
<g id="edge22_Node000014_Node000021" class="edge">
<title>Node14&#45;&gt;Node21</title>
<g id="a_edge22_Node000014_Node000021"><a xlink:title=" ">
<path fill="none" stroke="#63b8ff" d="M556.76,-301.74C540.4,-313.77 517.52,-329.65 496,-341.38 489.95,-344.67 483.24,-347.79 476.82,-350.55"/>
<polygon fill="#63b8ff" stroke="#63b8ff" points="558.43,-304.86 564.36,-296.07 554.25,-299.24 558.43,-304.86"/>
</a>
</g>
</g>
<!-- Node28 -->
<g id="Node000028" class="node">
<title>Node28</title>
<g id="a_Node000028"><a xlink:href="app_8c.html#acb255bbda6ed30845a5263860d3c45b1" target="_top" xlink:title=" ">
<polygon fill="white" stroke="#666666" points="348.38,-98.75 280.62,-98.75 280.62,-78 348.38,-78 348.38,-98.75"/>
<text text-anchor="middle" x="314.5" y="-85.25" font-family="Helvetica,sans-Serif" font-size="10.00">w2c__f389</text>
</a>
</g>
</g>
<!-- Node14&#45;&gt;Node28 -->
<g id="edge34_Node000014_Node000028" class="edge">
<title>Node14&#45;&gt;Node28</title>
<g id="a_edge34_Node000014_Node000028"><a xlink:title=" ">
<path fill="none" stroke="#63b8ff" d="M561.41,-265.23C551.93,-254.6 540.55,-240.83 532,-227.38 511.74,-195.49 524.1,-175.63 496,-150.38 473.94,-130.55 394.48,-108.14 348.68,-96.45"/>
<polygon fill="#63b8ff" stroke="#63b8ff" points="558.78,-267.54 568.11,-272.56 563.95,-262.82 558.78,-267.54"/>
</a>
</g>
</g>
<!-- Node30 -->
<g id="Node000030" class="node">
<title>Node30</title>
<g id="a_Node000030"><a xlink:href="app_8c.html#ae1894622990b883cad3d7ca790179a8b" target="_top" xlink:title=" ">
<polygon fill="white" stroke="#666666" points="481.38,-218.75 413.62,-218.75 413.62,-198 481.38,-198 481.38,-218.75"/>
<text text-anchor="middle" x="447.5" y="-205.25" font-family="Helvetica,sans-Serif" font-size="10.00">w2c__f407</text>
</a>
</g>
</g>
<!-- Node14&#45;&gt;Node30 -->
<g id="edge36_Node000014_Node000030" class="edge">
<title>Node14&#45;&gt;Node30</title>
<g id="a_edge36_Node000014_Node000030"><a xlink:title=" ">
<path fill="none" stroke="#63b8ff" d="M551.16,-267.93C525.61,-253.11 488.8,-231.75 466.9,-219.05"/>
<polygon fill="#63b8ff" stroke="#63b8ff" points="549.29,-270.9 559.7,-272.89 552.81,-264.84 549.29,-270.9"/>
</a>
</g>
</g>
<!-- Node38 -->
<g id="Node000038" class="node">
<title>Node38</title>
<g id="a_Node000038"><a xlink:href="app_8c.html#a85d3b9af05c91f610c185ddb2549e444" target="_top" xlink:title=" ">
<polygon fill="white" stroke="#666666" points="481.38,-40.75 413.62,-40.75 413.62,-20 481.38,-20 481.38,-40.75"/>
<text text-anchor="middle" x="447.5" y="-27.25" font-family="Helvetica,sans-Serif" font-size="10.00">w2c__f543</text>
</a>
</g>
</g>
<!-- Node14&#45;&gt;Node38 -->
<g id="edge45_Node000014_Node000038" class="edge">
<title>Node14&#45;&gt;Node38</title>
<g id="a_edge45_Node000014_Node000038"><a xlink:title=" ">
<path fill="none" stroke="#63b8ff" d="M560.15,-265.82C550.35,-255.39 539.05,-241.63 532,-227.38 500.07,-162.82 533.87,-130.64 496,-69.38 488.82,-57.76 476.94,-48.01 466.86,-41.16"/>
<polygon fill="#63b8ff" stroke="#63b8ff" points="557.35,-267.96 566.85,-272.65 562.35,-263.06 557.35,-267.96"/>
</a>
</g>
</g>
<!-- Node40 -->
<g id="Node000040" class="node">
<title>Node40</title>
<g id="a_Node000040"><a xlink:href="app_8c.html#a6b79da1c760dd75bc17e4b1f0706c467" target="_top" xlink:title=" ">
<polygon fill="white" stroke="#666666" points="481.38,-98.75 413.62,-98.75 413.62,-78 481.38,-78 481.38,-98.75"/>
<text text-anchor="middle" x="447.5" y="-85.25" font-family="Helvetica,sans-Serif" font-size="10.00">w2c__f562</text>
</a>
</g>
</g>
<!-- Node14&#45;&gt;Node40 -->
<g id="edge47_Node000014_Node000040" class="edge">
<title>Node14&#45;&gt;Node40</title>
<g id="a_edge47_Node000014_Node000040"><a xlink:title=" ">
<path fill="none" stroke="#63b8ff" d="M560.35,-265.24C550.75,-254.78 539.59,-241.17 532,-227.38 506.8,-181.56 528.98,-155.95 496,-115.38 490.5,-108.6 482.81,-103.21 475.23,-99.08"/>
<polygon fill="#63b8ff" stroke="#63b8ff" points="557.79,-267.62 567.22,-272.45 562.86,-262.8 557.79,-267.62"/>
</a>
</g>
</g>
<!-- Node42 -->
<g id="Node000042" class="node">
<title>Node42</title>
<g id="a_Node000042"><a xlink:href="app_8c.html#a29b586c0fe9b4a8deb4b9cd743372a7c" target="_top" xlink:title=" ">
<polygon fill="white" stroke="#666666" points="496,-179.75 399,-179.75 399,-159 496,-159 496,-179.75"/>
<text text-anchor="middle" x="447.5" y="-166.25" font-family="Helvetica,sans-Serif" font-size="10.00">wrap_w2c__f574</text>
</a>
</g>
</g>
<!-- Node14&#45;&gt;Node42 -->
<g id="edge51_Node000014_Node000042" class="edge">
<title>Node14&#45;&gt;Node42</title>
<g id="a_edge51_Node000014_Node000042"><a xlink:title=" ">
<path fill="none" stroke="#63b8ff" d="M563.22,-264.94C541.25,-238.84 503.93,-195.09 496,-189.38 491.06,-185.82 485.4,-182.74 479.74,-180.14"/>
<polygon fill="#63b8ff" stroke="#63b8ff" points="560.45,-267.08 569.57,-272.49 565.81,-262.58 560.45,-267.08"/>
</a>
</g>
</g>
<!-- Node15&#45;&gt;Node10 -->
<g id="edge15_Node000015_Node000010" class="edge">
<title>Node15&#45;&gt;Node10</title>
<g id="a_edge15_Node000015_Node000010"><a xlink:title=" ">
<path fill="none" stroke="#63b8ff" d="M402.54,-309.29C384.9,-304.03 364.91,-298.09 348.55,-293.21"/>
<polygon fill="#63b8ff" stroke="#63b8ff" points="401.41,-312.6 411.99,-312.1 403.41,-305.89 401.41,-312.6"/>
</a>
</g>
</g>
<!-- Node16&#45;&gt;Node17 -->
<g id="edge17_Node000016_Node000017" class="edge">
<title>Node16&#45;&gt;Node17</title>
<g id="a_edge17_Node000016_Node000017"><a xlink:title=" ">
<path fill="none" stroke="#63b8ff" d="M269.54,-470.46C251.9,-475.72 231.91,-481.66 215.55,-486.54"/>
<polygon fill="#63b8ff" stroke="#63b8ff" points="270.41,-473.86 278.99,-467.65 268.41,-467.15 270.41,-473.86"/>
</a>
</g>
</g>
<!-- Node19 -->
<g id="Node000019" class="node">
<title>Node19</title>
<g id="a_Node000019"><a xlink:href="app_8c.html#accaa66b0a8b5284f9eee5ee3fb08c203" target="_top" xlink:title=" ">
<polygon fill="white" stroke="#666666" points="215.38,-467.75 147.62,-467.75 147.62,-447 215.38,-447 215.38,-467.75"/>
<text text-anchor="middle" x="181.5" y="-454.25" font-family="Helvetica,sans-Serif" font-size="10.00">w2c__f412</text>
</a>
</g>
</g>
<!-- Node16&#45;&gt;Node19 -->
<g id="edge19_Node000016_Node000019" class="edge">
<title>Node16&#45;&gt;Node19</title>
<g id="a_edge19_Node000016_Node000019"><a xlink:title=" ">
<path fill="none" stroke="#63b8ff" d="M269.03,-457.38C251.52,-457.38 231.76,-457.38 215.55,-457.38"/>
<polygon fill="#63b8ff" stroke="#63b8ff" points="268.93,-460.88 278.93,-457.38 268.93,-453.88 268.93,-460.88"/>
</a>
</g>
</g>
<!-- Node18 -->
<g id="Node000018" class="node">
<title>Node18</title>
<g id="a_Node000018"><a xlink:href="app_8c.html#a053e462a04712de112461bc2539f46e8" target="_top" xlink:title=" ">
<polygon fill="white" stroke="#666666" points="97,-506.75 0,-506.75 0,-486 97,-486 97,-506.75"/>
<text text-anchor="middle" x="48.5" y="-493.25" font-family="Helvetica,sans-Serif" font-size="10.00">wrap_w2c__f349</text>
</a>
</g>
</g>
<!-- Node17&#45;&gt;Node18 -->
<g id="edge18_Node000017_Node000018" class="edge">
<title>Node17&#45;&gt;Node18</title>
<g id="a_edge18_Node000017_Node000018"><a xlink:title=" ">
<path fill="none" stroke="#63b8ff" d="M135.95,-496.38C123.53,-496.38 110,-496.38 97.4,-496.38"/>
<polygon fill="#63b8ff" stroke="#63b8ff" points="135.93,-499.88 145.93,-496.38 135.93,-492.88 135.93,-499.88"/>
</a>
</g>
</g>
<!-- Node20 -->
<g id="Node000020" class="node">
<title>Node20</title>
<g id="a_Node000020"><a xlink:href="app_8c.html#ad7e6219b365d4df9ffa2a21183e954f2" target="_top" xlink:title=" ">
<polygon fill="white" stroke="#666666" points="97,-467.75 0,-467.75 0,-447 97,-447 97,-467.75"/>
<text text-anchor="middle" x="48.5" y="-454.25" font-family="Helvetica,sans-Serif" font-size="10.00">wrap_w2c__f412</text>
</a>
</g>
</g>
<!-- Node19&#45;&gt;Node20 -->
<g id="edge20_Node000019_Node000020" class="edge">
<title>Node19&#45;&gt;Node20</title>
<g id="a_edge20_Node000019_Node000020"><a xlink:title=" ">
<path fill="none" stroke="#63b8ff" d="M135.95,-457.38C123.53,-457.38 110,-457.38 97.4,-457.38"/>
<polygon fill="#63b8ff" stroke="#63b8ff" points="135.93,-460.88 145.93,-457.38 135.93,-453.88 135.93,-460.88"/>
</a>
</g>
</g>
<!-- Node21&#45;&gt;Node10 -->
<g id="edge24_Node000021_Node000010" class="edge">
<title>Node21&#45;&gt;Node10</title>
<g id="a_edge24_Node000021_Node000010"><a xlink:title=" ">
<path fill="none" stroke="#63b8ff" d="M405.49,-345.44C403.24,-344.16 401.06,-342.8 399,-341.38 379.87,-328.13 382.13,-316.62 363,-303.38 357.92,-299.86 352.13,-296.79 346.38,-294.17"/>
<polygon fill="#63b8ff" stroke="#63b8ff" points="403.77,-348.49 414.27,-349.89 406.93,-342.25 403.77,-348.49"/>
</a>
</g>
</g>
<!-- Node21&#45;&gt;Node16 -->
<g id="edge23_Node000021_Node000016" class="edge">
<title>Node21&#45;&gt;Node16</title>
<g id="a_edge23_Node000021_Node000016"><a xlink:title=" ">
<path fill="none" stroke="#63b8ff" d="M429.45,-380.17C413.53,-396.88 388.46,-421.11 363,-437.38 357.57,-440.84 351.44,-443.94 345.43,-446.61"/>
<polygon fill="#63b8ff" stroke="#63b8ff" points="431.6,-383.01 435.86,-373.31 426.48,-378.23 431.6,-383.01"/>
</a>
</g>
</g>
<!-- Node22 -->
<g id="Node000022" class="node">
<title>Node22</title>
<g id="a_Node000022"><a xlink:href="app_8c.html#af23f6c193d642848a6a7312a50699df7" target="_top" xlink:title=" ">
<polygon fill="white" stroke="#666666" points="348.38,-332.75 280.62,-332.75 280.62,-312 348.38,-312 348.38,-332.75"/>
<text text-anchor="middle" x="314.5" y="-319.25" font-family="Helvetica,sans-Serif" font-size="10.00">w2c__f467</text>
</a>
</g>
</g>
<!-- Node21&#45;&gt;Node22 -->
<g id="edge25_Node000021_Node000022" class="edge">
<title>Node21&#45;&gt;Node22</title>
<g id="a_edge25_Node000021_Node000022"><a xlink:title=" ">
<path fill="none" stroke="#63b8ff" d="M402.54,-348.29C384.9,-343.03 364.91,-337.09 348.55,-332.21"/>
<polygon fill="#63b8ff" stroke="#63b8ff" points="401.41,-351.6 411.99,-351.1 403.41,-344.89 401.41,-351.6"/>
</a>
</g>
</g>
<!-- Node24 -->
<g id="Node000024" class="node">
<title>Node24</title>
<g id="a_Node000024"><a xlink:href="app_8c.html#a651ec0f9d894e20b973be3a3f5e2a759" target="_top" xlink:title=" ">
<polygon fill="white" stroke="#666666" points="348.38,-428.75 280.62,-428.75 280.62,-408 348.38,-408 348.38,-428.75"/>
<text text-anchor="middle" x="314.5" y="-415.25" font-family="Helvetica,sans-Serif" font-size="10.00">w2c__f483</text>
</a>
</g>
</g>
<!-- Node21&#45;&gt;Node24 -->
<g id="edge27_Node000021_Node000024" class="edge">
<title>Node21&#45;&gt;Node24</title>
<g id="a_edge27_Node000021_Node000024"><a xlink:title=" ">
<path fill="none" stroke="#63b8ff" d="M412.05,-376.81C397.02,-383.5 379.16,-391.39 363,-398.38 355.94,-401.43 348.26,-404.69 341.17,-407.67"/>
<polygon fill="#63b8ff" stroke="#63b8ff" points="413.35,-380.07 421.05,-372.8 410.49,-373.67 413.35,-380.07"/>
</a>
</g>
</g>
<!-- Node26 -->
<g id="Node000026" class="node">
<title>Node26</title>
<g id="a_Node000026"><a xlink:href="app_8c.html#acc202c88ff97c62f319f7e4dee4b9329" target="_top" xlink:title=" ">
<polygon fill="white" stroke="#666666" points="348.38,-371.75 280.62,-371.75 280.62,-351 348.38,-351 348.38,-371.75"/>
<text text-anchor="middle" x="314.5" y="-358.25" font-family="Helvetica,sans-Serif" font-size="10.00">w2c__f564</text>
</a>
</g>
</g>
<!-- Node21&#45;&gt;Node26 -->
<g id="edge29_Node000021_Node000026" class="edge">
<title>Node21&#45;&gt;Node26</title>
<g id="a_edge29_Node000021_Node000026"><a xlink:title=" ">
<path fill="none" stroke="#63b8ff" d="M402.03,-361.38C384.52,-361.38 364.76,-361.38 348.55,-361.38"/>
<polygon fill="#63b8ff" stroke="#63b8ff" points="401.93,-364.88 411.93,-361.38 401.93,-357.88 401.93,-364.88"/>
</a>
</g>
</g>
<!-- Node23 -->
<g id="Node000023" class="node">
<title>Node23</title>
<g id="a_Node000023"><a xlink:href="app_8c.html#a3b0c41e424e9f1d00e067608c44efdab" target="_top" xlink:title=" ">
<polygon fill="white" stroke="#666666" points="230,-350.75 133,-350.75 133,-330 230,-330 230,-350.75"/>
<text text-anchor="middle" x="181.5" y="-337.25" font-family="Helvetica,sans-Serif" font-size="10.00">wrap_w2c__f467</text>
</a>
</g>
</g>
<!-- Node22&#45;&gt;Node23 -->
<g id="edge26_Node000022_Node000023" class="edge">
<title>Node22&#45;&gt;Node23</title>
<g id="a_edge26_Node000022_Node000023"><a xlink:title=" ">
<path fill="none" stroke="#63b8ff" d="M269.33,-328.44C256.81,-330.16 243.13,-332.04 230.4,-333.79"/>
<polygon fill="#63b8ff" stroke="#63b8ff" points="269.51,-331.95 278.94,-327.12 268.56,-325.02 269.51,-331.95"/>
</a>
</g>
</g>
<!-- Node25 -->
<g id="Node000025" class="node">
<title>Node25</title>
<g id="a_Node000025"><a xlink:href="app_8c.html#a199b0b13b03598552d3b6c02676a7067" target="_top" xlink:title=" ">
<polygon fill="white" stroke="#666666" points="230,-428.75 133,-428.75 133,-408 230,-408 230,-428.75"/>
<text text-anchor="middle" x="181.5" y="-415.25" font-family="Helvetica,sans-Serif" font-size="10.00">wrap_w2c__f483</text>
</a>
</g>
</g>
<!-- Node24&#45;&gt;Node25 -->
<g id="edge28_Node000024_Node000025" class="edge">
<title>Node24&#45;&gt;Node25</title>
<g id="a_edge28_Node000024_Node000025"><a xlink:title=" ">
<path fill="none" stroke="#63b8ff" d="M268.95,-418.38C256.53,-418.38 243,-418.38 230.4,-418.38"/>
<polygon fill="#63b8ff" stroke="#63b8ff" points="268.93,-421.88 278.93,-418.38 268.93,-414.88 268.93,-421.88"/>
</a>
</g>
</g>
<!-- Node26&#45;&gt;Node26 -->
<g id="edge30_Node000026_Node000026" class="edge">
<title>Node26&#45;&gt;Node26</title>
<g id="a_edge30_Node000026_Node000026"><a xlink:title=" ">
<path fill="none" stroke="#63b8ff" d="M337.9,-383.24C334.8,-387.08 327,-389.75 314.5,-389.75 291.64,-389.75 284.5,-380.81 293.07,-372.15"/>
<polygon fill="#63b8ff" stroke="#63b8ff" points="341.39,-382.87 336.2,-373.64 334.5,-384.1 341.39,-382.87"/>
</a>
</g>
</g>
<!-- Node27 -->
<g id="Node000027" class="node">
<title>Node27</title>
<g id="a_Node000027"><a xlink:href="app_8c.html#a810668da6a4bac2a6bb6b48a06731447" target="_top" xlink:title=" ">
<polygon fill="white" stroke="#666666" points="230,-389.75 133,-389.75 133,-369 230,-369 230,-389.75"/>
<text text-anchor="middle" x="181.5" y="-376.25" font-family="Helvetica,sans-Serif" font-size="10.00">wrap_w2c__f564</text>
</a>
</g>
</g>
<!-- Node26&#45;&gt;Node27 -->
<g id="edge31_Node000026_Node000027" class="edge">
<title>Node26&#45;&gt;Node27</title>
<g id="a_edge31_Node000026_Node000027"><a xlink:title=" ">
<path fill="none" stroke="#63b8ff" d="M269.33,-367.44C256.81,-369.16 243.13,-371.04 230.4,-372.79"/>
<polygon fill="#63b8ff" stroke="#63b8ff" points="269.51,-370.95 278.94,-366.12 268.56,-364.02 269.51,-370.95"/>
</a>
</g>
</g>
<!-- Node29 -->
<g id="Node000029" class="node">
<title>Node29</title>
<g id="a_Node000029"><a xlink:href="app_8c.html#a64c4ada45e34e8f55ad1eae8aedc6126" target="_top" xlink:title=" ">
<polygon fill="white" stroke="#666666" points="230,-98.75 133,-98.75 133,-78 230,-78 230,-98.75"/>
<text text-anchor="middle" x="181.5" y="-85.25" font-family="Helvetica,sans-Serif" font-size="10.00">wrap_w2c__f389</text>
</a>
</g>
</g>
<!-- Node28&#45;&gt;Node29 -->
<g id="edge35_Node000028_Node000029" class="edge">
<title>Node28&#45;&gt;Node29</title>
<g id="a_edge35_Node000028_Node000029"><a xlink:title=" ">
<path fill="none" stroke="#63b8ff" d="M268.95,-88.38C256.53,-88.38 243,-88.38 230.4,-88.38"/>
<polygon fill="#63b8ff" stroke="#63b8ff" points="268.93,-91.88 278.93,-88.38 268.93,-84.88 268.93,-91.88"/>
</a>
</g>
</g>
<!-- Node30&#45;&gt;Node10 -->
<g id="edge39_Node000030_Node000010" class="edge">
<title>Node30&#45;&gt;Node10</title>
<g id="a_edge39_Node000030_Node000010"><a xlink:title=" ">
<path fill="none" stroke="#63b8ff" d="M412.28,-224.39C407.72,-226.9 403.17,-229.58 399,-232.38 381.45,-244.11 380.95,-252.25 363,-263.38 357.45,-266.82 351.2,-269.92 345.1,-272.6"/>
<polygon fill="#63b8ff" stroke="#63b8ff" points="413.58,-227.66 420.84,-219.94 410.35,-221.45 413.58,-227.66"/>
</a>
</g>
</g>
<!-- Node31 -->
<g id="Node000031" class="node">
<title>Node31</title>
<g id="a_Node000031"><a xlink:href="app_8c.html#aabc3b06c7f7daa21796552c728f0379b" target="_top" xlink:title=" ">
<polygon fill="white" stroke="#666666" points="348.38,-254.75 280.62,-254.75 280.62,-234 348.38,-234 348.38,-254.75"/>
<text text-anchor="middle" x="314.5" y="-241.25" font-family="Helvetica,sans-Serif" font-size="10.00">w2c__f270</text>
</a>
</g>
</g>
<!-- Node30&#45;&gt;Node31 -->
<g id="edge37_Node000030_Node000031" class="edge">
<title>Node30&#45;&gt;Node31</title>
<g id="a_edge37_Node000030_Node000031"><a xlink:title=" ">
<path fill="none" stroke="#63b8ff" d="M402.54,-220.46C384.9,-225.3 364.91,-230.8 348.55,-235.29"/>
<polygon fill="#63b8ff" stroke="#63b8ff" points="403.27,-223.89 411.98,-217.86 401.41,-217.14 403.27,-223.89"/>
</a>
</g>
</g>
<!-- Node33 -->
<g id="Node000033" class="node">
<title>Node33</title>
<g id="a_Node000033"><a xlink:href="app_8c.html#aa5aa96620823a66d02f16f4abcd5e0fe" target="_top" xlink:title=" ">
<polygon fill="white" stroke="#666666" points="348.38,-215.75 280.62,-215.75 280.62,-195 348.38,-195 348.38,-215.75"/>
<text text-anchor="middle" x="314.5" y="-202.25" font-family="Helvetica,sans-Serif" font-size="10.00">w2c__f371</text>
</a>
</g>
</g>
<!-- Node30&#45;&gt;Node33 -->
<g id="edge40_Node000030_Node000033" class="edge">
<title>Node30&#45;&gt;Node33</title>
<g id="a_edge40_Node000030_Node000033"><a xlink:title=" ">
<path fill="none" stroke="#63b8ff" d="M402.03,-207.36C384.52,-206.96 364.76,-206.5 348.55,-206.13"/>
<polygon fill="#63b8ff" stroke="#63b8ff" points="401.85,-210.85 411.93,-207.58 402.01,-203.86 401.85,-210.85"/>
</a>
</g>
</g>
<!-- Node35 -->
<g id="Node000035" class="node">
<title>Node35</title>
<g id="a_Node000035"><a xlink:href="app_8c.html#a83755b8cd21c3725397c6ca0d8dc1f28" target="_top" xlink:title=" ">
<polygon fill="white" stroke="#666666" points="348.38,-176.75 280.62,-176.75 280.62,-156 348.38,-156 348.38,-176.75"/>
<text text-anchor="middle" x="314.5" y="-163.25" font-family="Helvetica,sans-Serif" font-size="10.00">w2c__f471</text>
</a>
</g>
</g>
<!-- Node30&#45;&gt;Node35 -->
<g id="edge42_Node000030_Node000035" class="edge">
<title>Node30&#45;&gt;Node35</title>
<g id="a_edge42_Node000030_Node000035"><a xlink:title=" ">
<path fill="none" stroke="#63b8ff" d="M402.54,-194.28C384.9,-188.62 364.91,-182.22 348.55,-176.97"/>
<polygon fill="#63b8ff" stroke="#63b8ff" points="401.41,-197.59 412,-197.31 403.55,-190.93 401.41,-197.59"/>
</a>
</g>
</g>
<!-- Node37 -->
<g id="Node000037" class="node">
<title>Node37</title>
<g id="a_Node000037"><a xlink:href="app_8c.html#a2e4e816c21a72b2d2dc555b3e5000fa4" target="_top" xlink:title=" ">
<polygon fill="white" stroke="#666666" points="363,-137.75 266,-137.75 266,-117 363,-117 363,-137.75"/>
<text text-anchor="middle" x="314.5" y="-124.25" font-family="Helvetica,sans-Serif" font-size="10.00">wrap_w2c__f407</text>
</a>
</g>
</g>
<!-- Node30&#45;&gt;Node37 -->
<g id="edge44_Node000030_Node000037" class="edge">
<title>Node30&#45;&gt;Node37</title>
<g id="a_edge44_Node000030_Node000037"><a xlink:title=" ">
<path fill="none" stroke="#63b8ff" d="M405.07,-192.32C402.97,-191.08 400.93,-189.76 399,-188.38 379.33,-174.2 382.67,-161.55 363,-147.38 358.06,-143.82 352.4,-140.74 346.74,-138.14"/>
<polygon fill="#63b8ff" stroke="#63b8ff" points="403.43,-195.41 413.92,-196.92 406.66,-189.2 403.43,-195.41"/>
</a>
</g>
</g>
<!-- Node32 -->
<g id="Node000032" class="node">
<title>Node32</title>
<g id="a_Node000032"><a xlink:href="app_8c.html#a54f194530158831aa826ddabfd869e3f" target="_top" xlink:title=" ">
<polygon fill="white" stroke="#666666" points="230,-233.75 133,-233.75 133,-213 230,-213 230,-233.75"/>
<text text-anchor="middle" x="181.5" y="-220.25" font-family="Helvetica,sans-Serif" font-size="10.00">wrap_w2c__f270</text>
</a>
</g>
</g>
<!-- Node31&#45;&gt;Node32 -->
<g id="edge38_Node000031_Node000032" class="edge">
<title>Node31&#45;&gt;Node32</title>
<g id="a_edge38_Node000031_Node000032"><a xlink:title=" ">
<path fill="none" stroke="#63b8ff" d="M269.33,-237.29C256.81,-235.29 243.13,-233.09 230.4,-231.05"/>
<polygon fill="#63b8ff" stroke="#63b8ff" points="268.52,-240.71 278.95,-238.84 269.63,-233.8 268.52,-240.71"/>
</a>
</g>
</g>
<!-- Node34 -->
<g id="Node000034" class="node">
<title>Node34</title>
<g id="a_Node000034"><a xlink:href="app_8c.html#a70f34b1bc2ae815ea8aa822e2de375d8" target="_top" xlink:title=" ">
<polygon fill="white" stroke="#666666" points="230,-194.75 133,-194.75 133,-174 230,-174 230,-194.75"/>
<text text-anchor="middle" x="181.5" y="-181.25" font-family="Helvetica,sans-Serif" font-size="10.00">wrap_w2c__f371</text>
</a>
</g>
</g>
<!-- Node33&#45;&gt;Node34 -->
<g id="edge41_Node000033_Node000034" class="edge">
<title>Node33&#45;&gt;Node34</title>
<g id="a_edge41_Node000033_Node000034"><a xlink:title=" ">
<path fill="none" stroke="#63b8ff" d="M269.33,-198.29C256.81,-196.29 243.13,-194.09 230.4,-192.05"/>
<polygon fill="#63b8ff" stroke="#63b8ff" points="268.52,-201.71 278.95,-199.84 269.63,-194.8 268.52,-201.71"/>
</a>
</g>
</g>
<!-- Node36 -->
<g id="Node000036" class="node">
<title>Node36</title>
<g id="a_Node000036"><a xlink:href="app_8c.html#a6b5632f950c10613ca99f4746ff29f36" target="_top" xlink:title=" ">
<polygon fill="white" stroke="#666666" points="230,-155.75 133,-155.75 133,-135 230,-135 230,-155.75"/>
<text text-anchor="middle" x="181.5" y="-142.25" font-family="Helvetica,sans-Serif" font-size="10.00">wrap_w2c__f471</text>
</a>
</g>
</g>
<!-- Node35&#45;&gt;Node36 -->
<g id="edge43_Node000035_Node000036" class="edge">
<title>Node35&#45;&gt;Node36</title>
<g id="a_edge43_Node000035_Node000036"><a xlink:title=" ">
<path fill="none" stroke="#63b8ff" d="M269.33,-159.29C256.81,-157.29 243.13,-155.09 230.4,-153.05"/>
<polygon fill="#63b8ff" stroke="#63b8ff" points="268.52,-162.71 278.95,-160.84 269.63,-155.8 268.52,-162.71"/>
</a>
</g>
</g>
<!-- Node39 -->
<g id="Node000039" class="node">
<title>Node39</title>
<g id="a_Node000039"><a xlink:href="app_8c.html#a150c1b2103da9aad28f8090ebe774379" target="_top" xlink:title=" ">
<polygon fill="white" stroke="#666666" points="363,-20.75 266,-20.75 266,0 363,0 363,-20.75"/>
<text text-anchor="middle" x="314.5" y="-7.25" font-family="Helvetica,sans-Serif" font-size="10.00">wrap_w2c__f543</text>
</a>
</g>
</g>
<!-- Node38&#45;&gt;Node39 -->
<g id="edge46_Node000038_Node000039" class="edge">
<title>Node38&#45;&gt;Node39</title>
<g id="a_edge46_Node000038_Node000039"><a xlink:title=" ">
<path fill="none" stroke="#63b8ff" d="M402.33,-23.63C389.81,-21.72 376.13,-19.63 363.4,-17.69"/>
<polygon fill="#63b8ff" stroke="#63b8ff" points="401.53,-27.05 411.95,-25.1 402.59,-20.13 401.53,-27.05"/>
</a>
</g>
</g>
<!-- Node40&#45;&gt;Node28 -->
<g id="edge48_Node000040_Node000028" class="edge">
<title>Node40&#45;&gt;Node28</title>
<g id="a_edge48_Node000040_Node000028"><a xlink:title=" ">
<path fill="none" stroke="#63b8ff" d="M402.03,-88.38C384.52,-88.38 364.76,-88.38 348.55,-88.38"/>
<polygon fill="#63b8ff" stroke="#63b8ff" points="401.93,-91.88 411.93,-88.38 401.93,-84.88 401.93,-91.88"/>
</a>
</g>
</g>
<!-- Node41 -->
<g id="Node000041" class="node">
<title>Node41</title>
<g id="a_Node000041"><a xlink:href="app_8c.html#a5dc3b1b123d8d6bca35b4df899b9bfc6" target="_top" xlink:title=" ">
<polygon fill="white" stroke="#666666" points="363,-59.75 266,-59.75 266,-39 363,-39 363,-59.75"/>
<text text-anchor="middle" x="314.5" y="-46.25" font-family="Helvetica,sans-Serif" font-size="10.00">wrap_w2c__f562</text>
</a>
</g>
</g>
<!-- Node40&#45;&gt;Node41 -->
<g id="edge49_Node000040_Node000041" class="edge">
<title>Node40&#45;&gt;Node41</title>
<g id="a_edge49_Node000040_Node000041"><a xlink:title=" ">
<path fill="none" stroke="#63b8ff" d="M402.43,-75.25C385.96,-70.35 367.46,-64.84 351.77,-60.17"/>
<polygon fill="#63b8ff" stroke="#63b8ff" points="401.41,-78.6 411.99,-78.1 403.41,-71.89 401.41,-78.6"/>
</a>
</g>
</g>
</g>
</svg>
