<?xml version="1.0" encoding="UTF-8" standalone="no"?>
<!DOCTYPE svg PUBLIC "-//W3C//DTD SVG 1.1//EN"
 "http://www.w3.org/Graphics/SVG/1.1/DTD/svg11.dtd">
<!-- Generated by graphviz version 12.2.1 (0)
 -->
<!-- Title: w2c_0_111 Pages: 1 -->
<svg width="346pt" height="107pt"
 viewBox="0.00 0.00 346.25 106.75" xmlns="http://www.w3.org/2000/svg" xmlns:xlink="http://www.w3.org/1999/xlink">
<g id="graph0" class="graph" transform="scale(1 1) rotate(0) translate(4 102.75)">
<title>w2c_0_111</title>
<!-- Node1 -->
<g id="Node000001" class="node">
<title>Node1</title>
<g id="a_Node000001"><a xlink:title=" ">
<polygon fill="#999999" stroke="#666666" points="338.25,-59.75 268.25,-59.75 268.25,-39 338.25,-39 338.25,-59.75"/>
<text text-anchor="middle" x="303.25" y="-46.25" font-family="Helvetica,sans-Serif" font-size="10.00">w2c_0_111</text>
</a>
</g>
</g>
<!-- Node2 -->
<g id="Node000002" class="node">
<title>Node2</title>
<g id="a_Node000002"><a xlink:href="app_8c.html#a7dc7d70793bae217b64eab580fce99cb" target="_top" xlink:title=" ">
<polygon fill="white" stroke="#666666" points="216.5,-98.75 148.75,-98.75 148.75,-78 216.5,-78 216.5,-98.75"/>
<text text-anchor="middle" x="182.62" y="-85.25" font-family="Helvetica,sans-Serif" font-size="10.00">w2c__f215</text>
</a>
</g>
</g>
<!-- Node1&#45;&gt;Node2 -->
<g id="edge1_Node000001_Node000002" class="edge">
<title>Node1&#45;&gt;Node2</title>
<g id="a_edge1_Node000001_Node000002"><a xlink:title=" ">
<path fill="none" stroke="#63b8ff" d="M258.41,-63.79C244.54,-68.35 229.45,-73.31 216.49,-77.57"/>
<polygon fill="#63b8ff" stroke="#63b8ff" points="259.36,-67.16 267.77,-60.71 257.18,-60.51 259.36,-67.16"/>
</a>
</g>
</g>
<!-- Node4 -->
<g id="Node000004" class="node">
<title>Node4</title>
<g id="a_Node000004"><a xlink:href="app_8c.html#a86ae468e235684021eadfdacd5cb9dba" target="_top" xlink:title=" ">
<polygon fill="white" stroke="#666666" points="216.5,-59.75 148.75,-59.75 148.75,-39 216.5,-39 216.5,-59.75"/>
<text text-anchor="middle" x="182.62" y="-46.25" font-family="Helvetica,sans-Serif" font-size="10.00">w2c__f452</text>
</a>
</g>
</g>
<!-- Node1&#45;&gt;Node4 -->
<g id="edge3_Node000001_Node000004" class="edge">
<title>Node1&#45;&gt;Node4</title>
<g id="a_edge3_Node000001_Node000004"><a xlink:title=" ">
<path fill="none" stroke="#63b8ff" d="M256.57,-49.38C243.27,-49.38 228.99,-49.38 216.63,-49.38"/>
<polygon fill="#63b8ff" stroke="#63b8ff" points="256.43,-52.88 266.43,-49.38 256.43,-45.88 256.43,-52.88"/>
</a>
</g>
</g>
<!-- Node6 -->
<g id="Node000006" class="node">
<title>Node6</title>
<g id="a_Node000006"><a xlink:href="app_8c.html#ae4ed8449fdb6828c6bef15a4283c3b17" target="_top" xlink:title=" ">
<polygon fill="white" stroke="#666666" points="232.25,-20.75 133,-20.75 133,0 232.25,0 232.25,-20.75"/>
<text text-anchor="middle" x="182.62" y="-7.25" font-family="Helvetica,sans-Serif" font-size="10.00">wrap_w2c_0_111</text>
</a>
</g>
</g>
<!-- Node1&#45;&gt;Node6 -->
<g id="edge5_Node000001_Node000006" class="edge">
<title>Node1&#45;&gt;Node6</title>
<g id="a_edge5_Node000001_Node000006"><a xlink:title=" ">
<path fill="none" stroke="#63b8ff" d="M258.41,-34.96C244.54,-30.4 229.45,-25.44 216.49,-21.18"/>
<polygon fill="#63b8ff" stroke="#63b8ff" points="257.18,-38.24 267.77,-38.04 259.36,-31.59 257.18,-38.24"/>
</a>
</g>
</g>
<!-- Node3 -->
<g id="Node000003" class="node">
<title>Node3</title>
<g id="a_Node000003"><a xlink:href="app_8c.html#a7f65ba02075f2865f478747946b07c94" target="_top" xlink:title=" ">
<polygon fill="white" stroke="#666666" points="97,-98.75 0,-98.75 0,-78 97,-78 97,-98.75"/>
<text text-anchor="middle" x="48.5" y="-85.25" font-family="Helvetica,sans-Serif" font-size="10.00">wrap_w2c__f215</text>
</a>
</g>
</g>
<!-- Node2&#45;&gt;Node3 -->
<g id="edge2_Node000002_Node000003" class="edge">
<title>Node2&#45;&gt;Node3</title>
<g id="a_edge2_Node000002_Node000003"><a xlink:title=" ">
<path fill="none" stroke="#63b8ff" d="M136.96,-88.38C124.2,-88.38 110.25,-88.38 97.31,-88.38"/>
<polygon fill="#63b8ff" stroke="#63b8ff" points="136.77,-91.88 146.77,-88.38 136.77,-84.88 136.77,-91.88"/>
</a>
</g>
</g>
<!-- Node5 -->
<g id="Node000005" class="node">
<title>Node5</title>
<g id="a_Node000005"><a xlink:href="app_8c.html#a57ca4f801147f9325a0ea7cc2d7192c5" target="_top" xlink:title=" ">
<polygon fill="white" stroke="#666666" points="97,-59.75 0,-59.75 0,-39 97,-39 97,-59.75"/>
<text text-anchor="middle" x="48.5" y="-46.25" font-family="Helvetica,sans-Serif" font-size="10.00">wrap_w2c__f452</text>
</a>
</g>
</g>
<!-- Node4&#45;&gt;Node5 -->
<g id="edge4_Node000004_Node000005" class="edge">
<title>Node4&#45;&gt;Node5</title>
<g id="a_edge4_Node000004_Node000005"><a xlink:title=" ">
<path fill="none" stroke="#63b8ff" d="M136.96,-49.38C124.2,-49.38 110.25,-49.38 97.31,-49.38"/>
<polygon fill="#63b8ff" stroke="#63b8ff" points="136.77,-52.88 146.77,-49.38 136.77,-45.88 136.77,-52.88"/>
</a>
</g>
</g>
</g>
</svg>
