<?xml version="1.0" encoding="UTF-8" standalone="no"?>
<!DOCTYPE svg PUBLIC "-//W3C//DTD SVG 1.1//EN"
 "http://www.w3.org/Graphics/SVG/1.1/DTD/svg11.dtd">
<!-- Generated by graphviz version 12.2.1 (0)
 -->
<!-- Title: w2c__f478 Pages: 1 -->
<svg width="598pt" height="211pt"
 viewBox="0.00 0.00 598.25 211.48" xmlns="http://www.w3.org/2000/svg" xmlns:xlink="http://www.w3.org/1999/xlink">
<g id="graph0" class="graph" transform="scale(1 1) rotate(0) translate(4 207.48)">
<title>w2c__f478</title>
<!-- Node1 -->
<g id="Node000001" class="node">
<title>Node1</title>
<g id="a_Node000001"><a xlink:title=" ">
<polygon fill="#999999" stroke="#666666" points="67.75,-97.75 0,-97.75 0,-77 67.75,-77 67.75,-97.75"/>
<text text-anchor="middle" x="33.88" y="-84.25" font-family="Helvetica,sans-Serif" font-size="10.00">w2c__f478</text>
</a>
</g>
</g>
<!-- Node2 -->
<g id="Node000002" class="node">
<title>Node2</title>
<g id="a_Node000002"><a xlink:href="app_8c.html#a2fb6e70e8b24282ed5d326d14eaef7cb" target="_top" xlink:title=" ">
<polygon fill="white" stroke="#666666" points="171.5,-136.75 103.75,-136.75 103.75,-116 171.5,-116 171.5,-136.75"/>
<text text-anchor="middle" x="137.62" y="-123.25" font-family="Helvetica,sans-Serif" font-size="10.00">w2c__f265</text>
</a>
</g>
</g>
<!-- Node1&#45;&gt;Node2 -->
<g id="edge1_Node000001_Node000002" class="edge">
<title>Node1&#45;&gt;Node2</title>
<g id="a_edge1_Node000001_Node000002"><a xlink:title=" ">
<path fill="none" stroke="#63b8ff" d="M63.22,-98.24C73.91,-102.34 86.27,-107.08 97.76,-111.48"/>
<polygon fill="#63b8ff" stroke="#63b8ff" points="96.43,-114.72 107.02,-115.03 98.94,-108.18 96.43,-114.72"/>
</a>
</g>
</g>
<!-- Node12 -->
<g id="Node000012" class="node">
<title>Node12</title>
<g id="a_Node000012"><a xlink:href="app_8c.html#ad63b6498cfe22ce747f349eeb23b508f" target="_top" xlink:title=" ">
<polygon fill="white" stroke="#666666" points="279,-59.75 207.5,-59.75 207.5,-39 279,-39 279,-59.75"/>
<text text-anchor="middle" x="243.25" y="-46.25" font-family="Helvetica,sans-Serif" font-size="10.00">wasm_fabs</text>
</a>
</g>
</g>
<!-- Node1&#45;&gt;Node12 -->
<g id="edge21_Node000001_Node000012" class="edge">
<title>Node1&#45;&gt;Node12</title>
<g id="a_edge21_Node000001_Node000012"><a xlink:title=" ">
<path fill="none" stroke="#63b8ff" d="M67.94,-77.3C79.22,-74.11 91.96,-70.8 103.75,-68.38 134.22,-62.11 168.91,-57.36 195.94,-54.17"/>
<polygon fill="#63b8ff" stroke="#63b8ff" points="195.98,-57.69 205.52,-53.07 195.19,-50.73 195.98,-57.69"/>
</a>
</g>
</g>
<!-- Node13 -->
<g id="Node000013" class="node">
<title>Node13</title>
<g id="a_Node000013"><a xlink:href="app_8c.html#a0dcc94e50e7bcb39cabb7a720c8f8454" target="_top" xlink:title=" ">
<polygon fill="white" stroke="#666666" points="171.5,-97.75 103.75,-97.75 103.75,-77 171.5,-77 171.5,-97.75"/>
<text text-anchor="middle" x="137.62" y="-84.25" font-family="Helvetica,sans-Serif" font-size="10.00">w2c__f316</text>
</a>
</g>
</g>
<!-- Node1&#45;&gt;Node13 -->
<g id="edge15_Node000001_Node000013" class="edge">
<title>Node1&#45;&gt;Node13</title>
<g id="a_edge15_Node000001_Node000013"><a xlink:title=" ">
<path fill="none" stroke="#63b8ff" d="M68.19,-87.38C75.82,-87.38 84.06,-87.38 92.08,-87.38"/>
<polygon fill="#63b8ff" stroke="#63b8ff" points="92.07,-90.88 102.07,-87.38 92.07,-83.88 92.07,-90.88"/>
</a>
</g>
</g>
<!-- Node3 -->
<g id="Node000003" class="node">
<title>Node3</title>
<g id="a_Node000003"><a xlink:href="app_8c.html#a94ba0efd8da5ce4859ae69909ed227f4" target="_top" xlink:title=" ">
<polygon fill="white" stroke="#666666" points="277.12,-137.75 209.38,-137.75 209.38,-117 277.12,-117 277.12,-137.75"/>
<text text-anchor="middle" x="243.25" y="-124.25" font-family="Helvetica,sans-Serif" font-size="10.00">w2c__f213</text>
</a>
</g>
</g>
<!-- Node2&#45;&gt;Node3 -->
<g id="edge2_Node000002_Node000003" class="edge">
<title>Node2&#45;&gt;Node3</title>
<g id="a_edge2_Node000002_Node000003"><a xlink:title=" ">
<path fill="none" stroke="#63b8ff" d="M171.98,-126.7C180.12,-126.78 188.95,-126.86 197.52,-126.94"/>
<polygon fill="#63b8ff" stroke="#63b8ff" points="197.41,-130.44 207.44,-127.04 197.48,-123.44 197.41,-130.44"/>
</a>
</g>
</g>
<!-- Node9 -->
<g id="Node000009" class="node">
<title>Node9</title>
<g id="a_Node000009"><a xlink:href="app_8c.html#a06cdee2573cd7febfe4cfde241e5574b" target="_top" xlink:title=" ">
<polygon fill="white" stroke="#666666" points="277.12,-176.75 209.38,-176.75 209.38,-156 277.12,-156 277.12,-176.75"/>
<text text-anchor="middle" x="243.25" y="-163.25" font-family="Helvetica,sans-Serif" font-size="10.00">w2c__f404</text>
</a>
</g>
</g>
<!-- Node2&#45;&gt;Node9 -->
<g id="edge11_Node000002_Node000009" class="edge">
<title>Node2&#45;&gt;Node9</title>
<g id="a_edge11_Node000002_Node000009"><a xlink:title=" ">
<path fill="none" stroke="#63b8ff" d="M166.67,-137.2C178.07,-141.6 191.44,-146.76 203.73,-151.51"/>
<polygon fill="#63b8ff" stroke="#63b8ff" points="202.18,-154.66 212.77,-155 204.7,-148.13 202.18,-154.66"/>
</a>
</g>
</g>
<!-- Node10 -->
<g id="Node000010" class="node">
<title>Node10</title>
<g id="a_Node000010"><a xlink:href="app_8c.html#a55f0e3687ea8fa5d5cc06af63f503791" target="_top" xlink:title=" ">
<polygon fill="white" stroke="#666666" points="277.12,-98.75 209.38,-98.75 209.38,-78 277.12,-78 277.12,-98.75"/>
<text text-anchor="middle" x="243.25" y="-85.25" font-family="Helvetica,sans-Serif" font-size="10.00">w2c__f473</text>
</a>
</g>
</g>
<!-- Node2&#45;&gt;Node10 -->
<g id="edge12_Node000002_Node000010" class="edge">
<title>Node2&#45;&gt;Node10</title>
<g id="a_edge12_Node000002_Node000010"><a xlink:title=" ">
<path fill="none" stroke="#63b8ff" d="M168.04,-115.59C178.65,-111.7 190.82,-107.24 202.18,-103.07"/>
<polygon fill="#63b8ff" stroke="#63b8ff" points="203.15,-106.44 211.34,-99.71 200.74,-99.87 203.15,-106.44"/>
</a>
</g>
</g>
<!-- Node2&#45;&gt;Node12 -->
<g id="edge14_Node000002_Node000012" class="edge">
<title>Node2&#45;&gt;Node12</title>
<g id="a_edge14_Node000002_Node000012"><a xlink:title=" ">
<path fill="none" stroke="#63b8ff" d="M158.29,-115.52C162.78,-112.75 167.42,-109.62 171.5,-106.38 189.44,-92.08 189.38,-83.45 207.5,-69.38 208.97,-68.23 210.52,-67.1 212.11,-66.01"/>
<polygon fill="#63b8ff" stroke="#63b8ff" points="213.58,-69.22 220.15,-60.91 209.83,-63.31 213.58,-69.22"/>
</a>
</g>
</g>
<!-- Node4 -->
<g id="Node000004" class="node">
<title>Node4</title>
<g id="a_Node000004"><a xlink:href="app_8c.html#ac7c3d97ad3659d9d7492f82b3a7a740d" target="_top" xlink:title=" ">
<polygon fill="white" stroke="#666666" points="382.75,-175.75 315,-175.75 315,-155 382.75,-155 382.75,-175.75"/>
<text text-anchor="middle" x="348.88" y="-162.25" font-family="Helvetica,sans-Serif" font-size="10.00">w2c__f218</text>
</a>
</g>
</g>
<!-- Node3&#45;&gt;Node4 -->
<g id="edge3_Node000003_Node000004" class="edge">
<title>Node3&#45;&gt;Node4</title>
<g id="a_edge3_Node000003_Node000004"><a xlink:title=" ">
<path fill="none" stroke="#63b8ff" d="M273.67,-138.16C284.28,-142.05 296.44,-146.51 307.81,-150.68"/>
<polygon fill="#63b8ff" stroke="#63b8ff" points="306.37,-153.88 316.96,-154.04 308.78,-147.31 306.37,-153.88"/>
</a>
</g>
</g>
<!-- Node6 -->
<g id="Node000006" class="node">
<title>Node6</title>
<g id="a_Node000006"><a xlink:href="app_8c.html#a674f6e81761467d0a8dc6d2a425eda9f" target="_top" xlink:title=" ">
<polygon fill="white" stroke="#666666" points="590.25,-137.75 522.5,-137.75 522.5,-117 590.25,-117 590.25,-137.75"/>
<text text-anchor="middle" x="556.38" y="-124.25" font-family="Helvetica,sans-Serif" font-size="10.00">w2c__f498</text>
</a>
</g>
</g>
<!-- Node3&#45;&gt;Node6 -->
<g id="edge9_Node000003_Node000006" class="edge">
<title>Node3&#45;&gt;Node6</title>
<g id="a_edge9_Node000003_Node000006"><a xlink:title=" ">
<path fill="none" stroke="#63b8ff" d="M277.29,-120.35C324.04,-111.42 412.09,-98.3 486.5,-108.38 494.96,-109.52 503.85,-111.42 512.33,-113.59"/>
<polygon fill="#63b8ff" stroke="#63b8ff" points="511.14,-116.9 521.71,-116.16 512.98,-110.15 511.14,-116.9"/>
</a>
</g>
</g>
<!-- Node7 -->
<g id="Node000007" class="node">
<title>Node7</title>
<g id="a_Node000007"><a xlink:href="app_8c.html#a672569c91ebb1d5055d737b56ec296a7" target="_top" xlink:title=" ">
<polygon fill="white" stroke="#666666" points="590.25,-195.75 522.5,-195.75 522.5,-175 590.25,-175 590.25,-195.75"/>
<text text-anchor="middle" x="556.38" y="-182.25" font-family="Helvetica,sans-Serif" font-size="10.00">w2c__f585</text>
</a>
</g>
</g>
<!-- Node3&#45;&gt;Node7 -->
<g id="edge10_Node000003_Node000007" class="edge">
<title>Node3&#45;&gt;Node7</title>
<g id="a_edge10_Node000003_Node000007"><a xlink:title=" ">
<path fill="none" stroke="#63b8ff" d="M265.07,-138.1C269.81,-140.89 274.71,-144.04 279,-147.38 297.12,-161.45 293.91,-175.35 315,-184.38 378.89,-211.72 461.37,-203.91 511.23,-195.11"/>
<polygon fill="#63b8ff" stroke="#63b8ff" points="511.58,-198.61 520.77,-193.33 510.3,-191.73 511.58,-198.61"/>
</a>
</g>
</g>
<!-- Node8 -->
<g id="Node000008" class="node">
<title>Node8</title>
<g id="a_Node000008"><a xlink:href="app_8c.html#ab07e4056f5c12e00d750c88d85ec77bb" target="_top" xlink:title=" ">
<polygon fill="white" stroke="#666666" points="486.5,-137.75 418.75,-137.75 418.75,-117 486.5,-117 486.5,-137.75"/>
<text text-anchor="middle" x="452.62" y="-124.25" font-family="Helvetica,sans-Serif" font-size="10.00">w2c__f415</text>
</a>
</g>
</g>
<!-- Node3&#45;&gt;Node8 -->
<g id="edge8_Node000003_Node000008" class="edge">
<title>Node3&#45;&gt;Node8</title>
<g id="a_edge8_Node000003_Node000008"><a xlink:title=" ">
<path fill="none" stroke="#63b8ff" d="M277.57,-127.38C312.64,-127.38 368.05,-127.38 406.9,-127.38"/>
<polygon fill="#63b8ff" stroke="#63b8ff" points="406.88,-130.88 416.88,-127.38 406.88,-123.88 406.88,-130.88"/>
</a>
</g>
</g>
<!-- Node5 -->
<g id="Node000005" class="node">
<title>Node5</title>
<g id="a_Node000005"><a xlink:href="app_8c.html#a268eeda7b1a075e4b680bac34cdfebdb" target="_top" xlink:title=" ">
<polygon fill="white" stroke="#666666" points="486.5,-176.75 418.75,-176.75 418.75,-156 486.5,-156 486.5,-176.75"/>
<text text-anchor="middle" x="452.62" y="-163.25" font-family="Helvetica,sans-Serif" font-size="10.00">w2c__f259</text>
</a>
</g>
</g>
<!-- Node4&#45;&gt;Node5 -->
<g id="edge4_Node000004_Node000005" class="edge">
<title>Node4&#45;&gt;Node5</title>
<g id="a_edge4_Node000004_Node000005"><a xlink:title=" ">
<path fill="none" stroke="#63b8ff" d="M383.19,-165.7C390.82,-165.78 399.06,-165.86 407.08,-165.94"/>
<polygon fill="#63b8ff" stroke="#63b8ff" points="407.03,-169.44 417.07,-166.04 407.1,-162.44 407.03,-169.44"/>
</a>
</g>
</g>
<!-- Node4&#45;&gt;Node8 -->
<g id="edge7_Node000004_Node000008" class="edge">
<title>Node4&#45;&gt;Node8</title>
<g id="a_edge7_Node000004_Node000008"><a xlink:title=" ">
<path fill="none" stroke="#63b8ff" d="M378.76,-154.59C389.07,-150.74 400.88,-146.33 411.94,-142.2"/>
<polygon fill="#63b8ff" stroke="#63b8ff" points="413.11,-145.5 421.25,-138.72 410.66,-138.94 413.11,-145.5"/>
</a>
</g>
</g>
<!-- Node5&#45;&gt;Node6 -->
<g id="edge5_Node000005_Node000006" class="edge">
<title>Node5&#45;&gt;Node6</title>
<g id="a_edge5_Node000005_Node000006"><a xlink:title=" ">
<path fill="none" stroke="#63b8ff" d="M481.97,-155.51C492.66,-151.41 505.02,-146.67 516.51,-142.27"/>
<polygon fill="#63b8ff" stroke="#63b8ff" points="517.69,-145.57 525.77,-138.72 515.18,-139.03 517.69,-145.57"/>
</a>
</g>
</g>
<!-- Node5&#45;&gt;Node7 -->
<g id="edge6_Node000005_Node000007" class="edge">
<title>Node5&#45;&gt;Node7</title>
<g id="a_edge6_Node000005_Node000007"><a xlink:title=" ">
<path fill="none" stroke="#63b8ff" d="M486.94,-172.6C494.66,-174.04 503,-175.59 511.11,-177.11"/>
<polygon fill="#63b8ff" stroke="#63b8ff" points="510.37,-180.53 520.84,-178.93 511.66,-173.65 510.37,-180.53"/>
</a>
</g>
</g>
<!-- Node11 -->
<g id="Node000011" class="node">
<title>Node11</title>
<g id="a_Node000011"><a xlink:href="app_8c.html#ab5fcbcf768e56d91e9aa71bba4a24166" target="_top" xlink:title=" ">
<polygon fill="white" stroke="#666666" points="382.75,-61.75 315,-61.75 315,-41 382.75,-41 382.75,-61.75"/>
<text text-anchor="middle" x="348.88" y="-48.25" font-family="Helvetica,sans-Serif" font-size="10.00">w2c__f221</text>
</a>
</g>
</g>
<!-- Node10&#45;&gt;Node11 -->
<g id="edge13_Node000010_Node000011" class="edge">
<title>Node10&#45;&gt;Node11</title>
<g id="a_edge13_Node000010_Node000011"><a xlink:title=" ">
<path fill="none" stroke="#63b8ff" d="M274.5,-77.57C284.72,-73.93 296.29,-69.79 307.18,-65.9"/>
<polygon fill="#63b8ff" stroke="#63b8ff" points="308.1,-69.29 316.34,-62.63 305.75,-62.7 308.1,-69.29"/>
</a>
</g>
</g>
<!-- Node13&#45;&gt;Node3 -->
<g id="edge16_Node000013_Node000003" class="edge">
<title>Node13&#45;&gt;Node3</title>
<g id="a_edge16_Node000013_Node000003"><a xlink:title=" ">
<path fill="none" stroke="#63b8ff" d="M166.67,-98.2C178.07,-102.6 191.44,-107.76 203.73,-112.51"/>
<polygon fill="#63b8ff" stroke="#63b8ff" points="202.18,-115.66 212.77,-116 204.7,-109.13 202.18,-115.66"/>
</a>
</g>
</g>
<!-- Node13&#45;&gt;Node9 -->
<g id="edge18_Node000013_Node000009" class="edge">
<title>Node13&#45;&gt;Node9</title>
<g id="a_edge18_Node000013_Node000009"><a xlink:title=" ">
<path fill="none" stroke="#63b8ff" d="M158.36,-98.15C162.84,-100.93 167.47,-104.07 171.5,-107.38 189.75,-122.32 189.07,-131.66 207.5,-146.38 208.79,-147.41 210.14,-148.42 211.53,-149.41"/>
<polygon fill="#63b8ff" stroke="#63b8ff" points="209.43,-152.21 219.73,-154.69 213.22,-146.33 209.43,-152.21"/>
</a>
</g>
</g>
<!-- Node13&#45;&gt;Node10 -->
<g id="edge19_Node000013_Node000010" class="edge">
<title>Node13&#45;&gt;Node10</title>
<g id="a_edge19_Node000013_Node000010"><a xlink:title=" ">
<path fill="none" stroke="#63b8ff" d="M171.98,-87.7C180.12,-87.78 188.95,-87.86 197.52,-87.94"/>
<polygon fill="#63b8ff" stroke="#63b8ff" points="197.41,-91.44 207.44,-88.04 197.48,-84.44 197.41,-91.44"/>
</a>
</g>
</g>
<!-- Node13&#45;&gt;Node12 -->
<g id="edge20_Node000013_Node000012" class="edge">
<title>Node13&#45;&gt;Node12</title>
<g id="a_edge20_Node000013_Node000012"><a xlink:title=" ">
<path fill="none" stroke="#63b8ff" d="M168.04,-76.59C178.65,-72.7 190.82,-68.24 202.18,-64.07"/>
<polygon fill="#63b8ff" stroke="#63b8ff" points="203.15,-67.44 211.34,-60.71 200.74,-60.87 203.15,-67.44"/>
</a>
</g>
</g>
<!-- Node14 -->
<g id="Node000014" class="node">
<title>Node14</title>
<g id="a_Node000014"><a xlink:href="app_8c.html#a819bb0d5a870d8c4bbb6b9a791102333" target="_top" xlink:title=" ">
<polygon fill="white" stroke="#666666" points="277.12,-20.75 209.38,-20.75 209.38,0 277.12,0 277.12,-20.75"/>
<text text-anchor="middle" x="243.25" y="-7.25" font-family="Helvetica,sans-Serif" font-size="10.00">w2c__f322</text>
</a>
</g>
</g>
<!-- Node13&#45;&gt;Node14 -->
<g id="edge17_Node000013_Node000014" class="edge">
<title>Node13&#45;&gt;Node14</title>
<g id="a_edge17_Node000013_Node000014"><a xlink:title=" ">
<path fill="none" stroke="#63b8ff" d="M150.33,-76.64C163.66,-64.67 186.33,-45.07 207.5,-30.38 209.07,-29.28 210.71,-28.2 212.38,-27.12"/>
<polygon fill="#63b8ff" stroke="#63b8ff" points="214.03,-30.21 220.75,-22.02 210.39,-24.23 214.03,-30.21"/>
</a>
</g>
</g>
</g>
</svg>
