<?xml version="1.0" encoding="UTF-8" standalone="no"?>
<!DOCTYPE svg PUBLIC "-//W3C//DTD SVG 1.1//EN"
 "http://www.w3.org/Graphics/SVG/1.1/DTD/svg11.dtd">
<!-- Generated by graphviz version 12.2.1 (0)
 -->
<!-- Title: w2c__f323 Pages: 1 -->
<svg width="471pt" height="224pt"
 viewBox="0.00 0.00 470.50 223.75" xmlns="http://www.w3.org/2000/svg" xmlns:xlink="http://www.w3.org/1999/xlink">
<g id="graph0" class="graph" transform="scale(1 1) rotate(0) translate(4 219.75)">
<title>w2c__f323</title>
<!-- Node1 -->
<g id="Node000001" class="node">
<title>Node1</title>
<g id="a_Node000001"><a xlink:title=" ">
<polygon fill="#999999" stroke="#666666" points="462.5,-156.75 394.75,-156.75 394.75,-136 462.5,-136 462.5,-156.75"/>
<text text-anchor="middle" x="428.62" y="-143.25" font-family="Helvetica,sans-Serif" font-size="10.00">w2c__f323</text>
</a>
</g>
</g>
<!-- Node2 -->
<g id="Node000002" class="node">
<title>Node2</title>
<g id="a_Node000002"><a xlink:href="app_8c.html#a5e6d37c539a2e51904358f57d24ae63c" target="_top" xlink:title=" ">
<polygon fill="white" stroke="#666666" points="358.75,-214.75 291,-214.75 291,-194 358.75,-194 358.75,-214.75"/>
<text text-anchor="middle" x="324.88" y="-201.25" font-family="Helvetica,sans-Serif" font-size="10.00">w2c__f207</text>
</a>
</g>
</g>
<!-- Node1&#45;&gt;Node2 -->
<g id="edge1_Node000001_Node000002" class="edge">
<title>Node1&#45;&gt;Node2</title>
<g id="a_edge1_Node000001_Node000002"><a xlink:title=" ">
<path fill="none" stroke="#63b8ff" d="M399.31,-162.52C381.9,-172.44 360.08,-184.88 344.76,-193.61"/>
<polygon fill="#63b8ff" stroke="#63b8ff" points="400.69,-165.76 407.65,-157.76 397.23,-159.67 400.69,-165.76"/>
</a>
</g>
</g>
<!-- Node3 -->
<g id="Node000003" class="node">
<title>Node3</title>
<g id="a_Node000003"><a xlink:href="app_8c.html#a9a9275782eb97e6525073f99d900b184" target="_top" xlink:title=" ">
<polygon fill="white" stroke="#666666" points="255,-137.75 187.25,-137.75 187.25,-117 255,-117 255,-137.75"/>
<text text-anchor="middle" x="221.12" y="-124.25" font-family="Helvetica,sans-Serif" font-size="10.00">w2c__f217</text>
</a>
</g>
</g>
<!-- Node1&#45;&gt;Node3 -->
<g id="edge2_Node000001_Node000003" class="edge">
<title>Node1&#45;&gt;Node3</title>
<g id="a_edge2_Node000001_Node000003"><a xlink:title=" ">
<path fill="none" stroke="#63b8ff" d="M383.25,-142.27C344.84,-138.72 290.15,-133.66 255.4,-130.45"/>
<polygon fill="#63b8ff" stroke="#63b8ff" points="382.82,-145.75 393.1,-143.18 383.47,-138.78 382.82,-145.75"/>
</a>
</g>
</g>
<!-- Node4 -->
<g id="Node000004" class="node">
<title>Node4</title>
<g id="a_Node000004"><a xlink:href="app_8c.html#aac449994afd8488e2efd16fb19f0ecb1" target="_top" xlink:title=" ">
<polygon fill="white" stroke="#666666" points="358.75,-175.75 291,-175.75 291,-155 358.75,-155 358.75,-175.75"/>
<text text-anchor="middle" x="324.88" y="-162.25" font-family="Helvetica,sans-Serif" font-size="10.00">w2c__f336</text>
</a>
</g>
</g>
<!-- Node1&#45;&gt;Node4 -->
<g id="edge3_Node000001_Node000004" class="edge">
<title>Node1&#45;&gt;Node4</title>
<g id="a_edge3_Node000001_Node000004"><a xlink:title=" ">
<path fill="none" stroke="#63b8ff" d="M383.07,-154.69C374.96,-156.21 366.63,-157.77 358.92,-159.2"/>
<polygon fill="#63b8ff" stroke="#63b8ff" points="383.63,-158.15 392.82,-152.87 382.35,-151.27 383.63,-158.15"/>
</a>
</g>
</g>
<!-- Node10 -->
<g id="Node000010" class="node">
<title>Node10</title>
<g id="a_Node000010"><a xlink:href="app_8c.html#a25b43587c2e4a3802eb8256f469ef5ab" target="_top" xlink:title=" ">
<polygon fill="white" stroke="#666666" points="358.75,-98.75 291,-98.75 291,-78 358.75,-78 358.75,-98.75"/>
<text text-anchor="middle" x="324.88" y="-85.25" font-family="Helvetica,sans-Serif" font-size="10.00">w2c__f531</text>
</a>
</g>
</g>
<!-- Node1&#45;&gt;Node10 -->
<g id="edge9_Node000001_Node000010" class="edge">
<title>Node1&#45;&gt;Node10</title>
<g id="a_edge9_Node000001_Node000010"><a xlink:title=" ">
<path fill="none" stroke="#63b8ff" d="M399.31,-130.23C381.9,-120.31 360.08,-107.87 344.76,-99.14"/>
<polygon fill="#63b8ff" stroke="#63b8ff" points="397.23,-133.08 407.65,-134.99 400.69,-126.99 397.23,-133.08"/>
</a>
</g>
</g>
<!-- Node5 -->
<g id="Node000005" class="node">
<title>Node5</title>
<g id="a_Node000005"><a xlink:href="app_8c.html#ac863989691d4c389f80374209c220171" target="_top" xlink:title=" ">
<polygon fill="white" stroke="#666666" points="252.38,-215.75 189.88,-215.75 189.88,-195 252.38,-195 252.38,-215.75"/>
<text text-anchor="middle" x="221.12" y="-202.25" font-family="Helvetica,sans-Serif" font-size="10.00">w2c__c_0</text>
</a>
</g>
</g>
<!-- Node4&#45;&gt;Node5 -->
<g id="edge4_Node000004_Node000005" class="edge">
<title>Node4&#45;&gt;Node5</title>
<g id="a_edge4_Node000004_Node000005"><a xlink:title=" ">
<path fill="none" stroke="#63b8ff" d="M285.71,-180.38C273.74,-185.08 260.77,-190.18 249.68,-194.54"/>
<polygon fill="#63b8ff" stroke="#63b8ff" points="286.91,-183.67 294.93,-176.75 284.34,-177.15 286.91,-183.67"/>
</a>
</g>
</g>
<!-- Node7 -->
<g id="Node000007" class="node">
<title>Node7</title>
<g id="a_Node000007"><a xlink:href="app_8c.html#a8f312e54d76623b1ae169d5d19736ee0" target="_top" xlink:title=" ">
<polygon fill="white" stroke="#666666" points="255,-176.75 187.25,-176.75 187.25,-156 255,-156 255,-176.75"/>
<text text-anchor="middle" x="221.12" y="-163.25" font-family="Helvetica,sans-Serif" font-size="10.00">w2c__f363</text>
</a>
</g>
</g>
<!-- Node4&#45;&gt;Node7 -->
<g id="edge6_Node000004_Node000007" class="edge">
<title>Node4&#45;&gt;Node7</title>
<g id="a_edge6_Node000004_Node000007"><a xlink:title=" ">
<path fill="none" stroke="#63b8ff" d="M279.32,-165.81C271.21,-165.89 262.88,-165.97 255.17,-166.05"/>
<polygon fill="#63b8ff" stroke="#63b8ff" points="279.08,-169.32 289.04,-165.72 279.01,-162.32 279.08,-169.32"/>
</a>
</g>
</g>
<!-- Node6 -->
<g id="Node000006" class="node">
<title>Node6</title>
<g id="a_Node000006"><a xlink:href="app_8c.html#ab1e039392ea68017ab8a6063263b147d" target="_top" xlink:title=" ">
<polygon fill="white" stroke="#666666" points="145.25,-215.75 94,-215.75 94,-195 145.25,-195 145.25,-215.75"/>
<text text-anchor="middle" x="119.62" y="-202.25" font-family="Helvetica,sans-Serif" font-size="10.00">w2c__c</text>
</a>
</g>
</g>
<!-- Node5&#45;&gt;Node6 -->
<g id="edge5_Node000005_Node000006" class="edge">
<title>Node5&#45;&gt;Node6</title>
<g id="a_edge5_Node000005_Node000006"><a xlink:title=" ">
<path fill="none" stroke="#63b8ff" d="M178.21,-205.38C167.15,-205.38 155.55,-205.38 145.68,-205.38"/>
<polygon fill="#63b8ff" stroke="#63b8ff" points="177.95,-208.88 187.95,-205.38 177.95,-201.88 177.95,-208.88"/>
</a>
</g>
</g>
<!-- Node8 -->
<g id="Node000008" class="node">
<title>Node8</title>
<g id="a_Node000008"><a xlink:href="app_8c.html#a26657f10c51f10eeb57a4d27606a6885" target="_top" xlink:title=" ">
<polygon fill="white" stroke="#666666" points="151.25,-176.75 88,-176.75 88,-156 151.25,-156 151.25,-176.75"/>
<text text-anchor="middle" x="119.62" y="-163.25" font-family="Helvetica,sans-Serif" font-size="10.00">w2c__b_0</text>
</a>
</g>
</g>
<!-- Node7&#45;&gt;Node8 -->
<g id="edge7_Node000007_Node000008" class="edge">
<title>Node7&#45;&gt;Node8</title>
<g id="a_edge7_Node000007_Node000008"><a xlink:title=" ">
<path fill="none" stroke="#63b8ff" d="M175.71,-166.38C167.57,-166.38 159.23,-166.38 151.59,-166.38"/>
<polygon fill="#63b8ff" stroke="#63b8ff" points="175.48,-169.88 185.48,-166.38 175.48,-162.88 175.48,-169.88"/>
</a>
</g>
</g>
<!-- Node9 -->
<g id="Node000009" class="node">
<title>Node9</title>
<g id="a_Node000009"><a xlink:href="app_8c.html#a683a2045346c3209e9dac20d55933c7d" target="_top" xlink:title=" ">
<polygon fill="white" stroke="#666666" points="52,-176.75 0,-176.75 0,-156 52,-156 52,-176.75"/>
<text text-anchor="middle" x="26" y="-163.25" font-family="Helvetica,sans-Serif" font-size="10.00">w2c__b</text>
</a>
</g>
</g>
<!-- Node8&#45;&gt;Node9 -->
<g id="edge8_Node000008_Node000009" class="edge">
<title>Node8&#45;&gt;Node9</title>
<g id="a_edge8_Node000008_Node000009"><a xlink:title=" ">
<path fill="none" stroke="#63b8ff" d="M76.21,-166.38C68,-166.38 59.65,-166.38 52.21,-166.38"/>
<polygon fill="#63b8ff" stroke="#63b8ff" points="76.09,-169.88 86.09,-166.38 76.09,-162.88 76.09,-169.88"/>
</a>
</g>
</g>
<!-- Node10&#45;&gt;Node3 -->
<g id="edge10_Node000010_Node000003" class="edge">
<title>Node10&#45;&gt;Node3</title>
<g id="a_edge10_Node000010_Node000003"><a xlink:title=" ">
<path fill="none" stroke="#63b8ff" d="M284.85,-103.33C273.35,-107.74 260.99,-112.48 250.32,-116.57"/>
<polygon fill="#63b8ff" stroke="#63b8ff" points="286.03,-106.63 294.12,-99.78 283.53,-100.09 286.03,-106.63"/>
</a>
</g>
</g>
<!-- Node11 -->
<g id="Node000011" class="node">
<title>Node11</title>
<g id="a_Node000011"><a xlink:href="app_8c.html#a0b804502e637fa2897681579fae890af" target="_top" xlink:title=" ">
<polygon fill="white" stroke="#666666" points="255,-98.75 187.25,-98.75 187.25,-78 255,-78 255,-98.75"/>
<text text-anchor="middle" x="221.12" y="-85.25" font-family="Helvetica,sans-Serif" font-size="10.00">w2c__f233</text>
</a>
</g>
</g>
<!-- Node10&#45;&gt;Node11 -->
<g id="edge11_Node000010_Node000011" class="edge">
<title>Node10&#45;&gt;Node11</title>
<g id="a_edge11_Node000010_Node000011"><a xlink:title=" ">
<path fill="none" stroke="#63b8ff" d="M279.32,-88.38C271.21,-88.38 262.88,-88.38 255.17,-88.38"/>
<polygon fill="#63b8ff" stroke="#63b8ff" points="279.04,-91.88 289.04,-88.38 279.04,-84.88 279.04,-91.88"/>
</a>
</g>
</g>
<!-- Node12 -->
<g id="Node000012" class="node">
<title>Node12</title>
<g id="a_Node000012"><a xlink:href="app_8c.html#a13a282f739b6944dad1977039f3fadde" target="_top" xlink:title=" ">
<polygon fill="white" stroke="#666666" points="255,-59.75 187.25,-59.75 187.25,-39 255,-39 255,-59.75"/>
<text text-anchor="middle" x="221.12" y="-46.25" font-family="Helvetica,sans-Serif" font-size="10.00">w2c__f420</text>
</a>
</g>
</g>
<!-- Node10&#45;&gt;Node12 -->
<g id="edge12_Node000010_Node000012" class="edge">
<title>Node10&#45;&gt;Node12</title>
<g id="a_edge12_Node000010_Node000012"><a xlink:title=" ">
<path fill="none" stroke="#63b8ff" d="M284.85,-73.42C273.35,-69.01 260.99,-64.27 250.32,-60.18"/>
<polygon fill="#63b8ff" stroke="#63b8ff" points="283.53,-76.66 294.12,-76.97 286.03,-70.12 283.53,-76.66"/>
</a>
</g>
</g>
<!-- Node13 -->
<g id="Node000013" class="node">
<title>Node13</title>
<g id="a_Node000013"><a xlink:href="app_8c.html#a268eebcea573fce720709e588959d401" target="_top" xlink:title=" ">
<polygon fill="white" stroke="#666666" points="255,-20.75 187.25,-20.75 187.25,0 255,0 255,-20.75"/>
<text text-anchor="middle" x="221.12" y="-7.25" font-family="Helvetica,sans-Serif" font-size="10.00">w2c__f568</text>
</a>
</g>
</g>
<!-- Node10&#45;&gt;Node13 -->
<g id="edge13_Node000010_Node000013" class="edge">
<title>Node10&#45;&gt;Node13</title>
<g id="a_edge13_Node000010_Node000013"><a xlink:title=" ">
<path fill="none" stroke="#63b8ff" d="M303.71,-69.97C290.32,-58.12 272.12,-42.68 255,-30.38 250.55,-27.18 245.58,-23.98 240.88,-21.1"/>
<polygon fill="#63b8ff" stroke="#63b8ff" points="301.22,-72.45 311.01,-76.52 305.9,-67.24 301.22,-72.45"/>
</a>
</g>
</g>
</g>
</svg>
