<?xml version="1.0" encoding="UTF-8" standalone="no"?>
<!DOCTYPE svg PUBLIC "-//W3C//DTD SVG 1.1//EN"
 "http://www.w3.org/Graphics/SVG/1.1/DTD/svg11.dtd">
<!-- Generated by graphviz version 12.2.1 (0)
 -->
<!-- Title: w2c__f240 Pages: 1 -->
<svg width="595pt" height="183pt"
 viewBox="0.00 0.00 594.50 182.75" xmlns="http://www.w3.org/2000/svg" xmlns:xlink="http://www.w3.org/1999/xlink">
<g id="graph0" class="graph" transform="scale(1 1) rotate(0) translate(4 178.75)">
<title>w2c__f240</title>
<!-- Node1 -->
<g id="Node000001" class="node">
<title>Node1</title>
<g id="a_Node000001"><a xlink:title=" ">
<polygon fill="#999999" stroke="#666666" points="67.75,-58.75 0,-58.75 0,-38 67.75,-38 67.75,-58.75"/>
<text text-anchor="middle" x="33.88" y="-45.25" font-family="Helvetica,sans-Serif" font-size="10.00">w2c__f240</text>
</a>
</g>
</g>
<!-- Node2 -->
<g id="Node000002" class="node">
<title>Node2</title>
<g id="a_Node000002"><a xlink:href="app_8c.html#a5a0d1cd445d6077fbe4477c0f417eeaf" target="_top" xlink:title=" ">
<polygon fill="white" stroke="#666666" points="171.5,-97.75 103.75,-97.75 103.75,-77 171.5,-77 171.5,-97.75"/>
<text text-anchor="middle" x="137.62" y="-84.25" font-family="Helvetica,sans-Serif" font-size="10.00">w2c__f275</text>
</a>
</g>
</g>
<!-- Node1&#45;&gt;Node2 -->
<g id="edge1_Node000001_Node000002" class="edge">
<title>Node1&#45;&gt;Node2</title>
<g id="a_edge1_Node000001_Node000002"><a xlink:title=" ">
<path fill="none" stroke="#63b8ff" d="M63.22,-59.24C73.91,-63.34 86.27,-68.08 97.76,-72.48"/>
<polygon fill="#63b8ff" stroke="#63b8ff" points="96.43,-75.72 107.02,-76.03 98.94,-69.18 96.43,-75.72"/>
</a>
</g>
</g>
<!-- Node10 -->
<g id="Node000010" class="node">
<title>Node10</title>
<g id="a_Node000010"><a xlink:href="app_8c.html#a674f6e81761467d0a8dc6d2a425eda9f" target="_top" xlink:title=" ">
<polygon fill="white" stroke="#666666" points="482.75,-20.75 415,-20.75 415,0 482.75,0 482.75,-20.75"/>
<text text-anchor="middle" x="448.88" y="-7.25" font-family="Helvetica,sans-Serif" font-size="10.00">w2c__f498</text>
</a>
</g>
</g>
<!-- Node1&#45;&gt;Node10 -->
<g id="edge13_Node000001_Node000010" class="edge">
<title>Node1&#45;&gt;Node10</title>
<g id="a_edge13_Node000001_Node000010"><a xlink:title=" ">
<path fill="none" stroke="#63b8ff" d="M68.19,-37.64C79.37,-34.45 92,-31.3 103.75,-29.38 210.43,-11.92 337.91,-9.64 403.71,-9.81"/>
<polygon fill="#63b8ff" stroke="#63b8ff" points="403.35,-13.31 413.37,-9.86 403.39,-6.31 403.35,-13.31"/>
</a>
</g>
</g>
<!-- Node11 -->
<g id="Node000011" class="node">
<title>Node11</title>
<g id="a_Node000011"><a xlink:href="app_8c.html#a4fd0a4cb4b78f7e4a76d64b8921bc5dc" target="_top" xlink:title=" ">
<polygon fill="white" stroke="#666666" points="171.5,-58.75 103.75,-58.75 103.75,-38 171.5,-38 171.5,-58.75"/>
<text text-anchor="middle" x="137.62" y="-45.25" font-family="Helvetica,sans-Serif" font-size="10.00">w2c__f574</text>
</a>
</g>
</g>
<!-- Node1&#45;&gt;Node11 -->
<g id="edge14_Node000001_Node000011" class="edge">
<title>Node1&#45;&gt;Node11</title>
<g id="a_edge14_Node000001_Node000011"><a xlink:title=" ">
<path fill="none" stroke="#63b8ff" d="M68.19,-48.38C75.82,-48.38 84.06,-48.38 92.08,-48.38"/>
<polygon fill="#63b8ff" stroke="#63b8ff" points="92.07,-51.88 102.07,-48.38 92.07,-44.88 92.07,-51.88"/>
</a>
</g>
</g>
<!-- Node3 -->
<g id="Node000003" class="node">
<title>Node3</title>
<g id="a_Node000003"><a xlink:href="app_8c.html#ae7fb023a7298e99149ca1f090e524235" target="_top" xlink:title=" ">
<polygon fill="white" stroke="#666666" points="275.25,-97.75 207.5,-97.75 207.5,-77 275.25,-77 275.25,-97.75"/>
<text text-anchor="middle" x="241.38" y="-84.25" font-family="Helvetica,sans-Serif" font-size="10.00">w2c__f281</text>
</a>
</g>
</g>
<!-- Node2&#45;&gt;Node3 -->
<g id="edge2_Node000002_Node000003" class="edge">
<title>Node2&#45;&gt;Node3</title>
<g id="a_edge2_Node000002_Node000003"><a xlink:title=" ">
<path fill="none" stroke="#63b8ff" d="M171.94,-87.38C179.57,-87.38 187.81,-87.38 195.83,-87.38"/>
<polygon fill="#63b8ff" stroke="#63b8ff" points="195.82,-90.88 205.82,-87.38 195.82,-83.88 195.82,-90.88"/>
</a>
</g>
</g>
<!-- Node4 -->
<g id="Node000004" class="node">
<title>Node4</title>
<g id="a_Node000004"><a xlink:href="app_8c.html#ac9cc84763a9c1933e50eedd7a06c17e2" target="_top" xlink:title=" ">
<polygon fill="white" stroke="#666666" points="379,-97.75 311.25,-97.75 311.25,-77 379,-77 379,-97.75"/>
<text text-anchor="middle" x="345.12" y="-84.25" font-family="Helvetica,sans-Serif" font-size="10.00">w2c__f480</text>
</a>
</g>
</g>
<!-- Node3&#45;&gt;Node4 -->
<g id="edge3_Node000003_Node000004" class="edge">
<title>Node3&#45;&gt;Node4</title>
<g id="a_edge3_Node000003_Node000004"><a xlink:title=" ">
<path fill="none" stroke="#63b8ff" d="M275.69,-87.38C283.32,-87.38 291.56,-87.38 299.58,-87.38"/>
<polygon fill="#63b8ff" stroke="#63b8ff" points="299.57,-90.88 309.57,-87.38 299.57,-83.88 299.57,-90.88"/>
</a>
</g>
</g>
<!-- Node5 -->
<g id="Node000005" class="node">
<title>Node5</title>
<g id="a_Node000005"><a xlink:href="app_8c.html#a0378208e0d5c0d1d6e7370f1c578fab3" target="_top" xlink:title=" ">
<polygon fill="white" stroke="#666666" points="482.75,-174.75 415,-174.75 415,-154 482.75,-154 482.75,-174.75"/>
<text text-anchor="middle" x="448.88" y="-161.25" font-family="Helvetica,sans-Serif" font-size="10.00">w2c__f216</text>
</a>
</g>
</g>
<!-- Node4&#45;&gt;Node5 -->
<g id="edge4_Node000004_Node000005" class="edge">
<title>Node4&#45;&gt;Node5</title>
<g id="a_edge4_Node000004_Node000005"><a xlink:title=" ">
<path fill="none" stroke="#63b8ff" d="M360.03,-98.24C373.88,-109.03 395.8,-125.99 415,-140.38 417.85,-142.51 420.85,-144.73 423.83,-146.93"/>
<polygon fill="#63b8ff" stroke="#63b8ff" points="421.73,-149.73 431.87,-152.81 425.86,-144.08 421.73,-149.73"/>
</a>
</g>
</g>
<!-- Node6 -->
<g id="Node000006" class="node">
<title>Node6</title>
<g id="a_Node000006"><a xlink:href="app_8c.html#a8d9f347f9a643f0ebfb53c4f54578ac4" target="_top" xlink:title=" ">
<polygon fill="white" stroke="#666666" points="586.5,-117.75 518.75,-117.75 518.75,-97 586.5,-97 586.5,-117.75"/>
<text text-anchor="middle" x="552.62" y="-104.25" font-family="Helvetica,sans-Serif" font-size="10.00">w2c__f304</text>
</a>
</g>
</g>
<!-- Node4&#45;&gt;Node6 -->
<g id="edge11_Node000004_Node000006" class="edge">
<title>Node4&#45;&gt;Node6</title>
<g id="a_edge11_Node000004_Node000006"><a xlink:title=" ">
<path fill="none" stroke="#63b8ff" d="M376.58,-98.23C388.41,-101.91 402.18,-105.55 415,-107.38 445.48,-111.71 480.17,-111.65 506.97,-110.54"/>
<polygon fill="#63b8ff" stroke="#63b8ff" points="506.98,-114.04 516.8,-110.06 506.64,-107.05 506.98,-114.04"/>
</a>
</g>
</g>
<!-- Node7 -->
<g id="Node000007" class="node">
<title>Node7</title>
<g id="a_Node000007"><a xlink:href="app_8c.html#aaca5d5bcf49f2ca74019cf097750b9f3" target="_top" xlink:title=" ">
<polygon fill="white" stroke="#666666" points="482.75,-59.75 415,-59.75 415,-39 482.75,-39 482.75,-59.75"/>
<text text-anchor="middle" x="448.88" y="-46.25" font-family="Helvetica,sans-Serif" font-size="10.00">w2c__f258</text>
</a>
</g>
</g>
<!-- Node4&#45;&gt;Node7 -->
<g id="edge6_Node000004_Node000007" class="edge">
<title>Node4&#45;&gt;Node7</title>
<g id="a_edge6_Node000004_Node000007"><a xlink:title=" ">
<path fill="none" stroke="#63b8ff" d="M375.01,-76.59C385.32,-72.74 397.13,-68.33 408.19,-64.2"/>
<polygon fill="#63b8ff" stroke="#63b8ff" points="409.36,-67.5 417.5,-60.72 406.91,-60.94 409.36,-67.5"/>
</a>
</g>
</g>
<!-- Node9 -->
<g id="Node000009" class="node">
<title>Node9</title>
<g id="a_Node000009"><a xlink:href="app_8c.html#a4634342addbde677893ffcb45cf639dd" target="_top" xlink:title=" ">
<polygon fill="white" stroke="#666666" points="482.75,-98.75 415,-98.75 415,-78 482.75,-78 482.75,-98.75"/>
<text text-anchor="middle" x="448.88" y="-85.25" font-family="Helvetica,sans-Serif" font-size="10.00">w2c__f302</text>
</a>
</g>
</g>
<!-- Node4&#45;&gt;Node9 -->
<g id="edge9_Node000004_Node000009" class="edge">
<title>Node4&#45;&gt;Node9</title>
<g id="a_edge9_Node000004_Node000009"><a xlink:title=" ">
<path fill="none" stroke="#63b8ff" d="M379.44,-87.7C387.07,-87.78 395.31,-87.86 403.33,-87.94"/>
<polygon fill="#63b8ff" stroke="#63b8ff" points="403.28,-91.44 413.32,-88.04 403.35,-84.44 403.28,-91.44"/>
</a>
</g>
</g>
<!-- Node4&#45;&gt;Node10 -->
<g id="edge12_Node000004_Node000010" class="edge">
<title>Node4&#45;&gt;Node10</title>
<g id="a_edge12_Node000004_Node000010"><a xlink:title=" ">
<path fill="none" stroke="#63b8ff" d="M357.9,-76.74C371.28,-64.85 394.01,-45.32 415,-30.38 416.53,-29.28 418.13,-28.19 419.75,-27.11"/>
<polygon fill="#63b8ff" stroke="#63b8ff" points="421.31,-30.26 427.87,-21.94 417.55,-24.36 421.31,-30.26"/>
</a>
</g>
</g>
<!-- Node5&#45;&gt;Node6 -->
<g id="edge5_Node000005_Node000006" class="edge">
<title>Node5&#45;&gt;Node6</title>
<g id="a_edge5_Node000005_Node000006"><a xlink:title=" ">
<path fill="none" stroke="#63b8ff" d="M469.01,-153.65C484.12,-145.19 505.45,-133.24 522.65,-123.6"/>
<polygon fill="#63b8ff" stroke="#63b8ff" points="523.89,-126.92 530.91,-118.98 520.47,-120.82 523.89,-126.92"/>
</a>
</g>
</g>
<!-- Node7&#45;&gt;Node6 -->
<g id="edge7_Node000007_Node000006" class="edge">
<title>Node7&#45;&gt;Node6</title>
<g id="a_edge7_Node000007_Node000006"><a xlink:title=" ">
<path fill="none" stroke="#63b8ff" d="M468.54,-60.01C483.79,-68.71 505.6,-81.14 523.05,-91.09"/>
<polygon fill="#63b8ff" stroke="#63b8ff" points="521,-93.95 531.42,-95.86 524.47,-87.87 521,-93.95"/>
</a>
</g>
</g>
<!-- Node8 -->
<g id="Node000008" class="node">
<title>Node8</title>
<g id="a_Node000008"><a xlink:href="app_8c.html#a881f0b113e93dce3ff52d04b435850f6" target="_top" xlink:title=" ">
<polygon fill="white" stroke="#666666" points="586.5,-59.75 518.75,-59.75 518.75,-39 586.5,-39 586.5,-59.75"/>
<text text-anchor="middle" x="552.62" y="-46.25" font-family="Helvetica,sans-Serif" font-size="10.00">w2c__f491</text>
</a>
</g>
</g>
<!-- Node7&#45;&gt;Node8 -->
<g id="edge8_Node000007_Node000008" class="edge">
<title>Node7&#45;&gt;Node8</title>
<g id="a_edge8_Node000007_Node000008"><a xlink:title=" ">
<path fill="none" stroke="#63b8ff" d="M483.19,-49.38C490.82,-49.38 499.06,-49.38 507.08,-49.38"/>
<polygon fill="#63b8ff" stroke="#63b8ff" points="507.07,-52.88 517.07,-49.38 507.07,-45.88 507.07,-52.88"/>
</a>
</g>
</g>
<!-- Node9&#45;&gt;Node6 -->
<g id="edge10_Node000009_Node000006" class="edge">
<title>Node9&#45;&gt;Node6</title>
<g id="a_edge10_Node000009_Node000006"><a xlink:title=" ">
<path fill="none" stroke="#63b8ff" d="M483.19,-94.6C490.91,-96.04 499.25,-97.59 507.36,-99.11"/>
<polygon fill="#63b8ff" stroke="#63b8ff" points="506.62,-102.53 517.09,-100.93 507.91,-95.65 506.62,-102.53"/>
</a>
</g>
</g>
<!-- Node11&#45;&gt;Node3 -->
<g id="edge15_Node000011_Node000003" class="edge">
<title>Node11&#45;&gt;Node3</title>
<g id="a_edge15_Node000011_Node000003"><a xlink:title=" ">
<path fill="none" stroke="#63b8ff" d="M166.97,-59.24C177.66,-63.34 190.02,-68.08 201.51,-72.48"/>
<polygon fill="#63b8ff" stroke="#63b8ff" points="200.18,-75.72 210.77,-76.03 202.69,-69.18 200.18,-75.72"/>
</a>
</g>
</g>
</g>
</svg>
