<?xml version="1.0" encoding="UTF-8" standalone="no"?>
<!DOCTYPE svg PUBLIC "-//W3C//DTD SVG 1.1//EN"
 "http://www.w3.org/Graphics/SVG/1.1/DTD/svg11.dtd">
<!-- Generated by graphviz version 12.2.1 (0)
 -->
<!-- Title: w2c__f379 Pages: 1 -->
<svg width="574pt" height="185pt"
 viewBox="0.00 0.00 574.25 184.75" xmlns="http://www.w3.org/2000/svg" xmlns:xlink="http://www.w3.org/1999/xlink">
<g id="graph0" class="graph" transform="scale(1 1) rotate(0) translate(4 180.75)">
<title>w2c__f379</title>
<!-- Node1 -->
<g id="Node000001" class="node">
<title>Node1</title>
<g id="a_Node000001"><a xlink:title=" ">
<polygon fill="#999999" stroke="#666666" points="566.25,-98.75 498.5,-98.75 498.5,-78 566.25,-78 566.25,-98.75"/>
<text text-anchor="middle" x="532.38" y="-85.25" font-family="Helvetica,sans-Serif" font-size="10.00">w2c__f379</text>
</a>
</g>
</g>
<!-- Node2 -->
<g id="Node000002" class="node">
<title>Node2</title>
<g id="a_Node000002"><a xlink:href="app_8c.html#a72714ae0045172ec8e47538e554aff7f" target="_top" xlink:title=" ">
<polygon fill="white" stroke="#666666" points="462.5,-176.75 394.75,-176.75 394.75,-156 462.5,-156 462.5,-176.75"/>
<text text-anchor="middle" x="428.62" y="-163.25" font-family="Helvetica,sans-Serif" font-size="10.00">w2c__f251</text>
</a>
</g>
</g>
<!-- Node1&#45;&gt;Node2 -->
<g id="edge1_Node000001_Node000002" class="edge">
<title>Node1&#45;&gt;Node2</title>
<g id="a_edge1_Node000001_Node000002"><a xlink:title=" ">
<path fill="none" stroke="#63b8ff" d="M511.21,-106.78C497.82,-118.63 479.62,-134.07 462.5,-146.38 458.05,-149.57 453.08,-152.77 448.38,-155.65"/>
<polygon fill="#63b8ff" stroke="#63b8ff" points="513.4,-109.51 518.51,-100.23 508.72,-104.3 513.4,-109.51"/>
</a>
</g>
</g>
<!-- Node3 -->
<g id="Node000003" class="node">
<title>Node3</title>
<g id="a_Node000003"><a xlink:href="app_8c.html#a980a551daeb256397f01e6faa91d49db" target="_top" xlink:title=" ">
<polygon fill="white" stroke="#666666" points="462.5,-137.75 394.75,-137.75 394.75,-117 462.5,-117 462.5,-137.75"/>
<text text-anchor="middle" x="428.62" y="-124.25" font-family="Helvetica,sans-Serif" font-size="10.00">w2c__f403</text>
</a>
</g>
</g>
<!-- Node1&#45;&gt;Node3 -->
<g id="edge2_Node000001_Node000003" class="edge">
<title>Node1&#45;&gt;Node3</title>
<g id="a_edge2_Node000001_Node000003"><a xlink:title=" ">
<path fill="none" stroke="#63b8ff" d="M492.35,-103.33C480.85,-107.74 468.49,-112.48 457.82,-116.57"/>
<polygon fill="#63b8ff" stroke="#63b8ff" points="493.53,-106.63 501.62,-99.78 491.03,-100.09 493.53,-106.63"/>
</a>
</g>
</g>
<!-- Node4 -->
<g id="Node000004" class="node">
<title>Node4</title>
<g id="a_Node000004"><a xlink:href="app_8c.html#a96302817f96aee4b42b2d1383eb34b00" target="_top" xlink:title=" ">
<polygon fill="white" stroke="#666666" points="462.5,-98.75 394.75,-98.75 394.75,-78 462.5,-78 462.5,-98.75"/>
<text text-anchor="middle" x="428.62" y="-85.25" font-family="Helvetica,sans-Serif" font-size="10.00">w2c__f462</text>
</a>
</g>
</g>
<!-- Node1&#45;&gt;Node4 -->
<g id="edge3_Node000001_Node000004" class="edge">
<title>Node1&#45;&gt;Node4</title>
<g id="a_edge3_Node000001_Node000004"><a xlink:title=" ">
<path fill="none" stroke="#63b8ff" d="M486.82,-88.38C478.71,-88.38 470.38,-88.38 462.67,-88.38"/>
<polygon fill="#63b8ff" stroke="#63b8ff" points="486.54,-91.88 496.54,-88.38 486.54,-84.88 486.54,-91.88"/>
</a>
</g>
</g>
<!-- Node7 -->
<g id="Node000007" class="node">
<title>Node7</title>
<g id="a_Node000007"><a xlink:href="app_8c.html#a6724f0ad6b5e425ef0114f66f942aecd" target="_top" xlink:title=" ">
<polygon fill="white" stroke="#666666" points="462.5,-59.75 394.75,-59.75 394.75,-39 462.5,-39 462.5,-59.75"/>
<text text-anchor="middle" x="428.62" y="-46.25" font-family="Helvetica,sans-Serif" font-size="10.00">w2c__f463</text>
</a>
</g>
</g>
<!-- Node1&#45;&gt;Node7 -->
<g id="edge6_Node000001_Node000007" class="edge">
<title>Node1&#45;&gt;Node7</title>
<g id="a_edge6_Node000001_Node000007"><a xlink:title=" ">
<path fill="none" stroke="#63b8ff" d="M492.35,-73.42C480.85,-69.01 468.49,-64.27 457.82,-60.18"/>
<polygon fill="#63b8ff" stroke="#63b8ff" points="491.03,-76.66 501.62,-76.97 493.53,-70.12 491.03,-76.66"/>
</a>
</g>
</g>
<!-- Node9 -->
<g id="Node000009" class="node">
<title>Node9</title>
<g id="a_Node000009"><a xlink:href="app_8c.html#ae0b9430c5b9817fd400b62f21b77aa3d" target="_top" xlink:title=" ">
<polygon fill="white" stroke="#666666" points="358.75,-20.75 291,-20.75 291,0 358.75,0 358.75,-20.75"/>
<text text-anchor="middle" x="324.88" y="-7.25" font-family="Helvetica,sans-Serif" font-size="10.00">w2c__f480</text>
</a>
</g>
</g>
<!-- Node1&#45;&gt;Node9 -->
<g id="edge12_Node000001_Node000009" class="edge">
<title>Node1&#45;&gt;Node9</title>
<g id="a_edge12_Node000001_Node000009"><a xlink:title=" ">
<path fill="none" stroke="#63b8ff" d="M514.81,-69.73C501.92,-56.5 482.85,-39.53 462.5,-30.38 429.38,-15.48 387.61,-11.21 359.03,-10.21"/>
<polygon fill="#63b8ff" stroke="#63b8ff" points="511.91,-71.76 521.3,-76.66 517.02,-66.97 511.91,-71.76"/>
</a>
</g>
</g>
<!-- Node5 -->
<g id="Node000005" class="node">
<title>Node5</title>
<g id="a_Node000005"><a xlink:href="app_8c.html#a1581df0bdfa942524e0a5dce91fd6b8e" target="_top" xlink:title=" ">
<polygon fill="white" stroke="#666666" points="358.75,-137.75 291,-137.75 291,-117 358.75,-117 358.75,-137.75"/>
<text text-anchor="middle" x="324.88" y="-124.25" font-family="Helvetica,sans-Serif" font-size="10.00">w2c__f253</text>
</a>
</g>
</g>
<!-- Node4&#45;&gt;Node5 -->
<g id="edge4_Node000004_Node000005" class="edge">
<title>Node4&#45;&gt;Node5</title>
<g id="a_edge4_Node000004_Node000005"><a xlink:title=" ">
<path fill="none" stroke="#63b8ff" d="M388.6,-103.33C377.1,-107.74 364.74,-112.48 354.07,-116.57"/>
<polygon fill="#63b8ff" stroke="#63b8ff" points="389.78,-106.63 397.87,-99.78 387.28,-100.09 389.78,-106.63"/>
</a>
</g>
</g>
<!-- Node6 -->
<g id="Node000006" class="node">
<title>Node6</title>
<g id="a_Node000006"><a xlink:href="app_8c.html#a05d83e696cfaa26355c9732ee9ea4cd0" target="_top" xlink:title=" ">
<polygon fill="white" stroke="#666666" points="358.75,-98.75 291,-98.75 291,-78 358.75,-78 358.75,-98.75"/>
<text text-anchor="middle" x="324.88" y="-85.25" font-family="Helvetica,sans-Serif" font-size="10.00">w2c__f454</text>
</a>
</g>
</g>
<!-- Node4&#45;&gt;Node6 -->
<g id="edge5_Node000004_Node000006" class="edge">
<title>Node4&#45;&gt;Node6</title>
<g id="a_edge5_Node000004_Node000006"><a xlink:title=" ">
<path fill="none" stroke="#63b8ff" d="M383.07,-88.38C374.96,-88.38 366.63,-88.38 358.92,-88.38"/>
<polygon fill="#63b8ff" stroke="#63b8ff" points="382.79,-91.88 392.79,-88.38 382.79,-84.88 382.79,-91.88"/>
</a>
</g>
</g>
<!-- Node8 -->
<g id="Node000008" class="node">
<title>Node8</title>
<g id="a_Node000008"><a xlink:href="app_8c.html#a8e5c79c58cd47bf966e1930b1882aacb" target="_top" xlink:title=" ">
<polygon fill="white" stroke="#666666" points="358.75,-59.75 291,-59.75 291,-39 358.75,-39 358.75,-59.75"/>
<text text-anchor="middle" x="324.88" y="-46.25" font-family="Helvetica,sans-Serif" font-size="10.00">w2c__f355</text>
</a>
</g>
</g>
<!-- Node7&#45;&gt;Node8 -->
<g id="edge7_Node000007_Node000008" class="edge">
<title>Node7&#45;&gt;Node8</title>
<g id="a_edge7_Node000007_Node000008"><a xlink:title=" ">
<path fill="none" stroke="#63b8ff" d="M383.07,-49.38C374.96,-49.38 366.63,-49.38 358.92,-49.38"/>
<polygon fill="#63b8ff" stroke="#63b8ff" points="382.79,-52.88 392.79,-49.38 382.79,-45.88 382.79,-52.88"/>
</a>
</g>
</g>
<!-- Node7&#45;&gt;Node9 -->
<g id="edge8_Node000007_Node000009" class="edge">
<title>Node7&#45;&gt;Node9</title>
<g id="a_edge8_Node000007_Node000009"><a xlink:title=" ">
<path fill="none" stroke="#63b8ff" d="M388.6,-34.42C377.1,-30.01 364.74,-25.27 354.07,-21.18"/>
<polygon fill="#63b8ff" stroke="#63b8ff" points="387.28,-37.66 397.87,-37.97 389.78,-31.12 387.28,-37.66"/>
</a>
</g>
</g>
<!-- Node10 -->
<g id="Node000010" class="node">
<title>Node10</title>
<g id="a_Node000010"><a xlink:href="app_8c.html#a8f312e54d76623b1ae169d5d19736ee0" target="_top" xlink:title=" ">
<polygon fill="white" stroke="#666666" points="255,-20.75 187.25,-20.75 187.25,0 255,0 255,-20.75"/>
<text text-anchor="middle" x="221.12" y="-7.25" font-family="Helvetica,sans-Serif" font-size="10.00">w2c__f363</text>
</a>
</g>
</g>
<!-- Node9&#45;&gt;Node10 -->
<g id="edge9_Node000009_Node000010" class="edge">
<title>Node9&#45;&gt;Node10</title>
<g id="a_edge9_Node000009_Node000010"><a xlink:title=" ">
<path fill="none" stroke="#63b8ff" d="M279.32,-10.38C271.21,-10.38 262.88,-10.38 255.17,-10.38"/>
<polygon fill="#63b8ff" stroke="#63b8ff" points="279.04,-13.88 289.04,-10.38 279.04,-6.88 279.04,-13.88"/>
</a>
</g>
</g>
<!-- Node11 -->
<g id="Node000011" class="node">
<title>Node11</title>
<g id="a_Node000011"><a xlink:href="app_8c.html#a26657f10c51f10eeb57a4d27606a6885" target="_top" xlink:title=" ">
<polygon fill="white" stroke="#666666" points="151.25,-20.75 88,-20.75 88,0 151.25,0 151.25,-20.75"/>
<text text-anchor="middle" x="119.62" y="-7.25" font-family="Helvetica,sans-Serif" font-size="10.00">w2c__b_0</text>
</a>
</g>
</g>
<!-- Node10&#45;&gt;Node11 -->
<g id="edge10_Node000010_Node000011" class="edge">
<title>Node10&#45;&gt;Node11</title>
<g id="a_edge10_Node000010_Node000011"><a xlink:title=" ">
<path fill="none" stroke="#63b8ff" d="M175.71,-10.38C167.57,-10.38 159.23,-10.38 151.59,-10.38"/>
<polygon fill="#63b8ff" stroke="#63b8ff" points="175.48,-13.88 185.48,-10.38 175.48,-6.88 175.48,-13.88"/>
</a>
</g>
</g>
<!-- Node12 -->
<g id="Node000012" class="node">
<title>Node12</title>
<g id="a_Node000012"><a xlink:href="app_8c.html#a683a2045346c3209e9dac20d55933c7d" target="_top" xlink:title=" ">
<polygon fill="white" stroke="#666666" points="52,-20.75 0,-20.75 0,0 52,0 52,-20.75"/>
<text text-anchor="middle" x="26" y="-7.25" font-family="Helvetica,sans-Serif" font-size="10.00">w2c__b</text>
</a>
</g>
</g>
<!-- Node11&#45;&gt;Node12 -->
<g id="edge11_Node000011_Node000012" class="edge">
<title>Node11&#45;&gt;Node12</title>
<g id="a_edge11_Node000011_Node000012"><a xlink:title=" ">
<path fill="none" stroke="#63b8ff" d="M76.21,-10.38C68,-10.38 59.65,-10.38 52.21,-10.38"/>
<polygon fill="#63b8ff" stroke="#63b8ff" points="76.09,-13.88 86.09,-10.38 76.09,-6.88 76.09,-13.88"/>
</a>
</g>
</g>
</g>
</svg>
