<?xml version="1.0" encoding="UTF-8" standalone="no"?>
<!DOCTYPE svg PUBLIC "-//W3C//DTD SVG 1.1//EN"
 "http://www.w3.org/Graphics/SVG/1.1/DTD/svg11.dtd">
<!-- Generated by graphviz version 12.2.1 (0)
 -->
<!-- Title: w2c__f521 Pages: 1 -->
<svg width="389pt" height="263pt"
 viewBox="0.00 0.00 389.25 262.75" xmlns="http://www.w3.org/2000/svg" xmlns:xlink="http://www.w3.org/1999/xlink">
<g id="graph0" class="graph" transform="scale(1 1) rotate(0) translate(4 258.75)">
<title>w2c__f521</title>
<!-- Node1 -->
<g id="Node000001" class="node">
<title>Node1</title>
<g id="a_Node000001"><a xlink:title=" ">
<polygon fill="#999999" stroke="#666666" points="67.75,-78.75 0,-78.75 0,-58 67.75,-58 67.75,-78.75"/>
<text text-anchor="middle" x="33.88" y="-65.25" font-family="Helvetica,sans-Serif" font-size="10.00">w2c__f521</text>
</a>
</g>
</g>
<!-- Node2 -->
<g id="Node000002" class="node">
<title>Node2</title>
<g id="a_Node000002"><a xlink:href="app_8c.html#a56cf0f5815986424476e939e9eff4a5d" target="_top" xlink:title=" ">
<polygon fill="white" stroke="#666666" points="171.5,-137.75 103.75,-137.75 103.75,-117 171.5,-117 171.5,-137.75"/>
<text text-anchor="middle" x="137.62" y="-124.25" font-family="Helvetica,sans-Serif" font-size="10.00">w2c__f309</text>
</a>
</g>
</g>
<!-- Node1&#45;&gt;Node2 -->
<g id="edge1_Node000001_Node000002" class="edge">
<title>Node1&#45;&gt;Node2</title>
<g id="a_edge1_Node000001_Node000002"><a xlink:title=" ">
<path fill="none" stroke="#63b8ff" d="M53.54,-79.2C68.88,-88.1 90.88,-100.85 108.38,-111"/>
<polygon fill="#63b8ff" stroke="#63b8ff" points="106.36,-113.87 116.77,-115.86 109.88,-107.82 106.36,-113.87"/>
</a>
</g>
</g>
<!-- Node11 -->
<g id="Node000011" class="node">
<title>Node11</title>
<g id="a_Node000011"><a xlink:href="app_8c.html#add4d055f1b0a5f9d6ed6496dfffa6206" target="_top" xlink:title=" ">
<polygon fill="white" stroke="#666666" points="171.5,-59.75 103.75,-59.75 103.75,-39 171.5,-39 171.5,-59.75"/>
<text text-anchor="middle" x="137.62" y="-46.25" font-family="Helvetica,sans-Serif" font-size="10.00">w2c__f535</text>
</a>
</g>
</g>
<!-- Node1&#45;&gt;Node11 -->
<g id="edge11_Node000001_Node000011" class="edge">
<title>Node1&#45;&gt;Node11</title>
<g id="a_edge11_Node000001_Node000011"><a xlink:title=" ">
<path fill="none" stroke="#63b8ff" d="M68.19,-62.15C75.91,-60.71 84.25,-59.16 92.36,-57.64"/>
<polygon fill="#63b8ff" stroke="#63b8ff" points="92.91,-61.1 102.09,-55.82 91.62,-54.22 92.91,-61.1"/>
</a>
</g>
</g>
<!-- Node3 -->
<g id="Node000003" class="node">
<title>Node3</title>
<g id="a_Node000003"><a xlink:href="app_8c.html#a0164717ce31d2df5fee540951caebe62" target="_top" xlink:title=" ">
<polygon fill="white" stroke="#666666" points="277.5,-254.75 207.5,-254.75 207.5,-234 277.5,-234 277.5,-254.75"/>
<text text-anchor="middle" x="242.5" y="-241.25" font-family="Helvetica,sans-Serif" font-size="10.00">w2c_0_181</text>
</a>
</g>
</g>
<!-- Node2&#45;&gt;Node3 -->
<g id="edge2_Node000002_Node000003" class="edge">
<title>Node2&#45;&gt;Node3</title>
<g id="a_edge2_Node000002_Node000003"><a xlink:title=" ">
<path fill="none" stroke="#63b8ff" d="M144.23,-138.1C154.65,-157.26 178.59,-197.84 207.5,-224.38 208.55,-225.34 209.65,-226.28 210.8,-227.19"/>
<polygon fill="#63b8ff" stroke="#63b8ff" points="208.59,-229.92 218.8,-232.75 212.59,-224.17 208.59,-229.92"/>
</a>
</g>
</g>
<!-- Node4 -->
<g id="Node000004" class="node">
<title>Node4</title>
<g id="a_Node000004"><a xlink:href="app_8c.html#a4f89434e73555473a637aa72f93ac987" target="_top" xlink:title=" ">
<polygon fill="white" stroke="#666666" points="274.5,-215.75 210.5,-215.75 210.5,-195 274.5,-195 274.5,-215.75"/>
<text text-anchor="middle" x="242.5" y="-202.25" font-family="Helvetica,sans-Serif" font-size="10.00">w2c_0_50</text>
</a>
</g>
</g>
<!-- Node2&#45;&gt;Node4 -->
<g id="edge3_Node000002_Node000004" class="edge">
<title>Node2&#45;&gt;Node4</title>
<g id="a_edge3_Node000002_Node000004"><a xlink:title=" ">
<path fill="none" stroke="#63b8ff" d="M149.85,-137.85C163.1,-149.97 186.06,-170.21 207.5,-185.38 209.04,-186.46 210.64,-187.55 212.27,-188.62"/>
<polygon fill="#63b8ff" stroke="#63b8ff" points="210.1,-191.39 220.44,-193.7 213.8,-185.45 210.1,-191.39"/>
</a>
</g>
</g>
<!-- Node5 -->
<g id="Node000005" class="node">
<title>Node5</title>
<g id="a_Node000005"><a xlink:href="app_8c.html#a48ecc1104e7460873bafe7d1b275e34e" target="_top" xlink:title=" ">
<polygon fill="white" stroke="#666666" points="274.5,-176.75 210.5,-176.75 210.5,-156 274.5,-156 274.5,-176.75"/>
<text text-anchor="middle" x="242.5" y="-163.25" font-family="Helvetica,sans-Serif" font-size="10.00">w2c_0_87</text>
</a>
</g>
</g>
<!-- Node2&#45;&gt;Node5 -->
<g id="edge4_Node000002_Node000005" class="edge">
<title>Node2&#45;&gt;Node5</title>
<g id="a_edge4_Node000002_Node000005"><a xlink:title=" ">
<path fill="none" stroke="#63b8ff" d="M167.28,-138.24C178.21,-142.38 190.85,-147.17 202.57,-151.62"/>
<polygon fill="#63b8ff" stroke="#63b8ff" points="200.99,-154.76 211.58,-155.03 203.47,-148.22 200.99,-154.76"/>
</a>
</g>
</g>
<!-- Node6 -->
<g id="Node000006" class="node">
<title>Node6</title>
<g id="a_Node000006"><a xlink:href="app_8c.html#a03fa34d93d32a3ee40dfc2d840730111" target="_top" xlink:title=" ">
<polygon fill="white" stroke="#666666" points="276.38,-137.75 208.62,-137.75 208.62,-117 276.38,-117 276.38,-137.75"/>
<text text-anchor="middle" x="242.5" y="-124.25" font-family="Helvetica,sans-Serif" font-size="10.00">w2c__f262</text>
</a>
</g>
</g>
<!-- Node2&#45;&gt;Node6 -->
<g id="edge5_Node000002_Node000006" class="edge">
<title>Node2&#45;&gt;Node6</title>
<g id="a_edge5_Node000002_Node000006"><a xlink:title=" ">
<path fill="none" stroke="#63b8ff" d="M171.74,-127.38C179.82,-127.38 188.59,-127.38 197.1,-127.38"/>
<polygon fill="#63b8ff" stroke="#63b8ff" points="196.93,-130.88 206.93,-127.38 196.93,-123.88 196.93,-130.88"/>
</a>
</g>
</g>
<!-- Node9 -->
<g id="Node000009" class="node">
<title>Node9</title>
<g id="a_Node000009"><a xlink:href="app_8c.html#aa583f182f69261eb6417ee28acf1bedb" target="_top" xlink:title=" ">
<polygon fill="white" stroke="#666666" points="276.38,-98.75 208.62,-98.75 208.62,-78 276.38,-78 276.38,-98.75"/>
<text text-anchor="middle" x="242.5" y="-85.25" font-family="Helvetica,sans-Serif" font-size="10.00">w2c__f416</text>
</a>
</g>
</g>
<!-- Node2&#45;&gt;Node9 -->
<g id="edge8_Node000002_Node000009" class="edge">
<title>Node2&#45;&gt;Node9</title>
<g id="a_edge8_Node000002_Node000009"><a xlink:title=" ">
<path fill="none" stroke="#63b8ff" d="M167.28,-116.51C178.21,-112.37 190.85,-107.58 202.57,-103.13"/>
<polygon fill="#63b8ff" stroke="#63b8ff" points="203.47,-106.53 211.58,-99.72 200.99,-99.99 203.47,-106.53"/>
</a>
</g>
</g>
<!-- Node10 -->
<g id="Node000010" class="node">
<title>Node10</title>
<g id="a_Node000010"><a xlink:href="app_8c.html#a800df00ef236c6d6affc3c661b37e3ad" target="_top" xlink:title=" ">
<polygon fill="white" stroke="#666666" points="276.38,-59.75 208.62,-59.75 208.62,-39 276.38,-39 276.38,-59.75"/>
<text text-anchor="middle" x="242.5" y="-46.25" font-family="Helvetica,sans-Serif" font-size="10.00">w2c__f487</text>
</a>
</g>
</g>
<!-- Node2&#45;&gt;Node10 -->
<g id="edge9_Node000002_Node000010" class="edge">
<title>Node2&#45;&gt;Node10</title>
<g id="a_edge9_Node000002_Node000010"><a xlink:title=" ">
<path fill="none" stroke="#63b8ff" d="M149.85,-116.9C163.1,-104.78 186.06,-84.54 207.5,-69.38 209.04,-68.29 210.64,-67.2 212.27,-66.13"/>
<polygon fill="#63b8ff" stroke="#63b8ff" points="213.8,-69.3 220.44,-61.05 210.1,-63.36 213.8,-69.3"/>
</a>
</g>
</g>
<!-- Node7 -->
<g id="Node000007" class="node">
<title>Node7</title>
<g id="a_Node000007"><a xlink:href="app_8c.html#a16207b5f7a97b0ecfddd231452c5aa7e" target="_top" xlink:title=" ">
<polygon fill="white" stroke="#666666" points="381.25,-137.75 313.5,-137.75 313.5,-117 381.25,-117 381.25,-137.75"/>
<text text-anchor="middle" x="347.38" y="-124.25" font-family="Helvetica,sans-Serif" font-size="10.00">w2c__f263</text>
</a>
</g>
</g>
<!-- Node6&#45;&gt;Node7 -->
<g id="edge6_Node000006_Node000007" class="edge">
<title>Node6&#45;&gt;Node7</title>
<g id="a_edge6_Node000006_Node000007"><a xlink:title=" ">
<path fill="none" stroke="#63b8ff" d="M276.62,-127.38C284.69,-127.38 293.46,-127.38 301.97,-127.38"/>
<polygon fill="#63b8ff" stroke="#63b8ff" points="301.81,-130.88 311.81,-127.38 301.81,-123.88 301.81,-130.88"/>
</a>
</g>
</g>
<!-- Node8 -->
<g id="Node000008" class="node">
<title>Node8</title>
<g id="a_Node000008"><a xlink:href="app_8c.html#a71bcbce7faf780cd081af3fa82d6da97" target="_top" xlink:title=" ">
<polygon fill="white" stroke="#666666" points="381.25,-79.75 313.5,-79.75 313.5,-59 381.25,-59 381.25,-79.75"/>
<text text-anchor="middle" x="347.38" y="-66.25" font-family="Helvetica,sans-Serif" font-size="10.00">w2c__f437</text>
</a>
</g>
</g>
<!-- Node6&#45;&gt;Node8 -->
<g id="edge7_Node000006_Node000008" class="edge">
<title>Node6&#45;&gt;Node8</title>
<g id="a_edge7_Node000006_Node000008"><a xlink:title=" ">
<path fill="none" stroke="#63b8ff" d="M262.37,-116.74C277.79,-108.04 299.84,-95.61 317.48,-85.66"/>
<polygon fill="#63b8ff" stroke="#63b8ff" points="318.97,-88.85 325.96,-80.89 315.53,-82.75 318.97,-88.85"/>
</a>
</g>
</g>
<!-- Node10&#45;&gt;Node8 -->
<g id="edge10_Node000010_Node000008" class="edge">
<title>Node10&#45;&gt;Node8</title>
<g id="a_edge10_Node000010_Node000008"><a xlink:title=" ">
<path fill="none" stroke="#63b8ff" d="M276.62,-55.81C284.78,-57.4 293.66,-59.13 302.26,-60.8"/>
<polygon fill="#63b8ff" stroke="#63b8ff" points="301.35,-64.19 311.83,-62.66 302.69,-57.32 301.35,-64.19"/>
</a>
</g>
</g>
<!-- Node12 -->
<g id="Node000012" class="node">
<title>Node12</title>
<g id="a_Node000012"><a xlink:href="app_8c.html#a5d082dff6c4c25de25da9f4dc538c097" target="_top" xlink:title=" ">
<polygon fill="white" stroke="#666666" points="276.38,-20.75 208.62,-20.75 208.62,0 276.38,0 276.38,-20.75"/>
<text text-anchor="middle" x="242.5" y="-7.25" font-family="Helvetica,sans-Serif" font-size="10.00">w2c__f265</text>
</a>
</g>
</g>
<!-- Node11&#45;&gt;Node12 -->
<g id="edge12_Node000011_Node000012" class="edge">
<title>Node11&#45;&gt;Node12</title>
<g id="a_edge12_Node000011_Node000012"><a xlink:title=" ">
<path fill="none" stroke="#63b8ff" d="M167.28,-38.51C178.21,-34.37 190.85,-29.58 202.57,-25.13"/>
<polygon fill="#63b8ff" stroke="#63b8ff" points="203.47,-28.53 211.58,-21.72 200.99,-21.99 203.47,-28.53"/>
</a>
</g>
</g>
</g>
</svg>
