<?xml version="1.0" encoding="UTF-8" standalone="no"?>
<!DOCTYPE svg PUBLIC "-//W3C//DTD SVG 1.1//EN"
 "http://www.w3.org/Graphics/SVG/1.1/DTD/svg11.dtd">
<!-- Generated by graphviz version 12.2.1 (0)
 -->
<!-- Title: w2c__f252 Pages: 1 -->
<svg width="604pt" height="457pt"
 viewBox="0.00 0.00 604.25 456.75" xmlns="http://www.w3.org/2000/svg" xmlns:xlink="http://www.w3.org/1999/xlink">
<g id="graph0" class="graph" transform="scale(1 1) rotate(0) translate(4 452.75)">
<title>w2c__f252</title>
<!-- Node1 -->
<g id="Node000001" class="node">
<title>Node1</title>
<g id="a_Node000001"><a xlink:title=" ">
<polygon fill="#999999" stroke="#666666" points="67.75,-214.75 0,-214.75 0,-194 67.75,-194 67.75,-214.75"/>
<text text-anchor="middle" x="33.88" y="-201.25" font-family="Helvetica,sans-Serif" font-size="10.00">w2c__f252</text>
</a>
</g>
</g>
<!-- Node2 -->
<g id="Node000002" class="node">
<title>Node2</title>
<g id="a_Node000002"><a xlink:href="app_8c.html#ae42480847be1e319c571d8bc8695d191" target="_top" xlink:title=" ">
<polygon fill="white" stroke="#666666" points="175.25,-331.75 107.5,-331.75 107.5,-311 175.25,-311 175.25,-331.75"/>
<text text-anchor="middle" x="141.38" y="-318.25" font-family="Helvetica,sans-Serif" font-size="10.00">w2c__f223</text>
</a>
</g>
</g>
<!-- Node1&#45;&gt;Node2 -->
<g id="edge1_Node000001_Node000002" class="edge">
<title>Node1&#45;&gt;Node2</title>
<g id="a_edge1_Node000001_Node000002"><a xlink:title=" ">
<path fill="none" stroke="#63b8ff" d="M44.61,-215.17C62.51,-235.02 100.86,-277.55 123.22,-302.35"/>
<polygon fill="#63b8ff" stroke="#63b8ff" points="120.35,-304.4 129.65,-309.48 125.55,-299.71 120.35,-304.4"/>
</a>
</g>
</g>
<!-- Node12 -->
<g id="Node000012" class="node">
<title>Node12</title>
<g id="a_Node000012"><a xlink:href="app_8c.html#a4672aaf978b08eef7ca3d8390381c886" target="_top" xlink:title=" ">
<polygon fill="white" stroke="#666666" points="175.25,-234.75 107.5,-234.75 107.5,-214 175.25,-214 175.25,-234.75"/>
<text text-anchor="middle" x="141.38" y="-221.25" font-family="Helvetica,sans-Serif" font-size="10.00">w2c__f310</text>
</a>
</g>
</g>
<!-- Node1&#45;&gt;Node12 -->
<g id="edge16_Node000001_Node000012" class="edge">
<title>Node1&#45;&gt;Node12</title>
<g id="a_edge16_Node000001_Node000012"><a xlink:title=" ">
<path fill="none" stroke="#63b8ff" d="M67.97,-210.65C76.82,-212.33 86.53,-214.17 95.88,-215.94"/>
<polygon fill="#63b8ff" stroke="#63b8ff" points="95.07,-219.35 105.55,-217.77 96.38,-212.47 95.07,-219.35"/>
</a>
</g>
</g>
<!-- Node20 -->
<g id="Node000020" class="node">
<title>Node20</title>
<g id="a_Node000020"><a xlink:href="app_8c.html#aaf013b2b29372f4a479047d0c464d3ba" target="_top" xlink:title=" ">
<polygon fill="white" stroke="#666666" points="175.25,-195.75 107.5,-195.75 107.5,-175 175.25,-175 175.25,-195.75"/>
<text text-anchor="middle" x="141.38" y="-182.25" font-family="Helvetica,sans-Serif" font-size="10.00">w2c__f401</text>
</a>
</g>
</g>
<!-- Node1&#45;&gt;Node20 -->
<g id="edge24_Node000001_Node000020" class="edge">
<title>Node1&#45;&gt;Node20</title>
<g id="a_edge24_Node000001_Node000020"><a xlink:title=" ">
<path fill="none" stroke="#63b8ff" d="M67.97,-198.42C76.82,-196.82 86.53,-195.07 95.88,-193.39"/>
<polygon fill="#63b8ff" stroke="#63b8ff" points="96.33,-196.86 105.55,-191.65 95.09,-189.97 96.33,-196.86"/>
</a>
</g>
</g>
<!-- Node23 -->
<g id="Node000023" class="node">
<title>Node23</title>
<g id="a_Node000023"><a xlink:href="app_8c.html#abe22e959f965cb0fbcf5b83be18fbe1e" target="_top" xlink:title=" ">
<polygon fill="white" stroke="#666666" points="179,-98.75 103.75,-98.75 103.75,-78 179,-78 179,-98.75"/>
<text text-anchor="middle" x="141.38" y="-85.25" font-family="Helvetica,sans-Serif" font-size="10.00">wasm_quiet</text>
</a>
</g>
</g>
<!-- Node1&#45;&gt;Node23 -->
<g id="edge33_Node000001_Node000023" class="edge">
<title>Node1&#45;&gt;Node23</title>
<g id="a_edge33_Node000001_Node000023"><a xlink:title=" ">
<path fill="none" stroke="#63b8ff" d="M44.61,-193.67C62.43,-174.07 100.52,-132.19 122.92,-107.57"/>
<polygon fill="#63b8ff" stroke="#63b8ff" points="125.51,-109.93 129.64,-100.17 120.33,-105.22 125.51,-109.93"/>
</a>
</g>
</g>
<!-- Node3 -->
<g id="Node000003" class="node">
<title>Node3</title>
<g id="a_Node000003"><a xlink:href="app_8c.html#a1a8a1d528c65d63a630e19c3a4bdd098" target="_top" xlink:title=" ">
<polygon fill="white" stroke="#666666" points="283.88,-371.75 216.12,-371.75 216.12,-351 283.88,-351 283.88,-371.75"/>
<text text-anchor="middle" x="250" y="-358.25" font-family="Helvetica,sans-Serif" font-size="10.00">w2c__f557</text>
</a>
</g>
</g>
<!-- Node2&#45;&gt;Node3 -->
<g id="edge2_Node000002_Node000003" class="edge">
<title>Node2&#45;&gt;Node3</title>
<g id="a_edge2_Node000002_Node000003"><a xlink:title=" ">
<path fill="none" stroke="#63b8ff" d="M171.23,-332.2C182.96,-336.6 196.72,-341.76 209.37,-346.51"/>
<polygon fill="#63b8ff" stroke="#63b8ff" points="208.11,-349.77 218.71,-350.01 210.57,-343.22 208.11,-349.77"/>
</a>
</g>
</g>
<!-- Node4 -->
<g id="Node000004" class="node">
<title>Node4</title>
<g id="a_Node000004"><a xlink:href="app_8c.html#a0f7003812eaf983535ff7979fc047a21" target="_top" xlink:title=" ">
<polygon fill="white" stroke="#666666" points="388.75,-410.75 321,-410.75 321,-390 388.75,-390 388.75,-410.75"/>
<text text-anchor="middle" x="354.88" y="-397.25" font-family="Helvetica,sans-Serif" font-size="10.00">w2c__f353</text>
</a>
</g>
</g>
<!-- Node3&#45;&gt;Node4 -->
<g id="edge3_Node000003_Node000004" class="edge">
<title>Node3&#45;&gt;Node4</title>
<g id="a_edge3_Node000003_Node000004"><a xlink:title=" ">
<path fill="none" stroke="#63b8ff" d="M279.66,-372.24C290.58,-376.38 303.22,-381.17 314.94,-385.62"/>
<polygon fill="#63b8ff" stroke="#63b8ff" points="313.37,-388.76 323.96,-389.03 315.85,-382.22 313.37,-388.76"/>
</a>
</g>
</g>
<!-- Node9 -->
<g id="Node000009" class="node">
<title>Node9</title>
<g id="a_Node000009"><a xlink:href="app_8c.html#ac9cc84763a9c1933e50eedd7a06c17e2" target="_top" xlink:title=" ">
<polygon fill="white" stroke="#666666" points="388.75,-371.75 321,-371.75 321,-351 388.75,-351 388.75,-371.75"/>
<text text-anchor="middle" x="354.88" y="-358.25" font-family="Helvetica,sans-Serif" font-size="10.00">w2c__f480</text>
</a>
</g>
</g>
<!-- Node3&#45;&gt;Node9 -->
<g id="edge9_Node000003_Node000009" class="edge">
<title>Node3&#45;&gt;Node9</title>
<g id="a_edge9_Node000003_Node000009"><a xlink:title=" ">
<path fill="none" stroke="#63b8ff" d="M284.12,-361.38C292.19,-361.38 300.96,-361.38 309.47,-361.38"/>
<polygon fill="#63b8ff" stroke="#63b8ff" points="309.31,-364.88 319.31,-361.38 309.31,-357.88 309.31,-364.88"/>
</a>
</g>
</g>
<!-- Node5 -->
<g id="Node000005" class="node">
<title>Node5</title>
<g id="a_Node000005"><a xlink:href="app_8c.html#aaca5d5bcf49f2ca74019cf097750b9f3" target="_top" xlink:title=" ">
<polygon fill="white" stroke="#666666" points="492.5,-448.75 424.75,-448.75 424.75,-428 492.5,-428 492.5,-448.75"/>
<text text-anchor="middle" x="458.62" y="-435.25" font-family="Helvetica,sans-Serif" font-size="10.00">w2c__f258</text>
</a>
</g>
</g>
<!-- Node4&#45;&gt;Node5 -->
<g id="edge4_Node000004_Node000005" class="edge">
<title>Node4&#45;&gt;Node5</title>
<g id="a_edge4_Node000004_Node000005"><a xlink:title=" ">
<path fill="none" stroke="#63b8ff" d="M384.76,-411.16C395.07,-415.01 406.88,-419.42 417.94,-423.55"/>
<polygon fill="#63b8ff" stroke="#63b8ff" points="416.66,-426.81 427.25,-427.03 419.11,-420.25 416.66,-426.81"/>
</a>
</g>
</g>
<!-- Node8 -->
<g id="Node000008" class="node">
<title>Node8</title>
<g id="a_Node000008"><a xlink:href="app_8c.html#a4634342addbde677893ffcb45cf639dd" target="_top" xlink:title=" ">
<polygon fill="white" stroke="#666666" points="492.5,-409.75 424.75,-409.75 424.75,-389 492.5,-389 492.5,-409.75"/>
<text text-anchor="middle" x="458.62" y="-396.25" font-family="Helvetica,sans-Serif" font-size="10.00">w2c__f302</text>
</a>
</g>
</g>
<!-- Node4&#45;&gt;Node8 -->
<g id="edge7_Node000004_Node000008" class="edge">
<title>Node4&#45;&gt;Node8</title>
<g id="a_edge7_Node000004_Node000008"><a xlink:title=" ">
<path fill="none" stroke="#63b8ff" d="M389.19,-400.05C396.82,-399.97 405.06,-399.89 413.08,-399.81"/>
<polygon fill="#63b8ff" stroke="#63b8ff" points="413.1,-403.31 423.07,-399.71 413.03,-396.31 413.1,-403.31"/>
</a>
</g>
</g>
<!-- Node6 -->
<g id="Node000006" class="node">
<title>Node6</title>
<g id="a_Node000006"><a xlink:href="app_8c.html#a8d9f347f9a643f0ebfb53c4f54578ac4" target="_top" xlink:title=" ">
<polygon fill="white" stroke="#666666" points="596.25,-390.75 528.5,-390.75 528.5,-370 596.25,-370 596.25,-390.75"/>
<text text-anchor="middle" x="562.38" y="-377.25" font-family="Helvetica,sans-Serif" font-size="10.00">w2c__f304</text>
</a>
</g>
</g>
<!-- Node5&#45;&gt;Node6 -->
<g id="edge5_Node000005_Node000006" class="edge">
<title>Node5&#45;&gt;Node6</title>
<g id="a_edge5_Node000005_Node000006"><a xlink:title=" ">
<path fill="none" stroke="#63b8ff" d="M478.29,-427.74C493.54,-419.04 515.35,-406.61 532.8,-396.66"/>
<polygon fill="#63b8ff" stroke="#63b8ff" points="534.22,-399.88 541.17,-391.89 530.75,-393.8 534.22,-399.88"/>
</a>
</g>
</g>
<!-- Node7 -->
<g id="Node000007" class="node">
<title>Node7</title>
<g id="a_Node000007"><a xlink:href="app_8c.html#a881f0b113e93dce3ff52d04b435850f6" target="_top" xlink:title=" ">
<polygon fill="white" stroke="#666666" points="596.25,-448.75 528.5,-448.75 528.5,-428 596.25,-428 596.25,-448.75"/>
<text text-anchor="middle" x="562.38" y="-435.25" font-family="Helvetica,sans-Serif" font-size="10.00">w2c__f491</text>
</a>
</g>
</g>
<!-- Node5&#45;&gt;Node7 -->
<g id="edge6_Node000005_Node000007" class="edge">
<title>Node5&#45;&gt;Node7</title>
<g id="a_edge6_Node000005_Node000007"><a xlink:title=" ">
<path fill="none" stroke="#63b8ff" d="M492.94,-438.38C500.57,-438.38 508.81,-438.38 516.83,-438.38"/>
<polygon fill="#63b8ff" stroke="#63b8ff" points="516.82,-441.88 526.82,-438.38 516.82,-434.88 516.82,-441.88"/>
</a>
</g>
</g>
<!-- Node8&#45;&gt;Node6 -->
<g id="edge8_Node000008_Node000006" class="edge">
<title>Node8&#45;&gt;Node6</title>
<g id="a_edge8_Node000008_Node000006"><a xlink:title=" ">
<path fill="none" stroke="#63b8ff" d="M492.94,-393.15C500.66,-391.71 509,-390.16 517.11,-388.64"/>
<polygon fill="#63b8ff" stroke="#63b8ff" points="517.66,-392.1 526.84,-386.82 516.37,-385.22 517.66,-392.1"/>
</a>
</g>
</g>
<!-- Node9&#45;&gt;Node5 -->
<g id="edge12_Node000009_Node000005" class="edge">
<title>Node9&#45;&gt;Node5</title>
<g id="a_edge12_Node000009_Node000005"><a xlink:title=" ">
<path fill="none" stroke="#63b8ff" d="M375.54,-372.23C380.03,-375 384.67,-378.13 388.75,-381.38 406.69,-395.67 406.81,-404.08 424.75,-418.38 426.02,-419.39 427.35,-420.39 428.72,-421.38"/>
<polygon fill="#63b8ff" stroke="#63b8ff" points="426.43,-424.06 436.7,-426.69 430.31,-418.23 426.43,-424.06"/>
</a>
</g>
</g>
<!-- Node9&#45;&gt;Node6 -->
<g id="edge14_Node000009_Node000006" class="edge">
<title>Node9&#45;&gt;Node6</title>
<g id="a_edge14_Node000009_Node000006"><a xlink:title=" ">
<path fill="none" stroke="#63b8ff" d="M388.89,-364.43C423.54,-367.63 478.23,-372.69 516.71,-376.25"/>
<polygon fill="#63b8ff" stroke="#63b8ff" points="516.31,-379.72 526.59,-377.16 516.96,-372.75 516.31,-379.72"/>
</a>
</g>
</g>
<!-- Node9&#45;&gt;Node8 -->
<g id="edge13_Node000009_Node000008" class="edge">
<title>Node9&#45;&gt;Node8</title>
<g id="a_edge13_Node000009_Node000008"><a xlink:title=" ">
<path fill="none" stroke="#63b8ff" d="M384.76,-372.16C395.07,-376.01 406.88,-380.42 417.94,-384.55"/>
<polygon fill="#63b8ff" stroke="#63b8ff" points="416.66,-387.81 427.25,-388.03 419.11,-381.25 416.66,-387.81"/>
</a>
</g>
</g>
<!-- Node10 -->
<g id="Node000010" class="node">
<title>Node10</title>
<g id="a_Node000010"><a xlink:href="app_8c.html#a0378208e0d5c0d1d6e7370f1c578fab3" target="_top" xlink:title=" ">
<polygon fill="white" stroke="#666666" points="492.5,-333.75 424.75,-333.75 424.75,-313 492.5,-313 492.5,-333.75"/>
<text text-anchor="middle" x="458.62" y="-320.25" font-family="Helvetica,sans-Serif" font-size="10.00">w2c__f216</text>
</a>
</g>
</g>
<!-- Node9&#45;&gt;Node10 -->
<g id="edge10_Node000009_Node000010" class="edge">
<title>Node9&#45;&gt;Node10</title>
<g id="a_edge10_Node000009_Node000010"><a xlink:title=" ">
<path fill="none" stroke="#63b8ff" d="M384.76,-350.59C395.07,-346.74 406.88,-342.33 417.94,-338.2"/>
<polygon fill="#63b8ff" stroke="#63b8ff" points="419.11,-341.5 427.25,-334.72 416.66,-334.94 419.11,-341.5"/>
</a>
</g>
</g>
<!-- Node11 -->
<g id="Node000011" class="node">
<title>Node11</title>
<g id="a_Node000011"><a xlink:href="app_8c.html#a674f6e81761467d0a8dc6d2a425eda9f" target="_top" xlink:title=" ">
<polygon fill="white" stroke="#666666" points="492.5,-294.75 424.75,-294.75 424.75,-274 492.5,-274 492.5,-294.75"/>
<text text-anchor="middle" x="458.62" y="-281.25" font-family="Helvetica,sans-Serif" font-size="10.00">w2c__f498</text>
</a>
</g>
</g>
<!-- Node9&#45;&gt;Node11 -->
<g id="edge15_Node000009_Node000011" class="edge">
<title>Node9&#45;&gt;Node11</title>
<g id="a_edge15_Node000009_Node000011"><a xlink:title=" ">
<path fill="none" stroke="#63b8ff" d="M375.54,-350.52C380.03,-347.75 384.67,-344.62 388.75,-341.38 406.69,-327.08 406.81,-318.67 424.75,-304.38 426.02,-303.36 427.35,-302.36 428.72,-301.37"/>
<polygon fill="#63b8ff" stroke="#63b8ff" points="430.31,-304.52 436.7,-296.06 426.43,-298.69 430.31,-304.52"/>
</a>
</g>
</g>
<!-- Node10&#45;&gt;Node6 -->
<g id="edge11_Node000010_Node000006" class="edge">
<title>Node10&#45;&gt;Node6</title>
<g id="a_edge11_Node000010_Node000006"><a xlink:title=" ">
<path fill="none" stroke="#63b8ff" d="M478.76,-334.1C493.87,-342.56 515.2,-354.51 532.4,-364.15"/>
<polygon fill="#63b8ff" stroke="#63b8ff" points="530.22,-366.93 540.66,-368.77 533.64,-360.83 530.22,-366.93"/>
</a>
</g>
</g>
<!-- Node13 -->
<g id="Node000013" class="node">
<title>Node13</title>
<g id="a_Node000013"><a xlink:href="app_8c.html#add88601cb03b410d0c4bc8f456c3ae55" target="_top" xlink:title=" ">
<polygon fill="white" stroke="#666666" points="285,-293.75 215,-293.75 215,-273 285,-273 285,-293.75"/>
<text text-anchor="middle" x="250" y="-280.25" font-family="Helvetica,sans-Serif" font-size="10.00">w2c_0_104</text>
</a>
</g>
</g>
<!-- Node12&#45;&gt;Node13 -->
<g id="edge17_Node000012_Node000013" class="edge">
<title>Node12&#45;&gt;Node13</title>
<g id="a_edge17_Node000012_Node000013"><a xlink:title=" ">
<path fill="none" stroke="#63b8ff" d="M161.93,-235.2C178.09,-244.14 201.27,-256.97 219.66,-267.14"/>
<polygon fill="#63b8ff" stroke="#63b8ff" points="217.8,-270.11 228.24,-271.89 221.19,-263.99 217.8,-270.11"/>
</a>
</g>
</g>
<!-- Node14 -->
<g id="Node000014" class="node">
<title>Node14</title>
<g id="a_Node000014"><a xlink:href="app_8c.html#a416a3f7003240b1a361323dbb3203bf8" target="_top" xlink:title=" ">
<polygon fill="white" stroke="#666666" points="285,-254.75 215,-254.75 215,-234 285,-234 285,-254.75"/>
<text text-anchor="middle" x="250" y="-241.25" font-family="Helvetica,sans-Serif" font-size="10.00">w2c_0_130</text>
</a>
</g>
</g>
<!-- Node12&#45;&gt;Node14 -->
<g id="edge18_Node000012_Node000014" class="edge">
<title>Node12&#45;&gt;Node14</title>
<g id="a_edge18_Node000012_Node000014"><a xlink:title=" ">
<path fill="none" stroke="#63b8ff" d="M175.53,-230.59C184.39,-232.26 194.13,-234.08 203.54,-235.85"/>
<polygon fill="#63b8ff" stroke="#63b8ff" points="202.8,-239.27 213.28,-237.67 204.09,-232.39 202.8,-239.27"/>
</a>
</g>
</g>
<!-- Node15 -->
<g id="Node000015" class="node">
<title>Node15</title>
<g id="a_Node000015"><a xlink:href="app_8c.html#ae68178bc105b2d45ebe022d5f9bc03f7" target="_top" xlink:title=" ">
<polygon fill="white" stroke="#666666" points="285,-215.75 215,-215.75 215,-195 285,-195 285,-215.75"/>
<text text-anchor="middle" x="250" y="-202.25" font-family="Helvetica,sans-Serif" font-size="10.00">w2c_0_159</text>
</a>
</g>
</g>
<!-- Node12&#45;&gt;Node15 -->
<g id="edge19_Node000012_Node000015" class="edge">
<title>Node12&#45;&gt;Node15</title>
<g id="a_edge19_Node000012_Node000015"><a xlink:title=" ">
<path fill="none" stroke="#63b8ff" d="M175.53,-218.47C184.39,-216.89 194.13,-215.15 203.54,-213.48"/>
<polygon fill="#63b8ff" stroke="#63b8ff" points="204.04,-216.94 213.27,-211.74 202.81,-210.05 204.04,-216.94"/>
</a>
</g>
</g>
<!-- Node16 -->
<g id="Node000016" class="node">
<title>Node16</title>
<g id="a_Node000016"><a xlink:href="app_8c.html#af3b7c5a4a8f14b9383b243d8c06b1301" target="_top" xlink:title=" ">
<polygon fill="white" stroke="#666666" points="285,-176.75 215,-176.75 215,-156 285,-156 285,-176.75"/>
<text text-anchor="middle" x="250" y="-163.25" font-family="Helvetica,sans-Serif" font-size="10.00">w2c_0_172</text>
</a>
</g>
</g>
<!-- Node12&#45;&gt;Node16 -->
<g id="edge20_Node000012_Node000016" class="edge">
<title>Node12&#45;&gt;Node16</title>
<g id="a_edge20_Node000012_Node000016"><a xlink:title=" ">
<path fill="none" stroke="#63b8ff" d="M161.93,-213.74C177.99,-205 200.98,-192.49 219.31,-182.52"/>
<polygon fill="#63b8ff" stroke="#63b8ff" points="220.76,-185.72 227.88,-177.87 217.42,-179.57 220.76,-185.72"/>
</a>
</g>
</g>
<!-- Node17 -->
<g id="Node000017" class="node">
<title>Node17</title>
<g id="a_Node000017"><a xlink:href="app_8c.html#aa018dbf3bc5814e93cedb41f14e2b4d9" target="_top" xlink:title=" ">
<polygon fill="white" stroke="#666666" points="282,-137.75 218,-137.75 218,-117 282,-117 282,-137.75"/>
<text text-anchor="middle" x="250" y="-124.25" font-family="Helvetica,sans-Serif" font-size="10.00">w2c_0_19</text>
</a>
</g>
</g>
<!-- Node12&#45;&gt;Node17 -->
<g id="edge21_Node000012_Node000017" class="edge">
<title>Node12&#45;&gt;Node17</title>
<g id="a_edge21_Node000012_Node000017"><a xlink:title=" ">
<path fill="none" stroke="#63b8ff" d="M166.43,-213.54C170.89,-210.91 175.3,-207.85 179,-204.38 200.85,-183.87 193.48,-168.22 215,-147.38 215.89,-146.52 216.81,-145.68 217.78,-144.87"/>
<polygon fill="#63b8ff" stroke="#63b8ff" points="219.74,-147.77 225.82,-139.09 215.65,-142.08 219.74,-147.77"/>
</a>
</g>
</g>
<!-- Node18 -->
<g id="Node000018" class="node">
<title>Node18</title>
<g id="a_Node000018"><a xlink:href="app_8c.html#a19209c6f5685e2e28a1b671ece901600" target="_top" xlink:title=" ">
<polygon fill="white" stroke="#666666" points="283.88,-332.75 216.12,-332.75 216.12,-312 283.88,-312 283.88,-332.75"/>
<text text-anchor="middle" x="250" y="-319.25" font-family="Helvetica,sans-Serif" font-size="10.00">w2c__f335</text>
</a>
</g>
</g>
<!-- Node12&#45;&gt;Node18 -->
<g id="edge22_Node000012_Node000018" class="edge">
<title>Node12&#45;&gt;Node18</title>
<g id="a_edge22_Node000012_Node000018"><a xlink:title=" ">
<path fill="none" stroke="#63b8ff" d="M150.7,-235.14C163.39,-251.1 188.88,-281.41 215,-302.38 216.3,-303.42 217.66,-304.45 219.06,-305.45"/>
<polygon fill="#63b8ff" stroke="#63b8ff" points="217.03,-308.3 227.32,-310.84 220.86,-302.44 217.03,-308.3"/>
</a>
</g>
</g>
<!-- Node19 -->
<g id="Node000019" class="node">
<title>Node19</title>
<g id="a_Node000019"><a xlink:href="app_8c.html#a84a707cc8c74624a4f1db785844c7211" target="_top" xlink:title=" ">
<polygon fill="white" stroke="#666666" points="386.88,-332.75 322.88,-332.75 322.88,-312 386.88,-312 386.88,-332.75"/>
<text text-anchor="middle" x="354.88" y="-319.25" font-family="Helvetica,sans-Serif" font-size="10.00">w2c_0_92</text>
</a>
</g>
</g>
<!-- Node18&#45;&gt;Node19 -->
<g id="edge23_Node000018_Node000019" class="edge">
<title>Node18&#45;&gt;Node19</title>
<g id="a_edge23_Node000018_Node000019"><a xlink:title=" ">
<path fill="none" stroke="#63b8ff" d="M284.12,-322.38C292.79,-322.38 302.26,-322.38 311.35,-322.38"/>
<polygon fill="#63b8ff" stroke="#63b8ff" points="311.06,-325.88 321.06,-322.38 311.06,-318.88 311.06,-325.88"/>
</a>
</g>
</g>
<!-- Node20&#45;&gt;Node13 -->
<g id="edge25_Node000020_Node000013" class="edge">
<title>Node20&#45;&gt;Node13</title>
<g id="a_edge25_Node000020_Node000013"><a xlink:title=" ">
<path fill="none" stroke="#63b8ff" d="M166.45,-196.19C170.91,-198.82 175.32,-201.89 179,-205.38 201.04,-226.22 193.29,-242.18 215,-263.38 215.88,-264.24 216.81,-265.08 217.77,-265.89"/>
<polygon fill="#63b8ff" stroke="#63b8ff" points="215.64,-268.67 225.8,-271.68 219.73,-262.99 215.64,-268.67"/>
</a>
</g>
</g>
<!-- Node20&#45;&gt;Node14 -->
<g id="edge26_Node000020_Node000014" class="edge">
<title>Node20&#45;&gt;Node14</title>
<g id="a_edge26_Node000020_Node000014"><a xlink:title=" ">
<path fill="none" stroke="#63b8ff" d="M162.16,-196.14C167.62,-199.12 173.54,-202.37 179,-205.38 192.42,-212.78 207.25,-221.03 219.79,-228.03"/>
<polygon fill="#63b8ff" stroke="#63b8ff" points="217.95,-231.01 228.39,-232.83 221.37,-224.9 217.95,-231.01"/>
</a>
</g>
</g>
<!-- Node20&#45;&gt;Node15 -->
<g id="edge27_Node000020_Node000015" class="edge">
<title>Node20&#45;&gt;Node15</title>
<g id="a_edge27_Node000020_Node000015"><a xlink:title=" ">
<path fill="none" stroke="#63b8ff" d="M175.53,-191.59C184.39,-193.26 194.13,-195.08 203.54,-196.85"/>
<polygon fill="#63b8ff" stroke="#63b8ff" points="202.8,-200.27 213.28,-198.67 204.09,-193.39 202.8,-200.27"/>
</a>
</g>
</g>
<!-- Node20&#45;&gt;Node16 -->
<g id="edge28_Node000020_Node000016" class="edge">
<title>Node20&#45;&gt;Node16</title>
<g id="a_edge28_Node000020_Node000016"><a xlink:title=" ">
<path fill="none" stroke="#63b8ff" d="M175.53,-179.47C184.39,-177.89 194.13,-176.15 203.54,-174.48"/>
<polygon fill="#63b8ff" stroke="#63b8ff" points="204.04,-177.94 213.27,-172.74 202.81,-171.05 204.04,-177.94"/>
</a>
</g>
</g>
<!-- Node20&#45;&gt;Node17 -->
<g id="edge30_Node000020_Node000017" class="edge">
<title>Node20&#45;&gt;Node17</title>
<g id="a_edge30_Node000020_Node000017"><a xlink:title=" ">
<path fill="none" stroke="#63b8ff" d="M161.93,-174.74C177.99,-166 200.98,-153.49 219.31,-143.52"/>
<polygon fill="#63b8ff" stroke="#63b8ff" points="220.76,-146.72 227.88,-138.87 217.42,-140.57 220.76,-146.72"/>
</a>
</g>
</g>
<!-- Node20&#45;&gt;Node18 -->
<g id="edge32_Node000020_Node000018" class="edge">
<title>Node20&#45;&gt;Node18</title>
<g id="a_edge32_Node000020_Node000018"><a xlink:title=" ">
<path fill="none" stroke="#63b8ff" d="M167.78,-196.1C171.92,-198.68 175.87,-201.76 179,-205.38 209.08,-240.15 185.47,-267.12 215,-302.38 215.65,-303.16 216.35,-303.91 217.07,-304.65"/>
<polygon fill="#63b8ff" stroke="#63b8ff" points="214.59,-307.15 224.58,-310.69 218.98,-301.69 214.59,-307.15"/>
</a>
</g>
</g>
<!-- Node21 -->
<g id="Node000021" class="node">
<title>Node21</title>
<g id="a_Node000021"><a xlink:href="app_8c.html#a413a166631157266d5dbee4d8d8164da" target="_top" xlink:title=" ">
<polygon fill="white" stroke="#666666" points="285,-98.75 215,-98.75 215,-78 285,-78 285,-98.75"/>
<text text-anchor="middle" x="250" y="-85.25" font-family="Helvetica,sans-Serif" font-size="10.00">w2c_0_182</text>
</a>
</g>
</g>
<!-- Node20&#45;&gt;Node21 -->
<g id="edge29_Node000020_Node000021" class="edge">
<title>Node20&#45;&gt;Node21</title>
<g id="a_edge29_Node000020_Node000021"><a xlink:title=" ">
<path fill="none" stroke="#63b8ff" d="M150.73,-174.76C163.46,-159.02 189,-129.11 215,-108.38 216.31,-107.33 217.67,-106.31 219.07,-105.31"/>
<polygon fill="#63b8ff" stroke="#63b8ff" points="220.86,-108.32 227.33,-99.93 217.04,-102.45 220.86,-108.32"/>
</a>
</g>
</g>
<!-- Node22 -->
<g id="Node000022" class="node">
<title>Node22</title>
<g id="a_Node000022"><a xlink:href="app_8c.html#aec29ea126421b36c7ea313062dea6ec6" target="_top" xlink:title=" ">
<polygon fill="white" stroke="#666666" points="282,-59.75 218,-59.75 218,-39 282,-39 282,-59.75"/>
<text text-anchor="middle" x="250" y="-46.25" font-family="Helvetica,sans-Serif" font-size="10.00">w2c_0_35</text>
</a>
</g>
</g>
<!-- Node20&#45;&gt;Node22 -->
<g id="edge31_Node000020_Node000022" class="edge">
<title>Node20&#45;&gt;Node22</title>
<g id="a_edge31_Node000020_Node000022"><a xlink:title=" ">
<path fill="none" stroke="#63b8ff" d="M146.97,-174.6C156.78,-152.59 181.62,-101.85 215,-69.38 215.88,-68.52 216.81,-67.68 217.77,-66.86"/>
<polygon fill="#63b8ff" stroke="#63b8ff" points="219.74,-69.76 225.81,-61.08 215.65,-64.08 219.74,-69.76"/>
</a>
</g>
</g>
<!-- Node24 -->
<g id="Node000024" class="node">
<title>Node24</title>
<g id="a_Node000024"><a xlink:href="app_8c.html#ae10979e670e507d4373e8cadcb3169aa" target="_top" xlink:title=" ">
<polygon fill="white" stroke="#666666" points="282,-20.75 218,-20.75 218,0 282,0 282,-20.75"/>
<text text-anchor="middle" x="250" y="-7.25" font-family="Helvetica,sans-Serif" font-size="10.00">quiet_nan</text>
</a>
</g>
</g>
<!-- Node23&#45;&gt;Node24 -->
<g id="edge34_Node000023_Node000024" class="edge">
<title>Node23&#45;&gt;Node24</title>
<g id="a_edge34_Node000023_Node000024"><a xlink:title=" ">
<path fill="none" stroke="#63b8ff" d="M154.81,-77.54C168.95,-65.44 192.94,-45.56 215,-30.38 216.59,-29.28 218.24,-28.18 219.92,-27.1"/>
<polygon fill="#63b8ff" stroke="#63b8ff" points="221.67,-30.14 228.35,-21.91 218,-24.17 221.67,-30.14"/>
</a>
</g>
</g>
</g>
</svg>
