<?xml version="1.0" encoding="UTF-8" standalone="no"?>
<!DOCTYPE svg PUBLIC "-//W3C//DTD SVG 1.1//EN"
 "http://www.w3.org/Graphics/SVG/1.1/DTD/svg11.dtd">
<!-- Generated by graphviz version 12.2.1 (0)
 -->
<!-- Title: w2c__f434 Pages: 1 -->
<svg width="595pt" height="381pt"
 viewBox="0.00 0.00 594.50 381.12" xmlns="http://www.w3.org/2000/svg" xmlns:xlink="http://www.w3.org/1999/xlink">
<g id="graph0" class="graph" transform="scale(1 1) rotate(0) translate(4 377.12)">
<title>w2c__f434</title>
<!-- Node1 -->
<g id="Node000001" class="node">
<title>Node1</title>
<g id="a_Node000001"><a xlink:title=" ">
<polygon fill="#999999" stroke="#666666" points="67.75,-164.12 0,-164.12 0,-143.37 67.75,-143.37 67.75,-164.12"/>
<text text-anchor="middle" x="33.88" y="-150.62" font-family="Helvetica,sans-Serif" font-size="10.00">w2c__f434</text>
</a>
</g>
</g>
<!-- Node2 -->
<g id="Node000002" class="node">
<title>Node2</title>
<g id="a_Node000002"><a xlink:href="app_8c.html#a4f1571983eb8b10007474101465ef041" target="_top" xlink:title=" ">
<polygon fill="white" stroke="#666666" points="275.25,-50.12 207.5,-50.12 207.5,-29.37 275.25,-29.37 275.25,-50.12"/>
<text text-anchor="middle" x="241.38" y="-36.62" font-family="Helvetica,sans-Serif" font-size="10.00">w2c__f287</text>
</a>
</g>
</g>
<!-- Node1&#45;&gt;Node2 -->
<g id="edge1_Node000001_Node000002" class="edge">
<title>Node1&#45;&gt;Node2</title>
<g id="a_edge1_Node000001_Node000002"><a xlink:title=" ">
<path fill="none" stroke="#63b8ff" d="M39.73,-143.06C49.1,-123.75 71.63,-83.25 103.75,-63.74 131.43,-46.93 167.73,-41.16 195.95,-39.47"/>
<polygon fill="#63b8ff" stroke="#63b8ff" points="195.77,-42.98 205.6,-39.05 195.46,-35.99 195.77,-42.98"/>
</a>
</g>
</g>
<!-- Node3 -->
<g id="Node000003" class="node">
<title>Node3</title>
<g id="a_Node000003"><a xlink:href="app_8c.html#a34d18545510c7604d64db5651af2a253" target="_top" xlink:title=" ">
<polygon fill="white" stroke="#666666" points="586.5,-202.12 518.75,-202.12 518.75,-181.37 586.5,-181.37 586.5,-202.12"/>
<text text-anchor="middle" x="552.62" y="-188.62" font-family="Helvetica,sans-Serif" font-size="10.00">w2c__f332</text>
</a>
</g>
</g>
<!-- Node1&#45;&gt;Node3 -->
<g id="edge11_Node000001_Node000003" class="edge">
<title>Node1&#45;&gt;Node3</title>
<g id="a_edge11_Node000001_Node000003"><a xlink:title=" ">
<path fill="none" stroke="#63b8ff" d="M40.72,-164.44C62.03,-201.88 139.66,-324.74 240.38,-324.74 240.38,-324.74 240.38,-324.74 346.12,-324.74 429.18,-324.74 505.19,-247.23 536.51,-210.55"/>
<polygon fill="#63b8ff" stroke="#63b8ff" points="538.8,-213.27 542.52,-203.34 533.43,-208.78 538.8,-213.27"/>
</a>
</g>
</g>
<!-- Node7 -->
<g id="Node000007" class="node">
<title>Node7</title>
<g id="a_Node000007"><a xlink:href="app_8c.html#aa5901cdf06a4d555e435828d47aeb370" target="_top" xlink:title=" ">
<polygon fill="white" stroke="#666666" points="379,-164.12 311.25,-164.12 311.25,-143.37 379,-143.37 379,-164.12"/>
<text text-anchor="middle" x="345.12" y="-150.62" font-family="Helvetica,sans-Serif" font-size="10.00">w2c__f560</text>
</a>
</g>
</g>
<!-- Node1&#45;&gt;Node7 -->
<g id="edge14_Node000001_Node000007" class="edge">
<title>Node1&#45;&gt;Node7</title>
<g id="a_edge14_Node000001_Node000007"><a xlink:title=" ">
<path fill="none" stroke="#63b8ff" d="M68.2,-143.09C79.39,-139.91 92.01,-136.74 103.75,-134.74 178.96,-121.97 200.2,-114.05 275.25,-127.74 287.32,-129.95 300.02,-134.15 311.19,-138.55"/>
<polygon fill="#63b8ff" stroke="#63b8ff" points="309.78,-141.76 320.36,-142.36 312.47,-135.29 309.78,-141.76"/>
</a>
</g>
</g>
<!-- Node8 -->
<g id="Node000008" class="node">
<title>Node8</title>
<g id="a_Node000008"><a xlink:href="app_8c.html#a800df00ef236c6d6affc3c661b37e3ad" target="_top" xlink:title=" ">
<polygon fill="white" stroke="#666666" points="171.5,-373.12 103.75,-373.12 103.75,-352.37 171.5,-352.37 171.5,-373.12"/>
<text text-anchor="middle" x="137.62" y="-359.62" font-family="Helvetica,sans-Serif" font-size="10.00">w2c__f487</text>
</a>
</g>
</g>
<!-- Node1&#45;&gt;Node8 -->
<g id="edge12_Node000001_Node000008" class="edge">
<title>Node1&#45;&gt;Node8</title>
<g id="a_edge12_Node000001_Node000008"><a xlink:title=" ">
<path fill="none" stroke="#63b8ff" d="M36.61,-164.39C41.96,-194.47 60.5,-281.65 103.75,-338.74 105.43,-340.96 107.37,-343.06 109.45,-345.04"/>
<polygon fill="#63b8ff" stroke="#63b8ff" points="106.79,-347.38 116.75,-350.99 111.22,-341.96 106.79,-347.38"/>
</a>
</g>
</g>
<!-- Node10 -->
<g id="Node000010" class="node">
<title>Node10</title>
<g id="a_Node000010"><a xlink:href="app_8c.html#a114660805d6920291a2827ae740d4777" target="_top" xlink:title=" ">
<polygon fill="white" stroke="#666666" points="171.5,-164.12 103.75,-164.12 103.75,-143.37 171.5,-143.37 171.5,-164.12"/>
<text text-anchor="middle" x="137.62" y="-150.62" font-family="Helvetica,sans-Serif" font-size="10.00">w2c__f571</text>
</a>
</g>
</g>
<!-- Node1&#45;&gt;Node10 -->
<g id="edge15_Node000001_Node000010" class="edge">
<title>Node1&#45;&gt;Node10</title>
<g id="a_edge15_Node000001_Node000010"><a xlink:title=" ">
<path fill="none" stroke="#63b8ff" d="M68.19,-153.74C75.82,-153.74 84.06,-153.74 92.08,-153.74"/>
<polygon fill="#63b8ff" stroke="#63b8ff" points="92.07,-157.24 102.07,-153.74 92.07,-150.24 92.07,-157.24"/>
</a>
</g>
</g>
<!-- Node2&#45;&gt;Node3 -->
<g id="edge2_Node000002_Node000003" class="edge">
<title>Node2&#45;&gt;Node3</title>
<g id="a_edge2_Node000002_Node000003"><a xlink:title=" ">
<path fill="none" stroke="#63b8ff" d="M275.46,-48.99C323.33,-63.2 413.75,-93.18 482.75,-134.74 500.9,-145.67 519.28,-161.15 532.48,-173.22"/>
<polygon fill="#63b8ff" stroke="#63b8ff" points="529.92,-175.63 539.62,-179.9 534.71,-170.52 529.92,-175.63"/>
</a>
</g>
</g>
<!-- Node4 -->
<g id="Node000004" class="node">
<title>Node4</title>
<g id="a_Node000004"><a xlink:href="app_8c.html#af5a84f1aaefefdd67da679c5f4ece22d" target="_top" xlink:title=" ">
<polygon fill="white" stroke="#666666" points="482.75,-164.12 415,-164.12 415,-143.37 482.75,-143.37 482.75,-164.12"/>
<text text-anchor="middle" x="448.88" y="-150.62" font-family="Helvetica,sans-Serif" font-size="10.00">w2c__f370</text>
</a>
</g>
</g>
<!-- Node2&#45;&gt;Node4 -->
<g id="edge3_Node000002_Node000004" class="edge">
<title>Node2&#45;&gt;Node4</title>
<g id="a_edge3_Node000002_Node000004"><a xlink:title=" ">
<path fill="none" stroke="#63b8ff" d="M257.17,-50.4C262.85,-54.53 269.38,-59.32 275.25,-63.74 291.44,-75.94 293.9,-81.26 311.25,-91.74 342.45,-110.59 380.36,-127.36 408.32,-138.69"/>
<polygon fill="#63b8ff" stroke="#63b8ff" points="406.9,-141.89 417.49,-142.34 409.5,-135.39 406.9,-141.89"/>
</a>
</g>
</g>
<!-- Node5 -->
<g id="Node000005" class="node">
<title>Node5</title>
<g id="a_Node000005"><a xlink:href="app_8c.html#a59744f5a084c0a1456224d40ac2611e7" target="_top" xlink:title=" ">
<polygon fill="white" stroke="#666666" points="482.75,-50.12 415,-50.12 415,-29.37 482.75,-29.37 482.75,-50.12"/>
<text text-anchor="middle" x="448.88" y="-36.62" font-family="Helvetica,sans-Serif" font-size="10.00">w2c__f468</text>
</a>
</g>
</g>
<!-- Node2&#45;&gt;Node5 -->
<g id="edge5_Node000002_Node000005" class="edge">
<title>Node2&#45;&gt;Node5</title>
<g id="a_edge5_Node000002_Node000005"><a xlink:title=" ">
<path fill="none" stroke="#63b8ff" d="M275.39,-39.74C310.04,-39.74 364.73,-39.74 403.21,-39.74"/>
<polygon fill="#63b8ff" stroke="#63b8ff" points="403.09,-43.24 413.09,-39.74 403.09,-36.24 403.09,-43.24"/>
</a>
</g>
</g>
<!-- Node2&#45;&gt;Node7 -->
<g id="edge7_Node000002_Node000007" class="edge">
<title>Node2&#45;&gt;Node7</title>
<g id="a_edge7_Node000002_Node000007"><a xlink:title=" ">
<path fill="none" stroke="#63b8ff" d="M259.95,-50.41C265.28,-54.19 270.87,-58.75 275.25,-63.74 297.28,-88.87 289.22,-104.62 311.25,-129.74 313.17,-131.93 315.31,-134.03 317.57,-136.02"/>
<polygon fill="#63b8ff" stroke="#63b8ff" points="315.34,-138.72 325.36,-142.14 319.66,-133.21 315.34,-138.72"/>
</a>
</g>
</g>
<!-- Node4&#45;&gt;Node3 -->
<g id="edge4_Node000004_Node000003" class="edge">
<title>Node4&#45;&gt;Node3</title>
<g id="a_edge4_Node000004_Node000003"><a xlink:title=" ">
<path fill="none" stroke="#63b8ff" d="M478.76,-164.53C489.07,-168.38 500.88,-172.79 511.94,-176.92"/>
<polygon fill="#63b8ff" stroke="#63b8ff" points="510.66,-180.18 521.25,-180.4 513.11,-173.62 510.66,-180.18"/>
</a>
</g>
</g>
<!-- Node6 -->
<g id="Node000006" class="node">
<title>Node6</title>
<g id="a_Node000006"><a xlink:href="app_8c.html#ada27c03ba7d63ebd616980bf581e1820" target="_top" xlink:title=" ">
<polygon fill="white" stroke="#666666" points="581.62,-50.12 523.62,-50.12 523.62,-29.37 581.62,-29.37 581.62,-50.12"/>
<text text-anchor="middle" x="552.62" y="-36.62" font-family="Helvetica,sans-Serif" font-size="10.00">w2c_0_9</text>
</a>
</g>
</g>
<!-- Node5&#45;&gt;Node6 -->
<g id="edge6_Node000005_Node000006" class="edge">
<title>Node5&#45;&gt;Node6</title>
<g id="a_edge6_Node000005_Node000006"><a xlink:title=" ">
<path fill="none" stroke="#63b8ff" d="M483.19,-39.74C492.42,-39.74 502.53,-39.74 512.08,-39.74"/>
<polygon fill="#63b8ff" stroke="#63b8ff" points="511.84,-43.24 521.84,-39.74 511.84,-36.24 511.84,-43.24"/>
</a>
</g>
</g>
<!-- Node7&#45;&gt;Node3 -->
<g id="edge8_Node000007_Node000003" class="edge">
<title>Node7&#45;&gt;Node3</title>
<g id="a_edge8_Node000007_Node000003"><a xlink:title=" ">
<path fill="none" stroke="#63b8ff" d="M379.19,-163.81C390.47,-166.99 403.22,-170.31 415,-172.74 445.44,-179.03 480.13,-183.83 506.94,-187.03"/>
<polygon fill="#63b8ff" stroke="#63b8ff" points="506.45,-190.49 516.78,-188.17 507.25,-183.54 506.45,-190.49"/>
</a>
</g>
</g>
<!-- Node7&#45;&gt;Node4 -->
<g id="edge9_Node000007_Node000004" class="edge">
<title>Node7&#45;&gt;Node4</title>
<g id="a_edge9_Node000007_Node000004"><a xlink:title=" ">
<path fill="none" stroke="#63b8ff" d="M379.44,-153.74C387.07,-153.74 395.31,-153.74 403.33,-153.74"/>
<polygon fill="#63b8ff" stroke="#63b8ff" points="403.32,-157.24 413.32,-153.74 403.32,-150.24 403.32,-157.24"/>
</a>
</g>
</g>
<!-- Node7&#45;&gt;Node5 -->
<g id="edge10_Node000007_Node000005" class="edge">
<title>Node7&#45;&gt;Node5</title>
<g id="a_edge10_Node000007_Node000005"><a xlink:title=" ">
<path fill="none" stroke="#63b8ff" d="M355.52,-143.22C372.62,-124.06 409.07,-83.22 430.71,-58.97"/>
<polygon fill="#63b8ff" stroke="#63b8ff" points="433.16,-61.49 437.2,-51.7 427.93,-56.83 433.16,-61.49"/>
</a>
</g>
</g>
<!-- Node9 -->
<g id="Node000009" class="node">
<title>Node9</title>
<g id="a_Node000009"><a xlink:href="app_8c.html#a71bcbce7faf780cd081af3fa82d6da97" target="_top" xlink:title=" ">
<polygon fill="white" stroke="#666666" points="275.25,-373.12 207.5,-373.12 207.5,-352.37 275.25,-352.37 275.25,-373.12"/>
<text text-anchor="middle" x="241.38" y="-359.62" font-family="Helvetica,sans-Serif" font-size="10.00">w2c__f437</text>
</a>
</g>
</g>
<!-- Node8&#45;&gt;Node9 -->
<g id="edge13_Node000008_Node000009" class="edge">
<title>Node8&#45;&gt;Node9</title>
<g id="a_edge13_Node000008_Node000009"><a xlink:title=" ">
<path fill="none" stroke="#63b8ff" d="M171.94,-362.74C179.57,-362.74 187.81,-362.74 195.83,-362.74"/>
<polygon fill="#63b8ff" stroke="#63b8ff" points="195.82,-366.24 205.82,-362.74 195.82,-359.24 195.82,-366.24"/>
</a>
</g>
</g>
<!-- Node10&#45;&gt;Node2 -->
<g id="edge16_Node000010_Node000002" class="edge">
<title>Node10&#45;&gt;Node2</title>
<g id="a_edge16_Node000010_Node000002"><a xlink:title=" ">
<path fill="none" stroke="#63b8ff" d="M148.02,-143.22C165.12,-124.06 201.57,-83.22 223.21,-58.97"/>
<polygon fill="#63b8ff" stroke="#63b8ff" points="225.66,-61.49 229.7,-51.7 220.43,-56.83 225.66,-61.49"/>
</a>
</g>
</g>
<!-- Node10&#45;&gt;Node3 -->
<g id="edge17_Node000010_Node000003" class="edge">
<title>Node10&#45;&gt;Node3</title>
<g id="a_edge17_Node000010_Node000003"><a xlink:title=" ">
<path fill="none" stroke="#63b8ff" d="M142.59,-164.6C150.89,-185.49 172.3,-230.78 207.5,-248.74 314.08,-303.11 461.12,-239.61 522.68,-207.79"/>
<polygon fill="#63b8ff" stroke="#63b8ff" points="523.94,-211.09 531.15,-203.32 520.67,-204.9 523.94,-211.09"/>
</a>
</g>
</g>
<!-- Node10&#45;&gt;Node4 -->
<g id="edge18_Node000010_Node000004" class="edge">
<title>Node10&#45;&gt;Node4</title>
<g id="a_edge18_Node000010_Node000004"><a xlink:title=" ">
<path fill="none" stroke="#63b8ff" d="M144.3,-164.39C154.34,-181.92 177.06,-216.25 207.5,-229.74 284.9,-264.05 382.57,-203.12 425.69,-171.29"/>
<polygon fill="#63b8ff" stroke="#63b8ff" points="427.67,-174.18 433.53,-165.36 423.44,-168.6 427.67,-174.18"/>
</a>
</g>
</g>
<!-- Node10&#45;&gt;Node5 -->
<g id="edge19_Node000010_Node000005" class="edge">
<title>Node10&#45;&gt;Node5</title>
<g id="a_edge19_Node000010_Node000005"><a xlink:title=" ">
<path fill="none" stroke="#63b8ff" d="M140.39,-142.92C145.35,-116.4 162.18,-48.31 207.5,-20.74 271.34,18.09 363.02,-6.47 412.68,-24.9"/>
<polygon fill="#63b8ff" stroke="#63b8ff" points="411.19,-28.07 421.78,-28.4 413.7,-21.54 411.19,-28.07"/>
</a>
</g>
</g>
<!-- Node10&#45;&gt;Node7 -->
<g id="edge24_Node000010_Node000007" class="edge">
<title>Node10&#45;&gt;Node7</title>
<g id="a_edge24_Node000010_Node000007"><a xlink:title=" ">
<path fill="none" stroke="#63b8ff" d="M170.83,-142.93C182.27,-139.61 195.33,-136.39 207.5,-134.74 237.34,-130.7 245.41,-130.7 275.25,-134.74 283.71,-135.89 292.6,-137.79 301.08,-139.96"/>
<polygon fill="#63b8ff" stroke="#63b8ff" points="299.89,-143.26 310.46,-142.53 301.73,-136.51 299.89,-143.26"/>
</a>
</g>
</g>
<!-- Node10&#45;&gt;Node10 -->
<g id="edge25_Node000010_Node000010" class="edge">
<title>Node10&#45;&gt;Node10</title>
<g id="a_edge25_Node000010_Node000010"><a xlink:title=" ">
<path fill="none" stroke="#63b8ff" d="M120.91,-164.52C114.22,-173.18 119.79,-182.12 137.62,-182.12 147.1,-182.12 153.11,-179.59 155.66,-175.93"/>
<polygon fill="#63b8ff" stroke="#63b8ff" points="159.14,-175.55 154.52,-166.02 152.19,-176.36 159.14,-175.55"/>
</a>
</g>
</g>
<!-- Node11 -->
<g id="Node000011" class="node">
<title>Node11</title>
<g id="a_Node000011"><a xlink:href="app_8c.html#a0e0dad0ebc52e45eeff2e1b5d8389ea4" target="_top" xlink:title=" ">
<polygon fill="white" stroke="#666666" points="275.25,-221.12 207.5,-221.12 207.5,-200.37 275.25,-200.37 275.25,-221.12"/>
<text text-anchor="middle" x="241.38" y="-207.62" font-family="Helvetica,sans-Serif" font-size="10.00">w2c__f534</text>
</a>
</g>
</g>
<!-- Node10&#45;&gt;Node11 -->
<g id="edge20_Node000010_Node000011" class="edge">
<title>Node10&#45;&gt;Node11</title>
<g id="a_edge20_Node000010_Node000011"><a xlink:title=" ">
<path fill="none" stroke="#63b8ff" d="M157.76,-164.46C172.87,-172.93 194.2,-184.88 211.4,-194.51"/>
<polygon fill="#63b8ff" stroke="#63b8ff" points="209.22,-197.3 219.66,-199.14 212.64,-191.2 209.22,-197.3"/>
</a>
</g>
</g>
<!-- Node12 -->
<g id="Node000012" class="node">
<title>Node12</title>
<g id="a_Node000012"><a xlink:href="app_8c.html#ad1be79736d98f29af0fb54c49f571e84" target="_top" xlink:title=" ">
<polygon fill="white" stroke="#666666" points="275.25,-164.12 207.5,-164.12 207.5,-143.37 275.25,-143.37 275.25,-164.12"/>
<text text-anchor="middle" x="241.38" y="-150.62" font-family="Helvetica,sans-Serif" font-size="10.00">w2c__f536</text>
</a>
</g>
</g>
<!-- Node10&#45;&gt;Node12 -->
<g id="edge21_Node000010_Node000012" class="edge">
<title>Node10&#45;&gt;Node12</title>
<g id="a_edge21_Node000010_Node000012"><a xlink:title=" ">
<path fill="none" stroke="#63b8ff" d="M171.94,-153.74C179.57,-153.74 187.81,-153.74 195.83,-153.74"/>
<polygon fill="#63b8ff" stroke="#63b8ff" points="195.82,-157.24 205.82,-153.74 195.82,-150.24 195.82,-157.24"/>
</a>
</g>
</g>
<!-- Node12&#45;&gt;Node7 -->
<g id="edge23_Node000012_Node000007" class="edge">
<title>Node12&#45;&gt;Node7</title>
<g id="a_edge23_Node000012_Node000007"><a xlink:title=" ">
<path fill="none" stroke="#63b8ff" d="M275.69,-153.74C283.32,-153.74 291.56,-153.74 299.58,-153.74"/>
<polygon fill="#63b8ff" stroke="#63b8ff" points="299.57,-157.24 309.57,-153.74 299.57,-150.24 299.57,-157.24"/>
</a>
</g>
</g>
<!-- Node12&#45;&gt;Node12 -->
<g id="edge22_Node000012_Node000012" class="edge">
<title>Node12&#45;&gt;Node12</title>
<g id="a_edge22_Node000012_Node000012"><a xlink:title=" ">
<path fill="none" stroke="#63b8ff" d="M224.66,-164.52C217.97,-173.18 223.54,-182.12 241.38,-182.12 250.85,-182.12 256.86,-179.59 259.41,-175.93"/>
<polygon fill="#63b8ff" stroke="#63b8ff" points="262.89,-175.55 258.27,-166.02 255.94,-176.36 262.89,-175.55"/>
</a>
</g>
</g>
</g>
</svg>
