<?xml version="1.0" encoding="UTF-8" standalone="no"?>
<!DOCTYPE svg PUBLIC "-//W3C//DTD SVG 1.1//EN"
 "http://www.w3.org/Graphics/SVG/1.1/DTD/svg11.dtd">
<!-- Generated by graphviz version 12.2.1 (0)
 -->
<!-- Title: wrap_w2c__f240 Pages: 1 -->
<svg width="728pt" height="183pt"
 viewBox="0.00 0.00 727.50 182.75" xmlns="http://www.w3.org/2000/svg" xmlns:xlink="http://www.w3.org/1999/xlink">
<g id="graph0" class="graph" transform="scale(1 1) rotate(0) translate(4 178.75)">
<title>wrap_w2c__f240</title>
<!-- Node1 -->
<g id="Node000001" class="node">
<title>Node1</title>
<g id="a_Node000001"><a xlink:title=" ">
<polygon fill="#999999" stroke="#666666" points="97,-58.75 0,-58.75 0,-38 97,-38 97,-58.75"/>
<text text-anchor="middle" x="48.5" y="-45.25" font-family="Helvetica,sans-Serif" font-size="10.00">wrap_w2c__f240</text>
</a>
</g>
</g>
<!-- Node2 -->
<g id="Node000002" class="node">
<title>Node2</title>
<g id="a_Node000002"><a xlink:href="app_8c.html#a29ede891bbfd531ec972fd15b30ced81" target="_top" xlink:title=" ">
<polygon fill="white" stroke="#666666" points="200.75,-58.75 133,-58.75 133,-38 200.75,-38 200.75,-58.75"/>
<text text-anchor="middle" x="166.88" y="-45.25" font-family="Helvetica,sans-Serif" font-size="10.00">w2c__f240</text>
</a>
</g>
</g>
<!-- Node1&#45;&gt;Node2 -->
<g id="edge1_Node000001_Node000002" class="edge">
<title>Node1&#45;&gt;Node2</title>
<g id="a_edge1_Node000001_Node000002"><a xlink:title=" ">
<path fill="none" stroke="#63b8ff" d="M97.17,-48.38C105.18,-48.38 113.47,-48.38 121.4,-48.38"/>
<polygon fill="#63b8ff" stroke="#63b8ff" points="121.17,-51.88 131.17,-48.38 121.17,-44.88 121.17,-51.88"/>
</a>
</g>
</g>
<!-- Node3 -->
<g id="Node000003" class="node">
<title>Node3</title>
<g id="a_Node000003"><a xlink:href="app_8c.html#a5a0d1cd445d6077fbe4477c0f417eeaf" target="_top" xlink:title=" ">
<polygon fill="white" stroke="#666666" points="304.5,-97.75 236.75,-97.75 236.75,-77 304.5,-77 304.5,-97.75"/>
<text text-anchor="middle" x="270.62" y="-84.25" font-family="Helvetica,sans-Serif" font-size="10.00">w2c__f275</text>
</a>
</g>
</g>
<!-- Node2&#45;&gt;Node3 -->
<g id="edge2_Node000002_Node000003" class="edge">
<title>Node2&#45;&gt;Node3</title>
<g id="a_edge2_Node000002_Node000003"><a xlink:title=" ">
<path fill="none" stroke="#63b8ff" d="M196.22,-59.24C206.91,-63.34 219.27,-68.08 230.76,-72.48"/>
<polygon fill="#63b8ff" stroke="#63b8ff" points="229.43,-75.72 240.02,-76.03 231.94,-69.18 229.43,-75.72"/>
</a>
</g>
</g>
<!-- Node11 -->
<g id="Node000011" class="node">
<title>Node11</title>
<g id="a_Node000011"><a xlink:href="app_8c.html#a674f6e81761467d0a8dc6d2a425eda9f" target="_top" xlink:title=" ">
<polygon fill="white" stroke="#666666" points="615.75,-20.75 548,-20.75 548,0 615.75,0 615.75,-20.75"/>
<text text-anchor="middle" x="581.88" y="-7.25" font-family="Helvetica,sans-Serif" font-size="10.00">w2c__f498</text>
</a>
</g>
</g>
<!-- Node2&#45;&gt;Node11 -->
<g id="edge14_Node000002_Node000011" class="edge">
<title>Node2&#45;&gt;Node11</title>
<g id="a_edge14_Node000002_Node000011"><a xlink:title=" ">
<path fill="none" stroke="#63b8ff" d="M201.19,-37.64C212.37,-34.45 225,-31.3 236.75,-29.38 343.43,-11.92 470.91,-9.64 536.71,-9.81"/>
<polygon fill="#63b8ff" stroke="#63b8ff" points="536.35,-13.31 546.37,-9.86 536.39,-6.31 536.35,-13.31"/>
</a>
</g>
</g>
<!-- Node12 -->
<g id="Node000012" class="node">
<title>Node12</title>
<g id="a_Node000012"><a xlink:href="app_8c.html#a4fd0a4cb4b78f7e4a76d64b8921bc5dc" target="_top" xlink:title=" ">
<polygon fill="white" stroke="#666666" points="304.5,-58.75 236.75,-58.75 236.75,-38 304.5,-38 304.5,-58.75"/>
<text text-anchor="middle" x="270.62" y="-45.25" font-family="Helvetica,sans-Serif" font-size="10.00">w2c__f574</text>
</a>
</g>
</g>
<!-- Node2&#45;&gt;Node12 -->
<g id="edge15_Node000002_Node000012" class="edge">
<title>Node2&#45;&gt;Node12</title>
<g id="a_edge15_Node000002_Node000012"><a xlink:title=" ">
<path fill="none" stroke="#63b8ff" d="M201.19,-48.38C208.82,-48.38 217.06,-48.38 225.08,-48.38"/>
<polygon fill="#63b8ff" stroke="#63b8ff" points="225.07,-51.88 235.07,-48.38 225.07,-44.88 225.07,-51.88"/>
</a>
</g>
</g>
<!-- Node4 -->
<g id="Node000004" class="node">
<title>Node4</title>
<g id="a_Node000004"><a xlink:href="app_8c.html#ae7fb023a7298e99149ca1f090e524235" target="_top" xlink:title=" ">
<polygon fill="white" stroke="#666666" points="408.25,-97.75 340.5,-97.75 340.5,-77 408.25,-77 408.25,-97.75"/>
<text text-anchor="middle" x="374.38" y="-84.25" font-family="Helvetica,sans-Serif" font-size="10.00">w2c__f281</text>
</a>
</g>
</g>
<!-- Node3&#45;&gt;Node4 -->
<g id="edge3_Node000003_Node000004" class="edge">
<title>Node3&#45;&gt;Node4</title>
<g id="a_edge3_Node000003_Node000004"><a xlink:title=" ">
<path fill="none" stroke="#63b8ff" d="M304.94,-87.38C312.57,-87.38 320.81,-87.38 328.83,-87.38"/>
<polygon fill="#63b8ff" stroke="#63b8ff" points="328.82,-90.88 338.82,-87.38 328.82,-83.88 328.82,-90.88"/>
</a>
</g>
</g>
<!-- Node5 -->
<g id="Node000005" class="node">
<title>Node5</title>
<g id="a_Node000005"><a xlink:href="app_8c.html#ac9cc84763a9c1933e50eedd7a06c17e2" target="_top" xlink:title=" ">
<polygon fill="white" stroke="#666666" points="512,-97.75 444.25,-97.75 444.25,-77 512,-77 512,-97.75"/>
<text text-anchor="middle" x="478.12" y="-84.25" font-family="Helvetica,sans-Serif" font-size="10.00">w2c__f480</text>
</a>
</g>
</g>
<!-- Node4&#45;&gt;Node5 -->
<g id="edge4_Node000004_Node000005" class="edge">
<title>Node4&#45;&gt;Node5</title>
<g id="a_edge4_Node000004_Node000005"><a xlink:title=" ">
<path fill="none" stroke="#63b8ff" d="M408.69,-87.38C416.32,-87.38 424.56,-87.38 432.58,-87.38"/>
<polygon fill="#63b8ff" stroke="#63b8ff" points="432.57,-90.88 442.57,-87.38 432.57,-83.88 432.57,-90.88"/>
</a>
</g>
</g>
<!-- Node6 -->
<g id="Node000006" class="node">
<title>Node6</title>
<g id="a_Node000006"><a xlink:href="app_8c.html#a0378208e0d5c0d1d6e7370f1c578fab3" target="_top" xlink:title=" ">
<polygon fill="white" stroke="#666666" points="615.75,-174.75 548,-174.75 548,-154 615.75,-154 615.75,-174.75"/>
<text text-anchor="middle" x="581.88" y="-161.25" font-family="Helvetica,sans-Serif" font-size="10.00">w2c__f216</text>
</a>
</g>
</g>
<!-- Node5&#45;&gt;Node6 -->
<g id="edge5_Node000005_Node000006" class="edge">
<title>Node5&#45;&gt;Node6</title>
<g id="a_edge5_Node000005_Node000006"><a xlink:title=" ">
<path fill="none" stroke="#63b8ff" d="M493.03,-98.24C506.88,-109.03 528.8,-125.99 548,-140.38 550.85,-142.51 553.85,-144.73 556.83,-146.93"/>
<polygon fill="#63b8ff" stroke="#63b8ff" points="554.73,-149.73 564.87,-152.81 558.86,-144.08 554.73,-149.73"/>
</a>
</g>
</g>
<!-- Node7 -->
<g id="Node000007" class="node">
<title>Node7</title>
<g id="a_Node000007"><a xlink:href="app_8c.html#a8d9f347f9a643f0ebfb53c4f54578ac4" target="_top" xlink:title=" ">
<polygon fill="white" stroke="#666666" points="719.5,-117.75 651.75,-117.75 651.75,-97 719.5,-97 719.5,-117.75"/>
<text text-anchor="middle" x="685.62" y="-104.25" font-family="Helvetica,sans-Serif" font-size="10.00">w2c__f304</text>
</a>
</g>
</g>
<!-- Node5&#45;&gt;Node7 -->
<g id="edge12_Node000005_Node000007" class="edge">
<title>Node5&#45;&gt;Node7</title>
<g id="a_edge12_Node000005_Node000007"><a xlink:title=" ">
<path fill="none" stroke="#63b8ff" d="M509.58,-98.23C521.41,-101.91 535.18,-105.55 548,-107.38 578.48,-111.71 613.17,-111.65 639.97,-110.54"/>
<polygon fill="#63b8ff" stroke="#63b8ff" points="639.98,-114.04 649.8,-110.06 639.64,-107.05 639.98,-114.04"/>
</a>
</g>
</g>
<!-- Node8 -->
<g id="Node000008" class="node">
<title>Node8</title>
<g id="a_Node000008"><a xlink:href="app_8c.html#aaca5d5bcf49f2ca74019cf097750b9f3" target="_top" xlink:title=" ">
<polygon fill="white" stroke="#666666" points="615.75,-59.75 548,-59.75 548,-39 615.75,-39 615.75,-59.75"/>
<text text-anchor="middle" x="581.88" y="-46.25" font-family="Helvetica,sans-Serif" font-size="10.00">w2c__f258</text>
</a>
</g>
</g>
<!-- Node5&#45;&gt;Node8 -->
<g id="edge7_Node000005_Node000008" class="edge">
<title>Node5&#45;&gt;Node8</title>
<g id="a_edge7_Node000005_Node000008"><a xlink:title=" ">
<path fill="none" stroke="#63b8ff" d="M508.01,-76.59C518.32,-72.74 530.13,-68.33 541.19,-64.2"/>
<polygon fill="#63b8ff" stroke="#63b8ff" points="542.36,-67.5 550.5,-60.72 539.91,-60.94 542.36,-67.5"/>
</a>
</g>
</g>
<!-- Node10 -->
<g id="Node000010" class="node">
<title>Node10</title>
<g id="a_Node000010"><a xlink:href="app_8c.html#a4634342addbde677893ffcb45cf639dd" target="_top" xlink:title=" ">
<polygon fill="white" stroke="#666666" points="615.75,-98.75 548,-98.75 548,-78 615.75,-78 615.75,-98.75"/>
<text text-anchor="middle" x="581.88" y="-85.25" font-family="Helvetica,sans-Serif" font-size="10.00">w2c__f302</text>
</a>
</g>
</g>
<!-- Node5&#45;&gt;Node10 -->
<g id="edge10_Node000005_Node000010" class="edge">
<title>Node5&#45;&gt;Node10</title>
<g id="a_edge10_Node000005_Node000010"><a xlink:title=" ">
<path fill="none" stroke="#63b8ff" d="M512.44,-87.7C520.07,-87.78 528.31,-87.86 536.33,-87.94"/>
<polygon fill="#63b8ff" stroke="#63b8ff" points="536.28,-91.44 546.32,-88.04 536.35,-84.44 536.28,-91.44"/>
</a>
</g>
</g>
<!-- Node5&#45;&gt;Node11 -->
<g id="edge13_Node000005_Node000011" class="edge">
<title>Node5&#45;&gt;Node11</title>
<g id="a_edge13_Node000005_Node000011"><a xlink:title=" ">
<path fill="none" stroke="#63b8ff" d="M490.9,-76.74C504.28,-64.85 527.01,-45.32 548,-30.38 549.53,-29.28 551.13,-28.19 552.75,-27.11"/>
<polygon fill="#63b8ff" stroke="#63b8ff" points="554.31,-30.26 560.87,-21.94 550.55,-24.36 554.31,-30.26"/>
</a>
</g>
</g>
<!-- Node6&#45;&gt;Node7 -->
<g id="edge6_Node000006_Node000007" class="edge">
<title>Node6&#45;&gt;Node7</title>
<g id="a_edge6_Node000006_Node000007"><a xlink:title=" ">
<path fill="none" stroke="#63b8ff" d="M602.01,-153.65C617.12,-145.19 638.45,-133.24 655.65,-123.6"/>
<polygon fill="#63b8ff" stroke="#63b8ff" points="656.89,-126.92 663.91,-118.98 653.47,-120.82 656.89,-126.92"/>
</a>
</g>
</g>
<!-- Node8&#45;&gt;Node7 -->
<g id="edge8_Node000008_Node000007" class="edge">
<title>Node8&#45;&gt;Node7</title>
<g id="a_edge8_Node000008_Node000007"><a xlink:title=" ">
<path fill="none" stroke="#63b8ff" d="M601.54,-60.01C616.79,-68.71 638.6,-81.14 656.05,-91.09"/>
<polygon fill="#63b8ff" stroke="#63b8ff" points="654,-93.95 664.42,-95.86 657.47,-87.87 654,-93.95"/>
</a>
</g>
</g>
<!-- Node9 -->
<g id="Node000009" class="node">
<title>Node9</title>
<g id="a_Node000009"><a xlink:href="app_8c.html#a881f0b113e93dce3ff52d04b435850f6" target="_top" xlink:title=" ">
<polygon fill="white" stroke="#666666" points="719.5,-59.75 651.75,-59.75 651.75,-39 719.5,-39 719.5,-59.75"/>
<text text-anchor="middle" x="685.62" y="-46.25" font-family="Helvetica,sans-Serif" font-size="10.00">w2c__f491</text>
</a>
</g>
</g>
<!-- Node8&#45;&gt;Node9 -->
<g id="edge9_Node000008_Node000009" class="edge">
<title>Node8&#45;&gt;Node9</title>
<g id="a_edge9_Node000008_Node000009"><a xlink:title=" ">
<path fill="none" stroke="#63b8ff" d="M616.19,-49.38C623.82,-49.38 632.06,-49.38 640.08,-49.38"/>
<polygon fill="#63b8ff" stroke="#63b8ff" points="640.07,-52.88 650.07,-49.38 640.07,-45.88 640.07,-52.88"/>
</a>
</g>
</g>
<!-- Node10&#45;&gt;Node7 -->
<g id="edge11_Node000010_Node000007" class="edge">
<title>Node10&#45;&gt;Node7</title>
<g id="a_edge11_Node000010_Node000007"><a xlink:title=" ">
<path fill="none" stroke="#63b8ff" d="M616.19,-94.6C623.91,-96.04 632.25,-97.59 640.36,-99.11"/>
<polygon fill="#63b8ff" stroke="#63b8ff" points="639.62,-102.53 650.09,-100.93 640.91,-95.65 639.62,-102.53"/>
</a>
</g>
</g>
<!-- Node12&#45;&gt;Node4 -->
<g id="edge16_Node000012_Node000004" class="edge">
<title>Node12&#45;&gt;Node4</title>
<g id="a_edge16_Node000012_Node000004"><a xlink:title=" ">
<path fill="none" stroke="#63b8ff" d="M299.97,-59.24C310.66,-63.34 323.02,-68.08 334.51,-72.48"/>
<polygon fill="#63b8ff" stroke="#63b8ff" points="333.18,-75.72 343.77,-76.03 335.69,-69.18 333.18,-75.72"/>
</a>
</g>
</g>
</g>
</svg>
