<?xml version="1.0" encoding="UTF-8" standalone="no"?>
<!DOCTYPE svg PUBLIC "-//W3C//DTD SVG 1.1//EN"
 "http://www.w3.org/Graphics/SVG/1.1/DTD/svg11.dtd">
<!-- Generated by graphviz version 12.2.1 (0)
 -->
<!-- Title: wrap_w2c__f557 Pages: 1 -->
<svg width="520pt" height="183pt"
 viewBox="0.00 0.00 520.00 182.75" xmlns="http://www.w3.org/2000/svg" xmlns:xlink="http://www.w3.org/1999/xlink">
<g id="graph0" class="graph" transform="scale(1 1) rotate(0) translate(4 178.75)">
<title>wrap_w2c__f557</title>
<!-- Node1 -->
<g id="Node000001" class="node">
<title>Node1</title>
<g id="a_Node000001"><a xlink:title=" ">
<polygon fill="#999999" stroke="#666666" points="97,-115.75 0,-115.75 0,-95 97,-95 97,-115.75"/>
<text text-anchor="middle" x="48.5" y="-102.25" font-family="Helvetica,sans-Serif" font-size="10.00">wrap_w2c__f557</text>
</a>
</g>
</g>
<!-- Node2 -->
<g id="Node000002" class="node">
<title>Node2</title>
<g id="a_Node000002"><a xlink:href="app_8c.html#a1a8a1d528c65d63a630e19c3a4bdd098" target="_top" xlink:title=" ">
<polygon fill="white" stroke="#666666" points="200.75,-115.75 133,-115.75 133,-95 200.75,-95 200.75,-115.75"/>
<text text-anchor="middle" x="166.88" y="-102.25" font-family="Helvetica,sans-Serif" font-size="10.00">w2c__f557</text>
</a>
</g>
</g>
<!-- Node1&#45;&gt;Node2 -->
<g id="edge1_Node000001_Node000002" class="edge">
<title>Node1&#45;&gt;Node2</title>
<g id="a_edge1_Node000001_Node000002"><a xlink:title=" ">
<path fill="none" stroke="#63b8ff" d="M97.17,-105.38C105.18,-105.38 113.47,-105.38 121.4,-105.38"/>
<polygon fill="#63b8ff" stroke="#63b8ff" points="121.17,-108.88 131.17,-105.38 121.17,-101.88 121.17,-108.88"/>
</a>
</g>
</g>
<!-- Node3 -->
<g id="Node000003" class="node">
<title>Node3</title>
<g id="a_Node000003"><a xlink:href="app_8c.html#a0f7003812eaf983535ff7979fc047a21" target="_top" xlink:title=" ">
<polygon fill="white" stroke="#666666" points="304.5,-135.75 236.75,-135.75 236.75,-115 304.5,-115 304.5,-135.75"/>
<text text-anchor="middle" x="270.62" y="-122.25" font-family="Helvetica,sans-Serif" font-size="10.00">w2c__f353</text>
</a>
</g>
</g>
<!-- Node2&#45;&gt;Node3 -->
<g id="edge2_Node000002_Node000003" class="edge">
<title>Node2&#45;&gt;Node3</title>
<g id="a_edge2_Node000002_Node000003"><a xlink:title=" ">
<path fill="none" stroke="#63b8ff" d="M201.19,-111.92C208.91,-113.44 217.25,-115.08 225.36,-116.67"/>
<polygon fill="#63b8ff" stroke="#63b8ff" points="224.61,-120.09 235.1,-118.59 225.96,-113.22 224.61,-120.09"/>
</a>
</g>
</g>
<!-- Node8 -->
<g id="Node000008" class="node">
<title>Node8</title>
<g id="a_Node000008"><a xlink:href="app_8c.html#ac9cc84763a9c1933e50eedd7a06c17e2" target="_top" xlink:title=" ">
<polygon fill="white" stroke="#666666" points="304.5,-96.75 236.75,-96.75 236.75,-76 304.5,-76 304.5,-96.75"/>
<text text-anchor="middle" x="270.62" y="-83.25" font-family="Helvetica,sans-Serif" font-size="10.00">w2c__f480</text>
</a>
</g>
</g>
<!-- Node2&#45;&gt;Node8 -->
<g id="edge8_Node000002_Node000008" class="edge">
<title>Node2&#45;&gt;Node8</title>
<g id="a_edge8_Node000002_Node000008"><a xlink:title=" ">
<path fill="none" stroke="#63b8ff" d="M201.19,-99.15C208.91,-97.71 217.25,-96.16 225.36,-94.64"/>
<polygon fill="#63b8ff" stroke="#63b8ff" points="225.91,-98.1 235.09,-92.82 224.62,-91.22 225.91,-98.1"/>
</a>
</g>
</g>
<!-- Node4 -->
<g id="Node000004" class="node">
<title>Node4</title>
<g id="a_Node000004"><a xlink:href="app_8c.html#aaca5d5bcf49f2ca74019cf097750b9f3" target="_top" xlink:title=" ">
<polygon fill="white" stroke="#666666" points="408.25,-174.75 340.5,-174.75 340.5,-154 408.25,-154 408.25,-174.75"/>
<text text-anchor="middle" x="374.38" y="-161.25" font-family="Helvetica,sans-Serif" font-size="10.00">w2c__f258</text>
</a>
</g>
</g>
<!-- Node3&#45;&gt;Node4 -->
<g id="edge3_Node000003_Node000004" class="edge">
<title>Node3&#45;&gt;Node4</title>
<g id="a_edge3_Node000003_Node000004"><a xlink:title=" ">
<path fill="none" stroke="#63b8ff" d="M299.97,-136.24C310.66,-140.34 323.02,-145.08 334.51,-149.48"/>
<polygon fill="#63b8ff" stroke="#63b8ff" points="333.18,-152.72 343.77,-153.03 335.69,-146.18 333.18,-152.72"/>
</a>
</g>
</g>
<!-- Node7 -->
<g id="Node000007" class="node">
<title>Node7</title>
<g id="a_Node000007"><a xlink:href="app_8c.html#a4634342addbde677893ffcb45cf639dd" target="_top" xlink:title=" ">
<polygon fill="white" stroke="#666666" points="408.25,-135.75 340.5,-135.75 340.5,-115 408.25,-115 408.25,-135.75"/>
<text text-anchor="middle" x="374.38" y="-122.25" font-family="Helvetica,sans-Serif" font-size="10.00">w2c__f302</text>
</a>
</g>
</g>
<!-- Node3&#45;&gt;Node7 -->
<g id="edge6_Node000003_Node000007" class="edge">
<title>Node3&#45;&gt;Node7</title>
<g id="a_edge6_Node000003_Node000007"><a xlink:title=" ">
<path fill="none" stroke="#63b8ff" d="M304.94,-125.38C312.57,-125.38 320.81,-125.38 328.83,-125.38"/>
<polygon fill="#63b8ff" stroke="#63b8ff" points="328.82,-128.88 338.82,-125.38 328.82,-121.88 328.82,-128.88"/>
</a>
</g>
</g>
<!-- Node5 -->
<g id="Node000005" class="node">
<title>Node5</title>
<g id="a_Node000005"><a xlink:href="app_8c.html#a8d9f347f9a643f0ebfb53c4f54578ac4" target="_top" xlink:title=" ">
<polygon fill="white" stroke="#666666" points="512,-116.75 444.25,-116.75 444.25,-96 512,-96 512,-116.75"/>
<text text-anchor="middle" x="478.12" y="-103.25" font-family="Helvetica,sans-Serif" font-size="10.00">w2c__f304</text>
</a>
</g>
</g>
<!-- Node4&#45;&gt;Node5 -->
<g id="edge4_Node000004_Node000005" class="edge">
<title>Node4&#45;&gt;Node5</title>
<g id="a_edge4_Node000004_Node000005"><a xlink:title=" ">
<path fill="none" stroke="#63b8ff" d="M394.04,-153.74C409.29,-145.04 431.1,-132.61 448.55,-122.66"/>
<polygon fill="#63b8ff" stroke="#63b8ff" points="449.97,-125.88 456.92,-117.89 446.5,-119.8 449.97,-125.88"/>
</a>
</g>
</g>
<!-- Node6 -->
<g id="Node000006" class="node">
<title>Node6</title>
<g id="a_Node000006"><a xlink:href="app_8c.html#a881f0b113e93dce3ff52d04b435850f6" target="_top" xlink:title=" ">
<polygon fill="white" stroke="#666666" points="512,-174.75 444.25,-174.75 444.25,-154 512,-154 512,-174.75"/>
<text text-anchor="middle" x="478.12" y="-161.25" font-family="Helvetica,sans-Serif" font-size="10.00">w2c__f491</text>
</a>
</g>
</g>
<!-- Node4&#45;&gt;Node6 -->
<g id="edge5_Node000004_Node000006" class="edge">
<title>Node4&#45;&gt;Node6</title>
<g id="a_edge5_Node000004_Node000006"><a xlink:title=" ">
<path fill="none" stroke="#63b8ff" d="M408.69,-164.38C416.32,-164.38 424.56,-164.38 432.58,-164.38"/>
<polygon fill="#63b8ff" stroke="#63b8ff" points="432.57,-167.88 442.57,-164.38 432.57,-160.88 432.57,-167.88"/>
</a>
</g>
</g>
<!-- Node7&#45;&gt;Node5 -->
<g id="edge7_Node000007_Node000005" class="edge">
<title>Node7&#45;&gt;Node5</title>
<g id="a_edge7_Node000007_Node000005"><a xlink:title=" ">
<path fill="none" stroke="#63b8ff" d="M408.69,-119.15C416.41,-117.71 424.75,-116.16 432.86,-114.64"/>
<polygon fill="#63b8ff" stroke="#63b8ff" points="433.41,-118.1 442.59,-112.82 432.12,-111.22 433.41,-118.1"/>
</a>
</g>
</g>
<!-- Node8&#45;&gt;Node4 -->
<g id="edge11_Node000008_Node000004" class="edge">
<title>Node8&#45;&gt;Node4</title>
<g id="a_edge11_Node000008_Node000004"><a xlink:title=" ">
<path fill="none" stroke="#63b8ff" d="M291.32,-97.19C295.81,-99.96 300.45,-103.1 304.5,-106.38 322.6,-120.99 322.4,-129.76 340.5,-144.38 341.77,-145.4 343.09,-146.41 344.45,-147.4"/>
<polygon fill="#63b8ff" stroke="#63b8ff" points="342.16,-150.08 352.42,-152.72 346.05,-144.26 342.16,-150.08"/>
</a>
</g>
</g>
<!-- Node8&#45;&gt;Node5 -->
<g id="edge13_Node000008_Node000005" class="edge">
<title>Node8&#45;&gt;Node5</title>
<g id="a_edge13_Node000008_Node000005"><a xlink:title=" ">
<path fill="none" stroke="#63b8ff" d="M301.61,-75.5C329.57,-66.94 372.24,-57.89 408.25,-67.38 424.61,-71.68 441.16,-80.87 453.93,-89.24"/>
<polygon fill="#63b8ff" stroke="#63b8ff" points="451.82,-92.04 462.05,-94.81 455.79,-86.27 451.82,-92.04"/>
</a>
</g>
</g>
<!-- Node8&#45;&gt;Node7 -->
<g id="edge12_Node000008_Node000007" class="edge">
<title>Node8&#45;&gt;Node7</title>
<g id="a_edge12_Node000008_Node000007"><a xlink:title=" ">
<path fill="none" stroke="#63b8ff" d="M299.97,-97.24C310.66,-101.34 323.02,-106.08 334.51,-110.48"/>
<polygon fill="#63b8ff" stroke="#63b8ff" points="333.18,-113.72 343.77,-114.03 335.69,-107.18 333.18,-113.72"/>
</a>
</g>
</g>
<!-- Node9 -->
<g id="Node000009" class="node">
<title>Node9</title>
<g id="a_Node000009"><a xlink:href="app_8c.html#a0378208e0d5c0d1d6e7370f1c578fab3" target="_top" xlink:title=" ">
<polygon fill="white" stroke="#666666" points="408.25,-96.75 340.5,-96.75 340.5,-76 408.25,-76 408.25,-96.75"/>
<text text-anchor="middle" x="374.38" y="-83.25" font-family="Helvetica,sans-Serif" font-size="10.00">w2c__f216</text>
</a>
</g>
</g>
<!-- Node8&#45;&gt;Node9 -->
<g id="edge9_Node000008_Node000009" class="edge">
<title>Node8&#45;&gt;Node9</title>
<g id="a_edge9_Node000008_Node000009"><a xlink:title=" ">
<path fill="none" stroke="#63b8ff" d="M304.94,-86.38C312.57,-86.38 320.81,-86.38 328.83,-86.38"/>
<polygon fill="#63b8ff" stroke="#63b8ff" points="328.82,-89.88 338.82,-86.38 328.82,-82.88 328.82,-89.88"/>
</a>
</g>
</g>
<!-- Node10 -->
<g id="Node000010" class="node">
<title>Node10</title>
<g id="a_Node000010"><a xlink:href="app_8c.html#a674f6e81761467d0a8dc6d2a425eda9f" target="_top" xlink:title=" ">
<polygon fill="white" stroke="#666666" points="408.25,-20.75 340.5,-20.75 340.5,0 408.25,0 408.25,-20.75"/>
<text text-anchor="middle" x="374.38" y="-7.25" font-family="Helvetica,sans-Serif" font-size="10.00">w2c__f498</text>
</a>
</g>
</g>
<!-- Node8&#45;&gt;Node10 -->
<g id="edge14_Node000008_Node000010" class="edge">
<title>Node8&#45;&gt;Node10</title>
<g id="a_edge14_Node000008_Node000010"><a xlink:title=" ">
<path fill="none" stroke="#63b8ff" d="M285.82,-75.55C299.71,-64.99 321.49,-48.49 340.5,-34.38 343.36,-32.25 346.36,-30.04 349.35,-27.85"/>
<polygon fill="#63b8ff" stroke="#63b8ff" points="351.38,-30.7 357.39,-21.97 347.25,-25.05 351.38,-30.7"/>
</a>
</g>
</g>
<!-- Node9&#45;&gt;Node5 -->
<g id="edge10_Node000009_Node000005" class="edge">
<title>Node9&#45;&gt;Node5</title>
<g id="a_edge10_Node000009_Node000005"><a xlink:title=" ">
<path fill="none" stroke="#63b8ff" d="M408.69,-92.92C416.41,-94.44 424.75,-96.08 432.86,-97.67"/>
<polygon fill="#63b8ff" stroke="#63b8ff" points="432.11,-101.09 442.6,-99.59 433.46,-94.22 432.11,-101.09"/>
</a>
</g>
</g>
</g>
</svg>
