<?xml version="1.0" encoding="UTF-8" standalone="no"?>
<!DOCTYPE svg PUBLIC "-//W3C//DTD SVG 1.1//EN"
 "http://www.w3.org/Graphics/SVG/1.1/DTD/svg11.dtd">
<!-- Generated by graphviz version 12.2.1 (0)
 -->
<!-- Title: wrap_w2c__f451 Pages: 1 -->
<svg width="935pt" height="351pt"
 viewBox="0.00 0.00 935.00 351.00" xmlns="http://www.w3.org/2000/svg" xmlns:xlink="http://www.w3.org/1999/xlink">
<g id="graph0" class="graph" transform="scale(1 1) rotate(0) translate(4 347)">
<title>wrap_w2c__f451</title>
<!-- Node1 -->
<g id="Node000001" class="node">
<title>Node1</title>
<g id="a_Node000001"><a xlink:title=" ">
<polygon fill="#999999" stroke="#666666" points="97,-315.38 0,-315.38 0,-294.62 97,-294.62 97,-315.38"/>
<text text-anchor="middle" x="48.5" y="-301.88" font-family="Helvetica,sans-Serif" font-size="10.00">wrap_w2c__f451</text>
</a>
</g>
</g>
<!-- Node2 -->
<g id="Node000002" class="node">
<title>Node2</title>
<g id="a_Node000002"><a xlink:href="app_8c.html#a051a4ada43e33e41b591ce80f5f37aca" target="_top" xlink:title=" ">
<polygon fill="white" stroke="#666666" points="200.75,-315.38 133,-315.38 133,-294.62 200.75,-294.62 200.75,-315.38"/>
<text text-anchor="middle" x="166.88" y="-301.88" font-family="Helvetica,sans-Serif" font-size="10.00">w2c__f451</text>
</a>
</g>
</g>
<!-- Node1&#45;&gt;Node2 -->
<g id="edge1_Node000001_Node000002" class="edge">
<title>Node1&#45;&gt;Node2</title>
<g id="a_edge1_Node000001_Node000002"><a xlink:title=" ">
<path fill="none" stroke="#63b8ff" d="M97.17,-305C105.18,-305 113.47,-305 121.4,-305"/>
<polygon fill="#63b8ff" stroke="#63b8ff" points="121.17,-308.5 131.17,-305 121.17,-301.5 121.17,-308.5"/>
</a>
</g>
</g>
<!-- Node3 -->
<g id="Node000003" class="node">
<title>Node3</title>
<g id="a_Node000003"><a xlink:href="app_8c.html#a0378208e0d5c0d1d6e7370f1c578fab3" target="_top" xlink:title=" ">
<polygon fill="white" stroke="#666666" points="823.25,-277.38 755.5,-277.38 755.5,-256.62 823.25,-256.62 823.25,-277.38"/>
<text text-anchor="middle" x="789.38" y="-263.88" font-family="Helvetica,sans-Serif" font-size="10.00">w2c__f216</text>
</a>
</g>
</g>
<!-- Node2&#45;&gt;Node3 -->
<g id="edge2_Node000002_Node000003" class="edge">
<title>Node2&#45;&gt;Node3</title>
<g id="a_edge2_Node000002_Node000003"><a xlink:title=" ">
<path fill="none" stroke="#63b8ff" d="M200.99,-314.98C241.31,-326.24 311.7,-343 373.38,-343 373.38,-343 373.38,-343 582.88,-343 650.85,-343 724.06,-305.97 762.07,-283.6"/>
<polygon fill="#63b8ff" stroke="#63b8ff" points="763.77,-286.67 770.53,-278.51 760.16,-280.67 763.77,-286.67"/>
</a>
</g>
</g>
<!-- Node5 -->
<g id="Node000005" class="node">
<title>Node5</title>
<g id="a_Node000005"><a xlink:href="app_8c.html#a5bcd487c0a8bcb7cb69947a76c4951cb" target="_top" xlink:title=" ">
<polygon fill="white" stroke="#666666" points="304.5,-163.38 236.75,-163.38 236.75,-142.62 304.5,-142.62 304.5,-163.38"/>
<text text-anchor="middle" x="270.62" y="-149.88" font-family="Helvetica,sans-Serif" font-size="10.00">w2c__f324</text>
</a>
</g>
</g>
<!-- Node2&#45;&gt;Node5 -->
<g id="edge4_Node000002_Node000005" class="edge">
<title>Node2&#45;&gt;Node5</title>
<g id="a_edge4_Node000002_Node000005"><a xlink:title=" ">
<path fill="none" stroke="#63b8ff" d="M174.87,-294.55C191.64,-269.5 234.38,-205.65 256.27,-172.95"/>
<polygon fill="#63b8ff" stroke="#63b8ff" points="259.09,-175.04 261.74,-164.78 253.27,-171.14 259.09,-175.04"/>
</a>
</g>
</g>
<!-- Node9 -->
<g id="Node000009" class="node">
<title>Node9</title>
<g id="a_Node000009"><a xlink:href="app_8c.html#a282da58cdb8a8d86b26b785358ce183a" target="_top" xlink:title=" ">
<polygon fill="white" stroke="#666666" points="512,-258.38 444.25,-258.38 444.25,-237.62 512,-237.62 512,-258.38"/>
<text text-anchor="middle" x="478.12" y="-244.88" font-family="Helvetica,sans-Serif" font-size="10.00">w2c__f504</text>
</a>
</g>
</g>
<!-- Node2&#45;&gt;Node9 -->
<g id="edge32_Node000002_Node000009" class="edge">
<title>Node2&#45;&gt;Node9</title>
<g id="a_edge32_Node000002_Node000009"><a xlink:title=" ">
<path fill="none" stroke="#63b8ff" d="M200.97,-298.9C256.86,-288.6 369.97,-267.75 432.7,-256.19"/>
<polygon fill="#63b8ff" stroke="#63b8ff" points="433.11,-259.67 442.31,-254.42 431.84,-252.79 433.11,-259.67"/>
</a>
</g>
</g>
<!-- Node4 -->
<g id="Node000004" class="node">
<title>Node4</title>
<g id="a_Node000004"><a xlink:href="app_8c.html#a8d9f347f9a643f0ebfb53c4f54578ac4" target="_top" xlink:title=" ">
<polygon fill="white" stroke="#666666" points="927,-220.38 859.25,-220.38 859.25,-199.62 927,-199.62 927,-220.38"/>
<text text-anchor="middle" x="893.12" y="-206.88" font-family="Helvetica,sans-Serif" font-size="10.00">w2c__f304</text>
</a>
</g>
</g>
<!-- Node3&#45;&gt;Node4 -->
<g id="edge3_Node000003_Node000004" class="edge">
<title>Node3&#45;&gt;Node4</title>
<g id="a_edge3_Node000003_Node000004"><a xlink:title=" ">
<path fill="none" stroke="#63b8ff" d="M809.51,-256.28C824.62,-247.81 845.95,-235.87 863.15,-226.23"/>
<polygon fill="#63b8ff" stroke="#63b8ff" points="864.39,-229.55 871.41,-221.61 860.97,-223.44 864.39,-229.55"/>
</a>
</g>
</g>
<!-- Node5&#45;&gt;Node3 -->
<g id="edge5_Node000005_Node000003" class="edge">
<title>Node5&#45;&gt;Node3</title>
<g id="a_edge5_Node000005_Node000003"><a xlink:title=" ">
<path fill="none" stroke="#63b8ff" d="M278.83,-163.84C290.15,-180.12 313.62,-210.89 340.5,-229 381.23,-256.44 395.9,-258.42 444.25,-267 550.52,-285.85 678.17,-278.1 744.11,-271.9"/>
<polygon fill="#63b8ff" stroke="#63b8ff" points="744.18,-275.41 753.79,-270.95 743.5,-268.44 744.18,-275.41"/>
</a>
</g>
</g>
<!-- Node6 -->
<g id="Node000006" class="node">
<title>Node6</title>
<g id="a_Node000006"><a xlink:href="app_8c.html#aaca5d5bcf49f2ca74019cf097750b9f3" target="_top" xlink:title=" ">
<polygon fill="white" stroke="#666666" points="823.25,-123.38 755.5,-123.38 755.5,-102.62 823.25,-102.62 823.25,-123.38"/>
<text text-anchor="middle" x="789.38" y="-109.88" font-family="Helvetica,sans-Serif" font-size="10.00">w2c__f258</text>
</a>
</g>
</g>
<!-- Node5&#45;&gt;Node6 -->
<g id="edge6_Node000005_Node000006" class="edge">
<title>Node5&#45;&gt;Node6</title>
<g id="a_edge6_Node000005_Node000006"><a xlink:title=" ">
<path fill="none" stroke="#63b8ff" d="M275.03,-142.38C282.82,-119.79 304.13,-66.81 340.5,-39 390.67,-0.65 413.98,0 477.12,0 477.12,0 477.12,0 582.88,0 660.24,0 735.98,-62.26 769.88,-94.35"/>
<polygon fill="#63b8ff" stroke="#63b8ff" points="767.23,-96.66 776.85,-101.11 772.11,-91.64 767.23,-96.66"/>
</a>
</g>
</g>
<!-- Node8 -->
<g id="Node000008" class="node">
<title>Node8</title>
<g id="a_Node000008"><a xlink:href="app_8c.html#a8ddfdaf7faae4bc857dc43f2691b9dbe" target="_top" xlink:title=" ">
<polygon fill="white" stroke="#666666" points="408.25,-220.38 340.5,-220.38 340.5,-199.62 408.25,-199.62 408.25,-220.38"/>
<text text-anchor="middle" x="374.38" y="-206.88" font-family="Helvetica,sans-Serif" font-size="10.00">w2c__f306</text>
</a>
</g>
</g>
<!-- Node5&#45;&gt;Node8 -->
<g id="edge9_Node000005_Node000008" class="edge">
<title>Node5&#45;&gt;Node8</title>
<g id="a_edge9_Node000005_Node000008"><a xlink:title=" ">
<path fill="none" stroke="#63b8ff" d="M290.76,-163.72C305.87,-172.19 327.2,-184.13 344.4,-193.77"/>
<polygon fill="#63b8ff" stroke="#63b8ff" points="342.22,-196.56 352.66,-198.39 345.64,-190.45 342.22,-196.56"/>
</a>
</g>
</g>
<!-- Node14 -->
<g id="Node000014" class="node">
<title>Node14</title>
<g id="a_Node000014"><a xlink:href="app_8c.html#a674f6e81761467d0a8dc6d2a425eda9f" target="_top" xlink:title=" ">
<polygon fill="white" stroke="#666666" points="823.25,-162.38 755.5,-162.38 755.5,-141.62 823.25,-141.62 823.25,-162.38"/>
<text text-anchor="middle" x="789.38" y="-148.88" font-family="Helvetica,sans-Serif" font-size="10.00">w2c__f498</text>
</a>
</g>
</g>
<!-- Node5&#45;&gt;Node14 -->
<g id="edge31_Node000005_Node000014" class="edge">
<title>Node5&#45;&gt;Node14</title>
<g id="a_edge31_Node000005_Node000014"><a xlink:title=" ">
<path fill="none" stroke="#63b8ff" d="M304.93,-152.88C371.05,-152.66 523.56,-152.17 651.75,-152 682.54,-151.96 717.22,-151.96 743.95,-151.97"/>
<polygon fill="#63b8ff" stroke="#63b8ff" points="743.73,-155.47 753.73,-151.97 743.73,-148.47 743.73,-155.47"/>
</a>
</g>
</g>
<!-- Node15 -->
<g id="Node000015" class="node">
<title>Node15</title>
<g id="a_Node000015"><a xlink:href="app_8c.html#aef40add0dc334cf9fde891ca08feb3af" target="_top" xlink:title=" ">
<polygon fill="white" stroke="#666666" points="408.25,-107.38 340.5,-107.38 340.5,-86.62 408.25,-86.62 408.25,-107.38"/>
<text text-anchor="middle" x="374.38" y="-93.88" font-family="Helvetica,sans-Serif" font-size="10.00">w2c__f307</text>
</a>
</g>
</g>
<!-- Node5&#45;&gt;Node15 -->
<g id="edge23_Node000005_Node000015" class="edge">
<title>Node5&#45;&gt;Node15</title>
<g id="a_edge23_Node000005_Node000015"><a xlink:title=" ">
<path fill="none" stroke="#63b8ff" d="M291.24,-142.2C306.16,-133.99 326.94,-122.56 343.86,-113.24"/>
<polygon fill="#63b8ff" stroke="#63b8ff" points="345.42,-116.38 352.49,-108.49 342.04,-110.25 345.42,-116.38"/>
</a>
</g>
</g>
<!-- Node19 -->
<g id="Node000019" class="node">
<title>Node19</title>
<g id="a_Node000019"><a xlink:href="app_8c.html#a6400a1d612ef3a2faf5397156806ce7f" target="_top" xlink:title=" ">
<polygon fill="white" stroke="#666666" points="408.25,-68.38 340.5,-68.38 340.5,-47.62 408.25,-47.62 408.25,-68.38"/>
<text text-anchor="middle" x="374.38" y="-54.88" font-family="Helvetica,sans-Serif" font-size="10.00">w2c__f450</text>
</a>
</g>
</g>
<!-- Node5&#45;&gt;Node19 -->
<g id="edge28_Node000005_Node000019" class="edge">
<title>Node5&#45;&gt;Node19</title>
<g id="a_edge28_Node000005_Node000019"><a xlink:title=" ">
<path fill="none" stroke="#63b8ff" d="M279.93,-142.17C292.11,-126.74 316.04,-98.08 340.5,-78 341.76,-76.97 343.08,-75.95 344.43,-74.95"/>
<polygon fill="#63b8ff" stroke="#63b8ff" points="346.03,-78.09 352.38,-69.61 342.13,-72.28 346.03,-78.09"/>
</a>
</g>
</g>
<!-- Node6&#45;&gt;Node4 -->
<g id="edge7_Node000006_Node000004" class="edge">
<title>Node6&#45;&gt;Node4</title>
<g id="a_edge7_Node000006_Node000004"><a xlink:title=" ">
<path fill="none" stroke="#63b8ff" d="M810.14,-123.73C814.63,-126.51 819.24,-129.67 823.25,-133 844,-150.26 864.15,-173.83 877.24,-190.33"/>
<polygon fill="#63b8ff" stroke="#63b8ff" points="874.25,-192.19 883.15,-197.93 879.78,-187.89 874.25,-192.19"/>
</a>
</g>
</g>
<!-- Node7 -->
<g id="Node000007" class="node">
<title>Node7</title>
<g id="a_Node000007"><a xlink:href="app_8c.html#a881f0b113e93dce3ff52d04b435850f6" target="_top" xlink:title=" ">
<polygon fill="white" stroke="#666666" points="927,-123.38 859.25,-123.38 859.25,-102.62 927,-102.62 927,-123.38"/>
<text text-anchor="middle" x="893.12" y="-109.88" font-family="Helvetica,sans-Serif" font-size="10.00">w2c__f491</text>
</a>
</g>
</g>
<!-- Node6&#45;&gt;Node7 -->
<g id="edge8_Node000006_Node000007" class="edge">
<title>Node6&#45;&gt;Node7</title>
<g id="a_edge8_Node000006_Node000007"><a xlink:title=" ">
<path fill="none" stroke="#63b8ff" d="M823.69,-113C831.32,-113 839.56,-113 847.58,-113"/>
<polygon fill="#63b8ff" stroke="#63b8ff" points="847.57,-116.5 857.57,-113 847.57,-109.5 847.57,-116.5"/>
</a>
</g>
</g>
<!-- Node8&#45;&gt;Node3 -->
<g id="edge10_Node000008_Node000003" class="edge">
<title>Node8&#45;&gt;Node3</title>
<g id="a_edge10_Node000008_Node000003"><a xlink:title=" ">
<path fill="none" stroke="#63b8ff" d="M408.47,-214.57C482.26,-224.75 660.26,-249.32 743.75,-260.84"/>
<polygon fill="#63b8ff" stroke="#63b8ff" points="743.23,-264.3 753.62,-262.2 744.19,-257.37 743.23,-264.3"/>
</a>
</g>
</g>
<!-- Node8&#45;&gt;Node9 -->
<g id="edge11_Node000008_Node000009" class="edge">
<title>Node8&#45;&gt;Node9</title>
<g id="a_edge11_Node000008_Node000009"><a xlink:title=" ">
<path fill="none" stroke="#63b8ff" d="M404.26,-220.79C414.57,-224.64 426.38,-229.05 437.44,-233.18"/>
<polygon fill="#63b8ff" stroke="#63b8ff" points="436.16,-236.44 446.75,-236.66 438.61,-229.88 436.16,-236.44"/>
</a>
</g>
</g>
<!-- Node10 -->
<g id="Node000010" class="node">
<title>Node10</title>
<g id="a_Node000010"><a xlink:href="app_8c.html#a1a8a1d528c65d63a630e19c3a4bdd098" target="_top" xlink:title=" ">
<polygon fill="white" stroke="#666666" points="615.75,-220.38 548,-220.38 548,-199.62 615.75,-199.62 615.75,-220.38"/>
<text text-anchor="middle" x="581.88" y="-206.88" font-family="Helvetica,sans-Serif" font-size="10.00">w2c__f557</text>
</a>
</g>
</g>
<!-- Node9&#45;&gt;Node10 -->
<g id="edge12_Node000009_Node000010" class="edge">
<title>Node9&#45;&gt;Node10</title>
<g id="a_edge12_Node000009_Node000010"><a xlink:title=" ">
<path fill="none" stroke="#63b8ff" d="M508.01,-237.21C518.32,-233.36 530.13,-228.95 541.19,-224.82"/>
<polygon fill="#63b8ff" stroke="#63b8ff" points="542.36,-228.12 550.5,-221.34 539.91,-221.56 542.36,-228.12"/>
</a>
</g>
</g>
<!-- Node11 -->
<g id="Node000011" class="node">
<title>Node11</title>
<g id="a_Node000011"><a xlink:href="app_8c.html#a0f7003812eaf983535ff7979fc047a21" target="_top" xlink:title=" ">
<polygon fill="white" stroke="#666666" points="719.5,-181.38 651.75,-181.38 651.75,-160.62 719.5,-160.62 719.5,-181.38"/>
<text text-anchor="middle" x="685.62" y="-167.88" font-family="Helvetica,sans-Serif" font-size="10.00">w2c__f353</text>
</a>
</g>
</g>
<!-- Node10&#45;&gt;Node11 -->
<g id="edge13_Node000010_Node000011" class="edge">
<title>Node10&#45;&gt;Node11</title>
<g id="a_edge13_Node000010_Node000011"><a xlink:title=" ">
<path fill="none" stroke="#63b8ff" d="M611.22,-199.14C621.91,-195.04 634.27,-190.3 645.76,-185.9"/>
<polygon fill="#63b8ff" stroke="#63b8ff" points="646.94,-189.19 655.02,-182.35 644.43,-182.66 646.94,-189.19"/>
</a>
</g>
</g>
<!-- Node13 -->
<g id="Node000013" class="node">
<title>Node13</title>
<g id="a_Node000013"><a xlink:href="app_8c.html#ac9cc84763a9c1933e50eedd7a06c17e2" target="_top" xlink:title=" ">
<polygon fill="white" stroke="#666666" points="719.5,-220.38 651.75,-220.38 651.75,-199.62 719.5,-199.62 719.5,-220.38"/>
<text text-anchor="middle" x="685.62" y="-206.88" font-family="Helvetica,sans-Serif" font-size="10.00">w2c__f480</text>
</a>
</g>
</g>
<!-- Node10&#45;&gt;Node13 -->
<g id="edge17_Node000010_Node000013" class="edge">
<title>Node10&#45;&gt;Node13</title>
<g id="a_edge17_Node000010_Node000013"><a xlink:title=" ">
<path fill="none" stroke="#63b8ff" d="M616.19,-210C623.82,-210 632.06,-210 640.08,-210"/>
<polygon fill="#63b8ff" stroke="#63b8ff" points="640.07,-213.5 650.07,-210 640.07,-206.5 640.07,-213.5"/>
</a>
</g>
</g>
<!-- Node11&#45;&gt;Node6 -->
<g id="edge14_Node000011_Node000006" class="edge">
<title>Node11&#45;&gt;Node6</title>
<g id="a_edge14_Node000011_Node000006"><a xlink:title=" ">
<path fill="none" stroke="#63b8ff" d="M705.29,-160.36C720.54,-151.67 742.35,-139.24 759.8,-129.29"/>
<polygon fill="#63b8ff" stroke="#63b8ff" points="761.22,-132.51 768.17,-124.52 757.75,-126.43 761.22,-132.51"/>
</a>
</g>
</g>
<!-- Node12 -->
<g id="Node000012" class="node">
<title>Node12</title>
<g id="a_Node000012"><a xlink:href="app_8c.html#a4634342addbde677893ffcb45cf639dd" target="_top" xlink:title=" ">
<polygon fill="white" stroke="#666666" points="823.25,-201.38 755.5,-201.38 755.5,-180.62 823.25,-180.62 823.25,-201.38"/>
<text text-anchor="middle" x="789.38" y="-187.88" font-family="Helvetica,sans-Serif" font-size="10.00">w2c__f302</text>
</a>
</g>
</g>
<!-- Node11&#45;&gt;Node12 -->
<g id="edge15_Node000011_Node000012" class="edge">
<title>Node11&#45;&gt;Node12</title>
<g id="a_edge15_Node000011_Node000012"><a xlink:title=" ">
<path fill="none" stroke="#63b8ff" d="M719.94,-177.55C727.66,-179.07 736,-180.7 744.11,-182.3"/>
<polygon fill="#63b8ff" stroke="#63b8ff" points="743.36,-185.72 753.85,-184.21 744.71,-178.85 743.36,-185.72"/>
</a>
</g>
</g>
<!-- Node12&#45;&gt;Node4 -->
<g id="edge16_Node000012_Node000004" class="edge">
<title>Node12&#45;&gt;Node4</title>
<g id="a_edge16_Node000012_Node000004"><a xlink:title=" ">
<path fill="none" stroke="#63b8ff" d="M823.69,-197.22C831.41,-198.66 839.75,-200.22 847.86,-201.73"/>
<polygon fill="#63b8ff" stroke="#63b8ff" points="847.12,-205.16 857.59,-203.55 848.41,-198.28 847.12,-205.16"/>
</a>
</g>
</g>
<!-- Node13&#45;&gt;Node3 -->
<g id="edge18_Node000013_Node000003" class="edge">
<title>Node13&#45;&gt;Node3</title>
<g id="a_edge18_Node000013_Node000003"><a xlink:title=" ">
<path fill="none" stroke="#63b8ff" d="M705.76,-220.72C720.87,-229.19 742.2,-241.13 759.4,-250.77"/>
<polygon fill="#63b8ff" stroke="#63b8ff" points="757.22,-253.56 767.66,-255.39 760.64,-247.45 757.22,-253.56"/>
</a>
</g>
</g>
<!-- Node13&#45;&gt;Node4 -->
<g id="edge21_Node000013_Node000004" class="edge">
<title>Node13&#45;&gt;Node4</title>
<g id="a_edge21_Node000013_Node000004"><a xlink:title=" ">
<path fill="none" stroke="#63b8ff" d="M719.64,-210C754.29,-210 808.98,-210 847.46,-210"/>
<polygon fill="#63b8ff" stroke="#63b8ff" points="847.34,-213.5 857.34,-210 847.34,-206.5 847.34,-213.5"/>
</a>
</g>
</g>
<!-- Node13&#45;&gt;Node6 -->
<g id="edge19_Node000013_Node000006" class="edge">
<title>Node13&#45;&gt;Node6</title>
<g id="a_edge19_Node000013_Node000006"><a xlink:title=" ">
<path fill="none" stroke="#63b8ff" d="M707.5,-199.3C711.74,-196.6 715.98,-193.47 719.5,-190 740.86,-168.99 734.14,-154.01 755.5,-133 756.38,-132.13 757.31,-131.29 758.27,-130.46"/>
<polygon fill="#63b8ff" stroke="#63b8ff" points="760.28,-133.33 766.28,-124.59 756.14,-127.68 760.28,-133.33"/>
</a>
</g>
</g>
<!-- Node13&#45;&gt;Node12 -->
<g id="edge20_Node000013_Node000012" class="edge">
<title>Node13&#45;&gt;Node12</title>
<g id="a_edge20_Node000013_Node000012"><a xlink:title=" ">
<path fill="none" stroke="#63b8ff" d="M719.94,-203.78C727.66,-202.34 736,-200.78 744.11,-199.27"/>
<polygon fill="#63b8ff" stroke="#63b8ff" points="744.66,-202.72 753.84,-197.45 743.37,-195.84 744.66,-202.72"/>
</a>
</g>
</g>
<!-- Node13&#45;&gt;Node14 -->
<g id="edge22_Node000013_Node000014" class="edge">
<title>Node13&#45;&gt;Node14</title>
<g id="a_edge22_Node000013_Node000014"><a xlink:title=" ">
<path fill="none" stroke="#63b8ff" d="M705.29,-199.36C720.54,-190.67 742.35,-178.24 759.8,-168.29"/>
<polygon fill="#63b8ff" stroke="#63b8ff" points="761.22,-171.51 768.17,-163.52 757.75,-165.43 761.22,-171.51"/>
</a>
</g>
</g>
<!-- Node15&#45;&gt;Node15 -->
<g id="edge24_Node000015_Node000015" class="edge">
<title>Node15&#45;&gt;Node15</title>
<g id="a_edge24_Node000015_Node000015"><a xlink:title=" ">
<path fill="none" stroke="#63b8ff" d="M357.66,-107.77C350.97,-116.43 356.54,-125.38 374.38,-125.38 383.85,-125.38 389.86,-122.85 392.41,-119.19"/>
<polygon fill="#63b8ff" stroke="#63b8ff" points="395.89,-118.81 391.27,-109.28 388.94,-119.61 395.89,-118.81"/>
</a>
</g>
</g>
<!-- Node16 -->
<g id="Node000016" class="node">
<title>Node16</title>
<g id="a_Node000016"><a xlink:href="app_8c.html#a0a38e411c42b7f55721003b8e8ca0220" target="_top" xlink:title=" ">
<polygon fill="white" stroke="#666666" points="512,-125.38 444.25,-125.38 444.25,-104.62 512,-104.62 512,-125.38"/>
<text text-anchor="middle" x="478.12" y="-111.88" font-family="Helvetica,sans-Serif" font-size="10.00">w2c__f584</text>
</a>
</g>
</g>
<!-- Node15&#45;&gt;Node16 -->
<g id="edge25_Node000015_Node000016" class="edge">
<title>Node15&#45;&gt;Node16</title>
<g id="a_edge25_Node000015_Node000016"><a xlink:title=" ">
<path fill="none" stroke="#63b8ff" d="M408.69,-102.89C416.41,-104.26 424.75,-105.73 432.86,-107.17"/>
<polygon fill="#63b8ff" stroke="#63b8ff" points="432.13,-110.6 442.59,-108.89 433.35,-103.7 432.13,-110.6"/>
</a>
</g>
</g>
<!-- Node17 -->
<g id="Node000017" class="node">
<title>Node17</title>
<g id="a_Node000017"><a xlink:href="app_8c.html#ad08eca629615b71460bd69ae96483b21" target="_top" xlink:title=" ">
<polygon fill="white" stroke="#666666" points="615.75,-125.38 548,-125.38 548,-104.62 615.75,-104.62 615.75,-125.38"/>
<text text-anchor="middle" x="581.88" y="-111.88" font-family="Helvetica,sans-Serif" font-size="10.00">w2c__f327</text>
</a>
</g>
</g>
<!-- Node16&#45;&gt;Node17 -->
<g id="edge26_Node000016_Node000017" class="edge">
<title>Node16&#45;&gt;Node17</title>
<g id="a_edge26_Node000016_Node000017"><a xlink:title=" ">
<path fill="none" stroke="#63b8ff" d="M512.44,-115C520.07,-115 528.31,-115 536.33,-115"/>
<polygon fill="#63b8ff" stroke="#63b8ff" points="536.32,-118.5 546.32,-115 536.32,-111.5 536.32,-118.5"/>
</a>
</g>
</g>
<!-- Node18 -->
<g id="Node000018" class="node">
<title>Node18</title>
<g id="a_Node000018"><a xlink:href="app_8c.html#ab78a9ba6819f5a9d3b53302097151d33" target="_top" xlink:title=" ">
<polygon fill="white" stroke="#666666" points="615.75,-67.38 548,-67.38 548,-46.62 615.75,-46.62 615.75,-67.38"/>
<text text-anchor="middle" x="581.88" y="-53.88" font-family="Helvetica,sans-Serif" font-size="10.00">w2c__f481</text>
</a>
</g>
</g>
<!-- Node16&#45;&gt;Node18 -->
<g id="edge27_Node000016_Node000018" class="edge">
<title>Node16&#45;&gt;Node18</title>
<g id="a_edge27_Node000016_Node000018"><a xlink:title=" ">
<path fill="none" stroke="#63b8ff" d="M497.79,-104.36C513.04,-95.67 534.85,-83.24 552.3,-73.29"/>
<polygon fill="#63b8ff" stroke="#63b8ff" points="553.72,-76.51 560.67,-68.52 550.25,-70.43 553.72,-76.51"/>
</a>
</g>
</g>
<!-- Node19&#45;&gt;Node18 -->
<g id="edge29_Node000019_Node000018" class="edge">
<title>Node19&#45;&gt;Node18</title>
<g id="a_edge29_Node000019_Node000018"><a xlink:title=" ">
<path fill="none" stroke="#63b8ff" d="M408.65,-57.42C419.95,-57.25 432.65,-57.08 444.25,-57 475.04,-56.78 509.72,-56.78 536.44,-56.84"/>
<polygon fill="#63b8ff" stroke="#63b8ff" points="536.22,-60.34 546.23,-56.86 536.24,-53.34 536.22,-60.34"/>
</a>
</g>
</g>
<!-- Node20 -->
<g id="Node000020" class="node">
<title>Node20</title>
<g id="a_Node000020"><a xlink:href="app_8c.html#a8a4084e68b42056da4d5418f72ea03f9" target="_top" xlink:title=" ">
<polygon fill="white" stroke="#666666" points="512,-86.38 444.25,-86.38 444.25,-65.62 512,-65.62 512,-86.38"/>
<text text-anchor="middle" x="478.12" y="-72.88" font-family="Helvetica,sans-Serif" font-size="10.00">w2c__f517</text>
</a>
</g>
</g>
<!-- Node19&#45;&gt;Node20 -->
<g id="edge30_Node000019_Node000020" class="edge">
<title>Node19&#45;&gt;Node20</title>
<g id="a_edge30_Node000019_Node000020"><a xlink:title=" ">
<path fill="none" stroke="#63b8ff" d="M408.69,-63.89C416.41,-65.26 424.75,-66.73 432.86,-68.17"/>
<polygon fill="#63b8ff" stroke="#63b8ff" points="432.13,-71.6 442.59,-69.89 433.35,-64.7 432.13,-71.6"/>
</a>
</g>
</g>
</g>
</svg>
