<?xml version="1.0" encoding="UTF-8" standalone="no"?>
<!DOCTYPE svg PUBLIC "-//W3C//DTD SVG 1.1//EN"
 "http://www.w3.org/Graphics/SVG/1.1/DTD/svg11.dtd">
<!-- Generated by graphviz version 12.2.1 (0)
 -->
<!-- Title: w2c__f333 Pages: 1 -->
<svg width="287pt" height="107pt"
 viewBox="0.00 0.00 287.00 106.75" xmlns="http://www.w3.org/2000/svg" xmlns:xlink="http://www.w3.org/1999/xlink">
<g id="graph0" class="graph" transform="scale(1 1) rotate(0) translate(4 102.75)">
<title>w2c__f333</title>
<!-- Node1 -->
<g id="Node000001" class="node">
<title>Node1</title>
<g id="a_Node000001"><a xlink:title=" ">
<polygon fill="#999999" stroke="#666666" points="67.75,-59.75 0,-59.75 0,-39 67.75,-39 67.75,-59.75"/>
<text text-anchor="middle" x="33.88" y="-46.25" font-family="Helvetica,sans-Serif" font-size="10.00">w2c__f333</text>
</a>
</g>
</g>
<!-- Node2 -->
<g id="Node000002" class="node">
<title>Node2</title>
<g id="a_Node000002"><a xlink:href="app_8c.html#ae1c9fcb1e344576194464e3868b69f0e" target="_top" xlink:title=" ">
<polygon fill="white" stroke="#666666" points="175.25,-98.75 107.5,-98.75 107.5,-78 175.25,-78 175.25,-98.75"/>
<text text-anchor="middle" x="141.38" y="-85.25" font-family="Helvetica,sans-Serif" font-size="10.00">w2c__f518</text>
</a>
</g>
</g>
<!-- Node1&#45;&gt;Node2 -->
<g id="edge1_Node000001_Node000002" class="edge">
<title>Node1&#45;&gt;Node2</title>
<g id="a_edge1_Node000001_Node000002"><a xlink:title=" ">
<path fill="none" stroke="#63b8ff" d="M64.26,-60.24C75.47,-64.38 88.43,-69.17 100.45,-73.62"/>
<polygon fill="#63b8ff" stroke="#63b8ff" points="99.13,-76.86 109.73,-77.04 101.56,-70.29 99.13,-76.86"/>
</a>
</g>
</g>
<!-- Node3 -->
<g id="Node000003" class="node">
<title>Node3</title>
<g id="a_Node000003"><a xlink:href="app_8c.html#ad63b6498cfe22ce747f349eeb23b508f" target="_top" xlink:title=" ">
<polygon fill="white" stroke="#666666" points="177.12,-59.75 105.62,-59.75 105.62,-39 177.12,-39 177.12,-59.75"/>
<text text-anchor="middle" x="141.38" y="-46.25" font-family="Helvetica,sans-Serif" font-size="10.00">wasm_fabs</text>
</a>
</g>
</g>
<!-- Node1&#45;&gt;Node3 -->
<g id="edge2_Node000001_Node000003" class="edge">
<title>Node1&#45;&gt;Node3</title>
<g id="a_edge2_Node000001_Node000003"><a xlink:title=" ">
<path fill="none" stroke="#63b8ff" d="M67.97,-49.38C76.2,-49.38 85.18,-49.38 93.93,-49.38"/>
<polygon fill="#63b8ff" stroke="#63b8ff" points="93.7,-52.88 103.7,-49.38 93.7,-45.88 93.7,-52.88"/>
</a>
</g>
</g>
<!-- Node4 -->
<g id="Node000004" class="node">
<title>Node4</title>
<g id="a_Node000004"><a xlink:href="app_8c.html#a43517182877370811f9852884f2e3844" target="_top" xlink:title=" ">
<polygon fill="white" stroke="#666666" points="179,-20.75 103.75,-20.75 103.75,0 179,0 179,-20.75"/>
<text text-anchor="middle" x="141.38" y="-7.25" font-family="Helvetica,sans-Serif" font-size="10.00">wasm_trunc</text>
</a>
</g>
</g>
<!-- Node1&#45;&gt;Node4 -->
<g id="edge3_Node000001_Node000004" class="edge">
<title>Node1&#45;&gt;Node4</title>
<g id="a_edge3_Node000001_Node000004"><a xlink:title=" ">
<path fill="none" stroke="#63b8ff" d="M64.26,-38.51C75.47,-34.37 88.43,-29.58 100.45,-25.13"/>
<polygon fill="#63b8ff" stroke="#63b8ff" points="101.56,-28.46 109.73,-21.71 99.13,-21.89 101.56,-28.46"/>
</a>
</g>
</g>
<!-- Node5 -->
<g id="Node000005" class="node">
<title>Node5</title>
<g id="a_Node000005"><a xlink:href="app_8c.html#ae10979e670e507d4373e8cadcb3169aa" target="_top" xlink:title=" ">
<polygon fill="white" stroke="#666666" points="279,-20.75 215,-20.75 215,0 279,0 279,-20.75"/>
<text text-anchor="middle" x="247" y="-7.25" font-family="Helvetica,sans-Serif" font-size="10.00">quiet_nan</text>
</a>
</g>
</g>
<!-- Node4&#45;&gt;Node5 -->
<g id="edge4_Node000004_Node000005" class="edge">
<title>Node4&#45;&gt;Node5</title>
<g id="a_edge4_Node000004_Node000005"><a xlink:title=" ">
<path fill="none" stroke="#63b8ff" d="M179.49,-10.38C187.22,-10.38 195.42,-10.38 203.33,-10.38"/>
<polygon fill="#63b8ff" stroke="#63b8ff" points="203.1,-13.88 213.1,-10.38 203.1,-6.88 203.1,-13.88"/>
</a>
</g>
</g>
</g>
</svg>
