<?xml version="1.0" encoding="UTF-8" standalone="no"?>
<!DOCTYPE svg PUBLIC "-//W3C//DTD SVG 1.1//EN"
 "http://www.w3.org/Graphics/SVG/1.1/DTD/svg11.dtd">
<!-- Generated by graphviz version 12.2.1 (0)
 -->
<!-- Title: w2c__f460 Pages: 1 -->
<svg width="595pt" height="298pt"
 viewBox="0.00 0.00 594.50 297.67" xmlns="http://www.w3.org/2000/svg" xmlns:xlink="http://www.w3.org/1999/xlink">
<g id="graph0" class="graph" transform="scale(1 1) rotate(0) translate(4 293.67)">
<title>w2c__f460</title>
<!-- Node1 -->
<g id="Node000001" class="node">
<title>Node1</title>
<g id="a_Node000001"><a xlink:title=" ">
<polygon fill="#999999" stroke="#666666" points="67.75,-134.75 0,-134.75 0,-114 67.75,-114 67.75,-134.75"/>
<text text-anchor="middle" x="33.88" y="-121.25" font-family="Helvetica,sans-Serif" font-size="10.00">w2c__f460</text>
</a>
</g>
</g>
<!-- Node2 -->
<g id="Node000002" class="node">
<title>Node2</title>
<g id="a_Node000002"><a xlink:href="app_8c.html#a0378208e0d5c0d1d6e7370f1c578fab3" target="_top" xlink:title=" ">
<polygon fill="white" stroke="#666666" points="482.75,-76.75 415,-76.75 415,-56 482.75,-56 482.75,-76.75"/>
<text text-anchor="middle" x="448.88" y="-63.25" font-family="Helvetica,sans-Serif" font-size="10.00">w2c__f216</text>
</a>
</g>
</g>
<!-- Node1&#45;&gt;Node2 -->
<g id="edge1_Node000001_Node000002" class="edge">
<title>Node1&#45;&gt;Node2</title>
<g id="a_edge1_Node000001_Node000002"><a xlink:title=" ">
<path fill="none" stroke="#63b8ff" d="M43.32,-113.88C55.14,-100.12 78.06,-76.67 103.75,-67.38 205.98,-30.39 336.76,-45.48 403.84,-57.3"/>
<polygon fill="#63b8ff" stroke="#63b8ff" points="402.87,-60.68 413.33,-59.04 404.13,-53.79 402.87,-60.68"/>
</a>
</g>
</g>
<!-- Node4 -->
<g id="Node000004" class="node">
<title>Node4</title>
<g id="a_Node000004"><a xlink:href="app_8c.html#aaca5d5bcf49f2ca74019cf097750b9f3" target="_top" xlink:title=" ">
<polygon fill="white" stroke="#666666" points="482.75,-239.75 415,-239.75 415,-219 482.75,-219 482.75,-239.75"/>
<text text-anchor="middle" x="448.88" y="-226.25" font-family="Helvetica,sans-Serif" font-size="10.00">w2c__f258</text>
</a>
</g>
</g>
<!-- Node1&#45;&gt;Node4 -->
<g id="edge3_Node000001_Node000004" class="edge">
<title>Node1&#45;&gt;Node4</title>
<g id="a_edge3_Node000001_Node000004"><a xlink:title=" ">
<path fill="none" stroke="#63b8ff" d="M37.95,-134.98C45.34,-158.69 66.32,-216.37 103.75,-248.38 141.07,-280.29 159.15,-277.8 207.5,-286.38 283.38,-299.83 371.16,-266.32 416.76,-245.14"/>
<polygon fill="#63b8ff" stroke="#63b8ff" points="418.26,-248.3 425.78,-240.84 415.24,-241.98 418.26,-248.3"/>
</a>
</g>
</g>
<!-- Node6 -->
<g id="Node000006" class="node">
<title>Node6</title>
<g id="a_Node000006"><a xlink:href="app_8c.html#a4aba2fe8aec5a4bcbf6eb758e545ce4e" target="_top" xlink:title=" ">
<polygon fill="white" stroke="#666666" points="275.25,-20.75 207.5,-20.75 207.5,0 275.25,0 275.25,-20.75"/>
<text text-anchor="middle" x="241.38" y="-7.25" font-family="Helvetica,sans-Serif" font-size="10.00">w2c__f269</text>
</a>
</g>
</g>
<!-- Node1&#45;&gt;Node6 -->
<g id="edge6_Node000001_Node000006" class="edge">
<title>Node1&#45;&gt;Node6</title>
<g id="a_edge6_Node000001_Node000006"><a xlink:title=" ">
<path fill="none" stroke="#63b8ff" d="M39.73,-113.69C49.1,-94.38 71.63,-53.88 103.75,-34.38 131.43,-17.57 167.73,-11.79 195.95,-10.1"/>
<polygon fill="#63b8ff" stroke="#63b8ff" points="195.77,-13.61 205.6,-9.68 195.46,-6.62 195.77,-13.61"/>
</a>
</g>
</g>
<!-- Node7 -->
<g id="Node000007" class="node">
<title>Node7</title>
<g id="a_Node000007"><a xlink:href="app_8c.html#a39e5374effeff0dc142bbb7c393a906a" target="_top" xlink:title=" ">
<polygon fill="white" stroke="#666666" points="171.5,-239.75 103.75,-239.75 103.75,-219 171.5,-219 171.5,-239.75"/>
<text text-anchor="middle" x="137.62" y="-226.25" font-family="Helvetica,sans-Serif" font-size="10.00">w2c__f311</text>
</a>
</g>
</g>
<!-- Node1&#45;&gt;Node7 -->
<g id="edge8_Node000001_Node000007" class="edge">
<title>Node1&#45;&gt;Node7</title>
<g id="a_edge8_Node000001_Node000007"><a xlink:title=" ">
<path fill="none" stroke="#63b8ff" d="M45.38,-135.22C62.61,-152.99 97.07,-188.55 118.36,-210.52"/>
<polygon fill="#63b8ff" stroke="#63b8ff" points="115.8,-212.92 125.27,-217.66 120.83,-208.05 115.8,-212.92"/>
</a>
</g>
</g>
<!-- Node9 -->
<g id="Node000009" class="node">
<title>Node9</title>
<g id="a_Node000009"><a xlink:href="app_8c.html#ab78a9ba6819f5a9d3b53302097151d33" target="_top" xlink:title=" ">
<polygon fill="white" stroke="#666666" points="171.5,-96.75 103.75,-96.75 103.75,-76 171.5,-76 171.5,-96.75"/>
<text text-anchor="middle" x="137.62" y="-83.25" font-family="Helvetica,sans-Serif" font-size="10.00">w2c__f481</text>
</a>
</g>
</g>
<!-- Node1&#45;&gt;Node9 -->
<g id="edge11_Node000001_Node000009" class="edge">
<title>Node1&#45;&gt;Node9</title>
<g id="a_edge11_Node000001_Node000009"><a xlink:title=" ">
<path fill="none" stroke="#63b8ff" d="M63.76,-113.59C74.07,-109.74 85.88,-105.33 96.94,-101.2"/>
<polygon fill="#63b8ff" stroke="#63b8ff" points="98.11,-104.5 106.25,-97.72 95.66,-97.94 98.11,-104.5"/>
</a>
</g>
</g>
<!-- Node10 -->
<g id="Node000010" class="node">
<title>Node10</title>
<g id="a_Node000010"><a xlink:href="app_8c.html#a674f6e81761467d0a8dc6d2a425eda9f" target="_top" xlink:title=" ">
<polygon fill="white" stroke="#666666" points="482.75,-124.75 415,-124.75 415,-104 482.75,-104 482.75,-124.75"/>
<text text-anchor="middle" x="448.88" y="-111.25" font-family="Helvetica,sans-Serif" font-size="10.00">w2c__f498</text>
</a>
</g>
</g>
<!-- Node1&#45;&gt;Node10 -->
<g id="edge12_Node000001_Node000010" class="edge">
<title>Node1&#45;&gt;Node10</title>
<g id="a_edge12_Node000001_Node000010"><a xlink:title=" ">
<path fill="none" stroke="#63b8ff" d="M67.97,-123.57C141.76,-121.79 319.76,-117.48 403.25,-115.46"/>
<polygon fill="#63b8ff" stroke="#63b8ff" points="403.19,-118.96 413.1,-115.22 403.02,-111.96 403.19,-118.96"/>
</a>
</g>
</g>
<!-- Node11 -->
<g id="Node000011" class="node">
<title>Node11</title>
<g id="a_Node000011"><a xlink:href="app_8c.html#a282da58cdb8a8d86b26b785358ce183a" target="_top" xlink:title=" ">
<polygon fill="white" stroke="#666666" points="171.5,-172.75 103.75,-172.75 103.75,-152 171.5,-152 171.5,-172.75"/>
<text text-anchor="middle" x="137.62" y="-159.25" font-family="Helvetica,sans-Serif" font-size="10.00">w2c__f504</text>
</a>
</g>
</g>
<!-- Node1&#45;&gt;Node11 -->
<g id="edge13_Node000001_Node000011" class="edge">
<title>Node1&#45;&gt;Node11</title>
<g id="a_edge13_Node000001_Node000011"><a xlink:title=" ">
<path fill="none" stroke="#63b8ff" d="M63.76,-135.16C74.07,-139.01 85.88,-143.42 96.94,-147.55"/>
<polygon fill="#63b8ff" stroke="#63b8ff" points="95.66,-150.81 106.25,-151.03 98.11,-144.25 95.66,-150.81"/>
</a>
</g>
</g>
<!-- Node3 -->
<g id="Node000003" class="node">
<title>Node3</title>
<g id="a_Node000003"><a xlink:href="app_8c.html#a8d9f347f9a643f0ebfb53c4f54578ac4" target="_top" xlink:title=" ">
<polygon fill="white" stroke="#666666" points="586.5,-181.75 518.75,-181.75 518.75,-161 586.5,-161 586.5,-181.75"/>
<text text-anchor="middle" x="552.62" y="-168.25" font-family="Helvetica,sans-Serif" font-size="10.00">w2c__f304</text>
</a>
</g>
</g>
<!-- Node2&#45;&gt;Node3 -->
<g id="edge2_Node000002_Node000003" class="edge">
<title>Node2&#45;&gt;Node3</title>
<g id="a_edge2_Node000002_Node000003"><a xlink:title=" ">
<path fill="none" stroke="#63b8ff" d="M462.66,-77.07C468.87,-82.41 476.36,-89.07 482.75,-95.38 501.61,-113.98 521.81,-136.64 535.43,-152.34"/>
<polygon fill="#63b8ff" stroke="#63b8ff" points="532.46,-154.26 541.64,-159.56 537.77,-149.7 532.46,-154.26"/>
</a>
</g>
</g>
<!-- Node4&#45;&gt;Node3 -->
<g id="edge4_Node000004_Node000003" class="edge">
<title>Node4&#45;&gt;Node3</title>
<g id="a_edge4_Node000004_Node000003"><a xlink:title=" ">
<path fill="none" stroke="#63b8ff" d="M468.54,-218.74C483.79,-210.04 505.6,-197.61 523.05,-187.66"/>
<polygon fill="#63b8ff" stroke="#63b8ff" points="524.47,-190.88 531.42,-182.89 521,-184.8 524.47,-190.88"/>
</a>
</g>
</g>
<!-- Node5 -->
<g id="Node000005" class="node">
<title>Node5</title>
<g id="a_Node000005"><a xlink:href="app_8c.html#a881f0b113e93dce3ff52d04b435850f6" target="_top" xlink:title=" ">
<polygon fill="white" stroke="#666666" points="586.5,-239.75 518.75,-239.75 518.75,-219 586.5,-219 586.5,-239.75"/>
<text text-anchor="middle" x="552.62" y="-226.25" font-family="Helvetica,sans-Serif" font-size="10.00">w2c__f491</text>
</a>
</g>
</g>
<!-- Node4&#45;&gt;Node5 -->
<g id="edge5_Node000004_Node000005" class="edge">
<title>Node4&#45;&gt;Node5</title>
<g id="a_edge5_Node000004_Node000005"><a xlink:title=" ">
<path fill="none" stroke="#63b8ff" d="M483.19,-229.38C490.82,-229.38 499.06,-229.38 507.08,-229.38"/>
<polygon fill="#63b8ff" stroke="#63b8ff" points="507.07,-232.88 517.07,-229.38 507.07,-225.88 507.07,-232.88"/>
</a>
</g>
</g>
<!-- Node6&#45;&gt;Node2 -->
<g id="edge7_Node000006_Node000002" class="edge">
<title>Node6&#45;&gt;Node2</title>
<g id="a_edge7_Node000006_Node000002"><a xlink:title=" ">
<path fill="none" stroke="#63b8ff" d="M275.52,-13.74C303.55,-17.17 344.54,-23.55 379,-34.38 392.19,-38.52 406.14,-44.64 418,-50.42"/>
<polygon fill="#63b8ff" stroke="#63b8ff" points="416.38,-53.52 426.88,-54.89 419.52,-47.27 416.38,-53.52"/>
</a>
</g>
</g>
<!-- Node7&#45;&gt;Node4 -->
<g id="edge9_Node000007_Node000004" class="edge">
<title>Node7&#45;&gt;Node4</title>
<g id="a_edge9_Node000007_Node000004"><a xlink:title=" ">
<path fill="none" stroke="#63b8ff" d="M171.72,-229.38C227.49,-229.38 340.25,-229.38 403.06,-229.38"/>
<polygon fill="#63b8ff" stroke="#63b8ff" points="403.04,-232.88 413.04,-229.38 403.04,-225.88 403.04,-232.88"/>
</a>
</g>
</g>
<!-- Node8 -->
<g id="Node000008" class="node">
<title>Node8</title>
<g id="a_Node000008"><a xlink:href="app_8c.html#aeda0fdcf4b3bed63365b3a77c2197b09" target="_top" xlink:title=" ">
<polygon fill="white" stroke="#666666" points="275.25,-277.75 207.5,-277.75 207.5,-257 275.25,-257 275.25,-277.75"/>
<text text-anchor="middle" x="241.38" y="-264.25" font-family="Helvetica,sans-Serif" font-size="10.00">w2c__f538</text>
</a>
</g>
</g>
<!-- Node7&#45;&gt;Node8 -->
<g id="edge10_Node000007_Node000008" class="edge">
<title>Node7&#45;&gt;Node8</title>
<g id="a_edge10_Node000007_Node000008"><a xlink:title=" ">
<path fill="none" stroke="#63b8ff" d="M167.51,-240.16C177.82,-244.01 189.63,-248.42 200.69,-252.55"/>
<polygon fill="#63b8ff" stroke="#63b8ff" points="199.41,-255.81 210,-256.03 201.86,-249.25 199.41,-255.81"/>
</a>
</g>
</g>
<!-- Node12 -->
<g id="Node000012" class="node">
<title>Node12</title>
<g id="a_Node000012"><a xlink:href="app_8c.html#a1a8a1d528c65d63a630e19c3a4bdd098" target="_top" xlink:title=" ">
<polygon fill="white" stroke="#666666" points="275.25,-172.75 207.5,-172.75 207.5,-152 275.25,-152 275.25,-172.75"/>
<text text-anchor="middle" x="241.38" y="-159.25" font-family="Helvetica,sans-Serif" font-size="10.00">w2c__f557</text>
</a>
</g>
</g>
<!-- Node11&#45;&gt;Node12 -->
<g id="edge14_Node000011_Node000012" class="edge">
<title>Node11&#45;&gt;Node12</title>
<g id="a_edge14_Node000011_Node000012"><a xlink:title=" ">
<path fill="none" stroke="#63b8ff" d="M171.94,-162.38C179.57,-162.38 187.81,-162.38 195.83,-162.38"/>
<polygon fill="#63b8ff" stroke="#63b8ff" points="195.82,-165.88 205.82,-162.38 195.82,-158.88 195.82,-165.88"/>
</a>
</g>
</g>
<!-- Node13 -->
<g id="Node000013" class="node">
<title>Node13</title>
<g id="a_Node000013"><a xlink:href="app_8c.html#a0f7003812eaf983535ff7979fc047a21" target="_top" xlink:title=" ">
<polygon fill="white" stroke="#666666" points="379,-201.75 311.25,-201.75 311.25,-181 379,-181 379,-201.75"/>
<text text-anchor="middle" x="345.12" y="-188.25" font-family="Helvetica,sans-Serif" font-size="10.00">w2c__f353</text>
</a>
</g>
</g>
<!-- Node12&#45;&gt;Node13 -->
<g id="edge15_Node000012_Node000013" class="edge">
<title>Node12&#45;&gt;Node13</title>
<g id="a_edge15_Node000012_Node000013"><a xlink:title=" ">
<path fill="none" stroke="#63b8ff" d="M275.69,-171.87C283.5,-174.1 291.94,-176.5 300.14,-178.84"/>
<polygon fill="#63b8ff" stroke="#63b8ff" points="299.05,-182.17 309.63,-181.54 300.97,-175.44 299.05,-182.17"/>
</a>
</g>
</g>
<!-- Node15 -->
<g id="Node000015" class="node">
<title>Node15</title>
<g id="a_Node000015"><a xlink:href="app_8c.html#ac9cc84763a9c1933e50eedd7a06c17e2" target="_top" xlink:title=" ">
<polygon fill="white" stroke="#666666" points="379,-162.75 311.25,-162.75 311.25,-142 379,-142 379,-162.75"/>
<text text-anchor="middle" x="345.12" y="-149.25" font-family="Helvetica,sans-Serif" font-size="10.00">w2c__f480</text>
</a>
</g>
</g>
<!-- Node12&#45;&gt;Node15 -->
<g id="edge19_Node000012_Node000015" class="edge">
<title>Node12&#45;&gt;Node15</title>
<g id="a_edge19_Node000012_Node000015"><a xlink:title=" ">
<path fill="none" stroke="#63b8ff" d="M275.69,-159.1C283.41,-158.34 291.75,-157.52 299.86,-156.73"/>
<polygon fill="#63b8ff" stroke="#63b8ff" points="299.96,-160.23 309.57,-155.77 299.28,-153.27 299.96,-160.23"/>
</a>
</g>
</g>
<!-- Node13&#45;&gt;Node4 -->
<g id="edge16_Node000013_Node000004" class="edge">
<title>Node13&#45;&gt;Node4</title>
<g id="a_edge16_Node000013_Node000004"><a xlink:title=" ">
<path fill="none" stroke="#63b8ff" d="M375.01,-202.16C385.32,-206.01 397.13,-210.42 408.19,-214.55"/>
<polygon fill="#63b8ff" stroke="#63b8ff" points="406.91,-217.81 417.5,-218.03 409.36,-211.25 406.91,-217.81"/>
</a>
</g>
</g>
<!-- Node14 -->
<g id="Node000014" class="node">
<title>Node14</title>
<g id="a_Node000014"><a xlink:href="app_8c.html#a4634342addbde677893ffcb45cf639dd" target="_top" xlink:title=" ">
<polygon fill="white" stroke="#666666" points="482.75,-200.75 415,-200.75 415,-180 482.75,-180 482.75,-200.75"/>
<text text-anchor="middle" x="448.88" y="-187.25" font-family="Helvetica,sans-Serif" font-size="10.00">w2c__f302</text>
</a>
</g>
</g>
<!-- Node13&#45;&gt;Node14 -->
<g id="edge17_Node000013_Node000014" class="edge">
<title>Node13&#45;&gt;Node14</title>
<g id="a_edge17_Node000013_Node000014"><a xlink:title=" ">
<path fill="none" stroke="#63b8ff" d="M379.44,-191.05C387.07,-190.97 395.31,-190.89 403.33,-190.81"/>
<polygon fill="#63b8ff" stroke="#63b8ff" points="403.35,-194.31 413.32,-190.71 403.28,-187.31 403.35,-194.31"/>
</a>
</g>
</g>
<!-- Node14&#45;&gt;Node3 -->
<g id="edge18_Node000014_Node000003" class="edge">
<title>Node14&#45;&gt;Node3</title>
<g id="a_edge18_Node000014_Node000003"><a xlink:title=" ">
<path fill="none" stroke="#63b8ff" d="M483.19,-184.15C490.91,-182.71 499.25,-181.16 507.36,-179.64"/>
<polygon fill="#63b8ff" stroke="#63b8ff" points="507.91,-183.1 517.09,-177.82 506.62,-176.22 507.91,-183.1"/>
</a>
</g>
</g>
<!-- Node15&#45;&gt;Node2 -->
<g id="edge20_Node000015_Node000002" class="edge">
<title>Node15&#45;&gt;Node2</title>
<g id="a_edge20_Node000015_Node000002"><a xlink:title=" ">
<path fill="none" stroke="#63b8ff" d="M358.6,-141.83C375.54,-127.52 406.04,-101.73 426.62,-84.34"/>
<polygon fill="#63b8ff" stroke="#63b8ff" points="428.76,-87.11 434.14,-77.98 424.24,-81.77 428.76,-87.11"/>
</a>
</g>
</g>
<!-- Node15&#45;&gt;Node3 -->
<g id="edge23_Node000015_Node000003" class="edge">
<title>Node15&#45;&gt;Node3</title>
<g id="a_edge23_Node000015_Node000003"><a xlink:title=" ">
<path fill="none" stroke="#63b8ff" d="M379.14,-155.43C413.79,-158.63 468.48,-163.69 506.96,-167.25"/>
<polygon fill="#63b8ff" stroke="#63b8ff" points="506.56,-170.72 516.84,-168.16 507.21,-163.75 506.56,-170.72"/>
</a>
</g>
</g>
<!-- Node15&#45;&gt;Node4 -->
<g id="edge21_Node000015_Node000004" class="edge">
<title>Node15&#45;&gt;Node4</title>
<g id="a_edge21_Node000015_Node000004"><a xlink:title=" ">
<path fill="none" stroke="#63b8ff" d="M365.79,-163.23C370.28,-166 374.92,-169.13 379,-172.38 396.94,-186.67 397.06,-195.08 415,-209.38 416.27,-210.39 417.6,-211.39 418.97,-212.38"/>
<polygon fill="#63b8ff" stroke="#63b8ff" points="416.68,-215.06 426.95,-217.69 420.56,-209.23 416.68,-215.06"/>
</a>
</g>
</g>
<!-- Node15&#45;&gt;Node10 -->
<g id="edge24_Node000015_Node000010" class="edge">
<title>Node15&#45;&gt;Node10</title>
<g id="a_edge24_Node000015_Node000010"><a xlink:title=" ">
<path fill="none" stroke="#63b8ff" d="M375.01,-141.59C385.32,-137.74 397.13,-133.33 408.19,-129.2"/>
<polygon fill="#63b8ff" stroke="#63b8ff" points="409.36,-132.5 417.5,-125.72 406.91,-125.94 409.36,-132.5"/>
</a>
</g>
</g>
<!-- Node15&#45;&gt;Node14 -->
<g id="edge22_Node000015_Node000014" class="edge">
<title>Node15&#45;&gt;Node14</title>
<g id="a_edge22_Node000015_Node000014"><a xlink:title=" ">
<path fill="none" stroke="#63b8ff" d="M375.01,-163.16C385.32,-167.01 397.13,-171.42 408.19,-175.55"/>
<polygon fill="#63b8ff" stroke="#63b8ff" points="406.91,-178.81 417.5,-179.03 409.36,-172.25 406.91,-178.81"/>
</a>
</g>
</g>
</g>
</svg>
