<?xml version="1.0" encoding="UTF-8" standalone="no"?>
<!DOCTYPE svg PUBLIC "-//W3C//DTD SVG 1.1//EN"
 "http://www.w3.org/Graphics/SVG/1.1/DTD/svg11.dtd">
<!-- Generated by graphviz version 12.2.1 (0)
 -->
<!-- Title: w2c__f314 Pages: 1 -->
<svg width="183pt" height="419pt"
 viewBox="0.00 0.00 183.25 418.75" xmlns="http://www.w3.org/2000/svg" xmlns:xlink="http://www.w3.org/1999/xlink">
<g id="graph0" class="graph" transform="scale(1 1) rotate(0) translate(4 414.75)">
<title>w2c__f314</title>
<!-- Node1 -->
<g id="Node000001" class="node">
<title>Node1</title>
<g id="a_Node000001"><a xlink:title=" ">
<polygon fill="#999999" stroke="#666666" points="67.75,-215.75 0,-215.75 0,-195 67.75,-195 67.75,-215.75"/>
<text text-anchor="middle" x="33.88" y="-202.25" font-family="Helvetica,sans-Serif" font-size="10.00">w2c__f314</text>
</a>
</g>
</g>
<!-- Node2 -->
<g id="Node000002" class="node">
<title>Node2</title>
<g id="a_Node000002"><a xlink:href="app_8c.html#a7a78a8e07d1644561bd06ebf80f170e8" target="_top" xlink:title=" ">
<polygon fill="white" stroke="#666666" points="174.5,-410.75 104.5,-410.75 104.5,-390 174.5,-390 174.5,-410.75"/>
<text text-anchor="middle" x="139.5" y="-397.25" font-family="Helvetica,sans-Serif" font-size="10.00">w2c_0_105</text>
</a>
</g>
</g>
<!-- Node1&#45;&gt;Node2 -->
<g id="edge1_Node000001_Node000002" class="edge">
<title>Node1&#45;&gt;Node2</title>
<g id="a_edge1_Node000001_Node000002"><a xlink:title=" ">
<path fill="none" stroke="#63b8ff" d="M36.55,-216.1C41.65,-245.56 59.39,-328.95 103.75,-380.38 104.43,-381.16 105.14,-381.92 105.89,-382.66"/>
<polygon fill="#63b8ff" stroke="#63b8ff" points="103.59,-385.3 113.61,-388.72 107.91,-379.79 103.59,-385.3"/>
</a>
</g>
</g>
<!-- Node3 -->
<g id="Node000003" class="node">
<title>Node3</title>
<g id="a_Node000003"><a xlink:href="app_8c.html#a323c06e3aee305bde028d2ab1aee66da" target="_top" xlink:title=" ">
<polygon fill="white" stroke="#666666" points="174.5,-371.75 104.5,-371.75 104.5,-351 174.5,-351 174.5,-371.75"/>
<text text-anchor="middle" x="139.5" y="-358.25" font-family="Helvetica,sans-Serif" font-size="10.00">w2c_0_112</text>
</a>
</g>
</g>
<!-- Node1&#45;&gt;Node3 -->
<g id="edge2_Node000001_Node000003" class="edge">
<title>Node1&#45;&gt;Node3</title>
<g id="a_edge2_Node000001_Node000003"><a xlink:title=" ">
<path fill="none" stroke="#63b8ff" d="M37.98,-216.16C45.57,-240.95 67.15,-302.77 103.75,-341.38 104.59,-342.26 105.47,-343.12 106.4,-343.94"/>
<polygon fill="#63b8ff" stroke="#63b8ff" points="104.1,-346.6 114.22,-349.74 108.27,-340.97 104.1,-346.6"/>
</a>
</g>
</g>
<!-- Node4 -->
<g id="Node000004" class="node">
<title>Node4</title>
<g id="a_Node000004"><a xlink:href="app_8c.html#a0a1ff22c3cfb458f7ba2433d9018c1c0" target="_top" xlink:title=" ">
<polygon fill="white" stroke="#666666" points="174.5,-332.75 104.5,-332.75 104.5,-312 174.5,-312 174.5,-332.75"/>
<text text-anchor="middle" x="139.5" y="-319.25" font-family="Helvetica,sans-Serif" font-size="10.00">w2c_0_133</text>
</a>
</g>
</g>
<!-- Node1&#45;&gt;Node4 -->
<g id="edge3_Node000001_Node000004" class="edge">
<title>Node1&#45;&gt;Node4</title>
<g id="a_edge3_Node000001_Node000004"><a xlink:title=" ">
<path fill="none" stroke="#63b8ff" d="M40.46,-216.13C50.84,-235.33 74.71,-275.98 103.75,-302.38 104.82,-303.35 105.95,-304.3 107.12,-305.22"/>
<polygon fill="#63b8ff" stroke="#63b8ff" points="105.08,-308.07 115.31,-310.82 109.03,-302.29 105.08,-308.07"/>
</a>
</g>
</g>
<!-- Node5 -->
<g id="Node000005" class="node">
<title>Node5</title>
<g id="a_Node000005"><a xlink:href="app_8c.html#abba56a8766f55d5377f8cbd7819dde04" target="_top" xlink:title=" ">
<polygon fill="white" stroke="#666666" points="174.5,-293.75 104.5,-293.75 104.5,-273 174.5,-273 174.5,-293.75"/>
<text text-anchor="middle" x="139.5" y="-280.25" font-family="Helvetica,sans-Serif" font-size="10.00">w2c_0_158</text>
</a>
</g>
</g>
<!-- Node1&#45;&gt;Node5 -->
<g id="edge4_Node000001_Node000005" class="edge">
<title>Node1&#45;&gt;Node5</title>
<g id="a_edge4_Node000001_Node000005"><a xlink:title=" ">
<path fill="none" stroke="#63b8ff" d="M46.07,-215.88C59.3,-228.04 82.24,-248.31 103.75,-263.38 105.32,-264.47 106.95,-265.57 108.61,-266.64"/>
<polygon fill="#63b8ff" stroke="#63b8ff" points="106.63,-269.53 116.99,-271.76 110.28,-263.56 106.63,-269.53"/>
</a>
</g>
</g>
<!-- Node6 -->
<g id="Node000006" class="node">
<title>Node6</title>
<g id="a_Node000006"><a xlink:href="app_8c.html#ae2d23de3dc3ede2638259154af5e2d35" target="_top" xlink:title=" ">
<polygon fill="white" stroke="#666666" points="174.5,-254.75 104.5,-254.75 104.5,-234 174.5,-234 174.5,-254.75"/>
<text text-anchor="middle" x="139.5" y="-241.25" font-family="Helvetica,sans-Serif" font-size="10.00">w2c_0_167</text>
</a>
</g>
</g>
<!-- Node1&#45;&gt;Node6 -->
<g id="edge5_Node000001_Node000006" class="edge">
<title>Node1&#45;&gt;Node6</title>
<g id="a_edge5_Node000001_Node000006"><a xlink:title=" ">
<path fill="none" stroke="#63b8ff" d="M63.74,-216.24C74.74,-220.38 87.48,-225.17 99.28,-229.62"/>
<polygon fill="#63b8ff" stroke="#63b8ff" points="97.78,-232.79 108.37,-233.04 100.25,-226.24 97.78,-232.79"/>
</a>
</g>
</g>
<!-- Node7 -->
<g id="Node000007" class="node">
<title>Node7</title>
<g id="a_Node000007"><a xlink:href="app_8c.html#ab9f7a0a232ed44631b16a8d8588e5193" target="_top" xlink:title=" ">
<polygon fill="white" stroke="#666666" points="174.5,-215.75 104.5,-215.75 104.5,-195 174.5,-195 174.5,-215.75"/>
<text text-anchor="middle" x="139.5" y="-202.25" font-family="Helvetica,sans-Serif" font-size="10.00">w2c_0_190</text>
</a>
</g>
</g>
<!-- Node1&#45;&gt;Node7 -->
<g id="edge6_Node000001_Node000007" class="edge">
<title>Node1&#45;&gt;Node7</title>
<g id="a_edge6_Node000001_Node000007"><a xlink:title=" ">
<path fill="none" stroke="#63b8ff" d="M68.23,-205.38C76.03,-205.38 84.48,-205.38 92.72,-205.38"/>
<polygon fill="#63b8ff" stroke="#63b8ff" points="92.62,-208.88 102.62,-205.38 92.62,-201.88 92.62,-208.88"/>
</a>
</g>
</g>
<!-- Node8 -->
<g id="Node000008" class="node">
<title>Node8</title>
<g id="a_Node000008"><a xlink:href="app_8c.html#a6db6b7568ff85828c87a5fb6e5c23e23" target="_top" xlink:title=" ">
<polygon fill="white" stroke="#666666" points="171.5,-176.75 107.5,-176.75 107.5,-156 171.5,-156 171.5,-176.75"/>
<text text-anchor="middle" x="139.5" y="-163.25" font-family="Helvetica,sans-Serif" font-size="10.00">w2c_0_27</text>
</a>
</g>
</g>
<!-- Node1&#45;&gt;Node8 -->
<g id="edge7_Node000001_Node000008" class="edge">
<title>Node1&#45;&gt;Node8</title>
<g id="a_edge7_Node000001_Node000008"><a xlink:title=" ">
<path fill="none" stroke="#63b8ff" d="M63.74,-194.51C74.74,-190.37 87.48,-185.58 99.28,-181.13"/>
<polygon fill="#63b8ff" stroke="#63b8ff" points="100.25,-184.51 108.37,-177.71 97.78,-177.96 100.25,-184.51"/>
</a>
</g>
</g>
<!-- Node9 -->
<g id="Node000009" class="node">
<title>Node9</title>
<g id="a_Node000009"><a xlink:href="app_8c.html#a962762017f14f19ae27b082d2498c6a3" target="_top" xlink:title=" ">
<polygon fill="white" stroke="#666666" points="171.5,-137.75 107.5,-137.75 107.5,-117 171.5,-117 171.5,-137.75"/>
<text text-anchor="middle" x="139.5" y="-124.25" font-family="Helvetica,sans-Serif" font-size="10.00">w2c_0_37</text>
</a>
</g>
</g>
<!-- Node1&#45;&gt;Node9 -->
<g id="edge8_Node000001_Node000009" class="edge">
<title>Node1&#45;&gt;Node9</title>
<g id="a_edge8_Node000001_Node000009"><a xlink:title=" ">
<path fill="none" stroke="#63b8ff" d="M46.07,-194.87C59.3,-182.71 82.24,-162.44 103.75,-147.38 105.32,-146.28 106.95,-145.18 108.61,-144.11"/>
<polygon fill="#63b8ff" stroke="#63b8ff" points="110.28,-147.19 116.99,-138.99 106.63,-141.22 110.28,-147.19"/>
</a>
</g>
</g>
<!-- Node10 -->
<g id="Node000010" class="node">
<title>Node10</title>
<g id="a_Node000010"><a xlink:href="app_8c.html#a8ceab707ef5f7467756fd8415cdbe224" target="_top" xlink:title=" ">
<polygon fill="white" stroke="#666666" points="171.5,-98.75 107.5,-98.75 107.5,-78 171.5,-78 171.5,-98.75"/>
<text text-anchor="middle" x="139.5" y="-85.25" font-family="Helvetica,sans-Serif" font-size="10.00">w2c_0_75</text>
</a>
</g>
</g>
<!-- Node1&#45;&gt;Node10 -->
<g id="edge9_Node000001_Node000010" class="edge">
<title>Node1&#45;&gt;Node10</title>
<g id="a_edge9_Node000001_Node000010"><a xlink:title=" ">
<path fill="none" stroke="#63b8ff" d="M40.46,-194.62C50.84,-175.42 74.71,-134.77 103.75,-108.38 104.82,-107.4 105.95,-106.45 107.12,-105.53"/>
<polygon fill="#63b8ff" stroke="#63b8ff" points="109.03,-108.46 115.31,-99.93 105.08,-102.68 109.03,-108.46"/>
</a>
</g>
</g>
<!-- Node11 -->
<g id="Node000011" class="node">
<title>Node11</title>
<g id="a_Node000011"><a xlink:href="app_8c.html#a219aff62d9abc33c8cf23fd20ba662f6" target="_top" xlink:title=" ">
<polygon fill="white" stroke="#666666" points="168.5,-59.75 110.5,-59.75 110.5,-39 168.5,-39 168.5,-59.75"/>
<text text-anchor="middle" x="139.5" y="-46.25" font-family="Helvetica,sans-Serif" font-size="10.00">w2c_0_9</text>
</a>
</g>
</g>
<!-- Node1&#45;&gt;Node11 -->
<g id="edge10_Node000001_Node000011" class="edge">
<title>Node1&#45;&gt;Node11</title>
<g id="a_edge10_Node000001_Node000011"><a xlink:title=" ">
<path fill="none" stroke="#63b8ff" d="M37.98,-194.59C45.57,-169.8 67.15,-107.98 103.75,-69.38 104.59,-68.49 105.47,-67.63 106.4,-66.81"/>
<polygon fill="#63b8ff" stroke="#63b8ff" points="108.27,-69.78 114.22,-61.01 104.1,-64.15 108.27,-69.78"/>
</a>
</g>
</g>
<!-- Node12 -->
<g id="Node000012" class="node">
<title>Node12</title>
<g id="a_Node000012"><a xlink:href="app_8c.html#ad63b6498cfe22ce747f349eeb23b508f" target="_top" xlink:title=" ">
<polygon fill="white" stroke="#666666" points="175.25,-20.75 103.75,-20.75 103.75,0 175.25,0 175.25,-20.75"/>
<text text-anchor="middle" x="139.5" y="-7.25" font-family="Helvetica,sans-Serif" font-size="10.00">wasm_fabs</text>
</a>
</g>
</g>
<!-- Node1&#45;&gt;Node12 -->
<g id="edge11_Node000001_Node000012" class="edge">
<title>Node1&#45;&gt;Node12</title>
<g id="a_edge11_Node000001_Node000012"><a xlink:title=" ">
<path fill="none" stroke="#63b8ff" d="M36.55,-194.65C41.65,-165.19 59.39,-81.8 103.75,-30.38 104.43,-29.59 105.14,-28.83 105.89,-28.09"/>
<polygon fill="#63b8ff" stroke="#63b8ff" points="107.91,-30.96 113.61,-22.03 103.59,-25.45 107.91,-30.96"/>
</a>
</g>
</g>
</g>
</svg>
