<?xml version="1.0" encoding="UTF-8" standalone="no"?>
<!DOCTYPE svg PUBLIC "-//W3C//DTD SVG 1.1//EN"
 "http://www.w3.org/Graphics/SVG/1.1/DTD/svg11.dtd">
<!-- Generated by graphviz version 12.2.1 (0)
 -->
<!-- Title: w2c__f497 Pages: 1 -->
<svg width="180pt" height="125pt"
 viewBox="0.00 0.00 179.50 124.75" xmlns="http://www.w3.org/2000/svg" xmlns:xlink="http://www.w3.org/1999/xlink">
<g id="graph0" class="graph" transform="scale(1 1) rotate(0) translate(4 120.75)">
<title>w2c__f497</title>
<!-- Node1 -->
<g id="Node000001" class="node">
<title>Node1</title>
<g id="a_Node000001"><a xlink:title=" ">
<polygon fill="#999999" stroke="#666666" points="67.75,-59.75 0,-59.75 0,-39 67.75,-39 67.75,-59.75"/>
<text text-anchor="middle" x="33.88" y="-46.25" font-family="Helvetica,sans-Serif" font-size="10.00">w2c__f497</text>
</a>
</g>
</g>
<!-- Node2 -->
<g id="Node000002" class="node">
<title>Node2</title>
<g id="a_Node000002"><a xlink:href="app_8c.html#a33ea5715ab3fce77e2919d07169a7b23" target="_top" xlink:title=" ">
<polygon fill="white" stroke="#666666" points="171.5,-116.75 103.75,-116.75 103.75,-96 171.5,-96 171.5,-116.75"/>
<text text-anchor="middle" x="137.62" y="-103.25" font-family="Helvetica,sans-Serif" font-size="10.00">w2c__f298</text>
</a>
</g>
</g>
<!-- Node1&#45;&gt;Node2 -->
<g id="edge1_Node000001_Node000002" class="edge">
<title>Node1&#45;&gt;Node2</title>
<g id="a_edge1_Node000001_Node000002"><a xlink:title=" ">
<path fill="none" stroke="#63b8ff" d="M54.01,-60.1C69.12,-68.56 90.45,-80.51 107.65,-90.15"/>
<polygon fill="#63b8ff" stroke="#63b8ff" points="105.47,-92.93 115.91,-94.77 108.89,-86.83 105.47,-92.93"/>
</a>
</g>
</g>
<!-- Node3 -->
<g id="Node000003" class="node">
<title>Node3</title>
<g id="a_Node000003"><a xlink:href="app_8c.html#a81183127548ff0133311929fe930b91d" target="_top" xlink:title=" ">
<polygon fill="white" stroke="#666666" points="171.5,-59.75 103.75,-59.75 103.75,-39 171.5,-39 171.5,-59.75"/>
<text text-anchor="middle" x="137.62" y="-46.25" font-family="Helvetica,sans-Serif" font-size="10.00">w2c__f488</text>
</a>
</g>
</g>
<!-- Node1&#45;&gt;Node3 -->
<g id="edge2_Node000001_Node000003" class="edge">
<title>Node1&#45;&gt;Node3</title>
<g id="a_edge2_Node000001_Node000003"><a xlink:title=" ">
<path fill="none" stroke="#63b8ff" d="M68.19,-49.38C75.82,-49.38 84.06,-49.38 92.08,-49.38"/>
<polygon fill="#63b8ff" stroke="#63b8ff" points="92.07,-52.88 102.07,-49.38 92.07,-45.88 92.07,-52.88"/>
</a>
</g>
</g>
<!-- Node4 -->
<g id="Node000004" class="node">
<title>Node4</title>
<g id="a_Node000004"><a xlink:href="app_8c.html#a26607d1f53b13d860a8138c163c36f48" target="_top" xlink:title=" ">
<polygon fill="white" stroke="#666666" points="171.5,-20.75 103.75,-20.75 103.75,0 171.5,0 171.5,-20.75"/>
<text text-anchor="middle" x="137.62" y="-7.25" font-family="Helvetica,sans-Serif" font-size="10.00">w2c__f524</text>
</a>
</g>
</g>
<!-- Node1&#45;&gt;Node4 -->
<g id="edge4_Node000001_Node000004" class="edge">
<title>Node1&#45;&gt;Node4</title>
<g id="a_edge4_Node000001_Node000004"><a xlink:title=" ">
<path fill="none" stroke="#63b8ff" d="M63.22,-38.51C73.91,-34.41 86.27,-29.67 97.76,-25.27"/>
<polygon fill="#63b8ff" stroke="#63b8ff" points="98.94,-28.57 107.02,-21.72 96.43,-22.03 98.94,-28.57"/>
</a>
</g>
</g>
<!-- Node3&#45;&gt;Node3 -->
<g id="edge3_Node000003_Node000003" class="edge">
<title>Node3&#45;&gt;Node3</title>
<g id="a_edge3_Node000003_Node000003"><a xlink:title=" ">
<path fill="none" stroke="#63b8ff" d="M120.91,-60.15C114.22,-68.81 119.79,-77.75 137.62,-77.75 147.1,-77.75 153.11,-75.23 155.66,-71.56"/>
<polygon fill="#63b8ff" stroke="#63b8ff" points="159.14,-71.18 154.52,-61.65 152.19,-71.99 159.14,-71.18"/>
</a>
</g>
</g>
</g>
</svg>
