<?xml version="1.0" encoding="UTF-8" standalone="no"?>
<!DOCTYPE svg PUBLIC "-//W3C//DTD SVG 1.1//EN"
 "http://www.w3.org/Graphics/SVG/1.1/DTD/svg11.dtd">
<!-- Generated by graphviz version 12.2.1 (0)
 -->
<!-- Title: w2c__f523 Pages: 1 -->
<svg width="712pt" height="236pt"
 viewBox="0.00 0.00 711.50 236.08" xmlns="http://www.w3.org/2000/svg" xmlns:xlink="http://www.w3.org/1999/xlink">
<g id="graph0" class="graph" transform="scale(1 1) rotate(0) translate(4 232.08)">
<title>w2c__f523</title>
<!-- Node1 -->
<g id="Node000001" class="node">
<title>Node1</title>
<g id="a_Node000001"><a xlink:title=" ">
<polygon fill="#999999" stroke="#666666" points="703.5,-116.75 635.75,-116.75 635.75,-96 703.5,-96 703.5,-116.75"/>
<text text-anchor="middle" x="669.62" y="-103.25" font-family="Helvetica,sans-Serif" font-size="10.00">w2c__f523</text>
</a>
</g>
</g>
<!-- Node2 -->
<g id="Node000002" class="node">
<title>Node2</title>
<g id="a_Node000002"><a xlink:href="app_8c.html#a914de8ae6d6844da58f67a5021732dc8" target="_top" xlink:title=" ">
<polygon fill="white" stroke="#666666" points="481.38,-118.75 413.62,-118.75 413.62,-98 481.38,-98 481.38,-118.75"/>
<text text-anchor="middle" x="447.5" y="-105.25" font-family="Helvetica,sans-Serif" font-size="10.00">w2c__f201</text>
</a>
</g>
</g>
<!-- Node1&#45;&gt;Node2 -->
<g id="edge1_Node000001_Node000002" class="edge">
<title>Node1&#45;&gt;Node2</title>
<g id="a_edge1_Node000001_Node000002"><a xlink:title=" ">
<path fill="none" stroke="#63b8ff" d="M625.58,-120.16C617.1,-122.33 608.21,-124.23 599.75,-125.38 569.91,-129.42 561.96,-128.39 532,-125.38 515.22,-123.68 496.83,-120.13 481.58,-116.7"/>
<polygon fill="#63b8ff" stroke="#63b8ff" points="626.23,-123.6 634.96,-117.59 624.39,-116.85 626.23,-123.6"/>
</a>
</g>
</g>
<!-- Node3 -->
<g id="Node000003" class="node">
<title>Node3</title>
<g id="a_Node000003"><a xlink:href="app_8c.html#afb3fbfc35abe0f21d554f326b79a0b76" target="_top" xlink:title=" ">
<polygon fill="white" stroke="#666666" points="348.38,-156.75 280.62,-156.75 280.62,-136 348.38,-136 348.38,-156.75"/>
<text text-anchor="middle" x="314.5" y="-143.25" font-family="Helvetica,sans-Serif" font-size="10.00">w2c__f494</text>
</a>
</g>
</g>
<!-- Node1&#45;&gt;Node3 -->
<g id="edge16_Node000001_Node000003" class="edge">
<title>Node1&#45;&gt;Node3</title>
<g id="a_edge16_Node000001_Node000003"><a xlink:title=" ">
<path fill="none" stroke="#63b8ff" d="M660.18,-127.55C649.78,-150.44 629.72,-185.72 599.75,-201.38 520.66,-242.69 484.25,-229.7 399,-203.38 369.65,-194.31 341.41,-171 326.47,-157.16"/>
<polygon fill="#63b8ff" stroke="#63b8ff" points="663.31,-129.13 664.03,-118.56 656.88,-126.38 663.31,-129.13"/>
</a>
</g>
</g>
<!-- Node9 -->
<g id="Node000009" class="node">
<title>Node9</title>
<g id="a_Node000009"><a xlink:href="app_8c.html#a7dc7d70793bae217b64eab580fce99cb" target="_top" xlink:title=" ">
<polygon fill="white" stroke="#666666" points="348.38,-59.75 280.62,-59.75 280.62,-39 348.38,-39 348.38,-59.75"/>
<text text-anchor="middle" x="314.5" y="-46.25" font-family="Helvetica,sans-Serif" font-size="10.00">w2c__f215</text>
</a>
</g>
</g>
<!-- Node1&#45;&gt;Node9 -->
<g id="edge8_Node000001_Node000009" class="edge">
<title>Node1&#45;&gt;Node9</title>
<g id="a_edge8_Node000001_Node000009"><a xlink:title=" ">
<path fill="none" stroke="#63b8ff" d="M650.17,-87.65C637.04,-75.16 618.48,-59.13 599.75,-48.38 557.3,-24 544.24,-19.72 496,-11.38 453.52,-4.03 440.96,-1.47 399,-11.38 381.59,-15.48 379.25,-21.9 363,-29.38 356.17,-32.52 348.71,-35.75 341.77,-38.68"/>
<polygon fill="#63b8ff" stroke="#63b8ff" points="647.65,-90.07 657.25,-94.56 652.54,-85.07 647.65,-90.07"/>
</a>
</g>
</g>
<!-- Node11 -->
<g id="Node000011" class="node">
<title>Node11</title>
<g id="a_Node000011"><a xlink:href="app_8c.html#a45506e06eda9562930268a54b97cee66" target="_top" xlink:title=" ">
<polygon fill="white" stroke="#666666" points="481.38,-79.75 413.62,-79.75 413.62,-59 481.38,-59 481.38,-79.75"/>
<text text-anchor="middle" x="447.5" y="-66.25" font-family="Helvetica,sans-Serif" font-size="10.00">w2c__f226</text>
</a>
</g>
</g>
<!-- Node1&#45;&gt;Node11 -->
<g id="edge10_Node000001_Node000011" class="edge">
<title>Node1&#45;&gt;Node11</title>
<g id="a_edge10_Node000001_Node000011"><a xlink:title=" ">
<path fill="none" stroke="#63b8ff" d="M624.65,-93.18C616.43,-91.02 607.87,-88.97 599.75,-87.38 559.53,-79.48 512.57,-74.55 481.77,-71.88"/>
<polygon fill="#63b8ff" stroke="#63b8ff" points="623.56,-96.51 634.13,-95.77 625.4,-89.76 623.56,-96.51"/>
</a>
</g>
</g>
<!-- Node12 -->
<g id="Node000012" class="node">
<title>Node12</title>
<g id="a_Node000012"><a xlink:href="app_8c.html#ab0f01b8c7ec0dfaf4d8ad300bcb427d1" target="_top" xlink:title=" ">
<polygon fill="white" stroke="#666666" points="599.75,-192.75 532,-192.75 532,-172 599.75,-172 599.75,-192.75"/>
<text text-anchor="middle" x="565.88" y="-179.25" font-family="Helvetica,sans-Serif" font-size="10.00">w2c__f405</text>
</a>
</g>
</g>
<!-- Node1&#45;&gt;Node12 -->
<g id="edge13_Node000001_Node000012" class="edge">
<title>Node1&#45;&gt;Node12</title>
<g id="a_edge13_Node000001_Node000012"><a xlink:title=" ">
<path fill="none" stroke="#63b8ff" d="M645.47,-124.01C632.14,-134.12 615.04,-147.02 599.75,-158.38 593.85,-162.76 587.32,-167.54 581.64,-171.67"/>
<polygon fill="#63b8ff" stroke="#63b8ff" points="647.38,-126.95 653.22,-118.11 643.14,-121.37 647.38,-126.95"/>
</a>
</g>
</g>
<!-- Node14 -->
<g id="Node000014" class="node">
<title>Node14</title>
<g id="a_Node000014"><a xlink:href="app_8c.html#a526bc958417bd0d96a01739603b1d25e" target="_top" xlink:title=" ">
<polygon fill="white" stroke="#666666" points="481.38,-40.75 413.62,-40.75 413.62,-20 481.38,-20 481.38,-40.75"/>
<text text-anchor="middle" x="447.5" y="-27.25" font-family="Helvetica,sans-Serif" font-size="10.00">w2c__f563</text>
</a>
</g>
</g>
<!-- Node1&#45;&gt;Node14 -->
<g id="edge17_Node000001_Node000014" class="edge">
<title>Node1&#45;&gt;Node14</title>
<g id="a_edge17_Node000001_Node000014"><a xlink:title=" ">
<path fill="none" stroke="#63b8ff" d="M638.3,-90.47C626.46,-84.63 612.66,-78.26 599.75,-73.38 560.05,-58.35 512.77,-45.71 481.77,-38.1"/>
<polygon fill="#63b8ff" stroke="#63b8ff" points="636.67,-93.57 647.18,-94.95 639.82,-87.32 636.67,-93.57"/>
</a>
</g>
</g>
<!-- Node16 -->
<g id="Node000016" class="node">
<title>Node16</title>
<g id="a_Node000016"><a xlink:href="app_8c.html#a769b7c2ede58215b4aa18ce981255362" target="_top" xlink:title=" ">
<polygon fill="white" stroke="#666666" points="599.75,-116.75 532,-116.75 532,-96 599.75,-96 599.75,-116.75"/>
<text text-anchor="middle" x="565.88" y="-103.25" font-family="Helvetica,sans-Serif" font-size="10.00">w2c__f582</text>
</a>
</g>
</g>
<!-- Node1&#45;&gt;Node16 -->
<g id="edge20_Node000001_Node000016" class="edge">
<title>Node1&#45;&gt;Node16</title>
<g id="a_edge20_Node000001_Node000016"><a xlink:title=" ">
<path fill="none" stroke="#63b8ff" d="M624.07,-106.38C615.96,-106.38 607.63,-106.38 599.92,-106.38"/>
<polygon fill="#63b8ff" stroke="#63b8ff" points="623.79,-109.88 633.79,-106.38 623.79,-102.88 623.79,-109.88"/>
</a>
</g>
</g>
<!-- Node2&#45;&gt;Node3 -->
<g id="edge2_Node000002_Node000003" class="edge">
<title>Node2&#45;&gt;Node3</title>
<g id="a_edge2_Node000002_Node000003"><a xlink:title=" ">
<path fill="none" stroke="#63b8ff" d="M402.54,-121.13C384.9,-126.24 364.91,-132.04 348.55,-136.79"/>
<polygon fill="#63b8ff" stroke="#63b8ff" points="403.36,-124.53 411.99,-118.39 401.41,-117.81 403.36,-124.53"/>
</a>
</g>
</g>
<!-- Node8 -->
<g id="Node000008" class="node">
<title>Node8</title>
<g id="a_Node000008"><a xlink:href="app_8c.html#ab3e987b2cec0279cc8c57f3f933a78bf" target="_top" xlink:title=" ">
<polygon fill="white" stroke="#666666" points="363,-117.75 266,-117.75 266,-97 363,-97 363,-117.75"/>
<text text-anchor="middle" x="314.5" y="-104.25" font-family="Helvetica,sans-Serif" font-size="10.00">wrap_w2c__f201</text>
</a>
</g>
</g>
<!-- Node2&#45;&gt;Node8 -->
<g id="edge7_Node000002_Node000008" class="edge">
<title>Node2&#45;&gt;Node8</title>
<g id="a_edge7_Node000002_Node000008"><a xlink:title=" ">
<path fill="none" stroke="#63b8ff" d="M401.95,-108.03C389.53,-107.94 376,-107.84 363.4,-107.74"/>
<polygon fill="#63b8ff" stroke="#63b8ff" points="401.9,-111.53 411.93,-108.11 401.96,-104.53 401.9,-111.53"/>
</a>
</g>
</g>
<!-- Node4 -->
<g id="Node000004" class="node">
<title>Node4</title>
<g id="a_Node000004"><a xlink:href="app_8c.html#a86ae468e235684021eadfdacd5cb9dba" target="_top" xlink:title=" ">
<polygon fill="white" stroke="#666666" points="215.38,-175.75 147.62,-175.75 147.62,-155 215.38,-155 215.38,-175.75"/>
<text text-anchor="middle" x="181.5" y="-162.25" font-family="Helvetica,sans-Serif" font-size="10.00">w2c__f452</text>
</a>
</g>
</g>
<!-- Node3&#45;&gt;Node4 -->
<g id="edge3_Node000003_Node000004" class="edge">
<title>Node3&#45;&gt;Node4</title>
<g id="a_edge3_Node000003_Node000004"><a xlink:title=" ">
<path fill="none" stroke="#63b8ff" d="M269.28,-152.79C251.71,-155.34 231.83,-158.22 215.55,-160.58"/>
<polygon fill="#63b8ff" stroke="#63b8ff" points="269.55,-156.29 278.95,-151.39 268.55,-149.36 269.55,-156.29"/>
</a>
</g>
</g>
<!-- Node6 -->
<g id="Node000006" class="node">
<title>Node6</title>
<g id="a_Node000006"><a xlink:href="app_8c.html#ad1dbc2afe7918517df3fc54838f07298" target="_top" xlink:title=" ">
<polygon fill="white" stroke="#666666" points="215.38,-136.75 147.62,-136.75 147.62,-116 215.38,-116 215.38,-136.75"/>
<text text-anchor="middle" x="181.5" y="-123.25" font-family="Helvetica,sans-Serif" font-size="10.00">w2c__f520</text>
</a>
</g>
</g>
<!-- Node3&#45;&gt;Node6 -->
<g id="edge5_Node000003_Node000006" class="edge">
<title>Node3&#45;&gt;Node6</title>
<g id="a_edge5_Node000003_Node000006"><a xlink:title=" ">
<path fill="none" stroke="#63b8ff" d="M269.28,-139.62C251.71,-136.94 231.83,-133.91 215.55,-131.42"/>
<polygon fill="#63b8ff" stroke="#63b8ff" points="268.53,-143.05 278.95,-141.1 269.59,-136.13 268.53,-143.05"/>
</a>
</g>
</g>
<!-- Node5 -->
<g id="Node000005" class="node">
<title>Node5</title>
<g id="a_Node000005"><a xlink:href="app_8c.html#a57ca4f801147f9325a0ea7cc2d7192c5" target="_top" xlink:title=" ">
<polygon fill="white" stroke="#666666" points="97,-175.75 0,-175.75 0,-155 97,-155 97,-175.75"/>
<text text-anchor="middle" x="48.5" y="-162.25" font-family="Helvetica,sans-Serif" font-size="10.00">wrap_w2c__f452</text>
</a>
</g>
</g>
<!-- Node4&#45;&gt;Node5 -->
<g id="edge4_Node000004_Node000005" class="edge">
<title>Node4&#45;&gt;Node5</title>
<g id="a_edge4_Node000004_Node000005"><a xlink:title=" ">
<path fill="none" stroke="#63b8ff" d="M135.95,-165.38C123.53,-165.38 110,-165.38 97.4,-165.38"/>
<polygon fill="#63b8ff" stroke="#63b8ff" points="135.93,-168.88 145.93,-165.38 135.93,-161.88 135.93,-168.88"/>
</a>
</g>
</g>
<!-- Node7 -->
<g id="Node000007" class="node">
<title>Node7</title>
<g id="a_Node000007"><a xlink:href="app_8c.html#a130f07b726020d1add9a7ed5178e023a" target="_top" xlink:title=" ">
<polygon fill="white" stroke="#666666" points="97,-136.75 0,-136.75 0,-116 97,-116 97,-136.75"/>
<text text-anchor="middle" x="48.5" y="-123.25" font-family="Helvetica,sans-Serif" font-size="10.00">wrap_w2c__f520</text>
</a>
</g>
</g>
<!-- Node6&#45;&gt;Node7 -->
<g id="edge6_Node000006_Node000007" class="edge">
<title>Node6&#45;&gt;Node7</title>
<g id="a_edge6_Node000006_Node000007"><a xlink:title=" ">
<path fill="none" stroke="#63b8ff" d="M135.95,-126.38C123.53,-126.38 110,-126.38 97.4,-126.38"/>
<polygon fill="#63b8ff" stroke="#63b8ff" points="135.93,-129.88 145.93,-126.38 135.93,-122.88 135.93,-129.88"/>
</a>
</g>
</g>
<!-- Node10 -->
<g id="Node000010" class="node">
<title>Node10</title>
<g id="a_Node000010"><a xlink:href="app_8c.html#a7f65ba02075f2865f478747946b07c94" target="_top" xlink:title=" ">
<polygon fill="white" stroke="#666666" points="230,-59.75 133,-59.75 133,-39 230,-39 230,-59.75"/>
<text text-anchor="middle" x="181.5" y="-46.25" font-family="Helvetica,sans-Serif" font-size="10.00">wrap_w2c__f215</text>
</a>
</g>
</g>
<!-- Node9&#45;&gt;Node10 -->
<g id="edge9_Node000009_Node000010" class="edge">
<title>Node9&#45;&gt;Node10</title>
<g id="a_edge9_Node000009_Node000010"><a xlink:title=" ">
<path fill="none" stroke="#63b8ff" d="M268.95,-49.38C256.53,-49.38 243,-49.38 230.4,-49.38"/>
<polygon fill="#63b8ff" stroke="#63b8ff" points="268.93,-52.88 278.93,-49.38 268.93,-45.88 268.93,-52.88"/>
</a>
</g>
</g>
<!-- Node11&#45;&gt;Node3 -->
<g id="edge12_Node000011_Node000003" class="edge">
<title>Node11&#45;&gt;Node3</title>
<g id="a_edge12_Node000011_Node000003"><a xlink:title=" ">
<path fill="none" stroke="#63b8ff" d="M405.51,-85.34C403.26,-86.62 401.07,-87.96 399,-89.38 380.05,-102.31 381.95,-113.44 363,-126.38 357.9,-129.85 352.1,-132.91 346.34,-135.52"/>
<polygon fill="#63b8ff" stroke="#63b8ff" points="406.95,-88.54 414.3,-80.91 403.8,-82.29 406.95,-88.54"/>
</a>
</g>
</g>
<!-- Node11&#45;&gt;Node9 -->
<g id="edge11_Node000011_Node000009" class="edge">
<title>Node11&#45;&gt;Node9</title>
<g id="a_edge11_Node000011_Node000009"><a xlink:title=" ">
<path fill="none" stroke="#63b8ff" d="M402.28,-62.62C384.71,-59.94 364.83,-56.91 348.55,-54.42"/>
<polygon fill="#63b8ff" stroke="#63b8ff" points="401.53,-66.05 411.95,-64.1 402.59,-59.13 401.53,-66.05"/>
</a>
</g>
</g>
<!-- Node12&#45;&gt;Node3 -->
<g id="edge14_Node000012_Node000003" class="edge">
<title>Node12&#45;&gt;Node3</title>
<g id="a_edge14_Node000012_Node000003"><a xlink:title=" ">
<path fill="none" stroke="#63b8ff" d="M520.86,-170.56C512.64,-168.62 504.09,-166.79 496,-165.38 444.94,-156.43 384.97,-151.14 348.63,-148.49"/>
<polygon fill="#63b8ff" stroke="#63b8ff" points="519.77,-173.9 530.32,-172.87 521.44,-167.1 519.77,-173.9"/>
</a>
</g>
</g>
<!-- Node13 -->
<g id="Node000013" class="node">
<title>Node13</title>
<g id="a_Node000013"><a xlink:href="app_8c.html#a52e4add8332744d3e0ee657c0292b736" target="_top" xlink:title=" ">
<polygon fill="white" stroke="#666666" points="496,-194.75 399,-194.75 399,-174 496,-174 496,-194.75"/>
<text text-anchor="middle" x="447.5" y="-181.25" font-family="Helvetica,sans-Serif" font-size="10.00">wrap_w2c__f405</text>
</a>
</g>
</g>
<!-- Node12&#45;&gt;Node13 -->
<g id="edge15_Node000012_Node000013" class="edge">
<title>Node12&#45;&gt;Node13</title>
<g id="a_edge15_Node000012_Node000013"><a xlink:title=" ">
<path fill="none" stroke="#63b8ff" d="M520.28,-183.14C512.39,-183.28 504.14,-183.42 496.16,-183.56"/>
<polygon fill="#63b8ff" stroke="#63b8ff" points="520.07,-186.65 530.01,-182.97 519.95,-179.65 520.07,-186.65"/>
</a>
</g>
</g>
<!-- Node14&#45;&gt;Node9 -->
<g id="edge18_Node000014_Node000009" class="edge">
<title>Node14&#45;&gt;Node9</title>
<g id="a_edge18_Node000014_Node000009"><a xlink:title=" ">
<path fill="none" stroke="#63b8ff" d="M402.28,-36.79C384.71,-39.34 364.83,-42.22 348.55,-44.58"/>
<polygon fill="#63b8ff" stroke="#63b8ff" points="402.55,-40.29 411.95,-35.39 401.55,-33.36 402.55,-40.29"/>
</a>
</g>
</g>
<!-- Node15 -->
<g id="Node000015" class="node">
<title>Node15</title>
<g id="a_Node000015"><a xlink:href="app_8c.html#a3adf955267103d847529368c1e3668d0" target="_top" xlink:title=" ">
<polygon fill="white" stroke="#666666" points="363,-20.75 266,-20.75 266,0 363,0 363,-20.75"/>
<text text-anchor="middle" x="314.5" y="-7.25" font-family="Helvetica,sans-Serif" font-size="10.00">wrap_w2c__f563</text>
</a>
</g>
</g>
<!-- Node14&#45;&gt;Node15 -->
<g id="edge19_Node000014_Node000015" class="edge">
<title>Node14&#45;&gt;Node15</title>
<g id="a_edge19_Node000014_Node000015"><a xlink:title=" ">
<path fill="none" stroke="#63b8ff" d="M402.33,-23.63C389.81,-21.72 376.13,-19.63 363.4,-17.69"/>
<polygon fill="#63b8ff" stroke="#63b8ff" points="401.53,-27.05 411.95,-25.1 402.59,-20.13 401.53,-27.05"/>
</a>
</g>
</g>
<!-- Node16&#45;&gt;Node2 -->
<g id="edge21_Node000016_Node000002" class="edge">
<title>Node16&#45;&gt;Node2</title>
<g id="a_edge21_Node000016_Node000002"><a xlink:title=" ">
<path fill="none" stroke="#63b8ff" d="M520.16,-107.14C507.43,-107.36 493.78,-107.6 481.85,-107.8"/>
<polygon fill="#63b8ff" stroke="#63b8ff" points="520.07,-110.65 530.01,-106.97 519.95,-103.65 520.07,-110.65"/>
</a>
</g>
</g>
<!-- Node16&#45;&gt;Node11 -->
<g id="edge22_Node000016_Node000011" class="edge">
<title>Node16&#45;&gt;Node11</title>
<g id="a_edge22_Node000016_Node000011"><a xlink:title=" ">
<path fill="none" stroke="#63b8ff" d="M520.94,-92.41C507.99,-88.29 494.03,-83.85 481.85,-79.98"/>
<polygon fill="#63b8ff" stroke="#63b8ff" points="519.49,-95.62 530.08,-95.31 521.61,-88.95 519.49,-95.62"/>
</a>
</g>
</g>
<!-- Node16&#45;&gt;Node14 -->
<g id="edge23_Node000016_Node000014" class="edge">
<title>Node16&#45;&gt;Node14</title>
<g id="a_edge23_Node000016_Node000014"><a xlink:title=" ">
<path fill="none" stroke="#63b8ff" d="M545.65,-88.24C532.42,-76.4 514.04,-61.2 496,-50.38 490.32,-46.97 483.96,-43.86 477.78,-41.16"/>
<polygon fill="#63b8ff" stroke="#63b8ff" points="543.06,-90.61 552.81,-94.78 547.79,-85.45 543.06,-90.61"/>
</a>
</g>
</g>
</g>
</svg>
