<?xml version="1.0" encoding="UTF-8" standalone="no"?>
<!DOCTYPE svg PUBLIC "-//W3C//DTD SVG 1.1//EN"
 "http://www.w3.org/Graphics/SVG/1.1/DTD/svg11.dtd">
<!-- Generated by graphviz version 12.2.1 (0)
 -->
<!-- Title: w2c_0_77 Pages: 1 -->
<svg width="383pt" height="198pt"
 viewBox="0.00 0.00 383.25 197.69" xmlns="http://www.w3.org/2000/svg" xmlns:xlink="http://www.w3.org/1999/xlink">
<g id="graph0" class="graph" transform="scale(1 1) rotate(0) translate(4 193.69)">
<title>w2c_0_77</title>
<!-- Node1 -->
<g id="Node000001" class="node">
<title>Node1</title>
<g id="a_Node000001"><a xlink:title=" ">
<polygon fill="#999999" stroke="#666666" points="375.25,-94.69 311.25,-94.69 311.25,-73.94 375.25,-73.94 375.25,-94.69"/>
<text text-anchor="middle" x="343.25" y="-81.19" font-family="Helvetica,sans-Serif" font-size="10.00">w2c_0_77</text>
</a>
</g>
</g>
<!-- Node2 -->
<g id="Node000002" class="node">
<title>Node2</title>
<g id="a_Node000002"><a xlink:href="app_8c.html#a449cb6c73f47b769f147af0ebc196f79" target="_top" xlink:title=" ">
<polygon fill="white" stroke="#666666" points="171.5,-189.69 103.75,-189.69 103.75,-168.94 171.5,-168.94 171.5,-189.69"/>
<text text-anchor="middle" x="137.62" y="-176.19" font-family="Helvetica,sans-Serif" font-size="10.00">w2c__f206</text>
</a>
</g>
</g>
<!-- Node1&#45;&gt;Node2 -->
<g id="edge1_Node000001_Node000002" class="edge">
<title>Node1&#45;&gt;Node2</title>
<g id="a_edge1_Node000001_Node000002"><a xlink:title=" ">
<path fill="none" stroke="#63b8ff" d="M328.99,-104.32C316.97,-120.75 297.74,-143.2 275.25,-155.32 243.02,-172.68 200.9,-177.89 171.99,-179.25"/>
<polygon fill="#63b8ff" stroke="#63b8ff" points="331.76,-106.46 334.63,-96.26 326.03,-102.44 331.76,-106.46"/>
</a>
</g>
</g>
<!-- Node3 -->
<g id="Node000003" class="node">
<title>Node3</title>
<g id="a_Node000003"><a xlink:href="app_8c.html#a1581df0bdfa942524e0a5dce91fd6b8e" target="_top" xlink:title=" ">
<polygon fill="white" stroke="#666666" points="67.75,-132.69 0,-132.69 0,-111.94 67.75,-111.94 67.75,-132.69"/>
<text text-anchor="middle" x="33.88" y="-119.19" font-family="Helvetica,sans-Serif" font-size="10.00">w2c__f253</text>
</a>
</g>
</g>
<!-- Node1&#45;&gt;Node3 -->
<g id="edge3_Node000001_Node000003" class="edge">
<title>Node1&#45;&gt;Node3</title>
<g id="a_edge3_Node000001_Node000003"><a xlink:title=" ">
<path fill="none" stroke="#63b8ff" d="M318.52,-101.41C306.23,-109.29 290.6,-117.87 275.25,-122.32 203.7,-143.05 115.06,-134.87 67.95,-128.02"/>
<polygon fill="#63b8ff" stroke="#63b8ff" points="320.37,-104.38 326.73,-95.9 316.47,-98.57 320.37,-104.38"/>
</a>
</g>
</g>
<!-- Node4 -->
<g id="Node000004" class="node">
<title>Node4</title>
<g id="a_Node000004"><a xlink:href="app_8c.html#a459b7ee293146f8253684dece0b1694c" target="_top" xlink:title=" ">
<polygon fill="white" stroke="#666666" points="275.25,-113.69 207.5,-113.69 207.5,-92.94 275.25,-92.94 275.25,-113.69"/>
<text text-anchor="middle" x="241.38" y="-100.19" font-family="Helvetica,sans-Serif" font-size="10.00">w2c__f310</text>
</a>
</g>
</g>
<!-- Node1&#45;&gt;Node4 -->
<g id="edge4_Node000001_Node000004" class="edge">
<title>Node1&#45;&gt;Node4</title>
<g id="a_edge4_Node000001_Node000004"><a xlink:title=" ">
<path fill="none" stroke="#63b8ff" d="M299.79,-92.4C291.72,-93.93 283.39,-95.52 275.66,-96.99"/>
<polygon fill="#63b8ff" stroke="#63b8ff" points="300.27,-95.87 309.44,-90.56 298.96,-88.99 300.27,-95.87"/>
</a>
</g>
</g>
<!-- Node5 -->
<g id="Node000005" class="node">
<title>Node5</title>
<g id="a_Node000005"><a xlink:href="app_8c.html#a980a551daeb256397f01e6faa91d49db" target="_top" xlink:title=" ">
<polygon fill="white" stroke="#666666" points="171.5,-75.69 103.75,-75.69 103.75,-54.94 171.5,-54.94 171.5,-75.69"/>
<text text-anchor="middle" x="137.62" y="-62.19" font-family="Helvetica,sans-Serif" font-size="10.00">w2c__f403</text>
</a>
</g>
</g>
<!-- Node1&#45;&gt;Node5 -->
<g id="edge6_Node000001_Node000005" class="edge">
<title>Node1&#45;&gt;Node5</title>
<g id="a_edge6_Node000001_Node000005"><a xlink:title=" ">
<path fill="none" stroke="#63b8ff" d="M299.65,-80.34C261.58,-76.79 206.58,-71.66 171.72,-68.41"/>
<polygon fill="#63b8ff" stroke="#63b8ff" points="299.09,-83.81 309.37,-81.25 299.74,-76.84 299.09,-83.81"/>
</a>
</g>
</g>
<!-- Node6 -->
<g id="Node000006" class="node">
<title>Node6</title>
<g id="a_Node000006"><a xlink:href="app_8c.html#a96302817f96aee4b42b2d1383eb34b00" target="_top" xlink:title=" ">
<polygon fill="white" stroke="#666666" points="171.5,-36.69 103.75,-36.69 103.75,-15.94 171.5,-15.94 171.5,-36.69"/>
<text text-anchor="middle" x="137.62" y="-23.19" font-family="Helvetica,sans-Serif" font-size="10.00">w2c__f462</text>
</a>
</g>
</g>
<!-- Node1&#45;&gt;Node6 -->
<g id="edge7_Node000001_Node000006" class="edge">
<title>Node1&#45;&gt;Node6</title>
<g id="a_edge7_Node000001_Node000006"><a xlink:title=" ">
<path fill="none" stroke="#63b8ff" d="M331.08,-63.87C319.75,-45.47 300.31,-19.63 275.25,-8.32 238.62,8.22 191.23,-4.7 162.97,-15.54"/>
<polygon fill="#63b8ff" stroke="#63b8ff" points="327.98,-65.5 336.04,-72.37 334.03,-61.97 327.98,-65.5"/>
</a>
</g>
</g>
<!-- Node8 -->
<g id="Node000008" class="node">
<title>Node8</title>
<g id="a_Node000008"><a xlink:href="app_8c.html#aea24288eb1a35ebf57e85ff10baecd22" target="_top" xlink:title=" ">
<polygon fill="white" stroke="#666666" points="275.25,-37.69 207.5,-37.69 207.5,-16.94 275.25,-16.94 275.25,-37.69"/>
<text text-anchor="middle" x="241.38" y="-24.19" font-family="Helvetica,sans-Serif" font-size="10.00">w2c__f566</text>
</a>
</g>
</g>
<!-- Node1&#45;&gt;Node8 -->
<g id="edge10_Node000001_Node000008" class="edge">
<title>Node1&#45;&gt;Node8</title>
<g id="a_edge10_Node000001_Node000008"><a xlink:title=" ">
<path fill="none" stroke="#63b8ff" d="M313.63,-67.99C296.87,-58.42 276.18,-46.61 261.42,-38.19"/>
<polygon fill="#63b8ff" stroke="#63b8ff" points="311.73,-70.93 322.15,-72.85 315.2,-64.85 311.73,-70.93"/>
</a>
</g>
</g>
<!-- Node2&#45;&gt;Node3 -->
<g id="edge2_Node000002_Node000003" class="edge">
<title>Node2&#45;&gt;Node3</title>
<g id="a_edge2_Node000002_Node000003"><a xlink:title=" ">
<path fill="none" stroke="#63b8ff" d="M107.47,-162.99C90.4,-153.42 69.31,-141.61 54.27,-133.19"/>
<polygon fill="#63b8ff" stroke="#63b8ff" points="105.73,-166.02 116.17,-167.86 109.15,-159.92 105.73,-166.02"/>
</a>
</g>
</g>
<!-- Node4&#45;&gt;Node3 -->
<g id="edge5_Node000004_Node000003" class="edge">
<title>Node4&#45;&gt;Node3</title>
<g id="a_edge5_Node000004_Node000003"><a xlink:title=" ">
<path fill="none" stroke="#63b8ff" d="M196,-107.42C157.59,-110.97 102.9,-116.03 68.15,-119.24"/>
<polygon fill="#63b8ff" stroke="#63b8ff" points="196.22,-110.92 205.85,-106.51 195.57,-103.95 196.22,-110.92"/>
</a>
</g>
</g>
<!-- Node6&#45;&gt;Node3 -->
<g id="edge8_Node000006_Node000003" class="edge">
<title>Node6&#45;&gt;Node3</title>
<g id="a_edge8_Node000006_Node000003"><a xlink:title=" ">
<path fill="none" stroke="#63b8ff" d="M107.67,-43.26C106.32,-44.26 105.01,-45.28 103.75,-46.32 79.04,-66.74 55.03,-96.01 42.95,-111.6"/>
<polygon fill="#63b8ff" stroke="#63b8ff" points="109.28,-46.4 115.62,-37.91 105.37,-40.59 109.28,-46.4"/>
</a>
</g>
</g>
<!-- Node7 -->
<g id="Node000007" class="node">
<title>Node7</title>
<g id="a_Node000007"><a xlink:href="app_8c.html#a05d83e696cfaa26355c9732ee9ea4cd0" target="_top" xlink:title=" ">
<polygon fill="white" stroke="#666666" points="67.75,-36.69 0,-36.69 0,-15.94 67.75,-15.94 67.75,-36.69"/>
<text text-anchor="middle" x="33.88" y="-23.19" font-family="Helvetica,sans-Serif" font-size="10.00">w2c__f454</text>
</a>
</g>
</g>
<!-- Node6&#45;&gt;Node7 -->
<g id="edge9_Node000006_Node000007" class="edge">
<title>Node6&#45;&gt;Node7</title>
<g id="a_edge9_Node000006_Node000007"><a xlink:title=" ">
<path fill="none" stroke="#63b8ff" d="M92.07,-26.32C83.96,-26.32 75.63,-26.32 67.92,-26.32"/>
<polygon fill="#63b8ff" stroke="#63b8ff" points="91.79,-29.82 101.79,-26.32 91.79,-22.82 91.79,-29.82"/>
</a>
</g>
</g>
<!-- Node8&#45;&gt;Node5 -->
<g id="edge11_Node000008_Node000005" class="edge">
<title>Node8&#45;&gt;Node5</title>
<g id="a_edge11_Node000008_Node000005"><a xlink:title=" ">
<path fill="none" stroke="#63b8ff" d="M200.76,-42.11C189.71,-46.24 177.9,-50.65 167.58,-54.51"/>
<polygon fill="#63b8ff" stroke="#63b8ff" points="201.93,-45.41 210.07,-38.64 199.48,-38.86 201.93,-45.41"/>
</a>
</g>
</g>
<!-- Node8&#45;&gt;Node6 -->
<g id="edge12_Node000008_Node000006" class="edge">
<title>Node8&#45;&gt;Node6</title>
<g id="a_edge12_Node000008_Node000006"><a xlink:title=" ">
<path fill="none" stroke="#63b8ff" d="M195.82,-26.88C187.71,-26.8 179.38,-26.72 171.67,-26.64"/>
<polygon fill="#63b8ff" stroke="#63b8ff" points="195.51,-30.38 205.54,-26.98 195.58,-23.38 195.51,-30.38"/>
</a>
</g>
</g>
</g>
</svg>
