<?xml version="1.0" encoding="UTF-8" standalone="no"?>
<!DOCTYPE svg PUBLIC "-//W3C//DTD SVG 1.1//EN"
 "http://www.w3.org/Graphics/SVG/1.1/DTD/svg11.dtd">
<!-- Generated by graphviz version 12.2.1 (0)
 -->
<!-- Title: w2c__f370 Pages: 1 -->
<svg width="886pt" height="758pt"
 viewBox="0.00 0.00 885.50 758.21" xmlns="http://www.w3.org/2000/svg" xmlns:xlink="http://www.w3.org/1999/xlink">
<g id="graph0" class="graph" transform="scale(1 1) rotate(0) translate(4 754.21)">
<title>w2c__f370</title>
<!-- Node1 -->
<g id="Node000001" class="node">
<title>Node1</title>
<g id="a_Node000001"><a xlink:title=" ">
<polygon fill="#999999" stroke="#666666" points="877.5,-474.75 809.75,-474.75 809.75,-454 877.5,-454 877.5,-474.75"/>
<text text-anchor="middle" x="843.62" y="-461.25" font-family="Helvetica,sans-Serif" font-size="10.00">w2c__f370</text>
</a>
</g>
</g>
<!-- Node2 -->
<g id="Node000002" class="node">
<title>Node2</title>
<g id="a_Node000002"><a xlink:href="app_8c.html#ae1de58e2b7cff39d7d772ec253dd9da3" target="_top" xlink:title=" ">
<polygon fill="white" stroke="#666666" points="670,-665.75 602.25,-665.75 602.25,-645 670,-645 670,-665.75"/>
<text text-anchor="middle" x="636.12" y="-652.25" font-family="Helvetica,sans-Serif" font-size="10.00">w2c__f208</text>
</a>
</g>
</g>
<!-- Node1&#45;&gt;Node2 -->
<g id="edge1_Node000001_Node000002" class="edge">
<title>Node1&#45;&gt;Node2</title>
<g id="a_edge1_Node000001_Node000002"><a xlink:title=" ">
<path fill="none" stroke="#63b8ff" d="M836.68,-485.93C827.61,-515.08 807.72,-567.01 773.75,-598.38 758.08,-612.85 705.28,-632.52 670.1,-644.56"/>
<polygon fill="#63b8ff" stroke="#63b8ff" points="840.01,-486.99 839.48,-476.41 833.3,-485.02 840.01,-486.99"/>
</a>
</g>
</g>
<!-- Node3 -->
<g id="Node000003" class="node">
<title>Node3</title>
<g id="a_Node000003"><a xlink:href="app_8c.html#aa61e8a83e8401cf272e1b3b877d56cf0" target="_top" xlink:title=" ">
<polygon fill="white" stroke="#666666" points="566.25,-665.75 498.5,-665.75 498.5,-645 566.25,-645 566.25,-665.75"/>
<text text-anchor="middle" x="532.38" y="-652.25" font-family="Helvetica,sans-Serif" font-size="10.00">w2c__f451</text>
</a>
</g>
</g>
<!-- Node1&#45;&gt;Node3 -->
<g id="edge40_Node000001_Node000003" class="edge">
<title>Node1&#45;&gt;Node3</title>
<g id="a_edge40_Node000001_Node000003"><a xlink:title=" ">
<path fill="none" stroke="#63b8ff" d="M840.35,-486.4C833.83,-544.75 812.97,-700.99 773.75,-731.38 700.23,-788.34 583.14,-698.37 545.47,-666.15"/>
<polygon fill="#63b8ff" stroke="#63b8ff" points="843.8,-487.04 841.4,-476.72 836.84,-486.29 843.8,-487.04"/>
</a>
</g>
</g>
<!-- Node4 -->
<g id="Node000004" class="node">
<title>Node4</title>
<g id="a_Node000004"><a xlink:href="app_8c.html#a0b804502e637fa2897681579fae890af" target="_top" xlink:title=" ">
<polygon fill="white" stroke="#666666" points="773.75,-59.75 706,-59.75 706,-39 773.75,-39 773.75,-59.75"/>
<text text-anchor="middle" x="739.88" y="-46.25" font-family="Helvetica,sans-Serif" font-size="10.00">w2c__f233</text>
</a>
</g>
</g>
<!-- Node1&#45;&gt;Node4 -->
<g id="edge5_Node000001_Node000004" class="edge">
<title>Node1&#45;&gt;Node4</title>
<g id="a_edge5_Node000001_Node000004"><a xlink:title=" ">
<path fill="none" stroke="#63b8ff" d="M840.91,-442.43C834.9,-369.49 812.95,-136.29 773.75,-73.38 770.54,-68.22 765.77,-63.82 760.86,-60.25"/>
<polygon fill="#63b8ff" stroke="#63b8ff" points="837.41,-442.56 841.7,-452.25 844.39,-442 837.41,-442.56"/>
</a>
</g>
</g>
<!-- Node5 -->
<g id="Node000005" class="node">
<title>Node5</title>
<g id="a_Node000005"><a xlink:href="app_8c.html#a9856384d540064b02407c53ce1a8be56" target="_top" xlink:title=" ">
<polygon fill="white" stroke="#666666" points="462.5,-447.75 394.75,-447.75 394.75,-427 462.5,-427 462.5,-447.75"/>
<text text-anchor="middle" x="428.62" y="-434.25" font-family="Helvetica,sans-Serif" font-size="10.00">w2c__f275</text>
</a>
</g>
</g>
<!-- Node1&#45;&gt;Node5 -->
<g id="edge6_Node000001_Node000005" class="edge">
<title>Node1&#45;&gt;Node5</title>
<g id="a_edge6_Node000001_Node000005"><a xlink:title=" ">
<path fill="none" stroke="#63b8ff" d="M811.56,-448.54C777.68,-431.99 721.39,-406.64 670,-393.38 625.06,-381.77 612.59,-384.05 566.25,-381.38 536.19,-379.64 526.87,-371.3 498.5,-381.38 473.23,-390.35 450.49,-413 438.52,-426.58"/>
<polygon fill="#63b8ff" stroke="#63b8ff" points="809.87,-451.6 820.39,-452.9 812.98,-445.33 809.87,-451.6"/>
</a>
</g>
</g>
<!-- Node6 -->
<g id="Node000006" class="node">
<title>Node6</title>
<g id="a_Node000006"><a xlink:href="app_8c.html#aac449994afd8488e2efd16fb19f0ecb1" target="_top" xlink:title=" ">
<polygon fill="white" stroke="#666666" points="358.75,-513.75 291,-513.75 291,-493 358.75,-493 358.75,-513.75"/>
<text text-anchor="middle" x="324.88" y="-500.25" font-family="Helvetica,sans-Serif" font-size="10.00">w2c__f336</text>
</a>
</g>
</g>
<!-- Node1&#45;&gt;Node6 -->
<g id="edge20_Node000001_Node000006" class="edge">
<title>Node1&#45;&gt;Node6</title>
<g id="a_edge20_Node000001_Node000006"><a xlink:title=" ">
<path fill="none" stroke="#63b8ff" d="M807.24,-479.58C772.81,-493.76 718.71,-514.48 670,-526.38 551.09,-555.41 513.6,-564.65 394.75,-535.38 376.57,-530.9 357.37,-521.54 343.87,-514.1"/>
<polygon fill="#63b8ff" stroke="#63b8ff" points="808.41,-482.88 816.29,-475.8 805.72,-476.42 808.41,-482.88"/>
</a>
</g>
</g>
<!-- Node12 -->
<g id="Node000012" class="node">
<title>Node12</title>
<g id="a_Node000012"><a xlink:href="app_8c.html#a4f1571983eb8b10007474101465ef041" target="_top" xlink:title=" ">
<polygon fill="white" stroke="#666666" points="670,-305.75 602.25,-305.75 602.25,-285 670,-285 670,-305.75"/>
<text text-anchor="middle" x="636.12" y="-292.25" font-family="Helvetica,sans-Serif" font-size="10.00">w2c__f287</text>
</a>
</g>
</g>
<!-- Node1&#45;&gt;Node12 -->
<g id="edge14_Node000001_Node000012" class="edge">
<title>Node1&#45;&gt;Node12</title>
<g id="a_edge14_Node000001_Node000012"><a xlink:title=" ">
<path fill="none" stroke="#63b8ff" d="M838.78,-442.61C831.85,-410.28 814.06,-350.06 773.75,-319.38 744.05,-296.77 700.23,-292.74 670.27,-293.08"/>
<polygon fill="#63b8ff" stroke="#63b8ff" points="835.27,-442.9 840.63,-452.04 842.14,-441.55 835.27,-442.9"/>
</a>
</g>
</g>
<!-- Node14 -->
<g id="Node000014" class="node">
<title>Node14</title>
<g id="a_Node000014"><a xlink:href="app_8c.html#a114660805d6920291a2827ae740d4777" target="_top" xlink:title=" ">
<polygon fill="white" stroke="#666666" points="566.25,-211.75 498.5,-211.75 498.5,-191 566.25,-191 566.25,-211.75"/>
<text text-anchor="middle" x="532.38" y="-198.25" font-family="Helvetica,sans-Serif" font-size="10.00">w2c__f571</text>
</a>
</g>
</g>
<!-- Node1&#45;&gt;Node14 -->
<g id="edge53_Node000001_Node000014" class="edge">
<title>Node1&#45;&gt;Node14</title>
<g id="a_edge53_Node000001_Node000014"><a xlink:title=" ">
<path fill="none" stroke="#63b8ff" d="M840.88,-442.47C836.48,-399.36 821.56,-302.16 773.75,-238.38 740.68,-194.26 722.83,-186.15 670,-170.38 641.15,-161.76 631.69,-164.05 602.25,-170.38 584.17,-174.26 565.11,-183.27 551.64,-190.58"/>
<polygon fill="#63b8ff" stroke="#63b8ff" points="837.39,-442.65 841.78,-452.29 844.36,-442.01 837.39,-442.65"/>
</a>
</g>
</g>
<!-- Node15 -->
<g id="Node000015" class="node">
<title>Node15</title>
<g id="a_Node000015"><a xlink:href="app_8c.html#a6df2a3972e7986f80c1ba05486d1d190" target="_top" xlink:title=" ">
<polygon fill="white" stroke="#666666" points="773.75,-589.75 706,-589.75 706,-569 773.75,-569 773.75,-589.75"/>
<text text-anchor="middle" x="739.88" y="-576.25" font-family="Helvetica,sans-Serif" font-size="10.00">w2c__f360</text>
</a>
</g>
</g>
<!-- Node1&#45;&gt;Node15 -->
<g id="edge21_Node000001_Node000015" class="edge">
<title>Node1&#45;&gt;Node15</title>
<g id="a_edge21_Node000001_Node000015"><a xlink:title=" ">
<path fill="none" stroke="#63b8ff" d="M830.99,-485.03C818.68,-505.61 797.74,-537.25 773.75,-559.38 770.12,-562.73 765.84,-565.81 761.59,-568.5"/>
<polygon fill="#63b8ff" stroke="#63b8ff" points="833.99,-486.84 836,-476.43 827.94,-483.31 833.99,-486.84"/>
</a>
</g>
</g>
<!-- Node16 -->
<g id="Node000016" class="node">
<title>Node16</title>
<g id="a_Node000016"><a xlink:href="app_8c.html#a74b0a4e082d67428fd16ab43df670993" target="_top" xlink:title=" ">
<polygon fill="white" stroke="#666666" points="773.75,-722.75 706,-722.75 706,-702 773.75,-702 773.75,-722.75"/>
<text text-anchor="middle" x="739.88" y="-709.25" font-family="Helvetica,sans-Serif" font-size="10.00">w2c__f380</text>
</a>
</g>
</g>
<!-- Node1&#45;&gt;Node16 -->
<g id="edge23_Node000001_Node000016" class="edge">
<title>Node1&#45;&gt;Node16</title>
<g id="a_edge23_Node000001_Node000016"><a xlink:title=" ">
<path fill="none" stroke="#63b8ff" d="M841.15,-486.33C837.2,-529.93 823.05,-628.69 773.75,-692.38 770.97,-695.97 767.35,-699.06 763.52,-701.67"/>
<polygon fill="#63b8ff" stroke="#63b8ff" points="844.62,-486.88 841.93,-476.63 837.64,-486.32 844.62,-486.88"/>
</a>
</g>
</g>
<!-- Node17 -->
<g id="Node000017" class="node">
<title>Node17</title>
<g id="a_Node000017"><a xlink:href="app_8c.html#a9acbf29d5eb6c67c955f22a681da8d7e" target="_top" xlink:title=" ">
<polygon fill="white" stroke="#666666" points="773.75,-550.75 706,-550.75 706,-530 773.75,-530 773.75,-550.75"/>
<text text-anchor="middle" x="739.88" y="-537.25" font-family="Helvetica,sans-Serif" font-size="10.00">w2c__f394</text>
</a>
</g>
</g>
<!-- Node1&#45;&gt;Node17 -->
<g id="edge25_Node000001_Node000017" class="edge">
<title>Node1&#45;&gt;Node17</title>
<g id="a_edge25_Node000001_Node000017"><a xlink:title=" ">
<path fill="none" stroke="#63b8ff" d="M819.47,-482.01C806.14,-492.12 789.04,-505.02 773.75,-516.38 767.85,-520.76 761.32,-525.54 755.64,-529.67"/>
<polygon fill="#63b8ff" stroke="#63b8ff" points="821.38,-484.95 827.22,-476.11 817.14,-479.37 821.38,-484.95"/>
</a>
</g>
</g>
<!-- Node18 -->
<g id="Node000018" class="node">
<title>Node18</title>
<g id="a_Node000018"><a xlink:href="app_8c.html#a13a282f739b6944dad1977039f3fadde" target="_top" xlink:title=" ">
<polygon fill="white" stroke="#666666" points="773.75,-20.75 706,-20.75 706,0 773.75,0 773.75,-20.75"/>
<text text-anchor="middle" x="739.88" y="-7.25" font-family="Helvetica,sans-Serif" font-size="10.00">w2c__f420</text>
</a>
</g>
</g>
<!-- Node1&#45;&gt;Node18 -->
<g id="edge28_Node000001_Node000018" class="edge">
<title>Node1&#45;&gt;Node18</title>
<g id="a_edge28_Node000001_Node000018"><a xlink:title=" ">
<path fill="none" stroke="#63b8ff" d="M841.55,-442.44C837.35,-364.13 819.94,-99.24 773.75,-30.38 771.29,-26.71 767.92,-23.61 764.26,-21.02"/>
<polygon fill="#63b8ff" stroke="#63b8ff" points="838.04,-442.41 842.05,-452.21 845.03,-442.04 838.04,-442.41"/>
</a>
</g>
</g>
<!-- Node19 -->
<g id="Node000019" class="node">
<title>Node19</title>
<g id="a_Node000019"><a xlink:href="app_8c.html#a369480ebb798d5578ca00b16d6d2c658" target="_top" xlink:title=" ">
<polygon fill="white" stroke="#666666" points="773.75,-474.75 706,-474.75 706,-454 773.75,-454 773.75,-474.75"/>
<text text-anchor="middle" x="739.88" y="-461.25" font-family="Helvetica,sans-Serif" font-size="10.00">w2c__f446</text>
</a>
</g>
</g>
<!-- Node1&#45;&gt;Node19 -->
<g id="edge29_Node000001_Node000019" class="edge">
<title>Node1&#45;&gt;Node19</title>
<g id="a_edge29_Node000001_Node000019"><a xlink:title=" ">
<path fill="none" stroke="#63b8ff" d="M798.07,-464.38C789.96,-464.38 781.63,-464.38 773.92,-464.38"/>
<polygon fill="#63b8ff" stroke="#63b8ff" points="797.79,-467.88 807.79,-464.38 797.79,-460.88 797.79,-467.88"/>
</a>
</g>
</g>
<!-- Node23 -->
<g id="Node000023" class="node">
<title>Node23</title>
<g id="a_Node000023"><a xlink:href="app_8c.html#a570d350db1669791e77d257c294e013f" target="_top" xlink:title=" ">
<polygon fill="white" stroke="#666666" points="773.75,-665.75 706,-665.75 706,-645 773.75,-645 773.75,-665.75"/>
<text text-anchor="middle" x="739.88" y="-652.25" font-family="Helvetica,sans-Serif" font-size="10.00">w2c__f484</text>
</a>
</g>
</g>
<!-- Node1&#45;&gt;Node23 -->
<g id="edge41_Node000001_Node000023" class="edge">
<title>Node1&#45;&gt;Node23</title>
<g id="a_edge41_Node000001_Node000023"><a xlink:title=" ">
<path fill="none" stroke="#63b8ff" d="M837.73,-486.1C829.26,-519.96 809.29,-586.12 773.75,-631.38 769.73,-636.49 764.36,-641.03 759.12,-644.74"/>
<polygon fill="#63b8ff" stroke="#63b8ff" points="841.07,-487.19 839.98,-476.66 834.26,-485.57 841.07,-487.19"/>
</a>
</g>
</g>
<!-- Node24 -->
<g id="Node000024" class="node">
<title>Node24</title>
<g id="a_Node000024"><a xlink:href="app_8c.html#af9d50ca50837aae4254b3685e8f0948a" target="_top" xlink:title=" ">
<polygon fill="white" stroke="#666666" points="462.5,-163.75 394.75,-163.75 394.75,-143 462.5,-143 462.5,-163.75"/>
<text text-anchor="middle" x="428.62" y="-150.25" font-family="Helvetica,sans-Serif" font-size="10.00">w2c__f547</text>
</a>
</g>
</g>
<!-- Node1&#45;&gt;Node24 -->
<g id="edge44_Node000001_Node000024" class="edge">
<title>Node1&#45;&gt;Node24</title>
<g id="a_edge44_Node000001_Node000024"><a xlink:title=" ">
<path fill="none" stroke="#63b8ff" d="M840.42,-442.39C833.88,-381.85 812.62,-214.82 773.75,-178.38 687.88,-97.87 531.08,-126.22 462.84,-143.75"/>
<polygon fill="#63b8ff" stroke="#63b8ff" points="836.91,-442.52 841.43,-452.1 843.87,-441.79 836.91,-442.52"/>
</a>
</g>
</g>
<!-- Node25 -->
<g id="Node000025" class="node">
<title>Node25</title>
<g id="a_Node000025"><a xlink:href="app_8c.html#aa5901cdf06a4d555e435828d47aeb370" target="_top" xlink:title=" ">
<polygon fill="white" stroke="#666666" points="773.75,-267.75 706,-267.75 706,-247 773.75,-247 773.75,-267.75"/>
<text text-anchor="middle" x="739.88" y="-254.25" font-family="Helvetica,sans-Serif" font-size="10.00">w2c__f560</text>
</a>
</g>
</g>
<!-- Node1&#45;&gt;Node25 -->
<g id="edge46_Node000001_Node000025" class="edge">
<title>Node1&#45;&gt;Node25</title>
<g id="a_edge46_Node000001_Node000025"><a xlink:title=" ">
<path fill="none" stroke="#63b8ff" d="M838.68,-442.65C831.2,-406.23 812.16,-331.9 773.75,-281.38 769.9,-276.31 764.69,-271.84 759.56,-268.18"/>
<polygon fill="#63b8ff" stroke="#63b8ff" points="835.22,-443.21 840.57,-452.36 842.1,-441.88 835.22,-443.21"/>
</a>
</g>
</g>
<!-- Node2&#45;&gt;Node2 -->
<g id="edge2_Node000002_Node000002" class="edge">
<title>Node2&#45;&gt;Node2</title>
<g id="a_edge2_Node000002_Node000002"><a xlink:title=" ">
<path fill="none" stroke="#63b8ff" d="M654.16,-677.56C651.61,-681.23 645.6,-683.75 636.12,-683.75 618.29,-683.75 612.72,-674.81 619.41,-666.15"/>
<polygon fill="#63b8ff" stroke="#63b8ff" points="657.64,-677.18 653.02,-667.65 650.69,-677.99 657.64,-677.18"/>
</a>
</g>
</g>
<!-- Node2&#45;&gt;Node3 -->
<g id="edge3_Node000002_Node000003" class="edge">
<title>Node2&#45;&gt;Node3</title>
<g id="a_edge3_Node000002_Node000003"><a xlink:title=" ">
<path fill="none" stroke="#63b8ff" d="M590.57,-648.67C582.46,-648.55 574.13,-648.66 566.42,-649.01"/>
<polygon fill="#63b8ff" stroke="#63b8ff" points="590.2,-652.16 600.3,-648.95 590.4,-645.17 590.2,-652.16"/>
</a>
</g>
</g>
<!-- Node3&#45;&gt;Node2 -->
<g id="edge4_Node000003_Node000002" class="edge">
<title>Node3&#45;&gt;Node2</title>
<g id="a_edge4_Node000003_Node000002"><a xlink:title=" ">
<path fill="none" stroke="#63b8ff" d="M577.92,-662.08C585.94,-662.2 594.18,-662.09 601.81,-661.75"/>
<polygon fill="#63b8ff" stroke="#63b8ff" points="578.03,-658.58 567.93,-661.79 577.83,-665.58 578.03,-658.58"/>
</a>
</g>
</g>
<!-- Node5&#45;&gt;Node5 -->
<g id="edge7_Node000005_Node000005" class="edge">
<title>Node5&#45;&gt;Node5</title>
<g id="a_edge7_Node000005_Node000005"><a xlink:title=" ">
<path fill="none" stroke="#63b8ff" d="M446.66,-459.56C444.11,-463.23 438.1,-465.75 428.62,-465.75 410.79,-465.75 405.22,-456.81 411.91,-448.15"/>
<polygon fill="#63b8ff" stroke="#63b8ff" points="450.14,-459.18 445.52,-449.65 443.19,-459.99 450.14,-459.18"/>
</a>
</g>
</g>
<!-- Node5&#45;&gt;Node6 -->
<g id="edge8_Node000005_Node000006" class="edge">
<title>Node5&#45;&gt;Node6</title>
<g id="a_edge8_Node000005_Node000006"><a xlink:title=" ">
<path fill="none" stroke="#63b8ff" d="M401.64,-454.23C383.04,-466.29 358.55,-482.18 342.52,-492.58"/>
<polygon fill="#63b8ff" stroke="#63b8ff" points="403.52,-457.18 410.01,-448.8 399.71,-451.31 403.52,-457.18"/>
</a>
</g>
</g>
<!-- Node7 -->
<g id="Node000007" class="node">
<title>Node7</title>
<g id="a_Node000007"><a xlink:href="app_8c.html#ac863989691d4c389f80374209c220171" target="_top" xlink:title=" ">
<polygon fill="white" stroke="#666666" points="252.38,-533.75 189.88,-533.75 189.88,-513 252.38,-513 252.38,-533.75"/>
<text text-anchor="middle" x="221.12" y="-520.25" font-family="Helvetica,sans-Serif" font-size="10.00">w2c__c_0</text>
</a>
</g>
</g>
<!-- Node6&#45;&gt;Node7 -->
<g id="edge9_Node000006_Node000007" class="edge">
<title>Node6&#45;&gt;Node7</title>
<g id="a_edge9_Node000006_Node000007"><a xlink:title=" ">
<path fill="none" stroke="#63b8ff" d="M279.4,-512.12C270.41,-513.88 261.15,-515.7 252.76,-517.35"/>
<polygon fill="#63b8ff" stroke="#63b8ff" points="279.94,-515.58 289.07,-510.22 278.59,-508.71 279.94,-515.58"/>
</a>
</g>
</g>
<!-- Node9 -->
<g id="Node000009" class="node">
<title>Node9</title>
<g id="a_Node000009"><a xlink:href="app_8c.html#a8f312e54d76623b1ae169d5d19736ee0" target="_top" xlink:title=" ">
<polygon fill="white" stroke="#666666" points="255,-494.75 187.25,-494.75 187.25,-474 255,-474 255,-494.75"/>
<text text-anchor="middle" x="221.12" y="-481.25" font-family="Helvetica,sans-Serif" font-size="10.00">w2c__f363</text>
</a>
</g>
</g>
<!-- Node6&#45;&gt;Node9 -->
<g id="edge11_Node000006_Node000009" class="edge">
<title>Node6&#45;&gt;Node9</title>
<g id="a_edge11_Node000006_Node000009"><a xlink:title=" ">
<path fill="none" stroke="#63b8ff" d="M279.32,-495.06C271.21,-493.54 262.88,-491.98 255.17,-490.55"/>
<polygon fill="#63b8ff" stroke="#63b8ff" points="278.6,-498.48 289.07,-496.88 279.88,-491.6 278.6,-498.48"/>
</a>
</g>
</g>
<!-- Node8 -->
<g id="Node000008" class="node">
<title>Node8</title>
<g id="a_Node000008"><a xlink:href="app_8c.html#ab1e039392ea68017ab8a6063263b147d" target="_top" xlink:title=" ">
<polygon fill="white" stroke="#666666" points="145.25,-533.75 94,-533.75 94,-513 145.25,-513 145.25,-533.75"/>
<text text-anchor="middle" x="119.62" y="-520.25" font-family="Helvetica,sans-Serif" font-size="10.00">w2c__c</text>
</a>
</g>
</g>
<!-- Node7&#45;&gt;Node8 -->
<g id="edge10_Node000007_Node000008" class="edge">
<title>Node7&#45;&gt;Node8</title>
<g id="a_edge10_Node000007_Node000008"><a xlink:title=" ">
<path fill="none" stroke="#63b8ff" d="M178.21,-523.38C167.15,-523.38 155.55,-523.38 145.68,-523.38"/>
<polygon fill="#63b8ff" stroke="#63b8ff" points="177.95,-526.88 187.95,-523.38 177.95,-519.88 177.95,-526.88"/>
</a>
</g>
</g>
<!-- Node10 -->
<g id="Node000010" class="node">
<title>Node10</title>
<g id="a_Node000010"><a xlink:href="app_8c.html#a26657f10c51f10eeb57a4d27606a6885" target="_top" xlink:title=" ">
<polygon fill="white" stroke="#666666" points="151.25,-494.75 88,-494.75 88,-474 151.25,-474 151.25,-494.75"/>
<text text-anchor="middle" x="119.62" y="-481.25" font-family="Helvetica,sans-Serif" font-size="10.00">w2c__b_0</text>
</a>
</g>
</g>
<!-- Node9&#45;&gt;Node10 -->
<g id="edge12_Node000009_Node000010" class="edge">
<title>Node9&#45;&gt;Node10</title>
<g id="a_edge12_Node000009_Node000010"><a xlink:title=" ">
<path fill="none" stroke="#63b8ff" d="M175.71,-484.38C167.57,-484.38 159.23,-484.38 151.59,-484.38"/>
<polygon fill="#63b8ff" stroke="#63b8ff" points="175.48,-487.88 185.48,-484.38 175.48,-480.88 175.48,-487.88"/>
</a>
</g>
</g>
<!-- Node11 -->
<g id="Node000011" class="node">
<title>Node11</title>
<g id="a_Node000011"><a xlink:href="app_8c.html#a683a2045346c3209e9dac20d55933c7d" target="_top" xlink:title=" ">
<polygon fill="white" stroke="#666666" points="52,-494.75 0,-494.75 0,-474 52,-474 52,-494.75"/>
<text text-anchor="middle" x="26" y="-481.25" font-family="Helvetica,sans-Serif" font-size="10.00">w2c__b</text>
</a>
</g>
</g>
<!-- Node10&#45;&gt;Node11 -->
<g id="edge13_Node000010_Node000011" class="edge">
<title>Node10&#45;&gt;Node11</title>
<g id="a_edge13_Node000010_Node000011"><a xlink:title=" ">
<path fill="none" stroke="#63b8ff" d="M76.21,-484.38C68,-484.38 59.65,-484.38 52.21,-484.38"/>
<polygon fill="#63b8ff" stroke="#63b8ff" points="76.09,-487.88 86.09,-484.38 76.09,-480.88 76.09,-487.88"/>
</a>
</g>
</g>
<!-- Node13 -->
<g id="Node000013" class="node">
<title>Node13</title>
<g id="a_Node000013"><a xlink:href="app_8c.html#a4e0e8b8ddb7852b111d530fef11aca0b" target="_top" xlink:title=" ">
<polygon fill="white" stroke="#666666" points="462.5,-286.75 394.75,-286.75 394.75,-266 462.5,-266 462.5,-286.75"/>
<text text-anchor="middle" x="428.62" y="-273.25" font-family="Helvetica,sans-Serif" font-size="10.00">w2c__f434</text>
</a>
</g>
</g>
<!-- Node12&#45;&gt;Node13 -->
<g id="edge15_Node000012_Node000013" class="edge">
<title>Node12&#45;&gt;Node13</title>
<g id="a_edge15_Node000012_Node000013"><a xlink:title=" ">
<path fill="none" stroke="#63b8ff" d="M590.75,-291.27C552.34,-287.72 497.65,-282.66 462.9,-279.45"/>
<polygon fill="#63b8ff" stroke="#63b8ff" points="590.32,-294.75 600.6,-292.18 590.97,-287.78 590.32,-294.75"/>
</a>
</g>
</g>
<!-- Node12&#45;&gt;Node14 -->
<g id="edge17_Node000012_Node000014" class="edge">
<title>Node12&#45;&gt;Node14</title>
<g id="a_edge17_Node000012_Node000014"><a xlink:title=" ">
<path fill="none" stroke="#63b8ff" d="M615.24,-277.01C594.29,-257.65 562,-227.82 544.91,-212.03"/>
<polygon fill="#63b8ff" stroke="#63b8ff" points="612.62,-279.35 622.34,-283.56 617.37,-274.21 612.62,-279.35"/>
</a>
</g>
</g>
<!-- Node13&#45;&gt;Node6 -->
<g id="edge16_Node000013_Node000006" class="edge">
<title>Node13&#45;&gt;Node6</title>
<g id="a_edge16_Node000013_Node000006"><a xlink:title=" ">
<path fill="none" stroke="#63b8ff" d="M418.27,-297.24C397.16,-344.35 346.41,-457.56 330.64,-492.75"/>
<polygon fill="#63b8ff" stroke="#63b8ff" points="421.34,-298.96 422.23,-288.4 414.95,-296.09 421.34,-298.96"/>
</a>
</g>
</g>
<!-- Node14&#45;&gt;Node13 -->
<g id="edge18_Node000014_Node000013" class="edge">
<title>Node14&#45;&gt;Node13</title>
<g id="a_edge18_Node000014_Node000013"><a xlink:title=" ">
<path fill="none" stroke="#63b8ff" d="M507.58,-218.91C487.95,-233.39 460.71,-253.46 444.18,-265.65"/>
<polygon fill="#63b8ff" stroke="#63b8ff" points="509.61,-221.77 515.58,-213.02 505.45,-216.13 509.61,-221.77"/>
</a>
</g>
</g>
<!-- Node14&#45;&gt;Node14 -->
<g id="edge19_Node000014_Node000014" class="edge">
<title>Node14&#45;&gt;Node14</title>
<g id="a_edge19_Node000014_Node000014"><a xlink:title=" ">
<path fill="none" stroke="#63b8ff" d="M550.41,-223.56C547.86,-227.23 541.85,-229.75 532.38,-229.75 514.54,-229.75 508.97,-220.81 515.66,-212.15"/>
<polygon fill="#63b8ff" stroke="#63b8ff" points="553.89,-223.18 549.27,-213.65 546.94,-223.99 553.89,-223.18"/>
</a>
</g>
</g>
<!-- Node15&#45;&gt;Node2 -->
<g id="edge22_Node000015_Node000002" class="edge">
<title>Node15&#45;&gt;Node2</title>
<g id="a_edge22_Node000015_Node000002"><a xlink:title=" ">
<path fill="none" stroke="#63b8ff" d="M714.82,-596.81C711.84,-599 708.84,-601.23 706,-603.38 689.81,-615.57 686.19,-619.18 670,-631.38 664.13,-635.8 657.6,-640.59 651.92,-644.72"/>
<polygon fill="#63b8ff" stroke="#63b8ff" points="716.85,-599.66 722.85,-590.93 712.72,-594.01 716.85,-599.66"/>
</a>
</g>
</g>
<!-- Node16&#45;&gt;Node2 -->
<g id="edge24_Node000016_Node000002" class="edge">
<title>Node16&#45;&gt;Node2</title>
<g id="a_edge24_Node000016_Node000002"><a xlink:title=" ">
<path fill="none" stroke="#63b8ff" d="M709.72,-696.04C692.65,-686.48 671.56,-674.67 656.52,-666.24"/>
<polygon fill="#63b8ff" stroke="#63b8ff" points="707.98,-699.08 718.42,-700.91 711.4,-692.97 707.98,-699.08"/>
</a>
</g>
</g>
<!-- Node17&#45;&gt;Node2 -->
<g id="edge26_Node000017_Node000002" class="edge">
<title>Node17&#45;&gt;Node2</title>
<g id="a_edge26_Node000017_Node000002"><a xlink:title=" ">
<path fill="none" stroke="#63b8ff" d="M708.58,-557.8C707.68,-558.64 706.82,-559.49 706,-560.38 681.97,-586.34 692.92,-604.42 670,-631.38 665.79,-636.33 660.36,-640.82 655.13,-644.54"/>
<polygon fill="#63b8ff" stroke="#63b8ff" points="710.39,-560.83 716.2,-551.97 706.13,-555.27 710.39,-560.83"/>
</a>
</g>
</g>
<!-- Node17&#45;&gt;Node6 -->
<g id="edge27_Node000017_Node000006" class="edge">
<title>Node17&#45;&gt;Node6</title>
<g id="a_edge27_Node000017_Node000006"><a xlink:title=" ">
<path fill="none" stroke="#63b8ff" d="M710.14,-557.39C708.72,-558.37 707.34,-559.37 706,-560.38 688.65,-573.41 690.23,-585.51 670,-593.38 555.99,-637.72 504.43,-647.55 394.75,-593.38 360.7,-576.56 338.85,-533.94 330.15,-513.99"/>
<polygon fill="#63b8ff" stroke="#63b8ff" points="711.94,-560.4 718.42,-552.01 708.12,-554.53 711.94,-560.4"/>
</a>
</g>
</g>
<!-- Node19&#45;&gt;Node5 -->
<g id="edge30_Node000019_Node000005" class="edge">
<title>Node19&#45;&gt;Node5</title>
<g id="a_edge30_Node000019_Node000005"><a xlink:title=" ">
<path fill="none" stroke="#63b8ff" d="M713.25,-447.77C700.57,-440 684.83,-431.03 670,-424.38 625.72,-404.53 614.17,-398.03 566.25,-390.38 536.52,-385.63 527.27,-381.49 498.5,-390.38 475.54,-397.46 453.4,-415.12 440.66,-426.66"/>
<polygon fill="#63b8ff" stroke="#63b8ff" points="711.07,-450.53 721.41,-452.87 714.78,-444.6 711.07,-450.53"/>
</a>
</g>
</g>
<!-- Node19&#45;&gt;Node6 -->
<g id="edge31_Node000019_Node000006" class="edge">
<title>Node19&#45;&gt;Node6</title>
<g id="a_edge31_Node000019_Node000006"><a xlink:title=" ">
<path fill="none" stroke="#63b8ff" d="M714.65,-481.3C701.9,-489.45 685.69,-498.67 670,-504.38 561.92,-543.7 421.8,-523.32 358.94,-510.79"/>
<polygon fill="#63b8ff" stroke="#63b8ff" points="716.38,-484.35 722.79,-475.91 712.52,-478.51 716.38,-484.35"/>
</a>
</g>
</g>
<!-- Node20 -->
<g id="Node000020" class="node">
<title>Node20</title>
<g id="a_Node000020"><a xlink:href="app_8c.html#aada8f3762f0960bddf55a2e59d8087f8" target="_top" xlink:title=" ">
<polygon fill="white" stroke="#666666" points="670,-475.75 602.25,-475.75 602.25,-455 670,-455 670,-475.75"/>
<text text-anchor="middle" x="636.12" y="-462.25" font-family="Helvetica,sans-Serif" font-size="10.00">w2c__f375</text>
</a>
</g>
</g>
<!-- Node19&#45;&gt;Node20 -->
<g id="edge32_Node000019_Node000020" class="edge">
<title>Node19&#45;&gt;Node20</title>
<g id="a_edge32_Node000019_Node000020"><a xlink:title=" ">
<path fill="none" stroke="#63b8ff" d="M694.32,-464.81C686.21,-464.89 677.88,-464.97 670.17,-465.05"/>
<polygon fill="#63b8ff" stroke="#63b8ff" points="694.08,-468.32 704.04,-464.72 694.01,-461.32 694.08,-468.32"/>
</a>
</g>
</g>
<!-- Node21 -->
<g id="Node000021" class="node">
<title>Node21</title>
<g id="a_Node000021"><a xlink:href="app_8c.html#ae4bb39cfb5a24045c9b864563ef76ba6" target="_top" xlink:title=" ">
<polygon fill="white" stroke="#666666" points="566.25,-513.75 498.5,-513.75 498.5,-493 566.25,-493 566.25,-513.75"/>
<text text-anchor="middle" x="532.38" y="-500.25" font-family="Helvetica,sans-Serif" font-size="10.00">w2c__f579</text>
</a>
</g>
</g>
<!-- Node19&#45;&gt;Node21 -->
<g id="edge39_Node000019_Node000021" class="edge">
<title>Node19&#45;&gt;Node21</title>
<g id="a_edge39_Node000019_Node000021"><a xlink:title=" ">
<path fill="none" stroke="#63b8ff" d="M694.91,-478.17C686.68,-480.45 678.12,-482.64 670,-484.38 635.1,-491.83 594.55,-497.04 566.74,-500.1"/>
<polygon fill="#63b8ff" stroke="#63b8ff" points="695.75,-481.57 704.39,-475.44 693.81,-474.84 695.75,-481.57"/>
</a>
</g>
</g>
<!-- Node22 -->
<g id="Node000022" class="node">
<title>Node22</title>
<g id="a_Node000022"><a xlink:href="app_8c.html#a98b6c466c826c179b34e726bb6a4bebc" target="_top" xlink:title=" ">
<polygon fill="white" stroke="#666666" points="566.25,-419.75 498.5,-419.75 498.5,-399 566.25,-399 566.25,-419.75"/>
<text text-anchor="middle" x="532.38" y="-406.25" font-family="Helvetica,sans-Serif" font-size="10.00">w2c__f422</text>
</a>
</g>
</g>
<!-- Node19&#45;&gt;Node22 -->
<g id="edge36_Node000019_Node000022" class="edge">
<title>Node19&#45;&gt;Node22</title>
<g id="a_edge36_Node000019_Node000022"><a xlink:title=" ">
<path fill="none" stroke="#63b8ff" d="M695,-452.63C656.57,-442.35 601.55,-427.62 566.65,-418.28"/>
<polygon fill="#63b8ff" stroke="#63b8ff" points="693.83,-455.94 704.4,-455.15 695.64,-449.18 693.83,-455.94"/>
</a>
</g>
</g>
<!-- Node20&#45;&gt;Node5 -->
<g id="edge33_Node000020_Node000005" class="edge">
<title>Node20&#45;&gt;Node5</title>
<g id="a_edge33_Node000020_Node000005"><a xlink:title=" ">
<path fill="none" stroke="#63b8ff" d="M590.75,-459.33C552.34,-454.1 497.65,-446.64 462.9,-441.91"/>
<polygon fill="#63b8ff" stroke="#63b8ff" points="590.23,-462.79 600.61,-460.67 591.17,-455.85 590.23,-462.79"/>
</a>
</g>
</g>
<!-- Node20&#45;&gt;Node21 -->
<g id="edge34_Node000020_Node000021" class="edge">
<title>Node20&#45;&gt;Node21</title>
<g id="a_edge34_Node000020_Node000021"><a xlink:title=" ">
<path fill="none" stroke="#63b8ff" d="M595.51,-480.17C584.46,-484.3 572.65,-488.71 562.33,-492.56"/>
<polygon fill="#63b8ff" stroke="#63b8ff" points="596.68,-483.47 604.82,-476.69 594.23,-476.91 596.68,-483.47"/>
</a>
</g>
</g>
<!-- Node21&#45;&gt;Node5 -->
<g id="edge35_Node000021_Node000005" class="edge">
<title>Node21&#45;&gt;Node5</title>
<g id="a_edge35_Node000021_Node000005"><a xlink:title=" ">
<path fill="none" stroke="#63b8ff" d="M505.39,-486.52C486.79,-474.46 462.3,-458.57 446.27,-448.17"/>
<polygon fill="#63b8ff" stroke="#63b8ff" points="503.46,-489.44 513.76,-491.95 507.27,-483.57 503.46,-489.44"/>
</a>
</g>
</g>
<!-- Node22&#45;&gt;Node5 -->
<g id="edge37_Node000022_Node000005" class="edge">
<title>Node22&#45;&gt;Node5</title>
<g id="a_edge37_Node000022_Node000005"><a xlink:title=" ">
<path fill="none" stroke="#63b8ff" d="M487.1,-421.56C478.9,-423.82 470.46,-426.14 462.67,-428.28"/>
<polygon fill="#63b8ff" stroke="#63b8ff" points="487.89,-424.97 496.6,-418.94 486.03,-418.22 487.89,-424.97"/>
</a>
</g>
</g>
<!-- Node22&#45;&gt;Node22 -->
<g id="edge38_Node000022_Node000022" class="edge">
<title>Node22&#45;&gt;Node22</title>
<g id="a_edge38_Node000022_Node000022"><a xlink:title=" ">
<path fill="none" stroke="#63b8ff" d="M550.41,-431.56C547.86,-435.23 541.85,-437.75 532.38,-437.75 514.54,-437.75 508.97,-428.81 515.66,-420.15"/>
<polygon fill="#63b8ff" stroke="#63b8ff" points="553.89,-431.18 549.27,-421.65 546.94,-431.99 553.89,-431.18"/>
</a>
</g>
</g>
<!-- Node23&#45;&gt;Node2 -->
<g id="edge42_Node000023_Node000002" class="edge">
<title>Node23&#45;&gt;Node2</title>
<g id="a_edge42_Node000023_Node000002"><a xlink:title=" ">
<path fill="none" stroke="#63b8ff" d="M694.32,-655.38C686.21,-655.38 677.88,-655.38 670.17,-655.38"/>
<polygon fill="#63b8ff" stroke="#63b8ff" points="694.04,-658.88 704.04,-655.38 694.04,-651.88 694.04,-658.88"/>
</a>
</g>
</g>
<!-- Node23&#45;&gt;Node23 -->
<g id="edge43_Node000023_Node000023" class="edge">
<title>Node23&#45;&gt;Node23</title>
<g id="a_edge43_Node000023_Node000023"><a xlink:title=" ">
<path fill="none" stroke="#63b8ff" d="M757.91,-677.56C755.36,-681.23 749.35,-683.75 739.88,-683.75 722.04,-683.75 716.47,-674.81 723.16,-666.15"/>
<polygon fill="#63b8ff" stroke="#63b8ff" points="761.39,-677.18 756.77,-667.65 754.44,-677.99 761.39,-677.18"/>
</a>
</g>
</g>
<!-- Node24&#45;&gt;Node6 -->
<g id="edge45_Node000024_Node000006" class="edge">
<title>Node24&#45;&gt;Node6</title>
<g id="a_edge45_Node000024_Node000006"><a xlink:title=" ">
<path fill="none" stroke="#63b8ff" d="M420.62,-174.83C413.81,-195.81 403.29,-228.7 394.75,-257.38 367.78,-347.91 338.01,-458.09 328.77,-492.55"/>
<polygon fill="#63b8ff" stroke="#63b8ff" points="423.91,-176 423.68,-165.41 417.26,-173.83 423.91,-176"/>
</a>
</g>
</g>
<!-- Node25&#45;&gt;Node12 -->
<g id="edge47_Node000025_Node000012" class="edge">
<title>Node25&#45;&gt;Node12</title>
<g id="a_edge47_Node000025_Node000012"><a xlink:title=" ">
<path fill="none" stroke="#63b8ff" d="M699.26,-272.17C688.21,-276.3 676.4,-280.71 666.08,-284.56"/>
<polygon fill="#63b8ff" stroke="#63b8ff" points="700.43,-275.47 708.57,-268.69 697.98,-268.91 700.43,-275.47"/>
</a>
</g>
</g>
<!-- Node25&#45;&gt;Node13 -->
<g id="edge48_Node000025_Node000013" class="edge">
<title>Node25&#45;&gt;Node13</title>
<g id="a_edge48_Node000025_Node000013"><a xlink:title=" ">
<path fill="none" stroke="#63b8ff" d="M694.32,-260.11C631.64,-263.96 518.88,-270.89 462.95,-274.33"/>
<polygon fill="#63b8ff" stroke="#63b8ff" points="694.5,-263.61 704.27,-259.5 694.07,-256.62 694.5,-263.61"/>
</a>
</g>
</g>
<!-- Node25&#45;&gt;Node14 -->
<g id="edge52_Node000025_Node000014" class="edge">
<title>Node25&#45;&gt;Node14</title>
<g id="a_edge52_Node000025_Node000014"><a xlink:title=" ">
<path fill="none" stroke="#63b8ff" d="M727,-236.88C715.17,-218.72 695.17,-193.43 670,-182.38 632.95,-166.1 585.27,-179.59 557.15,-190.64"/>
<polygon fill="#63b8ff" stroke="#63b8ff" points="723.96,-238.63 732.2,-245.3 729.92,-234.95 723.96,-238.63"/>
</a>
</g>
</g>
<!-- Node26 -->
<g id="Node000026" class="node">
<title>Node26</title>
<g id="a_Node000026"><a xlink:href="app_8c.html#ad1be79736d98f29af0fb54c49f571e84" target="_top" xlink:title=" ">
<polygon fill="white" stroke="#666666" points="670,-211.75 602.25,-211.75 602.25,-191 670,-191 670,-211.75"/>
<text text-anchor="middle" x="636.12" y="-198.25" font-family="Helvetica,sans-Serif" font-size="10.00">w2c__f536</text>
</a>
</g>
</g>
<!-- Node25&#45;&gt;Node26 -->
<g id="edge49_Node000025_Node000026" class="edge">
<title>Node25&#45;&gt;Node26</title>
<g id="a_edge49_Node000025_Node000026"><a xlink:title=" ">
<path fill="none" stroke="#63b8ff" d="M709.3,-241.1C692.36,-231.78 671.59,-220.34 656.68,-212.14"/>
<polygon fill="#63b8ff" stroke="#63b8ff" points="707.48,-244.09 717.93,-245.85 710.86,-237.96 707.48,-244.09"/>
</a>
</g>
</g>
<!-- Node26&#45;&gt;Node14 -->
<g id="edge51_Node000026_Node000014" class="edge">
<title>Node26&#45;&gt;Node14</title>
<g id="a_edge51_Node000026_Node000014"><a xlink:title=" ">
<path fill="none" stroke="#63b8ff" d="M590.57,-201.38C582.46,-201.38 574.13,-201.38 566.42,-201.38"/>
<polygon fill="#63b8ff" stroke="#63b8ff" points="590.29,-204.88 600.29,-201.38 590.29,-197.88 590.29,-204.88"/>
</a>
</g>
</g>
<!-- Node26&#45;&gt;Node26 -->
<g id="edge50_Node000026_Node000026" class="edge">
<title>Node26&#45;&gt;Node26</title>
<g id="a_edge50_Node000026_Node000026"><a xlink:title=" ">
<path fill="none" stroke="#63b8ff" d="M654.16,-223.56C651.61,-227.23 645.6,-229.75 636.12,-229.75 618.29,-229.75 612.72,-220.81 619.41,-212.15"/>
<polygon fill="#63b8ff" stroke="#63b8ff" points="657.64,-223.18 653.02,-213.65 650.69,-223.99 657.64,-223.18"/>
</a>
</g>
</g>
</g>
</svg>
