<?xml version="1.0" encoding="UTF-8" standalone="no"?>
<!DOCTYPE svg PUBLIC "-//W3C//DTD SVG 1.1//EN"
 "http://www.w3.org/Graphics/SVG/1.1/DTD/svg11.dtd">
<!-- Generated by graphviz version 12.2.1 (0)
 -->
<!-- Title: w2c__f550 Pages: 1 -->
<svg width="682pt" height="146pt"
 viewBox="0.00 0.00 682.25 145.75" xmlns="http://www.w3.org/2000/svg" xmlns:xlink="http://www.w3.org/1999/xlink">
<g id="graph0" class="graph" transform="scale(1 1) rotate(0) translate(4 141.75)">
<title>w2c__f550</title>
<!-- Node1 -->
<g id="Node000001" class="node">
<title>Node1</title>
<g id="a_Node000001"><a xlink:title=" ">
<polygon fill="#999999" stroke="#666666" points="674.25,-97.75 606.5,-97.75 606.5,-77 674.25,-77 674.25,-97.75"/>
<text text-anchor="middle" x="640.38" y="-84.25" font-family="Helvetica,sans-Serif" font-size="10.00">w2c__f550</text>
</a>
</g>
</g>
<!-- Node2 -->
<g id="Node000002" class="node">
<title>Node2</title>
<g id="a_Node000002"><a xlink:href="app_8c.html#a45506e06eda9562930268a54b97cee66" target="_top" xlink:title=" ">
<polygon fill="white" stroke="#666666" points="466.75,-78.75 399,-78.75 399,-58 466.75,-58 466.75,-78.75"/>
<text text-anchor="middle" x="432.88" y="-65.25" font-family="Helvetica,sans-Serif" font-size="10.00">w2c__f226</text>
</a>
</g>
</g>
<!-- Node1&#45;&gt;Node2 -->
<g id="edge1_Node000001_Node000002" class="edge">
<title>Node1&#45;&gt;Node2</title>
<g id="a_edge1_Node000001_Node000002"><a xlink:title=" ">
<path fill="none" stroke="#63b8ff" d="M616.18,-104.51C603.41,-112.88 586.86,-122.07 570.5,-126.38 541.38,-134.05 530.41,-138.27 502.75,-126.38 481.38,-117.18 484.85,-102.99 466.75,-88.38 462.7,-85.1 458.06,-81.96 453.57,-79.19"/>
<polygon fill="#63b8ff" stroke="#63b8ff" points="618.04,-107.48 624.3,-98.94 614.07,-101.71 618.04,-107.48"/>
</a>
</g>
</g>
<!-- Node10 -->
<g id="Node000010" class="node">
<title>Node10</title>
<g id="a_Node000010"><a xlink:href="app_8c.html#a394a740d0ee99d169e65e45525e8930a" target="_top" xlink:title=" ">
<polygon fill="white" stroke="#666666" points="570.5,-39.75 502.75,-39.75 502.75,-19 570.5,-19 570.5,-39.75"/>
<text text-anchor="middle" x="536.62" y="-26.25" font-family="Helvetica,sans-Serif" font-size="10.00">w2c__f490</text>
</a>
</g>
</g>
<!-- Node1&#45;&gt;Node10 -->
<g id="edge9_Node000001_Node000010" class="edge">
<title>Node1&#45;&gt;Node10</title>
<g id="a_edge9_Node000001_Node000010"><a xlink:title=" ">
<path fill="none" stroke="#63b8ff" d="M611.06,-71.23C593.65,-61.31 571.83,-48.87 556.51,-40.14"/>
<polygon fill="#63b8ff" stroke="#63b8ff" points="608.98,-74.08 619.4,-75.99 612.44,-67.99 608.98,-74.08"/>
</a>
</g>
</g>
<!-- Node13 -->
<g id="Node000013" class="node">
<title>Node13</title>
<g id="a_Node000013"><a xlink:href="app_8c.html#ab16838b13b3b04803218f8829fdd28dd" target="_top" xlink:title=" ">
<polygon fill="white" stroke="#666666" points="570.5,-117.75 502.75,-117.75 502.75,-97 570.5,-97 570.5,-117.75"/>
<text text-anchor="middle" x="536.62" y="-104.25" font-family="Helvetica,sans-Serif" font-size="10.00">w2c__f535</text>
</a>
</g>
</g>
<!-- Node1&#45;&gt;Node13 -->
<g id="edge13_Node000001_Node000013" class="edge">
<title>Node1&#45;&gt;Node13</title>
<g id="a_edge13_Node000001_Node000013"><a xlink:title=" ">
<path fill="none" stroke="#63b8ff" d="M594.82,-96.13C586.71,-97.73 578.38,-99.37 570.67,-100.88"/>
<polygon fill="#63b8ff" stroke="#63b8ff" points="595.44,-99.58 604.57,-94.22 594.09,-92.71 595.44,-99.58"/>
</a>
</g>
</g>
<!-- Node16 -->
<g id="Node000016" class="node">
<title>Node16</title>
<g id="a_Node000016"><a xlink:href="app_8c.html#a84c07cd077c3fbaaaaad7e22afe6d686" target="_top" xlink:title=" ">
<polygon fill="white" stroke="#666666" points="570.5,-78.75 502.75,-78.75 502.75,-58 570.5,-58 570.5,-78.75"/>
<text text-anchor="middle" x="536.62" y="-65.25" font-family="Helvetica,sans-Serif" font-size="10.00">w2c__f577</text>
</a>
</g>
</g>
<!-- Node1&#45;&gt;Node16 -->
<g id="edge18_Node000001_Node000016" class="edge">
<title>Node1&#45;&gt;Node16</title>
<g id="a_edge18_Node000001_Node000016"><a xlink:title=" ">
<path fill="none" stroke="#63b8ff" d="M594.82,-79.06C586.71,-77.54 578.38,-75.98 570.67,-74.55"/>
<polygon fill="#63b8ff" stroke="#63b8ff" points="594.1,-82.48 604.57,-80.88 595.38,-75.6 594.1,-82.48"/>
</a>
</g>
</g>
<!-- Node3 -->
<g id="Node000003" class="node">
<title>Node3</title>
<g id="a_Node000003"><a xlink:href="app_8c.html#a7dc7d70793bae217b64eab580fce99cb" target="_top" xlink:title=" ">
<polygon fill="white" stroke="#666666" points="348.38,-98.75 280.62,-98.75 280.62,-78 348.38,-78 348.38,-98.75"/>
<text text-anchor="middle" x="314.5" y="-85.25" font-family="Helvetica,sans-Serif" font-size="10.00">w2c__f215</text>
</a>
</g>
</g>
<!-- Node2&#45;&gt;Node3 -->
<g id="edge2_Node000002_Node000003" class="edge">
<title>Node2&#45;&gt;Node3</title>
<g id="a_edge2_Node000002_Node000003"><a xlink:title=" ">
<path fill="none" stroke="#63b8ff" d="M387.55,-75.99C374.71,-78.2 360.91,-80.57 348.85,-82.64"/>
<polygon fill="#63b8ff" stroke="#63b8ff" points="387.77,-79.51 397.03,-74.36 386.59,-72.61 387.77,-79.51"/>
</a>
</g>
</g>
<!-- Node5 -->
<g id="Node000005" class="node">
<title>Node5</title>
<g id="a_Node000005"><a xlink:href="app_8c.html#afb3fbfc35abe0f21d554f326b79a0b76" target="_top" xlink:title=" ">
<polygon fill="white" stroke="#666666" points="348.38,-59.75 280.62,-59.75 280.62,-39 348.38,-39 348.38,-59.75"/>
<text text-anchor="middle" x="314.5" y="-46.25" font-family="Helvetica,sans-Serif" font-size="10.00">w2c__f494</text>
</a>
</g>
</g>
<!-- Node2&#45;&gt;Node5 -->
<g id="edge4_Node000002_Node000005" class="edge">
<title>Node2&#45;&gt;Node5</title>
<g id="a_edge4_Node000002_Node000005"><a xlink:title=" ">
<path fill="none" stroke="#63b8ff" d="M387.55,-61.14C374.71,-59.04 360.91,-56.79 348.85,-54.82"/>
<polygon fill="#63b8ff" stroke="#63b8ff" points="386.6,-64.53 397.03,-62.69 387.73,-57.62 386.6,-64.53"/>
</a>
</g>
</g>
<!-- Node4 -->
<g id="Node000004" class="node">
<title>Node4</title>
<g id="a_Node000004"><a xlink:href="app_8c.html#a7f65ba02075f2865f478747946b07c94" target="_top" xlink:title=" ">
<polygon fill="white" stroke="#666666" points="230,-98.75 133,-98.75 133,-78 230,-78 230,-98.75"/>
<text text-anchor="middle" x="181.5" y="-85.25" font-family="Helvetica,sans-Serif" font-size="10.00">wrap_w2c__f215</text>
</a>
</g>
</g>
<!-- Node3&#45;&gt;Node4 -->
<g id="edge3_Node000003_Node000004" class="edge">
<title>Node3&#45;&gt;Node4</title>
<g id="a_edge3_Node000003_Node000004"><a xlink:title=" ">
<path fill="none" stroke="#63b8ff" d="M268.95,-88.38C256.53,-88.38 243,-88.38 230.4,-88.38"/>
<polygon fill="#63b8ff" stroke="#63b8ff" points="268.93,-91.88 278.93,-88.38 268.93,-84.88 268.93,-91.88"/>
</a>
</g>
</g>
<!-- Node6 -->
<g id="Node000006" class="node">
<title>Node6</title>
<g id="a_Node000006"><a xlink:href="app_8c.html#a86ae468e235684021eadfdacd5cb9dba" target="_top" xlink:title=" ">
<polygon fill="white" stroke="#666666" points="215.38,-20.75 147.62,-20.75 147.62,0 215.38,0 215.38,-20.75"/>
<text text-anchor="middle" x="181.5" y="-7.25" font-family="Helvetica,sans-Serif" font-size="10.00">w2c__f452</text>
</a>
</g>
</g>
<!-- Node5&#45;&gt;Node6 -->
<g id="edge5_Node000005_Node000006" class="edge">
<title>Node5&#45;&gt;Node6</title>
<g id="a_edge5_Node000005_Node000006"><a xlink:title=" ">
<path fill="none" stroke="#63b8ff" d="M269.54,-36.29C251.9,-31.03 231.91,-25.09 215.55,-20.21"/>
<polygon fill="#63b8ff" stroke="#63b8ff" points="268.41,-39.6 278.99,-39.1 270.41,-32.89 268.41,-39.6"/>
</a>
</g>
</g>
<!-- Node8 -->
<g id="Node000008" class="node">
<title>Node8</title>
<g id="a_Node000008"><a xlink:href="app_8c.html#ad1dbc2afe7918517df3fc54838f07298" target="_top" xlink:title=" ">
<polygon fill="white" stroke="#666666" points="215.38,-59.75 147.62,-59.75 147.62,-39 215.38,-39 215.38,-59.75"/>
<text text-anchor="middle" x="181.5" y="-46.25" font-family="Helvetica,sans-Serif" font-size="10.00">w2c__f520</text>
</a>
</g>
</g>
<!-- Node5&#45;&gt;Node8 -->
<g id="edge7_Node000005_Node000008" class="edge">
<title>Node5&#45;&gt;Node8</title>
<g id="a_edge7_Node000005_Node000008"><a xlink:title=" ">
<path fill="none" stroke="#63b8ff" d="M269.03,-49.38C251.52,-49.38 231.76,-49.38 215.55,-49.38"/>
<polygon fill="#63b8ff" stroke="#63b8ff" points="268.93,-52.88 278.93,-49.38 268.93,-45.88 268.93,-52.88"/>
</a>
</g>
</g>
<!-- Node7 -->
<g id="Node000007" class="node">
<title>Node7</title>
<g id="a_Node000007"><a xlink:href="app_8c.html#a57ca4f801147f9325a0ea7cc2d7192c5" target="_top" xlink:title=" ">
<polygon fill="white" stroke="#666666" points="97,-20.75 0,-20.75 0,0 97,0 97,-20.75"/>
<text text-anchor="middle" x="48.5" y="-7.25" font-family="Helvetica,sans-Serif" font-size="10.00">wrap_w2c__f452</text>
</a>
</g>
</g>
<!-- Node6&#45;&gt;Node7 -->
<g id="edge6_Node000006_Node000007" class="edge">
<title>Node6&#45;&gt;Node7</title>
<g id="a_edge6_Node000006_Node000007"><a xlink:title=" ">
<path fill="none" stroke="#63b8ff" d="M135.95,-10.38C123.53,-10.38 110,-10.38 97.4,-10.38"/>
<polygon fill="#63b8ff" stroke="#63b8ff" points="135.93,-13.88 145.93,-10.38 135.93,-6.88 135.93,-13.88"/>
</a>
</g>
</g>
<!-- Node9 -->
<g id="Node000009" class="node">
<title>Node9</title>
<g id="a_Node000009"><a xlink:href="app_8c.html#a130f07b726020d1add9a7ed5178e023a" target="_top" xlink:title=" ">
<polygon fill="white" stroke="#666666" points="97,-59.75 0,-59.75 0,-39 97,-39 97,-59.75"/>
<text text-anchor="middle" x="48.5" y="-46.25" font-family="Helvetica,sans-Serif" font-size="10.00">wrap_w2c__f520</text>
</a>
</g>
</g>
<!-- Node8&#45;&gt;Node9 -->
<g id="edge8_Node000008_Node000009" class="edge">
<title>Node8&#45;&gt;Node9</title>
<g id="a_edge8_Node000008_Node000009"><a xlink:title=" ">
<path fill="none" stroke="#63b8ff" d="M135.95,-49.38C123.53,-49.38 110,-49.38 97.4,-49.38"/>
<polygon fill="#63b8ff" stroke="#63b8ff" points="135.93,-52.88 145.93,-49.38 135.93,-45.88 135.93,-52.88"/>
</a>
</g>
</g>
<!-- Node11 -->
<g id="Node000011" class="node">
<title>Node11</title>
<g id="a_Node000011"><a xlink:href="app_8c.html#a914de8ae6d6844da58f67a5021732dc8" target="_top" xlink:title=" ">
<polygon fill="white" stroke="#666666" points="466.75,-39.75 399,-39.75 399,-19 466.75,-19 466.75,-39.75"/>
<text text-anchor="middle" x="432.88" y="-26.25" font-family="Helvetica,sans-Serif" font-size="10.00">w2c__f201</text>
</a>
</g>
</g>
<!-- Node10&#45;&gt;Node11 -->
<g id="edge10_Node000010_Node000011" class="edge">
<title>Node10&#45;&gt;Node11</title>
<g id="a_edge10_Node000010_Node000011"><a xlink:title=" ">
<path fill="none" stroke="#63b8ff" d="M491.07,-29.38C482.96,-29.38 474.63,-29.38 466.92,-29.38"/>
<polygon fill="#63b8ff" stroke="#63b8ff" points="490.79,-32.88 500.79,-29.38 490.79,-25.88 490.79,-32.88"/>
</a>
</g>
</g>
<!-- Node11&#45;&gt;Node5 -->
<g id="edge11_Node000011_Node000005" class="edge">
<title>Node11&#45;&gt;Node5</title>
<g id="a_edge11_Node000011_Node000005"><a xlink:title=" ">
<path fill="none" stroke="#63b8ff" d="M387.55,-36.99C374.71,-39.2 360.91,-41.57 348.85,-43.64"/>
<polygon fill="#63b8ff" stroke="#63b8ff" points="387.77,-40.51 397.03,-35.36 386.59,-33.61 387.77,-40.51"/>
</a>
</g>
</g>
<!-- Node12 -->
<g id="Node000012" class="node">
<title>Node12</title>
<g id="a_Node000012"><a xlink:href="app_8c.html#ab3e987b2cec0279cc8c57f3f933a78bf" target="_top" xlink:title=" ">
<polygon fill="white" stroke="#666666" points="363,-20.75 266,-20.75 266,0 363,0 363,-20.75"/>
<text text-anchor="middle" x="314.5" y="-7.25" font-family="Helvetica,sans-Serif" font-size="10.00">wrap_w2c__f201</text>
</a>
</g>
</g>
<!-- Node11&#45;&gt;Node12 -->
<g id="edge12_Node000011_Node000012" class="edge">
<title>Node11&#45;&gt;Node12</title>
<g id="a_edge12_Node000011_Node000012"><a xlink:title=" ">
<path fill="none" stroke="#63b8ff" d="M387.28,-22.09C379.39,-20.81 371.14,-19.46 363.16,-18.16"/>
<polygon fill="#63b8ff" stroke="#63b8ff" points="386.6,-25.53 397.03,-23.69 387.73,-18.62 386.6,-25.53"/>
</a>
</g>
</g>
<!-- Node13&#45;&gt;Node11 -->
<g id="edge14_Node000013_Node000011" class="edge">
<title>Node13&#45;&gt;Node11</title>
<g id="a_edge14_Node000013_Node000011"><a xlink:title=" ">
<path fill="none" stroke="#63b8ff" d="M506.7,-90.4C505.34,-89.41 504.02,-88.4 502.75,-87.38 484.65,-72.76 484.85,-63.99 466.75,-49.38 462.7,-46.1 458.06,-42.96 453.57,-40.19"/>
<polygon fill="#63b8ff" stroke="#63b8ff" points="504.41,-93.08 514.67,-95.72 508.3,-87.26 504.41,-93.08"/>
</a>
</g>
</g>
<!-- Node14 -->
<g id="Node000014" class="node">
<title>Node14</title>
<g id="a_Node000014"><a xlink:href="app_8c.html#a526bc958417bd0d96a01739603b1d25e" target="_top" xlink:title=" ">
<polygon fill="white" stroke="#666666" points="466.75,-117.75 399,-117.75 399,-97 466.75,-97 466.75,-117.75"/>
<text text-anchor="middle" x="432.88" y="-104.25" font-family="Helvetica,sans-Serif" font-size="10.00">w2c__f563</text>
</a>
</g>
</g>
<!-- Node13&#45;&gt;Node14 -->
<g id="edge15_Node000013_Node000014" class="edge">
<title>Node13&#45;&gt;Node14</title>
<g id="a_edge15_Node000013_Node000014"><a xlink:title=" ">
<path fill="none" stroke="#63b8ff" d="M491.07,-107.38C482.96,-107.38 474.63,-107.38 466.92,-107.38"/>
<polygon fill="#63b8ff" stroke="#63b8ff" points="490.79,-110.88 500.79,-107.38 490.79,-103.88 490.79,-110.88"/>
</a>
</g>
</g>
<!-- Node14&#45;&gt;Node3 -->
<g id="edge16_Node000014_Node000003" class="edge">
<title>Node14&#45;&gt;Node3</title>
<g id="a_edge16_Node000014_Node000003"><a xlink:title=" ">
<path fill="none" stroke="#63b8ff" d="M387.55,-100.14C374.71,-98.04 360.91,-95.79 348.85,-93.82"/>
<polygon fill="#63b8ff" stroke="#63b8ff" points="386.6,-103.53 397.03,-101.69 387.73,-96.62 386.6,-103.53"/>
</a>
</g>
</g>
<!-- Node15 -->
<g id="Node000015" class="node">
<title>Node15</title>
<g id="a_Node000015"><a xlink:href="app_8c.html#a3adf955267103d847529368c1e3668d0" target="_top" xlink:title=" ">
<polygon fill="white" stroke="#666666" points="363,-137.75 266,-137.75 266,-117 363,-117 363,-137.75"/>
<text text-anchor="middle" x="314.5" y="-124.25" font-family="Helvetica,sans-Serif" font-size="10.00">wrap_w2c__f563</text>
</a>
</g>
</g>
<!-- Node14&#45;&gt;Node15 -->
<g id="edge17_Node000014_Node000015" class="edge">
<title>Node14&#45;&gt;Node15</title>
<g id="a_edge17_Node000014_Node000015"><a xlink:title=" ">
<path fill="none" stroke="#63b8ff" d="M387.28,-115.04C379.39,-116.4 371.14,-117.81 363.16,-119.18"/>
<polygon fill="#63b8ff" stroke="#63b8ff" points="387.77,-118.51 397.03,-113.36 386.59,-111.61 387.77,-118.51"/>
</a>
</g>
</g>
<!-- Node16&#45;&gt;Node2 -->
<g id="edge19_Node000016_Node000002" class="edge">
<title>Node16&#45;&gt;Node2</title>
<g id="a_edge19_Node000016_Node000002"><a xlink:title=" ">
<path fill="none" stroke="#63b8ff" d="M491.07,-68.38C482.96,-68.38 474.63,-68.38 466.92,-68.38"/>
<polygon fill="#63b8ff" stroke="#63b8ff" points="490.79,-71.88 500.79,-68.38 490.79,-64.88 490.79,-71.88"/>
</a>
</g>
</g>
</g>
</svg>
