<?xml version="1.0" encoding="UTF-8" standalone="no"?>
<!DOCTYPE svg PUBLIC "-//W3C//DTD SVG 1.1//EN"
 "http://www.w3.org/Graphics/SVG/1.1/DTD/svg11.dtd">
<!-- Generated by graphviz version 12.2.1 (0)
 -->
<!-- Title: w2c__f362 Pages: 1 -->
<svg width="886pt" height="224pt"
 viewBox="0.00 0.00 885.50 223.75" xmlns="http://www.w3.org/2000/svg" xmlns:xlink="http://www.w3.org/1999/xlink">
<g id="graph0" class="graph" transform="scale(1 1) rotate(0) translate(4 219.75)">
<title>w2c__f362</title>
<!-- Node1 -->
<g id="Node000001" class="node">
<title>Node1</title>
<g id="a_Node000001"><a xlink:title=" ">
<polygon fill="#999999" stroke="#666666" points="877.5,-177.75 809.75,-177.75 809.75,-157 877.5,-157 877.5,-177.75"/>
<text text-anchor="middle" x="843.62" y="-164.25" font-family="Helvetica,sans-Serif" font-size="10.00">w2c__f362</text>
</a>
</g>
</g>
<!-- Node2 -->
<g id="Node000002" class="node">
<title>Node2</title>
<g id="a_Node000002"><a xlink:href="app_8c.html#a077001e0590f3cc17d2d5222bebc7f9d" target="_top" xlink:title=" ">
<polygon fill="white" stroke="#666666" points="773.75,-177.75 706,-177.75 706,-157 773.75,-157 773.75,-177.75"/>
<text text-anchor="middle" x="739.88" y="-164.25" font-family="Helvetica,sans-Serif" font-size="10.00">w2c__f455</text>
</a>
</g>
</g>
<!-- Node1&#45;&gt;Node2 -->
<g id="edge1_Node000001_Node000002" class="edge">
<title>Node1&#45;&gt;Node2</title>
<g id="a_edge1_Node000001_Node000002"><a xlink:title=" ">
<path fill="none" stroke="#63b8ff" d="M798.07,-167.38C789.96,-167.38 781.63,-167.38 773.92,-167.38"/>
<polygon fill="#63b8ff" stroke="#63b8ff" points="797.79,-170.88 807.79,-167.38 797.79,-163.88 797.79,-170.88"/>
</a>
</g>
</g>
<!-- Node3 -->
<g id="Node000003" class="node">
<title>Node3</title>
<g id="a_Node000003"><a xlink:href="app_8c.html#a43f2817288a0de6b5bc140de0f0ceb7a" target="_top" xlink:title=" ">
<polygon fill="white" stroke="#666666" points="670,-211.75 602.25,-211.75 602.25,-191 670,-191 670,-211.75"/>
<text text-anchor="middle" x="636.12" y="-198.25" font-family="Helvetica,sans-Serif" font-size="10.00">w2c__f273</text>
</a>
</g>
</g>
<!-- Node2&#45;&gt;Node3 -->
<g id="edge2_Node000002_Node000003" class="edge">
<title>Node2&#45;&gt;Node3</title>
<g id="a_edge2_Node000002_Node000003"><a xlink:title=" ">
<path fill="none" stroke="#63b8ff" d="M695.62,-181.83C686.91,-184.74 677.9,-187.75 669.64,-190.51"/>
<polygon fill="#63b8ff" stroke="#63b8ff" points="696.59,-185.19 704.97,-178.71 694.37,-178.56 696.59,-185.19"/>
</a>
</g>
</g>
<!-- Node11 -->
<g id="Node000011" class="node">
<title>Node11</title>
<g id="a_Node000011"><a xlink:href="app_8c.html#a8e782c1e475253bfb6f6572258dd2dca" target="_top" xlink:title=" ">
<polygon fill="white" stroke="#666666" points="670,-149.75 602.25,-149.75 602.25,-129 670,-129 670,-149.75"/>
<text text-anchor="middle" x="636.12" y="-136.25" font-family="Helvetica,sans-Serif" font-size="10.00">w2c__f559</text>
</a>
</g>
</g>
<!-- Node2&#45;&gt;Node11 -->
<g id="edge10_Node000002_Node000011" class="edge">
<title>Node2&#45;&gt;Node11</title>
<g id="a_edge10_Node000002_Node000011"><a xlink:title=" ">
<path fill="none" stroke="#63b8ff" d="M694.6,-155.19C686.4,-152.93 677.96,-150.61 670.17,-148.47"/>
<polygon fill="#63b8ff" stroke="#63b8ff" points="693.53,-158.53 704.1,-157.81 695.39,-151.78 693.53,-158.53"/>
</a>
</g>
</g>
<!-- Node4 -->
<g id="Node000004" class="node">
<title>Node4</title>
<g id="a_Node000004"><a xlink:href="app_8c.html#aa3051a0f0feb078aee84a108594b3b11" target="_top" xlink:title=" ">
<polygon fill="white" stroke="#666666" points="566.25,-212.75 498.5,-212.75 498.5,-192 566.25,-192 566.25,-212.75"/>
<text text-anchor="middle" x="532.38" y="-199.25" font-family="Helvetica,sans-Serif" font-size="10.00">w2c__f245</text>
</a>
</g>
</g>
<!-- Node3&#45;&gt;Node4 -->
<g id="edge3_Node000003_Node000004" class="edge">
<title>Node3&#45;&gt;Node4</title>
<g id="a_edge3_Node000003_Node000004"><a xlink:title=" ">
<path fill="none" stroke="#63b8ff" d="M590.57,-201.81C582.46,-201.89 574.13,-201.97 566.42,-202.05"/>
<polygon fill="#63b8ff" stroke="#63b8ff" points="590.33,-205.32 600.29,-201.72 590.26,-198.32 590.33,-205.32"/>
</a>
</g>
</g>
<!-- Node5 -->
<g id="Node000005" class="node">
<title>Node5</title>
<g id="a_Node000005"><a xlink:href="app_8c.html#aac449994afd8488e2efd16fb19f0ecb1" target="_top" xlink:title=" ">
<polygon fill="white" stroke="#666666" points="358.75,-176.75 291,-176.75 291,-156 358.75,-156 358.75,-176.75"/>
<text text-anchor="middle" x="324.88" y="-163.25" font-family="Helvetica,sans-Serif" font-size="10.00">w2c__f336</text>
</a>
</g>
</g>
<!-- Node4&#45;&gt;Node5 -->
<g id="edge4_Node000004_Node000005" class="edge">
<title>Node4&#45;&gt;Node5</title>
<g id="a_edge4_Node000004_Node000005"><a xlink:title=" ">
<path fill="none" stroke="#63b8ff" d="M486.87,-195.68C460.12,-191.54 425.43,-185.96 394.75,-180.38 383.11,-178.25 370.4,-175.73 359.1,-173.41"/>
<polygon fill="#63b8ff" stroke="#63b8ff" points="486.27,-199.13 496.68,-197.19 487.33,-192.21 486.27,-199.13"/>
</a>
</g>
</g>
<!-- Node6 -->
<g id="Node000006" class="node">
<title>Node6</title>
<g id="a_Node000006"><a xlink:href="app_8c.html#ac863989691d4c389f80374209c220171" target="_top" xlink:title=" ">
<polygon fill="white" stroke="#666666" points="252.38,-215.75 189.88,-215.75 189.88,-195 252.38,-195 252.38,-215.75"/>
<text text-anchor="middle" x="221.12" y="-202.25" font-family="Helvetica,sans-Serif" font-size="10.00">w2c__c_0</text>
</a>
</g>
</g>
<!-- Node5&#45;&gt;Node6 -->
<g id="edge5_Node000005_Node000006" class="edge">
<title>Node5&#45;&gt;Node6</title>
<g id="a_edge5_Node000005_Node000006"><a xlink:title=" ">
<path fill="none" stroke="#63b8ff" d="M284.85,-181.33C273.35,-185.74 260.99,-190.48 250.32,-194.57"/>
<polygon fill="#63b8ff" stroke="#63b8ff" points="286.03,-184.63 294.12,-177.78 283.53,-178.09 286.03,-184.63"/>
</a>
</g>
</g>
<!-- Node8 -->
<g id="Node000008" class="node">
<title>Node8</title>
<g id="a_Node000008"><a xlink:href="app_8c.html#a8f312e54d76623b1ae169d5d19736ee0" target="_top" xlink:title=" ">
<polygon fill="white" stroke="#666666" points="255,-176.75 187.25,-176.75 187.25,-156 255,-156 255,-176.75"/>
<text text-anchor="middle" x="221.12" y="-163.25" font-family="Helvetica,sans-Serif" font-size="10.00">w2c__f363</text>
</a>
</g>
</g>
<!-- Node5&#45;&gt;Node8 -->
<g id="edge7_Node000005_Node000008" class="edge">
<title>Node5&#45;&gt;Node8</title>
<g id="a_edge7_Node000005_Node000008"><a xlink:title=" ">
<path fill="none" stroke="#63b8ff" d="M279.32,-166.38C271.21,-166.38 262.88,-166.38 255.17,-166.38"/>
<polygon fill="#63b8ff" stroke="#63b8ff" points="279.04,-169.88 289.04,-166.38 279.04,-162.88 279.04,-169.88"/>
</a>
</g>
</g>
<!-- Node7 -->
<g id="Node000007" class="node">
<title>Node7</title>
<g id="a_Node000007"><a xlink:href="app_8c.html#ab1e039392ea68017ab8a6063263b147d" target="_top" xlink:title=" ">
<polygon fill="white" stroke="#666666" points="145.25,-215.75 94,-215.75 94,-195 145.25,-195 145.25,-215.75"/>
<text text-anchor="middle" x="119.62" y="-202.25" font-family="Helvetica,sans-Serif" font-size="10.00">w2c__c</text>
</a>
</g>
</g>
<!-- Node6&#45;&gt;Node7 -->
<g id="edge6_Node000006_Node000007" class="edge">
<title>Node6&#45;&gt;Node7</title>
<g id="a_edge6_Node000006_Node000007"><a xlink:title=" ">
<path fill="none" stroke="#63b8ff" d="M178.21,-205.38C167.15,-205.38 155.55,-205.38 145.68,-205.38"/>
<polygon fill="#63b8ff" stroke="#63b8ff" points="177.95,-208.88 187.95,-205.38 177.95,-201.88 177.95,-208.88"/>
</a>
</g>
</g>
<!-- Node9 -->
<g id="Node000009" class="node">
<title>Node9</title>
<g id="a_Node000009"><a xlink:href="app_8c.html#a26657f10c51f10eeb57a4d27606a6885" target="_top" xlink:title=" ">
<polygon fill="white" stroke="#666666" points="151.25,-176.75 88,-176.75 88,-156 151.25,-156 151.25,-176.75"/>
<text text-anchor="middle" x="119.62" y="-163.25" font-family="Helvetica,sans-Serif" font-size="10.00">w2c__b_0</text>
</a>
</g>
</g>
<!-- Node8&#45;&gt;Node9 -->
<g id="edge8_Node000008_Node000009" class="edge">
<title>Node8&#45;&gt;Node9</title>
<g id="a_edge8_Node000008_Node000009"><a xlink:title=" ">
<path fill="none" stroke="#63b8ff" d="M175.71,-166.38C167.57,-166.38 159.23,-166.38 151.59,-166.38"/>
<polygon fill="#63b8ff" stroke="#63b8ff" points="175.48,-169.88 185.48,-166.38 175.48,-162.88 175.48,-169.88"/>
</a>
</g>
</g>
<!-- Node10 -->
<g id="Node000010" class="node">
<title>Node10</title>
<g id="a_Node000010"><a xlink:href="app_8c.html#a683a2045346c3209e9dac20d55933c7d" target="_top" xlink:title=" ">
<polygon fill="white" stroke="#666666" points="52,-176.75 0,-176.75 0,-156 52,-156 52,-176.75"/>
<text text-anchor="middle" x="26" y="-163.25" font-family="Helvetica,sans-Serif" font-size="10.00">w2c__b</text>
</a>
</g>
</g>
<!-- Node9&#45;&gt;Node10 -->
<g id="edge9_Node000009_Node000010" class="edge">
<title>Node9&#45;&gt;Node10</title>
<g id="a_edge9_Node000009_Node000010"><a xlink:title=" ">
<path fill="none" stroke="#63b8ff" d="M76.21,-166.38C68,-166.38 59.65,-166.38 52.21,-166.38"/>
<polygon fill="#63b8ff" stroke="#63b8ff" points="76.09,-169.88 86.09,-166.38 76.09,-162.88 76.09,-169.88"/>
</a>
</g>
</g>
<!-- Node11&#45;&gt;Node11 -->
<g id="edge21_Node000011_Node000011" class="edge">
<title>Node11&#45;&gt;Node11</title>
<g id="a_edge21_Node000011_Node000011"><a xlink:title=" ">
<path fill="none" stroke="#63b8ff" d="M654.16,-161.56C651.61,-165.23 645.6,-167.75 636.12,-167.75 618.29,-167.75 612.72,-158.81 619.41,-150.15"/>
<polygon fill="#63b8ff" stroke="#63b8ff" points="657.64,-161.18 653.02,-151.65 650.69,-161.99 657.64,-161.18"/>
</a>
</g>
</g>
<!-- Node12 -->
<g id="Node000012" class="node">
<title>Node12</title>
<g id="a_Node000012"><a xlink:href="app_8c.html#a2f5b5a93b5e6c79301b9b95b41c561bd" target="_top" xlink:title=" ">
<polygon fill="white" stroke="#666666" points="566.25,-140.75 498.5,-140.75 498.5,-120 566.25,-120 566.25,-140.75"/>
<text text-anchor="middle" x="532.38" y="-127.25" font-family="Helvetica,sans-Serif" font-size="10.00">w2c__f282</text>
</a>
</g>
</g>
<!-- Node11&#45;&gt;Node12 -->
<g id="edge11_Node000011_Node000012" class="edge">
<title>Node11&#45;&gt;Node12</title>
<g id="a_edge11_Node000011_Node000012"><a xlink:title=" ">
<path fill="none" stroke="#63b8ff" d="M590.57,-135.43C582.46,-134.72 574.13,-133.98 566.42,-133.3"/>
<polygon fill="#63b8ff" stroke="#63b8ff" points="590.03,-138.9 600.3,-136.29 590.65,-131.93 590.03,-138.9"/>
</a>
</g>
</g>
<!-- Node12&#45;&gt;Node5 -->
<g id="edge12_Node000012_Node000005" class="edge">
<title>Node12&#45;&gt;Node5</title>
<g id="a_edge12_Node000012_Node000005"><a xlink:title=" ">
<path fill="none" stroke="#63b8ff" d="M487.32,-141.97C479.1,-143.93 470.57,-145.82 462.5,-147.38 427.46,-154.12 386.93,-159.45 359.16,-162.73"/>
<polygon fill="#63b8ff" stroke="#63b8ff" points="487.9,-145.43 496.78,-139.65 486.23,-138.63 487.9,-145.43"/>
</a>
</g>
</g>
<!-- Node13 -->
<g id="Node000013" class="node">
<title>Node13</title>
<g id="a_Node000013"><a xlink:href="app_8c.html#aeab4e13658d5ad2b48b7d44acc8ceaf7" target="_top" xlink:title=" ">
<polygon fill="white" stroke="#666666" points="462.5,-138.75 394.75,-138.75 394.75,-118 462.5,-118 462.5,-138.75"/>
<text text-anchor="middle" x="428.62" y="-125.25" font-family="Helvetica,sans-Serif" font-size="10.00">w2c__f453</text>
</a>
</g>
</g>
<!-- Node12&#45;&gt;Node13 -->
<g id="edge13_Node000012_Node000013" class="edge">
<title>Node12&#45;&gt;Node13</title>
<g id="a_edge13_Node000012_Node000013"><a xlink:title=" ">
<path fill="none" stroke="#63b8ff" d="M486.82,-129.5C478.71,-129.34 470.38,-129.18 462.67,-129.02"/>
<polygon fill="#63b8ff" stroke="#63b8ff" points="486.48,-132.99 496.54,-129.69 486.62,-125.99 486.48,-132.99"/>
</a>
</g>
</g>
<!-- Node14 -->
<g id="Node000014" class="node">
<title>Node14</title>
<g id="a_Node000014"><a xlink:href="app_8c.html#a5623d4dbccf798b86433dae3f3d5983f" target="_top" xlink:title=" ">
<polygon fill="white" stroke="#666666" points="462.5,-99.75 394.75,-99.75 394.75,-79 462.5,-79 462.5,-99.75"/>
<text text-anchor="middle" x="428.62" y="-86.25" font-family="Helvetica,sans-Serif" font-size="10.00">w2c__f465</text>
</a>
</g>
</g>
<!-- Node12&#45;&gt;Node14 -->
<g id="edge14_Node000012_Node000014" class="edge">
<title>Node12&#45;&gt;Node14</title>
<g id="a_edge14_Node000012_Node000014"><a xlink:title=" ">
<path fill="none" stroke="#63b8ff" d="M494.09,-115.35C481.65,-110.34 468.03,-104.85 456.53,-100.22"/>
<polygon fill="#63b8ff" stroke="#63b8ff" points="492.65,-118.55 503.24,-119.04 495.27,-112.05 492.65,-118.55"/>
</a>
</g>
</g>
<!-- Node14&#45;&gt;Node5 -->
<g id="edge15_Node000014_Node000005" class="edge">
<title>Node14&#45;&gt;Node5</title>
<g id="a_edge15_Node000014_Node000005"><a xlink:title=" ">
<path fill="none" stroke="#63b8ff" d="M399.5,-106.11C397.88,-107.19 396.28,-108.28 394.75,-109.38 373.76,-124.32 351.03,-143.85 337.65,-155.74"/>
<polygon fill="#63b8ff" stroke="#63b8ff" points="401.06,-109.26 407.62,-100.94 397.3,-103.36 401.06,-109.26"/>
</a>
</g>
</g>
<!-- Node15 -->
<g id="Node000015" class="node">
<title>Node15</title>
<g id="a_Node000015"><a xlink:href="app_8c.html#a25b43587c2e4a3802eb8256f469ef5ab" target="_top" xlink:title=" ">
<polygon fill="white" stroke="#666666" points="358.75,-98.75 291,-98.75 291,-78 358.75,-78 358.75,-98.75"/>
<text text-anchor="middle" x="324.88" y="-85.25" font-family="Helvetica,sans-Serif" font-size="10.00">w2c__f531</text>
</a>
</g>
</g>
<!-- Node14&#45;&gt;Node15 -->
<g id="edge16_Node000014_Node000015" class="edge">
<title>Node14&#45;&gt;Node15</title>
<g id="a_edge16_Node000014_Node000015"><a xlink:title=" ">
<path fill="none" stroke="#63b8ff" d="M383.07,-88.94C374.96,-88.86 366.63,-88.78 358.92,-88.7"/>
<polygon fill="#63b8ff" stroke="#63b8ff" points="382.76,-92.43 392.79,-89.03 382.83,-85.43 382.76,-92.43"/>
</a>
</g>
</g>
<!-- Node16 -->
<g id="Node000016" class="node">
<title>Node16</title>
<g id="a_Node000016"><a xlink:href="app_8c.html#a9a9275782eb97e6525073f99d900b184" target="_top" xlink:title=" ">
<polygon fill="white" stroke="#666666" points="255,-137.75 187.25,-137.75 187.25,-117 255,-117 255,-137.75"/>
<text text-anchor="middle" x="221.12" y="-124.25" font-family="Helvetica,sans-Serif" font-size="10.00">w2c__f217</text>
</a>
</g>
</g>
<!-- Node15&#45;&gt;Node16 -->
<g id="edge17_Node000015_Node000016" class="edge">
<title>Node15&#45;&gt;Node16</title>
<g id="a_edge17_Node000015_Node000016"><a xlink:title=" ">
<path fill="none" stroke="#63b8ff" d="M284.85,-103.33C273.35,-107.74 260.99,-112.48 250.32,-116.57"/>
<polygon fill="#63b8ff" stroke="#63b8ff" points="286.03,-106.63 294.12,-99.78 283.53,-100.09 286.03,-106.63"/>
</a>
</g>
</g>
<!-- Node17 -->
<g id="Node000017" class="node">
<title>Node17</title>
<g id="a_Node000017"><a xlink:href="app_8c.html#a0b804502e637fa2897681579fae890af" target="_top" xlink:title=" ">
<polygon fill="white" stroke="#666666" points="255,-98.75 187.25,-98.75 187.25,-78 255,-78 255,-98.75"/>
<text text-anchor="middle" x="221.12" y="-85.25" font-family="Helvetica,sans-Serif" font-size="10.00">w2c__f233</text>
</a>
</g>
</g>
<!-- Node15&#45;&gt;Node17 -->
<g id="edge18_Node000015_Node000017" class="edge">
<title>Node15&#45;&gt;Node17</title>
<g id="a_edge18_Node000015_Node000017"><a xlink:title=" ">
<path fill="none" stroke="#63b8ff" d="M279.32,-88.38C271.21,-88.38 262.88,-88.38 255.17,-88.38"/>
<polygon fill="#63b8ff" stroke="#63b8ff" points="279.04,-91.88 289.04,-88.38 279.04,-84.88 279.04,-91.88"/>
</a>
</g>
</g>
<!-- Node18 -->
<g id="Node000018" class="node">
<title>Node18</title>
<g id="a_Node000018"><a xlink:href="app_8c.html#a13a282f739b6944dad1977039f3fadde" target="_top" xlink:title=" ">
<polygon fill="white" stroke="#666666" points="255,-59.75 187.25,-59.75 187.25,-39 255,-39 255,-59.75"/>
<text text-anchor="middle" x="221.12" y="-46.25" font-family="Helvetica,sans-Serif" font-size="10.00">w2c__f420</text>
</a>
</g>
</g>
<!-- Node15&#45;&gt;Node18 -->
<g id="edge19_Node000015_Node000018" class="edge">
<title>Node15&#45;&gt;Node18</title>
<g id="a_edge19_Node000015_Node000018"><a xlink:title=" ">
<path fill="none" stroke="#63b8ff" d="M284.85,-73.42C273.35,-69.01 260.99,-64.27 250.32,-60.18"/>
<polygon fill="#63b8ff" stroke="#63b8ff" points="283.53,-76.66 294.12,-76.97 286.03,-70.12 283.53,-76.66"/>
</a>
</g>
</g>
<!-- Node19 -->
<g id="Node000019" class="node">
<title>Node19</title>
<g id="a_Node000019"><a xlink:href="app_8c.html#a268eebcea573fce720709e588959d401" target="_top" xlink:title=" ">
<polygon fill="white" stroke="#666666" points="255,-20.75 187.25,-20.75 187.25,0 255,0 255,-20.75"/>
<text text-anchor="middle" x="221.12" y="-7.25" font-family="Helvetica,sans-Serif" font-size="10.00">w2c__f568</text>
</a>
</g>
</g>
<!-- Node15&#45;&gt;Node19 -->
<g id="edge20_Node000015_Node000019" class="edge">
<title>Node15&#45;&gt;Node19</title>
<g id="a_edge20_Node000015_Node000019"><a xlink:title=" ">
<path fill="none" stroke="#63b8ff" d="M303.71,-69.97C290.32,-58.12 272.12,-42.68 255,-30.38 250.55,-27.18 245.58,-23.98 240.88,-21.1"/>
<polygon fill="#63b8ff" stroke="#63b8ff" points="301.22,-72.45 311.01,-76.52 305.9,-67.24 301.22,-72.45"/>
</a>
</g>
</g>
</g>
</svg>
