<?xml version="1.0" encoding="UTF-8" standalone="no"?>
<!DOCTYPE svg PUBLIC "-//W3C//DTD SVG 1.1//EN"
 "http://www.w3.org/Graphics/SVG/1.1/DTD/svg11.dtd">
<!-- Generated by graphviz version 12.2.1 (0)
 -->
<!-- Title: w2c__f449 Pages: 1 -->
<svg width="698pt" height="249pt"
 viewBox="0.00 0.00 698.25 248.86" xmlns="http://www.w3.org/2000/svg" xmlns:xlink="http://www.w3.org/1999/xlink">
<g id="graph0" class="graph" transform="scale(1 1) rotate(0) translate(4 244.86)">
<title>w2c__f449</title>
<!-- Node1 -->
<g id="Node000001" class="node">
<title>Node1</title>
<g id="a_Node000001"><a xlink:title=" ">
<polygon fill="#999999" stroke="#666666" points="67.75,-88.86 0,-88.86 0,-68.11 67.75,-68.11 67.75,-88.86"/>
<text text-anchor="middle" x="33.88" y="-75.36" font-family="Helvetica,sans-Serif" font-size="10.00">w2c__f449</text>
</a>
</g>
</g>
<!-- Node2 -->
<g id="Node000002" class="node">
<title>Node2</title>
<g id="a_Node000002"><a xlink:href="app_8c.html#a9e35cf29f13f0582c262c07923f248c8" target="_top" xlink:title=" ">
<polygon fill="white" stroke="#666666" points="275.25,-240.86 207.5,-240.86 207.5,-220.11 275.25,-220.11 275.25,-240.86"/>
<text text-anchor="middle" x="241.38" y="-227.36" font-family="Helvetica,sans-Serif" font-size="10.00">w2c__f342</text>
</a>
</g>
</g>
<!-- Node1&#45;&gt;Node2 -->
<g id="edge1_Node000001_Node000002" class="edge">
<title>Node1&#45;&gt;Node2</title>
<g id="a_edge1_Node000001_Node000002"><a xlink:title=" ">
<path fill="none" stroke="#63b8ff" d="M42.84,-89.33C54.8,-105.08 78.65,-134.55 103.75,-154.49 135.32,-179.55 176.25,-201.12 205.05,-214.8"/>
<polygon fill="#63b8ff" stroke="#63b8ff" points="203.53,-217.96 214.07,-219.01 206.49,-211.61 203.53,-217.96"/>
</a>
</g>
</g>
<!-- Node4 -->
<g id="Node000004" class="node">
<title>Node4</title>
<g id="a_Node000004"><a xlink:href="app_8c.html#afc2ac3fdfa040a793033e3b175c15c33" target="_top" xlink:title=" ">
<polygon fill="white" stroke="#666666" points="171.5,-145.86 103.75,-145.86 103.75,-125.11 171.5,-125.11 171.5,-145.86"/>
<text text-anchor="middle" x="137.62" y="-132.36" font-family="Helvetica,sans-Serif" font-size="10.00">w2c__f432</text>
</a>
</g>
</g>
<!-- Node1&#45;&gt;Node4 -->
<g id="edge3_Node000001_Node000004" class="edge">
<title>Node1&#45;&gt;Node4</title>
<g id="a_edge3_Node000001_Node000004"><a xlink:title=" ">
<path fill="none" stroke="#63b8ff" d="M54.01,-89.21C69.12,-97.67 90.45,-109.62 107.65,-119.26"/>
<polygon fill="#63b8ff" stroke="#63b8ff" points="105.47,-122.05 115.91,-123.88 108.89,-115.94 105.47,-122.05"/>
</a>
</g>
</g>
<!-- Node9 -->
<g id="Node000009" class="node">
<title>Node9</title>
<g id="a_Node000009"><a xlink:href="app_8c.html#a800df00ef236c6d6affc3c661b37e3ad" target="_top" xlink:title=" ">
<polygon fill="white" stroke="#666666" points="586.5,-85.86 518.75,-85.86 518.75,-65.11 586.5,-65.11 586.5,-85.86"/>
<text text-anchor="middle" x="552.62" y="-72.36" font-family="Helvetica,sans-Serif" font-size="10.00">w2c__f487</text>
</a>
</g>
</g>
<!-- Node1&#45;&gt;Node9 -->
<g id="edge25_Node000001_Node000009" class="edge">
<title>Node1&#45;&gt;Node9</title>
<g id="a_edge25_Node000001_Node000009"><a xlink:title=" ">
<path fill="none" stroke="#63b8ff" d="M43.9,-67.85C56.01,-54.37 78.9,-31.55 103.75,-20.49 159.75,4.46 179.07,-1.49 240.38,-1.49 240.38,-1.49 240.38,-1.49 346.12,-1.49 413.54,-1.49 486.43,-37.18 524.68,-58.98"/>
<polygon fill="#63b8ff" stroke="#63b8ff" points="522.81,-61.94 533.21,-63.96 526.33,-55.9 522.81,-61.94"/>
</a>
</g>
</g>
<!-- Node11 -->
<g id="Node000011" class="node">
<title>Node11</title>
<g id="a_Node000011"><a xlink:href="app_8c.html#a0667cccf376bf5b828befc87965e1fd7" target="_top" xlink:title=" ">
<polygon fill="white" stroke="#666666" points="171.5,-49.86 103.75,-49.86 103.75,-29.11 171.5,-29.11 171.5,-49.86"/>
<text text-anchor="middle" x="137.62" y="-36.36" font-family="Helvetica,sans-Serif" font-size="10.00">w2c__f478</text>
</a>
</g>
</g>
<!-- Node1&#45;&gt;Node11 -->
<g id="edge12_Node000001_Node000011" class="edge">
<title>Node1&#45;&gt;Node11</title>
<g id="a_edge12_Node000001_Node000011"><a xlink:title=" ">
<path fill="none" stroke="#63b8ff" d="M63.22,-67.62C73.91,-63.52 86.27,-58.79 97.76,-54.38"/>
<polygon fill="#63b8ff" stroke="#63b8ff" points="98.94,-57.68 107.02,-50.83 96.43,-51.14 98.94,-57.68"/>
</a>
</g>
</g>
<!-- Node18 -->
<g id="Node000018" class="node">
<title>Node18</title>
<g id="a_Node000018"><a xlink:href="app_8c.html#a7a5deea6fbf3f8d1f367ccebf2a836e7" target="_top" xlink:title=" ">
<polygon fill="white" stroke="#666666" points="171.5,-88.86 103.75,-88.86 103.75,-68.11 171.5,-68.11 171.5,-88.86"/>
<text text-anchor="middle" x="137.62" y="-75.36" font-family="Helvetica,sans-Serif" font-size="10.00">w2c__f541</text>
</a>
</g>
</g>
<!-- Node1&#45;&gt;Node18 -->
<g id="edge26_Node000001_Node000018" class="edge">
<title>Node1&#45;&gt;Node18</title>
<g id="a_edge26_Node000001_Node000018"><a xlink:title=" ">
<path fill="none" stroke="#63b8ff" d="M68.19,-78.49C75.82,-78.49 84.06,-78.49 92.08,-78.49"/>
<polygon fill="#63b8ff" stroke="#63b8ff" points="92.07,-81.99 102.07,-78.49 92.07,-74.99 92.07,-81.99"/>
</a>
</g>
</g>
<!-- Node3 -->
<g id="Node000003" class="node">
<title>Node3</title>
<g id="a_Node000003"><a xlink:href="app_8c.html#a5d082dff6c4c25de25da9f4dc538c097" target="_top" xlink:title=" ">
<polygon fill="white" stroke="#666666" points="379,-240.86 311.25,-240.86 311.25,-220.11 379,-220.11 379,-240.86"/>
<text text-anchor="middle" x="345.12" y="-227.36" font-family="Helvetica,sans-Serif" font-size="10.00">w2c__f265</text>
</a>
</g>
</g>
<!-- Node2&#45;&gt;Node3 -->
<g id="edge2_Node000002_Node000003" class="edge">
<title>Node2&#45;&gt;Node3</title>
<g id="a_edge2_Node000002_Node000003"><a xlink:title=" ">
<path fill="none" stroke="#63b8ff" d="M275.69,-230.49C283.32,-230.49 291.56,-230.49 299.58,-230.49"/>
<polygon fill="#63b8ff" stroke="#63b8ff" points="299.57,-233.99 309.57,-230.49 299.57,-226.99 299.57,-233.99"/>
</a>
</g>
</g>
<!-- Node4&#45;&gt;Node2 -->
<g id="edge7_Node000004_Node000002" class="edge">
<title>Node4&#45;&gt;Node2</title>
<g id="a_edge7_Node000004_Node000002"><a xlink:title=" ">
<path fill="none" stroke="#63b8ff" d="M147.92,-146.14C160.69,-160.53 184.69,-186.66 207.5,-206.49 210,-208.66 212.69,-210.84 215.41,-212.96"/>
<polygon fill="#63b8ff" stroke="#63b8ff" points="213.25,-215.71 223.36,-218.87 217.42,-210.09 213.25,-215.71"/>
</a>
</g>
</g>
<!-- Node5 -->
<g id="Node000005" class="node">
<title>Node5</title>
<g id="a_Node000005"><a xlink:href="app_8c.html#a03fa34d93d32a3ee40dfc2d840730111" target="_top" xlink:title=" ">
<polygon fill="white" stroke="#666666" points="586.5,-202.86 518.75,-202.86 518.75,-182.11 586.5,-182.11 586.5,-202.86"/>
<text text-anchor="middle" x="552.62" y="-189.36" font-family="Helvetica,sans-Serif" font-size="10.00">w2c__f262</text>
</a>
</g>
</g>
<!-- Node4&#45;&gt;Node5 -->
<g id="edge4_Node000004_Node000005" class="edge">
<title>Node4&#45;&gt;Node5</title>
<g id="a_edge4_Node000004_Node000005"><a xlink:title=" ">
<path fill="none" stroke="#63b8ff" d="M163.23,-146.25C166.05,-147.62 168.85,-149.05 171.5,-150.49 188.18,-159.56 189.43,-167.66 207.5,-173.49 310.65,-206.74 440.1,-202.45 507,-197.09"/>
<polygon fill="#63b8ff" stroke="#63b8ff" points="507.18,-200.59 516.85,-196.25 506.59,-193.62 507.18,-200.59"/>
</a>
</g>
</g>
<!-- Node8 -->
<g id="Node000008" class="node">
<title>Node8</title>
<g id="a_Node000008"><a xlink:href="app_8c.html#af732b1ecf09ff688adde158c29714bcd" target="_top" xlink:title=" ">
<polygon fill="white" stroke="#666666" points="275.25,-164.86 207.5,-164.86 207.5,-144.11 275.25,-144.11 275.25,-164.86"/>
<text text-anchor="middle" x="241.38" y="-151.36" font-family="Helvetica,sans-Serif" font-size="10.00">w2c__f436</text>
</a>
</g>
</g>
<!-- Node4&#45;&gt;Node8 -->
<g id="edge8_Node000004_Node000008" class="edge">
<title>Node4&#45;&gt;Node8</title>
<g id="a_edge8_Node000004_Node000008"><a xlink:title=" ">
<path fill="none" stroke="#63b8ff" d="M171.94,-141.71C179.66,-143.15 188,-144.71 196.11,-146.22"/>
<polygon fill="#63b8ff" stroke="#63b8ff" points="195.37,-149.64 205.84,-148.04 196.66,-142.76 195.37,-149.64"/>
</a>
</g>
</g>
<!-- Node4&#45;&gt;Node9 -->
<g id="edge9_Node000004_Node000009" class="edge">
<title>Node4&#45;&gt;Node9</title>
<g id="a_edge9_Node000004_Node000009"><a xlink:title=" ">
<path fill="none" stroke="#63b8ff" d="M171.78,-126.59C206.35,-117.65 262.22,-104.13 311.25,-96.49 379.12,-85.9 458.67,-80.26 507.09,-77.57"/>
<polygon fill="#63b8ff" stroke="#63b8ff" points="507.09,-81.08 516.89,-77.05 506.72,-74.09 507.09,-81.08"/>
</a>
</g>
</g>
<!-- Node10 -->
<g id="Node000010" class="node">
<title>Node10</title>
<g id="a_Node000010"><a xlink:href="app_8c.html#a1b33810b824b3b37999b55db2c1fb45d" target="_top" xlink:title=" ">
<polygon fill="white" stroke="#666666" points="275.25,-88.86 207.5,-88.86 207.5,-68.11 275.25,-68.11 275.25,-88.86"/>
<text text-anchor="middle" x="241.38" y="-75.36" font-family="Helvetica,sans-Serif" font-size="10.00">w2c__f555</text>
</a>
</g>
</g>
<!-- Node4&#45;&gt;Node10 -->
<g id="edge11_Node000004_Node000010" class="edge">
<title>Node4&#45;&gt;Node10</title>
<g id="a_edge11_Node000004_Node000010"><a xlink:title=" ">
<path fill="none" stroke="#63b8ff" d="M157.76,-124.76C172.87,-116.3 194.2,-104.35 211.4,-94.72"/>
<polygon fill="#63b8ff" stroke="#63b8ff" points="212.64,-98.03 219.66,-90.09 209.22,-91.93 212.64,-98.03"/>
</a>
</g>
</g>
<!-- Node6 -->
<g id="Node000006" class="node">
<title>Node6</title>
<g id="a_Node000006"><a xlink:href="app_8c.html#a16207b5f7a97b0ecfddd231452c5aa7e" target="_top" xlink:title=" ">
<polygon fill="white" stroke="#666666" points="690.25,-202.86 622.5,-202.86 622.5,-182.11 690.25,-182.11 690.25,-202.86"/>
<text text-anchor="middle" x="656.38" y="-189.36" font-family="Helvetica,sans-Serif" font-size="10.00">w2c__f263</text>
</a>
</g>
</g>
<!-- Node5&#45;&gt;Node6 -->
<g id="edge5_Node000005_Node000006" class="edge">
<title>Node5&#45;&gt;Node6</title>
<g id="a_edge5_Node000005_Node000006"><a xlink:title=" ">
<path fill="none" stroke="#63b8ff" d="M586.94,-192.49C594.57,-192.49 602.81,-192.49 610.83,-192.49"/>
<polygon fill="#63b8ff" stroke="#63b8ff" points="610.82,-195.99 620.82,-192.49 610.82,-188.99 610.82,-195.99"/>
</a>
</g>
</g>
<!-- Node7 -->
<g id="Node000007" class="node">
<title>Node7</title>
<g id="a_Node000007"><a xlink:href="app_8c.html#a71bcbce7faf780cd081af3fa82d6da97" target="_top" xlink:title=" ">
<polygon fill="white" stroke="#666666" points="690.25,-163.86 622.5,-163.86 622.5,-143.11 690.25,-143.11 690.25,-163.86"/>
<text text-anchor="middle" x="656.38" y="-150.36" font-family="Helvetica,sans-Serif" font-size="10.00">w2c__f437</text>
</a>
</g>
</g>
<!-- Node5&#45;&gt;Node7 -->
<g id="edge6_Node000005_Node000007" class="edge">
<title>Node5&#45;&gt;Node7</title>
<g id="a_edge6_Node000005_Node000007"><a xlink:title=" ">
<path fill="none" stroke="#63b8ff" d="M581.97,-181.62C592.66,-177.52 605.02,-172.79 616.51,-168.38"/>
<polygon fill="#63b8ff" stroke="#63b8ff" points="617.69,-171.68 625.77,-164.83 615.18,-165.14 617.69,-171.68"/>
</a>
</g>
</g>
<!-- Node9&#45;&gt;Node7 -->
<g id="edge10_Node000009_Node000007" class="edge">
<title>Node9&#45;&gt;Node7</title>
<g id="a_edge10_Node000009_Node000007"><a xlink:title=" ">
<path fill="none" stroke="#63b8ff" d="M572.38,-86.21C577.08,-89.09 582.05,-92.29 586.5,-95.49 603.62,-107.79 621.82,-123.23 635.21,-135.08"/>
<polygon fill="#63b8ff" stroke="#63b8ff" points="632.72,-137.56 642.51,-141.63 637.4,-132.35 632.72,-137.56"/>
</a>
</g>
</g>
<!-- Node11&#45;&gt;Node10 -->
<g id="edge24_Node000011_Node000010" class="edge">
<title>Node11&#45;&gt;Node10</title>
<g id="a_edge24_Node000011_Node000010"><a xlink:title=" ">
<path fill="none" stroke="#63b8ff" d="M166.97,-50.35C177.66,-54.45 190.02,-59.19 201.51,-63.59"/>
<polygon fill="#63b8ff" stroke="#63b8ff" points="200.18,-66.83 210.77,-67.14 202.69,-60.29 200.18,-66.83"/>
</a>
</g>
</g>
<!-- Node12 -->
<g id="Node000012" class="node">
<title>Node12</title>
<g id="a_Node000012"><a xlink:href="app_8c.html#a6049b35fd4405e82b16fcf4c3b0a204f" target="_top" xlink:title=" ">
<polygon fill="white" stroke="#666666" points="275.25,-49.86 207.5,-49.86 207.5,-29.11 275.25,-29.11 275.25,-49.86"/>
<text text-anchor="middle" x="241.38" y="-36.36" font-family="Helvetica,sans-Serif" font-size="10.00">w2c__f512</text>
</a>
</g>
</g>
<!-- Node11&#45;&gt;Node12 -->
<g id="edge13_Node000011_Node000012" class="edge">
<title>Node11&#45;&gt;Node12</title>
<g id="a_edge13_Node000011_Node000012"><a xlink:title=" ">
<path fill="none" stroke="#63b8ff" d="M171.94,-39.49C179.57,-39.49 187.81,-39.49 195.83,-39.49"/>
<polygon fill="#63b8ff" stroke="#63b8ff" points="195.82,-42.99 205.82,-39.49 195.82,-35.99 195.82,-42.99"/>
</a>
</g>
</g>
<!-- Node13 -->
<g id="Node000013" class="node">
<title>Node13</title>
<g id="a_Node000013"><a xlink:href="app_8c.html#a14e021d2f1b59e04757852f66bff1044" target="_top" xlink:title=" ">
<polygon fill="white" stroke="#666666" points="379,-125.86 311.25,-125.86 311.25,-105.11 379,-105.11 379,-125.86"/>
<text text-anchor="middle" x="345.12" y="-112.36" font-family="Helvetica,sans-Serif" font-size="10.00">w2c__f511</text>
</a>
</g>
</g>
<!-- Node12&#45;&gt;Node13 -->
<g id="edge14_Node000012_Node000013" class="edge">
<title>Node12&#45;&gt;Node13</title>
<g id="a_edge14_Node000012_Node000013"><a xlink:title=" ">
<path fill="none" stroke="#63b8ff" d="M261.09,-50.27C265.79,-53.14 270.77,-56.33 275.25,-59.49 292.03,-71.33 310,-86.01 323.38,-97.38"/>
<polygon fill="#63b8ff" stroke="#63b8ff" points="320.82,-99.79 330.68,-103.65 325.38,-94.48 320.82,-99.79"/>
</a>
</g>
</g>
<!-- Node14 -->
<g id="Node000014" class="node">
<title>Node14</title>
<g id="a_Node000014"><a xlink:href="app_8c.html#aa58fd7f1d3aab8404d7f71d334a8a108" target="_top" xlink:title=" ">
<polygon fill="white" stroke="#666666" points="482.75,-164.86 415,-164.86 415,-144.11 482.75,-144.11 482.75,-164.86"/>
<text text-anchor="middle" x="448.88" y="-151.36" font-family="Helvetica,sans-Serif" font-size="10.00">w2c__f211</text>
</a>
</g>
</g>
<!-- Node13&#45;&gt;Node14 -->
<g id="edge15_Node000013_Node000014" class="edge">
<title>Node13&#45;&gt;Node14</title>
<g id="a_edge15_Node000013_Node000014"><a xlink:title=" ">
<path fill="none" stroke="#63b8ff" d="M374.47,-126.35C385.16,-130.45 397.52,-135.19 409.01,-139.59"/>
<polygon fill="#63b8ff" stroke="#63b8ff" points="407.68,-142.83 418.27,-143.14 410.19,-136.29 407.68,-142.83"/>
</a>
</g>
</g>
<!-- Node16 -->
<g id="Node000016" class="node">
<title>Node16</title>
<g id="a_Node000016"><a xlink:href="app_8c.html#a8c90e9acf2d5915eb0476bc13964c4db" target="_top" xlink:title=" ">
<polygon fill="white" stroke="#666666" points="482.75,-125.86 415,-125.86 415,-105.11 482.75,-105.11 482.75,-125.86"/>
<text text-anchor="middle" x="448.88" y="-112.36" font-family="Helvetica,sans-Serif" font-size="10.00">w2c__f345</text>
</a>
</g>
</g>
<!-- Node13&#45;&gt;Node16 -->
<g id="edge19_Node000013_Node000016" class="edge">
<title>Node13&#45;&gt;Node16</title>
<g id="a_edge19_Node000013_Node000016"><a xlink:title=" ">
<path fill="none" stroke="#63b8ff" d="M379.44,-115.49C387.07,-115.49 395.31,-115.49 403.33,-115.49"/>
<polygon fill="#63b8ff" stroke="#63b8ff" points="403.32,-118.99 413.32,-115.49 403.32,-111.99 403.32,-118.99"/>
</a>
</g>
</g>
<!-- Node14&#45;&gt;Node5 -->
<g id="edge16_Node000014_Node000005" class="edge">
<title>Node14&#45;&gt;Node5</title>
<g id="a_edge16_Node000014_Node000005"><a xlink:title=" ">
<path fill="none" stroke="#63b8ff" d="M478.76,-165.27C489.07,-169.12 500.88,-173.53 511.94,-177.66"/>
<polygon fill="#63b8ff" stroke="#63b8ff" points="510.66,-180.92 521.25,-181.14 513.11,-174.36 510.66,-180.92"/>
</a>
</g>
</g>
<!-- Node15 -->
<g id="Node000015" class="node">
<title>Node15</title>
<g id="a_Node000015"><a xlink:href="app_8c.html#a31b08a294227a9fc0a529e66ccd915dc" target="_top" xlink:title=" ">
<polygon fill="white" stroke="#666666" points="586.5,-163.86 518.75,-163.86 518.75,-143.11 586.5,-143.11 586.5,-163.86"/>
<text text-anchor="middle" x="552.62" y="-150.36" font-family="Helvetica,sans-Serif" font-size="10.00">w2c__f325</text>
</a>
</g>
</g>
<!-- Node14&#45;&gt;Node15 -->
<g id="edge17_Node000014_Node000015" class="edge">
<title>Node14&#45;&gt;Node15</title>
<g id="a_edge17_Node000014_Node000015"><a xlink:title=" ">
<path fill="none" stroke="#63b8ff" d="M483.19,-154.16C490.82,-154.08 499.06,-154 507.08,-153.92"/>
<polygon fill="#63b8ff" stroke="#63b8ff" points="507.1,-157.42 517.07,-153.83 507.03,-150.42 507.1,-157.42"/>
</a>
</g>
</g>
<!-- Node15&#45;&gt;Node7 -->
<g id="edge18_Node000015_Node000007" class="edge">
<title>Node15&#45;&gt;Node7</title>
<g id="a_edge18_Node000015_Node000007"><a xlink:title=" ">
<path fill="none" stroke="#63b8ff" d="M586.94,-153.49C594.57,-153.49 602.81,-153.49 610.83,-153.49"/>
<polygon fill="#63b8ff" stroke="#63b8ff" points="610.82,-156.99 620.82,-153.49 610.82,-149.99 610.82,-156.99"/>
</a>
</g>
</g>
<!-- Node16&#45;&gt;Node5 -->
<g id="edge20_Node000016_Node000005" class="edge">
<title>Node16&#45;&gt;Node5</title>
<g id="a_edge20_Node000016_Node000005"><a xlink:title=" ">
<path fill="none" stroke="#63b8ff" d="M469.54,-126.34C474.03,-129.11 478.67,-132.24 482.75,-135.49 500.69,-149.78 500.81,-158.19 518.75,-172.49 520.02,-173.5 521.35,-174.5 522.72,-175.49"/>
<polygon fill="#63b8ff" stroke="#63b8ff" points="520.43,-178.17 530.7,-180.8 524.31,-172.34 520.43,-178.17"/>
</a>
</g>
</g>
<!-- Node16&#45;&gt;Node9 -->
<g id="edge22_Node000016_Node000009" class="edge">
<title>Node16&#45;&gt;Node9</title>
<g id="a_edge22_Node000016_Node000009"><a xlink:title=" ">
<path fill="none" stroke="#63b8ff" d="M477.41,-104.66C488.49,-100.3 501.47,-95.2 513.44,-90.5"/>
<polygon fill="#63b8ff" stroke="#63b8ff" points="514.63,-93.79 522.66,-86.87 512.07,-87.27 514.63,-93.79"/>
</a>
</g>
</g>
<!-- Node16&#45;&gt;Node15 -->
<g id="edge21_Node000016_Node000015" class="edge">
<title>Node16&#45;&gt;Node15</title>
<g id="a_edge21_Node000016_Node000015"><a xlink:title=" ">
<path fill="none" stroke="#63b8ff" d="M478.76,-126.27C489.07,-130.12 500.88,-134.53 511.94,-138.66"/>
<polygon fill="#63b8ff" stroke="#63b8ff" points="510.66,-141.92 521.25,-142.14 513.11,-135.36 510.66,-141.92"/>
</a>
</g>
</g>
<!-- Node17 -->
<g id="Node000017" class="node">
<title>Node17</title>
<g id="a_Node000017"><a xlink:href="app_8c.html#a0e0dad0ebc52e45eeff2e1b5d8389ea4" target="_top" xlink:title=" ">
<polygon fill="white" stroke="#666666" points="586.5,-124.86 518.75,-124.86 518.75,-104.11 586.5,-104.11 586.5,-124.86"/>
<text text-anchor="middle" x="552.62" y="-111.36" font-family="Helvetica,sans-Serif" font-size="10.00">w2c__f534</text>
</a>
</g>
</g>
<!-- Node16&#45;&gt;Node17 -->
<g id="edge23_Node000016_Node000017" class="edge">
<title>Node16&#45;&gt;Node17</title>
<g id="a_edge23_Node000016_Node000017"><a xlink:title=" ">
<path fill="none" stroke="#63b8ff" d="M483.19,-115.16C490.82,-115.08 499.06,-115 507.08,-114.92"/>
<polygon fill="#63b8ff" stroke="#63b8ff" points="507.1,-118.42 517.07,-114.83 507.03,-111.42 507.1,-118.42"/>
</a>
</g>
</g>
<!-- Node18&#45;&gt;Node10 -->
<g id="edge28_Node000018_Node000010" class="edge">
<title>Node18&#45;&gt;Node10</title>
<g id="a_edge28_Node000018_Node000010"><a xlink:title=" ">
<path fill="none" stroke="#63b8ff" d="M171.94,-78.49C179.57,-78.49 187.81,-78.49 195.83,-78.49"/>
<polygon fill="#63b8ff" stroke="#63b8ff" points="195.82,-81.99 205.82,-78.49 195.82,-74.99 195.82,-81.99"/>
</a>
</g>
</g>
<!-- Node18&#45;&gt;Node12 -->
<g id="edge27_Node000018_Node000012" class="edge">
<title>Node18&#45;&gt;Node12</title>
<g id="a_edge27_Node000018_Node000012"><a xlink:title=" ">
<path fill="none" stroke="#63b8ff" d="M166.97,-67.62C177.66,-63.52 190.02,-58.79 201.51,-54.38"/>
<polygon fill="#63b8ff" stroke="#63b8ff" points="202.69,-57.68 210.77,-50.83 200.18,-51.14 202.69,-57.68"/>
</a>
</g>
</g>
</g>
</svg>
