<?xml version="1.0" encoding="UTF-8" standalone="no"?>
<!DOCTYPE svg PUBLIC "-//W3C//DTD SVG 1.1//EN"
 "http://www.w3.org/Graphics/SVG/1.1/DTD/svg11.dtd">
<!-- Generated by graphviz version 12.2.1 (0)
 -->
<!-- Title: w2c__f275 Pages: 1 -->
<svg width="595pt" height="293pt"
 viewBox="0.00 0.00 594.50 293.00" xmlns="http://www.w3.org/2000/svg" xmlns:xlink="http://www.w3.org/1999/xlink">
<g id="graph0" class="graph" transform="scale(1 1) rotate(0) translate(4 289)">
<title>w2c__f275</title>
<!-- Node1 -->
<g id="Node000001" class="node">
<title>Node1</title>
<g id="a_Node000001"><a xlink:title=" ">
<polygon fill="#999999" stroke="#666666" points="67.75,-143.38 0,-143.38 0,-122.62 67.75,-122.62 67.75,-143.38"/>
<text text-anchor="middle" x="33.88" y="-129.88" font-family="Helvetica,sans-Serif" font-size="10.00">w2c__f275</text>
</a>
</g>
</g>
<!-- Node1&#45;&gt;Node1 -->
<g id="edge2_Node000001_Node000001" class="edge">
<title>Node1&#45;&gt;Node1</title>
<g id="a_edge2_Node000001_Node000001"><a xlink:title=" ">
<path fill="none" stroke="#63b8ff" d="M17.16,-143.77C10.47,-152.43 16.04,-161.38 33.88,-161.38 43.35,-161.38 49.36,-158.85 51.91,-155.19"/>
<polygon fill="#63b8ff" stroke="#63b8ff" points="55.39,-154.81 50.77,-145.28 48.44,-155.61 55.39,-154.81"/>
</a>
</g>
</g>
<!-- Node2 -->
<g id="Node000002" class="node">
<title>Node2</title>
<g id="a_Node000002"><a xlink:href="app_8c.html#ada27c03ba7d63ebd616980bf581e1820" target="_top" xlink:title=" ">
<polygon fill="white" stroke="#666666" points="581.62,-276.38 523.62,-276.38 523.62,-255.62 581.62,-255.62 581.62,-276.38"/>
<text text-anchor="middle" x="552.62" y="-262.88" font-family="Helvetica,sans-Serif" font-size="10.00">w2c_0_9</text>
</a>
</g>
</g>
<!-- Node1&#45;&gt;Node2 -->
<g id="edge1_Node000001_Node000002" class="edge">
<title>Node1&#45;&gt;Node2</title>
<g id="a_edge1_Node000001_Node000002"><a xlink:title=" ">
<path fill="none" stroke="#63b8ff" d="M39.29,-143.56C48.38,-164.05 71.1,-209.46 103.75,-235 154.68,-274.84 175.71,-285 240.38,-285 240.38,-285 240.38,-285 346.12,-285 404.13,-285 470.96,-277.4 512.25,-271.81"/>
<polygon fill="#63b8ff" stroke="#63b8ff" points="512.52,-275.31 521.95,-270.47 511.56,-268.38 512.52,-275.31"/>
</a>
</g>
</g>
<!-- Node3 -->
<g id="Node000003" class="node">
<title>Node3</title>
<g id="a_Node000003"><a xlink:href="app_8c.html#a34d18545510c7604d64db5651af2a253" target="_top" xlink:title=" ">
<polygon fill="white" stroke="#666666" points="586.5,-58.38 518.75,-58.38 518.75,-37.62 586.5,-37.62 586.5,-58.38"/>
<text text-anchor="middle" x="552.62" y="-44.88" font-family="Helvetica,sans-Serif" font-size="10.00">w2c__f332</text>
</a>
</g>
</g>
<!-- Node1&#45;&gt;Node3 -->
<g id="edge3_Node000001_Node000003" class="edge">
<title>Node1&#45;&gt;Node3</title>
<g id="a_edge3_Node000001_Node000003"><a xlink:title=" ">
<path fill="none" stroke="#63b8ff" d="M43.02,-122.56C68.48,-91.21 150.28,0 240.38,0 240.38,0 240.38,0 346.12,0 405.57,0 472.21,-19.28 513.04,-33.4"/>
<polygon fill="#63b8ff" stroke="#63b8ff" points="511.83,-36.68 522.42,-36.72 514.17,-30.09 511.83,-36.68"/>
</a>
</g>
</g>
<!-- Node4 -->
<g id="Node000004" class="node">
<title>Node4</title>
<g id="a_Node000004"><a xlink:href="app_8c.html#af5a84f1aaefefdd67da679c5f4ece22d" target="_top" xlink:title=" ">
<polygon fill="white" stroke="#666666" points="482.75,-58.38 415,-58.38 415,-37.62 482.75,-37.62 482.75,-58.38"/>
<text text-anchor="middle" x="448.88" y="-44.88" font-family="Helvetica,sans-Serif" font-size="10.00">w2c__f370</text>
</a>
</g>
</g>
<!-- Node1&#45;&gt;Node4 -->
<g id="edge4_Node000001_Node000004" class="edge">
<title>Node1&#45;&gt;Node4</title>
<g id="a_edge4_Node000001_Node000004"><a xlink:title=" ">
<path fill="none" stroke="#63b8ff" d="M49.36,-122.28C62.76,-112.94 83.59,-99.86 103.75,-93 207.06,-57.83 336.45,-49.9 403.29,-48.27"/>
<polygon fill="#63b8ff" stroke="#63b8ff" points="403.2,-51.77 413.13,-48.07 403.06,-44.78 403.2,-51.77"/>
</a>
</g>
</g>
<!-- Node5 -->
<g id="Node000005" class="node">
<title>Node5</title>
<g id="a_Node000005"><a xlink:href="app_8c.html#aada8f3762f0960bddf55a2e59d8087f8" target="_top" xlink:title=" ">
<polygon fill="white" stroke="#666666" points="275.25,-181.38 207.5,-181.38 207.5,-160.62 275.25,-160.62 275.25,-181.38"/>
<text text-anchor="middle" x="241.38" y="-167.88" font-family="Helvetica,sans-Serif" font-size="10.00">w2c__f375</text>
</a>
</g>
</g>
<!-- Node1&#45;&gt;Node5 -->
<g id="edge6_Node000001_Node000005" class="edge">
<title>Node1&#45;&gt;Node5</title>
<g id="a_edge6_Node000001_Node000005"><a xlink:title=" ">
<path fill="none" stroke="#63b8ff" d="M67.89,-139.11C102.69,-145.54 157.7,-155.71 196.21,-162.83"/>
<polygon fill="#63b8ff" stroke="#63b8ff" points="195.14,-166.19 205.61,-164.57 196.41,-159.31 195.14,-166.19"/>
</a>
</g>
</g>
<!-- Node6 -->
<g id="Node000006" class="node">
<title>Node6</title>
<g id="a_Node000006"><a xlink:href="app_8c.html#a369480ebb798d5578ca00b16d6d2c658" target="_top" xlink:title=" ">
<polygon fill="white" stroke="#666666" points="379,-124.38 311.25,-124.38 311.25,-103.62 379,-103.62 379,-124.38"/>
<text text-anchor="middle" x="345.12" y="-110.88" font-family="Helvetica,sans-Serif" font-size="10.00">w2c__f446</text>
</a>
</g>
</g>
<!-- Node1&#45;&gt;Node6 -->
<g id="edge15_Node000001_Node000006" class="edge">
<title>Node1&#45;&gt;Node6</title>
<g id="a_edge15_Node000001_Node000006"><a xlink:title=" ">
<path fill="none" stroke="#63b8ff" d="M65.93,-122.24C111.67,-107.73 199.89,-84.8 275.25,-95 283.71,-96.15 292.6,-98.05 301.08,-100.22"/>
<polygon fill="#63b8ff" stroke="#63b8ff" points="299.89,-103.52 310.46,-102.79 301.73,-96.77 299.89,-103.52"/>
</a>
</g>
</g>
<!-- Node7 -->
<g id="Node000007" class="node">
<title>Node7</title>
<g id="a_Node000007"><a xlink:href="app_8c.html#a59744f5a084c0a1456224d40ac2611e7" target="_top" xlink:title=" ">
<polygon fill="white" stroke="#666666" points="482.75,-257.38 415,-257.38 415,-236.62 482.75,-236.62 482.75,-257.38"/>
<text text-anchor="middle" x="448.88" y="-243.88" font-family="Helvetica,sans-Serif" font-size="10.00">w2c__f468</text>
</a>
</g>
</g>
<!-- Node1&#45;&gt;Node7 -->
<g id="edge16_Node000001_Node000007" class="edge">
<title>Node1&#45;&gt;Node7</title>
<g id="a_edge16_Node000001_Node000007"><a xlink:title=" ">
<path fill="none" stroke="#63b8ff" d="M41.06,-143.84C51.51,-161 74.41,-194.01 103.75,-209 201.66,-259.01 335.34,-256.96 403.69,-251.71"/>
<polygon fill="#63b8ff" stroke="#63b8ff" points="403.69,-255.22 413.37,-250.9 403.11,-248.24 403.69,-255.22"/>
</a>
</g>
</g>
<!-- Node8 -->
<g id="Node000008" class="node">
<title>Node8</title>
<g id="a_Node000008"><a xlink:href="app_8c.html#a98b6c466c826c179b34e726bb6a4bebc" target="_top" xlink:title=" ">
<polygon fill="white" stroke="#666666" points="275.25,-124.38 207.5,-124.38 207.5,-103.62 275.25,-103.62 275.25,-124.38"/>
<text text-anchor="middle" x="241.38" y="-110.88" font-family="Helvetica,sans-Serif" font-size="10.00">w2c__f422</text>
</a>
</g>
</g>
<!-- Node1&#45;&gt;Node8 -->
<g id="edge12_Node000001_Node000008" class="edge">
<title>Node1&#45;&gt;Node8</title>
<g id="a_edge12_Node000001_Node000008"><a xlink:title=" ">
<path fill="none" stroke="#63b8ff" d="M67.89,-129.95C102.54,-126.74 157.23,-121.69 195.71,-118.13"/>
<polygon fill="#63b8ff" stroke="#63b8ff" points="195.96,-121.62 205.59,-117.22 195.31,-114.65 195.96,-121.62"/>
</a>
</g>
</g>
<!-- Node9 -->
<g id="Node000009" class="node">
<title>Node9</title>
<g id="a_Node000009"><a xlink:href="app_8c.html#ae4bb39cfb5a24045c9b864563ef76ba6" target="_top" xlink:title=" ">
<polygon fill="white" stroke="#666666" points="171.5,-200.38 103.75,-200.38 103.75,-179.62 171.5,-179.62 171.5,-200.38"/>
<text text-anchor="middle" x="137.62" y="-186.88" font-family="Helvetica,sans-Serif" font-size="10.00">w2c__f579</text>
</a>
</g>
</g>
<!-- Node1&#45;&gt;Node9 -->
<g id="edge17_Node000001_Node000009" class="edge">
<title>Node1&#45;&gt;Node9</title>
<g id="a_edge17_Node000001_Node000009"><a xlink:title=" ">
<path fill="none" stroke="#63b8ff" d="M54.01,-143.72C69.12,-152.19 90.45,-164.13 107.65,-173.77"/>
<polygon fill="#63b8ff" stroke="#63b8ff" points="105.47,-176.56 115.91,-178.39 108.89,-170.45 105.47,-176.56"/>
</a>
</g>
</g>
<!-- Node4&#45;&gt;Node3 -->
<g id="edge5_Node000004_Node000003" class="edge">
<title>Node4&#45;&gt;Node3</title>
<g id="a_edge5_Node000004_Node000003"><a xlink:title=" ">
<path fill="none" stroke="#63b8ff" d="M483.19,-48C490.82,-48 499.06,-48 507.08,-48"/>
<polygon fill="#63b8ff" stroke="#63b8ff" points="507.07,-51.5 517.07,-48 507.07,-44.5 507.07,-51.5"/>
</a>
</g>
</g>
<!-- Node5&#45;&gt;Node6 -->
<g id="edge7_Node000005_Node000006" class="edge">
<title>Node5&#45;&gt;Node6</title>
<g id="a_edge7_Node000005_Node000006"><a xlink:title=" ">
<path fill="none" stroke="#63b8ff" d="M261.51,-160.28C276.62,-151.81 297.95,-139.87 315.15,-130.23"/>
<polygon fill="#63b8ff" stroke="#63b8ff" points="316.39,-133.55 323.41,-125.61 312.97,-127.44 316.39,-133.55"/>
</a>
</g>
</g>
<!-- Node6&#45;&gt;Node3 -->
<g id="edge8_Node000006_Node000003" class="edge">
<title>Node6&#45;&gt;Node3</title>
<g id="a_edge8_Node000006_Node000003"><a xlink:title=" ">
<path fill="none" stroke="#63b8ff" d="M379.14,-103.4C413.94,-92.22 468.95,-74.55 507.46,-62.18"/>
<polygon fill="#63b8ff" stroke="#63b8ff" points="508.46,-65.54 516.91,-59.15 506.32,-58.88 508.46,-65.54"/>
</a>
</g>
</g>
<!-- Node6&#45;&gt;Node4 -->
<g id="edge9_Node000006_Node000004" class="edge">
<title>Node6&#45;&gt;Node4</title>
<g id="a_edge9_Node000006_Node000004"><a xlink:title=" ">
<path fill="none" stroke="#63b8ff" d="M362.47,-103.4C378.47,-93.02 403.1,-77.04 421.8,-64.91"/>
<polygon fill="#63b8ff" stroke="#63b8ff" points="423.47,-68 429.96,-59.62 419.67,-62.13 423.47,-68"/>
</a>
</g>
</g>
<!-- Node6&#45;&gt;Node7 -->
<g id="edge10_Node000006_Node000007" class="edge">
<title>Node6&#45;&gt;Node7</title>
<g id="a_edge10_Node000006_Node000007"><a xlink:title=" ">
<path fill="none" stroke="#63b8ff" d="M354.11,-124.44C371.04,-146.57 410.79,-198.52 432.7,-227.17"/>
<polygon fill="#63b8ff" stroke="#63b8ff" points="429.87,-229.23 438.73,-235.04 435.43,-224.97 429.87,-229.23"/>
</a>
</g>
</g>
<!-- Node7&#45;&gt;Node2 -->
<g id="edge11_Node000007_Node000002" class="edge">
<title>Node7&#45;&gt;Node2</title>
<g id="a_edge11_Node000007_Node000002"><a xlink:title=" ">
<path fill="none" stroke="#63b8ff" d="M483.19,-253.22C492.42,-254.94 502.53,-256.83 512.08,-258.62"/>
<polygon fill="#63b8ff" stroke="#63b8ff" points="511.39,-262.05 521.86,-260.44 512.67,-255.17 511.39,-262.05"/>
</a>
</g>
</g>
<!-- Node8&#45;&gt;Node6 -->
<g id="edge14_Node000008_Node000006" class="edge">
<title>Node8&#45;&gt;Node6</title>
<g id="a_edge14_Node000008_Node000006"><a xlink:title=" ">
<path fill="none" stroke="#63b8ff" d="M275.69,-114C283.32,-114 291.56,-114 299.58,-114"/>
<polygon fill="#63b8ff" stroke="#63b8ff" points="299.57,-117.5 309.57,-114 299.57,-110.5 299.57,-117.5"/>
</a>
</g>
</g>
<!-- Node8&#45;&gt;Node8 -->
<g id="edge13_Node000008_Node000008" class="edge">
<title>Node8&#45;&gt;Node8</title>
<g id="a_edge13_Node000008_Node000008"><a xlink:title=" ">
<path fill="none" stroke="#63b8ff" d="M224.66,-124.77C217.97,-133.43 223.54,-142.38 241.38,-142.38 250.85,-142.38 256.86,-139.85 259.41,-136.19"/>
<polygon fill="#63b8ff" stroke="#63b8ff" points="262.89,-135.81 258.27,-126.28 255.94,-136.61 262.89,-135.81"/>
</a>
</g>
</g>
<!-- Node9&#45;&gt;Node5 -->
<g id="edge18_Node000009_Node000005" class="edge">
<title>Node9&#45;&gt;Node5</title>
<g id="a_edge18_Node000009_Node000005"><a xlink:title=" ">
<path fill="none" stroke="#63b8ff" d="M171.94,-183.78C179.66,-182.34 188,-180.78 196.11,-179.27"/>
<polygon fill="#63b8ff" stroke="#63b8ff" points="196.66,-182.72 205.84,-177.45 195.37,-175.84 196.66,-182.72"/>
</a>
</g>
</g>
<!-- Node9&#45;&gt;Node6 -->
<g id="edge19_Node000009_Node000006" class="edge">
<title>Node9&#45;&gt;Node6</title>
<g id="a_edge19_Node000009_Node000006"><a xlink:title=" ">
<path fill="none" stroke="#63b8ff" d="M171.91,-197.28C200.58,-201.89 242.4,-204.56 275.25,-190 300.7,-178.72 320.75,-152.88 332.5,-134.46"/>
<polygon fill="#63b8ff" stroke="#63b8ff" points="335.48,-136.31 337.66,-125.94 329.49,-132.68 335.48,-136.31"/>
</a>
</g>
</g>
</g>
</svg>
