<?xml version="1.0" encoding="UTF-8" standalone="no"?>
<!DOCTYPE svg PUBLIC "-//W3C//DTD SVG 1.1//EN"
 "http://www.w3.org/Graphics/SVG/1.1/DTD/svg11.dtd">
<!-- Generated by graphviz version 12.2.1 (0)
 -->
<!-- Title: wrap_w2c__f401 Pages: 1 -->
<svg width="415pt" height="302pt"
 viewBox="0.00 0.00 414.75 301.75" xmlns="http://www.w3.org/2000/svg" xmlns:xlink="http://www.w3.org/1999/xlink">
<g id="graph0" class="graph" transform="scale(1 1) rotate(0) translate(4 297.75)">
<title>wrap_w2c__f401</title>
<!-- Node1 -->
<g id="Node000001" class="node">
<title>Node1</title>
<g id="a_Node000001"><a xlink:title=" ">
<polygon fill="#999999" stroke="#666666" points="97,-156.75 0,-156.75 0,-136 97,-136 97,-156.75"/>
<text text-anchor="middle" x="48.5" y="-143.25" font-family="Helvetica,sans-Serif" font-size="10.00">wrap_w2c__f401</text>
</a>
</g>
</g>
<!-- Node2 -->
<g id="Node000002" class="node">
<title>Node2</title>
<g id="a_Node000002"><a xlink:href="app_8c.html#aaf013b2b29372f4a479047d0c464d3ba" target="_top" xlink:title=" ">
<polygon fill="white" stroke="#666666" points="200.75,-156.75 133,-156.75 133,-136 200.75,-136 200.75,-156.75"/>
<text text-anchor="middle" x="166.88" y="-143.25" font-family="Helvetica,sans-Serif" font-size="10.00">w2c__f401</text>
</a>
</g>
</g>
<!-- Node1&#45;&gt;Node2 -->
<g id="edge1_Node000001_Node000002" class="edge">
<title>Node1&#45;&gt;Node2</title>
<g id="a_edge1_Node000001_Node000002"><a xlink:title=" ">
<path fill="none" stroke="#63b8ff" d="M97.17,-146.38C105.18,-146.38 113.47,-146.38 121.4,-146.38"/>
<polygon fill="#63b8ff" stroke="#63b8ff" points="121.17,-149.88 131.17,-146.38 121.17,-142.88 121.17,-149.88"/>
</a>
</g>
</g>
<!-- Node3 -->
<g id="Node000003" class="node">
<title>Node3</title>
<g id="a_Node000003"><a xlink:href="app_8c.html#add88601cb03b410d0c4bc8f456c3ae55" target="_top" xlink:title=" ">
<polygon fill="white" stroke="#666666" points="306.75,-293.75 236.75,-293.75 236.75,-273 306.75,-273 306.75,-293.75"/>
<text text-anchor="middle" x="271.75" y="-280.25" font-family="Helvetica,sans-Serif" font-size="10.00">w2c_0_104</text>
</a>
</g>
</g>
<!-- Node2&#45;&gt;Node3 -->
<g id="edge2_Node000002_Node000003" class="edge">
<title>Node2&#45;&gt;Node3</title>
<g id="a_edge2_Node000002_Node000003"><a xlink:title=" ">
<path fill="none" stroke="#63b8ff" d="M171.93,-156.92C180.83,-178.96 203.91,-230.55 236.75,-263.38 237.62,-264.25 238.54,-265.09 239.49,-265.92"/>
<polygon fill="#63b8ff" stroke="#63b8ff" points="237.34,-268.68 247.49,-271.74 241.47,-263.03 237.34,-268.68"/>
</a>
</g>
</g>
<!-- Node4 -->
<g id="Node000004" class="node">
<title>Node4</title>
<g id="a_Node000004"><a xlink:href="app_8c.html#a416a3f7003240b1a361323dbb3203bf8" target="_top" xlink:title=" ">
<polygon fill="white" stroke="#666666" points="306.75,-254.75 236.75,-254.75 236.75,-234 306.75,-234 306.75,-254.75"/>
<text text-anchor="middle" x="271.75" y="-241.25" font-family="Helvetica,sans-Serif" font-size="10.00">w2c_0_130</text>
</a>
</g>
</g>
<!-- Node2&#45;&gt;Node4 -->
<g id="edge3_Node000002_Node000004" class="edge">
<title>Node2&#45;&gt;Node4</title>
<g id="a_edge3_Node000002_Node000004"><a xlink:title=" ">
<path fill="none" stroke="#63b8ff" d="M175.65,-157.18C187.54,-173.19 211.52,-203.57 236.75,-224.38 238,-225.41 239.32,-226.42 240.67,-227.41"/>
<polygon fill="#63b8ff" stroke="#63b8ff" points="238.38,-230.1 248.65,-232.69 242.24,-224.26 238.38,-230.1"/>
</a>
</g>
</g>
<!-- Node5 -->
<g id="Node000005" class="node">
<title>Node5</title>
<g id="a_Node000005"><a xlink:href="app_8c.html#ae68178bc105b2d45ebe022d5f9bc03f7" target="_top" xlink:title=" ">
<polygon fill="white" stroke="#666666" points="306.75,-215.75 236.75,-215.75 236.75,-195 306.75,-195 306.75,-215.75"/>
<text text-anchor="middle" x="271.75" y="-202.25" font-family="Helvetica,sans-Serif" font-size="10.00">w2c_0_159</text>
</a>
</g>
</g>
<!-- Node2&#45;&gt;Node5 -->
<g id="edge4_Node000002_Node000005" class="edge">
<title>Node2&#45;&gt;Node5</title>
<g id="a_edge4_Node000002_Node000005"><a xlink:title=" ">
<path fill="none" stroke="#63b8ff" d="M186.74,-157.2C202.26,-166.1 224.49,-178.85 242.19,-189"/>
<polygon fill="#63b8ff" stroke="#63b8ff" points="240.27,-191.93 250.69,-193.87 243.75,-185.86 240.27,-191.93"/>
</a>
</g>
</g>
<!-- Node6 -->
<g id="Node000006" class="node">
<title>Node6</title>
<g id="a_Node000006"><a xlink:href="app_8c.html#af3b7c5a4a8f14b9383b243d8c06b1301" target="_top" xlink:title=" ">
<polygon fill="white" stroke="#666666" points="306.75,-176.75 236.75,-176.75 236.75,-156 306.75,-156 306.75,-176.75"/>
<text text-anchor="middle" x="271.75" y="-163.25" font-family="Helvetica,sans-Serif" font-size="10.00">w2c_0_172</text>
</a>
</g>
</g>
<!-- Node2&#45;&gt;Node6 -->
<g id="edge5_Node000002_Node000006" class="edge">
<title>Node2&#45;&gt;Node6</title>
<g id="a_edge5_Node000002_Node000006"><a xlink:title=" ">
<path fill="none" stroke="#63b8ff" d="M200.99,-152.81C208.66,-154.3 216.95,-155.92 225.04,-157.49"/>
<polygon fill="#63b8ff" stroke="#63b8ff" points="224.31,-160.91 234.79,-159.38 225.65,-154.04 224.31,-160.91"/>
</a>
</g>
</g>
<!-- Node7 -->
<g id="Node000007" class="node">
<title>Node7</title>
<g id="a_Node000007"><a xlink:href="app_8c.html#a413a166631157266d5dbee4d8d8164da" target="_top" xlink:title=" ">
<polygon fill="white" stroke="#666666" points="306.75,-137.75 236.75,-137.75 236.75,-117 306.75,-117 306.75,-137.75"/>
<text text-anchor="middle" x="271.75" y="-124.25" font-family="Helvetica,sans-Serif" font-size="10.00">w2c_0_182</text>
</a>
</g>
</g>
<!-- Node2&#45;&gt;Node7 -->
<g id="edge6_Node000002_Node000007" class="edge">
<title>Node2&#45;&gt;Node7</title>
<g id="a_edge6_Node000002_Node000007"><a xlink:title=" ">
<path fill="none" stroke="#63b8ff" d="M200.99,-140.26C208.66,-138.84 216.95,-137.31 225.04,-135.82"/>
<polygon fill="#63b8ff" stroke="#63b8ff" points="225.59,-139.27 234.79,-134.02 224.32,-132.39 225.59,-139.27"/>
</a>
</g>
</g>
<!-- Node8 -->
<g id="Node000008" class="node">
<title>Node8</title>
<g id="a_Node000008"><a xlink:href="app_8c.html#aa018dbf3bc5814e93cedb41f14e2b4d9" target="_top" xlink:title=" ">
<polygon fill="white" stroke="#666666" points="303.75,-98.75 239.75,-98.75 239.75,-78 303.75,-78 303.75,-98.75"/>
<text text-anchor="middle" x="271.75" y="-85.25" font-family="Helvetica,sans-Serif" font-size="10.00">w2c_0_19</text>
</a>
</g>
</g>
<!-- Node2&#45;&gt;Node8 -->
<g id="edge7_Node000002_Node000008" class="edge">
<title>Node2&#45;&gt;Node8</title>
<g id="a_edge7_Node000002_Node000008"><a xlink:title=" ">
<path fill="none" stroke="#63b8ff" d="M186.74,-135.74C202.16,-127.04 224.22,-114.61 241.86,-104.66"/>
<polygon fill="#63b8ff" stroke="#63b8ff" points="243.34,-107.85 250.33,-99.89 239.9,-101.75 243.34,-107.85"/>
</a>
</g>
</g>
<!-- Node9 -->
<g id="Node000009" class="node">
<title>Node9</title>
<g id="a_Node000009"><a xlink:href="app_8c.html#aec29ea126421b36c7ea313062dea6ec6" target="_top" xlink:title=" ">
<polygon fill="white" stroke="#666666" points="303.75,-59.75 239.75,-59.75 239.75,-39 303.75,-39 303.75,-59.75"/>
<text text-anchor="middle" x="271.75" y="-46.25" font-family="Helvetica,sans-Serif" font-size="10.00">w2c_0_35</text>
</a>
</g>
</g>
<!-- Node2&#45;&gt;Node9 -->
<g id="edge8_Node000002_Node000009" class="edge">
<title>Node2&#45;&gt;Node9</title>
<g id="a_edge8_Node000002_Node000009"><a xlink:title=" ">
<path fill="none" stroke="#63b8ff" d="M175.68,-135.72C187.61,-119.92 211.64,-89.95 236.75,-69.38 238.01,-68.34 239.33,-67.33 240.68,-66.35"/>
<polygon fill="#63b8ff" stroke="#63b8ff" points="242.25,-69.5 248.67,-61.07 238.39,-63.66 242.25,-69.5"/>
</a>
</g>
</g>
<!-- Node10 -->
<g id="Node000010" class="node">
<title>Node10</title>
<g id="a_Node000010"><a xlink:href="app_8c.html#a19209c6f5685e2e28a1b671ece901600" target="_top" xlink:title=" ">
<polygon fill="white" stroke="#666666" points="305.62,-20.75 237.88,-20.75 237.88,0 305.62,0 305.62,-20.75"/>
<text text-anchor="middle" x="271.75" y="-7.25" font-family="Helvetica,sans-Serif" font-size="10.00">w2c__f335</text>
</a>
</g>
</g>
<!-- Node2&#45;&gt;Node10 -->
<g id="edge9_Node000002_Node000010" class="edge">
<title>Node2&#45;&gt;Node10</title>
<g id="a_edge9_Node000002_Node000010"><a xlink:title=" ">
<path fill="none" stroke="#63b8ff" d="M172.09,-135.58C181.13,-113.56 204.22,-62.77 236.75,-30.38 237.62,-29.51 238.54,-28.66 239.5,-27.84"/>
<polygon fill="#63b8ff" stroke="#63b8ff" points="241.47,-30.73 247.5,-22.02 237.35,-25.07 241.47,-30.73"/>
</a>
</g>
</g>
<!-- Node11 -->
<g id="Node000011" class="node">
<title>Node11</title>
<g id="a_Node000011"><a xlink:href="app_8c.html#a84a707cc8c74624a4f1db785844c7211" target="_top" xlink:title=" ">
<polygon fill="white" stroke="#666666" points="406.75,-20.75 342.75,-20.75 342.75,0 406.75,0 406.75,-20.75"/>
<text text-anchor="middle" x="374.75" y="-7.25" font-family="Helvetica,sans-Serif" font-size="10.00">w2c_0_92</text>
</a>
</g>
</g>
<!-- Node10&#45;&gt;Node11 -->
<g id="edge10_Node000010_Node000011" class="edge">
<title>Node10&#45;&gt;Node11</title>
<g id="a_edge10_Node000010_Node000011"><a xlink:title=" ">
<path fill="none" stroke="#63b8ff" d="M306.1,-10.38C314.07,-10.38 322.68,-10.38 331.01,-10.38"/>
<polygon fill="#63b8ff" stroke="#63b8ff" points="330.97,-13.88 340.97,-10.38 330.97,-6.88 330.97,-13.88"/>
</a>
</g>
</g>
</g>
</svg>
