<?xml version="1.0" encoding="UTF-8" standalone="no"?>
<!DOCTYPE svg PUBLIC "-//W3C//DTD SVG 1.1//EN"
 "http://www.w3.org/Graphics/SVG/1.1/DTD/svg11.dtd">
<!-- Generated by graphviz version 12.2.1 (0)
 -->
<!-- Title: wrap_w2c__f467 Pages: 1 -->
<svg width="831pt" height="183pt"
 viewBox="0.00 0.00 831.25 182.75" xmlns="http://www.w3.org/2000/svg" xmlns:xlink="http://www.w3.org/1999/xlink">
<g id="graph0" class="graph" transform="scale(1 1) rotate(0) translate(4 178.75)">
<title>wrap_w2c__f467</title>
<!-- Node1 -->
<g id="Node000001" class="node">
<title>Node1</title>
<g id="a_Node000001"><a xlink:title=" ">
<polygon fill="#999999" stroke="#666666" points="97,-86.75 0,-86.75 0,-66 97,-66 97,-86.75"/>
<text text-anchor="middle" x="48.5" y="-73.25" font-family="Helvetica,sans-Serif" font-size="10.00">wrap_w2c__f467</text>
</a>
</g>
</g>
<!-- Node2 -->
<g id="Node000002" class="node">
<title>Node2</title>
<g id="a_Node000002"><a xlink:href="app_8c.html#af23f6c193d642848a6a7312a50699df7" target="_top" xlink:title=" ">
<polygon fill="white" stroke="#666666" points="200.75,-86.75 133,-86.75 133,-66 200.75,-66 200.75,-86.75"/>
<text text-anchor="middle" x="166.88" y="-73.25" font-family="Helvetica,sans-Serif" font-size="10.00">w2c__f467</text>
</a>
</g>
</g>
<!-- Node1&#45;&gt;Node2 -->
<g id="edge1_Node000001_Node000002" class="edge">
<title>Node1&#45;&gt;Node2</title>
<g id="a_edge1_Node000001_Node000002"><a xlink:title=" ">
<path fill="none" stroke="#63b8ff" d="M97.17,-76.38C105.18,-76.38 113.47,-76.38 121.4,-76.38"/>
<polygon fill="#63b8ff" stroke="#63b8ff" points="121.17,-79.88 131.17,-76.38 121.17,-72.88 121.17,-79.88"/>
</a>
</g>
</g>
<!-- Node3 -->
<g id="Node000003" class="node">
<title>Node3</title>
<g id="a_Node000003"><a xlink:href="app_8c.html#add194bffb67f2f62eef302d08ce41b47" target="_top" xlink:title=" ">
<polygon fill="white" stroke="#666666" points="304.5,-86.75 236.75,-86.75 236.75,-66 304.5,-66 304.5,-86.75"/>
<text text-anchor="middle" x="270.62" y="-73.25" font-family="Helvetica,sans-Serif" font-size="10.00">w2c__f266</text>
</a>
</g>
</g>
<!-- Node2&#45;&gt;Node3 -->
<g id="edge2_Node000002_Node000003" class="edge">
<title>Node2&#45;&gt;Node3</title>
<g id="a_edge2_Node000002_Node000003"><a xlink:title=" ">
<path fill="none" stroke="#63b8ff" d="M201.19,-76.38C208.82,-76.38 217.06,-76.38 225.08,-76.38"/>
<polygon fill="#63b8ff" stroke="#63b8ff" points="225.07,-79.88 235.07,-76.38 225.07,-72.88 225.07,-79.88"/>
</a>
</g>
</g>
<!-- Node4 -->
<g id="Node000004" class="node">
<title>Node4</title>
<g id="a_Node000004"><a xlink:href="app_8c.html#a21ef0a2981d5eabea48cff0e94f50365" target="_top" xlink:title=" ">
<polygon fill="white" stroke="#666666" points="408.25,-125.75 340.5,-125.75 340.5,-105 408.25,-105 408.25,-125.75"/>
<text text-anchor="middle" x="374.38" y="-112.25" font-family="Helvetica,sans-Serif" font-size="10.00">w2c__f381</text>
</a>
</g>
</g>
<!-- Node3&#45;&gt;Node4 -->
<g id="edge3_Node000003_Node000004" class="edge">
<title>Node3&#45;&gt;Node4</title>
<g id="a_edge3_Node000003_Node000004"><a xlink:title=" ">
<path fill="none" stroke="#63b8ff" d="M299.97,-87.24C310.66,-91.34 323.02,-96.08 334.51,-100.48"/>
<polygon fill="#63b8ff" stroke="#63b8ff" points="333.18,-103.72 343.77,-104.03 335.69,-97.18 333.18,-103.72"/>
</a>
</g>
</g>
<!-- Node13 -->
<g id="Node000013" class="node">
<title>Node13</title>
<g id="a_Node000013"><a xlink:href="app_8c.html#a674f6e81761467d0a8dc6d2a425eda9f" target="_top" xlink:title=" ">
<polygon fill="white" stroke="#666666" points="719.5,-20.75 651.75,-20.75 651.75,0 719.5,0 719.5,-20.75"/>
<text text-anchor="middle" x="685.62" y="-7.25" font-family="Helvetica,sans-Serif" font-size="10.00">w2c__f498</text>
</a>
</g>
</g>
<!-- Node3&#45;&gt;Node13 -->
<g id="edge18_Node000003_Node000013" class="edge">
<title>Node3&#45;&gt;Node13</title>
<g id="a_edge18_Node000003_Node000013"><a xlink:title=" ">
<path fill="none" stroke="#63b8ff" d="M304.69,-66.29C315.97,-63.11 328.71,-59.79 340.5,-57.38 447.21,-35.47 574.68,-21.08 640.47,-14.5"/>
<polygon fill="#63b8ff" stroke="#63b8ff" points="640.52,-18.01 650.13,-13.55 639.84,-11.05 640.52,-18.01"/>
</a>
</g>
</g>
<!-- Node14 -->
<g id="Node000014" class="node">
<title>Node14</title>
<g id="a_Node000014"><a xlink:href="app_8c.html#a4fd0a4cb4b78f7e4a76d64b8921bc5dc" target="_top" xlink:title=" ">
<polygon fill="white" stroke="#666666" points="408.25,-86.75 340.5,-86.75 340.5,-66 408.25,-66 408.25,-86.75"/>
<text text-anchor="middle" x="374.38" y="-73.25" font-family="Helvetica,sans-Serif" font-size="10.00">w2c__f574</text>
</a>
</g>
</g>
<!-- Node3&#45;&gt;Node14 -->
<g id="edge19_Node000003_Node000014" class="edge">
<title>Node3&#45;&gt;Node14</title>
<g id="a_edge19_Node000003_Node000014"><a xlink:title=" ">
<path fill="none" stroke="#63b8ff" d="M304.94,-76.38C312.57,-76.38 320.81,-76.38 328.83,-76.38"/>
<polygon fill="#63b8ff" stroke="#63b8ff" points="328.82,-79.88 338.82,-76.38 328.82,-72.88 328.82,-79.88"/>
</a>
</g>
</g>
<!-- Node5 -->
<g id="Node000005" class="node">
<title>Node5</title>
<g id="a_Node000005"><a xlink:href="app_8c.html#a1a8a1d528c65d63a630e19c3a4bdd098" target="_top" xlink:title=" ">
<polygon fill="white" stroke="#666666" points="512,-125.75 444.25,-125.75 444.25,-105 512,-105 512,-125.75"/>
<text text-anchor="middle" x="478.12" y="-112.25" font-family="Helvetica,sans-Serif" font-size="10.00">w2c__f557</text>
</a>
</g>
</g>
<!-- Node4&#45;&gt;Node5 -->
<g id="edge4_Node000004_Node000005" class="edge">
<title>Node4&#45;&gt;Node5</title>
<g id="a_edge4_Node000004_Node000005"><a xlink:title=" ">
<path fill="none" stroke="#63b8ff" d="M408.69,-115.38C416.32,-115.38 424.56,-115.38 432.58,-115.38"/>
<polygon fill="#63b8ff" stroke="#63b8ff" points="432.57,-118.88 442.57,-115.38 432.57,-111.88 432.57,-118.88"/>
</a>
</g>
</g>
<!-- Node6 -->
<g id="Node000006" class="node">
<title>Node6</title>
<g id="a_Node000006"><a xlink:href="app_8c.html#a0f7003812eaf983535ff7979fc047a21" target="_top" xlink:title=" ">
<polygon fill="white" stroke="#666666" points="615.75,-135.75 548,-135.75 548,-115 615.75,-115 615.75,-135.75"/>
<text text-anchor="middle" x="581.88" y="-122.25" font-family="Helvetica,sans-Serif" font-size="10.00">w2c__f353</text>
</a>
</g>
</g>
<!-- Node5&#45;&gt;Node6 -->
<g id="edge5_Node000005_Node000006" class="edge">
<title>Node5&#45;&gt;Node6</title>
<g id="a_edge5_Node000005_Node000006"><a xlink:title=" ">
<path fill="none" stroke="#63b8ff" d="M512.44,-118.65C520.16,-119.41 528.5,-120.23 536.61,-121.02"/>
<polygon fill="#63b8ff" stroke="#63b8ff" points="536.03,-124.48 546.32,-121.98 536.71,-117.52 536.03,-124.48"/>
</a>
</g>
</g>
<!-- Node11 -->
<g id="Node000011" class="node">
<title>Node11</title>
<g id="a_Node000011"><a xlink:href="app_8c.html#ac9cc84763a9c1933e50eedd7a06c17e2" target="_top" xlink:title=" ">
<polygon fill="white" stroke="#666666" points="615.75,-96.75 548,-96.75 548,-76 615.75,-76 615.75,-96.75"/>
<text text-anchor="middle" x="581.88" y="-83.25" font-family="Helvetica,sans-Serif" font-size="10.00">w2c__f480</text>
</a>
</g>
</g>
<!-- Node5&#45;&gt;Node11 -->
<g id="edge11_Node000005_Node000011" class="edge">
<title>Node5&#45;&gt;Node11</title>
<g id="a_edge11_Node000005_Node000011"><a xlink:title=" ">
<path fill="none" stroke="#63b8ff" d="M512.44,-105.88C520.25,-103.65 528.69,-101.25 536.89,-98.91"/>
<polygon fill="#63b8ff" stroke="#63b8ff" points="537.72,-102.31 546.38,-96.21 535.8,-95.58 537.72,-102.31"/>
</a>
</g>
</g>
<!-- Node7 -->
<g id="Node000007" class="node">
<title>Node7</title>
<g id="a_Node000007"><a xlink:href="app_8c.html#aaca5d5bcf49f2ca74019cf097750b9f3" target="_top" xlink:title=" ">
<polygon fill="white" stroke="#666666" points="719.5,-174.75 651.75,-174.75 651.75,-154 719.5,-154 719.5,-174.75"/>
<text text-anchor="middle" x="685.62" y="-161.25" font-family="Helvetica,sans-Serif" font-size="10.00">w2c__f258</text>
</a>
</g>
</g>
<!-- Node6&#45;&gt;Node7 -->
<g id="edge6_Node000006_Node000007" class="edge">
<title>Node6&#45;&gt;Node7</title>
<g id="a_edge6_Node000006_Node000007"><a xlink:title=" ">
<path fill="none" stroke="#63b8ff" d="M611.22,-136.24C621.91,-140.34 634.27,-145.08 645.76,-149.48"/>
<polygon fill="#63b8ff" stroke="#63b8ff" points="644.43,-152.72 655.02,-153.03 646.94,-146.18 644.43,-152.72"/>
</a>
</g>
</g>
<!-- Node10 -->
<g id="Node000010" class="node">
<title>Node10</title>
<g id="a_Node000010"><a xlink:href="app_8c.html#a4634342addbde677893ffcb45cf639dd" target="_top" xlink:title=" ">
<polygon fill="white" stroke="#666666" points="719.5,-135.75 651.75,-135.75 651.75,-115 719.5,-115 719.5,-135.75"/>
<text text-anchor="middle" x="685.62" y="-122.25" font-family="Helvetica,sans-Serif" font-size="10.00">w2c__f302</text>
</a>
</g>
</g>
<!-- Node6&#45;&gt;Node10 -->
<g id="edge9_Node000006_Node000010" class="edge">
<title>Node6&#45;&gt;Node10</title>
<g id="a_edge9_Node000006_Node000010"><a xlink:title=" ">
<path fill="none" stroke="#63b8ff" d="M616.19,-125.38C623.82,-125.38 632.06,-125.38 640.08,-125.38"/>
<polygon fill="#63b8ff" stroke="#63b8ff" points="640.07,-128.88 650.07,-125.38 640.07,-121.88 640.07,-128.88"/>
</a>
</g>
</g>
<!-- Node8 -->
<g id="Node000008" class="node">
<title>Node8</title>
<g id="a_Node000008"><a xlink:href="app_8c.html#a8d9f347f9a643f0ebfb53c4f54578ac4" target="_top" xlink:title=" ">
<polygon fill="white" stroke="#666666" points="823.25,-116.75 755.5,-116.75 755.5,-96 823.25,-96 823.25,-116.75"/>
<text text-anchor="middle" x="789.38" y="-103.25" font-family="Helvetica,sans-Serif" font-size="10.00">w2c__f304</text>
</a>
</g>
</g>
<!-- Node7&#45;&gt;Node8 -->
<g id="edge7_Node000007_Node000008" class="edge">
<title>Node7&#45;&gt;Node8</title>
<g id="a_edge7_Node000007_Node000008"><a xlink:title=" ">
<path fill="none" stroke="#63b8ff" d="M705.29,-153.74C720.54,-145.04 742.35,-132.61 759.8,-122.66"/>
<polygon fill="#63b8ff" stroke="#63b8ff" points="761.22,-125.88 768.17,-117.89 757.75,-119.8 761.22,-125.88"/>
</a>
</g>
</g>
<!-- Node9 -->
<g id="Node000009" class="node">
<title>Node9</title>
<g id="a_Node000009"><a xlink:href="app_8c.html#a881f0b113e93dce3ff52d04b435850f6" target="_top" xlink:title=" ">
<polygon fill="white" stroke="#666666" points="823.25,-174.75 755.5,-174.75 755.5,-154 823.25,-154 823.25,-174.75"/>
<text text-anchor="middle" x="789.38" y="-161.25" font-family="Helvetica,sans-Serif" font-size="10.00">w2c__f491</text>
</a>
</g>
</g>
<!-- Node7&#45;&gt;Node9 -->
<g id="edge8_Node000007_Node000009" class="edge">
<title>Node7&#45;&gt;Node9</title>
<g id="a_edge8_Node000007_Node000009"><a xlink:title=" ">
<path fill="none" stroke="#63b8ff" d="M719.94,-164.38C727.57,-164.38 735.81,-164.38 743.83,-164.38"/>
<polygon fill="#63b8ff" stroke="#63b8ff" points="743.82,-167.88 753.82,-164.38 743.82,-160.88 743.82,-167.88"/>
</a>
</g>
</g>
<!-- Node10&#45;&gt;Node8 -->
<g id="edge10_Node000010_Node000008" class="edge">
<title>Node10&#45;&gt;Node8</title>
<g id="a_edge10_Node000010_Node000008"><a xlink:title=" ">
<path fill="none" stroke="#63b8ff" d="M719.94,-119.15C727.66,-117.71 736,-116.16 744.11,-114.64"/>
<polygon fill="#63b8ff" stroke="#63b8ff" points="744.66,-118.1 753.84,-112.82 743.37,-111.22 744.66,-118.1"/>
</a>
</g>
</g>
<!-- Node11&#45;&gt;Node7 -->
<g id="edge14_Node000011_Node000007" class="edge">
<title>Node11&#45;&gt;Node7</title>
<g id="a_edge14_Node000011_Node000007"><a xlink:title=" ">
<path fill="none" stroke="#63b8ff" d="M602.57,-97.19C607.06,-99.96 611.7,-103.1 615.75,-106.38 633.85,-120.99 633.65,-129.76 651.75,-144.38 653.02,-145.4 654.34,-146.41 655.7,-147.4"/>
<polygon fill="#63b8ff" stroke="#63b8ff" points="653.41,-150.08 663.67,-152.72 657.3,-144.26 653.41,-150.08"/>
</a>
</g>
</g>
<!-- Node11&#45;&gt;Node8 -->
<g id="edge16_Node000011_Node000008" class="edge">
<title>Node11&#45;&gt;Node8</title>
<g id="a_edge16_Node000011_Node000008"><a xlink:title=" ">
<path fill="none" stroke="#63b8ff" d="M612.86,-75.5C640.82,-66.94 683.49,-57.89 719.5,-67.38 735.86,-71.68 752.41,-80.87 765.18,-89.24"/>
<polygon fill="#63b8ff" stroke="#63b8ff" points="763.07,-92.04 773.3,-94.81 767.04,-86.27 763.07,-92.04"/>
</a>
</g>
</g>
<!-- Node11&#45;&gt;Node10 -->
<g id="edge15_Node000011_Node000010" class="edge">
<title>Node11&#45;&gt;Node10</title>
<g id="a_edge15_Node000011_Node000010"><a xlink:title=" ">
<path fill="none" stroke="#63b8ff" d="M611.22,-97.24C621.91,-101.34 634.27,-106.08 645.76,-110.48"/>
<polygon fill="#63b8ff" stroke="#63b8ff" points="644.43,-113.72 655.02,-114.03 646.94,-107.18 644.43,-113.72"/>
</a>
</g>
</g>
<!-- Node12 -->
<g id="Node000012" class="node">
<title>Node12</title>
<g id="a_Node000012"><a xlink:href="app_8c.html#a0378208e0d5c0d1d6e7370f1c578fab3" target="_top" xlink:title=" ">
<polygon fill="white" stroke="#666666" points="719.5,-96.75 651.75,-96.75 651.75,-76 719.5,-76 719.5,-96.75"/>
<text text-anchor="middle" x="685.62" y="-83.25" font-family="Helvetica,sans-Serif" font-size="10.00">w2c__f216</text>
</a>
</g>
</g>
<!-- Node11&#45;&gt;Node12 -->
<g id="edge12_Node000011_Node000012" class="edge">
<title>Node11&#45;&gt;Node12</title>
<g id="a_edge12_Node000011_Node000012"><a xlink:title=" ">
<path fill="none" stroke="#63b8ff" d="M616.19,-86.38C623.82,-86.38 632.06,-86.38 640.08,-86.38"/>
<polygon fill="#63b8ff" stroke="#63b8ff" points="640.07,-89.88 650.07,-86.38 640.07,-82.88 640.07,-89.88"/>
</a>
</g>
</g>
<!-- Node11&#45;&gt;Node13 -->
<g id="edge17_Node000011_Node000013" class="edge">
<title>Node11&#45;&gt;Node13</title>
<g id="a_edge17_Node000011_Node000013"><a xlink:title=" ">
<path fill="none" stroke="#63b8ff" d="M597.07,-75.55C610.96,-64.99 632.74,-48.49 651.75,-34.38 654.61,-32.25 657.61,-30.04 660.6,-27.85"/>
<polygon fill="#63b8ff" stroke="#63b8ff" points="662.63,-30.7 668.64,-21.97 658.5,-25.05 662.63,-30.7"/>
</a>
</g>
</g>
<!-- Node12&#45;&gt;Node8 -->
<g id="edge13_Node000012_Node000008" class="edge">
<title>Node12&#45;&gt;Node8</title>
<g id="a_edge13_Node000012_Node000008"><a xlink:title=" ">
<path fill="none" stroke="#63b8ff" d="M719.94,-92.92C727.66,-94.44 736,-96.08 744.11,-97.67"/>
<polygon fill="#63b8ff" stroke="#63b8ff" points="743.36,-101.09 753.85,-99.59 744.71,-94.22 743.36,-101.09"/>
</a>
</g>
</g>
<!-- Node15 -->
<g id="Node000015" class="node">
<title>Node15</title>
<g id="a_Node000015"><a xlink:href="app_8c.html#ae7fb023a7298e99149ca1f090e524235" target="_top" xlink:title=" ">
<polygon fill="white" stroke="#666666" points="512,-86.75 444.25,-86.75 444.25,-66 512,-66 512,-86.75"/>
<text text-anchor="middle" x="478.12" y="-73.25" font-family="Helvetica,sans-Serif" font-size="10.00">w2c__f281</text>
</a>
</g>
</g>
<!-- Node14&#45;&gt;Node15 -->
<g id="edge20_Node000014_Node000015" class="edge">
<title>Node14&#45;&gt;Node15</title>
<g id="a_edge20_Node000014_Node000015"><a xlink:title=" ">
<path fill="none" stroke="#63b8ff" d="M408.69,-76.38C416.32,-76.38 424.56,-76.38 432.58,-76.38"/>
<polygon fill="#63b8ff" stroke="#63b8ff" points="432.57,-79.88 442.57,-76.38 432.57,-72.88 432.57,-79.88"/>
</a>
</g>
</g>
<!-- Node15&#45;&gt;Node11 -->
<g id="edge21_Node000015_Node000011" class="edge">
<title>Node15&#45;&gt;Node11</title>
<g id="a_edge21_Node000015_Node000011"><a xlink:title=" ">
<path fill="none" stroke="#63b8ff" d="M512.44,-79.65C520.16,-80.41 528.5,-81.23 536.61,-82.02"/>
<polygon fill="#63b8ff" stroke="#63b8ff" points="536.03,-85.48 546.32,-82.98 536.71,-78.52 536.03,-85.48"/>
</a>
</g>
</g>
</g>
</svg>
