<?xml version="1.0" encoding="UTF-8" standalone="no"?>
<!DOCTYPE svg PUBLIC "-//W3C//DTD SVG 1.1//EN"
 "http://www.w3.org/Graphics/SVG/1.1/DTD/svg11.dtd">
<!-- Generated by graphviz version 12.2.1 (0)
 -->
<!-- Title: w2c_0_70 Pages: 1 -->
<svg width="383pt" height="134pt"
 viewBox="0.00 0.00 383.25 133.75" xmlns="http://www.w3.org/2000/svg" xmlns:xlink="http://www.w3.org/1999/xlink">
<g id="graph0" class="graph" transform="scale(1 1) rotate(0) translate(4 129.75)">
<title>w2c_0_70</title>
<!-- Node1 -->
<g id="Node000001" class="node">
<title>Node1</title>
<g id="a_Node000001"><a xlink:title=" ">
<polygon fill="#999999" stroke="#666666" points="375.25,-77.75 311.25,-77.75 311.25,-57 375.25,-57 375.25,-77.75"/>
<text text-anchor="middle" x="343.25" y="-64.25" font-family="Helvetica,sans-Serif" font-size="10.00">w2c_0_70</text>
</a>
</g>
</g>
<!-- Node2 -->
<g id="Node000002" class="node">
<title>Node2</title>
<g id="a_Node000002"><a xlink:href="app_8c.html#a980a551daeb256397f01e6faa91d49db" target="_top" xlink:title=" ">
<polygon fill="white" stroke="#666666" points="171.5,-125.75 103.75,-125.75 103.75,-105 171.5,-105 171.5,-125.75"/>
<text text-anchor="middle" x="137.62" y="-112.25" font-family="Helvetica,sans-Serif" font-size="10.00">w2c__f403</text>
</a>
</g>
</g>
<!-- Node1&#45;&gt;Node2 -->
<g id="edge1_Node000001_Node000002" class="edge">
<title>Node1&#45;&gt;Node2</title>
<g id="a_edge1_Node000001_Node000002"><a xlink:title=" ">
<path fill="none" stroke="#63b8ff" d="M318.23,-84.46C305.96,-92.26 290.45,-100.77 275.25,-105.38 241.11,-115.73 200.07,-117.38 171.94,-116.98"/>
<polygon fill="#63b8ff" stroke="#63b8ff" points="320.04,-87.46 326.43,-79.01 316.16,-81.63 320.04,-87.46"/>
</a>
</g>
</g>
<!-- Node3 -->
<g id="Node000003" class="node">
<title>Node3</title>
<g id="a_Node000003"><a xlink:href="app_8c.html#aaf060205e2633da24de46e4de36d2ec3" target="_top" xlink:title=" ">
<polygon fill="white" stroke="#666666" points="275.25,-96.75 207.5,-96.75 207.5,-76 275.25,-76 275.25,-96.75"/>
<text text-anchor="middle" x="241.38" y="-83.25" font-family="Helvetica,sans-Serif" font-size="10.00">w2c__f417</text>
</a>
</g>
</g>
<!-- Node1&#45;&gt;Node3 -->
<g id="edge2_Node000001_Node000003" class="edge">
<title>Node1&#45;&gt;Node3</title>
<g id="a_edge2_Node000001_Node000003"><a xlink:title=" ">
<path fill="none" stroke="#63b8ff" d="M299.79,-75.45C291.72,-76.99 283.39,-78.57 275.66,-80.04"/>
<polygon fill="#63b8ff" stroke="#63b8ff" points="300.27,-78.92 309.44,-73.62 298.96,-72.05 300.27,-78.92"/>
</a>
</g>
</g>
<!-- Node4 -->
<g id="Node000004" class="node">
<title>Node4</title>
<g id="a_Node000004"><a xlink:href="app_8c.html#a96302817f96aee4b42b2d1383eb34b00" target="_top" xlink:title=" ">
<polygon fill="white" stroke="#666666" points="171.5,-77.75 103.75,-77.75 103.75,-57 171.5,-57 171.5,-77.75"/>
<text text-anchor="middle" x="137.62" y="-64.25" font-family="Helvetica,sans-Serif" font-size="10.00">w2c__f462</text>
</a>
</g>
</g>
<!-- Node1&#45;&gt;Node4 -->
<g id="edge7_Node000001_Node000004" class="edge">
<title>Node1&#45;&gt;Node4</title>
<g id="a_edge7_Node000001_Node000004"><a xlink:title=" ">
<path fill="none" stroke="#63b8ff" d="M299.65,-67.38C261.58,-67.38 206.58,-67.38 171.72,-67.38"/>
<polygon fill="#63b8ff" stroke="#63b8ff" points="299.37,-70.88 309.37,-67.38 299.37,-63.88 299.37,-70.88"/>
</a>
</g>
</g>
<!-- Node7 -->
<g id="Node000007" class="node">
<title>Node7</title>
<g id="a_Node000007"><a xlink:href="app_8c.html#a2c3365dd42361e00ddd0f3f0b4787e6c" target="_top" xlink:title=" ">
<polygon fill="white" stroke="#666666" points="275.25,-20.75 207.5,-20.75 207.5,0 275.25,0 275.25,-20.75"/>
<text text-anchor="middle" x="241.38" y="-7.25" font-family="Helvetica,sans-Serif" font-size="10.00">w2c__f514</text>
</a>
</g>
</g>
<!-- Node1&#45;&gt;Node7 -->
<g id="edge8_Node000001_Node000007" class="edge">
<title>Node1&#45;&gt;Node7</title>
<g id="a_edge8_Node000001_Node000007"><a xlink:title=" ">
<path fill="none" stroke="#63b8ff" d="M313.63,-51.04C296.87,-41.48 276.18,-29.67 261.42,-21.24"/>
<polygon fill="#63b8ff" stroke="#63b8ff" points="311.73,-53.99 322.15,-55.9 315.2,-47.91 311.73,-53.99"/>
</a>
</g>
</g>
<!-- Node3&#45;&gt;Node2 -->
<g id="edge3_Node000003_Node000002" class="edge">
<title>Node3&#45;&gt;Node2</title>
<g id="a_edge3_Node000003_Node000002"><a xlink:title=" ">
<path fill="none" stroke="#63b8ff" d="M196.1,-98.99C187.9,-101.33 179.46,-103.74 171.67,-105.96"/>
<polygon fill="#63b8ff" stroke="#63b8ff" points="196.95,-102.39 205.6,-96.29 195.03,-95.66 196.95,-102.39"/>
</a>
</g>
</g>
<!-- Node3&#45;&gt;Node4 -->
<g id="edge4_Node000003_Node000004" class="edge">
<title>Node3&#45;&gt;Node4</title>
<g id="a_edge4_Node000003_Node000004"><a xlink:title=" ">
<path fill="none" stroke="#63b8ff" d="M195.82,-78.06C187.71,-76.54 179.38,-74.98 171.67,-73.55"/>
<polygon fill="#63b8ff" stroke="#63b8ff" points="195.1,-81.48 205.57,-79.88 196.38,-74.6 195.1,-81.48"/>
</a>
</g>
</g>
<!-- Node5 -->
<g id="Node000005" class="node">
<title>Node5</title>
<g id="a_Node000005"><a xlink:href="app_8c.html#a1581df0bdfa942524e0a5dce91fd6b8e" target="_top" xlink:title=" ">
<polygon fill="white" stroke="#666666" points="67.75,-96.75 0,-96.75 0,-76 67.75,-76 67.75,-96.75"/>
<text text-anchor="middle" x="33.88" y="-83.25" font-family="Helvetica,sans-Serif" font-size="10.00">w2c__f253</text>
</a>
</g>
</g>
<!-- Node4&#45;&gt;Node5 -->
<g id="edge5_Node000004_Node000005" class="edge">
<title>Node4&#45;&gt;Node5</title>
<g id="a_edge5_Node000004_Node000005"><a xlink:title=" ">
<path fill="none" stroke="#63b8ff" d="M92.07,-75.69C83.96,-77.21 75.63,-78.77 67.92,-80.2"/>
<polygon fill="#63b8ff" stroke="#63b8ff" points="92.63,-79.15 101.82,-73.87 91.35,-72.27 92.63,-79.15"/>
</a>
</g>
</g>
<!-- Node6 -->
<g id="Node000006" class="node">
<title>Node6</title>
<g id="a_Node000006"><a xlink:href="app_8c.html#a05d83e696cfaa26355c9732ee9ea4cd0" target="_top" xlink:title=" ">
<polygon fill="white" stroke="#666666" points="67.75,-57.75 0,-57.75 0,-37 67.75,-37 67.75,-57.75"/>
<text text-anchor="middle" x="33.88" y="-44.25" font-family="Helvetica,sans-Serif" font-size="10.00">w2c__f454</text>
</a>
</g>
</g>
<!-- Node4&#45;&gt;Node6 -->
<g id="edge6_Node000004_Node000006" class="edge">
<title>Node4&#45;&gt;Node6</title>
<g id="a_edge6_Node000004_Node000006"><a xlink:title=" ">
<path fill="none" stroke="#63b8ff" d="M92.07,-58.62C83.96,-57.02 75.63,-55.38 67.92,-53.87"/>
<polygon fill="#63b8ff" stroke="#63b8ff" points="91.34,-62.04 101.82,-60.53 92.69,-55.17 91.34,-62.04"/>
</a>
</g>
</g>
<!-- Node8 -->
<g id="Node000008" class="node">
<title>Node8</title>
<g id="a_Node000008"><a xlink:href="app_8c.html#a54e1f71ca172ed4d04bf3165e2c50b94" target="_top" xlink:title=" ">
<polygon fill="white" stroke="#666666" points="171.5,-20.75 103.75,-20.75 103.75,0 171.5,0 171.5,-20.75"/>
<text text-anchor="middle" x="137.62" y="-7.25" font-family="Helvetica,sans-Serif" font-size="10.00">w2c__f326</text>
</a>
</g>
</g>
<!-- Node7&#45;&gt;Node8 -->
<g id="edge9_Node000007_Node000008" class="edge">
<title>Node7&#45;&gt;Node8</title>
<g id="a_edge9_Node000007_Node000008"><a xlink:title=" ">
<path fill="none" stroke="#63b8ff" d="M195.82,-10.38C187.71,-10.38 179.38,-10.38 171.67,-10.38"/>
<polygon fill="#63b8ff" stroke="#63b8ff" points="195.54,-13.88 205.54,-10.38 195.54,-6.88 195.54,-13.88"/>
</a>
</g>
</g>
</g>
</svg>
