<?xml version="1.0" encoding="UTF-8" standalone="no"?>
<!DOCTYPE svg PUBLIC "-//W3C//DTD SVG 1.1//EN"
 "http://www.w3.org/Graphics/SVG/1.1/DTD/svg11.dtd">
<!-- Generated by graphviz version 12.2.1 (0)
 -->
<!-- Title: w2c_0_124 Pages: 1 -->
<svg width="597pt" height="458pt"
 viewBox="0.00 0.00 596.75 457.90" xmlns="http://www.w3.org/2000/svg" xmlns:xlink="http://www.w3.org/1999/xlink">
<g id="graph0" class="graph" transform="scale(1 1) rotate(0) translate(4 453.9)">
<title>w2c_0_124</title>
<!-- Node1 -->
<g id="Node000001" class="node">
<title>Node1</title>
<g id="a_Node000001"><a xlink:title=" ">
<polygon fill="#999999" stroke="#666666" points="588.75,-321.59 518.75,-321.59 518.75,-300.84 588.75,-300.84 588.75,-321.59"/>
<text text-anchor="middle" x="553.75" y="-308.09" font-family="Helvetica,sans-Serif" font-size="10.00">w2c_0_124</text>
</a>
</g>
</g>
<!-- Node2 -->
<g id="Node000002" class="node">
<title>Node2</title>
<g id="a_Node000002"><a xlink:href="app_8c.html#a918c90a4a3c46eadddbec5bb9396768f" target="_top" xlink:title=" ">
<polygon fill="white" stroke="#666666" points="482.75,-417.59 415,-417.59 415,-396.84 482.75,-396.84 482.75,-417.59"/>
<text text-anchor="middle" x="448.88" y="-404.09" font-family="Helvetica,sans-Serif" font-size="10.00">w2c__f281</text>
</a>
</g>
</g>
<!-- Node1&#45;&gt;Node2 -->
<g id="edge1_Node000001_Node000002" class="edge">
<title>Node1&#45;&gt;Node2</title>
<g id="a_edge1_Node000001_Node000002"><a xlink:title=" ">
<path fill="none" stroke="#63b8ff" d="M533.04,-329.61C511.79,-349.44 478.66,-380.35 461.33,-396.53"/>
<polygon fill="#63b8ff" stroke="#63b8ff" points="535.32,-332.27 540.24,-322.89 530.54,-327.15 535.32,-332.27"/>
</a>
</g>
</g>
<!-- Node9 -->
<g id="Node000009" class="node">
<title>Node9</title>
<g id="a_Node000009"><a xlink:href="app_8c.html#a784c7bcd456646f7617b48d827af12e3" target="_top" xlink:title=" ">
<polygon fill="white" stroke="#666666" points="482.75,-244.59 415,-244.59 415,-223.84 482.75,-223.84 482.75,-244.59"/>
<text text-anchor="middle" x="448.88" y="-231.09" font-family="Helvetica,sans-Serif" font-size="10.00">w2c__f473</text>
</a>
</g>
</g>
<!-- Node1&#45;&gt;Node9 -->
<g id="edge10_Node000001_Node000009" class="edge">
<title>Node1&#45;&gt;Node9</title>
<g id="a_edge10_Node000001_Node000009"><a xlink:title=" ">
<path fill="none" stroke="#63b8ff" d="M529.38,-293.72C509.4,-278.77 481.28,-257.72 464.39,-245.08"/>
<polygon fill="#63b8ff" stroke="#63b8ff" points="527.13,-296.41 537.23,-299.6 531.33,-290.81 527.13,-296.41"/>
</a>
</g>
</g>
<!-- Node3 -->
<g id="Node000003" class="node">
<title>Node3</title>
<g id="a_Node000003"><a xlink:href="app_8c.html#a23410de0f8905b2c8e88eede0c2817bf" target="_top" xlink:title=" ">
<polygon fill="white" stroke="#666666" points="379,-378.59 311.25,-378.59 311.25,-357.84 379,-357.84 379,-378.59"/>
<text text-anchor="middle" x="345.12" y="-365.09" font-family="Helvetica,sans-Serif" font-size="10.00">w2c__f274</text>
</a>
</g>
</g>
<!-- Node2&#45;&gt;Node3 -->
<g id="edge2_Node000002_Node000003" class="edge">
<title>Node2&#45;&gt;Node3</title>
<g id="a_edge2_Node000002_Node000003"><a xlink:title=" ">
<path fill="none" stroke="#63b8ff" d="M408.85,-392.26C397.35,-387.85 384.99,-383.12 374.32,-379.02"/>
<polygon fill="#63b8ff" stroke="#63b8ff" points="407.53,-395.5 418.12,-395.81 410.03,-388.97 407.53,-395.5"/>
</a>
</g>
</g>
<!-- Node5 -->
<g id="Node000005" class="node">
<title>Node5</title>
<g id="a_Node000005"><a xlink:href="app_8c.html#a980a551daeb256397f01e6faa91d49db" target="_top" xlink:title=" ">
<polygon fill="white" stroke="#666666" points="171.5,-320.59 103.75,-320.59 103.75,-299.84 171.5,-299.84 171.5,-320.59"/>
<text text-anchor="middle" x="137.62" y="-307.09" font-family="Helvetica,sans-Serif" font-size="10.00">w2c__f403</text>
</a>
</g>
</g>
<!-- Node2&#45;&gt;Node5 -->
<g id="edge8_Node000002_Node000005" class="edge">
<title>Node2&#45;&gt;Node5</title>
<g id="a_edge8_Node000002_Node000005"><a xlink:title=" ">
<path fill="none" stroke="#63b8ff" d="M407.14,-421.13C379.72,-428.5 342.92,-434.47 311.25,-426.22 240.67,-407.83 173.99,-346.24 149.01,-321.07"/>
<polygon fill="#63b8ff" stroke="#63b8ff" points="407.8,-424.58 416.45,-418.46 405.87,-417.86 407.8,-424.58"/>
</a>
</g>
</g>
<!-- Node6 -->
<g id="Node000006" class="node">
<title>Node6</title>
<g id="a_Node000006"><a xlink:href="app_8c.html#a4b4464bc0bc06853b9af4b408d460453" target="_top" xlink:title=" ">
<polygon fill="white" stroke="#666666" points="379,-417.59 311.25,-417.59 311.25,-396.84 379,-396.84 379,-417.59"/>
<text text-anchor="middle" x="345.12" y="-404.09" font-family="Helvetica,sans-Serif" font-size="10.00">w2c__f376</text>
</a>
</g>
</g>
<!-- Node2&#45;&gt;Node6 -->
<g id="edge5_Node000002_Node000006" class="edge">
<title>Node2&#45;&gt;Node6</title>
<g id="a_edge5_Node000002_Node000006"><a xlink:title=" ">
<path fill="none" stroke="#63b8ff" d="M403.32,-407.22C395.21,-407.22 386.88,-407.22 379.17,-407.22"/>
<polygon fill="#63b8ff" stroke="#63b8ff" points="403.04,-410.72 413.04,-407.22 403.04,-403.72 403.04,-410.72"/>
</a>
</g>
</g>
<!-- Node8 -->
<g id="Node000008" class="node">
<title>Node8</title>
<g id="a_Node000008"><a xlink:href="app_8c.html#a05d83e696cfaa26355c9732ee9ea4cd0" target="_top" xlink:title=" ">
<polygon fill="white" stroke="#666666" points="67.75,-130.59 0,-130.59 0,-109.84 67.75,-109.84 67.75,-130.59"/>
<text text-anchor="middle" x="33.88" y="-117.09" font-family="Helvetica,sans-Serif" font-size="10.00">w2c__f454</text>
</a>
</g>
</g>
<!-- Node2&#45;&gt;Node8 -->
<g id="edge9_Node000002_Node000008" class="edge">
<title>Node2&#45;&gt;Node8</title>
<g id="a_edge9_Node000002_Node000008"><a xlink:title=" ">
<path fill="none" stroke="#63b8ff" d="M422.32,-423.84C409.8,-431.01 394.18,-438.58 379,-442.22 303.35,-460.34 276.32,-443.49 207.5,-407.22 156.46,-380.32 137.37,-376.09 103.75,-329.22 56.54,-263.4 40.29,-163.26 36.1,-130.79"/>
<polygon fill="#63b8ff" stroke="#63b8ff" points="423.96,-426.94 430.73,-418.79 420.35,-420.94 423.96,-426.94"/>
</a>
</g>
</g>
<!-- Node4 -->
<g id="Node000004" class="node">
<title>Node4</title>
<g id="a_Node000004"><a xlink:href="app_8c.html#a9a6678ec111966f9ad398c4ddc0f4ce7" target="_top" xlink:title=" ">
<polygon fill="white" stroke="#666666" points="275.25,-320.59 207.5,-320.59 207.5,-299.84 275.25,-299.84 275.25,-320.59"/>
<text text-anchor="middle" x="241.38" y="-307.09" font-family="Helvetica,sans-Serif" font-size="10.00">w2c__f472</text>
</a>
</g>
</g>
<!-- Node3&#45;&gt;Node4 -->
<g id="edge3_Node000003_Node000004" class="edge">
<title>Node3&#45;&gt;Node4</title>
<g id="a_edge3_Node000003_Node000004"><a xlink:title=" ">
<path fill="none" stroke="#63b8ff" d="M315.81,-352.08C298.4,-342.15 276.58,-329.72 261.26,-320.98"/>
<polygon fill="#63b8ff" stroke="#63b8ff" points="313.73,-354.92 324.15,-356.83 317.19,-348.84 313.73,-354.92"/>
</a>
</g>
</g>
<!-- Node4&#45;&gt;Node5 -->
<g id="edge4_Node000004_Node000005" class="edge">
<title>Node4&#45;&gt;Node5</title>
<g id="a_edge4_Node000004_Node000005"><a xlink:title=" ">
<path fill="none" stroke="#63b8ff" d="M195.82,-310.22C187.71,-310.22 179.38,-310.22 171.67,-310.22"/>
<polygon fill="#63b8ff" stroke="#63b8ff" points="195.54,-313.72 205.54,-310.22 195.54,-306.72 195.54,-313.72"/>
</a>
</g>
</g>
<!-- Node7 -->
<g id="Node000007" class="node">
<title>Node7</title>
<g id="a_Node000007"><a xlink:href="app_8c.html#adb357000a4d9b03118bb4a6a7435605d" target="_top" xlink:title=" ">
<polygon fill="white" stroke="#666666" points="171.5,-130.59 103.75,-130.59 103.75,-109.84 171.5,-109.84 171.5,-130.59"/>
<text text-anchor="middle" x="137.62" y="-117.09" font-family="Helvetica,sans-Serif" font-size="10.00">w2c__f404</text>
</a>
</g>
</g>
<!-- Node6&#45;&gt;Node7 -->
<g id="edge6_Node000006_Node000007" class="edge">
<title>Node6&#45;&gt;Node7</title>
<g id="a_edge6_Node000006_Node000007"><a xlink:title=" ">
<path fill="none" stroke="#63b8ff" d="M300.76,-392.12C270.69,-379.59 231.82,-358.98 207.5,-329.22 156.25,-266.51 142.65,-164.33 139.49,-131.06"/>
<polygon fill="#63b8ff" stroke="#63b8ff" points="299.4,-395.34 309.99,-395.81 302,-388.84 299.4,-395.34"/>
</a>
</g>
</g>
<!-- Node7&#45;&gt;Node8 -->
<g id="edge7_Node000007_Node000008" class="edge">
<title>Node7&#45;&gt;Node8</title>
<g id="a_edge7_Node000007_Node000008"><a xlink:title=" ">
<path fill="none" stroke="#63b8ff" d="M92.07,-120.22C83.96,-120.22 75.63,-120.22 67.92,-120.22"/>
<polygon fill="#63b8ff" stroke="#63b8ff" points="91.79,-123.72 101.79,-120.22 91.79,-116.72 91.79,-123.72"/>
</a>
</g>
</g>
<!-- Node9&#45;&gt;Node3 -->
<g id="edge11_Node000009_Node000003" class="edge">
<title>Node9&#45;&gt;Node3</title>
<g id="a_edge11_Node000009_Node000003"><a xlink:title=" ">
<path fill="none" stroke="#63b8ff" d="M439.02,-255.09C427.82,-279.63 406.62,-320.51 379,-348.22 375.6,-351.62 371.52,-354.7 367.4,-357.35"/>
<polygon fill="#63b8ff" stroke="#63b8ff" points="442.12,-256.73 442.96,-246.16 435.72,-253.9 442.12,-256.73"/>
</a>
</g>
</g>
<!-- Node9&#45;&gt;Node4 -->
<g id="edge22_Node000009_Node000004" class="edge">
<title>Node9&#45;&gt;Node4</title>
<g id="a_edge22_Node000009_Node000004"><a xlink:title=" ">
<path fill="none" stroke="#63b8ff" d="M421.13,-250.88C408.66,-258.14 393.42,-266.33 379,-272.22 344.81,-286.18 303.78,-296.83 275.66,-303.25"/>
<polygon fill="#63b8ff" stroke="#63b8ff" points="422.79,-253.97 429.58,-245.84 419.2,-247.96 422.79,-253.97"/>
</a>
</g>
</g>
<!-- Node9&#45;&gt;Node5 -->
<g id="edge17_Node000009_Node000005" class="edge">
<title>Node9&#45;&gt;Node5</title>
<g id="a_edge17_Node000009_Node000005"><a xlink:title=" ">
<path fill="none" stroke="#63b8ff" d="M403.23,-229.61C376.31,-227.97 341.48,-227.86 311.25,-234.22 251.33,-246.82 186.84,-281.57 156.43,-299.38"/>
<polygon fill="#63b8ff" stroke="#63b8ff" points="402.9,-233.1 413.12,-230.32 403.39,-226.12 402.9,-233.1"/>
</a>
</g>
</g>
<!-- Node9&#45;&gt;Node6 -->
<g id="edge16_Node000009_Node000006" class="edge">
<title>Node9&#45;&gt;Node6</title>
<g id="a_edge16_Node000009_Node000006"><a xlink:title=" ">
<path fill="none" stroke="#63b8ff" d="M442.58,-255.8C433.86,-287.65 413.89,-347.73 379,-387.22 375.9,-390.72 372.04,-393.81 368.07,-396.44"/>
<polygon fill="#63b8ff" stroke="#63b8ff" points="445.85,-257.1 444.99,-246.54 439.08,-255.34 445.85,-257.1"/>
</a>
</g>
</g>
<!-- Node9&#45;&gt;Node7 -->
<g id="edge18_Node000009_Node000007" class="edge">
<title>Node9&#45;&gt;Node7</title>
<g id="a_edge18_Node000009_Node000007"><a xlink:title=" ">
<path fill="none" stroke="#63b8ff" d="M403.73,-223.09C354.79,-210.1 273.97,-186.73 207.5,-158.22 189.3,-150.41 169.62,-139.26 155.98,-131.05"/>
<polygon fill="#63b8ff" stroke="#63b8ff" points="402.84,-226.47 413.4,-225.62 404.62,-219.7 402.84,-226.47"/>
</a>
</g>
</g>
<!-- Node9&#45;&gt;Node8 -->
<g id="edge21_Node000009_Node000008" class="edge">
<title>Node9&#45;&gt;Node8</title>
<g id="a_edge21_Node000009_Node000008"><a xlink:title=" ">
<path fill="none" stroke="#63b8ff" d="M446.46,-212.04C442.69,-171.53 428.91,-85.31 379,-37.22 344.25,-3.74 322.97,-12.41 275.25,-5.22 245.48,-0.73 236.32,3.5 207.5,-5.22 138.22,-26.18 71.31,-85.12 45.76,-109.48"/>
<polygon fill="#63b8ff" stroke="#63b8ff" points="442.97,-212.28 447.25,-221.97 449.95,-211.73 442.97,-212.28"/>
</a>
</g>
</g>
<!-- Node10 -->
<g id="Node000010" class="node">
<title>Node10</title>
<g id="a_Node000010"><a xlink:href="app_8c.html#ab5a3eb75567e85becd3ea69f3cefe6c1" target="_top" xlink:title=" ">
<polygon fill="white" stroke="#666666" points="275.25,-73.59 207.5,-73.59 207.5,-52.84 275.25,-52.84 275.25,-73.59"/>
<text text-anchor="middle" x="241.38" y="-60.09" font-family="Helvetica,sans-Serif" font-size="10.00">w2c__f285</text>
</a>
</g>
</g>
<!-- Node9&#45;&gt;Node10 -->
<g id="edge12_Node000009_Node000010" class="edge">
<title>Node9&#45;&gt;Node10</title>
<g id="a_edge12_Node000009_Node000010"><a xlink:title=" ">
<path fill="none" stroke="#63b8ff" d="M439.87,-212.98C429.4,-187.76 408.79,-145.89 379,-120.22 348.92,-94.3 305.38,-78.9 275.59,-70.77"/>
<polygon fill="#63b8ff" stroke="#63b8ff" points="436.58,-214.17 443.53,-222.18 443.09,-211.59 436.58,-214.17"/>
</a>
</g>
</g>
<!-- Node11 -->
<g id="Node000011" class="node">
<title>Node11</title>
<g id="a_Node000011"><a xlink:href="app_8c.html#a90092f313c3529894f5b07df3b2baa3a" target="_top" xlink:title=" ">
<polygon fill="white" stroke="#666666" points="275.25,-34.59 207.5,-34.59 207.5,-13.84 275.25,-13.84 275.25,-34.59"/>
<text text-anchor="middle" x="241.38" y="-21.09" font-family="Helvetica,sans-Serif" font-size="10.00">w2c__f364</text>
</a>
</g>
</g>
<!-- Node9&#45;&gt;Node11 -->
<g id="edge14_Node000009_Node000011" class="edge">
<title>Node9&#45;&gt;Node11</title>
<g id="a_edge14_Node000009_Node000011"><a xlink:title=" ">
<path fill="none" stroke="#63b8ff" d="M443.69,-212.54C436.24,-179.53 417.7,-116.57 379,-79.22 350.3,-51.52 305.84,-37.15 275.49,-30.16"/>
<polygon fill="#63b8ff" stroke="#63b8ff" points="440.22,-213.06 445.7,-222.13 447.07,-211.62 440.22,-213.06"/>
</a>
</g>
</g>
<!-- Node12 -->
<g id="Node000012" class="node">
<title>Node12</title>
<g id="a_Node000012"><a xlink:href="app_8c.html#a2ed61b7ee4e5a17be88e493a38bae83d" target="_top" xlink:title=" ">
<polygon fill="white" stroke="#666666" points="379,-263.59 311.25,-263.59 311.25,-242.84 379,-242.84 379,-263.59"/>
<text text-anchor="middle" x="345.12" y="-250.09" font-family="Helvetica,sans-Serif" font-size="10.00">w2c__f405</text>
</a>
</g>
</g>
<!-- Node9&#45;&gt;Node12 -->
<g id="edge19_Node000009_Node000012" class="edge">
<title>Node9&#45;&gt;Node12</title>
<g id="a_edge19_Node000009_Node000012"><a xlink:title=" ">
<path fill="none" stroke="#63b8ff" d="M403.32,-242.54C395.21,-244.05 386.88,-245.61 379.17,-247.05"/>
<polygon fill="#63b8ff" stroke="#63b8ff" points="403.88,-245.99 413.07,-240.72 402.6,-239.11 403.88,-245.99"/>
</a>
</g>
</g>
<!-- Node13 -->
<g id="Node000013" class="node">
<title>Node13</title>
<g id="a_Node000013"><a xlink:href="app_8c.html#ab921fb28dcc7600a438d095932e682a1" target="_top" xlink:title=" ">
<polygon fill="white" stroke="#666666" points="379,-339.59 311.25,-339.59 311.25,-318.84 379,-318.84 379,-339.59"/>
<text text-anchor="middle" x="345.12" y="-326.09" font-family="Helvetica,sans-Serif" font-size="10.00">w2c__f483</text>
</a>
</g>
</g>
<!-- Node9&#45;&gt;Node13 -->
<g id="edge23_Node000009_Node000013" class="edge">
<title>Node9&#45;&gt;Node13</title>
<g id="a_edge23_Node000009_Node000013"><a xlink:title=" ">
<path fill="none" stroke="#63b8ff" d="M431.07,-253.24C417.6,-268.06 397.89,-288.8 379,-305.22 373.67,-309.85 367.48,-314.53 361.93,-318.51"/>
<polygon fill="#63b8ff" stroke="#63b8ff" points="433.49,-255.78 437.57,-246 428.29,-251.1 433.49,-255.78"/>
</a>
</g>
</g>
<!-- Node14 -->
<g id="Node000014" class="node">
<title>Node14</title>
<g id="a_Node000014"><a xlink:href="app_8c.html#ac69b13e2c3468609717df2627a30b836" target="_top" xlink:title=" ">
<polygon fill="white" stroke="#666666" points="379,-149.59 311.25,-149.59 311.25,-128.84 379,-128.84 379,-149.59"/>
<text text-anchor="middle" x="345.12" y="-136.09" font-family="Helvetica,sans-Serif" font-size="10.00">w2c__f497</text>
</a>
</g>
</g>
<!-- Node9&#45;&gt;Node14 -->
<g id="edge25_Node000009_Node000014" class="edge">
<title>Node9&#45;&gt;Node14</title>
<g id="a_edge25_Node000009_Node000014"><a xlink:title=" ">
<path fill="none" stroke="#63b8ff" d="M431.07,-215.19C417.6,-200.38 397.89,-179.64 379,-163.22 373.67,-158.58 367.48,-153.91 361.93,-149.93"/>
<polygon fill="#63b8ff" stroke="#63b8ff" points="428.29,-217.33 437.57,-222.43 433.49,-212.66 428.29,-217.33"/>
</a>
</g>
</g>
<!-- Node10&#45;&gt;Node7 -->
<g id="edge13_Node000010_Node000007" class="edge">
<title>Node10&#45;&gt;Node7</title>
<g id="a_edge13_Node000010_Node000007"><a xlink:title=" ">
<path fill="none" stroke="#63b8ff" d="M211.22,-79.55C194.15,-89.11 173.06,-100.93 158.02,-109.35"/>
<polygon fill="#63b8ff" stroke="#63b8ff" points="212.9,-82.62 219.92,-74.68 209.48,-76.51 212.9,-82.62"/>
</a>
</g>
</g>
<!-- Node11&#45;&gt;Node7 -->
<g id="edge15_Node000011_Node000007" class="edge">
<title>Node11&#45;&gt;Node7</title>
<g id="a_edge15_Node000011_Node000007"><a xlink:title=" ">
<path fill="none" stroke="#63b8ff" d="M211.42,-41.16C210.07,-42.16 208.76,-43.18 207.5,-44.22 182.79,-64.63 158.78,-93.91 146.7,-109.5"/>
<polygon fill="#63b8ff" stroke="#63b8ff" points="213.03,-44.3 219.37,-35.81 209.12,-38.49 213.03,-44.3"/>
</a>
</g>
</g>
<!-- Node12&#45;&gt;Node4 -->
<g id="edge20_Node000012_Node000004" class="edge">
<title>Node12&#45;&gt;Node4</title>
<g id="a_edge20_Node000012_Node000004"><a xlink:title=" ">
<path fill="none" stroke="#63b8ff" d="M314.97,-269.55C297.9,-279.11 276.81,-290.93 261.77,-299.35"/>
<polygon fill="#63b8ff" stroke="#63b8ff" points="316.65,-272.62 323.67,-264.68 313.23,-266.51 316.65,-272.62"/>
</a>
</g>
</g>
<!-- Node13&#45;&gt;Node4 -->
<g id="edge24_Node000013_Node000004" class="edge">
<title>Node13&#45;&gt;Node4</title>
<g id="a_edge24_Node000013_Node000004"><a xlink:title=" ">
<path fill="none" stroke="#63b8ff" d="M299.57,-320.9C291.46,-319.38 283.13,-317.83 275.42,-316.39"/>
<polygon fill="#63b8ff" stroke="#63b8ff" points="298.85,-324.32 309.32,-322.72 300.13,-317.44 298.85,-324.32"/>
</a>
</g>
</g>
<!-- Node14&#45;&gt;Node7 -->
<g id="edge26_Node000014_Node000007" class="edge">
<title>Node14&#45;&gt;Node7</title>
<g id="a_edge26_Node000014_Node000007"><a xlink:title=" ">
<path fill="none" stroke="#63b8ff" d="M301.08,-125.44C292.6,-123.27 283.71,-121.36 275.25,-120.22 240.23,-115.48 199.69,-116.25 171.92,-117.73"/>
<polygon fill="#63b8ff" stroke="#63b8ff" points="299.89,-128.74 310.46,-128 301.73,-121.99 299.89,-128.74"/>
</a>
</g>
</g>
<!-- Node15 -->
<g id="Node000015" class="node">
<title>Node15</title>
<g id="a_Node000015"><a xlink:href="app_8c.html#a3528ca1eb262ff9291f92bf37d2fc18a" target="_top" xlink:title=" ">
<polygon fill="white" stroke="#666666" points="275.25,-149.59 207.5,-149.59 207.5,-128.84 275.25,-128.84 275.25,-149.59"/>
<text text-anchor="middle" x="241.38" y="-136.09" font-family="Helvetica,sans-Serif" font-size="10.00">w2c__f492</text>
</a>
</g>
</g>
<!-- Node14&#45;&gt;Node15 -->
<g id="edge27_Node000014_Node000015" class="edge">
<title>Node14&#45;&gt;Node15</title>
<g id="a_edge27_Node000014_Node000015"><a xlink:title=" ">
<path fill="none" stroke="#63b8ff" d="M299.57,-139.22C291.46,-139.22 283.13,-139.22 275.42,-139.22"/>
<polygon fill="#63b8ff" stroke="#63b8ff" points="299.29,-142.72 309.29,-139.22 299.29,-135.72 299.29,-142.72"/>
</a>
</g>
</g>
<!-- Node15&#45;&gt;Node7 -->
<g id="edge28_Node000015_Node000007" class="edge">
<title>Node15&#45;&gt;Node7</title>
<g id="a_edge28_Node000015_Node000007"><a xlink:title=" ">
<path fill="none" stroke="#63b8ff" d="M195.82,-130.9C187.71,-129.38 179.38,-127.83 171.67,-126.39"/>
<polygon fill="#63b8ff" stroke="#63b8ff" points="195.1,-134.32 205.57,-132.72 196.38,-127.44 195.1,-134.32"/>
</a>
</g>
</g>
</g>
</svg>
