<?xml version="1.0" encoding="UTF-8" standalone="no"?>
<!DOCTYPE svg PUBLIC "-//W3C//DTD SVG 1.1//EN"
 "http://www.w3.org/Graphics/SVG/1.1/DTD/svg11.dtd">
<!-- Generated by graphviz version 12.2.1 (0)
 -->
<!-- Title: wrap_w2c__f370 Pages: 1 -->
<svg width="628pt" height="86pt"
 viewBox="0.00 0.00 627.50 85.75" xmlns="http://www.w3.org/2000/svg" xmlns:xlink="http://www.w3.org/1999/xlink">
<g id="graph0" class="graph" transform="scale(1 1) rotate(0) translate(4 81.75)">
<title>wrap_w2c__f370</title>
<!-- Node1 -->
<g id="Node000001" class="node">
<title>Node1</title>
<g id="a_Node000001"><a xlink:title=" ">
<polygon fill="#999999" stroke="#666666" points="97,-20.75 0,-20.75 0,0 97,0 97,-20.75"/>
<text text-anchor="middle" x="48.5" y="-7.25" font-family="Helvetica,sans-Serif" font-size="10.00">wrap_w2c__f370</text>
</a>
</g>
</g>
<!-- Node2 -->
<g id="Node000002" class="node">
<title>Node2</title>
<g id="a_Node000002"><a xlink:href="app_8c.html#a44d2fb91341c2bb5600daec813144423" target="_top" xlink:title=" ">
<polygon fill="white" stroke="#666666" points="200.75,-20.75 133,-20.75 133,0 200.75,0 200.75,-20.75"/>
<text text-anchor="middle" x="166.88" y="-7.25" font-family="Helvetica,sans-Serif" font-size="10.00">w2c__f370</text>
</a>
</g>
</g>
<!-- Node1&#45;&gt;Node2 -->
<g id="edge1_Node000001_Node000002" class="edge">
<title>Node1&#45;&gt;Node2</title>
<g id="a_edge1_Node000001_Node000002"><a xlink:title=" ">
<path fill="none" stroke="#63b8ff" d="M97.17,-10.38C105.18,-10.38 113.47,-10.38 121.4,-10.38"/>
<polygon fill="#63b8ff" stroke="#63b8ff" points="121.17,-13.88 131.17,-10.38 121.17,-6.88 121.17,-13.88"/>
</a>
</g>
</g>
<!-- Node3 -->
<g id="Node000003" class="node">
<title>Node3</title>
<g id="a_Node000003"><a xlink:href="app_8c.html#a4ad0e4fbbb0cf438eebff97436bc659b" target="_top" xlink:title=" ">
<polygon fill="white" stroke="#666666" points="304.5,-39.75 236.75,-39.75 236.75,-19 304.5,-19 304.5,-39.75"/>
<text text-anchor="middle" x="270.62" y="-26.25" font-family="Helvetica,sans-Serif" font-size="10.00">w2c__f458</text>
</a>
</g>
</g>
<!-- Node2&#45;&gt;Node3 -->
<g id="edge2_Node000002_Node000003" class="edge">
<title>Node2&#45;&gt;Node3</title>
<g id="a_edge2_Node000002_Node000003"><a xlink:title=" ">
<path fill="none" stroke="#63b8ff" d="M201.19,-16.6C208.91,-18.04 217.25,-19.59 225.36,-21.11"/>
<polygon fill="#63b8ff" stroke="#63b8ff" points="224.62,-24.53 235.09,-22.93 225.91,-17.65 224.62,-24.53"/>
</a>
</g>
</g>
<!-- Node5 -->
<g id="Node000005" class="node">
<title>Node5</title>
<g id="a_Node000005"><a xlink:href="app_8c.html#ad63b6498cfe22ce747f349eeb23b508f" target="_top" xlink:title=" ">
<polygon fill="white" stroke="#666666" points="517.62,-38.75 446.12,-38.75 446.12,-18 517.62,-18 517.62,-38.75"/>
<text text-anchor="middle" x="481.88" y="-25.25" font-family="Helvetica,sans-Serif" font-size="10.00">wasm_fabs</text>
</a>
</g>
</g>
<!-- Node2&#45;&gt;Node5 -->
<g id="edge8_Node000002_Node000005" class="edge">
<title>Node2&#45;&gt;Node5</title>
<g id="a_edge8_Node000002_Node000005"><a xlink:title=" ">
<path fill="none" stroke="#63b8ff" d="M201.03,-9.43C228.71,-8.87 269.2,-8.58 304.5,-10.38 348.88,-12.63 399.3,-18.07 434.83,-22.38"/>
<polygon fill="#63b8ff" stroke="#63b8ff" points="433.96,-25.8 444.32,-23.55 434.82,-18.85 433.96,-25.8"/>
</a>
</g>
</g>
<!-- Node4 -->
<g id="Node000004" class="node">
<title>Node4</title>
<g id="a_Node000004"><a xlink:href="app_8c.html#a5944e8aaeb89215d16f0703618f3d1cb" target="_top" xlink:title=" ">
<polygon fill="white" stroke="#666666" points="408.25,-77.75 340.5,-77.75 340.5,-57 408.25,-57 408.25,-77.75"/>
<text text-anchor="middle" x="374.38" y="-64.25" font-family="Helvetica,sans-Serif" font-size="10.00">w2c__f346</text>
</a>
</g>
</g>
<!-- Node3&#45;&gt;Node4 -->
<g id="edge3_Node000003_Node000004" class="edge">
<title>Node3&#45;&gt;Node4</title>
<g id="a_edge3_Node000003_Node000004"><a xlink:title=" ">
<path fill="none" stroke="#63b8ff" d="M300.51,-40.16C310.82,-44.01 322.63,-48.42 333.69,-52.55"/>
<polygon fill="#63b8ff" stroke="#63b8ff" points="332.41,-55.81 343,-56.03 334.86,-49.25 332.41,-55.81"/>
</a>
</g>
</g>
<!-- Node3&#45;&gt;Node5 -->
<g id="edge7_Node000003_Node000005" class="edge">
<title>Node3&#45;&gt;Node5</title>
<g id="a_edge7_Node000003_Node000005"><a xlink:title=" ">
<path fill="none" stroke="#63b8ff" d="M304.78,-29.22C339.74,-29.05 395.08,-28.78 434.39,-28.6"/>
<polygon fill="#63b8ff" stroke="#63b8ff" points="434.28,-32.1 444.27,-28.55 434.25,-25.1 434.28,-32.1"/>
</a>
</g>
</g>
<!-- Node4&#45;&gt;Node5 -->
<g id="edge4_Node000004_Node000005" class="edge">
<title>Node4&#45;&gt;Node5</title>
<g id="a_edge4_Node000004_Node000005"><a xlink:title=" ">
<path fill="none" stroke="#63b8ff" d="M404.76,-56.51C415.97,-52.37 428.93,-47.58 440.95,-43.13"/>
<polygon fill="#63b8ff" stroke="#63b8ff" points="442.06,-46.46 450.23,-39.71 439.63,-39.89 442.06,-46.46"/>
</a>
</g>
</g>
<!-- Node6 -->
<g id="Node000006" class="node">
<title>Node6</title>
<g id="a_Node000006"><a xlink:href="app_8c.html#abe22e959f965cb0fbcf5b83be18fbe1e" target="_top" xlink:title=" ">
<polygon fill="white" stroke="#666666" points="519.5,-77.75 444.25,-77.75 444.25,-57 519.5,-57 519.5,-77.75"/>
<text text-anchor="middle" x="481.88" y="-64.25" font-family="Helvetica,sans-Serif" font-size="10.00">wasm_quiet</text>
</a>
</g>
</g>
<!-- Node4&#45;&gt;Node6 -->
<g id="edge5_Node000004_Node000006" class="edge">
<title>Node4&#45;&gt;Node6</title>
<g id="a_edge5_Node000004_Node000006"><a xlink:title=" ">
<path fill="none" stroke="#63b8ff" d="M408.47,-67.38C416.11,-67.38 424.39,-67.38 432.53,-67.38"/>
<polygon fill="#63b8ff" stroke="#63b8ff" points="432.35,-70.88 442.35,-67.38 432.35,-63.88 432.35,-70.88"/>
</a>
</g>
</g>
<!-- Node7 -->
<g id="Node000007" class="node">
<title>Node7</title>
<g id="a_Node000007"><a xlink:href="app_8c.html#ae10979e670e507d4373e8cadcb3169aa" target="_top" xlink:title=" ">
<polygon fill="white" stroke="#666666" points="619.5,-77.75 555.5,-77.75 555.5,-57 619.5,-57 619.5,-77.75"/>
<text text-anchor="middle" x="587.5" y="-64.25" font-family="Helvetica,sans-Serif" font-size="10.00">quiet_nan</text>
</a>
</g>
</g>
<!-- Node6&#45;&gt;Node7 -->
<g id="edge6_Node000006_Node000007" class="edge">
<title>Node6&#45;&gt;Node7</title>
<g id="a_edge6_Node000006_Node000007"><a xlink:title=" ">
<path fill="none" stroke="#63b8ff" d="M519.99,-67.38C527.72,-67.38 535.92,-67.38 543.83,-67.38"/>
<polygon fill="#63b8ff" stroke="#63b8ff" points="543.6,-70.88 553.6,-67.38 543.6,-63.88 543.6,-70.88"/>
</a>
</g>
</g>
</g>
</svg>
