<?xml version="1.0" encoding="UTF-8" standalone="no"?>
<!DOCTYPE svg PUBLIC "-//W3C//DTD SVG 1.1//EN"
 "http://www.w3.org/Graphics/SVG/1.1/DTD/svg11.dtd">
<!-- Generated by graphviz version 12.2.1 (0)
 -->
<!-- Title: w2c__f528 Pages: 1 -->
<svg width="598pt" height="317pt"
 viewBox="0.00 0.00 598.25 317.03" xmlns="http://www.w3.org/2000/svg" xmlns:xlink="http://www.w3.org/1999/xlink">
<g id="graph0" class="graph" transform="scale(1 1) rotate(0) translate(4 313.03)">
<title>w2c__f528</title>
<!-- Node1 -->
<g id="Node000001" class="node">
<title>Node1</title>
<g id="a_Node000001"><a xlink:title=" ">
<polygon fill="#999999" stroke="#666666" points="67.75,-193.75 0,-193.75 0,-173 67.75,-173 67.75,-193.75"/>
<text text-anchor="middle" x="33.88" y="-180.25" font-family="Helvetica,sans-Serif" font-size="10.00">w2c__f528</text>
</a>
</g>
</g>
<!-- Node2 -->
<g id="Node000002" class="node">
<title>Node2</title>
<g id="a_Node000002"><a xlink:href="app_8c.html#ae5a3aadb2ff516ba9de8e7fad0e97772" target="_top" xlink:title=" ">
<polygon fill="white" stroke="#666666" points="171.5,-174.75 103.75,-174.75 103.75,-154 171.5,-154 171.5,-174.75"/>
<text text-anchor="middle" x="137.62" y="-161.25" font-family="Helvetica,sans-Serif" font-size="10.00">w2c__f286</text>
</a>
</g>
</g>
<!-- Node1&#45;&gt;Node2 -->
<g id="edge1_Node000001_Node000002" class="edge">
<title>Node1&#45;&gt;Node2</title>
<g id="a_edge1_Node000001_Node000002"><a xlink:title=" ">
<path fill="none" stroke="#63b8ff" d="M68.19,-177.15C75.91,-175.71 84.25,-174.16 92.36,-172.64"/>
<polygon fill="#63b8ff" stroke="#63b8ff" points="92.91,-176.1 102.09,-170.82 91.62,-169.22 92.91,-176.1"/>
</a>
</g>
</g>
<!-- Node13 -->
<g id="Node000013" class="node">
<title>Node13</title>
<g id="a_Node000013"><a xlink:href="app_8c.html#ad63b6498cfe22ce747f349eeb23b508f" target="_top" xlink:title=" ">
<polygon fill="white" stroke="#666666" points="279,-212.75 207.5,-212.75 207.5,-192 279,-192 279,-212.75"/>
<text text-anchor="middle" x="243.25" y="-199.25" font-family="Helvetica,sans-Serif" font-size="10.00">wasm_fabs</text>
</a>
</g>
</g>
<!-- Node1&#45;&gt;Node13 -->
<g id="edge33_Node000001_Node000013" class="edge">
<title>Node1&#45;&gt;Node13</title>
<g id="a_edge33_Node000001_Node000013"><a xlink:title=" ">
<path fill="none" stroke="#63b8ff" d="M68.19,-186.43C102.89,-189.61 157.5,-194.61 196.29,-198.16"/>
<polygon fill="#63b8ff" stroke="#63b8ff" points="195.5,-201.61 205.78,-199.03 196.14,-194.64 195.5,-201.61"/>
</a>
</g>
</g>
<!-- Node14 -->
<g id="Node000014" class="node">
<title>Node14</title>
<g id="a_Node000014"><a xlink:href="app_8c.html#a3baf859eaf495b1a150b161f2cca1d56" target="_top" xlink:title=" ">
<polygon fill="white" stroke="#666666" points="171.5,-135.75 103.75,-135.75 103.75,-115 171.5,-115 171.5,-135.75"/>
<text text-anchor="middle" x="137.62" y="-122.25" font-family="Helvetica,sans-Serif" font-size="10.00">w2c__f292</text>
</a>
</g>
</g>
<!-- Node1&#45;&gt;Node14 -->
<g id="edge17_Node000001_Node000014" class="edge">
<title>Node1&#45;&gt;Node14</title>
<g id="a_edge17_Node000001_Node000014"><a xlink:title=" ">
<path fill="none" stroke="#63b8ff" d="M53.54,-172.74C68.79,-164.04 90.6,-151.61 108.05,-141.66"/>
<polygon fill="#63b8ff" stroke="#63b8ff" points="109.47,-144.88 116.42,-136.89 106,-138.8 109.47,-144.88"/>
</a>
</g>
</g>
<!-- Node18 -->
<g id="Node000018" class="node">
<title>Node18</title>
<g id="a_Node000018"><a xlink:href="app_8c.html#ab5eac21d342abd125af72c67ab44b217" target="_top" xlink:title=" ">
<polygon fill="white" stroke="#666666" points="171.5,-250.75 103.75,-250.75 103.75,-230 171.5,-230 171.5,-250.75"/>
<text text-anchor="middle" x="137.62" y="-237.25" font-family="Helvetica,sans-Serif" font-size="10.00">w2c__f461</text>
</a>
</g>
</g>
<!-- Node1&#45;&gt;Node18 -->
<g id="edge29_Node000001_Node000018" class="edge">
<title>Node1&#45;&gt;Node18</title>
<g id="a_edge29_Node000001_Node000018"><a xlink:title=" ">
<path fill="none" stroke="#63b8ff" d="M54.01,-194.1C69.12,-202.56 90.45,-214.51 107.65,-224.15"/>
<polygon fill="#63b8ff" stroke="#63b8ff" points="105.47,-226.93 115.91,-228.77 108.89,-220.83 105.47,-226.93"/>
</a>
</g>
</g>
<!-- Node3 -->
<g id="Node000003" class="node">
<title>Node3</title>
<g id="a_Node000003"><a xlink:href="app_8c.html#a831c51f20403bf1cafc621bad21a52e9" target="_top" xlink:title=" ">
<polygon fill="white" stroke="#666666" points="277.12,-290.75 209.38,-290.75 209.38,-270 277.12,-270 277.12,-290.75"/>
<text text-anchor="middle" x="243.25" y="-277.25" font-family="Helvetica,sans-Serif" font-size="10.00">w2c__f200</text>
</a>
</g>
</g>
<!-- Node2&#45;&gt;Node3 -->
<g id="edge2_Node000002_Node000003" class="edge">
<title>Node2&#45;&gt;Node3</title>
<g id="a_edge2_Node000002_Node000003"><a xlink:title=" ">
<path fill="none" stroke="#63b8ff" d="M144.24,-175.01C154.66,-194.01 178.6,-234.23 207.5,-260.38 208.57,-261.35 209.7,-262.29 210.87,-263.21"/>
<polygon fill="#63b8ff" stroke="#63b8ff" points="208.84,-266.06 219.07,-268.81 212.79,-260.28 208.84,-266.06"/>
</a>
</g>
</g>
<!-- Node4 -->
<g id="Node000004" class="node">
<title>Node4</title>
<g id="a_Node000004"><a xlink:href="app_8c.html#aef4afac43455d3ed5e9e3d9c1d8a5700" target="_top" xlink:title=" ">
<polygon fill="white" stroke="#666666" points="277.12,-173.75 209.38,-173.75 209.38,-153 277.12,-153 277.12,-173.75"/>
<text text-anchor="middle" x="243.25" y="-160.25" font-family="Helvetica,sans-Serif" font-size="10.00">w2c__f222</text>
</a>
</g>
</g>
<!-- Node2&#45;&gt;Node4 -->
<g id="edge3_Node000002_Node000004" class="edge">
<title>Node2&#45;&gt;Node4</title>
<g id="a_edge3_Node000002_Node000004"><a xlink:title=" ">
<path fill="none" stroke="#63b8ff" d="M171.98,-164.05C180.12,-163.97 188.95,-163.89 197.52,-163.81"/>
<polygon fill="#63b8ff" stroke="#63b8ff" points="197.48,-167.31 207.44,-163.71 197.41,-160.31 197.48,-167.31"/>
</a>
</g>
</g>
<!-- Node6 -->
<g id="Node000006" class="node">
<title>Node6</title>
<g id="a_Node000006"><a xlink:href="app_8c.html#aae3fe6c78a36d5d64862fe809f830e7c" target="_top" xlink:title=" ">
<polygon fill="white" stroke="#666666" points="277.12,-251.75 209.38,-251.75 209.38,-231 277.12,-231 277.12,-251.75"/>
<text text-anchor="middle" x="243.25" y="-238.25" font-family="Helvetica,sans-Serif" font-size="10.00">w2c__f340</text>
</a>
</g>
</g>
<!-- Node2&#45;&gt;Node6 -->
<g id="edge5_Node000002_Node000006" class="edge">
<title>Node2&#45;&gt;Node6</title>
<g id="a_edge5_Node000002_Node000006"><a xlink:title=" ">
<path fill="none" stroke="#63b8ff" d="M150.33,-175.11C163.66,-187.08 186.33,-206.68 207.5,-221.38 209.07,-222.47 210.71,-223.55 212.38,-224.63"/>
<polygon fill="#63b8ff" stroke="#63b8ff" points="210.39,-227.52 220.75,-229.73 214.03,-221.54 210.39,-227.52"/>
</a>
</g>
</g>
<!-- Node12 -->
<g id="Node000012" class="node">
<title>Node12</title>
<g id="a_Node000012"><a xlink:href="app_8c.html#a2aa5c145ea0ba4e33192bc8f198aa5ff" target="_top" xlink:title=" ">
<polygon fill="white" stroke="#666666" points="277.12,-134.75 209.38,-134.75 209.38,-114 277.12,-114 277.12,-134.75"/>
<text text-anchor="middle" x="243.25" y="-121.25" font-family="Helvetica,sans-Serif" font-size="10.00">w2c__f369</text>
</a>
</g>
</g>
<!-- Node2&#45;&gt;Node12 -->
<g id="edge15_Node000002_Node000012" class="edge">
<title>Node2&#45;&gt;Node12</title>
<g id="a_edge15_Node000002_Node000012"><a xlink:title=" ">
<path fill="none" stroke="#63b8ff" d="M166.67,-153.55C178.07,-149.15 191.44,-143.99 203.73,-139.24"/>
<polygon fill="#63b8ff" stroke="#63b8ff" points="204.7,-142.62 212.77,-135.75 202.18,-136.09 204.7,-142.62"/>
</a>
</g>
</g>
<!-- Node2&#45;&gt;Node13 -->
<g id="edge16_Node000002_Node000013" class="edge">
<title>Node2&#45;&gt;Node13</title>
<g id="a_edge16_Node000002_Node000013"><a xlink:title=" ">
<path fill="none" stroke="#63b8ff" d="M168.04,-175.16C178.65,-179.05 190.82,-183.51 202.18,-187.68"/>
<polygon fill="#63b8ff" stroke="#63b8ff" points="200.74,-190.88 211.34,-191.04 203.15,-184.31 200.74,-190.88"/>
</a>
</g>
</g>
<!-- Node5 -->
<g id="Node000005" class="node">
<title>Node5</title>
<g id="a_Node000005"><a xlink:href="app_8c.html#a4efea04c546fa05edb9b134a36e88a52" target="_top" xlink:title=" ">
<polygon fill="white" stroke="#666666" points="382.75,-172.75 315,-172.75 315,-152 382.75,-152 382.75,-172.75"/>
<text text-anchor="middle" x="348.88" y="-159.25" font-family="Helvetica,sans-Serif" font-size="10.00">w2c__f201</text>
</a>
</g>
</g>
<!-- Node4&#45;&gt;Node5 -->
<g id="edge4_Node000004_Node000005" class="edge">
<title>Node4&#45;&gt;Node5</title>
<g id="a_edge4_Node000004_Node000005"><a xlink:title=" ">
<path fill="none" stroke="#63b8ff" d="M277.61,-163.05C285.74,-162.97 294.58,-162.89 303.15,-162.81"/>
<polygon fill="#63b8ff" stroke="#63b8ff" points="303.1,-166.31 313.07,-162.71 303.03,-159.31 303.1,-166.31"/>
</a>
</g>
</g>
<!-- Node7 -->
<g id="Node000007" class="node">
<title>Node7</title>
<g id="a_Node000007"><a xlink:href="app_8c.html#abcd0c0585ea6884140a3d83d871fdef2" target="_top" xlink:title=" ">
<polygon fill="white" stroke="#666666" points="486.5,-209.75 418.75,-209.75 418.75,-189 486.5,-189 486.5,-209.75"/>
<text text-anchor="middle" x="452.62" y="-196.25" font-family="Helvetica,sans-Serif" font-size="10.00">w2c__f396</text>
</a>
</g>
</g>
<!-- Node6&#45;&gt;Node7 -->
<g id="edge6_Node000006_Node000007" class="edge">
<title>Node6&#45;&gt;Node7</title>
<g id="a_edge6_Node000006_Node000007"><a xlink:title=" ">
<path fill="none" stroke="#63b8ff" d="M275.31,-230.57C287.56,-226.61 301.83,-222.37 315,-219.38 345.44,-212.46 380.27,-207.4 407.14,-204.11"/>
<polygon fill="#63b8ff" stroke="#63b8ff" points="407.49,-207.59 417,-202.93 406.66,-200.64 407.49,-207.59"/>
</a>
</g>
</g>
<!-- Node8 -->
<g id="Node000008" class="node">
<title>Node8</title>
<g id="a_Node000008"><a xlink:href="app_8c.html#af732b1ecf09ff688adde158c29714bcd" target="_top" xlink:title=" ">
<polygon fill="white" stroke="#666666" points="590.25,-209.75 522.5,-209.75 522.5,-189 590.25,-189 590.25,-209.75"/>
<text text-anchor="middle" x="556.38" y="-196.25" font-family="Helvetica,sans-Serif" font-size="10.00">w2c__f436</text>
</a>
</g>
</g>
<!-- Node6&#45;&gt;Node8 -->
<g id="edge13_Node000006_Node000008" class="edge">
<title>Node6&#45;&gt;Node8</title>
<g id="a_edge13_Node000006_Node000008"><a xlink:title=" ">
<path fill="none" stroke="#63b8ff" d="M275.61,-252.21C323.32,-266.81 416.03,-287.69 486.5,-257.38 507.87,-248.18 504.4,-233.99 522.5,-219.38 523.77,-218.35 525.09,-217.34 526.45,-216.35"/>
<polygon fill="#63b8ff" stroke="#63b8ff" points="528.05,-219.49 534.42,-211.03 524.16,-213.67 528.05,-219.49"/>
</a>
</g>
</g>
<!-- Node9 -->
<g id="Node000009" class="node">
<title>Node9</title>
<g id="a_Node000009"><a xlink:href="app_8c.html#a309a40d49274226f4e4f391a0a617f71" target="_top" xlink:title=" ">
<polygon fill="white" stroke="#666666" points="382.75,-248.75 315,-248.75 315,-228 382.75,-228 382.75,-248.75"/>
<text text-anchor="middle" x="348.88" y="-235.25" font-family="Helvetica,sans-Serif" font-size="10.00">w2c__f430</text>
</a>
</g>
</g>
<!-- Node6&#45;&gt;Node9 -->
<g id="edge8_Node000006_Node000009" class="edge">
<title>Node6&#45;&gt;Node9</title>
<g id="a_edge8_Node000006_Node000009"><a xlink:title=" ">
<path fill="none" stroke="#63b8ff" d="M277.61,-240.41C285.74,-240.17 294.58,-239.92 303.15,-239.67"/>
<polygon fill="#63b8ff" stroke="#63b8ff" points="303.17,-243.17 313.07,-239.38 302.97,-236.17 303.17,-243.17"/>
</a>
</g>
</g>
<!-- Node11 -->
<g id="Node000011" class="node">
<title>Node11</title>
<g id="a_Node000011"><a xlink:href="app_8c.html#a0e0dad0ebc52e45eeff2e1b5d8389ea4" target="_top" xlink:title=" ">
<polygon fill="white" stroke="#666666" points="590.25,-248.75 522.5,-248.75 522.5,-228 590.25,-228 590.25,-248.75"/>
<text text-anchor="middle" x="556.38" y="-235.25" font-family="Helvetica,sans-Serif" font-size="10.00">w2c__f534</text>
</a>
</g>
</g>
<!-- Node6&#45;&gt;Node11 -->
<g id="edge14_Node000006_Node000011" class="edge">
<title>Node6&#45;&gt;Node11</title>
<g id="a_edge14_Node000006_Node000011"><a xlink:title=" ">
<path fill="none" stroke="#63b8ff" d="M264.06,-252.07C269.03,-254.94 274.29,-258.15 279,-261.38 295.95,-272.98 295.62,-283.54 315,-290.38 386.88,-315.73 414.23,-314.59 486.5,-290.38 506.35,-283.72 525.06,-268.84 537.95,-256.69"/>
<polygon fill="#63b8ff" stroke="#63b8ff" points="540.15,-259.43 544.81,-249.92 535.23,-254.45 540.15,-259.43"/>
</a>
</g>
</g>
<!-- Node7&#45;&gt;Node8 -->
<g id="edge7_Node000007_Node000008" class="edge">
<title>Node7&#45;&gt;Node8</title>
<g id="a_edge7_Node000007_Node000008"><a xlink:title=" ">
<path fill="none" stroke="#63b8ff" d="M486.94,-199.38C494.57,-199.38 502.81,-199.38 510.83,-199.38"/>
<polygon fill="#63b8ff" stroke="#63b8ff" points="510.82,-202.88 520.82,-199.38 510.82,-195.88 510.82,-202.88"/>
</a>
</g>
</g>
<!-- Node9&#45;&gt;Node7 -->
<g id="edge12_Node000009_Node000007" class="edge">
<title>Node9&#45;&gt;Node7</title>
<g id="a_edge12_Node000009_Node000007"><a xlink:title=" ">
<path fill="none" stroke="#63b8ff" d="M378.22,-227.51C388.91,-223.41 401.27,-218.67 412.76,-214.27"/>
<polygon fill="#63b8ff" stroke="#63b8ff" points="413.94,-217.57 422.02,-210.72 411.43,-211.03 413.94,-217.57"/>
</a>
</g>
</g>
<!-- Node10 -->
<g id="Node000010" class="node">
<title>Node10</title>
<g id="a_Node000010"><a xlink:href="app_8c.html#a4fe321cbcfefc8ca72854f11ebd1893e" target="_top" xlink:title=" ">
<polygon fill="white" stroke="#666666" points="486.5,-248.75 418.75,-248.75 418.75,-228 486.5,-228 486.5,-248.75"/>
<text text-anchor="middle" x="452.62" y="-235.25" font-family="Helvetica,sans-Serif" font-size="10.00">w2c__f318</text>
</a>
</g>
</g>
<!-- Node9&#45;&gt;Node10 -->
<g id="edge9_Node000009_Node000010" class="edge">
<title>Node9&#45;&gt;Node10</title>
<g id="a_edge9_Node000009_Node000010"><a xlink:title=" ">
<path fill="none" stroke="#63b8ff" d="M383.19,-238.38C390.82,-238.38 399.06,-238.38 407.08,-238.38"/>
<polygon fill="#63b8ff" stroke="#63b8ff" points="407.07,-241.88 417.07,-238.38 407.07,-234.88 407.07,-241.88"/>
</a>
</g>
</g>
<!-- Node10&#45;&gt;Node8 -->
<g id="edge10_Node000010_Node000008" class="edge">
<title>Node10&#45;&gt;Node8</title>
<g id="a_edge10_Node000010_Node000008"><a xlink:title=" ">
<path fill="none" stroke="#63b8ff" d="M481.97,-227.51C492.66,-223.41 505.02,-218.67 516.51,-214.27"/>
<polygon fill="#63b8ff" stroke="#63b8ff" points="517.69,-217.57 525.77,-210.72 515.18,-211.03 517.69,-217.57"/>
</a>
</g>
</g>
<!-- Node10&#45;&gt;Node11 -->
<g id="edge11_Node000010_Node000011" class="edge">
<title>Node10&#45;&gt;Node11</title>
<g id="a_edge11_Node000010_Node000011"><a xlink:title=" ">
<path fill="none" stroke="#63b8ff" d="M486.94,-238.38C494.57,-238.38 502.81,-238.38 510.83,-238.38"/>
<polygon fill="#63b8ff" stroke="#63b8ff" points="510.82,-241.88 520.82,-238.38 510.82,-234.88 510.82,-241.88"/>
</a>
</g>
</g>
<!-- Node14&#45;&gt;Node4 -->
<g id="edge18_Node000014_Node000004" class="edge">
<title>Node14&#45;&gt;Node4</title>
<g id="a_edge18_Node000014_Node000004"><a xlink:title=" ">
<path fill="none" stroke="#63b8ff" d="M168.04,-136.16C178.65,-140.05 190.82,-144.51 202.18,-148.68"/>
<polygon fill="#63b8ff" stroke="#63b8ff" points="200.74,-151.88 211.34,-152.04 203.15,-145.31 200.74,-151.88"/>
</a>
</g>
</g>
<!-- Node14&#45;&gt;Node12 -->
<g id="edge27_Node000014_Node000012" class="edge">
<title>Node14&#45;&gt;Node12</title>
<g id="a_edge27_Node000014_Node000012"><a xlink:title=" ">
<path fill="none" stroke="#63b8ff" d="M171.98,-125.05C180.12,-124.97 188.95,-124.89 197.52,-124.81"/>
<polygon fill="#63b8ff" stroke="#63b8ff" points="197.48,-128.31 207.44,-124.71 197.41,-121.31 197.48,-128.31"/>
</a>
</g>
</g>
<!-- Node14&#45;&gt;Node13 -->
<g id="edge28_Node000014_Node000013" class="edge">
<title>Node14&#45;&gt;Node13</title>
<g id="a_edge28_Node000014_Node000013"><a xlink:title=" ">
<path fill="none" stroke="#63b8ff" d="M158.29,-136.23C162.78,-139 167.42,-142.13 171.5,-145.38 189.44,-159.67 189.38,-168.3 207.5,-182.38 208.97,-183.52 210.52,-184.65 212.11,-185.74"/>
<polygon fill="#63b8ff" stroke="#63b8ff" points="209.83,-188.44 220.15,-190.84 213.58,-182.53 209.83,-188.44"/>
</a>
</g>
</g>
<!-- Node15 -->
<g id="Node000015" class="node">
<title>Node15</title>
<g id="a_Node000015"><a xlink:href="app_8c.html#a0ab88abe0001c9616cc383126a10fb06" target="_top" xlink:title=" ">
<polygon fill="white" stroke="#666666" points="277.12,-39.75 209.38,-39.75 209.38,-19 277.12,-19 277.12,-39.75"/>
<text text-anchor="middle" x="243.25" y="-26.25" font-family="Helvetica,sans-Serif" font-size="10.00">w2c__f329</text>
</a>
</g>
</g>
<!-- Node14&#45;&gt;Node15 -->
<g id="edge19_Node000014_Node000015" class="edge">
<title>Node14&#45;&gt;Node15</title>
<g id="a_edge19_Node000014_Node000015"><a xlink:title=" ">
<path fill="none" stroke="#63b8ff" d="M150.11,-114.73C167.54,-98.59 200.9,-67.68 222.34,-47.82"/>
<polygon fill="#63b8ff" stroke="#63b8ff" points="224.65,-50.46 229.6,-41.09 219.89,-45.32 224.65,-50.46"/>
</a>
</g>
</g>
<!-- Node17 -->
<g id="Node000017" class="node">
<title>Node17</title>
<g id="a_Node000017"><a xlink:href="app_8c.html#a3fc93ee2d917dee38e30c8d32867106f" target="_top" xlink:title=" ">
<polygon fill="white" stroke="#666666" points="277.12,-95.75 209.38,-95.75 209.38,-75 277.12,-75 277.12,-95.75"/>
<text text-anchor="middle" x="243.25" y="-82.25" font-family="Helvetica,sans-Serif" font-size="10.00">w2c__f339</text>
</a>
</g>
</g>
<!-- Node14&#45;&gt;Node17 -->
<g id="edge22_Node000014_Node000017" class="edge">
<title>Node14&#45;&gt;Node17</title>
<g id="a_edge22_Node000014_Node000017"><a xlink:title=" ">
<path fill="none" stroke="#63b8ff" d="M166.67,-114.55C178.07,-110.15 191.44,-104.99 203.73,-100.24"/>
<polygon fill="#63b8ff" stroke="#63b8ff" points="204.7,-103.62 212.77,-96.75 202.18,-97.09 204.7,-103.62"/>
</a>
</g>
</g>
<!-- Node16 -->
<g id="Node000016" class="node">
<title>Node16</title>
<g id="a_Node000016"><a xlink:href="app_8c.html#a1982e4d2aac4d56e7d177872aef98a16" target="_top" xlink:title=" ">
<polygon fill="white" stroke="#666666" points="486.5,-20.75 418.75,-20.75 418.75,0 486.5,0 486.5,-20.75"/>
<text text-anchor="middle" x="452.62" y="-7.25" font-family="Helvetica,sans-Serif" font-size="10.00">w2c__f357</text>
</a>
</g>
</g>
<!-- Node15&#45;&gt;Node16 -->
<g id="edge20_Node000015_Node000016" class="edge">
<title>Node15&#45;&gt;Node16</title>
<g id="a_edge20_Node000015_Node000016"><a xlink:title=" ">
<path fill="none" stroke="#63b8ff" d="M277.57,-26.32C312.79,-23.1 368.52,-17.99 407.4,-14.43"/>
<polygon fill="#63b8ff" stroke="#63b8ff" points="407.24,-17.96 416.88,-13.56 406.6,-10.99 407.24,-17.96"/>
</a>
</g>
</g>
<!-- Node16&#45;&gt;Node8 -->
<g id="edge21_Node000016_Node000008" class="edge">
<title>Node16&#45;&gt;Node8</title>
<g id="a_edge21_Node000016_Node000008"><a xlink:title=" ">
<path fill="none" stroke="#63b8ff" d="M471.86,-21.02C477.1,-24.74 482.47,-29.27 486.5,-34.38 521.77,-79.09 541.86,-144.46 550.41,-177.91"/>
<polygon fill="#63b8ff" stroke="#63b8ff" points="546.92,-178.34 552.69,-187.23 553.72,-176.68 546.92,-178.34"/>
</a>
</g>
</g>
<!-- Node17&#45;&gt;Node7 -->
<g id="edge23_Node000017_Node000007" class="edge">
<title>Node17&#45;&gt;Node7</title>
<g id="a_edge23_Node000017_Node000007"><a xlink:title=" ">
<path fill="none" stroke="#63b8ff" d="M277.42,-96.23C306.3,-106.39 348.76,-123.02 382.75,-143.38 400.8,-154.18 419.18,-169.39 432.41,-181.23"/>
<polygon fill="#63b8ff" stroke="#63b8ff" points="429.82,-183.6 439.56,-187.77 434.55,-178.44 429.82,-183.6"/>
</a>
</g>
</g>
<!-- Node17&#45;&gt;Node8 -->
<g id="edge25_Node000017_Node000008" class="edge">
<title>Node17&#45;&gt;Node8</title>
<g id="a_edge25_Node000017_Node000008"><a xlink:title=" ">
<path fill="none" stroke="#63b8ff" d="M272.04,-74.54C319.71,-57.87 418.46,-31.87 486.5,-72.38 524.95,-95.27 543.26,-147.94 550.83,-177.76"/>
<polygon fill="#63b8ff" stroke="#63b8ff" points="547.34,-178.23 553.02,-187.17 554.16,-176.64 547.34,-178.23"/>
</a>
</g>
</g>
<!-- Node17&#45;&gt;Node9 -->
<g id="edge24_Node000017_Node000009" class="edge">
<title>Node17&#45;&gt;Node9</title>
<g id="a_edge24_Node000017_Node000009"><a xlink:title=" ">
<path fill="none" stroke="#63b8ff" d="M267.39,-96.04C271.6,-98.68 275.69,-101.79 279,-105.38 304.35,-132.84 297.65,-148.27 315,-181.38 321.44,-193.67 329.18,-207.13 335.52,-217.89"/>
<polygon fill="#63b8ff" stroke="#63b8ff" points="332.41,-219.5 340.53,-226.29 338.42,-215.91 332.41,-219.5"/>
</a>
</g>
</g>
<!-- Node17&#45;&gt;Node11 -->
<g id="edge26_Node000017_Node000011" class="edge">
<title>Node17&#45;&gt;Node11</title>
<g id="a_edge26_Node000017_Node000011"><a xlink:title=" ">
<path fill="none" stroke="#63b8ff" d="M277.56,-86.45C306.34,-88.35 348.57,-93.51 382.75,-107.38 435,-128.57 443.84,-143.5 486.5,-180.38 504.1,-195.59 504.4,-203.76 522.5,-218.38 523.77,-219.4 525.09,-220.41 526.45,-221.4"/>
<polygon fill="#63b8ff" stroke="#63b8ff" points="524.16,-224.08 534.42,-226.72 528.05,-218.26 524.16,-224.08"/>
</a>
</g>
</g>
<!-- Node18&#45;&gt;Node3 -->
<g id="edge30_Node000018_Node000003" class="edge">
<title>Node18&#45;&gt;Node3</title>
<g id="a_edge30_Node000018_Node000003"><a xlink:title=" ">
<path fill="none" stroke="#63b8ff" d="M166.67,-251.2C178.07,-255.6 191.44,-260.76 203.73,-265.51"/>
<polygon fill="#63b8ff" stroke="#63b8ff" points="202.18,-268.66 212.77,-269 204.7,-262.13 202.18,-268.66"/>
</a>
</g>
</g>
<!-- Node18&#45;&gt;Node6 -->
<g id="edge31_Node000018_Node000006" class="edge">
<title>Node18&#45;&gt;Node6</title>
<g id="a_edge31_Node000018_Node000006"><a xlink:title=" ">
<path fill="none" stroke="#63b8ff" d="M171.98,-240.7C180.12,-240.78 188.95,-240.86 197.52,-240.94"/>
<polygon fill="#63b8ff" stroke="#63b8ff" points="197.41,-244.44 207.44,-241.04 197.48,-237.44 197.41,-244.44"/>
</a>
</g>
</g>
<!-- Node18&#45;&gt;Node13 -->
<g id="edge32_Node000018_Node000013" class="edge">
<title>Node18&#45;&gt;Node13</title>
<g id="a_edge32_Node000018_Node000013"><a xlink:title=" ">
<path fill="none" stroke="#63b8ff" d="M168.04,-229.59C178.65,-225.7 190.82,-221.24 202.18,-217.07"/>
<polygon fill="#63b8ff" stroke="#63b8ff" points="203.15,-220.44 211.34,-213.71 200.74,-213.87 203.15,-220.44"/>
</a>
</g>
</g>
</g>
</svg>
