<?xml version="1.0" encoding="UTF-8" standalone="no"?>
<!DOCTYPE svg PUBLIC "-//W3C//DTD SVG 1.1//EN"
 "http://www.w3.org/Graphics/SVG/1.1/DTD/svg11.dtd">
<!-- Generated by graphviz version 12.2.1 (0)
 -->
<!-- Title: w2c__f553 Pages: 1 -->
<svg width="533pt" height="224pt"
 viewBox="0.00 0.00 532.75 223.75" xmlns="http://www.w3.org/2000/svg" xmlns:xlink="http://www.w3.org/1999/xlink">
<g id="graph0" class="graph" transform="scale(1 1) rotate(0) translate(4 219.75)">
<title>w2c__f553</title>
<!-- Node1 -->
<g id="Node000001" class="node">
<title>Node1</title>
<g id="a_Node000001"><a xlink:title=" ">
<polygon fill="#999999" stroke="#666666" points="524.75,-108.75 457,-108.75 457,-88 524.75,-88 524.75,-108.75"/>
<text text-anchor="middle" x="490.88" y="-95.25" font-family="Helvetica,sans-Serif" font-size="10.00">w2c__f553</text>
</a>
</g>
</g>
<!-- Node2 -->
<g id="Node000002" class="node">
<title>Node2</title>
<g id="a_Node000002"><a xlink:href="app_8c.html#a5ba72172e6af05360e11d7dc02410099" target="_top" xlink:title=" ">
<polygon fill="white" stroke="#666666" points="421,-108.75 353.25,-108.75 353.25,-88 421,-88 421,-108.75"/>
<text text-anchor="middle" x="387.12" y="-95.25" font-family="Helvetica,sans-Serif" font-size="10.00">w2c__f254</text>
</a>
</g>
</g>
<!-- Node1&#45;&gt;Node2 -->
<g id="edge1_Node000001_Node000002" class="edge">
<title>Node1&#45;&gt;Node2</title>
<g id="a_edge1_Node000001_Node000002"><a xlink:title=" ">
<path fill="none" stroke="#63b8ff" d="M445.32,-98.38C437.21,-98.38 428.88,-98.38 421.17,-98.38"/>
<polygon fill="#63b8ff" stroke="#63b8ff" points="445.04,-101.88 455.04,-98.38 445.04,-94.88 445.04,-101.88"/>
</a>
</g>
</g>
<!-- Node5 -->
<g id="Node000005" class="node">
<title>Node5</title>
<g id="a_Node000005"><a xlink:href="app_8c.html#a5677ffd129da8cd63b876545b8187d77" target="_top" xlink:title=" ">
<polygon fill="white" stroke="#666666" points="302.62,-176.75 234.88,-176.75 234.88,-156 302.62,-156 302.62,-176.75"/>
<text text-anchor="middle" x="268.75" y="-163.25" font-family="Helvetica,sans-Serif" font-size="10.00">w2c__f367</text>
</a>
</g>
</g>
<!-- Node1&#45;&gt;Node5 -->
<g id="edge11_Node000001_Node000005" class="edge">
<title>Node1&#45;&gt;Node5</title>
<g id="a_edge11_Node000001_Node000005"><a xlink:title=" ">
<path fill="none" stroke="#63b8ff" d="M446.15,-111.88C403.99,-124.91 341.12,-144.33 302.93,-156.13"/>
<polygon fill="#63b8ff" stroke="#63b8ff" points="446.95,-115.3 455.47,-109 444.89,-108.61 446.95,-115.3"/>
</a>
</g>
</g>
<!-- Node12 -->
<g id="Node000012" class="node">
<title>Node12</title>
<g id="a_Node000012"><a xlink:href="app_8c.html#a5623d4dbccf798b86433dae3f3d5983f" target="_top" xlink:title=" ">
<polygon fill="white" stroke="#666666" points="421,-50.75 353.25,-50.75 353.25,-30 421,-30 421,-50.75"/>
<text text-anchor="middle" x="387.12" y="-37.25" font-family="Helvetica,sans-Serif" font-size="10.00">w2c__f465</text>
</a>
</g>
</g>
<!-- Node1&#45;&gt;Node12 -->
<g id="edge12_Node000001_Node000012" class="edge">
<title>Node1&#45;&gt;Node12</title>
<g id="a_edge12_Node000001_Node000012"><a xlink:title=" ">
<path fill="none" stroke="#63b8ff" d="M461.56,-82.23C444.15,-72.31 422.33,-59.87 407.01,-51.14"/>
<polygon fill="#63b8ff" stroke="#63b8ff" points="459.48,-85.08 469.9,-86.99 462.94,-78.99 459.48,-85.08"/>
</a>
</g>
</g>
<!-- Node3 -->
<g id="Node000003" class="node">
<title>Node3</title>
<g id="a_Node000003"><a xlink:href="app_8c.html#aabc3b06c7f7daa21796552c728f0379b" target="_top" xlink:title=" ">
<polygon fill="white" stroke="#666666" points="302.62,-98.75 234.88,-98.75 234.88,-78 302.62,-78 302.62,-98.75"/>
<text text-anchor="middle" x="268.75" y="-85.25" font-family="Helvetica,sans-Serif" font-size="10.00">w2c__f270</text>
</a>
</g>
</g>
<!-- Node2&#45;&gt;Node3 -->
<g id="edge2_Node000002_Node000003" class="edge">
<title>Node2&#45;&gt;Node3</title>
<g id="a_edge2_Node000002_Node000003"><a xlink:title=" ">
<path fill="none" stroke="#63b8ff" d="M341.41,-94.53C328.68,-93.44 315.03,-92.27 303.1,-91.24"/>
<polygon fill="#63b8ff" stroke="#63b8ff" points="341.01,-98.01 351.27,-95.38 341.61,-91.04 341.01,-98.01"/>
</a>
</g>
</g>
<!-- Node2&#45;&gt;Node5 -->
<g id="edge4_Node000002_Node000005" class="edge">
<title>Node2&#45;&gt;Node5</title>
<g id="a_edge4_Node000002_Node000005"><a xlink:title=" ">
<path fill="none" stroke="#63b8ff" d="M363.29,-116.1C350.25,-125.76 333.32,-137.52 317.25,-146.38 311.22,-149.7 304.51,-152.83 298.09,-155.59"/>
<polygon fill="#63b8ff" stroke="#63b8ff" points="365.35,-118.93 371.23,-110.12 361.14,-113.34 365.35,-118.93"/>
</a>
</g>
</g>
<!-- Node9 -->
<g id="Node000009" class="node">
<title>Node9</title>
<g id="a_Node000009"><a xlink:href="app_8c.html#aa5aa96620823a66d02f16f4abcd5e0fe" target="_top" xlink:title=" ">
<polygon fill="white" stroke="#666666" points="302.62,-137.75 234.88,-137.75 234.88,-117 302.62,-117 302.62,-137.75"/>
<text text-anchor="middle" x="268.75" y="-124.25" font-family="Helvetica,sans-Serif" font-size="10.00">w2c__f371</text>
</a>
</g>
</g>
<!-- Node2&#45;&gt;Node9 -->
<g id="edge8_Node000002_Node000009" class="edge">
<title>Node2&#45;&gt;Node9</title>
<g id="a_edge8_Node000002_Node000009"><a xlink:title=" ">
<path fill="none" stroke="#63b8ff" d="M341.8,-109.42C328.96,-112.62 315.16,-116.06 303.1,-119.06"/>
<polygon fill="#63b8ff" stroke="#63b8ff" points="342.45,-112.87 351.31,-107.05 340.76,-106.07 342.45,-112.87"/>
</a>
</g>
</g>
<!-- Node11 -->
<g id="Node000011" class="node">
<title>Node11</title>
<g id="a_Node000011"><a xlink:href="app_8c.html#ac0e1b774a42cdf6a23eaeb0f420d6fa8" target="_top" xlink:title=" ">
<polygon fill="white" stroke="#666666" points="317.25,-59.75 220.25,-59.75 220.25,-39 317.25,-39 317.25,-59.75"/>
<text text-anchor="middle" x="268.75" y="-46.25" font-family="Helvetica,sans-Serif" font-size="10.00">wrap_w2c__f254</text>
</a>
</g>
</g>
<!-- Node2&#45;&gt;Node11 -->
<g id="edge10_Node000002_Node000011" class="edge">
<title>Node2&#45;&gt;Node11</title>
<g id="a_edge10_Node000002_Node000011"><a xlink:title=" ">
<path fill="none" stroke="#63b8ff" d="M349.81,-83.08C332.2,-75.67 311.46,-66.94 295.51,-60.22"/>
<polygon fill="#63b8ff" stroke="#63b8ff" points="348.33,-86.26 358.9,-86.91 351.04,-79.81 348.33,-86.26"/>
</a>
</g>
</g>
<!-- Node4 -->
<g id="Node000004" class="node">
<title>Node4</title>
<g id="a_Node000004"><a xlink:href="app_8c.html#a54f194530158831aa826ddabfd869e3f" target="_top" xlink:title=" ">
<polygon fill="white" stroke="#666666" points="184.25,-98.75 87.25,-98.75 87.25,-78 184.25,-78 184.25,-98.75"/>
<text text-anchor="middle" x="135.75" y="-85.25" font-family="Helvetica,sans-Serif" font-size="10.00">wrap_w2c__f270</text>
</a>
</g>
</g>
<!-- Node3&#45;&gt;Node4 -->
<g id="edge3_Node000003_Node000004" class="edge">
<title>Node3&#45;&gt;Node4</title>
<g id="a_edge3_Node000003_Node000004"><a xlink:title=" ">
<path fill="none" stroke="#63b8ff" d="M223.2,-88.38C210.78,-88.38 197.25,-88.38 184.65,-88.38"/>
<polygon fill="#63b8ff" stroke="#63b8ff" points="223.18,-91.88 233.18,-88.38 223.18,-84.88 223.18,-91.88"/>
</a>
</g>
</g>
<!-- Node6 -->
<g id="Node000006" class="node">
<title>Node6</title>
<g id="a_Node000006"><a xlink:href="app_8c.html#ac863989691d4c389f80374209c220171" target="_top" xlink:title=" ">
<polygon fill="white" stroke="#666666" points="167,-215.75 104.5,-215.75 104.5,-195 167,-195 167,-215.75"/>
<text text-anchor="middle" x="135.75" y="-202.25" font-family="Helvetica,sans-Serif" font-size="10.00">w2c__c_0</text>
</a>
</g>
</g>
<!-- Node5&#45;&gt;Node6 -->
<g id="edge5_Node000005_Node000006" class="edge">
<title>Node5&#45;&gt;Node6</title>
<g id="a_edge5_Node000005_Node000006"><a xlink:title=" ">
<path fill="none" stroke="#63b8ff" d="M223.79,-179.46C205.17,-185.01 183.94,-191.33 167.1,-196.34"/>
<polygon fill="#63b8ff" stroke="#63b8ff" points="224.66,-182.86 233.24,-176.65 222.66,-176.15 224.66,-182.86"/>
</a>
</g>
</g>
<!-- Node8 -->
<g id="Node000008" class="node">
<title>Node8</title>
<g id="a_Node000008"><a xlink:href="app_8c.html#a8f64ccad6c506a1ca514ba4f43e5211c" target="_top" xlink:title=" ">
<polygon fill="white" stroke="#666666" points="184.25,-176.75 87.25,-176.75 87.25,-156 184.25,-156 184.25,-176.75"/>
<text text-anchor="middle" x="135.75" y="-163.25" font-family="Helvetica,sans-Serif" font-size="10.00">wrap_w2c__f367</text>
</a>
</g>
</g>
<!-- Node5&#45;&gt;Node8 -->
<g id="edge7_Node000005_Node000008" class="edge">
<title>Node5&#45;&gt;Node8</title>
<g id="a_edge7_Node000005_Node000008"><a xlink:title=" ">
<path fill="none" stroke="#63b8ff" d="M223.2,-166.38C210.78,-166.38 197.25,-166.38 184.65,-166.38"/>
<polygon fill="#63b8ff" stroke="#63b8ff" points="223.18,-169.88 233.18,-166.38 223.18,-162.88 223.18,-169.88"/>
</a>
</g>
</g>
<!-- Node7 -->
<g id="Node000007" class="node">
<title>Node7</title>
<g id="a_Node000007"><a xlink:href="app_8c.html#ab1e039392ea68017ab8a6063263b147d" target="_top" xlink:title=" ">
<polygon fill="white" stroke="#666666" points="51.25,-215.75 0,-215.75 0,-195 51.25,-195 51.25,-215.75"/>
<text text-anchor="middle" x="25.62" y="-202.25" font-family="Helvetica,sans-Serif" font-size="10.00">w2c__c</text>
</a>
</g>
</g>
<!-- Node6&#45;&gt;Node7 -->
<g id="edge6_Node000006_Node000007" class="edge">
<title>Node6&#45;&gt;Node7</title>
<g id="a_edge6_Node000006_Node000007"><a xlink:title=" ">
<path fill="none" stroke="#63b8ff" d="M92.72,-205.38C78.81,-205.38 63.78,-205.38 51.57,-205.38"/>
<polygon fill="#63b8ff" stroke="#63b8ff" points="92.54,-208.88 102.54,-205.38 92.54,-201.88 92.54,-208.88"/>
</a>
</g>
</g>
<!-- Node10 -->
<g id="Node000010" class="node">
<title>Node10</title>
<g id="a_Node000010"><a xlink:href="app_8c.html#a70f34b1bc2ae815ea8aa822e2de375d8" target="_top" xlink:title=" ">
<polygon fill="white" stroke="#666666" points="184.25,-137.75 87.25,-137.75 87.25,-117 184.25,-117 184.25,-137.75"/>
<text text-anchor="middle" x="135.75" y="-124.25" font-family="Helvetica,sans-Serif" font-size="10.00">wrap_w2c__f371</text>
</a>
</g>
</g>
<!-- Node9&#45;&gt;Node10 -->
<g id="edge9_Node000009_Node000010" class="edge">
<title>Node9&#45;&gt;Node10</title>
<g id="a_edge9_Node000009_Node000010"><a xlink:title=" ">
<path fill="none" stroke="#63b8ff" d="M223.2,-127.38C210.78,-127.38 197.25,-127.38 184.65,-127.38"/>
<polygon fill="#63b8ff" stroke="#63b8ff" points="223.18,-130.88 233.18,-127.38 223.18,-123.88 223.18,-130.88"/>
</a>
</g>
</g>
<!-- Node13 -->
<g id="Node000013" class="node">
<title>Node13</title>
<g id="a_Node000013"><a xlink:href="app_8c.html#af02f0bee35b84918cf19e0ee77ab3ee7" target="_top" xlink:title=" ">
<polygon fill="white" stroke="#666666" points="317.25,-20.75 220.25,-20.75 220.25,0 317.25,0 317.25,-20.75"/>
<text text-anchor="middle" x="268.75" y="-7.25" font-family="Helvetica,sans-Serif" font-size="10.00">wrap_w2c__f465</text>
</a>
</g>
</g>
<!-- Node12&#45;&gt;Node13 -->
<g id="edge13_Node000012_Node000013" class="edge">
<title>Node12&#45;&gt;Node13</title>
<g id="a_edge13_Node000012_Node000013"><a xlink:title=" ">
<path fill="none" stroke="#63b8ff" d="M341.93,-28.98C332.06,-26.44 321.61,-23.74 311.82,-21.22"/>
<polygon fill="#63b8ff" stroke="#63b8ff" points="340.75,-32.29 351.31,-31.4 342.5,-25.51 340.75,-32.29"/>
</a>
</g>
</g>
</g>
</svg>
