<?xml version="1.0" encoding="UTF-8" standalone="no"?>
<!DOCTYPE svg PUBLIC "-//W3C//DTD SVG 1.1//EN"
 "http://www.w3.org/Graphics/SVG/1.1/DTD/svg11.dtd">
<!-- Generated by graphviz version 12.2.1 (0)
 -->
<!-- Title: w2c__f214 Pages: 1 -->
<svg width="391pt" height="68pt"
 viewBox="0.00 0.00 390.75 67.75" xmlns="http://www.w3.org/2000/svg" xmlns:xlink="http://www.w3.org/1999/xlink">
<g id="graph0" class="graph" transform="scale(1 1) rotate(0) translate(4 63.75)">
<title>w2c__f214</title>
<!-- Node1 -->
<g id="Node000001" class="node">
<title>Node1</title>
<g id="a_Node000001"><a xlink:title=" ">
<polygon fill="#999999" stroke="#666666" points="67.75,-40.75 0,-40.75 0,-20 67.75,-20 67.75,-40.75"/>
<text text-anchor="middle" x="33.88" y="-27.25" font-family="Helvetica,sans-Serif" font-size="10.00">w2c__f214</text>
</a>
</g>
</g>
<!-- Node2 -->
<g id="Node000002" class="node">
<title>Node2</title>
<g id="a_Node000002"><a xlink:href="app_8c.html#a7be8ab7b31b3b025b7b4ebe6ad652b00" target="_top" xlink:title=" ">
<polygon fill="white" stroke="#666666" points="171.5,-21.75 103.75,-21.75 103.75,-1 171.5,-1 171.5,-21.75"/>
<text text-anchor="middle" x="137.62" y="-8.25" font-family="Helvetica,sans-Serif" font-size="10.00">w2c__f501</text>
</a>
</g>
</g>
<!-- Node1&#45;&gt;Node2 -->
<g id="edge1_Node000001_Node000002" class="edge">
<title>Node1&#45;&gt;Node2</title>
<g id="a_edge1_Node000001_Node000002"><a xlink:title=" ">
<path fill="none" stroke="#63b8ff" d="M68.19,-24.15C75.91,-22.71 84.25,-21.16 92.36,-19.64"/>
<polygon fill="#63b8ff" stroke="#63b8ff" points="92.91,-23.1 102.09,-17.82 91.62,-16.22 92.91,-23.1"/>
</a>
</g>
</g>
<!-- Node3 -->
<g id="Node000003" class="node">
<title>Node3</title>
<g id="a_Node000003"><a xlink:href="app_8c.html#ad63b6498cfe22ce747f349eeb23b508f" target="_top" xlink:title=" ">
<polygon fill="white" stroke="#666666" points="280.88,-59.75 209.38,-59.75 209.38,-39 280.88,-39 280.88,-59.75"/>
<text text-anchor="middle" x="245.12" y="-46.25" font-family="Helvetica,sans-Serif" font-size="10.00">wasm_fabs</text>
</a>
</g>
</g>
<!-- Node1&#45;&gt;Node3 -->
<g id="edge5_Node000001_Node000003" class="edge">
<title>Node1&#45;&gt;Node3</title>
<g id="a_edge5_Node000001_Node000003"><a xlink:title=" ">
<path fill="none" stroke="#63b8ff" d="M68.03,-33.39C102.99,-36.56 158.33,-41.59 197.64,-45.15"/>
<polygon fill="#63b8ff" stroke="#63b8ff" points="197.25,-48.63 207.52,-46.05 197.88,-41.66 197.25,-48.63"/>
</a>
</g>
</g>
<!-- Node2&#45;&gt;Node3 -->
<g id="edge2_Node000002_Node000003" class="edge">
<title>Node2&#45;&gt;Node3</title>
<g id="a_edge2_Node000002_Node000003"><a xlink:title=" ">
<path fill="none" stroke="#63b8ff" d="M168.57,-22.16C179.38,-26.05 191.76,-30.51 203.33,-34.68"/>
<polygon fill="#63b8ff" stroke="#63b8ff" points="202.08,-37.95 212.68,-38.05 204.45,-31.37 202.08,-37.95"/>
</a>
</g>
</g>
<!-- Node4 -->
<g id="Node000004" class="node">
<title>Node4</title>
<g id="a_Node000004"><a xlink:href="app_8c.html#abe22e959f965cb0fbcf5b83be18fbe1e" target="_top" xlink:title=" ">
<polygon fill="white" stroke="#666666" points="282.75,-20.75 207.5,-20.75 207.5,0 282.75,0 282.75,-20.75"/>
<text text-anchor="middle" x="245.12" y="-7.25" font-family="Helvetica,sans-Serif" font-size="10.00">wasm_quiet</text>
</a>
</g>
</g>
<!-- Node2&#45;&gt;Node4 -->
<g id="edge3_Node000002_Node000004" class="edge">
<title>Node2&#45;&gt;Node4</title>
<g id="a_edge3_Node000002_Node000004"><a xlink:title=" ">
<path fill="none" stroke="#63b8ff" d="M171.72,-11.06C179.36,-10.99 187.64,-10.91 195.78,-10.83"/>
<polygon fill="#63b8ff" stroke="#63b8ff" points="195.63,-14.33 205.6,-10.74 195.57,-7.34 195.63,-14.33"/>
</a>
</g>
</g>
<!-- Node5 -->
<g id="Node000005" class="node">
<title>Node5</title>
<g id="a_Node000005"><a xlink:href="app_8c.html#ae10979e670e507d4373e8cadcb3169aa" target="_top" xlink:title=" ">
<polygon fill="white" stroke="#666666" points="382.75,-20.75 318.75,-20.75 318.75,0 382.75,0 382.75,-20.75"/>
<text text-anchor="middle" x="350.75" y="-7.25" font-family="Helvetica,sans-Serif" font-size="10.00">quiet_nan</text>
</a>
</g>
</g>
<!-- Node4&#45;&gt;Node5 -->
<g id="edge4_Node000004_Node000005" class="edge">
<title>Node4&#45;&gt;Node5</title>
<g id="a_edge4_Node000004_Node000005"><a xlink:title=" ">
<path fill="none" stroke="#63b8ff" d="M283.24,-10.38C290.97,-10.38 299.17,-10.38 307.08,-10.38"/>
<polygon fill="#63b8ff" stroke="#63b8ff" points="306.85,-13.88 316.85,-10.38 306.85,-6.88 306.85,-13.88"/>
</a>
</g>
</g>
</g>
</svg>
