<?xml version="1.0" encoding="UTF-8" standalone="no"?>
<!DOCTYPE svg PUBLIC "-//W3C//DTD SVG 1.1//EN"
 "http://www.w3.org/Graphics/SVG/1.1/DTD/svg11.dtd">
<!-- Generated by graphviz version 12.2.1 (0)
 -->
<!-- Title: w2c__f224 Pages: 1 -->
<svg width="698pt" height="153pt"
 viewBox="0.00 0.00 698.25 153.38" xmlns="http://www.w3.org/2000/svg" xmlns:xlink="http://www.w3.org/1999/xlink">
<g id="graph0" class="graph" transform="scale(1 1) rotate(0) translate(4 149.38)">
<title>w2c__f224</title>
<!-- Node1 -->
<g id="Node000001" class="node">
<title>Node1</title>
<g id="a_Node000001"><a xlink:title=" ">
<polygon fill="#999999" stroke="#666666" points="67.75,-136.75 0,-136.75 0,-116 67.75,-116 67.75,-136.75"/>
<text text-anchor="middle" x="33.88" y="-123.25" font-family="Helvetica,sans-Serif" font-size="10.00">w2c__f224</text>
</a>
</g>
</g>
<!-- Node2 -->
<g id="Node000002" class="node">
<title>Node2</title>
<g id="a_Node000002"><a xlink:href="app_8c.html#a800df00ef236c6d6affc3c661b37e3ad" target="_top" xlink:title=" ">
<polygon fill="white" stroke="#666666" points="586.5,-137.75 518.75,-137.75 518.75,-117 586.5,-117 586.5,-137.75"/>
<text text-anchor="middle" x="552.62" y="-124.25" font-family="Helvetica,sans-Serif" font-size="10.00">w2c__f487</text>
</a>
</g>
</g>
<!-- Node1&#45;&gt;Node2 -->
<g id="edge1_Node000001_Node000002" class="edge">
<title>Node1&#45;&gt;Node2</title>
<g id="a_edge1_Node000001_Node000002"><a xlink:title=" ">
<path fill="none" stroke="#63b8ff" d="M68.25,-131.37C108.83,-137 179.47,-145.38 240.38,-145.38 240.38,-145.38 240.38,-145.38 346.12,-145.38 401.82,-145.38 465.68,-138.73 507.24,-133.52"/>
<polygon fill="#63b8ff" stroke="#63b8ff" points="507.63,-137 517.1,-132.25 506.74,-130.05 507.63,-137"/>
</a>
</g>
</g>
<!-- Node4 -->
<g id="Node000004" class="node">
<title>Node4</title>
<g id="a_Node000004"><a xlink:href="app_8c.html#a5143f7bebd925f0663756f10aef87ef0" target="_top" xlink:title=" ">
<polygon fill="white" stroke="#666666" points="171.5,-117.75 103.75,-117.75 103.75,-97 171.5,-97 171.5,-117.75"/>
<text text-anchor="middle" x="137.62" y="-104.25" font-family="Helvetica,sans-Serif" font-size="10.00">w2c__f570</text>
</a>
</g>
</g>
<!-- Node1&#45;&gt;Node4 -->
<g id="edge3_Node000001_Node000004" class="edge">
<title>Node1&#45;&gt;Node4</title>
<g id="a_edge3_Node000001_Node000004"><a xlink:title=" ">
<path fill="none" stroke="#63b8ff" d="M68.19,-120.15C75.91,-118.71 84.25,-117.16 92.36,-115.64"/>
<polygon fill="#63b8ff" stroke="#63b8ff" points="92.91,-119.1 102.09,-113.82 91.62,-112.22 92.91,-119.1"/>
</a>
</g>
</g>
<!-- Node3 -->
<g id="Node000003" class="node">
<title>Node3</title>
<g id="a_Node000003"><a xlink:href="app_8c.html#a71bcbce7faf780cd081af3fa82d6da97" target="_top" xlink:title=" ">
<polygon fill="white" stroke="#666666" points="690.25,-59.75 622.5,-59.75 622.5,-39 690.25,-39 690.25,-59.75"/>
<text text-anchor="middle" x="656.38" y="-46.25" font-family="Helvetica,sans-Serif" font-size="10.00">w2c__f437</text>
</a>
</g>
</g>
<!-- Node2&#45;&gt;Node3 -->
<g id="edge2_Node000002_Node000003" class="edge">
<title>Node2&#45;&gt;Node3</title>
<g id="a_edge2_Node000002_Node000003"><a xlink:title=" ">
<path fill="none" stroke="#63b8ff" d="M572.38,-116.65C577.08,-113.77 582.05,-110.57 586.5,-107.38 603.62,-95.07 621.82,-79.63 635.21,-67.78"/>
<polygon fill="#63b8ff" stroke="#63b8ff" points="637.4,-70.51 642.51,-61.23 632.72,-65.3 637.4,-70.51"/>
</a>
</g>
</g>
<!-- Node4&#45;&gt;Node2 -->
<g id="edge17_Node000004_Node000002" class="edge">
<title>Node4&#45;&gt;Node2</title>
<g id="a_edge17_Node000004_Node000002"><a xlink:title=" ">
<path fill="none" stroke="#63b8ff" d="M171.72,-108.98C245.51,-112.55 423.51,-121.17 507,-125.21"/>
<polygon fill="#63b8ff" stroke="#63b8ff" points="506.7,-128.7 516.86,-125.69 507.04,-121.71 506.7,-128.7"/>
</a>
</g>
</g>
<!-- Node5 -->
<g id="Node000005" class="node">
<title>Node5</title>
<g id="a_Node000005"><a xlink:href="app_8c.html#a986f1214d53a515b2b887b8f988fa6a1" target="_top" xlink:title=" ">
<polygon fill="white" stroke="#666666" points="275.25,-79.75 207.5,-79.75 207.5,-59 275.25,-59 275.25,-79.75"/>
<text text-anchor="middle" x="241.38" y="-66.25" font-family="Helvetica,sans-Serif" font-size="10.00">w2c__f365</text>
</a>
</g>
</g>
<!-- Node4&#45;&gt;Node5 -->
<g id="edge4_Node000004_Node000005" class="edge">
<title>Node4&#45;&gt;Node5</title>
<g id="a_edge4_Node000004_Node000005"><a xlink:title=" ">
<path fill="none" stroke="#63b8ff" d="M167.51,-96.59C177.82,-92.74 189.63,-88.33 200.69,-84.2"/>
<polygon fill="#63b8ff" stroke="#63b8ff" points="201.86,-87.5 210,-80.72 199.41,-80.94 201.86,-87.5"/>
</a>
</g>
</g>
<!-- Node6 -->
<g id="Node000006" class="node">
<title>Node6</title>
<g id="a_Node000006"><a xlink:href="app_8c.html#a14e021d2f1b59e04757852f66bff1044" target="_top" xlink:title=" ">
<polygon fill="white" stroke="#666666" points="379,-79.75 311.25,-79.75 311.25,-59 379,-59 379,-79.75"/>
<text text-anchor="middle" x="345.12" y="-66.25" font-family="Helvetica,sans-Serif" font-size="10.00">w2c__f511</text>
</a>
</g>
</g>
<!-- Node5&#45;&gt;Node6 -->
<g id="edge5_Node000005_Node000006" class="edge">
<title>Node5&#45;&gt;Node6</title>
<g id="a_edge5_Node000005_Node000006"><a xlink:title=" ">
<path fill="none" stroke="#63b8ff" d="M275.69,-69.38C283.32,-69.38 291.56,-69.38 299.58,-69.38"/>
<polygon fill="#63b8ff" stroke="#63b8ff" points="299.57,-72.88 309.57,-69.38 299.57,-65.88 299.57,-72.88"/>
</a>
</g>
</g>
<!-- Node7 -->
<g id="Node000007" class="node">
<title>Node7</title>
<g id="a_Node000007"><a xlink:href="app_8c.html#aa58fd7f1d3aab8404d7f71d334a8a108" target="_top" xlink:title=" ">
<polygon fill="white" stroke="#666666" points="482.75,-40.75 415,-40.75 415,-20 482.75,-20 482.75,-40.75"/>
<text text-anchor="middle" x="448.88" y="-27.25" font-family="Helvetica,sans-Serif" font-size="10.00">w2c__f211</text>
</a>
</g>
</g>
<!-- Node6&#45;&gt;Node7 -->
<g id="edge6_Node000006_Node000007" class="edge">
<title>Node6&#45;&gt;Node7</title>
<g id="a_edge6_Node000006_Node000007"><a xlink:title=" ">
<path fill="none" stroke="#63b8ff" d="M374.47,-58.51C385.16,-54.41 397.52,-49.67 409.01,-45.27"/>
<polygon fill="#63b8ff" stroke="#63b8ff" points="410.19,-48.57 418.27,-41.72 407.68,-42.03 410.19,-48.57"/>
</a>
</g>
</g>
<!-- Node11 -->
<g id="Node000011" class="node">
<title>Node11</title>
<g id="a_Node000011"><a xlink:href="app_8c.html#a8c90e9acf2d5915eb0476bc13964c4db" target="_top" xlink:title=" ">
<polygon fill="white" stroke="#666666" points="482.75,-79.75 415,-79.75 415,-59 482.75,-59 482.75,-79.75"/>
<text text-anchor="middle" x="448.88" y="-66.25" font-family="Helvetica,sans-Serif" font-size="10.00">w2c__f345</text>
</a>
</g>
</g>
<!-- Node6&#45;&gt;Node11 -->
<g id="edge12_Node000006_Node000011" class="edge">
<title>Node6&#45;&gt;Node11</title>
<g id="a_edge12_Node000006_Node000011"><a xlink:title=" ">
<path fill="none" stroke="#63b8ff" d="M379.44,-69.38C387.07,-69.38 395.31,-69.38 403.33,-69.38"/>
<polygon fill="#63b8ff" stroke="#63b8ff" points="403.32,-72.88 413.32,-69.38 403.32,-65.88 403.32,-72.88"/>
</a>
</g>
</g>
<!-- Node8 -->
<g id="Node000008" class="node">
<title>Node8</title>
<g id="a_Node000008"><a xlink:href="app_8c.html#a03fa34d93d32a3ee40dfc2d840730111" target="_top" xlink:title=" ">
<polygon fill="white" stroke="#666666" points="586.5,-20.75 518.75,-20.75 518.75,0 586.5,0 586.5,-20.75"/>
<text text-anchor="middle" x="552.62" y="-7.25" font-family="Helvetica,sans-Serif" font-size="10.00">w2c__f262</text>
</a>
</g>
</g>
<!-- Node7&#45;&gt;Node8 -->
<g id="edge7_Node000007_Node000008" class="edge">
<title>Node7&#45;&gt;Node8</title>
<g id="a_edge7_Node000007_Node000008"><a xlink:title=" ">
<path fill="none" stroke="#63b8ff" d="M483.19,-23.83C490.91,-22.31 499.25,-20.67 507.36,-19.08"/>
<polygon fill="#63b8ff" stroke="#63b8ff" points="507.96,-22.53 517.1,-17.16 506.61,-15.66 507.96,-22.53"/>
</a>
</g>
</g>
<!-- Node10 -->
<g id="Node000010" class="node">
<title>Node10</title>
<g id="a_Node000010"><a xlink:href="app_8c.html#a31b08a294227a9fc0a529e66ccd915dc" target="_top" xlink:title=" ">
<polygon fill="white" stroke="#666666" points="586.5,-59.75 518.75,-59.75 518.75,-39 586.5,-39 586.5,-59.75"/>
<text text-anchor="middle" x="552.62" y="-46.25" font-family="Helvetica,sans-Serif" font-size="10.00">w2c__f325</text>
</a>
</g>
</g>
<!-- Node7&#45;&gt;Node10 -->
<g id="edge10_Node000007_Node000010" class="edge">
<title>Node7&#45;&gt;Node10</title>
<g id="a_edge10_Node000007_Node000010"><a xlink:title=" ">
<path fill="none" stroke="#63b8ff" d="M483.19,-36.6C490.91,-38.04 499.25,-39.59 507.36,-41.11"/>
<polygon fill="#63b8ff" stroke="#63b8ff" points="506.62,-44.53 517.09,-42.93 507.91,-37.65 506.62,-44.53"/>
</a>
</g>
</g>
<!-- Node8&#45;&gt;Node3 -->
<g id="edge9_Node000008_Node000003" class="edge">
<title>Node8&#45;&gt;Node3</title>
<g id="a_edge9_Node000008_Node000003"><a xlink:title=" ">
<path fill="none" stroke="#63b8ff" d="M581.97,-21.24C592.66,-25.34 605.02,-30.08 616.51,-34.48"/>
<polygon fill="#63b8ff" stroke="#63b8ff" points="615.18,-37.72 625.77,-38.03 617.69,-31.18 615.18,-37.72"/>
</a>
</g>
</g>
<!-- Node9 -->
<g id="Node000009" class="node">
<title>Node9</title>
<g id="a_Node000009"><a xlink:href="app_8c.html#a16207b5f7a97b0ecfddd231452c5aa7e" target="_top" xlink:title=" ">
<polygon fill="white" stroke="#666666" points="690.25,-20.75 622.5,-20.75 622.5,0 690.25,0 690.25,-20.75"/>
<text text-anchor="middle" x="656.38" y="-7.25" font-family="Helvetica,sans-Serif" font-size="10.00">w2c__f263</text>
</a>
</g>
</g>
<!-- Node8&#45;&gt;Node9 -->
<g id="edge8_Node000008_Node000009" class="edge">
<title>Node8&#45;&gt;Node9</title>
<g id="a_edge8_Node000008_Node000009"><a xlink:title=" ">
<path fill="none" stroke="#63b8ff" d="M586.94,-10.38C594.57,-10.38 602.81,-10.38 610.83,-10.38"/>
<polygon fill="#63b8ff" stroke="#63b8ff" points="610.82,-13.88 620.82,-10.38 610.82,-6.88 610.82,-13.88"/>
</a>
</g>
</g>
<!-- Node10&#45;&gt;Node3 -->
<g id="edge11_Node000010_Node000003" class="edge">
<title>Node10&#45;&gt;Node3</title>
<g id="a_edge11_Node000010_Node000003"><a xlink:title=" ">
<path fill="none" stroke="#63b8ff" d="M586.94,-49.38C594.57,-49.38 602.81,-49.38 610.83,-49.38"/>
<polygon fill="#63b8ff" stroke="#63b8ff" points="610.82,-52.88 620.82,-49.38 610.82,-45.88 610.82,-52.88"/>
</a>
</g>
</g>
<!-- Node11&#45;&gt;Node2 -->
<g id="edge15_Node000011_Node000002" class="edge">
<title>Node11&#45;&gt;Node2</title>
<g id="a_edge15_Node000011_Node000002"><a xlink:title=" ">
<path fill="none" stroke="#63b8ff" d="M468.54,-80.01C483.79,-88.71 505.6,-101.14 523.05,-111.09"/>
<polygon fill="#63b8ff" stroke="#63b8ff" points="521,-113.95 531.42,-115.86 524.47,-107.87 521,-113.95"/>
</a>
</g>
</g>
<!-- Node11&#45;&gt;Node8 -->
<g id="edge13_Node000011_Node000008" class="edge">
<title>Node11&#45;&gt;Node8</title>
<g id="a_edge13_Node000011_Node000008"><a xlink:title=" ">
<path fill="none" stroke="#63b8ff" d="M468.54,-58.55C483.88,-49.65 505.88,-36.9 523.38,-26.75"/>
<polygon fill="#63b8ff" stroke="#63b8ff" points="524.88,-29.93 531.77,-21.89 521.36,-23.88 524.88,-29.93"/>
</a>
</g>
</g>
<!-- Node11&#45;&gt;Node10 -->
<g id="edge14_Node000011_Node000010" class="edge">
<title>Node11&#45;&gt;Node10</title>
<g id="a_edge14_Node000011_Node000010"><a xlink:title=" ">
<path fill="none" stroke="#63b8ff" d="M483.19,-62.83C490.91,-61.31 499.25,-59.67 507.36,-58.08"/>
<polygon fill="#63b8ff" stroke="#63b8ff" points="507.96,-61.53 517.1,-56.16 506.61,-54.66 507.96,-61.53"/>
</a>
</g>
</g>
<!-- Node12 -->
<g id="Node000012" class="node">
<title>Node12</title>
<g id="a_Node000012"><a xlink:href="app_8c.html#a0e0dad0ebc52e45eeff2e1b5d8389ea4" target="_top" xlink:title=" ">
<polygon fill="white" stroke="#666666" points="586.5,-98.75 518.75,-98.75 518.75,-78 586.5,-78 586.5,-98.75"/>
<text text-anchor="middle" x="552.62" y="-85.25" font-family="Helvetica,sans-Serif" font-size="10.00">w2c__f534</text>
</a>
</g>
</g>
<!-- Node11&#45;&gt;Node12 -->
<g id="edge16_Node000011_Node000012" class="edge">
<title>Node11&#45;&gt;Node12</title>
<g id="a_edge16_Node000011_Node000012"><a xlink:title=" ">
<path fill="none" stroke="#63b8ff" d="M483.19,-75.6C490.91,-77.04 499.25,-78.59 507.36,-80.11"/>
<polygon fill="#63b8ff" stroke="#63b8ff" points="506.62,-83.53 517.09,-81.93 507.91,-76.65 506.62,-83.53"/>
</a>
</g>
</g>
</g>
</svg>
