<?xml version="1.0" encoding="UTF-8" standalone="no"?>
<!DOCTYPE svg PUBLIC "-//W3C//DTD SVG 1.1//EN"
 "http://www.w3.org/Graphics/SVG/1.1/DTD/svg11.dtd">
<!-- Generated by graphviz version 12.2.1 (0)
 -->
<!-- Title: wasm_truncf Pages: 1 -->
<svg width="191pt" height="47pt"
 viewBox="0.00 0.00 190.75 46.75" xmlns="http://www.w3.org/2000/svg" xmlns:xlink="http://www.w3.org/1999/xlink">
<g id="graph0" class="graph" transform="scale(1 1) rotate(0) translate(4 42.75)">
<title>wasm_truncf</title>
<!-- Node1 -->
<g id="Node000001" class="node">
<title>Node1</title>
<g id="a_Node000001"><a xlink:title=" ">
<polygon fill="#999999" stroke="#666666" points="79,-20.75 0,-20.75 0,0 79,0 79,-20.75"/>
<text text-anchor="middle" x="39.5" y="-7.25" font-family="Helvetica,sans-Serif" font-size="10.00">wasm_truncf</text>
</a>
</g>
</g>
<!-- Node2 -->
<g id="Node000002" class="node">
<title>Node2</title>
<g id="a_Node000002"><a xlink:href="app_8c.html#a6bbbe889100dc6eac42b2215653172ea" target="_top" xlink:title=" ">
<polygon fill="white" stroke="#666666" points="182.75,-20.75 115,-20.75 115,0 182.75,0 182.75,-20.75"/>
<text text-anchor="middle" x="148.88" y="-7.25" font-family="Helvetica,sans-Serif" font-size="10.00">quiet_nanf</text>
</a>
</g>
</g>
<!-- Node1&#45;&gt;Node2 -->
<g id="edge1_Node000001_Node000002" class="edge">
<title>Node1&#45;&gt;Node2</title>
<g id="a_edge1_Node000001_Node000002"><a xlink:title=" ">
<path fill="none" stroke="#63b8ff" d="M79.26,-10.38C87.09,-10.38 95.38,-10.38 103.39,-10.38"/>
<polygon fill="#63b8ff" stroke="#63b8ff" points="103.32,-13.88 113.32,-10.38 103.32,-6.88 103.32,-13.88"/>
</a>
</g>
</g>
<!-- Node2&#45;&gt;Node2 -->
<g id="edge2_Node000002_Node000002" class="edge">
<title>Node2&#45;&gt;Node2</title>
<g id="a_edge2_Node000002_Node000002"><a xlink:title=" ">
<path fill="none" stroke="#63b8ff" d="M131.25,-21.15C124.2,-29.81 130.08,-38.75 148.88,-38.75 158.86,-38.75 165.2,-36.23 167.89,-32.56"/>
<polygon fill="#63b8ff" stroke="#63b8ff" points="171.37,-32.15 166.68,-22.65 164.42,-33 171.37,-32.15"/>
</a>
</g>
</g>
</g>
</svg>
