<?xml version="1.0" encoding="UTF-8" standalone="no"?>
<!DOCTYPE svg PUBLIC "-//W3C//DTD SVG 1.1//EN"
 "http://www.w3.org/Graphics/SVG/1.1/DTD/svg11.dtd">
<!-- Generated by graphviz version 12.2.1 (0)
 -->
<!-- Title: wrap_w2c__f205 Pages: 1 -->
<svg width="737pt" height="457pt"
 viewBox="0.00 0.00 737.25 456.75" xmlns="http://www.w3.org/2000/svg" xmlns:xlink="http://www.w3.org/1999/xlink">
<g id="graph0" class="graph" transform="scale(1 1) rotate(0) translate(4 452.75)">
<title>wrap_w2c__f205</title>
<!-- Node1 -->
<g id="Node000001" class="node">
<title>Node1</title>
<g id="a_Node000001"><a xlink:title=" ">
<polygon fill="#999999" stroke="#666666" points="97,-292.75 0,-292.75 0,-272 97,-272 97,-292.75"/>
<text text-anchor="middle" x="48.5" y="-279.25" font-family="Helvetica,sans-Serif" font-size="10.00">wrap_w2c__f205</text>
</a>
</g>
</g>
<!-- Node2 -->
<g id="Node000002" class="node">
<title>Node2</title>
<g id="a_Node000002"><a xlink:href="app_8c.html#aeb12ecc9385837eed1de8b75424f1317" target="_top" xlink:title=" ">
<polygon fill="white" stroke="#666666" points="200.75,-292.75 133,-292.75 133,-272 200.75,-272 200.75,-292.75"/>
<text text-anchor="middle" x="166.88" y="-279.25" font-family="Helvetica,sans-Serif" font-size="10.00">w2c__f205</text>
</a>
</g>
</g>
<!-- Node1&#45;&gt;Node2 -->
<g id="edge1_Node000001_Node000002" class="edge">
<title>Node1&#45;&gt;Node2</title>
<g id="a_edge1_Node000001_Node000002"><a xlink:title=" ">
<path fill="none" stroke="#63b8ff" d="M97.17,-282.38C105.18,-282.38 113.47,-282.38 121.4,-282.38"/>
<polygon fill="#63b8ff" stroke="#63b8ff" points="121.17,-285.88 131.17,-282.38 121.17,-278.88 121.17,-285.88"/>
</a>
</g>
</g>
<!-- Node3 -->
<g id="Node000003" class="node">
<title>Node3</title>
<g id="a_Node000003"><a xlink:href="app_8c.html#aa10b6a43c30b8d06deaba6072073d628" target="_top" xlink:title=" ">
<polygon fill="white" stroke="#666666" points="309.38,-429.75 239.38,-429.75 239.38,-409 309.38,-409 309.38,-429.75"/>
<text text-anchor="middle" x="274.38" y="-416.25" font-family="Helvetica,sans-Serif" font-size="10.00">w2c_0_116</text>
</a>
</g>
</g>
<!-- Node2&#45;&gt;Node3 -->
<g id="edge2_Node000002_Node000003" class="edge">
<title>Node2&#45;&gt;Node3</title>
<g id="a_edge2_Node000002_Node000003"><a xlink:title=" ">
<path fill="none" stroke="#63b8ff" d="M171.85,-293.01C180.59,-315.2 203.39,-367.07 236.75,-399.38 237.77,-400.37 238.86,-401.33 239.99,-402.25"/>
<polygon fill="#63b8ff" stroke="#63b8ff" points="237.77,-404.97 247.99,-407.77 241.75,-399.21 237.77,-404.97"/>
</a>
</g>
</g>
<!-- Node4 -->
<g id="Node000004" class="node">
<title>Node4</title>
<g id="a_Node000004"><a xlink:href="app_8c.html#ade7ef3afa13f61a8c1a8c2c13fe3dda7" target="_top" xlink:title=" ">
<polygon fill="white" stroke="#666666" points="306.38,-390.75 242.38,-390.75 242.38,-370 306.38,-370 306.38,-390.75"/>
<text text-anchor="middle" x="274.38" y="-377.25" font-family="Helvetica,sans-Serif" font-size="10.00">w2c_0_26</text>
</a>
</g>
</g>
<!-- Node2&#45;&gt;Node4 -->
<g id="edge3_Node000002_Node000004" class="edge">
<title>Node2&#45;&gt;Node4</title>
<g id="a_edge3_Node000002_Node000004"><a xlink:title=" ">
<path fill="none" stroke="#63b8ff" d="M175.37,-293.02C187.08,-309.09 211.05,-339.86 236.75,-360.38 238.23,-361.56 239.79,-362.7 241.39,-363.81"/>
<polygon fill="#63b8ff" stroke="#63b8ff" points="239.27,-366.61 249.61,-368.91 242.96,-360.67 239.27,-366.61"/>
</a>
</g>
</g>
<!-- Node5 -->
<g id="Node000005" class="node">
<title>Node5</title>
<g id="a_Node000005"><a xlink:href="app_8c.html#a31cc11531416445cb235efe29b5cdca3" target="_top" xlink:title=" ">
<polygon fill="white" stroke="#666666" points="306.38,-351.75 242.38,-351.75 242.38,-331 306.38,-331 306.38,-351.75"/>
<text text-anchor="middle" x="274.38" y="-338.25" font-family="Helvetica,sans-Serif" font-size="10.00">w2c_0_73</text>
</a>
</g>
</g>
<!-- Node2&#45;&gt;Node5 -->
<g id="edge4_Node000002_Node000005" class="edge">
<title>Node2&#45;&gt;Node5</title>
<g id="a_edge4_Node000002_Node000005"><a xlink:title=" ">
<path fill="none" stroke="#63b8ff" d="M186.83,-293.21C200.64,-301.08 219.82,-311.96 236.75,-321.38 238.96,-322.61 241.25,-323.87 243.56,-325.14"/>
<polygon fill="#63b8ff" stroke="#63b8ff" points="241.8,-328.17 252.25,-329.91 245.16,-322.03 241.8,-328.17"/>
</a>
</g>
</g>
<!-- Node6 -->
<g id="Node000006" class="node">
<title>Node6</title>
<g id="a_Node000006"><a xlink:href="app_8c.html#a7289466e4668b04108e0e2f55c8b32f7" target="_top" xlink:title=" ">
<polygon fill="white" stroke="#666666" points="306.38,-312.75 242.38,-312.75 242.38,-292 306.38,-292 306.38,-312.75"/>
<text text-anchor="middle" x="274.38" y="-299.25" font-family="Helvetica,sans-Serif" font-size="10.00">w2c_0_88</text>
</a>
</g>
</g>
<!-- Node2&#45;&gt;Node6 -->
<g id="edge5_Node000002_Node000006" class="edge">
<title>Node2&#45;&gt;Node6</title>
<g id="a_edge5_Node000002_Node000006"><a xlink:title=" ">
<path fill="none" stroke="#63b8ff" d="M200.97,-288.65C210.54,-290.46 221.12,-292.47 231.16,-294.37"/>
<polygon fill="#63b8ff" stroke="#63b8ff" points="230.24,-297.76 240.71,-296.18 231.54,-290.88 230.24,-297.76"/>
</a>
</g>
</g>
<!-- Node7 -->
<g id="Node000007" class="node">
<title>Node7</title>
<g id="a_Node000007"><a xlink:href="app_8c.html#ae42480847be1e319c571d8bc8695d191" target="_top" xlink:title=" ">
<polygon fill="white" stroke="#666666" points="308.25,-273.75 240.5,-273.75 240.5,-253 308.25,-253 308.25,-273.75"/>
<text text-anchor="middle" x="274.38" y="-260.25" font-family="Helvetica,sans-Serif" font-size="10.00">w2c__f223</text>
</a>
</g>
</g>
<!-- Node2&#45;&gt;Node7 -->
<g id="edge6_Node000002_Node000007" class="edge">
<title>Node2&#45;&gt;Node7</title>
<g id="a_edge6_Node000002_Node000007"><a xlink:title=" ">
<path fill="none" stroke="#63b8ff" d="M200.97,-276.42C209.82,-274.82 219.53,-273.07 228.88,-271.39"/>
<polygon fill="#63b8ff" stroke="#63b8ff" points="229.33,-274.86 238.55,-269.65 228.09,-267.97 229.33,-274.86"/>
</a>
</g>
</g>
<!-- Node17 -->
<g id="Node000017" class="node">
<title>Node17</title>
<g id="a_Node000017"><a xlink:href="app_8c.html#a5afd0bdcabe1312572f585b64e00c911" target="_top" xlink:title=" ">
<polygon fill="white" stroke="#666666" points="308.25,-234.75 240.5,-234.75 240.5,-214 308.25,-214 308.25,-234.75"/>
<text text-anchor="middle" x="274.38" y="-221.25" font-family="Helvetica,sans-Serif" font-size="10.00">w2c__f256</text>
</a>
</g>
</g>
<!-- Node2&#45;&gt;Node17 -->
<g id="edge21_Node000002_Node000017" class="edge">
<title>Node2&#45;&gt;Node17</title>
<g id="a_edge21_Node000002_Node000017"><a xlink:title=" ">
<path fill="none" stroke="#63b8ff" d="M187.46,-271.54C201.23,-263.93 220.11,-253.51 236.75,-244.38 238.97,-243.16 241.26,-241.9 243.57,-240.63"/>
<polygon fill="#63b8ff" stroke="#63b8ff" points="245.18,-243.75 252.27,-235.88 241.82,-237.61 245.18,-243.75"/>
</a>
</g>
</g>
<!-- Node25 -->
<g id="Node000025" class="node">
<title>Node25</title>
<g id="a_Node000025"><a xlink:href="app_8c.html#aaf013b2b29372f4a479047d0c464d3ba" target="_top" xlink:title=" ">
<polygon fill="white" stroke="#666666" points="308.25,-195.75 240.5,-195.75 240.5,-175 308.25,-175 308.25,-195.75"/>
<text text-anchor="middle" x="274.38" y="-182.25" font-family="Helvetica,sans-Serif" font-size="10.00">w2c__f401</text>
</a>
</g>
</g>
<!-- Node2&#45;&gt;Node25 -->
<g id="edge29_Node000002_Node000025" class="edge">
<title>Node2&#45;&gt;Node25</title>
<g id="a_edge29_Node000002_Node000025"><a xlink:title=" ">
<path fill="none" stroke="#63b8ff" d="M175.6,-271.61C187.42,-255.69 211.31,-225.55 236.75,-205.38 238.23,-204.2 239.79,-203.05 241.4,-201.95"/>
<polygon fill="#63b8ff" stroke="#63b8ff" points="242.97,-205.1 249.63,-196.86 239.28,-199.14 242.97,-205.1"/>
</a>
</g>
</g>
<!-- Node28 -->
<g id="Node000028" class="node">
<title>Node28</title>
<g id="a_Node000028"><a xlink:href="app_8c.html#abe22e959f965cb0fbcf5b83be18fbe1e" target="_top" xlink:title=" ">
<polygon fill="white" stroke="#666666" points="312,-98.75 236.75,-98.75 236.75,-78 312,-78 312,-98.75"/>
<text text-anchor="middle" x="274.38" y="-85.25" font-family="Helvetica,sans-Serif" font-size="10.00">wasm_quiet</text>
</a>
</g>
</g>
<!-- Node2&#45;&gt;Node28 -->
<g id="edge38_Node000002_Node000028" class="edge">
<title>Node2&#45;&gt;Node28</title>
<g id="a_edge38_Node000002_Node000028"><a xlink:title=" ">
<path fill="none" stroke="#63b8ff" d="M173.7,-271.67C190.63,-240.53 240.08,-149.6 262.32,-108.71"/>
<polygon fill="#63b8ff" stroke="#63b8ff" points="265.27,-110.6 266.98,-100.14 259.12,-107.25 265.27,-110.6"/>
</a>
</g>
</g>
<!-- Node8 -->
<g id="Node000008" class="node">
<title>Node8</title>
<g id="a_Node000008"><a xlink:href="app_8c.html#a1a8a1d528c65d63a630e19c3a4bdd098" target="_top" xlink:title=" ">
<polygon fill="white" stroke="#666666" points="416.88,-371.75 349.12,-371.75 349.12,-351 416.88,-351 416.88,-371.75"/>
<text text-anchor="middle" x="383" y="-358.25" font-family="Helvetica,sans-Serif" font-size="10.00">w2c__f557</text>
</a>
</g>
</g>
<!-- Node7&#45;&gt;Node8 -->
<g id="edge7_Node000007_Node000008" class="edge">
<title>Node7&#45;&gt;Node8</title>
<g id="a_edge7_Node000007_Node000008"><a xlink:title=" ">
<path fill="none" stroke="#63b8ff" d="M299.45,-274.19C303.91,-276.82 308.32,-279.89 312,-283.38 334.04,-304.22 326.29,-320.18 348,-341.38 348.88,-342.24 349.81,-343.08 350.77,-343.89"/>
<polygon fill="#63b8ff" stroke="#63b8ff" points="348.64,-346.67 358.8,-349.68 352.73,-340.99 348.64,-346.67"/>
</a>
</g>
</g>
<!-- Node9 -->
<g id="Node000009" class="node">
<title>Node9</title>
<g id="a_Node000009"><a xlink:href="app_8c.html#a0f7003812eaf983535ff7979fc047a21" target="_top" xlink:title=" ">
<polygon fill="white" stroke="#666666" points="521.75,-410.75 454,-410.75 454,-390 521.75,-390 521.75,-410.75"/>
<text text-anchor="middle" x="487.88" y="-397.25" font-family="Helvetica,sans-Serif" font-size="10.00">w2c__f353</text>
</a>
</g>
</g>
<!-- Node8&#45;&gt;Node9 -->
<g id="edge8_Node000008_Node000009" class="edge">
<title>Node8&#45;&gt;Node9</title>
<g id="a_edge8_Node000008_Node000009"><a xlink:title=" ">
<path fill="none" stroke="#63b8ff" d="M412.66,-372.24C423.58,-376.38 436.22,-381.17 447.94,-385.62"/>
<polygon fill="#63b8ff" stroke="#63b8ff" points="446.37,-388.76 456.96,-389.03 448.85,-382.22 446.37,-388.76"/>
</a>
</g>
</g>
<!-- Node14 -->
<g id="Node000014" class="node">
<title>Node14</title>
<g id="a_Node000014"><a xlink:href="app_8c.html#ac9cc84763a9c1933e50eedd7a06c17e2" target="_top" xlink:title=" ">
<polygon fill="white" stroke="#666666" points="521.75,-371.75 454,-371.75 454,-351 521.75,-351 521.75,-371.75"/>
<text text-anchor="middle" x="487.88" y="-358.25" font-family="Helvetica,sans-Serif" font-size="10.00">w2c__f480</text>
</a>
</g>
</g>
<!-- Node8&#45;&gt;Node14 -->
<g id="edge14_Node000008_Node000014" class="edge">
<title>Node8&#45;&gt;Node14</title>
<g id="a_edge14_Node000008_Node000014"><a xlink:title=" ">
<path fill="none" stroke="#63b8ff" d="M417.12,-361.38C425.19,-361.38 433.96,-361.38 442.47,-361.38"/>
<polygon fill="#63b8ff" stroke="#63b8ff" points="442.31,-364.88 452.31,-361.38 442.31,-357.88 442.31,-364.88"/>
</a>
</g>
</g>
<!-- Node10 -->
<g id="Node000010" class="node">
<title>Node10</title>
<g id="a_Node000010"><a xlink:href="app_8c.html#aaca5d5bcf49f2ca74019cf097750b9f3" target="_top" xlink:title=" ">
<polygon fill="white" stroke="#666666" points="625.5,-448.75 557.75,-448.75 557.75,-428 625.5,-428 625.5,-448.75"/>
<text text-anchor="middle" x="591.62" y="-435.25" font-family="Helvetica,sans-Serif" font-size="10.00">w2c__f258</text>
</a>
</g>
</g>
<!-- Node9&#45;&gt;Node10 -->
<g id="edge9_Node000009_Node000010" class="edge">
<title>Node9&#45;&gt;Node10</title>
<g id="a_edge9_Node000009_Node000010"><a xlink:title=" ">
<path fill="none" stroke="#63b8ff" d="M517.76,-411.16C528.07,-415.01 539.88,-419.42 550.94,-423.55"/>
<polygon fill="#63b8ff" stroke="#63b8ff" points="549.66,-426.81 560.25,-427.03 552.11,-420.25 549.66,-426.81"/>
</a>
</g>
</g>
<!-- Node13 -->
<g id="Node000013" class="node">
<title>Node13</title>
<g id="a_Node000013"><a xlink:href="app_8c.html#a4634342addbde677893ffcb45cf639dd" target="_top" xlink:title=" ">
<polygon fill="white" stroke="#666666" points="625.5,-409.75 557.75,-409.75 557.75,-389 625.5,-389 625.5,-409.75"/>
<text text-anchor="middle" x="591.62" y="-396.25" font-family="Helvetica,sans-Serif" font-size="10.00">w2c__f302</text>
</a>
</g>
</g>
<!-- Node9&#45;&gt;Node13 -->
<g id="edge12_Node000009_Node000013" class="edge">
<title>Node9&#45;&gt;Node13</title>
<g id="a_edge12_Node000009_Node000013"><a xlink:title=" ">
<path fill="none" stroke="#63b8ff" d="M522.19,-400.05C529.82,-399.97 538.06,-399.89 546.08,-399.81"/>
<polygon fill="#63b8ff" stroke="#63b8ff" points="546.1,-403.31 556.07,-399.71 546.03,-396.31 546.1,-403.31"/>
</a>
</g>
</g>
<!-- Node11 -->
<g id="Node000011" class="node">
<title>Node11</title>
<g id="a_Node000011"><a xlink:href="app_8c.html#a8d9f347f9a643f0ebfb53c4f54578ac4" target="_top" xlink:title=" ">
<polygon fill="white" stroke="#666666" points="729.25,-390.75 661.5,-390.75 661.5,-370 729.25,-370 729.25,-390.75"/>
<text text-anchor="middle" x="695.38" y="-377.25" font-family="Helvetica,sans-Serif" font-size="10.00">w2c__f304</text>
</a>
</g>
</g>
<!-- Node10&#45;&gt;Node11 -->
<g id="edge10_Node000010_Node000011" class="edge">
<title>Node10&#45;&gt;Node11</title>
<g id="a_edge10_Node000010_Node000011"><a xlink:title=" ">
<path fill="none" stroke="#63b8ff" d="M611.29,-427.74C626.54,-419.04 648.35,-406.61 665.8,-396.66"/>
<polygon fill="#63b8ff" stroke="#63b8ff" points="667.22,-399.88 674.17,-391.89 663.75,-393.8 667.22,-399.88"/>
</a>
</g>
</g>
<!-- Node12 -->
<g id="Node000012" class="node">
<title>Node12</title>
<g id="a_Node000012"><a xlink:href="app_8c.html#a881f0b113e93dce3ff52d04b435850f6" target="_top" xlink:title=" ">
<polygon fill="white" stroke="#666666" points="729.25,-448.75 661.5,-448.75 661.5,-428 729.25,-428 729.25,-448.75"/>
<text text-anchor="middle" x="695.38" y="-435.25" font-family="Helvetica,sans-Serif" font-size="10.00">w2c__f491</text>
</a>
</g>
</g>
<!-- Node10&#45;&gt;Node12 -->
<g id="edge11_Node000010_Node000012" class="edge">
<title>Node10&#45;&gt;Node12</title>
<g id="a_edge11_Node000010_Node000012"><a xlink:title=" ">
<path fill="none" stroke="#63b8ff" d="M625.94,-438.38C633.57,-438.38 641.81,-438.38 649.83,-438.38"/>
<polygon fill="#63b8ff" stroke="#63b8ff" points="649.82,-441.88 659.82,-438.38 649.82,-434.88 649.82,-441.88"/>
</a>
</g>
</g>
<!-- Node13&#45;&gt;Node11 -->
<g id="edge13_Node000013_Node000011" class="edge">
<title>Node13&#45;&gt;Node11</title>
<g id="a_edge13_Node000013_Node000011"><a xlink:title=" ">
<path fill="none" stroke="#63b8ff" d="M625.94,-393.15C633.66,-391.71 642,-390.16 650.11,-388.64"/>
<polygon fill="#63b8ff" stroke="#63b8ff" points="650.66,-392.1 659.84,-386.82 649.37,-385.22 650.66,-392.1"/>
</a>
</g>
</g>
<!-- Node14&#45;&gt;Node10 -->
<g id="edge17_Node000014_Node000010" class="edge">
<title>Node14&#45;&gt;Node10</title>
<g id="a_edge17_Node000014_Node000010"><a xlink:title=" ">
<path fill="none" stroke="#63b8ff" d="M508.54,-372.23C513.03,-375 517.67,-378.13 521.75,-381.38 539.69,-395.67 539.81,-404.08 557.75,-418.38 559.02,-419.39 560.35,-420.39 561.72,-421.38"/>
<polygon fill="#63b8ff" stroke="#63b8ff" points="559.43,-424.06 569.7,-426.69 563.31,-418.23 559.43,-424.06"/>
</a>
</g>
</g>
<!-- Node14&#45;&gt;Node11 -->
<g id="edge19_Node000014_Node000011" class="edge">
<title>Node14&#45;&gt;Node11</title>
<g id="a_edge19_Node000014_Node000011"><a xlink:title=" ">
<path fill="none" stroke="#63b8ff" d="M521.89,-364.43C556.54,-367.63 611.23,-372.69 649.71,-376.25"/>
<polygon fill="#63b8ff" stroke="#63b8ff" points="649.31,-379.72 659.59,-377.16 649.96,-372.75 649.31,-379.72"/>
</a>
</g>
</g>
<!-- Node14&#45;&gt;Node13 -->
<g id="edge18_Node000014_Node000013" class="edge">
<title>Node14&#45;&gt;Node13</title>
<g id="a_edge18_Node000014_Node000013"><a xlink:title=" ">
<path fill="none" stroke="#63b8ff" d="M517.76,-372.16C528.07,-376.01 539.88,-380.42 550.94,-384.55"/>
<polygon fill="#63b8ff" stroke="#63b8ff" points="549.66,-387.81 560.25,-388.03 552.11,-381.25 549.66,-387.81"/>
</a>
</g>
</g>
<!-- Node15 -->
<g id="Node000015" class="node">
<title>Node15</title>
<g id="a_Node000015"><a xlink:href="app_8c.html#a0378208e0d5c0d1d6e7370f1c578fab3" target="_top" xlink:title=" ">
<polygon fill="white" stroke="#666666" points="625.5,-333.75 557.75,-333.75 557.75,-313 625.5,-313 625.5,-333.75"/>
<text text-anchor="middle" x="591.62" y="-320.25" font-family="Helvetica,sans-Serif" font-size="10.00">w2c__f216</text>
</a>
</g>
</g>
<!-- Node14&#45;&gt;Node15 -->
<g id="edge15_Node000014_Node000015" class="edge">
<title>Node14&#45;&gt;Node15</title>
<g id="a_edge15_Node000014_Node000015"><a xlink:title=" ">
<path fill="none" stroke="#63b8ff" d="M517.76,-350.59C528.07,-346.74 539.88,-342.33 550.94,-338.2"/>
<polygon fill="#63b8ff" stroke="#63b8ff" points="552.11,-341.5 560.25,-334.72 549.66,-334.94 552.11,-341.5"/>
</a>
</g>
</g>
<!-- Node16 -->
<g id="Node000016" class="node">
<title>Node16</title>
<g id="a_Node000016"><a xlink:href="app_8c.html#a674f6e81761467d0a8dc6d2a425eda9f" target="_top" xlink:title=" ">
<polygon fill="white" stroke="#666666" points="625.5,-294.75 557.75,-294.75 557.75,-274 625.5,-274 625.5,-294.75"/>
<text text-anchor="middle" x="591.62" y="-281.25" font-family="Helvetica,sans-Serif" font-size="10.00">w2c__f498</text>
</a>
</g>
</g>
<!-- Node14&#45;&gt;Node16 -->
<g id="edge20_Node000014_Node000016" class="edge">
<title>Node14&#45;&gt;Node16</title>
<g id="a_edge20_Node000014_Node000016"><a xlink:title=" ">
<path fill="none" stroke="#63b8ff" d="M508.54,-350.52C513.03,-347.75 517.67,-344.62 521.75,-341.38 539.69,-327.08 539.81,-318.67 557.75,-304.38 559.02,-303.36 560.35,-302.36 561.72,-301.37"/>
<polygon fill="#63b8ff" stroke="#63b8ff" points="563.31,-304.52 569.7,-296.06 559.43,-298.69 563.31,-304.52"/>
</a>
</g>
</g>
<!-- Node15&#45;&gt;Node11 -->
<g id="edge16_Node000015_Node000011" class="edge">
<title>Node15&#45;&gt;Node11</title>
<g id="a_edge16_Node000015_Node000011"><a xlink:title=" ">
<path fill="none" stroke="#63b8ff" d="M611.76,-334.1C626.87,-342.56 648.2,-354.51 665.4,-364.15"/>
<polygon fill="#63b8ff" stroke="#63b8ff" points="663.22,-366.93 673.66,-368.77 666.64,-360.83 663.22,-366.93"/>
</a>
</g>
</g>
<!-- Node18 -->
<g id="Node000018" class="node">
<title>Node18</title>
<g id="a_Node000018"><a xlink:href="app_8c.html#add88601cb03b410d0c4bc8f456c3ae55" target="_top" xlink:title=" ">
<polygon fill="white" stroke="#666666" points="418,-293.75 348,-293.75 348,-273 418,-273 418,-293.75"/>
<text text-anchor="middle" x="383" y="-280.25" font-family="Helvetica,sans-Serif" font-size="10.00">w2c_0_104</text>
</a>
</g>
</g>
<!-- Node17&#45;&gt;Node18 -->
<g id="edge22_Node000017_Node000018" class="edge">
<title>Node17&#45;&gt;Node18</title>
<g id="a_edge22_Node000017_Node000018"><a xlink:title=" ">
<path fill="none" stroke="#63b8ff" d="M295.16,-235.14C300.62,-238.12 306.54,-241.37 312,-244.38 325.42,-251.78 340.25,-260.03 352.79,-267.03"/>
<polygon fill="#63b8ff" stroke="#63b8ff" points="350.95,-270.01 361.39,-271.83 354.37,-263.9 350.95,-270.01"/>
</a>
</g>
</g>
<!-- Node19 -->
<g id="Node000019" class="node">
<title>Node19</title>
<g id="a_Node000019"><a xlink:href="app_8c.html#ae68178bc105b2d45ebe022d5f9bc03f7" target="_top" xlink:title=" ">
<polygon fill="white" stroke="#666666" points="418,-254.75 348,-254.75 348,-234 418,-234 418,-254.75"/>
<text text-anchor="middle" x="383" y="-241.25" font-family="Helvetica,sans-Serif" font-size="10.00">w2c_0_159</text>
</a>
</g>
</g>
<!-- Node17&#45;&gt;Node19 -->
<g id="edge23_Node000017_Node000019" class="edge">
<title>Node17&#45;&gt;Node19</title>
<g id="a_edge23_Node000017_Node000019"><a xlink:title=" ">
<path fill="none" stroke="#63b8ff" d="M308.53,-230.59C317.39,-232.26 327.13,-234.08 336.54,-235.85"/>
<polygon fill="#63b8ff" stroke="#63b8ff" points="335.8,-239.27 346.28,-237.67 337.09,-232.39 335.8,-239.27"/>
</a>
</g>
</g>
<!-- Node20 -->
<g id="Node000020" class="node">
<title>Node20</title>
<g id="a_Node000020"><a xlink:href="app_8c.html#af3b7c5a4a8f14b9383b243d8c06b1301" target="_top" xlink:title=" ">
<polygon fill="white" stroke="#666666" points="418,-215.75 348,-215.75 348,-195 418,-195 418,-215.75"/>
<text text-anchor="middle" x="383" y="-202.25" font-family="Helvetica,sans-Serif" font-size="10.00">w2c_0_172</text>
</a>
</g>
</g>
<!-- Node17&#45;&gt;Node20 -->
<g id="edge24_Node000017_Node000020" class="edge">
<title>Node17&#45;&gt;Node20</title>
<g id="a_edge24_Node000017_Node000020"><a xlink:title=" ">
<path fill="none" stroke="#63b8ff" d="M308.53,-218.47C317.39,-216.89 327.13,-215.15 336.54,-213.48"/>
<polygon fill="#63b8ff" stroke="#63b8ff" points="337.04,-216.94 346.27,-211.74 335.81,-210.05 337.04,-216.94"/>
</a>
</g>
</g>
<!-- Node21 -->
<g id="Node000021" class="node">
<title>Node21</title>
<g id="a_Node000021"><a xlink:href="app_8c.html#aa018dbf3bc5814e93cedb41f14e2b4d9" target="_top" xlink:title=" ">
<polygon fill="white" stroke="#666666" points="415,-176.75 351,-176.75 351,-156 415,-156 415,-176.75"/>
<text text-anchor="middle" x="383" y="-163.25" font-family="Helvetica,sans-Serif" font-size="10.00">w2c_0_19</text>
</a>
</g>
</g>
<!-- Node17&#45;&gt;Node21 -->
<g id="edge25_Node000017_Node000021" class="edge">
<title>Node17&#45;&gt;Node21</title>
<g id="a_edge25_Node000017_Node000021"><a xlink:title=" ">
<path fill="none" stroke="#63b8ff" d="M294.93,-213.74C310.99,-205 333.98,-192.49 352.31,-182.52"/>
<polygon fill="#63b8ff" stroke="#63b8ff" points="353.76,-185.72 360.88,-177.87 350.42,-179.57 353.76,-185.72"/>
</a>
</g>
</g>
<!-- Node22 -->
<g id="Node000022" class="node">
<title>Node22</title>
<g id="a_Node000022"><a xlink:href="app_8c.html#aec29ea126421b36c7ea313062dea6ec6" target="_top" xlink:title=" ">
<polygon fill="white" stroke="#666666" points="415,-137.75 351,-137.75 351,-117 415,-117 415,-137.75"/>
<text text-anchor="middle" x="383" y="-124.25" font-family="Helvetica,sans-Serif" font-size="10.00">w2c_0_35</text>
</a>
</g>
</g>
<!-- Node17&#45;&gt;Node22 -->
<g id="edge26_Node000017_Node000022" class="edge">
<title>Node17&#45;&gt;Node22</title>
<g id="a_edge26_Node000017_Node000022"><a xlink:title=" ">
<path fill="none" stroke="#63b8ff" d="M299.43,-213.54C303.89,-210.91 308.3,-207.85 312,-204.38 333.85,-183.87 326.48,-168.22 348,-147.38 348.89,-146.52 349.81,-145.68 350.78,-144.87"/>
<polygon fill="#63b8ff" stroke="#63b8ff" points="352.74,-147.77 358.82,-139.09 348.65,-142.08 352.74,-147.77"/>
</a>
</g>
</g>
<!-- Node23 -->
<g id="Node000023" class="node">
<title>Node23</title>
<g id="a_Node000023"><a xlink:href="app_8c.html#a19209c6f5685e2e28a1b671ece901600" target="_top" xlink:title=" ">
<polygon fill="white" stroke="#666666" points="416.88,-332.75 349.12,-332.75 349.12,-312 416.88,-312 416.88,-332.75"/>
<text text-anchor="middle" x="383" y="-319.25" font-family="Helvetica,sans-Serif" font-size="10.00">w2c__f335</text>
</a>
</g>
</g>
<!-- Node17&#45;&gt;Node23 -->
<g id="edge27_Node000017_Node000023" class="edge">
<title>Node17&#45;&gt;Node23</title>
<g id="a_edge27_Node000017_Node000023"><a xlink:title=" ">
<path fill="none" stroke="#63b8ff" d="M299.45,-235.19C303.91,-237.82 308.32,-240.89 312,-244.38 334.04,-265.22 326.29,-281.18 348,-302.38 348.88,-303.24 349.81,-304.08 350.77,-304.89"/>
<polygon fill="#63b8ff" stroke="#63b8ff" points="348.64,-307.67 358.8,-310.68 352.73,-301.99 348.64,-307.67"/>
</a>
</g>
</g>
<!-- Node24 -->
<g id="Node000024" class="node">
<title>Node24</title>
<g id="a_Node000024"><a xlink:href="app_8c.html#a84a707cc8c74624a4f1db785844c7211" target="_top" xlink:title=" ">
<polygon fill="white" stroke="#666666" points="519.88,-332.75 455.88,-332.75 455.88,-312 519.88,-312 519.88,-332.75"/>
<text text-anchor="middle" x="487.88" y="-319.25" font-family="Helvetica,sans-Serif" font-size="10.00">w2c_0_92</text>
</a>
</g>
</g>
<!-- Node23&#45;&gt;Node24 -->
<g id="edge28_Node000023_Node000024" class="edge">
<title>Node23&#45;&gt;Node24</title>
<g id="a_edge28_Node000023_Node000024"><a xlink:title=" ">
<path fill="none" stroke="#63b8ff" d="M417.12,-322.38C425.79,-322.38 435.26,-322.38 444.35,-322.38"/>
<polygon fill="#63b8ff" stroke="#63b8ff" points="444.06,-325.88 454.06,-322.38 444.06,-318.88 444.06,-325.88"/>
</a>
</g>
</g>
<!-- Node25&#45;&gt;Node18 -->
<g id="edge30_Node000025_Node000018" class="edge">
<title>Node25&#45;&gt;Node18</title>
<g id="a_edge30_Node000025_Node000018"><a xlink:title=" ">
<path fill="none" stroke="#63b8ff" d="M299.45,-196.19C303.91,-198.82 308.32,-201.89 312,-205.38 334.04,-226.22 326.29,-242.18 348,-263.38 348.88,-264.24 349.81,-265.08 350.77,-265.89"/>
<polygon fill="#63b8ff" stroke="#63b8ff" points="348.64,-268.67 358.8,-271.68 352.73,-262.99 348.64,-268.67"/>
</a>
</g>
</g>
<!-- Node25&#45;&gt;Node19 -->
<g id="edge32_Node000025_Node000019" class="edge">
<title>Node25&#45;&gt;Node19</title>
<g id="a_edge32_Node000025_Node000019"><a xlink:title=" ">
<path fill="none" stroke="#63b8ff" d="M295.16,-196.14C300.62,-199.12 306.54,-202.37 312,-205.38 325.42,-212.78 340.25,-221.03 352.79,-228.03"/>
<polygon fill="#63b8ff" stroke="#63b8ff" points="350.95,-231.01 361.39,-232.83 354.37,-224.9 350.95,-231.01"/>
</a>
</g>
</g>
<!-- Node25&#45;&gt;Node20 -->
<g id="edge33_Node000025_Node000020" class="edge">
<title>Node25&#45;&gt;Node20</title>
<g id="a_edge33_Node000025_Node000020"><a xlink:title=" ">
<path fill="none" stroke="#63b8ff" d="M308.53,-191.59C317.39,-193.26 327.13,-195.08 336.54,-196.85"/>
<polygon fill="#63b8ff" stroke="#63b8ff" points="335.8,-200.27 346.28,-198.67 337.09,-193.39 335.8,-200.27"/>
</a>
</g>
</g>
<!-- Node25&#45;&gt;Node21 -->
<g id="edge35_Node000025_Node000021" class="edge">
<title>Node25&#45;&gt;Node21</title>
<g id="a_edge35_Node000025_Node000021"><a xlink:title=" ">
<path fill="none" stroke="#63b8ff" d="M308.53,-179.47C318.3,-177.73 329.13,-175.8 339.41,-173.96"/>
<polygon fill="#63b8ff" stroke="#63b8ff" points="339.97,-177.42 349.2,-172.22 338.74,-170.53 339.97,-177.42"/>
</a>
</g>
</g>
<!-- Node25&#45;&gt;Node22 -->
<g id="edge36_Node000025_Node000022" class="edge">
<title>Node25&#45;&gt;Node22</title>
<g id="a_edge36_Node000025_Node000022"><a xlink:title=" ">
<path fill="none" stroke="#63b8ff" d="M294.93,-174.74C310.99,-166 333.98,-153.49 352.31,-143.52"/>
<polygon fill="#63b8ff" stroke="#63b8ff" points="353.76,-146.72 360.88,-138.87 350.42,-140.57 353.76,-146.72"/>
</a>
</g>
</g>
<!-- Node25&#45;&gt;Node23 -->
<g id="edge37_Node000025_Node000023" class="edge">
<title>Node25&#45;&gt;Node23</title>
<g id="a_edge37_Node000025_Node000023"><a xlink:title=" ">
<path fill="none" stroke="#63b8ff" d="M300.78,-196.1C304.92,-198.68 308.87,-201.76 312,-205.38 342.08,-240.15 318.47,-267.12 348,-302.38 348.65,-303.16 349.35,-303.91 350.07,-304.65"/>
<polygon fill="#63b8ff" stroke="#63b8ff" points="347.59,-307.15 357.58,-310.69 351.98,-301.69 347.59,-307.15"/>
</a>
</g>
</g>
<!-- Node26 -->
<g id="Node000026" class="node">
<title>Node26</title>
<g id="a_Node000026"><a xlink:href="app_8c.html#a416a3f7003240b1a361323dbb3203bf8" target="_top" xlink:title=" ">
<polygon fill="white" stroke="#666666" points="418,-98.75 348,-98.75 348,-78 418,-78 418,-98.75"/>
<text text-anchor="middle" x="383" y="-85.25" font-family="Helvetica,sans-Serif" font-size="10.00">w2c_0_130</text>
</a>
</g>
</g>
<!-- Node25&#45;&gt;Node26 -->
<g id="edge31_Node000025_Node000026" class="edge">
<title>Node25&#45;&gt;Node26</title>
<g id="a_edge31_Node000025_Node000026"><a xlink:title=" ">
<path fill="none" stroke="#63b8ff" d="M283.73,-174.76C296.46,-159.02 322,-129.11 348,-108.38 349.31,-107.33 350.67,-106.31 352.07,-105.31"/>
<polygon fill="#63b8ff" stroke="#63b8ff" points="353.86,-108.32 360.33,-99.93 350.04,-102.45 353.86,-108.32"/>
</a>
</g>
</g>
<!-- Node27 -->
<g id="Node000027" class="node">
<title>Node27</title>
<g id="a_Node000027"><a xlink:href="app_8c.html#a413a166631157266d5dbee4d8d8164da" target="_top" xlink:title=" ">
<polygon fill="white" stroke="#666666" points="418,-59.75 348,-59.75 348,-39 418,-39 418,-59.75"/>
<text text-anchor="middle" x="383" y="-46.25" font-family="Helvetica,sans-Serif" font-size="10.00">w2c_0_182</text>
</a>
</g>
</g>
<!-- Node25&#45;&gt;Node27 -->
<g id="edge34_Node000025_Node000027" class="edge">
<title>Node25&#45;&gt;Node27</title>
<g id="a_edge34_Node000025_Node000027"><a xlink:title=" ">
<path fill="none" stroke="#63b8ff" d="M279.97,-174.6C289.78,-152.59 314.62,-101.85 348,-69.38 348.88,-68.52 349.81,-67.68 350.77,-66.86"/>
<polygon fill="#63b8ff" stroke="#63b8ff" points="352.74,-69.76 358.81,-61.08 348.65,-64.08 352.74,-69.76"/>
</a>
</g>
</g>
<!-- Node29 -->
<g id="Node000029" class="node">
<title>Node29</title>
<g id="a_Node000029"><a xlink:href="app_8c.html#ae10979e670e507d4373e8cadcb3169aa" target="_top" xlink:title=" ">
<polygon fill="white" stroke="#666666" points="415,-20.75 351,-20.75 351,0 415,0 415,-20.75"/>
<text text-anchor="middle" x="383" y="-7.25" font-family="Helvetica,sans-Serif" font-size="10.00">quiet_nan</text>
</a>
</g>
</g>
<!-- Node28&#45;&gt;Node29 -->
<g id="edge39_Node000028_Node000029" class="edge">
<title>Node28&#45;&gt;Node29</title>
<g id="a_edge39_Node000028_Node000029"><a xlink:title=" ">
<path fill="none" stroke="#63b8ff" d="M287.81,-77.54C301.95,-65.44 325.94,-45.56 348,-30.38 349.59,-29.28 351.24,-28.18 352.92,-27.1"/>
<polygon fill="#63b8ff" stroke="#63b8ff" points="354.67,-30.14 361.35,-21.91 351,-24.17 354.67,-30.14"/>
</a>
</g>
</g>
</g>
</svg>
